ply
format ascii 1.0
element vertex 890
property float32 x
property float32 y
property float32 z
property float32 I
end_header
-28.5469 -11.8021 5.4468 0.8821
-27.8602 -12.6987 5.3987 0.8831
-27.6163 -13.7964 5.4433 0.8822
-27.4768 -14.9731 5.5176 0.8806
-27.4214 -16.2360 5.6191 0.8786
-27.4768 -17.6205 5.7555 0.8758
-27.4666 -19.0283 5.8918 0.8731
-27.4636 -20.5121 6.0442 0.8700
-0.0359 -13.3740 2.3582 0.9471
-28.5469 -11.8021 4.7322 0.8825
-27.4214 -16.2360 4.8819 0.8790
-27.4768 -17.6205 5.0005 0.8763
-27.4643 -20.5126 5.2514 0.8705
-27.4782 -22.0909 5.4012 0.8670
-27.4764 -23.7499 5.5638 0.8633
-27.4736 -25.5133 5.7437 0.8592
-27.4417 -27.3682 5.9373 0.8548
-0.0358 -13.3740 2.0488 0.9473
-39.4625 -11.5664 5.3550 0.8471
-34.8786 -11.5875 4.7860 0.8622
-30.9777 -11.5326 4.3044 0.8752
-27.6163 -13.7964 4.0200 0.8829
-27.4768 -14.9731 4.0748 0.8814
-27.4768 -17.6204 4.2506 0.8766
-27.4680 -19.0292 4.3514 0.8739
-27.4650 -20.5131 4.4640 0.8709
-27.4773 -22.0902 4.5911 0.8674
-27.4755 -23.7491 4.7292 0.8637
-27.4431 -27.3697 5.0472 0.8553
-27.4369 -29.3867 5.2354 0.8503
-27.4340 -33.9377 5.6827 0.8386
-45.3381 -11.5513 5.0240 0.8284
-39.4614 -11.5660 4.4157 0.8475
-30.9777 -11.5326 3.5495 0.8755
-28.5469 -11.8021 3.3171 0.8831
-27.6163 -13.7964 3.3149 0.8832
-27.4768 -14.9731 3.3602 0.8817
-27.4214 -16.2360 3.4220 0.8797
-27.4768 -17.6205 3.5051 0.8769
-27.4687 -19.0297 3.5883 0.8742
-27.4745 -23.7483 3.8996 0.8641
-27.4384 -29.3882 4.3174 0.8507
-27.4404 -36.5354 4.9065 0.8321
-0.0358 -13.3740 1.4361 0.9476
-30.9777 -11.5326 2.7982 0.8757
-27.8602 -12.6987 2.5919 0.8843
-27.4768 -14.9731 2.6489 0.8820
-27.4214 -16.2360 2.6977 0.8799
-27.4694 -19.0302 2.8289 0.8745
-27.4665 -20.5142 2.9020 0.8714
-27.4736 -23.7475 3.0741 0.8643
-27.4459 -27.3725 3.2814 0.8559
-27.4399 -29.3898 3.4037 0.8509
-27.4412 -31.5755 3.5413 0.8454
-27.4257 -39.3621 4.0612 0.8248
-45.3247 -11.5479 2.9004 0.8291
-34.8695 -11.5845 2.2785 0.8631
-27.6163 -13.7964 1.9143 0.8836
-27.4214 -16.2360 1.9761 0.8801
-27.4768 -17.6204 2.0241 0.8774
-27.4671 -20.5147 2.1259 0.8716
-27.4727 -23.7467 2.2518 0.8646
-27.4370 -33.9413 2.7064 0.8395
-27.4264 -39.3632 2.9750 0.8251
-0.0358 -13.3740 0.8293 0.9478
-28.5469 -11.8021 1.2180 0.8837
-27.8602 -12.6987 1.2073 0.8846
-27.4768 -14.9731 1.2339 0.8823
-27.4214 -16.2360 1.2566 0.8802
-27.4736 -22.0873 1.3900 0.8684
-27.4717 -23.7459 1.4318 0.8647
-27.4435 -31.5782 1.6497 0.8458
-27.4385 -36.5328 1.8016 0.8329
-27.4271 -39.3642 1.8918 0.8253
-0.0358 -13.3740 0.5274 0.9479
-45.3115 -11.5446 0.7898 0.8294
-39.4573 -11.5648 0.6945 0.8483
-27.8602 -12.6987 0.5172 0.8847
-27.4708 -23.7451 0.6134 0.8648
-27.4651 -25.5055 0.6331 0.8608
-27.4502 -27.3768 0.6549 0.8563
-27.4447 -31.5795 0.7067 0.8459
-27.4389 -33.9437 0.7373 0.8398
-27.4279 -39.3653 0.8104 0.8254
-0.0358 -13.3740 0.2259 0.9479
-49.8660 -1.7779 -0.2809 0.8191
-49.8634 -3.5602 -0.2815 0.8188
-45.3049 -11.5429 -0.2632 0.8294
-39.4563 -11.5645 -0.2315 0.8483
-30.9777 -11.5326 -0.1861 0.8761
-28.5469 -11.8021 -0.1739 0.8838
-27.4768 -14.9731 -0.1762 0.8823
-27.4768 -17.6205 -0.1838 0.8776
-27.4721 -19.0321 -0.1882 0.8749
-27.4637 -25.5042 -0.2110 0.8608
-27.4457 -29.3961 -0.2264 0.8514
-27.4399 -33.9450 -0.2458 0.8398
-0.0358 -13.3740 -0.0753 0.9479
-44.3909 0.0000 -1.2499 0.8372
-44.3214 -6.3614 -1.2608 0.8360
-34.8573 -11.5804 -1.0343 0.8633
-30.9777 -11.5326 -0.9307 0.8761
-27.8602 -12.6987 -0.8621 0.8847
-27.6163 -13.7964 -0.8692 0.8838
-27.4768 -14.9731 -0.8811 0.8823
-27.4768 -17.6205 -0.9191 0.8776
-27.4727 -19.0325 -0.9411 0.8748
-27.4699 -20.5167 -0.9654 0.8718
-27.4624 -25.5029 -1.0553 0.8607
-27.4470 -31.5821 -1.1782 0.8458
-27.4409 -33.9462 -1.2291 0.8397
-27.4366 -36.5303 -1.2864 0.8329
-0.0359 -13.3740 -0.3766 0.9479
-38.9116 -1.3873 -1.9746 0.8556
-38.8497 -4.1696 -1.9815 0.8551
-38.6381 -8.3904 -2.0052 0.8535
-37.4375 -10.9728 -1.9785 0.8553
-30.9777 -11.5326 -1.6763 0.8760
-28.5469 -11.8021 -1.5666 0.8836
-27.8602 -12.6987 -1.5528 0.8846
-27.6163 -13.7964 -1.5656 0.8837
-27.4768 -14.9731 -1.5869 0.8822
-27.4214 -16.2360 -1.6161 0.8802
-27.4734 -19.0330 -1.6950 0.8747
-27.4706 -20.5173 -1.7388 0.8717
-27.4680 -23.7427 -1.8413 0.8647
-27.4610 -25.5016 -1.9006 0.8606
-27.4544 -27.3810 -1.9664 0.8562
-27.4486 -29.3992 -2.0398 0.8512
-33.4523 0.0000 -2.4528 0.8744
-33.4412 -1.1923 -2.4535 0.8744
-33.4080 -2.3853 -2.4558 0.8743
-33.2746 -4.7759 -2.4648 0.8739
-32.7099 -9.5872 -2.4993 0.8722
-31.3422 -10.4126 -2.4216 0.8759
-30.9777 -11.5326 -2.4236 0.8758
-28.5469 -11.8021 -2.2649 0.8835
-27.6163 -13.7964 -2.2635 0.8835
-27.4214 -16.2360 -2.3366 0.8800
-27.4768 -17.6204 -2.3933 0.8773
-27.4713 -20.5178 -2.5141 0.8715
-23.2805 -28.7994 -2.7153 0.8620
-22.2396 -29.6107 -2.7153 0.8620
-21.1704 -30.3843 -2.7153 0.8620
-20.0743 -31.1194 -2.7153 0.8620
-17.8071 -32.4700 -2.7153 0.8620
-15.4494 -33.6558 -2.7153 0.8620
-14.2404 -34.1849 -2.7153 0.8620
-13.0133 -34.6706 -2.7153 0.8620
-11.7697 -35.1122 -2.7153 0.8620
-10.5111 -35.5093 -2.7153 0.8620
-7.9555 -36.1677 -2.7153 0.8620
-6.6618 -36.4282 -2.7153 0.8620
-5.3596 -36.6424 -2.7153 0.8620
-2.7364 -36.9311 -2.7153 0.8620
-1.3391 -34.9282 -2.5629 0.8692
1.1590 -35.1519 -2.5788 0.8684
2.4264 -35.3160 -2.5955 0.8676
3.7072 -35.4366 -2.6125 0.8668
5.0000 -35.5126 -2.6295 0.8660
6.3032 -35.5431 -2.6468 0.8652
7.6152 -35.5272 -2.6641 0.8644
10.2588 -35.3522 -2.6990 0.8627
11.5868 -35.1916 -2.7166 0.8619
12.9164 -34.9813 -2.7342 0.8611
14.2456 -34.7206 -2.7517 0.8603
15.5724 -34.4090 -2.7693 0.8594
19.5162 -33.1638 -2.8214 0.8570
20.8111 -32.6443 -2.8386 0.8562
22.0921 -32.0725 -2.8555 0.8554
24.6032 -30.7717 -2.8888 0.8538
-28.0054 -0.0000 -2.6887 0.8936
-27.9970 -0.9982 -2.6896 0.8935
-27.9618 -1.9965 -2.6913 0.8935
-27.8108 -3.9917 -2.6973 0.8932
-27.6949 -4.9880 -2.7016 0.8931
-27.3820 -6.9764 -2.7128 0.8927
-27.1846 -7.9677 -2.7197 0.8924
-26.5674 -9.8907 -2.7216 0.8923
-25.7434 -11.7339 -2.7161 0.8925
-25.3018 -12.6401 -2.7153 0.8926
-24.3368 -14.4097 -2.7153 0.8926
-23.8079 -15.2676 -2.7153 0.8926
-22.6601 -16.9244 -2.7153 0.8926
-22.0427 -17.7210 -2.7153 0.8926
-21.3973 -18.4953 -2.7153 0.8926
-19.3014 -20.6730 -2.7153 0.8926
-18.5525 -21.3476 -2.7153 0.8926
-17.7801 -21.9952 -2.7153 0.8926
-16.1685 -23.2055 -2.7153 0.8926
-14.4748 -24.2981 -2.7153 0.8926
-13.5998 -24.7984 -2.7153 0.8926
-12.7076 -25.2672 -2.7153 0.8926
-11.7992 -25.7040 -2.7153 0.8926
-10.8759 -26.1081 -2.7153 0.8926
-7.0563 -27.3884 -2.7153 0.8926
-5.0878 -27.8214 -2.7153 0.8926
-3.0935 -28.1131 -2.7153 0.8926
1.8479 -26.8963 -2.5883 0.8973
2.8190 -26.9463 -2.6011 0.8968
4.7780 -26.9426 -2.6270 0.8959
5.7634 -26.8878 -2.6400 0.8954
6.7510 -26.7973 -2.6531 0.8949
8.7274 -26.5069 -2.6792 0.8939
9.7133 -26.3065 -2.6922 0.8934
11.6735 -25.7939 -2.7181 0.8925
14.5612 -24.7438 -2.7563 0.8910
15.5034 -24.3187 -2.7688 0.8906
16.3039 -23.6693 -2.7593 0.8909
18.3659 -21.3631 -2.7047 0.8930
-22.8478 -0.8146 -2.7157 0.9120
-22.7320 -2.4397 -2.7157 0.9120
-22.6307 -3.2482 -2.7158 0.9120
-22.5005 -4.0525 -2.7157 0.9120
-22.3418 -4.8516 -2.7157 0.9120
-22.1547 -5.6446 -2.7157 0.9120
-21.9395 -6.4304 -2.7157 0.9120
-21.6963 -7.2080 -2.7157 0.9120
-21.4256 -7.9765 -2.7157 0.9120
-20.8029 -9.4820 -2.7157 0.9120
-20.0744 -10.9392 -2.7156 0.9120
-19.6717 -11.6474 -2.7156 0.9120
-19.2440 -12.3408 -2.7156 0.9120
-18.7918 -13.0185 -2.7155 0.9120
-17.8153 -14.3225 -2.7153 0.9120
-16.7501 -15.5549 -2.7153 0.9120
-15.5997 -16.7083 -2.7153 0.9120
-14.9945 -17.2535 -2.7153 0.9120
-13.7277 -18.2776 -2.7153 0.9120
-13.0677 -18.7551 -2.7153 0.9120
-11.6988 -19.6382 -2.7153 0.9120
-10.9916 -20.0425 -2.7153 0.9120
-9.5364 -20.7744 -2.7153 0.9120
-8.7901 -21.1010 -2.7153 0.9120
-8.0326 -21.4009 -2.7153 0.9120
-7.2650 -21.6735 -2.7153 0.9120
-5.7030 -22.1358 -2.7153 0.9120
-4.1121 -22.4858 -2.7153 0.9120
-3.3083 -22.6180 -2.7153 0.9120
-1.5942 -21.5167 -2.5629 0.9168
-0.0358 -13.3740 -1.5886 0.9476
2.2722 -21.7199 -2.5941 0.9158
3.0569 -21.7116 -2.6045 0.9155
4.6321 -21.6101 -2.6253 0.9148
5.4206 -21.5164 -2.6357 0.9145
6.9939 -21.2420 -2.6565 0.9139
10.7346 -19.8252 -2.6780 0.9132
11.3844 -19.3455 -2.6663 0.9135
12.0112 -18.8409 -2.6541 0.9139
13.1991 -17.7714 -2.6295 0.9147
14.3162 -16.6525 -2.6086 0.9153
-19.1645 0.0000 -2.7154 0.9255
-19.1524 -0.6829 -2.7154 0.9255
-18.9702 -2.7228 -2.7154 0.9255
-18.8612 -3.3970 -2.7154 0.9255
-18.1871 -6.0422 -2.7154 0.9255
-17.7104 -7.3220 -2.7154 0.9255
-17.4382 -7.9483 -2.7154 0.9255
-17.1438 -8.5646 -2.7153 0.9255
-16.1316 -10.3450 -2.7153 0.9255
-15.3539 -11.4675 -2.7153 0.9255
-14.9356 -12.0073 -2.7153 0.9255
-14.4982 -12.5319 -2.7153 0.9255
-14.0425 -13.0405 -2.7153 0.9255
-13.5689 -13.5326 -2.7153 0.9255
-12.5707 -14.4646 -2.7153 0.9255
-9.8078 -16.4637 -2.7153 0.9255
-9.2149 -16.8027 -2.7153 0.9255
-7.3692 -17.6901 -2.7153 0.9255
-6.7342 -17.9415 -2.7153 0.9255
-4.7812 -18.5577 -2.7153 0.9255
-1.3365 -18.0386 -2.5629 0.9295
-0.0358 -13.3740 -1.8950 0.9474
1.2484 -18.1711 -2.5807 0.9291
1.9014 -18.1757 -2.5893 0.9288
2.5564 -18.1568 -2.5980 0.9286
5.1782 -17.8444 -2.6327 0.9277
5.8133 -17.6563 -2.6338 0.9277
6.4228 -17.3947 -2.6273 0.9278
7.0192 -17.1078 -2.6201 0.9280
7.6018 -16.7971 -2.6123 0.9282
8.1720 -16.4683 -2.6049 0.9284
8.7307 -16.1243 -2.5981 0.9286
9.2770 -15.7643 -2.5917 0.9288
9.8138 -15.3940 -2.5867 0.9289
11.3438 -14.1879 -2.5738 0.9292
9.7947 -11.3931 -2.1288 0.9411
-5.8345 -0.0000 -0.9612 0.9766
-5.9031 -0.2105 -0.9731 0.9763
-16.3152 -2.3417 -2.7153 0.9354
-16.1070 -3.4977 -2.7153 0.9354
-15.9721 -4.0694 -2.7153 0.9354
-15.8170 -4.6359 -2.7153 0.9354
-15.6417 -5.1966 -2.7153 0.9354
-15.4466 -5.7506 -2.7153 0.9354
-14.9979 -6.8360 -2.7153 0.9354
-14.7448 -7.3661 -2.7153 0.9354
-14.4730 -7.8868 -2.7153 0.9354
-14.1827 -8.3975 -2.7153 0.9354
-13.8745 -8.8975 -2.7153 0.9354
-13.5487 -9.3862 -2.7153 0.9354
-13.2056 -9.8630 -2.7153 0.9354
-12.0777 -11.2159 -2.7153 0.9354
-11.2483 -12.0476 -2.7153 0.9354
-9.8984 -13.1791 -2.7153 0.9354
-9.4225 -13.5235 -2.7153 0.9354
-8.9347 -13.8506 -2.7153 0.9354
-7.9256 -14.4517 -2.7153 0.9354
-7.4056 -14.7250 -2.7153 0.9354
-6.3381 -15.2150 -2.7153 0.9354
-5.7920 -15.4312 -2.7153 0.9354
-4.6783 -15.8045 -2.7153 0.9354
-4.1122 -15.9611 -2.7153 0.9354
-1.7016 -15.4639 -2.5629 0.9389
-0.0359 -13.3740 -2.2032 0.9472
0.5143 -15.5988 -2.5711 0.9387
1.0728 -15.6153 -2.5785 0.9385
2.1922 -15.5700 -2.5903 0.9382
2.7424 -15.4640 -2.5873 0.9383
3.8264 -15.1884 -2.5803 0.9385
4.8885 -14.8475 -2.5751 0.9386
5.9250 -14.4408 -2.5714 0.9387
6.4301 -14.2080 -2.5692 0.9387
8.8660 -12.8713 -2.5748 0.9386
9.3221 -12.5509 -2.5755 0.9386
9.7603 -12.2094 -2.5752 0.9386
-4.9969 -0.0000 -0.9392 0.9799
-5.1312 -0.3664 -0.9669 0.9793
-14.3636 -1.5416 -2.7153 0.9429
-14.2995 -2.0524 -2.7153 0.9429
-14.2173 -2.5606 -2.7153 0.9429
-13.7093 -4.5546 -2.7153 0.9429
-13.3501 -5.5193 -2.7153 0.9429
-12.9231 -6.4561 -2.7153 0.9429
-11.5741 -8.6445 -2.7153 0.9429
-9.8586 -10.5592 -2.7153 0.9429
-7.8308 -12.1394 -2.7153 0.9429
-7.3933 -12.4107 -2.7153 0.9429
-6.4907 -12.9058 -2.7153 0.9429
-5.0764 -13.5247 -2.7153 0.9429
-4.1003 -13.8519 -2.7153 0.9429
-3.1034 -14.1088 -2.7153 0.9429
-2.5987 -14.2104 -2.7153 0.9429
-1.9735 -13.4925 -2.5630 0.9460
-0.5232 -13.6466 -2.5669 0.9459
1.4204 -13.5778 -2.5660 0.9460
2.3850 -13.4486 -2.5672 0.9459
2.8634 -13.3585 -2.5679 0.9459
3.8096 -13.1282 -2.5694 0.9459
4.7379 -12.8316 -2.5710 0.9458
5.6424 -12.4680 -2.5723 0.9458
6.5147 -12.0316 -2.5717 0.9458
6.9291 -11.7745 -2.5679 0.9459
8.1391 -10.9586 -2.5658 0.9460
8.8932 -10.3445 -2.5641 0.9460
-4.7041 -0.1677 -0.9950 0.9809
-4.7094 -0.3363 -0.9980 0.9809
-12.7722 -1.3708 -2.7153 0.9488
-12.7152 -1.8250 -2.7153 0.9488
-12.5530 -2.7259 -2.7153 0.9488
-12.4479 -3.1715 -2.7153 0.9488
-12.3270 -3.6130 -2.7153 0.9488
-12.1904 -4.0499 -2.7153 0.9488
-12.0384 -4.4817 -2.7153 0.9488
-11.6886 -5.3277 -2.7153 0.9488
-11.4914 -5.7408 -2.7153 0.9488
-11.0533 -6.5446 -2.7153 0.9488
-9.7183 -8.4002 -2.7153 0.9488
-9.4128 -8.7412 -2.7153 0.9488
-8.7664 -9.3893 -2.7153 0.9488
-8.4262 -9.6957 -2.7153 0.9488
-7.7143 -10.2712 -2.7153 0.9488
-6.5742 -11.0358 -2.7153 0.9488
-4.9396 -11.8578 -2.7153 0.9488
-4.5140 -12.0263 -2.7153 0.9488
-2.7596 -12.5456 -2.7153 0.9488
-1.7948 -12.2708 -2.6214 0.9506
-0.4649 -12.1264 -2.5652 0.9516
0.4001 -12.1367 -2.5668 0.9516
1.6939 -12.0318 -2.5684 0.9515
2.9678 -11.7804 -2.5679 0.9515
3.7983 -11.5362 -2.5673 0.9516
5.0052 -11.0595 -2.5660 0.9516
5.3950 -10.8720 -2.5655 0.9516
5.7778 -10.6706 -2.5650 0.9516
6.5200 -10.2274 -2.5638 0.9516
6.8786 -9.9861 -2.5632 0.9516
7.2293 -9.7336 -2.5629 0.9516
7.7621 -9.7082 -2.6274 0.9505
8.3343 -9.6944 -2.7024 0.9491
-4.5261 -0.0000 -1.0637 0.9816
-4.5274 -0.3233 -1.0668 0.9815
-11.3704 -2.0479 -2.7153 0.9536
-11.2902 -2.4517 -2.7153 0.9536
-10.9641 -3.6425 -2.7153 0.9536
-10.8273 -4.0309 -2.7153 0.9536
-9.4969 -6.5792 -2.7153 0.9536
-9.2565 -6.9135 -2.7153 0.9536
-9.0043 -7.2389 -2.7153 0.9536
-8.4659 -7.8618 -2.7153 0.9536
-8.1804 -8.1584 -2.7153 0.9536
-7.2631 -8.9850 -2.7153 0.9536
-6.9383 -9.2379 -2.7153 0.9536
-6.2628 -9.7085 -2.7153 0.9536
-5.5554 -10.1299 -2.7153 0.9536
-5.1910 -10.3215 -2.7153 0.9536
-4.4427 -10.6649 -2.7153 0.9536
-3.6719 -10.9543 -2.7153 0.9536
-2.4820 -11.2836 -2.7153 0.9536
-1.2601 -11.4516 -2.7076 0.9538
-0.8162 -11.0159 -2.5961 0.9556
-0.4178 -10.8970 -2.5629 0.9562
-0.0292 -10.9078 -2.5636 0.9562
0.7480 -10.8866 -2.5646 0.9562
1.1355 -10.8544 -2.5650 0.9561
1.5217 -10.8077 -2.5651 0.9561
1.9058 -10.7467 -2.5651 0.9561
2.2874 -10.6714 -2.5650 0.9561
2.6659 -10.5821 -2.5647 0.9562
3.0410 -10.4793 -2.5645 0.9562
3.4120 -10.3630 -2.5642 0.9562
4.4964 -9.9353 -2.5630 0.9562
5.2598 -9.7140 -2.5962 0.9556
6.1803 -9.6944 -2.7020 0.9539
6.5538 -9.5145 -2.7153 0.9536
6.8886 -9.2750 -2.7153 0.9536
7.5323 -8.7608 -2.7153 0.9536
-4.3770 -0.3125 -1.1362 0.9820
-4.3996 -0.4722 -1.1457 0.9819
-10.3807 -1.4900 -2.7153 0.9576
-10.2482 -2.2255 -2.7153 0.9576
-10.1624 -2.5892 -2.7153 0.9576
-10.0637 -2.9496 -2.7153 0.9576
-9.8281 -3.6589 -2.7153 0.9576
-9.6915 -4.0067 -2.7153 0.9576
-9.2086 -5.0181 -2.7153 0.9576
-8.8278 -5.6612 -2.7153 0.9576
-8.6205 -5.9721 -2.7153 0.9576
-7.9340 -6.8579 -2.7153 0.9576
-7.6846 -7.1362 -2.7153 0.9576
-7.4254 -7.4055 -2.7153 0.9576
-7.1568 -7.6654 -2.7153 0.9576
-6.8791 -7.9156 -2.7153 0.9576
-5.9952 -8.6044 -2.7153 0.9576
-5.3672 -9.0096 -2.7153 0.9576
-4.3751 -9.5309 -2.7153 0.9576
-3.6852 -9.8183 -2.7153 0.9576
-3.3330 -9.9433 -2.7153 0.9576
-2.9766 -10.0558 -2.7153 0.9576
-2.6164 -10.1554 -2.7153 0.9576
-2.2529 -10.2422 -2.7153 0.9576
-1.8865 -10.3160 -2.7153 0.9576
-1.5178 -10.3766 -2.7153 0.9576
-1.1471 -10.4241 -2.7153 0.9576
-0.7749 -10.4584 -2.7153 0.9576
-0.4018 -10.4794 -2.7153 0.9576
-0.0278 -10.3593 -2.6822 0.9581
0.3351 -10.1638 -2.6330 0.9589
1.3827 -9.8209 -2.5679 0.9598
2.0849 -9.7265 -2.5756 0.9597
3.5813 -9.6991 -2.6770 0.9582
3.9768 -9.6925 -2.7126 0.9576
4.9934 -9.2220 -2.7153 0.9576
5.3188 -9.0382 -2.7153 0.9576
6.2529 -8.4190 -2.7153 0.9576
6.5489 -8.1908 -2.7153 0.9576
-4.2420 -0.0000 -1.2009 0.9825
-4.2412 -0.1512 -1.2014 0.9825
-4.2393 -0.3027 -1.2032 0.9825
-4.2378 -0.4548 -1.2066 0.9824
-9.4942 -1.3627 -2.7153 0.9609
-9.3731 -2.0354 -2.7153 0.9609
-9.2946 -2.3681 -2.7153 0.9609
-9.2043 -2.6977 -2.7153 0.9609
-9.1023 -3.0240 -2.7153 0.9609
-8.4222 -4.5895 -2.7153 0.9609
-8.2533 -4.8867 -2.7153 0.9609
-8.0739 -5.1777 -2.7153 0.9609
-7.8843 -5.4621 -2.7153 0.9609
-7.2564 -6.2723 -2.7153 0.9609
-7.0283 -6.5268 -2.7153 0.9609
-6.5457 -7.0108 -2.7153 0.9609
-4.3095 -8.5688 -2.7153 0.9609
-4.0015 -8.7170 -2.7153 0.9609
-3.3705 -8.9798 -2.7153 0.9609
-3.0484 -9.0942 -2.7153 0.9609
-2.7224 -9.1971 -2.7153 0.9609
-2.3930 -9.2882 -2.7153 0.9609
-2.0605 -9.3676 -2.7153 0.9609
-1.7254 -9.4351 -2.7153 0.9609
-1.3881 -9.4905 -2.7153 0.9609
-0.3675 -9.5845 -2.7153 0.9609
0.6574 -9.5689 -2.7153 0.9609
1.6748 -9.4441 -2.7153 0.9609
2.0103 -9.3785 -2.7153 0.9609
2.3432 -9.3009 -2.7153 0.9609
2.6731 -9.2115 -2.7153 0.9609
2.9996 -9.1104 -2.7153 0.9609
3.9547 -8.7383 -2.7153 0.9609
5.1560 -8.0878 -2.7153 0.9609
5.4409 -7.8990 -2.7153 0.9609
5.7189 -7.7000 -2.7153 0.9609
5.9897 -7.4914 -2.7153 0.9609
-4.1284 -0.0000 -1.2698 0.9829
-4.1196 -0.4421 -1.2744 0.9828
-4.3442 -0.6235 -1.3499 0.9818
-8.6882 -1.5648 -2.7153 0.9637
-8.5547 -2.1796 -2.7153 0.9637
-8.4716 -2.4830 -2.7153 0.9637
-8.2732 -3.0800 -2.7153 0.9637
-8.1582 -3.3728 -2.7153 0.9637
-8.0329 -3.6614 -2.7153 0.9637
-7.7517 -4.2242 -2.7153 0.9637
-6.8802 -5.5313 -2.7153 0.9637
-6.4688 -6.0073 -2.7153 0.9637
-6.2507 -6.2340 -2.7153 0.9637
-6.0246 -6.4527 -2.7153 0.9637
-5.5497 -6.8654 -2.7153 0.9637
-5.0467 -7.2432 -2.7153 0.9637
-3.9664 -7.8867 -2.7153 0.9637
-3.6829 -8.0230 -2.7153 0.9637
-3.3947 -8.1492 -2.7153 0.9637
-2.8057 -8.3702 -2.7153 0.9637
-2.2025 -8.5488 -2.7153 0.9637
-0.3382 -8.8215 -2.7153 0.9637
-0.0237 -8.8279 -2.7153 0.9637
0.2909 -8.8232 -2.7153 0.9637
0.9185 -8.7800 -2.7153 0.9637
1.8502 -8.6319 -2.7153 0.9637
2.1566 -8.5605 -2.7153 0.9637
2.4603 -8.4782 -2.7153 0.9637
3.6398 -8.0426 -2.7153 0.9637
4.4773 -7.6083 -2.7153 0.9637
4.7456 -7.4439 -2.7153 0.9637
5.2637 -7.0871 -2.7153 0.9637
5.7550 -6.6942 -2.7153 0.9637
-4.0193 -0.0000 -1.3360 0.9832
-4.0129 -0.2865 -1.3373 0.9832
-8.0393 -1.4479 -2.7153 0.9662
-7.9826 -1.7334 -2.7153 0.9662
-7.9157 -2.0167 -2.7153 0.9662
-7.8388 -2.2975 -2.7153 0.9662
-7.7520 -2.5754 -2.7153 0.9662
-7.5489 -3.1209 -2.7153 0.9662
-7.4329 -3.3879 -2.7153 0.9662
-6.7147 -4.6518 -2.7153 0.9662
-6.5447 -4.8881 -2.7153 0.9662
-6.1799 -5.3418 -2.7153 0.9662
-5.7838 -5.7683 -2.7153 0.9662
-5.1352 -6.3526 -2.7153 0.9662
-4.4280 -6.8643 -2.7153 0.9662
-4.1806 -7.0178 -2.7153 0.9662
-3.6702 -7.2977 -2.7153 0.9662
-3.4078 -7.4238 -2.7153 0.9662
-3.1412 -7.5405 -2.7153 0.9662
-2.8705 -7.6476 -2.7153 0.9662
-2.5962 -7.7450 -2.7153 0.9662
-2.0380 -7.9103 -2.7153 0.9662
-1.7548 -7.9779 -2.7153 0.9662
-1.1822 -8.0826 -2.7153 0.9662
-0.8935 -8.1196 -2.7153 0.9662
-0.3129 -8.1626 -2.7153 0.9662
-0.0219 -8.1686 -2.7153 0.9662
0.5599 -8.1494 -2.7153 0.9662
0.8499 -8.1243 -2.7153 0.9662
1.4264 -8.0431 -2.7153 0.9662
1.9956 -7.9211 -2.7153 0.9662
2.2765 -7.8450 -2.7153 0.9662
2.5546 -7.7589 -2.7153 0.9662
2.8294 -7.6629 -2.7153 0.9662
3.1007 -7.5572 -2.7153 0.9662
3.6310 -7.3172 -2.7153 0.9662
4.1429 -7.0400 -2.7153 0.9662
4.3911 -6.8879 -2.7153 0.9662
4.6338 -6.7271 -2.7153 0.9662
5.1011 -6.3800 -2.7153 0.9662
5.3252 -6.1942 -2.7153 0.9662
-3.9060 -0.0000 -1.3968 0.9835
-3.9012 -0.1391 -1.3960 0.9836
-3.8936 -0.2780 -1.3959 0.9836
-3.8833 -0.4168 -1.3967 0.9835
-3.9361 -0.5650 -1.4220 0.9832
-7.4727 -1.3458 -2.7153 0.9683
-7.3579 -1.8746 -2.7153 0.9683
-7.2864 -2.1356 -2.7153 0.9683
-7.1158 -2.6491 -2.7153 0.9683
-6.9091 -3.1492 -2.7153 0.9683
-6.7925 -3.3933 -2.7153 0.9683
-6.6673 -3.6332 -2.7153 0.9683
-6.5336 -3.8685 -2.7153 0.9683
-6.0834 -4.5436 -2.7153 0.9683
-5.9177 -4.7575 -2.7153 0.9683
-5.7444 -4.9653 -2.7153 0.9683
-5.5638 -5.1668 -2.7153 0.9683
-5.3762 -5.3618 -2.7153 0.9683
-4.3407 -6.2298 -2.7153 0.9683
-3.8860 -6.5232 -2.7153 0.9683
-3.6511 -6.6575 -2.7153 0.9683
-2.9198 -7.0091 -2.7153 0.9683
-2.4132 -7.1993 -2.7153 0.9683
-1.8944 -7.3528 -2.7153 0.9683
-1.6312 -7.4156 -2.7153 0.9683
-0.8305 -7.5474 -2.7153 0.9683
-0.2909 -7.5874 -2.7153 0.9683
1.0586 -7.5188 -2.7153 0.9683
2.1161 -7.2921 -2.7153 0.9683
2.6300 -7.1229 -2.7153 0.9683
2.8822 -7.0246 -2.7153 0.9683
3.1306 -6.9175 -2.7153 0.9683
3.3751 -6.8016 -2.7153 0.9683
4.0817 -6.4025 -2.7153 0.9683
4.7416 -5.9304 -2.7153 0.9683
-3.7554 -0.0000 -1.4392 0.9840
-3.7440 -0.2673 -1.4384 0.9840
-6.9733 -1.2559 -2.7153 0.9701
-6.8661 -1.7493 -2.7153 0.9701
-6.7241 -2.2339 -2.7153 0.9701
-6.6403 -2.4721 -2.7153 0.9701
-6.5480 -2.7071 -2.7153 0.9701
-6.3385 -3.1666 -2.7153 0.9701
-6.2217 -3.3904 -2.7153 0.9701
-6.0970 -3.6100 -2.7153 0.9701
-5.9644 -3.8249 -2.7153 0.9701
-5.8243 -4.0349 -2.7153 0.9701
-5.6769 -4.2400 -2.7153 0.9701
-5.3605 -4.6335 -2.7153 0.9701
-5.1920 -4.8215 -2.7153 0.9701
-4.2552 -5.6655 -2.7153 0.9701
-3.8409 -5.9542 -2.7153 0.9701
-2.9560 -6.4394 -2.7153 0.9701
-2.4899 -6.6336 -2.7153 0.9701
-2.0111 -6.7941 -2.7153 0.9701
-1.7678 -6.8614 -2.7153 0.9701
-1.0255 -7.0109 -2.7153 0.9701
-0.7750 -7.0430 -2.7153 0.9701
0.2335 -7.0817 -2.7153 0.9701
0.4857 -7.0688 -2.7153 0.9701
0.9879 -7.0163 -2.7153 0.9701
1.2372 -6.9766 -2.7153 0.9701
1.4850 -6.9281 -2.7153 0.9701
1.9747 -6.8048 -2.7153 0.9701
2.6896 -6.5552 -2.7153 0.9701
3.3737 -6.2307 -2.7153 0.9701
3.8089 -5.9747 -2.7153 0.9701
4.2247 -5.6882 -2.7153 0.9701
4.6191 -5.3729 -2.7153 0.9701
-3.6031 -0.2573 -1.4784 0.9845
-3.6090 -0.5180 -1.4922 0.9844
-6.5293 -1.1760 -2.7153 0.9717
-6.4290 -1.6380 -2.7153 0.9717
-6.3666 -1.8660 -2.7153 0.9717
-6.2960 -2.0917 -2.7153 0.9717
-6.2175 -2.3147 -2.7153 0.9717
-6.1311 -2.5348 -2.7153 0.9717
-6.0369 -2.7516 -2.7153 0.9717
-5.9351 -2.9654 -2.7153 0.9717
-5.8256 -3.1746 -2.7153 0.9717
-5.7088 -3.3801 -2.7153 0.9717
-5.4535 -3.7781 -2.7153 0.9717
-5.1706 -4.1569 -2.7153 0.9717
-5.0192 -4.3385 -2.7153 0.9717
-4.5276 -4.8493 -2.7153 0.9717
-4.3519 -5.0076 -2.7153 0.9717
-4.1707 -5.1595 -2.7153 0.9717
-3.7927 -5.4434 -2.7153 0.9717
-3.5963 -5.5751 -2.7153 0.9717
-2.7678 -6.0295 -2.7153 0.9717
-2.3314 -6.2113 -2.7153 0.9717
-1.8831 -6.3615 -2.7153 0.9717
-1.6552 -6.4246 -2.7153 0.9717
-1.4252 -6.4795 -2.7153 0.9717
-0.9602 -6.5646 -2.7153 0.9717
-0.2542 -6.6295 -2.7153 0.9717
0.2186 -6.6308 -2.7153 0.9717
0.4547 -6.6188 -2.7153 0.9717
0.9250 -6.5696 -2.7153 0.9717
1.3905 -6.4870 -2.7153 0.9717
1.6207 -6.4334 -2.7153 0.9717
1.8489 -6.3715 -2.7153 0.9717
2.2980 -6.2237 -2.7153 0.9717
3.5664 -5.5943 -2.7153 0.9717
3.7635 -5.4637 -2.7153 0.9717
3.9557 -5.3261 -2.7153 0.9717
4.1430 -5.1817 -2.7153 0.9717
4.3251 -5.0308 -2.7153 0.9717
-3.4671 -0.3721 -1.5197 0.9849
-6.1317 -1.1043 -2.7153 0.9732
-6.0884 -1.3221 -2.7153 0.9732
-5.9126 -1.9643 -2.7153 0.9732
-5.6692 -2.5838 -2.7153 0.9732
-5.5737 -2.7848 -2.7153 0.9732
-5.1214 -3.5480 -2.7153 0.9732
-4.7135 -4.0743 -2.7153 0.9732
-4.5654 -4.2396 -2.7153 0.9732
-4.2519 -4.5540 -2.7153 0.9732
-4.0869 -4.7026 -2.7153 0.9732
-3.1886 -5.3525 -2.7153 0.9732
-2.9959 -5.4628 -2.7153 0.9732
-2.3958 -5.7513 -2.7153 0.9732
-2.1894 -5.8330 -2.7153 0.9732
-1.9801 -5.9073 -2.7153 0.9732
-1.7684 -5.9741 -2.7153 0.9732
-1.5544 -6.0333 -2.7153 0.9732
-0.4604 -6.2133 -2.7153 0.9732
-0.2387 -6.2258 -2.7153 0.9732
-0.0167 -6.2303 -2.7153 0.9732
1.5220 -6.0416 -2.7153 0.9732
1.7363 -5.9835 -2.7153 0.9732
2.1581 -5.8446 -2.7153 0.9732
2.3649 -5.7641 -2.7153 0.9732
2.7694 -5.5810 -2.7153 0.9732
3.1599 -5.3696 -2.7153 0.9732
3.3492 -5.2536 -2.7153 0.9732
3.5342 -5.1309 -2.7153 0.9732
4.0616 -4.7245 -2.7153 0.9732
-3.3560 -0.0000 -1.5535 0.9853
-3.3544 -0.1196 -1.5537 0.9853
-3.3562 -0.2396 -1.5575 0.9853
-3.3639 -0.3611 -1.5661 0.9852
-3.3703 -0.4837 -1.5760 0.9851
-3.6071 -0.6497 -1.6965 0.9840
-5.6844 -1.4483 -2.7153 0.9745
-5.5668 -1.8494 -2.7153 0.9745
-5.4210 -2.2412 -2.7153 0.9745
-5.2476 -2.6216 -2.7153 0.9745
-5.1509 -2.8069 -2.7153 0.9745
-4.9379 -3.1666 -2.7153 0.9745
-4.8219 -3.3405 -2.7153 0.9745
-4.6998 -3.5102 -2.7153 0.9745
-4.5718 -3.6754 -2.7153 0.9745
-4.4379 -3.8360 -2.7153 0.9745
-4.1535 -4.1423 -2.7153 0.9745
-4.0032 -4.2877 -2.7153 0.9745
-3.8479 -4.4276 -2.7153 0.9745
-3.6877 -4.5619 -2.7153 0.9745
-3.0022 -5.0396 -2.7153 0.9745
-2.8207 -5.1433 -2.7153 0.9745
-2.6356 -5.2406 -2.7153 0.9745
-2.4472 -5.3312 -2.7153 0.9745
-1.8643 -5.5618 -2.7153 0.9745
-0.8490 -5.8043 -2.7153 0.9745
-0.6416 -5.8308 -2.7153 0.9745
-0.4334 -5.8500 -2.7153 0.9745
-0.2247 -5.8617 -2.7153 0.9745
0.1933 -5.8628 -2.7153 0.9745
0.8178 -5.8087 -2.7153 0.9745
1.2294 -5.7357 -2.7153 0.9745
1.6348 -5.6336 -2.7153 0.9745
2.2267 -5.4270 -2.7153 0.9745
2.4186 -5.3442 -2.7153 0.9745
2.6075 -5.2546 -2.7153 0.9745
2.7931 -5.1584 -2.7153 0.9745
3.1533 -4.9464 -2.7153 0.9745
3.3276 -4.8308 -2.7153 0.9745
3.6632 -4.5816 -2.7153 0.9745
-3.3410 -0.4795 -1.6556 0.9851
-3.5032 -0.6309 -1.7460 0.9843
-5.3120 -1.5570 -2.7153 0.9756
-5.1877 -1.9313 -2.7153 0.9756
-5.0370 -2.2958 -2.7153 0.9756
-4.8607 -2.6487 -2.7153 0.9756
-4.5502 -3.1523 -2.7153 0.9756
-4.1879 -3.6199 -2.7153 0.9756
-3.6311 -4.1781 -2.7153 0.9756
-3.4799 -4.3049 -2.7153 0.9756
-3.3243 -4.4261 -2.7153 0.9756
-3.0007 -4.6517 -2.7153 0.9756
-2.6618 -4.8535 -2.7153 0.9756
-2.4871 -4.9453 -2.7153 0.9756
-2.1286 -5.1099 -2.7153 0.9756
-1.5712 -5.3078 -2.7153 0.9756
-1.3811 -5.3605 -2.7153 0.9756
-0.8011 -5.4772 -2.7153 0.9756
-0.6055 -5.5023 -2.7153 0.9756
0.1824 -5.5325 -2.7153 0.9756
0.7718 -5.4814 -2.7153 0.9756
1.1602 -5.4126 -2.7153 0.9756
1.9174 -5.1928 -2.7153 0.9756
2.1012 -5.1212 -2.7153 0.9756
2.2823 -5.0431 -2.7153 0.9756
2.4606 -4.9585 -2.7153 0.9756
2.8075 -4.7708 -2.7153 0.9756
2.9757 -4.6676 -2.7153 0.9756
3.1401 -4.5587 -2.7153 0.9756
3.4568 -4.3234 -2.7153 0.9756
3.6086 -4.1975 -2.7153 0.9756
-3.2524 -0.1160 -1.6884 0.9854
-3.2558 -0.2325 -1.6933 0.9854
-3.4029 -0.6129 -1.7938 0.9845
-5.1148 -1.1107 -2.7153 0.9767
-5.0720 -1.2922 -2.7153 0.9767
-5.0227 -1.4721 -2.7153 0.9767
-4.8369 -1.9997 -2.7153 0.9767
-4.7626 -2.1708 -2.7153 0.9767
-4.5038 -2.6666 -2.7153 0.9767
-3.9598 -3.4227 -2.7153 0.9767
-3.8353 -3.5616 -2.7153 0.9767
-3.4333 -3.9506 -2.7153 0.9767
-3.2904 -4.0704 -2.7153 0.9767
-3.1433 -4.1850 -2.7153 0.9767
-2.9921 -4.2944 -2.7153 0.9767
-2.8372 -4.3983 -2.7153 0.9767
-2.5168 -4.5892 -2.7153 0.9767
-2.3517 -4.6759 -2.7153 0.9767
-2.1836 -4.7568 -2.7153 0.9767
-2.0127 -4.8316 -2.7153 0.9767
-1.8392 -4.9002 -2.7153 0.9767
-1.1244 -5.1118 -2.7153 0.9767
-0.7575 -5.1789 -2.7153 0.9767
-0.5725 -5.2026 -2.7153 0.9767
-0.3867 -5.2197 -2.7153 0.9767
0.1725 -5.2312 -2.7153 0.9767
0.5446 -5.2056 -2.7153 0.9767
1.0970 -5.1177 -2.7153 0.9767
1.2786 -5.0754 -2.7153 0.9767
1.8129 -4.9100 -2.7153 0.9767
2.1580 -4.7684 -2.7153 0.9767
2.3266 -4.6885 -2.7153 0.9767
2.8136 -4.4134 -2.7153 0.9767
3.1208 -4.2018 -2.7153 0.9767
3.2685 -4.0880 -2.7153 0.9767
3.4121 -3.9689 -2.7153 0.9767
-3.2190 -0.0000 -1.7631 0.9854
-3.2273 -0.1151 -1.7687 0.9854
-3.3115 -0.4753 -1.8323 0.9849
-3.3914 -0.6108 -1.8874 0.9844
-4.8041 -1.2240 -2.7153 0.9776
-4.7575 -1.3944 -2.7153 0.9776
-4.6461 -1.7297 -2.7153 0.9776
-4.5815 -1.8941 -2.7153 0.9776
-4.5111 -2.0562 -2.7153 0.9776
-4.3532 -2.3722 -2.7153 0.9776
-4.2659 -2.5258 -2.7153 0.9776
-3.9720 -2.9666 -2.7153 0.9776
-3.6328 -3.3735 -2.7153 0.9776
-3.5102 -3.5008 -2.7153 0.9776
-3.1166 -3.8554 -2.7153 0.9776
-2.6874 -4.1660 -2.7153 0.9776
-2.5372 -4.2591 -2.7153 0.9776
-2.3839 -4.3468 -2.7153 0.9776
-2.2275 -4.4290 -2.7153 0.9776
-1.9064 -4.5764 -2.7153 0.9776
-1.7421 -4.6414 -2.7153 0.9776
-1.5756 -4.7005 -2.7153 0.9776
-1.0650 -4.8418 -2.7153 0.9776
-0.3663 -4.9440 -2.7153 0.9776
0.1634 -4.9549 -2.7153 0.9776
0.3398 -4.9459 -2.7153 0.9776
0.6912 -4.9092 -2.7153 0.9776
1.0391 -4.8475 -2.7153 0.9776
1.2111 -4.8074 -2.7153 0.9776
1.5504 -4.7089 -2.7153 0.9776
1.7172 -4.6507 -2.7153 0.9776
2.2037 -4.4409 -2.7153 0.9776
2.5144 -4.2726 -2.7153 0.9776
2.8123 -4.0828 -2.7153 0.9776
3.2319 -3.7593 -2.7153 0.9776
-3.2210 -0.1149 -1.8608 0.9852
-3.2292 -0.2306 -1.8691 0.9852
-3.2588 -0.3498 -1.8922 0.9850
-4.5959 -0.9980 -2.7153 0.9785
-4.5574 -1.1611 -2.7153 0.9785
-4.5132 -1.3228 -2.7153 0.9785
-4.4075 -1.6408 -2.7153 0.9785
-4.3462 -1.7968 -2.7153 0.9785
-4.2795 -1.9506 -2.7153 0.9785
-3.7681 -2.8143 -2.7153 0.9785
-3.4462 -3.2003 -2.7153 0.9785
-3.3300 -3.3211 -2.7153 0.9785
-3.0850 -3.5498 -2.7153 0.9785
-2.8244 -3.7605 -2.7153 0.9785
-2.4070 -4.0404 -2.7153 0.9785
-2.2615 -4.1236 -2.7153 0.9785
-1.8085 -4.3414 -2.7153 0.9785
-1.1734 -4.5543 -2.7153 0.9785
-1.0103 -4.5932 -2.7153 0.9785
-0.8460 -4.6263 -2.7153 0.9785
-0.5144 -4.6748 -2.7153 0.9785
-0.0126 -4.7030 -2.7153 0.9785
0.1550 -4.7005 -2.7153 0.9785
0.3224 -4.6920 -2.7153 0.9785
0.4893 -4.6775 -2.7153 0.9785
0.8212 -4.6308 -2.7153 0.9785
0.9857 -4.5986 -2.7153 0.9785
1.1489 -4.5605 -2.7153 0.9785
1.6290 -4.4119 -2.7153 0.9785
2.0905 -4.2128 -2.7153 0.9785
2.2393 -4.1357 -2.7153 0.9785
2.5282 -3.9657 -2.7153 0.9785
2.6679 -3.8731 -2.7153 0.9785
