ply
format ascii 1.0
element vertex 758
property float32 x
property float32 y
property float32 z
property float32 I
end_header
-0.0250 -13.3353 2.0429 0.9475
-0.0250 -13.3353 1.7365 0.9476
-0.0250 -13.3353 1.4320 0.9478
-0.0250 -13.3353 1.1289 0.9479
-0.0250 -13.3353 0.5258 0.9480
-0.0250 -13.3353 -0.3755 0.9480
-1.7627 -46.9753 -2.3840 0.8284
1.6034 -47.4741 -2.4090 0.8268
3.3304 -47.9140 -2.4358 0.8250
5.0918 -48.3009 -2.4631 0.8232
6.8863 -48.6327 -2.4910 0.8214
8.7126 -48.9067 -2.5193 0.8196
44.9682 -20.7532 -2.5117 0.8201
45.1973 -18.9361 -2.4852 0.8218
45.8909 -13.6868 -2.4286 0.8255
45.5975 -11.8478 -2.3892 0.8280
46.3937 8.1260 -2.3886 0.8281
-18.7259 -29.0858 -2.5364 0.8705
-15.5156 -30.9178 -2.5364 0.8705
-12.1281 -32.3967 -2.5364 0.8705
-9.7905 -33.1781 -2.5364 0.8705
-8.6022 -33.5059 -2.5364 0.8705
-6.1945 -34.0334 -2.5364 0.8705
-4.9781 -34.2324 -2.5364 0.8705
1.1046 -32.7041 -2.3993 0.8770
4.6780 -33.0370 -2.4465 0.8747
7.1108 -33.0485 -2.4786 0.8732
8.3379 -32.9887 -2.4949 0.8724
12.0419 -32.5369 -2.5438 0.8701
13.2782 -32.2934 -2.5602 0.8693
14.5122 -32.0026 -2.5765 0.8685
18.1799 -30.8414 -2.6250 0.8662
19.3841 -30.3572 -2.6409 0.8655
21.7515 -29.2427 -2.6723 0.8640
23.6683 -27.4914 -2.6598 0.8646
24.3873 -26.3655 -2.6334 0.8658
25.0526 -25.2197 -2.6065 0.8671
25.6645 -24.0574 -2.5793 0.8684
26.2231 -22.8816 -2.5518 0.8697
26.7508 -21.7130 -2.5262 0.8709
29.4958 -14.9093 -2.4233 0.8759
30.2969 -12.6934 -2.4085 0.8766
29.8194 -11.2621 -2.3372 0.8800
33.7694 -7.5011 -2.5364 0.8705
34.2178 -5.0775 -2.5364 0.8705
34.3770 -3.8552 -2.5364 0.8705
34.5921 -0.1652 -2.5364 0.8705
34.5161 2.2985 -2.5364 0.8705
-14.3016 -22.2137 -2.5364 0.8993
-12.6835 -23.1758 -2.5364 0.8993
-11.8497 -23.6129 -2.5364 0.8993
-10.1382 -24.3968 -2.5364 0.8993
-9.2626 -24.7425 -2.5364 0.8993
-7.4773 -25.3392 -2.5364 0.8993
-6.5698 -25.5895 -2.5364 0.8993
-5.6540 -25.8073 -2.5364 0.8993
-4.7310 -25.9924 -2.5364 0.8993
-2.8681 -26.2633 -2.5364 0.8993
-1.8146 -24.7656 -2.3840 0.9050
-0.9311 -24.8145 -2.3840 0.9050
1.7392 -25.0219 -2.4080 0.9041
2.6426 -25.0676 -2.4200 0.9037
3.5515 -25.0814 -2.4320 0.9032
4.4648 -25.0627 -2.4440 0.9028
5.3815 -25.0111 -2.4561 0.9023
9.0554 -24.4674 -2.5047 0.9005
9.9692 -24.2457 -2.5168 0.9000
12.6771 -23.3715 -2.5526 0.8987
14.3198 -22.4260 -2.5545 0.8986
15.0162 -21.7662 -2.5387 0.8992
16.3114 -20.3712 -2.5054 0.9004
17.4849 -18.9032 -2.4721 0.9017
18.0395 -18.1599 -2.4574 0.9023
19.0956 -16.6624 -2.4331 0.9032
19.5911 -15.9016 -2.4224 0.9036
20.0862 -15.1491 -2.4153 0.9038
21.8283 -12.0285 -2.3927 0.9047
22.1948 -11.2188 -2.3876 0.9049
22.5600 -10.4116 -2.3854 0.9050
23.1875 -9.7147 -2.4136 0.9039
25.5703 -6.6440 -2.5364 0.8993
25.7908 -5.7288 -2.5364 0.8993
26.1333 -3.8778 -2.5364 0.8993
26.3978 -1.0673 -2.5364 0.8993
26.4191 -0.1261 -2.5364 0.8993
26.4068 0.8152 -2.5364 0.8993
26.2818 2.6935 -2.5364 0.8993
26.1691 3.6281 -2.5364 0.8993
-11.5588 -17.9536 -2.5364 0.9176
-9.5772 -19.0844 -2.5364 0.9176
-8.1939 -19.7179 -2.5364 0.9176
-6.7691 -20.2513 -2.5364 0.9176
-5.3098 -20.6819 -2.5364 0.9176
-4.5696 -20.8580 -2.5364 0.9176
-3.8236 -21.0075 -2.5364 0.9176
-1.4666 -20.0161 -2.3840 0.9223
-0.0250 -13.3353 -1.5840 0.9477
1.4032 -20.1876 -2.4038 0.9217
2.1300 -20.2052 -2.4134 0.9214
4.3250 -20.1013 -2.4424 0.9205
5.7910 -19.8989 -2.4618 0.9199
7.9735 -19.3921 -2.4906 0.9190
11.6305 -16.8586 -2.4329 0.9208
12.1807 -16.3758 -2.4243 0.9211
12.7182 -15.8838 -2.4171 0.9213
14.2412 -14.3361 -2.4003 0.9218
14.7349 -13.8122 -2.3991 0.9219
15.2288 -13.2883 -2.4008 0.9218
17.2295 -10.3111 -2.3851 0.9223
17.6453 -9.7234 -2.3932 0.9221
19.0565 -9.6325 -2.5364 0.9176
19.6941 -8.2511 -2.5364 0.9176
19.9755 -7.5442 -2.5364 0.9176
20.2316 -6.8278 -2.5364 0.9176
20.4620 -6.1027 -2.5364 0.9176
20.8446 -4.6302 -2.5364 0.9176
21.1214 -3.1341 -2.5364 0.9176
21.2197 -2.3796 -2.5364 0.9176
21.2910 -1.6221 -2.5364 0.9176
21.3352 -0.8626 -2.5364 0.9176
21.3524 -0.1019 -2.5364 0.9176
21.3425 0.6588 -2.5364 0.9176
21.1504 2.9323 -2.5364 0.9176
21.0325 3.6839 -2.5364 0.9176
-9.1480 -15.3871 -2.5364 0.9302
-8.5940 -15.7033 -2.5364 0.9302
-8.0291 -15.9995 -2.5364 0.9302
-6.2761 -16.7648 -2.5364 0.9302
-5.6749 -16.9778 -2.5364 0.9302
-5.0664 -17.1692 -2.5364 0.9302
-3.8310 -17.4864 -2.5364 0.9302
-3.2056 -17.6117 -2.5364 0.9302
-2.5761 -17.7148 -2.5364 0.9302
-1.8266 -16.7261 -2.3840 0.9343
-1.2295 -16.7805 -2.3840 0.9343
1.1750 -16.9041 -2.4009 0.9338
3.0018 -16.8500 -2.4251 0.9332
4.2094 -16.6542 -2.4339 0.9330
4.7900 -16.4592 -2.4288 0.9331
5.9218 -16.0005 -2.4174 0.9334
6.4733 -15.7436 -2.4119 0.9335
7.0162 -15.4723 -2.4071 0.9337
7.5504 -15.1873 -2.4031 0.9338
8.5900 -14.5725 -2.3968 0.9339
9.0904 -14.2365 -2.3933 0.9340
10.1082 -10.9282 -2.1092 0.9416
11.8949 -11.9742 -2.3915 0.9341
12.6946 -11.0770 -2.3872 0.9342
13.0744 -10.6122 -2.3859 0.9342
14.9614 -9.6939 -2.5260 0.9305
15.3605 -9.1926 -2.5364 0.9302
15.6783 -8.6395 -2.5364 0.9302
16.2537 -7.5012 -2.5364 0.9302
17.1544 -5.1162 -2.5364 0.9302
17.3258 -4.5018 -2.5364 0.9302
17.4752 -3.8817 -2.5364 0.9302
17.6024 -3.2567 -2.5364 0.9302
17.7072 -2.6275 -2.5364 0.9302
17.8865 -0.7232 -2.5364 0.9302
17.8926 0.5523 -2.5364 0.9302
17.8078 1.8250 -2.5364 0.9302
-7.8680 -13.2342 -2.5364 0.9395
-7.3915 -13.5061 -2.5364 0.9395
-6.9057 -13.7609 -2.5364 0.9395
-5.9083 -14.2177 -2.5364 0.9395
-4.3575 -14.7669 -2.5364 0.9395
-3.2950 -15.0397 -2.5364 0.9395
-1.5710 -14.3858 -2.3840 0.9430
-0.5426 -14.4611 -2.3840 0.9430
1.0051 -14.4598 -2.3878 0.9429
2.0317 -14.3481 -2.3873 0.9429
2.5413 -14.2643 -2.3869 0.9430
3.0481 -14.1665 -2.3872 0.9429
3.5520 -14.0534 -2.3879 0.9429
4.0518 -13.9225 -2.3887 0.9429
5.9973 -13.2254 -2.3923 0.9428
6.4673 -13.0087 -2.3933 0.9428
7.3821 -12.5239 -2.3950 0.9428
8.2410 -11.9456 -2.3908 0.9429
8.6537 -11.6341 -2.3887 0.9429
9.0595 -11.3144 -2.3878 0.9429
9.8347 -10.6324 -2.3860 0.9430
10.2031 -10.2712 -2.3850 0.9430
10.5581 -9.8970 -2.3840 0.9430
11.1293 -9.7111 -2.4333 0.9419
11.9413 -9.6925 -2.5337 0.9396
12.6148 -8.8271 -2.5364 0.9395
12.9213 -8.3721 -2.5364 0.9395
13.2113 -7.9064 -2.5364 0.9395
13.7408 -6.9456 -2.5364 0.9395
13.9795 -6.4516 -2.5364 0.9395
14.5880 -4.9232 -2.5364 0.9395
15.1395 -2.8010 -2.5364 0.9395
15.2297 -2.2599 -2.5364 0.9395
15.3519 -1.1696 -2.5364 0.9395
15.3963 -0.0735 -2.5364 0.9395
15.3891 0.4750 -2.5364 0.9395
15.3162 1.5697 -2.5364 0.9395
15.1656 2.6563 -2.5364 0.9395
-7.3048 -11.3462 -2.5364 0.9466
-6.8960 -11.5992 -2.5364 0.9466
-5.1783 -12.4612 -2.5364 0.9466
-4.7311 -12.6377 -2.5364 0.9466
-4.2779 -12.7983 -2.5364 0.9466
-1.8252 -12.5514 -2.3840 0.9497
-0.9276 -12.6605 -2.3861 0.9496
-0.0238 -12.7056 -2.3882 0.9496
0.4290 -12.7032 -2.3891 0.9496
0.8813 -12.6787 -2.3889 0.9496
2.2306 -12.5210 -2.3905 0.9496
2.6758 -12.4355 -2.3909 0.9495
3.5549 -12.2158 -2.3914 0.9495
4.4140 -11.9265 -2.3903 0.9496
4.8334 -11.7551 -2.3890 0.9496
6.0561 -11.1649 -2.3874 0.9496
6.4484 -10.9393 -2.3868 0.9496
6.8322 -10.6998 -2.3862 0.9496
7.2070 -10.4466 -2.3855 0.9497
7.9277 -9.9009 -2.3840 0.9497
8.3644 -9.7154 -2.4097 0.9492
8.9738 -9.7017 -2.4840 0.9476
10.1677 -8.8721 -2.5364 0.9466
10.7736 -8.1255 -2.5364 0.9466
11.0563 -7.7365 -2.5364 0.9466
11.3249 -7.3377 -2.5364 0.9466
11.5791 -6.9296 -2.5364 0.9466
11.8186 -6.5127 -2.5364 0.9466
12.0432 -6.0875 -2.5364 0.9466
12.4461 -5.2145 -2.5364 0.9466
12.6239 -4.7678 -2.5364 0.9466
12.7858 -4.3150 -2.5364 0.9466
12.9314 -3.8567 -2.5364 0.9466
13.1732 -2.9261 -2.5364 0.9466
13.3481 -1.9807 -2.5364 0.9466
13.4102 -1.5039 -2.5364 0.9466
13.4833 -0.5452 -2.5364 0.9466
13.4879 0.4164 -2.5364 0.9466
13.3664 1.8531 -2.5364 0.9466
13.2919 2.3281 -2.5364 0.9466
-5.7606 -10.5260 -2.5364 0.9521
-5.3819 -10.7246 -2.5364 0.9521
-4.6046 -11.0806 -2.5364 0.9521
-4.2069 -11.2376 -2.5364 0.9521
-3.8039 -11.3803 -2.5364 0.9521
-3.3961 -11.5086 -2.5364 0.9521
-2.9839 -11.6223 -2.5364 0.9521
0.7829 -11.2637 -2.3867 0.9549
1.1839 -11.2304 -2.3870 0.9549
1.9807 -11.1186 -2.3872 0.9549
2.3754 -11.0402 -2.3871 0.9549
2.7670 -10.9474 -2.3868 0.9549
3.5386 -10.7199 -2.3862 0.9549
3.9176 -10.5854 -2.3859 0.9549
4.2916 -10.4374 -2.3855 0.9549
4.6598 -10.2760 -2.3850 0.9549
5.3776 -9.9141 -2.3841 0.9549
7.8288 -9.0934 -2.5364 0.9521
8.1479 -8.8088 -2.5364 0.9521
8.4565 -8.5129 -2.5364 0.9521
8.7544 -8.2062 -2.5364 0.9521
9.3165 -7.5620 -2.5364 0.9521
9.5800 -7.2253 -2.5364 0.9521
10.2963 -6.1618 -2.5364 0.9521
10.5093 -5.7911 -2.5364 0.9521
10.8950 -5.0281 -2.5364 0.9521
11.0672 -4.6367 -2.5364 0.9521
11.2252 -4.2396 -2.5364 0.9521
11.7137 -2.6019 -2.5364 0.9521
11.7990 -2.1830 -2.5364 0.9521
11.9245 -1.3373 -2.5364 0.9521
11.9646 -0.9116 -2.5364 0.9521
11.9935 0.3702 -2.5364 0.9521
11.9727 0.7973 -2.5364 0.9521
11.8855 1.6479 -2.5364 0.9521
-5.5151 -9.2765 -2.5364 0.9566
-4.4938 -9.8120 -2.5364 0.9566
-3.0544 -10.3509 -2.5364 0.9566
-2.6837 -10.4531 -2.5364 0.9566
-1.5531 -10.6798 -2.5364 0.9566
-1.1716 -10.7283 -2.5364 0.9566
-0.7886 -10.7633 -2.5364 0.9566
-0.3986 -10.6220 -2.4982 0.9573
-0.0194 -10.3686 -2.4369 0.9583
0.7034 -10.1193 -2.3840 0.9592
1.7792 -9.9872 -2.3842 0.9592
2.1338 -9.9170 -2.3841 0.9592
3.5940 -9.7110 -2.4336 0.9583
4.8044 -9.6637 -2.5364 0.9566
5.1456 -9.4864 -2.5364 0.9566
5.4803 -9.2971 -2.5364 0.9566
5.8081 -9.0960 -2.5364 0.9566
6.4410 -8.6593 -2.5364 0.9566
7.3282 -7.9226 -2.5364 0.9566
7.6058 -7.6565 -2.5364 0.9566
7.8737 -7.3807 -2.5364 0.9566
8.1317 -7.0955 -2.5364 0.9566
8.3793 -6.8012 -2.5364 0.9566
8.6163 -6.4984 -2.5364 0.9566
9.0571 -5.8684 -2.5364 0.9566
9.4521 -5.2085 -2.5364 0.9566
9.6315 -4.8685 -2.5364 0.9566
10.0961 -3.8130 -2.5364 0.9566
10.4453 -2.7141 -2.5364 0.9566
10.5353 -2.3402 -2.5364 0.9566
10.6752 -1.5840 -2.5364 0.9566
10.7249 -1.2027 -2.5364 0.9566
10.7609 -0.8199 -2.5364 0.9566
10.7833 -0.4360 -2.5364 0.9566
10.7870 0.3330 -2.5364 0.9566
10.7359 1.1003 -2.5364 0.9566
-4.3938 -8.7555 -2.5364 0.9603
-2.0965 -9.5692 -2.5364 0.9603
-1.7542 -9.6378 -2.5364 0.9603
-1.0635 -9.7383 -2.5364 0.9603
-0.7159 -9.7700 -2.5364 0.9603
-0.3673 -9.7893 -2.5364 0.9603
1.0270 -9.7422 -2.5364 0.9603
1.3734 -9.6994 -2.5364 0.9603
1.7181 -9.6443 -2.5364 0.9603
2.4005 -9.4975 -2.5364 0.9603
3.4002 -9.1871 -2.5364 0.9603
4.3611 -8.7719 -2.5364 0.9603
4.6707 -8.6110 -2.5364 0.9603
4.9745 -8.4391 -2.5364 0.9603
6.1229 -7.6469 -2.5364 0.9603
7.6060 -6.1736 -2.5364 0.9603
7.8211 -5.8987 -2.5364 0.9603
8.4058 -5.0305 -2.5364 0.9603
8.8946 -4.1049 -2.5364 0.9603
9.1643 -3.4611 -2.5364 0.9603
9.6327 -1.7822 -2.5364 0.9603
9.6900 -1.4379 -2.5364 0.9603
9.7881 -0.3957 -2.5364 0.9603
9.7960 -0.0468 -2.5364 0.9603
9.7915 0.3023 -2.5364 0.9603
9.7745 0.6509 -2.5364 0.9603
9.7033 1.3453 -2.5364 0.9603
-4.8501 -7.5333 -2.5364 0.9634
-4.5786 -7.7013 -2.5364 0.9634
-4.0186 -8.0078 -2.5364 0.9634
-3.7307 -8.1459 -2.5364 0.9634
-3.4382 -8.2736 -2.5364 0.9634
-3.1412 -8.3909 -2.5364 0.9634
-2.8403 -8.4975 -2.5364 0.9634
-2.5358 -8.5933 -2.5364 0.9634
-0.9727 -8.9066 -2.5364 0.9634
0.3024 -8.9545 -2.5364 0.9634
0.6213 -8.9380 -2.5364 0.9634
0.9393 -8.9102 -2.5364 0.9634
1.2561 -8.8711 -2.5364 0.9634
2.5036 -8.6027 -2.5364 0.9634
2.8085 -8.5080 -2.5364 0.9634
3.1098 -8.4026 -2.5364 0.9634
3.7002 -8.1598 -2.5364 0.9634
3.9886 -8.0228 -2.5364 0.9634
4.2719 -7.8756 -2.5364 0.9634
4.8218 -7.5515 -2.5364 0.9634
5.0878 -7.3749 -2.5364 0.9634
5.3473 -7.1889 -2.5364 0.9634
5.6000 -6.9938 -2.5364 0.9634
5.8456 -6.7899 -2.5364 0.9634
6.0838 -6.5773 -2.5364 0.9634
6.5367 -6.1274 -2.5364 0.9634
6.7509 -5.8906 -2.5364 0.9634
7.3409 -5.1367 -2.5364 0.9634
7.5192 -4.8719 -2.5364 0.9634
7.6881 -4.6009 -2.5364 0.9634
7.9961 -4.0418 -2.5364 0.9634
8.3817 -3.1656 -2.5364 0.9634
8.4892 -2.8650 -2.5364 0.9634
8.5859 -2.5607 -2.5364 0.9634
8.6716 -2.2532 -2.5364 0.9634
8.8101 -1.6300 -2.5364 0.9634
8.8626 -1.3151 -2.5364 0.9634
8.9038 -0.9985 -2.5364 0.9634
8.9337 -0.6806 -2.5364 0.9634
8.9523 -0.3620 -2.5364 0.9634
-4.4640 -6.9336 -2.5364 0.9661
-4.2141 -7.0883 -2.5364 0.9661
-2.8912 -7.7229 -2.5364 0.9661
-2.6142 -7.8210 -2.5364 0.9661
-2.0506 -7.9873 -2.5364 0.9661
-1.7648 -8.0553 -2.5364 0.9661
-1.4767 -8.1131 -2.5364 0.9661
-0.8952 -8.1976 -2.5364 0.9661
-0.6026 -8.2243 -2.5364 0.9661
-0.3092 -8.2405 -2.5364 0.9661
0.2784 -8.2416 -2.5364 0.9661
1.4463 -8.1185 -2.5364 0.9661
2.8622 -7.7337 -2.5364 0.9661
3.1359 -7.6268 -2.5364 0.9661
3.6711 -7.3841 -2.5364 0.9661
4.1876 -7.1040 -2.5364 0.9661
5.1542 -6.4371 -2.5364 0.9661
6.4026 -5.1969 -2.5364 0.9661
6.5837 -4.9655 -2.5364 0.9661
6.7565 -4.7278 -2.5364 0.9661
6.9206 -4.4841 -2.5364 0.9661
7.0760 -4.2347 -2.5364 0.9661
7.2224 -3.9799 -2.5364 0.9661
7.3596 -3.7200 -2.5364 0.9661
7.4874 -3.4555 -2.5364 0.9661
7.9813 -2.0738 -2.5364 0.9661
8.0501 -1.7881 -2.5364 0.9661
8.1087 -1.5002 -2.5364 0.9661
8.2225 -0.6265 -2.5364 0.9661
8.2396 -0.3331 -2.5364 0.9661
8.2462 -0.0394 -2.5364 0.9661
8.2281 0.5479 -2.5364 0.9661
-4.1306 -6.4157 -2.5364 0.9683
-2.6752 -7.1461 -2.5364 0.9683
-2.4189 -7.2368 -2.5364 0.9683
-1.8975 -7.3908 -2.5364 0.9683
-1.3664 -7.5071 -2.5364 0.9683
-1.0981 -7.5510 -2.5364 0.9683
-0.8284 -7.5854 -2.5364 0.9683
-0.2861 -7.6250 -2.5364 0.9683
-0.0143 -7.6304 -2.5364 0.9683
1.0698 -7.5550 -2.5364 0.9683
1.3383 -7.5121 -2.5364 0.9683
2.3918 -7.2459 -2.5364 0.9683
2.6484 -7.1561 -2.5364 0.9683
2.9017 -7.0572 -2.5364 0.9683
3.1513 -6.9493 -2.5364 0.9683
3.8748 -6.5734 -2.5364 0.9683
4.1065 -6.4312 -2.5364 0.9683
4.5540 -6.1224 -2.5364 0.9683
4.7693 -5.9563 -2.5364 0.9683
5.3776 -5.4134 -2.5364 0.9683
5.5670 -5.2184 -2.5364 0.9683
5.7493 -5.0168 -2.5364 0.9683
6.6829 -3.6826 -2.5364 0.9683
6.9282 -3.1974 -2.5364 0.9683
7.0377 -2.9486 -2.5364 0.9683
7.2298 -2.4399 -2.5364 0.9683
7.3121 -2.1808 -2.5364 0.9683
7.3852 -1.9189 -2.5364 0.9683
7.5829 -0.8504 -2.5364 0.9683
7.6242 -0.3082 -2.5364 0.9683
7.6303 -0.0364 -2.5364 0.9683
7.6268 0.2354 -2.5364 0.9683
7.6136 0.5070 -2.5364 0.9683
7.5907 0.7779 -2.5364 0.9683
7.5160 1.3165 -2.5364 0.9683
-3.8395 -5.9636 -2.5364 0.9703
-3.6246 -6.0966 -2.5364 0.9703
-3.1812 -6.3392 -2.5364 0.9703
-2.9534 -6.4485 -2.5364 0.9703
-2.4867 -6.6425 -2.5364 0.9703
-2.2485 -6.7269 -2.5364 0.9703
-2.0074 -6.8027 -2.5364 0.9703
-1.7638 -6.8699 -2.5364 0.9703
-1.0207 -7.0189 -2.5364 0.9703
-0.7700 -7.0508 -2.5364 0.9703
-0.5183 -7.0737 -2.5364 0.9703
-0.0133 -7.0927 -2.5364 0.9703
0.2394 -7.0887 -2.5364 0.9703
0.9944 -7.0226 -2.5364 0.9703
1.2440 -6.9827 -2.5364 0.9703
1.7380 -6.8764 -2.5364 0.9703
2.2233 -6.7352 -2.5364 0.9703
2.4618 -6.6517 -2.5364 0.9703
2.6972 -6.5598 -2.5364 0.9703
3.1575 -6.3511 -2.5364 0.9703
3.3817 -6.2346 -2.5364 0.9703
3.6017 -6.1102 -2.5364 0.9703
4.2331 -5.6910 -2.5364 0.9703
4.8161 -5.2068 -2.5364 0.9703
4.9987 -5.0319 -2.5364 0.9703
5.3442 -4.6632 -2.5364 0.9703
5.5070 -4.4699 -2.5364 0.9703
5.8113 -4.0664 -2.5364 0.9703
6.0861 -3.6423 -2.5364 0.9703
6.5417 -2.7408 -2.5364 0.9703
6.6352 -2.5059 -2.5364 0.9703
6.8647 -1.7837 -2.5364 0.9703
7.0722 -0.5388 -2.5364 0.9703
7.0869 -0.2865 -2.5364 0.9703
7.0926 -0.0339 -2.5364 0.9703
7.0770 0.4713 -2.5364 0.9703
7.0557 0.7231 -2.5364 0.9703
6.9863 1.2237 -2.5364 0.9703
-3.5829 -5.5650 -2.5364 0.9720
-3.1775 -5.8061 -2.5364 0.9720
-2.5399 -6.1119 -2.5364 0.9720
-2.0982 -6.2773 -2.5364 0.9720
-1.8732 -6.3481 -2.5364 0.9720
-1.4165 -6.4653 -2.5364 0.9720
-0.4837 -6.6010 -2.5364 0.9720
-0.2482 -6.6140 -2.5364 0.9720
-0.0124 -6.6187 -2.5364 0.9720
0.4589 -6.6028 -2.5364 0.9720
0.6939 -6.5822 -2.5364 0.9720
1.1608 -6.5161 -2.5364 0.9720
1.3922 -6.4706 -2.5364 0.9720
2.0747 -6.2851 -2.5364 0.9720
2.2973 -6.2072 -2.5364 0.9720
2.5170 -6.1214 -2.5364 0.9720
2.9465 -5.9267 -2.5364 0.9720
3.1557 -5.8179 -2.5364 0.9720
3.5620 -5.5784 -2.5364 0.9720
3.9502 -5.3107 -2.5364 0.9720
4.1369 -5.1665 -2.5364 0.9720
4.3183 -5.0158 -2.5364 0.9720
4.8289 -4.5265 -2.5364 0.9720
4.9871 -4.3516 -2.5364 0.9720
5.1389 -4.1711 -2.5364 0.9720
5.4229 -3.7946 -2.5364 0.9720
5.5546 -3.5990 -2.5364 0.9720
6.1918 -2.3385 -2.5364 0.9720
6.4612 -1.4352 -2.5364 0.9720
6.5082 -1.2041 -2.5364 0.9720
6.5470 -0.9715 -2.5364 0.9720
6.5774 -0.7376 -2.5364 0.9720
6.6133 -0.2674 -2.5364 0.9720
6.6186 -0.0316 -2.5364 0.9720
6.6155 0.2042 -2.5364 0.9720
6.5842 0.6748 -2.5364 0.9720
6.5194 1.1419 -2.5364 0.9720
-3.3548 -5.2108 -2.5364 0.9736
-3.1670 -5.3270 -2.5364 0.9736
-2.5805 -5.6345 -2.5364 0.9736
-2.1728 -5.8039 -2.5364 0.9736
-1.9646 -5.8776 -2.5364 0.9736
-1.5411 -6.0026 -2.5364 0.9736
-1.1098 -6.0971 -2.5364 0.9736
-0.6728 -6.1607 -2.5364 0.9736
-0.4529 -6.1807 -2.5364 0.9736
-0.0116 -6.1973 -2.5364 0.9736
1.0869 -6.1012 -2.5364 0.9736
1.3036 -6.0586 -2.5364 0.9736
1.9426 -5.8850 -2.5364 0.9736
2.3567 -5.7317 -2.5364 0.9736
2.9548 -5.4475 -2.5364 0.9736
3.1470 -5.3388 -2.5364 0.9736
3.6987 -4.9725 -2.5364 0.9736
4.3676 -4.3967 -2.5364 0.9736
5.0776 -3.5530 -2.5364 0.9736
5.2010 -3.3699 -2.5364 0.9736
5.6270 -2.5969 -2.5364 0.9736
5.7159 -2.3948 -2.5364 0.9736
5.8719 -1.9817 -2.5364 0.9736
5.9388 -1.7712 -2.5364 0.9736
5.9981 -1.5585 -2.5364 0.9736
6.0939 -1.1274 -2.5364 0.9736
6.1302 -0.9096 -2.5364 0.9736
6.1587 -0.6906 -2.5364 0.9736
6.1794 -0.4708 -2.5364 0.9736
6.1922 -0.2504 -2.5364 0.9736
6.1650 0.6318 -2.5364 0.9736
-2.9741 -5.0025 -2.5364 0.9749
-2.7940 -5.1053 -2.5364 0.9749
-2.6104 -5.2016 -2.5364 0.9749
-1.0422 -5.7258 -2.5364 0.9749
-0.6318 -5.7855 -2.5364 0.9749
-0.4253 -5.8043 -2.5364 0.9749
-0.0109 -5.8199 -2.5364 0.9749
0.1964 -5.8166 -2.5364 0.9749
0.4035 -5.8058 -2.5364 0.9749
0.8159 -5.7624 -2.5364 0.9749
1.6262 -5.5881 -2.5364 0.9749
1.8243 -5.5266 -2.5364 0.9749
2.2132 -5.3826 -2.5364 0.9749
2.5909 -5.2113 -2.5364 0.9749
2.7749 -5.1158 -2.5364 0.9749
2.9554 -5.0136 -2.5364 0.9749
3.3049 -4.7905 -2.5364 0.9749
3.4734 -4.6697 -2.5364 0.9749
3.6376 -4.5430 -2.5364 0.9749
3.7971 -4.4105 -2.5364 0.9749
3.9519 -4.2724 -2.5364 0.9749
4.5187 -3.6677 -2.5364 0.9749
4.6465 -3.5044 -2.5364 0.9749
4.9939 -2.9886 -2.5364 0.9749
5.2843 -2.4387 -2.5364 0.9749
5.3678 -2.2489 -2.5364 0.9749
5.5143 -1.8610 -2.5364 0.9749
5.6328 -1.4636 -2.5364 0.9749
5.6814 -1.2620 -2.5364 0.9749
5.7227 -1.0588 -2.5364 0.9749
5.8171 0.1796 -2.5364 0.9749
5.8070 0.3867 -2.5364 0.9749
5.7326 1.0041 -2.5364 0.9749
-2.9662 -4.6073 -2.5364 0.9761
-2.8002 -4.7100 -2.5364 0.9761
-2.4577 -4.8974 -2.5364 0.9761
-2.2817 -4.9819 -2.5364 0.9761
-1.9211 -5.1317 -2.5364 0.9761
-1.5508 -5.2555 -2.5364 0.9761
-0.9812 -5.3910 -2.5364 0.9761
-0.7885 -5.4225 -2.5364 0.9761
-0.5949 -5.4472 -2.5364 0.9761
-0.2055 -5.4757 -2.5364 0.9761
0.5745 -5.4493 -2.5364 0.9761
0.7682 -5.4254 -2.5364 0.9761
0.9610 -5.3946 -2.5364 0.9761
1.5311 -5.2613 -2.5364 0.9761
1.7176 -5.2034 -2.5364 0.9761
1.9019 -5.1389 -2.5364 0.9761
2.2630 -4.9904 -2.5364 0.9761
2.7826 -4.7205 -2.5364 0.9761
2.9490 -4.6183 -2.5364 0.9761
3.2703 -4.3966 -2.5364 0.9761
3.4249 -4.2773 -2.5364 0.9761
3.5751 -4.1526 -2.5364 0.9761
3.7208 -4.0226 -2.5364 0.9761
3.8617 -3.8875 -2.5364 0.9761
3.9978 -3.7474 -2.5364 0.9761
4.2545 -3.4533 -2.5364 0.9761
4.4896 -3.1415 -2.5364 0.9761
4.5986 -2.9796 -2.5364 0.9761
4.8903 -2.4719 -2.5364 0.9761
5.1261 -1.9360 -2.5364 0.9761
5.1918 -1.7522 -2.5364 0.9761
5.3034 -1.3780 -2.5364 0.9761
5.3492 -1.1882 -2.5364 0.9761
5.3881 -0.9969 -2.5364 0.9761
5.4202 -0.8043 -2.5364 0.9761
5.4751 -0.2214 -2.5364 0.9761
5.4276 0.7525 -2.5364 0.9761
-2.6424 -4.4446 -2.5364 0.9772
-2.4824 -4.5359 -2.5364 0.9772
-2.3192 -4.6215 -2.5364 0.9772
-1.8129 -4.8426 -2.5364 0.9772
-1.6392 -4.9041 -2.5364 0.9772
-0.9259 -5.0872 -2.5364 0.9772
-0.7441 -5.1170 -2.5364 0.9772
-0.1939 -5.1672 -2.5364 0.9772
0.1745 -5.1679 -2.5364 0.9772
1.2671 -5.0131 -2.5364 0.9772
1.7947 -4.8493 -2.5364 0.9772
2.1355 -4.7092 -2.5364 0.9772
3.0861 -4.1489 -2.5364 0.9772
3.2319 -4.0363 -2.5364 0.9772
3.5111 -3.7959 -2.5364 0.9772
4.0147 -3.2587 -2.5364 0.9772
4.6147 -2.3326 -2.5364 0.9772
4.6949 -2.1667 -2.5364 0.9772
4.8373 -1.8269 -2.5364 0.9772
5.1559 -0.3928 -2.5364 0.9772
5.1666 -0.2089 -2.5364 0.9772
5.1683 0.1595 -2.5364 0.9772
5.1594 0.3436 -2.5364 0.9772
5.1439 0.5272 -2.5364 0.9772
5.0933 0.8921 -2.5364 0.9772
-2.6466 -4.1109 -2.5364 0.9782
-2.4985 -4.2025 -2.5364 0.9782
-2.3472 -4.2889 -2.5364 0.9782
-1.7141 -4.5788 -2.5364 0.9782
-1.5499 -4.6370 -2.5364 0.9782
-1.3837 -4.6893 -2.5364 0.9782
-1.2158 -4.7356 -2.5364 0.9782
-0.8755 -4.8101 -2.5364 0.9782
-0.5308 -4.8603 -2.5364 0.9782
-0.3573 -4.8761 -2.5364 0.9782
-0.1833 -4.8857 -2.5364 0.9782
0.1650 -4.8864 -2.5364 0.9782
0.8575 -4.8134 -2.5364 0.9782
1.0284 -4.7798 -2.5364 0.9782
1.3662 -4.6944 -2.5364 0.9782
1.6970 -4.5852 -2.5364 0.9782
1.8593 -4.5218 -2.5364 0.9782
2.0192 -4.4527 -2.5364 0.9782
2.1765 -4.3780 -2.5364 0.9782
2.3311 -4.2976 -2.5364 0.9782
2.7764 -4.0244 -2.5364 0.9782
2.9180 -3.9229 -2.5364 0.9782
3.0559 -3.8165 -2.5364 0.9782
3.1899 -3.7052 -2.5364 0.9782
3.6839 -3.2145 -2.5364 0.9782
3.7961 -3.0812 -2.5364 0.9782
4.0058 -2.8030 -2.5364 0.9782
4.1953 -2.5107 -2.5364 0.9782
4.2821 -2.3596 -2.5364 0.9782
4.6325 -1.5634 -2.5364 0.9782
4.7320 -1.2296 -2.5364 0.9782
4.7728 -1.0602 -2.5364 0.9782
4.8362 -0.7176 -2.5364 0.9782
4.8750 -0.3714 -2.5364 0.9782
4.8852 -0.1975 -2.5364 0.9782
4.8891 -0.0233 -2.5364 0.9782
4.8868 0.1509 -2.5364 0.9782
4.8784 0.3249 -2.5364 0.9782
4.8637 0.4984 -2.5364 0.9782
4.8428 0.6714 -2.5364 0.9782
-2.3666 -3.9806 -2.5364 0.9791
-2.2232 -4.0624 -2.5364 0.9791
-1.9283 -4.2104 -2.5364 0.9791
-1.7771 -4.2764 -2.5364 0.9791
-1.3107 -4.4416 -2.5364 0.9791
-0.5027 -4.6036 -2.5364 0.9791
0.1563 -4.6283 -2.5364 0.9791
0.4855 -4.6054 -2.5364 0.9791
0.9741 -4.5274 -2.5364 0.9791
1.2940 -4.4465 -2.5364 0.9791
1.6074 -4.3431 -2.5364 0.9791
1.9125 -4.2176 -2.5364 0.9791
2.3516 -3.9894 -2.5364 0.9791
2.6297 -3.8118 -2.5364 0.9791
2.7639 -3.7158 -2.5364 0.9791
2.8945 -3.6149 -2.5364 0.9791
3.0215 -3.5095 -2.5364 0.9791
3.5956 -2.9185 -2.5364 0.9791
3.6973 -2.7885 -2.5364 0.9791
4.0559 -2.2350 -2.5364 0.9791
4.3323 -1.6362 -2.5364 0.9791
4.3878 -1.4808 -2.5364 0.9791
4.5208 -1.0042 -2.5364 0.9791
4.5537 -0.8425 -2.5364 0.9791
4.6176 -0.3518 -2.5364 0.9791
4.6288 0.1429 -2.5364 0.9791
4.6207 0.3077 -2.5364 0.9791
4.5871 0.6359 -2.5364 0.9791
4.5615 0.7990 -2.5364 0.9791
-2.3781 -3.6938 -2.5364 0.9799
-2.2450 -3.7762 -2.5364 0.9799
-2.1091 -3.8538 -2.5364 0.9799
-1.9704 -3.9265 -2.5364 0.9799
-1.8293 -3.9942 -2.5364 0.9799
-1.6858 -4.0568 -2.5364 0.9799
-1.5402 -4.1143 -2.5364 0.9799
-0.6322 -4.3475 -2.5364 0.9799
-0.3210 -4.3814 -2.5364 0.9799
-0.1647 -4.3900 -2.5364 0.9799
0.1483 -4.3907 -2.5364 0.9799
0.4606 -4.3690 -2.5364 0.9799
0.6159 -4.3498 -2.5364 0.9799
0.7705 -4.3251 -2.5364 0.9799
0.9241 -4.2949 -2.5364 0.9799
1.0765 -4.2592 -2.5364 0.9799
1.2276 -4.2182 -2.5364 0.9799
1.5248 -4.1200 -2.5364 0.9799
1.8143 -4.0010 -2.5364 0.9799
1.9557 -3.9338 -2.5364 0.9799
2.0946 -3.8617 -2.5364 0.9799
2.4947 -3.6161 -2.5364 0.9799
2.6220 -3.5250 -2.5364 0.9799
2.7459 -3.4293 -2.5364 0.9799
2.8663 -3.3293 -2.5364 0.9799
2.9831 -3.2251 -2.5364 0.9799
3.0961 -3.1167 -2.5364 0.9799
3.2052 -3.0045 -2.5364 0.9799
3.5074 -2.6453 -2.5364 0.9799
3.6869 -2.3889 -2.5364 0.9799
3.9207 -1.9818 -2.5364 0.9799
3.9889 -1.8409 -2.5364 0.9799
4.0519 -1.6976 -2.5364 0.9799
4.1625 -1.4048 -2.5364 0.9799
4.2099 -1.2556 -2.5364 0.9799
4.2520 -1.1048 -2.5364 0.9799
4.2886 -0.9526 -2.5364 0.9799
4.3199 -0.7992 -2.5364 0.9799
4.3658 -0.4896 -2.5364 0.9799
4.3805 -0.3337 -2.5364 0.9799
4.3931 -0.0210 -2.5364 0.9799
4.3703 0.4479 -2.5364 0.9799
4.3515 0.6033 -2.5364 0.9799
4.3273 0.7580 -2.5364 0.9799
