ply
format ascii 1.0
element vertex 1011
property float32 x
property float32 y
property float32 z
property float32 I
end_header
-20.7638 8.6712 3.9677 0.9127
-42.1328 15.8343 7.9365 0.8329
-42.2049 12.4688 7.7598 0.8363
-42.2399 10.8375 7.6893 0.8377
-30.7761 -9.2017 5.6640 0.8777
-30.3577 -11.5223 5.7255 0.8764
-28.3622 -11.9534 5.4270 0.8825
-27.7892 -12.9125 5.4031 0.8830
-27.5817 -14.0484 5.4579 0.8819
-27.4517 -15.2546 5.5376 0.8802
-27.4299 -16.5661 5.6503 0.8780
-27.4660 -19.4238 5.9317 0.8723
-27.4783 -22.5757 6.2707 0.8655
-1.7446 -19.6454 3.4776 0.9230
-1.8945 -36.0806 6.3707 0.8635
0.2640 -13.3530 2.3550 0.9472
-32.2589 13.4718 5.3555 0.8681
-23.2357 8.7324 3.8027 0.9044
-32.3162 10.8304 5.2213 0.8712
-42.2399 10.8375 6.6805 0.8382
-38.7776 -11.5941 6.2004 0.8489
-34.2133 -11.5906 5.5339 0.8640
-27.7892 -12.9125 4.6943 0.8834
-27.5817 -14.0484 4.7419 0.8823
-27.4517 -15.2546 4.8111 0.8807
-27.4884 -17.9870 5.0325 0.8755
-27.4637 -20.9496 5.2916 0.8696
-27.4774 -22.5749 5.4479 0.8660
-27.4400 -28.0336 6.0095 0.8532
-27.4396 -30.1369 6.2438 0.8480
-1.8943 -36.0773 5.5345 0.8640
-32.4156 14.9337 4.6476 0.8659
-35.5217 10.4944 4.8233 0.8612
-30.6976 -4.5165 4.0405 0.8824
-30.7411 -6.8196 4.1005 0.8807
-44.3008 -11.5205 5.9608 0.8314
-38.7763 -11.5937 5.2703 0.8494
-34.2103 -11.5896 4.7036 0.8644
-28.3622 -11.9534 4.0080 0.8832
-27.7892 -12.9125 3.9903 0.8837
-27.4644 -20.9501 4.4982 0.8699
-27.4765 -22.5741 4.6307 0.8664
-27.4325 -34.8859 5.7792 0.8361
-27.4369 -37.6105 6.0624 0.8288
-1.7439 -19.6377 2.5673 0.9236
0.2640 -13.3530 1.7392 0.9476
-32.4453 13.5496 3.7756 0.8681
-32.5625 12.2376 3.7354 0.8694
-35.5218 10.4944 3.9774 0.8616
-44.2994 -11.5202 4.9152 0.8318
-30.7238 -9.1860 3.4435 0.8790
-28.3622 -11.9534 3.3050 0.8835
-27.7892 -12.9125 3.2905 0.8840
-27.5817 -14.0484 3.3238 0.8829
-27.4517 -15.2546 3.3724 0.8813
-27.4299 -16.5661 3.4410 0.8790
-27.4756 -22.5734 3.8184 0.8667
-27.4687 -26.1069 4.0693 0.8586
-27.4429 -28.0365 4.2128 0.8540
-27.4395 -32.4142 4.5604 0.8429
-27.4336 -34.8872 4.7658 0.8365
-27.4362 -37.6096 4.9990 0.8292
-1.7435 -19.6339 2.1166 0.9238
-1.8939 -36.0704 3.8786 0.8648
0.2640 -13.3530 1.4341 0.9477
-32.4156 14.9337 3.0213 0.8665
-32.4453 13.5496 2.9765 0.8684
-41.5911 10.6710 3.6348 0.8417
-34.2044 -11.5876 3.0571 0.8650
-30.3577 -11.5223 2.7487 0.8778
-28.3622 -11.9534 2.6055 0.8838
-27.7892 -12.9125 2.5940 0.8843
-27.5817 -14.0484 2.6203 0.8832
-27.4884 -17.9870 2.7809 0.8765
-27.4688 -19.4258 2.8480 0.8737
-27.4658 -20.9512 2.9243 0.8705
-27.4746 -22.5726 3.0101 0.8670
-27.4723 -24.2841 3.1039 0.8631
-27.4673 -26.1056 3.2078 0.8589
-27.4443 -28.0380 3.3213 0.8543
-27.4406 -32.4156 3.5953 0.8433
-27.4346 -34.8885 3.7572 0.8368
-27.4355 -37.6088 3.9408 0.8295
-32.5022 10.8928 2.1256 0.8716
-35.5217 10.4944 2.2968 0.8620
-41.3929 10.6202 2.6499 0.8426
-28.3622 -11.9534 1.9086 0.8840
-27.7892 -12.9125 1.9002 0.8844
-27.5817 -14.0484 1.9194 0.8833
-27.4299 -16.5661 1.9871 0.8795
-27.4884 -17.9870 2.0370 0.8766
-27.4659 -26.1042 2.3497 0.8591
-27.4458 -28.0395 2.4331 0.8545
-27.4441 -30.1418 2.5278 0.8493
-27.4418 -32.4170 2.6337 0.8435
-27.4355 -34.8898 2.7523 0.8370
-27.4349 -37.6079 2.8867 0.8298
-27.4238 -40.5937 3.0378 0.8217
-1.8936 -36.0636 2.2394 0.8653
0.2640 -13.3530 0.8282 0.9479
-32.4453 13.5496 1.3864 0.8687
-32.5022 10.8928 1.3517 0.8718
-31.7839 9.3901 1.3068 0.8758
-41.1907 10.5683 1.6768 0.8435
-41.5454 9.0742 1.6768 0.8435
-44.2953 -11.5191 1.8047 0.8326
-38.7709 -11.5921 1.5956 0.8504
-30.3577 -11.5223 1.2804 0.8781
-27.7892 -12.9125 1.2083 0.8846
-27.5817 -14.0484 1.2205 0.8835
-27.4517 -15.2546 1.2383 0.8819
-27.4299 -16.5661 1.2635 0.8796
-27.4884 -17.9870 1.2953 0.8768
-27.4672 -20.9523 1.3622 0.8708
-27.4728 -22.5711 1.4020 0.8673
-27.4645 -26.1029 1.4940 0.8593
-27.4453 -30.1430 1.6074 0.8494
-27.4430 -32.4183 1.6748 0.8436
-27.4365 -34.8910 1.7502 0.8372
-27.4343 -37.6070 1.8355 0.8300
-27.4245 -40.5948 1.9317 0.8219
-32.4156 14.9337 0.6029 0.8669
-32.4453 13.5496 0.5939 0.8688
-41.4357 10.6312 0.7226 0.8427
-30.3577 -11.5223 0.5485 0.8782
-27.7892 -12.9125 0.5176 0.8846
-27.4299 -16.5661 0.5413 0.8797
-27.4884 -17.9870 0.5549 0.8768
-27.4708 -19.4272 0.5683 0.8741
-27.4486 -28.0424 0.6628 0.8547
-27.4441 -32.4197 0.7175 0.8437
-27.4375 -34.8923 0.7498 0.8373
-27.4336 -37.6061 0.7863 0.8301
-27.4253 -40.5959 0.8276 0.8220
-1.7422 -19.6187 0.3327 0.9242
-1.8932 -36.0569 0.6099 0.8655
0.2640 -13.3530 0.2256 0.9480
-32.4156 14.9337 -0.2009 0.8670
-32.4453 13.5496 -0.1980 0.8688
-32.4741 12.2044 -0.1953 0.8704
-35.5217 10.4944 -0.2085 0.8623
-34.0041 8.7244 -0.1977 0.8690
-40.5135 8.8488 -0.2335 0.8472
-49.0706 8.8750 -0.2808 0.8192
-47.9140 6.8898 -0.2725 0.8240
-48.4859 5.1933 -0.2745 0.8228
-48.7018 3.4437 -0.2749 0.8226
-48.7043 -1.8392 -0.2744 0.8229
-48.7014 -3.6035 -0.2749 0.8226
-48.6967 -5.3768 -0.2758 0.8220
-48.6816 -8.9689 -0.2787 0.8204
-47.8969 -10.6255 -0.2762 0.8218
-34.1927 -11.5837 -0.2033 0.8655
-28.3622 -11.9534 -0.1733 0.8842
-27.5817 -14.0484 -0.1743 0.8835
-27.4517 -15.2546 -0.1768 0.8819
-27.4299 -16.5661 -0.1804 0.8797
-27.4884 -17.9870 -0.1850 0.8769
-27.4710 -22.5696 -0.2002 0.8674
-27.4669 -24.2792 -0.2064 0.8636
-27.4617 -26.1002 -0.2133 0.8594
-27.4453 -32.4211 -0.2392 0.8437
-27.4385 -34.8935 -0.2499 0.8373
-27.4330 -37.6052 -0.2621 0.8301
-27.4260 -40.5970 -0.2758 0.8220
-1.7418 -19.6149 -0.1109 0.9243
-1.8930 -36.0535 -0.2033 0.8655
-32.4453 13.5496 -0.9901 0.8688
-32.4741 12.2044 -0.9768 0.8704
-30.6233 10.2631 -0.9094 0.8788
-32.5453 9.6150 -0.9556 0.8730
-33.6532 8.6344 -0.9783 0.8702
-40.1709 8.7740 -1.1578 0.8483
-42.0786 7.6104 -1.2041 0.8427
-43.0078 6.1843 -1.2235 0.8404
-43.0398 4.6100 -1.2188 0.8410
-43.0756 1.4858 -1.2136 0.8416
-43.0798 -0.0703 -1.2130 0.8417
-43.0748 -1.6266 -1.2138 0.8416
-43.0607 -3.1861 -1.2158 0.8413
-43.0045 -6.3272 -1.2239 0.8403
-42.9101 -9.5192 -1.2376 0.8387
-34.1898 -11.5827 -1.0165 0.8655
-28.3622 -11.9534 -0.8666 0.8841
-27.5817 -14.0484 -0.8716 0.8835
-27.4884 -17.9870 -0.9250 0.8768
-27.4722 -19.4282 -0.9474 0.8740
-27.4602 -26.0989 -1.0667 0.8593
-27.4486 -30.1467 -1.1480 0.8495
-27.4395 -34.8948 -1.2500 0.8372
-27.4267 -40.5981 -1.3796 0.8220
-1.7415 -19.6112 -0.5544 0.9242
0.2640 -13.3530 -0.3761 0.9480
-32.4156 14.9337 -1.8100 0.8668
-30.6233 10.2631 -1.6379 0.8787
-31.6795 9.3592 -1.6752 0.8761
-36.1456 6.5374 -1.8628 0.8632
-37.2878 5.3618 -1.9105 0.8600
-37.3448 4.0000 -1.9047 0.8603
-37.3851 2.6435 -1.9007 0.8606
-37.4164 -0.0611 -1.8975 0.8608
-37.4074 -1.4126 -1.8984 0.8608
-37.2818 -5.4852 -1.9111 0.8599
-37.2065 -6.8548 -1.9187 0.8594
-37.1139 -8.2334 -1.9280 0.8588
-34.1869 -11.5817 -1.8306 0.8654
-27.5817 -14.0484 -1.5698 0.8834
-27.4517 -15.2546 -1.5927 0.8818
-27.4299 -16.5661 -1.6251 0.8796
-27.4729 -19.4287 -1.7065 0.8739
-27.4588 -26.0975 -1.9212 0.8592
-27.4405 -34.8961 -2.2513 0.8371
-27.0806 -37.1221 -2.3303 0.8319
-25.6001 -41.0123 -2.4519 0.8240
-24.4061 -42.4376 -2.4827 0.8220
-18.0432 -45.5088 -2.4827 0.8220
-13.0168 -47.1929 -2.4827 0.8220
-9.5774 -48.0091 -2.4827 0.8220
-1.8884 -35.9644 -1.8264 0.8657
0.2640 -13.3530 -0.6773 0.9479
2.6111 -46.6793 -2.3710 0.8292
4.3434 -47.0824 -2.3979 0.8275
6.1095 -47.4309 -2.4253 0.8257
9.7399 -47.9675 -2.4823 0.8220
-27.9172 11.6587 -2.2183 0.8857
-28.1486 10.5787 -2.2049 0.8864
-28.5122 9.5556 -2.2049 0.8864
-31.3810 5.6756 -2.3383 0.8799
-31.5879 2.2336 -2.3219 0.8807
-31.5835 -2.3369 -2.3221 0.8807
-31.5213 -3.4804 -2.3253 0.8806
-31.1978 -6.9209 -2.3431 0.8797
-31.0570 -8.0764 -2.3529 0.8792
-29.3914 -9.9571 -2.2753 0.8830
-27.7892 -12.9125 -2.2468 0.8844
-27.5817 -14.0484 -2.2696 0.8833
-26.5945 -17.4020 -2.3303 0.8803
-25.6678 -21.0882 -2.4357 0.8753
-25.3698 -22.4255 -2.4827 0.8730
-23.6855 -24.1978 -2.4827 0.8730
-21.8776 -25.8439 -2.4827 0.8730
-20.9302 -26.6169 -2.4827 0.8730
-19.9556 -27.3552 -2.4827 0.8730
-17.9296 -28.7239 -2.4827 0.8730
-16.8808 -29.3525 -2.4827 0.8730
-14.7187 -30.4942 -2.4827 0.8730
-11.3353 -31.9068 -2.4827 0.8730
-6.6244 -33.2062 -2.4827 0.8730
-5.4211 -33.4237 -2.4827 0.8730
-1.7408 -19.6036 -1.4430 0.9241
-1.6665 -31.7383 -2.3303 0.8803
-0.5195 -31.7778 -2.3303 0.8803
1.7936 -32.0652 -2.3548 0.8791
2.9696 -32.1905 -2.3703 0.8784
5.3550 -32.3163 -2.4018 0.8769
6.5615 -32.3149 -2.4178 0.8761
7.7752 -32.2696 -2.4338 0.8754
11.4422 -31.8619 -2.4823 0.8730
12.6671 -31.6330 -2.4985 0.8723
-23.4877 10.8207 -2.4827 0.9013
-25.4495 4.6029 -2.4829 0.9013
-25.5994 3.6811 -2.4829 0.9013
-25.8534 0.8918 -2.4835 0.9013
-25.7980 -1.9075 -2.4835 0.9013
-25.7100 -2.8387 -2.4833 0.9013
-25.5903 -3.7651 -2.4832 0.9013
-25.4381 -4.6866 -2.4833 0.9013
-24.7833 -7.4100 -2.4834 0.9013
-24.1840 -9.1790 -2.4834 0.9013
-23.4582 -10.9000 -2.4834 0.9013
-23.0491 -11.7397 -2.4833 0.9013
-22.1365 -13.3692 -2.4827 0.9013
-21.1140 -14.9317 -2.4827 0.9013
-20.5612 -15.6843 -2.4827 0.9013
-18.0894 -18.4806 -2.4827 0.9013
-16.7086 -19.7378 -2.4827 0.9013
-15.2407 -20.8921 -2.4827 0.9013
-14.4765 -21.4287 -2.4827 0.9013
-11.2411 -23.2894 -2.4827 0.9013
-10.3930 -23.6800 -2.4827 0.9013
-8.6571 -24.3683 -2.4827 0.9013
-6.8761 -24.9294 -2.4827 0.9013
-5.9716 -25.1615 -2.4827 0.9013
-5.0592 -25.3606 -2.4827 0.9013
-4.1403 -25.5268 -2.4827 0.9013
0.2640 -13.3530 -1.2822 0.9477
1.3667 -24.4340 -2.3495 0.9063
4.0613 -24.5088 -2.3851 0.9050
5.8778 -24.3949 -2.4091 0.9041
6.7885 -24.2875 -2.4211 0.9036
7.6990 -24.1460 -2.4331 0.9032
8.6081 -23.9702 -2.4451 0.9027
9.5143 -23.7596 -2.4571 0.9023
-19.2868 8.0545 -2.4828 0.9193
-19.5653 7.3530 -2.4828 0.9193
-20.2463 5.1946 -2.4829 0.9193
-20.6899 2.9751 -2.4829 0.9192
-20.8509 1.4744 -2.4830 0.9192
-20.8883 -0.7888 -2.4830 0.9192
-20.8463 -1.5424 -2.4830 0.9192
-20.6806 -3.0427 -2.4830 0.9192
-20.2303 -5.2610 -2.4830 0.9192
-20.0271 -5.9879 -2.4830 0.9192
-19.7978 -6.7070 -2.4830 0.9192
-18.2708 -10.1529 -2.4829 0.9193
-17.8922 -10.8058 -2.4829 0.9193
-17.4902 -11.4446 -2.4828 0.9193
-17.0654 -12.0685 -2.4828 0.9193
-16.6183 -12.6766 -2.4828 0.9193
-15.6599 -13.8425 -2.4827 0.9193
-14.6201 -14.9364 -2.4827 0.9193
-14.0714 -15.4545 -2.4827 0.9193
-13.5042 -15.9525 -2.4827 0.9193
-12.9194 -16.4296 -2.4827 0.9193
-12.3179 -16.8855 -2.4827 0.9193
-11.7002 -17.3191 -2.4827 0.9193
-10.4199 -18.1182 -2.4827 0.9193
-9.7590 -18.4826 -2.4827 0.9193
-9.0853 -18.8229 -2.4827 0.9193
-6.2812 -19.9346 -2.4827 0.9193
-5.5574 -20.1485 -2.4827 0.9193
-4.8263 -20.3360 -2.4827 0.9193
-3.3463 -20.6312 -2.4827 0.9193
-1.0286 -19.5909 -2.3303 0.9240
0.2640 -13.3530 -1.5865 0.9476
1.1031 -19.7204 -2.3462 0.9235
2.5437 -19.7484 -2.3652 0.9229
4.7208 -19.5930 -2.3940 0.9220
5.4469 -19.4876 -2.4036 0.9217
6.1714 -19.3550 -2.4132 0.9214
-15.9147 7.3318 -2.4827 0.9317
-16.1690 6.7524 -2.4827 0.9317
-16.4022 6.1643 -2.4827 0.9317
-16.6141 5.5681 -2.4827 0.9317
-16.9726 4.3547 -2.4827 0.9317
-17.1187 3.7390 -2.4827 0.9317
-17.2426 3.1186 -2.4827 0.9317
-17.4227 1.8662 -2.4827 0.9317
-17.5223 -0.0286 -2.4827 0.9317
-17.5098 -0.6612 -2.4827 0.9317
-17.2323 -3.1748 -2.4827 0.9317
-16.9583 -4.4100 -2.4827 0.9317
-16.7880 -5.0194 -2.4827 0.9317
-16.1469 -6.8052 -2.4827 0.9317
-15.8906 -7.3837 -2.4827 0.9317
-15.3164 -8.5111 -2.4827 0.9317
-14.9991 -9.0586 -2.4827 0.9317
-13.5389 -11.1233 -2.4827 0.9317
-13.1285 -11.6049 -2.4827 0.9317
-12.2569 -12.5220 -2.4827 0.9317
-11.7968 -12.9564 -2.4827 0.9317
-10.8311 -13.7739 -2.4827 0.9317
-10.3267 -14.1559 -2.4827 0.9317
-9.8089 -14.5195 -2.4827 0.9317
-9.2783 -14.8642 -2.4827 0.9317
-6.4581 -16.2888 -2.4827 0.9317
-5.8658 -16.5113 -2.4827 0.9317
-4.6591 -16.8916 -2.4827 0.9317
-3.4280 -17.1837 -2.4827 0.9317
-2.8054 -17.2963 -2.4827 0.9317
-0.2688 -16.4445 -2.3303 0.9357
0.2640 -13.3530 -1.8923 0.9475
0.9239 -16.5170 -2.3439 0.9354
1.5248 -16.5286 -2.3519 0.9351
3.9213 -16.2745 -2.3719 0.9346
4.4971 -16.0892 -2.3671 0.9347
5.0634 -15.8801 -2.3617 0.9349
6.1714 -15.4115 -2.3522 0.9351
6.7128 -15.1539 -2.3484 0.9352
-13.6879 6.3059 -2.4827 0.9407
-13.9067 5.8076 -2.4827 0.9407
-14.1073 5.3018 -2.4827 0.9407
-14.2895 4.7890 -2.4827 0.9407
-15.0617 0.5196 -2.4827 0.9407
-15.0599 -0.5687 -2.4827 0.9407
-15.0296 -1.1121 -2.4827 0.9407
-14.9796 -1.6540 -2.4827 0.9407
-14.9101 -2.1937 -2.4827 0.9407
-14.4391 -4.3171 -2.4827 0.9407
-14.0899 -5.3478 -2.4827 0.9407
-13.8876 -5.8530 -2.4827 0.9407
-13.6673 -6.3506 -2.4827 0.9407
-13.4291 -6.8399 -2.4827 0.9407
-13.1734 -7.3203 -2.4827 0.9407
-12.9005 -7.7911 -2.4827 0.9407
-12.3046 -8.7018 -2.4827 0.9407
-11.9824 -9.1403 -2.4827 0.9407
-11.6446 -9.5670 -2.4827 0.9407
-11.2916 -9.9812 -2.4827 0.9407
-10.5419 -10.7700 -2.4827 0.9407
-9.3156 -11.8467 -2.4827 0.9407
-8.8818 -12.1753 -2.4827 0.9407
-8.4365 -12.4880 -2.4827 0.9407
-7.5133 -13.0642 -2.4827 0.9407
-6.5510 -13.5723 -2.4827 0.9407
-6.0567 -13.8000 -2.4827 0.9407
-5.0451 -14.2011 -2.4827 0.9407
-4.5291 -14.3740 -2.4827 0.9407
-4.0072 -14.5281 -2.4827 0.9407
-2.4128 -14.8762 -2.4827 0.9407
-1.2524 -14.1037 -2.3326 0.9442
-0.2317 -14.1739 -2.3353 0.9442
0.2640 -13.3530 -2.2002 0.9473
1.8089 -14.0437 -2.3327 0.9442
3.3198 -13.7781 -2.3347 0.9442
3.8163 -13.6537 -2.3355 0.9441
4.3083 -13.5117 -2.3363 0.9441
5.2760 -13.1755 -2.3381 0.9441
-11.9968 5.5269 -2.4827 0.9477
-12.1886 5.0901 -2.4827 0.9477
-12.5241 4.1974 -2.4827 0.9477
-12.7943 3.2826 -2.4827 0.9477
-12.9045 2.8186 -2.4827 0.9477
-5.1342 0.1771 -0.9656 0.9793
-5.1392 -0.0084 -0.9660 0.9793
-5.1439 -0.1942 -0.9675 0.9793
-5.3032 -0.3924 -0.9995 0.9786
-13.1289 -1.4496 -2.4827 0.9477
-12.9901 -2.3933 -2.4827 0.9477
-12.8952 -2.8607 -2.4827 0.9477
-12.3492 -4.6871 -2.4827 0.9477
-12.1719 -5.1299 -2.4827 0.9477
-11.9787 -5.5660 -2.4827 0.9477
-11.7700 -5.9949 -2.4827 0.9477
-11.5459 -6.4159 -2.4827 0.9477
-11.0528 -7.2323 -2.4827 0.9477
-10.2060 -8.3850 -2.4827 0.9477
-9.5743 -9.0996 -2.4827 0.9477
-8.8927 -9.7668 -2.4827 0.9477
-7.3942 -10.9452 -2.4827 0.9477
-6.1674 -11.6805 -2.4827 0.9477
-5.7417 -11.8955 -2.4827 0.9477
-5.3084 -12.0951 -2.4827 0.9477
-3.9695 -12.5982 -2.4827 0.9477
-3.0501 -12.8517 -2.4827 0.9477
-2.5841 -12.9535 -2.4827 0.9477
-2.1098 -13.0077 -2.4769 0.9478
-1.0973 -12.3560 -2.3316 0.9508
-0.2029 -12.4138 -2.3336 0.9507
0.6939 -12.4052 -2.3353 0.9507
2.4738 -12.1834 -2.3367 0.9507
2.9123 -12.0871 -2.3369 0.9507
3.7747 -11.8384 -2.3355 0.9507
4.1990 -11.6924 -2.3351 0.9507
4.6175 -11.5311 -2.3347 0.9507
-10.6677 4.9146 -2.4827 0.9531
-10.8382 4.5262 -2.4827 0.9531
-11.5578 2.0904 -2.4827 0.9531
-4.7724 0.5112 -1.0145 0.9806
-4.7731 0.3375 -1.0115 0.9806
-4.7760 0.1647 -1.0102 0.9807
-4.7790 -0.1805 -1.0109 0.9806
-4.8039 -0.3555 -1.0182 0.9805
-11.2531 -3.3645 -2.4827 0.9531
-11.1243 -3.7687 -2.4827 0.9531
-10.2667 -5.7051 -2.4827 0.9531
-9.5896 -6.7817 -2.4827 0.9531
-9.3385 -7.1235 -2.4827 0.9531
-8.5136 -8.0915 -2.4827 0.9531
-7.9075 -8.6847 -2.4827 0.9531
-6.9221 -9.4888 -2.4827 0.9531
-6.5750 -9.7325 -2.4827 0.9531
-6.2193 -9.9636 -2.4827 0.9531
-5.8555 -10.1816 -2.4827 0.9531
-4.7203 -10.7551 -2.4827 0.9531
-1.8805 -11.5938 -2.4827 0.9531
-0.1802 -11.0262 -2.3310 0.9559
0.6162 -11.0160 -2.3322 0.9559
1.4099 -10.9458 -2.3328 0.9559
1.8042 -10.8881 -2.3329 0.9559
2.1961 -10.8154 -2.3328 0.9559
2.5849 -10.7280 -2.3326 0.9559
2.9701 -10.6264 -2.3323 0.9559
3.3514 -10.5109 -2.3320 0.9559
4.0999 -10.2384 -2.3313 0.9559
4.4661 -10.0819 -2.3308 0.9559
-9.8885 3.7163 -2.4827 0.9575
-10.0162 3.3568 -2.4827 0.9575
-4.5947 0.6607 -1.0910 0.9811
-4.5656 0.4890 -1.0792 0.9813
-4.5693 0.1576 -1.0745 0.9814
-4.5725 -0.1727 -1.0754 0.9814
-10.4999 -1.1593 -2.4827 0.9575
-10.4512 -1.5377 -2.4827 0.9575
-10.3889 -1.9140 -2.4827 0.9575
-10.3130 -2.2879 -2.4827 0.9575
-10.1211 -3.0261 -2.4827 0.9575
-9.8763 -3.7485 -2.4827 0.9575
-9.5801 -4.4515 -2.4827 0.9575
-9.4131 -4.7944 -2.4827 0.9575
-8.8395 -5.7841 -2.4827 0.9575
-8.3991 -6.4069 -2.4827 0.9575
-8.1623 -6.7060 -2.4827 0.9575
-7.6571 -7.2775 -2.4827 0.9575
-6.5298 -8.3039 -2.4827 0.9575
-5.9135 -8.7534 -2.4827 0.9575
-5.2665 -9.1574 -2.4827 0.9575
-4.2455 -9.6731 -2.4827 0.9575
-3.8934 -9.8201 -2.4827 0.9575
-3.1747 -10.0754 -2.4827 0.9575
-2.8088 -10.1835 -2.4827 0.9575
-2.0667 -10.3596 -2.4827 0.9575
-0.5539 -10.5492 -2.4827 0.9575
0.2023 -10.2338 -2.4056 0.9588
0.9166 -9.9360 -2.3451 0.9598
1.9773 -9.7381 -2.3354 0.9600
3.0955 -9.7083 -2.3948 0.9590
3.4845 -9.7030 -2.4230 0.9585
-8.9759 3.3733 -2.4827 0.9612
-9.0918 3.0471 -2.4827 0.9612
-9.1959 2.7168 -2.4827 0.9612
-9.4358 1.7066 -2.4827 0.9612
-4.4103 0.6342 -1.1536 0.9818
-4.4135 0.4727 -1.1493 0.9818
-4.4201 0.1524 -1.1451 0.9819
-4.4217 -0.1670 -1.1457 0.9819
-4.4217 -0.3272 -1.1480 0.9818
-9.4302 -1.7374 -2.4827 0.9612
-9.3613 -2.0767 -2.4827 0.9612
-8.9649 -3.4026 -2.4827 0.9612
-8.6959 -4.0406 -2.4827 0.9612
-8.3817 -4.6576 -2.4827 0.9612
-8.2081 -4.9572 -2.4827 0.9612
-8.0237 -5.2503 -2.4827 0.9612
-7.8289 -5.5366 -2.4827 0.9612
-6.4556 -7.0902 -2.4827 0.9612
-6.1954 -7.3187 -2.4827 0.9612
-5.9272 -7.5375 -2.4827 0.9612
-5.6512 -7.7466 -2.4827 0.9612
-5.3678 -7.9456 -2.4827 0.9612
-4.7804 -8.3123 -2.4827 0.9612
-4.1681 -8.6355 -2.4827 0.9612
-3.8536 -8.7804 -2.4827 0.9612
-3.5341 -8.9138 -2.4827 0.9612
-3.2100 -9.0356 -2.4827 0.9612
-2.5496 -9.2437 -2.4827 0.9612
-1.8759 -9.4036 -2.4827 0.9612
-1.5352 -9.4652 -2.4827 0.9612
-0.5028 -9.5757 -2.4827 0.9612
0.5355 -9.5739 -2.4827 0.9612
0.8808 -9.5483 -2.4827 0.9612
1.2250 -9.5103 -2.4827 0.9612
1.9081 -9.3971 -2.4827 0.9612
2.2461 -9.3221 -2.4827 0.9612
2.9130 -9.1357 -2.4827 0.9612
3.2409 -9.0246 -2.4827 0.9612
-7.9654 3.6696 -2.4827 0.9642
-8.0927 3.3796 -2.4827 0.9642
-8.2094 3.0853 -2.4827 0.9642
-8.4106 2.4848 -2.4827 0.9642
-8.6300 1.5609 -2.4827 0.9642
-4.2783 0.1475 -1.2119 0.9824
-4.2788 -0.1616 -1.2122 0.9824
-4.2798 -0.4726 -1.2190 0.9823
-8.6766 -1.2766 -2.4827 0.9642
-8.6248 -1.5890 -2.4827 0.9642
-8.5619 -1.8994 -2.4827 0.9642
-8.4025 -2.5122 -2.4827 0.9642
-8.1993 -3.1120 -2.4827 0.9642
-7.9533 -3.6956 -2.4827 0.9642
-7.8147 -3.9803 -2.4827 0.9642
-7.6659 -4.2599 -2.4827 0.9642
-7.5071 -4.5339 -2.4827 0.9642
-7.3385 -4.8019 -2.4827 0.9642
-6.5709 -5.8081 -2.4827 0.9642
-6.3569 -6.0417 -2.4827 0.9642
-5.1686 -7.0851 -2.4827 0.9642
-4.9094 -7.2671 -2.4827 0.9642
-4.3722 -7.6024 -2.4827 0.9642
-4.0949 -7.7553 -2.4827 0.9642
-3.8122 -7.8981 -2.4827 0.9642
-2.6356 -8.3646 -2.4827 0.9642
-2.3319 -8.4543 -2.4827 0.9642
-1.4041 -8.6569 -2.4827 0.9642
-0.4598 -8.7579 -2.4827 0.9642
0.1733 -8.7683 -2.4827 0.9642
0.8056 -8.7329 -2.4827 0.9642
1.4337 -8.6520 -2.4827 0.9642
1.7451 -8.5946 -2.4827 0.9642
2.0543 -8.5260 -2.4827 0.9642
2.3608 -8.4463 -2.4827 0.9642
2.6642 -8.3556 -2.4827 0.9642
-7.5559 2.8396 -2.4827 0.9668
-7.6535 2.5650 -2.4827 0.9668
-7.7411 2.2870 -2.4827 0.9668
-4.3709 0.9547 -1.3761 0.9815
-4.2003 0.7597 -1.3129 0.9823
-4.1491 0.5966 -1.2893 0.9826
-4.1537 0.4449 -1.2849 0.9827
-4.1631 -0.0068 -1.2805 0.9827
-4.1623 -0.1572 -1.2811 0.9827
-4.1592 -0.3078 -1.2828 0.9827
-4.1552 -0.4588 -1.2858 0.9827
-7.8803 -1.7482 -2.4827 0.9668
-7.8120 -2.0315 -2.4827 0.9668
-7.7336 -2.3123 -2.4827 0.9668
-7.6450 -2.5900 -2.4827 0.9668
-7.5466 -2.8643 -2.4827 0.9668
-7.3202 -3.4014 -2.4827 0.9668
-7.1926 -3.6635 -2.4827 0.9668
-7.0557 -3.9207 -2.4827 0.9668
-6.9095 -4.1729 -2.4827 0.9668
-6.2369 -5.1241 -2.4827 0.9668
-5.8508 -5.5608 -2.4827 0.9668
-5.4343 -5.9685 -2.4827 0.9668
-5.2153 -6.1608 -2.4827 0.9668
-4.5186 -6.6885 -2.4827 0.9668
-4.0241 -6.9972 -2.4827 0.9668
-3.7689 -7.1379 -2.4827 0.9668
-3.5087 -7.2694 -2.4827 0.9668
-3.2440 -7.3913 -2.4827 0.9668
-2.1462 -7.7812 -2.4827 0.9668
-1.8639 -7.8537 -2.4827 0.9668
-1.5791 -7.9159 -2.4827 0.9668
-1.2923 -7.9677 -2.4827 0.9668
-1.0038 -8.0092 -2.4827 0.9668
0.4508 -8.0592 -2.4827 0.9668
0.7415 -8.0377 -2.4827 0.9668
1.0312 -8.0057 -2.4827 0.9668
1.6062 -7.9104 -2.4827 0.9668
2.4521 -7.6904 -2.4827 0.9668
2.7282 -7.5968 -2.4827 0.9668
-6.7837 3.1252 -2.4827 0.9690
-6.9915 2.6275 -2.4827 0.9690
-7.0818 2.3734 -2.4827 0.9690
-7.2346 1.8562 -2.4827 0.9690
-7.2969 1.5938 -2.4827 0.9690
-4.0423 0.4330 -1.3514 0.9830
-4.0520 0.1397 -1.3477 0.9831
-4.0531 -0.0066 -1.3473 0.9831
-4.0509 -0.1530 -1.3475 0.9831
-7.3894 -1.0872 -2.4827 0.9690
-7.3453 -1.3532 -2.4827 0.9690
-7.2917 -1.6176 -2.4827 0.9690
-7.2285 -1.8798 -2.4827 0.9690
-7.1560 -2.1395 -2.4827 0.9690
-7.0740 -2.3965 -2.4827 0.9690
-6.7735 -3.1473 -2.4827 0.9690
-6.5287 -3.6279 -2.4827 0.9690
-6.3934 -3.8613 -2.4827 0.9690
-5.9385 -4.5299 -2.4827 0.9690
-5.7710 -4.7414 -2.4827 0.9690
-5.4139 -5.1454 -2.4827 0.9690
-4.8258 -5.7006 -2.4827 0.9690
-4.6168 -5.8712 -2.4827 0.9690
-4.4018 -6.0340 -2.4827 0.9690
-4.1811 -6.1890 -2.4827 0.9690
-3.9549 -6.3359 -2.4827 0.9690
-3.7236 -6.4746 -2.4827 0.9690
-3.0017 -6.8392 -2.4827 0.9690
-2.7528 -6.9432 -2.4827 0.9690
-2.5003 -7.0380 -2.4827 0.9690
-1.7247 -7.2671 -2.4827 0.9690
-1.1958 -7.3726 -2.4827 0.9690
-0.1221 -7.4679 -2.4827 0.9690
0.1476 -7.4675 -2.4827 0.9690
0.4171 -7.4573 -2.4827 0.9690
0.6861 -7.4374 -2.4827 0.9690
0.9542 -7.4078 -2.4827 0.9690
1.7495 -7.2612 -2.4827 0.9690
2.0106 -7.1932 -2.4827 0.9690
2.5244 -7.0294 -2.4827 0.9690
3.0251 -6.8289 -2.4827 0.9690
-6.4064 2.6754 -2.4827 0.9709
-6.4988 2.4424 -2.4827 0.9709
-3.9351 0.4215 -1.4153 0.9833
-3.9460 0.1361 -1.4119 0.9834
-3.9461 -0.0065 -1.4112 0.9834
-3.9437 -0.1489 -1.4113 0.9834
-3.9395 -0.2915 -1.4126 0.9834
-3.9298 -0.4339 -1.4139 0.9833
-3.9936 -0.5876 -1.4435 0.9830
-6.8277 -1.2579 -2.4827 0.9709
-6.7778 -1.5036 -2.4827 0.9709
-6.7191 -1.7473 -2.4827 0.9709
-6.6517 -1.9888 -2.4827 0.9709
-6.5755 -2.2276 -2.4827 0.9709
-6.4908 -2.4636 -2.4827 0.9709
-6.3976 -2.6963 -2.4827 0.9709
-6.1864 -3.1509 -2.4827 0.9709
-6.0686 -3.3723 -2.4827 0.9709
-5.9429 -3.5891 -2.4827 0.9709
-5.8094 -3.8014 -2.4827 0.9709
-5.6684 -4.0087 -2.4827 0.9709
-5.5200 -4.2107 -2.4827 0.9709
-5.3643 -4.4072 -2.4827 0.9709
-4.8564 -4.9614 -2.4827 0.9709
-4.6741 -5.1335 -2.4827 0.9709
-3.8864 -5.7529 -2.4827 0.9709
-3.6762 -5.8894 -2.4827 0.9709
-3.0179 -6.2524 -2.4827 0.9709
-2.7902 -6.3573 -2.4827 0.9709
-2.0864 -6.6217 -2.4827 0.9709
-1.8460 -6.6927 -2.4827 0.9709
-1.3582 -6.8084 -2.4827 0.9709
-0.8634 -6.8887 -2.4827 0.9709
-0.6141 -6.9154 -2.4827 0.9709
-0.3640 -6.9330 -2.4827 0.9709
0.1372 -6.9413 -2.4827 0.9709
0.3877 -6.9318 -2.4827 0.9709
0.8869 -6.8857 -2.4827 0.9709
1.3815 -6.8038 -2.4827 0.9709
1.8689 -6.6863 -2.4827 0.9709
2.1091 -6.6145 -2.4827 0.9709
2.3465 -6.5341 -2.4827 0.9709
2.5809 -6.4451 -2.4827 0.9709
2.8119 -6.3477 -2.4827 0.9709
-6.0645 2.2792 -2.4827 0.9726
-6.1428 2.0587 -2.4827 0.9726
-3.7596 0.6799 -1.4641 0.9838
-3.7755 0.5429 -1.4617 0.9838
-3.8021 0.1311 -1.4579 0.9838
-3.8029 -0.0062 -1.4573 0.9838
-3.7908 -0.2805 -1.4567 0.9838
-3.7841 -0.4178 -1.4589 0.9838
-6.3249 -1.4031 -2.4827 0.9726
-5.9701 -2.5161 -2.4827 0.9726
-5.8753 -2.7297 -2.4827 0.9726
-5.6630 -3.1468 -2.4827 0.9726
-5.5457 -3.3493 -2.4827 0.9726
-5.4212 -3.5473 -2.4827 0.9726
-5.2896 -3.7408 -2.4827 0.9726
-4.6960 -4.4632 -2.4827 0.9726
-3.6267 -5.3683 -2.4827 0.9726
-3.4305 -5.4958 -2.4827 0.9726
-3.0250 -5.7290 -2.4827 0.9726
-2.8162 -5.8345 -2.4827 0.9726
-2.6037 -5.9324 -2.4827 0.9726
-2.3878 -6.0226 -2.4827 0.9726
-1.4960 -6.3035 -2.4827 0.9726
-1.0372 -6.3951 -2.4827 0.9726
-0.8057 -6.4283 -2.4827 0.9726
-0.3397 -6.4697 -2.4827 0.9726
-0.1059 -6.4777 -2.4827 0.9726
0.1281 -6.4773 -2.4827 0.9726
0.3618 -6.4685 -2.4827 0.9726
0.8277 -6.4256 -2.4827 0.9726
1.2892 -6.3490 -2.4827 0.9726
1.5176 -6.2983 -2.4827 0.9726
1.9681 -6.1724 -2.4827 0.9726
2.1897 -6.0974 -2.4827 0.9726
2.4084 -6.0143 -2.4827 0.9726
2.6240 -5.9235 -2.4827 0.9726
-5.7517 1.9276 -2.4827 0.9741
-5.8176 1.7187 -2.4827 0.9741
-3.6927 0.8065 -1.5469 0.9838
-3.6227 0.6552 -1.5067 0.9842
-3.6319 0.5222 -1.5017 0.9843
-3.6427 0.3902 -1.4994 0.9843
-3.6519 0.2582 -1.4984 0.9843
-3.6566 0.1261 -1.4975 0.9843
-3.6552 -0.1380 -1.4970 0.9843
-3.6480 -0.2699 -1.4971 0.9843
-3.6465 -0.4026 -1.5015 0.9843
-5.9658 -1.0991 -2.4827 0.9741
-5.9222 -1.3138 -2.4827 0.9741
-5.8119 -1.7377 -2.4827 0.9741
-5.5900 -2.3559 -2.4827 0.9741
-5.4054 -2.7531 -2.4827 0.9741
-5.0760 -3.3215 -2.4827 0.9741
-4.8231 -3.6791 -2.4827 0.9741
-4.0840 -4.4854 -2.4827 0.9741
-3.5751 -4.9007 -2.4827 0.9741
-3.3958 -5.0266 -2.4827 0.9741
-3.2121 -5.1459 -2.4827 0.9741
-2.8324 -5.3643 -2.4827 0.9741
-2.4379 -5.5547 -2.4827 0.9741
-2.2358 -5.6391 -2.4827 0.9741
-1.6130 -5.8478 -2.4827 0.9741
-0.7544 -6.0191 -2.4827 0.9741
-0.3181 -6.0578 -2.4827 0.9741
-0.0992 -6.0654 -2.4827 0.9741
0.1199 -6.0650 -2.4827 0.9741
0.9917 -5.9845 -2.4827 0.9741
1.2071 -5.9448 -2.4827 0.9741
1.4209 -5.8974 -2.4827 0.9741
1.8428 -5.7795 -2.4827 0.9741
2.4569 -5.5463 -2.4827 0.9741
-5.1740 2.3836 -2.4827 0.9754
-5.2567 2.1953 -2.4827 0.9754
-5.4014 1.8103 -2.4827 0.9754
-5.4633 1.6141 -2.4827 0.9754
-3.5305 0.7711 -1.5749 0.9844
-3.4894 0.6311 -1.5454 0.9846
-3.5149 0.2485 -1.5357 0.9847
-3.5207 -0.0058 -1.5344 0.9848
-3.5108 -0.3877 -1.5394 0.9847
-3.5245 -0.5186 -1.5526 0.9846
-5.5615 -1.2337 -2.4827 0.9754
-5.5133 -1.4337 -2.4827 0.9754
-5.3954 -1.8274 -2.4827 0.9755
-5.0762 -2.5855 -2.4827 0.9754
-4.6512 -3.2892 -2.4827 0.9754
-4.5294 -3.4550 -2.4827 0.9754
-4.2682 -3.7729 -2.4827 0.9754
-3.9849 -4.0711 -2.4827 0.9754
-3.8353 -4.2123 -2.4827 0.9754
-3.6807 -4.3480 -2.4827 0.9754
-3.5213 -4.4780 -2.4827 0.9754
-3.3573 -4.6023 -2.4827 0.9754
-3.1890 -4.7205 -2.4827 0.9754
-3.0165 -4.8325 -2.4827 0.9754
-1.5147 -5.4917 -2.4827 0.9754
-0.9121 -5.6232 -2.4827 0.9754
-0.7084 -5.6525 -2.4827 0.9754
-0.5039 -5.6744 -2.4827 0.9754
-0.0931 -5.6960 -2.4827 0.9754
0.3182 -5.6878 -2.4827 0.9754
0.5233 -5.6726 -2.4827 0.9754
0.7278 -5.6500 -2.4827 0.9754
1.5335 -5.4864 -2.4827 0.9754
1.7306 -5.4275 -2.4827 0.9754
2.1177 -5.2884 -2.4827 0.9754
2.3073 -5.2086 -2.4827 0.9754
-4.8715 2.2443 -2.4827 0.9766
-4.9493 2.0669 -2.4827 0.9766
-5.0856 1.7044 -2.4827 0.9766
-5.1438 1.5196 -2.4827 0.9766
-5.1953 1.3330 -2.4827 0.9766
-3.4454 0.7525 -1.6324 0.9846
-3.3830 0.6119 -1.5913 0.9850
-3.3933 0.1170 -1.5716 0.9851
-3.3962 -0.3750 -1.5816 0.9851
-3.4241 -0.5038 -1.6020 0.9849
-5.2748 -0.9718 -2.4827 0.9766
-5.1388 -1.5365 -2.4827 0.9766
-5.0146 -1.9033 -2.4827 0.9766
-4.8641 -2.2601 -2.4827 0.9766
-4.6884 -2.6052 -2.4827 0.9766
-4.4881 -2.9368 -2.4827 0.9766
-3.8878 -3.6950 -2.4827 0.9766
-3.6110 -3.9659 -2.4827 0.9766
-3.4655 -4.0937 -2.4827 0.9766
-3.3154 -4.2162 -2.4827 0.9766
-3.1610 -4.3331 -2.4827 0.9766
-3.0025 -4.4444 -2.4827 0.9766
-2.5044 -4.7430 -2.4827 0.9766
-2.3315 -4.8304 -2.4827 0.9766
-2.1556 -4.9114 -2.4827 0.9766
-1.9768 -4.9860 -2.4827 0.9766
-1.7955 -5.0541 -2.4827 0.9766
-1.0493 -5.2599 -2.4827 0.9766
-0.8587 -5.2944 -2.4827 0.9766
0.1060 -5.3625 -2.4827 0.9766
0.4927 -5.3409 -2.4827 0.9766
0.8768 -5.2914 -2.4827 0.9766
1.0673 -5.2564 -2.4827 0.9766
1.6294 -5.1101 -2.4827 0.9766
1.8128 -5.0479 -2.4827 0.9766
2.1724 -4.9040 -2.4827 0.9766
-4.6705 1.9505 -2.4827 0.9777
-4.7378 1.7806 -2.4827 0.9777
-4.7990 1.6084 -2.4827 0.9777
-4.8540 1.4340 -2.4827 0.9777
-3.2880 0.4728 -1.6294 0.9853
-3.2842 0.2322 -1.6150 0.9854
-3.2879 -0.0054 -1.6128 0.9855
-3.2916 -0.1243 -1.6158 0.9854
-3.3509 -0.4930 -1.6614 0.9850
-4.9413 -1.0962 -2.4827 0.9777
-4.7320 -1.7960 -2.4827 0.9777
-4.3325 -2.6166 -2.4827 0.9777
-4.1324 -2.9224 -2.4827 0.9777
-4.0242 -3.0697 -2.4827 0.9777
-3.9108 -3.2130 -2.4827 0.9777
-3.7922 -3.3521 -2.4827 0.9777
-3.6687 -3.4868 -2.4827 0.9777
-3.4075 -3.7425 -2.4827 0.9777
-3.2702 -3.8631 -2.4827 0.9777
-2.9829 -4.0890 -2.4827 0.9777
-2.5233 -4.3875 -2.4827 0.9777
-2.3632 -4.4758 -2.4827 0.9777
-2.2001 -4.5582 -2.4827 0.9777
-1.8655 -4.7050 -2.4827 0.9777
-1.5211 -4.8274 -2.4827 0.9777
-1.3458 -4.8792 -2.4827 0.9777
-1.1688 -4.9246 -2.4827 0.9777
-0.9902 -4.9636 -2.4827 0.9777
0.1000 -5.0604 -2.4827 0.9777
0.8274 -4.9933 -2.4827 0.9777
1.0072 -4.9602 -2.4827 0.9777
1.1856 -4.9206 -2.4827 0.9777
1.7107 -4.7635 -2.4827 0.9777
1.8815 -4.6987 -2.4827 0.9777
-4.3466 2.0025 -2.4827 0.9787
-4.4161 1.8442 -2.4827 0.9787
-4.5377 1.5207 -2.4827 0.9787
-4.5896 1.3559 -2.4827 0.9787
-3.5597 0.9133 -1.9065 0.9836
-3.3386 0.7292 -1.7728 0.9847
-3.2616 0.4690 -1.7095 0.9853
-3.2598 0.3491 -1.7008 0.9853
-3.2649 -0.2416 -1.6984 0.9854
-3.2912 -0.3634 -1.7178 0.9852
-3.3334 -0.4905 -1.7479 0.9849
-4.6317 -1.2045 -2.4827 0.9787
-4.4743 -1.6982 -2.4827 0.9787
-4.3401 -2.0166 -2.4827 0.9787
-4.2644 -2.1720 -2.4827 0.9787
-4.1832 -2.3246 -2.4827 0.9787
-4.0966 -2.4741 -2.4827 0.9787
-4.0046 -2.6204 -2.4827 0.9787
-3.9074 -2.7633 -2.4827 0.9787
-3.8050 -2.9025 -2.4827 0.9787
-3.6978 -3.0380 -2.4827 0.9787
-3.5857 -3.1695 -2.4827 0.9787
-3.4689 -3.2969 -2.4827 0.9787
-2.9582 -3.7619 -2.4827 0.9787
-2.8204 -3.8663 -2.4827 0.9787
-2.6790 -3.9656 -2.4827 0.9787
-2.3859 -4.1486 -2.4827 0.9787
-2.2345 -4.2320 -2.4827 0.9787
-1.9233 -4.3822 -2.4827 0.9787
-1.7639 -4.4488 -2.4827 0.9787
-1.6021 -4.5096 -2.4827 0.9787
-1.2725 -4.6134 -2.4827 0.9787
-1.1051 -4.6564 -2.4827 0.9787
-0.9363 -4.6932 -2.4827 0.9787
-0.5951 -4.7485 -2.4827 0.9787
-0.2509 -4.7791 -2.4827 0.9787
-0.0782 -4.7850 -2.4827 0.9787
0.0946 -4.7847 -2.4827 0.9787
0.2673 -4.7782 -2.4827 0.9787
0.4396 -4.7654 -2.4827 0.9787
0.9523 -4.6900 -2.4827 0.9787
1.1210 -4.6525 -2.4827 0.9787
1.2883 -4.6090 -2.4827 0.9787
1.4538 -4.5596 -2.4827 0.9787
1.9383 -4.3756 -2.4827 0.9787
-4.1171 1.8967 -2.4827 0.9795
-3.4915 0.8958 -1.9742 0.9837
-3.3257 0.7264 -1.8644 0.9846
-3.2384 0.4656 -1.7919 0.9852
-3.2302 0.3460 -1.7793 0.9853
-3.2255 0.2281 -1.7710 0.9854
-3.2200 0.1111 -1.7647 0.9854
-3.2264 -0.0053 -1.7671 0.9854
-3.2383 -0.2396 -1.7785 0.9853
-3.2759 -0.3617 -1.8051 0.9851
-3.3197 -0.4884 -1.8378 0.9848
-4.4254 -0.9817 -2.4827 0.9795
-4.3871 -1.1408 -2.4827 0.9795
-4.2380 -1.6085 -2.4827 0.9795
-4.1771 -1.7604 -2.4827 0.9795
-4.1109 -1.9101 -2.4827 0.9795
-3.9623 -2.2018 -2.4827 0.9795
-3.8802 -2.3434 -2.4827 0.9795
-3.7931 -2.4820 -2.4827 0.9795
-3.7010 -2.6173 -2.4827 0.9795
-3.6041 -2.7492 -2.4827 0.9795
-3.5025 -2.8776 -2.4827 0.9795
-3.3963 -3.0021 -2.4827 0.9795
-3.2857 -3.1228 -2.4827 0.9795
-3.0518 -3.3518 -2.4827 0.9795
-2.9288 -3.4598 -2.4827 0.9795
-2.6715 -3.6621 -2.4827 0.9795
-2.2599 -3.9295 -2.4827 0.9795
-2.1165 -4.0085 -2.4827 0.9795
-1.9704 -4.0823 -2.4827 0.9795
-1.6707 -4.2138 -2.4827 0.9795
-1.5175 -4.2714 -2.4827 0.9795
-1.0467 -4.4105 -2.4827 0.9795
-0.8868 -4.4454 -2.4827 0.9795
-0.5637 -4.4978 -2.4827 0.9795
-0.4010 -4.5152 -2.4827 0.9795
-0.2377 -4.5268 -2.4827 0.9795
-0.0741 -4.5324 -2.4827 0.9795
0.0896 -4.5321 -2.4827 0.9795
0.2532 -4.5259 -2.4827 0.9795
0.4164 -4.5138 -2.4827 0.9795
0.5791 -4.4958 -2.4827 0.9795
0.9020 -4.4423 -2.4827 0.9795
1.0618 -4.4069 -2.4827 0.9795
1.5321 -4.2662 -2.4827 0.9795
1.8359 -4.1445 -2.4827 0.9795
-3.9057 1.7993 -2.4827 0.9803
-4.0253 1.5128 -2.4827 0.9803
-4.0773 1.3665 -2.4827 0.9803
-4.1240 1.2184 -2.4827 0.9803
-3.4452 0.8839 -2.0535 0.9837
-3.3126 0.7235 -1.9576 0.9845
-3.2152 -0.0053 -1.8563 0.9853
-3.2319 -0.2391 -1.8710 0.9851
-3.2641 -0.3604 -1.8960 0.9849
-3.3819 -0.6231 -1.9854 0.9842
-4.1981 -0.9313 -2.4827 0.9803
-4.1618 -1.0823 -2.4827 0.9803
-4.0728 -1.3798 -2.4827 0.9803
-4.0204 -1.5259 -2.4827 0.9803
-3.9627 -1.6701 -2.4827 0.9803
-3.8318 -1.9517 -2.4827 0.9803
-3.6810 -2.2231 -2.4827 0.9803
-3.0080 -3.0731 -2.4827 0.9803
-2.7784 -3.2821 -2.4827 0.9803
-2.5343 -3.4741 -2.4827 0.9803
-2.1438 -3.7277 -2.4827 0.9803
-1.4396 -4.0521 -2.4827 0.9803
-1.2923 -4.1014 -2.4827 0.9803
-1.1434 -4.1454 -2.4827 0.9803
-0.8413 -4.2171 -2.4827 0.9803
-0.5348 -4.2668 -2.4827 0.9803
-0.2255 -4.2943 -2.4827 0.9803
-0.0703 -4.2996 -2.4827 0.9803
0.2402 -4.2935 -2.4827 0.9803
0.7030 -4.2423 -2.4827 0.9803
0.8557 -4.2142 -2.4827 0.9803
1.1576 -4.1415 -2.4827 0.9803
1.3063 -4.0970 -2.4827 0.9803
1.4534 -4.0472 -2.4827 0.9803
1.5986 -3.9920 -2.4827 0.9803
1.7417 -3.9317 -2.4827 0.9803
