ply
format ascii 1.0
element vertex 1074
property float32 x
property float32 y
property float32 z
property float32 I
end_header
1.1678 9.2054 1.6362 0.9630
-28.5587 23.6129 6.5340 0.8603
-20.3309 8.6780 3.8978 0.9141
-42.1246 16.2172 7.9591 0.8325
-42.1967 12.8511 7.7778 0.8360
-42.2317 11.2208 7.7049 0.8374
-28.7807 -11.7325 5.4803 0.8814
-27.9053 -12.5629 5.3961 0.8831
-27.6355 -13.6559 5.4354 0.8823
-27.4905 -14.8360 5.5082 0.8808
-27.4641 -20.3890 6.0313 0.8703
-41.9249 25.5405 7.5206 0.8198
-32.2526 13.7666 5.3722 0.8677
-32.2816 12.4278 5.2992 0.8694
-32.3099 11.1233 5.2348 0.8709
-33.7595 10.2816 5.4063 0.8669
-42.2317 11.2208 6.6941 0.8379
-47.0822 10.7147 7.3971 0.8225
-35.5293 -11.5859 5.7250 0.8597
-31.5355 -11.5526 5.1450 0.8729
-27.6355 -13.6559 4.7223 0.8827
-27.4905 -14.8360 4.7856 0.8813
-27.4198 -16.0958 4.8708 0.8793
-27.4724 -17.4832 4.9886 0.8765
-27.4648 -20.3896 5.2402 0.8707
-27.4780 -21.9736 5.3899 0.8673
-27.4763 -23.6395 5.5527 0.8636
1.1679 9.2054 1.2083 0.9633
-32.0212 24.5937 5.2578 0.8497
-32.3786 16.6632 4.7420 0.8634
-32.4092 15.2321 4.6632 0.8655
-32.4389 13.8461 4.5929 0.8674
-32.4959 11.1873 4.4754 0.8705
-30.7000 -5.3171 4.0573 0.8819
-30.7107 -6.4631 4.0868 0.8811
-31.5355 -11.5526 4.3735 0.8733
-27.4905 -14.8360 4.0679 0.8816
-27.4724 -17.4832 4.2405 0.8769
-27.4685 -18.9005 4.3419 0.8742
-27.4655 -20.3901 4.4544 0.8711
-27.4753 -23.6387 4.7198 0.8640
1.1678 9.2054 0.9964 0.9634
-32.0788 30.6575 4.7648 0.8365
-32.2056 24.7354 4.3606 0.8493
-34.5605 24.6219 4.5567 0.8431
-37.5611 24.7749 4.8317 0.8344
-40.7814 24.8439 5.1278 0.8252
-32.4092 15.2321 3.8454 0.8658
-32.4389 13.8461 3.7874 0.8677
-32.4959 11.1873 3.6905 0.8709
-34.1556 10.4022 3.8340 0.8662
-47.2149 10.7449 5.1997 0.8230
-46.5128 -11.5482 5.1463 0.8246
-35.5229 -11.5838 4.0122 0.8604
-28.7807 -11.7325 3.3375 0.8825
-27.9053 -12.5629 3.2862 0.8842
-27.6355 -13.6559 3.3101 0.8834
-27.4691 -18.9009 3.5805 0.8745
1.1678 9.2054 0.7855 0.9634
-32.1236 28.5643 3.6389 0.8415
-34.5605 24.6219 3.5922 0.8434
-32.4092 15.2321 3.0314 0.8661
-32.4678 12.4995 2.9451 0.8697
-32.4959 11.1873 2.9093 0.8711
-34.0388 10.3666 3.0121 0.8669
-39.8465 10.5870 3.4901 0.8475
-46.6944 10.6264 4.0539 0.8251
-46.5058 -11.5464 4.0564 0.8250
-35.5197 -11.5828 3.1627 0.8607
-31.5355 -11.5526 2.8431 0.8739
-28.7807 -11.7325 2.6310 0.8827
-27.4905 -14.8360 2.6444 0.8821
-27.4198 -16.0958 2.6915 0.8802
-27.4753 -21.9714 2.9781 0.8683
-32.1236 28.5643 2.6656 0.8417
-28.5472 23.6034 2.2969 0.8620
-32.2056 24.7354 2.5181 0.8498
-34.3779 10.4699 2.2284 0.8659
-39.8465 10.5870 2.5566 0.8477
-42.3197 9.6309 2.6913 0.8403
-46.4988 -11.5447 2.9709 0.8253
-40.3369 -11.5680 2.6021 0.8452
-31.5355 -11.5526 2.0826 0.8741
-27.4676 -20.3916 2.1213 0.8719
-27.4744 -21.9707 2.1815 0.8685
1.1678 9.2054 0.3659 0.9635
-31.9881 32.8493 1.8079 0.8323
-32.1236 28.5643 1.6950 0.8419
-28.5446 23.6013 1.4604 0.8622
-37.5611 24.7749 1.7742 0.8352
-40.7814 24.8439 1.8829 0.8260
-32.4092 15.2321 1.4120 0.8664
-32.4389 13.8461 1.3907 0.8683
-32.4142 12.4789 1.3696 0.8702
-31.7546 9.6709 1.3089 0.8756
-31.7960 8.4480 1.2972 0.8766
-46.4918 -11.5430 1.8889 0.8255
-31.5355 -11.5526 1.3243 0.8742
-28.7807 -11.7325 1.2255 0.8830
-27.9053 -12.5629 1.2067 0.8847
-27.4905 -14.8360 1.2318 0.8825
-27.4198 -16.0958 1.2537 0.8805
-27.4724 -17.4832 1.2840 0.8778
-27.4712 -18.9023 1.3149 0.8750
-27.4735 -21.9700 1.3871 0.8686
-27.4716 -23.6355 1.4290 0.8650
-0.6801 12.7080 0.2150 0.9504
-30.4501 33.6051 0.7660 0.8341
-32.0788 30.6575 0.7495 0.8373
-32.2056 24.7354 0.6859 0.8501
-34.5605 24.6219 0.7168 0.8439
-37.5611 24.7749 0.7601 0.8353
-32.4092 15.2321 0.6049 0.8665
-32.4389 13.8461 0.5958 0.8684
-32.5562 12.5335 0.5893 0.8697
-30.6305 9.3286 0.5409 0.8798
-32.5785 8.6560 0.5694 0.8738
-42.2643 9.6183 0.7322 0.8408
-40.3347 -11.5674 0.7088 0.8455
-31.5355 -11.5526 0.5673 0.8743
-27.9053 -12.5629 0.5169 0.8848
-27.6355 -13.6559 0.5207 0.8840
-27.4690 -20.3927 0.5779 0.8721
-27.4726 -21.9693 0.5942 0.8687
-27.4707 -23.6347 0.6121 0.8650
1.1678 9.2054 -0.0522 0.9636
-1.1444 12.7668 -0.0722 0.9500
-2.0798 12.7847 -0.0729 0.9495
-32.6937 33.5739 -0.2638 0.8291
-32.0788 30.6576 -0.2498 0.8374
-28.5396 23.5971 -0.2085 0.8623
-32.2056 24.7354 -0.2286 0.8501
-37.5611 24.7749 -0.2533 0.8353
-41.9881 23.5538 -0.2711 0.8248
-32.4092 15.2321 -0.2016 0.8665
-32.4678 12.4995 -0.1959 0.8701
-32.4959 11.1873 -0.1935 0.8716
-34.3779 10.4699 -0.2023 0.8661
-32.5785 8.6560 -0.1898 0.8739
-38.6579 8.7975 -0.2232 0.8533
-47.8791 7.3292 -0.2727 0.8239
-48.6669 2.1477 -0.2743 0.8229
-48.6682 0.3976 -0.2740 0.8231
-48.6677 -1.3515 -0.2741 0.8230
-48.6473 -8.4254 -0.2780 0.8208
-47.8531 -10.0708 -0.2753 0.8223
-35.5072 -11.5787 -0.2103 0.8612
-28.7807 -11.7325 -0.1750 0.8831
-27.4905 -14.8360 -0.1759 0.8825
-27.4724 -17.4832 -0.1833 0.8779
-27.4697 -20.3932 -0.1926 0.8721
-0.6826 12.7547 -0.3597 0.9502
-1.1481 12.8082 -0.3621 0.9498
-1.6150 12.8182 -0.3638 0.9496
-2.0798 12.7847 -0.3647 0.9495
-30.3192 33.4606 -1.2714 0.8347
-31.7674 32.6227 -1.2822 0.8334
-37.5611 24.7749 -1.2670 0.8352
-40.7814 24.8439 -1.3446 0.8261
-41.9850 23.5521 -1.3555 0.8248
-32.4092 15.2321 -1.0083 0.8665
-32.4389 13.8461 -0.9931 0.8684
-32.4678 12.4995 -0.9796 0.8700
-32.4959 11.1873 -0.9677 0.8715
-32.5395 9.9100 -0.9578 0.8727
-38.3866 8.7358 -1.1085 0.8542
-42.0282 7.9884 -1.2046 0.8427
-43.0313 1.8990 -1.2128 0.8417
-43.0379 0.3516 -1.2119 0.8418
-43.0354 -1.1951 -1.2122 0.8417
-43.0239 -2.7442 -1.2139 0.8415
-42.9734 -5.8614 -1.2212 0.8407
-42.9341 -7.4359 -1.2269 0.8400
-42.8852 -9.0253 -1.2340 0.8391
-31.5355 -11.5526 -0.9457 0.8742
-28.7807 -11.7325 -0.8752 0.8831
-27.4905 -14.8360 -0.8796 0.8825
-27.4198 -16.0958 -0.8953 0.8805
-27.4724 -17.4832 -0.9169 0.8778
-27.4732 -18.9037 -0.9390 0.8751
-27.4704 -20.3937 -0.9634 0.8721
-27.4688 -23.6331 -1.0203 0.8650
13.8080 43.7293 -2.3256 0.8322
9.0268 44.9794 -2.3266 0.8322
7.4061 45.2804 -2.3269 0.8321
4.1367 45.7061 -2.3274 0.8321
2.4923 45.8302 -2.3277 0.8321
0.8443 45.8936 -2.3279 0.8321
-0.8033 45.8008 -2.3231 0.8324
-0.6826 12.7547 -0.6478 0.9501
-1.1481 12.8082 -0.6522 0.9498
-1.6150 12.8182 -0.6552 0.9496
-2.0798 12.7847 -0.6569 0.9494
-9.5636 47.8669 -2.4755 0.8224
-12.9759 47.0566 -2.4755 0.8224
-16.3212 46.0035 -2.4755 0.8224
-19.5822 44.7128 -2.4755 0.8224
-25.7848 41.4470 -2.4755 0.8224
-27.7434 35.4301 -2.2821 0.8351
-29.0971 32.1119 -2.1976 0.8407
-30.2320 31.0459 -2.1976 0.8407
-34.6889 24.7133 -2.1600 0.8432
-36.1736 23.8597 -2.1976 0.8407
-37.0074 22.5448 -2.1976 0.8407
-37.7935 21.2008 -2.1976 0.8407
-32.3786 16.6632 -1.8467 0.8643
-32.4092 15.2321 -1.8161 0.8664
-36.0787 6.8576 -1.8625 0.8632
-37.3639 -1.0376 -1.8956 0.8610
-37.3064 -3.7291 -1.9014 0.8606
-37.1832 -6.4399 -1.9138 0.8597
-35.7888 -10.2637 -1.8882 0.8615
-35.5009 -11.5767 -1.8937 0.8611
-31.5355 -11.5526 -1.7032 0.8741
-27.9053 -12.5629 -1.5520 0.8846
-27.6355 -13.6559 -1.5633 0.8839
-27.4905 -14.8360 -1.5842 0.8824
-27.4198 -16.0958 -1.6125 0.8804
-27.4739 -18.9042 -1.6913 0.8750
-27.4699 -21.9671 -1.7838 0.8686
9.5401 30.2129 -2.3231 0.8807
8.4494 30.5391 -2.3233 0.8807
6.2359 31.0728 -2.3237 0.8806
1.1678 9.2054 -0.6804 0.9635
2.8574 31.5713 -2.3243 0.8806
1.7215 31.6559 -2.3245 0.8806
0.5832 31.6996 -2.3247 0.8806
-6.6148 33.1078 -2.4755 0.8734
-12.4246 31.3929 -2.4755 0.8734
-13.5443 30.9262 -2.4755 0.8734
-16.7930 29.2895 -2.4755 0.8734
-19.8467 27.3127 -2.4755 0.8734
-20.8151 26.5822 -2.4755 0.8734
-22.6701 25.0190 -2.4755 0.8734
-25.8008 21.3328 -2.4547 0.8744
-25.8086 19.8223 -2.3861 0.8776
-26.4485 17.4451 -2.3231 0.8807
-27.8975 14.3571 -2.3005 0.8818
-27.9154 11.9153 -2.2255 0.8854
-27.9712 10.7684 -2.1976 0.8867
-28.3400 9.7566 -2.1976 0.8867
-29.8364 7.9274 -2.2636 0.8835
-29.9000 6.8045 -2.2484 0.8843
-31.2886 5.9471 -2.3352 0.8801
-31.3606 4.8006 -2.3262 0.8805
-31.4507 3.6637 -2.3216 0.8807
-31.5166 2.5278 -2.3183 0.8809
-31.5758 0.2580 -2.3153 0.8810
-31.5692 -0.8767 -2.3156 0.8810
-31.5385 -2.0115 -2.3172 0.8810
-31.4837 -3.1471 -2.3200 0.8808
-31.4046 -4.2835 -2.3240 0.8806
-31.1745 -6.5607 -2.3358 0.8801
-31.0520 -7.7095 -2.3459 0.8796
-29.8362 -9.7294 -2.3010 0.8817
-29.2466 -10.7141 -2.2838 0.8826
-28.7807 -11.7326 -2.2789 0.8828
-27.9053 -12.5629 -2.2439 0.8845
-27.6355 -13.6559 -2.2602 0.8837
-27.3238 -16.0395 -2.3231 0.8807
-26.7299 -17.0106 -2.3231 0.8807
7.2917 23.0925 -2.3249 0.9073
5.6137 23.5520 -2.3244 0.9073
4.7636 23.7362 -2.3242 0.9073
2.1816 24.1050 -2.3237 0.9073
0.4452 24.1958 -2.3233 0.9073
-1.1481 12.8082 -1.2346 0.9496
-2.0798 12.7847 -1.2435 0.9493
-5.9570 25.0877 -2.4755 0.9016
-7.7430 24.5952 -2.4755 0.9016
-12.8254 22.3694 -2.4755 0.9016
-13.6207 21.8942 -2.4755 0.9016
-14.3984 21.3907 -2.4755 0.9016
-15.1576 20.8596 -2.4755 0.9016
-15.8972 20.3017 -2.4755 0.9016
-17.3139 19.1078 -2.4755 0.9016
-17.9892 18.4735 -2.4755 0.9016
-18.6412 17.8153 -2.4755 0.9016
-19.2691 17.1341 -2.4755 0.9016
-19.8723 16.4308 -2.4755 0.9016
-21.0007 14.9616 -2.4755 0.9016
-22.4885 12.6152 -2.4755 0.9016
-22.9272 11.7992 -2.4755 0.9016
-23.3363 10.9679 -2.4755 0.9016
-23.7152 10.1225 -2.4755 0.9016
-24.6676 7.5126 -2.4756 0.9016
-24.9218 6.6216 -2.4756 0.9016
-25.3337 4.8152 -2.4757 0.9016
-25.7660 1.1371 -2.4761 0.9016
-25.7909 0.2114 -2.4761 0.9015
-25.7826 -0.7161 -2.4762 0.9015
-25.7406 -1.6415 -2.4762 0.9015
-25.5540 -3.4855 -2.4760 0.9016
-25.4126 -4.4013 -2.4761 0.9016
-25.2385 -5.3114 -2.4761 0.9016
-25.0318 -6.2149 -2.4761 0.9015
-24.7927 -7.1101 -2.4762 0.9015
-24.2183 -8.8720 -2.4762 0.9015
-23.5184 -10.5879 -2.4761 0.9015
-22.2384 -13.0543 -2.4757 0.9016
-21.7537 -13.8439 -2.4755 0.9016
-21.2424 -14.6164 -2.4755 0.9016
-20.7036 -15.3701 -2.4755 0.9016
-20.1380 -16.1039 -2.4755 0.9016
-19.5465 -16.8170 -2.4755 0.9016
5.8961 18.6725 -2.3260 0.9242
3.8520 19.1941 -2.3255 0.9242
3.1598 19.3188 -2.3253 0.9242
1.1678 9.2054 -1.1022 0.9633
1.0628 19.5428 -2.3248 0.9242
-0.3430 19.5541 -2.3231 0.9242
-1.1481 12.8082 -1.5275 0.9495
-1.6150 12.8182 -1.5347 0.9493
-4.0831 20.4362 -2.4755 0.9195
-4.8146 20.2763 -2.4755 0.9195
-5.5399 20.0903 -2.4755 0.9195
-6.2581 19.8783 -2.4755 0.9195
-6.9681 19.6406 -2.4755 0.9195
-8.3604 19.0896 -2.4755 0.9195
-9.0408 18.7770 -2.4755 0.9195
-10.3657 18.0794 -2.4755 0.9195
-11.6371 17.2884 -2.4755 0.9195
-13.4296 15.9360 -2.4755 0.9195
-16.0611 13.2797 -2.4755 0.9195
-16.5278 12.6941 -2.4755 0.9195
-17.3966 11.4747 -2.4755 0.9195
-17.7976 10.8423 -2.4755 0.9195
-19.1673 8.1813 -2.4755 0.9195
-19.4491 7.4875 -2.4756 0.9195
-19.7057 6.7841 -2.4756 0.9195
-20.4751 3.8917 -2.4757 0.9195
-20.7020 2.4115 -2.4757 0.9195
-20.8344 -0.5786 -2.4758 0.9195
-20.8002 -1.3267 -2.4758 0.9195
-20.7391 -2.0730 -2.4758 0.9195
-20.6513 -2.8168 -2.4758 0.9195
-20.5368 -3.5569 -2.4758 0.9195
-20.2283 -5.0222 -2.4758 0.9195
-19.0048 -8.5559 -2.4757 0.9195
-18.6850 -9.2331 -2.4757 0.9195
-16.7334 -12.4227 -2.4756 0.9195
-16.2761 -13.0157 -2.4755 0.9195
4.9446 15.6592 -2.3267 0.9358
4.3786 15.8257 -2.3266 0.9358
3.8070 15.9717 -2.3264 0.9358
3.2305 16.0972 -2.3263 0.9358
1.1679 9.2054 -1.3148 0.9632
0.8911 16.3861 -2.3252 0.9359
-0.2875 16.3933 -2.3231 0.9359
-0.6826 12.7547 -1.8098 0.9497
-1.4639 16.3303 -2.3231 0.9359
-2.0496 16.2672 -2.3231 0.9359
-2.0798 12.7847 -1.8353 0.9490
-6.4295 16.2454 -2.4755 0.9318
-7.5794 15.7417 -2.4755 0.9318
-8.1400 15.4593 -2.4755 0.9318
-8.6901 15.1569 -2.4755 0.9318
-9.2290 14.8349 -2.4755 0.9318
-9.7560 14.4938 -2.4755 0.9318
-10.2704 14.1340 -2.4755 0.9318
-10.7715 13.7559 -2.4755 0.9318
-11.7314 12.9469 -2.4755 0.9318
-12.1890 12.5172 -2.4755 0.9318
-12.6308 12.0712 -2.4755 0.9318
-13.0563 11.6096 -2.4755 0.9318
-13.8562 10.6422 -2.4755 0.9318
-14.5846 9.6198 -2.4755 0.9318
-15.2376 8.5478 -2.4755 0.9318
-16.0688 6.8588 -2.4755 0.9318
-16.5198 5.6873 -2.4755 0.9318
-16.7135 5.0901 -2.4755 0.9318
-17.0358 3.8769 -2.4755 0.9318
-17.2702 2.6437 -2.4755 0.9318
-17.3541 2.0216 -2.4755 0.9318
-17.4155 1.3968 -2.4755 0.9318
-17.4708 0.1427 -2.4755 0.9318
-17.4647 -0.4850 -2.4755 0.9318
-17.3848 -1.7378 -2.4755 0.9318
-17.3111 -2.3612 -2.4755 0.9318
-16.7944 -4.8164 -2.4755 0.9318
-16.6106 -5.4166 -2.4755 0.9318
-16.4052 -6.0098 -2.4755 0.9318
-16.1788 -6.5953 -2.4755 0.9318
-15.3753 -8.2977 -2.4755 0.9318
-14.7398 -9.3802 -2.4755 0.9318
-13.6450 -10.9116 -2.4755 0.9318
3.2751 13.7405 -2.3270 0.9443
2.7792 13.8485 -2.3269 0.9443
2.2798 13.9387 -2.3268 0.9444
1.1679 9.2054 -1.5286 0.9631
1.2727 14.0621 -2.3261 0.9444
0.2594 14.0994 -2.3231 0.9444
-0.2473 14.0996 -2.3231 0.9444
-0.6826 12.7547 -2.1042 0.9495
-2.0798 12.7847 -2.1338 0.9488
-2.9441 14.7357 -2.4755 0.9409
-3.4716 14.6204 -2.4755 0.9409
-4.5124 14.3333 -2.4755 0.9409
-6.0283 13.7647 -2.4755 0.9409
-6.5189 13.5392 -2.4755 0.9409
-7.4742 13.0362 -2.4755 0.9409
-8.3910 12.4659 -2.4755 0.9409
-9.2644 11.8312 -2.4755 0.9409
-9.6835 11.4907 -2.4755 0.9409
-10.0900 11.1354 -2.4755 0.9409
-10.8635 10.3822 -2.4755 0.9409
-11.2295 9.9853 -2.4755 0.9409
-11.5810 9.5754 -2.4755 0.9409
-11.9175 9.1532 -2.4755 0.9409
-12.2386 8.7192 -2.4755 0.9409
-13.8205 5.8991 -2.4755 0.9409
-14.0235 5.3988 -2.4755 0.9409
-14.2084 4.8916 -2.4755 0.9409
-14.5230 3.8587 -2.4755 0.9409
-14.6522 3.3345 -2.4755 0.9409
-14.7626 2.8060 -2.4755 0.9409
-14.8538 2.2738 -2.4755 0.9409
-15.0211 -0.4171 -2.4755 0.9409
-14.9523 -1.4946 -2.4755 0.9409
-14.8890 -2.0308 -2.4755 0.9409
-14.4446 -4.1425 -2.4755 0.9409
-13.9151 -5.6725 -2.4755 0.9409
-13.2240 -7.1367 -2.4755 0.9409
-12.9591 -7.6072 -2.4755 0.9409
-12.0654 -8.9572 -2.4755 0.9409
-11.7361 -9.3849 -2.4755 0.9409
2.4363 12.1400 -2.3273 0.9509
1.1678 9.2054 -1.7441 0.9629
1.1147 12.3161 -2.3244 0.9509
0.2273 12.3575 -2.3231 0.9509
-0.2167 12.3577 -2.3231 0.9509
-0.6605 12.3419 -2.3231 0.9509
-1.5450 12.2626 -2.3231 0.9509
-1.9846 12.1992 -2.3231 0.9509
-3.9549 12.5625 -2.4755 0.9478
-5.2835 12.0642 -2.4755 0.9478
-5.7135 11.8665 -2.4755 0.9478
-6.1361 11.6536 -2.4755 0.9478
-6.5508 11.4256 -2.4755 0.9478
-6.9571 11.1829 -2.4755 0.9478
-7.7420 10.6545 -2.4755 0.9478
-8.1198 10.3695 -2.4755 0.9478
-8.8434 9.7597 -2.4755 0.9478
-9.5214 9.0996 -2.4755 0.9478
-9.8421 8.7516 -2.4755 0.9478
-10.1502 8.3924 -2.4755 0.9478
-10.4451 8.0224 -2.4755 0.9478
-10.7266 7.6419 -2.4755 0.9478
-10.9942 7.2517 -2.4755 0.9478
-11.9195 5.6021 -2.4755 0.9478
-12.1131 5.1703 -2.4755 0.9478
-12.4530 4.2872 -2.4755 0.9478
-12.5990 3.8371 -2.4755 0.9478
-5.2501 0.0429 -0.9868 0.9789
-5.2569 -0.1460 -0.9885 0.9788
-13.1051 -1.3100 -2.4755 0.9478
-13.0495 -1.7799 -2.4755 0.9478
-12.9772 -2.2475 -2.4755 0.9478
-12.7823 -3.1736 -2.4755 0.9478
-12.5214 -4.0832 -2.4755 0.9478
-12.0095 -5.4066 -2.4755 0.9478
-11.5902 -6.2550 -2.4755 0.9478
-11.3580 -6.6673 -2.4755 0.9478
-11.1112 -7.0710 -2.4755 0.9478
-10.8500 -7.4656 -2.4755 0.9478
-10.5748 -7.8506 -2.4755 0.9478
2.9366 10.6141 -2.3279 0.9560
1.7771 10.8650 -2.3272 0.9560
1.1678 9.2054 -1.9614 0.9628
0.9906 10.9455 -2.3231 0.9561
0.5968 10.9740 -2.3231 0.9561
0.2022 10.9884 -2.3231 0.9561
-0.1927 10.9885 -2.3231 0.9561
-1.3738 10.9040 -2.3231 0.9561
-1.7647 10.8476 -2.3231 0.9561
-3.5167 11.1707 -2.4755 0.9532
-3.9158 11.0371 -2.4755 0.9532
-4.3098 10.8894 -2.4755 0.9532
-5.0805 10.5518 -2.4755 0.9532
-5.8252 10.1598 -2.4755 0.9532
-6.1863 9.9439 -2.4755 0.9532
-6.5395 9.7153 -2.4755 0.9532
-6.8843 9.4741 -2.4755 0.9532
-7.2202 9.2207 -2.4755 0.9532
-7.5468 8.9553 -2.4755 0.9532
-7.8637 8.6784 -2.4755 0.9532
-8.1704 8.3903 -2.4755 0.9532
-8.4665 8.0914 -2.4755 0.9532
-9.0256 7.4626 -2.4755 0.9532
-9.2879 7.1335 -2.4755 0.9532
-10.0015 6.0929 -2.4755 0.9532
-10.2139 5.7296 -2.4755 0.9532
-10.4131 5.3590 -2.4755 0.9532
-10.7710 4.5975 -2.4755 0.9532
-10.9293 4.2075 -2.4755 0.9532
-11.0734 3.8122 -2.4755 0.9532
-11.5764 1.7721 -2.4755 0.9532
-4.8309 0.3875 -1.0244 0.9804
-4.8389 -0.1344 -1.0232 0.9804
-4.8574 -0.3098 -1.0288 0.9803
-11.6531 -1.1648 -2.4755 0.9532
-11.6038 -1.5827 -2.4755 0.9532
-11.5394 -1.9985 -2.4755 0.9532
-11.4602 -2.4118 -2.4755 0.9532
-11.3661 -2.8219 -2.4755 0.9532
-11.2574 -3.2285 -2.4755 0.9532
-10.4993 -5.1881 -2.4755 0.9532
-10.3061 -5.5620 -2.4755 0.9532
-9.4032 -6.9808 -2.4755 0.9532
-8.8777 -7.6380 -2.4755 0.9532
2.9829 9.4467 -2.3283 0.9601
2.6415 9.5474 -2.3282 0.9601
1.1678 9.2054 -2.1808 0.9626
0.1818 9.8830 -2.3231 0.9602
-0.5283 9.8705 -2.3231 0.9602
-1.2356 9.8071 -2.3231 0.9602
-1.9366 9.6930 -2.3231 0.9602
-2.4334 10.2481 -2.4755 0.9576
-2.8000 10.1541 -2.4755 0.9576
-3.5219 9.9268 -2.4755 0.9576
-7.0726 7.8054 -2.4755 0.9576
-7.8713 6.9992 -2.4755 0.9576
-8.3535 6.4159 -2.4755 0.9576
-8.5786 6.1117 -2.4755 0.9576
-8.9953 5.4800 -2.4755 0.9576
-9.1864 5.1533 -2.4755 0.9576
-9.3656 4.8199 -2.4755 0.9576
-9.6875 4.1350 -2.4755 0.9576
-9.9594 3.4287 -2.4755 0.9576
-10.0761 3.0687 -2.4755 0.9576
-10.3478 1.9668 -2.4755 0.9576
-10.4118 1.5938 -2.4755 0.9576
-4.6019 0.5361 -1.0889 0.9811
-4.6036 0.3692 -1.0854 0.9812
-4.6051 0.2032 -1.0834 0.9812
-4.6085 -0.1280 -1.0835 0.9812
-4.6095 -0.2940 -1.0855 0.9812
-10.4364 -1.4235 -2.4755 0.9576
-10.3786 -1.7975 -2.4755 0.9576
-10.3073 -2.1692 -2.4755 0.9576
-10.1249 -2.9037 -2.4755 0.9576
-10.0141 -3.2655 -2.4755 0.9576
-9.7538 -3.9761 -2.4755 0.9576
-9.2693 -5.0024 -2.4755 0.9576
-9.0836 -5.3322 -2.4755 0.9576
-8.6773 -5.9707 -2.4755 0.9576
-8.2262 -6.5783 -2.4755 0.9576
2.7078 8.5755 -2.3284 0.9635
2.3980 8.6672 -2.3284 0.9635
0.8087 8.9359 -2.3231 0.9636
0.1650 8.9709 -2.3231 0.9636
-0.1573 8.9710 -2.3231 0.9636
-0.8011 8.9365 -2.3231 0.9636
-1.4407 8.8560 -2.3231 0.9636
-1.7579 8.7985 -2.3231 0.9636
-2.2088 9.3023 -2.4755 0.9613
-2.5416 9.2170 -2.4755 0.9613
-2.8711 9.1198 -2.4755 0.9613
-3.5185 8.8901 -2.4755 0.9613
-4.4545 8.4599 -2.4755 0.9613
-4.7556 8.2944 -2.4755 0.9613
-5.0505 8.1182 -2.4755 0.9613
-5.3388 7.9316 -2.4755 0.9613
-5.8946 7.5277 -2.4755 0.9613
-6.6703 6.8498 -2.4755 0.9613
-7.5826 5.8238 -2.4755 0.9613
-8.3386 4.6776 -2.4755 0.9613
-8.5013 4.3751 -2.4755 0.9613
-8.7935 3.7534 -2.4755 0.9613
-8.9226 3.4351 -2.4755 0.9613
-9.0403 3.1123 -2.4755 0.9613
-9.1462 2.7855 -2.4755 0.9613
-9.2404 2.4551 -2.4755 0.9613
-9.3928 1.7853 -2.4755 0.9613
-4.4827 0.6862 -1.1742 0.9814
-4.4519 0.3570 -1.1564 0.9817
-4.4572 -0.1238 -1.1545 0.9817
-4.4565 -0.2842 -1.1562 0.9817
-4.4655 -0.4464 -1.1620 0.9816
-9.1905 -2.6357 -2.4755 0.9613
-8.4139 -4.5408 -2.4755 0.9613
-8.2453 -4.8401 -2.4755 0.9613
-8.0662 -5.1332 -2.4755 0.9613
-7.6767 -5.6991 -2.4755 0.9613
-7.4671 -5.9712 -2.4755 0.9613
2.4751 7.8384 -2.3270 0.9664
1.9027 7.9826 -2.3231 0.9665
1.3246 8.0986 -2.3231 0.9665
1.0328 8.1409 -2.3231 0.9665
0.7397 8.1728 -2.3231 0.9665
0.1509 8.2048 -2.3231 0.9665
-0.7327 8.1734 -2.3231 0.9665
-1.6818 8.4176 -2.4301 0.9649
-2.3245 8.4299 -2.4755 0.9643
-3.5080 8.0100 -2.4755 0.9643
-3.7935 7.8788 -2.4755 0.9643
-4.0741 7.7375 -2.4755 0.9643
-4.6192 7.4250 -2.4755 0.9643
-4.8829 7.2542 -2.4755 0.9643
-5.1404 7.0741 -2.4755 0.9643
-5.8716 6.4800 -2.4755 0.9643
-6.1006 6.2649 -2.4755 0.9643
-6.3218 6.0417 -2.4755 0.9643
-6.5347 5.8107 -2.4755 0.9643
-7.4679 4.5494 -2.4755 0.9643
-7.6265 4.2782 -2.4755 0.9643
-7.7753 4.0014 -2.4755 0.9643
-7.9140 3.7196 -2.4755 0.9643
-8.2683 2.8465 -2.4755 0.9643
-8.3652 2.5476 -2.4755 0.9643
-8.5265 1.9404 -2.4755 0.9643
-4.2976 0.6579 -1.2308 0.9821
-4.3029 0.5012 -1.2263 0.9822
-4.3078 0.3455 -1.2234 0.9822
-4.3102 -0.4308 -1.2263 0.9822
-8.6643 -1.1818 -2.4755 0.9643
-8.6163 -1.4923 -2.4755 0.9643
-8.5571 -1.8009 -2.4755 0.9643
-8.4869 -2.1071 -2.4755 0.9643
-8.4057 -2.4106 -2.4755 0.9643
-8.3137 -2.7110 -2.4755 0.9643
-8.2109 -3.0080 -2.4755 0.9643
-7.9737 -3.5897 -2.4755 0.9643
-7.8396 -3.8739 -2.4755 0.9643
-7.6954 -4.1530 -2.4755 0.9643
-7.5412 -4.4268 -2.4755 0.9643
-7.3773 -4.6949 -2.4755 0.9643
-7.2039 -4.9568 -2.4755 0.9643
-6.6288 -5.7031 -2.4755 0.9643
2.0140 7.2794 -2.3231 0.9689
0.9506 7.4929 -2.3231 0.9689
0.6808 7.5222 -2.3231 0.9689
-0.1325 7.5517 -2.3231 0.9689
-0.6753 7.5335 -2.3264 0.9688
-0.9543 7.5743 -2.3481 0.9686
-1.8594 7.8307 -2.4755 0.9669
-2.1395 7.7588 -2.4755 0.9669
-2.6911 7.5852 -2.4755 0.9669
-3.2288 7.3724 -2.4755 0.9669
-4.0032 6.9822 -2.4755 0.9669
-4.2515 6.8339 -2.4755 0.9669
-4.7312 6.5110 -2.4755 0.9669
-5.6150 5.7662 -2.4755 0.9669
-6.0145 5.3481 -2.4755 0.9669
-6.2028 5.1286 -2.4755 0.9669
-6.3830 4.9025 -2.4755 0.9669
-6.5550 4.6700 -2.4755 0.9669
-6.7185 4.4315 -2.4755 0.9669
-7.0194 3.9376 -2.4755 0.9669
-7.1563 3.6829 -2.4755 0.9669
-7.4023 3.1596 -2.4755 0.9669
-7.7785 2.0667 -2.4755 0.9669
-4.1860 0.3357 -1.2917 0.9826
-4.1867 -0.4185 -1.2942 0.9825
-7.9746 -1.0877 -2.4755 0.9669
-7.9303 -1.3735 -2.4755 0.9669
-7.8759 -1.6575 -2.4755 0.9669
-7.8112 -1.9394 -2.4755 0.9669
-7.4529 -3.0382 -2.4755 0.9669
-7.3390 -3.3040 -2.4755 0.9669
-6.9409 -4.0744 -2.4755 0.9669
-6.7900 -4.3211 -2.4755 0.9669
-6.6304 -4.5623 -2.4755 0.9669
-6.2857 -5.0266 -2.4755 0.9669
2.1044 6.6644 -2.3231 0.9710
1.3751 6.8521 -2.3231 0.9710
1.1281 6.8971 -2.3231 0.9710
0.3795 6.9785 -2.3231 0.9710
-0.3780 7.0630 -2.3511 0.9706
-1.4591 7.3029 -2.4755 0.9691
-1.9797 7.1793 -2.4755 0.9691
-2.2363 7.1036 -2.4755 0.9691
-2.4901 7.0186 -2.4755 0.9691
-2.7406 6.9247 -2.4755 0.9691
-2.9876 6.8217 -2.4755 0.9691
-3.2307 6.7100 -2.4755 0.9691
-3.4697 6.5896 -2.4755 0.9691
-3.7042 6.4607 -2.4755 0.9691
-4.3778 6.0247 -2.4755 0.9691
-4.7991 5.6948 -2.4755 0.9691
-5.7395 4.7455 -2.4755 0.9691
-5.9063 4.5363 -2.4755 0.9691
-6.2167 4.1005 -2.4755 0.9691
-6.3600 3.8745 -2.4755 0.9691
-6.4951 3.6435 -2.4755 0.9691
-6.8494 2.9236 -2.4755 0.9691
-6.9500 2.6756 -2.4755 0.9691
-7.0417 2.4242 -2.4755 0.9691
-7.1242 2.1697 -2.4755 0.9691
-4.0674 0.4738 -1.3612 0.9829
-4.0784 0.1800 -1.3570 0.9829
-4.0800 0.0333 -1.3562 0.9829
-4.0791 -0.1133 -1.3565 0.9829
-4.0754 -0.2599 -1.3574 0.9829
-7.1587 -2.0530 -2.4755 0.9691
-6.9928 -2.5617 -2.4755 0.9691
-6.7908 -3.0572 -2.4755 0.9691
-6.6766 -3.2992 -2.4755 0.9691
-6.5538 -3.5369 -2.4755 0.9691
-6.1352 -4.2215 -2.4755 0.9691
1.9670 6.2295 -2.3361 0.9726
1.0486 6.4111 -2.3231 0.9728
0.8190 6.4559 -2.3272 0.9727
0.5904 6.5231 -2.3422 0.9726
0.3599 6.6179 -2.3701 0.9722
-1.1115 6.8326 -2.4755 0.9710
-1.3563 6.7883 -2.4755 0.9710
-2.3146 6.5240 -2.4755 0.9710
-2.5475 6.4367 -2.4755 0.9710
-2.7771 6.3410 -2.4755 0.9710
-3.0031 6.2371 -2.4755 0.9710
-3.2252 6.1252 -2.4755 0.9710
-3.4432 6.0054 -2.4755 0.9710
-4.2678 5.4503 -2.4755 0.9710
-4.6482 5.1298 -2.4755 0.9710
-4.8295 4.9595 -2.4755 0.9710
-5.0045 4.7828 -2.4755 0.9710
-5.1731 4.5999 -2.4755 0.9710
-5.9118 3.6014 -2.4755 0.9710
-6.0374 3.3868 -2.4755 0.9710
-6.1552 3.1677 -2.4755 0.9710
-6.2650 2.9445 -2.4755 0.9710
-6.3667 2.7176 -2.4755 0.9710
-6.6221 2.0168 -2.4755 0.9710
-6.6903 1.7776 -2.4755 0.9710
-6.7499 1.5361 -2.4755 0.9710
-3.9632 0.7533 -1.4426 0.9830
-3.9595 0.4612 -1.4255 0.9832
-3.9665 0.3181 -1.4230 0.9832
-3.9675 -0.2530 -1.4217 0.9833
-3.9802 -0.5429 -1.4365 0.9831
-6.7741 -1.4256 -2.4755 0.9710
-6.7185 -1.6680 -2.4755 0.9710
-6.6542 -1.9083 -2.4755 0.9710
-6.5000 -2.3812 -2.4755 0.9710
-5.8401 -3.7166 -2.4755 0.9710
-5.7028 -3.9240 -2.4755 0.9710
1.9451 6.1600 -2.4755 0.9727
1.4905 6.2534 -2.4635 0.9728
1.2638 6.2971 -2.4613 0.9729
0.8130 6.4084 -2.4755 0.9727
0.3508 6.4503 -2.4755 0.9727
-0.8075 6.4091 -2.4755 0.9727
-1.2656 6.3346 -2.4755 0.9727
-1.7172 6.2274 -2.4755 0.9727
-1.9398 6.1617 -2.4755 0.9727
-2.3772 6.0065 -2.4755 0.9727
-2.5915 5.9172 -2.4755 0.9727
-2.8024 5.8203 -2.4755 0.9727
-3.0097 5.7159 -2.4755 0.9727
-3.2131 5.6040 -2.4755 0.9727
-3.6071 5.3589 -2.4755 0.9727
-3.7973 5.2259 -2.4755 0.9727
-4.1628 4.9397 -2.4755 0.9727
-4.6700 4.4632 -2.4755 0.9727
-4.8274 4.2925 -2.4755 0.9727
-5.1231 3.9348 -2.4755 0.9727
-5.2612 3.7482 -2.4755 0.9727
-5.5167 3.3608 -2.4755 0.9727
-5.6339 3.1604 -2.4755 0.9727
-5.7438 2.9560 -2.4755 0.9727
-5.8463 2.7477 -2.4755 0.9727
-6.1796 1.8820 -2.4755 0.9727
-6.2432 1.6588 -2.4755 0.9727
-3.7917 0.7207 -1.4791 0.9836
-3.8088 0.5830 -1.4766 0.9836
-3.8310 0.3072 -1.4728 0.9837
-3.8416 0.0314 -1.4722 0.9837
-3.8378 -0.1066 -1.4713 0.9837
-3.8244 -0.3823 -1.4729 0.9837
-3.8215 -0.5213 -1.4780 0.9836
-5.9819 -2.4385 -2.4755 0.9727
-5.7913 -2.8617 -2.4755 0.9727
-5.5709 -3.2702 -2.4755 0.9727
-5.4498 -3.4682 -2.4755 0.9727
-5.1867 -3.8506 -2.4755 0.9727
-5.0451 -4.0344 -2.4755 0.9727
1.8213 5.7678 -2.4755 0.9742
0.7613 6.0004 -2.4755 0.9742
0.5452 6.0239 -2.4755 0.9742
0.3284 6.0396 -2.4755 0.9742
0.1113 6.0475 -2.4755 0.9742
-0.5400 6.0244 -2.4755 0.9742
-0.9712 5.9701 -2.4755 0.9742
-1.1851 5.9313 -2.4755 0.9742
-1.6079 5.8309 -2.4755 0.9742
-1.8163 5.7694 -2.4755 0.9742
-2.2259 5.6241 -2.4755 0.9742
-2.6240 5.4497 -2.4755 0.9742
-2.8180 5.3520 -2.4755 0.9742
-3.0085 5.2472 -2.4755 0.9742
-3.1951 5.1358 -2.4755 0.9742
-3.8977 4.6252 -2.4755 0.9742
-4.2198 4.3334 -2.4755 0.9742
-4.3727 4.1790 -2.4755 0.9742
-4.5200 4.0192 -2.4755 0.9742
-4.9262 3.5096 -2.4755 0.9742
-5.1655 3.1468 -2.4755 0.9742
-5.2752 2.9592 -2.4755 0.9742
-5.7191 1.9689 -2.4755 0.9742
-5.8457 1.5532 -2.4755 0.9742
-3.6667 0.5613 -1.5182 0.9841
-3.6926 0.1629 -1.5128 0.9842
-3.6949 0.0302 -1.5123 0.9842
-3.6932 -0.1026 -1.5121 0.9842
-3.6869 -0.2352 -1.5120 0.9842
-5.9598 -1.0322 -2.4755 0.9742
-5.8703 -1.4575 -2.4755 0.9742
-5.8142 -1.6674 -2.4755 0.9742
-5.7505 -1.8752 -2.4755 0.9742
-5.6010 -2.2833 -2.4755 0.9742
-5.5154 -2.4830 -2.4755 0.9742
-5.4226 -2.6795 -2.4755 0.9742
-5.3229 -2.8726 -2.4755 0.9742
-4.9829 -3.4286 -2.4755 0.9742
-4.7239 -3.7776 -2.4755 0.9742
-4.5851 -3.9448 -2.4755 0.9742
1.7103 5.4166 -2.4755 0.9755
1.1177 5.5691 -2.4755 0.9755
0.9169 5.6057 -2.4755 0.9755
0.7149 5.6350 -2.4755 0.9755
0.3084 5.6718 -2.4755 0.9755
-0.0996 5.6793 -2.4755 0.9755
-0.5071 5.6575 -2.4755 0.9755
-1.3123 5.5265 -2.4755 0.9755
-1.7057 5.4180 -2.4755 0.9755
-1.8992 5.3533 -2.4755 0.9755
-2.6464 5.0260 -2.4755 0.9755
-2.8253 4.9277 -2.4755 0.9755
-3.1718 4.7121 -2.4755 0.9755
-3.5020 4.4722 -2.4755 0.9755
-3.6604 4.3435 -2.4755 0.9755
-3.8140 4.2092 -2.4755 0.9755
-3.9628 4.0695 -2.4755 0.9755
-4.2448 3.7744 -2.4755 0.9755
-4.3776 3.6195 -2.4755 0.9755
-4.6262 3.2958 -2.4755 0.9755
-4.7416 3.1275 -2.4755 0.9755
-5.1407 2.4161 -2.4755 0.9755
-5.3009 2.0407 -2.4755 0.9755
-5.3708 1.8490 -2.4755 0.9755
-5.4338 1.6549 -2.4755 0.9755
-5.4897 1.4586 -2.4755 0.9755
-3.5298 0.5403 -1.5563 0.9845
-3.5486 0.2846 -1.5515 0.9846
-3.5541 0.1568 -1.5505 0.9846
-3.5563 0.0290 -1.5500 0.9846
-3.5506 -0.2265 -1.5506 0.9846
-5.4601 -1.5658 -2.4755 0.9755
-5.4003 -1.7610 -2.4755 0.9755
-5.1795 -2.3318 -2.4755 0.9755
-5.0924 -2.5164 -2.4755 0.9755
-4.9987 -2.6977 -2.4755 0.9755
-4.8985 -2.8755 -2.4755 0.9755
-4.7921 -3.0496 -2.4755 0.9755
-4.5607 -3.3859 -2.4755 0.9755
-4.4362 -3.5475 -2.4755 0.9755
1.4261 5.1544 -2.4755 0.9767
1.2400 5.2023 -2.4755 0.9767
0.6731 5.3055 -2.4755 0.9767
0.4821 5.3262 -2.4755 0.9767
0.2904 5.3401 -2.4755 0.9767
0.0984 5.3471 -2.4755 0.9767
-0.0938 5.3472 -2.4755 0.9767
-0.2858 5.3404 -2.4755 0.9767
-0.6685 5.3061 -2.4755 0.9767
-1.0478 5.2444 -2.4755 0.9767
-1.2355 5.2033 -2.4755 0.9767
-1.4217 5.1556 -2.4755 0.9767
-1.6059 5.1012 -2.4755 0.9767
-1.9681 4.9727 -2.4755 0.9767
-2.1455 4.8988 -2.4755 0.9767
-2.3201 4.8186 -2.4755 0.9767
-2.9863 4.4366 -2.4755 0.9767
-3.1438 4.3264 -2.4755 0.9767
-3.2972 4.2107 -2.4755 0.9767
-3.8663 3.6950 -2.4755 0.9767
-4.1216 3.4078 -2.4755 0.9767
-4.4643 2.9446 -2.4755 0.9767
-4.6643 2.6165 -2.4755 0.9767
-4.7552 2.4472 -2.4755 0.9767
-4.8401 2.2748 -2.4755 0.9767
-4.9187 2.0995 -2.4755 0.9767
-5.0567 1.7409 -2.4755 0.9767
-5.1160 1.5581 -2.4755 0.9767
-5.1687 1.3733 -2.4755 0.9767
-3.4054 0.6473 -1.6045 0.9848
-3.4099 0.3972 -1.5891 0.9850
-3.4178 0.2741 -1.5871 0.9850
-3.4232 0.1510 -1.5861 0.9850
-3.4253 0.0280 -1.5856 0.9850
-3.5719 -0.6186 -1.6780 0.9841
-4.7946 -2.3692 -2.4755 0.9767
-4.7064 -2.5399 -2.4755 0.9767
-4.6121 -2.7074 -2.4755 0.9767
-4.2940 -3.1879 -2.4755 0.9767
-4.0541 -3.4879 -2.4755 0.9767
1.3457 4.8640 -2.4755 0.9778
1.1701 4.9092 -2.4755 0.9778
0.9930 4.9480 -2.4755 0.9778
0.6352 5.0065 -2.4755 0.9778
0.2740 5.0392 -2.4755 0.9778
-0.0885 5.0459 -2.4755 0.9778
-0.2697 5.0395 -2.4755 0.9778
-0.4506 5.0265 -2.4755 0.9778
-0.8103 4.9812 -2.4755 0.9778
-1.3416 4.8651 -2.4755 0.9778
-1.5155 4.8138 -2.4755 0.9778
-2.1893 4.5471 -2.4755 0.9778
-2.3513 4.4655 -2.4755 0.9778
-2.5102 4.3781 -2.4755 0.9778
-2.6658 4.2851 -2.4755 0.9778
-2.8181 4.1866 -2.4755 0.9778
-2.9666 4.0826 -2.4755 0.9778
-3.2521 3.8591 -2.4755 0.9778
-3.6484 3.4868 -2.4755 0.9778
-3.8894 3.2158 -2.4755 0.9778
-4.1103 2.9283 -2.4755 0.9778
-4.2128 2.7787 -2.4755 0.9778
-4.6415 1.9812 -2.4755 0.9778
-4.7097 1.8132 -2.4755 0.9778
-4.8277 1.4703 -2.4755 0.9778
-4.8775 1.2959 -2.4755 0.9778
-3.4236 0.7791 -1.7223 0.9845
-3.3100 0.2655 -1.6288 0.9853
-3.3115 0.1461 -1.6260 0.9853
-3.3189 -0.2117 -1.6313 0.9853
-3.3239 -0.3323 -1.6386 0.9852
-3.3436 -0.4561 -1.6553 0.9851
-4.9385 -1.0393 -2.4755 0.9778
-4.8980 -1.2161 -2.4755 0.9778
-4.6018 -2.0717 -2.4755 0.9778
-4.5244 -2.2357 -2.4755 0.9778
-4.3522 -2.5548 -2.4755 0.9778
-4.2576 -2.7095 -2.4755 0.9778
-4.1575 -2.8607 -2.4755 0.9778
-4.0521 -3.0082 -2.4755 0.9778
-3.9414 -3.1519 -2.4755 0.9778
-3.8256 -3.2914 -2.4755 0.9778
1.2724 4.5990 -2.4755 0.9787
1.1064 4.6418 -2.4755 0.9787
0.9389 4.6785 -2.4755 0.9787
0.6006 4.7339 -2.4755 0.9787
0.4301 4.7524 -2.4755 0.9787
-0.0837 4.7711 -2.4755 0.9787
-0.4260 4.7528 -2.4755 0.9787
-0.7662 4.7099 -2.4755 0.9787
-1.1024 4.6427 -2.4755 0.9787
-1.2685 4.6001 -2.4755 0.9787
-1.4329 4.5516 -2.4755 0.9787
-1.5955 4.4972 -2.4755 0.9787
-1.7560 4.4370 -2.4755 0.9787
-1.9143 4.3710 -2.4755 0.9787
-2.0701 4.2994 -2.4755 0.9787
-2.5206 4.0517 -2.4755 0.9787
-2.6646 3.9586 -2.4755 0.9787
-2.8051 3.8603 -2.4755 0.9787
-2.9419 3.7570 -2.4755 0.9787
-3.3291 3.4187 -2.4755 0.9787
-3.4497 3.2969 -2.4755 0.9787
-3.5659 3.1708 -2.4755 0.9787
-3.7844 2.9066 -2.4755 0.9787
-3.8864 2.7688 -2.4755 0.9787
-3.9833 2.6274 -2.4755 0.9787
-4.1617 2.3346 -2.4755 0.9787
-4.2429 2.1835 -2.4755 0.9787
-4.4532 1.7144 -2.4755 0.9787
-4.5648 1.3902 -2.4755 0.9787
-4.6118 1.2253 -2.4755 0.9787
-3.3539 0.7633 -1.7844 0.9846
-3.2740 0.5012 -1.7183 0.9852
-3.2674 0.3806 -1.7065 0.9853
-3.2651 0.2619 -1.6993 0.9853
-3.2602 0.1438 -1.6929 0.9854
-3.2631 0.0266 -1.6929 0.9854
-3.2680 -0.0908 -1.6960 0.9854
-3.2712 -0.2087 -1.7005 0.9853
-3.3256 -0.4536 -1.7412 0.9850
-4.6312 -1.1498 -2.4755 0.9787
-4.4806 -1.6414 -2.4755 0.9787
-4.4188 -1.8013 -2.4755 0.9787
-4.3512 -1.9589 -2.4755 0.9787
-4.2780 -2.1139 -2.4755 0.9787
-4.1993 -2.2662 -2.4755 0.9787
-4.1152 -2.4157 -2.4755 0.9787
-4.0257 -2.5619 -2.4755 0.9787
-3.6173 -3.1122 -2.4755 0.9787
1.3609 4.3100 -2.4755 0.9796
0.8893 4.4314 -2.4755 0.9796
0.7296 4.4605 -2.4755 0.9796
-0.0793 4.5191 -2.4755 0.9796
-0.5650 4.4844 -2.4755 0.9796
-0.8855 4.4322 -2.4755 0.9796
-1.0442 4.3975 -2.4755 0.9796
-1.2015 4.3572 -2.4755 0.9796
-1.5112 4.2597 -2.4755 0.9796
-1.9608 4.0724 -2.4755 0.9796
-2.1058 3.9993 -2.4755 0.9796
-2.3875 3.8378 -2.4755 0.9796
-2.9126 3.4562 -2.4755 0.9796
-3.0349 3.3493 -2.4755 0.9796
-3.1533 3.2381 -2.4755 0.9796
-3.2675 3.1228 -2.4755 0.9796
-3.3776 3.0034 -2.4755 0.9796
-3.4833 2.8801 -2.4755 0.9796
-3.5846 2.7531 -2.4755 0.9796
-3.6811 2.6226 -2.4755 0.9796
-3.8600 2.3515 -2.4755 0.9796
-3.9419 2.2113 -2.4755 0.9796
-4.0188 2.0682 -2.4755 0.9796
-4.0905 1.9225 -2.4755 0.9796
-4.1570 1.7743 -2.4755 0.9796
-4.2736 1.4713 -2.4755 0.9796
-4.3238 1.3167 -2.4755 0.9796
-3.5014 0.9303 -1.9843 0.9836
-3.2947 0.6262 -1.8368 0.9848
-3.2505 0.4976 -1.8011 0.9851
-3.2395 0.3774 -1.7863 0.9852
-3.2297 0.1425 -1.7706 0.9854
-3.2327 0.0264 -1.7706 0.9854
-3.2391 -0.0900 -1.7747 0.9853
-3.2448 -0.2070 -1.7808 0.9853
-3.2668 -0.3266 -1.7981 0.9851
-3.3695 -0.5836 -1.8730 0.9845
-4.3866 -1.0891 -2.4755 0.9796
-4.3447 -1.2460 -2.4755 0.9796
-4.2440 -1.5547 -2.4755 0.9796
-4.1214 -1.8554 -2.4755 0.9796
-4.0521 -2.0023 -2.4755 0.9796
-3.9775 -2.1466 -2.4755 0.9796
-3.8131 -2.4267 -2.4755 0.9796
-3.5299 -2.8228 -2.4755 0.9796
0.8437 4.2039 -2.4755 0.9804
0.3865 4.2703 -2.4755 0.9804
0.0789 4.2870 -2.4755 0.9804
-0.0752 4.2871 -2.4755 0.9804
-0.2292 4.2816 -2.4755 0.9804
-0.3828 4.2706 -2.4755 0.9804
-0.5360 4.2541 -2.4755 0.9804
-0.6885 4.2321 -2.4755 0.9804
-0.9906 4.1717 -2.4755 0.9804
-1.1398 4.1334 -2.4755 0.9804
-1.2876 4.0898 -2.4755 0.9804
-1.4336 4.0409 -2.4755 0.9804
-1.9977 3.7939 -2.4755 0.9804
-2.1327 3.7197 -2.4755 0.9804
-2.2649 3.6407 -2.4755 0.9804
-2.5205 3.4687 -2.4755 0.9804
-2.6435 3.3759 -2.4755 0.9804
-2.7630 3.2787 -2.4755 0.9804
-2.8790 3.1773 -2.4755 0.9804
-3.4005 2.6117 -2.4755 0.9804
-3.6617 2.2307 -2.4755 0.9804
-3.7395 2.0977 -2.4755 0.9804
-3.8125 1.9621 -2.4755 0.9804
-3.9435 1.6832 -2.4755 0.9804
-4.0542 1.3957 -2.4755 0.9804
-4.1017 1.2492 -2.4755 0.9804
-3.4502 0.9167 -2.0611 0.9836
-3.2416 0.4962 -1.8933 0.9850
-3.2276 0.3760 -1.8760 0.9851
-3.2090 0.1416 -1.8545 0.9853
-3.2553 -0.3254 -1.8888 0.9850
-3.2975 -0.4498 -1.9215 0.9847
-3.3604 -0.5820 -1.9690 0.9844
-4.1216 -1.1820 -2.4755 0.9804
-4.0764 -1.3293 -2.4755 0.9804
-4.0261 -1.4749 -2.4755 0.9804
-3.9705 -1.6186 -2.4755 0.9804
-3.9098 -1.7601 -2.4755 0.9804
-3.7733 -2.0364 -2.4755 0.9804
-3.5323 -2.4305 -2.4755 0.9804
-3.4427 -2.5558 -2.4755 0.9804
-3.3487 -2.6779 -2.4755 0.9804
