ply
format ascii 1.0
element vertex 879
property float32 x
property float32 y
property float32 z
property float32 I
end_header
10.1287 -11.0924 2.6486 0.9408
10.1265 -11.0900 2.3006 0.9410
10.1222 -11.0853 1.6119 0.9414
10.1200 -11.0829 1.2705 0.9415
44.8265 20.3071 3.0516 0.8210
42.5803 21.1626 2.9485 0.8265
42.6224 23.1266 3.0070 0.8234
42.6662 25.1727 3.0719 0.8199
10.1157 -11.0782 0.5915 0.9417
42.5803 21.1626 1.8749 0.8267
42.6224 23.1266 1.9121 0.8236
42.6662 25.1727 1.9534 0.8201
10.1136 -11.0759 0.2534 0.9418
42.6222 23.1265 0.8191 0.8237
42.6662 25.1727 0.8368 0.8202
42.6222 23.1265 -0.2730 0.8237
42.6661 25.1727 -0.2789 0.8202
10.1093 -11.0712 -0.4222 0.9418
44.8234 20.3057 -1.3856 0.8213
42.5801 21.1625 -1.3389 0.8267
42.6222 23.1265 -1.3654 0.8236
42.6661 25.1727 -1.3949 0.8202
4.4503 -47.2042 -2.4045 0.8270
6.2110 -47.5484 -2.4319 0.8253
8.0037 -47.8360 -2.4597 0.8234
9.8288 -48.0743 -2.4885 0.8216
43.4463 -24.1752 -2.5215 0.8194
43.9353 -20.4693 -2.4581 0.8236
44.6344 -11.7088 -2.3402 0.8313
44.9422 -10.0809 -2.3358 0.8315
48.2188 -9.0120 -2.4877 0.8216
48.5111 -7.2760 -2.4877 0.8216
48.7410 -5.5306 -2.4877 0.8216
48.9081 -3.7781 -2.4877 0.8216
49.0121 -2.0208 -2.4877 0.8216
48.9455 3.2578 -2.4877 0.8216
48.7970 5.0120 -2.4877 0.8216
45.6094 6.3456 -2.3353 0.8316
44.7558 11.2333 -2.3402 0.8313
44.3186 12.8305 -2.3399 0.8313
43.8244 14.4107 -2.3396 0.8313
42.0075 19.0301 -2.3388 0.8313
41.2930 20.5228 -2.3385 0.8314
40.5255 21.9889 -2.3383 0.8314
39.7061 23.4263 -2.3380 0.8314
38.8359 24.8334 -2.3378 0.8314
36.9473 27.5490 -2.3373 0.8314
35.9340 28.8562 -2.3372 0.8315
31.4339 33.6980 -2.3371 0.8315
30.2042 34.8038 -2.3370 0.8315
28.9356 35.8649 -2.3370 0.8315
26.2783 37.8324 -2.3361 0.8315
24.8983 38.7422 -2.3355 0.8316
23.4921 39.6108 -2.3356 0.8316
3.0419 -32.2652 -2.3762 0.8781
4.2253 -32.3467 -2.3919 0.8774
6.6207 -32.3833 -2.4235 0.8758
7.8297 -32.3366 -2.4395 0.8751
13.9204 -31.4239 -2.5200 0.8712
16.3434 -30.7305 -2.5521 0.8697
17.5441 -30.3117 -2.5679 0.8690
18.7346 -29.8446 -2.5837 0.8682
21.0766 -28.7651 -2.6147 0.8667
22.1696 -28.0846 -2.6235 0.8663
10.1050 -11.0666 -1.0988 0.9417
24.3515 -24.8183 -2.5494 0.8698
24.9621 -23.6779 -2.5227 0.8711
25.5199 -22.5236 -2.4957 0.8724
26.0495 -21.3783 -2.4709 0.8736
27.0337 -19.1142 -2.4276 0.8756
28.3930 -15.7990 -2.3824 0.8778
28.8121 -14.7039 -2.3718 0.8783
29.2310 -13.6186 -2.3645 0.8787
29.5892 -12.5138 -2.3556 0.8791
29.6913 -11.3190 -2.3299 0.8803
33.3512 -6.2333 -2.4877 0.8728
33.8279 -2.6132 -2.4877 0.8728
33.9282 -0.1804 -2.4877 0.8728
33.9129 1.0371 -2.4877 0.8728
33.8538 2.2533 -2.4877 0.8728
33.7511 3.4666 -2.4877 0.8728
33.4156 5.8783 -2.4877 0.8728
31.1595 6.6421 -2.3360 0.8800
30.6627 8.8770 -2.3406 0.8798
28.5744 14.2016 -2.3396 0.8799
28.0443 15.2167 -2.3395 0.8799
27.4782 16.2119 -2.3393 0.8799
26.8768 17.1862 -2.3391 0.8799
26.2409 18.1383 -2.3389 0.8799
25.5714 19.0668 -2.3388 0.8799
22.5773 22.5258 -2.3384 0.8799
21.7543 23.3212 -2.3384 0.8799
20.0254 24.8210 -2.3384 0.8799
19.1218 25.5234 -2.3384 0.8799
18.1919 26.1905 -2.3381 0.8799
17.2377 26.8222 -2.3378 0.8800
16.2616 27.4192 -2.3374 0.8800
2.3141 -24.5457 -2.3670 0.9057
5.0128 -24.5188 -2.4026 0.9043
5.9187 -24.4444 -2.4146 0.9039
7.7326 -24.1948 -2.4386 0.9030
8.6380 -24.0191 -2.4505 0.9025
9.5405 -23.8091 -2.4625 0.9021
10.4388 -23.5646 -2.4744 0.9016
11.3314 -23.2854 -2.4862 0.9012
12.2170 -22.9716 -2.4979 0.9007
14.5216 -21.3885 -2.4820 0.9013
15.1812 -20.7192 -2.4659 0.9019
15.8083 -20.0261 -2.4494 0.9026
19.0893 -15.6661 -2.3708 0.9055
20.5396 -13.4438 -2.3567 0.9061
21.0193 -12.7045 -2.3579 0.9060
21.3037 -11.8542 -2.3406 0.9067
21.6960 -11.0723 -2.3385 0.9068
22.0593 -10.2773 -2.3364 0.9068
24.2127 -9.2304 -2.4877 0.9011
25.0644 -6.5750 -2.4877 0.9011
25.6258 -3.8435 -2.4877 0.9011
25.7472 -2.9215 -2.4877 0.9011
25.8355 -1.9958 -2.4877 0.9011
25.8905 -1.0675 -2.4877 0.9011
25.9003 0.7921 -2.4877 0.9011
25.6652 3.5708 -2.4877 0.9011
25.5206 4.4894 -2.4877 0.9011
25.3431 5.4023 -2.4877 0.9011
22.8723 8.4419 -2.3406 0.9067
20.7505 8.5167 -2.1534 0.9138
22.2053 10.0594 -2.3404 0.9067
20.9920 12.3851 -2.3400 0.9067
20.5329 13.1297 -2.3398 0.9067
19.0001 15.2577 -2.3395 0.9067
17.8551 16.5794 -2.3392 0.9067
15.2988 18.9625 -2.3391 0.9067
13.8994 20.0107 -2.3391 0.9067
13.1716 20.4954 -2.3390 0.9067
1.8658 -19.7904 -2.3612 0.9231
2.5851 -19.7900 -2.3707 0.9228
3.3068 -19.7637 -2.3803 0.9225
4.0299 -19.7111 -2.3898 0.9222
5.4767 -19.5264 -2.4090 0.9216
6.1982 -19.3938 -2.4185 0.9213
7.6239 -19.0261 -2.4347 0.9208
8.9060 -18.3013 -2.4177 0.9213
11.2496 -16.5691 -2.3789 0.9225
12.3324 -15.6229 -2.3643 0.9230
10.0124 -10.9651 -1.7638 0.9419
13.8485 -14.1140 -2.3488 0.9234
14.3565 -13.6179 -2.3505 0.9234
15.6818 -11.9544 -2.3423 0.9236
16.0799 -11.3693 -2.3393 0.9237
16.8309 -10.1730 -2.3361 0.9238
17.4561 -9.7132 -2.3729 0.9227
18.6542 -9.5199 -2.4877 0.9191
19.5691 -7.4602 -2.4877 0.9191
20.2575 -5.3141 -2.4877 0.9191
20.4351 -4.5838 -2.4877 0.9191
20.7112 -3.1064 -2.4877 0.9191
20.8094 -2.3612 -2.4877 0.9191
20.8807 -1.6130 -2.4877 0.9191
20.9252 -0.8628 -2.4877 0.9191
20.9426 -0.1113 -2.4877 0.9191
20.8967 1.3909 -2.4877 0.9191
20.1169 5.8239 -2.4877 0.9191
18.2103 7.4741 -2.3382 0.9238
17.9437 8.1288 -2.3400 0.9237
17.3183 9.3968 -2.3405 0.9237
16.5983 10.6136 -2.3403 0.9237
16.2060 11.2019 -2.3402 0.9237
15.3596 12.3342 -2.3400 0.9237
14.9065 12.8769 -2.3399 0.9237
13.4349 14.4026 -2.3396 0.9237
12.3672 15.3287 -2.3396 0.9237
10.6483 16.5689 -2.3396 0.9237
3.3663 -16.4653 -2.3812 0.9344
4.5225 -16.1245 -2.3728 0.9346
5.0866 -15.9155 -2.3674 0.9347
6.1898 -15.4470 -2.3579 0.9350
6.7288 -15.1896 -2.3539 0.9351
7.2582 -14.9152 -2.3503 0.9352
8.7966 -14.0132 -2.3443 0.9353
9.7896 -13.3607 -2.3469 0.9353
10.2685 -13.0082 -2.3482 0.9352
10.7333 -12.6370 -2.3492 0.9352
11.5685 -11.7903 -2.3404 0.9354
12.3720 -10.9194 -2.3381 0.9355
13.1094 -9.9934 -2.3356 0.9356
13.7349 -9.7113 -2.3834 0.9343
14.6906 -9.6154 -2.4877 0.9315
15.6388 -7.9810 -2.4877 0.9315
15.9151 -7.4148 -2.4877 0.9315
16.6197 -5.6616 -2.4877 0.9315
17.1319 -3.8428 -2.4877 0.9315
17.2587 -3.2256 -2.4877 0.9315
17.3634 -2.6043 -2.4877 0.9315
17.4457 -1.9796 -2.4877 0.9315
17.5054 -1.3523 -2.4877 0.9315
17.5427 -0.7233 -2.4877 0.9315
17.5574 -0.0934 -2.4877 0.9315
17.5494 0.5367 -2.4877 0.9315
17.4657 1.7939 -2.4877 0.9315
17.3901 2.4195 -2.4877 0.9315
17.2921 3.0419 -2.4877 0.9315
16.8651 4.8825 -2.4877 0.9315
16.4715 6.0795 -2.4877 0.9315
15.0205 6.8045 -2.3364 0.9356
14.2279 8.3944 -2.3407 0.9354
13.9170 8.8991 -2.3406 0.9354
13.2420 9.8736 -2.3404 0.9354
12.8787 10.3420 -2.3403 0.9354
12.4989 10.7971 -2.3402 0.9355
10.8243 12.4726 -2.3399 0.9355
9.4209 13.5632 -2.3399 0.9355
8.9282 13.8925 -2.3399 0.9355
8.4240 14.2039 -2.3399 0.9355
1.3315 -14.1235 -2.3370 0.9441
2.3423 -13.9992 -2.3383 0.9441
2.8439 -13.9102 -2.3390 0.9441
3.3423 -13.8036 -2.3397 0.9441
4.8113 -13.3784 -2.3421 0.9440
5.2902 -13.2021 -2.3430 0.9440
7.1334 -12.3242 -2.3458 0.9439
8.3935 -11.4554 -2.3395 0.9441
8.7960 -11.1429 -2.3387 0.9441
10.2849 -9.7558 -2.3353 0.9442
10.9963 -9.7053 -2.4162 0.9423
12.0095 -9.1549 -2.4877 0.9406
12.3302 -8.7181 -2.4877 0.9406
12.6351 -8.2700 -2.4877 0.9406
12.9237 -7.8114 -2.4877 0.9406
13.1957 -7.3426 -2.4877 0.9406
13.6883 -6.3773 -2.4877 0.9406
13.9083 -5.8820 -2.4877 0.9406
14.2943 -4.8694 -2.4877 0.9406
14.6068 -3.8317 -2.4877 0.9406
14.7349 -3.3052 -2.4877 0.9406
15.0047 -1.7026 -2.4877 0.9406
15.1008 -0.0803 -2.4877 0.9406
15.0939 0.4616 -2.4877 0.9406
15.0220 1.5429 -2.4877 0.9406
14.8726 2.6163 -2.4877 0.9406
14.7692 3.1482 -2.4877 0.9406
14.5053 4.1994 -2.4877 0.9406
14.1672 5.2288 -2.4877 0.9406
13.9701 5.7338 -2.4877 0.9406
12.6945 6.3092 -2.3353 0.9442
12.4653 6.7636 -2.3363 0.9441
11.0780 8.8960 -2.3406 0.9440
10.4108 9.6670 -2.3404 0.9440
9.6902 10.3882 -2.3403 0.9440
8.1036 11.6665 -2.3401 0.9440
7.6797 11.9498 -2.3401 0.9440
1.1692 -12.3992 -2.3409 0.9506
1.6136 -12.3510 -2.3412 0.9506
2.4959 -12.2065 -2.3418 0.9506
3.7909 -11.8615 -2.3406 0.9506
4.2134 -11.7159 -2.3402 0.9506
4.6302 -11.5551 -2.3398 0.9506
5.0408 -11.3792 -2.3393 0.9506
5.4447 -11.1886 -2.3388 0.9506
6.2301 -10.7640 -2.3377 0.9506
6.9822 -10.2839 -2.3364 0.9507
7.3445 -10.0237 -2.3357 0.9507
7.6983 -9.7522 -2.3353 0.9507
8.2467 -9.7092 -2.3944 0.9495
9.9229 -8.7581 -2.4877 0.9476
10.5258 -8.0239 -2.4877 0.9476
11.5654 -6.4354 -2.4877 0.9476
12.1900 -5.1554 -2.4877 0.9476
12.3671 -4.7146 -2.4877 0.9476
12.8022 -3.3583 -2.4877 0.9476
12.9144 -2.8968 -2.4877 0.9476
13.0101 -2.4316 -2.4877 0.9476
13.0889 -1.9631 -2.4877 0.9476
13.1509 -1.4922 -2.4877 0.9476
13.2241 -0.5452 -2.4877 0.9476
13.2061 0.8790 -2.4877 0.9476
13.1661 1.3523 -2.4877 0.9476
13.1091 1.8238 -2.4877 0.9476
13.0352 2.2931 -2.4877 0.9476
12.9445 2.7593 -2.4877 0.9476
12.8372 3.2220 -2.4877 0.9476
12.7133 3.6806 -2.4877 0.9476
12.5730 4.1344 -2.4877 0.9476
12.0559 5.4615 -2.4877 0.9476
10.7009 6.3135 -2.3353 0.9507
9.9724 7.4357 -2.3381 0.9506
9.7031 7.7919 -2.3391 0.9506
9.4210 8.1383 -2.3400 0.9506
8.8153 8.7952 -2.3406 0.9506
8.4939 9.1056 -2.3405 0.9506
8.1615 9.4043 -2.3405 0.9506
7.8186 9.6910 -2.3404 0.9506
7.4657 9.9650 -2.3404 0.9506
7.1032 10.2263 -2.3403 0.9506
6.7315 10.4744 -2.3403 0.9506
1.0380 -11.0103 -2.3377 0.9558
1.8252 -10.9088 -2.3380 0.9558
2.2154 -10.8358 -2.3379 0.9558
3.7410 -10.4023 -2.3367 0.9558
4.1111 -10.2597 -2.3363 0.9558
5.1876 -9.7543 -2.3353 0.9558
6.0917 -9.7042 -2.4219 0.9542
6.5817 -9.6940 -2.4768 0.9532
6.9559 -9.4933 -2.4877 0.9530
7.2921 -9.2376 -2.4877 0.9530
7.6188 -8.9701 -2.4877 0.9530
8.5387 -8.0994 -2.4877 0.9530
9.3596 -7.1349 -2.4877 0.9530
9.6096 -6.7945 -2.4877 0.9530
9.8472 -6.4453 -2.4877 0.9530
10.0721 -6.0878 -2.4877 0.9530
10.2841 -5.7225 -2.4877 0.9530
10.4828 -5.3498 -2.4877 0.9530
10.8395 -4.5842 -2.4877 0.9530
10.9969 -4.1923 -2.4877 0.9530
11.2693 -3.3928 -2.4877 0.9530
11.5687 -2.1622 -2.4877 0.9530
11.7340 -0.9064 -2.4877 0.9530
11.7688 -0.0626 -2.4877 0.9530
11.7430 0.7817 -2.4877 0.9530
11.5910 2.0390 -2.4877 0.9530
11.3048 3.2728 -2.4877 0.9530
11.1801 3.6763 -2.4877 0.9530
10.5392 5.2380 -2.4877 0.9530
10.1363 5.9803 -2.4877 0.9530
9.0882 6.2820 -2.3353 0.9558
8.8592 6.6057 -2.3359 0.9558
8.3686 7.2292 -2.3376 0.9558
8.1065 7.5274 -2.3384 0.9558
7.8338 7.8159 -2.3391 0.9558
7.5507 8.0946 -2.3399 0.9558
6.9529 8.6179 -2.3406 0.9557
6.6391 8.8617 -2.3406 0.9557
6.3167 9.0941 -2.3405 0.9557
5.9862 9.3147 -2.3405 0.9557
5.6481 9.5234 -2.3405 0.9557
0.9366 -9.9344 -2.3452 0.9598
1.2870 -9.8529 -2.3353 0.9600
1.6397 -9.8003 -2.3353 0.9600
1.9916 -9.7412 -2.3368 0.9600
2.3530 -9.7180 -2.3500 0.9597
2.7244 -9.7136 -2.3710 0.9594
3.1030 -9.7091 -2.3956 0.9590
3.4898 -9.7039 -2.4236 0.9585
4.6317 -9.5179 -2.4877 0.9574
4.9703 -9.3456 -2.4877 0.9574
5.3024 -9.1612 -2.4877 0.9574
5.6277 -8.9650 -2.4877 0.9574
5.9455 -8.7574 -2.4877 0.9574
6.2561 -8.5383 -2.4877 0.9574
7.4134 -7.5555 -2.4877 0.9574
7.6797 -7.2846 -2.4877 0.9574
7.9361 -7.0043 -2.4877 0.9574
8.1823 -6.7150 -2.4877 0.9574
8.4180 -6.4172 -2.4877 0.9574
8.8566 -5.7969 -2.4877 0.9574
9.8907 -3.7705 -2.4877 0.9574
10.0196 -3.4132 -2.4877 0.9574
10.4049 -1.9446 -2.4877 0.9574
10.4679 -1.5700 -2.4877 0.9574
10.5175 -1.1934 -2.4877 0.9574
10.5536 -0.8153 -2.4877 0.9574
10.5801 0.3236 -2.4877 0.9574
10.5617 0.7030 -2.4877 0.9574
10.3524 2.2068 -2.4877 0.9574
10.2666 2.5768 -2.4877 0.9574
9.9302 3.6652 -2.4877 0.9574
9.6418 4.3679 -2.4877 0.9574
8.7074 6.0187 -2.4877 0.9574
8.3166 6.2011 -2.4381 0.9583
7.7576 6.2296 -2.3383 0.9599
7.2847 6.7642 -2.3363 0.9600
6.7848 7.2735 -2.3377 0.9600
5.3844 8.3782 -2.3406 0.9599
5.0802 8.5660 -2.3406 0.9599
0.9018 -9.5657 -2.4877 0.9611
2.5947 -9.2512 -2.4877 0.9611
3.2515 -9.0413 -2.4877 0.9611
3.5738 -8.9188 -2.4877 0.9611
4.8130 -8.3157 -2.4877 0.9611
5.3970 -7.9491 -2.4877 0.9611
6.7292 -6.8582 -2.4877 0.9611
7.2037 -6.3579 -2.4877 0.9611
7.8452 -5.5470 -2.4877 0.9611
8.0392 -5.2619 -2.4877 0.9611
8.5581 -4.3675 -2.4877 0.9611
8.7093 -4.0577 -2.4877 0.9611
8.9779 -3.4226 -2.4877 0.9611
9.0949 -3.0982 -2.4877 0.9611
9.2002 -2.7699 -2.4877 0.9611
9.2937 -2.4380 -2.4877 0.9611
9.3752 -2.1029 -2.4877 0.9611
9.5019 -1.4251 -2.4877 0.9611
9.5469 -1.0833 -2.4877 0.9611
9.5796 -0.7400 -2.4877 0.9611
9.6000 -0.3958 -2.4877 0.9611
9.6080 -0.0511 -2.4877 0.9611
9.5579 0.9817 -2.4877 0.9611
9.4629 1.6647 -2.4877 0.9611
9.3191 2.3390 -2.4877 0.9611
9.2292 2.6719 -2.4877 0.9611
8.8886 3.6482 -2.4877 0.9611
8.7520 3.9648 -2.4877 0.9611
8.6041 4.2763 -2.4877 0.9611
8.4451 4.5823 -2.4877 0.9611
8.0947 5.1761 -2.4877 0.9611
7.4916 6.0160 -2.4877 0.9611
6.6929 6.2147 -2.3648 0.9630
6.3957 6.3811 -2.3392 0.9634
6.1539 6.5971 -2.3359 0.9634
5.1515 7.4166 -2.3381 0.9634
4.8831 7.5983 -2.3386 0.9634
0.8248 -8.7489 -2.4877 0.9641
1.4502 -8.6672 -2.4877 0.9641
2.0680 -8.5408 -2.4877 0.9641
2.3731 -8.4612 -2.4877 0.9641
4.1263 -7.7587 -2.4877 0.9641
4.4020 -7.6056 -2.4877 0.9641
5.9255 -6.4893 -2.4877 0.9641
6.1545 -6.2725 -2.4877 0.9641
6.5886 -5.8150 -2.4877 0.9641
6.7930 -5.5748 -2.4877 0.9641
6.9886 -5.3275 -2.4877 0.9641
7.3527 -4.8126 -2.4877 0.9641
7.5206 -4.5456 -2.4877 0.9641
7.6789 -4.2728 -2.4877 0.9641
7.8273 -3.9946 -2.4877 0.9641
8.0936 -3.4229 -2.4877 0.9641
8.2112 -3.1303 -2.4877 0.9641
8.3182 -2.8337 -2.4877 0.9641
8.5746 -1.9233 -2.4877 0.9641
8.6381 -1.6145 -2.4877 0.9641
8.7616 -0.6768 -2.4877 0.9641
8.7802 -0.3620 -2.4877 0.9641
8.7875 -0.0467 -2.4877 0.9641
8.7417 0.8979 -2.4877 0.9641
8.6548 1.5225 -2.4877 0.9641
8.4410 2.4437 -2.4877 0.9641
8.0046 3.6262 -2.4877 0.9641
7.8693 3.9111 -2.4877 0.9641
7.0449 5.2529 -2.4877 0.9641
6.8519 5.5023 -2.4877 0.9641
6.6500 5.7446 -2.4877 0.9641
6.4396 5.9795 -2.4877 0.9641
6.2071 6.1930 -2.4822 0.9642
5.7905 6.2076 -2.4032 0.9653
5.1801 6.4206 -2.3354 0.9663
4.4628 6.9442 -2.3368 0.9663
4.2115 7.1011 -2.3372 0.9663
0.7592 -8.0524 -2.4877 0.9667
1.0476 -8.0200 -2.4877 0.9667
1.9034 -7.8609 -2.4877 0.9667
2.1842 -7.7876 -2.4877 0.9667
2.4622 -7.7042 -2.4877 0.9667
3.0084 -7.5078 -2.4877 0.9667
3.5391 -7.2727 -2.4877 0.9667
4.5432 -6.6916 -2.4877 0.9667
5.4538 -5.9727 -2.4877 0.9667
6.0641 -5.3521 -2.4877 0.9667
6.4323 -4.9034 -2.4877 0.9667
6.6041 -4.6694 -2.4877 0.9667
6.9219 -4.1838 -2.4877 0.9667
7.0676 -3.9327 -2.4877 0.9667
7.2042 -3.6766 -2.4877 0.9667
7.3315 -3.4157 -2.4877 0.9667
7.5575 -2.8811 -2.4877 0.9667
7.6561 -2.6081 -2.4877 0.9667
7.7447 -2.3317 -2.4877 0.9667
7.8234 -2.0523 -2.4877 0.9667
7.8920 -1.7703 -2.4877 0.9667
7.9504 -1.4859 -2.4877 0.9667
8.0365 -0.9119 -2.4877 0.9667
8.0880 -0.0430 -2.4877 0.9667
8.0843 0.2472 -2.4877 0.9667
8.0702 0.5372 -2.4877 0.9667
7.9104 1.6862 -2.4877 0.9667
7.8448 1.9690 -2.4877 0.9667
7.6834 2.5265 -2.4877 0.9667
7.4824 3.0711 -2.4877 0.9667
7.3674 3.3375 -2.4877 0.9667
7.2429 3.5998 -2.4877 0.9667
6.8141 4.3572 -2.4877 0.9667
6.6534 4.5989 -2.4877 0.9667
6.3064 5.0642 -2.4877 0.9667
5.9270 5.5035 -2.4877 0.9667
5.7257 5.7126 -2.4877 0.9667
5.5170 5.9144 -2.4877 0.9667
5.3012 6.1085 -2.4877 0.9667
4.6529 6.2106 -2.3869 0.9680
4.3314 6.2359 -2.3353 0.9687
4.1049 6.3873 -2.3353 0.9687
3.8737 6.5316 -2.3357 0.9687
0.7025 -7.4510 -2.4877 0.9689
1.2350 -7.3814 -2.4877 0.9689
1.4991 -7.3323 -2.4877 0.9689
1.7612 -7.2738 -2.4877 0.9689
2.2783 -7.1288 -2.4877 0.9689
2.7837 -6.9470 -2.4877 0.9689
3.0312 -6.8426 -2.4877 0.9689
3.5142 -6.6077 -2.4877 0.9689
3.9790 -6.3386 -2.4877 0.9689
4.4233 -6.0369 -2.4877 0.9689
4.6371 -5.8743 -2.4877 0.9689
4.8449 -5.7041 -2.4877 0.9689
5.0465 -5.5266 -2.4877 0.9689
5.2415 -5.3420 -2.4877 0.9689
5.4298 -5.1505 -2.4877 0.9689
5.6111 -4.9523 -2.4877 0.9689
6.1108 -4.3207 -2.4877 0.9689
6.5397 -3.6390 -2.4877 0.9689
6.6661 -3.4019 -2.4877 0.9689
6.7839 -3.1606 -2.4877 0.9689
6.8929 -2.9151 -2.4877 0.9689
7.0842 -2.4133 -2.4877 0.9689
7.1663 -2.1575 -2.4877 0.9689
7.2391 -1.8990 -2.4877 0.9689
7.3566 -1.3749 -2.4877 0.9689
7.4012 -1.1101 -2.4877 0.9689
7.4618 -0.5764 -2.4877 0.9689
7.4839 -0.0398 -2.4877 0.9689
7.4448 0.7647 -2.4877 0.9689
7.3196 1.5603 -2.4877 0.9689
7.2589 1.8219 -2.4877 0.9689
7.1888 2.0812 -2.4877 0.9689
6.9235 2.8417 -2.4877 0.9689
6.8171 3.0883 -2.4877 0.9689
6.5781 3.5692 -2.4877 0.9689
6.1564 4.2554 -2.4877 0.9689
5.9998 4.4736 -2.4877 0.9689
5.8354 4.6860 -2.4877 0.9689
5.6635 4.8924 -2.4877 0.9689
5.4843 5.0924 -2.4877 0.9689
5.1049 5.4727 -2.4877 0.9689
4.6993 5.8247 -2.4877 0.9689
3.9839 6.1990 -2.4494 0.9694
0.9010 -6.8980 -2.4877 0.9709
1.1480 -6.8612 -2.4877 0.9709
1.3934 -6.8156 -2.4877 0.9709
1.6371 -6.7612 -2.4877 0.9709
1.8787 -6.6981 -2.4877 0.9709
2.1178 -6.6264 -2.4877 0.9709
2.3542 -6.5461 -2.4877 0.9709
2.5876 -6.4575 -2.4877 0.9709
2.8176 -6.3604 -2.4877 0.9709
3.2665 -6.1420 -2.4877 0.9709
3.4848 -6.0208 -2.4877 0.9709
3.6986 -5.8919 -2.4877 0.9709
4.1116 -5.6115 -2.4877 0.9709
4.3103 -5.4604 -2.4877 0.9709
4.8721 -4.9655 -2.4877 0.9709
5.0472 -4.7875 -2.4877 0.9709
5.2157 -4.6033 -2.4877 0.9709
5.3775 -4.4132 -2.4877 0.9709
5.5324 -4.2174 -2.4877 0.9709
5.6802 -4.0162 -2.4877 0.9709
5.8206 -3.8098 -2.4877 0.9709
6.0789 -3.3825 -2.4877 0.9709
6.1963 -3.1622 -2.4877 0.9709
6.4072 -2.7097 -2.4877 0.9709
6.5003 -2.4780 -2.4877 0.9709
6.7289 -1.7652 -2.4877 0.9709
6.7879 -1.5226 -2.4877 0.9709
6.8382 -1.2781 -2.4877 0.9709
6.8796 -1.0318 -2.4877 0.9709
6.9122 -0.7843 -2.4877 0.9709
6.9359 -0.5358 -2.4877 0.9709
6.9507 -0.2866 -2.4877 0.9709
6.9533 0.2127 -2.4877 0.9709
6.9202 0.7108 -2.4877 0.9709
6.7473 1.6935 -2.4877 0.9709
6.4356 2.6414 -2.4877 0.9709
6.2296 3.0962 -2.4877 0.9709
6.1145 3.3177 -2.4877 0.9709
5.7226 3.9556 -2.4877 0.9709
5.5769 4.1583 -2.4877 0.9709
5.4241 4.3558 -2.4877 0.9709
4.9247 4.9134 -2.4877 0.9709
4.5596 5.2539 -2.4877 0.9709
4.1710 5.5675 -2.4877 0.9709
3.5486 5.9834 -2.4877 0.9709
0.8408 -6.4370 -2.4877 0.9726
1.0713 -6.4027 -2.4877 0.9726
1.5277 -6.3093 -2.4877 0.9726
2.4146 -6.0259 -2.4877 0.9726
2.8406 -5.8372 -2.4877 0.9726
3.0482 -5.7315 -2.4877 0.9726
3.2519 -5.6185 -2.4877 0.9726
3.4514 -5.4981 -2.4877 0.9726
3.6465 -5.3707 -2.4877 0.9726
4.0222 -5.0954 -2.4877 0.9726
4.2025 -4.9478 -2.4877 0.9726
4.3773 -4.7938 -2.4877 0.9726
4.5465 -4.6337 -2.4877 0.9726
4.8671 -4.2957 -2.4877 0.9726
5.0181 -4.1183 -2.4877 0.9726
5.3006 -3.7478 -2.4877 0.9726
5.5557 -3.3580 -2.4877 0.9726
5.8844 -2.7415 -2.4877 0.9726
6.0658 -2.3124 -2.4877 0.9726
6.1449 -2.0933 -2.4877 0.9726
6.2161 -1.8714 -2.4877 0.9726
6.3343 -1.4208 -2.4877 0.9726
6.3812 -1.1926 -2.4877 0.9726
6.4503 -0.7319 -2.4877 0.9726
6.4724 -0.5000 -2.4877 0.9726
6.4862 -0.2674 -2.4877 0.9726
6.4916 -0.0345 -2.4877 0.9726
6.4886 0.1984 -2.4877 0.9726
6.4577 0.6633 -2.4877 0.9726
6.4297 0.8946 -2.4877 0.9726
6.3935 1.1247 -2.4877 0.9726
6.0901 2.2478 -2.4877 0.9726
5.9132 2.6788 -2.4877 0.9726
5.7059 3.0960 -2.4877 0.9726
5.4691 3.4972 -2.4877 0.9726
5.3401 3.6912 -2.4877 0.9726
5.2042 3.8804 -2.4877 0.9726
5.0616 4.0647 -2.4877 0.9726
4.9125 4.2437 -2.4877 0.9726
4.7571 4.4172 -2.4877 0.9726
4.5955 4.5851 -2.4877 0.9726
4.0762 5.0524 -2.4877 0.9726
3.3115 5.5836 -2.4877 0.9726
1.0031 -5.9950 -2.4877 0.9741
1.2175 -5.9552 -2.4877 0.9741
1.4304 -5.9077 -2.4877 0.9741
1.6415 -5.8525 -2.4877 0.9741
1.8504 -5.7899 -2.4877 0.9741
2.2609 -5.6422 -2.4877 0.9741
3.0449 -5.2607 -2.4877 0.9741
3.2317 -5.1481 -2.4877 0.9741
3.4143 -5.0288 -2.4877 0.9741
3.5926 -4.9031 -2.4877 0.9741
3.7662 -4.7710 -2.4877 0.9741
3.9349 -4.6328 -2.4877 0.9741
4.0986 -4.4886 -2.4877 0.9741
4.2571 -4.3387 -2.4877 0.9741
4.4100 -4.1831 -2.4877 0.9741
4.5573 -4.0222 -2.4877 0.9741
4.8340 -3.6850 -2.4877 0.9741
4.9631 -3.5092 -2.4877 0.9741
5.0858 -3.3288 -2.4877 0.9741
5.4141 -2.7630 -2.4877 0.9741
5.5097 -2.5670 -2.4877 0.9741
5.7537 -1.9600 -2.4877 0.9741
5.8203 -1.7523 -2.4877 0.9741
5.8794 -1.5423 -2.4877 0.9741
5.9310 -1.3304 -2.4877 0.9741
6.0111 -0.9016 -2.4877 0.9741
6.0396 -0.6853 -2.4877 0.9741
6.0603 -0.4681 -2.4877 0.9741
6.0783 -0.0323 -2.4877 0.9741
6.0755 0.1858 -2.4877 0.9741
6.0650 0.4037 -2.4877 0.9741
6.0466 0.6210 -2.4877 0.9741
5.9864 1.0531 -2.4877 0.9741
5.8386 1.6903 -2.4877 0.9741
5.0001 3.4562 -2.4877 0.9741
4.8729 3.6334 -2.4877 0.9741
4.7394 3.8059 -2.4877 0.9741
4.3030 4.2932 -2.4877 0.9741
4.1461 4.4448 -2.4877 0.9741
3.9840 4.5907 -2.4877 0.9741
3.8167 4.7307 -2.4877 0.9741
3.2862 5.1134 -2.4877 0.9741
3.1005 5.2281 -2.4877 0.9741
0.5358 -5.6830 -2.4877 0.9754
1.1434 -5.5925 -2.4877 0.9754
1.5415 -5.4961 -2.4877 0.9754
1.9317 -5.3714 -2.4877 0.9754
2.6803 -5.0398 -2.4877 0.9754
3.3738 -4.6045 -2.4877 0.9754
3.5368 -4.4804 -2.4877 0.9754
3.9978 -4.0744 -2.4877 0.9754
4.1414 -3.9284 -2.4877 0.9754
4.5396 -3.4606 -2.4877 0.9754
4.7761 -3.1261 -2.4877 0.9754
5.2574 -2.2234 -2.4877 0.9754
5.4033 -1.8406 -2.4877 0.9754
5.4658 -1.6456 -2.4877 0.9754
5.5698 -1.2494 -2.4877 0.9754
5.6110 -1.0487 -2.4877 0.9754
5.7081 -0.0304 -2.4877 0.9754
5.6956 0.3791 -2.4877 0.9754
5.6537 0.7866 -2.4877 0.9754
5.6219 0.9890 -2.4877 0.9754
5.5828 1.1900 -2.4877 0.9754
5.4830 1.5874 -2.4877 0.9754
5.1995 2.3555 -2.4877 0.9754
5.1117 2.5405 -2.4877 0.9754
4.9163 2.9006 -2.4877 0.9754
4.6956 3.2457 -2.4877 0.9754
4.5761 3.4121 -2.4877 0.9754
4.4508 3.5741 -2.4877 0.9754
4.3196 3.7315 -2.4877 0.9754
4.0409 4.0317 -2.4877 0.9754
3.7414 4.3111 -2.4877 0.9754
3.5843 4.4426 -2.4877 0.9754
3.4225 4.5683 -2.4877 0.9754
3.2564 4.6882 -2.4877 0.9754
3.0861 4.8020 -2.4877 0.9754
0.5044 -5.3507 -2.4877 0.9766
0.6961 -5.3291 -2.4877 0.9766
0.8869 -5.3007 -2.4877 0.9766
1.2648 -5.2235 -2.4877 0.9766
1.4514 -5.1747 -2.4877 0.9766
1.8188 -5.0573 -2.4877 0.9766
1.9991 -4.9888 -2.4877 0.9766
2.5236 -4.7451 -2.4877 0.9766
2.8574 -4.5519 -2.4877 0.9766
3.0189 -4.4464 -2.4877 0.9766
3.3300 -4.2184 -2.4877 0.9766
3.6239 -3.9688 -2.4877 0.9766
4.1545 -3.4095 -2.4877 0.9766
4.3883 -3.1028 -2.4877 0.9766
4.5995 -2.7800 -2.4877 0.9766
4.6963 -2.6132 -2.4877 0.9766
4.9499 -2.0934 -2.4877 0.9766
5.0219 -1.9144 -2.4877 0.9766
5.1462 -1.5494 -2.4877 0.9766
5.2441 -1.1763 -2.4877 0.9766
5.3401 -0.6059 -2.4877 0.9766
5.3698 -0.2214 -2.4877 0.9766
5.3719 0.1643 -2.4877 0.9766
5.3625 0.3569 -2.4877 0.9766
5.3231 0.7406 -2.4877 0.9766
5.1055 1.6788 -2.4877 0.9766
5.0419 1.8609 -2.4877 0.9766
4.8955 2.2177 -2.4877 0.9766
4.5278 2.8953 -2.4877 0.9766
4.3085 3.2126 -2.4877 0.9766
3.8046 3.7959 -2.4877 0.9766
3.5226 4.0590 -2.4877 0.9766
3.3747 4.1828 -2.4877 0.9766
3.0660 4.4140 -2.4877 0.9766
2.7415 4.6225 -2.4877 0.9766
0.8369 -5.0020 -2.4877 0.9777
1.0159 -4.9688 -2.4877 0.9777
1.3696 -4.8831 -2.4877 0.9777
1.5439 -4.8308 -2.4877 0.9777
2.0541 -4.6370 -2.4877 0.9777
2.2192 -4.5603 -2.4877 0.9777
2.5405 -4.3894 -2.4877 0.9777
2.6964 -4.2954 -2.4877 0.9777
3.1424 -3.9807 -2.4877 0.9777
3.5519 -3.6200 -2.4877 0.9777
3.8024 -3.3560 -2.4877 0.9777
3.9204 -3.2174 -2.4877 0.9777
4.0333 -3.0746 -2.4877 0.9777
4.2434 -2.7775 -2.4877 0.9777
4.3403 -2.6234 -2.4877 0.9777
4.7389 -1.8066 -2.4877 0.9777
4.8563 -1.4621 -2.4877 0.9777
4.9056 -1.2869 -2.4877 0.9777
5.0155 -0.7522 -2.4877 0.9777
5.0565 -0.3906 -2.4877 0.9777
5.0673 -0.2089 -2.4877 0.9777
5.0715 -0.0270 -2.4877 0.9777
5.0450 0.5182 -2.4877 0.9777
5.0232 0.6989 -2.4877 0.9777
4.8715 1.4103 -2.4877 0.9777
4.7578 1.7561 -2.4877 0.9777
4.6918 1.9257 -2.4877 0.9777
4.5416 2.2572 -2.4877 0.9777
4.2727 2.7322 -2.4877 0.9777
4.0658 3.0315 -2.4877 0.9777
3.9544 3.1755 -2.4877 0.9777
3.8379 3.3154 -2.4877 0.9777
3.5902 3.5820 -2.4877 0.9777
3.4594 3.7086 -2.4877 0.9777
3.3241 3.8303 -2.4877 0.9777
3.0408 4.0589 -2.4877 0.9777
2.8932 4.1654 -2.4877 0.9777
2.5871 4.3621 -2.4877 0.9777
0.4501 -4.7741 -2.4877 0.9786
1.1285 -4.6607 -2.4877 0.9786
1.2950 -4.6172 -2.4877 0.9786
1.4598 -4.5678 -2.4877 0.9786
1.7837 -4.4513 -2.4877 0.9786
1.9422 -4.3844 -2.4877 0.9786
2.4021 -4.1503 -2.4877 0.9786
2.5495 -4.0614 -2.4877 0.9786
2.6936 -3.9673 -2.4877 0.9786
2.9712 -3.7640 -2.4877 0.9786
3.2335 -3.5412 -2.4877 0.9786
3.4791 -3.3001 -2.4877 0.9786
3.5953 -3.1732 -2.4877 0.9786
3.7069 -3.0421 -2.4877 0.9786
3.8136 -2.9072 -2.4877 0.9786
3.9155 -2.7684 -2.4877 0.9786
4.1903 -2.3317 -2.4877 0.9786
4.2713 -2.1798 -2.4877 0.9786
4.3467 -2.0251 -2.4877 0.9786
4.4166 -1.8679 -2.4877 0.9786
4.7931 0.1466 -2.4877 0.9786
4.7848 0.3185 -2.4877 0.9786
4.7496 0.6608 -2.4877 0.9786
4.6062 1.3335 -2.4877 0.9786
4.5554 1.4979 -2.4877 0.9786
4.2942 2.1343 -2.4877 0.9786
4.2149 2.2870 -2.4877 0.9786
4.1301 2.4367 -2.4877 0.9786
3.9447 2.7267 -2.4877 0.9786
3.8443 2.8664 -2.4877 0.9786
3.5140 3.2630 -2.4877 0.9786
3.0111 3.7321 -2.4877 0.9786
2.5926 4.0341 -2.4877 0.9786
2.4461 4.1245 -2.4877 0.9786
0.5883 -4.5038 -2.4877 0.9795
1.3827 -4.3265 -2.4877 0.9795
1.6895 -4.2162 -2.4877 0.9795
2.1328 -4.0102 -2.4877 0.9795
2.4149 -3.8469 -2.4877 0.9795
2.5514 -3.7578 -2.4877 0.9795
2.8143 -3.5652 -2.4877 0.9795
2.9404 -3.4619 -2.4877 0.9795
3.0627 -3.3542 -2.4877 0.9795
3.1811 -3.2421 -2.4877 0.9795
3.5111 -2.8815 -2.4877 0.9795
3.6122 -2.7537 -2.4877 0.9795
3.7087 -2.6222 -2.4877 0.9795
3.8004 -2.4875 -2.4877 0.9795
3.8872 -2.3495 -2.4877 0.9795
4.0457 -2.0647 -2.4877 0.9795
4.2442 -1.6180 -2.4877 0.9795
4.3934 -1.1525 -2.4877 0.9795
4.4648 -0.8345 -2.4877 0.9795
4.5286 -0.3498 -2.4877 0.9795
4.5420 -0.0242 -2.4877 0.9795
4.5183 0.4641 -2.4877 0.9795
4.4734 0.7870 -2.4877 0.9795
4.4423 0.9470 -2.4877 0.9795
4.4055 1.1057 -2.4877 0.9795
4.3629 1.2631 -2.4877 0.9795
4.0674 2.0215 -2.4877 0.9795
3.9923 2.1662 -2.4877 0.9795
3.8266 2.4469 -2.4877 0.9795
3.6413 2.7151 -2.4877 0.9795
3.4372 2.9692 -2.4877 0.9795
3.3285 3.0906 -2.4877 0.9795
3.2154 3.2081 -2.4877 0.9795
2.5912 3.7305 -2.4877 0.9795
2.4557 3.8211 -2.4877 0.9795
2.3170 3.9067 -2.4877 0.9795
0.4044 -4.2898 -2.4877 0.9803
0.7111 -4.2498 -2.4877 0.9803
0.8631 -4.2216 -2.4877 0.9803
1.0140 -4.1879 -2.4877 0.9803
1.6027 -3.9997 -2.4877 0.9803
1.8854 -3.8745 -2.4877 0.9803
2.0232 -3.8043 -2.4877 0.9803
2.5467 -3.4757 -2.4877 0.9803
2.7894 -3.2841 -2.4877 0.9803
2.9055 -3.1819 -2.4877 0.9803
3.1262 -2.9653 -2.4877 0.9803
3.2306 -2.8513 -2.4877 0.9803
3.3308 -2.7335 -2.4877 0.9803
3.6876 -2.2289 -2.4877 0.9803
3.8380 -1.9587 -2.4877 0.9803
3.9686 -1.6784 -2.4877 0.9803
4.0787 -1.3895 -2.4877 0.9803
4.1678 -1.0933 -2.4877 0.9803
4.2044 -0.9431 -2.4877 0.9803
4.2814 -0.4858 -2.4877 0.9803
4.2961 -0.3319 -2.4877 0.9803
4.3052 -0.1775 -2.4877 0.9803
4.3069 0.1317 -2.4877 0.9803
4.2863 0.4403 -2.4877 0.9803
4.2678 0.5938 -2.4877 0.9803
4.1792 1.0489 -2.4877 0.9803
4.1389 1.1982 -2.4877 0.9803
4.0933 1.3460 -2.4877 0.9803
3.7111 2.1895 -2.4877 0.9803
3.5445 2.4500 -2.4877 0.9803
3.3597 2.6979 -2.4877 0.9803
3.2607 2.8168 -2.4877 0.9803
3.1575 2.9319 -2.4877 0.9803
3.0503 3.0433 -2.4877 0.9803
2.7056 3.3535 -2.4877 0.9803
