ply
format ascii 1.0
element vertex 855
property float32 x
property float32 y
property float32 z
property float32 I
end_header
39.8115 8.7526 7.1875 0.8474
39.7931 8.7486 6.2417 0.8480
1.2470 9.2637 1.4320 0.9629
-0.3873 39.5549 6.0599 0.8521
39.7922 8.7484 5.3055 0.8484
-0.3880 39.6290 4.2556 0.8526
1.2470 9.2637 0.7913 0.9632
-0.3879 39.6194 3.3541 0.8530
-0.7710 16.8620 1.4289 0.9345
44.1022 20.3226 3.0112 0.8232
42.6301 23.4888 3.0182 0.8228
1.2470 9.2637 0.5796 0.9632
42.6301 23.4888 1.9192 0.8230
42.6743 25.5514 1.9613 0.8195
1.2470 9.2637 0.3686 0.9633
-0.3877 39.6002 1.5616 0.8534
-0.7708 16.8588 0.6655 0.9347
39.7710 8.7437 0.6878 0.8497
44.0992 20.3212 0.8202 0.8235
42.5876 21.5102 0.8059 0.8262
42.6301 23.4888 0.8222 0.8231
42.6743 25.5514 0.8402 0.8196
-0.3876 39.5906 0.6688 0.8535
-1.9976 12.9211 0.2209 0.9490
39.7668 8.7428 -0.2292 0.8497
1.2470 9.2637 -0.0526 0.9633
-0.3875 39.5810 -0.2229 0.8536
-0.6798 14.8676 -0.0838 0.9422
-1.3165 16.0992 -0.0909 0.9374
-1.9762 12.7824 -0.0728 0.9496
42.5876 21.5102 -1.3435 0.8262
1.2470 9.2637 -0.2632 0.9633
-1.5127 12.8160 -0.3634 0.9497
-1.9762 12.7824 -0.3642 0.9496
49.0757 -3.4797 -2.4951 0.8212
49.1653 1.8156 -2.4951 0.8212
49.0685 3.5791 -2.4951 0.8212
45.7259 6.6589 -2.3434 0.8310
45.5429 8.3114 -2.3478 0.8308
44.8224 11.5553 -2.3475 0.8308
43.3053 16.3006 -2.3466 0.8308
42.0147 19.3607 -2.3461 0.8309
40.5086 22.3199 -2.3456 0.8309
39.6771 23.7569 -2.3453 0.8309
37.8628 26.5364 -2.3448 0.8310
36.8822 27.8755 -2.3446 0.8310
35.8575 29.1809 -2.3446 0.8310
34.7863 30.4486 -2.3445 0.8310
33.6705 31.6769 -2.3445 0.8310
26.1090 38.1226 -2.3433 0.8311
24.7184 39.0263 -2.3428 0.8311
23.3039 39.8921 -2.3430 0.8311
21.8607 40.7095 -2.3434 0.8310
20.3888 41.4746 -2.3438 0.8310
18.8900 42.1864 -2.3441 0.8310
17.3664 42.8439 -2.3445 0.8310
15.8199 43.4461 -2.3449 0.8310
14.2524 43.9923 -2.3452 0.8309
11.0629 44.9140 -2.3459 0.8309
9.4450 45.2880 -2.3462 0.8309
7.8144 45.6036 -2.3465 0.8308
4.5239 46.0577 -2.3470 0.8308
-0.6798 14.8677 -0.7548 0.9421
-1.9762 12.7824 -0.6560 0.9495
-10.9855 47.9567 -2.4951 0.8212
-12.6997 47.5315 -2.4951 0.8212
-17.7353 45.8911 -2.4951 0.8212
-20.9817 44.5005 -2.4951 0.8212
-22.5654 43.7188 -2.4951 0.8212
-25.8763 39.1377 -2.3794 0.8287
-26.8432 37.5940 -2.3427 0.8311
33.8356 -3.6235 -2.4951 0.8724
33.9439 -2.4068 -2.4951 0.8724
34.0084 -1.1870 -2.4951 0.8724
34.0059 1.2558 -2.4951 0.8724
33.9389 2.4755 -2.4951 0.8724
33.8282 3.6921 -2.4951 0.8724
33.4762 6.1093 -2.4951 0.8724
30.9955 7.9907 -2.3470 0.8795
30.7009 9.1016 -2.3479 0.8795
29.9639 11.2788 -2.3475 0.8795
20.5915 8.6067 -1.6364 0.9144
28.0328 15.4458 -2.3468 0.8795
27.4583 16.4408 -2.3466 0.8795
26.8485 17.4144 -2.3464 0.8795
26.2043 18.3656 -2.3463 0.8796
24.8159 20.1953 -2.3459 0.8796
24.0739 21.0719 -2.3458 0.8796
22.4999 22.7443 -2.3458 0.8796
21.6688 23.5370 -2.3458 0.8796
18.0749 26.3917 -2.3454 0.8796
17.1134 27.0192 -2.3451 0.8796
16.1301 27.6118 -2.3447 0.8796
15.1264 28.1688 -2.3443 0.8796
14.1035 28.6893 -2.3440 0.8797
12.0057 29.6188 -2.3433 0.8797
10.9334 30.0265 -2.3430 0.8797
9.8472 30.3950 -2.3427 0.8797
8.7508 30.7319 -2.3429 0.8797
7.6429 31.0291 -2.3431 0.8797
6.5249 31.2862 -2.3433 0.8797
5.3982 31.5031 -2.3435 0.8797
-1.0472 12.8061 -0.9421 0.9498
-8.7839 32.8758 -2.4951 0.8724
-9.9582 32.5394 -2.4951 0.8724
-11.1197 32.1610 -2.4951 0.8724
-15.6076 30.2387 -2.4951 0.8724
-17.7367 29.0411 -2.4951 0.8724
-19.7743 27.6939 -2.4951 0.8724
25.9240 -1.8382 -2.4951 0.9008
25.9733 -0.9065 -2.4951 0.9008
25.9891 0.0263 -2.4951 0.9008
25.9714 0.9591 -2.4951 0.9008
25.7178 3.7452 -2.4951 0.9008
25.3829 5.5805 -2.4951 0.9008
24.0944 6.2116 -2.3888 0.9048
23.4100 6.9402 -2.3442 0.9065
22.8890 8.6156 -2.3480 0.9064
21.8264 11.0241 -2.3476 0.9064
21.4154 11.7997 -2.3474 0.9064
20.5114 13.3041 -2.3472 0.9064
19.5021 14.7396 -2.3469 0.9064
18.3926 16.0991 -2.3467 0.9064
17.1891 17.3759 -2.3465 0.9065
15.2215 19.1225 -2.3465 0.9065
12.3258 21.0996 -2.3460 0.9065
11.5593 21.5260 -2.3457 0.9065
10.7780 21.9245 -2.3455 0.9065
9.9831 22.2948 -2.3452 0.9065
8.3562 22.9487 -2.3447 0.9065
7.5264 23.2314 -2.3445 0.9065
6.6871 23.4843 -2.3442 0.9065
5.8393 23.7070 -2.3440 0.9065
4.9842 23.8991 -2.3438 0.9066
1.2470 9.2637 -0.8974 0.9631
1.5124 24.3584 -2.3430 0.9066
-0.2389 24.4004 -2.3427 0.9066
-1.0472 12.8061 -1.2335 0.9497
-4.8901 25.5249 -2.4951 0.9008
-7.5829 24.7776 -2.4877 0.9011
-8.4925 24.5625 -2.4951 0.9008
-9.3686 24.2418 -2.4951 0.9008
-10.2326 23.8899 -2.4951 0.9008
-11.0835 23.5072 -2.4951 0.9008
-11.9201 23.0943 -2.4951 0.9008
-14.3334 21.6792 -2.4951 0.9008
-15.1023 21.1508 -2.4951 0.9008
20.9523 -1.4856 -2.4951 0.9189
20.9921 -0.7327 -2.4951 0.9189
21.0049 0.0213 -2.4951 0.9189
20.9906 0.7752 -2.4951 0.9189
20.9492 1.5280 -2.4951 0.9189
20.8809 2.2790 -2.4951 0.9189
20.7856 3.0269 -2.4951 0.9189
20.6636 3.7710 -2.4951 0.9189
20.5149 4.5103 -2.4951 0.9189
20.3405 5.2437 -2.4951 0.9189
18.4695 6.9522 -2.3442 0.9236
18.2219 7.6163 -2.3460 0.9235
17.6433 8.9113 -2.3479 0.9235
16.9570 10.1531 -2.3477 0.9235
15.7653 11.9154 -2.3474 0.9235
14.3914 13.5393 -2.3471 0.9235
13.8956 14.0466 -2.3470 0.9235
13.3821 14.5358 -2.3469 0.9235
12.8516 15.0066 -2.3469 0.9235
11.1640 16.3010 -2.3469 0.9235
10.5718 16.6911 -2.3469 0.9235
9.9654 17.0589 -2.3468 0.9235
8.0718 18.0264 -2.3461 0.9235
7.4189 18.3029 -2.3459 0.9235
6.0858 18.7848 -2.3456 0.9235
5.4073 18.9897 -2.3454 0.9235
4.7218 19.1701 -2.3452 0.9236
4.0305 19.3258 -2.3450 0.9236
1.2470 9.2637 -1.1103 0.9630
1.2230 19.6984 -2.3444 0.9236
0.5152 19.7284 -2.3443 0.9236
-1.5127 12.8160 -1.5329 0.9493
-3.9523 20.6297 -2.4951 0.9189
-5.4220 20.2930 -2.4951 0.9189
-6.8638 19.8518 -2.4951 0.9189
-7.5719 19.5927 -2.4951 0.9189
-8.2702 19.3083 -2.4951 0.9189
-10.2978 18.3074 -2.4951 0.9189
-12.2059 17.0945 -2.4951 0.9189
17.5094 -1.8751 -2.4951 0.9313
17.5654 -1.2455 -2.4951 0.9313
17.5988 -0.6142 -2.4951 0.9313
17.6095 0.0178 -2.4951 0.9313
17.5975 0.6499 -2.4951 0.9313
17.5629 1.2810 -2.4951 0.9313
17.5056 1.9106 -2.4951 0.9313
17.4257 2.5377 -2.4951 0.9313
17.3234 3.1615 -2.4951 0.9313
16.4521 6.1927 -2.4908 0.9314
14.5078 7.9937 -2.3470 0.9353
14.2177 8.5129 -2.3480 0.9352
13.9025 9.0174 -2.3479 0.9352
13.5694 9.5102 -2.3478 0.9352
12.8512 10.4584 -2.3477 0.9353
12.4672 10.9125 -2.3476 0.9353
12.0671 11.3526 -2.3475 0.9353
11.6515 11.7780 -2.3474 0.9353
10.7759 12.5828 -2.3473 0.9353
9.8452 13.3230 -2.3472 0.9353
9.3607 13.6678 -2.3472 0.9353
8.3560 14.3041 -2.3472 0.9353
7.8370 14.5943 -2.3471 0.9353
5.1037 15.7534 -2.3463 0.9353
2.7961 16.3175 -2.3457 0.9353
1.6181 16.4742 -2.3454 0.9353
0.4316 16.5283 -2.3427 0.9354
-0.1619 16.5332 -2.3427 0.9354
-4.5456 17.0127 -2.4951 0.9313
-5.1532 16.8387 -2.4951 0.9313
-5.7543 16.6429 -2.4951 0.9313
-6.9334 16.1872 -2.4951 0.9313
-7.5099 15.9279 -2.4951 0.9313
-8.0767 15.6481 -2.4951 0.9313
-8.6332 15.3481 -2.4951 0.9313
-9.1785 15.0284 -2.4951 0.9313
-9.7120 14.6893 -2.4951 0.9313
-10.2329 14.3312 -2.4951 0.9313
15.1456 0.0153 -2.4951 0.9404
15.1353 0.5589 -2.4951 0.9404
15.0563 1.6432 -2.4951 0.9404
14.9876 2.1826 -2.4951 0.9404
14.3571 4.8233 -2.4951 0.9404
13.9741 5.8408 -2.4951 0.9404
12.4619 6.8664 -2.3440 0.9440
12.2136 7.3130 -2.3452 0.9439
11.9492 7.7505 -2.3463 0.9439
11.6690 8.1783 -2.3475 0.9439
11.0543 8.9961 -2.3479 0.9439
10.3799 9.7653 -2.3478 0.9439
10.0225 10.1313 -2.3477 0.9439
9.6521 10.4842 -2.3476 0.9439
9.2694 10.8237 -2.3476 0.9439
8.0517 11.7565 -2.3474 0.9439
7.6246 12.0379 -2.3474 0.9439
7.1876 12.3039 -2.3474 0.9439
6.7414 12.5539 -2.3474 0.9439
6.2863 12.7876 -2.3474 0.9439
4.8745 13.3868 -2.3470 0.9439
3.9011 13.7004 -2.3467 0.9439
3.4067 13.8308 -2.3466 0.9439
2.4055 14.0381 -2.3463 0.9439
1.2470 9.2637 -1.5399 0.9628
1.3921 14.1731 -2.3461 0.9439
0.8816 14.1991 -2.3437 0.9440
-1.1590 14.1733 -2.3427 0.9440
-1.6669 14.1225 -2.3427 0.9440
-2.8498 14.8752 -2.4951 0.9404
-3.3819 14.7633 -2.4951 0.9404
-4.9492 14.3142 -2.4951 0.9404
-5.9633 13.9223 -2.4951 0.9404
-6.4591 13.6993 -2.4951 0.9404
-8.8012 12.3260 -2.4951 0.9404
13.1990 -1.4135 -2.4951 0.9474
13.2664 -0.4630 -2.4951 0.9474
13.2745 0.0134 -2.4951 0.9474
13.1961 1.4403 -2.4951 0.9474
13.1359 1.9129 -2.4951 0.9474
13.0588 2.3832 -2.4951 0.9474
12.9649 2.8503 -2.4951 0.9474
12.7270 3.7731 -2.4951 0.9474
12.5834 4.2274 -2.4951 0.9474
12.2477 5.1192 -2.4951 0.9474
12.0560 5.5555 -2.4951 0.9474
11.8489 5.9846 -2.4951 0.9474
11.2639 6.2063 -2.4173 0.9490
10.6936 6.4029 -2.3427 0.9505
10.4615 6.7855 -2.3438 0.9505
9.0983 8.5596 -2.3480 0.9504
8.7851 8.8805 -2.3479 0.9504
8.4605 9.1899 -2.3479 0.9504
8.1250 9.4874 -2.3478 0.9504
7.0577 10.3051 -2.3477 0.9504
6.6831 10.5516 -2.3476 0.9504
5.9089 11.0037 -2.3476 0.9504
5.1043 11.3993 -2.3476 0.9504
4.6916 11.5745 -2.3475 0.9504
3.4198 12.0099 -2.3471 0.9504
2.5492 12.2232 -2.3469 0.9505
1.2470 9.2637 -1.7569 0.9627
0.7724 12.4398 -2.3427 0.9505
-0.1220 12.4631 -2.3427 0.9505
-1.4610 12.3778 -2.3427 0.9505
-1.9043 12.3174 -2.3427 0.9505
-3.8846 12.6934 -2.4951 0.9474
-6.0884 11.7959 -2.4951 0.9474
-7.3211 11.0731 -2.4951 0.9474
11.7367 -1.2569 -2.4951 0.9529
11.7742 -0.8349 -2.4951 0.9529
11.7957 0.4356 -2.4951 0.9529
11.6120 2.1192 -2.4951 0.9529
11.4301 2.9467 -2.4951 0.9529
11.3169 3.3551 -2.4951 0.9529
11.1892 3.7591 -2.4951 0.9529
11.0471 4.1582 -2.4951 0.9529
10.8907 4.5521 -2.4951 0.9529
10.1272 6.0637 -2.4951 0.9529
8.8446 6.6847 -2.3435 0.9557
8.6021 7.0004 -2.3443 0.9557
8.3482 7.3072 -2.3451 0.9557
7.8077 7.8925 -2.3467 0.9556
7.5217 8.1702 -2.3474 0.9556
7.2254 8.4369 -2.3480 0.9556
6.9178 8.6907 -2.3480 0.9556
6.2763 9.1642 -2.3479 0.9556
5.9432 9.3834 -2.3478 0.9556
4.8999 9.9675 -2.3477 0.9556
3.8001 10.4361 -2.3477 0.9556
3.4229 10.5653 -2.3476 0.9556
3.0413 10.6809 -2.3475 0.9556
0.2893 11.0791 -2.3427 0.9557
-0.5062 11.0713 -2.3427 0.9557
-1.2991 11.0064 -2.3427 0.9557
-2.0853 10.8849 -2.3427 0.9557
-2.6357 11.5058 -2.4951 0.9529
-3.8571 11.1558 -2.4951 0.9529
-5.0339 10.6766 -2.4951 0.9529
-5.4139 10.4890 -2.4951 0.9529
-6.1524 10.0736 -2.4951 0.9529
-6.5100 9.8463 -2.4951 0.9529
-6.8592 9.6063 -2.4951 0.9529
10.5898 -0.7508 -2.4951 0.9573
10.6163 0.0107 -2.4951 0.9573
10.5882 0.7723 -2.4951 0.9573
10.5537 1.1519 -2.4951 0.9573
10.4438 1.9060 -2.4951 0.9573
10.1785 3.0175 -2.4951 0.9573
10.0636 3.3809 -2.4951 0.9573
9.9358 3.7400 -2.4951 0.9573
9.7951 4.0941 -2.4951 0.9573
9.6419 4.4430 -2.4951 0.9573
9.1084 5.4537 -2.4951 0.9573
8.9068 5.7771 -2.4951 0.9573
8.2112 6.2060 -2.4190 0.9586
7.7313 6.2918 -2.3427 0.9599
7.5020 6.5665 -2.3432 0.9599
7.2637 6.8337 -2.3439 0.9598
6.7587 7.3414 -2.3452 0.9598
6.2179 7.8115 -2.3465 0.9598
5.6443 8.2414 -2.3476 0.9598
4.7264 8.8016 -2.3479 0.9598
4.4074 8.9654 -2.3479 0.9598
4.0827 9.1177 -2.3479 0.9598
3.4181 9.3870 -2.3479 0.9598
3.0789 9.5035 -2.3478 0.9598
2.7357 9.6075 -2.3477 0.9598
2.3890 9.6991 -2.3476 0.9598
2.0393 9.7782 -2.3476 0.9598
0.9744 9.9202 -2.3427 0.9599
0.6177 9.9487 -2.3427 0.9599
-0.0976 9.9674 -2.3427 0.9599
-1.8756 9.7899 -2.3427 0.9599
-2.2420 9.7874 -2.3598 0.9596
-2.7404 10.2566 -2.4951 0.9573
-3.8270 9.9025 -2.4951 0.9573
-4.5275 9.6025 -2.4951 0.9573
-4.8693 9.4338 -2.4951 0.9573
-5.2047 9.2530 -2.4951 0.9573
-6.1692 8.6399 -2.4951 0.9573
9.5818 -1.0261 -2.4951 0.9610
9.6307 -0.3361 -2.4951 0.9610
9.6366 0.0098 -2.4951 0.9610
9.6300 0.3556 -2.4951 0.9610
9.6111 0.7010 -2.4951 0.9610
9.5360 1.3887 -2.4951 0.9610
9.2391 2.7390 -2.4951 0.9610
9.1349 3.0689 -2.4951 0.9610
9.0188 3.3948 -2.4951 0.9610
8.7521 4.0330 -2.4951 0.9610
8.6017 4.3446 -2.4951 0.9610
8.4402 4.6505 -2.4951 0.9610
8.2678 4.9504 -2.4951 0.9610
7.8914 5.5308 -2.4951 0.9610
7.6878 5.8105 -2.4951 0.9610
7.4743 6.0826 -2.4951 0.9610
6.6153 6.2236 -2.3517 0.9632
6.3636 6.4327 -2.3428 0.9633
5.8887 6.8761 -2.3440 0.9633
5.6394 7.0847 -2.3446 0.9633
5.3828 7.2842 -2.3451 0.9633
5.1190 7.4743 -2.3456 0.9633
4.5714 7.8254 -2.3465 0.9632
3.9996 8.1361 -2.3474 0.9632
3.4067 8.4044 -2.3480 0.9632
2.4835 8.7217 -2.3480 0.9632
1.8500 8.8706 -2.3462 0.9633
1.5293 8.9250 -2.3445 0.9633
1.2072 8.9678 -2.3429 0.9633
0.5607 9.0306 -2.3427 0.9633
0.2362 9.0449 -2.3427 0.9633
-0.4133 9.0385 -2.3427 0.9633
-1.0606 8.9856 -2.3427 0.9633
-1.3824 8.9417 -2.3427 0.9633
-1.7025 8.8864 -2.3427 0.9633
-2.1420 9.3506 -2.4837 0.9611
-2.4875 9.3100 -2.4951 0.9610
-2.8200 9.2147 -2.4951 0.9610
-3.4738 8.9887 -2.4951 0.9610
-4.7244 8.3990 -2.4951 0.9610
-5.0228 8.2241 -2.4951 0.9610
-5.3147 8.0385 -2.4951 0.9610
-5.5998 7.8425 -2.4951 0.9610
8.7635 -0.9385 -2.4951 0.9640
8.7916 -0.6234 -2.4951 0.9640
8.8077 0.3253 -2.4951 0.9640
8.7903 0.6412 -2.4951 0.9640
8.5346 2.2003 -2.4951 0.9640
8.4501 2.5051 -2.4951 0.9640
8.3548 2.8068 -2.4951 0.9640
8.2486 3.1049 -2.4951 0.9640
8.1319 3.3989 -2.4951 0.9640
8.0047 3.6886 -2.4951 0.9640
7.5618 4.5277 -2.4951 0.9640
7.2175 5.0585 -2.4951 0.9640
6.6320 5.8050 -2.4951 0.9640
6.1304 6.1970 -2.4677 0.9644
5.3828 6.2854 -2.3427 0.9662
4.9196 6.6574 -2.3434 0.9662
4.6784 6.8311 -2.3439 0.9662
3.9191 7.2982 -2.3451 0.9661
3.6552 7.4354 -2.3455 0.9661
3.3864 7.5628 -2.3458 0.9661
3.1132 7.6805 -2.3461 0.9661
2.5548 7.8859 -2.3467 0.9661
2.2704 7.9733 -2.3469 0.9661
1.9792 8.0352 -2.3427 0.9662
1.6895 8.1010 -2.3427 0.9662
0.8089 8.2357 -2.3427 0.9662
0.5128 8.2594 -2.3427 0.9662
-0.3780 8.2667 -2.3427 0.9662
-0.6744 8.2478 -2.3427 0.9662
-1.5903 8.3008 -2.3926 0.9655
-1.9680 8.5912 -2.4951 0.9640
-2.5792 8.4278 -2.4951 0.9640
-3.4702 8.1018 -2.4951 0.9640
-4.3209 7.6818 -2.4951 0.9640
-4.5939 7.5218 -2.4951 0.9640
-5.1216 7.1728 -2.4951 0.9640
8.0659 -0.8638 -2.4951 0.9666
8.0917 -0.5737 -2.4951 0.9666
8.1071 -0.2829 -2.4951 0.9666
7.9802 1.4564 -2.4951 0.9666
7.9228 1.7419 -2.4951 0.9666
7.8552 2.0251 -2.4951 0.9666
7.3674 3.3950 -2.4951 0.9666
7.2408 3.6572 -2.4951 0.9666
7.1049 3.9148 -2.4951 0.9666
6.9598 4.1672 -2.4951 0.9666
6.8058 4.4144 -2.4951 0.9666
6.6429 4.6558 -2.4951 0.9666
6.4716 4.8912 -2.4951 0.9666
6.2918 5.1203 -2.4951 0.9666
6.1040 5.3429 -2.4951 0.9666
5.9083 5.5585 -2.4951 0.9666
5.7050 5.7670 -2.4951 0.9666
4.9371 6.2025 -2.4383 0.9674
4.5918 6.2139 -2.3765 0.9682
2.6083 7.1632 -2.3448 0.9686
2.3498 7.2529 -2.3450 0.9686
2.0859 7.3254 -2.3427 0.9686
1.2864 7.5071 -2.3427 0.9686
1.0161 7.5485 -2.3427 0.9686
0.7445 7.5801 -2.3427 0.9686
0.1988 7.6139 -2.3427 0.9686
-0.3479 7.6086 -2.3427 0.9686
-0.6207 7.5912 -2.3427 0.9686
-1.2082 7.8151 -2.4323 0.9674
-1.5264 7.9671 -2.4951 0.9666
-1.8113 7.9072 -2.4951 0.9666
-2.6508 7.6667 -2.4951 0.9666
-3.1939 7.4568 -2.4951 0.9666
-3.4595 7.3374 -2.4951 0.9666
-4.2282 6.9230 -2.4951 0.9666
-4.7139 6.6019 -2.4951 0.9666
7.4635 -0.7993 -2.4951 0.9689
7.4873 -0.5309 -2.4951 0.9689
7.5016 -0.2618 -2.4951 0.9689
7.5010 0.2770 -2.4951 0.9689
7.4863 0.5461 -2.4951 0.9689
7.3842 1.3476 -2.4951 0.9689
7.3311 1.6117 -2.4951 0.9689
7.2685 1.8738 -2.4951 0.9689
7.1966 2.1335 -2.4951 0.9689
6.9255 2.8947 -2.4951 0.9689
6.8172 3.1414 -2.4951 0.9689
6.5742 3.6224 -2.4951 0.9689
6.4400 3.8560 -2.4951 0.9689
6.1468 4.3081 -2.4951 0.9689
5.9882 4.5258 -2.4951 0.9689
5.6481 4.9438 -2.4951 0.9689
5.2789 5.3362 -2.4951 0.9689
5.0840 5.5223 -2.4951 0.9689
4.8825 5.7012 -2.4951 0.9689
4.4609 6.0368 -2.4951 0.9689
4.2407 6.1920 -2.4947 0.9689
3.9282 6.2021 -2.4403 0.9695
2.6479 6.5326 -2.3431 0.9707
1.6856 6.8431 -2.3427 0.9707
1.4389 6.8992 -2.3427 0.9707
1.1903 6.9464 -2.3427 0.9707
0.4367 7.0341 -2.3427 0.9707
-0.0690 7.0473 -2.3427 0.9707
-0.5907 7.2233 -2.4091 0.9699
-0.8799 7.4544 -2.4951 0.9689
-1.1468 7.4180 -2.4951 0.9689
-1.4124 7.3721 -2.4951 0.9689
-1.6760 7.3166 -2.4951 0.9689
-1.9376 7.2517 -2.4951 0.9689
-2.1966 7.1776 -2.4951 0.9689
-2.4528 7.0941 -2.4951 0.9689
-2.7058 7.0015 -2.4951 0.9689
-2.9554 6.8999 -2.4951 0.9689
-3.2011 6.7893 -2.4951 0.9689
-3.4427 6.6700 -2.4951 0.9689
-3.6799 6.5422 -2.4951 0.9689
-4.1398 6.2613 -2.4951 0.9689
-4.3618 6.1087 -2.4951 0.9689
6.9597 -0.4935 -2.4951 0.9708
6.9724 0.2575 -2.4951 0.9708
6.9587 0.5076 -2.4951 0.9708
6.9360 0.7570 -2.4951 0.9708
6.9043 1.0055 -2.4951 0.9708
6.8638 1.2527 -2.4951 0.9708
6.8144 1.4982 -2.4951 0.9708
6.7563 1.7418 -2.4951 0.9708
6.6894 1.9832 -2.4951 0.9708
6.6139 2.2220 -2.4951 0.9708
6.5299 2.4579 -2.4951 0.9708
6.2279 3.1456 -2.4951 0.9708
6.1109 3.3671 -2.4951 0.9708
5.2501 4.5954 -2.4951 0.9708
5.0818 4.7809 -2.4951 0.9708
4.9069 4.9602 -2.4951 0.9708
4.7257 5.1331 -2.4951 0.9708
3.9425 5.7565 -2.4951 0.9708
3.5194 6.0245 -2.4951 0.9708
3.3009 6.1469 -2.4951 0.9708
3.0463 6.1967 -2.4693 0.9711
2.2634 6.2159 -2.3656 0.9723
1.1064 6.4569 -2.3427 0.9726
0.8740 6.4925 -2.3427 0.9726
0.6404 6.5203 -2.3429 0.9726
0.4097 6.5991 -2.3644 0.9723
0.1752 6.7077 -2.3995 0.9719
-0.0669 6.8366 -2.4449 0.9714
-0.3187 6.9699 -2.4951 0.9708
-0.8179 6.9291 -2.4951 0.9708
-1.0660 6.8952 -2.4951 0.9708
-1.3128 6.8526 -2.4951 0.9708
-1.8010 6.7407 -2.4951 0.9708
-2.0418 6.6717 -2.4951 0.9708
-2.2799 6.5941 -2.4951 0.9708
6.5069 -0.2271 -2.4951 0.9725
6.5109 0.0066 -2.4951 0.9725
6.5064 0.2403 -2.4951 0.9725
6.4936 0.4736 -2.4951 0.9725
6.4724 0.7064 -2.4951 0.9725
6.4429 0.9382 -2.4951 0.9725
6.4051 1.1689 -2.4951 0.9725
6.3590 1.3981 -2.4951 0.9725
6.0935 2.2937 -2.4951 0.9725
6.0072 2.5109 -2.4951 0.9725
5.9133 2.7249 -2.4951 0.9725
5.7025 3.1421 -2.4951 0.9725
5.5861 3.3447 -2.4951 0.9725
5.1942 3.9258 -2.4951 0.9725
4.8992 4.2883 -2.4951 0.9725
4.2351 4.9452 -2.4951 0.9725
4.0549 5.0941 -2.4951 0.9725
3.4838 5.5004 -2.4951 0.9725
3.2842 5.6219 -2.4951 0.9725
3.0803 5.7362 -2.4951 0.9725
2.6608 5.9424 -2.4951 0.9725
1.7698 6.2154 -2.4765 0.9727
1.3117 6.2894 -2.4620 0.9729
1.0867 6.3420 -2.4658 0.9728
0.6364 6.4791 -2.4948 0.9725
-0.0637 6.5106 -2.4951 0.9725
-0.9948 6.4344 -2.4951 0.9725
-1.2251 6.3946 -2.4951 0.9725
-1.4538 6.3465 -2.4951 0.9725
-2.1276 6.1535 -2.4951 0.9725
-2.5635 5.9850 -2.4951 0.9725
-2.7767 5.8891 -2.4951 0.9725
-3.1920 5.6748 -2.4951 0.9725
-3.5909 5.4311 -2.4951 0.9725
-3.7835 5.2988 -2.4951 0.9725
6.0617 -0.6492 -2.4951 0.9740
6.0811 -0.4312 -2.4951 0.9740
6.0926 -0.2127 -2.4951 0.9740
6.0963 0.0062 -2.4951 0.9740
6.0922 0.2250 -2.4951 0.9740
6.0802 0.4435 -2.4951 0.9740
6.0604 0.6614 -2.4951 0.9740
6.0327 0.8785 -2.4951 0.9740
5.9973 1.0945 -2.4951 0.9740
5.9542 1.3090 -2.4951 0.9740
5.9033 1.5219 -2.4951 0.9740
5.8449 1.7328 -2.4951 0.9740
5.6248 2.3510 -2.4951 0.9740
5.5368 2.5514 -2.4951 0.9740
5.3395 2.9420 -2.4951 0.9740
5.1147 3.3175 -2.4951 0.9740
4.8635 3.6759 -2.4951 0.9740
4.7284 3.8481 -2.4951 0.9740
4.4402 4.1773 -2.4951 0.9740
4.2874 4.3340 -2.4951 0.9740
4.1291 4.4851 -2.4951 0.9740
3.9655 4.6304 -2.4951 0.9740
3.4448 5.0298 -2.4951 0.9740
3.2620 5.1502 -2.4951 0.9740
3.0750 5.2640 -2.4951 0.9740
2.4914 5.5640 -2.4951 0.9740
2.2901 5.6498 -2.4951 0.9740
2.0859 5.7284 -2.4951 0.9740
1.8789 5.7996 -2.4951 0.9740
1.4580 5.9195 -2.4951 0.9740
0.8133 6.0419 -2.4951 0.9740
0.5959 6.0672 -2.4951 0.9740
0.1591 6.0943 -2.4951 0.9740
-0.2784 6.0900 -2.4951 0.9740
-0.7146 6.0543 -2.4951 0.9740
-0.9314 6.0248 -2.4951 0.9740
-1.1471 5.9875 -2.4951 0.9740
-1.3612 5.9425 -2.4951 0.9740
-1.5737 5.8897 -2.4951 0.9740
-1.9921 5.7617 -2.4951 0.9740
-2.4003 5.6039 -2.4951 0.9740
-2.7961 5.4173 -2.4951 0.9740
-2.9888 5.3135 -2.4951 0.9740
-3.1776 5.2028 -2.4951 0.9740
-3.3622 5.0853 -2.4951 0.9740
-3.5426 4.9614 -2.4951 0.9740
5.6925 -0.6096 -2.4951 0.9753
5.7107 -0.4049 -2.4951 0.9753
5.7212 0.2113 -2.4951 0.9753
5.6653 0.8250 -2.4951 0.9753
5.5438 1.4292 -2.4951 0.9753
5.4889 1.6273 -2.4951 0.9753
5.4270 1.8232 -2.4951 0.9753
5.1996 2.3960 -2.4951 0.9753
5.1102 2.5811 -2.4951 0.9753
5.0143 2.7628 -2.4951 0.9753
4.9119 2.9410 -2.4951 0.9753
4.6883 3.2858 -2.4951 0.9753
4.5673 3.4520 -2.4951 0.9753
3.7240 4.3484 -2.4951 0.9753
3.4024 4.6043 -2.4951 0.9753
3.2350 4.7235 -2.4951 0.9753
2.5257 5.1378 -2.4951 0.9753
2.3397 5.2252 -2.4951 0.9753
1.7645 5.4464 -2.4951 0.9753
1.5679 5.5062 -2.4951 0.9753
1.3692 5.5589 -2.4951 0.9753
0.9669 5.6429 -2.4951 0.9753
0.5596 5.6976 -2.4951 0.9753
-0.0561 5.7248 -2.4951 0.9753
-0.4666 5.7060 -2.4951 0.9753
-0.8747 5.6579 -2.4951 0.9753
-1.2783 5.5805 -2.4951 0.9753
-1.4778 5.5310 -2.4951 0.9753
-1.6754 5.4745 -2.4951 0.9753
-1.8708 5.4108 -2.4951 0.9753
-2.0638 5.3402 -2.4951 0.9753
-2.8068 4.9899 -2.4951 0.9753
-2.9840 4.8859 -2.4951 0.9753
-3.3268 4.6593 -2.4951 0.9753
5.3596 -0.5740 -2.4951 0.9765
5.3866 0.1989 -2.4951 0.9765
5.3340 0.7768 -2.4951 0.9765
5.3027 0.9677 -2.4951 0.9765
5.1096 1.7166 -2.4951 0.9765
4.8955 2.2559 -2.4951 0.9765
4.8114 2.4302 -2.4951 0.9765
4.7211 2.6013 -2.4951 0.9765
4.4141 3.0937 -2.4951 0.9765
4.3002 3.2501 -2.4951 0.9765
4.1808 3.4024 -2.4951 0.9765
4.0560 3.5502 -2.4951 0.9765
3.5062 4.0941 -2.4951 0.9765
3.3570 4.2173 -2.4951 0.9765
3.0458 4.4473 -2.4951 0.9765
2.5501 4.7489 -2.4951 0.9765
2.0249 4.9955 -2.4951 0.9765
1.8443 5.0650 -2.4951 0.9765
1.4762 5.1842 -2.4951 0.9765
0.5269 5.3645 -2.4951 0.9765
0.3340 5.3799 -2.4951 0.9765
0.1407 5.3884 -2.4951 0.9765
-0.6318 5.3531 -2.4951 0.9765
-1.2036 5.2542 -2.4951 0.9765
-1.3914 5.2076 -2.4951 0.9765
-1.5774 5.1543 -2.4951 0.9765
-1.9431 5.0279 -2.4951 0.9765
-2.1223 4.9549 -2.4951 0.9765
-2.2988 4.8755 -2.4951 0.9765
-2.9728 4.4964 -2.4951 0.9765
-3.1323 4.3868 -2.4951 0.9765
5.0831 0.1877 -2.4951 0.9776
5.0731 0.3700 -2.4951 0.9776
5.0566 0.5519 -2.4951 0.9776
5.0039 0.9132 -2.4951 0.9776
4.9679 1.0922 -2.4951 0.9776
4.8768 1.4458 -2.4951 0.9776
4.8217 1.6199 -2.4951 0.9776
4.5403 2.2933 -2.4951 0.9776
4.4551 2.4547 -2.4951 0.9776
4.2675 2.7680 -2.4951 0.9776
4.1654 2.9194 -2.4951 0.9776
4.0579 3.0670 -2.4951 0.9776
3.4452 3.7422 -2.4951 0.9776
3.3086 3.8635 -2.4951 0.9776
3.1678 3.9797 -2.4951 0.9776
3.0230 4.0908 -2.4951 0.9776
2.8742 4.1967 -2.4951 0.9776
2.4064 4.4813 -2.4951 0.9776
2.0788 4.6424 -2.4951 0.9776
1.9108 4.7140 -2.4951 0.9776
1.7404 4.7796 -2.4951 0.9776
1.5677 4.8390 -2.4951 0.9776
1.3930 4.8921 -2.4951 0.9776
1.2165 4.9390 -2.4951 0.9776
1.0385 4.9794 -2.4951 0.9776
0.6786 5.0411 -2.4951 0.9776
0.4972 5.0622 -2.4951 0.9776
0.1328 5.0848 -2.4951 0.9776
-0.2323 5.0813 -2.4951 0.9776
-0.4146 5.0697 -2.4951 0.9776
-0.9571 4.9957 -2.4951 0.9776
-1.1358 4.9582 -2.4951 0.9776
-2.0027 4.6757 -2.4951 0.9776
-2.1693 4.6008 -2.4951 0.9776
-2.3330 4.5200 -2.4951 0.9776
4.7822 -0.5121 -2.4951 0.9786
4.7975 -0.3402 -2.4951 0.9786
4.7968 0.3499 -2.4951 0.9786
4.7314 0.8635 -2.4951 0.9786
4.6973 1.0327 -2.4951 0.9786
4.6112 1.3670 -2.4951 0.9786
4.5591 1.5317 -2.4951 0.9786
4.5012 1.6943 -2.4951 0.9786
4.4375 1.8547 -2.4951 0.9786
4.3681 2.0128 -2.4951 0.9786
4.2930 2.1683 -2.4951 0.9786
4.2124 2.3210 -2.4951 0.9786
4.1264 2.4707 -2.4951 0.9786
4.0351 2.6172 -2.4951 0.9786
3.9385 2.7604 -2.4951 0.9786
3.7304 3.0358 -2.4951 0.9786
3.6190 3.1677 -2.4951 0.9786
3.5030 3.2956 -2.4951 0.9786
3.3824 3.4192 -2.4951 0.9786
3.2575 3.5384 -2.4951 0.9786
3.1284 3.6530 -2.4951 0.9786
2.5735 4.0631 -2.4951 0.9786
1.9655 4.3896 -2.4951 0.9786
1.3171 4.6256 -2.4951 0.9786
0.9819 4.7082 -2.4951 0.9786
0.8123 4.7404 -2.4951 0.9786
0.6416 4.7666 -2.4951 0.9786
-0.2197 4.8045 -2.4951 0.9786
-0.3920 4.7936 -2.4951 0.9786
-0.5638 4.7764 -2.4951 0.9786
-0.7348 4.7531 -2.4951 0.9786
-0.9050 4.7236 -2.4951 0.9786
-1.2415 4.6465 -2.4951 0.9786
-1.5716 4.5455 -2.4951 0.9786
-1.7337 4.4862 -2.4951 0.9786
-1.8936 4.4211 -2.4951 0.9786
-2.2059 4.2738 -2.4951 0.9786
-2.5068 4.1046 -2.4951 0.9786
-2.6525 4.0120 -2.4951 0.9786
-2.7948 3.9142 -2.4951 0.9786
4.5296 -0.4851 -2.4951 0.9794
4.5555 0.0046 -2.4951 0.9794
4.5524 0.1681 -2.4951 0.9794
4.5286 0.4943 -2.4951 0.9794
4.5080 0.6565 -2.4951 0.9794
4.3676 1.2949 -2.4951 0.9794
4.3184 1.4508 -2.4951 0.9794
4.1374 1.9065 -2.4951 0.9794
4.0663 2.0538 -2.4951 0.9794
3.9900 2.1984 -2.4951 0.9794
3.9085 2.3402 -2.4951 0.9794
3.6343 2.7468 -2.4951 0.9794
3.2038 3.2386 -2.4951 0.9794
3.0855 3.3515 -2.4951 0.9794
2.9632 3.4601 -2.4951 0.9794
2.7074 3.6638 -2.4951 0.9794
2.2979 3.9335 -2.4951 0.9794
1.7113 4.2219 -2.4951 0.9794
1.2476 4.3814 -2.4951 0.9794
0.9301 4.4596 -2.4951 0.9794
0.2823 4.5468 -2.4951 0.9794
0.1189 4.5540 -2.4951 0.9794
-0.2081 4.5508 -2.4951 0.9794
-0.5340 4.5241 -2.4951 0.9794
-1.1759 4.4012 -2.4951 0.9794
-1.4886 4.3055 -2.4951 0.9794
-1.7936 4.1876 -2.4951 0.9794
-2.0894 4.0481 -2.4951 0.9794
-2.2334 3.9705 -2.4951 0.9794
-2.3744 3.8878 -2.4951 0.9794
-2.5125 3.8001 -2.4951 0.9794
-2.6472 3.7074 -2.4951 0.9794
4.2970 -0.4602 -2.4951 0.9802
4.3108 -0.3056 -2.4951 0.9802
4.3216 0.0044 -2.4951 0.9802
4.3187 0.1595 -2.4951 0.9802
4.3102 0.3144 -2.4951 0.9802
4.2961 0.4689 -2.4951 0.9802
4.1848 1.0789 -2.4951 0.9802
4.0446 1.5224 -2.4951 0.9802
3.7851 2.0855 -2.4951 0.9802
3.6257 2.3517 -2.4951 0.9802
3.5390 2.4803 -2.4951 0.9802
3.4477 2.6058 -2.4951 0.9802
3.3519 2.7278 -2.4951 0.9802
3.2519 2.8464 -2.4951 0.9802
3.1476 2.9613 -2.4951 0.9802
3.0393 3.0723 -2.4951 0.9802
2.9271 3.1794 -2.4951 0.9802
2.8111 3.2824 -2.4951 0.9802
2.6914 3.3812 -2.4951 0.9802
2.3124 3.6509 -2.4951 0.9802
2.1799 3.7316 -2.4951 0.9802
1.7661 3.9442 -2.4951 0.9802
1.6234 4.0051 -2.4951 0.9802
1.4786 4.0608 -2.4951 0.9802
1.3319 4.1112 -2.4951 0.9802
1.1835 4.1564 -2.4951 0.9802
1.0336 4.1962 -2.4951 0.9802
0.8823 4.2306 -2.4951 0.9802
0.7299 4.2595 -2.4951 0.9802
0.5765 4.2830 -2.4951 0.9802
0.4224 4.3009 -2.4951 0.9802
0.1128 4.3201 -2.4951 0.9802
-0.0423 4.3214 -2.4951 0.9802
-0.1974 4.3170 -2.4951 0.9802
-0.3522 4.3072 -2.4951 0.9802
-0.6603 4.2709 -2.4951 0.9802
-0.9650 4.2125 -2.4951 0.9802
-1.1155 4.1752 -2.4951 0.9802
-1.2647 4.1324 -2.4951 0.9802
-1.4122 4.0844 -2.4951 0.9802
-1.7015 3.9726 -2.4951 0.9802
-1.8430 3.9089 -2.4951 0.9802
-1.9821 3.8402 -2.4951 0.9802
-2.5113 3.5171 -2.4951 0.9802
