ply
format ascii 1.0
element vertex 1119
property float32 x
property float32 y
property float32 z
property float32 I
end_header
-42.2202 11.7554 7.7277 0.8369
-43.9328 10.5564 7.9670 0.8323
-33.2037 -11.5953 6.2014 0.8669
-28.1733 -12.1597 5.4107 0.8828
-27.5518 -14.3061 5.4740 0.8815
-27.4288 -15.5109 5.5562 0.8799
-27.4684 -18.2383 5.8138 0.8747
-27.4655 -19.6856 5.9584 0.8718
-27.4798 -21.2221 6.1222 0.8685
0.2122 -13.2836 2.3425 0.9475
-41.9123 26.1281 7.5662 0.8188
-42.2202 11.7554 6.7139 0.8375
-44.1534 10.6094 6.9566 0.8321
-33.2009 -11.5943 5.3874 0.8674
-29.6257 -11.5492 4.8712 0.8793
-28.1733 -12.1597 4.7008 0.8832
-27.4288 -15.5109 4.8273 0.8803
-27.4662 -19.6861 5.1768 0.8722
-27.4758 -24.5433 5.6439 0.8615
-27.4394 -30.3849 6.2719 0.8473
-1.7929 -19.5965 3.0146 0.9235
0.2122 -13.2836 2.0352 0.9477
-32.0104 25.0832 5.2957 0.8487
-32.3693 17.0983 4.7671 0.8627
-32.4001 15.6604 4.6862 0.8649
-32.4588 12.9179 4.5492 0.8686
-27.4522 8.7117 3.7507 0.8903
-30.7168 -2.6425 4.0147 0.8831
-30.6969 -3.7498 4.0271 0.8827
-30.6946 -4.8683 4.0470 0.8822
-30.7056 -6.0018 4.0742 0.8814
-42.6237 -11.5446 5.7505 0.8368
-37.4211 -11.5856 5.1012 0.8538
-29.6257 -11.5492 4.1407 0.8796
-28.1733 -12.1597 3.9959 0.8836
-27.7092 -13.1531 3.9942 0.8836
-27.5518 -14.3061 4.0426 0.8823
-27.4288 -15.5108 4.1034 0.8806
-27.4442 -16.8412 4.1931 0.8782
-27.4669 -19.6866 4.4006 0.8726
-27.4406 -28.2855 5.1319 0.8530
-27.4405 -30.3862 5.3316 0.8478
-27.4380 -32.6573 5.5544 0.8419
-27.4321 -35.1258 5.8037 0.8355
-27.4360 -37.8441 6.0869 0.8282
-1.7927 -19.5947 2.5623 0.9237
0.2122 -13.2836 1.7300 0.9478
-32.1549 27.1054 4.5160 0.8444
-32.1951 25.2279 4.3921 0.8483
-33.8142 24.5986 4.4902 0.8452
-36.7216 24.7569 4.7557 0.8368
-39.8192 24.8233 5.0387 0.8280
-32.3693 17.0983 3.9310 0.8631
-32.4883 15.7031 3.8748 0.8649
-27.4522 8.7117 3.0929 0.8906
-30.8170 -9.5409 3.4642 0.8783
-29.6257 -11.5492 3.4144 0.8799
-28.1733 -12.1597 3.2951 0.8839
-27.7092 -13.1530 3.2937 0.8839
-27.4442 -16.8412 3.4576 0.8785
-27.4771 -21.2200 3.7280 0.8696
-27.4730 -24.5408 3.9557 0.8623
-27.4680 -26.3602 4.0881 0.8580
-27.4416 -30.3875 4.3967 0.8481
-27.4353 -37.8432 5.0192 0.8286
-27.4218 -40.8178 5.2803 0.8205
-1.7926 -19.5929 2.1127 0.9239
0.2122 -13.2836 1.4266 0.9480
-32.0669 31.2108 3.7881 0.8356
-32.1122 29.0944 3.6682 0.8403
-32.1549 27.1054 3.5601 0.8447
-33.8509 24.6253 3.5436 0.8453
-36.7910 24.8037 3.7561 0.8368
-32.4299 14.2688 2.9993 0.8674
-32.4588 12.9179 2.9573 0.8692
-32.4870 11.6026 2.9202 0.8707
-27.4522 8.7117 2.4381 0.8908
-37.4186 -11.5848 3.3159 0.8545
-29.6258 -11.5492 2.6917 0.8802
-28.1733 -12.1597 2.5976 0.8841
-27.4288 -15.5109 2.6675 0.8812
-27.4711 -18.2401 2.7914 0.8760
-27.4683 -19.6875 2.8608 0.8731
-27.4666 -26.3589 3.2226 0.8583
-27.4428 -30.3887 3.4662 0.8484
-27.4404 -32.6601 3.6111 0.8426
-27.4341 -35.1284 3.7731 0.8362
-32.0669 31.2108 2.7748 0.8358
-32.1951 25.2279 2.5363 0.8488
-33.9502 24.6975 2.6034 0.8451
-36.7216 24.7569 2.7463 0.8374
-32.3693 17.0983 2.2701 0.8635
-32.4001 15.6604 2.2315 0.8657
-32.4588 12.9179 2.1663 0.8694
-32.4870 11.6026 2.1392 0.8709
-27.4522 8.7117 1.7860 0.8910
-44.4727 10.6862 2.8363 0.8325
-43.8027 8.8828 2.7715 0.8360
-37.4174 -11.5844 2.4289 0.8547
-29.6257 -11.5492 1.9718 0.8804
-27.5518 -14.3061 1.9251 0.8830
-27.4288 -15.5109 1.9540 0.8814
-27.4442 -16.8413 1.9967 0.8789
-27.4439 -30.3899 2.5392 0.8487
-27.4415 -32.6615 2.6453 0.8429
-27.4351 -35.1297 2.7640 0.8364
-27.4340 -37.8414 2.8983 0.8292
-27.4232 -40.8200 3.0494 0.8211
-1.7922 -19.5894 1.2198 0.9242
-32.0669 31.2108 1.7645 0.8360
-33.9502 24.6975 1.6554 0.8453
-36.7216 24.7569 1.7463 0.8375
-39.8192 24.8233 1.8502 0.8287
-43.3135 24.8981 1.9700 0.8187
-32.4299 14.2688 1.3970 0.8678
-32.4870 11.6026 1.3602 0.8710
-27.4522 8.7117 1.1357 0.8911
-31.8294 8.8622 1.3028 0.8761
-29.6257 -11.5492 1.2538 0.8805
-27.5518 -14.3061 1.2241 0.8831
-27.4442 -16.8412 1.2697 0.8791
-27.4724 -18.2410 1.3003 0.8763
-27.4689 -24.5371 1.4523 0.8629
-27.4464 -28.2914 1.5543 0.8540
-27.4334 -37.8405 1.8429 0.8294
-27.4240 -40.8211 1.9391 0.8213
0.2122 -13.2836 0.5239 0.9482
-32.1122 29.0944 0.7320 0.8408
-36.7910 24.8037 0.7495 0.8374
-43.3135 24.8981 0.8439 0.8188
-32.3693 17.0983 0.6184 0.8638
-32.4883 15.7031 0.6095 0.8656
-32.4299 14.2688 0.5985 0.8678
-27.4522 8.7117 0.4865 0.8912
-30.6725 8.5401 0.5378 0.8804
-43.6319 8.8482 0.7520 0.8369
-37.4149 -11.5837 0.6616 0.8550
-29.6257 -11.5492 0.5371 0.8806
-27.7092 -13.1531 0.5181 0.8845
-27.4288 -15.5109 0.5323 0.8816
-27.4442 -16.8412 0.5439 0.8791
-27.4731 -18.2414 0.5570 0.8764
-27.4703 -19.6890 0.5709 0.8735
-27.4735 -21.2173 0.5864 0.8703
-27.4716 -22.8283 0.6034 0.8668
-27.4675 -24.5359 0.6221 0.8630
-27.4478 -28.2929 0.6659 0.8541
-27.4461 -30.3924 0.6917 0.8489
-27.4439 -32.6643 0.7207 0.8431
-27.4247 -40.8222 0.8307 0.8214
-1.7919 -19.5858 0.3322 0.9243
-32.0669 31.2108 -0.2519 0.8361
-32.1951 25.2279 -0.2303 0.8491
-32.3693 17.0983 -0.2061 0.8638
-32.4001 15.6604 -0.2026 0.8659
-32.4299 14.2688 -0.1995 0.8679
-32.4588 12.9179 -0.1967 0.8696
-32.4870 11.6026 -0.1942 0.8711
-27.4522 8.7117 -0.1622 0.8912
-37.8143 10.5286 -0.2210 0.8547
-36.4306 8.7537 -0.2109 0.8608
-48.0747 6.2169 -0.2729 0.8237
-48.7776 -0.6997 -0.2747 0.8227
-48.7760 -2.4448 -0.2750 0.8225
-48.7725 -4.1958 -0.2756 0.8222
-48.7673 -5.9573 -0.2766 0.8216
-48.7601 -7.7335 -0.2780 0.8208
-47.9758 -11.1708 -0.2773 0.8212
-37.4137 -11.5833 -0.2205 0.8550
-33.1815 -11.5875 -0.1979 0.8688
-29.6258 -11.5492 -0.1790 0.8806
-28.1733 -12.1597 -0.1728 0.8845
-27.5518 -14.3061 -0.1748 0.8832
-27.4288 -15.5109 -0.1774 0.8816
-27.4442 -16.8412 -0.1813 0.8791
-27.4738 -18.2418 -0.1857 0.8764
-27.4710 -19.6895 -0.1903 0.8735
-27.4726 -21.2166 -0.1954 0.8704
-27.4707 -22.8276 -0.2011 0.8669
-27.4609 -26.3534 -0.2143 0.8588
-27.4472 -30.3937 -0.2306 0.8489
-27.4450 -32.6657 -0.2402 0.8431
-31.7540 33.1967 -1.2935 0.8321
-32.1122 29.0944 -1.2201 0.8408
-32.1549 27.1054 -1.1842 0.8451
-32.1951 25.2279 -1.1517 0.8490
-33.9502 24.6975 -1.1822 0.8454
-39.8192 24.8233 -1.3212 0.8288
-41.9780 24.1304 -1.3634 0.8239
-32.4588 12.9179 -0.9837 0.8695
-32.4870 11.6026 -0.9714 0.8711
-27.4522 8.7117 -0.8110 0.8911
-36.1571 8.6880 -1.0471 0.8617
-41.7578 8.4681 -1.1997 0.8432
-42.1741 6.9940 -1.2037 0.8428
-43.1310 4.0170 -1.2197 0.8409
-43.1499 2.4679 -1.2170 0.8412
-43.1598 0.9235 -1.2156 0.8414
-43.1606 -0.6191 -1.2154 0.8414
-43.1525 -2.1629 -1.2166 0.8412
-43.1354 -3.7109 -1.2191 0.8409
-42.9318 -5.2444 -1.2179 0.8411
-43.0288 -8.4105 -1.2345 0.8391
-37.4124 -11.5829 -1.1028 0.8549
-33.1787 -11.5866 -0.9896 0.8688
-29.6257 -11.5492 -0.8953 0.8805
-27.7092 -13.1531 -0.8637 0.8845
-27.5518 -14.3061 -0.8742 0.8832
-27.4288 -15.5109 -0.8873 0.8815
-27.4442 -16.8412 -0.9067 0.8791
-27.4744 -18.2423 -0.9286 0.8764
-27.4717 -19.6900 -0.9517 0.8735
-27.4717 -21.2159 -0.9774 0.8703
-27.4698 -22.8268 -1.0057 0.8668
-27.4595 -26.3521 -1.0716 0.8587
-27.4507 -28.2958 -1.1101 0.8541
-27.4462 -32.6671 -1.2014 0.8430
-27.4314 -37.8378 -1.3160 0.8294
-1.7916 -19.5823 -0.5537 0.9243
-27.7390 36.0395 -2.3064 0.8335
-27.9091 33.6974 -2.2190 0.8393
-29.0952 32.6787 -2.2190 0.8393
-30.2442 31.6183 -2.2190 0.8393
-32.1122 29.0944 -2.1976 0.8407
-32.1549 27.1054 -2.1328 0.8450
-33.9502 24.6975 -2.1291 0.8452
-37.1302 23.1469 -2.2190 0.8393
-32.3693 17.0983 -1.8565 0.8636
-32.4299 14.2688 -1.7968 0.8677
-32.4870 11.6026 -1.7495 0.8710
-27.4522 8.7117 -1.4606 0.8911
-36.2070 7.3425 -1.8736 0.8625
-37.4052 4.8372 -1.9128 0.8598
-37.5067 0.8025 -1.9026 0.8605
-37.5083 -0.5380 -1.9024 0.8605
-37.4938 -1.8793 -1.9039 0.8604
-37.4632 -3.2230 -1.9069 0.8602
-37.3531 -5.9243 -1.9180 0.8594
-37.2732 -7.2855 -1.9261 0.8589
-33.1759 -11.5856 -1.7821 0.8687
-29.6258 -11.5492 -1.6126 0.8804
-28.1733 -12.1597 -1.5562 0.8844
-27.7092 -13.1531 -1.5555 0.8844
-27.5518 -14.3061 -1.5744 0.8831
-27.4288 -15.5108 -1.5980 0.8814
-27.4724 -19.6905 -1.7141 0.8734
-27.4709 -21.2152 -1.7603 0.8702
-27.4689 -22.8260 -1.8113 0.8667
-27.4521 -28.2973 -1.9994 0.8539
-27.4495 -30.3961 -2.0771 0.8487
-27.1339 -37.4273 -2.3444 0.8310
-25.7793 -38.3729 -2.3444 0.8310
-22.9244 -43.5706 -2.4968 0.8210
-21.3530 -44.3619 -2.4968 0.8210
-18.1305 -45.7734 -2.4968 0.8210
-16.4835 -46.3920 -2.4968 0.8210
-13.1284 -47.4507 -2.4968 0.8210
-11.4246 -47.8895 -2.4968 0.8210
-1.9981 -35.9648 -1.8267 0.8657
-0.9135 -46.2192 -2.3444 0.8310
0.2122 -13.2836 -0.6737 0.9482
4.1485 -47.3191 -2.4090 0.8268
5.9025 -47.6733 -2.4362 0.8250
7.6886 -47.9718 -2.4639 0.8232
9.5053 -48.2119 -2.4921 0.8213
11.3570 -48.4180 -2.5221 0.8194
-20.7701 26.9852 -2.4968 0.8723
-21.7210 26.2260 -2.4968 0.8723
-22.6442 25.4331 -2.4968 0.8723
-23.5384 24.6078 -2.4968 0.8723
-25.2356 22.8641 -2.4968 0.8723
-26.5121 17.8739 -2.3444 0.8796
-27.1338 16.9152 -2.3444 0.8796
-27.7208 15.9349 -2.3444 0.8796
-27.4522 8.7117 -2.1118 0.8909
-30.6212 6.2097 -2.2909 0.8822
-31.5928 4.0855 -2.3357 0.8801
-31.7176 1.8140 -2.3294 0.8804
-31.7439 0.6792 -2.3281 0.8804
-31.6094 -3.8613 -2.3349 0.8801
-31.2729 -7.2817 -2.3543 0.8792
-29.4702 -10.2915 -2.2888 0.8823
-28.1733 -12.1597 -2.2499 0.8842
-27.2523 -16.7235 -2.3444 0.8796
-26.6374 -17.6865 -2.3444 0.8796
-25.9885 -18.6270 -2.3444 0.8796
-25.6849 -19.8360 -2.3795 0.8780
-24.5694 -23.5785 -2.4968 0.8723
-23.7113 -24.4413 -2.4968 0.8723
-22.8229 -25.2729 -2.4968 0.8723
-21.9053 -26.0722 -2.4968 0.8723
-19.9875 -27.5700 -2.4968 0.8723
-16.9226 -29.5504 -2.4968 0.8723
-15.8560 -30.1362 -2.4968 0.8723
-13.6634 -31.1915 -2.4968 0.8723
-12.5402 -31.6598 -2.4968 0.8723
-11.4010 -32.0877 -2.4968 0.8723
-9.0804 -32.8199 -2.4968 0.8723
-7.9020 -33.1234 -2.4968 0.8723
4.0190 -32.4607 -2.3983 0.8771
5.2102 -32.5083 -2.4140 0.8763
-16.5890 20.0296 -2.4968 0.9008
-18.6371 18.1395 -2.4968 0.9008
-19.8849 16.7623 -2.4968 0.9008
-21.5643 14.5382 -2.4968 0.9008
-22.5475 12.9611 -2.4968 0.9008
-23.4155 11.3178 -2.4968 0.9008
-24.4926 8.7474 -2.4969 0.9008
-25.4903 5.1692 -2.4970 0.9008
-25.6605 4.2555 -2.4972 0.9008
-25.7966 3.3369 -2.4972 0.9008
-26.0112 0.5566 -2.4978 0.9007
-25.8244 -3.1553 -2.4977 0.9007
-25.3359 -5.8992 -2.4974 0.9007
-25.1094 -6.8008 -2.4975 0.9007
-24.5601 -8.5768 -2.4975 0.9007
-23.0869 -11.9878 -2.4974 0.9007
-22.6427 -12.8043 -2.4973 0.9007
-21.6663 -14.3858 -2.4968 0.9008
-19.3959 -17.3257 -2.4968 0.9008
-18.7645 -18.0076 -2.4968 0.9008
-18.1091 -18.6666 -2.4968 0.9008
-17.4306 -19.3017 -2.4968 0.9008
-16.7298 -19.9121 -2.4968 0.9008
-15.2651 -21.0561 -2.4968 0.9008
-14.5030 -21.5880 -2.4968 0.9008
-12.1097 -23.0160 -2.4968 0.9008
-10.4352 -23.8220 -2.4968 0.9008
-9.5773 -24.1796 -2.4968 0.9008
-7.8262 -24.8019 -2.4968 0.9008
-6.0350 -25.2974 -2.4968 0.9008
-5.1273 -25.4969 -2.4968 0.9008
-3.2934 -25.7979 -2.4968 0.9008
0.2122 -13.2836 -1.2755 0.9480
3.0535 -24.6629 -2.3858 0.9050
4.8550 -24.6250 -2.4096 0.9041
5.7602 -24.5572 -2.4216 0.9036
-12.8206 16.6570 -2.4968 0.9188
-14.5294 15.1895 -2.4968 0.9188
-15.5770 14.1131 -2.4968 0.9188
-16.9978 12.3653 -2.4968 0.9188
-18.2233 10.4754 -2.4968 0.9188
-18.5860 9.8176 -2.4968 0.9188
-19.2398 8.4653 -2.4969 0.9188
-20.0359 6.3582 -2.4969 0.9188
-20.4393 4.9113 -2.4970 0.9188
-20.6019 4.1779 -2.4970 0.9188
-20.9875 1.2003 -2.4971 0.9188
-21.0171 0.4497 -2.4971 0.9188
-21.0198 -0.3015 -2.4971 0.9188
-20.9957 -1.0523 -2.4971 0.9188
-20.8670 -2.5491 -2.4971 0.9188
-20.7626 -3.2930 -2.4971 0.9188
-20.6317 -4.0327 -2.4971 0.9188
-20.4744 -4.7673 -2.4971 0.9188
-20.0815 -6.2172 -2.4971 0.9188
-19.8465 -6.9307 -2.4971 0.9188
-19.5861 -7.6354 -2.4971 0.9188
-19.3006 -8.3302 -2.4971 0.9188
-18.9905 -9.0144 -2.4970 0.9188
-18.6562 -9.6871 -2.4970 0.9188
-18.2980 -10.3474 -2.4970 0.9188
-17.0851 -12.2456 -2.4969 0.9188
-15.6761 -14.0030 -2.4968 0.9188
-15.1658 -14.5541 -2.4968 0.9188
-14.6361 -15.0867 -2.4968 0.9188
-14.0877 -15.6000 -2.4968 0.9188
-13.5213 -16.0934 -2.4968 0.9188
-12.9377 -16.5662 -2.4968 0.9188
-12.3375 -17.0179 -2.4968 0.9188
-11.7216 -17.4478 -2.4968 0.9188
-11.0908 -17.8555 -2.4968 0.9188
-10.4457 -18.2404 -2.4968 0.9188
-9.1164 -18.9398 -2.4968 0.9188
-8.4339 -19.2534 -2.4968 0.9188
-6.3253 -20.0453 -2.4968 0.9188
-5.6050 -20.2585 -2.4968 0.9188
-4.1440 -20.6071 -2.4968 0.9188
-2.6618 -20.8504 -2.4968 0.9188
-1.7774 -19.4274 -2.3173 0.9244
-0.3900 -19.7328 -2.3444 0.9236
0.2122 -13.2836 -1.5781 0.9479
2.4600 -19.8692 -2.3782 0.9225
3.9037 -19.8004 -2.3973 0.9219
4.6271 -19.7266 -2.4068 0.9216
-11.2403 13.5715 -2.4968 0.9313
-12.1808 12.7342 -2.4968 0.9313
-12.6280 12.2908 -2.4968 0.9313
-13.4735 11.3577 -2.4968 0.9313
-13.8707 10.8690 -2.4968 0.9313
-14.2502 10.3665 -2.4968 0.9313
-14.9541 9.3224 -2.4968 0.9313
-15.2776 8.7821 -2.4968 0.9313
-16.3729 6.5161 -2.4968 0.9313
-16.5953 5.9269 -2.4968 0.9313
-16.7964 5.3302 -2.4968 0.9313
-16.9761 4.7267 -2.4968 0.9313
-17.5998 -0.8821 -2.4968 0.9313
-17.5570 -1.5104 -2.4968 0.9313
-17.1628 -3.9962 -2.4968 0.9313
-17.0090 -4.6069 -2.4968 0.9313
-16.8336 -5.2117 -2.4968 0.9313
-15.3391 -8.6742 -2.4968 0.9313
-15.0194 -9.2167 -2.4968 0.9313
-14.6805 -9.7475 -2.4968 0.9313
-14.3229 -10.2657 -2.4968 0.9313
-13.9469 -10.7709 -2.4968 0.9313
-11.8105 -13.0783 -2.4968 0.9313
-10.8464 -13.8884 -2.4968 0.9313
-8.2052 -15.5950 -2.4968 0.9313
-7.6428 -15.8782 -2.4968 0.9313
-7.0706 -16.1412 -2.4968 0.9313
-6.4894 -16.3835 -2.4968 0.9313
-5.8999 -16.6049 -2.4968 0.9313
-5.3028 -16.8051 -2.4968 0.9313
-4.6990 -16.9838 -2.4968 0.9313
-3.4741 -17.2760 -2.4968 0.9313
-0.9178 -16.5208 -2.3444 0.9353
-0.3270 -16.5430 -2.3444 0.9353
0.8599 -16.6141 -2.3572 0.9350
1.4578 -16.6284 -2.3651 0.9348
2.0579 -16.6212 -2.3730 0.9346
2.6593 -16.5924 -2.3810 0.9344
3.8510 -16.4179 -2.3894 0.9341
-10.0785 11.3198 -2.4968 0.9404
-11.2319 10.1763 -2.4968 0.9404
-11.9299 9.3482 -2.4968 0.9404
-12.5669 8.4725 -2.4968 0.9404
-12.8617 8.0180 -2.4968 0.9404
-13.4015 7.0790 -2.4968 0.9404
-14.0820 5.6044 -2.4968 0.9404
-14.2733 5.0977 -2.4968 0.9404
-14.4463 4.5844 -2.4968 0.9404
-14.6009 4.0653 -2.4968 0.9404
-14.8539 3.0123 -2.4968 0.9404
-15.0311 1.9438 -2.4968 0.9404
-15.0910 1.4055 -2.4968 0.9404
-15.1547 -0.2174 -2.4968 0.9404
-15.1005 -1.2991 -2.4968 0.9404
-15.0445 -1.8378 -2.4968 0.9404
-14.9692 -2.3741 -2.4968 0.9404
-14.7614 -3.4371 -2.4968 0.9404
-14.6292 -3.9623 -2.4968 0.9404
-14.1212 -5.5049 -2.4968 0.9404
-13.9155 -6.0060 -2.4968 0.9404
-13.6920 -6.4993 -2.4968 0.9404
-13.4511 -6.9844 -2.4968 0.9404
-12.6265 -8.3836 -2.4968 0.9404
-11.3033 -10.0969 -2.4968 0.9404
-10.9354 -10.4943 -2.4968 0.9404
-10.5534 -10.8783 -2.4968 0.9404
-9.3288 -11.9451 -2.4968 0.9404
-8.8960 -12.2708 -2.4968 0.9404
-8.4519 -12.5808 -2.4968 0.9404
-7.9970 -12.8748 -2.4968 0.9404
-7.0572 -13.4130 -2.4968 0.9404
-6.5734 -13.6566 -2.4968 0.9404
-5.0744 -14.2816 -2.4968 0.9404
-4.0415 -14.6075 -2.4968 0.9404
-3.5170 -14.7425 -2.4968 0.9404
-2.9880 -14.8588 -2.4968 0.9404
-2.4552 -14.9561 -2.4968 0.9404
-1.2978 -14.1850 -2.3466 0.9439
-0.2818 -14.2579 -2.3493 0.9438
0.2122 -13.2836 -2.1886 0.9476
0.7359 -14.2176 -2.3453 0.9439
3.2556 -13.8794 -2.3485 0.9438
-8.1022 10.5268 -2.4968 0.9474
-8.4732 10.2305 -2.4968 0.9474
-9.1822 9.5994 -2.4968 0.9474
-9.5193 9.2652 -2.4968 0.9474
-9.8442 8.9191 -2.4968 0.9474
-10.4560 8.1933 -2.4968 0.9474
-11.0144 7.4257 -2.4968 0.9474
-11.2727 7.0274 -2.4968 0.9474
-11.5166 6.6201 -2.4968 0.9474
-11.9600 5.7808 -2.4968 0.9474
-12.9162 3.1036 -2.4968 0.9474
-5.2380 0.4878 -0.9888 0.9788
-5.1829 0.2964 -0.9758 0.9791
-5.1829 0.1109 -0.9744 0.9791
-5.2423 -0.2628 -0.9866 0.9789
-13.2349 -1.1386 -2.4968 0.9474
-13.1858 -1.6107 -2.4968 0.9474
-13.1198 -2.0808 -2.4968 0.9474
-13.0371 -2.5483 -2.4968 0.9474
-12.5411 -4.3796 -2.4968 0.9474
-12.3766 -4.8248 -2.4968 0.9474
-12.0004 -5.6963 -2.4968 0.9474
-11.5630 -6.5388 -2.4968 0.9474
-11.0665 -7.3479 -2.4968 0.9474
-10.5135 -8.1194 -2.4968 0.9474
-9.9069 -8.8495 -2.4968 0.9474
-8.9030 -9.8587 -2.4968 0.9474
-8.5451 -10.1705 -2.4968 0.9474
-8.1763 -10.4694 -2.4968 0.9474
-7.7970 -10.7548 -2.4968 0.9474
-7.4077 -11.0266 -2.4968 0.9474
-6.1853 -11.7559 -2.4968 0.9474
-5.7613 -11.9694 -2.4968 0.9474
-5.3300 -12.1676 -2.4968 0.9474
-3.5422 -12.8028 -2.4968 0.9474
-2.6189 -13.0230 -2.4968 0.9474
-1.5796 -12.3734 -2.3446 0.9505
-1.1370 -12.4278 -2.3457 0.9505
-0.2468 -12.4883 -2.3478 0.9504
0.6461 -12.4832 -2.3495 0.9504
1.0922 -12.4549 -2.3500 0.9504
1.5368 -12.4096 -2.3503 0.9504
-7.5344 9.0971 -2.4968 0.9529
-7.8547 8.8221 -2.4968 0.9529
-9.0314 7.6131 -2.4968 0.9529
-9.2976 7.2856 -2.4968 0.9529
-9.5520 6.9487 -2.4968 0.9529
-10.0238 6.2488 -2.4968 0.9529
-10.2407 5.8867 -2.4968 0.9529
-10.4445 5.5171 -2.4968 0.9529
-10.6349 5.1404 -2.4968 0.9529
-11.2588 3.5729 -2.4968 0.9529
-11.3792 3.1683 -2.4968 0.9529
-11.5764 2.3476 -2.4968 0.9529
-11.6529 1.9325 -2.4968 0.9529
-4.8520 0.6275 -1.0341 0.9802
-4.7963 0.4467 -1.0182 0.9805
-4.8020 0.1027 -1.0153 0.9806
-4.8052 -0.0689 -1.0158 0.9805
-4.8059 -0.2409 -1.0171 0.9805
-4.8717 -0.4191 -1.0336 0.9802
-11.7249 -1.4322 -2.4968 0.9529
-11.2837 -3.4934 -2.4968 0.9529
-11.0054 -4.2903 -2.4968 0.9529
-10.6709 -5.0652 -2.4968 0.9529
-10.4831 -5.4433 -2.4968 0.9529
-9.3487 -7.2199 -2.4968 0.9529
-8.2248 -8.4780 -2.4968 0.9529
-7.9167 -8.7665 -2.4968 0.9529
-7.5984 -9.0437 -2.4968 0.9529
-6.9331 -9.5633 -2.4968 0.9529
-5.8700 -10.2502 -2.4968 0.9529
-4.7395 -10.8195 -2.4968 0.9529
-4.3499 -10.9820 -2.4968 0.9529
-3.5545 -11.2646 -2.4968 0.9529
-1.9135 -11.6561 -2.4968 0.9529
-1.4958 -11.7170 -2.4968 0.9529
-1.0271 -11.2261 -2.3829 0.9550
-0.6152 -11.0742 -2.3445 0.9557
-0.2193 -11.0926 -2.3452 0.9557
1.3644 -11.0196 -2.3471 0.9556
-6.4798 8.4188 -2.4968 0.9573
-6.7765 8.1820 -2.4968 0.9573
-7.0645 7.9346 -2.4968 0.9573
-7.3435 7.6771 -2.4968 0.9573
-8.1228 6.8473 -2.4968 0.9573
-8.3623 6.5526 -2.4968 0.9573
-8.8089 5.9387 -2.4968 0.9573
-9.0154 5.6202 -2.4968 0.9573
-9.2105 5.2945 -2.4968 0.9573
-9.3938 4.9621 -2.4968 0.9573
-9.5651 4.6233 -2.4968 0.9573
-9.8708 3.9284 -2.4968 0.9573
-10.1261 3.2134 -2.4968 0.9573
-10.2345 2.8496 -2.4968 0.9573
-10.3298 2.4821 -2.4968 0.9573
-10.4118 2.1114 -2.4968 0.9573
-10.4806 1.7381 -2.4968 0.9573
-4.5812 0.5924 -1.0857 0.9812
-4.5846 0.2622 -1.0793 0.9813
-4.5877 -0.0658 -1.0783 0.9813
-10.5454 -1.2882 -2.4968 0.9573
-10.4926 -1.6641 -2.4968 0.9573
-9.7541 -4.2099 -2.4968 0.9573
-9.4285 -4.8957 -2.4968 0.9573
-8.6349 -6.1890 -2.4968 0.9573
-7.6651 -7.3560 -2.4968 0.9573
-6.8340 -8.1340 -2.4968 0.9573
-6.5390 -8.3729 -2.4968 0.9573
-6.2357 -8.6012 -2.4968 0.9573
-5.6055 -9.0246 -2.4968 0.9573
-4.9467 -9.4018 -2.4968 0.9573
-3.9123 -9.8772 -2.4968 0.9573
-3.5569 -10.0107 -2.4968 0.9573
-3.1969 -10.1313 -2.4968 0.9573
-2.4653 -10.3338 -2.4968 0.9573
-1.7210 -10.4835 -2.4968 0.9573
-1.3453 -10.5382 -2.4968 0.9573
1.5786 -9.8496 -2.3444 0.9598
2.2819 -9.7285 -2.3485 0.9598
-5.8818 7.6419 -2.4968 0.9609
-6.1511 7.4269 -2.4968 0.9609
-6.9105 6.7260 -2.4968 0.9609
-7.1464 6.4748 -2.4968 0.9609
-7.3732 6.2153 -2.4968 0.9609
-7.5905 5.9479 -2.4968 0.9609
-7.7982 5.6729 -2.4968 0.9609
-7.9959 5.3907 -2.4968 0.9609
-8.1834 5.1015 -2.4968 0.9609
-8.3605 4.8059 -2.4968 0.9609
-8.5268 4.5041 -2.4968 0.9609
-8.8267 3.8837 -2.4968 0.9609
-9.2900 2.5866 -2.4968 0.9609
-9.4510 1.9166 -2.4968 0.9609
-9.5134 1.5777 -2.4968 0.9609
-4.4304 0.4126 -1.1521 0.9818
-4.4347 0.2536 -1.1501 0.9818
-4.4354 0.0949 -1.1487 0.9818
-4.4377 -0.0637 -1.1491 0.9818
-4.4368 -0.3817 -1.1530 0.9818
-9.5722 -1.1693 -2.4968 0.9609
-9.3921 -2.1869 -2.4968 0.9609
-9.3080 -2.5210 -2.4968 0.9609
-9.2120 -2.8520 -2.4968 0.9609
-8.8539 -3.8213 -2.4968 0.9609
-8.3941 -4.7468 -2.4968 0.9609
-8.0337 -5.3342 -2.4968 0.9609
-7.6323 -5.8943 -2.4968 0.9609
-7.1919 -6.4243 -2.4968 0.9609
-6.7147 -6.9215 -2.4968 0.9609
-5.9355 -7.6002 -2.4968 0.9609
-5.3776 -8.0047 -2.4968 0.9609
-4.7923 -8.3683 -2.4968 0.9609
-2.9019 -9.1964 -2.4968 0.9609
-1.5622 -9.5160 -2.4968 0.9609
-0.8786 -9.6032 -2.4968 0.9609
-0.5349 -9.6285 -2.4968 0.9609
0.1540 -9.6421 -2.4968 0.9609
0.4984 -9.6305 -2.4968 0.9609
1.8653 -9.4612 -2.4968 0.9609
-5.8649 6.5873 -2.4968 0.9640
-6.3204 6.1516 -2.4968 0.9640
-6.9423 5.4400 -2.4968 0.9640
-7.1323 5.1885 -2.4968 0.9640
-7.3131 4.9303 -2.4968 0.9640
-7.7987 4.1195 -2.4968 0.9640
-7.9409 3.8382 -2.4968 0.9640
-8.1947 3.2613 -2.4968 0.9640
-8.3060 2.9664 -2.4968 0.9640
-8.4067 2.6678 -2.4968 0.9640
-8.4966 2.3657 -2.4968 0.9640
-8.5757 2.0606 -2.4968 0.9640
-4.2936 0.0919 -1.2158 0.9823
-4.2930 -0.2152 -1.2168 0.9823
-4.2917 -0.3692 -1.2194 0.9823
-8.7110 -1.3816 -2.4968 0.9640
-8.5901 -2.0001 -2.4968 0.9640
-8.4253 -2.6085 -2.4968 0.9640
-8.3267 -2.9078 -2.4968 0.9640
-8.2175 -3.2034 -2.4968 0.9640
-7.9678 -3.7821 -2.4968 0.9640
-7.8275 -4.0644 -2.4968 0.9640
-7.5173 -4.6130 -2.4968 0.9640
-7.3477 -4.8787 -2.4968 0.9640
-6.9805 -5.3909 -2.4968 0.9640
-6.7834 -5.6369 -2.4968 0.9640
-6.5776 -5.8754 -2.4968 0.9640
-6.3636 -6.1069 -2.4968 0.9640
-6.1413 -6.3304 -2.4968 0.9640
-5.9112 -6.5458 -2.4968 0.9640
-5.6736 -6.7528 -2.4968 0.9640
-4.9184 -7.3211 -2.4968 0.9640
-4.6537 -7.4922 -2.4968 0.9640
-4.1068 -7.8054 -2.4968 0.9640
-3.5389 -8.0787 -2.4968 0.9640
-3.2480 -8.2000 -2.4968 0.9640
-2.9529 -8.3108 -2.4968 0.9640
-2.3519 -8.5005 -2.4968 0.9640
-2.0466 -8.5791 -2.4968 0.9640
-1.7388 -8.6467 -2.4968 0.9640
-1.4288 -8.7033 -2.4968 0.9640
-0.8036 -8.7831 -2.4968 0.9640
1.3958 -8.7087 -2.4968 0.9640
-4.9513 6.4329 -2.4968 0.9666
-5.6112 5.8661 -2.4968 0.9666
-6.0158 5.4504 -2.4968 0.9666
-6.2067 5.2321 -2.4968 0.9666
-6.3897 5.0069 -2.4968 0.9666
-6.5645 4.7755 -2.4968 0.9666
-6.8888 4.2944 -2.4968 0.9666
-7.1779 3.7915 -2.4968 0.9666
-7.5424 3.0017 -2.4968 0.9666
-7.7375 2.4554 -2.4968 0.9666
-7.8202 2.1774 -2.4968 0.9666
-4.3551 0.8832 -1.3668 0.9816
-4.1630 0.5383 -1.2911 0.9826
-4.1727 0.2386 -1.2855 0.9827
-4.1752 -0.0599 -1.2843 0.9827
-4.1734 -0.2092 -1.2852 0.9827
-4.1950 -0.5125 -1.2999 0.9825
-7.9062 -1.8409 -2.4968 0.9666
-7.8354 -2.1222 -2.4968 0.9666
-7.6638 -2.6763 -2.4968 0.9666
-7.4532 -3.2168 -2.4968 0.9666
-7.2044 -3.7408 -2.4968 0.9666
-7.0661 -3.9959 -2.4968 0.9666
-6.9189 -4.2458 -2.4968 0.9666
-6.4248 -4.9619 -2.4968 0.9666
-6.0541 -5.4079 -2.4968 0.9666
-5.8570 -5.6207 -2.4968 0.9666
-5.6524 -5.8264 -2.4968 0.9666
-5.2219 -6.2152 -2.4968 0.9666
-4.9965 -6.3978 -2.4968 0.9666
-4.7647 -6.5723 -2.4968 0.9666
-4.0341 -7.0444 -2.4968 0.9666
-2.9894 -7.5473 -2.4968 0.9666
-2.7178 -7.6492 -2.4968 0.9666
-2.4428 -7.7414 -2.4968 0.9666
-2.1646 -7.8238 -2.4968 0.9666
-1.3150 -8.0105 -2.4968 0.9666
-1.0280 -8.0523 -2.4968 0.9666
-0.7396 -8.0840 -2.4968 0.9666
-0.1604 -8.1162 -2.4968 0.9666
0.7090 -8.0867 -2.4968 0.9666
-4.5815 5.9524 -2.4968 0.9688
-4.7912 5.7849 -2.4968 0.9688
-5.7431 4.8412 -2.4968 0.9688
-6.3742 3.9737 -2.4968 0.9688
-6.5121 3.7434 -2.4968 0.9688
-6.6417 3.5084 -2.4968 0.9688
-6.7629 3.2688 -2.4968 0.9688
-6.8753 3.0251 -2.4968 0.9688
-6.9790 2.7775 -2.4968 0.9688
-7.0738 2.5264 -2.4968 0.9688
-7.1595 2.2720 -2.4968 0.9688
-7.3616 1.4929 -2.4968 0.9688
-4.0402 0.6700 -1.3613 0.9829
-4.0647 -0.0583 -1.3513 0.9830
-4.0616 -0.2036 -1.3518 0.9830
-4.0500 -0.4948 -1.3562 0.9829
-7.4187 -1.1766 -2.4968 0.9688
-7.3719 -1.4409 -2.4968 0.9688
-7.2502 -1.9637 -2.4968 0.9688
-7.1754 -2.2215 -2.4968 0.9688
-7.0914 -2.4765 -2.4968 0.9688
-6.8965 -2.9765 -2.4968 0.9688
-6.7857 -3.2211 -2.4968 0.9688
-6.5384 -3.6974 -2.4968 0.9688
-6.1052 -4.3758 -2.4968 0.9688
-5.9449 -4.5912 -2.4968 0.9688
-5.6019 -5.0040 -2.4968 0.9688
-5.0343 -5.5747 -2.4968 0.9688
-4.4089 -6.0814 -2.4968 0.9688
-3.7328 -6.5182 -2.4968 0.9688
-3.2578 -6.7682 -2.4968 0.9688
-2.7661 -6.9835 -2.4968 0.9688
-2.5148 -7.0779 -2.4968 0.9688
-2.2603 -7.1632 -2.4968 0.9688
-1.4809 -7.3640 -2.4968 0.9688
-0.9512 -7.4509 -2.4968 0.9688
-0.1484 -7.5099 -2.4968 0.9688
0.6560 -7.4827 -2.4968 0.9688
0.9230 -7.4545 -2.4968 0.9688
1.1887 -7.4168 -2.4968 0.9688
1.4529 -7.3695 -2.4968 0.9688
1.7153 -7.3129 -2.4968 0.9688
-4.2586 5.5330 -2.4968 0.9708
-4.4536 5.3773 -2.4968 0.9708
-4.6429 5.2147 -2.4968 0.9708
-5.0034 4.8698 -2.4968 0.9708
-5.9250 3.6937 -2.4968 0.9708
-6.0532 3.4796 -2.4968 0.9708
-6.1737 3.2611 -2.4968 0.9708
-6.5753 2.3483 -2.4968 0.9708
-6.6550 2.1119 -2.4968 0.9708
-6.7262 1.8728 -2.4968 0.9708
-6.7888 1.6313 -2.4968 0.9708
-3.9550 0.2262 -1.4166 0.9833
-3.9581 0.0847 -1.4158 0.9833
-3.9572 -0.0568 -1.4153 0.9833
-3.9542 -0.1982 -1.4158 0.9833
-3.9489 -0.3397 -1.4174 0.9833
-6.8959 -1.0937 -2.4968 0.9708
-6.8524 -1.3394 -2.4968 0.9708
-6.8002 -1.5833 -2.4968 0.9708
-6.6697 -2.0649 -2.4968 0.9708
-6.4105 -2.7668 -2.4968 0.9708
-6.3075 -2.9941 -2.4968 0.9708
-6.1965 -3.2175 -2.4968 0.9708
-6.0776 -3.4368 -2.4968 0.9708
-5.8166 -3.8621 -2.4968 0.9708
-5.5260 -4.2676 -2.4968 0.9708
-5.3700 -4.4623 -2.4968 0.9708
-5.2071 -4.6513 -2.4968 0.9708
-5.0376 -4.8344 -2.4968 0.9708
-4.8617 -5.0113 -2.4968 0.9708
-4.4914 -5.3457 -2.4968 0.9708
-4.2975 -5.5028 -2.4968 0.9708
-4.0981 -5.6528 -2.4968 0.9708
-3.8936 -5.7957 -2.4968 0.9708
-3.6840 -5.9310 -2.4968 0.9708
-3.4697 -6.0589 -2.4968 0.9708
-3.0282 -6.2912 -2.4968 0.9708
-2.8015 -6.3954 -2.4968 0.9708
-2.5712 -6.4914 -2.4968 0.9708
-1.6202 -6.7915 -2.4968 0.9708
-1.1311 -6.8899 -2.4968 0.9708
-0.3873 -6.9713 -2.4968 0.9708
0.3609 -6.9727 -2.4968 0.9708
0.6098 -6.9554 -2.4968 0.9708
0.8579 -6.9292 -2.4968 0.9708
1.3506 -6.8502 -2.4968 0.9708
1.5944 -6.7976 -2.4968 0.9708
-3.9740 5.1632 -2.4968 0.9725
-4.1559 5.0179 -2.4968 0.9725
-4.6690 4.5444 -2.4968 0.9725
-4.8284 4.3746 -2.4968 0.9725
-5.1285 4.0187 -2.4968 0.9725
-5.6487 3.2470 -2.4968 0.9725
-5.8661 2.8354 -2.4968 0.9725
-6.0536 2.4092 -2.4968 0.9725
-6.1359 2.1914 -2.4968 0.9725
-3.7940 0.4906 -1.4660 0.9837
-3.8062 0.3545 -1.4649 0.9838
-3.8155 0.2182 -1.4646 0.9838
-3.8182 -0.0548 -1.4634 0.9838
-3.8127 -0.1911 -1.4629 0.9838
-3.7958 -0.4637 -1.4654 0.9838
-6.3457 -1.4775 -2.4968 0.9725
-6.0705 -2.3665 -2.4968 0.9725
-5.9820 -2.5818 -2.4968 0.9725
-5.8860 -2.7939 -2.4968 0.9725
-5.7824 -3.0024 -2.4968 0.9725
-5.6714 -3.2071 -2.4968 0.9725
-5.4279 -3.6040 -2.4968 0.9725
-5.1567 -3.9824 -2.4968 0.9725
-4.5367 -4.6764 -2.4968 0.9725
-4.3668 -4.8355 -2.4968 0.9725
-4.0103 -5.1350 -2.4968 0.9725
-3.2378 -5.6540 -2.4968 0.9725
-3.0338 -5.7660 -2.4968 0.9725
-1.9606 -6.2134 -2.4968 0.9725
-1.2845 -6.3876 -2.4968 0.9725
-0.8251 -6.4630 -2.4968 0.9725
-0.3614 -6.5054 -2.4968 0.9725
0.1041 -6.5146 -2.4968 0.9725
0.3368 -6.5067 -2.4968 0.9725
0.5690 -6.4905 -2.4968 0.9725
0.8006 -6.4660 -2.4968 0.9725
1.4879 -6.3433 -2.4968 0.9725
-4.2169 4.4085 -2.4968 0.9740
-4.5210 4.0961 -2.4968 0.9740
-4.6645 3.9320 -2.4968 0.9740
-4.9333 3.5888 -2.4968 0.9740
-5.1770 3.2274 -2.4968 0.9740
-5.2890 3.0403 -2.4968 0.9740
-5.3943 2.8494 -2.4968 0.9740
-5.4927 2.6549 -2.4968 0.9740
-5.7452 2.0519 -2.4968 0.9740
-5.8149 1.8453 -2.4968 0.9740
-3.6522 0.7406 -1.5252 0.9840
-3.6702 0.2099 -1.5046 0.9842
-3.6737 0.0786 -1.5039 0.9842
-3.6691 -0.1839 -1.5036 0.9842
-3.6635 -0.3152 -1.5049 0.9842
-3.6577 -0.4468 -1.5081 0.9842
-3.7314 -0.5918 -1.5462 0.9838
-5.9873 -1.1703 -2.4968 0.9740
-5.8277 -1.8042 -2.4968 0.9740
-5.7595 -2.0113 -2.4968 0.9740
-5.6012 -2.4175 -2.4968 0.9740
-5.5112 -2.6158 -2.4968 0.9740
-4.6921 -3.8990 -2.4968 0.9740
-4.5498 -4.0642 -2.4968 0.9740
-4.4016 -4.2241 -2.4968 0.9740
-4.2479 -4.3787 -2.4968 0.9740
-3.9244 -4.6708 -2.4968 0.9740
-3.7550 -4.8081 -2.4968 0.9740
-3.4020 -5.0640 -2.4968 0.9740
-3.2189 -5.1823 -2.4968 0.9740
-2.6459 -5.4970 -2.4968 0.9740
-2.4478 -5.5880 -2.4968 0.9740
-2.2466 -5.6719 -2.4968 0.9740
-1.4157 -5.9341 -2.4968 0.9740
-1.2027 -5.9809 -2.4968 0.9740
-0.9883 -6.0201 -2.4968 0.9740
-0.7725 -6.0515 -2.4968 0.9740
-0.1206 -6.0994 -2.4968 0.9740
0.0974 -6.0998 -2.4968 0.9740
0.3153 -6.0925 -2.4968 0.9740
0.7496 -6.0544 -2.4968 0.9740
1.3932 -5.9394 -2.4968 0.9740
-3.4944 4.5400 -2.4968 0.9753
-3.9601 4.1400 -2.4968 0.9753
-4.1054 3.9963 -2.4968 0.9753
-4.5095 3.5337 -2.4968 0.9753
-4.8618 3.0308 -2.4968 0.9753
-5.0658 2.6759 -2.4968 0.9753
-5.2439 2.3073 -2.4968 0.9753
-3.5018 0.7101 -1.5572 0.9845
-3.5079 0.5817 -1.5497 0.9846
-3.5160 0.4547 -1.5451 0.9846
-3.5325 0.2020 -1.5420 0.9847
-3.5361 -0.0507 -1.5412 0.9847
-3.5334 -0.1771 -1.5419 0.9847
-3.5745 -0.5669 -1.5773 0.9843
-5.6227 -1.0990 -2.4968 0.9753
-5.5798 -1.2992 -2.4968 0.9753
-5.3378 -2.0808 -2.4968 0.9753
-5.0845 -2.6401 -2.4968 0.9753
-4.8830 -2.9965 -2.4968 0.9753
-3.8397 -4.2519 -2.4968 0.9753
-3.5263 -4.5153 -2.4968 0.9753
-3.3627 -4.6384 -2.4968 0.9753
-3.1948 -4.7556 -2.4968 0.9753
-3.0229 -4.8667 -2.4968 0.9753
-2.1098 -5.3265 -2.4968 0.9753
-1.9181 -5.3984 -2.4968 0.9753
-1.5277 -5.5217 -2.4968 0.9753
-0.9281 -5.6534 -2.4968 0.9753
-0.7255 -5.6830 -2.4968 0.9753
0.7040 -5.6857 -2.4968 0.9753
0.9066 -5.6569 -2.4968 0.9753
1.3083 -5.5777 -2.4968 0.9753
-3.2900 4.2745 -2.4968 0.9765
-3.4407 4.1543 -2.4968 0.9765
-3.7285 3.8979 -2.4968 0.9765
-3.9974 3.6217 -2.4968 0.9765
-4.1242 3.4766 -2.4968 0.9765
-4.2458 3.3270 -2.4968 0.9765
-4.3620 3.1732 -2.4968 0.9765
-4.5775 2.8536 -2.4968 0.9765
-4.6765 2.6882 -2.4968 0.9765
-5.1414 1.6316 -2.4968 0.9765
-5.1964 1.4469 -2.4968 0.9765
-3.3925 0.6879 -1.6023 0.9849
-3.3927 0.5626 -1.5919 0.9850
-3.3901 0.4384 -1.5823 0.9850
-3.3981 0.3165 -1.5797 0.9851
-3.4042 0.1947 -1.5783 0.9851
-3.4071 -0.0489 -1.5772 0.9851
-3.4030 -0.2928 -1.5810 0.9851
-3.4073 -0.4162 -1.5889 0.9850
-3.4746 -0.5511 -1.6284 0.9846
-5.2065 -1.4101 -2.4968 0.9765
-5.0925 -1.7784 -2.4968 0.9765
-5.0257 -1.9592 -2.4968 0.9765
-4.9525 -2.1375 -2.4968 0.9765
-4.7872 -2.4857 -2.4968 0.9765
-4.3842 -3.1424 -2.4968 0.9765
-4.1486 -3.4474 -2.4968 0.9765
-4.0228 -3.5935 -2.4968 0.9765
-3.8919 -3.7349 -2.4968 0.9765
-3.6152 -4.0033 -2.4968 0.9765
-3.0080 -4.4775 -2.4968 0.9765
-2.8461 -4.5821 -2.4968 0.9765
-2.6806 -4.6808 -2.4968 0.9765
-2.5116 -4.7737 -2.4968 0.9765
-2.1643 -4.9408 -2.4968 0.9765
-1.9864 -5.0150 -2.4968 0.9765
-1.4384 -5.1988 -2.4968 0.9765
-1.2517 -5.2468 -2.4968 0.9765
-1.0634 -5.2882 -2.4968 0.9765
-0.4915 -5.3716 -2.4968 0.9765
0.6628 -5.3532 -2.4968 0.9765
1.0434 -5.2922 -2.4968 0.9765
-3.1047 4.0336 -2.4968 0.9776
-3.2468 3.9202 -2.4968 0.9776
-3.3848 3.8017 -2.4968 0.9776
-3.5185 3.6783 -2.4968 0.9776
-3.7722 3.4176 -2.4968 0.9776
-3.8919 3.2807 -2.4968 0.9776
-4.0066 3.1396 -2.4968 0.9776
-4.3195 2.6928 -2.4968 0.9776
-4.4130 2.5367 -2.4968 0.9776
-4.5008 2.3774 -2.4968 0.9776
-4.5829 2.2151 -2.4968 0.9776
-4.7936 1.7119 -2.4968 0.9776
-3.5213 0.8461 -1.7764 0.9840
-3.3403 0.6774 -1.6718 0.9849
-3.3061 0.5483 -1.6439 0.9852
-3.2933 0.4259 -1.6289 0.9853
-3.2965 0.0705 -1.6174 0.9854
-3.3008 -0.0474 -1.6193 0.9854
-3.3053 -0.2844 -1.6273 0.9853
-3.4036 -0.5398 -1.6904 0.9848
-4.9575 -1.1543 -2.4968 0.9776
-4.8624 -1.5054 -2.4968 0.9776
-4.8056 -1.6782 -2.4968 0.9776
-4.7425 -1.8488 -2.4968 0.9776
-4.6734 -2.0171 -2.4968 0.9776
-4.1372 -2.9653 -2.4968 0.9776
-4.0286 -3.1112 -2.4968 0.9776
-3.7962 -3.3910 -2.4968 0.9776
-3.5443 -3.6534 -2.4968 0.9776
-2.8385 -4.2252 -2.4968 0.9776
-2.2076 -4.5865 -2.4968 0.9776
-1.8745 -4.7324 -2.4968 0.9776
-1.5317 -4.8542 -2.4968 0.9776
-1.3573 -4.9058 -2.4968 0.9776
-1.1812 -4.9512 -2.4968 0.9776
-1.0035 -4.9902 -2.4968 0.9776
-0.4638 -5.0689 -2.4968 0.9776
-0.2824 -5.0823 -2.4968 0.9776
-0.1006 -5.0891 -2.4968 0.9776
0.0813 -5.0895 -2.4968 0.9776
0.2631 -5.0833 -2.4968 0.9776
0.4446 -5.0707 -2.4968 0.9776
0.6254 -5.0516 -2.4968 0.9776
-3.0700 3.7067 -2.4968 0.9785
-3.2004 3.5946 -2.4968 0.9785
-3.4490 3.3569 -2.4968 0.9785
-3.9907 2.6904 -2.4968 0.9785
-4.0843 2.5461 -2.4968 0.9785
-4.5875 1.4558 -2.4968 0.9785
-3.4066 0.8185 -1.8176 0.9843
-3.2808 0.5441 -1.7252 0.9851
-3.2641 0.4221 -1.7074 0.9853
-3.2576 0.1863 -1.6927 0.9854
-3.2559 0.0697 -1.6895 0.9854
-3.2626 -0.0468 -1.6927 0.9854
-3.2720 -0.2815 -1.7037 0.9853
-3.3066 -0.4039 -1.7281 0.9851
-3.3488 -0.5311 -1.7590 0.9848
-3.5911 -0.7020 -1.8983 0.9836
-4.6875 -1.0914 -2.4968 0.9785
-4.6455 -1.2582 -2.4968 0.9785
-4.4842 -1.7481 -2.4968 0.9785
-4.3479 -2.0639 -2.4968 0.9785
-4.2714 -2.2179 -2.4968 0.9785
-4.1894 -2.3691 -2.4968 0.9785
-4.1021 -2.5173 -2.4968 0.9785
-3.7017 -3.0760 -2.4968 0.9785
-3.4725 -3.3325 -2.4968 0.9785
-2.5395 -4.0884 -2.4968 0.9785
-1.9311 -4.4085 -2.4968 0.9785
-1.2834 -4.6386 -2.4968 0.9785
-0.7797 -4.7493 -2.4968 0.9785
-0.2670 -4.8055 -2.4968 0.9785
-0.0951 -4.8120 -2.4968 0.9785
0.2488 -4.8065 -2.4968 0.9785
0.4203 -4.7945 -2.4968 0.9785
0.5914 -4.7764 -2.4968 0.9785
0.7617 -4.7522 -2.4968 0.9785
0.9310 -4.7220 -2.4968 0.9785
-2.7805 3.6126 -2.4968 0.9794
-3.4856 2.9382 -2.4968 0.9794
-3.5883 2.8118 -2.4968 0.9794
-3.7799 2.5483 -2.4968 0.9794
-3.8686 2.4117 -2.4968 0.9794
-4.2356 1.6857 -2.4968 0.9794
-4.3452 1.3789 -2.4968 0.9794
-4.3917 1.2228 -2.4968 0.9794
-3.3826 0.8128 -1.9054 0.9843
-3.3082 0.6708 -1.8488 0.9847
-3.2321 0.3010 -1.7779 0.9853
-3.2271 0.1846 -1.7704 0.9854
-3.2256 0.0690 -1.7671 0.9854
-3.2322 -0.0464 -1.7705 0.9854
-3.2381 -0.1623 -1.7758 0.9853
-3.2486 -0.2795 -1.7858 0.9852
-4.4400 -1.0338 -2.4968 0.9794
-4.4002 -1.1918 -2.4968 0.9794
-4.1855 -1.8065 -2.4968 0.9794
-4.1183 -1.9549 -2.4968 0.9794
-3.9682 -2.2440 -2.4968 0.9794
-3.8855 -2.3844 -2.4968 0.9794
-3.7053 -2.6557 -2.4968 0.9794
-3.6080 -2.7864 -2.4968 0.9794
-3.5062 -2.9136 -2.4968 0.9794
-3.2892 -3.1565 -2.4968 0.9794
-2.9325 -3.4903 -2.4968 0.9794
-2.8059 -3.5929 -2.4968 0.9794
-2.5422 -3.7841 -2.4968 0.9794
-2.4054 -3.8725 -2.4968 0.9794
-2.1227 -4.0344 -2.4968 0.9794
-1.8291 -4.1757 -2.4968 0.9794
-1.6788 -4.2384 -2.4968 0.9794
-1.5263 -4.2956 -2.4968 0.9794
-1.3718 -4.3474 -2.4968 0.9794
-1.0579 -4.4343 -2.4968 0.9794
-0.8987 -4.4693 -2.4968 0.9794
-0.7385 -4.4985 -2.4968 0.9794
-0.5773 -4.5220 -2.4968 0.9794
-0.2529 -4.5517 -2.4968 0.9794
-0.0901 -4.5579 -2.4968 0.9794
0.0728 -4.5581 -2.4968 0.9794
0.2356 -4.5527 -2.4968 0.9794
0.5602 -4.5242 -2.4968 0.9794
0.7214 -4.5013 -2.4968 0.9794
1.0410 -4.4383 -2.4968 0.9794
-2.8758 3.2300 -2.4968 0.9802
-3.0991 3.0163 -2.4968 0.9802
-3.3066 2.7873 -2.4968 0.9802
-3.4040 2.6674 -2.4968 0.9802
-3.4972 2.5441 -2.4968 0.9802
-3.6699 2.2879 -2.4968 0.9802
-3.9584 1.7417 -2.4968 0.9802
-4.0727 1.4546 -2.4968 0.9802
-4.1221 1.3081 -2.4968 0.9802
-4.1662 1.1600 -2.4968 0.9802
-3.2294 0.4176 -1.8800 0.9851
-3.2214 0.3000 -1.8679 0.9852
-3.2069 0.0686 -1.8519 0.9853
-3.2789 -0.4005 -1.9071 0.9849
-3.3223 -0.5270 -1.9421 0.9846
-4.2120 -0.9807 -2.4968 0.9802
-4.1742 -1.1306 -2.4968 0.9802
-4.1312 -1.2790 -2.4968 0.9802
-3.9706 -1.7137 -2.4968 0.9802
-3.8381 -1.9929 -2.4968 0.9802
-3.5150 -2.5193 -2.4968 0.9802
-3.4228 -2.6433 -2.4968 0.9802
-3.1203 -2.9944 -2.4968 0.9802
-2.7819 -3.3111 -2.4968 0.9802
-2.6618 -3.4084 -2.4968 0.9802
-2.5384 -3.5013 -2.4968 0.9802
-2.4116 -3.5898 -2.4968 0.9802
-2.1491 -3.7528 -2.4968 0.9802
-2.0137 -3.8272 -2.4968 0.9802
-1.8756 -3.8967 -2.4968 0.9802
-1.5926 -4.0207 -2.4968 0.9802
-1.4479 -4.0750 -2.4968 0.9802
-1.3014 -4.1242 -2.4968 0.9802
-1.1532 -4.1681 -2.4968 0.9802
-1.0035 -4.2066 -2.4968 0.9802
-0.8526 -4.2398 -2.4968 0.9802
-0.2399 -4.3180 -2.4968 0.9802
-0.0855 -4.3238 -2.4968 0.9802
0.5314 -4.2919 -2.4968 0.9802
0.8365 -4.2429 -2.4968 0.9802
0.9876 -4.2104 -2.4968 0.9802
