ply
format ascii 1.0
element vertex 890
property float32 x
property float32 y
property float32 z
property float32 I
end_header
30.0312 -11.5004 5.6703 0.8776
10.0155 -11.0662 2.2865 0.9414
30.0273 -11.4989 4.9258 0.8780
39.8926 8.5901 6.2514 0.8478
30.0234 -11.4974 4.1865 0.8784
39.8912 8.5897 5.3137 0.8482
39.8794 8.5872 3.4533 0.8489
10.0118 -11.0621 0.9252 0.9420
39.8736 8.5860 2.5292 0.8492
42.6270 23.3424 3.0137 0.8230
42.6713 25.4111 3.0797 0.8195
10.0109 -11.0611 0.5883 0.9420
44.4407 20.3153 1.9268 0.8223
42.5845 21.3581 1.8785 0.8264
42.6270 23.3424 1.9163 0.8232
42.6713 25.4111 1.9583 0.8197
10.0100 -11.0600 0.2520 0.9421
30.0042 -11.4901 0.5427 0.8794
42.6270 23.3424 0.8209 0.8233
42.6713 25.4111 0.8389 0.8198
10.0091 -11.0590 -0.0840 0.9421
30.0004 -11.4886 -0.1809 0.8794
39.8561 8.5822 -0.2295 0.8495
42.6268 23.3424 -0.2736 0.8233
42.6712 25.4111 -0.2796 0.8198
29.9966 -11.4871 -0.9045 0.8794
39.8503 8.5810 -1.1478 0.8495
44.4377 20.3140 -1.3758 0.8224
42.6268 23.3424 -1.3685 0.8233
10.0072 -11.0570 -0.7563 0.9420
44.3738 -18.8569 -2.4452 0.8244
29.8496 -11.4308 -1.6210 0.8798
44.8988 -15.3592 -2.4066 0.8269
45.1067 -13.6322 -2.3897 0.8280
44.8272 -11.7994 -2.3508 0.8306
45.1396 -10.1542 -2.3464 0.8308
48.4166 -9.0684 -2.4981 0.8210
49.2177 -2.0043 -2.4981 0.8210
49.1459 3.3293 -2.4981 0.8210
48.9936 5.1015 -2.4981 0.8210
45.8051 6.4487 -2.3459 0.8309
39.6428 8.5363 -2.0565 0.8501
44.9278 11.3861 -2.3505 0.8306
44.4821 12.9993 -2.3502 0.8306
43.9785 14.5951 -2.3500 0.8306
43.4178 16.1715 -2.3497 0.8306
42.8006 17.7265 -2.3494 0.8307
41.4004 20.7643 -2.3489 0.8307
39.7853 23.6925 -2.3484 0.8307
36.9787 27.8468 -2.3476 0.8308
34.8715 30.4417 -2.3475 0.8308
33.7491 31.6802 -2.3475 0.8308
32.5827 32.8777 -2.3475 0.8308
31.3740 34.0322 -2.3474 0.8308
30.1245 35.1423 -2.3474 0.8308
28.8358 36.2068 -2.3474 0.8308
27.5037 37.2161 -2.3469 0.8308
24.7350 39.0860 -2.3458 0.8309
21.8559 40.7801 -2.3464 0.8308
17.3265 42.9247 -2.3476 0.8308
15.7678 43.5290 -2.3479 0.8308
14.1880 44.0764 -2.3483 0.8307
10.0658 -32.2828 -2.4794 0.8732
12.5317 -31.8861 -2.5120 0.8716
13.7635 -31.6164 -2.5283 0.8708
14.9917 -31.2987 -2.5446 0.8701
16.2144 -30.9323 -2.5607 0.8693
17.4294 -30.5170 -2.5768 0.8685
18.6344 -30.0526 -2.5927 0.8678
21.0057 -28.9760 -2.6241 0.8663
22.9924 -27.3257 -2.6185 0.8666
25.5958 -22.7614 -2.5115 0.8716
26.1324 -21.6005 -2.4859 0.8729
27.1289 -19.3067 -2.4414 0.8750
28.0497 -17.0544 -2.4070 0.8766
28.4979 -15.9470 -2.3944 0.8772
29.7342 -12.6357 -2.3689 0.8785
29.6833 -11.3672 -2.3306 0.8803
33.2397 -7.4773 -2.4981 0.8723
33.6926 -5.0591 -2.4981 0.8723
34.0421 -1.3863 -2.4981 0.8723
33.9924 2.3027 -2.4981 0.8723
33.5441 5.9648 -2.4981 0.8723
31.2875 6.7371 -2.3466 0.8795
30.7759 8.9938 -2.3509 0.8793
30.4286 10.0983 -2.3507 0.8793
28.6488 14.3687 -2.3500 0.8794
27.5331 16.3962 -2.3496 0.8794
26.9211 17.3783 -2.3495 0.8794
25.5933 19.2730 -2.3491 0.8794
24.1328 21.0671 -2.3488 0.8794
22.5492 22.7534 -2.3488 0.8794
20.8482 24.3209 -2.3488 0.8794
19.9564 25.0577 -2.3488 0.8794
17.1249 27.0606 -2.3481 0.8795
16.1342 27.6570 -2.3477 0.8795
15.1228 28.2173 -2.3474 0.8795
14.0921 28.7406 -2.3470 0.8795
6.6703 -24.4694 -2.4349 0.9031
7.5870 -24.3331 -2.4470 0.9026
8.5025 -24.1622 -2.4591 0.9022
12.1237 -23.1285 -2.5070 0.9004
13.0116 -22.7819 -2.5188 0.8999
13.7901 -22.2398 -2.5123 0.9002
15.8066 -20.2251 -2.4644 0.9020
18.6264 -16.5637 -2.3930 0.9047
19.1297 -15.8122 -2.3827 0.9051
19.6302 -15.0667 -2.3757 0.9053
20.5895 -13.5603 -2.3669 0.9057
21.3885 -11.9687 -2.3530 0.9062
22.8567 -9.7131 -2.3843 0.9050
25.3862 -5.7106 -2.4981 0.9007
25.7322 -3.8638 -2.4981 0.9007
25.9611 1.7587 -2.4981 0.9007
25.6188 4.5555 -2.4981 0.9007
25.4376 5.4775 -2.4981 0.9007
23.2244 7.7075 -2.3492 0.9063
22.9484 8.5474 -2.3510 0.9063
20.5744 8.5212 -2.1380 0.9144
22.2690 10.1799 -2.3507 0.9063
21.4737 11.7590 -2.3504 0.9063
21.0340 12.5260 -2.3503 0.9063
20.5669 13.2765 -2.3502 0.9063
20.0730 14.0096 -2.3501 0.9063
19.5531 14.7244 -2.3499 0.9063
18.4376 16.0954 -2.3497 0.9063
17.8436 16.7498 -2.3496 0.9063
17.2268 17.3828 -2.3495 0.9063
15.9273 18.5804 -2.3495 0.9063
13.0855 20.6777 -2.3493 0.9063
11.5566 21.5631 -2.3487 0.9064
10.7693 21.9637 -2.3485 0.9064
9.9681 22.3358 -2.3482 0.9064
8.3286 22.9921 -2.3477 0.9064
7.4922 23.2754 -2.3475 0.9064
5.3530 -19.6370 -2.4177 0.9213
7.5337 -19.1690 -2.4465 0.9204
8.8439 -18.4637 -2.4318 0.9208
9.4659 -18.0582 -2.4219 0.9212
11.7778 -16.2468 -2.3836 0.9223
12.8471 -15.2683 -2.3703 0.9228
9.9245 -10.9655 -1.7568 0.9422
14.3639 -13.7334 -2.3606 0.9231
15.7307 -12.0737 -2.3555 0.9232
16.1180 -11.4707 -2.3499 0.9234
16.5105 -10.8738 -2.3483 0.9235
16.8806 -10.2635 -2.3467 0.9235
17.3645 -9.7169 -2.3636 0.9230
18.7112 -9.6004 -2.4981 0.9188
19.6395 -7.5209 -2.4981 0.9188
19.8983 -6.8069 -2.4981 0.9188
20.3376 -5.3532 -2.4981 0.9188
20.6709 -3.8716 -2.4981 0.9188
20.8964 -2.3699 -2.4981 0.9188
20.9684 -1.6138 -2.4981 0.9188
21.0301 -0.0964 -2.4981 0.9188
21.0199 0.6629 -2.4981 0.9188
20.9823 1.4214 -2.4981 0.9188
20.3859 5.1664 -2.4981 0.9188
20.1860 5.8991 -2.4981 0.9188
18.7698 6.2291 -2.3492 0.9234
18.5162 6.8966 -2.3471 0.9235
17.6911 8.8729 -2.3510 0.9234
17.0031 10.1255 -2.3507 0.9234
16.2266 11.3251 -2.3505 0.9234
15.8065 11.9031 -2.3504 0.9234
15.3658 12.4655 -2.3503 0.9234
13.9262 14.0522 -2.3500 0.9234
13.4092 14.5453 -2.3500 0.9234
12.3245 15.4749 -2.3499 0.9234
11.7577 15.9098 -2.3499 0.9234
11.1756 16.3239 -2.3499 0.9234
10.5789 16.7167 -2.3499 0.9234
9.9679 17.0869 -2.3498 0.9234
8.7073 17.7583 -2.3494 0.9234
8.0597 18.0596 -2.3492 0.9234
7.4018 18.3372 -2.3490 0.9234
6.7343 18.5909 -2.3488 0.9234
6.0582 18.8204 -2.3486 0.9234
5.0016 -16.0412 -2.3808 0.9344
5.5648 -15.8140 -2.3754 0.9345
7.7309 -14.7482 -2.3593 0.9349
8.2495 -14.4440 -2.3568 0.9350
8.7565 -14.1220 -2.3544 0.9351
9.2656 -13.8041 -2.3556 0.9350
10.7221 -12.7429 -2.3596 0.9349
11.9874 -11.4613 -2.3499 0.9352
13.6510 -9.7150 -2.3740 0.9346
14.7163 -9.6922 -2.4968 0.9313
15.0649 -9.1595 -2.4981 0.9312
15.6866 -8.0485 -2.4981 0.9312
15.9670 -7.4769 -2.4981 0.9312
16.2265 -6.8956 -2.4981 0.9312
16.4649 -6.3052 -2.4981 0.9312
17.2010 -3.8694 -2.4981 0.9312
17.3296 -3.2458 -2.4981 0.9312
17.4354 -2.6180 -2.4981 0.9312
17.5789 -1.3530 -2.4981 0.9312
17.6163 -0.7174 -2.4981 0.9312
17.4587 2.4579 -2.4981 0.9312
17.0906 4.3313 -2.4981 0.9312
16.5221 6.1539 -2.4981 0.9312
15.2954 6.3348 -2.3457 0.9353
13.6056 9.4958 -2.3508 0.9352
13.2533 9.9804 -2.3508 0.9352
12.8839 10.4521 -2.3507 0.9352
12.4977 10.9101 -2.3506 0.9352
12.0952 11.3538 -2.3505 0.9352
10.3336 12.9751 -2.3502 0.9352
9.8584 13.3398 -2.3502 0.9352
8.8701 14.0164 -2.3502 0.9352
8.3582 14.3275 -2.3502 0.9352
7.8352 14.6195 -2.3502 0.9352
7.3017 14.8917 -2.3500 0.9352
6.7588 15.1445 -2.3498 0.9352
6.2071 15.3775 -2.3496 0.9352
5.6475 15.5905 -2.3495 0.9352
3.7526 -13.7661 -2.3506 0.9438
5.7036 -13.1019 -2.3540 0.9437
6.1755 -12.8927 -2.3550 0.9437
7.9533 -11.8490 -2.3509 0.9438
8.3731 -11.5502 -2.3501 0.9438
9.1781 -10.9078 -2.3484 0.9438
9.5622 -10.5652 -2.3475 0.9439
9.9334 -10.2090 -2.3466 0.9439
10.2917 -9.8401 -2.3457 0.9439
11.6881 -9.6611 -2.4981 0.9404
12.3551 -8.7925 -2.4981 0.9404
13.2330 -7.4050 -2.4981 0.9404
13.7329 -6.4308 -2.4981 0.9404
14.1612 -5.4230 -2.4981 0.9404
14.3477 -4.9081 -2.4981 0.9404
14.7943 -3.3280 -2.4981 0.9404
15.0674 -1.7088 -2.4981 0.9404
15.1193 -1.1636 -2.4981 0.9404
15.0825 1.5705 -2.4981 0.9404
15.0159 2.1140 -2.4981 0.9404
14.6993 3.7253 -2.4981 0.9404
14.5552 4.2536 -2.4981 0.9404
14.3922 4.7763 -2.4981 0.9404
14.2104 5.2928 -2.4981 0.9404
12.4955 6.8425 -2.3469 0.9439
12.2466 7.2929 -2.3481 0.9439
11.9813 7.7343 -2.3493 0.9438
11.7000 8.1658 -2.3505 0.9438
11.4002 8.5849 -2.3510 0.9438
11.0824 8.9907 -2.3509 0.9438
10.4041 9.7664 -2.3508 0.9438
10.0444 10.1354 -2.3507 0.9438
9.6717 10.4912 -2.3507 0.9438
9.2864 10.8332 -2.3506 0.9438
8.8890 11.1612 -2.3506 0.9438
8.4800 11.4746 -2.3505 0.9438
8.0600 11.7730 -2.3504 0.9438
7.1894 12.3240 -2.3505 0.9438
6.7398 12.5756 -2.3505 0.9438
6.2813 12.8105 -2.3504 0.9438
5.3398 13.2287 -2.3501 0.9438
4.8583 13.4121 -2.3500 0.9438
4.3707 13.5780 -2.3498 0.9438
3.7286 -11.9483 -2.3524 0.9503
4.1515 -11.7978 -2.3508 0.9504
4.5740 -11.6381 -2.3504 0.9504
8.1725 -9.7127 -2.3859 0.9496
8.7784 -9.6992 -2.4589 0.9481
9.6063 -9.1847 -2.4981 0.9473
10.5431 -8.0921 -2.4981 0.9473
10.8284 -7.7062 -2.4981 0.9473
11.3563 -6.9047 -2.4981 0.9473
11.5982 -6.4902 -2.4981 0.9473
11.8249 -6.0672 -2.4981 0.9473
12.2319 -5.1980 -2.4981 0.9473
12.8528 -3.3831 -2.4981 0.9473
12.9666 -2.9168 -2.4981 0.9473
13.1432 -1.9735 -2.4981 0.9473
13.2059 -1.4977 -2.4981 0.9473
13.2514 -1.0199 -2.4981 0.9473
13.2796 -0.5408 -2.4981 0.9473
13.2904 -0.0610 -2.4981 0.9473
13.2602 0.8983 -2.4981 0.9473
13.2191 1.3765 -2.4981 0.9473
13.1608 1.8528 -2.4981 0.9473
12.9928 2.7978 -2.4981 0.9473
12.7570 3.7280 -2.4981 0.9473
12.2791 5.0856 -2.4981 0.9473
12.0875 5.5256 -2.4981 0.9473
10.4896 6.7713 -2.3467 0.9505
9.1196 8.5605 -2.3510 0.9504
8.4776 9.1959 -2.3509 0.9504
7.7916 9.7833 -2.3508 0.9504
7.4331 10.0580 -2.3507 0.9504
7.0650 10.3196 -2.3507 0.9504
6.6877 10.5678 -2.3507 0.9504
5.9076 11.0227 -2.3506 0.9504
2.9213 -10.7166 -2.3479 0.9556
3.3059 -10.6027 -2.3476 0.9556
4.0612 -10.3333 -2.3469 0.9556
4.7945 -10.0097 -2.3460 0.9556
5.1521 -9.8286 -2.3457 0.9556
5.5495 -9.7166 -2.3653 0.9553
7.2774 -9.3117 -2.4981 0.9528
7.6088 -9.0429 -2.4981 0.9528
8.5420 -8.1671 -2.4981 0.9528
9.3750 -7.1956 -2.4981 0.9528
9.6287 -6.8524 -2.4981 0.9528
9.8698 -6.5003 -2.4981 0.9528
10.0981 -6.1397 -2.4981 0.9528
10.5148 -5.3950 -2.4981 0.9528
10.8768 -4.6221 -2.4981 0.9528
11.0366 -4.2264 -2.4981 0.9528
11.3127 -3.4190 -2.4981 0.9528
11.7428 -1.3318 -2.4981 0.9528
11.8083 -0.4809 -2.4981 0.9528
11.8180 -0.0542 -2.4981 0.9528
11.7911 0.7988 -2.4981 0.9528
11.7027 1.6476 -2.4981 0.9528
11.3436 3.3150 -2.4981 0.9528
11.2166 3.7224 -2.4981 0.9528
10.9187 4.5221 -2.4981 0.9528
10.5640 5.2983 -2.4981 0.9528
10.1540 6.0468 -2.4981 0.9528
9.6147 6.2066 -2.4190 0.9543
8.8677 6.6778 -2.3465 0.9556
8.3686 7.3055 -2.3482 0.9556
8.1021 7.6055 -2.3490 0.9556
7.5371 8.1756 -2.3505 0.9556
7.2386 8.4444 -2.3510 0.9555
6.2828 9.1771 -2.3509 0.9555
5.9473 9.3978 -2.3509 0.9555
5.6040 9.6063 -2.3508 0.9555
4.8960 9.9853 -2.3508 0.9556
4.5323 10.1557 -2.3508 0.9556
4.1627 10.3127 -2.3508 0.9556
3.7875 10.4559 -2.3507 0.9556
3.4074 10.5853 -2.3506 0.9556
2.6486 -9.7163 -2.3669 0.9595
3.4157 -9.7067 -2.4184 0.9586
4.5917 -9.5863 -2.4981 0.9573
4.9348 -9.4142 -2.4981 0.9573
5.9239 -8.8254 -2.4981 0.9573
6.5453 -8.3749 -2.4981 0.9573
6.8434 -8.1331 -2.4981 0.9573
7.4125 -7.6181 -2.4981 0.9573
7.6827 -7.3455 -2.4981 0.9573
8.4319 -6.4717 -2.4981 0.9573
8.8769 -5.8464 -2.4981 0.9573
9.0822 -5.5221 -2.4981 0.9573
9.2757 -5.1905 -2.4981 0.9573
9.4570 -4.8523 -2.4981 0.9573
9.6261 -4.5076 -2.4981 0.9573
9.7825 -4.1572 -2.4981 0.9573
10.0570 -3.4404 -2.4981 0.9573
10.1747 -3.0750 -2.4981 0.9573
10.2791 -2.7057 -2.4981 0.9573
10.3701 -2.3328 -2.4981 0.9573
10.4475 -1.9568 -2.4981 0.9573
10.5114 -1.5783 -2.4981 0.9573
10.5615 -1.1978 -2.4981 0.9573
10.5979 -0.8157 -2.4981 0.9573
10.6204 -0.4325 -2.4981 0.9573
10.6239 0.3350 -2.4981 0.9573
10.6049 0.7184 -2.4981 0.9573
10.5721 1.1008 -2.4981 0.9573
10.3035 2.6112 -2.4981 0.9573
10.2025 2.9815 -2.4981 0.9573
10.0882 3.3480 -2.4981 0.9573
9.9607 3.7100 -2.4981 0.9573
9.8203 4.0672 -2.4981 0.9573
8.9302 5.7647 -2.4981 0.9573
8.7162 6.0834 -2.4981 0.9573
8.2406 6.2056 -2.4245 0.9585
7.5204 6.5651 -2.3462 0.9598
7.2807 6.8344 -2.3469 0.9598
7.0313 7.0949 -2.3476 0.9598
6.2280 7.8200 -2.3495 0.9598
5.6502 8.2532 -2.3507 0.9597
5.3493 8.4530 -2.3510 0.9597
4.7253 8.8167 -2.3510 0.9597
4.4038 8.9815 -2.3509 0.9597
4.0766 9.1345 -2.3509 0.9597
3.7441 9.2757 -2.3509 0.9597
3.0649 9.5215 -2.3508 0.9597
3.2026 -9.1012 -2.4981 0.9609
3.5292 -8.9797 -2.4981 0.9609
4.1680 -8.7016 -2.4981 0.9609
4.7850 -8.3781 -2.4981 0.9609
6.2118 -7.3826 -2.4981 0.9609
6.9737 -6.6676 -2.4981 0.9609
7.4367 -6.1470 -2.4981 0.9609
7.6537 -5.8745 -2.4981 0.9609
7.8608 -5.5943 -2.4981 0.9609
8.0577 -5.3068 -2.4981 0.9609
8.2440 -5.0124 -2.4981 0.9609
8.8797 -3.7735 -2.4981 0.9609
9.4130 -2.1175 -2.4981 0.9609
9.5413 -1.4327 -2.4981 0.9609
9.6435 0.3041 -2.4981 0.9609
9.5964 0.9992 -2.4981 0.9609
9.5541 1.3451 -2.4981 0.9609
9.4321 2.0310 -2.4981 0.9609
9.3526 2.3702 -2.4981 0.9609
9.0415 3.3676 -2.4981 0.9609
8.9140 3.6919 -2.4981 0.9609
8.7749 4.0113 -2.4981 0.9609
8.4625 4.6341 -2.4981 0.9609
7.9118 5.5219 -2.4981 0.9609
7.4927 6.0785 -2.4981 0.9609
7.1049 6.2023 -2.4419 0.9618
6.6302 6.2238 -2.3545 0.9631
6.1427 6.6631 -2.3465 0.9632
5.6486 7.0925 -2.3476 0.9632
5.1243 7.4849 -2.3486 0.9632
4.5726 7.8384 -2.3496 0.9632
4.2874 7.9998 -2.3500 0.9632
3.9965 8.1508 -2.3504 0.9632
3.7002 8.2911 -2.3508 0.9632
3.0925 8.5373 -2.3510 0.9632
2.9292 -8.3240 -2.4981 0.9640
3.2278 -8.2128 -2.4981 0.9640
3.8120 -7.9585 -2.4981 0.9640
4.9180 -7.3268 -2.4981 0.9640
5.1793 -7.1445 -2.4981 0.9640
6.1538 -6.3245 -2.4981 0.9640
6.5942 -5.8640 -2.4981 0.9640
6.8016 -5.6220 -2.4981 0.9640
7.0001 -5.3728 -2.4981 0.9640
7.5401 -4.5844 -2.4981 0.9640
7.7006 -4.3092 -2.4981 0.9640
7.8512 -4.0283 -2.4981 0.9640
8.1214 -3.4512 -2.4981 0.9640
8.2407 -3.1558 -2.4981 0.9640
8.6092 -1.9367 -2.4981 0.9640
8.7265 -1.3103 -2.4981 0.9640
8.7681 -0.9944 -2.4981 0.9640
8.7983 -0.6771 -2.4981 0.9640
8.8200 0.2782 -2.4981 0.9640
8.7769 0.9139 -2.4981 0.9640
8.6881 1.5449 -2.4981 0.9640
8.6266 1.8576 -2.4981 0.9640
8.3752 2.7794 -2.4981 0.9640
8.1528 3.3766 -2.4981 0.9640
7.7399 4.2383 -2.4981 0.9640
7.5818 4.5150 -2.4981 0.9640
7.2362 5.0504 -2.4981 0.9640
6.8529 5.5594 -2.4981 0.9640
6.6477 5.8032 -2.4981 0.9640
6.1416 6.1972 -2.4699 0.9644
5.7265 6.2116 -2.3917 0.9655
5.3927 6.2910 -2.3457 0.9661
5.1626 6.4823 -2.3460 0.9661
4.9262 6.6659 -2.3465 0.9661
4.4341 7.0067 -2.3474 0.9661
4.1790 7.1635 -2.3478 0.9661
3.3815 7.5769 -2.3489 0.9661
3.1061 7.6951 -2.3492 0.9661
2.8266 7.8032 -2.3495 0.9661
2.4176 -7.7537 -2.4981 0.9666
2.6960 -7.6614 -2.4981 0.9666
3.2418 -7.4468 -2.4981 0.9666
3.5086 -7.3249 -2.4981 0.9666
3.7707 -7.1935 -2.4981 0.9666
4.2800 -6.9026 -2.4981 0.9666
4.7670 -6.5757 -2.4981 0.9666
5.0013 -6.3993 -2.4981 0.9666
5.8704 -5.6128 -2.4981 0.9666
6.0692 -5.3971 -2.4981 0.9666
6.2601 -5.1745 -2.4981 0.9666
6.4428 -4.9451 -2.4981 0.9666
6.6172 -4.7092 -2.4981 0.9666
6.9398 -4.2194 -2.4981 0.9666
7.0876 -3.9661 -2.4981 0.9666
7.2262 -3.7076 -2.4981 0.9666
7.3554 -3.4443 -2.4981 0.9666
7.4749 -3.1765 -2.4981 0.9666
7.9239 -1.7825 -2.4981 0.9666
8.0318 -1.2060 -2.4981 0.9666
8.0701 -0.9152 -2.4981 0.9666
8.1151 -0.3305 -2.4981 0.9666
8.1218 -0.0372 -2.4981 0.9666
8.0782 0.8412 -2.4981 0.9666
8.0425 1.1322 -2.4981 0.9666
7.9964 1.4219 -2.4981 0.9666
7.7958 2.2782 -2.4981 0.9666
7.2599 3.6412 -2.4981 0.9666
7.1237 3.9009 -2.4981 0.9666
6.9782 4.1556 -2.4981 0.9666
6.8236 4.4048 -2.4981 0.9666
6.3073 5.1168 -2.4981 0.9666
6.1185 5.3412 -2.4981 0.9666
5.5051 5.9715 -2.4981 0.9666
4.9401 6.2029 -2.4390 0.9674
4.0785 6.4448 -2.3459 0.9686
3.6039 6.7245 -2.3466 0.9686
2.5997 7.1769 -2.3478 0.9686
2.7489 -6.9945 -2.4981 0.9688
2.9997 -6.8906 -2.4981 0.9688
3.2465 -6.7779 -2.4981 0.9688
3.7272 -6.5259 -2.4981 0.9688
4.1884 -6.2399 -2.4981 0.9688
4.4109 -6.0846 -2.4981 0.9688
4.6277 -5.9214 -2.4981 0.9688
5.0430 -5.5720 -2.4981 0.9688
5.2409 -5.3863 -2.4981 0.9688
5.7920 -4.7881 -2.4981 0.9688
6.1230 -4.3575 -2.4981 0.9688
6.2763 -4.1336 -2.4981 0.9688
6.5583 -3.6699 -2.4981 0.9688
6.6865 -3.4307 -2.4981 0.9688
7.0182 -2.6876 -2.4981 0.9688
7.4931 -0.5767 -2.4981 0.9688
7.5152 -0.0345 -2.4981 0.9688
7.4981 0.5079 -2.4981 0.9688
7.3992 1.3157 -2.4981 0.9688
7.3468 1.5820 -2.4981 0.9688
7.2135 2.1080 -2.4981 0.9688
7.0426 2.6231 -2.4981 0.9688
6.8349 3.1245 -2.4981 0.9688
6.5917 3.6096 -2.4981 0.9688
6.4570 3.8452 -2.4981 0.9688
6.0034 4.5208 -2.4981 0.9688
5.6615 4.9423 -2.4981 0.9688
5.4794 5.1435 -2.4981 0.9688
5.2901 5.3380 -2.4981 0.9688
5.0939 5.5255 -2.4981 0.9688
4.8911 5.7058 -2.4981 0.9688
4.2395 6.1926 -2.4946 0.9689
3.9253 6.2027 -2.4400 0.9695
3.6238 6.2118 -2.3905 0.9701
3.3384 6.2291 -2.3492 0.9706
3.1067 6.3361 -2.3457 0.9707
2.8761 6.4446 -2.3459 0.9707
2.4041 6.6368 -2.3464 0.9707
2.1623 6.7173 -2.3457 0.9707
1.8372 -6.7397 -2.4981 0.9708
2.0794 -6.6689 -2.4981 0.9708
2.3188 -6.5896 -2.4981 0.9708
2.7883 -6.4050 -2.4981 0.9708
3.0177 -6.3002 -2.4981 0.9708
4.1001 -5.6558 -2.4981 0.9708
4.3016 -5.5041 -2.4981 0.9708
4.4975 -5.3452 -2.4981 0.9708
4.6876 -5.1793 -2.4981 0.9708
5.0491 -4.8275 -2.4981 0.9708
5.3843 -4.4506 -2.4981 0.9708
5.5415 -4.2533 -2.4981 0.9708
5.6915 -4.0504 -2.4981 0.9708
5.8340 -3.8423 -2.4981 0.9708
6.0961 -3.4113 -2.4981 0.9708
6.3263 -2.9625 -2.4981 0.9708
6.5236 -2.4982 -2.4981 0.9708
6.6869 -2.0209 -2.4981 0.9708
6.7555 -1.7782 -2.4981 0.9708
6.9082 -1.0373 -2.4981 0.9708
6.9411 -0.7872 -2.4981 0.9708
6.9650 -0.5361 -2.4981 0.9708
6.9798 -0.2842 -2.4981 0.9708
6.9697 0.4721 -2.4981 0.9708
6.9481 0.7235 -2.4981 0.9708
6.9174 0.9739 -2.4981 0.9708
6.8777 1.2230 -2.4981 0.9708
6.5463 2.4383 -2.4981 0.9708
6.3533 2.9043 -2.4981 0.9708
6.0020 3.5742 -2.4981 0.9708
5.7284 3.9980 -2.4981 0.9708
5.4250 4.4010 -2.4981 0.9708
5.2625 4.5940 -2.4981 0.9708
4.9173 4.9618 -2.4981 0.9708
4.7349 5.1361 -2.4981 0.9708
4.5464 5.3037 -2.4981 0.9708
4.1518 5.6180 -2.4981 0.9708
3.9463 5.7642 -2.4981 0.9708
3.7356 5.9029 -2.4981 0.9708
2.7690 6.2046 -2.4297 0.9715
2.5071 6.2110 -2.3952 0.9719
2.0099 6.2440 -2.3457 0.9725
1.7145 -6.2893 -2.4981 0.9725
2.3844 -6.0670 -2.4981 0.9725
3.0265 -5.7736 -2.4981 0.9725
3.4352 -5.5401 -2.4981 0.9725
3.6330 -5.4125 -2.4981 0.9725
4.0142 -5.1362 -2.4981 0.9725
4.1970 -4.9880 -2.4981 0.9725
4.3743 -4.8332 -2.4981 0.9725
4.8713 -4.3318 -2.4981 0.9725
5.3111 -3.7797 -2.4981 0.9725
5.4441 -3.5855 -2.4981 0.9725
5.5700 -3.3866 -2.4981 0.9725
5.7999 -2.9758 -2.4981 0.9725
6.0877 -2.3312 -2.4981 0.9725
6.1679 -2.1099 -2.4981 0.9725
6.3040 -1.6593 -2.4981 0.9725
6.3598 -1.4307 -2.4981 0.9725
6.4073 -1.2001 -2.4981 0.9725
6.4772 -0.7346 -2.4981 0.9725
6.4995 -0.5002 -2.4981 0.9725
6.5134 -0.2653 -2.4981 0.9725
6.5187 -0.0299 -2.4981 0.9725
6.5155 0.2055 -2.4981 0.9725
6.5039 0.4406 -2.4981 0.9725
6.4551 0.9088 -2.4981 0.9725
6.4181 1.1413 -2.4981 0.9725
6.3727 1.3722 -2.4981 0.9725
6.2571 1.8285 -2.4981 0.9725
5.7176 3.1310 -2.4981 0.9725
5.4768 3.5354 -2.4981 0.9725
5.3456 3.7308 -2.4981 0.9725
5.2074 3.9214 -2.4981 0.9725
4.9108 4.2870 -2.4981 0.9725
4.7528 4.4615 -2.4981 0.9725
4.5887 4.6302 -2.4981 0.9725
4.4185 4.7929 -2.4981 0.9725
4.0611 5.0992 -2.4981 0.9725
3.4859 5.5084 -2.4981 0.9725
3.2848 5.6307 -2.4981 0.9725
2.6567 5.9528 -2.4981 0.9725
2.4400 6.0449 -2.4981 0.9725
2.2202 6.1291 -2.4981 0.9725
1.9960 6.2008 -2.4963 0.9725
1.6053 -5.8889 -2.4981 0.9740
1.8169 -5.8271 -2.4981 0.9740
2.2326 -5.6808 -2.4981 0.9740
2.4363 -5.5965 -2.4981 0.9740
3.2166 -5.1874 -2.4981 0.9740
3.5825 -4.9418 -2.4981 0.9740
3.7586 -4.8092 -2.4981 0.9740
3.9298 -4.6704 -2.4981 0.9740
4.0958 -4.5255 -2.4981 0.9740
4.8419 -3.7163 -2.4981 0.9740
4.9730 -3.5391 -2.4981 0.9740
5.0975 -3.3572 -2.4981 0.9740
5.2154 -3.1710 -2.4981 0.9740
5.6176 -2.3872 -2.4981 0.9740
5.7001 -2.1828 -2.4981 0.9740
5.7752 -1.9756 -2.4981 0.9740
5.8427 -1.7658 -2.4981 0.9740
5.9027 -1.5537 -2.4981 0.9740
5.9549 -1.3396 -2.4981 0.9740
5.9994 -1.1237 -2.4981 0.9740
6.0857 -0.4684 -2.4981 0.9740
6.1007 0.1924 -2.4981 0.9740
6.0898 0.4126 -2.4981 0.9740
6.0709 0.6321 -2.4981 0.9740
6.0095 1.0686 -2.4981 0.9740
5.7931 1.9225 -2.4981 0.9740
5.7199 2.1304 -2.4981 0.9740
5.5512 2.5376 -2.4981 0.9740
5.4560 2.7364 -2.4981 0.9740
5.3536 2.9316 -2.4981 0.9740
4.8758 3.6718 -2.4981 0.9740
4.7401 3.8454 -2.4981 0.9740
4.5982 4.0141 -2.4981 0.9740
4.4502 4.1775 -2.4981 0.9740
4.1372 4.4877 -2.4981 0.9740
3.8025 4.7745 -2.4981 0.9740
3.6277 4.9087 -2.4981 0.9740
3.2640 5.1577 -2.4981 0.9740
2.6872 5.4804 -2.4981 0.9740
2.4875 5.5739 -2.4981 0.9740
2.2847 5.6600 -2.4981 0.9740
2.0788 5.7388 -2.4981 0.9740
1.7062 -5.4722 -2.4981 0.9753
2.2879 -5.2556 -2.4981 0.9753
2.4762 -5.1696 -2.4981 0.9753
3.3643 -4.6408 -2.4981 0.9753
3.6904 -4.3860 -2.4981 0.9753
4.1430 -3.9612 -2.4981 0.9753
4.2834 -3.8090 -2.4981 0.9753
4.7871 -3.1528 -2.4981 0.9753
4.8978 -2.9779 -2.4981 0.9753
5.0021 -2.7991 -2.4981 0.9753
5.4235 -1.8553 -2.4981 0.9753
5.5923 -1.2580 -2.4981 0.9753
5.6685 -0.8512 -2.4981 0.9753
5.7151 -0.4398 -2.4981 0.9753
5.7292 0.1807 -2.4981 0.9753
5.7189 0.3874 -2.4981 0.9753
5.6760 0.7991 -2.4981 0.9753
5.6036 1.2066 -2.4981 0.9753
5.5019 1.6079 -2.4981 0.9753
5.3715 2.0007 -2.4981 0.9753
5.1237 2.5698 -2.4981 0.9753
5.0276 2.7531 -2.4981 0.9753
4.5789 3.4481 -2.4981 0.9753
4.3181 3.7696 -2.4981 0.9753
4.1792 3.9230 -2.4981 0.9753
3.8852 4.2144 -2.4981 0.9753
3.7305 4.3519 -2.4981 0.9753
2.8883 4.9511 -2.4981 0.9753
2.1455 5.3153 -2.4981 0.9753
1.6064 -5.1522 -2.4981 0.9765
2.5056 -4.7799 -2.4981 0.9765
2.8440 -4.5867 -2.4981 0.9765
3.0077 -4.4810 -2.4981 0.9765
3.1676 -4.3695 -2.4981 0.9765
3.4746 -4.1295 -2.4981 0.9765
3.6215 -4.0013 -2.4981 0.9765
4.2812 -3.2859 -2.4981 0.9765
4.3970 -3.1292 -2.4981 0.9765
4.7096 -2.6354 -2.4981 0.9765
4.8875 -2.2887 -2.4981 0.9765
4.9669 -2.1107 -2.4981 0.9765
5.0399 -1.9300 -2.4981 0.9765
5.2652 -1.1844 -2.4981 0.9765
5.3624 -0.6081 -2.4981 0.9765
5.3809 -0.4142 -2.4981 0.9765
5.3924 -0.2196 -2.4981 0.9765
5.3941 0.1701 -2.4981 0.9765
5.3441 0.7524 -2.4981 0.9765
5.2759 1.1360 -2.4981 0.9765
5.2314 1.3258 -2.4981 0.9765
5.1221 1.6999 -2.4981 0.9765
5.0574 1.8837 -2.4981 0.9765
4.9861 2.0651 -2.4981 0.9765
4.9083 2.2438 -2.4981 0.9765
4.8241 2.4195 -2.4981 0.9765
4.7336 2.5921 -2.4981 0.9765
4.6369 2.7613 -2.4981 0.9765
4.5342 2.9269 -2.4981 0.9765
4.0656 3.5491 -2.4981 0.9765
3.9348 3.6936 -2.4981 0.9765
3.7989 3.8333 -2.4981 0.9765
3.6580 3.9680 -2.4981 0.9765
3.3621 4.2216 -2.4981 0.9765
3.2075 4.3402 -2.4981 0.9765
3.0487 4.4532 -2.4981 0.9765
2.0201 5.0045 -2.4981 0.9765
1.6537 5.1372 -2.4981 0.9765
1.3394 -4.9134 -2.4981 0.9776
1.6905 -4.8040 -2.4981 0.9776
2.0327 -4.6695 -2.4981 0.9776
2.2000 -4.5930 -2.4981 0.9776
2.3644 -4.5106 -2.4981 0.9776
3.1360 -4.0126 -2.4981 0.9776
3.2789 -3.8968 -2.4981 0.9776
3.4174 -3.7759 -2.4981 0.9776
3.5515 -3.6500 -2.4981 0.9776
3.6810 -3.5194 -2.4981 0.9776
3.8056 -3.3842 -2.4981 0.9776
4.6121 -2.1597 -2.4981 0.9776
4.6871 -1.9918 -2.4981 0.9776
4.7559 -1.8213 -2.4981 0.9776
4.8186 -1.6484 -2.4981 0.9776
4.9250 -1.2963 -2.4981 0.9776
4.9686 -1.1177 -2.4981 0.9776
5.0363 -0.7562 -2.4981 0.9776
5.0603 -0.5739 -2.4981 0.9776
5.0885 -0.2072 -2.4981 0.9776
5.0811 0.3442 -2.4981 0.9776
5.0654 0.5274 -2.4981 0.9776
5.0430 0.7100 -2.4981 0.9776
4.8335 1.6041 -2.4981 0.9776
4.7725 1.7776 -2.4981 0.9776
4.3756 2.6057 -2.4981 0.9776
4.1762 2.9147 -2.4981 0.9776
4.0682 3.0636 -2.4981 0.9776
3.9550 3.2084 -2.4981 0.9776
3.7131 3.4855 -2.4981 0.9776
3.5849 3.6173 -2.4981 0.9776
3.4519 3.7444 -2.4981 0.9776
3.1727 3.9837 -2.4981 0.9776
2.8770 4.2023 -2.4981 0.9776
2.7234 4.3034 -2.4981 0.9776
2.0755 4.6506 -2.4981 0.9776
1.9062 4.7225 -2.4981 0.9776
1.5605 4.8478 -2.4981 0.9776
1.2664 -4.6458 -2.4981 0.9785
1.4334 -4.5971 -2.4981 0.9785
2.0802 -4.3429 -2.4981 0.9785
2.2356 -4.2649 -2.4981 0.9785
2.3882 -4.1814 -2.4981 0.9785
2.5376 -4.0925 -2.4981 0.9785
2.6837 -3.9982 -2.4981 0.9785
3.2313 -3.5702 -2.4981 0.9785
3.3581 -3.4512 -2.4981 0.9785
3.4805 -3.3277 -2.4981 0.9785
3.7116 -3.0679 -2.4981 0.9785
3.8199 -2.9319 -2.4981 0.9785
4.0215 -2.6486 -2.4981 0.9785
4.1145 -2.5017 -2.4981 0.9785
4.2843 -2.1982 -2.4981 0.9785
4.3609 -2.0421 -2.4981 0.9785
4.5561 -1.5586 -2.4981 0.9785
4.6567 -1.2258 -2.4981 0.9785
4.6980 -1.0568 -2.4981 0.9785
4.7620 -0.7151 -2.4981 0.9785
4.8114 -0.1960 -2.4981 0.9785
4.8043 0.3254 -2.4981 0.9785
4.7683 0.6713 -2.4981 0.9785
4.7410 0.8430 -2.4981 0.9785
4.7075 1.0137 -2.4981 0.9785
4.4489 1.8426 -2.4981 0.9785
4.3795 2.0020 -2.4981 0.9785
4.2236 2.3128 -2.4981 0.9785
4.1373 2.4638 -2.4981 0.9785
4.0457 2.6116 -2.4981 0.9785
3.7396 3.0337 -2.4981 0.9785
3.6276 3.1668 -2.4981 0.9785
3.5109 3.2957 -2.4981 0.9785
3.3896 3.4203 -2.4981 0.9785
2.9999 3.7667 -2.4981 0.9785
2.8619 3.8726 -2.4981 0.9785
2.7203 3.9734 -2.4981 0.9785
2.5750 4.0690 -2.4981 0.9785
2.4264 4.1594 -2.4981 0.9785
2.1199 4.3236 -2.4981 0.9785
1.9625 4.3973 -2.4981 0.9785
1.8024 4.4653 -2.4981 0.9785
1.1996 -4.4005 -2.4981 0.9794
1.3577 -4.3543 -2.4981 0.9794
1.5140 -4.3024 -2.4981 0.9794
1.9703 -4.1135 -2.4981 0.9794
2.1176 -4.0397 -2.4981 0.9794
2.2621 -3.9606 -2.4981 0.9794
2.4036 -3.8764 -2.4981 0.9794
2.5420 -3.7870 -2.4981 0.9794
2.6770 -3.6928 -2.4981 0.9794
3.2967 -3.1520 -2.4981 0.9794
3.4083 -3.0309 -2.4981 0.9794
3.5156 -2.9059 -2.4981 0.9794
3.8091 -2.5087 -2.4981 0.9794
3.9803 -2.2273 -2.4981 0.9794
4.0581 -2.0822 -2.4981 0.9794
4.1978 -1.7838 -2.4981 0.9794
4.3155 -1.4763 -2.4981 0.9794
4.3660 -1.3195 -2.4981 0.9794
4.4108 -1.1610 -2.4981 0.9794
4.5105 -0.6773 -2.4981 0.9794
4.5476 -0.3500 -2.4981 0.9794
4.5588 0.1437 -2.4981 0.9794
4.5506 0.3083 -2.4981 0.9794
4.5365 0.4724 -2.4981 0.9794
4.4213 1.1205 -2.4981 0.9794
4.3779 1.2794 -2.4981 0.9794
4.3289 1.4367 -2.4981 0.9794
4.1482 1.8963 -2.4981 0.9794
3.9188 2.3337 -2.4981 0.9794
3.7402 2.6104 -2.4981 0.9794
3.5421 2.8735 -2.4981 0.9794
3.4360 2.9995 -2.4981 0.9794
3.3255 3.1216 -2.4981 0.9794
3.2106 3.2397 -2.4981 0.9794
2.7108 3.6681 -2.4981 0.9794
2.5766 3.7636 -2.4981 0.9794
2.4390 3.8542 -2.4981 0.9794
2.1545 4.0201 -2.4981 0.9794
2.0080 4.0953 -2.4981 0.9794
1.8588 4.1651 -2.4981 0.9794
1.7072 4.2295 -2.4981 0.9794
1.5534 4.2884 -2.4981 0.9794
1.1380 -4.1745 -2.4981 0.9802
1.2880 -4.1307 -2.4981 0.9802
1.4363 -4.0815 -2.4981 0.9802
1.5827 -4.0270 -2.4981 0.9802
1.8692 -3.9023 -2.4981 0.9802
2.0088 -3.8323 -2.4981 0.9802
2.2801 -3.6773 -2.4981 0.9802
2.4114 -3.5926 -2.4981 0.9802
2.6644 -3.4092 -2.4981 0.9802
2.7857 -3.3108 -2.4981 0.9802
2.9035 -3.2080 -2.4981 0.9802
3.2333 -2.8753 -2.4981 0.9802
3.3350 -2.7567 -2.4981 0.9802
3.4324 -2.6345 -2.4981 0.9802
3.5253 -2.5088 -2.4981 0.9802
3.6135 -2.3799 -2.4981 0.9802
3.7759 -2.1129 -2.4981 0.9802
3.8497 -1.9752 -2.4981 0.9802
3.9185 -1.8349 -2.4981 0.9802
4.0407 -1.5474 -2.4981 0.9802
4.0939 -1.4005 -2.4981 0.9802
4.1418 -1.2517 -2.4981 0.9802
4.2789 -0.6425 -2.4981 0.9802
4.3141 -0.3320 -2.4981 0.9802
4.3233 -0.1761 -2.4981 0.9802
4.3247 0.1364 -2.4981 0.9802
4.3170 0.2924 -2.4981 0.9802
4.2846 0.6032 -2.4981 0.9802
4.2600 0.7575 -2.4981 0.9802
4.1066 1.3629 -2.4981 0.9802
3.9352 1.7989 -2.4981 0.9802
3.6352 2.3467 -2.4981 0.9802
3.5481 2.4764 -2.4981 0.9802
3.3602 2.7259 -2.4981 0.9802
3.0457 3.0733 -2.4981 0.9802
2.4443 3.5703 -2.4981 0.9802
2.3138 3.6562 -2.4981 0.9802
2.1803 3.7374 -2.4981 0.9802
2.0439 3.8137 -2.4981 0.9802
1.9049 3.8850 -2.4981 0.9802
1.4736 4.0682 -2.4981 0.9802
