ply
format ascii 1.0
element vertex 1004
property float32 x
property float32 y
property float32 z
property float32 I
end_header
20.4997 8.6787 3.9252 0.9135
1.2329 9.2500 1.6454 0.9628
-0.7840 16.8742 2.9786 0.9337
-42.1492 15.0715 7.8929 0.8338
1.2329 9.2500 1.4296 0.9629
-0.7839 16.8725 2.5876 0.9339
-41.9114 26.1671 7.5692 0.8188
-32.2721 12.8597 5.3220 0.8689
1.2329 9.2500 1.2152 0.9631
-32.0094 25.1253 5.2990 0.8486
-41.9114 26.1671 6.4341 0.8193
-32.3687 17.1221 4.7685 0.8627
-32.4295 14.2873 4.6147 0.8668
-32.4585 12.9340 4.5500 0.8685
-24.7203 8.8394 3.4187 0.8995
-27.4444 8.7193 3.7500 0.8903
20.4924 8.6756 2.3896 0.9144
1.2329 9.2500 1.0021 0.9632
-32.1111 29.1477 4.6568 0.8399
-33.7572 24.5974 4.4851 0.8453
-32.3687 17.1221 3.9321 0.8630
-32.4879 15.7242 3.8757 0.8648
-32.4295 14.2873 3.8053 0.8671
1.2329 9.2500 0.7900 0.9632
-0.7837 16.8676 1.4294 0.9345
-32.0656 31.2707 3.7915 0.8354
-32.1111 29.1477 3.6712 0.8402
-32.1538 27.1529 3.5626 0.8446
-32.1942 25.2703 3.4646 0.8485
-33.8500 24.6650 3.5455 0.8452
-36.7313 24.8024 3.7519 0.8370
-32.3687 17.1221 3.0998 0.8633
-32.3462 15.6556 3.0421 0.8657
-32.4295 14.2873 2.9999 0.8674
-32.4585 12.9340 2.9578 0.8691
-32.4867 11.6164 2.9206 0.8707
-27.4444 8.7192 2.4378 0.8908
42.5928 21.7457 2.9655 0.8256
42.6353 23.7275 3.0257 0.8224
42.6795 25.7941 3.0924 0.8188
-0.7836 16.8660 1.0470 0.9346
-32.0656 31.2707 2.7774 0.8357
-32.1538 27.1529 2.6097 0.8448
-33.8929 24.6963 2.6005 0.8453
-36.6620 24.7556 2.7432 0.8375
-39.7568 24.8219 2.9064 0.8287
-32.3687 17.1221 2.2707 0.8635
20.4851 8.6725 0.8772 0.9148
42.5928 21.7457 1.8857 0.8258
42.6795 25.7941 1.9664 0.8190
-32.1538 27.1529 1.6595 0.8450
-33.8929 24.6963 1.6536 0.8455
-39.7568 24.8219 1.8481 0.8289
-32.3996 15.6815 1.4193 0.8658
-32.4585 12.9340 1.3777 0.8695
-27.4444 8.7193 1.1355 0.8911
42.5926 21.7456 0.8078 0.8259
42.6353 23.7275 0.8242 0.8227
1.2329 9.2500 0.1576 0.9634
-30.4760 31.9263 0.7456 0.8381
-32.0656 31.2707 0.7566 0.8360
-32.1538 27.1529 0.7109 0.8450
-32.1942 25.2703 0.6913 0.8490
-39.7568 24.8219 0.7917 0.8290
-32.4879 15.7242 0.6097 0.8655
-32.4295 14.2873 0.5986 0.8678
20.4803 8.6705 -0.1252 0.9149
42.6351 23.7274 -0.2747 0.8227
42.6794 25.7940 -0.2808 0.8192
1.2329 9.2500 -0.0525 0.9634
-0.6832 14.7055 -0.0829 0.9428
-1.3267 16.1004 -0.0910 0.9374
-1.9815 12.7825 -0.0728 0.9496
-32.0448 33.5697 -0.2613 0.8306
-32.1111 29.1477 -0.2442 0.8407
-32.1538 27.1529 -0.2369 0.8451
-32.1942 25.2703 -0.2304 0.8490
-39.7568 24.8219 -0.2639 0.8290
-32.4295 14.2873 -0.1995 0.8678
-32.4867 11.6164 -0.1942 0.8711
20.4779 8.6694 -0.6262 0.9149
43.6093 20.3317 -1.3548 0.8249
42.5926 21.7456 -1.3466 0.8258
42.6351 23.7274 -1.3739 0.8226
42.6794 25.7940 -1.4042 0.8191
1.2329 9.2500 -0.2628 0.9633
-1.0553 12.8062 -0.3618 0.9499
-1.5194 12.8162 -0.3634 0.9497
-32.0656 31.2707 -1.2612 0.8359
-32.1538 27.1529 -1.1850 0.8450
-32.1942 25.2703 -1.1524 0.8489
-33.8929 24.6963 -1.1808 0.8455
-36.6620 24.7556 -1.2456 0.8378
-39.7568 24.8219 -1.3197 0.8290
-41.9776 24.1654 -1.3639 0.8238
-32.3687 17.1221 -1.0311 0.8637
-32.4295 14.2873 -0.9978 0.8678
-32.4585 12.9340 -0.9838 0.8695
-32.4867 11.6164 -0.9715 0.8710
-27.4444 8.7193 -0.8108 0.8912
45.6249 8.5741 -2.3543 0.8303
44.8841 11.8120 -2.3538 0.8304
44.4274 13.4087 -2.3535 0.8304
42.0407 19.6004 -2.3524 0.8305
41.3079 21.0897 -2.3521 0.8305
40.5224 22.5517 -2.3519 0.8305
39.6854 23.9846 -2.3516 0.8305
38.7977 25.3864 -2.3514 0.8305
36.8755 28.0903 -2.3509 0.8306
35.8467 29.3916 -2.3509 0.8306
34.7715 30.6547 -2.3508 0.8306
30.0411 35.2997 -2.3507 0.8306
27.4330 37.3484 -2.3501 0.8306
26.0732 38.2972 -2.3496 0.8306
24.6807 39.1968 -2.3491 0.8307
20.3479 41.6350 -2.3502 0.8306
17.3238 42.9969 -2.3509 0.8306
15.7767 43.5958 -2.3512 0.8305
12.6223 44.6252 -2.3519 0.8305
11.0191 45.0544 -2.3522 0.8305
9.4013 45.4257 -2.3526 0.8304
1.1669 46.3993 -2.3539 0.8304
-0.6832 14.7055 -0.7466 0.9427
-1.5194 12.8162 -0.6545 0.9496
-11.0219 48.0768 -2.5014 0.8207
-14.4318 47.1655 -2.5014 0.8207
-16.1101 46.6190 -2.5014 0.8207
-21.0127 44.6243 -2.5014 0.8207
-22.5959 43.8439 -2.5014 0.8207
-24.1501 43.0074 -2.5014 0.8207
-27.9288 33.7988 -2.2236 0.8389
-30.2744 31.7150 -2.2236 0.8389
-32.1538 27.1529 -2.1343 0.8449
-32.1942 25.2703 -2.0756 0.8488
-36.3368 24.5360 -2.2236 0.8389
-32.3687 17.1221 -1.8571 0.8636
-32.4295 14.2873 -1.7972 0.8677
-32.4585 12.9340 -1.7720 0.8694
-32.4867 11.6164 -1.7497 0.8709
-27.4444 8.7193 -1.4604 0.8911
32.9885 6.1994 -2.4611 0.8740
31.0451 8.1700 -2.3538 0.8792
30.3842 10.3702 -2.3540 0.8792
29.9913 11.4497 -2.3538 0.8792
20.3773 8.6269 -1.6225 0.9151
29.0911 13.5630 -2.3535 0.8792
28.5850 14.5941 -2.3533 0.8792
27.4641 16.5984 -2.3529 0.8792
26.8507 17.5692 -2.3528 0.8792
25.5220 19.4416 -2.3524 0.8793
24.0636 21.2146 -2.3522 0.8793
23.2891 22.0619 -2.3522 0.8793
21.6513 23.6704 -2.3521 0.8793
19.9029 25.1578 -2.3521 0.8793
18.9900 25.8537 -2.3521 0.8793
17.0874 27.1374 -2.3514 0.8793
16.1030 27.7271 -2.3510 0.8793
15.0984 28.2813 -2.3507 0.8793
14.0748 28.7992 -2.3503 0.8794
13.0335 29.2802 -2.3500 0.8794
11.9759 29.7236 -2.3496 0.8794
9.8170 30.4958 -2.3490 0.8794
8.7206 30.8308 -2.3493 0.8794
7.6126 31.1261 -2.3495 0.8794
6.4947 31.3813 -2.3497 0.8794
5.3682 31.5964 -2.3499 0.8794
1.2329 9.2500 -0.6842 0.9633
3.0954 31.9046 -2.3503 0.8794
0.8060 32.0490 -2.3506 0.8793
-0.3409 32.0353 -2.3490 0.8794
-0.6832 14.7055 -1.0794 0.9427
-1.0552 12.8062 -0.9422 0.9498
-1.5194 12.8162 -0.9463 0.9496
-1.9815 12.7825 -0.9484 0.9494
-7.6235 33.2530 -2.5014 0.8721
-8.8083 32.9590 -2.5014 0.8721
-11.1428 32.2446 -2.5014 0.8721
-15.6287 30.3252 -2.5014 0.8721
-16.7038 29.7466 -2.5014 0.8721
-17.7574 29.1300 -2.5014 0.8721
-18.7883 28.4760 -2.5014 0.8721
-19.7951 27.7855 -2.5014 0.8721
-24.4243 23.8188 -2.5014 0.8721
-25.8112 20.2601 -2.4059 0.8767
-27.7651 15.9837 -2.3490 0.8794
-27.8946 14.7554 -2.3138 0.8811
-28.5553 10.2106 -2.2236 0.8855
25.4184 5.7253 -2.5014 0.9006
23.6772 6.2311 -2.3505 0.9063
23.4426 7.0753 -2.3509 0.9063
22.9100 8.7463 -2.3543 0.9062
20.2756 8.5838 -2.1138 0.9153
22.2232 10.3610 -2.3540 0.9062
21.8369 11.1489 -2.3539 0.9062
20.5131 13.4223 -2.3535 0.9062
19.4986 14.8532 -2.3532 0.9062
18.9537 15.5406 -2.3531 0.9062
18.3846 16.2080 -2.3530 0.9062
17.7921 16.8546 -2.3529 0.9062
16.5409 18.0834 -2.3528 0.9062
15.2052 19.2198 -2.3528 0.9062
14.5078 19.7515 -2.3528 0.9062
13.7918 20.2579 -2.3528 0.9062
13.0569 20.7364 -2.3526 0.9062
12.3052 21.1878 -2.3523 0.9062
10.7561 22.0086 -2.3518 0.9063
9.1527 22.7165 -2.3513 0.9063
4.9611 23.9712 -2.3501 0.9063
1.2329 9.2500 -0.8959 0.9632
2.3633 24.3587 -2.3495 0.9063
1.4901 24.4257 -2.3494 0.9063
-0.2604 24.4664 -2.3490 0.9064
-0.6833 14.7055 -1.4133 0.9426
-1.0552 12.8062 -1.2336 0.9497
-4.9099 25.5885 -2.5014 0.9006
-7.6010 24.8412 -2.4940 0.9009
-10.2494 23.9546 -2.5014 0.9006
-11.0999 23.5726 -2.5014 0.9006
-11.9362 23.1604 -2.5014 0.9006
-12.7572 22.7185 -2.5014 0.9006
-15.1181 21.2207 -2.5014 0.9006
-17.3050 19.4786 -2.5014 0.9006
-18.6536 18.1912 -2.5014 0.9006
-19.9068 16.8107 -2.5014 0.9006
-20.4955 16.0876 -2.5014 0.9006
-21.0579 15.3440 -2.5014 0.9006
-22.1013 13.7989 -2.5014 0.9006
-24.2045 9.6449 -2.5014 0.9006
-24.5343 8.7729 -2.5015 0.9006
20.6961 3.8893 -2.5014 0.9187
20.5437 4.6273 -2.5014 0.9187
18.7154 6.3876 -2.3490 0.9234
18.4889 7.0585 -2.3508 0.9234
17.6518 9.0122 -2.3543 0.9233
16.9606 10.2504 -2.3540 0.9233
16.5823 10.8502 -2.3539 0.9233
16.1827 11.4361 -2.3538 0.9233
15.3222 12.5630 -2.3536 0.9233
14.8623 13.1026 -2.3535 0.9233
13.8861 14.1308 -2.3534 0.9233
12.2915 15.5368 -2.3533 0.9233
11.7277 15.9666 -2.3533 0.9233
9.9487 17.1303 -2.3531 0.9233
5.3884 19.0504 -2.3517 0.9233
4.7030 19.2295 -2.3515 0.9234
4.0117 19.3840 -2.3513 0.9234
3.3154 19.5138 -2.3512 0.9234
-0.2104 19.7743 -2.3490 0.9234
-1.0553 12.8062 -1.5264 0.9496
-4.7057 20.5259 -2.5014 0.9187
-6.8780 19.9034 -2.5014 0.9187
-8.9711 19.0518 -2.5014 0.9187
-9.6471 18.7186 -2.5014 0.9187
-10.9610 17.9809 -2.5014 0.9187
-12.8246 16.7028 -2.5014 0.9187
-13.4140 16.2333 -2.5014 0.9187
-14.5405 15.2325 -2.5014 0.9187
-15.0762 14.7024 -2.5014 0.9187
-17.0194 12.4013 -2.5014 0.9187
-17.8627 11.1525 -2.5014 0.9187
-18.9549 9.1742 -2.5014 0.9187
-19.2712 8.4902 -2.5015 0.9187
-19.5629 7.7954 -2.5015 0.9187
-19.8295 7.0906 -2.5015 0.9187
17.3506 3.2606 -2.5014 0.9312
17.2229 3.8793 -2.5014 0.9312
16.7080 5.7025 -2.5014 0.9312
16.2379 6.1991 -2.4627 0.9322
14.7852 7.5486 -2.3521 0.9351
14.5143 8.0776 -2.3535 0.9351
13.5687 9.5888 -2.3542 0.9351
13.2165 10.0678 -2.3541 0.9351
12.4618 10.9864 -2.3539 0.9351
11.2118 12.2573 -2.3537 0.9351
10.7657 12.6502 -2.3536 0.9351
10.3059 13.0270 -2.3536 0.9351
9.8333 13.3874 -2.3536 0.9351
9.3480 13.7307 -2.3536 0.9351
8.8507 14.0563 -2.3536 0.9351
8.3422 14.3640 -2.3536 0.9351
7.2928 14.9221 -2.3533 0.9351
6.7537 15.1724 -2.3531 0.9351
5.0880 15.8054 -2.3526 0.9351
4.5189 15.9762 -2.3525 0.9351
3.9442 16.1267 -2.3523 0.9351
1.2329 9.2500 -1.3222 0.9630
1.6028 16.5206 -2.3518 0.9351
-0.6949 14.9554 -2.1213 0.9413
-1.9518 16.4635 -2.3490 0.9352
-3.3268 17.3380 -2.5014 0.9312
-3.9450 17.2079 -2.5014 0.9312
-4.5582 17.0558 -2.5014 0.9312
-5.1655 16.8817 -2.5014 0.9312
-6.3595 16.4692 -2.5014 0.9312
-6.9447 16.2311 -2.5014 0.9312
-7.5210 15.9722 -2.5014 0.9312
-8.0877 15.6929 -2.5014 0.9312
-9.7226 14.7359 -2.5014 0.9312
-10.2436 14.3786 -2.5014 0.9312
-10.7515 14.0029 -2.5014 0.9312
-12.1901 12.7702 -2.5014 0.9312
-13.8872 10.9006 -2.5014 0.9312
-14.2683 10.3967 -2.5014 0.9312
-14.9753 9.3497 -2.5014 0.9312
-15.3002 8.8079 -2.5014 0.9312
-15.6056 8.2549 -2.5014 0.9312
-15.8909 7.6913 -2.5014 0.9312
-16.4003 6.5351 -2.5014 0.9312
-16.6236 5.9442 -2.5014 0.9312
-16.8256 5.3456 -2.5014 0.9312
14.6842 3.8644 -2.5014 0.9403
14.5365 4.3873 -2.5014 0.9403
14.3703 4.9046 -2.5014 0.9403
13.3134 6.2070 -2.4199 0.9422
11.9512 7.8200 -2.3529 0.9437
10.7194 9.4503 -2.3542 0.9437
10.3742 9.8275 -2.3541 0.9437
10.0156 10.1921 -2.3541 0.9437
9.6443 10.5437 -2.3540 0.9437
8.8651 11.2058 -2.3539 0.9437
8.4583 11.5155 -2.3538 0.9437
8.0408 11.8105 -2.3538 0.9437
7.6131 12.0908 -2.3538 0.9437
5.8099 13.0521 -2.3536 0.9437
4.8610 13.4325 -2.3533 0.9437
4.3771 13.5971 -2.3532 0.9437
3.8876 13.7442 -2.3530 0.9437
2.8944 13.9855 -2.3528 0.9437
2.3921 14.0794 -2.3527 0.9437
0.8686 14.2383 -2.3500 0.9438
-0.1517 14.2583 -2.3490 0.9438
-1.1710 14.2109 -2.3490 0.9438
-1.6787 14.1600 -2.3490 0.9438
-2.8613 14.9122 -2.5014 0.9403
-3.3931 14.8002 -2.5014 0.9403
-3.9204 14.6694 -2.5014 0.9403
-4.4428 14.5197 -2.5014 0.9403
-4.9594 14.3514 -2.5014 0.9403
-5.4697 14.1648 -2.5014 0.9403
-6.4687 13.7374 -2.5014 0.9403
-7.4345 13.2396 -2.5014 0.9403
-7.9035 12.9652 -2.5014 0.9403
-8.8104 12.3668 -2.5014 0.9403
-10.0848 11.3515 -2.5014 0.9403
-10.8708 10.6013 -2.5014 0.9403
-11.2431 10.2055 -2.5014 0.9403
-11.6011 9.7967 -2.5014 0.9403
-12.2719 8.9420 -2.5014 0.9403
-12.5839 8.4972 -2.5014 0.9403
-13.6675 6.6151 -2.5014 0.9403
-13.8954 6.1219 -2.5014 0.9403
-14.1056 5.6208 -2.5014 0.9403
-14.2976 5.1125 -2.5014 0.9403
13.0793 2.4579 -2.5014 0.9473
12.8701 3.3870 -2.5014 0.9473
12.7406 3.8453 -2.5014 0.9473
12.4330 4.7465 -2.5014 0.9473
11.1596 6.2106 -2.4005 0.9493
10.4632 6.8463 -2.3503 0.9504
10.2158 7.2194 -2.3513 0.9504
9.6813 7.9379 -2.3532 0.9503
9.3948 8.2825 -2.3541 0.9503
8.1173 9.5383 -2.3542 0.9503
7.7707 9.8224 -2.3541 0.9503
6.2896 10.8297 -2.3540 0.9503
5.8981 11.0479 -2.3540 0.9503
5.4990 11.2518 -2.3540 0.9503
4.2612 11.7750 -2.3537 0.9503
3.8370 11.9193 -2.3536 0.9503
2.9745 12.1620 -2.3534 0.9503
2.5373 12.2600 -2.3532 0.9503
2.0970 12.3424 -2.3531 0.9503
1.2329 9.2500 -1.7540 0.9627
-0.1330 12.4967 -2.3490 0.9504
-0.5800 12.4840 -2.3490 0.9504
-1.4713 12.4106 -2.3490 0.9504
-2.5078 13.0698 -2.5014 0.9473
-3.4361 12.8571 -2.5014 0.9473
-5.2351 12.2354 -2.5014 0.9473
-5.6695 12.0402 -2.5014 0.9473
-6.5160 11.6039 -2.5014 0.9473
-7.3292 11.1083 -2.5014 0.9473
-7.7219 10.8389 -2.5014 0.9473
-9.8541 8.9447 -2.5014 0.9473
-10.4685 8.2171 -2.5014 0.9473
-10.7558 7.8373 -2.5014 0.9473
-11.5337 6.6396 -2.5014 0.9473
-11.7638 6.2227 -2.5014 0.9473
-11.9789 5.7978 -2.5014 0.9473
-12.5312 4.4809 -2.5014 0.9473
-12.6835 4.0296 -2.5014 0.9473
11.5446 2.6003 -2.5014 0.9528
11.3291 3.4192 -2.5014 0.9528
11.1995 3.8224 -2.5014 0.9528
11.0556 4.2207 -2.5014 0.9528
10.8975 4.6135 -2.5014 0.9528
10.7254 5.0005 -2.5014 0.9528
10.5397 5.3810 -2.5014 0.9528
10.3404 5.7547 -2.5014 0.9528
9.4923 6.2111 -2.3979 0.9547
9.0757 6.4137 -2.3491 0.9556
8.3451 7.3571 -2.3516 0.9555
6.5933 8.9763 -2.3543 0.9555
5.9343 9.4246 -2.3542 0.9555
4.5289 10.1744 -2.3541 0.9555
3.0308 10.7150 -2.3538 0.9555
2.6453 10.8161 -2.3537 0.9555
2.2566 10.9034 -2.3536 0.9555
1.8649 10.9767 -2.3535 0.9555
1.0734 11.0632 -2.3495 0.9556
0.2794 11.1093 -2.3490 0.9556
-0.5158 11.1009 -2.3490 0.9556
-0.9126 11.0753 -2.3490 0.9556
-1.7023 10.9817 -2.3490 0.9556
-4.6551 10.8798 -2.5014 0.9528
-5.7941 10.3183 -2.5014 0.9528
-6.5172 9.8776 -2.5014 0.9528
-6.8664 9.6381 -2.5014 0.9528
-7.2068 9.3862 -2.5014 0.9528
-7.8596 8.8468 -2.5014 0.9528
-8.4721 8.2621 -2.5014 0.9528
-8.7623 7.9537 -2.5014 0.9528
-9.8074 6.6223 -2.5014 0.9528
-10.0380 6.2672 -2.5014 0.9528
-10.2558 5.9040 -2.5014 0.9528
-10.6518 5.1555 -2.5014 0.9528
-10.9932 4.3805 -2.5014 0.9528
-11.1429 3.9844 -2.5014 0.9528
-11.2783 3.5832 -2.5014 0.9528
10.4603 1.9658 -2.5014 0.9572
10.3832 2.3387 -2.5014 0.9572
10.2929 2.7088 -2.5014 0.9572
9.9434 3.7961 -2.5014 0.9572
9.8012 4.1494 -2.5014 0.9572
9.3001 5.1758 -2.5014 0.9572
8.1511 6.2092 -2.4082 0.9588
7.7290 6.3372 -2.3490 0.9598
7.4993 6.6114 -2.3496 0.9598
7.2601 6.8775 -2.3503 0.9597
7.0114 7.1350 -2.3510 0.9597
6.7536 7.3834 -2.3517 0.9597
6.4868 7.6224 -2.3523 0.9597
5.9281 8.0708 -2.3535 0.9597
4.7177 8.8368 -2.3543 0.9597
4.3984 8.9998 -2.3543 0.9597
4.0735 9.1513 -2.3542 0.9597
3.7435 9.2912 -2.3542 0.9597
3.4087 9.4192 -2.3542 0.9597
3.0694 9.5349 -2.3542 0.9597
2.3795 9.7292 -2.3540 0.9597
1.2329 9.2500 -2.1932 0.9624
0.9652 9.9482 -2.3490 0.9598
0.6086 9.9764 -2.3490 0.9598
0.2513 9.9917 -2.3490 0.9598
-0.4639 9.9841 -2.3490 0.9598
-0.8208 9.9611 -2.3490 0.9598
-1.1767 9.9254 -2.3490 0.9598
-1.5311 9.8769 -2.3490 0.9598
-1.8835 9.8158 -2.3490 0.9598
-2.2771 9.9325 -2.3949 0.9590
-2.7480 10.2825 -2.5014 0.9572
-4.1868 9.7853 -2.5014 0.9572
-4.5342 9.6292 -2.5014 0.9572
-4.8758 9.4608 -2.5014 0.9572
-5.2112 9.2803 -2.5014 0.9572
-5.8615 8.8839 -2.5014 0.9572
-6.1756 8.6685 -2.5014 0.9572
-7.0689 7.9568 -2.5014 0.9572
-7.3491 7.6988 -2.5014 0.9572
-7.8808 7.1536 -2.5014 0.9572
-8.6020 6.2679 -2.5014 0.9572
-8.8208 5.9561 -2.5014 0.9572
-9.4082 4.9767 -2.5014 0.9572
-9.7400 4.2911 -2.5014 0.9572
-9.8873 3.9399 -2.5014 0.9572
9.4250 2.1229 -2.5014 0.9609
9.3430 2.4588 -2.5014 0.9609
9.2490 2.7915 -2.5014 0.9609
9.1432 3.1206 -2.5014 0.9609
9.0257 3.4457 -2.5014 0.9609
8.8967 3.7665 -2.5014 0.9609
8.6045 4.3931 -2.5014 0.9609
8.4419 4.6981 -2.5014 0.9609
8.0843 5.2898 -2.5014 0.9609
7.6853 5.8543 -2.5014 0.9609
7.4709 6.1256 -2.5014 0.9609
6.5864 6.2393 -2.3490 0.9632
6.3596 6.4717 -2.3493 0.9632
6.1255 6.6968 -2.3499 0.9632
5.8834 6.9133 -2.3504 0.9632
5.3765 7.3197 -2.3515 0.9632
4.2807 8.0182 -2.3534 0.9631
3.9917 8.1676 -2.3538 0.9631
2.7863 8.6555 -2.3543 0.9631
2.4748 8.7496 -2.3543 0.9631
2.1600 8.8318 -2.3541 0.9631
1.8414 8.8973 -2.3525 0.9632
1.5208 8.9512 -2.3508 0.9632
1.1987 8.9936 -2.3492 0.9632
0.5525 9.0557 -2.3490 0.9632
-0.0965 9.0720 -2.3490 0.9632
-0.4211 9.0628 -2.3490 0.9632
-1.3897 8.9654 -2.3490 0.9632
-2.1474 9.3666 -2.4881 0.9611
-3.1555 9.1313 -2.5014 0.9609
-3.4802 9.0125 -2.5014 0.9609
-3.8004 8.8822 -2.5014 0.9609
-4.7303 8.4239 -2.5014 0.9609
-5.3206 8.0640 -2.5014 0.9609
-5.8836 7.6629 -2.5014 0.9609
-6.4166 7.2225 -2.5014 0.9609
-6.9166 6.7452 -2.5014 0.9609
-7.3813 6.2333 -2.5014 0.9609
-7.5996 5.9652 -2.5014 0.9609
-8.8411 3.8951 -2.5014 0.9609
-9.2076 2.9253 -2.5014 0.9609
8.6201 1.9416 -2.5014 0.9639
8.4592 2.5531 -2.5014 0.9639
8.3624 2.8541 -2.5014 0.9639
8.2550 3.1515 -2.5014 0.9639
8.1369 3.4448 -2.5014 0.9639
8.0085 3.7337 -2.5014 0.9639
7.7209 4.2969 -2.5014 0.9639
7.5623 4.5704 -2.5014 0.9639
7.0290 5.3544 -2.5014 0.9639
6.4148 6.0768 -2.5014 0.9639
5.3778 6.3192 -2.3490 0.9661
5.1490 6.5085 -2.3494 0.9661
4.6722 6.8627 -2.3503 0.9661
4.4245 7.0268 -2.3507 0.9661
4.1710 7.1819 -2.3512 0.9661
3.3790 7.5910 -2.3523 0.9660
3.1057 7.7081 -2.3526 0.9660
2.8282 7.8152 -2.3528 0.9660
2.5471 7.9123 -2.3531 0.9660
1.9713 8.0602 -2.3490 0.9661
1.6817 8.1256 -2.3490 0.9661
0.8013 8.2590 -2.3490 0.9661
0.5053 8.2824 -2.3490 0.9661
0.2086 8.2951 -2.3490 0.9661
-0.3851 8.2888 -2.3490 0.9661
-0.6814 8.2697 -2.3490 0.9661
-1.2711 8.1998 -2.3490 0.9661
-1.5941 8.3075 -2.3947 0.9654
-1.9745 8.6126 -2.5014 0.9639
-2.2814 8.5365 -2.5014 0.9639
-2.5854 8.4494 -2.5014 0.9639
-2.8860 8.3515 -2.5014 0.9639
-3.4759 8.1237 -2.5014 0.9639
-4.3263 7.7045 -2.5014 0.9639
-4.5992 7.5448 -2.5014 0.9639
-4.8662 7.3754 -2.5014 0.9639
-5.3812 7.0085 -2.5014 0.9639
-5.6285 6.8115 -2.5014 0.9639
-6.1012 6.3915 -2.5014 0.9639
-6.3260 6.1691 -2.5014 0.9639
-6.9506 5.4558 -2.5014 0.9639
-7.6578 4.4084 -2.5014 0.9639
-7.8107 4.1316 -2.5014 0.9639
-7.9535 3.8495 -2.5014 0.9639
-8.0861 3.5625 -2.5014 0.9639
7.9928 1.5021 -2.5014 0.9665
7.9339 1.7870 -2.5014 0.9665
7.8649 2.0698 -2.5014 0.9665
7.3709 3.4365 -2.5014 0.9665
7.2433 3.6980 -2.5014 0.9665
6.9603 4.2065 -2.5014 0.9665
6.8053 4.4529 -2.5014 0.9665
6.4694 4.9282 -2.5014 0.9665
6.2890 5.1565 -2.5014 0.9665
6.1004 5.3782 -2.5014 0.9665
5.9041 5.5930 -2.5014 0.9665
5.2696 6.1921 -2.5009 0.9665
4.5657 6.2159 -2.3722 0.9682
4.2980 6.3130 -2.3490 0.9685
4.0697 6.4633 -2.3492 0.9685
3.3552 6.8653 -2.3503 0.9685
3.1079 6.9819 -2.3506 0.9685
2.8564 7.0895 -2.3509 0.9685
2.0786 7.3489 -2.3490 0.9685
1.5478 7.4787 -2.3490 0.9685
1.0090 7.5702 -2.3490 0.9685
0.7375 7.6015 -2.3490 0.9685
0.1920 7.6348 -2.3490 0.9685
-0.0813 7.6368 -2.3490 0.9685
-0.3545 7.6290 -2.3490 0.9685
-0.8991 7.5841 -2.3490 0.9685
-1.2123 7.8206 -2.4342 0.9674
-1.5325 7.9870 -2.5014 0.9665
-2.0998 7.8569 -2.5014 0.9665
-2.3796 7.7767 -2.5014 0.9665
-2.9296 7.5867 -2.5014 0.9665
-3.1992 7.4770 -2.5014 0.9665
-3.4646 7.3578 -2.5014 0.9665
-4.9528 6.4506 -2.5014 0.9665
-5.6155 5.8827 -2.5014 0.9665
-6.3973 5.0215 -2.5014 0.9665
-6.5729 4.7893 -2.5014 0.9665
-7.0482 4.0575 -2.5014 0.9665
-7.1889 3.8027 -2.5014 0.9665
-7.3203 3.5431 -2.5014 0.9665
-7.4424 3.2788 -2.5014 0.9665
-7.5550 3.0105 -2.5014 0.9665
-7.6578 2.7383 -2.5014 0.9665
-7.7509 2.4625 -2.5014 0.9665
7.3958 1.3899 -2.5014 0.9688
7.0303 2.6839 -2.5014 0.9688
6.9298 2.9338 -2.5014 0.9688
6.2970 4.1203 -2.5014 0.9688
6.1456 4.3430 -2.5014 0.9688
5.9862 4.5601 -2.5014 0.9688
5.6448 4.9765 -2.5014 0.9688
5.2745 5.3675 -2.5014 0.9688
5.0791 5.5527 -2.5014 0.9688
4.6690 5.9017 -2.5014 0.9688
4.4548 6.0650 -2.5014 0.9688
4.2169 6.1939 -2.4908 0.9689
3.9063 6.2039 -2.4370 0.9696
3.3281 6.2340 -2.3490 0.9707
3.1029 6.3491 -2.3490 0.9707
2.8740 6.4566 -2.3492 0.9706
1.1837 6.9670 -2.3490 0.9707
0.9336 7.0048 -2.3490 0.9707
0.6824 7.0338 -2.3490 0.9707
0.1777 7.0645 -2.3490 0.9707
-0.0752 7.0664 -2.3490 0.9707
-0.3280 7.0591 -2.3490 0.9707
-1.4181 7.3905 -2.5014 0.9688
-2.2018 7.1959 -2.5014 0.9688
-2.7108 7.0201 -2.5014 0.9688
-3.4474 6.6892 -2.5014 0.9688
-3.9169 6.4255 -2.5014 0.9688
-4.1443 6.2812 -2.5014 0.9688
-4.3664 6.1289 -2.5014 0.9688
-4.5829 5.9688 -2.5014 0.9688
-4.9980 5.6258 -2.5014 0.9688
-5.1961 5.4433 -2.5014 0.9688
-5.5721 5.0578 -2.5014 0.9688
-5.7494 4.8552 -2.5014 0.9688
-6.5218 3.7544 -2.5014 0.9688
-6.6519 3.5187 -2.5014 0.9688
-6.9907 2.7856 -2.5014 0.9688
6.8746 1.2919 -2.5014 0.9707
6.7646 1.7802 -2.5014 0.9707
6.6966 2.0211 -2.5014 0.9707
6.4414 2.7270 -2.5014 0.9707
6.2299 3.1807 -2.5014 0.9707
6.1121 3.4016 -2.5014 0.9707
5.9865 3.6181 -2.5014 0.9707
5.7125 4.0369 -2.5014 0.9707
5.5644 4.2387 -2.5014 0.9707
5.4091 4.4351 -2.5014 0.9707
4.5334 5.3270 -2.5014 0.9707
4.3399 5.4858 -2.5014 0.9707
3.7271 5.9193 -2.5014 0.9707
3.5130 6.0488 -2.5014 0.9707
2.7622 6.2054 -2.4290 0.9716
2.5027 6.2117 -2.3949 0.9720
2.0128 6.2528 -2.3490 0.9725
1.7878 6.3208 -2.3490 0.9725
1.5605 6.3807 -2.3490 0.9725
0.8678 6.5112 -2.3490 0.9725
0.6343 6.5381 -2.3490 0.9725
0.1688 6.7122 -2.4011 0.9719
-0.0728 6.8412 -2.4466 0.9714
-0.5744 6.9713 -2.5014 0.9707
-1.5631 6.8180 -2.5014 0.9707
-2.0467 6.6888 -2.5014 0.9707
-2.9799 6.3284 -2.5014 0.9707
-3.2044 6.2178 -2.5014 0.9707
-3.4249 6.0991 -2.5014 0.9707
-3.6409 5.9727 -2.5014 0.9707
-4.0587 5.6970 -2.5014 0.9707
-4.2599 5.5482 -2.5014 0.9707
-4.4557 5.3922 -2.5014 0.9707
-4.6458 5.2293 -2.5014 0.9707
-5.5023 4.3190 -2.5014 0.9707
-6.2962 3.0474 -2.5014 0.9707
-6.4012 2.8202 -2.5014 0.9707
-6.5865 2.3552 -2.5014 0.9707
-6.6666 2.1180 -2.5014 0.9707
6.4151 1.2056 -2.5014 0.9724
6.3679 1.4343 -2.5014 0.9724
6.1776 2.1084 -2.5014 0.9724
6.0110 2.5448 -2.5014 0.9724
5.7037 3.1742 -2.5014 0.9724
4.7388 4.4891 -2.5014 0.9724
4.0499 5.1192 -2.5014 0.9724
3.8641 5.2608 -2.5014 0.9724
3.4780 5.5237 -2.5014 0.9724
3.0741 5.7582 -2.5014 0.9724
2.2212 6.1379 -2.5014 0.9724
1.9963 6.2014 -2.4966 0.9725
1.7588 6.2181 -2.4764 0.9727
1.5291 6.2522 -2.4666 0.9728
0.8544 6.4099 -2.4781 0.9727
-0.0695 6.5271 -2.5014 0.9724
-1.2301 6.4105 -2.5014 0.9724
-1.4586 6.3624 -2.5014 0.9724
-2.5677 6.0012 -2.5014 0.9724
-2.9903 5.8022 -2.5014 0.9724
-3.1960 5.6915 -2.5014 0.9724
-3.7874 5.3163 -2.5014 0.9724
-4.9871 4.2115 -2.5014 0.9724
-5.1346 4.0303 -2.5014 0.9724
-5.4097 3.6528 -2.5014 0.9724
-5.5369 3.4569 -2.5014 0.9724
-5.6570 3.2566 -2.5014 0.9724
-5.8754 2.8438 -2.5014 0.9724
-5.9734 2.6317 -2.5014 0.9724
-6.0638 2.4163 -2.5014 0.9724
-6.1463 2.1978 -2.5014 0.9724
-6.2210 1.9765 -2.5014 0.9724
5.9106 1.5555 -2.5014 0.9739
5.8512 1.7660 -2.5014 0.9739
5.7843 1.9742 -2.5014 0.9739
5.7099 2.1799 -2.5014 0.9739
5.6283 2.3828 -2.5014 0.9739
5.5394 2.5826 -2.5014 0.9739
5.4435 2.7792 -2.5014 0.9739
5.3405 2.9722 -2.5014 0.9739
5.2308 3.1613 -2.5014 0.9739
4.9913 3.5273 -2.5014 0.9739
4.8619 3.7036 -2.5014 0.9739
4.4371 4.2033 -2.5014 0.9739
3.6181 4.9258 -2.5014 0.9739
3.2566 5.1720 -2.5014 0.9739
2.6836 5.4912 -2.5014 0.9739
2.2841 5.6690 -2.5014 0.9739
2.0798 5.7471 -2.5014 0.9739
1.8728 5.8178 -2.5014 0.9739
1.2387 5.9850 -2.5014 0.9739
1.0237 6.0255 -2.5014 0.9739
0.1537 6.1099 -2.5014 0.9739
-0.0650 6.1115 -2.5014 0.9739
-0.9362 6.0397 -2.5014 0.9739
-1.1517 6.0024 -2.5014 0.9739
-2.2016 5.7016 -2.5014 0.9739
-2.4042 5.6191 -2.5014 0.9739
-2.6037 5.5295 -2.5014 0.9739
-3.7221 4.8478 -2.5014 0.9739
-4.0593 4.5692 -2.5014 0.9739
-4.2202 4.4210 -2.5014 0.9739
-4.6696 3.9433 -2.5014 0.9739
-5.0652 3.4203 -2.5014 0.9739
-5.1844 3.2368 -2.5014 0.9739
-5.4026 2.8578 -2.5014 0.9739
-5.7550 2.0578 -2.5014 0.9739
-5.8250 1.8507 -2.5014 0.9739
5.6409 1.0601 -2.5014 0.9753
5.4948 1.6584 -2.5014 0.9753
5.2855 2.2377 -2.5014 0.9753
5.2021 2.4253 -2.5014 0.9753
5.1119 2.6099 -2.5014 0.9753
4.8028 3.1427 -2.5014 0.9753
4.5658 3.4781 -2.5014 0.9753
4.4385 3.6392 -2.5014 0.9753
4.1668 3.9473 -2.5014 0.9753
4.0229 4.0938 -2.5014 0.9753
3.8739 4.2351 -2.5014 0.9753
3.7199 4.3711 -2.5014 0.9753
3.3978 4.6259 -2.5014 0.9753
3.2301 4.7445 -2.5014 0.9753
3.0583 4.8570 -2.5014 0.9753
2.7031 5.0633 -2.5014 0.9753
2.5202 5.1567 -2.5014 0.9753
2.1450 5.3238 -2.5014 0.9753
1.9531 5.3971 -2.5014 0.9753
1.1632 5.6206 -2.5014 0.9753
0.9614 5.6585 -2.5014 0.9753
0.3495 5.7290 -2.5014 0.9753
-0.0611 5.7393 -2.5014 0.9753
-0.2664 5.7335 -2.5014 0.9753
-0.4714 5.7203 -2.5014 0.9753
-0.6757 5.6997 -2.5014 0.9753
-1.0816 5.6368 -2.5014 0.9753
-1.2826 5.5945 -2.5014 0.9753
-1.4819 5.5450 -2.5014 0.9753
-1.6794 5.4885 -2.5014 0.9753
-2.2578 5.2769 -2.5014 0.9753
-2.6294 5.1019 -2.5014 0.9753
-2.9875 4.9008 -2.5014 0.9753
-3.1610 4.7908 -2.5014 0.9753
-3.3303 4.6747 -2.5014 0.9753
-3.4955 4.5525 -2.5014 0.9753
-3.9631 4.1517 -2.5014 0.9753
-4.3852 3.7032 -2.5014 0.9753
-4.5149 3.5439 -2.5014 0.9753
-4.6388 3.3801 -2.5014 0.9753
-4.7568 3.2120 -2.5014 0.9753
-4.8686 3.0397 -2.5014 0.9753
-4.9743 2.8636 -2.5014 0.9753
-5.0736 2.6838 -2.5014 0.9753
-5.1663 2.5005 -2.5014 0.9753
-5.4702 1.7379 -2.5014 0.9753
5.1143 1.7456 -2.5014 0.9765
5.0486 1.9274 -2.5014 0.9765
4.8978 2.2835 -2.5014 0.9765
4.7220 2.6279 -2.5014 0.9765
4.6250 2.7952 -2.5014 0.9765
4.1789 3.4264 -2.5014 0.9765
4.0536 3.5737 -2.5014 0.9765
3.9232 3.7164 -2.5014 0.9765
3.7877 3.8545 -2.5014 0.9765
3.5024 4.1154 -2.5014 0.9765
3.1991 4.3554 -2.5014 0.9765
2.8794 4.5730 -2.5014 0.9765
2.7140 4.6731 -2.5014 0.9765
2.5450 4.7672 -2.5014 0.9765
2.3728 4.8552 -2.5014 0.9765
2.1976 4.9370 -2.5014 0.9765
2.0196 5.0125 -2.5014 0.9765
1.8389 5.0815 -2.5014 0.9765
1.6559 5.1440 -2.5014 0.9765
1.2838 5.2493 -2.5014 0.9765
0.9052 5.3276 -2.5014 0.9765
-0.0575 5.4037 -2.5014 0.9765
-1.5812 5.1675 -2.5014 0.9765
-1.7650 5.1076 -2.5014 0.9765
-1.9467 5.0412 -2.5014 0.9765
-2.3022 4.8891 -2.5014 0.9765
-2.4756 4.8036 -2.5014 0.9765
-3.8689 3.7730 -2.5014 0.9765
-4.0014 3.6321 -2.5014 0.9765
-4.3675 3.1825 -2.5014 0.9765
-4.4786 3.0242 -2.5014 0.9765
-4.5839 2.8620 -2.5014 0.9765
-4.7769 2.5268 -2.5014 0.9765
-4.9453 2.1788 -2.5014 0.9765
-5.0885 1.8195 -2.5014 0.9765
5.0118 0.9419 -2.5014 0.9775
4.9749 1.1206 -2.5014 0.9775
4.9316 1.2978 -2.5014 0.9775
4.7641 1.8188 -2.5014 0.9775
4.6960 1.9881 -2.5014 0.9775
4.5418 2.3188 -2.5014 0.9775
4.3644 2.6377 -2.5014 0.9775
4.2672 2.7922 -2.5014 0.9775
4.1646 2.9430 -2.5014 0.9775
3.8252 3.3723 -2.5014 0.9775
3.7021 3.5071 -2.5014 0.9775
3.5743 3.6373 -2.5014 0.9775
3.4419 3.7628 -2.5014 0.9775
3.3050 3.8836 -2.5014 0.9775
3.1640 3.9993 -2.5014 0.9775
2.8699 4.2154 -2.5014 0.9775
2.7172 4.3153 -2.5014 0.9775
2.4016 4.4986 -2.5014 0.9775
2.2391 4.5817 -2.5014 0.9775
2.0738 4.6588 -2.5014 0.9775
1.5626 4.8542 -2.5014 0.9775
1.3880 4.9070 -2.5014 0.9775
1.2115 4.9535 -2.5014 0.9775
1.0335 4.9937 -2.5014 0.9775
0.8542 5.0275 -2.5014 0.9775
0.6737 5.0548 -2.5014 0.9775
0.4924 5.0757 -2.5014 0.9775
0.1282 5.0979 -2.5014 0.9775
-0.0543 5.0992 -2.5014 0.9775
-0.4188 5.0823 -2.5014 0.9775
-0.9610 5.0081 -2.5014 0.9775
-1.1395 4.9706 -2.5014 0.9775
-1.4921 4.8763 -2.5014 0.9775
-1.6656 4.8199 -2.5014 0.9775
-1.8370 4.7572 -2.5014 0.9775
-2.0060 4.6884 -2.5014 0.9775
-2.9589 4.1533 -2.5014 0.9775
-3.1056 4.0448 -2.5014 0.9775
-3.7759 3.4275 -2.5014 0.9775
-4.0114 3.1487 -2.5014 0.9775
-4.1215 3.0031 -2.5014 0.9775
-4.2263 2.8538 -2.5014 0.9775
-4.6667 2.0560 -2.5014 0.9775
-4.7373 1.8877 -2.5014 0.9775
4.7039 1.0595 -2.5014 0.9785
4.6630 1.2271 -2.5014 0.9785
4.5633 1.5575 -2.5014 0.9785
4.5047 1.7197 -2.5014 0.9785
4.4402 1.8798 -2.5014 0.9785
4.3701 2.0375 -2.5014 0.9785
4.1267 2.4940 -2.5014 0.9785
3.7287 3.0572 -2.5014 0.9785
3.6169 3.1887 -2.5014 0.9785
3.3796 3.4392 -2.5014 0.9785
3.2544 3.5579 -2.5014 0.9785
3.1250 3.6721 -2.5014 0.9785
2.9916 3.7815 -2.5014 0.9785
2.5692 4.0803 -2.5014 0.9785
2.1172 4.3321 -2.5014 0.9785
1.6408 4.5340 -2.5014 0.9785
1.4775 4.5898 -2.5014 0.9785
1.3124 4.6397 -2.5014 0.9785
0.8076 4.7537 -2.5014 0.9785
0.6370 4.7795 -2.5014 0.9785
0.4656 4.7992 -2.5014 0.9785
0.2936 4.8128 -2.5014 0.9785
0.1212 4.8202 -2.5014 0.9785
-0.0513 4.8215 -2.5014 0.9785
-0.2238 4.8166 -2.5014 0.9785
-0.3960 4.8055 -2.5014 0.9785
-0.5677 4.7883 -2.5014 0.9785
-0.9086 4.7354 -2.5014 0.9785
-1.2449 4.6583 -2.5014 0.9785
-1.5749 4.5573 -2.5014 0.9785
-1.8967 4.4330 -2.5014 0.9785
-2.0541 4.3623 -2.5014 0.9785
-2.6555 4.0247 -2.5014 0.9785
-2.7978 3.9271 -2.5014 0.9785
-3.2025 3.6047 -2.5014 0.9785
-4.0901 2.5536 -2.5014 0.9785
-4.1788 2.4056 -2.5014 0.9785
-4.2622 2.2546 -2.5014 0.9785
-4.3401 2.1007 -2.5014 0.9785
-4.4125 1.9440 -2.5014 0.9785
-4.4792 1.7849 -2.5014 0.9785
-4.5954 1.4600 -2.5014 0.9785
4.4555 1.0036 -2.5014 0.9794
4.3723 1.3196 -2.5014 0.9794
4.2668 1.6289 -2.5014 0.9794
4.1394 1.9299 -2.5014 0.9794
3.9907 2.2209 -2.5014 0.9794
3.9087 2.3623 -2.5014 0.9794
3.6331 2.7675 -2.5014 0.9794
3.5318 2.8958 -2.5014 0.9794
3.2011 3.2575 -2.5014 0.9794
2.9600 3.4781 -2.5014 0.9794
2.8336 3.5818 -2.5014 0.9794
2.7037 3.6809 -2.5014 0.9794
2.1509 4.0289 -2.5014 0.9794
1.2431 4.3947 -2.5014 0.9794
1.0850 4.4364 -2.5014 0.9794
0.7650 4.5026 -2.5014 0.9794
-0.2120 4.5622 -2.5014 0.9794
-0.3751 4.5517 -2.5014 0.9794
-0.6996 4.5132 -2.5014 0.9794
-0.8606 4.4853 -2.5014 0.9794
-1.1792 4.4123 -2.5014 0.9794
-1.3363 4.3673 -2.5014 0.9794
-1.7966 4.1989 -2.5014 0.9794
-1.9457 4.1320 -2.5014 0.9794
-2.0923 4.0597 -2.5014 0.9794
-2.2362 3.9823 -2.5014 0.9794
-2.3772 3.8997 -2.5014 0.9794
-2.5152 3.8121 -2.5014 0.9794
-2.6500 3.7197 -2.5014 0.9794
-2.7814 3.6225 -2.5014 0.9794
-2.9092 3.5207 -2.5014 0.9794
-3.0333 3.4143 -2.5014 0.9794
-3.1535 3.3036 -2.5014 0.9794
-3.3817 3.0696 -2.5014 0.9794
-3.7850 2.5558 -2.5014 0.9794
-3.8741 2.4187 -2.5014 0.9794
-3.9581 2.2786 -2.5014 0.9794
-4.0371 2.1355 -2.5014 0.9794
-4.1109 1.9897 -2.5014 0.9794
-4.1795 1.8412 -2.5014 0.9794
-4.3527 1.3829 -2.5014 0.9794
4.2581 0.8002 -2.5014 0.9802
4.1004 1.3995 -2.5014 0.9802
3.9268 1.8308 -2.5014 0.9802
3.7858 2.1069 -2.5014 0.9802
3.5383 2.5005 -2.5014 0.9802
3.3504 2.7471 -2.5014 0.9802
3.1454 2.9796 -2.5014 0.9802
3.0367 3.0903 -2.5014 0.9802
2.9242 3.1969 -2.5014 0.9802
2.6881 3.3979 -2.5014 0.9802
2.5648 3.4919 -2.5014 0.9802
2.3086 3.6664 -2.5014 0.9802
2.1759 3.7466 -2.5014 0.9802
2.0405 3.8221 -2.5014 0.9802
1.6192 4.0187 -2.5014 0.9802
1.4743 4.0741 -2.5014 0.9802
1.1792 4.1691 -2.5014 0.9802
1.0293 4.2086 -2.5014 0.9802
0.8781 4.2427 -2.5014 0.9802
0.7257 4.2714 -2.5014 0.9802
0.5724 4.2946 -2.5014 0.9802
0.4184 4.3123 -2.5014 0.9802
0.2638 4.3246 -2.5014 0.9802
-0.0461 4.3324 -2.5014 0.9802
-0.2011 4.3279 -2.5014 0.9802
-0.3558 4.3180 -2.5014 0.9802
-0.6637 4.2815 -2.5014 0.9802
-0.8164 4.2550 -2.5014 0.9802
-0.9682 4.2231 -2.5014 0.9802
-1.5607 4.0418 -2.5014 0.9802
-1.8458 3.9198 -2.5014 0.9802
-1.9848 3.8512 -2.5014 0.9802
-2.1213 3.7778 -2.5014 0.9802
-2.2551 3.6994 -2.5014 0.9802
-2.3861 3.6164 -2.5014 0.9802
-2.5139 3.5287 -2.5014 0.9802
-2.7598 3.3399 -2.5014 0.9802
-2.9916 3.1340 -2.5014 0.9802
-3.2081 2.9120 -2.5014 0.9802
-3.3102 2.7954 -2.5014 0.9802
-3.5907 2.4246 -2.5014 0.9802
-3.6751 2.2945 -2.5014 0.9802
-3.7549 2.1616 -2.5014 0.9802
-3.8298 2.0258 -2.5014 0.9802
-3.9649 1.7468 -2.5014 0.9802
-4.0248 1.6038 -2.5014 0.9802
-4.0796 1.4588 -2.5014 0.9802
