ply
format ascii 1.0
element vertex 933
property float32 x
property float32 y
property float32 z
property float32 I
end_header
-35.3955 -26.5749 7.8045 0.8355
-26.8260 -23.3515 6.2712 0.8655
-27.0777 -31.5011 7.3245 0.8447
-27.0379 -33.8556 7.6397 0.8386
-24.7543 -36.0554 7.7117 0.8372
-22.9127 -36.1016 7.5395 0.8406
-21.3631 -36.5116 7.4590 0.8421
-14.7754 -40.6327 7.6236 0.8389
-11.5540 -40.7137 7.4624 0.8421
-4.3726 -32.9295 5.8573 0.8738
2.0157 -41.4283 7.3135 0.8450
3.5059 -41.2729 7.3037 0.8451
6.5167 -41.1678 7.3494 0.8443
9.6247 -41.2459 7.4681 0.8420
15.3741 -39.2015 7.4248 0.8428
16.2946 -37.5035 7.2101 0.8470
18.0408 -31.6370 6.4217 0.8625
21.7202 -35.0809 7.2753 0.8457
18.0141 -24.8825 5.4165 0.8827
25.2732 -32.3796 7.2427 0.8463
-26.9218 -23.4349 5.4679 0.8655
-36.0098 -33.7077 7.5562 0.8191
-26.8769 -27.0449 5.8411 0.8570
-27.0749 -31.4979 6.3629 0.8453
-27.2450 -34.1148 6.6883 0.8381
-4.4611 -33.5964 5.1919 0.8718
18.0789 -37.8116 6.4206 0.8440
17.9508 -24.7951 4.6894 0.8835
29.2006 -37.4113 7.2703 0.8253
-26.8411 -23.3646 4.6340 0.8663
-27.1337 -29.3515 5.2052 0.8511
-4.1287 -24.3231 3.2127 0.9053
18.1056 -31.7506 4.7596 0.8629
18.0118 -26.8719 4.2126 0.8777
-26.9218 -23.4349 3.8328 0.8662
-27.0336 -31.4498 4.4533 0.8463
-27.2830 -39.7384 5.1761 0.8237
17.7072 -40.7547 4.7715 0.8363
17.7125 -33.8465 4.1021 0.8575
-26.9218 -23.4349 3.0215 0.8665
-4.8734 -23.5252 1.4898 0.9082
-26.4040 -22.9841 1.3803 0.8692
-26.7432 -42.1369 1.9679 0.8189
-3.9970 -23.5472 0.9418 0.9088
17.0400 -43.4491 1.8403 0.8296
18.8270 -24.1208 1.2065 0.8847
-26.7087 -42.0825 0.8419 0.8192
-4.8734 -23.5252 0.4058 0.9084
-3.9970 -23.5472 0.4034 0.9089
-5.5676 -41.9293 0.7145 0.8443
18.8270 -24.1208 0.5169 0.8848
-42.5752 -17.5570 -0.2593 0.8318
-38.5474 -17.5507 -0.2385 0.8442
-35.1020 -17.5393 -0.2209 0.8547
-29.5343 -17.5289 -0.1934 0.8716
-27.2474 -17.5324 -0.1824 0.8784
-23.3224 -17.5104 -0.1642 0.8899
-18.6966 -17.5013 -0.1442 0.9026
-17.3875 -17.4963 -0.1389 0.9060
-16.1823 -17.5050 -0.1342 0.9090
-15.0431 -17.5005 -0.1299 0.9118
-12.9635 -17.4924 -0.1226 0.9166
-11.0974 -17.4851 -0.1166 0.9205
-9.3989 -17.4830 -0.1118 0.9237
-7.8268 -17.4783 -0.1078 0.9263
-6.3541 -17.4739 -0.1047 0.9283
-5.6477 -17.4718 -0.1034 0.9292
-4.9568 -17.4665 -0.1022 0.9299
-2.3184 -17.4596 -0.0992 0.9320
-0.4126 -17.4547 -0.0983 0.9325
0.2180 -17.4488 -0.0982 0.9326
1.4820 -17.4462 -0.0986 0.9324
4.7398 -17.4395 -0.1017 0.9303
6.8394 -17.4393 -0.1055 0.9278
9.9384 -17.4283 -0.1130 0.9229
13.5981 -17.4215 -0.1244 0.9154
-42.5742 -17.5566 -1.2967 0.8317
-29.5335 -17.5284 -0.9670 0.8716
-23.3227 -17.5106 -0.8212 0.8898
-21.6514 -17.5136 -0.7841 0.8945
-20.1125 -17.5075 -0.7508 0.8988
-15.0425 -17.4998 -0.6498 0.9118
-12.9630 -17.4917 -0.6130 0.9166
-11.0969 -17.4845 -0.5831 0.9205
-7.8264 -17.4776 -0.5392 0.9262
-7.0793 -17.4754 -0.5309 0.9273
-6.3539 -17.4732 -0.5235 0.9283
-5.6475 -17.4711 -0.5170 0.9292
-4.9568 -17.4665 -0.5112 0.9299
-3.6176 -17.4631 -0.5022 0.9311
-2.9639 -17.4613 -0.4987 0.9316
-2.3184 -17.4597 -0.4959 0.9319
-1.6792 -17.4580 -0.4938 0.9322
-0.4126 -17.4547 -0.4916 0.9325
1.4820 -17.4466 -0.4930 0.9323
2.1189 -17.4453 -0.4948 0.9321
2.7613 -17.4440 -0.4973 0.9318
4.7399 -17.4399 -0.5089 0.9302
6.1233 -17.4421 -0.5205 0.9287
8.3359 -17.4343 -0.5441 0.9256
9.1222 -17.4316 -0.5540 0.9243
10.7890 -17.4257 -0.5771 0.9213
13.5982 -17.4218 -0.6223 0.9154
-48.4656 7.3625 -2.4861 0.8217
-48.8706 3.8446 -2.4861 0.8217
-49.0207 0.3067 -2.4861 0.8217
-48.9998 -1.4641 -2.4861 0.8217
-47.9396 -10.2430 -2.4861 0.8217
-47.5383 -11.9678 -2.4861 0.8217
-47.0751 -13.6770 -2.4861 0.8217
-46.0319 -15.1972 -2.4584 0.8235
-43.1472 -15.9951 -2.3337 0.8317
-35.1064 -17.5415 -1.9903 0.8545
-32.1335 -17.5341 -1.8565 0.8636
-27.2458 -17.5314 -1.6431 0.8783
-23.3230 -17.5108 -1.4791 0.8898
-20.1133 -17.5082 -1.3524 0.8987
-17.3888 -17.4976 -1.2510 0.9059
-16.1809 -17.5034 -1.2089 0.9089
-13.9719 -17.4949 -1.1355 0.9142
-12.9625 -17.4910 -1.1041 0.9165
-12.0062 -17.4873 -1.0758 0.9186
-9.3981 -17.4816 -1.0066 0.9236
-7.8261 -17.4769 -0.9711 0.9262
-7.0790 -17.4747 -0.9562 0.9273
-4.2812 -17.4648 -0.9119 0.9305
-2.9639 -17.4614 -0.8982 0.9315
-2.3184 -17.4597 -0.8932 0.9319
-1.6792 -17.4580 -0.8895 0.9322
-1.0445 -17.4564 -0.8869 0.9324
-0.4126 -17.4547 -0.8855 0.9325
0.8490 -17.4483 -0.8859 0.9324
2.1190 -17.4457 -0.8912 0.9320
2.7614 -17.4443 -0.8957 0.9317
3.4111 -17.4430 -0.9014 0.9313
4.0700 -17.4416 -0.9083 0.9308
4.7400 -17.4403 -0.9166 0.9302
5.4231 -17.4389 -0.9262 0.9295
6.1234 -17.4425 -0.9375 0.9286
9.1224 -17.4319 -0.9978 0.9242
10.7893 -17.4260 -1.0394 0.9212
11.6822 -17.4285 -1.0641 0.9194
13.5984 -17.4220 -1.1208 0.9153
-33.5830 -4.6726 -2.4861 0.8729
-33.3923 -5.8825 -2.4861 0.8729
-33.1581 -7.0847 -2.4861 0.8729
-32.8805 -8.2777 -2.4861 0.8729
-32.5601 -9.4599 -2.4861 0.8729
-32.1972 -10.6297 -2.4861 0.8729
-31.7923 -11.7857 -2.4861 0.8729
-30.8585 -14.0500 -2.4861 0.8729
-27.9392 -15.2454 -2.3337 0.8802
-27.3704 -16.2446 -2.3337 0.8802
-25.1727 -17.5145 -2.2485 0.8843
-21.6532 -17.5150 -2.0420 0.8943
-16.1802 -17.5026 -1.7477 0.9088
-13.9713 -17.4942 -1.6416 0.9141
-9.3977 -17.4808 -1.4552 0.9235
-8.5977 -17.4785 -1.4282 0.9248
-7.8258 -17.4762 -1.4040 0.9261
-7.0787 -17.4739 -1.3824 0.9272
-4.9568 -17.4666 -1.3313 0.9298
-3.6176 -17.4631 -1.3076 0.9310
-2.9639 -17.4614 -1.2986 0.9314
-1.6792 -17.4581 -1.2860 0.9321
-1.0445 -17.4564 -1.2822 0.9323
-0.4126 -17.4548 -1.2802 0.9324
0.2180 -17.4499 -1.2796 0.9324
0.8490 -17.4487 -1.2809 0.9323
1.4821 -17.4473 -1.2839 0.9322
2.1190 -17.4460 -1.2886 0.9319
2.7615 -17.4447 -1.2950 0.9316
3.4112 -17.4434 -1.3032 0.9312
5.4233 -17.4392 -1.3391 0.9294
7.5764 -17.4377 -1.3940 0.9266
8.3362 -17.4350 -1.4170 0.9254
12.6156 -17.4255 -1.5774 0.9173
-25.6017 3.8892 -2.4861 0.9012
-25.7255 2.9620 -2.4861 0.9012
-25.8157 2.0309 -2.4861 0.9012
-25.8722 1.0972 -2.4861 0.9012
-25.8840 -0.7734 -2.4861 0.9012
-25.7606 -2.6399 -2.4861 0.9012
-25.6484 -3.5687 -2.4861 0.9012
-25.3239 -5.4109 -2.4861 0.9012
-24.8672 -7.2248 -2.4861 0.9012
-24.5900 -8.1183 -2.4861 0.9012
-23.9399 -9.8722 -2.4861 0.9012
-22.7316 -12.4038 -2.4861 0.9012
-21.7768 -14.0124 -2.4861 0.9012
-21.2565 -14.7898 -2.4861 0.9012
-17.7463 -16.6118 -2.3337 0.9069
-17.1347 -17.2419 -2.3337 0.9069
-12.0052 -17.4859 -2.0363 0.9183
-11.0956 -17.4824 -1.9879 0.9202
-10.2292 -17.4826 -1.9446 0.9218
-8.5973 -17.4778 -1.8700 0.9247
-7.0784 -17.4733 -1.8099 0.9270
-6.3531 -17.4711 -1.7848 0.9280
-4.2812 -17.4649 -1.7264 0.9303
-3.6176 -17.4632 -1.7121 0.9308
-2.3184 -17.4598 -1.6909 0.9317
-1.6792 -17.4581 -1.6838 0.9319
-0.4126 -17.4548 -1.6762 0.9322
0.2180 -17.4503 -1.6755 0.9323
0.8490 -17.4490 -1.6772 0.9322
1.4821 -17.4477 -1.6811 0.9321
3.4113 -17.4438 -1.7064 0.9311
5.4234 -17.4396 -1.7534 0.9292
7.5765 -17.4380 -1.8253 0.9264
8.3364 -17.4354 -1.8554 0.9253
9.1228 -17.4326 -1.8889 0.9240
9.9392 -17.4298 -1.9263 0.9225
10.7897 -17.4268 -1.9678 0.9209
11.6824 -17.4290 -2.0144 0.9191
12.6157 -17.4258 -2.0654 0.9172
13.5988 -17.4224 -2.1218 0.9150
-20.6918 3.1433 -2.4861 0.9192
-20.7918 2.3939 -2.4861 0.9192
-20.9199 -0.6251 -2.4861 0.9192
-20.8837 -1.3802 -2.4861 0.9192
-20.7295 -2.8842 -2.4861 0.9192
-20.0981 -5.8392 -2.4861 0.9192
-19.8741 -6.5614 -2.4861 0.9192
-19.3486 -7.9789 -2.4861 0.9192
-19.0478 -8.6726 -2.4861 0.9192
-18.3721 -10.0250 -2.4861 0.9192
-17.9980 -10.6820 -2.4861 0.9192
-16.7370 -12.5661 -2.4861 0.9192
-15.7862 -13.7415 -2.4861 0.9192
-15.2795 -14.3027 -2.4861 0.9192
-14.7530 -14.8453 -2.4861 0.9192
-12.2601 -15.3515 -2.3337 0.9239
-9.9217 -16.9569 -2.3337 0.9239
-9.3027 -17.3042 -2.3337 0.9239
-8.5970 -17.4770 -2.3136 0.9245
-7.8252 -17.4748 -2.2744 0.9258
-7.0782 -17.4725 -2.2393 0.9269
-6.3529 -17.4704 -2.2082 0.9279
-2.9640 -17.4615 -2.1039 0.9311
-1.0445 -17.4565 -2.0773 0.9320
-0.4126 -17.4549 -2.0740 0.9321
0.2180 -17.4507 -2.0731 0.9321
0.8490 -17.4494 -2.0752 0.9320
1.4822 -17.4481 -2.0801 0.9319
3.4114 -17.4441 -2.1114 0.9309
4.7403 -17.4414 -2.1470 0.9298
6.1238 -17.4435 -2.1960 0.9282
7.5767 -17.4384 -2.2585 0.9263
8.3366 -17.4357 -2.2957 0.9251
9.7320 -17.0664 -2.3337 0.9239
10.3421 -16.7038 -2.3337 0.9239
10.9386 -16.3194 -2.3337 0.9239
-17.4309 2.0069 -2.4861 0.9316
-17.5303 0.7434 -2.4861 0.9316
-17.5458 0.1098 -2.4861 0.9316
-17.3787 -2.4180 -2.4861 0.9316
-17.2800 -3.0441 -2.4861 0.9316
-16.4520 -6.0989 -2.4861 0.9316
-16.1727 -6.6692 -2.4787 0.9318
-15.9213 -7.2490 -2.4787 0.9318
-15.6958 -7.8427 -2.4861 0.9316
-14.7554 -9.4945 -2.4861 0.9316
-13.6419 -11.0348 -2.4861 0.9316
-10.9495 -13.7104 -2.4861 0.9316
-10.4471 -14.0969 -2.4861 0.9316
-9.9312 -14.4651 -2.4861 0.9316
-9.4023 -14.8143 -2.4861 0.9316
-8.8611 -15.1443 -2.4861 0.9316
-7.4806 -15.2078 -2.4014 0.9338
-6.8133 -15.2150 -2.3621 0.9349
-6.1841 -15.2655 -2.3337 0.9356
-5.6287 -15.4789 -2.3337 0.9356
-5.0659 -15.6721 -2.3337 0.9356
-4.4966 -15.8449 -2.3337 0.9356
-3.9214 -15.9969 -2.3337 0.9356
-3.3410 -16.1282 -2.3337 0.9356
-2.7563 -16.2383 -2.3337 0.9356
-2.1680 -16.3272 -2.3337 0.9356
-1.5769 -16.3949 -2.3337 0.9356
-0.3893 -16.4660 -2.3337 0.9356
0.2057 -16.4693 -2.3337 0.9356
1.9859 -16.3504 -2.3337 0.9356
2.5752 -16.2680 -2.3337 0.9356
3.1610 -16.1644 -2.3337 0.9356
4.3197 -15.8940 -2.3337 0.9356
4.8909 -15.7276 -2.3337 0.9356
6.6117 -15.2171 -2.3508 0.9352
7.2724 -15.2101 -2.3888 0.9342
8.6640 -15.1935 -2.4782 0.9318
9.7694 -14.5749 -2.4861 0.9316
10.2894 -14.2125 -2.4861 0.9316
10.7960 -13.8316 -2.4861 0.9316
-14.9199 2.2665 -2.4861 0.9407
-14.9920 1.7261 -2.4861 0.9407
-15.0446 1.1836 -2.4861 0.9407
-15.0775 0.6394 -2.4861 0.9407
-15.0908 0.0944 -2.4861 0.9407
-15.0583 -0.9952 -2.4861 0.9407
-15.0125 -1.5385 -2.4861 0.9407
-14.7580 -3.1533 -2.4861 0.9407
-14.6345 -3.6843 -2.4861 0.9407
-14.1500 -5.2456 -2.4861 0.9407
-13.7345 -6.2534 -2.4861 0.9407
-13.2472 -7.2286 -2.4861 0.9407
-12.9774 -7.7023 -2.4861 0.9407
-12.6909 -8.1660 -2.4861 0.9407
-12.3877 -8.6190 -2.4861 0.9407
-11.7331 -9.4908 -2.4861 0.9407
-11.3827 -9.9084 -2.4861 0.9407
-11.0174 -10.3131 -2.4861 0.9407
-10.2442 -11.0815 -2.4861 0.9407
-9.8372 -11.4443 -2.4861 0.9407
-8.9854 -12.1245 -2.4861 0.9407
-5.1573 -14.1826 -2.4861 0.9407
-4.6416 -14.3596 -2.4861 0.9407
-4.1200 -14.5179 -2.4861 0.9407
-3.0612 -14.7774 -2.4861 0.9407
-2.5255 -14.8783 -2.4861 0.9407
-1.9865 -14.9598 -2.4861 0.9407
-0.9013 -15.0642 -2.4861 0.9407
1.2773 -15.0370 -2.4861 0.9407
1.8196 -14.9811 -2.4861 0.9407
2.3595 -14.9055 -2.4861 0.9407
3.9579 -14.5629 -2.4861 0.9407
4.4813 -14.4104 -2.4861 0.9407
6.5097 -13.6149 -2.4861 0.9407
6.9972 -13.3709 -2.4861 0.9407
7.9442 -12.8309 -2.4861 0.9407
9.2854 -11.8963 -2.4861 0.9407
-13.0766 1.9865 -2.4861 0.9476
-13.1399 1.5129 -2.4861 0.9476
-13.1859 1.0373 -2.4861 0.9476
-13.2264 0.0827 -2.4861 0.9476
-13.1979 -0.8723 -2.4861 0.9476
-13.1005 -1.8228 -2.4861 0.9476
-12.8264 -3.2291 -2.4861 0.9476
-12.4019 -4.5975 -2.4861 0.9476
-12.2278 -5.0425 -2.4861 0.9476
-12.0377 -5.4808 -2.4861 0.9476
-11.1230 -7.1572 -2.4861 0.9476
-10.8572 -7.5542 -2.4861 0.9476
-10.5773 -7.9414 -2.4861 0.9476
-10.2835 -8.3183 -2.4861 0.9476
-9.3235 -9.3818 -2.4861 0.9476
-8.9785 -9.7125 -2.4861 0.9476
-8.6219 -10.0304 -2.4861 0.9476
-8.2540 -10.3353 -2.4861 0.9476
-7.0876 -11.1674 -2.4861 0.9476
-6.6797 -11.4161 -2.4861 0.9476
-6.2630 -11.6499 -2.4861 0.9476
-4.9661 -12.2590 -2.4861 0.9476
-4.0682 -12.5855 -2.4861 0.9476
-3.1491 -12.8464 -2.4861 0.9476
-2.2135 -13.0402 -2.4861 0.9476
-0.3126 -13.2230 -2.4861 0.9476
1.5948 -13.1302 -2.4861 0.9476
2.5385 -12.9809 -2.4861 0.9476
3.4689 -12.7637 -2.4861 0.9476
3.9277 -12.6301 -2.4861 0.9476
4.3813 -12.4800 -2.4861 0.9476
4.8292 -12.3136 -2.4861 0.9476
6.1327 -11.7190 -2.4861 0.9476
-11.7250 0.9224 -2.4861 0.9531
-11.7560 -0.3513 -2.4861 0.9531
-11.7357 -0.7756 -2.4861 0.9531
-11.6491 -1.6208 -2.4861 0.9531
-11.4054 -2.8714 -2.4861 0.9531
-11.0279 -4.0882 -2.4861 0.9531
-10.8730 -4.4838 -2.4861 0.9531
-10.7040 -4.8736 -2.4861 0.9531
-10.1141 -6.0028 -2.4861 0.9531
-9.8906 -6.3642 -2.4861 0.9531
-9.4054 -7.0616 -2.4861 0.9531
-9.1442 -7.3967 -2.4861 0.9531
-8.8711 -7.7221 -2.4861 0.9531
-8.5864 -8.0375 -2.4861 0.9531
-8.2905 -8.3424 -2.4861 0.9531
-7.9838 -8.6364 -2.4861 0.9531
-7.6667 -8.9191 -2.4861 0.9531
-6.6569 -9.6961 -2.4861 0.9531
-5.9396 -10.1513 -2.4861 0.9531
-4.4159 -10.9008 -2.4861 0.9531
-2.8002 -11.4231 -2.4861 0.9531
-2.3858 -11.5168 -2.4861 0.9531
-1.9682 -11.5954 -2.4861 0.9531
-1.1260 -11.7073 -2.4861 0.9531
-0.7024 -11.7403 -2.4861 0.9531
0.1469 -11.7604 -2.4861 0.9531
0.5716 -11.7474 -2.4861 0.9531
0.9955 -11.7191 -2.4861 0.9531
1.4181 -11.6755 -2.4861 0.9531
1.8389 -11.6167 -2.4861 0.9531
3.0846 -11.3496 -2.4861 0.9531
3.4925 -11.2308 -2.4861 0.9531
4.2941 -10.9494 -2.4861 0.9531
4.6868 -10.7871 -2.4861 0.9531
5.4533 -10.4206 -2.4861 0.9531
5.8261 -10.2169 -2.4861 0.9531
7.2366 -9.2715 -2.4861 0.9531
-10.5455 0.8296 -2.4861 0.9575
-10.5734 -0.3159 -2.4861 0.9575
-10.5551 -0.6977 -2.4861 0.9575
-10.4772 -1.4578 -2.4861 0.9575
-10.4177 -1.8352 -2.4861 0.9575
-10.3446 -2.2103 -2.4861 0.9575
-10.2580 -2.5825 -2.4861 0.9575
-10.1580 -2.9513 -2.4861 0.9575
-10.0448 -3.3163 -2.4861 0.9575
-9.9185 -3.6769 -2.4861 0.9575
-9.7792 -4.0328 -2.4861 0.9575
-9.6272 -4.3833 -2.4861 0.9575
-9.2856 -5.0669 -2.4861 0.9575
-8.6831 -6.0415 -2.4861 0.9575
-8.2243 -6.6526 -2.4861 0.9575
-7.7226 -7.2289 -2.4861 0.9575
-6.2983 -8.4987 -2.4861 0.9575
-5.9873 -8.7206 -2.4861 0.9575
-5.6684 -8.9312 -2.4861 0.9575
-5.3421 -9.1301 -2.4861 0.9575
-4.6691 -9.4919 -2.4861 0.9575
-4.3232 -9.6544 -2.4861 0.9575
-3.9717 -9.8042 -2.4861 0.9575
-3.6150 -9.9412 -2.4861 0.9575
-3.2536 -10.0654 -2.4861 0.9575
-2.8879 -10.1763 -2.4861 0.9575
-2.5185 -10.2740 -2.4861 0.9575
-2.1457 -10.3582 -2.4861 0.9575
-1.0128 -10.5296 -2.4861 0.9575
-0.6318 -10.5593 -2.4861 0.9575
0.5141 -10.5656 -2.4861 0.9575
0.8953 -10.5402 -2.4861 0.9575
2.4038 -10.3014 -2.4861 0.9575
2.7743 -10.2079 -2.4861 0.9575
3.5040 -9.9810 -2.4861 0.9575
3.8622 -9.8479 -2.4861 0.9575
4.2153 -9.7020 -2.4861 0.9575
5.5685 -8.9938 -2.4861 0.9575
6.5086 -8.3387 -2.4861 0.9575
-9.4930 1.4421 -2.4861 0.9611
-9.5388 1.0983 -2.4861 0.9611
-9.5723 0.7530 -2.4861 0.9611
-9.5810 -0.6332 -2.4861 0.9611
-9.5518 -0.9789 -2.4861 0.9611
-9.5103 -1.3232 -2.4861 0.9611
-9.3899 -2.0063 -2.4861 0.9611
-9.2206 -2.6789 -2.4861 0.9611
-9.0032 -3.3376 -2.4861 0.9611
-8.8767 -3.6606 -2.4861 0.9611
-8.5893 -4.2918 -2.4861 0.9611
-8.2571 -4.9007 -2.4861 0.9611
-7.4653 -6.0387 -2.4861 0.9611
-7.2423 -6.3043 -2.4861 0.9611
-7.0099 -6.5618 -2.4861 0.9611
-6.5179 -7.0507 -2.4861 0.9611
-5.9920 -7.5029 -2.4861 0.9611
-5.4347 -7.9159 -2.4861 0.9611
-4.2382 -8.6160 -2.4861 0.9611
-3.6051 -8.8994 -2.4861 0.9611
-3.2814 -9.0238 -2.4861 0.9611
-2.6214 -9.2371 -2.4861 0.9611
-2.2860 -9.3258 -2.4861 0.9611
-1.9477 -9.4023 -2.4861 0.9611
-1.6069 -9.4665 -2.4861 0.9611
-1.2639 -9.5184 -2.4861 0.9611
-0.9193 -9.5578 -2.4861 0.9611
-0.5735 -9.5848 -2.4861 0.9611
0.4666 -9.5906 -2.4861 0.9611
0.8127 -9.5674 -2.4861 0.9611
1.8428 -9.4234 -2.4861 0.9611
2.8513 -9.1688 -2.4861 0.9611
3.1806 -9.0598 -2.4861 0.9611
4.1419 -8.6627 -2.4861 0.9611
4.4521 -8.5074 -2.4861 0.9611
4.7564 -8.3411 -2.4861 0.9611
5.0546 -8.1638 -2.4861 0.9611
5.3461 -7.9759 -2.4861 0.9611
-8.7780 -0.2623 -2.4861 0.9642
-8.7628 -0.5792 -2.4861 0.9642
-8.5162 -2.1440 -2.4861 0.9642
-8.4332 -2.4501 -2.4861 0.9642
-8.3392 -2.7532 -2.4861 0.9642
-8.2343 -3.0526 -2.4861 0.9642
-7.8558 -3.9253 -2.4861 0.9642
-7.7089 -4.2065 -2.4861 0.9642
-7.3851 -4.7520 -2.4861 0.9642
-7.2087 -5.0157 -2.4861 0.9642
-6.6239 -5.7660 -2.4861 0.9642
-6.1904 -6.2291 -2.4861 0.9642
-5.7245 -6.6597 -2.4861 0.9642
-5.4802 -6.8621 -2.4861 0.9642
-5.2288 -7.0556 -2.4861 0.9642
-4.9706 -7.2399 -2.4861 0.9642
-4.7059 -7.4147 -2.4861 0.9642
-3.5891 -8.0151 -2.4861 0.9642
-3.2973 -8.1395 -2.4861 0.9642
-3.0011 -8.2532 -2.4861 0.9642
-2.7011 -8.3562 -2.4861 0.9642
-1.7814 -8.5994 -2.4861 0.9642
-0.5244 -8.7663 -2.4861 0.9642
-0.2075 -8.7795 -2.4861 0.9642
0.1097 -8.7813 -2.4861 0.9642
0.7434 -8.7504 -2.4861 0.9642
1.0589 -8.7179 -2.4861 0.9642
1.3731 -8.6739 -2.4861 0.9642
1.9956 -8.5522 -2.4861 0.9642
2.6078 -8.3858 -2.4861 0.9642
3.2064 -8.1757 -2.4861 0.9642
3.4996 -8.0546 -2.4861 0.9642
4.3502 -7.6287 -2.4861 0.9642
5.4035 -6.9228 -2.4861 0.9642
-8.0297 0.9245 -2.4861 0.9667
-8.0579 0.6339 -2.4861 0.9667
-8.0755 0.3424 -2.4861 0.9667
-8.0826 0.0505 -2.4861 0.9667
-8.0792 -0.2414 -2.4861 0.9667
-8.0057 -1.1139 -2.4861 0.9667
-7.9602 -1.4023 -2.4861 0.9667
-7.9044 -1.6889 -2.4861 0.9667
-7.8382 -1.9733 -2.4861 0.9667
-7.7618 -2.2551 -2.4861 0.9667
-7.6753 -2.5340 -2.4861 0.9667
-7.5788 -2.8096 -2.4861 0.9667
-7.2304 -3.6129 -2.4861 0.9667
-7.0952 -3.8716 -2.4861 0.9667
-6.9508 -4.1254 -2.4861 0.9667
-6.6348 -4.6164 -2.4861 0.9667
-6.4638 -4.8530 -2.4861 0.9667
-5.9009 -5.5237 -2.4861 0.9667
-5.6976 -5.7332 -2.4861 0.9667
-4.5749 -6.6635 -2.4861 0.9667
-4.3312 -6.8244 -2.4861 0.9667
-4.0819 -6.9764 -2.4861 0.9667
-3.8273 -7.1193 -2.4861 0.9667
-3.5677 -7.2529 -2.4861 0.9667
-3.3034 -7.3770 -2.4861 0.9667
-3.0348 -7.4915 -2.4861 0.9667
-2.4861 -7.6910 -2.4861 0.9667
0.3928 -8.0733 -2.4861 0.9667
0.6841 -8.0538 -2.4861 0.9667
0.9746 -8.0238 -2.4861 0.9667
1.2638 -7.9834 -2.4861 0.9667
1.8368 -7.8714 -2.4861 0.9667
2.6774 -7.6265 -2.4861 0.9667
2.9511 -7.5248 -2.4861 0.9667
3.4866 -7.2922 -2.4861 0.9667
4.0039 -7.0214 -2.4861 0.9667
4.2549 -6.8722 -2.4861 0.9667
4.7399 -6.5471 -2.4861 0.9667
-7.3943 1.1232 -2.4861 0.9690
-7.4300 0.8554 -2.4861 0.9690
-7.4561 0.5865 -2.4861 0.9690
-7.4790 0.0468 -2.4861 0.9690
-7.4077 -1.0307 -2.4861 0.9690
-7.3657 -1.2976 -2.4861 0.9690
-7.3140 -1.5628 -2.4861 0.9690
-7.0127 -2.5997 -2.4861 0.9690
-6.9143 -2.8513 -2.4861 0.9690
-6.4316 -3.8173 -2.4861 0.9690
-6.2895 -4.0471 -2.4861 0.9690
-5.9810 -4.4905 -2.4861 0.9690
-5.8149 -4.7036 -2.4861 0.9690
-5.6412 -4.9106 -2.4861 0.9690
-5.0770 -5.4920 -2.4861 0.9690
-4.6673 -5.8441 -2.4861 0.9690
-4.4531 -6.0089 -2.4861 0.9690
-4.2332 -6.1658 -2.4861 0.9690
-3.7771 -6.4554 -2.4861 0.9690
-3.5414 -6.5876 -2.4861 0.9690
-3.3012 -6.7112 -2.4861 0.9690
-2.5559 -7.0289 -2.4861 0.9690
-2.0418 -7.1950 -2.4861 0.9690
-1.7806 -7.2641 -2.4861 0.9690
-1.5171 -7.3237 -2.4861 0.9690
-1.2516 -7.3737 -2.4861 0.9690
-0.7161 -7.4448 -2.4861 0.9690
0.0934 -7.4786 -2.4861 0.9690
1.4354 -7.3401 -2.4861 0.9690
1.6996 -7.2835 -2.4861 0.9690
2.2209 -7.1418 -2.4861 0.9690
2.4774 -7.0569 -2.4861 0.9690
2.7307 -6.9628 -2.4861 0.9690
3.2262 -6.7475 -2.4861 0.9690
3.7049 -6.4970 -2.4861 0.9690
4.1642 -6.2126 -2.4861 0.9690
4.3859 -6.0582 -2.4861 0.9690
4.6018 -5.8958 -2.4861 0.9690
-6.9064 0.7951 -2.4861 0.9709
-6.9306 0.5452 -2.4861 0.9709
-6.9519 0.0434 -2.4861 0.9709
-6.9369 -0.4585 -2.4861 0.9709
-6.8857 -0.9581 -2.4861 0.9709
-6.7417 -1.6973 -2.4861 0.9709
-6.6760 -1.9396 -2.4861 0.9709
-6.6016 -2.1795 -2.4861 0.9709
-6.5185 -2.4165 -2.4861 0.9709
-6.2189 -3.1075 -2.4861 0.9709
-6.1026 -3.3300 -2.4861 0.9709
-5.8463 -3.7619 -2.4861 0.9709
-5.5595 -4.1741 -2.4861 0.9709
-5.0754 -4.7509 -2.4861 0.9709
-4.9005 -4.9312 -2.4861 0.9709
-4.7192 -5.1049 -2.4861 0.9709
-4.5317 -5.2721 -2.4861 0.9709
-3.9349 -5.7313 -2.4861 0.9709
-3.5109 -6.0004 -2.4861 0.9709
-3.0686 -6.2382 -2.4861 0.9709
-2.8412 -6.3450 -2.4861 0.9709
-2.3758 -6.5335 -2.4861 0.9709
-1.8979 -6.6880 -2.4861 0.9709
-1.6551 -6.7522 -2.4861 0.9709
-0.9151 -6.8916 -2.4861 0.9709
-0.6656 -6.9201 -2.4861 0.9709
-0.4152 -6.9397 -2.4861 0.9709
-0.1643 -6.9501 -2.4861 0.9709
0.3378 -6.9438 -2.4861 0.9709
1.5798 -6.7702 -2.4861 0.9709
2.3028 -6.5596 -2.4861 0.9709
2.5383 -6.4721 -2.4861 0.9709
2.7704 -6.3762 -2.4861 0.9709
2.9989 -6.2720 -2.4861 0.9709
3.2234 -6.1596 -2.4861 0.9709
3.4438 -6.0392 -2.4861 0.9709
3.6597 -5.9108 -2.4861 0.9709
3.8708 -5.7748 -2.4861 0.9709
-6.4448 0.7420 -2.4861 0.9726
-6.4816 0.2748 -2.4861 0.9726
-6.4873 0.0406 -2.4861 0.9726
-6.4845 -0.1938 -2.4861 0.9726
-6.4733 -0.4279 -2.4861 0.9726
-6.4255 -0.8940 -2.4861 0.9726
-6.3442 -1.3556 -2.4861 0.9726
-6.2298 -1.8100 -2.4861 0.9726
-6.1604 -2.0338 -2.4861 0.9726
-6.0829 -2.2550 -2.4861 0.9726
-5.9975 -2.4732 -2.4861 0.9726
-5.9042 -2.6883 -2.4861 0.9726
-5.5788 -3.3111 -2.4861 0.9726
-5.4556 -3.5104 -2.4861 0.9726
-5.3252 -3.7052 -2.4861 0.9726
-5.0439 -4.0800 -2.4861 0.9726
-4.8932 -4.2595 -2.4861 0.9726
-4.7362 -4.4334 -2.4861 0.9726
-4.5730 -4.6016 -2.4861 0.9726
-4.4038 -4.7638 -2.4861 0.9726
-4.0484 -5.0693 -2.4861 0.9726
-3.8627 -5.2122 -2.4861 0.9726
-3.6719 -5.3483 -2.4861 0.9726
-3.4763 -5.4774 -2.4861 0.9726
-2.8635 -5.8213 -2.4861 0.9726
-2.6513 -5.9209 -2.4861 0.9726
-2.4358 -6.0128 -2.4861 0.9726
-2.2170 -6.0969 -2.4861 0.9726
-1.9954 -6.1730 -2.4861 0.9726
-0.3874 -6.4759 -2.4861 0.9726
0.0811 -6.4870 -2.4861 0.9726
0.3153 -6.4798 -2.4861 0.9726
1.0144 -6.4077 -2.4861 0.9726
1.4742 -6.3177 -2.4861 0.9726
2.3686 -6.0396 -2.4861 0.9726
2.5852 -5.9501 -2.4861 0.9726
2.7984 -5.8529 -2.4861 0.9726
3.0080 -5.7480 -2.4861 0.9726
3.4151 -5.5158 -2.4861 0.9726
3.6121 -5.3889 -2.4861 0.9726
3.9917 -5.1141 -2.4861 0.9726
-6.0345 0.6948 -2.4861 0.9741
-6.0689 0.2573 -2.4861 0.9741
-5.9823 -1.0539 -2.4861 0.9741
-5.6956 -2.1115 -2.4861 0.9741
-5.6156 -2.3158 -2.4861 0.9741
-5.5283 -2.5171 -2.4861 0.9741
-5.4338 -2.7151 -2.4861 0.9741
-5.3322 -2.9096 -2.4861 0.9741
-4.9862 -3.4693 -2.4861 0.9741
-4.7228 -3.8202 -2.4861 0.9741
-4.5817 -3.9883 -2.4861 0.9741
-3.9596 -4.6065 -2.4861 0.9741
-3.7907 -4.7465 -2.4861 0.9741
-3.6167 -4.8803 -2.4861 0.9741
-3.2550 -5.1287 -2.4861 0.9741
-2.8763 -5.3503 -2.4861 0.9741
-2.6812 -5.4507 -2.4861 0.9741
-2.4825 -5.5439 -2.4861 0.9741
-2.0759 -5.7087 -2.4861 0.9741
-1.8683 -5.7800 -2.4861 0.9741
-1.6583 -5.8437 -2.4861 0.9741
-1.4462 -5.8998 -2.4861 0.9741
-1.2322 -5.9482 -2.4861 0.9741
-0.5816 -6.0466 -2.4861 0.9741
-0.3628 -6.0636 -2.4861 0.9741
0.7324 -6.0301 -2.4861 0.9741
0.9497 -5.9997 -2.4861 0.9741
1.1658 -5.9615 -2.4861 0.9741
1.3804 -5.9155 -2.4861 0.9741
1.5931 -5.8618 -2.4861 0.9741
1.8038 -5.8004 -2.4861 0.9741
2.2178 -5.6551 -2.4861 0.9741
2.4206 -5.5713 -2.4861 0.9741
2.6203 -5.4802 -2.4861 0.9741
3.1976 -5.1647 -2.4861 0.9741
3.3821 -5.0458 -2.4861 0.9741
3.5622 -4.9203 -2.4861 0.9741
-5.6670 0.6524 -2.4861 0.9754
-5.7019 -0.1704 -2.4861 0.9754
-5.6920 -0.3762 -2.4861 0.9754
-5.6747 -0.5816 -2.4861 0.9754
-5.6179 -0.9897 -2.4861 0.9754
-5.5785 -1.1920 -2.4861 0.9754
-5.4779 -1.5916 -2.4861 0.9754
-5.4169 -1.7884 -2.4861 0.9754
-5.1029 -2.5498 -2.4861 0.9754
-4.6825 -3.2580 -2.4861 0.9754
-4.5618 -3.4250 -2.4861 0.9754
-4.4351 -3.5876 -2.4861 0.9754
-4.0211 -4.0462 -2.4861 0.9754
-3.8723 -4.1888 -2.4861 0.9754
-3.5598 -4.4574 -2.4861 0.9754
-3.2287 -4.7028 -2.4861 0.9754
-2.8808 -4.9236 -2.4861 0.9754
-2.5179 -5.1187 -2.4861 0.9754
-2.3313 -5.2063 -2.4861 0.9754
-1.7545 -5.4279 -2.4861 0.9754
-1.3581 -5.5404 -2.4861 0.9754
-1.1571 -5.5859 -2.4861 0.9754
-0.9546 -5.6240 -2.4861 0.9754
-0.7509 -5.6548 -2.4861 0.9754
-0.5461 -5.6783 -2.4861 0.9754
-0.1348 -5.7029 -2.4861 0.9754
0.0712 -5.7040 -2.4861 0.9754
0.2772 -5.6978 -2.4861 0.9754
0.4828 -5.6840 -2.4861 0.9754
0.6878 -5.6629 -2.4861 0.9754
1.8896 -5.3825 -2.4861 0.9754
2.0827 -5.3107 -2.4861 0.9754
2.4607 -5.1465 -2.4861 0.9754
2.6450 -5.0542 -2.4861 0.9754
2.8258 -4.9554 -2.4861 0.9754
3.5099 -4.4969 -2.4861 0.9754
-5.3356 0.6143 -2.4861 0.9766
-5.3660 0.2275 -2.4861 0.9766
-5.3708 0.0336 -2.4861 0.9766
-5.3592 -0.3542 -2.4861 0.9766
-5.2894 -0.9318 -2.4861 0.9766
-5.2523 -1.1223 -2.4861 0.9766
-5.2084 -1.3112 -2.4861 0.9766
-5.1576 -1.4985 -2.4861 0.9766
-5.1001 -1.6838 -2.4861 0.9766
-5.0360 -1.8669 -2.4861 0.9766
-4.8881 -2.2256 -2.4861 0.9766
-4.5166 -2.9063 -2.4861 0.9766
-4.2950 -3.2248 -2.4861 0.9766
-3.9210 -3.6704 -2.4861 0.9766
-3.7859 -3.8096 -2.4861 0.9766
-3.6459 -3.9439 -2.4861 0.9766
-3.3516 -4.1968 -2.4861 0.9766
-3.1979 -4.3151 -2.4861 0.9766
-3.0399 -4.4278 -2.4861 0.9766
-2.8780 -4.5347 -2.4861 0.9766
-2.7124 -4.6357 -2.4861 0.9766
-2.1950 -4.9019 -2.4861 0.9766
-1.8354 -5.0476 -2.4861 0.9766
-1.6519 -5.1105 -2.4861 0.9766
-1.0895 -5.2592 -2.4861 0.9766
-0.7070 -5.3242 -2.4861 0.9766
-0.5142 -5.3463 -2.4861 0.9766
-0.1269 -5.3694 -2.4861 0.9766
0.0671 -5.3705 -2.4861 0.9766
0.4546 -5.3516 -2.4861 0.9766
0.6476 -5.3318 -2.4861 0.9766
1.0308 -5.2711 -2.4861 0.9766
1.5949 -5.1286 -2.4861 0.9766
1.7791 -5.0677 -2.4861 0.9766
1.9610 -5.0001 -2.4861 0.9766
2.1403 -4.9261 -2.4861 0.9766
2.3168 -4.8456 -2.4861 0.9766
2.4903 -4.7587 -2.4861 0.9766
2.9904 -4.4614 -2.4861 0.9766
-5.0637 0.2147 -2.4861 0.9777
-5.0681 0.0317 -2.4861 0.9777
-5.0660 -0.1514 -2.4861 0.9777
-5.0572 -0.3343 -2.4861 0.9777
-5.0418 -0.5167 -2.4861 0.9777
-4.9914 -0.8793 -2.4861 0.9777
-4.9149 -1.2373 -2.4861 0.9777
-4.8670 -1.4141 -2.4861 0.9777
-4.8127 -1.5890 -2.4861 0.9777
-4.7522 -1.7617 -2.4861 0.9777
-4.4490 -2.4277 -2.4861 0.9777
-4.1603 -2.8947 -2.4861 0.9777
-4.0530 -3.0431 -2.4861 0.9777
-3.8228 -3.3277 -2.4861 0.9777
-3.7001 -3.4636 -2.4861 0.9777
-3.5726 -3.5950 -2.4861 0.9777
-3.3038 -3.8435 -2.4861 0.9777
-3.0177 -4.0720 -2.4861 0.9777
-2.8686 -4.1783 -2.4861 0.9777
-2.5595 -4.3745 -2.4861 0.9777
-2.3999 -4.4641 -2.4861 0.9777
-2.2371 -4.5478 -2.4861 0.9777
-2.0713 -4.6257 -2.4861 0.9777
-1.9029 -4.6975 -2.4861 0.9777
-1.7320 -4.7632 -2.4861 0.9777
-1.3837 -4.8758 -2.4861 0.9777
-1.2067 -4.9225 -2.4861 0.9777
-1.0281 -4.9629 -2.4861 0.9777
-0.8482 -4.9968 -2.4861 0.9777
-0.4852 -5.0450 -2.4861 0.9777
-0.1198 -5.0669 -2.4861 0.9777
0.0633 -5.0679 -2.4861 0.9777
0.2463 -5.0623 -2.4861 0.9777
0.9727 -4.9741 -2.4861 0.9777
1.3292 -4.8909 -2.4861 0.9777
1.8505 -4.7184 -2.4861 0.9777
2.0197 -4.6485 -2.4861 0.9777
2.1863 -4.5725 -2.4861 0.9777
2.3500 -4.4906 -2.4861 0.9777
2.5106 -4.4028 -2.4861 0.9777
2.6680 -4.3092 -2.4861 0.9777
2.8219 -4.2101 -2.4861 0.9777
3.1185 -3.9953 -2.4861 0.9777
-4.7607 0.5481 -2.4861 0.9786
-4.7774 0.3758 -2.4861 0.9786
-4.7921 0.0300 -2.4861 0.9786
-4.7901 -0.1431 -2.4861 0.9786
-4.7195 -0.8314 -2.4861 0.9786
-4.6472 -1.1700 -2.4861 0.9786
-4.6019 -1.3371 -2.4861 0.9786
-4.5506 -1.5024 -2.4861 0.9786
-4.4303 -1.8270 -2.4861 0.9786
-4.3614 -1.9858 -2.4861 0.9786
-4.2868 -2.1421 -2.4861 0.9786
-4.0300 -2.5932 -2.4861 0.9786
-3.9337 -2.7370 -2.4861 0.9786
-3.8323 -2.8773 -2.4861 0.9786
-3.2530 -3.5190 -2.4861 0.9786
-2.7124 -3.9507 -2.4861 0.9786
-2.1152 -4.3002 -2.4861 0.9786
-1.9585 -4.3737 -2.4861 0.9786
-1.6377 -4.5037 -2.4861 0.9786
-1.4740 -4.5599 -2.4861 0.9786
-0.8020 -4.7246 -2.4861 0.9786
-0.6308 -4.7505 -2.4861 0.9786
-0.1133 -4.7909 -2.4861 0.9786
0.0599 -4.7919 -2.4861 0.9786
0.7493 -4.7333 -2.4861 0.9786
1.0890 -4.6669 -2.4861 0.9786
1.4231 -4.5761 -2.4861 0.9786
1.5874 -4.5217 -2.4861 0.9786
1.7497 -4.4614 -2.4861 0.9786
2.2220 -4.2460 -2.4861 0.9786
2.5227 -4.0745 -2.4861 0.9786
2.6682 -3.9807 -2.4861 0.9786
2.8103 -3.8818 -2.4861 0.9786
2.9486 -3.7778 -2.4861 0.9786
-4.4876 0.6817 -2.4861 0.9795
-4.5093 0.5192 -2.4861 0.9795
-4.5350 0.1923 -2.4861 0.9795
-4.5371 -0.1356 -2.4861 0.9795
-4.5292 -0.2994 -2.4861 0.9795
-4.5155 -0.4628 -2.4861 0.9795
-4.4958 -0.6256 -2.4861 0.9795
-4.4389 -0.9485 -2.4861 0.9795
-4.4018 -1.1082 -2.4861 0.9795
-4.3589 -1.2664 -2.4861 0.9795
-4.3103 -1.4231 -2.4861 0.9795
-4.1963 -1.7305 -2.4861 0.9795
-4.1311 -1.8809 -2.4861 0.9795
-4.0604 -2.0289 -2.4861 0.9795
-3.9034 -2.3167 -2.4861 0.9795
-3.8172 -2.4562 -2.4861 0.9795
-3.7260 -2.5925 -2.4861 0.9795
-3.6299 -2.7254 -2.4861 0.9795
-3.4237 -2.9803 -2.4861 0.9795
-3.1996 -3.2197 -2.4861 0.9795
-2.4323 -3.8325 -2.4861 0.9795
-2.2923 -3.9178 -2.4861 0.9795
-2.1493 -3.9980 -2.4861 0.9795
-2.0035 -4.0731 -2.4861 0.9795
-1.5512 -4.2659 -2.4861 0.9795
-1.3961 -4.3191 -2.4861 0.9795
-1.2392 -4.3667 -2.4861 0.9795
-0.7596 -4.4752 -2.4861 0.9795
-0.4346 -4.5183 -2.4861 0.9795
0.0567 -4.5388 -2.4861 0.9795
0.2206 -4.5338 -2.4861 0.9795
0.3842 -4.5229 -2.4861 0.9795
0.7097 -4.4833 -2.4861 0.9795
0.8712 -4.4548 -2.4861 0.9795
1.0315 -4.4204 -2.4861 0.9795
1.1905 -4.3803 -2.4861 0.9795
1.5036 -4.2829 -2.4861 0.9795
1.8088 -4.1632 -2.4861 0.9795
2.3895 -3.8593 -2.4861 0.9795
2.5273 -3.7705 -2.4861 0.9795
2.7929 -3.5782 -2.4861 0.9795
-4.2572 0.6467 -2.4861 0.9803
-4.3022 0.1824 -2.4861 0.9803
-4.3060 0.0269 -2.4861 0.9803
-4.3041 -0.1286 -2.4861 0.9803
-4.2967 -0.2840 -2.4861 0.9803
-4.2407 -0.7471 -2.4861 0.9803
-4.1757 -1.0513 -2.4861 0.9803
-4.1350 -1.2014 -2.4861 0.9803
-3.9808 -1.6416 -2.4861 0.9803
-3.9190 -1.7843 -2.4861 0.9803
-3.8520 -1.9247 -2.4861 0.9803
-3.7799 -2.0626 -2.4861 0.9803
-3.7030 -2.1978 -2.4861 0.9803
-3.6212 -2.3301 -2.4861 0.9803
-3.1437 -2.9427 -2.4861 0.9803
-3.0353 -3.0544 -2.4861 0.9803
-2.8069 -3.2655 -2.4861 0.9803
-2.4372 -3.5499 -2.4861 0.9803
-2.1746 -3.7166 -2.4861 0.9803
-2.0390 -3.7928 -2.4861 0.9803
-1.7598 -3.9300 -2.4861 0.9803
-1.4715 -4.0468 -2.4861 0.9803
-1.3244 -4.0973 -2.4861 0.9803
-1.0252 -4.1823 -2.4861 0.9803
-0.7206 -4.2454 -2.4861 0.9803
-0.4123 -4.2863 -2.4861 0.9803
-0.2572 -4.2984 -2.4861 0.9803
0.2093 -4.3010 -2.4861 0.9803
0.3645 -4.2906 -2.4861 0.9803
0.5192 -4.2747 -2.4861 0.9803
0.9785 -4.1934 -2.4861 0.9803
1.1294 -4.1553 -2.4861 0.9803
1.2787 -4.1119 -2.4861 0.9803
1.8575 -3.8849 -2.4861 0.9803
2.1331 -3.7406 -2.4861 0.9803
2.3975 -3.5769 -2.4861 0.9803
2.6495 -3.3945 -2.4861 0.9803
