ply
format ascii 1.0
element vertex 1049
property float32 x
property float32 y
property float32 z
property float32 I
end_header
-35.0576 -26.5834 7.7578 0.8364
-26.6993 -23.4371 6.2643 0.8656
-26.6410 -26.9987 6.6880 0.8572
-27.0226 -29.4225 7.0440 0.8502
-26.8945 -33.8592 7.6245 0.8389
-25.1669 -34.1257 7.4766 0.8418
-24.6482 -36.0580 7.7015 0.8374
-22.8264 -36.1038 7.5317 0.8407
-17.2085 -38.4829 7.4331 0.8426
-16.4853 -40.7198 7.7461 0.8366
-14.7794 -40.6326 7.6238 0.8389
-13.1649 -40.6732 7.5381 0.8406
-11.5843 -40.7129 7.4637 0.8420
-10.0327 -40.7519 7.4002 0.8433
-4.1025 -23.9361 4.2821 0.9061
-4.4363 -32.9279 5.8585 0.8738
3.3490 -41.2468 7.2968 0.8453
6.3333 -41.1632 7.3436 0.8444
9.4088 -41.2405 7.4586 0.8421
11.0220 -41.4112 7.5561 0.8403
13.4889 -39.1541 7.3021 0.8452
15.0938 -39.1944 7.4058 0.8432
17.4390 -37.1157 7.2309 0.8466
17.8770 -34.7562 6.8916 0.8532
17.7894 -31.7371 6.4153 0.8626
21.3441 -35.0715 7.2392 0.8464
26.8536 -32.5366 7.4387 0.8425
26.8688 -30.2773 7.1377 0.8484
28.9356 -28.2454 7.1300 0.8485
31.2367 -28.3794 7.4416 0.8425
33.3947 -26.2328 7.4879 0.8416
-38.2472 -31.2211 7.5635 0.8189
-35.8364 -33.8056 7.5472 0.8193
-26.8811 -27.2420 5.8630 0.8565
-27.0794 -31.6915 6.3859 0.8448
-27.2250 -36.9164 7.0270 0.8306
-27.3030 -39.9416 7.4118 0.8222
-4.1181 -24.0274 3.7345 0.9061
-4.4662 -33.1501 5.1243 0.8734
17.6964 -41.4603 6.9059 0.8333
17.9024 -29.4163 5.2753 0.8699
28.6775 -37.3981 7.2197 0.8264
31.0117 -37.5746 7.4635 0.8211
31.3463 -35.3228 7.2347 0.8260
33.3795 -32.5833 7.1459 0.8280
38.8526 -26.2519 7.1833 0.8272
-4.1220 -24.0498 3.1775 0.9063
17.9206 -31.9712 4.7727 0.8626
16.9761 -17.8023 3.2033 0.9055
40.4249 -27.3143 6.3532 0.8214
-27.2868 -39.9180 5.1922 0.8232
17.6881 -34.3889 4.1526 0.8559
16.9761 -17.8023 2.6414 0.9058
-26.7815 -23.5093 3.0167 0.8667
-4.9495 -23.7372 2.0526 0.9072
-4.0703 -23.7486 2.0397 0.9078
16.9761 -17.8023 2.0824 0.9060
-26.4425 -23.2117 2.1818 0.8685
-4.9051 -23.5244 1.4901 0.9082
16.9761 -17.8023 1.5253 0.9061
40.6589 -25.4001 2.9729 0.8252
-26.1894 -22.9895 1.3741 0.8698
-4.9051 -23.5244 0.9475 0.9083
-4.0356 -23.5462 0.9420 0.9088
-4.1300 -41.9654 1.6627 0.8447
17.4275 -24.4965 1.1854 0.8866
16.9761 -17.8023 0.9699 0.9062
-26.1894 -22.9895 0.5886 0.8699
-26.7128 -42.2508 0.8444 0.8187
-4.9051 -23.5244 0.4059 0.9083
-4.1300 -41.9654 0.7123 0.8448
18.1510 -42.5254 0.7810 0.8311
17.4236 -24.4911 0.5077 0.8867
18.4897 -24.1123 0.5133 0.8855
16.9761 -17.8023 0.4156 0.9063
-23.0918 -17.5099 -0.1632 0.8905
-21.4530 -17.5121 -0.1559 0.8951
-18.5521 -17.5008 -0.1436 0.9030
-14.9534 -17.5002 -0.1296 0.9120
-12.9001 -17.4922 -0.1224 0.9167
-11.9546 -17.4885 -0.1193 0.9188
-11.0548 -17.4850 -0.1165 0.9206
-9.3735 -17.4830 -0.1117 0.9237
-8.5809 -17.4806 -0.1096 0.9251
-7.0752 -17.4761 -0.1062 0.9274
-5.6552 -17.4718 -0.1034 0.9292
-4.9699 -17.4665 -0.1022 0.9299
-4.2996 -17.4648 -0.1013 0.9306
-2.9928 -17.4614 -0.0997 0.9316
0.1635 -17.4489 -0.0982 0.9326
0.7891 -17.4477 -0.0983 0.9325
1.4165 -17.4463 -0.0985 0.9324
2.6839 -17.4438 -0.0994 0.9318
3.3271 -17.4424 -0.1000 0.9314
5.3171 -17.4383 -0.1026 0.9297
6.0090 -17.4422 -0.1039 0.9289
7.4427 -17.4371 -0.1067 0.9270
8.1917 -17.4345 -0.1085 0.9258
8.9661 -17.4318 -0.1104 0.9246
9.7693 -17.4289 -0.1125 0.9232
11.4820 -17.4288 -0.1175 0.9199
13.3598 -17.4223 -0.1236 0.9159
15.4547 -17.4151 -0.1311 0.9111
39.6863 -26.8152 -0.2697 0.8256
39.7442 -24.8288 -0.2638 0.8291
39.7997 -22.9239 -0.2586 0.8322
-23.0921 -17.5102 -0.8160 0.8905
-21.4539 -17.5128 -0.7798 0.8951
-19.9436 -17.5069 -0.7472 0.8993
-17.2646 -17.4964 -0.6921 0.9063
-16.0760 -17.5038 -0.6692 0.9093
-14.9527 -17.4995 -0.6481 0.9120
-13.8967 -17.4953 -0.6291 0.9145
-12.8995 -17.4915 -0.6120 0.9167
-11.9542 -17.4878 -0.5965 0.9187
-7.8155 -17.4776 -0.5391 0.9262
-6.3556 -17.4732 -0.5235 0.9283
-4.2997 -17.4648 -0.5065 0.9306
-1.7181 -17.4581 -0.4940 0.9322
-0.4618 -17.4548 -0.4917 0.9325
0.1635 -17.4493 -0.4914 0.9326
0.7891 -17.4480 -0.4918 0.9325
2.0476 -17.4454 -0.4946 0.9321
3.3272 -17.4428 -0.5000 0.9314
3.9792 -17.4414 -0.5037 0.9309
5.3172 -17.4387 -0.5134 0.9296
6.0091 -17.4425 -0.5195 0.9288
6.7162 -17.4400 -0.5262 0.9279
7.4428 -17.4375 -0.5339 0.9269
8.1918 -17.4348 -0.5424 0.9258
9.7695 -17.4293 -0.5626 0.9232
11.4822 -17.4290 -0.5877 0.9199
14.3767 -17.4191 -0.6360 0.9136
16.9761 -17.8023 -0.6927 0.9063
39.6870 -26.8157 -1.3487 0.8256
39.7449 -24.8292 -1.3196 0.8290
43.1788 -22.8509 -1.3756 0.8224
-17.2652 -17.4971 -1.2466 0.9062
-13.8961 -17.4946 -1.1331 0.9144
-12.8990 -17.4908 -1.1022 0.9166
-8.5802 -17.4792 -0.9875 0.9250
-7.8152 -17.4769 -0.9709 0.9262
-7.0746 -17.4747 -0.9561 0.9273
-4.9699 -17.4666 -0.9210 0.9298
-2.9928 -17.4615 -0.8985 0.9315
-2.3523 -17.4598 -0.8935 0.9319
-1.7181 -17.4582 -0.8897 0.9322
0.7891 -17.4484 -0.8858 0.9324
1.4166 -17.4471 -0.8877 0.9323
2.0477 -17.4458 -0.8908 0.9321
2.6840 -17.4445 -0.8951 0.9318
3.3273 -17.4432 -0.9006 0.9313
4.6420 -17.4404 -0.9153 0.9303
5.3173 -17.4391 -0.9246 0.9296
6.0092 -17.4429 -0.9356 0.9288
6.7163 -17.4404 -0.9478 0.9279
7.4430 -17.4378 -0.9615 0.9269
8.1920 -17.4352 -0.9769 0.9257
9.7697 -17.4296 -1.0133 0.9231
10.6057 -17.4267 -1.0346 0.9215
11.4823 -17.4292 -1.0585 0.9198
12.3975 -17.4261 -1.0846 0.9179
13.3601 -17.4228 -1.1135 0.9158
14.3769 -17.4193 -1.1454 0.9135
15.4551 -17.4156 -1.1809 0.9110
23.6379 -23.0740 -1.6752 0.8761
27.3866 -23.1462 -1.8185 0.8662
37.7055 -27.4938 -2.3666 0.8295
37.3499 -23.3329 -2.2334 0.8383
39.8010 -22.9246 -2.3294 0.8320
40.8936 -21.6415 -2.3464 0.8308
41.6455 -20.1645 -2.3466 0.8308
42.3050 -18.6442 -2.3446 0.8310
46.8692 -14.8913 -2.4940 0.8212
47.8150 -11.4980 -2.4940 0.8212
48.1960 -9.7781 -2.4940 0.8212
48.5153 -8.0457 -2.4940 0.8212
48.9668 -4.5522 -2.4940 0.8212
49.1670 -1.0353 -2.4940 0.8212
49.1726 0.7264 -2.4940 0.8212
49.1150 2.4870 -2.4940 0.8212
-24.9017 -17.5140 -2.2322 0.8851
-23.0927 -17.5106 -2.1250 0.8903
-19.9452 -17.5083 -1.9459 0.8990
-18.5542 -17.5028 -1.8702 0.9028
-16.0746 -17.5022 -1.7424 0.9091
-13.8955 -17.4939 -1.6381 0.9143
-12.8985 -17.4901 -1.5934 0.9165
-9.3723 -17.4808 -1.4543 0.9235
-8.5798 -17.4784 -1.4276 0.9249
-7.8149 -17.4762 -1.4037 0.9261
-7.0743 -17.4740 -1.3822 0.9272
-6.3551 -17.4718 -1.3632 0.9281
-4.2997 -17.4649 -1.3188 0.9304
-2.9928 -17.4615 -1.2990 0.9314
-2.3523 -17.4598 -1.2918 0.9318
-1.7181 -17.4582 -1.2863 0.9321
0.1635 -17.4501 -1.2795 0.9324
1.4166 -17.4475 -1.2835 0.9322
2.6841 -17.4449 -1.2941 0.9317
3.3273 -17.4435 -1.3021 0.9313
3.9794 -17.4422 -1.3118 0.9308
5.3174 -17.4395 -1.3368 0.9295
6.0093 -17.4432 -1.3527 0.9287
6.7164 -17.4407 -1.3703 0.9278
7.4431 -17.4382 -1.3902 0.9268
8.1922 -17.4355 -1.4125 0.9256
8.9666 -17.4328 -1.4374 0.9244
9.7699 -17.4300 -1.4651 0.9230
10.6059 -17.4270 -1.4958 0.9214
11.4824 -17.4294 -1.5304 0.9197
12.3976 -17.4263 -1.5681 0.9178
13.3603 -17.4230 -1.6099 0.9157
14.3770 -17.4195 -1.6561 0.9134
16.9761 -17.8023 -1.8037 0.9061
23.5548 -22.9930 -2.4135 0.8763
25.1759 -22.8730 -2.4940 0.8725
25.9789 -21.9566 -2.4940 0.8725
26.7486 -21.0121 -2.4940 0.8725
28.1841 -19.0434 -2.4940 0.8725
28.8481 -18.0218 -2.4940 0.8725
30.0639 -15.9105 -2.4940 0.8725
31.1259 -13.7175 -2.4940 0.8725
32.4177 -10.2998 -2.4940 0.8725
32.7658 -9.1321 -2.4940 0.8725
33.0719 -7.9528 -2.4940 0.8725
33.5882 -5.5702 -2.4964 0.8724
33.7663 -4.3637 -2.4964 0.8724
34.0411 -0.7168 -2.4965 0.8724
34.0070 1.7220 -2.4967 0.8723
-21.2488 -14.9448 -2.4940 0.9009
-18.8947 -15.4238 -2.3416 0.9066
-18.3302 -16.0906 -2.3416 0.9066
-17.7422 -16.7368 -2.3416 0.9066
-16.0739 -17.5015 -2.2814 0.9089
-14.9508 -17.4972 -2.2095 0.9117
-13.8949 -17.4932 -2.1448 0.9141
-11.9528 -17.4857 -2.0334 0.9184
-11.0531 -17.4823 -1.9857 0.9202
-8.5794 -17.4777 -1.8692 0.9247
-7.8146 -17.4754 -1.8378 0.9260
-3.6413 -17.4632 -1.7126 0.9308
-2.3523 -17.4599 -1.6914 0.9317
-1.0885 -17.4566 -1.6792 0.9321
-0.4618 -17.4550 -1.6763 0.9322
0.7891 -17.4491 -1.6769 0.9322
1.4167 -17.4478 -1.6806 0.9321
2.0478 -17.4465 -1.6865 0.9318
3.3274 -17.4439 -1.7049 0.9311
3.9795 -17.4426 -1.7176 0.9306
6.0094 -17.4435 -1.7713 0.9285
6.7165 -17.4411 -1.7943 0.9276
8.1923 -17.4359 -1.8495 0.9255
8.9668 -17.4331 -1.8821 0.9242
9.7701 -17.4304 -1.9184 0.9228
10.6061 -17.4274 -1.9586 0.9213
11.4826 -17.4296 -2.0038 0.9195
12.3978 -17.4265 -2.0532 0.9176
13.3605 -17.4232 -2.1079 0.9156
17.4872 -17.0700 -2.3461 0.9065
18.0725 -16.4194 -2.3442 0.9065
18.6321 -15.7473 -2.3421 0.9066
20.4288 -16.0476 -2.4940 0.9009
20.9904 -15.3057 -2.4940 0.9009
22.5110 -12.9659 -2.4940 0.9009
23.3814 -11.3212 -2.4940 0.9009
25.0243 -6.9745 -2.4940 0.9009
25.2580 -6.0738 -2.4940 0.9009
25.4594 -5.1653 -2.4940 0.9009
25.7638 -3.3295 -2.4940 0.9009
25.9752 0.3837 -2.4940 0.9009
25.9520 1.3140 -2.4947 0.9008
-17.1737 -12.0787 -2.4940 0.9189
-15.7790 -13.8511 -2.4940 0.9189
-15.2728 -14.4074 -2.4940 0.9189
-14.7470 -14.9451 -2.4940 0.9189
-12.9997 -15.2137 -2.3770 0.9226
-12.2609 -15.4361 -2.3416 0.9237
-11.1245 -16.2741 -2.3416 0.9237
-9.3148 -17.3735 -2.3416 0.9237
-8.5791 -17.4770 -2.3127 0.9246
-7.8143 -17.4747 -2.2738 0.9258
-7.0737 -17.4726 -2.2391 0.9269
-6.3546 -17.4704 -2.2083 0.9279
-2.9928 -17.4616 -2.1044 0.9311
-2.3523 -17.4599 -2.0927 0.9315
-1.7181 -17.4583 -2.0838 0.9318
-1.0885 -17.4566 -2.0776 0.9320
-0.4618 -17.4550 -2.0741 0.9321
0.1635 -17.4508 -2.0730 0.9321
0.7891 -17.4495 -2.0749 0.9321
1.4167 -17.4482 -2.0794 0.9319
2.6842 -17.4456 -2.0967 0.9314
3.9796 -17.4429 -2.1252 0.9305
4.6423 -17.4416 -2.1440 0.9299
5.3177 -17.4402 -2.1658 0.9292
6.7167 -17.4414 -2.2201 0.9275
7.4434 -17.4389 -2.2523 0.9265
8.1925 -17.4362 -2.2884 0.9253
9.6386 -17.1959 -2.3416 0.9237
10.8449 -16.4618 -2.3416 0.9237
11.4275 -16.0628 -2.3416 0.9237
11.9955 -15.6432 -2.3416 0.9237
14.4870 -15.1921 -2.4936 0.9189
15.0245 -14.6662 -2.4940 0.9189
16.9649 -12.3704 -2.4940 0.9189
17.3970 -11.7548 -2.4940 0.9189
17.8069 -11.1242 -2.4940 0.9189
18.8973 -9.1500 -2.4940 0.9189
19.2129 -8.4673 -2.4940 0.9189
19.5038 -7.7738 -2.4940 0.9189
19.7697 -7.0703 -2.4940 0.9189
20.0103 -6.3577 -2.4940 0.9189
20.2251 -5.6370 -2.4940 0.9189
20.9691 1.0617 -2.4940 0.9189
-14.0257 -10.6354 -2.4940 0.9314
-13.6358 -11.1309 -2.4940 0.9314
-13.2284 -11.6122 -2.4940 0.9314
-12.8040 -12.0785 -2.4940 0.9314
-12.3633 -12.5293 -2.4940 0.9314
-11.9066 -12.9640 -2.4940 0.9314
-10.9480 -13.7831 -2.4940 0.9314
-8.1502 -15.2013 -2.4439 0.9327
-7.4658 -15.2094 -2.4006 0.9338
-5.0893 -15.7234 -2.3416 0.9354
-3.9507 -16.0473 -2.3416 0.9354
-2.7918 -16.2890 -2.3416 0.9354
-2.2066 -16.3785 -2.3416 0.9354
-0.4371 -16.5207 -2.3416 0.9354
0.1548 -16.5258 -2.3416 0.9354
0.7466 -16.5096 -2.3416 0.9354
1.3374 -16.4723 -2.3416 0.9354
1.9265 -16.4138 -2.3416 0.9354
2.5132 -16.3343 -2.3416 0.9354
3.6760 -16.1125 -2.3416 0.9354
4.2507 -15.9705 -2.3416 0.9354
5.9392 -15.4224 -2.3416 0.9354
6.4999 -15.2283 -2.3460 0.9353
7.1480 -15.2129 -2.3816 0.9343
8.5182 -15.1968 -2.4684 0.9320
9.1510 -15.0364 -2.4940 0.9314
9.6836 -14.6990 -2.4940 0.9314
10.7110 -13.9681 -2.4940 0.9314
12.5958 -12.2954 -2.4940 0.9314
13.0281 -11.8364 -2.4940 0.9314
13.8420 -10.8734 -2.4940 0.9314
14.5849 -9.8547 -2.4940 0.9314
15.5578 -8.2334 -2.4940 0.9314
16.1072 -7.0986 -2.4940 0.9314
16.3511 -6.5172 -2.4940 0.9314
16.9558 -4.7257 -2.4940 0.9314
17.3649 -2.8798 -2.4940 0.9314
17.4569 -2.2560 -2.4940 0.9314
17.5982 -0.3706 -2.4940 0.9314
-12.3831 -8.7095 -2.4940 0.9405
-11.0125 -10.3885 -2.4940 0.9405
-10.6334 -10.7762 -2.4940 0.9405
-10.2406 -11.1501 -2.4940 0.9405
-9.8347 -11.5098 -2.4940 0.9405
-9.4162 -11.8546 -2.4940 0.9405
-8.9856 -12.1843 -2.4940 0.9405
-8.5434 -12.4982 -2.4940 0.9405
-8.0903 -12.7962 -2.4940 0.9405
-6.1801 -13.8204 -2.4940 0.9405
-4.6621 -14.4035 -2.4940 0.9405
-4.1432 -14.5613 -2.4940 0.9405
-3.6191 -14.7003 -2.4940 0.9405
-3.0902 -14.8205 -2.4940 0.9405
-1.4827 -15.0664 -2.4940 0.9405
-0.4004 -15.1339 -2.4940 0.9405
0.1419 -15.1386 -2.4940 0.9405
1.2252 -15.0896 -2.4940 0.9405
2.3022 -14.9632 -2.4940 0.9405
3.8939 -14.6299 -2.4940 0.9405
4.9312 -14.3136 -2.4940 0.9405
5.4406 -14.1279 -2.4940 0.9405
5.9431 -13.9239 -2.4940 0.9405
6.4380 -13.7022 -2.4940 0.9405
7.4023 -13.2061 -2.4940 0.9405
7.8706 -12.9325 -2.4940 0.9405
11.9053 -9.3521 -2.4940 0.9405
12.2326 -8.9197 -2.4940 0.9405
12.8397 -8.0211 -2.4940 0.9405
13.3810 -7.0814 -2.4940 0.9405
13.8535 -6.1054 -2.4940 0.9405
14.2551 -5.0981 -2.4940 0.9405
14.7196 -3.5396 -2.4940 0.9405
14.9352 -2.4769 -2.4940 0.9405
15.0742 -1.4014 -2.4940 0.9405
15.1376 0.2236 -2.4940 0.9405
-10.8533 -7.6334 -2.4940 0.9474
-10.5729 -8.0172 -2.4940 0.9474
-10.2790 -8.3908 -2.4940 0.9474
-9.9719 -8.7535 -2.4940 0.9474
-9.6520 -9.1050 -2.4940 0.9474
-9.3197 -9.4449 -2.4940 0.9474
-8.9755 -9.7726 -2.4940 0.9474
-7.0908 -11.2153 -2.4940 0.9474
-6.6846 -11.4621 -2.4940 0.9474
-6.2698 -11.6942 -2.4940 0.9474
-5.8469 -11.9112 -2.4940 0.9474
-5.4166 -12.1130 -2.4940 0.9474
-4.0861 -12.6240 -2.4940 0.9474
-3.6313 -12.7623 -2.4940 0.9474
-3.1719 -12.8842 -2.4940 0.9474
-0.8258 -13.2432 -2.4940 0.9474
-0.3509 -13.2642 -2.4940 0.9474
0.5994 -13.2554 -2.4940 0.9474
1.0738 -13.2254 -2.4940 0.9474
1.5468 -13.1784 -2.4940 0.9474
2.4861 -13.0339 -2.4940 0.9474
2.9514 -12.9365 -2.4940 0.9474
3.4128 -12.8225 -2.4940 0.9474
4.3219 -12.5453 -2.4940 0.9474
4.7685 -12.3825 -2.4940 0.9474
5.2089 -12.2037 -2.4940 0.9474
5.6426 -12.0093 -2.4940 0.9474
6.0691 -11.7995 -2.4940 0.9474
6.8982 -11.3348 -2.4940 0.9474
7.2997 -11.0805 -2.4940 0.9474
7.6919 -10.8119 -2.4940 0.9474
8.0742 -10.5295 -2.4940 0.9474
8.8072 -9.9245 -2.4940 0.9474
9.1570 -9.6027 -2.4940 0.9474
9.8209 -8.9226 -2.4940 0.9474
10.1342 -8.5651 -2.4940 0.9474
10.4344 -8.1967 -2.4940 0.9474
10.7213 -7.8177 -2.4940 0.9474
11.7278 -6.2066 -2.4940 0.9474
12.1420 -5.3511 -2.4940 0.9474
12.3259 -4.9128 -2.4940 0.9474
12.4939 -4.4682 -2.4940 0.9474
12.6459 -4.0179 -2.4940 0.9474
12.7817 -3.5624 -2.4940 0.9474
13.2474 -0.7543 -2.4940 0.9474
13.2674 0.1959 -2.4940 0.9474
-9.6508 -6.7877 -2.4940 0.9529
-8.8671 -7.7837 -2.4940 0.9529
-8.2872 -8.3985 -2.4940 0.9529
-7.9811 -8.6899 -2.4940 0.9529
-7.3385 -9.2389 -2.4940 0.9529
-7.0029 -9.4958 -2.4940 0.9529
-6.6583 -9.7405 -2.4940 0.9529
-5.5751 -10.3985 -2.4940 0.9529
-4.8165 -10.7710 -2.4940 0.9529
-4.0331 -11.0881 -2.4940 0.9529
-3.6334 -11.2254 -2.4940 0.9529
-1.9932 -11.6292 -2.4940 0.9529
-1.1556 -11.7421 -2.4940 0.9529
-0.7343 -11.7759 -2.4940 0.9529
-0.3121 -11.7947 -2.4940 0.9529
0.5330 -11.7868 -2.4940 0.9529
3.0347 -11.4019 -2.4940 0.9529
3.4411 -11.2859 -2.4940 0.9529
4.2402 -11.0106 -2.4940 0.9529
6.1340 -10.0790 -2.4940 0.9529
6.8397 -9.6141 -2.4940 0.9529
7.1796 -9.3629 -2.4940 0.9529
7.5104 -9.0998 -2.4940 0.9529
8.1425 -8.5388 -2.4940 0.9529
8.4431 -8.2417 -2.4940 0.9529
9.0114 -7.6162 -2.4940 0.9529
9.2784 -7.2886 -2.4940 0.9529
10.4285 -5.5190 -2.4940 0.9529
10.6194 -5.1419 -2.4940 0.9529
10.9603 -4.3685 -2.4940 0.9529
11.1097 -3.9732 -2.4940 0.9529
11.2449 -3.5728 -2.4940 0.9529
11.4718 -2.7586 -2.4940 0.9529
11.5632 -2.3460 -2.4940 0.9529
11.6398 -1.9304 -2.4940 0.9529
4.6035 -0.4279 -0.9773 0.9813
4.6095 -0.0971 -0.9746 0.9813
-8.6800 -6.1048 -2.4940 0.9573
-8.4557 -6.4118 -2.4940 0.9573
-8.2207 -6.7106 -2.4940 0.9573
-7.9750 -7.0007 -2.4940 0.9573
-6.8936 -8.0678 -2.4940 0.9573
-6.6003 -8.3095 -2.4940 0.9573
-6.2984 -8.5406 -2.4940 0.9573
-5.9885 -8.7607 -2.4940 0.9573
-4.3319 -9.6874 -2.4940 0.9573
-3.9822 -9.8363 -2.4940 0.9573
-2.9042 -10.2067 -2.4940 0.9573
-2.5368 -10.3042 -2.4940 0.9573
-2.1661 -10.3884 -2.4940 0.9573
-1.7926 -10.4594 -2.4940 0.9573
-1.0393 -10.5608 -2.4940 0.9573
-0.6604 -10.5913 -2.4940 0.9573
1.6137 -10.4885 -2.4940 0.9573
3.0949 -10.1505 -2.4940 0.9573
5.1887 -9.2569 -2.4940 0.9573
5.5169 -9.0651 -2.4940 0.9573
6.4574 -8.4210 -2.4940 0.9573
7.0436 -7.9372 -2.4940 0.9573
7.5937 -7.4126 -2.4940 0.9573
7.8543 -7.1359 -2.4940 0.9573
8.5744 -6.2522 -2.4940 0.9573
8.7928 -5.9411 -2.4940 0.9573
9.0000 -5.6224 -2.4940 0.9573
9.1956 -5.2965 -2.4940 0.9573
9.3794 -4.9638 -2.4940 0.9573
9.5511 -4.6247 -2.4940 0.9573
9.7106 -4.2796 -2.4940 0.9573
9.8577 -3.9290 -2.4940 0.9573
9.9921 -3.5735 -2.4940 0.9573
10.1136 -3.2133 -2.4940 0.9573
10.2222 -2.8491 -2.4940 0.9573
10.3177 -2.4811 -2.4940 0.9573
4.2362 -0.3938 -0.9999 0.9827
4.2400 -0.2414 -0.9981 0.9827
4.2418 -0.0893 -0.9971 0.9827
4.2444 0.0627 -0.9976 0.9827
-7.8789 -5.5415 -2.4940 0.9610
-7.6754 -5.8201 -2.4940 0.9610
-7.2391 -6.3546 -2.4940 0.9610
-6.5157 -7.0944 -2.4940 0.9610
-6.2575 -7.3232 -2.4940 0.9610
-5.9911 -7.5427 -2.4940 0.9610
-5.4358 -7.9521 -2.4940 0.9610
-5.1476 -8.1417 -2.4940 0.9610
-4.8527 -8.3209 -2.4940 0.9610
-4.2446 -8.6469 -2.4940 0.9610
-3.6147 -8.9286 -2.4940 0.9610
-3.2926 -9.0523 -2.4940 0.9610
-2.6362 -9.2648 -2.4940 0.9610
-1.9662 -9.4297 -2.4940 0.9610
-1.6272 -9.4941 -2.4940 0.9610
0.4352 -9.6227 -2.4940 0.9610
0.7795 -9.6010 -2.4940 0.9610
1.1229 -9.5668 -2.4940 0.9610
1.8048 -9.4619 -2.4940 0.9610
2.1426 -9.3912 -2.4940 0.9610
2.4775 -9.3085 -2.4940 0.9610
3.1375 -9.1072 -2.4940 0.9610
4.4059 -8.5659 -2.4940 0.9610
4.7098 -8.4026 -2.4940 0.9610
5.0077 -8.2285 -2.4940 0.9610
5.2992 -8.0439 -2.4940 0.9610
6.1314 -7.4290 -2.4940 0.9610
6.6475 -6.9711 -2.4940 0.9610
6.8929 -6.7286 -2.4940 0.9610
7.1295 -6.4773 -2.4940 0.9610
7.3569 -6.2178 -2.4940 0.9610
7.5749 -5.9503 -2.4940 0.9610
8.1694 -5.1036 -2.4940 0.9610
8.3469 -4.8077 -2.4940 0.9610
8.6697 -4.1979 -2.4940 0.9610
9.0699 -3.2437 -2.4940 0.9610
9.1803 -2.9168 -2.4940 0.9610
9.2789 -2.5861 -2.4940 0.9610
9.3655 -2.2521 -2.4940 0.9610
9.4402 -1.9153 -2.4940 0.9610
9.5027 -1.5760 -2.4940 0.9610
4.0140 -0.5188 -1.0479 0.9834
3.9873 -0.3707 -1.0368 0.9836
3.9903 -0.2272 -1.0348 0.9836
3.9921 -0.0841 -1.0339 0.9836
3.9953 0.0590 -1.0346 0.9836
3.9952 0.2023 -1.0358 0.9836
-7.2061 -5.0683 -2.4940 0.9640
-7.0199 -5.3231 -2.4940 0.9640
-6.6209 -5.8119 -2.4940 0.9640
-6.1879 -6.2710 -2.4940 0.9640
-5.9593 -6.4886 -2.4940 0.9640
-5.4795 -6.8986 -2.4940 0.9640
-4.9717 -7.2731 -2.4940 0.9640
-4.7080 -7.4465 -2.4940 0.9640
-4.4383 -7.6103 -2.4940 0.9640
-4.1628 -7.7644 -2.4940 0.9640
-3.8821 -7.9085 -2.4940 0.9640
-3.5964 -8.0425 -2.4940 0.9640
-3.3060 -8.1661 -2.4940 0.9640
-3.0114 -8.2793 -2.4940 0.9640
-2.7130 -8.3818 -2.4940 0.9640
-1.1763 -8.7311 -2.4940 0.9640
0.0825 -8.8096 -2.4940 0.9640
0.3980 -8.8009 -2.4940 0.9640
0.7130 -8.7811 -2.4940 0.9640
1.0270 -8.7499 -2.4940 0.9640
1.6507 -8.6539 -2.4940 0.9640
2.5694 -8.4269 -2.4940 0.9640
2.8696 -8.3295 -2.4940 0.9640
3.1660 -8.2214 -2.4940 0.9640
3.7465 -7.9737 -2.4940 0.9640
4.5801 -7.5258 -2.4940 0.9640
5.3609 -6.9911 -2.4940 0.9640
5.6078 -6.7946 -2.4940 0.9640
6.0799 -6.3758 -2.4940 0.9640
6.3043 -6.1539 -2.4940 0.9640
6.5206 -5.9242 -2.4940 0.9640
6.9280 -5.4422 -2.4940 0.9640
7.4718 -4.6677 -2.4940 0.9640
7.7867 -4.1209 -2.4940 0.9640
8.1838 -3.2619 -2.4940 0.9640
8.2954 -2.9667 -2.4940 0.9640
3.8739 -0.6425 -1.1117 0.9838
3.8024 -0.3535 -1.0811 0.9843
3.8064 -0.2167 -1.0793 0.9843
-6.6324 -4.6648 -2.4940 0.9666
-6.4611 -4.8993 -2.4940 0.9666
-6.2815 -5.1276 -2.4940 0.9666
-6.0938 -5.3493 -2.4940 0.9666
-5.8983 -5.5641 -2.4940 0.9666
-5.6952 -5.7718 -2.4940 0.9666
-5.2675 -6.1647 -2.4940 0.9666
-5.0433 -6.3494 -2.4940 0.9666
-4.8127 -6.5259 -2.4940 0.9666
-3.5731 -7.2789 -2.4940 0.9666
-3.0428 -7.5160 -2.4940 0.9666
-2.7717 -7.6202 -2.4940 0.9666
-2.2191 -7.7991 -2.4940 0.9666
-1.9384 -7.8735 -2.4940 0.9666
-1.3698 -7.9921 -2.4940 0.9666
0.0760 -8.1083 -2.4940 0.9666
0.9452 -8.0533 -2.4940 0.9666
1.5193 -7.9650 -2.4940 0.9666
1.8036 -7.9055 -2.4940 0.9666
3.7088 -7.2107 -2.4940 0.9666
3.9647 -7.0733 -2.4940 0.9666
4.2155 -6.9267 -2.4940 0.9666
4.4609 -6.7713 -2.4940 0.9666
4.7005 -6.6072 -2.4940 0.9666
5.1614 -6.2537 -2.4940 0.9666
5.3821 -6.0649 -2.4940 0.9666
5.5958 -5.8682 -2.4940 0.9666
5.8024 -5.6640 -2.4940 0.9666
6.0015 -5.4526 -2.4940 0.9666
6.5518 -4.7774 -2.4940 0.9666
6.7187 -4.5397 -2.4940 0.9666
6.8769 -4.2962 -2.4940 0.9666
7.4200 -3.2701 -2.4940 0.9666
7.6350 -2.7305 -2.4940 0.9666
7.8109 -2.1770 -2.4940 0.9666
7.8838 -1.8959 -2.4940 0.9666
3.6847 -0.6111 -1.1488 0.9845
3.6352 -0.4698 -1.1274 0.9848
3.6476 -0.2077 -1.1237 0.9848
3.6501 -0.0769 -1.1229 0.9848
3.6498 0.0539 -1.1227 0.9848
-6.1370 -4.3163 -2.4940 0.9689
-5.8123 -4.7446 -2.4940 0.9689
-5.6387 -4.9497 -2.4940 0.9689
-5.4577 -5.1485 -2.4940 0.9689
-5.2699 -5.3407 -2.4940 0.9689
-5.0752 -5.5260 -2.4940 0.9689
-4.8740 -5.7042 -2.4940 0.9689
-4.4532 -6.0385 -2.4940 0.9689
-4.0095 -6.3418 -2.4940 0.9689
-3.3061 -6.7353 -2.4940 0.9689
-2.5647 -7.0511 -2.4940 0.9689
-1.7936 -7.2854 -2.4940 0.9689
-1.5315 -7.3450 -2.4940 0.9689
-1.0018 -7.4358 -2.4940 0.9689
-0.7348 -7.4669 -2.4940 0.9689
-0.4669 -7.4885 -2.4940 0.9689
0.3390 -7.4953 -2.4940 0.9689
0.6072 -7.4784 -2.4940 0.9689
0.8747 -7.4518 -2.4940 0.9689
1.4058 -7.3701 -2.4940 0.9689
1.9298 -7.2506 -2.4940 0.9689
2.1882 -7.1768 -2.4940 0.9689
2.4439 -7.0938 -2.4940 0.9689
2.6964 -7.0017 -2.4940 0.9689
2.9454 -6.9007 -2.4940 0.9689
3.1907 -6.7908 -2.4940 0.9689
3.4318 -6.6721 -2.4940 0.9689
3.6686 -6.5449 -2.4940 0.9689
3.9006 -6.4094 -2.4940 0.9689
4.3494 -6.1137 -2.4940 0.9689
5.1779 -5.4299 -2.4940 0.9689
5.3692 -5.2410 -2.4940 0.9689
5.5533 -5.0454 -2.4940 0.9689
5.7304 -4.8432 -2.4940 0.9689
5.9002 -4.6349 -2.4940 0.9689
6.0624 -4.4206 -2.4940 0.9689
6.2169 -4.2006 -2.4940 0.9689
6.3633 -3.9753 -2.4940 0.9689
6.5016 -3.7448 -2.4940 0.9689
6.6316 -3.5096 -2.4940 0.9689
6.7530 -3.2698 -2.4940 0.9689
6.8658 -3.0259 -2.4940 0.9689
6.9697 -2.7780 -2.4940 0.9689
7.0648 -2.5266 -2.4940 0.9689
7.1507 -2.2720 -2.4940 0.9689
7.2950 -1.7542 -2.4940 0.9689
3.5216 -0.5840 -1.1866 0.9851
3.5096 -0.4536 -1.1763 0.9852
3.5048 -0.0738 -1.1653 0.9853
3.5041 0.0518 -1.1649 0.9853
3.5149 0.1780 -1.1699 0.9853
-5.7046 -4.0122 -2.4940 0.9708
-5.2413 -4.6010 -2.4940 0.9708
-4.8985 -4.9643 -2.4940 0.9708
-4.7175 -5.1366 -2.4940 0.9708
-4.3378 -5.4611 -2.4940 0.9708
-3.7270 -5.8949 -2.4940 0.9708
-3.5135 -6.0246 -2.4940 0.9708
-3.0732 -6.2606 -2.4940 0.9708
-2.6171 -6.4646 -2.4940 0.9708
-2.3839 -6.5541 -2.4940 0.9708
-1.9086 -6.7080 -2.4940 0.9708
-1.4236 -6.8274 -2.4940 0.9708
-0.9312 -6.9118 -2.4940 0.9708
-0.6831 -6.9407 -2.4940 0.9708
-0.4340 -6.9607 -2.4940 0.9708
-0.1844 -6.9718 -2.4940 0.9708
0.8130 -6.9267 -2.4940 0.9708
1.0606 -6.8931 -2.4940 0.9708
1.5513 -6.7995 -2.4940 0.9708
1.7938 -6.7396 -2.4940 0.9708
2.5063 -6.5083 -2.4940 0.9708
2.7379 -6.4144 -2.4940 0.9708
3.1900 -6.2019 -2.4940 0.9708
3.6257 -5.9577 -2.4940 0.9708
4.0429 -5.6829 -2.4940 0.9708
4.4394 -5.3788 -2.4940 0.9708
4.9907 -4.8717 -2.4940 0.9708
5.1619 -4.6898 -2.4940 0.9708
5.6352 -4.1090 -2.4940 0.9708
5.7788 -3.9046 -2.4940 0.9708
5.9149 -3.6951 -2.4940 0.9708
6.3819 -2.8126 -2.4940 0.9708
6.4786 -2.5822 -2.4940 0.9708
3.4071 -0.6912 -1.2432 0.9853
3.3913 -0.5624 -1.2293 0.9855
3.4042 -0.1938 -1.2193 0.9856
3.4047 0.0503 -1.2177 0.9856
3.4066 0.1725 -1.2198 0.9856
-5.1858 -3.9323 -2.4940 0.9725
-4.8910 -4.2935 -2.4940 0.9725
-4.7341 -4.4659 -2.4940 0.9725
-4.4023 -4.7933 -2.4940 0.9725
-3.4779 -5.5009 -2.4940 0.9725
-3.0752 -5.7358 -2.4940 0.9725
-2.8678 -5.8422 -2.4940 0.9725
-2.2246 -6.1161 -2.4940 0.9725
-1.7811 -6.2596 -2.4940 0.9725
-1.5558 -6.3195 -2.4940 0.9725
-1.0994 -6.4146 -2.4940 0.9725
-0.6374 -6.4769 -2.4940 0.9725
-0.4050 -6.4955 -2.4940 0.9725
-0.1721 -6.5059 -2.4940 0.9725
0.0610 -6.5079 -2.4940 0.9725
0.2941 -6.5015 -2.4940 0.9725
0.7587 -6.4638 -2.4940 0.9725
0.9897 -6.4324 -2.4940 0.9725
1.2195 -6.3929 -2.4940 0.9725
1.4476 -6.3451 -2.4940 0.9725
2.3388 -6.0733 -2.4940 0.9725
2.5549 -5.9857 -2.4940 0.9725
2.7676 -5.8903 -2.4940 0.9725
3.1822 -5.6771 -2.4940 0.9725
3.5804 -5.4348 -2.4940 0.9725
4.1427 -5.0194 -2.4940 0.9725
4.3198 -4.8678 -2.4940 0.9725
4.4913 -4.7099 -2.4940 0.9725
4.8170 -4.3764 -2.4940 0.9725
5.2586 -3.8344 -2.4940 0.9725
5.9554 -2.6246 -2.4940 0.9725
6.3277 -1.5216 -2.4940 0.9725
3.3497 -0.4329 -1.2944 0.9856
3.3480 -0.3113 -1.2886 0.9857
3.3462 -0.1905 -1.2844 0.9857
3.3494 0.0495 -1.2837 0.9858
3.3520 0.1697 -1.2862 0.9857
-4.8556 -3.6819 -2.4940 0.9740
-4.5796 -4.0201 -2.4940 0.9740
-4.2801 -4.3376 -2.4940 0.9740
-4.1220 -4.4881 -2.4940 0.9740
-3.7902 -4.7717 -2.4940 0.9740
-3.6168 -4.9044 -2.4940 0.9740
-3.2565 -5.1507 -2.4940 0.9740
-3.0699 -5.2640 -2.4940 0.9740
-2.8794 -5.3706 -2.4940 0.9740
-2.0830 -5.7268 -2.4940 0.9740
-1.0294 -6.0062 -2.4940 0.9740
-0.5968 -6.0645 -2.4940 0.9740
-0.3792 -6.0820 -2.4940 0.9740
-0.1612 -6.0917 -2.4940 0.9740
0.0571 -6.0935 -2.4940 0.9740
0.2753 -6.0876 -2.4940 0.9740
1.1418 -5.9859 -2.4940 0.9740
1.5674 -5.8888 -2.4940 0.9740
1.7773 -5.8289 -2.4940 0.9740
2.3922 -5.6046 -2.4940 0.9740
2.7873 -5.4190 -2.4940 0.9740
2.9796 -5.3157 -2.4940 0.9740
3.1677 -5.2056 -2.4940 0.9740
3.3524 -5.0888 -2.4940 0.9740
3.7081 -4.8357 -2.4940 0.9740
4.0448 -4.5579 -2.4940 0.9740
4.2054 -4.4101 -2.4940 0.9740
4.5103 -4.0978 -2.4940 0.9740
4.6541 -3.9336 -2.4940 0.9740
5.0492 -3.4117 -2.4940 0.9740
5.4847 -2.6557 -2.4940 0.9740
5.6607 -2.2562 -2.4940 0.9740
5.8077 -1.8452 -2.4940 0.9740
5.8701 -1.6361 -2.4940 0.9740
3.3226 -0.4294 -1.3712 0.9856
3.3216 -0.3088 -1.3653 0.9857
3.3219 -0.1892 -1.3618 0.9857
3.3224 -0.0700 -1.3601 0.9857
3.3231 0.0491 -1.3602 0.9857
3.3251 0.1684 -1.3626 0.9857
-4.6808 -3.2922 -2.4940 0.9753
-4.5599 -3.4577 -2.4940 0.9753
-4.4332 -3.6188 -2.4940 0.9753
-4.0194 -4.0735 -2.4940 0.9753
-3.7175 -4.3507 -2.4940 0.9753
-3.5593 -4.4811 -2.4940 0.9753
-3.3965 -4.6057 -2.4940 0.9753
-3.0581 -4.8370 -2.4940 0.9753
-2.7041 -5.0435 -2.4940 0.9753
-2.5217 -5.1371 -2.4940 0.9753
-2.3362 -5.2241 -2.4940 0.9753
-2.1474 -5.3044 -2.4940 0.9753
-1.9561 -5.3780 -2.4940 0.9753
-1.5661 -5.5042 -2.4940 0.9753
-0.7641 -5.6715 -2.4940 0.9753
-0.5605 -5.6951 -2.4940 0.9753
-0.1514 -5.7207 -2.4940 0.9753
0.2585 -5.7168 -2.4940 0.9753
0.6671 -5.6837 -2.4940 0.9753
0.8702 -5.6561 -2.4940 0.9753
1.0723 -5.6213 -2.4940 0.9753
1.2729 -5.5793 -2.4940 0.9753
1.4719 -5.5302 -2.4940 0.9753
1.6690 -5.4739 -2.4940 0.9753
1.8640 -5.4106 -2.4940 0.9753
2.2465 -5.2633 -2.4940 0.9753
2.4336 -5.1795 -2.4940 0.9753
2.6175 -5.0890 -2.4940 0.9753
2.9751 -4.8885 -2.4940 0.9753
3.6427 -4.4136 -2.4940 0.9753
3.9493 -4.1415 -2.4940 0.9753
4.0951 -3.9974 -2.4940 0.9753
4.3707 -3.6940 -2.4940 0.9753
4.7417 -3.2039 -2.4940 0.9753
4.8534 -3.0320 -2.4940 0.9753
5.1506 -2.4939 -2.4940 0.9753
5.3159 -2.1188 -2.4940 0.9753
5.4540 -1.7329 -2.4940 0.9753
3.3759 -0.8118 -1.5132 0.9850
3.2960 -0.6687 -1.4657 0.9854
3.2968 -0.4261 -1.4487 0.9856
3.2963 -0.3064 -1.4428 0.9857
3.2970 -0.1877 -1.4392 0.9857
3.2976 -0.0694 -1.4374 0.9857
3.2980 0.0487 -1.4375 0.9857
-4.1739 -3.4072 -2.4940 0.9765
-4.0492 -3.5545 -2.4940 0.9765
-3.7844 -3.8353 -2.4940 0.9765
-3.6446 -3.9683 -2.4940 0.9765
-3.3512 -4.2190 -2.4940 0.9765
-2.8793 -4.5542 -2.4940 0.9765
-2.5459 -4.7486 -2.4940 0.9765
-2.3742 -4.8367 -2.4940 0.9765
-2.0219 -4.9943 -2.4940 0.9765
-0.7194 -5.3398 -2.4940 0.9765
-0.3353 -5.3776 -2.4940 0.9765
-0.1425 -5.3861 -2.4940 0.9765
0.0505 -5.3878 -2.4940 0.9765
0.6281 -5.3513 -2.4940 0.9765
0.8194 -5.3254 -2.4940 0.9765
1.0095 -5.2926 -2.4940 0.9765
1.5714 -5.1538 -2.4940 0.9765
1.7550 -5.0942 -2.4940 0.9765
1.9363 -5.0281 -2.4940 0.9765
2.1152 -4.9555 -2.4940 0.9765
2.8011 -4.6027 -2.4940 0.9765
3.2786 -4.2757 -2.4940 0.9765
3.4297 -4.1555 -2.4940 0.9765
3.5763 -4.0300 -2.4940 0.9765
4.1151 -3.4780 -2.4940 0.9765
4.2371 -3.3284 -2.4940 0.9765
4.4644 -3.0166 -2.4940 0.9765
4.6689 -2.6892 -2.4940 0.9765
4.8495 -2.3481 -2.4940 0.9765
5.0051 -1.9949 -2.4940 0.9765
5.0733 -1.8144 -2.4940 0.9765
3.2717 -0.6638 -1.5452 0.9854
3.2730 -0.4230 -1.5276 0.9856
3.2706 -0.3040 -1.5204 0.9856
3.2702 -0.0689 -1.5141 0.9857
3.2756 0.1659 -1.5181 0.9856
-4.1588 -2.9251 -2.4940 0.9776
-4.0514 -3.0721 -2.4940 0.9776
-3.9387 -3.2152 -2.4940 0.9776
-3.8211 -3.3542 -2.4940 0.9776
-3.0177 -4.0921 -2.4940 0.9776
-2.8693 -4.1975 -2.4940 0.9776
-2.7171 -4.2976 -2.4940 0.9776
-2.5614 -4.3921 -2.4940 0.9776
-2.0755 -4.6415 -2.4940 0.9776
-1.7380 -4.7782 -2.4940 0.9776
-0.6789 -5.0389 -2.4940 0.9776
-0.4980 -5.0600 -2.4940 0.9776
-0.3164 -5.0746 -2.4940 0.9776
-0.1344 -5.0827 -2.4940 0.9776
0.5927 -5.0498 -2.4940 0.9776
1.1309 -4.9571 -2.4940 0.9776
1.3078 -4.9134 -2.4940 0.9776
1.4829 -4.8634 -2.4940 0.9776
1.6561 -4.8072 -2.4940 0.9776
1.8272 -4.7448 -2.4940 0.9776
2.6433 -4.3434 -2.4940 0.9776
2.9474 -4.1430 -2.4940 0.9776
3.2364 -3.9213 -2.4940 0.9776
3.3748 -3.8029 -2.4940 0.9776
3.6384 -3.5516 -2.4940 0.9776
3.8833 -3.2820 -2.4940 0.9776
3.9983 -3.1408 -2.4940 0.9776
4.1082 -2.9956 -2.4940 0.9776
4.4939 -2.3783 -2.4940 0.9776
4.5762 -2.2158 -2.4940 0.9776
4.7231 -1.8826 -2.4940 0.9776
4.7875 -1.7122 -2.4940 0.9776
3.2496 -0.6593 -1.6265 0.9853
3.2466 -0.3018 -1.5994 0.9856
3.2443 -0.0683 -1.5918 0.9856
3.2483 0.0480 -1.5935 0.9856
-3.9323 -2.7657 -2.4940 0.9786
-3.8307 -2.9048 -2.4940 0.9786
-3.7242 -3.0401 -2.4940 0.9786
-3.6129 -3.1715 -2.4940 0.9786
-3.4970 -3.2989 -2.4940 0.9786
-3.2519 -3.5408 -2.4940 0.9786
-2.8534 -3.8692 -2.4940 0.9786
-2.7130 -3.9689 -2.4940 0.9786
-2.4219 -4.1529 -2.4940 0.9786
-2.1184 -4.3156 -2.4940 0.9786
-1.8041 -4.4562 -2.4940 0.9786
-1.3157 -4.6240 -2.4940 0.9786
-1.1492 -4.6681 -2.4940 0.9786
-0.9813 -4.7063 -2.4940 0.9786
-0.8121 -4.7384 -2.4940 0.9786
-0.6419 -4.7645 -2.4940 0.9786
-0.4708 -4.7844 -2.4940 0.9786
-0.2992 -4.7982 -2.4940 0.9786
-0.1271 -4.8059 -2.4940 0.9786
0.0451 -4.8073 -2.4940 0.9786
0.2172 -4.8026 -2.4940 0.9786
0.9008 -4.7224 -2.4940 0.9786
1.0693 -4.6871 -2.4940 0.9786
1.4021 -4.5986 -2.4940 0.9786
1.5659 -4.5454 -2.4940 0.9786
1.8873 -4.4216 -2.4940 0.9786
2.1989 -4.2751 -2.4940 0.9786
2.3506 -4.1937 -2.4940 0.9786
2.4993 -4.1068 -2.4940 0.9786
2.6448 -4.0147 -2.4940 0.9786
2.7869 -3.9173 -2.4940 0.9786
3.0602 -3.7078 -2.4940 0.9786
3.1910 -3.5958 -2.4940 0.9786
3.4402 -3.3582 -2.4940 0.9786
3.5583 -3.2328 -2.4940 0.9786
3.9834 -2.6915 -2.4940 0.9786
4.0773 -2.5471 -2.4940 0.9786
4.1659 -2.3995 -2.4940 0.9786
4.4658 -1.7800 -2.4940 0.9786
4.5267 -1.6189 -2.4940 0.9786
4.6310 -1.2907 -2.4940 0.9786
3.2300 -0.6553 -1.7098 0.9853
3.2263 -0.4170 -1.6877 0.9854
3.2244 -0.2998 -1.6800 0.9855
3.2290 0.1635 -1.6773 0.9855
-3.7246 -2.6196 -2.4940 0.9794
-3.6284 -2.7514 -2.4940 0.9794
-3.3124 -3.1247 -2.4940 0.9794
-3.1983 -3.2413 -2.4940 0.9794
-3.0802 -3.3538 -2.4940 0.9794
-2.9581 -3.4619 -2.4940 0.9794
-2.7027 -3.6648 -2.4940 0.9794
-2.2940 -3.9336 -2.4940 0.9794
-2.1517 -4.0132 -2.4940 0.9794
-2.0065 -4.0877 -2.4940 0.9794
-1.4023 -4.3324 -2.4940 0.9794
-1.2462 -4.3798 -2.4940 0.9794
-0.9295 -4.4578 -2.4940 0.9794
-0.4460 -4.5318 -2.4940 0.9794
-0.1204 -4.5520 -2.4940 0.9794
0.0427 -4.5534 -2.4940 0.9794
0.2057 -4.5490 -2.4940 0.9794
0.5308 -4.5226 -2.4940 0.9794
0.8532 -4.4730 -2.4940 0.9794
1.1712 -4.4004 -2.4940 0.9794
1.4832 -4.3053 -2.4940 0.9794
1.6365 -4.2495 -2.4940 0.9794
2.0828 -4.0494 -2.4940 0.9794
2.5051 -3.8026 -2.4940 0.9794
2.6397 -3.7104 -2.4940 0.9794
2.7709 -3.6136 -2.4940 0.9794
2.8986 -3.5120 -2.4940 0.9794
3.0225 -3.4059 -2.4940 0.9794
3.1425 -3.2955 -2.4940 0.9794
3.2585 -3.1808 -2.4940 0.9794
3.3704 -3.0621 -2.4940 0.9794
3.5809 -2.8129 -2.4940 0.9794
3.6794 -2.6829 -2.4940 0.9794
3.9459 -2.2728 -2.4940 0.9794
4.1669 -1.8364 -2.4940 0.9794
4.2877 -1.5334 -2.4940 0.9794
4.3398 -1.3789 -2.4940 0.9794
4.3864 -1.2226 -2.4940 0.9794
3.2042 -0.5314 -1.7789 0.9853
3.1996 -0.1822 -1.7553 0.9855
3.2039 0.0473 -1.7550 0.9855
-3.3464 -2.7317 -2.4940 0.9802
-3.1423 -2.9643 -2.4940 0.9802
-3.0341 -3.0749 -2.4940 0.9802
-2.9220 -3.1816 -2.4940 0.9802
-2.6868 -3.3826 -2.4940 0.9802
-2.5639 -3.4767 -2.4940 0.9802
-2.4377 -3.5662 -2.4940 0.9802
-2.1762 -3.7316 -2.4940 0.9802
-1.6210 -4.0041 -2.4940 0.9802
-1.0326 -4.1946 -2.4940 0.9802
-0.7297 -4.2577 -2.4940 0.9802
-0.5768 -4.2812 -2.4940 0.9802
-0.4231 -4.2991 -2.4940 0.9802
-0.1142 -4.3183 -2.4940 0.9802
0.0405 -4.3196 -2.4940 0.9802
0.5036 -4.2904 -2.4940 0.9802
0.6569 -4.2696 -2.4940 0.9802
0.8094 -4.2433 -2.4940 0.9802
0.9609 -4.2116 -2.4940 0.9802
1.4071 -4.0842 -2.4940 0.9802
1.5524 -4.0312 -2.4940 0.9802
1.6958 -3.9730 -2.4940 0.9802
1.9759 -3.8414 -2.4940 0.9802
2.2458 -3.6902 -2.4940 0.9802
2.3765 -3.6074 -2.4940 0.9802
2.5042 -3.5199 -2.4940 0.9802
2.6286 -3.4280 -2.4940 0.9802
2.7497 -3.3316 -2.4940 0.9802
2.9811 -3.1263 -2.4940 0.9802
3.0912 -3.0175 -2.4940 0.9802
3.3970 -2.6685 -2.4940 0.9802
4.0675 -1.4547 -2.4940 0.9802
4.1170 -1.3081 -2.4940 0.9802
3.2273 -0.7761 -1.9164 0.9848
3.1974 -0.6487 -1.8836 0.9850
3.1839 -0.5280 -1.8633 0.9852
3.1807 -0.4111 -1.8516 0.9853
3.1793 -0.2956 -1.8435 0.9854
3.1780 -0.0669 -1.8352 0.9854
3.1812 0.0470 -1.8369 0.9854
