ply
format ascii 1.0
element vertex 986
property float32 x
property float32 y
property float32 z
property float32 I
end_header
44.7026 7.1464 7.9824 0.8320
44.1237 17.3603 8.3607 0.8248
44.4859 19.3824 8.5563 0.8211
13.8382 11.6399 3.1885 0.9292
12.8265 11.6036 3.0498 0.9322
11.8632 11.5364 2.9178 0.9350
11.1424 11.6459 2.8420 0.9366
10.3817 11.6650 2.7535 0.9385
8.9898 11.7000 2.6017 0.9418
4.5755 11.9124 2.2501 0.9495
4.0933 11.9245 2.2230 0.9501
2.9297 9.6548 1.7791 0.9598
3.1600 11.9479 2.1792 0.9510
0.9417 12.0037 2.1231 0.9523
0.5078 12.0146 2.1204 0.9523
-0.3596 12.0364 2.1233 0.9523
-0.7954 12.0473 2.1289 0.9521
-1.2340 12.0584 2.1373 0.9520
-11.9610 41.2467 7.5725 0.8399
-13.5431 41.1017 7.6306 0.8388
-12.2495 29.7659 5.6756 0.8774
-10.1969 22.4431 4.3466 0.9047
-14.6408 26.8912 5.3989 0.8831
-15.9428 26.9240 5.5173 0.8807
46.9191 14.6546 7.5302 0.8196
42.5081 14.9789 6.9045 0.8333
42.5524 16.7421 7.0052 0.8311
42.2848 18.4235 7.0659 0.8297
42.3364 20.2919 7.1922 0.8270
13.7670 11.5799 2.7559 0.9298
11.9548 11.6255 2.5546 0.9347
10.3817 11.6650 2.3922 0.9388
9.6660 11.6830 2.3229 0.9405
8.3482 11.7161 2.2039 0.9434
7.8030 11.8313 2.1712 0.9443
7.2139 11.8461 2.1248 0.9454
6.6487 11.8603 2.0829 0.9465
6.1046 11.8739 2.0453 0.9474
5.0702 11.8999 1.9816 0.9490
4.5755 11.9124 1.9549 0.9497
3.3932 9.8848 1.6010 0.9586
2.6195 9.9043 1.5695 0.9594
2.2430 9.9137 1.5571 0.9597
1.5052 9.9323 1.5389 0.9602
0.7806 9.9505 1.5290 0.9604
0.0617 9.9803 1.5290 0.9604
-0.2981 9.9776 1.5292 0.9604
-1.3898 10.0050 1.5474 0.9599
-11.8159 47.0210 7.4273 0.8219
-13.5431 41.1017 6.6296 0.8394
-12.1708 32.8970 5.3735 0.8677
-10.1969 22.4431 3.7764 0.9051
-12.4857 25.0424 4.2867 0.8929
46.7095 14.5892 6.3723 0.8209
42.5081 14.9789 5.8691 0.8338
42.5981 18.5599 6.0508 0.8291
15.9013 11.5263 2.5575 0.9238
14.7873 11.5543 2.4437 0.9271
13.7670 11.5799 2.3426 0.9300
11.1424 11.6459 2.0989 0.9371
9.6660 11.6830 1.9746 0.9407
6.9792 9.7947 1.5661 0.9526
6.4683 9.8076 1.5299 0.9537
5.7414 10.2418 1.5290 0.9537
4.9886 10.6288 1.5290 0.9537
3.8953 10.1416 1.4147 0.9571
3.0021 11.3510 1.5290 0.9537
2.1765 11.5378 1.5290 0.9537
0.9183 11.7053 1.5290 0.9537
0.4958 11.7308 1.5290 0.9537
-0.3507 11.7361 1.5290 0.9537
-0.7735 11.7158 1.5290 0.9537
-1.1953 11.6803 1.5290 0.9537
-1.7827 10.1365 1.3402 0.9593
-11.7668 46.8256 6.2873 0.8230
-12.2495 29.7659 4.1915 0.8782
-12.4857 25.0424 3.6439 0.8933
-14.6408 26.8912 3.9872 0.8838
-15.9428 26.9240 4.0746 0.8814
46.7095 14.5892 5.2547 0.8213
42.5081 14.9788 4.8397 0.8342
42.6943 22.3905 5.1768 0.8237
17.1256 11.4955 2.2149 0.9204
10.6139 9.6019 1.5369 0.9440
9.7642 10.2054 1.5167 0.9448
8.2626 11.5959 1.5290 0.9443
7.8030 11.8313 1.5219 0.9446
7.2139 11.8461 1.4894 0.9457
6.6487 11.8603 1.4600 0.9468
6.1046 11.8739 1.4337 0.9477
5.5792 11.8871 1.4101 0.9485
5.0702 11.8999 1.3890 0.9493
3.8953 10.1416 1.1666 0.9572
3.1600 11.9479 1.3271 0.9515
1.8012 11.8861 1.2909 0.9528
0.0738 11.9295 1.2810 0.9531
-1.2340 12.0584 1.3016 0.9524
-1.9540 11.1108 1.2114 0.9556
-2.1442 10.0530 1.1038 0.9595
-11.8159 47.0211 5.2062 0.8228
-12.1708 32.8970 3.7665 0.8684
-14.6408 26.8912 3.2879 0.8841
-15.9428 26.9240 3.3600 0.8817
42.6688 16.7879 3.8816 0.8319
42.7620 20.4958 4.0142 0.8267
15.2933 9.4843 1.5234 0.9303
14.5062 10.5150 1.5167 0.9306
13.7109 11.5328 1.5167 0.9306
12.7111 11.4992 1.4510 0.9335
11.9548 11.6255 1.4116 0.9353
11.1424 11.6459 1.3644 0.9373
10.3817 11.6650 1.3219 0.9392
8.2936 10.0243 1.1014 0.9491
8.3368 11.7001 1.2162 0.9440
7.2143 11.8467 1.1742 0.9458
6.6493 11.8613 1.1511 0.9469
5.5792 11.8871 1.1116 0.9487
2.9284 9.6506 0.8537 0.9603
2.7197 12.0207 1.0433 0.9517
2.2582 11.9706 1.0312 0.9523
1.8012 11.8861 1.0177 0.9529
-0.3596 12.0364 1.0194 0.9528
-1.2340 12.0584 1.0261 0.9525
-2.3489 11.0129 0.9532 0.9558
-13.5431 41.1017 3.6634 0.8405
-12.1708 32.8970 2.9693 0.8687
-12.2495 29.7659 2.7248 0.8788
-10.1969 22.4431 2.0868 0.9058
-14.8946 25.1538 2.4746 0.8893
46.7096 14.5892 3.0345 0.8219
42.5081 14.9789 2.7948 0.8347
42.6453 20.4399 2.9325 0.8274
15.9013 11.5263 1.2178 0.9243
12.7111 11.4992 1.0629 0.9336
11.9548 11.6255 1.0340 0.9354
11.1424 11.6459 0.9995 0.9374
8.2936 10.0243 0.8068 0.9492
8.3368 11.7001 0.8909 0.9441
7.8030 11.8313 0.8789 0.9448
6.1046 11.8739 0.8279 0.9479
5.5792 11.8871 0.8143 0.9487
4.0933 11.9245 0.7818 0.9507
2.9281 9.6495 0.6253 0.9604
2.7197 12.0207 0.7643 0.9518
2.2582 11.9706 0.7554 0.9524
0.9417 12.0037 0.7466 0.9529
0.5078 12.0146 0.7457 0.9529
0.0744 12.0255 0.7457 0.9529
-0.3596 12.0364 0.7467 0.9529
-1.2340 12.0584 0.7516 0.9526
-2.7406 10.9062 0.6973 0.9559
-2.9124 10.0433 0.6484 0.9590
-12.2495 29.7659 1.9960 0.8790
-10.1969 22.4431 1.5286 0.9059
-12.4729 25.0166 1.7334 0.8940
-13.6361 25.0459 1.7684 0.8920
42.5524 16.7421 1.8031 0.8327
42.6453 20.4399 1.8647 0.8275
19.1196 10.0270 0.8513 0.9172
41.2163 25.5608 1.9124 0.8235
17.1256 11.4955 0.8133 0.9207
12.5842 9.8328 0.6297 0.9381
10.3464 11.6254 0.6137 0.9396
8.2936 10.0243 0.5130 0.9493
8.9592 11.6602 0.5798 0.9428
8.3368 11.7001 0.5665 0.9441
7.2202 11.8564 0.5474 0.9459
6.6546 11.8709 0.5366 0.9470
6.1046 11.8739 0.5265 0.9480
5.5792 11.8871 0.5178 0.9488
5.0702 11.8999 0.5100 0.9495
2.9278 9.6485 0.3976 0.9604
3.1762 12.0093 0.4898 0.9515
2.7197 12.0207 0.4860 0.9519
2.2582 11.9706 0.4803 0.9524
1.8012 11.8861 0.4740 0.9530
1.3773 11.9927 0.4760 0.9528
0.9417 12.0037 0.4748 0.9529
0.5078 12.0146 0.4742 0.9530
0.0744 12.0255 0.4742 0.9530
-0.3596 12.0364 0.4748 0.9529
-3.0274 12.0473 0.4898 0.9515
-3.1299 10.7931 0.4431 0.9560
-3.3126 10.0533 0.4174 0.9585
-12.2495 29.7659 1.2692 0.8791
-10.1969 22.4431 0.9720 0.9060
46.7096 14.5892 0.8266 0.8222
19.8358 9.5073 0.3716 0.9158
17.1256 11.4955 0.3484 0.9208
15.9013 11.5263 0.3317 0.9244
12.5842 9.8328 0.2698 0.9381
13.8382 11.6399 0.3055 0.9302
12.7111 11.4992 0.2895 0.9337
11.9548 11.6255 0.2817 0.9355
10.3464 11.6254 0.2629 0.9396
8.2936 10.0243 0.2198 0.9493
8.9592 11.6602 0.2484 0.9429
7.2231 11.8612 0.2346 0.9460
6.6573 11.8756 0.2300 0.9470
6.1046 11.8739 0.2255 0.9480
5.5792 11.8871 0.2218 0.9488
5.0702 11.8999 0.2185 0.9496
4.0933 11.9245 0.2130 0.9508
1.8012 11.8861 0.2031 0.9530
0.5078 12.0146 0.2031 0.9530
-1.2340 12.0584 0.2048 0.9527
-3.0057 21.6372 0.3690 0.9163
-3.5178 10.6760 0.1899 0.9560
-8.8797 21.5774 0.3941 0.9109
-10.7486 21.5584 0.4069 0.9081
-11.7319 21.5484 0.4144 0.9065
46.7095 14.5892 -0.2755 0.8222
42.5081 14.9788 -0.2538 0.8350
40.6802 17.7244 -0.2498 0.8374
40.7253 19.5197 -0.2543 0.8347
16.9953 9.7096 -0.1102 0.9247
15.9013 11.5263 -0.1106 0.9244
13.8382 11.6399 -0.1018 0.9302
11.9548 11.6255 -0.0939 0.9355
11.1424 11.6459 -0.0907 0.9376
8.2936 10.0243 -0.0733 0.9493
8.9592 11.6602 -0.0828 0.9429
8.3368 11.7001 -0.0809 0.9442
7.8030 11.8313 -0.0798 0.9449
7.2261 11.8661 -0.0782 0.9459
4.0933 11.9245 -0.0710 0.9508
2.9271 9.6464 -0.0568 0.9605
3.1762 12.0093 -0.0699 0.9515
2.7197 12.0207 -0.0694 0.9519
2.2582 11.9706 -0.0686 0.9524
1.8012 11.8861 -0.0677 0.9531
1.3773 11.9928 -0.0680 0.9529
0.9417 12.0037 -0.0678 0.9530
0.5078 12.0146 -0.0677 0.9530
-0.3596 12.0364 -0.0678 0.9530
-0.7890 11.9512 -0.0674 0.9532
-1.2340 12.0584 -0.0682 0.9527
-3.8038 21.6291 -0.1236 0.9159
-6.7212 20.3981 -0.1209 0.9177
-9.7993 21.5681 -0.1334 0.9096
-11.7319 21.5484 -0.1381 0.9065
-12.7535 21.5380 -0.1409 0.9047
46.8804 12.8073 -1.3684 0.8233
40.6366 15.9884 -1.2296 0.8397
40.6802 17.7244 -1.2495 0.8373
40.7253 19.5197 -1.2717 0.8347
18.4512 9.6765 -0.5867 0.9200
17.0372 9.7335 -0.5525 0.9245
14.6163 9.8111 -0.4957 0.9320
15.9013 11.5263 -0.5530 0.9244
12.5842 9.8328 -0.4497 0.9381
10.9291 9.8870 -0.4150 0.9427
11.1424 11.6459 -0.4538 0.9375
8.8459 9.9394 -0.3747 0.9481
7.7364 10.0687 -0.3576 0.9505
7.1894 10.0898 -0.3489 0.9516
5.6735 10.1206 -0.3267 0.9546
6.1046 11.8739 -0.3759 0.9480
5.5792 11.8871 -0.3697 0.9488
4.3339 10.1719 -0.3113 0.9567
4.0933 11.9245 -0.3550 0.9508
2.9268 9.6454 -0.2838 0.9605
2.7058 11.9594 -0.3453 0.9521
2.2582 11.9706 -0.3430 0.9524
0.5078 12.0146 -0.3386 0.9530
0.0744 12.0255 -0.3386 0.9530
-0.3069 10.2709 -0.2893 0.9597
-0.7954 12.0473 -0.3400 0.9528
-1.0530 10.2896 -0.2912 0.9595
-3.8038 21.6292 -0.6184 0.9159
-4.6115 21.6209 -0.6225 0.9153
-5.0432 20.0693 -0.5827 0.9205
-5.7047 19.6722 -0.5767 0.9213
-6.4835 19.6767 -0.5834 0.9204
-7.2814 19.6813 -0.5909 0.9195
-8.1014 19.6860 -0.5994 0.9183
48.5914 7.7680 -2.4956 0.8211
42.2631 14.8926 -2.2725 0.8357
40.5884 15.9694 -2.2120 0.8397
38.6890 16.8568 -2.1402 0.8445
15.7087 9.7420 -0.9374 0.9286
15.9013 11.5263 -0.9960 0.9244
11.7557 9.8881 -0.7790 0.9403
11.9548 11.6255 -0.8457 0.9354
11.1424 11.6459 -0.8174 0.9375
8.8459 9.9394 -0.6748 0.9481
8.2936 10.0243 -0.6598 0.9492
6.6720 10.1163 -0.6146 0.9526
5.6735 10.1206 -0.5884 0.9546
6.1046 11.8739 -0.6771 0.9479
5.5792 11.8871 -0.6659 0.9488
3.8953 10.1416 -0.5510 0.9574
3.1600 11.9479 -0.6268 0.9517
2.7058 11.9594 -0.6218 0.9521
1.8157 11.9817 -0.6146 0.9526
0.9417 12.0037 -0.6106 0.9529
0.0744 12.0255 -0.6099 0.9530
-0.7954 12.0473 -0.6123 0.9528
-1.8091 10.2871 -0.5297 0.9590
-6.2458 18.9553 -1.0121 0.9232
-7.0145 18.9597 -1.0252 0.9222
-7.8044 18.9643 -1.0400 0.9211
-9.7993 21.5682 -1.2014 0.9095
-11.7320 21.5485 -1.2443 0.9064
-12.7536 21.5381 -1.2694 0.9046
33.9456 2.9407 -2.4983 0.8723
33.8190 4.1626 -2.4984 0.8723
33.8079 5.4047 -2.5103 0.8717
33.4817 7.8618 -2.5217 0.8712
33.8261 10.5652 -2.5984 0.8675
33.2875 13.0968 -2.6228 0.8663
30.7115 14.7200 -2.4971 0.8723
15.6608 9.7122 -1.3512 0.9288
12.5305 9.7909 -1.1660 0.9382
11.6659 9.8126 -1.1177 0.9407
10.8689 9.8326 -1.0746 0.9429
10.1302 9.8512 -1.0361 0.9449
9.4708 9.8987 -1.0045 0.9465
8.8242 9.9150 -0.9732 0.9482
7.1668 10.0581 -0.9055 0.9517
6.6423 10.0713 -0.8846 0.9528
5.6735 10.1206 -0.8507 0.9545
6.1046 11.8739 -0.9789 0.9479
5.5792 11.8871 -0.9628 0.9487
4.3339 10.1719 -0.8107 0.9566
3.8953 10.1416 -0.7966 0.9574
4.0933 11.9245 -0.9244 0.9507
2.9262 9.6433 -0.7389 0.9604
3.1600 11.9479 -0.9062 0.9516
2.7058 11.9594 -0.8990 0.9520
2.2582 11.9706 -0.8932 0.9523
0.9417 12.0037 -0.8828 0.9529
0.5078 12.0146 -0.8817 0.9529
-0.3069 10.2709 -0.7534 0.9596
-1.0530 10.2896 -0.7584 0.9594
-4.6115 21.6210 -1.6210 0.9152
-6.0873 18.4744 -1.4262 0.9250
-6.8314 18.4648 -1.4436 0.9241
-7.5073 18.2426 -1.4464 0.9239
-8.2904 18.2471 -1.4695 0.9228
-12.7536 21.5382 -1.8353 0.9045
25.9490 2.2479 -2.5006 0.9006
25.8519 3.1820 -2.5006 0.9006
25.3603 5.9548 -2.5009 0.9006
25.1303 6.8653 -2.5010 0.9006
24.7928 8.7364 -2.5237 0.8998
24.9719 9.8251 -2.5763 0.8978
24.8928 10.8457 -2.6068 0.8966
24.5816 11.7819 -2.6170 0.8962
16.9434 9.6800 -1.8734 0.9246
14.5119 9.7411 -1.6780 0.9322
13.4745 9.7671 -1.5977 0.9353
10.1302 9.8512 -1.3566 0.9448
8.7972 9.8847 -1.2704 0.9482
7.6943 10.0139 -1.2124 0.9505
6.6222 10.0408 -1.1547 0.9528
6.1222 10.0534 -1.1301 0.9538
5.6425 10.0654 -1.1078 0.9547
4.3029 10.0991 -1.0539 0.9568
2.9259 9.6422 -0.9674 0.9603
2.7122 10.2547 -1.0184 0.9583
2.3410 10.3467 -1.0184 0.9583
1.9223 10.1899 -0.9955 0.9592
1.5456 10.1994 -0.9904 0.9594
1.1724 10.2087 -0.9865 0.9595
0.8016 10.2180 -0.9840 0.9597
0.4322 10.2273 -0.9828 0.9597
0.0633 10.2366 -0.9828 0.9597
-0.3061 10.2459 -0.9841 0.9596
-2.5539 11.9742 -1.1754 0.9520
-6.5696 17.7571 -1.8177 0.9267
-7.3093 17.7614 -1.8439 0.9257
-8.0717 17.7658 -1.8734 0.9246
-10.4436 20.9465 -2.2471 0.9102
-11.9208 20.1316 -2.2462 0.9103
20.9306 1.8132 -2.4956 0.9189
20.8516 2.5665 -2.4956 0.9189
20.7456 3.3165 -2.4956 0.9189
20.4527 4.8025 -2.4956 0.9189
20.0536 6.2635 -2.4956 0.9189
19.8148 6.9822 -2.4956 0.9189
19.0305 8.2915 -2.4658 0.9198
17.7883 8.5259 -2.3432 0.9236
13.4745 9.7671 -1.9768 0.9352
10.1302 9.8512 -1.6785 0.9447
8.7972 9.8847 -1.5718 0.9481
7.6943 10.0139 -1.5001 0.9504
7.1452 10.0277 -1.4626 0.9516
3.8831 10.1097 -1.2864 0.9573
3.4739 10.1199 -1.2710 0.9578
2.9256 9.6414 -1.1968 0.9602
2.2963 10.1495 -1.2361 0.9589
1.9164 10.1591 -1.2280 0.9592
1.5410 10.1685 -1.2217 0.9594
1.1689 10.1779 -1.2169 0.9596
0.7992 10.1872 -1.2138 0.9597
0.4309 10.1964 -1.2123 0.9597
0.0631 10.2057 -1.2123 0.9597
-1.4229 10.2430 -1.2284 0.9592
-2.1086 11.9896 -1.4461 0.9521
-2.5900 10.3067 -1.2624 0.9581
-5.0584 17.4434 -2.1574 0.9295
-8.5180 17.0843 -2.2676 0.9260
-9.7235 16.4209 -2.2669 0.9260
17.3921 2.7804 -2.4956 0.9313
17.2806 3.4055 -2.4956 0.9313
17.1466 4.0262 -2.4956 0.9313
16.9904 4.6416 -2.4956 0.9313
16.6118 5.8536 -2.4956 0.9313
16.1469 7.0352 -2.4956 0.9313
15.8828 7.6126 -2.4956 0.9313
15.5981 8.1802 -2.4956 0.9313
14.3986 8.2261 -2.3496 0.9352
13.3897 9.7057 -2.3432 0.9354
12.5305 9.7909 -2.2532 0.9378
11.6658 9.8126 -2.1599 0.9403
10.8689 9.8326 -2.0767 0.9425
10.1302 9.8512 -2.0021 0.9445
8.2730 9.9993 -1.8389 0.9489
7.1452 10.0277 -1.7446 0.9515
6.6222 10.0408 -1.7042 0.9526
5.6425 10.0654 -1.6350 0.9545
5.1808 10.0771 -1.6055 0.9553
4.7349 10.0883 -1.5790 0.9560
4.3029 10.0991 -1.5554 0.9566
2.6818 10.1398 -1.4861 0.9585
2.2963 10.1495 -1.4744 0.9588
1.5410 10.1685 -1.4572 0.9593
1.1689 10.1779 -1.4516 0.9595
0.0631 10.2057 -1.4461 0.9596
-0.6750 10.2242 -1.4518 0.9594
-1.0472 10.2336 -1.4576 0.9593
-2.9917 10.3168 -1.5220 0.9575
-5.0453 15.3119 -2.2843 0.9369
-6.1316 14.8995 -2.2829 0.9370
-6.6630 14.6652 -2.2823 0.9370
-8.2033 13.8537 -2.2812 0.9370
15.0921 1.3074 -2.4956 0.9404
15.0352 1.8506 -2.4956 0.9404
14.9587 2.3913 -2.4956 0.9404
14.7475 3.4628 -2.4956 0.9404
14.6131 3.9921 -2.4956 0.9404
14.2875 5.0346 -2.4956 0.9404
14.0968 5.5463 -2.4956 0.9404
13.8877 6.0508 -2.4956 0.9404
13.6606 6.5475 -2.4956 0.9404
13.4157 7.0356 -2.4956 0.9404
13.1533 7.5146 -2.4956 0.9404
10.8849 9.1557 -2.3432 0.9440
10.5478 9.5421 -2.3432 0.9440
10.1302 9.8512 -2.3278 0.9443
9.4419 9.8685 -2.2500 0.9461
7.6943 10.0139 -2.0804 0.9501
7.1452 10.0277 -2.0284 0.9513
6.1222 10.0534 -1.9391 0.9534
5.1808 10.0771 -1.8666 0.9551
4.7349 10.0883 -1.8359 0.9558
3.4739 10.1199 -1.7626 0.9576
2.6818 10.1398 -1.7279 0.9584
1.9164 10.1591 -1.7031 0.9590
1.1689 10.1779 -1.6877 0.9593
0.4309 10.1964 -1.6812 0.9595
-0.6750 10.2242 -1.6880 0.9593
-1.0472 10.2336 -1.6947 0.9592
-3.3966 13.5165 -2.2959 0.9451
-5.7568 12.6707 -2.2927 0.9451
-7.0881 11.9703 -2.2918 0.9452
13.1776 1.6220 -2.4956 0.9474
13.1106 2.0959 -2.4956 0.9474
12.8077 3.4989 -2.4956 0.9474
12.1719 5.3033 -2.4956 0.9474
11.7582 6.1664 -2.4956 0.9474
11.5283 6.5862 -2.4956 0.9474
11.2834 6.9975 -2.4956 0.9474
11.0239 7.3997 -2.4956 0.9474
10.7500 7.7922 -2.4956 0.9474
8.9372 8.6910 -2.3432 0.9505
7.9468 9.6050 -2.3432 0.9505
7.5954 9.8852 -2.3432 0.9505
7.1452 10.0277 -2.3143 0.9511
6.1222 10.0534 -2.2125 0.9532
5.6425 10.0654 -2.1689 0.9541
5.1808 10.0771 -2.1298 0.9549
4.7349 10.0883 -2.0947 0.9557
3.8831 10.1097 -2.0356 0.9569
3.4739 10.1199 -2.0111 0.9574
2.2963 10.1495 -1.9559 0.9585
1.1689 10.1779 -1.9256 0.9592
0.7992 10.1872 -1.9207 0.9593
0.4309 10.1964 -1.9182 0.9593
-2.1896 10.2658 -1.9730 0.9582
-3.4122 11.7666 -2.3028 0.9514
-4.2488 11.4842 -2.3016 0.9514
-5.0631 11.1438 -2.3006 0.9514
-5.4606 10.9523 -2.3003 0.9514
11.7621 1.0189 -2.4956 0.9529
11.5833 2.2827 -2.4956 0.9529
11.4935 2.6988 -2.4956 0.9529
11.2692 3.5198 -2.4956 0.9529
11.1350 3.9237 -2.4956 0.9529
10.9863 4.3225 -2.4956 0.9529
10.6464 5.1028 -2.4956 0.9529
10.2511 5.8565 -2.4956 0.9529
9.8025 6.5798 -2.4956 0.9529
9.5590 6.9289 -2.4956 0.9529
9.0349 7.5996 -2.4956 0.9529
7.8544 8.2093 -2.4016 0.9546
7.3696 8.2806 -2.3432 0.9557
7.0664 8.5408 -2.3432 0.9557
6.7539 8.7900 -2.3432 0.9557
6.4327 9.0277 -2.3432 0.9557
5.4205 9.6694 -2.3432 0.9557
5.0685 9.8585 -2.3432 0.9557
4.3029 10.0991 -2.3204 0.9561
3.8831 10.1097 -2.2892 0.9567
3.4739 10.1199 -2.2617 0.9572
2.8899 9.5238 -2.1038 0.9601
2.2963 10.1495 -2.1996 0.9583
1.5410 10.1685 -2.1740 0.9588
0.7992 10.1872 -2.1600 0.9591
-0.3052 10.2149 -2.1602 0.9591
-0.6750 10.2242 -2.1659 0.9590
-1.0472 10.2336 -2.1745 0.9588
-1.8036 10.2554 -2.2010 0.9583
-2.1895 10.2656 -2.2187 0.9580
-2.5823 10.2761 -2.2397 0.9576
-2.9913 10.3152 -2.2703 0.9570
-3.4174 10.3714 -2.3083 0.9563
-4.5853 10.0922 -2.3432 0.9557
-4.9462 9.9204 -2.3432 0.9557
-5.6480 9.5383 -2.3432 0.9557
10.3373 2.4272 -2.4956 0.9573
10.2431 2.7983 -2.4956 0.9573
10.1355 3.1657 -2.4956 0.9573
9.7346 4.2413 -2.4956 0.9573
9.4037 4.9316 -2.4956 0.9573
9.2198 5.2674 -2.4956 0.9573
9.0240 5.5963 -2.4956 0.9573
8.3671 6.5377 -2.4956 0.9573
8.1260 6.8351 -2.4956 0.9573
7.6125 7.4027 -2.4956 0.9573
7.3407 7.6723 -2.4956 0.9573
7.0594 7.9320 -2.4956 0.9573
6.7688 8.1812 -2.4956 0.9573
5.8536 8.2150 -2.3707 0.9594
4.5586 8.8667 -2.3432 0.9599
4.2360 9.0253 -2.3432 0.9599
3.9079 9.1721 -2.3432 0.9599
3.2370 9.4298 -2.3432 0.9599
2.8647 9.4407 -2.3187 0.9603
2.5492 9.6385 -2.3432 0.9599
2.2001 9.7241 -2.3432 0.9599
1.4938 9.8574 -2.3432 0.9599
1.1375 9.9048 -2.3432 0.9599
0.7798 9.9394 -2.3432 0.9599
0.0617 9.9697 -2.3432 0.9599
-0.2977 9.9655 -2.3432 0.9599
-1.0149 9.9181 -2.3432 0.9599
-1.3718 9.8751 -2.3432 0.9599
-1.7269 9.8193 -2.3432 0.9599
-2.0797 9.7506 -2.3432 0.9599
-2.7768 9.5754 -2.3432 0.9599
-3.4594 9.3505 -2.3432 0.9599
-4.1240 9.0770 -2.3432 0.9599
-5.0798 8.5787 -2.3432 0.9599
5.5442 0.6824 -1.4463 0.9772
9.5176 1.5215 -2.4956 0.9610
9.4566 1.8636 -2.4956 0.9610
9.2978 2.5400 -2.4956 0.9610
9.2002 2.8735 -2.4956 0.9610
8.9692 3.5289 -2.4956 0.9610
8.6917 4.1659 -2.4956 0.9610
8.5359 4.4765 -2.4956 0.9610
8.3690 4.7812 -2.4956 0.9610
8.1912 5.0798 -2.4956 0.9610
8.0028 5.3718 -2.4956 0.9610
7.8039 5.6567 -2.4956 0.9610
7.3761 6.2043 -2.4956 0.9610
6.4079 7.1999 -2.4956 0.9610
6.1442 7.4262 -2.4956 0.9610
5.8725 7.6429 -2.4956 0.9610
5.5932 7.8496 -2.4956 0.9610
5.3066 8.0461 -2.4956 0.9610
4.9899 8.1940 -2.4840 0.9611
3.8597 8.2236 -2.3521 0.9632
3.5473 8.3256 -2.3432 0.9633
1.9971 8.8267 -2.3432 0.9633
1.6776 8.8930 -2.3432 0.9633
1.3559 8.9477 -2.3432 0.9633
1.0326 8.9907 -2.3432 0.9633
0.7078 9.0221 -2.3432 0.9633
0.3821 9.0418 -2.3432 0.9633
-0.5962 9.0302 -2.3432 0.9633
-1.2452 8.9637 -2.3432 0.9633
-2.2055 8.7770 -2.3432 0.9633
-2.8322 8.5952 -2.3432 0.9633
-3.4440 8.3688 -2.3432 0.9633
-4.0954 8.2139 -2.3764 0.9628
-4.4677 8.2060 -2.4192 0.9621
8.7494 1.0769 -2.4956 0.9640
8.7049 1.3916 -2.4956 0.9640
8.6490 1.7044 -2.4956 0.9640
8.5820 2.0151 -2.4956 0.9640
8.4145 2.6281 -2.4956 0.9640
8.3143 2.9297 -2.4956 0.9640
8.2033 3.2275 -2.4956 0.9640
8.0816 3.5211 -2.4956 0.9640
7.6543 4.3729 -2.4956 0.9640
7.4917 4.6460 -2.4956 0.9640
6.9464 5.4276 -2.4956 0.9640
6.7462 5.6744 -2.4956 0.9640
6.0942 6.3696 -2.4956 0.9640
5.8606 6.5851 -2.4956 0.9640
5.3710 6.9902 -2.4956 0.9640
4.5850 7.5291 -2.4956 0.9640
3.7455 7.9801 -2.4956 0.9640
3.4554 8.1099 -2.4956 0.9640
2.8147 8.1995 -2.4542 0.9646
2.4896 8.2045 -2.4272 0.9650
2.1711 8.2089 -2.4038 0.9653
1.8580 8.2126 -2.3837 0.9656
0.0512 8.2769 -2.3432 0.9662
-0.2472 8.2733 -2.3432 0.9662
-0.5452 8.2590 -2.3432 0.9662
-2.0631 8.2102 -2.3965 0.9654
-2.3797 8.2061 -2.4188 0.9651
-2.7024 8.2013 -2.4445 0.9647
-3.0322 8.1959 -2.4739 0.9643
-3.3548 8.1520 -2.4956 0.9640
-3.6465 8.0258 -2.4956 0.9640
-3.9334 7.8891 -2.4956 0.9640
-4.2152 7.7422 -2.4956 0.9640
-4.4916 7.5853 -2.4956 0.9640
3.6810 0.3189 -1.1364 0.9847
4.3573 0.5363 -1.3503 0.9818
7.8988 1.8546 -2.4956 0.9666
7.8268 2.1382 -2.4956 0.9666
6.8953 4.2762 -2.4956 0.9666
6.7367 4.5219 -2.4956 0.9666
6.5693 4.7618 -2.4956 0.9666
6.0169 5.4431 -2.4956 0.9666
5.8168 5.6565 -2.4956 0.9666
5.6091 5.8625 -2.4956 0.9666
5.1721 6.2513 -2.4956 0.9666
4.7083 6.6077 -2.4956 0.9666
4.4671 6.7731 -2.4956 0.9666
3.9675 7.0774 -2.4956 0.9666
3.7098 7.2158 -2.4956 0.9666
3.4473 7.3448 -2.4956 0.9666
2.6343 7.6740 -2.4956 0.9666
2.0746 7.8439 -2.4956 0.9666
1.7905 7.9135 -2.4956 0.9666
0.9257 8.0606 -2.4956 0.9666
0.3426 8.1063 -2.4956 0.9666
0.0502 8.1134 -2.4956 0.9666
-0.2423 8.1100 -2.4956 0.9666
-0.5345 8.0960 -2.4956 0.9666
-1.1164 8.0364 -2.4956 0.9666
-1.4053 7.9909 -2.4956 0.9666
-2.2597 7.7925 -2.4956 0.9666
-2.5392 7.7060 -2.4956 0.9666
-2.8153 7.6095 -2.4956 0.9666
-3.0877 7.5031 -2.4956 0.9666
-3.8797 7.1259 -2.4956 0.9666
-4.1340 6.9814 -2.4956 0.9666
3.5674 0.4391 -1.1948 0.9850
7.4135 1.1851 -2.4956 0.9688
7.3088 1.7162 -2.4956 0.9688
7.2422 1.9785 -2.4956 0.9688
7.0809 2.4951 -2.4956 0.9688
6.8827 2.9987 -2.4956 0.9688
6.7701 3.2449 -2.4956 0.9688
6.6488 3.4868 -2.4956 0.9688
6.3803 3.9568 -2.4956 0.9688
6.2335 4.1842 -2.4956 0.9688
6.0786 4.4061 -2.4956 0.9688
5.1902 5.4246 -2.4956 0.9688
4.3567 6.1142 -2.4956 0.9688
4.1335 6.2672 -2.4956 0.9688
3.9049 6.4122 -2.4956 0.9688
3.1898 6.7962 -2.4956 0.9688
2.6919 7.0084 -2.4956 0.9688
2.1800 7.1841 -2.4956 0.9688
1.9196 7.2580 -2.4956 0.9688
1.6567 7.3225 -2.4956 0.9688
1.3917 7.3775 -2.4956 0.9688
1.1249 7.4228 -2.4956 0.9688
0.8566 7.4586 -2.4956 0.9688
0.5872 7.4846 -2.4956 0.9688
0.3170 7.5009 -2.4956 0.9688
0.0464 7.5074 -2.4956 0.9688
-0.2242 7.5042 -2.4956 0.9688
-0.4946 7.4913 -2.4956 0.9688
-0.7643 7.4686 -2.4956 0.9688
-1.0330 7.4362 -2.4956 0.9688
-1.5660 7.3424 -2.4956 0.9688
-1.8297 7.2812 -2.4956 0.9688
-2.3495 7.1304 -2.4956 0.9688
-3.1055 6.8352 -2.4956 0.9688
-3.3499 6.7188 -2.4956 0.9688
-3.5899 6.5937 -2.4956 0.9688
-3.8252 6.4600 -2.4956 0.9688
3.4019 0.2947 -1.2211 0.9856
3.4223 0.4212 -1.2331 0.9855
6.8910 1.1016 -2.4956 0.9708
6.8468 1.3493 -2.4956 0.9708
6.7938 1.5952 -2.4956 0.9708
6.7318 1.8390 -2.4956 0.9708
6.4940 2.5550 -2.4956 0.9708
6.3977 2.7874 -2.4956 0.9708
5.6503 4.0956 -2.4956 0.9708
5.4990 4.2966 -2.4956 0.9708
5.3405 4.4921 -2.4956 0.9708
5.1751 4.6816 -2.4956 0.9708
4.4486 5.3768 -2.4956 0.9708
4.0496 5.6833 -2.4956 0.9708
3.8421 5.8256 -2.4956 0.9708
3.6297 5.9603 -2.4956 0.9708
2.9650 6.3173 -2.4956 0.9708
1.7843 6.7465 -2.4956 0.9708
1.5400 6.8064 -2.4956 0.9708
1.2936 6.8575 -2.4956 0.9708
1.0456 6.8997 -2.4956 0.9708
0.7962 6.9329 -2.4956 0.9708
0.5458 6.9571 -2.4956 0.9708
0.2947 6.9723 -2.4956 0.9708
-0.2084 6.9754 -2.4956 0.9708
-0.4597 6.9633 -2.4956 0.9708
-0.7104 6.9422 -2.4956 0.9708
-1.2087 6.8730 -2.4956 0.9708
-1.4557 6.8250 -2.4956 0.9708
-1.7007 6.7681 -2.4956 0.9708
3.8378 0.6135 -1.4894 0.9835
6.3893 1.2591 -2.4956 0.9725
6.3397 1.4886 -2.4956 0.9725
6.2820 1.7161 -2.4956 0.9725
6.2160 1.9415 -2.4956 0.9725
6.1420 2.1642 -2.4956 0.9725
6.0600 2.3843 -2.4956 0.9725
5.9701 2.6011 -2.4956 0.9725
5.5343 3.4321 -2.4956 0.9725
5.4070 3.6294 -2.4956 0.9725
5.2727 3.8219 -2.4956 0.9725
4.9836 4.1919 -2.4956 0.9725
4.8292 4.3688 -2.4956 0.9725
4.3294 4.8646 -2.4956 0.9725
3.9677 5.1638 -2.4956 0.9725
3.1844 5.6804 -2.4956 0.9725
2.9776 5.7915 -2.4956 0.9725
2.3350 6.0791 -2.4956 0.9725
2.1143 6.1593 -2.4956 0.9725
1.8909 6.2315 -2.4956 0.9725
1.4371 6.3515 -2.4956 0.9725
0.5093 6.4922 -2.4956 0.9725
0.0403 6.5120 -2.4956 0.9725
-0.1945 6.5092 -2.4956 0.9725
-0.6629 6.4783 -2.4956 0.9725
-1.3584 6.3688 -2.4956 0.9725
-2.2596 6.1075 -2.4956 0.9725
-2.4783 6.0221 -2.4956 0.9725
-2.6937 5.9288 -2.4956 0.9725
-3.3180 5.6034 -2.4956 0.9725
3.3295 0.4098 -1.3729 0.9856
3.4078 0.5448 -1.4124 0.9852
5.9361 1.3938 -2.4956 0.9740
5.8203 1.8179 -2.4956 0.9740
5.7509 2.0265 -2.4956 0.9740
5.6742 2.2324 -2.4956 0.9740
5.5900 2.4355 -2.4956 0.9740
5.4986 2.6355 -2.4956 0.9740
5.4000 2.8319 -2.4956 0.9740
5.2944 3.0247 -2.4956 0.9740
5.1820 3.2136 -2.4956 0.9740
5.0628 3.3983 -2.4956 0.9740
4.9370 3.5786 -2.4956 0.9740
4.8048 3.7542 -2.4956 0.9740
4.6663 3.9250 -2.4956 0.9740
4.5218 4.0906 -2.4956 0.9740
4.3714 4.2509 -2.4956 0.9740
3.8870 4.6980 -2.4956 0.9740
3.7151 4.8351 -2.4956 0.9740
3.3571 5.0902 -2.4956 0.9740
2.9817 5.3188 -2.4956 0.9740
2.5907 5.5198 -2.4956 0.9740
2.3901 5.6096 -2.4956 0.9740
1.9797 5.7672 -2.4956 0.9740
1.7706 5.8348 -2.4956 0.9740
1.5591 5.8948 -2.4956 0.9740
1.3456 5.9472 -2.4956 0.9740
0.6957 6.0577 -2.4956 0.9740
0.4769 6.0788 -2.4956 0.9740
0.2575 6.0921 -2.4956 0.9740
-0.4017 6.0842 -2.4956 0.9740
-0.6207 6.0658 -2.4956 0.9740
-0.8389 6.0395 -2.4956 0.9740
-1.0561 6.0054 -2.4956 0.9740
-1.4860 5.9137 -2.4956 0.9740
-2.1157 5.7187 -2.4956 0.9740
-2.3205 5.6387 -2.4956 0.9740
-2.7207 5.4568 -2.4956 0.9740
-3.1067 5.2467 -2.4956 0.9740
3.2969 0.4058 -1.4477 0.9856
3.3674 0.5383 -1.4862 0.9852
5.6181 1.1071 -2.4956 0.9753
5.5746 1.3089 -2.4956 0.9753
5.5238 1.5090 -2.4956 0.9753
5.4007 1.9031 -2.4956 0.9753
5.2496 2.2872 -2.4956 0.9753
5.0711 2.6595 -2.4956 0.9753
4.9720 2.8405 -2.4956 0.9753
4.8664 3.0179 -2.4956 0.9753
4.7544 3.1913 -2.4956 0.9753
4.6363 3.3606 -2.4956 0.9753
4.5121 3.5256 -2.4956 0.9753
4.3821 3.6859 -2.4956 0.9753
3.9586 4.1374 -2.4956 0.9753
3.4888 4.5406 -2.4956 0.9753
2.9783 4.8907 -2.4956 0.9753
2.8001 4.9949 -2.4956 0.9753
2.6182 5.0925 -2.4956 0.9753
2.0532 5.3454 -2.4956 0.9753
1.8592 5.4159 -2.4956 0.9753
1.6627 5.4794 -2.4956 0.9753
1.4641 5.5358 -2.4956 0.9753
1.0615 5.6269 -2.4956 0.9753
0.8580 5.6615 -2.4956 0.9753
-0.3772 5.7137 -2.4956 0.9753
-0.7879 5.6717 -2.4956 0.9753
-0.9918 5.6396 -2.4956 0.9753
-1.7920 5.4385 -2.4956 0.9753
-1.9869 5.3704 -2.4956 0.9753
-2.5550 5.1245 -2.4956 0.9753
-2.7381 5.0291 -2.4956 0.9753
-2.9176 4.9271 -2.4956 0.9753
3.2753 0.4031 -1.5275 0.9856
5.2896 1.0424 -2.4956 0.9765
5.1462 1.6073 -2.4956 0.9765
5.0170 1.9739 -2.4956 0.9765
4.8617 2.3302 -2.4956 0.9765
4.6813 2.6744 -2.4956 0.9765
4.5818 2.8414 -2.4956 0.9765
4.4764 3.0047 -2.4956 0.9765
4.3652 3.1641 -2.4956 0.9765
4.2483 3.3194 -2.4956 0.9765
3.7271 3.8955 -2.4956 0.9765
3.5843 4.0273 -2.4956 0.9765
3.2848 4.2751 -2.4956 0.9765
3.1286 4.3907 -2.4956 0.9765
2.4651 4.7947 -2.4956 0.9765
1.9331 5.0328 -2.4956 0.9765
1.7504 5.0992 -2.4956 0.9765
0.9994 5.2979 -2.4956 0.9765
0.4217 5.3748 -2.4956 0.9765
0.2277 5.3865 -2.4956 0.9765
0.0334 5.3912 -2.4956 0.9765
-0.5488 5.3633 -2.4956 0.9765
-0.7418 5.3400 -2.4956 0.9765
-0.9338 5.3098 -2.4956 0.9765
-1.1253 5.2727 -2.4956 0.9765
-1.8707 5.0564 -2.4956 0.9765
-2.0517 4.9856 -2.4956 0.9765
-2.4056 4.8249 -2.4956 0.9765
3.2524 0.2818 -1.6013 0.9856
4.9916 0.9837 -2.4956 0.9776
4.9529 1.1629 -2.4956 0.9776
4.8562 1.5168 -2.4956 0.9776
4.5056 2.3629 -2.4956 0.9776
4.4175 2.5237 -2.4956 0.9776
4.3236 2.6813 -2.4956 0.9776
3.8934 3.2749 -2.4956 0.9776
3.5171 3.6760 -2.4956 0.9776
3.3823 3.8004 -2.4956 0.9776
3.2431 3.9198 -2.4956 0.9776
2.9523 4.1433 -2.4956 0.9776
2.8010 4.2470 -2.4956 0.9776
2.6461 4.3452 -2.4956 0.9776
1.9942 4.6804 -2.4956 0.9776
1.8242 4.7493 -2.4956 0.9776
0.9431 4.9994 -2.4956 0.9776
0.7623 5.0301 -2.4956 0.9776
0.5805 5.0543 -2.4956 0.9776
0.2148 5.0830 -2.4956 0.9776
0.0315 5.0874 -2.4956 0.9776
-0.3352 5.0765 -2.4956 0.9776
-0.5179 5.0611 -2.4956 0.9776
-1.2399 4.9341 -2.4956 0.9776
-1.4170 4.8862 -2.4956 0.9776
-1.7653 4.7714 -2.4956 0.9776
-1.9361 4.7047 -2.4956 0.9776
-2.1045 4.6319 -2.4956 0.9776
3.2324 0.3979 -1.6895 0.9854
3.2804 0.5244 -1.7234 0.9851
4.7197 0.9301 -2.4956 0.9786
4.6831 1.0996 -2.4956 0.9786
4.6404 1.2677 -2.4956 0.9786
4.4765 1.7612 -2.4956 0.9786
4.3379 2.0791 -2.4956 0.9786
4.2602 2.2342 -2.4956 0.9786
4.1769 2.3862 -2.4956 0.9786
4.0881 2.5353 -2.4956 0.9786
3.9941 2.6810 -2.4956 0.9786
3.8949 2.8232 -2.4956 0.9786
3.7906 2.9618 -2.4956 0.9786
3.5673 3.2272 -2.4956 0.9786
3.4487 3.3537 -2.4956 0.9786
3.1981 3.5934 -2.4956 0.9786
2.9309 3.8145 -2.4956 0.9786
2.7915 3.9176 -2.4956 0.9786
2.3523 4.1961 -2.4956 0.9786
2.1995 4.2782 -2.4956 0.9786
1.3968 4.6032 -2.4956 0.9786
1.2300 4.6505 -2.4956 0.9786
1.0615 4.6918 -2.4956 0.9786
0.2031 4.8061 -2.4956 0.9786
0.0297 4.8104 -2.4956 0.9786
-0.6619 4.7647 -2.4956 0.9786
-1.1724 4.6654 -2.4956 0.9786
-1.3398 4.6201 -2.4956 0.9786
-1.6691 4.5115 -2.4956 0.9786
-1.8307 4.4484 -2.4956 0.9786
-1.9898 4.3796 -2.4956 0.9786
-2.1464 4.3050 -2.4956 0.9786
-2.3002 4.2248 -2.4956 0.9786
-2.4510 4.1392 -2.4956 0.9786
3.2075 0.2779 -1.7634 0.9854
3.2165 0.3959 -1.7750 0.9853
3.2512 0.5197 -1.8033 0.9851
3.5074 0.6912 -1.9580 0.9838
4.3954 1.2007 -2.4956 0.9794
4.3492 1.3584 -2.4956 0.9794
4.2974 1.5143 -2.4956 0.9794
4.2401 1.6682 -2.4956 0.9794
4.1772 1.8199 -2.4956 0.9794
4.1089 1.9693 -2.4956 0.9794
3.7832 2.5394 -2.4956 0.9794
3.3789 3.0567 -2.4956 0.9794
2.9046 3.5106 -2.4956 0.9794
2.6441 3.7107 -2.4956 0.9794
2.5086 3.8036 -2.4956 0.9794
2.3699 3.8916 -2.4956 0.9794
1.6337 4.2534 -2.4956 0.9794
1.4794 4.3096 -2.4956 0.9794
1.3230 4.3601 -2.4956 0.9794
1.1650 4.4049 -2.4956 0.9794
1.0055 4.4441 -2.4956 0.9794
0.6827 4.5049 -2.4956 0.9794
0.3564 4.5424 -2.4956 0.9794
0.1924 4.5523 -2.4956 0.9794
0.0280 4.5338 -2.4832 0.9795
-0.3002 4.5465 -2.4956 0.9794
-0.6269 4.5130 -2.4956 0.9794
-0.7892 4.4875 -2.4956 0.9794
-0.9504 4.4561 -2.4956 0.9794
-1.1104 4.4190 -2.4956 0.9794
-1.5810 4.2733 -2.4956 0.9794
-1.7340 4.2135 -2.4956 0.9794
-2.0331 4.0777 -2.4956 0.9794
-2.1787 4.0017 -2.4956 0.9794
3.2230 0.5152 -1.8845 0.9850
3.4565 0.6812 -2.0340 0.9839
4.1259 1.2886 -2.4956 0.9802
4.0768 1.4365 -2.4956 0.9802
4.0223 1.5825 -2.4956 0.9802
3.9627 1.7265 -2.4956 0.9802
3.7531 2.1442 -2.4956 0.9802
3.4060 2.6613 -2.4956 0.9802
3.3079 2.7823 -2.4956 0.9802
3.2054 2.8998 -2.4956 0.9802
2.9882 3.1232 -2.4956 0.9802
2.6336 3.4275 -2.4956 0.9802
2.1137 3.7704 -2.4956 0.9802
1.6943 3.9765 -2.4956 0.9802
1.4034 4.0883 -2.4956 0.9802
0.8013 4.2475 -2.4956 0.9802
0.6476 4.2736 -2.4956 0.9802
0.3381 4.3092 -2.4956 0.9802
0.0266 4.3010 -2.4832 0.9803
-0.5947 4.2813 -2.4956 0.9802
-0.9016 4.2273 -2.4956 0.9802
-1.2039 4.1514 -2.4956 0.9802
-1.4998 4.0539 -2.4956 0.9802
-1.6450 3.9971 -2.4956 0.9802
-1.7880 3.9353 -2.4956 0.9802
-1.9287 3.8683 -2.4956 0.9802
-2.0669 3.7962 -2.4956 0.9802
-2.2023 3.7193 -2.4956 0.9802
