ply
format ascii 1.0
element vertex 1259
property float32 x
property float32 y
property float32 z
property float32 I
end_header
12.0615 11.5314 2.9424 0.9345
11.2939 11.5973 2.8544 0.9364
9.8505 11.6783 2.6939 0.9398
8.5258 11.7116 2.5543 0.9429
7.9794 11.8268 2.5156 0.9437
6.8212 11.8559 2.4118 0.9460
5.2400 11.8957 2.2920 0.9486
4.7452 11.9081 2.2603 0.9493
4.2634 11.9202 2.2322 0.9499
3.7927 11.9321 2.2077 0.9504
2.4331 11.9662 2.1531 0.9516
1.1243 11.9991 2.1250 0.9522
0.6938 12.0099 2.1212 0.9523
-12.6857 41.0801 7.5810 0.8398
-14.3260 41.1214 7.6782 0.8379
-13.9264 26.8733 5.3370 0.8843
-15.1856 26.9049 5.4476 0.8821
-16.4997 26.9380 5.5701 0.8796
-12.7280 14.2748 3.3723 0.9253
-13.5209 12.2336 3.2151 0.9286
-15.7030 12.2884 3.5159 0.9222
-18.3503 12.3550 3.9007 0.9141
-23.6755 12.4888 4.7198 0.8970
-25.9956 12.5471 5.0897 0.8894
-33.4624 5.5344 5.9805 0.8713
10.5706 11.6603 2.4110 0.9383
7.9794 11.8268 2.1856 0.9439
5.7495 11.8829 2.0223 0.9480
2.7618 9.9007 1.5746 0.9593
2.0169 9.9194 1.5507 0.9599
1.6519 9.9286 1.5419 0.9601
1.2906 9.9377 1.5352 0.9603
0.5751 9.9556 1.5277 0.9604
0.2191 9.9646 1.5269 0.9605
-1.5807 10.0098 1.5525 0.9598
-12.6857 41.0801 6.5865 0.8403
-12.2088 31.3879 5.1594 0.8726
-12.2810 28.5148 4.7562 0.8819
-12.1977 25.7490 4.3648 0.8911
-12.5227 18.8950 3.4726 0.9124
-12.6153 15.2089 3.0271 0.9232
-12.6412 14.1776 2.9099 0.9260
-12.6653 13.2220 2.8049 0.9286
-13.5209 12.2336 2.7933 0.9289
-17.0460 12.3839 3.2277 0.9183
-19.9081 12.3941 3.5926 0.9095
-21.7684 12.4963 3.8452 0.9034
-26.0886 12.5920 4.4378 0.8894
-28.7140 12.6154 4.8046 0.8808
-31.4815 12.5099 5.1896 0.8719
11.3364 11.6410 2.1159 0.9366
10.5706 11.6603 2.0495 0.9385
9.1705 11.6954 1.9354 0.9418
6.6145 9.8039 1.5401 0.9534
6.2004 9.9380 1.5254 0.9538
5.8415 10.1532 1.5254 0.9538
3.9448 11.0295 1.5254 0.9538
3.5483 11.1633 1.5254 0.9538
3.1474 11.2829 1.5254 0.9538
2.7424 11.3881 1.5254 0.9538
2.3340 11.4788 1.5254 0.9538
1.9225 11.5548 1.5254 0.9538
-1.4128 11.6281 1.5254 0.9538
-1.6758 10.6121 1.3990 0.9576
-12.6857 41.0801 5.5987 0.8408
-14.3260 41.1214 5.6705 0.8389
-11.2092 26.0263 3.6901 0.8920
-12.7159 26.8429 3.8679 0.8871
-15.1306 26.8075 4.0086 0.8832
-12.5565 17.5509 2.8102 0.9166
-12.5872 16.3284 2.6847 0.9202
-12.6153 15.2089 2.5732 0.9234
-14.5632 12.2598 2.4790 0.9261
-15.7030 12.2884 2.5966 0.9227
-23.7985 12.5536 3.5038 0.8971
-28.7140 12.6154 4.0841 0.8812
-31.9519 12.6968 4.4773 0.8705
10.1848 9.7372 1.5131 0.9449
9.8306 10.0947 1.5131 0.9449
9.4638 10.4394 1.5131 0.9449
8.3681 9.9209 1.3937 0.9491
8.6944 11.0883 1.5131 0.9449
6.8212 11.8559 1.4688 0.9465
6.2758 11.8696 1.4418 0.9474
5.7495 11.8829 1.4175 0.9483
4.7452 11.9081 1.3765 0.9497
4.2634 11.9202 1.3594 0.9503
3.3317 11.9436 1.3315 0.9513
2.8789 11.9550 1.3204 0.9517
1.9928 11.9773 1.3038 0.9523
1.5445 11.8925 1.2878 0.9529
0.2622 11.9247 1.2808 0.9531
-0.5913 11.9462 1.2844 0.9530
-1.0292 12.0532 1.2990 0.9525
-1.8450 11.6830 1.2701 0.9535
-11.8911 44.0273 4.8971 0.8324
-10.2058 26.2385 3.0232 0.8929
-12.7159 26.8429 3.1895 0.8874
-13.9264 26.8733 3.2502 0.8854
-15.1856 26.9049 3.3175 0.8831
-12.6153 15.2089 2.1219 0.9236
-12.6412 14.1776 2.0397 0.9264
-12.6876 12.3318 1.8999 0.9313
-13.5209 12.2336 1.9580 0.9293
-14.5632 12.2598 2.0442 0.9263
-18.3503 12.3550 2.3755 0.9148
-19.9081 12.3941 2.5182 0.9100
-21.6674 12.4383 2.6828 0.9044
-23.6755 12.4888 2.8744 0.8979
-31.9519 12.6968 3.6920 0.8708
8.3681 9.9209 1.0987 0.9492
9.1393 11.6557 1.2538 0.9423
8.4416 11.5960 1.2142 0.9440
6.8217 11.8568 1.1580 0.9466
5.7495 11.8829 1.1175 0.9484
5.2400 11.8957 1.1004 0.9492
4.2634 11.9202 1.0717 0.9504
3.3488 12.0049 1.0551 0.9512
2.8937 12.0164 1.0463 0.9516
2.4331 11.9662 1.0337 0.9522
1.1243 11.9991 1.0202 0.9528
0.2622 11.9247 1.0097 0.9532
-1.0292 12.0532 1.0241 0.9526
-3.5198 22.2888 1.9102 0.9134
-12.6857 41.0801 3.6396 0.8415
-14.3174 41.0966 3.6840 0.8397
-10.3872 26.7049 2.4256 0.8913
-13.8760 26.7760 2.5529 0.8860
-12.5227 18.8950 1.9189 0.9130
-12.5872 16.3284 1.7453 0.9206
-12.6412 14.1776 1.6080 0.9266
-12.6653 13.2220 1.5499 0.9291
-12.1170 11.7772 1.4304 0.9344
-12.1162 10.9626 1.3832 0.9365
-16.2697 10.9541 1.6604 0.9243
-16.6505 10.3661 1.6604 0.9243
-21.6674 12.4383 2.1149 0.9046
-25.9956 12.5471 2.4435 0.8906
-28.7140 12.6154 2.6550 0.8817
-31.9519 12.6968 2.9105 0.8711
-42.6162 -16.6234 3.8723 0.8322
-38.6139 -16.6746 3.5605 0.8446
12.1546 11.6204 1.0428 0.9348
11.2939 11.5973 1.0038 0.9372
8.3681 9.9209 0.8048 0.9493
9.1739 11.6997 0.9219 0.9422
8.4416 11.5960 0.8894 0.9441
7.3914 11.8471 0.8659 0.9456
6.8245 11.8616 0.8486 0.9466
6.2758 11.8696 0.8326 0.9476
4.2634 11.9202 0.7850 0.9505
3.3488 12.0049 0.7729 0.9513
2.8937 12.0164 0.7664 0.9517
1.9928 11.9773 0.7529 0.9525
1.5569 11.9882 0.7496 0.9527
0.6938 12.0099 0.7460 0.9529
0.2622 11.9247 0.7396 0.9533
-2.6680 11.4947 0.7317 0.9538
-10.3872 26.7049 1.7768 0.8915
-11.4972 26.6949 1.8024 0.8900
-12.9708 25.0291 1.7481 0.8932
-12.5227 18.8950 1.4057 0.9132
-11.5277 12.0344 1.0334 0.9354
-11.5415 11.2178 0.9980 0.9375
-11.5044 10.4091 0.9621 0.9397
-14.5632 12.2598 1.1805 0.9265
-15.7030 12.2884 1.2365 0.9232
-19.9081 12.3941 1.4542 0.9103
-24.1135 11.6387 1.6604 0.8982
-24.5138 10.7701 1.6604 0.8982
-31.9519 12.6968 2.1320 0.8713
12.1546 11.6204 0.6631 0.9349
10.5706 11.6603 0.6206 0.9389
8.4416 11.5960 0.5656 0.9442
7.9794 11.8268 0.5626 0.9445
6.8272 11.8664 0.5398 0.9467
4.7452 11.9081 0.5055 0.9500
4.2634 11.9202 0.4992 0.9506
2.8937 12.0164 0.4874 0.9517
2.4331 11.9662 0.4815 0.9523
1.1243 11.9991 0.4752 0.9529
-0.1653 12.0315 0.4745 0.9530
-0.5961 12.0423 0.4754 0.9529
-1.0292 12.0532 0.4770 0.9527
-3.5083 22.2160 0.8869 0.9139
-3.1679 10.2586 0.4234 0.9579
-11.8447 25.0039 1.0910 0.8952
-12.9708 25.0291 1.1116 0.8933
-15.3674 25.0894 1.1601 0.8889
-12.6426 17.6713 0.8568 0.9167
-12.5872 16.3284 0.8129 0.9208
-12.6153 15.2089 0.7792 0.9239
-10.9698 11.4520 0.6253 0.9385
-18.3503 12.3550 0.8723 0.9153
-19.9081 12.3941 0.9247 0.9104
-25.9956 12.5471 1.1382 0.8909
-28.7140 12.6154 1.2367 0.8820
-31.9519 12.6968 1.3557 0.8714
-32.7018 11.6605 1.3690 0.8702
8.3681 9.9209 0.2192 0.9494
9.1819 11.7100 0.2514 0.9422
8.4416 11.5960 0.2423 0.9442
7.9794 11.8268 0.2410 0.9445
7.3975 11.8568 0.2361 0.9456
6.8299 11.8712 0.2313 0.9467
4.2633 11.9202 0.2138 0.9506
3.7927 11.9321 0.2115 0.9511
3.3488 12.0049 0.2105 0.9514
2.8937 12.0164 0.2088 0.9518
2.4331 11.9662 0.2063 0.9523
1.1243 11.9991 0.2036 0.9529
0.2622 11.9247 0.2015 0.9534
-0.1653 12.0315 0.2033 0.9530
-0.5961 12.0423 0.2037 0.9529
-2.6293 21.6410 0.3682 0.9165
-3.4163 21.6330 0.3699 0.9161
-3.2362 11.9823 0.2097 0.9516
-3.4827 11.2781 0.1994 0.9539
-3.5379 10.1551 0.1816 0.9579
-9.2913 21.5732 0.3968 0.9103
-12.1598 21.5440 0.4179 0.9058
-12.5227 18.8950 0.3829 0.9133
-12.6426 17.6713 0.3670 0.9167
-12.5872 16.3284 0.3483 0.9208
-12.6153 15.2089 0.3338 0.9240
-10.7552 12.0623 0.2730 0.9374
-14.5632 12.2598 0.3216 0.9267
-21.6904 12.4516 0.4225 0.9048
-25.9956 12.5471 0.4876 0.8909
8.3681 9.9209 -0.0731 0.9494
8.4416 11.5960 -0.0808 0.9442
7.9794 11.8268 -0.0803 0.9445
7.4005 11.8616 -0.0787 0.9456
6.2758 11.8696 -0.0756 0.9477
5.7495 11.8829 -0.0743 0.9486
4.7452 11.9081 -0.0722 0.9500
1.9928 11.9773 -0.0684 0.9526
1.5569 11.9882 -0.0681 0.9528
1.1243 11.9991 -0.0679 0.9529
-0.1653 12.0315 -0.0677 0.9530
-2.6293 21.6411 -0.1227 0.9165
-3.4163 21.6331 -0.1233 0.9161
-5.0174 21.6168 -0.1249 0.9151
-3.2362 11.9823 -0.0699 0.9516
-6.2982 20.3956 -0.1202 0.9182
-7.1071 20.4003 -0.1216 0.9172
-12.5043 17.4779 -0.1210 0.9176
-12.5872 16.3284 -0.1161 0.9208
-12.6153 15.2089 -0.1113 0.9240
-10.7552 12.0623 -0.0910 0.9374
-12.6653 13.2220 -0.1031 0.9294
-13.4117 12.1348 -0.1018 0.9302
-13.4113 10.4951 -0.0959 0.9341
-15.6285 10.5224 -0.1061 0.9274
-22.5157 10.8675 -0.1408 0.9048
-28.7140 12.6154 -0.1766 0.8821
-45.0267 -17.5637 -0.2721 0.8242
-40.6502 -17.5540 -0.2493 0.8377
10.3843 9.9279 -0.4045 0.9441
11.3364 11.6410 -0.4575 0.9370
8.3681 9.9209 -0.3654 0.9494
8.2924 11.3911 -0.3967 0.9452
6.8232 10.1131 -0.3435 0.9524
7.3997 11.8603 -0.3936 0.9456
6.2758 11.8696 -0.3781 0.9477
5.2400 11.8957 -0.3660 0.9493
4.7452 11.9081 -0.3609 0.9500
3.6380 10.1718 -0.3042 0.9577
2.4567 10.2014 -0.2955 0.9589
2.4331 11.9662 -0.3438 0.9523
0.9594 10.2391 -0.2896 0.9597
0.6938 12.0099 -0.3387 0.9530
-0.1411 10.2667 -0.2891 0.9597
-0.5961 12.0423 -0.3395 0.9529
-1.0292 12.0532 -0.3406 0.9527
-1.6238 10.2824 -0.2931 0.9592
-5.0174 21.6168 -0.6249 0.9150
-6.0755 19.6743 -0.5798 0.9209
-6.8558 19.6788 -0.5868 0.9200
-10.2152 21.5639 -0.6719 0.9089
-12.5227 18.8950 -0.6383 0.9133
-12.6153 15.2089 -0.5564 0.9240
-13.5209 12.2336 -0.5134 0.9296
-13.4113 10.4951 -0.4795 0.9341
-16.9580 12.3200 -0.5902 0.9195
-15.6285 10.5224 -0.5305 0.9274
-16.9552 10.5557 -0.5624 0.9232
-22.5157 10.8675 -0.7040 0.9048
-45.0296 -17.5649 -1.3610 0.8241
-40.6493 -17.5536 -1.2468 0.8376
10.3843 9.9279 -0.7286 0.9441
7.8951 10.0689 -0.6489 0.9500
8.2924 11.3911 -0.7146 0.9451
7.3940 11.8511 -0.7084 0.9456
5.8360 10.1436 -0.5935 0.9542
6.2758 11.8696 -0.6809 0.9476
5.2400 11.8957 -0.6592 0.9493
4.7452 11.9081 -0.6501 0.9500
3.6380 10.1718 -0.5479 0.9577
3.7927 11.9321 -0.6350 0.9511
3.3317 11.9436 -0.6288 0.9516
2.4567 10.2014 -0.5321 0.9588
2.4331 11.9662 -0.6193 0.9523
1.9928 11.9773 -0.6158 0.9525
1.5569 11.9882 -0.6131 0.9527
0.2643 12.0207 -0.6098 0.9530
-0.1411 10.2667 -0.5207 0.9597
-0.5961 12.0423 -0.6115 0.9529
-1.0292 12.0532 -0.6135 0.9527
-1.8883 11.9575 -0.6139 0.9527
-5.0174 21.6168 -1.1254 0.9150
-3.2362 11.9823 -0.6294 0.9515
-5.8527 18.9530 -1.0060 0.9236
-6.6044 18.9574 -1.0181 0.9227
-11.1700 21.5542 -1.2312 0.9073
-13.1896 21.5337 -1.2806 0.9038
-12.5227 18.8950 -1.1496 0.9132
-12.6153 15.2089 -1.0021 0.9239
-10.7552 12.0623 -0.8196 0.9373
-12.6653 13.2220 -0.9285 0.9293
-12.6876 12.3318 -0.8973 0.9316
-13.3408 10.4399 -0.8591 0.9344
-14.3629 10.4346 -0.9003 0.9314
-15.5422 10.4643 -0.9502 0.9277
-24.3199 10.6849 -1.3472 0.8991
-27.0623 10.7538 -1.4768 0.8899
-30.3937 10.8375 -1.6365 0.8788
-48.6189 8.0411 -2.4992 0.8209
-48.8751 6.2996 -2.4992 0.8209
-49.0689 4.5500 -2.4992 0.8209
-49.2685 1.0357 -2.4992 0.8209
-49.2169 -2.4840 -2.4992 0.8209
-49.0967 -4.2400 -2.4992 0.8209
-48.9139 -5.9908 -2.4992 0.8209
-48.6688 -7.7339 -2.4992 0.8209
-47.5624 -12.8951 -2.4992 0.8209
-47.0715 -14.5856 -2.4992 0.8209
-40.6484 -17.5532 -2.2454 0.8375
10.2996 9.8469 -1.0448 0.9445
9.6357 9.8946 -1.0127 0.9461
8.3681 9.9209 -0.9516 0.9493
7.8727 10.0404 -0.9355 0.9501
7.3193 10.0543 -0.9119 0.9513
7.3882 11.8419 -1.0234 0.9456
5.8360 10.1436 -0.8581 0.9541
5.7495 11.8829 -0.9679 0.9484
3.6380 10.1718 -0.7921 0.9576
3.3317 11.9436 -0.9092 0.9515
2.4567 10.2014 -0.7694 0.9588
1.9928 11.9773 -0.8903 0.9525
1.5569 11.9882 -0.8864 0.9527
0.6938 12.0099 -0.8821 0.9529
0.2643 12.0207 -0.8816 0.9529
-0.1411 10.2667 -0.7528 0.9597
-0.5961 12.0423 -0.8841 0.9528
-1.0292 12.0532 -0.8870 0.9526
-2.6293 21.6412 -1.5984 0.9163
-3.4163 21.6332 -1.6058 0.9159
-5.7043 18.4722 -1.4175 0.9254
-12.5565 17.5509 -1.5823 0.9171
-12.5872 16.3284 -1.5117 0.9206
-12.6153 15.2089 -1.4488 0.9238
-10.7552 12.0623 -1.1849 0.9372
-11.6024 12.1124 -1.2298 0.9349
-12.4261 12.0776 -1.2706 0.9329
-12.4628 10.4916 -1.1945 0.9367
-13.2999 10.4079 -1.2383 0.9345
-15.5422 10.4643 -1.3738 0.9276
-18.3516 10.5349 -1.5515 0.9186
-24.3199 10.6849 -1.9477 0.8989
-27.0623 10.7538 -2.1352 0.8898
-33.4079 6.7592 -2.4992 0.8722
-33.6280 5.5619 -2.4992 0.8722
-33.8051 4.3572 -2.4992 0.8722
-33.9392 3.1471 -2.4992 0.8722
-34.0299 1.9330 -2.4992 0.8722
-34.0773 0.7164 -2.4992 0.8722
-34.0811 -0.5012 -2.4992 0.8722
-32.5576 -10.0883 -2.4992 0.8722
-32.1766 -11.2447 -2.4992 0.8722
-31.7545 -12.3866 -2.4992 0.8722
-31.2918 -13.5128 -2.4992 0.8722
9.6062 9.8644 -1.3219 0.9462
8.9573 9.8807 -1.2804 0.9478
8.3471 9.8960 -1.2429 0.9493
7.8489 10.0100 -1.2212 0.9502
5.7889 10.0618 -1.1144 0.9544
5.3261 10.0734 -1.0940 0.9552
4.8795 10.0846 -1.0755 0.9560
4.0271 10.1060 -1.0444 0.9572
3.6182 10.1163 -1.0315 0.9577
3.2242 10.1436 -1.0218 0.9581
2.8602 10.2534 -1.0220 0.9581
2.0711 10.1862 -0.9979 0.9591
1.6964 10.1956 -0.9923 0.9593
0.5906 10.2234 -0.9831 0.9597
0.2250 10.2325 -0.9826 0.9597
-0.1407 10.2417 -0.9834 0.9597
-0.5074 10.2510 -0.9853 0.9596
-0.8761 10.2602 -0.9886 0.9595
-2.3436 12.0338 -1.1770 0.9519
-5.4815 17.7509 -1.7836 0.9281
-6.1855 17.7549 -1.8050 0.9272
-6.9076 17.7591 -1.8294 0.9263
-8.4169 17.7678 -1.8875 0.9240
-12.5227 18.8950 -2.1762 0.9129
-12.5872 16.3284 -1.9793 0.9205
-12.6153 15.2089 -1.8971 0.9237
-10.7552 12.0623 -1.5515 0.9371
-11.8531 11.5207 -1.5869 0.9357
-11.5396 10.4410 -1.4940 0.9394
-12.3382 10.3867 -1.5484 0.9372
-13.2999 10.4079 -1.6214 0.9344
-14.3629 10.4346 -1.7044 0.9311
-15.5421 10.4643 -1.7988 0.9275
-18.3516 10.5349 -2.0315 0.9185
-22.3796 9.8324 -2.3468 0.9064
-22.7165 9.0268 -2.3468 0.9064
-25.3140 6.0701 -2.4992 0.9007
-25.5147 5.1622 -2.4992 0.9007
-25.8181 3.3277 -2.4992 0.9007
-25.9986 -1.3121 -2.4992 0.9007
-25.9351 -2.2398 -2.4992 0.9007
-25.7091 -4.0854 -2.4992 0.9007
-24.5743 -8.5879 -2.4992 0.9007
-23.8986 -10.3202 -2.4992 0.9007
9.6062 9.8644 -1.6356 0.9460
8.9573 9.8807 -1.5842 0.9477
7.8489 10.0100 -1.5110 0.9501
7.2971 10.0239 -1.4728 0.9513
6.2700 10.0497 -1.4070 0.9534
5.3261 10.0734 -1.3535 0.9551
4.0271 10.1060 -1.2923 0.9571
3.2187 10.1263 -1.2622 0.9581
2.8275 10.1362 -1.2500 0.9585
2.4433 10.1458 -1.2396 0.9588
2.0649 10.1554 -1.2310 0.9591
1.6912 10.1647 -1.2240 0.9593
1.3213 10.1740 -1.2187 0.9595
0.9542 10.1833 -1.2149 0.9596
-0.1403 10.2108 -1.2130 0.9597
-0.5059 10.2200 -1.2155 0.9596
-1.2439 10.2385 -1.2251 0.9593
-1.6540 10.4739 -1.2596 0.9582
-2.3436 12.0338 -1.4563 0.9518
-2.7806 11.9799 -1.4609 0.9517
-5.3330 17.2700 -2.1470 0.9298
-7.4432 17.2822 -2.2352 0.9270
-8.1861 17.2807 -2.2714 0.9259
-9.3953 16.6460 -2.2705 0.9259
-9.9826 16.2979 -2.2703 0.9259
-11.6680 15.1360 -2.2701 0.9259
-10.7552 12.0623 -1.9197 0.9370
-11.5928 12.1024 -1.9907 0.9347
-11.6117 11.2861 -1.9235 0.9369
-12.3381 10.3866 -1.9158 0.9371
-13.2999 10.4079 -2.0061 0.9342
-14.3629 10.4346 -2.1088 0.9310
-17.1338 9.8358 -2.3468 0.9235
-17.4742 9.2176 -2.3468 0.9235
-17.7923 8.5876 -2.3468 0.9235
-19.5522 7.7694 -2.4992 0.9187
-19.8172 7.0662 -2.4992 0.9187
-20.0569 6.3539 -2.4992 0.9187
-20.8667 2.6895 -2.4992 0.9187
-20.9494 1.9425 -2.4992 0.9187
-21.0054 1.1931 -2.4992 0.9187
-21.0346 0.4422 -2.4992 0.9187
-21.0370 -0.3094 -2.4992 0.9187
-21.0125 -1.0605 -2.4992 0.9187
-20.8832 -2.5577 -2.4992 0.9187
-20.7786 -3.3019 -2.4992 0.9187
-20.6474 -4.0419 -2.4992 0.9187
-20.4899 -4.7767 -2.4992 0.9187
-20.0966 -6.2271 -2.4992 0.9187
-19.6009 -7.6458 -2.4992 0.9187
-19.3153 -8.3410 -2.4992 0.9187
9.6062 9.8644 -1.9509 0.9459
8.9573 9.8807 -1.8896 0.9475
6.2700 10.0497 -1.6783 0.9533
5.3261 10.0734 -1.6145 0.9550
4.8795 10.0846 -1.5874 0.9557
4.4470 10.0955 -1.5631 0.9564
4.0271 10.1060 -1.5414 0.9570
3.6182 10.1163 -1.5223 0.9575
3.2187 10.1263 -1.5055 0.9580
2.4433 10.1458 -1.4787 0.9587
2.0649 10.1554 -1.4683 0.9590
0.9542 10.1833 -1.4492 0.9595
-1.6188 10.2507 -1.4704 0.9589
-2.0209 10.3769 -1.4979 0.9582
-5.3111 15.2451 -2.2874 0.9369
-5.8504 15.0411 -2.2867 0.9369
-6.9058 14.5780 -2.2856 0.9369
-7.4207 14.3195 -2.2852 0.9369
-7.9263 14.0434 -2.2849 0.9369
-8.9072 13.4397 -2.2845 0.9369
-9.3813 13.1129 -2.2845 0.9369
-13.7390 9.2502 -2.3468 0.9353
-15.5335 8.1939 -2.4884 0.9315
-15.8849 7.6670 -2.4992 0.9312
-16.6138 5.9240 -2.4992 0.9312
-17.4937 2.2548 -2.4992 0.9312
-17.6345 0.3707 -2.4992 0.9312
-17.5076 -2.1443 -2.4992 0.9312
-17.4198 -2.7682 -2.4992 0.9312
-17.3098 -3.3885 -2.4992 0.9312
-17.1778 -4.0046 -2.4992 0.9312
-16.8483 -5.2205 -2.4992 0.9312
-16.1451 -6.9719 -2.4918 0.9314
10.2967 9.8441 -2.3468 0.9439
9.6062 9.8644 -2.2683 0.9457
8.9573 9.8807 -2.1970 0.9474
8.3471 9.8960 -2.1328 0.9489
6.7719 10.0371 -1.9946 0.9521
6.2700 10.0497 -1.9514 0.9531
5.3261 10.0734 -1.8772 0.9549
4.8795 10.0846 -1.8456 0.9556
4.4470 10.0955 -1.8173 0.9563
4.0271 10.1060 -1.7922 0.9569
3.0448 9.5792 -1.6559 0.9601
2.7098 9.7143 -1.6614 0.9599
2.0649 10.1554 -1.7072 0.9589
1.3213 10.1740 -1.6901 0.9593
0.9542 10.1833 -1.6849 0.9594
0.5888 10.1924 -1.6819 0.9595
0.2243 10.2016 -1.6810 0.9595
-0.5059 10.2200 -1.6857 0.9594
-0.8735 10.2292 -1.6913 0.9592
-1.2439 10.2385 -1.6991 0.9591
-1.9983 10.2605 -1.7221 0.9585
-3.1565 13.5992 -2.2999 0.9450
-4.1163 13.3298 -2.2983 0.9450
-5.0545 12.9947 -2.2970 0.9450
-5.5141 12.8030 -2.2965 0.9451
-5.9667 12.5954 -2.2960 0.9451
-6.4117 12.3724 -2.2957 0.9451
-7.2770 11.8807 -2.2952 0.9451
-8.1061 11.3303 -2.2950 0.9451
-10.5633 9.5575 -2.3468 0.9439
-10.8979 9.1742 -2.3468 0.9439
-11.2186 8.7791 -2.3468 0.9439
-11.5379 8.3823 -2.3494 0.9438
-13.1567 7.5527 -2.4992 0.9404
-13.6623 6.5942 -2.4992 0.9404
-14.4621 4.5815 -2.4992 0.9404
-14.6165 4.0621 -2.4992 0.9404
-14.7522 3.5374 -2.4992 0.9404
-14.8692 3.0084 -2.4992 0.9404
-14.9671 2.4754 -2.4992 0.9404
-15.0460 1.9393 -2.4992 0.9404
-15.1057 1.4007 -2.4992 0.9404
-15.1671 0.3188 -2.4992 0.9404
-15.1688 -0.2231 -2.4992 0.9404
-15.1142 -1.3053 -2.4992 0.9404
-14.8879 -2.9144 -2.4992 0.9404
-14.6419 -3.9697 -2.4992 0.9404
-14.3211 -5.0048 -2.4992 0.9404
-13.9274 -6.0143 -2.4992 0.9404
8.3857 9.2501 -2.3468 0.9505
8.0500 9.5437 -2.3468 0.9505
7.7040 9.8251 -2.3468 0.9505
7.2971 10.0239 -2.3305 0.9508
4.4470 10.0955 -2.0735 0.9561
4.0271 10.1060 -2.0448 0.9567
2.0649 10.1554 -1.9479 0.9587
1.6912 10.1647 -1.9368 0.9589
1.3213 10.1740 -1.9284 0.9591
0.9542 10.1833 -1.9224 0.9592
0.5888 10.1924 -1.9190 0.9593
-0.1403 10.2108 -1.9194 0.9593
-0.8735 10.2292 -1.9297 0.9591
-1.2439 10.2385 -1.9386 0.9589
-1.6187 10.2505 -1.9506 0.9586
-1.9983 10.2605 -1.9648 0.9583
-2.3840 10.2709 -1.9818 0.9580
-6.7693 10.2139 -2.3032 0.9514
-7.2647 10.1542 -2.3468 0.9505
-8.6367 9.0162 -2.3468 0.9505
-8.9532 8.7021 -2.3468 0.9505
-9.2582 8.3767 -2.3468 0.9505
-11.0293 7.4258 -2.4992 0.9473
-11.2875 7.0272 -2.4992 0.9473
-12.5239 4.4656 -2.4992 0.9473
-12.6754 4.0155 -2.4992 0.9473
-12.9297 3.1004 -2.4992 0.9473
-13.1871 1.6997 -2.4992 0.9473
-13.2748 0.7540 -2.4992 0.9473
-13.2948 -0.1955 -2.4992 0.9473
-13.2793 -0.6702 -2.4992 0.9473
-13.2469 -1.1440 -2.4992 0.9473
-13.1315 -2.0867 -2.4992 0.9473
-13.0486 -2.5544 -2.4992 0.9473
-12.9490 -3.0187 -2.4992 0.9473
-12.8329 -3.4793 -2.4992 0.9473
-12.5518 -4.3865 -2.4992 0.9473
-12.3872 -4.8319 -2.4992 0.9473
7.9916 8.2063 -2.4213 0.9542
7.4617 8.2309 -2.3484 0.9556
7.1581 8.4864 -2.3468 0.9556
6.8505 8.7366 -2.3468 0.9556
6.5341 8.9757 -2.3468 0.9556
6.2094 9.2033 -2.3468 0.9556
5.8767 9.4192 -2.3468 0.9556
5.5366 9.6231 -2.3468 0.9556
5.1893 9.8147 -2.3468 0.9556
4.0271 10.1060 -2.2996 0.9565
3.6182 10.1163 -2.2710 0.9570
3.0259 9.5198 -2.1115 0.9600
2.0649 10.1554 -2.1906 0.9585
1.6912 10.1647 -2.1782 0.9587
1.3213 10.1740 -2.1686 0.9589
0.5888 10.1924 -2.1581 0.9591
-0.5059 10.2200 -2.1629 0.9590
-0.8735 10.2292 -2.1701 0.9589
-1.2439 10.2385 -2.1801 0.9587
-1.6187 10.2505 -2.1936 0.9585
-2.7769 10.2815 -2.2512 0.9574
-3.5977 10.3267 -2.3115 0.9563
-6.1332 9.2542 -2.3468 0.9556
-6.4599 9.0292 -2.3468 0.9556
-7.0879 8.5451 -2.3468 0.9556
-8.4309 8.1945 -2.4852 0.9531
-8.7671 7.9324 -2.4992 0.9528
-9.0448 7.6142 -2.4992 0.9528
-9.8074 6.6031 -2.4992 0.9528
-10.0369 6.2486 -2.4992 0.9528
-10.2537 5.8862 -2.4992 0.9528
-10.4574 5.5162 -2.4992 0.9528
-10.6477 5.1392 -2.4992 0.9528
-10.8245 4.7557 -2.4992 0.9528
-10.9874 4.3661 -2.4992 0.9528
-11.2710 3.5706 -2.4992 0.9528
-11.3914 3.1658 -2.4992 0.9528
-11.4972 2.7569 -2.4992 0.9528
-11.5883 2.3445 -2.4992 0.9528
-11.6646 1.9292 -2.4992 0.9528
-11.7726 1.0916 -2.4992 0.9528
-11.8041 0.6705 -2.4992 0.9528
-11.8205 0.2485 -2.4992 0.9528
-11.8218 -0.1739 -2.4992 0.9528
-11.8081 -0.5960 -2.4992 0.9528
-11.7793 -1.0173 -2.4992 0.9528
-11.7354 -1.4373 -2.4992 0.9528
-11.6766 -1.8556 -2.4992 0.9528
-11.4111 -3.0938 -2.4992 0.9528
-11.2934 -3.4994 -2.4992 0.9528
-11.1612 -3.9005 -2.4992 0.9528
-11.0148 -4.2966 -2.4992 0.9528
-10.8543 -4.6872 -2.4992 0.9528
7.6862 7.3484 -2.4992 0.9572
7.4189 7.6181 -2.4992 0.9572
5.9786 8.2126 -2.3874 0.9591
5.2855 8.4717 -2.3468 0.9598
4.0253 9.1380 -2.3468 0.9598
3.6963 9.2759 -2.3468 0.9598
3.3627 9.4020 -2.3468 0.9598
2.9997 9.4373 -2.3273 0.9601
2.6359 9.4494 -2.3056 0.9605
2.3378 9.7077 -2.3468 0.9598
0.9315 9.9417 -2.3468 0.9598
0.5759 9.9686 -2.3468 0.9598
0.2195 9.9828 -2.3468 0.9598
-0.1372 9.9843 -2.3468 0.9598
-0.8495 9.9491 -2.3468 0.9598
-1.5576 9.8630 -2.3468 0.9598
-1.9088 9.8011 -2.3468 0.9598
-3.2851 9.4294 -2.3468 0.9598
-4.2748 9.0239 -2.3468 0.9598
-5.2155 8.5149 -2.3468 0.9598
-5.5162 8.3232 -2.3468 0.9598
-5.8773 8.2151 -2.3740 0.9593
-6.3242 8.2038 -2.4345 0.9583
-7.0768 7.9369 -2.4992 0.9572
-7.8852 7.1344 -2.4992 0.9572
-8.3743 6.5533 -2.4992 0.9572
-9.0272 5.6200 -2.4992 0.9572
-9.5766 4.6222 -2.4992 0.9572
-9.7355 4.2772 -2.4992 0.9572
-9.8821 3.9268 -2.4992 0.9572
-10.0160 3.5714 -2.4992 0.9572
-10.1372 3.2114 -2.4992 0.9572
-10.2454 2.8473 -2.4992 0.9572
-10.4225 2.1087 -2.4992 0.9572
-10.4912 1.7351 -2.4992 0.9572
-10.6166 0.6030 -2.4992 0.9572
-10.5943 -0.9150 -2.4992 0.9572
-10.2632 -2.7826 -2.4992 0.9572
-10.1573 -3.1473 -2.4992 0.9572
-10.0384 -3.5082 -2.4992 0.9572
6.9769 6.6702 -2.4992 0.9609
6.7342 6.9151 -2.4992 0.9609
6.2234 7.3781 -2.4992 0.9609
5.6808 7.8036 -2.4992 0.9609
5.3985 8.0015 -2.4992 0.9609
4.7184 8.2010 -2.4498 0.9617
4.3406 8.2094 -2.4044 0.9624
3.9758 8.2170 -2.3635 0.9630
3.0523 8.5343 -2.3468 0.9632
2.4354 8.7304 -2.3468 0.9632
2.1220 8.8118 -2.3468 0.9632
1.8059 8.8820 -2.3468 0.9632
1.1673 8.9882 -2.3468 0.9632
0.8456 9.0242 -2.3468 0.9632
0.5228 9.0486 -2.3468 0.9632
-0.7711 9.0309 -2.3468 0.9632
-1.7327 8.8966 -2.3468 0.9632
-2.6743 8.6602 -2.3468 0.9632
-2.9819 8.5591 -2.3468 0.9632
-3.2857 8.4472 -2.3468 0.9632
-3.5853 8.3245 -2.3468 0.9632
-3.8955 8.2233 -2.3560 0.9631
-5.0189 8.1939 -2.4879 0.9611
-5.3323 8.0458 -2.4992 0.9609
-5.8931 7.6446 -2.4992 0.9609
-6.9216 6.7275 -2.4992 0.9609
-7.3842 6.2162 -2.4992 0.9609
-7.6015 5.9486 -2.4992 0.9609
-8.0067 5.3908 -2.4992 0.9609
-8.1941 5.1014 -2.4992 0.9609
-8.3711 4.8054 -2.4992 0.9609
-8.5374 4.5034 -2.4992 0.9609
-8.8371 3.8825 -2.4992 0.9609
-9.2999 2.5846 -2.4992 0.9609
-9.3863 2.2507 -2.4992 0.9609
-9.4607 1.9141 -2.4992 0.9609
-9.6368 0.5474 -2.4992 0.9609
-9.6513 -0.1419 -2.4992 0.9609
-9.6166 -0.8305 -2.4992 0.9609
-9.5808 -1.1735 -2.4992 0.9609
-9.4726 -1.8544 -2.4992 0.9609
-9.4003 -2.1915 -2.4992 0.9609
-9.3160 -2.5258 -2.4992 0.9609
-9.1120 -3.1844 -2.4992 0.9609
5.6919 6.7481 -2.4992 0.9640
5.4473 6.9471 -2.4992 0.9640
4.9375 7.3182 -2.4992 0.9640
4.6730 7.4898 -2.4992 0.9640
4.4025 7.6520 -2.4992 0.9640
4.1264 7.8043 -2.4992 0.9640
3.8451 7.9467 -2.4992 0.9640
2.6075 8.2034 -2.4368 0.9648
2.2897 8.2079 -2.4123 0.9652
1.6704 8.2152 -2.3733 0.9657
1.0689 8.2299 -2.3494 0.9661
0.4781 8.2759 -2.3468 0.9661
0.1822 8.2877 -2.3468 0.9661
-0.1139 8.2889 -2.3468 0.9661
-0.4098 8.2796 -2.3468 0.9661
-0.7053 8.2597 -2.3468 0.9661
-2.2171 8.2089 -2.4072 0.9653
-2.8566 8.1995 -2.4581 0.9645
-3.1871 8.1937 -2.4889 0.9641
-3.7794 7.9781 -2.4992 0.9640
-4.0619 7.8381 -2.4992 0.9640
-4.3393 7.6880 -2.4992 0.9640
-5.1367 7.1798 -2.4992 0.9640
-5.3898 6.9918 -2.4992 0.9640
-5.8752 6.5892 -2.4992 0.9640
-6.3305 6.1530 -2.4992 0.9640
-6.5462 5.9230 -2.4992 0.9640
-6.9523 5.4405 -2.4992 0.9640
-7.1422 5.1888 -2.4992 0.9640
-7.3230 4.9304 -2.4992 0.9640
-7.6562 4.3951 -2.4992 0.9640
-8.0824 3.5509 -2.4992 0.9640
-8.3153 2.9650 -2.4992 0.9640
-8.5847 2.0585 -2.4992 0.9640
-8.6528 1.7506 -2.4992 0.9640
-8.7098 1.4405 -2.4992 0.9640
-8.8139 0.5006 -2.4992 0.9640
-8.8261 0.1855 -2.4992 0.9640
-8.8271 -0.1298 -2.4992 0.9640
-8.8169 -0.4450 -2.4992 0.9640
-8.7954 -0.7596 -2.4992 0.9640
-8.7626 -1.0732 -2.4992 0.9640
-8.7187 -1.3855 -2.4992 0.9640
-8.5976 -2.0044 -2.4992 0.9640
-8.5205 -2.3101 -2.4992 0.9640
-8.4325 -2.6129 -2.4992 0.9640
-8.2245 -3.2082 -2.4992 0.9640
5.8731 5.6149 -2.4992 0.9666
5.6688 5.8211 -2.4992 0.9666
5.2388 6.2109 -2.4992 0.9666
5.0137 6.3940 -2.4992 0.9666
4.7821 6.5690 -2.4992 0.9666
4.5444 6.7356 -2.4992 0.9666
3.7979 7.1830 -2.4992 0.9666
3.2755 7.4358 -2.4992 0.9666
1.9023 7.8994 -2.4992 0.9666
1.6190 7.9624 -2.4992 0.9666
1.3336 8.0151 -2.4992 0.9666
0.7580 8.0899 -2.4992 0.9666
-0.1116 8.1245 -2.4992 0.9666
-0.4017 8.1153 -2.4992 0.9666
-1.2674 8.0258 -2.4992 0.9666
-1.8371 7.9148 -2.4992 0.9666
-2.3974 7.7636 -2.4992 0.9666
-2.6731 7.6729 -2.4992 0.9666
-3.2140 7.4626 -2.4992 0.9666
-3.9938 7.0760 -2.4992 0.9666
-4.2440 6.9288 -2.4992 0.9666
-4.7277 6.6082 -2.4992 0.9666
-4.9607 6.4351 -2.4992 0.9666
-5.6206 5.8676 -2.4992 0.9666
-5.8266 5.6631 -2.4992 0.9666
-6.0251 5.4514 -2.4992 0.9666
-6.2160 5.2328 -2.4992 0.9666
-7.0467 4.0452 -2.4992 0.9666
-7.1867 3.7910 -2.4992 0.9666
-7.3175 3.5318 -2.4992 0.9666
-7.4390 3.2683 -2.4992 0.9666
-7.5510 3.0005 -2.4992 0.9666
-7.7459 2.4538 -2.4992 0.9666
-7.8286 2.1757 -2.4992 0.9666
-7.9013 1.8946 -2.4992 0.9666
-7.9639 1.6112 -2.4992 0.9666
-8.0586 1.0387 -2.4992 0.9666
-8.1122 0.4607 -2.4992 0.9666
-8.1235 0.1707 -2.4992 0.9666
-8.0650 -0.9878 -2.4992 0.9666
-7.9740 -1.5610 -2.4992 0.9666
-7.8422 -2.1262 -2.4992 0.9666
-7.7612 -2.4049 -2.4992 0.9666
-7.6704 -2.6806 -2.4992 0.9666
-7.5698 -2.9528 -2.4992 0.9666
-7.4595 -3.2213 -2.4992 0.9666
5.2454 5.3863 -2.4992 0.9688
5.0497 5.5702 -2.4992 0.9688
4.8475 5.7470 -2.4992 0.9688
4.6392 5.9165 -2.4992 0.9688
4.4249 6.0784 -2.4992 0.9688
4.2050 6.2325 -2.4992 0.9688
3.0309 6.8804 -2.4992 0.9688
2.5320 7.0792 -2.4992 0.9688
2.2775 7.1652 -2.4992 0.9688
1.7602 7.3095 -2.4992 0.9688
0.7014 7.4856 -2.4992 0.9688
0.1653 7.5166 -2.4992 0.9688
-0.9068 7.4635 -2.4992 0.9688
-3.2187 6.7946 -2.4992 0.9688
-3.4593 6.6753 -2.4992 0.9688
-3.9270 6.4113 -2.4992 0.9688
-4.1535 6.2670 -2.4992 0.9688
-4.5902 5.9545 -2.4992 0.9688
-4.7999 5.7868 -2.4992 0.9688
-5.0036 5.6117 -2.4992 0.9688
-5.2008 5.4294 -2.4992 0.9688
-5.3913 5.2402 -2.4992 0.9688
-5.5751 5.0443 -2.4992 0.9688
-5.7517 4.8420 -2.4992 0.9688
-6.0827 4.4190 -2.4992 0.9688
-6.2366 4.1990 -2.4992 0.9688
-6.9870 2.7764 -2.4992 0.9688
-7.1674 2.2705 -2.4992 0.9688
-7.2439 2.0131 -2.4992 0.9688
-7.3691 1.4909 -2.4992 0.9688
-7.4567 0.9611 -2.4992 0.9688
-7.4863 0.6942 -2.4992 0.9688
-7.5168 0.1580 -2.4992 0.9688
-7.5176 -0.1106 -2.4992 0.9688
-7.4905 -0.6469 -2.4992 0.9688
-7.3221 -1.7070 -2.4992 0.9688
-7.2565 -1.9674 -2.4992 0.9688
-7.1816 -2.2253 -2.4992 0.9688
-6.9024 -2.9807 -2.4992 0.9688
5.0514 4.8294 -2.4992 0.9707
4.8757 5.0067 -2.4992 0.9707
4.6938 5.1777 -2.4992 0.9707
4.5059 5.3420 -2.4992 0.9707
4.1131 5.6500 -2.4992 0.9707
3.9087 5.7933 -2.4992 0.9707
3.6993 5.9292 -2.4992 0.9707
3.4852 6.0575 -2.4992 0.9707
2.8172 6.3955 -2.4992 0.9707
2.1170 6.6602 -2.4992 0.9707
1.8778 6.7315 -2.4992 0.9707
1.6362 6.7943 -2.4992 0.9707
1.1470 6.8938 -2.4992 0.9707
0.9001 6.9304 -2.4992 0.9707
0.4031 6.9769 -2.4992 0.9707
-0.0960 6.9879 -2.4992 0.9707
-0.3455 6.9800 -2.4992 0.9707
-1.3360 6.8596 -2.4992 0.9707
-2.0620 6.6774 -2.4992 0.9707
-2.2992 6.5996 -2.4992 0.9707
-2.5334 6.5132 -2.4992 0.9707
-3.2155 6.2049 -2.4992 0.9707
-3.4351 6.0861 -2.4992 0.9707
-4.2667 5.5349 -2.4992 0.9707
-4.6514 5.2162 -2.4992 0.9707
-4.8343 5.0468 -2.4992 0.9707
-5.0114 4.8709 -2.4992 0.9707
-5.1822 4.6888 -2.4992 0.9707
-5.3463 4.5007 -2.4992 0.9707
-5.5037 4.3069 -2.4992 0.9707
-6.0609 3.4793 -2.4992 0.9707
-6.2938 3.0378 -2.4992 0.9707
-6.3983 2.8110 -2.4992 0.9707
-6.4946 2.5807 -2.4992 0.9707
-6.5826 2.3471 -2.4992 0.9707
-6.6623 2.1105 -2.4992 0.9707
-6.7959 1.6296 -2.4992 0.9707
-6.8498 1.3859 -2.4992 0.9707
-6.9312 0.8933 -2.4992 0.9707
-6.9773 0.3963 -2.4992 0.9707
-6.9020 -1.0968 -2.4992 0.9707
-6.8061 -1.5867 -2.4992 0.9707
-6.5108 -2.5397 -2.4992 0.9707
4.7138 4.5066 -2.4992 0.9725
4.0241 5.1320 -2.4992 0.9725
3.6475 5.4062 -2.4992 0.9725
2.8405 5.8704 -2.4992 0.9725
2.4141 6.0582 -2.4992 0.9725
2.1962 6.1405 -2.4992 0.9725
1.7523 6.2817 -2.4992 0.9725
1.5268 6.3402 -2.4992 0.9725
1.2994 6.3908 -2.4992 0.9725
0.8399 6.4672 -2.4992 0.9725
-0.3224 6.5135 -2.4992 0.9725
-1.0173 6.4417 -2.4992 0.9725
-1.2467 6.4012 -2.4992 0.9725
-1.7004 6.2959 -2.4992 0.9725
-2.7919 5.8936 -2.4992 0.9725
-3.0006 5.7902 -2.4992 0.9725
-3.2055 5.6793 -2.4992 0.9725
-3.4063 5.5612 -2.4992 0.9725
-4.5112 4.7095 -2.4992 0.9725
-4.9890 4.1999 -2.4992 0.9725
-5.2761 3.8331 -2.4992 0.9725
-5.4096 3.6422 -2.4992 0.9725
-5.5363 3.4467 -2.4992 0.9725
-5.8732 2.8347 -2.4992 0.9725
-6.0606 2.4082 -2.4992 0.9725
-6.1427 2.1903 -2.4992 0.9725
-6.2834 1.7462 -2.4992 0.9725
-6.3417 1.5207 -2.4992 0.9725
-6.4341 1.0641 -2.4992 0.9725
-6.4680 0.8337 -2.4992 0.9725
-6.4937 0.6021 -2.4992 0.9725
-6.5110 0.3698 -2.4992 0.9725
-6.5208 -0.0959 -2.4992 0.9725
-6.4973 -0.5612 -2.4992 0.9725
-6.4407 -1.0235 -2.4992 0.9725
-6.3512 -1.4806 -2.4992 0.9725
-6.2293 -1.9302 -2.4992 0.9725
-6.0757 -2.3700 -2.4992 0.9725
-5.9871 -2.5855 -2.4992 0.9725
4.4137 4.2197 -2.4992 0.9740
4.1013 4.5240 -2.4992 0.9740
3.9371 4.6676 -2.4992 0.9740
3.5939 4.9367 -2.4992 0.9740
3.4152 5.0619 -2.4992 0.9740
3.0452 5.2928 -2.4992 0.9740
2.8542 5.3982 -2.4992 0.9740
2.6596 5.4967 -2.4992 0.9740
2.4616 5.5881 -2.4992 0.9740
2.0564 5.7496 -2.4992 0.9740
1.2167 5.9838 -2.4992 0.9740
1.0022 6.0235 -2.4992 0.9740
0.7865 6.0554 -2.4992 0.9740
0.5697 6.0797 -2.4992 0.9740
0.1342 6.1048 -2.4992 0.9740
-0.3019 6.0988 -2.4992 0.9740
-0.5195 6.0841 -2.4992 0.9740
-1.1673 5.9937 -2.4992 0.9740
-1.5922 5.8951 -2.4992 0.9740
-1.8017 5.8344 -2.4992 0.9740
-2.0089 5.7664 -2.4992 0.9740
-2.2136 5.6909 -2.4992 0.9740
-2.6141 5.5184 -2.4992 0.9740
-3.0014 5.3177 -2.4992 0.9740
-3.1891 5.2072 -2.4992 0.9740
-3.3734 5.0899 -2.4992 0.9740
-3.5530 4.9662 -2.4992 0.9740
-4.0638 4.5577 -2.4992 0.9740
-4.2240 4.4096 -2.4992 0.9740
-4.8089 3.7632 -2.4992 0.9740
-5.0652 3.4103 -2.4992 0.9740
-5.1838 3.2273 -2.4992 0.9740
-5.2958 3.0401 -2.4992 0.9740
-5.4993 2.6543 -2.4992 0.9740
-5.6747 2.2549 -2.4992 0.9740
-5.7516 2.0508 -2.4992 0.9740
-5.8833 1.6351 -2.4992 0.9740
-5.9380 1.4239 -2.4992 0.9740
-6.0965 0.3462 -2.4992 0.9740
-6.1057 -0.0898 -2.4992 0.9740
-6.0837 -0.5254 -2.4992 0.9740
-5.9926 -1.1731 -2.4992 0.9740
-5.8936 -1.5979 -2.4992 0.9740
-5.7645 -2.0145 -2.4992 0.9740
4.1449 3.9627 -2.4992 0.9753
4.0008 4.1082 -2.4992 0.9753
3.8515 4.2485 -2.4992 0.9753
3.6973 4.3833 -2.4992 0.9753
3.2072 4.7537 -2.4992 0.9753
2.8597 4.9705 -2.4992 0.9753
2.3115 5.2478 -2.4992 0.9753
2.1228 5.3271 -2.4992 0.9753
1.9312 5.3994 -2.4992 0.9753
1.7371 5.4650 -2.4992 0.9753
1.5408 5.5236 -2.4992 0.9753
1.3426 5.5751 -2.4992 0.9753
1.1426 5.6194 -2.4992 0.9753
0.9412 5.6567 -2.4992 0.9753
0.7386 5.6866 -2.4992 0.9753
0.5350 5.7094 -2.4992 0.9753
0.3307 5.7249 -2.4992 0.9753
0.1261 5.7330 -2.4992 0.9753
-0.0787 5.7339 -2.4992 0.9753
-0.4879 5.7136 -2.4992 0.9753
-1.0962 5.6287 -2.4992 0.9753
-1.2965 5.5859 -2.4992 0.9753
-1.4952 5.5360 -2.4992 0.9753
-1.6920 5.4791 -2.4992 0.9753
-2.0788 5.3444 -2.4992 0.9753
-2.2680 5.2667 -2.4992 0.9753
-2.8186 4.9939 -2.4992 0.9753
-3.1679 4.7799 -2.4992 0.9753
-3.3366 4.6637 -2.4992 0.9753
-3.5011 4.5416 -2.4992 0.9753
-3.6610 4.4137 -2.4992 0.9753
-3.8163 4.2801 -2.4992 0.9753
-4.6394 3.3704 -2.4992 0.9753
-4.8681 3.0307 -2.4992 0.9753
-4.9733 2.8549 -2.4992 0.9753
-5.3291 2.1176 -2.4992 0.9753
-5.4013 1.9260 -2.4992 0.9753
-5.4667 1.7318 -2.4992 0.9753
-5.5764 1.3372 -2.4992 0.9753
-5.6874 0.7330 -2.4992 0.9753
-5.7100 0.5294 -2.4992 0.9753
-5.7252 0.3252 -2.4992 0.9753
-5.7338 -0.0843 -2.4992 0.9753
-5.7272 -0.2891 -2.4992 0.9753
-5.6919 -0.6971 -2.4992 0.9753
-5.6276 -1.1017 -2.4992 0.9753
-5.5346 -1.5006 -2.4992 0.9753
3.9026 3.7310 -2.4992 0.9765
3.7668 3.8680 -2.4992 0.9765
3.6263 4.0000 -2.4992 0.9765
3.4811 4.1270 -2.4992 0.9765
3.3315 4.2487 -2.4992 0.9765
3.1776 4.3650 -2.4992 0.9765
3.0197 4.4757 -2.4992 0.9765
2.6925 4.6798 -2.4992 0.9765
2.5236 4.7730 -2.4992 0.9765
2.3516 4.8601 -2.4992 0.9765
2.1765 4.9410 -2.4992 0.9765
1.9986 5.0155 -2.4992 0.9765
1.6355 5.1454 -2.4992 0.9765
1.4507 5.2005 -2.4992 0.9765
1.2641 5.2490 -2.4992 0.9765
0.8862 5.3259 -2.4992 0.9765
0.6954 5.3541 -2.4992 0.9765
0.5037 5.3755 -2.4992 0.9765
0.3114 5.3901 -2.4992 0.9765
-0.0742 5.3986 -2.4992 0.9765
-0.2669 5.3925 -2.4992 0.9765
-0.6512 5.3597 -2.4992 0.9765
-1.0321 5.2995 -2.4992 0.9765
-1.5930 5.1587 -2.4992 0.9765
-2.1357 4.9587 -2.4992 0.9765
-2.3114 4.8793 -2.4992 0.9765
-2.6538 4.7019 -2.4992 0.9765
-2.8200 4.6040 -2.4992 0.9765
-2.9827 4.5004 -2.4992 0.9765
-3.1415 4.3910 -2.4992 0.9765
-3.7348 3.8989 -2.4992 0.9765
-4.0036 3.6224 -2.4992 0.9765
-4.1304 3.4771 -2.4992 0.9765
-4.2519 3.3274 -2.4992 0.9765
-4.4786 3.0153 -2.4992 0.9765
-4.6824 2.6879 -2.4992 0.9765
-4.7754 2.5190 -2.4992 0.9765
-4.8624 2.3469 -2.4992 0.9765
-5.1470 1.6305 -2.4992 0.9765
-5.2019 1.4457 -2.4992 0.9765
-5.2503 1.2589 -2.4992 0.9765
-5.3267 0.8810 -2.4992 0.9765
-5.3548 0.6902 -2.4992 0.9765
-5.3761 0.4985 -2.4992 0.9765
-5.3922 -0.2722 -2.4992 0.9765
-5.3791 -0.4646 -2.4992 0.9765
-5.3322 -0.8474 -2.4992 0.9765
-5.2581 -1.2258 -2.4992 0.9765
-5.2110 -1.4128 -2.4992 0.9765
3.2850 3.8945 -2.4992 0.9776
2.9986 4.1190 -2.4992 0.9776
2.6969 4.3226 -2.4992 0.9776
2.5408 4.4161 -2.4992 0.9776
2.3815 4.5040 -2.4992 0.9776
2.2191 4.5862 -2.4992 0.9776
2.0539 4.6625 -2.4992 0.9776
1.8860 4.7329 -2.4992 0.9776
1.5434 4.8554 -2.4992 0.9776
1.3690 4.9075 -2.4992 0.9776
1.1928 4.9533 -2.4992 0.9776
1.0152 4.9927 -2.4992 0.9776
0.8362 5.0258 -2.4992 0.9776
0.2939 5.0864 -2.4992 0.9776
0.1120 5.0937 -2.4992 0.9776
-0.0700 5.0944 -2.4992 0.9776
-0.2519 5.0886 -2.4992 0.9776
-0.7947 5.0325 -2.4992 0.9776
-0.9740 5.0009 -2.4992 0.9776
-1.3284 4.9186 -2.4992 0.9776
-1.6762 4.8112 -2.4992 0.9776
-1.8469 4.7483 -2.4992 0.9776
-2.1812 4.6044 -2.4992 0.9776
-2.3442 4.5235 -2.4992 0.9776
-2.5043 4.4369 -2.4992 0.9776
-3.2527 3.9214 -2.4992 0.9776
-3.5243 3.6793 -2.4992 0.9776
-3.8977 3.2812 -2.4992 0.9776
-4.0124 3.1398 -2.4992 0.9776
-4.1219 2.9946 -2.4992 0.9776
-4.2263 2.8454 -2.4992 0.9776
-4.3252 2.6927 -2.4992 0.9776
-4.5064 2.3771 -2.4992 0.9776
-4.6646 2.0493 -2.4992 0.9776
-4.7348 1.8814 -2.4992 0.9776
-4.7989 1.7111 -2.4992 0.9776
-4.8570 1.5387 -2.4992 0.9776
-4.9089 1.3642 -2.4992 0.9776
-4.9544 1.1880 -2.4992 0.9776
-4.9937 1.0103 -2.4992 0.9776
-5.0731 0.4704 -2.4992 0.9776
-5.0867 0.2889 -2.4992 0.9776
-5.0938 0.1071 -2.4992 0.9776
-5.0943 -0.0749 -2.4992 0.9776
-5.0884 -0.2568 -2.4992 0.9776
-5.0760 -0.4384 -2.4992 0.9776
-5.0571 -0.6194 -2.4992 0.9776
-4.9618 -1.1568 -2.4992 0.9776
-4.9174 -1.3332 -2.4992 0.9776
-4.8666 -1.5080 -2.4992 0.9776
-4.6774 -2.0199 -2.4992 0.9776
3.4821 3.3290 -2.4992 0.9785
3.2356 3.5691 -2.4992 0.9785
2.9725 3.7909 -2.4992 0.9785
2.8352 3.8947 -2.4992 0.9785
2.6944 3.9935 -2.4992 0.9785
2.4024 4.1756 -2.4992 0.9785
2.2517 4.2587 -2.4992 0.9785
1.9420 4.4086 -2.4992 0.9785
1.7833 4.4751 -2.4992 0.9785
1.6223 4.5360 -2.4992 0.9785
1.2944 4.6402 -2.4992 0.9785
0.9599 4.7208 -2.4992 0.9785
0.7907 4.7520 -2.4992 0.9785
0.6204 4.7772 -2.4992 0.9785
0.4494 4.7963 -2.4992 0.9785
0.1059 4.8162 -2.4992 0.9785
-0.4099 4.7999 -2.4992 0.9785
-0.7514 4.7584 -2.4992 0.9785
-0.9209 4.7285 -2.4992 0.9785
-1.0892 4.6926 -2.4992 0.9785
-1.4214 4.6029 -2.4992 0.9785
-1.5849 4.5492 -2.4992 0.9785
-2.0624 4.3536 -2.4992 0.9785
-2.3679 4.1953 -2.4992 0.9785
-2.5162 4.1080 -2.4992 0.9785
-3.0756 3.7078 -2.4992 0.9785
-3.2060 3.5956 -2.4992 0.9785
-3.8974 2.8314 -2.4992 0.9785
-3.9961 2.6904 -2.4992 0.9785
-4.0896 2.5460 -2.4992 0.9785
-4.1779 2.3983 -2.4992 0.9785
-4.4769 1.7789 -2.4992 0.9785
-4.5925 1.4548 -2.4992 0.9785
-4.6415 1.2899 -2.4992 0.9785
-4.7528 0.7860 -2.4992 0.9785
-4.7779 0.6158 -2.4992 0.9785
-4.7968 0.4447 -2.4992 0.9785
-4.8163 0.1012 -2.4992 0.9785
-4.8113 -0.2429 -2.4992 0.9785
-4.7817 -0.5857 -2.4992 0.9785
-4.6916 -1.0938 -2.4992 0.9785
-4.6016 -1.4259 -2.4992 0.9785
-4.4880 -1.7507 -2.4992 0.9785
-4.4227 -1.9099 -2.4992 0.9785
2.8156 3.5907 -2.4992 0.9794
2.6855 3.6890 -2.4992 0.9794
2.5521 3.7826 -2.4992 0.9794
1.5367 4.2964 -2.4992 0.9794
1.0683 4.4362 -2.4992 0.9794
0.9092 4.4715 -2.4992 0.9794
0.7489 4.5011 -2.4992 0.9794
0.2632 4.5554 -2.4992 0.9794
0.0998 4.5393 -2.4868 0.9795
-0.7118 4.5071 -2.4992 0.9794
-1.0317 4.4448 -2.4992 0.9794
-1.1898 4.4051 -2.4992 0.9794
-1.3463 4.3598 -2.4992 0.9794
-1.5012 4.3090 -2.4992 0.9794
-1.8049 4.1908 -2.4992 0.9794
-1.9535 4.1237 -2.4992 0.9794
-2.3833 3.8911 -2.4992 0.9794
-2.6550 3.7110 -2.4992 0.9794
-2.9131 3.5120 -2.4992 0.9794
-3.1564 3.2951 -2.4992 0.9794
-3.3836 3.0614 -2.4992 0.9794
-3.5935 2.8121 -2.4992 0.9794
-3.8736 2.4115 -2.4992 0.9794
-3.9573 2.2717 -2.4992 0.9794
-4.0359 2.1289 -2.4992 0.9794
-4.2405 1.6850 -2.4992 0.9794
-4.2979 1.5325 -2.4992 0.9794
-4.3499 1.3780 -2.4992 0.9794
-4.3964 1.2218 -2.4992 0.9794
-4.4724 0.9048 -2.4992 0.9794
-4.5435 0.4213 -2.4992 0.9794
-4.5620 0.0958 -2.4992 0.9794
-4.5625 -0.0671 -2.4992 0.9794
-4.5572 -0.2300 -2.4992 0.9794
-4.5461 -0.3926 -2.4992 0.9794
-4.5291 -0.5548 -2.4992 0.9794
-4.5064 -0.7162 -2.4992 0.9794
-4.4438 -1.0360 -2.4992 0.9794
-4.3585 -1.3506 -2.4992 0.9794
-4.2510 -1.6583 -2.4992 0.9794
3.0200 3.1011 -2.4992 0.9802
2.9073 3.2070 -2.4992 0.9802
2.7909 3.3088 -2.4992 0.9802
2.6710 3.4063 -2.4992 0.9802
2.5476 3.4996 -2.4992 0.9802
2.4210 3.5883 -2.4992 0.9802
2.2913 3.6725 -2.4992 0.9802
2.1587 3.7520 -2.4992 0.9802
1.0135 4.2083 -2.4992 0.9802
-0.0592 4.3069 -2.4868 0.9803
-0.9787 4.2166 -2.4992 0.9802
-1.1287 4.1789 -2.4992 0.9802
-1.2772 4.1359 -2.4992 0.9802
-1.8532 3.9119 -2.4992 0.9802
-1.9917 3.8432 -2.4992 0.9802
-2.3913 3.6081 -2.4992 0.9802
-2.5187 3.5204 -2.4992 0.9802
-2.6428 3.4282 -2.4992 0.9802
-2.8808 3.2309 -2.4992 0.9802
-3.1041 3.0170 -2.4992 0.9802
-3.3115 2.7877 -2.4992 0.9802
-3.4089 2.6677 -2.4992 0.9802
-3.6747 2.2877 -2.4992 0.9802
-3.7541 2.1550 -2.4992 0.9802
-3.8287 2.0196 -2.4992 0.9802
-3.8983 1.8816 -2.4992 0.9802
-4.0227 1.5985 -2.4992 0.9802
-4.1266 1.3072 -2.4992 0.9802
-4.2427 0.8584 -2.4992 0.9802
-4.2932 0.5533 -2.4992 0.9802
-4.3217 0.2454 -2.4992 0.9802
-4.3232 -0.2182 -2.4992 0.9802
-4.1779 -1.1327 -2.4992 0.9802
-4.1347 -1.2812 -2.4992 0.9802
-4.0327 -1.5731 -2.4992 0.9802
-3.9740 -1.7161 -2.4992 0.9802
