ply
format ascii 1.0
element vertex 1030
property float32 x
property float32 y
property float32 z
property float32 I
end_header
-39.7479 -24.3974 8.2236 0.8274
-27.4670 -18.2407 5.8139 0.8747
-37.1883 -26.6579 8.0680 0.8304
-34.4392 -26.5989 7.6729 0.8380
-26.6531 -27.4707 6.7490 0.8560
-27.0366 -29.9343 7.1124 0.8489
-27.0964 -32.2442 7.4265 0.8428
-26.4582 -33.8702 7.5784 0.8398
-20.1673 -38.3083 7.6336 0.8388
-18.4721 -38.3509 7.5058 0.8412
-16.9075 -38.5675 7.4252 0.8428
-14.4552 -40.6408 7.6058 0.8393
-11.2829 -40.7205 7.4506 0.8423
-9.7409 -40.7592 7.3893 0.8435
-6.7783 -41.1745 7.3579 0.8441
0.6387 -41.4457 7.3088 0.8450
2.1153 -41.3413 7.2991 0.8452
3.5854 -41.1847 7.2894 0.8454
5.0661 -41.1313 7.3074 0.8451
9.6442 -41.2464 7.4690 0.8419
11.2579 -41.4169 7.5679 0.8400
13.7128 -39.1597 7.3160 0.8449
16.2043 -37.4611 7.1969 0.8472
17.6565 -37.1212 7.2481 0.8462
17.9141 -31.6240 6.4087 0.8628
18.0383 -27.1263 5.7441 0.8761
25.3365 -35.2996 7.6616 0.8382
27.0833 -30.2827 7.1636 0.8479
16.8924 -14.1780 3.8887 0.9143
33.6319 -26.2392 7.5215 0.8409
36.3280 -26.3113 7.9092 0.8334
-27.5074 -18.2675 5.0586 0.8749
-40.1655 -28.7920 7.5707 0.8187
-27.2810 -26.1791 5.7923 0.8581
-27.0923 -32.2393 6.4512 0.8433
-26.8370 -34.3550 6.6784 0.8383
-27.2420 -37.5649 7.1087 0.8288
-4.4925 -27.2896 4.2369 0.8941
-4.6323 -36.1500 5.5833 0.8629
17.7096 -40.9410 6.8336 0.8348
17.9655 -37.7708 6.4075 0.8443
17.7137 -34.0508 5.8800 0.8561
23.5631 -41.5962 7.3237 0.8241
17.9083 -29.1362 5.2392 0.8708
28.9253 -37.4044 7.2436 0.8259
29.6779 -35.6681 7.1082 0.8288
31.5966 -35.3291 7.2610 0.8255
17.0875 -17.7850 3.7783 0.9050
16.9972 -15.3330 3.5068 0.9115
36.4106 -28.4071 7.0747 0.8295
39.4677 -28.5853 7.4655 0.8210
-26.7195 -23.8673 4.6654 0.8654
-26.9360 -29.8229 5.2331 0.8504
-27.2853 -40.5997 6.3699 0.8209
-4.3080 -33.6197 4.4138 0.8722
17.6974 -37.2073 5.3653 0.8469
17.9758 -31.7328 4.7492 0.8632
18.0065 -27.0786 4.2346 0.8771
17.0875 -17.7850 3.2117 0.9053
40.6218 -25.2084 6.2256 0.8246
-27.4985 -18.2616 3.5447 0.8756
-27.2824 -30.2065 4.3708 0.8490
17.7036 -40.9272 4.7884 0.8358
17.7042 -34.0325 4.1194 0.8570
-4.7861 -23.7482 2.0508 0.9073
-3.9115 -23.7602 2.0384 0.9079
17.0875 -17.7850 2.0878 0.9057
40.6732 -27.2987 4.1467 0.8215
-26.4982 -23.6696 2.2032 0.8673
-4.7419 -23.5285 1.4883 0.9083
17.6384 -24.5744 1.8758 0.8858
17.0875 -17.7850 1.5294 0.9059
-3.8769 -23.5502 0.9411 0.9089
-5.3734 -41.9341 1.6670 0.8443
17.0527 -43.6358 1.8473 0.8290
17.0875 -17.7850 0.9725 0.9060
40.5260 -25.1490 1.8807 0.8262
-27.4810 -18.2499 0.5572 0.8764
-27.8033 -41.3705 0.8420 0.8192
-4.7419 -23.5285 0.4054 0.9084
-3.8769 -23.5502 0.4032 0.9089
16.8955 -43.2337 0.7841 0.8305
17.4289 -24.2825 0.5049 0.8873
18.6495 -24.1163 0.5150 0.8852
40.0878 -24.8770 0.7969 0.8280
-33.7589 -17.5357 -0.2142 0.8588
-30.9942 -17.5324 -0.2005 0.8672
-24.4303 -17.5124 -0.1692 0.8867
-18.2361 -17.4995 -0.1423 0.9038
-16.9739 -17.4946 -0.1372 0.9071
-15.8092 -17.5035 -0.1328 0.9100
-14.7055 -17.4992 -0.1287 0.9126
-13.6667 -17.4952 -0.1250 0.9150
-12.6847 -17.4913 -0.1217 0.9172
-10.8648 -17.4843 -0.1159 0.9210
-10.0181 -17.4849 -0.1135 0.9226
-9.2037 -17.4825 -0.1112 0.9240
-8.4195 -17.4801 -0.1092 0.9253
-5.5199 -17.4714 -0.1032 0.9293
-4.8396 -17.4662 -0.1020 0.9301
-3.5194 -17.4628 -0.1003 0.9312
-2.8745 -17.4611 -0.0996 0.9317
-2.2372 -17.4594 -0.0991 0.9320
-0.9789 -17.4561 -0.0984 0.9325
0.8928 -17.4474 -0.0984 0.9325
1.5188 -17.4462 -0.0986 0.9323
2.7840 -17.4435 -0.0995 0.9318
4.0780 -17.4408 -0.1008 0.9309
5.4157 -17.4381 -0.1028 0.9296
7.5425 -17.4368 -0.1070 0.9268
9.0681 -17.4314 -0.1106 0.9244
10.7105 -17.4256 -0.1152 0.9214
11.5895 -17.4284 -0.1178 0.9197
12.5071 -17.4253 -0.1208 0.9178
14.4928 -17.4184 -0.1276 0.9133
17.0875 -17.7850 -0.1389 0.9061
39.6284 -28.7017 -0.2755 0.8222
39.6914 -26.6399 -0.2691 0.8260
39.9331 -22.8477 -0.2590 0.8319
43.4845 -22.8586 -0.2766 0.8216
-36.9454 -17.5453 -1.1517 0.8490
-28.5532 -17.5261 -0.9434 0.8745
-26.3761 -17.5162 -0.8915 0.8810
-22.6705 -17.5094 -0.8066 0.8917
-19.5975 -17.5055 -0.7399 0.9002
-18.2368 -17.5002 -0.7117 0.9038
-16.9746 -17.4953 -0.6864 0.9071
-15.8085 -17.5028 -0.6641 0.9099
-14.7049 -17.4985 -0.6436 0.9126
-13.6661 -17.4945 -0.6251 0.9150
-12.6842 -17.4906 -0.6084 0.9172
-10.8644 -17.4836 -0.5796 0.9209
-10.0177 -17.4842 -0.5674 0.9225
-9.2033 -17.4818 -0.5563 0.9240
-8.4192 -17.4794 -0.5463 0.9253
-7.6618 -17.4771 -0.5373 0.9265
-5.5197 -17.4707 -0.5159 0.9293
-2.8745 -17.4611 -0.4983 0.9316
-0.3544 -17.4545 -0.4916 0.9325
0.2689 -17.4491 -0.4914 0.9326
2.7841 -17.4439 -0.4974 0.9318
3.4266 -17.4426 -0.5005 0.9313
5.4158 -17.4385 -0.5142 0.9295
7.5427 -17.4371 -0.5350 0.9268
11.5896 -17.4287 -0.5894 0.9197
12.5073 -17.4255 -0.6040 0.9177
13.4729 -17.4222 -0.6201 0.9156
14.4930 -17.4187 -0.6380 0.9133
15.5751 -17.4149 -0.6579 0.9107
39.6272 -28.7009 -1.3777 0.8222
39.6921 -26.6403 -1.3460 0.8259
39.7496 -24.6672 -1.3173 0.8293
43.4843 -22.8585 -1.3833 0.8215
-36.9479 -17.5464 -2.0743 0.8489
-30.9924 -17.5314 -1.8058 0.8671
-22.6708 -17.5096 -1.4527 0.8916
-21.0733 -17.5120 -1.3896 0.8961
-18.2375 -17.5009 -1.2819 0.9037
-16.9752 -17.4959 -1.2363 0.9070
-15.8078 -17.5020 -1.1960 0.9099
-14.7043 -17.4978 -1.1591 0.9125
-13.6655 -17.4937 -1.1258 0.9149
-11.7518 -17.4863 -1.0685 0.9191
-10.0173 -17.4834 -1.0219 0.9225
-9.2029 -17.4810 -1.0019 0.9239
-8.4188 -17.4787 -0.9839 0.9252
-7.6615 -17.4764 -0.9677 0.9264
-6.9277 -17.4742 -0.9533 0.9275
-6.2145 -17.4721 -0.9405 0.9284
-3.5194 -17.4628 -0.9034 0.9311
-2.8745 -17.4612 -0.8974 0.9316
-2.2373 -17.4595 -0.8927 0.9319
-1.6059 -17.4579 -0.8891 0.9322
-0.9789 -17.4562 -0.8867 0.9324
-0.3544 -17.4546 -0.8854 0.9325
0.8928 -17.4482 -0.8860 0.9324
1.5189 -17.4469 -0.8882 0.9323
2.1488 -17.4456 -0.8914 0.9320
4.0782 -17.4416 -0.9084 0.9308
6.1080 -17.4425 -0.9373 0.9287
6.8155 -17.4400 -0.9496 0.9277
7.5428 -17.4375 -0.9635 0.9267
8.2928 -17.4348 -0.9791 0.9256
11.5898 -17.4288 -1.0615 0.9196
12.5074 -17.4257 -1.0878 0.9177
13.4730 -17.4224 -1.1169 0.9156
14.4932 -17.4189 -1.1492 0.9132
15.5753 -17.4152 -1.1849 0.9107
17.0875 -17.7850 -1.2508 0.9059
35.3992 -34.3039 -2.4999 0.8208
32.4506 -23.5030 -2.0320 0.8517
37.6088 -23.3386 -2.2447 0.8375
41.7962 -20.1003 -2.3520 0.8305
43.0407 -17.0331 -2.3475 0.8308
43.6215 -15.4855 -2.3475 0.8308
47.0125 -14.8216 -2.4999 0.8208
47.9505 -11.4287 -2.4999 0.8208
48.3279 -9.7092 -2.4999 0.8208
48.6438 -7.9774 -2.4999 0.8208
49.2179 -2.7299 -2.4999 0.8208
49.2840 -0.9708 -2.4999 0.8208
-30.7981 -14.6260 -2.4999 0.8722
-29.2758 -15.2070 -2.4189 0.8761
-27.8667 -15.7633 -2.3475 0.8795
-24.4313 -17.5131 -2.2041 0.8864
-22.6711 -17.5098 -2.1004 0.8915
-21.0742 -17.5127 -2.0091 0.8959
-16.9758 -17.4966 -1.7875 0.9069
-14.7036 -17.4970 -1.6758 0.9124
-12.6832 -17.4892 -1.5841 0.9170
-10.0168 -17.4827 -1.4774 0.9224
-9.2025 -17.4803 -1.4485 0.9238
-6.9274 -17.4735 -1.3782 0.9274
-6.2143 -17.4714 -1.3597 0.9283
-5.5193 -17.4694 -1.3433 0.9292
-4.8396 -17.4663 -1.3289 0.9299
-2.8745 -17.4612 -1.2975 0.9315
-2.2373 -17.4596 -1.2906 0.9318
-1.6059 -17.4579 -1.2855 0.9321
-0.9789 -17.4562 -1.2819 0.9323
-0.3544 -17.4546 -1.2801 0.9324
2.1488 -17.4460 -1.2888 0.9319
2.7842 -17.4446 -1.2953 0.9316
3.4268 -17.4433 -1.3034 0.9312
4.7407 -17.4406 -1.3252 0.9301
5.4160 -17.4393 -1.3389 0.9294
6.8156 -17.4404 -1.3729 0.9277
7.5430 -17.4378 -1.3931 0.9266
11.5899 -17.4291 -1.5347 0.9195
13.4732 -17.4226 -1.6149 0.9155
26.8812 -20.9724 -2.4999 0.8722
27.6129 -19.9992 -2.4999 0.8722
28.3093 -19.0005 -2.4999 0.8722
28.9697 -17.9776 -2.4999 0.8722
30.1786 -15.8642 -2.4999 0.8722
30.7262 -14.7766 -2.4999 0.8722
31.2341 -13.6700 -2.4999 0.8722
32.1301 -11.4061 -2.4999 0.8722
32.5169 -10.2516 -2.4999 0.8722
33.1656 -7.9048 -2.4999 0.8722
34.0753 -1.8900 -2.5023 0.8721
34.1249 0.5467 -2.5024 0.8721
-22.6643 -12.8205 -2.4999 0.9007
-19.6967 -15.2125 -2.3893 0.9048
-17.6426 -16.9301 -2.3475 0.9064
-14.7030 -17.4963 -2.1941 0.9123
-9.2021 -17.4795 -1.8965 0.9237
-8.4181 -17.4772 -1.8624 0.9250
-7.6608 -17.4750 -1.8318 0.9262
-5.5190 -17.4687 -1.7588 0.9290
-3.5194 -17.4629 -1.7102 0.9309
-2.8745 -17.4612 -1.6989 0.9314
-2.2373 -17.4596 -1.6899 0.9317
-1.6059 -17.4579 -1.6831 0.9320
-0.9789 -17.4563 -1.6785 0.9322
-0.3544 -17.4547 -1.6761 0.9323
0.2689 -17.4502 -1.6755 0.9323
1.5189 -17.4476 -1.6814 0.9320
2.7842 -17.4450 -1.6960 0.9315
4.0784 -17.4424 -1.7197 0.9305
5.4162 -17.4396 -1.7532 0.9292
9.8736 -17.4300 -1.9232 0.9227
12.5077 -17.4261 -2.0593 0.9174
13.4734 -17.4228 -2.1145 0.9153
14.4935 -17.4194 -2.1755 0.9130
16.9408 -17.6323 -2.3475 0.9064
18.7315 -15.7216 -2.3478 0.9064
20.5301 -16.0173 -2.4999 0.9007
22.6013 -12.9313 -2.4999 0.9007
23.4666 -11.2854 -2.4999 0.9007
24.2121 -9.5818 -2.4999 0.9007
24.5388 -8.7112 -2.4999 0.9007
25.0979 -6.9378 -2.4999 0.9007
25.3296 -6.0372 -2.4999 0.9007
25.9311 -2.3695 -2.4999 0.9007
26.0341 -0.5128 -2.4999 0.9007
26.0358 0.4171 -2.4999 0.9007
-19.0105 -9.0281 -2.4999 0.9187
-17.5316 -11.6426 -2.4999 0.9187
-17.1047 -12.2612 -2.4999 0.9187
-16.6560 -12.8641 -2.4999 0.9187
-15.6954 -14.0200 -2.4999 0.9187
-13.7326 -15.2043 -2.4337 0.9208
-12.7891 -15.2188 -2.3613 0.9230
-12.1658 -15.5739 -2.3475 0.9235
-11.6020 -15.9983 -2.3475 0.9235
-11.0233 -16.4024 -2.3475 0.9235
-10.4306 -16.7855 -2.3475 0.9235
-8.4178 -17.4765 -2.3042 0.9248
-7.6605 -17.4743 -2.2664 0.9260
-4.8396 -17.4664 -2.1529 0.9296
-3.5194 -17.4629 -2.1161 0.9308
-2.2373 -17.4596 -2.0909 0.9316
-1.6060 -17.4580 -2.0825 0.9318
-0.9789 -17.4563 -2.0768 0.9320
3.4269 -17.4441 -2.1117 0.9309
5.4163 -17.4400 -2.1692 0.9291
6.1083 -17.4435 -2.1954 0.9283
6.8159 -17.4410 -2.2243 0.9273
8.2933 -17.4359 -2.2935 0.9252
9.0690 -17.4332 -2.3343 0.9239
9.7406 -17.1952 -2.3475 0.9235
12.6695 -15.2272 -2.3530 0.9233
14.5807 -15.1760 -2.4999 0.9187
15.1133 -14.6456 -2.4999 0.9187
15.6266 -14.0967 -2.4999 0.9187
16.1200 -13.5297 -2.4999 0.9187
16.5928 -12.9455 -2.4999 0.9187
17.0444 -12.3448 -2.4999 0.9187
17.4744 -11.7283 -2.4999 0.9187
17.8820 -11.0968 -2.4999 0.9187
18.2668 -10.4513 -2.4999 0.9187
18.6283 -9.7924 -2.4999 0.9187
19.5687 -7.7442 -2.4999 0.9187
20.9580 -1.9151 -2.4999 0.9187
21.0131 -1.1655 -2.4999 0.9187
21.0413 -0.4145 -2.4999 0.9187
-15.0368 -9.2296 -2.4999 0.9312
-14.6977 -9.7606 -2.4999 0.9312
-14.3398 -10.2793 -2.4999 0.9312
-13.5696 -11.2764 -2.4999 0.9312
-13.1583 -11.7537 -2.4999 0.9312
-12.2860 -12.6629 -2.4999 0.9312
-11.8260 -13.0935 -2.4999 0.9312
-10.8614 -13.9041 -2.4999 0.9312
-10.3580 -14.2830 -2.4999 0.9312
-9.3123 -14.9858 -2.4999 0.9312
-8.0042 -15.2041 -2.4346 0.9329
-7.3269 -15.2120 -2.3924 0.9341
-6.6744 -15.2248 -2.3554 0.9350
-4.9912 -15.7982 -2.3475 0.9353
-4.4240 -15.9663 -2.3475 0.9353
-0.9276 -16.5419 -2.3475 0.9353
-0.3364 -16.5645 -2.3475 0.9353
0.8466 -16.5463 -2.3475 0.9353
2.0253 -16.4437 -2.3475 0.9353
3.1937 -16.2571 -2.3475 0.9353
3.7721 -16.1328 -2.3475 0.9353
4.3458 -15.9878 -2.3475 0.9353
4.9139 -15.8224 -2.3475 0.9353
6.0305 -15.4314 -2.3475 0.9353
7.2360 -15.2130 -2.3869 0.9342
9.2388 -15.0312 -2.4999 0.9312
10.7932 -13.9571 -2.4999 0.9312
11.2846 -13.5628 -2.4999 0.9312
12.2238 -12.7228 -2.4999 0.9312
12.6703 -12.2783 -2.4999 0.9312
13.1006 -11.8180 -2.4999 0.9312
13.5143 -11.3427 -2.4999 0.9312
13.9106 -10.8530 -2.4999 0.9312
14.6497 -9.8325 -2.4999 0.9312
15.9003 -7.6467 -2.4999 0.9312
16.4055 -6.4924 -2.4999 0.9312
16.6269 -5.9025 -2.4999 0.9312
16.8270 -5.3051 -2.4999 0.9312
17.0057 -4.7008 -2.4999 0.9312
17.2978 -3.4752 -2.4999 0.9312
17.5017 -2.2318 -2.4999 0.9312
17.6164 -0.9771 -2.4999 0.9312
17.6412 0.2826 -2.4999 0.9312
-13.4664 -6.9950 -2.4999 0.9403
-13.2081 -7.4714 -2.4999 0.9403
-12.9329 -7.9383 -2.4999 0.9403
-12.0099 -9.2758 -2.4999 0.9403
-10.5669 -10.8911 -2.4999 0.9403
-10.1713 -11.2614 -2.4999 0.9403
-9.3417 -11.9586 -2.4999 0.9403
-8.9087 -12.2846 -2.4999 0.9403
-8.0093 -12.8890 -2.4999 0.9403
-7.5440 -13.1668 -2.4999 0.9403
-6.5851 -13.6716 -2.4999 0.9403
-6.0928 -13.8980 -2.4999 0.9403
-4.0520 -14.6239 -2.4999 0.9403
-2.9980 -14.8758 -2.4999 0.9403
-1.9287 -15.0518 -2.4999 0.9403
-1.3901 -15.1111 -2.4999 0.9403
0.2338 -15.1731 -2.4999 0.9403
1.3161 -15.1177 -2.4999 0.9403
1.8550 -15.0611 -2.4999 0.9403
3.9804 -14.6436 -2.4999 0.9403
4.5006 -14.4921 -2.4999 0.9403
5.0153 -14.3221 -2.4999 0.9403
6.0246 -13.9277 -2.4999 0.9403
7.9461 -12.9281 -2.4999 0.9403
8.4027 -12.6362 -2.4999 0.9403
9.2830 -12.0042 -2.4999 0.9403
9.7058 -11.6651 -2.4999 0.9403
10.1161 -11.3111 -2.4999 0.9403
10.5135 -10.9427 -2.4999 0.9403
11.2676 -10.1645 -2.4999 0.9403
11.9643 -9.3345 -2.4999 0.9403
13.4321 -7.0609 -2.4999 0.9403
13.6756 -6.5768 -2.4999 0.9403
14.3005 -5.0766 -2.4999 0.9403
15.1719 -0.2989 -2.4999 0.9403
15.1729 0.2430 -2.4999 0.9403
-11.8027 -6.1309 -2.4999 0.9473
-11.5763 -6.5484 -2.4999 0.9473
-10.5261 -8.1298 -2.4999 0.9473
-10.2291 -8.5004 -2.4999 0.9473
-8.9147 -9.8702 -2.4999 0.9473
-8.1876 -10.4812 -2.4999 0.9473
-7.8081 -10.7669 -2.4999 0.9473
-7.4187 -11.0388 -2.4999 0.9473
-5.7715 -11.9826 -2.4999 0.9473
-4.0068 -12.6822 -2.4999 0.9473
-3.0915 -12.9358 -2.4999 0.9473
-2.6276 -13.0379 -2.4999 0.9473
-1.6904 -13.1922 -2.4999 0.9473
0.2049 -13.2985 -2.4999 0.9473
1.6259 -13.2003 -2.4999 0.9473
2.0962 -13.1339 -2.4999 0.9473
2.5638 -13.0507 -2.4999 0.9473
3.0281 -12.9508 -2.4999 0.9473
3.9447 -12.7017 -2.4999 0.9473
5.2805 -12.2070 -2.4999 0.9473
6.5554 -11.5723 -2.4999 0.9473
6.9644 -11.3309 -2.4999 0.9473
7.7553 -10.8050 -2.4999 0.9473
8.1361 -10.5212 -2.4999 0.9473
8.8663 -9.9137 -2.4999 0.9473
9.2146 -9.5908 -2.4999 0.9473
9.8756 -8.9087 -2.4999 0.9473
10.4862 -8.1812 -2.4999 0.9473
10.7716 -7.8016 -2.4999 0.9473
11.3009 -7.0129 -2.4999 0.9473
11.5441 -6.6050 -2.4999 0.9473
11.7726 -6.1886 -2.4999 0.9473
11.9860 -5.7643 -2.4999 0.9473
13.0395 -2.6197 -2.4999 0.9473
13.1932 -1.6825 -2.4999 0.9473
13.2975 -0.2620 -2.4999 0.9473
13.2984 0.2130 -2.4999 0.9473
-10.6830 -5.0734 -2.4999 0.9528
-10.4951 -5.4516 -2.4999 0.9528
-10.2937 -5.8229 -2.4999 0.9528
-9.6120 -6.8903 -2.4999 0.9528
-9.3599 -7.2291 -2.4999 0.9528
-9.0958 -7.5587 -2.4999 0.9528
-8.8201 -7.8786 -2.4999 0.9528
-7.9270 -8.7767 -2.4999 0.9528
-7.2804 -9.3200 -2.4999 0.9528
-5.5093 -10.4650 -2.4999 0.9528
-5.1321 -10.6550 -2.4999 0.9528
-3.5629 -11.2771 -2.4999 0.9528
-2.7490 -11.5027 -2.4999 0.9528
-2.3365 -11.5934 -2.4999 0.9528
-1.5032 -11.7306 -2.4999 0.9528
-1.0833 -11.7769 -2.4999 0.9528
-0.6621 -11.8080 -2.4999 0.9528
0.1822 -11.8252 -2.4999 0.9528
0.6043 -11.8111 -2.4999 0.9528
1.8639 -11.6788 -2.4999 0.9528
2.2797 -11.6048 -2.4999 0.9528
3.1021 -11.4125 -2.4999 0.9528
4.3047 -11.0153 -2.4999 0.9528
5.0799 -10.6800 -2.4999 0.9528
5.8291 -10.2902 -2.4999 0.9528
7.2347 -9.3555 -2.4999 0.9528
7.5642 -9.0912 -2.4999 0.9528
8.4930 -8.2302 -2.4999 0.9528
10.0489 -6.2360 -2.4999 0.9528
10.6581 -5.1256 -2.4999 0.9528
10.8343 -4.7418 -2.4999 0.9528
11.5043 -2.7420 -2.4999 0.9528
4.7022 -0.5996 -1.0020 0.9808
4.5760 -0.2538 -0.9688 0.9814
4.5777 -0.0902 -0.9678 0.9815
-9.6083 -4.5630 -2.4999 0.9572
-9.4393 -4.9032 -2.4999 0.9572
-9.2580 -5.2371 -2.4999 0.9572
-7.9328 -7.0861 -2.4999 0.9572
-7.6747 -7.3648 -2.4999 0.9572
-7.4069 -7.6341 -2.4999 0.9572
-7.1296 -7.8937 -2.4999 0.9572
-6.8432 -8.1433 -2.4999 0.9572
-6.5480 -8.3824 -2.4999 0.9572
-5.9331 -8.8283 -2.4999 0.9572
-5.6141 -9.0346 -2.4999 0.9572
-4.9550 -9.4122 -2.4999 0.9572
-3.9201 -9.8881 -2.4999 0.9572
-2.8402 -10.2506 -2.4999 0.9572
-1.3519 -10.5505 -2.4999 0.9572
-0.5955 -10.6202 -2.4999 0.9572
-0.2160 -10.6346 -2.4999 0.9572
0.9225 -10.5968 -2.4999 0.9572
1.3003 -10.5571 -2.4999 0.9572
1.6764 -10.5039 -2.4999 0.9572
2.4218 -10.3575 -2.4999 0.9572
3.5155 -10.0391 -2.4999 0.9572
4.5688 -9.6056 -2.4999 0.9572
5.2427 -9.2550 -2.4999 0.9572
6.5069 -8.4144 -2.4999 0.9572
7.6386 -7.4023 -2.4999 0.9572
7.8980 -7.1248 -2.4999 0.9572
8.1474 -6.8382 -2.4999 0.9572
8.8319 -5.9278 -2.4999 0.9572
9.0380 -5.6087 -2.4999 0.9572
9.5859 -4.6100 -2.4999 0.9572
9.8905 -3.9141 -2.4999 0.9572
10.0239 -3.5585 -2.4999 0.9572
10.1446 -3.1983 -2.4999 0.9572
10.2523 -2.8340 -2.4999 0.9572
10.4284 -2.0951 -2.4999 0.9572
10.4966 -1.7214 -2.4999 0.9572
4.2811 -0.5459 -1.0143 0.9824
4.2173 -0.2339 -0.9927 0.9828
4.2217 0.0676 -0.9923 0.9828
-8.2287 -5.0508 -2.4999 0.9609
-8.0431 -5.3414 -2.4999 0.9609
-7.8473 -5.6252 -2.4999 0.9609
-6.7233 -6.9296 -2.4999 0.9609
-6.4716 -7.1652 -2.4999 0.9609
-6.2116 -7.3918 -2.4999 0.9609
-5.0960 -8.2008 -2.4999 0.9609
-4.7999 -8.3775 -2.4999 0.9609
-3.5584 -8.9756 -2.4999 0.9609
-3.2356 -9.0969 -2.4999 0.9609
-2.9087 -9.2066 -2.4999 0.9609
-1.5683 -9.5270 -2.4999 0.9609
-0.5406 -9.6400 -2.4999 0.9609
-0.1960 -9.6532 -2.4999 0.9609
0.1488 -9.6541 -2.4999 0.9609
0.4934 -9.6426 -2.4999 0.9609
0.8374 -9.6188 -2.4999 0.9609
1.5217 -9.5345 -2.4999 0.9609
2.5326 -9.3171 -2.4999 0.9609
2.8636 -9.2208 -2.4999 0.9609
3.1910 -9.1126 -2.4999 0.9609
4.4559 -8.5655 -2.4999 0.9609
5.6300 -7.8439 -2.4999 0.9609
6.4365 -7.1968 -2.4999 0.9609
6.9337 -6.7192 -2.4999 0.9609
7.1692 -6.4672 -2.4999 0.9609
7.3955 -6.2071 -2.4999 0.9609
7.6125 -5.9392 -2.4999 0.9609
7.8196 -5.6636 -2.4999 0.9609
8.2039 -5.0911 -2.4999 0.9609
8.3804 -4.7949 -2.4999 0.9609
9.0988 -3.2301 -2.4999 0.9609
9.4660 -1.9018 -2.4999 0.9609
3.9860 -0.5083 -1.0404 0.9835
3.9710 -0.0782 -1.0284 0.9837
3.9741 0.0637 -1.0291 0.9837
-7.8365 -4.0706 -2.4999 0.9640
-7.3562 -4.8853 -2.4999 0.9640
-7.1771 -5.1448 -2.4999 0.9640
-6.5858 -5.8828 -2.4999 0.9640
-6.1492 -6.3379 -2.4999 0.9640
-5.9189 -6.5534 -2.4999 0.9640
-5.6812 -6.7605 -2.4999 0.9640
-5.1842 -7.1487 -2.4999 0.9640
-4.9257 -7.3293 -2.4999 0.9640
-4.3900 -7.6621 -2.4999 0.9640
-3.8320 -7.9559 -2.4999 0.9640
-3.5455 -8.0876 -2.4999 0.9640
-2.6603 -8.4204 -2.4999 0.9640
-2.3580 -8.5100 -2.4999 0.9640
-1.7446 -8.6566 -2.4999 0.9640
-1.4344 -8.7134 -2.4999 0.9640
-0.8089 -8.7936 -2.4999 0.9640
-0.4944 -8.8168 -2.4999 0.9640
-0.1793 -8.8289 -2.4999 0.9640
0.4513 -8.8191 -2.4999 0.9640
1.0795 -8.7644 -2.4999 0.9640
1.7022 -8.6650 -2.4999 0.9640
2.0105 -8.5987 -2.4999 0.9640
2.3163 -8.5215 -2.4999 0.9640
2.6191 -8.4333 -2.4999 0.9640
3.5059 -8.1049 -2.4999 0.9640
4.0754 -7.8340 -2.4999 0.9640
4.6241 -7.5232 -2.4999 0.9640
4.8897 -7.3533 -2.4999 0.9640
5.1492 -7.1741 -2.4999 0.9640
5.4020 -6.9856 -2.4999 0.9640
5.6480 -6.7883 -2.4999 0.9640
5.8868 -6.5822 -2.4999 0.9640
6.5569 -5.9150 -2.4999 0.9640
7.3323 -4.9213 -2.4999 0.9640
7.6648 -4.3854 -2.4999 0.9640
7.8165 -4.1089 -2.4999 0.9640
7.9582 -3.8272 -2.4999 0.9640
8.0898 -3.5406 -2.4999 0.9640
8.2110 -3.2495 -2.4999 0.9640
8.5114 -2.3528 -2.4999 0.9640
8.6577 -1.7394 -2.4999 0.9640
3.8527 -0.6318 -1.1052 0.9839
3.7868 -0.3460 -1.0765 0.9843
3.7911 -0.2103 -1.0749 0.9843
3.7934 -0.0747 -1.0741 0.9844
3.7934 0.0608 -1.0740 0.9844
-7.2126 -3.7466 -2.4999 0.9666
-7.0742 -4.0017 -2.4999 0.9666
-6.9269 -4.2518 -2.4999 0.9666
-6.7706 -4.4964 -2.4999 0.9666
-6.0615 -5.4145 -2.4999 0.9666
-5.6597 -5.8333 -2.4999 0.9666
-5.4478 -6.0317 -2.4999 0.9666
-5.2289 -6.2223 -2.4999 0.9666
-5.0034 -6.4051 -2.4999 0.9666
-4.7715 -6.5796 -2.4999 0.9666
-4.5335 -6.7458 -2.4999 0.9666
-4.2897 -6.9034 -2.4999 0.9666
-3.2633 -7.4438 -2.4999 0.9666
-2.9954 -7.5556 -2.4999 0.9666
-2.7237 -7.6577 -2.4999 0.9666
-2.1702 -7.8326 -2.4999 0.9666
-1.0330 -8.0618 -2.4999 0.9666
-0.4550 -8.1149 -2.4999 0.9666
0.1252 -8.1267 -2.4999 0.9666
0.7049 -8.0971 -2.4999 0.9666
0.9936 -8.0667 -2.4999 0.9666
1.5667 -7.9753 -2.4999 0.9666
2.1319 -7.8431 -2.4999 0.9666
2.4106 -7.7620 -2.4999 0.9666
2.9584 -7.5702 -2.4999 0.9666
3.4911 -7.3397 -2.4999 0.9666
4.0060 -7.0719 -2.4999 0.9666
4.2560 -6.9243 -2.4999 0.9666
4.9720 -6.4295 -2.4999 0.9666
6.0349 -5.4441 -2.4999 0.9666
6.7485 -4.5295 -2.4999 0.9666
6.9060 -4.2856 -2.4999 0.9666
7.3247 -3.5225 -2.4999 0.9666
7.5574 -2.9908 -2.4999 0.9666
7.8339 -2.1655 -2.4999 0.9666
7.9684 -1.6009 -2.4999 0.9666
3.6353 -0.0716 -1.1184 0.9849
3.6350 0.0582 -1.1182 0.9849
-6.7934 -3.2262 -2.4999 0.9688
-6.2649 -4.1606 -2.4999 0.9688
-5.7841 -4.8067 -2.4999 0.9688
-5.6088 -5.0101 -2.4999 0.9688
-5.2369 -5.3976 -2.4999 0.9688
-4.4151 -6.0882 -2.4999 0.9688
-4.1949 -6.2420 -2.4999 0.9688
-3.9694 -6.3878 -2.4999 0.9688
-3.7388 -6.5254 -2.4999 0.9688
-3.2636 -6.7756 -2.4999 0.9688
-2.7717 -6.9913 -2.4999 0.9688
-2.2657 -7.1712 -2.4999 0.9688
-0.9559 -7.4596 -2.4999 0.9688
-0.1527 -7.5191 -2.4999 0.9688
0.6523 -7.4923 -2.4999 0.9688
0.9194 -7.4642 -2.4999 0.9688
1.1853 -7.4266 -2.4999 0.9688
1.4497 -7.3796 -2.4999 0.9688
2.4856 -7.0980 -2.4999 0.9688
2.7374 -7.0047 -2.4999 0.9688
2.9858 -6.9025 -2.4999 0.9688
3.2304 -6.7915 -2.4999 0.9688
3.4708 -6.6718 -2.4999 0.9688
3.9381 -6.4071 -2.4999 0.9688
4.6007 -5.9493 -2.4999 0.9688
4.8101 -5.7812 -2.4999 0.9688
5.2105 -5.4232 -2.4999 0.9688
5.5842 -5.0375 -2.4999 0.9688
5.7605 -4.8349 -2.4999 0.9688
6.2445 -4.1912 -2.4999 0.9688
6.3902 -3.9655 -2.4999 0.9688
6.6569 -3.4994 -2.4999 0.9688
6.7776 -3.2595 -2.4999 0.9688
6.8896 -3.0154 -2.4999 0.9688
6.9929 -2.7674 -2.4999 0.9688
7.0873 -2.5160 -2.4999 0.9688
7.1726 -2.2613 -2.4999 0.9688
7.3157 -1.7437 -2.4999 0.9688
3.5430 -0.7118 -1.2013 0.9849
3.5057 -0.5749 -1.1809 0.9851
3.4885 -0.3188 -1.1644 0.9853
3.4931 -0.1938 -1.1629 0.9854
-6.3147 -2.9989 -2.4999 0.9707
-6.2036 -3.2224 -2.4999 0.9707
-6.0846 -3.4419 -2.4999 0.9707
-5.9578 -3.6570 -2.4999 0.9707
-5.8234 -3.8674 -2.4999 0.9707
-5.6816 -4.0728 -2.4999 0.9707
-5.3765 -4.4679 -2.4999 0.9707
-4.8679 -5.0172 -2.4999 0.9707
-4.6856 -5.1878 -2.4999 0.9707
-4.4974 -5.3518 -2.4999 0.9707
-3.6897 -5.9376 -2.4999 0.9707
-3.0335 -6.2981 -2.4999 0.9707
-1.8666 -6.7368 -2.4999 0.9707
-1.6249 -6.7992 -2.4999 0.9707
-1.1355 -6.8978 -2.4999 0.9707
-0.8885 -6.9339 -2.4999 0.9707
-0.6404 -6.9612 -2.4999 0.9707
-0.3914 -6.9797 -2.4999 0.9707
0.3572 -6.9815 -2.4999 0.9707
0.6063 -6.9643 -2.4999 0.9707
1.1018 -6.9032 -2.4999 0.9707
2.3104 -6.5978 -2.4999 0.9707
2.7754 -6.4161 -2.4999 0.9707
3.0027 -6.3129 -2.4999 0.9707
3.2262 -6.2017 -2.4999 0.9707
3.4456 -6.0825 -2.4999 0.9707
4.0762 -5.6792 -2.4999 0.9707
4.4712 -5.3738 -2.4999 0.9707
5.0202 -4.8649 -2.4999 0.9707
5.1907 -4.6825 -2.4999 0.9707
5.3546 -4.4942 -2.4999 0.9707
5.6616 -4.1006 -2.4999 0.9707
5.8045 -3.8958 -2.4999 0.9707
5.9398 -3.6861 -2.4999 0.9707
6.0677 -3.4716 -2.4999 0.9707
6.3000 -3.0297 -2.4999 0.9707
6.5878 -2.3387 -2.4999 0.9707
6.6671 -2.1020 -2.4999 0.9707
6.7379 -1.8626 -2.4999 0.9707
6.8001 -1.6208 -2.4999 0.9707
3.3986 -0.6828 -1.2396 0.9854
3.3861 -0.4318 -1.2207 0.9856
3.3899 -0.3098 -1.2173 0.9856
3.3946 -0.1883 -1.2158 0.9857
-5.6779 -3.2119 -2.4999 0.9724
-5.5596 -3.4125 -2.4999 0.9724
-5.4342 -3.6089 -2.4999 0.9724
-5.3019 -3.8006 -2.4999 0.9724
-5.1628 -3.9875 -2.4999 0.9724
-5.0171 -4.1693 -2.4999 0.9724
-4.7068 -4.5167 -2.4999 0.9724
-4.5425 -4.6819 -2.4999 0.9724
-4.0158 -5.1408 -2.4999 0.9724
-3.6387 -5.4143 -2.4999 0.9724
-3.2430 -5.6602 -2.4999 0.9724
-3.0389 -5.7724 -2.4999 0.9724
-2.6192 -5.9746 -2.4999 0.9724
-2.4041 -6.0643 -2.4999 0.9724
-2.1861 -6.1462 -2.4999 0.9724
-1.5163 -6.3448 -2.4999 0.9724
-0.3652 -6.5132 -2.4999 0.9724
-0.1324 -6.5221 -2.4999 0.9724
0.3334 -6.5149 -2.4999 0.9724
1.0281 -6.4419 -2.4999 0.9724
2.1560 -6.1569 -2.4999 0.9724
2.8020 -5.8910 -2.4999 0.9724
3.2153 -5.6760 -2.4999 0.9724
3.4159 -5.5576 -2.4999 0.9724
3.6122 -5.4321 -2.4999 0.9724
3.9906 -5.1604 -2.4999 0.9724
4.1723 -5.0146 -2.4999 0.9724
4.3487 -4.8625 -2.4999 0.9724
4.5196 -4.7041 -2.4999 0.9724
5.4165 -3.6354 -2.4999 0.9724
5.7742 -3.0354 -2.4999 0.9724
6.1475 -2.1824 -2.4999 0.9724
6.2876 -1.7381 -2.4999 0.9724
3.3593 -0.6749 -1.3131 0.9854
3.3478 -0.5491 -1.3001 0.9856
3.3442 -0.0659 -1.2818 0.9858
3.3468 0.0536 -1.2827 0.9858
-5.5175 -2.6203 -2.4999 0.9739
-5.4204 -2.8156 -2.4999 0.9739
-5.3164 -3.0074 -2.4999 0.9739
-5.2057 -3.1953 -2.4999 0.9739
-4.9644 -3.5587 -2.4999 0.9739
-4.4071 -4.2292 -2.4999 0.9739
-4.2533 -4.3839 -2.4999 0.9739
-3.9296 -4.6762 -2.4999 0.9739
-3.7602 -4.8136 -2.4999 0.9739
-3.5859 -4.9447 -2.4999 0.9739
-3.2241 -5.1880 -2.4999 0.9739
-3.0365 -5.2998 -2.4999 0.9739
-2.8454 -5.4049 -2.4999 0.9739
-2.6506 -5.5030 -2.4999 0.9739
-2.4524 -5.5942 -2.4999 0.9739
-1.4198 -5.9408 -2.4999 0.9739
-1.2067 -5.9877 -2.4999 0.9739
-0.9922 -6.0270 -2.4999 0.9739
-0.7763 -6.0586 -2.4999 0.9739
-0.3420 -6.0986 -2.4999 0.9739
0.5298 -6.0851 -2.4999 0.9739
1.6022 -5.8943 -2.4999 0.9739
2.0187 -5.7649 -2.4999 0.9739
2.4250 -5.6061 -2.4999 0.9739
2.6236 -5.5159 -2.4999 0.9739
2.8189 -5.4188 -2.4999 0.9739
3.0106 -5.3146 -2.4999 0.9739
3.3822 -5.0862 -2.4999 0.9739
3.5617 -4.9622 -2.4999 0.9739
3.9067 -4.6954 -2.4999 0.9739
4.5354 -4.0914 -2.4999 0.9739
4.8158 -3.7573 -2.4999 0.9739
4.9469 -3.5829 -2.4999 0.9739
5.3017 -3.0334 -2.4999 0.9739
5.7562 -2.0435 -2.4999 0.9739
5.8254 -1.8366 -2.4999 0.9739
5.8873 -1.6275 -2.4999 0.9739
3.3237 -0.6678 -1.3875 0.9855
3.3200 -0.0654 -1.3591 0.9858
3.3207 0.0532 -1.3592 0.9857
-5.1815 -2.4607 -2.4999 0.9753
-5.0903 -2.6442 -2.4999 0.9753
-4.7784 -3.1733 -2.4999 0.9753
-4.6620 -3.3420 -2.4999 0.9753
-4.4116 -3.6661 -2.4999 0.9753
-4.1388 -3.9716 -2.4999 0.9753
-3.9943 -4.1169 -2.4999 0.9753
-3.1996 -4.7609 -2.4999 0.9753
-3.0275 -4.8721 -2.4999 0.9753
-2.4892 -5.1679 -2.4999 0.9753
-2.3030 -5.2535 -2.4999 0.9753
-1.9222 -5.4044 -2.4999 0.9753
-1.7281 -5.4696 -2.4999 0.9753
-1.3333 -5.5790 -2.4999 0.9753
-1.1332 -5.6231 -2.4999 0.9753
-0.9317 -5.6600 -2.4999 0.9753
-0.7291 -5.6896 -2.4999 0.9753
-0.3211 -5.7271 -2.4999 0.9753
-0.1165 -5.7350 -2.4999 0.9753
0.2931 -5.7286 -2.4999 0.9753
0.4975 -5.7145 -2.4999 0.9753
0.7012 -5.6931 -2.4999 0.9753
0.9040 -5.6645 -2.4999 0.9753
1.1057 -5.6286 -2.4999 0.9753
2.2773 -5.2647 -2.4999 0.9753
3.0037 -4.8869 -2.4999 0.9753
3.1762 -4.7765 -2.4999 0.9753
3.3448 -4.6600 -2.4999 0.9753
3.5090 -4.5377 -2.4999 0.9753
3.6688 -4.4095 -2.4999 0.9753
3.9741 -4.1364 -2.4999 0.9753
4.1193 -3.9919 -2.4999 0.9753
4.5225 -3.5284 -2.4999 0.9753
4.6456 -3.3647 -2.4999 0.9753
4.7628 -3.1967 -2.4999 0.9753
4.8739 -3.0246 -2.4999 0.9753
5.1694 -2.4860 -2.4999 0.9753
5.3336 -2.1108 -2.4999 0.9753
5.4707 -1.7248 -2.4999 0.9753
3.2914 -0.6613 -1.4631 0.9855
3.2945 -0.4201 -1.4474 0.9856
3.2937 -0.3010 -1.4414 0.9857
3.2943 -0.1827 -1.4379 0.9857
3.2949 -0.0649 -1.4363 0.9857
-4.7007 -2.6591 -2.4999 0.9765
-4.3894 -3.1465 -2.4999 0.9765
-4.1537 -3.4518 -2.4999 0.9765
-3.8967 -3.7394 -2.4999 0.9765
-3.7607 -3.8761 -2.4999 0.9765
-3.4745 -4.1346 -2.4999 0.9765
-3.1706 -4.3721 -2.4999 0.9765
-2.6849 -4.6861 -2.4999 0.9765
-2.3436 -4.8657 -2.4999 0.9765
-1.9904 -5.0206 -2.4999 0.9765
-1.8098 -5.0884 -2.4999 0.9765
-1.6270 -5.1498 -2.4999 0.9765
-1.0676 -5.2942 -2.4999 0.9765
-0.8773 -5.3290 -2.4999 0.9765
-0.6864 -5.3569 -2.4999 0.9765
-0.4947 -5.3780 -2.4999 0.9765
-0.1096 -5.3996 -2.4999 0.9765
0.0832 -5.4001 -2.4999 0.9765
0.2760 -5.3936 -2.4999 0.9765
0.4684 -5.3804 -2.4999 0.9765
0.6602 -5.3602 -2.4999 0.9765
0.8512 -5.3332 -2.4999 0.9765
1.0412 -5.2994 -2.4999 0.9765
1.4167 -5.2116 -2.4999 0.9765
1.6018 -5.1577 -2.4999 0.9765
1.7849 -5.0972 -2.4999 0.9765
1.9658 -5.0302 -2.4999 0.9765
2.1442 -4.9568 -2.4999 0.9765
2.9905 -4.4972 -2.4999 0.9765
4.1367 -3.4720 -2.4999 0.9765
4.2581 -3.3221 -2.4999 0.9765
4.3740 -3.1680 -2.4999 0.9765
4.8671 -2.3407 -2.4999 0.9765
4.9476 -2.1654 -2.4999 0.9765
3.2681 -0.2986 -1.5191 0.9856
3.2676 -0.0644 -1.5128 0.9857
3.2699 0.0524 -1.5138 0.9857
-4.6036 -2.1863 -2.4999 0.9775
-4.5226 -2.3493 -2.4999 0.9775
-3.9196 -3.2573 -2.4999 0.9775
-3.6772 -3.5287 -2.4999 0.9775
-3.4160 -3.7821 -2.4999 0.9775
-3.1373 -4.0163 -2.4999 0.9775
-2.9919 -4.1257 -2.4999 0.9775
-2.5336 -4.4220 -2.4999 0.9775
-2.0462 -4.6676 -2.4999 0.9775
-1.8782 -4.7377 -2.4999 0.9775
-1.7079 -4.8017 -2.4999 0.9775
-1.1846 -4.9568 -2.4999 0.9775
-0.8278 -5.0287 -2.4999 0.9775
-0.6477 -5.0551 -2.4999 0.9775
0.6230 -5.0582 -2.4999 0.9775
0.8032 -5.0327 -2.4999 0.9775
1.8550 -4.7468 -2.4999 0.9775
2.0233 -4.6776 -2.4999 0.9775
2.3520 -4.5212 -2.4999 0.9775
2.5119 -4.4344 -2.4999 0.9775
2.9717 -4.1403 -2.4999 0.9775
3.3974 -3.7988 -2.4999 0.9775
3.5309 -3.6751 -2.4999 0.9775
3.6599 -3.5467 -2.4999 0.9775
4.1275 -2.9895 -2.4999 0.9775
4.2316 -2.8402 -2.4999 0.9775
4.4235 -2.5309 -2.4999 0.9775
4.5111 -2.3713 -2.4999 0.9775
4.5929 -2.2088 -2.4999 0.9775
4.6688 -2.0434 -2.4999 0.9775
4.8606 -1.5324 -2.4999 0.9775
3.3050 -0.7877 -1.6666 0.9850
3.2474 -0.5326 -1.6142 0.9854
3.2442 -0.2964 -1.5980 0.9856
3.2422 -0.0639 -1.5907 0.9857
-4.2763 -2.2213 -2.4999 0.9785
-4.1942 -2.3726 -2.4999 0.9785
-4.0142 -2.6659 -2.4999 0.9785
-3.9165 -2.8075 -2.4999 0.9785
-3.5938 -3.2102 -2.4999 0.9785
-2.9665 -3.7975 -2.4999 0.9785
-2.8290 -3.9010 -2.4999 0.9785
-2.6879 -3.9996 -2.4999 0.9785
-2.5434 -4.0929 -2.4999 0.9785
-2.3956 -4.1812 -2.4999 0.9785
-2.2448 -4.2641 -2.4999 0.9785
-1.9347 -4.4134 -2.4999 0.9785
-1.7759 -4.4796 -2.4999 0.9785
-1.6148 -4.5402 -2.4999 0.9785
-1.4517 -4.5950 -2.4999 0.9785
-1.2867 -4.6439 -2.4999 0.9785
-1.1201 -4.6868 -2.4999 0.9785
-0.7827 -4.7548 -2.4999 0.9785
-0.4414 -4.7986 -2.4999 0.9785
-0.0978 -4.8178 -2.4999 0.9785
0.2463 -4.8125 -2.4999 0.9785
0.4179 -4.8007 -2.4999 0.9785
0.5891 -4.7827 -2.4999 0.9785
0.7595 -4.7586 -2.4999 0.9785
0.9289 -4.7285 -2.4999 0.9785
1.0971 -4.6923 -2.4999 0.9785
1.2640 -4.6501 -2.4999 0.9785
1.4292 -4.6020 -2.4999 0.9785
2.2239 -4.2750 -2.4999 0.9785
2.5233 -4.1054 -2.4999 0.9785
2.6683 -4.0127 -2.4999 0.9785
2.9479 -3.8120 -2.4999 0.9785
3.4605 -3.3535 -2.4999 0.9785
3.5781 -3.2278 -2.4999 0.9785
3.6910 -3.0980 -2.4999 0.9785
3.7993 -2.9642 -2.4999 0.9785
4.2654 -2.2422 -2.4999 0.9785
4.3427 -2.0885 -2.4999 0.9785
4.4145 -1.9321 -2.4999 0.9785
4.4807 -1.7732 -2.4999 0.9785
4.5411 -1.6121 -2.4999 0.9785
4.6446 -1.2839 -2.4999 0.9785
3.2277 -0.6485 -1.7079 0.9853
3.2248 -0.5289 -1.6953 0.9854
3.2242 -0.4112 -1.6862 0.9855
3.2204 -0.0634 -1.6710 0.9856
-4.0504 -2.1040 -2.4999 0.9794
-3.9727 -2.2473 -2.4999 0.9794
-3.8900 -2.3877 -2.4999 0.9794
-3.8022 -2.5251 -2.4999 0.9794
-3.7097 -2.6592 -2.4999 0.9794
-3.6123 -2.7900 -2.4999 0.9794
-3.5104 -2.9172 -2.4999 0.9794
-3.4040 -3.0407 -2.4999 0.9794
-3.0593 -3.3873 -2.4999 0.9794
-2.8098 -3.5970 -2.4999 0.9794
-1.6821 -4.2431 -2.4999 0.9794
-1.3750 -4.3523 -2.4999 0.9794
-1.0609 -4.4393 -2.4999 0.9794
-0.9017 -4.4744 -2.4999 0.9794
-0.5801 -4.5273 -2.4999 0.9794
-0.0927 -4.5634 -2.4999 0.9794
0.2333 -4.5584 -2.4999 0.9794
0.7194 -4.5073 -2.4999 0.9794
0.8798 -4.4787 -2.4999 0.9794
1.1972 -4.4046 -2.4999 0.9794
1.3537 -4.3590 -2.4999 0.9794
1.5085 -4.3079 -2.4999 0.9794
1.6614 -4.2512 -2.4999 0.9794
1.8121 -4.1892 -2.4999 0.9794
1.9605 -4.1219 -2.4999 0.9794
2.1065 -4.0492 -2.4999 0.9794
2.2497 -3.9714 -2.4999 0.9794
2.5274 -3.8007 -2.4999 0.9794
2.6615 -3.7081 -2.4999 0.9794
3.0427 -3.4022 -2.4999 0.9794
3.2778 -3.1763 -2.4999 0.9794
3.6966 -2.6774 -2.4999 0.9794
3.7898 -2.5437 -2.4999 0.9794
3.8783 -2.4067 -2.4999 0.9794
4.0401 -2.1238 -2.4999 0.9794
4.1134 -1.9782 -2.4999 0.9794
4.2440 -1.6796 -2.4999 0.9794
4.3013 -1.5270 -2.4999 0.9794
4.3993 -1.2162 -2.4999 0.9794
3.2116 -0.6452 -1.7941 0.9852
3.1975 -0.1774 -1.7539 0.9855
3.2019 0.0513 -1.7539 0.9855
-3.9113 -1.8575 -2.4999 0.9802
-3.6902 -2.2651 -2.4999 0.9802
-3.3302 -2.7674 -2.4999 0.9802
-3.0151 -3.1076 -2.4999 0.9802
-2.5420 -3.5053 -2.4999 0.9802
-2.2853 -3.6777 -2.4999 0.9802
-2.0170 -3.8315 -2.4999 0.9802
-1.7385 -3.9657 -2.4999 0.9802
-1.5958 -4.0252 -2.4999 0.9802
-1.3044 -4.1288 -2.4999 0.9802
-1.1562 -4.1728 -2.4999 0.9802
-0.5503 -4.2949 -2.4999 0.9802
-0.3966 -4.3118 -2.4999 0.9802
0.2213 -4.3243 -2.4999 0.9802
0.3755 -4.3137 -2.4999 0.9802
0.6824 -4.2759 -2.4999 0.9802
0.8347 -4.2488 -2.4999 0.9802
0.9858 -4.2163 -2.4999 0.9802
1.7191 -3.9741 -2.4999 0.9802
1.8599 -3.9102 -2.4999 0.9802
1.9983 -3.8413 -2.4999 0.9802
2.2673 -3.6889 -2.4999 0.9802
2.3976 -3.6056 -2.4999 0.9802
2.5248 -3.5177 -2.4999 0.9802
2.6488 -3.4253 -2.4999 0.9802
3.2151 -2.9003 -2.4999 0.9802
3.7583 -2.1503 -2.4999 0.9802
3.9022 -1.8766 -2.4999 0.9802
3.9667 -1.7361 -2.4999 0.9802
4.0261 -1.5934 -2.4999 0.9802
4.0805 -1.4486 -2.4999 0.9802
4.1296 -1.3020 -2.4999 0.9802
3.1817 -0.5218 -1.8615 0.9852
3.1772 -0.2903 -1.8420 0.9854
