ply
format ascii 1.0
element vertex 1329
property float32 x
property float32 y
property float32 z
property float32 I
end_header
-41.9408 16.7286 7.9618 0.8324
-43.9059 10.5485 7.9621 0.8324
-32.7754 -11.5628 6.1283 0.8683
-28.0950 -12.2452 5.4040 0.8830
-27.6883 -13.2713 5.4140 0.8828
-27.5366 -14.4372 5.4823 0.8814
-27.4651 -19.8837 5.9787 0.8713
-32.3004 11.5563 5.2554 0.8704
-42.2200 11.7629 6.7142 0.8375
-44.1599 10.6096 6.9576 0.8321
-27.6883 -13.2713 4.7038 0.8832
-27.4160 -15.6547 4.8364 0.8801
-27.4658 -19.8842 5.1945 0.8718
-27.4786 -21.4394 5.3393 0.8685
-27.4769 -23.0729 5.4965 0.8649
-27.4751 -24.8080 5.6709 0.8609
-32.4291 14.3054 4.6156 0.8668
-44.1599 10.6096 5.9142 0.8326
-30.7086 -2.6976 4.0143 0.8831
-29.3604 -11.5601 4.1090 0.8805
-27.6883 -13.2713 3.9984 0.8835
-27.5366 -14.4372 4.0488 0.8821
-27.4160 -15.6547 4.1112 0.8804
-27.4760 -23.0722 4.6721 0.8653
-27.4737 -24.8067 4.8202 0.8613
-27.4396 -28.6112 5.1623 0.8522
-27.4358 -33.0644 5.5949 0.8409
-27.4313 -35.5869 5.8511 0.8342
-27.4340 -38.3659 6.1419 0.8267
-32.4291 14.3054 3.8061 0.8671
-32.4582 12.9462 3.7524 0.8689
-37.8457 10.5442 4.2187 0.8538
-32.7754 -11.5628 3.7321 0.8695
-28.0950 -12.2452 3.2910 0.8840
-27.6883 -13.2713 3.2971 0.8838
-27.5366 -14.4372 3.3387 0.8824
-27.4530 -17.0120 3.4681 0.8782
-27.4701 -18.4204 3.5516 0.8754
-27.4672 -19.8852 3.6413 0.8725
-27.4672 -26.6535 4.1099 0.8573
-27.4412 -30.7521 4.4258 0.8472
-27.4368 -33.0656 4.6138 0.8413
-27.4323 -35.5882 4.8251 0.8346
-27.4333 -38.3650 5.0646 0.8272
-27.4204 -41.4147 5.3336 0.8189
-32.4291 14.3054 3.0005 0.8674
-32.4866 11.6229 2.9208 0.8707
-32.7754 -11.5628 2.9421 0.8698
-28.0950 -12.2452 2.5944 0.8842
-27.5366 -14.4372 2.6320 0.8827
-27.4160 -15.6547 2.6725 0.8810
-27.4530 -17.0120 2.7340 0.8784
-27.4679 -19.8857 2.8706 0.8727
-27.4759 -21.4372 2.9501 0.8694
-27.4426 -28.6143 3.3562 0.8529
-27.4333 -35.5895 3.8039 0.8349
-27.4327 -38.3641 3.9925 0.8275
-27.4211 -41.4158 4.2048 0.8192
-32.3991 15.7060 2.2327 0.8656
-32.4291 14.3054 2.1979 0.8676
-32.4866 11.6229 2.1396 0.8709
-44.4792 10.6863 2.8367 0.8325
-43.8599 8.8840 2.7750 0.8358
-29.3604 -11.5601 1.9567 0.8812
-27.4160 -15.6547 1.9577 0.8812
-27.4530 -17.0120 2.0027 0.8786
-27.4686 -19.8862 2.1029 0.8729
-27.4732 -23.0698 2.2246 0.8661
-27.4696 -24.8030 2.2950 0.8622
-27.4644 -26.6507 2.3731 0.8578
-27.4440 -28.6158 2.4586 0.8531
-27.4387 -33.0679 2.6645 0.8418
-27.4343 -35.5908 2.7866 0.8352
-27.4320 -38.3631 2.9245 0.8278
-32.3991 15.7060 1.4197 0.8658
-32.4291 14.3054 1.3976 0.8677
-32.4582 12.9462 1.3779 0.8695
-32.4866 11.6229 1.3605 0.8710
-31.8372 8.8702 1.3032 0.8761
-40.8802 9.8216 1.6578 0.8451
-43.6890 8.8494 1.7577 0.8366
-42.1760 -11.5496 1.7242 0.8394
-37.0171 -11.5817 1.5294 0.8562
-29.3604 -11.5601 1.2442 0.8813
-28.0950 -12.2452 1.2085 0.8845
-27.6883 -13.2713 1.2107 0.8843
-27.5366 -14.4372 1.2260 0.8830
-27.4721 -18.4218 1.3043 0.8760
-27.4693 -19.8867 1.3372 0.8731
-27.4742 -21.4358 1.3741 0.8698
-27.4723 -23.0691 1.4145 0.8662
-27.4454 -28.6173 1.5635 0.8532
-27.4446 -30.7559 1.6254 0.8479
-27.4397 -33.0691 1.6944 0.8420
-32.4873 15.7488 0.6098 0.8655
-32.4582 12.9462 0.5903 0.8695
-30.6800 8.5477 0.5380 0.8804
-42.2519 10.1511 0.7340 0.8404
-42.1747 -11.5493 0.7387 0.8395
-29.3604 -11.5601 0.5330 0.8814
-28.0950 -12.2452 0.5177 0.8846
-27.6883 -13.2713 0.5187 0.8844
-27.5366 -14.4373 0.5252 0.8830
-27.4160 -15.6547 0.5333 0.8813
-27.4727 -18.4222 0.5587 0.8761
-27.4733 -21.4352 0.5886 0.8699
-27.4615 -26.6480 0.6464 0.8581
-27.4458 -30.7572 0.6963 0.8480
-27.4363 -35.5934 0.7592 0.8354
-32.3991 15.7060 -0.2027 0.8659
-32.4291 14.3054 -0.1996 0.8678
-32.4582 12.9462 -0.1967 0.8695
-32.4866 11.6229 -0.1943 0.8711
-36.4306 8.7526 -0.2109 0.8608
-48.0227 7.9430 -0.2741 0.8231
-48.7967 4.5044 -0.2759 0.8220
-48.8005 2.7413 -0.2752 0.8224
-48.8024 0.9850 -0.2748 0.8226
-42.1735 -11.5489 -0.2461 0.8395
-37.0147 -11.5809 -0.2184 0.8563
-32.7754 -11.5628 -0.1957 0.8702
-29.3604 -11.5601 -0.1777 0.8814
-27.6883 -13.2713 -0.1729 0.8844
-27.4160 -15.6547 -0.1777 0.8814
-27.4530 -17.0120 -0.1818 0.8788
-27.4734 -18.4226 -0.1862 0.8761
-27.4706 -19.8877 -0.1909 0.8731
-27.4704 -23.0675 -0.2020 0.8663
-27.4654 -24.7993 -0.2083 0.8624
-27.4601 -26.6466 -0.2154 0.8581
-27.4301 -38.3604 -0.2655 0.8281
-27.4241 -41.4203 -0.2797 0.8198
-32.4291 14.3054 -0.9980 0.8678
-32.4866 11.6229 -0.9715 0.8710
-36.1624 8.6881 -1.0472 0.8617
-41.7587 8.4584 -1.1997 0.8432
-43.1596 3.9841 -1.2204 0.8408
-43.1784 2.4255 -1.2177 0.8411
-43.1886 -0.6804 -1.2162 0.8413
-43.1801 -2.2338 -1.2175 0.8411
-43.1624 -3.7916 -1.2200 0.8408
-43.1356 -5.3569 -1.2239 0.8404
-43.0993 -6.9327 -1.2292 0.8397
-43.0535 -8.5224 -1.2358 0.8389
-42.0520 -11.5156 -1.2277 0.8399
-32.7754 -11.5628 -0.9786 0.8702
-27.6883 -13.2713 -0.8646 0.8844
-27.4160 -15.6547 -0.8890 0.8813
-27.4741 -18.4231 -0.9314 0.8760
-27.4715 -21.4338 -0.9811 0.8699
-27.4480 -30.7597 -1.1608 0.8479
-27.4425 -33.0726 -1.2101 0.8420
-27.4383 -35.5960 -1.2655 0.8354
-27.4249 -41.4215 -1.3988 0.8197
-32.3991 15.7060 -1.8260 0.8657
-32.4866 11.6229 -1.7498 0.8709
-27.4437 8.7200 -1.4604 0.8911
-31.0724 8.6571 -1.6358 0.8788
-37.4383 4.8178 -1.9143 0.8597
-37.5403 -0.5914 -1.9041 0.8604
-37.4934 -3.2936 -1.9088 0.8601
-37.4454 -4.6502 -1.9136 0.8597
-37.3807 -6.0129 -1.9201 0.8593
-35.8951 -11.2306 -1.9074 0.8602
-32.7754 -11.5628 -1.7626 0.8701
-27.5366 -14.4372 -1.5768 0.8829
-27.4160 -15.6547 -1.6011 0.8812
-27.4530 -17.0120 -1.6379 0.8787
-27.4720 -19.8887 -1.7200 0.8730
-27.4706 -21.4331 -1.7670 0.8697
-27.4627 -24.7968 -1.8765 0.8623
-27.4573 -26.6438 -1.9403 0.8579
-27.4512 -28.6233 -2.0113 0.8531
-27.4435 -33.0737 -2.1795 0.8419
-27.4393 -35.5973 -2.2794 0.8353
-26.9448 -37.6818 -2.3493 0.8307
-25.5942 -41.8488 -2.4878 0.8216
-19.4440 -45.3356 -2.5017 0.8207
-16.1384 -46.6148 -2.5017 0.8207
-11.0292 -48.0810 -2.5017 0.8207
-9.2948 -48.4458 -2.5017 0.8207
-7.5484 -48.7484 -2.5017 0.8207
-1.6501 -35.9855 -1.8269 0.8656
-0.4580 -46.3220 -2.3493 0.8307
1.2162 -46.6835 -2.3683 0.8294
8.2546 -48.1507 -2.4776 0.8223
44.7617 -16.7939 -2.4246 0.8257
44.9551 -11.5331 -2.3537 0.8304
45.2562 -9.8922 -2.3493 0.8307
48.5389 -8.7957 -2.5017 0.8207
-28.1714 11.2363 -2.2238 0.8855
-28.5569 10.2170 -2.2238 0.8855
-27.4437 8.7200 -2.1114 0.8909
-30.6575 6.2098 -2.2935 0.8821
-31.5343 5.2158 -2.3436 0.8797
-31.6333 4.0708 -2.3385 0.8799
-31.7078 2.9270 -2.3348 0.8801
-31.7020 1.7808 -2.3281 0.8804
-31.7851 -0.5007 -2.3308 0.8803
-31.7624 -1.6432 -2.3320 0.8802
-31.7153 -2.7860 -2.3344 0.8801
-31.6438 -3.9297 -2.3380 0.8800
-31.1468 -8.5293 -2.3678 0.8785
-30.9412 -9.6806 -2.3771 0.8781
-29.4970 -10.4062 -2.2934 0.8821
-28.0950 -12.2452 -2.2471 0.8843
-27.6883 -13.2713 -2.2513 0.8841
-27.5366 -14.4373 -2.2797 0.8828
-25.6835 -20.0387 -2.3885 0.8775
-25.6658 -21.5521 -2.4574 0.8742
-24.4860 -23.7606 -2.5017 0.8721
-21.7874 -26.2572 -2.5017 0.8721
-20.8300 -27.0230 -2.5017 0.8721
-19.8457 -27.7538 -2.5017 0.8721
-17.8016 -29.1072 -2.5017 0.8721
-16.7444 -29.7280 -2.5017 0.8721
-15.6656 -30.3105 -2.5017 0.8721
-9.9968 -32.6219 -2.5017 0.8721
-8.8184 -32.9601 -2.5017 0.8721
-7.6286 -33.2556 -2.5017 0.8721
-6.4289 -33.5082 -2.5017 0.8721
-5.2210 -33.7175 -2.5017 0.8721
-4.0062 -33.8833 -2.5017 0.8721
-0.3168 -32.0393 -2.3493 0.8794
4.3825 -32.5467 -2.4079 0.8766
5.5856 -32.5819 -2.4238 0.8758
6.7971 -32.5739 -2.4398 0.8751
9.2392 -32.4250 -2.4721 0.8735
15.3732 -31.2444 -2.5532 0.8697
17.7979 -30.4375 -2.5853 0.8681
18.9956 -29.9609 -2.6011 0.8674
21.3507 -28.8613 -2.6323 0.8659
22.4289 -28.1447 -2.6388 0.8656
23.2277 -27.0901 -2.6165 0.8666
23.9433 -25.9749 -2.5902 0.8679
24.6054 -24.8398 -2.5636 0.8692
25.2139 -23.6880 -2.5366 0.8704
26.2977 -21.3678 -2.4845 0.8729
27.2793 -19.0852 -2.4411 0.8750
27.7482 -17.9638 -2.4237 0.8758
29.0529 -14.6387 -2.3853 0.8777
29.4796 -13.5485 -2.3789 0.8780
29.8024 -12.4203 -2.3673 0.8785
32.7231 -9.6605 -2.5017 0.8721
33.0491 -8.4787 -2.5017 0.8721
33.3323 -7.2859 -2.5017 0.8721
33.5726 -6.0837 -2.5017 0.8721
-23.8414 10.5171 -2.5017 0.9006
-24.8352 7.8912 -2.5018 0.9006
-25.8512 3.3267 -2.5023 0.9006
-26.0662 0.5261 -2.5030 0.9005
-26.0370 -1.3470 -2.5030 0.9005
-25.9710 -2.2814 -2.5029 0.9005
-25.7344 -4.1396 -2.5024 0.9006
-24.2529 -9.5492 -2.5024 0.9006
-23.0841 -12.1028 -2.5023 0.9006
-22.1500 -13.7258 -2.5017 0.9006
-21.6426 -14.5127 -2.5017 0.9006
-21.1073 -15.2809 -2.5017 0.9006
-19.9555 -16.7570 -2.5017 0.9006
-19.3406 -17.4631 -2.5017 0.9006
-18.0368 -18.8069 -2.5017 0.9006
-16.6397 -20.0534 -2.5017 0.9006
-15.9085 -20.6383 -2.5017 0.9006
-15.1568 -21.1965 -2.5017 0.9006
-12.7882 -22.7042 -2.5017 0.9006
-11.9643 -23.1490 -2.5017 0.9006
-11.1249 -23.5639 -2.5017 0.9006
-10.2712 -23.9483 -2.5017 0.9006
-9.4042 -24.3019 -2.5017 0.9006
-8.5250 -24.6241 -2.5017 0.9006
-6.7349 -25.1727 -2.5017 0.9006
-5.8262 -25.3983 -2.5017 0.9006
-4.9100 -25.5913 -2.5017 0.9006
-3.9874 -25.7512 -2.5017 0.9006
-1.9984 -24.3889 -2.3493 0.9063
-1.1209 -24.4450 -2.3493 0.9063
0.6399 -24.5614 -2.3588 0.9060
2.4259 -24.6967 -2.3824 0.9051
3.3282 -24.7166 -2.3943 0.9046
4.2351 -24.7041 -2.4063 0.9042
5.1455 -24.6587 -2.4183 0.9037
6.0581 -24.5799 -2.4304 0.9033
7.8850 -24.3207 -2.4546 0.9024
8.7966 -24.1397 -2.4666 0.9019
10.6094 -23.6736 -2.4906 0.9010
11.5077 -23.3882 -2.5025 0.9006
12.3987 -23.0678 -2.5142 0.9001
13.2778 -22.7074 -2.5254 0.8997
14.0153 -22.1058 -2.5129 0.9002
14.7083 -21.4535 -2.4972 0.9008
15.3691 -20.7755 -2.4810 0.9014
15.9971 -20.0738 -2.4643 0.9020
16.5940 -19.3533 -2.4475 0.9026
17.1670 -18.6236 -2.4317 0.9032
18.2572 -17.1523 -2.4050 0.9042
19.2803 -15.6659 -2.3850 0.9050
19.7721 -14.9189 -2.3780 0.9053
20.7311 -13.4211 -2.3710 0.9055
21.4906 -11.8150 -2.3544 0.9062
21.8816 -11.0253 -2.3523 0.9062
22.2433 -10.2228 -2.3502 0.9063
24.3974 -9.1535 -2.5017 0.9006
24.9917 -7.3780 -2.5017 0.9006
25.2406 -6.4754 -2.5017 0.9006
25.4570 -5.5645 -2.5017 0.9006
25.6405 -4.6463 -2.5017 0.9006
-18.9512 9.1869 -2.5017 0.9187
-19.2692 8.5002 -2.5017 0.9187
-20.2891 5.6527 -2.5019 0.9187
-20.4793 4.9202 -2.5019 0.9187
-20.6430 4.1814 -2.5019 0.9187
-20.7801 3.4371 -2.5019 0.9187
-20.9736 1.9361 -2.5020 0.9187
-21.0297 1.1813 -2.5020 0.9187
-21.0604 -0.3318 -2.5020 0.9187
-20.9823 -1.8432 -2.5020 0.9187
-20.9026 -2.5958 -2.5020 0.9187
-20.5019 -4.8297 -2.5020 0.9187
-20.3151 -5.5632 -2.5020 0.9187
-19.5983 -7.7165 -2.5020 0.9187
-18.6539 -9.7801 -2.5019 0.9187
-18.2903 -10.4439 -2.5019 0.9187
-17.9031 -11.0941 -2.5019 0.9187
-16.6050 -12.9555 -2.5018 0.9187
-16.1286 -13.5435 -2.5017 0.9187
-15.6315 -14.1140 -2.5017 0.9187
-15.1143 -14.6665 -2.5017 0.9187
-14.5776 -15.2000 -2.5017 0.9187
-13.4485 -16.2076 -2.5017 0.9187
-12.8576 -16.6803 -2.5017 0.9187
-11.6267 -17.5605 -2.5017 0.9187
-10.9883 -17.9668 -2.5017 0.9187
-10.3357 -18.3500 -2.5017 0.9187
-8.9914 -19.0448 -2.5017 0.9187
-8.3014 -19.3555 -2.5017 0.9187
-6.1707 -20.1363 -2.5017 0.9187
-3.9683 -20.6833 -2.5017 0.9187
-3.2227 -20.8126 -2.5017 0.9187
-1.5979 -19.5012 -2.3242 0.9242
-0.9059 -19.7569 -2.3493 0.9234
-0.1954 -19.7656 -2.3480 0.9235
1.2342 -19.8873 -2.3669 0.9229
3.4076 -19.8773 -2.3956 0.9220
4.1361 -19.8214 -2.4052 0.9217
5.5931 -19.6292 -2.4245 0.9211
7.0434 -19.3286 -2.4437 0.9205
8.4103 -18.7666 -2.4428 0.9205
9.6581 -17.9690 -2.4232 0.9211
10.2524 -17.5334 -2.4126 0.9214
10.8311 -17.0835 -2.4028 0.9218
11.9443 -16.1460 -2.3857 0.9223
10.1101 -10.9680 -1.7719 0.9417
14.5081 -13.6301 -2.3646 0.9229
14.9995 -13.1098 -2.3663 0.9229
15.4654 -12.5663 -2.3671 0.9229
15.8333 -11.9470 -2.3561 0.9232
16.2324 -11.3565 -2.3532 0.9233
17.6652 -9.7118 -2.3946 0.9220
19.7185 -7.3980 -2.5017 0.9187
19.9715 -6.6849 -2.5017 0.9187
20.1988 -5.9631 -2.5017 0.9187
20.4000 -5.2336 -2.5017 0.9187
20.7231 -3.7552 -2.5017 0.9187
-16.3999 6.5412 -2.5017 0.9312
-16.6243 5.9478 -2.5017 0.9312
-17.0085 4.7387 -2.5017 0.9312
-17.1677 4.1246 -2.5017 0.9312
-17.3048 3.5051 -2.5017 0.9312
-17.4196 2.8812 -2.5017 0.9312
-17.5815 1.6229 -2.5017 0.9312
-17.6527 0.3563 -2.5017 0.9312
-17.6541 -0.2781 -2.5017 0.9312
-17.5885 -1.5451 -2.5017 0.9312
-17.4322 -2.8041 -2.5017 0.9312
-17.1858 -4.0485 -2.5017 0.9312
-17.0293 -4.6633 -2.5017 0.9312
-16.6505 -5.8741 -2.5017 0.9312
-15.9218 -7.6315 -2.5017 0.9312
-15.6374 -8.1986 -2.5017 0.9312
-15.3327 -8.7551 -2.5017 0.9312
-14.6645 -9.8334 -2.5017 0.9312
-13.5213 -11.3541 -2.5017 0.9312
-13.1047 -11.8326 -2.5017 0.9312
-12.2212 -12.7430 -2.5017 0.9312
-11.2747 -13.5877 -2.5017 0.9312
-8.6650 -15.3838 -2.5017 0.9312
-8.1067 -15.6852 -2.5017 0.9312
-7.5380 -15.9663 -2.5017 0.9312
-6.3720 -16.4663 -2.5017 0.9312
-5.7764 -16.6846 -2.5017 0.9312
-4.5634 -17.0564 -2.5017 0.9312
-3.9477 -17.2093 -2.5017 0.9312
-2.7018 -17.4483 -2.5017 0.9312
-1.9469 -16.4659 -2.3493 0.9352
-0.7595 -16.5633 -2.3493 0.9352
1.0336 -16.6549 -2.3644 0.9348
2.2419 -16.6494 -2.3803 0.9344
3.4547 -16.5561 -2.3964 0.9340
4.0428 -16.4031 -2.3937 0.9340
4.6199 -16.2136 -2.3887 0.9342
7.3698 -14.9783 -2.3653 0.9348
8.4073 -14.3780 -2.3599 0.9349
9.4166 -13.7350 -2.3596 0.9349
9.9094 -13.3953 -2.3609 0.9349
10.3901 -13.0380 -2.3622 0.9349
9.7606 -11.3837 -2.1247 0.9412
11.6940 -11.8054 -2.3544 0.9351
12.1046 -11.3721 -2.3533 0.9351
12.4990 -10.9243 -2.3521 0.9351
13.2371 -9.9880 -2.3496 0.9352
15.4722 -8.5062 -2.5017 0.9312
15.7678 -7.9449 -2.5017 0.9312
16.2976 -6.7921 -2.5017 0.9312
16.5311 -6.2022 -2.5017 0.9312
16.9337 -4.9992 -2.5017 0.9312
17.2490 -3.7703 -2.5017 0.9312
17.3733 -3.1482 -2.5017 0.9312
-13.8940 6.1291 -2.5017 0.9403
-14.8836 3.0147 -2.5017 0.9403
-14.9823 2.4781 -2.5017 0.9403
-15.0616 1.9382 -2.5017 0.9403
-15.1619 0.8517 -2.5017 0.9403
-15.1840 -0.2392 -2.5017 0.9403
-15.1656 -0.7846 -2.5017 0.9403
-15.1276 -1.3289 -2.5017 0.9403
-14.8968 -2.9488 -2.5017 0.9403
-14.7812 -3.4821 -2.5017 0.9403
-14.6466 -4.0109 -2.5017 0.9403
-14.3208 -5.0522 -2.5017 0.9403
-14.1300 -5.5634 -2.5017 0.9403
-13.6941 -6.5637 -2.5017 0.9403
-13.4494 -7.0514 -2.5017 0.9403
-13.1874 -7.5301 -2.5017 0.9403
-12.9084 -7.9990 -2.5017 0.9403
-12.3007 -8.9052 -2.5017 0.9403
-11.9728 -9.3414 -2.5017 0.9403
-11.6295 -9.7655 -2.5017 0.9403
-10.5113 -10.9601 -2.5017 0.9403
-9.6971 -11.6865 -2.5017 0.9403
-9.2710 -12.0274 -2.5017 0.9403
-7.4526 -13.2313 -2.5017 0.9403
-6.4833 -13.7323 -2.5017 0.9403
-5.4805 -14.1624 -2.5017 0.9403
-4.9681 -14.3501 -2.5017 0.9403
-4.4494 -14.5194 -2.5017 0.9403
-3.9249 -14.6699 -2.5017 0.9403
-3.3953 -14.8014 -2.5017 0.9403
-2.1822 -14.0928 -2.3493 0.9438
-1.6753 -14.1689 -2.3504 0.9438
-1.1658 -14.2282 -2.3518 0.9438
-1.0431 -22.7497 -3.7517 0.9118
-0.1410 -14.2600 -2.3493 0.9438
0.8837 -14.2393 -2.3503 0.9438
1.9048 -14.1462 -2.3515 0.9438
2.4125 -14.0726 -2.3521 0.9438
2.9174 -13.9811 -2.3528 0.9437
3.9163 -13.7444 -2.3544 0.9437
4.4091 -13.5996 -2.3552 0.9437
5.3783 -13.2577 -2.3569 0.9437
5.8534 -13.0611 -2.3579 0.9436
7.2316 -12.3665 -2.3600 0.9436
7.6708 -12.0966 -2.3596 0.9436
8.0812 -11.7873 -2.3544 0.9437
9.2926 -10.8378 -2.3518 0.9438
9.6721 -10.4928 -2.3509 0.9438
10.0388 -10.1344 -2.3500 0.9438
10.3934 -9.7645 -2.3493 0.9438
11.1043 -9.7054 -2.4296 0.9420
11.7857 -9.5763 -2.5017 0.9403
12.1222 -9.1467 -2.5017 0.9403
13.3074 -7.3160 -2.5017 0.9403
13.5616 -6.8332 -2.5017 0.9403
13.7983 -6.3416 -2.5017 0.9403
14.0173 -5.8418 -2.5017 0.9403
14.4005 -4.8202 -2.5017 0.9403
14.7094 -3.7737 -2.5017 0.9403
14.9425 -2.7077 -2.5017 0.9403
-11.9766 5.8059 -2.5017 0.9473
-12.1775 5.3719 -2.5017 0.9473
-12.3626 4.9309 -2.5017 0.9473
-12.9414 3.1092 -2.5017 0.9473
-13.2008 1.6988 -2.5017 0.9473
-5.1664 0.1043 -0.9713 0.9792
-5.1747 -0.0815 -0.9728 0.9792
-12.9551 -3.0519 -2.5017 0.9473
-12.2012 -5.3179 -2.5017 0.9473
-12.0022 -5.7528 -2.5017 0.9473
-10.4936 -8.1873 -2.5017 0.9473
-10.1927 -8.5590 -2.5017 0.9473
-9.8786 -8.9197 -2.5017 0.9473
-9.5518 -9.2688 -2.5017 0.9473
-8.1256 -10.5415 -2.5017 0.9473
-7.7417 -10.8266 -2.5017 0.9473
-6.9443 -11.3545 -2.5017 0.9473
-6.1110 -11.8238 -2.5017 0.9473
-5.2462 -12.2321 -2.5017 0.9473
-4.8034 -12.4127 -2.5017 0.9473
-3.4400 -12.8574 -2.5017 0.9473
-2.9759 -12.9728 -2.5017 0.9473
-2.5079 -13.0713 -2.5017 0.9473
-1.9538 -12.6177 -2.3999 0.9494
-1.4679 -12.4150 -2.3498 0.9504
-1.0214 -12.4656 -2.3509 0.9504
-0.5732 -12.4999 -2.3519 0.9503
0.3261 -12.5188 -2.3538 0.9503
0.7759 -12.5025 -2.3545 0.9503
2.1177 -12.3523 -2.3556 0.9503
2.5605 -12.2697 -2.3559 0.9503
3.4353 -12.0561 -2.3563 0.9503
5.9251 -11.0236 -2.3523 0.9503
6.6978 -10.5642 -2.3511 0.9504
7.0710 -10.3138 -2.3504 0.9504
8.9379 -9.6962 -2.4787 0.9477
9.3667 -9.4559 -2.5017 0.9473
9.7003 -9.1133 -2.5017 0.9473
10.0215 -8.7589 -2.5017 0.9473
11.4254 -6.8270 -2.5017 0.9473
11.6633 -6.4121 -2.5017 0.9473
12.7651 -3.7685 -2.5017 0.9473
-10.6497 5.1627 -2.5017 0.9528
-11.1434 3.9869 -2.5017 0.9528
-11.2794 3.5839 -2.5017 0.9528
-11.6765 1.9313 -2.5017 0.9528
-4.8355 0.6223 -1.0306 0.9803
-4.7936 0.0968 -1.0135 0.9806
-4.7966 -0.0756 -1.0140 0.9806
-4.9902 -0.4384 -1.0589 0.9797
-11.7449 -1.4586 -2.5017 0.9528
-11.5198 -2.7137 -2.5017 0.9528
-11.2952 -3.5339 -2.5017 0.9528
-11.1609 -3.9375 -2.5017 0.9528
-10.6725 -5.1154 -2.5017 0.9528
-10.2776 -5.8686 -2.5017 0.9528
-10.0602 -6.2340 -2.5017 0.9528
-9.3310 -7.2802 -2.5017 0.9528
-8.7842 -7.9315 -2.5017 0.9528
-8.4936 -8.2419 -2.5017 0.9528
-6.5337 -9.8682 -2.5017 0.9528
-6.1749 -10.0965 -2.5017 0.9528
-5.8082 -10.3118 -2.5017 0.9528
-5.4340 -10.5139 -2.5017 0.9528
-3.0589 -11.4330 -2.5017 0.9528
-2.2300 -11.6231 -2.5017 0.9528
-1.8110 -11.6957 -2.5017 0.9528
-1.3708 -11.5937 -2.4677 0.9534
-0.9115 -11.1237 -2.3592 0.9554
-0.1099 -11.1184 -2.3503 0.9556
0.2897 -11.1182 -2.3510 0.9555
1.0877 -11.0729 -2.3519 0.9555
1.8802 -10.9675 -2.3521 0.9555
2.2728 -10.8922 -2.3520 0.9555
3.0484 -10.6985 -2.3515 0.9555
3.4304 -10.5807 -2.3512 0.9555
3.8077 -10.4491 -2.3508 0.9556
4.1800 -10.3038 -2.3504 0.9556
4.5466 -10.1452 -2.3500 0.9556
5.2618 -9.7896 -2.3493 0.9556
5.6806 -9.7147 -2.3788 0.9550
6.1534 -9.7054 -2.4291 0.9541
6.6469 -9.6951 -2.4847 0.9531
7.0386 -9.5146 -2.5017 0.9528
8.0214 -8.7021 -2.5017 0.9528
8.6256 -8.1036 -2.5017 0.9528
9.1852 -7.4633 -2.5017 0.9528
9.4474 -7.1285 -2.5017 0.9528
9.6974 -6.7845 -2.5017 0.9528
10.1596 -6.0706 -2.5017 0.9528
10.3711 -5.7017 -2.5017 0.9528
10.5692 -5.3255 -2.5017 0.9528
10.7538 -4.9423 -2.5017 0.9528
10.9243 -4.5528 -2.5017 0.9528
11.4639 -2.9410 -2.5017 0.9528
11.5621 -2.5273 -2.5017 0.9528
11.6454 -2.1102 -2.5017 0.9528
-9.5784 4.6433 -2.5017 0.9572
-9.7390 4.2962 -2.5017 0.9572
-10.0224 3.5858 -2.5017 0.9572
-10.1447 3.2234 -2.5017 0.9572
-10.2540 2.8569 -2.5017 0.9572
-10.3500 2.4866 -2.5017 0.9572
-10.4326 2.1132 -2.5017 0.9572
-10.5018 1.7370 -2.5017 0.9572
-4.5760 0.5889 -1.0843 0.9812
-4.5799 0.0924 -1.0766 0.9814
-4.5825 -0.0722 -1.0771 0.9813
-4.5849 -0.4028 -1.0817 0.9813
-10.2665 -2.8114 -2.5017 0.9572
-9.9044 -3.8997 -2.5017 0.9572
-9.7579 -4.2530 -2.5017 0.9572
-9.2437 -5.2782 -2.5017 0.9572
-9.0481 -5.6069 -2.5017 0.9572
-8.8408 -5.9283 -2.5017 0.9572
-8.6222 -6.2421 -2.5017 0.9572
-8.3923 -6.5478 -2.5017 0.9572
-7.6391 -7.4128 -2.5017 0.9572
-7.3679 -7.6824 -2.5017 0.9572
-7.0871 -7.9422 -2.5017 0.9572
-6.1914 -8.6586 -2.5017 0.9572
-5.2239 -9.2745 -2.5017 0.9572
-4.1957 -9.7827 -2.5017 0.9572
-3.8415 -9.9271 -2.5017 0.9572
-2.7512 -10.2828 -2.5017 0.9572
-1.6288 -10.5191 -2.5017 0.9572
-0.8693 -10.6089 -2.5017 0.9572
-0.4876 -10.6333 -2.5017 0.9572
-0.1029 -10.4105 -2.4468 0.9581
0.9772 -9.9482 -2.3493 0.9598
1.3340 -9.9066 -2.3493 0.9598
1.6890 -9.8523 -2.3493 0.9598
2.0419 -9.7853 -2.3493 0.9598
2.3975 -9.7273 -2.3546 0.9597
2.7684 -9.7156 -2.3743 0.9593
3.9349 -9.6997 -2.4601 0.9579
4.6994 -9.5510 -2.5017 0.9572
5.0395 -9.3760 -2.5017 0.9572
6.0184 -8.7793 -2.5017 0.9572
6.3305 -8.5575 -2.5017 0.9572
6.6339 -8.3245 -2.5017 0.9572
6.9287 -8.0808 -2.5017 0.9572
7.4910 -7.5624 -2.5017 0.9572
7.7579 -7.2884 -2.5017 0.9572
8.2612 -6.7125 -2.5017 0.9572
8.9355 -5.7847 -2.5017 0.9572
9.3278 -5.1281 -2.5017 0.9572
9.6719 -4.4451 -2.5017 0.9572
10.2089 -3.0139 -2.5017 0.9572
10.3106 -2.6452 -2.5017 0.9572
10.3990 -2.2730 -2.5017 0.9572
-8.8402 3.8997 -2.5017 0.9609
-8.9746 3.5796 -2.5017 0.9609
-9.3077 2.5932 -2.5017 0.9609
-9.3948 2.2572 -2.5017 0.9609
-9.5326 1.5767 -2.5017 0.9609
-4.4255 0.4085 -1.1507 0.9818
-4.4297 0.2488 -1.1487 0.9818
-4.4305 0.0894 -1.1474 0.9819
-4.4316 -0.3893 -1.1518 0.9818
-9.5885 -1.1908 -2.5017 0.9609
-9.4047 -2.2155 -2.5017 0.9609
-9.3191 -2.5519 -2.5017 0.9609
-9.1117 -3.2145 -2.5017 0.9609
-8.8574 -3.8605 -2.5017 0.9609
-8.7130 -4.1762 -2.5017 0.9609
-8.2131 -5.0894 -2.5017 0.9609
-8.0249 -5.3812 -2.5017 0.9609
-7.8264 -5.6660 -2.5017 0.9609
-7.3994 -6.2134 -2.5017 0.9609
-7.1714 -6.4752 -2.5017 0.9609
-6.9341 -6.7287 -2.5017 0.9609
-6.6879 -6.9734 -2.5017 0.9609
-6.4331 -7.2092 -2.5017 0.9609
-6.1699 -7.4357 -2.5017 0.9609
-5.8988 -7.6526 -2.5017 0.9609
-5.6201 -7.8595 -2.5017 0.9609
-5.0412 -8.2428 -2.5017 0.9609
-4.4363 -8.5835 -2.5017 0.9609
-3.8085 -8.8799 -2.5017 0.9609
-2.8310 -9.2381 -2.5017 0.9609
-2.1603 -9.4176 -2.5017 0.9609
-1.8206 -9.4891 -2.5017 0.9609
-1.1345 -9.5953 -2.5017 0.9609
-0.0955 -9.6617 -2.5017 0.9609
1.9737 -9.4584 -2.5017 0.9609
2.6477 -9.2923 -2.5017 0.9609
2.9798 -9.1912 -2.5017 0.9609
3.9514 -8.8172 -2.5017 0.9609
4.2657 -8.6696 -2.5017 0.9609
5.7463 -7.7677 -2.5017 0.9609
6.0217 -7.5562 -2.5017 0.9609
6.7997 -6.8645 -2.5017 0.9609
7.0419 -6.6158 -2.5017 0.9609
7.2751 -6.3585 -2.5017 0.9609
7.4988 -6.0930 -2.5017 0.9609
7.7129 -5.8197 -2.5017 0.9609
8.1108 -5.2508 -2.5017 0.9609
8.4669 -4.6549 -2.5017 0.9609
8.6287 -4.3477 -2.5017 0.9609
8.7793 -4.0349 -2.5017 0.9609
8.9186 -3.7169 -2.5017 0.9609
9.2668 -2.7357 -2.5017 0.9609
9.4393 -2.0633 -2.5017 0.9609
-7.9519 3.8549 -2.5017 0.9639
-8.0853 3.5667 -2.5017 0.9639
-8.2082 3.2739 -2.5017 0.9639
-8.4221 2.6761 -2.5017 0.9639
-8.5925 2.0644 -2.5017 0.9639
-8.6611 1.7544 -2.5017 0.9639
-4.3084 0.7126 -1.2362 0.9820
-4.2822 0.3953 -1.2174 0.9823
-4.2866 -0.3766 -1.2182 0.9823
-8.7697 -1.0891 -2.5017 0.9639
-8.7249 -1.4034 -2.5017 0.9639
-8.4339 -2.6387 -2.5017 0.9639
-8.3336 -2.9400 -2.5017 0.9639
-8.2226 -3.2375 -2.5017 0.9639
-8.1010 -3.5308 -2.5017 0.9639
-7.8266 -4.1034 -2.5017 0.9639
-7.6741 -4.3820 -2.5017 0.9639
-7.5117 -4.6548 -2.5017 0.9639
-7.3396 -4.9217 -2.5017 0.9639
-6.9673 -5.4360 -2.5017 0.9639
-6.5590 -5.9223 -2.5017 0.9639
-5.8837 -6.5936 -2.5017 0.9639
-5.3950 -6.9990 -2.5017 0.9639
-4.8786 -7.3684 -2.5017 0.9639
-4.6107 -7.5389 -2.5017 0.9639
-4.3369 -7.6997 -2.5017 0.9639
-3.7728 -7.9912 -2.5017 0.9639
-3.4833 -8.1216 -2.5017 0.9639
-3.1892 -8.2415 -2.5017 0.9639
-2.8911 -8.3507 -2.5017 0.9639
-2.5892 -8.4492 -2.5017 0.9639
-2.2840 -8.5368 -2.5017 0.9639
-1.9758 -8.6133 -2.5017 0.9639
-1.6651 -8.6788 -2.5017 0.9639
-1.3522 -8.7330 -2.5017 0.9639
-1.0376 -8.7759 -2.5017 0.9639
0.2301 -8.8340 -2.5017 0.9639
0.5474 -8.8201 -2.5017 0.9639
1.4932 -8.7100 -2.5017 0.9639
2.7254 -8.4063 -2.5017 0.9639
3.0256 -8.3030 -2.5017 0.9639
4.4607 -7.6286 -2.5017 0.9639
4.7319 -7.4634 -2.5017 0.9639
5.7522 -6.7087 -2.5017 0.9639
5.9895 -6.4977 -2.5017 0.9639
6.2190 -6.2783 -2.5017 0.9639
6.4406 -6.0508 -2.5017 0.9639
7.4182 -4.8024 -2.5017 0.9639
7.5859 -4.5329 -2.5017 0.9639
7.7439 -4.2574 -2.5017 0.9639
7.8919 -3.9764 -2.5017 0.9639
8.0296 -3.6903 -2.5017 0.9639
8.2739 -3.1042 -2.5017 0.9639
8.3800 -2.8050 -2.5017 0.9639
8.5598 -2.1960 -2.5017 0.9639
8.6954 -1.5757 -2.5017 0.9639
-7.3189 3.5480 -2.5017 0.9665
-7.4417 3.2827 -2.5017 0.9665
-7.5548 3.0133 -2.5017 0.9665
-7.6582 2.7399 -2.5017 0.9665
-7.7516 2.4630 -2.5017 0.9665
-7.8351 2.1829 -2.5017 0.9665
-4.1688 0.2342 -1.2842 0.9827
-4.1708 0.0842 -1.2831 0.9827
-4.1672 -0.3661 -1.2867 0.9826
-4.3680 -0.7026 -1.3608 0.9817
-7.9787 -1.5794 -2.5017 0.9665
-7.9168 -1.8650 -2.5017 0.9665
-7.7625 -2.4287 -2.5017 0.9665
-7.5681 -2.9798 -2.5017 0.9665
-7.4561 -3.2497 -2.5017 0.9665
-7.2035 -3.7767 -2.5017 0.9665
-6.7553 -4.5299 -2.5017 0.9665
-6.5883 -4.7696 -2.5017 0.9665
-6.4126 -5.0033 -2.5017 0.9665
-6.2287 -5.2304 -2.5017 0.9665
-5.8371 -5.6642 -2.5017 0.9665
-5.4153 -6.0687 -2.5017 0.9665
-5.1938 -6.2593 -2.5017 0.9665
-4.9656 -6.4419 -2.5017 0.9665
-4.7309 -6.6161 -2.5017 0.9665
-4.4902 -6.7818 -2.5017 0.9665
-4.2436 -6.9387 -2.5017 0.9665
-3.9916 -7.0867 -2.5017 0.9665
-3.4724 -7.3550 -2.5017 0.9665
-3.2060 -7.4750 -2.5017 0.9665
-2.9354 -7.5854 -2.5017 0.9665
-2.6609 -7.6860 -2.5017 0.9665
-2.3831 -7.7766 -2.5017 0.9665
-1.5326 -7.9879 -2.5017 0.9665
-1.2446 -8.0378 -2.5017 0.9665
-0.6642 -8.1064 -2.5017 0.9665
-0.0804 -8.1331 -2.5017 0.9665
0.7951 -8.0946 -2.5017 0.9665
1.0854 -8.0608 -2.5017 0.9665
1.3743 -8.0166 -2.5017 0.9665
1.6614 -7.9621 -2.5017 0.9665
1.9464 -7.8972 -2.5017 0.9665
2.2289 -7.8222 -2.5017 0.9665
2.5084 -7.7371 -2.5017 0.9665
3.0575 -7.5370 -2.5017 0.9665
3.3263 -7.4223 -2.5017 0.9665
4.5992 -6.7083 -2.5017 0.9665
5.0690 -6.3608 -2.5017 0.9665
6.3124 -5.1291 -2.5017 0.9665
6.4926 -4.8990 -2.5017 0.9665
6.6645 -4.6626 -2.5017 0.9665
6.9820 -4.1720 -2.5017 0.9665
7.2636 -3.6599 -2.5017 0.9665
7.5077 -3.1289 -2.5017 0.9665
7.6152 -2.8571 -2.5017 0.9665
7.8784 -2.0212 -2.5017 0.9665
8.0032 -1.4503 -2.5017 0.9665
-6.8858 3.0376 -2.5017 0.9688
-6.9905 2.7882 -2.5017 0.9688
-7.2499 2.0199 -2.5017 0.9688
-7.3178 1.7581 -2.5017 0.9688
-7.3763 1.4941 -2.5017 0.9688
-4.0363 0.6676 -1.3599 0.9829
-4.0465 0.5207 -1.3562 0.9829
-4.0530 0.3741 -1.3530 0.9830
-4.0584 0.2280 -1.3512 0.9830
-4.0605 0.0820 -1.3500 0.9830
-4.0575 -0.2099 -1.3505 0.9830
-4.0477 -0.5027 -1.3558 0.9830
-7.3255 -1.7257 -2.5017 0.9688
-7.2588 -1.9878 -2.5017 0.9688
-7.1827 -2.2473 -2.5017 0.9688
-7.0028 -2.7572 -2.5017 0.9688
-6.7867 -3.2529 -2.5017 0.9688
-6.5356 -3.7319 -2.5017 0.9688
-6.2508 -4.1915 -2.5017 0.9688
-5.9337 -4.6295 -2.5017 0.9688
-5.5859 -5.0437 -2.5017 0.9688
-5.2094 -5.4318 -2.5017 0.9688
-5.0108 -5.6154 -2.5017 0.9688
-4.8059 -5.7918 -2.5017 0.9688
-4.3776 -6.1220 -2.5017 0.9688
-4.1548 -6.2753 -2.5017 0.9688
-3.6935 -6.5574 -2.5017 0.9688
-3.2131 -6.8057 -2.5017 0.9688
-2.7161 -7.0189 -2.5017 0.9688
-2.4622 -7.1119 -2.5017 0.9688
-1.9452 -7.2703 -2.5017 0.9688
-1.4181 -7.3912 -2.5017 0.9688
-0.8837 -7.4740 -2.5017 0.9688
-0.3447 -7.5182 -2.5017 0.9688
0.4662 -7.5116 -2.5017 0.9688
1.0043 -7.4587 -2.5017 0.9688
1.2717 -7.4178 -2.5017 0.9688
1.5373 -7.3674 -2.5017 0.9688
1.8010 -7.3074 -2.5017 0.9688
2.0624 -7.2379 -2.5017 0.9688
2.8292 -6.9741 -2.5017 0.9688
3.3226 -6.7529 -2.5017 0.9688
3.7990 -6.4969 -2.5017 0.9688
4.0299 -6.3562 -2.5017 0.9688
4.2557 -6.2073 -2.5017 0.9688
4.4759 -6.0504 -2.5017 0.9688
4.8988 -5.7134 -2.5017 0.9688
5.4851 -5.1532 -2.5017 0.9688
5.8410 -4.7460 -2.5017 0.9688
6.4606 -3.8604 -2.5017 0.9688
6.5951 -3.6258 -2.5017 0.9688
6.7211 -3.3865 -2.5017 0.9688
6.8384 -3.1429 -2.5017 0.9688
6.9469 -2.8951 -2.5017 0.9688
7.0464 -2.6437 -2.5017 0.9688
7.1369 -2.3888 -2.5017 0.9688
7.2181 -2.1309 -2.5017 0.9688
7.3525 -1.6071 -2.5017 0.9688
7.4054 -1.3419 -2.5017 0.9688
-6.2950 3.0516 -2.5017 0.9707
-6.4006 2.8235 -2.5017 0.9707
-6.5868 2.3566 -2.5017 0.9707
-6.6672 2.1184 -2.5017 0.9707
-6.7390 1.8776 -2.5017 0.9707
-6.8021 1.6342 -2.5017 0.9707
-3.9947 0.8091 -1.4575 0.9828
-3.9513 0.2220 -1.4152 0.9833
-3.9532 -0.0623 -1.4139 0.9833
-6.9069 -1.1110 -2.5017 0.9707
-6.6765 -2.0889 -2.5017 0.9707
-6.5972 -2.3274 -2.5017 0.9707
-6.3085 -3.0237 -2.5017 0.9707
-6.0751 -3.4689 -2.5017 0.9707
-5.9466 -3.6852 -2.5017 0.9707
-5.0205 -4.8717 -2.5017 0.9707
-4.8422 -5.0490 -2.5017 0.9707
-4.6577 -5.2197 -2.5017 0.9707
-4.4672 -5.3837 -2.5017 0.9707
-4.2709 -5.5407 -2.5017 0.9707
-4.0691 -5.6905 -2.5017 0.9707
-3.8620 -5.8331 -2.5017 0.9707
-3.6500 -5.9680 -2.5017 0.9707
-3.2120 -6.2147 -2.5017 0.9707
-2.7575 -6.4293 -2.5017 0.9707
-2.2887 -6.6107 -2.5017 0.9707
-2.0497 -6.6887 -2.5017 0.9707
-1.8081 -6.7580 -2.5017 0.9707
-1.5641 -6.8186 -2.5017 0.9707
-1.3182 -6.8704 -2.5017 0.9707
-1.0705 -6.9133 -2.5017 0.9707
-0.8214 -6.9472 -2.5017 0.9707
-0.5713 -6.9723 -2.5017 0.9707
-0.0692 -6.9953 -2.5017 0.9707
0.1822 -6.9933 -2.5017 0.9707
0.4333 -6.9822 -2.5017 0.9707
0.9336 -6.9331 -2.5017 0.9707
1.1820 -6.8951 -2.5017 0.9707
1.4290 -6.8481 -2.5017 0.9707
1.6741 -6.7924 -2.5017 0.9707
2.1575 -6.6546 -2.5017 0.9707
2.3952 -6.5729 -2.5017 0.9707
3.0885 -6.2770 -2.5017 0.9707
3.5312 -6.0390 -2.5017 0.9707
3.9558 -5.7699 -2.5017 0.9707
4.1605 -5.6240 -2.5017 0.9707
4.3598 -5.4709 -2.5017 0.9707
4.5536 -5.3108 -2.5017 0.9707
4.7415 -5.1437 -2.5017 0.9707
4.9233 -4.9701 -2.5017 0.9707
5.0986 -4.7900 -2.5017 0.9707
5.2674 -4.6037 -2.5017 0.9707
5.5843 -4.2136 -2.5017 0.9707
6.0053 -3.5883 -2.5017 0.9707
6.1303 -3.3703 -2.5017 0.9707
6.2474 -3.1479 -2.5017 0.9707
6.3565 -2.9214 -2.5017 0.9707
6.8343 -1.4938 -2.5017 0.9707
6.8836 -1.2474 -2.5017 0.9707
-6.0636 2.4185 -2.5017 0.9724
-6.1466 2.1991 -2.5017 0.9724
-6.2886 1.7521 -2.5017 0.9724
-3.7777 0.6248 -1.4673 0.9837
-3.8009 0.3508 -1.4628 0.9838
-3.8021 -0.3340 -1.4626 0.9838
-6.3542 -1.4969 -2.5017 0.9724
-6.2303 -1.9493 -2.5017 0.9724
-5.8869 -2.8216 -2.5017 0.9724
-5.1469 -4.0157 -2.5017 0.9724
-4.8453 -4.3749 -2.5017 0.9724
-4.3464 -4.8708 -2.5017 0.9724
-3.9855 -5.1704 -2.5017 0.9724
-3.6039 -5.4432 -2.5017 0.9724
-3.4060 -5.5692 -2.5017 0.9724
-3.2038 -5.6879 -2.5017 0.9724
-2.7871 -5.9033 -2.5017 0.9724
-2.5732 -5.9996 -2.5017 0.9724
-2.3560 -6.0882 -2.5017 0.9724
-2.1357 -6.1689 -2.5017 0.9724
-1.9127 -6.2416 -2.5017 0.9724
-1.6872 -6.3063 -2.5017 0.9724
-1.4596 -6.3629 -2.5017 0.9724
-1.2301 -6.4112 -2.5017 0.9724
-0.7665 -6.4830 -2.5017 0.9724
-0.2990 -6.5213 -2.5017 0.9724
0.1700 -6.5259 -2.5017 0.9724
0.6382 -6.4969 -2.5017 0.9724
0.8712 -6.4697 -2.5017 0.9724
1.1030 -6.4343 -2.5017 0.9724
1.5622 -6.3385 -2.5017 0.9724
2.2351 -6.1336 -2.5017 0.9724
2.4540 -6.0493 -2.5017 0.9724
2.6698 -5.9573 -2.5017 0.9724
2.8821 -5.8575 -2.5017 0.9724
3.0907 -5.7502 -2.5017 0.9724
3.4956 -5.5134 -2.5017 0.9724
4.2493 -4.9558 -2.5017 0.9724
4.4246 -4.8000 -2.5017 0.9724
4.9153 -4.2961 -2.5017 0.9724
5.3490 -3.7423 -2.5017 0.9724
5.6039 -3.3485 -2.5017 0.9724
5.7206 -3.1450 -2.5017 0.9724
5.9317 -2.7261 -2.5017 0.9724
6.0258 -2.5113 -2.5017 0.9724
6.1121 -2.2932 -2.5017 0.9724
6.2610 -1.8483 -2.5017 0.9724
6.3776 -1.3940 -2.5017 0.9724
6.4235 -1.1640 -2.5017 0.9724
-5.5003 2.6664 -2.5017 0.9739
-5.6776 2.2645 -2.5017 0.9739
-5.8883 1.6406 -2.5017 0.9739
-3.6460 0.4692 -1.5045 0.9842
-3.6582 -0.3214 -1.5030 0.9843
-3.6519 -0.4535 -1.5061 0.9842
-3.7375 -0.6012 -1.5493 0.9838
-5.9497 -1.4016 -2.5017 0.9739
-5.7643 -2.0336 -2.5017 0.9739
-5.6875 -2.2393 -2.5017 0.9739
-5.4136 -2.8383 -2.5017 0.9739
-5.3081 -3.0310 -2.5017 0.9739
-5.1958 -3.2197 -2.5017 0.9739
-4.8192 -3.7601 -2.5017 0.9739
-4.6810 -3.9308 -2.5017 0.9739
-4.5368 -4.0964 -2.5017 0.9739
-4.2309 -4.4116 -2.5017 0.9739
-4.0697 -4.5607 -2.5017 0.9739
-3.9032 -4.7040 -2.5017 0.9739
-3.7317 -4.8412 -2.5017 0.9739
-3.5554 -4.9722 -2.5017 0.9739
-3.1892 -5.2146 -2.5017 0.9739
-2.9998 -5.3258 -2.5017 0.9739
-2.8065 -5.4301 -2.5017 0.9739
-2.2060 -5.7006 -2.5017 0.9739
-1.3667 -5.9578 -2.5017 0.9739
-0.9353 -6.0405 -2.5017 0.9739
-0.7177 -6.0703 -2.5017 0.9739
-0.0604 -6.1122 -2.5017 0.9739
0.1592 -6.1104 -2.5017 0.9739
1.0328 -6.0246 -2.5017 0.9739
1.4628 -5.9349 -2.5017 0.9739
1.6750 -5.8785 -2.5017 0.9739
2.0928 -5.7431 -2.5017 0.9739
2.2978 -5.6642 -2.5017 0.9739
2.4998 -5.5780 -2.5017 0.9739
2.8939 -5.3841 -2.5017 0.9739
3.2730 -5.1624 -2.5017 0.9739
3.6353 -4.9140 -2.5017 0.9739
3.8095 -4.7803 -2.5017 0.9739
4.4549 -4.1853 -2.5017 0.9739
4.7439 -3.8546 -2.5017 0.9739
5.0085 -3.5040 -2.5017 0.9739
5.1311 -3.3218 -2.5017 0.9739
5.2472 -3.1353 -2.5017 0.9739
5.5540 -2.5526 -2.5017 0.9739
5.6421 -2.3514 -2.5017 0.9739
5.7230 -2.1472 -2.5017 0.9739
5.7964 -1.9402 -2.5017 0.9739
5.8624 -1.7307 -2.5017 0.9739
5.9208 -1.5190 -2.5017 0.9739
5.9715 -1.3053 -2.5017 0.9739
6.0146 -1.0899 -2.5017 0.9739
-5.2520 2.3168 -2.5017 0.9753
-5.3318 2.1266 -2.5017 0.9753
-5.4707 1.7383 -2.5017 0.9753
-5.5297 1.5406 -2.5017 0.9753
-3.4955 0.7080 -1.5543 0.9846
-3.5029 0.5794 -1.5474 0.9846
-3.5211 0.3250 -1.5411 0.9847
-3.5309 -0.0556 -1.5390 0.9847
-3.5280 -0.1825 -1.5396 0.9847
-3.5200 -0.4371 -1.5459 0.9846
-3.5758 -0.5752 -1.5784 0.9843
-5.6310 -1.1146 -2.5017 0.9753
-5.5873 -1.3162 -2.5017 0.9753
-5.2622 -2.2935 -2.5017 0.9753
-5.0839 -2.6655 -2.5017 0.9753
-4.7676 -3.1970 -2.5017 0.9753
-4.3960 -3.6914 -2.5017 0.9753
-4.2605 -3.8469 -2.5017 0.9753
-4.1195 -3.9975 -2.5017 0.9753
-3.9733 -4.1429 -2.5017 0.9753
-3.5045 -4.5464 -2.5017 0.9753
-2.9950 -4.8970 -2.5017 0.9753
-2.8171 -5.0015 -2.5017 0.9753
-2.6356 -5.0994 -2.5017 0.9753
-2.2626 -5.2755 -2.5017 0.9753
-2.0716 -5.3534 -2.5017 0.9753
-1.8780 -5.4244 -2.5017 0.9753
-1.6819 -5.4883 -2.5017 0.9753
-1.4836 -5.5452 -2.5017 0.9753
-0.8784 -5.6727 -2.5017 0.9753
-0.4688 -5.7211 -2.5017 0.9753
0.1495 -5.7383 -2.5017 0.9753
0.5611 -5.7128 -2.5017 0.9753
1.1726 -5.6192 -2.5017 0.9753
1.3737 -5.5735 -2.5017 0.9753
1.5730 -5.5205 -2.5017 0.9753
1.9654 -5.3933 -2.5017 0.9753
2.3476 -5.2383 -2.5017 0.9753
2.5342 -5.1505 -2.5017 0.9753
2.7176 -5.0562 -2.5017 0.9753
2.8975 -4.9553 -2.5017 0.9753
3.0737 -4.8480 -2.5017 0.9753
3.2459 -4.7344 -2.5017 0.9753
3.4139 -4.6148 -2.5017 0.9753
3.8906 -4.2207 -2.5017 0.9753
4.0397 -4.0782 -2.5017 0.9753
4.3221 -3.7776 -2.5017 0.9753
4.5822 -3.4575 -2.5017 0.9753
4.7034 -3.2906 -2.5017 0.9753
4.8186 -3.1195 -2.5017 0.9753
4.9276 -2.9444 -2.5017 0.9753
5.0302 -2.7655 -2.5017 0.9753
5.2158 -2.3971 -2.5017 0.9753
5.2985 -2.2082 -2.5017 0.9753
5.3744 -2.0164 -2.5017 0.9753
5.5054 -1.6253 -2.5017 0.9753
5.5602 -1.4265 -2.5017 0.9753
5.6079 -1.2258 -2.5017 0.9753
-4.8633 2.3576 -2.5017 0.9765
-4.9448 2.1813 -2.5017 0.9765
-5.0200 2.0023 -2.5017 0.9765
-5.1508 1.6366 -2.5017 0.9765
-5.2063 1.4505 -2.5017 0.9765
-5.2551 1.2625 -2.5017 0.9765
-3.3892 0.6865 -1.6007 0.9849
-3.3999 0.1910 -1.5762 0.9851
-3.4030 0.0687 -1.5755 0.9851
-3.4041 -0.4228 -1.5878 0.9850
-3.4803 -0.5599 -1.6317 0.9846
-5.2127 -1.4274 -2.5017 0.9765
-5.1581 -1.6139 -2.5017 0.9765
-5.0967 -1.7981 -2.5017 0.9765
-5.0288 -1.9800 -2.5017 0.9765
-4.8737 -2.3360 -2.5017 0.9765
-4.7866 -2.5096 -2.5017 0.9765
-4.6934 -2.6799 -2.5017 0.9765
-4.3778 -3.1693 -2.5017 0.9765
-4.1389 -3.4755 -2.5017 0.9765
-4.0114 -3.6220 -2.5017 0.9765
-3.8786 -3.7637 -2.5017 0.9765
-3.7409 -3.9007 -2.5017 0.9765
-3.2995 -4.2805 -2.5017 0.9765
-3.1436 -4.3963 -2.5017 0.9765
-2.8198 -4.6107 -2.5017 0.9765
-2.6524 -4.7090 -2.5017 0.9765
-2.4815 -4.8012 -2.5017 0.9765
-2.3074 -4.8873 -2.5017 0.9765
-2.1303 -4.9670 -2.5017 0.9765
-1.7681 -5.1071 -2.5017 0.9765
-1.5835 -5.1674 -2.5017 0.9765
-1.3969 -5.2209 -2.5017 0.9765
-1.2084 -5.2676 -2.5017 0.9765
-0.8270 -5.3409 -2.5017 0.9765
-0.6346 -5.3672 -2.5017 0.9765
-0.2476 -5.3989 -2.5017 0.9765
-0.0534 -5.4043 -2.5017 0.9765
0.1407 -5.4028 -2.5017 0.9765
0.7212 -5.3562 -2.5017 0.9765
1.4810 -5.1977 -2.5017 0.9765
2.2103 -4.9320 -2.5017 0.9765
2.3860 -4.8494 -2.5017 0.9765
2.7281 -4.6655 -2.5017 0.9765
3.2142 -4.3449 -2.5017 0.9765
3.3683 -4.2267 -2.5017 0.9765
3.5179 -4.1029 -2.5017 0.9765
3.9390 -3.7006 -2.5017 0.9765
4.4284 -3.0982 -2.5017 0.9765
4.6394 -2.7722 -2.5017 0.9765
4.9108 -2.2570 -2.5017 0.9765
4.9887 -2.0791 -2.5017 0.9765
5.0602 -1.8985 -2.5017 0.9765
5.1834 -1.5302 -2.5017 0.9765
5.2351 -1.3430 -2.5017 0.9765
5.2799 -1.1541 -2.5017 0.9765
5.3180 -0.9637 -2.5017 0.9765
-4.7372 1.8894 -2.5017 0.9775
-4.8606 1.5444 -2.5017 0.9775
-3.3393 0.6764 -1.6713 0.9849
-3.3047 0.5466 -1.6431 0.9852
-3.2916 0.3038 -1.6215 0.9854
-3.2922 0.0664 -1.6152 0.9854
-3.2972 -0.0520 -1.6176 0.9854
-3.3001 -0.1707 -1.6209 0.9854
-3.3020 -0.2901 -1.6260 0.9853
-4.9190 -1.3470 -2.5017 0.9775
-4.8674 -1.5229 -2.5017 0.9775
-4.8096 -1.6968 -2.5017 0.9775
-4.6753 -2.0377 -2.5017 0.9775
-4.5169 -2.3682 -2.5017 0.9775
-4.3352 -2.6864 -2.5017 0.9775
-4.1311 -2.9908 -2.5017 0.9775
-4.0210 -3.1372 -2.5017 0.9775
-3.6601 -3.5517 -2.5017 0.9775
-3.5301 -3.6808 -2.5017 0.9775
-3.3956 -3.8053 -2.5017 0.9775
-2.0103 -4.6872 -2.5017 0.9775
-1.3182 -4.9268 -2.5017 0.9775
-1.1403 -4.9710 -2.5017 0.9775
-0.9610 -5.0087 -2.5017 0.9775
-0.5988 -5.0648 -2.5017 0.9775
-0.2336 -5.0947 -2.5017 0.9775
0.8617 -5.0267 -2.5017 0.9775
1.2205 -4.9519 -2.5017 0.9775
1.9172 -4.7260 -2.5017 0.9775
3.1785 -3.9885 -2.5017 0.9775
3.3197 -3.8717 -2.5017 0.9775
4.0712 -3.0719 -2.5017 0.9775
4.4692 -2.4570 -2.5017 0.9775
4.7076 -1.9619 -2.5017 0.9775
4.7751 -1.7915 -2.5017 0.9775
4.8914 -1.4440 -2.5017 0.9775
4.9401 -1.2673 -2.5017 0.9775
4.9824 -1.0891 -2.5017 0.9775
5.0183 -0.9094 -2.5017 0.9775
-4.3392 2.1038 -2.5017 0.9785
-4.5959 1.4603 -2.5017 0.9785
-3.3214 0.6727 -1.7581 0.9848
-3.2794 0.5424 -1.7244 0.9851
-3.2562 0.1829 -1.6919 0.9854
-3.3082 -0.4108 -1.7294 0.9851
-3.3507 -0.5390 -1.7606 0.9848
-4.6938 -1.1057 -2.5017 0.9785
-4.5476 -1.6043 -2.5017 0.9785
-4.4207 -1.9267 -2.5017 0.9785
-4.2709 -2.2392 -2.5017 0.9785
-4.1877 -2.3912 -2.5017 0.9785
-4.0991 -2.5401 -2.5017 0.9785
-4.0052 -2.6857 -2.5017 0.9785
-3.8020 -2.9664 -2.5017 0.9785
-3.4608 -3.3582 -2.5017 0.9785
-3.3379 -3.4804 -2.5017 0.9785
-2.8049 -3.9226 -2.5017 0.9785
-2.5160 -4.1139 -2.5017 0.9785
-2.3666 -4.2016 -2.5017 0.9785
-2.2141 -4.2839 -2.5017 0.9785
-1.9008 -4.4319 -2.5017 0.9785
-1.7403 -4.4973 -2.5017 0.9785
-1.2464 -4.6584 -2.5017 0.9785
-1.0782 -4.7002 -2.5017 0.9785
-0.7379 -4.7655 -2.5017 0.9785
-0.5662 -4.7889 -2.5017 0.9785
-0.2209 -4.8172 -2.5017 0.9785
-0.0477 -4.8221 -2.5017 0.9785
0.2987 -4.8130 -2.5017 0.9785
0.4714 -4.7992 -2.5017 0.9785
0.8148 -4.7529 -2.5017 0.9785
1.1540 -4.6822 -2.5017 0.9785
1.3215 -4.6377 -2.5017 0.9785
1.4872 -4.5872 -2.5017 0.9785
1.6511 -4.5308 -2.5017 0.9785
1.9721 -4.4006 -2.5017 0.9785
2.7268 -3.9773 -2.5017 0.9785
3.1389 -3.6608 -2.5017 0.9785
3.2684 -3.5457 -2.5017 0.9785
3.3937 -3.4260 -2.5017 0.9785
3.6309 -3.1735 -2.5017 0.9785
3.8494 -2.9046 -2.5017 0.9785
3.9513 -2.7644 -2.5017 0.9785
4.1396 -2.4735 -2.5017 0.9785
4.2258 -2.3232 -2.5017 0.9785
4.4512 -1.8551 -2.5017 0.9785
4.5150 -1.6939 -2.5017 0.9785
4.5729 -1.5307 -2.5017 0.9785
4.7111 -1.0297 -2.5017 0.9785
-4.2426 1.6922 -2.5017 0.9794
-4.3532 1.3832 -2.5017 0.9794
-4.4000 1.2259 -2.5017 0.9794
-3.3821 0.8125 -1.9051 0.9843
-3.3074 0.6699 -1.8483 0.9847
-3.2502 -0.2855 -1.7870 0.9852
-3.3372 -0.5368 -1.8513 0.9847
-3.5080 -0.6944 -1.9586 0.9838
-4.4054 -1.2064 -2.5017 0.9794
-4.3592 -1.3639 -2.5017 0.9794
-4.3074 -1.5196 -2.5017 0.9794
-4.2501 -1.6734 -2.5017 0.9794
-4.1872 -1.8250 -2.5017 0.9794
-4.1189 -1.9742 -2.5017 0.9794
-3.9665 -2.2649 -2.5017 0.9794
-3.7937 -2.5439 -2.5017 0.9794
-3.4979 -2.9373 -2.5017 0.9794
-3.3902 -3.0611 -2.5017 0.9794
-3.2780 -3.1809 -2.5017 0.9794
-2.7886 -3.6176 -2.5017 0.9794
-2.6568 -3.7154 -2.5017 0.9794
-2.5216 -3.8085 -2.5017 0.9794
-2.3831 -3.8967 -2.5017 0.9794
-2.2416 -3.9798 -2.5017 0.9794
-2.0972 -4.0577 -2.5017 0.9794
-1.9500 -4.1304 -2.5017 0.9794
-1.8004 -4.1978 -2.5017 0.9794
-1.6484 -4.2598 -2.5017 0.9794
-1.4943 -4.3163 -2.5017 0.9794
-1.1805 -4.4124 -2.5017 0.9794
-1.0213 -4.4520 -2.5017 0.9794
-0.5363 -4.5360 -2.5017 0.9794
-0.3730 -4.5524 -2.5017 0.9794
-0.2092 -4.5628 -2.5017 0.9794
-0.0452 -4.5674 -2.5017 0.9794
0.2829 -4.5589 -2.5017 0.9794
0.6095 -4.5268 -2.5017 0.9794
1.0931 -4.4349 -2.5017 0.9794
1.7170 -4.2326 -2.5017 0.9794
1.8680 -4.1682 -2.5017 0.9794
2.1625 -4.0233 -2.5017 0.9794
2.5828 -3.7672 -2.5017 0.9794
2.8466 -3.5721 -2.5017 0.9794
3.0958 -3.3584 -2.5017 0.9794
3.3290 -3.1275 -2.5017 0.9794
3.5449 -2.8804 -2.5017 0.9794
3.8343 -2.4822 -2.5017 0.9794
4.0791 -2.0553 -2.5017 0.9794
4.1503 -1.9074 -2.5017 0.9794
4.2765 -1.6045 -2.5017 0.9794
4.3807 -1.2933 -2.5017 0.9794
-3.9645 1.7488 -2.5017 0.9802
-4.0798 1.4597 -2.5017 0.9802
-3.3638 0.8081 -1.9974 0.9841
-3.2528 0.5380 -1.9035 0.9849
-3.2210 0.2973 -1.8675 0.9852
-3.2119 0.1804 -1.8573 0.9853
-3.2273 -0.1670 -1.8658 0.9852
-3.2416 -0.2848 -1.8788 0.9851
-3.4572 -0.6844 -2.0347 0.9839
-4.1792 -1.1445 -2.5017 0.9802
-4.1354 -1.2938 -2.5017 0.9802
-4.0862 -1.4416 -2.5017 0.9802
-4.0318 -1.5874 -2.5017 0.9802
-3.9722 -1.7313 -2.5017 0.9802
-3.8376 -2.0120 -2.5017 0.9802
-3.7629 -2.1486 -2.5017 0.9802
-3.6832 -2.2824 -2.5017 0.9802
-3.4163 -2.6654 -2.5017 0.9802
-3.2161 -2.9039 -2.5017 0.9802
-3.1097 -3.0175 -2.5017 0.9802
-2.9993 -3.1273 -2.5017 0.9802
-2.7669 -3.3346 -2.5017 0.9802
-2.6454 -3.4319 -2.5017 0.9802
-2.5204 -3.5247 -2.5017 0.9802
-2.3921 -3.6129 -2.5017 0.9802
-2.2608 -3.6965 -2.5017 0.9802
-2.1265 -3.7754 -2.5017 0.9802
-1.9895 -3.8493 -2.5017 0.9802
-1.8499 -3.9183 -2.5017 0.9802
-1.7080 -3.9823 -2.5017 0.9802
-1.5638 -4.0410 -2.5017 0.9802
-1.4176 -4.0946 -2.5017 0.9802
-1.1199 -4.1859 -2.5017 0.9802
-0.9688 -4.2234 -2.5017 0.9802
-0.8165 -4.2554 -2.5017 0.9802
-0.5088 -4.3031 -2.5017 0.9802
-0.1985 -4.3285 -2.5017 0.9802
0.1128 -4.3316 -2.5017 0.9802
0.4236 -4.3123 -2.5017 0.9802
0.5782 -4.2943 -2.5017 0.9802
0.8851 -4.2417 -2.5017 0.9802
1.1874 -4.1672 -2.5017 0.9802
1.6289 -4.0153 -2.5017 0.9802
1.9130 -3.8880 -2.5017 0.9802
2.1872 -3.7405 -2.5017 0.9802
2.3202 -3.6595 -2.5017 0.9802
2.4502 -3.5738 -2.5017 0.9802
2.5770 -3.4835 -2.5017 0.9802
2.7005 -3.3887 -2.5017 0.9802
2.8205 -3.2894 -2.5017 0.9802
3.0494 -3.0784 -2.5017 0.9802
3.2626 -2.8515 -2.5017 0.9802
3.5504 -2.4839 -2.5017 0.9802
3.6374 -2.3548 -2.5017 0.9802
3.8696 -1.9498 -2.5017 0.9802
3.9372 -1.8095 -2.5017 0.9802
4.1558 -1.2269 -2.5017 0.9802
4.1972 -1.0767 -2.5017 0.9802
4.2331 -0.9253 -2.5017 0.9802
