ply
format ascii 1.0
element vertex 1271
property float32 x
property float32 y
property float32 z
property float32 I
end_header
-41.9381 16.7354 7.9619 0.8324
-32.7053 -11.5627 6.1166 0.8686
-29.3255 -11.5705 5.5588 0.8798
-27.5334 -14.4650 5.4841 0.8813
-27.4150 -15.6860 5.5693 0.8796
-27.4679 -18.4572 5.8352 0.8742
-37.2493 -31.3481 8.5845 0.8206
-32.3003 11.5607 5.2556 0.8704
-27.4418 8.7218 4.4112 0.8900
-42.2200 11.7647 6.7143 0.8375
-44.1605 10.6096 6.9576 0.8321
-36.9402 -11.5831 5.9307 0.8550
-28.0786 -12.2632 4.6938 0.8834
-27.5334 -14.4650 4.7646 0.8817
-27.4549 -17.0481 4.9508 0.8774
-27.4686 -18.4577 5.0698 0.8747
-27.4786 -21.4856 5.3436 0.8684
-27.4768 -23.1239 5.5016 0.8647
-27.4700 -26.7187 5.8705 0.8564
-27.4380 -28.6790 6.0803 0.8516
-32.0072 25.2273 5.3070 0.8484
-41.9097 26.2497 6.4396 0.8192
-32.3678 17.1654 4.7710 0.8626
-32.3989 15.7158 4.6892 0.8648
-32.4289 14.3133 4.6160 0.8668
-44.1605 10.6096 5.9142 0.8326
-30.6920 -3.8246 4.0276 0.8827
-30.6935 -4.9517 4.0486 0.8821
-42.0890 -11.5523 5.6836 0.8386
-36.9390 -11.5827 5.0412 0.8554
-29.3255 -11.5705 4.1053 0.8806
-28.0786 -12.2632 3.9899 0.8837
-27.5334 -14.4650 4.0501 0.8821
-27.4150 -15.6860 4.1131 0.8804
-27.4549 -17.0481 4.2084 0.8778
-27.4693 -18.4582 4.3096 0.8750
-27.4664 -19.9267 4.4188 0.8721
-27.4685 -26.7173 4.9899 0.8568
-27.4394 -28.6805 5.1688 0.8520
-27.4311 -35.6852 5.8612 0.8340
-32.0622 31.4284 4.8211 0.8348
-32.1513 27.2716 4.5272 0.8440
-32.1920 25.3729 4.4015 0.8480
-33.6741 24.6304 4.4800 0.8455
-39.6256 24.8191 5.0208 0.8285
-32.3678 17.1654 3.9342 0.8630
-32.4871 15.7586 3.8773 0.8648
-32.4865 11.6274 3.7052 0.8704
-37.8395 10.5440 4.2181 0.8538
-44.4798 10.6863 4.9122 0.8319
-42.0877 -11.5519 4.6866 0.8390
-32.7053 -11.5627 3.7250 0.8697
-27.5334 -14.4649 3.3398 0.8824
-27.4150 -15.6860 3.3917 0.8807
-27.4549 -17.0481 3.4703 0.8781
-27.4700 -18.4586 3.5539 0.8753
-27.4750 -23.1223 3.8561 0.8655
-27.4722 -24.8617 3.9787 0.8615
-32.0622 31.4284 3.8006 0.8351
-32.1082 29.2846 3.6788 0.8399
-32.1920 25.3729 3.4698 0.8483
-36.5988 24.7996 3.7425 0.8374
-39.6256 24.8191 3.9581 0.8289
-32.3454 15.6899 3.0433 0.8656
-32.4289 14.3133 3.0007 0.8674
-32.4581 12.9523 2.9584 0.8691
-32.4865 11.6274 2.9209 0.8707
-27.4418 8.7218 2.4376 0.8908
-44.4798 10.6863 3.8725 0.8322
-42.0865 -11.5516 3.6946 0.8393
-29.3255 -11.5705 2.6687 0.8811
-28.0786 -12.2632 2.5937 0.8843
-27.6849 -13.2967 2.5999 0.8840
-27.5334 -14.4650 2.6329 0.8826
-27.4150 -15.6860 2.6738 0.8809
-27.4759 -21.4834 2.9525 0.8693
-27.4741 -23.1215 3.0398 0.8658
-27.4708 -24.8604 3.1364 0.8618
-27.4656 -26.7145 3.2435 0.8574
-27.4423 -30.8311 3.4941 0.8473
-27.4376 -33.1539 3.6430 0.8413
-27.4331 -35.6879 3.8105 0.8347
-27.4208 -41.5434 4.2138 0.8189
-32.1082 29.2846 2.6948 0.8402
-32.1513 27.2716 2.6143 0.8445
-32.1920 25.3729 2.5417 0.8485
-33.7603 24.6935 2.5937 0.8457
-39.6257 24.8191 2.8994 0.8291
-43.2003 24.9410 3.0933 0.8188
-32.3678 17.1654 2.2719 0.8634
-32.4289 14.3133 2.1981 0.8676
-27.4418 8.7218 1.7856 0.8910
-37.8395 10.5440 2.4358 0.8543
-43.8710 8.8842 2.7757 0.8358
-42.0852 -11.5513 2.7062 0.8395
-32.7053 -11.5627 2.1511 0.8702
-29.3255 -11.5705 1.9549 0.8813
-27.6849 -13.2967 1.9045 0.8842
-27.5334 -14.4649 1.9286 0.8828
-27.4713 -18.4595 2.0524 0.8758
-27.4685 -19.9282 2.1044 0.8728
-27.4750 -21.4827 2.1627 0.8696
-27.4731 -23.1207 2.2266 0.8660
-27.4341 -35.6891 2.7914 0.8349
-27.4216 -41.5446 3.0868 0.8191
-32.0622 31.4284 1.7703 0.8355
-32.1513 27.2716 1.6624 0.8447
-32.1920 25.3729 1.6162 0.8487
-33.7603 24.6935 1.6493 0.8458
-36.5298 24.7528 1.7399 0.8381
-39.6256 24.8191 1.8437 0.8293
-32.3678 17.1654 1.4447 0.8636
-32.4865 11.6274 1.3605 0.8710
-27.4418 8.7218 1.1354 0.8911
-31.8371 8.8715 1.3032 0.8761
-43.7000 8.8496 1.7581 0.8365
-42.0840 -11.5509 1.7208 0.8397
-36.9341 -11.5812 1.5263 0.8565
-32.7053 -11.5627 1.3678 0.8703
-29.3255 -11.5705 1.2431 0.8814
-27.4150 -15.6860 1.2454 0.8812
-27.4720 -18.4600 1.3051 0.8759
-27.4692 -19.9287 1.3382 0.8730
-27.4722 -23.1200 1.4158 0.8661
-27.4680 -24.8580 1.4608 0.8622
-27.4628 -26.7117 1.5106 0.8578
-27.4452 -28.6866 1.5654 0.8531
-27.4395 -33.1562 1.6970 0.8417
-27.4351 -35.6905 1.7751 0.8351
-27.4309 -38.4736 1.8632 0.8277
-32.0622 31.4284 0.7584 0.8356
-32.1513 27.2716 0.7122 0.8448
-32.1920 25.3729 0.6924 0.8488
-36.5988 24.7996 0.7468 0.8379
-43.1188 24.8940 0.8410 0.8194
-32.4871 15.7586 0.6099 0.8655
-32.4289 14.3133 0.5988 0.8678
-32.4865 11.6274 0.5828 0.8711
-27.4418 8.7218 0.4864 0.8912
-42.2519 10.1510 0.7340 0.8404
-43.7000 8.8496 0.7532 0.8366
-32.7053 -11.5627 0.5860 0.8704
-27.5334 -14.4650 0.5254 0.8830
-27.4732 -21.4813 0.5891 0.8698
-27.4666 -24.8567 0.6257 0.8623
-27.4467 -28.6881 0.6707 0.8531
-27.4405 -33.1574 0.7270 0.8418
-27.4361 -35.6918 0.7605 0.8352
-27.4231 -41.5469 0.8409 0.8194
-30.1752 31.7861 -0.2468 0.8392
-32.0622 31.4284 -0.2528 0.8356
-32.1513 27.2716 -0.2374 0.8448
-33.7603 24.6935 -0.2355 0.8459
-41.9799 24.2364 -0.2729 0.8237
-32.3989 15.7158 -0.2027 0.8659
-32.4289 14.3134 -0.1996 0.8678
-32.4865 11.6274 -0.1943 0.8711
-37.8141 10.5370 -0.2210 0.8547
-36.4306 8.7525 -0.2109 0.8608
-44.1617 8.9431 -0.2537 0.8351
-48.0225 7.9387 -0.2740 0.8231
-48.7965 4.4961 -0.2759 0.8220
-48.8022 0.9727 -0.2748 0.8226
-48.8023 -0.7832 -0.2748 0.8226
-48.8006 -2.5410 -0.2751 0.8224
-48.7916 -6.0800 -0.2768 0.8215
-42.0816 -11.5503 -0.2456 0.8398
-36.9317 -11.5804 -0.2179 0.8566
-32.7053 -11.5627 -0.1953 0.8704
-28.0786 -12.2632 -0.1725 0.8847
-27.6849 -13.2967 -0.1729 0.8844
-27.5334 -14.4650 -0.1751 0.8830
-27.4150 -15.6860 -0.1778 0.8813
-27.4549 -17.0481 -0.1820 0.8787
-27.4733 -18.4609 -0.1864 0.8760
-27.4704 -23.1184 -0.2021 0.8662
-27.4653 -24.8555 -0.2086 0.8623
-27.4599 -26.7089 -0.2157 0.8579
-27.4468 -30.8361 -0.2324 0.8478
-27.4414 -33.1585 -0.2423 0.8418
-27.4372 -35.6931 -0.2535 0.8352
-27.4296 -38.4718 -0.2660 0.8278
-30.1752 31.7861 -1.2341 0.8391
-33.7603 24.6935 -1.1778 0.8459
-39.6256 24.8191 -1.3166 0.8294
-32.3989 15.7158 -1.0139 0.8658
-32.4581 12.9523 -0.9840 0.8695
-32.4865 11.6274 -0.9716 0.8710
-27.4418 8.7218 -0.8108 0.8912
-41.7587 8.4565 -1.1997 0.8432
-42.2042 6.9769 -1.2045 0.8427
-43.1595 3.9767 -1.2204 0.8408
-43.1878 0.8608 -1.2163 0.8413
-43.1797 -2.2483 -1.2175 0.8411
-43.1620 -3.8080 -1.2201 0.8408
-43.0985 -6.9530 -1.2292 0.8397
-42.0937 -9.9404 -1.2179 0.8411
-42.0509 -11.5418 -1.2279 0.8399
-32.7053 -11.5627 -0.9768 0.8704
-27.6849 -13.2967 -0.8648 0.8844
-27.5334 -14.4650 -0.8757 0.8830
-27.4695 -23.1176 -1.0109 0.8662
-27.4585 -26.7075 -1.0786 0.8579
-27.4496 -28.6911 -1.1181 0.8531
-27.4479 -30.8374 -1.1625 0.8477
-27.4424 -33.1597 -1.2120 0.8418
-27.4382 -35.6944 -1.2677 0.8351
-27.4290 -38.4709 -1.3304 0.8277
-26.7457 37.8223 -2.3493 0.8307
-27.7365 36.3739 -2.3198 0.8326
-27.8256 33.8896 -2.2238 0.8389
-29.0265 32.8668 -2.2238 0.8389
-30.1752 31.7861 -2.2227 0.8390
-32.1513 27.2716 -2.1381 0.8446
-33.7603 24.6935 -2.1212 0.8458
-37.9749 21.9242 -2.2238 0.8389
-32.3678 17.1654 -1.8581 0.8635
-32.3989 15.7158 -1.8262 0.8657
-32.4289 14.3133 -1.7977 0.8676
-32.4581 12.9523 -1.7723 0.8694
-27.4418 8.7218 -1.4603 0.8911
-37.4382 4.8129 -1.9143 0.8597
-37.5399 -0.6025 -1.9041 0.8604
-37.4444 -4.6660 -1.9137 0.8597
-37.3795 -6.0303 -1.9202 0.8593
-37.2977 -7.4025 -1.9284 0.8587
-36.9673 -8.7298 -1.9263 0.8589
-36.0081 -9.8833 -1.8937 0.8611
-35.8926 -11.2546 -1.9077 0.8601
-32.7053 -11.5627 -1.7592 0.8703
-29.3255 -11.5705 -1.5988 0.8814
-27.6848 -13.2967 -1.5576 0.8843
-27.4150 -15.6860 -1.6018 0.8812
-27.4549 -17.0481 -1.6389 0.8786
-27.4747 -18.4618 -1.6787 0.8758
-27.4705 -21.4793 -1.7685 0.8697
-27.4685 -23.1169 -1.8207 0.8661
-27.4625 -24.8530 -1.8784 0.8621
-27.4571 -26.7061 -1.9425 0.8578
-27.4510 -28.6926 -2.0138 0.8530
-25.6316 -38.8327 -2.3597 0.8300
-25.5927 -41.9841 -2.4936 0.8212
-22.5810 -43.8566 -2.5017 0.8207
-19.3697 -45.3664 -2.5017 0.8207
-16.0583 -46.6415 -2.5017 0.8207
-14.3703 -47.1889 -2.5017 0.8207
-10.9407 -48.1000 -2.5017 0.8207
-9.2036 -48.4623 -2.5017 0.8207
-7.4546 -48.7620 -2.5017 0.8207
-3.9298 -49.1717 -2.5017 0.8207
-2.0272 -46.2790 -2.3493 0.8307
-0.3613 -46.3220 -2.3493 0.8307
3.0293 -47.1560 -2.3964 0.8276
4.7769 -47.5486 -2.4235 0.8258
10.2151 -48.3880 -2.5080 0.8203
-19.6991 27.8574 -2.5017 0.8721
-22.5852 25.5733 -2.5017 0.8721
-23.4904 24.7445 -2.5017 0.8721
-25.8026 21.8862 -2.4808 0.8731
-25.8108 20.3435 -2.4097 0.8765
-25.8608 18.9155 -2.3493 0.8794
-26.5244 17.9731 -2.3493 0.8794
-27.9035 13.5352 -2.2739 0.8830
-27.9124 12.3199 -2.2371 0.8848
-27.4418 8.7218 -2.1113 0.8909
-29.7980 8.3033 -2.2681 0.8833
-30.6638 6.2097 -2.2940 0.8821
-31.5342 5.2130 -2.3435 0.8797
-31.7021 1.7741 -2.3281 0.8804
-31.7834 0.6335 -2.3309 0.8803
-31.7847 -0.5101 -2.3308 0.8803
-31.7617 -1.6538 -2.3320 0.8802
-31.7143 -2.7980 -2.3344 0.8801
-31.6425 -3.9430 -2.3380 0.8799
-31.5461 -5.0892 -2.3429 0.8797
-31.4249 -6.2370 -2.3491 0.8794
-31.2995 -7.3914 -2.3581 0.8790
-31.1433 -8.5480 -2.3679 0.8785
-30.9111 -9.6925 -2.3753 0.8782
-29.4936 -10.4272 -2.2937 0.8821
-27.5334 -14.4650 -2.2804 0.8827
-25.9340 -18.8150 -2.3493 0.8794
-25.6830 -20.0815 -2.3904 0.8774
-25.6652 -21.5992 -2.4596 0.8741
-24.4577 -23.7888 -2.5017 0.8721
-23.5863 -24.6531 -2.5017 0.8721
-20.7935 -27.0503 -2.5017 0.8721
-19.8071 -27.7807 -2.5017 0.8721
-18.7951 -28.4751 -2.5017 0.8721
-17.7587 -29.1327 -2.5017 0.8721
-13.3973 -31.3783 -2.5017 0.8721
-12.2601 -31.8399 -2.5017 0.8721
-8.7590 -32.9753 -2.5017 0.8721
-3.9396 -33.8905 -2.5017 0.8721
0.9075 -32.2010 -2.3620 0.8788
2.0787 -32.3580 -2.3775 0.8781
3.2625 -32.4745 -2.3931 0.8773
5.6626 -32.5820 -2.4248 0.8758
8.0963 -32.5162 -2.4570 0.8742
9.3216 -32.4162 -2.4731 0.8735
14.2386 -31.5525 -2.5382 0.8704
17.8883 -30.4026 -2.5864 0.8681
19.0866 -29.9218 -2.6023 0.8673
-15.0448 21.2756 -2.5017 0.9006
-15.8003 20.7207 -2.5017 0.9006
-16.5354 20.1390 -2.5017 0.9006
-17.2491 19.5312 -2.5017 0.9006
-18.6085 18.2406 -2.5017 0.9006
-19.2525 17.5595 -2.5017 0.9006
-21.0320 15.3835 -2.5017 0.9006
-21.5717 14.6171 -2.5017 0.9006
-22.0835 13.8317 -2.5017 0.9006
-23.0207 12.2084 -2.5017 0.9006
-23.8388 10.5219 -2.5017 0.9006
-24.2019 9.6577 -2.5017 0.9006
-26.0361 -1.3557 -2.5030 0.9005
-25.9696 -2.2912 -2.5029 0.9005
-25.8684 -3.2235 -2.5027 0.9005
-25.7319 -4.1515 -2.5023 0.9006
-25.3662 -5.9901 -2.5023 0.9006
-25.1348 -6.8985 -2.5023 0.9006
-24.8707 -7.7985 -2.5023 0.9006
-23.8857 -10.4320 -2.5023 0.9006
-23.4949 -11.2843 -2.5023 0.9006
-23.0736 -12.1219 -2.5023 0.9006
-22.1370 -13.7459 -2.5017 0.9006
-21.0915 -15.3018 -2.5017 0.9006
-19.9369 -16.7784 -2.5017 0.9006
-18.6792 -18.1683 -2.5017 0.9006
-18.0136 -18.8284 -2.5017 0.9006
-17.3247 -19.4641 -2.5017 0.9006
-16.6134 -20.0746 -2.5017 0.9006
-15.1273 -21.2170 -2.5017 0.9006
-14.3544 -21.7474 -2.5017 0.9006
-12.7538 -22.7230 -2.5017 0.9006
-11.9283 -23.1671 -2.5017 0.9006
-10.2320 -23.9646 -2.5017 0.9006
-8.4827 -24.6382 -2.5017 0.9006
-5.7794 -25.4086 -2.5017 0.9006
-4.8618 -25.6000 -2.5017 0.9006
-3.9379 -25.7583 -2.5017 0.9006
-1.0709 -24.4467 -2.3493 0.9063
-0.1908 -24.4543 -2.3478 0.9064
3.3849 -24.7163 -2.3950 0.9046
4.2931 -24.7017 -2.4070 0.9042
5.2047 -24.6541 -2.4191 0.9037
6.1185 -24.5730 -2.4312 0.9032
7.0331 -24.4581 -2.4433 0.9028
7.9474 -24.3090 -2.4553 0.9023
8.8599 -24.1253 -2.4674 0.9019
10.6741 -23.6537 -2.4914 0.9010
11.5730 -23.3655 -2.5033 0.9005
12.4643 -23.0421 -2.5151 0.9001
-12.1595 17.1953 -2.5017 0.9187
-15.5603 14.1919 -2.5017 0.9187
-16.5403 13.0366 -2.5017 0.9187
-16.9984 12.4333 -2.5017 0.9187
-17.4346 11.8138 -2.5017 0.9187
-17.8483 11.1791 -2.5017 0.9187
-18.6058 9.8671 -2.5017 0.9187
-20.0718 6.3795 -2.5018 0.9187
-20.7800 3.4352 -2.5019 0.9187
-20.9735 1.9325 -2.5019 0.9187
-21.0296 1.1769 -2.5019 0.9187
-21.0342 -1.0952 -2.5020 0.9187
-20.9813 -1.8511 -2.5020 0.9187
-20.9011 -2.6045 -2.5020 0.9187
-20.7939 -3.3547 -2.5020 0.9187
-20.4989 -4.8408 -2.5020 0.9187
-20.3115 -5.5749 -2.5019 0.9187
-20.0977 -6.3019 -2.5019 0.9187
-19.5925 -7.7303 -2.5019 0.9187
-19.3016 -8.4299 -2.5019 0.9187
-18.9858 -9.1186 -2.5019 0.9187
-18.6454 -9.7955 -2.5019 0.9187
-18.2808 -10.4598 -2.5018 0.9187
-17.8926 -11.1104 -2.5018 0.9187
-17.4812 -11.7466 -2.5018 0.9187
-16.1135 -13.5608 -2.5017 0.9187
-13.4273 -16.2247 -2.5017 0.9187
-12.8350 -16.6972 -2.5017 0.9187
-10.9618 -17.9825 -2.5017 0.9187
-8.9610 -19.0587 -2.5017 0.9187
-8.2697 -19.3686 -2.5017 0.9187
-5.4066 -20.3544 -2.5017 0.9187
-4.6710 -20.5357 -2.5017 0.9187
-2.4318 -20.9194 -2.5017 0.9187
-0.8655 -19.7583 -2.3493 0.9234
0.5592 -19.8422 -2.3579 0.9232
2.0002 -19.9102 -2.3769 0.9226
3.4541 -19.8741 -2.3962 0.9220
6.3693 -19.4818 -2.4347 0.9208
7.0936 -19.3158 -2.4443 0.9205
9.7028 -17.9370 -2.4224 0.9211
10.2966 -17.4998 -2.4119 0.9215
-10.7059 14.0398 -2.5017 0.9312
-12.1559 12.8049 -2.5017 0.9312
-12.6086 12.3594 -2.5017 0.9312
-13.0450 11.8979 -2.5017 0.9312
-13.4645 11.4209 -2.5017 0.9312
-13.8666 10.9293 -2.5017 0.9312
-14.2507 10.4235 -2.5017 0.9312
-14.6164 9.9042 -2.5017 0.9312
-15.2906 8.8278 -2.5017 0.9312
-16.3985 6.5437 -2.5017 0.9312
-16.6233 5.9497 -2.5017 0.9312
-16.8265 5.3479 -2.5017 0.9312
-17.1674 4.1245 -2.5017 0.9312
-17.3047 3.5043 -2.5017 0.9312
-17.4195 2.8797 -2.5017 0.9312
-17.6284 0.9865 -2.5017 0.9312
-17.5876 -1.5517 -2.5017 0.9312
-17.3182 -3.4372 -2.5017 0.9312
-16.6462 -5.8852 -2.5017 0.9312
-16.4238 -6.4801 -2.5017 0.9312
-15.6302 -8.2115 -2.5017 0.9312
-15.3248 -8.7684 -2.5017 0.9312
-14.9995 -9.3139 -2.5017 0.9312
-14.6548 -9.8474 -2.5017 0.9312
-13.9089 -10.8754 -2.5017 0.9312
-13.5087 -11.3686 -2.5017 0.9312
-13.0911 -11.8471 -2.5017 0.9312
-10.2499 -14.3761 -2.5017 0.9312
-9.7262 -14.7355 -2.5017 0.9312
-9.1899 -15.0758 -2.5017 0.9312
-8.6417 -15.3965 -2.5017 0.9312
-8.0823 -15.6974 -2.5017 0.9312
-7.5125 -15.9779 -2.5017 0.9312
-6.3444 -16.4767 -2.5017 0.9312
-5.1435 -16.8901 -2.5017 0.9312
-4.5327 -17.0642 -2.5017 0.9312
-3.2942 -17.3459 -2.5017 0.9312
-2.6682 -17.4531 -2.5017 0.9312
-1.3209 -16.5276 -2.3493 0.9352
-0.7256 -16.5645 -2.3493 0.9352
-0.1293 -16.5777 -2.3490 0.9352
1.0699 -16.6557 -2.3648 0.9348
3.4941 -16.5513 -2.3968 0.9339
4.0812 -16.3909 -2.3933 0.9340
5.2259 -15.9844 -2.3828 0.9343
5.7844 -15.7507 -2.3774 0.9345
6.3348 -15.5022 -2.3728 0.9346
6.8762 -15.2376 -2.3687 0.9347
7.4081 -14.9568 -2.3649 0.9348
8.4454 -14.3536 -2.3597 0.9349
-9.2080 12.0754 -2.5017 0.9403
-10.8445 10.6301 -2.5017 0.9403
-11.9264 9.4001 -2.5017 0.9403
-13.6630 6.6276 -2.5017 0.9403
-13.8925 6.1318 -2.5017 0.9403
-14.1041 5.6282 -2.5017 0.9403
-14.2974 5.1173 -2.5017 0.9403
-14.6283 4.0762 -2.5017 0.9403
-14.7654 3.5474 -2.5017 0.9403
-14.8834 3.0140 -2.5017 0.9403
-15.0616 1.9363 -2.5017 0.9403
-15.1215 1.3933 -2.5017 0.9403
-15.1650 -0.7896 -2.5017 0.9403
-14.9917 -2.4186 -2.5017 0.9403
-14.8950 -2.9562 -2.5017 0.9403
-14.7791 -3.4901 -2.5017 0.9403
-14.6440 -4.0194 -2.5017 0.9403
-14.4899 -4.5435 -2.5017 0.9403
-14.3171 -5.0617 -2.5017 0.9403
-14.1258 -5.5734 -2.5017 0.9403
-13.9162 -6.0779 -2.5017 0.9403
-13.6886 -6.5745 -2.5017 0.9403
-13.1806 -7.5415 -2.5017 0.9403
-12.9008 -8.0107 -2.5017 0.9403
-12.6043 -8.4695 -2.5017 0.9403
-12.2915 -8.9174 -2.5017 0.9403
-11.2594 -10.1895 -2.5017 0.9403
-10.8857 -10.5879 -2.5017 0.9403
-10.4978 -10.9726 -2.5017 0.9403
-9.6818 -11.6989 -2.5017 0.9403
-9.2548 -12.0395 -2.5017 0.9403
-7.9041 -12.9664 -2.5017 0.9403
-6.4614 -13.7424 -2.5017 0.9403
-5.9629 -13.9659 -2.5017 0.9403
-5.4567 -14.1713 -2.5017 0.9403
-4.9435 -14.3584 -2.5017 0.9403
-4.4238 -14.5269 -2.5017 0.9403
-3.8985 -14.6766 -2.5017 0.9403
-2.1551 -14.0967 -2.3493 0.9438
-1.1373 -14.2307 -2.3518 0.9438
-0.6241 -14.2468 -2.3493 0.9438
-0.1112 -14.2600 -2.3493 0.9438
0.9146 -14.2373 -2.3503 0.9438
1.4264 -14.1987 -2.3509 0.9438
2.4448 -14.0670 -2.3521 0.9438
2.9501 -13.9742 -2.3528 0.9437
3.4519 -13.8634 -2.3536 0.9437
4.4426 -13.5887 -2.3552 0.9437
4.9303 -13.4251 -2.3561 0.9437
6.3553 -12.8312 -2.3589 0.9436
6.8154 -12.5994 -2.3598 0.9436
7.2647 -12.3465 -2.3599 0.9436
7.7010 -12.0728 -2.3591 0.9436
-7.6845 10.8670 -2.5017 0.9473
-8.0704 10.5836 -2.5017 0.9473
-8.4458 10.2864 -2.5017 0.9473
-9.1634 9.6526 -2.5017 0.9473
-9.5047 9.3168 -2.5017 0.9473
-9.8336 8.9689 -2.5017 0.9473
-10.4530 8.2388 -2.5017 0.9473
-11.0182 7.4660 -2.5017 0.9473
-11.5264 6.6546 -2.5017 0.9473
-11.7583 6.2357 -2.5017 0.9473
-11.9750 5.8087 -2.5017 0.9473
-12.1762 5.3743 -2.5017 0.9473
-12.3616 4.9328 -2.5017 0.9473
-12.5310 4.4850 -2.5017 0.9473
-12.6842 4.0314 -2.5017 0.9473
-12.8210 3.5726 -2.5017 0.9473
-13.2008 1.6970 -2.5017 0.9473
-5.1664 0.2891 -0.9726 0.9792
-5.1746 -0.0830 -0.9727 0.9792
-5.2336 -0.2725 -0.9850 0.9789
-13.0548 -2.5910 -2.5017 0.9473
-12.8348 -3.5228 -2.5017 0.9473
-12.6998 -3.9821 -2.5017 0.9473
-12.1969 -5.3270 -2.5017 0.9473
-11.9974 -5.7622 -2.5017 0.9473
-11.7824 -6.1900 -2.5017 0.9473
-11.0471 -7.4231 -2.5017 0.9473
-10.7730 -7.8157 -2.5017 0.9473
-10.4849 -8.1981 -2.5017 0.9473
-9.8684 -8.9307 -2.5017 0.9473
-8.8490 -9.9417 -2.5017 0.9473
-8.1114 -10.5521 -2.5017 0.9473
-7.3318 -11.1079 -2.5017 0.9473
-6.9275 -11.3645 -2.5017 0.9473
-5.6631 -12.0446 -2.5017 0.9473
-4.3327 -12.5845 -2.5017 0.9473
-3.8773 -12.7322 -2.5017 0.9473
-2.9520 -12.9780 -2.5017 0.9473
-1.9164 -12.5354 -2.3835 0.9497
-1.4435 -12.4179 -2.3498 0.9504
-0.5476 -12.5011 -2.3520 0.9503
0.3528 -12.5181 -2.3538 0.9503
1.2528 -12.4664 -2.3550 0.9503
1.7002 -12.4149 -2.3553 0.9503
2.1465 -12.3473 -2.3556 0.9503
3.4646 -12.0475 -2.3562 0.9503
3.8937 -11.9099 -2.3552 0.9503
4.3179 -11.7574 -2.3543 0.9503
5.1499 -11.4121 -2.3533 0.9503
5.5558 -11.2170 -2.3528 0.9503
6.3447 -10.7833 -2.3517 0.9504
6.7266 -10.5453 -2.3510 0.9504
-6.8331 9.6630 -2.5017 0.9528
-7.1762 9.4110 -2.5017 0.9528
-9.0254 7.6556 -2.5017 0.9528
-9.7975 6.6388 -2.5017 0.9528
-10.2494 5.9173 -2.5017 0.9528
-11.1427 3.9881 -2.5017 0.9528
-11.2789 3.5848 -2.5017 0.9528
-11.5074 2.7647 -2.5017 0.9528
-11.5994 2.3490 -2.5017 0.9528
-4.8351 0.6216 -1.0304 0.9803
-4.7935 0.0955 -1.0135 0.9806
-4.7976 -0.2498 -1.0155 0.9806
-11.7441 -1.4634 -2.5017 0.9528
-11.6838 -1.8849 -2.5017 0.9528
-11.6085 -2.3039 -2.5017 0.9528
-11.5181 -2.7200 -2.5017 0.9528
-11.4128 -3.1325 -2.5017 0.9528
-11.2927 -3.5410 -2.5017 0.9528
-11.0090 -4.3436 -2.5017 0.9528
-10.8456 -4.7368 -2.5017 0.9528
-10.4770 -5.5042 -2.5017 0.9528
-10.2723 -5.8775 -2.5017 0.9528
-8.7751 -7.9412 -2.5017 0.9528
-8.4837 -8.2517 -2.5017 0.9528
-8.1815 -8.5515 -2.5017 0.9528
-7.8686 -8.8402 -2.5017 0.9528
-7.2127 -9.3830 -2.5017 0.9528
-6.8706 -9.6364 -2.5017 0.9528
-6.1600 -10.1054 -2.5017 0.9528
-5.4176 -10.5221 -2.5017 0.9528
-3.8527 -11.1902 -2.5017 0.9528
-3.4477 -11.3215 -2.5017 0.9528
-2.6249 -11.5401 -2.5017 0.9528
-2.2081 -11.6271 -2.5017 0.9528
-1.7885 -11.6989 -2.5017 0.9528
-0.8876 -11.1056 -2.3550 0.9555
-0.0867 -11.1186 -2.3503 0.9556
0.3133 -11.1175 -2.3510 0.9555
1.1122 -11.0704 -2.3518 0.9555
1.5098 -11.0242 -2.3520 0.9555
1.9053 -10.9629 -2.3521 0.9555
2.2983 -10.8866 -2.3519 0.9555
3.0743 -10.6908 -2.3514 0.9555
4.2060 -10.2928 -2.3503 0.9556
5.7156 -9.7141 -2.3824 0.9550
6.1904 -9.7047 -2.4332 0.9540
-6.1457 8.6909 -2.5017 0.9572
-7.6014 7.4512 -2.5017 0.9572
-7.8645 7.1729 -2.5017 0.9572
-8.1174 6.8854 -2.5017 0.9572
-8.8119 5.9710 -2.5017 0.9572
-9.0209 5.6502 -2.5017 0.9572
-9.8862 3.9451 -2.5017 0.9572
-10.0217 3.5869 -2.5017 0.9572
-10.1443 3.2242 -2.5017 0.9572
-10.3498 2.4865 -2.5017 0.9572
-10.5018 1.7361 -2.5017 0.9572
-4.5759 0.5883 -1.0843 0.9812
-4.5768 0.4217 -1.0802 0.9813
-4.5799 0.0913 -1.0766 0.9814
-4.5848 -0.4045 -1.0817 0.9813
-10.5084 -1.6953 -2.5017 0.9572
-10.2647 -2.8174 -2.5017 0.9572
-10.1567 -3.1847 -2.5017 0.9572
-10.0356 -3.5480 -2.5017 0.9572
-9.9015 -3.9067 -2.5017 0.9572
-9.7546 -4.2603 -2.5017 0.9572
-9.5950 -4.6084 -2.5017 0.9572
-9.4231 -4.9505 -2.5017 0.9572
-9.2389 -5.2862 -2.5017 0.9572
-8.3853 -6.5565 -2.5017 0.9572
-7.8923 -7.1423 -2.5017 0.9572
-7.6303 -7.4216 -2.5017 0.9572
-6.4871 -8.4391 -2.5017 0.9572
-5.2098 -9.2822 -2.5017 0.9572
-4.8726 -9.4636 -2.5017 0.9572
-4.1797 -9.7893 -2.5017 0.9572
-3.8249 -9.9333 -2.5017 0.9572
-3.4651 -10.0645 -2.5017 0.9572
-3.1009 -10.1826 -2.5017 0.9572
-2.7326 -10.2876 -2.5017 0.9572
-2.3608 -10.3792 -2.5017 0.9572
-1.9860 -10.4574 -2.5017 0.9572
-0.8480 -10.6105 -2.5017 0.9572
-0.0811 -10.3976 -2.4438 0.9582
0.2873 -10.1936 -2.3967 0.9590
1.3563 -9.9034 -2.3493 0.9598
2.4217 -9.7262 -2.3557 0.9597
2.7937 -9.7153 -2.3758 0.9593
3.1747 -9.7106 -2.4011 0.9589
3.5642 -9.7053 -2.4299 0.9584
4.3739 -9.6925 -2.4992 0.9572
-5.8587 7.6831 -2.5017 0.9609
-6.3958 7.2421 -2.5017 0.9609
-6.6522 7.0073 -2.5017 0.9609
-6.8999 6.7635 -2.5017 0.9609
-7.3683 6.2500 -2.5017 0.9609
-7.7985 5.7041 -2.5017 0.9609
-7.9986 5.4199 -2.5017 0.9609
-8.1884 5.1287 -2.5017 0.9609
-8.5359 4.5268 -2.5017 0.9609
-8.8393 3.9015 -2.5017 0.9609
-8.9739 3.5810 -2.5017 0.9609
-9.0969 3.2559 -2.5017 0.9609
-9.4698 1.9177 -2.5017 0.9609
-9.5326 1.5759 -2.5017 0.9609
-4.4224 0.5685 -1.1545 0.9817
-4.4304 0.0883 -1.1473 0.9819
-4.4325 -0.0711 -1.1478 0.9818
-4.4310 -0.2307 -1.1488 0.9818
-4.4315 -0.3910 -1.1519 0.9818
-9.5878 -1.1948 -2.5017 0.9609
-9.4771 -1.8809 -2.5017 0.9609
-9.4033 -2.2206 -2.5017 0.9609
-9.3174 -2.5574 -2.5017 0.9609
-9.1094 -3.2205 -2.5017 0.9609
-8.9877 -3.5461 -2.5017 0.9609
-8.8543 -3.8671 -2.5017 0.9609
-8.7095 -4.1831 -2.5017 0.9609
-8.5534 -4.4936 -2.5017 0.9609
-8.3863 -4.7984 -2.5017 0.9609
-8.0196 -5.3888 -2.5017 0.9609
-7.8206 -5.6738 -2.5017 0.9609
-7.6115 -5.9514 -2.5017 0.9609
-6.4239 -7.2172 -2.5017 0.9609
-5.8884 -7.6603 -2.5017 0.9609
-5.6091 -7.8671 -2.5017 0.9609
-5.3225 -8.0638 -2.5017 0.9609
-5.0290 -8.2500 -2.5017 0.9609
-4.7290 -8.4255 -2.5017 0.9609
-3.7940 -8.8859 -2.5017 0.9609
-3.4719 -9.0166 -2.5017 0.9609
-3.1453 -9.1357 -2.5017 0.9609
-2.8147 -9.2429 -2.5017 0.9609
-2.4804 -9.3382 -2.5017 0.9609
-1.1157 -9.5974 -2.5017 0.9609
-0.4228 -9.6527 -2.5017 0.9609
0.2722 -9.6581 -2.5017 0.9609
0.9658 -9.6136 -2.5017 0.9609
1.3110 -9.5726 -2.5017 0.9609
1.6544 -9.5193 -2.5017 0.9609
1.9957 -9.4536 -2.5017 0.9609
3.0024 -9.1836 -2.5017 0.9609
3.6548 -8.9440 -2.5017 0.9609
5.1961 -8.1458 -2.5017 0.9609
-5.3584 7.0270 -2.5017 0.9639
-6.0841 6.4089 -2.5017 0.9639
-6.3107 6.1859 -2.5017 0.9639
-6.5291 5.9550 -2.5017 0.9639
-6.7391 5.7163 -2.5017 0.9639
-6.9403 5.4702 -2.5017 0.9639
-7.6530 4.4184 -2.5017 0.9639
-7.8070 4.1402 -2.5017 0.9639
-7.9509 3.8567 -2.5017 0.9639
-8.0844 3.5683 -2.5017 0.9639
-8.3200 2.9779 -2.5017 0.9639
-8.4217 2.6767 -2.5017 0.9639
-8.5126 2.3721 -2.5017 0.9639
-8.5924 2.0643 -2.5017 0.9639
-4.3078 0.7121 -1.2361 0.9820
-4.2773 0.5499 -1.2208 0.9822
-4.2888 0.0855 -1.2144 0.9823
-4.2878 -0.2233 -1.2155 0.9823
-4.2865 -0.3782 -1.2182 0.9823
-8.7691 -1.0928 -2.5017 0.9639
-8.7241 -1.4074 -2.5017 0.9639
-8.6003 -2.0309 -2.5017 0.9639
-8.3315 -2.9455 -2.5017 0.9639
-7.9658 -3.8259 -2.5017 0.9639
-7.5073 -4.6616 -2.5017 0.9639
-7.3348 -4.9286 -2.5017 0.9639
-6.9615 -5.4432 -2.5017 0.9639
-6.5522 -5.9296 -2.5017 0.9639
-6.3346 -6.1614 -2.5017 0.9639
-6.1089 -6.3852 -2.5017 0.9639
-5.6341 -6.8079 -2.5017 0.9639
-5.3856 -7.0061 -2.5017 0.9639
-4.3252 -7.7060 -2.5017 0.9639
-4.0452 -7.8566 -2.5017 0.9639
-3.7600 -7.9970 -2.5017 0.9639
-3.1754 -8.2466 -2.5017 0.9639
-2.8767 -8.3555 -2.5017 0.9639
-2.2686 -8.5407 -2.5017 0.9639
-0.7040 -8.8088 -2.5017 0.9639
-0.3867 -8.8284 -2.5017 0.9639
-0.0689 -8.8366 -2.5017 0.9639
1.5131 -8.7063 -2.5017 0.9639
2.1351 -8.5751 -2.5017 0.9639
2.7460 -8.3994 -2.5017 0.9639
3.0464 -8.2952 -2.5017 0.9639
3.3428 -8.1802 -2.5017 0.9639
4.2045 -7.7726 -2.5017 0.9639
-4.6960 6.6408 -2.5017 0.9665
-4.9318 6.4676 -2.5017 0.9665
-5.1612 6.2860 -2.5017 0.9665
-5.3840 6.0963 -2.5017 0.9665
-5.5998 5.8987 -2.5017 0.9665
-5.8083 5.6935 -2.5017 0.9665
-6.2026 5.2612 -2.5017 0.9665
-6.3878 5.0347 -2.5017 0.9665
-6.7332 4.5625 -2.5017 0.9665
-6.8930 4.3173 -2.5017 0.9665
-7.0438 4.0666 -2.5017 0.9665
-7.3179 3.5497 -2.5017 0.9665
-7.4408 3.2842 -2.5017 0.9665
-7.7513 2.4636 -2.5017 0.9665
-4.3520 0.8813 -1.3658 0.9816
-4.1509 0.6862 -1.2941 0.9825
-4.1589 0.5346 -1.2897 0.9826
-4.1647 0.3837 -1.2864 0.9826
-4.1711 -0.0669 -1.2831 0.9827
-4.1690 -0.2171 -1.2840 0.9827
-4.3684 -0.7048 -1.3610 0.9817
-7.9778 -1.5834 -2.5017 0.9665
-7.9157 -1.8693 -2.5017 0.9665
-7.6683 -2.7111 -2.5017 0.9665
-7.5658 -2.9851 -2.5017 0.9665
-7.4535 -3.2553 -2.5017 0.9665
-7.0595 -4.0392 -2.5017 0.9665
-6.7509 -4.5363 -2.5017 0.9665
-6.4073 -5.0099 -2.5017 0.9665
-6.0306 -5.4575 -2.5017 0.9665
-5.8304 -5.6709 -2.5017 0.9665
-5.6226 -5.8769 -2.5017 0.9665
-5.4076 -6.0754 -2.5017 0.9665
-5.1856 -6.2659 -2.5017 0.9665
-3.7232 -7.2312 -2.5017 0.9665
-2.9226 -7.5902 -2.5017 0.9665
-2.6477 -7.6904 -2.5017 0.9665
-2.0880 -7.8608 -2.5017 0.9665
-1.8039 -7.9308 -2.5017 0.9665
-1.5175 -7.9906 -2.5017 0.9665
-1.2291 -8.0400 -2.5017 0.9665
-0.0634 -8.1332 -2.5017 0.9665
0.2291 -8.1302 -2.5017 0.9665
0.8130 -8.0927 -2.5017 0.9665
1.3927 -8.0133 -2.5017 0.9665
2.2477 -7.8167 -2.5017 0.9665
2.5274 -7.7307 -2.5017 0.9665
2.8039 -7.6348 -2.5017 0.9665
3.8698 -7.1538 -2.5017 0.9665
4.3740 -6.8571 -2.5017 0.9665
-4.5634 5.9845 -2.5017 0.9688
-4.7757 5.8165 -2.5017 0.9688
-4.9819 5.6410 -2.5017 0.9688
-5.3745 5.2682 -2.5017 0.9688
-5.5605 5.0715 -2.5017 0.9688
-5.9107 4.6587 -2.5017 0.9688
-6.0744 4.4431 -2.5017 0.9688
-6.2303 4.2217 -2.5017 0.9688
-6.5177 3.7629 -2.5017 0.9688
-6.6488 3.5260 -2.5017 0.9688
-6.7713 3.2846 -2.5017 0.9688
-6.8851 3.0389 -2.5017 0.9688
-7.0857 2.5361 -2.5017 0.9688
-7.1724 2.2796 -2.5017 0.9688
-7.2497 2.0202 -2.5017 0.9688
-7.3177 1.7581 -2.5017 0.9688
-4.0363 0.6672 -1.3599 0.9829
-4.0465 0.5202 -1.3561 0.9829
-4.0584 0.2271 -1.3511 0.9830
-4.0605 0.0809 -1.3500 0.9830
-4.0545 -0.3577 -1.3530 0.9830
-4.0495 -0.5046 -1.3565 0.9829
-7.3819 -1.4651 -2.5017 0.9688
-7.3245 -1.7296 -2.5017 0.9688
-7.2575 -1.9920 -2.5017 0.9688
-7.1812 -2.2517 -2.5017 0.9688
-7.0955 -2.5086 -2.5017 0.9688
-6.8968 -3.0122 -2.5017 0.9688
-6.6624 -3.5002 -2.5017 0.9688
-6.5322 -3.7376 -2.5017 0.9688
-5.9287 -4.6357 -2.5017 0.9688
-5.7582 -4.8459 -2.5017 0.9688
-5.5801 -5.0499 -2.5017 0.9688
-5.3949 -5.2473 -2.5017 0.9688
-4.7983 -5.7979 -2.5017 0.9688
-3.9172 -6.4261 -2.5017 0.9688
-3.6836 -6.5628 -2.5017 0.9688
-3.2022 -6.8107 -2.5017 0.9688
-2.9552 -6.9214 -2.5017 0.9688
-2.4500 -7.1160 -2.5017 0.9688
-1.9321 -7.2737 -2.5017 0.9688
-1.6692 -7.3385 -2.5017 0.9688
-0.3294 -7.5187 -2.5017 0.9688
-0.0587 -7.5257 -2.5017 0.9688
1.5545 -7.3636 -2.5017 0.9688
1.8184 -7.3030 -2.5017 0.9688
2.0799 -7.2328 -2.5017 0.9688
2.3387 -7.1533 -2.5017 0.9688
2.5944 -7.0646 -2.5017 0.9688
3.0956 -6.8598 -2.5017 0.9688
3.3403 -6.7440 -2.5017 0.9688
3.5807 -6.6195 -2.5017 0.9688
3.8165 -6.4864 -2.5017 0.9688
-4.2418 5.5628 -2.5017 0.9707
-4.4392 5.4066 -2.5017 0.9707
-4.6308 5.2434 -2.5017 0.9707
-4.8164 5.0735 -2.5017 0.9707
-5.1686 4.7141 -2.5017 0.9707
-5.3348 4.5252 -2.5017 0.9707
-5.4942 4.3304 -2.5017 0.9707
-5.7912 3.9242 -2.5017 0.9707
-5.9286 3.7134 -2.5017 0.9707
-6.0584 3.4977 -2.5017 0.9707
-6.1802 3.2775 -2.5017 0.9707
-6.2941 3.0531 -2.5017 0.9707
-6.3999 2.8248 -2.5017 0.9707
-6.4973 2.5927 -2.5017 0.9707
-6.5864 2.3574 -2.5017 0.9707
-6.7388 1.8778 -2.5017 0.9707
-3.9944 0.8089 -1.4574 0.9828
-3.9381 0.5062 -1.4199 0.9833
-3.9543 0.0788 -1.4144 0.9833
-3.9443 -0.3480 -1.4160 0.9833
-3.9351 -0.4904 -1.4181 0.9833
-6.9063 -1.1142 -2.5017 0.9707
-6.6751 -2.0930 -2.5017 0.9707
-6.5955 -2.3318 -2.5017 0.9707
-6.5074 -2.5675 -2.5017 0.9707
-6.4108 -2.7999 -2.5017 0.9707
-6.3059 -3.0287 -2.5017 0.9707
-6.0719 -3.4742 -2.5017 0.9707
-5.9430 -3.6903 -2.5017 0.9707
-5.8064 -3.9017 -2.5017 0.9707
-5.5109 -4.3090 -2.5017 0.9707
-5.3524 -4.5044 -2.5017 0.9707
-5.1869 -4.6940 -2.5017 0.9707
-5.0147 -4.8775 -2.5017 0.9707
-4.8360 -5.0548 -2.5017 0.9707
-4.0612 -5.6960 -2.5017 0.9707
-3.4240 -6.1003 -2.5017 0.9707
-3.2023 -6.2195 -2.5017 0.9707
-2.9766 -6.3307 -2.5017 0.9707
-2.5137 -6.5283 -2.5017 0.9707
-2.0379 -6.6921 -2.5017 0.9707
-1.7959 -6.7611 -2.5017 0.9707
-1.5516 -6.8213 -2.5017 0.9707
-0.0546 -6.9953 -2.5017 0.9707
0.4485 -6.9812 -2.5017 0.9707
0.6993 -6.9605 -2.5017 0.9707
0.9492 -6.9309 -2.5017 0.9707
1.1978 -6.8922 -2.5017 0.9707
1.9333 -6.7231 -2.5017 0.9707
2.1739 -6.6492 -2.5017 0.9707
2.4116 -6.5667 -2.5017 0.9707
3.3284 -6.1530 -2.5017 0.9707
3.5475 -6.0293 -2.5017 0.9707
-4.8232 4.3991 -2.5017 0.9724
-4.9783 4.2228 -2.5017 0.9724
-5.2690 3.8540 -2.5017 0.9724
-5.4042 3.6619 -2.5017 0.9724
-5.6535 3.2639 -2.5017 0.9724
-5.7672 3.0585 -2.5017 0.9724
-5.8735 2.8491 -2.5017 0.9724
-6.1462 2.1998 -2.5017 0.9724
-6.2214 1.9773 -2.5017 0.9724
-6.3474 1.5250 -2.5017 0.9724
-3.8121 0.7720 -1.4905 0.9835
-3.7776 0.6245 -1.4673 0.9837
-3.8009 0.3502 -1.4628 0.9838
-3.8103 0.2132 -1.4624 0.9838
-3.8142 0.0760 -1.4620 0.9838
-3.8067 -0.1982 -1.4608 0.9838
-3.8020 -0.3355 -1.4627 0.9838
-3.7894 -0.4722 -1.4634 0.9838
-6.3533 -1.5003 -2.5017 0.9724
-6.2290 -1.9532 -2.5017 0.9724
-6.1547 -2.1760 -2.5017 0.9724
-5.9824 -2.6128 -2.5017 0.9724
-5.5458 -3.4437 -2.5017 0.9724
-5.1426 -4.0210 -2.5017 0.9724
-4.8402 -4.3803 -2.5017 0.9724
-3.7897 -5.3154 -2.5017 0.9724
-3.3978 -5.5740 -2.5017 0.9724
-3.1951 -5.6926 -2.5017 0.9724
-2.7776 -5.9076 -2.5017 0.9724
-2.5633 -6.0037 -2.5017 0.9724
-2.1251 -6.1724 -2.5017 0.9724
-1.9017 -6.2449 -2.5017 0.9724
-1.6759 -6.3092 -2.5017 0.9724
-1.4479 -6.3654 -2.5017 0.9724
-1.2180 -6.4134 -2.5017 0.9724
-0.0509 -6.5278 -2.5017 0.9724
0.6525 -6.4953 -2.5017 0.9724
1.5773 -6.3346 -2.5017 0.9724
2.0286 -6.2048 -2.5017 0.9724
2.4694 -6.0429 -2.5017 0.9724
3.3105 -5.6264 -2.5017 0.9724
-3.5291 4.9907 -2.5017 0.9739
-4.2083 4.4330 -2.5017 0.9739
-4.3651 4.2788 -2.5017 0.9739
-4.6614 3.9539 -2.5017 0.9739
-4.9335 3.6086 -2.5017 0.9739
-5.2935 3.0561 -2.5017 0.9739
-5.4996 2.6677 -2.5017 0.9739
-5.6771 2.2654 -2.5017 0.9739
-5.7549 2.0598 -2.5017 0.9739
-5.8881 1.6407 -2.5017 0.9739
-3.6454 0.7382 -1.5223 0.9841
-3.6460 0.4687 -1.5045 0.9842
-3.6649 0.2051 -1.5023 0.9843
-3.6581 -0.3228 -1.5030 0.9843
-5.9955 -1.1899 -2.5017 0.9739
-5.9488 -1.4048 -2.5017 0.9739
-5.8944 -1.6179 -2.5017 0.9739
-5.8324 -1.8288 -2.5017 0.9739
-5.7629 -2.0374 -2.5017 0.9739
-5.6015 -2.4464 -2.5017 0.9739
-5.4111 -2.8428 -2.5017 0.9739
-5.0734 -3.4091 -2.5017 0.9739
-4.9475 -3.5894 -2.5017 0.9739
-4.2255 -4.4166 -2.5017 0.9739
-4.0639 -4.5658 -2.5017 0.9739
-3.8971 -4.7090 -2.5017 0.9739
-3.1815 -5.2191 -2.5017 0.9739
-2.9917 -5.3302 -2.5017 0.9739
-2.4002 -5.6215 -2.5017 0.9739
-1.9898 -5.7795 -2.5017 0.9739
-1.5692 -5.9075 -2.5017 0.9739
-0.9237 -6.0422 -2.5017 0.9739
-0.7058 -6.0715 -2.5017 0.9739
0.6110 -6.0818 -2.5017 0.9739
1.0466 -6.0221 -2.5017 0.9739
1.2626 -5.9806 -2.5017 0.9739
1.6892 -5.8744 -2.5017 0.9739
2.3122 -5.6582 -2.5017 0.9739
2.5142 -5.5714 -2.5017 0.9739
3.0997 -5.2682 -2.5017 0.9739
-3.4806 4.5645 -2.5017 0.9753
-3.6425 4.4364 -2.5017 0.9753
-3.7998 4.3025 -2.5017 0.9753
-4.0992 4.0181 -2.5017 0.9753
-4.3775 3.7131 -2.5017 0.9753
-4.5082 3.5532 -2.5017 0.9753
-4.7520 3.2200 -2.5017 0.9753
-5.0712 2.6894 -2.5017 0.9753
-5.1646 2.5052 -2.5017 0.9753
-5.3314 2.1275 -2.5017 0.9753
-3.4953 0.7078 -1.5542 0.9846
-3.5112 0.4514 -1.5428 0.9847
-3.5211 0.3244 -1.5411 0.9847
-3.5275 0.1974 -1.5397 0.9847
-3.5308 -0.0567 -1.5390 0.9847
-5.6303 -1.1175 -2.5017 0.9753
-5.4118 -1.9130 -2.5017 0.9753
-5.3396 -2.1067 -2.5017 0.9753
-5.2603 -2.2974 -2.5017 0.9753
-4.9823 -2.8507 -2.5017 0.9753
-4.8765 -3.0280 -2.5017 0.9753
-4.7644 -3.2015 -2.5017 0.9753
-4.2561 -3.8517 -2.5017 0.9753
-4.1148 -4.0022 -2.5017 0.9753
-3.4983 -4.5510 -2.5017 0.9753
-3.3324 -4.6738 -2.5017 0.9753
-3.1621 -4.7907 -2.5017 0.9753
-2.6277 -5.1034 -2.5017 0.9753
-2.4424 -5.1946 -2.5017 0.9753
-2.2540 -5.2791 -2.5017 0.9753
-2.0626 -5.3568 -2.5017 0.9753
-1.8686 -5.4275 -2.5017 0.9753
-1.6722 -5.4912 -2.5017 0.9753
-1.4736 -5.5478 -2.5017 0.9753
-1.2731 -5.5972 -2.5017 0.9753
-1.0710 -5.6394 -2.5017 0.9753
-0.8675 -5.6742 -2.5017 0.9753
-0.6628 -5.7018 -2.5017 0.9753
-0.4573 -5.7219 -2.5017 0.9753
-0.2512 -5.7347 -2.5017 0.9753
0.1617 -5.7379 -2.5017 0.9753
0.3680 -5.7284 -2.5017 0.9753
0.5738 -5.7114 -2.5017 0.9753
0.7788 -5.6871 -2.5017 0.9753
1.1857 -5.6163 -2.5017 0.9753
1.3869 -5.5701 -2.5017 0.9753
1.5863 -5.5166 -2.5017 0.9753
1.7837 -5.4560 -2.5017 0.9753
1.9788 -5.3883 -2.5017 0.9753
2.3611 -5.2321 -2.5017 0.9753
2.7311 -5.0488 -2.5017 0.9753
2.9109 -4.9474 -2.5017 0.9753
-3.2771 4.2976 -2.5017 0.9765
-3.5776 4.0509 -2.5017 0.9765
-3.8595 3.7832 -2.5017 0.9765
-4.1215 3.4960 -2.5017 0.9765
-4.5802 2.8688 -2.5017 0.9765
-4.7746 2.5321 -2.5017 0.9765
-5.0196 2.0031 -2.5017 0.9765
-5.2550 1.2625 -2.5017 0.9765
-3.3892 0.6863 -1.6006 0.9849
-3.3938 0.3127 -1.5776 0.9851
-3.3998 0.1903 -1.5762 0.9851
-3.4029 0.0678 -1.5755 0.9851
-3.4025 -0.0546 -1.5752 0.9851
-3.3995 -0.1770 -1.5757 0.9851
-3.4041 -0.4242 -1.5879 0.9850
-5.3011 -1.0521 -2.5017 0.9765
-5.0954 -1.8014 -2.5017 0.9765
-4.9527 -2.1631 -2.5017 0.9765
-4.8717 -2.3398 -2.5017 0.9765
-4.6909 -2.6840 -2.5017 0.9765
-4.5913 -2.8510 -2.5017 0.9765
-4.4858 -3.0143 -2.5017 0.9765
-4.1350 -3.4799 -2.5017 0.9765
-4.0072 -3.6264 -2.5017 0.9765
-3.7361 -3.9051 -2.5017 0.9765
-3.5933 -4.0370 -2.5017 0.9765
-3.4457 -4.1636 -2.5017 0.9765
-3.2937 -4.2849 -2.5017 0.9765
-3.1375 -4.4005 -2.5017 0.9765
-2.8130 -4.6147 -2.5017 0.9765
-2.4740 -4.8050 -2.5017 0.9765
-2.2996 -4.8908 -2.5017 0.9765
-1.5744 -5.1701 -2.5017 0.9765
-1.3875 -5.2233 -2.5017 0.9765
-0.8167 -5.3424 -2.5017 0.9765
-0.2365 -5.3993 -2.5017 0.9765
-0.0422 -5.4043 -2.5017 0.9765
0.9254 -5.3247 -2.5017 0.9765
1.3058 -5.2444 -2.5017 0.9765
1.4936 -5.1940 -2.5017 0.9765
1.6794 -5.1369 -2.5017 0.9765
2.0444 -5.0029 -2.5017 0.9765
2.2230 -4.9261 -2.5017 0.9765
2.7407 -4.6580 -2.5017 0.9765
-3.2363 3.9416 -2.5017 0.9775
-3.3760 3.8226 -2.5017 0.9775
-3.6420 3.5700 -2.5017 0.9775
-3.7681 3.4367 -2.5017 0.9775
-3.8893 3.2990 -2.5017 0.9775
-4.0054 3.1570 -2.5017 0.9775
-4.4167 2.5499 -2.5017 0.9775
-4.5056 2.3895 -2.5017 0.9775
-4.5886 2.2258 -2.5017 0.9775
-4.8017 1.7186 -2.5017 0.9775
-4.8604 1.5448 -2.5017 0.9775
-4.9128 1.3690 -2.5017 0.9775
-3.5167 0.8449 -1.7741 0.9840
-3.3046 0.5463 -1.6430 0.9852
-3.2916 0.3033 -1.6214 0.9854
-3.2972 -0.0529 -1.6176 0.9854
-3.3001 -0.1719 -1.6210 0.9854
-3.3021 -0.2913 -1.6261 0.9853
-3.3287 -0.4148 -1.6454 0.9852
-3.4107 -0.5503 -1.6947 0.9847
-5.0024 -0.9928 -2.5017 0.9775
-4.9635 -1.1721 -2.5017 0.9775
-4.9181 -1.3499 -2.5017 0.9775
-4.5148 -2.3719 -2.5017 0.9775
-4.4266 -2.5328 -2.5017 0.9775
-4.3326 -2.6904 -2.5017 0.9775
-3.5256 -3.6851 -2.5017 0.9775
-3.2516 -3.9290 -2.5017 0.9775
-3.1082 -4.0434 -2.5017 0.9775
-2.3346 -4.5342 -2.5017 0.9775
-1.8326 -4.7593 -2.5017 0.9775
-1.4857 -4.8787 -2.5017 0.9775
-1.3093 -4.9291 -2.5017 0.9775
-0.9515 -5.0104 -2.5017 0.9775
-0.5889 -5.0658 -2.5017 0.9775
-0.2232 -5.0951 -2.5017 0.9775
0.1437 -5.0979 -2.5017 0.9775
0.3269 -5.0895 -2.5017 0.9775
1.0534 -4.9900 -2.5017 0.9775
1.2322 -4.9489 -2.5017 0.9775
1.5848 -4.8475 -2.5017 0.9775
1.7581 -4.7873 -2.5017 0.9775
2.0977 -4.6486 -2.5017 0.9775
2.2636 -4.5701 -2.5017 0.9775
2.5863 -4.3956 -2.5017 0.9775
2.7427 -4.2997 -2.5017 0.9775
-2.9240 3.8346 -2.5017 0.9785
-3.0600 3.7269 -2.5017 0.9785
-3.1921 3.6144 -2.5017 0.9785
-3.3200 3.4973 -2.5017 0.9785
-3.4437 3.3756 -2.5017 0.9785
-3.5629 3.2496 -2.5017 0.9785
-3.6774 3.1193 -2.5017 0.9785
-3.7873 2.9850 -2.5017 0.9785
-3.8921 2.8471 -2.5017 0.9785
-3.9920 2.7050 -2.5017 0.9785
-4.3386 2.1049 -2.5017 0.9785
-4.4116 1.9472 -2.5017 0.9785
-4.4788 1.7872 -2.5017 0.9785
-4.6452 1.2944 -2.5017 0.9785
-3.4023 0.8174 -1.8153 0.9844
-3.3213 0.6726 -1.7580 0.9848
-3.2609 0.3004 -1.6989 0.9854
-3.2562 0.1822 -1.6919 0.9854
-3.2652 -0.1700 -1.6962 0.9854
-3.2729 -0.2888 -1.7045 0.9853
-3.3087 -0.4123 -1.7298 0.9851
-4.6931 -1.1083 -2.5017 0.9785
-4.6013 -1.4428 -2.5017 0.9785
-4.5464 -1.6073 -2.5017 0.9785
-4.4191 -1.9300 -2.5017 0.9785
-3.9032 -2.8317 -2.5017 0.9785
-3.4568 -3.3622 -2.5017 0.9785
-2.7995 -3.9264 -2.5017 0.9785
-2.6564 -4.0245 -2.5017 0.9785
-2.5099 -4.1175 -2.5017 0.9785
-1.8935 -4.4349 -2.5017 0.9785
-1.4048 -4.6130 -2.5017 0.9785
-1.2380 -4.6606 -2.5017 0.9785
-0.8997 -4.7375 -2.5017 0.9785
-0.7287 -4.7668 -2.5017 0.9785
-0.3842 -4.8069 -2.5017 0.9785
-0.2110 -4.8176 -2.5017 0.9785
-0.0376 -4.8220 -2.5017 0.9785
0.1358 -4.8203 -2.5017 0.9785
0.6543 -4.7776 -2.5017 0.9785
0.8257 -4.7509 -2.5017 0.9785
0.9961 -4.7182 -2.5017 0.9785
1.1651 -4.6793 -2.5017 0.9785
1.4985 -4.5835 -2.5017 0.9785
1.8241 -4.4639 -2.5017 0.9785
1.9835 -4.3954 -2.5017 0.9785
2.1403 -4.3212 -2.5017 0.9785
2.5933 -4.0655 -2.5017 0.9785
-2.6372 3.7293 -2.5017 0.9794
-3.1447 3.3126 -2.5017 0.9794
-3.4832 2.9546 -2.5017 0.9794
-3.5873 2.8274 -2.5017 0.9794
-3.6866 2.6965 -2.5017 0.9794
-3.7812 2.5622 -2.5017 0.9794
-3.9556 2.2837 -2.5017 0.9794
-4.0352 2.1400 -2.5017 0.9794
-4.3530 1.3835 -2.5017 0.9794
-4.3999 1.2260 -2.5017 0.9794
-3.3820 0.8125 -1.9051 0.9843
-3.3074 0.6697 -1.8482 0.9847
-3.2627 0.5394 -1.8112 0.9850
-3.2355 0.4159 -1.7867 0.9852
-3.2308 0.2976 -1.7770 0.9853
-3.2247 0.0643 -1.7665 0.9854
-3.3378 -0.5385 -1.8517 0.9847
-3.5079 -0.6962 -1.9587 0.9838
-4.4046 -1.2090 -2.5017 0.9794
-4.3583 -1.3666 -2.5017 0.9794
-4.2488 -1.6764 -2.5017 0.9794
-4.0435 -2.1243 -2.5017 0.9794
-3.8803 -2.4095 -2.5017 0.9794
-3.5982 -2.8134 -2.5017 0.9794
-3.3866 -3.0648 -2.5017 0.9794
-3.2742 -3.1846 -2.5017 0.9794
-2.2356 -3.9830 -2.5017 0.9794
-2.0909 -4.0609 -2.5017 0.9794
-1.6413 -4.2625 -2.5017 0.9794
-1.4869 -4.3188 -2.5017 0.9794
-1.1726 -4.4145 -2.5017 0.9794
-0.8522 -4.4873 -2.5017 0.9794
-0.5274 -4.5370 -2.5017 0.9794
-0.3639 -4.5530 -2.5017 0.9794
-0.1999 -4.5631 -2.5017 0.9794
0.2928 -4.5582 -2.5017 0.9794
0.4566 -4.5447 -2.5017 0.9794
0.6197 -4.5253 -2.5017 0.9794
0.9435 -4.4690 -2.5017 0.9794
1.1036 -4.4322 -2.5017 0.9794
1.4194 -4.3414 -2.5017 0.9794
1.5746 -4.2870 -2.5017 0.9794
1.7278 -4.2282 -2.5017 0.9794
2.0273 -4.0930 -2.5017 0.9794
-2.5017 3.5378 -2.5017 0.9802
-2.6274 3.4456 -2.5017 0.9802
-2.8683 3.2478 -2.5017 0.9802
-2.9832 3.1425 -2.5017 0.9802
-3.0943 3.0331 -2.5017 0.9802
-3.2014 2.9199 -2.5017 0.9802
-3.4030 2.6822 -2.5017 0.9802
-3.4973 2.5580 -2.5017 0.9802
-3.6722 2.3000 -2.5017 0.9802
-3.7525 2.1665 -2.5017 0.9802
-3.8986 1.8911 -2.5017 0.9802
-3.9640 1.7496 -2.5017 0.9802
-4.0244 1.6059 -2.5017 0.9802
-4.0796 1.4602 -2.5017 0.9802
-4.1294 1.3125 -2.5017 0.9802
-3.3638 0.8081 -1.9973 0.9841
-3.2527 0.5377 -1.9035 0.9849
-3.2209 0.2967 -1.8675 0.9852
-3.2191 -0.0517 -1.8588 0.9852
-3.2274 -0.1681 -1.8659 0.9852
-3.2813 -0.4089 -1.9091 0.9848
-3.3251 -0.5365 -1.9446 0.9846
-3.4571 -0.6862 -2.0349 0.9839
-4.1785 -1.1469 -2.5017 0.9802
-4.1345 -1.2964 -2.5017 0.9802
-4.0852 -1.4443 -2.5017 0.9802
-4.0306 -1.5903 -2.5017 0.9802
-3.9708 -1.7342 -2.5017 0.9802
-3.9059 -1.8759 -2.5017 0.9802
-3.8359 -2.0152 -2.5017 0.9802
-3.7609 -2.1519 -2.5017 0.9802
-3.6811 -2.2857 -2.5017 0.9802
-3.5965 -2.4167 -2.5017 0.9802
-3.5072 -2.5445 -2.5017 0.9802
-3.2127 -2.9075 -2.5017 0.9802
-3.1061 -3.0211 -2.5017 0.9802
-2.9954 -3.1309 -2.5017 0.9802
-2.8809 -3.2366 -2.5017 0.9802
-2.2553 -3.6998 -2.5017 0.9802
-1.9835 -3.8523 -2.5017 0.9802
-1.7014 -3.9850 -2.5017 0.9802
-1.4106 -4.0970 -2.5017 0.9802
-1.2623 -4.1451 -2.5017 0.9802
-1.1124 -4.1878 -2.5017 0.9802
-0.9610 -4.2251 -2.5017 0.9802
-0.6548 -4.2832 -2.5017 0.9802
-0.3452 -4.3192 -2.5017 0.9802
-0.0338 -4.3329 -2.5017 0.9802
0.1221 -4.3313 -2.5017 0.9802
0.2778 -4.3241 -2.5017 0.9802
0.4331 -4.3113 -2.5017 0.9802
0.5879 -4.2929 -2.5017 0.9802
0.7419 -4.2690 -2.5017 0.9802
0.8950 -4.2395 -2.5017 0.9802
1.0469 -4.2046 -2.5017 0.9802
1.9232 -3.8828 -2.5017 0.9802
2.1973 -3.7345 -2.5017 0.9802
2.3302 -3.6531 -2.5017 0.9802
