ply
format ascii 1.0
element vertex 902
property float32 x
property float32 y
property float32 z
property float32 I
end_header
1.4350 11.9913 2.1295 0.9521
0.5751 12.0129 2.1206 0.9523
-0.2820 12.0344 2.1226 0.9523
-0.7123 12.0453 2.1276 0.9522
-1.1451 12.0561 2.1354 0.9520
-13.0944 41.0904 7.6043 0.8393
-12.2277 30.6351 5.8162 0.8746
-9.8574 22.3491 4.3070 0.9055
-12.5308 18.5715 3.9504 0.9130
-12.6500 17.3789 3.7902 0.9164
-12.7335 14.0552 3.3441 0.9259
-12.7634 12.2146 3.1151 0.9308
-14.7961 12.2656 3.3888 0.9249
-15.8539 12.2163 3.5291 0.9219
-17.3237 12.3909 3.7556 0.9171
-22.0467 12.4479 4.4643 0.9023
0.8325 9.9492 1.5295 0.9604
0.4767 9.9581 1.5273 0.9605
0.1217 9.9671 1.5270 0.9605
-11.8865 42.4755 6.7570 0.8365
-12.1459 33.8900 5.5151 0.8644
-13.1787 24.9071 4.3168 0.8922
-14.2899 24.8252 4.3881 0.8906
-12.5308 18.5715 3.4321 0.9133
-12.5938 16.0660 3.1273 0.9207
-12.6467 13.9594 2.8856 0.9266
-13.7370 12.2390 2.8185 0.9283
-17.3237 12.3909 3.2629 0.9174
-16.9583 10.3885 3.0466 0.9227
-24.2311 12.5645 4.1814 0.8954
2.2136 11.4867 1.5233 0.9539
1.3900 11.6152 1.5233 0.9539
0.9753 11.6573 1.5233 0.9539
-0.2740 11.6948 1.5233 0.9539
-0.6905 11.6777 1.5233 0.9539
-1.3457 10.2665 1.3483 0.9591
-11.8865 42.4755 5.7437 0.8370
-12.1459 33.8900 4.6880 0.8648
-12.2277 30.6351 4.2954 0.8754
-12.9572 26.7529 3.8709 0.8870
-15.4354 26.8152 4.0291 0.8827
-16.8162 26.9459 4.1362 0.8797
-12.5638 17.2605 2.7801 0.9175
-12.5938 16.0660 2.6583 0.9210
-12.6213 14.9704 2.5498 0.9241
-12.6467 13.9594 2.4529 0.9268
-12.6703 13.0213 2.3659 0.9293
-13.7370 12.2390 2.3958 0.9285
-14.7961 12.2656 2.5027 0.9254
-17.2342 12.3269 2.7592 0.9181
-18.6545 12.3626 2.9142 0.9137
-22.0467 12.4479 3.2969 0.9029
-26.2870 12.4630 3.7883 0.8893
-29.2917 12.6299 4.1539 0.8793
-33.3041 9.0223 4.4932 0.8701
1.8688 11.9804 1.3020 0.9524
1.4350 11.9913 1.2968 0.9526
0.9962 11.9063 1.2830 0.9531
0.5751 12.0129 1.2914 0.9528
-1.1451 12.0561 1.3004 0.9524
-1.9017 11.3535 1.2361 0.9547
-12.1459 33.8900 3.8658 0.8652
-10.2216 25.6092 2.9609 0.8950
-14.2230 26.8807 3.2657 0.8848
-16.8554 27.0086 3.4187 0.8798
-12.5638 17.2605 2.2925 0.9177
-12.5938 16.0660 2.1921 0.9212
-12.6213 14.9704 2.1026 0.9242
-12.6467 13.9594 2.0227 0.9270
-12.7634 12.2146 1.8970 0.9314
-13.7370 12.2390 1.9756 0.9287
-14.7961 12.2656 2.0638 0.9256
-18.6545 12.3626 2.4031 0.9139
-16.9534 10.3855 2.1349 0.9231
-22.0467 12.4479 2.7187 0.9032
-29.2917 12.6299 3.4253 0.8796
-33.3041 9.0223 3.7052 0.8704
1.8539 11.8847 1.0182 0.9529
0.1468 12.0237 1.0179 0.9529
-2.4621 10.1831 0.8869 0.9588
-13.0944 41.0904 3.6508 0.8410
-12.1459 33.8900 3.0476 0.8654
-12.2277 30.6351 2.7923 0.8760
-12.2969 27.8801 2.5795 0.8849
-12.1287 25.0424 2.3555 0.8943
-14.2230 26.8807 2.5744 0.8851
-14.4610 25.1225 2.4539 0.8902
-16.8554 27.0086 2.6951 0.8800
-12.5308 18.5715 1.8965 0.9140
-12.5638 17.2605 1.8072 0.9179
-12.5938 16.0660 1.7281 0.9213
-12.6213 14.9704 1.6576 0.9244
-12.6703 13.0213 1.5380 0.9297
-12.1198 11.5986 1.4201 0.9349
-12.1195 10.7979 1.3741 0.9369
-14.7961 12.2656 1.6269 0.9257
-26.4905 12.5595 2.4818 0.8890
-29.2917 12.6299 2.7003 0.8798
-33.3041 9.0223 2.9209 0.8707
2.3066 11.9694 0.7559 0.9523
1.8539 11.8847 0.7459 0.9529
1.4350 11.9913 0.7489 0.9528
0.5751 12.0129 0.7458 0.9529
-0.2820 12.0344 0.7465 0.9529
-9.8475 48.1837 3.0496 0.8211
-2.7017 11.1740 0.7129 0.9550
-2.8245 10.0932 0.6499 0.9589
-13.0635 40.9936 2.6680 0.8416
-12.1459 33.8900 2.2324 0.8656
-12.2277 30.6351 2.0454 0.8762
-12.2969 27.8801 1.8896 0.8850
-14.4464 25.0972 1.7957 0.8904
-15.6819 25.1282 1.8368 0.8881
-12.5308 18.5715 1.3893 0.9141
-12.6213 14.9704 1.2142 0.9245
-11.5342 11.8538 1.0256 0.9359
-11.5005 10.2464 0.9551 0.9401
-17.3237 12.3909 1.3208 0.9182
-18.5421 12.2881 1.3794 0.9147
-22.0467 12.4479 1.5700 0.9035
-33.3041 9.0223 2.1396 0.8709
1.8539 11.8847 0.4743 0.9530
1.4350 11.9913 0.4762 0.9528
0.9962 11.9063 0.4711 0.9533
-0.7123 12.0453 0.4758 0.9528
-1.1451 12.0561 0.4775 0.9527
-1.3457 10.2665 0.4083 0.9594
-9.8475 48.1836 1.9392 0.8213
-12.2277 30.6351 1.3006 0.8763
-12.1132 25.0103 1.0958 0.8947
-13.2469 25.0361 1.1169 0.8928
-14.4284 25.0658 1.1404 0.8907
-12.5938 16.0660 0.8049 0.9215
-12.6213 14.9704 0.7721 0.9246
-10.9675 12.1059 0.6441 0.9367
-15.8539 12.2163 0.7892 0.9230
-18.5421 12.2881 0.8771 0.9148
-22.4933 10.6644 0.9816 0.9052
-29.2917 12.6299 1.2578 0.8801
-32.7092 11.4170 1.3661 0.8705
1.8539 11.8847 0.2032 0.9530
1.4350 11.9913 0.2040 0.9528
0.9962 11.9063 0.2018 0.9533
-0.7123 12.0453 0.2038 0.9529
-1.1451 12.0561 0.2046 0.9527
-1.3457 10.2665 0.1749 0.9594
-3.6233 21.6309 0.3705 0.9160
-4.4191 21.6228 0.3728 0.9155
-3.2872 10.3153 0.1829 0.9576
-7.5703 21.1230 0.3790 0.9141
-8.6135 21.5801 0.3925 0.9112
-9.5142 21.5710 0.3982 0.9100
-10.4429 21.5615 0.4047 0.9086
-11.4033 21.5517 0.4119 0.9071
-13.4370 21.5311 0.4287 0.9035
-12.6213 14.9704 0.3308 0.9247
-13.7370 12.2390 0.3108 0.9290
-15.8539 12.2163 0.3381 0.9231
-17.3237 12.3909 0.3598 0.9183
-18.5421 12.2881 0.3757 0.9149
-16.9439 10.3797 0.3356 0.9236
-22.0467 12.4479 0.4277 0.9037
-29.2917 12.6299 0.5388 0.8802
-33.8550 11.8170 0.6057 0.8664
2.3066 11.9694 -0.0686 0.9524
0.1468 12.0237 -0.0677 0.9530
-4.4191 21.6229 -0.1243 0.9155
-5.0387 20.8399 -0.1207 0.9178
-5.7066 20.3922 -0.1192 0.9188
-7.3117 20.4015 -0.1220 0.9170
-12.3998 21.5416 -0.1399 0.9054
-12.5116 17.1888 -0.1197 0.9185
-12.6213 14.9704 -0.1102 0.9247
-13.6261 12.1402 -0.1027 0.9296
-18.6545 12.3626 -0.1260 0.9144
-18.8331 10.6334 -0.1218 0.9171
-20.5430 10.6521 -0.1303 0.9116
-22.4933 10.6644 -0.1402 0.9052
-27.8194 10.8368 -0.1681 0.8874
-33.3041 9.0223 -0.1943 0.8711
1.9683 10.2137 -0.2929 0.9592
1.0042 12.0021 -0.3391 0.9529
0.1468 12.0237 -0.3386 0.9530
-0.6078 10.2785 -0.2899 0.9596
-5.0387 20.8399 -0.6037 0.9178
-7.0531 19.6800 -0.5887 0.9197
-10.4429 21.5616 -0.6746 0.9086
-11.4034 21.5518 -0.6866 0.9070
-12.5308 18.5715 -0.6308 0.9143
-12.6213 14.9704 -0.5514 0.9246
-12.6703 13.0213 -0.5116 0.9299
-10.8375 10.3715 -0.4224 0.9417
-13.7370 12.2390 -0.5181 0.9290
-12.6189 10.4607 -0.4615 0.9365
-13.5891 10.4711 -0.4831 0.9337
-17.2342 12.3269 -0.5966 0.9187
-18.8331 10.6334 -0.6090 0.9171
-20.5430 10.6521 -0.6516 0.9116
-22.4933 10.6644 -0.7009 0.9052
-24.8854 10.7300 -0.7631 0.8972
-31.0997 10.8552 -0.9275 0.8765
1.9683 10.2137 -0.5275 0.9592
1.8688 11.9804 -0.6149 0.9526
1.4350 11.9913 -0.6125 0.9528
1.0042 12.0021 -0.6108 0.9529
0.1468 12.0237 -0.6098 0.9530
-0.6078 10.2785 -0.5222 0.9596
-1.3457 10.2665 -0.5251 0.9594
-3.6233 21.6310 -1.1123 0.9159
-8.3659 18.9675 -1.0513 0.9203
-10.4429 21.5616 -1.2150 0.9085
-11.4034 21.5519 -1.2366 0.9070
-12.3998 21.5417 -1.2605 0.9052
-13.4371 21.5312 -1.2871 0.9033
-12.5308 18.5715 -1.1362 0.9142
-12.5938 16.0660 -1.0353 0.9215
-11.7462 12.0717 -0.8542 0.9348
-13.5556 10.4453 -0.8679 0.9338
-14.5968 10.4405 -0.9101 0.9306
-15.7998 10.4707 -0.9613 0.9269
-16.9368 10.3753 -1.0073 0.9235
-18.6729 10.5429 -1.0875 0.9177
-20.4170 10.5868 -1.1664 0.9120
-22.4366 10.6375 -1.2593 0.9053
-24.8092 10.6971 -1.3702 0.8974
-31.0997 10.8552 -1.6705 0.8764
-48.4010 9.4737 -2.5012 0.8208
-48.7078 7.7434 -2.5012 0.8208
-48.9527 6.0032 -2.5012 0.8208
-49.2559 2.5021 -2.5012 0.8208
-49.3138 0.7458 -2.5012 0.8208
-49.3090 -1.0115 -2.5012 0.8208
-49.2417 -2.7676 -2.5012 0.8208
-49.1119 -4.5202 -2.5012 0.8208
-48.6654 -8.0058 -2.5012 0.8208
1.9682 10.2137 -0.7627 0.9591
1.8688 11.9804 -0.8891 0.9525
1.0042 12.0021 -0.8831 0.9528
0.5751 12.0129 -0.8818 0.9529
-0.2820 12.0344 -0.8826 0.9529
-0.6078 10.2785 -0.7550 0.9595
-1.1451 12.0561 -0.8880 0.9526
-1.3457 10.2665 -0.7592 0.9593
-5.1685 18.4691 -1.4062 0.9260
-3.2872 10.3153 -0.7938 0.9575
-6.6222 18.4775 -1.4392 0.9243
-7.3269 18.3566 -1.4492 0.9238
-11.4034 21.5519 -1.7878 0.9068
-13.4371 21.5312 -1.8609 0.9032
-12.5308 18.5715 -1.6427 0.9141
-12.5638 17.2605 -1.5653 0.9179
-12.5938 16.0660 -1.4968 0.9214
-12.6213 14.9704 -1.4357 0.9245
-11.7053 10.4289 -1.1495 0.9391
-12.5355 10.3916 -1.1939 0.9368
-13.5140 10.4133 -1.2509 0.9339
-15.7998 10.4707 -1.3898 0.9268
-16.9344 10.3738 -1.4561 0.9234
-20.4170 10.5868 -1.6863 0.9119
-24.8092 10.6971 -1.9810 0.8973
-27.6437 10.7684 -2.1753 0.8878
-30.6015 9.4726 -2.3488 0.8794
-33.4772 6.5526 -2.5012 0.8721
-33.8588 4.1522 -2.5012 0.8721
-34.0686 1.7306 -2.5012 0.8721
-34.1086 0.5158 -2.5012 0.8721
-34.1053 -0.6996 -2.5012 0.8721
-33.9689 -3.1264 -2.5012 0.8721
-33.6601 -5.5373 -2.5012 0.8721
-33.4414 -6.7330 -2.5012 0.8721
1.2216 10.2075 -0.9870 0.9595
-0.2401 10.2442 -0.9838 0.9597
-0.6063 10.2534 -0.9861 0.9596
-1.3457 10.2665 -0.9941 0.9592
-3.6233 21.6311 -2.1056 0.9156
-7.8353 17.7645 -1.8640 0.9249
-10.2276 21.1171 -2.2526 0.9100
-10.9708 20.7342 -2.2521 0.9100
-12.5938 16.0660 -1.9598 0.9212
-12.6213 14.9704 -1.8799 0.9243
-10.9689 12.1074 -1.5685 0.9365
-11.8381 12.1662 -1.6297 0.9341
-10.8375 10.3715 -1.4401 0.9415
-12.5352 10.3913 -1.5632 0.9367
-13.5140 10.4133 -1.6379 0.9337
-15.7998 10.4707 -1.8197 0.9267
-16.8159 10.3012 -1.8932 0.9238
-18.6729 10.5429 -2.0587 0.9174
-22.4660 9.6868 -2.3488 0.9064
-23.5273 8.2120 -2.3924 0.9047
-25.1464 6.8123 -2.5012 0.9006
-25.5676 5.0044 -2.5012 0.9006
-25.7297 4.0904 -2.5012 0.9006
-25.8591 3.1711 -2.5012 0.9006
-25.9557 2.2479 -2.5012 0.9006
-26.0193 1.3217 -2.5012 0.9006
-26.0498 0.3939 -2.5012 0.9006
-26.0473 -0.5344 -2.5012 0.9006
-26.0117 -1.4620 -2.5012 0.9006
-25.8416 -3.3105 -2.5012 0.9006
-25.3409 -6.0488 -2.5012 0.9006
1.9575 10.1580 -1.2288 0.9592
1.5860 10.1674 -1.2223 0.9594
0.4881 10.1950 -1.2124 0.9597
-0.6045 10.2224 -1.2164 0.9596
-1.3423 10.2410 -1.2269 0.9592
-3.1721 18.9373 -2.2808 0.9256
-2.1094 10.3213 -1.2514 0.9585
-3.2872 10.3153 -1.2860 0.9573
-6.1912 17.2749 -2.1798 0.9287
-9.5436 16.5796 -2.2724 0.9258
-10.1271 16.2274 -2.2722 0.9258
-11.2563 15.4642 -2.2720 0.9258
-11.5971 11.9184 -1.9754 0.9352
-10.8375 10.3715 -1.7819 0.9414
-11.6393 10.3701 -1.8517 0.9391
-12.5352 10.3913 -1.9341 0.9365
-13.5140 10.4133 -2.0266 0.9336
-14.5968 10.4405 -2.1318 0.9303
-15.9861 10.5942 -2.2781 0.9257
-16.6195 10.1810 -2.3151 0.9245
-17.2185 9.7217 -2.3488 0.9234
-19.0167 8.1995 -2.4599 0.9200
-19.6203 7.6429 -2.5012 0.9187
-20.1147 6.2264 -2.5012 0.9187
-20.5070 4.7783 -2.5012 0.9187
-20.7952 3.3059 -2.5012 0.9187
-20.8998 2.5630 -2.5012 0.9187
-20.9778 1.8167 -2.5012 0.9187
-21.0293 1.0683 -2.5012 0.9187
-21.0232 -1.1817 -2.5012 0.9187
-20.4810 -4.8888 -2.5012 0.9187
1.2179 10.1766 -1.4522 0.9594
0.4881 10.1950 -1.4462 0.9596
-0.2393 10.2133 -1.4475 0.9596
-0.9718 10.2317 -1.4562 0.9593
-1.3423 10.2410 -1.4634 0.9591
-1.7175 10.2535 -1.4730 0.9589
-2.8864 10.3142 -1.5176 0.9577
-6.5164 14.7742 -2.2879 0.9368
-7.0371 14.5296 -2.2874 0.9369
-9.0258 13.3769 -2.2865 0.9369
-9.4966 13.0468 -2.2864 0.9369
-9.9558 12.7006 -2.2865 0.9369
-10.8371 11.9619 -2.2870 0.9369
-11.2582 11.5701 -2.2874 0.9369
-11.6393 10.3701 -2.2088 0.9390
-12.4376 10.3104 -2.2891 0.9368
-13.1310 10.1181 -2.3488 0.9352
-13.4831 9.6439 -2.3488 0.9352
-13.8182 9.1574 -2.3488 0.9352
-16.4488 6.4075 -2.5012 0.9312
-16.8628 5.2199 -2.5012 0.9312
-17.0385 4.6158 -2.5012 0.9312
-17.1922 4.0059 -2.5012 0.9312
-17.4338 2.7715 -2.5012 0.9312
-17.5214 2.1487 -2.5012 0.9312
-17.6300 0.8956 -2.5012 0.9312
-17.6507 0.2669 -2.5012 0.9312
-17.6490 -0.3621 -2.5012 0.9312
-17.6249 -0.9906 -2.5012 0.9312
-17.3054 -3.4842 -2.5012 0.9312
-17.1703 -4.0986 -2.5012 0.9312
0.8522 10.1858 -1.6839 0.9594
0.4881 10.1950 -1.6814 0.9595
0.1245 10.2041 -1.6811 0.9595
-0.6045 10.2224 -1.6870 0.9593
-0.9718 10.2317 -1.6931 0.9592
-1.3423 10.2410 -1.7015 0.9590
-2.0975 10.2632 -1.7257 0.9584
-2.9037 12.0096 -2.0355 0.9511
-4.7091 13.1394 -2.2994 0.9450
-5.6301 12.7647 -2.2983 0.9450
-6.0801 12.5538 -2.2979 0.9450
-6.5226 12.3274 -2.2976 0.9450
-6.9568 12.0858 -2.2973 0.9450
-7.3824 11.8294 -2.2971 0.9450
-8.2057 11.2732 -2.2970 0.9450
-8.6024 10.9741 -2.2971 0.9450
-8.9885 10.6614 -2.2973 0.9450
-9.9162 10.1910 -2.3425 0.9440
-10.3007 9.8578 -2.3488 0.9438
-10.6454 9.4845 -2.3488 0.9438
-10.9766 9.0992 -2.3488 0.9438
-11.2938 8.7024 -2.3488 0.9438
-11.5966 8.2946 -2.3488 0.9438
-13.2210 7.4647 -2.5012 0.9403
-13.4785 6.9889 -2.5012 0.9403
-13.9420 6.0115 -2.5012 0.9403
-14.3347 5.0034 -2.5012 0.9403
-14.6545 3.9700 -2.5012 0.9403
-14.7867 3.4454 -2.5012 0.9403
-14.9945 2.3837 -2.5012 0.9403
-15.0699 1.8480 -2.5012 0.9403
-15.1262 1.3100 -2.5012 0.9403
-15.1632 0.7702 -2.5012 0.9403
-15.1589 -0.8520 -2.5012 0.9403
-14.8841 -2.9967 -2.5012 0.9403
1.9575 10.1580 -1.9444 0.9588
0.4881 10.1950 -1.9185 0.9593
-0.2393 10.2133 -1.9202 0.9593
-0.6045 10.2224 -1.9248 0.9592
-1.3423 10.2410 -1.9414 0.9588
-1.7174 10.2531 -1.9540 0.9586
-2.0975 10.2632 -1.9690 0.9583
-2.8959 10.3483 -2.0198 0.9572
-4.1413 11.5553 -2.3072 0.9513
-4.9516 11.2264 -2.3063 0.9513
-5.7367 10.8422 -2.3056 0.9513
-6.8595 10.1662 -2.3051 0.9513
-7.3540 10.1031 -2.3488 0.9504
-8.0548 9.5538 -2.3488 0.9504
-9.3302 8.3128 -2.3488 0.9504
-10.5407 8.1221 -2.5012 0.9473
-10.8234 7.7415 -2.5012 0.9473
-11.8133 6.1255 -2.5012 0.9473
-12.2195 5.2688 -2.5012 0.9473
-12.5637 4.3853 -2.5012 0.9473
-12.7119 3.9349 -2.5012 0.9473
-13.0592 2.5561 -2.5012 0.9473
-13.2081 1.6197 -2.5012 0.9473
-13.2574 1.1481 -2.5012 0.9473
-13.2899 0.6751 -2.5012 0.9473
-13.3055 0.2012 -2.5012 0.9473
-13.3042 -0.2730 -2.5012 0.9473
-13.2861 -0.7468 -2.5012 0.9473
-13.2510 -1.2196 -2.5012 0.9473
-13.1305 -2.1601 -2.5012 0.9473
-13.0452 -2.6265 -2.5012 0.9473
-12.9434 -3.0896 -2.5012 0.9473
1.9575 10.1580 -2.1867 0.9586
1.5860 10.1674 -2.1752 0.9588
0.1245 10.2041 -2.1571 0.9591
-1.7174 10.2531 -2.1975 0.9584
-2.4839 10.2734 -2.2342 0.9577
-2.8859 10.3125 -2.2636 0.9572
-3.2872 10.3153 -2.2885 0.9567
-4.4842 10.1667 -2.3488 0.9556
-4.8435 10.0005 -2.3488 0.9556
-5.1967 9.8216 -2.3488 0.9556
-5.8829 9.4266 -2.3488 0.9556
-7.4605 8.2348 -2.3488 0.9556
-7.9856 8.2068 -2.4205 0.9543
-9.3729 7.2223 -2.5012 0.9528
-10.3038 5.8176 -2.5012 0.9528
-10.8657 4.6850 -2.5012 0.9528
-11.0257 4.2949 -2.5012 0.9528
-11.1717 3.8994 -2.5012 0.9528
-11.3035 3.4990 -2.5012 0.9528
-11.6124 2.2729 -2.5012 0.9528
-11.6860 1.8578 -2.5012 0.9528
-11.7447 1.4402 -2.5012 0.9528
-11.8175 0.6003 -2.5012 0.9528
-11.8314 0.1789 -2.5012 0.9528
-11.5999 -2.3355 -2.5012 0.9528
-11.5094 -2.7473 -2.5012 0.9528
1.8911 9.8133 -2.3488 0.9598
1.5403 9.8745 -2.3488 0.9598
1.1875 9.9231 -2.3488 0.9598
0.8333 9.9591 -2.3488 0.9598
0.1220 9.9931 -2.3488 0.9598
-0.2341 9.9912 -2.3488 0.9598
-0.5899 9.9765 -2.3488 0.9598
-1.6510 9.8566 -2.3488 0.9598
-2.0011 9.7915 -2.3488 0.9598
-3.3717 9.4079 -2.3488 0.9598
-3.7048 9.2819 -2.3488 0.9598
-4.6740 8.8335 -2.3488 0.9598
-5.2912 8.4783 -2.3488 0.9598
-5.5898 8.2844 -2.3488 0.9598
-6.4290 8.2015 -2.4492 0.9581
-6.8598 8.1365 -2.5012 0.9572
-7.1453 7.8869 -2.5012 0.9572
-8.4300 6.4957 -2.5012 0.9572
-8.6560 6.1913 -2.5012 0.9572
-8.8711 5.8790 -2.5012 0.9572
-9.6163 4.5592 -2.5012 0.9572
-9.7726 4.2137 -2.5012 0.9572
-10.0479 3.5071 -2.5012 0.9572
-10.4442 2.0443 -2.5012 0.9572
-10.5632 1.2954 -2.5012 0.9572
-10.6027 0.9182 -2.5012 0.9572
-10.6287 0.5399 -2.5012 0.9572
-10.6411 0.1609 -2.5012 0.9572
-10.6256 -0.5972 -2.5012 0.9572
-10.5561 -1.3523 -2.5012 0.9572
-10.5012 -1.7276 -2.5012 0.9572
1.7166 8.9077 -2.3488 0.9632
0.7564 9.0400 -2.3488 0.9632
0.4338 9.0612 -2.3488 0.9632
0.1107 9.0709 -2.3488 0.9632
-0.5355 9.0557 -2.3488 0.9632
-1.1789 8.9947 -2.3488 0.9632
-1.4986 8.9469 -2.3488 0.9632
-1.8165 8.8879 -2.3488 0.9632
-2.1319 8.8175 -2.3488 0.9632
-2.4447 8.7359 -2.3488 0.9632
-2.7544 8.6433 -2.3488 0.9632
-3.0606 8.5397 -2.3488 0.9632
-3.3629 8.4252 -2.3488 0.9632
-3.9798 8.2173 -2.3640 0.9630
-4.3439 8.2097 -2.4049 0.9623
-5.1125 8.1921 -2.5002 0.9609
-5.4031 8.0078 -2.5012 0.9609
-5.6850 7.8102 -2.5012 0.9609
-6.2267 7.3856 -2.5012 0.9609
-6.9792 6.6791 -2.5012 0.9609
-9.1206 3.1835 -2.5012 0.9609
-9.2282 2.8565 -2.5012 0.9609
-9.3241 2.5260 -2.5012 0.9609
-9.4803 1.8556 -2.5012 0.9609
-9.5404 1.5167 -2.5012 0.9609
-9.5884 1.1758 -2.5012 0.9609
-9.6242 0.8335 -2.5012 0.9609
-9.6478 0.4901 -2.5012 0.9609
-9.6591 0.1461 -2.5012 0.9609
-9.6582 -0.1981 -2.5012 0.9609
-9.6195 -0.8854 -2.5012 0.9609
-9.4702 -1.9067 -2.5012 0.9609
-9.3962 -2.2429 -2.5012 0.9609
1.5833 8.2164 -2.3688 0.9658
1.2830 8.2248 -2.3565 0.9660
0.6918 8.2680 -2.3488 0.9661
-0.1944 8.2946 -2.3488 0.9661
-0.4898 8.2824 -2.3488 0.9661
-1.0789 8.2312 -2.3501 0.9661
-1.3771 8.2214 -2.3599 0.9659
-1.6791 8.2155 -2.3738 0.9657
-2.2970 8.2082 -2.4130 0.9652
-2.6143 8.2037 -2.4375 0.9648
-2.9383 8.1985 -2.4655 0.9644
-3.2700 8.1926 -2.4972 0.9640
-4.6777 7.4954 -2.5012 0.9639
-4.9417 7.3240 -2.5012 0.9639
-5.1995 7.1433 -2.5012 0.9639
-5.6950 6.7549 -2.5012 0.9639
-5.9320 6.5477 -2.5012 0.9639
-6.5968 5.8774 -2.5012 0.9639
-6.8020 5.6386 -2.5012 0.9639
-6.9985 5.3927 -2.5012 0.9639
-7.8435 4.0670 -2.5012 0.9639
-7.9834 3.7850 -2.5012 0.9639
-8.1132 3.4982 -2.5012 0.9639
-8.2327 3.2070 -2.5012 0.9639
-8.5279 2.3103 -2.5012 0.9639
-8.6048 2.0050 -2.5012 0.9639
-8.6707 1.6971 -2.5012 0.9639
-8.8023 0.7623 -2.5012 0.9639
-8.8342 0.1336 -2.5012 0.9639
-8.8213 -0.4959 -2.5012 0.9639
-8.7636 -1.1227 -2.5012 0.9639
-8.6615 -1.7439 -2.5012 0.9639
1.5388 7.9849 -2.5012 0.9665
1.2533 8.0347 -2.5012 0.9665
0.9663 8.0742 -2.5012 0.9665
-0.1905 8.1296 -2.5012 0.9665
-0.4800 8.1177 -2.5012 0.9665
-1.3434 8.0202 -2.5012 0.9665
-1.6283 7.9672 -2.5012 0.9665
-2.1915 7.8310 -2.5012 0.9665
-2.7435 7.6551 -2.5012 0.9665
-3.2817 7.4403 -2.5012 0.9665
-3.5446 7.3187 -2.5012 0.9665
-3.8031 7.1877 -2.5012 0.9665
-4.0568 7.0477 -2.5012 0.9665
-4.3053 6.8987 -2.5012 0.9665
-5.2416 6.2171 -2.5012 0.9665
-5.4598 6.0264 -2.5012 0.9665
-6.0716 5.4095 -2.5012 0.9665
-6.2608 5.1898 -2.5012 0.9665
-6.4414 4.9634 -2.5012 0.9665
-6.6141 4.7308 -2.5012 0.9665
-6.7785 4.4922 -2.5012 0.9665
-6.9342 4.2478 -2.5012 0.9665
-7.3479 3.4837 -2.5012 0.9665
-7.5773 2.9517 -2.5012 0.9665
-7.8490 2.1263 -2.5012 0.9665
-7.9197 1.8454 -2.5012 0.9665
-7.9805 1.5620 -2.5012 0.9665
-8.0310 1.2767 -2.5012 0.9665
-8.1016 0.7016 -2.5012 0.9665
-8.1310 0.1229 -2.5012 0.9665
-8.1302 -0.1668 -2.5012 0.9665
-8.1191 -0.4564 -2.5012 0.9665
-8.0241 -1.3201 -2.5012 0.9665
-7.9098 -1.8880 -2.5012 0.9665
1.4238 7.3886 -2.5012 0.9688
0.6274 7.4983 -2.5012 0.9688
0.3598 7.5159 -2.5012 0.9688
-0.1763 7.5225 -2.5012 0.9688
-0.4442 7.5114 -2.5012 0.9688
-0.7115 7.4908 -2.5012 0.9688
-1.7684 7.3137 -2.5012 0.9688
-3.0366 6.8846 -2.5012 0.9688
-3.5191 6.6509 -2.5012 0.9688
-3.7538 6.5213 -2.5012 0.9688
-3.9837 6.3834 -2.5012 0.9688
-4.2086 6.2374 -2.5012 0.9688
-4.4282 6.0836 -2.5012 0.9688
-4.8501 5.7528 -2.5012 0.9688
-5.2474 5.3928 -2.5012 0.9688
-5.6181 5.0055 -2.5012 0.9688
-5.7929 4.8021 -2.5012 0.9688
-5.9603 4.5927 -2.5012 0.9688
-6.1201 4.3774 -2.5012 0.9688
-6.5523 3.6994 -2.5012 0.9688
-6.6799 3.4637 -2.5012 0.9688
-6.7991 3.2235 -2.5012 0.9688
-6.9096 2.9792 -2.5012 0.9688
-7.1880 2.2250 -2.5012 0.9688
-7.3844 1.4453 -2.5012 0.9688
-7.4965 0.6492 -2.5012 0.9688
-7.4929 -0.6897 -2.5012 0.9688
-7.4635 -0.9562 -2.5012 0.9688
-7.3189 -1.7471 -2.5012 0.9688
1.0780 6.9107 -2.5012 0.9707
0.8311 6.9447 -2.5012 0.9707
0.0854 6.9937 -2.5012 0.9707
-0.1638 6.9923 -2.5012 0.9707
-0.6613 6.9629 -2.5012 0.9707
-2.1236 6.6640 -2.5012 0.9707
-2.5928 6.4959 -2.5012 0.9707
-2.8225 6.3994 -2.5012 0.9707
-3.0487 6.2948 -2.5012 0.9707
-3.4892 6.0617 -2.5012 0.9707
-3.7030 5.9336 -2.5012 0.9707
-4.3149 5.5046 -2.5012 0.9707
-4.8776 5.0128 -2.5012 0.9707
-5.0531 4.8358 -2.5012 0.9707
-5.9641 3.6536 -2.5012 0.9707
-6.3199 2.9963 -2.5012 0.9707
-6.4227 2.7693 -2.5012 0.9707
-6.5172 2.5387 -2.5012 0.9707
-6.6815 2.0682 -2.5012 0.9707
-6.7509 1.8288 -2.5012 0.9707
-6.8118 1.5872 -2.5012 0.9707
-6.9075 1.0981 -2.5012 0.9707
-6.9423 0.8513 -2.5012 0.9707
-6.9682 0.6034 -2.5012 0.9707
-6.9853 0.3548 -2.5012 0.9707
-6.9935 0.1057 -2.5012 0.9707
-6.9015 -1.1354 -2.5012 0.9707
-6.8567 -1.3805 -2.5012 0.9707
-6.8031 -1.6239 -2.5012 0.9707
1.2351 6.4089 -2.5012 0.9724
0.5442 6.5041 -2.5012 0.9724
0.3121 6.5193 -2.5012 0.9724
0.0797 6.5263 -2.5012 0.9724
-0.1529 6.5250 -2.5012 0.9724
-0.6171 6.4976 -2.5012 0.9724
-0.8482 6.4714 -2.5012 0.9724
-1.0782 6.4371 -2.5012 0.9724
-1.5339 6.3440 -2.5012 0.9724
-2.2020 6.1441 -2.5012 0.9724
-2.6339 5.9717 -2.5012 0.9724
-3.0525 5.7690 -2.5012 0.9724
-3.2560 5.6566 -2.5012 0.9724
-3.6506 5.4104 -2.5012 0.9724
-3.8410 5.2769 -2.5012 0.9724
-4.8732 4.3417 -2.5012 0.9724
-5.3086 3.7970 -2.5012 0.9724
-5.5655 3.4094 -2.5012 0.9724
-5.7942 3.0044 -2.5012 0.9724
-5.9934 2.5842 -2.5012 0.9724
-6.0817 2.3691 -2.5012 0.9724
-6.1622 2.1508 -2.5012 0.9724
-6.2997 1.7066 -2.5012 0.9724
-6.3565 1.4811 -2.5012 0.9724
-6.4053 1.2537 -2.5012 0.9724
-6.5025 0.5631 -2.5012 0.9724
-6.5184 0.3311 -2.5012 0.9724
-6.5261 0.0987 -2.5012 0.9724
-6.5254 -0.1339 -2.5012 0.9724
-6.4994 -0.5982 -2.5012 0.9724
-6.3485 -1.5154 -2.5012 0.9724
0.9419 6.0383 -2.5012 0.9739
0.2923 6.1042 -2.5012 0.9739
0.0746 6.1108 -2.5012 0.9739
-0.3607 6.1006 -2.5012 0.9739
-1.2237 5.9875 -2.5012 0.9739
-1.8555 5.8228 -2.5012 0.9739
-2.0618 5.7529 -2.5012 0.9739
-2.2654 5.6758 -2.5012 0.9739
-2.8581 5.4017 -2.5012 0.9739
-3.5965 4.9409 -2.5012 0.9739
-3.7702 4.8096 -2.5012 0.9739
-4.2619 4.3799 -2.5012 0.9739
-4.4152 4.2253 -2.5012 0.9739
-4.8408 3.7301 -2.5012 0.9739
-5.0942 3.3760 -2.5012 0.9739
-5.2112 3.1923 -2.5012 0.9739
-5.3216 3.0046 -2.5012 0.9739
-5.4253 2.8131 -2.5012 0.9739
-5.5221 2.6181 -2.5012 0.9739
-5.6945 2.2182 -2.5012 0.9739
-5.8380 1.8071 -2.5012 0.9739
-5.8987 1.5979 -2.5012 0.9739
-5.9519 1.3868 -2.5012 0.9739
-6.1034 0.3100 -2.5012 0.9739
-6.1017 -0.3429 -2.5012 0.9739
-6.0617 -0.7766 -2.5012 0.9739
-6.0302 -0.9920 -2.5012 0.9739
-5.9443 -1.4189 -2.5012 0.9739
1.0860 5.6354 -2.5012 0.9753
0.0701 5.7386 -2.5012 0.9753
-0.3388 5.7291 -2.5012 0.9753
-0.9481 5.6602 -2.5012 0.9753
-1.5466 5.5267 -2.5012 0.9753
-2.3163 5.2510 -2.5012 0.9753
-2.6841 5.0727 -2.5012 0.9753
-3.0385 4.8688 -2.5012 0.9753
-3.2100 4.7574 -2.5012 0.9753
-4.0023 4.1132 -2.5012 0.9753
-4.1463 3.9680 -2.5012 0.9753
-4.2851 3.8178 -2.5012 0.9753
-4.4184 3.6627 -2.5012 0.9753
-4.8939 2.9979 -2.5012 0.9753
-4.9975 2.8216 -2.5012 0.9753
-5.1858 2.4587 -2.5012 0.9753
-5.2701 2.2723 -2.5012 0.9753
-5.3477 2.0831 -2.5012 0.9753
-5.4825 1.6970 -2.5012 0.9753
-5.5394 1.5006 -2.5012 0.9753
-5.6322 1.1024 -2.5012 0.9753
-5.6679 0.9010 -2.5012 0.9753
-5.6964 0.6986 -2.5012 0.9753
-5.7177 0.4951 -2.5012 0.9753
-5.7317 0.2911 -2.5012 0.9753
-5.7379 -0.1178 -2.5012 0.9753
-5.6262 -1.1328 -2.5012 0.9753
-5.5823 -1.3325 -2.5012 0.9753
0.8328 5.3389 -2.5012 0.9765
0.6421 5.3652 -2.5012 0.9765
0.4505 5.3846 -2.5012 0.9765
0.2584 5.3973 -2.5012 0.9765
-0.5109 5.3793 -2.5012 0.9765
-1.0820 5.2940 -2.5012 0.9765
-1.4562 5.2035 -2.5012 0.9765
-1.6406 5.1484 -2.5012 0.9765
-1.8230 5.0866 -2.5012 0.9765
-2.0031 5.0185 -2.5012 0.9765
-2.3554 4.8631 -2.5012 0.9765
-2.5271 4.7761 -2.5012 0.9765
-2.6957 4.6830 -2.5012 0.9765
-2.8608 4.5840 -2.5012 0.9765
-3.0223 4.4792 -2.5012 0.9765
-3.1799 4.3687 -2.5012 0.9765
-3.6279 4.0045 -2.5012 0.9765
-3.7683 3.8727 -2.5012 0.9765
-4.0345 3.5945 -2.5012 0.9765
-4.1600 3.4485 -2.5012 0.9765
-4.3950 3.1435 -2.5012 0.9765
-4.7053 2.6567 -2.5012 0.9765
-4.7970 2.4873 -2.5012 0.9765
-4.8825 2.3148 -2.5012 0.9765
-4.9619 2.1394 -2.5012 0.9765
-5.0350 1.9613 -2.5012 0.9765
-5.2155 1.4129 -2.5012 0.9765
-5.3365 0.8483 -2.5012 0.9765
-5.3633 0.6577 -2.5012 0.9765
-5.3965 0.2741 -2.5012 0.9765
-5.4029 0.0816 -2.5012 0.9765
-5.3950 -0.3033 -2.5012 0.9765
-5.3808 -0.4953 -2.5012 0.9765
-5.3597 -0.6866 -2.5012 0.9765
-5.3318 -0.8771 -2.5012 0.9765
-5.2558 -1.2546 -2.5012 0.9765
0.9649 5.0069 -2.5012 0.9775
0.6059 5.0629 -2.5012 0.9775
0.0622 5.0986 -2.5012 0.9775
-0.1194 5.0976 -2.5012 0.9775
-0.4821 5.0762 -2.5012 0.9775
-0.8424 5.0290 -2.5012 0.9775
-1.0210 4.9957 -2.5012 0.9775
-1.1983 4.9562 -2.5012 0.9775
-1.3741 4.9104 -2.5012 0.9775
-1.7203 4.8000 -2.5012 0.9775
-1.8902 4.7357 -2.5012 0.9775
-2.2226 4.5891 -2.5012 0.9775
-2.5438 4.4192 -2.5012 0.9775
-2.6996 4.3258 -2.5012 0.9775
-2.8520 4.2268 -2.5012 0.9775
-3.1457 4.0130 -2.5012 0.9775
-3.5560 3.6544 -2.5012 0.9775
-3.9256 3.2542 -2.5012 0.9775
-4.2504 2.8167 -2.5012 0.9775
-4.3480 2.6635 -2.5012 0.9775
-4.4402 2.5069 -2.5012 0.9775
-4.7513 1.8508 -2.5012 0.9775
-4.8142 1.6804 -2.5012 0.9775
-4.8710 1.5078 -2.5012 0.9775
-5.0358 0.8005 -2.5012 0.9775
-5.0611 0.6206 -2.5012 0.9775
-5.0800 0.4399 -2.5012 0.9775
-5.0985 0.0771 -2.5012 0.9775
-5.0980 -0.1046 -2.5012 0.9775
-5.0910 -0.2862 -2.5012 0.9775
-5.0776 -0.4674 -2.5012 0.9775
-5.0577 -0.6480 -2.5012 0.9775
-4.9987 -1.0064 -2.5012 0.9775
-4.9597 -1.1839 -2.5012 0.9775
0.5729 4.7871 -2.5012 0.9785
-0.1129 4.8200 -2.5012 0.9785
-0.2846 4.8129 -2.5012 0.9785
-0.4559 4.7997 -2.5012 0.9785
-0.6266 4.7804 -2.5012 0.9785
-0.7965 4.7550 -2.5012 0.9785
-0.9654 4.7236 -2.5012 0.9785
-1.2993 4.6429 -2.5012 0.9785
-1.6266 4.5386 -2.5012 0.9785
-1.9456 4.4113 -2.5012 0.9785
-2.1016 4.3391 -2.5012 0.9785
-2.2548 4.2615 -2.5012 0.9785
-2.5526 4.0901 -2.5012 0.9785
-3.2370 3.5730 -2.5012 0.9785
-3.3623 3.4554 -2.5012 0.9785
-3.5998 3.2072 -2.5012 0.9785
-3.7118 3.0769 -2.5012 0.9785
-3.8190 2.9428 -2.5012 0.9785
-3.9215 2.8048 -2.5012 0.9785
-4.1112 2.5185 -2.5012 0.9785
-4.2801 2.2193 -2.5012 0.9785
-4.3565 2.0654 -2.5012 0.9785
-4.4273 1.9089 -2.5012 0.9785
-4.4925 1.7500 -2.5012 0.9785
-4.5520 1.5888 -2.5012 0.9785
-4.6057 1.4256 -2.5012 0.9785
-4.6955 1.0941 -2.5012 0.9785
-4.7615 0.7569 -2.5012 0.9785
-4.7855 0.5868 -2.5012 0.9785
-4.8033 0.4160 -2.5012 0.9785
-4.8151 0.2446 -2.5012 0.9785
-4.8208 0.0729 -2.5012 0.9785
-4.8203 -0.0989 -2.5012 0.9785
-4.8137 -0.2706 -2.5012 0.9785
-4.7822 -0.6127 -2.5012 0.9785
-4.7574 -0.7827 -2.5012 0.9785
-4.6896 -1.1194 -2.5012 0.9785
0.8642 4.4842 -2.5012 0.9794
0.5427 4.5343 -2.5012 0.9794
0.3807 4.5508 -2.5012 0.9794
0.0554 4.5438 -2.4889 0.9795
-0.1065 4.5429 -2.4889 0.9795
-0.4318 4.5462 -2.5012 0.9794
-0.5935 4.5279 -2.5012 0.9794
-1.0732 4.4387 -2.5012 0.9794
-1.2307 4.3977 -2.5012 0.9794
-1.3866 4.3511 -2.5012 0.9794
-1.8429 4.1783 -2.5012 0.9794
-1.9906 4.1100 -2.5012 0.9794
-2.2782 3.9578 -2.5012 0.9794
-2.4178 3.8741 -2.5012 0.9794
-2.5542 3.7855 -2.5012 0.9794
-2.9436 3.4914 -2.5012 0.9794
-3.0661 3.3843 -2.5012 0.9794
-3.1847 3.2729 -2.5012 0.9794
-3.2993 3.1574 -2.5012 0.9794
-3.7144 2.6567 -2.5012 0.9794
-4.1935 1.8081 -2.5012 0.9794
-4.2552 1.6576 -2.5012 0.9794
-4.3625 1.3503 -2.5012 0.9794
-4.4078 1.1941 -2.5012 0.9794
-4.4476 1.0363 -2.5012 0.9794
-4.5101 0.7170 -2.5012 0.9794
-4.5657 -0.0937 -2.5012 0.9794
-4.5595 -0.2563 -2.5012 0.9794
-4.4769 -0.9014 -2.5012 0.9794
-4.4419 -1.0603 -2.5012 0.9794
0.8198 4.2539 -2.5012 0.9802
0.3612 4.3171 -2.5012 0.9802
0.2061 4.3059 -2.4889 0.9803
0.0526 4.3105 -2.4889 0.9803
-0.1010 4.3096 -2.4889 0.9803
-0.2545 4.3033 -2.4889 0.9803
-0.4096 4.3127 -2.5012 0.9802
-0.7157 4.2726 -2.5012 0.9802
-0.8675 4.2444 -2.5012 0.9802
-1.1675 4.1719 -2.5012 0.9802
-1.3154 4.1277 -2.5012 0.9802
-1.7483 3.9637 -2.5012 0.9802
-1.8884 3.8989 -2.5012 0.9802
-2.4231 3.5912 -2.5012 0.9802
-2.5495 3.5025 -2.5012 0.9802
-2.6727 3.4095 -2.5012 0.9802
-2.7924 3.3121 -2.5012 0.9802
-2.9086 3.2105 -2.5012 0.9802
-3.2346 2.8819 -2.5012 0.9802
-3.4316 2.6442 -2.5012 0.9802
-3.8459 1.9942 -2.5012 0.9802
-3.9145 1.8559 -2.5012 0.9802
-3.9782 1.7152 -2.5012 0.9802
-4.0367 1.5724 -2.5012 0.9802
-4.0902 1.4276 -2.5012 0.9802
-4.1385 1.2810 -2.5012 0.9802
-4.1815 1.1328 -2.5012 0.9802
-4.2192 0.9831 -2.5012 0.9802
-4.2785 0.6801 -2.5012 0.9802
-4.3160 0.3737 -2.5012 0.9802
-4.3313 -0.0889 -2.5012 0.9802
-4.3254 -0.2431 -2.5012 0.9802
-4.2747 -0.7033 -2.5012 0.9802
-4.2138 -1.0059 -2.5012 0.9802
