ply
format ascii 1.0
element vertex 1011
property float32 x
property float32 y
property float32 z
property float32 I
end_header
9.5310 11.6864 2.6590 0.9406
7.6803 11.8344 2.4876 0.9443
5.9906 11.8768 2.3455 0.9474
5.4673 11.8900 2.3075 0.9482
4.9600 11.9027 2.2737 0.9490
3.9856 11.9272 2.2174 0.9502
3.0535 11.9506 2.1749 0.9511
2.5996 11.9620 2.1585 0.9515
1.7091 11.9844 2.1346 0.9520
1.2701 11.9954 2.1269 0.9522
0.3986 12.0173 2.1201 0.9523
-0.4719 12.0392 2.1245 0.9522
-1.3506 12.0613 2.1400 0.9519
-12.3614 41.0720 7.5630 0.8401
-12.2784 32.1633 6.0704 0.8695
-12.5191 19.0383 4.0177 0.9116
-12.6397 17.7858 3.8474 0.9152
-12.7267 14.3260 3.3789 0.9251
-14.4442 12.1608 3.3294 0.9262
-17.0774 12.3847 3.7197 0.9179
-21.7700 12.4342 4.4207 0.9032
-23.8345 12.4928 4.7450 0.8965
-35.5681 15.4778 6.8397 0.8542
9.5310 11.6864 2.3102 0.9408
7.6803 11.8344 2.1613 0.9445
7.0946 11.8491 2.1157 0.9456
5.4673 11.8900 2.0048 0.9484
3.3039 9.8871 1.5970 0.9587
2.1549 9.9159 1.5545 0.9598
1.7838 9.9253 1.5449 0.9600
1.4168 9.9345 1.5373 0.9602
0.3304 9.9618 1.5269 0.9605
-0.0300 9.9709 1.5275 0.9605
-0.7540 9.9890 1.5346 0.9603
-1.4887 10.0075 1.5500 0.9599
-11.8597 45.2776 7.1703 0.8275
-12.1948 31.9441 5.2381 0.8708
-12.2700 28.9529 4.8173 0.8805
-12.2671 26.2603 4.4402 0.8893
-12.8406 25.0806 4.3165 0.8922
-13.8589 24.8143 4.3541 0.8914
-12.5191 19.0383 3.4906 0.9119
-12.5850 16.4175 3.1690 0.9197
-12.6136 15.2773 3.0350 0.9230
-12.6400 14.2284 2.9156 0.9259
-12.6871 12.3544 2.7129 0.9308
-14.5618 12.2597 2.9161 0.9259
-19.9885 12.3961 3.6032 0.9092
-21.7700 12.4342 3.8407 0.9035
-23.9582 12.5576 4.1439 0.8963
-26.2831 12.5866 4.4643 0.8888
-29.0072 12.6228 4.8463 0.8798
-33.2805 9.0595 5.2839 0.8697
4.8861 10.6259 1.5230 0.9539
4.1053 10.9513 1.5230 0.9539
3.7067 11.0925 1.5230 0.9539
2.0688 11.5110 1.5230 0.9539
0.3877 11.6890 1.5230 0.9539
-0.4581 11.6865 1.5230 0.9539
-1.8626 10.0169 1.3268 0.9597
-11.8597 45.2776 6.0950 0.8280
-11.2669 26.5861 3.7601 0.8901
-14.9698 26.8035 3.9978 0.8835
-16.3476 26.9341 4.1029 0.8807
-12.5536 17.6646 2.8220 0.9163
-12.5850 16.4175 2.6938 0.9199
-12.6136 15.2773 2.5799 0.9232
-13.5072 12.2332 2.3731 0.9291
-14.5618 12.2597 2.4788 0.9261
-15.7163 12.2888 2.5980 0.9227
-16.9892 12.3208 2.7329 0.9188
-18.4035 12.3563 2.8866 0.9145
-19.9885 12.3961 3.0628 0.9095
-21.7700 12.4342 3.2647 0.9038
-23.9582 12.5576 3.5224 0.8966
-26.2831 12.5866 3.7948 0.8891
-33.2926 9.0628 4.4932 0.8701
8.4916 11.2167 1.5107 0.9450
8.1462 11.6102 1.5230 0.9445
7.0946 11.8491 1.4830 0.9460
5.9906 11.8768 1.4284 0.9479
4.9600 11.9027 1.3847 0.9494
3.9500 11.8208 1.3383 0.9511
3.0535 11.9506 1.3245 0.9516
2.5996 11.9620 1.3145 0.9519
2.1519 11.9733 1.3063 0.9522
1.7091 11.9844 1.2999 0.9525
1.2600 11.8996 1.2850 0.9530
-0.0359 11.9322 1.2813 0.9531
-0.4719 12.0392 1.2938 0.9527
-12.3614 41.0720 4.6058 0.8415
-12.5372 26.8384 3.1809 0.8877
-13.7562 26.8690 3.2414 0.8856
-15.0242 26.9009 3.3086 0.8834
-16.3046 26.8632 3.3744 0.8812
-12.5536 17.6646 2.3271 0.9165
-12.5850 16.4175 2.2213 0.9201
-12.6136 15.2773 2.1274 0.9234
-12.6871 12.3544 1.9016 0.9312
-13.5072 12.2332 1.9569 0.9293
-19.9885 12.3961 2.5257 0.9097
-21.7822 12.4412 2.6937 0.9040
-23.8345 12.4928 2.8897 0.8974
-28.9226 12.5860 3.3871 0.8808
-33.2926 9.0628 3.7051 0.8704
-33.3988 6.5426 3.6546 0.8720
8.1779 10.0272 1.0953 0.9494
7.6758 11.8274 1.1936 0.9450
7.0950 11.8497 1.1692 0.9461
5.4673 11.8900 1.1078 0.9488
4.4400 11.8441 1.0708 0.9505
3.0692 12.0120 1.0495 0.9514
2.5845 11.8925 1.0302 0.9523
0.3986 12.0173 1.0179 0.9529
-0.9096 12.0502 1.0230 0.9526
-2.2107 11.8891 1.0237 0.9526
-10.5926 24.9948 2.2980 0.8968
-12.5372 26.8384 2.5076 0.8879
-13.7064 26.7717 2.5461 0.8863
-14.9698 26.8035 2.5989 0.8841
-15.2603 25.1426 2.4898 0.8886
-12.5191 19.0383 1.9289 0.9126
-12.5536 17.6646 1.8345 0.9167
-12.5850 16.4175 1.7511 0.9203
-12.6644 13.2577 1.5521 0.9290
-12.1208 11.8030 1.4322 0.9343
-12.0832 10.1730 1.3371 0.9386
-15.4290 12.0641 1.6580 0.9244
-15.8551 11.4983 1.6580 0.9244
-16.6447 10.3224 1.6580 0.9244
-23.8345 12.4928 2.2780 0.8976
-29.0072 12.6228 2.6780 0.8807
8.8599 11.7032 0.9102 0.9429
4.9600 11.9027 0.7996 0.9496
3.9500 11.8208 0.7729 0.9513
2.5845 11.8925 0.7547 0.9524
2.1519 11.9733 0.7544 0.9524
1.7091 11.9844 0.7507 0.9526
1.2701 11.9954 0.7480 0.9528
0.8337 12.0064 0.7463 0.9529
0.3986 12.0173 0.7456 0.9530
-1.3378 11.9474 0.7455 0.9530
-2.6327 11.7724 0.7480 0.9528
-14.0141 41.1135 2.6935 0.8402
-11.7057 25.0584 1.7151 0.8951
-12.5015 17.5912 1.3382 0.9171
-12.6136 15.2774 1.2285 0.9237
-12.7267 14.3260 1.1883 0.9261
-11.5306 12.0707 1.0351 0.9353
-11.5466 11.2438 0.9994 0.9375
-11.5089 10.4235 0.9629 0.9397
-15.7163 12.2888 1.2371 0.9232
-18.4035 12.3563 1.3746 0.9150
-19.9885 12.3961 1.4585 0.9100
-21.7822 12.4412 1.5555 0.9044
-23.6813 12.4125 1.6580 0.8984
-22.3658 10.7106 1.5377 0.9054
-24.5164 10.6686 1.6580 0.8984
-33.2926 9.0628 2.1396 0.8709
8.1779 10.0272 0.5102 0.9495
8.8599 11.7032 0.5788 0.9429
7.6758 11.8274 0.5560 0.9451
7.1007 11.8594 0.5450 0.9462
5.9906 11.8768 0.5245 0.9481
4.9600 11.9027 0.5085 0.9497
4.4400 11.8441 0.4988 0.9506
3.9500 11.8208 0.4914 0.9513
2.8504 9.6814 0.3979 0.9604
2.5845 11.8925 0.4799 0.9524
1.7091 11.9844 0.4773 0.9527
1.2701 11.9954 0.4756 0.9529
0.8337 12.0064 0.4746 0.9530
0.3986 12.0173 0.4741 0.9530
-0.0362 12.0283 0.4743 0.9530
-0.4719 12.0392 0.4751 0.9529
-3.0511 11.6485 0.4748 0.9529
-3.1480 10.4596 0.4307 0.9572
-12.1948 31.9441 1.3483 0.8721
-10.5926 24.9948 1.0704 0.8970
-11.7057 25.0584 1.0906 0.8952
-12.5191 19.0383 0.8985 0.9128
-12.5850 16.4175 0.8157 0.9205
-12.6136 15.2774 0.7812 0.9238
-12.7267 14.3260 0.7556 0.9262
-13.5072 12.2332 0.7186 0.9296
-15.7163 12.2888 0.7867 0.9232
-17.0774 12.3847 0.8318 0.9190
-18.4035 12.3563 0.8741 0.9151
-19.9885 12.3961 0.9274 0.9101
-21.7750 12.4371 0.9888 0.9045
-23.8435 12.4975 1.0615 0.8978
-28.9226 12.5860 1.2438 0.8814
8.1779 10.0272 0.2186 0.9496
8.8599 11.7032 0.2479 0.9430
8.2204 11.7158 0.2418 0.9444
7.1036 11.8642 0.2336 0.9462
6.5376 11.8730 0.2290 0.9472
4.9600 11.9027 0.2178 0.9497
3.9500 11.8208 0.2105 0.9514
2.8501 9.6806 0.1705 0.9604
3.0692 12.0120 0.2094 0.9516
2.5845 11.8925 0.2056 0.9525
1.7091 11.9844 0.2045 0.9527
0.8337 12.0064 0.2033 0.9530
0.3986 12.0173 0.2031 0.9530
-0.9096 12.0502 0.2041 0.9528
-3.2184 21.6350 0.3695 0.9162
-4.0214 21.6269 0.3716 0.9158
-4.8346 21.6186 0.3742 0.9152
-3.5252 10.3419 0.1846 0.9572
-9.1432 21.5747 0.3958 0.9105
-10.0739 21.5653 0.4021 0.9092
-12.0331 21.5453 0.4169 0.9060
-13.0705 21.5348 0.4255 0.9041
-12.5191 19.0383 0.3849 0.9129
-12.6397 17.7858 0.3686 0.9164
-12.5850 16.4175 0.3494 0.9206
-12.6136 15.2773 0.3347 0.9238
-10.7541 12.1055 0.2735 0.9373
-12.6644 13.2577 0.3097 0.9293
-12.6871 12.3544 0.2991 0.9316
-13.5072 12.2332 0.3078 0.9297
-15.7163 12.2888 0.3370 0.9233
-18.4035 12.3563 0.3744 0.9151
-21.7750 12.4371 0.4236 0.9045
-28.9226 12.5860 0.5328 0.8814
-33.8517 11.9027 0.6061 0.8663
8.1779 10.0272 -0.0729 0.9496
8.8599 11.7032 -0.0826 0.9430
8.2204 11.7158 -0.0806 0.9444
4.9600 11.9027 -0.0726 0.9497
4.4400 11.8441 -0.0712 0.9507
3.9500 11.8208 -0.0702 0.9514
2.8499 9.6797 -0.0568 0.9604
3.0692 12.0120 -0.0698 0.9516
2.5845 11.8925 -0.0685 0.9525
2.1519 11.9733 -0.0685 0.9525
0.8337 12.0064 -0.0678 0.9530
-0.4719 12.0392 -0.0678 0.9529
-4.8346 21.6186 -0.1247 0.9152
-5.3408 20.3901 -0.1187 0.9191
-9.1432 21.5748 -0.1319 0.9105
-10.0739 21.5653 -0.1340 0.9092
-13.0705 21.5348 -0.1418 0.9041
-12.5191 19.0383 -0.1283 0.9129
-12.5850 16.4175 -0.1165 0.9206
-10.7541 12.1055 -0.0912 0.9373
-12.6644 13.2577 -0.1032 0.9293
-12.5158 12.1876 -0.0984 0.9325
-13.3981 12.1345 -0.1018 0.9302
-14.4442 12.1608 -0.1063 0.9273
-18.4035 12.3563 -0.1248 0.9151
-19.9885 12.3961 -0.1324 0.9102
-18.5513 10.5958 -0.1203 0.9181
-32.0868 12.6035 -0.1940 0.8712
8.3968 11.0915 -0.3917 0.9459
8.2204 11.7158 -0.4030 0.9443
6.5420 11.8810 -0.3819 0.9472
4.6653 10.1459 -0.3144 0.9563
4.9600 11.9027 -0.3631 0.9497
4.4667 11.9151 -0.3583 0.9504
2.6056 10.1977 -0.2964 0.9588
2.5996 11.9620 -0.3447 0.9522
1.0838 10.2359 -0.2898 0.9596
0.8337 12.0064 -0.3389 0.9530
0.3401 10.2546 -0.2889 0.9598
-0.0362 12.0283 -0.3387 0.9530
-0.4719 12.0392 -0.3393 0.9529
-1.3378 11.9474 -0.3385 0.9530
-1.5293 10.2801 -0.2926 0.9593
-4.0214 21.6270 -0.6194 0.9157
-4.8346 21.6187 -0.6238 0.9152
-5.9211 19.6734 -0.5785 0.9211
-6.7075 19.6780 -0.5854 0.9202
-7.5139 19.6826 -0.5932 0.9192
-10.0740 21.5653 -0.6702 0.9091
-11.0359 21.5556 -0.6819 0.9076
-12.5191 19.0383 -0.6416 0.9129
-12.6136 15.2773 -0.5579 0.9238
-10.7541 12.1055 -0.4559 0.9373
-12.6644 13.2577 -0.5163 0.9293
-12.6871 12.3544 -0.4986 0.9316
-13.5072 12.2332 -0.5131 0.9297
-13.4115 10.4866 -0.4794 0.9341
-14.4940 10.5113 -0.5041 0.9309
-18.4035 12.3563 -0.6242 0.9151
-19.9885 12.3961 -0.6623 0.9102
-18.5513 10.5958 -0.6016 0.9181
-23.8427 12.4971 -0.7580 0.8979
-24.6437 10.7240 -0.7568 0.8980
8.3968 11.0915 -0.7055 0.9458
7.6749 11.8260 -0.7150 0.9451
7.1004 11.8587 -0.7010 0.9461
4.4667 11.9151 -0.6453 0.9503
2.8494 9.6781 -0.5116 0.9604
2.6056 10.1977 -0.5338 0.9587
2.5996 11.9620 -0.6208 0.9522
1.4584 10.2265 -0.5239 0.9595
1.0838 10.2359 -0.5220 0.9596
0.8337 12.0064 -0.6104 0.9529
0.3401 10.2546 -0.5203 0.9597
-0.4719 12.0392 -0.6110 0.9529
-0.9096 12.0502 -0.6129 0.9528
-1.3378 11.9474 -0.6097 0.9530
-1.5347 10.3164 -0.5289 0.9591
-4.0214 21.6270 -1.1156 0.9157
-6.4616 18.9565 -1.0157 0.9229
-11.0359 21.5556 -1.2281 0.9076
-12.5191 19.0383 -1.1556 0.9128
-12.5536 17.6646 -1.0990 0.9169
-12.5850 16.4175 -1.0491 0.9205
-12.6136 15.2773 -1.0047 0.9237
-10.7541 12.1055 -0.8212 0.9372
-13.4273 11.3046 -0.8902 0.9321
-14.3893 10.4353 -0.9014 0.9313
-16.9297 10.4991 -1.0103 0.9233
-18.4489 10.5373 -1.0775 0.9184
-22.2008 10.6316 -1.2483 0.9061
-30.8552 10.8491 -1.6587 0.8772
-47.0947 14.6685 -2.5015 0.8207
-48.0316 11.2265 -2.5015 0.8207
7.6061 10.0471 -0.9240 0.9507
7.0949 11.8496 -1.0127 0.9461
5.9906 11.8768 -0.9753 0.9480
4.6653 10.1459 -0.8188 0.9562
4.9600 11.9027 -0.9455 0.9496
4.4667 11.9151 -0.9330 0.9502
3.9500 11.8208 -0.9138 0.9512
2.8491 9.6772 -0.7397 0.9603
1.4584 10.2265 -0.7574 0.9594
1.0838 10.2359 -0.7547 0.9596
-0.0362 12.0283 -0.8819 0.9529
-0.9096 12.0502 -0.8861 0.9527
-2.2250 11.9659 -0.8924 0.9524
-4.8346 21.6187 -1.6243 0.9150
-5.5593 18.4713 -1.4144 0.9256
-12.5191 19.0383 -1.6707 0.9127
-12.5536 17.6646 -1.5890 0.9168
-10.7541 12.1055 -1.1873 0.9371
-12.4628 10.4926 -1.1945 0.9367
-14.3893 10.4353 -1.3033 0.9312
-15.5872 10.4654 -1.3766 0.9275
-18.4489 10.5373 -1.5578 0.9183
-20.1870 10.5810 -1.6712 0.9126
-24.5682 10.6911 -1.9646 0.8981
-28.8759 10.1531 -2.2443 0.8845
-30.5892 9.5275 -2.3491 0.8794
-30.9137 8.4152 -2.3491 0.8794
-33.2217 7.7650 -2.5015 0.8721
-33.8672 4.1218 -2.5015 0.8721
-33.9941 2.8945 -2.5015 0.8721
-34.0766 1.6634 -2.5015 0.8721
6.5180 10.0434 -1.1495 0.9530
5.0841 10.0795 -1.0838 0.9556
4.6399 10.0906 -1.0663 0.9564
3.3824 10.1222 -1.0246 0.9580
2.8489 9.6764 -0.9684 0.9603
2.6415 10.3382 -1.0244 0.9580
2.2129 10.1826 -1.0004 0.9590
1.0812 10.2110 -0.9858 0.9596
0.7097 10.2204 -0.9836 0.9597
-0.7743 10.2577 -0.9876 0.9595
-1.1497 10.2671 -0.9919 0.9593
-1.5347 10.3164 -1.0013 0.9590
-2.2300 11.9927 -1.1711 0.9522
-2.3033 10.2995 -1.0132 0.9585
-5.0478 19.2713 -1.9126 0.9231
-5.3422 17.7501 -1.7796 0.9282
-6.0517 17.7541 -1.8008 0.9274
-7.5276 17.7627 -1.8521 0.9254
-8.2997 17.7671 -1.8827 0.9242
-10.6926 20.8851 -2.2526 0.9100
-11.4384 20.4804 -2.2521 0.9100
-12.1696 20.0504 -2.2518 0.9101
-12.5536 17.6646 -2.0805 0.9166
-12.5850 16.4175 -1.9860 0.9202
-12.6644 13.2577 -1.7602 0.9290
-11.8526 11.5419 -1.5883 0.9357
-11.5394 10.4510 -1.4947 0.9394
-12.3370 10.3867 -1.5483 0.9373
-14.3893 10.4353 -1.7065 0.9311
-20.1870 10.5810 -2.1881 0.9125
-22.4367 9.7635 -2.3491 0.9064
-23.3634 8.2148 -2.3776 0.9053
-24.8776 7.7485 -2.5015 0.9006
-25.1415 6.8439 -2.5015 0.9006
-25.3725 5.9304 -2.5015 0.9006
-25.5704 5.0090 -2.5015 0.9006
-25.8655 3.1479 -2.5015 0.9006
-25.9624 2.2106 -2.5015 0.9006
7.5831 10.0167 -1.4923 0.9507
4.2094 10.1015 -1.2999 0.9569
3.3824 10.1222 -1.2677 0.9579
2.8486 9.6756 -1.1981 0.9602
2.5914 10.1421 -1.2434 0.9587
1.8262 10.1613 -1.2264 0.9593
1.0779 10.1802 -1.2160 0.9596
0.3383 10.1987 -1.2121 0.9597
-0.0307 10.2080 -1.2126 0.9597
-1.1462 10.2361 -1.2235 0.9594
-4.1874 18.7248 -2.2792 0.9256
-5.1975 17.2692 -2.1422 0.9299
-7.3237 17.2815 -2.2295 0.9272
-8.1014 17.3426 -2.2737 0.9258
-9.3298 16.7051 -2.2728 0.9258
-11.6385 15.1828 -2.2724 0.9258
-11.5394 10.4510 -1.8493 0.9392
-13.3112 10.4082 -2.0072 0.9342
-14.3893 10.4353 -2.1114 0.9309
-16.4171 10.1813 -2.2947 0.9251
-17.5160 9.1809 -2.3491 0.9234
-17.8365 8.5416 -2.3491 0.9234
-18.8504 8.2029 -2.4420 0.9205
-19.6013 7.6992 -2.5015 0.9187
-19.8669 6.9855 -2.5015 0.9187
-20.3198 5.5313 -2.5015 0.9187
-20.7993 3.2985 -2.5015 0.9187
-20.9833 1.7866 -2.5015 0.9187
-21.0342 1.0267 -2.5015 0.9187
8.1575 10.0022 -1.8288 0.9492
7.5831 10.0167 -1.7801 0.9505
7.0378 10.0304 -1.7361 0.9517
6.5180 10.0434 -1.6965 0.9528
6.0209 10.0559 -1.6607 0.9538
5.5437 10.0679 -1.6285 0.9546
3.3824 10.1222 -1.5122 0.9578
2.8484 9.6747 -1.4290 0.9601
2.2062 10.1518 -1.4720 0.9589
1.4505 10.1708 -1.4557 0.9593
1.0779 10.1802 -1.4505 0.9595
0.7075 10.1895 -1.4472 0.9596
0.3383 10.1987 -1.4458 0.9596
-1.1462 10.2361 -1.4594 0.9592
-1.5245 10.2481 -1.4680 0.9590
-3.5312 15.7902 -2.2926 0.9367
-4.0980 15.6453 -2.2916 0.9368
-5.2141 15.2967 -2.2898 0.9368
-5.7620 15.0934 -2.2891 0.9368
-7.3574 14.3707 -2.2875 0.9369
-9.8190 12.8093 -2.2868 0.9369
-10.2765 12.4467 -2.2870 0.9369
-10.7210 12.0683 -2.2872 0.9369
-11.1521 11.6746 -2.2876 0.9369
-11.5693 11.2659 -2.2880 0.9368
-12.3596 10.4057 -2.2892 0.9368
-13.0275 10.1863 -2.3431 0.9354
-13.4216 9.7335 -2.3491 0.9352
-13.7648 9.2418 -2.3491 0.9352
-15.6294 8.1921 -2.5003 0.9312
-16.6555 5.8563 -2.5015 0.9312
-17.1918 4.0182 -2.5015 0.9312
-17.3258 3.3940 -2.5015 0.9312
-17.5258 2.1329 -2.5015 0.9312
-17.6341 0.8608 -2.5015 0.9312
8.1575 10.0022 -2.1263 0.9490
6.5180 10.0434 -1.9724 0.9526
5.5437 10.0679 -1.8934 0.9545
5.0841 10.0795 -1.8598 0.9553
4.6399 10.0906 -1.8296 0.9560
3.7907 10.1120 -1.7790 0.9572
3.3824 10.1222 -1.7582 0.9577
2.8224 9.5863 -1.6463 0.9603
0.3383 10.1987 -1.6811 0.9595
-0.0307 10.2080 -1.6817 0.9595
-0.4005 10.2173 -1.6845 0.9594
-1.1462 10.2361 -1.6968 0.9591
-1.9074 10.2581 -1.7189 0.9586
-2.2964 10.2687 -1.7334 0.9582
-3.5399 13.5147 -2.3015 0.9449
-4.5045 13.2149 -2.3000 0.9450
-4.9780 13.0398 -2.2994 0.9450
-5.4450 12.8483 -2.2988 0.9450
-5.9048 12.6404 -2.2984 0.9450
-6.8009 12.1771 -2.2977 0.9450
-7.2362 11.9222 -2.2975 0.9450
-7.6621 11.6521 -2.2974 0.9450
-10.2162 9.9483 -2.3491 0.9438
-10.9085 9.1839 -2.3491 0.9438
-12.2221 8.2060 -2.4252 0.9421
-12.9047 8.0030 -2.5015 0.9403
-13.1857 7.5311 -2.5015 0.9403
-13.4494 7.0494 -2.5015 0.9403
-13.9236 6.0590 -2.5015 0.9403
-14.1336 5.5516 -2.5015 0.9403
-14.6517 3.9884 -2.5015 0.9403
-14.9974 2.3783 -2.5015 0.9403
-15.0736 1.8345 -2.5015 0.9403
-15.1668 0.7403 -2.5015 0.9403
7.0378 10.0304 -2.3031 0.9514
6.0209 10.0559 -2.2030 0.9534
5.5437 10.0679 -2.1603 0.9543
5.0841 10.0795 -2.1219 0.9551
4.6399 10.0906 -2.0875 0.9558
2.2062 10.1518 -1.9527 0.9586
1.8262 10.1613 -1.9405 0.9589
1.4505 10.1708 -1.9311 0.9590
1.0779 10.1802 -1.9242 0.9592
0.7075 10.1895 -1.9198 0.9593
0.3383 10.1987 -1.9180 0.9593
-0.7720 10.2266 -1.9277 0.9591
-1.1462 10.2361 -1.9360 0.9589
-1.5245 10.2480 -1.9474 0.9587
-3.1140 10.3465 -2.0309 0.9570
-4.3779 11.4679 -2.3072 0.9513
-5.1933 11.1172 -2.3064 0.9513
-5.9816 10.7101 -2.3058 0.9513
-6.3645 10.4860 -2.3056 0.9513
-7.2399 10.1875 -2.3491 0.9504
-7.9572 9.6376 -2.3491 0.9504
-9.7532 8.2113 -2.3964 0.9494
-11.5566 6.6007 -2.5015 0.9473
-11.7877 6.1785 -2.5015 0.9473
-12.8415 3.4957 -2.5015 0.9473
-12.9595 3.0290 -2.5015 0.9473
-13.0606 2.5585 -2.5015 0.9473
-13.2114 1.6079 -2.5015 0.9473
-13.2609 1.1291 -2.5015 0.9473
-13.2930 0.6488 -2.5015 0.9473
7.0239 8.6123 -2.3491 0.9556
6.7079 8.8606 -2.3491 0.9556
6.3831 9.0973 -2.3491 0.9556
6.0500 9.3222 -2.3491 0.9556
2.8050 9.5272 -2.0993 0.9602
2.2062 10.1518 -2.1960 0.9584
0.7075 10.1895 -2.1590 0.9591
-0.0307 10.2080 -2.1578 0.9591
-1.9074 10.2581 -2.2055 0.9582
-3.9034 10.2248 -2.3135 0.9562
-4.3224 10.1993 -2.3415 0.9557
-6.1060 9.2856 -2.3491 0.9556
-6.4378 9.0588 -2.3491 0.9556
-6.7611 8.8201 -2.3491 0.9556
-7.0756 8.5698 -2.3491 0.9556
-7.3809 8.3083 -2.3491 0.9556
-9.0531 7.6219 -2.5015 0.9528
-9.3227 7.2896 -2.5015 0.9528
-9.5802 6.9477 -2.5015 0.9528
-9.8252 6.5967 -2.5015 0.9528
-10.4817 5.4939 -2.5015 0.9528
-10.6736 5.1113 -2.5015 0.9528
-10.8514 4.7221 -2.5015 0.9528
-11.1643 3.9255 -2.5015 0.9528
-11.4188 3.1084 -2.5015 0.9528
-11.8203 0.5770 -2.5015 0.9528
6.2132 8.2071 -2.4193 0.9586
5.4414 8.3844 -2.3491 0.9598
5.1346 8.5757 -2.3491 0.9598
4.8212 8.7557 -2.3491 0.9598
4.5014 8.9243 -2.3491 0.9598
3.5086 9.3593 -2.3491 0.9598
2.7801 9.4428 -2.3135 0.9604
2.1227 9.7673 -2.3491 0.9598
1.7681 9.8377 -2.3491 0.9598
1.4112 9.8952 -2.3491 0.9598
0.6924 9.9713 -2.3491 0.9598
-0.0301 9.9953 -2.3491 0.9598
-0.3915 9.9877 -2.3491 0.9598
-0.7524 9.9670 -2.3491 0.9598
-1.1123 9.9333 -2.3491 0.9598
-1.4707 9.8865 -2.3491 0.9598
-2.1814 9.7544 -2.3491 0.9598
-3.9001 9.2030 -2.3491 0.9598
-4.5551 8.8971 -2.3491 0.9598
-5.4917 8.3515 -2.3491 0.9598
-5.8391 8.2164 -2.3690 0.9594
-7.0690 7.9573 -2.5015 0.9572
-7.6256 7.4256 -2.5015 0.9572
-8.8368 5.9330 -2.5015 0.9572
-9.0455 5.6097 -2.5015 0.9572
-9.2427 5.2789 -2.5015 0.9572
-9.5998 4.5971 -2.5015 0.9572
-9.9069 3.8913 -2.5015 0.9572
-10.0412 3.5306 -2.5015 0.9572
-10.1623 3.1652 -2.5015 0.9572
-10.2701 2.7957 -2.5015 0.9572
-10.4453 2.0461 -2.5015 0.9572
-10.5658 1.2859 -2.5015 0.9572
-10.6054 0.9030 -2.5015 0.9572
-10.6311 0.5189 -2.5015 0.9572
5.5493 7.9089 -2.5015 0.9609
5.2596 8.1044 -2.5015 0.9609
4.5185 8.2060 -2.4255 0.9620
3.7904 8.2432 -2.3491 0.9632
3.4932 8.3827 -2.3513 0.9632
2.8755 8.6052 -2.3491 0.9632
2.5625 8.7035 -2.3491 0.9632
2.2461 8.7905 -2.3491 0.9632
1.9267 8.8660 -2.3491 0.9632
1.6049 8.9298 -2.3491 0.9632
1.2810 8.9820 -2.3491 0.9632
0.9554 9.0224 -2.3491 0.9632
0.3008 9.0679 -2.3491 0.9632
-0.3554 9.0659 -2.3491 0.9632
-1.3350 8.9742 -2.3491 0.9632
-1.9801 8.8542 -2.3491 0.9632
-2.9273 8.5877 -2.3491 0.9632
-3.2358 8.4762 -2.3491 0.9632
-3.5402 8.3537 -2.3491 0.9632
-4.2048 8.2127 -2.3889 0.9626
-5.3083 8.0726 -2.5015 0.9609
-5.5967 7.8754 -2.5015 0.9609
-5.8778 7.6678 -2.5015 0.9609
-6.9219 6.7404 -2.5015 0.9609
-7.1611 6.4857 -2.5015 0.9609
-8.9927 3.5322 -2.5015 0.9609
-9.4813 1.8573 -2.5015 0.9609
-9.6267 0.8197 -2.5015 0.9609
5.5849 6.8478 -2.5015 0.9639
5.3336 7.0452 -2.5015 0.9639
5.0754 7.2335 -2.5015 0.9639
4.8105 7.4123 -2.5015 0.9639
4.5393 7.5813 -2.5015 0.9639
3.0726 8.1962 -2.4780 0.9643
2.7407 8.2018 -2.4481 0.9647
2.4162 8.2066 -2.4218 0.9651
1.4770 8.2179 -2.3637 0.9659
0.8738 8.2520 -2.3491 0.9661
-0.0250 8.2981 -2.3491 0.9661
-0.3250 8.2917 -2.3491 0.9661
-0.9234 8.2466 -2.3491 0.9661
-1.2239 8.2270 -2.3546 0.9660
-1.5279 8.2170 -2.3660 0.9659
-1.8370 8.2139 -2.3827 0.9656
-2.1506 8.2102 -2.4027 0.9653
-4.8550 7.3832 -2.5015 0.9639
-5.3759 7.0130 -2.5015 0.9639
-6.1037 6.3896 -2.5015 0.9639
-6.3308 6.1648 -2.5015 0.9639
-6.5495 5.9318 -2.5015 0.9639
-6.7598 5.6911 -2.5015 0.9639
-6.9611 5.4429 -2.5015 0.9639
-7.6731 4.3825 -2.5015 0.9639
-8.1025 3.5259 -2.5015 0.9639
-8.5262 2.3210 -2.5015 0.9639
-8.6045 2.0111 -2.5015 0.9639
-8.6716 1.6987 -2.5015 0.9639
-8.7274 1.3840 -2.5015 0.9639
-8.7717 1.0675 -2.5015 0.9639
-8.8259 0.4308 -2.5015 0.9639
4.9090 6.4844 -2.5015 0.9665
4.1780 6.9778 -2.5015 0.9665
3.3978 7.3893 -2.5015 0.9665
2.8549 7.6155 -2.5015 0.9665
2.5776 7.7137 -2.5015 0.9665
2.0134 7.8798 -2.5015 0.9665
1.4386 8.0047 -2.5015 0.9665
1.1483 8.0515 -2.5015 0.9665
0.5634 8.1135 -2.5015 0.9665
0.2696 8.1285 -2.5015 0.9665
-0.0245 8.1329 -2.5015 0.9665
-0.6122 8.1099 -2.5015 0.9665
-0.9050 8.0825 -2.5015 0.9665
-1.4868 7.9959 -2.5015 0.9665
-1.7749 7.9370 -2.5015 0.9665
-2.0608 7.8675 -2.5015 0.9665
-2.3439 7.7879 -2.5015 0.9665
-3.1735 7.4883 -2.5015 0.9665
-3.7064 7.2394 -2.5015 0.9665
-4.2199 6.9526 -2.5015 0.9665
-4.4685 6.7954 -2.5015 0.9665
-4.7113 6.6294 -2.5015 0.9665
-4.9479 6.4547 -2.5015 0.9665
-5.1781 6.2716 -2.5015 0.9665
-5.6178 5.8810 -2.5015 0.9665
-6.0281 5.4596 -2.5015 0.9665
-6.5839 4.7747 -2.5015 0.9665
-6.9118 4.2864 -2.5015 0.9665
-7.4575 3.2452 -2.5015 0.9665
-7.6725 2.6978 -2.5015 0.9665
-7.8475 2.1362 -2.5015 0.9665
-8.0326 1.2738 -2.5015 0.9665
-8.1233 0.3965 -2.5015 0.9665
4.5424 6.0001 -2.5015 0.9688
3.3892 6.7192 -2.5015 0.9688
2.8947 6.9465 -2.5015 0.9688
2.3851 7.1376 -2.5015 0.9688
1.0625 7.4502 -2.5015 0.9688
-0.0226 7.5255 -2.5015 0.9688
-0.2947 7.5198 -2.5015 0.9688
-0.5665 7.5042 -2.5015 0.9688
-1.1073 7.4436 -2.5015 0.9688
-1.3758 7.3987 -2.5015 0.9688
-1.6424 7.3441 -2.5015 0.9688
-2.4280 7.1231 -2.5015 0.9688
-2.6840 7.0306 -2.5015 0.9688
-3.1851 6.8183 -2.5015 0.9688
-3.6695 6.5703 -2.5015 0.9688
-3.9047 6.4333 -2.5015 0.9688
-4.1347 6.2879 -2.5015 0.9688
-4.3594 6.1343 -2.5015 0.9688
-4.5784 5.9726 -2.5015 0.9688
-4.7913 5.8031 -2.5015 0.9688
-5.1982 5.4417 -2.5015 0.9688
-5.3914 5.2502 -2.5015 0.9688
-5.7569 4.8468 -2.5015 0.9688
-6.0922 4.4181 -2.5015 0.9688
-6.2479 4.1949 -2.5015 0.9688
-6.5348 3.7324 -2.5015 0.9688
-6.6655 3.4937 -2.5015 0.9688
-6.7874 3.2504 -2.5015 0.9688
-7.3281 1.7128 -2.5015 0.9688
-7.3852 1.4467 -2.5015 0.9688
-7.4327 1.1787 -2.5015 0.9688
-7.4984 0.6384 -2.5015 0.9688
-7.5166 0.3669 -2.5015 0.9688
4.2223 5.5772 -2.5015 0.9707
3.1503 6.2456 -2.5015 0.9707
2.9224 6.3555 -2.5015 0.9707
2.6907 6.4570 -2.5015 0.9707
2.4555 6.5501 -2.5015 0.9707
1.9757 6.7104 -2.5015 0.9707
1.7317 6.7774 -2.5015 0.9707
1.4855 6.8356 -2.5015 0.9707
0.9877 6.9251 -2.5015 0.9707
0.7366 6.9563 -2.5015 0.9707
0.2319 6.9913 -2.5015 0.9707
-0.0210 6.9952 -2.5015 0.9707
-0.7784 6.9517 -2.5015 0.9707
-1.0293 6.9190 -2.5015 0.9707
-1.7725 6.7669 -2.5015 0.9707
-2.2569 6.6211 -2.5015 0.9707
-2.7295 6.4407 -2.5015 0.9707
-3.4109 6.1072 -2.5015 0.9707
-3.6295 5.9799 -2.5015 0.9707
-3.8434 5.8448 -2.5015 0.9707
-4.4537 5.3942 -2.5015 0.9707
-4.6465 5.2296 -2.5015 0.9707
-4.8319 5.0582 -2.5015 0.9707
-5.0116 4.8802 -2.5015 0.9707
-5.1848 4.6958 -2.5015 0.9707
-5.3512 4.5052 -2.5015 0.9707
-6.0742 3.4694 -2.5015 0.9707
-6.1957 3.2475 -2.5015 0.9707
-6.3091 3.0213 -2.5015 0.9707
-6.4142 2.7912 -2.5015 0.9707
-6.5109 2.5574 -2.5015 0.9707
-6.6788 2.0802 -2.5015 0.9707
-6.8116 1.5921 -2.5015 0.9707
-6.8647 1.3447 -2.5015 0.9707
-6.9089 1.0956 -2.5015 0.9707
-6.9440 0.8451 -2.5015 0.9707
-6.9700 0.5935 -2.5015 0.9707
3.9398 5.2045 -2.5015 0.9724
3.7493 5.3436 -2.5015 0.9724
3.5537 5.4756 -2.5015 0.9724
3.1486 5.7181 -2.5015 0.9724
2.9398 5.8282 -2.5015 0.9724
2.5109 6.0255 -2.5015 0.9724
1.3863 6.3788 -2.5015 0.9724
0.6874 6.4914 -2.5015 0.9724
0.4522 6.5120 -2.5015 0.9724
-0.2556 6.5227 -2.5015 0.9724
-0.7264 6.4871 -2.5015 0.9724
-0.9605 6.4567 -2.5015 0.9724
-1.6540 6.3147 -2.5015 0.9724
-1.8813 6.2507 -2.5015 0.9724
-2.3281 6.0984 -2.5015 0.9724
-2.9748 5.8105 -2.5015 0.9724
-3.1829 5.6991 -2.5015 0.9724
-3.7814 5.3209 -2.5015 0.9724
-3.9713 5.1807 -2.5015 0.9724
-4.1561 5.0337 -2.5015 0.9724
-4.3353 4.8801 -2.5015 0.9724
-4.5090 4.7202 -2.5015 0.9724
-4.6767 4.5541 -2.5015 0.9724
-5.2844 3.8322 -2.5015 0.9724
-5.4195 3.6387 -2.5015 0.9724
-5.5475 3.4403 -2.5015 0.9724
-5.6683 3.2375 -2.5015 0.9724
-5.8875 2.8194 -2.5015 0.9724
-5.9855 2.6046 -2.5015 0.9724
-6.0758 2.3865 -2.5015 0.9724
-6.1581 2.1652 -2.5015 0.9724
-6.3564 1.4857 -2.5015 0.9724
-6.4471 1.0224 -2.5015 0.9724
-6.4799 0.7886 -2.5015 0.9724
-6.5200 0.3182 -2.5015 0.9724
3.6892 4.8731 -2.5015 0.9739
3.5106 5.0033 -2.5015 0.9739
2.9482 5.3541 -2.5015 0.9739
2.7526 5.4572 -2.5015 0.9739
2.5535 5.5531 -2.5015 0.9739
2.3510 5.6419 -2.5015 0.9739
1.9371 5.7970 -2.5015 0.9739
1.5131 5.9218 -2.5015 0.9739
1.2980 5.9727 -2.5015 0.9739
0.6436 6.0781 -2.5015 0.9739
0.4234 6.0974 -2.5015 0.9739
-0.0184 6.1121 -2.5015 0.9739
-0.2394 6.1074 -2.5015 0.9739
-0.6802 6.0742 -2.5015 0.9739
-1.1173 6.0091 -2.5015 0.9739
-1.3339 5.9648 -2.5015 0.9739
-1.7615 5.8528 -2.5015 0.9739
-2.7854 5.4405 -2.5015 0.9739
-2.9803 5.3363 -2.5015 0.9739
-3.1719 5.2250 -2.5015 0.9739
-3.3582 5.1069 -2.5015 0.9739
-3.7185 4.8509 -2.5015 0.9739
-3.8915 4.7132 -2.5015 0.9739
-4.5303 4.1030 -2.5015 0.9739
-4.6757 3.9365 -2.5015 0.9739
-4.8149 3.7648 -2.5015 0.9739
-5.0745 3.4070 -2.5015 0.9739
-5.4136 2.8375 -2.5015 0.9739
-5.5126 2.6399 -2.5015 0.9739
-5.8356 1.8176 -2.5015 0.9739
-5.8975 1.6054 -2.5015 0.9739
-5.9517 1.3911 -2.5015 0.9739
-6.0367 0.9573 -2.5015 0.9739
-6.0674 0.7384 -2.5015 0.9739
-6.1049 0.2979 -2.5015 0.9739
3.4645 4.5763 -2.5015 0.9753
3.1248 4.8148 -2.5015 0.9753
2.2079 5.2982 -2.5015 0.9753
2.0148 5.3746 -2.5015 0.9753
1.4210 5.5612 -2.5015 0.9753
1.2189 5.6089 -2.5015 0.9753
1.0153 5.6493 -2.5015 0.9753
0.1903 5.7367 -2.5015 0.9753
-0.0173 5.7398 -2.5015 0.9753
-0.2248 5.7354 -2.5015 0.9753
-0.6387 5.7042 -2.5015 0.9753
-1.4544 5.5525 -2.5015 0.9753
-2.0471 5.3624 -2.5015 0.9753
-2.2397 5.2849 -2.5015 0.9753
-2.9782 4.9068 -2.5015 0.9753
-3.4920 4.5554 -2.5015 0.9753
-3.8121 4.2912 -2.5015 0.9753
-3.9648 4.1505 -2.5015 0.9753
-4.1123 4.0044 -2.5015 0.9753
-4.2544 3.8531 -2.5015 0.9753
-4.3909 3.6967 -2.5015 0.9753
-4.5217 3.5355 -2.5015 0.9753
-4.6466 3.3697 -2.5015 0.9753
-5.1769 2.4791 -2.5015 0.9753
-5.3425 2.0985 -2.5015 0.9753
-5.4149 1.9039 -2.5015 0.9753
-5.6978 0.6934 -2.5015 0.9753
-5.7331 0.2798 -2.5015 0.9753
3.1040 4.4239 -2.5015 0.9765
2.7762 4.6366 -2.5015 0.9765
2.6067 4.7340 -2.5015 0.9765
2.4338 4.8252 -2.5015 0.9765
2.2577 4.9100 -2.5015 0.9765
2.0787 4.9884 -2.5015 0.9765
1.8970 5.0603 -2.5015 0.9765
1.3377 5.2360 -2.5015 0.9765
0.9560 5.3190 -2.5015 0.9765
0.5691 5.3742 -2.5015 0.9765
0.3744 5.3912 -2.5015 0.9765
-0.0162 5.4041 -2.5015 0.9765
-0.2116 5.4001 -2.5015 0.9765
-0.4068 5.3889 -2.5015 0.9765
-0.6014 5.3706 -2.5015 0.9765
-0.9879 5.3131 -2.5015 0.9765
-1.1794 5.2739 -2.5015 0.9765
-1.7436 5.1152 -2.5015 0.9765
-2.1087 4.9758 -2.5015 0.9765
-2.2873 4.8963 -2.5015 0.9765
-2.4628 4.8104 -2.5015 0.9765
-2.8040 4.6198 -2.5015 0.9765
-2.9692 4.5154 -2.5015 0.9765
-3.1306 4.4051 -2.5015 0.9765
-3.2878 4.2890 -2.5015 0.9765
-3.4408 4.1674 -2.5015 0.9765
-3.5892 4.0402 -2.5015 0.9765
-3.7329 3.9078 -2.5015 0.9765
-3.8718 3.7702 -2.5015 0.9765
-4.1342 3.4806 -2.5015 0.9765
-4.3749 3.1727 -2.5015 0.9765
-4.4867 3.0124 -2.5015 0.9765
-4.5927 2.8482 -2.5015 0.9765
-4.6927 2.6803 -2.5015 0.9765
-4.8742 2.3341 -2.5015 0.9765
-4.9554 2.1564 -2.5015 0.9765
-5.0301 1.9758 -2.5015 0.9765
-5.1598 1.6071 -2.5015 0.9765
-5.2624 1.2299 -2.5015 0.9765
-5.3034 1.0388 -2.5015 0.9765
-5.3646 0.6529 -2.5015 0.9765
3.0782 4.0660 -2.5015 0.9775
2.9291 4.1746 -2.5015 0.9775
2.6197 4.3754 -2.5015 0.9775
2.4598 4.4672 -2.5015 0.9775
2.1305 4.6333 -2.5015 0.9775
1.9616 4.7074 -2.5015 0.9775
1.2625 4.9410 -2.5015 0.9775
1.0830 4.9834 -2.5015 0.9775
0.7200 5.0486 -2.5015 0.9775
-0.3839 5.0853 -2.5015 0.9775
-0.9323 5.0138 -2.5015 0.9775
-1.1130 4.9768 -2.5015 0.9775
-1.2922 4.9333 -2.5015 0.9775
-1.6454 4.8270 -2.5015 0.9775
-1.8188 4.7644 -2.5015 0.9775
-2.9542 4.1569 -2.5015 0.9775
-3.6536 3.5578 -2.5015 0.9775
-3.9012 3.2844 -2.5015 0.9775
-4.1284 2.9939 -2.5015 0.9775
-4.5169 2.3675 -2.5015 0.9775
-4.6762 2.0348 -2.5015 0.9775
-4.7467 1.8644 -2.5015 0.9775
-4.8110 1.6916 -2.5015 0.9775
-4.8690 1.5165 -2.5015 0.9775
-4.9207 1.3395 -2.5015 0.9775
-4.9659 1.1607 -2.5015 0.9775
-5.0046 0.9804 -2.5015 0.9775
-5.0368 0.7987 -2.5015 0.9775
-5.0624 0.6161 -2.5015 0.9775
-5.0937 0.2486 -2.5015 0.9775
3.0476 3.7367 -2.5015 0.9785
2.6250 4.0448 -2.5015 0.9785
2.4771 4.1371 -2.5015 0.9785
2.1716 4.3053 -2.5015 0.9785
1.6926 4.5151 -2.5015 0.9785
1.5282 4.5734 -2.5015 0.9785
1.1937 4.6719 -2.5015 0.9785
0.5077 4.7951 -2.5015 0.9785
0.1599 4.8193 -2.5015 0.9785
-0.3630 4.8082 -2.5015 0.9785
-0.7095 4.7694 -2.5015 0.9785
-1.0523 4.7057 -2.5015 0.9785
-1.2218 4.6646 -2.5015 0.9785
-1.3897 4.6174 -2.5015 0.9785
-1.5557 4.5641 -2.5015 0.9785
-1.8815 4.4397 -2.5015 0.9785
-2.0408 4.3688 -2.5015 0.9785
-2.6493 4.0289 -2.5015 0.9785
-2.7933 3.9305 -2.5015 0.9785
-3.3307 3.4868 -2.5015 0.9785
-3.5740 3.2369 -2.5015 0.9785
-3.9035 2.8308 -2.5015 0.9785
-4.0033 2.6879 -2.5015 0.9785
-4.0979 2.5413 -2.5015 0.9785
-4.1871 2.3915 -2.5015 0.9785
-4.2709 2.2385 -2.5015 0.9785
-4.4215 1.9240 -2.5015 0.9785
-4.6038 1.4339 -2.5015 0.9785
-4.6527 1.2665 -2.5015 0.9785
-4.6954 1.0974 -2.5015 0.9785
-4.7866 0.5825 -2.5015 0.9785
-4.8046 0.4090 -2.5015 0.9785
-4.8162 0.2351 -2.5015 0.9785
2.4864 3.8312 -2.5015 0.9794
2.0569 4.0779 -2.5015 0.9794
1.6032 4.2767 -2.5015 0.9794
1.2900 4.3814 -2.5015 0.9794
1.1307 4.4251 -2.5015 0.9794
0.8079 4.4953 -2.5015 0.9794
0.6448 4.5215 -2.5015 0.9794
0.4809 4.5419 -2.5015 0.9794
-0.1789 4.5638 -2.5015 0.9794
-0.3438 4.5543 -2.5015 0.9794
-0.5082 4.5389 -2.5015 0.9794
-0.6720 4.5176 -2.5015 0.9794
-0.8350 4.4903 -2.5015 0.9794
-1.1573 4.4183 -2.5015 0.9794
-1.3163 4.3735 -2.5015 0.9794
-2.3698 3.9044 -2.5015 0.9794
-2.5094 3.8161 -2.5015 0.9794
-2.6458 3.7229 -2.5015 0.9794
-2.7787 3.6248 -2.5015 0.9794
-3.0334 3.4145 -2.5015 0.9794
-3.4939 2.9415 -2.5015 0.9794
-3.5980 2.8133 -2.5015 0.9794
-3.7919 2.5459 -2.5015 0.9794
-3.8815 2.4071 -2.5015 0.9794
-4.1193 1.9727 -2.5015 0.9794
-4.1880 1.8224 -2.5015 0.9794
-4.3087 1.5150 -2.5015 0.9794
-4.3607 1.3582 -2.5015 0.9794
-4.4069 1.1996 -2.5015 0.9794
-4.5109 0.7154 -2.5015 0.9794
-4.5339 0.5518 -2.5015 0.9794
-4.5619 0.2227 -2.5015 0.9794
2.7384 3.3577 -2.5015 0.9802
2.6152 3.4545 -2.5015 0.9802
2.4886 3.5468 -2.5015 0.9802
2.3587 3.6345 -2.5015 0.9802
2.0899 3.7954 -2.5015 0.9802
1.8101 3.9365 -2.5015 0.9802
1.6666 3.9994 -2.5015 0.9802
1.5209 4.0571 -2.5015 0.9802
1.3732 4.1094 -2.5015 0.9802
1.2237 4.1564 -2.5015 0.9802
1.0726 4.1979 -2.5015 0.9802
0.9201 4.2339 -2.5015 0.9802
0.6117 4.2894 -2.5015 0.9802
0.1429 4.3090 -2.4892 0.9803
-0.0130 4.3114 -2.4892 0.9803
-0.4821 4.3059 -2.5015 0.9802
-0.7921 4.2597 -2.5015 0.9802
-1.6906 3.9893 -2.5015 0.9802
-1.8338 3.9256 -2.5015 0.9802
-2.2481 3.7039 -2.5015 0.9802
-2.8776 3.2392 -2.5015 0.9802
-2.9928 3.1330 -2.5015 0.9802
-3.1042 3.0227 -2.5015 0.9802
-3.2114 2.9085 -2.5015 0.9802
-3.3145 2.7905 -2.5015 0.9802
-3.4132 2.6688 -2.5015 0.9802
-3.5075 2.5436 -2.5015 0.9802
-3.5972 2.4152 -2.5015 0.9802
-3.7623 2.1489 -2.5015 0.9802
-3.8376 2.0115 -2.5015 0.9802
-3.9078 1.8714 -2.5015 0.9802
-3.9729 1.7288 -2.5015 0.9802
-4.0328 1.5841 -2.5015 0.9802
-4.0875 1.4372 -2.5015 0.9802
-4.1807 1.1380 -2.5015 0.9802
