ply
format ascii 1.0
element vertex 1026
property float32 x
property float32 y
property float32 z
property float32 I
end_header
-41.7721 -24.3496 8.5256 0.8217
-38.6307 -24.4238 8.0588 0.8306
-35.6499 -24.3796 7.6154 0.8391
-36.1544 -26.6853 7.9234 0.8332
-33.4761 -26.6231 7.5418 0.8405
-27.2712 -23.3403 6.3293 0.8643
-26.9016 -26.6092 6.6719 0.8575
-26.6761 -28.3585 6.8650 0.8537
-27.1250 -33.3525 7.5803 0.8398
-25.5921 -33.8919 7.4884 0.8416
-25.3118 -36.1587 7.7826 0.8359
-23.3734 -36.0901 7.5816 0.8398
-21.6630 -36.2460 7.4456 0.8424
-17.6269 -38.3721 7.4458 0.8424
-13.5900 -40.6625 7.5597 0.8402
-10.4246 -40.7421 7.4153 0.8430
-8.8960 -40.8412 7.3702 0.8439
-4.2652 -29.7451 5.2985 0.8851
1.5608 -41.3771 7.3011 0.8452
7.5728 -41.1944 7.3854 0.8436
10.7422 -41.4042 7.5424 0.8405
13.2299 -39.1476 7.2863 0.8455
14.8366 -39.1880 7.3885 0.8435
17.1980 -37.1097 7.2119 0.8469
17.6323 -31.8188 6.4143 0.8626
24.6085 -32.3629 7.1688 0.8478
26.6388 -32.5310 7.4139 0.8430
16.9182 -17.8647 4.3384 0.9049
31.0409 -28.3747 7.4155 0.8430
16.9061 -14.3713 3.9125 0.9138
-33.7047 -35.8304 7.5359 0.8195
-27.0613 -30.9283 6.2957 0.8468
-27.2790 -38.9689 7.2871 0.8249
-7.5612 -18.1571 3.0131 0.9235
-4.5235 -42.3553 6.5255 0.8417
17.8531 -35.1466 6.0391 0.8525
23.0432 -41.5831 7.2830 0.8250
17.8960 -29.7170 5.3142 0.8690
17.9659 -27.5375 5.0370 0.8754
28.4326 -37.3920 7.1962 0.8269
16.9182 -17.8647 3.7692 0.9052
33.1575 -32.5778 7.1210 0.8285
16.9247 -15.4710 3.5128 0.9114
35.8844 -30.5039 7.2151 0.8265
38.9863 -28.5739 7.4048 0.8223
-41.3390 -16.6871 5.8053 0.8354
-27.2866 -23.3534 4.6770 0.8651
-26.9181 -24.7723 4.7638 0.8628
-27.1171 -35.9113 5.8599 0.8340
-7.5605 -18.1555 2.5610 0.9237
-4.3292 -24.0027 3.1761 0.9063
-4.6163 -32.1939 4.2352 0.8771
17.6788 -38.1470 5.4751 0.8440
16.9182 -17.8647 3.2040 0.9055
40.4216 -27.4441 6.3623 0.8211
40.6148 -25.4878 6.2441 0.8241
-27.0186 -30.8795 4.4060 0.8478
-27.2066 -38.8654 5.0944 0.8263
-7.5599 -18.1539 2.1117 0.9239
-4.5339 -42.4526 4.5845 0.8422
-4.2849 -23.7572 2.0436 0.9076
18.0807 -43.0108 3.9496 0.8292
16.9182 -17.8647 2.0828 0.9060
-27.1474 -23.2344 2.2158 0.8666
-7.5586 -18.1508 1.2192 0.9242
-5.1229 -23.5189 1.4926 0.9080
-4.2459 -23.5409 1.4833 0.9086
-3.5356 -24.6573 1.5447 0.9050
17.6722 -25.0658 1.9018 0.8843
18.4834 -24.3077 1.8936 0.8848
-26.1948 -24.1066 1.4037 0.8672
-26.8258 -41.4208 1.9459 0.8207
-7.5579 -18.1492 0.7752 0.9243
-4.2459 -23.5409 0.9432 0.9087
-4.4809 -41.9566 1.6638 0.8446
18.3318 -24.1084 1.1942 0.8858
-26.1996 -24.1111 0.6015 0.8672
-26.8094 -41.3954 0.8331 0.8209
-7.5573 -18.1477 0.3321 0.9244
-5.1229 -23.5189 0.4066 0.9082
-4.2459 -23.5409 0.4041 0.9087
-4.4809 -41.9566 0.7128 0.8447
18.3318 -24.1084 0.5116 0.8859
-43.4974 -17.5584 -0.2641 0.8289
-39.3368 -17.5520 -0.2425 0.8417
-27.7183 -17.5245 -0.1846 0.8771
-25.6114 -17.5146 -0.1747 0.8833
-19.0187 -17.5026 -0.1455 0.9018
-17.6897 -17.4974 -0.1401 0.9053
-16.4548 -17.4926 -0.1352 0.9084
-15.3134 -17.5016 -0.1309 0.9112
-13.2095 -17.4934 -0.1234 0.9161
-11.3247 -17.4860 -0.1173 0.9200
-9.6120 -17.4837 -0.1123 0.9233
-8.8062 -17.4813 -0.1102 0.9247
-8.0293 -17.4789 -0.1083 0.9259
-6.5489 -17.4745 -0.1051 0.9281
-5.1462 -17.4670 -0.1025 0.9298
-3.1495 -17.4618 -0.0999 0.9315
0.0293 -17.4536 -0.0983 0.9326
0.6582 -17.4479 -0.0983 0.9325
1.2886 -17.4466 -0.0985 0.9324
2.5611 -17.4440 -0.0993 0.9319
3.2065 -17.4427 -0.0999 0.9315
4.5248 -17.4399 -0.1014 0.9305
5.8947 -17.4426 -0.1037 0.9290
8.8549 -17.4321 -0.1101 0.9248
9.6584 -17.4293 -0.1122 0.9234
13.2482 -17.4227 -0.1232 0.9162
14.2642 -17.4192 -0.1268 0.9139
39.6192 -29.0377 -0.2766 0.8216
39.6826 -26.9424 -0.2700 0.8254
39.7969 -23.0197 -0.2588 0.8320
-39.3360 -17.5516 -1.2129 0.8417
-35.7917 -17.5422 -1.1224 0.8526
-32.7360 -17.5341 -1.0457 0.8619
-30.0725 -17.5297 -0.9801 0.8700
-27.7175 -17.5241 -0.9234 0.8770
-20.4577 -17.5088 -0.7582 0.8979
-19.0194 -17.5033 -0.7278 0.9017
-13.2089 -17.4927 -0.6172 0.9160
-11.3242 -17.4854 -0.5866 0.9200
-8.8058 -17.4806 -0.5511 0.9247
-5.1462 -17.4670 -0.5127 0.9297
-2.5036 -17.4601 -0.4967 0.9319
-1.8645 -17.4585 -0.4944 0.9322
-1.2305 -17.4569 -0.4928 0.9324
1.9224 -17.4457 -0.4942 0.9322
3.2066 -17.4430 -0.4994 0.9315
3.8605 -17.4417 -0.5030 0.9310
5.8948 -17.4429 -0.5184 0.9290
6.6030 -17.4404 -0.5251 0.9281
7.3305 -17.4379 -0.5326 0.9271
8.8550 -17.4325 -0.5506 0.9247
9.6586 -17.4297 -0.5611 0.9234
11.3712 -17.4294 -0.5860 0.9201
15.3418 -17.4157 -0.6535 0.9113
16.4894 -17.4118 -0.6752 0.9085
39.7416 -24.9399 -1.3211 0.8288
39.7976 -23.0201 -1.2946 0.8320
-49.3229 0.6219 -2.5016 0.8207
-49.3133 -1.1550 -2.5016 0.8207
-48.9011 -6.4674 -2.5016 0.8207
-47.4655 -13.4225 -2.5016 0.8207
-39.3351 -17.5512 -2.1844 0.8415
-32.7380 -17.5352 -1.8834 0.8618
-27.7168 -17.5236 -1.6630 0.8769
-22.0153 -17.5084 -1.4265 0.8935
-20.4585 -17.5096 -1.3657 0.8978
-19.0202 -17.5039 -1.3109 0.9017
-17.6910 -17.4987 -1.2619 0.9051
-16.4560 -17.4939 -1.2180 0.9083
-13.2084 -17.4920 -1.1116 0.9160
-10.4498 -17.4847 -1.0330 0.9217
-9.6112 -17.4822 -1.0118 0.9232
-5.1462 -17.4671 -0.9235 0.9297
-4.4688 -17.4653 -0.9143 0.9303
-3.8039 -17.4636 -0.9064 0.9309
-3.1495 -17.4619 -0.8999 0.9314
-2.5036 -17.4602 -0.8945 0.9318
-0.5997 -17.4552 -0.8858 0.9324
0.6582 -17.4487 -0.8855 0.9325
4.5250 -17.4407 -0.9138 0.9304
5.2018 -17.4393 -0.9229 0.9297
5.8949 -17.4433 -0.9338 0.9289
6.6031 -17.4408 -0.9458 0.9280
10.4948 -17.4271 -1.0317 0.9218
13.2485 -17.4232 -1.1100 0.9161
14.2646 -17.4197 -1.1418 0.9138
16.4896 -17.4121 -1.2162 0.9084
23.4828 -23.0721 -1.6695 0.8765
25.2782 -23.1069 -1.7369 0.8718
40.9892 -21.7780 -2.3539 0.8304
-34.1149 0.4301 -2.5016 0.8721
-34.1083 -0.7989 -2.5016 0.8721
-33.6400 -5.6886 -2.5016 0.8721
-32.8302 -9.2839 -2.5016 0.8721
-31.1568 -13.9021 -2.5016 0.8721
-25.6125 -17.5153 -2.2751 0.8830
-22.0155 -17.5087 -2.0625 0.8933
-17.6917 -17.4994 -1.8246 0.9050
-15.3114 -17.4993 -1.7049 0.9110
-14.2285 -17.4952 -1.6535 0.9135
-12.2416 -17.4875 -1.5652 0.9179
-11.3234 -17.4840 -1.5273 0.9198
-7.2770 -17.4746 -1.3879 0.9269
-6.5481 -17.4724 -1.3681 0.9279
-5.8388 -17.4703 -1.3506 0.9288
-5.1462 -17.4671 -1.3352 0.9296
-4.4688 -17.4654 -1.3219 0.9302
-2.5036 -17.4602 -1.2933 0.9317
-1.8646 -17.4586 -1.2874 0.9320
-1.2305 -17.4569 -1.2832 0.9322
-0.5997 -17.4553 -1.2806 0.9323
0.0293 -17.4537 -1.2797 0.9324
0.6582 -17.4490 -1.2803 0.9324
3.8607 -17.4424 -1.3099 0.9309
5.2019 -17.4397 -1.3344 0.9296
5.8951 -17.4436 -1.3501 0.9288
8.8554 -17.4332 -1.4337 0.9246
10.4951 -17.4274 -1.4916 0.9216
13.2487 -17.4234 -1.6049 0.9160
15.3423 -17.4162 -1.7018 0.9111
24.3366 -23.9111 -2.5016 0.8721
25.9948 -22.0971 -2.5016 0.8721
26.7738 -21.1465 -2.5016 0.8721
27.5181 -20.1686 -2.5016 0.8721
28.2266 -19.1643 -2.5016 0.8721
28.8985 -18.1353 -2.5016 0.8721
30.1286 -16.0079 -2.5016 0.8721
-26.0547 0.3285 -2.5016 0.9006
-26.0496 -0.6102 -2.5016 0.9006
-25.9381 -2.4838 -2.5016 0.9006
-25.5191 -5.2671 -2.5016 0.9006
-25.3126 -6.1828 -2.5016 0.9006
-24.8018 -7.9889 -2.5016 0.9006
-24.4980 -8.8770 -2.5016 0.9006
-24.1624 -9.7536 -2.5016 0.9006
-23.3976 -11.4677 -2.5016 0.9006
-22.0241 -13.9245 -2.5016 0.9006
-21.5083 -14.7087 -2.5016 0.9006
-19.1534 -15.2324 -2.3494 0.9063
-18.5903 -15.9106 -2.3492 0.9064
-16.4572 -17.4952 -2.3060 0.9080
-15.3107 -17.4986 -2.2322 0.9108
-12.2412 -17.4868 -2.0493 0.9178
-11.3229 -17.4833 -1.9998 0.9197
-9.6104 -17.4807 -1.9151 0.9230
-8.8047 -17.4784 -1.8789 0.9244
-8.0280 -17.4761 -1.8464 0.9256
-6.5479 -17.4717 -1.7913 0.9278
-3.8039 -17.4637 -1.7159 0.9307
-2.5036 -17.4603 -1.6934 0.9316
-0.5998 -17.4553 -1.6768 0.9322
0.0293 -17.4537 -1.6756 0.9323
0.6582 -17.4494 -1.6764 0.9322
1.2888 -17.4481 -1.6797 0.9321
1.9226 -17.4468 -1.6851 0.9319
2.5613 -17.4455 -1.6928 0.9316
3.2068 -17.4441 -1.7028 0.9312
5.2020 -17.4401 -1.7472 0.9295
5.8952 -17.4439 -1.7678 0.9287
8.8556 -17.4335 -1.8773 0.9244
10.4953 -17.4278 -1.9531 0.9215
13.2488 -17.4236 -2.1014 0.9158
14.2650 -17.4201 -2.1616 0.9135
17.4899 -17.1841 -2.3540 0.9062
18.0826 -16.5294 -2.3520 0.9062
21.5576 -14.6365 -2.5016 0.9006
22.5553 -13.0466 -2.5016 0.9006
23.0105 -12.2257 -2.5016 0.9006
-21.0538 -0.4931 -2.5016 0.9187
-20.8777 -2.7612 -2.5016 0.9187
-20.7647 -3.5114 -2.5016 0.9187
-20.6248 -4.2569 -2.5016 0.9187
-20.4581 -4.9970 -2.5016 0.9187
-20.2649 -5.7307 -2.5016 0.9187
-20.0453 -6.4568 -2.5016 0.9187
-19.5285 -7.8830 -2.5016 0.9187
-18.5643 -9.9434 -2.5016 0.9187
-18.1941 -10.6056 -2.5016 0.9187
-17.8003 -11.2540 -2.5016 0.9187
-16.4826 -13.1084 -2.5016 0.9187
-15.9998 -13.6935 -2.5016 0.9187
-14.9725 -14.8098 -2.5016 0.9187
-11.3414 -16.2014 -2.3492 0.9234
-10.7505 -16.5994 -2.3492 0.9234
-9.5276 -17.3303 -2.3492 0.9234
-8.8043 -17.4777 -2.3246 0.9242
-7.2764 -17.4732 -2.2483 0.9266
-5.8384 -17.4689 -2.1879 0.9285
-4.4689 -17.4654 -2.1415 0.9300
-1.8646 -17.4587 -2.0856 0.9317
0.6582 -17.4498 -2.0743 0.9321
2.5614 -17.4459 -2.0945 0.9314
5.8953 -17.4443 -2.1873 0.9285
7.3310 -17.4392 -2.2471 0.9266
8.0808 -17.4366 -2.2828 0.9255
9.5857 -17.2982 -2.3492 0.9234
11.9704 -15.7424 -2.3492 0.9234
12.5296 -15.3011 -2.3492 0.9234
15.0221 -14.7595 -2.5016 0.9187
15.5440 -14.2088 -2.5016 0.9187
16.0456 -13.6398 -2.5016 0.9187
16.9859 -12.4493 -2.5016 0.9187
18.2296 -10.5445 -2.5016 0.9187
18.5976 -9.8811 -2.5016 0.9187
-17.5750 -1.6829 -2.5016 0.9312
-17.5029 -2.3149 -2.5016 0.9312
-17.4082 -2.9438 -2.5016 0.9312
-17.1511 -4.1893 -2.5016 0.9312
-16.8051 -5.4131 -2.5016 0.9312
-16.3234 -6.5892 -2.4942 0.9314
-15.8536 -7.7702 -2.5016 0.9312
-15.5635 -8.3361 -2.5016 0.9312
-15.2531 -8.8913 -2.5016 0.9312
-14.9230 -9.4349 -2.5016 0.9312
-14.2051 -10.4846 -2.5016 0.9312
-13.8182 -10.9895 -2.5016 0.9312
-13.4135 -11.4801 -2.5016 0.9312
-12.5523 -12.4159 -2.5016 0.9312
-11.6259 -13.2872 -2.5016 0.9312
-11.1398 -13.6974 -2.5016 0.9312
-10.1249 -14.4637 -2.5016 0.9312
-9.5974 -14.8190 -2.5016 0.9312
-6.9896 -15.2159 -2.3725 0.9346
-5.2555 -15.7248 -2.3492 0.9352
-4.1098 -16.0623 -2.3492 0.9352
-3.5287 -16.1999 -2.3492 0.9352
-1.7607 -16.4861 -2.3492 0.9352
-0.5693 -16.5700 -2.3492 0.9352
0.6250 -16.5680 -2.3492 0.9352
1.2213 -16.5348 -2.3492 0.9352
1.8160 -16.4801 -2.3492 0.9352
2.4084 -16.4039 -2.3492 0.9352
3.5830 -16.1880 -2.3492 0.9352
4.7390 -15.8881 -2.3492 0.9352
5.3082 -15.7071 -2.3492 0.9352
7.7250 -15.2078 -2.4168 0.9334
9.6471 -14.7867 -2.5016 0.9312
10.1734 -14.4297 -2.5016 0.9312
10.6865 -14.0539 -2.5016 0.9312
12.1400 -12.8192 -2.5016 0.9312
13.0314 -11.9120 -2.5016 0.9312
13.8551 -10.9430 -2.5016 0.9312
14.2402 -10.4369 -2.5016 0.9312
14.6069 -9.9173 -2.5016 0.9312
14.9546 -9.3848 -2.5016 0.9312
15.2829 -8.8401 -2.5016 0.9312
-15.1839 0.1914 -2.5016 0.9403
-15.1582 -0.9021 -2.5016 0.9403
-15.1159 -1.4475 -2.5016 0.9403
-14.9725 -2.5319 -2.5016 0.9403
-14.7514 -3.6031 -2.5016 0.9403
-14.0811 -5.6841 -2.5016 0.9403
-13.8673 -6.1876 -2.5016 0.9403
-13.1189 -7.6472 -2.5016 0.9403
-12.8350 -8.1148 -2.5016 0.9403
-12.2175 -9.0177 -2.5016 0.9403
-11.8848 -9.4519 -2.5016 0.9403
-9.9993 -11.4281 -2.5016 0.9403
-9.5812 -11.7809 -2.5016 0.9403
-9.1506 -12.1183 -2.5016 0.9403
-8.7082 -12.4400 -2.5016 0.9403
-8.2545 -12.7456 -2.5016 0.9403
-7.7901 -13.0346 -2.5016 0.9403
-7.3156 -13.3068 -2.5016 0.9403
-6.3387 -13.7988 -2.5016 0.9403
-4.8134 -14.4021 -2.5016 0.9403
-2.6954 -14.9440 -2.5016 0.9403
-1.6126 -15.0992 -2.5016 0.9403
-0.5215 -15.1762 -2.5016 0.9403
1.1185 -15.1439 -2.5016 0.9403
1.6633 -15.0937 -2.5016 0.9403
2.2058 -15.0241 -2.5016 0.9403
2.7455 -14.9349 -2.5016 0.9403
3.2816 -14.8263 -2.5016 0.9403
4.8617 -14.3858 -2.5016 0.9403
5.3766 -14.2014 -2.5016 0.9403
7.3602 -13.2821 -2.5016 0.9403
7.8338 -13.0084 -2.5016 0.9403
8.7499 -12.4107 -2.5016 0.9403
9.1912 -12.0875 -2.5016 0.9403
9.6207 -11.7487 -2.5016 0.9403
10.0376 -11.3945 -2.5016 0.9403
11.5698 -9.8350 -2.5016 0.9403
11.9165 -9.4119 -2.5016 0.9403
12.2477 -8.9766 -2.5016 0.9403
13.1446 -7.6032 -2.5016 0.9403
13.4098 -7.1248 -2.5016 0.9403
-13.3080 0.1677 -2.5016 0.9473
-13.3054 -0.3117 -2.5016 0.9473
-13.1941 -1.7450 -2.5016 0.9473
-13.1227 -2.2191 -2.5016 0.9473
-13.0343 -2.6903 -2.5016 0.9473
-12.9289 -3.1580 -2.5016 0.9473
-12.3415 -4.9819 -2.5016 0.9473
-12.1540 -5.4231 -2.5016 0.9473
-11.7321 -6.2840 -2.5016 0.9473
-11.2493 -7.1123 -2.5016 0.9473
-10.1114 -8.6539 -2.5016 0.9473
-9.7932 -9.0125 -2.5016 0.9473
-9.4622 -9.3594 -2.5016 0.9473
-9.1189 -9.6941 -2.5016 0.9473
-8.7639 -10.0162 -2.5016 0.9473
-8.0201 -10.6212 -2.5016 0.9473
-7.6324 -10.9031 -2.5016 0.9473
-7.2347 -11.1709 -2.5016 0.9473
-6.8277 -11.4243 -2.5016 0.9473
-6.4118 -11.6628 -2.5016 0.9473
-4.2187 -12.6227 -2.5016 0.9473
-3.7613 -12.7665 -2.5016 0.9473
-3.2991 -12.8937 -2.5016 0.9473
-2.8325 -13.0042 -2.5016 0.9473
-2.3623 -13.0977 -2.5016 0.9473
-1.8891 -13.1743 -2.5016 0.9473
0.0223 -13.3090 -2.5016 0.9473
0.9803 -13.2729 -2.5016 0.9473
2.4063 -13.0897 -2.5016 0.9473
3.3423 -12.8826 -2.5016 0.9473
4.2610 -12.6085 -2.5016 0.9473
4.7124 -12.4469 -2.5016 0.9473
6.0275 -11.8660 -2.5016 0.9473
6.8660 -11.4013 -2.5016 0.9473
8.0557 -10.5942 -2.5016 0.9473
8.4321 -10.2971 -2.5016 0.9473
9.1515 -9.6635 -2.5016 0.9473
9.4935 -9.3276 -2.5016 0.9473
9.8234 -8.9796 -2.5016 0.9473
10.1404 -8.6200 -2.5016 0.9473
10.4443 -8.2491 -2.5016 0.9473
10.7346 -7.8676 -2.5016 0.9473
11.0110 -7.4759 -2.5016 0.9473
11.2731 -7.0745 -2.5016 0.9473
11.7531 -6.2446 -2.5016 0.9473
-11.8313 -0.2772 -2.5016 0.9528
-11.8136 -0.7031 -2.5016 0.9528
-11.7323 -1.5517 -2.5016 0.9528
-11.6688 -1.9732 -2.5016 0.9528
-11.5902 -2.3922 -2.5016 0.9528
-11.2645 -3.6284 -2.5016 0.9528
-10.6266 -5.2084 -2.5016 0.9528
-8.9911 -7.6952 -2.5016 0.9528
-8.7081 -8.0140 -2.5016 0.9528
-8.1087 -8.6201 -2.5016 0.9528
-7.4671 -9.1814 -2.5016 0.9528
-6.0713 -10.1585 -2.5016 0.9528
-5.7014 -10.3706 -2.5016 0.9528
-5.3242 -10.5693 -2.5016 0.9528
-4.5496 -10.9251 -2.5016 0.9528
-4.1531 -11.0819 -2.5016 0.9528
-3.7513 -11.2243 -2.5016 0.9528
-3.3446 -11.3521 -2.5016 0.9528
-2.9336 -11.4652 -2.5016 0.9528
-2.5187 -11.5634 -2.5016 0.9528
-2.1006 -11.6466 -2.5016 0.9528
-0.8321 -11.8053 -2.5016 0.9528
0.4461 -11.8262 -2.5016 0.9528
0.8717 -11.8024 -2.5016 0.9528
1.2963 -11.7634 -2.5016 0.9528
1.7191 -11.7090 -2.5016 0.9528
2.1397 -11.6395 -2.5016 0.9528
2.5575 -11.5549 -2.5016 0.9528
2.9721 -11.4553 -2.5016 0.9528
4.1903 -11.0679 -2.5016 0.9528
5.7362 -10.3514 -2.5016 0.9528
6.4665 -9.9116 -2.5016 0.9528
7.4979 -9.1563 -2.5016 0.9528
7.8228 -8.8804 -2.5016 0.9528
8.1376 -8.5928 -2.5016 0.9528
8.4418 -8.2942 -2.5016 0.9528
8.7350 -7.9847 -2.5016 0.9528
9.0169 -7.6649 -2.5016 0.9528
9.2871 -7.3352 -2.5016 0.9528
9.5453 -6.9960 -2.5016 0.9528
10.0241 -6.2907 -2.5016 0.9528
10.2442 -5.9255 -2.5016 0.9528
-10.6410 -0.2493 -2.5016 0.9572
-10.6252 -0.6324 -2.5016 0.9572
-10.5955 -1.0146 -2.5016 0.9572
-10.5521 -1.3956 -2.5016 0.9572
-10.4950 -1.7747 -2.5016 0.9572
-10.4242 -2.1516 -2.5016 0.9572
-10.3400 -2.5256 -2.5016 0.9572
-10.2423 -2.8964 -2.5016 0.9572
-10.0072 -3.6262 -2.5016 0.9572
-9.8701 -3.9842 -2.5016 0.9572
-9.5577 -4.6845 -2.5016 0.9572
-8.7860 -6.0084 -2.5016 0.9572
-8.5639 -6.3210 -2.5016 0.9572
-8.3307 -6.6253 -2.5016 0.9572
-8.0866 -6.9210 -2.5016 0.9572
-7.5674 -7.4852 -2.5016 0.9572
-6.7159 -8.2578 -2.5016 0.9572
-6.4141 -8.4943 -2.5016 0.9572
-5.1279 -9.3274 -2.5016 0.9572
-4.7886 -9.5060 -2.5016 0.9572
-3.7353 -9.9671 -2.5016 0.9572
-3.3739 -10.0951 -2.5016 0.9572
-3.0081 -10.2101 -2.5016 0.9572
-1.8893 -10.4750 -2.5016 0.9572
-1.5108 -10.5362 -2.5016 0.9572
-1.1304 -10.5838 -2.5016 0.9572
-0.3655 -10.6377 -2.5016 0.9572
0.0179 -10.6440 -2.5016 0.9572
0.4012 -10.6364 -2.5016 0.9572
1.1659 -10.5800 -2.5016 0.9572
1.9245 -10.4686 -2.5016 0.9572
2.3002 -10.3925 -2.5016 0.9572
2.6731 -10.3029 -2.5016 0.9572
3.4078 -10.0837 -2.5016 0.9572
3.7688 -9.9545 -2.5016 0.9572
4.1248 -9.8123 -2.5016 0.9572
4.4756 -9.6573 -2.5016 0.9572
5.1592 -9.3101 -2.5016 0.9572
5.4911 -9.1182 -2.5016 0.9572
5.8160 -8.9146 -2.5016 0.9572
6.4426 -8.4728 -2.5016 0.9572
6.7436 -8.2352 -2.5016 0.9572
7.3189 -7.7284 -2.5016 0.9572
7.8563 -7.1815 -2.5016 0.9572
8.3529 -6.5973 -2.5016 0.9572
8.8061 -5.9789 -2.5016 0.9572
9.3996 -4.9942 -2.5016 0.9572
-9.6609 0.1217 -2.5016 0.9609
-9.6590 -0.2262 -2.5016 0.9609
-9.6446 -0.5740 -2.5016 0.9609
-9.5783 -1.2668 -2.5016 0.9609
-9.5264 -1.6110 -2.5016 0.9609
-9.4622 -1.9530 -2.5016 0.9609
-9.3857 -2.2925 -2.5016 0.9609
-9.0837 -3.2915 -2.5016 0.9609
-8.8232 -3.9369 -2.5016 0.9609
-8.5169 -4.5619 -2.5016 0.9609
-8.3471 -4.8657 -2.5016 0.9609
-7.9751 -5.4539 -2.5016 0.9609
-7.5619 -6.0138 -2.5016 0.9609
-7.1093 -6.5426 -2.5016 0.9609
-6.8691 -6.7944 -2.5016 0.9609
-6.6199 -7.0374 -2.5016 0.9609
-6.3621 -7.2713 -2.5016 0.9609
-6.0961 -7.4957 -2.5016 0.9609
-5.8222 -7.7104 -2.5016 0.9609
-5.5407 -7.9151 -2.5016 0.9609
-4.9566 -8.2934 -2.5016 0.9609
-3.7142 -8.9192 -2.5016 0.9609
-3.3906 -9.0472 -2.5016 0.9609
-3.0626 -9.1635 -2.5016 0.9609
-2.0563 -9.4404 -2.5016 0.9609
-1.7149 -9.5083 -2.5016 0.9609
-1.3714 -9.5639 -2.5016 0.9609
-1.0260 -9.6071 -2.5016 0.9609
-0.6793 -9.6378 -2.5016 0.9609
-0.3318 -9.6560 -2.5016 0.9609
0.0162 -9.6617 -2.5016 0.9609
0.3642 -9.6548 -2.5016 0.9609
0.7117 -9.6354 -2.5016 0.9609
1.0583 -9.6036 -2.5016 0.9609
1.4035 -9.5592 -2.5016 0.9609
3.0933 -9.1531 -2.5016 0.9609
3.4209 -9.0358 -2.5016 0.9609
3.7442 -8.9067 -2.5016 0.9609
4.6830 -8.4509 -2.5016 0.9609
4.9844 -8.2767 -2.5016 0.9609
5.5673 -7.8965 -2.5016 0.9609
5.8480 -7.6908 -2.5016 0.9609
6.6435 -7.0152 -2.5016 0.9609
6.8918 -6.7713 -2.5016 0.9609
7.1312 -6.5187 -2.5016 0.9609
7.5820 -5.9885 -2.5016 0.9609
7.7928 -5.7115 -2.5016 0.9609
7.9934 -5.4271 -2.5016 0.9609
8.1837 -5.1357 -2.5016 0.9609
8.3634 -4.8376 -2.5016 0.9609
8.5322 -4.5333 -2.5016 0.9609
-8.8359 0.1113 -2.5016 0.9639
-8.8342 -0.2069 -2.5016 0.9639
-8.8210 -0.5250 -2.5016 0.9639
-8.7963 -0.8424 -2.5016 0.9639
-8.7129 -1.4734 -2.5016 0.9639
-8.1942 -3.3077 -2.5016 0.9639
-8.0697 -3.6007 -2.5016 0.9639
-7.9348 -3.8890 -2.5016 0.9639
-7.7896 -4.1723 -2.5016 0.9639
-7.1100 -5.2477 -2.5016 0.9639
-6.7135 -5.7458 -2.5016 0.9639
-6.2825 -6.2142 -2.5016 0.9639
-6.0546 -6.4364 -2.5016 0.9639
-5.0676 -7.2392 -2.5016 0.9639
-3.3971 -8.1576 -2.5016 0.9639
-3.1011 -8.2746 -2.5016 0.9639
-2.8010 -8.3810 -2.5016 0.9639
-1.5685 -8.6963 -2.5016 0.9639
-1.2543 -8.7472 -2.5016 0.9639
-0.9384 -8.7866 -2.5016 0.9639
1.2836 -8.7429 -2.5016 0.9639
1.5977 -8.6910 -2.5016 0.9639
3.1288 -8.2642 -2.5016 0.9639
3.7156 -8.0175 -2.5016 0.9639
4.0020 -7.8785 -2.5016 0.9639
4.2831 -7.7292 -2.5016 0.9639
4.5587 -7.5699 -2.5016 0.9639
5.3486 -7.0341 -2.5016 0.9639
5.8411 -6.6308 -2.5016 0.9639
6.0762 -6.4161 -2.5016 0.9639
6.9345 -5.4771 -2.5016 0.9639
7.1272 -5.2238 -2.5016 0.9639
7.4848 -4.6971 -2.5016 0.9639
7.6492 -4.4245 -2.5016 0.9639
7.8035 -4.1461 -2.5016 0.9639
-8.1325 0.1025 -2.5016 0.9665
-8.1309 -0.1905 -2.5016 0.9665
-8.0961 -0.7753 -2.5016 0.9665
-7.9652 -1.6440 -2.5016 0.9665
-7.9009 -1.9299 -2.5016 0.9665
-7.7414 -2.4936 -2.5016 0.9665
-7.5418 -3.0444 -2.5016 0.9665
-7.4273 -3.3141 -2.5016 0.9665
-7.3031 -3.5795 -2.5016 0.9665
-6.8744 -4.3463 -2.5016 0.9665
-5.9846 -5.5076 -2.5016 0.9665
-5.7823 -5.7195 -2.5016 0.9665
-5.5726 -5.9240 -2.5016 0.9665
-4.9011 -6.4906 -2.5016 0.9665
-4.4211 -6.8266 -2.5016 0.9665
-3.6590 -7.2636 -2.5016 0.9665
-2.8542 -7.6159 -2.5016 0.9665
-2.2985 -7.8016 -2.5016 0.9665
-2.0161 -7.8793 -2.5016 0.9665
-1.4436 -8.0040 -2.5016 0.9665
-0.5719 -8.1130 -2.5016 0.9665
1.1814 -8.0469 -2.5016 0.9665
2.3247 -7.7938 -2.5016 0.9665
2.6039 -7.7051 -2.5016 0.9665
2.8797 -7.6063 -2.5016 0.9665
3.6834 -7.2513 -2.5016 0.9665
4.1958 -6.9673 -2.5016 0.9665
4.6865 -6.6472 -2.5016 0.9665
4.9229 -6.4741 -2.5016 0.9665
5.3761 -6.1029 -2.5016 0.9665
5.8015 -5.7001 -2.5016 0.9665
6.0030 -5.4874 -2.5016 0.9665
6.1968 -5.2676 -2.5016 0.9665
6.7288 -4.5685 -2.5016 0.9665
7.0402 -4.0723 -2.5016 0.9665
7.1823 -3.8161 -2.5016 0.9665
-7.5236 -0.1763 -2.5016 0.9688
-7.5124 -0.4471 -2.5016 0.9688
-7.4607 -0.9867 -2.5016 0.9688
-7.4203 -1.2548 -2.5016 0.9688
-7.3703 -1.5213 -2.5016 0.9688
-7.3107 -1.7857 -2.5016 0.9688
-7.2417 -2.0479 -2.5016 0.9688
-7.1632 -2.3074 -2.5016 0.9688
-7.0755 -2.5639 -2.5016 0.9688
-6.9786 -2.8170 -2.5016 0.9688
-6.7577 -3.3121 -2.5016 0.9688
-6.5017 -3.7900 -2.5016 0.9688
-6.3610 -4.0217 -2.5016 0.9688
-6.2120 -4.2482 -2.5016 0.9688
-5.8901 -4.6843 -2.5016 0.9688
-5.5376 -5.0962 -2.5016 0.9688
-5.3508 -5.2923 -2.5016 0.9688
-5.1564 -5.4816 -2.5016 0.9688
-4.9556 -5.6638 -2.5016 0.9688
-4.0909 -6.3167 -2.5016 0.9688
-3.8608 -6.4600 -2.5016 0.9688
-3.6256 -6.5948 -2.5016 0.9688
-3.3857 -6.7211 -2.5016 0.9688
-2.8931 -6.9474 -2.5016 0.9688
-2.6410 -7.0471 -2.5016 0.9688
-2.3855 -7.1376 -2.5016 0.9688
-2.1269 -7.2189 -2.5016 0.9688
-1.8655 -7.2908 -2.5016 0.9688
-1.3358 -7.4062 -2.5016 0.9688
-0.5291 -7.5071 -2.5016 0.9688
-0.2584 -7.5213 -2.5016 0.9688
0.0126 -7.5257 -2.5016 0.9688
0.5544 -7.5053 -2.5016 0.9688
0.8243 -7.4804 -2.5016 0.9688
1.3606 -7.4017 -2.5016 0.9688
3.1644 -6.8281 -2.5016 0.9688
3.4083 -6.7097 -2.5016 0.9688
3.6477 -6.5826 -2.5016 0.9688
3.8824 -6.4469 -2.5016 0.9688
4.1121 -6.3029 -2.5016 0.9688
4.3365 -6.1508 -2.5016 0.9688
4.5552 -5.9906 -2.5016 0.9688
4.9746 -5.6471 -2.5016 0.9688
6.0700 -4.4488 -2.5016 0.9688
6.3745 -4.0003 -2.5016 0.9688
6.5144 -3.7681 -2.5016 0.9688
-6.9934 -0.1638 -2.5016 0.9707
-6.9830 -0.4156 -2.5016 0.9707
-6.9635 -0.6669 -2.5016 0.9707
-6.9349 -0.9172 -2.5016 0.9707
-6.8974 -1.1664 -2.5016 0.9707
-6.7313 -1.9036 -2.5016 0.9707
-6.4867 -2.6185 -2.5016 0.9707
-6.0435 -3.5229 -2.5016 0.9707
-5.9127 -3.7383 -2.5016 0.9707
-5.4750 -4.3542 -2.5016 0.9707
-5.1473 -4.7371 -2.5016 0.9707
-4.9734 -4.9194 -2.5016 0.9707
-4.6064 -5.2646 -2.5016 0.9707
-3.5887 -6.0047 -2.5016 0.9707
-3.3701 -6.1300 -2.5016 0.9707
-1.9770 -6.7102 -2.5016 0.9707
-1.7340 -6.7770 -2.5016 0.9707
-1.2417 -6.8843 -2.5016 0.9707
-0.9929 -6.9245 -2.5016 0.9707
-0.2402 -6.9912 -2.5016 0.9707
0.2637 -6.9904 -2.5016 0.9707
0.5153 -6.9764 -2.5016 0.9707
0.7662 -6.9533 -2.5016 0.9707
1.7568 -6.7712 -2.5016 0.9707
2.2396 -6.6271 -2.5016 0.9707
2.7109 -6.4487 -2.5016 0.9707
2.9414 -6.3469 -2.5016 0.9707
3.3906 -6.1187 -2.5016 0.9707
4.0309 -5.7173 -2.5016 0.9707
4.2341 -5.5684 -2.5016 0.9707
4.6238 -5.2491 -2.5016 0.9707
4.9899 -4.9027 -2.5016 0.9707
5.4896 -4.3358 -2.5016 0.9707
5.7874 -3.9294 -2.5016 0.9707
5.9252 -3.7184 -2.5016 0.9707
6.0553 -3.5026 -2.5016 0.9707
-6.5273 0.0823 -2.5016 0.9724
-6.4981 -0.6223 -2.5016 0.9724
-6.4364 -1.0885 -2.5016 0.9724
-6.3931 -1.3196 -2.5016 0.9724
-6.3414 -1.5489 -2.5016 0.9724
-6.2134 -2.0014 -2.5016 0.9724
-5.9613 -2.6600 -2.5016 0.9724
-5.6396 -3.2874 -2.5016 0.9724
-5.5175 -3.4885 -2.5016 0.9724
-5.1091 -4.0632 -2.5016 0.9724
-4.9594 -4.2446 -2.5016 0.9724
-4.6410 -4.5906 -2.5016 0.9724
-3.7435 -5.3478 -2.5016 0.9724
-3.3488 -5.6034 -2.5016 0.9724
-2.9368 -5.8299 -2.5016 0.9724
-2.7249 -5.9319 -2.5016 0.9724
-2.5095 -6.0262 -2.5016 0.9724
-2.2908 -6.1127 -2.5016 0.9724
-1.8448 -6.2618 -2.5016 0.9724
-1.3893 -6.3783 -2.5016 0.9724
0.7150 -6.4886 -2.5016 0.9724
0.9482 -6.4586 -2.5016 0.9724
1.1802 -6.4203 -2.5016 0.9724
1.4107 -6.3736 -2.5016 0.9724
2.0900 -6.1842 -2.5016 0.9724
2.5297 -6.0177 -2.5016 0.9724
2.7448 -5.9227 -2.5016 0.9724
2.9564 -5.8201 -2.5016 0.9724
3.1641 -5.7098 -2.5016 0.9724
3.3676 -5.5921 -2.5016 0.9724
3.7615 -5.3352 -2.5016 0.9724
3.9512 -5.1962 -2.5016 0.9724
4.1358 -5.0506 -2.5016 0.9724
4.4886 -4.7397 -2.5016 0.9724
4.6564 -4.5750 -2.5016 0.9724
4.9737 -4.2279 -2.5016 0.9724
5.2651 -3.8589 -2.5016 0.9724
5.4007 -3.6668 -2.5016 0.9724
5.5292 -3.4699 -2.5016 0.9724
-6.1117 0.0771 -2.5016 0.9739
-6.0266 -1.0192 -2.5016 0.9739
-5.9860 -1.2355 -2.5016 0.9739
-5.7466 -2.0823 -2.5016 0.9739
-5.6678 -2.2879 -2.5016 0.9739
-5.2806 -3.0782 -2.5016 0.9739
-5.1663 -3.2664 -2.5016 0.9739
-4.9177 -3.6298 -2.5016 0.9739
-4.7838 -3.8045 -2.5016 0.9739
-4.6437 -3.9744 -2.5016 0.9739
-4.4975 -4.1390 -2.5016 0.9739
-4.3455 -4.2983 -2.5016 0.9739
-4.1879 -4.4521 -2.5016 0.9739
-3.8566 -4.7420 -2.5016 0.9739
-3.3226 -5.1303 -2.5016 0.9739
-2.9446 -5.3562 -2.5016 0.9739
-2.5514 -5.5543 -2.5016 0.9739
-2.3497 -5.6425 -2.5016 0.9739
-2.1450 -5.7235 -2.5016 0.9739
-1.9374 -5.7971 -2.5016 0.9739
-1.5151 -5.9215 -2.5016 0.9739
-0.8676 -6.0504 -2.5016 0.9739
1.1051 -6.0115 -2.5016 0.9739
1.5350 -5.9164 -2.5016 0.9739
1.9569 -5.7905 -2.5016 0.9739
2.1642 -5.7163 -2.5016 0.9739
2.3687 -5.6346 -2.5016 0.9739
2.7681 -5.4495 -2.5016 0.9739
3.6996 -4.8654 -2.5016 0.9739
4.3600 -4.2838 -2.5016 0.9739
4.5114 -4.1239 -2.5016 0.9739
4.7966 -3.7885 -2.5016 0.9739
5.0569 -3.4334 -2.5016 0.9739
5.3977 -2.8679 -2.5016 0.9739
-5.7395 0.0723 -2.5016 0.9753
-5.7298 -0.3410 -2.5016 0.9753
-5.6904 -0.7526 -2.5016 0.9753
-5.6215 -1.1603 -2.5016 0.9753
-5.5760 -1.3620 -2.5016 0.9753
-5.3966 -1.9555 -2.5016 0.9753
-5.3227 -2.1486 -2.5016 0.9753
-5.2418 -2.3389 -2.5016 0.9753
-4.7380 -3.2402 -2.5016 0.9753
-4.6182 -3.4087 -2.5016 0.9753
-4.3609 -3.7323 -2.5016 0.9753
-4.0809 -4.0366 -2.5016 0.9753
-3.7797 -4.3199 -2.5016 0.9753
-3.6217 -4.4532 -2.5016 0.9753
-3.4589 -4.5808 -2.5016 0.9753
-3.2917 -4.7024 -2.5016 0.9753
-3.1202 -4.8179 -2.5016 0.9753
-2.7653 -5.0300 -2.5016 0.9753
-2.5823 -5.1263 -2.5016 0.9753
-2.3960 -5.2160 -2.5016 0.9753
-1.8194 -5.4440 -2.5016 0.9753
-1.6222 -5.5060 -2.5016 0.9753
0.0096 -5.7400 -2.5016 0.9753
0.2164 -5.7360 -2.5016 0.9753
0.8338 -5.6791 -2.5016 0.9753
1.2405 -5.6044 -2.5016 0.9753
1.4415 -5.5560 -2.5016 0.9753
1.8377 -5.4379 -2.5016 0.9753
2.0324 -5.3682 -2.5016 0.9753
2.4138 -5.2079 -2.5016 0.9753
2.5995 -5.1176 -2.5016 0.9753
2.7822 -5.0207 -2.5016 0.9753
2.9612 -4.9172 -2.5016 0.9753
3.1364 -4.8074 -2.5016 0.9753
3.3075 -4.6913 -2.5016 0.9753
3.4743 -4.5691 -2.5016 0.9753
3.7942 -4.3071 -2.5016 0.9753
4.0944 -4.0228 -2.5016 0.9753
4.3734 -3.7177 -2.5016 0.9753
4.6297 -3.3932 -2.5016 0.9753
4.8619 -3.0511 -2.5016 0.9753
-5.4039 0.0681 -2.5016 0.9765
-5.4028 -0.1266 -2.5016 0.9765
-5.3948 -0.3211 -2.5016 0.9765
-5.3797 -0.5152 -2.5016 0.9765
-5.3577 -0.7086 -2.5016 0.9765
-5.2500 -1.2824 -2.5016 0.9765
-4.9353 -2.2022 -2.5016 0.9765
-4.8528 -2.3785 -2.5016 0.9765
-4.7640 -2.5517 -2.5016 0.9765
-4.6690 -2.7217 -2.5016 0.9765
-4.5679 -2.8881 -2.5016 0.9765
-4.4609 -3.0507 -2.5016 0.9765
-4.2298 -3.3639 -2.5016 0.9765
-4.1059 -3.5141 -2.5016 0.9765
-3.9766 -3.6597 -2.5016 0.9765
-3.2567 -4.3129 -2.5016 0.9765
-2.7725 -4.6390 -2.5016 0.9765
-2.4313 -4.8266 -2.5016 0.9765
-2.2559 -4.9110 -2.5016 0.9765
-1.8965 -5.0607 -2.5016 0.9765
-1.5273 -5.1840 -2.5016 0.9765
-1.3393 -5.2357 -2.5016 0.9765
-1.1502 -5.2805 -2.5016 0.9765
-0.9593 -5.3185 -2.5016 0.9765
-0.5739 -5.3738 -2.5016 0.9765
-0.1856 -5.4012 -2.5016 0.9765
0.2037 -5.4005 -2.5016 0.9765
0.7850 -5.3470 -2.5016 0.9765
1.1679 -5.2766 -2.5016 0.9765
1.5447 -5.1789 -2.5016 0.9765
1.7303 -5.1199 -2.5016 0.9765
1.9135 -5.0543 -2.5016 0.9765
2.0943 -4.9821 -2.5016 0.9765
2.2724 -4.9034 -2.5016 0.9765
2.6195 -4.7271 -2.5016 0.9765
2.7880 -4.6297 -2.5016 0.9765
3.4240 -4.1813 -2.5016 0.9765
3.7161 -3.9240 -2.5016 0.9765
3.9889 -3.6463 -2.5016 0.9765
4.2411 -3.3497 -2.5016 0.9765
-5.0984 -0.1194 -2.5016 0.9775
-5.0908 -0.3030 -2.5016 0.9775
-5.0558 -0.6687 -2.5016 0.9775
-4.9945 -1.0309 -2.5016 0.9775
-4.8542 -1.5636 -2.5016 0.9775
-4.6572 -2.0781 -2.5016 0.9775
-4.4955 -2.4080 -2.5016 0.9775
-4.1032 -3.0286 -2.5016 0.9775
-3.9914 -3.1744 -2.5016 0.9775
-3.8745 -3.3161 -2.5016 0.9775
-3.4942 -3.7146 -2.5016 0.9775
-3.3582 -3.8381 -2.5016 0.9775
-3.2178 -3.9566 -2.5016 0.9775
-3.0732 -4.0699 -2.5016 0.9775
-2.7722 -4.2805 -2.5016 0.9775
-2.6163 -4.3776 -2.5016 0.9775
-2.4569 -4.4690 -2.5016 0.9775
-2.2943 -4.5546 -2.5016 0.9775
-1.9605 -4.7079 -2.5016 0.9775
-1.7897 -4.7755 -2.5016 0.9775
-1.0854 -4.9830 -2.5016 0.9775
-0.5416 -5.0710 -2.5016 0.9775
-0.1751 -5.0969 -2.5016 0.9775
0.0086 -5.0998 -2.5016 0.9775
0.5586 -5.0692 -2.5016 0.9775
0.9221 -5.0158 -2.5016 0.9775
1.2807 -4.9364 -2.5016 0.9775
1.8057 -4.7695 -2.5016 0.9775
1.9763 -4.7013 -2.5016 0.9775
2.3096 -4.5469 -2.5016 0.9775
2.4719 -4.4608 -2.5016 0.9775
3.0868 -4.0595 -2.5016 0.9775
3.7642 -3.4409 -2.5016 0.9775
3.8856 -3.3030 -2.5016 0.9775
4.1133 -3.0148 -2.5016 0.9775
4.2192 -2.8647 -2.5016 0.9775
4.3197 -2.7109 -2.5016 0.9775
4.5036 -2.3929 -2.5016 0.9775
-4.8217 0.0608 -2.5016 0.9785
-4.7545 -0.8040 -2.5016 0.9785
-4.6401 -1.3122 -2.5016 0.9785
-4.5898 -1.4784 -2.5016 0.9785
-4.4715 -1.8050 -2.5016 0.9785
-4.3299 -2.1222 -2.5016 0.9785
-4.2507 -2.2768 -2.5016 0.9785
-4.1659 -2.4284 -2.5016 0.9785
-4.0758 -2.5769 -2.5016 0.9785
-3.9803 -2.7220 -2.5016 0.9785
-3.7740 -3.0015 -2.5016 0.9785
-3.5482 -3.2654 -2.5016 0.9785
-3.1753 -3.6290 -2.5016 0.9785
-3.0425 -3.7411 -2.5016 0.9785
-2.9058 -3.8482 -2.5016 0.9785
-2.7653 -3.9504 -2.5016 0.9785
-2.4738 -4.1392 -2.5016 0.9785
-2.1694 -4.3065 -2.5016 0.9785
-1.6922 -4.5154 -2.5016 0.9785
-1.5285 -4.5734 -2.5016 0.9785
-1.3628 -4.6255 -2.5016 0.9785
-1.1953 -4.6716 -2.5016 0.9785
-0.8559 -4.7455 -2.5016 0.9785
-0.6844 -4.7733 -2.5016 0.9785
-0.5121 -4.7948 -2.5016 0.9785
-0.3390 -4.8102 -2.5016 0.9785
0.1818 -4.8187 -2.5016 0.9785
0.3552 -4.8090 -2.5016 0.9785
0.7005 -4.7710 -2.5016 0.9785
1.2110 -4.6676 -2.5016 0.9785
1.7074 -4.5097 -2.5016 0.9785
1.8687 -4.4453 -2.5016 0.9785
2.1838 -4.2992 -2.5016 0.9785
2.4877 -4.1309 -2.5016 0.9785
2.6348 -4.0386 -2.5016 0.9785
3.4397 -3.3796 -2.5016 0.9785
3.9894 -2.7087 -2.5016 0.9785
4.0844 -2.5632 -2.5016 0.9785
4.1741 -2.4144 -2.5016 0.9785
4.2583 -2.2625 -2.5016 0.9785
-4.5670 0.0575 -2.5016 0.9794
-4.5661 -0.1070 -2.5016 0.9794
-4.5279 -0.5989 -2.5016 0.9794
-4.5034 -0.7615 -2.5016 0.9794
-4.4369 -1.0838 -2.5016 0.9794
-4.3950 -1.2429 -2.5016 0.9794
-4.3474 -1.4004 -2.5016 0.9794
-4.2353 -1.7097 -2.5016 0.9794
-4.1013 -2.0102 -2.5016 0.9794
-3.8605 -2.4408 -2.5016 0.9794
-3.7701 -2.5783 -2.5016 0.9794
-3.6748 -2.7124 -2.5016 0.9794
-3.3608 -3.0929 -2.5016 0.9794
-3.2472 -3.2120 -2.5016 0.9794
-3.1294 -3.3268 -2.5016 0.9794
-2.7523 -3.6450 -2.5016 0.9794
-2.6193 -3.7418 -2.5016 0.9794
-2.4828 -3.8337 -2.5016 0.9794
-2.2004 -4.0025 -2.5016 0.9794
-2.0548 -4.0791 -2.5016 0.9794
-1.9066 -4.1505 -2.5016 0.9794
-1.6028 -4.2770 -2.5016 0.9794
-1.4478 -4.3319 -2.5016 0.9794
-1.1322 -4.4249 -2.5016 0.9794
-0.9721 -4.4628 -2.5016 0.9794
-0.6483 -4.5212 -2.5016 0.9794
-0.4850 -4.5416 -2.5016 0.9794
-0.3211 -4.5561 -2.5016 0.9794
-0.1568 -4.5647 -2.5016 0.9794
0.1722 -4.5642 -2.5016 0.9794
0.3364 -4.5550 -2.5016 0.9794
0.9871 -4.4595 -2.5016 0.9794
1.3055 -4.3769 -2.5016 0.9794
1.4623 -4.3270 -2.5016 0.9794
1.6172 -4.2716 -2.5016 0.9794
1.7700 -4.2105 -2.5016 0.9794
1.9205 -4.1440 -2.5016 0.9794
2.2138 -3.9951 -2.5016 0.9794
2.3563 -3.9127 -2.5016 0.9794
2.4957 -3.8253 -2.5016 0.9794
3.0191 -3.4273 -2.5016 0.9794
3.1406 -3.3163 -2.5016 0.9794
3.2580 -3.2011 -2.5016 0.9794
3.3712 -3.0816 -2.5016 0.9794
3.4800 -2.9582 -2.5016 0.9794
3.7788 -2.5656 -2.5016 0.9794
-4.3325 0.0546 -2.5016 0.9802
-4.3317 -0.1015 -2.5016 0.9802
-4.3131 -0.4130 -2.5016 0.9802
-4.2954 -0.5681 -2.5016 0.9802
-4.2091 -1.0281 -2.5016 0.9802
-4.1242 -1.3285 -2.5016 0.9802
-4.0737 -1.4761 -2.5016 0.9802
-3.9568 -1.7655 -2.5016 0.9802
-3.8907 -1.9069 -2.5016 0.9802
-3.7433 -2.1821 -2.5016 0.9802
-3.4861 -2.5731 -2.5016 0.9802
-3.2918 -2.8174 -2.5016 0.9802
-3.1882 -2.9341 -2.5016 0.9802
-3.0805 -3.0470 -2.5016 0.9802
-2.7339 -3.3615 -2.5016 0.9802
-2.6110 -3.4578 -2.5016 0.9802
-2.3553 -3.6368 -2.5016 0.9802
-1.9493 -3.8696 -2.5016 0.9802
-1.6657 -3.9999 -2.5016 0.9802
-0.9221 -4.2336 -2.5016 0.9802
-0.6150 -4.2890 -2.5016 0.9802
-0.4601 -4.3084 -2.5016 0.9802
-0.1488 -4.3303 -2.5016 0.9802
0.0073 -4.3329 -2.5016 0.9802
0.1633 -4.3298 -2.5016 0.9802
0.3192 -4.3212 -2.5016 0.9802
0.7834 -4.2615 -2.5016 0.9802
0.9364 -4.2305 -2.5016 0.9802
1.0881 -4.1940 -2.5016 0.9802
1.3872 -4.1048 -2.5016 0.9802
1.5342 -4.0522 -2.5016 0.9802
1.8219 -3.9312 -2.5016 0.9802
1.9623 -3.8631 -2.5016 0.9802
2.1002 -3.7899 -2.5016 0.9802
2.8641 -3.2513 -2.5016 0.9802
3.0907 -3.0367 -2.5016 0.9802
3.4947 -2.5614 -2.5016 0.9802
3.5847 -2.4339 -2.5016 0.9802
3.6701 -2.3032 -2.5016 0.9802
3.7506 -2.1695 -2.5016 0.9802
