ply
format ascii 1.0
element vertex 1069
property float32 x
property float32 y
property float32 z
property float32 I
end_header
29.9425 -11.5454 5.6586 0.8778
-0.7641 16.8654 2.9769 0.9337
29.9399 -11.5444 4.9158 0.8782
-0.3637 39.5192 6.0544 0.8522
-0.7640 16.8638 2.5861 0.9340
29.9373 -11.5434 4.1782 0.8786
1.2657 9.3118 1.2237 0.9628
-0.3642 39.5773 5.1540 0.8524
-0.7640 16.8621 2.1981 0.9342
-32.0158 24.8340 5.2763 0.8492
1.2657 9.3118 1.0091 0.9629
-0.3641 39.5676 4.2490 0.8528
-0.7639 16.8605 1.8124 0.9344
-32.1174 28.8516 4.6360 0.8406
-32.1071 26.8142 4.4919 0.8451
-37.1837 24.7668 4.7975 0.8355
-0.3640 39.5580 3.3488 0.8532
-0.7638 16.8589 1.4286 0.9345
-32.1174 28.8516 3.6548 0.8409
-32.1873 26.8812 3.5500 0.8451
-34.3399 24.7059 3.5811 0.8438
29.9295 -11.5404 1.9891 0.8794
44.7971 20.3077 3.0500 0.8211
42.5808 21.1864 2.9492 0.8265
42.6231 23.1616 3.0081 0.8233
42.6672 25.2201 3.0735 0.8198
1.2657 9.3118 0.5827 0.9630
-32.1601 26.8585 2.5983 0.8454
-32.2005 24.9772 2.5270 0.8493
-37.1837 24.7668 2.7704 0.8361
42.6672 25.2201 1.9543 0.8200
1.2657 9.3118 0.3706 0.9631
-32.1174 28.8516 1.7024 0.8413
-32.2005 24.9772 1.6069 0.8495
-34.3399 24.7059 1.6681 0.8442
-37.1837 24.7668 1.7617 0.8362
29.9244 -11.5384 0.5418 0.8796
42.5807 21.1864 0.8034 0.8267
42.6231 23.1616 0.8194 0.8236
-0.3637 39.5293 0.6677 0.8537
-0.6626 14.6247 0.2473 0.9431
-32.0720 30.9725 0.7531 0.8366
-32.1174 28.8516 0.7293 0.8414
-32.1873 26.8812 0.7084 0.8456
-32.2004 24.9773 0.6884 0.8496
-34.3399 24.7059 0.7146 0.8443
-37.0801 24.6978 0.7526 0.8367
44.7940 20.3063 -0.2769 0.8214
42.5807 21.1863 -0.2678 0.8268
42.6230 23.1616 -0.2731 0.8236
-0.3637 39.5214 -0.2225 0.8538
-0.6776 14.9551 -0.0843 0.9419
-1.9777 12.7825 -0.0728 0.9496
-32.1174 28.8516 -0.2431 0.8414
-32.2004 24.9773 -0.2294 0.8496
-37.1837 24.7668 -0.2515 0.8363
44.7940 20.3063 -1.3848 0.8214
42.5807 21.1863 -1.3392 0.8267
1.2657 9.3118 -0.2646 0.9631
-0.3636 39.5177 -1.1128 0.8537
-0.6776 14.9551 -0.4215 0.9419
-1.5119 12.8160 -0.3634 0.9497
-1.9777 12.7825 -0.3642 0.9496
-30.6799 31.8452 -1.2451 0.8378
-32.0720 30.9724 -1.2554 0.8366
-32.1174 28.8516 -1.2157 0.8413
-34.3399 24.7059 -1.1912 0.8443
-37.1837 24.7668 -1.2580 0.8363
29.8392 -11.5055 -1.6219 0.8798
45.1368 -13.7585 -2.3931 0.8278
44.8934 -11.9328 -2.3558 0.8302
45.1904 -10.2822 -2.3504 0.8306
48.7641 -7.4484 -2.5017 0.8207
49.1741 -3.9138 -2.5017 0.8207
49.2833 -2.1377 -2.5017 0.8207
49.3092 1.4205 -2.5017 0.8207
49.0785 4.9713 -2.5017 0.8207
45.7156 7.9933 -2.3536 0.8304
42.2534 19.1547 -2.3528 0.8304
39.0428 25.0205 -2.3517 0.8305
38.1111 26.4096 -2.3515 0.8305
36.1036 29.0846 -2.3512 0.8305
35.0304 30.3672 -2.3511 0.8305
33.9118 31.6103 -2.3511 0.8305
31.5440 33.9717 -2.3510 0.8305
30.2979 35.0869 -2.3510 0.8305
27.6841 37.1720 -2.3505 0.8306
22.0463 40.7577 -2.3500 0.8306
20.5654 41.5331 -2.3504 0.8306
19.0571 42.2546 -2.3508 0.8306
15.9664 43.5318 -2.3515 0.8305
14.3881 44.0857 -2.3518 0.8305
9.5461 45.4007 -2.3528 0.8304
1.2657 9.3118 -0.4766 0.9631
4.5881 46.1832 -2.3537 0.8304
-0.3623 39.3741 -1.9969 0.8541
-0.6776 14.9551 -0.7592 0.9418
-1.0441 12.8060 -0.6516 0.9498
-1.5119 12.8160 -0.6545 0.9496
-9.2957 48.4459 -2.5017 0.8207
-11.0369 48.0791 -2.5017 0.8207
-14.4740 47.1584 -2.5017 0.8207
-19.4830 45.3192 -2.5017 0.8207
-21.1048 44.5870 -2.5017 0.8207
-22.6992 43.7968 -2.5017 0.8207
-24.2641 42.9496 -2.5017 0.8207
-25.8783 38.9533 -2.3717 0.8292
-27.0091 37.6361 -2.3493 0.8307
-27.7404 35.8510 -2.2989 0.8340
-29.2651 32.6561 -2.2238 0.8389
-31.5430 30.4616 -2.2238 0.8389
-32.1174 28.8516 -2.1895 0.8412
-28.3986 23.7171 -1.8764 0.8623
-32.2004 24.9773 -2.0667 0.8494
-36.4959 24.3087 -2.2238 0.8389
29.6817 -11.4448 -2.3325 0.8802
31.8336 -9.7034 -2.4401 0.8750
33.8922 -3.9319 -2.5017 0.8721
34.0875 -1.4786 -2.5017 0.8721
34.1054 0.9825 -2.5017 0.8721
33.9458 3.4385 -2.5017 0.8721
33.6096 5.8766 -2.5017 0.8721
31.3522 6.6554 -2.3500 0.8794
30.1223 11.1141 -2.3542 0.8792
28.2022 15.3252 -2.3534 0.8792
27.0200 17.3158 -2.3531 0.8792
24.2425 21.0154 -2.3524 0.8793
23.4689 21.8762 -2.3524 0.8793
22.6644 22.7082 -2.3524 0.8793
21.8305 23.5106 -2.3524 0.8793
20.9682 24.2825 -2.3524 0.8793
18.2204 26.4018 -2.3521 0.8793
17.2536 27.0376 -2.3517 0.8793
15.2550 28.2024 -2.3510 0.8793
13.1785 29.2202 -2.3503 0.8794
12.1143 29.6723 -2.3500 0.8794
11.0348 30.0858 -2.3497 0.8794
9.9410 30.4596 -2.3493 0.8794
6.5947 31.3641 -2.3500 0.8794
5.4597 31.5844 -2.3502 0.8794
1.2657 9.3118 -0.6890 0.9630
0.8615 32.0513 -2.3509 0.8793
-0.2948 32.0396 -2.3493 0.8794
-0.6776 14.9551 -1.0977 0.9417
-1.5119 12.8160 -0.9462 0.9496
-6.4295 33.5082 -2.5017 0.8721
-8.8282 32.9576 -2.5017 0.8721
-10.0112 32.6177 -2.5017 0.8721
-11.1811 32.2354 -2.5017 0.8721
-12.3364 31.8113 -2.5017 0.8721
-14.5974 30.8392 -2.5017 0.8721
-15.7002 30.2926 -2.5017 0.8721
-16.7826 29.7066 -2.5017 0.8721
-17.8431 29.0820 -2.5017 0.8721
-21.8396 26.2140 -2.5017 0.8721
-22.7708 25.4093 -2.5017 0.8721
-24.5432 23.7018 -2.5017 0.8721
-25.3821 22.8011 -2.5017 0.8721
-25.8045 21.5506 -2.4651 0.8739
-26.6671 17.7621 -2.3493 0.8794
24.6357 -8.4919 -2.5017 0.9006
25.6008 -4.8611 -2.5017 0.9006
25.8846 -3.0030 -2.5017 0.9006
26.0337 -1.1292 -2.5017 0.9006
25.8139 3.5594 -2.5017 0.9006
25.4902 5.4110 -2.5017 0.9006
24.7763 6.2011 -2.4520 0.9025
23.0099 8.4898 -2.3546 0.9061
20.7570 8.5212 -2.1542 0.9138
21.9542 10.9235 -2.3542 0.9062
21.5447 11.7076 -2.3541 0.9062
21.1073 12.4763 -2.3539 0.9062
20.1507 13.9638 -2.3537 0.9062
18.5217 16.0561 -2.3533 0.9062
17.3148 17.3482 -2.3531 0.9062
16.6778 17.9613 -2.3531 0.9062
16.0190 18.5510 -2.3531 0.9062
15.3394 19.1166 -2.3531 0.9062
14.6399 19.6574 -2.3531 0.9062
9.2584 22.6771 -2.3516 0.9063
8.4336 22.9940 -2.3513 0.9063
5.8990 23.7633 -2.3506 0.9063
5.0376 23.9584 -2.3504 0.9063
4.1698 24.1224 -2.3502 0.9063
1.2657 9.3118 -0.9022 0.9629
2.4197 24.3562 -2.3498 0.9063
1.5396 24.4258 -2.3496 0.9063
0.6576 24.4636 -2.3495 0.9063
-0.2252 24.4697 -2.3493 0.9063
-0.6776 14.9551 -1.4372 0.9416
-1.0441 12.8060 -1.2335 0.9497
-6.7424 25.1708 -2.5017 0.9006
-9.4217 24.2953 -2.5017 0.9006
-10.2918 23.9397 -2.5017 0.9006
-12.8174 22.6879 -2.5017 0.9006
-13.6273 22.2109 -2.5017 0.9006
-17.3908 19.4059 -2.5017 0.9006
-18.0794 18.7661 -2.5017 0.9006
-20.5900 15.9713 -2.5017 0.9006
-21.1526 15.2183 -2.5017 0.9006
19.9110 -6.8633 -2.5017 0.9187
20.5358 -4.6725 -2.5017 0.9187
20.6910 -3.9288 -2.5017 0.9187
20.8192 -3.1800 -2.5017 0.9187
20.9943 -1.6709 -2.5017 0.9187
21.0602 -0.1532 -2.5017 0.9187
20.9535 2.1225 -2.5017 0.9187
20.8633 2.8768 -2.5017 0.9187
20.7460 3.6274 -2.5017 0.9187
20.4305 5.1134 -2.5017 0.9187
20.2328 5.8470 -2.5017 0.9187
18.3196 7.5206 -2.3523 0.9233
17.4158 9.4639 -2.3545 0.9233
16.6867 10.6937 -2.3542 0.9233
14.9730 12.9799 -2.3538 0.9233
12.9493 14.9962 -2.3536 0.9233
12.4000 15.4534 -2.3535 0.9233
10.6583 16.7022 -2.3535 0.9233
10.0485 17.0750 -2.3534 0.9233
9.4252 17.4247 -2.3532 0.9233
8.7899 17.7517 -2.3530 0.9233
8.1432 18.0556 -2.3528 0.9233
6.8193 18.5924 -2.3524 0.9233
5.4604 19.0325 -2.3520 0.9233
4.7700 19.2155 -2.3518 0.9233
3.3720 19.5066 -2.3515 0.9234
1.9568 19.6963 -2.3512 0.9234
0.5318 19.7837 -2.3509 0.9234
-0.1820 19.7769 -2.3493 0.9234
-0.6776 14.9551 -1.7783 0.9415
-1.9777 12.7825 -1.5364 0.9492
-3.9687 20.6834 -2.5017 0.9187
-8.3180 19.3485 -2.5017 0.9187
-12.8884 16.6567 -2.5017 0.9187
-13.4808 16.1809 -2.5017 0.9187
-16.1648 13.5001 -2.5017 0.9187
-17.5284 11.6751 -2.5017 0.9187
16.6925 -5.7539 -2.5017 0.9312
16.8892 -5.1481 -2.5017 0.9312
17.2163 -3.9172 -2.5017 0.9312
17.6007 -1.4008 -2.5017 0.9312
17.6398 -0.7651 -2.5017 0.9312
17.6559 -0.1284 -2.5017 0.9312
17.6490 0.5085 -2.5017 0.9312
17.3925 3.0411 -2.5017 0.9312
17.2715 3.6663 -2.5017 0.9312
17.1280 4.2869 -2.5017 0.9312
16.9623 4.9018 -2.5017 0.9312
16.5648 6.1118 -2.5017 0.9312
14.8618 7.3946 -2.3520 0.9351
14.5943 7.9306 -2.3534 0.9351
14.3060 8.4561 -2.3546 0.9351
12.9395 10.4239 -2.3543 0.9351
12.1536 11.3288 -2.3541 0.9351
11.7367 11.7593 -2.3541 0.9351
9.4359 13.6728 -2.3538 0.9351
8.4257 14.3175 -2.3538 0.9351
7.9036 14.6117 -2.3538 0.9351
6.2778 15.3764 -2.3533 0.9351
5.7187 15.5917 -2.3531 0.9351
5.1523 15.7867 -2.3529 0.9351
4.5792 15.9612 -2.3528 0.9351
2.8279 16.3594 -2.3523 0.9351
1.6411 16.5189 -2.3521 0.9351
1.0442 16.5664 -2.3519 0.9351
0.4455 16.5748 -2.3493 0.9352
-0.1526 16.5800 -2.3493 0.9352
-1.3474 16.5259 -2.3493 0.9352
-1.9777 12.7825 -1.8327 0.9491
-3.3272 17.3400 -2.5017 0.9312
-3.9504 17.2087 -2.5017 0.9312
-4.5685 17.0551 -2.5017 0.9312
-5.1806 16.8792 -2.5017 0.9312
-5.7860 16.6814 -2.5017 0.9312
-6.3839 16.4618 -2.5017 0.9312
-6.9735 16.2209 -2.5017 0.9312
-7.5540 15.9588 -2.5017 0.9312
-8.1246 15.6760 -2.5017 0.9312
-8.6847 15.3728 -2.5017 0.9312
-9.2335 15.0496 -2.5017 0.9312
-10.8050 13.9642 -2.5017 0.9312
-12.2501 12.7154 -2.5017 0.9312
-12.7007 12.2653 -2.5017 0.9312
-13.1349 11.7992 -2.5017 0.9312
-13.5519 11.3178 -2.5017 0.9312
-14.3325 10.3115 -2.5017 0.9312
-14.6950 9.7879 -2.5017 0.9312
14.1691 -5.4634 -2.5017 0.9403
14.3570 -4.9488 -2.5017 0.9403
14.6763 -3.9010 -2.5017 0.9403
14.9193 -2.8329 -2.5017 0.9403
15.0847 -1.7500 -2.5017 0.9403
15.1540 0.9845 -2.5017 0.9403
15.1086 1.5304 -2.5017 0.9403
14.8549 3.1533 -2.5017 0.9403
14.5890 4.2160 -2.5017 0.9403
14.4274 4.7394 -2.5017 0.9403
14.2471 5.2567 -2.5017 0.9403
14.0482 5.7671 -2.5017 0.9403
13.6707 6.1973 -2.4727 0.9410
12.7677 6.3527 -2.3493 0.9438
12.0249 7.7061 -2.3528 0.9437
10.7993 9.3617 -2.3545 0.9437
9.7241 10.4725 -2.3543 0.9437
8.9434 11.1457 -2.3542 0.9437
8.5354 11.4607 -2.3541 0.9437
8.1164 11.7608 -2.3541 0.9437
7.2475 12.3154 -2.3541 0.9437
6.7986 12.5688 -2.3541 0.9437
6.3408 12.8057 -2.3540 0.9437
5.8744 13.0252 -2.3539 0.9437
4.4324 13.5810 -2.3535 0.9437
3.9395 13.7313 -2.3533 0.9437
3.4415 13.8637 -2.3532 0.9437
2.9391 13.9780 -2.3531 0.9437
1.2657 9.3118 -1.5481 0.9626
-0.6455 14.2462 -2.3493 0.9438
-1.6707 14.1626 -2.3493 0.9438
-2.8616 14.9139 -2.5017 0.9403
-3.3977 14.8009 -2.5017 0.9403
-3.9293 14.6688 -2.5017 0.9403
-4.4558 14.5175 -2.5017 0.9403
-4.9765 14.3474 -2.5017 0.9403
-5.4907 14.1585 -2.5017 0.9403
-6.4970 13.7259 -2.5017 0.9403
-6.9879 13.4827 -2.5017 0.9403
-7.4696 13.2219 -2.5017 0.9403
-7.9416 12.9439 -2.5017 0.9403
-8.4033 12.6490 -2.5017 0.9403
-9.7204 11.6674 -2.5017 0.9403
-10.5361 10.9363 -2.5017 0.9403
-10.9237 10.5492 -2.5017 0.9403
-11.6557 9.7343 -2.5017 0.9403
12.4185 -4.7884 -2.5017 0.9473
12.5832 -4.3374 -2.5017 0.9473
13.0761 -2.4829 -2.5017 0.9473
13.2211 -1.5338 -2.5017 0.9473
13.2678 -1.0560 -2.5017 0.9473
13.2973 -0.5768 -2.5017 0.9473
13.2818 0.8629 -2.5017 0.9473
13.2420 1.3413 -2.5017 0.9473
13.1850 1.8180 -2.5017 0.9473
13.1109 2.2924 -2.5017 0.9473
12.9115 3.2316 -2.5017 0.9473
12.6450 4.1539 -2.5017 0.9473
11.9162 5.9290 -2.5017 0.9473
11.4150 6.2030 -2.4419 0.9485
10.5278 6.7467 -2.3503 0.9504
10.0225 7.4944 -2.3523 0.9503
9.7497 7.8542 -2.3532 0.9503
9.1636 8.5416 -2.3546 0.9503
8.5236 9.1796 -2.3545 0.9503
7.8393 9.7697 -2.3544 0.9503
7.4817 10.0459 -2.3544 0.9503
5.1495 11.4177 -2.3543 0.9503
4.7341 11.5954 -2.3541 0.9503
3.8855 11.9052 -2.3539 0.9503
3.4534 12.0370 -2.3538 0.9503
3.0169 12.1531 -2.3536 0.9503
2.5765 12.2535 -2.3535 0.9503
2.1327 12.3379 -2.3534 0.9503
1.2657 9.3118 -1.7664 0.9625
1.2367 12.4483 -2.3513 0.9504
0.7862 12.4742 -2.3493 0.9504
0.3358 12.4945 -2.3493 0.9504
-0.5657 12.4862 -2.3493 0.9504
-1.0157 12.4576 -2.3493 0.9504
-1.9111 12.3520 -2.3493 0.9504
-3.4438 12.8565 -2.5017 0.9473
-3.9053 12.7240 -2.5017 0.9473
-4.3616 12.5748 -2.5017 0.9473
-4.8123 12.4093 -2.5017 0.9473
-5.6944 12.0301 -2.5017 0.9473
-6.1245 11.8169 -2.5017 0.9473
-6.5468 11.5884 -2.5017 0.9473
-6.9605 11.3447 -2.5017 0.9473
-7.7601 10.8134 -2.5017 0.9473
-8.1451 10.5265 -2.5017 0.9473
-8.5195 10.2259 -2.5017 0.9473
-9.2344 9.5852 -2.5017 0.9473
11.3209 -3.4508 -2.5017 0.9528
11.5402 -2.6257 -2.5017 0.9528
11.6274 -2.2078 -2.5017 0.9528
11.6995 -1.7870 -2.5017 0.9528
11.8349 -0.0861 -2.5017 0.9528
11.8103 0.7673 -2.5017 0.9528
11.7749 1.1927 -2.5017 0.9528
11.7242 1.6166 -2.5017 0.9528
11.5772 2.4576 -2.5017 0.9528
11.4810 2.8735 -2.5017 0.9528
11.2440 3.6937 -2.5017 0.9528
11.1035 4.0968 -2.5017 0.9528
10.7793 4.8866 -2.5017 0.9528
10.5961 5.2721 -2.5017 0.9528
10.3990 5.6509 -2.5017 0.9528
10.1884 6.0223 -2.5017 0.9528
9.6825 6.2051 -2.4309 0.9541
9.1352 6.3304 -2.3493 0.9556
8.6609 6.9771 -2.3509 0.9555
8.1411 7.5886 -2.3525 0.9555
6.3267 9.1676 -2.3545 0.9555
5.6492 9.5995 -2.3544 0.9555
5.2992 9.7969 -2.3544 0.9555
4.9424 9.9815 -2.3544 0.9555
4.5792 10.1533 -2.3544 0.9555
3.8353 10.4567 -2.3543 0.9555
3.4555 10.5877 -2.3542 0.9555
3.0712 10.7050 -2.3541 0.9555
2.2914 10.8976 -2.3539 0.9555
1.2657 9.3118 -1.9864 0.9623
1.0990 11.0627 -2.3499 0.9556
0.6991 11.0922 -2.3493 0.9556
0.2986 11.1102 -2.3493 0.9556
-0.1023 11.1137 -2.3493 0.9556
-0.5030 11.1028 -2.3493 0.9556
-1.6993 10.9835 -2.3493 0.9556
-2.0944 10.9151 -2.3493 0.9556
-2.6480 11.5351 -2.5017 0.9528
-3.0623 11.4321 -2.5017 0.9528
-3.4726 11.3142 -2.5017 0.9528
-4.2792 11.0345 -2.5017 0.9528
-5.0635 10.6973 -2.5017 0.9528
-6.5491 9.8580 -2.5017 0.9528
-6.9004 9.6154 -2.5017 0.9528
-7.5756 9.0930 -2.5017 0.9528
-8.8044 7.9091 -2.5017 0.9528
-9.0839 7.5864 -2.5017 0.9528
-9.3516 7.2539 -2.5017 0.9528
-9.6071 6.9119 -2.5017 0.9528
-9.8502 6.5608 -2.5017 0.9528
10.0635 -3.4689 -2.5017 0.9572
10.1820 -3.1036 -2.5017 0.9572
10.2873 -2.7344 -2.5017 0.9572
10.4577 -1.9857 -2.5017 0.9572
10.5736 -1.2267 -2.5017 0.9572
10.6110 -0.8446 -2.5017 0.9572
10.6346 -0.4613 -2.5017 0.9572
10.6401 0.3066 -2.5017 0.9572
10.5448 1.4540 -2.5017 0.9572
10.4125 2.2103 -2.5017 0.9572
10.3260 2.5844 -2.5017 0.9572
10.1129 3.3221 -2.5017 0.9572
9.8471 4.0425 -2.5017 0.9572
9.3529 5.0824 -2.5017 0.9572
8.9622 5.7434 -2.5017 0.9572
8.2972 6.2043 -2.4349 0.9583
7.7844 6.2710 -2.3493 0.9598
7.5546 6.5489 -2.3498 0.9598
7.3157 6.8192 -2.3505 0.9597
7.0671 7.0807 -2.3512 0.9597
6.8091 7.3331 -2.3518 0.9597
6.5419 7.5760 -2.3525 0.9597
6.2661 7.8091 -2.3531 0.9597
5.3895 8.4457 -2.3546 0.9597
4.7665 8.8120 -2.3546 0.9597
4.4455 8.9780 -2.3545 0.9597
4.1188 9.1324 -2.3545 0.9597
1.2657 9.3118 -2.2086 0.9621
0.9882 9.9471 -2.3493 0.9598
0.6288 9.9763 -2.3493 0.9598
-1.8837 9.8170 -2.3493 0.9598
-2.3816 10.3747 -2.5017 0.9572
-3.1233 10.1760 -2.5017 0.9572
-3.8487 9.9244 -2.5017 0.9572
-5.5667 9.0730 -2.5017 0.9572
-5.8903 8.8663 -2.5017 0.9572
-6.2062 8.6481 -2.5017 0.9572
-6.8135 8.1782 -2.5017 0.9572
-7.3853 7.6658 -2.5017 0.9572
-7.9187 7.1135 -2.5017 0.9572
-8.1701 6.8233 -2.5017 0.9572
-8.4108 6.5241 -2.5017 0.9572
-8.8593 5.9009 -2.5017 0.9572
9.0152 -3.4761 -2.5017 0.9609
9.1347 -3.1487 -2.5017 0.9609
9.2424 -2.8172 -2.5017 0.9609
9.3380 -2.4821 -2.5017 0.9609
9.4214 -2.1437 -2.5017 0.9609
9.4926 -1.8025 -2.5017 0.9609
9.5514 -1.4589 -2.5017 0.9609
9.5978 -1.1135 -2.5017 0.9609
9.6317 -0.7666 -2.5017 0.9609
9.6419 0.6264 -2.5017 0.9609
9.5716 1.3198 -2.5017 0.9609
9.2824 2.6825 -2.5017 0.9609
9.1796 3.0155 -2.5017 0.9609
9.0649 3.3446 -2.5017 0.9609
8.4897 4.6134 -2.5017 0.9609
8.1352 5.2133 -2.5017 0.9609
7.7381 5.7862 -2.5017 0.9609
7.5244 6.0615 -2.5017 0.9609
7.1535 6.2013 -2.4512 0.9616
6.4101 6.4225 -2.3494 0.9632
6.1759 6.6512 -2.3500 0.9632
5.1601 7.4771 -2.3522 0.9632
4.0343 8.1476 -2.3540 0.9631
3.4374 8.4195 -2.3546 0.9631
3.1315 8.5379 -2.3546 0.9631
2.5079 8.7413 -2.3546 0.9631
2.1909 8.8258 -2.3545 0.9631
1.8699 8.8930 -2.3529 0.9631
1.2222 8.9920 -2.3496 0.9632
0.8970 9.0292 -2.3493 0.9632
-0.0835 9.0732 -2.3493 0.9632
-0.4107 9.0643 -2.3493 0.9632
-1.3873 8.9669 -2.3493 0.9632
-1.7098 8.9111 -2.3493 0.9632
-2.1537 9.3820 -2.4924 0.9610
-2.8350 9.2369 -2.5017 0.9609
-3.1663 9.1287 -2.5017 0.9609
-3.4935 9.0085 -2.5017 0.9609
-4.4461 8.5785 -2.5017 0.9609
-5.0529 8.2357 -2.5017 0.9609
-6.1847 7.4235 -2.5017 0.9609
-6.4484 7.1956 -2.5017 0.9609
-7.1879 6.4570 -2.5017 0.9609
-7.8433 5.6429 -2.5017 0.9609
8.4531 -2.5766 -2.5017 0.9639
8.5405 -2.2701 -2.5017 0.9639
8.6168 -1.9606 -2.5017 0.9639
8.6820 -1.6485 -2.5017 0.9639
8.7358 -1.3343 -2.5017 0.9639
8.8288 -0.3830 -2.5017 0.9639
8.8369 -0.0643 -2.5017 0.9639
8.8334 0.2545 -2.5017 0.9639
8.7543 1.2071 -2.5017 0.9639
8.7050 1.5221 -2.5017 0.9639
8.4897 2.4534 -2.5017 0.9639
8.3957 2.7580 -2.5017 0.9639
8.0487 3.6487 -2.5017 0.9639
7.9118 3.9366 -2.5017 0.9639
7.7647 4.2194 -2.5017 0.9639
7.6075 4.4967 -2.5017 0.9639
7.4403 4.7682 -2.5017 0.9639
7.0773 5.2921 -2.5017 0.9639
6.8818 5.5439 -2.5017 0.9639
5.7670 6.2109 -2.3994 0.9654
5.1942 6.4732 -2.3496 0.9661
4.9584 6.6578 -2.3500 0.9661
4.7160 6.8336 -2.3505 0.9661
4.4673 7.0006 -2.3510 0.9661
4.2127 7.1585 -2.3514 0.9661
3.6869 7.4460 -2.3521 0.9660
3.4165 7.5752 -2.3525 0.9660
3.1414 7.6945 -2.3528 0.9660
1.4136 8.1775 -2.3493 0.9661
0.8204 8.2581 -2.3493 0.9661
0.5220 8.2823 -2.3493 0.9661
-2.2866 8.5362 -2.5017 0.9639
-3.1952 8.2392 -2.5017 0.9639
-3.4903 8.1187 -2.5017 0.9639
-3.7808 7.9875 -2.5017 0.9639
-4.0664 7.8459 -2.5017 0.9639
-4.8901 7.3608 -2.5017 0.9639
-5.4080 6.9891 -2.5017 0.9639
-5.8977 6.5811 -2.5017 0.9639
-6.3568 6.1388 -2.5017 0.9639
-6.7828 5.6646 -2.5017 0.9639
-6.9827 5.4163 -2.5017 0.9639
7.5890 -2.9262 -2.5017 0.9665
7.6896 -2.6506 -2.5017 0.9665
7.9908 -1.5173 -2.5017 0.9665
8.0794 -0.9373 -2.5017 0.9665
8.1302 0.2342 -2.5017 0.9665
8.0573 1.1110 -2.5017 0.9665
7.8902 1.9748 -2.5017 0.9665
7.8139 2.2581 -2.5017 0.9665
7.5242 3.0889 -2.5017 0.9665
7.4079 3.3582 -2.5017 0.9665
7.0019 4.1388 -2.5017 0.9665
6.8480 4.3886 -2.5017 0.9665
6.6853 4.6327 -2.5017 0.9665
6.5139 4.8708 -2.5017 0.9665
6.3340 5.1026 -2.5017 0.9665
6.1458 5.3277 -2.5017 0.9665
5.9497 5.5459 -2.5017 0.9665
4.9768 6.2023 -2.4459 0.9673
4.6278 6.2139 -2.3831 0.9681
4.3384 6.2864 -2.3493 0.9685
4.1091 6.4392 -2.3495 0.9685
3.8748 6.5843 -2.3498 0.9685
2.8893 7.0770 -2.3512 0.9685
2.6325 7.1774 -2.3514 0.9685
2.3722 7.2685 -2.3517 0.9685
2.1064 7.3419 -2.3493 0.9685
1.5716 7.4747 -2.3493 0.9685
1.0287 7.5685 -2.3493 0.9685
0.7551 7.6007 -2.3493 0.9685
0.4805 7.6230 -2.3493 0.9685
-0.0703 7.6378 -2.3493 0.9685
-0.3457 7.6303 -2.3493 0.9685
-0.8948 7.5855 -2.3493 0.9685
-1.2096 7.8181 -2.4333 0.9674
-2.1045 7.8566 -2.5017 0.9665
-2.3865 7.7756 -2.5017 0.9665
-2.6654 7.6845 -2.5017 0.9665
-3.2124 7.4723 -2.5017 0.9665
-4.7422 6.6081 -2.5017 0.9665
-5.4282 6.0572 -2.5017 0.9665
-5.6431 5.8575 -2.5017 0.9665
-6.0507 5.4355 -2.5017 0.9665
-6.2428 5.2137 -2.5017 0.9665
-6.6024 4.7501 -2.5017 0.9665
7.0222 -2.7076 -2.5017 0.9688
7.1991 -2.1944 -2.5017 0.9688
7.2735 -1.9333 -2.5017 0.9688
7.3940 -1.4040 -2.5017 0.9688
7.5024 -0.5971 -2.5017 0.9688
7.5230 0.2167 -2.5017 0.9688
7.4878 0.7585 -2.5017 0.9688
7.4556 1.0280 -2.5017 0.9688
7.3009 1.8273 -2.5017 0.9688
7.2302 2.0895 -2.5017 0.9688
7.1502 2.3488 -2.5017 0.9688
7.0608 2.6052 -2.5017 0.9688
6.8546 3.1074 -2.5017 0.9688
6.7381 3.3526 -2.5017 0.9688
6.1860 4.2867 -2.5017 0.9688
5.6868 4.9298 -2.5017 0.9688
5.1210 5.5152 -2.5017 0.9688
4.9188 5.6963 -2.5017 0.9688
4.7101 5.8700 -2.5017 0.9688
4.4954 6.0361 -2.5017 0.9688
3.9579 6.2023 -2.4457 0.9695
3.1362 6.3337 -2.3493 0.9706
2.6719 6.5445 -2.3497 0.9706
2.4344 6.6373 -2.3500 0.9706
1.9491 6.7936 -2.3493 0.9706
1.7028 6.8594 -2.3493 0.9706
1.2039 6.9644 -2.3493 0.9706
0.9519 7.0032 -2.3493 0.9706
0.6987 7.0330 -2.3493 0.9706
0.4446 7.0536 -2.3493 0.9706
0.1899 7.0651 -2.3493 0.9706
-0.0650 7.0673 -2.3493 0.9706
-0.3199 7.0604 -2.3493 0.9706
-0.5889 7.2234 -2.4091 0.9699
-1.1507 7.4376 -2.5017 0.9688
-1.4182 7.3913 -2.5017 0.9688
-1.9473 7.2698 -2.5017 0.9688
-2.2083 7.1948 -2.5017 0.9688
-2.4663 7.1105 -2.5017 0.9688
-2.7212 7.0170 -2.5017 0.9688
-2.9725 6.9143 -2.5017 0.9688
-3.4632 6.6820 -2.5017 0.9688
-3.7019 6.5527 -2.5017 0.9688
-4.3880 6.1145 -2.5017 0.9688
-4.8174 5.7823 -2.5017 0.9688
-5.0228 5.6048 -2.5017 0.9688
-5.2217 5.4200 -2.5017 0.9688
-5.4137 5.2282 -2.5017 0.9688
-5.5988 5.0295 -2.5017 0.9688
-5.9468 4.6128 -2.5017 0.9688
-6.1093 4.3953 -2.5017 0.9688
6.5273 -2.5168 -2.5017 0.9707
6.6917 -2.0397 -2.5017 0.9707
6.7609 -1.7971 -2.5017 0.9707
6.8214 -1.5521 -2.5017 0.9707
6.9155 -1.0563 -2.5017 0.9707
6.9491 -0.8062 -2.5017 0.9707
6.9955 -0.0509 -2.5017 0.9707
6.9810 0.4535 -2.5017 0.9707
6.8912 1.2049 -2.5017 0.9707
6.8432 1.4526 -2.5017 0.9707
6.7864 1.6985 -2.5017 0.9707
6.6463 2.1833 -2.5017 0.9707
6.5632 2.4216 -2.5017 0.9707
6.3716 2.8884 -2.5017 0.9707
5.8900 3.7746 -2.5017 0.9707
5.7500 3.9846 -2.5017 0.9707
5.6026 4.1894 -2.5017 0.9707
5.4478 4.3887 -2.5017 0.9707
5.2860 4.5824 -2.5017 0.9707
4.7602 5.1265 -2.5017 0.9707
4.1786 5.6107 -2.5017 0.9707
3.9735 5.7577 -2.5017 0.9707
3.7633 5.8973 -2.5017 0.9707
3.5481 6.0292 -2.5017 0.9707
2.5357 6.2109 -2.3991 0.9719
2.2801 6.2167 -2.3680 0.9723
2.0383 6.2454 -2.3493 0.9725
1.8117 6.3148 -2.3493 0.9725
1.5828 6.3760 -2.3493 0.9725
1.3518 6.4290 -2.3493 0.9725
0.6495 6.5374 -2.3493 0.9725
-0.0629 6.8356 -2.4446 0.9714
-0.3166 6.9885 -2.5017 0.9707
-0.5685 6.9726 -2.5017 0.9707
-0.8196 6.9475 -2.5017 0.9707
-1.3183 6.8704 -2.5017 0.9707
-1.5652 6.8184 -2.5017 0.9707
-1.8101 6.7575 -2.5017 0.9707
-2.0526 6.6878 -2.5017 0.9707
-2.7630 6.4270 -2.5017 0.9707
-2.9930 6.3231 -2.5017 0.9707
-3.4410 6.0909 -2.5017 0.9707
-4.0788 5.6836 -2.5017 0.9707
-4.2811 5.5328 -2.5017 0.9707
-4.4779 5.3748 -2.5017 0.9707
-4.6688 5.2098 -2.5017 0.9707
-4.8537 5.0380 -2.5017 0.9707
-5.0322 4.8597 -2.5017 0.9707
-5.6787 4.0856 -2.5017 0.9707
6.0911 -2.3486 -2.5017 0.9724
6.1718 -2.1274 -2.5017 0.9724
6.2445 -1.9034 -2.5017 0.9724
6.3091 -1.6770 -2.5017 0.9724
6.3655 -1.4483 -2.5017 0.9724
6.4949 0.6579 -2.5017 0.9724
6.4670 0.8917 -2.5017 0.9724
6.3859 1.3556 -2.5017 0.9724
6.3328 1.5850 -2.5017 0.9724
6.2716 1.8124 -2.5017 0.9724
6.1246 2.2598 -2.5017 0.9724
6.0391 2.4792 -2.5017 0.9724
5.7360 3.1170 -2.5017 0.9724
5.4964 3.5223 -2.5017 0.9724
5.3658 3.7183 -2.5017 0.9724
5.0838 4.0954 -2.5017 0.9724
4.9327 4.2761 -2.5017 0.9724
4.7753 4.4512 -2.5017 0.9724
4.4420 4.7839 -2.5017 0.9724
4.0856 5.0917 -2.5017 0.9724
3.8997 5.2357 -2.5017 0.9724
3.1059 5.7420 -2.5017 0.9724
2.2479 6.1289 -2.5017 0.9724
1.7830 6.2149 -2.4777 0.9727
1.3221 6.2881 -2.4624 0.9729
1.0961 6.3409 -2.4660 0.9728
0.8705 6.4047 -2.4770 0.9727
0.6436 6.4780 -2.4947 0.9725
0.1754 6.5258 -2.5017 0.9724
-0.0601 6.5279 -2.5017 0.9724
-0.5305 6.5066 -2.5017 0.9724
-1.9155 6.2408 -2.5017 0.9724
-2.3604 6.0865 -2.5017 0.9724
-2.5783 5.9975 -2.5017 0.9724
-3.4140 5.5643 -2.5017 0.9724
-3.6124 5.4376 -2.5017 0.9724
-3.8062 5.3038 -2.5017 0.9724
-3.9950 5.1631 -2.5017 0.9724
-4.1786 5.0156 -2.5017 0.9724
-4.3568 4.8616 -2.5017 0.9724
-4.6959 4.5349 -2.5017 0.9724
-4.8564 4.3626 -2.5017 0.9724
-5.2992 3.8125 -2.5017 0.9724
5.7033 -2.1991 -2.5017 0.9739
5.7789 -1.9920 -2.5017 0.9739
5.8470 -1.7823 -2.5017 0.9739
5.9074 -1.5702 -2.5017 0.9739
5.9602 -1.3561 -2.5017 0.9739
6.0053 -1.1403 -2.5017 0.9739
6.0425 -0.9229 -2.5017 0.9739
6.1124 -0.0445 -2.5017 0.9739
6.1100 0.1760 -2.5017 0.9739
6.0814 0.6160 -2.5017 0.9739
6.0553 0.8349 -2.5017 0.9739
6.0212 1.0528 -2.5017 0.9739
5.9793 1.2693 -2.5017 0.9739
5.9297 1.4841 -2.5017 0.9739
5.7347 2.1159 -2.5017 0.9739
5.6546 2.3213 -2.5017 0.9739
5.1464 3.2981 -2.5017 0.9739
4.7601 3.8347 -2.5017 0.9739
4.6187 4.0039 -2.5017 0.9739
4.3181 4.3264 -2.5017 0.9739
4.1592 4.4793 -2.5017 0.9739
3.9950 4.6264 -2.5017 0.9739
3.6511 4.9024 -2.5017 0.9739
3.4719 5.0309 -2.5017 0.9739
3.2882 5.1528 -2.5017 0.9739
3.1002 5.2680 -2.5017 0.9739
2.9082 5.3764 -2.5017 0.9739
2.3104 5.6591 -2.5017 0.9739
1.6857 5.8755 -2.5017 0.9739
1.4727 5.9325 -2.5017 0.9739
1.0412 6.0232 -2.5017 0.9739
-0.2767 6.1063 -2.5017 0.9739
-0.9346 6.0407 -2.5017 0.9739
-1.1519 6.0031 -2.5017 0.9739
-2.2101 5.6990 -2.5017 0.9739
-2.8127 5.4270 -2.5017 0.9739
-3.0066 5.3220 -2.5017 0.9739
-3.3824 5.0914 -2.5017 0.9739
-3.5639 4.9661 -2.5017 0.9739
-3.7407 4.8343 -2.5017 0.9739
-3.9126 4.6963 -2.5017 0.9739
-4.0794 4.5521 -2.5017 0.9739
-4.6916 3.9182 -2.5017 0.9739
-4.8299 3.7464 -2.5017 0.9739
5.3559 -2.0652 -2.5017 0.9753
5.4269 -1.8706 -2.5017 0.9753
5.4909 -1.6737 -2.5017 0.9753
5.5972 -1.2735 -2.5017 0.9753
5.6395 -1.0708 -2.5017 0.9753
5.6745 -0.8667 -2.5017 0.9753
5.7020 -0.6615 -2.5017 0.9753
5.7222 -0.4554 -2.5017 0.9753
5.7349 -0.2487 -2.5017 0.9753
5.7379 0.1653 -2.5017 0.9753
5.7282 0.3721 -2.5017 0.9753
5.3854 1.9870 -2.5017 0.9753
5.1393 2.5571 -2.5017 0.9753
5.0437 2.7408 -2.5017 0.9753
4.9416 2.9209 -2.5017 0.9753
4.8330 3.0972 -2.5017 0.9753
4.7182 3.2695 -2.5017 0.9753
4.4702 3.6011 -2.5017 0.9753
4.3374 3.7600 -2.5017 0.9753
4.1990 3.9140 -2.5017 0.9753
4.0551 4.0629 -2.5017 0.9753
3.9059 4.2065 -2.5017 0.9753
3.7517 4.3447 -2.5017 0.9753
3.5925 4.4771 -2.5017 0.9753
3.4287 4.6038 -2.5017 0.9753
3.0879 4.8390 -2.5017 0.9753
2.5472 5.1442 -2.5017 0.9753
1.9766 5.3892 -2.5017 0.9753
1.3830 5.5712 -2.5017 0.9753
0.9778 5.6564 -2.5017 0.9753
0.7731 5.6880 -2.5017 0.9753
0.5675 5.7122 -2.5017 0.9753
0.3611 5.7289 -2.5017 0.9753
0.1542 5.7382 -2.5017 0.9753
-0.6725 5.7007 -2.5017 0.9753
-0.8777 5.6728 -2.5017 0.9753
-1.2843 5.5948 -2.5017 0.9753
-1.4853 5.5448 -2.5017 0.9753
-1.6843 5.4877 -2.5017 0.9753
-2.2672 5.2736 -2.5017 0.9753
-2.4559 5.1884 -2.5017 0.9753
-2.8235 4.9979 -2.5017 0.9753
-3.0019 4.8927 -2.5017 0.9753
-3.3468 4.6637 -2.5017 0.9753
-3.6743 4.4103 -2.5017 0.9753
-4.1292 3.9876 -2.5017 0.9753
-4.4059 3.6796 -2.5017 0.9753
-4.5357 3.5183 -2.5017 0.9753
-4.6597 3.3524 -2.5017 0.9753
5.3097 -1.0082 -2.5017 0.9765
5.3876 -0.4288 -2.5017 0.9765
5.3995 -0.2342 -2.5017 0.9765
5.3771 0.5447 -2.5017 0.9765
5.3540 0.7383 -2.5017 0.9765
5.2868 1.1223 -2.5017 0.9765
5.2429 1.3122 -2.5017 0.9765
5.1922 1.5004 -2.5017 0.9765
5.1347 1.6867 -2.5017 0.9765
5.0705 1.8708 -2.5017 0.9765
4.9997 2.0525 -2.5017 0.9765
4.7488 2.5805 -2.5017 0.9765
4.6526 2.7501 -2.5017 0.9765
4.5504 2.9161 -2.5017 0.9765
4.4423 3.0783 -2.5017 0.9765
4.2088 3.3906 -2.5017 0.9765
3.9534 3.6852 -2.5017 0.9765
3.8180 3.8253 -2.5017 0.9765
3.6775 3.9605 -2.5017 0.9765
3.5323 4.0906 -2.5017 0.9765
3.3824 4.2154 -2.5017 0.9765
3.2282 4.3346 -2.5017 0.9765
2.9073 4.5560 -2.5017 0.9765
2.7411 4.6579 -2.5017 0.9765
1.4904 5.1950 -2.5017 0.9765
1.3021 5.2454 -2.5017 0.9765
0.7279 5.3554 -2.5017 0.9765
0.3400 5.3939 -2.5017 0.9765
0.1452 5.4027 -2.5017 0.9765
-0.0497 5.4044 -2.5017 0.9765
-0.2446 5.3991 -2.5017 0.9765
-0.4392 5.3867 -2.5017 0.9765
-1.2092 5.2676 -2.5017 0.9765
-1.7711 5.1062 -2.5017 0.9765
-2.1346 4.9652 -2.5017 0.9765
-2.8264 4.6067 -2.5017 0.9765
-2.9907 4.5017 -2.5017 0.9765
-3.1511 4.3909 -2.5017 0.9765
-3.4594 4.1524 -2.5017 0.9765
-3.7498 3.8922 -2.5017 0.9765
-4.0206 3.6118 -2.5017 0.9765
-4.2705 3.3125 -2.5017 0.9765
4.7586 -1.8348 -2.5017 0.9775
4.8217 -1.6620 -2.5017 0.9775
4.8785 -1.4870 -2.5017 0.9775
4.9290 -1.3101 -2.5017 0.9775
4.9730 -1.1315 -2.5017 0.9775
5.0106 -0.9514 -2.5017 0.9775
5.0416 -0.7701 -2.5017 0.9775
5.0661 -0.5877 -2.5017 0.9775
5.0953 -0.2210 -2.5017 0.9775
5.0741 0.5140 -2.5017 0.9775
5.0523 0.6967 -2.5017 0.9775
4.9889 1.0590 -2.5017 0.9775
4.9475 1.2383 -2.5017 0.9775
4.8454 1.5917 -2.5017 0.9775
4.7180 1.9369 -2.5017 0.9775
4.5661 2.2719 -2.5017 0.9775
4.4812 2.4351 -2.5017 0.9775
4.3905 2.5952 -2.5017 0.9775
4.2940 2.7518 -2.5017 0.9775
4.1920 2.9049 -2.5017 0.9775
4.0845 3.0542 -2.5017 0.9775
3.9717 3.1995 -2.5017 0.9775
3.6028 3.6098 -2.5017 0.9775
3.4703 3.7374 -2.5017 0.9775
3.1919 3.9778 -2.5017 0.9775
3.0463 4.0904 -2.5017 0.9775
2.8968 4.1976 -2.5017 0.9775
2.7435 4.2993 -2.5017 0.9775
2.5867 4.3955 -2.5017 0.9775
2.4265 4.4859 -2.5017 0.9775
2.2631 4.5705 -2.5017 0.9775
2.0968 4.6491 -2.5017 0.9775
1.9277 4.7217 -2.5017 0.9775
1.7562 4.7882 -2.5017 0.9775
0.3208 5.0900 -2.5017 0.9775
0.1370 5.0983 -2.5017 0.9775
-0.0469 5.0999 -2.5017 0.9775
-0.2308 5.0949 -2.5017 0.9775
-0.4144 5.0832 -2.5017 0.9775
-0.7798 5.0401 -2.5017 0.9775
-0.9611 5.0087 -2.5017 0.9775
-1.1411 4.9708 -2.5017 0.9775
-1.4964 4.8756 -2.5017 0.9775
-1.8440 4.7551 -2.5017 0.9775
-2.1820 4.6098 -2.5017 0.9775
-2.6671 4.3471 -2.5017 0.9775
-2.9736 4.1435 -2.5017 0.9775
-3.2645 3.9184 -2.5017 0.9775
-3.4037 3.7981 -2.5017 0.9775
-3.6687 3.5429 -2.5017 0.9775
-3.7940 3.4082 -2.5017 0.9775
-3.9145 3.2692 -2.5017 0.9775
-4.0299 3.1259 -2.5017 0.9775
-4.1400 2.9785 -2.5017 0.9775
-4.2447 2.8273 -2.5017 0.9775
4.5591 -1.5715 -2.5017 0.9785
4.6128 -1.4061 -2.5017 0.9785
4.7021 -1.0699 -2.5017 0.9785
4.7377 -0.8996 -2.5017 0.9785
4.7670 -0.7281 -2.5017 0.9785
4.7902 -0.5557 -2.5017 0.9785
4.8178 -0.2090 -2.5017 0.9785
4.7172 1.0013 -2.5017 0.9785
4.6780 1.1708 -2.5017 0.9785
4.6327 1.3388 -2.5017 0.9785
4.5242 1.6693 -2.5017 0.9785
4.4610 1.8313 -2.5017 0.9785
4.0601 2.6019 -2.5017 0.9785
3.7553 3.0253 -2.5017 0.9785
3.6438 3.1587 -2.5017 0.9785
3.1517 3.6499 -2.5017 0.9785
3.0180 3.7612 -2.5017 0.9785
2.8804 3.8676 -2.5017 0.9785
2.4458 4.1561 -2.5017 0.9785
2.2943 4.2416 -2.5017 0.9785
2.1398 4.3216 -2.5017 0.9785
1.9826 4.3959 -2.5017 0.9785
1.8227 4.4646 -2.5017 0.9785
1.4962 4.5844 -2.5017 0.9785
1.3299 4.6353 -2.5017 0.9785
0.9923 4.7191 -2.5017 0.9785
0.6495 4.7784 -2.5017 0.9785
0.4767 4.7987 -2.5017 0.9785
-0.0444 4.8221 -2.5017 0.9785
-1.0789 4.7000 -2.5017 0.9785
-1.2477 4.6581 -2.5017 0.9785
-1.4149 4.6101 -2.5017 0.9785
-1.5803 4.5560 -2.5017 0.9785
-1.7436 4.4961 -2.5017 0.9785
-2.0631 4.3587 -2.5017 0.9785
-2.2190 4.2815 -2.5017 0.9785
-2.3720 4.1986 -2.5017 0.9785
-2.5219 4.1104 -2.5017 0.9785
-2.6685 4.0167 -2.5017 0.9785
-2.8116 3.9179 -2.5017 0.9785
-3.2183 3.5912 -2.5017 0.9785
-3.4688 3.3499 -2.5017 0.9785
-3.8104 2.9557 -2.5017 0.9785
-4.0135 2.6733 -2.5017 0.9785
4.3183 -1.4885 -2.5017 0.9794
4.4538 -1.0134 -2.5017 0.9794
4.5372 -0.5264 -2.5017 0.9794
4.5532 -0.3624 -2.5017 0.9794
4.5675 -0.0332 -2.5017 0.9794
4.5657 0.1315 -2.5017 0.9794
4.5444 0.4603 -2.5017 0.9794
4.4681 0.9485 -2.5017 0.9794
4.4310 1.1090 -2.5017 0.9794
4.3881 1.2681 -2.5017 0.9794
4.3395 1.4255 -2.5017 0.9794
4.2853 1.5811 -2.5017 0.9794
4.2254 1.7346 -2.5017 0.9794
4.0894 2.0347 -2.5017 0.9794
3.8457 2.4645 -2.5017 0.9794
3.5570 2.8655 -2.5017 0.9794
3.4514 2.9919 -2.5017 0.9794
3.1080 3.3472 -2.5017 0.9794
2.7283 3.6633 -2.5017 0.9794
2.5944 3.7593 -2.5017 0.9794
2.4571 3.8505 -2.5017 0.9794
1.7265 4.2288 -2.5017 0.9794
1.5729 4.2883 -2.5017 0.9794
1.2596 4.3905 -2.5017 0.9794
1.1005 4.4331 -2.5017 0.9794
0.9399 4.4699 -2.5017 0.9794
0.2873 4.5586 -2.5017 0.9794
0.1227 4.5660 -2.5017 0.9794
-0.2067 4.5629 -2.5017 0.9794
-0.3712 4.5525 -2.5017 0.9794
-0.5351 4.5362 -2.5017 0.9794
-0.6984 4.5139 -2.5017 0.9794
-0.8607 4.4858 -2.5017 0.9794
-1.0220 4.4519 -2.5017 0.9794
-1.1819 4.4121 -2.5017 0.9794
-1.3402 4.3666 -2.5017 0.9794
-1.6515 4.2586 -2.5017 0.9794
-1.8040 4.1963 -2.5017 0.9794
-1.9542 4.1285 -2.5017 0.9794
-2.1018 4.0553 -2.5017 0.9794
-2.2467 3.9769 -2.5017 0.9794
-2.6631 3.7109 -2.5017 0.9794
-2.7952 3.6125 -2.5017 0.9794
-2.9237 3.5093 -2.5017 0.9794
-3.1691 3.2894 -2.5017 0.9794
-3.8016 2.5321 -2.5017 0.9794
4.0966 -1.4121 -2.5017 0.9802
4.1448 -1.2634 -2.5017 0.9802
4.2251 -0.9613 -2.5017 0.9802
4.2834 -0.6543 -2.5017 0.9802
4.3042 -0.4994 -2.5017 0.9802
4.3330 -0.0315 -2.5017 0.9802
4.3110 0.4367 -2.5017 0.9802
4.2034 1.0521 -2.5017 0.9802
3.7302 2.2049 -2.5017 0.9802
3.5615 2.4680 -2.5017 0.9802
3.3744 2.7183 -2.5017 0.9802
3.2741 2.8383 -2.5017 0.9802
2.9484 3.1753 -2.5017 0.9802
2.8320 3.2796 -2.5017 0.9802
2.7118 3.3796 -2.5017 0.9802
2.4612 3.5663 -2.5017 0.9802
2.3309 3.6527 -2.5017 0.9802
1.9228 3.8832 -2.5017 0.9802
1.7815 3.9499 -2.5017 0.9802
1.6378 4.0117 -2.5017 0.9802
1.4921 4.0681 -2.5017 0.9802
1.3444 4.1192 -2.5017 0.9802
1.0440 4.2055 -2.5017 0.9802
0.5836 4.2936 -2.5017 0.9802
0.2726 4.3245 -2.5017 0.9802
0.1164 4.3315 -2.5017 0.9802
-0.0399 4.3329 -2.5017 0.9802
-0.1961 4.3287 -2.5017 0.9802
-0.6625 4.2822 -2.5017 0.9802
-0.8165 4.2555 -2.5017 0.9802
-1.1212 4.1855 -2.5017 0.9802
-1.2714 4.1424 -2.5017 0.9802
-1.4200 4.0939 -2.5017 0.9802
-1.5667 4.0400 -2.5017 0.9802
-1.8538 3.9165 -2.5017 0.9802
-2.1313 3.7727 -2.5017 0.9802
-2.2660 3.6933 -2.5017 0.9802
-2.5264 3.5204 -2.5017 0.9802
-2.6517 3.4270 -2.5017 0.9802
-3.0063 3.1205 -2.5017 0.9802
-3.1169 3.0101 -2.5017 0.9802
-3.5174 2.5306 -2.5017 0.9802
-3.6064 2.4021 -2.5017 0.9802
