ply
format ascii 1.0
element vertex 1102
property float32 x
property float32 y
property float32 z
property float32 I
end_header
-15.2124 26.9056 5.4500 0.8820
-16.5371 26.9389 5.5737 0.8795
-12.6440 17.6177 3.8237 0.9157
-12.5886 16.2718 3.6276 0.9198
-12.6168 15.1495 3.4763 0.9230
-12.6893 12.2664 3.1120 0.9308
-14.6617 12.2623 3.3702 0.9253
-23.9615 12.4960 4.7651 0.8960
-26.3463 12.5559 5.1461 0.8882
-35.5943 15.4180 6.8397 0.8542
-41.8944 -24.3468 8.5440 0.8213
-35.7559 -24.3769 7.6305 0.8388
-33.5791 -26.6206 7.5558 0.8403
-31.4125 -28.8127 7.5160 0.8410
-26.6734 -28.2555 6.8515 0.8540
-27.0601 -30.8136 7.2310 0.8466
-25.6931 -33.8894 7.4988 0.8414
-23.4764 -36.0875 7.5912 0.8396
-21.7396 -36.2022 7.4459 0.8424
-19.4134 -38.3272 7.5756 0.8399
-17.7310 -38.3695 7.4530 0.8422
-13.6990 -40.6598 7.5654 0.8401
-10.5342 -40.7393 7.4197 0.8429
-9.0026 -40.8210 7.3708 0.8438
-4.3815 -23.9291 4.2895 0.9059
-4.2566 -29.1240 5.1899 0.8873
-4.6515 -42.4429 7.5286 0.8408
-14.0325 24.8187 4.3677 0.8910
-16.5371 26.9389 4.8424 0.8799
-12.5239 18.8461 3.4665 0.9125
-12.6440 17.6177 3.3221 0.9160
-12.6168 15.1495 3.0203 0.9233
-12.6669 13.1582 2.7980 0.9288
-14.6617 12.2623 2.9281 0.9256
-15.6917 12.1921 3.0442 0.9227
-20.1041 12.3990 3.6185 0.9088
-26.2847 12.5265 4.4606 0.8889
-29.1494 12.6263 4.8665 0.8794
-33.2890 9.0299 5.2840 0.8697
-33.8214 -35.8275 7.5478 0.8192
-26.9517 -33.0126 6.5287 0.8416
-26.8650 -35.4350 6.8122 0.8353
-4.3946 -24.0010 3.7379 0.9060
-4.5794 -31.3329 4.8510 0.8797
-4.6415 -42.3524 6.5270 0.8416
-13.9436 26.8737 3.9425 0.8850
-15.1573 26.8082 4.0103 0.8832
-16.5371 26.9389 4.1163 0.8803
-12.5239 18.8461 2.9466 0.9128
-12.5578 17.4977 2.8046 0.9168
-12.6168 15.1495 2.5673 0.9236
-12.6669 13.1582 2.3784 0.9290
-12.6893 12.2664 2.2982 0.9313
-14.6617 12.2623 2.4890 0.9258
-17.0959 12.3234 2.7443 0.9185
-20.1041 12.3990 3.0758 0.9091
-26.2847 12.5266 3.7916 0.8892
-33.3010 9.0332 4.4932 0.8701
-41.3563 -16.6412 5.8051 0.8354
-26.9161 -24.6884 4.7562 0.8630
-27.0671 -30.8215 5.3416 0.8475
-4.7038 -32.1841 4.2356 0.8770
-12.5578 17.4977 2.3127 0.9170
-12.5886 16.2718 2.2092 0.9206
-12.6168 15.1495 2.1171 0.9237
-12.6669 13.1582 1.9613 0.9292
-12.6893 12.2664 1.8952 0.9315
-15.8194 12.2913 2.1512 0.9226
-23.9615 12.4960 2.9019 0.8970
-26.2847 12.5266 3.1266 0.8895
-33.3010 9.0332 3.7052 0.8704
-27.2933 -38.8248 5.0962 0.8262
-7.6016 -18.1354 2.1116 0.9239
-4.3946 -24.0010 2.6201 0.9065
-4.6401 -42.3389 4.5736 0.8425
-13.8931 26.7764 2.5536 0.8859
-15.4371 25.1471 2.4978 0.8883
-12.5239 18.8461 1.9155 0.9132
-12.5886 16.2718 1.7416 0.9207
-12.6428 14.1159 1.6042 0.9268
-12.1202 10.9009 1.3799 0.9367
-12.1257 10.1413 1.3382 0.9385
-15.8863 11.4515 1.6578 0.9244
-16.2878 10.8728 1.6578 0.9244
-21.9032 12.4442 2.1325 0.9038
-23.9615 12.4960 2.2877 0.8972
-26.3462 12.5559 2.4706 0.8894
-29.1494 12.6263 2.6891 0.8803
-33.3010 9.0332 2.9209 0.8707
-7.6009 -18.1338 1.6645 0.9241
-4.3499 -23.7565 2.0445 0.9076
-4.6514 -42.4429 3.6144 0.8425
-12.9868 25.0296 1.7486 0.8931
-15.4215 25.1217 1.8279 0.8886
-12.5056 17.4250 1.3300 0.9176
-12.5886 16.2718 1.2757 0.9209
-11.5326 11.9800 1.0312 0.9355
-11.5428 11.1582 0.9955 0.9377
-14.6617 12.2623 1.1852 0.9263
-17.1847 12.3874 1.3136 0.9186
-22.3708 10.6613 1.5367 0.9055
-33.3010 9.0332 2.1396 0.8709
-27.2394 -23.2377 2.2203 0.8663
-3.5217 -24.0960 1.5101 0.9070
-12.9868 25.0296 1.1119 0.8933
-14.1685 25.0592 1.1351 0.8912
-12.6168 15.1495 0.7774 0.9241
-10.9553 10.5902 0.6008 0.9408
-13.6043 12.2357 0.7215 0.9294
-14.6617 12.2623 0.7537 0.9263
-15.8194 12.2913 0.7899 0.9229
-20.1041 12.3990 0.9314 0.9098
-21.8286 12.4018 0.9899 0.9044
-22.3708 10.6613 0.9771 0.9056
-28.9240 12.5287 1.2429 0.8815
-32.1909 12.5892 1.3629 0.8708
-32.7070 11.4529 1.3665 0.8705
-26.9448 -41.4189 1.9484 0.8205
-11.1834 21.5540 0.4102 0.9074
-12.6440 17.6177 0.3663 0.9169
-12.6168 15.1496 0.3330 0.9242
-12.6669 13.1582 0.3085 0.9295
-10.8345 10.4734 0.2545 0.9415
-20.1041 12.3990 0.3990 0.9098
-21.8286 12.4018 0.4241 0.9044
-23.9897 12.5106 0.4570 0.8974
-22.3708 10.6613 0.4186 0.9056
-32.1909 12.5892 0.5839 0.8709
-33.8530 11.8542 0.6059 0.8663
-33.3010 9.0332 0.5828 0.8711
-26.1976 -24.0293 0.6005 0.8674
-4.3101 -23.5393 0.4042 0.9087
-4.5978 -41.9536 0.7129 0.8446
-11.1835 21.5540 -0.1367 0.9074
-12.1809 21.5439 -0.1393 0.9057
-13.2187 21.5333 -0.1423 0.9039
-12.5056 17.4250 -0.1208 0.9178
-12.5886 16.2718 -0.1158 0.9210
-10.7821 12.0384 -0.0910 0.9374
-12.6669 13.1582 -0.1028 0.9295
-10.8345 10.4734 -0.0848 0.9415
-17.1221 10.5599 -0.1133 0.9227
-20.4074 10.6425 -0.1296 0.9120
-29.1494 12.6263 -0.1789 0.8807
-31.2114 10.9292 -0.1862 0.8761
-39.4598 -17.5522 -0.2432 0.8413
-30.1654 -17.5304 -0.1964 0.8697
-25.6905 -17.5147 -0.1751 0.8830
-22.0847 -17.5081 -0.1587 0.8934
-20.5235 -17.5084 -0.1519 0.8977
-15.3699 -17.5018 -0.1311 0.9110
-14.2851 -17.4976 -0.1272 0.9136
-11.3756 -17.4862 -0.1175 0.9199
-10.5006 -17.4864 -0.1148 0.9217
-8.0773 -17.4791 -0.1084 0.9259
-6.5963 -17.4746 -0.1052 0.9280
-5.1935 -17.4671 -0.1026 0.9297
-4.5161 -17.4653 -0.1016 0.9304
-3.8514 -17.4636 -0.1007 0.9310
-2.5519 -17.4602 -0.0993 0.9318
-0.6500 -17.4553 -0.0983 0.9325
-0.0218 -17.4537 -0.0983 0.9326
-13.2188 21.5333 -0.7115 0.9038
-12.5239 18.8461 -0.6372 0.9134
-10.7821 12.0384 -0.4551 0.9374
-12.6669 13.1582 -0.5143 0.9295
-13.6043 12.2357 -0.5152 0.9294
-12.4932 10.4487 -0.4586 0.9369
-17.0959 12.3234 -0.5934 0.9191
-17.1221 10.5599 -0.5665 0.9227
-18.6824 10.6144 -0.6050 0.9176
-22.3708 10.6613 -0.6977 0.9056
-24.7646 10.7270 -0.7599 0.8976
-27.6122 10.7986 -0.8348 0.8881
-30.9925 10.8525 -0.9246 0.8769
-33.3010 9.0332 -0.9716 0.8710
-43.6494 -17.5639 -1.3248 0.8284
-39.4589 -17.5518 -1.2160 0.8413
-30.1645 -17.5299 -0.9824 0.8697
-27.8026 -17.5242 -0.9254 0.8768
-25.6909 -17.5150 -0.8755 0.8830
-22.0850 -17.5083 -0.7936 0.8933
-20.5244 -17.5091 -0.7596 0.8977
-16.5140 -17.4935 -0.6774 0.9082
-15.3693 -17.5011 -0.6558 0.9110
-10.5002 -17.4856 -0.5743 0.9216
-7.3252 -17.4761 -0.5336 0.9270
-6.5960 -17.4739 -0.5259 0.9280
-5.8866 -17.4718 -0.5191 0.9289
-5.1935 -17.4671 -0.5131 0.9297
-3.8514 -17.4637 -0.5036 0.9309
-2.5519 -17.4603 -0.4969 0.9318
-1.9133 -17.4586 -0.4945 0.9321
-13.2188 21.5334 -1.2814 0.9038
-12.5578 17.4977 -1.0923 0.9174
-12.6168 15.1495 -0.9998 0.9241
-10.7821 12.0384 -0.8196 0.9373
-12.6669 13.1582 -0.9263 0.9295
-10.8345 10.4734 -0.7642 0.9414
-13.0601 11.7463 -0.8908 0.9321
-12.4932 10.4487 -0.8260 0.9369
-13.4397 10.4424 -0.8631 0.9341
-17.0275 10.5016 -1.0146 0.9230
-24.6886 10.6941 -1.3645 0.8978
-27.5276 10.7655 -1.4990 0.8884
-30.9925 10.8525 -1.6653 0.8768
-47.1141 14.6182 -2.5017 0.8207
-48.7233 7.7119 -2.5017 0.8207
-49.1515 4.1899 -2.5017 0.8207
-49.3256 0.6461 -2.5017 0.8207
-49.3169 -1.1281 -2.5017 0.8207
-49.2444 -2.9008 -2.5017 0.8207
-48.9086 -6.4329 -2.5017 0.8207
-48.6456 -8.1875 -2.5017 0.8207
-42.9760 -17.2930 -2.3493 0.8307
-35.9047 -17.5436 -2.0266 0.8521
-32.8384 -17.5354 -1.8879 0.8615
-30.1636 -17.5294 -1.7693 0.8696
-27.8018 -17.5238 -1.6667 0.8767
-19.0837 -17.5042 -1.3133 0.9015
-16.5146 -17.4941 -1.2201 0.9081
-15.3686 -17.5003 -1.1812 0.9109
-12.2941 -17.4884 -1.0841 0.9179
-10.4997 -17.4849 -1.0343 0.9216
-8.0766 -17.4777 -0.9764 0.9258
-7.3250 -17.4754 -0.9610 0.9269
-6.5958 -17.4733 -0.9472 0.9279
-4.5162 -17.4654 -0.9149 0.9303
-3.8514 -17.4637 -0.9069 0.9309
-1.9133 -17.4587 -0.8907 0.9321
-13.2188 21.5334 -1.8526 0.9036
-12.5239 18.8461 -1.6591 0.9132
-12.5886 16.2718 -1.5084 0.9208
-12.6168 15.1495 -1.4456 0.9240
-10.7821 12.0384 -1.1850 0.9372
-12.6669 13.1582 -1.3392 0.9294
-10.8345 10.4734 -1.1049 0.9414
-12.4644 10.4246 -1.1914 0.9369
-15.6811 10.4678 -1.3824 0.9272
-17.0275 10.5016 -1.4668 0.9229
-20.2947 10.5837 -1.6782 0.9123
-24.6887 10.6941 -1.9728 0.8977
-27.5276 10.7655 -2.1672 0.8882
-29.0218 10.1625 -2.2546 0.8840
-30.6020 9.4949 -2.3493 0.8794
-33.2296 7.7425 -2.5017 0.8721
-33.7001 5.3340 -2.5017 0.8721
-34.0786 1.6735 -2.5017 0.8721
-34.1167 0.4469 -2.5017 0.8721
-34.1107 -0.7803 -2.5017 0.8721
-34.0606 -2.0064 -2.5017 0.8721
-33.9664 -3.2300 -2.5017 0.8721
-33.8283 -4.4494 -2.5017 0.8721
-33.1523 -8.0668 -2.5017 0.8721
-32.8408 -9.2538 -2.5017 0.8721
-30.6558 -14.9790 -2.5017 0.8721
-28.4963 -15.2167 -2.3686 0.8785
-25.6916 -17.5155 -2.2799 0.8828
-23.8001 -17.5120 -2.1666 0.8882
-19.0844 -17.5049 -1.8988 0.9013
-14.2833 -17.4954 -1.6560 0.9134
-11.3742 -17.4842 -1.5294 0.9197
-10.4993 -17.4841 -1.4954 0.9215
-9.6599 -17.4816 -1.4645 0.9230
-8.8536 -17.4793 -1.4366 0.9244
-7.3247 -17.4747 -1.3893 0.9268
-6.5955 -17.4726 -1.3694 0.9278
-5.8861 -17.4704 -1.3517 0.9287
-5.1935 -17.4672 -1.3361 0.9295
-4.5162 -17.4654 -1.3227 0.9302
-3.8515 -17.4637 -1.3112 0.9308
-3.1973 -17.4620 -1.3016 0.9313
-2.5519 -17.4604 -1.2938 0.9317
-1.2799 -17.4571 -1.2834 0.9322
-0.6500 -17.4554 -1.2808 0.9323
-0.0218 -17.4538 -1.2797 0.9324
-10.8065 20.8275 -2.2527 0.9100
-11.5462 20.4212 -2.2522 0.9100
-12.5578 17.4977 -2.0677 0.9171
-12.5886 16.2718 -1.9751 0.9207
-12.6168 15.1495 -1.8928 0.9238
-10.7821 12.0384 -1.5515 0.9371
-12.1518 10.9293 -1.5691 0.9364
-12.4214 10.3887 -1.5546 0.9370
-13.3985 10.4104 -1.6290 0.9341
-14.4797 10.4376 -1.7136 0.9308
-16.8138 10.3698 -1.8965 0.9237
-18.5513 10.5399 -2.0484 0.9178
-20.2947 10.5837 -2.1974 0.9121
-22.7901 8.9127 -2.3493 0.9063
-23.4556 8.2133 -2.3859 0.9050
-24.8878 7.7220 -2.5017 0.9006
-25.3785 5.9132 -2.5017 0.9006
-25.7379 4.0738 -2.5017 0.9006
-25.8677 3.1455 -2.5017 0.9006
-26.0269 1.2781 -2.5017 0.9006
-26.0514 -0.5959 -2.5017 0.9006
-26.0132 -1.5324 -2.5017 0.9006
-25.8358 -3.3982 -2.5017 0.9006
-25.6968 -4.3250 -2.5017 0.9006
-25.5249 -5.2463 -2.5017 0.9006
-23.8091 -10.5906 -2.5017 0.9006
-23.4129 -11.4399 -2.5017 0.9006
-22.0446 -13.8950 -2.5017 0.9006
-21.5307 -14.6788 -2.5017 0.9006
-19.2094 -15.2286 -2.3534 0.9062
-18.6169 -15.8819 -2.3493 0.9063
-17.4272 -17.1790 -2.3493 0.9063
-16.5158 -17.4954 -2.3098 0.9078
-15.3673 -17.4988 -2.2358 0.9107
-11.3738 -17.4835 -2.0024 0.9196
-10.4988 -17.4834 -1.9579 0.9213
-8.8532 -17.4785 -1.8810 0.9243
-6.5953 -17.4719 -1.7929 0.9277
-5.8859 -17.4698 -1.7698 0.9286
-5.1935 -17.4673 -1.7495 0.9294
-2.5519 -17.4604 -1.6941 0.9315
-1.9134 -17.4587 -1.6862 0.9319
-0.6500 -17.4554 -1.6770 0.9322
-0.0218 -17.4538 -1.6757 0.9323
-8.8141 16.9876 -2.2733 0.9258
-11.7069 15.1321 -2.2726 0.9258
-12.2446 14.7026 -2.2728 0.9258
-10.7821 12.0384 -1.9197 0.9370
-10.8345 10.4734 -1.7900 0.9411
-11.6309 10.4608 -1.8582 0.9389
-12.4214 10.3886 -1.9235 0.9369
-13.3985 10.4104 -2.0155 0.9339
-15.9534 10.6495 -2.2785 0.9256
-16.5079 10.1811 -2.3039 0.9248
-17.1962 9.7699 -2.3493 0.9234
-17.5364 9.1452 -2.3493 0.9234
-18.9337 8.2013 -2.4510 0.9202
-19.6142 7.6707 -2.5017 0.9187
-20.5114 4.7791 -2.5017 0.9187
-20.6700 4.0384 -2.5017 0.9187
-20.9847 1.7888 -2.5017 0.9187
-21.0590 0.2759 -2.5017 0.9187
-21.0553 -0.4817 -2.5017 0.9187
-21.0243 -1.2385 -2.5017 0.9187
-20.7687 -3.4956 -2.5017 0.9187
-20.6295 -4.2403 -2.5017 0.9187
-20.4637 -4.9794 -2.5017 0.9187
-20.0529 -6.4373 -2.5017 0.9187
-19.8084 -7.1543 -2.5017 0.9187
-18.9227 -9.2460 -2.5017 0.9187
-18.5780 -9.9205 -2.5017 0.9187
-18.2092 -10.5822 -2.5017 0.9187
-17.8169 -11.2302 -2.5017 0.9187
-16.9636 -12.4817 -2.5017 0.9187
-16.0226 -13.6687 -2.5017 0.9187
-15.5207 -14.2361 -2.5017 0.9187
-14.3448 -15.1957 -2.4823 0.9193
-13.3574 -15.2101 -2.4045 0.9217
-11.3742 -16.1799 -2.3493 0.9234
-10.1818 -16.9556 -2.3493 0.9234
-9.5655 -17.3108 -2.3493 0.9234
-8.8528 -17.4778 -2.3273 0.9241
-8.0756 -17.4755 -2.2868 0.9254
-6.5950 -17.4712 -2.2183 0.9275
-5.1935 -17.4673 -2.1646 0.9292
-4.5162 -17.4655 -2.1429 0.9299
-3.8515 -17.4638 -2.1243 0.9305
-3.1973 -17.4621 -2.1087 0.9310
-2.5519 -17.4604 -2.0961 0.9314
-0.6500 -17.4555 -2.0749 0.9321
-7.4359 14.3312 -2.2876 0.9369
-8.4447 13.7565 -2.2871 0.9369
-8.9335 13.4431 -2.2870 0.9369
-9.4110 13.1130 -2.2870 0.9369
-10.3303 12.4040 -2.2872 0.9369
-10.7709 12.0259 -2.2875 0.9369
-10.8345 10.4734 -2.1351 0.9409
-12.3949 10.3664 -2.2895 0.9368
-13.0932 10.1731 -2.3493 0.9352
-14.1127 8.7038 -2.3493 0.9352
-16.2018 7.0179 -2.5017 0.9312
-16.4437 6.4307 -2.5017 0.9312
-17.1958 4.0066 -2.5017 0.9312
-17.5273 2.1313 -2.5017 0.9312
-17.5926 1.4996 -2.5017 0.9312
-17.6352 0.8660 -2.5017 0.9312
-17.6518 -0.4038 -2.5017 0.9312
-17.5056 -2.3025 -2.5017 0.9312
-17.4115 -2.9306 -2.5017 0.9312
-17.2949 -3.5548 -2.5017 0.9312
-17.1558 -4.1745 -2.5017 0.9312
-16.9946 -4.7887 -2.5017 0.9312
-16.6065 -5.9978 -2.5017 0.9312
-16.3316 -6.5716 -2.4943 0.9314
-16.0847 -7.1546 -2.4943 0.9314
-15.8640 -7.7514 -2.5017 0.9312
-15.5749 -8.3169 -2.5017 0.9312
-15.2658 -8.8716 -2.5017 0.9312
-14.5886 -9.9459 -2.5017 0.9312
-13.4326 -11.4593 -2.5017 0.9312
-13.0118 -11.9349 -2.5017 0.9312
-12.1204 -12.8393 -2.5017 0.9312
-11.6508 -13.2669 -2.5017 0.9312
-10.1543 -14.4444 -2.5017 0.9312
-9.6282 -14.8003 -2.5017 0.9312
-9.0897 -15.1369 -2.5017 0.9312
-5.2940 -15.7130 -2.3493 0.9352
-4.7255 -15.8932 -2.3493 0.9352
-1.8063 -16.4822 -2.3493 0.9352
-0.6170 -16.5694 -2.3493 0.9352
-6.4248 12.3826 -2.2981 0.9450
-6.8651 12.1421 -2.2979 0.9450
-8.1317 11.3305 -2.2975 0.9450
-8.5341 11.0310 -2.2976 0.9450
-8.9259 10.7177 -2.2977 0.9450
-9.3064 10.3908 -2.2980 0.9450
-9.8105 10.1911 -2.3304 0.9443
-10.6032 9.5365 -2.3493 0.9438
-10.9393 9.1490 -2.3493 0.9438
-12.2904 8.2044 -2.4344 0.9419
-13.4650 7.0220 -2.5017 0.9403
-14.3327 5.0188 -2.5017 0.9403
-14.6563 3.9756 -2.5017 0.9403
-14.7898 3.4460 -2.5017 0.9403
-14.9992 2.3740 -2.5017 0.9403
-15.0749 1.8331 -2.5017 0.9403
-15.1847 0.1989 -2.5017 0.9403
-15.1820 -0.3473 -2.5017 0.9403
-15.1597 -0.8931 -2.5017 0.9403
-15.1178 -1.4376 -2.5017 0.9403
-15.0563 -1.9804 -2.5017 0.9403
-14.7554 -3.5904 -2.5017 0.9403
-14.2829 -5.1586 -2.5017 0.9403
-13.8752 -6.1719 -2.5017 0.9403
-13.1298 -7.6304 -2.5017 0.9403
-12.8469 -8.0976 -2.5017 0.9403
-12.5474 -8.5543 -2.5017 0.9403
-11.9001 -9.4340 -2.5017 0.9403
-11.5532 -9.8559 -2.5017 0.9403
-11.1912 -10.2650 -2.5017 0.9403
-9.6038 -11.7636 -2.5017 0.9403
-9.1746 -12.1013 -2.5017 0.9403
-8.2810 -12.7295 -2.5017 0.9403
-6.8619 -13.5473 -2.5017 0.9403
-6.3703 -13.7853 -2.5017 0.9403
-5.3631 -14.2075 -2.5017 0.9403
-4.8487 -14.3912 -2.5017 0.9403
-4.3280 -14.5562 -2.5017 0.9403
-3.2705 -14.8297 -2.5017 0.9403
-2.7351 -14.9377 -2.5017 0.9403
-1.1104 -15.1454 -2.5017 0.9403
-0.5651 -15.1755 -2.5017 0.9403
-0.0190 -15.1860 -2.5017 0.9403
-5.6507 10.8907 -2.3062 0.9513
-6.4177 10.4545 -2.3058 0.9513
-6.7893 10.2165 -2.3057 0.9513
-7.2877 10.1545 -2.3493 0.9504
-7.9987 9.6044 -2.3493 0.9504
-8.3390 9.3105 -2.3493 0.9504
-8.9866 8.6871 -2.3493 0.9504
-9.8161 8.2097 -2.4053 0.9492
-10.5102 8.1662 -2.5017 0.9473
-10.7971 7.7829 -2.5017 0.9473
-11.3285 6.9868 -2.5017 0.9473
-11.5725 6.5749 -2.5017 0.9473
-11.8014 6.1544 -2.5017 0.9473
-12.0151 5.7261 -2.5017 0.9473
-12.2133 5.2903 -2.5017 0.9473
-12.3956 4.8476 -2.5017 0.9473
-12.5619 4.3987 -2.5017 0.9473
-12.9626 3.0203 -2.5017 0.9473
-13.1462 2.0807 -2.5017 0.9473
-13.2617 1.1305 -2.5017 0.9473
-13.2500 -1.2600 -2.5017 0.9473
-13.1961 -1.7357 -2.5017 0.9473
-13.1252 -2.2091 -2.5017 0.9473
-13.0373 -2.6797 -2.5017 0.9473
-12.6728 -4.0682 -2.5017 0.9473
-12.5184 -4.5213 -2.5017 0.9473
-12.1610 -5.4094 -2.5017 0.9473
-11.2598 -7.0971 -2.5017 0.9473
-10.9973 -7.4975 -2.5017 0.9473
-10.7205 -7.8881 -2.5017 0.9473
-10.4299 -8.2686 -2.5017 0.9473
-9.4787 -9.3438 -2.5017 0.9473
-8.7826 -10.0008 -2.5017 0.9473
-8.4173 -10.3103 -2.5017 0.9473
-8.0411 -10.6062 -2.5017 0.9473
-7.6545 -10.8885 -2.5017 0.9473
-6.8521 -11.4106 -2.5017 0.9473
-6.4373 -11.6496 -2.5017 0.9473
-5.1452 -12.2752 -2.5017 0.9473
-4.7004 -12.4522 -2.5017 0.9473
-3.7933 -12.7579 -2.5017 0.9473
-2.8665 -12.9975 -2.5017 0.9473
-1.9248 -13.1700 -2.5017 0.9473
-1.4500 -13.2307 -2.5017 0.9473
-0.4953 -13.3006 -2.5017 0.9473
-0.0166 -13.3099 -2.5017 0.9473
-5.4702 9.6748 -2.3493 0.9556
-5.8145 9.4719 -2.3493 0.9556
-6.1514 9.2567 -2.3493 0.9556
-6.4803 9.0294 -2.3493 0.9556
-6.8008 8.7906 -2.3493 0.9556
-7.4151 8.2790 -2.3493 0.9556
-7.9027 8.2091 -2.4086 0.9545
-8.4762 8.1937 -2.4920 0.9529
-8.7997 7.9144 -2.5017 0.9528
-9.6008 6.9207 -2.5017 0.9528
-10.2903 5.8464 -2.5017 0.9528
-10.6840 5.0917 -2.5017 0.9528
-11.3036 3.5072 -2.5017 0.9528
-11.7924 1.0052 -2.5017 0.9528
-11.8210 0.5805 -2.5017 0.9528
-11.8342 0.1550 -2.5017 0.9528
-11.8321 -0.2707 -2.5017 0.9528
-11.8147 -0.6960 -2.5017 0.9528
-11.6710 -1.9644 -2.5017 0.9528
-11.4997 -2.7982 -2.5017 0.9528
-11.1314 -4.0204 -2.5017 0.9528
-10.8137 -4.8101 -2.5017 0.9528
-10.2327 -5.9467 -2.5017 0.9528
-9.7788 -6.6668 -2.5017 0.9528
-9.2744 -7.3524 -2.5017 0.9528
-9.0040 -7.6812 -2.5017 0.9528
-8.7219 -8.0001 -2.5017 0.9528
-8.4286 -8.3085 -2.5017 0.9528
-7.8096 -8.8929 -2.5017 0.9528
-7.4847 -9.1679 -2.5017 0.9528
-6.4539 -9.9207 -2.5017 0.9528
-4.9647 -10.7436 -2.5017 0.9528
-4.5752 -10.9152 -2.5017 0.9528
-3.7788 -11.2158 -2.5017 0.9528
-2.9629 -11.4584 -2.5017 0.9528
-2.1316 -11.6417 -2.5017 0.9528
-0.4404 -11.8271 -2.5017 0.9528
-5.2296 8.5190 -2.3493 0.9598
-5.8959 8.2151 -2.3765 0.9593
-6.3468 8.2037 -2.4377 0.9583
-6.8120 8.1794 -2.5017 0.9572
-7.1018 7.9292 -2.5017 0.9572
-7.3823 7.6687 -2.5017 0.9572
-8.1653 6.8290 -2.5017 0.9572
-8.4056 6.5309 -2.5017 0.9572
-8.8532 5.9099 -2.5017 0.9572
-9.2547 5.2583 -2.5017 0.9572
-9.4383 4.9220 -2.5017 0.9572
-10.0464 3.5179 -2.5017 0.9572
-10.2733 2.7867 -2.5017 0.9572
-10.5668 1.2849 -2.5017 0.9572
-10.6318 0.5221 -2.5017 0.9572
-10.6437 0.1394 -2.5017 0.9572
-10.5968 -1.0077 -2.5017 0.9572
-10.3428 -2.5167 -2.5017 0.9572
-10.2456 -2.8870 -2.5017 0.9572
-10.1352 -3.2536 -2.5017 0.9572
-9.8751 -3.9737 -2.5017 0.9572
-9.7258 -4.3262 -2.5017 0.9572
-9.3897 -5.0141 -2.5017 0.9572
-9.0050 -5.6760 -2.5017 0.9572
-8.5738 -6.3086 -2.5017 0.9572
-8.0982 -6.9085 -2.5017 0.9572
-7.8446 -7.1953 -2.5017 0.9572
-7.0240 -7.9983 -2.5017 0.9572
-6.1217 -8.7082 -2.5017 0.9572
-5.4800 -9.1257 -2.5017 0.9572
-5.1483 -9.3169 -2.5017 0.9572
-4.8099 -9.4960 -2.5017 0.9572
-3.7592 -9.9587 -2.5017 0.9572
-3.3986 -10.0875 -2.5017 0.9572
-2.6648 -10.3057 -2.5017 0.9572
-1.5394 -10.5327 -2.5017 0.9572
-0.7784 -10.6161 -2.5017 0.9572
-0.3961 -10.6373 -2.5017 0.9572
-0.0133 -10.6446 -2.5017 0.9572
-5.0302 8.1941 -2.4895 0.9611
-6.1833 7.4246 -2.5017 0.9609
-6.4463 7.1974 -2.5017 0.9609
-7.1840 6.4613 -2.5017 0.9609
-7.4117 6.1988 -2.5017 0.9609
-7.8381 5.6500 -2.5017 0.9609
-8.2239 5.0721 -2.5017 0.9609
-8.4010 4.7730 -2.5017 0.9609
-8.5672 4.4678 -2.5017 0.9609
-8.7224 4.1568 -2.5017 0.9609
-9.1193 3.1932 -2.5017 0.9609
-9.4102 2.1925 -2.5017 0.9609
-9.6506 0.4739 -2.5017 0.9609
-9.6614 0.1265 -2.5017 0.9609
-9.5797 -1.2600 -2.5017 0.9609
-9.0877 -3.2823 -2.5017 0.9609
-8.8283 -3.9269 -2.5017 0.9609
-8.5232 -4.5513 -2.5017 0.9609
-8.1740 -5.1522 -2.5017 0.9609
-7.9834 -5.4428 -2.5017 0.9609
-7.7825 -5.7264 -2.5017 0.9609
-7.5716 -6.0025 -2.5017 0.9609
-7.1205 -6.5312 -2.5017 0.9609
-6.1105 -7.4847 -2.5017 0.9609
-5.8374 -7.6996 -2.5017 0.9609
-5.5567 -7.9045 -2.5017 0.9609
-4.9742 -8.2835 -2.5017 0.9609
-4.6731 -8.4570 -2.5017 0.9609
-3.4123 -9.0397 -2.5017 0.9609
-3.0850 -9.1565 -2.5017 0.9609
-2.4189 -9.3546 -2.5017 0.9609
-2.0809 -9.4355 -2.5017 0.9609
-1.3973 -9.5607 -2.5017 0.9609
-1.0526 -9.6048 -2.5017 0.9609
-0.3595 -9.6556 -2.5017 0.9609
-0.0121 -9.6623 -2.5017 0.9609
-4.0700 7.8441 -2.5017 0.9639
-4.6232 7.5312 -2.5017 0.9639
-5.1526 7.1795 -2.5017 0.9639
-5.6553 6.7905 -2.5017 0.9639
-6.1288 6.3665 -2.5017 0.9639
-6.5705 5.9095 -2.5017 0.9639
-6.7788 5.6694 -2.5017 0.9639
-7.1688 5.1675 -2.5017 0.9639
-7.3500 4.9063 -2.5017 0.9639
-7.8356 4.0862 -2.5017 0.9639
-7.9775 3.8018 -2.5017 0.9639
-8.2301 3.2186 -2.5017 0.9639
-8.4402 2.6187 -2.5017 0.9639
-8.6066 2.0053 -2.5017 0.9639
-8.7284 1.3815 -2.5017 0.9639
-8.7725 1.0667 -2.5017 0.9639
-8.8265 0.4334 -2.5017 0.9639
-8.7974 -0.8366 -2.5017 0.9639
-8.7616 -1.1525 -2.5017 0.9639
-8.7145 -1.4668 -2.5017 0.9639
-8.5866 -2.0894 -2.5017 0.9639
-8.4142 -2.7011 -2.5017 0.9639
-8.0744 -3.5916 -2.5017 0.9639
-7.9400 -3.8797 -2.5017 0.9639
-7.7953 -4.1627 -2.5017 0.9639
-7.6406 -4.4403 -2.5017 0.9639
-7.4760 -4.7122 -2.5017 0.9639
-7.1181 -5.2373 -2.5017 0.9639
-6.5125 -5.9735 -2.5017 0.9639
-6.0663 -6.4261 -2.5017 0.9639
-5.8313 -6.6401 -2.5017 0.9639
-5.3389 -7.0421 -2.5017 0.9639
-4.2741 -7.7348 -2.5017 0.9639
-3.7070 -8.0221 -2.5017 0.9639
-3.4162 -8.1502 -2.5017 0.9639
-2.8215 -8.3746 -2.5017 0.9639
-2.2123 -8.5558 -2.5017 0.9639
-1.9032 -8.6298 -2.5017 0.9639
-1.5916 -8.6926 -2.5017 0.9639
-0.6462 -8.8135 -2.5017 0.9639
-0.3288 -8.8310 -2.5017 0.9639
-0.0110 -8.8371 -2.5017 0.9639
-4.0032 7.0803 -2.5017 0.9665
-4.9770 6.4331 -2.5017 0.9665
-5.4265 6.0587 -2.5017 0.9665
-5.8479 5.6530 -2.5017 0.9665
-6.2397 5.2181 -2.5017 0.9665
-6.4228 4.9903 -2.5017 0.9665
-6.5981 4.7561 -2.5017 0.9665
-7.3424 3.4992 -2.5017 0.9665
-7.5749 2.9624 -2.5017 0.9665
-7.7683 2.4103 -2.5017 0.9665
-7.8499 2.1293 -2.5017 0.9665
-8.0336 1.2715 -2.5017 0.9665
-8.1315 -0.1861 -2.5017 0.9665
-8.1195 -0.4783 -2.5017 0.9665
-8.0208 -1.3500 -2.5017 0.9665
-7.9671 -1.6376 -2.5017 0.9665
-7.9030 -1.9230 -2.5017 0.9665
-7.8287 -2.2060 -2.5017 0.9665
-7.5456 -3.0363 -2.5017 0.9665
-7.1748 -3.8313 -2.5017 0.9665
-7.0323 -4.0869 -2.5017 0.9665
-6.5513 -4.8204 -2.5017 0.9665
-6.3737 -5.0529 -2.5017 0.9665
-6.1879 -5.2788 -2.5017 0.9665
-5.7925 -5.7099 -2.5017 0.9665
-5.1438 -6.3006 -2.5017 0.9665
-4.9139 -6.4815 -2.5017 0.9665
-4.4354 -6.8179 -2.5017 0.9665
-2.5969 -7.7079 -2.5017 0.9665
-2.3181 -7.7963 -2.5017 0.9665
-2.0362 -7.8746 -2.5017 0.9665
-1.7517 -7.9428 -2.5017 0.9665
-1.4649 -8.0007 -2.5017 0.9665
-1.1763 -8.0482 -2.5017 0.9665
-0.8861 -8.0852 -2.5017 0.9665
-0.3026 -8.1280 -2.5017 0.9665
-0.0102 -8.1336 -2.5017 0.9665
-4.1655 6.2682 -2.5017 0.9688
-4.3882 6.1144 -2.5017 0.9688
-4.6052 5.9526 -2.5017 0.9688
-4.8163 5.7832 -2.5017 0.9688
-5.4112 5.2308 -2.5017 0.9688
-5.9430 4.6176 -2.5017 0.9688
-6.2596 4.1785 -2.5017 0.9688
-6.5437 3.7178 -2.5017 0.9688
-6.6732 3.4800 -2.5017 0.9688
-7.1881 2.2302 -2.5017 0.9688
-7.2636 1.9703 -2.5017 0.9688
-7.3865 1.4431 -2.5017 0.9688
-7.4336 1.1765 -2.5017 0.9688
-7.4711 0.9084 -2.5017 0.9688
-7.4989 0.6392 -2.5017 0.9688
-7.5171 0.3691 -2.5017 0.9688
-7.5255 0.0986 -2.5017 0.9688
-7.5241 -0.1722 -2.5017 0.9688
-7.5131 -0.4426 -2.5017 0.9688
-7.3127 -1.7794 -2.5017 0.9688
-7.2440 -2.0412 -2.5017 0.9688
-7.1659 -2.3004 -2.5017 0.9688
-7.0786 -2.5566 -2.5017 0.9688
-6.9821 -2.8095 -2.5017 0.9688
-6.8765 -3.0588 -2.5017 0.9688
-6.7621 -3.3041 -2.5017 0.9688
-6.6389 -3.5451 -2.5017 0.9688
-6.5071 -3.7816 -2.5017 0.9688
-6.3669 -4.0131 -2.5017 0.9688
-6.2185 -4.2395 -2.5017 0.9688
-6.0620 -4.4604 -2.5017 0.9688
-5.1663 -5.4728 -2.5017 0.9688
-4.9662 -5.6551 -2.5017 0.9688
-4.7596 -5.8300 -2.5017 0.9688
-4.5469 -5.9974 -2.5017 0.9688
-3.8745 -6.4522 -2.5017 0.9688
-3.6400 -6.5874 -2.5017 0.9688
-3.4008 -6.7140 -2.5017 0.9688
-3.1572 -6.8320 -2.5017 0.9688
-2.9094 -6.9411 -2.5017 0.9688
-2.6579 -7.0412 -2.5017 0.9688
-2.4030 -7.1323 -2.5017 0.9688
-2.1449 -7.2140 -2.5017 0.9688
-1.8841 -7.2865 -2.5017 0.9688
-1.6209 -7.3495 -2.5017 0.9688
-0.8199 -7.4813 -2.5017 0.9688
-0.5503 -7.5060 -2.5017 0.9688
-0.0094 -7.5262 -2.5017 0.9688
-3.6599 5.9620 -2.5017 0.9707
-3.8719 5.8265 -2.5017 0.9707
-4.2807 5.5331 -2.5017 0.9707
-4.4769 5.3756 -2.5017 0.9707
-4.8517 5.0399 -2.5017 0.9707
-5.0298 4.8622 -2.5017 0.9707
-5.2014 4.6781 -2.5017 0.9707
-5.3663 4.4880 -2.5017 0.9707
-5.5242 4.2922 -2.5017 0.9707
-5.9544 3.6723 -2.5017 0.9707
-6.2029 3.2348 -2.5017 0.9707
-6.3152 3.0096 -2.5017 0.9707
-6.4194 2.7806 -2.5017 0.9707
-6.5152 2.5479 -2.5017 0.9707
-6.6026 2.3120 -2.5017 0.9707
-6.8132 1.5874 -2.5017 0.9707
-6.8659 1.3414 -2.5017 0.9707
-6.9446 0.8445 -2.5017 0.9707
-6.9873 0.3431 -2.5017 0.9707
-6.9939 -0.1600 -2.5017 0.9707
-6.9836 -0.4114 -2.5017 0.9707
-6.9643 -0.6623 -2.5017 0.9707
-6.9360 -0.9123 -2.5017 0.9707
-6.8987 -1.1612 -2.5017 0.9707
-6.8525 -1.4085 -2.5017 0.9707
-6.7974 -1.6540 -2.5017 0.9707
-6.7335 -1.8974 -2.5017 0.9707
-6.5797 -2.3764 -2.5017 0.9707
-6.4900 -2.6115 -2.5017 0.9707
-6.3919 -2.8432 -2.5017 0.9707
-6.1710 -3.2953 -2.5017 0.9707
-5.7802 -3.9408 -2.5017 0.9707
-5.3222 -4.5404 -2.5017 0.9707
-4.8023 -5.0871 -2.5017 0.9707
-4.6162 -5.2566 -2.5017 0.9707
-4.4242 -5.4191 -2.5017 0.9707
-4.2265 -5.5747 -2.5017 0.9707
-4.0232 -5.7231 -2.5017 0.9707
-3.8148 -5.8641 -2.5017 0.9707
-3.6015 -5.9975 -2.5017 0.9707
-3.3835 -6.1231 -2.5017 0.9707
-3.1611 -6.2408 -2.5017 0.9707
-2.9346 -6.3505 -2.5017 0.9707
-2.7043 -6.4519 -2.5017 0.9707
-1.9938 -6.7056 -2.5017 0.9707
-1.7513 -6.7730 -2.5017 0.9707
-1.0117 -6.9222 -2.5017 0.9707
-0.7621 -6.9541 -2.5017 0.9707
-3.0066 5.7946 -2.5017 0.9724
-3.6132 5.4371 -2.5017 0.9724
-3.9946 5.1633 -2.5017 0.9724
-4.5275 4.7031 -2.5017 0.9724
-4.8538 4.3655 -2.5017 0.9724
-5.0077 4.1881 -2.5017 0.9724
-5.1550 4.0053 -2.5017 0.9724
-5.2957 3.8173 -2.5017 0.9724
-5.4296 3.6245 -2.5017 0.9724
-5.5564 3.4269 -2.5017 0.9724
-6.1614 2.1575 -2.5017 0.9724
-6.3005 1.7090 -2.5017 0.9724
-6.3579 1.4814 -2.5017 0.9724
-6.5203 0.3202 -2.5017 0.9724
-6.5276 0.0855 -2.5017 0.9724
-6.5169 -0.3839 -2.5017 0.9724
-6.4724 -0.8513 -2.5017 0.9724
-6.4376 -1.0836 -2.5017 0.9724
-6.3945 -1.3144 -2.5017 0.9724
-6.3431 -1.5435 -2.5017 0.9724
-6.2835 -1.7706 -2.5017 0.9724
-6.2158 -1.9954 -2.5017 0.9724
-5.9647 -2.6532 -2.5017 0.9724
-5.8654 -2.8660 -2.5017 0.9724
-5.3939 -3.6774 -2.5017 0.9724
-4.6491 -4.5829 -2.5017 0.9724
-3.9442 -5.2022 -2.5017 0.9724
-3.3608 -5.5967 -2.5017 0.9724
-3.1574 -5.7139 -2.5017 0.9724
-2.7385 -5.9261 -2.5017 0.9724
-1.6343 -6.3204 -2.5017 0.9724
-1.4059 -6.3751 -2.5017 0.9724
-0.9441 -6.4596 -2.5017 0.9724
-0.7112 -6.4894 -2.5017 0.9724
-0.0082 -6.5282 -2.5017 0.9724
-2.8152 5.4257 -2.5017 0.9739
-3.5640 4.9660 -2.5017 0.9739
-3.7403 4.8346 -2.5017 0.9739
-3.9117 4.6970 -2.5017 0.9739
-4.0781 4.5533 -2.5017 0.9739
-4.3949 4.2484 -2.5017 0.9739
-4.6888 3.9215 -2.5017 0.9739
-4.8268 3.7503 -2.5017 0.9739
-4.9586 3.5743 -2.5017 0.9739
-5.0839 3.3937 -2.5017 0.9739
-5.4198 2.8264 -2.5017 0.9739
-5.5180 2.6297 -2.5017 0.9739
-5.7691 2.0201 -2.5017 0.9739
-5.9531 1.3871 -2.5017 0.9739
-5.9991 1.1721 -2.5017 0.9739
-6.0374 0.9556 -2.5017 0.9739
-6.0905 0.5191 -2.5017 0.9739
-6.1110 -0.1398 -2.5017 0.9739
-6.1020 -0.3595 -2.5017 0.9739
-6.0278 -1.0146 -2.5017 0.9739
-5.8200 -1.8684 -2.5017 0.9739
-5.7491 -2.0765 -2.5017 0.9739
-5.5850 -2.4843 -2.5017 0.9739
-5.2849 -3.0714 -2.5017 0.9739
-5.1711 -3.2594 -2.5017 0.9739
-5.0505 -3.4433 -2.5017 0.9739
-4.9234 -3.6226 -2.5017 0.9739
-4.6503 -3.9672 -2.5017 0.9739
-4.5046 -4.1319 -2.5017 0.9739
-4.3531 -4.2912 -2.5017 0.9739
-3.8657 -4.7350 -2.5017 0.9739
-3.5153 -5.0006 -2.5017 0.9739
-3.3332 -5.1238 -2.5017 0.9739
-2.9563 -5.3502 -2.5017 0.9739
-2.5641 -5.5488 -2.5017 0.9739
-2.3629 -5.6374 -2.5017 0.9739
-1.9517 -5.7927 -2.5017 0.9739
-1.7421 -5.8591 -2.5017 0.9739
-1.3164 -5.9692 -2.5017 0.9739
-0.2275 -6.1084 -2.5017 0.9739
-0.0076 -6.1126 -2.5017 0.9739
-3.0031 4.8921 -2.5017 0.9753
-3.1771 4.7809 -2.5017 0.9753
-3.3470 4.6636 -2.5017 0.9753
-3.5125 4.5402 -2.5017 0.9753
-3.8298 4.2760 -2.5017 0.9753
-3.9811 4.1355 -2.5017 0.9753
-4.2680 3.8386 -2.5017 0.9753
-4.5329 3.5219 -2.5017 0.9753
-5.1819 2.4696 -2.5017 0.9753
-5.3460 2.0907 -2.5017 0.9753
-5.4178 1.8971 -2.5017 0.9753
-5.5401 1.5028 -2.5017 0.9753
-5.5906 1.3026 -2.5017 0.9753
-5.6697 0.8973 -2.5017 0.9753
-5.6983 0.6929 -2.5017 0.9753
-5.7196 0.4875 -2.5017 0.9753
-5.7334 0.2815 -2.5017 0.9753
-5.7398 0.0752 -2.5017 0.9753
-5.7388 -0.1313 -2.5017 0.9753
-5.7304 -0.3376 -2.5017 0.9753
-5.5251 -1.5569 -2.5017 0.9753
-5.3990 -1.9500 -2.5017 0.9753
-4.8561 -3.0609 -2.5017 0.9753
-4.3671 -3.7256 -2.5017 0.9753
-3.9405 -4.1742 -2.5017 0.9753
-3.7878 -4.3132 -2.5017 0.9753
-3.6302 -4.4467 -2.5017 0.9753
-3.4680 -4.5743 -2.5017 0.9753
-3.3012 -4.6961 -2.5017 0.9753
-2.9552 -4.9212 -2.5017 0.9753
-2.7763 -5.0243 -2.5017 0.9753
-2.5938 -5.1209 -2.5017 0.9753
-2.2190 -5.2941 -2.5017 0.9753
-2.0272 -5.3705 -2.5017 0.9753
-1.8328 -5.4399 -2.5017 0.9753
-1.4371 -5.5576 -2.5017 0.9753
-0.4197 -5.7250 -2.5017 0.9753
-0.0072 -5.7403 -2.5017 0.9753
-2.6600 4.7047 -2.5017 0.9765
-2.9913 4.5013 -2.5017 0.9765
-3.3071 4.2747 -2.5017 0.9765
-3.4587 4.1530 -2.5017 0.9765
-3.8858 3.7563 -2.5017 0.9765
-4.1458 3.4673 -2.5017 0.9765
-4.2678 3.3160 -2.5017 0.9765
-4.3843 3.1604 -2.5017 0.9765
-4.4951 3.0006 -2.5017 0.9765
-4.6001 2.8371 -2.5017 0.9765
-4.6992 2.6698 -2.5017 0.9765
-5.0334 1.9684 -2.5017 0.9765
-5.1009 1.7862 -2.5017 0.9765
-5.2161 1.4149 -2.5017 0.9765
-5.3043 1.0363 -2.5017 0.9765
-5.3804 -0.5117 -2.5017 0.9765
-5.2514 -1.2778 -2.5017 0.9765
-5.2021 -1.4659 -2.5017 0.9765
-4.8560 -2.3728 -2.5017 0.9765
-4.7675 -2.5458 -2.5017 0.9765
-4.6729 -2.7156 -2.5017 0.9765
-4.3532 -3.2031 -2.5017 0.9765
-4.2352 -3.3576 -2.5017 0.9765
-4.1117 -3.5077 -2.5017 0.9765
-3.9829 -3.6533 -2.5017 0.9765
-3.7100 -3.9301 -2.5017 0.9765
-3.5663 -4.0610 -2.5017 0.9765
-3.4180 -4.1866 -2.5017 0.9765
-2.9472 -4.5304 -2.5017 0.9765
-2.6139 -4.7305 -2.5017 0.9765
-2.4421 -4.8215 -2.5017 0.9765
-2.2672 -4.9062 -2.5017 0.9765
-2.0893 -4.9845 -2.5017 0.9765
-1.5403 -5.1805 -2.5017 0.9765
-1.3534 -5.2326 -2.5017 0.9765
-1.1640 -5.2779 -2.5017 0.9765
-0.5888 -5.3725 -2.5017 0.9765
-0.3952 -5.3902 -2.5017 0.9765
-0.2011 -5.4009 -2.5017 0.9765
-0.0067 -5.4046 -2.5017 0.9765
-2.5101 4.4396 -2.5017 0.9775
-2.6682 4.3464 -2.5017 0.9775
-2.9737 4.1434 -2.5017 0.9775
-3.5371 3.6742 -2.5017 0.9775
-3.9122 3.2719 -2.5017 0.9775
-4.0273 3.1291 -2.5017 0.9775
-4.2418 2.8316 -2.5017 0.9775
-4.3409 2.6772 -2.5017 0.9775
-4.4344 2.5193 -2.5017 0.9775
-4.6040 2.1941 -2.5017 0.9775
-4.8710 1.5113 -2.5017 0.9775
-5.0374 0.7973 -2.5017 0.9775
-5.0628 0.6156 -2.5017 0.9775
-5.0817 0.4332 -2.5017 0.9775
-5.0940 0.2501 -2.5017 0.9775
-5.0913 -0.3000 -2.5017 0.9775
-5.0566 -0.6651 -2.5017 0.9775
-5.0294 -0.8465 -2.5017 0.9775
-4.9555 -1.2058 -2.5017 0.9775
-4.9089 -1.3833 -2.5017 0.9775
-4.8560 -1.5589 -2.5017 0.9775
-4.7968 -1.7326 -2.5017 0.9775
-4.7314 -1.9039 -2.5017 0.9775
-4.5824 -2.2390 -2.5017 0.9775
-4.4096 -2.5626 -2.5017 0.9775
-4.3146 -2.7196 -2.5017 0.9775
-4.2140 -2.8729 -2.5017 0.9775
-4.1079 -3.0226 -2.5017 0.9775
-3.5010 -3.7087 -2.5017 0.9775
-3.2254 -3.9508 -2.5017 0.9775
-3.0812 -4.0642 -2.5017 0.9775
-2.7811 -4.2751 -2.5017 0.9775
-2.6256 -4.3724 -2.5017 0.9775
-2.1394 -4.6297 -2.5017 0.9775
-1.8011 -4.7715 -2.5017 0.9775
-1.6284 -4.8332 -2.5017 0.9775
-0.9186 -5.0167 -2.5017 0.9775
-0.7376 -5.0465 -2.5017 0.9775
-0.5556 -5.0698 -2.5017 0.9775
-0.1898 -5.0966 -2.5017 0.9775
-2.2209 4.2804 -2.5017 0.9785
-2.5229 4.1097 -2.5017 0.9785
-2.6690 4.0163 -2.5017 0.9785
-2.8117 3.9177 -2.5017 0.9785
-2.9508 3.8141 -2.5017 0.9785
-3.0860 3.7055 -2.5017 0.9785
-3.2173 3.5921 -2.5017 0.9785
-3.3444 3.4741 -2.5017 0.9785
-3.4672 3.3516 -2.5017 0.9785
-3.8080 2.9587 -2.5017 0.9785
-3.9119 2.8198 -2.5017 0.9785
-4.1045 2.5314 -2.5017 0.9785
-4.1929 2.3821 -2.5017 0.9785
-4.2758 2.2298 -2.5017 0.9785
-4.4250 1.9167 -2.5017 0.9785
-4.4911 1.7563 -2.5017 0.9785
-4.5514 1.5937 -2.5017 0.9785
-4.6057 1.4290 -2.5017 0.9785
-4.6541 1.2624 -2.5017 0.9785
-4.7328 0.9247 -2.5017 0.9785
-4.8211 -0.1103 -2.5017 0.9785
-4.7811 -0.6289 -2.5017 0.9785
-4.6416 -1.3079 -2.5017 0.9785
-4.4737 -1.8002 -2.5017 0.9785
-4.4061 -1.9599 -2.5017 0.9785
-4.2538 -2.2716 -2.5017 0.9785
-3.9845 -2.7165 -2.5017 0.9785
-3.6687 -3.1298 -2.5017 0.9785
-3.5538 -3.2597 -2.5017 0.9785
-3.4343 -3.3854 -2.5017 0.9785
-3.0497 -3.7356 -2.5017 0.9785
-2.9134 -3.8428 -2.5017 0.9785
-2.6297 -4.0423 -2.5017 0.9785
-2.4826 -4.1342 -2.5017 0.9785
-2.3323 -4.2208 -2.5017 0.9785
-2.0229 -4.3776 -2.5017 0.9785
-1.8642 -4.4475 -2.5017 0.9785
-1.7030 -4.5116 -2.5017 0.9785
-0.8685 -4.7435 -2.5017 0.9785
-0.6974 -4.7717 -2.5017 0.9785
-0.5253 -4.7937 -2.5017 0.9785
-0.1794 -4.8190 -2.5017 0.9785
-0.0060 -4.8224 -2.5017 0.9785
-2.3896 3.8927 -2.5017 0.9794
-2.5281 3.8042 -2.5017 0.9794
-2.6632 3.7109 -2.5017 0.9794
-2.7950 3.6127 -2.5017 0.9794
-3.0474 3.4024 -2.5017 0.9794
-3.1678 3.2907 -2.5017 0.9794
-3.3961 3.0545 -2.5017 0.9794
-3.5038 2.9304 -2.5017 0.9794
-3.7990 2.5359 -2.5017 0.9794
-3.9714 2.2563 -2.5017 0.9794
-4.1233 1.9650 -2.5017 0.9794
-4.1913 1.8155 -2.5017 0.9794
-4.4083 1.1958 -2.5017 0.9794
-4.4829 0.8758 -2.5017 0.9794
-4.5342 0.5513 -2.5017 0.9794
-4.5511 0.3879 -2.5017 0.9794
-4.5622 0.2240 -2.5017 0.9794
-4.5673 0.0598 -2.5017 0.9794
-4.5665 -0.1045 -2.5017 0.9794
-4.5471 -0.4324 -2.5017 0.9794
-4.5287 -0.5957 -2.5017 0.9794
-4.4382 -1.0799 -2.5017 0.9794
-4.3965 -1.2388 -2.5017 0.9794
-4.3491 -1.3962 -2.5017 0.9794
-4.2375 -1.7051 -2.5017 0.9794
-4.1040 -2.0053 -2.5017 0.9794
-3.9492 -2.2951 -2.5017 0.9794
-3.5793 -2.8376 -2.5017 0.9794
-3.4750 -2.9645 -2.5017 0.9794
-3.3661 -3.0875 -2.5017 0.9794
-3.0140 -3.4321 -2.5017 0.9794
-2.6269 -3.7368 -2.5017 0.9794
-2.4908 -3.8288 -2.5017 0.9794
-1.4584 -4.3286 -2.5017 0.9794
-1.3018 -4.3783 -2.5017 0.9794
-1.1435 -4.4223 -2.5017 0.9794
-0.9837 -4.4605 -2.5017 0.9794
-0.8227 -4.4930 -2.5017 0.9794
-0.4976 -4.5405 -2.5017 0.9794
-1.9956 3.8461 -2.5017 0.9802
-2.6514 3.4272 -2.5017 0.9802
-2.7730 3.3296 -2.5017 0.9802
-2.8909 3.2278 -2.5017 0.9802
-3.0051 3.1217 -2.5017 0.9802
-3.1154 3.0116 -2.5017 0.9802
-3.3238 2.7799 -2.5017 0.9802
-3.6881 2.2746 -2.5017 0.9802
-3.8420 2.0036 -2.5017 0.9802
-3.9761 1.7222 -2.5017 0.9802
-4.0355 1.5782 -2.5017 0.9802
-4.0896 1.4320 -2.5017 0.9802
-4.1385 1.2840 -2.5017 0.9802
-4.2201 0.9832 -2.5017 0.9802
-4.2527 0.8309 -2.5017 0.9802
-4.3320 -0.0991 -2.5017 0.9802
-4.3256 -0.2549 -2.5017 0.9802
-4.3136 -0.4103 -2.5017 0.9802
-4.2961 -0.5651 -2.5017 0.9802
-4.2444 -0.8724 -2.5017 0.9802
-4.1707 -1.1753 -2.5017 0.9802
-4.0754 -1.4720 -2.5017 0.9802
-3.7464 -2.1772 -2.5017 0.9802
-3.6657 -2.3106 -2.5017 0.9802
-3.5802 -2.4409 -2.5017 0.9802
-3.4901 -2.5680 -2.5017 0.9802
-3.3955 -2.6919 -2.5017 0.9802
-3.2965 -2.8123 -2.5017 0.9802
-3.1933 -2.9290 -2.5017 0.9802
-3.0859 -3.0420 -2.5017 0.9802
-2.8592 -3.2559 -2.5017 0.9802
-2.7403 -3.3566 -2.5017 0.9802
-2.4920 -3.5449 -2.5017 0.9802
-2.3629 -3.6322 -2.5017 0.9802
-2.0957 -3.7927 -2.5017 0.9802
-1.8177 -3.9335 -2.5017 0.9802
-1.5303 -4.0539 -2.5017 0.9802
-1.3835 -4.1064 -2.5017 0.9802
-1.0848 -4.1952 -2.5017 0.9802
-0.7804 -4.2623 -2.5017 0.9802
-0.6266 -4.2876 -2.5017 0.9802
-0.4720 -4.3074 -2.5017 0.9802
-0.1612 -4.3302 -2.5017 0.9802
-0.0054 -4.3331 -2.5017 0.9802
