ply
format ascii 1.0
element vertex 1087
property float32 x
property float32 y
property float32 z
property float32 I
end_header
2.9263 -41.2510 7.2919 0.8454
9.0132 -41.2306 7.4417 0.8425
16.4368 -39.3455 7.5187 0.8410
17.8621 -35.3461 6.9831 0.8514
17.6286 -31.9629 6.4363 0.8622
21.0237 -35.0634 7.2088 0.8470
17.9409 -27.6109 5.8061 0.8748
24.7843 -35.2864 7.6033 0.8393
24.5201 -32.3607 7.1590 0.8480
26.4511 -32.4092 7.3763 0.8437
26.6709 -30.3713 7.1271 0.8486
16.9079 -17.9067 4.3425 0.9048
28.7770 -28.3531 7.1233 0.8487
30.9562 -28.3727 7.4042 0.8432
16.9320 -14.4298 3.9226 0.9136
38.7637 -26.3765 8.2673 0.8266
17.0313 11.4979 3.6234 0.9199
15.6869 11.4356 3.4230 0.9242
14.7065 11.5563 3.2980 0.9268
13.7623 11.6418 3.1784 0.9294
11.0787 11.6475 2.8344 0.9368
9.6078 11.6844 2.6674 0.9404
8.9338 11.7014 2.5959 0.9420
8.3350 11.7751 2.5438 0.9431
7.7503 11.8326 2.4941 0.9442
7.1626 11.8474 2.4411 0.9453
6.0558 11.8752 2.3505 0.9473
17.6752 -42.3099 7.0245 0.8306
17.5073 -37.9913 6.4083 0.8443
18.5683 -24.5058 4.7101 0.8830
31.0118 -35.3145 7.1999 0.8268
33.0623 -32.5754 7.1104 0.8288
35.7909 -30.5015 7.2039 0.8267
38.8936 -28.5717 7.3932 0.8226
40.7929 -25.6535 7.3823 0.8228
42.7384 22.5508 7.4028 0.8224
13.6914 11.5818 2.7472 0.9300
11.0787 11.6475 2.4626 0.9370
10.3209 11.6665 2.3862 0.9389
7.7503 11.8326 2.1669 0.9444
6.5987 11.8615 2.0794 0.9466
5.5313 11.8884 2.0087 0.9483
5.0230 11.9011 1.9789 0.9491
17.6746 -38.3545 5.4993 0.8434
17.9094 -32.4721 4.8290 0.8611
18.1056 -25.7776 4.1021 0.8807
17.0501 -16.7990 3.1169 0.9080
40.6135 -25.5407 6.2476 0.8240
42.6012 18.6842 6.0577 0.8289
42.6486 20.5711 6.1660 0.8261
14.7065 11.5563 2.4356 0.9273
13.6914 11.5818 2.3353 0.9302
11.0787 11.6475 2.0933 0.9372
10.3209 11.6665 2.0284 0.9391
7.4688 9.7824 1.6027 0.9516
6.4246 9.8087 1.5269 0.9538
6.0502 10.0073 1.5228 0.9539
4.9331 10.6026 1.5228 0.9539
17.9682 -43.0113 5.0054 0.8290
16.9079 -17.9067 2.6446 0.9057
46.3651 14.5978 5.2197 0.8224
42.6718 16.9062 4.9287 0.8314
42.7653 20.6274 5.0985 0.8261
17.0313 11.4979 2.2066 0.9207
15.8143 11.5285 2.1015 0.9243
14.7065 11.5563 2.0084 0.9275
10.0563 9.8359 1.5105 0.9450
9.6947 10.1924 1.5105 0.9450
9.3206 10.5357 1.5105 0.9450
8.2437 10.0255 1.3938 0.9491
8.5363 11.1806 1.5105 0.9450
8.1933 11.5749 1.5228 0.9445
7.1626 11.8474 1.4866 0.9458
5.5313 11.8884 1.4080 0.9486
17.9682 -43.0113 3.9460 0.8293
16.9079 -17.9067 2.0848 0.9059
40.6634 -27.6691 4.1636 0.8208
41.0131 8.1739 3.5402 0.8455
42.5109 15.0912 3.8187 0.8344
42.6718 16.9062 3.8855 0.8317
42.6978 22.5294 4.0868 0.8238
11.8877 11.6271 1.4076 0.9354
10.3209 11.6665 1.3186 0.9394
8.9339 11.7014 1.2463 0.9426
5.5313 11.8884 1.1100 0.9487
5.0230 11.9011 1.0935 0.9495
17.9682 -43.0113 2.8905 0.8296
16.9079 -17.9067 1.5272 0.9060
46.3651 14.5978 3.0142 0.8230
42.5109 15.0912 2.7973 0.8346
42.6486 20.5711 2.9362 0.8272
18.4161 10.5840 1.3172 0.9184
15.6869 11.4356 1.2038 0.9251
13.7623 11.6418 1.1178 0.9303
12.6740 11.5312 1.0625 0.9336
11.0787 11.6475 0.9968 0.9376
10.3036 11.6469 0.9643 0.9396
8.2437 10.0255 0.8049 0.9493
8.9339 11.7014 0.9129 0.9427
8.2829 11.7014 0.8890 0.9442
7.7242 11.7927 0.8742 0.9451
6.6019 11.8673 0.8421 0.9470
6.0558 11.8752 0.8266 0.9480
5.0230 11.9011 0.8010 0.9495
17.8071 -42.6258 1.8215 0.8312
17.4199 -24.8015 1.1951 0.8857
16.9079 -17.9067 0.9711 0.9061
47.6897 13.1431 1.9506 0.8203
42.5109 15.0912 1.7787 0.8348
42.5554 16.8601 1.8049 0.8326
19.1106 10.0836 0.8520 0.9171
19.1073 10.9813 0.8690 0.9156
40.9867 25.5666 1.9048 0.8242
17.0313 11.4979 0.8103 0.9210
15.6869 11.4356 0.7655 0.9252
12.6740 11.5312 0.6756 0.9337
11.8877 11.6271 0.6557 0.9356
10.3036 11.6469 0.6132 0.9396
8.2437 10.0255 0.5118 0.9494
8.9338 11.7014 0.5805 0.9428
8.2829 11.7014 0.5653 0.9442
6.0558 11.8752 0.5256 0.9480
5.5313 11.8884 0.5170 0.9489
5.0230 11.9011 0.5094 0.9496
16.9079 -17.9067 0.4160 0.9062
42.6718 16.9062 0.7753 0.8323
42.6012 18.6842 0.7858 0.8302
19.8394 10.4682 0.3789 0.9142
19.8511 11.4087 0.3868 0.9125
40.3536 25.1717 0.8034 0.8267
17.0313 11.4979 0.3471 0.9211
15.6869 11.4356 0.3279 0.9253
12.5856 9.8897 0.2704 0.9380
13.7623 11.6418 0.3045 0.9304
12.6740 11.5312 0.2894 0.9337
11.0787 11.6475 0.2715 0.9377
8.2437 10.0255 0.2192 0.9494
8.9339 11.7014 0.2487 0.9428
8.2829 11.7014 0.2421 0.9443
7.7242 11.7927 0.2381 0.9452
6.0558 11.8752 0.2252 0.9481
5.5313 11.8884 0.2215 0.9489
2.5120 -17.4441 -0.0992 0.9319
3.1582 -17.4428 -0.0998 0.9315
5.1550 -17.4386 -0.1024 0.9298
7.2847 -17.4377 -0.1064 0.9272
8.0345 -17.4350 -0.1081 0.9261
11.3252 -17.4293 -0.1170 0.9202
13.2016 -17.4229 -0.1231 0.9163
14.2171 -17.4194 -0.1266 0.9140
15.2939 -17.4157 -0.1305 0.9115
39.6173 -29.1034 -0.2768 0.8215
39.6809 -27.0006 -0.2702 0.8253
39.7395 -24.9911 -0.2643 0.8288
39.7956 -23.0653 -0.2590 0.8319
42.9137 -22.8444 -0.2737 0.8233
40.6832 17.8430 -0.2501 0.8372
40.7755 21.5151 -0.2596 0.8316
36.4914 22.7625 -0.2421 0.8419
17.0313 11.4979 -0.1157 0.9211
13.7623 11.6418 -0.1015 0.9304
11.8877 11.6271 -0.0936 0.9356
8.9338 11.7014 -0.0829 0.9428
8.2829 11.7014 -0.0807 0.9443
7.7242 11.7927 -0.0794 0.9452
7.1747 11.8673 -0.0781 0.9460
6.6098 11.8815 -0.0765 0.9471
6.0558 11.8752 -0.0751 0.9481
5.0230 11.9011 -0.0727 0.9496
1.8725 -17.4458 -0.4941 0.9322
3.1583 -17.4431 -0.4991 0.9315
5.8487 -17.4431 -0.5180 0.9290
7.2848 -17.4380 -0.5321 0.9272
8.8096 -17.4326 -0.5500 0.9248
9.6131 -17.4298 -0.5605 0.9234
10.4490 -17.4269 -0.5721 0.9219
12.2399 -17.4264 -0.5996 0.9183
13.2017 -17.4231 -0.6155 0.9162
14.2173 -17.4196 -0.6331 0.9140
15.2941 -17.4159 -0.6526 0.9114
16.4409 -17.4120 -0.6743 0.9086
39.6162 -29.1025 -1.3841 0.8214
39.6816 -27.0011 -1.3515 0.8253
46.3651 14.5978 -1.3687 0.8232
42.5109 15.0912 -1.2702 0.8348
40.6832 17.8430 -1.2509 0.8371
17.0313 11.4979 -0.5786 0.9211
13.6914 11.5818 -0.5050 0.9308
11.8877 11.6271 -0.4682 0.9356
11.0787 11.6475 -0.4526 0.9377
8.2437 10.0255 -0.3655 0.9494
8.2464 10.8010 -0.3826 0.9471
8.2826 11.7011 -0.4037 0.9442
6.6093 11.8805 -0.3828 0.9471
0.6061 -17.4488 -0.8854 0.9325
1.2377 -17.4474 -0.8871 0.9323
3.1583 -17.4435 -0.8990 0.9315
7.2850 -17.4384 -0.9584 0.9271
8.8098 -17.4330 -0.9906 0.9248
9.6133 -17.4302 -1.0095 0.9234
10.4492 -17.4272 -1.0305 0.9218
13.2019 -17.4233 -1.1086 0.9162
14.2175 -17.4198 -1.1403 0.9139
16.4411 -17.4122 -1.2145 0.9085
25.2096 -23.1056 -1.7342 0.8720
29.2820 -23.1835 -1.8941 0.8611
42.4012 -18.7818 -2.3519 0.8305
43.0050 -17.2206 -2.3493 0.8307
46.9982 -14.9864 -2.5017 0.8207
47.5085 -13.2804 -2.5017 0.8207
47.9571 -11.5571 -2.5017 0.8207
48.3428 -9.8187 -2.5017 0.8207
48.6656 -8.0674 -2.5017 0.8207
48.9251 -6.3057 -2.5017 0.8207
49.3233 0.8001 -2.5017 0.8207
49.2623 2.5798 -2.5017 0.8207
49.1371 4.3560 -2.5017 0.8207
48.9478 6.1267 -2.5017 0.8207
43.7193 10.3668 -2.2787 0.8353
16.8989 9.7121 -0.9885 0.9249
15.6212 9.7442 -0.9337 0.9289
13.4749 9.8231 -0.8457 0.9354
12.5856 9.8897 -0.8118 0.9379
13.6914 11.5818 -0.9095 0.9307
10.3036 11.6469 -0.7886 0.9396
8.2464 10.8010 -0.6892 0.9470
8.2826 11.7011 -0.7270 0.9442
7.7242 11.7927 -0.7149 0.9451
7.1685 11.8570 -0.7027 0.9460
6.0558 11.8752 -0.6760 0.9480
5.0230 11.9011 -0.6551 0.9496
1.8725 -17.4465 -1.2866 0.9320
3.1584 -17.4439 -1.2998 0.9314
3.8131 -17.4425 -1.3091 0.9309
6.5573 -17.4412 -1.3662 0.9280
7.2851 -17.4387 -1.3857 0.9270
8.0350 -17.4361 -1.4077 0.9259
8.8099 -17.4333 -1.4322 0.9246
15.2945 -17.4164 -1.6995 0.9112
24.3046 -23.9465 -2.5017 0.8721
25.1530 -23.0537 -2.5017 0.8721
28.2086 -19.1944 -2.5017 0.8721
30.1180 -16.0329 -2.5017 0.8721
31.6746 -12.6835 -2.5017 0.8721
32.1117 -11.5321 -2.5017 0.8721
32.8599 -9.1856 -2.5017 0.8721
33.1700 -7.9936 -2.5017 0.8721
33.6917 -5.5852 -2.5041 0.8720
33.8715 -4.3656 -2.5041 0.8720
34.1497 0.5539 -2.5043 0.8720
34.1085 1.7862 -2.5043 0.8720
33.8849 5.4899 -2.5169 0.8714
33.9996 9.3701 -2.5859 0.8681
33.8996 10.6731 -2.6059 0.8672
33.6775 11.9554 -2.6203 0.8665
30.6848 14.8005 -2.4979 0.8723
16.8473 9.6824 -1.4248 0.9250
15.5735 9.7144 -1.3458 0.9290
14.4320 9.7431 -1.2768 0.9325
12.4620 9.7926 -1.1621 0.9384
11.6018 9.8142 -1.1142 0.9409
10.1080 9.8865 -1.0367 0.9449
7.6696 10.0455 -0.9267 0.9506
7.1629 11.8479 -1.0151 0.9460
6.5993 11.8626 -0.9953 0.9470
5.5313 11.8884 -0.9614 0.9488
5.0230 11.9011 -0.9472 0.9495
1.8726 -17.4469 -1.6846 0.9319
2.5122 -17.4456 -1.6921 0.9316
3.1585 -17.4443 -1.7020 0.9312
6.5575 -17.4416 -1.7889 0.9279
7.2852 -17.4391 -1.8145 0.9269
8.0351 -17.4364 -1.8432 0.9258
8.8101 -17.4337 -1.8753 0.9245
9.6137 -17.4309 -1.9111 0.9231
10.4496 -17.4279 -1.9509 0.9216
11.3258 -17.4301 -1.9956 0.9199
12.2404 -17.4270 -2.0445 0.9180
14.2178 -17.4203 -2.1588 0.9136
16.4416 -17.4127 -2.2992 0.9083
18.6311 -15.8777 -2.3501 0.9063
20.4302 -16.1753 -2.5017 0.9006
21.5438 -14.6594 -2.5017 0.9006
23.4291 -11.4066 -2.5017 0.9006
24.5248 -8.8075 -2.5017 0.9006
24.8267 -7.9165 -2.5017 0.9006
25.0962 -7.0154 -2.5017 0.9006
25.5369 -5.1867 -2.5017 0.9006
25.8445 -3.3310 -2.5017 0.9006
26.0174 -1.4580 -2.5017 0.9006
26.0532 -0.5180 -2.5017 0.9006
26.0548 0.4226 -2.5017 0.9006
26.0081 2.3056 -2.5067 0.9004
25.9088 3.2429 -2.5068 0.9004
25.6092 5.1038 -2.5070 0.9004
25.4094 6.0251 -2.5071 0.9004
24.8934 8.8370 -2.5360 0.8993
25.0185 9.9121 -2.5835 0.8975
13.4007 9.7690 -1.5921 0.9355
10.8088 9.8341 -1.4029 0.9430
9.3879 9.8698 -1.3077 0.9467
8.7458 9.8860 -1.2672 0.9483
6.0787 10.0545 -1.1280 0.9539
5.6001 10.0665 -1.1059 0.9548
5.1393 10.0781 -1.0861 0.9556
4.2628 10.1001 -1.0525 0.9569
3.1585 -17.4446 -2.1059 0.9311
4.4782 -17.4419 -2.1391 0.9300
6.5576 -17.4420 -2.2134 0.9277
8.0353 -17.4368 -2.2806 0.9256
9.5517 -17.3185 -2.3493 0.9234
10.7761 -16.5843 -2.3493 0.9234
11.3676 -16.1846 -2.3493 0.9234
11.9443 -15.7637 -2.3493 0.9234
13.3569 -15.2100 -2.4045 0.9217
15.0023 -14.7813 -2.5017 0.9187
15.5260 -14.2303 -2.5017 0.9187
16.5121 -13.0732 -2.5017 0.9187
17.4121 -11.8480 -2.5017 0.9187
17.8284 -11.2118 -2.5017 0.9187
19.2562 -8.5296 -2.5017 0.9187
19.5515 -7.8291 -2.5017 0.9187
20.2832 -5.6700 -2.5017 0.9187
20.6394 -4.1920 -2.5017 0.9187
20.8880 -2.6922 -2.5017 0.9187
21.0278 -1.1784 -2.5017 0.9187
21.0580 0.3416 -2.5017 0.9187
20.8977 2.6157 -2.5017 0.9187
20.0886 6.3248 -2.5017 0.9187
19.8473 7.0457 -2.5017 0.9187
19.5800 7.7574 -2.5017 0.9187
18.8345 8.2605 -2.4430 0.9205
17.8138 8.5923 -2.3493 0.9234
17.4921 9.2296 -2.3493 0.9234
16.8473 9.6824 -2.3082 0.9247
12.4620 9.7926 -1.8827 0.9382
10.0734 9.8526 -1.6738 0.9448
9.3879 9.8698 -1.6180 0.9466
6.5774 10.0420 -1.4259 0.9528
6.0787 10.0545 -1.3956 0.9538
5.6001 10.0665 -1.3683 0.9547
0.5756 -16.5709 -2.3493 0.9352
1.1733 -16.5393 -2.3493 0.9352
2.3633 -16.4115 -2.3493 0.9352
2.9541 -16.3156 -2.3493 0.9352
3.5410 -16.1983 -2.3493 0.9352
4.7003 -15.9007 -2.3493 0.9352
5.8351 -15.5202 -2.3493 0.9352
6.3914 -15.2995 -2.3493 0.9352
7.0119 -15.2158 -2.3738 0.9346
7.6855 -15.2082 -2.4144 0.9335
8.3832 -15.1999 -2.4595 0.9323
9.6202 -14.8055 -2.5017 0.9312
10.1483 -14.4486 -2.5017 0.9312
12.1218 -12.8379 -2.5017 0.9312
12.5773 -12.3920 -2.5017 0.9312
13.0163 -11.9300 -2.5017 0.9312
14.2296 -10.4532 -2.5017 0.9312
14.5976 -9.9328 -2.5017 0.9312
14.9465 -9.3995 -2.5017 0.9312
15.5857 -8.2968 -2.5017 0.9312
16.3911 -6.5636 -2.5017 0.9312
16.8219 -5.3641 -2.5017 0.9312
17.1650 -4.1366 -2.5017 0.9312
17.3031 -3.5144 -2.5017 0.9312
17.4187 -2.8876 -2.5017 0.9312
17.5116 -2.2570 -2.5017 0.9312
17.6288 -0.9879 -2.5017 0.9312
17.6541 0.2864 -2.5017 0.9312
17.6323 0.9233 -2.5017 0.9312
17.5874 1.5591 -2.5017 0.9312
17.5197 2.1929 -2.5017 0.9312
17.3159 3.4510 -2.5017 0.9312
17.1800 4.0737 -2.5017 0.9312
16.8414 5.3024 -2.5017 0.9312
16.1696 7.0917 -2.5017 0.9312
15.9031 7.6707 -2.5017 0.9312
14.3758 8.2620 -2.3493 0.9352
14.0682 8.7754 -2.3493 0.9352
12.4620 9.7926 -2.2457 0.9380
11.6018 9.8142 -2.1531 0.9405
10.8088 9.8341 -2.0705 0.9427
10.0734 9.8526 -1.9965 0.9447
9.3879 9.8698 -1.9300 0.9465
8.2232 10.0006 -1.8345 0.9490
7.0989 10.0288 -1.7410 0.9516
6.5774 10.0420 -1.7009 0.9527
6.0787 10.0545 -1.6647 0.9536
5.6001 10.0665 -1.6322 0.9545
4.2628 10.1001 -1.5533 0.9567
2.7056 -14.9430 -2.5017 0.9403
3.2431 -14.8357 -2.5017 0.9403
4.3049 -14.5631 -2.5017 0.9403
4.8277 -14.3982 -2.5017 0.9403
5.3442 -14.2146 -2.5017 0.9403
7.8092 -13.0242 -2.5017 0.9403
8.7284 -12.4270 -2.5017 0.9403
9.1712 -12.1039 -2.5017 0.9403
11.1951 -10.2608 -2.5017 0.9403
11.5582 -9.8500 -2.5017 0.9403
11.9061 -9.4265 -2.5017 0.9403
12.8553 -8.0843 -2.5017 0.9403
13.1387 -7.6151 -2.5017 0.9403
13.4050 -7.1359 -2.5017 0.9403
13.6538 -6.6475 -2.5017 0.9403
14.0977 -5.6452 -2.5017 0.9403
14.7633 -3.5578 -2.5017 0.9403
15.1216 -1.3964 -2.5017 0.9403
15.1267 1.3410 -2.5017 0.9403
14.9905 2.4287 -2.5017 0.9403
14.7762 3.5037 -2.5017 0.9403
14.6402 4.0347 -2.5017 0.9403
13.9072 6.0995 -2.5017 0.9403
13.1664 7.5669 -2.5017 0.9403
12.8847 8.0372 -2.5017 0.9403
12.1577 8.2077 -2.4165 0.9423
11.2131 8.8112 -2.3493 0.9438
10.5483 9.5971 -2.3493 0.9438
10.0734 9.8526 -2.3213 0.9445
8.7458 9.8860 -2.1744 0.9479
8.2232 10.0006 -2.1329 0.9489
7.6464 10.0151 -2.0758 0.9502
6.0787 10.0545 -1.9356 0.9535
5.6001 10.0665 -1.8977 0.9544
5.1393 10.0781 -1.8637 0.9552
4.6942 10.0893 -1.8332 0.9559
4.2628 10.1001 -1.8060 0.9565
0.4620 -13.3019 -2.5017 0.9473
0.9418 -13.2765 -2.5017 0.9473
1.8971 -13.1739 -2.5017 0.9473
2.3713 -13.0969 -2.5017 0.9473
3.3099 -12.8918 -2.5017 0.9473
4.6840 -12.4584 -2.5017 0.9473
5.1306 -12.2813 -2.5017 0.9473
5.5705 -12.0881 -2.5017 0.9473
6.8444 -11.4152 -2.5017 0.9473
7.6500 -10.8917 -2.5017 0.9473
8.0381 -10.6085 -2.5017 0.9473
8.7825 -10.0010 -2.5017 0.9473
9.1377 -9.6775 -2.5017 0.9473
9.4810 -9.3414 -2.5017 0.9473
9.8120 -8.9931 -2.5017 0.9473
10.1302 -8.6331 -2.5017 0.9473
11.2671 -7.0856 -2.5017 0.9473
11.5154 -6.6743 -2.5017 0.9473
11.7488 -6.2543 -2.5017 0.9473
11.9669 -5.8262 -2.5017 0.9473
12.1694 -5.3905 -2.5017 0.9473
12.5265 -4.4986 -2.5017 0.9473
12.8184 -3.5832 -2.5017 0.9473
13.1306 -2.1767 -2.5017 0.9473
13.2534 -1.2238 -2.5017 0.9473
13.2890 -0.7447 -2.5017 0.9473
13.2916 0.6960 -2.5017 0.9473
13.2578 1.1753 -2.5017 0.9473
13.0531 2.6014 -2.5017 0.9473
12.1890 5.3459 -2.5017 0.9473
11.2929 7.0442 -2.5017 0.9473
10.7553 7.8405 -2.5017 0.9473
6.0787 10.0545 -2.2084 0.9533
5.6001 10.0665 -2.1652 0.9542
4.6942 10.0893 -2.0916 0.9557
4.2628 10.1001 -2.0606 0.9564
0.8375 -11.8056 -2.5017 0.9528
1.6869 -11.7144 -2.5017 0.9528
2.1086 -11.6459 -2.5017 0.9528
2.5275 -11.5622 -2.5017 0.9528
3.3550 -11.3497 -2.5017 0.9528
3.7625 -11.2213 -2.5017 0.9528
4.5621 -10.9206 -2.5017 0.9528
5.7158 -10.3635 -2.5017 0.9528
6.0861 -10.1505 -2.5017 0.9528
7.1476 -9.4332 -2.5017 0.9528
7.8095 -8.8930 -2.5017 0.9528
8.1253 -8.6054 -2.5017 0.9528
8.7249 -7.9968 -2.5017 0.9528
9.0079 -7.6767 -2.5017 0.9528
9.2791 -7.3466 -2.5017 0.9528
9.5382 -7.0069 -2.5017 0.9528
9.7848 -6.6581 -2.5017 0.9528
10.0188 -6.3005 -2.5017 0.9528
10.4472 -5.5614 -2.5017 0.9528
10.6411 -5.1807 -2.5017 0.9528
10.8211 -4.7933 -2.5017 0.9528
10.9871 -4.3996 -2.5017 0.9528
11.1387 -4.0002 -2.5017 0.9528
11.2758 -3.5956 -2.5017 0.9528
11.3983 -3.1862 -2.5017 0.9528
11.5058 -2.7728 -2.5017 0.9528
4.7105 -0.6071 -1.0039 0.9808
4.5722 -0.4222 -0.9706 0.9814
4.5783 -0.0910 -0.9680 0.9815
4.5822 0.0743 -0.9687 0.9814
4.6281 0.2424 -0.9796 0.9812
11.7436 1.4699 -2.5017 0.9528
11.5159 2.7306 -2.5017 0.9528
11.4098 3.1445 -2.5017 0.9528
11.1533 3.9593 -2.5017 0.9528
11.0031 4.3593 -2.5017 0.9528
10.6600 5.1417 -2.5017 0.9528
10.4675 5.5231 -2.5017 0.9528
10.0417 6.2638 -2.5017 0.9528
9.8092 6.6221 -2.5017 0.9528
9.5638 6.9719 -2.5017 0.9528
8.7541 7.9647 -2.5017 0.9528
8.3800 8.1963 -2.4778 0.9532
7.3642 8.3243 -2.3493 0.9556
7.0589 8.5846 -2.3493 0.9556
6.4213 9.0715 -2.3493 0.9556
6.0897 9.2973 -2.3493 0.9556
5.7502 9.5111 -2.3493 0.9556
4.6885 10.0769 -2.3493 0.9556
0.7532 -10.6179 -2.5017 0.9572
1.8965 -10.4743 -2.5017 0.9572
2.2733 -10.3991 -2.5017 0.9572
2.6471 -10.3102 -2.5017 0.9572
3.0175 -10.2080 -2.5017 0.9572
3.3840 -10.0924 -2.5017 0.9572
3.7460 -9.9637 -2.5017 0.9572
4.1032 -9.8220 -2.5017 0.9572
4.4550 -9.6675 -2.5017 0.9572
5.1408 -9.3210 -2.5017 0.9572
5.7998 -8.9258 -2.5017 0.9572
6.1182 -8.7107 -2.5017 0.9572
6.7306 -8.2467 -2.5017 0.9572
7.0238 -7.9983 -2.5017 0.9572
7.3079 -7.7397 -2.5017 0.9572
7.8472 -7.1923 -2.5017 0.9572
9.3962 -5.0020 -2.5017 0.9572
9.7325 -4.3111 -2.5017 0.9572
9.8818 -3.9570 -2.5017 0.9572
10.0182 -3.5978 -2.5017 0.9572
10.2516 -2.8657 -2.5017 0.9572
10.3484 -2.4938 -2.5017 0.9572
4.2864 -0.5525 -1.0157 0.9824
4.2140 -0.3891 -0.9946 0.9828
4.2197 -0.0839 -0.9919 0.9828
4.2459 0.2223 -0.9992 0.9827
4.3662 0.3871 -1.0302 0.9822
10.5622 1.3220 -2.5017 0.9572
10.0313 3.5610 -2.5017 0.9572
9.5876 4.6244 -2.5017 0.9572
9.4144 4.9674 -2.5017 0.9572
9.2290 5.3040 -2.5017 0.9572
9.0316 5.6337 -2.5017 0.9572
8.6016 6.2705 -2.5017 0.9572
8.3697 6.5768 -2.5017 0.9572
7.8735 7.1635 -2.5017 0.9572
7.6098 7.4430 -2.5017 0.9572
7.3362 7.7128 -2.5017 0.9572
7.0530 7.9725 -2.5017 0.9572
6.7373 8.1935 -2.4931 0.9573
6.2651 8.2058 -2.4264 0.9585
5.8164 8.2170 -2.3661 0.9595
5.4771 8.3620 -2.3493 0.9598
5.1717 8.5543 -2.3493 0.9598
4.2168 9.0632 -2.3493 0.9598
3.8870 9.2094 -2.3493 0.9598
0.3354 -9.6564 -2.5017 0.9609
1.3772 -9.5636 -2.5017 0.9609
2.0635 -9.4394 -2.5017 0.9609
2.7390 -9.2659 -2.5017 0.9609
3.4003 -9.0442 -2.5017 0.9609
4.0439 -8.7753 -2.5017 0.9609
4.6664 -8.4608 -2.5017 0.9609
4.9687 -8.2868 -2.5017 0.9609
5.8353 -7.7012 -2.5017 0.9609
7.1230 -6.5286 -2.5017 0.9609
7.5754 -5.9977 -2.5017 0.9609
8.1793 -5.1438 -2.5017 0.9609
8.3596 -4.8452 -2.5017 0.9609
8.6873 -4.2295 -2.5017 0.9609
8.8344 -3.9132 -2.5017 0.9609
8.9698 -3.5918 -2.5017 0.9609
9.4689 -1.9232 -2.5017 0.9609
3.9664 -0.3663 -1.0313 0.9837
3.9744 0.2081 -1.0304 0.9837
9.5874 1.2000 -2.5017 0.9609
9.3150 2.5671 -2.5017 0.9609
9.2162 2.9016 -2.5017 0.9609
9.1055 3.2324 -2.5017 0.9609
8.8486 3.8808 -2.5017 0.9609
8.5456 4.5090 -2.5017 0.9609
8.3773 4.8145 -2.5017 0.9609
8.1981 5.1137 -2.5017 0.9609
8.0082 5.4063 -2.5017 0.9609
7.8078 5.6918 -2.5017 0.9609
7.5973 5.9699 -2.5017 0.9609
7.1469 6.5024 -2.5017 0.9609
6.9075 6.7561 -2.5017 0.9609
6.6592 7.0010 -2.5017 0.9609
6.4021 7.2368 -2.5017 0.9609
6.1368 7.4631 -2.5017 0.9609
5.8634 7.6798 -2.5017 0.9609
5.2942 8.0827 -2.5017 0.9609
4.9551 8.1959 -2.4798 0.9612
4.5646 8.2050 -2.4310 0.9619
4.1883 8.2131 -2.3871 0.9626
3.8297 8.2312 -2.3506 0.9632
3.5282 8.3595 -2.3493 0.9632
0.3068 -8.8319 -2.5017 0.9639
0.6253 -8.8150 -2.5017 0.9639
1.8873 -8.6333 -2.5017 0.9639
2.5051 -8.4747 -2.5017 0.9639
3.1099 -8.2718 -2.5017 0.9639
3.4065 -8.1542 -2.5017 0.9639
3.6985 -8.0259 -2.5017 0.9639
4.2679 -7.7382 -2.5017 0.9639
4.8150 -7.4102 -2.5017 0.9639
5.0793 -7.2316 -2.5017 0.9639
5.3370 -7.0436 -2.5017 0.9639
6.2950 -6.2023 -2.5017 0.9639
6.9285 -5.4855 -2.5017 0.9639
7.3062 -4.9714 -2.5017 0.9639
7.6457 -4.4314 -2.5017 0.9639
7.9455 -3.8684 -2.5017 0.9639
8.0799 -3.5790 -2.5017 0.9639
8.3171 -2.9869 -2.5017 0.9639
8.5108 -2.3791 -2.5017 0.9639
8.5912 -2.0704 -2.5017 0.9639
8.6603 -1.7590 -2.5017 0.9639
3.8561 -0.6393 -1.1065 0.9839
3.7864 -0.4880 -1.0808 0.9843
3.7870 -0.3497 -1.0766 0.9843
3.7913 -0.2125 -1.0750 0.9843
3.7937 -0.0754 -1.0742 0.9843
3.7937 0.0615 -1.0741 0.9844
3.8511 0.3414 -1.0945 0.9841
8.7687 1.0975 -2.5017 0.9639
8.6666 1.7272 -2.5017 0.9639
8.5987 2.0389 -2.5017 0.9639
8.5195 2.3479 -2.5017 0.9639
8.3279 2.9563 -2.5017 0.9639
8.0930 3.5494 -2.5017 0.9639
7.8158 4.1240 -2.5017 0.9639
7.4980 4.6771 -2.5017 0.9639
6.9485 5.4601 -2.5017 0.9639
6.7469 5.7073 -2.5017 0.9639
6.5366 5.9471 -2.5017 0.9639
6.0905 6.4031 -2.5017 0.9639
5.6127 6.8258 -2.5017 0.9639
4.0146 7.8725 -2.5017 0.9639
3.4363 8.1417 -2.5017 0.9639
0.5755 -8.1133 -2.5017 0.9665
1.1593 -8.0506 -2.5017 0.9665
1.4491 -8.0035 -2.5017 0.9665
2.3057 -7.8000 -2.5017 0.9665
2.5857 -7.7117 -2.5017 0.9665
3.1353 -7.5051 -2.5017 0.9665
4.1826 -6.9758 -2.5017 0.9665
4.4317 -6.8203 -2.5017 0.9665
4.6749 -6.6559 -2.5017 0.9665
4.9121 -6.4829 -2.5017 0.9665
5.1429 -6.3013 -2.5017 0.9665
5.5841 -5.9139 -2.5017 0.9665
5.7939 -5.7085 -2.5017 0.9665
6.1906 -5.2757 -2.5017 0.9665
6.3769 -5.0488 -2.5017 0.9665
6.5550 -4.8154 -2.5017 0.9665
7.1797 -3.8221 -2.5017 0.9665
7.3130 -3.5604 -2.5017 0.9665
7.5508 -3.0236 -2.5017 0.9665
7.6550 -2.7491 -2.5017 0.9665
7.7492 -2.4710 -2.5017 0.9665
7.8333 -2.1897 -2.5017 0.9665
3.6332 -0.2036 -1.1192 0.9849
3.6352 0.0590 -1.1183 0.9849
3.6324 0.1902 -1.1188 0.9849
4.3913 0.5496 -1.3612 0.9816
7.9768 1.5897 -2.5017 0.9665
7.9142 1.8765 -2.5017 0.9665
7.8413 2.1610 -2.5017 0.9665
7.7582 2.4426 -2.5017 0.9665
7.1936 3.7957 -2.5017 0.9665
6.7412 4.5510 -2.5017 0.9665
6.5726 4.7913 -2.5017 0.9665
6.2099 5.2530 -2.5017 0.9665
5.3893 6.0919 -2.5017 0.9665
4.4566 6.8040 -2.5017 0.9665
3.9541 7.1077 -2.5017 0.9665
3.6950 7.2458 -2.5017 0.9665
3.4311 7.3745 -2.5017 0.9665
3.1627 7.4935 -2.5017 0.9665
0.2613 -7.5216 -2.5017 0.9688
0.5326 -7.5073 -2.5017 0.9688
0.8032 -7.4832 -2.5017 0.9688
1.0727 -7.4493 -2.5017 0.9688
1.3409 -7.4057 -2.5017 0.9688
1.6073 -7.3525 -2.5017 0.9688
2.6486 -7.0447 -2.5017 0.9688
2.9011 -6.9445 -2.5017 0.9688
3.3945 -6.7172 -2.5017 0.9688
3.6347 -6.5903 -2.5017 0.9688
3.8702 -6.4548 -2.5017 0.9688
4.3258 -6.1588 -2.5017 0.9688
5.5483 -5.0853 -2.5017 0.9688
6.0654 -4.4557 -2.5017 0.9688
6.6435 -3.5365 -2.5017 0.9688
6.9868 -2.7978 -2.5017 0.9688
7.1704 -2.2865 -2.5017 0.9688
7.3755 -1.4980 -2.5017 0.9688
3.4984 -0.4509 -1.1725 0.9852
3.4932 -0.1958 -1.1630 0.9854
3.4937 0.0567 -1.1615 0.9854
3.5053 0.1836 -1.1668 0.9853
7.3810 1.4710 -2.5017 0.9688
7.3231 1.7364 -2.5017 0.9688
7.1787 2.2601 -2.5017 0.9688
7.0925 2.5178 -2.5017 0.9688
6.9970 2.7721 -2.5017 0.9688
6.8924 3.0228 -2.5017 0.9688
6.7788 3.2696 -2.5017 0.9688
6.6563 3.5122 -2.5017 0.9688
6.5252 3.7501 -2.5017 0.9688
6.3856 3.9832 -2.5017 0.9688
6.2377 4.2111 -2.5017 0.9688
5.9177 4.6501 -2.5017 0.9688
5.3799 5.2625 -2.5017 0.9688
4.9868 5.6369 -2.5017 0.9688
4.7801 5.8132 -2.5017 0.9688
4.1237 6.2958 -2.5017 0.9688
3.1749 6.8237 -2.5017 0.9688
2.9265 6.9338 -2.5017 0.9688
0.2428 -6.9916 -2.5017 0.9707
0.7466 -6.9558 -2.5017 0.9707
0.9971 -6.9243 -2.5017 0.9707
1.2464 -6.8838 -2.5017 0.9707
1.7397 -6.7760 -2.5017 0.9707
2.2240 -6.6329 -2.5017 0.9707
2.6967 -6.4551 -2.5017 0.9707
3.1553 -6.2438 -2.5017 0.9707
3.8117 -5.8662 -2.5017 0.9707
4.0209 -5.7248 -2.5017 0.9707
4.2249 -5.5759 -2.5017 0.9707
4.4234 -5.4198 -2.5017 0.9707
5.4848 -4.3425 -2.5017 0.9707
6.1753 -3.2873 -2.5017 0.9707
6.2899 -3.0623 -2.5017 0.9707
6.4944 -2.6006 -2.5017 0.9707
6.5840 -2.3645 -2.5017 0.9707
6.6651 -2.1254 -2.5017 0.9707
3.4005 -0.6907 -1.2409 0.9854
3.3805 -0.5604 -1.2254 0.9855
3.3862 -0.4364 -1.2209 0.9856
3.3899 -0.3130 -1.2174 0.9856
3.3947 -0.1902 -1.2159 0.9857
3.3958 0.1778 -1.2160 0.9857
3.3941 0.3009 -1.2185 0.9856
6.9057 1.1188 -2.5017 0.9707
6.8608 1.3673 -2.5017 0.9707
6.8070 1.6140 -2.5017 0.9707
6.4066 2.8098 -2.5017 0.9707
6.3011 3.0392 -2.5017 0.9707
5.9356 3.7025 -2.5017 0.9707
5.7981 3.9143 -2.5017 0.9707
5.5007 4.3224 -2.5017 0.9707
5.3411 4.5180 -2.5017 0.9707
5.1745 4.7079 -2.5017 0.9707
5.0012 4.8916 -2.5017 0.9707
4.4432 5.4035 -2.5017 0.9707
2.9511 6.3428 -2.5017 0.9707
0.6967 -6.4910 -2.5017 0.9724
1.3942 -6.3776 -2.5017 0.9724
1.6235 -6.3232 -2.5017 0.9724
2.0753 -6.1896 -2.5017 0.9724
2.5164 -6.0237 -2.5017 0.9724
2.7322 -5.9290 -2.5017 0.9724
2.9444 -5.8265 -2.5017 0.9724
3.3571 -5.5989 -2.5017 0.9724
3.5570 -5.4741 -2.5017 0.9724
3.9427 -5.2033 -2.5017 0.9724
4.3076 -4.9053 -2.5017 0.9724
5.1182 -4.0523 -2.5017 0.9724
5.6481 -3.2736 -2.5017 0.9724
5.7626 -3.0676 -2.5017 0.9724
6.2197 -1.9833 -2.5017 0.9724
6.2872 -1.7575 -2.5017 0.9724
3.3471 -0.4314 -1.2933 0.9856
3.3517 0.2971 -1.2895 0.9857
3.3656 0.4212 -1.2998 0.9856
6.4023 1.2759 -2.5017 0.9724
6.2936 1.7344 -2.5017 0.9724
6.2269 1.9604 -2.5017 0.9724
6.0692 2.4045 -2.5017 0.9724
5.9785 2.6220 -2.5017 0.9724
5.8800 2.8361 -2.5017 0.9724
5.7738 3.0464 -2.5017 0.9724
5.6600 3.2529 -2.5017 0.9724
5.5389 3.4550 -2.5017 0.9724
5.4106 3.6527 -2.5017 0.9724
5.2753 3.8456 -2.5017 0.9724
4.9841 4.2161 -2.5017 0.9724
4.8287 4.3933 -2.5017 0.9724
4.6670 4.5647 -2.5017 0.9724
4.1463 5.0424 -2.5017 0.9724
3.9616 5.1887 -2.5017 0.9724
3.7717 5.3283 -2.5017 0.9724
3.5770 5.4610 -2.5017 0.9724
3.1737 5.7048 -2.5017 0.9724
2.9657 5.8156 -2.5017 0.9724
2.5385 6.0144 -2.5017 0.9724
0.2122 -6.1089 -2.5017 0.9739
0.6523 -6.0777 -2.5017 0.9739
0.8712 -6.0502 -2.5017 0.9739
1.0890 -6.0148 -2.5017 0.9739
1.7328 -5.8619 -2.5017 0.9739
1.9432 -5.7955 -2.5017 0.9739
2.7570 -5.4555 -2.5017 0.9739
2.9521 -5.3525 -2.5017 0.9739
3.3305 -5.1256 -2.5017 0.9739
3.5133 -5.0021 -2.5017 0.9739
3.6916 -4.8720 -2.5017 0.9739
4.0334 -4.5930 -2.5017 0.9739
4.7924 -3.7943 -2.5017 0.9739
5.0536 -3.4387 -2.5017 0.9739
5.1744 -3.2541 -2.5017 0.9739
5.2885 -3.0652 -2.5017 0.9739
5.3957 -2.8723 -2.5017 0.9739
5.4959 -2.6757 -2.5017 0.9739
5.8869 -1.6456 -2.5017 0.9739
3.5703 -0.8604 -1.5031 0.9843
3.3276 -0.6759 -1.3897 0.9854
3.3201 -0.0660 -1.3591 0.9858
3.3220 0.2945 -1.3649 0.9857
3.3307 0.4169 -1.3738 0.9856
5.9477 1.4103 -2.5017 0.9739
5.6828 2.2515 -2.5017 0.9739
5.5056 2.6555 -2.5017 0.9739
5.4062 2.8525 -2.5017 0.9739
5.0662 3.4201 -2.5017 0.9739
4.9394 3.6007 -2.5017 0.9739
4.8062 3.7767 -2.5017 0.9739
4.6668 3.9477 -2.5017 0.9739
4.3699 4.2741 -2.5017 0.9739
4.0502 4.5781 -2.5017 0.9739
3.8823 4.7214 -2.5017 0.9739
3.3492 5.1133 -2.5017 0.9739
2.9716 5.3416 -2.5017 0.9739
2.7769 5.4454 -2.5017 0.9739
2.5786 5.5420 -2.5017 0.9739
2.3769 5.6315 -2.5017 0.9739
0.6126 -5.7076 -2.5017 0.9753
0.8182 -5.6817 -2.5017 0.9753
1.6273 -5.5049 -2.5017 0.9753
1.8249 -5.4426 -2.5017 0.9753
2.2126 -5.2967 -2.5017 0.9753
2.5890 -5.1234 -2.5017 0.9753
2.7723 -5.0265 -2.5017 0.9753
3.4667 -4.5753 -2.5017 0.9753
3.6296 -4.4472 -2.5017 0.9753
3.7877 -4.3133 -2.5017 0.9753
4.2318 -3.8787 -2.5017 0.9753
4.7458 -3.2293 -2.5017 0.9753
4.9664 -2.8785 -2.5017 0.9753
5.5284 -1.5454 -2.5017 0.9753
3.2931 -0.6688 -1.4645 0.9854
3.2923 -0.5458 -1.4544 0.9855
3.2937 -0.3042 -1.4416 0.9857
3.2944 -0.1846 -1.4380 0.9857
3.2954 0.0534 -1.4364 0.9857
3.2957 0.2921 -1.4419 0.9857
3.2978 0.4128 -1.4485 0.9856
3.3711 0.5462 -1.4883 0.9852
5.6296 1.1219 -2.5017 0.9753
5.5854 1.3244 -2.5017 0.9753
5.2569 2.3056 -2.5017 0.9753
5.1703 2.4938 -2.5017 0.9753
4.6386 3.3814 -2.5017 0.9753
4.5135 3.5467 -2.5017 0.9753
4.3826 3.7073 -2.5017 0.9753
4.2459 3.8630 -2.5017 0.9753
4.1037 4.0138 -2.5017 0.9753
3.9562 4.1593 -2.5017 0.9753
3.4835 4.5625 -2.5017 0.9753
3.3165 4.6853 -2.5017 0.9753
3.1452 4.8019 -2.5017 0.9753
2.9699 4.9123 -2.5017 0.9753
2.7906 5.0163 -2.5017 0.9753
2.6078 5.1137 -2.5017 0.9753
2.2321 5.2885 -2.5017 0.9753
0.3824 -5.3911 -2.5017 0.9765
1.7182 -5.1243 -2.5017 0.9765
2.7793 -4.6353 -2.5017 0.9765
2.9448 -4.5320 -2.5017 0.9765
3.1064 -4.4227 -2.5017 0.9765
3.4174 -4.1871 -2.5017 0.9765
3.7105 -3.9297 -2.5017 0.9765
3.8499 -3.7932 -2.5017 0.9765
3.9843 -3.6518 -2.5017 0.9765
4.1135 -3.5056 -2.5017 0.9765
4.2374 -3.3549 -2.5017 0.9765
4.3557 -3.1998 -2.5017 0.9765
4.4683 -3.0405 -2.5017 0.9765
4.5752 -2.8772 -2.5017 0.9765
4.6760 -2.7102 -2.5017 0.9765
4.8593 -2.3659 -2.5017 0.9765
5.0173 -2.0091 -2.5017 0.9765
5.0866 -1.8268 -2.5017 0.9765
3.3432 -0.8057 -1.5918 0.9850
3.2696 -0.6641 -1.5443 0.9854
3.2693 -0.5420 -1.5340 0.9855
3.2707 -0.4216 -1.5265 0.9856
3.2670 -0.1831 -1.5146 0.9857
3.2735 0.1714 -1.5173 0.9857
3.2727 0.2901 -1.5208 0.9856
3.3420 0.5414 -1.5671 0.9852
5.3004 1.0563 -2.5017 0.9765
5.0932 1.8080 -2.5017 0.9765
4.9495 2.1707 -2.5017 0.9765
4.7801 2.5221 -2.5017 0.9765
4.6859 2.6930 -2.5017 0.9765
4.5856 2.8604 -2.5017 0.9765
4.2496 3.3393 -2.5017 0.9765
4.1263 3.4905 -2.5017 0.9765
3.4326 4.1745 -2.5017 0.9765
3.1226 4.4113 -2.5017 0.9765
2.7962 4.6250 -2.5017 0.9765
2.6275 4.7229 -2.5017 0.9765
2.4553 4.8147 -2.5017 0.9765
2.2799 4.9002 -2.5017 0.9765
0.5443 -5.0711 -2.5017 0.9775
0.9087 -5.0186 -2.5017 0.9775
1.0892 -4.9825 -2.5017 0.9775
1.2683 -4.9399 -2.5017 0.9775
1.9660 -4.7060 -2.5017 0.9775
2.3003 -4.5519 -2.5017 0.9775
3.0801 -4.0650 -2.5017 0.9775
3.3653 -3.8322 -2.5017 0.9775
3.8817 -3.3081 -2.5017 0.9775
3.9986 -3.1658 -2.5017 0.9775
4.1103 -3.0195 -2.5017 0.9775
4.4125 -2.5575 -2.5017 0.9775
4.6631 -2.0656 -2.5017 0.9775
4.9118 -1.3731 -2.5017 0.9775
3.2467 -0.4185 -1.6057 0.9855
3.2422 -0.0645 -1.5907 0.9857
3.2462 0.0527 -1.5925 0.9856
3.2510 0.2882 -1.6010 0.9856
3.2521 0.4071 -1.6077 0.9855
3.3129 0.5367 -1.6463 0.9852
5.0018 0.9968 -2.5017 0.9775
4.9625 1.1767 -2.5017 0.9775
4.8647 1.5316 -2.5017 0.9775
4.8063 1.7062 -2.5017 0.9775
4.0102 3.1511 -2.5017 0.9775
3.8938 3.2938 -2.5017 0.9775
3.6461 3.5661 -2.5017 0.9775
3.5150 3.6954 -2.5017 0.9775
3.2392 3.9393 -2.5017 0.9775
3.0950 4.0537 -2.5017 0.9775
2.6387 4.3644 -2.5017 0.9775
2.4794 4.4568 -2.5017 0.9775
2.3169 4.5434 -2.5017 0.9775
1.9832 4.6987 -2.5017 0.9775
1.1992 -4.6709 -2.5017 0.9785
1.5331 -4.5722 -2.5017 0.9785
1.6971 -4.5139 -2.5017 0.9785
2.0183 -4.3797 -2.5017 0.9785
2.3290 -4.2227 -2.5017 0.9785
2.4798 -4.1359 -2.5017 0.9785
2.6275 -4.0437 -2.5017 0.9785
2.9123 -3.8437 -2.5017 0.9785
3.3107 -3.5063 -2.5017 0.9785
3.4351 -3.3845 -2.5017 0.9785
3.7808 -2.9934 -2.5017 0.9785
3.8864 -2.8550 -2.5017 0.9785
4.0822 -2.5672 -2.5017 0.9785
4.1722 -2.4182 -2.5017 0.9785
4.2568 -2.2661 -2.5017 0.9785
4.4091 -1.9531 -2.5017 0.9785
4.4768 -1.7927 -2.5017 0.9785
4.5386 -1.6299 -2.5017 0.9785
4.5944 -1.4651 -2.5017 0.9785
4.6443 -1.2983 -2.5017 0.9785
3.2286 -0.6558 -1.7091 0.9853
3.2243 -0.4156 -1.6865 0.9855
3.2223 -0.2976 -1.6788 0.9855
3.2196 -0.1804 -1.6729 0.9856
3.2204 -0.0640 -1.6710 0.9856
3.2322 0.4046 -1.6899 0.9854
3.2838 0.5320 -1.7258 0.9851
4.7293 0.9425 -2.5017 0.9785
4.6922 1.1126 -2.5017 0.9785
4.6490 1.2812 -2.5017 0.9785
4.5445 1.6132 -2.5017 0.9785
4.4833 1.7762 -2.5017 0.9785
4.4163 1.9368 -2.5017 0.9785
4.2650 2.2504 -2.5017 0.9785
4.0916 2.5522 -2.5017 0.9785
3.4475 3.3719 -2.5017 0.9785
3.3235 3.4941 -2.5017 0.9785
3.1953 3.6118 -2.5017 0.9785
2.7861 3.9360 -2.5017 0.9785
2.6423 4.0340 -2.5017 0.9785
2.4949 4.1267 -2.5017 0.9785
2.3444 4.2141 -2.5017 0.9785
2.0343 4.3722 -2.5017 0.9785
1.8751 4.4428 -2.5017 0.9785
0.1586 -4.5650 -2.5017 0.9794
0.4875 -4.5416 -2.5017 0.9794
0.6511 -4.5211 -2.5017 0.9794
0.9755 -4.4623 -2.5017 0.9794
1.1359 -4.4242 -2.5017 0.9794
1.2948 -4.3803 -2.5017 0.9794
1.4521 -4.3307 -2.5017 0.9794
1.6074 -4.2755 -2.5017 0.9794
1.9117 -4.1484 -2.5017 0.9794
2.2059 -3.9997 -2.5017 0.9794
2.3489 -3.9175 -2.5017 0.9794
2.4887 -3.8302 -2.5017 0.9794
2.6254 -3.7378 -2.5017 0.9794
2.8882 -3.5387 -2.5017 0.9794
3.0140 -3.4322 -2.5017 0.9794
3.2537 -3.2058 -2.5017 0.9794
3.3673 -3.0863 -2.5017 0.9794
3.4765 -2.9627 -2.5017 0.9794
3.6812 -2.7043 -2.5017 0.9794
3.7764 -2.5696 -2.5017 0.9794
3.8666 -2.4316 -2.5017 0.9794
4.0320 -2.1464 -2.5017 0.9794
4.1763 -1.8499 -2.5017 0.9794
4.2403 -1.6980 -2.5017 0.9794
4.2989 -1.5438 -2.5017 0.9794
4.3518 -1.3877 -2.5017 0.9794
3.2507 -0.7834 -1.8314 0.9849
3.2124 -0.6525 -1.7954 0.9852
3.2001 -0.2955 -1.7602 0.9855
3.1975 -0.1792 -1.7541 0.9855
3.1984 -0.0636 -1.7521 0.9855
3.2061 0.2842 -1.7629 0.9854
4.4035 1.2135 -2.5017 0.9794
4.2465 1.6824 -2.5017 0.9794
4.1830 1.8346 -2.5017 0.9794
4.1141 1.9844 -2.5017 0.9794
4.0398 2.1315 -2.5017 0.9794
3.8755 2.4174 -2.5017 0.9794
3.4873 2.9499 -2.5017 0.9794
3.3786 3.0739 -2.5017 0.9794
3.1480 3.3096 -2.5017 0.9794
2.9011 3.5280 -2.5017 0.9794
2.7718 3.6304 -2.5017 0.9794
2.5027 3.8209 -2.5017 0.9794
2.3632 3.9088 -2.5017 0.9794
2.0750 4.0691 -2.5017 0.9794
1.9268 4.1413 -2.5017 0.9794
0.3066 -4.3223 -2.5017 0.9802
0.4624 -4.3084 -2.5017 0.9802
0.9254 -4.2332 -2.5017 0.9802
1.3775 -4.1084 -2.5017 0.9802
1.5249 -4.0560 -2.5017 0.9802
1.9544 -3.8674 -2.5017 0.9802
2.0927 -3.7943 -2.5017 0.9802
2.3609 -3.6335 -2.5017 0.9802
2.4906 -3.5459 -2.5017 0.9802
2.8592 -3.2559 -2.5017 0.9802
3.2980 -2.8106 -2.5017 0.9802
3.3973 -2.6897 -2.5017 0.9802
3.4921 -2.5654 -2.5017 0.9802
3.5824 -2.4377 -2.5017 0.9802
3.6681 -2.3068 -2.5017 0.9802
3.7490 -2.1729 -2.5017 0.9802
3.8249 -2.0362 -2.5017 0.9802
3.9618 -1.7549 -2.5017 0.9802
4.0781 -1.4646 -2.5017 0.9802
4.1731 -1.1666 -2.5017 0.9802
3.1786 -0.4097 -1.8504 0.9853
3.1762 -0.0632 -1.8341 0.9854
3.1818 0.1666 -1.8395 0.9854
3.1862 0.2825 -1.8468 0.9853
3.4532 0.6882 -2.0329 0.9839
4.2162 0.9997 -2.5017 0.9802
4.1331 1.3012 -2.5017 0.9802
4.0285 1.5960 -2.5017 0.9802
3.9682 1.7404 -2.5017 0.9802
3.8324 2.0221 -2.5017 0.9802
3.5913 2.4245 -2.5017 0.9802
3.5015 2.5525 -2.5017 0.9802
3.4071 2.6772 -2.5017 0.9802
3.0977 3.0298 -2.5017 0.9802
2.9864 3.1396 -2.5017 0.9802
2.7521 3.3469 -2.5017 0.9802
2.3742 3.6247 -2.5017 0.9802
2.2418 3.7081 -2.5017 0.9802
2.1065 3.7866 -2.5017 0.9802
1.9685 3.8601 -2.5017 0.9802
1.8279 3.9287 -2.5017 0.9802
1.6849 3.9921 -2.5017 0.9802
