ply
format ascii 1.0
element vertex 925
property float32 x
property float32 y
property float32 z
property float32 I
end_header
18.5496 8.8721 3.1500 0.9202
18.5465 8.8706 2.6772 0.9204
18.5434 8.8691 2.2073 0.9206
18.5403 8.8676 1.7398 0.9208
40.6977 21.2986 3.8884 0.8316
18.5372 8.8662 1.2742 0.9209
40.7810 25.2376 2.9739 0.8251
40.6954 21.2974 1.8111 0.8320
18.5310 8.8632 0.3470 0.9211
40.7355 23.2240 0.7921 0.8290
40.7786 25.2361 0.8101 0.8254
18.5280 8.8618 -0.1156 0.9211
40.6929 21.2961 -0.2586 0.8322
40.7342 23.2233 -0.2640 0.8290
40.7773 25.2353 -0.2700 0.8255
40.8224 27.3438 -0.2766 0.8216
18.5249 8.8603 -0.5782 0.9211
40.6918 21.2955 -1.2932 0.8321
40.7330 23.2226 -1.3203 0.8289
-22.0353 -43.5952 -2.4773 0.8223
-18.8672 -45.1309 -2.4807 0.8221
-15.5930 -46.4387 -2.4843 0.8218
-13.9211 -47.0046 -2.4861 0.8217
-12.2287 -47.5106 -2.4880 0.8216
-10.5180 -47.9562 -2.4899 0.8215
-7.0503 -48.6628 -2.4937 0.8212
-3.8945 -35.9648 -1.8346 0.8651
-1.6610 -46.3259 -2.3509 0.8306
1.7171 -47.4309 -2.4070 0.8269
5.2511 -48.3349 -2.4657 0.8231
45.3993 -20.1757 -2.5195 0.8196
45.9164 -16.5615 -2.4754 0.8224
46.1387 -12.9751 -2.4306 0.8253
46.0416 -11.1757 -2.4028 0.8272
47.3877 -9.7102 -2.4532 0.8239
45.2331 14.0952 -2.4028 0.8272
44.6798 15.7089 -2.4019 0.8272
44.0677 17.3006 -2.4009 0.8273
18.5218 8.8588 -1.0412 0.9211
40.6906 21.2949 -2.3291 0.8320
40.7318 23.2219 -2.3778 0.8288
40.1629 24.8552 -2.3953 0.8276
38.2283 27.6508 -2.3927 0.8278
37.1865 28.9926 -2.3913 0.8279
36.1001 30.2973 -2.3901 0.8280
-11.9537 -31.7614 -2.4883 0.8727
-10.8078 -32.1875 -2.4895 0.8727
-9.6467 -32.5723 -2.4908 0.8726
-8.4721 -32.9155 -2.4921 0.8726
-7.2852 -33.2165 -2.4934 0.8725
-6.0877 -33.4749 -2.4947 0.8724
-4.8811 -33.6902 -2.4960 0.8724
-2.2975 -31.9194 -2.3465 0.8795
-1.1524 -32.1417 -2.3582 0.8790
0.0056 -32.3882 -2.3748 0.8782
2.3697 -32.7637 -2.4086 0.8766
3.5732 -32.8905 -2.4258 0.8757
4.7892 -32.9752 -2.4432 0.8749
6.0163 -33.0170 -2.4607 0.8741
7.2530 -33.0147 -2.4784 0.8732
11.0039 -32.7339 -2.5321 0.8707
12.2620 -32.5463 -2.5501 0.8698
17.2807 -31.3068 -2.6220 0.8664
19.7521 -30.3869 -2.6574 0.8647
23.7387 -27.0418 -2.6384 0.8656
24.4559 -25.9141 -2.6126 0.8668
25.7263 -23.5998 -2.5598 0.8693
26.2960 -22.4335 -2.5344 0.8705
26.8247 -21.2644 -2.5099 0.8717
27.3505 -20.1212 -2.4896 0.8727
27.8364 -18.9729 -2.4700 0.8736
28.7671 -16.7098 -2.4393 0.8751
29.6342 -14.4690 -2.4180 0.8761
28.2132 -11.3400 -2.2295 0.8852
30.6047 -11.0388 -2.3855 0.8777
30.9484 -9.9188 -2.3829 0.8778
33.3192 -9.3700 -2.5378 0.8704
33.9159 -6.9497 -2.5385 0.8704
34.1475 -5.7246 -2.5387 0.8703
34.5720 -2.0095 -2.5392 0.8703
34.6227 -0.7634 -2.5392 0.8703
34.6278 0.4838 -2.5392 0.8703
34.1932 5.4488 -2.5388 0.8703
31.9018 6.2690 -2.3838 0.8777
31.6890 7.4214 -2.3864 0.8776
31.4310 8.5657 -2.3886 0.8775
29.8444 12.9754 -2.3861 0.8776
18.5188 8.8574 -1.5052 0.9210
28.2439 16.1024 -2.3838 0.8777
27.6361 17.1028 -2.3830 0.8778
-9.1407 -24.2872 -2.4914 0.9010
-8.2635 -24.6101 -2.4923 0.9009
-6.4761 -25.1607 -2.4943 0.9009
-3.5456 -19.4965 -1.9025 0.9235
-3.5025 -24.1748 -2.3451 0.9065
-2.6308 -24.2951 -2.3461 0.9065
-0.8817 -24.5914 -2.3624 0.9059
0.0043 -24.7392 -2.3751 0.9054
1.8040 -24.9421 -2.4008 0.9044
2.7155 -24.9960 -2.4139 0.9039
3.6334 -25.0174 -2.4270 0.9034
4.5565 -25.0056 -2.4402 0.9029
5.4835 -24.9604 -2.4535 0.9024
6.4133 -24.8809 -2.4668 0.9019
8.2757 -24.6181 -2.4934 0.9009
9.2056 -24.4339 -2.5067 0.9004
10.1327 -24.2141 -2.5200 0.8999
11.0557 -23.9586 -2.5332 0.8994
12.8392 -23.2602 -2.5507 0.8987
13.6046 -22.6765 -2.5388 0.8992
15.6870 -20.7033 -2.4937 0.9009
16.3163 -19.9951 -2.4777 0.9015
17.5068 -18.5508 -2.4488 0.9026
19.1410 -16.3294 -2.4155 0.9038
20.5989 -14.0399 -2.3933 0.9047
21.5529 -12.5194 -2.3929 0.9047
21.8487 -11.6600 -2.3776 0.9053
22.2383 -10.8579 -2.3759 0.9053
24.1270 -9.6976 -2.4964 0.9008
24.7745 -8.9359 -2.5285 0.8996
25.0835 -8.0392 -2.5288 0.8996
25.3597 -7.1316 -2.5291 0.8996
25.6027 -6.2146 -2.5294 0.8995
25.9879 -4.3567 -2.5298 0.8995
26.3521 0.3682 -2.5302 0.8995
26.3214 1.3167 -2.5301 0.8995
26.1566 3.2073 -2.5300 0.8995
25.6526 6.0077 -2.5294 0.8995
23.0700 9.0571 -2.3794 0.9052
18.4037 8.8023 -1.9585 0.9213
21.5103 12.2634 -2.3771 0.9053
21.0492 13.0265 -2.3765 0.9053
20.5607 13.7720 -2.3758 0.9053
20.0457 14.4992 -2.3751 0.9054
-8.7825 -19.0498 -2.4918 0.9190
-7.3933 -19.6444 -2.4933 0.9189
-5.9642 -20.1382 -2.4948 0.9189
-4.5024 -20.5283 -2.4964 0.9188
-2.8316 -19.5446 -2.3459 0.9235
-2.1268 -19.6403 -2.3466 0.9235
0.0035 -19.9962 -2.3753 0.9226
1.4551 -20.1185 -2.3960 0.9220
5.1457 -19.9630 -2.4488 0.9203
5.8865 -19.8504 -2.4594 0.9200
9.2707 -18.3256 -2.4395 0.9206
9.8868 -17.9114 -2.4302 0.9209
11.0727 -17.0344 -2.4134 0.9214
8.3320 -10.9963 -1.6388 0.9459
12.7384 -15.6105 -2.3933 0.9220
13.7803 -14.6020 -2.3849 0.9223
14.2694 -14.0690 -2.3803 0.9225
15.2745 -13.0309 -2.3849 0.9223
15.7340 -12.4746 -2.3854 0.9223
16.4908 -11.2399 -2.3706 0.9228
17.2391 -10.0136 -2.3682 0.9228
19.4063 -8.6243 -2.5226 0.9180
19.7068 -7.9210 -2.5229 0.9180
19.9816 -7.2072 -2.5232 0.9180
20.2304 -6.4837 -2.5235 0.9180
20.4526 -5.7517 -2.5237 0.9180
20.6483 -5.0120 -2.5239 0.9180
21.0721 -2.7567 -2.5244 0.9180
21.2173 -1.2332 -2.5246 0.9180
21.2482 -0.4685 -2.5246 0.9180
21.2513 0.2969 -2.5246 0.9180
21.2266 1.0619 -2.5246 0.9180
21.1741 1.8254 -2.5245 0.9180
20.9861 3.3442 -2.5243 0.9180
20.8509 4.0974 -2.5242 0.9180
18.5853 7.2965 -2.3717 0.9227
18.0292 8.6232 -2.3740 0.9227
17.7035 9.2649 -2.3735 0.9227
17.3548 9.8943 -2.3730 0.9227
16.9836 10.5105 -2.3725 0.9227
15.2843 12.8275 -2.3702 0.9228
-7.9361 -15.7009 -2.4927 0.9314
-6.2015 -16.4776 -2.4946 0.9313
-5.6056 -16.6946 -2.4952 0.9313
-5.0022 -16.8900 -2.4959 0.9313
-4.1244 -16.0241 -2.3445 0.9353
-1.7854 -16.4880 -2.3498 0.9352
-0.5986 -16.6934 -2.3668 0.9347
1.2182 -16.8436 -2.3928 0.9341
2.4392 -16.7945 -2.4046 0.9337
4.2188 -16.3673 -2.3949 0.9340
5.9310 -15.7424 -2.3836 0.9343
7.0305 -15.2357 -2.3775 0.9345
8.0937 -14.6630 -2.3731 0.9346
8.6089 -14.3496 -2.3710 0.9346
9.1159 -14.0241 -2.3700 0.9347
7.8964 -11.2405 -1.9464 0.9460
10.5999 -12.9898 -2.3755 0.9345
11.4998 -12.1855 -2.3740 0.9346
12.3061 -11.2889 -2.3662 0.9348
13.0777 -10.3669 -2.3645 0.9348
15.0344 -9.4729 -2.5178 0.9307
15.6815 -8.3688 -2.5185 0.9307
15.9747 -7.7997 -2.5188 0.9307
16.2471 -7.2203 -2.5191 0.9307
17.1218 -4.8150 -2.5201 0.9307
17.4263 -3.5708 -2.5204 0.9307
17.5444 -2.9412 -2.5205 0.9307
17.7894 0.2485 -2.5208 0.9306
17.7249 1.5281 -2.5207 0.9306
17.6579 2.1652 -2.5207 0.9307
17.5678 2.7995 -2.5206 0.9307
17.3189 4.0560 -2.5203 0.9307
16.9797 5.2911 -2.5199 0.9307
16.7766 5.8985 -2.5197 0.9307
15.0746 7.2101 -2.3676 0.9347
14.5305 8.2841 -2.3699 0.9347
13.8932 9.3060 -2.3693 0.9347
13.5465 9.7983 -2.3689 0.9347
13.1822 10.2776 -2.3684 0.9347
12.8010 10.7433 -2.3679 0.9347
-6.8290 -13.5106 -2.4939 0.9405
-6.3395 -13.7507 -2.4944 0.9405
-4.8230 -14.3636 -2.4961 0.9404
-3.5500 -13.7922 -2.3462 0.9439
-3.0535 -13.9224 -2.3481 0.9439
-2.0470 -14.1290 -2.3519 0.9438
-1.5344 -14.1696 -2.3479 0.9439
-1.0236 -14.2212 -2.3489 0.9438
-0.5112 -14.2554 -2.3499 0.9438
0.0025 -14.2730 -2.3513 0.9438
2.0549 -14.1487 -2.3553 0.9437
2.5643 -14.0728 -2.3565 0.9437
4.5682 -13.5893 -2.3618 0.9435
5.0575 -13.4240 -2.3632 0.9435
6.0179 -13.0412 -2.3661 0.9434
6.4876 -12.8241 -2.3676 0.9434
6.9493 -12.5888 -2.3688 0.9434
7.8296 -12.0451 -2.3667 0.9434
7.8572 -11.1846 -2.2518 0.9461
9.0653 -11.1093 -2.3621 0.9435
9.4576 -10.7736 -2.3617 0.9435
9.8372 -10.4238 -2.3612 0.9436
10.2037 -10.0604 -2.3606 0.9436
11.9609 -9.4816 -2.5144 0.9400
12.2963 -9.0461 -2.5148 0.9400
12.9189 -8.1400 -2.5155 0.9400
13.2053 -7.6705 -2.5158 0.9400
13.4745 -7.1909 -2.5161 0.9400
13.7262 -6.7018 -2.5164 0.9400
13.9600 -6.2039 -2.5166 0.9399
14.1756 -5.6977 -2.5169 0.9399
14.8510 -3.6048 -2.5176 0.9399
15.0735 -2.5270 -2.5178 0.9399
15.2172 -1.4357 -2.5180 0.9399
15.2660 0.7637 -2.5181 0.9399
15.2284 1.3128 -2.5180 0.9399
14.9965 2.9470 -2.5178 0.9399
14.8799 3.4848 -2.5176 0.9399
14.7439 4.0181 -2.5175 0.9399
14.4145 5.0680 -2.5171 0.9399
14.2215 5.5832 -2.5169 0.9399
13.0062 6.2208 -2.3751 0.9432
12.4691 7.1088 -2.3645 0.9435
11.6421 8.4208 -2.3670 0.9434
11.0020 9.2335 -2.3662 0.9434
-5.9875 -11.8458 -2.4948 0.9474
-5.5581 -12.0559 -2.4953 0.9474
-5.1214 -12.2506 -2.4958 0.9474
-4.2282 -12.5923 -2.4967 0.9474
-3.5808 -12.0905 -2.3701 0.9500
-3.1114 -12.0882 -2.3462 0.9505
-1.3473 -12.4420 -2.3523 0.9503
-0.8989 -12.4884 -2.3534 0.9503
0.0022 -12.5299 -2.3551 0.9503
1.3553 -12.4710 -2.3579 0.9502
1.8039 -12.4184 -2.3587 0.9502
3.5725 -12.0447 -2.3614 0.9502
5.2580 -11.3944 -2.3587 0.9502
6.8375 -10.5189 -2.3581 0.9502
7.2110 -10.2647 -2.3579 0.9502
8.5215 -9.7072 -2.4279 0.9488
9.8489 -9.0348 -2.5121 0.9471
10.1692 -8.6755 -2.5125 0.9470
10.4764 -8.3048 -2.5128 0.9470
11.0497 -7.5313 -2.5134 0.9470
11.3150 -7.1294 -2.5137 0.9470
12.2261 -5.4333 -2.5147 0.9470
12.5874 -4.5401 -2.5151 0.9470
12.8831 -3.6230 -2.5154 0.9470
13.1117 -2.6867 -2.5157 0.9470
13.2005 -2.2130 -2.5158 0.9470
13.3262 -1.2573 -2.5159 0.9470
13.3631 -0.7767 -2.5160 0.9470
13.2857 1.6291 -2.5159 0.9470
13.1331 2.5808 -2.5157 0.9470
12.9121 3.5189 -2.5155 0.9470
12.4549 4.8897 -2.5150 0.9470
12.2698 5.3345 -2.5148 0.9470
12.0687 5.7723 -2.5146 0.9470
11.8332 6.1928 -2.5103 0.9471
10.9266 6.2295 -2.3641 0.9501
10.4407 6.9934 -2.3620 0.9501
9.6340 8.0854 -2.3640 0.9501
-3.3554 -11.3297 -2.4977 0.9528
-1.9870 -10.9260 -2.3474 0.9556
-1.5931 -10.9961 -2.3486 0.9556
-1.1967 -11.0515 -2.3497 0.9556
-0.3986 -11.1175 -2.3515 0.9555
0.0019 -11.1279 -2.3522 0.9555
0.4027 -11.1229 -2.3527 0.9555
1.2025 -11.0685 -2.3534 0.9555
1.6004 -11.0195 -2.3537 0.9555
2.7801 -10.7857 -2.3544 0.9555
3.1668 -10.6792 -2.3545 0.9555
3.5495 -10.5587 -2.3546 0.9555
3.9274 -10.4243 -2.3547 0.9555
4.6674 -10.1146 -2.3547 0.9555
5.3836 -9.7532 -2.3548 0.9555
5.8272 -9.7129 -2.3943 0.9547
6.8092 -9.6928 -2.5039 0.9527
7.1689 -9.4613 -2.5092 0.9526
8.1508 -8.6368 -2.5103 0.9526
8.4576 -8.3389 -2.5106 0.9526
9.3110 -7.3810 -2.5115 0.9526
9.5718 -7.0418 -2.5118 0.9526
9.8202 -6.6933 -2.5121 0.9526
10.2785 -5.9704 -2.5126 0.9526
10.6833 -5.2162 -2.5130 0.9526
10.8651 -4.8285 -2.5132 0.9526
11.0327 -4.4345 -2.5134 0.9525
11.1860 -4.0346 -2.5136 0.9525
11.4486 -3.2196 -2.5139 0.9525
11.5577 -2.8054 -2.5140 0.9525
11.6517 -2.3875 -2.5141 0.9525
11.8422 -1.1173 -2.5143 0.9525
11.8749 -0.6902 -2.5143 0.9525
11.8921 -0.2622 -2.5144 0.9525
11.8508 1.0216 -2.5143 0.9525
11.8061 1.4477 -2.5143 0.9525
11.5800 2.7120 -2.5140 0.9525
11.3537 3.5380 -2.5138 0.9525
11.0683 4.3453 -2.5135 0.9525
10.7253 5.1298 -2.5131 0.9526
10.5328 5.5122 -2.5129 0.9526
10.0125 6.1963 -2.4889 0.9530
9.2961 6.2267 -2.3651 0.9553
-4.4473 -9.6465 -2.4965 0.9573
-3.3828 -10.0745 -2.4977 0.9573
-3.0183 -10.1914 -2.4981 0.9573
-2.6499 -10.2951 -2.4985 0.9573
-1.8792 -10.3335 -2.4684 0.9578
-1.4668 -10.1239 -2.4042 0.9588
-1.0803 -9.9759 -2.3583 0.9596
-0.7173 -9.9655 -2.3482 0.9598
0.0017 -9.9956 -2.3492 0.9598
0.3617 -9.9909 -2.3496 0.9598
0.7213 -9.9729 -2.3500 0.9597
1.4375 -9.8976 -2.3506 0.9597
1.7932 -9.8409 -2.3509 0.9597
2.5065 -9.7242 -2.3601 0.9596
3.2641 -9.7099 -2.4076 0.9588
4.8145 -9.5169 -2.5066 0.9571
5.1548 -9.3388 -2.5070 0.9571
5.8152 -8.9462 -2.5077 0.9571
6.1344 -8.7322 -2.5081 0.9571
6.4457 -8.5068 -2.5084 0.9571
7.0430 -8.0230 -2.5091 0.9571
7.6040 -7.4972 -2.5097 0.9571
7.8699 -7.2194 -2.5100 0.9571
8.1257 -6.9321 -2.5102 0.9571
8.3709 -6.6357 -2.5105 0.9571
8.6053 -6.3307 -2.5108 0.9571
8.8285 -6.0173 -2.5110 0.9570
9.0402 -5.6961 -2.5112 0.9570
9.4283 -5.0316 -2.5117 0.9570
9.7674 -4.3407 -2.5120 0.9570
10.1803 -3.2627 -2.5125 0.9570
10.3897 -2.5219 -2.5127 0.9570
10.4741 -2.1463 -2.5128 0.9570
10.6020 -1.3870 -2.5130 0.9570
10.6453 -1.0043 -2.5130 0.9570
10.6902 -0.2357 -2.5130 0.9570
10.6917 0.1494 -2.5131 0.9570
10.6794 0.5342 -2.5130 0.9570
10.6531 0.9184 -2.5130 0.9570
10.5589 1.6826 -2.5129 0.9570
10.4098 2.4379 -2.5127 0.9570
9.6418 4.6116 -2.5119 0.9570
9.4688 4.9554 -2.5117 0.9570
9.2835 5.2927 -2.5115 0.9570
9.0861 5.6230 -2.5113 0.9570
8.5673 6.1967 -2.4850 0.9575
7.9739 6.2168 -2.3763 0.9593
7.6836 6.4486 -2.3575 0.9596
-3.0710 -9.1460 -2.4980 0.9609
-2.7401 -9.2519 -2.4984 0.9609
-2.0678 -9.4280 -2.4991 0.9609
-1.3844 -9.5552 -2.4998 0.9609
-0.3461 -9.6531 -2.5010 0.9609
1.3894 -9.5663 -2.5029 0.9608
2.0748 -9.4444 -2.5036 0.9608
2.4139 -9.3649 -2.5040 0.9608
2.7499 -9.2733 -2.5044 0.9608
3.0825 -9.1696 -2.5047 0.9608
3.4111 -9.0539 -2.5051 0.9608
4.6781 -8.4752 -2.5065 0.9608
6.3912 -7.2805 -2.5083 0.9608
6.6500 -7.0465 -2.5086 0.9608
6.9001 -6.8032 -2.5089 0.9608
7.1414 -6.5510 -2.5092 0.9607
7.8084 -5.7445 -2.5099 0.9607
8.3844 -4.8702 -2.5105 0.9607
8.7144 -4.2548 -2.5109 0.9607
8.8625 -3.9386 -2.5111 0.9607
8.9991 -3.6171 -2.5112 0.9607
9.2370 -2.9604 -2.5115 0.9607
9.3380 -2.6260 -2.5116 0.9607
9.5035 -1.9474 -2.5118 0.9607
9.5677 -1.6040 -2.5118 0.9607
9.6994 -0.2139 -2.5120 0.9607
9.7008 0.1355 -2.5120 0.9607
9.6294 1.1808 -2.5119 0.9607
9.5804 1.5267 -2.5118 0.9607
9.4452 2.2120 -2.5117 0.9607
9.1504 3.2172 -2.5114 0.9607
8.7486 4.1844 -2.5109 0.9607
8.5917 4.4963 -2.5108 0.9607
8.4236 4.8025 -2.5106 0.9607
8.0548 5.3953 -2.5102 0.9607
7.3811 6.1947 -2.4950 0.9610
-3.6934 -8.0112 -2.4973 0.9640
-3.4030 -8.1400 -2.4976 0.9640
-3.1081 -8.2583 -2.4980 0.9640
-2.8091 -8.3659 -2.4983 0.9640
-2.5064 -8.4628 -2.4986 0.9640
-1.8914 -8.6235 -2.4993 0.9640
-1.5799 -8.6872 -2.4996 0.9640
-1.2662 -8.7396 -2.5000 0.9640
-0.9508 -8.7808 -2.5003 0.9639
-0.6342 -8.8106 -2.5007 0.9639
-0.3166 -8.8289 -2.5010 0.9639
0.6376 -8.8152 -2.5021 0.9639
0.9547 -8.7878 -2.5024 0.9639
1.5851 -8.6987 -2.5031 0.9639
3.1194 -8.2797 -2.5048 0.9639
3.9956 -7.8981 -2.5057 0.9639
4.8257 -7.4239 -2.5066 0.9639
5.0904 -7.2462 -2.5069 0.9639
5.8440 -6.6572 -2.5078 0.9638
6.0806 -6.4431 -2.5080 0.9638
7.9676 -3.8902 -2.5101 0.9638
8.1030 -3.6010 -2.5102 0.9638
8.5376 -2.4009 -2.5107 0.9638
8.6888 -1.7804 -2.5109 0.9638
8.7475 -1.4665 -2.5109 0.9638
8.7949 -1.1506 -2.5110 0.9638
8.8551 -0.5147 -2.5110 0.9638
8.8679 -0.1955 -2.5111 0.9638
8.8692 0.1239 -2.5111 0.9638
8.8372 0.7618 -2.5110 0.9638
8.8039 1.0795 -2.5110 0.9638
8.7030 1.7102 -2.5109 0.9638
8.6355 2.0224 -2.5108 0.9638
8.5568 2.3320 -2.5107 0.9638
8.4670 2.6384 -2.5106 0.9638
7.9989 3.8258 -2.5101 0.9638
7.8555 4.1111 -2.5099 0.9638
7.5382 4.6651 -2.5096 0.9638
7.3648 4.9331 -2.5094 0.9638
6.9895 5.4494 -2.5090 0.9638
-3.3998 -7.3743 -2.4976 0.9666
-3.1324 -7.4929 -2.4979 0.9666
-2.5857 -7.7007 -2.4985 0.9666
-2.3070 -7.7898 -2.4988 0.9666
-2.0253 -7.8687 -2.4991 0.9666
-1.4542 -7.9961 -2.4998 0.9666
-1.1655 -8.0443 -2.5001 0.9666
-0.5837 -8.1093 -2.5007 0.9665
0.0014 -8.1324 -2.5014 0.9665
0.2943 -8.1281 -2.5017 0.9665
0.8787 -8.0879 -2.5023 0.9665
1.1695 -8.0521 -2.5026 0.9665
2.5943 -7.7173 -2.5042 0.9665
3.1437 -7.5124 -2.5048 0.9665
3.9367 -7.1321 -2.5057 0.9665
4.1915 -6.9864 -2.5059 0.9665
4.4408 -6.8317 -2.5062 0.9665
4.6844 -6.6681 -2.5065 0.9665
4.9219 -6.4958 -2.5067 0.9665
5.1532 -6.3150 -2.5070 0.9665
5.3777 -6.1260 -2.5072 0.9665
6.2037 -5.2924 -2.5081 0.9664
6.3907 -5.0661 -2.5083 0.9664
6.5694 -4.8330 -2.5085 0.9664
6.9013 -4.3484 -2.5089 0.9664
7.6757 -2.7685 -2.5098 0.9664
7.9303 -1.9249 -2.5100 0.9664
8.0487 -1.3493 -2.5102 0.9664
8.0922 -1.0586 -2.5102 0.9664
8.1252 -0.7666 -2.5102 0.9664
8.1607 0.1140 -2.5103 0.9664
8.1512 0.4078 -2.5103 0.9664
8.0594 1.2843 -2.5102 0.9664
7.9457 1.8609 -2.5100 0.9664
7.8733 2.1457 -2.5100 0.9664
7.6979 2.7065 -2.5098 0.9664
7.3601 3.5202 -2.5094 0.9664
7.2281 3.7828 -2.5093 0.9664
7.0868 4.0403 -2.5091 0.9664
6.9363 4.2926 -2.5089 0.9664
6.7767 4.5392 -2.5088 0.9664
-3.1462 -6.8243 -2.4979 0.9688
-2.8988 -6.9339 -2.4982 0.9688
-2.6475 -7.0346 -2.4985 0.9688
-2.3928 -7.1261 -2.4987 0.9688
-1.8742 -7.2815 -2.4993 0.9688
-1.6110 -7.3451 -2.4996 0.9688
-1.0785 -7.4437 -2.5002 0.9688
-0.8098 -7.4786 -2.5005 0.9688
-0.2696 -7.5193 -2.5011 0.9688
0.2723 -7.5210 -2.5017 0.9688
0.5430 -7.5072 -2.5020 0.9688
1.6158 -7.3549 -2.5031 0.9688
3.6423 -6.5985 -2.5053 0.9687
3.8779 -6.4637 -2.5056 0.9687
4.5536 -6.0097 -2.5063 0.9687
5.1765 -5.4851 -2.5070 0.9687
5.3711 -5.2956 -2.5072 0.9687
5.5587 -5.0992 -2.5074 0.9687
5.9122 -4.6867 -2.5078 0.9687
6.2350 -4.2497 -2.5082 0.9687
6.3844 -4.0227 -2.5083 0.9687
6.5255 -3.7905 -2.5085 0.9687
6.6581 -3.5532 -2.5086 0.9687
6.7821 -3.3114 -2.5088 0.9687
7.1006 -2.5611 -2.5091 0.9687
7.1885 -2.3039 -2.5092 0.9687
7.2670 -2.0436 -2.5093 0.9687
7.3361 -1.7807 -2.5094 0.9687
7.3957 -1.5154 -2.5094 0.9687
7.4456 -1.2482 -2.5095 0.9687
7.5480 -0.1664 -2.5096 0.9687
7.5491 0.1054 -2.5096 0.9687
7.5404 0.3772 -2.5096 0.9687
7.4936 0.9189 -2.5096 0.9687
7.4555 1.1881 -2.5095 0.9687
7.4077 1.4557 -2.5095 0.9687
7.3503 1.7214 -2.5094 0.9687
7.2834 1.9849 -2.5093 0.9687
7.2069 2.2458 -2.5092 0.9687
7.1211 2.5037 -2.5091 0.9687
7.0261 2.7584 -2.5090 0.9687
6.9219 3.0094 -2.5089 0.9687
6.6867 3.4994 -2.5087 0.9687
6.2692 4.1992 -2.5082 0.9687
6.1135 4.4220 -2.5080 0.9687
5.9499 4.6389 -2.5079 0.9687
5.7786 4.8498 -2.5077 0.9687
-2.9248 -6.3440 -2.4982 0.9708
-1.7422 -6.7687 -2.4995 0.9707
-1.2508 -6.8780 -2.5000 0.9707
-0.7528 -6.9518 -2.5005 0.9707
-0.2506 -6.9895 -2.5011 0.9707
0.5047 -6.9780 -2.5019 0.9707
0.7557 -6.9561 -2.5022 0.9707
1.2546 -6.8852 -2.5027 0.9707
1.7472 -6.7785 -2.5033 0.9707
1.9904 -6.7119 -2.5035 0.9707
2.7033 -6.4601 -2.5043 0.9707
2.9345 -6.3593 -2.5046 0.9707
3.1619 -6.2501 -2.5048 0.9707
3.8185 -5.8744 -2.5055 0.9707
4.4308 -5.4299 -2.5062 0.9707
4.8109 -5.0978 -2.5066 0.9707
5.3338 -4.5503 -2.5072 0.9707
5.4945 -4.3556 -2.5074 0.9707
5.6482 -4.1552 -2.5075 0.9707
5.9333 -3.7385 -2.5078 0.9706
6.0644 -3.5226 -2.5080 0.9706
6.1876 -3.3021 -2.5081 0.9706
6.4099 -2.8486 -2.5084 0.9706
6.5988 -2.3801 -2.5086 0.9706
6.6804 -2.1410 -2.5087 0.9706
6.7534 -1.8992 -2.5087 0.9706
6.9851 -0.6590 -2.5090 0.9706
7.0145 -0.1546 -2.5090 0.9706
7.0074 0.3505 -2.5090 0.9706
6.8308 1.5998 -2.5088 0.9706
6.7686 1.8446 -2.5088 0.9706
6.3276 3.0264 -2.5083 0.9706
5.9634 3.6905 -2.5079 0.9706
5.8263 3.9026 -2.5077 0.9706
5.6816 4.1096 -2.5076 0.9707
-2.9407 -5.8179 -2.4981 0.9725
-2.7295 -5.9205 -2.4984 0.9725
-2.5148 -6.0155 -2.4986 0.9725
-2.0758 -6.1821 -2.4991 0.9725
-1.3975 -6.3718 -2.4998 0.9724
-1.1673 -6.4186 -2.5001 0.9724
-0.9355 -6.4571 -2.5003 0.9724
-0.7025 -6.4873 -2.5006 0.9724
0.0011 -6.5272 -2.5014 0.9724
0.2362 -6.5237 -2.5016 0.9724
0.4710 -6.5116 -2.5019 0.9724
0.7052 -6.4911 -2.5021 0.9724
1.4014 -6.3791 -2.5029 0.9724
1.8572 -6.2629 -2.5034 0.9724
3.1586 -5.7224 -2.5048 0.9724
3.3629 -5.6054 -2.5050 0.9724
3.5629 -5.4812 -2.5053 0.9724
3.7583 -5.3498 -2.5055 0.9724
3.9488 -5.2115 -2.5057 0.9724
4.1343 -5.0663 -2.5059 0.9724
4.3143 -4.9146 -2.5061 0.9724
4.4887 -4.7564 -2.5063 0.9724
4.6574 -4.5920 -2.5065 0.9724
4.9765 -4.2455 -2.5068 0.9724
5.1265 -4.0639 -2.5070 0.9724
5.5358 -3.4880 -2.5074 0.9724
5.7731 -3.0809 -2.5077 0.9724
6.3607 -1.5439 -2.5083 0.9724
6.4123 -1.3139 -2.5084 0.9724
6.5443 -0.1443 -2.5085 0.9723
6.4971 0.7967 -2.5085 0.9723
6.3730 1.4925 -2.5083 0.9724
6.3150 1.7210 -2.5083 0.9724
6.2487 1.9472 -2.5082 0.9724
6.0920 2.3917 -2.5080 0.9724
5.9036 2.8237 -2.5078 0.9724
5.7978 3.0342 -2.5077 0.9724
5.5639 3.4433 -2.5074 0.9724
5.4360 3.6412 -2.5073 0.9724
5.3010 3.8343 -2.5072 0.9724
5.0107 4.2053 -2.5068 0.9724
-2.5559 -5.5440 -2.4986 0.9740
-2.3549 -5.6330 -2.4988 0.9740
-1.9438 -5.7889 -2.4992 0.9740
-1.7342 -5.8556 -2.4995 0.9740
-1.0930 -6.0102 -2.5002 0.9739
0.0011 -6.1117 -2.5014 0.9739
0.2211 -6.1082 -2.5016 0.9739
0.8788 -6.0505 -2.5023 0.9739
1.3122 -5.9727 -2.5028 0.9739
1.5265 -5.9222 -2.5030 0.9739
1.7389 -5.8639 -2.5033 0.9739
2.7622 -5.4601 -2.5044 0.9739
3.1485 -5.2481 -2.5048 0.9739
3.3358 -5.1317 -2.5050 0.9739
3.5186 -5.0087 -2.5052 0.9739
3.6969 -4.8791 -2.5054 0.9739
4.0391 -4.6011 -2.5058 0.9739
4.2024 -4.4530 -2.5060 0.9739
4.5126 -4.1396 -2.5063 0.9739
5.2970 -3.0769 -2.5072 0.9739
5.5052 -2.6879 -2.5074 0.9739
5.6848 -2.2850 -2.5076 0.9739
5.9547 -1.4454 -2.5079 0.9739
6.0030 -1.2301 -2.5079 0.9739
6.0761 -0.7949 -2.5080 0.9739
6.1177 -0.3556 -2.5080 0.9739
6.1275 0.0856 -2.5081 0.9739
6.1204 0.3062 -2.5081 0.9739
6.0824 0.7458 -2.5080 0.9739
5.9662 1.3973 -2.5079 0.9739
5.9119 1.6111 -2.5078 0.9739
5.5268 2.6435 -2.5074 0.9739
5.3218 3.0340 -2.5072 0.9739
5.2088 3.2235 -2.5071 0.9739
5.0891 3.4088 -2.5069 0.9739
4.8301 3.7658 -2.5066 0.9739
-2.5862 -5.1165 -2.4985 0.9753
-2.2116 -5.2902 -2.4989 0.9753
-1.8255 -5.4366 -2.4994 0.9753
-1.6287 -5.4992 -2.4996 0.9753
-1.4297 -5.5548 -2.4998 0.9753
-0.4120 -5.7236 -2.5009 0.9753
-0.2056 -5.7352 -2.5011 0.9753
0.0010 -5.7394 -2.5014 0.9753
0.2077 -5.7362 -2.5016 0.9753
0.6201 -5.7074 -2.5020 0.9753
1.0294 -5.6490 -2.5025 0.9753
1.2322 -5.6088 -2.5027 0.9753
1.4335 -5.5613 -2.5029 0.9753
1.6329 -5.5066 -2.5031 0.9753
1.8303 -5.4446 -2.5034 0.9752
2.0253 -5.3757 -2.5036 0.9752
2.7770 -5.0309 -2.5044 0.9752
3.1323 -4.8188 -2.5048 0.9752
3.3040 -4.7032 -2.5050 0.9752
3.6344 -4.4539 -2.5053 0.9752
3.7927 -4.3204 -2.5055 0.9752
3.9461 -4.1814 -2.5057 0.9752
4.2373 -3.8870 -2.5060 0.9752
4.3748 -3.7322 -2.5061 0.9752
4.9737 -2.8891 -2.5068 0.9752
5.1692 -2.5239 -2.5070 0.9752
5.4118 -1.9519 -2.5073 0.9752
5.5385 -1.5575 -2.5074 0.9752
5.5912 -1.3571 -2.5075 0.9752
5.7052 -0.7463 -2.5076 0.9752
5.7284 -0.5405 -2.5076 0.9752
5.7525 -0.1268 -2.5076 0.9752
5.7467 0.2875 -2.5076 0.9752
5.6457 1.1094 -2.5075 0.9752
5.6020 1.3120 -2.5075 0.9752
5.5510 1.5128 -2.5074 0.9752
5.4928 1.7116 -2.5074 0.9752
5.4274 1.9082 -2.5073 0.9752
5.3550 2.1023 -2.5072 0.9752
5.2757 2.2937 -2.5071 0.9752
5.1895 2.4821 -2.5070 0.9752
5.0965 2.6672 -2.5069 0.9752
4.8909 3.0268 -2.5067 0.9752
4.7785 3.2008 -2.5066 0.9752
4.6600 3.3706 -2.5065 0.9752
4.4048 3.6968 -2.5062 0.9752
-2.4351 -4.8176 -2.4987 0.9765
-2.0824 -4.9811 -2.4991 0.9765
-1.9019 -5.0533 -2.4993 0.9765
-1.7188 -5.1189 -2.4995 0.9765
-1.5335 -5.1779 -2.4997 0.9765
-1.3462 -5.2302 -2.4999 0.9765
-1.1571 -5.2757 -2.5001 0.9765
-0.9665 -5.3144 -2.5003 0.9765
-0.5816 -5.3710 -2.5007 0.9765
-0.3879 -5.3890 -2.5009 0.9765
-0.1936 -5.3999 -2.5011 0.9765
0.0009 -5.4038 -2.5014 0.9765
0.3899 -5.3907 -2.5018 0.9765
1.5374 -5.1843 -2.5030 0.9764
1.9065 -5.0611 -2.5034 0.9764
2.0879 -4.9895 -2.5036 0.9764
2.4420 -4.8271 -2.5040 0.9764
2.6144 -4.7363 -2.5042 0.9764
2.9489 -4.5366 -2.5046 0.9764
3.4216 -4.1930 -2.5051 0.9764
3.5706 -4.0674 -2.5053 0.9764
3.8545 -3.8004 -2.5056 0.9764
4.1185 -3.5135 -2.5059 0.9764
4.2425 -3.3631 -2.5060 0.9764
4.4740 -3.0494 -2.5063 0.9764
4.6823 -2.7198 -2.5065 0.9764
4.7774 -2.5495 -2.5066 0.9764
5.0946 -1.8376 -2.5069 0.9764
5.3061 -1.0873 -2.5072 0.9764
5.3926 -0.5088 -2.5073 0.9764
5.4075 -0.3143 -2.5073 0.9764
5.4153 -0.1194 -2.5073 0.9764
5.4161 0.0757 -2.5073 0.9764
5.3966 0.4653 -2.5073 0.9764
5.3763 0.6592 -2.5072 0.9764
5.3490 0.8524 -2.5072 0.9764
5.3148 1.0444 -2.5072 0.9764
5.1708 1.6113 -2.5070 0.9764
5.0412 1.9791 -2.5069 0.9764
4.7979 2.5109 -2.5066 0.9764
4.7042 2.6819 -2.5065 0.9764
4.6043 2.8495 -2.5064 0.9764
4.4986 3.0132 -2.5063 0.9764
4.3869 3.1731 -2.5062 0.9764
4.2696 3.3288 -2.5060 0.9764
4.1468 3.4802 -2.5059 0.9764
-2.2980 -4.5464 -2.4988 0.9776
-2.1330 -4.6266 -2.4990 0.9776
-0.7309 -5.0450 -2.5006 0.9775
-0.3660 -5.0854 -2.5010 0.9775
0.0009 -5.0993 -2.5014 0.9775
0.3679 -5.0869 -2.5018 0.9775
0.5509 -5.0707 -2.5020 0.9775
0.9145 -5.0188 -2.5024 0.9775
1.2735 -4.9407 -2.5028 0.9775
1.4507 -4.8920 -2.5029 0.9775
1.6260 -4.8370 -2.5031 0.9775
1.7993 -4.7756 -2.5033 0.9775
2.4669 -4.4692 -2.5041 0.9775
2.6264 -4.3778 -2.5042 0.9775
2.7825 -4.2807 -2.5044 0.9775
3.0838 -4.0699 -2.5047 0.9775
3.2285 -3.9564 -2.5049 0.9775
3.5053 -3.7143 -2.5052 0.9775
3.8860 -3.3152 -2.5056 0.9775
4.0031 -3.1733 -2.5057 0.9775
4.1149 -3.0273 -2.5059 0.9775
4.2215 -2.8773 -2.5060 0.9775
4.4180 -2.5662 -2.5062 0.9775
4.5077 -2.4056 -2.5063 0.9775
4.6694 -2.0751 -2.5065 0.9775
4.7413 -1.9057 -2.5065 0.9775
4.8070 -1.7338 -2.5066 0.9775
5.0065 -1.0259 -2.5068 0.9775
5.0881 -0.4801 -2.5069 0.9775
5.1021 -0.2966 -2.5069 0.9775
5.1095 -0.1126 -2.5069 0.9775
5.1103 0.0714 -2.5069 0.9775
5.1044 0.2554 -2.5069 0.9775
5.0727 0.6220 -2.5069 0.9775
5.0469 0.8043 -2.5069 0.9775
4.9758 1.1653 -2.5068 0.9775
4.8208 1.6950 -2.5066 0.9775
4.7565 1.8674 -2.5066 0.9775
4.5270 2.3691 -2.5063 0.9775
4.4386 2.5305 -2.5062 0.9775
4.2446 2.8432 -2.5060 0.9775
3.9127 3.2838 -2.5056 0.9775
-2.0169 -4.3748 -2.4992 0.9785
-1.5337 -4.5677 -2.4997 0.9785
-1.3684 -4.6204 -2.4999 0.9785
-1.2012 -4.6669 -2.5000 0.9785
-0.6911 -4.7704 -2.5006 0.9785
-0.3461 -4.8085 -2.5010 0.9785
-0.1728 -4.8181 -2.5012 0.9785
0.0008 -4.8216 -2.5014 0.9785
0.1745 -4.8188 -2.5015 0.9785
0.6932 -4.7730 -2.5021 0.9785
1.0351 -4.7114 -2.5025 0.9785
1.2041 -4.6715 -2.5027 0.9785
1.3716 -4.6254 -2.5029 0.9785
1.5374 -4.5733 -2.5030 0.9785
1.7012 -4.5154 -2.5032 0.9785
1.8628 -4.4515 -2.5034 0.9785
2.0220 -4.3818 -2.5036 0.9785
2.1786 -4.3065 -2.5037 0.9785
2.4832 -4.1391 -2.5041 0.9785
2.6308 -4.0473 -2.5042 0.9785
3.3141 -3.5117 -2.5050 0.9785
3.4386 -3.3903 -2.5051 0.9785
3.7847 -3.0002 -2.5055 0.9785
3.9911 -2.7203 -2.5057 0.9785
4.0867 -2.5749 -2.5058 0.9785
4.2617 -2.2743 -2.5060 0.9785
4.3410 -2.1195 -2.5061 0.9785
4.4146 -1.9619 -2.5062 0.9785
4.4825 -1.8017 -2.5063 0.9785
4.6008 -1.4745 -2.5064 0.9785
4.8306 -0.1065 -2.5066 0.9785
4.8258 0.2414 -2.5066 0.9785
4.7958 0.5881 -2.5066 0.9785
4.7715 0.7604 -2.5066 0.9785
4.7409 0.9317 -2.5065 0.9785
4.7043 1.1017 -2.5065 0.9785
4.6126 1.4374 -2.5064 0.9785
4.4970 1.7655 -2.5063 0.9785
4.4304 1.9262 -2.5062 0.9785
4.2800 2.2399 -2.5060 0.9785
4.1074 2.5419 -2.5058 0.9785
3.8088 2.9696 -2.5055 0.9785
3.6993 3.1046 -2.5054 0.9785
-1.9105 -4.1440 -2.4993 0.9794
-1.6075 -4.2713 -2.4996 0.9794
-0.9780 -4.4591 -2.5003 0.9794
-0.8169 -4.4916 -2.5005 0.9794
-0.6546 -4.5185 -2.5006 0.9794
-0.4916 -4.5395 -2.5008 0.9794
-0.3278 -4.5545 -2.5010 0.9794
-0.1636 -4.5637 -2.5012 0.9794
0.0008 -4.5670 -2.5014 0.9794
0.6566 -4.5208 -2.5021 0.9794
0.8190 -4.4946 -2.5023 0.9794
0.9804 -4.4625 -2.5024 0.9794
1.2992 -4.3810 -2.5028 0.9794
1.4562 -4.3317 -2.5030 0.9794
1.6113 -4.2767 -2.5031 0.9794
1.7643 -4.2162 -2.5033 0.9794
2.0635 -4.0789 -2.5036 0.9794
2.2091 -4.0022 -2.5038 0.9794
2.3519 -3.9203 -2.5039 0.9794
2.8910 -3.5429 -2.5045 0.9794
3.3704 -3.0918 -2.5050 0.9794
3.4797 -2.9686 -2.5052 0.9794
3.6847 -2.7107 -2.5054 0.9794
3.7800 -2.5764 -2.5055 0.9794
3.8705 -2.4387 -2.5056 0.9794
4.1113 -2.0074 -2.5059 0.9794
4.1811 -1.8581 -2.5059 0.9793
4.3042 -1.5524 -2.5061 0.9793
4.4467 -1.0794 -2.5062 0.9793
4.4828 -0.9186 -2.5063 0.9793
4.5130 -0.7566 -2.5063 0.9793
4.5750 -0.1009 -2.5064 0.9793
4.5704 0.2286 -2.5064 0.9793
4.5592 0.3930 -2.5063 0.9793
4.5420 0.5569 -2.5063 0.9793
4.4901 0.8824 -2.5063 0.9793
4.4148 1.2032 -2.5062 0.9793
4.3685 1.3613 -2.5061 0.9793
4.3166 1.5177 -2.5061 0.9793
4.2590 1.6721 -2.5060 0.9793
4.1960 1.8243 -2.5059 0.9793
3.9744 2.2659 -2.5057 0.9794
3.5036 2.9404 -2.5052 0.9794
-1.8125 -3.9314 -2.4994 0.9802
-1.6698 -3.9943 -2.4995 0.9802
-1.5250 -4.0521 -2.4997 0.9802
-1.0794 -4.1937 -2.5002 0.9802
-0.6210 -4.2866 -2.5007 0.9802
-0.3110 -4.3207 -2.5010 0.9802
-0.1552 -4.3294 -2.5012 0.9802
0.1568 -4.3300 -2.5015 0.9802
0.3126 -4.3218 -2.5017 0.9802
0.4680 -4.3080 -2.5019 0.9802
0.9300 -4.2333 -2.5024 0.9802
1.3813 -4.1091 -2.5029 0.9802
1.5285 -4.0570 -2.5030 0.9802
2.2311 -3.7188 -2.5038 0.9802
2.3636 -3.6363 -2.5039 0.9802
2.6195 -3.4571 -2.5042 0.9802
2.7424 -3.3607 -2.5044 0.9802
2.8618 -3.2600 -2.5045 0.9802
2.9775 -3.1550 -2.5046 0.9802
3.3008 -2.8159 -2.5050 0.9802
3.4002 -2.6954 -2.5051 0.9802
3.7525 -2.1797 -2.5055 0.9802
3.8286 -2.0432 -2.5055 0.9802
3.8998 -1.9041 -2.5056 0.9802
4.0270 -1.6186 -2.5058 0.9802
4.0828 -1.4726 -2.5058 0.9802
4.1332 -1.3247 -2.5059 0.9802
4.1783 -1.1750 -2.5059 0.9802
4.2809 -0.7176 -2.5060 0.9802
4.3215 -0.4077 -2.5061 0.9802
4.3353 0.2169 -2.5061 0.9802
4.3246 0.3728 -2.5061 0.9802
4.2591 0.8370 -2.5060 0.9802
4.1877 1.1413 -2.5059 0.9802
3.9801 1.7304 -2.5057 0.9802
3.8450 2.0123 -2.5056 0.9802
3.7700 2.1494 -2.5055 0.9802
3.6900 2.2836 -2.5054 0.9802
3.6053 2.4149 -2.5053 0.9802
3.4219 2.6679 -2.5051 0.9802
