ply
format ascii 1.0
element vertex 982
property float32 x
property float32 y
property float32 z
property float32 I
end_header
-32.6962 -11.5204 6.1126 0.8687
-30.5807 -12.0237 5.7940 0.8751
-29.7320 -16.9453 6.0342 0.8702
-29.7501 -18.3987 6.1679 0.8676
-2.0936 -13.2686 2.3686 0.9469
7.6325 -11.2436 2.3962 0.9463
-37.0817 -11.5891 5.9517 0.8545
-30.5812 -12.0239 5.0340 0.8755
-30.0219 -13.0651 5.0158 0.8759
-29.7087 -15.5486 5.1369 0.8731
-29.7328 -16.9457 5.2427 0.8707
-29.7515 -18.3996 5.3590 0.8680
-29.7484 -19.9062 5.4835 0.8652
-29.7597 -23.1646 5.7774 0.8585
-29.7577 -24.9262 5.9467 0.8546
-29.7524 -26.7940 6.1338 0.8504
7.6288 -11.2382 2.0808 0.9465
27.6910 -11.7337 4.6072 0.8854
-32.6964 -11.5204 4.5143 0.8695
-30.5817 -12.0241 4.2791 0.8759
-29.7335 -16.9462 4.4566 0.8711
-29.7530 -18.4005 4.5555 0.8684
-29.7570 -24.9257 5.0548 0.8551
-29.7518 -26.7933 5.2138 0.8509
-29.7225 -30.9006 5.5832 0.8412
-37.0748 -11.5870 4.1711 0.8553
-30.5822 -12.0243 3.5287 0.8762
-30.0231 -13.0656 3.5160 0.8766
-29.7342 -16.9466 3.6751 0.8714
-29.7613 -21.4982 3.9424 0.8627
-29.7593 -23.1643 4.0496 0.8592
-29.7246 -30.9027 4.6043 0.8416
-29.7153 -35.6926 4.9871 0.8296
-29.7163 -38.4146 5.2152 0.8225
-2.0937 -13.2688 1.4425 0.9474
7.6215 -11.2275 1.4572 0.9469
-32.6965 -11.5204 2.9346 0.8701
-30.5827 -12.0245 2.7818 0.8764
-29.7107 -15.5496 2.8387 0.8741
-29.7350 -16.9470 2.8973 0.8716
-29.7557 -24.9246 3.2858 0.8557
-29.7504 -26.7921 3.3892 0.8515
-29.7218 -33.2040 3.7724 0.8362
-29.7173 -35.6950 3.9318 0.8299
27.6453 -11.7144 2.5417 0.8865
-32.6966 -11.5205 2.1497 0.8703
-30.5832 -12.0247 2.0378 0.8766
-30.0243 -13.0661 2.0305 0.8770
-29.7114 -15.5500 2.0795 0.8742
-29.7544 -19.9102 2.2201 0.8663
-29.7590 -23.1640 2.3385 0.8597
-29.7498 -26.7915 2.4826 0.8518
-29.7237 -33.2061 2.7636 0.8364
-29.7193 -35.6974 2.8803 0.8301
-2.0937 -13.2690 0.8330 0.9476
7.6143 -11.2168 0.8407 0.9471
27.6412 -11.7126 1.8616 0.8866
-42.2774 -11.5670 1.7283 0.8391
-30.5837 -12.0249 1.2958 0.8767
-30.0249 -13.0664 1.2912 0.8771
-29.7364 -16.9478 1.3496 0.8720
-29.7558 -19.9111 1.4118 0.8665
-29.7608 -21.4978 1.4476 0.8633
-29.7588 -23.1639 1.4870 0.8599
-29.7544 -24.9235 1.5305 0.8561
-29.7308 -30.9092 1.6911 0.8422
-29.7257 -33.2083 1.7574 0.8366
7.6108 -11.2116 0.5343 0.9472
27.6372 -11.7109 1.1836 0.8868
-42.2762 -11.5666 0.7404 0.8392
-37.0612 -11.5827 0.6559 0.8561
-32.6967 -11.5205 0.5856 0.8705
-29.7573 -19.9121 0.6048 0.8665
-29.7606 -21.4977 0.6202 0.8634
-29.7484 -26.7903 0.6763 0.8520
-29.7337 -28.7729 0.6989 0.8474
-29.7328 -30.9113 0.7245 0.8423
-29.7233 -35.7022 0.7847 0.8304
-29.7176 -38.4163 0.8204 0.8234
-2.0937 -13.2692 0.2269 0.9477
27.6331 -11.7092 0.5069 0.8869
-42.2750 -11.5663 -0.2468 0.8392
-30.5847 -12.0253 -0.1850 0.8768
-29.8429 -14.2804 -0.1863 0.8760
-29.7134 -15.5511 -0.1888 0.8745
-29.7584 -23.1636 -0.2123 0.8600
-29.7360 -28.7752 -0.2330 0.8475
-29.7253 -35.7046 -0.2616 0.8304
-44.7715 -7.2025 -1.2769 0.8341
-29.8435 -14.2807 -0.9316 0.8760
-29.7386 -16.9491 -0.9638 0.8720
-29.7602 -19.9141 -1.0083 0.8665
-29.7602 -21.4974 -1.0337 0.8634
-29.7525 -24.9219 -1.0928 0.8562
-29.7471 -26.7891 -1.1272 0.8520
-29.7273 -35.7070 -1.3083 0.8303
-29.7182 -38.4171 -1.3676 0.8234
-2.0937 -13.2693 -0.3783 0.9477
-38.5150 -7.6214 -1.9911 0.8545
-38.4061 -9.0415 -2.0010 0.8538
-32.6969 -11.5206 -1.7581 0.8704
-30.5857 -12.0257 -1.6667 0.8767
-29.8442 -14.2810 -1.6779 0.8759
-29.7147 -15.5517 -1.7009 0.8743
-29.7645 -18.4076 -1.7748 0.8692
-29.7617 -19.9151 -1.8161 0.8664
-29.7600 -21.4973 -1.8618 0.8633
-29.7580 -23.1633 -1.9125 0.8598
-29.7519 -24.9214 -1.9682 0.8560
-29.7464 -26.7886 -2.0301 0.8519
-29.7390 -30.9177 -2.1756 0.8421
-28.0313 -36.2364 -2.3234 0.8324
-27.9005 -38.8702 -2.4265 0.8256
-27.0369 -40.6689 -2.4767 0.8223
-25.5756 -41.6344 -2.4780 0.8223
-24.0802 -42.5478 -2.4794 0.8222
-20.9940 -44.2140 -2.4822 0.8220
-19.4071 -44.9644 -2.4837 0.8219
-16.1554 -46.2947 -2.4867 0.8217
-9.3967 -48.2482 -2.4928 0.8213
-2.0938 -13.2694 -0.6813 0.9476
-0.6131 -46.8203 -2.3747 0.8290
1.0780 -47.3599 -2.4024 0.8272
4.5750 -48.2891 -2.4599 0.8234
6.3789 -48.6737 -2.4896 0.8215
8.2180 -49.0015 -2.5198 0.8196
-32.2798 -4.0119 -2.3850 0.8777
-32.0683 -6.3457 -2.3969 0.8771
-31.9074 -7.5116 -2.4035 0.8768
-31.4612 -9.8325 -2.4168 0.8762
-29.0514 -12.6426 -2.3231 0.8807
-28.5769 -13.6746 -2.3229 0.8807
-28.0739 -14.6923 -2.3233 0.8807
-27.9735 -17.3000 -2.4116 0.8764
-27.3779 -19.7765 -2.4764 0.8733
-26.6586 -20.7507 -2.4770 0.8733
-25.9048 -21.6989 -2.4777 0.8733
-24.2982 -23.5130 -2.4792 0.8732
-22.5657 -25.2095 -2.4808 0.8731
-21.6549 -26.0109 -2.4816 0.8731
-20.7158 -26.7795 -2.4825 0.8730
-19.7497 -27.5147 -2.4834 0.8730
-16.7007 -29.5090 -2.4861 0.8728
-15.6384 -30.1004 -2.4871 0.8728
-14.5553 -30.6538 -2.4881 0.8728
-12.3319 -31.6437 -2.4901 0.8727
-11.1945 -32.0788 -2.4912 0.8726
-10.0418 -32.4731 -2.4922 0.8726
-8.8751 -32.8264 -2.4933 0.8725
-7.6961 -33.1377 -2.4944 0.8725
-6.5062 -33.4069 -2.4955 0.8724
-2.0938 -13.2694 -0.9850 0.9475
1.9230 -32.7739 -2.4072 0.8766
3.1182 -32.9132 -2.4241 0.8758
5.5455 -33.0664 -2.4584 0.8742
8.0122 -33.0461 -2.4932 0.8725
17.9979 -31.0960 -2.6344 0.8658
21.6481 -29.5525 -2.6860 0.8634
22.5439 -28.5681 -2.6683 0.8642
23.3394 -27.4895 -2.6441 0.8653
24.0753 -26.3784 -2.6186 0.8665
25.9648 -22.9325 -2.5400 0.8703
26.5138 -21.7764 -2.5157 0.8714
28.9399 -16.1254 -2.4291 0.8756
29.7530 -13.8856 -2.4074 0.8766
-25.6191 -3.1842 -2.4785 0.9015
-25.4898 -4.1006 -2.4786 0.9015
-24.3600 -8.5831 -2.4796 0.9014
-24.0394 -9.4518 -2.4799 0.9014
-23.6880 -10.3086 -2.4802 0.9014
-23.3064 -11.1525 -2.4805 0.9014
-21.9819 -13.5945 -2.4813 0.9014
-21.4841 -14.3761 -2.4818 0.9013
-20.9591 -15.1399 -2.4822 0.9013
-19.8289 -16.6094 -2.4833 0.9013
-18.5964 -17.9955 -2.4844 0.9012
-17.9438 -18.6550 -2.4850 0.9012
-17.2679 -19.2910 -2.4856 0.9012
-16.5696 -19.9026 -2.4863 0.9012
-15.8498 -20.4892 -2.4869 0.9011
-15.1093 -21.0499 -2.4876 0.9011
-12.7734 -22.5696 -2.4897 0.9010
-11.9598 -23.0198 -2.4905 0.9010
-10.2862 -23.8322 -2.4920 0.9009
-8.5579 -24.5234 -2.4936 0.9009
-7.6759 -24.8224 -2.4944 0.9009
-6.7834 -25.0899 -2.4952 0.9008
-5.8817 -25.3253 -2.4961 0.9008
-4.9718 -25.5283 -2.4969 0.9008
-2.9415 -24.2623 -2.3464 0.9065
0.5661 -24.8710 -2.3884 0.9049
1.4649 -24.9667 -2.4010 0.9044
2.3715 -25.0309 -2.4139 0.9039
3.2846 -25.0631 -2.4268 0.9034
9.7604 -24.3472 -2.5183 0.9000
11.5981 -23.8288 -2.5443 0.8990
12.4853 -23.4742 -2.5526 0.8987
7.5967 -11.1908 -1.2985 0.9471
15.3700 -20.9821 -2.4970 0.9008
16.0091 -20.2869 -2.4810 0.9014
17.7859 -18.1368 -2.4388 0.9030
18.8693 -16.6656 -2.4169 0.9038
19.8838 -15.1710 -2.4011 0.9044
20.3540 -14.4055 -2.3940 0.9047
21.3311 -12.9087 -2.3937 0.9047
22.0078 -11.2486 -2.3728 0.9055
22.3798 -10.4446 -2.3710 0.9055
-20.7396 -2.5777 -2.4825 0.9193
-20.6346 -3.3196 -2.4826 0.9193
-20.5034 -4.0572 -2.4827 0.9193
-20.3459 -4.7898 -2.4829 0.9193
-19.9533 -6.2360 -2.4832 0.9192
-19.7186 -6.9477 -2.4834 0.9192
-19.4586 -7.6507 -2.4837 0.9192
-19.1738 -8.3441 -2.4839 0.9192
-18.8644 -9.0270 -2.4842 0.9192
-17.7933 -11.0041 -2.4851 0.9192
-17.3901 -11.6366 -2.4855 0.9192
-16.9645 -12.2543 -2.4859 0.9192
-16.5171 -12.8567 -2.4863 0.9191
-16.0484 -13.4428 -2.4867 0.9191
-13.9732 -15.6102 -2.4886 0.9191
-12.2246 -17.0309 -2.4902 0.9190
-11.6089 -17.4621 -2.4908 0.9190
-10.9781 -17.8711 -2.4914 0.9190
-9.6742 -18.6206 -2.4926 0.9189
-7.6252 -19.5663 -2.4945 0.9189
-6.9208 -19.8321 -2.4951 0.9189
-6.2071 -20.0727 -2.4958 0.9188
-4.4659 -19.2292 -2.3450 0.9236
-2.0938 -13.2696 -1.5957 0.9473
-2.3779 -19.6135 -2.3469 0.9235
-1.6804 -19.7697 -2.3568 0.9232
0.4573 -20.0899 -2.3870 0.9222
4.8583 -20.0381 -2.4492 0.9203
8.9934 -18.4774 -2.4410 0.9206
9.6131 -18.0739 -2.4317 0.9208
10.2179 -17.6541 -2.4230 0.9211
7.5704 -11.1522 -1.6011 0.9472
11.9410 -16.3010 -2.4003 0.9218
13.0161 -15.3306 -2.3889 0.9222
13.5342 -14.8290 -2.3848 0.9223
14.5288 -13.7899 -2.3794 0.9225
15.0277 -13.2726 -2.3816 0.9224
15.5041 -12.7340 -2.3832 0.9224
15.8934 -12.1264 -2.3747 0.9226
16.6678 -10.9216 -2.3671 0.9229
17.0393 -10.3115 -2.3658 0.9229
18.8807 -9.6503 -2.5187 0.9181
19.5282 -8.2748 -2.5193 0.9181
-17.3197 -2.7863 -2.4856 0.9316
-17.0771 -4.0203 -2.4858 0.9316
-16.7473 -5.2340 -2.4861 0.9316
-16.5501 -5.8314 -2.4863 0.9316
-16.0925 -7.0032 -2.4867 0.9316
-15.2525 -8.6929 -2.4875 0.9315
-14.9329 -9.2351 -2.4878 0.9315
-14.5941 -9.7656 -2.4881 0.9315
-13.8607 -10.7890 -2.4887 0.9315
-13.0560 -11.7577 -2.4895 0.9315
-12.1841 -12.6669 -2.4903 0.9315
-11.7242 -13.0978 -2.4907 0.9314
-9.7391 -14.6495 -2.4925 0.9314
-9.2095 -14.9921 -2.4930 0.9314
-6.3955 -16.4109 -2.4956 0.9313
-5.8045 -16.6332 -2.4961 0.9313
-5.2057 -16.8343 -2.4967 0.9313
-3.7451 -16.1254 -2.3456 0.9353
-3.1654 -16.2530 -2.3461 0.9353
-2.0938 -13.2697 -1.9034 0.9472
-1.4111 -16.6017 -2.3608 0.9349
-0.8181 -16.7007 -2.3691 0.9347
0.3832 -16.8361 -2.3861 0.9342
1.5998 -16.8861 -2.4033 0.9338
2.8040 -16.7196 -2.4021 0.9338
3.9832 -16.4287 -2.3952 0.9340
4.5621 -16.2490 -2.3913 0.9341
5.1328 -16.0477 -2.3873 0.9342
5.6971 -15.8320 -2.3840 0.9343
6.7988 -15.3430 -2.3778 0.9344
7.3350 -15.0701 -2.3748 0.9345
8.3821 -14.4823 -2.3709 0.9346
8.8851 -14.1554 -2.3680 0.9347
7.5089 -11.0615 -1.8943 0.9474
10.3763 -13.1490 -2.3733 0.9346
10.8490 -12.7782 -2.3751 0.9345
11.3019 -12.3821 -2.3753 0.9345
11.6916 -11.9223 -2.3660 0.9348
12.5031 -11.0429 -2.3636 0.9348
12.8861 -10.5837 -2.3627 0.9349
13.7282 -9.7161 -2.3830 0.9343
15.1881 -9.1912 -2.5154 0.9308
16.0922 -7.5102 -2.5162 0.9308
16.3526 -6.9293 -2.5164 0.9308
-14.9856 -1.8625 -2.4877 0.9406
-14.8146 -2.9315 -2.4879 0.9406
-14.7006 -3.4608 -2.4880 0.9406
-14.4164 -4.5056 -2.4882 0.9406
-14.2465 -5.0197 -2.4884 0.9406
-14.0584 -5.5275 -2.4886 0.9406
-13.8523 -6.0283 -2.4887 0.9406
-13.6285 -6.5215 -2.4890 0.9406
-13.3872 -7.0064 -2.4892 0.9406
-12.8533 -7.9491 -2.4897 0.9406
-12.2535 -8.8514 -2.4902 0.9406
-11.2368 -10.1194 -2.4911 0.9405
-10.8683 -10.5171 -2.4915 0.9405
-10.4858 -10.9014 -2.4918 0.9405
-8.8256 -12.2956 -2.4934 0.9405
-8.3806 -12.6061 -2.4938 0.9405
-7.4585 -13.1786 -2.4946 0.9405
-5.5025 -14.1193 -2.4964 0.9404
-4.9938 -14.3102 -2.4969 0.9404
-3.7189 -13.7549 -2.3473 0.9439
-2.0938 -13.2698 -2.2131 0.9470
-0.6979 -14.2480 -2.3500 0.9438
0.8366 -14.2601 -2.3533 0.9437
2.3655 -14.1048 -2.3561 0.9437
2.8709 -14.0178 -2.3572 0.9436
4.3659 -13.6500 -2.3609 0.9436
4.8551 -13.4921 -2.3622 0.9435
5.3386 -13.3170 -2.3635 0.9435
5.8158 -13.1246 -2.3649 0.9435
6.7491 -12.6893 -2.3677 0.9434
7.2010 -12.4422 -2.3683 0.9434
7.6431 -12.1761 -2.3683 0.9434
7.9883 -10.9051 -2.2269 0.9467
9.6563 -10.5800 -2.3597 0.9436
10.0267 -10.2244 -2.3591 0.9436
10.9934 -9.7095 -2.4163 0.9423
11.7845 -9.6789 -2.5122 0.9401
12.7599 -8.3610 -2.5131 0.9400
13.3289 -7.4269 -2.5137 0.9400
13.5878 -6.9450 -2.5139 0.9400
13.8292 -6.4541 -2.5141 0.9400
-13.1431 -1.6335 -2.4894 0.9475
-13.0764 -2.1036 -2.4895 0.9475
-12.9930 -2.5711 -2.4895 0.9475
-12.8930 -3.0353 -2.4896 0.9475
-12.7765 -3.4956 -2.4897 0.9475
-12.1486 -5.2869 -2.4903 0.9475
-11.9521 -5.7193 -2.4905 0.9475
-11.7404 -6.1446 -2.4907 0.9475
-11.0159 -7.3713 -2.4913 0.9475
-10.7456 -7.7621 -2.4916 0.9475
-10.4616 -8.1432 -2.4919 0.9475
-10.1641 -8.5139 -2.4921 0.9475
-9.8535 -8.8737 -2.4924 0.9475
-8.8473 -9.8838 -2.4933 0.9474
-8.4885 -10.1959 -2.4937 0.9474
-8.1187 -10.4950 -2.4940 0.9474
-7.7384 -10.7808 -2.4944 0.9474
-7.3480 -11.0528 -2.4947 0.9474
-6.1218 -11.7831 -2.4958 0.9474
-5.6964 -11.9968 -2.4962 0.9474
-3.6949 -11.9487 -2.3508 0.9504
-3.2592 -12.0547 -2.3472 0.9504
-2.8268 -12.1715 -2.3487 0.9504
-2.3902 -12.2726 -2.3501 0.9504
-1.5066 -12.4269 -2.3529 0.9503
-0.1641 -12.5296 -2.3553 0.9503
1.1830 -12.4879 -2.3577 0.9502
1.6301 -12.4413 -2.3585 0.9502
2.9591 -12.2048 -2.3605 0.9502
3.8244 -11.9569 -2.3596 0.9502
4.2478 -11.8044 -2.3581 0.9502
4.6681 -11.6444 -2.3580 0.9502
5.0822 -11.4691 -2.3579 0.9502
5.4898 -11.2790 -2.3578 0.9502
5.8901 -11.0741 -2.3576 0.9502
6.2826 -10.8548 -2.3574 0.9502
7.0424 -10.3743 -2.3568 0.9502
7.7654 -9.8404 -2.3562 0.9503
8.2466 -9.7130 -2.3949 0.9495
8.8527 -9.6995 -2.4683 0.9480
9.3500 -9.5344 -2.5100 0.9471
9.6869 -9.1942 -2.5103 0.9471
10.9063 -7.7189 -2.5114 0.9471
11.1770 -7.3238 -2.5117 0.9471
11.4335 -6.9191 -2.5119 0.9471
11.6751 -6.5054 -2.5121 0.9471
11.9018 -6.0832 -2.5123 0.9471
12.1131 -5.6532 -2.5125 0.9470
12.3089 -5.2157 -2.5127 0.9470
-11.6932 -1.4533 -2.4907 0.9530
-11.4706 -2.7004 -2.4909 0.9530
-11.1159 -3.9167 -2.4913 0.9530
-10.9689 -4.3128 -2.4914 0.9530
-10.8079 -4.7034 -2.4915 0.9530
-10.0277 -6.2015 -2.4923 0.9529
-9.5593 -6.9052 -2.4927 0.9529
-9.0417 -7.5737 -2.4932 0.9529
-8.1791 -8.5032 -2.4939 0.9529
-7.8699 -8.7919 -2.4942 0.9529
-7.5506 -9.0695 -2.4945 0.9529
-6.8832 -9.5894 -2.4951 0.9529
-6.1801 -10.0605 -2.4958 0.9529
-5.8163 -10.2769 -2.4961 0.9529
-5.4449 -10.4802 -2.4965 0.9529
-4.2903 -11.0088 -2.4975 0.9528
-3.8935 -11.1571 -2.4979 0.9528
-3.4916 -11.2912 -2.4982 0.9528
-2.9335 -10.8500 -2.3758 0.9551
-1.7322 -10.9777 -2.3492 0.9556
-0.5443 -11.1121 -2.3517 0.9555
0.2533 -11.1268 -2.3526 0.9555
0.6520 -11.1121 -2.3529 0.9555
1.0500 -11.0829 -2.3532 0.9555
1.8417 -10.9813 -2.3537 0.9555
2.2343 -10.9090 -2.3538 0.9555
2.6240 -10.8225 -2.3539 0.9555
3.0103 -10.7219 -2.3540 0.9555
3.3928 -10.6073 -2.3541 0.9555
3.7708 -10.4789 -2.3541 0.9555
4.5116 -10.1814 -2.3540 0.9555
4.8734 -10.0126 -2.3538 0.9555
5.2291 -9.8314 -2.3538 0.9555
5.6238 -9.7166 -2.3731 0.9551
6.0932 -9.7075 -2.4227 0.9542
7.3506 -9.3147 -2.5082 0.9526
7.6806 -9.0464 -2.5085 0.9526
8.6103 -8.1724 -2.5093 0.9526
8.8986 -7.8593 -2.5096 0.9526
9.1755 -7.5361 -2.5098 0.9526
9.6937 -6.8607 -2.5103 0.9526
9.9342 -6.5094 -2.5105 0.9526
10.9396 -4.6355 -2.5115 0.9526
-10.4011 -2.0582 -2.4919 0.9574
-10.3210 -2.4298 -2.4920 0.9574
-10.2276 -2.7982 -2.4921 0.9574
-10.1211 -3.1631 -2.4922 0.9574
-10.0017 -3.5240 -2.4923 0.9574
-9.8695 -3.8805 -2.4924 0.9574
-9.7245 -4.2320 -2.4925 0.9574
-9.5671 -4.5780 -2.4927 0.9574
-9.3975 -4.9183 -2.4928 0.9574
-9.0222 -5.5797 -2.4932 0.9573
-8.8172 -5.9002 -2.4934 0.9573
-8.1349 -6.8141 -2.4940 0.9573
-6.7929 -8.1593 -2.4952 0.9573
-6.4968 -8.3985 -2.4955 0.9573
-6.1923 -8.6269 -2.4958 0.9573
-4.8981 -9.4278 -2.4970 0.9573
-4.5576 -9.5985 -2.4973 0.9573
-4.2112 -9.7569 -2.4976 0.9573
-3.8593 -9.9029 -2.4979 0.9573
-3.1407 -10.1566 -2.4986 0.9573
-2.4057 -10.3583 -2.4992 0.9572
-1.9813 -10.1731 -2.4359 0.9583
-1.5787 -10.0054 -2.3806 0.9592
-1.2024 -9.9176 -2.3479 0.9598
-0.4889 -9.9818 -2.3488 0.9598
1.6542 -9.8636 -2.3506 0.9597
2.3592 -9.7306 -2.3532 0.9597
5.9910 -8.8254 -2.5069 0.9571
6.3042 -8.6060 -2.5072 0.9571
6.6093 -8.3754 -2.5075 0.9571
8.4880 -6.4762 -2.5092 0.9571
8.7154 -6.1683 -2.5094 0.9571
8.9316 -5.8524 -2.5096 0.9571
9.1363 -5.5290 -2.5098 0.9571
9.5102 -4.8609 -2.5102 0.9571
-9.4446 -1.8689 -2.4928 0.9610
-9.3718 -2.2063 -2.4929 0.9610
-9.2870 -2.5409 -2.4929 0.9610
-9.0817 -3.1999 -2.4931 0.9610
-8.8300 -3.8427 -2.4933 0.9610
-8.6870 -4.1569 -2.4935 0.9610
-8.5330 -4.4661 -2.4936 0.9610
-8.1921 -5.0663 -2.4939 0.9610
-7.8092 -5.6410 -2.4943 0.9610
-7.6026 -5.9177 -2.4945 0.9610
-7.3861 -6.1869 -2.4947 0.9610
-7.1602 -6.4482 -2.4949 0.9610
-6.9251 -6.7013 -2.4951 0.9610
-6.6811 -6.9458 -2.4953 0.9610
-6.4284 -7.1815 -2.4956 0.9610
-5.8985 -7.6251 -2.4960 0.9610
-5.6220 -7.8324 -2.4963 0.9609
-5.0475 -8.2168 -2.4968 0.9609
-4.4468 -8.5591 -2.4974 0.9609
-3.5036 -8.9901 -2.4982 0.9609
-3.1795 -9.1111 -2.4985 0.9609
-2.8512 -9.2203 -2.4988 0.9609
-2.5192 -9.3177 -2.4991 0.9609
-2.1839 -9.4031 -2.4994 0.9609
-1.1623 -9.5868 -2.5004 0.9609
-0.8180 -9.6235 -2.5007 0.9609
0.2199 -9.6594 -2.5016 0.9609
0.5660 -9.6466 -2.5020 0.9609
1.5989 -9.5336 -2.5029 0.9608
2.2783 -9.3969 -2.5035 0.9608
4.5443 -8.5439 -2.5056 0.9608
5.1458 -8.1982 -2.5062 0.9608
5.7211 -7.8101 -2.5067 0.9608
5.9980 -7.6008 -2.5069 0.9608
6.7812 -6.9150 -2.5077 0.9608
7.7024 -5.8768 -2.5085 0.9608
7.9087 -5.5974 -2.5087 0.9608
8.4656 -4.7171 -2.5092 0.9607
-8.6406 -1.7098 -2.4935 0.9640
-8.5740 -2.0185 -2.4936 0.9640
-8.3086 -2.9275 -2.4938 0.9640
-8.0782 -3.5155 -2.4940 0.9640
-7.8063 -4.0856 -2.4943 0.9640
-7.6553 -4.3630 -2.4944 0.9640
-6.9550 -5.4137 -2.4951 0.9640
-6.1118 -6.3540 -2.4958 0.9640
-5.8806 -6.5696 -2.4961 0.9640
-5.1428 -7.1648 -2.4967 0.9640
-4.8832 -7.3452 -2.4970 0.9640
-4.0677 -7.8293 -2.4977 0.9640
-3.7848 -7.9709 -2.4980 0.9640
-3.4970 -8.1023 -2.4982 0.9640
-2.6079 -8.4336 -2.4991 0.9640
-2.3042 -8.5226 -2.4993 0.9640
-1.3765 -8.7237 -2.5002 0.9640
-1.0631 -8.7684 -2.5005 0.9639
0.2011 -8.8345 -2.5016 0.9639
0.5177 -8.8226 -2.5019 0.9639
0.8338 -8.7994 -2.5022 0.9639
1.1486 -8.7649 -2.5025 0.9639
1.7740 -8.6620 -2.5031 0.9639
2.0836 -8.5939 -2.5034 0.9639
2.3906 -8.5146 -2.5036 0.9639
2.9951 -8.3233 -2.5042 0.9639
3.2919 -8.2115 -2.5045 0.9639
3.5845 -8.0891 -2.5047 0.9639
4.1556 -7.8132 -2.5052 0.9639
4.4335 -7.6600 -2.5055 0.9639
4.9718 -7.3241 -2.5060 0.9639
5.2316 -7.1419 -2.5062 0.9639
5.4848 -6.9504 -2.5065 0.9639
5.9697 -6.5408 -2.5069 0.9639
6.2008 -6.3231 -2.5071 0.9639
6.4240 -6.0973 -2.5073 0.9638
6.6389 -5.8636 -2.5075 0.9638
7.2315 -5.1181 -2.5081 0.9638
7.4109 -4.8560 -2.5082 0.9638
7.5807 -4.5875 -2.5084 0.9638
7.8907 -4.0331 -2.5087 0.9638
8.0306 -3.7478 -2.5088 0.9638
8.1601 -3.4578 -2.5089 0.9638
-8.0468 -1.0001 -2.4941 0.9666
-8.0059 -1.2879 -2.4941 0.9666
-7.8219 -2.1400 -2.4943 0.9666
-7.6490 -2.6951 -2.4944 0.9666
-7.5477 -2.9676 -2.4945 0.9666
-7.4368 -3.2364 -2.4946 0.9666
-6.8993 -4.2668 -2.4951 0.9666
-6.7423 -4.5116 -2.4953 0.9666
-6.0299 -5.4303 -2.4959 0.9666
-5.8318 -5.6434 -2.4961 0.9666
-5.4134 -6.0476 -2.4965 0.9666
-5.1936 -6.2383 -2.4967 0.9666
-4.4951 -6.7615 -2.4973 0.9666
-3.2190 -7.4581 -2.4985 0.9666
-2.9499 -7.5694 -2.4987 0.9666
-1.8386 -7.9165 -2.4998 0.9666
-1.5538 -7.9782 -2.5000 0.9666
-1.2670 -8.0296 -2.5003 0.9666
-0.6886 -8.1014 -2.5008 0.9665
-0.1065 -8.1317 -2.5013 0.9665
0.1851 -8.1311 -2.5016 0.9665
0.4765 -8.1202 -2.5019 0.9665
1.3458 -8.0246 -2.5027 0.9665
1.6327 -7.9721 -2.5029 0.9665
2.4798 -7.7531 -2.5037 0.9665
3.0295 -7.5571 -2.5042 0.9665
3.2988 -7.4444 -2.5045 0.9665
3.8244 -7.1903 -2.5049 0.9665
4.0800 -7.0492 -2.5052 0.9665
4.3305 -6.8991 -2.5054 0.9665
4.5754 -6.7400 -2.5056 0.9665
5.0473 -6.3961 -2.5061 0.9665
5.2738 -6.2115 -2.5063 0.9665
6.2991 -5.1737 -2.5072 0.9665
6.8195 -4.4684 -2.5077 0.9665
7.1228 -3.9688 -2.5080 0.9665
7.2609 -3.7111 -2.5081 0.9665
7.5088 -3.1817 -2.5083 0.9664
-7.4474 -0.9255 -2.4946 0.9689
-7.4096 -1.1920 -2.4946 0.9689
-7.3054 -1.7198 -2.4947 0.9689
-7.1638 -2.2389 -2.4949 0.9689
-7.0792 -2.4943 -2.4950 0.9689
-6.9855 -2.7465 -2.4950 0.9689
-6.8828 -2.9953 -2.4951 0.9689
-6.6511 -3.4810 -2.4953 0.9689
-6.5223 -3.7173 -2.4955 0.9689
-6.2399 -4.1754 -2.4957 0.9688
-5.5805 -5.0256 -2.4963 0.9688
-5.3971 -5.2227 -2.4965 0.9688
-5.2068 -5.4132 -2.4967 0.9688
-5.0098 -5.5968 -2.4968 0.9688
-4.8064 -5.7732 -2.4970 0.9688
-4.5967 -5.9422 -2.4972 0.9688
-4.3811 -6.1036 -2.4974 0.9688
-4.1598 -6.2572 -2.4976 0.9688
-3.2240 -6.7899 -2.4985 0.9688
-2.9788 -6.9017 -2.4987 0.9688
-1.9626 -7.2592 -2.4996 0.9688
-1.7014 -7.3256 -2.4999 0.9688
-1.4378 -7.3826 -2.5001 0.9688
-1.1724 -7.4301 -2.5004 0.9688
-0.6372 -7.4965 -2.5009 0.9688
-0.3681 -7.5152 -2.5011 0.9688
0.1713 -7.5238 -2.5016 0.9688
0.7100 -7.4937 -2.5021 0.9688
0.9782 -7.4641 -2.5023 0.9688
1.2452 -7.4250 -2.5026 0.9688
1.7743 -7.3181 -2.5031 0.9688
2.2945 -7.1736 -2.5035 0.9688
3.0521 -6.8877 -2.5042 0.9687
3.5383 -6.6526 -2.5047 0.9687
3.7748 -6.5220 -2.5049 0.9687
4.0065 -6.3830 -2.5051 0.9687
4.6697 -5.9175 -2.5057 0.9687
5.0824 -5.5686 -2.5061 0.9687
5.2791 -5.3833 -2.5063 0.9687
5.4691 -5.1909 -2.5065 0.9687
6.1563 -4.3571 -2.5071 0.9687
6.4534 -3.9053 -2.5074 0.9687
6.9465 -2.9435 -2.5078 0.9687
-6.7919 -1.5989 -2.4952 0.9708
-6.2952 -3.0124 -2.4957 0.9708
-5.9362 -3.6712 -2.4960 0.9708
-5.6585 -4.0875 -2.4963 0.9708
-5.5087 -4.2879 -2.4964 0.9708
-5.1880 -4.6721 -2.4967 0.9708
-5.0175 -4.8553 -2.4968 0.9708
-4.6574 -5.2030 -2.4972 0.9708
-4.2732 -5.5241 -2.4975 0.9708
-4.0728 -5.6741 -2.4977 0.9708
-3.8671 -5.8169 -2.4979 0.9708
-2.9970 -6.3118 -2.4987 0.9708
-2.7691 -6.4157 -2.4989 0.9708
-2.5376 -6.5114 -2.4991 0.9707
-2.0649 -6.6777 -2.4995 0.9707
-1.8244 -6.7480 -2.4998 0.9707
-1.3365 -6.8626 -2.5002 0.9707
-0.8416 -6.9419 -2.5007 0.9707
-0.5923 -6.9683 -2.5009 0.9707
-0.3422 -6.9857 -2.5011 0.9707
0.1592 -6.9935 -2.5016 0.9707
1.4042 -6.8562 -2.5027 0.9707
1.6492 -6.8020 -2.5030 0.9707
2.1326 -6.6676 -2.5034 0.9707
2.3705 -6.5875 -2.5036 0.9707
2.6053 -6.4988 -2.5038 0.9707
3.0647 -6.2966 -2.5042 0.9707
3.9344 -5.7958 -2.5050 0.9707
4.5348 -5.3411 -2.5056 0.9707
5.5724 -4.2517 -2.5065 0.9707
5.8633 -3.8419 -2.5068 0.9707
6.1241 -3.4124 -2.5071 0.9707
6.2428 -3.1908 -2.5072 0.9707
6.4558 -2.7356 -2.5074 0.9707
-6.4294 -1.0343 -2.4955 0.9725
-6.3883 -1.2641 -2.4956 0.9725
-6.3390 -1.4923 -2.4956 0.9725
-6.1426 -2.1643 -2.4958 0.9725
-6.0613 -2.3832 -2.4959 0.9725
-5.8754 -2.8115 -2.4961 0.9725
-5.5403 -3.4263 -2.4964 0.9725
-5.4142 -3.6229 -2.4965 0.9725
-5.2811 -3.8148 -2.4966 0.9725
-5.1412 -4.0019 -2.4967 0.9725
-4.9948 -4.1838 -2.4969 0.9725
-4.8419 -4.3604 -2.4970 0.9725
-4.3466 -4.8558 -2.4975 0.9725
-3.9881 -5.1554 -2.4978 0.9725
-3.2113 -5.6741 -2.4985 0.9725
-3.0061 -5.7860 -2.4987 0.9725
-2.5842 -5.9874 -2.4991 0.9725
-2.3681 -6.0766 -2.4993 0.9724
-2.1490 -6.1581 -2.4995 0.9724
-1.9270 -6.2317 -2.4997 0.9724
-1.7026 -6.2973 -2.4999 0.9724
-1.2473 -6.4041 -2.5003 0.9724
-1.0170 -6.4453 -2.5005 0.9724
-0.3193 -6.5189 -2.5011 0.9724
0.1485 -6.5261 -2.5016 0.9724
0.3824 -6.5172 -2.5018 0.9724
1.3103 -6.3978 -2.5026 0.9724
1.9900 -6.2217 -2.5033 0.9724
2.4310 -6.0641 -2.5037 0.9724
2.6470 -5.9736 -2.5039 0.9724
2.8597 -5.8753 -2.5041 0.9724
3.2737 -5.6562 -2.5044 0.9724
3.4746 -5.5356 -2.5046 0.9724
3.6711 -5.4079 -2.5048 0.9724
4.2312 -4.9836 -2.5053 0.9724
4.4074 -4.8290 -2.5055 0.9724
4.5779 -4.6683 -2.5056 0.9724
4.7426 -4.5014 -2.5058 0.9724
4.9012 -4.3288 -2.5059 0.9724
5.0535 -4.1506 -2.5061 0.9724
5.1993 -3.9670 -2.5062 0.9724
5.8247 -2.9771 -2.5068 0.9724
6.0234 -2.5523 -2.5070 0.9724
-6.0518 -0.7522 -2.4959 0.9740
-5.9825 -1.1838 -2.4960 0.9740
-5.8825 -1.6094 -2.4960 0.9740
-5.7524 -2.0268 -2.4962 0.9740
-5.6762 -2.2317 -2.4962 0.9740
-5.5927 -2.4339 -2.4963 0.9740
-5.5021 -2.6328 -2.4964 0.9740
-5.4044 -2.8285 -2.4965 0.9740
-5.2997 -3.0205 -2.4966 0.9740
-5.1882 -3.2086 -2.4967 0.9740
-5.0701 -3.3927 -2.4968 0.9740
-4.9455 -3.5724 -2.4969 0.9740
-4.8145 -3.7475 -2.4970 0.9740
-4.3851 -4.2434 -2.4974 0.9740
-3.9049 -4.6903 -2.4979 0.9740
-3.7345 -4.8277 -2.4980 0.9740
-3.5593 -4.9587 -2.4982 0.9740
-3.0070 -5.3132 -2.4987 0.9740
-2.6191 -5.5158 -2.4990 0.9740
-2.4198 -5.6065 -2.4992 0.9740
-2.0123 -5.7663 -2.4996 0.9739
-1.8044 -5.8352 -2.4998 0.9739
-1.3820 -5.9504 -2.5002 0.9739
-1.1679 -5.9966 -2.5004 0.9739
-0.9523 -6.0351 -2.5006 0.9739
-0.5175 -6.0887 -2.5010 0.9739
-0.0800 -6.1112 -2.5014 0.9739
0.3581 -6.1022 -2.5018 0.9739
0.7944 -6.0618 -2.5022 0.9739
2.0710 -5.7553 -2.5033 0.9739
2.2761 -5.6777 -2.5035 0.9739
3.0651 -5.2957 -2.5042 0.9739
3.2532 -5.1828 -2.5044 0.9739
3.4371 -5.0632 -2.5046 0.9739
3.6165 -4.9371 -2.5048 0.9739
4.1264 -4.5211 -2.5052 0.9739
4.4402 -4.2144 -2.5055 0.9739
4.7312 -3.8859 -2.5058 0.9739
4.8677 -3.7140 -2.5059 0.9739
5.1218 -3.3560 -2.5061 0.9739
5.2390 -3.1704 -2.5062 0.9739
-5.6840 -0.7064 -2.4962 0.9753
-5.6551 -0.9098 -2.4963 0.9753
-5.5250 -1.5116 -2.4964 0.9753
-5.4674 -1.7087 -2.4964 0.9753
-5.4027 -1.9036 -2.4965 0.9753
-5.3312 -2.0961 -2.4966 0.9753
-5.2528 -2.2859 -2.4966 0.9753
-5.0758 -2.6565 -2.4968 0.9753
-4.9775 -2.8369 -2.4969 0.9753
-4.8728 -3.0136 -2.4970 0.9753
-4.6448 -3.3552 -2.4972 0.9753
-4.5218 -3.5197 -2.4973 0.9753
-3.9731 -4.1306 -2.4978 0.9753
-3.5074 -4.5340 -2.4982 0.9753
-3.3428 -4.6571 -2.4984 0.9753
-3.0010 -4.8852 -2.4987 0.9753
-2.0826 -5.3438 -2.4995 0.9753
-1.6946 -5.4801 -2.4999 0.9753
-1.4972 -5.5377 -2.5001 0.9753
-1.0968 -5.6315 -2.5004 0.9753
-0.8943 -5.6677 -2.5006 0.9753
-0.6906 -5.6965 -2.5008 0.9753
0.1306 -5.7384 -2.5016 0.9753
0.7460 -5.6926 -2.5021 0.9753
0.9497 -5.6626 -2.5023 0.9753
1.1521 -5.6253 -2.5025 0.9753
1.3531 -5.5808 -2.5027 0.9753
1.9448 -5.4045 -2.5032 0.9752
2.6980 -5.0725 -2.5039 0.9752
2.8782 -4.9728 -2.5041 0.9752
3.0548 -4.8668 -2.5042 0.9752
3.5602 -4.5116 -2.5047 0.9752
4.6930 -3.3215 -2.5057 0.9752
4.9193 -2.9770 -2.5059 0.9752
5.1204 -2.6171 -2.5061 0.9752
5.2950 -2.2437 -2.5063 0.9752
-5.3522 -0.6652 -2.4965 0.9765
-5.2025 -1.4234 -2.4967 0.9765
-4.7795 -2.5014 -2.4971 0.9765
-4.6870 -2.6713 -2.4971 0.9765
-4.3736 -3.1593 -2.4974 0.9765
-4.2578 -3.3142 -2.4975 0.9765
-4.1364 -3.4648 -2.4976 0.9765
-4.0098 -3.6111 -2.4978 0.9765
-3.3025 -4.2692 -2.4984 0.9765
-2.8257 -4.5999 -2.4989 0.9765
-2.6591 -4.6985 -2.4990 0.9765
-2.4892 -4.7911 -2.4992 0.9765
-1.7794 -5.0989 -2.4998 0.9765
-1.5956 -5.1598 -2.5000 0.9765
-1.4097 -5.2140 -2.5001 0.9765
-1.2220 -5.2615 -2.5003 0.9765
-1.0327 -5.3023 -2.5005 0.9765
-0.8420 -5.3363 -2.5007 0.9765
-0.4576 -5.3837 -2.5010 0.9765
0.5098 -5.3809 -2.5019 0.9765
0.8941 -5.3313 -2.5023 0.9765
1.0847 -5.2962 -2.5024 0.9765
1.2739 -5.2543 -2.5026 0.9765
2.0123 -5.0197 -2.5033 0.9764
2.1911 -4.9446 -2.5034 0.9764
2.3671 -4.8632 -2.5036 0.9764
2.7097 -4.6817 -2.5039 0.9764
3.5021 -4.1248 -2.5046 0.9764
3.6479 -3.9968 -2.5048 0.9764
3.7890 -3.8637 -2.5049 0.9764
4.0564 -3.5827 -2.5052 0.9764
4.1824 -3.4352 -2.5053 0.9764
4.3031 -3.2831 -2.5054 0.9764
4.4182 -3.1269 -2.5055 0.9764
4.8204 -2.4638 -2.5059 0.9764
4.9058 -2.2895 -2.5059 0.9764
4.9848 -2.1122 -2.5060 0.9764
-5.0512 -0.6278 -2.4968 0.9776
-4.9934 -0.9881 -2.4969 0.9776
-4.9548 -1.1664 -2.4969 0.9776
-4.9099 -1.3433 -2.4969 0.9776
-4.8587 -1.5185 -2.4970 0.9776
-4.8012 -1.6917 -2.4970 0.9776
-4.5107 -2.3608 -2.4973 0.9776
-4.4233 -2.5210 -2.4974 0.9776
-4.0182 -3.1278 -2.4978 0.9776
-3.9037 -3.2699 -2.4979 0.9776
-3.6597 -3.5415 -2.4981 0.9776
-3.5306 -3.6705 -2.4982 0.9776
-3.2589 -3.9144 -2.4985 0.9776
-2.9704 -4.1383 -2.4987 0.9776
-2.8203 -4.2423 -2.4989 0.9776
-2.6666 -4.3409 -2.4990 0.9776
-2.5094 -4.4340 -2.4991 0.9776
-2.1856 -4.6029 -2.4994 0.9776
-2.0193 -4.6785 -2.4996 0.9776
-1.8504 -4.7482 -2.4997 0.9776
-1.6792 -4.8118 -2.4999 0.9775
-1.3303 -4.9204 -2.5002 0.9775
-1.1532 -4.9652 -2.5004 0.9775
-0.7946 -5.0357 -2.5007 0.9775
-0.2495 -5.0929 -2.5012 0.9775
0.2987 -5.0913 -2.5017 0.9775
0.6628 -5.0575 -2.5020 0.9775
1.2021 -4.9581 -2.5025 0.9775
1.3792 -4.9122 -2.5027 0.9775
1.5544 -4.8599 -2.5029 0.9775
1.7278 -4.8013 -2.5030 0.9775
2.2336 -4.5890 -2.5035 0.9775
2.7138 -4.3235 -2.5039 0.9775
2.8672 -4.2237 -2.5041 0.9775
3.0169 -4.1184 -2.5042 0.9775
3.1627 -4.0078 -2.5043 0.9775
3.3045 -3.8921 -2.5045 0.9775
3.7038 -3.5154 -2.5048 0.9775
4.0602 -3.0979 -2.5052 0.9775
4.1688 -2.9505 -2.5053 0.9775
4.2721 -2.7993 -2.5054 0.9775
4.3698 -2.6444 -2.5054 0.9775
4.4620 -2.4862 -2.5055 0.9775
4.5484 -2.3247 -2.5056 0.9775
4.6289 -2.1603 -2.5057 0.9775
4.7035 -1.9930 -2.5057 0.9775
-4.7766 -0.5937 -2.4971 0.9785
-4.7523 -0.7645 -2.4971 0.9785
-4.7219 -0.9344 -2.4971 0.9785
-4.6854 -1.1030 -2.4971 0.9785
-4.5945 -1.4359 -2.4972 0.9785
-4.4800 -1.7614 -2.4973 0.9785
-4.4141 -1.9209 -2.4974 0.9785
-4.1828 -2.3839 -2.4976 0.9785
-4.0947 -2.5324 -2.4977 0.9785
-4.0015 -2.6776 -2.4978 0.9785
-3.9031 -2.8194 -2.4979 0.9785
-3.6914 -3.0920 -2.4981 0.9785
-3.2121 -3.5884 -2.4985 0.9785
-3.0816 -3.7014 -2.4986 0.9785
-2.8088 -3.9131 -2.4989 0.9785
-2.0666 -4.3524 -2.4995 0.9785
-1.9094 -4.4239 -2.4997 0.9785
-1.4237 -4.6041 -2.5001 0.9785
-1.2579 -4.6525 -2.5003 0.9785
-1.0904 -4.6949 -2.5004 0.9785
-0.4083 -4.8037 -2.5011 0.9785
-0.0631 -4.8213 -2.5014 0.9785
0.6267 -4.7820 -2.5020 0.9785
1.1366 -4.6880 -2.5025 0.9785
1.3040 -4.6445 -2.5026 0.9785
1.6336 -4.5397 -2.5029 0.9785
1.7954 -4.4785 -2.5031 0.9785
2.4175 -4.1769 -2.5037 0.9785
2.5658 -4.0878 -2.5038 0.9785
2.8524 -3.8939 -2.5041 0.9785
2.9903 -3.7893 -2.5042 0.9785
3.1243 -3.6799 -2.5043 0.9785
3.2544 -3.5657 -2.5044 0.9785
3.3802 -3.4469 -2.5045 0.9785
3.5018 -3.3237 -2.5046 0.9785
3.6188 -3.1962 -2.5048 0.9785
3.7312 -3.0645 -2.5049 0.9785
3.9415 -2.7896 -2.5051 0.9785
4.1315 -2.5002 -2.5052 0.9785
4.3764 -2.0424 -2.5054 0.9785
4.4469 -1.8843 -2.5055 0.9785
-4.5017 -0.7242 -2.4973 0.9794
-4.4384 -1.0449 -2.4974 0.9794
-4.3981 -1.2033 -2.4974 0.9794
-4.1814 -1.8196 -2.4976 0.9794
-4.0405 -2.1146 -2.4977 0.9794
-3.9622 -2.2581 -2.4978 0.9794
-3.8788 -2.3989 -2.4979 0.9794
-3.7905 -2.5364 -2.4980 0.9794
-3.3896 -3.0525 -2.4983 0.9794
-2.7916 -3.6088 -2.4989 0.9794
-2.6606 -3.7066 -2.4990 0.9794
-2.5261 -3.7998 -2.4991 0.9794
-2.3884 -3.8881 -2.4993 0.9794
-2.2477 -3.9715 -2.4994 0.9794
-1.9576 -4.1227 -2.4996 0.9794
-1.8086 -4.1904 -2.4998 0.9794
-1.5040 -4.3097 -2.5001 0.9794
-1.3486 -4.3611 -2.5002 0.9794
-1.0328 -4.4471 -2.5005 0.9794
-0.7116 -4.5102 -2.5008 0.9794
-0.5496 -4.5330 -2.5009 0.9794
-0.2234 -4.5613 -2.5012 0.9794
-0.0598 -4.5666 -2.5014 0.9794
1.0766 -4.4403 -2.5024 0.9794
1.2351 -4.3991 -2.5026 0.9794
1.3921 -4.3523 -2.5027 0.9794
1.7005 -4.2418 -2.5030 0.9794
2.1464 -4.0354 -2.5034 0.9794
2.5675 -3.7823 -2.5038 0.9794
2.7016 -3.6880 -2.5039 0.9794
2.8322 -3.5890 -2.5040 0.9794
2.9591 -3.4853 -2.5042 0.9794
3.0823 -3.3772 -2.5043 0.9794
3.5339 -2.9025 -2.5047 0.9794
3.6358 -2.7740 -2.5048 0.9794
3.7330 -2.6420 -2.5049 0.9794
3.9955 -2.2263 -2.5051 0.9794
4.0728 -2.0817 -2.5052 0.9794
4.1449 -1.9344 -2.5052 0.9794
4.2117 -1.7846 -2.5053 0.9794
-4.2709 -0.6871 -2.4975 0.9802
-4.2436 -0.8397 -2.4976 0.9802
-4.0803 -1.4376 -2.4977 0.9802
-4.0262 -1.5830 -2.4977 0.9802
-3.9670 -1.7264 -2.4978 0.9802
-3.9026 -1.8675 -2.4979 0.9802
-3.7590 -2.1424 -2.4980 0.9802
-3.6799 -2.2758 -2.4981 0.9802
-3.5076 -2.5338 -2.4982 0.9802
-3.3173 -2.7787 -2.4984 0.9802
-3.2157 -2.8959 -2.4985 0.9802
-3.0002 -3.1191 -2.4987 0.9802
-2.2659 -3.6886 -2.4994 0.9802
-1.7158 -3.9754 -2.4999 0.9802
-1.4268 -4.0886 -2.5001 0.9802
-1.1303 -4.1807 -2.5004 0.9802
-0.9798 -4.2188 -2.5005 0.9802
-0.6751 -4.2786 -2.5008 0.9802
-0.5214 -4.3003 -2.5010 0.9802
-0.3669 -4.3165 -2.5011 0.9802
0.5631 -4.2968 -2.5020 0.9802
1.1717 -4.1731 -2.5025 0.9802
1.3206 -4.1287 -2.5026 0.9802
1.4678 -4.0789 -2.5028 0.9802
1.6131 -4.0239 -2.5029 0.9802
1.7564 -3.9637 -2.5030 0.9802
1.8974 -3.8984 -2.5032 0.9802
2.4356 -3.5879 -2.5037 0.9802
2.5627 -3.4985 -2.5038 0.9802
2.6866 -3.4045 -2.5039 0.9802
3.0369 -3.0968 -2.5042 0.9802
3.1461 -2.9861 -2.5043 0.9802
3.2513 -2.8715 -2.5044 0.9802
3.3522 -2.7532 -2.5045 0.9802
3.4489 -2.6314 -2.5046 0.9802
3.5411 -2.5062 -2.5047 0.9802
3.6288 -2.3778 -2.5048 0.9802
3.7118 -2.2462 -2.5048 0.9802
3.7900 -2.1118 -2.5049 0.9802
3.8634 -1.9746 -2.5050 0.9802
