ply
format ascii 1.0
element vertex 1193
property float32 x
property float32 y
property float32 z
property float32 I
end_header
-33.2761 -11.5175 6.2090 0.8667
-31.0343 -12.0111 5.8677 0.8736
-30.4614 -13.0706 5.8447 0.8740
-30.2765 -14.3049 5.9044 0.8728
-30.1458 -15.5963 5.9848 0.8712
-4.5447 -19.5876 3.5456 0.9216
-44.8817 14.6651 7.2334 0.8261
-37.8419 -11.5881 6.0629 0.8520
-31.0347 -12.0112 5.0980 0.8740
-30.4619 -13.0708 5.0780 0.8745
-30.2771 -14.3052 5.1299 0.8733
-30.2035 -21.6388 5.6919 0.8604
-30.2016 -23.3299 5.8464 0.8569
-4.5443 -19.5860 3.0802 0.9219
-35.0885 17.3864 5.0994 0.8539
-35.1215 15.8524 5.0178 0.8560
-35.1534 14.3649 4.9452 0.8580
-35.1844 12.9180 4.8808 0.8597
-44.9573 11.1783 6.0326 0.8296
-37.8383 -11.5870 5.1532 0.8525
-33.2760 -11.5175 4.5854 0.8676
-31.0352 -12.0114 4.3335 0.8744
-30.4624 -13.0711 4.3166 0.8748
-30.1469 -15.5969 4.4200 0.8720
-30.1946 -18.4940 4.6109 0.8669
-30.2032 -21.6386 4.8383 0.8608
-30.1984 -25.1166 5.1149 0.8535
-30.1693 -26.9904 5.2714 0.8493
-30.1629 -29.0090 5.4496 0.8447
-30.1641 -31.1799 5.6493 0.8395
-30.1672 -36.0547 6.1218 0.8273
-2.5761 -13.2572 1.7587 0.9470
-34.8169 30.0743 4.9404 0.8310
-38.7528 24.7418 4.9372 0.8311
-35.0892 17.3868 4.2051 0.8542
-35.2104 15.8926 4.1483 0.8561
-35.1851 12.9182 4.0248 0.8600
-35.2153 11.5066 3.9782 0.8615
-30.2341 8.6860 3.3779 0.8811
-42.5788 10.5869 4.7114 0.8382
-43.3000 -11.5697 4.8127 0.8350
-37.8347 -11.5859 4.2490 0.8528
-33.2759 -11.5175 3.7812 0.8679
-31.0356 -12.0116 3.5735 0.8747
-30.2782 -14.3057 3.5960 0.8740
-30.1798 -17.0202 3.7206 0.8699
-30.1959 -18.4949 3.8024 0.8672
-30.1715 -26.9924 4.3472 0.8497
-30.1652 -29.0112 4.4941 0.8450
-30.1660 -31.1819 4.6588 0.8398
-30.1611 -33.5145 4.8416 0.8341
-4.5436 -19.5828 2.1587 0.9223
-34.9052 30.1505 3.9045 0.8310
-34.9050 26.0061 3.6848 0.8397
-35.5986 24.5782 3.6620 0.8406
-38.7528 24.7418 3.8921 0.8315
-42.1427 24.8144 4.1400 0.8217
-35.0899 17.3871 3.3151 0.8545
-35.1547 14.3654 3.2148 0.8586
-35.1857 12.9184 3.1730 0.8603
-35.2160 11.5068 3.1362 0.8618
-42.5788 10.5869 3.7142 0.8385
-43.2987 -11.5694 3.7939 0.8353
-33.2758 -11.5175 2.9808 0.8682
-31.0360 -12.0117 2.8172 0.8749
-30.4634 -13.0715 2.8062 0.8754
-30.2788 -14.3059 2.8349 0.8742
-30.1804 -17.0206 2.9331 0.8701
-30.1942 -20.0255 3.0671 0.8646
-30.1969 -25.1153 3.3248 0.8541
-30.1675 -29.0134 3.5432 0.8453
-30.1680 -31.1839 3.6729 0.8402
-4.5432 -19.5812 1.7016 0.9225
-34.8633 27.9848 2.7722 0.8360
-34.9058 26.0066 2.6992 0.8399
-38.7527 24.7417 2.8511 0.8317
-42.1427 24.8143 3.0326 0.8220
-35.1553 14.3657 2.3550 0.8588
-35.1864 12.9187 2.3243 0.8605
-30.2347 8.6862 1.9507 0.8816
-42.5787 10.5869 2.7207 0.8388
-45.0193 9.4846 2.8529 0.8316
-43.2975 -11.5691 2.7791 0.8356
-33.2758 -11.5174 2.1835 0.8684
-31.0365 -12.0119 2.0637 0.8751
-30.1986 -18.4965 2.1960 0.8677
-30.1956 -20.0264 2.2468 0.8648
-30.2003 -23.3289 2.3664 0.8582
-30.1758 -26.9963 2.5108 0.8502
-30.1697 -29.0155 2.5956 0.8456
-30.1677 -36.0553 2.9152 0.8283
-30.1571 -38.8033 3.0474 0.8212
-4.5428 -19.5797 1.2464 0.9226
-2.5762 -13.2574 0.8375 0.9473
-34.8193 30.0764 1.8142 0.8318
-34.8641 27.9854 1.7628 0.8361
-35.7421 24.6772 1.7126 0.8404
-38.7527 24.7417 1.8129 0.8319
-35.1241 15.8537 1.5195 0.8570
-35.1870 12.9189 1.4780 0.8607
-34.6909 8.6256 1.4095 0.8667
-41.9418 8.8363 1.6901 0.8423
-43.2962 -11.5687 1.7671 0.8358
-37.8241 -11.5826 1.5598 0.8535
-33.2757 -11.5174 1.3885 0.8685
-31.0369 -12.0120 1.3123 0.8753
-30.1999 -18.4973 1.3964 0.8678
-30.2020 -21.6377 1.4650 0.8618
-30.2000 -23.3286 1.5047 0.8583
-30.1953 -25.1140 1.5486 0.8545
-30.1780 -26.9982 1.5966 0.8504
-30.1719 -31.1879 1.7111 0.8405
-4.5425 -19.5781 0.7925 0.9227
-34.9076 30.1526 0.7792 0.8315
-34.8649 27.9860 0.7552 0.8362
-34.9072 26.0078 0.7353 0.8402
-42.1426 24.8143 0.8261 0.8223
-35.0919 17.3881 0.6615 0.8550
-35.2131 15.8938 0.6526 0.8568
-35.1567 14.3663 0.6415 0.8590
-35.2179 11.5074 0.6258 0.8622
-43.2950 -11.5684 0.7570 0.8359
-33.2756 -11.5174 0.5948 0.8686
-30.4649 -13.0721 0.5600 0.8758
-30.2804 -14.3067 0.5657 0.8746
-30.1497 -15.5984 0.5734 0.8730
-30.1983 -20.0282 0.6121 0.8651
-30.2017 -21.6375 0.6276 0.8619
-30.1997 -23.3284 0.6446 0.8584
-30.1945 -25.1134 0.6634 0.8546
-30.1738 -31.1899 0.7331 0.8406
-30.1574 -38.8038 0.8301 0.8215
-4.5421 -19.5765 0.3395 0.9227
-2.5762 -13.2576 0.2281 0.9474
-34.8208 30.0777 -0.2591 0.8319
-34.8656 27.9866 -0.2517 0.8362
-38.7527 24.7417 -0.2589 0.8320
-35.0926 17.3884 -0.2205 0.8550
-35.1573 14.3665 -0.2138 0.8591
-35.1883 12.9194 -0.2110 0.8608
-35.0128 8.7057 -0.2031 0.8656
-41.8644 8.8200 -0.2409 0.8427
-43.2937 -11.5681 -0.2523 0.8359
-37.8170 -11.5805 -0.2227 0.8537
-33.2756 -11.5174 -0.1983 0.8686
-31.0377 -12.0124 -0.1874 0.8754
-30.2026 -18.4990 -0.1994 0.8679
-30.1997 -20.0291 -0.2040 0.8651
-30.2014 -21.6373 -0.2092 0.8619
-30.1994 -23.3281 -0.2148 0.8584
-30.1937 -25.1127 -0.2211 0.8546
-30.1824 -27.0021 -0.2280 0.8504
-30.1765 -29.0220 -0.2357 0.8458
-30.1757 -31.1919 -0.2443 0.8406
-30.1701 -33.5245 -0.2539 0.8349
-30.1576 -38.8040 -0.2767 0.8215
-2.5762 -13.2576 -0.0760 0.9474
-33.5590 33.5026 -1.3352 0.8272
-34.8664 27.9872 -1.2589 0.8362
-34.9087 26.0088 -1.2258 0.8401
-35.7420 24.6772 -1.2230 0.8405
-42.1426 24.8143 -1.3771 0.8223
-35.1261 15.8546 -1.0852 0.8571
-35.1889 12.9196 -1.0555 0.8607
-34.8742 8.6712 -1.0119 0.8661
-45.2592 2.8739 -1.2770 0.8340
-45.2737 -0.3939 -1.2749 0.8343
-45.2666 -2.0274 -1.2759 0.8342
-45.2500 -3.6648 -1.2783 0.8339
-45.1340 -8.6327 -1.2939 0.8320
-44.1450 -10.1057 -1.2752 0.8343
-43.2925 -11.5678 -1.2618 0.8358
-37.8135 -11.5794 -1.1135 0.8536
-33.2755 -11.5173 -0.9915 0.8686
-31.0382 -12.0125 -0.9371 0.8753
-30.4659 -13.0726 -0.9335 0.8758
-30.2039 -18.4997 -0.9973 0.8679
-30.2010 -20.0300 -1.0204 0.8650
-30.1991 -23.3279 -1.0745 0.8584
-30.1930 -25.1120 -1.1058 0.8546
-30.1787 -29.0241 -1.1790 0.8457
-30.1777 -31.1939 -1.2221 0.8406
-30.1719 -33.5265 -1.2700 0.8349
-2.5762 -13.2577 -0.3803 0.9474
-30.0415 34.6608 -2.3262 0.8322
-30.4945 32.7216 -2.2684 0.8360
-30.7028 30.6512 -2.2002 0.8405
-32.8074 28.3385 -2.1986 0.8406
-33.7959 27.1279 -2.1978 0.8407
-31.3992 23.3941 -1.9858 0.8549
-36.4927 23.2988 -2.1957 0.8408
-35.0939 17.3891 -1.9863 0.8548
-35.1268 15.8548 -1.9545 0.8570
-35.1586 14.3671 -1.9262 0.8589
-30.2359 8.6865 -1.5954 0.8816
-34.5839 8.5990 -1.8073 0.8670
-38.7555 5.2849 -1.9836 0.8550
-39.1001 1.0699 -1.9837 0.8550
-39.0913 -1.7508 -1.9845 0.8549
-39.0594 -3.1635 -1.9874 0.8547
-39.0090 -4.5799 -1.9919 0.8544
-38.7449 -8.8695 -2.0157 0.8528
-37.3500 -11.4375 -1.9810 0.8552
-33.2754 -11.5173 -1.7858 0.8685
-31.0386 -12.0127 -1.6879 0.8752
-30.2821 -14.3075 -1.6985 0.8745
-30.1514 -15.5993 -1.7216 0.8729
-30.1867 -27.0060 -2.0541 0.8503
-29.4400 -35.1856 -2.3266 0.8321
-28.3350 -39.3053 -2.4573 0.8236
-27.1568 -40.6866 -2.4808 0.8221
-24.1770 -42.5768 -2.4831 0.8219
-21.0667 -44.2507 -2.4855 0.8218
-17.8414 -45.6992 -2.4880 0.8216
-16.1907 -46.3363 -2.4892 0.8215
-14.5173 -46.9140 -2.4905 0.8214
-12.8233 -47.4317 -2.4918 0.8214
-4.5410 -19.5718 -1.0189 0.9227
-3.8704 -46.1029 -2.3463 0.8309
-2.2148 -46.3984 -2.3557 0.8302
1.1605 -47.5207 -2.4107 0.8266
4.6907 -48.4418 -2.4682 0.8229
6.5112 -48.8209 -2.4978 0.8210
8.3670 -49.1421 -2.5281 0.8190
-20.3030 27.1548 -2.4860 0.8729
-21.2624 26.3975 -2.4853 0.8729
-22.1939 25.6065 -2.4846 0.8729
-23.0960 24.7828 -2.4839 0.8730
-23.9680 23.9276 -2.4832 0.8730
-26.3913 21.1843 -2.4814 0.8731
-27.8366 19.2191 -2.4803 0.8731
-28.5055 18.1994 -2.4797 0.8732
-28.5232 16.7950 -2.4270 0.8757
-28.5278 15.4406 -2.3785 0.8780
-28.9268 13.0564 -2.3270 0.8805
-29.3743 12.0034 -2.3267 0.8805
-29.7839 10.9352 -2.3264 0.8805
-30.2019 9.8685 -2.3297 0.8804
-30.2362 8.6866 -2.3067 0.8815
-31.2907 6.5923 -2.3447 0.8796
-32.4750 4.4285 -2.4032 0.8768
-32.6606 0.8937 -2.3956 0.8772
-32.6484 -1.4622 -2.3963 0.8772
-32.4752 -3.8128 -2.3975 0.8771
-32.3719 -4.9895 -2.4016 0.8769
-32.2387 -6.1662 -2.4067 0.8767
-31.9444 -8.5355 -2.4244 0.8758
-31.7574 -9.7248 -2.4352 0.8753
-28.6975 -13.5588 -2.3272 0.8805
-28.4353 -14.7114 -2.3474 0.8795
-28.4227 -16.0293 -2.3926 0.8773
-26.7789 -20.6859 -2.4811 0.8731
-24.4070 -23.4733 -2.4829 0.8730
-23.5512 -24.3443 -2.4836 0.8730
-20.8030 -26.7674 -2.4857 0.8729
-19.8305 -27.5082 -2.4864 0.8728
-17.8081 -28.8836 -2.4880 0.8728
-16.7607 -29.5163 -2.4888 0.8727
-12.3611 -31.6619 -2.4922 0.8726
-11.2157 -32.0983 -2.4930 0.8725
-10.0549 -32.4933 -2.4939 0.8725
-8.8802 -32.8466 -2.4948 0.8724
-4.5406 -19.5703 -1.4731 0.9226
-2.5762 -13.2578 -0.9903 0.9473
-3.8249 -31.7709 -2.3463 0.8795
-2.6797 -31.9194 -2.3486 0.8794
-1.5376 -32.2126 -2.3646 0.8787
1.9897 -32.8614 -2.4139 0.8763
4.4133 -33.0905 -2.4478 0.8747
5.6427 -33.1411 -2.4649 0.8739
8.1289 -33.1088 -2.4997 0.8722
9.3825 -33.0242 -2.5172 0.8714
11.9019 -32.7140 -2.5525 0.8697
-15.5290 20.7697 -2.4897 0.9010
-16.2639 20.1918 -2.4892 0.9011
-17.6689 18.9593 -2.4881 0.9011
-18.3371 18.3062 -2.4876 0.9011
-20.7622 15.4690 -2.4857 0.9012
-22.7560 12.3166 -2.4842 0.9012
-23.5783 10.6423 -2.4835 0.9013
-24.2791 8.9141 -2.4830 0.9013
-24.5827 8.0324 -2.4828 0.9013
-24.8545 7.1405 -2.4827 0.9013
-25.0942 6.2395 -2.4825 0.9013
-25.6181 3.4934 -2.4822 0.9013
-25.7268 2.5676 -2.4822 0.9013
-25.8024 1.6384 -2.4822 0.9013
-25.8448 0.7072 -2.4822 0.9013
-25.8294 -1.1568 -2.4822 0.9013
-25.7718 -2.0873 -2.4823 0.9013
-25.6807 -3.0151 -2.4824 0.9013
-25.5562 -3.9390 -2.4825 0.9013
-25.3989 -4.8580 -2.4826 0.9013
-25.2087 -5.7708 -2.4828 0.9013
-24.4438 -8.4605 -2.4833 0.9013
-23.7753 -10.2017 -2.4838 0.9013
-23.3946 -11.0533 -2.4841 0.9012
-22.9836 -11.8909 -2.4844 0.9012
-19.9114 -16.5607 -2.4864 0.9012
-19.3051 -17.2710 -2.4868 0.9011
-18.6735 -17.9592 -2.4873 0.9011
-18.0177 -18.6244 -2.4878 0.9011
-16.6360 -19.8827 -2.4889 0.9011
-15.9120 -20.4741 -2.4894 0.9010
-14.4022 -21.5774 -2.4906 0.9010
-13.6183 -22.0879 -2.4912 0.9010
-11.9974 -23.0233 -2.4924 0.9009
-10.3127 -23.8402 -2.4937 0.9009
-9.4491 -24.2029 -2.4944 0.9009
-8.5728 -24.5344 -2.4951 0.9008
-4.5196 -19.4795 -1.9198 0.9228
-2.5762 -13.2579 -1.2966 0.9472
-3.7940 -24.1437 -2.3464 0.9065
-2.9203 -24.2569 -2.3456 0.9065
-1.1770 -24.6577 -2.3700 0.9056
1.5156 -25.0319 -2.4076 0.9041
2.4298 -25.0935 -2.4204 0.9037
5.2070 -25.0805 -2.4592 0.9022
7.0749 -24.9019 -2.4853 0.9012
9.8752 -24.3707 -2.5245 0.8997
-13.7353 15.8473 -2.4911 0.9190
-14.2952 15.3392 -2.4907 0.9190
-14.8364 14.8114 -2.4903 0.9190
-16.3411 13.1170 -2.4891 0.9191
-16.8010 12.5176 -2.4887 0.9191
-17.2390 11.9022 -2.4884 0.9191
-17.6546 11.2716 -2.4881 0.9191
-18.0473 10.6265 -2.4878 0.9191
-19.0829 8.6133 -2.4870 0.9191
-19.8963 6.5011 -2.4864 0.9191
-20.1163 5.7792 -2.4862 0.9191
-20.3104 5.0500 -2.4860 0.9192
-20.6195 3.5731 -2.4858 0.9192
-20.7341 2.8274 -2.4857 0.9192
-20.8220 2.0780 -2.4857 0.9192
-8.0734 0.2209 -0.9594 0.9680
-20.9044 -0.9362 -2.4856 0.9192
-20.6826 -3.1879 -2.4858 0.9192
-20.5551 -3.9315 -2.4859 0.9192
-20.2203 -5.4029 -2.4862 0.9191
-19.7810 -6.8466 -2.4865 0.9191
-19.5228 -7.5558 -2.4867 0.9191
-18.5983 -9.6221 -2.4874 0.9191
-18.2413 -10.2874 -2.4876 0.9191
-17.8607 -10.9396 -2.4879 0.9191
-17.4569 -11.5778 -2.4882 0.9191
-17.0304 -12.2012 -2.4886 0.9191
-16.5818 -12.8090 -2.4889 0.9191
-16.1116 -13.4004 -2.4893 0.9191
-15.1089 -14.5309 -2.4900 0.9190
-14.0274 -15.5870 -2.4909 0.9190
-12.2693 -17.0195 -2.4922 0.9190
-11.6500 -17.4540 -2.4927 0.9189
-11.0153 -17.8662 -2.4932 0.9189
-10.3662 -18.2553 -2.4937 0.9189
-9.7033 -18.6210 -2.4942 0.9189
-9.0277 -18.9626 -2.4947 0.9189
-8.3400 -19.2798 -2.4953 0.9189
-7.6412 -19.5721 -2.4958 0.9188
-6.9321 -19.8392 -2.4963 0.9188
-6.2138 -20.0807 -2.4969 0.9188
-5.4871 -20.2961 -2.4974 0.9188
-4.4634 -19.2374 -2.3458 0.9235
-2.5763 -13.2579 -1.6043 0.9470
-2.3682 -19.6710 -2.3535 0.9233
-1.6644 -19.8261 -2.3633 0.9230
-0.9526 -19.9568 -2.3733 0.9227
4.1842 -20.1544 -2.4451 0.9204
5.6734 -19.9692 -2.4659 0.9198
6.3984 -19.7789 -2.4693 0.9197
7.0894 -19.4862 -2.4631 0.9199
-10.5383 14.0947 -2.4936 0.9314
-11.0378 13.7035 -2.4932 0.9314
-11.5229 13.2948 -2.4928 0.9314
-12.4473 12.4264 -2.4921 0.9314
-13.3068 11.4942 -2.4914 0.9314
-15.1436 8.9168 -2.4900 0.9315
-16.8815 4.8499 -2.4887 0.9315
-17.3042 2.9986 -2.4884 0.9315
-17.4743 1.7440 -2.4882 0.9315
-7.3690 0.4679 -1.0462 0.9706
-7.3676 0.2016 -1.0443 0.9707
-7.3698 -0.0641 -1.0443 0.9707
-7.3756 -0.3304 -1.0461 0.9706
-17.1202 -3.9192 -2.4885 0.9315
-16.7950 -5.1431 -2.4888 0.9315
-16.5997 -5.7455 -2.4889 0.9315
-16.1449 -6.9276 -2.4893 0.9315
-15.3066 -8.6323 -2.4899 0.9315
-14.2897 -10.2376 -2.4907 0.9314
-13.9129 -10.7473 -2.4910 0.9314
-13.5181 -11.2433 -2.4913 0.9314
-13.1057 -11.7248 -2.4916 0.9314
-12.6762 -12.1912 -2.4919 0.9314
-11.7681 -13.0765 -2.4926 0.9314
-10.7986 -13.8946 -2.4934 0.9314
-9.7725 -14.6412 -2.4942 0.9314
-9.2398 -14.9864 -2.4946 0.9313
-8.6950 -15.3123 -2.4950 0.9313
-5.8136 -16.6380 -2.4972 0.9313
-4.8936 -15.8140 -2.3455 0.9353
-4.3211 -15.9832 -2.3459 0.9353
-1.9899 -16.5293 -2.3589 0.9350
-0.7994 -16.7470 -2.3756 0.9345
-0.1959 -16.8245 -2.3840 0.9343
0.4122 -16.8805 -2.3925 0.9341
1.6364 -16.8991 -2.4056 0.9337
2.2428 -16.8163 -2.4038 0.9338
2.8443 -16.7056 -2.4011 0.9338
4.0285 -16.4079 -2.3939 0.9340
4.6102 -16.2269 -2.3902 0.9341
5.7503 -15.8056 -2.3831 0.9343
-9.0679 12.1281 -2.4947 0.9405
-9.4979 11.7917 -2.4944 0.9405
-10.3203 11.0740 -2.4937 0.9405
-11.0887 10.2991 -2.4931 0.9405
-11.7994 9.4713 -2.4926 0.9405
-12.1319 9.0389 -2.4923 0.9405
-12.7492 8.1397 -2.4919 0.9405
-13.3003 7.1988 -2.4914 0.9405
-13.9967 5.7196 -2.4909 0.9405
-14.1930 5.2110 -2.4907 0.9405
-14.5300 4.1744 -2.4905 0.9406
-14.6704 3.6477 -2.4904 0.9406
-14.7919 3.1163 -2.4903 0.9406
-14.8941 2.5810 -2.4902 0.9406
-15.0407 1.5011 -2.4901 0.9406
-7.0986 0.4508 -1.1718 0.9716
-7.1016 0.1943 -1.1704 0.9716
-7.1029 -0.0618 -1.1702 0.9716
-7.1044 -0.3182 -1.1715 0.9716
-15.0124 -1.7626 -2.4901 0.9406
-14.9395 -2.3027 -2.4902 0.9406
-14.7357 -3.3733 -2.4903 0.9406
-14.2873 -4.9451 -2.4907 0.9405
-14.1006 -5.4573 -2.4908 0.9405
-13.4318 -6.9491 -2.4913 0.9405
-13.1736 -7.4294 -2.4915 0.9405
-12.8983 -7.9001 -2.4917 0.9405
-12.6062 -8.3607 -2.4920 0.9405
-12.2978 -8.8106 -2.4922 0.9405
-11.6334 -9.6758 -2.4927 0.9405
-11.2783 -10.0900 -2.4930 0.9405
-10.1267 -11.2526 -2.4939 0.9405
-9.2920 -11.9561 -2.4945 0.9405
-8.8561 -12.2849 -2.4949 0.9405
-8.4087 -12.5979 -2.4952 0.9404
-7.4812 -13.1748 -2.4959 0.9404
-7.0025 -13.4379 -2.4963 0.9404
-6.5145 -13.6837 -2.4967 0.9404
-5.5133 -14.1218 -2.4974 0.9404
-4.6970 -13.4425 -2.3458 0.9439
-4.2125 -13.6132 -2.3475 0.9439
-2.5763 -13.2581 -2.2250 0.9467
-2.2132 -14.0836 -2.3486 0.9438
-1.7045 -14.1583 -2.3493 0.9438
-1.1934 -14.2150 -2.3500 0.9438
-0.6805 -14.2546 -2.3510 0.9438
-0.1660 -14.2778 -2.3523 0.9438
0.3487 -14.2805 -2.3533 0.9437
2.4009 -14.1011 -2.3564 0.9437
2.9090 -14.0118 -2.3575 0.9436
4.9025 -13.4753 -2.3623 0.9435
5.3880 -13.2969 -2.3635 0.9435
-8.6938 10.0306 -2.4950 0.9474
-9.0488 9.7097 -2.4947 0.9474
-9.3920 9.3762 -2.4944 0.9474
-9.7229 9.0306 -2.4942 0.9474
-10.0411 8.6733 -2.4939 0.9474
-10.3463 8.3049 -2.4937 0.9474
-10.9158 7.5366 -2.4933 0.9474
-11.1795 7.1376 -2.4931 0.9474
-11.4287 6.7294 -2.4929 0.9475
-11.8822 5.8876 -2.4925 0.9475
-12.0860 5.4551 -2.4924 0.9475
-12.2740 5.0156 -2.4922 0.9475
-12.4462 4.5696 -2.4921 0.9475
-12.9717 2.7329 -2.4917 0.9475
-13.0614 2.2634 -2.4916 0.9475
-13.1342 1.7911 -2.4916 0.9475
-6.8760 0.1881 -1.2929 0.9724
-6.8770 -0.0599 -1.2926 0.9724
-6.8750 -0.3079 -1.2935 0.9724
-13.2122 -1.0701 -2.4915 0.9475
-13.1012 -2.0193 -2.4916 0.9475
-12.8078 -3.4222 -2.4918 0.9475
-12.6766 -3.8819 -2.4919 0.9475
-12.1853 -5.2286 -2.4923 0.9475
-11.5518 -6.5148 -2.4928 0.9475
-10.7835 -7.7257 -2.4934 0.9474
-10.2007 -8.4841 -2.4938 0.9474
-9.8892 -8.8471 -2.4941 0.9474
-8.8790 -9.8662 -2.4948 0.9474
-8.5185 -10.1810 -2.4951 0.9474
-7.7646 -10.7708 -2.4957 0.9474
-7.3722 -11.0450 -2.4960 0.9474
-6.9701 -11.3050 -2.4963 0.9474
-6.5588 -11.5504 -2.4966 0.9474
-6.1390 -11.7808 -2.4969 0.9474
-4.1173 -11.7833 -2.3461 0.9505
-3.6918 -11.9303 -2.3473 0.9504
-2.8260 -12.1801 -2.3502 0.9504
-2.3865 -12.2812 -2.3516 0.9504
0.7579 -12.5197 -2.3575 0.9502
1.6589 -12.4397 -2.3589 0.9502
2.9949 -12.1972 -2.3607 0.9502
3.4318 -12.0833 -2.3611 0.9502
3.8627 -11.9407 -2.3589 0.9502
4.2884 -11.7874 -2.3576 0.9502
4.7103 -11.6246 -2.3575 0.9502
-7.0714 9.4579 -2.4962 0.9529
-7.4070 9.1958 -2.4960 0.9529
-7.7329 8.9220 -2.4957 0.9529
-8.6485 8.0327 -2.4950 0.9529
-9.4628 7.0503 -2.4944 0.9529
-9.7101 6.7041 -2.4942 0.9529
-10.1664 5.9862 -2.4938 0.9529
-10.3750 5.6154 -2.4937 0.9529
-10.7514 4.8527 -2.4934 0.9529
-10.9187 4.4618 -2.4933 0.9529
-11.2108 3.6631 -2.4930 0.9529
-11.3352 3.2565 -2.4929 0.9529
-11.6843 1.5933 -2.4927 0.9529
-6.6595 0.6646 -1.4147 0.9730
-6.6786 0.1827 -1.4123 0.9731
-6.6785 -0.0581 -1.4118 0.9731
-6.6743 -0.2989 -1.4122 0.9731
-11.7119 -1.3751 -2.4927 0.9529
-11.5828 -2.2154 -2.4928 0.9529
-11.4957 -2.6316 -2.4928 0.9529
-10.9998 -4.2572 -2.4932 0.9529
-10.8397 -4.6512 -2.4933 0.9529
-10.6656 -5.0392 -2.4935 0.9529
-10.2760 -5.7953 -2.4938 0.9529
-10.0611 -6.1624 -2.4939 0.9529
-9.8331 -6.5215 -2.4941 0.9529
-8.7965 -7.8696 -2.4949 0.9529
-8.5078 -8.1823 -2.4951 0.9529
-7.8977 -8.7757 -2.4956 0.9529
-7.5769 -9.0556 -2.4958 0.9529
-6.9062 -9.5800 -2.4964 0.9529
-6.5570 -9.8238 -2.4966 0.9529
-5.8335 -10.2730 -2.4972 0.9528
-4.2984 -11.0100 -2.4984 0.9528
-0.5306 -11.1149 -2.3521 0.9555
0.6728 -11.1115 -2.3531 0.9555
1.0730 -11.0811 -2.3533 0.9555
1.4719 -11.0361 -2.3535 0.9555
1.8689 -10.9766 -2.3536 0.9555
2.6551 -10.8142 -2.3538 0.9555
3.8070 -10.4641 -2.3537 0.9555
-6.3614 8.5083 -2.4968 0.9573
-7.5156 7.5029 -2.4959 0.9573
-7.7806 7.2266 -2.4957 0.9573
-8.0354 6.9408 -2.4955 0.9573
-8.5133 6.3429 -2.4951 0.9573
-8.7359 6.0314 -2.4949 0.9573
-8.9470 5.7122 -2.4948 0.9573
-9.1466 5.3857 -2.4946 0.9573
-9.3343 5.0521 -2.4945 0.9573
-10.0865 3.2958 -2.4939 0.9573
-10.1984 2.9299 -2.4938 0.9573
-10.3824 2.1874 -2.4937 0.9573
-10.4543 1.8116 -2.4936 0.9573
-6.3699 0.6357 -1.5045 0.9740
-6.3833 0.1746 -1.5008 0.9741
-6.3767 -0.2856 -1.5002 0.9741
-10.4862 -1.6163 -2.4936 0.9573
-10.2512 -2.7391 -2.4938 0.9573
-10.1461 -3.1070 -2.4939 0.9573
-9.4266 -4.8770 -2.4944 0.9573
-8.8466 -5.8673 -2.4949 0.9573
-8.6299 -6.1828 -2.4950 0.9573
-7.9137 -7.0799 -2.4956 0.9573
-7.3842 -7.6329 -2.4960 0.9573
-6.2127 -8.6181 -2.4969 0.9573
-5.5767 -9.0451 -2.4974 0.9573
-5.2476 -9.2412 -2.4976 0.9573
-4.9115 -9.4253 -2.4979 0.9573
-4.2205 -9.7568 -2.4984 0.9573
-3.5074 -10.0378 -2.4990 0.9573
-3.1436 -10.1588 -2.4992 0.9572
-2.7756 -10.2667 -2.4995 0.9572
-2.3520 -10.1373 -2.4458 0.9581
-1.9378 -9.9724 -2.3876 0.9591
-1.5516 -9.8739 -2.3491 0.9598
-1.1943 -9.9204 -2.3483 0.9598
-0.4766 -9.9841 -2.3492 0.9598
0.6043 -9.9807 -2.3500 0.9597
0.9638 -9.9533 -2.3502 0.9597
1.3221 -9.9128 -2.3504 0.9597
2.0333 -9.7937 -2.3508 0.9597
2.3887 -9.7292 -2.3545 0.9597
2.7604 -9.7160 -2.3739 0.9593
3.1416 -9.7114 -2.3989 0.9589
3.5313 -9.7062 -2.4275 0.9584
-6.0496 7.5106 -2.4970 0.9609
-6.3159 7.2871 -2.4968 0.9609
-6.5740 7.0541 -2.4966 0.9609
-6.8235 6.8120 -2.4964 0.9609
-7.0641 6.5611 -2.4962 0.9609
-7.2955 6.3017 -2.4961 0.9610
-8.1234 5.1864 -2.4954 0.9610
-8.6345 4.2784 -2.4950 0.9610
-8.9195 3.6448 -2.4948 0.9610
-9.0448 3.3208 -2.4947 0.9610
-9.3496 2.3247 -2.4945 0.9610
-9.4271 1.9861 -2.4944 0.9610
-9.4923 1.6449 -2.4944 0.9610
-9.5453 1.3016 -2.4943 0.9610
-6.1168 0.6104 -1.5916 0.9749
-6.0992 0.3873 -1.5824 0.9751
-6.1041 0.1670 -1.5811 0.9751
-6.1046 -0.0531 -1.5806 0.9751
-6.1074 -0.2736 -1.5829 0.9751
-6.1493 -0.4981 -1.5974 0.9748
-9.5213 -1.4675 -2.4943 0.9610
-9.3912 -2.1499 -2.4944 0.9610
-9.3078 -2.4871 -2.4945 0.9610
-9.2124 -2.8211 -2.4946 0.9610
-8.8550 -3.7996 -2.4949 0.9610
-8.5590 -4.4281 -2.4951 0.9610
-8.2185 -5.0338 -2.4953 0.9610
-8.0322 -5.3271 -2.4955 0.9610
-7.8354 -5.6135 -2.4956 0.9610
-7.6284 -5.8927 -2.4958 0.9610
-7.1850 -6.4279 -2.4961 0.9609
-6.7042 -6.9300 -2.4965 0.9609
-6.1884 -7.3962 -2.4969 0.9609
-5.6404 -7.8242 -2.4973 0.9609
-5.3551 -8.0231 -2.4975 0.9609
-4.7640 -8.3896 -2.4980 0.9609
-4.4589 -8.5567 -2.4982 0.9609
-3.8315 -8.8575 -2.4987 0.9609
-2.8537 -9.2221 -2.4995 0.9609
-2.1823 -9.4057 -2.5000 0.9609
-1.4992 -9.5405 -2.5005 0.9609
-0.4606 -9.6497 -2.5013 0.9609
0.5840 -9.6461 -2.5021 0.9609
1.2778 -9.5810 -2.5026 0.9608
1.6225 -9.5297 -2.5029 0.9608
2.6427 -9.3017 -2.5037 0.9608
3.3067 -9.0890 -2.5042 0.9608
-5.2830 7.0659 -2.4976 0.9640
-5.5339 6.8703 -2.4974 0.9640
-5.7775 6.6659 -2.4972 0.9640
-6.0136 6.4528 -2.4970 0.9640
-6.2419 6.2314 -2.4969 0.9640
-6.4620 6.0019 -2.4967 0.9640
-6.8768 5.5200 -2.4964 0.9640
-7.4313 4.7445 -2.4959 0.9640
-7.8989 3.9139 -2.4956 0.9640
-8.0346 3.6265 -2.4955 0.9640
-8.1597 3.3343 -2.4954 0.9640
-8.2744 3.0379 -2.4953 0.9640
-8.6241 1.8170 -2.4950 0.9640
-5.9892 -0.0521 -1.6956 0.9754
-5.9974 -0.2686 -1.6995 0.9754
-8.7530 -1.0277 -2.4949 0.9640
-8.7104 -1.3425 -2.4950 0.9640
-8.6565 -1.6557 -2.4950 0.9640
-8.5913 -1.9668 -2.4951 0.9640
-8.5150 -2.2752 -2.4951 0.9640
-8.4277 -2.5808 -2.4952 0.9640
-8.1006 -3.4759 -2.4954 0.9640
-7.3478 -4.8732 -2.4960 0.9640
-7.1677 -5.1352 -2.4962 0.9640
-6.9784 -5.3906 -2.4963 0.9640
-6.7799 -5.6390 -2.4965 0.9640
-6.5727 -5.8801 -2.4966 0.9640
-6.3568 -6.1137 -2.4968 0.9640
-6.1327 -6.3392 -2.4969 0.9640
-5.9006 -6.5567 -2.4971 0.9640
-5.4137 -6.9659 -2.4975 0.9640
-5.1595 -7.1571 -2.4977 0.9640
-4.6311 -7.5114 -2.4981 0.9640
-4.0786 -7.8269 -2.4985 0.9640
-3.2106 -8.2237 -2.4992 0.9640
-2.9123 -8.3348 -2.4994 0.9640
-2.6102 -8.4352 -2.4997 0.9640
-2.3047 -8.5246 -2.4999 0.9640
-1.9960 -8.6030 -2.5001 0.9640
-1.6848 -8.6701 -2.5004 0.9639
-1.3713 -8.7261 -2.5006 0.9639
-0.7391 -8.8039 -2.5011 0.9639
0.2158 -8.8349 -2.5018 0.9639
0.5341 -8.8222 -2.5021 0.9639
0.8520 -8.7981 -2.5023 0.9639
1.1673 -8.7625 -2.5026 0.9639
1.4839 -8.7155 -2.5028 0.9639
2.4169 -8.5068 -2.5035 0.9639
2.7222 -8.4149 -2.5038 0.9639
3.0241 -8.3121 -2.5040 0.9639
3.3220 -8.1985 -2.5042 0.9639
-5.0940 6.3243 -2.4977 0.9666
-5.3183 6.1361 -2.4976 0.9666
-5.5357 5.9400 -2.4974 0.9666
-5.9485 5.5250 -2.4971 0.9666
-6.1435 5.3066 -2.4969 0.9666
-6.5091 4.8496 -2.4967 0.9666
-6.6794 4.6116 -2.4965 0.9666
-6.8409 4.3676 -2.4964 0.9666
-7.2715 3.6030 -2.4961 0.9666
-7.3964 3.3384 -2.4960 0.9666
-7.5117 3.0695 -2.4959 0.9666
-7.6172 2.7967 -2.4958 0.9666
-7.8740 1.9578 -2.4956 0.9666
-7.9393 1.6727 -2.4956 0.9666
-7.9943 1.3853 -2.4955 0.9666
-5.9596 0.3784 -1.8367 0.9753
-5.9694 -0.2674 -1.8379 0.9753
-6.0476 -0.4898 -1.8662 0.9749
-7.9690 -1.5242 -2.4955 0.9666
-7.9091 -1.8105 -2.4956 0.9666
-7.8388 -2.0945 -2.4956 0.9666
-7.6679 -2.6540 -2.4958 0.9666
-7.4573 -3.1998 -2.4959 0.9666
-7.3373 -3.4667 -2.4960 0.9666
-6.4239 -4.9623 -2.4967 0.9666
-6.2412 -5.1909 -2.4969 0.9666
-5.8517 -5.6278 -2.4972 0.9666
-5.2109 -6.2279 -2.4977 0.9666
-4.7493 -6.5881 -2.4980 0.9666
-4.2630 -6.9142 -2.4984 0.9666
-3.7543 -7.2046 -2.4988 0.9666
-3.4924 -7.3358 -2.4990 0.9666
-3.2259 -7.4575 -2.4992 0.9666
-2.6807 -7.6719 -2.4996 0.9666
-1.8372 -7.9185 -2.5003 0.9666
-1.5507 -7.9803 -2.5005 0.9666
-1.2621 -8.0317 -2.5007 0.9665
-0.3878 -8.1232 -2.5014 0.9665
-0.0947 -8.1326 -2.5016 0.9665
0.1986 -8.1315 -2.5018 0.9665
0.4916 -8.1198 -2.5020 0.9665
1.0756 -8.0647 -2.5025 0.9665
1.3657 -8.0214 -2.5027 0.9665
2.5053 -7.7445 -2.5036 0.9665
3.0573 -7.5452 -2.5040 0.9665
-5.3174 5.3085 -2.4976 0.9688
-5.5050 5.1130 -2.4974 0.9688
-5.6854 4.9109 -2.4973 0.9688
-5.8585 4.7026 -2.4972 0.9688
-6.0239 4.4881 -2.4970 0.9688
-6.7295 3.3345 -2.4965 0.9688
-7.0495 2.5882 -2.4962 0.9688
-7.1380 2.3324 -2.4962 0.9688
-7.3986 1.2821 -2.4960 0.9688
-5.9329 -0.0516 -1.9722 0.9753
-7.4575 -0.8755 -2.4959 0.9688
-7.4211 -1.1439 -2.4960 0.9688
-7.3752 -1.4106 -2.4960 0.9688
-7.1802 -2.1988 -2.4961 0.9688
-7.0965 -2.4562 -2.4962 0.9688
-7.0035 -2.7105 -2.4963 0.9688
-6.7905 -3.2083 -2.4964 0.9688
-6.5421 -3.6895 -2.4966 0.9688
-6.4052 -3.9231 -2.4967 0.9688
-6.1064 -4.3748 -2.4970 0.9688
-5.9450 -4.5924 -2.4971 0.9688
-5.7759 -4.8039 -2.4972 0.9688
-5.2244 -5.4004 -2.4976 0.9688
-4.8223 -5.7634 -2.4980 0.9688
-4.6117 -5.9339 -2.4981 0.9688
-4.1727 -6.2515 -2.4985 0.9688
-3.2318 -6.7884 -2.4992 0.9688
-2.9852 -6.9010 -2.4994 0.9688
-2.4806 -7.0993 -2.4998 0.9688
-2.2233 -7.1847 -2.5000 0.9688
-1.9630 -7.2608 -2.5002 0.9688
-1.7001 -7.3274 -2.5004 0.9688
-1.4349 -7.3845 -2.5006 0.9688
-1.1679 -7.4321 -2.5008 0.9688
-0.8993 -7.4699 -2.5010 0.9688
-0.6295 -7.4981 -2.5012 0.9688
-0.3588 -7.5166 -2.5014 0.9688
-0.0876 -7.5252 -2.5016 0.9688
0.1837 -7.5241 -2.5018 0.9688
0.4549 -7.5132 -2.5020 0.9688
0.7255 -7.4926 -2.5022 0.9688
0.9952 -7.4622 -2.5024 0.9688
1.2637 -7.4221 -2.5026 0.9688
2.8288 -6.9812 -2.5038 0.9687
-4.1836 5.5955 -2.4984 0.9708
-4.5753 5.2789 -2.4981 0.9708
-4.7624 5.1102 -2.4980 0.9708
-5.2854 4.5654 -2.4976 0.9708
-5.6001 4.1724 -2.4974 0.9708
-5.8856 3.7577 -2.4971 0.9708
-6.0170 3.5429 -2.4970 0.9708
-6.1406 3.3236 -2.4969 0.9708
-6.2562 3.1000 -2.4969 0.9708
-6.3637 2.8723 -2.4968 0.9708
-6.5537 2.4062 -2.4966 0.9708
-6.8309 1.4391 -2.4964 0.9708
-6.0885 0.8302 -2.1974 0.9742
-5.9291 -0.0516 -2.1204 0.9751
-6.8993 -1.0634 -2.4964 0.9708
-6.8565 -1.3115 -2.4964 0.9708
-6.6752 -2.0441 -2.4965 0.9708
-6.5974 -2.2835 -2.4966 0.9708
-6.3128 -2.9827 -2.4968 0.9708
-6.2014 -3.2084 -2.4969 0.9708
-6.0820 -3.4300 -2.4970 0.9708
-5.6768 -4.0671 -2.4973 0.9708
-5.5268 -4.2693 -2.4974 0.9708
-5.3695 -4.4659 -2.4975 0.9708
-4.8568 -5.0203 -2.4979 0.9708
-4.6729 -5.1924 -2.4981 0.9708
-4.2871 -5.5163 -2.4984 0.9708
-3.6672 -5.9480 -2.4988 0.9708
-3.4507 -6.0768 -2.4990 0.9708
-3.2296 -6.1977 -2.4992 0.9707
-2.7750 -6.4151 -2.4995 0.9707
-2.5421 -6.5115 -2.4997 0.9707
-1.5803 -6.8112 -2.5004 0.9707
-1.3339 -6.8643 -2.5006 0.9707
-1.0856 -6.9085 -2.5008 0.9707
-0.5851 -6.9698 -2.5012 0.9707
0.1708 -6.9938 -2.5018 0.9707
0.9251 -6.9362 -2.5024 0.9707
1.4226 -6.8525 -2.5028 0.9707
2.1546 -6.6604 -2.5033 0.9707
2.6293 -6.4888 -2.5037 0.9707
-4.7761 4.4361 -2.4980 0.9725
-5.0829 4.0800 -2.4978 0.9725
-5.3632 3.7029 -2.4975 0.9725
-5.4930 3.5070 -2.4974 0.9725
-5.6156 3.3066 -2.4973 0.9725
-5.8388 2.8931 -2.4972 0.9725
-6.2622 1.7991 -2.4968 0.9725
-6.3753 1.3431 -2.4968 0.9725
-6.3300 0.8632 -2.4482 0.9730
-6.5125 0.1782 -2.4967 0.9725
-6.5085 -0.2915 -2.4967 0.9725
-6.4706 -0.7597 -2.4967 0.9725
-6.4391 -0.9925 -2.4967 0.9725
-6.3510 -1.4539 -2.4968 0.9725
-6.2300 -1.9078 -2.4969 0.9725
-6.1573 -2.1311 -2.4969 0.9725
-6.0766 -2.3518 -2.4970 0.9725
-5.9881 -2.5694 -2.4971 0.9725
-5.8917 -2.7837 -2.4971 0.9725
-5.6762 -3.2012 -2.4973 0.9725
-5.5573 -3.4038 -2.4974 0.9725
-5.4312 -3.6021 -2.4975 0.9725
-4.5326 -4.6853 -2.4982 0.9725
-3.6201 -5.4236 -2.4989 0.9725
-3.4224 -5.5509 -2.4990 0.9725
-3.0139 -5.7838 -2.4993 0.9724
-2.5897 -5.9867 -2.4997 0.9724
-2.3724 -6.0766 -2.4998 0.9724
-2.1519 -6.1586 -2.5000 0.9724
-1.0131 -6.4469 -2.5009 0.9724
-0.5460 -6.5041 -2.5012 0.9724
-0.3112 -6.5200 -2.5014 0.9724
-0.0760 -6.5274 -2.5016 0.9724
0.3946 -6.5169 -2.5020 0.9724
1.0961 -6.4376 -2.5025 0.9724
1.3275 -6.3944 -2.5027 0.9724
1.7851 -6.2830 -2.5030 0.9724
2.0105 -6.2150 -2.5032 0.9724
-3.6560 4.8899 -2.4989 0.9740
-4.1619 4.4659 -2.4985 0.9740
-4.3200 4.3128 -2.4983 0.9740
-4.4725 4.1540 -2.4982 0.9740
-4.6191 3.9899 -2.4981 0.9740
-5.0222 3.4675 -2.4978 0.9740
-5.1438 3.2841 -2.4977 0.9740
-5.2587 3.0964 -2.4976 0.9740
-5.7998 1.8951 -2.4972 0.9740
-5.8642 1.6847 -2.4972 0.9740
-6.0115 1.0417 -2.4970 0.9740
-6.0987 0.1669 -2.4970 0.9740
-6.0811 -0.4925 -2.4970 0.9740
-6.0594 -0.7114 -2.4970 0.9740
-5.9474 -1.3615 -2.4971 0.9740
-5.8341 -1.7865 -2.4972 0.9740
-5.7660 -1.9957 -2.4972 0.9740
-5.6075 -2.4061 -2.4974 0.9740
-5.3154 -2.9977 -2.4976 0.9740
-4.9613 -3.5544 -2.4978 0.9740
-4.8301 -3.7311 -2.4979 0.9740
-4.6926 -3.9030 -2.4981 0.9740
-4.3996 -4.2313 -2.4983 0.9740
-3.9177 -4.6823 -2.4987 0.9740
-3.7465 -4.8207 -2.4988 0.9740
-3.5705 -4.9529 -2.4989 0.9740
-3.2047 -5.1979 -2.4992 0.9740
-2.8222 -5.4159 -2.4995 0.9740
-2.6253 -5.5145 -2.4996 0.9739
-2.4250 -5.6059 -2.4998 0.9739
-2.2214 -5.6900 -2.5000 0.9739
-2.0150 -5.7667 -2.5001 0.9739
-0.5113 -6.0901 -2.5013 0.9739
-0.2914 -6.1050 -2.5014 0.9739
-0.0711 -6.1119 -2.5016 0.9739
0.3695 -6.1020 -2.5019 0.9739
0.8083 -6.0603 -2.5023 0.9739
1.0263 -6.0276 -2.5025 0.9739
1.2430 -5.9871 -2.5026 0.9739
1.4581 -5.9388 -2.5028 0.9739
1.6713 -5.8828 -2.5029 0.9739
1.8825 -5.8191 -2.5031 0.9739
2.2971 -5.6690 -2.5034 0.9739
-3.4336 4.5924 -2.4990 0.9753
-3.5968 4.4654 -2.4989 0.9753
-3.7552 4.3326 -2.4988 0.9753
-3.9088 4.1942 -2.4987 0.9753
-4.0573 4.0504 -2.4985 0.9753
-4.3382 3.7472 -2.4983 0.9753
-4.4703 3.5883 -2.4982 0.9753
-4.7168 3.2566 -2.4980 0.9753
-4.8310 3.0843 -2.4979 0.9753
-5.1353 2.5445 -2.4977 0.9753
-5.3796 1.9751 -2.4975 0.9753
-5.4471 1.7799 -2.4975 0.9753
-5.5610 1.3827 -2.4974 0.9753
-5.6461 0.9784 -2.4973 0.9753
-5.6776 0.7742 -2.4973 0.9753
-5.7018 0.5690 -2.4973 0.9753
-5.7186 0.3631 -2.4973 0.9753
-5.7279 0.1567 -2.4973 0.9753
-5.7298 -0.0498 -2.4973 0.9753
-5.7243 -0.2564 -2.4973 0.9753
-5.7114 -0.4626 -2.4973 0.9753
-5.6633 -0.8729 -2.4973 0.9753
-5.5858 -1.2787 -2.4974 0.9753
-5.5362 -1.4793 -2.4974 0.9753
-5.4154 -1.8744 -2.4975 0.9753
-5.1818 -2.4482 -2.4977 0.9753
-4.9922 -2.8154 -2.4978 0.9753
-4.8876 -2.9936 -2.4979 0.9753
-4.5363 -3.5042 -2.4982 0.9753
-4.4072 -3.6656 -2.4983 0.9753
-4.2724 -3.8222 -2.4984 0.9753
-3.8353 -4.2617 -2.4987 0.9753
-3.6794 -4.3974 -2.4988 0.9753
-3.3533 -4.6516 -2.4991 0.9753
-2.6505 -5.0863 -2.4996 0.9753
-2.4655 -5.1789 -2.4998 0.9753
-2.2774 -5.2647 -2.4999 0.9753
-2.0862 -5.3437 -2.5001 0.9753
-1.8924 -5.4157 -2.5002 0.9753
-1.6960 -5.4808 -2.5004 0.9753
-1.4974 -5.5387 -2.5005 0.9753
-1.2968 -5.5894 -2.5007 0.9753
-1.0946 -5.6329 -2.5008 0.9753
-0.6860 -5.6978 -2.5011 0.9753
-0.4801 -5.7192 -2.5013 0.9753
-0.2737 -5.7332 -2.5015 0.9753
0.1401 -5.7387 -2.5018 0.9753
0.5533 -5.7144 -2.5021 0.9753
0.7590 -5.6911 -2.5022 0.9753
0.9638 -5.6604 -2.5024 0.9753
1.1672 -5.6224 -2.5026 0.9753
1.5695 -5.5243 -2.5029 0.9753
2.1571 -5.3235 -2.5033 0.9752
-3.2330 4.3241 -2.4992 0.9765
-3.6805 3.9493 -2.4988 0.9765
-3.9551 3.6735 -2.4986 0.9765
-4.0848 3.5284 -2.4985 0.9765
-4.2092 3.3787 -2.4984 0.9765
-4.5489 2.9042 -2.4982 0.9765
-4.6505 2.7383 -2.4981 0.9765
-4.8354 2.3959 -2.4979 0.9765
-4.9185 2.2200 -2.4979 0.9765
-5.0655 1.8598 -2.4978 0.9765
-5.1291 1.6759 -2.4977 0.9765
-5.1861 1.4899 -2.4977 0.9765
-5.2364 1.3020 -2.4976 0.9765
-5.2798 1.1124 -2.4976 0.9765
-5.3461 0.7291 -2.4976 0.9765
-5.3689 0.5358 -2.4975 0.9765
-5.3935 0.1476 -2.4975 0.9765
-5.3901 -0.2414 -2.4975 0.9765
-5.3780 -0.4356 -2.4975 0.9765
-5.3588 -0.6292 -2.4975 0.9765
-5.2996 -1.0137 -2.4976 0.9765
-5.2130 -1.3929 -2.4977 0.9765
-5.1594 -1.5799 -2.4977 0.9765
-5.0324 -1.9476 -2.4978 0.9765
-4.8792 -2.3053 -2.4979 0.9765
-4.7931 -2.4798 -2.4980 0.9765
-4.7007 -2.6510 -2.4980 0.9765
-4.3874 -3.1433 -2.4983 0.9765
-4.1499 -3.4515 -2.4985 0.9765
-3.4644 -4.1406 -2.4990 0.9765
-3.3131 -4.2629 -2.4991 0.9765
-3.1574 -4.3798 -2.4992 0.9765
-2.9976 -4.4911 -2.4994 0.9765
-2.8339 -4.5964 -2.4995 0.9765
-2.6665 -4.6958 -2.4996 0.9765
-2.3215 -4.8763 -2.4999 0.9765
-2.1443 -4.9570 -2.5000 0.9765
-1.9643 -5.0314 -2.5002 0.9765
-1.4099 -5.2150 -2.5006 0.9765
-1.0306 -5.3036 -2.5009 0.9765
-0.6458 -5.3647 -2.5012 0.9765
-0.0629 -5.4041 -2.5016 0.9765
0.3267 -5.3952 -2.5019 0.9765
0.7146 -5.3583 -2.5022 0.9765
0.9074 -5.3293 -2.5024 0.9765
1.0990 -5.2934 -2.5025 0.9765
1.2892 -5.2507 -2.5027 0.9765
1.4777 -5.2011 -2.5028 0.9764
1.6644 -5.1447 -2.5029 0.9764
2.0309 -5.0120 -2.5032 0.9764
-3.0510 4.0807 -2.4993 0.9776
-3.1960 3.9679 -2.4992 0.9776
-3.3368 3.8499 -2.4991 0.9776
-3.7325 3.4668 -2.4988 0.9776
-3.8549 3.3298 -2.4987 0.9776
-4.0845 3.0432 -2.4985 0.9776
-4.1915 2.8939 -2.4984 0.9776
-4.2929 2.7408 -2.4984 0.9776
-4.4790 2.4242 -2.4982 0.9776
-4.7142 1.9264 -2.4980 0.9776
-4.7805 1.7551 -2.4980 0.9776
-4.9828 1.0498 -2.4978 0.9776
-5.0454 0.6880 -2.4978 0.9776
-5.0818 0.3227 -2.4978 0.9776
-5.0918 -0.0443 -2.4977 0.9776
-5.0869 -0.2278 -2.4978 0.9776
-5.0754 -0.4111 -2.4978 0.9776
-5.0327 -0.7757 -2.4978 0.9776
-4.9638 -1.1363 -2.4978 0.9776
-4.9197 -1.3145 -2.4979 0.9776
-4.8692 -1.4911 -2.4979 0.9776
-4.8123 -1.6657 -2.4980 0.9776
-4.6800 -2.0081 -2.4981 0.9776
-4.6047 -2.1756 -2.4981 0.9776
-4.1405 -2.9664 -2.4985 0.9776
-4.0310 -3.1139 -2.4986 0.9776
-3.6717 -3.5312 -2.4988 0.9776
-3.5422 -3.6615 -2.4989 0.9776
-2.6744 -4.3376 -2.4996 0.9776
-2.5164 -4.4314 -2.4997 0.9776
-2.3551 -4.5195 -2.4999 0.9776
-2.0235 -4.6779 -2.5001 0.9775
-1.6814 -4.8121 -2.5004 0.9775
-1.5069 -4.8698 -2.5005 0.9775
-1.1523 -4.9663 -2.5008 0.9775
-0.7915 -5.0370 -2.5011 0.9775
-0.6095 -5.0625 -2.5012 0.9775
-0.4266 -5.0815 -2.5013 0.9775
-0.0594 -5.0995 -2.5016 0.9775
0.3083 -5.0912 -2.5019 0.9775
0.4916 -5.0770 -2.5020 0.9775
0.6744 -5.0563 -2.5022 0.9775
0.8562 -5.0290 -2.5023 0.9775
1.0370 -4.9951 -2.5025 0.9775
1.2165 -4.9547 -2.5026 0.9775
1.7446 -4.7952 -2.5030 0.9775
1.9164 -4.7295 -2.5031 0.9775
-2.8850 3.8586 -2.4994 0.9785
-3.0221 3.7520 -2.4993 0.9785
-3.1553 3.6404 -2.4992 0.9785
-3.2843 3.5242 -2.4991 0.9785
-3.6452 3.1487 -2.4989 0.9785
-3.8623 2.8776 -2.4987 0.9785
-3.9634 2.7365 -2.4986 0.9785
-4.2354 2.2924 -2.4984 0.9785
-4.5205 1.6597 -2.4982 0.9785
-4.5773 1.4956 -2.4981 0.9785
-4.6730 1.1619 -2.4981 0.9785
-4.7118 0.9927 -2.4980 0.9785
-4.7913 0.4782 -2.4980 0.9785
-4.8054 0.3051 -2.4980 0.9785
-4.7823 -0.5615 -2.4980 0.9785
-4.7590 -0.7335 -2.4980 0.9785
-4.7295 -0.9046 -2.4980 0.9785
-4.6521 -1.2431 -2.4981 0.9785
-4.6043 -1.4100 -2.4981 0.9785
-4.4909 -1.7381 -2.4982 0.9785
-4.4255 -1.8989 -2.4983 0.9785
-4.3542 -2.0572 -2.4983 0.9785
-4.1949 -2.3658 -2.4984 0.9785
-4.0137 -2.6620 -2.4986 0.9785
-3.9153 -2.8050 -2.4987 0.9785
-3.8117 -2.9445 -2.4987 0.9785
-3.4719 -3.3391 -2.4990 0.9785
-3.2226 -3.5809 -2.4992 0.9785
-2.8175 -3.9083 -2.4995 0.9785
-2.6749 -4.0076 -2.4996 0.9785
-2.0715 -4.3512 -2.5001 0.9785
-1.9134 -4.4233 -2.5002 0.9785
-1.5899 -4.5501 -2.5004 0.9785
-1.2580 -4.6533 -2.5007 0.9785
-1.0895 -4.6959 -2.5008 0.9785
-0.4034 -4.8047 -2.5014 0.9785
-0.2299 -4.8164 -2.5015 0.9785
-0.0561 -4.8218 -2.5016 0.9785
0.1177 -4.8209 -2.5018 0.9785
0.2915 -4.8138 -2.5019 0.9785
0.6376 -4.7808 -2.5022 0.9785
0.8096 -4.7550 -2.5023 0.9785
0.9805 -4.7230 -2.5024 0.9785
1.1502 -4.6848 -2.5025 0.9785
1.3184 -4.6405 -2.5027 0.9785
1.8120 -4.4717 -2.5031 0.9785
-2.7328 3.6550 -2.4996 0.9794
-2.8627 3.5540 -2.4995 0.9794
-3.6586 2.7258 -2.4988 0.9794
-3.7544 2.5921 -2.4988 0.9794
-3.9312 2.3147 -2.4986 0.9794
-4.0120 2.1714 -2.4986 0.9794
-4.0875 2.0253 -2.4985 0.9794
-4.3841 1.2595 -2.4983 0.9794
-4.4943 0.7788 -2.4982 0.9794
-4.5194 0.6163 -2.4982 0.9794
-4.5386 0.4529 -2.4982 0.9794
-4.5594 0.1247 -2.4982 0.9794
-4.5463 -0.3682 -2.4982 0.9794
-4.5301 -0.5319 -2.4982 0.9794
-4.4800 -0.8569 -2.4982 0.9794
-4.4068 -1.1775 -2.4983 0.9794
-4.3106 -1.4920 -2.4983 0.9794
-4.2541 -1.6464 -2.4984 0.9794
-4.1246 -1.9486 -2.4985 0.9794
-3.9736 -2.2410 -2.4986 0.9794
-3.8904 -2.3828 -2.4987 0.9794
-3.8020 -2.5216 -2.4987 0.9794
-3.7088 -2.6571 -2.4988 0.9794
-3.5079 -2.9176 -2.4990 0.9794
-3.4005 -3.0422 -2.4990 0.9794
-3.2888 -3.1629 -2.4991 0.9794
-2.8004 -3.6034 -2.4995 0.9794
-2.6688 -3.7021 -2.4996 0.9794
-2.5337 -3.7961 -2.4997 0.9794
-2.3954 -3.8851 -2.4998 0.9794
-2.1094 -4.0480 -2.5000 0.9794
-1.9622 -4.1216 -2.5002 0.9794
-1.8124 -4.1898 -2.5003 0.9794
-1.6603 -4.2526 -2.5004 0.9794
-0.8710 -4.4825 -2.5010 0.9794
-0.7089 -4.5112 -2.5011 0.9794
-0.5458 -4.5341 -2.5012 0.9794
-0.3821 -4.5510 -2.5014 0.9794
-0.0532 -4.5672 -2.5016 0.9794
0.1115 -4.5664 -2.5017 0.9794
0.7668 -4.5038 -2.5023 0.9794
0.9287 -4.4735 -2.5024 0.9794
1.4065 -4.3477 -2.5027 0.9794
-2.5926 3.4675 -2.4997 0.9802
-2.9514 3.1670 -2.4994 0.9802
-3.0636 3.0584 -2.4993 0.9802
-3.4709 2.5860 -2.4990 0.9802
-3.5618 2.4592 -2.4989 0.9802
-3.6480 2.3291 -2.4989 0.9802
-3.7295 2.1960 -2.4988 0.9802
-3.8779 1.9215 -2.4987 0.9802
-3.9446 1.7804 -2.4986 0.9802
-4.0061 1.6370 -2.4986 0.9802
-4.2638 0.7389 -2.4984 0.9802
-4.2876 0.5847 -2.4984 0.9802
-4.3186 0.2742 -2.4983 0.9802
-4.3256 0.1184 -2.4983 0.9802
-4.3229 -0.1936 -2.4983 0.9802
-4.3131 -0.3493 -2.4983 0.9802
-4.2978 -0.5046 -2.4984 0.9802
-4.1808 -1.1171 -2.4984 0.9802
-4.1378 -1.2671 -2.4985 0.9802
-4.0895 -1.4155 -2.4985 0.9802
-3.8439 -1.9887 -2.4987 0.9802
-3.7698 -2.1260 -2.4988 0.9802
-3.4255 -2.6461 -2.4990 0.9802
-3.3279 -2.7679 -2.4991 0.9802
-3.1201 -3.0007 -2.4993 0.9802
-3.0100 -3.1113 -2.4993 0.9802
-2.7782 -3.3205 -2.4995 0.9802
-2.6568 -3.4185 -2.4996 0.9802
-2.4037 -3.6013 -2.4998 0.9802
-2.0011 -3.8403 -2.5001 0.9802
-1.8615 -3.9100 -2.5002 0.9802
-1.7194 -3.9748 -2.5003 0.9802
-1.5750 -4.0344 -2.5005 0.9802
-1.4287 -4.0887 -2.5006 0.9802
-0.9790 -4.2196 -2.5009 0.9802
-0.8263 -4.2524 -2.5010 0.9802
-0.6725 -4.2796 -2.5011 0.9802
-0.5178 -4.3013 -2.5013 0.9802
-0.3624 -4.3174 -2.5014 0.9802
-0.2066 -4.3278 -2.5015 0.9802
-0.0504 -4.3327 -2.5016 0.9802
0.1058 -4.3319 -2.5017 0.9802
0.4177 -4.3134 -2.5020 0.9802
0.5729 -4.2957 -2.5021 0.9802
0.7274 -4.2725 -2.5022 0.9802
1.0335 -4.2094 -2.5025 0.9802
1.1846 -4.1696 -2.5026 0.9802
1.3342 -4.1243 -2.5027 0.9802
1.4821 -4.0738 -2.5028 0.9802
