ply
format ascii 1.0
element vertex 1169
property float32 x
property float32 y
property float32 z
property float32 I
end_header
5.3037 11.8941 2.2963 0.9485
4.8035 11.9066 2.2639 0.9492
4.3166 11.9189 2.2352 0.9498
3.8412 11.9308 2.2101 0.9504
2.0251 11.9765 2.1418 0.9519
1.5857 11.9875 2.1321 0.9521
0.7158 12.0094 2.1213 0.9523
0.2830 12.0202 2.1201 0.9523
-0.5838 12.0420 2.1258 0.9522
-1.0201 12.0530 2.1329 0.9521
-3.5192 22.3146 3.9833 0.9123
-11.8004 43.5868 7.9622 0.8324
-14.3793 41.1227 7.6815 0.8378
-12.2119 31.2649 5.9185 0.8726
-9.6790 22.3697 4.2978 0.9057
-10.6452 22.3587 4.3665 0.9043
-14.0033 26.8752 5.3435 0.8842
-12.5257 18.7756 3.9797 0.9124
-12.6456 17.5526 3.8146 0.9159
-12.5901 16.2120 3.6194 0.9200
-12.6182 15.0940 3.4690 0.9232
-12.7308 14.1603 3.3576 0.9256
-12.6681 13.1094 3.2145 0.9286
-12.6904 12.2202 3.1065 0.9309
-18.5090 12.3009 3.9186 0.9137
-20.2014 12.4015 4.1797 0.9082
-24.0918 12.4992 4.7857 0.8956
-26.4998 12.5598 5.1709 0.8877
-35.6793 15.3636 6.8497 0.8540
-33.4705 5.2183 5.9731 0.8715
7.4792 11.8394 2.1453 0.9449
6.9045 11.8538 2.1015 0.9460
5.8192 11.8811 2.0267 0.9479
5.3037 11.8941 1.9951 0.9487
4.8035 11.9066 1.9669 0.9494
4.3166 11.9189 1.9420 0.9500
3.1842 9.8901 1.5917 0.9588
2.4196 9.9093 1.5627 0.9596
2.0468 9.9187 1.5515 0.9598
1.3145 9.9371 1.5356 0.9602
0.9530 9.9462 1.5307 0.9604
0.5934 9.9552 1.5278 0.9604
0.2346 9.9642 1.5269 0.9605
-0.1242 9.9732 1.5280 0.9604
-0.4840 9.9823 1.5310 0.9604
-11.8935 43.9309 6.9723 0.8318
-12.7253 41.0811 6.5884 0.8403
-12.2841 28.3904 4.7389 0.8823
-12.1805 25.5834 4.3408 0.8917
-13.0194 24.9867 4.3163 0.8922
-14.0907 24.8202 4.3723 0.8909
-16.6039 26.9406 4.8480 0.8798
-12.5257 18.7756 3.4576 0.9127
-12.6456 17.5526 3.3141 0.9162
-12.6182 15.0940 3.0139 0.9235
-12.6441 14.0638 2.8972 0.9263
-12.6681 13.1094 2.7927 0.9289
-13.6593 12.2371 2.8095 0.9285
-14.7225 12.2638 2.9354 0.9254
-15.7587 12.1938 3.0525 0.9225
-17.2608 12.3893 3.2549 0.9176
-18.5090 12.3009 3.4045 0.9140
-22.0151 12.4471 3.8743 0.9027
-29.3334 12.6310 4.8926 0.8788
-33.3374 8.9627 5.2885 0.8696
5.5182 10.3100 1.5228 0.9539
4.7624 10.6802 1.5228 0.9539
4.3750 10.8446 1.5228 0.9539
3.9820 10.9950 1.5228 0.9539
3.5838 11.1312 1.5228 0.9539
3.1809 11.2529 1.5228 0.9539
2.3633 11.4526 1.5228 0.9539
1.9497 11.5302 1.5228 0.9539
1.5335 11.5929 1.5228 0.9539
0.2753 11.6906 1.5228 0.9539
-1.4049 11.6092 1.5228 0.9539
-12.2119 31.2650 4.3709 0.8734
-13.9670 26.8054 3.9360 0.8852
-12.5594 17.4330 2.7979 0.9170
-12.6182 15.0940 2.5619 0.9237
-17.1716 12.3253 2.7525 0.9183
-24.2169 12.5641 3.5527 0.8958
-26.2962 12.4633 3.7894 0.8892
-29.3334 12.6310 4.1589 0.8791
6.3520 11.8677 1.4454 0.9473
5.3037 11.8941 1.3984 0.9490
4.3166 11.9189 1.3612 0.9503
2.0251 11.9765 1.3043 0.9523
1.1405 11.9027 1.2840 0.9530
0.7158 12.0094 1.2919 0.9528
0.2808 11.9243 1.2808 0.9531
-0.1486 11.9351 1.2817 0.9531
-0.5838 12.0420 1.2946 0.9527
-11.8935 43.9309 4.8872 0.8327
-16.6425 27.0033 3.4061 0.8802
-12.5257 18.7756 2.4236 0.9132
-12.5594 17.4330 2.3072 0.9172
-12.5901 16.2120 2.2042 0.9207
-12.6182 15.0940 2.1126 0.9239
-12.6904 12.2202 1.8918 0.9316
-14.7225 12.2638 2.0576 0.9258
-18.5997 12.3612 2.3981 0.9141
-20.2014 12.4015 2.5454 0.9090
-24.0918 12.4992 2.9145 0.8966
-26.2963 12.4633 3.1248 0.8895
-29.3334 12.6310 3.4295 0.8794
-33.3514 8.9665 3.7085 0.8703
7.4795 11.8398 1.1855 0.9453
6.3306 11.8278 1.1356 0.9476
5.3014 11.8889 1.1020 0.9491
4.8035 11.9066 1.0869 0.9498
4.3166 11.9189 1.0731 0.9504
3.3931 12.0038 1.0560 0.9512
2.4691 11.9653 1.0342 0.9521
1.1496 11.9985 1.0204 0.9528
0.7158 12.0094 1.0184 0.9529
-0.1498 12.0311 1.0185 0.9528
-1.0201 12.0530 1.0240 0.9526
-3.5192 22.3146 1.9123 0.9133
-2.2561 11.5803 0.9987 0.9537
-11.8936 43.9309 3.8528 0.8330
-12.7253 41.0811 3.6407 0.8414
-10.4126 26.6586 2.4228 0.8915
-12.7809 26.8445 2.5169 0.8875
-13.0719 25.0876 2.3947 0.8927
-14.2738 25.1428 2.4475 0.8904
-12.5257 18.7756 1.9106 0.9134
-12.5594 17.4330 1.8188 0.9174
-12.1208 11.6717 1.4244 0.9347
-12.1203 10.8583 1.3775 0.9368
-12.1760 10.1426 1.3415 0.9384
-16.3098 10.8394 1.6578 0.9244
-16.7072 10.2564 1.6595 0.9243
-22.0151 12.4471 2.1409 0.9035
-24.0918 12.4992 2.2976 0.8968
-26.4998 12.5598 2.4825 0.8889
6.9077 11.8595 0.8511 0.9465
6.3306 11.8278 0.8319 0.9477
5.8192 11.8811 0.8204 0.9484
3.8412 11.9308 0.7772 0.9510
2.9339 12.0154 0.7670 0.9516
2.4691 11.9653 0.7576 0.9522
2.0251 11.9765 0.7532 0.9525
1.1496 11.9985 0.7474 0.9528
0.7158 12.0094 0.7460 0.9529
0.2808 11.9243 0.7396 0.9533
-0.5838 12.0420 0.7476 0.9528
-3.5192 22.3146 1.4008 0.9134
-2.6668 11.4721 0.7304 0.9539
-10.4126 26.6586 1.7748 0.8916
-12.2841 28.3904 1.9182 0.8834
-12.7809 26.8445 1.8437 0.8877
-13.0424 25.0309 1.7502 0.8930
-14.2506 25.1018 1.7899 0.8908
-12.5073 17.3606 1.3268 0.9178
-11.5335 11.9352 1.0292 0.9356
-11.5408 11.1131 0.9935 0.9378
-11.5040 10.3062 0.9578 0.9400
-14.7225 12.2638 1.1882 0.9261
-15.8527 12.2665 1.2430 0.9228
-18.5090 12.3009 1.3781 0.9148
-23.7302 12.3116 1.6578 0.8984
-33.3514 8.9665 2.1416 0.8707
6.3306 11.8278 0.5290 0.9477
5.8192 11.8811 0.5217 0.9484
5.3014 11.8889 0.5133 0.9492
4.8035 11.9066 0.5063 0.9499
4.3166 11.9189 0.4998 0.9505
3.8412 11.9308 0.4942 0.9511
3.3931 12.0038 0.4919 0.9513
2.9339 12.0154 0.4877 0.9517
2.4691 11.9653 0.4817 0.9523
2.0251 11.9765 0.4789 0.9525
1.1496 11.9985 0.4753 0.9529
0.2808 11.9243 0.4703 0.9534
-0.1498 12.0311 0.4744 0.9530
-0.5838 12.0420 0.4754 0.9529
-3.5041 22.2187 0.8869 0.9139
-11.2156 48.2477 1.9532 0.8201
-10.4126 26.6586 1.1286 0.8918
-11.9053 25.0054 1.0920 0.8951
-13.0424 25.0309 1.1129 0.8932
-12.5901 16.2120 0.8094 0.9211
-12.6182 15.0940 0.7757 0.9243
-10.9646 12.1957 0.6467 0.9365
-10.9544 10.5485 0.5997 0.9409
-15.8527 12.2665 0.7904 0.9229
-22.0151 12.4471 0.9972 0.9037
-22.5012 10.6646 0.9819 0.9051
-29.3333 12.6310 1.2593 0.8800
-32.6533 12.6880 1.3813 0.8692
-32.7103 11.3733 1.3655 0.8705
-33.3514 8.9665 1.3619 0.8709
7.4887 11.8544 0.2369 0.9454
6.9133 11.8690 0.2320 0.9465
6.3306 11.8278 0.2266 0.9477
5.8192 11.8811 0.2235 0.9485
5.3014 11.8889 0.2199 0.9493
4.8035 11.9066 0.2169 0.9499
3.8412 11.9308 0.2117 0.9511
2.9339 12.0154 0.2089 0.9517
2.0251 11.9765 0.2052 0.9526
1.5857 11.9875 0.2043 0.9528
0.7158 12.0094 0.2032 0.9530
0.2808 11.9243 0.2015 0.9534
-0.5838 12.0420 0.2036 0.9529
-1.0201 12.0530 0.2043 0.9528
-2.6189 21.6412 0.3682 0.9165
-4.2130 21.6249 0.3722 0.9156
-5.0250 21.6167 0.3749 0.9150
-3.2441 11.9825 0.2097 0.9516
-3.2218 10.4011 0.1839 0.9574
-11.2305 21.5535 0.4105 0.9073
-12.2304 21.5433 0.4185 0.9056
-12.5257 18.7755 0.3813 0.9137
-12.6456 17.5526 0.3654 0.9171
-10.8355 10.4340 0.2541 0.9416
-14.7225 12.2638 0.3237 0.9262
-15.8527 12.2665 0.3386 0.9229
-20.2014 12.4015 0.4004 0.9095
-22.0151 12.4471 0.4272 0.9038
-29.3333 12.6310 0.5395 0.8801
7.4918 11.8593 -0.0790 0.9454
6.9161 11.8738 -0.0774 0.9465
6.3306 11.8278 -0.0755 0.9478
4.8035 11.9066 -0.0723 0.9499
3.8412 11.9308 -0.0706 0.9511
2.9339 12.0154 -0.0696 0.9517
2.4691 11.9653 -0.0688 0.9523
2.0251 11.9765 -0.0684 0.9526
-0.5838 12.0420 -0.0679 0.9529
-1.0201 12.0530 -0.0681 0.9528
-2.6189 21.6412 -0.1227 0.9165
-5.0250 21.6167 -0.1250 0.9151
-3.2441 11.9825 -0.0699 0.9516
-3.2218 10.4011 -0.0613 0.9574
-7.9701 20.4053 -0.1233 0.9161
-9.3342 21.5728 -0.1323 0.9103
-11.2305 21.5535 -0.1368 0.9074
-12.2304 21.5434 -0.1395 0.9057
-13.2710 21.5328 -0.1424 0.9038
-12.5257 18.7755 -0.1271 0.9137
-12.6182 15.0940 -0.1108 0.9243
-10.8241 12.0395 -0.0912 0.9373
-10.8355 10.4340 -0.0847 0.9416
-12.6116 10.5054 -0.0924 0.9365
-13.5588 10.4915 -0.0965 0.9337
-14.6415 10.5093 -0.1015 0.9304
-18.5997 12.3612 -0.1257 0.9145
-16.9526 10.4071 -0.1120 0.9235
-22.0151 12.4471 -0.1424 0.9038
-20.5429 10.6580 -0.1303 0.9116
-29.3333 12.6310 -0.1798 0.8801
-31.4033 10.9188 -0.1872 0.8755
-33.3514 8.9665 -0.1944 0.8710
-39.1760 -17.5517 -0.2417 0.8422
-35.6543 -17.5407 -0.2237 0.8530
-32.6260 -17.5364 -0.2085 0.8623
6.3822 10.1028 -0.3365 0.9533
6.3306 11.8278 -0.3778 0.9477
4.8035 11.9066 -0.3615 0.9499
4.3166 11.9189 -0.3569 0.9505
3.2872 10.2100 -0.3020 0.9580
2.4691 11.9653 -0.3440 0.9523
2.0251 11.9765 -0.3420 0.9526
1.1496 11.9985 -0.3394 0.9529
0.7158 12.0094 -0.3388 0.9530
-1.0201 12.0530 -0.3406 0.9527
-3.2441 11.9825 -0.3495 0.9515
-6.8811 19.6790 -0.5870 0.9200
-10.2666 21.5634 -0.6725 0.9089
-11.2305 21.5536 -0.6843 0.9073
-13.2710 21.5328 -0.7122 0.9037
-12.5901 16.2120 -0.5780 0.9211
-12.6681 13.1094 -0.5133 0.9296
-10.8355 10.4340 -0.4236 0.9416
-13.6593 12.2371 -0.5164 0.9292
-13.5588 10.4916 -0.4827 0.9337
-14.6415 10.5093 -0.5075 0.9304
-18.5998 12.3612 -0.6288 0.9145
-16.9502 10.4056 -0.5600 0.9235
-20.5429 10.6580 -0.6517 0.9115
-22.5012 10.6646 -0.7012 0.9052
-27.8030 10.8033 -0.8399 0.8875
-31.2298 10.8585 -0.9310 0.8761
-39.1751 -17.5513 -1.2087 0.8422
-35.6566 -17.5419 -1.1189 0.8530
-32.6250 -17.5358 -1.0429 0.8622
6.9102 11.8637 -0.6963 0.9465
6.3306 11.8278 -0.6803 0.9477
4.9706 10.1485 -0.5731 0.9557
4.8035 11.9066 -0.6511 0.9499
3.2872 10.2100 -0.5440 0.9580
1.5857 11.9875 -0.6132 0.9527
1.1496 11.9985 -0.6113 0.9529
0.7158 12.0094 -0.6101 0.9530
-0.1278 10.2664 -0.5207 0.9597
-0.5838 12.0420 -0.6114 0.9529
-1.8858 11.9574 -0.6139 0.9527
-3.2441 11.9825 -0.6296 0.9515
-3.2218 10.4011 -0.5522 0.9573
-6.6288 18.9575 -1.0185 0.9227
-7.4064 18.9620 -1.0324 0.9217
-8.2066 18.9666 -1.0481 0.9206
-12.5594 17.4330 -1.0896 0.9175
-12.5901 16.2120 -1.0410 0.9211
-12.6182 15.0940 -0.9977 0.9242
-10.8241 12.0395 -0.8211 0.9372
-10.8355 10.4340 -0.7629 0.9415
-13.4883 11.2357 -0.8903 0.9321
-14.5438 10.4392 -0.9079 0.9308
-15.7534 10.4696 -0.9593 0.9270
-16.9479 10.4042 -1.0085 0.9234
-24.8444 10.6980 -1.3718 0.8973
-48.4364 9.3481 -2.5017 0.8207
-48.9833 5.8403 -2.5017 0.8207
-49.1617 4.0738 -2.5017 0.8207
-49.3274 0.5275 -2.5017 0.8207
-49.2376 -3.0216 -2.5017 0.8207
-49.0970 -4.7914 -2.5017 0.8207
-47.4465 -13.5019 -2.5017 0.8207
-46.9048 -15.1923 -2.5004 0.8208
-43.5289 -15.8511 -2.3493 0.8307
-39.1743 -17.5510 -2.1770 0.8420
-35.6589 -17.5430 -2.0154 0.8529
-32.6240 -17.5353 -1.8784 0.8621
6.9049 11.8546 -1.0059 0.9465
6.3306 11.8278 -0.9836 0.9476
4.5258 10.1494 -0.8148 0.9564
3.3758 11.9425 -0.9100 0.9514
2.9189 11.9540 -0.9022 0.9518
2.4691 11.9653 -0.8958 0.9522
2.0251 11.9765 -0.8906 0.9525
1.1496 11.9985 -0.8838 0.9528
0.7158 12.0094 -0.8821 0.9529
-0.5838 12.0420 -0.8840 0.9528
-1.0201 12.0530 -0.8869 0.9526
-3.4117 21.6332 -1.6058 0.9159
-2.0051 10.2920 -0.7688 0.9588
-3.2441 11.9825 -0.9102 0.9514
-3.2218 10.4011 -0.7984 0.9573
-7.1936 18.4172 -1.4497 0.9238
-7.8942 18.2448 -1.4576 0.9234
-11.2305 21.5537 -1.7820 0.9071
-13.2711 21.5329 -1.8546 0.9035
-12.5257 18.7756 -1.6549 0.9135
-10.8241 12.0395 -1.1871 0.9371
-10.8355 10.4340 -1.1029 0.9415
-11.6085 10.3998 -1.1428 0.9394
-12.4733 10.3902 -1.1903 0.9370
-13.4558 10.4119 -1.2475 0.9340
-14.5438 10.4392 -1.3126 0.9307
-15.7534 10.4696 -1.3869 0.9269
-18.6461 10.5423 -1.5706 0.9177
-22.4445 10.6377 -1.8212 0.9052
-30.6233 9.4269 -2.3493 0.8794
-33.2473 7.6671 -2.5017 0.8721
-33.5017 6.4657 -2.5017 0.8721
-33.8800 4.0395 -2.5017 0.8721
-34.1090 -0.8631 -2.5017 0.8721
-34.0559 -2.0899 -2.5017 0.8721
-33.9586 -3.3141 -2.5017 0.8721
-33.8174 -4.5338 -2.5017 0.8721
-33.6323 -5.7479 -2.5017 0.8721
-32.8170 -9.3387 -2.5017 0.8721
-32.4597 -10.5136 -2.5017 0.8721
-32.0604 -11.6748 -2.5017 0.8721
-31.6195 -12.8210 -2.5017 0.8721
-30.6155 -15.0618 -2.5017 0.8721
6.3474 10.0477 -1.1410 0.9534
5.8596 10.0600 -1.1177 0.9543
4.0766 10.1048 -1.0461 0.9572
3.2702 10.1572 -1.0244 0.9580
2.5317 10.3682 -1.0246 0.9580
2.1018 10.1854 -0.9985 0.9591
1.3498 10.2043 -0.9882 0.9595
0.9786 10.2136 -0.9850 0.9596
0.6093 10.2229 -0.9832 0.9597
-0.1275 10.2414 -0.9833 0.9597
-0.4970 10.2507 -0.9853 0.9596
-0.8684 10.2600 -0.9885 0.9595
-3.4117 21.6332 -2.1026 0.9158
-2.3947 10.3018 -1.0154 0.9584
-3.2218 10.4011 -1.0453 0.9572
-6.2084 17.7551 -1.8058 0.9272
-10.8424 20.8088 -2.2527 0.9100
-11.5819 20.4011 -2.2522 0.9100
-12.3068 19.9683 -2.2519 0.9100
-12.5257 18.7756 -2.1669 0.9133
-12.5594 17.4330 -2.0628 0.9173
-12.5901 16.2120 -1.9707 0.9208
-11.7247 12.1331 -1.6198 0.9344
-12.4729 10.3899 -1.5585 0.9369
-14.5438 10.4392 -1.7187 0.9306
-15.7534 10.4696 -1.8159 0.9268
-18.6461 10.5423 -2.0564 0.9175
-20.4050 10.5865 -2.2069 0.9118
-25.1649 6.7655 -2.5017 0.9006
-25.3921 5.8555 -2.5017 0.9006
-25.5863 4.9381 -2.5017 0.9006
-25.7475 4.0142 -2.5017 0.9006
-25.8752 3.0851 -2.5017 0.9006
-25.9695 2.1520 -2.5017 0.9006
-25.8274 -3.4627 -2.5017 0.9006
-25.3039 -6.2258 -2.5017 0.9006
-25.0634 -7.1323 -2.5017 0.9006
-24.7906 -8.0296 -2.5017 0.9006
-24.4856 -8.9164 -2.5017 0.9006
-24.1489 -9.7918 -2.5017 0.9006
-23.3821 -11.5032 -2.5017 0.9006
6.3474 10.0477 -1.4117 0.9533
5.3907 10.0718 -1.3570 0.9550
3.6633 10.1152 -1.2779 0.9576
3.2599 10.1253 -1.2635 0.9581
2.8649 10.1353 -1.2511 0.9585
2.4772 10.1450 -1.2405 0.9588
1.7187 10.1640 -1.2245 0.9593
1.3457 10.1734 -1.2190 0.9595
0.6075 10.1920 -1.2128 0.9597
-0.1271 10.2104 -1.2130 0.9597
-0.4955 10.2197 -1.2154 0.9596
-0.8657 10.2290 -1.2194 0.9595
-1.2390 10.2384 -1.2250 0.9593
-2.7849 11.9800 -1.4610 0.9517
-3.2218 10.4011 -1.2934 0.9571
-6.0402 17.2741 -2.1737 0.9289
-6.7487 17.2782 -2.2034 0.9280
-7.4778 17.2824 -2.2368 0.9270
-8.2288 17.2833 -2.2738 0.9258
-8.8435 16.9724 -2.2733 0.9258
-9.4469 16.6404 -2.2730 0.9258
-10.6174 15.9152 -2.2726 0.9258
-14.5438 10.4392 -2.1266 0.9304
-16.5843 10.1810 -2.3116 0.9246
-17.5559 9.1083 -2.3493 0.9234
-19.0413 8.1991 -2.4626 0.9199
-19.8928 6.9166 -2.5017 0.9187
-20.1288 6.1963 -2.5017 0.9187
-20.5223 4.7326 -2.5017 0.9187
-20.8096 3.2443 -2.5017 0.9187
-20.9890 1.7392 -2.5017 0.9187
-21.0598 0.2252 -2.5017 0.9187
-21.0542 -0.5328 -2.5017 0.9187
-21.0214 -1.2901 -2.5017 0.9187
-20.9614 -2.0457 -2.5017 0.9187
-20.7600 -3.5479 -2.5017 0.9187
-20.6189 -4.2927 -2.5017 0.9187
-20.4510 -5.0318 -2.5017 0.9187
-20.2567 -5.7645 -2.5017 0.9187
-20.0362 -6.4897 -2.5017 0.9187
-18.5510 -9.9711 -2.5017 0.9187
6.3474 10.0477 -1.6839 0.9531
5.8596 10.0600 -1.6496 0.9541
5.3907 10.0718 -1.6186 0.9549
4.9386 10.0831 -1.5908 0.9557
4.5011 10.0941 -1.5660 0.9563
4.0766 10.1048 -1.5439 0.9569
2.4772 10.1450 -1.4797 0.9587
1.7187 10.1640 -1.4606 0.9592
0.6075 10.1920 -1.4467 0.9596
-0.1271 10.2104 -1.4468 0.9596
-0.4955 10.2197 -1.4497 0.9595
-1.2390 10.2384 -1.4613 0.9592
-1.6166 10.2507 -1.4704 0.9589
-2.3437 12.0301 -1.7366 0.9517
-3.6635 15.7597 -2.2925 0.9367
-3.1973 10.3220 -1.5311 0.9573
-5.8780 15.0490 -2.2892 0.9368
-6.9418 14.5802 -2.2881 0.9368
-7.4606 14.3184 -2.2876 0.9369
-8.4691 13.7415 -2.2871 0.9369
-8.9576 13.4272 -2.2870 0.9369
-9.4349 13.0960 -2.2870 0.9369
-9.9004 12.7485 -2.2870 0.9369
-10.7937 12.0057 -2.2875 0.9369
-13.1136 10.1470 -2.3493 0.9352
-14.5337 8.2171 -2.3656 0.9348
-15.6728 8.1313 -2.5017 0.9312
-15.9552 7.5620 -2.5017 0.9312
-16.6772 5.7986 -2.5017 0.9312
-16.8751 5.1947 -2.5017 0.9312
-17.0511 4.5841 -2.5017 0.9312
-17.5324 2.0903 -2.5017 0.9312
-17.6373 0.8240 -2.5017 0.9312
-17.6555 0.1888 -2.5017 0.9312
-17.6234 -1.0815 -2.5017 0.9312
-17.5731 -1.7150 -2.5017 0.9312
-17.4042 -2.9744 -2.5017 0.9312
-17.1452 -4.2185 -2.5017 0.9312
-16.9823 -4.8327 -2.5017 0.9312
-16.7974 -5.4407 -2.5017 0.9312
-16.5908 -6.0416 -2.5017 0.9312
-16.0656 -7.1978 -2.4943 0.9313
-15.8431 -7.7943 -2.5017 0.9312
6.3474 10.0477 -1.9579 0.9530
5.8596 10.0600 -1.9179 0.9539
4.9386 10.0831 -1.8496 0.9555
4.5011 10.0941 -1.8207 0.9562
3.6633 10.1152 -1.7723 0.9573
3.0845 9.5804 -1.6581 0.9600
1.3457 10.1734 -1.6906 0.9593
0.9757 10.1827 -1.6852 0.9594
0.6075 10.1920 -1.6820 0.9595
0.2402 10.2012 -1.6810 0.9595
-0.8657 10.2290 -1.6911 0.9592
-1.6166 10.2504 -1.7095 0.9588
-3.1644 13.6129 -2.3024 0.9449
-3.2218 10.4011 -1.7938 0.9568
-4.6084 13.1794 -2.3001 0.9450
-5.0783 13.0016 -2.2995 0.9450
-5.5416 12.8075 -2.2989 0.9450
-6.8864 12.1301 -2.2979 0.9450
-7.3178 11.8734 -2.2977 0.9450
-8.1524 11.3158 -2.2976 0.9450
-8.5545 11.0154 -2.2976 0.9450
-8.9459 10.7012 -2.2978 0.9450
-9.8480 10.1911 -2.3347 0.9442
-10.2726 9.8919 -2.3493 0.9438
-10.6219 9.5159 -2.3493 0.9438
-10.9575 9.1275 -2.3493 0.9438
-11.5855 8.3158 -2.3493 0.9438
-12.3430 8.2030 -2.4415 0.9417
-12.9420 7.9449 -2.5017 0.9403
-13.2195 7.4741 -2.5017 0.9403
-13.7228 6.5040 -2.5017 0.9403
-13.9479 6.0060 -2.5017 0.9403
-14.1550 5.5002 -2.5017 0.9403
-14.3438 4.9873 -2.5017 0.9403
-14.6653 3.9427 -2.5017 0.9403
-14.7977 3.4124 -2.5017 0.9403
-14.9109 2.8778 -2.5017 0.9403
-15.0793 1.7979 -2.5017 0.9403
-15.1342 1.2541 -2.5017 0.9403
-15.1695 0.7087 -2.5017 0.9403
-15.1852 0.1624 -2.5017 0.9403
-15.1143 -1.4750 -2.5017 0.9403
-15.0514 -2.0179 -2.5017 0.9403
-14.6062 -4.1565 -2.5017 0.9403
-14.4472 -4.6794 -2.5017 0.9403
-13.8588 -6.2091 -2.5017 0.9403
-13.6264 -6.7038 -2.5017 0.9403
-13.3763 -7.1897 -2.5017 0.9403
5.3907 10.0718 -2.1472 0.9546
4.9386 10.0831 -2.1103 0.9553
3.6633 10.1152 -2.0221 0.9572
2.7075 9.5781 -1.8709 0.9603
2.0955 10.1546 -1.9489 0.9587
1.7187 10.1640 -1.9376 0.9589
1.3457 10.1734 -1.9289 0.9591
0.6075 10.1920 -1.9191 0.9593
-0.1271 10.2104 -1.9193 0.9593
-0.4955 10.2197 -1.9232 0.9592
-1.2390 10.2384 -1.9385 0.9589
-1.6166 10.2504 -1.9505 0.9586
-4.4662 11.4343 -2.3073 0.9513
-4.8737 11.2640 -2.3069 0.9513
-5.6695 10.8810 -2.3062 0.9513
-6.0568 10.6688 -2.3059 0.9513
-6.8076 10.2044 -2.3057 0.9513
-8.0167 9.5896 -2.3493 0.9504
-8.3566 9.2949 -2.3493 0.9504
-8.6857 8.9882 -2.3493 0.9504
-9.3096 8.3402 -2.3493 0.9504
-9.8547 8.2087 -2.4107 0.9491
-11.3430 6.9634 -2.5017 0.9473
-11.8145 6.1296 -2.5017 0.9473
-12.4063 4.8207 -2.5017 0.9473
-12.5717 4.3711 -2.5017 0.9473
-12.7208 3.9159 -2.5017 0.9473
-12.9695 2.9908 -2.5017 0.9473
-13.1511 2.0503 -2.5017 0.9473
-13.2163 1.5757 -2.5017 0.9473
-13.2470 -1.2928 -2.5017 0.9473
-13.1197 -2.2422 -2.5017 0.9473
-12.9245 -3.1800 -2.5017 0.9473
-12.8017 -3.6430 -2.5017 0.9473
-12.6623 -4.1013 -2.5017 0.9473
-12.5065 -4.5543 -2.5017 0.9473
-11.7237 -6.3015 -2.5017 0.9473
4.8888 9.9814 -2.3493 0.9556
4.5011 10.0941 -2.3362 0.9558
4.0766 10.1048 -2.3032 0.9564
3.0647 9.5189 -2.1138 0.9599
2.6966 9.5397 -2.0955 0.9603
1.3457 10.1734 -2.1692 0.9589
0.9757 10.1827 -2.1623 0.9590
0.6075 10.1920 -2.1582 0.9591
-0.4955 10.2197 -2.1628 0.9590
-0.8657 10.2290 -2.1699 0.9589
-1.6166 10.2504 -2.1935 0.9585
-1.9990 10.2605 -2.2096 0.9582
-2.7836 10.2817 -2.2516 0.9574
-3.9821 10.1950 -2.3136 0.9562
-4.4130 10.1992 -2.3491 0.9556
-4.7778 10.0350 -2.3493 0.9556
-5.1358 9.8565 -2.3493 0.9556
-5.4871 9.6654 -2.3493 0.9556
-8.5081 8.1928 -2.4967 0.9529
-8.8152 7.8973 -2.5017 0.9528
-9.3603 7.2428 -2.5017 0.9528
-10.0863 6.1919 -2.5017 0.9528
-10.3026 5.8250 -2.5017 0.9528
-10.5055 5.4504 -2.5017 0.9528
-10.8703 4.6807 -2.5017 0.9528
-11.0317 4.2866 -2.5017 0.9528
-11.1789 3.8868 -2.5017 0.9528
-11.4295 3.0728 -2.5017 0.9528
-11.6208 2.2428 -2.5017 0.9528
-11.6940 1.8232 -2.5017 0.9528
-11.8224 0.5523 -2.5017 0.9528
-11.8346 0.1265 -2.5017 0.9528
-11.8131 -0.7250 -2.5017 0.9528
-11.7793 -1.1496 -2.5017 0.9528
-11.7303 -1.5727 -2.5017 0.9528
-11.5869 -2.4123 -2.5017 0.9528
-11.4926 -2.8277 -2.5017 0.9528
-11.3834 -3.2394 -2.5017 0.9528
5.0312 8.6378 -2.3493 0.9598
4.7171 8.8132 -2.3493 0.9598
4.0711 9.1296 -2.3493 0.9598
3.7399 9.2702 -2.3493 0.9598
3.4039 9.3988 -2.3493 0.9598
2.3712 9.7109 -2.3493 0.9598
1.3109 9.9099 -2.3493 0.9598
0.9534 9.9506 -2.3493 0.9598
0.5948 9.9785 -2.3493 0.9598
0.2353 9.9935 -2.3493 0.9598
-1.2009 9.9238 -2.3493 0.9598
-1.5572 9.8742 -2.3493 0.9598
-1.9115 9.8118 -2.3493 0.9598
-2.2634 9.7366 -2.3493 0.9598
-2.9578 9.5486 -2.3493 0.9598
-3.2995 9.4360 -2.3493 0.9598
-3.6369 9.3111 -2.3493 0.9598
-3.9696 9.1742 -2.3493 0.9598
-4.2972 9.0254 -2.3493 0.9598
-4.6191 8.8650 -2.3493 0.9598
-4.9351 8.6930 -2.3493 0.9598
-5.5476 8.3156 -2.3493 0.9598
-5.9182 8.2145 -2.3795 0.9593
-6.3705 8.2032 -2.4410 0.9582
-7.1168 7.9158 -2.5017 0.9572
-7.3970 7.6546 -2.5017 0.9572
-8.1788 6.8129 -2.5017 0.9572
-8.4187 6.5142 -2.5017 0.9572
-8.6476 6.2070 -2.5017 0.9572
-9.0716 5.5690 -2.5017 0.9572
-9.2662 5.2389 -2.5017 0.9572
-9.4487 4.9021 -2.5017 0.9572
-9.7768 4.2099 -2.5017 0.9572
-9.9220 3.8553 -2.5017 0.9572
-10.1736 3.1318 -2.5017 0.9572
-10.2797 2.7636 -2.5017 0.9572
-10.6331 0.4967 -2.5017 0.9572
-10.6441 0.1138 -2.5017 0.9572
-10.6247 -0.6521 -2.5017 0.9572
-10.5944 -1.0339 -2.5017 0.9572
-10.2382 -2.9135 -2.5017 0.9572
-9.7143 -4.3523 -2.5017 0.9572
-9.5514 -4.6990 -2.5017 0.9572
-9.3761 -5.0397 -2.5017 0.9572
5.1605 8.1688 -2.5017 0.9609
4.0243 8.2165 -2.3689 0.9629
3.6954 8.2871 -2.3493 0.9632
3.3948 8.4147 -2.3493 0.9632
2.7808 8.6371 -2.3493 0.9632
1.8338 8.8864 -2.3493 0.9632
1.5128 8.9467 -2.3493 0.9632
1.1899 8.9953 -2.3493 0.9632
0.5399 9.0576 -2.3493 0.9632
-0.1130 9.0729 -2.3493 0.9632
-0.4394 9.0630 -2.3493 0.9632
-1.0901 9.0079 -2.3493 0.9632
-1.4135 8.9629 -2.3493 0.9632
-2.6848 8.6674 -2.3493 0.9632
-2.9950 8.5651 -2.3493 0.9632
-3.6032 8.3276 -2.3493 0.9632
-5.0499 8.1936 -2.4921 0.9610
-5.3622 8.0378 -2.5017 0.9609
-5.9265 7.6313 -2.5017 0.9609
-6.1972 7.4131 -2.5017 0.9609
-6.4600 7.1853 -2.5017 0.9609
-6.7143 6.9482 -2.5017 0.9609
-7.1967 6.4473 -2.5017 0.9609
-7.4240 6.1842 -2.5017 0.9609
-7.6417 5.9130 -2.5017 0.9609
-7.8496 5.6342 -2.5017 0.9609
-8.0472 5.3481 -2.5017 0.9609
-8.2345 5.0550 -2.5017 0.9609
-8.4110 4.7554 -2.5017 0.9609
-8.5767 4.4497 -2.5017 0.9609
-8.8745 3.8213 -2.5017 0.9609
-9.2347 2.8427 -2.5017 0.9609
-9.3310 2.5086 -2.5017 0.9609
-9.4152 2.1712 -2.5017 0.9609
-9.4872 1.8310 -2.5017 0.9609
-9.6518 0.4509 -2.5017 0.9609
-9.6617 0.1033 -2.5017 0.9609
-9.6592 -0.2445 -2.5017 0.9609
-9.6442 -0.5919 -2.5017 0.9609
-9.5766 -1.2840 -2.5017 0.9609
-9.2933 -2.6446 -2.5017 0.9609
-9.1922 -2.9774 -2.5017 0.9609
-8.9542 -3.6307 -2.5017 0.9609
-8.8178 -3.9506 -2.5017 0.9609
-8.5108 -4.5746 -2.5017 0.9609
4.7198 7.4712 -2.5017 0.9639
4.4479 7.6362 -2.5017 0.9639
4.1702 7.7913 -2.5017 0.9639
3.5990 8.0711 -2.5017 0.9639
3.3049 8.1921 -2.5007 0.9639
2.9690 8.1980 -2.4683 0.9644
2.3202 8.2080 -2.4147 0.9652
1.6952 8.2154 -2.3747 0.9657
1.0888 8.2313 -2.3505 0.9661
0.7915 8.2610 -2.3493 0.9661
0.1953 8.2965 -2.3493 0.9661
-0.1033 8.2982 -2.3493 0.9661
-0.4019 8.2891 -2.3493 0.9661
-1.9093 8.2131 -2.3871 0.9656
-2.2225 8.2093 -2.4077 0.9653
-3.5093 8.1105 -2.5017 0.9639
-3.7989 7.9790 -2.5017 0.9639
-4.0835 7.8371 -2.5017 0.9639
-4.3629 7.6851 -2.5017 0.9639
-4.6366 7.5231 -2.5017 0.9639
-5.1657 7.1702 -2.5017 0.9639
-5.6680 6.7800 -2.5017 0.9639
-5.9083 6.5717 -2.5017 0.9639
-6.1410 6.3548 -2.5017 0.9639
-6.9892 5.4080 -2.5017 0.9639
-7.6928 4.3493 -2.5017 0.9639
-7.8443 4.0697 -2.5017 0.9639
-8.1167 3.4950 -2.5017 0.9639
-8.3470 2.9022 -2.5017 0.9639
-8.4461 2.5999 -2.5017 0.9639
-8.5341 2.2943 -2.5017 0.9639
-8.6771 1.6746 -2.5017 0.9639
-8.7317 1.3613 -2.5017 0.9639
-8.8070 0.7297 -2.5017 0.9639
-8.8367 0.0945 -2.5017 0.9639
-8.8343 -0.2236 -2.5017 0.9639
-8.7588 -1.1743 -2.5017 0.9639
-8.7109 -1.4887 -2.5017 0.9639
-8.6516 -1.8013 -2.5017 0.9639
-8.4072 -2.7231 -2.5017 0.9639
-8.3038 -3.0238 -2.5017 0.9639
-8.1896 -3.3207 -2.5017 0.9639
-7.9295 -3.9011 -2.5017 0.9639
4.3441 6.8764 -2.5017 0.9665
3.0431 7.5429 -2.5017 0.9665
2.2125 7.8270 -2.5017 0.9665
1.9294 7.9015 -2.5017 0.9665
1.6438 7.9658 -2.5017 0.9665
1.0666 8.0634 -2.5017 0.9665
0.1915 8.1314 -2.5017 0.9665
-0.1013 8.1330 -2.5017 0.9665
-0.3939 8.1241 -2.5017 0.9665
-0.9771 8.0747 -2.5017 0.9665
-1.2671 8.0343 -2.5017 0.9665
-1.8416 7.9224 -2.5017 0.9665
-2.4067 7.7695 -2.5017 0.9665
-2.6847 7.6778 -2.5017 0.9665
-2.9592 7.5762 -2.5017 0.9665
-3.2299 7.4648 -2.5017 0.9665
-3.4965 7.3438 -2.5017 0.9665
-3.7585 7.2132 -2.5017 0.9665
-4.2675 6.9242 -2.5017 0.9665
-4.5139 6.7662 -2.5017 0.9665
-5.6521 5.8489 -2.5017 0.9665
-6.0581 5.4273 -2.5017 0.9665
-6.4328 4.9775 -2.5017 0.9665
-6.7741 4.5020 -2.5017 0.9665
-7.2198 3.7458 -2.5017 0.9665
-7.3499 3.4835 -2.5017 0.9665
-7.5814 2.9459 -2.5017 0.9665
-7.7737 2.3930 -2.5017 0.9665
-7.8548 2.1117 -2.5017 0.9665
-8.1059 0.6717 -2.5017 0.9665
-8.1311 -0.2058 -2.5017 0.9665
-8.1184 -0.4982 -2.5017 0.9665
-8.0952 -0.7900 -2.5017 0.9665
-7.9629 -1.6578 -2.5017 0.9665
-7.8981 -1.9433 -2.5017 0.9665
-7.8231 -2.2262 -2.5017 0.9665
-7.7379 -2.5063 -2.5017 0.9665
-7.5376 -3.0564 -2.5017 0.9665
-7.4227 -3.3256 -2.5017 0.9665
-7.2983 -3.5905 -2.5017 0.9665
-7.1644 -3.8508 -2.5017 0.9665
3.5515 6.6355 -2.5017 0.9688
3.3105 6.7590 -2.5017 0.9688
2.8158 6.9796 -2.5017 0.9688
2.5628 7.0764 -2.5017 0.9688
2.3065 7.1640 -2.5017 0.9688
2.0472 7.2424 -2.5017 0.9688
1.5210 7.3708 -2.5017 0.9688
1.2548 7.4208 -2.5017 0.9688
0.4478 7.5128 -2.5017 0.9688
0.1772 7.5240 -2.5017 0.9688
-0.9042 7.4716 -2.5017 0.9688
-1.4392 7.3873 -2.5017 0.9688
-1.7041 7.3307 -2.5017 0.9688
-1.9668 7.2646 -2.5017 0.9688
-2.2269 7.1892 -2.5017 0.9688
-2.9887 6.9073 -2.5017 0.9688
-3.7156 6.5450 -2.5017 0.9688
-3.9488 6.4071 -2.5017 0.9688
-4.1768 6.2608 -2.5017 0.9688
-4.3993 6.1064 -2.5017 0.9688
-5.0318 5.5968 -2.5017 0.9688
-5.6056 5.0220 -2.5017 0.9688
-5.7827 4.8169 -2.5017 0.9688
-6.1142 4.3886 -2.5017 0.9688
-6.2682 4.1657 -2.5017 0.9688
-6.6806 3.4659 -2.5017 0.9688
-6.9126 2.9765 -2.5017 0.9688
-7.0152 2.7258 -2.5017 0.9688
-7.1087 2.4716 -2.5017 0.9688
-7.4363 1.1593 -2.5017 0.9688
-7.5005 0.6215 -2.5017 0.9688
-7.5121 -0.4611 -2.5017 0.9688
-7.3682 -1.5340 -2.5017 0.9688
-6.6292 -3.5633 -2.5017 0.9688
3.7363 5.9145 -2.5017 0.9707
3.0772 6.2827 -2.5017 0.9707
2.6173 6.4877 -2.5017 0.9707
2.1440 6.6591 -2.5017 0.9707
1.1664 6.8979 -2.5017 0.9707
-0.0871 6.9952 -2.5017 0.9707
-1.0898 6.9104 -2.5017 0.9707
-1.3378 6.8666 -2.5017 0.9707
-2.5452 6.5163 -2.5017 0.9707
-2.7781 6.4205 -2.5017 0.9707
-3.2326 6.2041 -2.5017 0.9707
-3.6705 5.9555 -2.5017 0.9707
-3.8824 5.8196 -2.5017 0.9707
-4.0893 5.6761 -2.5017 0.9707
-4.2909 5.5253 -2.5017 0.9707
-5.0392 4.8525 -2.5017 0.9707
-5.2106 4.6680 -2.5017 0.9707
-5.3752 4.4775 -2.5017 0.9707
-5.9620 3.6600 -2.5017 0.9707
-6.2098 3.2217 -2.5017 0.9707
-6.3217 2.9962 -2.5017 0.9707
-6.4254 2.7667 -2.5017 0.9707
-6.6078 2.2975 -2.5017 0.9707
-6.6862 2.0582 -2.5017 0.9707
-6.7559 1.8163 -2.5017 0.9707
-6.8169 1.5720 -2.5017 0.9707
-6.8690 1.3257 -2.5017 0.9707
-6.9882 0.3264 -2.5017 0.9707
-6.9954 0.0748 -2.5017 0.9707
-6.9827 -0.4286 -2.5017 0.9707
-6.9627 -0.6796 -2.5017 0.9707
-6.8958 -1.1785 -2.5017 0.9707
-6.8489 -1.4259 -2.5017 0.9707
-6.7932 -1.6715 -2.5017 0.9707
-6.7286 -1.9148 -2.5017 0.9707
-6.6554 -2.1557 -2.5017 0.9707
-6.4831 -2.6288 -2.5017 0.9707
-6.1621 -3.3121 -2.5017 0.9707
3.2858 5.6411 -2.5017 0.9724
3.0807 5.7556 -2.5017 0.9724
2.4424 6.0541 -2.5017 0.9724
2.2230 6.1381 -2.5017 0.9724
2.0007 6.2141 -2.5017 0.9724
1.7758 6.2821 -2.5017 0.9724
1.3194 6.3935 -2.5017 0.9724
0.8561 6.4719 -2.5017 0.9724
-0.3161 6.5205 -2.5017 0.9724
-0.5506 6.5050 -2.5017 0.9724
-1.0170 6.4485 -2.5017 0.9724
-1.2483 6.4078 -2.5017 0.9724
-1.4781 6.3587 -2.5017 0.9724
-1.9316 6.2359 -2.5017 0.9724
-2.5924 5.9914 -2.5017 0.9724
-2.8063 5.8942 -2.5017 0.9724
-3.8160 5.2968 -2.5017 0.9724
-4.0041 5.1560 -2.5017 0.9724
-4.3646 4.8546 -2.5017 0.9724
-4.5365 4.6945 -2.5017 0.9724
-5.0160 4.1783 -2.5017 0.9724
-5.1631 3.9951 -2.5017 0.9724
-5.6828 3.2129 -2.5017 0.9724
-5.8992 2.7960 -2.5017 0.9724
-5.9960 2.5818 -2.5017 0.9724
-6.0850 2.3644 -2.5017 0.9724
-6.4100 1.2371 -2.5017 0.9724
-6.4823 0.7729 -2.5017 0.9724
-6.5211 0.3046 -2.5017 0.9724
-6.5262 -0.1652 -2.5017 0.9724
-6.5160 -0.3999 -2.5017 0.9724
-6.4974 -0.6341 -2.5017 0.9724
-6.4350 -1.0998 -2.5017 0.9724
-6.2790 -1.7869 -2.5017 0.9724
-6.2106 -2.0116 -2.5017 0.9724
-6.1342 -2.2338 -2.5017 0.9724
3.2646 5.1678 -2.5017 0.9739
2.6887 5.4895 -2.5017 0.9739
2.4894 5.5827 -2.5017 0.9739
2.0815 5.7473 -2.5017 0.9739
1.8733 5.8185 -2.5017 0.9739
0.5830 6.0847 -2.5017 0.9739
0.3637 6.1018 -2.5017 0.9739
-0.0761 6.1121 -2.5017 0.9739
-0.5155 6.0908 -2.5017 0.9739
-1.1688 5.9998 -2.5017 0.9739
-2.2239 5.6937 -2.5017 0.9739
-3.2071 5.2037 -2.5017 0.9739
-3.5731 4.9595 -2.5017 0.9739
-3.7492 4.8278 -2.5017 0.9739
-3.9205 4.6897 -2.5017 0.9739
-4.0867 4.5456 -2.5017 0.9739
-4.4031 4.2399 -2.5017 0.9739
-5.2093 3.1979 -2.5017 0.9739
-5.4258 2.8150 -2.5017 0.9739
-5.6143 2.4175 -2.5017 0.9739
-5.9030 1.5870 -2.5017 0.9739
-6.0397 0.9416 -2.5017 0.9739
-6.0696 0.7236 -2.5017 0.9739
-6.0917 0.5048 -2.5017 0.9739
-6.0253 -1.0297 -2.5017 0.9739
-5.9843 -1.2459 -2.5017 0.9739
-5.8792 -1.6731 -2.5017 0.9739
-5.8152 -1.8836 -2.5017 0.9739
-5.5783 -2.4993 -2.5017 0.9739
-5.3842 -2.8940 -2.5017 0.9739
2.5250 5.1552 -2.5017 0.9753
2.3380 5.2427 -2.5017 0.9753
2.1477 5.3235 -2.5017 0.9753
1.9547 5.3973 -2.5017 0.9753
1.7592 5.4641 -2.5017 0.9753
1.5615 5.5239 -2.5017 0.9753
1.3617 5.5765 -2.5017 0.9753
0.7528 5.6907 -2.5017 0.9753
0.5475 5.7142 -2.5017 0.9753
0.1351 5.7387 -2.5017 0.9753
-0.4841 5.7198 -2.5017 0.9753
-0.8942 5.6703 -2.5017 0.9753
-1.2997 5.5913 -2.5017 0.9753
-1.8947 5.4186 -2.5017 0.9753
-2.4676 5.1829 -2.5017 0.9753
-3.8379 4.2687 -2.5017 0.9753
-3.9890 4.1279 -2.5017 0.9753
-4.4106 3.6740 -2.5017 0.9753
-4.5399 3.5129 -2.5017 0.9753
-4.7808 3.1773 -2.5017 0.9753
-4.9970 2.8252 -2.5017 0.9753
-5.0954 2.6435 -2.5017 0.9753
-5.1872 2.4585 -2.5017 0.9753
-5.2723 2.2702 -2.5017 0.9753
-5.3506 2.0790 -2.5017 0.9753
-5.4220 1.8852 -2.5017 0.9753
-5.5935 1.2899 -2.5017 0.9753
-5.6363 1.0878 -2.5017 0.9753
-5.7341 0.2679 -2.5017 0.9753
-5.7400 0.0613 -2.5017 0.9753
-5.7132 -0.5576 -2.5017 0.9753
-5.6894 -0.7628 -2.5017 0.9753
-5.6583 -0.9671 -2.5017 0.9753
-5.4610 -1.7688 -2.5017 0.9753
-5.3197 -2.1570 -2.5017 0.9753
-5.2386 -2.3470 -2.5017 0.9753
-5.1508 -2.5340 -2.5017 0.9753
-5.0563 -2.7178 -2.5017 0.9753
2.8865 4.5693 -2.5017 0.9765
2.7202 4.6702 -2.5017 0.9765
2.5504 4.7651 -2.5017 0.9765
2.3773 4.8537 -2.5017 0.9765
2.2011 4.9361 -2.5017 0.9765
2.0221 5.0121 -2.5017 0.9765
1.8404 5.0817 -2.5017 0.9765
1.4693 5.2009 -2.5017 0.9765
1.0923 5.2931 -2.5017 0.9765
0.3216 5.3951 -2.5017 0.9765
0.1272 5.4031 -2.5017 0.9765
-0.4558 5.3854 -2.5017 0.9765
-0.6493 5.3655 -2.5017 0.9765
-0.8419 5.3387 -2.5017 0.9765
-1.0335 5.3049 -2.5017 0.9765
-1.2242 5.2643 -2.5017 0.9765
-1.7839 5.1018 -2.5017 0.9765
-1.9663 5.0343 -2.5017 0.9765
-2.3233 4.8798 -2.5017 0.9765
-2.4974 4.7930 -2.5017 0.9765
-2.9994 4.4960 -2.5017 0.9765
-3.1592 4.3851 -2.5017 0.9765
-3.3150 4.2686 -2.5017 0.9765
-3.6134 4.0191 -2.5017 0.9765
-3.8931 3.7488 -2.5017 0.9765
-4.0255 3.6063 -2.5017 0.9765
-4.1527 3.4591 -2.5017 0.9765
-4.6060 2.8276 -2.5017 0.9765
-4.8839 2.3147 -2.5017 0.9765
-4.9640 2.1375 -2.5017 0.9765
-5.0377 1.9575 -2.5017 0.9765
-5.1049 1.7749 -2.5017 0.9765
-5.3667 0.6398 -2.5017 0.9765
-5.3862 0.4463 -2.5017 0.9765
-5.3988 0.2522 -2.5017 0.9765
-5.2482 -1.2913 -2.5017 0.9765
-5.1983 -1.4793 -2.5017 0.9765
-5.1417 -1.6654 -2.5017 0.9765
-5.0086 -2.0309 -2.5017 0.9765
-4.8496 -2.3859 -2.5017 0.9765
2.7239 4.3118 -2.5017 0.9775
2.5670 4.4070 -2.5017 0.9775
1.5630 4.8547 -2.5017 0.9775
1.3873 4.9078 -2.5017 0.9775
1.2098 4.9545 -2.5017 0.9775
1.0307 4.9949 -2.5017 0.9775
0.8503 5.0287 -2.5017 0.9775
0.6688 5.0561 -2.5017 0.9775
0.4865 5.0769 -2.5017 0.9775
-0.0635 5.0997 -2.5017 0.9775
-1.3328 4.9229 -2.5017 0.9775
-1.5091 4.8717 -2.5017 0.9775
-1.6834 4.8143 -2.5017 0.9775
-2.0253 4.6808 -2.5017 0.9775
-2.3567 4.5229 -2.5017 0.9775
-2.8304 4.2426 -2.5017 0.9775
-2.9812 4.1380 -2.5017 0.9775
-3.1282 4.0281 -2.5017 0.9775
-3.4098 3.7927 -2.5017 0.9775
-3.7987 3.4031 -2.5017 0.9775
-3.9187 3.2642 -2.5017 0.9775
-4.0336 3.1211 -2.5017 0.9775
-4.1433 2.9739 -2.5017 0.9775
-4.3465 2.6682 -2.5017 0.9775
-4.5271 2.3487 -2.5017 0.9775
-4.8173 1.6749 -2.5017 0.9775
-4.9253 1.3241 -2.5017 0.9775
-5.0077 0.9665 -2.5017 0.9775
-5.0393 0.7856 -2.5017 0.9775
-5.0643 0.6038 -2.5017 0.9775
-5.0827 0.4211 -2.5017 0.9775
-5.0985 -0.1291 -2.5017 0.9775
-5.0760 -0.4954 -2.5017 0.9775
-4.9524 -1.2185 -2.5017 0.9775
-4.8520 -1.5716 -2.5017 0.9775
-4.7923 -1.7452 -2.5017 0.9775
-4.7264 -1.9165 -2.5017 0.9775
-4.5763 -2.2514 -2.5017 0.9775
2.5755 4.0770 -2.5017 0.9785
2.4272 4.1670 -2.5017 0.9785
2.1212 4.3308 -2.5017 0.9785
1.9640 4.4043 -2.5017 0.9785
1.4779 4.5903 -2.5017 0.9785
0.9746 4.7228 -2.5017 0.9785
0.4600 4.8004 -2.5017 0.9785
0.2869 4.8138 -2.5017 0.9785
-0.0600 4.8220 -2.5017 0.9785
-0.4067 4.8051 -2.5017 0.9785
-0.5793 4.7874 -2.5017 0.9785
-0.7512 4.7635 -2.5017 0.9785
-0.9221 4.7333 -2.5017 0.9785
-1.0919 4.6971 -2.5017 0.9785
-1.2602 4.6548 -2.5017 0.9785
-1.7545 4.4919 -2.5017 0.9785
-2.3808 4.1937 -2.5017 0.9785
-3.2241 3.5861 -2.5017 0.9785
-3.3511 3.4678 -2.5017 0.9785
-3.5918 3.2178 -2.5017 0.9785
-3.7052 3.0864 -2.5017 0.9785
-3.9176 2.8120 -2.5017 0.9785
-4.0163 2.6692 -2.5017 0.9785
-4.2805 2.2208 -2.5017 0.9785
-4.3577 2.0653 -2.5017 0.9785
-4.4292 1.9072 -2.5017 0.9785
-4.5549 1.5837 -2.5017 0.9785
-4.7350 0.9138 -2.5017 0.9785
-4.7648 0.7428 -2.5017 0.9785
-4.8221 0.0515 -2.5017 0.9785
-4.8208 -0.1220 -2.5017 0.9785
-4.8133 -0.2954 -2.5017 0.9785
-4.7996 -0.4685 -2.5017 0.9785
-4.7796 -0.6408 -2.5017 0.9785
-4.7534 -0.8124 -2.5017 0.9785
-4.6827 -1.1522 -2.5017 0.9785
-4.6382 -1.3200 -2.5017 0.9785
-4.4009 -1.9717 -2.5017 0.9785
-4.3271 -2.1288 -2.5017 0.9785
-4.2477 -2.2831 -2.5017 0.9785
2.4395 3.8617 -2.5017 0.9794
2.2990 3.9469 -2.5017 0.9794
2.1555 4.0271 -2.5017 0.9794
1.5554 4.2947 -2.5017 0.9794
1.2425 4.3954 -2.5017 0.9794
0.9231 4.4734 -2.5017 0.9794
0.7616 4.5037 -2.5017 0.9794
0.5990 4.5282 -2.5017 0.9794
0.4357 4.5469 -2.5017 0.9794
0.2718 4.5596 -2.5017 0.9794
-0.0566 4.5448 -2.4894 0.9795
-0.7116 4.5119 -2.5017 0.9794
-0.8735 4.4834 -2.5017 0.9794
-1.0342 4.4490 -2.5017 0.9794
-1.1936 4.4089 -2.5017 0.9794
-1.3515 4.3632 -2.5017 0.9794
-1.6618 4.2546 -2.5017 0.9794
-1.8139 4.1921 -2.5017 0.9794
-2.1107 4.0507 -2.5017 0.9794
-2.3965 3.8885 -2.5017 0.9794
-2.5349 3.7997 -2.5017 0.9794
-2.8016 3.6075 -2.5017 0.9794
-2.9296 3.5044 -2.5017 0.9794
-3.2902 3.1683 -2.5017 0.9794
-3.4021 3.0479 -2.5017 0.9794
-3.5096 2.9234 -2.5017 0.9794
-3.6125 2.7952 -2.5017 0.9794
-3.7107 2.6635 -2.5017 0.9794
-3.8042 2.5282 -2.5017 0.9794
-3.9762 2.2480 -2.5017 0.9794
-4.0545 2.1035 -2.5017 0.9794
-4.4111 1.1859 -2.5017 0.9794
-4.5132 0.7036 -2.5017 0.9794
-4.5356 0.5407 -2.5017 0.9794
-4.5521 0.3771 -2.5017 0.9794
-4.5627 0.2131 -2.5017 0.9794
-4.5674 0.0488 -2.5017 0.9794
-4.5662 -0.1156 -2.5017 0.9794
-4.5461 -0.4437 -2.5017 0.9794
-4.5272 -0.6070 -2.5017 0.9794
-4.4718 -0.9310 -2.5017 0.9794
-4.4354 -1.0913 -2.5017 0.9794
-4.3454 -1.4075 -2.5017 0.9794
-4.2330 -1.7164 -2.5017 0.9794
-4.0985 -2.0164 -2.5017 0.9794
-4.0233 -2.1626 -2.5017 0.9794
2.3143 3.6634 -2.5017 0.9802
2.1809 3.7443 -2.5017 0.9802
1.9060 3.8914 -2.5017 0.9802
1.7647 3.9575 -2.5017 0.9802
1.6212 4.0184 -2.5017 0.9802
1.4755 4.0741 -2.5017 0.9802
1.1787 4.1697 -2.5017 0.9802
0.8757 4.2437 -2.5017 0.9802
0.7225 4.2725 -2.5017 0.9802
0.5683 4.2957 -2.5017 0.9802
0.2578 4.3254 -2.5017 0.9802
0.1015 4.3106 -2.4894 0.9803
-0.0537 4.3114 -2.4894 0.9803
-0.2088 4.3067 -2.4894 0.9803
-0.3654 4.3177 -2.5017 0.9802
-0.6750 4.2802 -2.5017 0.9802
-0.9811 4.2206 -2.5017 0.9802
-1.1323 4.1825 -2.5017 0.9802
-1.2821 4.1391 -2.5017 0.9802
-1.4302 4.0903 -2.5017 0.9802
-1.8627 3.9123 -2.5017 0.9802
-2.4047 3.6046 -2.5017 0.9802
-2.6578 3.4223 -2.5017 0.9802
-2.7792 3.3245 -2.5017 0.9802
-3.1213 3.0056 -2.5017 0.9802
-3.2274 2.8913 -2.5017 0.9802
-3.5202 2.5267 -2.5017 0.9802
-3.6088 2.3984 -2.5017 0.9802
-3.7720 2.1326 -2.5017 0.9802
-3.9156 1.8558 -2.5017 0.9802
-4.3183 0.3578 -2.5017 0.9802
-4.3284 0.2022 -2.5017 0.9802
-4.3329 0.0463 -2.5017 0.9802
-4.3250 -0.2654 -2.5017 0.9802
-4.2947 -0.5758 -2.5017 0.9802
-4.2422 -0.8832 -2.5017 0.9802
-4.1677 -1.1860 -2.5017 0.9802
-4.0716 -1.4827 -2.5017 0.9802
-4.0156 -1.6283 -2.5017 0.9802
