ply
format ascii 1.0
element vertex 1004
property float32 x
property float32 y
property float32 z
property float32 I
end_header
-38.5265 -24.4264 8.0436 0.8309
-36.0846 -26.6873 7.9137 0.8334
-33.4284 -26.6292 7.5359 0.8406
-27.2364 -23.3413 6.3248 0.8644
-31.3332 -28.8643 7.5119 0.8411
-25.3346 -36.1582 7.7849 0.8358
-23.4028 -36.0894 7.5844 0.8397
-21.1560 -38.4005 7.7306 0.8369
-19.3582 -38.3287 7.5714 0.8400
-17.6821 -38.3708 7.4496 0.8423
-7.5864 -18.1483 3.4684 0.9232
-15.2929 -40.6198 7.6532 0.8384
-13.6646 -40.6607 7.5636 0.8401
-8.9846 -40.8268 7.3711 0.8438
-4.6441 -42.4431 7.5285 0.8408
-0.0570 -41.4664 7.3116 0.8450
5.8877 -41.1520 7.3301 0.8446
8.9536 -41.2291 7.4392 0.8425
10.5586 -41.3997 7.5335 0.8407
11.5591 -39.3686 7.2348 0.8465
16.3191 -39.3425 7.5102 0.8411
16.9748 -37.1040 7.1946 0.8473
17.8547 -35.5945 7.0216 0.8507
18.5645 -31.2048 6.4023 0.8629
17.9351 -27.8249 5.8372 0.8742
18.4618 -24.5754 5.4198 0.8826
26.5307 -30.4927 7.1269 0.8486
28.6326 -28.4971 7.1231 0.8487
35.3367 -26.2847 7.7655 0.8362
-38.6312 -30.7738 7.5663 0.8188
-26.8685 -26.5947 5.7915 0.8581
-33.6924 -35.8309 7.5346 0.8195
-27.0626 -30.9319 6.2962 0.8468
-26.9586 -33.1396 6.5445 0.8412
-7.5858 -18.1468 3.0131 0.9235
-4.3855 -24.0013 3.7377 0.9060
-4.6342 -42.3526 6.5269 0.8416
17.4620 -38.1689 6.4301 0.8438
17.8420 -35.5692 6.0961 0.8513
17.8873 -30.0665 5.3595 0.8680
17.9549 -27.8555 5.0770 0.8745
30.3816 -37.5581 7.4005 0.8224
33.1967 -35.4988 7.4456 0.8215
38.3136 -30.6933 7.5206 0.8198
38.2135 -28.4247 7.2960 0.8247
38.0416 -26.2314 7.0789 0.8295
-27.2518 -23.3544 4.6736 0.8652
-26.9200 -24.7988 4.7663 0.8627
-7.5851 -18.1452 2.5610 0.9237
-4.3855 -24.0013 3.1772 0.9063
-4.6953 -32.1867 4.2357 0.8770
-4.6441 -42.4431 5.5600 0.8418
17.6803 -42.6237 6.0091 0.8302
17.6681 -38.6195 5.5304 0.8426
16.9671 -16.8868 3.1173 0.9080
40.4094 -27.8641 6.3919 0.8204
38.3546 -19.0120 5.5745 0.8414
-27.2174 -38.8454 5.0933 0.8263
-7.5845 -18.1436 2.1117 0.9239
-4.3855 -24.0013 2.6200 0.9065
-4.6327 -42.3391 4.5736 0.8425
18.3364 -33.5002 4.1009 0.8576
18.4618 -24.5754 3.3006 0.8837
-7.5838 -18.1420 1.6646 0.9241
-4.3407 -23.7564 2.0443 0.9076
-4.6441 -42.4431 3.6144 0.8425
17.8396 -43.0080 3.9415 0.8295
-7.5832 -18.1405 1.2192 0.9242
-5.1750 -23.5176 1.4932 0.9080
-3.5248 -24.1628 1.5142 0.9068
17.8396 -43.0080 2.8873 0.8298
-26.8079 -22.9741 1.3921 0.8682
-7.5825 -18.1390 0.7752 0.9243
-4.3011 -23.5396 0.9436 0.9087
-3.5287 -24.1898 0.9639 0.9068
-4.5905 -41.9538 1.6642 0.8446
17.6792 -42.6212 1.8194 0.8313
17.4135 -24.9991 1.2013 0.8852
18.1067 -24.1027 1.1887 0.8863
-7.5819 -18.1374 0.3321 0.9244
-5.1750 -23.5176 0.4068 0.9082
-4.3011 -23.5396 0.4042 0.9087
-3.5327 -24.2169 0.4134 0.9067
-4.5905 -41.9538 0.7129 0.8446
17.6340 -42.5123 0.7774 0.8318
17.4096 -24.9934 0.5145 0.8853
18.1067 -24.1027 0.5092 0.8864
40.0693 -25.5593 0.8028 0.8268
-27.6404 -17.5244 -0.1843 0.8773
-25.5501 -17.5145 -0.1744 0.8835
-21.9782 -17.5079 -0.1582 0.8937
-18.9997 -17.5025 -0.1454 0.9018
-17.6775 -17.4974 -0.1400 0.9053
-16.4486 -17.4926 -0.1352 0.9084
-15.3124 -17.5016 -0.1309 0.9112
-13.2171 -17.4934 -0.1234 0.9160
-12.2543 -17.4897 -0.1202 0.9181
-11.3392 -17.4861 -0.1173 0.9200
-8.8291 -17.4814 -0.1103 0.9247
-8.0547 -17.4791 -0.1084 0.9259
-7.3057 -17.4768 -0.1066 0.9270
-5.8719 -17.4725 -0.1038 0.9289
-4.5055 -17.4653 -0.1016 0.9304
-3.8428 -17.4636 -0.1007 0.9310
-3.1906 -17.4619 -0.0999 0.9315
-1.2786 -17.4569 -0.0985 0.9324
1.8604 -17.4454 -0.0988 0.9322
3.1376 -17.4428 -0.0998 0.9316
7.2332 -17.4379 -0.1063 0.9273
8.7444 -17.4325 -0.1098 0.9250
10.3676 -17.4267 -0.1142 0.9221
11.2346 -17.4296 -0.1167 0.9204
13.0889 -17.4232 -0.1227 0.9165
14.0913 -17.4198 -0.1261 0.9143
15.1533 -17.4161 -0.1300 0.9118
42.1764 -22.8259 -0.2700 0.8254
-29.9741 -17.5296 -0.9777 0.8703
-27.6397 -17.5239 -0.9215 0.8773
-25.5505 -17.5148 -0.8723 0.8834
-23.6776 -17.5113 -0.8292 0.8888
-21.9785 -17.5082 -0.7912 0.8936
-20.4306 -17.5088 -0.7576 0.8979
-16.4492 -17.4933 -0.6761 0.9084
-15.3117 -17.5009 -0.6548 0.9111
-14.2333 -17.4967 -0.6351 0.9137
-11.3388 -17.4854 -0.5868 0.9200
-9.6320 -17.4831 -0.5621 0.9232
-8.0544 -17.4783 -0.5419 0.9259
-6.5788 -17.4739 -0.5257 0.9280
-5.8717 -17.4718 -0.5190 0.9289
-4.5055 -17.4654 -0.5079 0.9304
-3.1906 -17.4619 -0.4998 0.9314
-2.5471 -17.4603 -0.4968 0.9318
-1.2786 -17.4570 -0.4929 0.9324
-0.0240 -17.4537 -0.4915 0.9325
0.6021 -17.4484 -0.4916 0.9325
1.2297 -17.4471 -0.4925 0.9324
1.8604 -17.4458 -0.4940 0.9322
2.4958 -17.4445 -0.4962 0.9319
3.7878 -17.4418 -0.5026 0.9311
5.1204 -17.4391 -0.5118 0.9299
7.2333 -17.4382 -0.5316 0.9272
7.9767 -17.4356 -0.5399 0.9261
10.3678 -17.4271 -0.5710 0.9221
12.1389 -17.4267 -0.5980 0.9185
14.0915 -17.4200 -0.6309 0.9142
15.1535 -17.4163 -0.6500 0.9118
16.2833 -17.4125 -0.6713 0.9090
39.6048 -29.4596 -1.3899 0.8208
42.1762 -22.8258 -1.3504 0.8254
-29.9733 -17.5290 -1.7609 0.8702
-21.9788 -17.5084 -1.4251 0.8936
-15.3110 -17.5001 -1.1792 0.9111
-14.2327 -17.4960 -1.1438 0.9136
-11.3383 -17.4847 -1.0568 0.9199
-10.4673 -17.4848 -1.0335 0.9216
-9.6316 -17.4823 -1.0123 0.9232
-8.0541 -17.4776 -0.9759 0.9258
-6.5785 -17.4732 -0.9469 0.9279
-5.8714 -17.4711 -0.9347 0.9288
-3.8428 -17.4637 -0.9068 0.9309
-3.1906 -17.4620 -0.9002 0.9314
-1.9103 -17.4587 -0.8907 0.9321
-1.2786 -17.4570 -0.8877 0.9323
-0.0240 -17.4537 -0.8852 0.9325
0.6022 -17.4488 -0.8854 0.9325
3.1378 -17.4435 -0.8988 0.9315
4.4482 -17.4408 -0.9128 0.9304
5.1205 -17.4395 -0.9218 0.9298
5.8088 -17.4436 -0.9324 0.9290
6.5117 -17.4411 -0.9441 0.9281
9.5406 -17.4304 -1.0077 0.9235
11.2349 -17.4300 -1.0517 0.9203
12.1391 -17.4269 -1.0771 0.9185
13.0893 -17.4237 -1.1052 0.9164
14.0917 -17.4202 -1.1363 0.9142
15.1537 -17.4166 -1.1708 0.9117
23.1760 -23.0663 -1.6583 0.8773
24.9385 -23.1005 -1.7240 0.8727
28.9312 -23.1769 -1.8800 0.8620
37.6905 -28.0356 -2.3823 0.8285
33.7430 -23.2673 -2.0786 0.8486
40.8511 -22.1087 -2.3557 0.8302
42.2983 -19.1090 -2.3539 0.8304
42.9200 -17.5649 -2.3519 0.8305
43.5074 -16.0089 -2.3511 0.8305
47.4333 -13.6829 -2.5036 0.8206
47.8939 -11.9732 -2.5037 0.8206
48.2929 -10.2479 -2.5037 0.8206
48.9036 -6.7600 -2.5037 0.8206
-27.6445 -16.1672 -2.3481 0.8795
-27.0473 -17.1483 -2.3482 0.8795
-23.6782 -17.5118 -2.1594 0.8886
-20.4323 -17.5102 -1.9730 0.8977
-19.0019 -17.5046 -1.8943 0.9016
-17.6795 -17.4994 -1.8239 0.9050
-14.2321 -17.4952 -1.6536 0.9135
-10.4669 -17.4841 -1.4941 0.9215
-9.6312 -17.4816 -1.4634 0.9231
-8.8280 -17.4792 -1.4358 0.9245
-8.0538 -17.4769 -1.4110 0.9257
-7.3048 -17.4747 -1.3887 0.9268
-6.5782 -17.4725 -1.3689 0.9279
-4.5056 -17.4654 -1.3225 0.9302
-3.8429 -17.4637 -1.3111 0.9308
-3.1906 -17.4620 -1.3015 0.9313
-2.5471 -17.4603 -1.2938 0.9317
0.6022 -17.4491 -1.2802 0.9324
1.2298 -17.4478 -1.2825 0.9323
1.8605 -17.4465 -1.2865 0.9320
2.4959 -17.4452 -1.2922 0.9318
3.1378 -17.4439 -1.2996 0.9314
4.4483 -17.4412 -1.3198 0.9304
5.8089 -17.4439 -1.3481 0.9289
9.5408 -17.4308 -1.4570 0.9234
11.2351 -17.4302 -1.5205 0.9202
12.1392 -17.4271 -1.5572 0.9183
13.0894 -17.4239 -1.5979 0.9163
16.2838 -17.4130 -1.7480 0.9088
24.1926 -24.0781 -2.5027 0.8721
27.3884 -20.3725 -2.5028 0.8721
28.1029 -19.3774 -2.5028 0.8720
29.4228 -17.3135 -2.5029 0.8720
31.1092 -14.0541 -2.5030 0.8720
32.4394 -10.6319 -2.5030 0.8720
33.1185 -8.2794 -2.5030 0.8720
33.4252 -7.0929 -2.5054 0.8719
-22.4852 -13.1499 -2.5007 0.9006
-21.9994 -13.9479 -2.5008 0.9006
-20.5533 -15.2007 -2.4542 0.9024
-19.1334 -15.2417 -2.3485 0.9064
-17.9921 -16.5743 -2.3485 0.9064
-16.4510 -17.4952 -2.3056 0.9080
-13.2149 -17.4906 -2.1046 0.9157
-11.3375 -17.4834 -2.0005 0.9197
-10.4664 -17.4833 -1.9563 0.9214
-9.6307 -17.4808 -1.9161 0.9229
-5.1808 -17.4672 -1.7491 0.9294
-1.9103 -17.4587 -1.6861 0.9319
-1.2786 -17.4571 -1.6805 0.9321
-0.6504 -17.4554 -1.6770 0.9322
-0.0240 -17.4538 -1.6757 0.9323
1.2298 -17.4482 -1.6793 0.9321
3.1379 -17.4443 -1.7016 0.9313
3.7881 -17.4429 -1.7136 0.9308
5.1207 -17.4402 -1.7450 0.9296
6.5119 -17.4417 -1.7874 0.9279
8.7451 -17.4339 -1.8725 0.9246
9.5410 -17.4311 -1.9078 0.9233
13.0896 -17.4241 -2.0922 0.9162
15.1541 -17.4170 -2.2164 0.9114
18.5518 -15.9873 -2.3512 0.9063
20.3436 -16.2973 -2.5025 0.9006
20.9152 -15.5575 -2.5025 0.9006
21.4598 -14.7976 -2.5026 0.9006
22.4657 -13.2215 -2.5026 0.9006
23.3559 -11.5773 -2.5026 0.9005
23.7563 -10.7323 -2.5027 0.9005
24.1260 -9.8735 -2.5027 0.9005
25.0472 -7.2253 -2.5027 0.9005
25.2904 -6.3224 -2.5027 0.9005
25.5009 -5.4114 -2.5027 0.9005
25.8233 -3.5696 -2.5027 0.9005
-18.1742 -10.6287 -2.5009 0.9187
-17.7815 -11.2737 -2.5009 0.9187
-15.4858 -14.2655 -2.5010 0.9187
-14.9643 -14.8118 -2.5011 0.9187
-14.2894 -15.1964 -2.4778 0.9194
-12.4778 -15.3388 -2.3488 0.9234
-11.9199 -15.7766 -2.3488 0.9234
-10.7586 -16.5907 -2.3488 0.9234
-10.1568 -16.9661 -2.3489 0.9234
-8.8273 -17.4777 -2.3259 0.9242
-7.3043 -17.4732 -2.2496 0.9266
-6.5777 -17.4711 -2.2175 0.9276
-5.8707 -17.4690 -2.1891 0.9285
-5.1808 -17.4673 -2.1642 0.9292
-4.5056 -17.4655 -2.1426 0.9299
-3.8429 -17.4638 -2.1241 0.9305
-3.1907 -17.4621 -2.1086 0.9310
-2.5471 -17.4604 -2.0960 0.9314
-1.2787 -17.4571 -2.0792 0.9319
-0.6504 -17.4555 -2.0749 0.9321
0.6022 -17.4499 -2.0740 0.9321
1.8606 -17.4473 -2.0842 0.9318
3.1380 -17.4446 -2.1054 0.9311
5.8092 -17.4445 -2.1840 0.9286
7.2339 -17.4395 -2.2427 0.9268
7.9773 -17.4370 -2.2777 0.9257
9.4974 -17.3515 -2.3497 0.9234
10.1137 -16.9999 -2.3497 0.9234
11.3064 -16.2317 -2.3497 0.9234
11.8814 -15.8159 -2.3498 0.9234
12.4411 -15.3798 -2.3498 0.9234
13.2353 -15.2118 -2.3952 0.9220
14.9309 -14.8602 -2.5023 0.9186
16.4410 -13.1710 -2.5024 0.9186
17.3430 -11.9588 -2.5024 0.9186
18.1558 -10.6851 -2.5024 0.9186
18.8753 -9.3563 -2.5025 0.9186
19.4976 -7.9793 -2.5025 0.9186
20.0195 -6.5612 -2.5025 0.9186
20.4384 -5.1095 -2.5025 0.9186
20.6086 -4.3733 -2.5025 0.9186
20.7522 -3.6313 -2.5025 0.9186
-14.9079 -9.4518 -2.5011 0.9312
-12.9831 -11.9601 -2.5011 0.9312
-10.1298 -14.4576 -2.5013 0.9312
-9.0676 -15.1467 -2.5013 0.9312
-7.6810 -15.2082 -2.4141 0.9335
-7.0118 -15.2157 -2.3738 0.9346
-5.2813 -15.7153 -2.3491 0.9352
-4.7144 -15.8947 -2.3491 0.9352
-4.1414 -16.0537 -2.3491 0.9352
-3.5630 -16.1921 -2.3491 0.9352
-2.9801 -16.3096 -2.3492 0.9352
-2.3933 -16.4062 -2.3492 0.9352
-1.2112 -16.5359 -2.3492 0.9352
-0.6174 -16.5688 -2.3493 0.9352
1.1658 -16.5398 -2.3493 0.9352
1.7582 -16.4876 -2.3493 0.9352
2.3484 -16.4141 -2.3494 0.9352
2.9355 -16.3195 -2.3494 0.9352
3.5189 -16.2038 -2.3494 0.9352
4.0978 -16.0674 -2.3494 0.9352
5.2391 -15.7326 -2.3495 0.9352
5.8000 -15.5348 -2.3495 0.9352
6.3534 -15.3169 -2.3495 0.9352
6.9615 -15.2163 -2.3709 0.9346
8.3201 -15.2006 -2.4553 0.9324
9.0286 -15.1761 -2.5020 0.9311
9.5672 -14.8427 -2.5021 0.9311
10.0934 -14.4902 -2.5021 0.9311
12.0620 -12.8985 -2.5022 0.9311
12.5169 -12.4577 -2.5022 0.9311
13.3778 -11.5286 -2.5022 0.9311
14.1700 -10.5402 -2.5023 0.9311
14.5389 -10.0253 -2.5023 0.9311
14.8892 -9.4975 -2.5023 0.9311
15.2203 -8.9575 -2.5023 0.9311
16.0946 -7.2710 -2.5023 0.9311
16.3450 -6.6892 -2.5023 0.9311
16.7826 -5.5004 -2.5024 0.9311
17.2764 -3.6662 -2.5024 0.9311
17.3968 -3.0442 -2.5024 0.9311
-13.1057 -7.6646 -2.5011 0.9403
-12.5228 -8.5843 -2.5012 0.9403
-11.8754 -9.4600 -2.5012 0.9403
-11.5285 -9.8798 -2.5012 0.9403
-11.1669 -10.2870 -2.5012 0.9403
-10.7908 -10.6809 -2.5012 0.9403
-10.4009 -11.0611 -2.5012 0.9403
-9.1529 -12.1144 -2.5013 0.9403
-8.7127 -12.4350 -2.5013 0.9403
-8.2612 -12.7395 -2.5013 0.9403
-6.3548 -13.7903 -2.5014 0.9403
-5.8563 -14.0095 -2.5014 0.9403
-4.8371 -14.3934 -2.5015 0.9403
-4.3179 -14.5578 -2.5015 0.9403
-3.2633 -14.8301 -2.5015 0.9403
-2.7294 -14.9377 -2.5016 0.9403
-1.6517 -15.0952 -2.5016 0.9403
-1.1093 -15.1448 -2.5016 0.9403
-0.5655 -15.1750 -2.5017 0.9403
2.6886 -14.9465 -2.5018 0.9403
4.2784 -14.5717 -2.5019 0.9403
4.7984 -14.4090 -2.5019 0.9403
5.3120 -14.2278 -2.5019 0.9403
5.8189 -14.0282 -2.5019 0.9403
6.3183 -13.8107 -2.5019 0.9403
6.8095 -13.5753 -2.5020 0.9403
7.2921 -13.3224 -2.5020 0.9403
7.7653 -13.0524 -2.5020 0.9403
9.5520 -11.8083 -2.5021 0.9403
9.9694 -11.4582 -2.5021 0.9403
10.3740 -11.0934 -2.5021 0.9403
11.5057 -9.9152 -2.5021 0.9403
11.8540 -9.4963 -2.5022 0.9403
12.5043 -8.6223 -2.5022 0.9403
12.8055 -8.1683 -2.5022 0.9403
13.8421 -6.2535 -2.5022 0.9403
14.2549 -5.2452 -2.5023 0.9403
14.4338 -4.7306 -2.5023 0.9403
14.5942 -4.2100 -2.5023 0.9403
14.8585 -3.1530 -2.5023 0.9403
-11.4869 -6.7178 -2.5012 0.9473
-11.2386 -7.1255 -2.5012 0.9473
-9.7875 -9.0163 -2.5013 0.9473
-9.4579 -9.3615 -2.5013 0.9473
-9.1161 -9.6947 -2.5013 0.9473
-8.3979 -10.3233 -2.5013 0.9473
-8.0223 -10.6179 -2.5013 0.9473
-7.6364 -10.8989 -2.5014 0.9473
-7.2407 -11.1658 -2.5014 0.9473
-6.8356 -11.4184 -2.5014 0.9473
-6.4218 -11.6562 -2.5014 0.9473
-4.6892 -12.4551 -2.5015 0.9473
-4.2396 -12.6153 -2.5015 0.9473
-3.7844 -12.7594 -2.5015 0.9473
-2.8602 -12.9980 -2.5016 0.9473
-1.9212 -13.1698 -2.5016 0.9473
-0.4956 -13.3003 -2.5017 0.9473
-0.0183 -13.3096 -2.5017 0.9473
0.9358 -13.2769 -2.5017 0.9473
1.4114 -13.2348 -2.5017 0.9473
2.3564 -13.0999 -2.5018 0.9473
3.2894 -12.8975 -2.5018 0.9473
3.7498 -12.7713 -2.5018 0.9473
4.2055 -12.6287 -2.5018 0.9473
4.6557 -12.4699 -2.5019 0.9473
5.5376 -12.1042 -2.5019 0.9473
5.9682 -11.8979 -2.5019 0.9473
6.8058 -11.4397 -2.5020 0.9473
7.2117 -11.1883 -2.5020 0.9473
7.6083 -10.9226 -2.5020 0.9473
7.9952 -10.6428 -2.5020 0.9473
8.3718 -10.3493 -2.5020 0.9473
8.7376 -10.0424 -2.5020 0.9473
9.4350 -9.3904 -2.5021 0.9473
9.7658 -9.0461 -2.5021 0.9473
10.0840 -8.6901 -2.5021 0.9473
10.6810 -7.9450 -2.5021 0.9473
10.9592 -7.5568 -2.5021 0.9473
11.2231 -7.1590 -2.5021 0.9473
12.1317 -5.4807 -2.5022 0.9473
12.3205 -5.0421 -2.5022 0.9473
12.9149 -3.2287 -2.5022 0.9473
-9.9937 -6.3362 -2.5013 0.9528
-9.7601 -6.6905 -2.5013 0.9528
-9.5139 -7.0363 -2.5013 0.9528
-9.2555 -7.3729 -2.5013 0.9528
-8.4102 -8.3245 -2.5013 0.9528
-7.7919 -8.9060 -2.5014 0.9528
-6.7904 -9.6916 -2.5014 0.9528
-6.0784 -10.1534 -2.5014 0.9528
-4.5642 -10.9185 -2.5015 0.9528
-4.1697 -11.0753 -2.5015 0.9528
-2.9562 -11.4593 -2.5016 0.9528
-2.5433 -11.5580 -2.5016 0.9528
-2.1272 -11.6418 -2.5016 0.9528
-1.7083 -11.7107 -2.5016 0.9528
-1.2873 -11.7645 -2.5016 0.9528
-0.4407 -11.8267 -2.5017 0.9528
0.8321 -11.8059 -2.5017 0.9528
1.2550 -11.7685 -2.5017 0.9528
1.6762 -11.7161 -2.5017 0.9528
3.3344 -11.3563 -2.5018 0.9528
3.7395 -11.2295 -2.5018 0.9528
4.1398 -11.0882 -2.5018 0.9528
5.3069 -10.5796 -2.5019 0.9528
6.0516 -10.1721 -2.5019 0.9528
7.4441 -9.2025 -2.5020 0.9528
7.7694 -8.9297 -2.5020 0.9528
8.3896 -8.3499 -2.5020 0.9528
9.2380 -7.4006 -2.5021 0.9528
9.4975 -7.0646 -2.5021 0.9528
9.9795 -6.3657 -2.5021 0.9528
10.7873 -4.8734 -2.5021 0.9528
10.9552 -4.4834 -2.5021 0.9528
11.1090 -4.0877 -2.5021 0.9528
11.2484 -3.6866 -2.5021 0.9528
11.3734 -3.2809 -2.5021 0.9528
11.4838 -2.8709 -2.5021 0.9528
11.7257 -1.6209 -2.5022 0.9528
-8.5569 -6.3285 -2.5013 0.9572
-8.0814 -6.9257 -2.5013 0.9572
-7.5642 -7.4872 -2.5014 0.9572
-7.2909 -7.7537 -2.5014 0.9572
-6.7164 -8.2564 -2.5014 0.9572
-6.4160 -8.4920 -2.5014 0.9572
-6.1074 -8.7166 -2.5014 0.9572
-5.7909 -8.9302 -2.5014 0.9572
-4.4546 -9.6666 -2.5015 0.9572
-3.3907 -10.0893 -2.5015 0.9572
-3.0267 -10.2045 -2.5015 0.9572
-2.6588 -10.3065 -2.5016 0.9572
-2.2874 -10.3953 -2.5016 0.9572
-1.9132 -10.4707 -2.5016 0.9572
-1.5365 -10.5327 -2.5016 0.9572
-1.1578 -10.5811 -2.5016 0.9572
-0.0146 -10.6444 -2.5017 0.9572
0.3671 -10.6382 -2.5017 0.9572
0.7484 -10.6182 -2.5017 0.9572
1.5076 -10.5374 -2.5017 0.9572
2.2590 -10.4024 -2.5018 0.9572
2.6307 -10.3147 -2.5018 0.9572
3.7233 -9.9727 -2.5018 0.9572
4.4286 -9.6803 -2.5019 0.9572
5.4428 -9.1487 -2.5019 0.9572
6.6952 -8.2767 -2.5020 0.9572
7.8100 -7.2344 -2.5020 0.9572
9.5385 -4.7282 -2.5021 0.9572
9.8529 -4.0323 -2.5021 0.9572
9.9912 -3.6764 -2.5021 0.9572
10.4143 -2.2100 -2.5021 0.9572
10.4869 -1.8351 -2.5021 0.9572
4.3184 -0.5969 -1.0246 0.9822
-8.3393 -4.8771 -2.5013 0.9609
-8.1591 -5.1729 -2.5013 0.9609
-7.9683 -5.4623 -2.5013 0.9609
-7.7673 -5.7446 -2.5014 0.9609
-6.6181 -7.0382 -2.5014 0.9609
-5.8240 -7.7083 -2.5014 0.9609
-5.5438 -7.9123 -2.5014 0.9609
-4.6620 -8.4621 -2.5015 0.9609
-3.7263 -8.9140 -2.5015 0.9609
-2.7474 -9.2628 -2.5016 0.9609
-2.0764 -9.4360 -2.5016 0.9609
-1.7367 -9.5045 -2.5016 0.9609
-1.3947 -9.5606 -2.5016 0.9609
-0.7058 -9.6362 -2.5016 0.9609
-0.3598 -9.6553 -2.5017 0.9609
0.6793 -9.6383 -2.5017 0.9609
1.3685 -9.5649 -2.5017 0.9609
1.7106 -9.5097 -2.5017 0.9609
3.3797 -9.0523 -2.5018 0.9609
3.7022 -8.9253 -2.5018 0.9609
4.0199 -8.7868 -2.5018 0.9609
4.6395 -8.4762 -2.5019 0.9609
4.9405 -8.3044 -2.5019 0.9609
5.2351 -8.1219 -2.5019 0.9609
5.5231 -7.9290 -2.5019 0.9609
6.0772 -7.5127 -2.5019 0.9609
6.8491 -6.8167 -2.5020 0.9609
7.0891 -6.5667 -2.5020 0.9609
7.3201 -6.3082 -2.5020 0.9609
7.5417 -6.0417 -2.5020 0.9609
7.7535 -5.7674 -2.5020 0.9609
8.1470 -5.1968 -2.5020 0.9609
8.3282 -4.9013 -2.5020 0.9609
8.4986 -4.5995 -2.5020 0.9609
8.9435 -3.6602 -2.5020 0.9609
9.0690 -3.3371 -2.5020 0.9609
9.1829 -3.0096 -2.5021 0.9609
9.2849 -2.6784 -2.5021 0.9609
-7.6272 -4.4606 -2.5014 0.9639
-7.4624 -4.7313 -2.5014 0.9639
-7.1041 -5.2540 -2.5014 0.9639
-6.7093 -5.7498 -2.5014 0.9639
-5.0704 -7.2367 -2.5015 0.9639
-4.8077 -7.4139 -2.5015 0.9639
-4.5387 -7.5816 -2.5015 0.9639
-3.9836 -7.8875 -2.5015 0.9639
-3.6982 -8.0253 -2.5015 0.9639
-3.1135 -8.2698 -2.5015 0.9639
-2.5127 -8.4718 -2.5016 0.9639
-2.2073 -8.5565 -2.5016 0.9639
-1.5883 -8.6928 -2.5016 0.9639
-0.9612 -8.7844 -2.5016 0.9639
-0.6455 -8.8133 -2.5016 0.9639
-0.3290 -8.8308 -2.5017 0.9639
-0.0121 -8.8370 -2.5017 0.9639
0.3048 -8.8318 -2.5017 0.9639
1.2517 -8.7481 -2.5017 0.9639
1.5645 -8.6976 -2.5017 0.9639
1.8755 -8.6359 -2.5018 0.9639
2.1840 -8.5632 -2.5018 0.9639
3.3860 -8.1631 -2.5018 0.9639
4.2432 -7.7523 -2.5018 0.9639
5.0514 -7.2518 -2.5019 0.9639
5.3082 -7.0660 -2.5019 0.9639
5.5582 -6.8711 -2.5019 0.9639
6.6949 -5.7695 -2.5019 0.9639
7.0913 -5.2748 -2.5020 0.9639
7.2759 -5.0171 -2.5020 0.9639
7.4512 -4.7530 -2.5020 0.9639
7.7728 -4.2066 -2.5020 0.9639
8.2945 -3.0520 -2.5020 0.9639
8.4919 -2.4496 -2.5020 0.9639
8.6457 -1.8347 -2.5020 0.9639
3.8713 -0.6774 -1.1126 0.9838
3.8036 -0.5258 -1.0870 0.9842
-7.0201 -4.1055 -2.5014 0.9665
-6.8684 -4.3547 -2.5014 0.9665
-6.1748 -5.2921 -2.5014 0.9665
-5.9815 -5.5102 -2.5014 0.9665
-5.7800 -5.7212 -2.5014 0.9665
-4.9027 -6.4889 -2.5015 0.9665
-4.6668 -6.6606 -2.5015 0.9665
-3.6665 -7.2596 -2.5015 0.9665
-3.1368 -7.5038 -2.5015 0.9665
-2.5908 -7.7094 -2.5016 0.9665
-2.3127 -7.7974 -2.5016 0.9665
-2.0316 -7.8754 -2.5016 0.9665
-1.7479 -7.9432 -2.5016 0.9665
-1.4619 -8.0008 -2.5016 0.9665
-1.1740 -8.0482 -2.5016 0.9665
-0.8847 -8.0851 -2.5016 0.9665
-0.0112 -8.1335 -2.5017 0.9665
0.8625 -8.0878 -2.5017 0.9665
1.4400 -8.0052 -2.5017 0.9665
2.0101 -7.8815 -2.5018 0.9665
2.2915 -7.8043 -2.5018 0.9665
3.3839 -7.3966 -2.5018 0.9665
3.9054 -7.1351 -2.5018 0.9665
4.1588 -6.9905 -2.5018 0.9665
4.4068 -6.8369 -2.5019 0.9665
4.8856 -6.5035 -2.5019 0.9665
5.3392 -6.1366 -2.5019 0.9665
5.5559 -5.9412 -2.5019 0.9665
5.9675 -5.5277 -2.5019 0.9665
6.5267 -4.8548 -2.5019 0.9665
6.6967 -4.6176 -2.5019 0.9665
7.0104 -4.1258 -2.5020 0.9665
7.1539 -3.8717 -2.5020 0.9665
7.2882 -3.6127 -2.5020 0.9665
7.4131 -3.3490 -2.5020 0.9665
7.5284 -3.0810 -2.5020 0.9665
7.6341 -2.8090 -2.5020 0.9665
7.8158 -2.2546 -2.5020 0.9665
7.9573 -1.6886 -2.5020 0.9665
3.6250 -0.5011 -1.1256 0.9848
-6.4959 -3.7990 -2.5014 0.9688
-6.3555 -4.0295 -2.5014 0.9688
-5.7140 -4.8969 -2.5014 0.9688
-5.5348 -5.0987 -2.5014 0.9688
-5.3479 -5.2939 -2.5015 0.9688
-4.5365 -6.0043 -2.5015 0.9688
-4.3183 -6.1632 -2.5015 0.9688
-3.6314 -6.5914 -2.5015 0.9688
-2.3974 -7.1336 -2.5016 0.9688
-2.1400 -7.2151 -2.5016 0.9688
-1.8799 -7.2872 -2.5016 0.9688
-0.8186 -7.4812 -2.5016 0.9688
-0.0103 -7.5260 -2.5017 0.9688
0.7981 -7.4837 -2.5017 0.9688
1.0659 -7.4503 -2.5017 0.9688
1.5972 -7.3547 -2.5017 0.9688
2.1203 -7.2214 -2.5018 0.9688
2.3779 -7.1408 -2.5018 0.9688
2.8837 -6.9520 -2.5018 0.9688
3.3746 -6.7275 -2.5018 0.9688
3.8482 -6.4683 -2.5018 0.9688
4.0776 -6.3262 -2.5018 0.9688
4.5207 -6.0177 -2.5019 0.9688
5.7016 -4.9135 -2.5019 0.9688
6.3457 -4.0478 -2.5019 0.9688
6.4868 -3.8176 -2.5019 0.9688
6.8593 -3.0988 -2.5020 0.9688
6.9661 -2.8509 -2.5020 0.9688
7.0638 -2.5992 -2.5020 0.9688
7.2320 -2.0862 -2.5020 0.9688
3.4965 -0.4833 -1.1733 0.9852
-6.0381 -3.5313 -2.5014 0.9707
-5.9076 -3.7455 -2.5014 0.9707
-5.7695 -3.9550 -2.5014 0.9707
-5.4712 -4.3584 -2.5014 0.9707
-4.9715 -4.9209 -2.5015 0.9707
-4.7918 -5.0960 -2.5015 0.9707
-4.6060 -5.2646 -2.5015 0.9707
-4.2168 -5.5812 -2.5015 0.9707
-4.0140 -5.7289 -2.5015 0.9707
-3.5930 -6.0019 -2.5015 0.9707
-3.1536 -6.2441 -2.5015 0.9707
-2.2284 -6.6309 -2.5016 0.9707
-1.5034 -6.8320 -2.5016 0.9707
-1.2574 -6.8816 -2.5016 0.9707
-1.0098 -6.9222 -2.5016 0.9707
-0.7609 -6.9540 -2.5016 0.9707
-0.5110 -6.9769 -2.5017 0.9707
-0.0096 -6.9956 -2.5017 0.9707
0.2413 -6.9915 -2.5017 0.9707
0.4919 -6.9784 -2.5017 0.9707
1.7289 -6.7788 -2.5017 0.9707
2.6804 -6.4621 -2.5018 0.9707
3.1368 -6.2533 -2.5018 0.9707
3.5770 -6.0125 -2.5018 0.9707
3.7903 -5.8804 -2.5018 0.9707
4.4000 -5.4393 -2.5019 0.9707
4.5922 -5.2780 -2.5019 0.9707
5.1326 -4.7543 -2.5019 0.9707
5.2998 -4.5672 -2.5019 0.9707
5.6136 -4.1756 -2.5019 0.9707
6.2685 -3.1072 -2.5019 0.9707
6.3759 -2.8805 -2.5019 0.9707
6.7875 -1.6969 -2.5020 0.9707
3.6973 -0.7846 -1.3516 0.9841
3.3842 -0.4678 -1.2217 0.9856
-5.6346 -3.2953 -2.5014 0.9724
-5.5128 -3.4953 -2.5014 0.9724
-5.2481 -3.8814 -2.5015 0.9724
-4.8009 -4.4227 -2.5015 0.9724
-4.4716 -4.7555 -2.5015 0.9724
-4.2982 -4.9128 -2.5015 0.9724
-4.1193 -5.0638 -2.5015 0.9724
-3.7457 -5.3461 -2.5015 0.9724
-3.3529 -5.6008 -2.5015 0.9724
-3.1499 -5.7175 -2.5015 0.9724
-2.9429 -5.8268 -2.5016 0.9724
-2.5176 -6.0228 -2.5016 0.9724
-2.3000 -6.1092 -2.5016 0.9724
-2.0795 -6.1878 -2.5016 0.9724
-0.9423 -6.4596 -2.5016 0.9724
-0.7100 -6.4893 -2.5016 0.9724
-0.0090 -6.5281 -2.5017 0.9724
0.2252 -6.5242 -2.5017 0.9724
0.4590 -6.5120 -2.5017 0.9724
1.1558 -6.4251 -2.5017 0.9724
1.3854 -6.3796 -2.5017 0.9724
1.6133 -6.3258 -2.5017 0.9724
1.8392 -6.2639 -2.5017 0.9724
2.0626 -6.1939 -2.5018 0.9724
2.7160 -5.9366 -2.5018 0.9724
3.1345 -5.7267 -2.5018 0.9724
3.3379 -5.6107 -2.5018 0.9724
3.7315 -5.3570 -2.5018 0.9724
4.9456 -4.2620 -2.5019 0.9724
5.0952 -4.0819 -2.5019 0.9724
5.2384 -3.8965 -2.5019 0.9724
5.3748 -3.7062 -2.5019 0.9724
5.6266 -3.3114 -2.5019 0.9724
5.7417 -3.1075 -2.5019 0.9724
5.9497 -2.6879 -2.5019 0.9724
6.0423 -2.4728 -2.5019 0.9724
6.2040 -2.0334 -2.5019 0.9724
6.3338 -1.5835 -2.5019 0.9724
3.3768 -0.7166 -1.3229 0.9853
3.3455 -0.5854 -1.3016 0.9856
-4.4953 -4.1411 -2.5015 0.9739
-4.1869 -4.4527 -2.5015 0.9739
-3.8570 -4.7414 -2.5015 0.9739
-3.6845 -4.8767 -2.5015 0.9739
-3.5073 -5.0057 -2.5015 0.9739
-3.1392 -5.2443 -2.5015 0.9739
-2.7555 -5.4559 -2.5016 0.9739
-2.5581 -5.5512 -2.5016 0.9739
-1.9471 -5.7938 -2.5016 0.9739
-1.7381 -5.8600 -2.5016 0.9739
-1.0987 -6.0128 -2.5016 0.9739
-0.6648 -6.0762 -2.5016 0.9739
0.6482 -6.0781 -2.5017 0.9739
1.0822 -6.0160 -2.5017 0.9739
1.5106 -5.9230 -2.5017 0.9739
1.7221 -5.8651 -2.5017 0.9739
2.3420 -5.6462 -2.5018 0.9739
2.5430 -5.5586 -2.5018 0.9739
2.7408 -5.4639 -2.5018 0.9739
2.9350 -5.3621 -2.5018 0.9739
3.3118 -5.1380 -2.5018 0.9739
3.4939 -5.0159 -2.5018 0.9739
4.0125 -4.6117 -2.5018 0.9739
4.3327 -4.3122 -2.5019 0.9739
4.9048 -3.6484 -2.5019 0.9739
5.0325 -3.4702 -2.5019 0.9739
5.1538 -3.2875 -2.5019 0.9739
5.3762 -2.9096 -2.5019 0.9739
5.4771 -2.7150 -2.5019 0.9739
5.6576 -2.3154 -2.5019 0.9739
5.7370 -2.1110 -2.5019 0.9739
5.8091 -1.9039 -2.5019 0.9739
5.8736 -1.6944 -2.5019 0.9739
3.3418 -0.7091 -1.3982 0.9853
-4.9546 -2.8976 -2.5015 0.9753
-4.7342 -3.2453 -2.5015 0.9753
-4.3583 -3.7350 -2.5015 0.9753
-4.2216 -3.8889 -2.5015 0.9753
-3.9320 -4.1816 -2.5015 0.9753
-3.4601 -4.5797 -2.5015 0.9753
-3.2937 -4.7009 -2.5015 0.9753
-3.1230 -4.8160 -2.5015 0.9753
-2.9483 -4.9249 -2.5016 0.9753
-2.7698 -5.0275 -2.5016 0.9753
-2.5877 -5.1236 -2.5016 0.9753
-2.4019 -5.2131 -2.5016 0.9753
-2.2135 -5.2959 -2.5016 0.9753
-2.0225 -5.3720 -2.5016 0.9753
-1.8285 -5.4410 -2.5016 0.9753
-1.6322 -5.5031 -2.5016 0.9753
-1.4338 -5.5581 -2.5016 0.9753
-1.2336 -5.6060 -2.5016 0.9753
-0.4193 -5.7249 -2.5017 0.9753
-0.0079 -5.7402 -2.5017 0.9753
0.1980 -5.7369 -2.5017 0.9753
0.4036 -5.7261 -2.5017 0.9753
0.8130 -5.6824 -2.5017 0.9753
1.0163 -5.6496 -2.5017 0.9753
1.2182 -5.6096 -2.5017 0.9753
1.4186 -5.5623 -2.5017 0.9753
1.6172 -5.5079 -2.5017 0.9753
2.3883 -5.2201 -2.5018 0.9753
2.7562 -5.0355 -2.5018 0.9753
3.2811 -4.7104 -2.5018 0.9753
3.4479 -4.5897 -2.5018 0.9753
3.6103 -4.4631 -2.5018 0.9753
4.2114 -3.9011 -2.5018 0.9753
4.3486 -3.7475 -2.5019 0.9753
4.7260 -3.2588 -2.5019 0.9753
4.8398 -3.0872 -2.5019 0.9753
4.9475 -2.9117 -2.5019 0.9753
5.0487 -2.7324 -2.5019 0.9753
5.1435 -2.5496 -2.5019 0.9753
5.2316 -2.3635 -2.5019 0.9753
5.3130 -2.1744 -2.5019 0.9753
5.4552 -1.7880 -2.5019 0.9753
5.5158 -1.5912 -2.5019 0.9753
5.5693 -1.3923 -2.5019 0.9753
3.3069 -0.7017 -1.4733 0.9854
3.2902 -0.5757 -1.4557 0.9855
3.2926 -0.4551 -1.4486 0.9856
-4.5641 -2.8937 -2.5015 0.9765
-4.4574 -3.0556 -2.5015 0.9765
-4.1035 -3.5167 -2.5015 0.9765
-3.8408 -3.8018 -2.5015 0.9765
-3.7021 -3.9371 -2.5015 0.9765
-3.5585 -4.0673 -2.5015 0.9765
-3.4103 -4.1923 -2.5015 0.9765
-3.2578 -4.3119 -2.5015 0.9765
-3.1011 -4.4260 -2.5015 0.9765
-2.4364 -4.8240 -2.5016 0.9765
-2.0843 -4.9862 -2.5016 0.9765
-1.9042 -5.0578 -2.5016 0.9765
-1.7216 -5.1229 -2.5016 0.9765
-1.5368 -5.1813 -2.5016 0.9765
-1.3499 -5.2331 -2.5016 0.9765
-0.5878 -5.3724 -2.5016 0.9765
-0.3948 -5.3901 -2.5017 0.9765
-0.2012 -5.4008 -2.5017 0.9765
-0.0074 -5.4046 -2.5017 0.9765
0.5731 -5.3742 -2.5017 0.9765
0.7654 -5.3501 -2.5017 0.9765
0.9568 -5.3193 -2.5017 0.9765
1.7076 -5.1278 -2.5017 0.9765
1.8904 -5.0633 -2.5018 0.9765
2.0708 -4.9923 -2.5018 0.9765
2.4233 -4.8311 -2.5018 0.9765
2.5950 -4.7411 -2.5018 0.9765
3.0892 -4.4349 -2.5018 0.9765
3.3992 -4.2021 -2.5018 0.9765
3.5477 -4.0776 -2.5018 0.9765
3.6917 -3.9477 -2.5018 0.9765
4.0943 -3.5284 -2.5018 0.9765
4.2183 -3.3793 -2.5018 0.9765
4.3367 -3.2258 -2.5019 0.9765
4.5568 -2.9067 -2.5019 0.9765
4.6581 -2.7414 -2.5019 0.9765
4.7535 -2.5726 -2.5019 0.9765
4.8427 -2.4005 -2.5019 0.9765
4.9256 -2.2253 -2.5019 0.9765
5.0023 -2.0472 -2.5019 0.9765
5.1362 -1.6834 -2.5019 0.9765
5.1932 -1.4981 -2.5019 0.9765
3.3662 -0.8415 -1.6061 0.9848
3.2721 -0.6943 -1.5483 0.9854
3.2680 -0.5719 -1.5357 0.9855
3.2692 -0.4519 -1.5277 0.9856
-4.2063 -2.8834 -2.5015 0.9775
-4.1002 -3.0324 -2.5015 0.9775
-3.8723 -3.3185 -2.5015 0.9775
-3.7508 -3.4552 -2.5015 0.9775
-3.4935 -3.7153 -2.5015 0.9775
-3.2182 -3.9561 -2.5015 0.9775
-3.0743 -4.0690 -2.5015 0.9775
-2.7747 -4.2789 -2.5016 0.9775
-2.6195 -4.3756 -2.5016 0.9775
-2.4609 -4.4668 -2.5016 0.9775
-2.1344 -4.6317 -2.5016 0.9775
-1.7969 -4.7728 -2.5016 0.9775
-1.6246 -4.8342 -2.5016 0.9775
-1.2739 -4.9383 -2.5016 0.9775
-0.9167 -5.0169 -2.5016 0.9775
-0.7362 -5.0466 -2.5016 0.9775
-0.3725 -5.0864 -2.5017 0.9775
-0.1899 -5.0965 -2.5017 0.9775
0.7223 -5.0487 -2.5017 0.9775
1.0823 -4.9840 -2.5017 0.9775
1.7839 -4.7780 -2.5017 0.9775
1.9541 -4.7110 -2.5018 0.9775
2.1218 -4.6379 -2.5018 0.9775
2.4488 -4.4739 -2.5018 0.9775
2.6077 -4.3832 -2.5018 0.9775
2.9152 -4.1851 -2.5018 0.9775
3.2077 -3.9654 -2.5018 0.9775
3.6150 -3.5979 -2.5018 0.9775
4.1989 -2.8954 -2.5018 0.9775
4.3000 -2.7429 -2.5018 0.9775
4.3957 -2.5870 -2.5019 0.9775
4.6481 -2.0999 -2.5019 0.9775
4.7867 -1.7613 -2.5019 0.9775
3.2461 -0.5680 -1.6165 0.9854
3.2457 -0.4487 -1.6072 0.9855
-4.1623 -2.4343 -2.5015 0.9785
-4.0724 -2.5820 -2.5015 0.9785
-3.8768 -2.8672 -2.5015 0.9785
-3.7715 -3.0044 -2.5015 0.9785
-3.5465 -3.2671 -2.5015 0.9785
-3.4271 -3.3922 -2.5015 0.9785
-3.3032 -3.5129 -2.5015 0.9785
-3.0429 -3.7407 -2.5015 0.9785
-2.9068 -3.8474 -2.5016 0.9785
-2.7670 -3.9491 -2.5016 0.9785
-2.3269 -4.2235 -2.5016 0.9785
-2.1739 -4.3043 -2.5016 0.9785
-1.8598 -4.4490 -2.5016 0.9785
-1.5361 -4.5709 -2.5016 0.9785
-1.2045 -4.6693 -2.5016 0.9785
-0.3523 -4.8094 -2.5017 0.9785
1.0234 -4.7125 -2.5017 0.9785
1.1918 -4.6728 -2.5017 0.9785
1.3586 -4.6271 -2.5017 0.9785
1.8477 -4.4544 -2.5017 0.9785
2.0062 -4.3853 -2.5018 0.9785
2.1622 -4.3105 -2.5018 0.9785
2.4656 -4.1445 -2.5018 0.9785
2.6127 -4.0534 -2.5018 0.9785
3.0329 -3.7494 -2.5018 0.9785
3.2939 -3.5223 -2.5018 0.9785
3.4181 -3.4020 -2.5018 0.9785
3.8695 -2.8782 -2.5018 0.9785
4.0658 -2.5935 -2.5018 0.9785
4.1562 -2.4460 -2.5018 0.9785
4.2413 -2.2954 -2.5018 0.9785
4.3209 -2.1418 -2.5019 0.9785
4.4633 -1.8266 -2.5019 0.9785
4.5827 -1.5020 -2.5019 0.9785
4.6337 -1.3367 -2.5019 0.9785
3.3160 -0.8290 -1.7732 0.9847
3.2305 -0.6855 -1.7132 0.9852
3.2235 -0.5641 -1.6977 0.9854
3.2232 -0.4455 -1.6880 0.9854
-3.9425 -2.3057 -2.5015 0.9794
-3.4680 -2.9721 -2.5015 0.9794
-3.2461 -3.2130 -2.5015 0.9794
-3.0074 -3.4374 -2.5015 0.9794
-2.8822 -3.5431 -2.5016 0.9794
-2.7533 -3.6442 -2.5016 0.9794
-2.6209 -3.7406 -2.5016 0.9794
-2.4850 -3.8322 -2.5016 0.9794
-2.2040 -4.0005 -2.5016 0.9794
-2.0591 -4.0770 -2.5016 0.9794
-1.9116 -4.1482 -2.5016 0.9794
-1.6093 -4.2746 -2.5016 0.9794
-1.2988 -4.3790 -2.5016 0.9794
-0.9816 -4.4608 -2.5016 0.9794
-0.8210 -4.4931 -2.5016 0.9794
-0.6593 -4.5197 -2.5016 0.9794
-0.1701 -4.5644 -2.5017 0.9794
-0.0063 -4.5676 -2.5017 0.9794
0.1575 -4.5649 -2.5017 0.9794
0.3211 -4.5563 -2.5017 0.9794
0.4843 -4.5419 -2.5017 0.9794
0.9694 -4.4637 -2.5017 0.9794
1.4432 -4.3337 -2.5017 0.9794
1.5977 -4.2792 -2.5017 0.9794
1.9003 -4.1537 -2.5018 0.9794
2.0480 -4.0829 -2.5018 0.9794
2.1931 -4.0068 -2.5018 0.9794
2.3354 -3.9256 -2.5018 0.9794
2.4747 -3.8393 -2.5018 0.9794
2.6108 -3.7481 -2.5018 0.9794
2.8727 -3.5513 -2.5018 0.9794
2.9983 -3.4461 -2.5018 0.9794
3.2376 -3.2223 -2.5018 0.9794
3.3511 -3.1041 -2.5018 0.9794
3.4602 -2.9819 -2.5018 0.9794
3.5650 -2.8559 -2.5018 0.9794
3.7605 -2.5931 -2.5018 0.9794
3.8511 -2.4565 -2.5018 0.9794
3.9367 -2.3168 -2.5018 0.9794
4.0173 -2.1742 -2.5018 0.9794
4.2869 -1.5774 -2.5018 0.9794
4.3407 -1.4227 -2.5019 0.9794
4.3889 -1.2661 -2.5019 0.9794
3.2143 -0.6821 -1.7997 0.9851
-3.7401 -2.1873 -2.5015 0.9802
-3.6593 -2.3200 -2.5015 0.9802
-3.5737 -2.4498 -2.5015 0.9802
-3.4836 -2.5764 -2.5015 0.9802
-2.9681 -3.1566 -2.5016 0.9802
-2.6119 -3.4571 -2.5016 0.9802
-2.4863 -3.5486 -2.5016 0.9802
-2.3574 -3.6354 -2.5016 0.9802
-2.2255 -3.7176 -2.5016 0.9802
-2.0908 -3.7951 -2.5016 0.9802
-1.9534 -3.8676 -2.5016 0.9802
-1.6711 -3.9977 -2.5016 0.9802
-1.2321 -4.1541 -2.5016 0.9802
-1.0823 -4.1956 -2.5016 0.9802
-0.9312 -4.2318 -2.5016 0.9802
-0.6255 -4.2876 -2.5016 0.9802
-0.4713 -4.3073 -2.5017 0.9802
-0.3165 -4.3214 -2.5017 0.9802
0.1494 -4.3305 -2.5017 0.9802
0.3046 -4.3224 -2.5017 0.9802
0.7671 -4.2647 -2.5017 0.9802
1.0708 -4.1988 -2.5017 0.9802
1.2207 -4.1576 -2.5017 0.9802
1.6602 -4.0025 -2.5017 0.9802
1.9429 -3.8732 -2.5018 0.9802
2.0805 -3.8011 -2.5018 0.9802
2.2155 -3.7240 -2.5018 0.9802
2.4767 -3.5557 -2.5018 0.9802
2.6027 -3.4645 -2.5018 0.9802
2.8443 -3.2691 -2.5018 0.9802
2.9597 -3.1650 -2.5018 0.9802
3.0713 -3.0568 -2.5018 0.9802
3.1790 -2.9447 -2.5018 0.9802
3.2826 -2.8288 -2.5018 0.9802
3.4769 -2.5863 -2.5018 0.9802
3.7346 -2.1979 -2.5018 0.9802
3.9490 -1.7841 -2.5018 0.9802
4.0104 -1.6413 -2.5018 0.9802
4.0668 -1.4964 -2.5018 0.9802
3.2676 -0.8169 -1.9446 0.9846
3.1978 -0.6786 -1.8874 0.9850
