ply
format ascii 1.0
element vertex 758
property float32 x
property float32 y
property float32 z
property float32 I
end_header
-3.6169 9.1971 1.7426 0.9607
-4.8224 39.5572 6.1048 0.8511
-3.6168 9.1971 1.5140 0.9608
-3.6168 9.1970 1.2869 0.9609
-3.6168 9.1970 1.0612 0.9610
37.8597 20.5666 3.6473 0.8412
37.8990 22.4010 3.7268 0.8380
37.9401 24.3198 3.8149 0.8345
44.6283 20.2109 3.0380 0.8217
37.8984 22.4007 2.7299 0.8383
37.9827 26.3337 2.8660 0.8309
38.0282 28.4568 2.9453 0.8267
-4.8282 39.6050 2.4741 0.8522
44.6282 20.2109 1.9318 0.8219
37.8979 22.4004 1.7359 0.8384
37.9821 26.3334 1.8224 0.8311
38.0276 28.4563 1.8728 0.8269
-4.8275 39.5992 1.5730 0.8524
-5.2986 16.9909 0.7018 0.9312
44.6282 20.2109 0.8276 0.8220
37.8579 20.5657 0.7278 0.8417
37.8972 22.4000 0.7436 0.8385
37.9814 26.3329 0.7807 0.8312
38.0270 28.4559 0.8023 0.8270
-4.8268 39.5934 0.6738 0.8525
-5.2980 16.9890 0.3006 0.9313
-5.3594 15.2241 0.2726 0.9375
-6.6854 13.9437 0.2612 0.9400
44.6249 20.2095 -0.2758 0.8220
37.9377 24.3183 -0.2537 0.8351
37.9809 26.3325 -0.2602 0.8312
-6.7082 12.7829 -0.0813 0.9439
40.8076 20.2912 -1.2833 0.8333
37.8961 22.3994 -1.2395 0.8385
37.9372 24.3180 -1.2688 0.8350
37.9803 26.3321 -1.3013 0.8312
-4.8254 39.5818 -1.1228 0.8525
-5.2968 16.9851 -0.5010 0.9313
-3.6167 9.1968 -0.2783 0.9612
-5.5657 12.7749 -0.3924 0.9458
-6.1439 12.8143 -0.4002 0.9447
-6.7082 12.7829 -0.4065 0.9439
-35.0822 33.4615 -1.3651 0.8237
-35.9162 31.8561 -1.3518 0.8252
44.5443 14.5962 -2.3772 0.8288
37.8563 20.5649 -2.1848 0.8415
37.9798 26.3317 -2.3438 0.8310
36.3829 29.3382 -2.3703 0.8293
35.2867 30.6264 -2.3696 0.8293
29.1561 36.4254 -2.3662 0.8296
27.8103 37.4451 -2.3655 0.8296
23.5559 40.1832 -2.3622 0.8298
22.0762 40.9905 -2.3611 0.8299
20.5747 41.7552 -2.3607 0.8299
17.4940 43.1176 -2.3598 0.8300
15.9190 43.7135 -2.3593 0.8300
14.3236 44.2515 -2.3588 0.8300
12.7100 44.7309 -2.3583 0.8301
9.4369 45.5117 -2.3572 0.8301
4.4456 46.2310 -2.3554 0.8303
-0.5904 46.4023 -2.3534 0.8304
-2.2686 46.3373 -2.3528 0.8304
-3.9426 46.2097 -2.3520 0.8305
-4.7991 39.3660 -2.0112 0.8531
-11.2143 47.9167 -2.4957 0.8211
-12.9362 47.4620 -2.4948 0.8212
-5.2962 16.9832 -0.9022 0.9312
-5.3811 15.2855 -0.8218 0.9372
-3.6167 9.1967 -0.5012 0.9612
-25.8784 41.6770 -2.4879 0.8216
-28.8070 39.6712 -2.4864 0.8217
-30.2147 38.5912 -2.4856 0.8218
-30.5716 36.2628 -2.4054 0.8270
-30.9031 34.0734 -2.3329 0.8317
-32.4871 30.9863 -2.2768 0.8354
-32.5500 28.8704 -2.2065 0.8401
30.3351 11.1712 -2.3703 0.8784
29.9057 12.2595 -2.3698 0.8784
29.4370 13.3312 -2.3694 0.8784
28.9298 14.3851 -2.3690 0.8785
28.3846 15.4195 -2.3685 0.8785
27.8022 16.4331 -2.3680 0.8785
27.1835 17.4248 -2.3675 0.8785
25.8406 19.3367 -2.3664 0.8786
22.7586 22.8409 -2.3642 0.8787
21.0388 24.4178 -2.3633 0.8787
20.1372 25.1579 -2.3628 0.8788
18.2570 26.5371 -2.3618 0.8788
17.2809 27.1744 -2.3612 0.8788
16.2825 27.7759 -2.3607 0.8789
15.2613 28.3369 -2.3599 0.8789
14.2204 28.8596 -2.3590 0.8789
13.1617 29.3441 -2.3581 0.8790
8.7769 30.8888 -2.3545 0.8792
3.0698 31.9240 -2.3515 0.8793
0.7525 32.0504 -2.3507 0.8793
-0.4078 32.0505 -2.3502 0.8794
-1.5671 32.0083 -2.3497 0.8794
-2.7238 31.9243 -2.3493 0.8794
-3.8765 31.7982 -2.3488 0.8794
-5.0201 31.6080 -2.3466 0.8795
-6.1590 31.3976 -2.3460 0.8796
-8.9551 32.8556 -2.4969 0.8723
-5.2956 16.9812 -1.3042 0.9311
-5.3812 15.2861 -1.1882 0.9371
-3.6167 9.1967 -0.7246 0.9611
-6.1439 12.8143 -1.0420 0.9446
-6.7082 12.7829 -1.0585 0.9437
-16.8766 29.5121 -2.4927 0.8725
-18.9586 28.2015 -2.4916 0.8726
-20.9399 26.7452 -2.4906 0.8726
-23.7011 24.3038 -2.4891 0.8727
-24.5605 23.4259 -2.4886 0.8727
23.6517 6.8129 -2.3630 0.9058
23.4111 7.6713 -2.3652 0.9057
22.8085 9.3501 -2.3666 0.9057
22.4521 10.1680 -2.3662 0.9057
22.0662 10.9722 -2.3659 0.9057
15.7918 8.5787 -1.7254 0.9303
21.2082 12.5356 -2.3652 0.9057
20.7373 13.2927 -2.3648 0.9058
20.2393 14.0321 -2.3644 0.9058
17.9902 16.7935 -2.3627 0.9058
17.3674 17.4303 -2.3623 0.9059
16.7221 18.0439 -2.3618 0.9059
16.0550 18.6336 -2.3614 0.9059
14.6605 19.7396 -2.3606 0.9059
13.9342 20.2539 -2.3602 0.9059
13.1900 20.7414 -2.3598 0.9059
7.5571 23.3469 -2.3559 0.9061
6.7053 23.5982 -2.3552 0.9061
5.8452 23.8186 -2.3545 0.9061
4.1048 24.1651 -2.3532 0.9062
3.2267 24.2910 -2.3525 0.9062
2.3449 24.3850 -2.3519 0.9062
1.4605 24.4471 -2.3512 0.9063
-1.1966 24.4417 -2.3493 0.9063
-2.9598 24.2787 -2.3481 0.9064
-3.8355 24.1496 -2.3475 0.9064
-4.7058 23.9892 -2.3470 0.9064
-5.5662 12.7760 -1.3379 0.9455
-12.9002 22.5584 -2.4948 0.9008
-13.7057 22.0730 -2.4944 0.9009
-14.4931 21.5589 -2.4940 0.9009
-15.2613 21.0169 -2.4936 0.9009
-16.0093 20.4476 -2.4932 0.9009
-16.7362 19.8518 -2.4928 0.9009
-17.4410 19.2302 -2.4924 0.9009
-18.1229 18.5838 -2.4921 0.9009
20.3251 5.8546 -2.5125 0.9183
18.9806 6.2195 -2.3726 0.9227
18.6476 6.8672 -2.3605 0.9231
18.3998 7.5429 -2.3622 0.9230
15.6995 8.5285 -2.1223 0.9306
16.7484 10.7358 -2.3631 0.9230
15.9237 11.9158 -2.3625 0.9230
15.4798 12.4825 -2.3621 0.9230
14.0296 14.0804 -2.3611 0.9231
10.6564 16.7572 -2.3589 0.9231
10.0415 17.1295 -2.3586 0.9231
9.4138 17.4793 -2.3583 0.9231
8.1226 18.1093 -2.3576 0.9232
7.4608 18.3887 -2.3573 0.9232
6.7892 18.6430 -2.3568 0.9232
6.1086 18.8720 -2.3562 0.9232
5.4204 19.0763 -2.3557 0.9232
4.0246 19.4093 -2.3546 0.9233
3.3188 19.5377 -2.3540 0.9233
2.6090 19.6405 -2.3535 0.9233
1.8961 19.7176 -2.3530 0.9233
-0.9678 19.7676 -2.3509 0.9234
-1.6821 19.7155 -2.3504 0.9234
-3.1025 19.5342 -2.3495 0.9234
-5.2209 16.7417 -2.0831 0.9318
-6.5576 18.6276 -2.3458 0.9235
-3.6167 9.1966 -1.1739 0.9610
-6.1349 12.7956 -1.6856 0.9444
-10.4317 18.2417 -2.4961 0.9188
-11.7205 17.4346 -2.4955 0.9189
-12.9475 16.5369 -2.4948 0.9189
-13.5357 16.0556 -2.4945 0.9189
-15.1907 14.4889 -2.4936 0.9189
17.0277 4.9048 -2.5107 0.9309
16.6270 6.1231 -2.5105 0.9309
15.3950 6.3110 -2.3575 0.9350
15.1640 6.8674 -2.3586 0.9350
14.6439 7.9551 -2.3613 0.9349
14.3523 8.4833 -2.3622 0.9349
14.0344 8.9962 -2.3620 0.9349
13.6981 9.4971 -2.3617 0.9349
11.7578 11.8003 -2.3603 0.9349
11.3216 12.2165 -2.3600 0.9349
10.8706 12.6166 -2.3597 0.9349
9.9270 13.3662 -2.3590 0.9349
8.4164 14.3573 -2.3580 0.9350
7.8904 14.6508 -2.3578 0.9350
7.3542 14.9250 -2.3575 0.9350
5.6913 15.6284 -2.3566 0.9350
5.1214 15.8222 -2.3563 0.9350
4.5448 15.9948 -2.3560 0.9350
3.9622 16.1456 -2.3555 0.9350
2.1879 16.4704 -2.3542 0.9351
0.9905 16.5792 -2.3533 0.9351
0.3898 16.6012 -2.3529 0.9351
-1.4109 16.5367 -2.3516 0.9351
-3.1932 16.2782 -2.3504 0.9352
-5.4989 15.6203 -2.3464 0.9353
-6.6126 15.1778 -2.3458 0.9353
-9.2954 14.9702 -2.4967 0.9313
-10.8594 13.8700 -2.4959 0.9313
-12.2949 12.6076 -2.4952 0.9313
-13.1721 11.6831 -2.4947 0.9313
14.2935 5.2637 -2.5093 0.9401
13.6866 6.1983 -2.4752 0.9409
12.8062 6.3678 -2.3561 0.9437
11.4732 8.5855 -2.3607 0.9436
11.1538 8.9942 -2.3604 0.9436
10.1101 10.1467 -2.3597 0.9436
8.1140 11.7940 -2.3583 0.9436
5.8551 13.0540 -2.3569 0.9437
5.3783 13.2560 -2.3567 0.9437
4.8946 13.4405 -2.3564 0.9437
4.4045 13.6074 -2.3562 0.9437
3.9088 13.7565 -2.3559 0.9437
3.4081 13.8874 -2.3557 0.9437
2.9030 14.0002 -2.3554 0.9437
2.3940 14.0937 -2.3550 0.9437
1.3679 14.2253 -2.3543 0.9437
-0.1817 14.2829 -2.3531 0.9437
-1.7278 14.1727 -2.3521 0.9438
-2.7476 14.0065 -2.3514 0.9438
-3.7488 13.7540 -2.3485 0.9438
-4.2415 13.6010 -2.3470 0.9439
-3.6166 9.1965 -1.6280 0.9607
-6.1567 12.8412 -2.3460 0.9439
-7.9970 12.8792 -2.4974 0.9404
-8.9059 12.2646 -2.4970 0.9404
-9.3430 11.9332 -2.4967 0.9404
-10.5785 10.8475 -2.4961 0.9404
-10.9632 10.4567 -2.4959 0.9404
12.6820 4.1556 -2.5084 0.9471
12.3474 5.0617 -2.5083 0.9471
12.1556 5.5050 -2.5082 0.9471
11.9479 5.9410 -2.5080 0.9471
10.0428 7.5151 -2.3576 0.9502
9.4793 8.2274 -2.3592 0.9502
8.8594 8.8915 -2.3592 0.9502
7.1107 10.3357 -2.3581 0.9502
6.3432 10.8207 -2.3576 0.9502
5.9469 11.0420 -2.3573 0.9502
4.7136 11.6177 -2.3566 0.9503
4.2897 11.7794 -2.3563 0.9503
3.4258 12.0564 -2.3558 0.9503
1.6498 12.4199 -2.3550 0.9503
-0.1593 12.5213 -2.3537 0.9503
-0.6122 12.5057 -2.3534 0.9503
-1.5148 12.4253 -2.3528 0.9503
-1.9632 12.3608 -2.3525 0.9503
-2.4089 12.2801 -2.3522 0.9503
-2.8514 12.1834 -2.3519 0.9503
-3.6166 9.1965 -1.8574 0.9606
-4.9866 11.4457 -2.3466 0.9505
-5.3970 11.2566 -2.3464 0.9505
-5.8003 11.0529 -2.3462 0.9505
-8.1907 10.4615 -2.4973 0.9474
-9.2741 9.5100 -2.4968 0.9474
-9.6115 9.1675 -2.4966 0.9474
-9.9363 8.8131 -2.4964 0.9474
11.4002 3.2838 -2.5078 0.9527
11.2736 3.6941 -2.5077 0.9527
11.1322 4.0996 -2.5076 0.9527
10.6212 5.2813 -2.5073 0.9527
10.4227 5.6620 -2.5072 0.9527
9.1525 6.3456 -2.3542 0.9555
7.5830 8.1824 -2.3581 0.9554
7.2830 8.4528 -2.3585 0.9554
6.6514 8.9558 -2.3581 0.9554
5.9851 9.4117 -2.3576 0.9554
5.6400 9.6212 -2.3574 0.9554
4.9285 10.0021 -2.3570 0.9554
3.8144 10.4742 -2.3563 0.9554
3.4325 10.6044 -2.3561 0.9555
3.0462 10.7207 -2.3558 0.9555
1.8659 10.9846 -2.3552 0.9555
1.4670 11.0440 -2.3550 0.9555
1.0663 11.0889 -2.3548 0.9555
0.2614 11.1352 -2.3544 0.9555
-0.5445 11.1223 -2.3539 0.9555
-1.3473 11.0512 -2.3533 0.9555
-1.7461 10.9940 -2.3530 0.9555
-2.1426 10.9224 -2.3528 0.9555
-2.5362 10.8365 -2.3525 0.9555
-2.9257 10.7342 -2.3518 0.9555
-3.3091 10.6111 -2.3495 0.9556
-3.6166 9.1965 -2.0889 0.9604
-6.1919 9.2107 -2.3460 0.9556
-7.2847 9.3042 -2.4978 0.9528
-7.6161 9.0339 -2.4976 0.9528
-7.9375 8.7518 -2.4975 0.9528
-8.8375 7.8385 -2.4970 0.9529
10.0099 3.6863 -2.5070 0.9571
9.7165 4.4004 -2.5069 0.9571
9.5505 4.7489 -2.5068 0.9571
9.1813 5.4268 -2.5066 0.9571
8.9785 5.7553 -2.5065 0.9571
8.2925 6.2054 -2.4342 0.9583
7.3230 6.8358 -2.3544 0.9597
7.0725 7.0981 -2.3550 0.9597
5.9794 8.0509 -2.3569 0.9596
5.6851 8.2635 -2.3573 0.9596
5.0724 8.6529 -2.3573 0.9596
3.4306 9.4205 -2.3563 0.9596
2.7398 9.6423 -2.3559 0.9596
2.3888 9.7343 -2.3557 0.9597
2.0348 9.8135 -2.3555 0.9597
1.6782 9.8799 -2.3553 0.9597
0.5975 10.0010 -2.3547 0.9597
-0.4898 10.0046 -2.3541 0.9597
-0.8515 9.9796 -2.3540 0.9597
-1.5707 9.8899 -2.3535 0.9597
-1.9274 9.8257 -2.3533 0.9597
-2.2815 9.7485 -2.3530 0.9597
-3.9890 9.1558 -2.3472 0.9598
-4.9567 8.6676 -2.3467 0.9598
-5.5698 8.2853 -2.3463 0.9598
-6.5529 8.3695 -2.4982 0.9573
-6.8510 8.1264 -2.4980 0.9573
-7.1402 7.8727 -2.4979 0.9573
-7.4199 7.6087 -2.4977 0.9573
-7.6900 7.3348 -2.4976 0.9573
9.1997 3.0145 -2.5066 0.9608
8.8181 3.9935 -2.5064 0.9608
8.6675 4.3099 -2.5063 0.9608
8.3325 4.9251 -2.5061 0.9608
7.9538 5.5145 -2.5059 0.9608
7.7487 5.7984 -2.5058 0.9608
7.5334 6.0748 -2.5057 0.9608
6.6674 6.2239 -2.3616 0.9630
6.1782 6.6665 -2.3533 0.9631
5.9340 6.8871 -2.3538 0.9631
5.4222 7.3008 -2.3546 0.9631
5.1553 7.4934 -2.3550 0.9631
4.3145 8.0112 -2.3559 0.9631
3.1140 8.5511 -2.3563 0.9631
2.8023 8.6575 -2.3561 0.9631
1.1978 9.0169 -2.3552 0.9631
-0.4446 9.0819 -2.3543 0.9631
-0.7729 9.0591 -2.3541 0.9631
-1.1002 9.0246 -2.3539 0.9631
-1.7498 8.9202 -2.3536 0.9631
-2.3900 8.7689 -2.3533 0.9631
-2.7044 8.6723 -2.3521 0.9632
-3.0142 8.5621 -2.3502 0.9632
-3.3182 8.4377 -2.3475 0.9632
-3.6211 8.3115 -2.3474 0.9632
-3.9193 8.1745 -2.3472 0.9632
-4.4997 7.8686 -2.3469 0.9632
-4.7812 7.7001 -2.3468 0.9632
-5.9489 7.5981 -2.4985 0.9609
-6.7362 6.9075 -2.4981 0.9609
-6.9814 6.6588 -2.4980 0.9609
-7.2174 6.4015 -2.4979 0.9609
8.5071 2.4505 -2.5062 0.9639
8.4127 2.7567 -2.5062 0.9639
7.9261 3.9412 -2.5059 0.9639
7.4515 4.7765 -2.5057 0.9639
6.8892 5.5553 -2.5054 0.9639
6.6833 5.8007 -2.5052 0.9639
6.4688 6.0385 -2.5051 0.9639
5.7568 6.2119 -2.3976 0.9654
5.4235 6.2946 -2.3522 0.9660
4.4608 7.0147 -2.3533 0.9660
4.2046 7.1725 -2.3536 0.9660
3.6755 7.4593 -2.3541 0.9660
3.4035 7.5881 -2.3543 0.9660
3.1269 7.7068 -2.3545 0.9660
2.2736 8.0014 -2.3548 0.9660
1.9825 8.0786 -2.3549 0.9660
1.6889 8.1452 -2.3549 0.9660
1.3930 8.2009 -2.3549 0.9660
0.7962 8.2798 -2.3548 0.9660
0.4960 8.3029 -2.3547 0.9660
0.1952 8.3149 -2.3545 0.9660
-0.1058 8.3160 -2.3544 0.9660
-0.7069 8.2851 -2.3540 0.9660
-1.0062 8.2533 -2.3537 0.9660
-1.3040 8.2105 -2.3535 0.9660
-2.4735 7.9319 -2.3521 0.9660
-2.7539 7.8229 -2.3478 0.9661
-3.0350 7.7176 -2.3477 0.9661
-3.3121 7.6023 -2.3475 0.9661
-3.5849 7.4770 -2.3474 0.9661
-4.6250 6.8799 -2.3468 0.9661
-5.1398 7.0783 -2.4764 0.9643
-6.6019 5.8557 -2.4982 0.9640
7.8287 2.2551 -2.5059 0.9665
7.6448 2.8153 -2.5058 0.9665
7.5378 3.0900 -2.5057 0.9665
7.1579 3.8884 -2.5055 0.9665
7.0123 4.1448 -2.5054 0.9665
6.6937 4.6408 -2.5053 0.9665
6.1506 5.3383 -2.5050 0.9665
5.9531 5.5571 -2.5049 0.9665
5.7479 5.7687 -2.5047 0.9665
5.5351 5.9726 -2.5046 0.9665
5.3151 6.1688 -2.5045 0.9665
4.1028 6.4517 -2.3517 0.9685
3.6261 6.7329 -2.3521 0.9685
3.3804 6.8604 -2.3524 0.9685
3.1302 6.9788 -2.3525 0.9685
2.8758 7.0879 -2.3527 0.9685
2.6175 7.1878 -2.3528 0.9685
2.3558 7.2781 -2.3529 0.9685
1.0074 7.5836 -2.3530 0.9685
0.7323 7.6148 -2.3530 0.9685
0.4562 7.6360 -2.3529 0.9685
0.1795 7.6472 -2.3528 0.9685
-0.0973 7.6482 -2.3526 0.9685
-1.4717 7.5022 -2.3515 0.9685
-1.7420 7.4431 -2.3512 0.9685
-3.0486 6.9975 -2.3477 0.9686
-3.2997 6.8822 -2.3475 0.9686
-3.5464 6.7579 -2.3474 0.9686
-3.7884 6.6248 -2.3473 0.9686
-5.0087 6.3973 -2.4990 0.9666
-5.2367 6.2116 -2.4989 0.9666
-5.6718 5.8160 -2.4987 0.9666
-5.8782 5.6067 -2.4986 0.9666
7.2431 2.0864 -2.5055 0.9687
7.0730 2.6047 -2.5055 0.9687
6.8658 3.1093 -2.5053 0.9687
6.6225 3.5976 -2.5052 0.9687
6.3446 4.0670 -2.5051 0.9687
6.1931 4.2937 -2.5050 0.9687
6.0334 4.5149 -2.5049 0.9687
4.9177 5.7075 -2.5043 0.9687
4.4916 6.0477 -2.5041 0.9687
3.6418 6.2124 -2.3937 0.9701
3.1261 6.3442 -2.3510 0.9706
2.8945 6.4533 -2.3510 0.9706
2.4204 6.6465 -2.3513 0.9706
1.6860 6.8703 -2.3515 0.9706
0.1660 7.0714 -2.3512 0.9706
-0.0900 7.0724 -2.3511 0.9706
-0.3458 7.0640 -2.3509 0.9706
-0.8557 7.0193 -2.3505 0.9706
-1.3609 6.9376 -2.3500 0.9706
-1.8587 6.8193 -2.3495 0.9706
-2.1039 6.7467 -2.3491 0.9707
-3.0534 6.3685 -2.3477 0.9707
-3.3007 6.2897 -2.3611 0.9705
-3.6319 6.3511 -2.4319 0.9696
-3.9667 6.3884 -2.4996 0.9688
-4.1951 6.2403 -2.4995 0.9688
-4.6350 5.9200 -2.4992 0.9688
-5.0506 5.5687 -2.4990 0.9688
-5.2486 5.3821 -2.4989 0.9688
-5.4397 5.1884 -2.4988 0.9688
-5.6237 4.9880 -2.4987 0.9688
6.7319 1.9392 -2.5053 0.9707
6.6572 2.1815 -2.5052 0.9707
6.4818 2.6572 -2.5051 0.9707
6.1552 3.3438 -2.5050 0.9707
6.0300 3.5642 -2.5049 0.9707
5.8969 3.7800 -2.5048 0.9707
5.6077 4.1963 -2.5047 0.9707
5.2892 4.5907 -2.5045 0.9707
4.9429 4.9608 -2.5043 0.9707
4.7600 5.1362 -2.5042 0.9707
4.5708 5.3049 -2.5041 0.9707
4.3756 5.4666 -2.5040 0.9707
4.1748 5.6212 -2.5039 0.9707
3.9684 5.7683 -2.5038 0.9707
3.7569 5.9079 -2.5037 0.9707
3.3195 6.1636 -2.5035 0.9707
3.0540 6.1980 -2.4709 0.9711
2.0240 6.2531 -2.3504 0.9725
1.7963 6.3219 -2.3502 0.9725
1.5663 6.3824 -2.3501 0.9725
0.8654 6.5145 -2.3501 0.9725
0.3919 6.5597 -2.3500 0.9725
0.1542 6.5693 -2.3499 0.9725
-0.0836 6.5702 -2.3497 0.9725
-0.3213 6.5625 -2.3496 0.9725
-0.5585 6.5461 -2.3494 0.9725
-0.7950 6.5211 -2.3492 0.9725
-1.4966 6.3946 -2.3485 0.9725
-1.7269 6.3358 -2.3484 0.9725
-1.9549 6.2688 -2.3483 0.9725
-2.7074 6.2143 -2.4240 0.9716
-2.9840 6.2239 -2.4683 0.9711
-3.8997 5.8009 -2.4996 0.9707
-4.1069 5.6557 -2.4995 0.9707
-4.6950 5.1767 -2.4992 0.9707
-4.8791 5.0032 -2.4991 0.9707
-5.0568 4.8232 -2.4990 0.9708
6.2814 1.8094 -2.5050 0.9724
6.2118 2.0355 -2.5050 0.9724
6.1339 2.2589 -2.5050 0.9724
5.9542 2.6965 -2.5049 0.9724
5.7434 3.1200 -2.5047 0.9724
5.3710 3.7238 -2.5045 0.9724
5.2325 3.9156 -2.5045 0.9724
5.0873 4.1022 -2.5044 0.9724
4.7769 4.4591 -2.5042 0.9724
4.6123 4.6289 -2.5041 0.9724
4.2651 4.9501 -2.5040 0.9724
4.0830 5.1010 -2.5039 0.9724
3.8957 5.2452 -2.5038 0.9724
3.7030 5.3825 -2.5037 0.9724
2.8872 5.8594 -2.5032 0.9724
2.4556 6.0523 -2.5030 0.9724
1.7612 6.1982 -2.4693 0.9728
1.5221 6.2022 -2.4473 0.9730
1.2867 6.2057 -2.4287 0.9732
0.1459 6.2142 -2.3820 0.9737
-0.7572 6.2111 -2.3978 0.9736
-1.2174 6.2063 -2.4237 0.9733
-1.4517 6.2030 -2.4413 0.9731
-2.1667 6.1549 -2.5005 0.9724
-2.6060 5.9815 -2.5003 0.9724
-3.2385 5.6631 -2.5000 0.9724
-3.4411 5.5419 -2.4999 0.9724
-3.6393 5.4135 -2.4998 0.9724
-4.2040 4.9866 -2.4995 0.9724
-4.3816 4.8311 -2.4994 0.9724
-4.5533 4.6692 -2.4993 0.9724
-4.7192 4.5012 -2.4992 0.9725
5.6625 2.3213 -2.5047 0.9739
5.4796 2.7247 -2.5046 0.9739
5.2679 3.1137 -2.5045 0.9739
5.1517 3.3023 -2.5044 0.9739
4.8991 3.6660 -2.5043 0.9739
4.7631 3.8408 -2.5042 0.9739
4.4725 4.1750 -2.5041 0.9739
4.1585 4.4872 -2.5039 0.9739
3.2823 5.1615 -2.5034 0.9739
3.0933 5.2767 -2.5033 0.9739
2.5029 5.5801 -2.5030 0.9739
2.2992 5.6669 -2.5029 0.9739
2.0925 5.7461 -2.5028 0.9739
1.8831 5.8178 -2.5027 0.9739
1.6713 5.8818 -2.5026 0.9739
1.2414 5.9868 -2.5024 0.9739
1.0239 6.0275 -2.5022 0.9739
0.8050 6.0603 -2.5021 0.9739
0.3645 6.1021 -2.5019 0.9739
-0.5196 6.0897 -2.5014 0.9739
-1.1763 5.9967 -2.5011 0.9739
-1.3925 5.9499 -2.5010 0.9739
-1.6068 5.8954 -2.5008 0.9739
-2.0288 5.7632 -2.5006 0.9739
-2.2360 5.6858 -2.5005 0.9739
-3.5888 4.9423 -2.4998 0.9739
-3.7652 4.8090 -2.4997 0.9739
-4.1028 4.5237 -2.4995 0.9739
5.5224 1.5907 -2.5046 0.9752
5.3928 1.9860 -2.5046 0.9752
5.3173 2.1798 -2.5045 0.9752
5.2348 2.3708 -2.5045 0.9752
5.0494 2.7430 -2.5044 0.9752
4.9468 2.9239 -2.5043 0.9752
4.8376 3.1009 -2.5043 0.9752
4.6004 3.4425 -2.5041 0.9752
4.1999 3.9205 -2.5039 0.9752
3.9051 4.2138 -2.5038 0.9752
3.4250 4.6117 -2.5035 0.9752
2.5386 5.1519 -2.5030 0.9753
1.9650 5.3960 -2.5027 0.9753
1.3685 5.5764 -2.5024 0.9753
1.1658 5.6221 -2.5023 0.9753
0.9615 5.6604 -2.5022 0.9753
0.7560 5.6912 -2.5021 0.9753
0.5495 5.7146 -2.5020 0.9753
0.3423 5.7305 -2.5019 0.9753
-1.1047 5.6316 -2.5011 0.9753
-1.5090 5.5365 -2.5009 0.9753
-1.9053 5.4124 -2.5007 0.9753
-2.0999 5.3396 -2.5006 0.9753
-2.2916 5.2600 -2.5005 0.9753
-2.4804 5.1733 -2.5004 0.9753
-2.8478 4.9800 -2.5002 0.9753
-3.0261 4.8735 -2.5001 0.9753
-3.3704 4.6415 -2.4999 0.9753
-3.5360 4.5164 -2.4998 0.9753
-3.6970 4.3853 -2.4997 0.9753
5.1415 1.6848 -2.5044 0.9764
4.8443 2.4088 -2.5043 0.9764
4.5544 2.9194 -2.5041 0.9764
4.4457 3.0823 -2.5041 0.9764
4.3311 3.2411 -2.5040 0.9764
3.9541 3.6911 -2.5038 0.9764
3.8178 3.8316 -2.5037 0.9764
3.6765 3.9671 -2.5036 0.9764
3.3797 4.2224 -2.5035 0.9764
3.0653 4.4555 -2.5033 0.9764
2.5641 4.7610 -2.5031 0.9764
2.3900 4.8504 -2.5030 0.9764
2.2129 4.9336 -2.5029 0.9764
2.0328 5.0102 -2.5028 0.9764
1.8501 5.0803 -2.5027 0.9765
1.4782 5.2004 -2.5025 0.9765
1.0976 5.2933 -2.5023 0.9765
0.9053 5.3293 -2.5022 0.9765
-0.0688 5.4041 -2.5017 0.9765
-0.8476 5.3367 -2.5012 0.9765
-1.0401 5.3023 -2.5011 0.9765
-1.2313 5.2610 -2.5010 0.9765
-1.6084 5.1578 -2.5008 0.9765
-1.9771 5.0275 -2.5006 0.9765
-2.1577 4.9525 -2.5005 0.9765
-2.5101 4.7831 -2.5004 0.9765
-2.6814 4.6890 -2.5003 0.9765
-2.8492 4.5887 -2.5002 0.9765
-3.0133 4.4824 -2.5001 0.9765
-3.1734 4.3703 -2.5000 0.9765
-3.4810 4.1290 -2.4998 0.9765
-3.6280 4.0002 -2.4998 0.9765
-3.7703 3.8662 -2.4997 0.9765
-3.9076 3.7271 -2.4996 0.9765
-4.0398 3.5832 -2.4995 0.9765
4.9059 1.4132 -2.5043 0.9775
4.7907 1.7642 -2.5042 0.9775
4.5711 2.2729 -2.5041 0.9775
4.3946 2.5975 -2.5040 0.9775
4.1950 2.9085 -2.5039 0.9775
4.0869 3.0583 -2.5039 0.9775
3.8548 3.3457 -2.5037 0.9775
3.7311 3.4829 -2.5037 0.9775
3.6025 3.6156 -2.5036 0.9775
3.4692 3.7435 -2.5035 0.9775
3.0428 4.0970 -2.5033 0.9775
2.8925 4.2043 -2.5032 0.9775
2.5806 4.4022 -2.5031 0.9775
2.4195 4.4926 -2.5030 0.9775
2.2553 4.5770 -2.5029 0.9775
1.7458 4.7940 -2.5026 0.9775
1.5711 4.8538 -2.5025 0.9775
1.3944 4.9073 -2.5024 0.9775
1.2158 4.9544 -2.5023 0.9775
1.0357 4.9949 -2.5022 0.9775
0.8542 5.0290 -2.5021 0.9775
0.4882 5.0772 -2.5020 0.9775
0.1197 5.0988 -2.5018 0.9775
-0.9815 5.0037 -2.5012 0.9775
-1.1619 4.9646 -2.5011 0.9775
-1.3408 4.9192 -2.5010 0.9775
-1.5178 4.8673 -2.5009 0.9775
-1.8658 4.7444 -2.5007 0.9775
-2.0362 4.6736 -2.5006 0.9775
-2.5304 4.4249 -2.5003 0.9775
-2.9947 4.1242 -2.5001 0.9775
-3.1419 4.0130 -2.5000 0.9775
-3.2850 3.8966 -2.4999 0.9775
-3.5580 3.6485 -2.4998 0.9776
4.6384 1.3361 -2.5042 0.9785
4.5870 1.5031 -2.5041 0.9785
4.5295 1.6681 -2.5041 0.9785
4.3969 1.9913 -2.5040 0.9785
4.2412 2.3040 -2.5039 0.9785
3.9663 2.7499 -2.5038 0.9785
3.8641 2.8916 -2.5037 0.9785
3.5277 3.2931 -2.5036 0.9785
3.2801 3.5394 -2.5034 0.9785
3.1498 3.6557 -2.5034 0.9785
3.0154 3.7672 -2.5033 0.9785
2.4400 4.1623 -2.5030 0.9785
2.2877 4.2478 -2.5029 0.9785
1.9743 4.4018 -2.5027 0.9785
1.4855 4.5894 -2.5025 0.9785
1.3184 4.6400 -2.5024 0.9785
1.1496 4.6845 -2.5023 0.9785
0.8077 4.7550 -2.5021 0.9785
0.2876 4.8140 -2.5018 0.9785
0.1132 4.8211 -2.5018 0.9785
-0.2358 4.8163 -2.5016 0.9785
-0.5835 4.7862 -2.5014 0.9785
-1.2678 4.6513 -2.5010 0.9785
-1.6007 4.5471 -2.5008 0.9785
-1.9253 4.4191 -2.5007 0.9785
-2.0839 4.3464 -2.5006 0.9785
-2.2397 4.2680 -2.5005 0.9785
-2.6888 3.9998 -2.5003 0.9785
-2.8317 3.8997 -2.5002 0.9785
-2.9709 3.7946 -2.5001 0.9785
-3.1062 3.6845 -2.5000 0.9785
-3.2374 3.5696 -2.5000 0.9785
-3.3644 3.4499 -2.4999 0.9785
-3.6049 3.1974 -2.4998 0.9785
4.3932 1.2655 -2.5040 0.9794
4.3445 1.4236 -2.5040 0.9794
4.0171 2.1822 -2.5038 0.9794
3.9354 2.3261 -2.5038 0.9794
3.8486 2.4670 -2.5037 0.9794
3.5583 2.8693 -2.5036 0.9794
3.4521 2.9962 -2.5035 0.9794
3.3413 3.1190 -2.5035 0.9794
3.1068 3.3524 -2.5033 0.9794
2.9834 3.4625 -2.5033 0.9794
2.3111 3.9424 -2.5029 0.9794
2.0198 4.0990 -2.5028 0.9794
1.8700 4.1693 -2.5027 0.9794
1.7179 4.2341 -2.5026 0.9794
1.2488 4.3949 -2.5024 0.9794
1.0889 4.4370 -2.5023 0.9794
0.7650 4.5039 -2.5021 0.9794
0.6015 4.5284 -2.5020 0.9794
0.4372 4.5471 -2.5019 0.9794
0.1072 4.5664 -2.5017 0.9794
-0.2233 4.5619 -2.5016 0.9794
-0.3883 4.5507 -2.5015 0.9794
-0.5527 4.5335 -2.5014 0.9794
-0.7164 4.5104 -2.5013 0.9794
-1.0406 4.4465 -2.5011 0.9794
-1.8237 4.1858 -2.5007 0.9794
-2.1215 4.0427 -2.5006 0.9794
-2.2664 3.9632 -2.5005 0.9794
-2.6823 3.6939 -2.5003 0.9794
-2.8141 3.5943 -2.5002 0.9794
-3.0665 3.3812 -2.5001 0.9794
-3.1868 3.2679 -2.5000 0.9794
-3.3029 3.1503 -2.4999 0.9794
4.1675 1.2005 -2.5039 0.9802
4.1212 1.3505 -2.5039 0.9802
3.9505 1.7891 -2.5038 0.9802
3.8106 2.0701 -2.5037 0.9802
3.5636 2.4707 -2.5036 0.9802
3.4718 2.5980 -2.5035 0.9802
3.3755 2.7219 -2.5035 0.9802
3.2747 2.8422 -2.5034 0.9802
3.1696 2.9588 -2.5034 0.9802
3.0604 3.0715 -2.5033 0.9802
2.9472 3.1801 -2.5033 0.9802
2.7093 3.3848 -2.5031 0.9802
2.5850 3.4805 -2.5031 0.9802
2.3263 3.6582 -2.5029 0.9802
2.1924 3.7399 -2.5029 0.9802
1.9160 3.8884 -2.5027 0.9802
1.7740 3.9551 -2.5026 0.9802
1.6296 4.0166 -2.5026 0.9802
0.8799 4.2436 -2.5022 0.9802
0.7258 4.2725 -2.5021 0.9802
0.1017 4.3320 -2.5017 0.9802
-0.0551 4.3327 -2.5017 0.9802
-0.2119 4.3277 -2.5016 0.9802
-0.5243 4.3008 -2.5014 0.9802
-1.1392 4.1796 -2.5011 0.9802
-1.2896 4.1355 -2.5010 0.9802
-1.4384 4.0860 -2.5009 0.9802
-1.7301 3.9710 -2.5008 0.9802
-1.8726 3.9056 -2.5007 0.9802
-2.2846 3.6794 -2.5005 0.9802
-2.4162 3.5942 -2.5004 0.9802
-2.5446 3.5043 -2.5003 0.9802
-2.6697 3.4098 -2.5003 0.9802
-2.7913 3.3109 -2.5002 0.9802
-2.9092 3.2077 -2.5001 0.9802
-3.1334 2.9887 -2.5000 0.9802
