ply
format ascii 1.0
element vertex 869
property float32 x
property float32 y
property float32 z
property float32 I
end_header
15.2129 8.8456 3.1029 0.9310
44.7123 -12.0436 7.0938 0.8291
15.2103 8.8441 2.6954 0.9313
44.7006 -12.0404 6.0284 0.8297
15.2078 8.8427 2.2908 0.9315
24.7228 -11.7179 2.9379 0.8958
15.2053 8.8412 1.8887 0.9317
24.7193 -11.7162 2.3157 0.8960
38.0638 20.3406 3.6534 0.8409
15.2028 8.8398 1.4887 0.9318
37.4215 23.5957 3.7450 0.8373
41.4417 20.2683 2.8607 0.8312
38.0638 20.3406 2.6762 0.8412
37.4209 23.5954 2.7433 0.8375
37.4627 25.5458 2.8118 0.8338
37.6025 32.0709 3.0646 0.8203
24.7123 -11.7129 1.0783 0.8963
44.6831 -12.0357 1.8247 0.8309
41.4416 20.2683 1.8191 0.8314
15.1978 8.8369 0.6932 0.9320
37.4204 23.5951 1.7444 0.8377
37.4622 25.5454 1.7879 0.8340
37.6019 32.0704 1.9487 0.8205
24.7089 -11.7113 0.4619 0.8964
41.4387 20.2669 0.7792 0.8315
38.0611 20.3393 0.7290 0.8414
15.1953 8.8354 0.2969 0.9321
37.4197 23.5947 0.7473 0.8378
37.4615 25.5449 0.7659 0.8341
37.5521 29.7673 0.8094 0.8256
37.5991 32.0680 0.8347 0.8206
41.4387 20.2669 -0.2597 0.8315
37.4610 25.5446 -0.2553 0.8341
37.5514 29.7668 -0.2698 0.8256
37.6007 32.0695 -0.2782 0.8206
44.6701 -12.0322 -1.3026 0.8310
41.4386 20.2669 -1.2989 0.8314
15.1904 8.8326 -0.4948 0.9321
37.4187 23.5940 -1.2456 0.8378
37.4605 25.5442 -1.2767 0.8341
37.5508 29.7664 -1.3493 0.8255
37.6001 32.0690 -1.3915 0.8206
24.6985 -11.7064 -1.3861 0.8963
44.4611 -11.9759 -2.3352 0.8316
49.2255 -7.7126 -2.5269 0.8191
49.4730 -5.9411 -2.5270 0.8191
49.8958 -0.5896 -2.5306 0.8189
49.8535 1.2009 -2.5290 0.8190
49.6008 4.7705 -2.5271 0.8191
46.2086 7.8217 -2.3768 0.8289
34.7513 8.4851 -1.8142 0.8665
45.1034 12.7443 -2.3769 0.8288
43.4413 17.5062 -2.3752 0.8290
37.5039 27.5966 -2.3614 0.8299
36.6179 29.0269 -2.3697 0.8293
34.4217 31.5610 -2.3684 0.8294
30.8045 35.0494 -2.3664 0.8295
29.5180 36.1220 -2.3658 0.8296
28.1943 37.1473 -2.3651 0.8296
26.8349 38.1240 -2.3644 0.8297
24.0090 39.9144 -2.3622 0.8298
21.0670 41.5009 -2.3603 0.8299
19.5607 42.2233 -2.3599 0.8300
14.9004 44.0566 -2.3586 0.8300
11.6967 44.9934 -2.3576 0.8301
10.0721 45.3742 -2.3571 0.8301
18.0002 -31.5918 -2.6660 0.8643
19.2452 -31.1238 -2.6831 0.8635
20.4783 -30.6051 -2.7000 0.8627
21.4140 -29.6433 -2.6813 0.8636
25.1127 -24.1426 -2.5542 0.8696
27.8276 -18.4796 -2.4493 0.8746
29.9938 -12.9191 -2.3945 0.8772
30.1209 -11.7109 -2.3696 0.8784
31.5013 -9.7104 -2.4170 0.8762
33.1685 -8.9342 -2.5187 0.8713
33.4698 -7.7384 -2.5188 0.8713
33.7278 -6.5325 -2.5190 0.8713
34.3196 -1.6388 -2.5193 0.8713
34.3565 -0.4060 -2.5193 0.8713
34.3490 0.8274 -2.5193 0.8713
34.2967 2.0597 -2.5192 0.8713
34.2000 3.2893 -2.5192 0.8713
34.0590 4.5145 -2.5191 0.8713
33.8737 5.7338 -2.5190 0.8713
31.5999 6.5235 -2.3658 0.8786
31.3842 7.6629 -2.3688 0.8785
30.3909 10.9965 -2.3697 0.8784
29.9715 12.0780 -2.3693 0.8784
29.5135 13.1437 -2.3689 0.8785
29.0173 14.1919 -2.3684 0.8785
25.2821 20.0410 -2.3655 0.8786
24.5409 20.9308 -2.3650 0.8787
23.7684 21.7931 -2.3644 0.8787
22.9654 22.6268 -2.3639 0.8787
22.1338 23.4316 -2.3634 0.8787
21.2747 24.2065 -2.3629 0.8788
20.3882 24.9496 -2.3625 0.8788
18.5383 26.3372 -2.3615 0.8788
17.5774 26.9799 -2.3610 0.8788
15.5896 28.1586 -2.3600 0.8789
12.4587 29.6382 -2.3573 0.8790
11.3827 30.0552 -2.3565 0.8791
10.2928 30.4331 -2.3556 0.8791
9.1905 30.7716 -2.3547 0.8791
8.0772 31.0702 -2.3539 0.8792
5.8237 31.5493 -2.3523 0.8793
13.0649 -22.9301 -2.5337 0.8994
13.8008 -22.3189 -2.5193 0.8999
15.1794 -21.0127 -2.4886 0.9011
15.8283 -20.3317 -2.4737 0.9016
16.4482 -19.6316 -2.4588 0.9022
17.6315 -18.2124 -2.4336 0.9032
18.7313 -16.7563 -2.4128 0.9039
19.2508 -16.0152 -2.4041 0.9043
19.7577 -15.2710 -2.3974 0.9045
20.2341 -14.5097 -2.3904 0.9048
20.7002 -13.7465 -2.3856 0.9050
22.2361 -10.5392 -2.3624 0.9058
25.2913 -6.8124 -2.5146 0.9001
25.5208 -5.9005 -2.5148 0.9001
26.1056 -2.1879 -2.5150 0.9001
26.1676 -1.2496 -2.5151 0.9001
26.1899 0.6309 -2.5151 0.9001
26.1502 1.5705 -2.5151 0.9001
25.6537 5.2960 -2.5148 0.9001
25.3664 6.1936 -2.5068 0.9004
23.1789 8.3869 -2.3665 0.9057
22.8600 9.2122 -2.3662 0.9057
22.5116 10.0254 -2.3659 0.9057
20.8328 13.1359 -2.3644 0.9058
18.7260 15.9713 -2.3629 0.9058
17.5258 17.2674 -2.3620 0.9059
16.8917 17.8820 -2.3616 0.9059
15.5595 19.0406 -2.3607 0.9059
14.1493 20.1017 -2.3600 0.9059
11.1198 21.9054 -2.3585 0.9060
7.0212 23.5083 -2.3554 0.9061
6.1712 23.7385 -2.3548 0.9061
4.4499 24.1067 -2.3535 0.9062
11.8246 -16.3687 -2.3986 0.9219
12.9093 -15.4077 -2.3877 0.9222
13.9289 -14.3877 -2.3787 0.9225
15.4000 -12.8119 -2.3796 0.9225
16.1599 -11.5882 -2.3621 0.9230
16.5557 -10.9942 -2.3607 0.9231
16.9294 -10.3867 -2.3593 0.9231
18.6880 -9.6937 -2.5008 0.9187
19.1054 -9.0554 -2.5115 0.9184
19.4194 -8.3644 -2.5116 0.9184
19.7082 -7.6625 -2.5118 0.9184
20.4207 -5.5004 -2.5121 0.9183
20.7640 -4.0216 -2.5123 0.9183
20.8956 -3.2738 -2.5124 0.9183
21.0774 -1.7665 -2.5125 0.9183
21.1134 1.2680 -2.5125 0.9183
20.9674 2.7792 -2.5124 0.9183
20.8537 3.5299 -2.5124 0.9183
20.7129 4.2760 -2.5123 0.9183
20.5454 5.0165 -2.5122 0.9183
20.3513 5.7505 -2.5121 0.9183
19.3048 6.2111 -2.4089 0.9216
18.6811 6.7594 -2.3598 0.9231
18.4395 7.4308 -2.3615 0.9230
18.1734 8.0934 -2.3631 0.9230
16.4322 11.2051 -2.3625 0.9230
16.0173 11.7861 -2.3622 0.9230
15.1264 12.9012 -2.3616 0.9230
14.1578 13.9490 -2.3609 0.9231
13.6461 14.4461 -2.3605 0.9231
13.1168 14.9243 -2.3602 0.9231
12.5707 15.3831 -2.3598 0.9231
12.0087 15.8220 -2.3595 0.9231
11.4313 16.2402 -2.3591 0.9231
10.2341 17.0139 -2.3585 0.9231
9.6155 17.3680 -2.3581 0.9231
8.9848 17.6995 -2.3578 0.9232
7.6898 18.2935 -2.3572 0.9232
7.0273 18.5551 -2.3569 0.9232
4.9889 19.1905 -2.3553 0.9232
3.5977 19.4902 -2.3543 0.9233
8.7891 -14.2140 -2.3679 0.9347
9.2968 -13.8941 -2.3687 0.9347
9.7958 -13.5603 -2.3702 0.9347
10.7580 -12.8395 -2.3734 0.9346
11.2122 -12.4447 -2.3733 0.9346
12.7929 -10.6427 -2.3579 0.9350
13.1607 -10.1721 -2.3568 0.9350
13.5608 -9.7244 -2.3644 0.9348
14.6016 -9.6966 -2.4835 0.9316
15.0960 -9.2618 -2.5094 0.9309
15.4196 -8.7146 -2.5096 0.9309
15.7235 -8.1560 -2.5097 0.9309
16.0070 -7.5868 -2.5099 0.9309
17.1082 -4.6082 -2.5104 0.9309
17.2631 -3.9913 -2.5105 0.9309
17.3957 -3.3692 -2.5106 0.9309
17.5058 -2.7428 -2.5106 0.9309
17.5933 -2.1127 -2.5107 0.9309
17.7150 0.4267 -2.5108 0.9309
17.6385 1.6964 -2.5107 0.9309
17.4707 2.9573 -2.5106 0.9309
17.3529 3.5824 -2.5106 0.9309
16.8656 5.4263 -2.5103 0.9309
16.6593 6.0279 -2.5102 0.9309
14.6947 7.8526 -2.3607 0.9349
13.7700 9.3897 -2.3615 0.9349
13.4226 9.8768 -2.3612 0.9349
12.2788 11.2584 -2.3604 0.9349
11.8654 11.6904 -2.3601 0.9349
11.4368 12.1073 -2.3598 0.9349
10.9934 12.5084 -2.3595 0.9349
10.5361 12.8932 -2.3592 0.9349
10.0652 13.2614 -2.3589 0.9350
8.0596 14.5575 -2.3577 0.9350
7.5310 14.8358 -2.3574 0.9350
6.9929 15.0948 -2.3571 0.9350
5.8907 15.5540 -2.3566 0.9350
4.1831 16.0911 -2.3557 0.9350
3.0169 16.3436 -2.3548 0.9351
9.5729 -10.6263 -2.3562 0.9437
10.3038 -9.9057 -2.3546 0.9437
10.8565 -9.7118 -2.3997 0.9427
12.0448 -9.3096 -2.5079 0.9402
12.3720 -8.8719 -2.5080 0.9401
12.6832 -8.4226 -2.5082 0.9401
13.9869 -6.0245 -2.5088 0.9401
14.5552 -4.4867 -2.5091 0.9401
14.8404 -3.4312 -2.5093 0.9401
15.0489 -2.3578 -2.5094 0.9401
15.1241 -1.8162 -2.5094 0.9401
15.1797 -1.2722 -2.5095 0.9401
15.0188 2.5422 -2.5094 0.9401
14.9175 3.0796 -2.5093 0.9401
14.6574 4.1416 -2.5092 0.9401
14.4989 4.6648 -2.5091 0.9401
14.3216 5.1820 -2.5090 0.9401
13.9045 6.1923 -2.5075 0.9402
12.6171 6.7424 -2.3567 0.9437
12.3726 7.1942 -2.3578 0.9436
12.1118 7.6370 -2.3588 0.9436
11.8350 8.0703 -2.3598 0.9436
10.8999 9.2965 -2.3600 0.9436
10.5581 9.6807 -2.3598 0.9436
9.8344 10.4110 -2.3593 0.9436
9.4533 10.7561 -2.3590 0.9436
8.6555 11.4040 -2.3585 0.9436
8.2397 11.7059 -2.3583 0.9436
7.3770 12.2641 -2.3577 0.9436
6.4767 12.7587 -2.3572 0.9436
6.0139 12.9814 -2.3569 0.9437
5.5434 13.1874 -2.3566 0.9437
4.5822 13.5484 -2.3561 0.9437
4.0926 13.7028 -2.3559 0.9437
3.0984 13.9582 -2.3554 0.9437
6.5886 -10.6552 -2.3547 0.9503
6.9654 -10.4099 -2.3543 0.9503
7.3330 -10.1510 -2.3538 0.9503
8.7398 -9.7015 -2.4543 0.9482
10.5535 -8.1569 -2.5071 0.9472
10.8401 -7.7734 -2.5072 0.9472
11.1127 -7.3797 -2.5074 0.9472
11.3710 -6.9764 -2.5075 0.9472
11.6147 -6.5642 -2.5076 0.9471
12.0567 -5.7145 -2.5079 0.9471
12.2546 -5.2783 -2.5080 0.9471
12.8854 -3.4708 -2.5083 0.9471
13.1847 -2.0657 -2.5084 0.9471
13.2505 -1.5912 -2.5085 0.9471
13.3219 0.8001 -2.5085 0.9471
13.1583 2.2273 -2.5084 0.9471
13.0696 2.6981 -2.5084 0.9471
12.8418 3.6285 -2.5083 0.9471
12.7029 4.0870 -2.5082 0.9471
12.5477 4.5402 -2.5081 0.9471
12.3762 4.9874 -2.5080 0.9471
11.9856 5.8619 -2.5078 0.9471
10.8305 6.2975 -2.3548 0.9503
10.1012 7.4328 -2.3573 0.9502
9.8314 7.7933 -2.3581 0.9502
9.2519 8.4830 -2.3593 0.9502
8.9407 8.8088 -2.3591 0.9502
7.9397 9.7161 -2.3584 0.9502
7.5852 9.9938 -2.3582 0.9502
7.2209 10.2586 -2.3580 0.9502
6.4650 10.7480 -2.3575 0.9502
5.2707 11.3772 -2.3568 0.9502
4.4400 11.7236 -2.3563 0.9503
4.0159 11.8741 -2.3561 0.9503
3.1532 12.1293 -2.3556 0.9503
2.7156 12.2336 -2.3554 0.9503
2.2745 12.3220 -2.3552 0.9503
5.5382 -9.7200 -2.3647 0.9553
6.9402 -9.6073 -2.5052 0.9527
7.2811 -9.3526 -2.5054 0.9527
7.6126 -9.0859 -2.5056 0.9527
8.2458 -8.5175 -2.5059 0.9527
8.5467 -8.2166 -2.5061 0.9527
8.8367 -7.9050 -2.5062 0.9527
9.3820 -7.2515 -2.5065 0.9527
9.6367 -6.9104 -2.5066 0.9527
9.8791 -6.5604 -2.5067 0.9527
10.1086 -6.2019 -2.5069 0.9527
10.5284 -5.4612 -2.5071 0.9527
10.8938 -4.6923 -2.5073 0.9527
11.0556 -4.2984 -2.5073 0.9527
11.2031 -3.8989 -2.5074 0.9527
11.7205 -1.8363 -2.5077 0.9527
11.7789 -1.4145 -2.5077 0.9527
11.8222 -0.9908 -2.5077 0.9527
11.8502 -0.5658 -2.5078 0.9527
11.8629 -0.1402 -2.5078 0.9527
11.8424 0.7112 -2.5077 0.9527
11.6970 1.9800 -2.5077 0.9527
11.5244 2.8139 -2.5076 0.9527
11.2923 3.6332 -2.5075 0.9527
11.0019 4.4336 -2.5073 0.9527
10.8353 4.8255 -2.5072 0.9527
10.2526 5.9615 -2.5069 0.9527
9.2008 6.2740 -2.3540 0.9555
8.9714 6.6015 -2.3545 0.9555
8.7314 6.9214 -2.3552 0.9555
8.4799 7.2325 -2.3559 0.9555
8.2172 7.5343 -2.3566 0.9554
7.9436 7.8265 -2.3572 0.9554
6.0882 9.3449 -2.3576 0.9554
5.7484 9.5566 -2.3574 0.9554
4.3201 10.2771 -2.3565 0.9554
3.9481 10.4246 -2.3563 0.9554
3.5710 10.5586 -2.3561 0.9555
3.1895 10.6790 -2.3558 0.9555
2.8039 10.7856 -2.3556 0.9555
2.4147 10.8783 -2.3554 0.9555
2.0226 10.9569 -2.3552 0.9555
5.6045 -9.0638 -2.5046 0.9572
5.9267 -8.8574 -2.5047 0.9572
6.2411 -8.6395 -2.5049 0.9572
6.5476 -8.4105 -2.5050 0.9571
7.1349 -7.9201 -2.5053 0.9571
7.4150 -7.6593 -2.5055 0.9571
8.1967 -6.8190 -2.5059 0.9571
8.8834 -5.8993 -2.5062 0.9571
9.0898 -5.5768 -2.5063 0.9571
9.2845 -5.2472 -2.5064 0.9571
9.6377 -4.5680 -2.5066 0.9571
10.0737 -3.5059 -2.5068 0.9571
10.2998 -2.7743 -2.5070 0.9571
10.4726 -2.0283 -2.5070 0.9571
10.5388 -1.6512 -2.5071 0.9571
10.5914 -1.2719 -2.5071 0.9571
10.6303 -0.8909 -2.5071 0.9571
10.6646 0.2569 -2.5071 0.9571
10.5750 1.4017 -2.5071 0.9571
10.5177 1.7803 -2.5071 0.9571
10.3626 2.5302 -2.5070 0.9571
10.2649 2.9004 -2.5069 0.9571
10.1539 3.2669 -2.5069 0.9571
10.0299 3.6292 -2.5068 0.9571
9.8929 3.9867 -2.5068 0.9571
9.7431 4.3390 -2.5067 0.9571
9.5808 4.6858 -2.5066 0.9571
9.4061 5.0265 -2.5065 0.9571
9.0206 5.6879 -2.5063 0.9571
8.8103 6.0077 -2.5062 0.9571
8.4268 6.2008 -2.4589 0.9579
7.6191 6.4983 -2.3535 0.9597
7.3828 6.7692 -2.3541 0.9597
6.8815 7.2849 -2.3552 0.9597
6.3438 7.7631 -2.3562 0.9596
6.0623 7.9873 -2.3567 0.9596
5.7727 8.2012 -2.3571 0.9596
4.8576 8.7741 -2.3570 0.9596
3.8854 9.2431 -2.3565 0.9596
2.5219 9.7007 -2.3557 0.9597
1.8191 9.8551 -2.3553 0.9597
5.3791 -8.0391 -2.5044 0.9608
5.9426 -7.6334 -2.5047 0.9608
6.4756 -7.1882 -2.5050 0.9608
6.7298 -6.9515 -2.5051 0.9608
7.2118 -6.4514 -2.5054 0.9608
7.6568 -5.9180 -2.5056 0.9608
8.2495 -5.0613 -2.5059 0.9608
8.4262 -4.7621 -2.5060 0.9608
8.8900 -3.8292 -2.5062 0.9608
9.3474 -2.5178 -2.5065 0.9608
9.4319 -2.1807 -2.5065 0.9608
9.5043 -1.8408 -2.5066 0.9608
9.6120 -1.1543 -2.5066 0.9608
9.6473 -0.8085 -2.5066 0.9608
9.6702 -0.4617 -2.5066 0.9608
9.6806 -0.1144 -2.5066 0.9608
9.6784 0.2331 -2.5066 0.9608
9.6367 0.9268 -2.5066 0.9608
9.5452 1.6157 -2.5066 0.9608
9.4809 1.9572 -2.5065 0.9608
9.4044 2.2962 -2.5065 0.9608
9.3158 2.6322 -2.5065 0.9608
9.1025 3.2936 -2.5063 0.9608
8.9782 3.6181 -2.5063 0.9608
8.8423 3.9379 -2.5062 0.9608
8.3670 4.8651 -2.5060 0.9608
7.9958 5.4524 -2.5058 0.9608
7.5835 6.0114 -2.5056 0.9608
6.7782 6.2150 -2.3811 0.9627
6.4784 6.3829 -2.3547 0.9631
6.2407 6.6066 -2.3531 0.9631
6.0008 6.8277 -2.3535 0.9631
5.7529 7.0400 -2.3540 0.9631
5.2348 7.4371 -2.3548 0.9631
4.9653 7.6213 -2.3551 0.9631
4.6892 7.7957 -2.3554 0.9631
3.8253 8.2573 -2.3562 0.9631
2.9154 8.6200 -2.3561 0.9631
2.6039 8.7185 -2.3559 0.9631
2.2892 8.8056 -2.3557 0.9631
4.6520 -7.5233 -2.5041 0.9639
4.9193 -7.3519 -2.5042 0.9639
5.6819 -6.7816 -2.5046 0.9639
6.3789 -6.1324 -2.5050 0.9639
7.0020 -5.4119 -2.5053 0.9639
7.3727 -4.8960 -2.5055 0.9639
7.9985 -3.7911 -2.5058 0.9639
8.2503 -3.2077 -2.5059 0.9639
8.3603 -2.9096 -2.5060 0.9639
8.5478 -2.3024 -2.5061 0.9639
8.6912 -1.6833 -2.5061 0.9639
8.8429 -0.4223 -2.5062 0.9639
8.8123 0.8475 -2.5062 0.9639
8.7761 1.1633 -2.5062 0.9639
8.5999 2.0998 -2.5061 0.9639
8.5188 2.4071 -2.5060 0.9639
8.4268 2.7112 -2.5060 0.9639
8.2102 3.3086 -2.5059 0.9639
7.9513 3.8888 -2.5058 0.9639
7.8064 4.1716 -2.5057 0.9639
7.3120 4.9860 -2.5054 0.9639
7.1280 5.2451 -2.5053 0.9639
6.7329 5.7425 -2.5051 0.9639
5.8643 6.2081 -2.4176 0.9651
5.4850 6.2408 -2.3521 0.9660
5.0239 6.6193 -2.3525 0.9660
4.2851 7.1239 -2.3535 0.9660
4.0271 7.2739 -2.3537 0.9660
3.7638 7.4145 -2.3540 0.9660
3.4956 7.5455 -2.3542 0.9660
3.2228 7.6667 -2.3544 0.9660
2.6648 7.8791 -2.3546 0.9660
2.3804 7.9700 -2.3547 0.9660
2.0929 8.0506 -2.3548 0.9660
1.8026 8.1206 -2.3548 0.9660
1.5100 8.1801 -2.3548 0.9660
4.2813 -6.9239 -2.5039 0.9665
4.7675 -6.5996 -2.5041 0.9665
5.0015 -6.4245 -2.5043 0.9665
5.2291 -6.2412 -2.5044 0.9665
5.4500 -6.0497 -2.5045 0.9665
6.0695 -5.4295 -2.5048 0.9665
6.2607 -5.2084 -2.5049 0.9665
6.7850 -4.5057 -2.5052 0.9665
7.0912 -4.0076 -2.5053 0.9665
7.2307 -3.7507 -2.5054 0.9665
7.3608 -3.4888 -2.5055 0.9665
7.4815 -3.2225 -2.5055 0.9665
7.8662 -2.1188 -2.5057 0.9665
7.9982 -1.5491 -2.5058 0.9665
8.1185 -0.6804 -2.5058 0.9665
8.1465 -0.0962 -2.5059 0.9665
8.1324 0.4884 -2.5059 0.9665
8.1096 0.7800 -2.5058 0.9665
8.0763 1.0705 -2.5058 0.9665
8.0326 1.3597 -2.5058 0.9665
7.9785 1.6471 -2.5058 0.9665
7.9142 1.9324 -2.5057 0.9665
7.7549 2.4950 -2.5057 0.9665
7.5556 3.0448 -2.5056 0.9665
7.4413 3.3140 -2.5055 0.9665
7.3174 3.5788 -2.5054 0.9665
7.1840 3.8391 -2.5054 0.9665
7.0414 4.0943 -2.5053 0.9665
6.8897 4.3443 -2.5052 0.9665
6.7291 4.5886 -2.5051 0.9665
6.3822 5.0591 -2.5050 0.9665
5.8007 5.7152 -2.5047 0.9665
4.7145 6.2116 -2.3985 0.9679
4.1733 6.4056 -2.3515 0.9685
3.9411 6.5520 -2.3517 0.9685
2.9640 7.0511 -2.3526 0.9685
2.7092 7.1534 -2.3527 0.9685
2.1892 7.3299 -2.3529 0.9685
1.6578 7.4684 -2.3530 0.9685
4.4111 -6.1062 -2.5039 0.9687
4.8382 -5.7745 -2.5042 0.9687
5.0425 -5.5974 -2.5043 0.9687
5.2404 -5.4130 -2.5044 0.9687
5.6156 -5.0235 -2.5046 0.9687
5.9619 -4.6081 -2.5047 0.9687
6.1237 -4.3913 -2.5048 0.9687
6.2776 -4.1687 -2.5049 0.9687
6.4233 -3.9409 -2.5050 0.9687
6.6899 -3.4701 -2.5051 0.9687
6.8103 -3.2279 -2.5052 0.9687
6.9219 -2.9814 -2.5052 0.9687
7.3999 -1.4332 -2.5055 0.9687
7.4466 -1.1667 -2.5055 0.9687
7.5112 -0.6295 -2.5055 0.9687
7.5029 0.7216 -2.5055 0.9687
7.3817 1.5239 -2.5055 0.9687
7.2532 2.0495 -2.5054 0.9687
7.1749 2.3084 -2.5054 0.9687
6.8847 3.0661 -2.5052 0.9687
6.6467 3.5519 -2.5051 0.9687
6.5148 3.7881 -2.5050 0.9687
6.0693 4.4660 -2.5048 0.9687
5.9049 4.6808 -2.5047 0.9687
5.5535 5.0920 -2.5045 0.9687
4.7669 5.8333 -2.5041 0.9687
4.5543 6.0004 -2.5040 0.9687
4.3358 6.1597 -2.5039 0.9687
3.2013 6.3064 -2.3509 0.9706
2.2663 6.7007 -2.3513 0.9706
1.2841 6.9566 -2.3515 0.9706
3.6819 -5.9545 -2.5036 0.9707
3.8934 -5.8187 -2.5037 0.9707
4.3012 -5.5249 -2.5039 0.9707
4.8707 -5.0312 -2.5042 0.9707
5.2195 -4.6691 -2.5044 0.9707
5.3839 -4.4789 -2.5044 0.9707
5.5413 -4.2829 -2.5045 0.9707
5.8346 -3.8746 -2.5047 0.9707
5.9701 -3.6628 -2.5047 0.9707
6.0979 -3.4463 -2.5048 0.9707
6.3297 -3.0001 -2.5049 0.9707
6.5289 -2.5384 -2.5050 0.9707
6.6159 -2.3025 -2.5051 0.9707
6.6944 -2.0636 -2.5051 0.9707
6.7642 -1.8220 -2.5052 0.9707
6.8254 -1.5781 -2.5052 0.9707
6.9556 -0.8353 -2.5052 0.9707
7.0052 -0.0827 -2.5053 0.9707
7.0036 0.1687 -2.5053 0.9707
6.9930 0.4200 -2.5053 0.9707
6.9734 0.6707 -2.5053 0.9707
6.7413 1.9048 -2.5051 0.9707
6.6685 2.1455 -2.5051 0.9707
6.0551 3.5208 -2.5048 0.9707
5.7866 3.9459 -2.5046 0.9707
5.1617 4.7328 -2.5043 0.9707
4.9883 4.9148 -2.5042 0.9707
4.6226 5.2596 -2.5041 0.9707
4.4307 5.4219 -2.5040 0.9707
3.8217 5.8660 -2.5036 0.9707
3.6085 5.9991 -2.5035 0.9707
3.3907 6.1245 -2.5034 0.9707
3.1450 6.1954 -2.4846 0.9709
1.1929 6.4626 -2.3501 0.9725
3.4357 -5.5563 -2.5034 0.9724
3.6330 -5.4296 -2.5035 0.9724
4.0135 -5.1554 -2.5037 0.9724
4.7105 -4.5286 -2.5041 0.9724
4.8703 -4.3568 -2.5042 0.9724
5.1706 -3.9964 -2.5043 0.9724
5.4443 -3.6154 -2.5045 0.9724
5.5707 -3.4178 -2.5045 0.9724
5.8018 -3.0095 -2.5047 0.9724
5.9062 -2.7993 -2.5047 0.9724
6.0030 -2.5856 -2.5048 0.9724
6.0920 -2.3685 -2.5048 0.9724
6.4174 -1.2429 -2.5050 0.9724
6.5364 -0.0772 -2.5050 0.9724
6.5349 0.1574 -2.5050 0.9724
6.4801 0.8589 -2.5050 0.9724
6.4017 1.3216 -2.5050 0.9724
6.2902 1.7774 -2.5049 0.9724
5.9707 2.6591 -2.5047 0.9724
5.7644 3.0804 -2.5046 0.9724
5.3995 3.6819 -2.5045 0.9724
4.8164 4.4162 -2.5042 0.9724
4.4869 4.7500 -2.5040 0.9724
4.3134 4.9078 -2.5039 0.9724
4.1343 5.0593 -2.5038 0.9724
3.9490 5.2042 -2.5037 0.9724
3.5661 5.4737 -2.5035 0.9724
3.1640 5.7149 -2.5033 0.9724
2.9567 5.8246 -2.5032 0.9724
2.7456 5.9267 -2.5031 0.9724
2.0924 6.1867 -2.5028 0.9724
1.6120 6.2007 -2.4552 0.9729
1.3772 6.2044 -2.4355 0.9731
1.1458 6.2074 -2.4190 0.9733
3.2168 -5.2023 -2.5033 0.9739
3.7578 -4.8269 -2.5036 0.9739
3.9286 -4.6891 -2.5037 0.9739
4.0946 -4.5452 -2.5038 0.9739
4.2553 -4.3955 -2.5039 0.9739
4.8411 -3.7417 -2.5042 0.9739
5.0973 -3.3850 -2.5043 0.9739
5.3272 -3.0107 -2.5044 0.9739
5.7797 -2.0115 -2.5046 0.9739
5.8483 -1.8027 -2.5047 0.9739
5.9626 -1.3786 -2.5047 0.9739
6.0083 -1.1637 -2.5048 0.9739
6.1132 -0.2919 -2.5048 0.9739
6.1184 0.1474 -2.5048 0.9739
6.1091 0.3669 -2.5048 0.9739
6.0920 0.5859 -2.5048 0.9739
6.0342 1.0214 -2.5048 0.9739
5.9936 1.2373 -2.5048 0.9739
5.8257 1.8743 -2.5047 0.9739
5.6760 2.2874 -2.5046 0.9739
5.5902 2.4896 -2.5045 0.9739
5.3970 2.8841 -2.5044 0.9739
4.9282 3.6264 -2.5042 0.9739
4.7948 3.8008 -2.5041 0.9739
4.6551 3.9703 -2.5041 0.9739
4.5095 4.1347 -2.5040 0.9739
4.3580 4.2938 -2.5039 0.9739
4.2010 4.4473 -2.5038 0.9739
3.8709 4.7369 -2.5037 0.9739
3.5208 5.0020 -2.5035 0.9739
3.3389 5.1250 -2.5034 0.9739
2.9624 5.3509 -2.5032 0.9739
2.1659 5.7188 -2.5028 0.9739
1.9591 5.7926 -2.5027 0.9739
1.7499 5.8589 -2.5026 0.9739
1.5384 5.9177 -2.5025 0.9739
1.3250 5.9689 -2.5024 0.9739
2.8434 -4.9904 -2.5031 0.9753
3.0208 -4.8853 -2.5032 0.9752
3.3637 -4.6563 -2.5034 0.9752
3.5287 -4.5327 -2.5035 0.9752
3.6893 -4.4033 -2.5036 0.9752
3.8451 -4.2682 -2.5037 0.9752
3.9959 -4.1275 -2.5037 0.9752
4.1416 -3.9816 -2.5038 0.9752
4.2820 -3.8305 -2.5039 0.9752
4.5460 -3.5136 -2.5040 0.9752
4.6693 -3.3483 -2.5041 0.9752
4.8977 -3.0048 -2.5042 0.9752
5.0025 -2.8272 -2.5042 0.9752
5.1008 -2.6459 -2.5043 0.9752
5.1926 -2.4611 -2.5043 0.9752
5.2777 -2.2732 -2.5044 0.9752
5.3559 -2.0823 -2.5044 0.9752
5.4917 -1.6928 -2.5045 0.9752
5.5490 -1.4947 -2.5045 0.9752
5.5991 -1.2945 -2.5046 0.9752
5.6420 -1.0927 -2.5046 0.9752
5.7366 0.3445 -2.5046 0.9752
5.7206 0.5502 -2.5046 0.9752
5.6971 0.7551 -2.5046 0.9752
5.6663 0.9591 -2.5046 0.9752
5.6282 1.1619 -2.5046 0.9752
5.5828 1.3631 -2.5045 0.9752
5.4705 1.7601 -2.5045 0.9752
5.3300 2.1479 -2.5044 0.9752
5.2494 2.3378 -2.5044 0.9752
5.1620 2.5247 -2.5043 0.9752
5.0679 2.7083 -2.5043 0.9752
4.9674 2.8883 -2.5042 0.9752
4.8604 3.0647 -2.5042 0.9752
4.7472 3.2371 -2.5041 0.9752
4.6278 3.4053 -2.5041 0.9752
4.5025 3.5691 -2.5040 0.9752
4.3714 3.7283 -2.5039 0.9752
4.2346 3.8827 -2.5039 0.9752
4.0924 4.0321 -2.5038 0.9752
3.7924 4.3150 -2.5036 0.9752
3.6350 4.4482 -2.5035 0.9752
2.7819 5.0248 -2.5031 0.9753
2.2255 5.2941 -2.5028 0.9753
1.8398 5.4397 -2.5026 0.9753
1.6433 5.5020 -2.5025 0.9753
1.4447 5.5572 -2.5024 0.9753
1.2442 5.6053 -2.5023 0.9753
2.8440 -4.5994 -2.5031 0.9764
3.4734 -4.1456 -2.5035 0.9764
3.8992 -3.7486 -2.5037 0.9764
4.0314 -3.6063 -2.5038 0.9764
4.1583 -3.4594 -2.5038 0.9764
4.2799 -3.3080 -2.5039 0.9764
4.3960 -3.1523 -2.5039 0.9764
4.6110 -2.8290 -2.5040 0.9764
4.8886 -2.3171 -2.5042 0.9764
4.9687 -2.1402 -2.5042 0.9764
5.1702 -1.5937 -2.5043 0.9764
5.2713 -1.2187 -2.5044 0.9764
5.3117 -1.0288 -2.5044 0.9764
5.3916 -0.4519 -2.5044 0.9764
5.4044 -0.2581 -2.5045 0.9764
5.4102 -0.0639 -2.5045 0.9764
5.4090 0.1303 -2.5045 0.9764
5.4008 0.3243 -2.5045 0.9764
5.3857 0.5180 -2.5044 0.9764
5.3636 0.7109 -2.5044 0.9764
5.2065 1.4712 -2.5044 0.9764
5.1503 1.6571 -2.5043 0.9764
5.0180 2.0222 -2.5043 0.9764
4.9421 2.2010 -2.5042 0.9764
4.6766 2.7193 -2.5041 0.9764
4.5759 2.8853 -2.5040 0.9764
4.4693 3.0477 -2.5040 0.9764
4.3569 3.2060 -2.5039 0.9764
4.2390 3.3602 -2.5039 0.9764
4.1155 3.5101 -2.5038 0.9764
3.9868 3.6555 -2.5037 0.9764
3.8529 3.7961 -2.5037 0.9764
3.7141 3.9319 -2.5036 0.9764
3.5705 4.0625 -2.5035 0.9764
3.4222 4.1879 -2.5034 0.9764
3.2696 4.3079 -2.5034 0.9764
2.6192 4.7308 -2.5030 0.9764
2.4476 4.8216 -2.5029 0.9764
2.2729 4.9062 -2.5029 0.9764
2.0952 4.9844 -2.5028 0.9764
1.7321 5.1215 -2.5026 0.9765
1.3608 5.2322 -2.5024 0.9765
1.1715 5.2774 -2.5023 0.9765
2.6837 -4.3401 -2.5031 0.9775
2.9883 -4.1367 -2.5032 0.9775
3.1349 -4.0269 -2.5033 0.9775
3.2776 -3.9119 -2.5034 0.9775
3.9238 -3.2643 -2.5037 0.9775
4.1481 -2.9746 -2.5038 0.9775
4.2523 -2.8238 -2.5039 0.9775
4.3510 -2.6694 -2.5039 0.9775
4.4441 -2.5116 -2.5040 0.9775
4.6885 -2.0195 -2.5041 0.9775
5.0438 -0.7902 -2.5043 0.9775
5.0996 -0.2435 -2.5043 0.9775
5.1039 0.1230 -2.5043 0.9775
5.0962 0.3061 -2.5043 0.9775
5.0819 0.4888 -2.5043 0.9775
5.0611 0.6708 -2.5043 0.9775
4.9998 1.0321 -2.5042 0.9775
4.9128 1.3882 -2.5042 0.9775
4.6634 2.0768 -2.5041 0.9775
4.5857 2.2428 -2.5040 0.9775
4.5022 2.4059 -2.5040 0.9775
4.4129 2.5659 -2.5039 0.9775
4.3179 2.7226 -2.5039 0.9775
4.2173 2.8758 -2.5038 0.9775
4.1113 3.0252 -2.5038 0.9775
3.9999 3.1708 -2.5037 0.9775
3.7620 3.4493 -2.5036 0.9775
3.6357 3.5821 -2.5035 0.9775
3.5047 3.7102 -2.5035 0.9775
3.3691 3.8334 -2.5034 0.9775
3.2293 3.9518 -2.5033 0.9775
2.9373 4.1730 -2.5032 0.9775
2.6302 4.3727 -2.5030 0.9775
2.4715 4.4642 -2.5030 0.9775
2.3096 4.5498 -2.5029 0.9775
2.1448 4.6296 -2.5028 0.9775
1.6345 4.8328 -2.5025 0.9775
1.1054 4.9800 -2.5023 0.9775
2.3884 -4.1919 -2.5029 0.9785
2.8255 -3.9112 -2.5031 0.9785
2.9641 -3.8074 -2.5032 0.9785
3.0989 -3.6987 -2.5033 0.9785
3.2298 -3.5851 -2.5033 0.9785
3.3565 -3.4670 -2.5034 0.9785
3.4788 -3.3444 -2.5035 0.9785
3.7100 -3.0864 -2.5036 0.9785
3.9220 -2.8124 -2.5037 0.9785
4.1138 -2.5239 -2.5038 0.9785
4.3615 -2.0672 -2.5039 0.9785
4.4329 -1.9094 -2.5040 0.9785
4.4986 -1.7490 -2.5040 0.9785
4.5586 -1.5865 -2.5040 0.9785
4.7028 -1.0873 -2.5041 0.9785
4.7926 -0.5755 -2.5041 0.9785
4.8215 -0.2302 -2.5042 0.9785
4.7851 0.6343 -2.5041 0.9785
4.6891 1.1449 -2.5041 0.9785
4.4768 1.8041 -2.5040 0.9785
4.2568 2.2747 -2.5039 0.9785
3.8871 2.8603 -2.5037 0.9785
3.7819 2.9979 -2.5036 0.9785
3.6718 3.1316 -2.5036 0.9785
3.0533 3.7364 -2.5033 0.9785
2.1837 4.3019 -2.5028 0.9785
1.8694 4.4472 -2.5026 0.9785
1.5455 4.5695 -2.5025 0.9785
1.3804 4.6219 -2.5024 0.9785
1.0452 4.7087 -2.5022 0.9785
0.8755 4.7430 -2.5021 0.9785
2.5414 -3.7981 -2.5030 0.9794
2.8075 -3.6062 -2.5031 0.9794
3.0591 -3.3957 -2.5033 0.9794
3.2950 -3.1677 -2.5034 0.9794
3.4066 -3.0474 -2.5034 0.9794
3.6166 -2.7953 -2.5035 0.9794
3.9797 -2.2492 -2.5037 0.9794
4.0579 -2.1049 -2.5038 0.9794
4.2609 -1.6566 -2.5039 0.9794
4.3688 -1.3467 -2.5039 0.9794
4.4543 -1.0298 -2.5040 0.9794
4.4884 -0.8693 -2.5040 0.9794
4.5167 -0.7076 -2.5040 0.9794
4.5559 -0.3818 -2.5040 0.9794
4.5667 -0.2181 -2.5040 0.9794
4.5715 -0.0540 -2.5040 0.9794
4.5322 0.6007 -2.5040 0.9794
4.4774 0.9243 -2.5040 0.9794
4.4413 1.0844 -2.5040 0.9794
4.3520 1.4002 -2.5039 0.9794
4.2989 1.5555 -2.5039 0.9794
4.1761 1.8598 -2.5038 0.9794
4.1066 2.0085 -2.5038 0.9794
4.0318 2.1545 -2.5038 0.9794
3.9518 2.2978 -2.5037 0.9794
3.8667 2.4381 -2.5037 0.9794
3.6817 2.7091 -2.5036 0.9794
3.3690 3.0890 -2.5034 0.9794
2.8920 3.5390 -2.5032 0.9794
2.7630 3.6404 -2.5031 0.9794
2.4946 3.8290 -2.5030 0.9794
2.3555 3.9160 -2.5029 0.9794
2.2134 3.9978 -2.5028 0.9794
1.9207 4.1461 -2.5027 0.9794
1.7706 4.2122 -2.5026 0.9794
1.6183 4.2730 -2.5025 0.9794
1.4638 4.3281 -2.5024 0.9794
1.1495 4.4217 -2.5023 0.9794
0.9900 4.4600 -2.5022 0.9794
0.8293 4.4925 -2.5021 0.9794
2.1460 -3.7665 -2.5028 0.9802
2.4108 -3.6030 -2.5029 0.9802
2.6632 -3.4209 -2.5031 0.9802
2.7844 -3.3233 -2.5031 0.9802
2.9019 -3.2212 -2.5032 0.9802
3.0157 -3.1151 -2.5032 0.9802
3.1257 -3.0049 -2.5033 0.9802
3.2316 -2.8908 -2.5033 0.9802
3.3333 -2.7730 -2.5034 0.9802
3.5238 -2.5269 -2.5035 0.9802
3.6961 -2.2677 -2.5036 0.9802
3.7752 -2.1336 -2.5036 0.9802
3.9187 -1.8573 -2.5037 0.9802
3.9829 -1.7155 -2.5037 0.9802
4.0419 -1.5715 -2.5038 0.9802
4.1875 -1.1279 -2.5038 0.9802
4.2253 -0.9769 -2.5039 0.9802
4.2577 -0.8246 -2.5039 0.9802
4.2846 -0.6713 -2.5039 0.9802
4.3320 -0.2068 -2.5039 0.9802
4.3366 -0.0512 -2.5039 0.9802
4.3356 0.1044 -2.5039 0.9802
4.2760 0.7238 -2.5039 0.9802
4.2130 1.0287 -2.5038 0.9802
4.0223 1.6209 -2.5037 0.9802
3.9615 1.7642 -2.5037 0.9802
3.8956 1.9052 -2.5037 0.9802
3.8246 2.0438 -2.5036 0.9802
3.7487 2.1797 -2.5036 0.9802
3.4925 2.5700 -2.5035 0.9802
3.3980 2.6936 -2.5034 0.9802
3.2990 2.8137 -2.5034 0.9802
3.1959 2.9303 -2.5033 0.9802
3.0886 3.0430 -2.5033 0.9802
2.9773 3.1518 -2.5032 0.9802
2.8622 3.2566 -2.5032 0.9802
2.6210 3.4533 -2.5030 0.9802
2.3664 3.6323 -2.5029 0.9802
2.0997 3.7925 -2.5028 0.9802
1.9621 3.8653 -2.5027 0.9802
1.5351 4.0535 -2.5025 0.9802
1.2403 4.1529 -2.5023 0.9802
0.9392 4.2309 -2.5022 0.9802
