ply
format ascii 1.0
element vertex 763
property float32 x
property float32 y
property float32 z
property float32 I
end_header
-8.1474 16.8823 2.8717 0.9269
-8.1462 16.8799 2.4407 0.9272
-35.9333 23.5717 5.5962 0.8408
-39.6676 10.3918 5.3399 0.8475
-8.1451 16.8775 2.0123 0.9274
-39.4789 27.9828 5.1962 0.8231
-40.7622 24.6858 5.1172 0.8255
-39.7538 15.1604 4.5687 0.8427
-39.7882 13.5526 4.5136 0.8444
-39.9105 12.0078 4.4754 0.8456
-39.8549 10.4408 4.4241 0.8473
-47.2713 10.5794 5.2016 0.8229
-38.0120 0.1496 4.0818 0.8582
-38.0101 -1.2207 4.0837 0.8581
-38.0303 -3.9765 4.1060 0.8574
-6.2087 9.1972 0.9394 0.9564
-35.9261 23.5669 3.6372 0.8416
-39.7189 16.8103 3.6510 0.8410
-39.7542 15.1606 3.6017 0.8430
-39.9109 12.0079 3.5282 0.8459
-33.8554 8.8691 2.9627 0.8689
-8.1428 16.8728 1.1618 0.9277
-6.2087 9.1973 0.6881 0.9565
-39.3805 30.1022 3.0737 0.8198
-39.4799 27.9836 3.0008 0.8237
-35.9224 23.5646 2.6641 0.8418
-40.7622 24.6858 2.9551 0.8261
-39.7193 16.8104 2.6745 0.8413
-39.8558 10.4410 2.5549 0.8478
-47.3156 10.5893 3.0066 0.8234
-8.1417 16.8705 0.7386 0.9278
-39.4341 30.1432 1.9572 0.8198
-39.7198 16.8106 1.7007 0.8414
-39.7896 13.5530 1.6575 0.8451
-39.4875 10.3446 1.6096 0.8492
-7.9964 15.1493 0.2894 0.9338
-8.0219 13.9552 0.2719 0.9376
-8.0446 12.8958 0.2567 0.9410
-6.2087 9.1973 0.1874 0.9566
-9.3448 12.8212 0.2680 0.9385
-35.9152 23.5599 0.7256 0.8421
-39.7202 16.8108 0.7286 0.8415
-39.7556 15.1611 0.7187 0.8435
-38.1663 9.9985 0.6665 0.8540
-8.1394 16.8659 -0.1054 0.9278
-8.0196 13.9512 -0.0905 0.9377
-8.0207 12.8573 -0.0853 0.9412
-6.2087 9.1973 -0.0625 0.9566
-39.4814 27.9846 -0.2725 0.8240
-40.7621 24.6858 -0.2683 0.8264
-39.7207 16.8110 -0.2428 0.8415
-39.5267 10.3548 -0.2300 0.8492
-47.3948 8.8270 -0.2714 0.8246
-6.2087 9.1974 -0.3125 0.9566
-39.4357 30.1443 -1.3977 0.8199
-39.4819 27.9850 -1.3627 0.8239
-39.7565 15.1614 -1.1981 0.8434
-39.7909 13.5535 -1.1836 0.8452
-39.8245 11.9819 -1.1710 0.8467
-39.4310 10.3297 -1.1478 0.8495
-47.0555 8.7638 -1.3478 0.8257
-49.1369 3.7423 -1.3876 0.8210
-49.1417 -3.3539 -1.3869 0.8211
-49.1151 -5.1356 -1.3905 0.8207
-49.0772 -6.9273 -1.3956 0.8201
-48.8386 -8.6988 -1.3968 0.8200
-48.0053 -10.3476 -1.3828 0.8216
15.6470 43.7812 -2.3579 0.8301
14.0570 44.3090 -2.3575 0.8301
9.1884 45.5415 -2.3561 0.8302
5.8823 46.0660 -2.3552 0.8303
4.2177 46.2380 -2.3547 0.8303
2.5484 46.3496 -2.3541 0.8303
0.8765 46.4007 -2.3536 0.8304
-0.7958 46.3912 -2.3530 0.8304
-4.1327 46.1909 -2.3519 0.8305
-7.4352 45.6916 -2.3477 0.8308
-11.3844 47.8893 -2.4963 0.8211
-16.4698 46.3369 -2.4940 0.8212
-18.1232 45.6992 -2.4932 0.8213
-19.7519 45.0028 -2.4924 0.8213
-8.0196 13.9512 -0.8160 0.9376
-6.2088 9.1974 -0.5628 0.9565
-9.3187 12.7855 -0.8024 0.9386
-30.2997 38.5713 -2.4875 0.8216
-34.4436 30.4988 -2.3331 0.8317
-35.1523 26.8702 -2.2439 0.8376
-35.6548 23.3890 -2.1625 0.8430
-37.9955 21.1779 -2.2060 0.8401
-39.4101 18.3810 -2.2054 0.8402
-39.7216 16.8114 -2.1874 0.8413
-39.8250 11.9821 -2.1091 0.8466
-38.5053 10.0872 -2.0187 0.8526
-41.5505 6.1988 -2.1305 0.8451
-41.9397 4.7193 -2.1404 0.8445
-41.9956 3.1984 -2.1359 0.8448
-42.0347 -1.3499 -2.1329 0.8450
-41.9537 -4.3868 -2.1392 0.8446
-41.8808 -5.9115 -2.1450 0.8442
-41.7859 -7.4426 -2.1525 0.8437
8.6004 30.9354 -2.3543 0.8792
7.4776 31.2143 -2.3535 0.8792
5.2067 31.6501 -2.3519 0.8793
4.0619 31.8095 -2.3513 0.8793
-2.8549 31.9094 -2.3490 0.8794
-4.0022 31.7803 -2.3486 0.8794
-5.1437 31.6098 -2.3482 0.8795
-6.2782 31.3983 -2.3478 0.8795
-7.4041 31.1457 -2.3473 0.8795
-11.4024 32.0800 -2.4963 0.8724
-13.6773 31.1623 -2.4953 0.8724
-8.0207 12.8573 -1.1111 0.9410
-9.3189 12.7857 -1.1601 0.9385
-20.9939 26.7250 -2.4918 0.8726
-21.9393 25.9467 -2.4914 0.8726
-22.8561 25.1350 -2.4910 0.8726
-26.2133 21.5771 -2.4894 0.8727
-29.0258 17.5782 -2.4881 0.8728
-29.6370 16.5191 -2.4878 0.8728
-30.2097 15.4388 -2.4875 0.8728
-30.7433 14.3388 -2.4873 0.8728
-31.6904 12.0854 -2.4868 0.8728
-32.1028 10.9348 -2.4866 0.8728
-33.0905 7.4056 -2.4863 0.8728
-33.5422 5.0041 -2.4866 0.8728
-33.7066 3.7929 -2.4870 0.8728
-33.8299 2.5765 -2.4877 0.8728
-33.9061 1.3561 -2.4881 0.8728
-33.9290 -1.0896 -2.4890 0.8727
-33.8758 -2.3120 -2.4896 0.8727
-33.6124 -4.7444 -2.4890 0.8727
-33.4070 -5.9502 -2.4880 0.8728
8.2605 23.1132 -2.3564 0.9061
7.4203 23.3896 -2.3558 0.9061
1.3447 24.4569 -2.3515 0.9063
-0.4199 24.4782 -2.3504 0.9063
-1.3013 24.4414 -2.3498 0.9063
-2.1806 24.3729 -2.3493 0.9063
-3.0567 24.2730 -2.3487 0.9064
-3.9285 24.1416 -2.3482 0.9064
-5.6544 23.7857 -2.3472 0.9064
-6.5065 23.5617 -2.3467 0.9064
-8.1820 23.0197 -2.3455 0.9065
-10.4521 23.8140 -2.4968 0.9008
-8.0187 15.1917 -1.6492 0.9333
-8.0196 13.9512 -1.5449 0.9374
-16.0487 20.4298 -2.4942 0.9009
-16.7721 19.8356 -2.4938 0.9009
-17.4736 19.2159 -2.4935 0.9009
-19.4380 17.2117 -2.4926 0.9009
-20.0433 16.4983 -2.4923 0.9009
-20.6225 15.7637 -2.4920 0.9009
-24.8370 7.4727 -2.4901 0.9010
-25.3084 5.6641 -2.4898 0.9010
-25.4951 4.7483 -2.4897 0.9010
-25.6489 3.8265 -2.4897 0.9010
-25.7698 2.8998 -2.4896 0.9010
-25.8573 1.9693 -2.4896 0.9010
-11.7969 0.4718 -1.1335 0.9537
-11.7966 0.0464 -1.1325 0.9537
-11.8039 -0.3791 -1.1338 0.9537
2.5099 19.6554 -2.3537 0.9233
0.3740 19.7995 -2.3523 0.9233
-1.0525 19.7673 -2.3514 0.9234
-1.7637 19.7128 -2.3510 0.9234
-2.4724 19.6328 -2.3505 0.9234
-3.8785 19.3968 -2.3497 0.9234
-5.2635 19.0607 -2.3489 0.9234
-5.9459 18.8556 -2.3485 0.9234
-9.2152 17.4583 -2.3450 0.9236
-8.0206 12.8573 -1.8001 0.9408
-9.3192 12.7862 -1.8793 0.9383
-17.1269 12.1397 -2.4937 0.9189
-17.5518 11.5137 -2.4935 0.9189
-18.3327 10.2183 -2.4931 0.9189
-19.0186 8.8703 -2.4928 0.9189
-19.6059 7.4768 -2.4925 0.9190
-19.8616 6.7652 -2.4924 0.9190
-20.0916 6.0449 -2.4923 0.9190
-20.2956 5.3168 -2.4922 0.9190
-20.4733 4.5819 -2.4921 0.9190
-20.6245 3.8412 -2.4920 0.9190
-20.7490 3.0955 -2.4920 0.9190
-20.8467 2.3458 -2.4919 0.9190
-11.3921 0.0448 -1.3532 0.9551
-11.3894 -0.3658 -1.3536 0.9551
-20.9293 -1.4284 -2.4919 0.9190
-20.7727 -2.9321 -2.4920 0.9190
5.0279 15.8483 -2.3558 0.9350
3.8726 16.1658 -2.3553 0.9350
2.6978 16.3992 -2.3548 0.9351
2.1048 16.4832 -2.3545 0.9351
0.3137 16.6056 -2.3532 0.9351
-0.8827 16.5796 -2.3525 0.9351
-1.4793 16.5344 -2.3521 0.9351
-2.0738 16.4678 -2.3517 0.9351
-3.8370 16.1407 -2.3507 0.9352
-4.4155 15.9897 -2.3504 0.9352
-5.5541 15.6260 -2.3497 0.9352
-6.6561 15.1652 -2.3466 0.9353
-8.0196 13.9512 -2.2801 0.9371
-8.0206 12.8573 -2.1472 0.9406
-6.2088 9.1975 -1.5723 0.9562
-9.3194 12.7864 -2.2418 0.9381
-11.3759 13.4537 -2.4964 0.9313
-11.8522 13.0339 -2.4961 0.9313
-12.3131 12.5973 -2.4959 0.9313
-13.1861 11.6759 -2.4955 0.9313
-15.9535 7.4408 -2.4942 0.9314
-16.6611 5.6751 -2.4939 0.9314
-17.0254 4.4602 -2.4937 0.9314
-17.1745 3.8437 -2.4936 0.9314
-17.5473 1.3364 -2.4935 0.9314
-10.8594 0.0427 -1.5387 0.9571
-17.5573 -1.1983 -2.4935 0.9314
-17.5029 -1.8301 -2.4935 0.9314
-17.4258 -2.4597 -2.4935 0.9314
-17.3262 -3.0860 -2.4936 0.9314
-17.2042 -3.7084 -2.4936 0.9314
4.3242 13.6302 -2.3557 0.9437
3.3307 13.9037 -2.3553 0.9437
2.8273 14.0134 -2.3551 0.9437
2.3203 14.1049 -2.3549 0.9437
1.2983 14.2327 -2.3544 0.9437
0.7845 14.2689 -2.3542 0.9437
-0.2450 14.2847 -2.3536 0.9437
-0.7595 14.2646 -2.3533 0.9437
-1.7843 14.1690 -2.3526 0.9438
-2.7994 14.0001 -2.3520 0.9438
-5.2601 13.2640 -2.3506 0.9438
-6.6481 12.5949 -2.3462 0.9439
-9.5758 10.5306 -2.3448 0.9439
-11.3451 10.0457 -2.4964 0.9404
-11.6989 9.6298 -2.4962 0.9404
-13.2316 7.3750 -2.4955 0.9404
-14.5023 4.3633 -2.4949 0.9405
-14.8874 2.7727 -2.4947 0.9405
-14.9774 2.2344 -2.4947 0.9405
-15.0480 1.6933 -2.4946 0.9405
-15.0608 -1.5748 -2.4946 0.9405
-14.9945 -2.1165 -2.4947 0.9405
-14.9087 -2.6554 -2.4947 0.9405
-14.8037 -3.1910 -2.4948 0.9405
3.3568 12.0742 -2.3555 0.9503
2.9193 12.1861 -2.3553 0.9503
2.4780 12.2822 -2.3551 0.9503
-1.5643 12.4221 -2.3533 0.9503
-2.8947 12.1766 -2.3525 0.9503
-3.3312 12.0631 -2.3523 0.9503
-4.1904 11.7895 -2.3518 0.9504
-4.6121 11.6298 -2.3516 0.9504
-5.4367 11.2654 -2.3511 0.9504
-5.8345 11.0536 -2.3493 0.9504
-6.2229 10.8256 -2.3470 0.9504
-6.6066 10.5906 -2.3462 0.9505
-6.2089 9.1975 -2.0858 0.9558
-8.0572 9.5289 -2.3455 0.9505
-9.0366 8.6021 -2.3451 0.9505
-10.5533 8.0669 -2.4967 0.9474
-10.8365 7.6810 -2.4966 0.9474
-11.1057 7.2851 -2.4965 0.9474
-11.8254 6.0434 -2.4961 0.9474
-12.2290 5.1757 -2.4960 0.9474
-12.4071 4.7315 -2.4959 0.9474
-12.7149 3.8255 -2.4957 0.9474
-13.0527 2.4310 -2.4956 0.9474
-13.1316 1.9591 -2.4955 0.9474
-10.5677 0.4226 -1.9879 0.9579
-10.5966 -0.3403 -1.9928 0.9578
-13.1466 -1.8557 -2.4955 0.9474
-12.9792 -2.7977 -2.4956 0.9474
3.7511 10.4957 -2.3560 0.9555
2.9850 10.7367 -2.3556 0.9555
2.5959 10.8364 -2.3554 0.9555
1.4111 11.0505 -2.3548 0.9555
1.0119 11.0932 -2.3546 0.9555
0.6115 11.1215 -2.3544 0.9555
0.2103 11.1355 -2.3542 0.9555
-0.1910 11.1349 -2.3540 0.9555
-0.9923 11.0907 -2.3537 0.9555
-1.3912 11.0470 -2.3536 0.9555
-1.7882 10.9889 -2.3534 0.9555
-2.1828 10.9166 -2.3532 0.9555
-3.3473 10.6149 -2.3527 0.9555
-3.7273 10.4865 -2.3525 0.9555
-4.1024 10.3445 -2.3523 0.9555
-4.4721 10.1891 -2.3521 0.9555
-5.1934 9.8391 -2.3517 0.9555
-5.8799 9.4257 -2.3483 0.9556
-6.2089 9.1976 -2.3457 0.9556
-6.8562 8.7279 -2.3461 0.9556
-7.1658 8.4747 -2.3459 0.9556
-7.4661 8.2105 -2.3458 0.9556
-7.7566 7.9357 -2.3457 0.9556
-8.8460 7.8328 -2.4975 0.9528
-9.6381 6.8316 -2.4972 0.9528
-9.8776 6.4795 -2.4971 0.9529
-10.5178 5.3751 -2.4968 0.9529
-10.7043 4.9925 -2.4967 0.9529
-11.3092 3.4026 -2.4964 0.9529
-11.4242 2.9928 -2.4963 0.9529
-11.5244 2.5792 -2.4963 0.9529
-11.6799 1.7425 -2.4962 0.9529
-11.7995 0.4719 -2.4962 0.9529
-11.8088 0.0465 -2.4962 0.9529
-11.8028 -0.3791 -2.4962 0.9529
-11.7815 -0.8041 -2.4962 0.9529
-11.6263 -2.0708 -2.4962 0.9529
2.3349 9.7465 -2.3555 0.9597
1.9820 9.8236 -2.3553 0.9597
1.6266 9.8879 -2.3551 0.9597
0.9102 9.9779 -2.3548 0.9597
0.5500 10.0034 -2.3546 0.9597
-0.5325 10.0022 -2.3541 0.9597
-0.8925 9.9758 -2.3539 0.9597
-1.2513 9.9366 -2.3538 0.9597
-2.3158 9.7416 -2.3533 0.9597
-2.6651 9.6512 -2.3531 0.9597
-3.0110 9.5483 -2.3530 0.9597
-3.6904 9.3056 -2.3527 0.9597
-4.3505 9.0147 -2.3525 0.9597
-4.9878 8.6770 -2.3522 0.9597
-6.4459 7.6232 -2.3463 0.9598
-6.7160 7.3856 -2.3461 0.9598
-6.9774 7.1385 -2.3460 0.9598
-7.2297 6.8821 -2.3459 0.9598
-8.2057 6.7544 -2.4978 0.9573
-8.4434 6.4541 -2.4977 0.9573
-8.8855 5.8287 -2.4975 0.9573
-9.0894 5.5046 -2.4974 0.9573
-9.6294 4.4912 -2.4972 0.9573
-9.7847 4.1412 -2.4971 0.9573
-9.9273 3.7858 -2.4970 0.9573
-10.0570 3.4256 -2.4970 0.9573
-10.3673 2.3202 -2.4968 0.9573
-10.5568 1.1879 -2.4967 0.9573
-10.6232 0.0418 -2.4967 0.9573
-10.6178 -0.3410 -2.4967 0.9573
-10.5987 -0.7234 -2.4967 0.9573
-10.5658 -1.1048 -2.4967 0.9573
-10.5192 -1.4848 -2.4968 0.9573
-10.4590 -1.8629 -2.4968 0.9573
-10.3852 -2.2385 -2.4968 0.9573
2.1194 8.8473 -2.3555 0.9631
1.4766 8.9757 -2.3552 0.9631
0.8262 9.0575 -2.3549 0.9631
0.4993 9.0808 -2.3547 0.9631
0.1717 9.0923 -2.3546 0.9631
-0.4834 9.0799 -2.3543 0.9631
-1.1359 9.0204 -2.3540 0.9631
-2.7334 8.6682 -2.3533 0.9631
-3.0438 8.5636 -2.3532 0.9631
-3.3502 8.4479 -2.3530 0.9631
-3.6520 8.3206 -2.3527 0.9632
-3.9486 8.1819 -2.3522 0.9632
-4.2398 8.0325 -2.3517 0.9632
-4.8050 7.7025 -2.3505 0.9632
-5.5988 7.1273 -2.3467 0.9632
-6.0970 6.7049 -2.3464 0.9632
-6.3343 6.4805 -2.3463 0.9632
-6.8919 6.5605 -2.4637 0.9614
-7.6653 5.8593 -2.4981 0.9609
-7.8711 5.5791 -2.4980 0.9609
-8.0668 5.2917 -2.4979 0.9609
-8.2519 4.9974 -2.4978 0.9609
-8.7422 4.0774 -2.4976 0.9609
-8.8832 3.7596 -2.4975 0.9609
-9.0127 3.4371 -2.4975 0.9609
-9.3304 2.4443 -2.4973 0.9609
-9.4122 2.1065 -2.4973 0.9609
-9.4819 1.7659 -2.4972 0.9609
-9.5393 1.4232 -2.4972 0.9609
-9.5843 1.0785 -2.4972 0.9609
-9.6168 0.7324 -2.4972 0.9609
-9.6370 0.3855 -2.4972 0.9609
-9.6446 0.0380 -2.4972 0.9609
-9.6397 -0.3096 -2.4972 0.9609
-9.5924 -1.0030 -2.4972 0.9609
-9.4285 -2.0323 -2.4973 0.9609
2.2279 8.0137 -2.3547 0.9660
1.9378 8.0890 -2.3547 0.9660
1.6451 8.1537 -2.3548 0.9660
1.3502 8.2077 -2.3548 0.9660
1.0536 8.2510 -2.3548 0.9660
0.7556 8.2834 -2.3547 0.9660
0.1571 8.3156 -2.3545 0.9660
-0.4421 8.3042 -2.3542 0.9660
-0.7410 8.2822 -2.3540 0.9660
-1.6299 8.1512 -2.3532 0.9660
-1.9223 8.0862 -2.3529 0.9660
-2.2121 8.0105 -2.3526 0.9660
-2.4989 7.9244 -2.3522 0.9660
-2.7823 7.8279 -2.3518 0.9661
-3.0620 7.7212 -2.3514 0.9661
-3.3376 7.6044 -2.3510 0.9661
-3.6087 7.4777 -2.3505 0.9661
-3.8750 7.3413 -2.3500 0.9661
-4.1361 7.1953 -2.3495 0.9661
-4.3917 7.0400 -2.3490 0.9661
-5.1220 6.5202 -2.3472 0.9661
-5.3525 6.3302 -2.3468 0.9661
-6.8141 5.6090 -2.4985 0.9640
-7.0116 5.3596 -2.4984 0.9640
-7.3788 4.8404 -2.4982 0.9640
-7.7078 4.2961 -2.4981 0.9640
-8.1257 3.4391 -2.4979 0.9640
-8.2442 3.1440 -2.4978 0.9640
-8.5349 2.2361 -2.4977 0.9640
-8.6098 1.9269 -2.4977 0.9640
-8.6735 1.6155 -2.4976 0.9640
-8.7970 0.6700 -2.4976 0.9640
-8.8154 0.3526 -2.4976 0.9640
-8.8179 -0.2832 -2.4976 0.9640
-8.8020 -0.6008 -2.4976 0.9640
-8.7359 -1.2331 -2.4976 0.9640
-8.6246 -1.8590 -2.4976 0.9640
2.5742 7.2028 -2.3527 0.9685
2.3131 7.2913 -2.3528 0.9685
1.5130 7.4989 -2.3530 0.9685
1.2418 7.5485 -2.3530 0.9685
0.4200 7.6380 -2.3528 0.9685
0.1445 7.6478 -2.3527 0.9685
-0.4066 7.6374 -2.3524 0.9685
-0.6815 7.6172 -2.3523 0.9685
-0.9554 7.5870 -2.3520 0.9685
-1.4990 7.4970 -2.3516 0.9685
-3.3194 6.8781 -2.3490 0.9685
-3.5644 6.7528 -2.3486 0.9686
-3.8046 6.6186 -2.3481 0.9686
-4.0398 6.4759 -2.3476 0.9686
-4.2699 6.3252 -2.3473 0.9686
-5.4664 6.0114 -2.4991 0.9666
-6.4541 4.9335 -2.4987 0.9666
-6.7922 4.4555 -2.4985 0.9666
-7.2327 3.6963 -2.4983 0.9666
-7.6880 2.6187 -2.4981 0.9666
-7.7773 2.3399 -2.4980 0.9666
-7.8564 2.0582 -2.4980 0.9666
-7.9841 1.4870 -2.4979 0.9666
-8.0703 0.9081 -2.4979 0.9666
-8.0977 0.6167 -2.4979 0.9666
-8.1147 0.3246 -2.4979 0.9666
-8.1211 0.0320 -2.4979 0.9666
-8.1023 -0.5530 -2.4979 0.9666
-8.0772 -0.8446 -2.4979 0.9666
-8.0415 -1.1351 -2.4979 0.9666
-7.9955 -1.4241 -2.4979 0.9666
-7.9391 -1.7113 -2.4980 0.9666
1.8947 6.8152 -2.3513 0.9706
1.3990 6.9342 -2.3514 0.9706
0.1336 7.0720 -2.3512 0.9706
-0.1213 7.0718 -2.3511 0.9706
-0.3760 7.0624 -2.3509 0.9706
-0.6302 7.0438 -2.3507 0.9706
-1.3862 6.9327 -2.3501 0.9706
-1.6349 6.8775 -2.3498 0.9706
-1.8815 6.8133 -2.3495 0.9706
-2.3666 6.6583 -2.3489 0.9707
-2.6046 6.5677 -2.3486 0.9707
-2.8391 6.4686 -2.3482 0.9707
-3.0699 6.3612 -2.3478 0.9707
-3.5719 6.2137 -2.3824 0.9702
-3.8706 6.2047 -2.4309 0.9696
-4.1818 6.1948 -2.4844 0.9690
-4.8549 5.7417 -2.4994 0.9688
-5.0585 5.5629 -2.4993 0.9688
-5.2554 5.3768 -2.4992 0.9688
-5.4456 5.1837 -2.4991 0.9688
-5.6286 4.9840 -2.4991 0.9688
-5.8044 4.7778 -2.4990 0.9688
-6.4298 3.8939 -2.4987 0.9688
-6.5657 3.6596 -2.4986 0.9688
-6.6932 3.4205 -2.4986 0.9688
-6.8119 3.1771 -2.4985 0.9688
-7.1972 2.1654 -2.4983 0.9688
-7.2704 1.9046 -2.4983 0.9688
-7.3342 1.6414 -2.4983 0.9688
-7.4333 1.1089 -2.4982 0.9688
-7.4684 0.8404 -2.4982 0.9688
-7.4937 0.5707 -2.4982 0.9688
-7.5094 0.3004 -2.4982 0.9688
-7.5116 -0.2412 -2.4982 0.9688
-7.4747 -0.7816 -2.4982 0.9688
-7.3469 -1.5836 -2.4982 0.9688
2.2232 6.2206 -2.3623 0.9723
1.9874 6.2644 -2.3502 0.9725
1.0667 6.4844 -2.3501 0.9725
0.8324 6.5186 -2.3500 0.9725
0.5970 6.5442 -2.3500 0.9725
-0.1127 6.5697 -2.3497 0.9725
-0.3493 6.5610 -2.3496 0.9725
-0.8208 6.5179 -2.3493 0.9725
-1.5189 6.3894 -2.3486 0.9725
-2.4637 6.2124 -2.3899 0.9720
-2.9917 6.1991 -2.4615 0.9712
-3.2636 6.1829 -2.5002 0.9707
-3.4841 6.0610 -2.5001 0.9707
-4.8854 4.9982 -2.4994 0.9707
-5.0622 4.8188 -2.4993 0.9707
-5.3957 4.4414 -2.4992 0.9707
-5.5521 4.2440 -2.4991 0.9707
-5.8430 3.8329 -2.4990 0.9708
-6.1036 3.4020 -2.4988 0.9708
-6.2220 3.1798 -2.4988 0.9708
-6.3324 2.9535 -2.4987 0.9708
-6.6906 2.0130 -2.4986 0.9708
-6.7587 1.7706 -2.4985 0.9708
-6.8685 1.2792 -2.4985 0.9708
-6.9101 1.0309 -2.4985 0.9708
-6.9427 0.7813 -2.4984 0.9708
-6.9809 0.2792 -2.4984 0.9708
-6.9864 0.0274 -2.4984 0.9708
-6.9829 -0.2242 -2.4984 0.9708
-6.9703 -0.4758 -2.4984 0.9708
-6.9180 -0.9765 -2.4984 0.9708
-6.8784 -1.2251 -2.4985 0.9708
-6.8298 -1.4722 -2.4985 0.9708
2.1979 6.1498 -2.5027 0.9724
1.7234 6.1988 -2.4656 0.9728
1.4859 6.2027 -2.4443 0.9730
0.7931 6.2110 -2.3995 0.9735
0.3416 6.2136 -2.3848 0.9737
-0.1066 6.2142 -2.3817 0.9737
-0.7821 6.2109 -2.3989 0.9735
-1.0103 6.2087 -2.4106 0.9734
-1.2409 6.2060 -2.4253 0.9733
-1.4745 6.2027 -2.4432 0.9731
-2.4055 6.0656 -2.5006 0.9724
-3.0456 5.7699 -2.5003 0.9724
-3.2514 5.6562 -2.5002 0.9724
-3.4529 5.5352 -2.5001 0.9724
-4.5592 4.6645 -2.4996 0.9724
-4.7242 4.4970 -2.4995 0.9724
-5.0355 4.1449 -2.4993 0.9724
-5.1814 3.9606 -2.4993 0.9724
-5.3206 3.7713 -2.4992 0.9725
-5.4529 3.5770 -2.4991 0.9725
-5.5781 3.3782 -2.4991 0.9725
-5.6961 3.1749 -2.4990 0.9725
-5.9097 2.7563 -2.4989 0.9725
-6.1723 2.1024 -2.4988 0.9725
-6.2440 1.8786 -2.4988 0.9725
-6.3629 1.4240 -2.4987 0.9725
-6.4489 0.9621 -2.4987 0.9725
-6.5013 0.4952 -2.4986 0.9725
-6.5149 0.2606 -2.4986 0.9725
-6.4848 -0.6781 -2.4987 0.9725
1.2092 5.9931 -2.5023 0.9739
0.9924 6.0325 -2.5022 0.9739
0.3356 6.1037 -2.5018 0.9739
0.1154 6.1115 -2.5017 0.9739
-0.9816 6.0320 -2.5012 0.9739
-1.1982 5.9925 -2.5011 0.9739
-1.6265 5.8902 -2.5009 0.9739
-1.8376 5.8275 -2.5008 0.9739
-2.0464 5.7573 -2.5007 0.9739
-2.2524 5.6796 -2.5006 0.9739
-2.6554 5.5022 -2.5004 0.9739
-2.8518 5.4028 -2.5004 0.9739
-3.2333 5.1830 -2.5002 0.9739
-3.5979 4.9363 -2.5000 0.9739
-3.7733 4.8033 -2.4999 0.9739
-4.1091 4.5189 -2.4998 0.9739
-4.2692 4.3677 -2.4997 0.9739
-4.4236 4.2110 -2.4996 0.9739
-4.5724 4.0487 -2.4995 0.9739
-4.8518 3.7087 -2.4994 0.9740
-5.1061 3.3495 -2.4993 0.9740
-5.5338 2.5810 -2.4991 0.9740
-5.6232 2.3799 -2.4991 0.9740
-5.9064 1.5473 -2.4989 0.9740
-6.0387 0.9009 -2.4989 0.9740
-6.0673 0.6827 -2.4988 0.9740
-6.1024 -0.1960 -2.4988 0.9740
-6.0913 -0.4157 -2.4988 0.9740
1.7364 5.4733 -2.5025 0.9753
1.1355 5.6281 -2.5022 0.9753
0.9320 5.6651 -2.5021 0.9753
0.5215 5.7170 -2.5019 0.9753
0.1084 5.7393 -2.5017 0.9753
-0.0985 5.7393 -2.5016 0.9753
-0.3052 5.7318 -2.5015 0.9753
-0.5115 5.7168 -2.5014 0.9753
-0.9218 5.6647 -2.5013 0.9753
-1.3273 5.5832 -2.5011 0.9753
-1.5275 5.5315 -2.5010 0.9753
-2.1153 5.3338 -2.5007 0.9753
-2.3060 5.2540 -2.5006 0.9753
-2.4937 5.1673 -2.5005 0.9753
-3.0364 4.8675 -2.5003 0.9753
-3.2098 4.7548 -2.5002 0.9753
-3.7038 4.3802 -2.5000 0.9753
-4.0094 4.1019 -2.4998 0.9753
-4.1544 3.9547 -2.4997 0.9753
-4.4282 3.6450 -2.4996 0.9753
-4.9055 2.9708 -2.4994 0.9753
-5.1065 2.6097 -2.4993 0.9753
-5.1972 2.4240 -2.4993 0.9753
-5.2810 2.2351 -2.4992 0.9753
-5.4912 1.6521 -2.4991 0.9753
-5.5958 1.2523 -2.4991 0.9753
-5.6714 0.8461 -2.4990 0.9753
-5.7175 0.4355 -2.4990 0.9753
-5.7295 0.2292 -2.4990 0.9753
-5.7208 -0.3904 -2.4990 0.9753
-5.7030 -0.5963 -2.4990 0.9753
1.8195 5.0910 -2.5025 0.9765
1.4488 5.2085 -2.5024 0.9765
1.2594 5.2571 -2.5023 0.9765
0.6847 5.3617 -2.5020 0.9765
-0.0927 5.4037 -2.5016 0.9765
-0.2873 5.3966 -2.5016 0.9765
-0.4816 5.3826 -2.5015 0.9765
-0.6752 5.3615 -2.5014 0.9765
-1.2498 5.2568 -2.5011 0.9765
-1.4383 5.2082 -2.5010 0.9765
-1.6249 5.1528 -2.5009 0.9765
-1.8094 5.0907 -2.5008 0.9765
-2.1712 4.9469 -2.5007 0.9765
-2.5217 4.7773 -2.5005 0.9765
-2.6921 4.6832 -2.5004 0.9765
-3.1814 4.3649 -2.5002 0.9765
-3.4873 4.1243 -2.5001 0.9765
-3.6336 3.9959 -2.5000 0.9765
-3.7751 3.8622 -2.4999 0.9765
-3.9117 3.7236 -2.4999 0.9765
-4.1695 3.4321 -2.4997 0.9765
-4.2903 3.2795 -2.4997 0.9765
-4.4056 3.1227 -2.4996 0.9765
-4.6189 2.7972 -2.4995 0.9765
-4.8935 2.2824 -2.4994 0.9765
-4.9725 2.1045 -2.4994 0.9765
-5.0450 1.9240 -2.4993 0.9765
-5.2230 1.3683 -2.4992 0.9765
-5.3079 0.9886 -2.4992 0.9765
-5.3401 0.7967 -2.4992 0.9765
-5.3948 0.2158 -2.4992 0.9765
-5.3990 0.0213 -2.4992 0.9765
-5.3866 -0.3676 -2.4992 0.9765
-5.3155 -0.9468 -2.4992 0.9765
-5.2780 -1.1377 -2.4992 0.9765
1.7169 4.8041 -2.5025 0.9775
1.5427 4.8627 -2.5024 0.9775
1.0088 5.0002 -2.5022 0.9775
0.4633 5.0794 -2.5019 0.9775
0.2800 5.0926 -2.5018 0.9775
-0.0875 5.0992 -2.5016 0.9775
-0.6371 5.0595 -2.5014 0.9775
-0.9998 5.0001 -2.5012 0.9775
-1.1793 4.9607 -2.5011 0.9775
-1.3572 4.9148 -2.5011 0.9775
-1.7075 4.8040 -2.5009 0.9775
-1.8794 4.7392 -2.5008 0.9775
-2.0489 4.6683 -2.5007 0.9775
-3.1486 4.0082 -2.5002 0.9775
-3.2909 3.8920 -2.5001 0.9775
-3.5625 3.6448 -2.5000 0.9775
-3.9347 3.2388 -2.4998 0.9776
-4.4511 2.4809 -2.4996 0.9776
-4.5375 2.3189 -2.4996 0.9776
-4.6180 2.1539 -2.4995 0.9776
-4.7610 1.8157 -2.4995 0.9776
-4.9290 1.2912 -2.4994 0.9776
-5.0091 0.9329 -2.4993 0.9776
-5.0395 0.7518 -2.4993 0.9776
-5.0632 0.5697 -2.4993 0.9776
-5.0805 0.3869 -2.4993 0.9776
-5.0951 0.0201 -2.4993 0.9776
-5.0926 -0.1636 -2.4993 0.9776
-5.0834 -0.3470 -2.4993 0.9776
-5.0452 -0.7121 -2.4993 0.9776
-4.9809 -1.0736 -2.4994 0.9776
1.6234 4.5423 -2.5024 0.9785
1.2920 4.6472 -2.5023 0.9785
0.4381 4.8027 -2.5019 0.9785
0.2648 4.8152 -2.5018 0.9785
-0.4297 4.8027 -2.5015 0.9785
-0.9453 4.7278 -2.5012 0.9785
-1.4499 4.5978 -2.5010 0.9785
-1.9374 4.4141 -2.5008 0.9785
-2.0951 4.3413 -2.5007 0.9785
-2.2501 4.2628 -2.5006 0.9785
-2.4022 4.1789 -2.5006 0.9785
-2.5511 4.0895 -2.5005 0.9785
-2.8388 3.8949 -2.5004 0.9785
-3.1118 3.6802 -2.5002 0.9785
-3.2423 3.5656 -2.5002 0.9785
-3.3686 3.4464 -2.5001 0.9785
-3.6079 3.1947 -2.5000 0.9785
-4.0291 2.6430 -2.4998 0.9785
-4.1216 2.4961 -2.4998 0.9785
-4.2088 2.3459 -2.4997 0.9785
-4.2906 2.1927 -2.4997 0.9785
-4.4372 1.8780 -2.4996 0.9785
-4.5608 1.5535 -2.4996 0.9785
-4.6608 1.2210 -2.4995 0.9785
-4.7017 1.0522 -2.4995 0.9785
-4.7365 0.8821 -2.4995 0.9785
-4.7877 0.5387 -2.4994 0.9785
-4.8141 0.1925 -2.4994 0.9785
-4.8179 0.0190 -2.4994 0.9785
-4.8154 -0.1547 -2.4994 0.9785
-4.8067 -0.3281 -2.4994 0.9785
-4.7918 -0.5011 -2.4994 0.9785
-4.7707 -0.6734 -2.4995 0.9785
1.5376 4.3024 -2.5024 0.9794
1.2237 4.4017 -2.5023 0.9794
1.0643 4.4428 -2.5022 0.9794
0.4150 4.5491 -2.5019 0.9794
-0.2428 4.5609 -2.5016 0.9794
-0.7335 4.5077 -2.5013 0.9794
-0.8954 4.4782 -2.5013 0.9794
-1.0562 4.4429 -2.5012 0.9794
-1.3733 4.3550 -2.5010 0.9794
-1.8351 4.1810 -2.5008 0.9794
-1.9845 4.1121 -2.5008 0.9794
-2.2753 3.9583 -2.5006 0.9794
-2.4164 3.8736 -2.5006 0.9794
-3.1908 3.2645 -2.5002 0.9794
-3.5242 2.9009 -2.5000 0.9794
-3.6264 2.7720 -2.5000 0.9794
-3.7238 2.6395 -2.4999 0.9794
-3.9041 2.3643 -2.4999 0.9794
-3.9867 2.2221 -2.4998 0.9794
-4.1363 1.9292 -2.4998 0.9794
-4.2031 1.7789 -2.4997 0.9794
-4.2644 1.6263 -2.4997 0.9794
-4.3703 1.3149 -2.4996 0.9794
-4.4536 0.9967 -2.4996 0.9794
-4.5138 0.6734 -2.4996 0.9794
-4.5505 0.3466 -2.4996 0.9794
-4.5600 0.1824 -2.4996 0.9794
-4.5390 -0.4746 -2.4996 0.9794
-4.5189 -0.6378 -2.4996 0.9794
1.3106 4.1312 -2.5023 0.9802
1.0096 4.2146 -2.5022 0.9802
0.8571 4.2482 -2.5021 0.9802
0.5489 4.2986 -2.5019 0.9802
0.0818 4.3323 -2.5017 0.9802
-0.0743 4.3323 -2.5017 0.9802
-0.2304 4.3267 -2.5016 0.9802
-0.8495 4.2483 -2.5013 0.9802
-1.0019 4.2148 -2.5012 0.9802
-1.3028 4.1314 -2.5011 0.9802
-1.4508 4.0817 -2.5010 0.9802
-1.7409 3.9664 -2.5009 0.9802
-2.1586 3.7551 -2.5007 0.9802
-2.4233 3.5897 -2.5006 0.9802
-2.7963 3.3070 -2.5004 0.9802
-2.9136 3.2040 -2.5003 0.9802
-3.1366 2.9858 -2.5002 0.9802
-3.4403 2.6297 -2.5001 0.9802
-3.6206 2.3750 -2.5000 0.9802
-3.7038 2.2430 -2.5000 0.9802
-4.0456 1.5428 -2.4998 0.9802
-4.2251 0.9456 -2.4997 0.9802
-4.2564 0.7927 -2.4997 0.9802
-4.2822 0.6388 -2.4997 0.9802
-4.3170 0.3288 -2.4997 0.9802
-4.3261 0.1730 -2.4997 0.9802
-4.3195 -0.2948 -2.4997 0.9802
-4.2871 -0.6051 -2.4997 0.9802
-4.2324 -0.9123 -2.4997 0.9802
