ply
format ascii 1.0
element vertex 880
property float32 x
property float32 y
property float32 z
property float32 I
end_header
12.5005 8.7923 2.6948 0.9398
-8.6371 16.8603 3.3403 0.9259
-6.6292 9.3540 2.0216 0.9545
4.8037 48.3252 7.4396 0.8216
-6.6294 9.3543 1.7564 0.9547
12.4980 8.7905 1.9897 0.9402
4.8042 48.3300 6.3246 0.8221
4.8040 48.3282 5.2151 0.8225
34.6687 20.8481 3.4246 0.8501
34.7062 22.5995 3.5060 0.8468
4.8035 48.3238 4.1109 0.8229
-6.6300 9.3551 0.9706 0.9550
36.6889 20.3124 2.6005 0.8453
12.4943 8.7879 0.9472 0.9406
34.7867 26.3767 2.7071 0.8395
34.8774 30.6095 2.8776 0.8303
34.9808 35.4373 3.0877 0.8191
4.8031 48.3193 3.0111 0.8232
36.6889 20.3124 1.6536 0.8455
34.7053 22.5989 1.6330 0.8472
34.8302 28.4281 1.7728 0.8353
34.8769 30.6090 1.8297 0.8305
4.8027 48.3149 1.9145 0.8234
-8.6328 16.8519 0.7466 0.9270
39.8656 20.2429 0.7552 0.8362
36.6863 20.3110 0.7083 0.8456
34.6672 20.8473 0.6833 0.8506
34.7048 22.5986 0.6996 0.8473
12.4918 8.7862 0.2580 0.9407
34.7857 26.3760 0.7374 0.8398
34.8296 28.4277 0.7594 0.8354
34.8763 30.6086 0.7838 0.8306
34.9228 32.9341 0.8109 0.8253
4.8022 48.3104 0.8201 0.8235
-8.5277 15.2742 0.2955 0.9324
-8.6014 13.1068 0.2648 0.9392
-6.6305 9.3559 0.1937 0.9552
-9.9030 12.9642 0.2756 0.9368
36.6863 20.3110 -0.2361 0.8456
34.7043 22.5983 -0.2332 0.8473
34.7852 26.3756 -0.2458 0.8398
34.8758 30.6081 -0.2612 0.8306
34.9257 32.9368 -0.2703 0.8253
34.9792 35.4357 -0.2803 0.8194
-8.5757 15.3602 -0.0990 0.9320
-9.7664 12.7854 -0.0906 0.9377
34.6664 20.8468 -1.1390 0.8506
12.4894 8.7845 -0.4300 0.9407
34.8287 28.4269 -1.2659 0.8354
34.9252 32.9363 -1.3517 0.8252
-8.5759 15.3605 -0.4954 0.9320
-8.6010 14.1879 -0.4672 0.9358
-6.6309 9.3564 -0.3229 0.9551
-9.7582 12.7747 -0.4526 0.9377
49.8572 2.0194 -2.5305 0.8189
49.7005 3.7976 -2.5279 0.8190
49.4861 5.5679 -2.5255 0.8192
46.2601 6.8886 -2.3719 0.8292
46.0590 8.5530 -2.3758 0.8289
45.7151 10.1933 -2.3753 0.8290
44.8510 13.4304 -2.3744 0.8290
44.3321 15.0230 -2.3738 0.8291
43.7563 16.5955 -2.3733 0.8291
43.1244 18.1459 -2.3727 0.8291
42.4372 19.6721 -2.3722 0.8292
39.8655 20.2429 -2.2675 0.8360
36.6863 20.3110 -2.1266 0.8454
12.4881 8.7836 -0.7743 0.9407
34.7843 26.3749 -2.2138 0.8396
34.8282 28.4265 -2.2799 0.8352
34.8749 30.6073 -2.3532 0.8304
33.9444 32.0114 -2.3662 0.8296
30.2969 35.4376 -2.3645 0.8297
27.6711 37.4935 -2.3632 0.8297
17.4766 43.0882 -2.3581 0.8301
11.1446 45.1104 -2.3565 0.8302
2.9363 46.3271 -2.3542 0.8303
1.2768 46.3923 -2.3536 0.8304
-0.3835 46.3977 -2.3531 0.8304
-8.6054 45.4380 -2.3453 0.8309
-15.9514 46.5257 -2.4943 0.8212
-17.6002 45.9112 -2.4936 0.8212
-20.8255 44.5089 -2.4921 0.8213
-8.5760 15.3608 -0.8922 0.9320
-6.6311 9.3567 -0.5816 0.9551
-9.7582 12.7747 -0.8152 0.9376
33.8117 -5.9505 -2.5172 0.8714
34.1528 -3.5179 -2.5174 0.8714
34.3179 -1.0670 -2.5175 0.8714
34.3342 0.1614 -2.5175 0.8714
34.3062 1.3895 -2.5175 0.8714
34.2341 2.6159 -2.5174 0.8714
33.3741 6.1975 -2.4889 0.8727
31.4881 7.0211 -2.3655 0.8786
30.9477 9.2671 -2.3687 0.8785
30.5918 10.3667 -2.3683 0.8785
30.1966 11.4527 -2.3680 0.8785
29.2906 13.5779 -2.3672 0.8785
28.2347 15.6319 -2.3663 0.8786
27.0345 17.6040 -2.3654 0.8786
12.4869 8.7828 -1.1194 0.9406
25.6963 19.4841 -2.3645 0.8787
24.9777 20.3866 -2.3640 0.8787
24.2273 21.2626 -2.3635 0.8787
23.4461 22.1109 -2.3630 0.8787
16.2239 27.7885 -2.3594 0.8789
14.1900 28.8662 -2.3584 0.8790
12.0818 29.7874 -2.3569 0.8790
9.9142 30.5539 -2.3553 0.8791
8.8118 30.8784 -2.3545 0.8792
6.5770 31.4082 -2.3529 0.8792
4.3116 31.7769 -2.3513 0.8793
3.1715 31.9053 -2.3509 0.8793
2.0278 31.9937 -2.3506 0.8793
-2.5547 31.9355 -2.3491 0.8794
-3.6949 31.8184 -2.3487 0.8794
-5.9585 31.4618 -2.3479 0.8795
-7.0789 31.2231 -2.3474 0.8795
-11.0430 32.2092 -2.4966 0.8724
-12.1856 31.7869 -2.4961 0.8724
-8.5762 15.3611 -1.2900 0.9319
-8.6013 14.1884 -1.2166 0.9356
-6.6313 9.3569 -0.8409 0.9550
-9.7582 12.7747 -1.1787 0.9376
25.6056 -5.4572 -2.5135 0.9001
25.7853 -4.5379 -2.5136 0.9001
25.9318 -3.6127 -2.5136 0.9001
26.1831 0.1231 -2.5137 0.9001
26.1619 1.0596 -2.5137 0.9001
26.1070 1.9948 -2.5137 0.9001
25.8965 3.8563 -2.5136 0.9001
25.7412 4.7800 -2.5135 0.9001
23.8650 6.2252 -2.3678 0.9056
23.5681 7.0574 -2.3619 0.9059
23.3217 7.9031 -2.3641 0.9058
23.0347 8.7364 -2.3652 0.9057
21.9576 11.1496 -2.3642 0.9058
12.4857 8.7819 -1.4655 0.9405
19.6087 14.8681 -2.3625 0.9058
19.0612 15.5576 -2.3621 0.9059
17.8942 16.8752 -2.3614 0.9059
14.5931 19.7732 -2.3593 0.9060
13.8745 20.2798 -2.3590 0.9060
12.3854 21.2138 -2.3583 0.9060
11.6168 21.6400 -2.3580 0.9060
10.0368 22.4086 -2.3573 0.9060
5.8826 23.8113 -2.3547 0.9061
5.0257 24.0003 -2.3541 0.9062
1.5495 24.4472 -2.3518 0.9063
0.6738 24.4810 -2.3512 0.9063
-2.8223 24.3041 -2.3490 0.9064
-3.6891 24.1823 -2.3485 0.9064
-6.2548 23.6329 -2.3470 0.9064
-7.0948 23.3894 -2.3465 0.9065
-8.7442 22.8099 -2.3453 0.9065
-8.5764 15.3615 -1.6891 0.9317
-8.6015 14.1887 -1.5929 0.9355
-6.6314 9.3572 -1.1011 0.9550
-9.7582 12.7747 -1.5433 0.9374
20.6337 4.6008 -2.5112 0.9184
20.4552 5.3358 -2.5111 0.9184
18.8310 6.3813 -2.3618 0.9230
17.3993 9.6329 -2.3624 0.9230
12.4055 8.7255 -1.8016 0.9407
15.3980 12.5678 -2.3610 0.9231
14.4562 13.6330 -2.3603 0.9231
13.9574 14.1395 -2.3600 0.9231
13.4408 14.6277 -2.3597 0.9231
12.9071 15.0971 -2.3594 0.9231
11.7913 15.9768 -2.3587 0.9231
11.2106 16.3860 -2.3584 0.9231
10.6157 16.7742 -2.3580 0.9232
10.0073 17.1407 -2.3577 0.9232
9.3867 17.4857 -2.3574 0.9232
8.1104 18.1077 -2.3568 0.9232
7.4566 18.3840 -2.3565 0.9232
6.7933 18.6366 -2.3563 0.9232
6.1215 18.8654 -2.3560 0.9232
5.4420 19.0699 -2.3557 0.9232
4.7558 19.2500 -2.3554 0.9232
4.0632 19.4039 -2.3549 0.9232
3.3658 19.5328 -2.3544 0.9233
2.6644 19.6367 -2.3539 0.9233
1.9598 19.7154 -2.3535 0.9233
1.2530 19.7690 -2.3530 0.9233
0.5449 19.7973 -2.3525 0.9233
-0.1636 19.8003 -2.3521 0.9233
-0.8717 19.7780 -2.3516 0.9234
-1.5784 19.7304 -2.3512 0.9234
-2.2828 19.6577 -2.3508 0.9234
-2.9840 19.5600 -2.3503 0.9234
-3.6812 19.4373 -2.3499 0.9234
-4.3734 19.2899 -2.3495 0.9234
-7.0756 18.4572 -2.3480 0.9235
-7.7238 18.1744 -2.3457 0.9235
-8.5589 16.7077 -2.2299 0.9272
-8.6006 14.1874 -1.9707 0.9354
-6.6316 9.3575 -1.3624 0.9549
17.3234 -3.6921 -2.5097 0.9309
17.6202 -1.8150 -2.5098 0.9309
17.6740 -1.1835 -2.5098 0.9309
17.7135 0.0833 -2.5098 0.9309
17.5199 2.6089 -2.5098 0.9309
17.2878 3.8547 -2.5096 0.9309
16.7737 5.6842 -2.5094 0.9309
14.8462 7.5386 -2.3592 0.9349
14.5749 8.0693 -2.3605 0.9349
13.9633 9.0924 -2.3609 0.9349
13.2747 10.0654 -2.3604 0.9349
12.9047 10.5327 -2.3602 0.9349
11.6981 11.8508 -2.3594 0.9349
11.2654 12.2602 -2.3591 0.9349
10.3575 13.0313 -2.3586 0.9350
8.8985 14.0609 -2.3577 0.9350
8.3888 14.3684 -2.3574 0.9350
6.7986 15.1788 -2.3566 0.9350
6.2506 15.4106 -2.3563 0.9350
5.1316 15.8148 -2.3558 0.9350
3.9869 16.1379 -2.3553 0.9350
3.4067 16.2685 -2.3551 0.9351
1.6435 16.5339 -2.3542 0.9351
1.0508 16.5793 -2.3538 0.9351
0.4570 16.6036 -2.3534 0.9351
-0.1373 16.6066 -2.3531 0.9351
-1.3239 16.5491 -2.3523 0.9351
-1.9147 16.4886 -2.3520 0.9351
-4.2446 16.0376 -2.3506 0.9352
-5.3790 15.6889 -2.3500 0.9352
-6.4854 15.2604 -2.3494 0.9352
-7.0213 15.0061 -2.3474 0.9353
-6.6318 9.3577 -1.6251 0.9547
-10.0451 13.1503 -2.3447 0.9353
15.2281 0.0716 -2.5087 0.9401
15.2158 0.6163 -2.5087 0.9401
15.1325 1.7026 -2.5087 0.9401
14.9716 2.7802 -2.5086 0.9401
14.8623 3.3139 -2.5085 0.9401
14.7339 3.8434 -2.5085 0.9401
14.2360 5.3993 -2.5082 0.9401
14.0332 5.9049 -2.5081 0.9401
12.5145 6.9285 -2.3565 0.9437
11.4144 8.6549 -2.3598 0.9436
11.0964 9.0568 -2.3596 0.9436
10.7643 9.4471 -2.3594 0.9436
10.4185 9.8252 -2.3592 0.9436
10.0594 10.1906 -2.3589 0.9436
9.6874 10.5429 -2.3587 0.9436
9.3031 10.8816 -2.3585 0.9436
8.9070 11.2063 -2.3582 0.9436
8.0813 11.8121 -2.3577 0.9436
7.6527 12.0923 -2.3575 0.9436
7.2145 12.3570 -2.3572 0.9436
5.8472 13.0547 -2.3565 0.9437
5.3759 13.2541 -2.3562 0.9437
3.9237 13.7494 -2.3555 0.9437
1.4137 14.2217 -2.3544 0.9437
0.9040 14.2619 -2.3542 0.9437
0.3931 14.2839 -2.3540 0.9437
-0.1181 14.2874 -2.3538 0.9437
-1.1390 14.2385 -2.3531 0.9437
-1.6475 14.1868 -2.3528 0.9437
-2.1536 14.1170 -2.3525 0.9438
-2.6569 14.0291 -2.3522 0.9438
-3.6523 13.7999 -2.3517 0.9438
-4.6286 13.5004 -2.3511 0.9438
-5.1081 13.3247 -2.3509 0.9438
-6.0465 12.9227 -2.3504 0.9438
-7.8123 11.9043 -2.3457 0.9439
-8.6420 11.3134 -2.3453 0.9439
13.0486 -2.7810 -2.5077 0.9471
13.2144 -1.8410 -2.5078 0.9471
13.2719 -1.3671 -2.5078 0.9471
13.3358 -0.4146 -2.5078 0.9471
13.3421 0.0627 -2.5078 0.9471
13.3313 0.5400 -2.5078 0.9471
13.3034 1.0165 -2.5078 0.9471
13.0217 2.9035 -2.5077 0.9471
12.9093 3.3674 -2.5076 0.9471
12.7802 3.8270 -2.5076 0.9471
12.2956 5.1737 -2.5073 0.9472
11.8933 6.0392 -2.5072 0.9472
10.7346 6.4553 -2.3544 0.9503
10.2534 7.2118 -2.3562 0.9503
9.4316 8.2775 -2.3587 0.9502
9.1299 8.6100 -2.3588 0.9502
8.8153 8.9303 -2.3586 0.9502
7.4487 10.0928 -2.3577 0.9502
7.0823 10.3518 -2.3575 0.9502
6.7068 10.5976 -2.3573 0.9502
6.3228 10.8297 -2.3571 0.9502
5.9308 11.0480 -2.3569 0.9502
5.5312 11.2520 -2.3567 0.9502
5.1247 11.4416 -2.3564 0.9503
3.8683 11.9214 -2.3558 0.9503
3.4390 12.0511 -2.3556 0.9503
3.0055 12.1652 -2.3553 0.9503
2.5681 12.2638 -2.3551 0.9503
1.6843 12.4138 -2.3547 0.9503
0.7923 12.5004 -2.3543 0.9503
0.3446 12.5198 -2.3541 0.9503
-0.1035 12.5231 -2.3539 0.9503
-0.5514 12.5105 -2.3538 0.9503
-0.9985 12.4818 -2.3536 0.9503
-2.7676 12.2072 -2.3527 0.9503
-3.2022 12.0991 -2.3525 0.9503
-3.6326 11.9756 -2.3522 0.9503
-4.0583 11.8368 -2.3520 0.9503
-5.7031 11.1330 -2.3512 0.9504
-6.4771 10.6845 -2.3485 0.9504
-6.8487 10.4360 -2.3463 0.9505
11.5998 -2.4722 -2.5070 0.9527
11.6810 -2.0557 -2.5071 0.9527
11.7472 -1.6366 -2.5071 0.9527
11.7983 -1.2153 -2.5071 0.9527
11.8343 -0.7925 -2.5071 0.9527
11.8551 -0.3686 -2.5071 0.9527
11.8511 0.4800 -2.5071 0.9527
11.8263 0.9037 -2.5071 0.9527
11.6611 2.1654 -2.5071 0.9527
11.5760 2.5811 -2.5070 0.9527
11.4760 2.9936 -2.5070 0.9527
11.0884 4.2055 -2.5068 0.9527
10.7587 4.9873 -2.5066 0.9527
10.5731 5.3688 -2.5066 0.9527
10.3739 5.7434 -2.5065 0.9527
9.1071 6.4055 -2.3535 0.9555
8.8749 6.7294 -2.3543 0.9555
8.3761 7.3512 -2.3557 0.9555
8.1101 7.6483 -2.3564 0.9554
7.5465 8.2129 -2.3576 0.9554
7.2488 8.4787 -2.3579 0.9554
6.2972 9.2043 -2.3574 0.9554
4.1896 10.3295 -2.3562 0.9555
3.4398 10.6008 -2.3558 0.9555
2.2837 10.9056 -2.3552 0.9555
1.8919 10.9794 -2.3550 0.9555
0.3064 11.1334 -2.3543 0.9555
-0.0920 11.1364 -2.3541 0.9555
-0.8879 11.0996 -2.3537 0.9555
-2.4614 10.8566 -2.3531 0.9555
-2.8480 10.7610 -2.3530 0.9555
-3.2310 10.6515 -2.3528 0.9555
-4.7158 10.0787 -2.3521 0.9555
-5.4236 9.7143 -2.3518 0.9555
-5.7672 9.5134 -2.3516 0.9555
-6.7377 8.8204 -2.3462 0.9556
10.4306 -2.2231 -2.5065 0.9571
10.5036 -1.8485 -2.5065 0.9571
10.5631 -1.4716 -2.5066 0.9571
10.6091 -1.0928 -2.5066 0.9571
10.6602 -0.3315 -2.5066 0.9571
10.6652 0.0501 -2.5066 0.9571
10.6566 0.4316 -2.5066 0.9571
10.5488 1.5708 -2.5065 0.9571
10.4857 1.9472 -2.5065 0.9571
10.4092 2.3210 -2.5065 0.9571
10.3193 2.6919 -2.5064 0.9571
9.9709 3.7816 -2.5063 0.9571
9.6745 4.4846 -2.5061 0.9571
9.1374 5.4948 -2.5059 0.9571
8.9347 5.8179 -2.5058 0.9571
8.7205 6.1336 -2.5057 0.9571
7.7558 6.3302 -2.3529 0.9597
7.2867 6.8717 -2.3539 0.9597
6.7799 7.3787 -2.3551 0.9597
6.5130 7.6181 -2.3556 0.9597
6.2376 7.8479 -2.3561 0.9596
5.9540 8.0675 -2.3565 0.9596
5.6626 8.2768 -2.3569 0.9596
5.3632 8.4746 -2.3571 0.9596
5.0563 8.6604 -2.3569 0.9596
4.7429 8.8351 -2.3567 0.9596
3.4331 9.4184 -2.3560 0.9596
3.0938 9.5345 -2.3558 0.9596
2.7505 9.6383 -2.3557 0.9597
2.0540 9.8089 -2.3553 0.9597
1.7017 9.8754 -2.3551 0.9597
-0.0828 10.0170 -2.3543 0.9597
-0.4410 10.0069 -2.3541 0.9597
-1.1553 9.9484 -2.3538 0.9597
-2.9062 9.5810 -2.3531 0.9597
-3.5834 9.3476 -2.3528 0.9597
-3.9153 9.2129 -2.3527 0.9597
-5.4908 8.3669 -2.3520 0.9597
-5.7733 8.1463 -2.3466 0.9598
-6.0607 7.9341 -2.3465 0.9598
9.4663 -2.0176 -2.5060 0.9608
9.5326 -1.6776 -2.5061 0.9608
9.5866 -1.3356 -2.5061 0.9608
9.6746 -0.3008 -2.5061 0.9608
9.6792 0.0455 -2.5061 0.9608
9.6511 0.7374 -2.5061 0.9608
9.5163 1.7671 -2.5061 0.9608
9.2718 2.7764 -2.5060 0.9608
9.0492 3.4321 -2.5059 0.9608
8.6287 4.3815 -2.5057 0.9608
8.4662 4.6872 -2.5056 0.9608
8.2929 4.9869 -2.5055 0.9608
7.9145 5.5667 -2.5053 0.9608
7.7100 5.8461 -2.5052 0.9608
7.0700 6.2049 -2.4356 0.9619
6.3828 6.4660 -2.3524 0.9632
5.6566 7.1169 -2.3538 0.9631
5.1350 7.5057 -2.3546 0.9631
4.8640 7.6857 -2.3550 0.9631
4.5866 7.8559 -2.3553 0.9631
3.7198 8.3049 -2.3561 0.9631
3.1163 8.5492 -2.3560 0.9631
2.8083 8.6547 -2.3559 0.9631
2.4967 8.7490 -2.3557 0.9631
1.8645 8.9039 -2.3554 0.9631
0.2502 9.0906 -2.3546 0.9631
-0.7250 9.0634 -2.3542 0.9631
-1.3711 8.9873 -2.3539 0.9631
-1.6916 8.9320 -2.3537 0.9631
-2.0099 8.8652 -2.3536 0.9631
-2.9477 8.5975 -2.3532 0.9631
-3.2531 8.4860 -2.3531 0.9631
-3.5544 8.3636 -2.3529 0.9631
-3.8505 8.2294 -2.3524 0.9632
-4.1415 8.0846 -2.3519 0.9632
-4.7067 7.7641 -2.3508 0.9632
-4.9802 7.5888 -2.3502 0.9632
-5.2471 7.4039 -2.3496 0.9632
-5.5071 7.2095 -2.3490 0.9632
8.6566 -1.8450 -2.5057 0.9639
8.7172 -1.5341 -2.5057 0.9639
8.7666 -1.2213 -2.5057 0.9639
8.8047 -0.9070 -2.5057 0.9639
8.8316 -0.5914 -2.5058 0.9639
8.8513 0.0416 -2.5058 0.9639
8.8441 0.3582 -2.5058 0.9639
8.7958 0.9896 -2.5057 0.9639
8.6389 1.9262 -2.5057 0.9639
8.0293 3.7220 -2.5054 0.9639
7.7422 4.2864 -2.5053 0.9639
7.5837 4.5605 -2.5052 0.9639
7.2377 5.0907 -2.5050 0.9639
7.0508 5.3462 -2.5049 0.9639
6.8547 5.5948 -2.5048 0.9639
6.6500 5.8362 -2.5047 0.9639
5.1695 6.5040 -2.3520 0.9661
4.4449 7.0235 -2.3530 0.9660
3.9323 7.3251 -2.3536 0.9660
3.3991 7.5890 -2.3541 0.9660
2.5670 7.9111 -2.3545 0.9660
0.8228 8.2770 -2.3547 0.9660
0.5261 8.3009 -2.3546 0.9660
-0.6631 8.2890 -2.3541 0.9660
-1.5469 8.1677 -2.3533 0.9660
-1.8378 8.1061 -2.3530 0.9660
-2.4120 7.9517 -2.3524 0.9660
-3.2484 7.6436 -2.3512 0.9661
-3.7851 7.3889 -2.3502 0.9661
-4.5519 6.9362 -2.3487 0.9661
-4.7960 6.7673 -2.3481 0.9661
-5.0338 6.5898 -2.3475 0.9661
7.9665 -1.6979 -2.5054 0.9665
8.0677 -1.1240 -2.5054 0.9665
8.1028 -0.8346 -2.5054 0.9665
8.1417 -0.2532 -2.5054 0.9665
8.1456 0.0383 -2.5054 0.9665
8.1390 0.3297 -2.5054 0.9665
8.1220 0.6206 -2.5054 0.9665
7.8816 2.0559 -2.5053 0.9665
7.6156 2.8884 -2.5052 0.9665
7.3892 3.4253 -2.5051 0.9665
6.9792 4.1970 -2.5049 0.9665
6.4888 4.9201 -2.5047 0.9665
5.9237 5.5864 -2.5044 0.9665
5.2905 6.1882 -2.5041 0.9665
4.5875 6.2157 -2.3761 0.9682
4.3165 6.3092 -2.3513 0.9685
4.0882 6.4598 -2.3514 0.9685
3.8549 6.6027 -2.3516 0.9685
3.6166 6.7371 -2.3519 0.9685
2.8747 7.0876 -2.3525 0.9685
2.3609 7.2758 -2.3528 0.9685
2.0992 7.3559 -2.3528 0.9685
1.8347 7.4265 -2.3529 0.9685
1.5679 7.4875 -2.3530 0.9685
1.2991 7.5388 -2.3530 0.9685
1.0285 7.5804 -2.3530 0.9685
0.4839 7.6342 -2.3528 0.9685
0.2105 7.6464 -2.3527 0.9685
-0.0632 7.6486 -2.3526 0.9685
-0.6099 7.6235 -2.3523 0.9685
-1.1532 7.5590 -2.3519 0.9685
-1.4227 7.5121 -2.3516 0.9685
-2.7349 7.1342 -2.3500 0.9685
-3.2369 6.9180 -2.3492 0.9685
-3.4817 6.7965 -2.3488 0.9685
-3.7218 6.6663 -2.3483 0.9686
-4.7434 6.2097 -2.4035 0.9678
7.3707 -1.5709 -2.5051 0.9687
7.4222 -1.3062 -2.5051 0.9687
7.5196 -0.5035 -2.5052 0.9687
7.5328 -0.2342 -2.5052 0.9687
7.4891 0.8426 -2.5051 0.9687
7.4541 1.1100 -2.5051 0.9687
6.9458 2.9227 -2.5049 0.9687
6.8367 3.1692 -2.5048 0.9687
6.7188 3.4116 -2.5048 0.9687
6.5923 3.6497 -2.5047 0.9687
6.3141 4.1115 -2.5046 0.9687
6.1628 4.3347 -2.5045 0.9687
5.8368 4.7639 -2.5044 0.9687
5.6624 4.9695 -2.5043 0.9687
5.4808 5.1687 -2.5042 0.9687
4.8950 5.7255 -2.5039 0.9687
4.6869 5.8968 -2.5038 0.9687
4.2374 6.1937 -2.4945 0.9689
3.3456 6.2322 -2.3512 0.9706
3.1198 6.3465 -2.3507 0.9706
2.4223 6.6452 -2.3511 0.9706
2.1831 6.7280 -2.3512 0.9706
1.9411 6.8020 -2.3513 0.9706
1.4498 6.9237 -2.3514 0.9706
0.6997 7.0390 -2.3514 0.9706
0.4474 7.0594 -2.3513 0.9706
-0.0585 7.0727 -2.3511 0.9706
-0.3114 7.0657 -2.3510 0.9706
-0.8157 7.0243 -2.3506 0.9706
-1.5631 6.8945 -2.3499 0.9706
-2.5292 6.5975 -2.3487 0.9707
-2.9935 6.3978 -2.3479 0.9707
-3.2203 6.2862 -2.3478 0.9707
-3.7634 6.2080 -2.4132 0.9699
-4.3482 6.1354 -2.4997 0.9688
-4.5647 5.9757 -2.4996 0.9688
6.8985 -1.2141 -2.5049 0.9707
6.9376 -0.9665 -2.5049 0.9707
6.9890 -0.4680 -2.5049 0.9707
6.9282 1.0317 -2.5049 0.9707
6.8868 1.2788 -2.5049 0.9707
6.8365 1.5244 -2.5048 0.9707
6.6336 2.2480 -2.5047 0.9707
6.1272 3.3922 -2.5045 0.9707
6.0017 3.6092 -2.5045 0.9707
5.8686 3.8215 -2.5044 0.9707
5.7280 4.0288 -2.5043 0.9707
5.4250 4.4279 -2.5042 0.9707
5.2630 4.6190 -2.5041 0.9707
5.0942 4.8041 -2.5040 0.9707
4.5497 5.3217 -2.5038 0.9707
3.7436 5.9154 -2.5034 0.9707
3.5295 6.0453 -2.5033 0.9707
2.7793 6.2052 -2.4315 0.9715
2.5194 6.2116 -2.3971 0.9719
1.5761 6.3796 -2.3500 0.9725
0.6500 6.5392 -2.3500 0.9725
0.4157 6.5581 -2.3499 0.9725
0.1808 6.5686 -2.3499 0.9725
-0.0543 6.5705 -2.3498 0.9725
-0.2893 6.5640 -2.3496 0.9725
-0.5239 6.5491 -2.3495 0.9725
-0.7578 6.5257 -2.3493 0.9725
-1.2222 6.4537 -2.3489 0.9725
-1.4522 6.4052 -2.3487 0.9725
-1.6803 6.3487 -2.3485 0.9725
-1.9062 6.2842 -2.3484 0.9725
-2.3823 6.2143 -2.3800 0.9721
-2.6384 6.2083 -2.4123 0.9718
-3.4081 6.1043 -2.5001 0.9707
-3.6241 5.9782 -2.5000 0.9707
-3.8355 5.8445 -2.4999 0.9707
-4.0420 5.7034 -2.4998 0.9707
-4.2433 5.5549 -2.4997 0.9707
6.3922 -1.3624 -2.5046 0.9724
6.5213 -0.4367 -2.5047 0.9724
6.5328 -0.2031 -2.5047 0.9724
6.5359 0.0307 -2.5047 0.9724
6.5169 0.4980 -2.5047 0.9724
6.4949 0.7308 -2.5047 0.9724
6.4646 0.9626 -2.5047 0.9724
6.4260 1.1933 -2.5046 0.9724
6.3791 1.4224 -2.5046 0.9724
6.3241 1.6496 -2.5046 0.9724
6.2610 1.8748 -2.5046 0.9724
6.1107 2.3176 -2.5045 0.9724
5.9292 2.7485 -2.5044 0.9724
5.6002 3.3677 -2.5043 0.9724
5.0621 4.1317 -2.5040 0.9724
4.9109 4.3100 -2.5039 0.9724
4.7535 4.4828 -2.5039 0.9724
3.8792 5.2562 -2.5035 0.9724
3.4932 5.5198 -2.5033 0.9724
3.2934 5.6410 -2.5032 0.9724
3.0894 5.7550 -2.5031 0.9724
2.6698 5.9607 -2.5029 0.9724
2.4548 6.0521 -2.5028 0.9724
2.2366 6.1358 -2.5027 0.9724
2.0096 6.1933 -2.4952 0.9725
1.7687 6.1980 -2.4700 0.9728
1.5322 6.2020 -2.4482 0.9730
1.2994 6.2054 -2.4296 0.9732
1.0698 6.2083 -2.4142 0.9734
0.3938 6.2134 -2.3859 0.9737
0.1710 6.2141 -2.3823 0.9737
-0.2739 6.2138 -2.3836 0.9737
-0.4970 6.2129 -2.3885 0.9737
-1.4065 6.2037 -2.4377 0.9731
-2.1164 6.1728 -2.5007 0.9724
-2.5521 6.0052 -2.5005 0.9724
-2.7652 5.9098 -2.5004 0.9724
-2.9747 5.8069 -2.5003 0.9724
-3.1804 5.6966 -2.5002 0.9724
-3.3821 5.5789 -2.5001 0.9724
-3.5793 5.4542 -2.5000 0.9724
-3.9599 5.1840 -2.4999 0.9724
6.0267 -1.0606 -2.5045 0.9739
6.1057 -0.4089 -2.5045 0.9739
6.1164 -0.1902 -2.5045 0.9739
6.1016 0.4662 -2.5045 0.9739
5.9725 1.3317 -2.5044 0.9739
5.9210 1.5445 -2.5044 0.9739
5.7953 1.9639 -2.5044 0.9739
5.6399 2.3731 -2.5043 0.9739
5.5513 2.5733 -2.5042 0.9739
5.4556 2.7702 -2.5042 0.9739
5.1271 3.3386 -2.5040 0.9739
4.8750 3.6964 -2.5039 0.9739
4.7396 3.8684 -2.5039 0.9739
4.5980 4.0354 -2.5038 0.9739
4.4506 4.1972 -2.5037 0.9739
4.2975 4.3536 -2.5037 0.9739
4.1389 4.5044 -2.5036 0.9739
3.9750 4.6494 -2.5035 0.9739
3.8060 4.7884 -2.5034 0.9739
3.4536 5.0480 -2.5033 0.9739
2.6979 5.4882 -2.5029 0.9739
2.4998 5.5810 -2.5028 0.9739
2.2984 5.6667 -2.5027 0.9739
2.0941 5.7451 -2.5027 0.9739
1.8872 5.8160 -2.5026 0.9739
1.4664 5.9357 -2.5024 0.9739
0.6047 6.0832 -2.5020 0.9739
0.1682 6.1104 -2.5018 0.9739
-0.2691 6.1062 -2.5016 0.9739
-0.4874 6.0925 -2.5015 0.9739
-0.7050 6.0709 -2.5014 0.9739
-1.1372 6.0045 -2.5012 0.9739
-1.3512 5.9597 -2.5011 0.9739
-1.5635 5.9073 -2.5010 0.9739
-1.9817 5.7800 -2.5008 0.9739
-2.5892 5.5338 -2.5005 0.9739
-2.7854 5.4374 -2.5004 0.9739
-2.9781 5.3341 -2.5003 0.9739
-3.3516 5.1071 -2.5001 0.9739
-3.5320 4.9838 -2.5001 0.9739
5.6200 -1.1978 -2.5043 0.9752
5.6592 -0.9960 -2.5043 0.9752
5.7160 -0.5888 -2.5043 0.9752
5.7335 -0.3839 -2.5043 0.9752
5.7435 -0.1786 -2.5043 0.9752
5.7462 0.0270 -2.5043 0.9752
5.7102 0.6425 -2.5043 0.9752
5.6836 0.8463 -2.5043 0.9752
5.5601 1.4504 -2.5042 0.9752
5.4420 1.8441 -2.5042 0.9752
5.3725 2.0376 -2.5042 0.9752
5.2129 2.4165 -2.5041 0.9752
5.0266 2.7829 -2.5040 0.9752
4.9237 2.9609 -2.5040 0.9752
4.6992 3.3052 -2.5039 0.9752
4.5779 3.4711 -2.5038 0.9752
4.4507 3.6326 -2.5037 0.9752
4.3178 3.7894 -2.5037 0.9752
4.0356 4.0882 -2.5035 0.9752
3.2432 4.7404 -2.5032 0.9752
1.5757 5.5215 -2.5024 0.9753
1.3771 5.5741 -2.5023 0.9753
0.9749 5.6579 -2.5021 0.9753
0.3631 5.7291 -2.5019 0.9753
-0.8656 5.6737 -2.5013 0.9753
-1.0679 5.6389 -2.5012 0.9753
-1.4683 5.5476 -2.5010 0.9753
-1.6657 5.4914 -2.5009 0.9753
-1.8610 5.4281 -2.5008 0.9753
-2.0539 5.3579 -2.5007 0.9753
-2.6159 5.1064 -2.5005 0.9753
-2.7968 5.0094 -2.5004 0.9753
-3.1476 4.7963 -2.5002 0.9753
-3.3171 4.6805 -2.5002 0.9753
-3.4823 4.5587 -2.5001 0.9753
5.2910 -1.1276 -2.5041 0.9764
5.3280 -0.9377 -2.5041 0.9764
5.3978 -0.3615 -2.5042 0.9764
5.3942 0.4122 -2.5042 0.9764
5.3760 0.6049 -2.5042 0.9764
5.3509 0.7968 -2.5042 0.9764
5.3189 0.9877 -2.5041 0.9764
5.2346 1.3654 -2.5041 0.9764
5.1235 1.7362 -2.5040 0.9764
5.0580 1.9183 -2.5040 0.9764
4.9078 2.2750 -2.5039 0.9764
4.7324 2.6200 -2.5039 0.9764
4.5328 2.9516 -2.5038 0.9764
4.4242 3.1118 -2.5037 0.9764
4.3100 3.2680 -2.5037 0.9764
4.1902 3.4200 -2.5036 0.9764
4.0651 3.5676 -2.5036 0.9764
3.7994 3.8490 -2.5034 0.9764
3.6592 3.9823 -2.5034 0.9764
3.5143 4.1106 -2.5033 0.9764
3.3649 4.2335 -2.5032 0.9764
2.8917 4.5693 -2.5030 0.9764
2.5574 4.7640 -2.5029 0.9764
2.2101 4.9344 -2.5027 0.9765
1.6686 5.1423 -2.5025 0.9765
1.2969 5.2481 -2.5023 0.9765
0.7267 5.3562 -2.5020 0.9765
0.5347 5.3786 -2.5019 0.9765
0.3419 5.3941 -2.5018 0.9765
-0.0447 5.4043 -2.5017 0.9765
-0.2380 5.3991 -2.5016 0.9765
-0.4309 5.3869 -2.5015 0.9765
-0.8149 5.3419 -2.5013 0.9765
-1.0055 5.3092 -2.5012 0.9765
-1.3814 5.2233 -2.5011 0.9765
-1.7522 5.1108 -2.5009 0.9765
-1.9339 5.0446 -2.5008 0.9765
-2.1130 4.9721 -2.5007 0.9765
-2.2895 4.8931 -2.5006 0.9765
-2.9636 4.5160 -2.5003 0.9765
-3.1232 4.4069 -2.5003 0.9765
4.9926 -1.0641 -2.5040 0.9775
5.0275 -0.8848 -2.5040 0.9775
5.0560 -0.7044 -2.5040 0.9775
5.1024 -0.1587 -2.5040 0.9775
5.0900 0.3889 -2.5040 0.9775
5.0189 0.9320 -2.5040 0.9775
4.9824 1.1109 -2.5040 0.9775
4.9394 1.2885 -2.5040 0.9775
4.8901 1.4643 -2.5039 0.9775
4.8345 1.6383 -2.5039 0.9775
4.7728 1.8102 -2.5039 0.9775
4.7049 1.9797 -2.5039 0.9775
4.6310 2.1467 -2.5038 0.9775
4.5512 2.3110 -2.5038 0.9775
4.4655 2.4723 -2.5037 0.9775
4.3742 2.6304 -2.5037 0.9775
4.2772 2.7852 -2.5037 0.9775
4.0669 3.0837 -2.5036 0.9775
3.9539 3.2271 -2.5035 0.9775
3.8359 3.3665 -2.5035 0.9775
3.7129 3.5015 -2.5034 0.9775
2.8813 4.2114 -2.5030 0.9775
2.5726 4.4064 -2.5029 0.9775
2.0856 4.6563 -2.5026 0.9775
1.7472 4.7931 -2.5025 0.9775
1.3999 4.9055 -2.5023 0.9775
1.0455 4.9927 -2.5022 0.9775
0.6858 5.0544 -2.5020 0.9775
-0.2245 5.0949 -2.5016 0.9775
-0.4067 5.0834 -2.5015 0.9775
-0.5882 5.0654 -2.5014 0.9775
-0.7690 5.0410 -2.5013 0.9775
-0.9488 5.0101 -2.5013 0.9775
-1.4800 4.8791 -2.5010 0.9775
-1.9940 4.6920 -2.5008 0.9775
-2.1605 4.6175 -2.5007 0.9775
-3.0941 4.0505 -2.5003 0.9775
4.7534 -0.8366 -2.5039 0.9785
4.7803 -0.6660 -2.5039 0.9785
4.8011 -0.4946 -2.5039 0.9785
4.8242 -0.1500 -2.5039 0.9785
4.8265 0.0227 -2.5039 0.9785
4.8125 0.3677 -2.5039 0.9785
4.7739 0.7109 -2.5039 0.9785
4.6701 1.2182 -2.5038 0.9785
4.4484 1.8718 -2.5037 0.9785
4.3786 2.0297 -2.5037 0.9785
4.3031 2.1850 -2.5037 0.9785
4.1357 2.4871 -2.5036 0.9785
4.0440 2.6333 -2.5036 0.9785
3.8453 2.9156 -2.5035 0.9785
3.7384 3.0513 -2.5034 0.9785
3.2647 3.5530 -2.5032 0.9785
3.1354 3.6674 -2.5031 0.9785
2.8650 3.8821 -2.5030 0.9785
2.5800 4.0767 -2.5029 0.9785
2.2818 4.2505 -2.5027 0.9785
2.1282 4.3293 -2.5027 0.9785
1.9719 4.4026 -2.5026 0.9785
1.8131 4.4701 -2.5025 0.9785
1.6520 4.5320 -2.5024 0.9785
1.3236 4.6382 -2.5023 0.9785
0.9885 4.7207 -2.5021 0.9785
0.8190 4.7529 -2.5021 0.9785
0.6484 4.7791 -2.5020 0.9785
0.4770 4.7990 -2.5019 0.9785
0.1327 4.8205 -2.5018 0.9785
-0.7272 4.7665 -2.5014 0.9785
-0.8972 4.7372 -2.5013 0.9785
-1.2335 4.6607 -2.5011 0.9785
-1.7256 4.5013 -2.5009 0.9785
-1.8855 4.4366 -2.5008 0.9785
-2.0429 4.3661 -2.5008 0.9785
-2.3497 4.2086 -2.5006 0.9785
-2.6445 4.0296 -2.5005 0.9785
4.5612 -0.3054 -2.5038 0.9794
4.5692 -0.1421 -2.5038 0.9794
4.5714 0.0215 -2.5038 0.9794
4.5677 0.1850 -2.5038 0.9794
4.5581 0.3483 -2.5038 0.9794
4.5428 0.5111 -2.5038 0.9794
4.4618 0.9949 -2.5037 0.9794
4.4233 1.1538 -2.5037 0.9794
4.1472 1.9225 -2.5036 0.9794
3.9172 2.3556 -2.5035 0.9794
3.8303 2.4942 -2.5035 0.9794
3.7386 2.6296 -2.5034 0.9794
3.4352 3.0148 -2.5033 0.9794
3.3250 3.1357 -2.5032 0.9794
3.2107 3.2526 -2.5032 0.9794
3.0922 3.3653 -2.5031 0.9794
2.8435 3.5775 -2.5030 0.9794
2.3039 3.9462 -2.5027 0.9794
2.1612 4.0260 -2.5027 0.9794
2.0158 4.1006 -2.5026 0.9794
1.8677 4.1700 -2.5025 0.9794
1.5647 4.2926 -2.5024 0.9794
1.0957 4.4352 -2.5022 0.9794
0.9363 4.4714 -2.5021 0.9794
0.7758 4.5019 -2.5020 0.9794
0.6142 4.5266 -2.5020 0.9794
0.4519 4.5456 -2.5019 0.9794
0.1257 4.5660 -2.5017 0.9794
-0.0377 4.5674 -2.5017 0.9794
-0.2011 4.5630 -2.5016 0.9794
-0.5268 4.5367 -2.5014 0.9794
-0.6888 4.5147 -2.5014 0.9794
-1.3255 4.3698 -2.5011 0.9794
-1.9351 4.1357 -2.5008 0.9794
-2.5049 3.8170 -2.5005 0.9794
-2.7713 3.6279 -2.5004 0.9794
4.2412 -0.9039 -2.5036 0.9802
4.2950 -0.5983 -2.5037 0.9802
4.3137 -0.4443 -2.5037 0.9802
4.3344 -0.1348 -2.5037 0.9802
4.3365 0.0204 -2.5037 0.9802
4.3330 0.1755 -2.5037 0.9802
4.3239 0.3304 -2.5037 0.9802
4.2325 0.9437 -2.5036 0.9802
4.1960 1.0945 -2.5036 0.9802
4.1541 1.2439 -2.5036 0.9802
4.1069 1.3917 -2.5036 0.9802
4.0545 1.5377 -2.5036 0.9802
3.9968 1.6818 -2.5035 0.9802
3.9341 1.8237 -2.5035 0.9802
3.6335 2.3660 -2.5034 0.9802
3.4549 2.6197 -2.5033 0.9802
3.3589 2.7415 -2.5032 0.9802
3.2587 2.8599 -2.5032 0.9802
3.0457 3.0854 -2.5031 0.9802
2.8172 3.2952 -2.5030 0.9802
2.5743 3.4880 -2.5029 0.9802
2.4478 3.5778 -2.5028 0.9802
2.3182 3.6630 -2.5028 0.9802
2.0502 3.8192 -2.5026 0.9802
1.9122 3.8900 -2.5026 0.9802
1.6291 4.0165 -2.5024 0.9802
1.4844 4.0721 -2.5024 0.9802
0.8882 4.2418 -2.5021 0.9802
0.7359 4.2707 -2.5020 0.9802
0.5826 4.2941 -2.5020 0.9802
0.4286 4.3121 -2.5019 0.9802
-0.0358 4.3329 -2.5017 0.9802
-0.1908 4.3287 -2.5016 0.9802
-0.3455 4.3190 -2.5015 0.9802
-0.4998 4.3038 -2.5015 0.9802
-0.8062 4.2567 -2.5013 0.9802
-0.9579 4.2250 -2.5012 0.9802
-1.1084 4.1880 -2.5012 0.9802
-1.2575 4.1455 -2.5011 0.9802
-1.6942 3.9866 -2.5009 0.9802
-1.9748 3.8550 -2.5008 0.9802
-2.3763 3.6210 -2.5006 0.9802
-2.5043 3.5336 -2.5005 0.9802
