ply
format ascii 1.0
element vertex 1048
property float32 x
property float32 y
property float32 z
property float32 I
end_header
-7.7322 9.2016 1.8412 0.9525
-37.1361 -11.9890 5.9782 0.8539
-36.3152 -14.6755 6.0004 0.8534
-36.2882 -17.7904 6.1913 0.8491
-7.7322 9.2015 1.5651 0.9527
-36.4983 -13.2470 5.0562 0.8550
-36.2272 -16.1752 5.1664 0.8521
-36.2729 -19.4271 5.3583 0.8471
-36.2854 -21.1431 5.4688 0.8442
-36.2814 -24.7875 5.7220 0.8376
-36.2438 -28.7812 6.0268 0.8297
-7.7321 9.2015 1.2906 0.9528
-40.7764 26.9999 5.2515 0.8214
-41.2006 15.9589 4.7445 0.8372
-41.2712 12.6664 4.6358 0.8406
-39.5266 -11.2118 4.4119 0.8476
-36.4987 -13.2471 4.1695 0.8554
-36.2827 -22.9236 4.6086 0.8414
-36.2802 -24.7867 4.7182 0.8380
-36.2459 -28.7829 4.9701 0.8301
-7.7321 9.2014 1.0174 0.9529
-41.0055 25.0832 4.0692 0.8245
-41.2895 15.9934 3.7483 0.8372
-41.2368 14.2937 3.6946 0.8393
-41.2517 12.6604 3.6528 0.8410
-41.3058 11.0721 3.6201 0.8423
-47.2642 -11.5917 4.1196 0.8225
-39.5270 -11.2119 3.4781 0.8480
-37.1370 -11.9893 3.3035 0.8550
-36.4990 -13.2473 3.2870 0.8557
-36.3163 -14.6760 3.3158 0.8545
-36.2280 -16.1755 3.3586 0.8528
-36.2841 -21.1423 3.5549 0.8449
-36.2735 -26.7402 3.8148 0.8345
-36.2436 -33.2873 4.1658 0.8207
-7.7321 9.2014 0.7453 0.9530
-41.2372 14.2939 2.7064 0.8395
-45.7729 10.5249 2.9125 0.8284
-47.2622 -11.5912 3.0176 0.8228
-39.5275 -11.2121 2.5478 0.8482
-37.1373 -11.9894 2.4199 0.8552
-36.2767 -19.4291 2.5518 0.8480
-36.2814 -22.9228 2.6612 0.8420
-36.2722 -26.7393 2.7944 0.8348
-36.2452 -33.2888 3.0517 0.8210
-41.0065 25.0838 1.8955 0.8250
-41.2020 15.9595 1.7423 0.8379
-41.2376 14.2940 1.7210 0.8397
-41.3066 11.0723 1.6863 0.8427
-39.5279 -11.2122 1.6201 0.8483
-37.1376 -11.9895 1.5388 0.8554
-36.3171 -14.6763 1.5445 0.8549
-36.2288 -16.1759 1.5645 0.8531
-36.2903 -17.7914 1.5937 0.8506
-36.2779 -19.4298 1.6227 0.8481
-36.2828 -21.1415 1.6558 0.8453
-36.2807 -22.9223 1.6922 0.8422
-36.2766 -24.7842 1.7324 0.8387
-36.2710 -26.7384 1.7768 0.8349
-36.2524 -28.7881 1.8254 0.8308
-36.2519 -30.9722 1.8801 0.8262
-36.2468 -33.2902 1.9406 0.8212
-10.7609 13.7808 0.2953 0.9324
-7.7320 9.2013 0.2030 0.9531
-40.9633 27.1237 0.8299 0.8216
-41.0070 25.0841 0.8120 0.8251
-41.2908 15.9939 0.7480 0.8377
-41.3071 11.0724 0.7224 0.8427
-47.2583 -11.5902 0.8219 0.8231
-39.5284 -11.2123 0.6940 0.8484
-37.1379 -11.9896 0.6592 0.8555
-36.5002 -13.2476 0.6559 0.8561
-36.2792 -19.4304 0.6952 0.8482
-36.2801 -22.9219 0.7249 0.8422
-9.4801 15.2800 -0.1012 0.9306
-9.5041 14.1582 -0.0960 0.9341
-9.9714 12.7698 -0.0912 0.9372
-7.7320 9.2013 -0.0677 0.9531
-40.9638 27.1240 -0.2766 0.8216
-41.2028 15.9598 -0.2488 0.8380
-41.2734 12.6670 -0.2431 0.8414
-41.3075 11.0725 -0.2408 0.8428
-45.7728 10.5249 -0.2644 0.8287
-45.5610 8.7681 -0.2612 0.8306
-47.2563 -11.5897 -0.2739 0.8231
-39.5288 -11.2124 -0.2313 0.8484
-37.1382 -11.9897 -0.2197 0.8555
-36.5005 -13.2478 -0.2186 0.8561
-36.3179 -14.6766 -0.2205 0.8550
-36.2296 -16.1763 -0.2234 0.8532
-36.2911 -17.7918 -0.2276 0.8507
-36.2804 -19.4311 -0.2317 0.8482
-36.2815 -21.1408 -0.2364 0.8454
-36.2742 -24.7826 -0.2473 0.8388
-36.2686 -26.7366 -0.2537 0.8351
-36.2567 -28.7915 -0.2607 0.8309
-36.2555 -30.9753 -0.2685 0.8263
-36.2500 -33.2931 -0.2771 0.8213
-9.6557 16.8869 -0.5477 0.9251
-9.4803 15.2802 -0.5063 0.9306
-7.7319 9.2012 -0.3384 0.9530
-40.9643 27.1243 -1.3834 0.8215
-41.2389 14.2945 -1.2290 0.8397
-41.2738 12.6671 -1.2157 0.8413
-41.3079 11.0726 -1.2042 0.8427
-41.0732 9.4443 -1.1867 0.8448
-49.3085 7.6661 -1.4051 0.8190
-47.2543 -11.5893 -1.3700 0.8231
-39.5293 -11.2126 -1.1570 0.8484
-36.5009 -13.2479 -1.0934 0.8561
-36.2300 -16.1764 -1.1172 0.8532
-36.2915 -17.7920 -1.1381 0.8507
-36.2730 -24.7818 -1.2370 0.8388
-36.2573 -30.9768 -1.3428 0.8263
10.7810 45.1916 -2.3562 0.8302
5.8595 46.0624 -2.3548 0.8303
-2.4526 46.3192 -2.3523 0.8305
-5.7652 46.0025 -2.3512 0.8305
-13.0423 47.4542 -2.4958 0.8211
-16.4016 46.3688 -2.4943 0.8212
-19.6730 45.0468 -2.4929 0.8213
-22.8397 43.4954 -2.4915 0.8214
-9.4804 15.2805 -0.9120 0.9305
-9.5044 14.1587 -0.8648 0.9340
-10.0021 12.8091 -0.8242 0.9370
-34.1514 35.1762 -2.4864 0.8217
-34.6626 30.9209 -2.3557 0.8302
-35.4121 29.3773 -2.3334 0.8317
-36.4361 28.0824 -2.3330 0.8317
-36.6353 24.2579 -2.2283 0.8386
-37.9118 21.3606 -2.2068 0.8401
-39.3345 18.5815 -2.2062 0.8401
-39.9708 17.1562 -2.2059 0.8401
-41.3084 11.0728 -2.1689 0.8426
-39.9866 9.1944 -2.0808 0.8485
-41.2850 7.9452 -2.1322 0.8450
-41.3704 6.4319 -2.1233 0.8456
-42.8491 3.5417 -2.1805 0.8418
-42.8773 -2.6221 -2.1786 0.8419
-42.8252 -4.1655 -2.1821 0.8417
-42.6487 -7.2654 -2.1941 0.8409
-39.5297 -11.2127 -2.0838 0.8483
-37.1388 -11.9899 -1.9792 0.8553
-36.5013 -13.2481 -1.9693 0.8560
-36.2304 -16.1766 -2.0122 0.8531
-36.2919 -17.7922 -2.0498 0.8505
-36.2829 -19.4325 -2.0874 0.8480
-36.2661 -26.7348 -2.2849 0.8349
-36.0282 -28.6100 -2.3332 0.8317
8.5668 30.9457 -2.3543 0.8792
6.3214 31.4594 -2.3528 0.8792
4.0466 31.8108 -2.3512 0.8793
2.9019 31.9277 -2.3507 0.8793
-0.5453 32.0405 -2.3496 0.8794
-1.6942 31.9953 -2.3493 0.8794
-3.9829 31.7812 -2.3485 0.8794
-5.1198 31.6126 -2.3481 0.8795
-6.2496 31.4032 -2.3477 0.8795
-10.6630 30.1451 -2.3445 0.8796
-13.6219 31.1911 -2.4956 0.8724
-14.7293 30.6762 -2.4951 0.8724
-15.8173 30.1220 -2.4946 0.8724
-9.6528 16.8818 -1.4259 0.9250
-9.4806 15.2808 -1.3185 0.9304
-7.7318 9.2011 -0.8812 0.9529
-22.7797 25.2135 -2.4915 0.8726
-25.3454 22.6095 -2.4903 0.8726
-26.1365 21.6825 -2.4900 0.8727
-28.3039 18.7413 -2.4890 0.8727
-30.1438 15.5864 -2.4882 0.8728
-30.6807 14.4935 -2.4879 0.8728
-31.1781 13.3822 -2.4877 0.8728
-31.6356 12.2538 -2.4875 0.8728
-32.4283 9.9524 -2.4872 0.8728
-33.0559 7.6008 -2.4870 0.8728
-33.5143 5.2105 -2.4869 0.8728
-33.6793 4.0047 -2.4868 0.8728
-33.8011 2.7938 -2.4868 0.8728
-33.8798 1.5793 -2.4868 0.8728
-13.6374 0.1458 -1.0000 0.9468
-33.8555 -2.0704 -2.4870 0.8728
-32.2895 -10.4244 -2.4879 0.8728
-31.8968 -11.5768 -2.4880 0.8728
-30.4686 -14.9373 -2.4881 0.8728
-29.3250 -17.0873 -2.4886 0.8727
-28.6964 -18.1305 -2.4888 0.8727
-27.3291 -20.1466 -2.4895 0.8727
-25.8210 -22.0605 -2.4901 0.8727
-25.0165 -22.9759 -2.4905 0.8726
-24.1797 -23.8623 -2.4909 0.8726
-22.4134 -25.5429 -2.4917 0.8726
7.3914 23.3998 -2.3559 0.9061
5.6914 23.8573 -2.3547 0.9061
4.8306 24.0400 -2.3541 0.9062
3.9640 24.1918 -2.3535 0.9062
3.0927 24.3125 -2.3529 0.9062
0.4621 24.4861 -2.3512 0.9063
-3.9109 24.1483 -2.3486 0.9064
-4.7738 23.9874 -2.3481 0.9064
-5.6301 23.7958 -2.3476 0.9064
-6.4790 23.5738 -2.3471 0.9064
-8.1497 23.0397 -2.3462 0.9065
-10.5705 22.0150 -2.3446 0.9065
-9.5830 16.7597 -1.8535 0.9254
-9.4808 15.2811 -1.7265 0.9303
-7.7318 9.2011 -1.1538 0.9529
-19.3779 17.2862 -2.4930 0.9009
-19.9834 16.5780 -2.4927 0.9009
-21.1165 15.0992 -2.4922 0.9009
-22.1408 13.5436 -2.4918 0.9010
-23.4623 11.0836 -2.4912 0.9010
-24.1935 9.3713 -2.4909 0.9010
-24.5128 8.4968 -2.4907 0.9010
-24.8005 7.6114 -2.4906 0.9010
-25.0565 6.7164 -2.4905 0.9010
-25.2803 5.8129 -2.4904 0.9010
-25.4717 4.9020 -2.4903 0.9010
-25.6305 3.9848 -2.4902 0.9010
-25.8492 2.1365 -2.4901 0.9010
-13.0248 0.6071 -1.2518 0.9490
-13.0244 0.1393 -1.2505 0.9490
-13.0258 -0.3282 -1.2509 0.9490
-25.8888 -1.5832 -2.4901 0.9010
-25.5703 -4.3560 -2.4902 0.9010
-25.3983 -5.2708 -2.4903 0.9010
-25.1939 -6.1789 -2.4904 0.9010
-24.3876 -8.8514 -2.4908 0.9010
-24.0558 -9.7212 -2.4909 0.9010
-23.6931 -10.5788 -2.4911 0.9010
-22.8768 -12.2524 -2.4915 0.9010
-22.4243 -13.0664 -2.4917 0.9010
-21.9430 -13.8637 -2.4919 0.9010
-18.4858 -18.2431 -2.4934 0.9009
-17.8215 -18.8968 -2.4937 0.9009
-17.1341 -19.5265 -2.4940 0.9009
5.9736 18.9112 -2.3558 0.9232
3.9055 19.4363 -2.3549 0.9232
3.2050 19.5600 -2.3544 0.9233
-0.3369 19.7986 -2.3521 0.9233
-3.1634 19.5326 -2.3504 0.9234
-3.8615 19.4033 -2.3500 0.9234
-4.5544 19.2490 -2.3496 0.9234
-5.2412 19.0702 -2.3493 0.9234
-7.9106 18.1135 -2.3479 0.9235
-8.5466 17.7997 -2.3455 0.9235
-9.5502 16.7023 -2.2854 0.9254
-12.9317 16.5609 -2.4959 0.9188
-14.0831 15.5877 -2.4954 0.9189
-14.6318 15.0709 -2.4951 0.9189
-16.1621 13.4078 -2.4945 0.9189
-16.6313 12.8183 -2.4942 0.9189
-17.5049 11.5908 -2.4939 0.9189
-17.9082 10.9545 -2.4937 0.9189
-18.2885 10.3042 -2.4935 0.9189
-18.9779 8.9651 -2.4932 0.9189
-19.8284 6.8730 -2.4928 0.9189
-20.0613 6.1569 -2.4927 0.9189
-20.2686 5.4330 -2.4926 0.9189
-20.6047 3.9653 -2.4925 0.9190
-20.7333 3.2234 -2.4924 0.9190
-20.8352 2.4775 -2.4924 0.9190
-20.9104 1.7283 -2.4923 0.9190
-12.5059 0.5829 -1.4871 0.9508
-12.5131 0.1338 -1.4865 0.9508
-12.5068 -0.3151 -1.4861 0.9509
-20.8832 -2.0313 -2.4923 0.9190
-20.7972 -2.7792 -2.4924 0.9190
-19.7270 -7.1599 -2.4929 0.9189
-19.4584 -7.8634 -2.4930 0.9189
-19.1647 -8.5569 -2.4931 0.9189
-18.8465 -9.2396 -2.4933 0.9189
-18.1377 -10.5686 -2.4936 0.9189
-17.7481 -11.2133 -2.4937 0.9189
-16.4443 -13.0585 -2.4943 0.9189
-14.9500 -14.7538 -2.4950 0.9189
-14.4125 -15.2821 -2.4952 0.9189
4.4352 16.0212 -2.3554 0.9350
3.8572 16.1683 -2.3552 0.9351
3.2743 16.2947 -2.3549 0.9351
2.6872 16.4000 -2.3547 0.9351
1.5040 16.5471 -2.3542 0.9351
0.9092 16.5882 -2.3539 0.9351
0.3134 16.6074 -2.3535 0.9351
-0.2826 16.6053 -2.3531 0.9351
-3.2391 16.2761 -2.3514 0.9352
-4.3968 15.9975 -2.3507 0.9352
-4.9672 15.8274 -2.3504 0.9352
-6.0879 15.4267 -2.3498 0.9352
-6.6367 15.1965 -2.3496 0.9352
-8.2173 14.3712 -2.3456 0.9353
-9.2249 13.7423 -2.3452 0.9353
-9.7111 13.4012 -2.3449 0.9353
-12.7165 12.1908 -2.4960 0.9313
-13.1446 11.7258 -2.4958 0.9313
-13.9496 10.7514 -2.4954 0.9313
-14.3254 10.2433 -2.4953 0.9313
-14.6828 9.7221 -2.4951 0.9313
-15.0212 9.1885 -2.4950 0.9313
-15.6397 8.0868 -2.4947 0.9313
-16.1778 6.9438 -2.4944 0.9313
-16.4158 6.3586 -2.4943 0.9313
-16.6327 5.7654 -2.4942 0.9314
-17.1543 3.9444 -2.4940 0.9314
-17.2844 3.3263 -2.4940 0.9314
-12.0971 0.5639 -1.7159 0.9523
-12.0834 -0.3045 -1.7126 0.9523
-17.5182 -1.7039 -2.4938 0.9314
-17.4460 -2.3314 -2.4939 0.9314
-17.2345 -3.5765 -2.4940 0.9314
-16.9346 -4.8035 -2.4941 0.9314
-16.3222 -6.5961 -2.4944 0.9313
-16.0758 -7.1777 -2.4945 0.9313
-15.5212 -8.3129 -2.4947 0.9313
-15.2138 -8.8649 -2.4949 0.9313
-14.5407 -9.9342 -2.4952 0.9313
-14.1759 -10.4502 -2.4953 0.9313
-13.7928 -10.9528 -2.4955 0.9313
-12.9737 -11.9155 -2.4959 0.9313
-12.0878 -12.8172 -2.4963 0.9313
-11.6211 -13.2437 -2.4965 0.9313
4.3070 13.6351 -2.3556 0.9437
3.8146 13.7794 -2.3554 0.9437
3.3174 13.9060 -2.3551 0.9437
2.3113 14.1056 -2.3547 0.9437
1.8036 14.1782 -2.3545 0.9437
-0.2431 14.2854 -2.3537 0.9437
-1.2666 14.2284 -2.3532 0.9437
-1.7761 14.1720 -2.3529 0.9437
-3.2873 13.8939 -2.3521 0.9438
-5.7111 13.0771 -2.3508 0.9438
-7.5143 12.1115 -2.3481 0.9439
-7.9361 11.8224 -2.3457 0.9439
-8.3545 11.5292 -2.3455 0.9439
-9.5428 10.5623 -2.3450 0.9439
-10.6203 9.4738 -2.3445 0.9439
-11.6632 9.6756 -2.4965 0.9404
-12.0020 9.2503 -2.4963 0.9404
-12.3255 8.8133 -2.4962 0.9404
-13.6971 6.4705 -2.4956 0.9404
-13.9199 5.9747 -2.4955 0.9404
-14.6295 3.9215 -2.4951 0.9404
-14.7605 3.3940 -2.4951 0.9404
-15.0390 1.7882 -2.4950 0.9405
-12.0637 0.5623 -1.9895 0.9522
-12.0492 -0.3036 -1.9856 0.9523
-15.1165 -0.9244 -2.4949 0.9405
-15.0737 -1.4662 -2.4949 0.9405
-15.0115 -2.0061 -2.4950 0.9405
-14.9301 -2.5434 -2.4950 0.9404
-14.7099 -3.6076 -2.4951 0.9404
-14.4141 -4.6534 -2.4952 0.9404
-14.2383 -5.1677 -2.4953 0.9404
-14.0442 -5.6755 -2.4954 0.9404
-13.6021 -6.6685 -2.4956 0.9404
-13.3547 -7.1525 -2.4957 0.9404
-12.5108 -8.5474 -2.4961 0.9404
-12.1967 -8.9912 -2.4962 0.9404
-11.5220 -9.8439 -2.4965 0.9404
-11.1621 -10.2516 -2.4967 0.9404
-10.7878 -10.6462 -2.4969 0.9404
3.3435 12.0775 -2.3555 0.9503
0.6855 12.5062 -2.3542 0.9503
-0.2131 12.5213 -2.3539 0.9503
-1.1103 12.4720 -2.3535 0.9503
-2.0015 12.3584 -2.3532 0.9503
-2.8821 12.1814 -2.3528 0.9503
-3.3170 12.0690 -2.3526 0.9503
-5.4152 11.2780 -2.3515 0.9504
-5.8159 11.0756 -2.3513 0.9504
-6.2090 10.8590 -2.3512 0.9504
-6.9692 10.3821 -2.3503 0.9504
-7.7317 9.2009 -2.2589 0.9523
-8.3657 9.2595 -2.3455 0.9505
-9.0071 8.6347 -2.3453 0.9505
-10.5220 8.1096 -2.4970 0.9474
-11.3309 6.9311 -2.4966 0.9474
-11.7977 6.1002 -2.4964 0.9474
-12.2039 5.2381 -2.4962 0.9474
-12.5474 4.3493 -2.4961 0.9474
-12.8263 3.4381 -2.4959 0.9474
-13.0393 2.5094 -2.4959 0.9474
-13.1208 2.0399 -2.4958 0.9474
-13.2330 1.0938 -2.4958 0.9474
-13.2637 0.6183 -2.4958 0.9474
-13.2773 0.1420 -2.4957 0.9474
-13.2738 -0.3345 -2.4957 0.9474
-13.2158 -1.2855 -2.4958 0.9474
-13.1613 -1.7588 -2.4958 0.9474
-13.0899 -2.2299 -2.4958 0.9474
-13.0017 -2.6982 -2.4959 0.9474
-12.8967 -3.1630 -2.4959 0.9474
-12.7752 -3.6237 -2.4960 0.9474
-12.4831 -4.5307 -2.4961 0.9474
-12.3129 -4.9758 -2.4962 0.9474
-11.9252 -5.8464 -2.4964 0.9474
-11.4762 -6.6871 -2.4966 0.9474
-10.9682 -7.4935 -2.4968 0.9474
-10.4036 -8.2615 -2.4970 0.9474
-10.1011 -8.6299 -2.4972 0.9474
-9.4573 -9.3331 -2.4975 0.9474
-9.1169 -9.6670 -2.4976 0.9474
-8.7648 -9.9886 -2.4978 0.9474
2.9731 10.7397 -2.3555 0.9555
2.5857 10.8386 -2.3554 0.9555
1.4058 11.0510 -2.3548 0.9555
1.0083 11.0934 -2.3546 0.9555
0.6096 11.1216 -2.3544 0.9555
-1.7799 10.9902 -2.3534 0.9555
-3.3329 10.6199 -2.3528 0.9555
-5.1732 9.8517 -2.3521 0.9555
-5.5230 9.6592 -2.3520 0.9555
-5.8656 9.4542 -2.3518 0.9555
-7.1467 8.5047 -2.3482 0.9556
-7.4402 8.2350 -2.3460 0.9556
-8.5399 7.0846 -2.3455 0.9556
-9.8505 6.5225 -2.4973 0.9528
-10.0778 6.1645 -2.4972 0.9528
-10.2921 5.7989 -2.4971 0.9529
-10.4931 5.4256 -2.4970 0.9529
-10.6807 5.0455 -2.4969 0.9529
-10.8545 4.6589 -2.4968 0.9529
-11.0143 4.2664 -2.4968 0.9529
-11.4082 3.0580 -2.4966 0.9529
-11.5103 2.6467 -2.4965 0.9529
-11.7276 1.3945 -2.4964 0.9529
-11.7700 0.9728 -2.4964 0.9529
-11.7881 -0.7209 -2.4964 0.9529
-11.7062 -1.5644 -2.4965 0.9529
-11.6427 -1.9834 -2.4965 0.9529
-11.3627 -3.2230 -2.4966 0.9529
-11.1029 -4.0297 -2.4967 0.9529
-10.9514 -4.4256 -2.4968 0.9529
-10.4135 -5.5773 -2.4970 0.9529
-10.2071 -5.9475 -2.4971 0.9528
-9.9875 -6.3100 -2.4972 0.9528
-9.7551 -6.6647 -2.4973 0.9528
-8.9838 -7.6753 -2.4977 0.9528
-8.7030 -7.9931 -2.4978 0.9528
-7.7951 -8.8834 -2.4982 0.9528
3.0192 9.5581 -2.3558 0.9596
2.3256 9.7485 -2.3554 0.9597
1.9742 9.8250 -2.3553 0.9597
0.9069 9.9781 -2.3548 0.9597
0.5483 10.0035 -2.3546 0.9597
0.1890 10.0161 -2.3544 0.9597
-0.5296 10.0025 -2.3541 0.9597
-0.8881 9.9764 -2.3539 0.9597
-1.6010 9.8857 -2.3536 0.9597
-1.9546 9.8213 -2.3535 0.9597
-2.6535 9.6547 -2.3532 0.9597
-2.9980 9.5527 -2.3531 0.9597
-3.3386 9.4385 -2.3529 0.9597
-4.0064 9.1738 -2.3527 0.9597
-4.3327 9.0237 -2.3526 0.9597
-4.9682 8.6889 -2.3523 0.9597
-5.2765 8.5047 -2.3522 0.9597
-6.1553 7.8827 -2.3505 0.9597
-8.4182 6.4882 -2.4979 0.9573
-8.6452 6.1817 -2.4978 0.9573
-9.2584 5.2164 -2.4975 0.9573
-9.4393 4.8807 -2.4975 0.9573
-10.3545 2.3809 -2.4971 0.9573
-10.4983 1.6322 -2.4970 0.9573
-10.5882 0.8752 -2.4970 0.9573
-10.6127 0.4947 -2.4969 0.9573
-10.6236 0.1136 -2.4969 0.9573
-10.6209 -0.2676 -2.4969 0.9573
-10.5744 -1.0285 -2.4970 0.9573
-10.5308 -1.4072 -2.4970 0.9573
-10.4736 -1.7842 -2.4970 0.9573
-10.4030 -2.1589 -2.4970 0.9573
-10.2217 -2.8995 -2.4971 0.9573
-10.1113 -3.2643 -2.4972 0.9573
-9.9879 -3.6253 -2.4972 0.9573
-9.7028 -4.3322 -2.4974 0.9573
-9.5414 -4.6777 -2.4974 0.9573
-9.3677 -5.0171 -2.4975 0.9573
-9.1819 -5.3502 -2.4976 0.9573
-8.9844 -5.6764 -2.4977 0.9573
-8.7753 -5.9953 -2.4978 0.9573
-8.5549 -6.3065 -2.4979 0.9573
-8.0813 -6.9043 -2.4981 0.9573
-7.2937 -7.7338 -2.4984 0.9573
-7.0119 -7.9909 -2.4986 0.9573
2.4274 8.7683 -2.3556 0.9631
2.1111 8.8491 -2.3555 0.9631
1.1478 9.0230 -2.3550 0.9631
0.8233 9.0577 -2.3549 0.9631
0.1716 9.0923 -2.3546 0.9631
-0.4808 9.0801 -2.3543 0.9631
-1.1306 9.0212 -2.3540 0.9631
-1.4534 8.9743 -2.3539 0.9631
-1.7743 8.9159 -2.3537 0.9631
-2.0930 8.8459 -2.3536 0.9631
-2.4089 8.7647 -2.3535 0.9631
-2.7216 8.6721 -2.3534 0.9631
-3.3362 8.4538 -2.3531 0.9631
-3.9325 8.1901 -2.3523 0.9632
-4.2229 8.0420 -2.3518 0.9632
-4.7864 7.7147 -2.3507 0.9632
-5.0588 7.5361 -2.3501 0.9632
-5.5832 7.1501 -2.3488 0.9632
-5.8345 6.9432 -2.3482 0.9632
-6.0781 6.7275 -2.3475 0.9632
-6.9755 6.2225 -2.4202 0.9621
-7.8485 5.6121 -2.4982 0.9609
-8.0445 5.3266 -2.4981 0.9609
-8.2302 5.0344 -2.4980 0.9609
-8.5695 4.4310 -2.4979 0.9609
-8.8647 3.8049 -2.4977 0.9609
-9.2216 2.8302 -2.4976 0.9609
-9.3171 2.4975 -2.4975 0.9609
-9.4005 2.1615 -2.4975 0.9609
-9.4719 1.8228 -2.4975 0.9609
-9.5781 1.1389 -2.4974 0.9609
-9.6127 0.7945 -2.4974 0.9609
-9.6350 0.4491 -2.4974 0.9609
-9.6449 0.1031 -2.4974 0.9609
-9.6424 -0.2430 -2.4974 0.9609
-9.6275 -0.5888 -2.4974 0.9609
-9.5087 -1.6198 -2.4974 0.9609
-9.4446 -1.9600 -2.4975 0.9609
-9.2800 -2.6323 -2.4975 0.9609
-9.1797 -2.9636 -2.4976 0.9609
-9.0677 -3.2911 -2.4976 0.9609
-8.9439 -3.6144 -2.4977 0.9609
-8.5045 -4.5548 -2.4979 0.9609
-8.3358 -4.8571 -2.4980 0.9609
-7.1072 -6.5274 -2.4985 0.9609
-6.8687 -6.7785 -2.4986 0.9609
1.6386 8.1549 -2.3547 0.9660
1.3450 8.2085 -2.3548 0.9660
1.0496 8.2514 -2.3547 0.9660
0.7529 8.2836 -2.3547 0.9660
0.1569 8.3156 -2.3545 0.9660
-0.4397 8.3044 -2.3542 0.9660
-0.7373 8.2826 -2.3540 0.9660
-1.3291 8.2068 -2.3536 0.9660
-2.4881 7.9280 -2.3523 0.9660
-2.7705 7.8323 -2.3519 0.9661
-3.0492 7.7266 -2.3515 0.9661
-3.8595 7.3499 -2.3501 0.9661
-4.1198 7.2052 -2.3496 0.9661
-4.8668 6.7161 -2.3480 0.9661
-5.1033 6.5356 -2.3474 0.9661
-5.6156 6.2156 -2.3714 0.9658
-6.0209 6.2016 -2.4469 0.9647
-6.7930 5.6354 -2.4987 0.9640
-7.8387 4.0532 -2.4982 0.9640
-7.9789 3.7692 -2.4981 0.9640
-8.3372 2.8899 -2.4980 0.9640
-8.4353 2.5888 -2.4979 0.9640
-8.5227 2.2845 -2.4979 0.9640
-8.5990 1.9772 -2.4978 0.9640
-8.7185 1.3555 -2.4978 0.9640
-8.7931 0.7268 -2.4978 0.9640
-8.8225 0.0943 -2.4977 0.9640
-8.8203 -0.2222 -2.4977 0.9640
-8.8066 -0.5386 -2.4978 0.9640
-8.7454 -1.1687 -2.4978 0.9640
-8.4887 -2.4078 -2.4979 0.9640
-8.3970 -2.7108 -2.4979 0.9640
-8.1813 -3.3062 -2.4980 0.9640
-7.9235 -3.8845 -2.4981 0.9640
-7.6250 -4.4429 -2.4983 0.9640
-7.4609 -4.7138 -2.4984 0.9640
-7.2872 -4.9785 -2.4984 0.9640
-7.1041 -5.2370 -2.4985 0.9640
-5.8225 -6.6354 -2.4991 0.9640
2.3040 7.2941 -2.3527 0.9685
2.0409 7.3723 -2.3528 0.9685
1.7751 7.4410 -2.3529 0.9685
1.5070 7.4999 -2.3529 0.9685
1.2370 7.5492 -2.3530 0.9685
0.4186 7.6380 -2.3528 0.9685
-0.6781 7.6176 -2.3523 0.9685
-1.2224 7.5480 -2.3518 0.9685
-1.4923 7.4985 -2.3516 0.9685
-2.0257 7.3703 -2.3510 0.9685
-2.2885 7.2919 -2.3507 0.9685
-2.5482 7.2040 -2.3503 0.9685
-3.0573 7.0004 -2.3496 0.9685
-3.3059 6.8850 -2.3491 0.9685
-3.5501 6.7607 -2.3487 0.9685
-4.0241 6.4861 -2.3478 0.9686
-4.2536 6.3366 -2.3474 0.9686
-4.5058 6.2180 -2.3619 0.9684
-4.8462 6.2063 -2.4220 0.9676
-5.2049 6.1940 -2.4885 0.9667
-5.4473 6.0293 -2.4993 0.9666
-5.6599 5.8297 -2.4992 0.9666
-6.0629 5.4085 -2.4990 0.9666
-6.9297 4.2390 -2.4986 0.9666
-7.2155 3.7309 -2.4985 0.9666
-7.3446 3.4695 -2.4984 0.9666
-7.6744 2.6602 -2.4983 0.9666
-7.7648 2.3831 -2.4982 0.9666
-7.9154 1.8200 -2.4981 0.9666
-7.9756 1.5349 -2.4981 0.9666
-8.0254 1.2477 -2.4981 0.9666
-8.0650 0.9590 -2.4981 0.9666
-8.0941 0.6690 -2.4981 0.9666
-8.1129 0.3781 -2.4981 0.9666
-8.1066 -0.4957 -2.4981 0.9666
-8.0502 -1.0758 -2.4981 0.9666
-7.8883 -1.9346 -2.4982 0.9666
-7.8139 -2.2164 -2.4982 0.9666
-7.4170 -3.3116 -2.4984 0.9666
-7.1607 -3.8352 -2.4985 0.9666
-6.8676 -4.3390 -2.4986 0.9666
-5.7831 -5.7072 -2.4991 0.9666
2.1305 6.7448 -2.3512 0.9706
1.3936 6.9352 -2.3514 0.9706
0.8927 7.0173 -2.3514 0.9706
0.3871 7.0629 -2.3513 0.9706
0.1335 7.0720 -2.3512 0.9706
-0.1203 7.0719 -2.3511 0.9706
-0.3740 7.0626 -2.3509 0.9706
-1.3800 6.9341 -2.3501 0.9706
-1.6277 6.8794 -2.3499 0.9706
-2.3565 6.6621 -2.3490 0.9707
-2.5937 6.5723 -2.3486 0.9707
-3.2837 6.2534 -2.3478 0.9707
-3.8500 6.2054 -2.4274 0.9697
-4.4126 6.0894 -2.4997 0.9688
-5.6105 5.0049 -2.4992 0.9688
-5.7863 4.8002 -2.4991 0.9688
-5.9546 4.5894 -2.4990 0.9688
-6.1153 4.3727 -2.4990 0.9688
-6.4128 3.9227 -2.4988 0.9688
-7.0091 2.7150 -2.4986 0.9688
-7.4634 0.8874 -2.4984 0.9688
-7.4904 0.6191 -2.4983 0.9688
-7.5155 0.0804 -2.4983 0.9688
-7.5135 -0.1893 -2.4983 0.9688
-7.5019 -0.4588 -2.4983 0.9688
-7.4498 -0.9956 -2.4984 0.9688
-7.4093 -1.2622 -2.4984 0.9688
-7.3593 -1.5272 -2.4984 0.9688
-7.1529 -2.3092 -2.4985 0.9688
-7.0655 -2.5644 -2.4985 0.9688
-6.7495 -3.3089 -2.4987 0.9688
-6.6266 -3.5491 -2.4987 0.9688
-5.8876 -4.6753 -2.4991 0.9688
-5.7162 -4.8837 -2.4991 0.9688
-5.5375 -5.0858 -2.4992 0.9688
-5.3516 -5.2814 -2.4993 0.9688
-5.1589 -5.4702 -2.4994 0.9688
-4.9595 -5.6520 -2.4995 0.9688
1.9795 6.2668 -2.3502 0.9725
1.7533 6.3334 -2.3501 0.9725
1.5249 6.3921 -2.3500 0.9725
1.2946 6.4428 -2.3500 0.9725
0.8293 6.5190 -2.3500 0.9725
0.5948 6.5444 -2.3500 0.9725
0.3596 6.5614 -2.3499 0.9725
0.1240 6.5698 -2.3498 0.9725
-0.1118 6.5698 -2.3497 0.9725
-0.5826 6.5440 -2.3495 0.9725
-1.0502 6.4844 -2.3491 0.9725
-1.2820 6.4420 -2.3489 0.9725
-1.9664 6.2657 -2.3484 0.9725
-2.4518 6.2127 -2.3885 0.9720
-3.6857 5.9406 -2.5000 0.9707
-4.1019 5.6605 -2.4999 0.9707
-4.3022 5.5095 -2.4998 0.9707
-4.6859 5.1865 -2.4996 0.9707
-5.0454 4.8368 -2.4994 0.9707
-5.2155 4.6525 -2.4994 0.9707
-5.5354 4.2663 -2.4992 0.9707
-5.6848 4.0649 -2.4991 0.9707
-5.8268 3.8582 -2.4991 0.9707
-6.3182 2.9847 -2.4989 0.9708
-6.5158 2.5239 -2.4988 0.9708
-6.6020 2.2884 -2.4987 0.9708
-6.6798 2.0500 -2.4987 0.9708
-6.7489 1.8091 -2.4987 0.9708
-6.9041 1.0734 -2.4986 0.9708
-6.9381 0.8250 -2.4986 0.9708
-6.9632 0.5755 -2.4986 0.9708
-6.9847 -0.1759 -2.4986 0.9708
-6.9541 -0.6764 -2.4986 0.9708
-6.9254 -0.9255 -2.4986 0.9708
-6.8878 -1.1734 -2.4986 0.9708
-6.7220 -1.9067 -2.4987 0.9708
-6.4785 -2.6181 -2.4988 0.9708
-6.3805 -2.8489 -2.4988 0.9708
-6.1601 -3.2992 -2.4989 0.9708
-5.9079 -3.7326 -2.4990 0.9707
-5.6253 -4.1469 -2.4992 0.9707
-5.4730 -4.3461 -2.4992 0.9707
-5.1476 -4.7277 -2.4994 0.9707
-4.6102 -5.2540 -2.4996 0.9707
1.9567 6.1944 -2.4894 0.9726
1.4798 6.2028 -2.4437 0.9731
0.7901 6.2110 -2.3993 0.9735
0.5647 6.2126 -2.3906 0.9736
0.1173 6.2142 -2.3818 0.9737
-0.1058 6.2142 -2.3817 0.9737
-0.3290 6.2136 -2.3845 0.9737
-1.4676 6.2028 -2.4426 0.9731
-2.1761 6.1521 -2.5007 0.9724
-2.3953 6.0697 -2.5006 0.9724
-2.6115 5.9797 -2.5005 0.9724
-2.8242 5.8819 -2.5004 0.9724
-3.0333 5.7766 -2.5003 0.9724
-3.2385 5.6638 -2.5002 0.9724
-3.6361 5.4166 -2.5001 0.9724
-4.0149 5.1416 -2.4999 0.9724
-4.3729 4.8402 -2.4997 0.9724
-4.7085 4.5138 -2.4996 0.9724
-5.5633 3.4031 -2.4992 0.9725
-6.0808 2.3554 -2.4990 0.9725
-6.1613 2.1357 -2.4989 0.9725
-6.2984 1.6883 -2.4989 0.9725
-6.4432 1.0017 -2.4988 0.9725
-6.5134 0.3036 -2.4988 0.9725
-6.5184 -0.1643 -2.4988 0.9725
-6.5084 -0.3980 -2.4988 0.9725
-6.4899 -0.6313 -2.4988 0.9725
-6.3330 -1.5532 -2.4989 0.9725
-6.2733 -1.7794 -2.4989 0.9725
-6.2055 -2.0034 -2.4989 0.9725
-6.1297 -2.2248 -2.4989 0.9725
-6.0460 -2.4433 -2.4990 0.9725
-5.8555 -2.8707 -2.4991 0.9725
-5.7488 -3.0790 -2.4991 0.9725
-5.6348 -3.2833 -2.4992 0.9725
-5.5134 -3.4834 -2.4992 0.9725
-5.3850 -3.6791 -2.4993 0.9724
-5.2497 -3.8700 -2.4993 0.9724
-5.1076 -4.0560 -2.4994 0.9724
-4.9589 -4.2367 -2.4995 0.9724
-4.6426 -4.5817 -2.4996 0.9724
-4.4754 -4.7454 -2.4997 0.9724
-4.3024 -4.9031 -2.4998 0.9724
1.8417 5.8305 -2.5025 0.9739
1.4188 5.9472 -2.5023 0.9739
1.2044 5.9940 -2.5022 0.9739
0.1153 6.1115 -2.5017 0.9739
-0.1040 6.1115 -2.5016 0.9739
-0.5420 6.0878 -2.5015 0.9739
-0.9770 6.0328 -2.5013 0.9739
-1.1928 5.9937 -2.5012 0.9739
-1.4070 5.9468 -2.5011 0.9739
-2.0376 5.7605 -2.5008 0.9739
-2.4453 5.5992 -2.5006 0.9739
-2.6445 5.5076 -2.5005 0.9739
-2.8403 5.4090 -2.5004 0.9739
-3.2207 5.1911 -2.5003 0.9739
-3.7594 4.8145 -2.5000 0.9739
-4.0947 4.5322 -2.4999 0.9739
-4.2546 4.3822 -2.4998 0.9739
-4.8372 3.7282 -2.4995 0.9739
-4.9677 3.5521 -2.4995 0.9740
-5.2094 3.1867 -2.4994 0.9740
-5.4243 2.8048 -2.4993 0.9740
-5.5214 2.6083 -2.4992 0.9740
-5.6113 2.4085 -2.4992 0.9740
-5.6940 2.2056 -2.4991 0.9740
-5.7694 1.9998 -2.4991 0.9740
-5.8374 1.7915 -2.4991 0.9740
-6.0334 0.9380 -2.4990 0.9740
-6.0632 0.7209 -2.4990 0.9740
-6.0992 0.2843 -2.4990 0.9740
-6.0944 -0.3727 -2.4990 0.9740
-6.0772 -0.5911 -2.4990 0.9740
-6.0521 -0.8088 -2.4990 0.9740
-6.0192 -1.0254 -2.4990 0.9740
-5.9303 -1.4544 -2.4990 0.9740
-5.7399 -2.0833 -2.4991 0.9740
-5.6615 -2.2879 -2.4992 0.9740
-5.5759 -2.4896 -2.4992 0.9740
-5.4830 -2.6881 -2.4992 0.9740
-5.3832 -2.8831 -2.4993 0.9740
-5.2764 -3.0745 -2.4993 0.9740
-5.1628 -3.2619 -2.4994 0.9740
-5.0425 -3.4450 -2.4994 0.9740
-4.7827 -3.7979 -2.4996 0.9739
-4.6435 -3.9672 -2.4996 0.9739
-4.3473 -4.2902 -2.4997 0.9739
-4.1907 -4.4435 -2.4998 0.9739
1.7295 5.4753 -2.5025 0.9753
0.9283 5.6656 -2.5021 0.9753
0.5196 5.7172 -2.5019 0.9753
-0.3035 5.7319 -2.5016 0.9753
-0.5089 5.7171 -2.5015 0.9753
-1.5208 5.5335 -2.5010 0.9753
-1.7183 5.4752 -2.5009 0.9753
-1.9136 5.4098 -2.5008 0.9753
-2.4835 5.1724 -2.5006 0.9753
-2.8478 4.9806 -2.5004 0.9753
-3.0246 4.8751 -2.5003 0.9753
-3.3662 4.6454 -2.5002 0.9753
-3.9957 4.1156 -2.4999 0.9753
-4.2803 3.8183 -2.4998 0.9753
-4.4144 3.6621 -2.4997 0.9753
-4.8925 2.9927 -2.4995 0.9753
-4.9966 2.8152 -2.4995 0.9753
-5.2699 2.2619 -2.4993 0.9753
-5.4184 1.8781 -2.4993 0.9753
-5.5390 1.4847 -2.4992 0.9753
-5.5887 1.2850 -2.4992 0.9753
-5.7149 0.4724 -2.4991 0.9753
-5.7237 -0.3500 -2.4991 0.9753
-5.6839 -0.7596 -2.4991 0.9753
-5.5695 -1.3659 -2.4992 0.9753
-5.5169 -1.5649 -2.4992 0.9753
-5.1494 -2.5245 -2.4994 0.9753
-5.0556 -2.7077 -2.4994 0.9753
-4.9553 -2.8874 -2.4995 0.9753
-4.8486 -3.0634 -2.4995 0.9753
-4.7357 -3.2354 -2.4996 0.9753
-4.4917 -3.5668 -2.4997 0.9753
-4.3609 -3.7258 -2.4997 0.9753
-4.2245 -3.8800 -2.4998 0.9753
-3.9356 -4.1731 -2.4999 0.9753
-3.7835 -4.3118 -2.5000 0.9753
1.6284 5.1551 -2.5024 0.9765
1.2544 5.2582 -2.5023 0.9765
1.0650 5.2997 -2.5022 0.9765
0.8741 5.3343 -2.5021 0.9765
0.6821 5.3620 -2.5020 0.9765
0.4892 5.3828 -2.5019 0.9765
0.2958 5.3967 -2.5018 0.9765
0.1020 5.4037 -2.5017 0.9765
-0.4792 5.3828 -2.5015 0.9765
-0.8639 5.3342 -2.5013 0.9765
-1.4315 5.2100 -2.5011 0.9765
-1.6179 5.1551 -2.5010 0.9765
-1.8017 5.0935 -2.5009 0.9765
-1.9832 5.0255 -2.5008 0.9765
-2.1622 4.9509 -2.5007 0.9765
-2.5115 4.7828 -2.5006 0.9765
-2.6814 4.6895 -2.5005 0.9765
-2.8478 4.5902 -2.5004 0.9765
-3.0106 4.4849 -2.5003 0.9765
-3.3243 4.2572 -2.5002 0.9765
-3.4748 4.1351 -2.5001 0.9765
-3.6208 4.0077 -2.5001 0.9765
-3.7622 3.8751 -2.5000 0.9765
-3.8987 3.7375 -2.4999 0.9765
-4.0302 3.5951 -2.4999 0.9765
-4.5026 2.9814 -2.4997 0.9765
-4.9620 2.1298 -2.4995 0.9765
-5.1018 1.7684 -2.4994 0.9765
-5.2154 1.3980 -2.4994 0.9765
-5.2622 1.2100 -2.4993 0.9765
-5.3021 1.0204 -2.4993 0.9765
-5.3353 0.8295 -2.4993 0.9765
-5.3616 0.6376 -2.4993 0.9765
-5.3935 0.2514 -2.4993 0.9765
-5.3976 -0.1360 -2.4993 0.9765
-5.3893 -0.3296 -2.4993 0.9765
-5.2868 -1.0971 -2.4993 0.9765
-5.2441 -1.2861 -2.4993 0.9765
-5.1946 -1.4735 -2.4994 0.9765
-5.0757 -1.8422 -2.4994 0.9765
-5.0064 -2.0232 -2.4995 0.9765
-4.9307 -2.2015 -2.4995 0.9765
-4.8486 -2.3770 -2.4995 0.9765
-4.7602 -2.5495 -2.4996 0.9765
-4.5653 -2.8844 -2.4997 0.9765
-4.4590 -3.0464 -2.4997 0.9765
-4.2292 -3.3584 -2.4998 0.9765
-4.1061 -3.5081 -2.4999 0.9765
1.3610 4.9164 -2.5023 0.9775
1.1837 4.9619 -2.5022 0.9775
1.0049 5.0010 -2.5021 0.9775
0.8248 5.0337 -2.5021 0.9775
0.4617 5.0795 -2.5019 0.9775
0.0962 5.0992 -2.5017 0.9775
-0.4522 5.0796 -2.5015 0.9775
-0.6341 5.0599 -2.5014 0.9775
-0.8152 5.0337 -2.5013 0.9775
-0.9953 5.0011 -2.5012 0.9775
-1.1740 4.9620 -2.5012 0.9775
-1.5267 4.8647 -2.5010 0.9775
-1.8715 4.7424 -2.5009 0.9775
-2.5304 4.4254 -2.5006 0.9775
-2.8411 4.2323 -2.5004 0.9775
-3.1371 4.0175 -2.5003 0.9775
-3.2791 3.9022 -2.5002 0.9775
-3.6792 3.5270 -2.5000 0.9775
-4.0366 3.1111 -2.4999 0.9775
-4.1455 2.9642 -2.4998 0.9776
-4.2491 2.8136 -2.4998 0.9776
-4.3472 2.6592 -2.4997 0.9776
-4.4398 2.5015 -2.4997 0.9776
-4.5266 2.3405 -2.4997 0.9776
-4.6076 2.1766 -2.4996 0.9776
-4.6827 2.0099 -2.4996 0.9776
-4.7517 1.8405 -2.4996 0.9776
-4.8146 1.6688 -2.4995 0.9776
-4.8713 1.4950 -2.4995 0.9776
-5.0899 0.2373 -2.4994 0.9776
-5.0938 -0.1283 -2.4994 0.9776
-5.0715 -0.4933 -2.4994 0.9776
-5.0505 -0.6749 -2.4994 0.9776
-5.0231 -0.8557 -2.4994 0.9776
-4.9892 -1.0354 -2.4995 0.9776
-4.9489 -1.2138 -2.4995 0.9776
-4.8492 -1.5655 -2.4995 0.9776
-4.7899 -1.7385 -2.4995 0.9776
-4.7245 -1.9093 -2.4996 0.9776
-4.5756 -2.2432 -2.4996 0.9776
-4.4031 -2.5656 -2.4997 0.9776
-4.1022 -3.0240 -2.4999 0.9776
-3.8749 -3.3105 -2.5000 0.9775
-3.7537 -3.4475 -2.5000 0.9775
-3.6277 -3.5801 -2.5001 0.9775
-3.4970 -3.7080 -2.5001 0.9775
1.2869 4.6485 -2.5023 0.9785
0.6086 4.7842 -2.5020 0.9785
0.4365 4.8028 -2.5019 0.9785
0.0910 4.8215 -2.5017 0.9785
-0.0821 4.8215 -2.5017 0.9785
-0.2550 4.8153 -2.5016 0.9785
-0.5996 4.7843 -2.5014 0.9785
-0.9411 4.7287 -2.5013 0.9785
-1.1101 4.6918 -2.5012 0.9785
-1.6076 4.5449 -2.5010 0.9785
-1.7696 4.4842 -2.5009 0.9785
-1.9293 4.4177 -2.5008 0.9785
-2.6864 4.0019 -2.5005 0.9785
-2.8282 3.9029 -2.5004 0.9785
-2.9663 3.7988 -2.5004 0.9785
-3.1006 3.6898 -2.5003 0.9785
-3.3571 3.4578 -2.5002 0.9785
-3.4789 3.3350 -2.5001 0.9785
-4.1981 2.3654 -2.4998 0.9785
-4.3568 2.0581 -2.4997 0.9785
-4.4278 1.9005 -2.4997 0.9785
-4.4931 1.7404 -2.4997 0.9785
-4.6540 1.2475 -2.4996 0.9785
-4.6957 1.0797 -2.4996 0.9785
-4.7610 0.7402 -2.4996 0.9785
-4.7844 0.5689 -2.4996 0.9785
-4.8018 0.3969 -2.4995 0.9785
-4.8129 0.2243 -2.4995 0.9785
-4.8178 0.0515 -2.4995 0.9785
-4.8091 -0.2941 -2.4995 0.9785
-4.7955 -0.4665 -2.4995 0.9785
-4.7757 -0.6382 -2.4996 0.9785
-4.7177 -0.9790 -2.4996 0.9785
-4.6354 -1.3148 -2.4996 0.9785
-4.5293 -1.6439 -2.4997 0.9785
-4.3998 -1.9645 -2.4997 0.9785
-4.3266 -2.1211 -2.4998 0.9785
-4.2477 -2.2750 -2.4998 0.9785
-4.0738 -2.5738 -2.4999 0.9785
-3.7739 -2.9968 -2.5000 0.9785
-3.5494 -3.2599 -2.5001 0.9785
-3.4302 -3.3852 -2.5002 0.9785
-3.1788 -3.6226 -2.5003 0.9785
1.3761 4.3566 -2.5023 0.9794
1.2189 4.4030 -2.5022 0.9794
0.9000 4.4788 -2.5021 0.9794
0.7387 4.5081 -2.5020 0.9794
0.2500 4.5610 -2.5018 0.9794
0.0862 4.5669 -2.5017 0.9794
-0.0777 4.5669 -2.5017 0.9794
-0.2415 4.5610 -2.5016 0.9794
-0.4050 4.5493 -2.5015 0.9794
-0.5679 4.5317 -2.5014 0.9794
-1.0515 4.4440 -2.5012 0.9794
-1.3674 4.3570 -2.5011 0.9794
-1.5228 4.3050 -2.5010 0.9794
-1.8275 4.1844 -2.5009 0.9794
-1.9764 4.1161 -2.5008 0.9794
-2.1227 4.0424 -2.5007 0.9794
-2.2663 3.9636 -2.5007 0.9794
-2.4070 3.8796 -2.5006 0.9794
-2.6789 3.6968 -2.5005 0.9794
-2.9370 3.4951 -2.5004 0.9794
-3.0604 3.3873 -2.5003 0.9794
-3.1799 3.2753 -2.5003 0.9794
-3.2953 3.1590 -2.5002 0.9794
-3.5132 2.9145 -2.5001 0.9794
-3.6154 2.7865 -2.5001 0.9794
-3.7130 2.6550 -2.5000 0.9794
-3.8937 2.3818 -2.4999 0.9794
-3.9766 2.2405 -2.4999 0.9794
-4.1269 1.9496 -2.4998 0.9794
-4.1942 1.8002 -2.4998 0.9794
-4.3124 1.4947 -2.4998 0.9794
-4.4084 1.1817 -2.4997 0.9794
-4.4479 1.0227 -2.4997 0.9794
-4.5097 0.7011 -2.4997 0.9794
-4.5320 0.5389 -2.4997 0.9794
-4.5484 0.3759 -2.4997 0.9794
-4.5589 0.2125 -2.4997 0.9794
-4.5636 0.0488 -2.4997 0.9794
-4.5554 -0.2786 -2.4997 0.9794
-4.5425 -0.4418 -2.4997 0.9794
-4.4687 -0.9274 -2.4997 0.9794
-4.4326 -1.0871 -2.4997 0.9794
-4.3908 -1.2455 -2.4997 0.9794
-4.2903 -1.5571 -2.4998 0.9794
-4.2317 -1.7101 -2.4998 0.9794
-4.1676 -1.8608 -2.4998 0.9794
-4.0236 -2.1550 -2.4999 0.9794
-3.9437 -2.2979 -2.4999 0.9794
-3.8588 -2.4380 -2.5000 0.9794
-3.6742 -2.7085 -2.5000 0.9794
-3.5747 -2.8387 -2.5001 0.9794
-3.4706 -2.9651 -2.5001 0.9794
-3.1321 -3.3211 -2.5003 0.9794
-3.0110 -3.4314 -2.5003 0.9794
1.1563 4.1769 -2.5022 0.9802
1.0057 4.2156 -2.5021 0.9802
0.5468 4.2988 -2.5019 0.9802
0.0818 4.3323 -2.5017 0.9802
-0.2291 4.3268 -2.5016 0.9802
-0.3842 4.3157 -2.5015 0.9802
-0.5388 4.2990 -2.5015 0.9802
-0.6926 4.2768 -2.5014 0.9802
-1.1481 4.1773 -2.5012 0.9802
-1.2972 4.1333 -2.5011 0.9802
-1.5901 4.0294 -2.5010 0.9802
-2.1500 3.7601 -2.5007 0.9802
-2.2835 3.6805 -2.5007 0.9802
-2.4140 3.5961 -2.5006 0.9802
-2.5414 3.5071 -2.5006 0.9802
-2.7862 3.3157 -2.5004 0.9802
-2.9033 3.2135 -2.5004 0.9802
-3.0167 3.1072 -2.5003 0.9802
-3.1262 2.9969 -2.5003 0.9802
-3.5225 2.5187 -2.5001 0.9802
-3.6939 2.2596 -2.5000 0.9802
-3.7725 2.1256 -2.5000 0.9802
-3.9152 1.8495 -2.4999 0.9802
-4.1393 1.2704 -2.4998 0.9802
-4.2517 0.8182 -2.4998 0.9802
-4.3250 0.2016 -2.4998 0.9802
-4.3283 -0.1090 -2.4998 0.9802
-4.2683 -0.7271 -2.4998 0.9802
-4.2394 -0.8798 -2.4998 0.9802
-4.1205 -1.3303 -2.4998 0.9802
-4.0701 -1.4772 -2.4999 0.9802
-4.0145 -1.6223 -2.4999 0.9802
-3.8880 -1.9061 -2.5000 0.9802
-3.7414 -2.1800 -2.5000 0.9802
-3.3912 -2.6930 -2.5002 0.9802
-3.2925 -2.8129 -2.5002 0.9802
-3.1895 -2.9294 -2.5003 0.9802
-3.0824 -3.0419 -2.5003 0.9802
-2.9713 -3.1506 -2.5004 0.9802
