ply
format ascii 1.0
element vertex 927
property float32 x
property float32 y
property float32 z
property float32 I
end_header
-10.8676 -19.6515 3.9597 0.9128
40.8785 -11.9333 7.5088 0.8412
40.8850 -11.9352 5.5463 0.8421
-10.8643 -19.6456 2.4107 0.9136
-10.8632 -19.6436 1.9002 0.9138
-10.8621 -19.6416 1.3918 0.9140
39.9400 20.2168 2.7759 0.8358
39.9400 20.2168 1.7651 0.8359
0.7653 -11.1944 0.1895 0.9561
40.8550 -11.9264 0.7189 0.8434
39.9371 20.2153 0.7561 0.8360
-10.8589 -19.6358 -0.1263 0.9142
0.7652 -11.1921 -0.0632 0.9561
40.8490 -11.9247 -0.2396 0.8435
-10.8578 -19.6339 -0.6318 0.9141
0.7650 -11.1898 -0.3158 0.9561
40.8430 -11.9230 -1.1981 0.8434
47.5774 10.5249 -1.3721 0.8228
47.0644 14.0132 -1.3827 0.8216
39.9370 20.2153 -1.2604 0.8360
-31.0129 -38.0117 -2.4879 0.8216
-28.2251 -40.1551 -2.4892 0.8215
-26.7751 -41.1513 -2.4898 0.8215
-25.2901 -42.0954 -2.4905 0.8214
-10.8568 -19.6319 -1.1377 0.9141
-20.6440 -44.6031 -2.4925 0.8213
-19.0380 -45.3271 -2.4933 0.8213
-17.4068 -45.9935 -2.4940 0.8212
-12.3819 -47.6385 -2.4962 0.8211
-10.0202 -45.1380 -2.3449 0.8310
-5.2548 -47.1744 -2.4072 0.8269
-3.6001 -47.8513 -2.4336 0.8251
-0.1677 -49.0663 -2.4884 0.8216
1.6086 -49.5994 -2.5167 0.8197
45.0818 -18.6125 -2.4735 0.8226
45.4011 -16.8669 -2.4562 0.8237
40.6329 -11.8617 -2.1467 0.8441
45.3693 -11.4973 -2.3736 0.8291
46.2463 6.8019 -2.3706 0.8293
45.3174 11.7429 -2.3741 0.8290
44.8586 13.3564 -2.3737 0.8291
43.1373 18.0808 -2.3721 0.8292
-18.5465 -28.5044 -2.4935 0.8725
-10.8557 -19.6300 -1.6447 0.9140
-14.2948 -30.8852 -2.4954 0.8724
-10.2403 -30.2949 -2.3448 0.8796
-9.1519 -30.6547 -2.3457 0.8796
-8.0971 -31.1529 -2.3601 0.8789
-7.0191 -31.6187 -2.3748 0.8782
-0.1151 -33.6729 -2.4690 0.8737
1.0988 -33.8813 -2.4856 0.8729
7.3652 -34.2838 -2.5711 0.8688
9.9354 -34.1280 -2.6062 0.8671
12.5214 -33.7807 -2.6416 0.8655
17.6785 -32.4897 -2.7120 0.8621
19.9441 -31.1158 -2.7099 0.8622
20.8740 -30.1326 -2.6877 0.8633
21.7435 -29.1020 -2.6636 0.8644
22.5607 -28.0411 -2.6389 0.8656
23.3249 -26.9536 -2.6135 0.8668
24.0358 -25.8426 -2.5877 0.8680
24.6985 -24.7167 -2.5620 0.8692
25.9169 -22.4613 -2.5146 0.8715
26.4975 -21.3510 -2.4951 0.8724
27.5577 -19.1205 -2.4593 0.8741
20.9129 -11.3992 -1.7464 0.9089
29.7993 -13.5723 -2.4009 0.8769
32.9437 -9.6170 -2.5163 0.8714
34.1374 -3.5920 -2.5169 0.8714
34.3081 -1.1381 -2.5169 0.8714
34.3014 1.3219 -2.5169 0.8714
33.9595 4.9948 -2.5168 0.8714
31.4912 6.9664 -2.3648 0.8787
31.2599 8.1002 -2.3677 0.8785
30.6012 10.3187 -2.3679 0.8785
30.2071 11.4067 -2.3675 0.8785
29.7743 12.4798 -2.3671 0.8786
29.3030 13.5363 -2.3667 0.8786
-14.9451 -21.2619 -2.4951 0.9008
-14.1756 -21.7867 -2.4954 0.9008
-10.2585 -22.1643 -2.3447 0.9065
-8.6737 -22.9182 -2.3526 0.9062
-7.8829 -23.3206 -2.3633 0.9058
-7.0751 -23.6981 -2.3744 0.9054
-6.2508 -24.0497 -2.3856 0.9050
-5.4110 -24.3747 -2.3971 0.9045
-4.5562 -24.6724 -2.4087 0.9041
-3.6873 -24.9419 -2.4206 0.9036
-2.8051 -25.1826 -2.4326 0.9032
-0.0879 -25.7245 -2.4697 0.9018
0.8381 -25.8428 -2.4823 0.9013
0.7645 -11.1830 -1.0761 0.9560
3.6625 -26.0014 -2.5209 0.8999
5.5722 -25.9380 -2.5470 0.8989
7.4919 -25.7346 -2.5732 0.8979
9.3477 -25.2186 -2.5821 0.8976
11.0374 -24.2812 -2.5606 0.8984
11.8418 -23.7527 -2.5481 0.8988
12.6189 -23.1911 -2.5347 0.8993
14.0860 -21.9762 -2.5060 0.9004
15.4468 -20.6743 -2.4777 0.9015
18.4473 -17.1830 -2.4203 0.9037
18.9787 -16.4482 -2.4111 0.9040
19.9952 -14.9625 -2.3976 0.9045
20.4386 -14.1809 -2.3882 0.9049
22.0105 -10.9935 -2.3620 0.9059
23.5062 -9.7048 -2.4415 0.9029
24.5332 -9.1143 -2.5126 0.9002
24.8453 -8.2298 -2.5127 0.9002
25.1255 -7.3347 -2.5129 0.9002
25.3733 -6.4300 -2.5130 0.9002
25.9193 -3.6704 -2.5132 0.9002
26.1646 -0.8679 -2.5133 0.9001
26.1595 1.0081 -2.5133 0.9001
26.1064 1.9448 -2.5133 0.9001
26.0195 2.8789 -2.5132 0.9001
25.8991 3.8092 -2.5132 0.9002
25.5583 5.6539 -2.5130 0.9002
23.9915 6.2168 -2.3794 0.9052
23.0439 8.7018 -2.3648 0.9058
22.7145 9.5207 -2.3645 0.9058
-13.2824 -16.2799 -2.4958 0.9188
-12.6919 -16.7471 -2.4961 0.9188
-10.7642 -16.5437 -2.3445 0.9236
-10.1657 -16.9208 -2.3448 0.9236
-8.9442 -17.6376 -2.3491 0.9234
-8.3358 -18.0101 -2.3574 0.9232
-7.7128 -18.3632 -2.3659 0.9229
-7.0758 -18.6961 -2.3746 0.9226
-5.7618 -19.2994 -2.3925 0.9221
-4.3988 -19.8153 -2.4111 0.9215
-3.7006 -20.0390 -2.4206 0.9212
-2.9921 -20.2392 -2.4303 0.9209
-0.8128 -20.6937 -2.4600 0.9200
-0.0711 -20.7947 -2.4701 0.9196
0.6769 -20.8699 -2.4803 0.9193
0.7644 -11.1807 -1.3312 0.9559
4.3780 -20.3789 -2.4760 0.9195
5.0943 -20.1653 -2.4706 0.9196
7.1705 -19.3448 -2.4507 0.9203
7.8367 -19.0213 -2.4437 0.9205
8.4870 -18.6706 -2.4362 0.9207
9.1251 -18.3035 -2.4294 0.9209
10.3545 -17.5049 -2.4159 0.9213
10.9488 -17.0817 -2.4101 0.9215
11.5258 -16.6381 -2.4043 0.9217
12.6320 -15.7006 -2.3937 0.9220
13.6751 -14.7031 -2.3852 0.9223
14.1540 -14.1645 -2.3786 0.9225
15.1521 -13.1318 -2.3817 0.9224
15.5854 -12.5583 -2.3775 0.9225
16.3261 -11.3276 -2.3604 0.9231
17.0744 -10.1169 -2.3575 0.9232
18.9044 -9.4421 -2.5101 0.9184
19.2321 -8.7592 -2.5102 0.9184
19.5342 -8.0649 -2.5104 0.9184
20.2895 -5.9230 -2.5107 0.9184
20.6629 -4.4550 -2.5109 0.9184
20.8099 -3.7119 -2.5109 0.9184
21.1279 -0.7009 -2.5111 0.9184
21.1238 0.8140 -2.5111 0.9184
20.6387 4.5656 -2.5109 0.9184
18.5805 7.0163 -2.3592 0.9231
18.0555 8.3406 -2.3625 0.9230
17.7442 8.9818 -2.3624 0.9230
-10.4667 -12.8287 -2.3459 0.9353
-8.5281 -14.1950 -2.3463 0.9353
-8.0286 -14.5180 -2.3506 0.9352
-7.5247 -14.8384 -2.3573 0.9350
-7.0076 -15.1405 -2.3639 0.9348
-5.9343 -15.6801 -2.3755 0.9345
-3.6591 -16.4830 -2.3923 0.9341
-1.8744 -16.8274 -2.3990 0.9339
-0.0579 -16.9442 -2.4008 0.9338
0.7539 -11.0278 -1.5662 0.9563
1.7589 -16.8357 -2.3984 0.9339
4.7145 -16.1945 -2.3898 0.9341
5.8507 -15.7842 -2.3851 0.9343
6.4054 -15.5472 -2.3825 0.9343
8.0173 -14.7343 -2.3767 0.9345
9.5347 -13.7638 -2.3724 0.9346
10.0282 -13.4219 -2.3739 0.9346
11.3824 -12.2381 -2.3681 0.9347
11.7712 -11.7799 -2.3596 0.9349
12.1807 -11.3459 -2.3586 0.9350
12.5740 -10.8974 -2.3576 0.9350
15.8400 -7.9116 -2.5087 0.9310
16.1141 -7.3393 -2.5089 0.9310
16.9999 -4.9626 -2.5092 0.9310
17.1673 -4.3505 -2.5093 0.9310
17.4357 -3.1100 -2.5094 0.9309
17.5362 -2.4833 -2.5095 0.9309
17.6142 -1.8534 -2.5095 0.9309
17.6694 -1.2211 -2.5095 0.9309
17.7019 -0.5872 -2.5096 0.9309
17.6039 1.9477 -2.5095 0.9309
17.5226 2.5772 -2.5095 0.9309
17.4187 3.2034 -2.5094 0.9309
17.2923 3.8253 -2.5094 0.9310
16.7805 5.6583 -2.5091 0.9310
16.4095 6.1965 -2.4853 0.9316
15.3368 6.4283 -2.3562 0.9350
15.1053 6.9778 -2.3576 0.9350
14.8540 7.5188 -2.3589 0.9350
-9.0045 -11.0366 -2.3465 0.9439
-8.6087 -11.3593 -2.3480 0.9439
-8.2013 -11.6677 -2.3495 0.9438
-7.7825 -11.9612 -2.3509 0.9438
-6.4595 -12.7379 -2.3528 0.9437
-5.5311 -13.1689 -2.3530 0.9437
-4.5747 -13.5337 -2.3534 0.9437
-2.5959 -14.0570 -2.3549 0.9437
-2.0909 -14.1438 -2.3554 0.9437
-1.5831 -14.2129 -2.3559 0.9437
-0.5621 -14.3085 -2.3590 0.9436
0.4646 -14.3227 -2.3607 0.9436
0.7493 -10.9598 -1.8097 0.9564
1.9989 -14.1910 -2.3609 0.9436
2.5071 -14.1157 -2.3618 0.9435
3.0124 -14.0223 -2.3627 0.9435
4.5055 -13.6355 -2.3658 0.9434
4.9934 -13.4715 -2.3668 0.9434
5.9511 -13.0918 -2.3691 0.9434
6.4196 -12.8766 -2.3703 0.9433
6.8782 -12.6406 -2.3707 0.9433
8.9674 -11.1458 -2.3566 0.9437
10.1019 -10.1094 -2.3544 0.9437
11.1969 -9.7040 -2.4409 0.9417
11.8496 -9.5481 -2.5070 0.9402
12.5044 -8.6760 -2.5072 0.9402
12.8079 -8.2228 -2.5074 0.9402
13.6183 -6.8019 -2.5077 0.9402
13.8539 -6.3098 -2.5078 0.9402
14.0716 -5.8096 -2.5079 0.9402
14.4525 -4.7873 -2.5081 0.9401
14.6152 -4.2665 -2.5082 0.9401
14.7590 -3.7402 -2.5082 0.9401
15.0760 -2.1349 -2.5084 0.9401
15.1429 -1.5934 -2.5084 0.9401
15.1905 -1.0498 -2.5084 0.9401
15.2184 -0.5048 -2.5085 0.9401
15.2268 0.0408 -2.5085 0.9401
15.2155 0.5864 -2.5085 0.9401
15.1846 1.1312 -2.5084 0.9401
15.0643 2.2157 -2.5084 0.9401
14.8664 3.2887 -2.5083 0.9401
14.2425 5.3782 -2.5080 0.9401
12.7552 6.4564 -2.3551 0.9437
-8.0635 -9.8833 -2.3975 0.9494
-7.5386 -9.9473 -2.3460 0.9505
-7.1804 -10.2153 -2.3470 0.9504
-6.4350 -10.7110 -2.3486 0.9504
-6.0491 -10.9383 -2.3494 0.9504
-5.6550 -11.1516 -2.3502 0.9504
-4.0083 -11.8583 -2.3528 0.9503
-3.1546 -12.1371 -2.3571 0.9502
-2.7180 -12.2463 -2.3578 0.9502
-1.8361 -12.4168 -2.3592 0.9502
-0.9427 -12.5232 -2.3605 0.9502
-0.4932 -12.5521 -2.3611 0.9502
0.7469 -10.9253 -2.0583 0.9564
2.1998 -12.3850 -2.3643 0.9501
2.6427 -12.3000 -2.3647 0.9501
3.5099 -12.0568 -2.3603 0.9502
4.3569 -11.7542 -2.3562 0.9503
6.3776 -10.7817 -2.3545 0.9503
6.7584 -10.5441 -2.3541 0.9503
7.4929 -10.0286 -2.3530 0.9503
7.8466 -9.7528 -2.3528 0.9503
8.4018 -9.7089 -2.4133 0.9491
9.0172 -9.6950 -2.4886 0.9475
9.4236 -9.4306 -2.5059 0.9472
10.6766 -7.9894 -2.5064 0.9472
10.9565 -7.6020 -2.5066 0.9472
11.2224 -7.2049 -2.5067 0.9472
12.5042 -4.6454 -2.5072 0.9472
12.6630 -4.1945 -2.5073 0.9472
12.8055 -3.7382 -2.5074 0.9472
13.3411 0.0357 -2.5076 0.9471
13.3313 0.5137 -2.5076 0.9471
13.3042 0.9911 -2.5076 0.9471
13.2601 1.4671 -2.5076 0.9471
13.1988 1.9413 -2.5076 0.9471
13.1206 2.4129 -2.5075 0.9472
12.7852 3.8067 -2.5074 0.9472
12.6402 4.2623 -2.5073 0.9472
12.4790 4.7123 -2.5072 0.9472
12.3018 5.1563 -2.5072 0.9472
12.1087 5.5935 -2.5071 0.9472
-7.4718 -9.1580 -2.4984 0.9528
-7.1393 -9.4204 -2.4985 0.9528
-4.6652 -10.0795 -2.3477 0.9556
-4.3021 -10.2428 -2.3483 0.9556
-3.9333 -10.3929 -2.3489 0.9556
-3.5592 -10.5295 -2.3494 0.9556
-3.1803 -10.6525 -2.3499 0.9556
-2.0199 -10.9382 -2.3512 0.9555
-1.2317 -11.0579 -2.3519 0.9555
-0.8348 -11.0963 -2.3522 0.9555
0.7408 -10.8362 -2.2959 0.9566
1.1328 -10.8426 -2.3044 0.9564
1.5527 -11.0229 -2.3530 0.9555
2.3381 -10.8833 -2.3530 0.9555
3.1112 -10.6871 -2.3528 0.9555
4.2391 -10.2891 -2.3523 0.9555
6.2202 -9.7045 -2.4365 0.9540
7.7552 -8.9617 -2.5051 0.9527
8.0718 -8.6785 -2.5053 0.9527
8.3780 -8.3842 -2.5054 0.9527
9.2307 -7.4379 -2.5058 0.9527
9.7406 -6.7583 -2.5060 0.9527
10.2004 -6.0439 -2.5062 0.9527
10.7912 -4.9149 -2.5065 0.9527
10.9607 -4.5252 -2.5066 0.9527
11.1161 -4.1297 -2.5066 0.9527
11.2572 -3.7289 -2.5067 0.9527
11.4958 -2.9133 -2.5068 0.9527
11.6753 -2.0825 -2.5069 0.9527
11.7947 -1.2410 -2.5069 0.9527
11.8317 -0.8177 -2.5069 0.9527
11.8534 -0.3932 -2.5070 0.9527
11.8599 0.0318 -2.5070 0.9527
11.7879 1.3042 -2.5069 0.9527
11.7335 1.7258 -2.5069 0.9527
11.6640 2.1451 -2.5069 0.9527
11.5794 2.5616 -2.5068 0.9527
11.3658 3.3841 -2.5067 0.9527
11.2370 3.7891 -2.5067 0.9527
10.9362 4.5839 -2.5065 0.9527
10.5792 5.3550 -2.5064 0.9527
-6.4219 -8.4738 -2.4988 0.9573
-5.4764 -9.1156 -2.4993 0.9572
-5.1466 -9.3065 -2.4994 0.9572
-4.4675 -9.6523 -2.4997 0.9572
-4.0729 -9.6971 -2.4719 0.9577
-3.2818 -9.7089 -2.4087 0.9588
-1.1064 -9.9331 -2.3489 0.9598
-0.3923 -9.9888 -2.3494 0.9598
-0.0342 -9.9972 -2.3496 0.9598
0.3241 -9.9927 -2.3497 0.9598
1.0390 -9.9446 -2.3499 0.9597
1.7486 -9.8453 -2.3501 0.9597
2.8282 -9.7150 -2.3780 0.9593
3.9959 -9.6990 -2.4654 0.9578
4.4057 -9.6922 -2.5022 0.9572
4.7533 -9.5343 -2.5038 0.9572
5.4245 -9.1705 -2.5041 0.9572
5.7499 -8.9707 -2.5043 0.9572
6.0695 -8.7595 -2.5044 0.9572
6.3783 -8.5369 -2.5045 0.9572
7.2587 -7.8043 -2.5049 0.9572
7.5341 -7.5396 -2.5050 0.9571
7.7998 -7.2652 -2.5052 0.9571
8.3007 -6.6886 -2.5054 0.9571
8.7592 -6.0774 -2.5056 0.9571
8.9716 -5.7599 -2.5057 0.9571
10.3372 -2.6196 -2.5063 0.9571
10.4986 -1.8727 -2.5064 0.9571
10.6646 0.0285 -2.5064 0.9571
10.6567 0.4107 -2.5064 0.9571
10.5509 1.5518 -2.5064 0.9571
10.4884 1.9288 -2.5064 0.9571
10.4124 2.3034 -2.5063 0.9571
10.3230 2.6750 -2.5063 0.9571
10.2204 3.0431 -2.5062 0.9571
9.9757 3.7670 -2.5061 0.9571
9.8335 4.1220 -2.5061 0.9571
9.5131 4.8154 -2.5059 0.9571
-6.1015 -7.4784 -2.4990 0.9609
-5.5508 -7.8969 -2.4992 0.9609
-5.2645 -8.0912 -2.4994 0.9609
-4.3666 -8.6108 -2.4998 0.9609
-4.0553 -8.7622 -2.4999 0.9609
-3.4179 -9.0312 -2.5002 0.9609
-3.0923 -9.1483 -2.5003 0.9609
-1.4127 -9.5559 -2.5011 0.9609
-1.0694 -9.6009 -2.5012 0.9609
-0.0330 -9.6620 -2.5017 0.9609
2.0301 -9.4500 -2.5026 0.9608
2.3676 -9.3717 -2.5027 0.9608
2.7020 -9.2815 -2.5029 0.9608
4.6218 -8.4941 -2.5038 0.9608
4.9235 -8.3234 -2.5039 0.9608
5.5075 -7.9503 -2.5041 0.9608
6.0633 -7.5362 -2.5044 0.9608
6.5881 -7.0833 -2.5046 0.9608
6.8379 -6.8430 -2.5047 0.9608
7.0790 -6.5938 -2.5048 0.9608
7.3110 -6.3362 -2.5049 0.9608
7.5337 -6.0704 -2.5050 0.9608
7.7466 -5.7968 -2.5051 0.9608
8.1425 -5.2275 -2.5053 0.9608
8.3248 -4.9326 -2.5054 0.9608
8.4965 -4.6313 -2.5055 0.9608
8.6572 -4.3240 -2.5055 0.9608
9.1870 -3.0431 -2.5058 0.9608
9.2903 -2.7120 -2.5058 0.9608
9.3817 -2.3774 -2.5059 0.9608
9.5281 -1.6995 -2.5059 0.9608
9.6255 -1.0128 -2.5060 0.9608
9.6556 -0.6673 -2.5060 0.9608
9.6787 0.0259 -2.5060 0.9608
9.6519 0.7190 -2.5060 0.9608
9.5755 1.4084 -2.5059 0.9608
9.5188 1.7505 -2.5059 0.9608
9.2756 2.7618 -2.5058 0.9608
9.1705 3.0923 -2.5058 0.9608
8.7851 4.0582 -2.5056 0.9608
-4.8153 -7.4008 -2.4996 0.9640
-4.5473 -7.5689 -2.4997 0.9640
-3.9940 -7.8759 -2.4999 0.9640
-3.7094 -8.0144 -2.5001 0.9640
-2.8284 -8.3675 -2.5004 0.9639
-2.5269 -8.4639 -2.5006 0.9639
-1.2921 -8.7400 -2.5011 0.9639
-0.9774 -8.7812 -2.5013 0.9639
-0.6629 -8.8111 -2.5014 0.9639
0.2865 -8.8328 -2.5018 0.9639
0.6028 -8.8174 -2.5020 0.9639
1.8567 -8.6428 -2.5025 0.9639
2.1653 -8.5711 -2.5027 0.9639
2.4712 -8.4885 -2.5028 0.9639
3.0731 -8.2906 -2.5031 0.9639
4.2268 -7.7681 -2.5036 0.9639
4.5027 -7.6121 -2.5037 0.9639
4.7728 -7.4462 -2.5038 0.9639
5.2943 -7.0859 -2.5040 0.9639
5.5450 -6.8920 -2.5042 0.9639
6.0249 -6.4777 -2.5044 0.9639
6.2533 -6.2580 -2.5045 0.9639
6.6860 -5.7945 -2.5047 0.9639
7.7699 -4.2352 -2.5051 0.9639
7.9169 -3.9542 -2.5052 0.9639
8.2960 -3.0820 -2.5054 0.9639
8.4013 -2.7829 -2.5054 0.9639
8.7633 -1.2410 -2.5056 0.9639
8.8022 -0.9262 -2.5056 0.9639
8.8460 -0.2935 -2.5056 0.9639
8.8509 0.0237 -2.5056 0.9639
8.8264 0.6575 -2.5056 0.9639
8.7971 0.9733 -2.5056 0.9639
8.7047 1.6008 -2.5056 0.9639
8.5675 2.2201 -2.5055 0.9639
8.4823 2.5256 -2.5055 0.9639
8.0338 3.7112 -2.5053 0.9639
-5.1371 -6.2964 -2.4994 0.9666
-4.9084 -6.4767 -2.4995 0.9666
-4.6733 -6.6487 -2.4996 0.9666
-3.6762 -7.2494 -2.5001 0.9666
-3.4143 -7.3768 -2.5002 0.9666
-3.1479 -7.4947 -2.5003 0.9666
-2.8775 -7.6031 -2.5004 0.9666
-2.3258 -7.7904 -2.5007 0.9665
-2.0453 -7.8691 -2.5008 0.9665
-1.4766 -7.9962 -2.5010 0.9665
-1.1892 -8.0444 -2.5012 0.9665
-0.9003 -8.0822 -2.5013 0.9665
0.2637 -8.1296 -2.5018 0.9665
0.5548 -8.1154 -2.5019 0.9665
0.8453 -8.0907 -2.5021 0.9665
1.7089 -7.9545 -2.5025 0.9665
1.9929 -7.8886 -2.5026 0.9665
2.2744 -7.8125 -2.5027 0.9665
2.5530 -7.7264 -2.5028 0.9665
3.3678 -7.4089 -2.5032 0.9665
4.1440 -7.0057 -2.5035 0.9665
5.5448 -5.9616 -2.5042 0.9665
5.7550 -5.7593 -2.5043 0.9665
6.8527 -4.3995 -2.5047 0.9665
7.2858 -3.6390 -2.5049 0.9665
7.4116 -3.3757 -2.5050 0.9665
7.8185 -2.2824 -2.5052 0.9665
8.0185 -1.4303 -2.5053 0.9665
8.0647 -1.1421 -2.5053 0.9665
8.1005 -0.8524 -2.5053 0.9665
8.1259 -0.5616 -2.5053 0.9665
8.1408 -0.2701 -2.5053 0.9665
8.1452 0.0218 -2.5053 0.9665
8.0107 1.4732 -2.5053 0.9665
7.9527 1.7592 -2.5052 0.9665
7.8845 2.0431 -2.5052 0.9665
7.8061 2.3242 -2.5052 0.9665
7.7177 2.6024 -2.5051 0.9665
7.6194 2.8772 -2.5051 0.9665
7.3935 3.4154 -2.5050 0.9665
-4.7537 -5.8265 -2.4996 0.9688
-4.5421 -5.9933 -2.4997 0.9688
-3.1594 -6.8261 -2.5003 0.9688
-2.9129 -6.9353 -2.5004 0.9688
-2.6627 -7.0355 -2.5005 0.9688
-2.4090 -7.1267 -2.5006 0.9688
-2.1522 -7.2088 -2.5007 0.9688
-1.8926 -7.2816 -2.5009 0.9688
-1.6305 -7.3451 -2.5010 0.9688
-1.3664 -7.3991 -2.5011 0.9688
-1.1004 -7.4437 -2.5012 0.9688
-0.8331 -7.4787 -2.5013 0.9688
-0.5646 -7.5041 -2.5014 0.9688
-0.2953 -7.5198 -2.5016 0.9688
0.7821 -7.4863 -2.5020 0.9688
1.8440 -7.2992 -2.5025 0.9688
2.1044 -7.2288 -2.5026 0.9688
2.3622 -7.1491 -2.5027 0.9688
2.6170 -7.0601 -2.5029 0.9688
2.8684 -6.9622 -2.5030 0.9688
3.1161 -6.8552 -2.5031 0.9688
3.3599 -6.7394 -2.5032 0.9688
3.5994 -6.6150 -2.5033 0.9688
3.8343 -6.4821 -2.5034 0.9688
4.2890 -6.1913 -2.5036 0.9688
4.7217 -5.8687 -2.5038 0.9687
5.6931 -4.9340 -2.5042 0.9687
5.8664 -4.7270 -2.5043 0.9687
6.0322 -4.5139 -2.5044 0.9687
6.3403 -4.0705 -2.5045 0.9687
6.6159 -3.6062 -2.5046 0.9687
7.0638 -2.6242 -2.5048 0.9687
7.1534 -2.3695 -2.5049 0.9687
7.2338 -2.1117 -2.5049 0.9687
7.3049 -1.8512 -2.5049 0.9687
7.3667 -1.5883 -2.5050 0.9687
7.4616 -1.0566 -2.5050 0.9687
7.4947 -0.7886 -2.5050 0.9687
7.5181 -0.5196 -2.5050 0.9687
7.5319 -0.2499 -2.5050 0.9687
7.5305 0.2902 -2.5050 0.9687
7.5152 0.5598 -2.5050 0.9687
7.4903 0.8287 -2.5050 0.9687
7.4116 1.3630 -2.5050 0.9687
7.3580 1.6277 -2.5050 0.9687
7.2948 1.8903 -2.5049 0.9687
7.2223 2.1504 -2.5049 0.9687
7.1405 2.4078 -2.5049 0.9687
6.8406 3.1599 -2.5047 0.9687
-3.6004 -5.9928 -2.5001 0.9707
-3.3835 -6.1182 -2.5002 0.9707
-2.4751 -6.5399 -2.5006 0.9707
-2.0006 -6.7009 -2.5008 0.9707
-1.7592 -6.7686 -2.5009 0.9707
-1.2701 -6.8778 -2.5011 0.9707
-0.7744 -6.9517 -2.5014 0.9707
-0.5248 -6.9753 -2.5015 0.9707
-0.0239 -6.9956 -2.5017 0.9707
0.2268 -6.9923 -2.5018 0.9707
0.7270 -6.9587 -2.5020 0.9707
0.9759 -6.9285 -2.5021 0.9707
1.4697 -6.8414 -2.5024 0.9707
1.7140 -6.7846 -2.5025 0.9707
2.4325 -6.5624 -2.5028 0.9707
2.6661 -6.4713 -2.5029 0.9707
3.1230 -6.2642 -2.5031 0.9707
3.9865 -5.7547 -2.5035 0.9707
5.2915 -4.5860 -2.5040 0.9707
5.4526 -4.3936 -2.5041 0.9707
5.7535 -3.9920 -2.5043 0.9707
5.8930 -3.7834 -2.5043 0.9707
6.1491 -3.3518 -2.5044 0.9707
6.3736 -2.9029 -2.5045 0.9707
6.4737 -2.6727 -2.5046 0.9707
6.5654 -2.4391 -2.5046 0.9707
6.7234 -1.9627 -2.5047 0.9707
6.7894 -1.7206 -2.5047 0.9707
6.8468 -1.4762 -2.5047 0.9707
6.8954 -1.2300 -2.5048 0.9707
6.9658 -0.7330 -2.5048 0.9707
6.9877 -0.4829 -2.5048 0.9707
7.0005 -0.2322 -2.5048 0.9707
7.0043 0.0188 -2.5048 0.9707
6.9991 0.2697 -2.5048 0.9707
6.9850 0.5204 -2.5048 0.9707
6.9618 0.7703 -2.5048 0.9707
6.9297 1.0192 -2.5048 0.9707
6.8887 1.2668 -2.5048 0.9707
6.8388 1.5129 -2.5047 0.9707
6.7801 1.7569 -2.5047 0.9707
6.6367 2.2379 -2.5046 0.9707
6.4592 2.7074 -2.5046 0.9707
6.3580 2.9370 -2.5045 0.9707
-4.1239 -5.0545 -2.4999 0.9724
-3.9402 -5.1992 -2.4999 0.9724
-3.7515 -5.3372 -2.5000 0.9724
-2.5268 -6.0161 -2.5006 0.9724
-2.3098 -6.1030 -2.5007 0.9724
-2.0897 -6.1821 -2.5008 0.9724
-1.8669 -6.2532 -2.5009 0.9724
-1.6417 -6.3164 -2.5010 0.9724
-0.7226 -6.4872 -2.5014 0.9724
-0.0223 -6.5281 -2.5017 0.9724
0.2116 -6.5250 -2.5018 0.9724
0.4453 -6.5134 -2.5019 0.9724
0.6784 -6.4936 -2.5020 0.9724
0.9107 -6.4654 -2.5021 0.9724
1.1418 -6.4289 -2.5022 0.9724
1.3715 -6.3841 -2.5023 0.9724
1.5994 -6.3311 -2.5024 0.9724
1.8253 -6.2700 -2.5025 0.9724
2.0489 -6.2008 -2.5026 0.9724
2.2698 -6.1236 -2.5027 0.9724
2.7028 -5.9458 -2.5029 0.9724
2.9142 -5.8453 -2.5030 0.9724
3.1219 -5.7374 -2.5031 0.9724
3.7199 -5.3698 -2.5033 0.9724
4.0952 -5.0900 -2.5035 0.9724
4.2751 -4.9401 -2.5036 0.9724
5.0878 -4.0997 -2.5040 0.9724
5.4988 -3.5303 -2.5041 0.9724
5.7377 -3.1276 -2.5042 0.9724
5.8462 -2.9200 -2.5043 0.9724
5.9472 -2.7087 -2.5043 0.9724
6.0405 -2.4939 -2.5044 0.9724
6.3887 -1.3774 -2.5045 0.9724
6.4340 -1.1476 -2.5046 0.9724
6.4711 -0.9164 -2.5046 0.9724
6.4998 -0.6839 -2.5046 0.9724
6.5201 -0.4506 -2.5046 0.9724
6.5357 0.0175 -2.5046 0.9724
6.3812 1.4117 -2.5045 0.9724
6.3265 1.6393 -2.5045 0.9724
6.2636 1.8650 -2.5045 0.9724
6.1138 2.3087 -2.5044 0.9724
6.0271 2.5262 -2.5044 0.9724
5.8305 2.9513 -2.5043 0.9724
-3.8615 -4.7329 -2.5000 0.9739
-3.6895 -4.8684 -2.5001 0.9739
-3.5128 -4.9976 -2.5001 0.9739
-3.1461 -5.2367 -2.5003 0.9739
-2.9566 -5.3462 -2.5004 0.9739
-2.1628 -5.7146 -2.5007 0.9739
-1.9567 -5.7886 -2.5008 0.9739
-1.7481 -5.8553 -2.5009 0.9739
-1.5372 -5.9143 -2.5010 0.9739
-1.3244 -5.9659 -2.5011 0.9739
-1.1098 -6.0097 -2.5012 0.9739
-0.4585 -6.0948 -2.5015 0.9739
0.4170 -6.0987 -2.5019 0.9739
0.8527 -6.0537 -2.5021 0.9739
1.0691 -6.0195 -2.5022 0.9739
1.4976 -5.9279 -2.5024 0.9739
2.3294 -5.6540 -2.5027 0.9739
2.5306 -5.5671 -2.5028 0.9739
2.7286 -5.4730 -2.5029 0.9739
2.9230 -5.3719 -2.5030 0.9739
3.4829 -5.0277 -2.5032 0.9739
3.6609 -4.8999 -2.5033 0.9739
4.0026 -4.6254 -2.5035 0.9739
4.4763 -4.1695 -2.5037 0.9739
4.6229 -4.0066 -2.5037 0.9739
4.8987 -3.6653 -2.5039 0.9739
5.0266 -3.4876 -2.5039 0.9739
5.1484 -3.3053 -2.5040 0.9739
5.4737 -2.7339 -2.5041 0.9739
5.6556 -2.3350 -2.5042 0.9739
5.7357 -2.1308 -2.5042 0.9739
6.0240 -1.0745 -2.5044 0.9739
6.0586 -0.8580 -2.5044 0.9739
6.0855 -0.6403 -2.5044 0.9739
6.1158 -0.2029 -2.5044 0.9739
6.1191 0.0164 -2.5044 0.9739
6.1146 0.2357 -2.5044 0.9739
6.0820 0.6729 -2.5044 0.9739
6.0181 1.1068 -2.5044 0.9739
5.9745 1.3217 -2.5043 0.9739
5.9233 1.5349 -2.5043 0.9739
5.8644 1.7461 -2.5043 0.9739
5.7980 1.9551 -2.5043 0.9739
5.6430 2.3652 -2.5042 0.9739
5.5545 2.5659 -2.5042 0.9739
5.4589 2.7632 -2.5041 0.9739
-3.6265 -4.4449 -2.5001 0.9753
-3.4650 -4.5721 -2.5002 0.9753
-2.9546 -4.9179 -2.5004 0.9753
-2.4101 -5.2071 -2.5006 0.9753
-2.0311 -5.3667 -2.5008 0.9753
-1.2437 -5.6026 -2.5011 0.9753
-1.0422 -5.6438 -2.5012 0.9753
-0.0196 -5.7402 -2.5017 0.9753
0.1861 -5.7374 -2.5018 0.9753
0.5965 -5.7098 -2.5020 0.9753
0.8008 -5.6850 -2.5021 0.9753
1.2059 -5.6134 -2.5022 0.9753
1.6050 -5.5130 -2.5024 0.9753
1.8015 -5.4522 -2.5025 0.9753
1.9958 -5.3843 -2.5026 0.9753
2.5623 -5.1395 -2.5028 0.9753
2.9239 -4.9432 -2.5030 0.9753
3.0993 -4.8354 -2.5031 0.9753
3.9121 -4.2062 -2.5034 0.9752
4.2035 -3.9154 -2.5036 0.9752
4.3412 -3.7624 -2.5036 0.9752
4.7202 -3.2750 -2.5038 0.9752
4.8346 -3.1039 -2.5038 0.9752
4.9428 -2.9287 -2.5039 0.9752
5.0447 -2.7498 -2.5039 0.9752
5.1400 -2.5673 -2.5040 0.9752
5.2288 -2.3815 -2.5040 0.9752
5.4544 -1.8067 -2.5041 0.9752
5.5157 -1.6101 -2.5041 0.9752
5.5699 -1.4115 -2.5042 0.9752
5.7145 -0.6013 -2.5042 0.9752
5.7324 -0.3962 -2.5042 0.9752
5.7461 0.0154 -2.5042 0.9752
5.7418 0.2213 -2.5042 0.9752
5.7302 0.4269 -2.5042 0.9752
5.6849 0.8361 -2.5042 0.9752
5.6512 1.0393 -2.5042 0.9752
5.5622 1.4413 -2.5042 0.9752
5.5069 1.6396 -2.5041 0.9752
5.2159 2.4095 -2.5040 0.9752
5.1262 2.5947 -2.5040 0.9752
-3.4145 -4.1851 -2.5002 0.9765
-3.1062 -4.4191 -2.5003 0.9765
-2.7819 -4.6305 -2.5005 0.9765
-2.6144 -4.7274 -2.5005 0.9765
-2.4433 -4.8182 -2.5006 0.9765
-2.0921 -4.9811 -2.5008 0.9765
-1.9124 -5.0530 -2.5008 0.9765
-1.7302 -5.1184 -2.5009 0.9765
-1.5457 -5.1773 -2.5010 0.9765
-1.1710 -5.2750 -2.5012 0.9765
-0.7903 -5.3457 -2.5013 0.9765
-0.4054 -5.3890 -2.5015 0.9765
-0.2121 -5.4002 -2.5016 0.9765
0.1752 -5.4019 -2.5018 0.9765
0.3687 -5.3924 -2.5019 0.9765
0.5617 -5.3759 -2.5019 0.9765
1.3241 -5.2412 -2.5023 0.9765
1.8790 -5.0694 -2.5025 0.9765
2.0595 -4.9989 -2.5026 0.9765
2.2374 -4.9221 -2.5027 0.9765
2.4124 -4.8389 -2.5028 0.9764
2.7530 -4.6540 -2.5029 0.9764
2.9180 -4.5525 -2.5030 0.9764
3.0793 -4.4451 -2.5031 0.9764
3.2367 -4.3321 -2.5031 0.9764
3.3900 -4.2134 -2.5032 0.9764
3.5388 -4.0894 -2.5033 0.9764
3.6831 -3.9600 -2.5033 0.9764
3.8228 -3.8256 -2.5034 0.9764
4.2115 -3.3935 -2.5036 0.9764
4.4439 -3.0834 -2.5037 0.9764
4.5516 -2.9222 -2.5037 0.9764
4.6535 -2.7573 -2.5038 0.9764
4.8392 -2.4170 -2.5038 0.9764
4.9228 -2.2421 -2.5039 0.9764
5.0000 -2.0643 -2.5039 0.9764
5.0708 -1.8839 -2.5039 0.9764
5.1351 -1.7010 -2.5040 0.9764
5.1928 -1.5159 -2.5040 0.9764
5.2439 -1.3289 -2.5040 0.9764
5.2881 -1.1401 -2.5040 0.9764
5.3969 -0.3730 -2.5041 0.9764
5.4097 0.0145 -2.5041 0.9764
5.3948 0.4019 -2.5041 0.9764
5.3769 0.5949 -2.5041 0.9764
5.3521 0.7872 -2.5041 0.9764
5.2819 1.1684 -2.5040 0.9764
5.1846 1.5437 -2.5040 0.9764
5.1259 1.7284 -2.5040 0.9764
5.0606 1.9110 -2.5039 0.9764
4.9888 2.0911 -2.5039 0.9764
4.8261 2.4429 -2.5038 0.9764
-3.2222 -3.9494 -2.5003 0.9775
-3.0787 -4.0625 -2.5003 0.9775
-2.9313 -4.1703 -2.5004 0.9775
-2.7801 -4.2728 -2.5005 0.9775
-2.6252 -4.3697 -2.5005 0.9775
-2.3057 -4.5467 -2.5007 0.9775
-2.1413 -4.6266 -2.5007 0.9775
-1.6326 -4.8301 -2.5010 0.9775
-1.4586 -4.8856 -2.5010 0.9775
-1.1051 -4.9779 -2.5012 0.9775
-0.9260 -5.0144 -2.5013 0.9775
-0.7458 -5.0446 -2.5014 0.9775
-0.5645 -5.0682 -2.5014 0.9775
-0.3826 -5.0853 -2.5015 0.9775
-0.2002 -5.0959 -2.5016 0.9775
-0.0175 -5.1000 -2.5017 0.9775
0.1653 -5.0975 -2.5018 0.9775
0.3479 -5.0885 -2.5019 0.9775
0.7114 -5.0509 -2.5020 0.9775
0.8920 -5.0223 -2.5021 0.9775
1.0714 -4.9872 -2.5022 0.9775
1.9434 -4.7172 -2.5026 0.9775
2.4387 -4.4817 -2.5028 0.9775
2.5977 -4.3916 -2.5029 0.9775
2.7535 -4.2958 -2.5029 0.9775
3.1988 -3.9759 -2.5031 0.9775
3.4755 -3.7368 -2.5032 0.9775
3.7344 -3.4784 -2.5034 0.9775
3.8567 -3.3425 -2.5034 0.9775
3.9741 -3.2022 -2.5035 0.9775
4.0863 -3.0578 -2.5035 0.9775
4.1933 -2.9095 -2.5036 0.9775
4.3911 -2.6018 -2.5036 0.9775
4.4816 -2.4428 -2.5037 0.9775
4.7180 -1.9479 -2.5038 0.9775
4.7849 -1.7776 -2.5038 0.9775
5.0542 -0.7157 -2.5039 0.9775
5.0766 -0.5342 -2.5039 0.9775
5.0925 -0.3519 -2.5040 0.9775
5.1019 -0.1692 -2.5040 0.9775
5.1047 0.0137 -2.5040 0.9775
5.0737 0.5614 -2.5039 0.9775
5.0503 0.7428 -2.5039 0.9775
5.0204 0.9233 -2.5039 0.9775
4.7075 1.9731 -2.5038 0.9775
-2.9111 -3.8413 -2.5004 0.9785
-2.7717 -3.9432 -2.5005 0.9785
-2.6287 -4.0401 -2.5005 0.9785
-2.0248 -4.3747 -2.5008 0.9785
-1.5438 -4.5671 -2.5010 0.9785
-1.3792 -4.6196 -2.5011 0.9785
-1.0448 -4.7068 -2.5012 0.9785
-0.8756 -4.7413 -2.5013 0.9785
-0.5338 -4.7922 -2.5015 0.9785
-0.1893 -4.8184 -2.5016 0.9785
-0.0165 -4.8222 -2.5017 0.9785
0.1563 -4.8199 -2.5018 0.9785
0.3289 -4.8113 -2.5018 0.9785
0.5011 -4.7966 -2.5019 0.9785
1.0130 -4.7156 -2.5021 0.9785
1.1814 -4.6764 -2.5022 0.9785
1.3482 -4.6312 -2.5023 0.9785
1.6766 -4.5230 -2.5024 0.9785
2.1524 -4.3173 -2.5027 0.9785
2.3058 -4.2376 -2.5027 0.9785
2.7472 -3.9660 -2.5029 0.9785
2.8878 -3.8651 -2.5030 0.9785
3.1573 -3.6485 -2.5031 0.9785
3.2861 -3.5331 -2.5032 0.9785
3.4107 -3.4132 -2.5032 0.9785
3.8636 -2.8912 -2.5034 0.9785
4.1518 -2.4600 -2.5035 0.9785
4.2373 -2.3097 -2.5036 0.9785
4.3920 -2.0003 -2.5036 0.9785
4.4609 -1.8417 -2.5037 0.9785
4.5240 -1.6807 -2.5037 0.9785
4.5814 -1.5176 -2.5037 0.9785
4.6329 -1.3525 -2.5038 0.9785
4.6784 -1.1856 -2.5038 0.9785
4.7787 -0.6767 -2.5038 0.9785
4.8149 -0.3328 -2.5038 0.9785
4.8238 -0.1600 -2.5038 0.9785
4.8264 0.0129 -2.5038 0.9785
4.7750 0.7023 -2.5038 0.9785
4.7124 1.0425 -2.5038 0.9785
4.6720 1.2106 -2.5038 0.9785
4.6255 1.3772 -2.5037 0.9785
4.5732 1.5421 -2.5037 0.9785
4.5150 1.7049 -2.5037 0.9785
4.3812 2.0238 -2.5036 0.9785
-2.6254 -3.7351 -2.5005 0.9794
-2.4899 -3.8268 -2.5006 0.9794
-2.3513 -3.9137 -2.5007 0.9794
-2.0651 -4.0723 -2.5008 0.9794
-0.9897 -4.4583 -2.5013 0.9794
-0.8293 -4.4910 -2.5013 0.9794
-0.1792 -4.5639 -2.5016 0.9794
-0.0156 -4.5676 -2.5017 0.9794
0.1481 -4.5653 -2.5018 0.9794
0.3116 -4.5572 -2.5018 0.9794
0.6372 -4.5235 -2.5020 0.9794
0.7989 -4.4979 -2.5021 0.9794
0.9596 -4.4665 -2.5021 0.9794
1.1190 -4.4293 -2.5022 0.9794
1.4334 -4.3381 -2.5023 0.9794
1.7405 -4.2246 -2.5025 0.9794
2.1839 -4.0137 -2.5027 0.9794
2.3264 -3.9329 -2.5027 0.9794
2.4659 -3.8472 -2.5028 0.9794
2.6022 -3.7564 -2.5029 0.9794
2.7352 -3.6609 -2.5029 0.9794
3.1125 -3.3464 -2.5031 0.9794
3.2304 -3.2329 -2.5031 0.9794
3.6594 -2.7384 -2.5033 0.9794
3.8463 -2.4693 -2.5034 0.9794
3.9324 -2.3300 -2.5034 0.9794
4.1598 -1.8946 -2.5035 0.9794
4.2850 -1.5919 -2.5036 0.9794
4.3880 -1.2809 -2.5036 0.9794
4.4686 -0.9634 -2.5037 0.9794
4.5002 -0.8027 -2.5037 0.9794
4.5261 -0.6410 -2.5037 0.9794
4.5604 -0.3152 -2.5037 0.9794
4.5587 0.3396 -2.5037 0.9794
4.5436 0.5027 -2.5037 0.9794
4.4959 0.8268 -2.5037 0.9794
4.3315 1.4606 -2.5036 0.9794
4.2763 1.6148 -2.5036 0.9794
4.2157 1.7670 -2.5036 0.9794
-2.7379 -3.3558 -2.5005 0.9802
-2.4906 -3.5434 -2.5006 0.9802
-2.3621 -3.6304 -2.5006 0.9802
-1.8194 -3.9310 -2.5009 0.9802
-1.3872 -4.1039 -2.5011 0.9802
-1.2393 -4.1511 -2.5011 0.9802
-1.0898 -4.1929 -2.5012 0.9802
-0.6336 -4.2860 -2.5014 0.9802
-0.4796 -4.3061 -2.5015 0.9802
-0.0148 -4.3330 -2.5017 0.9802
0.6044 -4.2912 -2.5020 0.9802
0.7578 -4.2669 -2.5020 0.9802
1.0617 -4.2019 -2.5022 0.9802
1.2117 -4.1612 -2.5022 0.9802
1.3598 -4.1153 -2.5023 0.9802
1.6511 -4.0075 -2.5024 0.9802
1.7937 -3.9459 -2.5025 0.9802
1.9340 -3.8792 -2.5026 0.9802
2.0718 -3.8075 -2.5026 0.9802
2.2069 -3.7309 -2.5027 0.9802
2.3392 -3.6495 -2.5027 0.9802
2.4685 -3.5635 -2.5028 0.9802
2.8369 -3.2782 -2.5030 0.9802
3.1724 -2.9550 -2.5031 0.9802
3.7303 -2.2103 -2.5034 0.9802
4.0647 -1.5101 -2.5035 0.9802
4.1163 -1.3635 -2.5035 0.9802
4.1625 -1.2152 -2.5035 0.9802
4.2034 -1.0652 -2.5036 0.9802
4.2389 -0.9139 -2.5036 0.9802
4.3332 0.1670 -2.5036 0.9802
4.2902 0.6310 -2.5036 0.9802
4.2648 0.7843 -2.5036 0.9802
4.1977 1.0877 -2.5036 0.9802
4.1089 1.3855 -2.5035 0.9802
4.0566 1.5318 -2.5035 0.9802
3.9364 1.8184 -2.5034 0.9802
