ply
format ascii 1.0
element vertex 982
property float32 x
property float32 y
property float32 z
property float32 I
end_header
43.1691 16.8132 8.1688 0.8285
43.5115 18.7640 8.3553 0.8249
43.8966 20.8210 8.5667 0.8209
12.9488 11.5618 3.0609 0.9319
11.1907 11.5308 2.8333 0.9368
9.1182 11.6715 2.6116 0.9416
8.4754 11.6868 2.5456 0.9430
7.8635 11.7014 2.4859 0.9443
7.2790 11.7153 2.4320 0.9455
5.1992 11.8662 2.2844 0.9487
4.7059 11.8779 2.2528 0.9494
4.2253 11.8893 2.2249 0.9500
3.7560 11.9004 2.2004 0.9506
1.0946 11.9635 2.1183 0.9524
0.6651 11.9737 2.1145 0.9525
0.2366 11.9838 2.1135 0.9525
-0.1920 11.9939 2.1151 0.9524
-0.6218 12.0040 2.1195 0.9524
-1.9298 12.0349 2.1492 0.9517
-14.4175 41.0542 7.6724 0.8380
-13.3864 28.0718 5.4838 0.8813
47.2134 14.5999 7.5708 0.8187
42.1948 14.7197 6.8460 0.8346
41.1828 16.0397 6.7706 0.8362
41.1636 17.7516 6.8674 0.8341
41.3586 19.6172 7.0125 0.8309
41.6990 21.6370 7.1968 0.8269
12.0937 11.6012 2.5673 0.9344
11.2780 11.6207 2.4808 0.9366
9.1186 11.6721 2.2691 0.9418
7.8639 11.7019 2.1599 0.9445
6.7761 11.8292 2.0884 0.9463
3.5007 9.8503 1.6015 0.9586
2.3568 9.8774 1.5556 0.9597
1.9575 9.7329 1.5209 0.9606
1.2674 9.9272 1.5331 0.9603
0.9133 9.9824 1.5356 0.9602
0.1985 10.0545 1.5406 0.9601
-0.1612 10.0712 1.5430 0.9601
-0.5218 10.0749 1.5455 0.9600
-0.8830 10.0656 1.5479 0.9599
-1.2441 10.0432 1.5503 0.9599
-1.6047 10.0076 1.5527 0.9598
-1.9684 9.9796 1.5583 0.9597
-12.9167 47.3647 7.5210 0.8198
-13.0513 41.8973 6.7226 0.8373
-13.3911 28.0815 4.7660 0.8817
47.2189 14.6016 6.4362 0.8192
42.1992 14.7213 5.8200 0.8350
41.5044 17.8984 5.8859 0.8333
41.5929 21.5819 6.1020 0.8278
16.0635 11.5074 2.5732 0.9234
14.9423 11.5341 2.4581 0.9267
9.7970 11.6565 1.9828 0.9404
9.1190 11.6726 1.9289 0.9420
6.5708 9.7778 1.5341 0.9536
6.0824 9.7894 1.5008 0.9546
5.0257 10.4384 1.5086 0.9543
4.6581 10.6312 1.5115 0.9543
3.9016 10.9783 1.5172 0.9541
3.5134 11.1319 1.5201 0.9540
2.7196 11.3981 1.5259 0.9538
1.9058 11.6077 1.5318 0.9537
1.4926 11.6908 1.5348 0.9536
0.6562 11.8126 1.5406 0.9534
-1.0416 11.8742 1.5522 0.9531
-1.8941 11.8123 1.5579 0.9529
-2.3191 11.7580 1.5606 0.9528
-2.4059 10.2528 1.3714 0.9584
-13.2556 33.8269 4.7311 0.8637
-13.3311 30.7376 4.3629 0.8736
39.9152 10.7962 4.4402 0.8468
47.2244 14.6033 5.3080 0.8197
42.2036 14.7228 4.7997 0.8354
41.5406 19.7035 4.9370 0.8311
14.9432 11.5348 2.0271 0.9269
10.0026 9.5953 1.4884 0.9458
9.5011 9.7899 1.4649 0.9466
7.2056 9.9359 1.3180 0.9518
7.6882 11.4405 1.4801 0.9461
7.2475 11.6647 1.4746 0.9463
4.2258 11.8907 1.3551 0.9505
2.8195 11.8167 1.3045 0.9523
1.9588 9.7393 1.0668 0.9608
1.9496 11.8747 1.2922 0.9527
1.5174 11.8849 1.2866 0.9529
-0.1920 11.9952 1.2882 0.9529
-1.4778 11.9296 1.2908 0.9528
-1.9145 11.9399 1.2985 0.9525
-3.2066 10.2938 1.1578 0.9576
-14.4192 41.0591 4.6730 0.8394
39.9097 10.7947 3.4999 0.8471
47.2299 14.6050 4.1849 0.8200
41.4485 16.1431 3.7654 0.8365
41.4902 17.8923 3.8249 0.8341
13.7910 9.8795 1.4361 0.9342
13.4586 10.3888 1.4393 0.9340
12.7404 11.3757 1.4459 0.9337
12.0956 11.6031 1.4189 0.9349
9.7979 11.6576 1.2891 0.9407
9.1198 11.6737 1.2540 0.9423
7.2036 9.9332 1.0387 0.9519
5.7089 11.8573 1.1140 0.9485
4.7066 11.8798 1.0817 0.9500
2.8034 10.1304 0.8898 0.9587
1.9595 9.7425 0.8412 0.9609
1.5174 11.8854 1.0143 0.9530
0.6599 11.8795 1.0072 0.9534
0.2367 11.9855 1.0148 0.9530
-0.1920 11.9957 1.0156 0.9530
-0.6219 12.0058 1.0177 0.9529
-1.0541 12.0161 1.0211 0.9527
-1.4897 12.0263 1.0258 0.9525
-2.4061 10.2536 0.8916 0.9586
43.6757 10.1532 2.7806 0.8355
39.9041 10.7933 2.5634 0.8473
47.2353 14.6067 3.0659 0.8202
42.2124 14.7259 2.7723 0.8360
41.4416 16.1404 2.7578 0.8367
41.4832 17.8893 2.8014 0.8344
41.5262 19.6967 2.8500 0.8318
17.2651 10.5885 1.2559 0.9220
16.0664 11.5095 1.2256 0.9238
14.9449 11.5361 1.1707 0.9271
13.8058 11.4671 1.1129 0.9306
12.9350 11.5495 1.0753 0.9329
9.7984 11.6581 0.9444 0.9408
9.1203 11.6742 0.9186 0.9424
7.8496 11.6807 0.8727 0.9452
6.7773 11.8312 0.8455 0.9468
4.2009 11.8205 0.7779 0.9510
2.8035 10.1308 0.6518 0.9587
1.9713 12.0067 0.7545 0.9524
1.5175 11.8858 0.7430 0.9531
0.6599 11.8800 0.7378 0.9534
0.2367 11.9860 0.7434 0.9531
-0.1920 11.9961 0.7440 0.9531
-0.6219 12.0063 0.7455 0.9530
-1.4898 12.0268 0.7515 0.9526
-1.9147 11.9408 0.7499 0.9527
-12.9447 47.4674 3.0510 0.8210
-3.7497 12.0373 0.7818 0.9507
-11.5504 26.6320 1.8001 0.8902
-12.7301 26.6955 1.8340 0.8882
39.8986 10.7918 1.6298 0.8475
41.4347 16.1377 1.7534 0.8369
41.4762 17.8863 1.7810 0.8346
16.0674 11.5102 0.7793 0.9239
14.9458 11.5368 0.7445 0.9272
12.9323 11.5471 0.6836 0.9330
12.0674 11.5760 0.6594 0.9353
10.5170 11.6417 0.6186 0.9391
9.7988 11.6587 0.6005 0.9409
9.1207 11.6748 0.5842 0.9424
7.1997 9.9278 0.4836 0.9521
6.2390 11.8548 0.5282 0.9478
4.7070 11.8807 0.5039 0.9501
3.7568 11.9032 0.4922 0.9513
2.8036 10.1312 0.4145 0.9588
2.8199 11.8181 0.4791 0.9525
1.9608 9.7489 0.3921 0.9610
1.9714 12.0071 0.4798 0.9525
1.0948 11.9662 0.4738 0.9530
0.6599 11.8804 0.4692 0.9535
0.2367 11.9864 0.4727 0.9531
-0.1920 11.9966 0.4731 0.9531
-1.4899 12.0272 0.4779 0.9526
-1.9147 11.9412 0.4769 0.9527
-2.3764 12.0482 0.4842 0.9520
-4.1890 11.9284 0.4985 0.9506
-4.2684 10.8924 0.4613 0.9542
-4.3535 10.0378 0.4314 0.9571
-12.6005 26.4237 1.1543 0.8894
47.2462 14.6101 0.8354 0.8205
41.4278 16.1350 0.7510 0.8371
41.5119 19.6899 0.7761 0.8321
18.5918 9.6470 0.3538 0.9196
18.6037 10.5136 0.3610 0.9181
18.6153 11.4166 0.3689 0.9163
13.8074 11.4684 0.3032 0.9307
12.0648 11.5735 0.2824 0.9353
10.5175 11.6422 0.2650 0.9392
9.7993 11.6592 0.2573 0.9409
7.8451 11.6740 0.2376 0.9453
6.2418 11.8600 0.2264 0.9478
5.7162 11.8726 0.2226 0.9486
4.7071 11.8812 0.2159 0.9502
4.2012 11.8214 0.2119 0.9510
3.7570 11.9036 0.2109 0.9513
2.8037 10.1316 0.1776 0.9588
2.8200 11.8185 0.2052 0.9526
1.9614 9.7520 0.1680 0.9610
1.9715 12.0076 0.2055 0.9525
1.5176 11.8867 0.2024 0.9532
0.2367 11.9869 0.2025 0.9532
-0.1920 11.9970 0.2027 0.9531
-1.0542 12.0174 0.2038 0.9529
-1.9148 11.9417 0.2043 0.9528
-2.3765 12.0486 0.2074 0.9521
-5.8913 21.6031 0.3782 0.9143
-6.4959 20.8533 0.3689 0.9163
-4.6761 10.7817 0.1985 0.9541
39.8876 10.7888 -0.2326 0.8477
47.2516 14.6117 -0.2785 0.8205
42.2256 14.7305 -0.2518 0.8362
39.5066 15.3868 -0.2387 0.8440
39.5459 17.0539 -0.2425 0.8418
39.5866 18.7767 -0.2467 0.8392
18.7278 9.7175 -0.1188 0.9191
39.6726 22.4204 -0.2566 0.8334
13.8081 11.4690 -0.1011 0.9307
12.0622 11.5710 -0.0941 0.9353
9.1254 11.6808 -0.0835 0.9424
7.1989 9.9266 -0.0690 0.9521
7.8429 11.6707 -0.0792 0.9453
6.7781 11.8327 -0.0768 0.9469
5.7186 11.8777 -0.0742 0.9486
5.2009 11.8700 -0.0730 0.9495
4.2014 11.8219 -0.0706 0.9511
3.7571 11.9041 -0.0703 0.9513
2.8038 10.1320 -0.0592 0.9588
1.9620 9.7552 -0.0560 0.9610
1.5176 11.8871 -0.0675 0.9532
0.6600 11.8812 -0.0670 0.9535
0.2367 11.9873 -0.0675 0.9532
-1.9149 11.9421 -0.0681 0.9528
-2.4064 10.2552 -0.0593 0.9587
-5.8916 21.6041 -0.1261 0.9143
-6.2716 20.1332 -0.1187 0.9191
-7.8922 20.1401 -0.1218 0.9171
42.2299 14.7320 -1.2594 0.8361
39.5393 17.0510 -1.2125 0.8417
15.9277 9.7683 -0.5261 0.9280
12.7308 9.8270 -0.4528 0.9377
11.8560 9.8476 -0.4340 0.9402
12.0987 11.6061 -0.4721 0.9351
9.6325 9.9252 -0.3894 0.9462
8.9580 9.9160 -0.3763 0.9479
9.8002 11.6603 -0.4289 0.9409
7.1336 10.6152 -0.3601 0.9501
6.2678 10.0878 -0.3344 0.9536
6.7784 11.8332 -0.3840 0.9469
4.2268 11.8934 -0.3554 0.9507
3.7573 11.9045 -0.3515 0.9513
2.8202 11.8194 -0.3421 0.9525
1.5266 11.9572 -0.3394 0.9529
1.0949 11.9674 -0.3384 0.9530
0.2367 11.9877 -0.3376 0.9532
-2.0270 10.2771 -0.2950 0.9589
-5.8918 21.6050 -0.6306 0.9143
-6.1683 19.8015 -0.5840 0.9204
-6.8186 19.4163 -0.5795 0.9210
-8.4240 19.4232 -0.5961 0.9188
43.4480 10.1003 -2.2622 0.8364
39.8766 10.7858 -2.0950 0.8475
45.7863 14.1586 -2.4305 0.8253
39.5326 17.0481 -2.1833 0.8416
15.9248 9.7665 -0.9474 0.9279
29.1250 19.3275 -1.7727 0.8694
13.6871 9.8050 -0.8538 0.9348
12.7315 9.8275 -0.8157 0.9376
9.6303 9.9229 -0.7013 0.9461
5.2013 11.8709 -0.6573 0.9494
4.0239 10.1566 -0.5540 0.9572
4.2269 11.8939 -0.6401 0.9507
3.7574 11.9050 -0.6331 0.9512
2.8040 10.1327 -0.5332 0.9588
2.8203 11.8198 -0.6163 0.9525
1.9633 9.7615 -0.5050 0.9609
-0.6220 12.0085 -0.6098 0.9530
-1.0543 12.0187 -0.6119 0.9528
-1.4901 12.0290 -0.6147 0.9526
-1.9305 12.0394 -0.6184 0.9523
-2.0271 10.2774 -0.5313 0.9589
-2.4066 10.2559 -0.5342 0.9587
-2.8092 10.3010 -0.5415 0.9581
-6.1714 19.8116 -1.0523 0.9203
-6.6501 18.9363 -1.0178 0.9228
-7.4218 18.9397 -1.0316 0.9218
37.1850 -6.1844 -2.7639 0.8597
37.4964 -3.5091 -2.7613 0.8598
37.5969 -0.8204 -2.7573 0.8600
37.5681 0.5233 -2.7548 0.8601
37.1691 5.8808 -2.7592 0.8599
36.9678 7.2118 -2.7617 0.8598
37.3819 10.1110 -2.8394 0.8561
35.4236 13.7965 -2.7874 0.8586
18.7029 9.7046 -1.5450 0.9190
14.6575 9.7268 -1.2898 0.9319
13.6123 9.7515 -1.2278 0.9350
11.1209 9.9296 -1.0931 0.9420
10.2795 9.8609 -1.0444 0.9445
9.5859 9.8772 -1.0092 0.9463
8.3265 9.9069 -0.9489 0.9494
7.1998 9.9279 -0.8992 0.9520
6.7848 10.0962 -0.8919 0.9524
1.5267 11.9581 -0.8839 0.9528
-0.6220 12.0089 -0.8817 0.9529
-1.0543 12.0191 -0.8847 0.9528
-1.9305 12.0399 -0.8941 0.9523
-2.0272 10.2778 -0.7681 0.9589
-3.2036 10.2841 -0.7898 0.9577
-6.3971 18.2159 -1.4156 0.9255
-7.9032 18.2224 -1.4564 0.9234
-8.6913 18.2259 -1.4805 0.9222
27.9401 -2.6148 -2.6941 0.8934
28.0682 -0.6125 -2.6953 0.8933
27.9996 1.3920 -2.6914 0.8935
27.9079 2.3898 -2.6891 0.8935
27.7783 3.3824 -2.6865 0.8936
27.2234 6.3286 -2.6833 0.8938
26.8052 8.2890 -2.6937 0.8934
26.9459 9.4001 -2.7398 0.8917
26.7326 10.4116 -2.7542 0.8911
26.1752 12.4154 -2.7813 0.8901
18.7146 9.7107 -2.0242 0.9188
15.8167 9.7002 -1.7813 0.9282
12.6627 9.7744 -1.5357 0.9377
8.3014 9.8770 -1.2387 0.9495
4.8435 10.0600 -1.0719 0.9561
3.9936 10.0800 -1.0409 0.9574
3.5910 10.1045 -1.0295 0.9578
2.8042 10.1335 -1.0094 0.9586
2.4700 10.3520 -1.0217 0.9581
1.9646 9.7679 -0.9565 0.9608
1.6691 10.1658 -0.9890 0.9594
0.5661 10.1919 -0.9800 0.9598
-0.1634 10.2091 -0.9803 0.9598
-1.2758 10.2995 -0.9964 0.9592
-1.6392 10.2226 -0.9940 0.9593
-2.4008 10.2311 -1.0089 0.9586
-2.8094 10.3018 -1.0251 0.9580
-3.2121 10.3113 -1.0369 0.9575
-6.2285 17.7359 -1.8047 0.9272
-7.6487 17.6357 -1.8455 0.9257
22.0584 -3.6687 -2.6562 0.9139
22.1700 -2.8773 -2.6556 0.9139
22.3236 -0.4872 -2.6524 0.9140
22.2747 1.1074 -2.6492 0.9141
22.1056 2.6917 -2.6452 0.9142
21.9764 3.4770 -2.6430 0.9143
21.8178 4.2563 -2.6405 0.9144
21.6329 5.0289 -2.6382 0.9144
21.4466 5.8008 -2.6391 0.9144
20.6498 8.0425 -2.6324 0.9146
18.7100 8.8745 -2.4598 0.9200
15.8178 9.7009 -2.2041 0.9280
13.6140 9.7527 -1.9893 0.9348
12.6634 9.7750 -1.9002 0.9376
11.7932 9.7954 -1.8211 0.9401
10.9916 9.8142 -1.7504 0.9424
9.5575 9.8479 -1.6301 0.9462
7.1823 9.9038 -1.4532 0.9519
6.7309 10.0159 -1.4334 0.9526
6.2304 10.0277 -1.4023 0.9536
5.7506 10.0390 -1.3743 0.9545
5.2891 10.0499 -1.3490 0.9553
4.8437 10.0604 -1.3263 0.9560
4.4125 10.0705 -1.3060 0.9567
3.5859 10.0900 -1.2720 0.9578
2.7974 10.1086 -1.2459 0.9586
0.2008 10.1699 -1.2083 0.9599
-0.5277 10.1871 -1.2117 0.9597
-1.6377 10.2134 -1.2287 0.9592
-2.4009 10.2315 -1.2484 0.9586
-2.7936 10.2438 -1.2613 0.9581
-4.2186 12.0124 -1.5123 0.9500
-6.7678 17.2706 -2.2034 0.9280
-7.3670 16.9861 -2.1993 0.9281
-7.9553 16.6825 -2.1954 0.9283
18.3086 -3.0450 -2.6298 0.9278
18.4020 -2.3883 -2.6292 0.9278
18.5144 -1.0670 -2.6276 0.9278
18.4965 0.9196 -2.6240 0.9279
18.1271 3.5363 -2.6168 0.9281
17.9742 4.1784 -2.6147 0.9282
17.7975 4.8139 -2.6123 0.9282
17.5975 5.4417 -2.6099 0.9283
17.1286 6.6711 -2.6045 0.9284
14.9570 8.4526 -2.4343 0.9329
14.6264 8.9702 -2.4311 0.9330
14.2773 9.4745 -2.4278 0.9331
9.5580 9.8484 -1.9445 0.9461
8.3022 9.8779 -1.8283 0.9492
7.7275 9.8914 -1.7785 0.9506
7.1826 9.9043 -1.7335 0.9518
6.7312 10.0164 -1.7099 0.9524
4.8439 10.0608 -1.5821 0.9559
4.4126 10.0709 -1.5579 0.9566
2.4142 10.1180 -1.4739 0.9588
1.9659 9.7743 -1.4127 0.9605
1.2952 10.1445 -1.4490 0.9595
0.5645 10.1617 -1.4420 0.9597
-0.1629 10.1789 -1.4424 0.9597
-0.8944 10.1962 -1.4502 0.9595
-1.6377 10.2138 -1.4657 0.9591
-2.0163 10.2228 -1.4764 0.9588
-2.4010 10.2319 -1.4891 0.9584
-3.2123 10.3121 -1.5304 0.9573
-6.2476 14.4051 -2.2247 0.9385
-6.7483 14.1514 -2.2214 0.9386
15.7141 -2.0394 -2.6104 0.9378
15.8115 -0.9112 -2.6091 0.9378
15.7994 0.7854 -2.6060 0.9379
15.7533 1.3489 -2.6047 0.9379
15.6862 1.9100 -2.6032 0.9379
15.5984 2.4679 -2.6016 0.9380
15.4901 3.0218 -2.5999 0.9380
15.3612 3.5710 -2.5981 0.9381
15.2122 4.1146 -2.5961 0.9381
14.8547 5.1821 -2.5918 0.9382
14.6468 5.7045 -2.5895 0.9383
14.4200 6.2185 -2.5870 0.9383
13.9108 7.2180 -2.5818 0.9384
11.9099 8.5319 -2.4135 0.9423
11.5832 8.9412 -2.4106 0.9424
10.8874 9.7211 -2.4045 0.9425
9.5585 9.8490 -2.2610 0.9459
8.3026 9.8784 -2.1258 0.9490
7.7279 9.8919 -2.0679 0.9504
6.7315 10.0168 -1.9882 0.9523
6.2310 10.0286 -1.9450 0.9533
5.2896 10.0507 -1.8711 0.9550
4.8441 10.0612 -1.8396 0.9557
3.9940 10.0812 -1.7864 0.9570
1.9296 9.5940 -1.6122 0.9611
1.5991 9.7395 -1.6260 0.9608
1.2952 10.1448 -1.6848 0.9594
0.9290 10.1535 -1.6797 0.9595
-0.1629 10.1793 -1.6771 0.9596
-0.8945 10.1966 -1.6862 0.9594
-1.6378 10.2142 -1.7042 0.9589
-2.0164 10.2232 -1.7166 0.9586
-2.7937 10.2443 -1.7493 0.9579
-3.1943 10.2543 -1.7694 0.9574
-4.2223 12.0231 -2.0993 0.9497
-4.9757 12.6975 -2.2466 0.9462
-5.4189 12.4944 -2.2436 0.9463
-5.8544 12.2768 -2.2407 0.9464
13.6984 -1.7778 -2.5963 0.9453
13.7364 1.1762 -2.5914 0.9454
13.6789 1.6656 -2.5901 0.9455
13.6034 2.1522 -2.5887 0.9455
13.2702 3.5893 -2.5839 0.9456
13.1242 4.0584 -2.5821 0.9456
12.5847 5.4270 -2.5760 0.9457
12.3720 5.8683 -2.5738 0.9458
11.6401 7.1388 -2.5666 0.9459
11.3662 7.5426 -2.5640 0.9460
11.0779 7.9358 -2.5614 0.9460
10.6379 8.2114 -2.5259 0.9468
9.1939 8.8195 -2.3946 0.9495
8.8624 9.1317 -2.3918 0.9495
7.7282 9.8924 -2.3595 0.9502
5.2898 10.0511 -2.1349 0.9548
4.4130 10.0717 -2.0668 0.9562
3.9942 10.0816 -2.0382 0.9568
3.1879 10.1006 -1.9908 0.9578
1.9218 9.5553 -1.8320 0.9611
1.2952 10.1452 -1.9224 0.9592
0.9290 10.1539 -1.9165 0.9593
0.5645 10.1625 -1.9131 0.9594
-0.5277 10.1883 -1.9176 0.9593
-0.8945 10.1970 -1.9240 0.9592
-1.6379 10.2146 -1.9445 0.9588
-2.4012 10.2327 -1.9756 0.9581
-3.6049 10.2650 -2.0449 0.9567
-4.3885 11.1989 -2.2608 0.9522
-4.4703 10.3073 -2.1117 0.9553
12.0668 -2.0069 -2.5857 0.9512
12.1292 -1.5742 -2.5854 0.9512
12.2058 -0.7034 -2.5843 0.9512
12.1656 1.0417 -2.5810 0.9513
12.1154 1.4752 -2.5799 0.9513
12.0492 1.9064 -2.5786 0.9513
11.9673 2.3346 -2.5773 0.9514
11.8697 2.7593 -2.5759 0.9514
11.4846 4.0064 -2.5711 0.9515
11.3262 4.4112 -2.5693 0.9515
11.1531 4.8096 -2.5674 0.9516
10.9657 5.2012 -2.5655 0.9516
10.7642 5.5853 -2.5634 0.9516
10.5490 5.9616 -2.5613 0.9517
10.3203 6.3293 -2.5591 0.9517
10.0786 6.6882 -2.5568 0.9518
9.8241 7.0377 -2.5545 0.9518
9.5573 7.3773 -2.5521 0.9518
8.9882 8.0254 -2.5471 0.9519
8.5578 8.2092 -2.5067 0.9527
7.9807 8.2231 -2.4222 0.9542
7.2499 8.6260 -2.3818 0.9550
6.9295 8.8699 -2.3792 0.9550
6.2642 9.3214 -2.3739 0.9551
5.5696 9.7229 -2.3685 0.9552
5.2125 9.9043 -2.3658 0.9553
3.9944 10.0820 -2.2923 0.9566
2.7978 10.1102 -2.2174 0.9580
2.4145 10.1192 -2.1990 0.9584
1.5687 9.5545 -2.0467 0.9612
1.2953 10.1456 -2.1620 0.9590
0.2008 10.1714 -2.1505 0.9593
-0.5277 10.1887 -2.1566 0.9591
-0.8945 10.1974 -2.1638 0.9590
-1.2643 10.2061 -2.1739 0.9588
-1.6379 10.2150 -2.1868 0.9586
-2.4013 10.2331 -2.2218 0.9579
-3.1945 10.2551 -2.2705 0.9570
-3.9755 10.1451 -2.3033 0.9564
4.2612 -0.3988 -1.0059 0.9826
4.2639 -0.2457 -1.0038 0.9826
4.2659 0.0594 -1.0027 0.9826
4.2942 0.2135 -1.0105 0.9825
10.9065 0.9339 -2.5727 0.9560
10.8619 1.3226 -2.5717 0.9560
10.8032 1.7092 -2.5706 0.9561
10.5426 2.8515 -2.5668 0.9561
10.4281 3.2246 -2.5653 0.9561
10.3001 3.5932 -2.5638 0.9562
10.1587 3.9565 -2.5622 0.9562
10.0043 4.3142 -2.5605 0.9562
8.8167 6.3160 -2.5490 0.9564
8.5780 6.6214 -2.5468 0.9565
8.0689 7.2046 -2.5423 0.9565
7.7992 7.4815 -2.5400 0.9566
6.8941 8.2026 -2.5183 0.9569
5.9648 8.2249 -2.3879 0.9591
5.6278 8.3744 -2.3713 0.9594
5.3194 8.5615 -2.3689 0.9594
5.0049 8.7371 -2.3665 0.9595
4.6846 8.9012 -2.3640 0.9595
4.0283 9.1937 -2.3591 0.9596
3.6932 9.3220 -2.3566 0.9596
3.3542 9.4380 -2.3541 0.9597
3.0115 9.5417 -2.3516 0.9597
2.3173 9.7118 -2.3466 0.9598
1.9005 9.4495 -2.2653 0.9612
1.5564 9.4799 -2.2578 0.9613
0.9059 9.9010 -2.3367 0.9600
0.1959 9.9199 -2.3319 0.9601
-0.5122 9.8884 -2.3271 0.9601
-1.2148 9.8071 -2.3225 0.9602
-1.5630 9.7480 -2.3203 0.9602
-1.9086 9.6767 -2.3181 0.9603
-2.2511 9.5933 -2.3159 0.9603
-2.5902 9.4980 -2.3138 0.9604
-2.9254 9.3909 -2.3117 0.9604
-3.5825 9.1421 -2.3077 0.9605
-3.9037 9.0007 -2.3058 0.9605
3.9205 -0.6520 -1.0290 0.9837
3.8020 0.0530 -0.9845 0.9844
9.7153 1.8952 -2.5629 0.9599
9.5463 2.5820 -2.5605 0.9600
9.3277 3.2540 -2.5579 0.9600
9.2003 3.5832 -2.5564 0.9600
8.3895 5.1451 -2.5481 0.9602
8.1943 5.4378 -2.5463 0.9602
7.9887 5.7229 -2.5444 0.9602
7.5478 6.2692 -2.5405 0.9603
7.3130 6.5296 -2.5384 0.9603
7.0691 6.7812 -2.5363 0.9603
6.8165 7.0236 -2.5342 0.9604
6.2864 7.4796 -2.5298 0.9604
5.7258 7.8954 -2.5252 0.9605
5.4350 8.0876 -2.5229 0.9605
4.7025 8.2092 -2.4495 0.9617
4.3242 8.2164 -2.4040 0.9624
3.6550 8.3417 -2.3581 0.9631
3.0439 8.5650 -2.3535 0.9631
0.1779 9.0102 -2.3334 0.9634
-0.1441 9.0024 -2.3312 0.9635
-0.7854 8.9528 -2.3269 0.9635
-2.0460 8.7190 -2.3188 0.9637
-2.3544 8.6331 -2.3169 0.9637
-2.9602 8.4293 -2.3132 0.9638
-3.9117 8.2033 -2.3531 0.9631
3.6015 -0.5990 -1.0336 0.9849
3.5087 -0.4554 -1.0016 0.9854
3.5168 0.0490 -0.9957 0.9855
8.9742 1.0927 -2.5593 0.9631
8.9263 1.4122 -2.5584 0.9631
8.7957 2.0447 -2.5564 0.9632
8.7132 2.3567 -2.5553 0.9632
8.3986 3.2710 -2.5515 0.9632
8.1344 3.8583 -2.5487 0.9633
7.9866 4.1441 -2.5472 0.9633
7.8286 4.4241 -2.5456 0.9633
7.4828 4.9656 -2.5423 0.9634
7.2955 5.2263 -2.5406 0.9634
7.0992 5.4799 -2.5388 0.9634
6.6799 5.9643 -2.5351 0.9635
6.2272 6.4165 -2.5313 0.9635
5.9892 6.6297 -2.5293 0.9635
5.7439 6.8340 -2.5273 0.9636
5.4915 7.0292 -2.5252 0.9636
5.2325 7.2151 -2.5231 0.9636
4.6958 7.5577 -2.5189 0.9637
3.2474 8.1967 -2.4959 0.9640
2.9148 8.2016 -2.4641 0.9645
2.2718 8.2095 -2.4114 0.9652
1.9594 8.2125 -2.3902 0.9655
1.0501 8.2248 -2.3473 0.9661
0.7530 8.2301 -2.3396 0.9662
0.1628 8.2452 -2.3346 0.9663
-0.4262 8.2276 -2.3323 0.9663
-0.7212 8.2212 -2.3363 0.9663
-1.0173 8.2130 -2.3428 0.9662
-1.3166 8.2102 -2.3539 0.9660
-1.6186 8.2068 -2.3681 0.9658
-1.9249 8.2028 -2.3852 0.9656
-2.2357 8.1982 -2.4056 0.9653
-2.8752 8.1871 -2.4565 0.9646
-3.1765 8.1061 -2.4647 0.9645
-3.7423 7.8477 -2.4613 0.9645
3.3149 -0.0723 -1.0198 0.9862
3.3136 0.1647 -1.0205 0.9862
3.3646 0.2881 -1.0387 0.9860
3.9200 0.4773 -1.2146 0.9836
8.2006 1.2975 -2.5537 0.9659
8.1462 1.5892 -2.5528 0.9659
8.0812 1.8786 -2.5519 0.9659
7.9198 2.4490 -2.5498 0.9659
7.8237 2.7293 -2.5486 0.9659
7.7175 3.0057 -2.5474 0.9659
7.6013 3.2779 -2.5461 0.9660
7.4754 3.5457 -2.5448 0.9660
7.3399 3.8085 -2.5434 0.9660
7.1950 4.0662 -2.5420 0.9660
6.8780 4.5643 -2.5390 0.9660
6.3379 5.2641 -2.5341 0.9661
5.9373 5.6955 -2.5306 0.9662
5.2821 6.2847 -2.5251 0.9662
5.0504 6.4646 -2.5232 0.9663
4.5687 6.7985 -2.5194 0.9663
4.3194 6.9520 -2.5174 0.9663
4.0650 7.0963 -2.5154 0.9664
3.8058 7.2314 -2.5134 0.9664
3.5421 7.3569 -2.5114 0.9664
3.0027 7.5789 -2.5074 0.9665
2.7277 7.6751 -2.5054 0.9665
2.1689 7.8376 -2.5013 0.9665
1.3143 8.0053 -2.4952 0.9666
1.0266 8.0406 -2.4932 0.9666
0.1597 8.0851 -2.4873 0.9667
-0.1293 8.0793 -2.4853 0.9667
-0.9911 8.0006 -2.4797 0.9668
-1.2754 7.9543 -2.4778 0.9668
-1.8377 7.8314 -2.4742 0.9669
-2.1149 7.7553 -2.4725 0.9669
-2.3891 7.6695 -2.4708 0.9669
-2.9270 7.4693 -2.4675 0.9670
-3.1900 7.3553 -2.4659 0.9670
3.1481 -0.1814 -1.0482 0.9868
3.1473 0.1565 -1.0475 0.9868
3.1763 0.2720 -1.0597 0.9867
3.2371 0.3942 -1.0840 0.9863
7.4662 1.7356 -2.5480 0.9682
7.1311 2.7773 -2.5439 0.9683
6.6494 3.7578 -2.5389 0.9683
6.5074 3.9908 -2.5375 0.9683
6.3570 4.2185 -2.5361 0.9684
6.1986 4.4404 -2.5346 0.9684
5.8585 4.8661 -2.5315 0.9684
5.6773 5.0691 -2.5299 0.9684
5.4894 5.2654 -2.5283 0.9684
5.0921 5.6366 -2.5250 0.9685
4.6700 5.9778 -2.5215 0.9685
4.2251 6.2871 -2.5180 0.9686
3.7597 6.5634 -2.5143 0.9686
3.5202 6.6887 -2.5125 0.9686
2.7778 7.0114 -2.5069 0.9687
2.5236 7.1009 -2.5050 0.9687
2.2665 7.1812 -2.5031 0.9688
1.7451 7.3137 -2.4994 0.9688
1.2164 7.4086 -2.4956 0.9688
-0.1197 7.4792 -2.4865 0.9690
-1.7018 7.2523 -2.4762 0.9691
-2.2126 7.1030 -2.4730 0.9691
-2.4635 7.0150 -2.4715 0.9691
-2.7110 6.9183 -2.4700 0.9692
-2.9548 6.8129 -2.4685 0.9692
-3.1946 6.6992 -2.4671 0.9692
3.0058 -0.4999 -1.0897 0.9871
3.0100 -0.3907 -1.0854 0.9872
3.0153 -0.2822 -1.0830 0.9872
3.0189 -0.1740 -1.0814 0.9872
3.0165 0.1500 -1.0800 0.9873
3.0352 0.2599 -1.0894 0.9871
6.9307 1.6111 -2.5446 0.9702
6.8664 1.8572 -2.5437 0.9702
6.7931 2.1006 -2.5428 0.9702
6.6205 2.5785 -2.5408 0.9703
6.4137 3.0421 -2.5385 0.9703
6.2980 3.2679 -2.5373 0.9703
5.7562 4.1236 -2.5322 0.9704
5.2728 4.7080 -2.5279 0.9704
4.9171 5.0665 -2.5248 0.9705
4.3383 5.5532 -2.5200 0.9705
3.4934 6.0985 -2.5134 0.9706
2.3454 6.5996 -2.5047 0.9707
1.8654 6.7409 -2.5012 0.9707
1.1308 6.8874 -2.4960 0.9708
0.6350 6.9410 -2.4925 0.9708
0.1374 6.9591 -2.4891 0.9709
-0.3596 6.9419 -2.4858 0.9709
-0.6070 6.9201 -2.4842 0.9709
-0.8534 6.8894 -2.4826 0.9709
-1.3417 6.8022 -2.4794 0.9710
-1.5830 6.7458 -2.4779 0.9710
-1.8219 6.6809 -2.4764 0.9710
-2.0583 6.6075 -2.4749 0.9710
-2.2918 6.5260 -2.4735 0.9710
-2.5222 6.4362 -2.4721 0.9711
2.8885 -0.3749 -1.1162 0.9876
2.8992 -0.0633 -1.1113 0.9877
2.8980 0.0404 -1.1107 0.9877
2.9039 0.2486 -1.1169 0.9876
6.5545 1.0370 -2.5430 0.9720
6.5114 1.2702 -2.5423 0.9720
6.4600 1.5017 -2.5416 0.9720
6.2557 2.1823 -2.5390 0.9720
6.1714 2.4036 -2.5380 0.9720
5.9791 2.8360 -2.5360 0.9721
5.7561 3.2529 -2.5337 0.9721
5.3670 3.8447 -2.5300 0.9721
5.0734 4.2139 -2.5274 0.9721
4.7542 4.5605 -2.5246 0.9722
4.4112 4.8829 -2.5217 0.9722
4.0463 5.1793 -2.5187 0.9722
3.4623 5.5724 -2.5141 0.9723
3.2588 5.6890 -2.5125 0.9723
2.4087 6.0797 -2.5061 0.9724
2.1885 6.1579 -2.5044 0.9724
1.5138 6.3443 -2.4995 0.9724
1.0554 6.4279 -2.4963 0.9725
0.1283 6.4960 -2.4899 0.9726
-0.1039 6.4924 -2.4883 0.9726
-0.3357 6.4805 -2.4868 0.9726
-0.5667 6.4604 -2.4853 0.9726
-1.0255 6.3957 -2.4823 0.9726
-1.2527 6.3512 -2.4808 0.9727
-1.4781 6.2987 -2.4794 0.9727
-2.3554 6.0107 -2.4740 0.9727
-2.7759 5.8212 -2.4715 0.9728
2.7817 -0.4626 -1.1541 0.9879
2.7816 -0.2603 -1.1434 0.9880
2.7859 -0.0608 -1.1405 0.9880
2.7858 0.0388 -1.1403 0.9880
2.7855 0.1385 -1.1415 0.9880
2.7916 0.2390 -1.1467 0.9880
2.9151 0.4612 -1.2079 0.9873
6.0904 1.1881 -2.5396 0.9735
6.0424 1.4046 -2.5389 0.9735
5.9865 1.6192 -2.5382 0.9736
5.9229 1.8315 -2.5374 0.9736
5.6868 2.4523 -2.5347 0.9736
5.5933 2.6530 -2.5337 0.9736
5.3851 3.0432 -2.5316 0.9736
5.2706 3.2323 -2.5305 0.9736
5.0216 3.5972 -2.5281 0.9737
4.8874 3.7726 -2.5269 0.9737
4.6008 4.1080 -2.5244 0.9737
4.1281 4.5696 -2.5204 0.9737
3.7869 4.8473 -2.5176 0.9738
3.6092 4.9768 -2.5161 0.9738
3.4271 5.0996 -2.5147 0.9738
3.2407 5.2158 -2.5132 0.9738
3.0504 5.3252 -2.5117 0.9738
2.8565 5.4276 -2.5102 0.9738
2.6591 5.5229 -2.5087 0.9739
2.2550 5.6918 -2.5057 0.9739
1.8405 5.8312 -2.5027 0.9739
1.4175 5.9405 -2.4996 0.9739
0.7721 6.0471 -2.4950 0.9740
-0.0973 6.0809 -2.4891 0.9741
-0.3144 6.0701 -2.4877 0.9741
-0.5308 6.0514 -2.4862 0.9741
-0.7463 6.0252 -2.4848 0.9741
-0.9607 5.9913 -2.4834 0.9741
-1.1736 5.9499 -2.4821 0.9741
-1.5939 5.8446 -2.4794 0.9742
-1.8008 5.7809 -2.4781 0.9742
-2.4057 5.5467 -2.4745 0.9742
2.7019 0.1343 -1.1790 0.9883
2.7036 0.2315 -1.1826 0.9882
2.7300 0.4319 -1.2046 0.9880
5.6168 1.5192 -2.5359 0.9749
5.5572 1.7184 -2.5351 0.9749
5.4905 1.9154 -2.5343 0.9749
5.2485 2.4894 -2.5316 0.9750
5.1542 2.6744 -2.5307 0.9750
4.9460 3.0333 -2.5286 0.9750
4.3181 3.8555 -2.5229 0.9751
3.7171 4.4226 -2.5178 0.9751
3.5548 4.5503 -2.5165 0.9751
3.2173 4.7874 -2.5138 0.9751
3.0424 4.8967 -2.5124 0.9752
2.3084 5.2684 -2.5068 0.9752
2.1174 5.3445 -2.5054 0.9752
1.7283 5.4758 -2.5025 0.9753
1.3312 5.5789 -2.4997 0.9753
0.9282 5.6533 -2.4968 0.9753
0.3172 5.7105 -2.4926 0.9754
-0.2953 5.7021 -2.4884 0.9754
-1.1026 5.5900 -2.4832 0.9754
-1.3010 5.5443 -2.4819 0.9755
-1.4976 5.4915 -2.4807 0.9755
-1.8842 5.3653 -2.4783 0.9755
2.6208 -0.4359 -1.2298 0.9884
2.6199 -0.3400 -1.2229 0.9884
2.6266 -0.1514 -1.2179 0.9885
2.6269 -0.0573 -1.2162 0.9885
2.6253 0.0366 -1.2153 0.9885
2.6235 0.2246 -1.2188 0.9885
2.6444 0.4184 -1.2393 0.9883
5.3753 1.0486 -2.5351 0.9761
5.3331 1.2397 -2.5344 0.9762
5.2840 1.4292 -2.5338 0.9762
5.2281 1.6166 -2.5331 0.9762
5.0961 1.9848 -2.5315 0.9762
5.0203 2.1649 -2.5307 0.9762
4.9380 2.3421 -2.5298 0.9762
4.5469 3.0173 -2.5260 0.9762
4.3161 3.3316 -2.5238 0.9763
4.0635 3.6282 -2.5216 0.9763
3.9294 3.7694 -2.5204 0.9763
3.4983 4.1623 -2.5168 0.9763
3.0282 4.5061 -2.5130 0.9764
2.1731 4.9596 -2.5065 0.9764
1.9934 5.0314 -2.5051 0.9764
0.6828 5.3481 -2.4957 0.9765
0.1063 5.3820 -2.4917 0.9766
-0.0861 5.3795 -2.4904 0.9766
-0.4697 5.3542 -2.4879 0.9766
-0.6604 5.3312 -2.4866 0.9766
-0.8501 5.3016 -2.4854 0.9766
-1.0380 5.2653 -2.4842 0.9766
-1.2258 5.2223 -2.4830 0.9766
-1.5939 5.1167 -2.4807 0.9767
-2.3028 4.8290 -2.4764 0.9767
2.5974 -0.4320 -1.2916 0.9883
2.5954 -0.1496 -1.2752 0.9885
2.5959 -0.0567 -1.2736 0.9885
2.5989 0.1292 -1.2764 0.9885
2.5990 0.3164 -1.2843 0.9884
2.6126 0.4134 -1.2975 0.9883
2.8487 0.5557 -1.4237 0.9872
5.0288 1.1690 -2.5325 0.9773
4.8056 1.8716 -2.5297 0.9773
4.7342 2.0415 -2.5290 0.9773
4.5732 2.3729 -2.5273 0.9773
4.2883 2.8457 -2.5245 0.9773
4.1822 2.9960 -2.5235 0.9773
4.0708 3.1422 -2.5225 0.9773
3.8327 3.4221 -2.5204 0.9774
3.7064 3.5554 -2.5193 0.9774
3.3000 3.9263 -2.5159 0.9774
2.5433 4.4398 -2.5099 0.9775
2.2174 4.6056 -2.5074 0.9775
2.0504 4.6796 -2.5061 0.9775
1.7091 4.8092 -2.5036 0.9775
1.5354 4.8647 -2.5023 0.9775
1.1828 4.9569 -2.4998 0.9776
1.0043 4.9935 -2.4985 0.9776
0.6444 5.0473 -2.4960 0.9776
0.4634 5.0646 -2.4947 0.9776
0.2820 5.0754 -2.4935 0.9776
-0.0813 5.0776 -2.4910 0.9776
-0.2626 5.0690 -2.4898 0.9776
-0.6234 5.0324 -2.4874 0.9777
-1.5048 4.8306 -2.4818 0.9777
-1.6757 4.7717 -2.4808 0.9777
-1.8444 4.7068 -2.4797 0.9777
-2.0107 4.6360 -2.4787 0.9777
-2.1742 4.5594 -2.4778 0.9777
2.5740 -0.4281 -1.3537 0.9883
2.5743 -0.2409 -1.3413 0.9884
2.5748 -0.0562 -1.3361 0.9885
2.5840 0.4088 -1.3572 0.9883
4.7516 1.1046 -2.5307 0.9783
4.7079 1.2733 -2.5301 0.9783
4.6583 1.4404 -2.5295 0.9783
4.5410 1.7686 -2.5281 0.9783
4.4736 1.9292 -2.5274 0.9783
4.3216 2.2424 -2.5258 0.9783
4.2373 2.3946 -2.5250 0.9783
4.1476 2.5436 -2.5241 0.9783
4.0526 2.6893 -2.5232 0.9783
3.9524 2.8314 -2.5223 0.9783
3.8472 2.9697 -2.5213 0.9783
3.6224 3.2343 -2.5193 0.9784
3.5031 3.3604 -2.5183 0.9784
3.3793 3.4820 -2.5172 0.9784
3.2513 3.5990 -2.5162 0.9784
3.1193 3.7113 -2.5151 0.9784
2.8437 3.9211 -2.5128 0.9784
2.7005 4.0184 -2.5117 0.9784
2.5540 4.1105 -2.5105 0.9784
2.0964 4.3541 -2.5070 0.9785
1.7783 4.4884 -2.5046 0.9785
1.6160 4.5469 -2.5034 0.9785
1.1184 4.6870 -2.4998 0.9785
0.4382 4.7894 -2.4950 0.9786
0.2666 4.7997 -2.4938 0.9786
-0.4193 4.7799 -2.4892 0.9786
-0.7590 4.7335 -2.4870 0.9786
-0.9273 4.7013 -2.4860 0.9786
-1.0889 4.6402 -2.4726 0.9788
-1.2597 4.6191 -2.4839 0.9787
-1.5851 4.5137 -2.4818 0.9787
-1.9021 4.3855 -2.4799 0.9787
-2.0568 4.3132 -2.4790 0.9787
2.5513 -0.4243 -1.4165 0.9883
2.5520 -0.3312 -1.4095 0.9883
2.5537 0.0356 -1.3988 0.9884
2.5530 0.1269 -1.4000 0.9884
2.5498 0.3105 -1.4069 0.9884
2.5554 0.4043 -1.4170 0.9883
4.4978 1.0456 -2.5291 0.9792
4.4565 1.2053 -2.5286 0.9792
4.2349 1.8262 -2.5260 0.9792
4.1657 1.9758 -2.5252 0.9792
4.0912 2.1228 -2.5245 0.9792
4.0115 2.2670 -2.5237 0.9792
3.9266 2.4081 -2.5228 0.9792
3.7420 2.6806 -2.5211 0.9792
3.4298 3.0623 -2.5183 0.9792
2.9536 3.5142 -2.5143 0.9793
2.8250 3.6160 -2.5132 0.9793
2.5573 3.8053 -2.5111 0.9793
2.4186 3.8926 -2.5100 0.9793
2.2769 3.9748 -2.5089 0.9793
1.9854 4.1236 -2.5067 0.9793
1.8359 4.1900 -2.5055 0.9794
1.6842 4.2511 -2.5044 0.9794
0.7388 4.4998 -2.4976 0.9794
0.5773 4.5213 -2.4964 0.9794
0.4151 4.5370 -2.4953 0.9794
0.0899 4.5510 -2.4931 0.9795
-0.2353 4.5418 -2.4909 0.9795
-0.3973 4.5285 -2.4898 0.9795
-0.5586 4.5095 -2.4888 0.9795
-0.7191 4.4848 -2.4877 0.9795
-1.0317 4.3966 -2.4734 0.9796
-1.1877 4.3552 -2.4725 0.9796
-1.3421 4.3083 -2.4715 0.9796
-1.5020 4.2770 -2.4828 0.9795
-1.6533 4.2191 -2.4819 0.9795
-1.8024 4.1558 -2.4810 0.9796
-1.9491 4.0873 -2.4801 0.9796
2.5302 -0.4208 -1.4809 0.9882
2.5288 -0.3282 -1.4723 0.9883
2.5300 0.0352 -1.4608 0.9884
2.5315 0.2168 -1.4669 0.9883
4.2253 1.1428 -2.5271 0.9800
4.1808 1.2928 -2.5265 0.9800
4.0154 1.7316 -2.5246 0.9800
3.8792 2.0128 -2.5232 0.9800
3.8037 2.1496 -2.5225 0.9800
3.6381 2.4142 -2.5209 0.9800
3.5483 2.5419 -2.5201 0.9800
3.4540 2.6662 -2.5192 0.9800
3.2525 2.9040 -2.5174 0.9801
3.0344 3.1266 -2.5155 0.9801
2.8012 3.3328 -2.5136 0.9801
2.6792 3.4294 -2.5126 0.9801
2.5539 3.5216 -2.5116 0.9801
2.4254 3.6091 -2.5106 0.9801
2.2939 3.6920 -2.5095 0.9801
2.0227 3.8432 -2.5074 0.9801
1.8832 3.9113 -2.5064 0.9801
1.7415 3.9745 -2.5053 0.9802
1.5976 4.0324 -2.5042 0.9802
1.4519 4.0852 -2.5031 0.9802
1.0049 4.2116 -2.4999 0.9802
0.8534 4.2430 -2.4988 0.9802
0.3938 4.3045 -2.4956 0.9802
0.0853 4.3179 -2.4935 0.9802
-0.5301 4.2790 -2.4894 0.9803
-0.6824 4.2556 -2.4884 0.9803
-1.1271 4.1329 -2.4733 0.9804
-1.4184 4.0389 -2.4715 0.9804
-1.5690 4.0039 -2.4829 0.9803
