ply
format ascii 1.0
element vertex 877
property float32 x
property float32 y
property float32 z
property float32 I
end_header
-19.1458 26.9341 5.8268 0.8744
-14.0761 18.3583 4.0791 0.9103
-14.0546 17.0188 3.8919 0.9143
-14.1356 15.9084 3.7525 0.9172
-14.2736 13.8964 3.5126 0.9223
-14.2095 12.8666 3.3800 0.9251
-16.8995 12.2531 3.6807 0.9187
-19.8768 12.3242 4.1238 0.9094
-21.6566 12.3667 4.3974 0.9037
-35.5938 -24.4698 7.6162 0.8391
-36.0822 -26.7771 7.9228 0.8332
-28.4751 -28.3442 7.0844 0.8494
-28.5309 -30.5315 7.3682 0.8439
-27.3903 -33.9263 7.6884 0.8377
-25.4550 -33.9726 7.4853 0.8416
-9.0574 -18.1798 3.5814 0.9208
-15.0734 -40.8215 7.6729 0.8380
-13.3875 -40.7315 7.5600 0.8402
-11.7850 -40.7699 7.4831 0.8417
-19.1464 26.9349 5.0625 0.8748
-14.0771 18.3597 3.5442 0.9106
-14.1629 14.8232 3.1407 0.9204
-14.2104 12.8674 2.9368 0.9254
-14.4890 12.1959 2.9013 0.9262
-19.8777 12.3248 3.5830 0.9097
-23.6932 12.4160 4.0978 0.8974
-28.8205 12.5385 4.8149 0.8806
-34.9261 8.1604 5.4946 0.8649
-28.4458 -26.3373 5.9388 0.8548
-28.4140 -32.7007 6.6365 0.8392
-28.3300 -35.0902 6.9089 0.8332
-14.0782 18.3612 3.0129 0.9109
-14.1091 17.0848 2.8854 0.9145
-14.1639 14.8242 2.6699 0.9206
-14.1884 13.8134 2.5786 0.9232
-14.2113 12.8682 2.4965 0.9256
-19.8786 12.3253 3.0458 0.9100
-21.6586 12.3679 3.2479 0.9043
-25.8984 12.3994 3.7391 0.8906
-28.7932 12.5266 4.0890 0.8810
-28.4016 -24.4497 4.8801 0.8597
-28.4907 -26.3788 5.0561 0.8550
-28.6508 -35.4874 5.9393 0.8320
-14.0793 18.3625 2.4847 0.9111
-14.1386 15.9118 2.2857 0.9179
-14.1649 14.8252 2.2018 0.9208
-14.1893 13.8143 2.1265 0.9234
-14.2122 12.8690 2.0588 0.9258
-14.4901 12.1968 2.0338 0.9266
-15.6371 12.2243 2.1313 0.9233
-18.3059 12.2882 2.3675 0.9151
-19.8794 12.3258 2.5117 0.9102
-25.8998 12.4001 3.0835 0.8909
-37.2875 -16.7161 4.3879 0.8484
-28.4307 -32.7199 4.6546 0.8400
-28.9066 -38.5790 5.1766 0.8237
-9.0550 -18.1749 2.1805 0.9216
-19.1479 26.9371 2.7977 0.8758
-14.1112 17.0873 1.8760 0.9149
-14.1395 15.9129 1.8020 0.9181
-14.1902 13.8152 1.6765 0.9236
-14.3425 10.3991 1.4997 0.9314
-16.7234 11.2259 1.7051 0.9223
-17.9004 10.2218 1.7450 0.9206
-26.0548 12.4743 2.4454 0.8905
-32.1371 12.6200 2.9227 0.8706
-14.0814 18.3653 1.4351 0.9114
-14.1405 15.9140 1.3201 0.9182
-14.2782 13.9009 1.2357 0.9232
-13.0947 10.2368 1.0307 0.9356
-18.2087 12.2229 1.3599 0.9159
-19.8811 12.3269 1.4506 0.9105
-23.6979 12.4184 1.6591 0.8983
-25.0611 11.9985 1.7230 0.8946
-25.4774 11.0840 1.7229 0.8946
-14.0824 18.3667 0.9126 0.9115
-14.0607 17.0262 0.8707 0.9154
-14.1677 14.8282 0.8087 0.9212
-12.5081 12.1776 0.6883 0.9325
-12.5184 11.3354 0.6659 0.9346
-15.6388 12.2256 0.7827 0.9236
-19.8820 12.3274 0.9224 0.9106
-21.6626 12.3702 0.9836 0.9050
-34.2585 12.0424 1.4319 0.8647
-34.3118 10.6839 1.4170 0.8660
-37.2859 -16.7154 1.6112 0.8491
-27.6864 -23.8341 1.4405 0.8639
-14.0835 18.3680 0.3910 0.9116
-14.1686 14.8291 0.3464 0.9212
-12.3469 12.0206 0.2911 0.9334
-15.6394 12.2261 0.3353 0.9237
-18.2107 12.2243 0.3705 0.9160
-19.8829 12.3280 0.3952 0.9107
-28.8006 12.5298 0.5305 0.8819
-31.9839 12.5598 0.5804 0.8716
-35.4656 12.4668 0.6350 0.8604
-35.5079 11.0563 0.6282 0.8618
-28.7578 -22.9995 0.6220 0.8630
-9.0518 -18.1685 0.3429 0.9220
-15.2879 21.5069 -0.1486 0.8998
-14.0845 18.3694 -0.1303 0.9116
-14.1152 17.0922 -0.1248 0.9151
-14.1695 14.8301 -0.1155 0.9212
-12.3473 12.0210 -0.0970 0.9334
-12.3757 10.4171 -0.0911 0.9373
-15.5839 10.4610 -0.1057 0.9277
-19.8837 12.3285 -0.1317 0.9107
-18.4768 10.5510 -0.1198 0.9184
-22.2382 10.6470 -0.1388 0.9061
-32.1452 12.6232 -0.1944 0.8710
-43.4180 -17.6079 -0.2638 0.8291
-37.2861 -16.7155 -0.2299 0.8492
-35.6985 -17.5805 -0.2240 0.8528
-25.5197 -17.5441 -0.1744 0.8835
-21.9271 -17.5365 -0.1581 0.8938
-17.6094 -17.5284 -0.1399 0.9054
-16.3741 -17.5222 -0.1350 0.9085
-11.2351 -17.5008 -0.1171 0.9202
-7.9366 -17.4873 -0.1081 0.9261
-7.1846 -17.4842 -0.1064 0.9272
-5.7438 -17.4754 -0.1036 0.9291
-15.2884 21.5076 -0.7430 0.8998
-14.0856 18.3708 -0.6518 0.9115
-14.1444 15.9183 -0.5996 0.9183
-12.3765 10.4177 -0.4555 0.9373
-15.6405 12.2269 -0.5590 0.9236
-15.5846 10.4614 -0.5285 0.9276
-19.8846 12.3290 -0.6588 0.9106
-24.4808 10.6504 -0.7517 0.8987
-27.2100 10.6851 -0.8231 0.8896
-30.6313 10.7674 -0.9142 0.8782
-43.4142 -17.6064 -1.3191 0.8291
-37.2867 -16.7158 -1.1506 0.8492
-20.3620 -17.5288 -0.7565 0.8981
-18.9244 -17.5217 -0.7262 0.9019
-17.6080 -17.5270 -0.6996 0.9054
-13.1160 -17.5047 -0.6159 0.9162
-11.2343 -17.4995 -0.5856 0.9202
-8.7134 -17.4893 -0.5502 0.9248
-7.9361 -17.4861 -0.5407 0.9260
-6.4536 -17.4776 -0.5246 0.9282
-5.0506 -17.4724 -0.5121 0.9298
-15.2889 21.5082 -1.3383 0.8997
-14.0866 18.3721 -1.1741 0.9114
-14.1172 17.0946 -1.1243 0.9150
-14.1454 15.9194 -1.0800 0.9182
-14.1714 14.8321 -1.0403 0.9211
-12.3481 12.0218 -0.8740 0.9333
-14.3095 10.3752 -0.8964 0.9317
-27.2117 10.6858 -1.4826 0.8895
-45.5502 12.3955 -2.3941 0.8277
-45.9837 10.7440 -2.3948 0.8277
-46.6782 7.3989 -2.3968 0.8275
-46.9383 5.7091 -2.3980 0.8275
-47.3538 -2.8348 -2.4058 0.8270
-47.2582 -4.5487 -2.4077 0.8268
-46.2797 -11.3557 -2.4167 0.8263
-45.8865 -13.0352 -2.4192 0.8261
-45.4344 -14.7017 -2.4218 0.8259
-41.6509 -16.8913 -2.2794 0.8353
-35.6994 -17.5809 -2.0181 0.8527
-25.5184 -17.5432 -1.5705 0.8834
-20.3621 -17.5289 -1.3626 0.8980
-18.9245 -17.5217 -1.3079 0.9019
-13.1151 -17.5035 -1.1092 0.9161
-11.2335 -17.4983 -1.0545 0.9201
-10.3576 -17.4948 -1.0311 0.9218
-9.5189 -17.4914 -1.0099 0.9233
-8.7128 -17.4881 -0.9909 0.9247
-7.9356 -17.4850 -0.9738 0.9260
-7.1837 -17.4819 -0.9585 0.9271
-6.4535 -17.4772 -0.9448 0.9281
-5.7435 -17.4746 -0.9329 0.9290
-5.0505 -17.4720 -0.9224 0.9297
-15.2894 21.5089 -1.9349 0.8996
-14.0877 18.3735 -1.6976 0.9113
-14.1464 15.9205 -1.5616 0.9181
-12.3780 10.4190 -1.1863 0.9372
-18.3398 10.4727 -1.5485 0.9188
-24.4083 10.6189 -1.9517 0.8987
-28.8212 10.1312 -2.2400 0.8847
-29.6573 9.2346 -2.2775 0.8829
-33.0159 2.8088 -2.4295 0.8756
-33.1616 0.4158 -2.4317 0.8755
-33.0639 -3.1825 -2.4355 0.8753
-32.9469 -4.3785 -2.4370 0.8752
-32.5864 -6.7568 -2.4401 0.8750
-32.0585 -9.1070 -2.4436 0.8749
-30.9567 -12.5544 -2.4494 0.8746
-30.0198 -14.7839 -2.4536 0.8744
-25.5177 -17.5427 -2.2705 0.8832
-20.3622 -17.5290 -1.9700 0.8978
-18.9246 -17.5218 -1.8910 0.9017
-16.3703 -17.5182 -1.7580 0.9083
-15.2169 -17.5126 -1.7011 0.9111
-6.4533 -17.4768 -1.3660 0.9280
-14.0026 18.2625 -2.2093 0.9117
-12.3489 12.0226 -1.6546 0.9331
-12.3787 10.4196 -1.5534 0.9370
-13.3574 10.4421 -1.6277 0.9341
-14.3106 10.3760 -1.6970 0.9314
-20.4411 10.7117 -2.2156 0.9114
-21.9028 9.5289 -2.2932 0.9085
-24.2924 7.5641 -2.4426 0.9028
-24.7836 5.7906 -2.4434 0.9028
-24.9819 4.8918 -2.4439 0.9028
-25.4918 0.3196 -2.4475 0.9026
-25.4074 -2.4455 -2.4505 0.9025
-25.1880 -4.2793 -2.4528 0.9024
-25.0295 -5.1899 -2.4541 0.9024
-24.8387 -6.0947 -2.4554 0.9023
-24.6159 -6.9927 -2.4567 0.9023
-24.0746 -8.7637 -2.4597 0.9022
-23.0286 -11.3410 -2.4644 0.9020
-21.7109 -13.7970 -2.4696 0.9018
-21.2135 -14.5837 -2.4714 0.9017
-20.5099 -15.2206 -2.4520 0.9025
-19.0556 -15.2400 -2.3425 0.9066
-17.7932 -16.4743 -2.3280 0.9072
-15.2158 -17.5113 -2.2272 0.9110
-14.1335 -17.5060 -2.1600 0.9136
-13.1133 -17.5011 -2.0995 0.9159
-10.3562 -17.4923 -1.9516 0.9216
-5.7433 -17.4738 -1.7659 0.9288
-5.0503 -17.4713 -1.7460 0.9295
-11.4640 14.9516 -2.2380 0.9269
-11.9947 14.5245 -2.2376 0.9269
-12.3795 10.4203 -1.9221 0.9369
-14.3111 10.3764 -2.0998 0.9313
-16.8396 9.6161 -2.3035 0.9249
-17.1758 9.0006 -2.3034 0.9249
-17.4899 8.3737 -2.3034 0.9249
-18.7859 8.1729 -2.4335 0.9208
-19.4839 6.8490 -2.4532 0.9202
-19.7207 6.1405 -2.4535 0.9202
-19.9322 5.4242 -2.4538 0.9202
-20.1182 4.7006 -2.4541 0.9201
-20.4126 3.2355 -2.4550 0.9201
-20.5207 2.4959 -2.4555 0.9201
-20.6577 1.0069 -2.4568 0.9201
-20.6887 -0.4889 -2.4582 0.9200
-20.5357 -2.7291 -2.4608 0.9199
-20.4317 -3.4712 -2.4618 0.9199
-20.3012 -4.2094 -2.4628 0.9199
-20.1444 -4.9429 -2.4639 0.9198
-19.7528 -6.3916 -2.4661 0.9198
-19.2583 -7.8101 -2.4686 0.9197
-18.6635 -9.1912 -2.4712 0.9196
-18.3291 -9.8655 -2.4726 0.9196
-17.5885 -11.1772 -2.4754 0.9195
-16.3045 -13.0398 -2.4800 0.9193
-14.8252 -14.7571 -2.4848 0.9192
-13.2300 -15.2259 -2.3960 0.9220
-11.2402 -16.1898 -2.3412 0.9237
-10.6548 -16.5970 -2.3428 0.9236
-9.4407 -17.3478 -2.3460 0.9235
-7.9340 -17.4815 -2.2804 0.9256
-5.0502 -17.4709 -2.1603 0.9294
-9.2352 12.9920 -2.2585 0.9376
-9.6967 12.6467 -2.2580 0.9376
-10.1459 12.2857 -2.2576 0.9377
-11.0054 11.5185 -2.2572 0.9377
-11.8101 10.6940 -2.2574 0.9377
-13.2045 9.5741 -2.3110 0.9362
-13.5409 9.0896 -2.3108 0.9362
-14.3534 8.1963 -2.3419 0.9354
-15.6625 7.4987 -2.4604 0.9323
-16.1643 6.3476 -2.4606 0.9322
-16.3842 5.7593 -2.4607 0.9322
-16.5831 5.1636 -2.4609 0.9322
-16.9166 3.9525 -2.4615 0.9322
-17.0509 3.3388 -2.4618 0.9322
-17.1632 2.7205 -2.4622 0.9322
-17.3216 1.4736 -2.4631 0.9322
-17.3918 -0.4110 -2.4649 0.9321
-17.2602 -2.2938 -2.4671 0.9321
-17.1717 -2.9174 -2.4679 0.9321
-16.9280 -4.1536 -2.4697 0.9320
-16.7731 -4.7648 -2.4706 0.9320
-16.5964 -5.3703 -2.4716 0.9320
-16.3982 -5.9693 -2.4726 0.9319
-16.1785 -6.5611 -2.4736 0.9319
-15.0914 -8.8411 -2.4782 0.9318
-14.7690 -9.3855 -2.4794 0.9317
-14.0664 -10.4388 -2.4819 0.9317
-13.6869 -10.9463 -2.4832 0.9316
-13.2892 -11.4402 -2.4845 0.9316
-12.8738 -11.9196 -2.4859 0.9316
-12.4413 -12.3840 -2.4872 0.9315
-11.5266 -13.2655 -2.4900 0.9315
-11.0457 -13.6814 -2.4914 0.9314
-10.0396 -14.4604 -2.4943 0.9314
-8.9787 -15.1658 -2.4972 0.9313
-7.5825 -15.2193 -2.4092 0.9336
-6.3051 -15.3438 -2.3505 0.9352
-5.1858 -15.7777 -2.3532 0.9351
-7.9946 11.2467 -2.2732 0.9456
-9.7184 10.1715 -2.3175 0.9446
-10.0782 9.8119 -2.3172 0.9446
-10.4249 9.4397 -2.3168 0.9446
-10.7580 9.0554 -2.3165 0.9446
-11.0772 8.6595 -2.3163 0.9446
-11.3820 8.2526 -2.3161 0.9446
-12.7226 7.8884 -2.4661 0.9411
-12.9990 7.4229 -2.4660 0.9411
-13.2586 6.9479 -2.4659 0.9411
-13.5011 6.4639 -2.4659 0.9411
-13.9336 5.4716 -2.4660 0.9411
-14.2943 4.4509 -2.4663 0.9411
-14.4471 3.9315 -2.4666 0.9411
-14.5813 3.4069 -2.4668 0.9411
-14.7933 2.3448 -2.4675 0.9411
-14.9290 1.2701 -2.4683 0.9411
-14.9689 -0.8961 -2.4704 0.9410
-14.9305 -1.4371 -2.4710 0.9410
-14.5844 -3.5786 -2.4739 0.9409
-14.4502 -4.1049 -2.4747 0.9409
-14.2972 -4.6263 -2.4756 0.9409
-13.7273 -6.1540 -2.4783 0.9408
-13.5011 -6.6489 -2.4792 0.9408
-12.7174 -8.0817 -2.4823 0.9407
-12.4223 -8.5400 -2.4834 0.9407
-12.1107 -8.9875 -2.4845 0.9407
-11.7831 -9.4238 -2.4856 0.9407
-11.4399 -9.8481 -2.4867 0.9406
-11.0815 -10.2601 -2.4879 0.9406
-9.9195 -11.4160 -2.4914 0.9405
-9.0775 -12.1148 -2.4939 0.9405
-8.6378 -12.4413 -2.4951 0.9404
-7.7238 -13.0460 -2.4976 0.9404
-7.2506 -13.3234 -2.4989 0.9404
-6.7676 -13.5837 -2.5001 0.9403
-6.2751 -13.8265 -2.5014 0.9403
-5.2648 -14.2581 -2.5039 0.9402
-4.7482 -14.4464 -2.5051 0.9402
-7.1602 10.0729 -2.3229 0.9509
-8.2042 9.2332 -2.3216 0.9510
-8.8473 8.6135 -2.3209 0.9510
-9.7347 8.1940 -2.3916 0.9495
-10.6411 7.7154 -2.4705 0.9479
-10.9124 7.3252 -2.4704 0.9479
-11.4123 6.5168 -2.4702 0.9479
-11.6403 6.0998 -2.4701 0.9479
-11.8532 5.6750 -2.4701 0.9479
-12.0512 5.2428 -2.4701 0.9479
-12.2328 4.8037 -2.4702 0.9479
-12.3991 4.3585 -2.4703 0.9479
-13.1053 1.1149 -2.4722 0.9479
-13.1561 0.1650 -2.4730 0.9479
-13.0538 -1.7348 -2.4752 0.9478
-12.9857 -2.2062 -2.4758 0.9478
-12.6810 -3.6023 -2.4778 0.9478
-11.4010 -6.6791 -2.4836 0.9476
-10.8966 -7.4911 -2.4854 0.9476
-10.6227 -7.8833 -2.4864 0.9476
-10.3348 -8.2654 -2.4874 0.9476
-9.7183 -8.9980 -2.4894 0.9475
-9.3905 -9.3473 -2.4904 0.9475
-9.0502 -9.6848 -2.4915 0.9475
-8.3337 -10.3223 -2.4936 0.9474
-7.9585 -10.6215 -2.4947 0.9474
-7.5725 -10.9070 -2.4957 0.9474
-6.7704 -11.4357 -2.4979 0.9473
-6.3553 -11.6782 -2.4990 0.9473
-5.9315 -11.9056 -2.5001 0.9473
-5.0601 -12.3139 -2.5023 0.9473
-4.6136 -12.4944 -2.5034 0.9472
-6.6932 8.7295 -2.3252 0.9560
-7.3057 8.2219 -2.3249 0.9560
-7.8309 8.1960 -2.3961 0.9547
-9.4747 6.8697 -2.4738 0.9533
-9.7163 6.5223 -2.4736 0.9533
-9.9453 6.1664 -2.4735 0.9533
-10.1615 5.8026 -2.4735 0.9533
-10.3644 5.4313 -2.4734 0.9533
-11.0400 3.8808 -2.4736 0.9533
-11.1737 3.4792 -2.4737 0.9533
-11.2929 3.0732 -2.4739 0.9533
-11.3976 2.6630 -2.4741 0.9533
-11.4875 2.2494 -2.4743 0.9533
-11.5626 1.8328 -2.4746 0.9533
-11.6227 1.4137 -2.4749 0.9533
-11.6678 0.9926 -2.4753 0.9533
-11.7127 0.1469 -2.4760 0.9532
-11.6662 -1.1229 -2.4774 0.9532
-11.5596 -1.9639 -2.4785 0.9532
-11.3929 -2.7955 -2.4797 0.9532
-11.2872 -3.2064 -2.4803 0.9532
-11.1669 -3.6134 -2.4810 0.9531
-11.0320 -4.0159 -2.4816 0.9531
-10.7192 -4.8054 -2.4831 0.9531
-10.3502 -5.5710 -2.4846 0.9531
-9.6957 -6.6655 -2.4871 0.9530
-9.4516 -7.0142 -2.4879 0.9530
-9.1951 -7.3539 -2.4888 0.9530
-8.6458 -8.0049 -2.4906 0.9530
-8.3538 -8.3154 -2.4915 0.9530
-8.0506 -8.6152 -2.4924 0.9529
-4.8900 -10.7746 -2.5011 0.9528
-3.2909 -11.3847 -2.5050 0.9527
-5.8322 8.2045 -2.3658 0.9595
-6.7143 8.1304 -2.4782 0.9576
-7.2824 7.6219 -2.4775 0.9576
-7.5524 7.3528 -2.4773 0.9576
-7.8125 7.0742 -2.4770 0.9576
-8.0624 6.7864 -2.4768 0.9576
-8.3019 6.4900 -2.4766 0.9576
-8.7482 5.8724 -2.4763 0.9576
-9.1492 5.2245 -2.4761 0.9576
-9.3319 4.8902 -2.4761 0.9576
-9.5026 4.5496 -2.4761 0.9576
-9.9400 3.4941 -2.4763 0.9576
-10.0603 3.1326 -2.4764 0.9576
-10.1676 2.7669 -2.4765 0.9576
-10.2618 2.3976 -2.4767 0.9576
-10.3426 2.0252 -2.4769 0.9576
-10.4641 1.2727 -2.4774 0.9576
-10.5447 0.1322 -2.4784 0.9576
-10.5023 -1.0109 -2.4797 0.9576
-10.4058 -1.7679 -2.4806 0.9576
-10.2552 -2.5163 -2.4817 0.9575
-10.1599 -2.8862 -2.4823 0.9575
-9.6475 -4.3250 -2.4848 0.9575
-9.3149 -5.0137 -2.4862 0.9575
-9.1301 -5.3488 -2.4869 0.9575
-8.9334 -5.6771 -2.4876 0.9574
-8.7250 -5.9982 -2.4884 0.9574
-8.5050 -6.3117 -2.4892 0.9574
-8.0317 -6.9142 -2.4907 0.9574
-7.7790 -7.2024 -2.4916 0.9574
-7.5160 -7.4815 -2.4924 0.9574
-6.9604 -8.0105 -2.4941 0.9573
-6.3677 -8.4984 -2.4958 0.9573
-6.0585 -8.7261 -2.4966 0.9573
-5.4157 -9.1475 -2.4984 0.9573
-5.0832 -9.3406 -2.4993 0.9572
-4.3980 -9.6904 -2.5010 0.9572
-5.5515 7.8097 -2.4809 0.9612
-6.0996 7.3861 -2.4802 0.9612
-6.8612 6.6799 -2.4794 0.9612
-7.0976 6.4268 -2.4791 0.9612
-7.3247 6.1655 -2.4789 0.9612
-7.9479 5.3352 -2.4785 0.9612
-8.1353 5.0441 -2.4784 0.9612
-8.3121 4.7465 -2.4783 0.9612
-8.4782 4.4428 -2.4783 0.9612
-8.9097 3.4987 -2.4784 0.9612
-9.1399 2.8460 -2.4786 0.9612
-9.2374 2.5138 -2.4787 0.9612
-9.3228 2.1783 -2.4789 0.9612
-9.3962 1.8399 -2.4791 0.9612
-9.5064 1.1563 -2.4795 0.9612
-9.5431 0.8119 -2.4798 0.9612
-9.5787 -0.2264 -2.4808 0.9612
-9.5025 -1.2628 -2.4820 0.9612
-9.3899 -1.9470 -2.4829 0.9612
-9.2284 -2.6215 -2.4839 0.9611
-9.1295 -2.9541 -2.4845 0.9611
-8.6165 -4.2434 -2.4868 0.9611
-8.4596 -4.5533 -2.4875 0.9611
-7.9232 -5.4470 -2.4895 0.9611
-7.2931 -6.2783 -2.4916 0.9610
-6.5762 -7.0375 -2.4939 0.9610
-6.3195 -7.2729 -2.4946 0.9610
-5.4999 -7.9218 -2.4970 0.9609
-4.6142 -8.4789 -2.4994 0.9609
-3.9920 -8.7958 -2.5010 0.9609
-2.6857 -9.2912 -2.5041 0.9608
-5.0807 7.1475 -2.4825 0.9642
-6.9033 5.3966 -2.4806 0.9642
-7.0935 5.1432 -2.4804 0.9642
-7.7600 4.0665 -2.4802 0.9642
-8.0336 3.4951 -2.4802 0.9642
-8.1549 3.2024 -2.4802 0.9642
-8.3656 2.6048 -2.4804 0.9642
-8.4548 2.3008 -2.4805 0.9642
-8.6001 1.6840 -2.4809 0.9642
-8.7564 0.4268 -2.4818 0.9642
-8.7671 0.1100 -2.4821 0.9642
-8.7665 -0.2071 -2.4824 0.9642
-8.6964 -1.1557 -2.4835 0.9642
-8.6504 -1.4697 -2.4840 0.9642
-8.4450 -2.3990 -2.4853 0.9642
-8.3544 -2.7033 -2.4858 0.9642
-8.2529 -3.0042 -2.4863 0.9641
-8.1406 -3.3014 -2.4869 0.9641
-7.7406 -4.1663 -2.4886 0.9641
-7.4229 -4.7171 -2.4898 0.9641
-6.8737 -5.4974 -2.4917 0.9641
-6.4619 -5.9830 -2.4930 0.9641
-6.2431 -6.2144 -2.4937 0.9640
-5.7809 -6.6531 -2.4951 0.9640
-5.2880 -7.0575 -2.4965 0.9640
-5.0308 -7.2462 -2.4973 0.9640
-3.9383 -7.9049 -2.5002 0.9640
-3.6510 -8.0445 -2.5009 0.9639
-3.3587 -8.1736 -2.5016 0.9639
-2.4560 -8.4966 -2.5038 0.9639
-5.9827 5.4173 -2.4824 0.9668
-6.1747 5.1971 -2.4823 0.9668
-6.3577 4.9701 -2.4821 0.9668
-6.5330 4.7368 -2.4820 0.9668
-6.6997 4.4973 -2.4819 0.9668
-7.0068 4.0011 -2.4818 0.9668
-7.2775 3.4843 -2.4817 0.9668
-7.3988 3.2189 -2.4818 0.9668
-7.6125 2.6759 -2.4819 0.9668
-8.0437 0.6843 -2.4830 0.9668
-8.0640 0.3930 -2.4833 0.9668
-8.0739 0.1012 -2.4835 0.9668
-8.0732 -0.1908 -2.4838 0.9668
-8.0084 -1.0643 -2.4849 0.9668
-7.7764 -2.2091 -2.4865 0.9667
-7.5993 -2.7663 -2.4874 0.9667
-7.4958 -3.0399 -2.4879 0.9667
-7.3825 -3.3096 -2.4884 0.9667
-7.1270 -3.8361 -2.4895 0.9667
-6.8342 -4.3430 -2.4906 0.9667
-6.6743 -4.5884 -2.4912 0.9667
-6.5055 -4.8279 -2.4918 0.9667
-6.3283 -5.0611 -2.4924 0.9667
-5.9489 -5.5079 -2.4936 0.9666
-5.5381 -5.9265 -2.4949 0.9666
-5.0980 -6.3145 -2.4962 0.9666
-4.8676 -6.4964 -2.4968 0.9666
-4.6308 -6.6700 -2.4975 0.9666
-3.3602 -7.4039 -2.5008 0.9665
-2.5408 -7.7305 -2.5029 0.9665
-4.3316 6.0936 -2.4851 0.9690
-4.5485 5.9323 -2.4849 0.9690
-4.7595 5.7634 -2.4846 0.9690
-5.1627 5.4034 -2.4841 0.9690
-5.3543 5.2127 -2.4839 0.9690
-5.5388 5.0154 -2.4838 0.9690
-5.7161 4.8115 -2.4836 0.9690
-5.8861 4.6014 -2.4835 0.9690
-6.0483 4.3854 -2.4834 0.9690
-6.3490 3.9366 -2.4832 0.9690
-6.8500 2.9801 -2.4831 0.9690
-7.2089 1.9617 -2.4834 0.9690
-7.2755 1.6999 -2.4836 0.9690
-7.4183 0.9023 -2.4841 0.9690
-7.4655 0.3639 -2.4845 0.9690
-7.4745 0.0937 -2.4848 0.9690
-7.4635 -0.4468 -2.4854 0.9690
-7.4434 -0.7164 -2.4857 0.9690
-7.4136 -0.9853 -2.4860 0.9690
-7.2666 -1.7830 -2.4871 0.9690
-7.1211 -2.3043 -2.4879 0.9689
-7.0344 -2.5607 -2.4884 0.9689
-6.9385 -2.8138 -2.4888 0.9689
-6.7196 -3.3092 -2.4898 0.9689
-6.3256 -4.0198 -2.4913 0.9689
-6.1774 -4.2468 -2.4919 0.9689
-5.6851 -4.8940 -2.4935 0.9689
-5.5057 -5.0976 -2.4941 0.9689
-4.9248 -5.6678 -2.4959 0.9688
-4.5045 -6.0118 -2.4971 0.9688
-3.5944 -6.6049 -2.4996 0.9688
-3.1092 -6.8508 -2.5008 0.9688
-2.8602 -6.9604 -2.5014 0.9688
-2.0912 -7.2346 -2.5033 0.9688
-4.0280 5.6665 -2.4862 0.9709
-4.6166 5.1956 -2.4855 0.9709
-4.8010 5.0248 -2.4853 0.9709
-5.1508 4.6641 -2.4849 0.9709
-5.4738 4.2792 -2.4846 0.9709
-5.7683 3.8721 -2.4845 0.9709
-5.9044 3.6609 -2.4844 0.9709
-6.2659 2.9999 -2.4843 0.9709
-6.3703 2.7714 -2.4843 0.9709
-6.4665 2.5393 -2.4844 0.9709
-6.5542 2.3039 -2.4844 0.9709
-6.6334 2.0655 -2.4845 0.9709
-6.7041 1.8244 -2.4846 0.9709
-6.8633 1.0879 -2.4850 0.9709
-6.8987 0.8391 -2.4852 0.9709
-6.9251 0.5891 -2.4854 0.9709
-6.9425 0.3384 -2.4856 0.9709
-6.9502 -0.1642 -2.4861 0.9709
-6.9404 -0.4155 -2.4864 0.9709
-6.8939 -0.9162 -2.4870 0.9709
-6.8572 -1.1650 -2.4873 0.9709
-6.8116 -1.4124 -2.4877 0.9709
-6.6216 -2.1426 -2.4888 0.9709
-6.3539 -2.8485 -2.4901 0.9709
-6.2478 -3.0769 -2.4905 0.9708
-6.1336 -3.3014 -2.4910 0.9708
-5.7435 -3.9485 -2.4924 0.9708
-5.5981 -4.1544 -2.4929 0.9708
-5.2854 -4.5500 -2.4940 0.9708
-5.1185 -4.7392 -2.4945 0.9708
-4.9449 -4.9222 -2.4951 0.9708
-4.3858 -5.4323 -2.4967 0.9708
-3.5601 -6.0133 -2.4990 0.9707
-3.1177 -6.2578 -2.5002 0.9707
-2.4234 -6.5631 -2.5019 0.9707
-2.1851 -6.6480 -2.5025 0.9707
-3.7602 5.2899 -2.4871 0.9726
-4.1319 5.0033 -2.4867 0.9726
-4.3097 4.8502 -2.4865 0.9726
-4.6483 4.5255 -2.4861 0.9726
-4.9626 4.1772 -2.4858 0.9726
-5.1102 3.9948 -2.4857 0.9726
-5.3851 3.6148 -2.4855 0.9726
-5.5121 3.4177 -2.4854 0.9726
-5.7446 3.0103 -2.4854 0.9726
-5.9471 2.5873 -2.4854 0.9726
-6.1188 2.1509 -2.4855 0.9726
-6.1927 1.9282 -2.4856 0.9726
-6.2586 1.7031 -2.4856 0.9726
-6.3660 1.2466 -2.4859 0.9726
-6.4073 1.0156 -2.4860 0.9726
-6.4648 0.5500 -2.4864 0.9726
-6.4810 0.3159 -2.4866 0.9726
-6.4614 -0.6220 -2.4876 0.9726
-6.4355 -0.8552 -2.4879 0.9726
-6.3585 -1.3184 -2.4885 0.9726
-6.3075 -1.5477 -2.4888 0.9726
-6.2483 -1.7750 -2.4892 0.9726
-6.1809 -2.0000 -2.4896 0.9726
-6.0221 -2.4422 -2.4903 0.9725
-5.9308 -2.6588 -2.4907 0.9725
-5.8318 -2.8720 -2.4912 0.9725
-5.7251 -3.0815 -2.4916 0.9725
-5.6110 -3.2871 -2.4920 0.9725
-5.4894 -3.4885 -2.4925 0.9725
-5.3607 -3.6854 -2.4930 0.9725
-5.2250 -3.8775 -2.4934 0.9725
-5.0823 -4.0647 -2.4939 0.9725
-4.7772 -4.4231 -2.4949 0.9725
-4.6151 -4.5939 -2.4954 0.9725
-4.2728 -4.9174 -2.4964 0.9725
-4.0931 -5.0697 -2.4970 0.9725
-3.9076 -5.2156 -2.4975 0.9725
-3.7176 -5.3546 -2.4980 0.9725
-3.1179 -5.7293 -2.4996 0.9724
-2.9094 -5.8396 -2.5002 0.9724
-3.5220 4.9547 -2.4880 0.9741
-4.0368 4.5430 -2.4873 0.9741
-4.3539 4.2388 -2.4870 0.9741
-4.5041 4.0784 -2.4868 0.9741
-4.7866 3.7419 -2.4866 0.9741
-5.2754 3.0125 -2.4863 0.9741
-5.6547 2.2205 -2.4864 0.9741
-5.8006 1.8062 -2.4865 0.9741
-5.8623 1.5953 -2.4866 0.9741
-5.9164 1.3823 -2.4867 0.9741
-6.0324 0.7337 -2.4871 0.9741
-6.0771 -0.1436 -2.4879 0.9741
-6.0685 -0.3633 -2.4881 0.9741
-6.0520 -0.5825 -2.4884 0.9741
-6.0277 -0.8011 -2.4887 0.9741
-5.9554 -1.2349 -2.4893 0.9741
-5.8521 -1.6625 -2.4899 0.9740
-5.2548 -3.0785 -2.4926 0.9740
-5.0204 -3.4513 -2.4934 0.9740
-4.6196 -3.9769 -2.4948 0.9740
-3.8328 -4.7474 -2.4972 0.9740
-3.4811 -5.0140 -2.4982 0.9740
-3.2982 -5.1376 -2.4987 0.9740
-3.1105 -5.2545 -2.4992 0.9740
-2.9194 -5.3647 -2.4997 0.9739
-2.7241 -5.4678 -2.5002 0.9739
-2.3228 -5.6527 -2.5012 0.9739
-3.6356 4.4024 -2.4883 0.9754
-3.7921 4.2677 -2.4881 0.9754
-3.9437 4.1275 -2.4879 0.9754
-4.2312 3.8313 -2.4877 0.9754
-4.4966 3.5151 -2.4874 0.9754
-4.8503 3.0074 -2.4872 0.9754
-4.9558 2.8300 -2.4872 0.9754
-5.0549 2.6489 -2.4872 0.9754
-5.3121 2.0860 -2.4872 0.9754
-5.5072 1.4987 -2.4874 0.9754
-5.6015 1.0969 -2.4876 0.9754
-5.6668 0.6893 -2.4879 0.9754
-5.6884 0.4839 -2.4881 0.9754
-5.7026 0.2780 -2.4882 0.9754
-5.7087 -0.1349 -2.4886 0.9754
-5.7006 -0.3412 -2.4889 0.9754
-5.6319 -0.9568 -2.4896 0.9754
-5.5942 -1.1600 -2.4899 0.9754
-5.5493 -1.3616 -2.4902 0.9754
-5.4971 -1.5616 -2.4905 0.9754
-5.4378 -1.7596 -2.4908 0.9754
-5.3713 -1.9553 -2.4912 0.9754
-5.2978 -2.1485 -2.4915 0.9754
-4.9357 -2.8915 -2.4930 0.9753
-4.8287 -3.0686 -2.4934 0.9753
-4.5959 -3.4107 -2.4943 0.9753
-4.4703 -3.5752 -2.4947 0.9753
-4.3389 -3.7352 -2.4951 0.9753
-4.2017 -3.8903 -2.4956 0.9753
-3.7578 -4.3247 -2.4969 0.9753
-3.2692 -4.7088 -2.4983 0.9753
-2.9215 -4.9346 -2.4992 0.9753
-2.7417 -5.0380 -2.4997 0.9753
-2.5582 -5.1348 -2.5002 0.9753
-2.1805 -5.3083 -2.5011 0.9753
-1.9883 -5.3847 -2.5016 0.9753
-3.1159 4.3834 -2.4894 0.9766
-3.8520 3.7502 -2.4885 0.9766
-4.2349 3.3106 -2.4882 0.9766
-4.3517 3.1553 -2.4881 0.9766
-4.4628 2.9957 -2.4880 0.9766
-4.5681 2.8323 -2.4880 0.9766
-4.6675 2.6653 -2.4879 0.9766
-4.7607 2.4948 -2.4879 0.9766
-5.0030 1.9646 -2.4880 0.9766
-5.1867 1.4115 -2.4881 0.9766
-5.2345 1.2230 -2.4882 0.9766
-5.2755 1.0330 -2.4883 0.9766
-5.3097 0.8416 -2.4885 0.9766
-5.3573 0.4558 -2.4888 0.9766
-5.3687 -0.3214 -2.4895 0.9766
-5.3540 -0.5154 -2.4898 0.9766
-5.3324 -0.7087 -2.4900 0.9766
-5.3038 -0.9011 -2.4903 0.9766
-5.2260 -1.2823 -2.4908 0.9766
-5.0583 -1.8413 -2.4917 0.9766
-4.6479 -2.7229 -2.4934 0.9765
-4.2094 -3.3666 -2.4950 0.9765
-4.0856 -3.5172 -2.4954 0.9765
-3.9564 -3.6632 -2.4958 0.9765
-3.6826 -3.9409 -2.4967 0.9765
-3.5383 -4.0721 -2.4971 0.9765
-3.3894 -4.1981 -2.4975 0.9765
-3.2359 -4.3187 -2.4980 0.9765
-2.9164 -4.5429 -2.4989 0.9765
-2.7507 -4.6462 -2.4993 0.9765
-2.5814 -4.7434 -2.4997 0.9765
-2.4086 -4.8346 -2.5002 0.9765
-2.2326 -4.9193 -2.5006 0.9765
-2.0537 -4.9978 -2.5011 0.9765
-1.8720 -5.0696 -2.5015 0.9765
-1.6877 -5.1349 -2.5020 0.9765
-1.5012 -5.1935 -2.5024 0.9765
-2.9410 4.1374 -2.4900 0.9776
-3.2319 3.9135 -2.4896 0.9776
-3.3710 3.7938 -2.4895 0.9776
-3.5058 3.6692 -2.4893 0.9776
-3.6359 3.5398 -2.4892 0.9776
-3.7614 3.4059 -2.4890 0.9776
-3.9973 3.1249 -2.4888 0.9776
-4.1076 2.9782 -2.4888 0.9776
-4.2125 2.8277 -2.4887 0.9776
-4.3119 2.6735 -2.4887 0.9776
-4.4057 2.5158 -2.4886 0.9776
-4.5759 2.1908 -2.4886 0.9777
-4.6522 2.0240 -2.4886 0.9776
-4.7224 1.8544 -2.4886 0.9776
-4.8442 1.5084 -2.4887 0.9776
-4.8958 1.3323 -2.4888 0.9776
-5.0119 0.7944 -2.4891 0.9776
-5.0376 0.6127 -2.4893 0.9776
-5.0674 -0.3034 -2.4901 0.9776
-5.0535 -0.4864 -2.4903 0.9776
-5.0331 -0.6689 -2.4906 0.9776
-5.0061 -0.8505 -2.4908 0.9776
-4.9326 -1.2103 -2.4913 0.9776
-4.8333 -1.5640 -2.4919 0.9776
-4.7088 -1.9096 -2.4925 0.9776
-4.0844 -3.0311 -2.4949 0.9776
-3.9727 -3.1773 -2.4953 0.9776
-3.8558 -3.3194 -2.4957 0.9776
-3.7339 -3.4571 -2.4961 0.9776
-3.6070 -3.5904 -2.4965 0.9776
-3.4754 -3.7191 -2.4969 0.9776
-3.1986 -3.9618 -2.4977 0.9776
-3.0538 -4.0756 -2.4981 0.9776
-2.5958 -4.3845 -2.4994 0.9776
-2.4360 -4.4762 -2.4998 0.9776
-2.1068 -4.6422 -2.5006 0.9775
-1.4166 -4.9007 -2.5023 0.9775
-3.3156 3.4702 -2.4899 0.9786
-3.4387 3.3479 -2.4898 0.9786
-3.6714 3.0903 -2.4896 0.9786
-3.7806 2.9554 -2.4895 0.9786
-3.9841 2.6744 -2.4893 0.9786
-4.0781 2.5285 -2.4893 0.9786
-4.2501 2.2271 -2.4892 0.9786
-4.3278 2.0721 -2.4892 0.9786
-4.4663 1.7538 -2.4893 0.9786
-4.5269 1.5913 -2.4893 0.9786
-4.6303 1.2600 -2.4894 0.9786
-4.7095 0.9222 -2.4896 0.9786
-4.7643 0.5795 -2.4899 0.9786
-4.7824 0.4069 -2.4900 0.9786
-4.7943 0.2337 -2.4901 0.9786
-4.7924 -0.2869 -2.4907 0.9786
-4.7600 -0.6326 -2.4911 0.9786
-4.7344 -0.8044 -2.4913 0.9786
-4.7027 -0.9751 -2.4916 0.9786
-4.6648 -1.1446 -2.4918 0.9786
-4.6209 -1.3127 -2.4921 0.9786
-4.3854 -1.9660 -2.4932 0.9786
-4.3120 -2.1235 -2.4935 0.9786
-4.1483 -2.4303 -2.4942 0.9786
-3.9629 -2.7244 -2.4949 0.9786
-3.8624 -2.8663 -2.4952 0.9786
-3.7568 -3.0045 -2.4956 0.9786
-3.6462 -3.1389 -2.4959 0.9786
-3.5308 -3.2691 -2.4963 0.9786
-3.4108 -3.3952 -2.4967 0.9785
-3.2863 -3.5168 -2.4971 0.9785
-3.0245 -3.7463 -2.4978 0.9785
-2.1491 -4.3137 -2.5002 0.9785
-1.6702 -4.5232 -2.5014 0.9785
-1.3394 -4.6335 -2.5022 0.9785
-2.6351 3.7071 -2.4911 0.9795
-2.7672 3.6091 -2.4909 0.9795
-2.8957 3.5064 -2.4907 0.9795
-3.0204 3.3993 -2.4906 0.9795
-3.1412 3.2876 -2.4904 0.9795
-3.2579 3.1718 -2.4903 0.9795
-3.5817 2.8000 -2.4900 0.9795
-3.6805 2.6686 -2.4900 0.9795
-3.7745 2.5337 -2.4899 0.9795
-4.1002 1.9630 -2.4898 0.9795
-4.4272 1.0344 -2.4901 0.9795
-4.4618 0.8737 -2.4902 0.9795
-4.5137 0.5490 -2.4904 0.9795
-4.5309 0.3855 -2.4905 0.9795
-4.5474 0.0570 -2.4908 0.9795
-4.5468 -0.1075 -2.4910 0.9795
-4.5278 -0.4358 -2.4914 0.9795
-4.4552 -0.9238 -2.4920 0.9795
-4.4193 -1.0844 -2.4923 0.9795
-4.3302 -1.4012 -2.4928 0.9795
-4.2186 -1.7108 -2.4933 0.9795
-4.0099 -2.1583 -2.4942 0.9794
-3.9298 -2.3022 -2.4945 0.9794
-3.5587 -2.8462 -2.4958 0.9794
-3.1130 -3.3313 -2.4972 0.9794
-2.6018 -3.7475 -2.4987 0.9794
-2.0356 -4.0859 -2.5002 0.9794
-1.4262 -4.3393 -2.5017 0.9794
-2.6256 3.4244 -2.4914 0.9803
-2.8518 3.2094 -2.4788 0.9804
-2.9658 3.1040 -2.4786 0.9804
-3.0760 2.9947 -2.4785 0.9804
-3.1979 2.8956 -2.4907 0.9803
-3.4923 2.5321 -2.4905 0.9803
-3.5815 2.4041 -2.4904 0.9803
-3.6660 2.2730 -2.4904 0.9803
-3.7457 2.1390 -2.4904 0.9803
-3.8905 1.8626 -2.4904 0.9803
-3.9553 1.7208 -2.4904 0.9803
-4.0150 1.5767 -2.4904 0.9803
-4.0694 1.4305 -2.4904 0.9803
-4.1186 1.2824 -2.4905 0.9803
-4.1623 1.1327 -2.4905 0.9803
-4.2007 0.9815 -2.4906 0.9803
-4.2336 0.8290 -2.4907 0.9803
-4.2828 0.5209 -2.4909 0.9803
-4.2991 0.3657 -2.4910 0.9803
-4.3147 0.0541 -2.4913 0.9803
-4.2961 -0.4135 -2.4918 0.9803
-4.2787 -0.5686 -2.4920 0.9803
-4.2557 -0.7230 -2.4922 0.9803
-4.1535 -1.1799 -2.4929 0.9803
-3.9416 -1.7671 -2.4939 0.9802
-3.8756 -1.9086 -2.4942 0.9802
-3.7284 -2.1842 -2.4948 0.9802
-3.6474 -2.3179 -2.4951 0.9802
-3.5617 -2.4486 -2.4954 0.9802
-3.4713 -2.5761 -2.4957 0.9802
-3.2769 -2.8209 -2.4964 0.9802
-3.1731 -2.9379 -2.4967 0.9802
-3.0652 -3.0512 -2.4970 0.9802
-2.9533 -3.1604 -2.4974 0.9802
-2.5948 -3.4631 -2.4984 0.9802
-2.0697 -3.8032 -2.4998 0.9802
-1.7899 -3.9439 -2.5006 0.9802
-1.6464 -4.0066 -2.5009 0.9802
-1.2034 -4.1632 -2.5020 0.9802
