ply
format ascii 1.0
element vertex 1190
property float32 x
property float32 y
property float32 z
property float32 I
end_header
15.9629 -11.6064 3.4801 0.9230
6.5975 8.6518 1.6668 0.9569
6.5965 8.6505 1.4166 0.9571
15.9583 -11.6030 2.1187 0.9237
30.0118 20.3262 3.8923 0.8643
28.6315 20.9332 3.8086 0.8670
6.5958 8.6496 1.1680 0.9572
15.9567 -11.6019 1.6701 0.9239
35.0428 20.2186 3.4248 0.8501
30.0117 20.3262 3.0684 0.8646
28.7042 24.3401 3.1859 0.8598
28.7443 26.2096 3.2930 0.8554
28.7871 28.2120 3.4121 0.8506
28.8833 32.7008 3.6934 0.8393
35.0427 20.2186 2.5088 0.8503
32.3892 20.2753 2.3695 0.8580
28.6309 20.9328 2.1993 0.8675
28.8829 32.7004 2.7055 0.8396
15.9537 -11.5996 0.7778 0.9241
32.3892 20.2753 1.5067 0.8582
30.0117 20.3262 1.4293 0.8649
28.6660 22.5855 1.4390 0.8641
28.7864 28.2113 1.5893 0.8510
28.8825 32.6999 1.7203 0.8397
6.5940 8.6472 0.4288 0.9574
35.0402 20.2171 0.6833 0.8506
28.6655 22.5851 0.6164 0.8642
28.7030 24.3391 0.6357 0.8602
28.7431 26.2086 0.6571 0.8559
28.7860 28.2109 0.6808 0.8511
28.8321 30.3663 0.7073 0.8458
28.8821 32.6995 0.7370 0.8398
28.9365 35.2402 0.7702 0.8333
6.5934 8.6464 0.1837 0.9574
15.9506 -11.5974 -0.1110 0.9241
30.0096 20.3248 -0.2041 0.8650
28.6652 22.5849 -0.2055 0.8642
28.7427 26.2083 -0.2190 0.8559
28.9361 35.2397 -0.2567 0.8333
42.3917 22.4651 -1.3509 0.8253
30.0096 20.3248 -1.0206 0.8650
28.6294 20.9317 -0.9986 0.8677
28.6648 22.5846 -1.0276 0.8641
28.9357 35.2392 -1.2839 0.8332
-9.8937 -46.4505 -2.4085 0.8268
-6.6656 -48.0440 -2.4599 0.8234
-3.2624 -49.4635 -2.5140 0.8199
15.9476 -11.5952 -1.0000 0.9241
49.4528 6.3305 -2.5284 0.8190
48.7198 9.8414 -2.5207 0.8195
42.2290 10.1248 -2.2023 0.8404
42.1528 11.7259 -2.2189 0.8393
42.0819 16.7746 -2.2975 0.8341
35.0402 20.2171 -2.0516 0.8504
30.0096 20.3248 -1.8381 0.8649
28.6645 22.5844 -1.8507 0.8640
28.7849 28.2098 -2.0440 0.8509
28.9353 35.2387 -2.3124 0.8331
25.4840 38.9401 -2.3601 0.8299
24.0603 39.8228 -2.3596 0.8300
22.6061 40.6533 -2.3590 0.8300
19.6121 42.1507 -2.3577 0.8301
13.3470 44.4840 -2.3553 0.8303
0.1623 46.3863 -2.3525 0.8305
-1.5070 46.3536 -2.3520 0.8305
-3.1738 46.2606 -2.3516 0.8305
-4.8358 46.1075 -2.3511 0.8305
-1.0262 -34.3572 -2.5203 0.8712
1.4674 -34.8040 -2.5542 0.8696
5.3172 -35.1490 -2.6065 0.8671
6.6236 -35.1729 -2.6243 0.8663
7.9391 -35.1499 -2.6422 0.8654
9.2617 -35.0786 -2.6602 0.8646
11.9211 -34.7883 -2.6964 0.8629
14.5864 -34.2959 -2.7326 0.8612
15.9160 -33.9722 -2.7507 0.8603
17.1602 -33.4393 -2.7558 0.8601
18.2428 -32.6036 -2.7393 0.8608
19.2506 -31.6728 -2.7176 0.8619
20.2061 -30.6982 -2.6947 0.8629
22.7617 -27.5715 -2.6215 0.8664
23.5075 -26.4733 -2.5959 0.8676
24.8843 -24.2587 -2.5481 0.8699
15.9460 -11.5941 -1.4456 0.9240
27.7774 -18.7062 -2.4555 0.8743
28.7547 -16.4896 -2.4304 0.8755
29.5690 -14.2351 -2.4062 0.8767
29.9245 -13.1014 -2.3952 0.8772
30.3821 -10.7704 -2.3635 0.8787
30.9037 -9.7182 -2.3753 0.8782
33.0648 -9.1038 -2.5146 0.8715
33.3726 -7.9083 -2.5147 0.8715
33.6371 -6.7023 -2.5148 0.8715
34.0341 -4.2654 -2.5150 0.8715
34.1663 -3.0378 -2.5150 0.8715
34.1580 3.1280 -2.5150 0.8715
34.0226 4.3553 -2.5150 0.8715
33.8428 5.5768 -2.5149 0.8715
31.3600 7.5189 -2.3646 0.8787
31.0975 8.6506 -2.3667 0.8786
30.3861 10.8622 -2.3660 0.8786
29.5170 13.0160 -2.3653 0.8786
26.6875 18.0748 -2.3633 0.8787
26.0149 19.0201 -2.3629 0.8788
25.3088 19.9405 -2.3625 0.8788
24.5700 20.8345 -2.3620 0.8788
23.7997 21.7012 -2.3616 0.8788
22.1683 23.3479 -2.3606 0.8789
6.5910 8.6433 -0.7970 0.9573
13.5604 29.1443 -2.3569 0.8790
11.4249 30.0342 -2.3561 0.8791
10.3348 30.4207 -2.3557 0.8791
8.1155 31.0694 -2.3545 0.8792
6.9898 31.3317 -2.3538 0.8792
0.1121 32.0452 -2.3496 0.8794
-1.0410 32.0196 -2.3490 0.8794
-2.1924 31.9551 -2.3485 0.8794
-3.3406 31.8513 -2.3482 0.8795
-5.3422 -25.0814 -2.4620 0.9021
-3.5588 -25.6508 -2.4862 0.9012
-2.6464 -25.8908 -2.4986 0.9007
-0.7849 -26.2775 -2.5239 0.8997
1.1188 -26.5353 -2.5498 0.8988
2.0838 -26.6141 -2.5629 0.8983
4.0343 -26.6685 -2.5894 0.8973
5.0173 -26.6429 -2.6028 0.8968
5.9814 -26.4826 -2.6065 0.8966
7.8296 -25.8469 -2.5928 0.8972
8.7223 -25.4536 -2.5832 0.8975
10.4417 -24.5509 -2.5613 0.8983
12.0617 -23.5040 -2.5363 0.8993
12.8304 -22.9307 -2.5226 0.8998
15.6662 -20.4321 -2.4718 0.9017
18.1203 -17.6648 -2.4295 0.9033
15.8493 -11.5237 -1.8813 0.9243
20.6561 -13.9105 -2.3908 0.9048
21.4397 -12.2947 -2.3727 0.9055
24.9547 -7.8474 -2.5114 0.9002
25.4565 -6.0324 -2.5116 0.9002
25.9605 -3.2536 -2.5118 0.9002
26.1279 -1.3776 -2.5119 0.9002
26.1607 -0.4364 -2.5119 0.9002
26.1242 1.4467 -2.5119 0.9002
26.0549 2.3860 -2.5119 0.9002
25.8148 4.2539 -2.5118 0.9002
25.6443 5.1802 -2.5117 0.9002
25.4404 6.0996 -2.5116 0.9002
23.6735 6.5854 -2.3591 0.9060
23.4429 7.4401 -2.3613 0.9059
21.7442 11.5232 -2.3626 0.9058
20.3674 13.7944 -2.3616 0.9059
19.8549 14.5164 -2.3613 0.9059
18.7539 15.9026 -2.3606 0.9059
17.5561 17.2054 -2.3599 0.9059
16.2680 18.4182 -2.3592 0.9060
6.5904 8.6425 -1.0434 0.9573
14.1813 20.0550 -2.3581 0.9060
13.4482 20.5492 -2.3577 0.9060
12.6979 21.0166 -2.3574 0.9060
11.9313 21.4566 -2.3570 0.9061
7.8922 23.2310 -2.3555 0.9061
6.1990 23.7324 -2.3549 0.9061
2.7276 24.3619 -2.3535 0.9062
1.8486 24.4387 -2.3529 0.9062
0.9676 24.4840 -2.3524 0.9062
0.0857 24.4978 -2.3519 0.9062
-0.7959 24.4798 -2.3514 0.9063
-1.6761 24.4302 -2.3509 0.9063
-3.6105 -20.5570 -2.4793 0.9194
-2.1272 -20.8109 -2.4849 0.9192
-0.6250 -20.9224 -2.4864 0.9191
3.8521 -20.4556 -2.4725 0.9196
5.9974 -19.7984 -2.4573 0.9200
6.6897 -19.5220 -2.4513 0.9202
7.3698 -19.2213 -2.4453 0.9204
11.1612 -16.9567 -2.4114 0.9215
11.7349 -16.5027 -2.4054 0.9217
12.8482 -15.5632 -2.3973 0.9219
13.3761 -15.0637 -2.3930 0.9221
14.3604 -13.9993 -2.3823 0.9224
15.3484 -12.9455 -2.3851 0.9223
15.7105 -12.3109 -2.3709 0.9227
17.2058 -9.8667 -2.3560 0.9232
18.4182 -9.6983 -2.4726 0.9196
19.0325 -9.1626 -2.5091 0.9184
19.3508 -8.4720 -2.5093 0.9184
19.6441 -7.7704 -2.5094 0.9184
19.9119 -7.0587 -2.5095 0.9184
20.5588 -4.8718 -2.5097 0.9184
20.7213 -4.1288 -2.5098 0.9184
20.8570 -3.3804 -2.5098 0.9184
21.0467 -1.8713 -2.5099 0.9184
21.1006 -1.1126 -2.5099 0.9184
21.1260 0.4082 -2.5099 0.9184
21.0975 1.1683 -2.5099 0.9184
21.0417 1.9269 -2.5099 0.9184
20.7103 4.1835 -2.5098 0.9184
20.3546 5.6622 -2.5096 0.9184
18.1845 8.0187 -2.3608 0.9231
17.8903 8.6710 -2.3616 0.9230
17.5648 9.3084 -2.3613 0.9230
17.2166 9.9335 -2.3611 0.9231
16.4539 11.1439 -2.3606 0.9231
15.6061 12.2958 -2.3600 0.9231
14.6777 13.3835 -2.3595 0.9231
13.6736 14.4012 -2.3589 0.9231
13.1448 14.8821 -2.3586 0.9231
12.5991 15.3437 -2.3583 0.9231
6.5898 8.6417 -1.2909 0.9572
10.2616 16.9842 -2.3571 0.9232
8.3679 17.9844 -2.3562 0.9232
7.7142 18.2716 -2.3559 0.9232
7.0506 18.5350 -2.3556 0.9232
5.6978 18.9900 -2.3551 0.9232
4.3160 19.3466 -2.3546 0.9233
3.6165 19.4873 -2.3543 0.9233
2.9125 19.6028 -2.3541 0.9233
2.2048 19.6929 -2.3539 0.9233
1.4945 19.7574 -2.3536 0.9233
0.7823 19.7964 -2.3534 0.9233
0.0693 19.8097 -2.3531 0.9233
-2.0655 19.6936 -2.3521 0.9233
-3.5141 -16.4989 -2.3902 0.9341
-2.9214 -16.6339 -2.3929 0.9340
-2.3231 -16.7446 -2.3953 0.9340
-0.5056 -16.9281 -2.3996 0.9339
1.3221 -16.8861 -2.3999 0.9339
3.1317 -16.6299 -2.3977 0.9339
5.4691 -15.9601 -2.3905 0.9341
6.5945 -15.5051 -2.3873 0.9342
7.1428 -15.2461 -2.3855 0.9342
7.6803 -14.9663 -2.3835 0.9343
8.2062 -14.6663 -2.3812 0.9344
8.7169 -14.3418 -2.3780 0.9344
9.2174 -14.0036 -2.3754 0.9345
9.7216 -13.6714 -2.3769 0.9345
10.2139 -13.3212 -2.3784 0.9344
10.6913 -12.9506 -2.3795 0.9344
12.3247 -11.1785 -2.3576 0.9350
13.0848 -10.2535 -2.3554 0.9350
14.4043 -9.7003 -2.4606 0.9322
15.0256 -9.3508 -2.5076 0.9310
15.3532 -8.8044 -2.5077 0.9310
15.9483 -7.6778 -2.5079 0.9310
16.4606 -6.5112 -2.5081 0.9310
16.6849 -5.9147 -2.5082 0.9310
17.0681 -4.6994 -2.5084 0.9310
17.2267 -4.0822 -2.5084 0.9310
17.5672 -2.2016 -2.5086 0.9310
17.6353 -1.5680 -2.5086 0.9310
17.6804 -0.9322 -2.5086 0.9310
17.7026 -0.2952 -2.5086 0.9310
17.7017 0.3421 -2.5086 0.9310
17.6779 0.9790 -2.5086 0.9310
17.5613 2.2481 -2.5086 0.9310
17.4688 2.8786 -2.5085 0.9310
17.3535 3.5054 -2.5085 0.9310
17.0556 4.7445 -2.5084 0.9310
16.8733 5.3551 -2.5083 0.9310
16.6691 5.9588 -2.5082 0.9310
14.9724 7.2568 -2.3575 0.9350
14.7098 7.7954 -2.3588 0.9350
14.4277 8.3243 -2.3601 0.9349
13.7900 9.3397 -2.3598 0.9349
13.0799 10.3055 -2.3594 0.9349
12.3023 11.2176 -2.3589 0.9350
11.8894 11.6519 -2.3587 0.9350
11.4611 12.0710 -2.3585 0.9350
10.5609 12.8615 -2.3580 0.9350
6.5891 8.6409 -1.5397 0.9570
8.0834 14.5367 -2.3567 0.9350
6.4673 15.3183 -2.3559 0.9350
5.9112 15.5394 -2.3557 0.9350
3.6185 16.2199 -2.3547 0.9351
3.0320 16.3379 -2.3544 0.9351
2.4418 16.4347 -2.3542 0.9351
1.8486 16.5106 -2.3540 0.9351
1.2530 16.5650 -2.3538 0.9351
0.6559 16.5980 -2.3536 0.9351
0.0581 16.6094 -2.3534 0.9351
-0.5397 16.5993 -2.3532 0.9351
-1.7321 16.5147 -2.3528 0.9351
-1.9687 -14.1902 -2.3601 0.9436
-1.4580 -14.2639 -2.3621 0.9435
-0.9443 -14.3169 -2.3637 0.9435
-0.4287 -14.3493 -2.3649 0.9435
1.6362 -14.2726 -2.3667 0.9434
5.1535 -13.4408 -2.3714 0.9433
7.0359 -12.5747 -2.3738 0.9433
7.4622 -12.2776 -2.3669 0.9434
7.8750 -11.9642 -2.3596 0.9436
9.8677 -10.3380 -2.3544 0.9437
10.2298 -9.9726 -2.3535 0.9437
10.7107 -9.7146 -2.3821 0.9431
11.9754 -9.3841 -2.5064 0.9402
13.2006 -7.5699 -2.5069 0.9402
13.4651 -7.0902 -2.5070 0.9402
14.3451 -5.0853 -2.5073 0.9402
14.5193 -4.5658 -2.5074 0.9402
14.6746 -4.0404 -2.5074 0.9402
14.9278 -2.9744 -2.5075 0.9402
15.1619 -1.3480 -2.5076 0.9402
15.2007 -0.8015 -2.5076 0.9402
15.2191 0.2941 -2.5076 0.9402
15.1583 1.3881 -2.5076 0.9402
15.0984 1.9328 -2.5076 0.9402
14.5071 4.6042 -2.5074 0.9402
13.9251 6.1405 -2.5071 0.9402
12.6316 6.6940 -2.3551 0.9437
12.3883 7.1477 -2.3562 0.9437
12.1286 7.5924 -2.3573 0.9436
11.8528 8.0277 -2.3583 0.9436
10.5792 9.6464 -2.3585 0.9436
10.2243 10.0200 -2.3583 0.9436
9.4753 10.7277 -2.3579 0.9436
9.0822 11.0608 -2.3577 0.9436
7.3983 12.2451 -2.3568 0.9437
6.9521 12.5023 -2.3566 0.9437
6.0336 12.9676 -2.3562 0.9437
5.5625 13.1751 -2.3560 0.9437
3.6129 13.8318 -2.3551 0.9437
3.1125 13.9517 -2.3549 0.9437
-0.4642 14.2782 -2.3534 0.9437
-0.9777 14.2511 -2.3532 0.9437
-1.4899 14.2056 -2.3530 0.9437
-2.6178 -12.2914 -2.3621 0.9501
-1.7277 -12.4554 -2.3636 0.9501
0.0773 -12.5874 -2.3660 0.9501
0.5304 -12.5793 -2.3665 0.9500
2.3308 -12.3768 -2.3672 0.9500
3.6387 -12.0120 -2.3591 0.9502
6.1166 -10.9316 -2.3545 0.9503
8.0219 -9.7170 -2.3684 0.9500
9.2031 -9.6416 -2.5053 0.9472
9.5446 -9.3046 -2.5054 0.9472
9.8738 -8.9555 -2.5056 0.9472
10.4935 -8.2229 -2.5058 0.9472
10.7832 -7.8402 -2.5059 0.9472
11.5668 -6.6330 -2.5062 0.9472
11.7985 -6.2126 -2.5063 0.9472
12.2156 -5.3482 -2.5065 0.9472
12.5694 -4.4558 -2.5066 0.9472
12.7219 -4.0006 -2.5067 0.9472
12.9773 -3.0752 -2.5068 0.9472
13.1653 -2.1337 -2.5068 0.9472
13.2849 -1.1812 -2.5069 0.9472
13.3356 -0.2224 -2.5069 0.9472
13.2817 1.2163 -2.5069 0.9472
12.7113 4.0342 -2.5067 0.9472
12.5576 4.4890 -2.5066 0.9472
12.3875 4.9379 -2.5065 0.9472
12.2014 5.3804 -2.5065 0.9472
10.1184 7.3978 -2.3560 0.9503
9.8492 7.7600 -2.3568 0.9502
9.5668 8.1123 -2.3576 0.9502
9.2710 8.4536 -2.3582 0.9502
8.9601 8.7811 -2.3581 0.9502
8.6376 9.0972 -2.3579 0.9502
7.9595 9.6935 -2.3575 0.9502
6.5125 8.5404 -2.0187 0.9572
6.8667 10.4924 -2.3569 0.9502
6.4840 10.7319 -2.3568 0.9502
6.0931 10.9574 -2.3566 0.9503
5.2882 11.3655 -2.3562 0.9503
4.4562 11.7146 -2.3558 0.9503
4.0313 11.8664 -2.3556 0.9503
3.6013 12.0028 -2.3554 0.9503
3.1667 12.1237 -2.3552 0.9503
2.7281 12.2288 -2.3550 0.9503
1.3938 12.4487 -2.3545 0.9503
-0.4069 12.5160 -2.3538 0.9503
-0.8571 12.4924 -2.3536 0.9503
-1.3060 12.4525 -2.3534 0.9503
-2.3171 -10.8784 -2.3511 0.9555
-1.9243 -10.9564 -2.3514 0.9555
-1.1314 -11.0694 -2.3520 0.9555
-0.3323 -11.1242 -2.3525 0.9555
0.0683 -11.1298 -2.3527 0.9555
0.4689 -11.1208 -2.3528 0.9555
0.8689 -11.0971 -2.3529 0.9555
1.6650 -11.0062 -2.3530 0.9555
2.0600 -10.9390 -2.3529 0.9555
2.4523 -10.8575 -2.3529 0.9555
3.2267 -10.6518 -2.3526 0.9555
3.6077 -10.5279 -2.3524 0.9555
3.9839 -10.3903 -2.3522 0.9555
4.3548 -10.2391 -2.3520 0.9555
6.8660 -9.6555 -2.5044 0.9527
7.2094 -9.4026 -2.5045 0.9527
7.5436 -9.1375 -2.5047 0.9527
7.8680 -8.8606 -2.5048 0.9527
8.4858 -8.2724 -2.5050 0.9527
8.7784 -7.9620 -2.5051 0.9527
9.0597 -7.6412 -2.5052 0.9527
9.3292 -7.3105 -2.5054 0.9527
9.5867 -6.9703 -2.5055 0.9527
9.8317 -6.6210 -2.5055 0.9527
10.0640 -6.2630 -2.5056 0.9527
10.4892 -5.5232 -2.5058 0.9527
11.0243 -4.3608 -2.5060 0.9527
11.1744 -3.9613 -2.5061 0.9527
11.7040 -1.8969 -2.5063 0.9527
11.7648 -1.4744 -2.5063 0.9527
11.8103 -1.0500 -2.5063 0.9527
11.8405 -0.6243 -2.5063 0.9527
11.8548 0.2291 -2.5063 0.9527
11.8075 1.0813 -2.5063 0.9527
11.7609 1.5056 -2.5063 0.9527
11.6989 1.9278 -2.5063 0.9527
11.6218 2.3476 -2.5062 0.9527
11.4225 3.1775 -2.5062 0.9527
11.3005 3.5865 -2.5061 0.9527
10.4745 5.5509 -2.5058 0.9527
9.9025 6.1989 -2.4695 0.9534
8.9872 6.5708 -2.3533 0.9555
8.2343 7.5083 -2.3555 0.9555
7.9610 7.8020 -2.3562 0.9555
7.6772 8.0857 -2.3568 0.9554
6.2987 8.9075 -2.3060 0.9564
5.7655 9.5426 -2.3567 0.9554
5.4179 9.7432 -2.3565 0.9554
5.0633 9.9312 -2.3563 0.9554
4.7023 10.1063 -2.3562 0.9555
4.3352 10.2682 -2.3560 0.9555
3.9625 10.4168 -2.3558 0.9555
3.2024 10.6733 -2.3555 0.9555
2.4260 10.8745 -2.3552 0.9555
1.2395 11.0703 -2.3547 0.9555
0.4398 11.1293 -2.3543 0.9555
0.0390 11.1372 -2.3542 0.9555
-0.7622 11.1096 -2.3539 0.9555
-1.1615 11.0743 -2.3537 0.9555
-2.0817 -9.7734 -2.3485 0.9598
-1.7287 -9.8426 -2.3486 0.9598
-1.3734 -9.8991 -2.3488 0.9598
-1.0163 -9.9433 -2.3491 0.9598
0.0614 -9.9973 -2.3496 0.9598
0.4212 -9.9891 -2.3498 0.9598
0.7805 -9.9678 -2.3498 0.9597
1.1387 -9.9335 -2.3499 0.9597
1.4955 -9.8861 -2.3499 0.9597
1.8505 -9.8264 -2.3500 0.9597
2.9424 -9.7135 -2.3854 0.9592
4.1241 -9.6967 -2.4765 0.9576
4.8636 -9.4775 -2.5036 0.9572
5.2019 -9.2968 -2.5037 0.9572
5.5334 -9.1040 -2.5039 0.9572
6.4834 -8.4558 -2.5042 0.9572
6.7839 -8.2173 -2.5044 0.9572
7.0756 -7.9682 -2.5045 0.9572
7.6311 -7.4392 -2.5047 0.9572
7.8942 -7.1600 -2.5048 0.9572
8.8413 -5.9540 -2.5052 0.9571
9.0502 -5.6321 -2.5052 0.9571
9.2473 -5.3029 -2.5053 0.9571
9.4324 -4.9668 -2.5054 0.9571
9.6053 -4.6242 -2.5055 0.9571
9.7658 -4.2756 -2.5055 0.9571
9.9136 -3.9214 -2.5056 0.9571
10.3744 -2.4584 -2.5058 0.9571
10.4563 -2.0834 -2.5058 0.9571
10.5246 -1.7058 -2.5058 0.9571
10.5793 -1.3259 -2.5058 0.9571
10.6474 -0.5614 -2.5059 0.9571
10.5758 1.3538 -2.5058 0.9571
10.5201 1.7336 -2.5058 0.9571
10.1619 3.2251 -2.5057 0.9571
10.0390 3.5887 -2.5056 0.9571
9.9032 3.9476 -2.5056 0.9571
9.7544 4.3014 -2.5055 0.9571
9.4193 4.9917 -2.5054 0.9571
9.2332 5.3273 -2.5053 0.9571
9.0352 5.6560 -2.5052 0.9571
7.8974 6.2223 -2.3629 0.9595
7.3986 6.7462 -2.3532 0.9597
7.1528 7.0099 -2.3538 0.9597
6.6332 7.5099 -2.3549 0.9597
6.3600 7.7455 -2.3554 0.9597
6.0784 7.9711 -2.3559 0.9596
4.8728 8.7629 -2.3565 0.9596
3.8991 9.2353 -2.3560 0.9596
3.2242 9.4906 -2.3557 0.9597
2.8803 9.5999 -2.3556 0.9597
2.5328 9.6967 -2.3554 0.9597
1.4726 9.9113 -2.3550 0.9597
1.1148 9.9573 -2.3548 0.9597
0.3956 10.0104 -2.3545 0.9597
-0.6856 9.9930 -2.3541 0.9597
-1.0448 9.9613 -2.3540 0.9597
-1.3275 -9.5685 -2.5012 0.9609
-0.6358 -9.6403 -2.5015 0.9609
0.0593 -9.6621 -2.5017 0.9609
0.4071 -9.6542 -2.5019 0.9609
1.7886 -9.4979 -2.5024 0.9609
2.1294 -9.4279 -2.5025 0.9609
2.4675 -9.3456 -2.5027 0.9608
2.8024 -9.2512 -2.5028 0.9608
4.1015 -8.7551 -2.5033 0.9608
4.4145 -8.6022 -2.5034 0.9608
4.7214 -8.4382 -2.5036 0.9608
5.3167 -8.0774 -2.5038 0.9608
6.4219 -7.2321 -2.5042 0.9608
6.6783 -6.9966 -2.5043 0.9608
6.9261 -6.7519 -2.5044 0.9608
7.8244 -5.6889 -2.5048 0.9608
8.2139 -5.1117 -2.5049 0.9608
8.3928 -4.8129 -2.5050 0.9608
8.5608 -4.5077 -2.5051 0.9608
8.7177 -4.1968 -2.5051 0.9608
8.9974 -3.5590 -2.5052 0.9608
9.1198 -3.2329 -2.5053 0.9608
9.2304 -2.9026 -2.5053 0.9608
9.5519 -1.5481 -2.5054 0.9608
9.6387 -0.8570 -2.5055 0.9608
9.6633 -0.5095 -2.5055 0.9608
9.6749 0.1870 -2.5055 0.9608
9.6619 0.5351 -2.5055 0.9608
9.5983 1.2287 -2.5055 0.9608
9.4097 2.2561 -2.5054 0.9608
9.1113 3.2571 -2.5053 0.9608
8.9880 3.5828 -2.5052 0.9608
8.8530 3.9039 -2.5052 0.9608
8.5488 4.5304 -2.5050 0.9608
8.3800 4.8350 -2.5050 0.9608
8.2003 5.1334 -2.5049 0.9608
7.8093 5.7096 -2.5048 0.9608
7.5985 5.9868 -2.5047 0.9608
6.0156 6.8107 -2.3528 0.9631
5.7678 7.0243 -2.3533 0.9631
5.2495 7.4237 -2.3541 0.9631
4.7033 7.7846 -2.3549 0.9631
4.4207 7.9499 -2.3552 0.9631
4.1322 8.1049 -2.3555 0.9631
3.8383 8.2493 -2.3558 0.9631
3.5393 8.3830 -2.3560 0.9631
3.2351 8.5045 -2.3559 0.9631
2.9267 8.6149 -2.3557 0.9631
2.6146 8.7141 -2.3556 0.9631
2.2991 8.8021 -2.3555 0.9631
1.6598 8.9436 -2.3552 0.9631
1.3367 8.9970 -2.3551 0.9631
0.0318 9.0937 -2.3545 0.9631
-0.2955 9.0885 -2.3544 0.9631
-0.9484 9.0427 -2.3542 0.9631
-1.5283 -8.7018 -2.5011 0.9639
-1.2136 -8.7515 -2.5012 0.9639
-0.8978 -8.7900 -2.5014 0.9639
-0.5815 -8.8171 -2.5015 0.9639
0.6899 -8.8110 -2.5020 0.9639
1.0060 -8.7809 -2.5021 0.9639
1.3221 -8.7395 -2.5022 0.9639
1.9475 -8.6225 -2.5025 0.9639
2.2567 -8.5473 -2.5026 0.9639
3.1653 -8.2554 -2.5029 0.9639
3.4605 -8.1365 -2.5031 0.9639
3.7513 -8.0070 -2.5032 0.9639
4.3180 -7.7171 -2.5034 0.9639
4.8623 -7.3871 -2.5036 0.9639
5.1253 -7.2076 -2.5037 0.9639
5.6309 -6.8208 -2.5039 0.9639
6.1075 -6.3985 -2.5041 0.9639
6.3340 -6.1748 -2.5042 0.9639
6.7623 -5.7035 -2.5044 0.9639
7.6752 -4.4013 -2.5047 0.9639
7.9723 -3.8380 -2.5048 0.9639
8.5313 -2.3489 -2.5050 0.9639
8.6105 -2.0404 -2.5051 0.9639
8.7351 -1.4157 -2.5051 0.9639
8.7805 -1.1004 -2.5051 0.9639
8.8370 -0.4659 -2.5052 0.9639
8.8480 -0.1475 -2.5052 0.9639
8.8357 0.4893 -2.5052 0.9639
8.8123 0.8070 -2.5051 0.9639
8.7775 1.1236 -2.5051 0.9639
8.4341 2.6768 -2.5050 0.9639
8.2194 3.2764 -2.5049 0.9639
7.6635 4.4216 -2.5047 0.9639
7.3252 4.9612 -2.5046 0.9639
7.1419 5.2215 -2.5045 0.9639
6.7472 5.7214 -2.5043 0.9639
6.5367 5.9603 -2.5043 0.9639
6.3177 6.1915 -2.5042 0.9639
5.8935 6.2071 -2.4231 0.9650
5.5034 6.2308 -2.3534 0.9660
5.0376 6.6062 -2.3519 0.9661
4.5507 6.9537 -2.3526 0.9660
4.2981 7.1139 -2.3529 0.9660
4.0398 7.2650 -2.3532 0.9660
3.5075 7.5384 -2.3538 0.9660
3.2342 7.6605 -2.3540 0.9660
2.9566 7.7725 -2.3542 0.9660
2.3902 7.9661 -2.3545 0.9660
0.6274 8.2939 -2.3546 0.9660
0.3284 8.3109 -2.3546 0.9660
-0.2702 8.3121 -2.3543 0.9660
-0.5692 8.2965 -2.3542 0.9660
-1.4067 -8.0092 -2.5012 0.9665
-1.1176 -8.0550 -2.5013 0.9665
-0.8269 -8.0903 -2.5014 0.9665
-0.5352 -8.1152 -2.5015 0.9665
-0.2428 -8.1296 -2.5016 0.9665
0.0499 -8.1335 -2.5017 0.9665
0.3426 -8.1268 -2.5019 0.9665
0.9265 -8.0818 -2.5021 0.9665
1.2168 -8.0436 -2.5022 0.9665
2.0770 -7.8666 -2.5025 0.9665
2.3589 -7.7871 -2.5026 0.9665
2.9132 -7.5979 -2.5029 0.9665
3.1849 -7.4884 -2.5030 0.9665
3.7157 -7.2405 -2.5032 0.9665
3.9740 -7.1024 -2.5033 0.9665
4.2273 -6.9550 -2.5034 0.9665
4.4750 -6.7986 -2.5035 0.9665
5.1823 -6.2774 -2.5037 0.9665
5.4051 -6.0870 -2.5038 0.9665
5.8293 -5.6828 -2.5040 0.9665
6.7535 -4.5480 -2.5043 0.9665
6.9130 -4.3021 -2.5044 0.9665
7.3369 -3.5321 -2.5046 0.9665
7.4594 -3.2658 -2.5046 0.9665
7.6753 -2.7209 -2.5047 0.9665
8.1119 -0.7212 -2.5049 0.9665
8.1326 -0.4288 -2.5049 0.9665
8.1428 -0.1358 -2.5049 0.9665
8.1314 0.4503 -2.5049 0.9665
8.0779 1.0341 -2.5049 0.9665
8.0354 1.3242 -2.5048 0.9665
7.9825 1.6125 -2.5048 0.9665
7.9192 1.8987 -2.5048 0.9665
7.8456 2.1825 -2.5048 0.9665
7.4508 3.2856 -2.5046 0.9665
7.3276 3.5515 -2.5046 0.9665
7.0528 4.0692 -2.5045 0.9665
6.5726 4.8054 -2.5043 0.9665
6.2095 5.2655 -2.5041 0.9665
6.0158 5.4854 -2.5041 0.9665
5.6053 5.9036 -2.5039 0.9665
5.3890 6.1013 -2.5038 0.9665
5.0901 6.1989 -2.4671 0.9670
4.7362 6.2109 -2.4024 0.9678
3.7155 6.6818 -2.3516 0.9685
3.4730 6.8120 -2.3518 0.9685
3.2259 6.9332 -2.3520 0.9685
2.7192 7.1485 -2.3524 0.9685
1.6656 7.4661 -2.3528 0.9685
0.8512 7.6023 -2.3529 0.9685
0.3021 7.6434 -2.3528 0.9685
-0.2485 7.6447 -2.3526 0.9685
-1.5675 -7.3591 -2.5011 0.9688
-1.0341 -7.4535 -2.5013 0.9688
-0.4953 -7.5092 -2.5015 0.9688
0.0462 -7.5260 -2.5017 0.9688
1.9218 -7.2789 -2.5025 0.9688
2.1826 -7.2053 -2.5026 0.9688
2.6955 -7.0302 -2.5028 0.9688
3.1945 -6.8186 -2.5030 0.9688
3.9113 -6.4352 -2.5032 0.9688
4.1406 -6.2905 -2.5033 0.9688
4.3644 -6.1376 -2.5034 0.9688
4.7950 -5.8081 -2.5036 0.9688
5.0011 -5.6320 -2.5037 0.9688
5.2007 -5.4485 -2.5037 0.9687
5.3936 -5.2580 -2.5038 0.9687
5.5795 -5.0606 -2.5039 0.9687
6.0929 -4.4301 -2.5041 0.9687
6.2486 -4.2080 -2.5041 0.9687
6.5354 -3.7478 -2.5043 0.9687
6.6662 -3.5101 -2.5043 0.9687
6.9017 -3.0216 -2.5044 0.9687
7.1014 -2.5174 -2.5045 0.9687
7.1875 -2.2602 -2.5045 0.9687
7.2643 -2.0001 -2.5045 0.9687
7.3316 -1.7373 -2.5046 0.9687
7.3895 -1.4724 -2.5046 0.9687
7.4378 -1.2055 -2.5046 0.9687
7.4764 -0.9370 -2.5046 0.9687
7.5053 -0.6673 -2.5046 0.9687
7.5245 -0.3967 -2.5046 0.9687
7.5234 0.4167 -2.5046 0.9687
7.5035 0.6871 -2.5046 0.9687
7.3856 1.4919 -2.5046 0.9687
7.2590 2.0193 -2.5045 0.9687
7.1815 2.2792 -2.5045 0.9687
6.9987 2.7899 -2.5044 0.9687
6.7797 3.2860 -2.5044 0.9687
6.5255 3.7650 -2.5043 0.9687
6.2375 4.2245 -2.5041 0.9687
5.9171 4.6620 -2.5040 0.9687
4.9862 5.6452 -2.5037 0.9688
4.7796 5.8208 -2.5036 0.9688
4.5669 5.9889 -2.5035 0.9688
4.3482 6.1492 -2.5034 0.9688
2.9831 6.4113 -2.3505 0.9706
2.5145 6.6103 -2.3509 0.9706
2.0327 6.7748 -2.3511 0.9706
1.7876 6.8438 -2.3512 0.9706
1.0396 6.9969 -2.3513 0.9706
0.5335 7.0535 -2.3513 0.9706
0.0248 7.0732 -2.3512 0.9706
-0.4841 7.0559 -2.3509 0.9706
-0.7377 7.0334 -2.3508 0.9706
-1.4570 -6.8406 -2.5011 0.9707
-1.2099 -6.8889 -2.5012 0.9707
-0.7113 -6.9586 -2.5014 0.9707
-0.4604 -6.9800 -2.5015 0.9707
-0.2089 -6.9923 -2.5016 0.9707
0.0429 -6.9956 -2.5017 0.9707
0.5461 -6.9749 -2.5019 0.9707
1.0465 -6.9181 -2.5021 0.9707
1.2949 -6.8762 -2.5022 0.9707
1.5416 -6.8254 -2.5023 0.9707
1.7864 -6.7658 -2.5024 0.9707
2.0288 -6.6974 -2.5025 0.9707
3.1956 -6.2271 -2.5030 0.9707
4.0567 -5.7048 -2.5033 0.9707
4.2595 -5.5553 -2.5034 0.9707
4.6484 -5.2348 -2.5035 0.9707
5.0132 -4.8871 -2.5037 0.9707
5.1860 -4.7037 -2.5037 0.9707
5.6632 -4.1175 -2.5039 0.9707
5.9450 -3.6997 -2.5040 0.9707
6.0744 -3.4834 -2.5041 0.9707
6.4148 -2.8085 -2.5042 0.9707
6.5119 -2.5758 -2.5043 0.9707
6.7518 -1.8590 -2.5043 0.9707
6.9130 -1.1204 -2.5044 0.9707
6.9489 -0.8709 -2.5044 0.9707
6.9758 -0.6202 -2.5044 0.9707
6.9741 0.6387 -2.5044 0.9707
6.9466 0.8893 -2.5044 0.9707
6.8645 1.3867 -2.5044 0.9707
6.6749 2.1184 -2.5043 0.9707
6.5942 2.3573 -2.5043 0.9707
6.5050 2.5930 -2.5042 0.9707
6.4074 2.8255 -2.5042 0.9707
6.3014 3.0542 -2.5042 0.9707
5.7975 3.9265 -2.5040 0.9707
5.3401 4.5282 -2.5038 0.9707
5.1735 4.7174 -2.5037 0.9707
5.0003 4.9004 -2.5037 0.9707
4.8205 5.0770 -2.5036 0.9707
4.6344 5.2471 -2.5035 0.9707
4.4425 5.4104 -2.5034 0.9707
3.8331 5.8571 -2.5032 0.9707
3.6197 5.9911 -2.5031 0.9707
3.4016 6.1173 -2.5030 0.9707
3.1585 6.1951 -2.4867 0.9709
2.8860 6.2026 -2.4464 0.9714
2.1165 6.2300 -2.3529 0.9724
1.8886 6.2944 -2.3500 0.9725
1.6607 6.3581 -2.3500 0.9725
1.4308 6.4137 -2.3499 0.9725
0.7312 6.5307 -2.3500 0.9725
0.2595 6.5661 -2.3499 0.9725
0.0230 6.5709 -2.3498 0.9725
-1.3597 -6.3836 -2.5012 0.9724
-0.8970 -6.4653 -2.5014 0.9724
-0.6637 -6.4937 -2.5015 0.9724
-0.4296 -6.5136 -2.5015 0.9724
-0.1949 -6.5250 -2.5016 0.9724
1.2084 -6.4166 -2.5022 0.9724
1.4386 -6.3692 -2.5023 0.9724
1.6669 -6.3135 -2.5024 0.9724
1.8932 -6.2496 -2.5025 0.9724
2.1169 -6.1777 -2.5025 0.9724
2.7708 -5.9141 -2.5028 0.9724
3.1892 -5.6998 -2.5030 0.9724
3.3924 -5.5815 -2.5030 0.9724
3.9746 -5.1838 -2.5033 0.9724
4.1588 -5.0375 -2.5033 0.9724
4.3375 -4.8847 -2.5034 0.9724
4.6779 -4.5603 -2.5035 0.9724
4.8391 -4.3891 -2.5036 0.9724
5.1426 -4.0298 -2.5037 0.9724
5.2844 -3.8421 -2.5038 0.9724
5.4194 -3.6495 -2.5038 0.9724
5.7815 -3.0443 -2.5040 0.9724
5.9857 -2.6206 -2.5040 0.9724
6.2336 -1.9602 -2.5041 0.9724
6.3585 -1.5067 -2.5042 0.9724
6.4087 -1.2769 -2.5042 0.9724
6.4840 -0.8126 -2.5042 0.9724
6.5091 -0.5787 -2.5042 0.9724
6.5248 0.3613 -2.5043 0.9724
6.5076 0.5960 -2.5042 0.9724
6.4819 0.8298 -2.5042 0.9724
6.4053 1.2939 -2.5042 0.9724
6.2955 1.7513 -2.5042 0.9724
6.2284 1.9767 -2.5041 0.9724
6.1531 2.1996 -2.5041 0.9724
6.0699 2.4196 -2.5041 0.9724
5.8799 2.8499 -2.5040 0.9724
5.6595 3.2654 -2.5039 0.9724
5.2742 3.8562 -2.5038 0.9724
4.9829 4.2254 -2.5037 0.9724
4.8275 4.4019 -2.5036 0.9724
4.4981 4.7375 -2.5035 0.9724
4.3246 4.8962 -2.5034 0.9724
4.1454 5.0485 -2.5033 0.9724
3.9609 5.1943 -2.5033 0.9724
3.7713 5.3333 -2.5032 0.9724
3.5768 5.4655 -2.5031 0.9724
2.9666 5.8186 -2.5029 0.9724
2.5401 6.0165 -2.5027 0.9724
2.3219 6.1039 -2.5026 0.9724
1.6196 6.2007 -2.4559 0.9729
1.3841 6.2044 -2.4361 0.9731
1.1520 6.2075 -2.4194 0.9733
0.6955 6.2119 -2.3954 0.9736
-0.4264 6.2134 -2.3867 0.9737
-0.6515 6.2121 -2.3936 0.9736
-1.2731 -5.9773 -2.5012 0.9739
-0.8399 -6.0537 -2.5014 0.9739
-0.4023 -6.0989 -2.5016 0.9739
-0.1825 -6.1096 -2.5016 0.9739
0.4772 -6.0943 -2.5019 0.9739
0.9144 -6.0446 -2.5021 0.9739
1.1314 -6.0080 -2.5022 0.9739
1.3470 -5.9636 -2.5022 0.9739
1.7726 -5.8516 -2.5024 0.9739
2.5943 -5.5374 -2.5027 0.9739
2.7920 -5.4406 -2.5028 0.9739
3.3625 -5.1084 -2.5030 0.9739
3.5443 -4.9842 -2.5031 0.9739
3.7214 -4.8536 -2.5032 0.9739
4.0612 -4.5735 -2.5033 0.9739
4.3799 -4.2697 -2.5034 0.9739
4.5308 -4.1094 -2.5035 0.9739
5.4131 -2.8503 -2.5038 0.9739
5.6043 -2.4536 -2.5039 0.9739
5.6891 -2.2503 -2.5039 0.9739
5.7664 -2.0442 -2.5040 0.9739
5.8364 -1.8353 -2.5040 0.9739
5.9533 -1.4107 -2.5040 0.9739
6.0003 -1.1956 -2.5041 0.9739
6.0395 -0.9788 -2.5041 0.9739
6.0708 -0.7608 -2.5041 0.9739
6.0943 -0.5418 -2.5041 0.9739
6.1099 -0.3221 -2.5041 0.9739
6.1090 0.3383 -2.5041 0.9739
6.0929 0.5580 -2.5041 0.9739
5.9496 1.4265 -2.5040 0.9739
5.7610 2.0594 -2.5040 0.9739
5.5978 2.4685 -2.5039 0.9739
5.5052 2.6683 -2.5039 0.9739
5.4056 2.8647 -2.5038 0.9739
4.9382 3.6104 -2.5036 0.9739
4.8049 3.7858 -2.5036 0.9739
4.6655 3.9562 -2.5035 0.9739
4.5200 4.1214 -2.5035 0.9739
4.3686 4.2813 -2.5034 0.9739
4.2116 4.4357 -2.5034 0.9739
4.0491 4.5843 -2.5033 0.9739
3.3490 5.1173 -2.5030 0.9739
3.1619 5.2344 -2.5029 0.9739
2.9720 5.3447 -2.5029 0.9739
2.3784 5.6334 -2.5026 0.9739
2.1740 5.7151 -2.5026 0.9739
1.9668 5.7895 -2.5025 0.9739
1.7571 5.8563 -2.5024 0.9739
1.5452 5.9156 -2.5023 0.9739
1.1155 6.0110 -2.5021 0.9739
0.8984 6.0471 -2.5021 0.9739
0.6802 6.0753 -2.5020 0.9739
0.0214 6.1126 -2.5017 0.9739
-0.1986 6.1092 -2.5016 0.9739
-0.6375 6.0786 -2.5015 0.9739
-0.9928 -5.6528 -2.5013 0.9753
-0.7887 -5.6851 -2.5014 0.9753
-0.5836 -5.7100 -2.5015 0.9753
-0.3778 -5.7275 -2.5016 0.9753
-0.1714 -5.7375 -2.5016 0.9753
0.2418 -5.7354 -2.5018 0.9753
0.8587 -5.6765 -2.5021 0.9753
1.0625 -5.6420 -2.5021 0.9753
1.2649 -5.6003 -2.5022 0.9753
1.6646 -5.4952 -2.5024 0.9753
2.2474 -5.2842 -2.5026 0.9753
3.1576 -4.7971 -2.5029 0.9753
3.4947 -4.5578 -2.5031 0.9753
3.6566 -4.4292 -2.5031 0.9753
3.8137 -4.2948 -2.5032 0.9752
3.9659 -4.1549 -2.5033 0.9752
4.1130 -4.0095 -2.5033 0.9752
4.5215 -3.5431 -2.5035 0.9752
4.7648 -3.2088 -2.5036 0.9752
4.8773 -3.0352 -2.5036 0.9752
4.9835 -2.8578 -2.5037 0.9752
5.0832 -2.6766 -2.5037 0.9752
5.1763 -2.4920 -2.5037 0.9752
5.2627 -2.3041 -2.5038 0.9752
5.3423 -2.1132 -2.5038 0.9752
5.4150 -1.9195 -2.5038 0.9752
5.5905 -1.3247 -2.5039 0.9752
5.6346 -1.1227 -2.5039 0.9752
5.6714 -0.9191 -2.5039 0.9752
5.7228 -0.5088 -2.5039 0.9752
5.7374 -0.3025 -2.5039 0.9752
5.7446 -0.0958 -2.5040 0.9752
5.7444 0.1110 -2.5040 0.9752
5.6689 0.9342 -2.5039 0.9752
5.6316 1.1376 -2.5039 0.9752
5.5351 1.5398 -2.5039 0.9752
5.4760 1.7380 -2.5038 0.9752
5.4099 1.9339 -2.5038 0.9752
5.0761 2.6901 -2.5037 0.9752
4.5121 3.5551 -2.5035 0.9752
4.2445 3.8703 -2.5034 0.9752
3.9549 4.1654 -2.5033 0.9752
3.8023 4.3049 -2.5032 0.9752
3.4826 4.5671 -2.5031 0.9753
3.1449 4.8055 -2.5029 0.9753
2.7909 5.0190 -2.5028 0.9753
2.6084 5.1161 -2.5027 0.9753
2.4224 5.2065 -2.5027 0.9753
2.0416 5.3669 -2.5025 0.9753
1.8470 5.4368 -2.5024 0.9753
1.2501 5.6037 -2.5022 0.9753
0.8437 5.6788 -2.5020 0.9753
0.6388 5.7053 -2.5020 0.9753
0.4330 5.7243 -2.5019 0.9753
0.2267 5.7360 -2.5018 0.9753
-0.1865 5.7371 -2.5016 0.9753
-1.1257 -5.2851 -2.5013 0.9765
-0.5495 -5.3761 -2.5015 0.9765
-0.1614 -5.4020 -2.5017 0.9765
0.0332 -5.4045 -2.5017 0.9765
0.4219 -5.3884 -2.5019 0.9765
1.1909 -5.2728 -2.5022 0.9765
1.7525 -5.1141 -2.5024 0.9765
2.1160 -4.9751 -2.5025 0.9765
2.4685 -4.8102 -2.5027 0.9765
2.8083 -4.6204 -2.5028 0.9764
3.2902 -4.2911 -2.5030 0.9764
3.4426 -4.1701 -2.5031 0.9764
3.5906 -4.0436 -2.5031 0.9764
3.8723 -3.7749 -2.5032 0.9764
4.1340 -3.4867 -2.5033 0.9764
4.2569 -3.3358 -2.5034 0.9764
4.3743 -3.1804 -2.5034 0.9764
4.4860 -3.0210 -2.5035 0.9764
4.5919 -2.8576 -2.5035 0.9764
4.6919 -2.6906 -2.5035 0.9764
4.7857 -2.5200 -2.5036 0.9764
5.0297 -1.9895 -2.5037 0.9764
5.2149 -1.4358 -2.5037 0.9764
5.3394 -0.8653 -2.5038 0.9764
5.3879 -0.4790 -2.5038 0.9764
5.4017 -0.2848 -2.5038 0.9764
5.3866 0.4933 -2.5038 0.9764
5.2600 1.2612 -2.5038 0.9764
5.1555 1.6363 -2.5037 0.9764
4.9490 2.1824 -2.5036 0.9764
4.7790 2.5327 -2.5036 0.9764
4.5843 2.8698 -2.5035 0.9764
4.4780 3.0329 -2.5035 0.9764
4.1248 3.4977 -2.5033 0.9764
3.9961 3.6438 -2.5033 0.9764
3.8623 3.7852 -2.5032 0.9764
3.2789 4.2999 -2.5030 0.9764
3.1219 4.4150 -2.5029 0.9764
2.7961 4.6279 -2.5028 0.9764
2.6277 4.7254 -2.5027 0.9764
2.2808 4.9019 -2.5026 0.9765
2.1028 4.9807 -2.5025 0.9765
1.7390 5.1188 -2.5024 0.9765
0.9863 5.3147 -2.5021 0.9765
0.7944 5.3466 -2.5020 0.9765
0.2134 5.4006 -2.5018 0.9765
0.0189 5.4046 -2.5017 0.9765
-0.3699 5.3917 -2.5016 0.9765
-1.0623 -4.9873 -2.5013 0.9775
-0.8821 -5.0225 -2.5014 0.9775
-0.1523 -5.0977 -2.5017 0.9775
0.0313 -5.1000 -2.5017 0.9775
0.7629 -5.0433 -2.5020 0.9775
1.4789 -4.8821 -2.5023 0.9775
1.8264 -4.7634 -2.5024 0.9775
1.9967 -4.6947 -2.5025 0.9775
2.1644 -4.6199 -2.5026 0.9775
2.6500 -4.3600 -2.5027 0.9775
3.2485 -3.9350 -2.5030 0.9775
3.3882 -3.8156 -2.5030 0.9775
3.5234 -3.6912 -2.5031 0.9775
3.6540 -3.5621 -2.5031 0.9775
4.0169 -3.1477 -2.5033 0.9775
4.3330 -2.6965 -2.5034 0.9775
4.4273 -2.5388 -2.5034 0.9775
4.5159 -2.3779 -2.5035 0.9775
4.7460 -1.8773 -2.5036 0.9775
4.9665 -1.1769 -2.5036 0.9775
5.0057 -0.9974 -2.5037 0.9775
5.0645 -0.6347 -2.5037 0.9775
5.1034 -0.0851 -2.5037 0.9775
5.0628 0.6481 -2.5037 0.9775
5.0362 0.8300 -2.5037 0.9775
5.0030 1.0107 -2.5037 0.9775
4.9634 1.1901 -2.5036 0.9775
4.9173 1.3679 -2.5036 0.9775
4.8648 1.5440 -2.5036 0.9775
4.5927 2.2260 -2.5035 0.9775
4.5096 2.3899 -2.5035 0.9775
4.1197 3.0121 -2.5033 0.9775
4.0086 3.1583 -2.5033 0.9775
3.8922 3.3005 -2.5032 0.9775
3.7708 3.4384 -2.5032 0.9775
3.5136 3.7006 -2.5031 0.9775
3.3781 3.8246 -2.5030 0.9775
3.2381 3.9436 -2.5030 0.9775
3.0940 4.0575 -2.5029 0.9775
2.9459 4.1661 -2.5029 0.9775
2.7940 4.2694 -2.5028 0.9775
2.3174 4.5453 -2.5026 0.9775
1.8138 4.7682 -2.5024 0.9775
1.6410 4.8303 -2.5024 0.9775
1.4660 4.8861 -2.5023 0.9775
1.2892 4.9356 -2.5022 0.9775
0.9307 5.0153 -2.5021 0.9775
0.5675 5.0689 -2.5019 0.9775
0.3847 5.0859 -2.5019 0.9775
0.2014 5.0963 -2.5018 0.9775
0.0178 5.1001 -2.5017 0.9775
-0.3491 5.0879 -2.5016 0.9775
-1.0044 -4.7157 -2.5013 0.9785
-0.6627 -4.7761 -2.5015 0.9785
-0.1440 -4.8200 -2.5017 0.9785
0.0296 -4.8222 -2.5017 0.9785
0.2032 -4.8182 -2.5018 0.9785
0.3764 -4.8079 -2.5019 0.9785
1.0626 -4.7045 -2.5021 0.9785
1.2313 -4.6634 -2.5022 0.9785
1.3983 -4.6162 -2.5023 0.9785
1.5636 -4.5630 -2.5023 0.9785
1.7269 -4.5039 -2.5024 0.9785
1.8879 -4.4389 -2.5025 0.9785
2.3555 -4.2098 -2.5026 0.9785
2.6524 -4.0297 -2.5027 0.9785
2.7958 -3.9317 -2.5028 0.9785
3.0715 -3.7205 -2.5029 0.9785
3.3313 -3.4901 -2.5030 0.9785
3.4549 -3.3680 -2.5031 0.9785
4.1860 -2.4004 -2.5033 0.9785
4.2698 -2.2482 -2.5034 0.9785
4.3480 -2.0931 -2.5034 0.9785
4.4205 -1.9353 -2.5034 0.9785
4.4874 -1.7750 -2.5035 0.9785
4.5484 -1.6124 -2.5035 0.9785
4.6035 -1.4476 -2.5035 0.9785
4.6527 -1.2810 -2.5035 0.9785
4.6958 -1.1127 -2.5035 0.9785
4.7328 -0.9430 -2.5036 0.9785
4.7637 -0.7721 -2.5036 0.9785
4.8192 -0.2541 -2.5036 0.9785
4.8185 0.2669 -2.5036 0.9785
4.7868 0.6128 -2.5036 0.9785
4.7303 0.9555 -2.5036 0.9785
4.4154 1.9470 -2.5034 0.9785
4.3424 2.1047 -2.5034 0.9785
4.2638 2.2596 -2.5034 0.9785
4.1797 2.4115 -2.5033 0.9785
4.0901 2.5604 -2.5033 0.9785
3.9952 2.7059 -2.5033 0.9785
3.8952 2.8479 -2.5032 0.9785
3.6801 3.1206 -2.5031 0.9785
3.4460 3.3772 -2.5031 0.9785
3.1940 3.6162 -2.5030 0.9785
2.9254 3.8364 -2.5029 0.9785
2.6418 4.0367 -2.5027 0.9785
2.4947 4.1291 -2.5027 0.9785
2.3444 4.2161 -2.5026 0.9785
2.0350 4.3736 -2.5025 0.9785
1.8762 4.4439 -2.5024 0.9785
1.7150 4.5084 -2.5024 0.9785
1.5516 4.5671 -2.5023 0.9785
1.2190 4.6667 -2.5022 0.9785
0.8800 4.7420 -2.5021 0.9785
0.7088 4.7705 -2.5020 0.9785
0.5366 4.7928 -2.5019 0.9785
0.1904 4.8187 -2.5018 0.9785
-0.5030 4.7957 -2.5015 0.9785
-0.9514 -4.4667 -2.5013 0.9794
-0.7900 -4.4982 -2.5014 0.9794
0.3565 -4.5539 -2.5019 0.9794
0.5202 -4.5383 -2.5019 0.9794
1.0065 -4.4561 -2.5021 0.9794
1.3244 -4.3723 -2.5022 0.9794
2.3732 -3.9046 -2.5026 0.9794
2.6481 -3.7239 -2.5027 0.9794
2.7805 -3.6263 -2.5028 0.9794
2.9093 -3.5240 -2.5028 0.9794
3.2723 -3.1900 -2.5030 0.9794
3.5973 -2.8189 -2.5031 0.9794
3.6965 -2.6876 -2.5032 0.9794
3.9648 -2.2736 -2.5033 0.9794
4.0441 -2.1295 -2.5033 0.9794
4.1182 -1.9826 -2.5033 0.9794
4.1869 -1.8331 -2.5033 0.9794
4.2502 -1.6812 -2.5034 0.9794
4.3080 -1.5271 -2.5034 0.9794
4.4068 -1.2133 -2.5034 0.9794
4.5120 -0.7312 -2.5035 0.9794
4.5529 -0.4048 -2.5035 0.9794
4.5700 0.0883 -2.5035 0.9794
4.5639 0.2528 -2.5035 0.9794
4.5518 0.4169 -2.5035 0.9794
4.5339 0.5804 -2.5035 0.9794
4.4448 1.0657 -2.5034 0.9794
4.4036 1.2250 -2.5034 0.9794
4.2458 1.6925 -2.5034 0.9794
4.1821 1.8442 -2.5033 0.9794
4.1129 1.9935 -2.5033 0.9794
4.0385 2.1402 -2.5033 0.9794
3.8740 2.4251 -2.5032 0.9794
3.7841 2.5629 -2.5032 0.9794
3.4857 2.9557 -2.5031 0.9794
3.3770 3.0792 -2.5030 0.9794
3.2639 3.1987 -2.5030 0.9794
3.0252 3.4251 -2.5029 0.9794
2.8999 3.5317 -2.5028 0.9794
2.3629 3.9110 -2.5026 0.9794
2.2206 3.9934 -2.5026 0.9794
2.0754 4.0706 -2.5025 0.9794
1.9275 4.1426 -2.5025 0.9794
1.1546 4.4202 -2.5022 0.9794
0.9947 4.4588 -2.5021 0.9794
0.6713 4.5186 -2.5020 0.9794
0.5083 4.5397 -2.5019 0.9794
0.3445 4.5549 -2.5018 0.9794
0.1804 4.5642 -2.5018 0.9794
0.0160 4.5677 -2.5017 0.9794
-0.9026 -4.2374 -2.5014 0.9802
-0.5954 -4.2916 -2.5015 0.9802
-0.4406 -4.3103 -2.5015 0.9802
-0.2851 -4.3235 -2.5016 0.9802
0.0266 -4.3330 -2.5017 0.9802
0.1826 -4.3293 -2.5018 0.9802
0.6482 -4.2848 -2.5020 0.9802
0.8020 -4.2587 -2.5020 0.9802
0.9548 -4.2272 -2.5021 0.9802
1.1063 -4.1902 -2.5021 0.9802
1.2565 -4.1478 -2.5022 0.9802
1.8388 -3.9249 -2.5024 0.9802
1.9790 -3.8562 -2.5025 0.9802
2.1165 -3.7826 -2.5025 0.9802
2.2513 -3.7041 -2.5026 0.9802
2.7598 -3.3429 -2.5028 0.9802
3.3140 -2.7951 -2.5030 0.9802
3.4125 -2.6741 -2.5030 0.9802
3.5066 -2.5495 -2.5031 0.9802
3.5961 -2.4217 -2.5031 0.9802
3.7611 -2.1568 -2.5032 0.9802
3.8363 -2.0200 -2.5032 0.9802
3.9066 -1.8807 -2.5032 0.9802
4.0319 -1.5948 -2.5033 0.9802
4.0867 -1.4487 -2.5033 0.9802
4.1804 -1.1510 -2.5033 0.9802
4.2801 -0.6937 -2.5034 0.9802
4.3190 -0.3840 -2.5034 0.9802
4.3354 -0.0723 -2.5034 0.9802
4.3352 0.0838 -2.5034 0.9802
4.3009 0.5506 -2.5034 0.9802
4.2783 0.7050 -2.5034 0.9802
4.2501 0.8586 -2.5034 0.9802
4.1773 1.1621 -2.5033 0.9802
4.1327 1.3116 -2.5033 0.9802
4.0828 1.4595 -2.5033 0.9802
4.0276 1.6055 -2.5033 0.9802
3.9016 1.8911 -2.5032 0.9802
3.7554 2.1668 -2.5032 0.9802
3.5897 2.4312 -2.5031 0.9802
3.4998 2.5588 -2.5031 0.9802
3.4054 2.6831 -2.5030 0.9802
3.3066 2.8039 -2.5030 0.9802
3.2035 2.9211 -2.5030 0.9802
3.0962 3.0344 -2.5029 0.9802
2.9849 3.1438 -2.5029 0.9802
2.7510 3.3503 -2.5028 0.9802
2.6285 3.4471 -2.5027 0.9802
2.3737 3.6271 -2.5026 0.9802
1.6858 3.9930 -2.5024 0.9802
1.5410 4.0510 -2.5023 0.9802
1.3941 4.1037 -2.5023 0.9802
0.7908 4.2609 -2.5020 0.9802
0.6369 4.2865 -2.5020 0.9802
0.4822 4.3065 -2.5019 0.9802
0.1711 4.3299 -2.5018 0.9802
0.0152 4.3331 -2.5017 0.9802
-0.1408 4.3308 -2.5017 0.9802
-0.2966 4.3228 -2.5016 0.9802
-0.4519 4.3092 -2.5015 0.9802
