ply
format ascii 1.0
element vertex 1410
property float32 x
property float32 y
property float32 z
property float32 I
end_header
4.4876 8.6690 1.7213 0.9611
-17.6385 39.5886 7.6420 0.8386
-16.6537 16.9063 4.1845 0.9081
-6.0276 -11.0773 2.2237 0.9501
-18.0269 -36.1614 7.1246 0.8486
4.4872 8.6683 1.4953 0.9613
-16.6523 16.9049 3.6352 0.9084
-22.4514 -13.2869 3.9966 0.8998
4.4868 8.6675 1.2709 0.9614
-45.7175 -11.5466 6.1403 0.8268
-43.8505 -12.7645 5.9473 0.8317
-43.5539 -14.3915 5.9732 0.8311
-43.4318 -16.1008 6.0318 0.8296
-43.4983 -17.9250 6.1265 0.8271
-43.4769 -19.7689 6.2194 0.8248
-6.0259 -11.0742 1.6418 0.9504
28.0644 20.3236 3.7208 0.8699
26.5577 20.7242 3.6173 0.8733
-16.6495 16.9020 2.5476 0.9090
-48.3298 10.7546 5.3167 0.8194
-43.4783 -19.7695 5.1288 0.8252
-43.4904 -21.6897 5.2186 0.8224
-43.4881 -23.6730 5.3169 0.8194
-6.0251 -11.0727 1.3536 0.9506
32.6207 20.2261 3.2492 0.8572
30.2261 20.2774 3.0812 0.8641
26.6284 24.0415 3.0370 0.8659
26.7098 27.8411 3.2660 0.8565
26.7554 29.9700 3.4010 0.8511
26.8593 34.8199 3.7227 0.8382
4.4860 8.6659 0.8261 0.9616
-48.5172 10.7963 4.2076 0.8191
-45.7176 -11.5466 3.9916 0.8275
-43.8512 -12.7647 3.8662 0.8325
-43.4991 -17.9254 3.9827 0.8279
-43.4895 -21.6893 4.1140 0.8228
-6.0242 -11.0712 1.0670 0.9507
30.2262 20.2774 2.2570 0.8643
28.0644 20.3236 2.1487 0.8703
26.5571 20.7237 2.0889 0.8737
26.6673 25.8720 2.3040 0.8616
26.7095 27.8407 2.3924 0.8567
-16.6467 16.8992 1.4710 0.9093
-43.8515 -12.7648 2.8321 0.8327
-43.5550 -14.3919 2.8445 0.8321
-43.4995 -17.9255 2.9175 0.8282
-43.4864 -23.6721 3.0703 0.8200
-6.0234 -11.0697 0.7815 0.9507
30.2261 20.2774 1.4352 0.8644
26.5568 20.7235 1.3283 0.8738
26.6670 25.8717 1.4650 0.8618
26.7092 27.8404 1.5213 0.8569
26.7547 29.9692 1.5841 0.8514
-45.7177 -11.5467 1.8593 0.8280
-43.4999 -17.9257 1.8552 0.8283
-43.4824 -19.7714 1.8835 0.8260
-43.4879 -21.6885 1.9162 0.8232
-43.4855 -23.6716 1.9523 0.8202
32.6183 20.2247 0.6483 0.8577
30.2240 20.2759 0.6148 0.8645
28.0624 20.3222 0.5853 0.8706
26.5563 20.7232 0.5690 0.8739
26.5907 22.3297 0.5865 0.8703
26.7087 27.8400 0.6517 0.8570
26.7543 29.9688 0.6786 0.8515
4.4848 8.6636 0.1648 0.9617
-16.6439 16.8963 0.4006 0.9095
-17.2623 16.3104 0.4012 0.9094
-17.8459 15.6893 0.4014 0.9093
-48.5184 10.7966 0.8396 0.8197
-43.8522 -12.7650 0.7715 0.8330
-43.4337 -16.1015 0.7825 0.8308
-43.4870 -21.6881 0.8209 0.8233
-43.4847 -23.6712 0.8363 0.8203
28.0624 20.3222 -0.1951 0.8706
26.5560 20.7229 -0.1896 0.8739
26.5904 22.3294 -0.1955 0.8703
26.7540 29.9684 -0.2262 0.8516
26.8035 32.2837 -0.2362 0.8455
26.8578 34.8179 -0.2476 0.8387
4.4844 8.6628 -0.0549 0.9617
-16.6754 15.7558 -0.1292 0.9123
-46.5890 10.3672 -0.2687 0.8262
-43.8526 -12.7651 -0.2571 0.8330
-43.5561 -14.3923 -0.2583 0.8324
-43.4341 -16.1017 -0.2608 0.8309
-43.4838 -23.6707 -0.2787 0.8203
32.6183 20.2247 -1.0807 0.8576
26.5901 22.3292 -0.9777 0.8703
26.6267 24.0400 -1.0101 0.8663
26.6659 25.8706 -1.0462 0.8619
26.7081 27.8393 -1.0863 0.8569
26.8574 34.8175 -1.2382 0.8387
-16.6411 16.8935 -0.6677 0.9095
-45.7178 -11.5467 -1.3277 0.8280
-43.5565 -14.3924 -1.2917 0.8323
-43.4853 -21.6872 -1.3683 0.8233
-43.4830 -23.6703 -1.3940 0.8203
32.6183 20.2247 -1.9464 0.8575
26.5554 20.7225 -1.7083 0.8738
26.6264 24.0397 -1.8193 0.8662
26.8571 34.8170 -2.2300 0.8385
27.0845 37.8446 -2.3601 0.8299
25.7042 38.7832 -2.3596 0.8300
4.4836 8.6613 -0.4946 0.9617
18.3511 42.6965 -2.3568 0.8302
16.8005 43.3079 -2.3558 0.8302
13.6472 44.3827 -2.3548 0.8303
10.4282 45.2363 -2.3543 0.8303
8.7980 45.5754 -2.3540 0.8304
7.1567 45.8554 -2.3537 0.8304
5.5067 46.0761 -2.3533 0.8304
3.8501 46.2370 -2.3530 0.8304
2.1890 46.3383 -2.3526 0.8304
-1.1380 46.3609 -2.3519 0.8305
-6.1078 45.9460 -2.3506 0.8306
-7.7503 45.6889 -2.3502 0.8306
-11.0013 44.9983 -2.3493 0.8307
-14.1929 44.0759 -2.3483 0.8307
-15.9888 39.6539 -2.1683 0.8426
-24.7090 42.4863 -2.4926 0.8213
-26.2111 41.5637 -2.4920 0.8214
-31.8586 37.3569 -2.4899 0.8215
-33.1714 36.1832 -2.4894 0.8215
-16.6397 16.8921 -1.2025 0.9094
-16.6757 15.7561 -1.1635 0.9122
-16.6987 14.6808 -1.1276 0.9148
-37.9776 31.0457 -2.4876 0.8216
-40.0927 28.2345 -2.4869 0.8217
-41.0735 26.7745 -2.4865 0.8217
-41.8270 25.1756 -2.4758 0.8224
-41.8298 23.1755 -2.4252 0.8257
-41.8416 19.4034 -2.3390 0.8313
-43.0212 16.3137 -2.3334 0.8317
-43.5748 14.7590 -2.3332 0.8317
-43.9342 11.4446 -2.3024 0.8337
-46.4577 5.1941 -2.3707 0.8293
-46.6567 -3.1788 -2.3716 0.8292
-46.5848 -4.8576 -2.3753 0.8290
-46.4910 -6.5408 -2.3810 0.8286
-43.8533 -12.7653 -2.3163 0.8328
-43.5569 -14.3925 -2.3264 0.8322
-41.8916 -19.0480 -2.3338 0.8317
-41.2706 -26.4675 -2.4864 0.8217
-40.3007 -27.9347 -2.4868 0.8217
-39.2788 -29.3665 -2.4872 0.8217
-37.0847 -32.1172 -2.4880 0.8216
-35.9154 -33.4325 -2.4884 0.8216
-32.1346 -37.1176 -2.4898 0.8215
-30.7889 -38.2540 -2.4903 0.8215
-27.9791 -40.3794 -2.4914 0.8214
-26.5187 -41.3659 -2.4919 0.8214
-25.0236 -42.2998 -2.4925 0.8213
-6.0193 -11.0621 -0.6387 0.9508
-20.3494 -44.7740 -2.4942 0.8212
-17.5938 -42.7150 -2.3428 0.8311
-16.0527 -43.3246 -2.3431 0.8311
-13.1584 -45.2326 -2.3890 0.8281
27.3932 16.9849 -2.3633 0.8787
23.1086 22.4194 -2.3607 0.8789
22.2854 23.2294 -2.3603 0.8789
19.6499 25.4738 -2.3589 0.8789
4.4832 8.6605 -0.7150 0.9616
13.7424 29.0544 -2.3566 0.8791
12.6895 29.5239 -2.3562 0.8791
10.5371 30.3479 -2.3555 0.8791
9.4404 30.7014 -2.3551 0.8791
7.2124 31.2865 -2.3542 0.8792
6.0839 31.5158 -2.3535 0.8792
4.9482 31.7045 -2.3528 0.8792
2.6612 31.9595 -2.3514 0.8793
1.5129 32.0254 -2.3508 0.8793
0.3632 32.0503 -2.3502 0.8794
-1.9342 31.9770 -2.3489 0.8794
-4.2194 31.7407 -2.3478 0.8795
-6.4822 31.3484 -2.3472 0.8795
-7.6013 31.0914 -2.3468 0.8795
-8.7103 30.7946 -2.3465 0.8795
-9.8078 30.4581 -2.3462 0.8796
-10.8923 30.0824 -2.3458 0.8796
-13.0168 29.2155 -2.3451 0.8796
-15.0731 28.1987 -2.3444 0.8796
-16.0722 27.6355 -2.3441 0.8797
-18.0010 26.3964 -2.3426 0.8797
-20.1615 27.3991 -2.4942 0.8725
-22.0675 25.8761 -2.4935 0.8725
-29.1067 17.5193 -2.4909 0.8726
-32.1623 10.8935 -2.4898 0.8727
-32.5305 9.7325 -2.4897 0.8727
-32.8571 8.5591 -2.4895 0.8727
-33.1415 7.3749 -2.4894 0.8727
-33.3835 6.1813 -2.4894 0.8727
-33.5827 4.9798 -2.4893 0.8727
-33.7389 3.7721 -2.4892 0.8727
-33.8520 2.5595 -2.4892 0.8727
-19.9507 0.7903 -1.4640 0.9230
-33.8704 -2.3076 -2.4892 0.8727
-33.4290 -5.9327 -2.4894 0.8727
-33.1957 -7.1281 -2.4895 0.8727
-32.9199 -8.3144 -2.4896 0.8727
-32.6020 -9.4901 -2.4897 0.8727
-32.2422 -10.6538 -2.4898 0.8727
-31.8412 -11.8040 -2.4899 0.8727
-31.3994 -12.9392 -2.4901 0.8727
-30.9174 -14.0581 -2.4903 0.8727
-30.3956 -15.1590 -2.4905 0.8726
-28.5992 -18.3411 -2.4911 0.8726
-27.2165 -20.3482 -2.4916 0.8726
-26.4721 -21.3137 -2.4919 0.8726
-25.6936 -22.2519 -2.4922 0.8726
-24.0383 -24.0424 -2.4928 0.8725
-21.3254 -26.4960 -2.4938 0.8725
-20.3643 -27.2477 -2.4942 0.8725
-17.2455 -26.9009 -2.3429 0.8797
-16.2721 -27.5063 -2.3433 0.8797
-6.0184 -11.0606 -0.9233 0.9508
-13.4271 -29.5431 -2.3794 0.8780
-11.4048 -30.7803 -2.4068 0.8766
-9.2788 -31.8961 -2.4356 0.8753
20.9061 12.9626 -2.3616 0.9059
20.4251 13.7023 -2.3613 0.9059
19.9178 14.4241 -2.3610 0.9059
18.8275 15.8105 -2.3603 0.9059
17.6406 17.1145 -2.3596 0.9060
15.6934 18.9020 -2.3586 0.9060
15.0031 19.4498 -2.3583 0.9060
14.2938 19.9724 -2.3579 0.9060
13.5662 20.4691 -2.3575 0.9060
12.0603 21.3824 -2.3568 0.9061
4.4828 8.6597 -0.9362 0.9616
9.6897 22.5447 -2.3559 0.9061
8.8739 22.8750 -2.3556 0.9061
8.0468 23.1757 -2.3553 0.9061
7.2096 23.4465 -2.3550 0.9061
5.5090 23.8972 -2.3544 0.9062
4.6477 24.0764 -2.3541 0.9062
3.7808 24.2246 -2.3538 0.9062
2.9092 24.3417 -2.3536 0.9062
-2.3543 24.3748 -2.3510 0.9063
-3.2263 24.2701 -2.3505 0.9063
-4.0940 24.1342 -2.3501 0.9063
-4.9560 23.9675 -2.3497 0.9063
-6.6590 23.5424 -2.3489 0.9064
-7.4979 23.2847 -2.3485 0.9064
-9.1449 22.6803 -2.3478 0.9064
-12.2876 21.1281 -2.3465 0.9065
-13.0359 20.6714 -2.3462 0.9065
-13.7674 20.1883 -2.3460 0.9065
-14.4811 19.6796 -2.3457 0.9065
-15.1762 19.1458 -2.3455 0.9065
-15.8392 18.5729 -2.3434 0.9066
-16.4934 17.9910 -2.3432 0.9066
-17.7372 16.7591 -2.3427 0.9066
-16.8006 12.7569 -2.0252 0.9187
-21.7594 14.1842 -2.4937 0.9009
-22.7169 12.5862 -2.4933 0.9009
-24.2777 9.2062 -2.4927 0.9009
-25.3407 5.6390 -2.4923 0.9009
-25.5259 4.7263 -2.4923 0.9009
-25.6784 3.8077 -2.4922 0.9009
-25.7980 2.8843 -2.4922 0.9009
-25.8845 1.9571 -2.4921 0.9009
-19.2205 0.0715 -1.8453 0.9257
-19.4245 -0.6248 -1.8658 0.9249
-25.8187 -2.6922 -2.4922 0.9009
-25.7059 -3.6166 -2.4922 0.9009
-25.3817 -5.4502 -2.4923 0.9009
-24.9275 -7.2562 -2.4925 0.9009
-24.6522 -8.1458 -2.4926 0.9009
-24.0072 -9.8930 -2.4928 0.9009
-23.2389 -11.5898 -2.4931 0.9009
-22.3512 -13.2276 -2.4934 0.9009
-21.3487 -14.7980 -2.4938 0.9009
-20.8060 -15.5554 -2.4940 0.9009
-20.2364 -16.2930 -2.4942 0.9009
-15.3701 -19.0968 -2.3535 0.9062
-14.7295 -19.7082 -2.3621 0.9059
-14.0664 -20.3006 -2.3711 0.9055
-12.6750 -21.4258 -2.3900 0.9048
-9.6438 -23.4138 -2.4310 0.9033
-7.1707 -24.6497 -2.4646 0.9020
16.0916 11.6532 -2.3600 0.9231
15.2115 12.7739 -2.3595 0.9231
14.7419 13.3098 -2.3592 0.9231
14.2534 13.8283 -2.3590 0.9231
13.7467 14.3289 -2.3587 0.9231
11.5508 16.1397 -2.3576 0.9232
10.9632 16.5416 -2.3573 0.9232
4.4824 8.6589 -1.1582 0.9615
7.8314 18.2208 -2.3558 0.9232
6.5035 18.7307 -2.3552 0.9232
3.7565 19.4597 -2.3542 0.9233
3.0559 19.5800 -2.3540 0.9233
2.3515 19.6751 -2.3538 0.9233
1.6441 19.7449 -2.3535 0.9233
0.9348 19.7892 -2.3533 0.9233
-0.4860 19.8015 -2.3528 0.9233
-1.1958 19.7694 -2.3526 0.9233
-1.9039 19.7120 -2.3524 0.9233
-4.0088 19.3868 -2.3516 0.9234
-4.7009 19.2278 -2.3513 0.9234
-5.3867 19.0442 -2.3509 0.9234
-6.0654 18.8363 -2.3506 0.9234
-7.3983 18.3484 -2.3500 0.9234
-8.6925 17.7668 -2.3495 0.9234
-9.3232 17.4418 -2.3493 0.9234
-9.9417 17.0945 -2.3490 0.9234
-12.2798 15.4918 -2.3482 0.9235
-12.8267 15.0404 -2.3480 0.9235
-13.3570 14.5698 -2.3479 0.9235
-14.3655 13.5733 -2.3476 0.9235
-14.8315 13.0392 -2.3458 0.9235
-15.7125 11.9307 -2.3435 0.9236
-16.1292 11.3587 -2.3433 0.9236
-16.8999 10.1720 -2.3431 0.9236
-19.0526 8.8348 -2.4947 0.9189
-19.6352 7.4457 -2.4944 0.9189
-20.1170 6.0186 -2.4943 0.9189
-20.3193 5.2931 -2.4942 0.9189
-20.4955 4.5608 -2.4941 0.9189
-20.7689 3.0797 -2.4940 0.9189
-20.9952 0.0778 -2.4939 0.9189
-20.9469 -1.4271 -2.4940 0.9189
-20.7912 -2.9251 -2.4940 0.9189
-20.5288 -4.4081 -2.4941 0.9189
-19.6899 -7.2994 -2.4944 0.9189
-18.4472 -10.0418 -2.4949 0.9189
-18.0761 -10.6976 -2.4950 0.9189
-17.6819 -11.3396 -2.4952 0.9189
-16.2208 -11.2435 -2.3444 0.9236
-15.3996 -12.3988 -2.3485 0.9235
-14.4652 -13.4652 -2.3475 0.9235
-13.4743 -14.4799 -2.3495 0.9234
-12.9965 -15.0119 -2.3586 0.9231
-10.9170 -17.0292 -2.4028 0.9218
-10.3416 -17.4815 -2.4127 0.9214
-9.1289 -18.3122 -2.4305 0.9209
-8.4945 -18.6901 -2.4387 0.9206
14.1548 8.7765 -2.3598 0.9349
13.1267 10.2434 -2.3592 0.9349
12.7497 10.7066 -2.3590 0.9350
12.3563 11.1559 -2.3587 0.9350
11.9471 11.5908 -2.3585 0.9350
11.0833 12.4149 -2.3580 0.9350
10.1628 13.1748 -2.3576 0.9350
9.6827 13.5295 -2.3573 0.9350
4.4820 8.6582 -1.3814 0.9614
6.5656 15.2758 -2.3559 0.9350
6.0129 15.4999 -2.3556 0.9350
4.8853 15.8878 -2.3551 0.9351
4.3119 16.0511 -2.3549 0.9351
1.9715 16.4961 -2.3540 0.9351
0.7838 16.5918 -2.3535 0.9351
0.1882 16.6079 -2.3533 0.9351
-0.4075 16.6027 -2.3531 0.9351
-1.0027 16.5761 -2.3529 0.9351
-3.3617 16.2573 -2.3522 0.9351
-5.0873 15.7988 -2.3517 0.9351
-5.6503 15.6051 -2.3515 0.9351
-6.2059 15.3913 -2.3514 0.9352
-6.7535 15.1579 -2.3512 0.9352
-7.2923 14.9049 -2.3511 0.9352
-7.8217 14.6329 -2.3509 0.9352
-8.8491 14.0323 -2.3505 0.9352
-9.3460 13.7048 -2.3504 0.9352
-10.3030 12.9979 -2.3501 0.9352
-10.7619 12.6192 -2.3499 0.9352
-11.2070 12.2245 -2.3498 0.9352
-12.0533 11.3887 -2.3496 0.9352
-12.4536 10.9486 -2.3495 0.9352
-12.8378 10.4946 -2.3494 0.9352
-13.2056 10.0272 -2.3494 0.9352
-13.5565 9.5469 -2.3493 0.9352
-13.8893 9.0540 -2.3492 0.9352
-14.1934 8.5430 -2.3472 0.9353
-14.4704 8.0172 -2.3440 0.9354
-16.2350 6.8320 -2.4957 0.9313
-16.6819 5.6502 -2.4955 0.9313
-16.8733 5.0481 -2.4955 0.9313
-17.1910 3.8253 -2.4954 0.9313
-17.4203 2.5832 -2.4953 0.9313
-17.5016 1.9567 -2.4952 0.9313
-17.5604 1.3277 -2.4952 0.9313
-17.5966 0.6971 -2.4952 0.9313
-17.6013 -0.5661 -2.4952 0.9313
-17.5156 -1.8264 -2.4952 0.9313
-17.4391 -2.4535 -2.4953 0.9313
-17.3401 -3.0774 -2.4953 0.9313
-17.2189 -3.6972 -2.4953 0.9313
-16.7234 -5.5259 -2.4955 0.9313
-16.0347 -7.2909 -2.4958 0.9313
-15.7635 -7.8617 -2.4959 0.9313
-15.4721 -8.4224 -2.4960 0.9313
-15.1608 -8.9723 -2.4961 0.9313
-14.0178 -9.7166 -2.4167 0.9334
-13.2523 -9.9079 -2.3445 0.9353
-12.1326 -11.2938 -2.3486 0.9352
-11.7263 -11.7283 -2.3499 0.9352
-11.3150 -12.1589 -2.3533 0.9351
-10.8764 -12.5627 -2.3544 0.9351
-9.9452 -13.3067 -2.3538 0.9351
-8.9642 -13.9831 -2.3534 0.9351
-8.4626 -14.3052 -2.3550 0.9351
-7.4403 -14.9251 -2.3629 0.9348
-6.3754 -15.4785 -2.3719 0.9346
-5.8265 -15.7251 -2.3761 0.9345
-5.2674 -15.9501 -2.3800 0.9344
11.2880 8.8086 -2.3588 0.9436
10.9639 9.2070 -2.3586 0.9436
9.9091 10.3288 -2.3580 0.9436
9.1416 11.0107 -2.3576 0.9436
8.7401 11.3305 -2.3574 0.9436
7.9040 11.9258 -2.3570 0.9436
7.4705 12.2005 -2.3567 0.9437
7.0275 12.4595 -2.3565 0.9437
4.6899 13.5073 -2.3555 0.9437
2.7092 14.0342 -2.3547 0.9437
2.2039 14.1211 -2.3545 0.9437
0.6742 14.2725 -2.3539 0.9437
-0.3506 14.2818 -2.3535 0.9437
-0.8625 14.2590 -2.3533 0.9437
-1.3732 14.2177 -2.3531 0.9437
-2.3885 14.0806 -2.3528 0.9437
-2.8918 13.9849 -2.3526 0.9438
-3.8863 13.7397 -2.3523 0.9438
-4.3763 13.5906 -2.3521 0.9438
-5.3386 13.2403 -2.3518 0.9438
-6.2733 12.8221 -2.3516 0.9438
-6.7288 12.5883 -2.3514 0.9438
-7.1756 12.3382 -2.3513 0.9438
-7.6131 12.0723 -2.3512 0.9438
-8.0408 11.7909 -2.3511 0.9438
-8.4580 11.4943 -2.3510 0.9438
-10.7157 9.4208 -2.3505 0.9438
-11.0464 9.0302 -2.3504 0.9438
-11.9432 7.7854 -2.3486 0.9438
-12.2082 7.3481 -2.3474 0.9439
-12.6895 6.4470 -2.3448 0.9439
-13.9681 5.8780 -2.4965 0.9404
-14.6636 3.8198 -2.4963 0.9404
-14.8992 2.7587 -2.4962 0.9404
-15.0583 1.6836 -2.4961 0.9404
-15.1400 0.5997 -2.4961 0.9404
-15.1441 -0.4871 -2.4961 0.9404
-15.1169 -1.0299 -2.4961 0.9404
-15.0704 -1.5714 -2.4961 0.9404
-15.0044 -2.1109 -2.4962 0.9404
-14.9193 -2.6478 -2.4962 0.9404
-14.5494 -4.2352 -2.4963 0.9404
-14.3885 -4.7544 -2.4964 0.9404
-14.2091 -5.2675 -2.4965 0.9404
-13.7957 -6.2729 -2.4966 0.9404
-13.3116 -7.2462 -2.4968 0.9404
-13.0436 -7.7193 -2.4969 0.9404
-12.7589 -8.1825 -2.4970 0.9404
-12.4578 -8.6352 -2.4971 0.9404
-12.1406 -9.0769 -2.4972 0.9404
-11.8079 -9.5069 -2.4973 0.9404
-11.2030 -9.7023 -2.4415 0.9417
-9.3299 -10.7767 -2.3482 0.9439
-8.1288 -11.7314 -2.3512 0.9438
-7.7165 -12.0367 -2.3554 0.9437
-7.2895 -12.3215 -2.3584 0.9436
-5.9475 -10.9301 -2.0499 0.9508
-5.9268 -13.0404 -2.3597 0.9436
-4.4927 -13.6043 -2.3602 0.9436
-4.0023 -13.7582 -2.3605 0.9436
10.1506 7.3508 -2.3557 0.9503
9.0037 8.7352 -2.3579 0.9502
8.3532 9.3568 -2.3576 0.9502
8.0116 9.6496 -2.3574 0.9502
7.6598 9.9300 -2.3572 0.9502
6.5474 10.6928 -2.3567 0.9502
4.9495 11.5156 -2.3559 0.9503
4.5329 11.6848 -2.3557 0.9503
4.1106 11.8389 -2.3556 0.9503
3.6831 11.9778 -2.3554 0.9503
2.8145 12.2091 -2.3550 0.9503
2.3747 12.3013 -2.3548 0.9503
1.9318 12.3776 -2.3547 0.9503
1.4865 12.4380 -2.3545 0.9503
0.5910 12.5107 -2.3541 0.9503
-1.2038 12.4632 -2.3535 0.9503
-2.0938 12.3432 -2.3532 0.9503
-2.9729 12.1599 -2.3529 0.9503
-3.8364 11.9141 -2.3526 0.9503
-4.2610 11.7681 -2.3525 0.9503
-4.6801 11.6071 -2.3524 0.9503
-5.0931 11.4312 -2.3522 0.9503
-5.4995 11.2406 -2.3521 0.9503
-5.8989 11.0356 -2.3520 0.9503
-6.2906 10.8165 -2.3519 0.9503
-6.6742 10.5834 -2.3518 0.9503
-7.0492 10.3369 -2.3517 0.9504
-7.4151 10.0770 -2.3516 0.9504
-8.1178 9.5189 -2.3514 0.9504
-8.7788 8.9120 -2.3513 0.9504
-9.0925 8.5911 -2.3512 0.9504
-9.3931 8.2580 -2.3508 0.9504
-10.2121 7.1917 -2.3477 0.9504
-10.4586 6.8177 -2.3466 0.9505
-11.8454 6.0181 -2.4973 0.9474
-12.0532 5.5892 -2.4973 0.9474
-12.2456 5.1532 -2.4972 0.9474
-12.5828 4.2619 -2.4971 0.9474
-12.7273 3.8077 -2.4970 0.9474
-13.0620 2.4186 -2.4969 0.9474
-13.2015 1.4760 -2.4968 0.9474
-13.2732 0.5258 -2.4968 0.9474
-13.2530 -0.9029 -2.4968 0.9474
-13.2121 -1.3777 -2.4968 0.9474
-13.1543 -1.8507 -2.4968 0.9474
-13.0796 -2.3213 -2.4969 0.9474
-12.9881 -2.7889 -2.4969 0.9474
-12.7553 -3.7129 -2.4970 0.9474
-12.6142 -4.1681 -2.4970 0.9474
-12.4568 -4.6180 -2.4971 0.9474
-12.2835 -5.0619 -2.4972 0.9474
-11.8898 -5.9297 -2.4973 0.9474
-11.4349 -6.7672 -2.4975 0.9474
-10.3513 -8.3342 -2.4979 0.9473
-10.0462 -8.7005 -2.4980 0.9473
-9.7281 -9.0556 -2.4981 0.9473
-8.4044 -9.7077 -2.4135 0.9491
-7.1138 -10.2666 -2.3477 0.9504
-6.7433 -10.5188 -2.3485 0.9504
-5.1762 -11.3891 -2.3514 0.9504
-4.7657 -11.5705 -2.3521 0.9503
-3.5028 -12.0411 -2.3571 0.9502
9.9928 6.1959 -2.4854 0.9531
9.2778 6.2241 -2.3616 0.9554
8.2703 7.4669 -2.3553 0.9555
6.8108 8.8294 -2.3571 0.9554
6.1595 9.2936 -2.3568 0.9554
5.4767 9.7099 -2.3564 0.9554
4.4203 8.5389 -2.0325 0.9615
4.4011 10.2399 -2.3560 0.9555
3.2751 10.6512 -2.3555 0.9555
2.8908 10.7610 -2.3553 0.9555
1.7179 11.0070 -2.3548 0.9555
1.3219 11.0608 -2.3547 0.9555
-0.6723 11.1157 -2.3539 0.9555
-1.4673 11.0376 -2.3536 0.9555
-2.6439 10.8143 -2.3532 0.9555
-3.0299 10.7119 -2.3531 0.9555
-3.4120 10.5958 -2.3530 0.9555
-3.7896 10.4662 -2.3529 0.9555
-4.8912 9.9972 -2.3526 0.9555
-5.2464 9.8149 -2.3525 0.9555
-5.5948 9.6200 -2.3524 0.9555
-5.9359 9.4128 -2.3523 0.9555
-6.2695 9.1936 -2.3522 0.9555
-6.5950 8.9625 -2.3521 0.9555
-7.2200 8.4661 -2.3520 0.9555
-7.5171 8.1997 -2.3514 0.9555
-7.8036 7.9219 -2.3505 0.9556
-8.3451 7.3367 -2.3488 0.9556
-9.0741 6.3902 -2.3460 0.9556
-9.5257 6.2095 -2.4036 0.9546
-10.3366 5.7269 -2.4979 0.9528
-10.5350 5.3524 -2.4978 0.9528
-10.7199 4.9709 -2.4977 0.9528
-10.8910 4.5831 -2.4977 0.9528
-11.0482 4.1895 -2.4976 0.9528
-11.1911 3.7905 -2.4976 0.9528
-11.4336 2.9784 -2.4975 0.9528
-11.6869 1.7330 -2.4974 0.9528
-11.7872 -0.8031 -2.4974 0.9528
-11.7509 -1.2253 -2.4974 0.9528
-11.6995 -1.6460 -2.4974 0.9528
-11.3444 -3.3022 -2.4975 0.9528
-10.9248 -4.5019 -2.4977 0.9528
-10.5745 -5.2738 -2.4978 0.9528
-9.9478 -6.3797 -2.4980 0.9528
-9.2060 -7.4121 -2.4983 0.9528
-8.9346 -7.7378 -2.4984 0.9528
-7.7377 -8.9375 -2.4989 0.9528
-7.4125 -9.2097 -2.4990 0.9528
-5.7460 -9.7130 -2.3855 0.9549
-5.3077 -9.7543 -2.3474 0.9556
-4.5965 -10.1135 -2.3482 0.9556
-3.8615 -10.4219 -2.3493 0.9556
-3.1058 -10.6762 -2.3503 0.9556
8.8513 5.9380 -2.5050 0.9571
8.5563 6.1963 -2.4828 0.9575
6.9344 7.2282 -2.3541 0.9597
6.4014 7.7102 -2.3552 0.9597
5.5395 8.3582 -2.3566 0.9596
4.4055 8.5104 -2.2522 0.9614
3.9584 9.2098 -2.3560 0.9596
3.2876 9.4687 -2.3557 0.9597
2.9457 9.5799 -2.3555 0.9597
2.6001 9.6788 -2.3554 0.9597
2.2512 9.7652 -2.3552 0.9597
1.1890 9.9487 -2.3548 0.9597
0.1135 10.0171 -2.3544 0.9597
-0.9629 9.9697 -2.3540 0.9597
-1.6750 9.8740 -2.3538 0.9597
-2.0279 9.8071 -2.3537 0.9597
-3.0691 9.5312 -2.3533 0.9597
-3.4088 9.4146 -2.3532 0.9597
-3.7441 9.2858 -2.3531 0.9597
-4.7193 8.8289 -2.3528 0.9597
-5.0327 8.6537 -2.3527 0.9597
-5.3397 8.4673 -2.3527 0.9597
-6.2136 7.8389 -2.3509 0.9597
-6.4888 7.6087 -2.3502 0.9597
-7.0130 7.1194 -2.3487 0.9598
-7.2614 6.8610 -2.3479 0.9598
-7.5003 6.5939 -2.3471 0.9598
-7.7298 6.3190 -2.3465 0.9598
-8.6918 6.1211 -2.4985 0.9573
-8.9055 5.8052 -2.4984 0.9573
-9.2982 5.1516 -2.4983 0.9573
-9.4767 4.8147 -2.4982 0.9573
-9.7970 4.1228 -2.4981 0.9573
-9.9384 3.7686 -2.4980 0.9573
-10.0669 3.4097 -2.4980 0.9573
-10.1826 3.0464 -2.4979 0.9573
-10.3745 2.3086 -2.4979 0.9573
-10.5130 1.5589 -2.4978 0.9573
-10.5621 1.1809 -2.4978 0.9573
-10.5976 0.8013 -2.4978 0.9573
-10.6195 0.4207 -2.4978 0.9573
-10.6223 -0.3417 -2.4978 0.9573
-10.5706 -1.1022 -2.4978 0.9573
-10.5243 -1.4806 -2.4978 0.9573
-10.3913 -2.2313 -2.4979 0.9573
-10.3048 -2.6026 -2.4979 0.9573
-10.0920 -3.3347 -2.4980 0.9573
-9.9661 -3.6946 -2.4980 0.9573
-9.6760 -4.3997 -2.4981 0.9573
-9.1482 -5.4139 -2.4983 0.9573
-8.9484 -5.7387 -2.4984 0.9573
-8.2810 -6.6674 -2.4987 0.9573
-7.7824 -7.2444 -2.4988 0.9573
-7.5178 -7.5191 -2.4989 0.9573
-7.2436 -7.7842 -2.4990 0.9572
-6.6675 -8.2842 -2.4993 0.9572
-5.7399 -8.9536 -2.4996 0.9572
-5.4154 -9.1542 -2.4997 0.9572
-5.0838 -9.3430 -2.4998 0.9572
-4.4015 -9.6844 -2.5001 0.9572
-3.9946 -9.6984 -2.4651 0.9578
-3.5957 -9.7045 -2.4323 0.9584
-3.2066 -9.7099 -2.4033 0.9589
-2.8260 -9.7146 -2.3778 0.9593
7.8348 5.6738 -2.5046 0.9608
7.6260 5.9509 -2.5045 0.9608
4.7491 7.7561 -2.3547 0.9631
4.4685 7.9226 -2.3551 0.9631
2.9843 8.5950 -2.3557 0.9631
2.3602 8.7858 -2.3555 0.9631
2.0435 8.8643 -2.3553 0.9631
1.7241 8.9314 -2.3552 0.9631
0.4291 9.0842 -2.3547 0.9631
0.1030 9.0933 -2.3546 0.9631
-0.8741 9.0504 -2.3542 0.9631
-1.1981 9.0128 -2.3541 0.9631
-1.5205 8.9636 -2.3540 0.9631
-1.8409 8.9029 -2.3539 0.9631
-3.0946 8.5467 -2.3535 0.9631
-3.6986 8.3014 -2.3531 0.9631
-3.9932 8.1617 -2.3526 0.9632
-4.2824 8.0115 -2.3521 0.9632
-5.1145 7.4999 -2.3504 0.9632
-5.8858 6.9016 -2.3485 0.9632
-7.8906 5.5568 -2.4988 0.9609
-8.2682 4.9767 -2.4987 0.9609
-8.4411 4.6768 -2.4986 0.9609
-8.7543 4.0595 -2.4985 0.9609
-8.8941 3.7428 -2.4984 0.9609
-9.0224 3.4213 -2.4984 0.9609
-9.2441 2.7657 -2.4983 0.9609
-9.3373 2.4323 -2.4983 0.9609
-9.4184 2.0958 -2.4982 0.9609
-9.4874 1.7567 -2.4982 0.9609
-9.5442 1.4153 -2.4982 0.9609
-9.6409 0.3819 -2.4981 0.9609
-9.6261 -0.6558 -2.4982 0.9609
-9.5965 -1.0006 -2.4982 0.9609
-9.5002 -1.6860 -2.4982 0.9609
-9.3551 -2.3628 -2.4983 0.9609
-9.2644 -2.6968 -2.4983 0.9609
-8.7842 -3.9942 -2.4985 0.9609
-8.6355 -4.3067 -2.4985 0.9609
-8.3050 -4.9149 -2.4986 0.9609
-7.9317 -5.4979 -2.4988 0.9609
-7.7297 -5.7790 -2.4989 0.9609
-7.0649 -6.5765 -2.4991 0.9609
-6.5758 -7.0665 -2.4993 0.9609
-6.3183 -7.2981 -2.4994 0.9609
-5.7794 -7.7329 -2.4996 0.9609
-5.4986 -7.9355 -2.4997 0.9609
-4.9160 -8.3100 -2.4999 0.9609
-3.0286 -9.1707 -2.5006 0.9609
7.5189 4.6620 -2.5045 0.9639
6.9741 5.4422 -2.5043 0.9639
6.5656 5.9278 -2.5042 0.9639
6.3486 6.1593 -2.5041 0.9639
5.0739 6.5777 -2.3517 0.9661
4.8355 6.7565 -2.3521 0.9660
4.5908 6.9267 -2.3525 0.9660
4.3400 7.0879 -2.3528 0.9660
3.8217 7.3826 -2.3534 0.9660
3.5549 7.5158 -2.3537 0.9660
3.0075 7.7527 -2.3541 0.9660
2.4444 7.9494 -2.3544 0.9660
1.2826 8.2182 -2.3547 0.9660
0.9871 8.2589 -2.3547 0.9660
0.6902 8.2889 -2.3547 0.9660
0.3925 8.3081 -2.3546 0.9660
0.0942 8.3166 -2.3545 0.9660
-1.9740 8.0743 -2.3531 0.9660
-2.2620 7.9972 -2.3528 0.9660
-2.8286 7.8122 -2.3521 0.9660
-3.3802 7.5867 -2.3513 0.9661
-3.6494 7.4592 -2.3508 0.9661
-4.1731 7.1755 -2.3499 0.9661
-4.4268 7.0197 -2.3494 0.9661
-4.6746 6.8549 -2.3488 0.9661
-4.9163 6.6812 -2.3483 0.9661
-5.3804 6.3090 -2.3473 0.9661
-5.6959 6.2131 -2.3861 0.9656
-6.4173 6.0634 -2.4993 0.9640
-6.6304 5.8292 -2.4993 0.9640
-6.8350 5.5875 -2.4992 0.9640
-7.0308 5.3385 -2.4991 0.9640
-7.2175 5.0828 -2.4990 0.9640
-7.3950 4.8205 -2.4990 0.9640
-7.7211 4.2779 -2.4989 0.9640
-7.8694 3.9981 -2.4988 0.9640
-8.1355 3.4236 -2.4987 0.9640
-8.2529 3.1295 -2.4987 0.9640
-8.4557 2.5298 -2.4986 0.9640
-8.5409 2.2249 -2.4986 0.9640
-8.6151 1.9171 -2.4985 0.9640
-8.6782 1.6068 -2.4985 0.9640
-8.7302 1.2945 -2.4985 0.9640
-8.8255 0.0328 -2.4985 0.9640
-8.8210 -0.2837 -2.4985 0.9640
-8.7396 -1.2296 -2.4985 0.9640
-8.6899 -1.5422 -2.4985 0.9640
-8.3805 -2.7692 -2.4986 0.9640
-8.2759 -3.0680 -2.4987 0.9640
-8.1607 -3.3629 -2.4987 0.9640
-8.0350 -3.6535 -2.4987 0.9640
-7.8989 -3.9394 -2.4988 0.9640
-7.5966 -4.4957 -2.4989 0.9640
-7.4306 -4.7653 -2.4990 0.9640
-6.4622 -6.0154 -2.4993 0.9640
-5.7792 -6.6754 -2.4996 0.9640
-5.5363 -6.8786 -2.4997 0.9640
-5.2862 -7.0730 -2.4998 0.9640
-4.7660 -7.4343 -2.5000 0.9640
-3.9404 -7.9042 -2.5003 0.9639
-3.6545 -8.0408 -2.5004 0.9639
-3.0690 -8.2828 -2.5006 0.9639
-2.7700 -8.3879 -2.5007 0.9639
-2.4675 -8.4822 -2.5008 0.9639
6.4184 5.0086 -2.5041 0.9665
5.8428 5.6685 -2.5039 0.9665
5.4211 6.0724 -2.5037 0.9665
5.1451 6.1970 -2.4774 0.9669
4.7896 6.2091 -2.4119 0.9677
4.4573 6.2281 -2.3557 0.9685
4.2294 6.3814 -2.3547 0.9685
3.9917 6.5191 -2.3512 0.9685
3.7558 6.6588 -2.3514 0.9685
2.7660 7.1302 -2.3523 0.9685
2.5087 7.2253 -2.3525 0.9685
2.2481 7.3111 -2.3526 0.9685
1.1796 7.5582 -2.3529 0.9685
0.6348 7.6232 -2.3529 0.9685
-0.7353 7.6125 -2.3523 0.9685
-1.2788 7.5389 -2.3519 0.9685
-1.8156 7.4262 -2.3514 0.9685
-2.0805 7.3555 -2.3511 0.9685
-2.6017 7.1854 -2.3505 0.9685
-3.3568 6.8611 -2.3493 0.9685
-3.6001 6.7351 -2.3489 0.9685
-3.8386 6.6003 -2.3485 0.9686
-4.3005 6.3062 -2.3477 0.9686
-5.2737 6.1839 -2.4998 0.9666
-5.4919 5.9906 -2.4997 0.9666
-5.7031 5.7896 -2.4996 0.9666
-6.1030 5.3655 -2.4995 0.9666
-6.4716 4.9140 -2.4993 0.9666
-6.6435 4.6786 -2.4993 0.9666
-6.8069 4.4372 -2.4992 0.9666
-6.9615 4.1901 -2.4991 0.9666
-7.2436 3.6801 -2.4990 0.9666
-7.3708 3.4179 -2.4990 0.9666
-7.6949 2.6063 -2.4989 0.9666
-7.7833 2.3286 -2.4988 0.9666
-7.9301 1.7646 -2.4988 0.9666
-7.9882 1.4791 -2.4988 0.9666
-8.1007 0.6125 -2.4987 0.9666
-8.1238 0.0302 -2.4987 0.9666
-8.1196 -0.2612 -2.4987 0.9666
-7.9990 -1.4196 -2.4988 0.9666
-7.8004 -2.2706 -2.4988 0.9666
-7.5117 -3.0955 -2.4989 0.9666
-7.3960 -3.3630 -2.4990 0.9666
-7.2708 -3.6261 -2.4990 0.9666
-6.9924 -4.1382 -2.4991 0.9666
-5.9482 -5.5370 -2.4995 0.9666
-5.7459 -5.7469 -2.4996 0.9666
-4.8657 -6.5104 -2.4999 0.9666
-4.3868 -6.8429 -2.5001 0.9666
-4.1387 -6.9961 -2.5002 0.9666
-3.8853 -7.1403 -2.5003 0.9666
-3.0962 -7.5172 -2.5006 0.9665
-2.5496 -7.7204 -2.5008 0.9665
-2.2711 -7.8072 -2.5009 0.9665
6.4024 3.9698 -2.5041 0.9687
6.2558 4.1967 -2.5040 0.9687
5.7684 4.8441 -2.5039 0.9687
5.4056 5.2448 -2.5037 0.9688
5.0159 5.6185 -2.5036 0.9688
4.8110 5.7946 -2.5035 0.9688
4.5999 5.9632 -2.5034 0.9688
4.1078 6.1980 -2.4717 0.9691
3.5062 6.2163 -2.3724 0.9704
3.2508 6.2797 -2.3505 0.9706
2.5578 6.5934 -2.3508 0.9706
2.0788 6.7606 -2.3511 0.9706
1.5890 6.8927 -2.3513 0.9706
1.3408 6.9454 -2.3513 0.9706
1.0908 6.9891 -2.3513 0.9706
0.3338 7.0656 -2.3513 0.9706
0.0802 7.0728 -2.3512 0.9706
-0.1736 7.0708 -2.3511 0.9706
-0.9319 7.0100 -2.3506 0.9706
-1.1826 6.9715 -2.3504 0.9706
-1.6789 6.8674 -2.3500 0.9706
-2.8753 6.4534 -2.3484 0.9707
-3.1045 6.3454 -2.3482 0.9707
-3.3311 6.2319 -2.3489 0.9707
-3.6131 6.2127 -2.3890 0.9702
-3.9121 6.2036 -2.4379 0.9696
-4.2237 6.1936 -2.4919 0.9689
-5.2774 5.3575 -2.4998 0.9688
-5.4660 5.1646 -2.4997 0.9688
-5.6476 4.9651 -2.4996 0.9688
-5.9887 4.5473 -2.4995 0.9688
-6.2990 4.1061 -2.4994 0.9688
-6.5768 3.6438 -2.4993 0.9688
-6.7031 3.4056 -2.4992 0.9688
-6.8209 3.1629 -2.4992 0.9688
-7.0298 2.6657 -2.4991 0.9688
-7.2026 2.1549 -2.4991 0.9688
-7.2752 1.8952 -2.4990 0.9688
-7.3384 1.6330 -2.4990 0.9688
-7.4964 0.5668 -2.4989 0.9688
-7.5118 0.2976 -2.4989 0.9688
-7.5138 -0.2417 -2.4989 0.9688
-7.5004 -0.5110 -2.4989 0.9688
-7.4445 -1.0473 -2.4990 0.9688
-7.4022 -1.3137 -2.4990 0.9688
-7.3504 -1.5783 -2.4990 0.9688
-7.1385 -2.3588 -2.4991 0.9688
-6.9513 -2.8645 -2.4991 0.9688
-6.8442 -3.1120 -2.4992 0.9688
-6.7283 -3.3556 -2.4992 0.9688
-6.6037 -3.5948 -2.4993 0.9688
-6.3293 -4.0591 -2.4994 0.9688
-6.1798 -4.2836 -2.4994 0.9688
-6.0223 -4.5026 -2.4995 0.9688
-5.8571 -4.7158 -2.4996 0.9688
-5.6843 -4.9229 -2.4996 0.9688
-5.5043 -5.1238 -2.4997 0.9688
-5.3171 -5.3180 -2.4998 0.9688
-4.0594 -6.3322 -2.5002 0.9688
-3.8298 -6.4739 -2.5003 0.9688
-3.3561 -6.7322 -2.5005 0.9688
-2.6139 -7.0545 -2.5008 0.9688
5.9508 3.6897 -2.5039 0.9707
5.6708 4.1067 -2.5038 0.9707
5.1965 4.6917 -2.5036 0.9707
4.8466 5.0518 -2.5035 0.9707
4.6623 5.2223 -2.5034 0.9707
3.4386 6.0964 -2.5030 0.9707
3.2063 6.1938 -2.4941 0.9708
2.9331 6.2013 -2.4532 0.9713
2.6683 6.2081 -2.4164 0.9717
2.4107 6.2142 -2.3836 0.9721
2.1617 6.2260 -2.3569 0.9724
1.9315 6.2814 -2.3500 0.9725
1.7049 6.3463 -2.3499 0.9725
0.5453 6.5487 -2.3500 0.9725
0.3101 6.5639 -2.3499 0.9725
0.0745 6.5706 -2.3498 0.9725
-0.1612 6.5688 -2.3497 0.9725
-0.3967 6.5585 -2.3496 0.9725
-0.6316 6.5396 -2.3495 0.9725
-1.3301 6.4325 -2.3490 0.9725
-2.2512 6.2173 -2.3646 0.9723
-2.5046 6.2117 -2.3951 0.9719
-3.0325 6.1982 -2.4676 0.9711
-3.2962 6.1666 -2.5005 0.9707
-3.7296 5.9141 -2.5003 0.9707
-3.9392 5.7763 -2.5003 0.9707
-4.1437 5.6312 -2.5002 0.9707
-4.5364 5.3194 -2.5000 0.9707
-4.7241 5.1531 -2.5000 0.9707
-5.5670 4.2271 -2.4997 0.9707
-5.8554 3.8170 -2.4996 0.9707
-5.9884 3.6044 -2.4995 0.9707
-6.3406 2.9402 -2.4994 0.9707
-6.5349 2.4780 -2.4993 0.9707
-6.6195 2.2420 -2.4993 0.9707
-6.6955 2.0032 -2.4992 0.9707
-6.7630 1.7617 -2.4992 0.9707
-6.8218 1.5180 -2.4992 0.9707
-6.9130 1.0251 -2.4992 0.9707
-6.9884 0.0260 -2.4991 0.9707
-6.7759 -1.7113 -2.4992 0.9707
-6.3623 -2.8929 -2.4994 0.9707
-6.2546 -3.1193 -2.4994 0.9707
-6.1388 -3.3417 -2.4994 0.9707
-6.0151 -3.5598 -2.4995 0.9707
-5.5982 -4.1855 -2.4996 0.9707
-5.4447 -4.3837 -2.4997 0.9707
-5.2841 -4.5763 -2.4998 0.9707
-5.1166 -4.7629 -2.4998 0.9707
-4.7623 -5.1178 -2.5000 0.9707
-4.3835 -5.4463 -2.5001 0.9707
-3.7735 -5.8861 -2.5003 0.9707
-3.3420 -6.1419 -2.5005 0.9707
-3.1197 -6.2580 -2.5006 0.9707
-2.8933 -6.3661 -2.5007 0.9707
-1.9535 -6.7153 -2.5010 0.9707
5.5528 3.4429 -2.5038 0.9724
5.4256 3.6398 -2.5037 0.9724
5.2915 3.8320 -2.5037 0.9724
5.1505 4.0192 -2.5036 0.9724
3.6084 5.4445 -2.5031 0.9724
3.4107 5.5702 -2.5030 0.9724
3.0025 5.8000 -2.5028 0.9724
2.7924 5.9038 -2.5028 0.9724
2.1419 6.1690 -2.5025 0.9724
1.6655 6.1999 -2.4602 0.9729
1.4301 6.2037 -2.4397 0.9731
1.1982 6.2069 -2.4225 0.9733
0.2935 6.2139 -2.3839 0.9737
-0.1525 6.2142 -2.3821 0.9737
-0.3759 6.2136 -2.3855 0.9737
-0.6001 6.2124 -2.3918 0.9736
-1.0531 6.2084 -2.4132 0.9734
-1.9943 6.1935 -2.4935 0.9725
-2.6558 5.9608 -2.5007 0.9724
-3.0760 5.7547 -2.5006 0.9724
-3.4804 5.5191 -2.5004 0.9724
-3.6760 5.3905 -2.5004 0.9724
-3.8669 5.2550 -2.5003 0.9724
-4.0528 5.1128 -2.5002 0.9724
-4.2334 4.9641 -2.5002 0.9724
-4.5781 4.6476 -2.5000 0.9724
-5.0505 4.1287 -2.4998 0.9724
-5.1952 3.9448 -2.4998 0.9724
-5.4644 3.5621 -2.4997 0.9724
-5.5886 3.3638 -2.4996 0.9724
-5.7055 3.1611 -2.4996 0.9724
-5.9172 2.7439 -2.4995 0.9724
-6.0118 2.5299 -2.4995 0.9724
-6.0985 2.3126 -2.4995 0.9724
-6.2485 1.8694 -2.4994 0.9724
-6.4514 0.9566 -2.4993 0.9724
-6.5218 0.0242 -2.4993 0.9724
-6.5185 -0.2096 -2.4993 0.9724
-6.5068 -0.4433 -2.4993 0.9724
-6.4216 -1.1397 -2.4993 0.9724
-6.3235 -1.5971 -2.4994 0.9724
-6.1929 -2.0463 -2.4994 0.9724
-5.7289 -3.1185 -2.4996 0.9724
-5.4908 -3.5213 -2.4997 0.9724
-5.3610 -3.7160 -2.4997 0.9724
-5.2244 -3.9060 -2.4998 0.9724
-5.0808 -4.0909 -2.4998 0.9724
-4.9312 -4.2707 -2.4999 0.9724
-4.7750 -4.4449 -2.5000 0.9724
-4.4443 -4.7759 -2.5001 0.9724
-4.2702 -4.9324 -2.5001 0.9724
-4.0907 -5.0825 -2.5002 0.9724
-3.9059 -5.2261 -2.5003 0.9724
-3.5214 -5.4930 -2.5004 0.9724
-3.3222 -5.6159 -2.5005 0.9724
-3.1188 -5.7316 -2.5006 0.9724
-2.9113 -5.8400 -2.5006 0.9724
-2.7000 -5.9408 -2.5007 0.9724
-2.0465 -6.1971 -2.5010 0.9724
5.1990 3.2236 -2.5036 0.9739
4.9544 3.5878 -2.5036 0.9739
4.5401 4.0990 -2.5034 0.9739
4.3900 4.2591 -2.5033 0.9739
4.2343 4.4137 -2.5033 0.9739
3.0043 5.3264 -2.5028 0.9739
2.6146 5.5278 -2.5027 0.9739
2.4146 5.6178 -2.5026 0.9739
2.2115 5.7007 -2.5025 0.9739
2.0055 5.7761 -2.5025 0.9739
1.3734 5.9576 -2.5022 0.9739
0.9427 6.0403 -2.5021 0.9739
0.2884 6.1061 -2.5018 0.9739
0.0693 6.1123 -2.5017 0.9739
-0.5876 6.0837 -2.5015 0.9739
-1.4513 5.9364 -2.5012 0.9739
-2.2850 5.6672 -2.5009 0.9739
-2.4867 5.5814 -2.5008 0.9739
-2.8803 5.3885 -2.5007 0.9739
-3.2590 5.1679 -2.5005 0.9739
-3.9641 4.6482 -2.5003 0.9739
-4.1281 4.5030 -2.5002 0.9739
-4.7292 3.8660 -2.5000 0.9739
-4.8647 3.6938 -2.4999 0.9739
-4.9940 3.5169 -2.4999 0.9739
-5.1168 3.3355 -2.4998 0.9739
-5.4452 2.7664 -2.4997 0.9739
-5.6293 2.3689 -2.4996 0.9739
-5.7845 1.9592 -2.4996 0.9739
-5.8510 1.7505 -2.4996 0.9739
-6.0693 0.6786 -2.4995 0.9740
-6.0897 0.4605 -2.4995 0.9740
-6.1023 0.2417 -2.4995 0.9740
-6.1039 -0.1963 -2.4995 0.9740
-6.0929 -0.4151 -2.4995 0.9740
-6.0741 -0.6334 -2.4995 0.9740
-6.0475 -0.8508 -2.4995 0.9740
-6.0132 -1.0672 -2.4995 0.9740
-5.7989 -1.9161 -2.4996 0.9739
-5.7265 -2.1229 -2.4996 0.9739
-5.4656 -2.7258 -2.4997 0.9739
-5.2563 -3.1107 -2.4998 0.9739
-5.1414 -3.2973 -2.4998 0.9739
-4.3191 -4.3198 -2.5001 0.9739
-3.9985 -4.6186 -2.5002 0.9739
-3.6573 -4.8935 -2.5004 0.9739
-2.9203 -5.3668 -2.5006 0.9739
-2.7260 -5.4683 -2.5007 0.9739
-2.5282 -5.5627 -2.5008 0.9739
-2.3271 -5.6500 -2.5009 0.9739
-2.1231 -5.7299 -2.5009 0.9739
-1.7070 -5.8678 -2.5011 0.9739
4.6524 3.3692 -2.5034 0.9752
4.5285 3.5338 -2.5034 0.9752
3.6688 4.4189 -2.5031 0.9753
3.3424 4.6703 -2.5030 0.9753
2.9989 4.8977 -2.5028 0.9753
2.8212 5.0019 -2.5028 0.9753
2.6400 5.0998 -2.5027 0.9753
2.4553 5.1910 -2.5026 0.9753
2.0767 5.3534 -2.5025 0.9753
1.8834 5.4243 -2.5024 0.9753
1.6876 5.4882 -2.5023 0.9753
1.2897 5.5947 -2.5022 0.9753
1.0882 5.6372 -2.5021 0.9753
0.8853 5.6724 -2.5020 0.9753
0.4764 5.7209 -2.5019 0.9753
0.0650 5.7400 -2.5017 0.9753
-0.1409 5.7385 -2.5017 0.9753
-0.5518 5.7132 -2.5015 0.9753
-0.9599 5.6587 -2.5014 0.9753
-1.1622 5.6204 -2.5013 0.9753
-1.5620 5.5223 -2.5011 0.9753
-1.7590 5.4626 -2.5011 0.9753
-1.9537 5.3958 -2.5010 0.9753
-2.1459 5.3221 -2.5009 0.9753
-2.5218 5.1543 -2.5008 0.9753
-2.7049 5.0604 -2.5007 0.9753
-2.8846 4.9600 -2.5007 0.9753
-3.2326 4.7402 -2.5005 0.9753
-3.4004 4.6212 -2.5005 0.9753
-3.7228 4.3653 -2.5003 0.9753
-3.8769 4.2289 -2.5003 0.9753
-4.0259 4.0870 -2.5002 0.9753
-4.3084 3.7877 -2.5001 0.9753
-4.5686 3.4690 -2.5000 0.9753
-4.8054 3.1325 -2.4999 0.9753
-5.0174 2.7799 -2.4999 0.9753
-5.1138 2.5981 -2.4998 0.9753
-5.2868 2.2247 -2.4998 0.9753
-5.3631 2.0337 -2.4997 0.9753
-5.4325 1.8400 -2.4997 0.9753
-5.4950 1.6440 -2.4997 0.9753
-5.5504 1.4458 -2.4997 0.9753
-5.5986 1.2458 -2.4996 0.9753
-5.6999 0.6373 -2.4996 0.9753
-5.7191 0.4324 -2.4996 0.9753
-5.7309 0.2270 -2.4996 0.9753
-5.6795 -0.7991 -2.4996 0.9753
-5.6473 -1.0023 -2.4996 0.9753
-5.4461 -1.7995 -2.4997 0.9753
-5.2214 -2.3742 -2.4998 0.9753
-5.0379 -2.7425 -2.4999 0.9753
-4.8285 -3.0966 -2.4999 0.9753
-4.7145 -3.2679 -2.5000 0.9753
-4.4682 -3.5976 -2.5001 0.9753
-4.3364 -3.7556 -2.5001 0.9753
-3.5972 -4.4694 -2.5004 0.9753
-3.4348 -4.5957 -2.5004 0.9753
-2.9215 -4.9384 -2.5006 0.9753
-2.5600 -5.1354 -2.5008 0.9753
-2.1855 -5.3060 -2.5009 0.9753
-1.9938 -5.3811 -2.5010 0.9753
-1.6030 -5.5105 -2.5011 0.9753
4.4912 3.0130 -2.5034 0.9764
4.3802 3.1721 -2.5033 0.9764
4.1414 3.4778 -2.5033 0.9764
3.8813 3.7655 -2.5032 0.9764
3.7437 3.9022 -2.5031 0.9764
3.4542 4.1604 -2.5030 0.9764
3.3027 4.2815 -2.5029 0.9764
3.1469 4.3971 -2.5029 0.9764
2.8235 4.6111 -2.5028 0.9764
2.4855 4.8014 -2.5026 0.9765
2.3117 4.8874 -2.5026 0.9765
1.9553 5.0403 -2.5024 0.9765
1.7732 5.1070 -2.5024 0.9765
1.5889 5.1671 -2.5023 0.9765
1.0246 5.3075 -2.5021 0.9765
0.8335 5.3407 -2.5020 0.9765
0.6414 5.3670 -2.5020 0.9765
-0.1326 5.4029 -2.5017 0.9765
-0.3263 5.3945 -2.5016 0.9765
-1.0943 5.2918 -2.5013 0.9765
-1.2830 5.2490 -2.5012 0.9765
-1.8395 5.0804 -2.5010 0.9765
-2.3744 4.8531 -2.5008 0.9765
-2.5468 4.7646 -2.5008 0.9765
-2.7160 4.6701 -2.5007 0.9765
-2.8817 4.5696 -2.5007 0.9765
-3.2017 4.3511 -2.5005 0.9765
-3.3556 4.2333 -2.5005 0.9765
-3.6503 3.9817 -2.5004 0.9765
-3.7907 3.8482 -2.5003 0.9765
-4.0566 3.5663 -2.5002 0.9765
-4.1818 3.4185 -2.5002 0.9765
-4.5246 2.9494 -2.5000 0.9765
-4.7242 2.6174 -2.5000 0.9765
-4.8150 2.4463 -2.4999 0.9765
-5.0497 1.9149 -2.4998 0.9765
-5.1151 1.7325 -2.4998 0.9765
-5.2715 1.1730 -2.4998 0.9765
-5.3101 0.9832 -2.4998 0.9765
-5.3419 0.7921 -2.4997 0.9765
-5.3669 0.6000 -2.4997 0.9765
-5.3975 -0.1736 -2.4997 0.9765
-5.3878 -0.3671 -2.4997 0.9765
-5.3477 -0.7524 -2.4997 0.9765
-5.2800 -1.1338 -2.4998 0.9765
-5.2360 -1.3224 -2.4998 0.9765
-4.9933 -2.0577 -2.4999 0.9765
-4.9163 -2.2355 -2.4999 0.9765
-4.8330 -2.4103 -2.4999 0.9765
-4.7436 -2.5822 -2.5000 0.9765
-4.6480 -2.7507 -2.5000 0.9765
-4.4390 -3.0769 -2.5001 0.9765
-4.0830 -3.5361 -2.5002 0.9765
-3.3870 -4.2082 -2.5005 0.9765
-3.0768 -4.4404 -2.5006 0.9765
-2.9156 -4.5480 -2.5006 0.9765
-2.4104 -4.8352 -2.5008 0.9765
-1.8773 -5.0665 -2.5010 0.9765
-1.6944 -5.1307 -2.5011 0.9765
-1.5093 -5.1884 -2.5012 0.9765
4.2380 2.8431 -2.5033 0.9775
4.1332 2.9932 -2.5033 0.9775
4.0232 3.1395 -2.5032 0.9775
3.5326 3.6823 -2.5030 0.9775
3.2594 3.9259 -2.5029 0.9775
2.5065 4.4439 -2.5026 0.9775
2.1814 4.6119 -2.5025 0.9775
2.0145 4.6871 -2.5025 0.9775
0.9668 5.0084 -2.5021 0.9775
0.7866 5.0397 -2.5020 0.9775
0.4232 5.0829 -2.5019 0.9775
0.2407 5.0946 -2.5018 0.9775
0.0578 5.0998 -2.5017 0.9775
-0.3079 5.0906 -2.5016 0.9775
-0.8528 5.0276 -2.5014 0.9775
-1.0326 4.9937 -2.5013 0.9775
-1.5629 4.8535 -2.5011 0.9775
-2.0750 4.6572 -2.5010 0.9775
-3.1666 3.9949 -2.5005 0.9775
-3.4447 3.7575 -2.5004 0.9775
-3.7051 3.5008 -2.5003 0.9775
-3.8281 3.3655 -2.5003 0.9775
-4.0594 3.0823 -2.5002 0.9775
-4.2698 2.7833 -2.5001 0.9775
-4.3668 2.6284 -2.5001 0.9775
-4.6976 1.9768 -2.5000 0.9775
-4.7654 1.8071 -2.5000 0.9775
-4.8271 1.6350 -2.4999 0.9775
-4.9747 1.1070 -2.4999 0.9776
-5.0647 0.5662 -2.4998 0.9776
-5.0818 0.3842 -2.4998 0.9776
-5.0923 0.2017 -2.4998 0.9776
-5.0845 -0.3464 -2.4998 0.9776
-5.0179 -0.8905 -2.4999 0.9776
-4.9828 -1.0699 -2.4999 0.9776
-4.9412 -1.2479 -2.4999 0.9775
-4.8391 -1.5990 -2.4999 0.9775
-4.7787 -1.7715 -2.5000 0.9775
-4.7121 -1.9418 -2.5000 0.9775
-4.4764 -2.4368 -2.5001 0.9775
-4.3862 -2.5958 -2.5001 0.9775
-4.2904 -2.7515 -2.5001 0.9775
-4.0822 -3.0521 -2.5002 0.9775
-3.9702 -3.1966 -2.5003 0.9775
-3.8531 -3.3370 -2.5003 0.9775
-3.7310 -3.4730 -2.5003 0.9775
-3.3366 -3.8539 -2.5005 0.9775
-3.1962 -3.9712 -2.5005 0.9775
-2.9036 -4.1903 -2.5006 0.9775
-2.4368 -4.4782 -2.5008 0.9775
-2.2746 -4.5628 -2.5009 0.9775
-2.1096 -4.6416 -2.5009 0.9775
-1.5989 -4.8417 -2.5011 0.9775
-1.4243 -4.8961 -2.5012 0.9775
3.9080 2.8301 -2.5032 0.9785
3.6949 3.1028 -2.5031 0.9785
3.3401 3.4816 -2.5030 0.9785
3.2130 3.5991 -2.5029 0.9785
3.0818 3.7119 -2.5029 0.9785
2.9467 3.8200 -2.5028 0.9785
2.6651 4.0212 -2.5027 0.9785
2.3699 4.2018 -2.5026 0.9785
2.2176 4.2839 -2.5025 0.9785
2.0625 4.3606 -2.5025 0.9785
1.9048 4.4317 -2.5024 0.9785
1.7446 4.4970 -2.5024 0.9785
1.5821 4.5566 -2.5023 0.9785
1.4176 4.6103 -2.5022 0.9785
1.0834 4.6999 -2.5021 0.9785
0.9142 4.7356 -2.5021 0.9785
0.4002 4.8060 -2.5019 0.9785
0.2276 4.8171 -2.5018 0.9785
0.0546 4.8221 -2.5017 0.9785
-0.1183 4.8208 -2.5017 0.9785
-0.2911 4.8133 -2.5016 0.9785
-0.4636 4.7997 -2.5015 0.9785
-0.9764 4.7217 -2.5014 0.9785
-1.1450 4.6836 -2.5013 0.9785
-1.3123 4.6394 -2.5012 0.9785
-1.6414 4.5332 -2.5011 0.9785
-1.9620 4.4036 -2.5010 0.9785
-2.2725 4.2515 -2.5009 0.9785
-2.5713 4.0774 -2.5008 0.9785
-2.7158 3.9825 -2.5007 0.9785
-2.8569 3.8824 -2.5007 0.9785
-3.1277 3.6675 -2.5006 0.9785
-3.5033 3.3102 -2.5004 0.9785
-3.7315 3.0504 -2.5003 0.9785
-3.8384 2.9146 -2.5003 0.9785
-4.0374 2.6318 -2.5002 0.9785
-4.1291 2.4853 -2.5002 0.9785
-4.2965 2.1828 -2.5001 0.9785
-4.3720 2.0273 -2.5001 0.9785
-4.4419 1.8692 -2.5001 0.9785
-4.5644 1.5460 -2.5000 0.9785
-4.6168 1.3813 -2.5000 0.9785
-4.6634 1.2148 -2.5000 0.9785
-4.7039 1.0467 -2.5000 0.9785
-4.7384 0.8774 -2.5000 0.9785
-4.7668 0.7068 -2.5000 0.9785
-4.8052 0.3633 -2.4999 0.9785
-4.8188 0.0179 -2.4999 0.9785
-4.8077 -0.3276 -2.4999 0.9785
-4.7929 -0.4998 -2.4999 0.9785
-4.7719 -0.6714 -2.5000 0.9785
-4.7448 -0.8421 -2.5000 0.9785
-4.5757 -1.5120 -2.5000 0.9785
-4.4557 -1.8361 -2.5001 0.9785
-4.3870 -1.9947 -2.5001 0.9785
-4.3127 -2.1508 -2.5001 0.9785
-4.2328 -2.3041 -2.5002 0.9785
-4.1475 -2.4545 -2.5002 0.9785
-4.0568 -2.6017 -2.5002 0.9785
-3.7541 -3.0226 -2.5003 0.9785
-3.4079 -3.4085 -2.5005 0.9785
-3.2835 -3.5286 -2.5005 0.9785
-3.1549 -3.6441 -2.5006 0.9785
-3.0222 -3.7550 -2.5006 0.9785
-2.8857 -3.8610 -2.5007 0.9785
-2.7454 -3.9622 -2.5007 0.9785
-2.1508 -4.3144 -2.5009 0.9785
-1.9947 -4.3889 -2.5010 0.9785
-1.5119 -4.5781 -2.5012 0.9785
3.8842 2.4084 -2.5032 0.9794
3.7953 2.5461 -2.5031 0.9794
3.6029 2.8115 -2.5031 0.9794
3.1636 3.2976 -2.5029 0.9794
2.9190 3.5158 -2.5028 0.9794
2.5243 3.8088 -2.5027 0.9794
2.2447 3.9798 -2.5026 0.9794
2.1005 4.0577 -2.5025 0.9794
1.9536 4.1303 -2.5024 0.9794
1.8042 4.1976 -2.5024 0.9794
1.6524 4.2595 -2.5023 0.9794
1.4985 4.3159 -2.5023 0.9794
1.1852 4.4121 -2.5022 0.9794
0.8659 4.4854 -2.5020 0.9794
0.7044 4.5135 -2.5020 0.9794
0.5421 4.5358 -2.5019 0.9794
-0.4391 4.5462 -2.5016 0.9794
-0.7638 4.5028 -2.5014 0.9794
-1.2430 4.3944 -2.5013 0.9794
-1.3997 4.3469 -2.5012 0.9794
-1.5547 4.2938 -2.5011 0.9794
-1.7077 4.2352 -2.5011 0.9794
-2.2955 3.9471 -2.5009 0.9794
-2.4356 3.8622 -2.5008 0.9794
-2.5725 3.7723 -2.5008 0.9794
-2.7061 3.6775 -2.5007 0.9794
-2.8362 3.5780 -2.5007 0.9794
-2.9626 3.4739 -2.5006 0.9794
-3.0852 3.3654 -2.5006 0.9794
-3.3184 3.1354 -2.5005 0.9794
-3.5345 2.8894 -2.5004 0.9794
-3.6358 2.7607 -2.5004 0.9794
-3.8243 2.4929 -2.5003 0.9794
-3.9112 2.3541 -2.5003 0.9794
-3.9930 2.2123 -2.5002 0.9794
-4.0698 2.0676 -2.5002 0.9794
-4.1413 1.9204 -2.5002 0.9794
-4.3732 1.3084 -2.5001 0.9794
-4.4173 1.1507 -2.5001 0.9794
-4.5152 0.6695 -2.5000 0.9794
-4.5516 0.3441 -2.5000 0.9794
-4.5645 0.0170 -2.5000 0.9794
-4.5622 -0.1467 -2.5000 0.9794
-4.5540 -0.3103 -2.5000 0.9794
-4.5201 -0.6359 -2.5000 0.9794
-4.4629 -0.9583 -2.5001 0.9794
-4.3828 -1.2758 -2.5001 0.9794
-4.3342 -1.4322 -2.5001 0.9794
-4.2801 -1.5867 -2.5001 0.9794
-4.2205 -1.7392 -2.5002 0.9794
-4.0094 -2.1825 -2.5002 0.9794
-3.8427 -2.4644 -2.5003 0.9794
-3.5559 -2.8630 -2.5004 0.9794
-3.3417 -3.1107 -2.5005 0.9794
-3.2280 -3.2285 -2.5005 0.9794
-2.9884 -3.4518 -2.5006 0.9794
-2.8627 -3.5568 -2.5007 0.9794
-2.3248 -3.9299 -2.5009 0.9794
-2.1825 -4.0108 -2.5009 0.9794
-2.0373 -4.0866 -2.5010 0.9794
-1.7391 -4.2223 -2.5011 0.9794
-1.5866 -4.2821 -2.5011 0.9794
-1.2756 -4.3850 -2.5012 0.9794
3.6847 2.2846 -2.5031 0.9802
3.6003 2.4153 -2.5031 0.9802
3.5113 2.5428 -2.5030 0.9802
3.3199 2.7879 -2.5029 0.9802
3.2177 2.9051 -2.5029 0.9802
3.1114 3.0187 -2.5029 0.9802
3.0011 3.1282 -2.5028 0.9802
2.8869 3.2338 -2.5028 0.9802
2.7691 3.3352 -2.5027 0.9802
2.6476 3.4323 -2.5027 0.9802
1.9926 3.8492 -2.5025 0.9802
1.8532 3.9181 -2.5024 0.9802
1.2738 4.1425 -2.5022 0.9802
0.6683 4.2817 -2.5020 0.9802
0.2045 4.3284 -2.5018 0.9802
-0.2616 4.3250 -2.5016 0.9802
-0.4166 4.3128 -2.5016 0.9802
-0.7246 4.2717 -2.5015 0.9802
-0.8773 4.2428 -2.5014 0.9802
-1.0289 4.2085 -2.5013 0.9802
-1.1791 4.1688 -2.5013 0.9802
-1.4749 4.0734 -2.5012 0.9802
-1.6200 4.0178 -2.5011 0.9802
-1.9038 3.8912 -2.5010 0.9802
-2.5672 3.4887 -2.5008 0.9802
-2.9269 3.1926 -2.5006 0.9802
-3.0395 3.0855 -2.5006 0.9802
-3.1481 2.9745 -2.5006 0.9802
-3.4492 2.6190 -2.5004 0.9802
-3.5409 2.4936 -2.5004 0.9802
-3.6280 2.3650 -2.5004 0.9802
-3.8609 1.9616 -2.5003 0.9802
-3.9287 1.8218 -2.5003 0.9802
-4.0492 1.5354 -2.5002 0.9802
-4.2270 0.9406 -2.5002 0.9802
-4.3180 0.3265 -2.5001 0.9802
-4.3269 0.1714 -2.5001 0.9802
-4.3303 0.0161 -2.5001 0.9802
-4.3203 -0.2943 -2.5001 0.9802
-4.3070 -0.4491 -2.5001 0.9802
-4.2339 -0.9091 -2.5002 0.9802
-4.1118 -1.3587 -2.5002 0.9802
-3.9422 -1.7925 -2.5003 0.9802
-3.8036 -2.0705 -2.5003 0.9802
-3.7270 -2.2056 -2.5003 0.9802
-3.6455 -2.3379 -2.5004 0.9802
-3.4686 -2.5933 -2.5004 0.9802
-3.3734 -2.7161 -2.5005 0.9802
-3.2739 -2.8353 -2.5005 0.9802
-3.0623 -3.0629 -2.5006 0.9802
-2.9505 -3.1707 -2.5006 0.9802
-2.5930 -3.4695 -2.5008 0.9802
-2.3377 -3.6466 -2.5009 0.9802
-1.9326 -3.8768 -2.5010 0.9802
-1.7924 -3.9437 -2.5011 0.9802
-1.5052 -4.0623 -2.5012 0.9802
-1.3585 -4.1137 -2.5012 0.9802
-1.2101 -4.1599 -2.5013 0.9802
