ply
format ascii 1.0
element vertex 1111
property float32 x
property float32 y
property float32 z
property float32 I
end_header
13.5273 -11.5123 3.1321 0.9304
33.4644 -12.0676 6.2726 0.8655
13.5259 -11.5111 2.7209 0.9306
33.4595 -12.0658 4.6318 0.8663
13.5231 -11.5087 1.9068 0.9311
33.4553 -12.0643 3.8189 0.8667
30.4404 20.2635 3.9267 0.8632
26.2719 20.3527 3.5686 0.8749
26.1477 21.8023 3.6558 0.8720
26.1836 23.4757 3.7762 0.8681
33.4511 -12.0628 3.0102 0.8670
28.2566 20.3103 2.9458 0.8696
26.2719 20.3527 2.8133 0.8751
26.1475 21.8021 2.8819 0.8723
26.1833 23.4754 2.9769 0.8683
26.2216 25.2652 3.0825 0.8640
26.3074 29.2682 3.3314 0.8539
26.3558 31.5285 3.4787 0.8479
26.4088 34.0012 3.6445 0.8413
4.1307 8.6623 0.8124 0.9622
33.4470 -12.0613 2.2048 0.8672
32.8615 20.2117 2.3923 0.8567
30.4403 20.2635 2.2676 0.8637
26.2719 20.3527 2.0608 0.8753
26.3071 29.2678 2.4403 0.8541
26.3555 31.5280 2.5482 0.8482
26.4084 34.0007 2.6697 0.8415
4.1302 8.6613 0.5950 0.9623
13.5190 -11.5053 0.7000 0.9314
32.8614 20.2117 1.5212 0.8569
28.2565 20.3103 1.3721 0.8700
26.2719 20.3527 1.3104 0.8754
26.1469 21.8016 1.3424 0.8726
26.1827 23.4749 1.3866 0.8687
26.2622 27.1882 1.4905 0.8596
26.3551 31.5276 1.6203 0.8483
13.5176 -11.5041 0.2998 0.9315
30.4382 20.2621 0.6177 0.8639
28.2546 20.3089 0.5878 0.8701
26.2618 27.1879 0.6385 0.8597
26.4077 33.9998 0.7272 0.8418
13.5163 -11.5030 -0.0999 0.9315
32.8590 20.2103 -0.2172 0.8570
30.4381 20.2621 -0.2059 0.8639
28.2545 20.3089 -0.1959 0.8701
26.2701 20.3514 -0.1871 0.8755
26.3544 31.5268 -0.2313 0.8484
26.4073 33.9993 -0.2424 0.8418
4.1287 8.6581 -0.0540 0.9624
13.5149 -11.5018 -0.4997 0.9314
33.4305 -12.0553 -1.0007 0.8674
30.4381 20.2621 -1.0296 0.8639
28.2546 20.3089 -0.9798 0.8700
26.2701 20.3513 -0.9357 0.8755
26.1817 23.4740 -0.9901 0.8687
26.2200 25.2635 -1.0252 0.8644
26.3056 29.2663 -1.1080 0.8543
26.3540 31.5264 -1.1570 0.8484
-5.1456 -49.4817 -2.5230 0.8193
13.5136 -11.5007 -0.8999 0.9314
48.7653 9.5007 -2.5196 0.8196
48.3903 11.2443 -2.5195 0.8196
39.6790 12.2792 -2.1064 0.8467
39.5382 15.4226 -2.1523 0.8437
39.5422 17.0837 -2.1845 0.8415
39.4361 20.5117 -2.2543 0.8369
32.8590 20.2103 -1.9564 0.8568
26.3053 29.2659 -1.9956 0.8542
26.4066 33.9984 -2.1832 0.8416
25.8302 38.6976 -2.3595 0.8300
24.4192 39.5912 -2.3590 0.8300
4.1278 8.6560 -0.4863 0.9623
18.4854 42.6400 -2.3569 0.8302
13.7822 44.3391 -2.3547 0.8303
-8.1970 -32.4784 -2.4561 0.8743
-4.7470 -33.8034 -2.5029 0.8721
-3.5535 -34.1716 -2.5190 0.8713
-2.3399 -34.5012 -2.5355 0.8705
-1.1073 -34.7910 -2.5522 0.8697
0.1431 -35.0397 -2.5692 0.8689
1.4101 -35.2464 -2.5864 0.8681
3.9882 -35.5286 -2.6214 0.8664
6.6156 -35.6294 -2.6571 0.8647
10.6202 -35.4223 -2.7115 0.8622
11.9648 -35.2542 -2.7297 0.8613
13.3111 -35.0352 -2.7480 0.8604
14.6569 -34.7647 -2.7663 0.8596
17.0586 -33.5165 -2.7575 0.8600
19.1235 -31.7161 -2.7155 0.8620
22.6400 -27.6449 -2.6200 0.8665
25.4419 -23.2775 -2.5284 0.8708
26.6357 -21.0675 -2.4900 0.8727
27.2050 -19.9733 -2.4746 0.8734
28.2211 -17.7521 -2.4446 0.8748
29.5556 -14.4156 -2.4111 0.8764
33.0029 -9.2866 -2.5138 0.8715
33.3165 -8.0964 -2.5139 0.8715
33.5870 -6.8956 -2.5140 0.8715
33.8140 -5.6858 -2.5141 0.8715
33.9971 -4.4686 -2.5142 0.8715
34.1364 -3.2455 -2.5142 0.8715
34.2819 -0.7883 -2.5143 0.8715
34.2881 0.4428 -2.5143 0.8715
34.1674 2.9013 -2.5142 0.8715
34.0406 4.1258 -2.5142 0.8715
29.6063 12.7911 -2.3647 0.8787
29.1236 13.8434 -2.3644 0.8787
28.6034 14.8774 -2.3640 0.8787
28.0465 15.8919 -2.3636 0.8787
27.4534 16.8856 -2.3632 0.8787
25.4661 19.7285 -2.3620 0.8788
23.9764 21.4968 -2.3611 0.8788
23.1851 22.3394 -2.3607 0.8789
22.3642 23.1528 -2.3603 0.8789
20.6376 24.6881 -2.3593 0.8789
18.8060 26.0949 -2.3584 0.8790
17.8538 26.7478 -2.3580 0.8790
16.8801 27.3678 -2.3577 0.8790
15.8844 27.9517 -2.3573 0.8790
4.1273 8.6550 -0.7031 0.9623
10.6304 30.3150 -2.3555 0.8791
-5.4482 -25.3968 -2.4937 0.9009
-4.5551 -25.7003 -2.5058 0.9004
-3.6476 -25.9742 -2.5181 0.9000
-2.7264 -26.2179 -2.5306 0.8995
-1.7925 -26.4306 -2.5433 0.8990
-0.8470 -26.6114 -2.5561 0.8985
0.1093 -26.7599 -2.5691 0.8980
1.0752 -26.8752 -2.5822 0.8976
4.0085 -26.9440 -2.6152 0.8963
5.9102 -26.4934 -2.6060 0.8967
7.7468 -25.8385 -2.5897 0.8973
9.5067 -25.0221 -2.5698 0.8980
10.3532 -24.5568 -2.5585 0.8984
11.1751 -24.0556 -2.5465 0.8989
14.2126 -21.7645 -2.4956 0.9008
15.5962 -20.5033 -2.4732 0.9017
16.8776 -19.1621 -2.4515 0.9025
18.0658 -17.7614 -2.4322 0.9032
18.6223 -17.0380 -2.4232 0.9035
19.6877 -15.5720 -2.4099 0.9041
20.6034 -14.0170 -2.3924 0.9047
21.7095 -11.5711 -2.3618 0.9059
22.4455 -9.9669 -2.3578 0.9060
24.6015 -8.8715 -2.5107 0.9002
24.9052 -7.9831 -2.5109 0.9002
25.4156 -6.1763 -2.5110 0.9002
25.6217 -5.2603 -2.5111 0.9002
26.0403 -2.4758 -2.5113 0.9002
26.1126 -1.5396 -2.5113 0.9002
26.1512 -0.6013 -2.5113 0.9002
26.1560 0.3377 -2.5113 0.9002
26.1269 1.2763 -2.5113 0.9002
26.0640 2.2132 -2.5113 0.9002
25.9674 3.1473 -2.5112 0.9002
25.8372 4.0772 -2.5112 0.9002
23.7098 6.4145 -2.3581 0.9060
23.4862 7.2681 -2.3603 0.9059
22.5918 9.7606 -2.3627 0.9058
20.9523 12.8869 -2.3615 0.9059
19.9686 14.3530 -2.3609 0.9059
18.3024 16.4096 -2.3599 0.9059
17.6991 17.0535 -2.3596 0.9060
17.0732 17.6753 -2.3593 0.9060
16.4254 18.2740 -2.3589 0.9060
15.0676 19.3996 -2.3582 0.9060
13.6330 20.4244 -2.3575 0.9060
12.8892 20.8974 -2.3572 0.9060
12.1290 21.3434 -2.3568 0.9061
11.3534 21.7617 -2.3565 0.9061
4.1268 8.6540 -0.9205 0.9622
9.7602 22.5137 -2.3558 0.9061
8.9449 22.8470 -2.3555 0.9061
8.1181 23.1505 -2.3553 0.9061
7.2810 23.4242 -2.3550 0.9061
-5.0873 -20.1572 -2.4695 0.9197
-4.3678 -20.3607 -2.4736 0.9195
-3.6392 -20.5324 -2.4770 0.9194
-1.4142 -20.8522 -2.4826 0.9193
0.0854 -20.8998 -2.4826 0.9193
1.5825 -20.8141 -2.4796 0.9194
3.7958 -20.4431 -2.4699 0.9197
5.2341 -20.0471 -2.4611 0.9199
5.9374 -19.8035 -2.4558 0.9201
7.3137 -19.2499 -2.4461 0.9204
9.2774 -18.2280 -2.4295 0.9209
10.5169 -17.4421 -2.4194 0.9212
12.8035 -15.6340 -2.4004 0.9218
13.3327 -15.1374 -2.3961 0.9220
14.3117 -14.0706 -2.3840 0.9223
14.8196 -13.5588 -2.3860 0.9223
13.3571 -11.3675 -2.0834 0.9318
15.6645 -12.3898 -2.3724 0.9227
16.0163 -11.7588 -2.3602 0.9231
16.4181 -11.1696 -2.3588 0.9231
16.7979 -10.5665 -2.3573 0.9232
18.2034 -9.7024 -2.4503 0.9203
19.3029 -8.5714 -2.5088 0.9184
20.3339 -5.7217 -2.5092 0.9184
21.0892 -1.2434 -2.5095 0.9184
21.1204 -0.4856 -2.5095 0.9184
20.8669 3.2929 -2.5094 0.9184
20.7349 4.0397 -2.5093 0.9184
20.5760 4.7812 -2.5093 0.9184
20.3906 5.5165 -2.5092 0.9184
20.0216 6.1960 -2.4896 0.9190
18.2382 7.8796 -2.3600 0.9231
17.6333 9.1716 -2.3610 0.9231
16.9265 10.4108 -2.3605 0.9231
16.5402 11.0105 -2.3603 0.9231
15.7043 12.1661 -2.3597 0.9231
14.7878 13.2584 -2.3592 0.9231
11.6039 16.1014 -2.3575 0.9232
11.0172 16.5055 -2.3573 0.9232
10.4164 16.8882 -2.3570 0.9232
9.8023 17.2491 -2.3567 0.9232
7.8884 18.1962 -2.3558 0.9232
7.2294 18.4653 -2.3555 0.9232
5.8846 18.9317 -2.3550 0.9232
-4.1234 -16.3379 -2.3875 0.9342
-3.5390 -16.4973 -2.3907 0.9341
-2.3514 -16.7443 -2.3958 0.9340
-1.1457 -16.8934 -2.3991 0.9339
-0.5389 -16.9308 -2.4001 0.9339
0.0691 -16.9431 -2.4007 0.9338
0.6774 -16.9335 -2.4012 0.9338
1.2849 -16.8994 -2.4014 0.9338
1.8904 -16.8410 -2.4012 0.9338
2.4931 -16.7584 -2.4006 0.9338
3.0919 -16.6518 -2.3997 0.9339
3.6856 -16.5214 -2.3984 0.9339
4.2733 -16.3674 -2.3968 0.9339
4.8541 -16.1901 -2.3949 0.9340
5.4283 -15.9946 -2.3932 0.9340
5.9956 -15.7806 -2.3919 0.9341
6.5538 -15.5450 -2.3903 0.9341
7.6398 -15.0107 -2.3865 0.9342
8.1660 -14.7129 -2.3842 0.9343
9.1741 -14.0487 -2.3774 0.9345
9.6784 -13.7189 -2.3789 0.9344
10.6487 -13.0029 -2.3814 0.9344
11.4720 -12.1186 -2.3644 0.9348
11.8695 -11.6694 -2.3584 0.9350
12.2754 -11.2310 -2.3574 0.9350
12.6648 -10.7783 -2.3564 0.9350
13.0374 -10.3119 -2.3552 0.9351
14.9782 -9.4219 -2.5072 0.9310
15.3075 -8.8786 -2.5073 0.9310
16.1752 -7.1826 -2.5077 0.9310
16.6500 -6.0041 -2.5078 0.9310
16.8553 -5.4028 -2.5079 0.9310
17.2003 -4.1799 -2.5080 0.9310
17.3396 -3.5599 -2.5081 0.9310
17.4565 -2.9353 -2.5081 0.9310
17.6225 -1.6755 -2.5082 0.9310
17.6714 -1.0418 -2.5082 0.9310
17.7007 0.2286 -2.5082 0.9310
17.6811 0.8637 -2.5082 0.9310
17.6386 1.4978 -2.5082 0.9310
17.4853 2.7593 -2.5081 0.9310
17.2416 4.0064 -2.5080 0.9310
17.0863 4.6225 -2.5080 0.9310
16.9090 5.2327 -2.5079 0.9310
16.7098 5.8361 -2.5078 0.9310
15.2608 6.5933 -2.3555 0.9350
15.0231 7.1409 -2.3568 0.9350
14.1862 8.7254 -2.3598 0.9349
13.5213 9.7189 -2.3594 0.9349
13.1625 10.1970 -2.3592 0.9349
12.7869 10.6619 -2.3589 0.9350
11.9867 11.5495 -2.3585 0.9350
11.1251 12.3773 -2.3580 0.9350
10.6726 12.7673 -2.3578 0.9350
8.7321 14.1575 -2.3568 0.9350
7.6924 14.7445 -2.3564 0.9350
4.1258 8.6518 -1.3581 0.9620
6.6135 15.2552 -2.3559 0.9350
6.0610 15.4811 -2.3556 0.9350
4.9338 15.8728 -2.3551 0.9351
-3.5074 -13.8971 -2.3612 0.9436
-3.0068 -14.0162 -2.3616 0.9435
-2.5022 -14.1175 -2.3620 0.9435
-1.4850 -14.2786 -2.3649 0.9435
0.5750 -14.3710 -2.3694 0.9434
1.0906 -14.3427 -2.3696 0.9434
3.1317 -14.0384 -2.3695 0.9434
3.6350 -13.9225 -2.3705 0.9433
4.1341 -13.7887 -2.3714 0.9433
5.1171 -13.4684 -2.3735 0.9433
6.9940 -12.6013 -2.3742 0.9432
7.4204 -12.3066 -2.3674 0.9434
7.8333 -11.9955 -2.3602 0.9436
8.2483 -11.6918 -2.3572 0.9436
9.0605 -11.0635 -2.3558 0.9437
9.8244 -10.3782 -2.3542 0.9437
10.1870 -10.0153 -2.3534 0.9437
11.9315 -9.4372 -2.5061 0.9402
12.2631 -9.0033 -2.5062 0.9402
12.5789 -8.5578 -2.5063 0.9402
13.1616 -7.6339 -2.5065 0.9402
13.9075 -6.1756 -2.5068 0.9402
14.1205 -5.6726 -2.5069 0.9402
14.3155 -5.1623 -2.5070 0.9402
14.6496 -4.1222 -2.5071 0.9402
14.7885 -3.5938 -2.5071 0.9402
14.9082 -3.0607 -2.5072 0.9402
15.0087 -2.5237 -2.5072 0.9402
15.0898 -1.9834 -2.5073 0.9402
15.1514 -1.4405 -2.5073 0.9402
15.2186 0.1965 -2.5073 0.9402
15.2017 0.7426 -2.5073 0.9402
15.1651 1.2878 -2.5073 0.9402
15.0334 2.3724 -2.5072 0.9402
14.9383 2.9104 -2.5072 0.9402
14.8240 3.4446 -2.5072 0.9402
14.6905 3.9744 -2.5071 0.9402
14.3669 5.0178 -2.5070 0.9402
13.9691 6.0352 -2.5068 0.9402
13.0746 6.2148 -2.3849 0.9430
12.6799 6.5951 -2.3545 0.9437
12.1855 7.4949 -2.3567 0.9437
11.9140 7.9310 -2.3578 0.9436
11.3188 8.7687 -2.3587 0.9436
10.9959 9.1686 -2.3585 0.9436
10.6589 9.5566 -2.3584 0.9436
10.3081 9.9322 -2.3582 0.9436
9.9442 10.2949 -2.3580 0.9436
8.7777 11.3013 -2.3574 0.9436
8.3657 11.6080 -2.3572 0.9436
7.5101 12.1761 -2.3567 0.9437
7.0675 12.4368 -2.3565 0.9437
4.1159 8.6313 -1.5753 0.9620
5.6882 13.1209 -2.3559 0.9437
5.2131 13.3155 -2.3557 0.9437
-2.6374 -12.2943 -2.3634 0.9501
-2.1959 -12.3888 -2.3649 0.9501
-1.7503 -12.4635 -2.3656 0.9501
-0.4006 -12.5892 -2.3675 0.9500
1.8548 -12.4674 -2.3692 0.9500
2.2993 -12.3832 -2.3673 0.9500
2.7396 -12.2809 -2.3651 0.9501
3.1751 -12.1608 -2.3624 0.9501
3.6047 -12.0232 -2.3593 0.9502
4.8686 -11.5477 -2.3555 0.9503
5.2791 -11.3639 -2.3552 0.9503
5.6827 -11.1653 -2.3548 0.9503
6.0787 -10.9522 -2.3544 0.9503
7.2161 -10.2287 -2.3529 0.9503
7.5768 -9.9606 -2.3523 0.9503
8.5483 -9.7054 -2.4309 0.9487
9.5043 -9.3442 -2.5052 0.9472
9.8341 -8.9974 -2.5053 0.9472
10.1511 -8.6390 -2.5054 0.9472
11.0224 -7.4988 -2.5058 0.9472
11.5328 -6.6892 -2.5060 0.9472
11.7658 -6.2711 -2.5060 0.9472
11.9837 -5.8450 -2.5061 0.9472
12.3729 -4.9705 -2.5063 0.9472
12.6982 -4.0703 -2.5064 0.9472
12.8364 -3.6120 -2.5064 0.9472
13.0628 -2.6819 -2.5065 0.9472
13.2758 -1.2622 -2.5066 0.9472
13.3323 -0.3065 -2.5066 0.9472
13.2879 1.1283 -2.5066 0.9472
13.2387 1.6046 -2.5066 0.9472
13.0892 2.5501 -2.5065 0.9472
12.7386 3.9421 -2.5064 0.9472
12.5886 4.3967 -2.5063 0.9472
12.4224 4.8456 -2.5063 0.9472
12.0421 5.7240 -2.5061 0.9472
10.9725 6.2173 -2.3705 0.9500
10.6662 6.5604 -2.3537 0.9503
10.4280 6.9418 -2.3546 0.9503
10.1760 7.3144 -2.3555 0.9503
9.9106 7.6777 -2.3564 0.9503
9.6321 8.0314 -2.3572 0.9502
9.3408 8.3748 -2.3580 0.9502
7.3317 10.1734 -2.3570 0.9502
6.5820 10.6715 -2.3567 0.9502
6.1943 10.9000 -2.3565 0.9503
4.5692 11.6707 -2.3557 0.9503
4.1470 11.8263 -2.3556 0.9503
-2.3330 -10.8752 -2.3511 0.9555
-1.9414 -10.9536 -2.3515 0.9555
-1.5472 -11.0177 -2.3518 0.9555
-1.1509 -11.0675 -2.3521 0.9555
-0.7530 -11.1028 -2.3523 0.9555
-0.3540 -11.1236 -2.3525 0.9555
0.4449 -11.1217 -2.3528 0.9555
1.2417 -11.0618 -2.3529 0.9555
1.6380 -11.0101 -2.3529 0.9555
2.0321 -10.9440 -2.3529 0.9555
3.5766 -10.5383 -2.3524 0.9555
3.9521 -10.4021 -2.3522 0.9555
5.4010 -9.7311 -2.3526 0.9555
5.8556 -9.7115 -2.3971 0.9547
6.8294 -9.6805 -2.5042 0.9527
7.1728 -9.4296 -2.5044 0.9527
8.4500 -8.3076 -2.5048 0.9527
9.2952 -7.3520 -2.5051 0.9527
9.5535 -7.0139 -2.5052 0.9527
10.0327 -6.3110 -2.5054 0.9527
10.2531 -5.9470 -2.5055 0.9527
10.6540 -5.1964 -2.5056 0.9527
10.9999 -4.4189 -2.5058 0.9527
11.6913 -1.9659 -2.5060 0.9527
11.8024 -1.1221 -2.5060 0.9527
11.8548 0.1531 -2.5061 0.9527
11.8416 0.5785 -2.5061 0.9527
11.8132 1.0031 -2.5061 0.9527
11.7695 1.4265 -2.5060 0.9527
11.7106 1.8480 -2.5060 0.9527
11.5476 2.6833 -2.5060 0.9527
11.4436 3.0960 -2.5059 0.9527
11.3250 3.5047 -2.5059 0.9527
11.1916 3.9088 -2.5058 0.9527
10.7059 5.0888 -2.5056 0.9527
10.5160 5.4697 -2.5056 0.9527
10.0696 6.1934 -2.4989 0.9528
9.3393 6.2170 -2.3715 0.9552
9.0386 6.4968 -2.3529 0.9555
8.5548 7.1331 -2.3544 0.9555
8.2958 7.4379 -2.3552 0.9555
8.0258 7.7331 -2.3559 0.9555
7.7453 8.0184 -2.3565 0.9554
7.4544 8.2934 -2.3571 0.9554
7.1523 8.5561 -2.3572 0.9554
6.1899 9.2734 -2.3568 0.9554
5.1561 9.8830 -2.3563 0.9554
4.0731 8.5413 -2.0002 0.9621
3.8355 8.8472 -2.0383 0.9613
4.0630 10.3778 -2.3558 0.9555
3.6877 10.5163 -2.3556 0.9555
-2.4541 -9.7239 -2.3570 0.9596
-0.3180 -9.9918 -2.3495 0.9598
1.4713 -9.8896 -2.3499 0.9597
1.8254 -9.8309 -2.3500 0.9597
2.9124 -9.7139 -2.3834 0.9592
3.2951 -9.7090 -2.4097 0.9587
3.6867 -9.7035 -2.4396 0.9582
4.0884 -9.6973 -2.4734 0.9577
4.8317 -9.4933 -2.5035 0.9572
5.5008 -9.1231 -2.5037 0.9572
6.4505 -8.4801 -2.5041 0.9572
6.7511 -8.2435 -2.5042 0.9572
7.0429 -7.9962 -2.5043 0.9572
7.5990 -7.4709 -2.5045 0.9572
7.8626 -7.1936 -2.5046 0.9572
8.1160 -6.9071 -2.5047 0.9572
8.5912 -6.3075 -2.5049 0.9572
8.8123 -5.9952 -2.5050 0.9572
9.4065 -5.0137 -2.5052 0.9571
10.0281 -3.6162 -2.5054 0.9571
10.1516 -3.2540 -2.5054 0.9571
10.5702 -1.3893 -2.5056 0.9571
10.6427 -0.6275 -2.5056 0.9571
10.6584 -0.2451 -2.5056 0.9571
10.6485 0.5202 -2.5056 0.9571
10.6229 0.9021 -2.5056 0.9571
10.5836 1.2828 -2.5056 0.9571
10.5307 1.6618 -2.5056 0.9571
10.4642 2.0387 -2.5056 0.9571
9.9313 3.8739 -2.5054 0.9571
9.6273 4.5762 -2.5052 0.9571
9.2737 5.2548 -2.5051 0.9571
9.0789 5.5841 -2.5050 0.9571
8.6176 6.1942 -2.4942 0.9573
7.2111 6.9481 -2.3535 0.9597
6.4271 7.6885 -2.3552 0.9597
6.1483 7.9159 -2.3557 0.9597
5.2638 8.5342 -2.3566 0.9596
4.9537 8.7171 -2.3564 0.9596
4.6374 8.8887 -2.3563 0.9596
4.0596 8.5132 -2.2166 0.9620
3.8063 8.7799 -2.2490 0.9614
3.6543 9.3340 -2.3558 0.9596
-2.3636 -9.3652 -2.5009 0.9609
-0.9992 -9.6090 -2.5014 0.9609
-0.6537 -9.6392 -2.5015 0.9609
-0.3074 -9.6569 -2.5016 0.9609
0.0395 -9.6622 -2.5017 0.9609
0.3863 -9.6551 -2.5019 0.9609
0.7326 -9.6354 -2.5020 0.9609
1.4221 -9.5590 -2.5022 0.9609
1.7644 -9.5023 -2.5024 0.9609
2.1044 -9.4333 -2.5025 0.9609
2.7760 -9.2590 -2.5027 0.9608
3.7557 -8.9082 -2.5031 0.9608
4.6922 -8.4540 -2.5034 0.9608
4.9928 -8.2805 -2.5036 0.9608
5.2870 -8.0963 -2.5037 0.9608
5.5745 -7.9017 -2.5038 0.9608
6.1275 -7.4820 -2.5040 0.9608
6.3923 -7.2575 -2.5041 0.9608
7.1362 -6.5291 -2.5043 0.9608
7.3662 -6.2689 -2.5044 0.9608
7.5867 -6.0007 -2.5045 0.9608
7.7974 -5.7247 -2.5046 0.9608
7.9981 -5.4413 -2.5047 0.9608
8.5373 -4.5504 -2.5049 0.9608
8.6954 -4.2411 -2.5049 0.9608
8.9776 -3.6065 -2.5050 0.9608
9.2135 -2.9533 -2.5051 0.9608
9.3137 -2.6207 -2.5051 0.9608
9.4019 -2.2848 -2.5052 0.9608
9.4780 -1.9459 -2.5052 0.9608
9.5418 -1.6044 -2.5052 0.9608
9.5933 -1.2609 -2.5052 0.9608
9.6324 -0.9158 -2.5053 0.9608
9.6734 -0.2224 -2.5053 0.9608
9.6644 0.4721 -2.5053 0.9608
9.6412 0.8187 -2.5053 0.9608
9.4245 2.1900 -2.5052 0.9608
9.2428 2.8604 -2.5051 0.9608
8.8813 3.8371 -2.5050 0.9608
8.7377 4.1533 -2.5049 0.9608
8.5828 4.4641 -2.5049 0.9608
7.8548 5.6459 -2.5046 0.9608
7.6468 5.9240 -2.5045 0.9608
6.5408 6.3022 -2.3517 0.9632
6.3112 6.5338 -2.3520 0.9632
5.8286 6.9726 -2.3530 0.9631
5.3154 7.3756 -2.3539 0.9631
4.7742 7.7405 -2.3547 0.9631
4.4939 7.9080 -2.3550 0.9631
3.9160 8.2121 -2.3556 0.9631
3.6192 8.3482 -2.3559 0.9631
3.3171 8.4727 -2.3559 0.9631
2.7005 8.6878 -2.3556 0.9631
-2.1618 -8.5657 -2.5009 0.9639
-1.5419 -8.6995 -2.5012 0.9639
-0.9140 -8.7885 -2.5014 0.9639
0.3533 -8.8305 -2.5019 0.9639
2.2332 -8.5533 -2.5025 0.9639
2.5388 -8.4680 -2.5027 0.9639
2.8413 -8.3718 -2.5028 0.9639
3.7252 -8.0189 -2.5031 0.9639
4.0108 -7.8803 -2.5032 0.9639
4.5662 -7.5729 -2.5034 0.9639
5.3544 -7.0390 -2.5037 0.9639
5.6038 -6.8425 -2.5038 0.9639
6.0806 -6.4233 -2.5040 0.9639
6.5262 -5.9710 -2.5041 0.9639
6.7365 -5.7330 -2.5042 0.9639
7.1309 -5.2353 -2.5043 0.9639
7.4885 -4.7105 -2.5045 0.9639
7.6529 -4.4388 -2.5045 0.9639
7.8075 -4.1614 -2.5046 0.9639
8.0862 -3.5907 -2.5047 0.9639
8.2100 -3.2982 -2.5047 0.9639
8.3233 -3.0014 -2.5048 0.9639
8.4257 -2.7008 -2.5048 0.9639
8.7730 -1.1531 -2.5049 0.9639
8.8088 -0.8375 -2.5050 0.9639
8.8462 -0.2034 -2.5050 0.9639
8.8168 0.7487 -2.5050 0.9639
8.7842 1.0647 -2.5049 0.9639
8.7403 1.3793 -2.5049 0.9639
8.5411 2.3107 -2.5049 0.9639
8.2429 3.2153 -2.5047 0.9639
8.1220 3.5090 -2.5047 0.9639
7.6973 4.3615 -2.5045 0.9639
7.1833 5.1632 -2.5044 0.9639
6.9932 5.4176 -2.5043 0.9639
6.7940 5.6650 -2.5042 0.9639
6.5861 5.9049 -2.5041 0.9639
4.1067 7.2266 -2.3531 0.9660
3.5786 7.5044 -2.3536 0.9660
3.0316 7.7432 -2.3541 0.9660
-1.9898 -7.8840 -2.5010 0.9665
-1.7056 -7.9507 -2.5011 0.9665
-1.4192 -8.0071 -2.5012 0.9665
-1.1309 -8.0532 -2.5013 0.9665
-0.8412 -8.0890 -2.5014 0.9665
-0.5503 -8.1143 -2.5015 0.9665
-0.2587 -8.1292 -2.5016 0.9665
0.3251 -8.1275 -2.5018 0.9665
0.9075 -8.0839 -2.5021 0.9665
2.0553 -7.8721 -2.5025 0.9665
2.3367 -7.7936 -2.5026 0.9665
2.8900 -7.6065 -2.5028 0.9665
3.1613 -7.4982 -2.5029 0.9665
3.4285 -7.3802 -2.5030 0.9665
3.6913 -7.2527 -2.5031 0.9665
4.6920 -6.6507 -2.5034 0.9665
5.3802 -6.1084 -2.5037 0.9665
5.8049 -5.7071 -2.5039 0.9665
6.0062 -5.4952 -2.5039 0.9665
6.1998 -5.2762 -2.5040 0.9665
6.7315 -4.5796 -2.5042 0.9665
6.8917 -4.3351 -2.5042 0.9665
7.1853 -3.8297 -2.5044 0.9665
7.3182 -3.5694 -2.5044 0.9665
7.4418 -3.3045 -2.5045 0.9665
7.6599 -2.7622 -2.5045 0.9665
7.7542 -2.4855 -2.5046 0.9665
7.9127 -1.9229 -2.5046 0.9665
7.9768 -1.6377 -2.5046 0.9665
8.0304 -1.3503 -2.5047 0.9665
8.0738 -1.0612 -2.5047 0.9665
8.1067 -0.7708 -2.5047 0.9665
8.1292 -0.4793 -2.5047 0.9665
8.1412 -0.1872 -2.5047 0.9665
8.1426 0.1052 -2.5047 0.9665
8.1141 0.6890 -2.5047 0.9665
7.9317 1.8431 -2.5046 0.9665
7.8604 2.1266 -2.5046 0.9665
7.7789 2.4073 -2.5046 0.9665
7.6874 2.6849 -2.5045 0.9665
7.5860 2.9590 -2.5045 0.9665
7.0839 4.0139 -2.5043 0.9665
6.9351 4.2655 -2.5043 0.9665
6.7774 4.5116 -2.5042 0.9665
6.6109 4.7518 -2.5041 0.9665
6.2527 5.2136 -2.5040 0.9665
6.0613 5.4345 -2.5039 0.9665
5.6555 5.8550 -2.5038 0.9665
5.4415 6.0540 -2.5037 0.9665
5.1793 6.1958 -2.4838 0.9668
4.0128 6.5060 -2.3511 0.9685
3.5365 6.7787 -2.3517 0.9685
3.2913 6.9020 -2.3519 0.9685
2.5309 7.2175 -2.3525 0.9685
2.2704 7.3041 -2.3526 0.9685
-1.8412 -7.2953 -2.5010 0.9688
-1.5782 -7.3570 -2.5011 0.9688
-1.3132 -7.4092 -2.5012 0.9688
-1.0465 -7.4518 -2.5013 0.9688
0.3009 -7.5204 -2.5018 0.9688
0.5706 -7.5051 -2.5019 0.9688
1.1077 -7.4454 -2.5021 0.9688
1.3742 -7.4011 -2.5022 0.9688
1.6391 -7.3473 -2.5023 0.9688
1.9018 -7.2840 -2.5024 0.9688
2.6741 -7.0382 -2.5027 0.9688
3.4155 -6.7107 -2.5030 0.9688
3.6543 -6.5840 -2.5031 0.9688
3.8884 -6.4488 -2.5031 0.9688
4.1175 -6.3053 -2.5032 0.9688
4.3413 -6.1537 -2.5033 0.9688
4.9781 -5.6519 -2.5035 0.9688
5.1779 -5.4697 -2.5036 0.9688
5.5573 -5.0844 -2.5038 0.9687
5.7363 -4.8818 -2.5038 0.9687
6.2283 -4.2372 -2.5040 0.9687
6.5165 -3.7797 -2.5041 0.9687
6.6481 -3.5434 -2.5042 0.9687
6.7711 -3.3026 -2.5042 0.9687
6.8854 -3.0575 -2.5042 0.9687
7.0872 -2.5557 -2.5043 0.9687
7.1745 -2.2997 -2.5044 0.9687
7.3211 -1.7791 -2.5044 0.9687
7.5006 -0.7131 -2.5045 0.9687
7.5338 0.0973 -2.5045 0.9687
7.5254 0.3677 -2.5045 0.9687
7.5074 0.6375 -2.5045 0.9687
7.4422 1.1744 -2.5044 0.9687
7.0188 2.7378 -2.5043 0.9687
6.9159 2.9879 -2.5043 0.9687
6.5543 3.7138 -2.5041 0.9687
6.2707 4.1743 -2.5040 0.9687
6.1167 4.3966 -2.5040 0.9687
5.7853 4.8239 -2.5038 0.9687
5.6082 5.0282 -2.5038 0.9687
5.2328 5.4173 -2.5036 0.9688
4.8304 5.7784 -2.5035 0.9688
4.6197 5.9479 -2.5034 0.9688
4.1365 6.1971 -2.4767 0.9691
3.5323 6.2156 -2.3764 0.9703
3.2708 6.2693 -2.3505 0.9706
3.0436 6.3824 -2.3504 0.9706
2.3404 6.6741 -2.3509 0.9706
2.0994 6.7542 -2.3511 0.9706
-1.7115 -6.7813 -2.5011 0.9707
-1.2207 -6.8871 -2.5013 0.9707
-0.9727 -6.9268 -2.5014 0.9707
-0.4733 -6.9792 -2.5016 0.9707
-0.2225 -6.9919 -2.5016 0.9707
0.0286 -6.9957 -2.5017 0.9707
0.2797 -6.9904 -2.5018 0.9707
0.5304 -6.9761 -2.5019 0.9707
1.2774 -6.8794 -2.5022 0.9707
1.7677 -6.7706 -2.5024 0.9707
2.0097 -6.7030 -2.5025 0.9707
2.2491 -6.6268 -2.5025 0.9707
2.7188 -6.4488 -2.5027 0.9707
3.1747 -6.2376 -2.5029 0.9707
3.3966 -6.1198 -2.5030 0.9707
4.0352 -5.7197 -2.5032 0.9707
4.4354 -5.4158 -2.5033 0.9707
4.8127 -5.0840 -2.5035 0.9707
5.3318 -4.5375 -2.5037 0.9707
5.4913 -4.3433 -2.5037 0.9707
5.6438 -4.1436 -2.5038 0.9707
5.9267 -3.7281 -2.5039 0.9707
6.1792 -3.2935 -2.5040 0.9707
6.2935 -3.0696 -2.5040 0.9707
6.3997 -2.8418 -2.5041 0.9707
6.4977 -2.6103 -2.5041 0.9707
6.7409 -1.8968 -2.5042 0.9707
6.9059 -1.1612 -2.5043 0.9707
6.9908 -0.4122 -2.5043 0.9707
7.0011 -0.1610 -2.5043 0.9707
6.9778 0.5925 -2.5043 0.9707
6.8735 1.3392 -2.5042 0.9707
6.7596 1.8288 -2.5042 0.9707
6.6109 2.3089 -2.5041 0.9707
6.5237 2.5447 -2.5041 0.9707
6.4280 2.7772 -2.5041 0.9707
5.5348 4.2878 -2.5037 0.9707
5.2127 4.6736 -2.5036 0.9707
4.8638 5.0353 -2.5035 0.9707
4.2940 5.5285 -2.5033 0.9707
3.4582 6.0853 -2.5030 0.9707
2.6911 6.2076 -2.4195 0.9717
2.4328 6.2137 -2.3863 0.9721
2.1826 6.2242 -2.3587 0.9724
1.9506 6.2754 -2.3500 0.9725
-1.5971 -6.3282 -2.5011 0.9724
-1.1391 -6.4269 -2.5013 0.9724
-0.9077 -6.4639 -2.5014 0.9724
-0.4417 -6.5128 -2.5016 0.9724
-0.2077 -6.5247 -2.5016 0.9724
0.9608 -6.4580 -2.5021 0.9724
1.6496 -6.3179 -2.5023 0.9724
1.8753 -6.2549 -2.5024 0.9724
2.0987 -6.1837 -2.5025 0.9724
2.3194 -6.1047 -2.5026 0.9724
2.5371 -6.0177 -2.5027 0.9724
2.7515 -5.9229 -2.5027 0.9724
3.1695 -5.7106 -2.5029 0.9724
3.7653 -5.3373 -2.5031 0.9724
5.1240 -4.0528 -2.5036 0.9724
5.5303 -3.4788 -2.5037 0.9724
5.6517 -3.2781 -2.5038 0.9724
5.9717 -2.6517 -2.5039 0.9724
6.1466 -2.2165 -2.5040 0.9724
6.2223 -1.9945 -2.5040 0.9724
6.3495 -1.5430 -2.5040 0.9724
6.4008 -1.3141 -2.5041 0.9724
6.5327 -0.1502 -2.5041 0.9724
6.5339 0.0844 -2.5041 0.9724
6.5110 0.5529 -2.5041 0.9724
6.4869 0.7862 -2.5041 0.9724
6.0873 2.3745 -2.5040 0.9724
5.9981 2.5914 -2.5039 0.9724
5.9011 2.8050 -2.5039 0.9724
5.7965 3.0150 -2.5038 0.9724
5.6845 3.2210 -2.5038 0.9724
5.5651 3.4229 -2.5038 0.9724
5.3050 3.8132 -2.5037 0.9724
5.1646 4.0011 -2.5036 0.9724
5.0176 4.1838 -2.5036 0.9724
4.7043 4.5327 -2.5034 0.9724
4.5385 4.6986 -2.5034 0.9724
4.3668 4.8583 -2.5033 0.9724
3.8190 5.2991 -2.5031 0.9724
3.6262 5.4326 -2.5030 0.9724
3.4288 5.5591 -2.5030 0.9724
3.2269 5.6784 -2.5029 0.9724
3.0209 5.7904 -2.5028 0.9724
2.8111 5.8950 -2.5028 0.9724
2.5976 5.9918 -2.5027 0.9724
2.1609 6.1624 -2.5025 0.9724
1.9257 6.1951 -2.4861 0.9726
-1.0666 -6.0178 -2.5013 0.9739
-0.1944 -6.1093 -2.5017 0.9739
0.4634 -6.0954 -2.5019 0.9739
0.6819 -6.0750 -2.5020 0.9739
1.3311 -5.9671 -2.5022 0.9739
1.9650 -5.7900 -2.5024 0.9739
2.3755 -5.6344 -2.5026 0.9739
2.5763 -5.5457 -2.5027 0.9739
2.7737 -5.4498 -2.5027 0.9739
2.9677 -5.3468 -2.5028 0.9739
3.1577 -5.2371 -2.5029 0.9739
3.5255 -4.9973 -2.5030 0.9739
3.8751 -4.7317 -2.5031 0.9739
4.2048 -4.4418 -2.5033 0.9739
4.3616 -4.2881 -2.5033 0.9739
4.5128 -4.1289 -2.5034 0.9739
4.6582 -3.9643 -2.5034 0.9739
5.2916 -3.0692 -2.5037 0.9739
5.4983 -2.6817 -2.5037 0.9739
5.6767 -2.2805 -2.5038 0.9739
5.8259 -1.8674 -2.5039 0.9739
5.8892 -1.6571 -2.5039 0.9739
5.9449 -1.4447 -2.5039 0.9739
5.9929 -1.2304 -2.5039 0.9739
6.0333 -1.0145 -2.5039 0.9739
6.0658 -0.7973 -2.5039 0.9739
6.1074 -0.3601 -2.5040 0.9739
6.1164 -0.1406 -2.5040 0.9739
6.1108 0.2985 -2.5040 0.9739
6.0961 0.5177 -2.5040 0.9739
6.0736 0.7362 -2.5039 0.9739
5.7756 2.0172 -2.5038 0.9739
5.5251 2.6263 -2.5037 0.9739
5.0921 3.3897 -2.5036 0.9739
4.8356 3.7461 -2.5035 0.9739
4.6979 3.9172 -2.5034 0.9739
4.4046 4.2440 -2.5033 0.9739
4.2494 4.3992 -2.5033 0.9739
3.7516 4.8302 -2.5031 0.9739
3.2104 5.2050 -2.5029 0.9739
2.8285 5.4216 -2.5028 0.9739
2.6321 5.5195 -2.5027 0.9739
2.4322 5.6102 -2.5026 0.9739
2.2292 5.6937 -2.5025 0.9739
-1.4044 -5.5646 -2.5012 0.9753
-0.7982 -5.6839 -2.5014 0.9753
-0.3884 -5.7268 -2.5016 0.9753
0.0234 -5.7403 -2.5017 0.9753
0.2295 -5.7359 -2.5018 0.9753
0.6404 -5.7050 -2.5020 0.9753
2.0394 -5.3676 -2.5025 0.9753
2.4193 -5.2078 -2.5026 0.9753
3.1400 -4.8085 -2.5029 0.9753
3.3107 -4.6928 -2.5029 0.9753
3.6390 -4.4434 -2.5031 0.9753
3.9486 -4.1711 -2.5032 0.9752
4.2378 -3.8772 -2.5033 0.9752
4.3743 -3.7227 -2.5033 0.9752
4.5052 -3.5634 -2.5034 0.9752
4.6303 -3.3994 -2.5034 0.9752
4.8624 -3.0586 -2.5035 0.9752
4.9692 -2.8822 -2.5035 0.9752
5.1632 -2.5183 -2.5036 0.9752
5.2504 -2.3314 -2.5036 0.9752
5.4042 -1.9488 -2.5037 0.9752
5.4707 -1.7536 -2.5037 0.9752
5.5825 -1.3566 -2.5038 0.9752
5.6961 -0.7487 -2.5038 0.9752
5.7193 -0.5438 -2.5038 0.9752
5.7352 -0.3381 -2.5038 0.9752
5.7447 0.0742 -2.5038 0.9752
5.7034 0.6913 -2.5038 0.9752
5.5959 1.3003 -2.5038 0.9752
5.5456 1.5003 -2.5038 0.9752
5.4881 1.6984 -2.5037 0.9752
5.4236 1.8943 -2.5037 0.9752
5.3521 2.0877 -2.5037 0.9752
5.2736 2.2784 -2.5037 0.9752
5.0964 2.6508 -2.5036 0.9752
4.8930 3.0095 -2.5035 0.9752
4.6643 3.3526 -2.5034 0.9752
4.4116 3.6785 -2.5033 0.9752
4.2767 3.8344 -2.5033 0.9752
4.1362 3.9854 -2.5032 0.9752
3.5230 4.5358 -2.5030 0.9753
3.3578 4.6593 -2.5030 0.9753
3.0148 4.8879 -2.5028 0.9753
2.6562 5.0913 -2.5027 0.9753
2.4717 5.1832 -2.5026 0.9753
1.9001 5.4184 -2.5024 0.9753
1.7043 5.4830 -2.5023 0.9753
-1.3223 -5.2393 -2.5012 0.9765
-0.9431 -5.3210 -2.5014 0.9765
-0.5590 -5.3752 -2.5015 0.9765
0.0221 -5.4046 -2.5017 0.9765
0.6030 -5.3714 -2.5019 0.9765
0.7954 -5.3464 -2.5020 0.9765
0.9868 -5.3146 -2.5021 0.9765
1.1770 -5.2759 -2.5022 0.9765
1.3656 -5.2304 -2.5022 0.9765
1.5525 -5.1781 -2.5023 0.9765
1.7374 -5.1192 -2.5024 0.9765
2.1003 -4.9816 -2.5025 0.9765
2.2778 -4.9032 -2.5026 0.9765
2.4524 -4.8184 -2.5026 0.9765
2.6238 -4.7274 -2.5027 0.9765
2.7919 -4.6303 -2.5027 0.9764
3.1170 -4.4183 -2.5029 0.9764
3.4261 -4.1835 -2.5030 0.9764
3.5741 -4.0579 -2.5030 0.9764
3.7175 -3.9271 -2.5031 0.9764
3.9898 -3.6504 -2.5032 0.9764
4.2416 -3.3549 -2.5033 0.9764
4.5778 -2.8796 -2.5034 0.9764
4.6783 -2.7135 -2.5034 0.9764
4.7728 -2.5439 -2.5035 0.9764
4.8611 -2.3710 -2.5035 0.9764
5.0879 -1.8347 -2.5036 0.9764
5.1506 -1.6509 -2.5036 0.9764
5.3628 -0.7049 -2.5037 0.9764
5.3846 -0.5119 -2.5037 0.9764
5.3995 -0.3183 -2.5037 0.9764
5.4085 0.0699 -2.5037 0.9764
5.3895 0.4577 -2.5037 0.9764
5.3427 0.8431 -2.5037 0.9764
5.2211 1.4125 -2.5036 0.9764
5.1062 1.7834 -2.5036 0.9764
4.7982 2.4957 -2.5035 0.9764
4.5019 2.9969 -2.5034 0.9764
4.2752 3.3120 -2.5033 0.9764
4.1535 3.4633 -2.5032 0.9764
4.0264 3.6100 -2.5032 0.9764
3.8942 3.7521 -2.5031 0.9764
3.1614 4.3867 -2.5029 0.9764
3.0018 4.4972 -2.5028 0.9764
2.8384 4.6019 -2.5028 0.9764
2.6713 4.7008 -2.5027 0.9765
2.5008 4.7935 -2.5026 0.9765
2.3271 4.8800 -2.5026 0.9765
2.1504 4.9603 -2.5025 0.9765
1.7889 5.1015 -2.5024 0.9765
-1.2478 -4.9441 -2.5013 0.9775
-1.0696 -4.9859 -2.5013 0.9775
-0.8900 -5.0212 -2.5014 0.9775
-0.7092 -5.0500 -2.5015 0.9775
0.2039 -5.0962 -2.5018 0.9775
0.3867 -5.0857 -2.5019 0.9775
0.5690 -5.0687 -2.5019 0.9775
0.7506 -5.0451 -2.5020 0.9775
0.9312 -5.0151 -2.5021 0.9775
1.1106 -4.9785 -2.5021 0.9775
1.8119 -4.7689 -2.5024 0.9775
1.9819 -4.7009 -2.5024 0.9775
2.1494 -4.6268 -2.5025 0.9775
2.6345 -4.3693 -2.5027 0.9775
2.9413 -4.1692 -2.5028 0.9775
3.2329 -3.9477 -2.5029 0.9775
3.3726 -3.8291 -2.5030 0.9775
3.7649 -3.4446 -2.5031 0.9775
3.8862 -3.3073 -2.5031 0.9775
4.0025 -3.1657 -2.5032 0.9775
4.1136 -3.0201 -2.5032 0.9775
4.2194 -2.8705 -2.5033 0.9775
4.3198 -2.7173 -2.5033 0.9775
4.4146 -2.5605 -2.5033 0.9775
4.5870 -2.2373 -2.5034 0.9775
4.6644 -2.0712 -2.5034 0.9775
4.7358 -1.9025 -2.5035 0.9775
4.8602 -1.5579 -2.5035 0.9775
4.9130 -1.3824 -2.5035 0.9775
4.9996 -1.0264 -2.5036 0.9775
5.0332 -0.8463 -2.5036 0.9775
5.0604 -0.6651 -2.5036 0.9775
5.1035 0.0659 -2.5036 0.9775
5.0978 0.2491 -2.5036 0.9775
5.0415 0.7956 -2.5036 0.9775
4.9714 1.1552 -2.5035 0.9775
4.9267 1.3329 -2.5035 0.9775
4.8756 1.5088 -2.5035 0.9775
4.4402 2.5159 -2.5033 0.9775
4.3469 2.6736 -2.5033 0.9775
4.2481 2.8279 -2.5033 0.9775
3.6747 3.5406 -2.5031 0.9775
3.5452 3.6702 -2.5030 0.9775
3.4111 3.7950 -2.5030 0.9775
3.1299 4.0298 -2.5029 0.9775
2.9832 4.1394 -2.5028 0.9775
2.8326 4.2437 -2.5028 0.9775
2.6784 4.3425 -2.5027 0.9775
2.5208 4.4358 -2.5026 0.9775
2.3599 4.5233 -2.5026 0.9775
2.1959 4.6050 -2.5025 0.9775
2.0292 4.6807 -2.5025 0.9775
1.8598 4.7504 -2.5024 0.9775
1.6881 4.8140 -2.5023 0.9775
-1.1799 -4.6749 -2.5013 0.9785
-1.0113 -4.7143 -2.5014 0.9785
-0.8415 -4.7477 -2.5014 0.9785
-0.6705 -4.7750 -2.5015 0.9785
-0.3263 -4.8110 -2.5016 0.9785
0.0197 -4.8223 -2.5017 0.9785
0.7097 -4.7703 -2.5020 0.9785
1.0501 -4.7074 -2.5021 0.9785
1.2184 -4.6667 -2.5022 0.9785
1.3852 -4.6201 -2.5022 0.9785
1.8739 -4.4447 -2.5024 0.9785
2.0323 -4.3747 -2.5025 0.9785
2.1881 -4.2991 -2.5025 0.9785
2.3410 -4.2179 -2.5026 0.9785
2.4909 -4.1312 -2.5026 0.9785
2.7810 -3.9420 -2.5027 0.9785
2.9208 -3.8397 -2.5028 0.9785
3.0568 -3.7325 -2.5028 0.9785
3.3168 -3.5037 -2.5029 0.9785
3.4405 -3.3825 -2.5030 0.9785
3.5597 -3.2569 -2.5030 0.9785
3.7843 -2.9932 -2.5031 0.9785
3.8894 -2.8555 -2.5031 0.9785
4.0843 -2.5692 -2.5032 0.9785
4.3370 -2.1153 -2.5033 0.9785
4.4777 -1.7988 -2.5034 0.9785
4.5394 -1.6369 -2.5034 0.9785
4.5953 -1.4729 -2.5034 0.9785
4.7271 -0.9705 -2.5035 0.9785
4.7589 -0.8002 -2.5035 0.9785
4.7846 -0.6289 -2.5035 0.9785
4.8041 -0.4567 -2.5035 0.9785
4.8253 0.0623 -2.5035 0.9785
4.8200 0.2355 -2.5035 0.9785
4.8084 0.4083 -2.5035 0.9785
4.7667 0.7522 -2.5035 0.9785
4.4297 1.9138 -2.5033 0.9785
4.2809 2.2266 -2.5033 0.9785
3.9180 2.8162 -2.5032 0.9785
3.8143 2.9550 -2.5031 0.9785
3.7057 3.0899 -2.5031 0.9785
3.5924 3.2209 -2.5030 0.9785
3.4744 3.3477 -2.5030 0.9785
3.3520 3.4702 -2.5029 0.9785
3.2252 3.5882 -2.5029 0.9785
3.0943 3.7016 -2.5029 0.9785
2.9593 3.8102 -2.5028 0.9785
2.3834 4.1941 -2.5026 0.9785
2.2313 4.2768 -2.5025 0.9785
1.9186 4.4257 -2.5024 0.9785
1.7585 4.4916 -2.5024 0.9785
-0.6351 -4.5229 -2.5015 0.9794
-0.4724 -4.5428 -2.5015 0.9794
-0.3090 -4.5570 -2.5016 0.9794
-0.1453 -4.5652 -2.5017 0.9794
0.1826 -4.5641 -2.5018 0.9794
0.8340 -4.4914 -2.5020 0.9794
1.1541 -4.4202 -2.5021 0.9794
2.0725 -4.0720 -2.5025 0.9794
2.2173 -3.9950 -2.5025 0.9794
2.7665 -3.6369 -2.5027 0.9794
3.0204 -3.4292 -2.5028 0.9794
3.2587 -3.2038 -2.5029 0.9794
3.4802 -2.9618 -2.5030 0.9794
3.5844 -2.8350 -2.5030 0.9794
3.6839 -2.7046 -2.5031 0.9794
3.7786 -2.5707 -2.5031 0.9794
3.8685 -2.4334 -2.5031 0.9794
3.9534 -2.2930 -2.5032 0.9794
4.0332 -2.1497 -2.5032 0.9794
4.2411 -1.7037 -2.5033 0.9794
4.2995 -1.5504 -2.5033 0.9794
4.3524 -1.3951 -2.5033 0.9794
4.4773 -0.9192 -2.5034 0.9794
4.5074 -0.7579 -2.5034 0.9794
4.5317 -0.5956 -2.5034 0.9794
4.5695 -0.1050 -2.5034 0.9794
4.5653 0.2230 -2.5034 0.9794
4.5543 0.3867 -2.5034 0.9794
4.5375 0.5500 -2.5034 0.9794
4.5148 0.7125 -2.5034 0.9794
4.4863 0.8741 -2.5034 0.9794
4.4520 1.0345 -2.5034 0.9794
4.3663 1.3512 -2.5033 0.9794
4.2580 1.6609 -2.5033 0.9794
4.1956 1.8127 -2.5033 0.9794
4.0547 2.1090 -2.5032 0.9794
3.9764 2.2531 -2.5032 0.9794
3.8929 2.3944 -2.5031 0.9794
3.7110 2.6674 -2.5031 0.9794
3.6128 2.7988 -2.5030 0.9794
3.2908 3.1708 -2.5029 0.9794
3.1749 3.2868 -2.5029 0.9794
3.0548 3.3986 -2.5028 0.9794
2.9308 3.5060 -2.5028 0.9794
2.8030 3.6089 -2.5027 0.9794
2.6716 3.7071 -2.5027 0.9794
2.5368 3.8005 -2.5027 0.9794
2.3987 3.8891 -2.5026 0.9794
2.1134 4.0509 -2.5025 0.9794
1.9666 4.1241 -2.5024 0.9794
1.6656 4.2543 -2.5023 0.9794
1.5118 4.3113 -2.5023 0.9794
-0.9087 -4.2361 -2.5014 0.9802
-0.6026 -4.2906 -2.5015 0.9802
-0.4481 -4.3096 -2.5016 0.9802
-0.2932 -4.3230 -2.5016 0.9802
0.0177 -4.3331 -2.5017 0.9802
0.1732 -4.3297 -2.5018 0.9802
0.3285 -4.3208 -2.5018 0.9802
0.4834 -4.3063 -2.5019 0.9802
1.2446 -4.1513 -2.5022 0.9802
1.8261 -3.9308 -2.5024 0.9802
1.9660 -3.8628 -2.5024 0.9802
2.1035 -3.7898 -2.5025 0.9802
2.2382 -3.7120 -2.5025 0.9802
2.7465 -3.3537 -2.5027 0.9802
2.8652 -3.2530 -2.5028 0.9802
2.9802 -3.1481 -2.5028 0.9802
3.1984 -2.9263 -2.5029 0.9802
3.3015 -2.8097 -2.5029 0.9802
3.4002 -2.6894 -2.5030 0.9802
3.4946 -2.5657 -2.5030 0.9802
3.5845 -2.4386 -2.5030 0.9802
3.7503 -2.1752 -2.5031 0.9802
3.8260 -2.0392 -2.5031 0.9802
3.9626 -1.7595 -2.5032 0.9802
4.0786 -1.4708 -2.5032 0.9802
4.1737 -1.1744 -2.5033 0.9802
4.2132 -1.0239 -2.5033 0.9802
4.3283 -0.2552 -2.5033 0.9802
4.3355 0.0560 -2.5033 0.9802
4.3203 0.3669 -2.5033 0.9802
4.2828 0.6758 -2.5033 0.9802
4.2233 0.9814 -2.5033 0.9802
4.1853 1.1323 -2.5033 0.9802
4.0932 1.4296 -2.5032 0.9802
4.0393 1.5756 -2.5032 0.9802
3.8464 2.0006 -2.5031 0.9802
3.7721 2.1374 -2.5031 0.9802
3.6929 2.2713 -2.5031 0.9802
3.6089 2.4024 -2.5030 0.9802
3.4272 2.6550 -2.5030 0.9802
3.3296 2.7763 -2.5029 0.9802
2.8979 3.2240 -2.5028 0.9802
2.0049 3.8429 -2.5025 0.9802
1.8656 3.9122 -2.5024 0.9802
1.7240 3.9766 -2.5024 0.9802
1.5801 4.0358 -2.5023 0.9802
1.4342 4.0899 -2.5022 0.9802
1.2864 4.1386 -2.5022 0.9802
