ply
format ascii 1.0
element vertex 1219
property float32 x
property float32 y
property float32 z
property float32 I
end_header
44.1558 14.5142 8.1957 0.8280
40.0738 14.7953 7.5323 0.8407
40.3789 16.5872 7.6972 0.8375
40.7222 18.4729 7.8847 0.8339
41.5417 22.5899 8.3379 0.8253
15.3314 11.4734 3.3765 0.9252
14.2632 11.4999 3.2306 0.9283
12.3762 11.5467 2.9845 0.9336
11.5344 11.5676 2.8804 0.9358
10.7483 11.5871 2.7868 0.9378
8.0328 11.6545 2.4958 0.9441
7.4365 11.6692 2.4399 0.9453
5.7884 11.7101 2.3033 0.9483
5.3223 11.8231 2.2862 0.9487
4.3354 11.8475 2.2245 0.9500
3.3956 11.8708 2.1771 0.9511
2.0473 11.9042 2.1298 0.9521
0.7413 11.9365 2.1088 0.9526
-0.1216 11.9578 2.1086 0.9526
-1.4270 11.9901 2.1291 0.9521
-1.8697 12.0010 2.1416 0.9519
-2.3183 12.0121 2.1571 0.9515
-2.7740 12.0233 2.1757 0.9511
-3.7125 12.0465 2.2227 0.9501
-15.9870 41.0796 7.7726 0.8361
-14.9020 31.3822 6.1257 0.8684
-15.1993 26.8239 5.4363 0.8823
-16.5259 26.8567 5.5603 0.8798
-17.8511 26.7933 5.6769 0.8774
-20.8515 26.8719 5.9974 0.8710
-15.2282 18.2267 4.1879 0.9080
-15.3144 14.7463 3.7487 0.9173
-20.1973 12.3808 4.1772 0.9083
38.2146 5.2721 5.9097 0.8555
39.8986 18.0992 6.7117 0.8375
39.9428 19.8875 6.8355 0.8348
15.3318 11.4737 2.9336 0.9254
13.2826 11.5245 2.6940 0.9313
12.3765 11.5470 2.5931 0.9338
10.7486 11.5874 2.4212 0.9380
8.6581 11.6392 2.2223 0.9430
6.8658 11.6836 2.0760 0.9466
6.3173 11.6972 2.0366 0.9476
5.3224 11.8233 1.9863 0.9489
4.8222 11.8357 1.9579 0.9496
3.5895 9.8092 1.6002 0.9586
3.1962 9.8190 1.5819 0.9591
2.4336 9.8378 1.5525 0.9598
1.6951 9.8561 1.5321 0.9603
0.6196 9.9766 1.5313 0.9604
-0.1017 9.9976 1.5317 0.9603
-0.4625 9.9885 1.5318 0.9603
-0.8227 9.9663 1.5320 0.9603
-1.1820 9.9310 1.5321 0.9603
-1.5481 9.9363 1.5405 0.9601
-1.9194 9.9454 1.5517 0.9598
-2.2967 9.9548 1.5651 0.9595
-2.6811 9.9643 1.5808 0.9591
-3.0738 9.9740 1.5989 0.9586
-15.9873 41.0804 6.7531 0.8366
-14.9024 31.3830 5.3222 0.8688
-14.9667 28.7886 4.9706 0.8770
-15.1996 26.8245 4.7232 0.8827
-19.3793 26.9276 5.0824 0.8744
-15.3147 14.7465 3.2569 0.9176
-17.0205 12.2055 3.2086 0.9187
44.3865 14.5901 6.0843 0.8282
14.2640 11.5005 2.3860 0.9288
10.0113 11.6059 1.9959 0.9400
9.3162 11.6231 1.9398 0.9417
7.1558 9.6196 1.5613 0.9528
6.2575 9.8192 1.5162 0.9541
5.9004 10.0408 1.5166 0.9541
5.2050 10.5297 1.5296 0.9537
4.8226 10.7129 1.5299 0.9537
4.0389 11.0372 1.5305 0.9537
3.6386 11.1779 1.5308 0.9537
3.2335 11.3041 1.5311 0.9537
2.8239 11.4154 1.5313 0.9537
2.4105 11.5119 1.5316 0.9537
1.5744 11.6597 1.5321 0.9536
1.1528 11.7107 1.5323 0.9536
0.7295 11.7464 1.5326 0.9536
0.2503 9.6513 1.2572 0.9618
-0.1197 11.7716 1.5330 0.9536
-0.5445 11.7611 1.5332 0.9536
-1.3918 11.6939 1.5335 0.9536
-1.8131 11.6372 1.5337 0.9536
-3.8740 11.1270 1.5343 0.9536
-16.4666 26.7602 4.0916 0.8810
-17.9169 26.8920 4.2080 0.8778
-20.4645 26.3731 4.3470 0.8740
-15.2287 18.2274 3.0930 0.9086
-15.2882 15.8233 2.8652 0.9151
-15.3398 13.7390 2.6816 0.9203
-15.3633 12.7915 2.6033 0.9225
-17.0727 12.2429 2.7358 0.9187
-21.9821 12.4064 3.2870 0.9032
39.8265 14.7039 4.5588 0.8430
39.9713 16.4198 4.6402 0.8404
39.8976 18.0987 4.7045 0.8384
39.9418 19.8870 4.7912 0.8357
15.3326 11.4743 2.0564 0.9258
14.2643 11.5008 1.9676 0.9289
10.3104 9.6194 1.5142 0.9449
9.9594 9.9881 1.5146 0.9448
9.5952 10.3440 1.5151 0.9448
8.4282 11.3301 1.5163 0.9448
8.0160 11.6300 1.5168 0.9448
6.8660 11.6841 1.4552 0.9469
6.3175 11.6977 1.4276 0.9479
5.7313 11.5944 1.3888 0.9493
5.3226 11.8237 1.3924 0.9492
3.3958 11.8714 1.3259 0.9515
2.9395 11.8827 1.3145 0.9519
2.0351 11.8334 1.2893 0.9528
1.1740 11.9264 1.2869 0.9529
0.7370 11.8673 1.2768 0.9533
-0.1216 11.9584 1.2842 0.9530
-2.7741 12.0240 1.3251 0.9516
-3.2384 12.0354 1.3384 0.9511
-3.7127 12.0472 1.3537 0.9505
-4.6042 10.6740 1.2483 0.9543
-4.7561 10.0159 1.1906 0.9564
-15.2002 26.8255 3.3109 0.8833
-16.5269 26.8583 3.3864 0.8808
-19.4253 26.9916 3.5710 0.8748
-20.8684 26.8937 3.6553 0.8720
-15.2598 16.9796 2.4514 0.9122
-15.2885 15.8236 2.3627 0.9153
-18.4971 12.2784 2.3840 0.9146
-20.0944 12.3178 2.5309 0.9095
-21.9040 12.3624 2.7008 0.9038
39.9708 16.4196 3.6580 0.8407
39.8971 18.0986 3.7087 0.8387
39.9873 21.7447 3.8532 0.8330
14.6824 10.1823 1.5125 0.9308
13.9201 11.2233 1.5137 0.9307
13.2836 11.5254 1.4888 0.9318
11.5354 11.5687 1.3830 0.9365
10.7493 11.5881 1.3380 0.9385
9.2602 11.5533 1.2534 0.9423
8.0335 11.6554 1.1983 0.9448
6.2960 11.6579 1.1216 0.9482
5.7314 11.5946 1.0949 0.9494
4.8233 11.8385 1.0821 0.9500
4.3366 11.8508 1.0683 0.9506
3.3958 11.8716 1.0453 0.9516
2.0474 11.9050 1.0226 0.9527
1.6090 11.9158 1.0179 0.9529
0.7452 11.9989 1.0177 0.9529
-0.1216 11.9586 1.0124 0.9531
-0.5542 11.9693 1.0143 0.9530
-1.8699 12.0019 1.0282 0.9524
-2.7742 12.0242 1.0446 0.9517
-3.7127 12.0474 1.0672 0.9507
-3.9928 10.2597 0.9320 0.9568
-4.8955 11.3494 1.0463 0.9516
-5.0041 10.5382 0.9876 0.9542
-15.0528 28.9543 2.7625 0.8772
-15.4320 25.0789 2.4927 0.8885
-15.3154 14.7472 1.7998 0.9182
-15.3637 12.7919 1.6924 0.9229
-15.0522 11.6390 1.6107 0.9265
-15.0617 10.8008 1.5690 0.9283
44.3932 14.5923 2.8977 0.8292
39.9408 19.8865 2.7668 0.8363
15.9564 9.4385 1.1496 0.9284
15.2189 9.7603 1.1212 0.9301
15.9193 11.0401 1.2013 0.9253
15.3080 11.4559 1.1856 0.9262
14.2651 11.5014 1.1363 0.9292
12.3777 11.5481 1.0497 0.9344
9.9874 11.5782 0.9482 0.9406
8.6065 11.5698 0.8942 0.9438
8.0337 11.6556 0.8778 0.9448
6.8696 11.6902 0.8408 0.9471
6.2961 11.6581 0.8216 0.9483
5.7315 11.5948 0.8020 0.9495
4.8252 11.8432 0.7930 0.9500
3.3959 11.8719 0.7657 0.9517
2.9396 11.8831 0.7591 0.9521
1.6090 11.9160 0.7456 0.9530
0.7452 11.9991 0.7455 0.9530
-0.1209 11.8889 0.7373 0.9535
-0.9890 11.9803 0.7454 0.9530
-1.4271 11.9911 0.7488 0.9528
-1.8699 12.0021 0.7532 0.9525
-2.3185 12.0131 0.7587 0.9521
-2.7742 12.0244 0.7652 0.9517
-3.7128 12.0476 0.7817 0.9507
-3.9929 10.2599 0.6827 0.9568
-17.6979 41.0296 2.7708 0.8360
-5.4046 10.3958 0.7266 0.9541
-16.7061 25.0747 1.8684 0.8863
-15.2889 15.8241 1.3644 0.9156
-15.3156 14.7474 1.3184 0.9183
-15.4277 13.8178 1.2843 0.9203
-14.3807 11.9734 1.1604 0.9277
-14.4050 11.1385 1.1291 0.9296
44.8390 12.9657 1.8405 0.8296
39.8319 14.7059 1.6742 0.8437
39.8534 16.3713 1.6989 0.8416
39.9863 21.7441 1.7947 0.8334
16.5593 9.7952 0.7586 0.9259
15.3078 11.4557 0.7539 0.9263
14.2655 11.5017 0.7226 0.9293
13.2843 11.5260 0.6935 0.9320
11.5360 11.5692 0.6442 0.9367
10.8058 11.6490 0.6265 0.9384
9.9873 11.5780 0.6029 0.9406
9.3170 11.6241 0.5874 0.9421
8.6067 11.5700 0.5686 0.9439
5.7316 11.5950 0.5100 0.9495
4.3400 11.8600 0.4980 0.9507
3.8633 11.8681 0.4921 0.9513
3.3959 11.8721 0.4869 0.9518
2.4906 11.8944 0.4792 0.9525
2.0475 11.9054 0.4763 0.9528
1.1741 11.9270 0.4726 0.9532
-0.1209 11.8891 0.4688 0.9535
-0.5542 11.9697 0.4725 0.9532
-0.9890 11.9805 0.4740 0.9530
-1.4272 11.9913 0.4762 0.9528
-1.8699 12.0022 0.4790 0.9525
-2.3185 12.0133 0.4824 0.9522
-3.7129 12.0478 0.4971 0.9508
-17.7401 41.1274 1.7661 0.8359
-15.3906 25.0117 1.1580 0.8891
-18.0477 25.0774 1.2183 0.8837
-19.4866 25.1129 1.2534 0.8805
-15.2606 16.9805 0.9002 0.9127
-15.2892 15.8243 0.8676 0.9157
-15.3158 14.7476 0.8384 0.9184
-15.4280 13.8180 0.8167 0.9204
-13.7590 11.4558 0.7060 0.9308
-13.7460 10.6290 0.6852 0.9328
-17.0217 12.2063 0.8259 0.9196
-18.4988 12.2796 0.8755 0.9150
44.5092 12.8703 0.7826 0.8308
39.8337 14.7066 0.7173 0.8438
39.9694 16.4190 0.7299 0.8413
39.8956 18.0979 0.7400 0.8392
39.9398 19.8860 0.7537 0.8365
17.2334 9.3713 0.3314 0.9245
15.2184 9.7601 0.3054 0.9302
36.1924 25.0996 0.7440 0.8384
14.2658 11.5020 0.3095 0.9293
12.3782 11.5487 0.2860 0.9345
9.8991 9.9276 0.2368 0.9455
10.8060 11.6493 0.2684 0.9384
8.6068 11.5702 0.2436 0.9439
7.4457 11.6836 0.2340 0.9461
3.3960 11.8723 0.2086 0.9518
2.0475 11.9056 0.2041 0.9528
1.6091 11.9164 0.2031 0.9530
1.1741 11.9272 0.2024 0.9532
-0.5542 11.9699 0.2024 0.9532
-1.4272 11.9915 0.2040 0.9528
-1.8700 12.0025 0.2052 0.9526
-3.7129 12.0480 0.2130 0.9508
-7.5245 21.6119 0.3866 0.9125
-3.9930 10.2603 0.1860 0.9569
-9.1052 21.1089 0.3883 0.9121
-10.0260 21.1138 0.3948 0.9107
-6.1351 11.8010 0.2247 0.9482
-6.2125 10.0962 0.2002 0.9537
-14.3508 21.5396 0.4372 0.9016
-15.4929 21.5275 0.4480 0.8993
-15.2608 16.9808 0.3857 0.9127
-15.2894 15.8246 0.3717 0.9157
-15.3160 14.7478 0.3592 0.9185
-17.0219 12.2065 0.3538 0.9196
-18.4994 12.2799 0.3751 0.9150
-21.9071 12.3641 0.4249 0.9043
44.5075 12.8698 -0.2608 0.8308
44.3998 14.5945 -0.2631 0.8295
39.8355 14.7072 -0.2391 0.8438
37.9768 17.2275 -0.2348 0.8464
38.0626 20.6981 -0.2439 0.8409
15.2182 9.7599 -0.1018 0.9302
13.2850 11.5265 -0.0990 0.9321
10.8062 11.6495 -0.0895 0.9384
9.9869 11.5776 -0.0861 0.9407
9.3174 11.6246 -0.0839 0.9421
8.6070 11.5705 -0.0812 0.9439
7.4486 11.6882 -0.0780 0.9461
6.8783 11.7050 -0.0764 0.9471
6.2965 11.6587 -0.0746 0.9484
4.8310 11.8572 -0.0721 0.9501
2.9398 11.8837 -0.0689 0.9522
2.4907 11.8948 -0.0684 0.9526
1.6091 11.9166 -0.0677 0.9530
0.7452 11.9997 -0.0677 0.9530
0.2502 9.6472 -0.0543 0.9621
-0.5542 11.9701 -0.0675 0.9532
-1.8700 12.0027 -0.0684 0.9526
-7.5246 21.6123 -0.1288 0.9125
-9.6834 20.3924 -0.1271 0.9137
-15.4933 21.5279 -0.1493 0.8993
-16.6950 21.5152 -0.1533 0.8968
-15.2302 18.2292 -0.1337 0.9094
-15.2611 16.9810 -0.1285 0.9127
-13.4440 12.0410 -0.1016 0.9304
-15.3646 12.7926 -0.1126 0.9231
-13.5225 10.4562 -0.0962 0.9339
-17.0758 12.2451 -0.1183 0.9194
-20.0977 12.3198 -0.1327 0.9100
-18.6613 10.5322 -0.1206 0.9179
44.1899 12.7780 -1.2953 0.8319
39.8373 14.7079 -1.1957 0.8437
37.9763 17.2272 -1.1742 0.8463
15.2180 9.7598 -0.5090 0.9302
14.2665 11.5026 -0.5160 0.9293
9.8988 9.9273 -0.3947 0.9454
9.3176 11.6248 -0.4195 0.9421
6.3342 9.9395 -0.3319 0.9539
5.6689 10.4967 -0.3359 0.9534
5.3232 11.8250 -0.3651 0.9494
4.8309 11.8570 -0.3605 0.9501
3.3961 11.8727 -0.3477 0.9518
2.0476 11.9060 -0.3402 0.9528
-0.1037 10.1950 -0.2871 0.9600
-0.9890 11.9811 -0.3385 0.9530
-1.5941 10.2318 -0.2916 0.9594
-3.5872 10.3031 -0.3072 0.9573
-3.9931 10.2606 -0.3100 0.9569
-8.4829 19.6663 -0.6031 0.9179
-9.3408 19.6709 -0.6132 0.9166
-11.0153 19.4399 -0.6292 0.9145
-15.4936 21.5284 -0.7469 0.8993
-15.2613 16.9813 -0.6429 0.9127
-15.3165 14.7483 -0.5987 0.9184
-15.3648 12.7928 -0.5630 0.9231
-18.6616 10.5324 -0.6034 0.9178
-19.6527 10.1746 -0.6231 0.9153
49.1943 6.7869 -2.5185 0.8196
47.0261 8.2270 -2.4211 0.8260
45.5624 9.6774 -2.3622 0.8298
14.0503 9.7440 -0.8671 0.9338
11.3122 9.8149 -0.7595 0.9418
12.3791 11.5495 -0.8586 0.9344
10.7507 11.5897 -0.8017 0.9386
9.9866 11.5772 -0.7754 0.9406
7.3760 9.9156 -0.6267 0.9517
6.3341 9.9393 -0.5977 0.9539
5.7318 11.5955 -0.6560 0.9495
3.6964 10.1012 -0.5455 0.9578
2.9399 11.8841 -0.6209 0.9522
2.0476 11.9062 -0.6127 0.9528
1.1741 11.9278 -0.6078 0.9531
0.7414 11.9385 -0.6066 0.9532
0.2501 9.6458 -0.4893 0.9621
-0.5542 11.9705 -0.6077 0.9531
-0.9890 11.9813 -0.6097 0.9530
-1.4273 11.9921 -0.6125 0.9528
-3.7131 12.0486 -0.6394 0.9508
-3.5873 10.3035 -0.5533 0.9572
-13.2620 21.5525 -1.2834 0.9036
-15.2307 18.2298 -1.2047 0.9092
-15.2616 16.9816 -1.1579 0.9126
-15.2901 15.8253 -1.1160 0.9156
-14.5345 12.1015 -0.9592 0.9270
-13.5229 10.4564 -0.8669 0.9338
-14.4975 10.3962 -0.9047 0.9310
-19.6509 10.1737 -1.1222 0.9152
34.1157 4.7066 -2.5251 0.8710
33.9875 5.9460 -2.5299 0.8708
33.5943 8.4131 -2.5393 0.8703
33.7618 12.4648 -2.6388 0.8656
30.3159 15.0942 -2.4831 0.8730
29.0574 15.8011 -2.4252 0.8758
16.3845 9.6918 -1.3958 0.9265
13.9729 9.6903 -1.2468 0.9341
12.9814 9.7147 -1.1888 0.9370
10.4788 9.7765 -1.0508 0.9441
9.1284 9.8408 -0.9842 0.9476
8.5020 9.8562 -0.9544 0.9491
7.9117 9.8708 -0.9275 0.9505
15.0620 21.8527 -1.9460 0.8990
5.5066 11.1399 -0.9111 0.9514
5.3234 11.8254 -0.9509 0.9493
3.8622 11.8648 -0.9149 0.9512
3.3962 11.8731 -0.9055 0.9517
2.4908 11.8954 -0.8911 0.9524
1.6092 11.9172 -0.8817 0.9529
1.1742 11.9280 -0.8788 0.9531
0.7414 11.9387 -0.8771 0.9532
-0.5542 11.9707 -0.8787 0.9531
-0.9891 11.9815 -0.8815 0.9529
-1.5942 10.2322 -0.7593 0.9593
-2.3187 12.0144 -0.8972 0.9521
-2.3651 10.2512 -0.7714 0.9587
-3.2388 12.0371 -0.9140 0.9512
-3.5874 10.3038 -0.8000 0.9572
-4.8872 10.2921 -0.8354 0.9553
-9.4786 18.2323 -1.5067 0.9209
-13.2624 21.5530 -1.8555 0.9035
-15.2618 16.9819 -1.6741 0.9125
-15.2904 15.8255 -1.6135 0.9155
-15.3170 14.7487 -1.5591 0.9183
-14.5347 12.1016 -1.3868 0.9269
-13.5231 10.4566 -1.2534 0.9337
-14.9182 10.6979 -1.3460 0.9290
-17.0054 10.4242 -1.4625 0.9231
-19.5474 10.1201 -1.6139 0.9155
26.1986 0.7548 -2.5162 0.9000
26.1474 1.6994 -2.5156 0.9001
25.7898 4.5118 -2.5136 0.9001
25.4390 6.3721 -2.5179 0.9000
25.3065 7.3176 -2.5291 0.8996
25.1391 9.2813 -2.5727 0.8979
24.9966 10.2683 -2.5944 0.8971
24.7791 11.2406 -2.6122 0.8964
24.0895 13.0996 -2.6325 0.8957
16.3850 9.6921 -1.8276 0.9264
12.9817 9.7150 -1.5567 0.9369
10.4790 9.7767 -1.3759 0.9440
9.1006 9.8107 -1.2847 0.9476
7.8875 9.8407 -1.2108 0.9506
7.3305 9.8544 -1.1791 0.9518
4.9504 10.0147 -1.0725 0.9561
4.0889 10.0359 -1.0404 0.9574
2.9131 10.1842 -1.0169 0.9583
2.5433 10.2811 -1.0168 0.9583
2.1181 10.1156 -0.9922 0.9593
1.7413 10.1249 -0.9863 0.9596
1.3684 10.1341 -0.9818 0.9597
0.6305 10.1524 -0.9766 0.9599
0.2501 9.6444 -0.9262 0.9620
-0.8411 10.1887 -0.9815 0.9598
-2.0026 10.3763 -1.0146 0.9584
-2.3753 10.2952 -1.0144 0.9584
-2.7459 10.2049 -1.0146 0.9584
-3.9834 10.2355 -1.0545 0.9568
-5.1738 11.9945 -1.2541 0.9489
-4.9070 10.3337 -1.0983 0.9551
-9.1811 17.6599 -1.9109 0.9231
-12.9249 19.3994 -2.2379 0.9106
-13.6166 18.9203 -2.2379 0.9106
-14.9491 17.8927 -2.2384 0.9106
-15.2620 16.9821 -2.1920 0.9123
-13.4448 12.0417 -1.7328 0.9300
-14.2867 11.8951 -1.7848 0.9280
-13.5233 10.4567 -1.6412 0.9336
-14.5664 10.4456 -1.7209 0.9305
-15.6539 10.3911 -1.8038 0.9273
-18.5379 10.4626 -2.0436 0.9180
-19.4802 10.0853 -2.1060 0.9156
21.1208 0.6085 -2.5099 0.9184
21.0801 1.3701 -2.5093 0.9184
20.7934 3.6377 -2.5075 0.9185
20.6483 4.3857 -2.5074 0.9185
20.5078 5.1358 -2.5113 0.9184
20.0823 6.6011 -2.5111 0.9184
19.8267 7.3200 -2.5105 0.9184
19.5726 8.0402 -2.5135 0.9183
17.4786 9.5047 -2.3633 0.9230
16.2924 9.6373 -2.2485 0.9266
12.9821 9.7153 -1.9261 0.9368
12.0774 9.7376 -1.8428 0.9394
11.2467 9.7580 -1.7687 0.9418
10.4793 9.7770 -1.7024 0.9439
9.7664 9.7946 -1.6430 0.9458
9.1008 9.8110 -1.5896 0.9475
7.8877 9.8409 -1.4981 0.9505
6.2964 9.8802 -1.3917 0.9539
5.8130 9.8921 -1.3629 0.9548
5.4027 10.0037 -1.3505 0.9552
4.9505 10.0148 -1.3270 0.9560
4.0890 10.0361 -1.2873 0.9573
3.2735 10.0562 -1.2562 0.9583
2.8793 10.0660 -1.2437 0.9587
2.4925 10.0755 -1.2329 0.9591
2.1117 10.0850 -1.2239 0.9593
0.6286 10.1216 -1.2046 0.9600
-0.4699 10.1488 -1.2068 0.9599
-0.8385 10.1579 -1.2107 0.9598
-1.2100 10.1671 -1.2162 0.9596
-1.5855 10.1764 -1.2234 0.9594
-1.9658 10.1858 -1.2323 0.9591
-3.1481 10.2150 -1.2697 0.9579
-3.5601 10.2252 -1.2861 0.9573
-3.9834 10.2357 -1.3047 0.9567
-5.1739 11.9947 -1.5517 0.9487
-4.9071 10.3340 -1.3589 0.9550
-5.3569 10.3041 -1.3795 0.9543
-5.8638 10.3484 -1.4129 0.9532
-11.1249 15.4580 -2.2623 0.9262
-11.6761 15.0474 -2.2624 0.9261
-12.2130 14.6179 -2.2627 0.9261
-12.7349 14.1701 -2.2631 0.9261
-13.7311 13.2217 -2.2643 0.9261
-14.0324 11.6834 -2.1690 0.9291
-17.1023 9.6523 -2.3327 0.9239
-17.4418 9.0300 -2.3330 0.9239
17.5266 2.4180 -2.5068 0.9310
17.4243 3.0483 -2.5063 0.9310
17.1517 4.2953 -2.5053 0.9311
16.9819 4.9105 -2.5047 0.9311
16.3409 6.7126 -2.5031 0.9311
15.8071 7.8703 -2.5020 0.9311
15.0955 8.2088 -2.4347 0.9329
14.2655 8.4383 -2.3484 0.9352
13.6135 9.4410 -2.3474 0.9353
12.9824 9.7155 -2.2975 0.9366
12.0777 9.7378 -2.1982 0.9392
11.2470 9.7583 -2.1098 0.9416
8.4764 9.8266 -1.8388 0.9489
7.3308 9.8548 -1.7403 0.9516
6.8015 9.8679 -1.6981 0.9527
6.2965 9.8804 -1.6600 0.9538
5.4028 10.0039 -1.6109 0.9551
4.0891 10.0363 -1.5355 0.9572
3.6763 10.0465 -1.5158 0.9577
3.2736 10.0564 -1.4985 0.9582
2.8794 10.0662 -1.4835 0.9586
2.1118 10.0851 -1.4599 0.9592
1.3643 10.1036 -1.4446 0.9596
0.6286 10.1218 -1.4369 0.9599
0.2501 9.6430 -1.3668 0.9618
-0.4699 10.1489 -1.4395 0.9598
-0.8385 10.1581 -1.4442 0.9597
-1.9659 10.1860 -1.4699 0.9590
-2.7460 10.2053 -1.4974 0.9582
-3.1481 10.2152 -1.5146 0.9577
-3.5601 10.2254 -1.5341 0.9572
-3.9835 10.2359 -1.5563 0.9566
-4.4211 10.2497 -1.5816 0.9559
-4.9073 10.3343 -1.6210 0.9548
-7.4221 14.2765 -2.2799 0.9371
-7.9313 13.9973 -2.2795 0.9371
-8.4304 13.7005 -2.2793 0.9371
-9.3962 13.0560 -2.2792 0.9371
-9.8617 12.7091 -2.2793 0.9371
-10.7554 11.9676 -2.2798 0.9371
-11.1826 11.5740 -2.2803 0.9371
-13.0332 10.0778 -2.3343 0.9356
-13.7285 9.1130 -2.3347 0.9356
-14.0498 8.6124 -2.3350 0.9356
-14.5413 8.2068 -2.3658 0.9348
14.4377 4.7457 -2.5037 0.9402
13.8323 6.2747 -2.5022 0.9403
13.5942 6.7686 -2.5017 0.9403
13.3385 7.2533 -2.5013 0.9403
12.7756 8.1934 -2.5003 0.9403
11.8501 8.2180 -2.3757 0.9432
11.4063 8.5360 -2.3470 0.9439
11.0887 8.9404 -2.3465 0.9439
10.4110 9.7132 -2.3456 0.9439
9.1012 9.8114 -2.2046 0.9472
6.2966 9.8805 -1.9301 0.9536
5.8132 9.8925 -1.8902 0.9546
4.5134 10.0260 -1.8113 0.9564
4.0892 10.0365 -1.7854 0.9570
2.8794 10.0663 -1.7248 0.9584
2.4925 10.0759 -1.7099 0.9588
2.1118 10.0853 -1.6975 0.9591
1.3643 10.1038 -1.6796 0.9595
0.6286 10.1220 -1.6707 0.9597
-0.1031 10.1400 -1.6705 0.9597
-1.5855 10.1767 -1.6967 0.9591
-1.9659 10.1861 -1.7090 0.9588
-2.7460 10.2054 -1.7410 0.9581
-3.1482 10.2154 -1.7610 0.9576
-3.9836 10.2361 -1.8095 0.9564
-4.8728 10.2616 -1.8714 0.9550
-6.8586 12.1041 -2.2919 0.9452
-7.2903 11.8476 -2.2917 0.9452
-7.7128 11.5763 -2.2916 0.9452
-8.1255 11.2904 -2.2916 0.9452
-9.3006 10.3488 -2.2922 0.9452
-10.5626 9.4603 -2.3360 0.9441
-10.8977 9.0734 -2.3361 0.9441
-12.3442 8.1941 -2.4408 0.9417
-12.8783 7.8943 -2.4884 0.9406
-13.1560 7.4250 -2.4887 0.9406
13.3046 0.8647 -2.5060 0.9472
13.2627 1.3441 -2.5056 0.9472
13.0337 2.7683 -2.5045 0.9472
12.9232 3.2363 -2.5041 0.9472
12.7959 3.7000 -2.5037 0.9472
12.6520 4.1588 -2.5033 0.9472
12.3149 5.0588 -2.5024 0.9473
12.1223 5.4990 -2.5020 0.9473
11.9139 5.9320 -2.5016 0.9473
11.6901 6.3570 -2.5012 0.9473
11.4511 6.7736 -2.5007 0.9473
10.9290 7.5793 -2.4999 0.9473
10.6466 7.9674 -2.4995 0.9473
9.1258 8.5142 -2.3459 0.9505
8.4852 9.1473 -2.3452 0.9505
8.1482 9.4460 -2.3448 0.9505
7.3311 9.8552 -2.3087 0.9512
6.8017 9.8683 -2.2528 0.9524
5.8133 9.8927 -2.1567 0.9544
5.4030 10.0043 -2.1371 0.9548
4.9508 10.0154 -2.0999 0.9555
4.5134 10.0262 -2.0667 0.9562
4.0892 10.0367 -2.0371 0.9568
3.2737 10.0568 -1.9879 0.9579
2.8795 10.0665 -1.9680 0.9583
2.4926 10.0761 -1.9510 0.9586
2.1118 10.0855 -1.9368 0.9589
1.7361 10.0948 -1.9253 0.9592
1.3643 10.1039 -1.9164 0.9594
0.6286 10.1221 -1.9062 0.9596
0.2479 9.5605 -1.7976 0.9618
-1.5855 10.1769 -1.9359 0.9589
-1.9659 10.1863 -1.9500 0.9587
-3.1482 10.2156 -2.0092 0.9574
-3.5603 10.2258 -2.0352 0.9569
-6.4161 10.4270 -2.3012 0.9514
-7.6225 9.8233 -2.3371 0.9507
-7.9722 9.5420 -2.3371 0.9507
-8.3116 9.2483 -2.3372 0.9507
-8.6402 8.9426 -2.3372 0.9506
-8.9576 8.6253 -2.3373 0.9506
-9.2635 8.2968 -2.3374 0.9506
-10.4774 8.1015 -2.4894 0.9475
-11.2939 6.9231 -2.4899 0.9475
11.8492 0.3414 -2.5057 0.9527
11.3766 3.2896 -2.5033 0.9527
11.1064 4.1005 -2.5026 0.9527
10.7785 4.8894 -2.5018 0.9528
10.5934 5.2744 -2.5014 0.9528
10.1823 6.0230 -2.5007 0.9528
9.9568 6.3856 -2.5003 0.9528
9.4674 7.0850 -2.4996 0.9528
9.2042 7.4209 -2.4992 0.9528
8.9290 7.7471 -2.4988 0.9528
8.1792 8.2028 -2.4486 0.9537
7.6224 8.2172 -2.3692 0.9552
7.2466 8.4008 -2.3451 0.9557
4.9115 9.9361 -2.3429 0.9557
3.2737 10.0570 -2.2356 0.9577
2.8795 10.0667 -2.2132 0.9581
2.4926 10.0763 -2.1941 0.9585
1.7361 10.0949 -2.1652 0.9590
1.3644 10.1041 -2.1552 0.9592
0.9955 10.1132 -2.1481 0.9593
0.6286 10.1223 -2.1438 0.9594
-0.1031 10.1404 -2.1436 0.9594
-2.3524 10.1961 -2.2119 0.9581
-3.1483 10.2158 -2.2596 0.9572
-3.5603 10.2260 -2.2888 0.9567
-3.9639 10.1854 -2.3103 0.9563
-4.3814 10.1576 -2.3383 0.9558
-5.1025 9.8147 -2.3383 0.9558
-6.1333 9.2056 -2.3382 0.9558
-6.4616 8.9784 -2.3382 0.9558
-6.7815 8.7394 -2.3383 0.9558
-7.3945 8.2278 -2.3384 0.9558
-10.0473 6.1589 -2.4911 0.9530
-10.2638 5.7927 -2.4912 0.9530
-10.4669 5.4189 -2.4914 0.9530
4.1238 0.1188 -0.9696 0.9832
10.5555 1.4562 -2.5043 0.9572
10.4948 1.8360 -2.5040 0.9572
10.2309 2.9584 -2.5030 0.9572
10.1162 3.3252 -2.5027 0.9572
9.9882 3.6876 -2.5024 0.9572
9.6936 4.3973 -2.5017 0.9572
9.1579 5.4171 -2.5007 0.9572
8.9552 5.7432 -2.5003 0.9572
8.2787 6.6747 -2.4993 0.9572
8.0313 6.9682 -2.4990 0.9573
7.2283 7.7923 -2.4980 0.9573
6.9414 8.0470 -2.4977 0.9573
5.3605 8.4116 -2.3442 0.9598
5.0529 8.5985 -2.3440 0.9598
4.0925 9.0911 -2.3431 0.9599
3.4253 9.3605 -2.3426 0.9599
2.7407 9.5812 -2.3421 0.9599
1.6886 9.8185 -2.3415 0.9599
0.2465 9.5035 -2.2343 0.9617
-0.0976 9.6018 -2.2568 0.9613
-1.1767 9.8869 -2.3401 0.9599
-1.5327 9.8375 -2.3399 0.9599
-1.8866 9.7752 -2.3398 0.9599
-2.2380 9.7003 -2.3397 0.9599
-2.5865 9.6128 -2.3396 0.9599
-2.9317 9.5129 -2.3395 0.9599
-3.6100 9.2761 -2.3394 0.9599
-3.9423 9.1395 -2.3393 0.9599
-4.2695 8.9911 -2.3393 0.9599
-4.5912 8.8311 -2.3392 0.9599
-5.5186 8.2830 -2.3392 0.9599
-6.3609 8.1974 -2.4386 0.9583
-7.0852 7.8837 -2.4912 0.9574
-7.3653 7.6230 -2.4912 0.9574
-7.8965 7.0724 -2.4914 0.9574
-8.1469 6.7831 -2.4915 0.9574
-8.8336 5.8637 -2.4919 0.9574
-9.2343 5.2119 -2.4922 0.9574
-9.4173 4.8755 -2.4923 0.9574
3.7325 0.1075 -0.9668 0.9847
9.5250 1.6663 -2.5036 0.9608
9.3778 2.3485 -2.5031 0.9608
9.2858 2.6851 -2.5028 0.9608
9.0658 3.3471 -2.5022 0.9609
8.9380 3.6716 -2.5019 0.9609
8.6478 4.3057 -2.5013 0.9609
7.9344 5.5025 -2.5000 0.9609
7.7297 5.7845 -2.4997 0.9609
7.5150 6.0590 -2.4994 0.9609
7.2905 6.3255 -2.4991 0.9609
7.0566 6.5837 -2.4988 0.9609
6.8136 6.8332 -2.4985 0.9609
6.5618 7.0738 -2.4982 0.9609
5.4731 7.9407 -2.4970 0.9609
5.1824 8.1321 -2.4968 0.9609
4.8179 8.1986 -2.4622 0.9615
4.0607 8.2148 -2.3726 0.9628
3.4149 8.3815 -2.3433 0.9633
3.1098 8.4985 -2.3431 0.9633
2.4883 8.6990 -2.3427 0.9633
2.1725 8.7823 -2.3425 0.9633
1.5332 8.9146 -2.3421 0.9633
1.2103 8.9635 -2.3419 0.9633
0.8860 9.0006 -2.3417 0.9633
0.5606 9.0261 -2.3415 0.9633
-0.4182 9.0320 -2.3411 0.9633
-1.0684 8.9773 -2.3408 0.9633
-1.3917 8.9324 -2.3407 0.9633
-2.3486 8.7286 -2.3404 0.9633
-2.9719 8.5359 -2.3402 0.9633
-3.5797 8.2989 -2.3401 0.9633
-5.0388 8.1887 -2.4895 0.9611
-5.3363 8.0094 -2.4919 0.9610
-5.6219 7.8116 -2.4919 0.9610
-5.9002 7.6037 -2.4919 0.9610
-6.1709 7.3860 -2.4920 0.9610
-6.6879 6.9219 -2.4921 0.9610
-6.9335 6.6762 -2.4921 0.9610
-7.3975 6.1591 -2.4923 0.9610
-7.6153 5.8884 -2.4924 0.9610
-8.0209 5.3243 -2.4926 0.9610
-8.2083 5.0316 -2.4928 0.9610
-8.3850 4.7323 -2.4929 0.9610
-8.5508 4.4269 -2.4931 0.9610
3.4698 0.1000 -0.9827 0.9857
3.5836 0.3632 -1.0197 0.9851
4.7882 0.6606 -1.3684 0.9801
8.7106 1.5239 -2.5034 0.9639
8.6490 1.8370 -2.5031 0.9639
8.4922 2.4556 -2.5026 0.9639
8.3971 2.7602 -2.5023 0.9639
8.1744 3.3579 -2.5017 0.9639
8.0470 3.6503 -2.5015 0.9639
7.9091 3.9379 -2.5012 0.9639
7.7609 4.2203 -2.5009 0.9639
7.2569 5.0327 -2.5001 0.9640
7.0697 5.2907 -2.4998 0.9640
6.4544 6.0218 -2.4989 0.9640
6.2321 6.2501 -2.4987 0.9640
6.0019 6.4702 -2.4984 0.9640
5.5183 6.8848 -2.4979 0.9640
4.7404 7.4386 -2.4971 0.9640
4.1907 7.7596 -2.4966 0.9640
3.9075 7.9050 -2.4963 0.9640
2.9992 8.1962 -2.4707 0.9644
2.6697 8.2013 -2.4417 0.9648
2.3473 8.2059 -2.4162 0.9651
2.0309 8.2098 -2.3942 0.9655
1.7197 8.2131 -2.3755 0.9657
1.4130 8.2158 -2.3600 0.9659
1.1105 8.2243 -2.3494 0.9661
0.5128 8.2572 -2.3421 0.9662
-0.9791 8.2265 -2.3453 0.9661
-1.5850 8.2129 -2.3679 0.9658
-1.8940 8.2095 -2.3851 0.9656
-2.2079 8.2056 -2.4056 0.9653
-2.8535 8.1958 -2.4568 0.9646
-3.1873 8.1899 -2.4879 0.9641
-3.4875 8.0852 -2.4927 0.9641
-4.0615 7.8123 -2.4927 0.9641
-4.6144 7.4989 -2.4926 0.9641
-5.1433 7.1466 -2.4926 0.9641
-5.3979 6.9564 -2.4927 0.9641
-6.1185 6.3326 -2.4928 0.9641
-6.7676 5.6347 -2.4930 0.9641
-7.1570 5.1323 -2.4932 0.9640
-7.3379 4.8709 -2.4933 0.9640
-7.8226 4.0499 -2.4937 0.9640
3.3564 0.3401 -1.0376 0.9860
8.0164 1.4024 -2.5031 0.9665
7.9598 1.6906 -2.5029 0.9665
7.8929 1.9766 -2.5026 0.9665
7.8156 2.2600 -2.5024 0.9665
7.7282 2.5403 -2.5021 0.9665
7.2793 3.6243 -2.5011 0.9665
7.1430 3.8843 -2.5009 0.9665
6.5071 4.8696 -2.4998 0.9666
6.1376 5.3252 -2.4993 0.9666
5.7363 5.7529 -2.4988 0.9666
5.5244 5.9555 -2.4986 0.9666
5.3054 6.1504 -2.4983 0.9666
5.0795 6.3372 -2.4981 0.9666
3.8575 7.1427 -2.4969 0.9666
3.5970 7.2767 -2.4967 0.9666
3.3317 7.4011 -2.4964 0.9666
3.0622 7.5159 -2.4962 0.9666
2.7887 7.6208 -2.4960 0.9666
1.6627 7.9403 -2.4952 0.9666
1.3749 7.9946 -2.4951 0.9666
0.7946 8.0719 -2.4947 0.9666
0.5027 8.0948 -2.4946 0.9666
0.2102 8.1072 -2.4944 0.9666
-0.0825 8.1090 -2.4943 0.9666
-0.3750 8.1003 -2.4942 0.9666
-1.2481 8.0113 -2.4938 0.9666
-1.5364 7.9607 -2.4937 0.9666
-1.8226 7.8998 -2.4936 0.9666
-2.3876 7.7472 -2.4935 0.9666
-2.6655 7.6559 -2.4934 0.9666
-2.9400 7.5545 -2.4934 0.9666
-3.7391 7.1922 -2.4933 0.9666
-4.4945 6.7459 -2.4932 0.9666
-4.7351 6.5793 -2.4933 0.9666
-5.1974 6.2208 -2.4933 0.9666
-5.6328 5.8299 -2.4934 0.9666
-5.8396 5.6229 -2.4935 0.9666
-6.0389 5.4087 -2.4935 0.9666
-6.4137 4.9593 -2.4937 0.9666
-6.7553 4.4841 -2.4939 0.9666
-7.0618 3.9855 -2.4941 0.9666
3.1221 0.2029 -1.0400 0.9869
7.2314 2.0910 -2.5022 0.9688
6.8527 3.1086 -2.5013 0.9688
6.7354 3.3536 -2.5011 0.9688
6.6094 3.5941 -2.5008 0.9688
6.3317 4.0607 -2.5004 0.9688
6.0212 4.5060 -2.4999 0.9688
5.3082 5.3234 -2.4989 0.9688
5.1121 5.5110 -2.4987 0.9688
4.9094 5.6914 -2.4985 0.9688
4.7004 5.8643 -2.4982 0.9688
4.2644 6.1870 -2.4978 0.9688
4.0380 6.3363 -2.4976 0.9688
3.8064 6.4773 -2.4974 0.9688
3.5698 6.6099 -2.4971 0.9688
3.3287 6.7339 -2.4969 0.9688
2.5808 7.0526 -2.4963 0.9688
2.0650 7.2193 -2.4960 0.9688
1.5387 7.3484 -2.4956 0.9688
0.7354 7.4703 -2.4952 0.9689
0.4652 7.4915 -2.4950 0.9689
0.1946 7.5030 -2.4949 0.9689
-0.0763 7.5047 -2.4948 0.9689
-0.6174 7.4790 -2.4945 0.9689
-1.1552 7.4144 -2.4943 0.9689
-1.6868 7.3112 -2.4941 0.9689
-1.9495 7.2454 -2.4941 0.9689
-2.7210 6.9917 -2.4939 0.9689
-3.2181 6.7771 -2.4938 0.9689
-3.4606 6.6564 -2.4938 0.9689
-3.6985 6.5272 -2.4938 0.9689
-3.9317 6.3895 -2.4938 0.9689
-4.1597 6.2434 -2.4938 0.9689
-4.3823 6.0892 -2.4938 0.9689
-4.5993 5.9272 -2.4938 0.9689
-5.0149 5.5801 -2.4939 0.9689
-5.4045 5.2041 -2.4940 0.9689
-5.7662 4.8009 -2.4941 0.9689
-6.0979 4.3728 -2.4943 0.9689
6.7878 1.6999 -2.5023 0.9707
6.7215 1.9436 -2.5021 0.9707
6.0184 3.5600 -2.5006 0.9707
5.7449 3.9841 -2.5001 0.9707
5.5969 4.1885 -2.4999 0.9707
5.4416 4.3873 -2.4997 0.9707
5.2793 4.5804 -2.4995 0.9707
4.9343 4.9485 -2.4990 0.9707
4.3694 5.4514 -2.4984 0.9708
3.3185 6.1447 -2.4974 0.9708
3.0944 6.2600 -2.4972 0.9708
1.4305 6.8315 -2.4960 0.9708
1.1829 6.8782 -2.4958 0.9708
0.9339 6.9160 -2.4957 0.9708
0.6836 6.9448 -2.4955 0.9708
0.4325 6.9646 -2.4954 0.9708
0.1809 6.9754 -2.4953 0.9708
-0.3227 6.9695 -2.4950 0.9708
-0.8245 6.9276 -2.4948 0.9708
-1.0739 6.8931 -2.4947 0.9708
-1.5682 6.7972 -2.4946 0.9708
-2.2935 6.5874 -2.4944 0.9708
-2.5297 6.5002 -2.4944 0.9708
-2.7626 6.4046 -2.4943 0.9708
-3.2173 6.1885 -2.4943 0.9708
-3.8673 5.8045 -2.4942 0.9708
-4.0743 5.6612 -2.4943 0.9708
-4.2760 5.5105 -2.4943 0.9708
-4.6624 5.1878 -2.4943 0.9708
-4.8467 5.0163 -2.4944 0.9708
-5.1961 4.6538 -2.4945 0.9708
-5.3608 4.4634 -2.4945 0.9708
-5.5185 4.2671 -2.4946 0.9708
-5.6691 4.0653 -2.4947 0.9708
-5.9480 3.6461 -2.4949 0.9708
-6.1961 3.2078 -2.4951 0.9708
2.8809 0.0830 -1.1045 0.9877
2.8771 0.1870 -1.1049 0.9877
2.9413 0.4058 -1.1379 0.9874
6.4328 1.1254 -2.5026 0.9724
6.3875 1.3566 -2.5024 0.9724
6.3338 1.5862 -2.5022 0.9724
6.2720 1.8136 -2.5020 0.9724
6.2019 2.0386 -2.5018 0.9724
6.1238 2.2609 -2.5016 0.9724
6.0377 2.4802 -2.5014 0.9724
5.9438 2.6963 -2.5012 0.9724
5.8422 2.9088 -2.5010 0.9724
5.7329 3.1175 -2.5008 0.9724
5.2229 3.9086 -2.4999 0.9724
5.0781 4.0942 -2.4997 0.9724
3.8913 5.2308 -2.4983 0.9725
3.6995 5.3674 -2.4981 0.9725
3.5031 5.4970 -2.4979 0.9725
3.0970 5.7345 -2.4976 0.9725
2.6749 5.9421 -2.4972 0.9725
2.2390 6.1187 -2.4969 0.9725
2.0167 6.1951 -2.4967 0.9725
1.7917 6.2635 -2.4966 0.9725
1.5644 6.3237 -2.4964 0.9725
0.6380 6.4815 -2.4959 0.9725
0.1688 6.5100 -2.4956 0.9725
-0.0662 6.5116 -2.4955 0.9725
-0.3012 6.5047 -2.4954 0.9725
-0.5357 6.4894 -2.4953 0.9725
-0.7695 6.4655 -2.4952 0.9725
-2.1406 6.1481 -2.4948 0.9725
-2.3610 6.0668 -2.4948 0.9725
-2.5784 5.9775 -2.4947 0.9725
-3.4116 5.5442 -2.4947 0.9725
-4.3515 4.8419 -2.4947 0.9725
-4.6896 4.5156 -2.4948 0.9725
-5.1505 3.9826 -2.4950 0.9725
-5.2910 3.7942 -2.4951 0.9725
-5.4247 3.6009 -2.4952 0.9725
-5.5513 3.4029 -2.4952 0.9725
2.7875 0.2825 -1.1467 0.9880
2.8149 0.3883 -1.1630 0.9878
6.0229 1.0537 -2.5025 0.9739
5.8069 1.9087 -2.5017 0.9739
5.4701 2.7236 -2.5009 0.9739
5.1425 3.2980 -2.5004 0.9739
5.0198 3.4812 -2.5002 0.9739
4.8905 3.6598 -2.5000 0.9739
4.3117 4.3241 -2.4992 0.9740
4.1525 4.4765 -2.4990 0.9740
3.9879 4.6231 -2.4988 0.9740
3.8182 4.7637 -2.4986 0.9740
3.4641 5.0259 -2.4983 0.9740
3.2803 5.1473 -2.4981 0.9740
2.9000 5.3698 -2.4978 0.9740
2.5048 5.5642 -2.4974 0.9740
2.3023 5.6507 -2.4973 0.9740
1.8884 5.8012 -2.4970 0.9740
1.6777 5.8653 -2.4968 0.9740
1.4649 5.9217 -2.4967 0.9740
0.8162 6.0444 -2.4963 0.9740
0.3780 6.0869 -2.4960 0.9740
0.1581 6.0963 -2.4959 0.9740
-0.2820 6.0914 -2.4957 0.9740
-0.5017 6.0770 -2.4956 0.9740
-0.7206 6.0547 -2.4955 0.9740
-1.3707 5.9408 -2.4953 0.9740
-2.2110 5.6813 -2.4951 0.9740
-2.6150 5.5069 -2.4951 0.9740
-3.0054 5.3039 -2.4950 0.9740
-3.1948 5.1920 -2.4950 0.9740
-3.3801 5.0733 -2.4950 0.9740
-3.7373 4.8163 -2.4950 0.9740
-4.0750 4.5343 -2.4951 0.9740
-4.3916 4.2287 -2.4952 0.9740
-4.6854 3.9011 -2.4953 0.9740
-4.8233 3.7295 -2.4953 0.9740
-5.0800 3.3721 -2.4955 0.9740
-5.4153 2.8036 -2.4958 0.9740
2.7115 0.3741 -1.1929 0.9881
5.6160 1.1928 -2.5022 0.9753
5.3088 2.1808 -2.5013 0.9753
5.0409 2.7412 -2.5007 0.9753
4.7141 3.2692 -2.5002 0.9753
4.4653 3.6002 -2.4998 0.9753
4.1934 3.9123 -2.4995 0.9753
3.7452 4.3417 -2.4989 0.9753
3.5858 4.4738 -2.4987 0.9753
2.9040 4.9418 -2.4981 0.9753
2.5397 5.1378 -2.4978 0.9753
1.7736 5.4484 -2.4972 0.9753
1.1741 5.6073 -2.4968 0.9753
0.9710 5.6457 -2.4966 0.9753
0.7665 5.6768 -2.4965 0.9753
0.1485 5.7256 -2.4962 0.9753
-0.0582 5.7271 -2.4961 0.9753
-1.4878 5.5295 -2.4956 0.9753
-2.0766 5.3360 -2.4954 0.9753
-2.2686 5.2576 -2.4954 0.9753
-2.4561 5.1722 -2.4954 0.9753
-2.6411 5.0802 -2.4954 0.9753
-3.3446 4.6473 -2.4954 0.9753
-3.5101 4.5236 -2.4954 0.9753
-3.8274 4.2587 -2.4954 0.9753
-3.9786 4.1178 -2.4955 0.9753
-4.1247 3.9716 -2.4955 0.9753
-4.4006 3.6639 -2.4956 0.9753
-4.5301 3.5028 -2.4957 0.9753
-4.6537 3.3371 -2.4957 0.9753
-4.7712 3.1671 -2.4958 0.9753
-4.8825 2.9929 -2.4959 0.9753
-4.9876 2.8149 -2.4960 0.9753
-5.0861 2.6331 -2.4960 0.9753
2.6154 0.0754 -1.2111 0.9885
2.6140 0.2649 -1.2162 0.9885
2.6221 0.3618 -1.2252 0.9884
2.7465 0.4805 -1.2906 0.9878
5.2874 1.1230 -2.5021 0.9765
5.2431 1.3130 -2.5019 0.9765
5.1919 1.5013 -2.5017 0.9765
5.1340 1.6876 -2.5016 0.9765
4.9206 2.2321 -2.5011 0.9765
4.8365 2.4080 -2.5009 0.9765
4.6495 2.7502 -2.5005 0.9765
4.5469 2.9161 -2.5004 0.9765
4.4384 3.0780 -2.5002 0.9765
4.0789 3.5390 -2.4997 0.9765
3.3763 4.2123 -2.4988 0.9765
3.2218 4.3311 -2.4987 0.9765
3.0633 4.4443 -2.4985 0.9765
2.9007 4.5517 -2.4984 0.9765
2.5645 4.7484 -2.4981 0.9765
2.3913 4.8376 -2.4979 0.9765
2.0359 4.9969 -2.4976 0.9765
1.8541 5.0669 -2.4975 0.9765
1.4840 5.1868 -2.4972 0.9765
1.2955 5.2368 -2.4971 0.9765
1.1056 5.2798 -2.4970 0.9765
0.9142 5.3161 -2.4969 0.9765
0.3343 5.3831 -2.4965 0.9765
-0.0548 5.3927 -2.4963 0.9765
-0.4437 5.3744 -2.4962 0.9765
-1.0218 5.2945 -2.4960 0.9765
-1.2127 5.2540 -2.4959 0.9765
-1.5880 5.1527 -2.4958 0.9765
-1.7729 5.0919 -2.4958 0.9765
-1.9554 5.0246 -2.4957 0.9765
-2.1355 4.9507 -2.4957 0.9765
-2.3127 4.8703 -2.4957 0.9765
-2.4870 4.7836 -2.4957 0.9765
-3.3053 4.2596 -2.4957 0.9765
-3.7464 3.8775 -2.4957 0.9765
-3.8839 3.7398 -2.4958 0.9765
-4.0165 3.5973 -2.4958 0.9765
-4.3820 3.1423 -2.4960 0.9765
-4.4927 2.9822 -2.4961 0.9765
2.5917 0.2627 -1.2778 0.9885
2.5913 0.3575 -1.2831 0.9884
2.6238 0.4590 -1.3066 0.9882
4.9475 1.2390 -2.5018 0.9775
4.8993 1.4166 -2.5017 0.9775
4.6433 2.1063 -2.5010 0.9775
4.3875 2.5953 -2.5005 0.9775
4.2908 2.7517 -2.5004 0.9775
3.9674 3.1988 -2.4999 0.9776
3.7259 3.4762 -2.4996 0.9776
3.4650 3.7354 -2.4992 0.9776
3.0404 4.0873 -2.4988 0.9776
2.8908 4.1940 -2.4986 0.9776
2.7374 4.2954 -2.4985 0.9776
2.5804 4.3911 -2.4983 0.9776
2.0904 4.6435 -2.4979 0.9776
1.7498 4.7817 -2.4977 0.9776
1.0434 4.9828 -2.4972 0.9776
0.8628 5.0169 -2.4971 0.9776
0.3155 5.0801 -2.4968 0.9776
0.1319 5.0881 -2.4967 0.9776
-0.0518 5.0893 -2.4966 0.9776
-0.2354 5.0840 -2.4965 0.9776
-0.6015 5.0535 -2.4963 0.9776
-0.9644 4.9966 -2.4962 0.9776
-1.1440 4.9585 -2.4962 0.9776
-1.3222 4.9139 -2.4961 0.9776
-1.6731 4.8055 -2.4960 0.9776
-2.9576 4.1096 -2.4836 0.9777
-3.2624 3.9048 -2.4960 0.9776
-3.4013 3.7846 -2.4960 0.9776
-3.6655 3.5295 -2.4960 0.9776
-3.8914 3.2399 -2.4838 0.9777
-4.1355 2.9655 -2.4962 0.9776
-4.2400 2.8145 -2.4963 0.9776
-4.3389 2.6597 -2.4964 0.9776
2.5670 0.0740 -1.3322 0.9885
2.5683 0.1669 -1.3352 0.9885
2.5673 0.2602 -1.3387 0.9884
2.8050 0.5958 -1.4876 0.9872
4.6779 1.1715 -2.5017 0.9785
4.6323 1.3394 -2.5016 0.9785
4.5231 1.6699 -2.5013 0.9785
4.2347 2.3027 -2.5007 0.9785
4.1486 2.4539 -2.5005 0.9785
4.0571 2.6019 -2.5004 0.9785
3.6396 3.1578 -2.4998 0.9785
3.4019 3.4117 -2.4995 0.9785
3.2764 3.5320 -2.4993 0.9785
3.1466 3.6477 -2.4992 0.9785
2.5884 4.0616 -2.4986 0.9785
2.4400 4.1521 -2.4985 0.9785
2.2884 4.2373 -2.4983 0.9785
1.9766 4.3908 -2.4981 0.9785
1.4903 4.5780 -2.4977 0.9785
0.9866 4.7117 -2.4973 0.9785
0.8159 4.7440 -2.4972 0.9785
0.6441 4.7702 -2.4971 0.9785
0.2983 4.8039 -2.4970 0.9785
-0.0489 4.8126 -2.4968 0.9785
-0.3959 4.7962 -2.4966 0.9785
-0.5688 4.7786 -2.4966 0.9785
-1.0818 4.6889 -2.4964 0.9785
-1.2503 4.6467 -2.4963 0.9785
-1.4172 4.5984 -2.4963 0.9786
-1.7451 4.4841 -2.4962 0.9786
-2.0640 4.3465 -2.4962 0.9786
-2.5092 4.0777 -2.4838 0.9787
-2.6547 3.9845 -2.4838 0.9787
-2.9498 3.8014 -2.4962 0.9786
-3.0851 3.6925 -2.4962 0.9786
-3.3434 3.4604 -2.4962 0.9786
-3.4662 3.3376 -2.4963 0.9786
-3.5667 3.1945 -2.4840 0.9787
-4.1911 2.3654 -2.4967 0.9785
2.5457 0.1655 -1.3972 0.9884
2.5440 0.2578 -1.4005 0.9884
2.6300 0.5586 -1.4726 0.9878
4.2841 1.5817 -2.5012 0.9794
4.2240 1.7352 -2.5011 0.9794
4.0874 2.0351 -2.5008 0.9794
3.9295 2.3243 -2.5005 0.9794
3.8428 2.4645 -2.5004 0.9794
3.7511 2.6014 -2.5002 0.9794
3.4474 2.9911 -2.4998 0.9794
3.3370 3.1133 -2.4996 0.9794
3.2223 3.2316 -2.4995 0.9794
2.8537 3.5603 -2.4991 0.9794
2.5892 3.7564 -2.4988 0.9794
2.4518 3.8472 -2.4987 0.9794
2.3112 3.9330 -2.4986 0.9794
1.8723 4.1592 -2.4982 0.9794
1.7209 4.2238 -2.4981 0.9794
1.2542 4.3845 -2.4977 0.9794
0.9346 4.4631 -2.4975 0.9794
0.7728 4.4938 -2.4974 0.9794
0.6101 4.5186 -2.4973 0.9794
0.4467 4.5375 -2.4972 0.9794
-0.0464 4.5587 -2.4970 0.9794
-0.2108 4.5540 -2.4969 0.9794
-0.3751 4.5432 -2.4968 0.9794
-0.5388 4.5266 -2.4968 0.9794
-0.7018 4.5041 -2.4967 0.9794
-0.8638 4.4758 -2.4967 0.9794
-1.3424 4.3560 -2.4965 0.9794
-1.8053 4.1852 -2.4964 0.9794
-1.9551 4.1173 -2.4964 0.9794
-2.1024 4.0440 -2.4964 0.9794
-2.5272 3.7931 -2.4964 0.9794
-2.6493 3.6812 -2.4841 0.9795
-2.7804 3.5832 -2.4841 0.9795
-3.0317 3.3734 -2.4841 0.9795
-3.2672 3.1460 -2.4842 0.9795
-3.3787 3.0261 -2.4842 0.9795
-3.6061 2.7883 -2.4966 0.9794
-3.9701 2.2406 -2.4969 0.9794
2.5244 0.0728 -1.4581 0.9884
2.5262 0.1642 -1.4616 0.9884
2.5396 0.4443 -1.4885 0.9882
2.6043 0.5532 -1.5372 0.9878
4.2031 1.0526 -2.5016 0.9802
4.1622 1.2035 -2.5015 0.9802
4.1158 1.3529 -2.5013 0.9802
4.0641 1.5004 -2.5012 0.9802
4.0071 1.6460 -2.5011 0.9802
3.8775 1.9306 -2.5008 0.9802
3.7277 2.2050 -2.5005 0.9802
3.1657 2.9535 -2.4997 0.9802
3.0569 3.0657 -2.4996 0.9802
2.9441 3.1738 -2.4994 0.9802
2.8275 3.2779 -2.4993 0.9802
2.7072 3.3776 -2.4992 0.9802
2.5834 3.4729 -2.4990 0.9802
2.4563 3.5637 -2.4989 0.9802
2.0564 3.8077 -2.4985 0.9802
1.9176 3.8793 -2.4984 0.9802
1.4869 4.0632 -2.4981 0.9802
1.3392 4.1141 -2.4980 0.9802
1.1898 4.1596 -2.4979 0.9802
0.8866 4.2342 -2.4977 0.9802
0.5788 4.2868 -2.4975 0.9802
0.2681 4.3171 -2.4973 0.9802
-0.0440 4.3249 -2.4972 0.9802
-0.2000 4.3204 -2.4971 0.9802
-0.3558 4.3103 -2.4970 0.9802
-0.5111 4.2945 -2.4970 0.9802
-0.6658 4.2732 -2.4969 0.9802
-0.9722 4.2138 -2.4968 0.9802
-1.1236 4.1760 -2.4968 0.9802
-1.2736 4.1326 -2.4967 0.9802
-1.4219 4.0839 -2.4967 0.9802
-1.5683 4.0299 -2.4967 0.9802
-1.7127 3.9706 -2.4966 0.9802
-2.2662 3.6828 -2.4966 0.9802
-2.3976 3.5986 -2.4966 0.9802
-2.6510 3.4164 -2.4966 0.9802
-2.8763 3.2004 -2.4843 0.9803
-2.9899 3.0946 -2.4843 0.9803
-3.2213 2.8851 -2.4967 0.9802
-3.6873 2.2603 -2.4970 0.9802
-3.8409 1.9885 -2.4971 0.9802
