ply
format ascii 1.0
element vertex 949
property float32 x
property float32 y
property float32 z
property float32 I
end_header
-17.5131 9.3864 3.5036 0.9225
-17.5851 7.8597 3.3964 0.9247
-18.6112 -13.2622 4.0296 0.9114
-20.5406 -19.6208 5.0087 0.8910
-8.6850 -11.0774 2.4820 0.9444
-17.5132 9.3865 3.0440 0.9227
-17.6460 8.6585 3.0112 0.9235
-18.6113 -13.2622 3.5010 0.9117
-17.5134 9.3866 2.5875 0.9230
-46.7184 -12.4630 6.2965 0.8228
-18.6113 -13.2623 2.9760 0.9119
-8.6834 -11.0755 1.8327 0.9448
-46.3486 -14.1618 5.2041 0.8229
-20.5353 -19.6157 3.0495 0.8920
-17.5138 9.3868 1.6821 0.9233
-46.3490 -14.1619 4.1026 0.8232
-46.1985 -15.9473 4.1373 0.8219
-46.2645 -17.8500 4.1978 0.8195
-46.1989 -15.9474 3.0307 0.8221
-46.2649 -17.8501 3.0750 0.8198
-18.6115 -13.2624 1.4171 0.9125
-46.3497 -14.1622 1.9110 0.8236
-46.2653 -17.8503 1.9553 0.8200
-18.6115 -13.2624 0.9011 0.9126
-20.5301 -19.6107 1.1195 0.8926
-19.2237 14.1753 0.4035 0.9089
-17.5143 9.3871 0.3357 0.9236
-46.7202 -12.4635 0.8168 0.8241
-46.1997 -15.9476 0.8256 0.8224
-46.2657 -17.8504 0.8377 0.8201
-18.6116 -13.2625 0.3860 0.9126
-20.5283 -19.6091 0.4795 0.8926
-8.6797 -11.0708 0.2376 0.9453
-19.4497 15.4478 -0.1398 0.9054
-20.1949 12.7653 -0.1345 0.9089
-17.5145 9.3872 -0.1119 0.9236
-46.7205 -12.4636 -0.2722 0.8241
-46.2661 -17.8506 -0.2792 0.8201
-18.6116 -13.2625 -0.1287 0.9126
-20.5266 -19.6074 -0.1598 0.8927
-8.6790 -11.0698 -0.0792 0.9453
-19.4499 15.4479 -0.6994 0.9054
-19.4732 14.3593 -0.6813 0.9077
-17.5147 9.3873 -0.5595 0.9236
-46.7209 -12.4637 -1.3616 0.8241
-46.2004 -15.9479 -1.3762 0.8224
-46.2665 -17.8507 -1.3964 0.8200
-18.6117 -13.2625 -0.6435 0.9126
-20.7265 -36.0696 -1.1714 0.8466
-37.3098 31.8789 -2.4888 0.8216
-19.4734 14.3594 -1.2270 0.9076
-40.4976 27.6783 -2.4877 0.8216
-20.2744 12.8155 -1.2164 0.9084
-42.3649 24.7001 -2.4870 0.8217
-17.5149 9.3874 -1.0078 0.9235
-44.0152 21.5972 -2.4864 0.8217
-44.5775 19.9243 -2.4762 0.8224
-44.5785 16.2034 -2.4055 0.8270
-45.0539 9.3800 -2.3339 0.8317
-45.7289 7.8224 -2.3528 0.8304
-47.8591 4.6923 -2.4388 0.8248
-23.1456 0.6030 -1.1742 0.9114
-47.5395 -7.3391 -2.4395 0.8248
-47.5016 -9.0868 -2.4527 0.8239
-46.3900 -10.6104 -2.4134 0.8265
-45.1054 -12.0327 -2.3675 0.8295
-44.5372 -13.6083 -2.3618 0.8298
-42.7586 -24.0072 -2.4869 0.8217
-41.8759 -25.5272 -2.4872 0.8217
-18.6117 -13.2626 -1.1590 0.9125
-38.9106 -29.8864 -2.4882 0.8216
-37.8204 -31.2663 -2.4886 0.8216
-36.6815 -32.6067 -2.4890 0.8215
-20.5231 -19.6041 -1.4394 0.8926
-34.2635 -35.1622 -2.4898 0.8215
-31.6684 -37.5395 -2.4907 0.8214
-28.9094 -39.7267 -2.4917 0.8214
-27.4728 -40.7454 -2.4922 0.8213
-18.6059 -42.3418 -2.3455 0.8309
-17.2138 -43.3266 -2.3643 0.8297
-14.3594 -45.3737 -2.4136 0.8265
-11.2938 -47.2108 -2.4618 0.8233
-9.6936 -48.0755 -2.4872 0.8217
-8.0481 -48.8996 -2.5133 0.8200
-23.3358 24.7398 -2.4936 0.8725
-24.2044 23.8847 -2.4933 0.8725
-25.0418 22.9993 -2.4930 0.8725
-19.6101 16.7556 -1.8912 0.9017
-20.2437 16.0784 -1.8955 0.9015
-29.3556 17.1152 -2.4915 0.8726
-31.0156 13.8626 -2.4909 0.8726
-31.4904 12.7415 -2.4908 0.8726
-32.3184 10.4520 -2.4905 0.8726
-32.6706 9.2867 -2.4904 0.8726
-33.2492 6.9223 -2.4902 0.8727
-33.4748 5.7262 -2.4901 0.8727
-33.6577 4.5228 -2.4900 0.8727
-22.1006 0.5758 -1.6210 0.9151
-22.0755 -0.2163 -1.6187 0.9153
-33.8467 -2.7640 -2.4900 0.8727
-33.7265 -3.9752 -2.4900 0.8727
-32.4833 -9.9252 -2.4904 0.8726
-31.2359 -13.3564 -2.4909 0.8726
-29.6287 -16.6353 -2.4914 0.8726
-29.0161 -17.6879 -2.4917 0.8726
-28.3661 -18.7181 -2.4919 0.8726
-18.6118 -13.2626 -1.6757 0.9124
-26.2014 -21.6608 -2.4926 0.8725
-25.4111 -22.5883 -2.4929 0.8725
-20.4036 -19.4899 -2.0689 0.8930
-23.7335 -24.3560 -2.4935 0.8725
-22.8483 -25.1940 -2.4938 0.8725
-18.8063 -25.8432 -2.3435 0.8797
-17.0758 -27.3946 -2.3669 0.8786
-11.2003 -31.4289 -2.4464 0.8747
-5.5868 -33.9450 -2.5224 0.8711
-4.3947 -34.3419 -2.5386 0.8704
-1.9488 -35.0197 -2.5717 0.8688
1.8573 -35.7291 -2.6233 0.8663
3.1576 -35.8791 -2.6409 0.8655
4.4713 -35.9839 -2.6587 0.8646
8.4770 -36.0173 -2.7130 0.8621
12.5434 -35.6091 -2.7682 0.8595
-16.7668 17.7756 -2.3459 0.9065
-17.3920 17.1623 -2.3458 0.9065
-19.1081 15.1765 -2.3427 0.9066
-20.6219 13.0352 -2.3422 0.9066
-21.0744 12.2870 -2.3420 0.9066
-23.3181 11.4417 -2.4936 0.9009
-23.7118 10.5982 -2.4935 0.9009
-25.2160 6.2003 -2.4930 0.9009
-25.9149 1.6059 -2.4927 0.9009
-22.0435 0.5743 -2.1170 0.9152
-25.9375 -1.1846 -2.4927 0.9009
-25.5036 -4.8787 -2.4929 0.9009
-25.3131 -5.7896 -2.4929 0.9009
-24.2298 -9.3484 -2.4933 0.9009
-22.6505 -12.7173 -2.4939 0.9009
-22.1817 -13.5217 -2.4940 0.9009
-18.6118 -13.2626 -2.1941 0.9123
-19.3515 -14.8634 -2.3426 0.9066
-18.8161 -15.5553 -2.3438 0.9066
-17.7609 -16.9656 -2.3581 0.9060
-16.6091 -18.3142 -2.3736 0.9054
-15.9976 -18.9634 -2.3819 0.9051
-8.6761 -11.0661 -1.3500 0.9451
-14.0253 -20.8011 -2.4085 0.9041
-13.3232 -21.3743 -2.4180 0.9037
-11.0892 -22.9642 -2.4483 0.9026
-8.6748 -24.3423 -2.4809 0.9014
-6.0969 -25.4863 -2.5159 0.9001
0.4366 -27.1240 -2.6044 0.8967
1.4154 -27.2290 -2.6176 0.8962
5.2703 -26.6403 -2.6072 0.8966
6.2048 -26.3630 -2.6001 0.8969
7.1236 -26.0435 -2.5921 0.8972
8.0246 -25.6829 -2.5832 0.8975
9.7655 -24.8437 -2.5628 0.8983
10.6017 -24.3680 -2.5513 0.8987
-13.5670 14.3833 -2.3487 0.9234
-14.0730 13.8872 -2.3485 0.9234
-15.4804 12.2952 -2.3483 0.9235
-15.9107 11.7323 -2.3482 0.9235
-16.7097 10.5623 -2.3482 0.9235
-17.0668 9.9505 -2.3467 0.9235
-17.3966 9.3241 -2.3446 0.9236
-18.5370 6.7379 -2.3429 0.9236
-20.6996 3.5409 -2.4945 0.9189
-20.9923 0.5469 -2.4944 0.9189
-20.8555 -2.4582 -2.4945 0.9189
-20.7543 -3.2040 -2.4945 0.9189
-20.6265 -3.9457 -2.4946 0.9189
-20.4723 -4.6825 -2.4946 0.9189
-20.2918 -5.4132 -2.4947 0.9189
-19.8532 -6.8531 -2.4948 0.9189
-19.5956 -7.5604 -2.4949 0.9189
-19.0053 -8.9453 -2.4951 0.9189
-17.5037 -9.8276 -2.3845 0.9223
-16.0974 -11.4709 -2.3480 0.9235
-15.6932 -12.0537 -2.3506 0.9234
-15.2576 -12.6135 -2.3515 0.9234
-12.8279 -15.2061 -2.3632 0.9230
-8.6115 -10.9837 -1.6579 0.9453
-11.8022 -16.2183 -2.3826 0.9224
-10.7010 -17.1676 -2.4030 0.9217
-9.5178 -18.0299 -2.4218 0.9212
-8.8968 -18.4240 -2.4303 0.9209
-6.9298 -19.4455 -2.4522 0.9202
-5.5445 -19.9830 -2.4634 0.9199
-4.8337 -20.2061 -2.4679 0.9197
-4.1129 -20.3980 -2.4718 0.9196
-2.6472 -20.6858 -2.4772 0.9194
-1.9054 -20.7809 -2.4788 0.9194
-1.1599 -20.8430 -2.4797 0.9194
-0.4123 -20.8720 -2.4798 0.9193
0.3359 -20.8678 -2.4791 0.9194
1.0829 -20.8305 -2.4777 0.9194
1.8271 -20.7608 -2.4756 0.9195
3.3025 -20.5337 -2.4705 0.9196
4.0303 -20.3725 -2.4669 0.9198
4.7496 -20.1801 -2.4626 0.9199
5.4598 -19.9607 -2.4582 0.9200
6.8520 -19.4519 -2.4498 0.9203
8.1927 -18.8307 -2.4394 0.9206
-11.3811 12.0658 -2.3501 0.9352
-12.2152 11.2188 -2.3500 0.9352
-12.6089 10.7736 -2.3499 0.9352
-12.9865 10.3145 -2.3498 0.9352
-13.6915 9.3575 -2.3497 0.9352
-14.8681 7.2955 -2.3466 0.9353
-15.1101 6.7536 -2.3451 0.9353
-16.5561 6.0178 -2.4960 0.9313
-17.2444 3.5902 -2.4957 0.9313
-17.5796 1.0894 -2.4956 0.9313
-17.6073 0.4587 -2.4956 0.9313
-17.4925 -2.0617 -2.4957 0.9313
-17.4076 -2.6873 -2.4957 0.9313
-17.3003 -3.3094 -2.4957 0.9313
-17.0195 -4.5402 -2.4958 0.9313
-16.8463 -5.1473 -2.4959 0.9313
-16.4353 -6.3411 -2.4960 0.9313
-15.9400 -7.5025 -2.4962 0.9313
-15.6615 -8.0692 -2.4963 0.9313
-15.3629 -8.6256 -2.4964 0.9313
-15.0446 -9.1711 -2.4965 0.9313
-14.6885 -9.6925 -2.4935 0.9314
-13.6334 -9.7151 -2.3720 0.9346
-10.7268 -12.7155 -2.3571 0.9350
-9.7860 -13.4476 -2.3565 0.9350
-8.7963 -14.1118 -2.3561 0.9350
-8.2986 -14.4417 -2.3600 0.9349
-7.7886 -14.7543 -2.3639 0.9348
-7.2663 -15.0477 -2.3677 0.9347
-6.7329 -15.3222 -2.3714 0.9346
-5.6383 -15.8216 -2.3798 0.9344
-3.3383 -16.5564 -2.3931 0.9340
-0.9415 -16.9190 -2.4010 0.9338
-0.3348 -16.9496 -2.4021 0.9338
0.8805 -16.9380 -2.4032 0.9338
2.6922 -16.7388 -2.4022 0.9338
4.4652 -16.3247 -2.3980 0.9339
5.0445 -16.1452 -2.3967 0.9339
5.6170 -15.9462 -2.3955 0.9340
6.7361 -15.4830 -2.3924 0.9341
-9.7919 10.3811 -2.3509 0.9438
-10.1573 10.0232 -2.3508 0.9438
-10.5097 9.6525 -2.3508 0.9438
-11.1737 8.8746 -2.3507 0.9438
-11.7755 8.0480 -2.3497 0.9438
-12.0499 7.6168 -2.3484 0.9438
-12.3085 7.1763 -2.3472 0.9439
-12.5509 6.7269 -2.3459 0.9439
-12.7785 6.2702 -2.3449 0.9439
-13.8375 6.1848 -2.4969 0.9404
-14.2442 5.1775 -2.4968 0.9404
-14.7166 3.6187 -2.4966 0.9404
-14.9375 2.5552 -2.4965 0.9404
-15.0193 2.0183 -2.4965 0.9404
-15.0819 1.4787 -2.4965 0.9404
-15.1489 0.3947 -2.4965 0.9404
-15.1533 -0.1484 -2.4965 0.9404
-15.1383 -0.6914 -2.4965 0.9404
-15.0501 -1.7739 -2.4965 0.9404
-14.9770 -2.3121 -2.4965 0.9404
-14.8847 -2.8473 -2.4966 0.9404
-14.7733 -3.3790 -2.4966 0.9404
-14.6430 -3.9063 -2.4966 0.9404
-14.3263 -4.9453 -2.4968 0.9404
-14.1402 -5.4556 -2.4968 0.9404
-13.9360 -5.9590 -2.4969 0.9404
-12.9434 -7.8902 -2.4972 0.9404
-12.0234 -9.2349 -2.4976 0.9404
-11.6853 -9.6602 -2.4977 0.9404
-10.2965 -9.8354 -2.3458 0.9439
-9.9416 -10.2023 -2.3467 0.9439
-7.9808 -11.8364 -2.3518 0.9438
-6.6937 -12.6801 -2.3621 0.9435
-4.8146 -13.5100 -2.3627 0.9435
-3.3380 -13.9534 -2.3635 0.9435
-2.8362 -14.0663 -2.3639 0.9435
-2.3307 -14.1614 -2.3643 0.9435
-1.8235 -14.2487 -2.3665 0.9434
0.2317 -14.3949 -2.3717 0.9433
1.2625 -14.3451 -2.3723 0.9433
1.7756 -14.2895 -2.3722 0.9433
2.2860 -14.2135 -2.3716 0.9433
3.8002 -13.8935 -2.3729 0.9433
4.2974 -13.7540 -2.3739 0.9433
-8.9049 8.7873 -2.3515 0.9504
-9.2139 8.4624 -2.3514 0.9504
-10.7806 6.2854 -2.3456 0.9505
-12.1308 5.4220 -2.4975 0.9474
-12.4874 4.5390 -2.4974 0.9474
-12.7799 3.6328 -2.4973 0.9474
-13.0069 2.7080 -2.4972 0.9474
-13.2220 1.2964 -2.4971 0.9474
-13.2599 0.8217 -2.4971 0.9474
-13.2846 -0.1301 -2.4971 0.9474
-13.1941 -1.5551 -2.4971 0.9474
-12.9515 -2.9623 -2.4972 0.9474
-12.8372 -3.4245 -2.4973 0.9474
-12.7064 -3.8824 -2.4973 0.9474
-12.2172 -5.2240 -2.4975 0.9474
-11.3468 -6.9169 -2.4978 0.9474
-11.0921 -7.3193 -2.4979 0.9473
-10.8230 -7.7124 -2.4980 0.9473
-9.9340 -8.8305 -2.4983 0.9473
-9.6117 -9.1812 -2.4984 0.9473
-9.2769 -9.5202 -2.4985 0.9473
-7.7031 -9.8251 -2.3467 0.9505
-6.2284 -10.8390 -2.3497 0.9504
-3.7799 -11.9441 -2.3548 0.9503
-2.9231 -12.2195 -2.3616 0.9501
-2.0449 -12.4247 -2.3668 0.9500
-1.1501 -12.5481 -2.3685 0.9500
-0.2487 -12.6045 -2.3696 0.9500
0.2025 -12.6081 -2.3701 0.9500
1.1059 -12.5657 -2.3710 0.9500
2.0010 -12.4416 -2.3686 0.9500
3.3145 -12.1179 -2.3614 0.9502
4.5849 -11.6640 -2.3557 0.9503
-7.9146 7.8101 -2.3504 0.9556
-8.6971 6.9077 -2.3477 0.9556
-8.9355 6.5889 -2.3468 0.9556
-9.8092 6.2004 -2.4530 0.9537
-10.4163 5.5828 -2.4981 0.9528
-10.7889 4.8222 -2.4980 0.9528
-11.1061 4.0369 -2.4979 0.9528
-11.2434 3.6362 -2.4978 0.9528
-11.7107 1.5737 -2.4977 0.9528
-11.8152 -0.1157 -2.4976 0.9528
-11.6777 -1.8028 -2.4977 0.9528
-11.6057 -2.2201 -2.4977 0.9528
-11.5188 -2.6346 -2.4977 0.9528
-11.4172 -3.0457 -2.4978 0.9528
-11.3009 -3.4530 -2.4978 0.9528
-11.1701 -3.8558 -2.4978 0.9528
-10.8657 -4.6461 -2.4980 0.9528
-10.6924 -5.0326 -2.4980 0.9528
-10.5055 -5.4127 -2.4981 0.9528
-10.0915 -6.1516 -2.4982 0.9528
-9.8648 -6.5095 -2.4983 0.9528
-9.6255 -6.8591 -2.4984 0.9528
-9.3739 -7.1999 -2.4985 0.9528
-9.1102 -7.5314 -2.4986 0.9528
-8.5480 -8.1653 -2.4988 0.9528
-8.2503 -8.4667 -2.4989 0.9528
-7.9420 -8.7572 -2.4990 0.9528
-7.6233 -9.0366 -2.4991 0.9528
-6.9571 -9.5603 -2.4993 0.9528
-6.5382 -9.6969 -2.4721 0.9533
-6.0506 -9.7070 -2.4178 0.9543
-5.1845 -9.8212 -2.3475 0.9556
-4.4697 -10.1717 -2.3485 0.9556
-4.1033 -10.3278 -2.3491 0.9556
-2.9730 -10.7150 -2.3505 0.9556
-1.0160 -11.0812 -2.3522 0.9555
0.5778 -11.1157 -2.3528 0.9555
1.3726 -11.0462 -2.3529 0.9555
1.7675 -10.9898 -2.3529 0.9555
2.5500 -10.8344 -2.3527 0.9555
4.0705 -10.3555 -2.3520 0.9555
4.4385 -10.2018 -2.3517 0.9555
-7.1128 7.0189 -2.3485 0.9598
-7.5921 6.4870 -2.3470 0.9598
-7.8394 6.2264 -2.3529 0.9597
-8.7774 5.9990 -2.4987 0.9573
-9.1841 5.3546 -2.4985 0.9573
-9.7050 4.3377 -2.4984 0.9573
-10.4769 1.7922 -2.4981 0.9573
-10.5344 1.4156 -2.4981 0.9573
-10.5782 1.0372 -2.4981 0.9573
-10.6178 -0.4849 -2.4980 0.9573
-10.5559 -1.2442 -2.4981 0.9573
-10.3617 -2.3699 -2.4981 0.9573
-10.2703 -2.7398 -2.4982 0.9573
-10.1656 -3.1061 -2.4982 0.9573
-10.0480 -3.4684 -2.4982 0.9573
-9.9174 -3.8263 -2.4983 0.9573
-9.6183 -4.5270 -2.4984 0.9573
-9.4500 -4.8689 -2.4984 0.9573
-9.0775 -5.5336 -2.4986 0.9573
-8.6584 -6.1699 -2.4987 0.9573
-8.4320 -6.4764 -2.4988 0.9573
-7.6890 -7.3447 -2.4991 0.9572
-7.1437 -7.8771 -2.4992 0.9572
-6.2579 -8.5994 -2.4996 0.9572
-5.9459 -8.8185 -2.4997 0.9572
-5.6264 -9.0263 -2.4998 0.9572
-4.9659 -9.4070 -2.5000 0.9572
-4.6258 -9.5794 -2.5001 0.9572
-3.8541 -9.7005 -2.4532 0.9580
-1.2687 -9.9137 -2.3490 0.9598
-0.9127 -9.9538 -2.3492 0.9598
-0.1974 -9.9951 -2.3496 0.9598
0.5190 -9.9846 -2.3498 0.9598
0.8765 -9.9598 -2.3498 0.9597
1.5894 -9.8823 -2.3524 0.9597
1.9405 -9.8089 -2.3500 0.9597
2.6578 -9.7167 -2.3676 0.9595
3.0346 -9.7123 -2.3915 0.9591
3.8135 -9.7016 -2.4499 0.9581
4.2180 -9.6951 -2.4849 0.9575
-8.5061 4.5590 -2.4988 0.9609
-8.6638 4.2512 -2.4987 0.9609
-8.9457 3.6196 -2.4986 0.9609
-9.1817 2.9694 -2.4985 0.9609
-9.4470 1.9668 -2.4984 0.9609
-9.5635 1.2851 -2.4984 0.9609
-9.6460 0.2513 -2.4984 0.9609
-9.6173 -0.7854 -2.4984 0.9609
-9.5365 -1.4722 -2.4984 0.9609
-9.4777 -1.8130 -2.4984 0.9609
-9.1218 -3.1487 -2.4986 0.9609
-8.7317 -4.1097 -2.4987 0.9609
-8.4153 -4.7248 -2.4988 0.9609
-8.2408 -5.0235 -2.4989 0.9609
-7.4393 -6.1501 -2.4991 0.9609
-7.2143 -6.4129 -2.4992 0.9609
-6.7369 -6.9136 -2.4994 0.9609
-6.2249 -7.3789 -2.4996 0.9609
-5.9567 -7.5975 -2.4997 0.9609
-5.6808 -7.8064 -2.4998 0.9609
-4.8108 -8.3720 -2.5001 0.9609
-4.5079 -8.5394 -2.5002 0.9609
-3.5658 -8.9750 -2.5005 0.9609
-2.9141 -9.2082 -2.5007 0.9609
-2.5824 -9.3072 -2.5008 0.9609
-1.5688 -9.5319 -2.5012 0.9609
-0.1908 -9.6601 -2.5017 0.9609
0.1555 -9.6612 -2.5018 0.9609
0.8472 -9.6261 -2.5020 0.9609
1.5346 -9.5417 -2.5023 0.9609
2.8827 -9.2262 -2.5027 0.9608
3.2117 -9.1174 -2.5028 0.9608
3.5365 -8.9969 -2.5030 0.9608
-6.5027 5.9724 -2.4995 0.9640
-6.9134 5.4909 -2.4993 0.9640
-7.4622 4.7169 -2.4991 0.9640
-7.7805 4.1701 -2.4990 0.9640
-7.9248 3.8886 -2.4990 0.9640
-8.1827 3.3108 -2.4989 0.9640
-8.3985 2.7162 -2.4988 0.9640
-8.4904 2.4134 -2.4988 0.9640
-8.5713 2.1076 -2.4987 0.9640
-8.6412 1.7991 -2.4987 0.9640
-8.7001 1.4883 -2.4987 0.9640
-8.7842 0.8613 -2.4987 0.9640
-8.8094 0.5459 -2.4987 0.9640
-8.8233 0.2299 -2.4987 0.9640
-8.7970 -0.7184 -2.4987 0.9640
-8.7657 -1.0331 -2.4987 0.9640
-8.6044 -1.9680 -2.4987 0.9640
-8.5284 -2.2751 -2.4988 0.9640
-8.4415 -2.5793 -2.4988 0.9640
-8.2353 -3.1774 -2.4989 0.9640
-7.9869 -3.7592 -2.4990 0.9640
-7.6974 -4.3217 -2.4991 0.9640
-7.3684 -4.8622 -2.4992 0.9640
-7.1896 -5.1233 -2.4992 0.9640
-7.0016 -5.3777 -2.4993 0.9640
-6.8046 -5.6254 -2.4994 0.9640
-6.5988 -5.8657 -2.4994 0.9640
-6.3846 -6.0986 -2.4995 0.9640
-6.1621 -6.3237 -2.4996 0.9640
-5.9317 -6.5407 -2.4997 0.9640
-5.6937 -6.7493 -2.4998 0.9640
-4.1231 -7.8105 -2.5003 0.9639
-3.5534 -8.0865 -2.5005 0.9639
-2.3619 -8.5126 -2.5009 0.9639
-2.0554 -8.5921 -2.5010 0.9639
-1.4349 -8.7180 -2.5012 0.9639
-1.1226 -8.7642 -2.5013 0.9639
-0.1745 -8.8352 -2.5017 0.9639
0.4588 -8.8258 -2.5019 0.9639
1.0893 -8.7710 -2.5021 0.9639
1.4035 -8.7267 -2.5022 0.9639
1.7154 -8.6712 -2.5023 0.9639
2.3323 -8.5268 -2.5025 0.9639
2.9373 -8.3385 -2.5028 0.9639
3.2343 -8.2282 -2.5029 0.9639
3.5273 -8.1073 -2.5030 0.9639
-5.5767 5.9122 -2.4998 0.9666
-6.1784 5.2791 -2.4996 0.9666
-7.2946 3.5793 -2.4992 0.9666
-7.4180 3.3156 -2.4992 0.9666
-7.5319 3.0475 -2.4991 0.9666
-7.6362 2.7756 -2.4991 0.9666
-7.8897 1.9400 -2.4990 0.9666
-7.9541 1.6561 -2.4990 0.9666
-8.0522 1.0821 -2.4989 0.9666
-8.1089 0.5025 -2.4989 0.9666
-8.1217 0.2116 -2.4989 0.9666
-8.0975 -0.6612 -2.4989 0.9666
-8.0294 -1.2395 -2.4989 0.9666
-7.9202 -1.8115 -2.4990 0.9666
-7.8502 -2.0941 -2.4990 0.9666
-7.6803 -2.6511 -2.4991 0.9666
-7.5804 -2.9247 -2.4991 0.9666
-7.3517 -3.4602 -2.4992 0.9666
-7.2231 -3.7215 -2.4992 0.9666
-7.0852 -3.9780 -2.4993 0.9666
-6.2634 -5.1779 -2.4996 0.9666
-6.0739 -5.3992 -2.4996 0.9666
-5.8767 -5.6135 -2.4997 0.9666
-5.6719 -5.8207 -2.4998 0.9666
-5.2408 -6.2124 -2.4999 0.9666
-5.0149 -6.3964 -2.5000 0.9666
-4.5442 -6.7396 -2.5002 0.9666
-4.0501 -7.0483 -2.5003 0.9666
-3.5351 -7.3207 -2.5005 0.9666
-2.7293 -7.6587 -2.5008 0.9665
-1.8918 -7.9083 -2.5011 0.9665
-1.6073 -7.9714 -2.5012 0.9665
-1.0323 -8.0667 -2.5014 0.9665
-0.7426 -8.0988 -2.5015 0.9665
0.1309 -8.1327 -2.5018 0.9665
0.4223 -8.1231 -2.5019 0.9665
1.2918 -8.0319 -2.5022 0.9665
1.5788 -7.9807 -2.5023 0.9665
2.1466 -7.8478 -2.5025 0.9665
2.7034 -7.6745 -2.5027 0.9665
2.9768 -7.5729 -2.5028 0.9665
3.2463 -7.4617 -2.5029 0.9665
-5.3530 5.2824 -2.4999 0.9688
-5.5388 5.0870 -2.4998 0.9688
-5.7174 4.8852 -2.4997 0.9688
-5.8886 4.6770 -2.4997 0.9688
-6.0523 4.4629 -2.4996 0.9688
-6.7502 3.3123 -2.4994 0.9688
-6.8645 3.0681 -2.4993 0.9688
-6.9699 2.8202 -2.4993 0.9688
-7.1538 2.3137 -2.4992 0.9688
-7.3010 1.7953 -2.4992 0.9688
-7.4107 1.2677 -2.4992 0.9688
-7.4514 1.0013 -2.4991 0.9688
-7.4824 0.7337 -2.4991 0.9688
-7.5039 0.4651 -2.4991 0.9688
-7.5157 0.1958 -2.4991 0.9688
-7.5179 -0.0736 -2.4991 0.9688
-7.5105 -0.3430 -2.4991 0.9688
-7.3292 -1.6763 -2.4992 0.9688
-7.2645 -1.9379 -2.4992 0.9688
-7.1072 -2.4533 -2.4993 0.9688
-7.0148 -2.7065 -2.4993 0.9688
-6.6841 -3.4438 -2.4994 0.9688
-6.5565 -3.6812 -2.4995 0.9688
-6.4206 -3.9139 -2.4995 0.9688
-6.1239 -4.3639 -2.4996 0.9688
-5.9638 -4.5806 -2.4997 0.9688
-5.6207 -4.9963 -2.4998 0.9688
-5.0524 -5.5710 -2.5000 0.9688
-4.4257 -6.0816 -2.5002 0.9688
-3.9790 -6.3834 -2.5003 0.9688
-3.5117 -6.6524 -2.5005 0.9688
-3.2712 -6.7742 -2.5006 0.9688
-3.0265 -6.8873 -2.5007 0.9688
-2.7778 -6.9916 -2.5008 0.9688
-2.5256 -7.0869 -2.5009 0.9688
-2.0116 -7.2501 -2.5010 0.9688
-1.4873 -7.3761 -2.5012 0.9688
-0.9552 -7.4642 -2.5014 0.9688
-0.4182 -7.5140 -2.5016 0.9688
0.3907 -7.5164 -2.5019 0.9688
1.1953 -7.4319 -2.5021 0.9688
1.4609 -7.3845 -2.5022 0.9688
1.7247 -7.3277 -2.5023 0.9688
1.9862 -7.2614 -2.5024 0.9688
2.7543 -7.0071 -2.5027 0.9688
-4.9761 4.9104 -2.5000 0.9707
-5.1487 4.7288 -2.4999 0.9707
-5.3147 4.5411 -2.4999 0.9707
-5.4739 4.3477 -2.4998 0.9707
-5.6261 4.1486 -2.4998 0.9707
-5.7710 3.9443 -2.4997 0.9707
-6.0385 3.5207 -2.4996 0.9707
-6.4792 2.6216 -2.4995 0.9707
-6.5689 2.3877 -2.4994 0.9707
-6.7870 1.6688 -2.4994 0.9707
-6.8424 1.4246 -2.4994 0.9707
-6.9268 0.9308 -2.4993 0.9707
-6.9556 0.6820 -2.4993 0.9707
-6.9756 0.4323 -2.4993 0.9707
-6.9410 -0.8181 -2.4993 0.9707
-6.9072 -1.0663 -2.4993 0.9707
-6.8646 -1.3131 -2.4993 0.9707
-6.3241 -2.9766 -2.4995 0.9707
-5.5438 -4.2581 -2.4998 0.9707
-4.3138 -5.5021 -2.5002 0.9707
-3.9088 -5.7972 -2.5004 0.9707
-3.6987 -5.9337 -2.5004 0.9707
-3.4838 -6.0627 -2.5005 0.9707
-2.8133 -6.4022 -2.5008 0.9707
-2.5821 -6.4991 -2.5008 0.9707
-2.3476 -6.5876 -2.5009 0.9707
-2.1101 -6.6677 -2.5010 0.9707
-1.3825 -6.8564 -2.5012 0.9707
-0.8879 -6.9383 -2.5014 0.9707
-0.1381 -6.9942 -2.5017 0.9707
0.3632 -6.9867 -2.5019 0.9707
0.6133 -6.9694 -2.5019 0.9707
0.8627 -6.9432 -2.5020 0.9707
1.1110 -6.9080 -2.5021 0.9707
1.6031 -6.8112 -2.5023 0.9707
1.8462 -6.7496 -2.5024 0.9707
2.0870 -6.6793 -2.5025 0.9707
2.7920 -6.4174 -2.5027 0.9707
-4.8049 4.4130 -2.5001 0.9724
-4.9598 4.2379 -2.5000 0.9724
-5.1084 4.0573 -2.5000 0.9724
-5.3856 3.6809 -2.4999 0.9724
-5.7493 3.0815 -2.4997 0.9724
-5.8559 2.8734 -2.4997 0.9724
-6.0465 2.4465 -2.4996 0.9724
-6.1303 2.2283 -2.4996 0.9724
-6.2061 2.0071 -2.4996 0.9724
-6.2740 1.7834 -2.4995 0.9724
-6.3338 1.5574 -2.4995 0.9724
-6.3855 1.3295 -2.4995 0.9724
-6.4290 1.0998 -2.4995 0.9724
-6.4643 0.8687 -2.4995 0.9724
-6.5201 0.1699 -2.4995 0.9724
-6.5220 -0.0638 -2.4995 0.9724
-6.4062 -1.2255 -2.4995 0.9724
-6.3583 -1.4542 -2.4995 0.9724
-6.1656 -2.1283 -2.4996 0.9724
-5.9018 -2.7778 -2.4997 0.9724
-5.4447 -3.5928 -2.4998 0.9724
-5.3125 -3.7857 -2.4999 0.9724
-5.1736 -3.9737 -2.4999 0.9724
-5.0279 -4.1566 -2.5000 0.9724
-4.7175 -4.5063 -2.5001 0.9724
-4.5531 -4.6725 -2.5001 0.9724
-4.0257 -5.1346 -2.5003 0.9724
-3.6477 -5.4100 -2.5005 0.9724
-3.4516 -5.5374 -2.5005 0.9724
-3.0463 -5.7707 -2.5007 0.9724
-2.4096 -6.0649 -2.5009 0.9724
-1.7450 -6.2890 -2.5011 0.9724
-1.5185 -6.3477 -2.5012 0.9724
-1.2901 -6.3982 -2.5013 0.9724
-0.8286 -6.4746 -2.5014 0.9724
-0.5960 -6.5004 -2.5015 0.9724
-0.1289 -6.5268 -2.5017 0.9724
0.1051 -6.5274 -2.5018 0.9724
0.3389 -6.5197 -2.5018 0.9724
0.8051 -6.4791 -2.5020 0.9724
1.9474 -6.2328 -2.5024 0.9724
2.3890 -6.0777 -2.5026 0.9724
2.6053 -5.9883 -2.5026 0.9724
-4.1918 4.4440 -2.5003 0.9739
-4.6442 3.9683 -2.5001 0.9739
-4.7834 3.7992 -2.5001 0.9739
-5.0430 3.4467 -2.5000 0.9739
-5.3835 2.8854 -2.4999 0.9739
-5.4834 2.6906 -2.4998 0.9739
-5.5762 2.4923 -2.4998 0.9739
-5.9309 1.4584 -2.4997 0.9739
-5.9793 1.2449 -2.4997 0.9739
-6.0783 0.5960 -2.4996 0.9739
-6.0957 0.3778 -2.4996 0.9739
-6.1053 0.1591 -2.4996 0.9739
-6.1071 -0.0598 -2.4996 0.9739
-6.1010 -0.2786 -2.4996 0.9739
-6.0655 -0.7149 -2.4996 0.9739
-5.9012 -1.5742 -2.4997 0.9739
-5.8410 -1.7847 -2.4997 0.9739
-5.6159 -2.4013 -2.4998 0.9739
-5.5264 -2.6011 -2.4998 0.9739
-5.2155 -3.1793 -2.4999 0.9739
-5.0983 -3.3642 -2.5000 0.9739
-4.7080 -3.8921 -2.5001 0.9739
-4.5656 -4.0584 -2.5001 0.9739
-4.4174 -4.2195 -2.5002 0.9739
-4.1040 -4.5253 -2.5003 0.9739
-3.9393 -4.6696 -2.5004 0.9739
-3.7695 -4.8078 -2.5004 0.9739
-3.5949 -4.9399 -2.5005 0.9739
-3.0442 -5.2976 -2.5007 0.9739
-2.8524 -5.4035 -2.5007 0.9739
-2.6570 -5.5023 -2.5008 0.9739
-2.4582 -5.5942 -2.5009 0.9739
-2.2562 -5.6788 -2.5009 0.9739
-1.8438 -5.8262 -2.5011 0.9739
-1.4218 -5.9437 -2.5012 0.9739
-1.2080 -5.9909 -2.5013 0.9739
-0.3396 -6.1028 -2.5016 0.9739
0.3173 -6.1046 -2.5018 0.9739
1.4007 -5.9511 -2.5022 0.9739
1.6131 -5.8973 -2.5023 0.9739
2.0314 -5.7669 -2.5024 0.9739
-4.4922 3.5679 -2.5002 0.9753
-4.7361 3.2369 -2.5001 0.9753
-5.1497 2.5269 -2.4999 0.9753
-5.2369 2.3407 -2.4999 0.9753
-5.4577 1.7651 -2.4998 0.9753
-5.5173 1.5683 -2.4998 0.9753
-5.6154 1.1691 -2.4998 0.9753
-5.6537 0.9671 -2.4998 0.9753
-5.7084 0.5597 -2.4997 0.9753
-5.7338 0.1494 -2.4997 0.9753
-5.7355 -0.0562 -2.4997 0.9753
-5.7167 -0.4668 -2.4997 0.9753
-5.6686 -0.8751 -2.4998 0.9753
-5.5915 -1.2788 -2.4998 0.9753
-5.5421 -1.4784 -2.4998 0.9753
-5.4856 -1.6761 -2.4998 0.9753
-5.2742 -2.2552 -2.4999 0.9753
-5.1900 -2.4428 -2.4999 0.9753
-4.7880 -3.1595 -2.5001 0.9753
-4.5496 -3.4944 -2.5001 0.9753
-4.2878 -3.8114 -2.5002 0.9753
-4.0039 -4.1089 -2.5003 0.9753
-3.6994 -4.3853 -2.5004 0.9753
-3.5400 -4.5152 -2.5005 0.9753
-3.3760 -4.6392 -2.5006 0.9753
-3.2077 -4.7573 -2.5006 0.9753
-3.0352 -4.8694 -2.5007 0.9753
-2.1189 -5.3331 -2.5010 0.9753
-1.9264 -5.4058 -2.5011 0.9753
-1.5344 -5.5301 -2.5012 0.9753
-0.7286 -5.6933 -2.5015 0.9753
-0.5241 -5.7159 -2.5015 0.9753
-0.3189 -5.7312 -2.5016 0.9753
0.0924 -5.7396 -2.5018 0.9753
1.1142 -5.6320 -2.5021 0.9753
1.3154 -5.5886 -2.5022 0.9753
1.7123 -5.4804 -2.5023 0.9753
1.9077 -5.4156 -2.5024 0.9753
2.1006 -5.3439 -2.5025 0.9753
2.2908 -5.2654 -2.5025 0.9753
-3.8449 3.7942 -2.5004 0.9765
-4.1067 3.5089 -2.5003 0.9765
-4.2297 3.3594 -2.5003 0.9765
-4.4593 3.0478 -2.5002 0.9765
-4.6660 2.7205 -2.5001 0.9765
-4.7604 2.5515 -2.5001 0.9765
-4.9308 2.2039 -2.5000 0.9765
-5.0066 2.0258 -2.5000 0.9765
-5.0759 1.8450 -2.5000 0.9765
-5.1949 1.4767 -2.4999 0.9765
-5.2873 1.1008 -2.4999 0.9765
-5.4003 -0.0529 -2.4999 0.9765
-5.3827 -0.4395 -2.4999 0.9765
-5.3635 -0.6321 -2.4999 0.9765
-5.3374 -0.8239 -2.4999 0.9765
-5.3045 -1.0147 -2.4999 0.9765
-5.2647 -1.2041 -2.4999 0.9765
-5.2182 -1.3920 -2.4999 0.9765
-5.1650 -1.5781 -2.4999 0.9765
-5.1052 -1.7622 -2.5000 0.9765
-5.0388 -1.9441 -2.5000 0.9765
-4.9660 -2.1234 -2.5000 0.9765
-4.8012 -2.4737 -2.5001 0.9765
-4.7096 -2.6442 -2.5001 0.9765
-4.6119 -2.8113 -2.5001 0.9765
-4.5082 -2.9748 -2.5002 0.9765
-4.3988 -3.1345 -2.5002 0.9765
-4.1631 -3.4416 -2.5003 0.9765
-4.0371 -3.5886 -2.5003 0.9765
-3.7699 -3.8687 -2.5004 0.9765
-3.6289 -4.0015 -2.5005 0.9765
-3.4832 -4.1290 -2.5005 0.9765
-3.3331 -4.2512 -2.5006 0.9765
-3.0202 -4.4793 -2.5007 0.9765
-2.8578 -4.5847 -2.5007 0.9765
-2.5222 -4.7778 -2.5009 0.9765
-1.9950 -5.0213 -2.5010 0.9765
-1.2572 -5.2554 -2.5013 0.9765
-0.8776 -5.3322 -2.5014 0.9765
-0.6860 -5.3604 -2.5015 0.9765
-0.3003 -5.3960 -2.5016 0.9765
0.6665 -5.3639 -2.5020 0.9765
0.8583 -5.3367 -2.5020 0.9765
1.0490 -5.3026 -2.5021 0.9765
1.2384 -5.2618 -2.5022 0.9765
1.4262 -5.2142 -2.5022 0.9765
-3.6284 3.5805 -2.5005 0.9775
-4.2082 2.8761 -2.5003 0.9775
-4.4033 2.5673 -2.5002 0.9775
-4.5757 2.2452 -2.5001 0.9775
-4.8494 1.5684 -2.5000 0.9775
-4.9024 1.3936 -2.5000 0.9775
-4.9492 1.2170 -2.5000 0.9775
-5.0236 0.8594 -2.5000 0.9775
-5.0511 0.6788 -2.5000 0.9775
-5.0868 0.3153 -2.5000 0.9775
-5.0948 0.1328 -2.5000 0.9775
-5.0912 -0.2325 -2.5000 0.9775
-5.0615 -0.5965 -2.5000 0.9775
-5.0369 -0.7775 -2.5000 0.9775
-5.0058 -0.9575 -2.5000 0.9775
-4.9683 -1.1363 -2.5000 0.9775
-4.9244 -1.3136 -2.5000 0.9775
-4.7551 -1.8346 -2.5001 0.9775
-4.6116 -2.1705 -2.5001 0.9775
-4.5309 -2.3344 -2.5002 0.9775
-4.2543 -2.8073 -2.5003 0.9775
-4.1511 -2.9580 -2.5003 0.9775
-3.8098 -3.3866 -2.5004 0.9775
-3.5577 -3.6509 -2.5005 0.9775
-3.4246 -3.7761 -2.5005 0.9775
-2.9997 -4.1220 -2.5007 0.9775
-2.5401 -4.4204 -2.5008 0.9775
-2.3801 -4.5088 -2.5009 0.9775
-2.2171 -4.5912 -2.5010 0.9775
-2.0512 -4.6679 -2.5010 0.9775
-1.0079 -4.9988 -2.5014 0.9775
-0.6473 -5.0584 -2.5015 0.9775
-0.4656 -5.0785 -2.5016 0.9775
-0.2834 -5.0920 -2.5016 0.9775
-0.1007 -5.0990 -2.5017 0.9775
0.0821 -5.0995 -2.5018 0.9775
0.6289 -5.0616 -2.5019 0.9775
0.9899 -5.0038 -2.5021 0.9775
1.1686 -4.9653 -2.5021 0.9775
1.3458 -4.9203 -2.5022 0.9775
2.0353 -4.6779 -2.5024 0.9775
-3.5499 3.2604 -2.5005 0.9785
-4.2478 2.2768 -2.5003 0.9785
-4.5854 1.4830 -2.5001 0.9785
-4.7180 0.9823 -2.5001 0.9785
-4.7502 0.8126 -2.5001 0.9785
-4.7762 0.6418 -2.5001 0.9785
-4.7961 0.4703 -2.5001 0.9785
-4.8099 0.2981 -2.5001 0.9785
-4.8175 0.1255 -2.5001 0.9785
-4.8141 -0.2199 -2.5001 0.9785
-4.8031 -0.3922 -2.5001 0.9785
-4.7860 -0.5641 -2.5001 0.9785
-4.7627 -0.7352 -2.5001 0.9785
-4.7333 -0.9054 -2.5001 0.9785
-4.6089 -1.4082 -2.5001 0.9785
-4.4963 -1.7347 -2.5002 0.9785
-4.3605 -2.0524 -2.5002 0.9785
-4.2842 -2.2073 -2.5002 0.9785
-4.1152 -2.5086 -2.5003 0.9785
-3.9251 -2.7970 -2.5004 0.9785
-3.8224 -2.9359 -2.5004 0.9785
-3.6024 -3.2022 -2.5005 0.9785
-3.2381 -3.5705 -2.5006 0.9785
-2.9742 -3.7934 -2.5007 0.9785
-2.8364 -3.8976 -2.5007 0.9785
-2.6949 -3.9968 -2.5008 0.9785
-2.4018 -4.1798 -2.5009 0.9785
-2.0964 -4.3412 -2.5010 0.9785
-1.4547 -4.5966 -2.5012 0.9785
-1.2891 -4.6459 -2.5013 0.9785
-0.9530 -4.7265 -2.5014 0.9785
-0.4403 -4.8019 -2.5016 0.9785
-0.2679 -4.8147 -2.5016 0.9785
-0.0952 -4.8213 -2.5017 0.9785
0.0776 -4.8217 -2.5018 0.9785
0.2504 -4.8159 -2.5018 0.9785
0.5947 -4.7859 -2.5019 0.9785
0.7658 -4.7616 -2.5020 0.9785
0.9360 -4.7312 -2.5021 0.9785
1.2725 -4.6522 -2.5022 0.9785
1.4385 -4.6038 -2.5022 0.9785
1.6025 -4.5494 -2.5023 0.9785
1.7646 -4.4891 -2.5023 0.9785
-3.1328 3.3213 -2.5006 0.9794
-3.3625 3.0883 -2.5006 0.9794
-3.5750 2.8394 -2.5005 0.9794
-3.7691 2.5760 -2.5004 0.9794
-3.8589 2.4393 -2.5004 0.9794
-3.9438 2.2994 -2.5004 0.9794
-4.3434 1.4047 -2.5002 0.9794
-4.4690 0.9305 -2.5002 0.9794
-4.4995 0.7697 -2.5002 0.9794
-4.5241 0.6079 -2.5002 0.9794
-4.5430 0.4454 -2.5001 0.9794
-4.5600 -0.2082 -2.5001 0.9794
-4.5496 -0.3715 -2.5001 0.9794
-4.5334 -0.5343 -2.5002 0.9794
-4.5114 -0.6964 -2.5002 0.9794
-4.4835 -0.8576 -2.5002 0.9794
-4.4106 -1.1766 -2.5002 0.9794
-4.3151 -1.4895 -2.5002 0.9794
-4.2590 -1.6432 -2.5002 0.9794
-4.1304 -1.9441 -2.5003 0.9794
-3.8980 -2.3762 -2.5004 0.9794
-3.8104 -2.5144 -2.5004 0.9794
-3.7179 -2.6493 -2.5004 0.9794
-3.5187 -2.9089 -2.5005 0.9794
-3.4123 -3.0332 -2.5005 0.9794
-3.1863 -3.2699 -2.5006 0.9794
-2.6866 -3.6919 -2.5008 0.9794
-2.5527 -3.7858 -2.5008 0.9794
-2.2750 -3.9591 -2.5009 0.9794
-1.9857 -4.1120 -2.5010 0.9794
-1.5330 -4.3017 -2.5012 0.9794
-1.3779 -4.3539 -2.5013 0.9794
-1.2210 -4.4006 -2.5013 0.9794
-0.5797 -4.5303 -2.5015 0.9794
-0.4170 -4.5483 -2.5016 0.9794
-0.2538 -4.5604 -2.5016 0.9794
-0.0902 -4.5667 -2.5017 0.9794
0.2371 -4.5616 -2.5018 0.9794
0.4005 -4.5503 -2.5019 0.9794
0.5633 -4.5331 -2.5019 0.9794
0.7254 -4.5101 -2.5020 0.9794
0.8866 -4.4813 -2.5020 0.9794
1.2053 -4.4065 -2.5021 0.9794
1.3625 -4.3606 -2.5022 0.9794
1.5179 -4.3091 -2.5023 0.9794
1.8227 -4.1894 -2.5024 0.9794
-3.1899 2.9298 -2.5006 0.9802
-3.2928 2.8135 -2.5006 0.9802
-3.3915 2.6937 -2.5005 0.9802
-3.5756 2.4438 -2.5005 0.9802
-3.6609 2.3141 -2.5005 0.9802
-3.7414 2.1814 -2.5004 0.9802
-3.8171 2.0459 -2.5004 0.9802
-3.8880 1.9078 -2.5004 0.9802
-4.0701 1.4794 -2.5003 0.9802
-4.1656 1.1841 -2.5003 0.9802
-4.2053 1.0341 -2.5003 0.9802
-4.2685 0.7302 -2.5002 0.9802
-4.3099 0.4226 -2.5002 0.9802
-4.3222 0.2679 -2.5002 0.9802
-4.3290 0.1128 -2.5002 0.9802
-4.3162 -0.3524 -2.5002 0.9802
-4.3008 -0.5069 -2.5002 0.9802
-4.0404 -1.5589 -2.5003 0.9802
-3.9820 -1.7026 -2.5003 0.9802
-3.9184 -1.8443 -2.5004 0.9802
-3.7763 -2.1203 -2.5004 0.9802
-3.6980 -2.2542 -2.5004 0.9802
-3.5271 -2.5133 -2.5005 0.9802
-3.4348 -2.6382 -2.5005 0.9802
-3.3381 -2.7596 -2.5006 0.9802
-3.2371 -2.8775 -2.5006 0.9802
-3.1320 -2.9917 -2.5006 0.9802
-2.5487 -3.5024 -2.5008 0.9802
-2.4216 -3.5915 -2.5009 0.9802
-2.2914 -3.6761 -2.5009 0.9802
-2.1582 -3.7558 -2.5010 0.9802
-1.1583 -4.1747 -2.5013 0.9802
-1.0080 -4.2136 -2.5014 0.9802
-0.8564 -4.2471 -2.5014 0.9802
-0.5500 -4.2977 -2.5015 0.9802
-0.3956 -4.3147 -2.5016 0.9802
-0.2408 -4.3262 -2.5016 0.9802
0.0697 -4.3326 -2.5018 0.9802
0.5344 -4.3003 -2.5019 0.9802
0.6881 -4.2785 -2.5020 0.9802
1.5855 -4.0336 -2.5023 0.9802
1.7291 -3.9743 -2.5023 0.9802
