ply
format ascii 1.0
element vertex 949
property float32 x
property float32 y
property float32 z
property float32 I
end_header
-18.4454 7.0319 3.4808 0.9230
-19.3459 -13.4336 4.1530 0.9088
-9.5509 -11.0657 2.5774 0.9424
-19.3461 -13.4338 3.6082 0.9091
-9.5501 -11.0647 2.2391 0.9426
-18.3473 9.3690 2.6827 0.9203
-29.0754 -13.2329 4.1599 0.8791
-20.6865 -13.2881 3.2017 0.9056
-19.3463 -13.4339 3.0671 0.9094
-9.5493 -11.0637 1.9032 0.9428
-46.9762 8.7607 5.1314 0.8251
-47.8635 -12.0819 5.3009 0.8199
-47.0230 8.7694 4.0493 0.8253
-47.0444 -15.5482 4.1943 0.8196
-19.3468 -13.4342 1.9939 0.9098
-18.3479 9.3693 1.2775 0.9208
-46.6898 8.7073 2.9452 0.8267
-47.8641 -12.0821 3.0612 0.8205
-47.2420 -13.7500 3.0511 0.8210
-47.0448 -15.5483 3.0725 0.8199
-21.3549 -36.2630 2.6096 0.8448
-18.3480 9.3694 0.8123 0.9208
-47.2424 -13.7501 1.9401 0.8212
-47.0452 -15.5484 1.9537 0.8201
-19.3472 -13.4346 0.9288 0.9100
-9.5459 -11.0599 0.5761 0.9432
-20.0507 14.1938 0.4150 0.9064
-20.0819 13.1581 0.4056 0.9084
-20.7461 12.5508 0.4096 0.9076
-18.3482 9.3694 0.3480 0.9209
-47.0240 8.7696 0.8080 0.8258
-47.0455 -15.5485 0.8370 0.8202
-9.5451 -11.0589 0.2468 0.9432
-20.2873 15.4858 -0.1437 0.9029
-21.1031 12.7668 -0.1389 0.9061
-47.0244 8.7696 -0.2693 0.8258
-47.2431 -13.7503 -0.2770 0.8213
-47.0459 -15.5487 -0.2790 0.8202
-19.3477 -13.4349 -0.1326 0.9101
-9.5443 -11.0580 -0.0822 0.9432
-20.2875 15.4860 -0.7187 0.9029
-20.3112 14.3782 -0.7007 0.9052
-21.1863 12.8171 -0.6972 0.9057
-47.0247 8.7697 -1.3469 0.8258
-47.8653 -12.0824 -1.3901 0.8207
-47.0463 -15.5488 -1.3952 0.8201
-15.5834 43.5939 -2.3478 0.8308
-26.0738 41.6692 -2.4928 0.8213
-31.7543 37.4709 -2.4909 0.8214
-37.8007 31.0679 -2.4814 0.8220
-20.2877 15.4862 -1.2944 0.9028
-42.8465 23.8597 -2.4871 0.8217
-45.4095 17.3114 -2.4646 0.8231
-45.4087 13.6635 -2.4049 0.8270
-45.4074 11.9003 -2.3806 0.8286
-45.4462 10.1790 -2.3619 0.8298
-47.3421 7.0778 -2.4276 0.8255
-48.2394 3.6958 -2.4536 0.8238
-48.1900 1.9524 -2.4459 0.8243
-23.8974 0.1082 -1.2119 0.9087
-48.1108 -3.2482 -2.4455 0.8244
-47.9168 -6.7208 -2.4538 0.8238
-47.7568 -10.2434 -2.4770 0.8223
-45.4423 -13.2261 -2.4002 0.8273
-45.3124 -14.9758 -2.4202 0.8260
-45.3009 -16.8018 -2.4503 0.8241
-45.2884 -18.6762 -2.4844 0.8218
-44.6257 -20.3101 -2.4865 0.8217
-43.8710 -21.9041 -2.4868 0.8217
-42.1928 -25.0065 -2.4874 0.8217
-38.1923 -30.8147 -2.4887 0.8216
-34.6682 -34.7656 -2.4899 0.8215
-33.4014 -35.9960 -2.4904 0.8215
-9.5427 -11.0561 -0.7407 0.9432
-30.7389 -38.3177 -2.4913 0.8214
-29.3466 -39.4058 -2.4917 0.8214
-21.2048 -36.0080 -2.1192 0.8459
-19.0791 -42.2345 -2.3503 0.8306
-17.6884 -43.2365 -2.3691 0.8294
-11.7767 -47.2119 -2.4677 0.8229
-10.1732 -48.0866 -2.4927 0.8213
-8.5257 -48.9285 -2.5188 0.8196
-10.7686 30.1249 -2.3457 0.8796
-11.8434 29.7143 -2.3454 0.8796
-12.9026 29.2651 -2.3451 0.8796
-14.9685 28.2541 -2.3444 0.8796
-15.9727 27.6937 -2.3441 0.8797
-18.8541 25.8012 -2.3431 0.8797
-19.7668 25.1026 -2.3427 0.8797
-20.6529 24.3710 -2.3423 0.8797
-21.5133 23.6096 -2.3420 0.8798
-23.7953 24.2981 -2.4936 0.8725
-24.6508 23.4239 -2.4933 0.8725
-20.5542 15.6896 -1.8960 0.9015
-27.7429 19.6391 -2.4923 0.8726
-28.4286 18.6270 -2.4920 0.8726
-29.0775 17.5911 -2.4918 0.8726
-31.2898 13.2361 -2.4911 0.8726
-32.1564 10.9516 -2.4908 0.8726
-32.5278 9.7876 -2.4906 0.8726
-32.8572 8.6112 -2.4905 0.8726
-33.3887 6.2267 -2.4903 0.8726
-33.7483 3.8106 -2.4902 0.8727
-33.9451 -1.0677 -2.4902 0.8727
-33.8851 -2.2877 -2.4902 0.8727
-33.6341 -4.7175 -2.4903 0.8727
-33.4436 -5.9242 -2.4903 0.8726
-33.2100 -7.1232 -2.4904 0.8726
-32.9336 -8.3132 -2.4905 0.8726
-32.6148 -9.4926 -2.4906 0.8726
-31.4079 -12.9521 -2.4910 0.8726
-29.2350 -17.3268 -2.4918 0.8726
-28.5954 -18.3685 -2.4920 0.8726
-21.2197 -19.8011 -2.1281 0.8901
-24.0137 -24.0811 -2.4936 0.8725
-19.9916 -24.9206 -2.3425 0.8797
-18.2963 -26.5069 -2.3616 0.8788
-17.4184 -27.2842 -2.3734 0.8782
-16.5108 -28.0371 -2.3857 0.8777
-15.5741 -28.7646 -2.3984 0.8770
-14.6087 -29.4657 -2.4114 0.8764
-13.6150 -30.1390 -2.4249 0.8758
-11.5454 -31.3980 -2.4529 0.8744
-9.3698 -32.5324 -2.4823 0.8730
-8.2441 -33.0499 -2.4975 0.8723
-7.0942 -33.5328 -2.5131 0.8716
-4.7252 -34.3892 -2.5452 0.8700
-9.8681 22.3825 -2.3484 0.9064
-10.6653 22.0103 -2.3481 0.9064
-11.4485 21.6098 -2.3478 0.9064
-12.9692 20.7264 -2.3473 0.9064
-13.7048 20.2446 -2.3470 0.9064
-18.3072 16.1838 -2.3459 0.9065
-18.8611 15.5017 -2.3439 0.9066
-20.4079 13.3717 -2.3424 0.9066
-20.8741 12.6283 -2.3422 0.9066
-21.3134 11.8687 -2.3421 0.9066
-23.5430 10.9733 -2.4937 0.9009
-23.9212 10.1191 -2.4936 0.9009
-24.5844 8.3728 -2.4933 0.9009
-24.8686 7.4829 -2.4932 0.9009
-25.3405 5.6758 -2.4931 0.9009
-25.6817 3.8395 -2.4930 0.9009
-25.8905 1.9836 -2.4929 0.9009
-25.9450 1.0512 -2.4929 0.9009
-25.9534 -0.8163 -2.4929 0.9009
-25.9074 -1.7491 -2.4929 0.9009
-25.8280 -2.6797 -2.4929 0.9009
-24.9352 -7.2574 -2.4932 0.9009
-24.3510 -9.0317 -2.4934 0.9009
-23.6411 -10.7596 -2.4937 0.9009
-20.9940 -12.4425 -2.3429 0.9066
-20.5509 -13.2010 -2.3450 0.9065
-18.5526 -16.1040 -2.3586 0.9060
-18.0166 -16.8121 -2.3658 0.9057
-13.5949 -21.2951 -2.4255 0.9035
-12.1275 -22.3989 -2.4454 0.9027
-10.5761 -23.4119 -2.4664 0.9019
-8.9453 -24.3271 -2.4884 0.9011
-8.1017 -24.7461 -2.4998 0.9007
-6.3615 -25.5025 -2.5234 0.8998
-5.4664 -25.8383 -2.5355 0.8993
-7.3274 18.3839 -2.3508 0.9234
-7.9832 18.1073 -2.3507 0.9234
-8.6285 17.8069 -2.3504 0.9234
-9.2623 17.4833 -2.3502 0.9234
-9.8842 17.1373 -2.3500 0.9234
-10.4931 16.7693 -2.3498 0.9234
-11.6694 15.9692 -2.3494 0.9234
-12.2353 15.5381 -2.3492 0.9234
-13.3189 14.6167 -2.3490 0.9234
-13.8352 14.1276 -2.3488 0.9234
-14.8136 13.0955 -2.3486 0.9234
-15.7156 11.9962 -2.3485 0.9234
-16.1365 11.4230 -2.3485 0.9235
-16.5367 10.8352 -2.3484 0.9235
-16.9155 10.2334 -2.3484 0.9235
-17.2726 9.6185 -2.3484 0.9235
-17.6023 8.9886 -2.3477 0.9235
-20.1123 6.0518 -2.4949 0.9189
-20.3164 5.3245 -2.4948 0.9189
-20.8683 2.3563 -2.4946 0.9189
-20.9834 0.8503 -2.4946 0.9189
-21.0003 0.0956 -2.4946 0.9189
-20.9530 -1.4146 -2.4946 0.9189
-20.8888 -2.1672 -2.4946 0.9189
-20.6795 -3.6631 -2.4947 0.9189
-20.5348 -4.4045 -2.4947 0.9189
-19.9427 -6.5911 -2.4949 0.9189
-19.6934 -7.3042 -2.4950 0.9189
-19.1190 -8.7015 -2.4952 0.9189
-17.8687 -9.7395 -2.4174 0.9213
-16.6153 -10.6729 -2.3458 0.9235
-16.2326 -11.2718 -2.3475 0.9235
-15.8282 -11.8569 -2.3492 0.9234
-15.4119 -12.4346 -2.3523 0.9233
-14.9523 -12.9788 -2.3519 0.9233
-13.4818 -14.5290 -2.3544 0.9233
-10.8673 -17.0226 -2.3990 0.9219
-9.0751 -18.3044 -2.4269 0.9210
-8.4391 -18.6812 -2.4350 0.9207
-5.7338 -19.9080 -2.4609 0.9199
-4.3034 -20.3411 -2.4697 0.9197
-3.5739 -20.5100 -2.4730 0.9196
-6.1445 15.4161 -2.3514 0.9352
-8.8006 14.0644 -2.3507 0.9352
-9.3002 13.7382 -2.3506 0.9352
-9.7877 13.3942 -2.3505 0.9352
-13.5361 9.5822 -2.3498 0.9352
-14.1895 8.5843 -2.3498 0.9352
-14.4834 8.0653 -2.3489 0.9352
-15.0062 6.9944 -2.3458 0.9353
-15.2380 6.4460 -2.3443 0.9353
-16.6758 5.6793 -2.4960 0.9313
-17.0400 4.4658 -2.4959 0.9313
-17.3162 3.2293 -2.4958 0.9313
-17.4209 2.6045 -2.4958 0.9313
-17.5627 1.3456 -2.4957 0.9313
-17.5996 0.7132 -2.4957 0.9313
-17.6139 0.0797 -2.4957 0.9313
-17.6054 -0.5537 -2.4957 0.9313
-17.5742 -1.1865 -2.4957 0.9313
-17.5203 -1.8177 -2.4958 0.9313
-17.4437 -2.4466 -2.4958 0.9313
-17.2233 -3.6942 -2.4959 0.9313
-16.9139 -4.9228 -2.4960 0.9313
-16.7264 -5.5281 -2.4960 0.9313
-16.5173 -6.1262 -2.4961 0.9313
-16.2868 -6.7164 -2.4962 0.9313
-16.0352 -7.2980 -2.4963 0.9313
-15.7630 -7.8702 -2.4964 0.9313
-15.1578 -8.9836 -2.4966 0.9313
-14.8256 -9.5233 -2.4967 0.9313
-12.5128 -10.8613 -2.3477 0.9353
-12.1210 -11.3106 -2.3490 0.9352
-11.7128 -11.7457 -2.3503 0.9352
-9.9377 -13.3440 -2.3574 0.9350
-6.8898 -15.2516 -2.3713 0.9346
-5.7957 -15.7616 -2.3794 0.9344
-4.6624 -16.1880 -2.3869 0.9342
-4.0828 -16.3674 -2.3901 0.9341
-4.8060 13.4447 -2.3521 0.9438
-5.2861 13.2625 -2.3520 0.9438
-5.7593 13.0631 -2.3519 0.9438
-6.2251 12.8469 -2.3518 0.9438
-8.4208 11.5236 -2.3512 0.9438
-8.8295 11.2129 -2.3512 0.9438
-9.2267 10.8878 -2.3511 0.9438
-9.6120 10.5486 -2.3510 0.9438
-9.9848 10.1959 -2.3509 0.9438
-10.3448 9.8300 -2.3509 0.9438
-11.6445 8.2431 -2.3503 0.9438
-12.1939 7.3770 -2.3478 0.9439
-12.6787 6.4744 -2.3452 0.9439
-14.1624 5.3992 -2.4969 0.9404
-14.3471 4.8862 -2.4968 0.9404
-14.5132 4.3670 -2.4968 0.9404
-14.8983 2.7784 -2.4966 0.9404
-14.9884 2.2408 -2.4966 0.9404
-15.1423 0.6135 -2.4966 0.9404
-15.1545 0.0686 -2.4966 0.9404
-15.1472 -0.4764 -2.4966 0.9404
-15.0080 -2.1050 -2.4966 0.9404
-14.9228 -2.6434 -2.4966 0.9404
-14.6947 -3.7093 -2.4967 0.9404
-14.5521 -4.2354 -2.4968 0.9404
-14.3907 -4.7561 -2.4968 0.9404
-14.2107 -5.2706 -2.4969 0.9404
-14.0123 -5.7784 -2.4970 0.9404
-13.3097 -7.2547 -2.4972 0.9404
-11.1783 -9.7029 -2.4385 0.9418
-10.4261 -9.7291 -2.3492 0.9438
-9.6927 -10.4457 -2.3475 0.9439
-9.3150 -10.7923 -2.3486 0.9438
-8.5225 -11.4437 -2.3506 0.9438
-8.1087 -11.7475 -2.3515 0.9438
-7.2732 -12.3530 -2.3617 0.9435
-6.8283 -12.6117 -2.3626 0.9435
-5.9058 -13.0733 -2.3633 0.9435
-4.4643 -13.6359 -2.3637 0.9435
-3.9715 -13.7891 -2.3640 0.9435
-2.9709 -14.0428 -2.3646 0.9435
-2.4644 -14.1429 -2.3650 0.9435
-1.9561 -14.2340 -2.3669 0.9434
-4.2132 11.7862 -2.3526 0.9503
-4.6341 11.6265 -2.3525 0.9503
-5.0489 11.4518 -2.3524 0.9503
-5.8585 11.0583 -2.3522 0.9503
-7.3824 10.1025 -2.3518 0.9503
-7.7407 9.8302 -2.3518 0.9504
-8.7537 8.9387 -2.3516 0.9504
-9.0692 8.6179 -2.3515 0.9504
-9.9345 7.5833 -2.3491 0.9504
-10.1962 7.2178 -2.3481 0.9504
-10.4443 6.8434 -2.3470 0.9504
-10.6786 6.4603 -2.3459 0.9505
-11.8347 6.0433 -2.4977 0.9474
-12.0440 5.6137 -2.4976 0.9474
-12.2377 5.1768 -2.4976 0.9474
-12.4157 4.7333 -2.4975 0.9474
-12.7233 3.8284 -2.4974 0.9474
-12.9651 2.9039 -2.4973 0.9474
-13.2020 1.4907 -2.4972 0.9474
-13.1572 -1.8454 -2.4972 0.9474
-12.8824 -3.2518 -2.4973 0.9474
-12.7574 -3.7131 -2.4974 0.9474
-12.6158 -4.1695 -2.4974 0.9474
-12.4579 -4.6206 -2.4975 0.9474
-12.2840 -5.0657 -2.4975 0.9474
-11.6680 -6.3598 -2.4978 0.9474
-11.4321 -6.7755 -2.4978 0.9473
-11.1815 -7.1825 -2.4979 0.9473
-10.9163 -7.5802 -2.4980 0.9473
-10.3441 -8.3459 -2.4982 0.9473
-10.0377 -8.7129 -2.4983 0.9473
-9.7183 -9.0686 -2.4984 0.9473
-8.9955 -9.6943 -2.4858 0.9476
-8.3793 -9.7082 -2.4105 0.9491
-7.8124 -9.7385 -2.3467 0.9505
-7.0961 -10.2805 -2.3480 0.9504
-6.7241 -10.5327 -2.3488 0.9504
-5.1507 -11.4018 -2.3516 0.9504
-4.7386 -11.5827 -2.3522 0.9503
-4.3201 -11.7486 -2.3528 0.9503
-3.0399 -12.1866 -2.3608 0.9502
-2.1610 -12.4020 -2.3662 0.9501
-3.7470 10.4821 -2.3530 0.9555
-4.4903 10.1848 -2.3528 0.9555
-4.8535 10.0164 -2.3527 0.9555
-5.2104 9.8350 -2.3526 0.9555
-5.5605 9.6409 -2.3525 0.9555
-6.2386 9.2157 -2.3524 0.9555
-6.5658 8.9851 -2.3523 0.9555
-7.1943 8.4894 -2.3522 0.9555
-7.7814 7.9458 -2.3508 0.9555
-8.5822 7.0536 -2.3482 0.9556
-8.8268 6.7377 -2.3473 0.9556
-9.0597 6.4134 -2.3463 0.9556
-10.1124 6.1177 -2.4983 0.9528
-10.5254 5.3748 -2.4981 0.9528
-10.8839 4.6041 -2.4980 0.9528
-11.0422 4.2096 -2.4980 0.9528
-11.3158 3.4049 -2.4979 0.9528
-11.5309 2.5827 -2.4978 0.9528
-11.6162 2.1663 -2.4978 0.9528
-11.8161 0.0535 -2.4977 0.9528
-11.8103 -0.3714 -2.4977 0.9528
-11.7018 -1.6413 -2.4977 0.9528
-11.6353 -2.0611 -2.4978 0.9528
-11.2202 -3.7083 -2.4979 0.9528
-10.7563 -4.8954 -2.4981 0.9528
-10.5735 -5.2792 -2.4981 0.9528
-9.7085 -6.7415 -2.4984 0.9528
-9.4601 -7.0865 -2.4985 0.9528
-9.1995 -7.4224 -2.4986 0.9528
-8.9269 -7.7487 -2.4987 0.9528
-8.0414 -8.6661 -2.4990 0.9528
-6.1951 -9.7041 -2.4336 0.9540
-5.7202 -9.7135 -2.3828 0.9550
-5.2877 -9.7661 -2.3475 0.9556
-4.5738 -10.1248 -2.3484 0.9556
-3.0774 -10.6850 -2.3504 0.9556
-3.7072 9.3012 -2.3532 0.9597
-4.0392 9.1615 -2.3531 0.9597
-4.3659 9.0100 -2.3531 0.9597
-4.6869 8.8469 -2.3530 0.9597
-5.0019 8.6723 -2.3529 0.9597
-5.6113 8.2889 -2.3525 0.9597
-6.4657 7.6297 -2.3504 0.9597
-6.9930 7.1407 -2.3490 0.9598
-7.2429 6.8824 -2.3482 0.9598
-7.4831 6.6152 -2.3474 0.9598
-8.1347 6.2094 -2.4052 0.9588
-8.6778 6.1430 -2.4988 0.9573
-8.8928 5.8268 -2.4987 0.9573
-9.6354 4.4910 -2.4984 0.9573
-9.9329 3.7867 -2.4983 0.9573
-10.1790 3.0629 -2.4983 0.9573
-10.2824 2.6948 -2.4982 0.9573
-10.5125 1.5717 -2.4981 0.9573
-10.6205 0.4304 -2.4981 0.9573
-10.6291 0.0481 -2.4981 0.9573
-10.6051 -0.7160 -2.4981 0.9573
-10.4665 -1.8540 -2.4982 0.9573
-10.3064 -2.6016 -2.4982 0.9573
-10.2063 -2.9705 -2.4983 0.9573
-10.0930 -3.3357 -2.4983 0.9573
-9.8275 -4.0527 -2.4984 0.9573
-9.6757 -4.4036 -2.4984 0.9573
-9.3345 -5.0879 -2.4985 0.9573
-8.9451 -5.7459 -2.4987 0.9573
-8.7330 -6.0641 -2.4988 0.9573
-8.0299 -6.9700 -2.4990 0.9572
-7.7743 -7.2546 -2.4991 0.9572
-7.2333 -7.7951 -2.4993 0.9572
-6.9485 -8.0505 -2.4994 0.9572
-6.3524 -8.5299 -2.4996 0.9572
-6.0412 -8.7532 -2.4997 0.9572
-5.3975 -9.1656 -2.4999 0.9572
-3.5686 -9.7049 -2.4302 0.9584
-3.1790 -9.7102 -2.4013 0.9589
-2.4259 -9.7253 -2.3557 0.9597
-1.7155 -9.8453 -2.3487 0.9598
-1.3605 -9.9014 -2.3489 0.9598
-3.0598 8.5596 -2.3536 0.9631
-3.3655 8.4438 -2.3535 0.9631
-4.2531 8.0280 -2.3523 0.9632
-4.5380 7.8680 -2.3517 0.9632
-5.0894 7.5180 -2.3506 0.9632
-5.3551 7.3282 -2.3500 0.9632
-5.8648 6.9206 -2.3488 0.9632
-6.1082 6.7034 -2.3481 0.9632
-6.5714 6.2443 -2.3471 0.9632
-7.0198 6.2057 -2.4259 0.9620
-7.4570 6.1288 -2.4992 0.9609
-7.6724 5.8565 -2.4991 0.9609
-8.5951 4.3891 -2.4988 0.9609
-8.7472 4.0771 -2.4987 0.9609
-9.1350 3.1111 -2.4986 0.9609
-9.2408 2.7806 -2.4986 0.9609
-9.3347 2.4465 -2.4985 0.9609
-9.4862 1.7691 -2.4985 0.9609
-9.5436 1.4268 -2.4985 0.9609
-9.5887 1.0827 -2.4985 0.9609
-9.6448 -0.3033 -2.4984 0.9609
-9.6277 -0.6500 -2.4984 0.9609
-9.5981 -0.9958 -2.4985 0.9609
-9.5561 -1.3403 -2.4985 0.9609
-9.4352 -2.0238 -2.4985 0.9609
-9.3565 -2.3618 -2.4985 0.9609
-9.2656 -2.6968 -2.4986 0.9609
-8.9217 -3.6791 -2.4987 0.9609
-8.7838 -3.9977 -2.4987 0.9609
-8.6345 -4.3111 -2.4988 0.9609
-8.1205 -5.2163 -2.4990 0.9609
-7.9279 -5.5051 -2.4990 0.9609
-7.7250 -5.7868 -2.4991 0.9609
-7.5122 -6.0610 -2.4992 0.9609
-7.2895 -6.3274 -2.4992 0.9609
-7.0575 -6.5857 -2.4993 0.9609
-6.8163 -6.8354 -2.4994 0.9609
-6.5663 -7.0764 -2.4995 0.9609
-6.3078 -7.3082 -2.4996 0.9609
-6.0411 -7.5306 -2.4997 0.9609
-5.4847 -7.9460 -2.4999 0.9609
-5.1956 -8.1384 -2.5000 0.9609
-3.3331 -9.0645 -2.5006 0.9609
-2.6732 -9.2814 -2.5008 0.9609
-2.7969 7.8241 -2.3522 0.9660
-3.6214 7.4735 -2.3510 0.9661
-3.8870 7.3371 -2.3505 0.9661
-4.6516 6.8713 -2.3490 0.9661
-4.8946 6.6981 -2.3485 0.9661
-6.0717 6.2000 -2.4567 0.9646
-6.6150 5.8478 -2.4995 0.9640
-7.2057 5.1009 -2.4993 0.9640
-7.5534 4.5696 -2.4992 0.9640
-8.2481 3.1445 -2.4989 0.9640
-8.3558 2.8457 -2.4989 0.9640
-8.5385 2.2378 -2.4988 0.9640
-8.6771 1.6182 -2.4988 0.9640
-8.7708 0.9903 -2.4987 0.9640
-8.8193 0.3574 -2.4987 0.9640
-8.8221 -0.2775 -2.4987 0.9640
-8.8065 -0.5945 -2.4987 0.9640
-8.7794 -0.9109 -2.4987 0.9640
-8.6304 -1.8511 -2.4988 0.9640
-8.5584 -2.1603 -2.4988 0.9640
-8.4753 -2.4667 -2.4988 0.9640
-7.8979 -3.9433 -2.4990 0.9640
-7.7511 -4.2249 -2.4991 0.9640
-7.5944 -4.5010 -2.4991 0.9640
-7.4278 -4.7712 -2.4992 0.9640
-7.2516 -5.0354 -2.4993 0.9640
-7.0660 -5.2931 -2.4993 0.9640
-6.8712 -5.5439 -2.4994 0.9640
-6.6676 -5.7876 -2.4995 0.9640
-6.4554 -6.0238 -2.4995 0.9640
-5.7696 -6.6846 -2.4998 0.9640
-5.5256 -6.8880 -2.4998 0.9640
-5.2745 -7.0825 -2.4999 0.9640
-4.7522 -7.4438 -2.5001 0.9640
-3.9233 -7.9132 -2.5004 0.9639
-3.0486 -8.2907 -2.5007 0.9639
-2.7486 -8.3954 -2.5008 0.9639
-2.1382 -8.5719 -2.5010 0.9639
-1.8286 -8.6436 -2.5011 0.9639
-2.5725 7.1964 -2.3506 0.9685
-2.8292 7.0982 -2.3503 0.9685
-4.2792 6.3212 -2.3479 0.9686
-4.8862 6.2052 -2.4293 0.9675
-5.2479 6.1927 -2.4967 0.9666
-5.6865 5.8067 -2.4998 0.9666
-6.0888 5.3826 -2.4997 0.9666
-6.2783 5.1601 -2.4996 0.9666
-6.6326 4.6952 -2.4995 0.9666
-7.3648 3.4327 -2.4992 0.9666
-7.4833 3.1656 -2.4992 0.9666
-7.8595 2.0598 -2.4991 0.9666
-7.9284 1.7758 -2.4990 0.9666
-8.0354 1.2013 -2.4990 0.9666
-8.1180 0.3289 -2.4990 0.9666
-7.9441 -1.7039 -2.4990 0.9666
-7.8778 -1.9885 -2.4990 0.9666
-7.3955 -3.3658 -2.4992 0.9666
-7.2698 -3.6297 -2.4993 0.9666
-7.1346 -3.8888 -2.4993 0.9666
-6.8370 -4.3918 -2.4994 0.9666
-6.5040 -4.8721 -2.4995 0.9666
-6.3247 -5.1029 -2.4996 0.9666
-5.7388 -5.7549 -2.4998 0.9666
-5.5283 -5.9577 -2.4998 0.9666
-5.3106 -6.1529 -2.4999 0.9666
-4.8549 -6.5190 -2.5001 0.9666
-3.8706 -7.1488 -2.5004 0.9666
-3.6111 -7.2836 -2.5005 0.9666
-3.3470 -7.4090 -2.5006 0.9665
-3.0785 -7.5249 -2.5007 0.9665
-2.8060 -7.6310 -2.5008 0.9665
-2.5298 -7.7272 -2.5009 0.9665
-1.9680 -7.8897 -2.5011 0.9665
-1.1070 -8.0567 -2.5014 0.9665
-2.3789 6.6550 -2.3492 0.9706
-2.6163 6.5642 -2.3489 0.9707
-2.8503 6.4649 -2.3486 0.9707
-3.0806 6.3575 -2.3483 0.9707
-3.3071 6.2424 -2.3482 0.9707
-3.5837 6.2136 -2.3844 0.9702
-3.8824 6.2046 -2.4329 0.9696
-4.1935 6.1946 -2.4866 0.9690
-4.4378 6.0729 -2.5002 0.9688
-4.6532 5.9092 -2.5001 0.9688
-4.8625 5.7379 -2.5001 0.9688
-5.4518 5.1804 -2.4999 0.9688
-5.6344 4.9809 -2.4998 0.9688
-5.8097 4.7750 -2.4997 0.9688
-6.1376 4.3448 -2.4996 0.9688
-6.4338 3.8923 -2.4995 0.9688
-6.6967 3.4197 -2.4994 0.9688
-6.9249 2.9294 -2.4994 0.9688
-7.1174 2.4240 -2.4993 0.9688
-7.1999 2.1664 -2.4993 0.9688
-7.3368 1.6433 -2.4992 0.9688
-7.4359 1.1117 -2.4992 0.9688
-7.4710 0.8436 -2.4992 0.9688
-7.5147 -0.2364 -2.4992 0.9688
-7.4456 -1.0443 -2.4992 0.9688
-7.4033 -1.3114 -2.4992 0.9688
-7.1390 -2.3594 -2.4993 0.9688
-6.9512 -2.8665 -2.4994 0.9688
-6.8437 -3.1147 -2.4994 0.9688
-6.7273 -3.3589 -2.4994 0.9688
-6.6023 -3.5987 -2.4995 0.9688
-6.1767 -4.2890 -2.4996 0.9688
-6.0186 -4.5085 -2.4997 0.9688
-5.8527 -4.7221 -2.4997 0.9688
-5.6792 -4.9296 -2.4998 0.9688
-5.3105 -5.3254 -2.4999 0.9688
-5.1157 -5.5131 -2.5000 0.9688
-4.7064 -5.8668 -2.5001 0.9688
-3.0971 -6.8558 -2.5007 0.9688
-2.8487 -6.9631 -2.5008 0.9688
-2.5965 -7.0612 -2.5008 0.9688
-2.3410 -7.1503 -2.5009 0.9688
-1.5574 -7.3616 -2.5012 0.9688
-1.2917 -7.4131 -2.5013 0.9688
-2.7362 6.2061 -2.4255 0.9716
-3.2735 6.1791 -2.5006 0.9707
-3.4935 6.0572 -2.5005 0.9707
-3.7090 5.9275 -2.5005 0.9707
-4.3254 5.4930 -2.5003 0.9707
-4.5200 5.3338 -2.5002 0.9707
-4.8915 4.9949 -2.5001 0.9707
-5.2376 4.6301 -2.4999 0.9707
-5.4006 4.4387 -2.4999 0.9707
-5.5566 4.2415 -2.4998 0.9707
-5.8469 3.8310 -2.4997 0.9707
-6.1069 3.4007 -2.4996 0.9707
-6.3353 2.9529 -2.4996 0.9707
-6.4373 2.7231 -2.4995 0.9707
-6.5310 2.4898 -2.4995 0.9707
-6.6163 2.2533 -2.4995 0.9707
-6.6929 2.0139 -2.4994 0.9707
-6.7610 1.7719 -2.4994 0.9707
-6.8203 1.5276 -2.4994 0.9707
-6.9687 0.5339 -2.4994 0.9707
-6.9732 -0.4708 -2.4994 0.9707
-6.9518 -0.7212 -2.4994 0.9707
-6.9214 -0.9708 -2.4994 0.9707
-6.8821 -1.2191 -2.4994 0.9707
-6.7767 -1.7106 -2.4994 0.9707
-6.7109 -1.9532 -2.4994 0.9707
-6.4617 -2.6647 -2.4995 0.9707
-6.1374 -3.3453 -2.4996 0.9707
-5.7417 -3.9870 -2.4998 0.9707
-5.5948 -4.1910 -2.4998 0.9707
-5.4405 -4.3896 -2.4999 0.9707
-5.2793 -4.5825 -2.4999 0.9707
-4.9365 -4.9503 -2.5000 0.9707
-3.9719 -5.7543 -2.5004 0.9707
-3.5482 -6.0252 -2.5005 0.9707
-3.3293 -6.1491 -2.5006 0.9707
-3.1061 -6.2650 -2.5007 0.9707
-2.4136 -6.5638 -2.5009 0.9707
-2.1760 -6.6465 -2.5010 0.9707
-1.9357 -6.7207 -2.5011 0.9707
-1.2007 -6.8908 -2.5013 0.9707
-2.1968 6.1454 -2.5010 0.9724
-2.6326 5.9713 -2.5008 0.9724
-3.0549 5.7663 -2.5007 0.9724
-3.2602 5.6525 -2.5006 0.9724
-3.6578 5.4033 -2.5005 0.9724
-3.8497 5.2681 -2.5004 0.9724
-4.0365 5.1261 -2.5004 0.9724
-4.2181 4.9775 -2.5003 0.9724
-4.5648 4.6613 -2.5002 0.9724
-5.1855 3.9582 -2.5000 0.9724
-5.6991 3.1736 -2.4998 0.9724
-5.9123 2.7557 -2.4997 0.9724
-6.0075 2.5413 -2.4997 0.9724
-6.0949 2.3236 -2.4997 0.9724
-6.1745 2.1029 -2.4996 0.9724
-6.3648 1.4256 -2.4996 0.9724
-6.4508 0.9644 -2.4995 0.9724
-6.4813 0.7318 -2.4995 0.9724
-6.5171 0.2641 -2.4995 0.9724
-6.5192 -0.2050 -2.4995 0.9724
-6.5076 -0.4393 -2.4995 0.9724
-6.4876 -0.6731 -2.4995 0.9724
-6.4592 -0.9060 -2.4995 0.9724
-6.4225 -1.1377 -2.4995 0.9724
-6.1932 -2.0468 -2.4996 0.9724
-5.9370 -2.7020 -2.4997 0.9724
-5.7276 -3.1219 -2.4998 0.9724
-5.4885 -3.5256 -2.4999 0.9724
-4.9267 -4.2764 -2.5001 0.9724
-4.7698 -4.4509 -2.5001 0.9724
-4.6068 -4.6197 -2.5002 0.9724
-4.0827 -5.0894 -2.5003 0.9724
-3.8972 -5.2330 -2.5004 0.9724
-3.7066 -5.3699 -2.5005 0.9724
-3.5111 -5.4999 -2.5005 0.9724
-3.3112 -5.6227 -2.5006 0.9724
-3.1069 -5.7383 -2.5007 0.9724
-2.6866 -5.9472 -2.5008 0.9724
-2.2523 -6.1252 -2.5010 0.9724
-2.0306 -6.2024 -2.5010 0.9724
-1.8063 -6.2717 -2.5011 0.9724
-1.5797 -6.3328 -2.5012 0.9724
-1.3510 -6.3857 -2.5013 0.9724
-1.1205 -6.4303 -2.5014 0.9724
-2.0570 5.7543 -2.5010 0.9739
-2.4651 5.5913 -2.5009 0.9739
-2.6645 5.4988 -2.5008 0.9739
-3.0526 5.2928 -2.5007 0.9739
-3.2410 5.1795 -2.5006 0.9739
-3.4250 5.0595 -2.5006 0.9739
-3.7797 4.8000 -2.5004 0.9739
-3.9497 4.6608 -2.5004 0.9739
-4.1147 4.5157 -2.5003 0.9739
-4.2740 4.3646 -2.5003 0.9739
-4.5768 4.0460 -2.5002 0.9739
-4.7193 3.8787 -2.5001 0.9739
-4.9857 3.5293 -2.5000 0.9739
-5.4399 2.7778 -2.4999 0.9739
-5.6253 2.3796 -2.4998 0.9739
-5.7817 1.9691 -2.4998 0.9739
-5.9081 1.5484 -2.4997 0.9739
-6.0690 0.6853 -2.4997 0.9739
-6.0897 0.4666 -2.4997 0.9739
-6.1074 0.0277 -2.4996 0.9739
-5.9718 -1.2809 -2.4997 0.9739
-5.8644 -1.7068 -2.4997 0.9739
-5.7992 -1.9166 -2.4998 0.9739
-5.4648 -2.7284 -2.4999 0.9739
-5.2547 -3.1143 -2.4999 0.9739
-5.1393 -3.3013 -2.5000 0.9739
-5.0174 -3.4840 -2.5000 0.9739
-4.6132 -4.0044 -2.5002 0.9739
-4.4663 -4.1677 -2.5002 0.9739
-4.1554 -4.4782 -2.5003 0.9739
-3.9918 -4.6248 -2.5004 0.9739
-3.4707 -5.0282 -2.5005 0.9739
-3.2877 -5.1499 -2.5006 0.9739
-2.7142 -5.4745 -2.5008 0.9739
-2.1090 -5.7354 -2.5010 0.9739
-1.9014 -5.8077 -2.5011 0.9739
-1.2650 -5.9792 -2.5013 0.9739
-0.8320 -6.0550 -2.5014 0.9739
-1.9317 5.4039 -2.5011 0.9753
-2.1247 5.3308 -2.5010 0.9753
-2.8668 4.9706 -2.5008 0.9753
-3.0437 4.8642 -2.5007 0.9753
-3.2165 4.7515 -2.5006 0.9753
-3.8642 4.2408 -2.5004 0.9753
-4.0142 4.0990 -2.5004 0.9753
-4.1589 3.9519 -2.5003 0.9753
-4.6822 3.3145 -2.5001 0.9753
-4.7983 3.1440 -2.5001 0.9753
-4.9082 2.9693 -2.5001 0.9753
-5.0117 2.7908 -2.5000 0.9753
-5.1088 2.6088 -2.5000 0.9753
-5.2830 2.2348 -2.4999 0.9753
-5.3598 2.0434 -2.4999 0.9753
-5.5486 1.4542 -2.4998 0.9753
-5.6387 1.0516 -2.4998 0.9753
-5.6728 0.8481 -2.4998 0.9753
-5.6997 0.6436 -2.4998 0.9753
-5.7191 0.4382 -2.4998 0.9753
-5.7311 0.2322 -2.4998 0.9753
-5.7358 0.0260 -2.4998 0.9753
-5.7330 -0.1803 -2.4998 0.9753
-5.7228 -0.3864 -2.4998 0.9753
-5.7052 -0.5919 -2.4998 0.9753
-5.6803 -0.7967 -2.4998 0.9753
-5.6084 -1.2029 -2.4998 0.9753
-5.5615 -1.4038 -2.4998 0.9753
-5.5075 -1.6030 -2.4999 0.9753
-5.3781 -1.9947 -2.4999 0.9753
-5.3030 -2.1868 -2.4999 0.9753
-5.2209 -2.3761 -2.5000 0.9753
-4.5914 -3.4394 -2.5002 0.9753
-3.9025 -4.2056 -2.5004 0.9753
-3.5902 -4.4754 -2.5005 0.9753
-2.9117 -4.9444 -2.5007 0.9753
-2.1729 -5.3113 -2.5010 0.9753
-1.7856 -5.4541 -2.5011 0.9753
-1.5884 -5.5149 -2.5012 0.9753
-1.3891 -5.5686 -2.5013 0.9753
-0.9853 -5.6544 -2.5014 0.9753
-0.7813 -5.6863 -2.5015 0.9753
-1.8188 5.0880 -2.5011 0.9765
-2.0005 5.0192 -2.5010 0.9765
-2.1797 4.9439 -2.5010 0.9765
-2.3560 4.8622 -2.5009 0.9765
-2.5293 4.7742 -2.5009 0.9765
-2.6993 4.6800 -2.5008 0.9765
-2.8658 4.5798 -2.5008 0.9765
-3.0285 4.4737 -2.5007 0.9765
-3.1874 4.3618 -2.5006 0.9765
-3.4925 4.1213 -2.5005 0.9765
-4.0470 3.5777 -2.5003 0.9765
-4.2936 3.2774 -2.5003 0.9765
-4.4086 3.1208 -2.5002 0.9765
-4.5179 2.9602 -2.5002 0.9765
-4.6214 2.7958 -2.5002 0.9765
-4.7188 2.6278 -2.5001 0.9765
-4.8102 2.4563 -2.5001 0.9765
-4.8954 2.2817 -2.5001 0.9765
-4.9742 2.1042 -2.5000 0.9765
-5.1125 1.7412 -2.5000 0.9765
-5.2244 1.3692 -2.4999 0.9765
-5.2702 1.1804 -2.4999 0.9765
-5.3092 0.9901 -2.4999 0.9765
-5.3666 0.6060 -2.4999 0.9765
-5.3849 0.4125 -2.4999 0.9765
-5.3962 0.2186 -2.4999 0.9765
-5.4006 0.0245 -2.4999 0.9765
-5.3980 -0.1698 -2.4999 0.9765
-5.3884 -0.3638 -2.4999 0.9765
-5.3484 -0.7502 -2.4999 0.9765
-5.1281 -1.6948 -2.5000 0.9765
-5.0638 -1.8781 -2.5000 0.9765
-4.9931 -2.0590 -2.5000 0.9765
-4.9158 -2.2373 -2.5001 0.9765
-4.7424 -2.5849 -2.5001 0.9765
-4.6465 -2.7538 -2.5001 0.9765
-4.5445 -2.9192 -2.5002 0.9765
-4.4366 -3.0808 -2.5002 0.9765
-4.3230 -3.2384 -2.5003 0.9765
-3.8143 -3.8250 -2.5004 0.9765
-3.5297 -4.0895 -2.5005 0.9765
-3.3804 -4.2138 -2.5006 0.9765
-3.2267 -4.3327 -2.5006 0.9765
-3.0689 -4.4461 -2.5007 0.9765
-2.3999 -4.8406 -2.5009 0.9765
-2.2243 -4.9239 -2.5010 0.9765
-1.6812 -5.1352 -2.5012 0.9765
-1.1185 -5.2868 -2.5014 0.9765
-0.9277 -5.3238 -2.5014 0.9765
-0.7356 -5.3538 -2.5015 0.9765
-1.8878 4.7364 -2.5011 0.9775
-2.0569 4.6654 -2.5010 0.9775
-2.2233 4.5883 -2.5010 0.9775
-2.3868 4.5053 -2.5009 0.9775
-2.5472 4.4164 -2.5009 0.9775
-2.7043 4.3219 -2.5008 0.9775
-3.0079 4.1162 -2.5007 0.9775
-3.1539 4.0053 -2.5007 0.9775
-3.2958 3.8892 -2.5006 0.9775
-3.5667 3.6421 -2.5005 0.9775
-3.6953 3.5114 -2.5005 0.9775
-3.8191 3.3762 -2.5004 0.9775
-3.9380 3.2366 -2.5004 0.9775
-4.0518 3.0928 -2.5003 0.9775
-4.4531 2.4798 -2.5002 0.9775
-4.5394 2.3180 -2.5002 0.9775
-4.6941 1.9857 -2.5001 0.9775
-4.7625 1.8156 -2.5001 0.9775
-4.8246 1.6432 -2.5001 0.9775
-4.8806 1.4686 -2.5001 0.9775
-4.9734 1.1140 -2.5000 0.9775
-5.0103 0.9344 -2.5000 0.9775
-5.0817 0.3893 -2.5000 0.9775
-5.0924 0.2063 -2.5000 0.9775
-5.0185 -0.8889 -2.5000 0.9775
-4.9833 -1.0689 -2.5000 0.9775
-4.8937 -1.4243 -2.5001 0.9775
-4.6390 -2.1113 -2.5001 0.9775
-4.5602 -2.2768 -2.5002 0.9775
-4.3848 -2.5987 -2.5002 0.9775
-4.0796 -3.0560 -2.5003 0.9775
-3.9671 -3.2008 -2.5004 0.9775
-3.7269 -3.4778 -2.5005 0.9775
-3.5994 -3.6096 -2.5005 0.9775
-3.4674 -3.7368 -2.5005 0.9775
-3.3309 -3.8591 -2.5006 0.9775
-3.1900 -3.9765 -2.5006 0.9775
-2.8961 -4.1957 -2.5007 0.9775
-2.7434 -4.2972 -2.5008 0.9775
-2.5871 -4.3932 -2.5008 0.9775
-2.4275 -4.4834 -2.5009 0.9775
-1.9306 -4.7191 -2.5011 0.9775
-1.2342 -4.9476 -2.5013 0.9775
-0.8754 -5.0238 -2.5014 0.9775
-2.1022 4.3385 -2.5010 0.9785
-2.4085 4.1760 -2.5009 0.9785
-2.5571 4.0866 -2.5009 0.9785
-2.7024 3.9919 -2.5008 0.9785
-2.8441 3.8921 -2.5008 0.9785
-3.1164 3.6774 -2.5007 0.9785
-3.2466 3.5629 -2.5006 0.9785
-3.7236 3.0604 -2.5005 0.9785
-4.0314 2.6415 -2.5004 0.9785
-4.1237 2.4948 -2.5003 0.9785
-4.2107 2.3448 -2.5003 0.9785
-4.3683 2.0361 -2.5002 0.9785
-4.4386 1.8776 -2.5002 0.9785
-4.5032 1.7168 -2.5002 0.9785
-4.7027 1.0533 -2.5001 0.9785
-4.7662 0.7126 -2.5001 0.9785
-4.7888 0.5407 -2.5001 0.9785
-4.8051 0.3681 -2.5001 0.9785
-4.8152 0.1951 -2.5001 0.9785
-4.8191 0.0218 -2.5001 0.9785
-4.8168 -0.1515 -2.5001 0.9785
-4.7725 -0.6694 -2.5001 0.9785
-4.6727 -1.1795 -2.5001 0.9785
-4.4554 -1.8373 -2.5002 0.9785
-4.3865 -1.9964 -2.5002 0.9785
-4.3119 -2.1529 -2.5003 0.9785
-4.2318 -2.3066 -2.5003 0.9785
-4.0551 -2.6048 -2.5003 0.9785
-3.8575 -2.8897 -2.5004 0.9785
-3.6399 -3.1595 -2.5005 0.9785
-3.4035 -3.4131 -2.5006 0.9785
-3.0163 -3.7600 -2.5007 0.9785
-2.7384 -3.9672 -2.5008 0.9785
-2.5940 -4.0632 -2.5008 0.9785
-1.9848 -4.3935 -2.5011 0.9785
-1.5001 -4.5820 -2.5012 0.9785
-1.3344 -4.6331 -2.5013 0.9785
-1.1670 -4.6782 -2.5013 0.9785
-0.8277 -4.7502 -2.5014 0.9785
-0.6564 -4.7770 -2.5015 0.9785
-1.6908 4.2421 -2.5012 0.9794
-2.1377 4.0351 -2.5010 0.9794
-2.2814 3.9555 -2.5010 0.9794
-3.0752 3.3749 -2.5007 0.9794
-3.1945 3.2620 -2.5006 0.9794
-3.3097 3.1450 -2.5006 0.9794
-3.4206 3.0239 -2.5006 0.9794
-3.6290 2.7701 -2.5005 0.9794
-3.9061 2.3631 -2.5004 0.9794
-3.9885 2.2210 -2.5004 0.9794
-4.0657 2.0761 -2.5003 0.9794
-4.1377 1.9286 -2.5003 0.9794
-4.3713 1.3153 -2.5002 0.9794
-4.4158 1.1573 -2.5002 0.9794
-4.4545 0.9978 -2.5002 0.9794
-4.4875 0.8369 -2.5002 0.9794
-4.5147 0.6750 -2.5002 0.9794
-4.5360 0.5122 -2.5002 0.9794
-4.5515 0.3487 -2.5002 0.9794
-4.5611 0.1848 -2.5002 0.9794
-4.5648 0.0207 -2.5002 0.9794
-4.4949 -0.7962 -2.5002 0.9794
-4.4634 -0.9574 -2.5002 0.9794
-4.4261 -1.1172 -2.5002 0.9794
-4.3831 -1.2757 -2.5002 0.9794
-4.3344 -1.4325 -2.5003 0.9794
-4.2801 -1.5875 -2.5003 0.9794
-4.1550 -1.8910 -2.5003 0.9794
-4.0843 -2.0393 -2.5003 0.9794
-3.9273 -2.3276 -2.5004 0.9794
-3.8411 -2.4673 -2.5004 0.9794
-3.7499 -2.6039 -2.5005 0.9794
-3.6539 -2.7371 -2.5005 0.9794
-2.9833 -3.4564 -2.5007 0.9794
-2.8571 -3.5615 -2.5008 0.9794
-2.7272 -3.6620 -2.5008 0.9794
-2.5938 -3.7578 -2.5008 0.9794
-2.4570 -3.8487 -2.5009 0.9794
-2.3171 -3.9347 -2.5009 0.9794
-2.1741 -4.0155 -2.5010 0.9794
-1.7291 -4.2266 -2.5011 0.9794
-1.5760 -4.2861 -2.5012 0.9794
-1.4209 -4.3401 -2.5012 0.9794
-0.7840 -4.4994 -2.5015 0.9794
-2.0280 3.8279 -2.5010 0.9802
-2.1643 3.7525 -2.5010 0.9802
-2.2978 3.6721 -2.5009 0.9802
-2.4283 3.5871 -2.5009 0.9802
-2.5557 3.4974 -2.5009 0.9802
-2.9173 3.2016 -2.5007 0.9802
-3.0305 3.0946 -2.5007 0.9802
-3.1398 2.9836 -2.5007 0.9802
-3.3460 2.7501 -2.5006 0.9802
-3.4427 2.6279 -2.5006 0.9802
-3.6226 2.3737 -2.5005 0.9802
-3.9254 1.8296 -2.5004 0.9802
-3.9886 1.6873 -2.5004 0.9802
-4.0466 1.5427 -2.5004 0.9802
-4.1892 1.0979 -2.5003 0.9802
-4.2572 0.7940 -2.5003 0.9802
-4.3032 0.4859 -2.5003 0.9802
-4.3179 0.3308 -2.5003 0.9802
-4.3270 0.1753 -2.5003 0.9802
-4.3305 0.0196 -2.5003 0.9802
-4.3207 -0.2917 -2.5003 0.9802
-4.3075 -0.4469 -2.5003 0.9802
-4.2642 -0.7553 -2.5003 0.9802
-4.1989 -1.0599 -2.5003 0.9802
-4.1581 -1.2102 -2.5003 0.9802
-3.8747 -1.9346 -2.5004 0.9802
-3.8027 -2.0727 -2.5004 0.9802
-3.5575 -2.4703 -2.5005 0.9802
-3.4664 -2.5966 -2.5005 0.9802
-3.3708 -2.7197 -2.5006 0.9802
-3.1667 -2.9550 -2.5007 0.9802
-2.9462 -3.1750 -2.5007 0.9802
-2.7104 -3.3787 -2.5008 0.9802
-2.3309 -3.6511 -2.5009 0.9802
-1.6404 -4.0096 -2.5012 0.9802
-1.4951 -4.0660 -2.5012 0.9802
-1.1990 -4.1632 -2.5013 0.9802
-1.0486 -4.2037 -2.5014 0.9802
-0.8968 -4.2388 -2.5014 0.9802
-0.7437 -4.2683 -2.5015 0.9802
