ply
format ascii 1.0
element vertex 1084
property float32 x
property float32 y
property float32 z
property float32 I
end_header
21.4215 20.3400 3.8467 0.8877
26.5398 20.2305 3.5835 0.8744
22.9925 20.3064 3.2940 0.8839
21.4215 20.3400 3.1720 0.8880
26.5398 20.2305 2.8250 0.8746
24.6915 20.2700 2.7043 0.8796
21.4215 20.3400 2.5006 0.8882
20.6871 21.1124 2.5022 0.8881
20.7218 22.7326 2.6039 0.8838
22.9925 20.3064 1.9022 0.8843
20.7216 22.7324 1.9074 0.8840
20.7592 24.4923 1.9909 0.8793
24.6915 20.2700 1.2597 0.8800
22.9925 20.3064 1.2096 0.8844
20.7213 22.7322 1.2129 0.8841
20.7590 24.4920 1.2660 0.8794
26.5379 20.2291 0.5637 0.8750
24.6897 20.2686 0.5396 0.8800
22.9908 20.3050 0.5181 0.8845
20.6862 21.1116 0.4993 0.8885
20.7586 24.4916 0.5423 0.8795
20.7998 26.4152 0.5679 0.8741
26.5379 20.2291 -0.1879 0.8750
24.6897 20.2686 -0.1798 0.8800
22.9909 20.3050 -0.1727 0.8845
20.7996 26.4149 -0.1893 0.8742
26.5379 20.2290 -0.9396 0.8750
24.6897 20.2686 -0.8995 0.8800
22.9909 20.3050 -0.8637 0.8845
20.7205 22.7313 -0.8661 0.8842
20.7581 24.4910 -0.9040 0.8794
-34.2379 -35.2089 -2.4906 0.8214
-32.9516 -36.4268 -2.4910 0.8214
-31.6221 -37.5978 -2.4915 0.8214
-30.2513 -38.7206 -2.4919 0.8214
-22.9032 -40.0987 -2.3419 0.8311
-21.4976 -41.0039 -2.3479 0.8307
-20.1590 -42.0738 -2.3660 0.8296
-18.7759 -43.1112 -2.3847 0.8283
-17.3483 -44.1139 -2.4040 0.8271
-15.9390 -45.2584 -2.4334 0.8252
-14.4575 -46.3177 -2.4607 0.8234
-12.9102 -47.2938 -2.4862 0.8217
-11.3082 -48.2056 -2.5111 0.8201
49.5295 5.4859 -2.5272 0.8191
48.8267 9.0084 -2.5180 0.8197
48.0377 12.5005 -2.5173 0.8197
34.1323 14.3844 -1.8784 0.8621
33.9616 20.5014 -2.0118 0.8531
33.8241 23.9052 -2.1005 0.8471
26.5379 20.2290 -1.6923 0.8749
24.6897 20.2686 -1.6200 0.8799
22.9908 20.3050 -1.5556 0.8844
20.6856 21.1109 -1.4989 0.8884
20.7991 26.4143 -1.7050 0.8740
-22.2689 -22.9005 -2.3421 0.8798
-21.4898 -23.7562 -2.3488 0.8794
-20.7114 -24.6252 -2.3593 0.8789
-15.3954 -29.3648 -2.4311 0.8755
-11.2666 -31.9906 -2.4868 0.8728
-10.1661 -32.5696 -2.5017 0.8721
-7.8883 -33.6265 -2.5325 0.8706
-6.7125 -34.1018 -2.5484 0.8699
-5.5133 -34.5400 -2.5646 0.8691
-3.0488 -35.3004 -2.5979 0.8675
-0.5033 -35.8980 -2.6324 0.8659
0.7968 -36.1325 -2.6500 0.8651
2.1132 -36.3228 -2.6678 0.8642
3.4447 -36.4677 -2.6858 0.8634
6.1466 -36.6165 -2.7224 0.8616
7.5137 -36.6183 -2.7409 0.8608
10.2713 -36.4717 -2.7782 0.8590
11.6580 -36.3215 -2.7970 0.8581
13.0054 -36.0029 -2.8068 0.8577
17.6011 -32.9263 -2.7375 0.8609
18.6289 -32.0159 -2.7159 0.8619
19.6075 -31.0638 -2.6934 0.8630
20.5355 -30.0739 -2.6701 0.8641
21.4119 -29.0497 -2.6461 0.8652
22.2400 -28.0002 -2.6218 0.8664
23.0353 -26.9462 -2.5993 0.8675
23.7788 -25.8661 -2.5762 0.8686
24.4927 -24.7860 -2.5550 0.8696
25.8223 -22.6122 -2.5167 0.8714
26.4363 -21.5162 -2.4992 0.8722
27.0271 -20.4221 -2.4838 0.8730
29.0719 -15.9886 -2.4327 0.8754
32.8694 -9.6807 -2.5124 0.8716
33.1985 -8.4895 -2.5125 0.8716
33.4991 -7.2904 -2.5137 0.8715
33.7986 -6.0883 -2.5181 0.8713
34.1757 -3.6393 -2.5200 0.8712
34.2725 -2.4037 -2.5191 0.8713
34.3237 -1.1659 -2.5181 0.8713
34.3291 0.0725 -2.5171 0.8714
33.7002 6.2175 -2.5127 0.8716
31.4363 6.9806 -2.3611 0.8788
29.2305 13.5798 -2.3632 0.8787
26.9579 17.6303 -2.3618 0.8788
26.3005 18.5879 -2.3614 0.8788
24.6897 20.2686 -2.3422 0.8797
22.9908 20.3050 -2.2491 0.8842
20.6853 21.1107 -2.1671 0.8882
20.7200 22.7308 -2.2552 0.8839
20.7577 24.4904 -2.3539 0.8792
19.8967 25.2683 -2.3582 0.8790
-17.4545 -17.9496 -2.4037 0.9043
-16.2266 -19.2929 -2.4202 0.9037
-15.5766 -19.9375 -2.4290 0.9033
-14.9031 -20.5629 -2.4381 0.9030
-14.2065 -21.1682 -2.4475 0.9026
-13.4873 -21.7527 -2.4572 0.9023
-12.7459 -22.3154 -2.4672 0.9019
-11.9828 -22.8556 -2.4775 0.9015
-9.5689 -24.3320 -2.5101 0.9003
-8.7248 -24.7734 -2.5216 0.8998
-6.0834 -25.9328 -2.5573 0.8985
-4.2396 -26.5603 -2.5822 0.8976
-3.2953 -26.8279 -2.5950 0.8971
0.6020 -27.3015 -2.6217 0.8961
1.5853 -27.2481 -2.6204 0.8961
3.5348 -26.9853 -2.6129 0.8964
6.3817 -26.2545 -2.5940 0.8971
7.3010 -25.9246 -2.5857 0.8974
11.5942 -23.7078 -2.5337 0.8994
12.3842 -23.1670 -2.5220 0.8998
13.1480 -22.5962 -2.5099 0.9003
14.6222 -21.4140 -2.4894 0.9010
15.3169 -20.7806 -2.4784 0.9015
15.9886 -20.1297 -2.4680 0.9019
16.6432 -19.4687 -2.4590 0.9022
18.4397 -17.3613 -2.4315 0.9032
19.0026 -16.6403 -2.4250 0.9035
19.5357 -15.8999 -2.4182 0.9037
20.4940 -14.3547 -2.4022 0.9043
21.5540 -11.8540 -2.3616 0.9059
22.3142 -10.2523 -2.3576 0.9060
23.3086 -9.7072 -2.4240 0.9035
25.0782 -7.3860 -2.5099 0.9003
25.3290 -6.4771 -2.5100 0.9003
25.5468 -5.5597 -2.5100 0.9003
25.7313 -4.6350 -2.5101 0.9003
25.8823 -3.7043 -2.5101 0.9003
26.0825 -1.8293 -2.5102 0.9003
26.1317 -0.8876 -2.5102 0.9003
26.1277 0.9980 -2.5102 0.9003
26.0746 1.9395 -2.5102 0.9003
25.9874 2.8784 -2.5102 0.9003
25.8663 3.8135 -2.5101 0.9003
25.7114 4.7437 -2.5101 0.9003
23.5383 7.0407 -2.3587 0.9060
22.6702 9.5539 -2.3618 0.9059
21.9177 11.1604 -2.3613 0.9059
21.4986 11.9421 -2.3610 0.9059
21.0515 12.7081 -2.3607 0.9059
20.5771 13.4572 -2.3605 0.9059
19.5488 14.9015 -2.3599 0.9059
18.4193 16.2675 -2.3593 0.9060
17.8184 16.9188 -2.3589 0.9060
17.1944 17.5480 -2.3586 0.9060
15.8807 18.7365 -2.3580 0.9060
-13.8079 -14.1996 -2.3527 0.9233
-12.8222 -15.2452 -2.3663 0.9229
-12.3053 -15.7504 -2.3742 0.9226
-11.7733 -16.2443 -2.3831 0.9224
-11.2212 -16.7200 -2.3919 0.9221
-10.0638 -17.6197 -2.4103 0.9215
-9.4558 -18.0357 -2.4190 0.9212
-8.8288 -18.4266 -2.4271 0.9210
-8.1852 -18.7939 -2.4350 0.9207
-7.5245 -19.1335 -2.4422 0.9205
-6.8480 -19.4446 -2.4488 0.9203
-6.1572 -19.7262 -2.4547 0.9201
-5.4534 -19.9776 -2.4599 0.9200
-4.7381 -20.1978 -2.4644 0.9198
-3.2791 -20.5428 -2.4711 0.9196
-2.5385 -20.6665 -2.4733 0.9195
-1.0434 -20.8154 -2.4757 0.9195
0.4595 -20.8370 -2.4757 0.9195
1.2100 -20.7983 -2.4747 0.9195
2.7013 -20.6226 -2.4706 0.9196
3.4389 -20.4862 -2.4675 0.9197
4.1702 -20.3238 -2.4645 0.9198
7.0052 -19.3924 -2.4492 0.9203
7.6837 -19.0872 -2.4441 0.9205
12.0478 -16.3454 -2.4120 0.9215
12.6085 -15.8740 -2.4080 0.9216
14.1602 -14.3299 -2.3930 0.9221
15.8669 -11.9892 -2.3623 0.9230
16.2635 -11.3915 -2.3586 0.9231
16.6533 -10.7910 -2.3572 0.9232
20.0271 -6.6921 -2.5082 0.9185
20.2560 -5.9658 -2.5083 0.9185
20.6343 -4.4906 -2.5084 0.9185
20.7832 -3.7437 -2.5085 0.9185
20.9050 -2.9919 -2.5085 0.9185
21.0667 -1.4775 -2.5086 0.9185
21.1064 -0.7169 -2.5086 0.9184
21.1185 0.0446 -2.5086 0.9184
21.0602 1.5665 -2.5086 0.9185
20.9899 2.3249 -2.5085 0.9185
20.7671 3.8315 -2.5085 0.9185
20.4361 5.3180 -2.5084 0.9185
18.7803 6.3638 -2.3554 0.9232
18.5518 7.0418 -2.3571 0.9232
18.2990 7.7118 -2.3588 0.9231
17.3686 9.6480 -2.3601 0.9231
16.2204 11.4638 -2.3594 0.9231
15.3489 12.6004 -2.3589 0.9231
13.8940 14.1797 -2.3582 0.9231
13.3723 14.6699 -2.3579 0.9232
12.2775 15.5921 -2.3574 0.9232
-11.5686 -11.8967 -2.3512 0.9352
-11.1701 -12.3479 -2.3592 0.9349
-9.7728 -13.4841 -2.3596 0.9349
-9.2793 -13.8264 -2.3594 0.9349
-8.7741 -14.1510 -2.3592 0.9349
-8.2755 -14.4887 -2.3642 0.9348
-7.7605 -14.8021 -2.3681 0.9347
-7.2331 -15.0962 -2.3718 0.9346
-6.1444 -15.6241 -2.3788 0.9344
-5.0188 -16.0791 -2.3866 0.9342
-4.4422 -16.2731 -2.3901 0.9341
-3.8575 -16.4441 -2.3932 0.9340
-2.6682 -16.7158 -2.3984 0.9339
-2.0655 -16.8158 -2.4005 0.9338
-0.8493 -16.9431 -2.4037 0.9338
-0.2379 -16.9700 -2.4047 0.9337
0.3743 -16.9723 -2.4054 0.9337
0.9862 -16.9500 -2.4057 0.9337
3.4094 -16.6157 -2.4033 0.9338
4.0038 -16.4717 -2.4018 0.9338
5.1766 -16.1281 -2.4000 0.9339
7.4215 -15.1754 -2.3935 0.9340
8.4795 -14.5729 -2.3889 0.9342
10.4714 -13.1836 -2.3855 0.9342
10.9105 -12.7628 -2.3791 0.9344
11.3124 -12.3054 -2.3683 0.9347
11.6992 -11.8393 -2.3583 0.9350
12.5109 -10.9556 -2.3563 0.9350
13.2552 -10.0158 -2.3540 0.9351
13.8649 -9.7115 -2.3985 0.9339
15.5023 -8.5257 -2.5068 0.9310
16.0776 -7.3869 -2.5070 0.9310
16.5692 -6.2094 -2.5071 0.9310
16.7828 -5.6080 -2.5072 0.9310
17.2914 -3.7631 -2.5073 0.9310
17.4161 -3.1372 -2.5074 0.9310
17.5181 -2.5072 -2.5074 0.9310
17.6536 -1.2382 -2.5075 0.9310
17.6868 -0.6008 -2.5075 0.9310
17.6841 0.6755 -2.5075 0.9310
17.5892 1.9482 -2.5074 0.9310
17.5074 2.5812 -2.5074 0.9310
17.4027 3.2107 -2.5074 0.9310
17.2753 3.8361 -2.5073 0.9310
16.3297 6.1983 -2.4748 0.9319
15.0793 7.0055 -2.3559 0.9350
14.8254 7.5491 -2.3572 0.9350
14.5518 8.0833 -2.3586 0.9350
14.2550 8.6052 -2.3593 0.9349
13.5955 9.6086 -2.3589 0.9350
13.2390 10.0917 -2.3587 0.9350
11.6465 11.8860 -2.3578 0.9350
11.2093 12.2971 -2.3576 0.9350
10.7576 12.6922 -2.3574 0.9350
-9.9321 -10.2138 -2.3470 0.9439
-9.5617 -10.5701 -2.3481 0.9439
-9.1784 -10.9129 -2.3491 0.9438
-8.3751 -11.5557 -2.3511 0.9438
-7.9561 -11.8549 -2.3520 0.9438
-6.6661 -12.7144 -2.3650 0.9435
-6.2043 -12.9489 -2.3654 0.9435
-5.7335 -13.1646 -2.3655 0.9435
-5.2553 -13.3634 -2.3656 0.9434
-4.7704 -13.5451 -2.3658 0.9434
-4.2792 -13.7095 -2.3660 0.9434
-2.7748 -14.0971 -2.3669 0.9434
-2.2663 -14.1964 -2.3683 0.9434
-1.2390 -14.3461 -2.3722 0.9433
-0.7213 -14.3901 -2.3736 0.9433
-0.2022 -14.4134 -2.3747 0.9432
0.3178 -14.4159 -2.3754 0.9432
0.8376 -14.3976 -2.3759 0.9432
1.3562 -14.3585 -2.3759 0.9432
1.8730 -14.2986 -2.3757 0.9432
2.8966 -14.1167 -2.3740 0.9433
4.9040 -13.5757 -2.3779 0.9432
5.3927 -13.3961 -2.3790 0.9431
6.3484 -12.9806 -2.3804 0.9431
6.8016 -12.7238 -2.3768 0.9432
7.2356 -12.4351 -2.3701 0.9433
7.6561 -12.1295 -2.3630 0.9435
9.6714 -10.5203 -2.3542 0.9437
10.0409 -10.1611 -2.3533 0.9437
11.7961 -9.6007 -2.5056 0.9402
13.0560 -7.8064 -2.5060 0.9402
13.5856 -6.8456 -2.5061 0.9402
13.8240 -6.3515 -2.5062 0.9402
14.4302 -4.8219 -2.5064 0.9402
14.5950 -4.2985 -2.5065 0.9402
14.9746 -2.6974 -2.5066 0.9402
15.1787 -1.0646 -2.5067 0.9402
15.2073 -0.5166 -2.5067 0.9402
15.2160 0.0322 -2.5067 0.9402
15.1234 1.6751 -2.5066 0.9402
14.9630 2.7606 -2.5066 0.9402
14.7247 3.8317 -2.5065 0.9402
14.2239 5.3990 -2.5064 0.9402
12.7321 6.4831 -2.3537 0.9437
12.4961 6.9414 -2.3549 0.9437
12.2435 7.3910 -2.3560 0.9437
11.6896 8.2616 -2.3581 0.9436
11.0638 9.0826 -2.3581 0.9436
10.3788 9.8549 -2.3578 0.9436
9.6401 10.5756 -2.3574 0.9436
9.2518 10.9155 -2.3572 0.9436
8.8514 11.2411 -2.3570 0.9436
-9.2678 -9.5307 -2.4987 0.9473
-8.1691 -9.7129 -2.3855 0.9497
-7.6870 -9.8390 -2.3468 0.9505
-5.8069 -11.0760 -2.3506 0.9504
-5.4053 -11.2815 -2.3513 0.9504
-4.9964 -11.4721 -2.3520 0.9503
-3.7336 -11.9616 -2.3553 0.9503
-3.3050 -12.1068 -2.3589 0.9502
-2.4299 -12.3445 -2.3648 0.9501
-1.9851 -12.4363 -2.3671 0.9500
-1.5366 -12.5098 -2.3690 0.9500
0.2782 -12.6174 -2.3722 0.9499
1.1863 -12.5588 -2.3711 0.9500
2.0858 -12.4256 -2.3682 0.9500
2.9700 -12.2191 -2.3636 0.9501
3.8327 -11.9412 -2.3573 0.9502
4.2582 -11.7879 -2.3558 0.9503
4.6799 -11.6253 -2.3555 0.9503
7.0588 -10.3375 -2.3528 0.9503
7.4252 -10.0738 -2.3523 0.9503
9.3667 -9.4789 -2.5048 0.9472
10.0275 -8.7799 -2.5050 0.9472
10.6339 -8.0351 -2.5052 0.9472
11.4406 -6.8405 -2.5055 0.9472
11.9046 -5.9985 -2.5056 0.9472
12.1135 -5.5655 -2.5057 0.9472
12.6445 -4.2252 -2.5058 0.9472
12.7888 -3.7666 -2.5059 0.9472
12.9166 -3.3030 -2.5059 0.9472
13.3002 -0.9328 -2.5061 0.9472
13.1901 1.9447 -2.5060 0.9472
13.1112 2.4190 -2.5060 0.9472
13.0153 2.8902 -2.5060 0.9472
12.7728 3.8205 -2.5059 0.9472
12.2848 5.1772 -2.5057 0.9472
11.8791 6.0488 -2.5056 0.9472
10.7174 6.4697 -2.3530 0.9503
10.4814 6.8547 -2.3540 0.9503
9.9678 7.5982 -2.3558 0.9503
9.6908 7.9556 -2.3567 0.9502
9.4010 8.3028 -2.3575 0.9502
9.0958 8.6366 -2.3576 0.9502
-8.2421 -8.4759 -2.4991 0.9528
-7.6105 -9.0486 -2.4993 0.9528
-6.5083 -9.6975 -2.4687 0.9534
-5.5499 -9.7167 -2.3653 0.9553
-5.1571 -9.8365 -2.3477 0.9556
-4.4367 -10.1871 -2.3487 0.9556
-4.0674 -10.3428 -2.3492 0.9556
-3.6926 -10.4849 -2.3497 0.9556
-3.3128 -10.6134 -2.3502 0.9556
-2.5402 -10.8283 -2.3510 0.9555
-1.3565 -11.0438 -2.3520 0.9555
-0.5572 -11.1150 -2.3524 0.9555
-0.1560 -11.1287 -2.3526 0.9555
0.2454 -11.1276 -2.3527 0.9555
0.6465 -11.1120 -2.3528 0.9555
3.7805 -10.4655 -2.3521 0.9555
4.1549 -10.3212 -2.3519 0.9555
4.5238 -10.1634 -2.3516 0.9555
4.8867 -9.9922 -2.3512 0.9555
5.2434 -9.8088 -2.3510 0.9555
7.6982 -9.0051 -2.5042 0.9527
8.0182 -8.7220 -2.5043 0.9527
8.3278 -8.4276 -2.5044 0.9527
8.9142 -7.8060 -2.5046 0.9527
9.1902 -7.4798 -2.5047 0.9527
9.7060 -6.7985 -2.5049 0.9527
9.9452 -6.4443 -2.5050 0.9527
10.1714 -6.0817 -2.5050 0.9527
10.5838 -5.3330 -2.5052 0.9527
10.7695 -4.9480 -2.5052 0.9527
10.9412 -4.5566 -2.5053 0.9527
11.3699 -3.3486 -2.5054 0.9527
11.4834 -2.9365 -2.5055 0.9527
11.6654 -2.1013 -2.5055 0.9527
11.7867 -1.2551 -2.5056 0.9527
11.8466 -0.4024 -2.5056 0.9527
11.8448 0.4524 -2.5056 0.9527
11.7813 1.3049 -2.5056 0.9527
11.7265 1.7289 -2.5055 0.9527
11.4709 2.9850 -2.5055 0.9527
11.3556 3.3966 -2.5054 0.9527
11.0809 4.2061 -2.5053 0.9527
10.9218 4.6028 -2.5053 0.9527
10.7485 4.9935 -2.5052 0.9527
9.0881 6.4230 -2.3524 0.9555
8.8536 6.7488 -2.3532 0.9555
8.6072 7.0660 -2.3539 0.9555
8.3495 7.3741 -2.3547 0.9555
7.8009 7.9613 -2.3561 0.9555
-7.1343 -7.8867 -2.4994 0.9572
-6.8455 -8.1392 -2.4995 0.9572
-6.2416 -8.6120 -2.4997 0.9572
-5.9273 -8.8319 -2.4998 0.9572
-4.5968 -9.5939 -2.5002 0.9572
-3.0315 -9.7121 -2.3912 0.9591
-1.5753 -9.8691 -2.3488 0.9598
-1.2185 -9.9204 -2.3490 0.9598
0.5807 -9.9812 -2.3498 0.9598
0.9403 -9.9540 -2.3498 0.9597
1.2986 -9.9136 -2.3498 0.9597
2.3649 -9.7293 -2.3532 0.9597
2.7362 -9.7158 -2.3723 0.9594
3.1170 -9.7113 -2.3971 0.9590
5.0215 -9.3937 -2.5034 0.9572
7.7579 -7.3042 -2.5043 0.9572
8.0165 -7.0200 -2.5043 0.9572
8.2647 -6.7266 -2.5044 0.9572
8.5022 -6.4243 -2.5045 0.9572
8.7285 -6.1138 -2.5046 0.9572
8.9436 -5.7952 -2.5046 0.9572
9.1469 -5.4691 -2.5047 0.9572
9.3384 -5.1358 -2.5048 0.9572
9.9806 -3.7402 -2.5050 0.9571
10.1092 -3.3780 -2.5050 0.9571
10.2245 -3.0113 -2.5051 0.9571
10.6332 -0.7458 -2.5052 0.9571
10.6594 0.0225 -2.5052 0.9571
10.6516 0.4069 -2.5052 0.9571
10.5945 1.1735 -2.5052 0.9571
10.5452 1.5547 -2.5052 0.9571
10.4822 1.9339 -2.5051 0.9571
10.3154 2.6843 -2.5051 0.9571
10.0948 3.4207 -2.5050 0.9571
9.8217 4.1391 -2.5049 0.9572
9.3166 5.1752 -2.5048 0.9572
8.9190 5.8329 -2.5046 0.9572
8.7026 6.1506 -2.5046 0.9572
8.1469 6.2102 -2.4076 0.9588
7.7345 6.3495 -2.3518 0.9597
7.2604 6.8939 -2.3530 0.9597
7.0090 7.1531 -2.3537 0.9597
6.7481 7.4030 -2.3542 0.9597
-6.7302 -6.9211 -2.4996 0.9609
-5.0883 -8.2064 -2.5001 0.9609
-4.7892 -8.3849 -2.5002 0.9609
-4.1728 -8.7090 -2.5004 0.9609
-3.8562 -8.8541 -2.5005 0.9609
-3.5346 -8.9878 -2.5006 0.9609
-2.8779 -9.2200 -2.5008 0.9609
-2.5436 -9.3181 -2.5009 0.9609
-2.2061 -9.4042 -2.5010 0.9609
-1.1778 -9.5888 -2.5014 0.9609
-0.1354 -9.6612 -2.5017 0.9609
0.2130 -9.6602 -2.5018 0.9609
1.2551 -9.5820 -2.5021 0.9609
2.6201 -9.3037 -2.5026 0.9608
3.2841 -9.0914 -2.5028 0.9608
3.6100 -8.9675 -2.5029 0.9608
3.9311 -8.8318 -2.5030 0.9608
4.5578 -8.5262 -2.5032 0.9608
4.8625 -8.3567 -2.5033 0.9608
5.1608 -8.1762 -2.5034 0.9608
6.0143 -7.5719 -2.5037 0.9608
6.2836 -7.3504 -2.5038 0.9608
6.7975 -6.8789 -2.5039 0.9608
7.9222 -5.5490 -2.5043 0.9608
8.1173 -5.2598 -2.5044 0.9608
8.4757 -4.6613 -2.5045 0.9608
8.6384 -4.3528 -2.5045 0.9608
9.1751 -3.0659 -2.5047 0.9608
9.4529 -2.0572 -2.5048 0.9608
9.5210 -1.7150 -2.5048 0.9608
9.6200 -1.0244 -2.5049 0.9608
9.6688 -0.3284 -2.5049 0.9608
9.6674 0.3693 -2.5049 0.9608
9.5708 1.4111 -2.5048 0.9608
9.3622 2.4363 -2.5048 0.9608
9.0440 3.4329 -2.5047 0.9608
8.9142 3.7567 -2.5046 0.9608
8.7728 4.0756 -2.5046 0.9608
8.0950 5.2941 -2.5044 0.9608
7.8986 5.5824 -2.5043 0.9608
6.1201 6.7140 -2.3522 0.9632
5.6226 7.1405 -2.3532 0.9631
-6.1559 -6.3305 -2.4997 0.9640
-5.1825 -7.1507 -2.5001 0.9640
-4.3804 -7.6693 -2.5003 0.9639
-3.8166 -7.9656 -2.5005 0.9639
-3.5270 -8.0984 -2.5006 0.9639
-2.3265 -8.5227 -2.5010 0.9639
-1.7063 -8.6688 -2.5012 0.9639
-1.3927 -8.7251 -2.5013 0.9639
-1.0770 -8.7700 -2.5014 0.9639
-0.4424 -8.8256 -2.5016 0.9639
-0.1239 -8.8361 -2.5017 0.9639
1.1481 -8.7636 -2.5021 0.9639
1.4633 -8.7169 -2.5022 0.9639
1.7767 -8.6588 -2.5023 0.9639
3.0036 -8.3147 -2.5027 0.9639
3.5953 -8.0773 -2.5029 0.9639
4.4470 -7.6426 -2.5032 0.9639
4.9866 -7.3028 -2.5034 0.9639
5.2468 -7.1185 -2.5034 0.9639
5.5003 -6.9249 -2.5035 0.9639
5.9854 -6.5108 -2.5037 0.9639
6.2165 -6.2910 -2.5038 0.9639
6.4395 -6.0629 -2.5038 0.9639
6.6541 -5.8269 -2.5039 0.9639
7.0571 -5.3325 -2.5040 0.9639
7.7512 -4.2629 -2.5043 0.9639
8.2841 -3.1045 -2.5044 0.9639
8.5712 -2.1918 -2.5045 0.9639
8.7580 -1.2534 -2.5046 0.9639
8.8473 0.0187 -2.5046 0.9639
8.8229 0.6563 -2.5046 0.9639
8.7526 1.2904 -2.5046 0.9639
8.6367 1.9179 -2.5045 0.9639
8.5618 2.2280 -2.5045 0.9639
8.0228 3.7272 -2.5043 0.9639
7.8831 4.0140 -2.5043 0.9639
7.4031 4.8416 -2.5041 0.9639
7.2235 5.1052 -2.5041 0.9639
6.8364 5.6123 -2.5040 0.9639
6.4138 6.0900 -2.5038 0.9639
-5.6662 -5.8269 -2.4999 0.9666
-5.2318 -6.2205 -2.5000 0.9666
-5.0043 -6.4053 -2.5001 0.9666
-4.7702 -6.5818 -2.5002 0.9666
-4.5299 -6.7497 -2.5003 0.9666
-4.2837 -6.9089 -2.5003 0.9666
-4.0319 -7.0591 -2.5004 0.9666
-3.5129 -7.3318 -2.5006 0.9665
-3.2464 -7.4540 -2.5007 0.9665
-2.1413 -7.8444 -2.5010 0.9665
-1.8572 -7.9168 -2.5011 0.9665
-1.2819 -8.0306 -2.5013 0.9665
-0.9915 -8.0719 -2.5014 0.9665
-0.6998 -8.1028 -2.5015 0.9665
-0.4072 -8.1230 -2.5016 0.9665
0.1793 -8.1319 -2.5018 0.9665
0.4724 -8.1204 -2.5019 0.9665
0.7650 -8.0984 -2.5020 0.9665
1.6352 -7.9694 -2.5023 0.9665
1.9216 -7.9055 -2.5024 0.9665
2.4865 -7.7470 -2.5025 0.9665
2.7644 -7.6526 -2.5026 0.9665
3.3089 -7.4340 -2.5028 0.9665
4.8289 -6.5514 -2.5033 0.9665
5.0621 -6.3732 -2.5034 0.9665
5.5086 -5.9922 -2.5035 0.9665
6.1240 -5.3627 -2.5037 0.9665
6.3135 -5.1385 -2.5038 0.9665
6.4949 -4.9076 -2.5038 0.9665
7.1335 -3.9232 -2.5041 0.9665
7.2705 -3.6635 -2.5041 0.9665
7.3980 -3.3990 -2.5041 0.9665
7.5158 -3.1301 -2.5042 0.9665
7.8102 -2.3003 -2.5043 0.9665
8.0600 -1.1535 -2.5044 0.9665
8.0964 -0.8621 -2.5044 0.9665
8.1223 -0.5697 -2.5044 0.9665
8.1198 0.6040 -2.5044 0.9665
8.0927 0.8964 -2.5044 0.9665
8.0551 1.1876 -2.5044 0.9665
7.8796 2.0505 -2.5043 0.9665
7.8004 2.3332 -2.5043 0.9665
7.7111 2.6130 -2.5042 0.9665
7.6118 2.8893 -2.5042 0.9665
7.1169 3.9533 -2.5040 0.9665
6.9696 4.2073 -2.5040 0.9665
6.8132 4.4558 -2.5039 0.9665
6.2918 5.1651 -2.5038 0.9665
6.1013 5.3885 -2.5037 0.9665
5.9028 5.6048 -2.5037 0.9665
-5.2433 -5.3920 -2.5000 0.9688
-4.6307 -5.9272 -2.5002 0.9688
-3.9639 -6.3931 -2.5005 0.9688
-3.7309 -6.5321 -2.5005 0.9688
-3.2506 -6.7844 -2.5007 0.9688
-2.2418 -7.1822 -2.5010 0.9688
-1.9814 -7.2586 -2.5011 0.9688
-1.7185 -7.3256 -2.5012 0.9688
-1.1861 -7.4309 -2.5014 0.9688
-0.9174 -7.4691 -2.5014 0.9688
-0.3768 -7.5163 -2.5016 0.9688
0.4372 -7.5139 -2.5019 0.9688
1.2461 -7.4235 -2.5021 0.9688
1.7781 -7.3149 -2.5023 0.9688
2.0407 -7.2463 -2.5024 0.9688
2.3008 -7.1682 -2.5025 0.9688
2.8116 -6.9842 -2.5027 0.9688
3.5497 -6.6404 -2.5029 0.9688
4.2464 -6.2188 -2.5031 0.9688
4.6838 -5.8969 -2.5033 0.9688
5.0969 -5.5443 -2.5034 0.9688
5.2937 -5.3570 -2.5035 0.9688
5.6663 -4.9619 -2.5036 0.9688
5.8416 -4.7544 -2.5036 0.9688
6.4650 -3.8655 -2.5038 0.9687
6.7270 -3.3896 -2.5039 0.9687
6.8449 -3.1449 -2.5040 0.9687
7.2984 -1.8663 -2.5041 0.9687
7.3611 -1.6020 -2.5041 0.9687
7.5150 -0.5271 -2.5042 0.9687
7.5335 0.0159 -2.5042 0.9687
7.5127 0.5588 -2.5042 0.9687
7.4877 0.8294 -2.5042 0.9687
7.4529 1.0988 -2.5042 0.9687
7.2905 1.8972 -2.5041 0.9687
7.1346 2.4176 -2.5041 0.9687
7.0427 2.6733 -2.5040 0.9687
6.9417 2.9255 -2.5040 0.9687
6.4486 3.8928 -2.5038 0.9687
6.3039 4.1227 -2.5038 0.9687
6.1510 4.3473 -2.5037 0.9687
5.9902 4.5661 -2.5037 0.9687
5.6452 4.9858 -2.5036 0.9688
5.2710 5.3794 -2.5034 0.9688
4.6589 5.9167 -2.5032 0.9688
-4.6902 -5.1849 -2.5002 0.9707
-4.5003 -5.3507 -2.5003 0.9707
-4.1032 -5.6615 -2.5004 0.9707
-3.8965 -5.8059 -2.5005 0.9707
-3.6847 -5.9428 -2.5005 0.9707
-3.4681 -6.0720 -2.5006 0.9707
-2.7924 -6.4115 -2.5008 0.9707
-2.3232 -6.5965 -2.5010 0.9707
-1.8418 -6.7472 -2.5011 0.9707
-1.5974 -6.8095 -2.5012 0.9707
-1.3508 -6.8629 -2.5013 0.9707
-1.1025 -6.9073 -2.5014 0.9707
-0.8528 -6.9428 -2.5015 0.9707
-0.3502 -6.9867 -2.5016 0.9707
-0.0981 -6.9950 -2.5017 0.9707
0.4063 -6.9843 -2.5019 0.9707
0.6579 -6.9653 -2.5020 0.9707
1.4064 -6.8542 -2.5022 0.9707
1.6527 -6.7993 -2.5023 0.9707
2.6134 -6.4918 -2.5026 0.9707
2.8458 -6.3936 -2.5027 0.9707
3.0746 -6.2870 -2.5027 0.9707
3.2994 -6.1722 -2.5028 0.9707
3.7359 -5.9187 -2.5030 0.9707
3.9470 -5.7803 -2.5030 0.9707
4.5485 -5.3207 -2.5032 0.9707
4.7375 -5.1534 -2.5033 0.9707
4.9204 -4.9793 -2.5033 0.9707
5.0968 -4.7987 -2.5034 0.9707
5.5856 -4.2205 -2.5036 0.9707
6.1348 -3.3739 -2.5037 0.9707
6.2525 -3.1505 -2.5038 0.9707
6.3622 -2.9231 -2.5038 0.9707
6.8418 -1.4890 -2.5040 0.9707
6.8911 -1.2413 -2.5040 0.9707
6.9314 -0.9920 -2.5040 0.9707
6.9627 -0.7414 -2.5040 0.9707
6.9970 0.2673 -2.5040 0.9707
6.9828 0.5194 -2.5040 0.9707
6.7763 1.7634 -2.5039 0.9707
6.7082 2.0065 -2.5039 0.9707
6.6314 2.2471 -2.5039 0.9707
6.5460 2.4847 -2.5039 0.9707
6.4521 2.7191 -2.5038 0.9707
6.3498 2.9500 -2.5038 0.9707
5.9938 3.6183 -2.5037 0.9707
5.2471 4.6341 -2.5034 0.9707
4.8993 5.0000 -2.5033 0.9707
4.7157 5.1733 -2.5033 0.9707
4.5260 5.3399 -2.5032 0.9707
-4.3769 -4.8385 -2.5003 0.9724
-4.1997 -4.9933 -2.5004 0.9724
-4.0170 -5.1417 -2.5004 0.9724
-3.8291 -5.2833 -2.5005 0.9724
-3.4386 -5.5458 -2.5006 0.9724
-3.2364 -5.6663 -2.5007 0.9724
-2.3884 -6.0734 -2.5010 0.9724
-1.9446 -6.2301 -2.5011 0.9724
-1.4907 -6.3545 -2.5013 0.9724
-0.5617 -6.5035 -2.5016 0.9724
-0.0915 -6.5275 -2.5017 0.9724
0.8480 -6.4736 -2.5020 0.9724
1.0809 -6.4391 -2.5021 0.9724
1.7701 -6.2852 -2.5023 0.9724
1.9956 -6.2175 -2.5024 0.9724
2.2186 -6.1417 -2.5025 0.9724
2.4387 -6.0579 -2.5025 0.9724
2.6556 -5.9662 -2.5026 0.9724
2.8691 -5.8667 -2.5027 0.9724
3.2846 -5.6449 -2.5028 0.9724
3.4861 -5.5230 -2.5029 0.9724
3.6831 -5.3938 -2.5029 0.9724
3.8753 -5.2576 -2.5030 0.9724
4.0625 -5.1146 -2.5031 0.9724
4.4207 -4.8088 -2.5032 0.9724
4.5913 -4.6463 -2.5032 0.9724
4.7560 -4.4778 -2.5033 0.9724
5.0665 -4.1236 -2.5034 0.9724
5.6071 -3.3526 -2.5036 0.9724
5.7245 -3.1483 -2.5036 0.9724
5.9366 -2.7276 -2.5037 0.9724
6.0312 -2.5118 -2.5037 0.9724
6.1179 -2.2927 -2.5037 0.9724
6.1967 -2.0706 -2.5037 0.9724
6.2674 -1.8459 -2.5038 0.9724
6.3842 -1.3894 -2.5038 0.9724
6.4678 -0.9257 -2.5038 0.9724
6.4970 -0.6918 -2.5038 0.9724
6.5338 0.0138 -2.5039 0.9724
6.5157 0.4846 -2.5039 0.9724
6.4940 0.7193 -2.5038 0.9724
6.2595 1.8723 -2.5038 0.9724
6.1879 2.0968 -2.5037 0.9724
6.1082 2.3185 -2.5037 0.9724
6.0205 2.5372 -2.5037 0.9724
5.9251 2.7527 -2.5037 0.9724
5.7111 3.1725 -2.5036 0.9724
4.8962 4.3242 -2.5033 0.9724
4.5717 4.6657 -2.5032 0.9724
4.4003 4.8274 -2.5032 0.9724
4.2233 4.9828 -2.5031 0.9724
4.0408 5.1317 -2.5030 0.9724
-3.0305 -5.3057 -2.5008 0.9739
-2.8372 -5.4117 -2.5008 0.9739
-2.6403 -5.5106 -2.5009 0.9739
-2.0300 -5.7640 -2.5011 0.9739
-0.9634 -6.0355 -2.5014 0.9739
-0.5259 -6.0895 -2.5016 0.9739
-0.3060 -6.1047 -2.5016 0.9739
0.1348 -6.1112 -2.5018 0.9739
0.3550 -6.1025 -2.5019 0.9739
1.0121 -6.0290 -2.5021 0.9739
1.2288 -5.9888 -2.5021 0.9739
1.6574 -5.8850 -2.5023 0.9739
1.8685 -5.8216 -2.5023 0.9739
2.0773 -5.7506 -2.5024 0.9739
2.2834 -5.6721 -2.5025 0.9739
2.6863 -5.4930 -2.5026 0.9739
3.0754 -5.2854 -2.5027 0.9739
3.2641 -5.1712 -2.5028 0.9739
3.9740 -4.6486 -2.5030 0.9739
4.4530 -4.1926 -2.5032 0.9739
4.7438 -3.8609 -2.5033 0.9739
5.1332 -3.3262 -2.5034 0.9739
5.4626 -2.7526 -2.5035 0.9739
5.5584 -2.5538 -2.5035 0.9739
5.6469 -2.3517 -2.5036 0.9739
5.7281 -2.1466 -2.5036 0.9739
5.8019 -1.9387 -2.5036 0.9739
5.8681 -1.7282 -2.5036 0.9739
6.0205 -1.0845 -2.5037 0.9739
6.0557 -0.8667 -2.5037 0.9739
6.0830 -0.6477 -2.5037 0.9739
6.1139 -0.2077 -2.5037 0.9739
6.1174 0.0129 -2.5037 0.9739
6.1130 0.2335 -2.5037 0.9739
6.1006 0.4538 -2.5037 0.9739
6.0803 0.6735 -2.5037 0.9739
6.0158 1.1099 -2.5037 0.9739
5.9719 1.3261 -2.5037 0.9739
5.9201 1.5406 -2.5037 0.9739
5.8607 1.7530 -2.5036 0.9739
5.7190 2.1708 -2.5036 0.9739
5.4510 2.7756 -2.5035 0.9739
5.2366 3.1612 -2.5034 0.9739
5.1191 3.3479 -2.5034 0.9739
4.9950 3.5302 -2.5034 0.9739
4.8644 3.7080 -2.5033 0.9739
4.5843 4.0488 -2.5032 0.9739
4.4353 4.2114 -2.5032 0.9739
4.2804 4.3685 -2.5031 0.9739
3.9543 4.6654 -2.5030 0.9739
-3.9998 -4.1133 -2.5004 0.9753
-3.6931 -4.3910 -2.5005 0.9753
-3.5324 -4.5214 -2.5006 0.9753
-2.8460 -4.9827 -2.5008 0.9753
-2.6645 -5.0822 -2.5009 0.9753
-1.9064 -5.4130 -2.5011 0.9753
-1.7100 -5.4784 -2.5012 0.9753
-1.3108 -5.5876 -2.5013 0.9753
-0.9047 -5.6679 -2.5014 0.9753
-0.4939 -5.7187 -2.5016 0.9753
-0.2874 -5.7329 -2.5016 0.9753
0.1266 -5.7390 -2.5018 0.9753
0.5399 -5.7153 -2.5019 0.9753
1.7547 -5.4669 -2.5023 0.9753
1.9508 -5.4003 -2.5024 0.9753
2.1443 -5.3265 -2.5024 0.9753
2.3350 -5.2459 -2.5025 0.9753
2.7071 -5.0642 -2.5026 0.9753
2.8880 -4.9634 -2.5027 0.9753
3.0652 -4.8561 -2.5027 0.9753
3.2384 -4.7426 -2.5028 0.9753
3.7318 -4.3654 -2.5029 0.9753
4.0369 -4.0853 -2.5030 0.9753
4.1817 -3.9371 -2.5031 0.9753
4.5826 -3.4627 -2.5032 0.9752
4.7046 -3.2952 -2.5033 0.9752
5.0331 -2.7681 -2.5034 0.9752
5.3790 -2.0158 -2.5035 0.9752
5.5654 -1.4232 -2.5035 0.9752
5.6131 -1.2216 -2.5036 0.9752
5.6536 -1.0184 -2.5036 0.9752
5.6866 -0.8139 -2.5036 0.9752
5.7123 -0.6083 -2.5036 0.9752
5.7305 -0.4019 -2.5036 0.9752
5.7404 0.2193 -2.5036 0.9752
5.7097 0.6324 -2.5036 0.9752
5.6831 0.8379 -2.5036 0.9752
5.6492 1.0423 -2.5036 0.9752
5.6079 1.2453 -2.5036 0.9752
5.5593 1.4467 -2.5035 0.9752
5.5035 1.6462 -2.5035 0.9752
5.4405 1.8435 -2.5035 0.9752
5.3705 2.0385 -2.5035 0.9752
5.2934 2.2308 -2.5035 0.9752
5.0214 2.7893 -2.5034 0.9752
4.9175 2.9685 -2.5033 0.9752
4.8072 3.1439 -2.5033 0.9752
4.6906 3.3151 -2.5033 0.9752
4.4393 3.6444 -2.5032 0.9753
4.1650 3.9547 -2.5031 0.9753
4.0196 4.1023 -2.5030 0.9753
3.8690 4.2444 -2.5030 0.9753
3.5529 4.5121 -2.5029 0.9753
-3.3260 -4.2571 -2.5007 0.9765
-3.1704 -4.3744 -2.5007 0.9765
-3.0106 -4.4859 -2.5008 0.9765
-2.6796 -4.6914 -2.5009 0.9765
-2.3346 -4.8726 -2.5010 0.9765
-2.1575 -4.9537 -2.5010 0.9765
-1.7949 -5.0966 -2.5012 0.9765
-1.0436 -5.3022 -2.5014 0.9765
-0.8518 -5.3365 -2.5015 0.9765
-0.4650 -5.3843 -2.5016 0.9765
-0.0758 -5.4040 -2.5017 0.9765
0.3139 -5.3958 -2.5018 0.9765
0.8948 -5.3307 -2.5020 0.9765
1.8366 -5.0844 -2.5023 0.9765
2.0188 -5.0150 -2.5024 0.9765
2.5488 -4.7680 -2.5026 0.9765
3.5135 -4.1100 -2.5029 0.9764
3.8007 -3.8462 -2.5030 0.9764
3.9370 -3.7068 -2.5030 0.9764
4.4293 -3.1024 -2.5032 0.9764
4.5384 -2.9408 -2.5032 0.9764
4.8296 -2.4335 -2.5033 0.9764
4.9142 -2.2579 -2.5033 0.9764
4.9925 -2.0792 -2.5034 0.9764
5.0643 -1.8979 -2.5034 0.9764
5.1294 -1.7140 -2.5034 0.9764
5.2397 -1.3399 -2.5034 0.9764
5.2847 -1.1501 -2.5035 0.9764
5.3227 -0.9588 -2.5035 0.9764
5.3539 -0.7662 -2.5035 0.9764
5.3780 -0.5727 -2.5035 0.9764
5.4084 0.0114 -2.5035 0.9764
5.4045 0.2064 -2.5035 0.9764
5.3936 0.4012 -2.5035 0.9764
5.3506 0.7889 -2.5035 0.9764
5.1222 1.7357 -2.5034 0.9764
4.9047 2.2786 -2.5033 0.9764
4.8192 2.4540 -2.5033 0.9764
4.7276 2.6261 -2.5033 0.9764
4.1796 3.4312 -2.5031 0.9764
4.0531 3.5796 -2.5031 0.9764
3.9213 3.7234 -2.5030 0.9764
3.7844 3.8623 -2.5030 0.9764
-3.5539 -3.6547 -2.5006 0.9775
-3.4199 -3.7806 -2.5006 0.9775
-3.1386 -4.0173 -2.5007 0.9775
-2.9918 -4.1280 -2.5008 0.9775
-2.6866 -4.3330 -2.5009 0.9775
-2.5287 -4.4272 -2.5009 0.9775
-2.3674 -4.5156 -2.5010 0.9775
-1.8661 -4.7451 -2.5011 0.9775
-1.1646 -4.9646 -2.5014 0.9775
-0.8038 -5.0358 -2.5015 0.9775
-0.6217 -5.0617 -2.5015 0.9775
-0.2553 -5.0936 -2.5017 0.9775
0.1124 -5.0990 -2.5018 0.9775
0.2962 -5.0917 -2.5018 0.9775
1.5590 -4.8571 -2.5022 0.9775
1.7331 -4.7978 -2.5023 0.9775
2.2413 -4.5829 -2.5025 0.9775
2.4051 -4.4992 -2.5025 0.9775
2.5658 -4.4097 -2.5026 0.9775
2.7232 -4.3144 -2.5026 0.9775
3.3155 -3.8783 -2.5028 0.9775
3.4532 -3.7563 -2.5029 0.9775
3.5865 -3.6294 -2.5029 0.9775
3.7151 -3.4978 -2.5029 0.9775
3.8389 -3.3616 -2.5030 0.9775
3.9576 -3.2211 -2.5030 0.9775
4.0713 -3.0763 -2.5031 0.9775
4.1796 -2.9275 -2.5031 0.9775
4.2825 -2.7750 -2.5031 0.9775
4.5573 -2.2964 -2.5032 0.9775
4.9867 -1.0852 -2.5034 0.9775
5.0520 -0.7231 -2.5034 0.9775
5.0910 -0.3571 -2.5034 0.9775
5.1006 -0.1733 -2.5034 0.9775
5.0895 0.3786 -2.5034 0.9775
5.0489 0.7444 -2.5034 0.9775
4.9821 1.1063 -2.5034 0.9775
4.8893 1.4625 -2.5033 0.9775
4.7027 1.9819 -2.5033 0.9775
4.5476 2.3156 -2.5032 0.9775
4.4610 2.4781 -2.5032 0.9775
4.3687 2.6373 -2.5032 0.9775
4.1672 2.9452 -2.5031 0.9775
4.0582 3.0935 -2.5031 0.9775
3.9440 3.2378 -2.5030 0.9775
3.8246 3.3778 -2.5030 0.9775
3.7003 3.5135 -2.5029 0.9775
3.5711 3.6445 -2.5029 0.9775
3.4373 3.7709 -2.5029 0.9775
3.2990 3.8923 -2.5028 0.9775
-3.3604 -3.4557 -2.5006 0.9785
-2.9677 -3.7986 -2.5008 0.9785
-2.8289 -3.9032 -2.5008 0.9785
-2.6864 -4.0028 -2.5009 0.9785
-2.5403 -4.0971 -2.5009 0.9785
-2.2385 -4.2697 -2.5010 0.9785
-2.0832 -4.3477 -2.5011 0.9785
-1.6016 -4.5475 -2.5012 0.9785
-1.4366 -4.6024 -2.5013 0.9785
-1.1012 -4.6942 -2.5014 0.9785
-0.9312 -4.7310 -2.5014 0.9785
-0.7600 -4.7616 -2.5015 0.9785
-0.5879 -4.7860 -2.5015 0.9785
0.2801 -4.8144 -2.5018 0.9785
0.4535 -4.8013 -2.5019 0.9785
0.6264 -4.7819 -2.5019 0.9785
0.7984 -4.7563 -2.5020 0.9785
0.9694 -4.7245 -2.5021 0.9785
1.3075 -4.6425 -2.5022 0.9785
1.4740 -4.5925 -2.5022 0.9785
1.6387 -4.5365 -2.5023 0.9785
1.9615 -4.4068 -2.5024 0.9785
2.2741 -4.2541 -2.5025 0.9785
2.5749 -4.0793 -2.5026 0.9785
2.8623 -3.8833 -2.5027 0.9785
3.1348 -3.6670 -2.5028 0.9785
3.2651 -3.5517 -2.5028 0.9785
3.5126 -3.3072 -2.5029 0.9785
3.8494 -2.9087 -2.5030 0.9785
3.9518 -2.7680 -2.5030 0.9785
4.0491 -2.6237 -2.5031 0.9785
4.2278 -2.3251 -2.5031 0.9785
4.3089 -2.1712 -2.5031 0.9785
4.6749 -1.1954 -2.5033 0.9785
4.7489 -0.8554 -2.5033 0.9785
4.7767 -0.6836 -2.5033 0.9785
4.8135 -0.3376 -2.5033 0.9785
4.8226 -0.1638 -2.5033 0.9785
4.8254 0.0102 -2.5033 0.9785
4.8219 0.1842 -2.5033 0.9785
4.8121 0.3579 -2.5033 0.9785
4.7106 1.0460 -2.5033 0.9785
4.5700 1.5486 -2.5032 0.9785
4.5111 1.7123 -2.5032 0.9785
4.0380 2.6408 -2.5030 0.9785
3.7291 3.0613 -2.5029 0.9785
3.6162 3.1938 -2.5029 0.9785
3.3765 3.4460 -2.5028 0.9785
3.1193 3.6802 -2.5027 0.9785
-3.0630 -3.3860 -2.5007 0.9794
-2.9390 -3.4943 -2.5008 0.9794
-2.8111 -3.5981 -2.5008 0.9794
-2.6795 -3.6972 -2.5009 0.9794
-2.2648 -3.9651 -2.5010 0.9794
-1.9732 -4.1182 -2.5011 0.9794
-1.8234 -4.1867 -2.5011 0.9794
-1.5170 -4.3075 -2.5012 0.9794
-1.0430 -4.4463 -2.5014 0.9794
-0.8820 -4.4812 -2.5015 0.9794
-0.7199 -4.5102 -2.5015 0.9794
-0.5568 -4.5333 -2.5016 0.9794
-0.2287 -4.5618 -2.5017 0.9794
-0.0640 -4.5672 -2.5017 0.9794
0.1007 -4.5666 -2.5018 0.9794
0.2653 -4.5601 -2.5018 0.9794
0.4296 -4.5477 -2.5019 0.9794
0.5933 -4.5293 -2.5019 0.9794
0.9182 -4.4750 -2.5020 0.9794
1.0790 -4.4390 -2.5021 0.9794
1.3962 -4.3499 -2.5022 0.9794
1.5522 -4.2968 -2.5022 0.9794
2.1539 -4.0294 -2.5024 0.9794
2.2979 -3.9491 -2.5025 0.9794
2.4388 -3.8638 -2.5025 0.9794
2.7111 -3.6781 -2.5026 0.9794
2.8420 -3.5780 -2.5027 0.9794
2.9692 -3.4733 -2.5027 0.9794
3.2119 -3.2504 -2.5028 0.9794
3.3271 -3.1325 -2.5028 0.9794
3.5443 -2.8846 -2.5029 0.9794
4.0044 -2.2023 -2.5030 0.9794
4.0813 -2.0565 -2.5031 0.9794
4.1528 -1.9080 -2.5031 0.9794
4.2190 -1.7570 -2.5031 0.9794
4.2796 -1.6038 -2.5031 0.9794
4.3347 -1.4484 -2.5031 0.9794
4.4658 -0.9719 -2.5032 0.9794
4.5243 -0.6475 -2.5032 0.9794
4.5592 -0.3197 -2.5032 0.9794
4.5704 0.0096 -2.5032 0.9794
4.5578 0.3390 -2.5032 0.9794
4.5426 0.5031 -2.5032 0.9794
4.4945 0.8292 -2.5032 0.9794
4.3786 1.3097 -2.5032 0.9794
4.1447 1.9255 -2.5031 0.9794
3.9951 2.2192 -2.5030 0.9794
3.8247 2.5013 -2.5030 0.9794
3.5320 2.8996 -2.5029 0.9794
3.1981 3.2639 -2.5028 0.9794
3.0783 3.3771 -2.5027 0.9794
2.8268 3.5900 -2.5027 0.9794
-3.0196 -3.1053 -2.5008 0.9802
-2.6668 -3.4134 -2.5009 0.9802
-2.4139 -3.5968 -2.5010 0.9802
-2.2827 -3.6816 -2.5010 0.9802
-2.1485 -3.7616 -2.5010 0.9802
-2.0115 -3.8367 -2.5011 0.9802
-1.8719 -3.9068 -2.5011 0.9802
-1.5855 -4.0317 -2.5012 0.9802
-1.4391 -4.0863 -2.5013 0.9802
-1.2909 -4.1356 -2.5013 0.9802
-0.9895 -4.2180 -2.5014 0.9802
-0.6829 -4.2786 -2.5015 0.9802
-0.5282 -4.3005 -2.5016 0.9802
-0.3728 -4.3168 -2.5016 0.9802
-0.2169 -4.3276 -2.5017 0.9802
-0.0607 -4.3327 -2.5017 0.9802
0.0955 -4.3321 -2.5018 0.9802
0.2517 -4.3260 -2.5018 0.9802
0.4075 -4.3141 -2.5019 0.9802
0.5628 -4.2967 -2.5019 0.9802
0.7174 -4.2737 -2.5020 0.9802
0.8711 -4.2452 -2.5020 0.9802
1.0236 -4.2111 -2.5021 0.9802
1.1748 -4.1715 -2.5021 0.9802
1.3245 -4.1265 -2.5022 0.9802
1.4724 -4.0762 -2.5022 0.9802
1.6185 -4.0205 -2.5023 0.9802
1.9041 -3.8936 -2.5024 0.9802
2.1799 -3.7463 -2.5024 0.9802
2.3136 -3.6653 -2.5025 0.9802
2.4443 -3.5796 -2.5025 0.9802
2.5718 -3.4892 -2.5026 0.9802
2.9337 -3.1912 -2.5027 0.9802
3.1561 -2.9715 -2.5028 0.9802
3.4587 -2.6134 -2.5029 0.9802
3.6382 -2.3575 -2.5029 0.9802
3.7208 -2.2248 -2.5029 0.9802
3.9395 -1.8100 -2.5030 0.9802
4.0597 -1.5214 -2.5031 0.9802
4.2003 -1.0741 -2.5031 0.9802
4.2669 -0.7686 -2.5031 0.9802
4.3324 0.1655 -2.5031 0.9802
4.3092 0.4773 -2.5031 0.9802
4.2892 0.6324 -2.5031 0.9802
4.2636 0.7866 -2.5031 0.9802
4.1061 1.3914 -2.5031 0.9802
3.9951 1.6837 -2.5030 0.9802
3.7898 2.1052 -2.5030 0.9802
3.7114 2.2404 -2.5029 0.9802
3.5402 2.5021 -2.5029 0.9802
3.4476 2.6281 -2.5029 0.9802
3.3506 2.7506 -2.5028 0.9802
3.2492 2.8696 -2.5028 0.9802
3.0338 3.0962 -2.5027 0.9802
2.9202 3.2036 -2.5027 0.9802
2.6816 3.4056 -2.5026 0.9802
