ply
format ascii 1.0
element vertex 857
property float32 x
property float32 y
property float32 z
property float32 I
end_header
-21.1748 9.1980 4.0707 0.9105
-1.6957 8.6609 1.3520 0.9649
-22.4309 39.5517 6.9657 0.8319
-21.0658 7.4071 3.4208 0.9136
-1.6956 8.6601 1.1491 0.9650
-22.4124 39.5190 5.9162 0.8325
-43.9453 8.6685 5.8329 0.8347
20.4631 28.0094 3.7249 0.8697
20.5122 30.2989 3.9290 0.8631
-22.4228 39.5374 4.8808 0.8329
20.5119 30.2985 3.0973 0.8634
-22.4206 39.5334 3.8473 0.8332
-21.1735 9.1974 1.9542 0.9115
-44.3629 8.7509 3.8278 0.8340
20.5664 32.8566 2.4037 0.8561
20.6282 35.7423 2.5590 0.8476
-21.1732 9.1973 1.4315 0.9116
20.4623 28.0083 1.3677 0.8704
20.5624 32.8502 1.5281 0.8563
20.6279 35.7417 1.6272 0.8477
-1.6950 8.6572 0.3478 0.9653
-22.4162 39.5256 1.7917 0.8337
-21.1729 9.1972 0.9102 0.9117
20.5110 30.2973 0.6180 0.8638
20.5658 32.8557 0.6548 0.8564
20.6276 35.7413 0.6971 0.8478
-1.6949 8.6564 0.1490 0.9653
-21.1726 9.1970 0.3899 0.9118
-1.6947 8.6557 -0.0497 0.9653
20.4615 28.0071 -0.9767 0.8704
20.5104 30.2964 -1.0302 0.8638
20.6270 35.7402 -1.1619 0.8478
-22.4096 39.5140 -1.2791 0.8338
-22.9351 15.3228 -0.7767 0.8955
20.4612 28.0068 -1.7590 0.8703
20.5102 30.2960 -1.8554 0.8637
20.5649 32.8543 -1.9657 0.8562
20.6266 35.7397 -2.0927 0.8477
20.2836 41.8024 -2.3564 0.8302
18.7690 42.4939 -2.3559 0.8302
17.2309 43.1306 -2.3554 0.8303
14.0922 44.2362 -2.3545 0.8303
12.4931 44.6949 -2.3535 0.8304
10.8810 45.1032 -2.3530 0.8304
9.2571 45.4599 -2.3528 0.8304
1.0056 46.3560 -2.3515 0.8305
-3.9731 46.1776 -2.3505 0.8306
-5.6243 45.9987 -2.3502 0.8306
-7.2678 45.7607 -2.3498 0.8306
-1.6944 8.6543 -0.4472 0.9653
-12.1306 44.6949 -2.3487 0.8307
-15.2950 43.6962 -2.3479 0.8308
-18.3785 42.4732 -2.3470 0.8308
-22.2926 39.3078 -2.2917 0.8344
-27.2499 40.9124 -2.4929 0.8213
-30.0989 38.8416 -2.4920 0.8213
-31.4658 37.7317 -2.4916 0.8214
-32.7920 36.5737 -2.4912 0.8214
-34.0757 35.3692 -2.4908 0.8214
-35.3155 34.1202 -2.4904 0.8215
-36.5097 32.8276 -2.4900 0.8215
-37.6569 31.4937 -2.4896 0.8215
-22.9599 14.1765 -1.3685 0.8976
-45.6509 17.9142 -2.4870 0.8217
-46.2599 16.2658 -2.4868 0.8217
-47.2997 12.9093 -2.4865 0.8217
-47.7291 11.2055 -2.4864 0.8217
-48.8595 4.2733 -2.4873 0.8217
-48.9966 2.5207 -2.4881 0.8216
-26.3325 0.4098 -1.3356 0.8999
-26.3882 -0.5352 -1.3385 0.8997
-49.0379 -2.7548 -2.4908 0.8214
-48.4217 -7.9950 -2.4889 0.8216
16.0644 27.8348 -2.3564 0.8791
15.0541 28.3875 -2.3560 0.8791
14.0256 28.9053 -2.3557 0.8791
12.9791 29.3853 -2.3554 0.8791
11.9162 29.8274 -2.3551 0.8791
8.6431 30.9211 -2.3541 0.8792
7.5285 31.2066 -2.3538 0.8792
6.4047 31.4522 -2.3535 0.8792
5.2728 31.6571 -2.3531 0.8792
-0.4537 32.0590 -2.3509 0.8793
-1.6017 32.0145 -2.3503 0.8794
-5.0245 31.6361 -2.3487 0.8794
-7.2742 31.1817 -2.3477 0.8795
-8.3852 30.8949 -2.3472 0.8795
-9.4850 30.5687 -2.3468 0.8795
-10.5722 30.2035 -2.3463 0.8795
-11.6456 29.8001 -2.3459 0.8796
-13.7453 28.8800 -2.3451 0.8796
-14.7690 28.3646 -2.3448 0.8796
-15.7736 27.8131 -2.3444 0.8796
-18.6601 25.9500 -2.3436 0.8797
-20.4664 24.5419 -2.3431 0.8797
-21.3308 23.7908 -2.3429 0.8797
-22.9706 22.1931 -2.3419 0.8798
-26.8472 20.8650 -2.4931 0.8725
-23.1977 16.7307 -2.0971 0.8916
-22.9637 14.1789 -1.9788 0.8974
-29.5424 16.8095 -2.4922 0.8726
-30.1235 15.7389 -2.4920 0.8726
-30.6660 14.6485 -2.4919 0.8726
-32.0551 11.2711 -2.4914 0.8726
-32.4368 10.1148 -2.4913 0.8726
-33.3311 6.5748 -2.4910 0.8726
-33.7147 4.1707 -2.4909 0.8726
-33.9173 -1.9054 -2.4908 0.8726
-33.6947 -4.3297 -2.4909 0.8726
-33.5187 -5.5343 -2.4909 0.8726
-33.2998 -6.7320 -2.4910 0.8726
13.0242 20.8074 -2.3567 0.9061
12.2686 21.2578 -2.3564 0.9061
11.4975 21.6808 -2.3560 0.9061
9.1008 22.7800 -2.3551 0.9061
8.2776 23.0884 -2.3547 0.9061
7.4440 23.3670 -2.3544 0.9062
6.6010 23.6156 -2.3541 0.9062
5.7502 23.8349 -2.3539 0.9062
4.8919 24.0230 -2.3537 0.9062
4.0275 24.1804 -2.3534 0.9062
1.4090 24.4654 -2.3527 0.9062
0.5314 24.4976 -2.3524 0.9062
-2.0999 24.4059 -2.3517 0.9063
-2.9727 24.3127 -2.3515 0.9063
-3.8416 24.1882 -2.3513 0.9063
-1.6942 8.6528 -0.8465 0.9652
-5.5629 23.8460 -2.3508 0.9063
-6.4128 23.6277 -2.3504 0.9063
-7.2542 23.3793 -2.3501 0.9063
-8.9074 22.7933 -2.3494 0.9063
-9.7171 22.4566 -2.3491 0.9064
-11.2978 21.6979 -2.3486 0.9064
-12.0667 21.2768 -2.3483 0.9064
-12.8200 20.8285 -2.3481 0.9064
-14.2760 19.8533 -2.3476 0.9064
-14.9770 19.3274 -2.3474 0.9064
-16.3204 18.2025 -2.3471 0.9064
-17.5801 16.9851 -2.3468 0.9064
-18.7499 15.6811 -2.3466 0.9064
-19.2991 14.9988 -2.3466 0.9065
-19.8237 14.2973 -2.3465 0.9065
-20.3230 13.5776 -2.3465 0.9065
-20.7925 12.8383 -2.3460 0.9065
-21.6247 11.2985 -2.3424 0.9066
-22.0145 10.5158 -2.3422 0.9066
-21.1710 9.1964 -2.2160 0.9114
-24.7975 7.7327 -2.4937 0.9009
-25.0579 6.8389 -2.4937 0.9009
-25.4819 5.0265 -2.4935 0.9009
-25.9371 1.3344 -2.4934 0.9009
-25.9682 0.4042 -2.4934 0.9009
-25.9305 -1.4567 -2.4934 0.9009
-25.8619 -2.3849 -2.4934 0.9009
10.5260 16.8162 -2.3566 0.9232
9.9156 17.1807 -2.3563 0.9232
8.6578 17.8427 -2.3558 0.9232
8.0120 18.1394 -2.3555 0.9232
7.3561 18.4129 -2.3553 0.9232
4.6480 19.2665 -2.3542 0.9233
3.9543 19.4186 -2.3540 0.9233
3.2556 19.5458 -2.3538 0.9233
2.5529 19.6479 -2.3535 0.9233
1.1389 19.7762 -2.3530 0.9233
0.4296 19.8024 -2.3528 0.9233
-1.6975 19.7294 -2.3522 0.9233
-2.4032 19.6544 -2.3520 0.9233
-1.6940 8.6521 -1.0473 0.9651
-5.1849 19.1037 -2.3513 0.9234
-5.8657 18.9043 -2.3512 0.9234
-6.5388 18.6807 -2.3510 0.9234
-7.2035 18.4332 -2.3509 0.9234
-8.5040 17.8676 -2.3506 0.9234
-9.1382 17.5504 -2.3504 0.9234
-9.7606 17.2106 -2.3503 0.9234
-10.3705 16.8488 -2.3501 0.9234
-10.9669 16.4655 -2.3500 0.9234
-12.6686 15.1913 -2.3496 0.9234
-13.7228 14.2437 -2.3494 0.9234
-14.2238 13.7424 -2.3493 0.9234
-15.1704 12.6875 -2.3492 0.9234
-15.6147 12.1354 -2.3491 0.9234
-16.4428 10.9853 -2.3490 0.9234
-17.1867 9.7792 -2.3489 0.9234
-17.5261 9.1571 -2.3489 0.9234
-18.1259 7.8736 -2.3475 0.9235
-18.6139 6.5450 -2.3438 0.9236
-19.8702 6.1962 -2.4724 0.9196
-20.4494 4.8010 -2.4951 0.9189
-20.9242 1.8301 -2.4950 0.9189
-20.9996 -0.4259 -2.4950 0.9189
-20.5886 -4.1623 -2.4951 0.9189
8.8242 14.0975 -2.3565 0.9350
8.3127 14.4033 -2.3563 0.9350
7.2584 14.9588 -2.3558 0.9350
6.7172 15.2080 -2.3556 0.9350
5.6097 15.6471 -2.3552 0.9351
5.0450 15.8366 -2.3550 0.9351
4.4739 16.0057 -2.3548 0.9351
3.8972 16.1543 -2.3546 0.9351
2.1406 16.4749 -2.3539 0.9351
0.3602 16.6052 -2.3533 0.9351
-0.2350 16.6061 -2.3531 0.9351
-0.8298 16.5857 -2.3530 0.9351
-2.0152 16.4812 -2.3526 0.9351
-1.6939 8.6513 -1.2491 0.9650
-3.7713 16.1662 -2.3521 0.9351
-4.3479 16.0196 -2.3519 0.9351
-7.1314 14.9836 -2.3512 0.9352
-7.6633 14.7177 -2.3511 0.9352
-8.1853 14.4329 -2.3510 0.9352
-9.1971 13.8084 -2.3508 0.9352
-9.6855 13.4694 -2.3507 0.9352
-10.1616 13.1132 -2.3506 0.9352
-11.0739 12.3510 -2.3504 0.9352
-11.5090 11.9459 -2.3503 0.9352
-13.0965 10.1783 -2.3501 0.9352
-13.4526 9.7023 -2.3501 0.9352
-14.1126 8.7138 -2.3501 0.9352
-14.4126 8.2007 -2.3495 0.9352
-14.6878 7.6741 -2.3480 0.9352
-15.1800 6.5940 -2.3450 0.9353
-15.8208 6.2084 -2.4081 0.9336
-16.6212 5.8443 -2.4964 0.9313
-16.8194 5.2448 -2.4963 0.9313
-17.1512 4.0266 -2.4962 0.9313
-17.3950 2.7879 -2.4961 0.9313
-17.5932 0.9051 -2.4961 0.9313
-17.6143 0.2741 -2.4961 0.9313
-17.5422 -1.6177 -2.4961 0.9313
7.5894 12.1248 -2.3565 0.9437
7.1495 12.3879 -2.3563 0.9437
6.7005 12.6352 -2.3561 0.9437
6.2430 12.8661 -2.3559 0.9437
5.7775 13.0805 -2.3557 0.9437
5.3047 13.2781 -2.3555 0.9437
4.8251 13.4585 -2.3553 0.9437
4.3394 13.6217 -2.3551 0.9437
2.3481 14.0976 -2.3544 0.9437
1.8413 14.1716 -2.3542 0.9437
1.3323 14.2274 -2.3541 0.9437
0.3099 14.2843 -2.3537 0.9437
-0.7138 14.2678 -2.3534 0.9437
-1.7336 14.1782 -2.3531 0.9437
-2.2404 14.1060 -2.3529 0.9437
-1.6937 8.6506 -1.4521 0.9649
-3.2444 13.9077 -2.3527 0.9437
-3.7405 13.7817 -2.3525 0.9438
-4.2316 13.6380 -2.3524 0.9438
-4.7173 13.4769 -2.3523 0.9438
-5.1969 13.2985 -2.3521 0.9438
-5.6698 13.1031 -2.3520 0.9438
-6.5930 12.6622 -2.3518 0.9438
-7.0422 12.4173 -2.3517 0.9438
-9.1410 10.9613 -2.3513 0.9438
-9.5277 10.6265 -2.3512 0.9438
-11.8594 7.9232 -2.3496 0.9438
-12.1293 7.4892 -2.3484 0.9438
-12.3832 7.0460 -2.3471 0.9439
-12.6208 6.5942 -2.3458 0.9439
-14.7560 3.4643 -2.4970 0.9404
-14.9658 2.3986 -2.4969 0.9404
-15.0989 1.3206 -2.4969 0.9404
-15.1364 0.7787 -2.4969 0.9404
-15.1546 0.2358 -2.4969 0.9404
-15.1533 -0.3073 -2.4969 0.9404
-15.1326 -0.8501 -2.4969 0.9404
-15.0925 -1.3918 -2.4969 0.9404
-15.0330 -1.9317 -2.4969 0.9404
6.6517 10.6267 -2.3564 0.9503
5.4718 11.2767 -2.3559 0.9503
5.0638 11.4647 -2.3558 0.9503
3.8035 11.9394 -2.3553 0.9503
3.3730 12.0673 -2.3551 0.9503
2.4998 12.2762 -2.3548 0.9503
1.6140 12.4220 -2.3545 0.9503
1.1678 12.4711 -2.3543 0.9503
0.7201 12.5041 -2.3542 0.9503
-1.5196 12.4285 -2.3535 0.9503
-1.6829 8.5953 -1.6463 0.9650
-3.2790 12.0813 -2.3530 0.9503
-3.7096 11.9555 -2.3528 0.9503
-4.9704 11.4868 -2.3525 0.9503
-5.3786 11.3008 -2.3524 0.9503
-5.7798 11.1004 -2.3523 0.9503
-6.1736 10.8858 -2.3522 0.9503
-6.5595 10.6572 -2.3522 0.9503
-7.3054 10.1594 -2.3520 0.9503
-8.0138 9.6096 -2.3519 0.9503
-8.6810 9.0106 -2.3518 0.9504
-8.9981 8.6935 -2.3517 0.9504
-10.6217 6.5584 -2.3464 0.9505
-10.9263 6.2171 -2.3629 0.9501
-11.9915 5.7281 -2.4979 0.9473
-12.5360 4.4079 -2.4977 0.9474
-12.9360 3.0370 -2.4976 0.9474
-13.0363 2.5715 -2.4975 0.9474
-13.1868 1.6313 -2.4975 0.9474
-13.2367 1.1577 -2.4975 0.9474
-13.2696 0.6827 -2.4975 0.9474
-13.2855 0.2068 -2.4975 0.9474
-13.2662 -0.7452 -2.4975 0.9474
5.9146 9.4492 -2.3564 0.9554
3.7607 10.4897 -2.3555 0.9555
2.6129 10.8308 -2.3551 0.9555
1.8303 10.9888 -2.3548 0.9555
0.6404 11.1198 -2.3544 0.9555
0.2415 11.1350 -2.3543 0.9555
-0.1576 11.1359 -2.3541 0.9555
-0.5565 11.1225 -2.3540 0.9555
-1.3514 11.0529 -2.3538 0.9555
-3.2991 10.6326 -2.3532 0.9555
-3.6778 10.5071 -2.3531 0.9555
-5.1404 9.8724 -2.3528 0.9555
-5.8338 9.4782 -2.3526 0.9555
-6.1695 9.2628 -2.3525 0.9555
-6.4973 9.0356 -2.3525 0.9555
-6.8167 8.7967 -2.3524 0.9555
-7.1273 8.5466 -2.3523 0.9555
-7.7173 8.0103 -2.3512 0.9555
-8.2651 7.4316 -2.3495 0.9556
-8.5229 7.1280 -2.3486 0.9556
-8.7694 6.8153 -2.3477 0.9556
-9.0044 6.4942 -2.3467 0.9556
-10.0304 6.1933 -2.4918 0.9529
-10.4756 5.4733 -2.4984 0.9528
-11.5049 2.7010 -2.4980 0.9528
-11.6686 1.8701 -2.4980 0.9528
-11.7724 1.0296 -2.4979 0.9528
-11.8017 0.6072 -2.4979 0.9528
-11.7987 -0.6628 -2.4979 0.9528
-11.7674 -1.0851 -2.4979 0.9528
-11.7210 -1.5061 -2.4980 0.9528
-11.5833 -2.3417 -2.4980 0.9528
5.9131 8.0938 -2.3558 0.9596
5.0114 8.6832 -2.3562 0.9596
4.6968 8.8567 -2.3561 0.9596
4.3761 9.0188 -2.3560 0.9596
3.3825 9.4347 -2.3556 0.9597
2.6979 9.6517 -2.3553 0.9597
2.3502 9.7416 -2.3552 0.9597
1.2910 9.9360 -2.3548 0.9597
0.2173 10.0156 -2.3545 0.9597
-0.5005 10.0045 -2.3542 0.9597
-0.8586 9.9796 -2.3541 0.9597
-1.5710 9.8916 -2.3539 0.9597
-5.2477 8.5260 -2.3530 0.9597
-5.5494 8.3318 -2.3527 0.9597
-6.1284 7.9085 -2.3514 0.9597
-6.4059 7.6816 -2.3507 0.9597
-6.6750 7.4448 -2.3500 0.9597
-6.9353 7.1986 -2.3493 0.9598
-7.4282 6.6791 -2.3477 0.9598
-7.9958 6.2141 -2.3800 0.9592
-8.5881 6.1940 -2.4886 0.9574
-9.0467 5.5859 -2.4988 0.9573
-9.2408 5.2580 -2.4988 0.9573
-9.4231 4.9234 -2.4987 0.9573
-9.8964 3.8835 -2.4985 0.9573
-10.0290 3.5264 -2.4985 0.9573
-10.1487 3.1647 -2.4985 0.9573
-10.2555 2.7990 -2.4984 0.9573
-10.6134 -0.5962 -2.4983 0.9573
-10.5852 -0.9761 -2.4983 0.9573
-10.4883 -1.7317 -2.4984 0.9573
-10.4196 -2.1065 -2.4984 0.9573
5.0969 7.5288 -2.3540 0.9631
4.2615 8.0359 -2.3551 0.9631
3.9714 8.1845 -2.3554 0.9631
3.6760 8.3226 -2.3557 0.9631
3.3755 8.4491 -2.3557 0.9631
3.0704 8.5642 -2.3556 0.9631
2.4489 8.7612 -2.3554 0.9631
1.4944 8.9721 -2.3550 0.9631
1.1719 9.0195 -2.3549 0.9631
0.8479 9.0553 -2.3548 0.9631
-0.1287 9.0927 -2.3545 0.9631
-0.4544 9.0819 -2.3544 0.9631
-0.7795 9.0594 -2.3543 0.9631
-1.3961 8.7905 -2.3046 0.9639
-1.6657 8.5073 -2.2445 0.9648
-1.9809 8.4915 -2.2576 0.9646
-2.3812 8.7737 -2.3538 0.9631
-2.6940 8.6824 -2.3537 0.9631
-3.0033 8.5800 -2.3537 0.9631
-3.6096 8.3419 -2.3534 0.9631
-3.9054 8.2056 -2.3529 0.9631
-4.1960 8.0587 -2.3524 0.9632
-4.4811 7.9015 -2.3519 0.9632
-4.7603 7.7341 -2.3514 0.9632
-5.0332 7.5567 -2.3508 0.9632
-6.0548 6.7530 -2.3484 0.9632
-7.4039 6.1921 -2.4991 0.9609
-7.6217 5.9234 -2.4993 0.9609
-7.8288 5.6463 -2.4992 0.9609
-8.0259 5.3621 -2.4991 0.9609
-8.5544 4.4695 -2.4990 0.9609
-9.1045 3.2013 -2.4988 0.9609
-9.3102 2.5410 -2.4987 0.9609
-9.4680 1.8677 -2.4987 0.9609
-9.5288 1.5272 -2.4987 0.9609
-9.5774 1.1848 -2.4987 0.9609
-9.6491 0.1502 -2.4986 0.9609
-9.6351 -0.5413 -2.4986 0.9609
-9.6096 -0.8862 -2.4986 0.9609
4.9007 6.7080 -2.3518 0.9661
4.4091 7.0439 -2.3525 0.9660
4.1544 7.1984 -2.3528 0.9660
3.6291 7.4793 -2.3534 0.9660
3.3592 7.6053 -2.3537 0.9660
3.0848 7.7215 -2.3539 0.9660
1.9505 8.0851 -2.3545 0.9660
1.6596 8.1501 -2.3546 0.9660
1.0717 8.2483 -2.3546 0.9660
0.4782 8.3037 -2.3546 0.9660
0.1804 8.3153 -2.3545 0.9660
-0.1177 8.3161 -2.3544 0.9660
-1.5974 8.1588 -2.3535 0.9660
-1.8885 8.0955 -2.3533 0.9660
-2.1771 8.0216 -2.3530 0.9660
-2.4628 7.9374 -2.3527 0.9660
-3.2988 7.6236 -2.3516 0.9661
-4.0955 7.2215 -2.3502 0.9661
-4.3507 7.0687 -2.3498 0.9661
-5.5744 6.2173 -2.3639 0.9659
-5.9765 6.2034 -2.4386 0.9648
-6.5658 5.9037 -2.4996 0.9640
-6.7730 5.6644 -2.4996 0.9640
-7.1609 5.1646 -2.4994 0.9640
-7.5120 4.6383 -2.4993 0.9640
-7.8246 4.0882 -2.4992 0.9640
-7.9659 3.8052 -2.4992 0.9640
-8.5160 2.3242 -2.4990 0.9640
-8.6604 1.7084 -2.4989 0.9640
-8.7160 1.3969 -2.4989 0.9640
-8.7604 1.0837 -2.4989 0.9640
-8.8260 0.1374 -2.4989 0.9640
-8.8253 -0.1790 -2.4989 0.9640
-8.8132 -0.4951 -2.4989 0.9640
-8.7093 -1.4380 -2.4989 0.9640
4.5422 6.2172 -2.3683 0.9683
3.8210 6.6207 -2.3512 0.9685
3.5818 6.7542 -2.3515 0.9685
3.3378 6.8789 -2.3517 0.9685
2.8371 7.1016 -2.3522 0.9685
2.3216 7.2876 -2.3525 0.9685
1.7939 7.4359 -2.3527 0.9685
1.5263 7.4956 -2.3528 0.9685
0.9856 7.5858 -2.3529 0.9685
0.1659 7.6475 -2.3528 0.9685
-0.1082 7.6483 -2.3527 0.9685
-1.1995 7.5524 -2.3521 0.9685
-1.7369 7.4456 -2.3516 0.9685
-2.2652 7.3004 -2.3510 0.9685
-2.5250 7.2136 -2.3507 0.9685
-3.0342 7.0121 -2.3500 0.9685
-3.2829 6.8978 -2.3496 0.9685
-3.5274 6.7745 -2.3492 0.9685
-4.0020 6.5021 -2.3484 0.9686
-5.4259 6.0517 -2.5000 0.9666
-6.0435 5.4341 -2.4998 0.9666
-6.2339 5.2139 -2.4997 0.9666
-6.4169 4.9871 -2.4997 0.9666
-6.5913 4.7538 -2.4996 0.9666
-6.7573 4.5145 -2.4996 0.9666
-6.9145 4.2694 -2.4995 0.9666
-7.2023 3.7631 -2.4994 0.9666
-7.4531 3.2375 -2.4993 0.9666
-7.5642 2.9683 -2.4993 0.9666
-7.6656 2.6954 -2.4993 0.9666
-7.8387 2.1394 -2.4992 0.9666
-8.1144 0.4175 -2.4991 0.9666
-8.1242 0.1264 -2.4991 0.9666
-8.0908 -0.7461 -2.4991 0.9666
-7.9642 -1.6100 -2.4992 0.9666
4.1941 6.1953 -2.4869 0.9690
3.8840 6.2051 -2.4334 0.9696
3.5864 6.2141 -2.3849 0.9702
2.1468 6.7389 -2.3510 0.9706
1.9041 6.8119 -2.3511 0.9706
1.4114 6.9312 -2.3512 0.9706
1.1622 6.9775 -2.3513 0.9706
0.9114 7.0147 -2.3513 0.9706
0.4067 7.0618 -2.3513 0.9706
0.1534 7.0717 -2.3512 0.9706
-0.3534 7.0639 -2.3510 0.9706
-0.8583 7.0197 -2.3508 0.9706
-1.1092 6.9839 -2.3506 0.9706
-1.3586 6.9391 -2.3504 0.9706
-1.6062 6.8853 -2.3502 0.9706
-2.0947 6.7511 -2.3496 0.9706
-2.8060 6.4847 -2.3487 0.9707
-3.0361 6.3791 -2.3483 0.9707
-3.5249 6.2154 -2.3751 0.9703
-3.8201 6.2066 -2.4226 0.9697
-4.3914 6.1070 -2.5003 0.9688
-4.6072 5.9455 -2.5003 0.9688
-5.0209 5.6000 -2.5001 0.9688
-5.4083 5.2258 -2.5000 0.9688
-5.5925 5.0285 -2.4999 0.9688
-5.7689 4.8247 -2.4999 0.9688
-6.0994 4.3990 -2.4998 0.9688
-6.3985 3.9508 -2.4997 0.9688
-6.5359 3.7189 -2.4996 0.9688
-6.6648 3.4823 -2.4996 0.9688
-6.7852 3.2412 -2.4996 0.9688
-6.9997 2.7469 -2.4995 0.9688
-7.0936 2.4942 -2.4995 0.9688
-7.3200 1.7186 -2.4994 0.9688
-7.3769 1.4552 -2.4994 0.9688
-7.4903 0.6551 -2.4993 0.9688
-7.5070 -0.4217 -2.4993 0.9688
-7.4185 -1.2249 -2.4993 0.9688
3.9238 5.7960 -2.5030 0.9707
3.7135 5.9328 -2.5029 0.9707
3.0081 6.1994 -2.4641 0.9712
1.9947 6.2614 -2.3500 0.9725
1.7690 6.3286 -2.3499 0.9725
1.5410 6.3878 -2.3498 0.9725
1.3112 6.4390 -2.3499 0.9725
1.0797 6.4820 -2.3499 0.9725
0.8467 6.5166 -2.3500 0.9725
0.3778 6.5604 -2.3499 0.9725
-0.3283 6.5624 -2.3497 0.9725
-0.5632 6.5461 -2.3496 0.9725
-1.2622 6.4465 -2.3491 0.9725
-1.7204 6.3388 -2.3488 0.9725
-2.6860 6.2074 -2.4187 0.9717
-2.9511 6.2005 -2.4557 0.9712
-3.2245 6.1929 -2.4968 0.9708
-3.4496 6.0826 -2.5006 0.9707
-3.6652 5.9549 -2.5006 0.9707
-3.8761 5.8196 -2.5005 0.9707
-5.3627 4.4850 -2.5000 0.9707
-5.8126 3.8834 -2.4999 0.9707
-6.0756 3.4570 -2.4998 0.9707
-6.5068 2.5534 -2.4996 0.9707
-6.5941 2.3186 -2.4996 0.9707
-6.6728 2.0808 -2.4996 0.9707
-6.8046 1.5975 -2.4995 0.9707
-6.8574 1.3527 -2.4995 0.9707
-6.9015 1.1061 -2.4995 0.9707
-6.9629 0.6090 -2.4995 0.9707
-6.9802 0.3591 -2.4995 0.9707
-6.9785 -0.3920 -2.4995 0.9707
-6.9325 -0.8908 -2.4995 0.9707
-6.8510 -1.3850 -2.4995 0.9707
3.8530 5.2739 -2.5030 0.9724
3.2646 5.6565 -2.5028 0.9724
2.6385 5.9737 -2.5026 0.9724
2.4227 6.0642 -2.5025 0.9724
2.2038 6.1470 -2.5024 0.9724
1.7327 6.1988 -2.4665 0.9728
1.2638 6.2061 -2.4271 0.9732
0.5819 6.2127 -2.3912 0.9736
0.3579 6.2138 -2.3852 0.9737
0.1349 6.2143 -2.3820 0.9737
-0.0878 6.2144 -2.3817 0.9737
-0.9862 6.2092 -2.4093 0.9734
-1.6826 6.1995 -2.4617 0.9729
-1.9222 6.1950 -2.4857 0.9726
-2.8045 5.8925 -2.5008 0.9724
-3.0138 5.7881 -2.5008 0.9724
-3.4204 5.5571 -2.5006 0.9724
-3.6172 5.4308 -2.5006 0.9724
-3.9967 5.1576 -2.5004 0.9724
-4.1788 5.0110 -2.5004 0.9724
-4.5267 4.6986 -2.5003 0.9724
-4.6921 4.5333 -2.5002 0.9724
-5.0045 4.1854 -2.5001 0.9724
-5.1512 4.0034 -2.5001 0.9724
-5.2912 3.8161 -2.5000 0.9724
-5.4245 3.6240 -2.5000 0.9724
-5.5507 3.4273 -2.4999 0.9724
-5.6699 3.2262 -2.4999 0.9724
-5.9831 2.5990 -2.4998 0.9724
-6.0723 2.3829 -2.4998 0.9724
-6.1537 2.1638 -2.4998 0.9724
-6.2273 1.9419 -2.4997 0.9724
-6.3995 1.2624 -2.4997 0.9724
-6.4406 1.0323 -2.4997 0.9724
-6.5220 0.1015 -2.4996 0.9724
-6.5214 -0.1323 -2.4996 0.9724
-6.5125 -0.3658 -2.4996 0.9724
-6.4952 -0.5989 -2.4996 0.9724
-6.4696 -0.8313 -2.4997 0.9724
-6.3935 -1.2925 -2.4997 0.9724
3.4283 5.0640 -2.5028 0.9739
2.8649 5.4023 -2.5027 0.9739
2.6694 5.5013 -2.5026 0.9739
2.2684 5.6780 -2.5025 0.9739
2.0635 5.7555 -2.5024 0.9739
1.6459 5.8882 -2.5023 0.9739
1.4338 5.9432 -2.5022 0.9739
1.2199 5.9906 -2.5021 0.9739
1.0044 6.0303 -2.5021 0.9739
0.5699 6.0864 -2.5019 0.9739
0.3515 6.1028 -2.5018 0.9739
0.1326 6.1113 -2.5018 0.9739
-0.0865 6.1119 -2.5017 0.9739
-0.5239 6.0897 -2.5016 0.9739
-0.7418 6.0668 -2.5015 0.9739
-0.9587 6.0362 -2.5014 0.9739
-1.1743 5.9978 -2.5014 0.9739
-1.3884 5.9517 -2.5013 0.9739
-1.6008 5.8980 -2.5012 0.9739
-1.8110 5.8367 -2.5012 0.9739
-2.0189 5.7679 -2.5011 0.9739
-2.2243 5.6917 -2.5010 0.9739
-2.6260 5.5175 -2.5009 0.9739
-3.0143 5.3150 -2.5008 0.9739
-3.2027 5.2035 -2.5007 0.9739
-3.3870 5.0852 -2.5006 0.9739
-3.5670 4.9605 -2.5006 0.9739
-3.7423 4.8294 -2.5005 0.9739
-4.0784 4.5488 -2.5004 0.9739
-4.6861 3.9191 -2.5002 0.9739
-5.1976 3.2093 -2.5001 0.9739
-5.4139 2.8287 -2.5000 0.9739
-5.5117 2.6329 -2.5000 0.9739
-5.6025 2.4336 -2.4999 0.9739
-5.8311 1.8183 -2.4999 0.9739
-5.9463 1.3960 -2.4998 0.9739
-6.0616 0.7499 -2.4998 0.9739
-6.0846 0.5322 -2.4998 0.9739
-6.0997 0.3138 -2.4998 0.9739
-6.0982 -0.3425 -2.4998 0.9739
-6.0820 -0.5608 -2.4998 0.9739
-6.0580 -0.7784 -2.4998 0.9739
-5.9868 -1.2103 -2.4998 0.9739
3.3878 4.6371 -2.5028 0.9753
3.0469 4.8677 -2.5027 0.9753
2.6903 5.0732 -2.5026 0.9753
2.1302 5.3321 -2.5024 0.9753
1.9378 5.4049 -2.5024 0.9753
1.5456 5.5295 -2.5022 0.9753
1.3464 5.5812 -2.5022 0.9753
1.1456 5.6258 -2.5021 0.9753
0.9432 5.6630 -2.5020 0.9753
-0.2868 5.7330 -2.5016 0.9753
-0.4920 5.7189 -2.5016 0.9753
-1.1028 5.6326 -2.5014 0.9753
-2.0888 5.3452 -2.5011 0.9753
-2.4661 5.1816 -2.5009 0.9753
-2.8308 4.9914 -2.5008 0.9753
-3.5145 4.5354 -2.5006 0.9753
-3.6747 4.4065 -2.5006 0.9753
-3.8302 4.2719 -2.5005 0.9753
-3.9807 4.1318 -2.5005 0.9753
-4.1261 3.9865 -2.5004 0.9753
-4.4009 3.6806 -2.5003 0.9753
-4.5298 3.5205 -2.5003 0.9753
-4.9860 2.8371 -2.5001 0.9753
-5.0844 2.6565 -2.5001 0.9753
-5.1763 2.4726 -2.5001 0.9753
-5.2615 2.2855 -2.5000 0.9753
-5.4762 1.7077 -2.5000 0.9753
-5.5338 1.5104 -2.5000 0.9753
-5.6277 1.1101 -2.4999 0.9753
-5.6639 0.9078 -2.4999 0.9753
-5.7349 -0.1163 -2.4999 0.9753
-5.6894 -0.7310 -2.4999 0.9753
-5.6224 -1.1367 -2.4999 0.9753
3.1896 4.3659 -2.5028 0.9764
2.8686 4.5829 -2.5027 0.9765
2.5329 4.7764 -2.5026 0.9765
1.8244 5.0888 -2.5023 0.9765
1.2677 5.2548 -2.5021 0.9765
1.0786 5.2967 -2.5021 0.9765
0.6964 5.3601 -2.5020 0.9765
0.5039 5.3815 -2.5019 0.9765
0.3108 5.3960 -2.5018 0.9765
0.1172 5.4035 -2.5018 0.9765
-0.4633 5.3845 -2.5016 0.9765
-0.8477 5.3372 -2.5015 0.9765
-1.0383 5.3033 -2.5014 0.9765
-1.4157 5.2150 -2.5013 0.9765
-1.9667 5.0327 -2.5011 0.9765
-2.1457 4.9588 -2.5010 0.9765
-2.6653 4.6997 -2.5009 0.9765
-2.8319 4.6010 -2.5008 0.9765
-2.9949 4.4965 -2.5008 0.9765
-3.1540 4.3862 -2.5007 0.9765
-3.4599 4.1489 -2.5006 0.9765
-3.6063 4.0222 -2.5006 0.9765
-4.1436 3.4655 -2.5004 0.9765
-4.3810 3.1597 -2.5003 0.9765
-4.4914 3.0007 -2.5003 0.9765
-4.5960 2.8378 -2.5003 0.9765
-4.7873 2.5013 -2.5002 0.9765
-5.0953 1.7916 -2.5001 0.9765
-5.1562 1.6079 -2.5001 0.9765
-5.2105 1.4221 -2.5001 0.9765
-5.2989 1.0452 -2.5000 0.9765
-5.3601 0.6631 -2.5000 0.9765
-5.3804 0.4706 -2.5000 0.9765
-5.3938 0.2775 -2.5000 0.9765
-5.3998 -0.1095 -2.5000 0.9765
-5.3924 -0.3029 -2.5000 0.9765
-5.3781 -0.4959 -2.5000 0.9765
-5.3288 -0.8798 -2.5000 0.9765
-5.2939 -1.0702 -2.5000 0.9765
3.0098 4.1198 -2.5027 0.9775
2.3902 4.5072 -2.5025 0.9775
2.2271 4.5898 -2.5025 0.9775
1.0178 4.9982 -2.5021 0.9775
0.8380 5.0314 -2.5020 0.9775
0.6572 5.0581 -2.5019 0.9775
-0.0722 5.0996 -2.5017 0.9775
-0.2548 5.0936 -2.5017 0.9775
-0.4372 5.0811 -2.5016 0.9775
-0.6189 5.0620 -2.5015 0.9775
-0.7999 5.0365 -2.5015 0.9775
-1.1585 4.9661 -2.5014 0.9775
-1.3357 4.9212 -2.5013 0.9775
-1.6846 4.8128 -2.5012 0.9775
-2.0249 4.6795 -2.5011 0.9775
-2.3547 4.5223 -2.5010 0.9775
-2.5152 4.4349 -2.5009 0.9775
-2.9764 4.1392 -2.5008 0.9775
-3.1227 4.0298 -2.5007 0.9775
-3.2651 3.9152 -2.5007 0.9775
-3.5369 3.6712 -2.5006 0.9775
-3.7906 3.4084 -2.5005 0.9775
-4.1343 2.9818 -2.5004 0.9775
-4.2385 2.8317 -2.5004 0.9775
-4.5993 2.1970 -2.5003 0.9775
-4.6750 2.0308 -2.5002 0.9775
-4.8084 1.6907 -2.5002 0.9775
-4.8659 1.5173 -2.5002 0.9775
-5.0005 0.9864 -2.5001 0.9775
-5.0326 0.8066 -2.5001 0.9775
-5.0774 0.4441 -2.5001 0.9775
-5.0962 0.0793 -2.5001 0.9775
-5.0957 -0.1033 -2.5001 0.9775
-5.0753 -0.4680 -2.5001 0.9775
-5.0287 -0.8303 -2.5001 0.9775
2.5595 4.0890 -2.5026 0.9785
2.4113 4.1780 -2.5025 0.9785
2.2600 4.2616 -2.5025 0.9785
1.9489 4.4124 -2.5024 0.9785
1.7895 4.4792 -2.5023 0.9785
1.6278 4.5404 -2.5023 0.9785
1.1311 4.6886 -2.5021 0.9785
0.7924 4.7573 -2.5020 0.9785
0.2773 4.8146 -2.5018 0.9785
-0.0682 4.8219 -2.5017 0.9785
-0.2410 4.8162 -2.5017 0.9785
-0.4134 4.8044 -2.5016 0.9785
-0.9265 4.7319 -2.5014 0.9785
-1.0954 4.6956 -2.5014 0.9785
-1.2629 4.6533 -2.5013 0.9785
-1.4288 4.6049 -2.5013 0.9785
-1.5929 4.5506 -2.5012 0.9785
-1.9146 4.4247 -2.5011 0.9785
-2.0719 4.3532 -2.5011 0.9785
-2.2265 4.2761 -2.5010 0.9785
-2.3782 4.1935 -2.5010 0.9785
-2.5269 4.1055 -2.5009 0.9785
-2.8143 3.9138 -2.5008 0.9785
-2.9527 3.8104 -2.5008 0.9785
-3.3444 3.4714 -2.5007 0.9785
-3.6974 3.0923 -2.5005 0.9785
-3.8058 2.9578 -2.5005 0.9785
-3.9093 2.8195 -2.5005 0.9785
-4.1891 2.3836 -2.5004 0.9785
-4.3490 2.0774 -2.5003 0.9785
-4.4206 1.9202 -2.5003 0.9785
-4.5466 1.5987 -2.5003 0.9785
-4.6494 1.2690 -2.5002 0.9785
-4.7283 0.9327 -2.5002 0.9785
-4.7587 0.7627 -2.5002 0.9785
-4.7829 0.5917 -2.5002 0.9785
-4.8130 0.2476 -2.5002 0.9785
-4.8188 0.0750 -2.5002 0.9785
-4.8184 -0.0977 -2.5002 0.9785
-4.7990 -0.4425 -2.5002 0.9785
-4.7801 -0.6142 -2.5002 0.9785
-4.7238 -0.9550 -2.5002 0.9785
2.5615 3.7837 -2.5026 0.9794
2.4242 3.8730 -2.5025 0.9794
2.2839 3.9573 -2.5025 0.9794
2.1406 4.0365 -2.5024 0.9794
1.9945 4.1105 -2.5024 0.9794
1.8459 4.1793 -2.5023 0.9794
1.5418 4.3006 -2.5022 0.9794
1.3867 4.3530 -2.5022 0.9794
1.0714 4.4409 -2.5021 0.9794
0.9115 4.4763 -2.5020 0.9794
-0.0646 4.5672 -2.5017 0.9794
-0.7164 4.5107 -2.5015 0.9794
-0.8776 4.4821 -2.5015 0.9794
-1.3534 4.3617 -2.5013 0.9794
-1.6622 4.2535 -2.5012 0.9794
-1.9625 4.1234 -2.5011 0.9794
-2.2527 3.9721 -2.5010 0.9794
-2.3935 3.8887 -2.5010 0.9794
-2.5312 3.8004 -2.5009 0.9794
-2.6657 3.7072 -2.5009 0.9794
-2.7968 3.6092 -2.5008 0.9794
-3.2836 3.1725 -2.5007 0.9794
-3.9680 2.2578 -2.5005 0.9794
-4.0463 2.1141 -2.5004 0.9794
-4.1194 1.9678 -2.5004 0.9794
-4.2497 1.6677 -2.5004 0.9794
-4.3581 1.3590 -2.5003 0.9794
-4.4787 0.8835 -2.5003 0.9794
-4.5476 0.3978 -2.5003 0.9794
-4.5590 0.2346 -2.5003 0.9794
-4.5645 0.0710 -2.5003 0.9794
-4.5641 -0.0925 -2.5003 0.9794
-4.5457 -0.4192 -2.5003 0.9794
-4.5278 -0.5818 -2.5003 0.9794
-4.4745 -0.9046 -2.5003 0.9794
2.5570 3.5000 -2.5026 0.9802
2.4299 3.5893 -2.5025 0.9802
2.2997 3.6740 -2.5025 0.9802
2.1664 3.7540 -2.5024 0.9802
1.8921 3.8994 -2.5023 0.9802
1.7511 3.9646 -2.5023 0.9802
1.4626 4.0797 -2.5022 0.9802
1.1667 4.1738 -2.5021 0.9802
1.0163 4.2129 -2.5021 0.9802
0.8647 4.2465 -2.5020 0.9802
0.4040 4.3145 -2.5019 0.9802
0.2492 4.3261 -2.5018 0.9802
0.0940 4.3322 -2.5018 0.9802
-0.2165 4.3276 -2.5017 0.9802
-0.8325 4.2519 -2.5015 0.9802
-0.9843 4.2193 -2.5014 0.9802
-1.1348 4.1812 -2.5014 0.9802
-1.4313 4.0891 -2.5013 0.9802
-1.5769 4.0351 -2.5012 0.9802
-2.0007 3.8424 -2.5011 0.9802
-2.4013 3.6053 -2.5010 0.9802
-2.5289 3.5169 -2.5009 0.9802
-2.6533 3.4240 -2.5009 0.9802
-2.8916 3.2250 -2.5008 0.9802
-3.1150 3.0096 -2.5007 0.9802
-3.2208 2.8960 -2.5007 0.9802
-3.3225 2.7787 -2.5007 0.9802
-3.6852 2.2754 -2.5005 0.9802
-3.7643 2.1419 -2.5005 0.9802
-3.8386 2.0056 -2.5005 0.9802
-4.0316 1.5821 -2.5004 0.9802
-4.0856 1.4366 -2.5004 0.9802
-4.1780 1.1403 -2.5004 0.9802
-4.2161 0.9899 -2.5004 0.9802
-4.2489 0.8381 -2.5004 0.9802
-4.2762 0.6853 -2.5004 0.9802
-4.2980 0.5317 -2.5004 0.9802
-4.3143 0.3773 -2.5003 0.9802
-4.3298 -0.0878 -2.5003 0.9802
-4.3239 -0.2429 -2.5003 0.9802
-4.3124 -0.3976 -2.5003 0.9802
-4.2954 -0.5519 -2.5004 0.9802
-4.2729 -0.7055 -2.5004 0.9802
