ply
format ascii 1.0
element vertex 1261
property float32 x
property float32 y
property float32 z
property float32 I
end_header
31.8741 -28.5409 7.5441 0.8405
34.1018 -26.4014 7.6045 0.8393
35.8042 -25.7272 7.7740 0.8360
38.0598 18.3414 7.4496 0.8423
38.4449 20.2504 7.6618 0.8382
38.8775 22.2880 7.9018 0.8336
10.2962 11.5375 2.7267 0.9391
7.6971 11.6046 2.4554 0.9450
7.1226 11.6195 2.4031 0.9461
6.0407 11.6474 2.3135 0.9481
4.0788 11.6980 2.1845 0.9509
3.6502 11.8105 2.1797 0.9510
3.1958 11.8222 2.1594 0.9515
2.3092 11.8451 2.1279 0.9522
1.4438 11.8674 2.1080 0.9526
1.0160 11.8784 2.1021 0.9527
0.1648 11.9004 2.0986 0.9528
-0.6878 11.9223 2.1057 0.9527
-1.1174 11.9334 2.1134 0.9525
-1.5507 11.9446 2.1238 0.9523
-1.6145 9.7053 1.7348 0.9608
-2.4331 11.9672 2.1533 0.9516
-3.8156 12.0028 2.2208 0.9501
-4.2980 12.0152 2.2501 0.9495
-5.3053 12.0411 2.3201 0.9480
34.1845 -30.6097 7.0295 0.8305
36.0051 -29.9924 7.1788 0.8273
39.8795 -26.5477 7.3392 0.8238
37.8625 15.0173 6.2399 0.8480
37.9468 18.2869 6.4530 0.8433
38.0376 21.8065 6.7168 0.8374
39.2361 28.4732 7.4267 0.8219
38.2464 29.8983 7.4369 0.8216
8.9288 11.5730 2.2393 0.9426
5.5282 11.6608 1.9770 0.9491
3.4030 9.7600 1.5835 0.9590
3.0196 9.7699 1.5666 0.9595
2.6437 9.7796 1.5520 0.9598
2.2743 9.7891 1.5396 0.9601
1.9118 9.8066 1.5306 0.9604
1.2069 9.9202 1.5309 0.9604
-0.9321 9.9546 1.5317 0.9603
-1.2873 9.9154 1.5317 0.9603
-2.0127 9.8996 1.5476 0.9599
-2.3863 9.9092 1.5614 0.9596
-2.7671 9.9190 1.5776 0.9592
-4.7940 12.0282 1.9836 0.9490
-5.3054 12.0413 2.0158 0.9481
-5.8343 12.0549 2.0517 0.9472
35.5644 -34.2121 6.4262 0.8195
45.7480 14.4588 6.2478 0.8240
37.8622 15.0171 5.3041 0.8485
37.9036 16.6245 5.3897 0.8462
37.9465 18.2868 5.4853 0.8437
38.0372 21.8063 5.7095 0.8379
7.3729 9.5563 1.5718 0.9525
6.8521 9.5697 1.5327 0.9536
6.4381 9.7064 1.5167 0.9541
6.0883 9.9321 1.5170 0.9541
5.7306 10.1451 1.5173 0.9541
4.9932 10.5321 1.5178 0.9541
4.2296 10.8654 1.5183 0.9541
3.5284 10.1195 1.3956 0.9577
2.6616 11.4562 1.5316 0.9537
1.8371 11.6200 1.5320 0.9537
1.4209 11.6796 1.5321 0.9536
0.5833 11.7537 1.5325 0.9536
-1.5157 11.6751 1.5331 0.9536
-2.3459 11.5384 1.5333 0.9536
-2.7568 11.4477 1.5333 0.9536
-3.1642 11.3423 1.5334 0.9536
-4.7482 10.7766 1.5335 0.9536
-5.5056 10.4099 1.5335 0.9536
36.0207 -27.8870 4.8917 0.8325
30.7658 -18.9301 3.8790 0.8647
36.2998 3.3378 3.9144 0.8636
36.3317 5.9813 3.9539 0.8623
40.9826 14.5827 4.6711 0.8395
37.8619 15.0170 4.3738 0.8489
38.0199 16.6755 4.4581 0.8462
37.9461 18.2866 4.5232 0.8441
37.9906 20.0111 4.6108 0.8414
38.0369 21.8061 4.7081 0.8383
39.2382 28.4748 5.2060 0.8228
11.2446 9.4566 1.5777 0.9426
10.4835 9.4762 1.5175 0.9447
9.7705 10.1907 1.5160 0.9448
9.0221 10.8678 1.5167 0.9448
8.2269 11.4898 1.5175 0.9447
7.1230 11.6201 1.4636 0.9466
6.5718 11.6343 1.4348 0.9477
5.0318 11.6740 1.3651 0.9501
2.3015 11.8054 1.2915 0.9528
1.4438 11.8680 1.2838 0.9530
1.0160 11.8790 1.2802 0.9532
-1.1175 11.9340 1.2871 0.9529
-2.4332 11.9679 1.3114 0.9521
-3.3453 11.9913 1.3368 0.9512
-3.8158 12.0035 1.3525 0.9506
-4.7942 12.0286 1.3905 0.9492
-5.3056 12.0418 1.4130 0.9484
35.8676 -32.1168 4.0756 0.8243
45.7526 14.4603 4.0619 0.8248
40.9844 14.5834 3.6825 0.8398
37.8615 15.0169 3.4480 0.8492
37.8323 16.5932 3.4971 0.8472
37.9458 18.2864 3.5658 0.8444
13.3195 9.6658 1.3931 0.9361
13.5595 10.5998 1.4570 0.9332
13.5215 11.3714 1.4956 0.9315
11.0441 11.5192 1.3509 0.9379
9.5940 11.5566 1.2715 0.9415
8.2986 11.5900 1.2067 0.9444
7.1232 11.6203 1.1538 0.9468
5.0328 11.6763 1.0763 0.9502
4.5502 11.6889 1.0618 0.9509
3.5282 10.1190 0.9072 0.9579
2.7502 11.8376 1.0288 0.9524
2.3100 11.8490 1.0219 0.9527
1.4438 11.8682 1.0121 0.9531
1.0160 11.8792 1.0093 0.9533
0.1648 11.9012 1.0076 0.9533
-1.5589 12.0073 1.0250 0.9526
-2.8616 11.8830 1.0347 0.9521
-3.3453 11.9915 1.0539 0.9513
-4.2983 12.0161 1.0803 0.9501
-5.3057 12.0420 1.1139 0.9485
-5.8346 12.0556 1.1338 0.9477
-16.7840 31.7351 3.0390 0.8658
44.4713 12.3261 2.8616 0.8311
45.7550 14.4610 2.9756 0.8250
37.9899 20.0107 2.6626 0.8419
38.0362 21.8057 2.7187 0.8389
14.0983 11.0210 1.1097 0.9308
36.2478 30.4839 2.9369 0.8271
12.6968 11.4768 1.0613 0.9337
11.7453 11.4053 1.0152 0.9365
10.9910 11.4637 0.9848 0.9383
10.2135 11.4448 0.9512 0.9404
9.5941 11.5568 0.9314 0.9416
8.9762 11.6345 0.9112 0.9428
7.1233 11.6205 0.8452 0.9468
6.0413 11.6484 0.8137 0.9488
5.0348 11.6810 0.7888 0.9503
4.5520 11.6936 0.7781 0.9510
3.5281 10.1187 0.6645 0.9580
3.6144 11.6947 0.7590 0.9521
1.4439 11.8684 0.7414 0.9532
1.0161 11.8794 0.7393 0.9533
0.1648 11.9013 0.7381 0.9534
-0.6817 11.8159 0.7339 0.9537
-1.1175 11.9344 0.7433 0.9531
-1.5589 12.0075 0.7508 0.9526
-2.4333 11.9683 0.7573 0.9522
-2.8617 11.8833 0.7580 0.9522
-3.3454 11.9917 0.7720 0.9513
-3.8160 12.0039 0.7811 0.9508
-4.2984 12.0163 0.7914 0.9501
35.6426 -25.6111 1.7306 0.8389
43.4715 12.0489 1.7787 0.8348
42.7677 13.5169 1.7686 0.8356
40.9882 14.5847 1.7155 0.8402
37.8609 15.0166 1.6060 0.8496
38.0358 21.8055 1.7288 0.8390
36.7869 22.8737 1.7081 0.8408
13.3202 9.6663 0.6490 0.9362
11.7456 11.4056 0.6456 0.9366
10.2137 11.4451 0.6049 0.9404
9.5943 11.5571 0.5923 0.9416
8.9764 11.6347 0.5794 0.9429
8.2990 11.5905 0.5621 0.9445
6.5721 11.6350 0.5269 0.9479
6.0414 11.6487 0.5174 0.9488
5.0368 11.6856 0.5018 0.9503
3.5280 10.1185 0.4225 0.9580
3.6145 11.6949 0.4827 0.9522
3.1962 11.8234 0.4829 0.9522
2.3117 11.8579 0.4764 0.9528
1.8754 11.8624 0.4736 0.9531
1.0161 11.8796 0.4701 0.9534
0.5901 11.8906 0.4694 0.9535
-0.2608 11.9125 0.4698 0.9534
-0.6817 11.8161 0.4667 0.9537
-1.5589 12.0077 0.4774 0.9527
-2.8617 11.8835 0.4820 0.9522
-3.3454 11.9920 0.4909 0.9514
-3.8160 12.0041 0.4967 0.9508
-4.2985 12.0165 0.5032 0.9502
45.7595 14.4625 0.8106 0.8253
38.0186 16.6749 0.7013 0.8470
37.9448 18.2860 0.7115 0.8449
37.9892 20.0104 0.7253 0.8422
38.0354 21.8053 0.7406 0.8391
13.3206 9.6666 0.2780 0.9363
32.3810 25.3131 0.6943 0.8484
12.6974 11.4774 0.2891 0.9338
9.5946 11.5573 0.2537 0.9417
8.9766 11.6350 0.2482 0.9429
8.2991 11.5907 0.2408 0.9446
7.1236 11.6210 0.2302 0.9469
6.0415 11.6489 0.2217 0.9489
4.5556 11.7027 0.2121 0.9510
3.5279 10.1182 0.1810 0.9580
3.6145 11.6951 0.2068 0.9522
3.1962 11.8236 0.2069 0.9522
2.3126 11.8624 0.2041 0.9528
1.4439 11.8688 0.2020 0.9533
1.0161 11.8798 0.2014 0.9534
0.5901 11.8908 0.2011 0.9535
-0.2608 11.9127 0.2013 0.9534
-1.1175 11.9348 0.2025 0.9532
-1.6130 9.6964 0.1660 0.9614
-2.4334 11.9687 0.2063 0.9523
-2.8618 11.8837 0.2065 0.9523
-3.3455 11.9921 0.2103 0.9514
-3.8161 12.0043 0.2128 0.9509
-4.2986 12.0167 0.2156 0.9502
-11.1696 21.1194 0.4036 0.9088
34.8810 -31.2334 -0.2636 0.8292
34.9408 -29.1059 -0.2560 0.8337
35.0027 -27.0990 -0.2492 0.8377
35.1137 -23.3751 -0.2375 0.8447
45.7618 14.4632 -0.2702 0.8253
40.9919 14.5861 -0.2450 0.8403
37.8602 15.0164 -0.2293 0.8497
36.1098 20.7014 -0.2343 0.8466
35.7790 22.2469 -0.2372 0.8449
13.3209 9.6669 -0.0927 0.9363
29.2491 22.8647 -0.2090 0.8620
27.2671 22.9312 -0.2006 0.8672
11.7461 11.4061 -0.0922 0.9366
10.2142 11.4455 -0.0864 0.9405
9.5947 11.5576 -0.0846 0.9417
8.9768 11.6352 -0.0827 0.9429
7.1237 11.6212 -0.0767 0.9469
6.0416 11.6491 -0.0739 0.9489
5.5343 11.6736 -0.0727 0.9496
3.5278 10.1179 -0.0603 0.9580
3.6146 11.6953 -0.0689 0.9522
3.1963 11.8238 -0.0690 0.9522
2.7543 11.8554 -0.0685 0.9525
1.4439 11.8690 -0.0673 0.9533
1.0161 11.8800 -0.0671 0.9534
0.5901 11.8910 -0.0670 0.9535
0.1648 11.9019 -0.0670 0.9535
-0.2608 11.9129 -0.0671 0.9535
-1.5590 12.0081 -0.0682 0.9527
-1.6128 9.6951 -0.0553 0.9614
-2.4334 11.9689 -0.0688 0.9523
-3.3455 11.9924 -0.0701 0.9514
-3.8162 12.0045 -0.0709 0.9509
-4.2986 12.0169 -0.0719 0.9502
-4.7946 12.0297 -0.0729 0.9495
-5.8350 12.0565 -0.0754 0.9478
-10.7877 20.3973 -0.1299 0.9118
34.8159 -33.4921 -1.3603 0.8242
34.9394 -29.1046 -1.2804 0.8336
35.0030 -27.0992 -1.2465 0.8377
35.0598 -25.1923 -1.2156 0.8413
35.1139 -23.3753 -1.1878 0.8447
40.4318 -22.9277 -1.3088 0.8303
44.2272 -23.0317 -1.4041 0.8191
42.2439 13.3514 -1.2475 0.8375
36.0234 17.3600 -1.1260 0.8521
36.0656 18.9971 -1.1478 0.8495
34.8633 19.9867 -1.1316 0.8515
30.7704 20.6928 -1.0441 0.8621
11.6160 9.7689 -0.4274 0.9411
8.2994 11.5912 -0.4014 0.9445
5.5902 9.8967 -0.3201 0.9555
6.0417 11.6493 -0.3695 0.9488
5.0409 11.6952 -0.3586 0.9503
3.1098 10.0620 -0.2965 0.9587
2.7227 10.0720 -0.2938 0.9591
1.8773 11.8744 -0.3385 0.9530
1.0161 11.8802 -0.3357 0.9534
-1.1176 11.9352 -0.3375 0.9532
-1.6126 9.6938 -0.2767 0.9614
-2.0729 10.1955 -0.2930 0.9592
-2.8852 11.9807 -0.3470 0.9519
-3.8162 12.0047 -0.3547 0.9508
-5.3062 12.0431 -0.3706 0.9487
-5.8351 12.0567 -0.3772 0.9478
25.9768 -23.2603 -1.7683 0.8697
27.9708 -23.2998 -1.8462 0.8643
35.1142 -23.3755 -2.1393 0.8446
37.1244 -22.8425 -2.2106 0.8398
40.4302 -22.9267 -2.3571 0.8301
41.5869 -21.6567 -2.3779 0.8288
44.1755 -15.4857 -2.3740 0.8290
47.5819 -14.7932 -2.5270 0.8191
49.1150 -7.8493 -2.5224 0.8194
49.6038 1.0029 -2.5161 0.8198
49.5101 2.7731 -2.5148 0.8199
49.3530 4.5380 -2.5135 0.8200
49.1329 6.2951 -2.5121 0.8200
48.8499 8.0422 -2.5107 0.8201
42.2010 11.6968 -2.2209 0.8391
37.8596 15.0161 -2.0655 0.8495
35.9825 15.7819 -1.9926 0.8544
35.4512 17.0843 -1.9958 0.8542
31.8842 18.2788 -1.8639 0.8631
29.8969 18.5895 -1.7854 0.8685
13.3216 9.6674 -0.8348 0.9362
24.7250 19.3282 -1.5916 0.8819
12.6983 11.4782 -0.8681 0.9337
10.2984 11.5399 -0.7844 0.9399
8.1611 9.8307 -0.6480 0.9501
7.5958 9.8452 -0.6306 0.9514
7.1240 11.6216 -0.6913 0.9469
5.5903 9.8968 -0.5764 0.9555
6.0418 11.6495 -0.6655 0.9488
3.8716 9.9457 -0.5413 0.9582
2.7228 10.0722 -0.5291 0.9591
1.8767 11.8704 -0.6095 0.9530
1.0162 11.8804 -0.6047 0.9534
0.1648 11.9023 -0.6037 0.9534
-0.6817 11.8168 -0.6003 0.9537
-2.0729 10.1957 -0.5277 0.9592
-2.8852 11.9809 -0.6250 0.9518
-2.8499 10.2157 -0.5379 0.9584
-3.8163 12.0049 -0.6388 0.9508
-5.3063 12.0433 -0.6674 0.9487
-5.8352 12.0570 -0.6793 0.9478
-6.3403 11.9882 -0.6878 0.9471
26.4631 -22.0438 -2.5253 0.8710
27.2289 -21.0805 -2.5249 0.8710
27.9594 -20.0903 -2.5244 0.8710
28.6536 -19.0746 -2.5239 0.8710
29.3105 -18.0347 -2.5233 0.8711
29.9291 -16.9720 -2.5228 0.8711
30.5094 -15.8880 -2.5222 0.8711
31.0498 -14.7840 -2.5215 0.8712
31.5501 -13.6617 -2.5209 0.8712
32.4408 -11.3721 -2.5205 0.8712
32.8164 -10.2026 -2.5198 0.8712
33.1496 -9.0208 -2.5190 0.8713
33.4401 -7.8280 -2.5182 0.8713
33.6878 -6.6261 -2.5174 0.8714
33.8920 -5.4164 -2.5166 0.8714
34.2435 -1.7569 -2.5141 0.8715
34.2730 -0.5321 -2.5133 0.8716
33.6119 8.0348 -2.5339 0.8706
34.2134 9.4829 -2.6032 0.8673
34.3203 10.8471 -2.6391 0.8656
33.8661 12.0505 -2.6356 0.8657
33.2798 13.1996 -2.6251 0.8662
30.7070 14.7980 -2.4993 0.8722
28.0449 16.0778 -2.3703 0.8784
26.5941 16.5359 -2.2961 0.8820
14.4182 9.6961 -1.2740 0.9327
10.7406 9.7086 -1.0616 0.9436
9.3716 9.7748 -0.9929 0.9471
8.7377 9.7911 -0.9622 0.9487
7.5770 9.8209 -0.9095 0.9515
7.1143 9.9360 -0.8960 0.9522
7.6988 11.6071 -1.0212 0.9457
5.5904 9.8970 -0.8334 0.9554
6.0419 11.6497 -0.9622 0.9487
5.5305 11.6655 -0.9466 0.9495
5.0339 11.6787 -0.9325 0.9503
3.8715 9.9455 -0.7825 0.9581
3.5276 10.1172 -0.7856 0.9579
3.1099 10.0624 -0.7722 0.9586
1.8755 11.8626 -0.8806 0.9530
1.0162 11.8806 -0.8743 0.9533
0.5027 10.1295 -0.7436 0.9601
-0.2608 11.9135 -0.8737 0.9533
-1.1176 11.9356 -0.8790 0.9531
-1.5510 11.9467 -0.8833 0.9528
-1.6122 9.6913 -0.7204 0.9614
-2.0730 10.1959 -0.7629 0.9591
-3.8164 12.0051 -0.9236 0.9507
-5.8353 12.0572 -0.9822 0.9477
-6.3404 11.9884 -0.9944 0.9471
18.9170 -18.1977 -2.5200 0.8999
20.1634 -16.7962 -2.5194 0.8999
21.3055 -15.3090 -2.5187 0.8999
21.8354 -14.5357 -2.5183 0.9000
22.8100 -12.9348 -2.5175 0.9000
23.2534 -12.1094 -2.5170 0.9000
24.0495 -10.4138 -2.5160 0.9000
24.7214 -8.6661 -2.5150 0.9001
25.8430 -4.1301 -2.5125 0.9002
26.1623 0.5289 -2.5122 0.9002
26.1201 1.4630 -2.5116 0.9002
26.0445 2.3948 -2.5110 0.9002
25.7940 4.2465 -2.5097 0.9003
25.6194 5.1641 -2.5091 0.9003
25.0035 8.8969 -2.5479 0.8988
25.0888 9.9508 -2.5912 0.8972
24.2182 12.7566 -2.6279 0.8958
22.8233 14.1912 -2.5802 0.8976
14.4180 9.6960 -1.6681 0.9326
13.2885 9.6433 -1.5763 0.9362
11.5208 9.6887 -1.4452 0.9413
10.7408 9.7088 -1.3900 0.9435
7.0202 9.8045 -1.1577 0.9527
2.7647 10.2275 -1.0171 0.9583
2.3366 10.0575 -0.9913 0.9594
1.9626 10.0671 -0.9847 0.9596
1.5931 10.0766 -0.9794 0.9598
1.2270 10.0860 -0.9754 0.9600
0.5015 10.1047 -0.9713 0.9602
-0.2216 10.1234 -0.9721 0.9601
-2.1066 10.3613 -1.0151 0.9584
-2.4751 10.2778 -1.0149 0.9584
-3.2330 10.1700 -1.0245 0.9580
-4.0619 10.1914 -1.0533 0.9569
-4.4952 10.2026 -1.0704 0.9562
-5.4084 10.2261 -1.1106 0.9546
15.2661 -14.6857 -2.5163 0.9182
15.7796 -14.1295 -2.5160 0.9182
16.2727 -13.5552 -2.5158 0.9182
16.7448 -12.9637 -2.5155 0.9182
19.1043 -9.0963 -2.5134 0.9183
19.4140 -8.4066 -2.5130 0.9183
20.5807 -4.8178 -2.5108 0.9184
20.8640 -3.3344 -2.5098 0.9184
20.9655 -2.5863 -2.5093 0.9184
21.0402 -1.8351 -2.5088 0.9184
21.0878 -1.0819 -2.5082 0.9185
21.0685 1.1802 -2.5066 0.9185
20.7099 4.1745 -2.5095 0.9184
20.5433 4.9108 -2.5090 0.9184
20.3507 5.6406 -2.5085 0.9185
20.1322 6.3628 -2.5080 0.9185
19.8881 7.0767 -2.5075 0.9185
19.7606 7.8376 -2.5252 0.9179
19.2677 10.1490 -2.5868 0.9160
19.0949 10.9469 -2.6145 0.9152
17.5855 10.9344 -2.4598 0.9200
14.3067 9.6211 -2.0480 0.9329
10.0176 9.7277 -1.6587 0.9453
9.3431 9.7450 -1.6036 0.9471
8.7110 9.7612 -1.5541 0.9487
5.1105 9.8538 -1.3186 0.9563
3.4857 9.9971 -1.2576 0.9582
1.9566 10.0365 -1.2146 0.9596
1.5882 10.0459 -1.2081 0.9599
1.2233 10.0553 -1.2032 0.9600
0.4999 10.0740 -1.1981 0.9602
0.1396 10.0833 -1.1979 0.9602
-0.9468 10.1112 -1.2063 0.9599
-1.3139 10.1207 -1.2123 0.9597
-1.6117 9.6887 -1.1667 0.9612
-2.8343 10.1599 -1.2529 0.9584
-3.6418 10.1807 -1.2844 0.9574
-4.0620 10.1916 -1.3032 0.9568
-4.4953 10.2027 -1.3244 0.9561
-4.9435 10.2143 -1.3479 0.9553
-5.4085 10.2263 -1.3742 0.9545
14.4021 -10.3486 -2.5128 0.9309
14.7611 -9.8265 -2.5125 0.9309
15.4217 -8.7452 -2.5120 0.9309
15.7223 -8.1876 -2.5117 0.9309
17.0899 -4.6505 -2.5095 0.9309
17.2425 -4.0363 -2.5091 0.9310
17.5665 -2.1670 -2.5079 0.9310
17.6297 -1.5376 -2.5074 0.9310
17.6881 -0.2746 -2.5065 0.9310
17.6833 0.3575 -2.5060 0.9310
17.6559 0.9889 -2.5056 0.9311
17.6060 1.6189 -2.5051 0.9311
17.5335 2.2465 -2.5046 0.9311
17.3215 3.4915 -2.5036 0.9311
17.1823 4.1074 -2.5031 0.9311
17.0212 4.7177 -2.5026 0.9311
15.8997 7.6622 -2.5008 0.9312
15.6178 8.2265 -2.5011 0.9312
14.5406 8.3359 -2.3748 0.9345
13.7521 9.2482 -2.3481 0.9352
11.5213 9.6893 -2.1330 0.9410
10.7414 9.7093 -2.0515 0.9432
10.0179 9.7279 -1.9785 0.9451
9.3433 9.7452 -1.9129 0.9469
8.1164 9.7767 -1.8004 0.9500
7.5541 9.7912 -1.7522 0.9513
6.5121 9.8180 -1.6693 0.9535
5.1106 9.8540 -1.5728 0.9561
4.6769 9.8651 -1.5469 0.9569
3.8486 9.8864 -1.5032 0.9580
3.4858 9.9973 -1.5001 0.9581
2.7079 10.0173 -1.4703 0.9589
2.3295 10.0270 -1.4586 0.9593
1.5883 10.0461 -1.4411 0.9597
0.8609 10.0648 -1.4313 0.9600
0.5000 10.0741 -1.4292 0.9601
-0.5828 10.1020 -1.4337 0.9599
-0.9468 10.1114 -1.4389 0.9598
-1.6115 9.6875 -1.3915 0.9611
-2.8344 10.1601 -1.4945 0.9583
-4.4954 10.2029 -1.5797 0.9560
-4.9435 10.2145 -1.6079 0.9552
10.9884 -10.5705 -2.5118 0.9401
11.7135 -9.7574 -2.5115 0.9401
12.3784 -8.8946 -2.5111 0.9401
12.9796 -7.9864 -2.5106 0.9401
13.7554 -6.5495 -2.5098 0.9401
13.9790 -6.0531 -2.5095 0.9401
14.3721 -5.0381 -2.5089 0.9401
14.5410 -4.5208 -2.5086 0.9401
14.6913 -3.9978 -2.5082 0.9401
14.9352 -2.9377 -2.5076 0.9402
15.0284 -2.4019 -2.5072 0.9402
15.1923 -0.7795 -2.5061 0.9402
15.2081 -0.2361 -2.5057 0.9402
15.2044 0.3074 -2.5053 0.9402
15.1812 0.8503 -2.5049 0.9402
15.0768 1.9317 -2.5040 0.9402
14.9956 2.4687 -2.5036 0.9403
14.8953 3.0025 -2.5032 0.9403
14.4810 4.5767 -2.5019 0.9403
13.9009 6.0969 -2.5006 0.9403
13.6718 6.5885 -2.5002 0.9403
13.1618 7.5455 -2.4993 0.9404
12.8815 8.0096 -2.4989 0.9404
12.1879 8.1963 -2.4196 0.9422
11.5372 8.3724 -2.3484 0.9438
10.5580 9.5436 -2.3446 0.9439
9.3435 9.7454 -2.2241 0.9467
8.7114 9.7617 -2.1554 0.9483
7.5542 9.7914 -2.0373 0.9511
6.5122 9.8182 -1.9409 0.9534
6.0261 9.8306 -1.8995 0.9543
4.2569 9.8761 -1.7717 0.9573
3.4858 9.9974 -1.7442 0.9580
3.0930 10.0076 -1.7256 0.9584
1.9567 10.0368 -1.6846 0.9594
1.5883 10.0463 -1.6756 0.9596
0.8609 10.0650 -1.6642 0.9599
0.1396 10.0836 -1.6613 0.9599
-0.5828 10.1022 -1.6670 0.9598
-0.9468 10.1116 -1.6731 0.9597
-1.3140 10.1211 -1.6813 0.9595
-1.5957 9.5925 -1.6020 0.9613
-2.0617 10.1403 -1.7047 0.9589
-2.4443 10.1502 -1.7199 0.9586
-2.8344 10.1603 -1.7377 0.9581
-3.6419 10.1811 -1.7813 0.9571
-4.4955 10.2031 -1.8368 0.9558
-4.9436 10.2147 -1.8695 0.9550
-5.4087 10.2267 -1.9058 0.9542
9.6254 -9.2594 -2.5104 0.9471
9.9495 -8.9091 -2.5103 0.9471
10.2608 -8.5473 -2.5101 0.9471
10.5589 -8.1746 -2.5099 0.9471
11.1141 -7.3986 -2.5096 0.9471
11.8388 -6.1652 -2.5089 0.9471
12.2465 -5.3029 -2.5084 0.9471
13.0854 -2.5738 -2.5067 0.9472
13.1674 -2.1043 -2.5064 0.9472
13.2325 -1.6323 -2.5060 0.9472
13.3117 -0.6829 -2.5054 0.9472
13.2118 1.6927 -2.5036 0.9472
13.1409 2.1634 -2.5032 0.9472
13.0533 2.6312 -2.5029 0.9472
12.5378 4.4613 -2.5013 0.9473
12.3685 4.9056 -2.5010 0.9473
11.9829 5.7746 -2.5002 0.9473
11.5364 6.6137 -2.4994 0.9473
11.2910 7.0205 -2.4991 0.9473
11.0313 7.4184 -2.4987 0.9473
10.4677 8.1829 -2.4974 0.9474
9.7530 8.2021 -2.3953 0.9495
9.2643 8.3742 -2.3473 0.9504
8.9492 8.6902 -2.3447 0.9505
8.6318 9.0030 -2.3443 0.9505
7.0207 9.8053 -2.2667 0.9521
6.5123 9.8183 -2.2145 0.9532
6.0262 9.8308 -2.1674 0.9542
5.5598 9.8428 -2.1248 0.9550
5.1108 9.8544 -2.0865 0.9558
3.8487 9.8868 -1.9942 0.9577
3.0930 10.0077 -1.9689 0.9583
2.7080 10.0176 -1.9505 0.9586
2.3296 10.0274 -1.9349 0.9590
1.9567 10.0370 -1.9221 0.9592
0.8609 10.0652 -1.8988 0.9597
0.1396 10.0837 -1.8955 0.9598
-0.2210 10.0930 -1.8976 0.9597
-0.9468 10.1118 -1.9089 0.9595
-1.3140 10.1212 -1.9184 0.9593
-2.4444 10.1504 -1.9624 0.9584
-3.2332 10.1707 -2.0060 0.9575
-3.6420 10.1813 -2.0324 0.9569
-4.4956 10.2033 -2.0957 0.9556
8.5552 -8.2299 -2.5093 0.9526
9.3852 -7.2659 -2.5089 0.9526
10.8858 -4.7137 -2.5075 0.9527
11.0463 -4.3214 -2.5073 0.9527
11.3245 -3.5208 -2.5068 0.9527
11.5446 -2.7025 -2.5063 0.9527
11.7055 -1.8707 -2.5057 0.9527
11.7635 -1.4511 -2.5054 0.9527
11.8343 -0.6072 -2.5048 0.9527
11.8470 -0.1839 -2.5045 0.9527
11.8445 0.2395 -2.5042 0.9527
11.7942 1.0845 -2.5036 0.9527
11.7464 1.5050 -2.5032 0.9527
11.6059 2.3394 -2.5026 0.9527
11.5134 2.7522 -2.5023 0.9528
11.4061 3.1614 -2.5019 0.9528
11.1482 3.9668 -2.5013 0.9528
10.4637 5.5116 -2.4999 0.9528
10.2587 5.8812 -2.4996 0.9528
9.5666 6.9424 -2.4986 0.9528
9.3112 7.2788 -2.4982 0.9528
8.4306 8.1865 -2.4840 0.9531
7.0836 8.5327 -2.3442 0.9557
6.7734 8.7793 -2.3439 0.9557
5.7930 9.4504 -2.3431 0.9557
5.4511 9.6503 -2.3428 0.9557
4.2571 9.8765 -2.2734 0.9570
3.4859 9.9978 -2.2381 0.9576
2.7081 10.0178 -2.1936 0.9585
2.3297 10.0275 -2.1761 0.9588
1.2234 10.0560 -2.1413 0.9594
0.8609 10.0654 -2.1354 0.9595
0.5000 10.0746 -2.1322 0.9596
0.1397 10.0839 -2.1317 0.9596
-0.9469 10.1119 -2.1468 0.9593
-1.5846 9.5253 -2.0411 0.9613
-1.9391 9.5375 -2.0573 0.9610
-2.8345 10.1606 -2.2298 0.9578
-3.2333 10.1709 -2.2559 0.9573
-3.6421 10.1814 -2.2857 0.9568
-4.0571 10.1792 -2.3163 0.9562
-5.1737 9.7824 -2.3392 0.9558
7.6918 -7.3993 -2.5084 0.9571
7.9509 -7.1195 -2.5083 0.9571
9.0871 -5.5912 -2.5076 0.9571
9.2804 -5.2627 -2.5074 0.9571
9.4618 -4.9273 -2.5072 0.9571
9.7880 -4.2384 -2.5068 0.9571
10.0639 -3.5279 -2.5064 0.9571
10.2883 -2.7997 -2.5059 0.9571
10.4599 -2.0574 -2.5054 0.9571
10.5257 -1.6822 -2.5052 0.9571
4.1671 -0.5141 -0.9868 0.9829
4.1190 -0.0640 -0.9682 0.9832
4.1220 0.0833 -0.9690 0.9832
4.1716 0.2337 -0.9820 0.9830
10.5635 1.3535 -2.5030 0.9572
10.4375 2.1038 -2.5024 0.9572
10.3544 2.4752 -2.5021 0.9572
10.2581 2.8432 -2.5018 0.9572
9.5836 4.6184 -2.5003 0.9572
9.4113 4.9573 -2.5000 0.9572
9.0311 5.6154 -2.4993 0.9572
8.6049 6.2445 -2.4987 0.9573
8.3753 6.5471 -2.4984 0.9573
8.1350 6.8414 -2.4982 0.9573
7.6239 7.4032 -2.4976 0.9573
7.0741 7.9270 -2.4970 0.9573
6.3242 8.1971 -2.4332 0.9584
5.8773 8.2085 -2.3727 0.9594
5.5124 8.3107 -2.3438 0.9599
4.9038 8.6814 -2.3433 0.9599
4.5900 8.8502 -2.3431 0.9599
3.9455 9.1537 -2.3427 0.9599
3.6156 9.2880 -2.3425 0.9599
3.2812 9.4105 -2.3423 0.9599
2.9426 9.5209 -2.3421 0.9599
2.6003 9.6193 -2.3419 0.9599
1.5557 9.8401 -2.3414 0.9599
1.2030 9.8888 -2.3412 0.9599
0.8489 9.9249 -2.3411 0.9599
0.1379 9.9590 -2.3408 0.9599
-0.5736 9.9425 -2.3406 0.9599
-0.9285 9.9152 -2.3405 0.9599
-1.9216 9.4517 -2.2668 0.9611
-2.3313 9.6806 -2.3402 0.9599
-3.0165 9.4891 -2.3401 0.9599
-3.6864 9.2492 -2.3401 0.9599
7.2151 -6.4605 -2.5076 0.9608
7.4410 -6.1984 -2.5075 0.9608
7.8638 -5.6505 -2.5072 0.9608
8.2463 -5.0739 -2.5069 0.9608
8.4218 -4.7757 -2.5067 0.9608
8.5865 -4.4714 -2.5066 0.9608
8.7401 -4.1615 -2.5064 0.9608
8.8826 -3.8463 -2.5062 0.9608
9.0137 -3.5262 -2.5060 0.9608
9.1332 -3.2017 -2.5058 0.9608
9.3369 -2.5408 -2.5054 0.9608
9.4929 -1.8672 -2.5050 0.9608
3.7298 -0.4601 -0.9730 0.9846
3.7255 -0.3249 -0.9683 0.9847
3.7282 -0.1913 -0.9666 0.9847
3.7306 -0.0579 -0.9660 0.9847
3.7575 0.2104 -0.9744 0.9846
3.8414 0.3532 -0.9988 0.9842
9.5367 1.5700 -2.5025 0.9609
9.4735 1.9096 -2.5022 0.9609
9.3109 2.5807 -2.5017 0.9609
9.2118 2.9114 -2.5014 0.9609
8.9784 3.5610 -2.5008 0.9609
8.8444 3.8792 -2.5006 0.9609
8.6992 4.1922 -2.5003 0.9609
8.5429 4.4999 -2.5000 0.9609
8.0097 5.3864 -2.4992 0.9609
6.1603 7.4204 -2.4971 0.9609
5.8906 7.6351 -2.4968 0.9609
5.0192 8.1879 -2.4866 0.9611
4.6303 8.1972 -2.4376 0.9618
3.5822 8.3107 -2.3432 0.9633
2.3609 8.7336 -2.3425 0.9633
2.0472 8.8118 -2.3423 0.9633
1.0923 8.9786 -2.3419 0.9633
0.1252 9.0425 -2.3415 0.9633
-0.8430 9.0029 -2.3412 0.9633
-1.8014 8.8602 -2.3410 0.9633
-2.4294 8.7085 -2.3409 0.9633
-3.0451 8.5126 -2.3408 0.9633
-3.3472 8.3983 -2.3408 0.9633
-3.6452 8.2733 -2.3408 0.9633
-3.9763 8.2158 -2.3633 0.9630
-4.3413 8.2085 -2.4043 0.9624
6.3823 -6.1396 -2.5071 0.9639
6.5973 -5.9074 -2.5070 0.9639
6.8039 -5.6677 -2.5069 0.9639
7.1906 -5.1668 -2.5066 0.9639
8.1225 -3.5172 -2.5057 0.9639
8.2424 -3.2245 -2.5055 0.9639
8.3517 -2.9277 -2.5054 0.9639
8.4503 -2.6272 -2.5052 0.9639
4.7908 -0.9423 -1.3822 0.9799
3.4646 -0.3022 -0.9845 0.9856
3.4670 -0.1779 -0.9828 0.9857
3.4695 0.0701 -0.9824 0.9857
3.5617 0.3275 -1.0125 0.9852
4.7959 0.6145 -1.3688 0.9801
8.7217 1.4358 -2.5023 0.9639
8.6640 1.7464 -2.5021 0.9639
8.5155 2.3602 -2.5016 0.9639
8.2115 3.2569 -2.5008 0.9639
8.0891 3.5479 -2.5005 0.9639
7.9564 3.8342 -2.5003 0.9639
7.6607 4.3918 -2.4998 0.9640
7.1448 5.1847 -2.4990 0.9640
6.9541 5.4362 -2.4988 0.9640
6.1063 6.3690 -2.4978 0.9640
5.6348 6.7876 -2.4974 0.9640
5.3882 6.9839 -2.4971 0.9640
5.1348 7.1714 -2.4969 0.9640
4.8749 7.3496 -2.4967 0.9640
4.3368 7.6777 -2.4963 0.9640
4.0594 7.8271 -2.4961 0.9640
3.7768 7.9665 -2.4959 0.9640
3.1877 8.1888 -2.4876 0.9641
2.8572 8.1947 -2.4568 0.9646
2.5343 8.1999 -2.4297 0.9649
1.9071 8.2084 -2.3856 0.9656
0.4101 8.2633 -2.3422 0.9662
0.1146 8.2723 -2.3421 0.9662
-0.7712 8.2361 -2.3418 0.9662
-1.3668 8.2154 -2.3577 0.9660
-1.9772 8.2097 -2.3905 0.9655
-2.9320 8.1966 -2.4644 0.9645
-3.8370 7.9280 -2.4934 0.9640
-4.1178 7.7859 -2.4934 0.9640
6.0709 -5.4360 -2.5064 0.9665
6.2610 -5.2154 -2.5064 0.9665
6.4430 -4.9882 -2.5062 0.9665
6.6169 -4.7546 -2.5061 0.9665
6.7822 -4.5149 -2.5060 0.9665
7.0866 -4.0186 -2.5057 0.9665
7.3546 -3.5018 -2.5055 0.9665
7.5850 -2.9673 -2.5051 0.9665
7.6856 -2.6942 -2.5050 0.9665
7.8573 -2.1382 -2.5046 0.9665
7.9281 -1.8559 -2.5044 0.9665
3.3628 -0.6614 -1.0541 0.9858
3.2923 -0.5262 -1.0255 0.9861
3.2751 -0.2857 -1.0112 0.9863
3.2807 0.0663 -1.0093 0.9864
3.2788 0.1837 -1.0101 0.9864
3.3372 0.3068 -1.0308 0.9861
8.0698 1.0339 -2.5024 0.9665
8.0270 1.3214 -2.5022 0.9665
7.9739 1.6073 -2.5019 0.9665
7.6608 2.7259 -2.5010 0.9665
7.5578 2.9976 -2.5008 0.9665
7.4451 3.2654 -2.5005 0.9665
7.1916 3.7881 -2.5001 0.9666
7.0510 4.0422 -2.4998 0.9666
6.9014 4.2912 -2.4996 0.9666
6.4008 5.0037 -2.4989 0.9666
6.2175 5.2287 -2.4987 0.9666
6.0261 5.4470 -2.4985 0.9666
5.6207 5.8625 -2.4980 0.9666
5.4072 6.0590 -2.4978 0.9666
5.1868 6.2479 -2.4976 0.9666
4.9598 6.4286 -2.4974 0.9666
4.7266 6.6012 -2.4972 0.9666
4.4873 6.7654 -2.4970 0.9666
3.9921 7.0674 -2.4966 0.9666
3.7368 7.2050 -2.4964 0.9666
3.4767 7.3334 -2.4963 0.9666
2.9437 7.5620 -2.4959 0.9666
2.6714 7.6618 -2.4957 0.9666
2.3958 7.7519 -2.4956 0.9666
1.8359 7.9022 -2.4953 0.9666
1.2667 8.0123 -2.4950 0.9666
0.9796 8.0521 -2.4949 0.9666
0.6912 8.0815 -2.4948 0.9666
0.4020 8.1007 -2.4947 0.9666
0.1123 8.1096 -2.4946 0.9666
-0.1775 8.1081 -2.4945 0.9666
-0.7561 8.0742 -2.4943 0.9666
-1.0440 8.0418 -2.4942 0.9666
-1.3307 7.9991 -2.4942 0.9666
-1.8984 7.8834 -2.4941 0.9666
-2.1789 7.8104 -2.4940 0.9666
-2.4565 7.7274 -2.4940 0.9666
-2.7310 7.6347 -2.4940 0.9666
-3.5323 7.2985 -2.4940 0.9666
5.6164 -5.0291 -2.5060 0.9687
5.7924 -4.8251 -2.5059 0.9687
6.1217 -4.3987 -2.5057 0.9687
6.4195 -3.9499 -2.5055 0.9687
6.5563 -3.7179 -2.5054 0.9687
6.6846 -3.4810 -2.5052 0.9687
6.9153 -2.9945 -2.5049 0.9687
7.0175 -2.7453 -2.5048 0.9687
7.2696 -1.9782 -2.5043 0.9687
3.1669 -0.6229 -1.0729 0.9865
3.1163 -0.3844 -1.0437 0.9869
3.1205 -0.2722 -1.0412 0.9869
3.1232 -0.1603 -1.0395 0.9869
3.1246 0.0632 -1.0389 0.9869
3.1226 0.1749 -1.0396 0.9869
3.1586 0.2904 -1.0544 0.9867
3.6318 0.4653 -1.2171 0.9847
7.4271 1.2227 -2.5020 0.9688
7.2517 2.0100 -2.5014 0.9688
6.0852 4.4160 -2.4992 0.9688
5.9230 4.6302 -2.4990 0.9688
5.7533 4.8384 -2.4988 0.9688
5.5763 5.0405 -2.4986 0.9688
5.2013 5.4250 -2.4982 0.9688
4.5898 5.9490 -2.4976 0.9688
3.6944 6.5404 -2.4969 0.9688
3.4581 6.6677 -2.4967 0.9688
3.2174 6.7865 -2.4966 0.9688
2.7242 6.9981 -2.4963 0.9688
1.9594 7.2481 -2.4958 0.9688
1.6990 7.3131 -2.4957 0.9688
1.4366 7.3688 -2.4956 0.9688
1.1723 7.4151 -2.4954 0.9689
0.6397 7.4792 -2.4952 0.9689
0.1039 7.5052 -2.4950 0.9689
-0.1643 7.5038 -2.4949 0.9689
-0.9662 7.4425 -2.4947 0.9689
-1.4952 7.3542 -2.4946 0.9689
-2.0165 7.2284 -2.4945 0.9689
-2.2735 7.1517 -2.4945 0.9689
-2.7784 6.9710 -2.4945 0.9689
-3.5084 6.6336 -2.4945 0.9689
5.2198 -4.6740 -2.5056 0.9707
5.5399 -4.2890 -2.5054 0.9707
5.6894 -4.0881 -2.5053 0.9707
5.9663 -3.6711 -2.5051 0.9707
6.0934 -3.4554 -2.5050 0.9707
6.3240 -3.0111 -2.5048 0.9707
6.4272 -2.7831 -2.5046 0.9707
6.5221 -2.5515 -2.5045 0.9707
6.6088 -2.3167 -2.5043 0.9707
6.6869 -2.0790 -2.5042 0.9707
6.7565 -1.8386 -2.5040 0.9707
3.0205 -0.5941 -1.1008 0.9870
2.9828 -0.4767 -1.0802 0.9872
2.9894 -0.3688 -1.0771 0.9873
2.9961 0.1678 -1.0731 0.9873
3.0657 0.3928 -1.1053 0.9870
6.9033 1.1365 -2.5019 0.9707
6.8035 1.6263 -2.5015 0.9707
6.7405 1.8682 -2.5013 0.9707
6.6689 2.1077 -2.5011 0.9707
6.5888 2.3445 -2.5009 0.9707
6.5003 2.5782 -2.5007 0.9707
5.9362 3.6911 -2.4997 0.9707
5.8001 3.9005 -2.4995 0.9707
5.6565 4.1049 -2.4993 0.9707
5.5058 4.3040 -2.4991 0.9707
5.1836 4.6855 -2.4988 0.9708
4.4619 5.3746 -2.4980 0.9708
3.6497 5.9538 -2.4973 0.9708
3.4344 6.0800 -2.4972 0.9708
2.9910 6.3090 -2.4968 0.9708
2.7635 6.4114 -2.4967 0.9708
2.5325 6.5057 -2.4965 0.9708
2.2983 6.5917 -2.4964 0.9708
1.5795 6.7987 -2.4960 0.9708
0.3459 6.9697 -2.4955 0.9708
0.0966 6.9773 -2.4954 0.9708
-0.1527 6.9761 -2.4953 0.9708
-0.4019 6.9660 -2.4952 0.9708
-0.6505 6.9470 -2.4952 0.9708
-1.1449 6.8825 -2.4951 0.9708
-1.3901 6.8371 -2.4950 0.9708
-1.6335 6.7829 -2.4950 0.9708
-1.8748 6.7201 -2.4949 0.9708
-2.5830 6.4808 -2.4949 0.9708
-3.0392 6.2797 -2.4949 0.9708
5.1690 -4.0018 -2.5051 0.9724
5.4412 -3.6222 -2.5049 0.9724
5.9006 -2.8096 -2.5045 0.9724
5.9970 -2.5968 -2.5043 0.9724
6.1665 -2.1617 -2.5041 0.9724
6.2394 -1.9398 -2.5039 0.9724
2.8825 -0.5670 -1.1258 0.9875
2.8824 -0.0448 -1.1047 0.9877
2.8813 0.0583 -1.1044 0.9877
6.3486 1.5176 -2.5015 0.9724
6.1484 2.1878 -2.5009 0.9724
5.8777 2.8325 -2.5003 0.9724
5.6595 3.2446 -2.5000 0.9724
5.4126 3.6399 -2.4996 0.9724
5.2787 3.8307 -2.4994 0.9724
4.9909 4.1972 -2.4990 0.9725
4.6777 4.5423 -2.4987 0.9725
4.5121 4.7062 -2.4985 0.9725
3.7946 5.2996 -2.4978 0.9725
3.6026 5.4315 -2.4977 0.9725
3.2051 5.6742 -2.4974 0.9725
3.0002 5.7847 -2.4972 0.9725
2.7914 5.8879 -2.4971 0.9725
2.5791 5.9836 -2.4969 0.9725
2.3635 6.0716 -2.4968 0.9725
2.1450 6.1518 -2.4967 0.9725
1.7000 6.2887 -2.4964 0.9725
1.4741 6.3451 -2.4963 0.9725
1.2464 6.3934 -2.4962 0.9725
0.7866 6.4656 -2.4960 0.9725
0.5551 6.4893 -2.4959 0.9725
0.3228 6.5048 -2.4958 0.9725
0.0902 6.5120 -2.4957 0.9725
-0.1425 6.5108 -2.4957 0.9725
-0.3750 6.5014 -2.4956 0.9725
-1.0685 6.4235 -2.4954 0.9725
-1.5245 6.3305 -2.4953 0.9725
-1.9727 6.2054 -2.4953 0.9725
-2.1931 6.1309 -2.4953 0.9725
4.4110 -4.2433 -2.5050 0.9739
4.7025 -3.9172 -2.5049 0.9739
4.9699 -3.5712 -2.5047 0.9739
5.3229 -3.0185 -2.5044 0.9739
5.5244 -2.6304 -2.5042 0.9739
5.6146 -2.4312 -2.5041 0.9739
5.8417 -1.8162 -2.5037 0.9739
5.9025 -1.6062 -2.5036 0.9739
2.7683 -0.2414 -1.1373 0.9881
2.7713 -0.1422 -1.1357 0.9881
2.7727 -0.0430 -1.1349 0.9881
2.7726 0.0561 -1.1350 0.9881
2.7749 0.1554 -1.1375 0.9881
2.7800 0.2556 -1.1426 0.9880
2.8074 0.3597 -1.1584 0.9878
5.9443 1.4209 -2.5014 0.9739
5.8893 1.6323 -2.5012 0.9739
5.7569 2.0485 -2.5009 0.9739
5.6796 2.2527 -2.5007 0.9739
5.5951 2.4540 -2.5005 0.9739
5.4048 2.8469 -2.5002 0.9739
4.8111 3.7609 -2.4993 0.9740
4.6733 3.9302 -2.4991 0.9740
4.5296 4.0944 -2.4990 0.9740
4.3801 4.2533 -2.4988 0.9740
4.2251 4.4068 -2.4986 0.9740
4.0647 4.5547 -2.4985 0.9740
3.8991 4.6967 -2.4983 0.9740
3.7285 4.8327 -2.4982 0.9740
3.3735 5.0860 -2.4979 0.9740
3.1892 5.2030 -2.4977 0.9740
2.8094 5.4169 -2.4974 0.9740
2.0086 5.7607 -2.4969 0.9740
1.5919 5.8889 -2.4967 0.9740
1.1672 5.9870 -2.4965 0.9740
0.0844 6.0981 -2.4960 0.9740
-0.1335 6.0970 -2.4960 0.9740
-0.5686 6.0716 -2.4958 0.9740
-0.7851 6.0473 -2.4958 0.9740
-1.0007 6.0153 -2.4957 0.9740
-1.6385 5.8734 -2.4956 0.9740
-1.8473 5.8110 -2.4956 0.9740
-2.4585 5.5800 -2.4956 0.9740
-2.8507 5.3902 -2.4956 0.9740
4.2815 -3.8338 -2.5047 0.9752
4.4156 -3.6782 -2.5046 0.9752
4.6668 -3.3533 -2.5045 0.9752
4.9983 -2.8344 -2.5042 0.9752
5.1875 -2.4700 -2.5040 0.9752
5.3502 -2.0930 -2.5038 0.9752
5.4212 -1.9005 -2.5036 0.9752
5.5426 -1.5083 -2.5034 0.9752
2.6833 -0.6281 -1.2010 0.9880
2.6779 -0.5267 -1.1894 0.9882
2.6879 -0.2345 -1.1759 0.9883
2.6933 0.1508 -1.1756 0.9883
5.5306 1.5329 -2.5012 0.9753
5.4719 1.7294 -2.5010 0.9753
5.4062 1.9237 -2.5008 0.9753
5.3337 2.1155 -2.5007 0.9753
5.2544 2.3046 -2.5005 0.9753
5.1683 2.4906 -2.5004 0.9753
5.0757 2.6736 -2.5002 0.9753
4.5182 3.5320 -2.4994 0.9753
4.3889 3.6909 -2.4992 0.9753
4.2539 3.8452 -2.4991 0.9753
3.9680 4.1386 -2.4988 0.9753
3.8173 4.2775 -2.4986 0.9753
3.1682 4.7766 -2.4980 0.9753
2.8187 4.9901 -2.4978 0.9753
2.6385 5.0874 -2.4976 0.9753
1.2965 5.5804 -2.4968 0.9753
1.0962 5.6229 -2.4967 0.9753
0.8946 5.6583 -2.4966 0.9753
0.6918 5.6865 -2.4965 0.9753
0.2839 5.7210 -2.4964 0.9753
-0.1254 5.7263 -2.4962 0.9753
-0.3299 5.7181 -2.4962 0.9753
-0.5340 5.7025 -2.4961 0.9753
-0.7374 5.6797 -2.4961 0.9753
-0.9398 5.6496 -2.4960 0.9753
-1.3409 5.5679 -2.4960 0.9753
-1.5389 5.5164 -2.4959 0.9753
-1.9289 5.3923 -2.4959 0.9753
-2.3094 5.2407 -2.4959 0.9753
3.8993 -3.7511 -2.5045 0.9764
4.0308 -3.6093 -2.5044 0.9764
4.2780 -3.3120 -2.5043 0.9764
4.5033 -2.9978 -2.5041 0.9764
4.7056 -2.6684 -2.5040 0.9764
4.9635 -2.1493 -2.5037 0.9764
5.1039 -1.7892 -2.5035 0.9764
2.6352 -0.7171 -1.2641 0.9880
2.6112 -0.5136 -1.2319 0.9883
2.6094 -0.3219 -1.2170 0.9885
2.6143 -0.2280 -1.2147 0.9885
2.6175 -0.1343 -1.2132 0.9885
2.6159 0.0529 -1.2111 0.9885
2.6132 0.1463 -1.2115 0.9885
5.2975 1.0678 -2.5014 0.9765
5.2556 1.2563 -2.5013 0.9765
5.1518 1.6282 -2.5010 0.9765
5.0901 1.8112 -2.5008 0.9765
4.9471 2.1698 -2.5005 0.9765
4.8661 2.3450 -2.5004 0.9765
4.7789 2.5172 -2.5002 0.9765
4.4813 3.0136 -2.4997 0.9765
4.3705 3.1716 -2.4996 0.9765
4.1323 3.4752 -2.4993 0.9765
4.0053 3.6204 -2.4991 0.9765
3.8731 3.7610 -2.4990 0.9765
3.7361 3.8967 -2.4989 0.9765
3.5942 4.0275 -2.4987 0.9765
3.4478 4.1532 -2.4986 0.9765
3.1421 4.3883 -2.4983 0.9765
2.8204 4.6010 -2.4980 0.9765
2.4844 4.7902 -2.4978 0.9765
2.3115 4.8757 -2.4977 0.9765
1.7763 5.0943 -2.4973 0.9765
1.5930 5.1543 -2.4972 0.9765
1.4076 5.2078 -2.4971 0.9765
1.0322 5.2946 -2.4969 0.9765
0.8423 5.3279 -2.4969 0.9765
0.6514 5.3544 -2.4968 0.9765
0.2673 5.3870 -2.4966 0.9765
0.0747 5.3929 -2.4965 0.9765
-0.5028 5.3696 -2.4964 0.9765
-0.6943 5.3481 -2.4963 0.9765
-1.0744 5.2847 -2.4962 0.9765
-1.2620 5.2429 -2.4962 0.9765
-1.4495 5.1943 -2.4962 0.9765
-1.6337 5.1392 -2.4962 0.9765
-1.8163 5.0775 -2.4962 0.9765
-2.3492 4.8540 -2.4961 0.9765
-2.5212 4.7670 -2.4961 0.9765
3.6793 -3.5394 -2.5043 0.9775
3.8033 -3.4056 -2.5042 0.9775
3.9225 -3.2674 -2.5042 0.9775
4.3474 -2.6750 -2.5039 0.9775
4.4401 -2.5178 -2.5038 0.9775
4.8730 -1.5150 -2.5032 0.9775
2.6055 -0.7090 -1.3245 0.9880
2.5878 -0.4136 -1.2855 0.9884
2.5899 0.1450 -1.2724 0.9885
2.9274 0.5901 -1.4648 0.9868
4.9594 1.1855 -2.5012 0.9775
4.9136 1.3619 -2.5011 0.9775
4.6684 2.0475 -2.5005 0.9775
4.5919 2.2129 -2.5004 0.9775
4.5097 2.3754 -2.5002 0.9775
4.3280 2.6911 -2.4999 0.9775
4.2289 2.8438 -2.4998 0.9776
4.1243 2.9930 -2.4996 0.9776
3.8996 3.2795 -2.4994 0.9776
3.7797 3.4165 -2.4992 0.9776
3.5257 3.6773 -2.4989 0.9776
3.1114 4.0328 -2.4985 0.9776
2.9652 4.1413 -2.4984 0.9776
2.8152 4.2443 -2.4983 0.9776
2.5047 4.4341 -2.4981 0.9776
2.1814 4.6012 -2.4978 0.9776
2.0155 4.6760 -2.4977 0.9776
1.3286 4.9147 -2.4973 0.9776
1.1521 4.9589 -2.4972 0.9776
0.4338 5.0717 -2.4969 0.9776
0.2523 5.0839 -2.4968 0.9776
-0.1114 5.0887 -2.4967 0.9776
-0.2931 5.0813 -2.4967 0.9776
-0.4745 5.0675 -2.4966 0.9776
-1.0140 4.9874 -2.4965 0.9776
-1.1915 4.9479 -2.4965 0.9776
-1.7141 4.7919 -2.4964 0.9776
-1.8842 4.7276 -2.4964 0.9776
-2.0520 4.6572 -2.4964 0.9776
-2.3793 4.4988 -2.4964 0.9776
3.7085 -3.0892 -2.5040 0.9785
3.8164 -2.9547 -2.5039 0.9785
4.1980 -2.3805 -2.5036 0.9785
4.3569 -2.0745 -2.5034 0.9785
4.4280 -1.9175 -2.5033 0.9785
4.4936 -1.7580 -2.5032 0.9785
4.5534 -1.5962 -2.5031 0.9785
2.6361 -0.8196 -1.4321 0.9876
2.5612 -0.5996 -1.3646 0.9882
2.5655 -0.4100 -1.3478 0.9884
2.5659 -0.1316 -1.3329 0.9885
2.5678 0.2361 -1.3378 0.9884
4.6892 1.1209 -2.5012 0.9785
4.5967 1.4528 -2.5009 0.9785
4.5416 1.6160 -2.5008 0.9785
4.4807 1.7771 -2.5006 0.9785
4.1809 2.3968 -2.5001 0.9785
4.0923 2.5445 -2.5000 0.9785
3.8998 2.8300 -2.4997 0.9785
3.7959 2.9673 -2.4996 0.9785
3.5740 3.2305 -2.4993 0.9785
3.4560 3.3560 -2.4992 0.9785
3.2072 3.5939 -2.4989 0.9785
2.9421 3.8134 -2.4987 0.9785
2.5168 4.1057 -2.4983 0.9785
2.0627 4.3509 -2.4980 0.9785
1.9058 4.4216 -2.4979 0.9785
1.7466 4.4867 -2.4978 0.9785
1.5851 4.5461 -2.4977 0.9785
1.4216 4.5996 -2.4976 0.9785
1.2563 4.6473 -2.4975 0.9785
1.0894 4.6891 -2.4974 0.9785
0.9211 4.7249 -2.4973 0.9785
0.7517 4.7546 -2.4972 0.9785
0.2386 4.8074 -2.4970 0.9785
0.0667 4.8127 -2.4970 0.9785
-0.4487 4.7919 -2.4968 0.9785
-0.9589 4.7162 -2.4967 0.9785
-1.1267 4.6788 -2.4967 0.9785
-1.4580 4.5863 -2.4966 0.9785
-1.6209 4.5313 -2.4966 0.9785
-1.7818 4.4705 -2.4966 0.9785
-1.9404 4.4039 -2.4966 0.9785
-2.2499 4.2541 -2.4966 0.9785
3.2946 -3.1694 -2.5039 0.9794
3.5124 -2.9259 -2.5038 0.9794
3.8930 -2.3954 -2.5035 0.9794
4.1266 -1.9649 -2.5033 0.9794
4.2561 -1.6650 -2.5031 0.9794
4.3127 -1.5119 -2.5030 0.9794
2.6083 -0.8109 -1.4960 0.9876
2.5462 -0.6929 -1.4453 0.9880
2.5396 -0.5945 -1.4285 0.9882
2.5423 -0.5001 -1.4191 0.9883
2.5435 -0.4065 -1.4108 0.9883
2.5457 -0.1306 -1.3961 0.9884
2.5462 -0.0395 -1.3947 0.9885
2.5457 0.1426 -1.3965 0.9884
2.5423 0.3257 -1.4038 0.9884
2.5552 0.4207 -1.4183 0.9883
4.4005 1.2197 -2.5010 0.9794
4.3539 1.3761 -2.5009 0.9794
4.3017 1.5306 -2.5008 0.9794
4.2441 1.6833 -2.5006 0.9794
4.1810 1.8337 -2.5005 0.9794
4.1126 1.9819 -2.5004 0.9794
4.0389 2.1274 -2.5002 0.9794
3.9601 2.2703 -2.5001 0.9794
3.8763 2.4102 -2.5000 0.9794
3.4926 2.9372 -2.4995 0.9794
3.2736 3.1789 -2.4992 0.9794
3.1578 3.2937 -2.4991 0.9794
2.9143 3.5104 -2.4989 0.9794
2.6559 3.7092 -2.4986 0.9794
2.5215 3.8016 -2.4985 0.9794
2.2434 3.9716 -2.4983 0.9794
1.8053 4.1884 -2.4980 0.9794
1.6544 4.2500 -2.4979 0.9794
1.5015 4.3063 -2.4978 0.9794
1.0319 4.4417 -2.4976 0.9794
0.8725 4.4756 -2.4975 0.9794
0.2260 4.5538 -2.4972 0.9794
0.0631 4.5588 -2.4972 0.9794
-0.0998 4.5581 -2.4971 0.9794
-0.5870 4.5210 -2.4970 0.9794
-1.0673 4.4321 -2.4969 0.9794
-1.2250 4.3911 -2.4969 0.9794
-1.3811 4.3445 -2.4968 0.9794
-1.5354 4.2923 -2.4968 0.9794
-1.8380 4.1717 -2.4968 0.9794
-2.1313 4.0298 -2.4968 0.9794
3.3318 -2.7754 -2.5036 0.9802
3.4288 -2.6546 -2.5035 0.9802
3.5214 -2.5303 -2.5035 0.9802
3.8455 -2.0026 -2.5032 0.9802
3.9784 -1.7227 -2.5030 0.9802
4.0910 -1.4341 -2.5029 0.9802
2.5804 -0.8022 -1.5601 0.9876
2.5198 -0.6857 -1.5077 0.9880
2.5234 -0.4033 -1.4754 0.9883
2.5220 -0.3111 -1.4671 0.9883
2.5228 -0.2200 -1.4621 0.9884
2.5232 -0.1295 -1.4587 0.9884
2.5237 -0.0392 -1.4572 0.9884
2.5249 0.2322 -1.4639 0.9884
2.5233 0.3233 -1.4688 0.9883
2.5274 0.4161 -1.4788 0.9882
2.5833 0.5207 -1.5215 0.9879
4.2134 1.0072 -2.5011 0.9802
4.1745 1.1570 -2.5010 0.9802
4.1303 1.3054 -2.5009 0.9802
4.0808 1.4521 -2.5008 0.9802
4.0261 1.5969 -2.5006 0.9802
3.9014 1.8801 -2.5004 0.9802
3.5930 2.4162 -2.4999 0.9802
3.5042 2.5430 -2.4998 0.9802
3.1056 3.0157 -2.4993 0.9802
2.9957 3.1246 -2.4992 0.9802
2.8821 3.2295 -2.4991 0.9802
2.6438 3.4268 -2.4988 0.9802
2.3921 3.6065 -2.4986 0.9802
2.2617 3.6896 -2.4985 0.9802
2.1283 3.7678 -2.4984 0.9802
1.9922 3.8413 -2.4983 0.9802
1.8536 3.9099 -2.4982 0.9802
1.7127 3.9735 -2.4981 0.9802
1.4244 4.0854 -2.4980 0.9802
1.1290 4.1764 -2.4978 0.9802
0.8278 4.2461 -2.4976 0.9802
0.6755 4.2728 -2.4976 0.9802
0.5224 4.2941 -2.4975 0.9802
0.3686 4.3099 -2.4974 0.9802
0.2144 4.3202 -2.4974 0.9802
0.0599 4.3251 -2.4973 0.9802
-0.0947 4.3243 -2.4973 0.9802
-0.8617 4.2384 -2.4971 0.9802
-1.0126 4.2048 -2.4971 0.9802
-1.1622 4.1659 -2.4970 0.9802
-1.4567 4.0722 -2.4970 0.9802
-1.8841 3.8929 -2.4970 0.9802
-2.0220 3.8231 -2.4970 0.9802
