ply
format ascii 1.0
element vertex 951
property float32 x
property float32 y
property float32 z
property float32 I
end_header
-2.4648 8.7048 1.3860 0.9641
22.2826 20.2954 3.9248 0.8855
20.7755 20.3276 3.7850 0.8894
19.4486 20.4398 3.6741 0.8924
19.4820 21.9981 3.8265 0.8882
-23.8370 16.8666 3.8025 0.8889
23.9074 20.2606 3.3651 0.8816
22.2825 20.2954 3.2365 0.8858
19.4484 20.4396 3.0296 0.8927
19.4818 21.9979 3.1554 0.8885
19.5181 23.6934 3.2963 0.8838
19.6018 27.5972 3.6349 0.8727
25.6690 20.2229 2.7663 0.8771
23.9073 20.2606 2.6528 0.8818
20.7755 20.3276 2.4605 0.8899
19.4482 20.4393 2.3883 0.8929
19.4816 21.9977 2.4874 0.8887
19.6502 29.8719 3.0268 0.8663
19.7049 32.4218 3.2117 0.8587
-23.8322 16.8632 2.4714 0.8894
22.2825 20.2954 1.8690 0.8862
20.7755 20.3276 1.8024 0.8900
19.4480 20.4391 1.7495 0.8931
19.5177 23.6929 1.9035 0.8842
19.5574 25.5494 1.9952 0.8790
19.7046 32.4213 2.3526 0.8589
-2.4635 8.7004 0.5607 0.9644
-23.8298 16.8615 1.8102 0.8896
25.6690 20.2229 1.2885 0.8774
23.9073 20.2606 1.2357 0.8821
22.2825 20.2954 1.1884 0.8863
20.7755 20.3276 1.1461 0.8902
19.4478 20.4389 1.1125 0.8932
19.5175 23.6926 1.2104 0.8844
19.5572 25.5490 1.2687 0.8791
19.7661 35.3065 1.5955 0.8505
25.6671 20.2215 0.5520 0.8775
23.9056 20.2592 0.5293 0.8822
20.7740 20.3262 0.4909 0.8902
19.5171 23.6922 0.5185 0.8844
19.6007 27.5957 0.5718 0.8734
19.6494 29.8707 0.6040 0.8667
19.7040 32.4204 0.6409 0.8592
19.7658 35.3060 0.6835 0.8505
-2.4629 8.6983 0.1527 0.9645
-23.8251 16.8581 0.4930 0.8898
25.6671 20.2215 -0.1840 0.8775
22.2809 20.2940 -0.1697 0.8864
20.7740 20.3262 -0.1636 0.8902
19.4472 20.4383 -0.1588 0.8933
19.5168 23.6919 -0.1728 0.8845
19.5566 25.5483 -0.1811 0.8792
19.6004 27.5954 -0.1906 0.8734
19.6491 29.8703 -0.2013 0.8667
19.7037 32.4200 -0.2136 0.8592
-2.4626 8.6972 -0.0509 0.9645
23.9056 20.2592 -0.8823 0.8822
22.2809 20.2940 -0.8486 0.8864
20.7740 20.3262 -0.8184 0.8902
19.4803 21.9963 -0.8273 0.8891
19.5166 23.6916 -0.8643 0.8844
-23.8204 16.8548 -0.8217 0.8898
49.6347 4.7510 -2.5287 0.8190
48.9907 8.2538 -2.5195 0.8196
48.6178 9.9896 -2.5171 0.8197
48.2275 11.7199 -2.5170 0.8197
34.0286 9.5692 -1.7927 0.8680
33.0607 10.5856 -1.7605 0.8702
33.0488 11.8997 -1.7814 0.8688
32.9018 14.5785 -1.8250 0.8658
32.7570 18.9437 -1.9190 0.8594
23.9056 20.2592 -1.5892 0.8821
22.2809 20.2940 -1.5284 0.8863
19.5164 23.6914 -1.5567 0.8843
19.7649 35.3045 -2.0519 0.8504
19.7411 42.0543 -2.3560 0.8302
18.2223 42.7245 -2.3556 0.8302
13.5375 44.4034 -2.3542 0.8303
8.7016 45.5646 -2.3525 0.8304
7.0673 45.8420 -2.3523 0.8305
5.4241 46.0604 -2.3521 0.8305
0.4635 46.3604 -2.3512 0.8305
-1.1932 46.3415 -2.3509 0.8306
-2.8480 46.2631 -2.3506 0.8306
-4.4987 46.1252 -2.3503 0.8306
-6.1432 45.9286 -2.3500 0.8306
-7.7792 45.6729 -2.3496 0.8306
-9.4049 45.3588 -2.3493 0.8307
-14.1980 44.0701 -2.3481 0.8307
-17.3032 42.9286 -2.3473 0.8308
-18.8227 42.2753 -2.3469 0.8308
-21.7860 40.8079 -2.3460 0.8309
-23.0137 39.6305 -2.3241 0.8323
-24.5981 39.0734 -2.3415 0.8312
-27.6586 40.6379 -2.4930 0.8213
-29.0878 39.6164 -2.4925 0.8213
-31.8319 37.4248 -2.4917 0.8214
-34.4123 35.0443 -2.4908 0.8214
-36.8160 32.4870 -2.4901 0.8215
-23.8180 16.8531 -1.4797 0.8897
34.2610 2.0473 -2.5166 0.8714
34.1495 3.2688 -2.5154 0.8715
33.7937 5.6935 -2.5127 0.8716
31.5218 6.4768 -2.3595 0.8789
30.7075 9.8321 -2.3641 0.8787
29.9188 11.9970 -2.3635 0.8787
28.4510 15.1234 -2.3625 0.8788
27.8881 16.1280 -2.3621 0.8788
27.2898 17.1116 -2.3618 0.8788
26.6568 18.0730 -2.3614 0.8788
25.9899 19.0109 -2.3610 0.8788
22.2809 20.2940 -2.2098 0.8861
19.4466 20.4377 -2.0685 0.8930
19.5162 23.6911 -2.2506 0.8842
18.6181 26.2124 -2.3574 0.8790
17.6665 26.8562 -2.3570 0.8790
12.6015 29.5458 -2.3552 0.8791
11.5361 29.9732 -2.3549 0.8791
10.4563 30.3623 -2.3545 0.8792
9.3634 30.7123 -2.3542 0.8792
6.0205 31.5253 -2.3533 0.8792
4.8895 31.7161 -2.3530 0.8792
2.6112 31.9758 -2.3523 0.8793
1.4667 32.0439 -2.3520 0.8793
-1.9696 31.9938 -2.3503 0.8794
-5.3785 31.5781 -2.3487 0.8794
-6.5021 31.3592 -2.3482 0.8795
-7.6170 31.1006 -2.3478 0.8795
-9.8150 30.4655 -2.3469 0.8795
-11.9615 29.6762 -2.3460 0.8796
-14.0460 28.7368 -2.3453 0.8796
-19.8247 25.0707 -2.3435 0.8797
-21.5608 23.5866 -2.3431 0.8797
-22.3882 22.7994 -2.3429 0.8797
-24.6848 20.2604 -2.3415 0.8798
-25.3906 19.3636 -2.3413 0.8798
-23.6396 16.7269 -2.1233 0.8903
-24.6047 16.1221 -2.1569 0.8887
26.1371 0.6260 -2.5100 0.9003
26.0979 1.5596 -2.5100 0.9003
26.0253 2.4911 -2.5100 0.9003
25.4028 6.1732 -2.5098 0.9003
23.4084 7.4951 -2.3597 0.9060
22.8332 9.1557 -2.3618 0.9059
22.4890 9.9647 -2.3615 0.9059
16.5655 8.8056 -1.8011 0.9274
21.2863 12.3101 -2.3607 0.9059
20.8304 13.0613 -2.3604 0.9059
19.8396 14.5122 -2.3599 0.9059
18.7478 15.8881 -2.3593 0.9060
16.9333 17.7963 -2.3584 0.9060
16.2844 18.3876 -2.3581 0.9060
15.6149 18.9553 -2.3578 0.9060
14.9256 19.4986 -2.3574 0.9060
13.4913 20.5093 -2.3568 0.9061
11.9888 21.4147 -2.3562 0.9061
11.2144 21.8264 -2.3559 0.9061
6.3078 23.6941 -2.3540 0.9062
5.4566 23.9019 -2.3537 0.9062
2.8664 24.3413 -2.3530 0.9062
1.1204 24.4789 -2.3526 0.9062
0.2450 24.5009 -2.3523 0.9062
-0.6306 24.4916 -2.3521 0.9062
-2.3778 24.3794 -2.3516 0.9063
-3.2471 24.2765 -2.3514 0.9063
-4.9717 23.9782 -2.3510 0.9063
-9.1491 22.6987 -2.3495 0.9063
-10.7443 21.9819 -2.3490 0.9064
-11.5216 21.5815 -2.3487 0.9064
-13.0309 20.6992 -2.3482 0.9064
-14.4734 19.7122 -2.3478 0.9064
-16.4963 18.0462 -2.3473 0.9064
-18.8958 15.5090 -2.3469 0.9064
-19.9543 14.1192 -2.3468 0.9064
21.0795 1.2597 -2.5084 0.9185
21.0208 2.0121 -2.5084 0.9185
20.9353 2.7620 -2.5084 0.9185
20.6839 4.2500 -2.5083 0.9185
20.5184 4.9862 -2.5082 0.9185
18.6622 6.7196 -2.3561 0.9232
17.8673 8.6934 -2.3603 0.9231
16.8296 10.5527 -2.3596 0.9231
16.4402 11.1462 -2.3594 0.9231
16.0299 11.7254 -2.3592 0.9231
13.1593 14.8589 -2.3577 0.9232
11.4899 16.1766 -2.3569 0.9232
10.3030 16.9522 -2.3564 0.9232
9.6896 17.3077 -2.3562 0.9232
9.0639 17.6409 -2.3559 0.9232
5.0990 19.1534 -2.3544 0.9233
4.4108 19.3213 -2.3541 0.9233
3.7172 19.4645 -2.3539 0.9233
3.0190 19.5829 -2.3537 0.9233
2.3171 19.6763 -2.3534 0.9233
1.6123 19.7446 -2.3532 0.9233
0.9057 19.7876 -2.3529 0.9233
0.1980 19.8054 -2.3527 0.9233
-0.5098 19.7980 -2.3525 0.9233
-1.9222 19.7079 -2.3521 0.9233
-2.6250 19.6253 -2.3520 0.9233
-2.4611 8.6918 -1.0731 0.9643
-6.7383 18.6092 -2.3510 0.9234
-8.6894 17.7778 -2.3505 0.9234
-11.1312 16.3547 -2.3500 0.9234
-12.8157 15.0674 -2.3496 0.9234
-13.8579 14.1124 -2.3494 0.9234
-15.2870 12.5470 -2.3492 0.9234
-15.7251 11.9924 -2.3491 0.9234
-16.5405 10.8381 -2.3490 0.9234
-16.9172 10.2401 -2.3490 0.9234
17.6910 0.4237 -2.5073 0.9310
17.6153 1.6862 -2.5073 0.9310
17.5437 2.3145 -2.5073 0.9310
17.3331 3.5615 -2.5072 0.9310
17.1945 4.1785 -2.5072 0.9310
17.0339 4.7901 -2.5071 0.9310
16.8514 5.3956 -2.5071 0.9310
15.5106 6.2195 -2.3678 0.9347
15.1965 6.7334 -2.3551 0.9351
14.9548 7.2764 -2.3564 0.9350
14.6936 7.8106 -2.3578 0.9350
14.1058 8.8448 -2.3591 0.9349
13.4359 9.8280 -2.3587 0.9350
13.0751 10.3010 -2.3585 0.9350
12.6976 10.7608 -2.3583 0.9350
9.1405 13.8953 -2.3566 0.9350
8.6374 14.2117 -2.3564 0.9350
8.1233 14.5100 -2.3562 0.9350
7.5989 14.7896 -2.3559 0.9350
5.9709 15.5137 -2.3553 0.9350
5.4123 15.7157 -2.3551 0.9351
3.6984 16.2003 -2.3545 0.9351
3.1168 16.3207 -2.3543 0.9351
1.9429 16.4988 -2.3539 0.9351
1.3520 16.5563 -2.3537 0.9351
-0.4275 16.6019 -2.3531 0.9351
-1.6119 16.5264 -2.3527 0.9351
-2.2012 16.4570 -2.3526 0.9351
-2.7877 16.3667 -2.3524 0.9351
-3.3705 16.2555 -2.3522 0.9351
-3.9489 16.1236 -2.3521 0.9351
-2.4608 8.6907 -1.2798 0.9642
-5.0897 15.7983 -2.3518 0.9351
-6.2043 15.3926 -2.3515 0.9352
-7.2870 14.9086 -2.3512 0.9352
-7.8147 14.6379 -2.3511 0.9352
-8.3324 14.3487 -2.3510 0.9352
-8.8394 14.0411 -2.3509 0.9352
-9.8188 13.3729 -2.3507 0.9352
-10.2900 13.0130 -2.3506 0.9352
-11.1924 12.2440 -2.3504 0.9352
-12.0377 11.4128 -2.3503 0.9352
-12.4376 10.9751 -2.3503 0.9352
-13.1892 10.0585 -2.3502 0.9352
-13.8736 9.0906 -2.3502 0.9352
-14.1896 8.5890 -2.3501 0.9352
15.2109 0.3643 -2.5066 0.9402
15.1882 0.9076 -2.5065 0.9402
15.1459 1.4497 -2.5065 0.9402
15.0843 1.9900 -2.5065 0.9402
15.0034 2.5277 -2.5065 0.9402
14.7842 3.5928 -2.5064 0.9402
14.3139 5.1540 -2.5063 0.9402
14.1203 5.6620 -2.5062 0.9402
13.9086 6.1628 -2.5061 0.9402
12.8458 6.2502 -2.3534 0.9437
12.3766 7.1575 -2.3553 0.9437
11.8447 8.0305 -2.3575 0.9436
11.5543 8.4517 -2.3583 0.9436
10.9196 9.2540 -2.3580 0.9436
10.5812 9.6375 -2.3578 0.9436
10.2292 10.0087 -2.3576 0.9436
9.8643 10.3671 -2.3574 0.9436
9.4868 10.7121 -2.3573 0.9436
7.4288 12.2231 -2.3563 0.9437
5.1357 13.3437 -2.3554 0.9437
4.6553 13.5176 -2.3552 0.9437
4.1690 13.6743 -2.3551 0.9437
3.1812 13.9350 -2.3547 0.9437
2.6810 14.0387 -2.3545 0.9437
2.1775 14.1245 -2.3543 0.9437
-0.3677 14.2816 -2.3535 0.9437
-0.8778 14.2584 -2.3534 0.9437
-1.3866 14.2170 -2.3532 0.9437
-1.8936 14.1574 -2.3531 0.9437
-2.3981 14.0799 -2.3529 0.9437
-2.8996 13.9843 -2.3528 0.9437
-3.3972 13.8710 -2.3526 0.9438
-2.4605 8.6896 -1.4878 0.9641
-4.3787 13.5914 -2.3524 0.9438
-4.8613 13.4256 -2.3522 0.9438
-5.3377 13.2426 -2.3521 0.9438
-5.8072 13.0428 -2.3520 0.9438
-6.2693 12.8264 -2.3519 0.9438
-6.7233 12.5936 -2.3518 0.9438
-8.8532 11.1959 -2.3514 0.9438
-9.2473 10.8721 -2.3513 0.9438
-9.9997 10.1834 -2.3512 0.9438
-10.3570 9.8193 -2.3511 0.9438
-11.0315 9.0543 -2.3511 0.9438
-11.9285 7.8161 -2.3494 0.9438
-12.1937 7.3810 -2.3481 0.9439
13.3086 0.7953 -2.5060 0.9472
13.1468 2.2149 -2.5059 0.9472
13.0591 2.6833 -2.5059 0.9472
12.8337 3.6090 -2.5058 0.9472
12.6964 4.0652 -2.5058 0.9472
12.5427 4.5162 -2.5057 0.9472
12.3731 4.9614 -2.5057 0.9472
12.1876 5.4002 -2.5056 0.9472
11.6577 6.1968 -2.4815 0.9477
10.8358 6.2665 -2.3528 0.9503
10.3675 7.0290 -2.3543 0.9503
10.1136 7.3979 -2.3552 0.9503
9.8464 7.7574 -2.3561 0.9503
9.5664 8.1072 -2.3570 0.9502
8.9648 8.7715 -2.3574 0.9502
8.6451 9.0856 -2.3573 0.9502
8.3143 9.3881 -2.3571 0.9502
7.9730 9.6786 -2.3570 0.9502
7.6215 9.9566 -2.3568 0.9502
6.8900 10.4741 -2.3565 0.9503
6.5109 10.7129 -2.3563 0.9503
6.1235 10.9379 -2.3562 0.9503
5.7284 11.1490 -2.3560 0.9503
5.3259 11.3458 -2.3558 0.9503
4.5014 11.6956 -2.3555 0.9503
4.0803 11.8482 -2.3554 0.9503
3.6541 11.9856 -2.3552 0.9503
3.2233 12.1077 -2.3550 0.9503
2.7884 12.2143 -2.3549 0.9503
2.3500 12.3053 -2.3547 0.9503
1.9087 12.3807 -2.3546 0.9503
1.4650 12.4402 -2.3544 0.9503
0.1252 12.5232 -2.3540 0.9503
-2.5418 12.2588 -2.3532 0.9503
-2.9781 12.1595 -2.3531 0.9503
-4.2616 11.7693 -2.3527 0.9503
-5.8940 11.0403 -2.3523 0.9503
-6.2845 10.8222 -2.3523 0.9503
-7.4059 10.0865 -2.3520 0.9503
-9.0798 8.6085 -2.3518 0.9504
-9.3803 8.2773 -2.3514 0.9504
11.8496 0.2838 -2.5055 0.9527
11.7510 1.5503 -2.5055 0.9527
11.6101 2.3855 -2.5054 0.9527
11.5173 2.7989 -2.5054 0.9527
11.4098 3.2086 -2.5053 0.9527
11.0003 4.4109 -2.5052 0.9527
10.6567 5.1851 -2.5051 0.9527
10.4644 5.5625 -2.5050 0.9527
10.2587 5.9327 -2.5050 0.9527
9.8869 6.1994 -2.4667 0.9534
9.2107 6.2448 -2.3523 0.9555
8.7457 6.8901 -2.3535 0.9555
8.2364 7.5019 -2.3549 0.9555
7.3925 8.3472 -2.3569 0.9554
7.0894 8.6059 -2.3569 0.9554
6.7769 8.8532 -2.3567 0.9554
6.4559 9.0892 -2.3566 0.9554
5.4451 9.7261 -2.3562 0.9555
5.0937 9.9138 -2.3560 0.9555
1.6973 11.0098 -2.3547 0.9555
1.3028 11.0628 -2.3546 0.9555
-0.2867 11.1331 -2.3541 0.9555
-0.6843 11.1152 -2.3540 0.9555
-1.0810 11.0831 -2.3539 0.9555
-2.2605 10.9021 -2.3535 0.9555
-2.6485 10.8140 -2.3534 0.9555
-3.7901 10.4671 -2.3531 0.9555
-4.5276 10.1689 -2.3529 0.9555
-5.9295 9.4188 -2.3526 0.9555
-6.5866 8.9708 -2.3525 0.9555
-6.9028 8.7294 -2.3524 0.9555
-7.2102 8.4770 -2.3524 0.9555
-7.5068 8.2121 -2.3518 0.9555
-7.7927 7.9358 -2.3510 0.9555
-8.0683 7.6495 -2.3502 0.9556
-8.5876 7.0484 -2.3484 0.9556
-8.8306 6.7344 -2.3475 0.9556
-9.4791 6.2112 -2.3955 0.9547
-10.1119 6.1208 -2.4985 0.9528
10.6560 0.2552 -2.5051 0.9571
10.6105 1.0156 -2.5051 0.9571
10.5673 1.3941 -2.5051 0.9571
10.5107 1.7708 -2.5051 0.9571
10.2605 2.8854 -2.5050 0.9571
10.1507 3.2501 -2.5050 0.9572
9.5834 4.6629 -2.5048 0.9572
9.4105 5.0022 -2.5047 0.9572
9.0287 5.6613 -2.5046 0.9572
8.8204 5.9801 -2.5045 0.9572
7.6346 6.4701 -2.3520 0.9597
7.4006 6.7406 -2.3526 0.9597
7.1569 7.0026 -2.3532 0.9597
6.9038 7.2557 -2.3538 0.9597
6.6418 7.4996 -2.3544 0.9597
6.3710 7.7339 -2.3549 0.9597
5.8048 8.1726 -2.3559 0.9596
4.5813 8.9166 -2.3560 0.9596
4.2596 9.0741 -2.3559 0.9596
3.9324 9.2200 -2.3558 0.9596
3.6002 9.3541 -2.3556 0.9597
3.2635 9.4763 -2.3555 0.9597
2.5781 9.6841 -2.3553 0.9597
2.2303 9.7695 -2.3551 0.9597
1.1718 9.9505 -2.3548 0.9597
-0.6155 9.9979 -2.3542 0.9597
-1.3278 9.9276 -2.3540 0.9597
-2.0333 9.8065 -2.3538 0.9597
-2.4142 8.5263 -2.0827 0.9642
-2.7482 8.5303 -2.1063 0.9638
-3.4092 9.4153 -2.3534 0.9597
-3.7434 9.2871 -2.3533 0.9597
-4.0727 9.1472 -2.3532 0.9597
-4.3968 8.9955 -2.3532 0.9597
-4.7153 8.8324 -2.3531 0.9597
-5.6322 8.2752 -2.3526 0.9597
-6.2054 7.8474 -2.3513 0.9597
-7.0031 7.1317 -2.3491 0.9598
-9.0958 5.5058 -2.4989 0.9573
9.6569 0.5771 -2.5048 0.9608
9.5395 1.6072 -2.5048 0.9608
9.4759 1.9470 -2.5047 0.9608
9.3125 2.6188 -2.5047 0.9608
9.2128 2.9498 -2.5047 0.9608
8.8438 3.9186 -2.5045 0.9608
8.6980 4.2321 -2.5045 0.9608
8.0056 5.4277 -2.5043 0.9608
7.8063 5.7101 -2.5042 0.9608
7.3117 6.1964 -2.4815 0.9612
6.8218 6.2135 -2.3892 0.9626
6.4913 6.3513 -2.3514 0.9632
5.5246 7.2173 -2.3533 0.9631
5.2642 7.4114 -2.3537 0.9631
4.7230 7.7711 -2.3545 0.9631
4.4429 7.9361 -2.3549 0.9631
4.1571 8.0909 -2.3552 0.9631
3.5695 8.3691 -2.3558 0.9631
3.2680 8.4910 -2.3557 0.9631
2.3402 8.7907 -2.3553 0.9631
1.3859 8.9894 -2.3550 0.9631
1.0637 9.0327 -2.3549 0.9631
-0.2341 9.0905 -2.3545 0.9631
-0.5587 9.0760 -2.3544 0.9631
-2.1627 8.8304 -2.3539 0.9631
-2.4045 8.4920 -2.2852 0.9642
-3.0949 8.5473 -2.3537 0.9631
-3.3983 8.4310 -2.3536 0.9631
-3.6969 8.3031 -2.3533 0.9631
-3.9904 8.1641 -2.3528 0.9631
-5.1083 7.5055 -2.3507 0.9632
-5.3719 7.3163 -2.3501 0.9632
-5.8776 6.9104 -2.3489 0.9632
-6.1191 6.6940 -2.3482 0.9632
-6.5788 6.2374 -2.3473 0.9632
-7.6755 5.8536 -2.4993 0.9609
-8.2573 4.9982 -2.4991 0.9609
8.8445 0.2118 -2.5045 0.9639
8.8068 0.8430 -2.5045 0.9639
8.7240 1.4698 -2.5045 0.9639
8.5966 2.0891 -2.5045 0.9639
8.5163 2.3949 -2.5044 0.9639
8.4252 2.6977 -2.5044 0.9639
8.3234 2.9970 -2.5044 0.9639
8.0878 3.5837 -2.5043 0.9639
7.8109 4.1520 -2.5042 0.9639
7.4942 4.6991 -2.5041 0.9639
7.1388 5.2221 -2.5040 0.9639
6.7476 5.7183 -2.5039 0.9639
6.3216 6.1853 -2.5037 0.9639
5.9058 6.2068 -2.4254 0.9650
5.0489 6.5958 -2.3515 0.9661
4.8109 6.7732 -2.3519 0.9661
4.5665 6.9419 -2.3523 0.9660
4.3161 7.1017 -2.3526 0.9660
3.7989 7.3937 -2.3532 0.9660
3.5327 7.5256 -2.3535 0.9660
2.9868 7.7602 -2.3539 0.9660
1.5602 8.1698 -2.3546 0.9660
1.2673 8.2204 -2.3546 0.9660
0.9728 8.2605 -2.3546 0.9660
0.3803 8.3087 -2.3546 0.9660
0.0832 8.3167 -2.3545 0.9660
-0.8072 8.2765 -2.3541 0.9660
-1.1024 8.2417 -2.3539 0.9660
-1.3960 8.1963 -2.3537 0.9660
-1.9774 8.0739 -2.3532 0.9660
-2.5483 7.9100 -2.3526 0.9660
-2.8289 7.8127 -2.3522 0.9660
-3.1058 7.7054 -2.3519 0.9661
-3.3786 7.5882 -2.3515 0.9661
-3.6469 7.4613 -2.3511 0.9661
-3.9105 7.3248 -2.3506 0.9661
-4.4218 7.0239 -2.3496 0.9661
-4.9100 6.6872 -2.3486 0.9661
-5.6799 6.2137 -2.3832 0.9656
-6.8250 5.6018 -2.4996 0.9640
-7.0206 5.3542 -2.4995 0.9640
-7.2073 5.0998 -2.4995 0.9640
8.1275 0.4857 -2.5043 0.9665
8.0288 1.3527 -2.5043 0.9665
7.9115 1.9226 -2.5042 0.9665
7.7539 2.4827 -2.5042 0.9665
7.6601 2.7582 -2.5042 0.9665
7.3207 3.5619 -2.5041 0.9665
7.1886 3.8212 -2.5040 0.9665
7.0473 4.0755 -2.5040 0.9665
6.8970 4.3246 -2.5039 0.9665
6.7380 4.5683 -2.5039 0.9665
6.5703 4.8060 -2.5038 0.9665
6.3942 5.0376 -2.5038 0.9665
6.2100 5.2627 -2.5037 0.9665
4.4267 6.2324 -2.3513 0.9685
3.9698 6.5318 -2.3510 0.9685
3.0000 7.0338 -2.3520 0.9685
2.4903 7.2313 -2.3524 0.9685
1.9678 7.3915 -2.3526 0.9685
1.1655 7.5602 -2.3528 0.9685
-0.1969 7.6464 -2.3526 0.9685
-0.7424 7.6119 -2.3524 0.9685
-1.0139 7.5800 -2.3522 0.9685
-1.8187 7.4258 -2.3515 0.9685
-2.6020 7.1859 -2.3506 0.9685
-2.8567 7.0873 -2.3503 0.9685
-3.3545 6.8629 -2.3495 0.9685
-3.8347 6.6034 -2.3487 0.9685
-4.0674 6.4610 -2.3483 0.9686
-4.9063 6.2046 -2.4329 0.9674
-5.2662 6.1915 -2.5001 0.9666
-5.6947 5.7993 -2.4999 0.9666
-6.2821 5.1562 -2.4997 0.9666
-6.4622 4.9283 -2.4997 0.9666
-6.7974 4.4540 -2.4996 0.9666
-6.9521 4.2082 -2.4995 0.9666
7.5312 0.1804 -2.5041 0.9687
7.5199 0.4494 -2.5041 0.9687
7.4990 0.7178 -2.5041 0.9687
7.4686 0.9853 -2.5041 0.9687
7.3790 1.5162 -2.5041 0.9687
7.1742 2.2971 -2.5040 0.9687
6.9917 2.8035 -2.5040 0.9687
6.6512 3.5355 -2.5038 0.9687
6.5205 3.7709 -2.5038 0.9687
6.0792 4.4468 -2.5037 0.9687
5.9163 4.6611 -2.5036 0.9688
5.5680 5.0715 -2.5035 0.9688
5.3831 5.2671 -2.5034 0.9688
4.7882 5.8125 -2.5033 0.9688
4.5773 5.9797 -2.5032 0.9688
4.0778 6.1990 -2.4664 0.9692
3.4807 6.2171 -2.3684 0.9704
3.2314 6.2892 -2.3504 0.9706
2.0626 6.7653 -2.3510 0.9706
1.8196 6.8350 -2.3511 0.9706
1.3269 6.9479 -2.3513 0.9706
1.0778 6.9910 -2.3513 0.9706
0.5757 7.0501 -2.3513 0.9706
0.3234 7.0660 -2.3513 0.9706
0.0707 7.0729 -2.3512 0.9706
-0.1821 7.0707 -2.3511 0.9706
-0.4346 7.0593 -2.3510 0.9706
-0.9375 7.0094 -2.3507 0.9706
-1.1873 6.9709 -2.3505 0.9706
-1.4355 6.9234 -2.3503 0.9706
-1.6818 6.8670 -2.3501 0.9706
-1.9259 6.8018 -2.3498 0.9706
-2.4062 6.6453 -2.3493 0.9706
-2.6418 6.5542 -2.3490 0.9707
-3.1023 6.3471 -2.3484 0.9707
-3.6079 6.2129 -2.3882 0.9702
-4.4517 6.0631 -2.5003 0.9688
-4.6654 5.9000 -2.5003 0.9688
-5.6392 4.9761 -2.5000 0.9688
-6.2901 4.1216 -2.4997 0.9688
-6.4333 3.8941 -2.4997 0.9688
7.0000 0.1677 -2.5040 0.9707
6.9895 0.4177 -2.5040 0.9707
6.9701 0.6672 -2.5039 0.9707
6.9046 1.1633 -2.5039 0.9707
6.8586 1.4093 -2.5039 0.9707
6.8038 1.6534 -2.5039 0.9707
6.5876 2.3720 -2.5038 0.9707
6.4985 2.6058 -2.5038 0.9707
6.4012 2.8363 -2.5038 0.9707
6.2957 3.0632 -2.5037 0.9707
6.1821 3.2862 -2.5037 0.9707
6.0606 3.5049 -2.5037 0.9707
5.9314 3.7192 -2.5036 0.9707
5.4991 4.3324 -2.5035 0.9707
5.1754 4.7138 -2.5034 0.9707
5.0035 4.8957 -2.5033 0.9707
4.8253 5.0712 -2.5033 0.9707
4.6404 5.2403 -2.5032 0.9707
4.4506 5.4026 -2.5031 0.9707
4.2546 5.5581 -2.5031 0.9707
3.8465 5.8475 -2.5030 0.9707
3.6350 5.9810 -2.5029 0.9707
3.4189 6.1069 -2.5028 0.9707
3.1827 6.1945 -2.4905 0.9708
2.9113 6.2020 -2.4501 0.9713
2.3918 6.2147 -2.3813 0.9721
2.1447 6.2275 -2.3554 0.9724
1.6905 6.3499 -2.3499 0.9725
1.4625 6.4062 -2.3499 0.9725
1.2327 6.4546 -2.3499 0.9725
1.0012 6.4946 -2.3499 0.9725
0.5348 6.5495 -2.3499 0.9725
0.3005 6.5643 -2.3499 0.9725
-0.6378 6.5391 -2.3495 0.9725
-1.3336 6.4320 -2.3490 0.9725
-2.7629 6.2054 -2.4291 0.9716
-3.2933 6.1688 -2.5007 0.9707
-3.5115 6.0470 -2.5006 0.9707
-3.9342 5.7805 -2.5005 0.9707
-4.1382 5.6360 -2.5004 0.9707
-4.5299 5.3258 -2.5003 0.9707
-5.0735 4.8101 -2.5001 0.9707
-5.2420 4.6257 -2.5001 0.9707
-5.4039 4.4353 -2.5000 0.9707
-5.5588 4.2393 -2.5000 0.9707
6.5318 0.1564 -2.5038 0.9724
6.5039 0.6225 -2.5038 0.9724
6.4775 0.8546 -2.5038 0.9724
6.4428 1.0855 -2.5038 0.9724
6.2895 1.7687 -2.5037 0.9724
6.2222 1.9923 -2.5037 0.9724
6.0639 2.4315 -2.5037 0.9724
5.9731 2.6466 -2.5036 0.9724
5.7686 3.0664 -2.5036 0.9724
5.5350 3.4705 -2.5035 0.9724
5.2726 3.8568 -2.5034 0.9724
4.8293 4.3986 -2.5033 0.9724
4.3306 4.8899 -2.5031 0.9724
3.9701 5.1865 -2.5030 0.9724
3.7821 5.3249 -2.5029 0.9724
3.5894 5.4565 -2.5029 0.9724
2.9846 5.8088 -2.5027 0.9724
2.7750 5.9116 -2.5026 0.9724
1.8890 6.1959 -2.4823 0.9726
1.6506 6.2002 -2.4588 0.9729
1.1855 6.2071 -2.4217 0.9733
0.5073 6.2131 -2.3889 0.9737
0.2845 6.2140 -2.3838 0.9737
-0.1600 6.2143 -2.3822 0.9737
-1.0575 6.2084 -2.4135 0.9734
-1.2867 6.2056 -2.4287 0.9732
-1.5190 6.2022 -2.4470 0.9730
-1.7550 6.1982 -2.4686 0.9728
-1.9954 6.1936 -2.4936 0.9725
-2.2220 6.1365 -2.5010 0.9724
-2.8657 5.8630 -2.5008 0.9724
-3.2770 5.6430 -2.5007 0.9724
-3.4764 5.5222 -2.5006 0.9724
-4.0471 5.1181 -2.5005 0.9724
-4.4021 4.8158 -2.5003 0.9724
-4.5713 4.6553 -2.5003 0.9724
-5.1875 3.9562 -2.5001 0.9724
-5.4567 3.5754 -2.5000 0.9724
-5.5808 3.3782 -2.5000 0.9724
6.1156 0.1465 -2.5037 0.9739
6.1064 0.3649 -2.5037 0.9739
5.9921 1.2312 -2.5036 0.9739
5.8888 1.6560 -2.5036 0.9739
5.7553 2.0723 -2.5036 0.9739
5.6776 2.2766 -2.5035 0.9739
5.5925 2.4780 -2.5035 0.9739
5.4011 2.8710 -2.5034 0.9739
5.2950 3.0622 -2.5034 0.9739
5.1821 3.2494 -2.5034 0.9739
4.6660 3.9543 -2.5032 0.9739
4.5217 4.1184 -2.5032 0.9739
4.3715 4.2773 -2.5031 0.9739
4.2158 4.4307 -2.5031 0.9739
4.0547 4.5784 -2.5030 0.9739
3.8884 4.7203 -2.5030 0.9739
3.3607 5.1089 -2.5028 0.9739
2.7945 5.4388 -2.5026 0.9739
2.5983 5.5351 -2.5026 0.9739
0.9315 6.0420 -2.5020 0.9739
0.7150 6.0712 -2.5020 0.9739
0.4975 6.0927 -2.5019 0.9739
-0.3756 6.1008 -2.5016 0.9739
-0.5933 6.0833 -2.5015 0.9739
-0.8103 6.0580 -2.5015 0.9739
-1.2408 5.9844 -2.5013 0.9739
-2.0806 5.7459 -2.5011 0.9739
-2.2845 5.6678 -2.5010 0.9739
-2.4855 5.5824 -2.5010 0.9739
-2.8777 5.3903 -2.5008 0.9739
-3.4378 5.0511 -2.5006 0.9739
-3.6160 4.9249 -2.5006 0.9739
-3.7896 4.7924 -2.5005 0.9739
-3.9583 4.6538 -2.5005 0.9739
-4.1220 4.5093 -2.5004 0.9739
-4.4334 4.2033 -2.5003 0.9739
-4.5806 4.0421 -2.5003 0.9739
-4.7221 3.8758 -2.5002 0.9739
-4.8575 3.7045 -2.5002 0.9739
-4.9867 3.5285 -2.5002 0.9739
5.7429 0.1375 -2.5036 0.9752
5.6951 0.7514 -2.5035 0.9752
5.6269 1.1562 -2.5035 0.9752
5.5299 1.5551 -2.5035 0.9752
5.4707 1.7517 -2.5035 0.9752
5.4046 1.9460 -2.5034 0.9752
5.3316 2.1379 -2.5034 0.9752
5.2517 2.3270 -2.5034 0.9752
5.0720 2.6961 -2.5033 0.9752
4.9723 2.8755 -2.5033 0.9752
4.8664 3.0514 -2.5033 0.9752
4.6359 3.3910 -2.5032 0.9752
4.2461 3.8675 -2.5031 0.9753
4.1052 4.0167 -2.5030 0.9753
3.6515 4.4327 -2.5029 0.9753
3.3255 4.6820 -2.5028 0.9753
3.1560 4.7977 -2.5027 0.9753
2.9825 4.9073 -2.5027 0.9753
2.6243 5.1075 -2.5026 0.9753
2.4400 5.1979 -2.5025 0.9753
2.2527 5.2816 -2.5024 0.9753
1.8696 5.4288 -2.5023 0.9753
1.6744 5.4920 -2.5023 0.9753
1.4770 5.5482 -2.5022 0.9753
1.2778 5.5973 -2.5021 0.9753
1.0769 5.6392 -2.5021 0.9753
0.0574 5.7401 -2.5018 0.9753
-0.1477 5.7383 -2.5017 0.9753
-0.3527 5.7292 -2.5016 0.9753
-0.5572 5.7128 -2.5016 0.9753
-0.7610 5.6891 -2.5015 0.9753
-1.3653 5.5746 -2.5013 0.9753
-1.7599 5.4626 -2.5012 0.9753
-1.9539 5.3961 -2.5011 0.9753
-2.7025 5.0621 -2.5009 0.9753
-3.3959 4.6251 -2.5007 0.9753
-3.5589 4.5007 -2.5006 0.9753
-3.7174 4.3705 -2.5006 0.9753
-4.0199 4.0937 -2.5005 0.9753
-4.1635 3.9474 -2.5004 0.9753
-4.5618 3.4790 -2.5003 0.9753
-4.7985 3.1442 -2.5002 0.9753
5.4068 0.1295 -2.5034 0.9764
5.3987 0.3226 -2.5034 0.9764
5.3837 0.5153 -2.5034 0.9764
5.3619 0.7074 -2.5034 0.9764
5.2976 1.0885 -2.5034 0.9764
5.2553 1.2771 -2.5034 0.9764
5.2063 1.4641 -2.5034 0.9764
5.1506 1.6491 -2.5034 0.9764
4.9444 2.1908 -2.5033 0.9764
4.8629 2.3661 -2.5033 0.9764
4.7752 2.5383 -2.5032 0.9764
4.4760 3.0346 -2.5032 0.9764
4.3646 3.1926 -2.5031 0.9764
3.9977 3.6412 -2.5030 0.9764
3.8650 3.7817 -2.5030 0.9764
3.5849 4.0479 -2.5029 0.9764
3.2865 4.2934 -2.5028 0.9764
2.9714 4.5170 -2.5027 0.9765
2.6411 4.7175 -2.5026 0.9765
2.1209 4.9727 -2.5024 0.9765
1.9418 5.0452 -2.5024 0.9765
1.5765 5.1708 -2.5022 0.9765
1.3912 5.2237 -2.5022 0.9765
1.0140 5.3094 -2.5021 0.9765
0.6321 5.3680 -2.5019 0.9765
-0.1391 5.4028 -2.5017 0.9765
-1.0971 5.2914 -2.5014 0.9765
-1.2853 5.2487 -2.5013 0.9765
-1.6570 5.1432 -2.5012 0.9765
-1.8397 5.0806 -2.5012 0.9765
-2.0200 5.0115 -2.5011 0.9765
-2.5445 4.7662 -2.5009 0.9765
-2.7132 4.6722 -2.5009 0.9765
-2.8783 4.5721 -2.5008 0.9765
-3.0398 4.4663 -2.5008 0.9765
-3.1974 4.3547 -2.5007 0.9765
-3.3509 4.2376 -2.5007 0.9765
-3.5001 4.1151 -2.5006 0.9765
-3.6448 3.9873 -2.5006 0.9765
-3.9202 3.7167 -2.5005 0.9765
-4.1755 3.4271 -2.5004 0.9765
-4.4094 3.1200 -2.5003 0.9765
-4.5180 2.9604 -2.5003 0.9765
5.0943 0.3044 -2.5034 0.9775
5.0802 0.4863 -2.5033 0.9775
5.0596 0.6675 -2.5033 0.9775
5.0325 0.8479 -2.5033 0.9775
4.9989 1.0271 -2.5033 0.9775
4.9590 1.2051 -2.5033 0.9775
4.7366 1.8993 -2.5032 0.9775
4.5888 2.2327 -2.5032 0.9775
4.5060 2.3952 -2.5032 0.9775
4.2236 2.8636 -2.5031 0.9775
4.1186 3.0126 -2.5030 0.9775
4.0082 3.1579 -2.5030 0.9775
3.8928 3.2990 -2.5030 0.9775
3.7723 3.4359 -2.5029 0.9775
3.6471 3.5685 -2.5029 0.9775
3.3828 3.8197 -2.5028 0.9775
3.2441 3.9381 -2.5028 0.9775
2.8039 4.2624 -2.5026 0.9775
2.3315 4.5377 -2.5025 0.9775
2.0014 4.6925 -2.5024 0.9775
1.1353 4.9729 -2.5021 0.9775
0.9568 5.0102 -2.5020 0.9775
0.7772 5.0411 -2.5020 0.9775
0.5965 5.0655 -2.5019 0.9775
0.2332 5.0950 -2.5018 0.9775
-0.1313 5.0984 -2.5017 0.9775
-0.3134 5.0903 -2.5016 0.9775
-0.4950 5.0757 -2.5016 0.9775
-1.0353 4.9933 -2.5014 0.9775
-1.5636 4.8535 -2.5012 0.9775
-1.7360 4.7944 -2.5012 0.9775
-2.7162 4.3146 -2.5009 0.9775
-2.8686 4.2147 -2.5008 0.9775
-3.3030 3.8833 -2.5007 0.9775
-3.4396 3.7627 -2.5006 0.9775
-3.5718 3.6374 -2.5006 0.9775
-3.8223 3.3729 -2.5005 0.9775
-4.0533 3.0912 -2.5005 0.9775
-4.3607 2.6396 -2.5004 0.9775
4.8239 0.1155 -2.5033 0.9785
4.7265 0.9712 -2.5032 0.9785
4.5953 1.4714 -2.5032 0.9785
4.5398 1.6346 -2.5032 0.9785
4.4114 1.9547 -2.5031 0.9785
4.3387 2.1110 -2.5031 0.9785
4.2604 2.2647 -2.5031 0.9785
4.0877 2.5631 -2.5030 0.9785
3.9935 2.7075 -2.5030 0.9785
3.7898 2.9858 -2.5029 0.9785
3.5668 3.2487 -2.5029 0.9785
3.4484 3.3740 -2.5028 0.9785
3.3256 3.4951 -2.5028 0.9785
3.0673 3.7235 -2.5027 0.9785
2.7935 3.9329 -2.5026 0.9785
2.3564 4.2091 -2.5025 0.9785
2.2045 4.2905 -2.5024 0.9785
1.2408 4.6608 -2.5021 0.9785
0.9047 4.7373 -2.5020 0.9785
0.7348 4.7665 -2.5020 0.9785
0.5640 4.7896 -2.5019 0.9785
0.0482 4.8221 -2.5018 0.9785
-0.1241 4.8207 -2.5017 0.9785
-0.2963 4.8131 -2.5016 0.9785
-0.6393 4.7794 -2.5015 0.9785
-0.8096 4.7534 -2.5015 0.9785
-0.9789 4.7213 -2.5014 0.9785
-1.1470 4.6833 -2.5014 0.9785
-1.4785 4.5892 -2.5013 0.9785
-1.6415 4.5333 -2.5012 0.9785
-1.9610 4.4043 -2.5011 0.9785
-2.1171 4.3314 -2.5011 0.9785
-2.2704 4.2529 -2.5010 0.9785
-2.4209 4.1690 -2.5010 0.9785
-2.8530 3.8857 -2.5008 0.9785
-3.2523 3.5579 -2.5007 0.9785
-3.7258 3.0580 -2.5006 0.9785
4.5690 0.1094 -2.5032 0.9794
4.5495 0.4355 -2.5032 0.9794
4.5068 0.7593 -2.5032 0.9794
4.3525 1.3936 -2.5031 0.9794
4.1783 1.8514 -2.5031 0.9794
4.0353 2.1450 -2.5030 0.9794
3.9561 2.2878 -2.5030 0.9794
3.8718 2.4277 -2.5030 0.9794
3.6884 2.6980 -2.5029 0.9794
3.5896 2.8280 -2.5029 0.9794
3.4862 2.9544 -2.5028 0.9794
3.3784 3.0771 -2.5028 0.9794
3.2662 3.1958 -2.5028 0.9794
3.1499 3.3104 -2.5027 0.9794
3.0295 3.4208 -2.5027 0.9794
2.9053 3.5268 -2.5027 0.9794
2.7774 3.6283 -2.5026 0.9794
2.6459 3.7252 -2.5026 0.9794
2.5111 3.8173 -2.5025 0.9794
2.3730 3.9045 -2.5025 0.9794
2.2319 3.9867 -2.5024 0.9794
1.7924 4.2025 -2.5023 0.9794
1.6410 4.2637 -2.5023 0.9794
1.4876 4.3195 -2.5022 0.9794
1.3323 4.3699 -2.5022 0.9794
1.1753 4.4146 -2.5021 0.9794
0.8569 4.4871 -2.5020 0.9794
0.6960 4.5148 -2.5020 0.9794
0.2089 4.5630 -2.5018 0.9794
-0.1176 4.5661 -2.5017 0.9794
-0.6055 4.5270 -2.5015 0.9794
-0.7669 4.5024 -2.5015 0.9794
-0.9272 4.4720 -2.5014 0.9794
-1.5548 4.2940 -2.5012 0.9794
-1.7072 4.2356 -2.5012 0.9794
-1.8575 4.1718 -2.5011 0.9794
-2.0053 4.1027 -2.5011 0.9794
-2.1506 4.0283 -2.5011 0.9794
-2.2931 3.9488 -2.5010 0.9794
-2.4327 3.8643 -2.5010 0.9794
-2.7024 3.6805 -2.5009 0.9794
-2.9583 3.4781 -2.5008 0.9794
-3.1990 3.2578 -2.5007 0.9794
-3.4234 3.0209 -2.5007 0.9794
-3.7269 2.6371 -2.5006 0.9794
-3.8187 2.5022 -2.5005 0.9794
4.3343 0.1038 -2.5031 0.9802
4.3278 0.2586 -2.5031 0.9802
4.2128 1.0238 -2.5031 0.9802
4.1289 1.3220 -2.5030 0.9802
4.0790 1.4688 -2.5030 0.9802
3.8983 1.8967 -2.5030 0.9802
3.8280 2.0348 -2.5029 0.9802
3.7528 2.1703 -2.5029 0.9802
3.6728 2.3030 -2.5029 0.9802
3.5882 2.4327 -2.5029 0.9802
3.4989 2.5594 -2.5028 0.9802
3.3071 2.8027 -2.5028 0.9802
3.0984 3.0316 -2.5027 0.9802
2.9881 3.1404 -2.5027 0.9802
2.8739 3.2451 -2.5026 0.9802
2.5100 3.5338 -2.5025 0.9802
2.3821 3.6212 -2.5025 0.9802
2.2514 3.7039 -2.5024 0.9802
1.9808 3.8551 -2.5024 0.9802
1.8417 3.9234 -2.5023 0.9802
1.7003 3.9866 -2.5023 0.9802
1.4112 4.0977 -2.5022 0.9802
0.9645 4.2250 -2.5020 0.9802
0.6603 4.2829 -2.5019 0.9802
0.5068 4.3037 -2.5019 0.9802
0.1981 4.3287 -2.5018 0.9802
0.0433 4.3329 -2.5018 0.9802
-0.2662 4.3248 -2.5017 0.9802
-0.5744 4.2946 -2.5016 0.9802
-0.7275 4.2712 -2.5015 0.9802
-1.0306 4.2082 -2.5014 0.9802
-1.1803 4.1686 -2.5014 0.9802
-1.3285 4.1237 -2.5013 0.9802
-1.6196 4.0181 -2.5012 0.9802
-1.7621 3.9576 -2.5012 0.9802
-1.9024 3.8920 -2.5011 0.9802
-2.0402 3.8215 -2.5011 0.9802
-2.3078 3.6659 -2.5010 0.9802
-2.4373 3.5811 -2.5010 0.9802
-2.6868 3.3977 -2.5009 0.9802
-2.9225 3.1971 -2.5008 0.9802
-3.3480 2.7479 -2.5007 0.9802
-3.5356 2.5017 -2.5006 0.9802
-3.7052 2.2428 -2.5006 0.9802
