ply
format ascii 1.0
element vertex 1422
property float32 x
property float32 y
property float32 z
property float32 I
end_header
12.4233 -39.2751 7.2634 0.8459
12.4811 -35.0212 6.5556 0.8598
16.3785 -37.2400 7.1734 0.8477
13.3301 -27.5712 5.3999 0.8830
20.2627 -35.1984 7.1613 0.8479
22.0146 -35.2440 7.3272 0.8447
12.0315 -17.8020 3.7886 0.9164
23.7106 -32.4972 7.0932 0.8493
25.5908 -32.5462 7.3003 0.8452
25.8991 -30.6038 7.0692 0.8497
28.0208 -28.6488 7.0661 0.8498
29.8264 -28.3759 7.2590 0.8460
34.5902 -26.4319 7.6760 0.8379
40.5516 -26.5970 8.5511 0.8212
38.4994 22.8382 7.8930 0.8338
37.9909 28.4873 8.3729 0.8246
38.0073 30.6972 8.6146 0.8200
7.9845 11.5857 2.4810 0.9445
7.3938 11.6011 2.4257 0.9457
6.2846 11.6299 2.3309 0.9477
5.2537 11.6567 2.2545 0.9494
4.2834 11.6820 2.1939 0.9507
2.9355 11.8185 2.1472 0.9517
2.0504 11.8414 2.1190 0.9524
1.1839 11.8639 2.1023 0.9527
0.7547 11.8751 2.0981 0.9528
-0.5306 11.9085 2.1019 0.9527
-1.8356 11.9423 2.1305 0.9521
-3.1928 11.9775 2.1857 0.9509
-3.6630 11.9897 2.2106 0.9504
12.7677 -35.8255 5.8264 0.8574
20.1975 -41.7752 7.1084 0.8288
24.1194 -41.8978 7.4061 0.8223
24.7321 -39.5946 7.1517 0.8279
27.3794 -37.5255 7.1162 0.8286
29.6446 -37.7018 7.3473 0.8236
30.0012 -35.4512 7.1146 0.8287
32.4367 -35.6441 7.3830 0.8228
32.0625 -32.7811 7.0246 0.8306
34.6177 -30.6379 7.0819 0.8294
35.6360 -29.3212 7.0696 0.8297
35.6916 -27.2735 6.8814 0.8338
39.3488 14.6058 6.4299 0.8438
37.5380 17.0986 6.3191 0.8463
37.5817 18.7800 6.4361 0.8437
37.6744 22.3488 6.7106 0.8376
37.9920 28.4880 7.2747 0.8252
37.8891 30.6018 7.4611 0.8211
11.4500 11.4957 2.4856 0.9365
10.6726 11.5160 2.4053 0.9384
9.9430 11.5349 2.3330 0.9402
9.2551 11.5529 2.2677 0.9419
7.9847 11.5859 2.1556 0.9447
7.3940 11.6013 2.1075 0.9459
6.8283 11.6160 2.0642 0.9469
6.2847 11.6301 2.0252 0.9479
5.7607 11.6438 1.9901 0.9488
3.9314 9.6342 1.5941 0.9588
3.5363 9.6445 1.5737 0.9593
2.4278 9.7748 1.5429 0.9601
1.3495 9.9014 1.5309 0.9604
0.6339 9.9747 1.5311 0.9604
-0.0852 9.9960 1.5314 0.9604
-0.4450 9.9872 1.5315 0.9604
-0.8042 9.9654 1.5316 0.9603
-1.5191 9.8828 1.5318 0.9603
-1.8862 9.8868 1.5419 0.9601
-2.6406 9.9063 1.5706 0.9594
-3.4279 9.9267 1.6088 0.9584
12.7646 -35.8165 4.9514 0.8578
12.0310 -17.8012 2.7979 0.9170
35.1955 -33.4839 6.3260 0.8220
35.8699 -31.7460 6.2376 0.8243
35.5603 -25.1991 5.6755 0.8388
43.8099 14.4904 6.0089 0.8302
37.4956 15.4751 5.2822 0.8491
37.6268 20.5270 5.5815 0.8412
37.6741 22.3486 5.7042 0.8380
12.2825 11.4743 2.1888 0.9344
10.6729 11.5162 2.0446 0.9386
9.9432 11.5352 1.9832 0.9404
7.1032 9.5519 1.5501 0.9531
6.6091 9.5899 1.5167 0.9541
6.2609 9.8234 1.5169 0.9541
5.5400 10.2520 1.5175 0.9541
5.1684 10.4465 1.5177 0.9541
4.4050 10.7948 1.5182 0.9541
3.2685 10.0156 1.3719 0.9584
2.4227 11.5101 1.5317 0.9537
2.0071 11.5913 1.5319 0.9537
0.3232 11.7645 1.5326 0.9536
-0.1004 11.7695 1.5327 0.9536
-1.7887 11.6367 1.5331 0.9536
-2.2064 11.5654 1.5332 0.9536
-3.4405 11.2615 1.5334 0.9536
12.7346 -35.7324 4.0734 0.8585
7.2091 -18.1361 2.0957 0.9245
12.0307 -17.8009 2.3071 0.9172
35.4655 -31.3882 5.0857 0.8265
35.5222 -29.2275 4.9396 0.8311
35.6495 -27.2413 4.8178 0.8349
35.5543 -25.1948 4.6793 0.8392
35.9503 3.7323 3.8812 0.8647
35.9414 5.0446 3.8973 0.8641
35.9564 6.3737 3.9213 0.8634
39.7709 10.0466 4.4048 0.8479
43.7354 14.4657 4.9466 0.8308
37.4952 15.4750 4.3557 0.8494
37.7434 20.5906 4.6168 0.8412
37.9940 28.4896 5.0994 0.8261
38.0061 30.6962 5.2460 0.8216
9.5981 10.3565 1.5163 0.9448
9.2214 10.6978 1.5166 0.9448
8.4320 11.3388 1.5173 0.9447
7.3943 11.6017 1.4773 0.9462
6.8286 11.6164 1.4469 0.9472
6.2850 11.6306 1.4196 0.9482
5.2540 11.6573 1.3730 0.9499
4.2836 11.6826 1.3362 0.9512
3.2686 10.0158 1.1313 0.9585
3.3258 11.5897 1.2947 0.9527
2.9356 11.8191 1.3077 0.9522
2.4817 11.7903 1.2938 0.9527
2.0436 11.8017 1.2861 0.9530
1.6101 11.8130 1.2802 0.9532
0.7547 11.8757 1.2778 0.9533
0.3246 11.8152 1.2692 0.9536
-0.9619 11.9203 1.2842 0.9530
-1.8250 11.8728 1.2899 0.9528
-2.2672 11.8842 1.2992 0.9525
-2.2185 9.7148 1.0700 0.9607
-3.1929 11.9781 1.3311 0.9514
7.2017 -18.1174 1.6504 0.9247
12.0304 -17.8005 1.8187 0.9174
35.8484 -34.1051 4.1886 0.8199
35.6083 -25.2331 3.6944 0.8393
34.0619 -18.9858 3.3011 0.8551
39.5321 14.6739 3.5696 0.8443
37.4949 15.4748 3.4338 0.8497
37.7430 20.5904 3.6396 0.8415
37.6734 22.3482 3.7081 0.8388
12.8886 9.6645 1.3637 0.9374
13.0516 11.3413 1.4637 0.9329
12.2831 11.4749 1.4229 0.9347
9.2556 11.5536 1.2532 0.9423
8.5533 11.5019 1.2134 0.9441
7.3944 11.6019 1.1647 0.9463
6.8287 11.6166 1.1407 0.9473
6.2634 11.5906 1.1153 0.9485
5.7610 11.6444 1.0998 0.9492
5.2541 11.6576 1.0824 0.9500
4.7632 11.6725 1.0672 0.9507
3.2687 10.0160 0.8919 0.9586
3.3258 11.5899 1.0207 0.9527
2.9356 11.8193 1.0309 0.9523
2.4908 11.8339 1.0237 0.9526
2.0511 11.8454 1.0177 0.9529
1.6160 11.8568 1.0130 0.9531
1.1840 11.8648 1.0094 0.9533
0.7547 11.8759 1.0074 0.9534
0.3246 11.8154 1.0006 0.9537
-0.9619 11.9205 1.0124 0.9531
-1.3966 11.9317 1.0169 0.9529
-1.8453 12.0051 1.0282 0.9524
-2.2925 12.0167 1.0356 0.9521
-2.2171 9.7089 0.8430 0.9608
-3.6632 11.9905 1.0613 0.9509
-4.1449 12.0030 1.0750 0.9503
7.2007 -18.1149 1.2088 0.9248
12.7712 -24.1560 1.6944 0.8963
12.0302 -17.8001 1.3322 0.9175
39.7614 10.0442 2.5431 0.8484
44.0757 12.8381 2.8467 0.8320
43.8163 14.4925 2.8618 0.8311
37.4946 15.4747 2.5153 0.8500
37.6258 20.5264 2.6578 0.8422
37.6731 22.3479 2.7162 0.8390
13.7847 9.5812 1.0410 0.9349
13.7430 11.0998 1.0955 0.9316
9.2558 11.5538 0.9180 0.9424
8.6495 11.6313 0.8988 0.9436
7.9853 11.5868 0.8726 0.9452
7.3945 11.6022 0.8532 0.9464
5.7611 11.6446 0.8056 0.9493
5.2542 11.6578 0.7929 0.9500
4.7650 11.6772 0.7821 0.9507
3.2687 10.0162 0.6533 0.9587
3.3259 11.5901 0.7477 0.9528
2.9357 11.8195 0.7552 0.9524
2.4918 11.8383 0.7502 0.9527
2.0519 11.8499 0.7457 0.9529
1.1840 11.8649 0.7394 0.9533
0.7547 11.8761 0.7379 0.9534
-0.1015 11.8983 0.7378 0.9534
-0.9619 11.9207 0.7416 0.9532
-1.3966 11.9319 0.7450 0.9530
7.1997 -18.1124 0.7685 0.9249
12.7476 -24.1113 1.0754 0.8966
13.8974 -24.1411 1.0984 0.8945
42.3104 12.3239 1.7377 0.8383
42.3880 14.0200 1.7604 0.8363
39.1560 14.5343 1.6469 0.8460
37.4943 15.4746 1.5994 0.8501
37.4658 17.0657 1.6234 0.8481
37.6254 20.5262 1.6900 0.8423
37.6727 22.3478 1.7272 0.8392
34.9083 28.1943 1.7694 0.8356
12.2837 11.4754 0.6628 0.9349
10.6111 11.4496 0.6155 0.9394
9.2560 11.5540 0.5838 0.9425
7.9855 11.5870 0.5549 0.9452
7.3947 11.6024 0.5425 0.9464
6.8289 11.6171 0.5314 0.9475
5.7612 11.6448 0.5123 0.9493
5.2543 11.6580 0.5042 0.9501
3.2688 10.0163 0.4155 0.9587
2.9357 11.8197 0.4802 0.9524
1.6172 11.8657 0.4722 0.9532
0.7548 11.8763 0.4692 0.9535
0.3247 11.8157 0.4661 0.9538
-0.1015 11.8985 0.4692 0.9535
-1.8454 12.0055 0.4790 0.9525
-2.2144 9.6970 0.3922 0.9610
-3.1692 11.8890 0.4852 0.9519
11.8337 -42.6985 0.7484 0.8376
13.4597 -42.5514 0.7539 0.8365
7.1987 -18.1099 0.3292 0.9250
13.8971 -24.1407 0.4705 0.8945
12.0297 -17.7993 0.3629 0.9176
35.0290 -24.8226 0.7252 0.8422
39.7520 10.0418 0.6926 0.8487
43.6904 14.4508 0.7774 0.8319
39.5373 14.6758 0.7124 0.8447
37.7420 20.5898 0.7262 0.8420
13.0526 11.3421 0.2921 0.9332
12.2839 11.4757 0.2840 0.9350
10.6110 11.4495 0.2637 0.9395
8.6499 11.6318 0.2449 0.9437
7.9856 11.5873 0.2377 0.9453
7.3948 11.6026 0.2324 0.9464
6.8291 11.6173 0.2276 0.9475
5.7613 11.6450 0.2195 0.9494
5.2544 11.6582 0.2160 0.9501
4.7688 11.6864 0.2132 0.9508
3.2688 10.0165 0.1780 0.9587
2.4936 11.8472 0.2045 0.9527
2.0534 11.8587 0.2033 0.9530
1.1841 11.8653 0.2014 0.9534
0.7548 11.8765 0.2010 0.9535
0.3247 11.8159 0.1997 0.9538
-0.9620 11.9210 0.2020 0.9533
-1.8454 12.0057 0.2052 0.9526
-2.2926 12.0173 0.2067 0.9522
-2.2131 9.6912 0.1679 0.9610
-3.1693 11.8893 0.2079 0.9520
-3.6634 11.9912 0.2118 0.9511
4.8326 -17.4371 -0.1019 0.9302
6.2152 -17.4393 -0.1042 0.9286
6.9314 -17.4374 -0.1056 0.9277
7.6683 -17.4355 -0.1072 0.9266
8.4288 -17.4335 -0.1090 0.9255
10.8856 -17.4271 -0.1157 0.9211
34.4497 -32.7744 -0.2677 0.8268
34.5128 -30.5451 -0.2595 0.8316
37.7804 -22.8784 -0.2487 0.8381
39.7473 10.0406 -0.2308 0.8488
39.3610 14.6104 -0.2364 0.8454
35.6576 17.8185 -0.2244 0.8526
35.7006 19.4762 -0.2290 0.8499
35.7455 21.2045 -0.2340 0.8468
32.7042 22.7314 -0.2242 0.8527
28.3294 22.8807 -0.2050 0.8644
12.2842 11.4759 -0.0946 0.9350
10.6109 11.4493 -0.0879 0.9395
9.8635 11.4427 -0.0850 0.9414
9.2564 11.5545 -0.0834 0.9425
8.6500 11.6320 -0.0816 0.9437
6.8292 11.6175 -0.0759 0.9475
6.2630 11.5898 -0.0742 0.9487
5.2544 11.6584 -0.0720 0.9501
4.7707 11.6910 -0.0711 0.9507
4.2912 11.7034 -0.0702 0.9514
3.2689 10.0167 -0.0593 0.9587
3.3260 11.5907 -0.0679 0.9529
2.9358 11.8201 -0.0686 0.9525
2.4946 11.8517 -0.0682 0.9527
0.7548 11.8767 -0.0670 0.9535
0.3247 11.8161 -0.0666 0.9538
-0.1015 11.8989 -0.0670 0.9535
-0.5274 11.8382 -0.0667 0.9537
-0.9620 11.9212 -0.0673 0.9533
-1.3967 11.9325 -0.0676 0.9531
-1.8454 12.0059 -0.0684 0.9526
-2.2129 9.6903 -0.0560 0.9610
-3.1694 11.8896 -0.0693 0.9520
-3.6635 11.9914 -0.0706 0.9511
-4.1452 12.0039 -0.0715 0.9505
4.1636 -17.4390 -0.5048 0.9308
4.8327 -17.4372 -0.5095 0.9302
6.2151 -17.4392 -0.5213 0.9286
6.9314 -17.4373 -0.5284 0.9277
9.2160 -17.4313 -0.5552 0.9241
10.0336 -17.4292 -0.5663 0.9227
10.8855 -17.4270 -0.5786 0.9211
12.0292 -17.7986 -0.6049 0.9176
34.6916 -24.5836 -1.1972 0.8435
37.7790 -22.8775 -1.2436 0.8380
39.7426 10.0394 -1.1542 0.8487
42.0093 12.2362 -1.2321 0.8394
41.8782 13.8514 -1.2420 0.8382
39.3627 14.6110 -1.1823 0.8453
35.6159 16.2231 -1.1020 0.8550
35.6573 17.8183 -1.1224 0.8526
35.7003 19.4760 -1.1451 0.8498
33.8097 20.0562 -1.1069 0.8544
29.8527 20.7494 -1.0237 0.8646
12.0328 9.7185 -0.4355 0.9400
10.4682 9.7794 -0.4034 0.9443
9.7569 9.7958 -0.3893 0.9462
10.6745 11.5180 -0.4422 0.9391
9.2566 11.5548 -0.4169 0.9425
8.6052 11.5717 -0.4061 0.9439
6.8293 11.6177 -0.3795 0.9475
3.6472 9.9469 -0.2983 0.9585
3.2689 10.0169 -0.2967 0.9587
2.9359 11.8203 -0.3429 0.9524
1.0085 10.1060 -0.2860 0.9602
0.2782 10.1250 -0.2852 0.9603
-0.8193 10.1535 -0.2868 0.9601
-1.3967 11.9327 -0.3383 0.9531
-1.5636 10.1728 -0.2898 0.9597
-2.2809 11.9557 -0.3427 0.9525
-2.7271 10.2306 -0.2981 0.9585
4.1636 -17.4390 -0.9093 0.9307
4.8327 -17.4372 -0.9176 0.9301
5.5151 -17.4354 -0.9274 0.9294
6.2151 -17.4391 -0.9389 0.9285
6.9313 -17.4372 -0.9516 0.9276
7.6682 -17.4353 -0.9660 0.9266
8.4287 -17.4333 -0.9820 0.9254
10.0335 -17.4291 -1.0199 0.9226
32.4456 -35.6540 -2.4448 0.8244
32.8659 -33.6024 -2.3837 0.8284
34.5099 -30.5425 -2.3371 0.8315
28.5363 -23.4795 -1.8741 0.8624
33.3527 -23.6347 -2.0731 0.8490
34.8826 -22.8788 -2.1156 0.8461
41.7418 -21.3352 -2.3774 0.8288
42.4694 -19.8129 -2.3767 0.8289
43.7416 -16.6904 -2.3743 0.8290
44.7554 -15.2558 -2.3980 0.8275
48.5645 -10.8868 -2.5240 0.8193
48.9018 -9.1277 -2.5229 0.8194
49.3839 -5.5810 -2.5204 0.8195
49.5283 -3.7982 -2.5192 0.8196
49.6075 -2.0123 -2.5179 0.8197
49.4576 3.3410 -2.5139 0.8199
45.4128 9.7477 -2.3555 0.8303
41.8346 12.1853 -2.2098 0.8399
39.3644 14.6116 -2.1294 0.8452
37.4930 15.4740 -2.0570 0.8501
35.6156 16.2230 -1.9848 0.8549
34.5255 17.2528 -1.9574 0.8568
12.0331 9.7187 -0.7844 0.9399
9.7568 9.7957 -0.7012 0.9461
8.4574 9.8114 -0.6569 0.9494
8.6053 11.5719 -0.7313 0.9439
6.2891 9.8677 -0.5934 0.9542
6.8295 11.6179 -0.6835 0.9475
4.8998 9.9037 -0.5603 0.9567
4.7675 11.6832 -0.6399 0.9507
3.2690 10.0170 -0.5344 0.9587
2.0529 11.8556 -0.6102 0.9530
1.0085 10.1062 -0.5151 0.9601
0.6429 10.1157 -0.5140 0.9602
-0.1015 11.8993 -0.6035 0.9535
-0.8194 10.1536 -0.5166 0.9600
-1.5637 10.1729 -0.5220 0.9596
-2.2125 9.6885 -0.5040 0.9610
-2.7272 10.2309 -0.5370 0.9585
-3.6636 11.9918 -0.6359 0.9510
4.8327 -17.4372 -1.3267 0.9300
5.5151 -17.4354 -1.3408 0.9293
6.2151 -17.4390 -1.3574 0.9284
6.9313 -17.4371 -1.3758 0.9275
7.6682 -17.4352 -1.3966 0.9265
8.4286 -17.4332 -1.4198 0.9253
9.2158 -17.4311 -1.4457 0.9240
10.8854 -17.4267 -1.5066 0.9209
12.0286 -17.7978 -1.5751 0.9175
18.0943 -23.0122 -2.1464 0.8892
24.0911 -24.6309 -2.5262 0.8709
25.7925 -22.8272 -2.5254 0.8710
27.3579 -20.9053 -2.5245 0.8710
29.4332 -17.8237 -2.5230 0.8711
30.0486 -16.7489 -2.5224 0.8711
32.1075 -12.2511 -2.5197 0.8712
33.2227 -8.7144 -2.5184 0.8713
34.0851 -3.8521 -2.5151 0.8715
34.1903 -2.6220 -2.5143 0.8715
34.2512 -1.3894 -2.5134 0.8715
34.2396 1.0773 -2.5118 0.8716
34.1362 3.5439 -2.5164 0.8714
34.0515 4.7793 -2.5212 0.8712
33.9216 6.0130 -2.5260 0.8709
33.7464 7.2435 -2.5307 0.8707
33.5259 8.4690 -2.5354 0.8705
34.3460 10.0041 -2.6230 0.8663
33.8413 11.1932 -2.6135 0.8668
32.6517 13.4759 -2.5900 0.8679
31.4283 14.3156 -2.5322 0.8707
27.4238 16.2680 -2.3379 0.8800
13.9198 9.6752 -1.2430 0.9343
12.8582 9.6416 -1.1784 0.9376
10.3893 9.7056 -1.0425 0.9446
9.0556 9.7712 -0.9768 0.9480
8.4365 9.7872 -0.9474 0.9495
7.8527 9.8024 -0.9209 0.9509
6.2892 9.8679 -0.8580 0.9542
6.8296 11.6182 -0.9882 0.9474
5.3513 9.9028 -0.8253 0.9559
5.2557 11.6611 -0.9378 0.9500
4.7642 11.6750 -0.9246 0.9507
3.6470 9.9464 -0.7768 0.9584
3.2690 10.0172 -0.7726 0.9586
2.8861 10.0576 -0.7672 0.9589
2.0515 11.8478 -0.8816 0.9529
1.0085 10.1063 -0.7447 0.9601
0.6429 10.1158 -0.7432 0.9602
-1.3967 11.9331 -0.8809 0.9530
-2.2809 11.9561 -0.8925 0.9524
-2.7273 10.2312 -0.7764 0.9584
-3.6637 11.9920 -0.9194 0.9510
6.2150 -17.4388 -1.7774 0.9283
7.6681 -17.4350 -1.8286 0.9263
8.4286 -17.4330 -1.8590 0.9251
10.0333 -17.4288 -1.9307 0.9224
10.8853 -17.4266 -1.9726 0.9208
14.5668 -19.9650 -2.3727 0.9055
15.2649 -19.4138 -2.3710 0.9055
15.9384 -18.8337 -2.3687 0.9056
17.6690 -19.4162 -2.5203 0.8999
19.0158 -18.0911 -2.5198 0.8999
19.6522 -17.3929 -2.5195 0.8999
20.2628 -16.6721 -2.5192 0.8999
20.8462 -15.9298 -2.5188 0.8999
21.9318 -14.3846 -2.5180 0.9000
22.4315 -13.5837 -2.5176 0.9000
22.9017 -12.7653 -2.5172 0.9000
24.4770 -9.3396 -2.5152 0.9001
24.7918 -8.4508 -2.5146 0.9001
25.5404 -5.7255 -2.5129 0.9002
26.1683 -0.1189 -2.5123 0.9002
26.0088 2.7001 -2.5104 0.9003
25.8883 3.6335 -2.5098 0.9003
25.7342 4.5617 -2.5091 0.9003
25.4779 6.4360 -2.5228 0.8998
25.2649 7.3589 -2.5263 0.8997
24.6912 11.2469 -2.6048 0.8967
24.4555 12.2207 -2.6247 0.8960
24.0264 13.1074 -2.6276 0.8959
22.4209 14.4156 -2.5590 0.8984
13.9202 9.6754 -1.6275 0.9341
11.1470 9.6862 -1.4178 0.9424
10.3895 9.7059 -1.3650 0.9445
9.6855 9.7241 -1.3176 0.9463
9.0278 9.7411 -1.2751 0.9480
7.2776 9.7865 -1.1709 0.9522
5.7758 9.8254 -1.0942 0.9552
4.8727 9.8488 -1.0549 0.9568
4.4439 9.8600 -1.0383 0.9575
4.0516 9.9289 -1.0295 0.9578
3.6948 10.0766 -1.0304 0.9578
2.4945 10.0430 -0.9935 0.9593
2.1159 10.0528 -0.9863 0.9596
1.7424 10.0625 -0.9804 0.9598
1.3728 10.0721 -0.9759 0.9600
0.6413 10.0911 -0.9707 0.9602
-0.4508 10.1194 -0.9725 0.9601
-0.8174 10.1289 -0.9756 0.9600
-1.5599 10.1482 -0.9857 0.9596
-2.7228 10.2143 -1.0149 0.9584
-3.1032 10.1573 -1.0196 0.9582
-3.5112 10.1679 -1.0327 0.9577
5.5151 -17.4354 -2.1722 0.9290
6.2150 -17.4387 -2.1991 0.9281
9.9284 -17.2467 -2.3639 0.9230
10.5424 -16.8777 -2.3638 0.9230
11.1425 -16.4867 -2.3637 0.9230
11.7281 -16.0743 -2.3636 0.9230
12.9248 -15.2728 -2.3766 0.9226
14.2351 -15.6427 -2.5123 0.9183
14.8121 -15.1441 -2.5163 0.9182
15.3462 -14.5999 -2.5161 0.9182
16.8250 -12.8567 -2.5153 0.9182
17.7018 -11.6102 -2.5147 0.9183
18.4859 -10.3040 -2.5139 0.9183
19.1733 -8.9448 -2.5132 0.9183
19.7605 -7.5400 -2.5123 0.9183
20.0155 -6.8227 -2.5119 0.9183
20.2444 -6.0968 -2.5114 0.9184
20.4469 -5.3633 -2.5110 0.9184
20.8934 -3.1264 -2.5095 0.9184
21.0952 -0.8557 -2.5079 0.9185
21.0224 2.1825 -2.5106 0.9184
20.9260 2.9370 -2.5101 0.9184
20.8025 3.6875 -2.5096 0.9184
20.4750 5.1722 -2.5085 0.9185
20.0419 6.6289 -2.5075 0.9185
19.4167 9.7027 -2.5784 0.9163
19.2293 10.4904 -2.6020 0.9155
18.9420 11.2365 -2.6162 0.9151
13.8410 9.6204 -2.0023 0.9344
11.1473 9.6865 -1.7542 0.9422
9.0280 9.7413 -1.5777 0.9479
8.4107 9.7573 -1.5302 0.9494
6.7541 9.8003 -1.4138 0.9532
6.2544 9.8132 -1.3823 0.9542
5.7759 9.8256 -1.3539 0.9551
5.3160 9.8375 -1.3283 0.9560
4.0280 9.8709 -1.2664 0.9580
3.2571 9.9807 -1.2471 0.9586
2.8703 10.0024 -1.2361 0.9589
2.4869 10.0124 -1.2255 0.9593
1.0030 10.0509 -1.1998 0.9601
0.2767 10.0697 -1.1966 0.9602
-0.0859 10.0791 -1.1973 0.9602
-0.4495 10.0886 -1.1996 0.9601
-1.1831 10.1076 -1.2088 0.9598
-1.5551 10.1173 -1.2159 0.9596
-2.7049 10.1471 -1.2474 0.9586
-3.1032 10.1575 -1.2616 0.9581
5.0261 -15.8895 -2.3613 0.9349
7.3600 -15.2230 -2.3958 0.9340
8.0445 -15.2157 -2.4387 0.9328
8.7545 -15.2074 -2.4863 0.9316
9.9370 -14.7030 -2.5144 0.9308
10.9679 -13.9489 -2.5142 0.9308
11.4622 -13.5444 -2.5141 0.9308
11.9415 -13.1223 -2.5139 0.9308
12.8526 -12.2276 -2.5135 0.9308
14.0919 -10.7682 -2.5129 0.9309
15.1655 -9.1837 -2.5121 0.9309
15.4843 -8.6308 -2.5118 0.9309
15.7829 -8.0670 -2.5114 0.9309
16.5536 -6.3163 -2.5104 0.9309
17.4032 -3.2484 -2.5084 0.9310
17.5059 -2.6195 -2.5080 0.9310
17.6428 -1.3530 -2.5071 0.9310
17.6879 -0.0804 -2.5062 0.9310
17.6760 0.5561 -2.5057 0.9310
17.6412 1.1917 -2.5053 0.9311
17.5031 2.4566 -2.5043 0.9311
17.2742 3.7078 -2.5033 0.9311
17.1261 4.3262 -2.5028 0.9311
16.9559 4.9388 -2.5023 0.9311
16.7638 5.5447 -2.5018 0.9312
16.5501 6.1432 -2.5013 0.9312
16.3197 6.7354 -2.5015 0.9312
16.0717 7.3206 -2.5023 0.9311
15.8125 7.9016 -2.5046 0.9311
15.5301 8.4723 -2.5066 0.9310
13.6092 9.4592 -2.3483 0.9352
11.9672 9.6655 -2.1796 0.9397
10.3900 9.7063 -2.0146 0.9442
9.0282 9.7416 -1.8819 0.9478
8.4109 9.7576 -1.8253 0.9493
7.8289 9.7726 -1.7742 0.9507
7.2779 9.7869 -1.7281 0.9519
6.7542 9.8004 -1.6865 0.9531
6.2545 9.8134 -1.6489 0.9541
5.7760 9.8258 -1.6149 0.9550
4.8728 9.8492 -1.5570 0.9566
4.4441 9.8603 -1.5324 0.9572
4.0281 9.8711 -1.5106 0.9578
2.8703 10.0026 -1.4745 0.9588
2.1095 10.0223 -1.4512 0.9595
1.7371 10.0320 -1.4426 0.9597
1.3686 10.0415 -1.4359 0.9599
0.6394 10.0605 -1.4283 0.9601
0.2767 10.0699 -1.4273 0.9601
-0.0859 10.0793 -1.4282 0.9601
-1.1831 10.1078 -1.4419 0.9597
-1.5551 10.1175 -1.4504 0.9595
-2.7049 10.1473 -1.4880 0.9585
-3.5113 10.1683 -1.5242 0.9575
3.5417 -14.8342 -2.5125 0.9400
4.5998 -14.5418 -2.5126 0.9400
5.6340 -14.1736 -2.5127 0.9400
7.6093 -13.2182 -2.5126 0.9400
8.5400 -12.6359 -2.5125 0.9400
8.9889 -12.3200 -2.5124 0.9400
9.4260 -11.9880 -2.5123 0.9401
11.0462 -10.5090 -2.5117 0.9401
12.4359 -8.8125 -2.5109 0.9401
13.3094 -7.4186 -2.5102 0.9401
13.5663 -6.9340 -2.5099 0.9401
14.0267 -5.9389 -2.5093 0.9401
14.4139 -4.9133 -2.5087 0.9401
14.5795 -4.3908 -2.5084 0.9401
14.9616 -2.7927 -2.5073 0.9402
15.0502 -2.2518 -2.5070 0.9402
15.1686 -1.1632 -2.5062 0.9402
15.2082 -0.0692 -2.5054 0.9402
15.1984 0.4781 -2.5050 0.9402
15.1689 1.0247 -2.5046 0.9402
14.5820 4.2473 -2.5021 0.9403
14.4172 4.7685 -2.5016 0.9403
14.0319 5.7912 -2.5007 0.9403
13.0466 7.7394 -2.4990 0.9404
11.0743 8.9443 -2.3451 0.9439
10.7434 9.3355 -2.3447 0.9439
10.3902 9.7065 -2.3424 0.9440
9.6861 9.7248 -2.2611 0.9459
6.2546 9.8136 -1.9171 0.9539
5.7761 9.8260 -1.8777 0.9548
4.4441 9.8605 -1.7818 0.9571
3.6233 9.8818 -1.7339 0.9582
3.2569 9.9801 -1.7295 0.9583
2.8704 10.0028 -1.7144 0.9587
2.4869 10.0127 -1.6996 0.9590
2.1096 10.0225 -1.6873 0.9593
1.7372 10.0322 -1.6773 0.9596
1.0030 10.0512 -1.6641 0.9599
0.6394 10.0607 -1.6607 0.9600
-0.0859 10.0795 -1.6605 0.9600
-0.8149 10.0984 -1.6690 0.9598
-1.1831 10.1080 -1.6765 0.9596
-1.5552 10.1176 -1.6863 0.9594
-1.8833 9.8717 -1.6556 0.9601
-2.7050 10.1475 -1.7301 0.9583
-3.1033 10.1579 -1.7498 0.9579
-3.5114 10.1685 -1.7722 0.9573
3.5680 -12.8741 -2.5110 0.9471
5.3778 -12.2295 -2.5111 0.9471
6.2443 -11.8108 -2.5111 0.9471
6.6652 -11.5782 -2.5111 0.9471
7.0775 -11.3306 -2.5110 0.9471
7.4805 -11.0683 -2.5110 0.9471
7.8737 -10.7916 -2.5109 0.9471
8.9899 -9.8789 -2.5106 0.9471
9.6761 -9.2056 -2.5103 0.9471
10.0006 -8.8508 -2.5102 0.9471
10.3119 -8.4846 -2.5100 0.9471
10.6098 -8.1074 -2.5098 0.9471
10.8939 -7.7197 -2.5096 0.9471
12.0944 -5.6423 -2.5085 0.9471
12.4663 -4.7567 -2.5080 0.9471
12.6280 -4.3046 -2.5077 0.9471
12.9019 -3.3842 -2.5071 0.9472
13.1087 -2.4468 -2.5065 0.9472
13.2473 -1.4971 -2.5058 0.9472
13.2908 -1.0193 -2.5055 0.9472
13.3171 -0.5402 -2.5051 0.9472
13.3260 -0.0606 -2.5048 0.9472
13.3177 0.4189 -2.5044 0.9472
13.2921 0.8979 -2.5041 0.9472
13.2493 1.3755 -2.5037 0.9472
13.1892 1.8511 -2.5034 0.9472
12.7795 3.7223 -2.5019 0.9473
12.2982 5.0757 -2.5007 0.9473
12.1057 5.5142 -2.5003 0.9473
11.6741 6.3687 -2.4996 0.9473
11.4356 6.7837 -2.4992 0.9473
10.6331 7.9731 -2.4981 0.9473
8.8022 8.8373 -2.3444 0.9505
8.4772 9.1471 -2.3441 0.9505
7.7952 9.7304 -2.3435 0.9505
7.2782 9.7873 -2.2925 0.9516
6.2547 9.8138 -2.1874 0.9537
5.7762 9.8262 -2.1424 0.9547
5.3164 9.8381 -2.1019 0.9555
4.8730 9.8496 -2.0655 0.9563
4.4442 9.8607 -2.0330 0.9569
3.2569 9.9798 -1.9732 0.9582
2.8704 10.0030 -1.9560 0.9585
1.7372 10.0323 -1.9137 0.9594
0.2767 10.0702 -1.8935 0.9598
-0.0859 10.0797 -1.8946 0.9598
-0.8149 10.0986 -1.9043 0.9596
-1.5552 10.1178 -1.9241 0.9592
-2.1824 9.5571 -1.8426 0.9609
-2.7050 10.1477 -1.9740 0.9582
-3.1034 10.1581 -1.9964 0.9577
-3.5114 10.1687 -2.0221 0.9572
3.1712 -11.4424 -2.5099 0.9526
3.5810 -11.3211 -2.5099 0.9526
5.1685 -10.6903 -2.5100 0.9526
5.5499 -10.4973 -2.5099 0.9526
5.9240 -10.2906 -2.5099 0.9526
6.6486 -9.8374 -2.5098 0.9526
7.3386 -9.3332 -2.5097 0.9526
7.6694 -9.0627 -2.5096 0.9526
7.9903 -8.7804 -2.5095 0.9526
8.6004 -8.1821 -2.5092 0.9526
9.1656 -7.5414 -2.5089 0.9526
9.6830 -6.8617 -2.5086 0.9526
10.1500 -6.1465 -2.5082 0.9526
10.3638 -5.7768 -2.5080 0.9526
10.5641 -5.3996 -2.5078 0.9527
11.6533 -2.1752 -2.5058 0.9527
11.7768 -1.3310 -2.5052 0.9527
11.8157 -0.9061 -2.5049 0.9527
11.8392 -0.4803 -2.5046 0.9527
11.8474 -0.0539 -2.5043 0.9527
11.8401 0.3725 -2.5040 0.9527
11.8176 0.7983 -2.5037 0.9527
11.7265 1.6458 -2.5030 0.9527
11.5746 2.4845 -2.5024 0.9528
11.3629 3.3097 -2.5017 0.9528
11.2349 3.7160 -2.5014 0.9528
10.9355 4.5133 -2.5007 0.9528
10.1692 6.0324 -2.4993 0.9528
9.9442 6.3937 -2.4990 0.9528
8.9192 7.7503 -2.4977 0.9528
8.6333 8.0652 -2.4974 0.9528
8.1595 8.1920 -2.4440 0.9538
7.6060 8.2070 -2.3652 0.9553
6.2911 9.1284 -2.3434 0.9557
5.9578 9.3479 -2.3432 0.9557
5.2688 9.7501 -2.3426 0.9557
4.8731 9.8497 -2.3229 0.9561
4.4443 9.8608 -2.2863 0.9567
4.0283 9.8716 -2.2537 0.9573
3.6234 9.8821 -2.2249 0.9579
2.4870 10.0131 -2.1809 0.9587
2.1096 10.0229 -2.1651 0.9590
1.3687 10.0421 -2.1423 0.9594
0.6394 10.0610 -2.1310 0.9596
-0.0859 10.0798 -2.1307 0.9596
-1.5552 10.1180 -2.1639 0.9590
-2.1757 9.5278 -2.0658 0.9608
-3.1034 10.1582 -2.2452 0.9575
-3.5115 10.1688 -2.2740 0.9570
2.8511 -10.2875 -2.5089 0.9571
4.6468 -9.6112 -2.5090 0.9571
4.9897 -9.4377 -2.5090 0.9571
5.6555 -9.0541 -2.5089 0.9571
5.9775 -8.8445 -2.5089 0.9571
6.5979 -8.3912 -2.5087 0.9571
6.8954 -8.1480 -2.5086 0.9571
7.1839 -7.8943 -2.5086 0.9571
8.2407 -6.7805 -2.5081 0.9571
8.4789 -6.4791 -2.5079 0.9571
8.7061 -6.1694 -2.5078 0.9571
9.1261 -5.5264 -2.5074 0.9571
9.4986 -4.8549 -2.5071 0.9571
9.6664 -4.5096 -2.5069 0.9571
9.8216 -4.1584 -2.5067 0.9571
9.9640 -3.8020 -2.5065 0.9571
10.0935 -3.4406 -2.5062 0.9571
10.2098 -3.0748 -2.5060 0.9571
10.4026 -2.3320 -2.5055 0.9571
10.4787 -1.9559 -2.5053 0.9571
4.2642 -0.6381 -1.0133 0.9824
4.1235 -0.4660 -0.9753 0.9831
4.1214 0.1297 -0.9691 0.9832
4.2137 0.2846 -0.9926 0.9828
10.5457 1.4801 -2.5028 0.9572
10.4095 2.2343 -2.5022 0.9572
10.1043 3.3420 -2.5013 0.9572
9.9763 3.7030 -2.5010 0.9572
9.8354 4.0592 -2.5007 0.9572
9.6817 4.4100 -2.5004 0.9572
9.5156 4.7550 -2.5001 0.9572
9.1467 5.4258 -2.4994 0.9572
8.9444 5.7508 -2.4991 0.9572
8.7306 6.0682 -2.4988 0.9573
8.0228 6.9714 -2.4980 0.9573
7.7658 7.2548 -2.4977 0.9573
6.9363 8.0468 -2.4968 0.9573
6.5604 8.1891 -2.4661 0.9578
5.6663 8.2219 -2.3468 0.9598
5.0529 8.5958 -2.3434 0.9599
4.7399 8.7712 -2.3432 0.9599
4.4207 8.9353 -2.3430 0.9599
4.0959 9.0878 -2.3427 0.9599
2.4019 9.6702 -2.3418 0.9599
1.6998 9.8165 -2.3414 0.9599
1.3453 9.8707 -2.3413 0.9599
0.6318 9.9407 -2.3410 0.9599
0.2736 9.9565 -2.3409 0.9599
-0.0849 9.9593 -2.3408 0.9599
-0.8010 9.9266 -2.3406 0.9599
-1.1577 9.8909 -2.3405 0.9599
-1.5129 9.8425 -2.3404 0.9599
-2.1564 9.4428 -2.2764 0.9610
-2.5647 9.6214 -2.3402 0.9599
-2.9093 9.5227 -2.3402 0.9599
-3.2501 9.4117 -2.3402 0.9599
2.5872 -9.3351 -2.5081 0.9608
2.9215 -9.2361 -2.5082 0.9608
3.2521 -9.1251 -2.5082 0.9608
3.9000 -8.8676 -2.5082 0.9608
4.8330 -8.3954 -2.5082 0.9608
5.1319 -8.2159 -2.5081 0.9608
5.4242 -8.0258 -2.5081 0.9608
5.7094 -7.8252 -2.5080 0.9608
6.2571 -7.3938 -2.5079 0.9608
6.5190 -7.1636 -2.5078 0.9608
6.7723 -6.9241 -2.5077 0.9608
7.0168 -6.6756 -2.5076 0.9608
7.9005 -5.5985 -2.5071 0.9608
8.2817 -5.0151 -2.5068 0.9608
9.0425 -3.4504 -2.5059 0.9608
9.1601 -3.1224 -2.5057 0.9608
9.3593 -2.4550 -2.5053 0.9608
9.5100 -1.7751 -2.5048 0.9608
3.7312 -0.0170 -0.9661 0.9847
3.7312 0.1174 -0.9666 0.9847
3.7865 0.2558 -0.9826 0.9844
4.5982 0.4774 -1.1970 0.9811
9.5161 1.6868 -2.5023 0.9609
9.2758 2.7018 -2.5015 0.9609
9.1716 3.0335 -2.5012 0.9609
7.9253 5.5086 -2.4990 0.9609
7.5069 6.0631 -2.4985 0.9609
7.2831 6.3286 -2.4982 0.9609
6.2970 7.3052 -2.4972 0.9609
5.7541 7.7377 -2.4967 0.9609
5.4714 7.9390 -2.4964 0.9609
5.1816 8.1300 -2.4962 0.9609
4.0611 8.2086 -2.3712 0.9629
3.4190 8.3786 -2.3430 0.9633
2.8070 8.6015 -2.3427 0.9633
2.4955 8.6963 -2.3425 0.9633
1.2215 8.9621 -2.3419 0.9633
0.2484 9.0401 -2.3415 0.9633
-0.0771 9.0428 -2.3414 0.9633
-0.4025 9.0338 -2.3413 0.9633
-1.6944 8.8814 -2.3410 0.9633
-2.6416 8.6466 -2.3409 0.9633
-2.9511 8.5458 -2.3409 0.9633
2.0569 -8.6152 -2.5074 0.9638
2.3656 -8.5357 -2.5075 0.9638
2.9736 -8.3436 -2.5075 0.9638
3.2719 -8.2312 -2.5075 0.9638
4.1400 -7.8306 -2.5075 0.9638
4.4191 -7.6764 -2.5075 0.9638
4.9597 -7.3385 -2.5074 0.9638
5.7213 -6.7607 -2.5073 0.9639
5.9608 -6.5502 -2.5072 0.9639
6.1924 -6.3312 -2.5071 0.9639
7.2242 -5.1193 -2.5065 0.9639
7.4033 -4.8557 -2.5064 0.9639
8.1504 -3.4509 -2.5056 0.9639
8.4730 -2.5518 -2.5051 0.9639
3.5790 -0.6680 -1.0307 0.9850
3.4960 -0.5231 -1.0007 0.9854
3.4670 -0.1406 -0.9823 0.9857
3.4690 0.1091 -0.9825 0.9857
3.5044 0.2367 -0.9943 0.9855
3.5873 0.3724 -1.0210 0.9851
4.7861 0.6718 -1.3682 0.9801
8.5677 2.1643 -2.5016 0.9639
8.4834 2.4710 -2.5014 0.9639
8.3881 2.7744 -2.5011 0.9639
8.1652 3.3699 -2.5006 0.9639
8.0378 3.6612 -2.5004 0.9639
7.9000 3.9477 -2.5001 0.9640
7.2489 5.0384 -2.4991 0.9640
7.0622 5.2955 -2.4989 0.9640
6.6617 5.7887 -2.4984 0.9640
5.9972 6.4711 -2.4977 0.9640
5.5152 6.8844 -2.4972 0.9640
5.2634 7.0778 -2.4970 0.9640
5.0048 7.2620 -2.4968 0.9640
4.7398 7.4368 -2.4966 0.9640
4.1919 7.7572 -2.4962 0.9640
3.9097 7.9024 -2.4960 0.9640
3.6225 8.0374 -2.4958 0.9640
2.6750 8.1968 -2.4409 0.9648
2.3536 8.2017 -2.4156 0.9651
1.7280 8.2096 -2.3750 0.9657
1.4222 8.2128 -2.3596 0.9659
1.1206 8.2219 -2.3491 0.9661
-0.3682 8.2644 -2.3419 0.9662
-1.2632 8.2183 -2.3539 0.9660
-1.5670 8.2137 -2.3672 0.9658
-1.8750 8.2107 -2.3843 0.9656
-2.5061 8.2031 -2.4282 0.9650
-2.8311 8.1983 -2.4554 0.9646
1.8927 -7.9276 -2.5069 0.9665
2.1768 -7.8545 -2.5069 0.9665
2.4581 -7.7712 -2.5069 0.9665
3.0108 -7.5743 -2.5070 0.9665
3.2814 -7.4610 -2.5070 0.9665
3.8096 -7.2056 -2.5070 0.9665
4.0664 -7.0638 -2.5069 0.9665
4.3179 -6.9128 -2.5069 0.9665
4.5638 -6.7528 -2.5069 0.9665
4.8038 -6.5840 -2.5068 0.9665
5.0376 -6.4068 -2.5068 0.9665
5.2648 -6.2212 -2.5067 0.9665
5.4851 -6.0275 -2.5066 0.9665
5.9040 -5.6169 -2.5065 0.9665
6.2923 -5.1773 -2.5063 0.9665
6.9687 -4.2200 -2.5058 0.9665
7.1157 -3.9663 -2.5057 0.9665
7.2534 -3.7074 -2.5055 0.9665
7.3817 -3.4437 -2.5054 0.9665
7.9449 -1.7811 -2.5043 0.9665
3.2777 -0.1330 -1.0090 0.9864
3.2802 -0.0149 -1.0089 0.9864
3.2804 0.1032 -1.0095 0.9864
3.2934 0.2225 -1.0153 0.9863
3.3606 0.3489 -1.0392 0.9860
8.0563 1.1307 -2.5022 0.9665
8.0097 1.4198 -2.5020 0.9665
7.9527 1.7070 -2.5018 0.9665
7.8854 1.9919 -2.5016 0.9665
7.5151 3.1016 -2.5006 0.9665
7.3979 3.3697 -2.5004 0.9666
7.2712 3.6335 -2.5002 0.9666
7.1351 3.8924 -2.4999 0.9666
6.5003 4.8742 -2.4990 0.9666
6.1317 5.3282 -2.4986 0.9666
5.9355 5.5449 -2.4983 0.9666
5.3019 6.1508 -2.4977 0.9666
5.0767 6.3370 -2.4975 0.9666
4.1135 6.9977 -2.4967 0.9666
3.0660 7.5134 -2.4960 0.9666
2.5172 7.7135 -2.4956 0.9666
1.0954 8.0372 -2.4950 0.9666
0.8054 8.0711 -2.4948 0.9666
0.5144 8.0945 -2.4947 0.9666
-0.0692 8.1099 -2.4945 0.9666
-0.6523 8.0834 -2.4944 0.9666
-1.5196 7.9654 -2.4942 0.9666
-2.0886 7.8351 -2.4941 0.9666
-2.3692 7.7548 -2.4940 0.9666
-2.6467 7.6644 -2.4940 0.9666
1.7510 -7.3341 -2.5064 0.9687
2.0139 -7.2664 -2.5064 0.9687
2.5314 -7.1029 -2.5065 0.9687
2.7854 -7.0072 -2.5065 0.9687
4.6605 -5.9271 -2.5063 0.9687
5.0745 -5.5763 -2.5062 0.9687
5.4621 -5.1965 -2.5060 0.9687
5.8213 -4.7898 -2.5058 0.9687
6.3028 -4.1339 -2.5055 0.9687
6.4472 -3.9042 -2.5054 0.9687
6.5832 -3.6695 -2.5053 0.9687
6.9392 -2.9381 -2.5049 0.9687
7.2141 -2.1726 -2.5044 0.9687
7.3506 -1.6479 -2.5040 0.9687
3.1118 -0.4656 -1.0459 0.9868
3.1237 -0.1267 -1.0392 0.9869
3.1247 -0.0142 -1.0387 0.9869
3.1755 0.3297 -1.0612 0.9866
7.4542 1.0462 -2.5021 0.9688
7.3584 1.5794 -2.5017 0.9688
7.2962 1.8430 -2.5015 0.9688
7.1435 2.3627 -2.5010 0.9688
7.0532 2.6180 -2.5008 0.9688
6.9538 2.8699 -2.5006 0.9688
6.8454 3.1181 -2.5004 0.9688
6.3250 4.0667 -2.4995 0.9688
6.0151 4.5103 -2.4991 0.9688
5.4925 5.1311 -2.4985 0.9688
4.9063 5.6918 -2.4979 0.9688
4.6979 5.8643 -2.4977 0.9688
4.4835 6.0291 -2.4975 0.9688
4.2633 6.1861 -2.4973 0.9688
4.0376 6.3350 -2.4971 0.9688
3.8067 6.4758 -2.4970 0.9688
3.5709 6.6081 -2.4968 0.9688
3.3306 6.7319 -2.4966 0.9688
3.0859 6.8470 -2.4965 0.9688
2.3296 7.1384 -2.4960 0.9688
1.2809 7.3972 -2.4955 0.9689
1.0138 7.4382 -2.4954 0.9689
0.7454 7.4695 -2.4953 0.9689
0.4761 7.4912 -2.4952 0.9689
-0.0640 7.5055 -2.4950 0.9689
-0.3341 7.4981 -2.4949 0.9689
-1.4064 7.3718 -2.4946 0.9689
-1.6707 7.3163 -2.4946 0.9689
-1.9330 7.2513 -2.4946 0.9689
-2.4495 7.0934 -2.4945 0.9689
1.6273 -6.8161 -2.5060 0.9707
1.8716 -6.7532 -2.5060 0.9707
2.1135 -6.6815 -2.5060 0.9707
2.3526 -6.6012 -2.5061 0.9707
2.5886 -6.5123 -2.5061 0.9707
2.8213 -6.4149 -2.5061 0.9707
3.0504 -6.3092 -2.5061 0.9707
3.2754 -6.1953 -2.5061 0.9707
3.9240 -5.8060 -2.5060 0.9707
4.1303 -5.6610 -2.5059 0.9707
5.0764 -4.8295 -2.5056 0.9707
5.4102 -4.4516 -2.5055 0.9707
5.7160 -4.0505 -2.5053 0.9707
5.8578 -3.8421 -2.5052 0.9707
6.1184 -3.4104 -2.5049 0.9707
6.2369 -3.1879 -2.5048 0.9707
6.3473 -2.9612 -2.5047 0.9707
6.4494 -2.7306 -2.5045 0.9707
6.5431 -2.4966 -2.5044 0.9707
6.6283 -2.2594 -2.5043 0.9707
3.0500 -0.6837 -1.1178 0.9868
3.0081 -0.5615 -1.0943 0.9871
2.9849 -0.4466 -1.0793 0.9873
2.9910 -0.3380 -1.0764 0.9873
2.9961 -0.2298 -1.0746 0.9873
2.9989 -0.1216 -1.0733 0.9873
2.9992 -0.0137 -1.0725 0.9873
2.9950 0.2023 -1.0735 0.9873
3.0370 0.3153 -1.0919 0.9871
3.5870 0.5035 -1.2953 0.9847
6.8396 1.4680 -2.5016 0.9707
6.7818 1.7131 -2.5014 0.9707
6.7152 1.9559 -2.5012 0.9707
6.6399 2.1962 -2.5010 0.9707
6.4637 2.6677 -2.5006 0.9707
6.1371 3.3480 -2.5000 0.9707
5.7391 3.9890 -2.4994 0.9707
5.5914 4.1926 -2.4992 0.9707
5.4364 4.3908 -2.4990 0.9708
5.1057 4.7697 -2.4986 0.9708
4.3672 5.4514 -2.4979 0.9708
4.1679 5.6046 -2.4977 0.9708
3.9632 5.7506 -2.4975 0.9708
3.7534 5.8891 -2.4974 0.9708
3.5388 6.0200 -2.4972 0.9708
3.3196 6.1431 -2.4971 0.9708
2.6377 6.4639 -2.4966 0.9708
1.9253 6.7094 -2.4962 0.9708
1.4376 6.8299 -2.4959 0.9708
0.9425 6.9150 -2.4957 0.9708
0.6930 6.9441 -2.4956 0.9708
0.4426 6.9643 -2.4955 0.9708
0.1917 6.9755 -2.4954 0.9708
-0.0595 6.9776 -2.4954 0.9708
-0.3106 6.9708 -2.4953 0.9708
-1.5533 6.8018 -2.4950 0.9708
-1.7970 6.7414 -2.4950 0.9708
-2.0385 6.6723 -2.4949 0.9708
-2.2772 6.5946 -2.4949 0.9708
2.1950 -6.1591 -2.5057 0.9724
2.4153 -6.0762 -2.5057 0.9724
2.8461 -5.8867 -2.5057 0.9724
3.2621 -5.6667 -2.5057 0.9724
3.6612 -5.4172 -2.5056 0.9724
3.8537 -5.2819 -2.5056 0.9724
4.4003 -4.8354 -2.5054 0.9724
5.0480 -4.1535 -2.5051 0.9724
5.3333 -3.7794 -2.5050 0.9724
5.5909 -3.3857 -2.5047 0.9724
5.8194 -2.9745 -2.5045 0.9724
6.0177 -2.5479 -2.5043 0.9724
6.1052 -2.3296 -2.5041 0.9724
6.2562 -1.8842 -2.5039 0.9724
2.9086 -0.6520 -1.1423 0.9873
2.8667 -0.4290 -1.1108 0.9877
2.8740 -0.3248 -1.1084 0.9877
2.8791 -0.2208 -1.1066 0.9877
2.8765 0.1943 -1.1048 0.9877
6.4280 1.1394 -2.5017 0.9724
6.3823 1.3699 -2.5015 0.9724
6.1179 2.2709 -2.5008 0.9724
6.0317 2.4894 -2.5006 0.9724
5.9378 2.7046 -2.5004 0.9724
5.8362 2.9164 -2.5002 0.9724
5.6104 3.3281 -2.4998 0.9724
5.2179 3.9126 -2.4993 0.9724
5.0733 4.0975 -2.4991 0.9725
4.9222 4.2771 -2.4989 0.9725
4.7648 4.4512 -2.4988 0.9725
4.4316 4.7817 -2.4984 0.9725
3.8896 5.2305 -2.4979 0.9725
3.3026 5.6181 -2.4974 0.9725
3.0981 5.7330 -2.4973 0.9725
2.6773 5.9404 -2.4970 0.9725
2.2429 6.1169 -2.4967 0.9725
2.0211 6.1933 -2.4966 0.9725
1.3417 6.3742 -2.4962 0.9725
0.6468 6.4809 -2.4959 0.9725
-0.2899 6.5058 -2.4956 0.9725
-0.5238 6.4910 -2.4956 0.9725
-0.7571 6.4678 -2.4955 0.9725
-0.9893 6.4362 -2.4955 0.9725
-1.4497 6.3482 -2.4954 0.9725
-1.6772 6.2918 -2.4953 0.9725
-1.9025 6.2273 -2.4953 0.9725
1.4215 -5.9539 -2.5053 0.9739
1.8461 -5.8364 -2.5053 0.9739
2.0550 -5.7662 -2.5054 0.9739
2.4645 -5.6035 -2.5054 0.9739
3.4277 -5.0716 -2.5053 0.9739
3.6079 -4.9449 -2.5053 0.9739
3.9541 -4.6724 -2.5052 0.9739
4.4344 -4.2187 -2.5050 0.9739
4.5832 -4.0563 -2.5049 0.9739
4.7261 -3.8886 -2.5048 0.9739
4.9932 -3.5384 -2.5047 0.9739
5.1171 -3.3562 -2.5046 0.9739
5.2344 -3.1698 -2.5045 0.9739
5.3448 -2.9792 -2.5044 0.9739
5.7904 -1.9738 -2.5038 0.9739
5.9168 -1.5520 -2.5035 0.9739
2.7838 -0.6241 -1.1676 0.9877
2.7660 -0.5163 -1.1516 0.9879
2.7653 -0.3125 -1.1390 0.9880
2.7718 -0.1124 -1.1354 0.9881
2.7721 0.0872 -1.1351 0.9881
6.0185 1.0668 -2.5016 0.9739
5.9758 1.2827 -2.5015 0.9739
5.9254 1.4968 -2.5013 0.9739
5.8673 1.7089 -2.5011 0.9739
5.8015 1.9189 -2.5009 0.9739
5.7283 2.1263 -2.5008 0.9739
5.2533 3.1163 -2.4999 0.9739
5.1374 3.3031 -2.4997 0.9739
5.0148 3.4856 -2.4995 0.9739
4.8858 3.6636 -2.4994 0.9740
4.7505 3.8368 -2.4992 0.9740
4.3084 4.3256 -2.4987 0.9740
4.1497 4.4775 -2.4985 0.9740
3.8164 4.7638 -2.4982 0.9740
3.4634 5.0254 -2.4979 0.9740
3.2801 5.1465 -2.4978 0.9740
2.9010 5.3685 -2.4975 0.9740
2.7058 5.4691 -2.4973 0.9740
2.3052 5.6490 -2.4971 0.9740
1.4705 5.9202 -2.4966 0.9740
0.8237 6.0435 -2.4963 0.9740
0.6056 6.0690 -2.4962 0.9740
0.1675 6.0964 -2.4961 0.9740
-0.2714 6.0924 -2.4959 0.9740
-0.9265 6.0272 -2.4958 0.9740
-1.1427 5.9899 -2.4957 0.9740
-1.3575 5.9448 -2.4957 0.9740
-1.9903 5.7637 -2.4956 0.9740
1.3348 -5.5907 -2.5050 0.9752
1.5351 -5.5391 -2.5050 0.9752
1.9296 -5.4145 -2.5051 0.9752
2.1232 -5.3415 -2.5051 0.9752
2.3141 -5.2616 -2.5051 0.9752
2.5019 -5.1749 -2.5051 0.9752
2.6866 -5.0815 -2.5051 0.9752
3.2185 -4.7622 -2.5050 0.9752
3.5527 -4.5182 -2.5049 0.9752
3.7129 -4.3874 -2.5049 0.9752
3.8683 -4.2508 -2.5048 0.9752
4.3036 -3.8088 -2.5046 0.9752
4.4378 -3.6514 -2.5046 0.9752
4.6886 -3.3225 -2.5044 0.9752
4.8050 -3.1515 -2.5043 0.9752
4.9151 -2.9764 -2.5042 0.9752
5.0188 -2.7975 -2.5041 0.9752
5.2904 -2.2400 -2.5038 0.9752
2.6890 -0.2062 -1.1753 0.9883
2.6907 -0.0122 -1.1727 0.9883
2.6948 0.1820 -1.1771 0.9883
3.0786 0.5457 -1.3626 0.9865
5.6117 1.2045 -2.5014 0.9753
5.4482 1.8020 -2.5009 0.9753
5.3037 2.1889 -2.5006 0.9753
5.2212 2.3782 -2.5004 0.9753
5.0359 2.7472 -2.5001 0.9753
4.4613 3.6032 -2.4993 0.9753
4.3285 3.7612 -2.4991 0.9753
3.5841 4.4739 -2.4984 0.9753
3.4206 4.5998 -2.4982 0.9753
3.0805 4.8334 -2.4979 0.9753
2.9044 4.9409 -2.4978 0.9753
2.3548 5.2243 -2.4974 0.9753
2.1650 5.3054 -2.4973 0.9753
1.9725 5.3796 -2.4972 0.9753
1.7776 5.4469 -2.4971 0.9753
1.3810 5.5602 -2.4969 0.9753
0.9774 5.6447 -2.4967 0.9753
0.7736 5.6760 -2.4966 0.9753
0.1573 5.7258 -2.4963 0.9753
-0.0488 5.7276 -2.4963 0.9753
-0.4607 5.7089 -2.4962 0.9753
-0.6659 5.6886 -2.4961 0.9753
-0.8701 5.6608 -2.4961 0.9753
-1.0733 5.6257 -2.4960 0.9753
-1.6733 5.4771 -2.4959 0.9753
1.2566 -5.2632 -2.5047 0.9764
1.4452 -5.2146 -2.5048 0.9764
1.6320 -5.1593 -2.5048 0.9764
1.9989 -5.0286 -2.5048 0.9764
2.1785 -4.9534 -2.5048 0.9764
2.5292 -4.7838 -2.5048 0.9764
2.8667 -4.5895 -2.5048 0.9764
3.1893 -4.3713 -2.5047 0.9764
3.3445 -4.2536 -2.5047 0.9764
3.4954 -4.1304 -2.5046 0.9764
3.6417 -4.0018 -2.5046 0.9764
3.7833 -3.8681 -2.5045 0.9764
3.9200 -3.7294 -2.5045 0.9764
4.0515 -3.5858 -2.5044 0.9764
4.1779 -3.4376 -2.5043 0.9764
4.2987 -3.2849 -2.5043 0.9764
4.4140 -3.1279 -2.5042 0.9764
4.6273 -2.8021 -2.5040 0.9764
4.7250 -2.6337 -2.5039 0.9764
4.8165 -2.4619 -2.5038 0.9764
4.9018 -2.2868 -2.5037 0.9764
5.1190 -1.7449 -2.5034 0.9764
2.6267 -0.6890 -1.2570 0.9881
2.6099 -0.3905 -1.2215 0.9884
2.6109 -0.2951 -1.2163 0.9885
2.7871 0.4940 -1.3102 0.9876
5.2389 1.3234 -2.5012 0.9765
5.1295 1.6966 -2.5009 0.9765
5.0648 1.8800 -2.5007 0.9765
4.9936 2.0609 -2.5006 0.9765
4.6450 2.7554 -2.5000 0.9765
4.4342 3.0821 -2.4996 0.9765
4.2005 3.3926 -2.4993 0.9765
4.0755 3.5414 -2.4992 0.9765
3.8097 3.8249 -2.4989 0.9765
3.6694 3.9593 -2.4988 0.9765
3.2207 4.3310 -2.4983 0.9765
3.0626 4.4439 -2.4982 0.9765
2.9006 4.5510 -2.4981 0.9765
2.7347 4.6522 -2.4980 0.9765
2.5654 4.7473 -2.4978 0.9765
2.3928 4.8364 -2.4977 0.9765
2.2171 4.9191 -2.4976 0.9765
2.0385 4.9955 -2.4975 0.9765
1.4880 5.1854 -2.4972 0.9765
1.1111 5.2787 -2.4970 0.9765
0.5356 5.3672 -2.4967 0.9765
0.3421 5.3828 -2.4967 0.9765
-0.0460 5.3932 -2.4965 0.9765
-1.0106 5.2973 -2.4963 0.9765
-1.3889 5.2108 -2.4962 0.9765
1.1857 -4.9662 -2.5045 0.9775
1.5399 -4.8681 -2.5045 0.9775
1.8860 -4.7448 -2.5046 0.9775
2.2225 -4.5968 -2.5046 0.9775
2.3865 -4.5139 -2.5045 0.9775
2.5474 -4.4250 -2.5045 0.9775
2.7049 -4.3304 -2.5045 0.9775
3.0093 -4.1246 -2.5045 0.9775
3.1558 -4.0135 -2.5044 0.9775
3.2981 -3.8973 -2.5044 0.9775
3.5698 -3.6498 -2.5043 0.9775
3.6988 -3.5189 -2.5042 0.9775
3.8229 -3.3835 -2.5042 0.9775
3.9421 -3.2436 -2.5041 0.9775
4.2684 -2.7996 -2.5039 0.9775
4.6997 -1.9899 -2.5034 0.9775
2.9135 -0.8774 -1.4925 0.9865
2.5859 -0.1983 -1.2722 0.9885
2.5861 -0.1049 -1.2696 0.9885
2.5874 -0.0118 -1.2692 0.9885
2.5904 0.1750 -1.2736 0.9885
2.6266 0.4656 -1.3085 0.9882
4.9857 1.0701 -2.5013 0.9775
4.9437 1.2488 -2.5012 0.9775
4.8405 1.6010 -2.5009 0.9775
4.7794 1.7740 -2.5007 0.9775
4.7122 1.9448 -2.5006 0.9775
4.6389 2.1130 -2.5004 0.9775
4.5596 2.2784 -2.5003 0.9775
4.3833 2.6002 -2.5000 0.9775
3.9640 3.2015 -2.4994 0.9776
3.8460 3.3419 -2.4993 0.9776
3.5952 3.6095 -2.4990 0.9776
2.5808 4.3903 -2.4981 0.9776
1.9238 4.7143 -2.4976 0.9776
1.5796 4.8401 -2.4974 0.9776
1.0486 4.9816 -2.4972 0.9776
0.8686 5.0160 -2.4971 0.9776
0.3228 5.0799 -2.4969 0.9776
-0.0434 5.0897 -2.4967 0.9776
-0.2265 5.0848 -2.4967 0.9776
-0.5917 5.0551 -2.4966 0.9776
-0.7732 5.0304 -2.4966 0.9776
-1.3109 4.9176 -2.4965 0.9776
-1.6612 4.8105 -2.4964 0.9776
1.6206 -4.5472 -2.5043 0.9785
1.9435 -4.4189 -2.5043 0.9785
2.4084 -4.1836 -2.5043 0.9785
2.5574 -4.0942 -2.5043 0.9785
2.9837 -3.7946 -2.5042 0.9785
3.2488 -3.5700 -2.5041 0.9785
3.3751 -3.4507 -2.5041 0.9785
3.4970 -3.3270 -2.5040 0.9785
3.6144 -3.1989 -2.5040 0.9785
3.7271 -3.0667 -2.5039 0.9785
4.2153 -2.3496 -2.5035 0.9785
4.2969 -2.1963 -2.5035 0.9785
4.4435 -1.8814 -2.5033 0.9785
4.5081 -1.7202 -2.5032 0.9785
2.6148 -0.7875 -1.4167 0.9878
2.5633 -0.6724 -1.3748 0.9881
2.5656 -0.4789 -1.3539 0.9883
2.5653 -0.3839 -1.3457 0.9884
2.5658 -0.1968 -1.3350 0.9885
2.5665 -0.0117 -1.3314 0.9885
2.5682 0.1735 -1.3354 0.9885
2.5641 0.3599 -1.3433 0.9884
2.5986 0.4606 -1.3691 0.9882
4.6285 1.3481 -2.5010 0.9785
4.5191 1.6774 -2.5007 0.9785
4.4555 1.8388 -2.5006 0.9785
4.2307 2.3080 -2.5001 0.9785
4.0533 2.6061 -2.4999 0.9785
3.9566 2.7501 -2.4997 0.9785
3.6366 3.1600 -2.4993 0.9785
3.1449 3.6483 -2.4988 0.9785
3.0114 3.7590 -2.4987 0.9785
2.8740 3.8648 -2.4986 0.9785
2.5883 4.0611 -2.4983 0.9785
2.4404 4.1514 -2.4982 0.9785
2.2893 4.2363 -2.4981 0.9785
2.1352 4.3158 -2.4980 0.9785
1.6574 4.5203 -2.4977 0.9785
1.4936 4.5768 -2.4976 0.9785
1.3279 4.6275 -2.4975 0.9785
1.1604 4.6721 -2.4974 0.9785
0.8213 4.7431 -2.4973 0.9785
0.3053 4.8036 -2.4971 0.9785
-0.0410 4.8129 -2.4969 0.9785
-0.7312 4.7569 -2.4968 0.9785
-1.4061 4.6025 -2.4967 0.9785
1.0617 -4.4470 -2.5041 0.9794
1.2211 -4.4059 -2.5041 0.9794
1.5349 -4.3068 -2.5041 0.9794
1.6889 -4.2487 -2.5041 0.9794
1.9901 -4.1162 -2.5041 0.9794
2.8259 -3.5939 -2.5040 0.9794
3.1966 -3.2683 -2.5039 0.9794
3.5300 -2.9045 -2.5037 0.9794
3.6322 -2.7755 -2.5037 0.9794
3.8222 -2.5069 -2.5035 0.9794
3.9098 -2.3677 -2.5035 0.9794
3.9924 -2.2254 -2.5034 0.9794
4.2698 -1.6292 -2.5030 0.9794
4.3255 -1.4745 -2.5029 0.9794
2.5875 -0.7793 -1.4801 0.9878
2.5386 -0.6659 -1.4374 0.9881
2.5429 -0.4746 -1.4168 0.9883
2.5450 -0.2876 -1.4028 0.9884
2.5456 -0.1952 -1.3983 0.9884
2.5463 -0.0116 -1.3946 0.9885
2.5461 0.0801 -1.3952 0.9884
2.5415 0.3567 -1.4056 0.9884
4.4274 1.1184 -2.5011 0.9794
4.3841 1.2770 -2.5010 0.9794
4.3350 1.4338 -2.5008 0.9794
4.2202 1.7418 -2.5006 0.9794
4.1546 1.8924 -2.5004 0.9794
4.0836 2.0406 -2.5003 0.9794
3.7477 2.6049 -2.4998 0.9794
3.6514 2.7379 -2.4996 0.9794
3.5503 2.8674 -2.4995 0.9794
3.4446 2.9932 -2.4994 0.9794
3.3345 3.1150 -2.4993 0.9794
3.2201 3.2329 -2.4991 0.9794
2.8525 3.5606 -2.4988 0.9794
2.5887 3.7562 -2.4986 0.9794
2.3116 3.9324 -2.4983 0.9794
1.8741 4.1581 -2.4980 0.9794
1.7231 4.2227 -2.4979 0.9794
1.5700 4.2818 -2.4979 0.9794
1.4148 4.3354 -2.4978 0.9794
1.0992 4.4256 -2.4976 0.9794
0.6158 4.5179 -2.4974 0.9794
0.4528 4.5370 -2.4973 0.9794
0.2892 4.5503 -2.4972 0.9794
0.1252 4.5577 -2.4972 0.9794
-0.0389 4.5591 -2.4971 0.9794
-0.2029 4.5546 -2.4971 0.9794
-0.5300 4.5281 -2.4970 0.9794
-0.6926 4.5060 -2.4970 0.9794
-1.0149 4.4444 -2.4969 0.9794
-1.3320 4.3598 -2.4969 0.9794
-1.4880 4.3091 -2.4968 0.9794
1.1583 -4.1794 -2.5039 0.9802
1.6020 -4.0303 -2.5039 0.9802
1.8878 -3.9046 -2.5039 0.9802
2.1637 -3.7587 -2.5039 0.9802
2.2976 -3.6783 -2.5039 0.9802
2.4285 -3.5932 -2.5039 0.9802
2.6806 -3.4091 -2.5038 0.9802
2.8015 -3.3104 -2.5038 0.9802
3.0323 -3.1002 -2.5037 0.9802
3.4454 -2.6328 -2.5035 0.9802
3.5379 -2.5071 -2.5034 0.9802
3.6257 -2.3781 -2.5034 0.9802
3.7088 -2.2460 -2.5033 0.9802
3.7872 -2.1110 -2.5032 0.9802
3.8606 -1.9732 -2.5032 0.9802
3.9922 -1.6904 -2.5030 0.9802
4.1032 -1.3987 -2.5028 0.9802
2.5200 -0.6610 -1.5041 0.9880
2.5231 -0.3775 -1.4729 0.9883
2.5229 -0.1935 -1.4609 0.9884
2.5237 -0.0115 -1.4571 0.9884
2.5245 0.0794 -1.4582 0.9884
2.5260 0.1706 -1.4617 0.9884
2.5423 0.4506 -1.4907 0.9881
2.6086 0.5599 -1.5404 0.9878
4.2000 1.0609 -2.5011 0.9802
4.0035 1.6523 -2.5006 0.9802
3.7242 2.2092 -2.5001 0.9802
3.4639 2.5974 -2.4997 0.9802
3.1633 2.9552 -2.4993 0.9802
3.0548 3.0670 -2.4992 0.9802
2.9423 3.1748 -2.4991 0.9802
2.8260 3.2785 -2.4990 0.9802
2.4559 3.5635 -2.4987 0.9802
1.4895 4.0621 -2.4980 0.9802
1.3423 4.1130 -2.4979 0.9802
1.1933 4.1585 -2.4978 0.9802
1.0429 4.1987 -2.4977 0.9802
0.8911 4.2333 -2.4977 0.9802
0.7381 4.2625 -2.4976 0.9802
0.2744 4.3169 -2.4974 0.9802
0.1188 4.3239 -2.4974 0.9802
-0.1925 4.3211 -2.4973 0.9802
-0.6571 4.2749 -2.4971 0.9802
-0.8105 4.2485 -2.4971 0.9802
-0.9629 4.2165 -2.4971 0.9802
