ply
format ascii 1.0
element vertex 1032
property float32 x
property float32 y
property float32 z
property float32 I
end_header
15.5638 20.6784 3.9648 0.9006
21.8560 20.2213 3.8774 0.8868
20.3759 20.2530 3.7411 0.8906
18.9946 20.2825 3.6186 0.8940
17.6993 20.3103 3.5082 0.8970
15.5637 20.6782 3.3702 0.9009
15.6393 24.2076 3.7530 0.8902
20.3759 20.2530 3.0850 0.8909
15.5993 22.3478 2.9265 0.8962
15.6391 24.2072 3.0947 0.8905
15.6839 26.2964 3.2878 0.8841
15.7346 28.6669 3.5115 0.8767
15.7929 31.3871 3.7730 0.8682
20.3759 20.2530 2.4320 0.8911
18.9946 20.2825 2.3523 0.8944
17.6993 20.3103 2.2806 0.8975
16.4791 20.3364 2.2158 0.9003
15.5633 20.6777 2.1908 0.9013
15.6389 24.2070 2.4396 0.8908
15.8604 34.5490 3.2181 0.8585
12.7981 8.8187 0.9638 0.9396
21.8560 20.2213 1.8464 0.8875
18.9946 20.2825 1.7231 0.8946
15.5631 20.6775 1.6048 0.9015
15.6387 24.2067 1.7871 0.8909
12.7959 8.8172 0.6127 0.9397
21.8560 20.2213 1.1741 0.8876
17.6993 20.3103 1.0623 0.8978
16.4791 20.3364 1.0321 0.9005
15.5630 20.6772 1.0205 0.9016
12.7937 8.8157 0.2624 0.9397
21.8544 20.2199 0.5029 0.8877
18.9932 20.2811 0.4694 0.8948
17.6980 20.3088 0.4550 0.8978
16.4780 20.3350 0.4421 0.9006
15.5626 20.6767 0.4371 0.9016
15.5983 22.3465 0.4603 0.8967
15.6382 24.2059 0.4868 0.8911
15.6829 26.2949 0.5172 0.8847
15.7337 28.6652 0.5524 0.8774
15.7919 31.3852 0.5935 0.8689
15.8596 34.5473 0.6421 0.8589
20.3744 20.2515 -0.1617 0.8914
17.6980 20.3088 -0.1517 0.8978
16.4780 20.3350 -0.1474 0.9006
15.5624 20.6765 -0.1457 0.9017
15.5982 22.3462 -0.1534 0.8967
15.6827 26.2945 -0.1724 0.8847
15.7334 28.6647 -0.1841 0.8774
12.7892 8.8126 -0.4373 0.9397
20.3744 20.2515 -0.8089 0.8914
17.6980 20.3088 -0.7585 0.8978
15.6825 26.2942 -0.8621 0.8847
15.8591 34.5462 -1.0704 0.8589
49.5602 5.0765 -2.5266 0.8191
48.8926 8.5784 -2.5174 0.8197
48.5257 10.3171 -2.5160 0.8198
48.1231 12.0470 -2.5158 0.8198
29.2126 11.9573 -1.6008 0.8812
29.0750 14.4098 -1.6457 0.8781
29.0046 15.6925 -1.6724 0.8763
28.9405 17.0244 -1.7028 0.8742
12.7870 8.8111 -0.7875 0.9397
28.8562 21.4467 -1.8233 0.8659
28.6891 24.6972 -1.9198 0.8593
21.8544 20.2199 -1.5099 0.8876
15.5621 20.6761 -1.3124 0.9015
15.6376 24.2050 -1.4614 0.8910
15.7330 28.6639 -1.6582 0.8773
15.7912 31.3837 -1.7817 0.8687
17.8495 42.8661 -2.3549 0.8303
16.3006 43.4698 -2.3544 0.8303
11.5401 44.9426 -2.3532 0.8304
9.9217 45.3169 -2.3526 0.8304
3.3498 46.2392 -2.3511 0.8305
1.6922 46.3248 -2.3509 0.8306
-3.2829 46.2237 -2.3501 0.8306
-8.2164 45.5875 -2.3492 0.8307
-11.4538 44.8700 -2.3485 0.8307
-19.2456 42.0802 -2.3467 0.8308
19.5426 -30.9704 -2.6851 0.8634
20.4610 -29.9905 -2.6620 0.8645
21.3389 -28.9907 -2.6394 0.8656
22.1785 -27.9756 -2.6176 0.8666
22.9678 -26.9316 -2.5953 0.8677
23.7258 -25.8833 -2.5745 0.8686
26.4286 -21.6195 -2.5036 0.8720
27.0191 -20.5330 -2.4882 0.8727
27.5625 -19.4297 -2.4726 0.8735
28.0955 -18.3361 -2.4599 0.8741
28.6130 -17.2457 -2.4496 0.8746
23.2016 -11.8092 -1.9089 0.9009
33.2984 -10.0014 -2.5493 0.8698
33.6112 -8.7967 -2.5475 0.8699
33.8794 -7.5822 -2.5456 0.8700
34.2804 -5.1306 -2.5415 0.8702
34.5423 -1.4221 -2.5349 0.8705
34.5389 -0.1845 -2.5325 0.8706
34.4903 1.0511 -2.5301 0.8708
34.2586 3.5091 -2.5251 0.8710
33.8522 5.9395 -2.5200 0.8712
33.2595 8.3261 -2.5139 0.8715
29.2519 10.7677 -2.2855 0.8825
29.2117 11.9570 -2.3143 0.8811
29.1426 13.1656 -2.3447 0.8796
27.1528 17.3101 -2.3611 0.8788
25.8368 19.2026 -2.3603 0.8789
24.3890 20.9955 -2.3596 0.8789
21.8544 20.2199 -2.1830 0.8874
20.3744 20.2515 -2.1063 0.8912
18.9932 20.2811 -2.0373 0.8945
17.6980 20.3088 -1.9752 0.8976
16.4780 20.3350 -1.9191 0.9003
15.5619 20.6758 -1.8974 0.9014
15.6821 26.2935 -2.2448 0.8845
13.3997 29.1889 -2.3549 0.8791
12.3442 29.6450 -2.3545 0.8792
11.2739 30.0648 -2.3543 0.8792
10.1892 30.4455 -2.3540 0.8792
9.0917 30.7869 -2.3537 0.8792
2.3178 31.9939 -2.3520 0.8793
0.0227 32.0702 -2.3515 0.8793
-2.2714 31.9821 -2.3509 0.8793
-3.4141 31.8736 -2.3504 0.8794
-5.6836 31.5346 -2.3494 0.8794
-7.9222 31.0351 -2.3485 0.8794
-9.0265 30.7261 -2.3481 0.8795
-10.1188 30.3779 -2.3477 0.8795
-13.3109 29.1040 -2.3466 0.8795
13.1541 -22.6003 -2.5105 0.9003
15.3156 -20.8076 -2.4804 0.9014
15.9951 -20.1759 -2.4718 0.9017
16.6465 -19.5193 -2.4629 0.9020
17.2688 -18.8391 -2.4535 0.9024
18.4500 -17.4395 -2.4374 0.9030
19.0117 -16.7232 -2.4309 0.9033
19.5439 -15.9875 -2.4241 0.9035
20.5047 -14.4546 -2.4085 0.9041
21.2584 -12.8129 -2.3830 0.9051
21.5153 -11.9393 -2.3623 0.9059
21.8995 -11.1465 -2.3591 0.9060
24.7443 -8.4089 -2.5090 0.9003
25.0302 -7.5180 -2.5091 0.9003
25.2841 -6.6173 -2.5092 0.9003
25.5054 -5.7081 -2.5092 0.9003
25.6939 -4.7916 -2.5093 0.9003
25.8495 -3.8687 -2.5093 0.9003
25.9718 -2.9410 -2.5094 0.9003
26.0607 -2.0094 -2.5094 0.9003
26.1261 0.7962 -2.5094 0.9003
26.0807 1.7309 -2.5094 0.9003
26.0018 2.6634 -2.5094 0.9003
25.5651 5.4354 -2.5092 0.9003
24.7790 6.2031 -2.4523 0.9024
23.5911 6.8119 -2.3574 0.9060
23.3538 7.6591 -2.3596 0.9060
22.7614 9.3168 -2.3612 0.9059
22.4110 10.1245 -2.3609 0.9059
20.7273 13.2138 -2.3599 0.9059
19.1845 15.3545 -2.3591 0.9060
18.6203 16.0294 -2.3588 0.9060
18.0323 16.6837 -2.3585 0.9060
17.4214 17.3164 -2.3582 0.9060
16.7883 17.9267 -2.3579 0.9060
15.4587 19.0771 -2.3573 0.9060
14.7640 19.6158 -2.3570 0.9061
11.8070 21.5113 -2.3558 0.9061
11.0280 21.9174 -2.3555 0.9061
10.2351 22.2953 -2.3552 0.9061
9.4292 22.6446 -2.3549 0.9061
7.7829 23.2553 -2.3543 0.9062
6.9446 23.5161 -2.3540 0.9062
6.0975 23.7468 -2.3538 0.9062
5.2429 23.9469 -2.3535 0.9062
0.0173 24.4995 -2.3521 0.9062
-0.8596 24.4822 -2.3519 0.9063
-5.2033 23.9277 -2.3509 0.9063
-7.7367 23.2265 -2.3503 0.9063
-9.3774 22.6101 -2.3500 0.9063
10.8946 -17.2652 -2.4250 0.9211
11.4890 -16.8399 -2.4215 0.9212
12.0658 -16.3924 -2.4178 0.9213
12.6241 -15.9238 -2.4138 0.9214
13.1631 -15.4346 -2.4096 0.9215
13.6818 -14.9259 -2.4052 0.9217
14.6458 -13.8436 -2.3939 0.9220
15.4952 -12.6755 -2.3780 0.9225
16.2264 -11.4385 -2.3582 0.9231
16.6151 -10.8435 -2.3568 0.9232
16.9817 -10.2353 -2.3553 0.9232
18.8109 -9.5744 -2.5073 0.9185
19.1423 -8.8952 -2.5074 0.9185
19.4492 -8.2046 -2.5074 0.9185
19.7311 -7.5033 -2.5075 0.9185
19.9876 -6.7924 -2.5076 0.9185
20.6021 -4.6108 -2.5078 0.9185
20.7543 -3.8704 -2.5078 0.9185
20.9786 -2.3755 -2.5079 0.9185
21.1127 -0.1128 -2.5079 0.9185
21.1032 0.6431 -2.5079 0.9185
21.0666 1.3981 -2.5079 0.9185
21.0029 2.1513 -2.5079 0.9185
20.9121 2.9018 -2.5079 0.9185
20.7946 3.6485 -2.5078 0.9185
20.4795 5.1268 -2.5077 0.9185
20.2824 5.8565 -2.5077 0.9185
18.6133 6.8517 -2.3560 0.9232
18.1014 8.1776 -2.3594 0.9231
17.7999 8.8218 -2.3598 0.9231
17.4712 9.4525 -2.3596 0.9231
17.1201 10.0710 -2.3594 0.9231
15.0460 12.9525 -2.3583 0.9231
14.0779 13.9931 -2.3578 0.9232
12.4928 15.4170 -2.3571 0.9232
11.3554 16.2680 -2.3566 0.9232
10.1602 17.0353 -2.3561 0.9232
9.5429 17.3863 -2.3559 0.9232
8.2728 18.0208 -2.3554 0.9232
6.9608 18.5628 -2.3549 0.9232
6.2912 18.7982 -2.3547 0.9233
5.6137 19.0094 -2.3545 0.9233
4.9291 19.1963 -2.3542 0.9233
4.2384 19.3585 -2.3540 0.9233
2.1379 19.6957 -2.3533 0.9233
1.4313 19.7578 -2.3531 0.9233
0.0140 19.8060 -2.3527 0.9233
-1.4029 19.7529 -2.3523 0.9233
-2.1089 19.6883 -2.3521 0.9233
-4.2065 19.3442 -2.3515 0.9234
-4.8960 19.1798 -2.3513 0.9234
-6.9226 18.5406 -2.3509 0.9234
-7.5814 18.2798 -2.3507 0.9234
9.0015 -14.2652 -2.3900 0.9341
9.4959 -13.9185 -2.3874 0.9342
9.9942 -13.5780 -2.3888 0.9342
10.4761 -13.2143 -2.3893 0.9341
10.8952 -12.7755 -2.3790 0.9344
11.2948 -12.3219 -2.3684 0.9347
12.0891 -11.4270 -2.3570 0.9350
12.4848 -10.9819 -2.3559 0.9350
12.8638 -10.5230 -2.3548 0.9351
13.7788 -9.7132 -2.3886 0.9342
14.8119 -9.6667 -2.5061 0.9310
15.1490 -9.1306 -2.5062 0.9310
15.7646 -8.0239 -2.5064 0.9310
16.0423 -7.4547 -2.5064 0.9310
16.2993 -6.8759 -2.5065 0.9310
16.7504 -5.6923 -2.5067 0.9310
17.1155 -4.4794 -2.5068 0.9310
17.2652 -3.8639 -2.5068 0.9310
17.3927 -3.2435 -2.5068 0.9310
17.6407 -1.3601 -2.5069 0.9310
17.6781 -0.7278 -2.5069 0.9310
17.6929 -0.0945 -2.5069 0.9310
17.3055 3.6793 -2.5068 0.9310
17.1624 4.2964 -2.5068 0.9310
15.3746 6.2932 -2.3538 0.9351
15.1469 6.8429 -2.3550 0.9351
14.6353 7.9182 -2.3577 0.9350
14.0371 8.9487 -2.3587 0.9350
12.9937 10.3996 -2.3581 0.9350
12.6121 10.8572 -2.3579 0.9350
10.9296 12.5420 -2.3571 0.9350
9.5196 13.6380 -2.3565 0.9350
8.0005 14.5762 -2.3559 0.9350
5.8361 15.5635 -2.3551 0.9351
4.1329 16.0954 -2.3545 0.9351
2.3829 16.4418 -2.3540 0.9351
1.7927 16.5152 -2.3538 0.9351
0.0118 16.6084 -2.3532 0.9351
-0.5827 16.5970 -2.3531 0.9351
-1.1764 16.5643 -2.3529 0.9351
-1.7685 16.5104 -2.3527 0.9351
-2.9449 16.3394 -2.3524 0.9351
-4.1059 16.0848 -2.3521 0.9351
-4.6788 15.9265 -2.3520 0.9351
-5.8057 15.5493 -2.3517 0.9351
-6.3582 15.3307 -2.3516 0.9351
-6.9026 15.0925 -2.3515 0.9352
7.6538 -12.1294 -2.3627 0.9435
8.0629 -11.8181 -2.3569 0.9437
9.2750 -10.8756 -2.3547 0.9437
10.3773 -9.8090 -2.3524 0.9438
11.7705 -9.6286 -2.5052 0.9402
12.4302 -8.7624 -2.5054 0.9402
13.5554 -6.8994 -2.5057 0.9402
14.4028 -4.8945 -2.5060 0.9402
14.8453 -3.3224 -2.5061 0.9402
15.0453 -2.2517 -2.5062 0.9402
15.1164 -1.7117 -2.5062 0.9402
15.1797 1.0074 -2.5062 0.9402
14.7570 3.6942 -2.5061 0.9402
14.2751 5.2548 -2.5059 0.9402
14.0775 5.7622 -2.5059 0.9402
12.3229 7.2490 -2.3553 0.9437
12.0611 7.6891 -2.3564 0.9437
11.7835 8.1196 -2.3574 0.9436
11.4881 8.5383 -2.3580 0.9436
11.1743 8.9435 -2.3579 0.9436
10.1490 10.0878 -2.3573 0.9436
9.7806 10.4439 -2.3572 0.9436
9.3998 10.7865 -2.3570 0.9436
9.0070 11.1153 -2.3568 0.9437
8.6027 11.4298 -2.3567 0.9437
7.7617 12.0142 -2.3563 0.9437
6.8812 12.5369 -2.3560 0.9437
6.4275 12.7742 -2.3558 0.9437
5.4962 13.1994 -2.3554 0.9437
4.5371 13.5569 -2.3551 0.9437
2.5549 14.0616 -2.3544 0.9437
2.0498 14.1431 -2.3543 0.9437
1.0325 14.2516 -2.3539 0.9437
0.5216 14.2785 -2.3538 0.9437
0.0101 14.2871 -2.3536 0.9437
-0.5013 14.2774 -2.3535 0.9437
-1.0120 14.2495 -2.3533 0.9437
-2.0287 14.1389 -2.3531 0.9437
-3.0348 13.9559 -2.3528 0.9437
-3.5323 13.8376 -2.3527 0.9437
-4.5128 13.5480 -2.3524 0.9438
-4.9947 13.3772 -2.3523 0.9438
6.2991 -10.8226 -2.3537 0.9503
7.4179 -10.0778 -2.3520 0.9503
7.7725 -9.8041 -2.3516 0.9504
9.6837 -9.1533 -2.5046 0.9472
11.1608 -7.2839 -2.5050 0.9472
11.6540 -6.4670 -2.5052 0.9472
12.2811 -5.1807 -2.5053 0.9472
12.4589 -4.7379 -2.5054 0.9472
12.6208 -4.2889 -2.5054 0.9472
12.7664 -3.8344 -2.5055 0.9472
13.0084 -2.9113 -2.5056 0.9472
13.1045 -2.4437 -2.5056 0.9472
13.3245 0.4061 -2.5056 0.9472
13.3014 0.8828 -2.5056 0.9472
13.1298 2.3037 -2.5056 0.9472
13.0388 2.7722 -2.5056 0.9472
12.8067 3.6979 -2.5055 0.9472
12.5089 4.6046 -2.5054 0.9472
10.7878 6.3460 -2.3525 0.9503
10.5576 6.7305 -2.3534 0.9503
10.3140 7.1070 -2.3543 0.9503
10.0568 7.4745 -2.3552 0.9503
9.7864 7.8327 -2.3561 0.9503
9.2059 8.5174 -2.3574 0.9502
7.8940 9.7417 -2.3568 0.9502
4.3999 11.7334 -2.3554 0.9503
3.5486 12.0166 -2.3551 0.9503
3.1160 12.1352 -2.3549 0.9503
2.6794 12.2382 -2.3548 0.9503
1.3517 12.4527 -2.3544 0.9503
0.9050 12.4924 -2.3542 0.9503
-0.4394 12.5153 -2.3538 0.9503
-2.2208 12.3218 -2.3533 0.9503
-4.7953 11.5621 -2.3527 0.9503
5.6546 -9.7152 -2.3761 0.9551
6.1246 -9.7060 -2.4260 0.9542
7.3589 -9.2824 -2.5039 0.9527
8.0048 -8.7327 -2.5041 0.9527
8.3126 -8.4408 -2.5042 0.9527
8.6097 -8.1381 -2.5043 0.9527
9.1705 -7.5018 -2.5044 0.9527
9.6843 -6.8268 -2.5046 0.9527
10.1485 -6.1167 -2.5047 0.9527
10.9187 -4.6060 -2.5049 0.9527
11.3501 -3.4090 -2.5051 0.9527
11.8166 -0.9111 -2.5052 0.9527
11.8462 0.3611 -2.5052 0.9527
11.6732 2.0481 -2.5052 0.9527
11.5923 2.4646 -2.5051 0.9527
11.4965 2.8780 -2.5051 0.9527
11.3859 3.2877 -2.5051 0.9527
11.1212 4.0938 -2.5050 0.9527
10.6176 5.2622 -2.5049 0.9527
10.4221 5.6388 -2.5048 0.9527
9.7323 6.2044 -2.4397 0.9539
9.1625 6.3135 -2.3520 0.9555
8.9329 6.6392 -2.3526 0.9555
8.4404 7.2661 -2.3542 0.9555
8.1774 7.5659 -2.3549 0.9555
7.9037 7.8560 -2.3556 0.9555
7.6195 8.1362 -2.3562 0.9554
6.3807 9.1411 -2.3564 0.9554
6.0490 9.3632 -2.3563 0.9554
4.6496 10.1283 -2.3557 0.9555
4.2838 10.2877 -2.3556 0.9555
3.9125 10.4339 -2.3555 0.9555
2.3827 10.8830 -2.3549 0.9555
1.9915 10.9608 -2.3548 0.9555
1.5978 11.0244 -2.3547 0.9555
0.8048 11.1093 -2.3544 0.9555
0.4066 11.1304 -2.3543 0.9555
0.0079 11.1373 -2.3542 0.9555
-0.7889 11.1082 -2.3540 0.9555
-1.1860 11.0723 -2.3539 0.9555
-1.5815 11.0223 -2.3538 0.9555
-1.9750 10.9581 -2.3536 0.9555
-2.3659 10.8800 -2.3535 0.9555
-3.1380 10.6819 -2.3534 0.9555
-3.8940 10.4293 -2.3532 0.9555
5.3580 -9.2056 -2.5033 0.9572
6.0034 -8.7993 -2.5035 0.9572
6.3147 -8.5791 -2.5036 0.9572
6.6180 -8.3479 -2.5037 0.9572
6.9129 -8.1058 -2.5038 0.9572
7.1989 -7.8535 -2.5039 0.9572
7.7428 -7.3187 -2.5040 0.9572
8.0001 -7.0371 -2.5041 0.9572
8.4836 -6.4470 -2.5042 0.9572
8.9236 -5.8238 -2.5044 0.9572
9.1265 -5.5008 -2.5044 0.9572
9.6643 -4.4909 -2.5046 0.9572
9.8190 -4.1421 -2.5046 0.9572
9.9611 -3.7880 -2.5047 0.9572
10.2070 -3.0657 -2.5047 0.9572
10.4004 -2.3276 -2.5048 0.9572
10.4771 -1.9538 -2.5048 0.9572
10.6264 -0.8193 -2.5049 0.9572
10.6345 0.7058 -2.5049 0.9572
10.5567 1.4649 -2.5048 0.9572
10.4974 1.8418 -2.5048 0.9572
10.4247 2.2164 -2.5048 0.9572
10.3385 2.5882 -2.5048 0.9572
10.2392 2.9566 -2.5047 0.9572
9.7117 4.3874 -2.5046 0.9572
9.5483 4.7322 -2.5045 0.9572
9.3725 5.0709 -2.5045 0.9572
8.9853 5.7282 -2.5044 0.9572
8.7743 6.0461 -2.5043 0.9572
8.3467 6.2035 -2.4441 0.9582
7.8120 6.2524 -2.3516 0.9597
7.5842 6.5289 -2.3519 0.9597
6.8460 7.3102 -2.3538 0.9597
6.5815 7.5524 -2.3544 0.9597
6.3083 7.7850 -2.3549 0.9597
5.7376 8.2198 -2.3559 0.9596
5.1352 8.6101 -2.3561 0.9596
4.8235 8.7879 -2.3560 0.9596
4.5056 8.9545 -2.3559 0.9596
3.5191 9.3845 -2.3555 0.9597
2.8383 9.6112 -2.3553 0.9597
2.4923 9.7062 -2.3552 0.9597
2.1431 9.7887 -2.3551 0.9597
1.7913 9.8587 -2.3549 0.9597
1.0812 9.9606 -2.3547 0.9597
0.0071 10.0177 -2.3544 0.9597
-0.3515 10.0111 -2.3543 0.9597
-1.0668 9.9595 -2.3541 0.9597
-1.7765 9.8568 -2.3539 0.9597
-2.4770 9.7037 -2.3537 0.9597
-3.1647 9.5010 -2.3536 0.9597
6.5340 -7.1281 -2.5037 0.9608
6.7852 -6.8899 -2.5037 0.9608
7.2611 -6.3871 -2.5039 0.9608
7.4853 -6.1232 -2.5039 0.9608
7.6999 -5.8515 -2.5040 0.9608
7.9046 -5.5722 -2.5041 0.9608
8.2834 -4.9926 -2.5042 0.9608
8.7715 -4.0760 -2.5043 0.9608
9.1583 -3.1123 -2.5044 0.9608
9.4395 -2.1126 -2.5045 0.9608
9.5092 -1.7733 -2.5045 0.9608
9.5666 -1.4318 -2.5045 0.9608
9.6118 -1.0884 -2.5046 0.9608
9.6446 -0.7436 -2.5046 0.9608
9.6651 -0.3979 -2.5046 0.9608
9.6731 -0.0517 -2.5046 0.9608
9.6228 0.9857 -2.5046 0.9608
9.5814 1.3295 -2.5046 0.9608
9.5276 1.6717 -2.5045 0.9608
9.1911 3.0143 -2.5044 0.9608
8.3363 4.9039 -2.5042 0.9608
8.1553 5.1991 -2.5041 0.9608
7.7620 5.7690 -2.5040 0.9608
6.4408 6.4019 -2.3513 0.9632
4.0885 8.1257 -2.3552 0.9631
3.4974 8.3992 -2.3557 0.9631
2.5765 8.7246 -2.3554 0.9631
2.2624 8.8108 -2.3553 0.9631
1.9454 8.8857 -2.3552 0.9631
1.3046 9.0013 -2.3550 0.9631
0.6571 9.0708 -2.3547 0.9631
0.0064 9.0939 -2.3546 0.9631
-0.3191 9.0879 -2.3545 0.9631
-0.9684 9.0411 -2.3543 0.9631
-2.5624 8.7226 -2.3539 0.9631
-3.4825 8.3969 -2.3537 0.9631
-3.7802 8.2654 -2.3533 0.9631
4.7186 -7.4778 -2.5031 0.9639
5.2418 -7.1215 -2.5033 0.9639
5.4936 -6.9294 -2.5034 0.9639
5.7382 -6.7285 -2.5034 0.9639
5.9756 -6.5190 -2.5035 0.9639
6.2053 -6.3011 -2.5036 0.9639
6.4271 -6.0750 -2.5036 0.9639
7.4070 -4.8340 -2.5039 0.9639
7.8830 -4.0123 -2.5041 0.9639
8.0217 -3.7276 -2.5041 0.9639
8.3754 -2.8462 -2.5042 0.9639
8.5578 -2.2397 -2.5043 0.9639
8.6326 -1.9320 -2.5043 0.9639
8.6963 -1.6217 -2.5043 0.9639
8.7901 -0.9953 -2.5043 0.9639
8.8388 -0.3639 -2.5043 0.9639
8.8269 0.5859 -2.5043 0.9639
8.7131 1.5288 -2.5043 0.9639
8.4988 2.4540 -2.5042 0.9639
8.4054 2.7567 -2.5042 0.9639
8.3012 3.0557 -2.5042 0.9639
7.9254 3.9279 -2.5041 0.9639
7.6238 4.4848 -2.5040 0.9639
7.4583 4.7547 -2.5039 0.9639
6.7026 5.7701 -2.5037 0.9639
6.2328 6.1953 -2.4878 0.9641
5.8156 6.2099 -2.4085 0.9652
5.4559 6.2608 -2.3509 0.9661
5.2286 6.4524 -2.3511 0.9661
4.9951 6.6367 -2.3515 0.9661
4.5090 6.9793 -2.3522 0.9660
3.9992 7.2861 -2.3529 0.9660
2.6392 7.8859 -2.3541 0.9660
2.3553 7.9758 -2.3543 0.9660
2.0684 8.0554 -2.3544 0.9660
1.4869 8.1834 -2.3546 0.9660
0.8976 8.2690 -2.3546 0.9660
0.6010 8.2958 -2.3546 0.9660
-0.8857 8.2684 -2.3541 0.9660
-1.4747 8.1824 -2.3537 0.9660
-2.0560 8.0542 -2.3532 0.9660
-2.3427 7.9744 -2.3529 0.9660
-3.1827 7.6739 -2.3518 0.9661
-3.4547 7.5538 -2.3514 0.9661
4.3427 -6.8822 -2.5030 0.9665
4.5865 -6.7225 -2.5031 0.9665
5.0560 -6.3775 -2.5032 0.9665
5.2812 -6.1925 -2.5033 0.9665
6.3002 -5.1538 -2.5036 0.9665
6.9719 -4.2021 -2.5038 0.9665
7.1180 -3.9499 -2.5038 0.9665
7.2549 -3.6926 -2.5039 0.9665
7.6093 -2.8937 -2.5040 0.9665
7.7081 -2.6194 -2.5040 0.9665
7.7970 -2.3419 -2.5040 0.9665
8.0517 -1.2050 -2.5041 0.9665
8.0897 -0.9160 -2.5041 0.9665
8.1173 -0.6258 -2.5041 0.9665
8.1236 0.5392 -2.5041 0.9665
8.0990 0.8296 -2.5041 0.9665
8.0641 1.1190 -2.5041 0.9665
7.8216 2.2585 -2.5040 0.9665
7.7357 2.5370 -2.5040 0.9665
7.5337 3.0839 -2.5040 0.9665
7.4188 3.3516 -2.5039 0.9665
7.2940 3.6150 -2.5039 0.9665
7.1598 3.8737 -2.5038 0.9665
7.0164 4.1275 -2.5038 0.9665
6.8640 4.3759 -2.5038 0.9665
6.7029 4.6187 -2.5037 0.9665
6.5331 4.8556 -2.5037 0.9665
6.3550 5.0863 -2.5036 0.9665
5.9745 5.5277 -2.5035 0.9665
5.7727 5.7379 -2.5034 0.9665
5.5634 5.9407 -2.5034 0.9665
5.3471 6.1359 -2.5033 0.9665
4.6763 6.2129 -2.3918 0.9680
4.1472 6.4194 -2.3506 0.9685
2.6851 7.1606 -2.3522 0.9685
2.4273 7.2527 -2.3524 0.9685
2.1662 7.3354 -2.3525 0.9685
1.9023 7.4086 -2.3526 0.9685
1.6360 7.4722 -2.3527 0.9685
0.8255 7.6049 -2.3528 0.9685
0.5527 7.6295 -2.3528 0.9685
-0.5418 7.6293 -2.3525 0.9685
-0.8145 7.6045 -2.3524 0.9685
-1.6247 7.4715 -2.3518 0.9685
-2.6732 7.1596 -2.3506 0.9685
-2.9274 7.0583 -2.3503 0.9685
3.7876 -6.5075 -2.5029 0.9688
4.0182 -6.3679 -2.5029 0.9688
4.8865 -5.7298 -2.5032 0.9688
5.0886 -5.5513 -2.5032 0.9688
5.2842 -5.3657 -2.5033 0.9688
5.6548 -4.9741 -2.5034 0.9688
5.8294 -4.7686 -2.5035 0.9688
6.1558 -4.3394 -2.5036 0.9688
6.4508 -3.8880 -2.5036 0.9688
6.7126 -3.4166 -2.5037 0.9687
6.8307 -3.1742 -2.5037 0.9687
7.0405 -2.6773 -2.5038 0.9687
7.1319 -2.4236 -2.5038 0.9687
7.2872 -1.9072 -2.5039 0.9687
7.4051 -1.3809 -2.5039 0.9687
7.4498 -1.1149 -2.5039 0.9687
7.4850 -0.8475 -2.5039 0.9687
7.5105 -0.5791 -2.5039 0.9687
7.5293 0.2295 -2.5040 0.9687
7.5163 0.4988 -2.5039 0.9687
7.4936 0.7676 -2.5039 0.9687
7.4613 1.0354 -2.5039 0.9687
7.1574 2.3474 -2.5038 0.9687
6.7488 3.3448 -2.5037 0.9687
6.4920 3.8190 -2.5036 0.9688
6.3510 4.0488 -2.5036 0.9688
6.2019 4.2735 -2.5036 0.9688
6.0448 4.4927 -2.5035 0.9688
5.8800 4.7061 -2.5035 0.9688
5.3412 5.3090 -2.5033 0.9688
4.7409 5.8507 -2.5031 0.9688
4.5283 6.0164 -2.5031 0.9688
4.0064 6.2013 -2.4541 0.9694
3.7042 6.2106 -2.4037 0.9700
3.1780 6.3161 -2.3503 0.9706
2.9499 6.4259 -2.3503 0.9706
2.7183 6.5280 -2.3505 0.9706
2.4830 6.6216 -2.3507 0.9706
1.2645 6.9595 -2.3512 0.9706
1.0146 7.0004 -2.3513 0.9706
0.7633 7.0323 -2.3513 0.9706
0.5111 7.0551 -2.3513 0.9706
0.2582 7.0687 -2.3512 0.9706
-1.0044 7.0001 -2.3507 0.9706
-1.2543 6.9591 -2.3505 0.9706
-1.7486 6.8503 -2.3501 0.9706
-1.9925 6.7826 -2.3498 0.9706
-2.4721 6.6210 -2.3492 0.9706
-2.7071 6.5274 -2.3489 0.9707
3.5206 -6.0487 -2.5028 0.9707
3.7349 -5.9190 -2.5028 0.9707
4.3483 -5.4848 -2.5030 0.9707
4.9116 -4.9873 -2.5032 0.9707
5.2560 -4.6233 -2.5033 0.9707
6.1214 -3.3969 -2.5035 0.9707
6.4506 -2.7212 -2.5036 0.9707
6.5440 -2.4885 -2.5037 0.9707
6.7732 -1.7727 -2.5037 0.9707
6.8324 -1.5291 -2.5037 0.9707
6.8828 -1.2835 -2.5038 0.9707
6.9244 -1.0363 -2.5038 0.9707
6.9570 -0.7878 -2.5038 0.9707
6.9956 -0.2880 -2.5038 0.9707
6.9350 0.9623 -2.5038 0.9707
6.8961 1.2100 -2.5038 0.9707
6.7918 1.7002 -2.5037 0.9707
6.7265 1.9423 -2.5037 0.9707
6.6526 2.1818 -2.5037 0.9707
6.3802 2.8824 -2.5036 0.9707
6.0341 3.5496 -2.5035 0.9707
5.9031 3.7633 -2.5035 0.9707
5.6185 4.1759 -2.5034 0.9707
5.4653 4.3742 -2.5033 0.9707
5.3052 4.5670 -2.5033 0.9707
5.1382 4.7539 -2.5032 0.9707
4.9646 4.9347 -2.5032 0.9707
4.7847 5.1092 -2.5031 0.9707
4.4067 5.4382 -2.5030 0.9707
3.3674 6.1352 -2.5027 0.9707
3.1178 6.1964 -2.4806 0.9710
2.8479 6.2037 -2.4411 0.9714
1.8611 6.3021 -2.3499 0.9725
1.6343 6.3645 -2.3498 0.9725
1.4054 6.4190 -2.3498 0.9725
1.1747 6.4654 -2.3499 0.9725
0.9425 6.5034 -2.3499 0.9725
0.7091 6.5330 -2.3499 0.9725
0.4748 6.5541 -2.3499 0.9725
0.2399 6.5668 -2.3499 0.9725
0.0047 6.5711 -2.3498 0.9725
-0.2306 6.5668 -2.3498 0.9725
-1.1652 6.4651 -2.3492 0.9725
-1.8513 6.3018 -2.3488 0.9725
-2.0760 6.2325 -2.3492 0.9725
3.4852 -5.5232 -2.5028 0.9724
3.8716 -5.2599 -2.5029 0.9724
4.0575 -5.1181 -2.5029 0.9724
4.2383 -4.9696 -2.5030 0.9724
5.0560 -4.1359 -2.5032 0.9724
5.5949 -3.3721 -2.5034 0.9724
5.8220 -2.9633 -2.5035 0.9724
5.9244 -2.7529 -2.5035 0.9724
6.1856 -2.1020 -2.5036 0.9724
6.5277 -0.2687 -2.5037 0.9724
6.5332 -0.0348 -2.5037 0.9724
6.5302 0.1990 -2.5037 0.9724
6.5189 0.4327 -2.5037 0.9724
6.4349 1.1291 -2.5036 0.9724
6.3903 1.3587 -2.5036 0.9724
6.3375 1.5865 -2.5036 0.9724
6.2767 1.8124 -2.5036 0.9724
6.2077 2.0359 -2.5036 0.9724
6.1308 2.2568 -2.5035 0.9724
5.7456 3.1086 -2.5034 0.9724
5.5083 3.5116 -2.5034 0.9724
5.2428 3.8966 -2.5033 0.9724
4.9504 4.2616 -2.5032 0.9724
4.7946 4.4360 -2.5031 0.9724
4.6326 4.6047 -2.5031 0.9724
4.2911 4.9242 -2.5030 0.9724
3.1423 5.7250 -2.5027 0.9724
2.9353 5.8337 -2.5026 0.9724
2.0724 6.1923 -2.5024 0.9724
1.5923 6.2013 -2.4535 0.9729
0.9002 6.2103 -2.4047 0.9735
0.6743 6.2122 -2.3946 0.9736
0.4502 6.2135 -2.3873 0.9737
0.2271 6.2143 -2.3830 0.9737
-0.4413 6.2135 -2.3871 0.9737
-0.6654 6.2121 -2.3942 0.9736
-1.1188 6.2078 -2.4173 0.9733
-1.5830 6.2012 -2.4526 0.9730
-2.0626 6.1922 -2.5011 0.9724
-2.2829 6.1143 -2.5011 0.9724
-2.7144 5.9350 -2.5010 0.9724
3.0760 -5.2848 -2.5026 0.9739
3.7991 -4.7921 -2.5029 0.9739
3.9683 -4.6531 -2.5029 0.9739
4.4445 -4.2011 -2.5030 0.9739
4.5921 -4.0394 -2.5031 0.9739
4.7339 -3.8725 -2.5031 0.9739
5.2385 -3.1573 -2.5033 0.9739
5.3482 -2.9678 -2.5033 0.9739
5.4511 -2.7745 -2.5033 0.9739
5.6357 -2.3774 -2.5034 0.9739
5.9693 -1.3359 -2.5035 0.9739
6.0781 -0.6883 -2.5035 0.9739
6.1142 0.1864 -2.5035 0.9739
6.1036 0.4051 -2.5035 0.9739
6.0852 0.6233 -2.5035 0.9739
6.0589 0.8408 -2.5035 0.9739
5.9338 1.4855 -2.5035 0.9739
5.4804 2.7162 -2.5034 0.9739
5.3796 2.9105 -2.5033 0.9739
5.2719 3.1012 -2.5033 0.9739
5.1574 3.2879 -2.5033 0.9739
4.9088 3.6484 -2.5032 0.9739
4.6351 3.9901 -2.5031 0.9739
4.3375 4.3114 -2.5030 0.9739
4.1804 4.4638 -2.5030 0.9739
4.0178 4.6106 -2.5029 0.9739
3.8501 4.7513 -2.5029 0.9739
3.3183 5.1364 -2.5027 0.9739
2.7483 5.4622 -2.5025 0.9739
2.3504 5.6446 -2.5024 0.9739
1.9404 5.7980 -2.5023 0.9739
1.7316 5.8636 -2.5023 0.9739
1.5205 5.9217 -2.5022 0.9739
1.3075 5.9721 -2.5021 0.9739
1.0929 6.0150 -2.5021 0.9739
0.4417 6.0970 -2.5019 0.9739
0.2231 6.1087 -2.5018 0.9739
0.0043 6.1126 -2.5017 0.9739
-0.2145 6.1087 -2.5017 0.9739
-0.4330 6.0970 -2.5016 0.9739
-1.0841 6.0150 -2.5014 0.9739
-1.2987 5.9721 -2.5014 0.9739
-1.5116 5.9217 -2.5013 0.9739
2.8886 -4.9629 -2.5026 0.9753
3.0644 -4.8564 -2.5026 0.9753
3.7265 -4.3696 -2.5028 0.9753
4.0298 -4.0919 -2.5029 0.9753
4.1737 -3.9451 -2.5030 0.9753
4.3123 -3.7932 -2.5030 0.9753
4.6944 -3.3092 -2.5031 0.9753
4.9193 -2.9649 -2.5032 0.9752
5.0223 -2.7869 -2.5032 0.9752
5.1189 -2.6054 -2.5032 0.9752
5.2923 -2.2325 -2.5033 0.9752
5.3689 -2.0417 -2.5033 0.9752
5.5013 -1.6523 -2.5034 0.9752
5.5569 -1.4543 -2.5034 0.9752
5.6809 -0.8502 -2.5034 0.9752
5.7077 -0.6463 -2.5034 0.9752
5.7442 -0.0306 -2.5034 0.9752
5.7316 0.3804 -2.5034 0.9752
5.6577 0.9927 -2.5034 0.9752
5.3904 1.9842 -2.5033 0.9752
5.2345 2.3648 -2.5033 0.9752
4.9507 2.9123 -2.5032 0.9752
4.8432 3.0876 -2.5032 0.9752
4.4840 3.5889 -2.5031 0.9753
4.0732 4.0487 -2.5029 0.9753
3.2869 4.7089 -2.5027 0.9753
2.2072 5.3007 -2.5024 0.9753
2.0160 5.3762 -2.5023 0.9753
1.4279 5.5609 -2.5022 0.9753
1.2279 5.6084 -2.5021 0.9753
0.8234 5.6816 -2.5020 0.9753
0.6195 5.7073 -2.5019 0.9753
0.0041 5.7404 -2.5017 0.9753
-0.4066 5.7257 -2.5016 0.9753
-0.6113 5.7074 -2.5016 0.9753
-0.8152 5.6817 -2.5015 0.9753
-1.0181 5.6487 -2.5014 0.9753
-1.6177 5.5066 -2.5013 0.9753
-2.0074 5.3765 -2.5012 0.9753
-2.3864 5.2189 -2.5010 0.9753
3.0471 -4.4662 -2.5026 0.9765
3.2050 -4.3543 -2.5027 0.9765
3.3589 -4.2368 -2.5027 0.9765
3.6536 -3.9858 -2.5028 0.9764
3.7940 -3.8525 -2.5029 0.9764
3.9295 -3.7143 -2.5029 0.9764
4.0600 -3.5713 -2.5029 0.9764
4.1854 -3.4237 -2.5030 0.9764
4.6314 -2.7914 -2.5031 0.9764
4.7284 -2.6239 -2.5031 0.9764
4.8194 -2.4529 -2.5032 0.9764
4.9826 -2.1019 -2.5032 0.9764
5.0547 -1.9222 -2.5032 0.9764
5.2318 -1.3692 -2.5033 0.9764
5.2775 -1.1811 -2.5033 0.9764
5.3485 -0.8005 -2.5033 0.9764
5.4035 -0.2224 -2.5033 0.9764
5.4056 0.1648 -2.5033 0.9764
5.3962 0.3581 -2.5033 0.9764
5.3799 0.5511 -2.5033 0.9764
5.3567 0.7433 -2.5033 0.9764
5.1957 1.5003 -2.5033 0.9764
5.1386 1.6853 -2.5033 0.9764
4.9282 2.2264 -2.5032 0.9764
4.8453 2.4014 -2.5032 0.9764
4.6610 2.7419 -2.5031 0.9764
4.5598 2.9069 -2.5031 0.9764
4.4528 3.0683 -2.5030 0.9764
4.3400 3.2257 -2.5030 0.9764
4.0980 3.5278 -2.5029 0.9764
3.9690 3.6722 -2.5029 0.9764
3.6960 3.9466 -2.5028 0.9764
3.2514 4.3199 -2.5027 0.9765
2.9339 4.5413 -2.5026 0.9765
2.4300 4.8294 -2.5025 0.9765
2.2555 4.9132 -2.5024 0.9765
1.8981 5.0617 -2.5023 0.9765
1.3443 5.2357 -2.5021 0.9765
1.1561 5.2804 -2.5021 0.9765
0.9663 5.3183 -2.5020 0.9765
0.5833 5.3735 -2.5019 0.9765
0.1973 5.4012 -2.5018 0.9765
0.0038 5.4047 -2.5017 0.9765
-0.3829 5.3909 -2.5016 0.9765
-1.1483 5.2805 -2.5014 0.9765
-1.5231 5.1846 -2.5013 0.9765
-1.7077 5.1267 -2.5012 0.9765
-1.8901 5.0622 -2.5012 0.9765
2.5663 -4.4092 -2.5025 0.9775
2.8753 -4.2144 -2.5026 0.9775
3.3107 -3.8820 -2.5027 0.9775
3.5801 -3.6354 -2.5028 0.9775
3.9494 -3.2307 -2.5029 0.9775
4.3703 -2.6341 -2.5030 0.9775
4.4619 -2.4760 -2.5031 0.9775
4.6277 -2.1504 -2.5031 0.9775
4.9799 -1.1145 -2.5032 0.9775
5.0470 -0.7553 -2.5032 0.9775
5.0989 -0.2099 -2.5032 0.9775
5.1008 0.1555 -2.5032 0.9775
5.0920 0.3380 -2.5032 0.9775
5.0766 0.5200 -2.5032 0.9775
5.0548 0.7014 -2.5032 0.9775
5.0264 0.8819 -2.5032 0.9775
4.9916 1.0613 -2.5032 0.9775
4.9504 1.2393 -2.5032 0.9775
4.9028 1.4157 -2.5032 0.9775
4.6504 2.1009 -2.5031 0.9775
4.2017 2.8953 -2.5030 0.9775
3.9837 3.1884 -2.5029 0.9775
3.8671 3.3289 -2.5029 0.9775
3.6188 3.5970 -2.5028 0.9775
3.3521 3.8466 -2.5027 0.9775
3.0681 4.0764 -2.5026 0.9775
2.9202 4.1836 -2.5026 0.9775
2.7685 4.2853 -2.5026 0.9775
2.6133 4.3816 -2.5025 0.9775
2.4547 4.4723 -2.5025 0.9775
2.2930 4.5572 -2.5024 0.9775
2.1284 4.6363 -2.5024 0.9775
1.4447 4.8922 -2.5022 0.9775
1.0909 4.9828 -2.5021 0.9775
0.7316 5.0479 -2.5020 0.9775
0.3685 5.0871 -2.5019 0.9775
0.1862 5.0969 -2.5018 0.9775
-0.1790 5.0969 -2.5017 0.9775
-0.7243 5.0481 -2.5015 0.9775
-0.9045 5.0188 -2.5015 0.9775
-1.4373 4.8926 -2.5013 0.9775
-1.6115 4.8379 -2.5013 0.9775
-1.9534 4.7100 -2.5012 0.9775
2.4265 -4.1690 -2.5025 0.9785
2.5742 -4.0795 -2.5025 0.9785
2.7187 -3.9848 -2.5025 0.9785
2.8596 -3.8850 -2.5026 0.9785
2.9969 -3.7802 -2.5026 0.9785
3.1304 -3.6706 -2.5027 0.9785
3.5060 -3.3139 -2.5028 0.9785
3.6224 -3.1864 -2.5028 0.9785
3.8412 -2.9191 -2.5029 0.9785
3.9433 -2.7797 -2.5029 0.9785
4.0403 -2.6368 -2.5029 0.9785
4.2187 -2.3411 -2.5030 0.9785
4.2999 -2.1885 -2.5030 0.9785
4.3755 -2.0332 -2.5030 0.9785
4.4455 -1.8753 -2.5030 0.9785
4.5098 -1.7150 -2.5031 0.9785
4.6678 -1.2216 -2.5031 0.9785
4.7086 -1.0537 -2.5031 0.9785
4.8108 -0.3709 -2.5032 0.9785
4.8210 -0.1984 -2.5032 0.9785
4.8000 0.4917 -2.5032 0.9785
4.7525 0.8339 -2.5031 0.9785
4.6356 1.3386 -2.5031 0.9785
4.5847 1.5036 -2.5031 0.9785
4.4653 1.8278 -2.5031 0.9785
4.3970 1.9864 -2.5030 0.9785
4.3230 2.1425 -2.5030 0.9785
3.9728 2.7375 -2.5029 0.9785
3.8722 2.8779 -2.5029 0.9785
3.5412 3.2764 -2.5028 0.9785
3.4216 3.4010 -2.5027 0.9785
3.2976 3.5212 -2.5027 0.9785
3.1694 3.6370 -2.5027 0.9785
3.0371 3.7481 -2.5026 0.9785
2.4709 4.1429 -2.5025 0.9785
2.1681 4.3089 -2.5024 0.9785
1.6935 4.5163 -2.5022 0.9785
1.3660 4.6257 -2.5021 0.9785
0.5204 4.7945 -2.5019 0.9785
-0.1692 4.8193 -2.5017 0.9785
-0.5136 4.7947 -2.5016 0.9785
-0.6849 4.7731 -2.5015 0.9785
-0.8553 4.7455 -2.5015 0.9785
-1.0246 4.7117 -2.5014 0.9785
-1.6865 4.5169 -2.5013 0.9785
-2.0052 4.3845 -2.5012 0.9785
2.2983 -3.9488 -2.5024 0.9794
2.7086 -3.6798 -2.5025 0.9794
2.8386 -3.5805 -2.5026 0.9794
2.9650 -3.4767 -2.5026 0.9794
3.2062 -3.2557 -2.5027 0.9794
3.6383 -2.7649 -2.5028 0.9794
3.7350 -2.6329 -2.5028 0.9794
3.8269 -2.4975 -2.5029 0.9794
3.9139 -2.3589 -2.5029 0.9794
4.0727 -2.0729 -2.5029 0.9794
4.2716 -1.6244 -2.5030 0.9794
4.4212 -1.1571 -2.5030 0.9794
4.4598 -0.9981 -2.5031 0.9794
4.5411 -0.5142 -2.5031 0.9794
4.5566 -0.3513 -2.5031 0.9794
4.5663 -0.1879 -2.5031 0.9794
4.5701 -0.0244 -2.5031 0.9794
4.5680 0.1392 -2.5031 0.9794
4.5268 0.6282 -2.5031 0.9794
4.4702 0.9504 -2.5031 0.9794
4.4333 1.1098 -2.5030 0.9794
4.3907 1.2678 -2.5030 0.9794
4.3425 1.4242 -2.5030 0.9794
4.2887 1.5787 -2.5030 0.9794
4.2294 1.7312 -2.5030 0.9794
4.1647 1.8815 -2.5030 0.9794
4.0946 2.0294 -2.5029 0.9794
4.0193 2.1746 -2.5029 0.9794
3.8533 2.4565 -2.5029 0.9794
3.6676 2.7259 -2.5028 0.9794
3.5677 2.8554 -2.5028 0.9794
3.4631 2.9813 -2.5028 0.9794
3.3541 3.1033 -2.5027 0.9794
3.2409 3.2213 -2.5027 0.9794
3.1234 3.3352 -2.5027 0.9794
2.8767 3.5501 -2.5026 0.9794
2.6152 3.7467 -2.5025 0.9794
2.3404 3.9241 -2.5024 0.9794
1.9061 4.1521 -2.5023 0.9794
1.7562 4.2176 -2.5023 0.9794
1.6041 4.2777 -2.5022 0.9794
1.2939 4.3814 -2.5021 0.9794
0.6552 4.5209 -2.5019 0.9794
0.4929 4.5413 -2.5019 0.9794
0.3301 4.5560 -2.5018 0.9794
-0.1603 4.5648 -2.5017 0.9794
-0.4864 4.5415 -2.5016 0.9794
-0.8101 4.4949 -2.5015 0.9794
-0.9705 4.4629 -2.5015 0.9794
-1.2873 4.3819 -2.5014 0.9794
-1.7495 4.2184 -2.5012 0.9794
-1.8994 4.1530 -2.5012 0.9794
2.8127 -3.2981 -2.5026 0.9802
3.0415 -3.0884 -2.5026 0.9802
3.2548 -2.8630 -2.5027 0.9802
3.4514 -2.6228 -2.5028 0.9802
3.7128 -2.2377 -2.5028 0.9802
3.7906 -2.1034 -2.5029 0.9802
4.0521 -1.5409 -2.5029 0.9802
4.1940 -1.0976 -2.5030 0.9802
4.2306 -0.9468 -2.5030 0.9802
4.2876 -0.6417 -2.5030 0.9802
4.3225 -0.3333 -2.5030 0.9802
4.3317 -0.1783 -2.5030 0.9802
4.3333 0.1321 -2.5030 0.9802
4.3258 0.2871 -2.5030 0.9802
4.3128 0.4418 -2.5030 0.9802
4.2701 0.7492 -2.5030 0.9802
4.2405 0.9016 -2.5030 0.9802
4.1651 1.2027 -2.5030 0.9802
4.0683 1.4976 -2.5029 0.9802
4.0121 1.6423 -2.5029 0.9802
3.9507 1.7848 -2.5029 0.9802
3.8128 2.0629 -2.5029 0.9802
3.7365 2.1980 -2.5028 0.9802
3.6554 2.3304 -2.5028 0.9802
3.5696 2.4597 -2.5028 0.9802
3.3844 2.7088 -2.5027 0.9802
3.1818 2.9439 -2.5027 0.9802
2.8478 3.2679 -2.5026 0.9802
2.4809 3.5542 -2.5025 0.9802
2.2202 3.7225 -2.5024 0.9802
2.0855 3.7996 -2.5024 0.9802
1.8082 3.9389 -2.5023 0.9802
1.3754 4.1098 -2.5021 0.9802
1.0778 4.1975 -2.5021 0.9802
0.7747 4.2638 -2.5020 0.9802
0.6216 4.2887 -2.5019 0.9802
0.3131 4.3220 -2.5018 0.9802
0.1582 4.3304 -2.5018 0.9802
0.0031 4.3332 -2.5017 0.9802
-0.1520 4.3305 -2.5017 0.9802
-0.4615 4.3083 -2.5016 0.9802
-0.7685 4.2641 -2.5015 0.9802
-0.9207 4.2338 -2.5015 0.9802
-1.0716 4.1980 -2.5014 0.9802
-1.3692 4.1104 -2.5013 0.9802
-1.6597 4.0018 -2.5013 0.9802
-1.8019 3.9398 -2.5012 0.9802
