ply
format ascii 1.0
element vertex 995
property float32 x
property float32 y
property float32 z
property float32 I
end_header
-7.0474 8.6945 1.9734 0.9556
-30.7550 -13.3186 5.9096 0.8727
-26.3592 3.5077 4.0737 0.8980
-26.3785 2.5463 4.0598 0.8983
-26.3992 1.5903 4.0515 0.8985
-26.4243 0.6370 4.0492 0.8986
-26.4686 -1.2722 4.0595 0.8983
-26.4839 -2.2323 4.0716 0.8980
2.4383 -11.5342 1.8060 0.9534
2.4379 -11.5324 1.5349 0.9536
-27.6233 39.6057 5.1852 0.8234
-7.0433 8.6894 1.2011 0.9560
2.4375 -11.5305 1.2655 0.9537
-27.6181 39.5982 2.9937 0.8241
-7.0405 8.6860 0.6933 0.9562
-27.6155 39.5945 1.9035 0.8243
-7.0392 8.6843 0.4408 0.9562
-29.3075 -19.5804 1.3898 0.8684
-7.0378 8.6827 0.1888 0.9563
2.4360 -11.5233 0.1990 0.9540
-27.6104 39.5872 -0.2717 0.8244
-28.5737 12.7880 -0.1762 0.8823
-29.3018 -19.5766 -0.1984 0.8685
2.4356 -11.5215 -0.0663 0.9540
-27.6078 39.5835 -1.3589 0.8244
-7.0351 8.6793 -0.3146 0.9563
-28.1722 13.8484 -0.8839 0.8820
-20.7361 41.3572 -2.3463 0.8309
-22.2100 40.5755 -2.3459 0.8309
-25.0676 38.8558 -2.3450 0.8309
-32.3026 37.0381 -2.4924 0.8213
-33.6119 35.8437 -2.4920 0.8214
-38.3941 30.6224 -2.4906 0.8214
-39.4684 29.2145 -2.4903 0.8215
-40.4914 27.7691 -2.4900 0.8215
-41.4617 26.2881 -2.4897 0.8215
-48.3618 8.2200 -2.4878 0.8216
-48.9671 2.9497 -2.4878 0.8216
-48.7053 -5.8806 -2.4880 0.8216
-47.7905 -11.1067 -2.4882 0.8216
-46.3131 -16.2027 -2.4883 0.8216
-45.7021 -17.8634 -2.4885 0.8216
-45.0317 -19.5011 -2.4887 0.8216
-43.5170 -22.6997 -2.4891 0.8215
-41.7763 -25.7820 -2.4896 0.8215
-39.8187 -28.7322 -2.4902 0.8215
-38.7618 -30.1530 -2.4905 0.8214
-37.6542 -31.5351 -2.4908 0.8214
-34.0432 -35.4317 -2.4919 0.8214
-32.7483 -36.6416 -2.4923 0.8213
-29.4972 -35.5015 -2.3408 0.8312
-28.2026 -36.5479 -2.3412 0.8312
-25.7578 -38.8814 -2.3653 0.8296
-24.5117 -40.0670 -2.3820 0.8285
-20.4968 -43.4438 -2.4361 0.8250
-19.0666 -44.5038 -2.4554 0.8237
-14.3429 28.6062 -2.3463 0.8795
-15.3630 28.0667 -2.3460 0.8796
-16.3629 27.4910 -2.3457 0.8796
-18.2974 26.2343 -2.3452 0.8796
-7.0324 8.6760 -0.8189 0.9562
-21.0176 24.0987 -2.3446 0.8796
-21.8713 23.3235 -2.3444 0.8796
-22.6966 22.5184 -2.3443 0.8796
-23.4926 21.6843 -2.3441 0.8797
-25.6942 19.0188 -2.3439 0.8797
-28.1287 15.1099 -2.3412 0.8798
-28.6533 14.0849 -2.3410 0.8798
-29.1408 13.0418 -2.3409 0.8798
-29.5905 11.9820 -2.3408 0.8798
-31.9479 11.6142 -2.4925 0.8725
-32.6990 9.2808 -2.4923 0.8726
-33.0112 8.0955 -2.4922 0.8726
-33.5068 5.6951 -2.4920 0.8726
-33.6897 4.4832 -2.4920 0.8726
-33.8288 3.2654 -2.4919 0.8726
-33.9242 2.0436 -2.4919 0.8726
-33.9831 -0.4065 -2.4919 0.8726
-33.9464 -1.6316 -2.4919 0.8726
-33.8659 -2.8546 -2.4919 0.8726
-33.5733 -5.2880 -2.4920 0.8726
-33.3616 -6.4952 -2.4921 0.8726
-33.1067 -7.6941 -2.4921 0.8726
-32.8089 -8.8832 -2.4922 0.8726
-31.6621 -12.3756 -2.4926 0.8725
-29.3055 -12.6908 -2.3416 0.8798
-27.7605 -15.7794 -2.3413 0.8798
-26.6905 -17.8319 -2.3536 0.8792
-26.1155 -18.8443 -2.3613 0.8788
-25.5071 -19.8421 -2.3695 0.8784
-24.8652 -20.8245 -2.3781 0.8780
-24.1902 -21.7903 -2.3872 0.8776
-23.4820 -22.7387 -2.3967 0.8771
-22.7410 -23.6685 -2.4067 0.8767
-21.9674 -24.5790 -2.4171 0.8762
-21.1614 -25.4689 -2.4279 0.8756
-20.3233 -26.3371 -2.4392 0.8751
-19.4534 -27.1826 -2.4509 0.8745
-18.5520 -28.0043 -2.4630 0.8740
-17.6196 -28.8011 -2.4756 0.8734
-16.6565 -29.5718 -2.4886 0.8727
-13.5879 -31.7158 -2.5299 0.8708
-12.5071 -32.3704 -2.5445 0.8701
-11.3984 -32.9930 -2.5594 0.8694
-10.2624 -33.5823 -2.5747 0.8686
-0.2978 -36.9472 -2.7091 0.8623
5.1530 -37.6003 -2.7827 0.8588
2.4344 -11.5161 -0.8630 0.9539
9.3634 -37.5470 -2.8373 0.8562
-12.5161 21.0281 -2.3493 0.9063
-13.9974 20.0691 -2.3491 0.9064
-16.0796 18.4367 -2.3486 0.9064
-16.7330 17.8441 -2.3485 0.9064
-17.3646 17.2283 -2.3484 0.9064
-17.9738 16.5903 -2.3483 0.9064
-21.9481 10.7889 -2.3479 0.9064
-22.6688 9.1792 -2.3480 0.9064
-23.2481 7.5142 -2.3456 0.9065
-25.4407 5.2744 -2.4944 0.9009
-25.6138 4.3535 -2.4943 0.9009
-25.7537 3.4271 -2.4943 0.9009
-25.8602 2.4963 -2.4942 0.9009
-25.9782 -0.3108 -2.4942 0.9009
-25.8885 -2.1821 -2.4942 0.9009
-25.7933 -3.1142 -2.4943 0.9009
-25.6646 -4.0423 -2.4943 0.9009
-25.0798 -6.7905 -2.4945 0.9009
-24.5268 -8.5807 -2.4946 0.9009
-22.4587 -9.7258 -2.3496 0.9063
-22.0462 -10.5067 -2.3446 0.9065
-21.6737 -11.3056 -2.3469 0.9064
-21.3014 -12.1085 -2.3524 0.9062
-19.8749 -14.3412 -2.3530 0.9062
-18.9626 -15.8810 -2.3746 0.9054
-13.6653 -22.3373 -2.5140 0.9001
-12.1366 -23.4899 -2.5384 0.8992
-9.6477 -24.9700 -2.5700 0.8980
-8.7720 -25.3909 -2.5790 0.8977
-7.8760 -25.7732 -2.5873 0.8974
-6.9617 -26.1156 -2.5948 0.8971
-2.1819 -27.1505 -2.6150 0.8963
-0.2196 -27.2424 -2.6155 0.8963
0.7625 -27.2186 -2.6141 0.8964
1.7418 -27.1485 -2.6118 0.8964
2.7159 -27.0323 -2.6083 0.8966
4.6392 -26.6640 -2.5983 0.8969
2.4341 -11.5142 -1.1299 0.9538
6.5135 -26.1193 -2.5844 0.8975
7.4268 -25.7832 -2.5760 0.8978
-8.8689 17.6886 -2.3505 0.9234
-9.5004 17.3564 -2.3503 0.9234
-10.7255 16.6250 -2.3501 0.9234
-11.3175 16.2267 -2.3500 0.9234
-11.8947 15.8075 -2.3499 0.9234
-7.0297 8.6726 -1.3261 0.9560
-13.5307 14.4292 -2.3497 0.9234
-15.4633 12.3332 -2.3495 0.9234
-16.7042 10.5911 -2.3494 0.9234
-17.0752 9.9819 -2.3494 0.9234
-20.7133 3.5206 -2.4957 0.9189
-20.9127 2.0187 -2.4957 0.9189
-20.9717 1.2633 -2.4957 0.9189
-21.0082 -0.2513 -2.4957 0.9189
-20.9855 -1.0086 -2.4957 0.9189
-20.8586 -2.5184 -2.4957 0.9189
-20.7544 -3.2689 -2.4957 0.9189
-20.4655 -4.7562 -2.4958 0.9188
-20.2812 -5.4912 -2.4959 0.9188
-20.0705 -6.2191 -2.4959 0.9188
-19.8338 -6.9389 -2.4960 0.9188
-19.5713 -7.6497 -2.4961 0.9188
-18.5825 -9.6932 -2.4896 0.9190
-16.8052 -10.3713 -2.3458 0.9235
-14.7588 -13.2946 -2.3595 0.9231
-13.2812 -14.8601 -2.3674 0.9229
-11.7000 -16.3487 -2.3881 0.9222
-7.4005 -19.1536 -2.4391 0.9206
-6.7222 -19.4577 -2.4453 0.9204
-6.0301 -19.7326 -2.4510 0.9202
-5.3255 -19.9778 -2.4560 0.9201
-4.6098 -20.1924 -2.4603 0.9200
-3.8845 -20.3759 -2.4640 0.9198
-1.6662 -20.7344 -2.4709 0.9196
-0.9179 -20.7889 -2.4718 0.9196
2.0796 -20.6991 -2.4711 0.9196
5.0150 -20.1104 -2.4620 0.9199
-7.4382 14.8351 -2.3514 0.9352
-7.9679 14.5566 -2.3513 0.9352
-8.4872 14.2593 -2.3512 0.9352
-9.9763 13.2580 -2.3509 0.9352
-7.0001 8.6361 -1.5751 0.9561
-10.9051 12.5038 -2.3508 0.9352
-11.7773 11.6849 -2.3507 0.9352
-12.1908 11.2524 -2.3506 0.9352
-12.9696 10.3443 -2.3506 0.9352
-13.3341 9.8699 -2.3506 0.9352
-13.6812 9.3826 -2.3505 0.9352
-14.0105 8.8832 -2.3505 0.9352
-14.3215 8.3721 -2.3505 0.9352
-15.3777 6.2269 -2.3507 0.9352
-16.7681 5.4197 -2.4969 0.9313
-16.9523 4.8115 -2.4968 0.9313
-17.3719 2.9527 -2.4967 0.9313
-17.4668 2.3244 -2.4967 0.9313
-17.5392 1.6930 -2.4967 0.9313
-17.6154 0.4246 -2.4966 0.9313
-17.6193 -0.2108 -2.4966 0.9313
-17.1640 -3.9890 -2.4968 0.9313
-17.0093 -4.6054 -2.4968 0.9313
-16.6339 -5.8194 -2.4969 0.9313
-16.4137 -6.4155 -2.4970 0.9313
-15.9096 -7.5822 -2.4971 0.9313
-15.3229 -8.7096 -2.4973 0.9313
-14.9994 -9.2568 -2.4974 0.9313
-14.5134 -9.6964 -2.4731 0.9319
-13.4754 -9.7235 -2.3545 0.9351
-13.0705 -10.1676 -2.3463 0.9353
-12.7028 -10.6385 -2.3477 0.9353
-12.3179 -11.0959 -2.3490 0.9352
-10.6693 -12.8412 -2.3655 0.9348
-9.7142 -13.5738 -2.3650 0.9348
-9.2175 -13.9139 -2.3648 0.9348
-8.7157 -14.2472 -2.3665 0.9348
-8.2147 -14.5842 -2.3717 0.9346
-6.6226 -15.4579 -2.3828 0.9343
-4.9340 -16.1458 -2.3921 0.9341
-3.1734 -16.6460 -2.4010 0.9338
-0.1371 -17.0039 -2.4093 0.9336
0.4763 -17.0019 -2.4099 0.9336
2.9146 -16.7518 -2.4092 0.9336
2.4115 -11.4075 -1.6520 0.9540
4.1126 -16.4915 -2.4082 0.9336
-6.3993 12.7630 -2.3521 0.9438
-6.8550 12.5235 -2.3520 0.9438
-7.7392 11.9961 -2.3518 0.9438
-8.1664 11.7089 -2.3517 0.9438
-10.1328 10.0532 -2.3514 0.9438
-10.8306 9.2966 -2.3514 0.9438
-11.4722 8.4917 -2.3513 0.9438
-14.0530 5.6904 -2.4977 0.9404
-14.2487 5.1799 -2.4976 0.9404
-14.5844 4.1394 -2.4975 0.9404
-14.7239 3.6108 -2.4975 0.9404
-14.9455 2.5403 -2.4974 0.9404
-15.0272 1.9997 -2.4974 0.9404
-15.0894 1.4566 -2.4974 0.9404
-15.1320 0.9116 -2.4974 0.9404
-15.1550 0.3654 -2.4974 0.9404
-15.1583 -0.1813 -2.4974 0.9404
-15.1420 -0.7278 -2.4974 0.9404
-15.0504 -1.8171 -2.4974 0.9404
-14.9751 -2.3586 -2.4974 0.9404
-14.7666 -3.4318 -2.4975 0.9404
-14.4813 -4.4872 -2.4975 0.9404
-13.9131 -6.0251 -2.4977 0.9404
-13.4434 -7.0125 -2.4979 0.9404
-13.1822 -7.4928 -2.4979 0.9404
-12.9039 -7.9636 -2.4980 0.9404
-12.6088 -8.4239 -2.4981 0.9404
-12.2973 -8.8734 -2.4982 0.9404
-11.9698 -9.3114 -2.4983 0.9404
-10.7815 -9.7119 -2.3905 0.9429
-10.2322 -9.9083 -2.3464 0.9439
-9.5002 -10.6296 -2.3486 0.9438
-8.7169 -11.2963 -2.3506 0.9438
-7.0536 -12.5231 -2.3678 0.9434
-6.6040 -12.7815 -2.3701 0.9433
-6.1407 -13.0155 -2.3708 0.9433
-5.6675 -13.2287 -2.3709 0.9433
-4.7000 -13.6042 -2.3711 0.9433
-4.2067 -13.7660 -2.3713 0.9433
-3.7081 -13.9103 -2.3716 0.9433
-2.1875 -14.2515 -2.3753 0.9432
-1.6738 -14.3333 -2.3773 0.9432
-0.6374 -14.4351 -2.3804 0.9431
-0.1165 -14.4549 -2.3814 0.9431
0.4051 -14.4539 -2.3821 0.9431
2.4780 -14.2414 -2.3814 0.9431
2.4041 -11.3728 -1.9150 0.9540
3.4960 -14.0188 -2.3802 0.9431
4.0008 -13.8891 -2.3811 0.9431
-5.6099 11.1886 -2.3526 0.9503
-6.0094 10.9787 -2.3525 0.9503
-6.4012 10.7546 -2.3524 0.9503
-6.7846 10.5164 -2.3523 0.9503
-6.6800 8.8774 -2.0882 0.9558
-6.9151 8.5312 -2.0641 0.9563
-8.2252 9.4310 -2.3521 0.9503
-8.5597 9.1281 -2.3521 0.9503
-8.8831 8.8134 -2.3520 0.9503
-9.1950 8.4873 -2.3520 0.9503
-9.4922 8.1478 -2.3513 0.9504
-10.5460 6.6865 -2.3471 0.9504
-10.7763 6.2996 -2.3462 0.9505
-12.1317 5.4295 -2.4982 0.9473
-12.4909 4.5409 -2.4981 0.9473
-12.9076 3.1654 -2.4980 0.9473
-13.2654 0.7991 -2.4979 0.9473
-13.2885 -0.1590 -2.4979 0.9473
-13.1938 -1.5930 -2.4979 0.9473
-13.0449 -2.5397 -2.4980 0.9473
-12.9450 -3.0085 -2.4980 0.9473
-12.8283 -3.4733 -2.4980 0.9473
-12.5450 -4.3889 -2.4981 0.9473
-12.3788 -4.8384 -2.4982 0.9473
-12.1966 -5.2817 -2.4982 0.9473
-11.7848 -6.1473 -2.4983 0.9473
-10.4928 -8.1624 -2.4987 0.9473
-10.1920 -8.5358 -2.4988 0.9473
-9.5511 -9.2487 -2.4990 0.9473
-9.2118 -9.5875 -2.4991 0.9473
-7.6288 -9.8862 -2.3471 0.9504
-6.9013 -10.4175 -2.3488 0.9504
-5.7414 -11.1121 -2.3510 0.9504
-4.0884 -11.8342 -2.3534 0.9503
-2.7977 -12.2547 -2.3627 0.9501
-2.3566 -12.3615 -2.3653 0.9501
-1.9112 -12.4502 -2.3676 0.9500
-1.4621 -12.5205 -2.3694 0.9500
-1.0103 -12.5723 -2.3707 0.9500
-0.5566 -12.6054 -2.3716 0.9499
-0.1017 -12.6198 -2.3721 0.9499
0.3534 -12.6154 -2.3721 0.9499
0.8079 -12.5923 -2.3717 0.9499
1.2610 -12.5504 -2.3709 0.9500
2.1593 -12.4109 -2.3678 0.9500
2.3968 -11.3381 -2.1782 0.9539
3.4754 -12.0652 -2.3600 0.9502
-6.3672 9.1291 -2.3527 0.9555
-9.1556 6.2789 -2.3467 0.9556
-9.7810 6.2015 -2.4481 0.9538
-10.4137 5.5939 -2.4987 0.9528
-10.7893 4.8287 -2.4986 0.9528
-11.2470 3.6352 -2.4985 0.9528
-11.3706 3.2273 -2.4984 0.9528
-11.4794 2.8152 -2.4984 0.9528
-11.6522 1.9805 -2.4984 0.9528
-11.7160 1.5591 -2.4983 0.9528
-11.7645 1.1356 -2.4983 0.9528
-11.8157 0.2849 -2.4983 0.9528
-11.7774 -0.9927 -2.4983 0.9528
-11.7340 -1.4167 -2.4983 0.9528
-11.6754 -1.8389 -2.4984 0.9528
-11.6016 -2.2587 -2.4984 0.9528
-11.2902 -3.4984 -2.4985 0.9528
-11.0091 -4.3031 -2.4986 0.9528
-10.4807 -5.4671 -2.4987 0.9528
-10.2770 -5.8415 -2.4988 0.9528
-10.0600 -6.2084 -2.4988 0.9528
-9.8298 -6.5673 -2.4989 0.9528
-9.5869 -6.9177 -2.4990 0.9528
-9.0640 -7.5910 -2.4991 0.9528
-8.7847 -7.9132 -2.4992 0.9528
-8.4939 -8.2251 -2.4993 0.9528
-8.1922 -8.5263 -2.4994 0.9528
-6.8824 -9.6169 -2.4998 0.9528
-6.4255 -9.6993 -2.4593 0.9535
-5.9398 -9.7092 -2.4059 0.9545
-5.0986 -9.8680 -2.3479 0.9556
-4.7405 -10.0477 -2.3484 0.9556
-4.0059 -10.3680 -2.3495 0.9556
-3.6302 -10.5078 -2.3500 0.9556
-3.2496 -10.6339 -2.3504 0.9556
-2.8646 -10.7460 -2.3508 0.9556
-2.0833 -10.9278 -2.3515 0.9555
-1.2907 -11.0522 -2.3521 0.9555
-0.8914 -11.0926 -2.3523 0.9555
-0.0897 -11.1296 -2.3526 0.9555
0.3117 -11.1261 -2.3528 0.9555
1.5113 -11.0277 -2.3528 0.9555
1.9079 -10.9659 -2.3528 0.9555
2.6930 -10.7989 -2.3526 0.9555
-4.8076 8.7830 -2.3532 0.9597
-5.1210 8.6037 -2.3532 0.9597
-5.7263 8.2102 -2.3526 0.9597
-6.0169 7.9962 -2.3519 0.9597
-7.5791 6.5056 -2.3475 0.9598
-7.8127 6.2312 -2.3486 0.9598
-8.7697 6.0143 -2.4992 0.9572
-9.1799 5.3664 -2.4991 0.9572
-9.3672 5.0318 -2.4990 0.9572
-10.1169 3.2700 -2.4988 0.9573
-10.2281 2.9030 -2.4988 0.9573
-10.3260 2.5323 -2.4988 0.9573
-10.4105 2.1583 -2.4987 0.9573
-10.4814 1.7815 -2.4987 0.9573
-10.5388 1.4024 -2.4987 0.9573
-10.6124 0.6393 -2.4987 0.9573
-10.6285 0.2562 -2.4987 0.9573
-10.5941 -0.8929 -2.4987 0.9573
-10.5023 -1.6542 -2.4987 0.9573
-10.1558 -3.1469 -2.4988 0.9573
-10.0359 -3.5111 -2.4988 0.9573
-9.7570 -4.2253 -2.4989 0.9573
-9.5985 -4.5745 -2.4990 0.9573
-9.0490 -5.5846 -2.4991 0.9572
-8.3937 -6.5295 -2.4993 0.9572
-8.1530 -6.8281 -2.4994 0.9572
-6.4982 -8.4210 -2.4999 0.9572
-5.8748 -8.8680 -2.5000 0.9572
-5.5514 -9.0744 -2.5001 0.9572
-5.2208 -9.2690 -2.5002 0.9572
-4.8834 -9.4517 -2.5003 0.9572
-4.1539 -9.6957 -2.4790 0.9576
-3.7487 -9.7021 -2.4445 0.9582
-3.3538 -9.7078 -2.4139 0.9587
-2.5903 -9.7172 -2.3635 0.9595
-1.8716 -9.8171 -2.3488 0.9598
-1.1594 -9.9278 -2.3491 0.9598
1.3575 -9.9055 -2.3498 0.9598
1.7138 -9.8504 -2.3498 0.9597
2.0680 -9.7826 -2.3499 0.9597
-4.3622 7.9694 -2.3523 0.9632
-5.1937 7.4466 -2.3507 0.9632
-5.7139 7.0493 -2.3495 0.9632
-6.2036 6.6155 -2.3482 0.9632
-7.2216 6.1987 -2.4641 0.9614
-7.5473 6.0196 -2.4996 0.9609
-7.7593 5.7434 -2.4995 0.9609
-7.9611 5.4598 -2.4994 0.9609
-8.1526 5.1690 -2.4994 0.9609
-8.6626 4.2582 -2.4992 0.9609
-8.8104 3.9430 -2.4992 0.9609
-9.1842 2.9685 -2.4991 0.9609
-9.3741 2.2989 -2.4990 0.9609
-9.5152 1.6173 -2.4990 0.9609
-9.5673 1.2732 -2.4990 0.9609
-9.6341 0.5804 -2.4990 0.9609
-9.6487 0.2326 -2.4989 0.9609
-9.6174 -0.8106 -2.4990 0.9609
-9.5820 -1.1569 -2.4990 0.9609
-9.5341 -1.5017 -2.4990 0.9609
-9.4738 -1.8445 -2.4990 0.9609
-9.2195 -2.8568 -2.4991 0.9609
-8.8575 -3.8358 -2.4992 0.9609
-8.3920 -4.7701 -2.4993 0.9609
-8.2147 -5.0697 -2.4994 0.9609
-8.0267 -5.3626 -2.4994 0.9609
-7.8283 -5.6487 -2.4995 0.9609
-7.4013 -6.1985 -2.4996 0.9609
-6.6892 -6.9620 -2.4998 0.9609
-6.4340 -7.1989 -2.4999 0.9609
-5.6196 -7.8523 -2.5001 0.9609
-5.3330 -8.0501 -2.5002 0.9609
-4.7393 -8.4141 -2.5004 0.9609
-3.8034 -8.8776 -2.5006 0.9609
-3.1540 -9.1293 -2.5008 0.9609
-1.8091 -9.4894 -2.5012 0.9609
-0.7739 -9.6304 -2.5015 0.9609
-0.0779 -9.6619 -2.5017 0.9609
0.6187 -9.6432 -2.5019 0.9609
1.3121 -9.5743 -2.5021 0.9609
1.9989 -9.4556 -2.5023 0.9609
-3.7223 7.4239 -2.3510 0.9661
-3.9868 7.2835 -2.3506 0.9661
-4.2459 7.1336 -2.3501 0.9661
-4.4994 6.9744 -2.3496 0.9661
-4.7470 6.8061 -2.3491 0.9661
-4.9881 6.6290 -2.3485 0.9661
-5.2226 6.4433 -2.3480 0.9661
-5.4510 6.2501 -2.3478 0.9661
-6.2431 6.1941 -2.4896 0.9641
-6.7005 5.7514 -2.4998 0.9640
-6.9033 5.5059 -2.4997 0.9640
-7.0972 5.2533 -2.4997 0.9640
-7.4570 4.7280 -2.4996 0.9640
-7.6225 4.4560 -2.4995 0.9640
-7.7781 4.1782 -2.4995 0.9640
-7.9235 3.8949 -2.4994 0.9640
-8.1834 3.3137 -2.4994 0.9640
-8.2974 3.0164 -2.4993 0.9640
-8.4007 2.7152 -2.4993 0.9640
-8.4930 2.4106 -2.4993 0.9640
-8.5743 2.1027 -2.4993 0.9640
-8.7511 1.1645 -2.4992 0.9640
-8.8122 0.5308 -2.4992 0.9640
-8.8256 0.2128 -2.4992 0.9640
-8.8275 -0.1056 -2.4992 0.9640
-8.8180 -0.4238 -2.4992 0.9640
-8.7646 -1.0582 -2.4992 0.9640
-8.7208 -1.3735 -2.4992 0.9640
-8.4330 -2.6130 -2.4993 0.9640
-8.3334 -2.9154 -2.4993 0.9640
-8.2230 -3.2141 -2.4994 0.9640
-7.5138 -4.6371 -2.4996 0.9640
-6.9696 -5.4217 -2.4997 0.9640
-6.1184 -6.3679 -2.5000 0.9640
-5.1400 -7.1822 -2.5003 0.9639
-4.6093 -7.5344 -2.5004 0.9639
-4.3348 -7.6959 -2.5005 0.9639
-4.0546 -7.8475 -2.5006 0.9639
-3.7691 -7.9888 -2.5007 0.9639
-3.1838 -8.2402 -2.5008 0.9639
-2.8847 -8.3500 -2.5009 0.9639
-2.2756 -8.5368 -2.5011 0.9639
-1.9664 -8.6136 -2.5012 0.9639
-1.6546 -8.6792 -2.5013 0.9639
-1.3407 -8.7335 -2.5014 0.9639
-1.0245 -8.7765 -2.5015 0.9639
-0.3898 -8.8282 -2.5016 0.9639
-0.0712 -8.8368 -2.5017 0.9639
0.2475 -8.8340 -2.5018 0.9639
0.5658 -8.8196 -2.5019 0.9639
0.8835 -8.7938 -2.5020 0.9639
2.4468 -8.4943 -2.5025 0.9639
-4.1388 6.4154 -2.3482 0.9686
-5.0259 6.2005 -2.4550 0.9671
-6.3542 5.0679 -2.4999 0.9666
-6.7026 4.5967 -2.4998 0.9666
-6.8639 4.3519 -2.4998 0.9666
-7.0162 4.1015 -2.4997 0.9666
-7.1594 3.8458 -2.4997 0.9666
-7.2933 3.5851 -2.4996 0.9666
-7.4177 3.3198 -2.4996 0.9666
-7.6375 2.7765 -2.4995 0.9666
-7.7325 2.4993 -2.4995 0.9666
-8.0112 1.3617 -2.4994 0.9666
-8.0551 1.0719 -2.4994 0.9666
-8.1167 -0.3901 -2.4994 0.9666
-8.0973 -0.6825 -2.4994 0.9666
-8.0272 -1.2643 -2.4994 0.9666
-7.9764 -1.5529 -2.4994 0.9666
-7.9153 -1.8395 -2.4995 0.9666
-7.6706 -2.6836 -2.4995 0.9666
-7.5689 -2.9584 -2.4996 0.9666
-7.4574 -3.2294 -2.4996 0.9666
-7.3362 -3.4963 -2.4996 0.9666
-7.2055 -3.7586 -2.4997 0.9666
-6.7579 -4.5150 -2.4998 0.9666
-6.5908 -4.7557 -2.4998 0.9666
-6.4152 -4.9904 -2.4999 0.9666
-6.2312 -5.2186 -2.4999 0.9666
-6.0391 -5.4400 -2.5000 0.9666
-5.8392 -5.6543 -2.5001 0.9666
-5.4168 -6.0607 -2.5002 0.9666
-5.1948 -6.2523 -2.5002 0.9666
-4.9662 -6.4357 -2.5003 0.9666
-4.7310 -6.6107 -2.5004 0.9666
-4.4897 -6.7772 -2.5004 0.9666
-4.2426 -6.9349 -2.5005 0.9665
-3.9899 -7.0836 -2.5006 0.9665
-3.4692 -7.3531 -2.5007 0.9665
-3.2019 -7.4737 -2.5008 0.9665
-2.0945 -7.8573 -2.5011 0.9665
-1.2339 -8.0384 -2.5014 0.9665
-0.6515 -8.1069 -2.5016 0.9665
-0.3588 -8.1254 -2.5016 0.9665
-0.0656 -8.1333 -2.5017 0.9665
0.8132 -8.0937 -2.5020 0.9665
1.1045 -8.0594 -2.5021 0.9665
1.3944 -8.0146 -2.5022 0.9665
1.6826 -7.9594 -2.5022 0.9665
1.9685 -7.8938 -2.5023 0.9665
2.2520 -7.8179 -2.5024 0.9665
-4.0005 6.2010 -2.4530 0.9694
-4.3033 6.1700 -2.5005 0.9688
-4.9440 5.6688 -2.5003 0.9688
-5.1451 5.4867 -2.5003 0.9688
-5.3394 5.2975 -2.5002 0.9688
-5.5269 5.1015 -2.5001 0.9688
-6.2023 4.2536 -2.4999 0.9688
-6.6251 3.5588 -2.4998 0.9688
-6.7490 3.3176 -2.4998 0.9688
-6.8641 3.0720 -2.4998 0.9688
-7.2341 2.0533 -2.4996 0.9688
-7.3034 1.7911 -2.4996 0.9688
-7.3632 1.5265 -2.4996 0.9688
-7.4134 1.2601 -2.4996 0.9688
-7.4540 0.9919 -2.4996 0.9688
-7.5174 0.1812 -2.4996 0.9688
-7.5110 -0.3610 -2.4996 0.9688
-7.4931 -0.6316 -2.4996 0.9688
-7.4281 -1.1700 -2.4996 0.9688
-7.3812 -1.4370 -2.4996 0.9688
-7.2585 -1.9652 -2.4996 0.9688
-7.0041 -2.7376 -2.4997 0.9688
-6.9009 -2.9884 -2.4997 0.9688
-6.5381 -3.7163 -2.4999 0.9688
-6.2535 -4.1780 -2.4999 0.9688
-5.2113 -5.4238 -2.5002 0.9688
-4.8071 -5.7855 -2.5004 0.9688
-4.1545 -6.2713 -2.5005 0.9688
-3.4533 -6.6837 -2.5007 0.9688
-2.9629 -6.9156 -2.5009 0.9688
-2.1990 -7.1958 -2.5011 0.9688
-0.8729 -7.4746 -2.5015 0.9688
1.0220 -7.4574 -2.5020 0.9688
1.5569 -7.3648 -2.5022 0.9688
1.8215 -7.3041 -2.5023 0.9688
2.0837 -7.2339 -2.5024 0.9688
-3.1068 6.1963 -2.4788 0.9710
-3.7909 5.8760 -2.5006 0.9707
-4.0002 5.7354 -2.5006 0.9707
-4.2043 5.5873 -2.5005 0.9707
-4.4029 5.4319 -2.5005 0.9707
-4.7827 5.1003 -2.5004 0.9707
-5.1376 4.7421 -2.5003 0.9707
-5.3051 4.5537 -2.5002 0.9707
-5.7654 3.9540 -2.5001 0.9707
-5.9043 3.7435 -2.5000 0.9707
-6.0353 3.5281 -2.5000 0.9707
-6.6516 2.1499 -2.4998 0.9707
-6.7247 1.9087 -2.4998 0.9707
-6.9291 0.9221 -2.4997 0.9707
-6.9896 -0.0836 -2.4997 0.9707
-6.9821 -0.3356 -2.4997 0.9707
-6.9654 -0.5871 -2.4997 0.9707
-6.9398 -0.8379 -2.4997 0.9707
-6.9051 -1.0876 -2.4997 0.9707
-6.8088 -1.5824 -2.4998 0.9707
-6.6772 -2.0690 -2.4998 0.9707
-6.1982 -3.2331 -2.5000 0.9707
-6.0777 -3.4546 -2.5000 0.9707
-5.6694 -4.0908 -2.5001 0.9707
-5.5183 -4.2927 -2.5001 0.9707
-5.3600 -4.4890 -2.5002 0.9707
-5.1948 -4.6794 -2.5002 0.9707
-4.8442 -5.0418 -2.5003 0.9707
-4.4685 -5.3780 -2.5005 0.9707
-4.2718 -5.5358 -2.5005 0.9707
-4.0695 -5.6863 -2.5006 0.9707
-3.8619 -5.8295 -2.5006 0.9707
-3.6493 -5.9651 -2.5007 0.9707
-3.4319 -6.0930 -2.5008 0.9707
-3.2101 -6.2129 -2.5008 0.9707
-2.7541 -6.4284 -2.5010 0.9707
-2.5206 -6.5237 -2.5010 0.9707
-2.2838 -6.6106 -2.5011 0.9707
-2.0440 -6.6888 -2.5012 0.9707
-1.3099 -6.8710 -2.5014 0.9707
-1.0614 -6.9139 -2.5014 0.9707
-0.5604 -6.9729 -2.5016 0.9707
-0.3086 -6.9887 -2.5017 0.9707
-0.0564 -6.9955 -2.5017 0.9707
0.1959 -6.9932 -2.5018 0.9707
0.4479 -6.9818 -2.5019 0.9707
0.6994 -6.9613 -2.5020 0.9707
0.9500 -6.9318 -2.5020 0.9707
1.1993 -6.8932 -2.5021 0.9707
1.4471 -6.8457 -2.5022 0.9707
-2.9250 5.8338 -2.5009 0.9724
-3.3377 5.6076 -2.5008 0.9724
-3.9233 5.2141 -2.5006 0.9724
-4.1088 5.0691 -2.5006 0.9724
-4.6318 4.5955 -2.5004 0.9724
-4.7944 4.4254 -2.5004 0.9724
-4.9508 4.2496 -2.5003 0.9724
-5.7472 3.0873 -2.5001 0.9724
-5.8547 2.8780 -2.5000 0.9724
-6.0468 2.4485 -2.5000 0.9724
-6.1311 2.2289 -2.5000 0.9724
-6.2756 1.7812 -2.4999 0.9724
-6.3876 1.3243 -2.4999 0.9724
-6.4312 1.0931 -2.4999 0.9724
-6.4664 0.8605 -2.4999 0.9724
-6.4932 0.6268 -2.4999 0.9724
-6.5115 0.3923 -2.4999 0.9724
-6.5214 0.1572 -2.4999 0.9724
-6.5003 -0.5479 -2.4999 0.9724
-6.4763 -0.7819 -2.4999 0.9724
-6.4439 -1.0149 -2.4999 0.9724
-6.3541 -1.4767 -2.4999 0.9724
-6.2313 -1.9308 -2.4999 0.9724
-6.1576 -2.1542 -2.5000 0.9724
-6.0760 -2.3749 -2.5000 0.9724
-5.9865 -2.5925 -2.5000 0.9724
-5.6718 -3.2238 -2.5001 0.9724
-5.2907 -3.8176 -2.5002 0.9724
-5.1497 -4.0060 -2.5003 0.9724
-4.8478 -4.3668 -2.5003 0.9724
-4.5206 -4.7050 -2.5004 0.9724
-4.1700 -5.0188 -2.5005 0.9724
-3.9864 -5.1660 -2.5006 0.9724
-3.6039 -5.4401 -2.5007 0.9724
-3.4055 -5.5666 -2.5008 0.9724
-2.9956 -5.7978 -2.5009 0.9724
-2.7847 -5.9022 -2.5009 0.9724
-2.3522 -6.0878 -2.5011 0.9724
-2.1312 -6.1688 -2.5011 0.9724
-0.9904 -6.4519 -2.5015 0.9724
-0.7572 -6.4836 -2.5015 0.9724
-0.2880 -6.5217 -2.5017 0.9724
-0.0526 -6.5280 -2.5017 0.9724
0.8865 -6.4685 -2.5020 0.9724
1.3504 -6.3881 -2.5021 0.9724
1.5799 -6.3354 -2.5022 0.9724
-2.7389 5.4625 -2.5010 0.9739
-2.9340 5.3601 -2.5009 0.9739
-3.1253 5.2507 -2.5008 0.9739
-3.3125 5.1345 -2.5008 0.9739
-3.4954 5.0116 -2.5007 0.9739
-3.6737 4.8822 -2.5007 0.9739
-3.8473 4.7465 -2.5006 0.9739
-4.3371 4.3030 -2.5005 0.9739
-4.9103 3.6346 -2.5003 0.9739
-5.0381 3.4552 -2.5003 0.9739
-5.4822 2.6949 -2.5002 0.9739
-5.5757 2.4954 -2.5001 0.9739
-5.7410 2.0871 -2.5001 0.9739
-5.8124 1.8787 -2.5001 0.9739
-6.0220 1.0236 -2.5000 0.9739
-6.0550 0.8058 -2.5000 0.9739
-6.0801 0.5869 -2.5000 0.9739
-6.0973 0.3673 -2.5000 0.9739
-6.1079 -0.0731 -2.5000 0.9739
-6.0867 -0.5130 -2.5000 0.9739
-6.0643 -0.7322 -2.5000 0.9739
-6.0340 -0.9504 -2.5000 0.9739
-5.9498 -1.3828 -2.5000 0.9739
-5.8962 -1.5964 -2.5000 0.9739
-5.6894 -2.2238 -2.5001 0.9739
-5.5145 -2.6281 -2.5001 0.9739
-5.3109 -3.0187 -2.5002 0.9739
-5.0797 -3.3937 -2.5003 0.9739
-4.9541 -3.5747 -2.5003 0.9739
-4.8220 -3.7511 -2.5003 0.9739
-4.6837 -3.9225 -2.5004 0.9739
-4.2330 -4.4056 -2.5005 0.9739
-4.0714 -4.5555 -2.5006 0.9739
-3.7327 -4.8372 -2.5007 0.9739
-3.1887 -5.2123 -2.5008 0.9739
-2.4065 -5.6171 -2.5011 0.9739
-1.9956 -5.7762 -2.5012 0.9739
-1.1446 -6.0037 -2.5014 0.9739
-0.9274 -6.0412 -2.5015 0.9739
-0.2696 -6.1065 -2.5017 0.9739
0.1712 -6.1103 -2.5018 0.9739
0.6111 -6.0824 -2.5019 0.9739
0.8300 -6.0566 -2.5020 0.9739
1.4793 -5.9320 -2.5022 0.9739
1.6923 -5.8750 -2.5022 0.9739
-2.5721 5.1300 -2.5010 0.9753
-2.7553 5.0338 -2.5009 0.9753
-2.9350 4.9311 -2.5009 0.9753
-3.2826 4.7065 -2.5008 0.9753
-3.6131 4.4575 -2.5007 0.9753
-3.7714 4.3243 -2.5007 0.9753
-4.0731 4.0411 -2.5006 0.9753
-4.3536 3.7370 -2.5005 0.9753
-4.4854 3.5775 -2.5004 0.9753
-4.9529 2.8954 -2.5003 0.9753
-5.2364 2.3435 -2.5002 0.9753
-5.3916 1.9600 -2.5002 0.9753
-5.5716 1.3664 -2.5001 0.9753
-5.6172 1.1646 -2.5001 0.9753
-5.6555 0.9613 -2.5001 0.9753
-5.7361 -0.0686 -2.5001 0.9753
-5.7299 -0.2754 -2.5001 0.9753
-5.6667 -0.8925 -2.5001 0.9753
-5.5373 -1.4992 -2.5001 0.9753
-5.4796 -1.6979 -2.5002 0.9753
-5.3432 -2.0885 -2.5002 0.9753
-4.9876 -2.8350 -2.5003 0.9753
-4.8822 -3.0130 -2.5003 0.9753
-4.7705 -3.1872 -2.5004 0.9753
-4.2630 -3.8401 -2.5005 0.9753
-4.1218 -3.9913 -2.5006 0.9753
-3.9753 -4.1374 -2.5006 0.9753
-3.8236 -4.2781 -2.5006 0.9753
-3.6669 -4.4133 -2.5007 0.9753
-3.3395 -4.6663 -2.5008 0.9753
-3.1691 -4.7837 -2.5008 0.9753
-2.8162 -4.9999 -2.5009 0.9753
-2.4487 -5.1901 -2.5010 0.9753
-2.2600 -5.2751 -2.5011 0.9753
-1.8740 -5.4245 -2.5012 0.9753
-1.6773 -5.4887 -2.5013 0.9753
-1.2774 -5.5955 -2.5014 0.9753
-1.0749 -5.6381 -2.5014 0.9753
-0.2532 -5.7346 -2.5017 0.9753
-0.0463 -5.7401 -2.5017 0.9753
0.5739 -5.7120 -2.5019 0.9753
0.7795 -5.6877 -2.5020 0.9753
1.5892 -5.5171 -2.5022 0.9753
-2.5943 4.7395 -2.5010 0.9765
-2.7634 4.6428 -2.5009 0.9765
-2.9290 4.5400 -2.5009 0.9765
-3.0907 4.4314 -2.5008 0.9765
-3.2484 4.3170 -2.5008 0.9765
-3.8351 3.8049 -2.5006 0.9765
-4.0991 3.5185 -2.5006 0.9765
-4.3419 3.2139 -2.5005 0.9765
-4.4549 3.0552 -2.5005 0.9765
-4.5621 2.8926 -2.5004 0.9765
-4.7586 2.5562 -2.5004 0.9765
-5.0067 2.0274 -2.5003 0.9765
-5.1962 1.4748 -2.5002 0.9765
-5.2460 1.2865 -2.5002 0.9765
-5.2889 1.0965 -2.5002 0.9765
-5.3250 0.9051 -2.5002 0.9765
-5.3763 0.5190 -2.5002 0.9765
-5.3997 0.1302 -2.5002 0.9765
-5.4009 -0.0646 -2.5002 0.9765
-5.3951 -0.2593 -2.5002 0.9765
-5.3822 -0.4537 -2.5002 0.9765
-5.3624 -0.6474 -2.5002 0.9765
-5.3018 -1.0322 -2.5002 0.9765
-5.2612 -1.2227 -2.5002 0.9765
-5.2137 -1.4116 -2.5002 0.9765
-5.0985 -1.7837 -2.5003 0.9765
-5.0309 -1.9664 -2.5003 0.9765
-4.9568 -2.1465 -2.5003 0.9765
-4.7893 -2.4982 -2.5004 0.9765
-4.6961 -2.6693 -2.5004 0.9765
-3.7429 -3.8956 -2.5007 0.9765
-3.6001 -4.0281 -2.5007 0.9765
-3.4526 -4.1554 -2.5007 0.9765
-3.3006 -4.2772 -2.5008 0.9765
-2.9839 -4.5041 -2.5009 0.9765
-2.6516 -4.7076 -2.5010 0.9765
-2.4802 -4.8003 -2.5010 0.9765
-1.9475 -5.0403 -2.5012 0.9765
-1.7645 -5.1074 -2.5012 0.9765
-1.5792 -5.1678 -2.5013 0.9765
-1.3919 -5.2215 -2.5013 0.9765
-1.0120 -5.3084 -2.5015 0.9765
-0.6268 -5.3678 -2.5016 0.9765
0.1513 -5.4026 -2.5018 0.9765
1.1180 -5.2885 -2.5021 0.9765
1.4962 -5.1944 -2.5022 0.9765
-2.4481 4.4725 -2.5010 0.9775
-2.7640 4.2843 -2.5009 0.9775
-3.4873 3.7188 -2.5007 0.9775
-3.8683 3.3204 -2.5006 0.9775
-3.9854 3.1787 -2.5006 0.9775
-4.0974 3.0329 -2.5006 0.9775
-4.2040 2.8831 -2.5005 0.9775
-4.3052 2.7297 -2.5005 0.9775
-4.4906 2.4123 -2.5004 0.9775
-4.6527 2.0823 -2.5004 0.9775
-4.8502 1.5677 -2.5003 0.9775
-4.9505 1.2141 -2.5003 0.9775
-4.9911 1.0348 -2.5003 0.9775
-5.0736 0.4898 -2.5003 0.9775
-5.0879 0.3065 -2.5003 0.9775
-5.0957 0.1229 -2.5003 0.9775
-5.0968 -0.0610 -2.5003 0.9775
-5.0913 -0.2447 -2.5003 0.9775
-5.0791 -0.4281 -2.5003 0.9775
-5.0351 -0.7931 -2.5003 0.9775
-5.0033 -0.9741 -2.5003 0.9775
-4.9649 -1.1538 -2.5003 0.9775
-4.6776 -2.0256 -2.5004 0.9775
-4.6016 -2.1930 -2.5004 0.9775
-4.4317 -2.5190 -2.5005 0.9775
-4.2387 -2.8319 -2.5005 0.9775
-4.1339 -2.9829 -2.5005 0.9775
-4.0237 -3.1301 -2.5006 0.9775
-3.6623 -3.5464 -2.5007 0.9775
-3.5321 -3.6762 -2.5007 0.9775
-3.1147 -4.0363 -2.5008 0.9775
-2.6607 -4.3492 -2.5010 0.9775
-1.4903 -4.8766 -2.5013 0.9775
-1.3135 -4.9273 -2.5014 0.9775
-0.9550 -5.0093 -2.5015 0.9775
-0.7738 -5.0406 -2.5015 0.9775
-0.5915 -5.0654 -2.5016 0.9775
-0.4085 -5.0835 -2.5016 0.9775
-0.2250 -5.0950 -2.5017 0.9775
-0.0411 -5.1000 -2.5017 0.9775
0.1428 -5.0982 -2.5018 0.9775
0.8743 -5.0252 -2.5020 0.9775
1.0550 -4.9905 -2.5021 0.9775
1.2342 -4.9493 -2.5021 0.9775
1.4119 -4.9017 -2.5022 0.9775
-2.4658 4.1427 -2.5010 0.9785
-2.7578 3.9541 -2.5009 0.9785
-3.1685 3.6330 -2.5008 0.9785
-3.2974 3.5164 -2.5008 0.9785
-3.7684 3.0056 -2.5007 0.9785
-3.8743 2.8678 -2.5006 0.9785
-4.1612 2.4326 -2.5005 0.9785
-4.6810 1.1480 -2.5004 0.9785
-4.7194 0.9784 -2.5004 0.9785
-4.7516 0.8076 -2.5004 0.9785
-4.7776 0.6358 -2.5004 0.9785
-4.7974 0.4631 -2.5004 0.9785
-4.8193 -0.0576 -2.5003 0.9785
-4.8141 -0.2314 -2.5004 0.9785
-4.6523 -1.2596 -2.5004 0.9785
-4.6038 -1.4265 -2.5004 0.9785
-4.4892 -1.7546 -2.5004 0.9785
-4.4230 -1.9154 -2.5005 0.9785
-4.1904 -2.3818 -2.5005 0.9785
-4.0079 -2.6777 -2.5006 0.9785
-3.9088 -2.8205 -2.5006 0.9785
-3.8046 -2.9596 -2.5006 0.9785
-3.6955 -3.0949 -2.5007 0.9785
-3.4629 -3.3533 -2.5007 0.9785
-3.0807 -3.7078 -2.5009 0.9785
-2.8056 -3.9203 -2.5009 0.9785
-2.6625 -4.0190 -2.5010 0.9785
-2.3660 -4.2005 -2.5011 0.9785
-2.0572 -4.3603 -2.5012 0.9785
-1.8987 -4.4317 -2.5012 0.9785
-1.5744 -4.5572 -2.5013 0.9785
-1.4091 -4.6111 -2.5013 0.9785
-1.0732 -4.7008 -2.5014 0.9785
-0.9030 -4.7366 -2.5015 0.9785
-0.7316 -4.7661 -2.5015 0.9785
-0.2127 -4.8176 -2.5017 0.9785
0.6548 -4.7781 -2.5019 0.9785
0.8267 -4.7514 -2.5020 0.9785
0.9975 -4.7186 -2.5020 0.9785
1.3350 -4.6347 -2.5021 0.9785
-2.0468 4.0822 -2.5012 0.9794
-2.1926 4.0057 -2.5011 0.9794
-2.3356 3.9240 -2.5011 0.9794
-2.7455 3.6487 -2.5009 0.9794
-2.8752 3.5473 -2.5009 0.9794
-3.1233 3.3307 -2.5008 0.9794
-3.2414 3.2159 -2.5008 0.9794
-3.5695 2.8470 -2.5007 0.9794
-3.8559 2.4448 -2.5006 0.9794
-4.1672 1.8650 -2.5005 0.9794
-4.2317 1.7136 -2.5005 0.9794
-4.2907 1.5599 -2.5005 0.9794
-4.3919 1.2465 -2.5005 0.9794
-4.4340 1.0874 -2.5005 0.9794
-4.5570 0.2745 -2.5004 0.9794
-4.5650 -0.0546 -2.5004 0.9794
-4.5492 -0.3834 -2.5004 0.9794
-4.3608 -1.3512 -2.5005 0.9794
-4.3093 -1.5076 -2.5005 0.9794
-4.2522 -1.6620 -2.5005 0.9794
-4.1895 -1.8143 -2.5005 0.9794
-4.1214 -1.9642 -2.5006 0.9794
-3.9692 -2.2561 -2.5006 0.9794
-3.7025 -2.6716 -2.5007 0.9794
-3.6038 -2.8034 -2.5007 0.9794
-3.5004 -2.9316 -2.5007 0.9794
-3.2801 -3.1763 -2.5008 0.9794
-3.1635 -3.2925 -2.5008 0.9794
-3.0428 -3.4045 -2.5009 0.9794
-2.9181 -3.5121 -2.5009 0.9794
-2.7896 -3.6150 -2.5009 0.9794
-2.5219 -3.8068 -2.5010 0.9794
-2.3830 -3.8953 -2.5011 0.9794
-2.2411 -3.9787 -2.5011 0.9794
-1.7984 -4.1977 -2.5012 0.9794
-1.6459 -4.2599 -2.5013 0.9794
-1.4913 -4.3166 -2.5013 0.9794
-1.1764 -4.4130 -2.5014 0.9794
-0.6930 -4.5144 -2.5015 0.9794
-0.3659 -4.5528 -2.5016 0.9794
-0.2015 -4.5631 -2.5017 0.9794
0.1279 -4.5660 -2.5018 0.9794
0.2925 -4.5585 -2.5018 0.9794
0.4566 -4.5450 -2.5019 0.9794
0.6202 -4.5257 -2.5019 0.9794
0.7830 -4.5005 -2.5020 0.9794
1.2645 -4.3899 -2.5021 0.9794
-2.0801 3.8001 -2.5011 0.9802
-2.3484 3.6402 -2.5011 0.9802
-2.6046 3.4614 -2.5010 0.9802
-2.9630 3.1598 -2.5009 0.9802
-3.2867 2.8212 -2.5008 0.9802
-3.3863 2.7009 -2.5008 0.9802
-3.7392 2.1859 -2.5007 0.9802
-3.8156 2.0497 -2.5006 0.9802
-4.0145 1.6256 -2.5006 0.9802
-4.1212 1.3320 -2.5006 0.9802
-4.2064 1.0316 -2.5005 0.9802
-4.3110 0.4161 -2.5005 0.9802
-4.3260 -0.2079 -2.5005 0.9802
-4.3157 -0.3637 -2.5005 0.9802
-4.2998 -0.5191 -2.5005 0.9802
-4.2512 -0.8276 -2.5005 0.9802
-4.1805 -1.1319 -2.5005 0.9802
-4.0339 -1.5767 -2.5006 0.9802
-3.7655 -2.1403 -2.5007 0.9802
-3.6859 -2.2747 -2.5007 0.9802
-3.5124 -2.5345 -2.5007 0.9802
-3.3207 -2.7811 -2.5008 0.9802
-3.2183 -2.8990 -2.5008 0.9802
-3.1118 -3.0133 -2.5008 0.9802
-3.0011 -3.1235 -2.5009 0.9802
-2.8866 -3.2298 -2.5009 0.9802
-2.7683 -3.3318 -2.5009 0.9802
-2.6464 -3.4294 -2.5010 0.9802
-2.2607 -3.6953 -2.5011 0.9802
-2.1260 -3.7745 -2.5011 0.9802
-1.8485 -3.9180 -2.5012 0.9802
-1.7061 -3.9822 -2.5013 0.9802
-1.5614 -4.0412 -2.5013 0.9802
-1.2662 -4.1433 -2.5014 0.9802
-1.1160 -4.1864 -2.5014 0.9802
-0.9643 -4.2240 -2.5015 0.9802
-0.6574 -4.2827 -2.5016 0.9802
-0.1911 -4.3288 -2.5017 0.9802
0.1213 -4.3315 -2.5018 0.9802
0.2774 -4.3244 -2.5018 0.9802
0.4332 -4.3117 -2.5019 0.9802
0.5884 -4.2933 -2.5019 0.9802
0.8963 -4.2399 -2.5020 0.9802
