ply
format ascii 1.0
element vertex 1116
property float32 x
property float32 y
property float32 z
property float32 I
end_header
1.5415 -11.5009 1.7776 0.9541
-7.8703 8.7612 1.5336 0.9536
-27.3731 6.4104 3.6610 0.8928
1.5412 -11.4986 1.2458 0.9544
-7.8689 8.7596 0.9968 0.9538
1.5410 -11.4975 0.9820 0.9545
-7.8682 8.7589 0.7301 0.9539
-7.8675 8.7581 0.4642 0.9540
-7.8668 8.7573 0.1989 0.9540
1.5406 -11.4941 0.1959 0.9547
-7.8661 8.7566 -0.0663 0.9540
-29.2188 15.2396 -0.1855 0.8765
-29.2244 13.9349 -0.1823 0.8785
1.5404 -11.4930 -0.0653 0.9547
-7.8654 8.7558 -0.3314 0.9540
-29.2190 15.2397 -0.9279 0.8765
-29.2246 13.9350 -0.9117 0.8785
-29.4148 12.7538 -0.9028 0.8796
1.5403 -11.4919 -0.3265 0.9547
-10.5781 45.0858 -2.3486 0.8307
-12.1841 44.6718 -2.3483 0.8307
-21.4099 41.0078 -2.3461 0.8309
-25.6710 38.4553 -2.3448 0.8310
-28.3469 36.5055 -2.3440 0.8310
-34.1260 35.3560 -2.4920 0.8213
-35.3651 34.1065 -2.4917 0.8214
-36.5588 32.8139 -2.4913 0.8214
-37.7054 31.4795 -2.4910 0.8214
-38.8036 30.1054 -2.4907 0.8214
-29.2192 15.2398 -1.6713 0.8764
-29.2248 13.9351 -1.6420 0.8784
-45.6942 17.8971 -2.4888 0.8216
-46.8517 14.5788 -2.4884 0.8216
-48.4462 7.7391 -2.4881 0.8216
-48.6917 5.9993 -2.4880 0.8216
-48.9960 2.4990 -2.4880 0.8216
-49.0499 -1.0142 -2.4881 0.8216
-48.9828 -2.7699 -2.4881 0.8216
-48.6609 -6.2689 -2.4882 0.8216
-48.4067 -8.0076 -2.4883 0.8216
-48.0905 -9.7362 -2.4884 0.8216
-46.7711 -14.8380 -2.4885 0.8216
-46.2126 -16.5042 -2.4886 0.8216
-44.9196 -19.7723 -2.4890 0.8215
-43.3968 -22.9406 -2.4894 0.8215
-40.6988 -27.4709 -2.4902 0.8215
-39.6937 -28.9138 -2.4905 0.8214
-37.5316 -31.6883 -2.4911 0.8214
-36.3777 -33.0164 -2.4914 0.8214
-35.1769 -34.3026 -2.4918 0.8214
-33.9309 -35.5453 -2.4921 0.8213
-29.4019 -35.5855 -2.3410 0.8312
-27.0233 -37.9406 -2.3623 0.8298
-25.8227 -39.1498 -2.3784 0.8287
-24.5763 -40.3318 -2.3952 0.8277
-21.9463 -42.6079 -2.4306 0.8253
-19.1341 -44.7559 -2.4685 0.8229
1.5402 -11.4908 -0.5880 0.9546
-7.3181 31.1912 -2.3491 0.8794
-8.4288 30.9035 -2.3487 0.8794
-10.6153 30.2106 -2.3479 0.8795
-11.6884 29.8063 -2.3475 0.8795
-13.7876 28.8848 -2.3468 0.8795
-14.8111 28.3686 -2.3465 0.8795
-15.8154 27.8165 -2.3462 0.8796
-16.7994 27.2291 -2.3459 0.8796
-17.7617 26.6072 -2.3456 0.8796
-19.6166 25.2628 -2.3452 0.8796
-20.5069 24.5421 -2.3450 0.8796
-7.8641 8.7543 -0.8628 0.9539
-22.2078 23.0083 -2.3447 0.8796
-24.5437 20.4911 -2.3443 0.8796
-25.2611 19.5985 -2.3443 0.8796
-26.5984 17.7400 -2.3442 0.8797
-27.7803 15.7797 -2.3426 0.8797
-28.3121 14.7667 -2.3413 0.8798
-28.8209 13.7426 -2.3412 0.8798
-29.2929 12.7010 -2.3410 0.8798
-30.1237 10.5708 -2.3408 0.8798
-30.4816 9.4850 -2.3407 0.8798
-33.0962 7.7507 -2.4923 0.8726
-33.3515 6.5604 -2.4923 0.8726
-33.5642 5.3618 -2.4922 0.8726
-33.7340 4.1564 -2.4922 0.8726
-33.8607 2.9457 -2.4921 0.8726
-33.9442 1.7313 -2.4921 0.8726
-33.9843 0.5146 -2.4921 0.8726
-33.9342 -1.9189 -2.4921 0.8726
-33.5342 -5.5473 -2.4922 0.8726
-33.0530 -7.9336 -2.4924 0.8726
-29.6676 -11.8096 -2.3413 0.8798
-29.2578 -12.8785 -2.3439 0.8797
-28.2891 -14.9543 -2.3462 0.8796
-27.8111 -16.0012 -2.3526 0.8792
-27.2997 -17.0364 -2.3595 0.8789
-25.5650 -20.0618 -2.3827 0.8778
-24.2430 -22.0029 -2.4005 0.8769
-22.7900 -23.8743 -2.4200 0.8760
-22.0148 -24.7813 -2.4305 0.8755
-20.3687 -26.5329 -2.4526 0.8745
-19.4982 -27.3754 -2.4643 0.8739
-17.6641 -28.9882 -2.4890 0.8727
-16.7013 -29.7563 -2.5020 0.8721
-14.6863 -31.2101 -2.5291 0.8708
-13.6351 -31.8936 -2.5433 0.8701
-10.3145 -33.7555 -2.5880 0.8680
-7.9683 -34.8275 -2.6196 0.8665
-6.7579 -35.3091 -2.6359 0.8657
-5.5238 -35.7526 -2.6526 0.8649
-4.2671 -36.1570 -2.6695 0.8641
-2.9888 -36.5210 -2.6868 0.8633
-0.3722 -37.1225 -2.7220 0.8617
3.6837 -37.6911 -2.7768 0.8591
6.4577 -37.8340 -2.8142 0.8573
7.8609 -37.8315 -2.8331 0.8564
9.2278 -37.5960 -2.8384 0.8562
13.0344 -35.9155 -2.8015 0.8579
14.2248 -35.2096 -2.7844 0.8587
15.3749 -34.4499 -2.7661 0.8596
-5.5930 23.8383 -2.3507 0.9063
-6.4425 23.6210 -2.3506 0.9063
-7.2837 23.3734 -2.3504 0.9063
-8.1154 23.0959 -2.3502 0.9063
-9.7462 22.4528 -2.3499 0.9063
-11.3267 21.6948 -2.3496 0.9063
-12.8489 20.8260 -2.3493 0.9063
-15.6874 18.7742 -2.3488 0.9064
-7.8634 8.7535 -1.1297 0.9538
-17.6081 16.9815 -2.3485 0.9064
-18.2042 16.3394 -2.3484 0.9064
-19.3257 14.9937 -2.3483 0.9064
-19.8497 14.2917 -2.3482 0.9064
-20.8207 12.8337 -2.3481 0.9064
-21.2665 12.0798 -2.3481 0.9064
-21.6851 11.3103 -2.3480 0.9064
-22.0761 10.5265 -2.3480 0.9064
-22.4393 9.7294 -2.3481 0.9064
-22.7737 8.9198 -2.3481 0.9064
-23.0711 8.0960 -2.3474 0.9064
-23.5448 6.4113 -2.3427 0.9066
-25.4945 5.0149 -2.4945 0.9009
-25.7872 3.1773 -2.4944 0.9009
-25.9480 1.3235 -2.4944 0.9009
-25.9786 0.3934 -2.4944 0.9009
-25.9761 -0.5371 -2.4944 0.9009
-25.9403 -1.4669 -2.4944 0.9009
-25.7693 -3.3198 -2.4944 0.9009
-25.6343 -4.2405 -2.4945 0.9009
-25.2661 -6.0645 -2.4946 0.9009
-25.0334 -6.9656 -2.4946 0.9009
-24.1445 -9.6110 -2.4949 0.9008
-22.3368 -9.8320 -2.3430 0.9066
-21.2507 -12.2267 -2.3538 0.9062
-18.2380 -11.3815 -2.0639 0.9172
-20.3127 -13.7106 -2.3528 0.9062
-19.8305 -14.4450 -2.3554 0.9061
-18.9143 -15.9695 -2.3765 0.9053
-17.4292 -18.2585 -2.4233 0.9035
-15.6741 -20.4177 -2.4712 0.9017
-12.1093 -23.5097 -2.5389 0.8992
-11.3100 -24.0351 -2.5502 0.8988
-10.4850 -24.5253 -2.5607 0.8984
-9.6364 -24.9790 -2.5704 0.8980
-8.7656 -25.3944 -2.5791 0.8977
-7.8745 -25.7702 -2.5870 0.8974
-6.9652 -26.1050 -2.5939 0.8971
-6.0397 -26.3979 -2.5998 0.8969
-5.1002 -26.6477 -2.6048 0.8967
-2.2204 -27.1310 -2.6134 0.8964
-1.2478 -27.2016 -2.6142 0.8964
1.5399 -11.4886 -1.1128 0.9545
4.5519 -26.6683 -2.5973 0.8970
6.4149 -26.1357 -2.5836 0.8975
7.3232 -25.8064 -2.5754 0.8978
8.2164 -25.4464 -2.5672 0.8981
9.9460 -24.6186 -2.5491 0.8988
10.7779 -24.1496 -2.5389 0.8992
-4.5218 19.2726 -2.3515 0.9234
-5.2086 19.0970 -2.3513 0.9234
-5.8887 18.8970 -2.3512 0.9234
-6.5612 18.6728 -2.3510 0.9234
-7.8798 18.1531 -2.3507 0.9234
-9.1579 17.5407 -2.3505 0.9234
-9.7796 17.2006 -2.3503 0.9234
-10.3888 16.8386 -2.3502 0.9234
-11.5663 16.0505 -2.3500 0.9234
-12.6846 15.1805 -2.3499 0.9234
-7.8627 8.7527 -1.3976 0.9537
-14.7206 13.2126 -2.3496 0.9234
-15.1840 12.6769 -2.3496 0.9234
-15.6280 12.1249 -2.3496 0.9234
-16.0520 11.5573 -2.3496 0.9234
-16.4555 10.9751 -2.3495 0.9234
-17.5377 9.1471 -2.3496 0.9234
-17.8541 8.5133 -2.3496 0.9234
-18.1363 7.8637 -2.3481 0.9235
-18.3919 7.2036 -2.3463 0.9235
-18.6234 6.5352 -2.3445 0.9236
-19.9103 6.1955 -2.4769 0.9194
-20.4585 4.7911 -2.4959 0.9188
-20.6166 4.0554 -2.4959 0.9188
-20.7483 3.3145 -2.4958 0.9188
-19.5243 -7.7719 -2.4962 0.9188
-19.2341 -8.4663 -2.4963 0.9188
-18.3454 -9.6978 -2.4649 0.9198
-17.1076 -9.8429 -2.3445 0.9236
-16.7557 -10.4564 -2.3461 0.9235
-15.9875 -11.6456 -2.3495 0.9234
-15.6243 -12.2609 -2.3592 0.9231
-15.1885 -12.8238 -2.3612 0.9231
-14.2232 -13.8697 -2.3598 0.9231
-13.7374 -14.3910 -2.3633 0.9230
-12.2103 -15.9055 -2.3819 0.9224
-11.6699 -16.3845 -2.3895 0.9222
-11.1095 -16.8430 -2.3967 0.9219
-10.5313 -17.2827 -2.4041 0.9217
-9.9381 -17.7067 -2.4120 0.9215
-8.0518 -18.8337 -2.4331 0.9208
-7.3908 -19.1581 -2.4392 0.9206
-6.0279 -19.7271 -2.4503 0.9203
-5.3284 -19.9706 -2.4552 0.9201
-4.6180 -20.1839 -2.4595 0.9200
-3.1701 -20.5179 -2.4662 0.9198
-2.4356 -20.6376 -2.4685 0.9197
2.0238 -20.7072 -2.4714 0.9196
1.5397 -11.4874 -1.3767 0.9544
6.3525 -19.6738 -2.4558 0.9201
7.0437 -19.4084 -2.4526 0.9202
-3.7921 16.1625 -2.3522 0.9351
-4.3681 16.0154 -2.3521 0.9351
-6.6086 15.2245 -2.3516 0.9351
-7.1492 14.9773 -2.3515 0.9352
-9.2128 13.8009 -2.3511 0.9352
-9.7008 13.4617 -2.3510 0.9352
-10.1763 13.1053 -2.3510 0.9352
-10.6388 12.7322 -2.3509 0.9352
-7.8042 8.6877 -1.6547 0.9539
-11.5222 11.9375 -2.3508 0.9352
-11.9420 11.5170 -2.3507 0.9352
-12.3466 11.0819 -2.3507 0.9352
-13.1077 10.1695 -2.3506 0.9352
-13.4634 9.6936 -2.3506 0.9352
-14.1226 8.7051 -2.3506 0.9352
-14.6967 7.6654 -2.3486 0.9352
-15.1881 6.5853 -2.3456 0.9353
-16.6291 5.8354 -2.4970 0.9313
-16.8268 5.2361 -2.4970 0.9313
-17.1579 4.0182 -2.4969 0.9313
-17.2906 3.4011 -2.4968 0.9313
-17.4010 2.7798 -2.4968 0.9313
-17.4892 2.1549 -2.4968 0.9313
-17.5984 0.8976 -2.4967 0.9313
-17.6192 0.2668 -2.4967 0.9313
-17.6175 -0.3642 -2.4967 0.9313
-17.2715 -3.4967 -2.4968 0.9313
-16.9775 -4.7240 -2.4969 0.9313
-16.5966 -5.9273 -2.4970 0.9313
-16.1307 -7.1003 -2.4972 0.9313
-15.2780 -8.7901 -2.4974 0.9313
-14.9537 -9.3318 -2.4975 0.9313
-14.3702 -9.6995 -2.4565 0.9324
-12.6614 -10.6901 -2.3479 0.9352
-12.2773 -11.1429 -2.3492 0.9352
-11.0822 -12.4806 -2.3654 0.9348
-10.1698 -13.2475 -2.3663 0.9348
-9.1935 -13.9383 -2.3658 0.9348
-8.6967 -14.2720 -2.3681 0.9347
-7.6818 -14.9139 -2.3770 0.9345
-4.9362 -16.1544 -2.3934 0.9340
-4.3595 -16.3391 -2.3961 0.9340
-3.1866 -16.6493 -2.4018 0.9338
-1.3862 -16.9374 -2.4079 0.9336
-0.7792 -16.9855 -2.4092 0.9336
-0.1706 -17.0092 -2.4102 0.9336
0.4387 -17.0087 -2.4108 0.9336
1.0476 -16.9838 -2.4110 0.9336
1.6551 -16.9346 -2.4109 0.9336
1.5298 -11.4138 -1.6317 0.9545
2.8624 -16.7698 -2.4105 0.9336
3.4606 -16.6541 -2.4101 0.9336
4.0537 -16.5155 -2.4095 0.9336
4.6409 -16.3542 -2.4087 0.9336
5.7938 -15.9645 -2.4064 0.9337
6.3578 -15.7367 -2.4048 0.9337
-3.7579 13.7779 -2.3527 0.9437
-5.2130 13.2936 -2.3523 0.9438
-5.6855 13.0978 -2.3522 0.9438
-7.4962 12.1501 -2.3519 0.9438
-7.9262 11.8735 -2.3518 0.9438
-8.3460 11.5817 -2.3517 0.9438
-8.7551 11.2751 -2.3517 0.9438
-9.1531 10.9541 -2.3516 0.9438
-7.7610 8.6395 -1.9132 0.9540
-10.2744 9.9088 -2.3515 0.9438
-10.9570 9.1478 -2.3514 0.9438
-11.5828 8.3396 -2.3513 0.9438
-12.3908 7.0382 -2.3476 0.9439
-12.6280 6.5864 -2.3463 0.9439
-13.0324 6.2142 -2.3785 0.9431
-14.9705 2.3915 -2.4975 0.9404
-15.1030 1.3139 -2.4975 0.9404
-15.0955 -1.3974 -2.4975 0.9404
-15.0359 -1.9370 -2.4975 0.9404
-14.4514 -4.5846 -2.4976 0.9404
-14.0868 -5.6074 -2.4977 0.9404
-13.6500 -6.6016 -2.4979 0.9404
-12.8645 -8.0281 -2.4981 0.9404
-12.5692 -8.4838 -2.4982 0.9404
-12.2578 -8.9288 -2.4983 0.9404
-10.1983 -9.9447 -2.3466 0.9439
-9.8401 -10.3083 -2.3477 0.9439
-9.4689 -10.6587 -2.3487 0.9438
-9.0850 -10.9957 -2.3497 0.9438
-8.6890 -11.3186 -2.3507 0.9438
-7.8657 -11.9252 -2.3534 0.9437
-7.0358 -12.5355 -2.3681 0.9434
-6.5907 -12.7950 -2.3710 0.9433
-6.1297 -13.0272 -2.3718 0.9433
-4.6983 -13.6112 -2.3721 0.9433
-3.7128 -13.9152 -2.3726 0.9433
-3.2125 -14.0410 -2.3729 0.9433
-2.7091 -14.1544 -2.3741 0.9433
-1.6921 -14.3383 -2.3785 0.9432
-0.1450 -14.4618 -2.3826 0.9431
0.3730 -14.4620 -2.3832 0.9430
0.8907 -14.4415 -2.3836 0.9430
1.4073 -14.4004 -2.3836 0.9430
2.9412 -14.1547 -2.3817 0.9431
3.4453 -14.0367 -2.3810 0.9431
3.9473 -13.9098 -2.3820 0.9431
4.4446 -13.7651 -2.3829 0.9430
5.4230 -13.4232 -2.3850 0.9430
5.9018 -13.2239 -2.3856 0.9430
-2.8597 12.1887 -2.3532 0.9503
-3.2942 12.0779 -2.3531 0.9503
-3.7244 11.9517 -2.3530 0.9503
-4.9841 11.4820 -2.3527 0.9503
-6.1861 10.8802 -2.3525 0.9503
-7.6753 9.8845 -2.3522 0.9503
-8.6906 9.0038 -2.3521 0.9503
-9.0073 8.6867 -2.3521 0.9503
-9.6014 8.0161 -2.3510 0.9504
-9.8780 7.6638 -2.3499 0.9504
-10.1416 7.3020 -2.3489 0.9504
-10.6285 6.5514 -2.3468 0.9505
-11.7854 6.1469 -2.4984 0.9473
-12.5412 4.4009 -2.4982 0.9473
-12.8236 3.4919 -2.4981 0.9473
-13.1237 2.0965 -2.4980 0.9473
-13.1903 1.6252 -2.4980 0.9473
-13.2870 -0.2747 -2.4980 0.9473
-13.2687 -0.7503 -2.4980 0.9473
-13.1811 -1.6980 -2.4980 0.9473
-13.0260 -2.6372 -2.4980 0.9473
-12.9233 -3.1020 -2.4981 0.9473
-12.6686 -4.0190 -2.4981 0.9473
-12.3489 -4.9156 -2.4982 0.9473
-11.0183 -7.4371 -2.4986 0.9473
-10.4584 -8.2071 -2.4988 0.9473
-10.1581 -8.5766 -2.4989 0.9473
-9.5189 -9.2823 -2.4990 0.9473
-8.6197 -9.7029 -2.4395 0.9485
-8.0277 -9.7160 -2.3689 0.9500
-6.8806 -10.4317 -2.3489 0.9504
-6.5047 -10.6748 -2.3496 0.9504
-5.7275 -11.1196 -2.3510 0.9504
-4.9196 -11.5072 -2.3523 0.9503
-4.5055 -11.6788 -2.3529 0.9503
-4.0853 -11.8354 -2.3534 0.9503
-3.6631 -11.9878 -2.3561 0.9503
-2.3656 -12.3596 -2.3653 0.9501
-1.9233 -12.4481 -2.3675 0.9500
-1.4774 -12.5185 -2.3693 0.9500
-0.1265 -12.6195 -2.3721 0.9499
1.5207 -11.3454 -2.1516 0.9545
2.1196 -12.4186 -2.3680 0.9500
2.5607 -12.3236 -2.3658 0.9501
2.9971 -12.2108 -2.3633 0.9501
4.2754 -11.7807 -2.3556 0.9503
4.6939 -11.6185 -2.3553 0.9503
-3.6906 10.5033 -2.3533 0.9555
-4.0642 10.3641 -2.3532 0.9555
-4.7953 10.0460 -2.3530 0.9555
-5.1518 9.8675 -2.3530 0.9555
-5.5016 9.6764 -2.3529 0.9555
-5.8445 9.4730 -2.3528 0.9555
-6.5072 9.0300 -2.3527 0.9555
-7.1365 8.5408 -2.3526 0.9555
-8.0045 7.7196 -2.3506 0.9556
-8.7763 6.8090 -2.3480 0.9556
-9.0109 6.4878 -2.3471 0.9556
-9.3205 6.2164 -2.3682 0.9552
-10.0469 6.1929 -2.4947 0.9529
-10.2790 5.8387 -2.4988 0.9528
-10.6701 5.0878 -2.4987 0.9528
-11.1535 3.9140 -2.4986 0.9528
-11.2863 3.5120 -2.4985 0.9528
-11.4047 3.1055 -2.4985 0.9528
-11.5085 2.6952 -2.4985 0.9528
-11.5975 2.2813 -2.4985 0.9528
-11.6716 1.8645 -2.4984 0.9528
-11.7308 1.4454 -2.4984 0.9528
-11.7750 1.0244 -2.4984 0.9528
-11.8181 0.1790 -2.4984 0.9528
-11.8169 -0.2443 -2.4984 0.9528
-11.8006 -0.6673 -2.4984 0.9528
-11.7692 -1.0894 -2.4984 0.9528
-11.5847 -2.3454 -2.4985 0.9528
-11.4934 -2.7587 -2.4985 0.9528
-11.3874 -3.1685 -2.4985 0.9528
-11.2668 -3.5743 -2.4985 0.9528
-10.4509 -5.5246 -2.4988 0.9528
-9.7989 -6.6140 -2.4990 0.9528
-9.5560 -6.9608 -2.4990 0.9528
-8.7552 -7.9462 -2.4993 0.9528
-8.4653 -8.2549 -2.4993 0.9528
-7.8534 -8.8402 -2.4995 0.9528
-7.5320 -9.1161 -2.4996 0.9528
-7.2010 -9.3803 -2.4997 0.9528
-6.3979 -9.6999 -2.4562 0.9536
-5.4574 -9.7233 -2.3569 0.9554
-5.0904 -9.8828 -2.3499 0.9556
-4.7304 -10.0527 -2.3485 0.9556
-4.0006 -10.3701 -2.3495 0.9556
-3.6274 -10.5089 -2.3500 0.9556
-3.2494 -10.6340 -2.3504 0.9556
-2.4808 -10.8429 -2.3512 0.9555
-2.0912 -10.9263 -2.3515 0.9555
-1.3042 -11.0506 -2.3521 0.9555
-0.5100 -11.1175 -2.3525 0.9555
0.2870 -11.1267 -2.3527 0.9555
1.0827 -11.0781 -2.3528 0.9555
1.4787 -11.0321 -2.3528 0.9555
2.2644 -10.8974 -2.3527 0.9555
2.6530 -10.8088 -2.3526 0.9555
3.4192 -10.5895 -2.3522 0.9555
4.1675 -10.3153 -2.3517 0.9555
4.5336 -10.1581 -2.3514 0.9555
-2.2876 9.7504 -2.3538 0.9597
-3.3198 9.4479 -2.3536 0.9597
-3.6558 9.3227 -2.3535 0.9597
-4.3134 9.0366 -2.3533 0.9597
-4.6341 8.8761 -2.3533 0.9597
-5.5585 8.3267 -2.3529 0.9597
-6.1368 7.9032 -2.3517 0.9597
-6.6828 7.4393 -2.3503 0.9597
-7.1935 6.9375 -2.3488 0.9598
-8.8468 5.9005 -2.4992 0.9572
-9.0523 5.5798 -2.4992 0.9572
-9.2461 5.2519 -2.4991 0.9572
-10.2587 2.7935 -2.4988 0.9573
-10.3521 2.4243 -2.4988 0.9573
-10.6180 0.5416 -2.4987 0.9573
-10.6306 0.1610 -2.4987 0.9573
-10.5448 -1.3585 -2.4988 0.9573
-10.4894 -1.7352 -2.4988 0.9573
-10.4207 -2.1097 -2.4988 0.9573
-10.1347 -3.2152 -2.4989 0.9573
-10.0132 -3.5761 -2.4989 0.9573
-9.5724 -4.6295 -2.4990 0.9572
-8.5956 -6.2612 -2.4993 0.9572
-6.4772 -8.4374 -2.4999 0.9572
-6.1711 -8.6642 -2.5000 0.9572
-5.8571 -8.8799 -2.5001 0.9572
-5.5356 -9.0843 -2.5002 0.9572
-5.2069 -9.2771 -2.5003 0.9572
-4.1452 -9.6958 -2.4783 0.9576
-2.9679 -9.7128 -2.3869 0.9591
-2.5927 -9.7171 -2.3636 0.9595
-1.1715 -9.9264 -2.3491 0.9598
-0.8154 -9.9628 -2.3493 0.9598
-0.4581 -9.9863 -2.3495 0.9598
-0.1002 -9.9969 -2.3496 0.9598
0.6156 -9.9791 -2.3498 0.9598
1.6822 -9.8557 -2.3498 0.9597
2.0342 -9.7896 -2.3499 0.9597
3.1356 -9.7109 -2.3983 0.9589
3.5224 -9.7057 -2.4266 0.9585
3.9188 -9.6998 -2.4587 0.9579
-2.7047 8.6795 -2.3539 0.9631
-3.3188 8.4632 -2.3537 0.9631
-3.6194 8.3382 -2.3535 0.9631
-4.2053 8.0546 -2.3526 0.9632
-4.4900 7.8972 -2.3521 0.9632
-4.7689 7.7296 -2.3516 0.9632
-6.0617 6.7479 -2.3486 0.9632
-6.2977 6.5248 -2.3479 0.9632
-6.9181 6.2094 -2.4069 0.9623
-7.8343 5.6407 -2.4995 0.9609
-8.2176 5.0653 -2.4994 0.9609
-8.8560 3.8399 -2.4992 0.9609
-9.2163 2.8679 -2.4991 0.9609
-9.3130 2.5359 -2.4991 0.9609
-9.3977 2.2008 -2.4991 0.9609
-9.5794 1.1803 -2.4990 0.9609
-9.6155 0.8365 -2.4990 0.9609
-9.6392 0.4917 -2.4990 0.9609
-9.6506 0.1462 -2.4990 0.9609
-9.6363 -0.5449 -2.4990 0.9609
-9.5727 -1.2332 -2.4990 0.9609
-9.5224 -1.5752 -2.4990 0.9609
-9.4600 -1.9152 -2.4991 0.9609
-9.2989 -2.5874 -2.4991 0.9609
-8.8346 -3.8887 -2.4992 0.9609
-8.6899 -4.2027 -2.4993 0.9609
-8.3671 -4.8140 -2.4994 0.9609
-8.1895 -5.1107 -2.4994 0.9609
-6.9123 -6.7404 -2.4998 0.9609
-6.4125 -7.2183 -2.4999 0.9609
-6.1501 -7.4435 -2.5000 0.9609
-5.8798 -7.6592 -2.5001 0.9609
-5.6019 -7.8651 -2.5002 0.9609
-4.4222 -8.5855 -2.5005 0.9609
-4.1121 -8.7386 -2.5006 0.9609
-2.4902 -9.3331 -2.5010 0.9609
-2.1545 -9.4166 -2.5011 0.9609
-0.7880 -9.6293 -2.5015 0.9609
-0.4428 -9.6517 -2.5016 0.9609
-0.0969 -9.6617 -2.5017 0.9609
0.2492 -9.6594 -2.5018 0.9609
0.9400 -9.6175 -2.5020 0.9609
1.2838 -9.5781 -2.5021 0.9609
1.6260 -9.5263 -2.5022 0.9609
2.3038 -9.3862 -2.5024 0.9609
2.6386 -9.2981 -2.5025 0.9609
2.9699 -9.1980 -2.5026 0.9608
3.6209 -8.9625 -2.5028 0.9608
3.9397 -8.8274 -2.5029 0.9608
-2.4726 7.9347 -2.3528 0.9660
-2.7548 7.8399 -2.3524 0.9660
-3.0333 7.7350 -2.3521 0.9660
-4.1036 7.2175 -2.3504 0.9661
-4.3586 7.0645 -2.3499 0.9661
-5.0876 6.5520 -2.3483 0.9661
-5.9873 6.2032 -2.4406 0.9648
-6.3564 6.1302 -2.4999 0.9640
-6.5717 5.8985 -2.4999 0.9640
-6.7785 5.6593 -2.4998 0.9640
-7.3459 4.8994 -2.4997 0.9640
-7.6774 4.3609 -2.4996 0.9640
-7.8285 4.0831 -2.4995 0.9640
-7.9696 3.8001 -2.4995 0.9640
-8.1004 3.5123 -2.4994 0.9640
-8.4300 2.6232 -2.4994 0.9640
-8.5960 2.0131 -2.4993 0.9640
-8.6625 1.7040 -2.4993 0.9640
-8.7179 1.3927 -2.4993 0.9640
-8.7951 0.7652 -2.4992 0.9640
-8.8265 -0.1825 -2.4992 0.9640
-8.7908 -0.8137 -2.4993 0.9640
-8.7560 -1.1280 -2.4993 0.9640
-8.7101 -1.4408 -2.4993 0.9640
-8.4154 -2.6697 -2.4994 0.9640
-8.2029 -3.2653 -2.4994 0.9640
-7.9484 -3.8441 -2.4995 0.9640
-7.8058 -4.1263 -2.4995 0.9640
-7.6532 -4.4033 -2.4996 0.9640
-7.1373 -5.1989 -2.4997 0.9640
-6.9467 -5.4513 -2.4998 0.9640
-6.7472 -5.6967 -2.4998 0.9640
-6.5390 -5.9348 -2.4999 0.9640
-6.3224 -6.1653 -2.5000 0.9640
-6.0978 -6.3879 -2.5000 0.9640
-5.8653 -6.6023 -2.5001 0.9640
-5.3780 -7.0055 -2.5002 0.9640
-4.5961 -7.5425 -2.5004 0.9639
-4.3232 -7.7025 -2.5005 0.9639
-3.4726 -8.1225 -2.5008 0.9639
-2.5817 -8.4489 -2.5010 0.9639
-1.6609 -8.6780 -2.5013 0.9639
0.2279 -8.8345 -2.5018 0.9639
0.5441 -8.8209 -2.5019 0.9639
2.1071 -8.5845 -2.5024 0.9639
2.7162 -8.4123 -2.5025 0.9639
3.6031 -8.0733 -2.5028 0.9639
-2.0116 7.3755 -2.3514 0.9685
-2.7899 7.1145 -2.3505 0.9685
-3.0424 7.0090 -2.3501 0.9685
-3.2909 6.8945 -2.3498 0.9685
-3.7746 6.6389 -2.3490 0.9685
-4.8202 6.2075 -2.4173 0.9676
-5.1767 6.1953 -2.4832 0.9668
-5.8507 5.6426 -2.5001 0.9666
-6.0489 5.4293 -2.5000 0.9666
-6.5958 4.7490 -2.4999 0.9666
-6.7615 4.5097 -2.4998 0.9666
-6.9186 4.2646 -2.4998 0.9666
-7.2058 3.7583 -2.4997 0.9666
-7.3357 3.4979 -2.4997 0.9666
-7.4561 3.2329 -2.4996 0.9666
-7.5670 2.9638 -2.4996 0.9666
-7.6682 2.6909 -2.4996 0.9666
-7.8409 2.1352 -2.4995 0.9666
-7.9123 1.8529 -2.4995 0.9666
-8.0245 1.2819 -2.4995 0.9666
-8.0956 0.7043 -2.4994 0.9666
-8.1156 0.4140 -2.4994 0.9666
-8.0596 -1.0383 -2.4995 0.9666
-7.9647 -1.6125 -2.4995 0.9666
-7.7461 -2.4574 -2.4995 0.9666
-7.5505 -3.0055 -2.4996 0.9666
-7.4381 -3.2740 -2.4996 0.9666
-7.3162 -3.5383 -2.4997 0.9666
-7.0444 -4.0530 -2.4997 0.9666
-6.8949 -4.3028 -2.4998 0.9666
-6.2104 -5.2435 -2.5000 0.9666
-5.8195 -5.6748 -2.5001 0.9666
-5.6126 -5.8797 -2.5002 0.9666
-5.3986 -6.0771 -2.5002 0.9666
-5.1777 -6.2666 -2.5003 0.9666
-4.9501 -6.4481 -2.5003 0.9666
-4.7162 -6.6214 -2.5004 0.9666
-4.2304 -6.9424 -2.5005 0.9665
-3.7229 -7.2278 -2.5007 0.9665
-3.4618 -7.3567 -2.5008 0.9665
-3.1962 -7.4762 -2.5008 0.9665
-2.6531 -7.6862 -2.5010 0.9665
-2.0963 -7.8569 -2.5012 0.9665
-0.9532 -8.0767 -2.5015 0.9665
-0.3727 -8.1248 -2.5016 0.9665
-0.0815 -8.1332 -2.5017 0.9665
0.7912 -8.0958 -2.5020 0.9665
1.0807 -8.0626 -2.5021 0.9665
1.3687 -8.0190 -2.5021 0.9665
1.9393 -7.9010 -2.5023 0.9665
2.2210 -7.8267 -2.5024 0.9665
2.7757 -7.6481 -2.5025 0.9665
3.3161 -7.4303 -2.5027 0.9665
-1.8603 6.8205 -2.3500 0.9706
-2.1031 6.7488 -2.3497 0.9706
-2.3431 6.6683 -2.3494 0.9706
-2.5800 6.5793 -2.3491 0.9707
-3.8291 6.2064 -2.4241 0.9697
-4.1366 6.1966 -2.4766 0.9691
-4.3979 6.1029 -2.5005 0.9688
-4.6135 5.9414 -2.5004 0.9688
-4.8232 5.7722 -2.5004 0.9688
-5.0267 5.5957 -2.5003 0.9688
-5.7736 4.8203 -2.5001 0.9688
-5.9424 4.6104 -2.5001 0.9688
-6.2569 4.1731 -2.5000 0.9688
-6.4022 3.9463 -2.4999 0.9688
-6.5393 3.7144 -2.4999 0.9688
-6.7882 3.2368 -2.4998 0.9688
-7.0023 2.7426 -2.4998 0.9688
-7.2558 1.9758 -2.4997 0.9688
-7.3218 1.7147 -2.4997 0.9688
-7.3785 1.4514 -2.4997 0.9688
-7.5100 0.3831 -2.4996 0.9688
-7.5182 -0.1554 -2.4996 0.9688
-7.5078 -0.4245 -2.4996 0.9688
-7.4582 -0.9608 -2.4996 0.9688
-7.3704 -1.4921 -2.4997 0.9688
-7.3122 -1.7551 -2.4997 0.9688
-7.1680 -2.2740 -2.4997 0.9688
-7.0820 -2.5292 -2.4997 0.9688
-6.9870 -2.7813 -2.4998 0.9688
-6.8830 -3.0297 -2.4998 0.9688
-6.7702 -3.2743 -2.4998 0.9688
-6.6487 -3.5146 -2.4999 0.9688
-6.0792 -4.4282 -2.5000 0.9688
-5.7469 -4.8521 -2.5001 0.9688
-5.5695 -5.0549 -2.5002 0.9688
-5.1937 -5.4408 -2.5003 0.9688
-4.7912 -5.7988 -2.5004 0.9688
-4.5806 -5.9668 -2.5004 0.9688
-4.1420 -6.2796 -2.5006 0.9688
-3.6821 -6.5603 -2.5007 0.9688
-3.4449 -6.6881 -2.5008 0.9688
-3.2033 -6.8074 -2.5008 0.9688
-2.9576 -6.9180 -2.5009 0.9688
-2.4550 -7.1123 -2.5011 0.9688
-1.9398 -7.2702 -2.5012 0.9688
-1.4146 -7.3908 -2.5013 0.9688
-0.8820 -7.4736 -2.5015 0.9688
-0.6138 -7.5006 -2.5016 0.9688
-0.0754 -7.5257 -2.5017 0.9688
0.1941 -7.5238 -2.5018 0.9688
0.4634 -7.5123 -2.5019 0.9688
1.2665 -7.4199 -2.5021 0.9688
1.5314 -7.3701 -2.5022 0.9688
1.7944 -7.3107 -2.5023 0.9688
2.3132 -7.1640 -2.5024 0.9688
3.0684 -6.8752 -2.5026 0.9688
-2.6945 6.2072 -2.4198 0.9717
-2.9596 6.2004 -2.4569 0.9712
-3.2332 6.1927 -2.4982 0.9708
-3.6718 5.9514 -2.5007 0.9707
-3.8824 5.8159 -2.5006 0.9707
-4.4834 5.3657 -2.5005 0.9707
-4.6726 5.2016 -2.5004 0.9707
-4.8558 5.0308 -2.5004 0.9707
-5.6737 4.0850 -2.5001 0.9707
-5.9513 3.6684 -2.5001 0.9707
-6.3101 3.0089 -2.5000 0.9707
-6.4138 2.7810 -2.4999 0.9707
-6.5092 2.5495 -2.4999 0.9707
-6.9378 0.8548 -2.4998 0.9707
-6.9640 0.6058 -2.4998 0.9707
-6.9888 -0.1445 -2.4998 0.9707
-6.9791 -0.3947 -2.4998 0.9707
-6.8966 -1.1408 -2.4998 0.9707
-6.7973 -1.6315 -2.4998 0.9707
-6.7346 -1.8739 -2.4998 0.9707
-6.6632 -2.1139 -2.4999 0.9707
-6.2934 -3.0437 -2.5000 0.9707
-5.5001 -4.3161 -2.5002 0.9707
-5.3421 -4.5104 -2.5002 0.9707
-5.0058 -4.8814 -2.5003 0.9707
-4.6438 -5.2273 -2.5004 0.9707
-3.2022 -6.2170 -2.5008 0.9707
-2.2820 -6.6112 -2.5011 0.9707
-1.5600 -6.8184 -2.5013 0.9707
-0.8198 -6.9469 -2.5015 0.9707
-0.5706 -6.9720 -2.5016 0.9707
-0.0701 -6.9954 -2.5017 0.9707
0.4307 -6.9828 -2.5019 0.9707
1.6679 -6.7954 -2.5022 0.9707
1.9102 -6.7315 -2.5023 0.9707
2.8521 -6.3905 -2.5026 0.9707
-1.6908 6.1994 -2.4625 0.9728
-1.9305 6.1949 -2.4866 0.9726
-2.5987 5.9867 -2.5010 0.9724
-3.2255 5.6731 -2.5008 0.9724
-4.0020 5.1539 -2.5006 0.9724
-4.1839 5.0072 -2.5006 0.9724
-4.5314 4.6948 -2.5005 0.9724
-4.6965 4.5294 -2.5004 0.9724
-4.8556 4.3583 -2.5004 0.9724
-5.0085 4.1815 -2.5003 0.9724
-5.1549 3.9994 -2.5003 0.9724
-5.7845 3.0170 -2.5001 0.9724
-5.8887 2.8079 -2.5001 0.9724
-5.9854 2.5952 -2.5000 0.9724
-6.0744 2.3792 -2.5000 0.9724
-6.1557 2.1601 -2.5000 0.9724
-6.2944 1.7140 -2.5000 0.9724
-6.3517 1.4875 -2.4999 0.9724
-6.4745 0.7977 -2.4999 0.9724
-6.4989 0.5654 -2.4999 0.9724
-6.5220 -0.1348 -2.4999 0.9724
-6.5130 -0.3683 -2.4999 0.9724
-6.3434 -1.5226 -2.4999 0.9724
-6.2182 -1.9727 -2.5000 0.9724
-6.1437 -2.1941 -2.5000 0.9724
-6.0612 -2.4127 -2.5000 0.9724
-5.9710 -2.6283 -2.5001 0.9724
-5.8731 -2.8404 -2.5001 0.9724
-5.7677 -3.0489 -2.5001 0.9724
-5.6549 -3.2536 -2.5001 0.9724
-5.5348 -3.4540 -2.5002 0.9724
-5.2736 -3.8414 -2.5003 0.9724
-5.1327 -4.0278 -2.5003 0.9724
-4.9853 -4.2091 -2.5003 0.9724
-4.8315 -4.3850 -2.5004 0.9724
-4.5054 -4.7197 -2.5005 0.9724
-2.7787 -5.9051 -2.5010 0.9724
-2.3491 -6.0891 -2.5011 0.9724
-2.1296 -6.1695 -2.5011 0.9724
-1.6826 -6.3064 -2.5013 0.9724
-1.2270 -6.4110 -2.5014 0.9724
-0.9967 -6.4510 -2.5015 0.9724
-0.7651 -6.4827 -2.5015 0.9724
-0.5324 -6.5061 -2.5016 0.9724
-0.0654 -6.5279 -2.5017 0.9724
0.1684 -6.5262 -2.5018 0.9724
0.6351 -6.4978 -2.5019 0.9724
0.8673 -6.4710 -2.5020 0.9724
1.0985 -6.4360 -2.5021 0.9724
1.5565 -6.3412 -2.5022 0.9724
1.7826 -6.2815 -2.5023 0.9724
2.0064 -6.2138 -2.5023 0.9724
2.2277 -6.1382 -2.5024 0.9724
2.6614 -5.9633 -2.5025 0.9724
-1.8182 5.8347 -2.5012 0.9739
-2.0259 5.7657 -2.5012 0.9739
-3.0202 5.3120 -2.5009 0.9739
-3.2084 5.2003 -2.5008 0.9739
-3.5722 4.9572 -2.5007 0.9739
-3.7474 4.8260 -2.5007 0.9739
-3.9177 4.6886 -2.5006 0.9739
-4.0830 4.5452 -2.5006 0.9739
-4.3977 4.2412 -2.5005 0.9739
-4.5466 4.0809 -2.5005 0.9739
-4.6898 3.9154 -2.5004 0.9739
-4.9578 3.5696 -2.5003 0.9739
-5.0824 3.3898 -2.5003 0.9739
-5.4164 2.8250 -2.5002 0.9739
-5.6046 2.4301 -2.5002 0.9739
-5.6880 2.2278 -2.5001 0.9739
-5.7640 2.0227 -2.5001 0.9739
-5.8327 1.8150 -2.5001 0.9739
-5.8939 1.6050 -2.5001 0.9739
-5.9476 1.3929 -2.5001 0.9739
-6.0854 0.5294 -2.5000 0.9739
-6.0987 -0.3449 -2.5000 0.9739
-6.0824 -0.5630 -2.5000 0.9739
-6.0265 -0.9969 -2.5000 0.9739
-5.8849 -1.6375 -2.5001 0.9739
-5.4994 -2.6597 -2.5002 0.9739
-5.2951 -3.0465 -2.5002 0.9739
-5.1827 -3.2342 -2.5003 0.9739
-5.0636 -3.4178 -2.5003 0.9739
-4.3742 -4.2654 -2.5005 0.9739
-4.2187 -4.4194 -2.5006 0.9739
-3.8917 -4.7102 -2.5006 0.9739
-3.5448 -4.9768 -2.5007 0.9739
-1.9940 -5.7768 -2.5012 0.9739
-1.3631 -5.9577 -2.5014 0.9739
-1.1489 -6.0028 -2.5014 0.9739
-0.7164 -6.0700 -2.5015 0.9739
-0.4986 -6.0919 -2.5016 0.9739
-0.2801 -6.1060 -2.5017 0.9739
0.1576 -6.1107 -2.5018 0.9739
0.3764 -6.1013 -2.5019 0.9739
0.5946 -6.0840 -2.5019 0.9739
0.8121 -6.0590 -2.5020 0.9739
1.0286 -6.0262 -2.5020 0.9739
1.2437 -5.9856 -2.5021 0.9739
2.0858 -5.7473 -2.5023 0.9739
2.2903 -5.6690 -2.5024 0.9739
2.4919 -5.5835 -2.5025 0.9739
-1.3110 5.5878 -2.5014 0.9753
-1.5102 5.5371 -2.5013 0.9753
-1.7075 5.4794 -2.5013 0.9753
-2.0952 5.3429 -2.5012 0.9753
-2.2851 5.2644 -2.5011 0.9753
-2.8363 4.9886 -2.5009 0.9753
-3.0131 4.8837 -2.5009 0.9753
-3.5192 4.5322 -2.5007 0.9753
-3.8344 4.2685 -2.5007 0.9753
-3.9848 4.1284 -2.5006 0.9753
-4.1300 3.9830 -2.5006 0.9753
-4.2699 3.8325 -2.5005 0.9753
-4.4043 3.6771 -2.5005 0.9753
-4.7730 3.1834 -2.5004 0.9753
-4.8839 3.0104 -2.5004 0.9753
-5.0867 2.6531 -2.5003 0.9753
-5.4777 1.7045 -2.5002 0.9753
-5.5352 1.5073 -2.5002 0.9753
-5.6288 1.1072 -2.5001 0.9753
-5.6649 0.9050 -2.5001 0.9753
-5.6936 0.7015 -2.5001 0.9753
-5.7292 0.2922 -2.5001 0.9753
-5.7360 0.0869 -2.5001 0.9753
-5.7354 -0.1185 -2.5001 0.9753
-5.7275 -0.3238 -2.5001 0.9753
-5.6598 -0.9362 -2.5001 0.9753
-5.6226 -1.1383 -2.5002 0.9753
-5.5268 -1.5378 -2.5002 0.9753
-5.4026 -1.9295 -2.5002 0.9753
-5.2508 -2.3112 -2.5003 0.9753
-5.1647 -2.4978 -2.5003 0.9753
-5.0720 -2.6811 -2.5003 0.9753
-4.9728 -2.8611 -2.5003 0.9753
-4.8672 -3.0374 -2.5004 0.9753
-4.7554 -3.2097 -2.5004 0.9753
-4.5136 -3.5420 -2.5005 0.9753
-4.2486 -3.8560 -2.5005 0.9753
-4.1079 -4.0058 -2.5006 0.9753
-3.8108 -4.2896 -2.5007 0.9753
-3.6548 -4.4234 -2.5007 0.9753
-3.4941 -4.5516 -2.5008 0.9753
-3.3290 -4.6738 -2.5008 0.9753
-3.1595 -4.7901 -2.5009 0.9753
-2.9860 -4.9003 -2.5009 0.9753
-2.8087 -5.0042 -2.5010 0.9753
-2.6277 -5.1017 -2.5010 0.9753
-1.8726 -5.4250 -2.5012 0.9753
-1.4796 -5.5454 -2.5013 0.9753
-1.2801 -5.5949 -2.5014 0.9753
-0.8764 -5.6724 -2.5015 0.9753
-0.0575 -5.7400 -2.5017 0.9753
0.1481 -5.7385 -2.5018 0.9753
0.7627 -5.6900 -2.5020 0.9753
1.1680 -5.6210 -2.5021 0.9753
1.5674 -5.5233 -2.5022 0.9753
2.1508 -5.3237 -2.5024 0.9753
2.3401 -5.2434 -2.5024 0.9753
-1.9727 5.0305 -2.5012 0.9765
-2.1515 4.9566 -2.5011 0.9765
-2.3276 4.8762 -2.5011 0.9765
-2.5006 4.7897 -2.5010 0.9765
-2.6705 4.6970 -2.5010 0.9765
-3.6103 4.0190 -2.5007 0.9765
-3.7518 3.8871 -2.5007 0.9765
-3.8886 3.7502 -2.5006 0.9765
-4.1469 3.4622 -2.5006 0.9765
-4.3839 3.1564 -2.5005 0.9765
-4.7894 2.4980 -2.5004 0.9765
-4.8758 2.3249 -2.5004 0.9765
-5.0296 1.9700 -2.5003 0.9765
-5.0968 1.7886 -2.5003 0.9765
-5.3338 0.8521 -2.5002 0.9765
-5.3609 0.6605 -2.5002 0.9765
-5.3811 0.4681 -2.5002 0.9765
-5.3944 0.2751 -2.5002 0.9765
-5.3928 -0.3049 -2.5002 0.9765
-5.3571 -0.6901 -2.5002 0.9765
-5.3290 -0.8815 -2.5002 0.9765
-5.2038 -1.4479 -2.5003 0.9765
-5.1486 -1.6334 -2.5003 0.9765
-5.0869 -1.8167 -2.5003 0.9765
-4.9439 -2.1761 -2.5003 0.9765
-4.7756 -2.5244 -2.5004 0.9765
-4.6822 -2.6939 -2.5004 0.9765
-4.5827 -2.8598 -2.5004 0.9765
-4.3664 -3.1806 -2.5005 0.9765
-3.7303 -3.9077 -2.5007 0.9765
-3.1344 -4.4006 -2.5009 0.9765
-2.9748 -4.5101 -2.5009 0.9765
-2.8115 -4.6138 -2.5010 0.9765
-2.4741 -4.8034 -2.5010 0.9765
-2.3006 -4.8890 -2.5011 0.9765
-1.9448 -5.0413 -2.5012 0.9765
-1.3931 -5.2211 -2.5014 0.9765
-0.4408 -5.3864 -2.5016 0.9765
-0.2477 -5.3988 -2.5017 0.9765
0.1394 -5.4029 -2.5018 0.9765
0.3328 -5.3946 -2.5018 0.9765
0.5258 -5.3793 -2.5019 0.9765
0.7181 -5.3572 -2.5020 0.9765
0.9094 -5.3282 -2.5020 0.9765
1.0997 -5.2923 -2.5021 0.9765
1.2885 -5.2496 -2.5021 0.9765
1.8442 -5.0815 -2.5023 0.9765
2.0250 -5.0123 -2.5023 0.9765
-1.5171 4.8684 -2.5013 0.9775
-1.6904 4.8109 -2.5013 0.9775
-2.0303 4.6773 -2.5012 0.9775
-2.5201 4.4324 -2.5010 0.9775
-2.8307 4.2405 -2.5009 0.9775
-2.9807 4.1363 -2.5009 0.9775
-3.2690 3.9123 -2.5008 0.9775
-3.4070 3.7927 -2.5008 0.9775
-3.9133 3.2672 -2.5006 0.9775
-4.2410 2.8286 -2.5005 0.9775
-4.4325 2.5177 -2.5005 0.9775
-4.6768 2.0278 -2.5004 0.9775
-4.8671 1.5145 -2.5004 0.9775
-4.9182 1.3393 -2.5004 0.9775
-5.0014 0.9838 -2.5003 0.9775
-5.0590 0.6233 -2.5003 0.9775
-5.0961 -0.1054 -2.5003 0.9775
-5.0755 -0.4698 -2.5003 0.9775
-5.0555 -0.6512 -2.5003 0.9775
-5.0289 -0.8319 -2.5003 0.9775
-4.9959 -1.0114 -2.5003 0.9775
-4.9565 -1.1897 -2.5003 0.9775
-4.9108 -1.3664 -2.5004 0.9775
-4.6655 -2.0536 -2.5004 0.9775
-4.5890 -2.2194 -2.5004 0.9775
-4.5066 -2.3823 -2.5005 0.9775
-4.2253 -2.8519 -2.5005 0.9775
-4.1205 -3.0015 -2.5006 0.9775
-4.0104 -3.1471 -2.5006 0.9775
-3.8952 -3.2887 -2.5006 0.9775
-3.7750 -3.4262 -2.5007 0.9775
-3.6499 -3.5592 -2.5007 0.9775
-3.5202 -3.6877 -2.5007 0.9775
-3.3859 -3.8114 -2.5008 0.9775
-3.2473 -3.9303 -2.5008 0.9775
-3.1046 -4.0441 -2.5009 0.9775
-2.8073 -4.2561 -2.5010 0.9775
-2.1710 -4.6136 -2.5011 0.9775
-1.8353 -4.7574 -2.5012 0.9775
-1.1373 -4.9710 -2.5014 0.9775
-0.9586 -5.0087 -2.5015 0.9775
-0.7787 -5.0399 -2.5015 0.9775
-0.5977 -5.0646 -2.5016 0.9775
-0.4160 -5.0829 -2.5016 0.9775
-0.2337 -5.0947 -2.5017 0.9775
-0.0511 -5.0999 -2.5017 0.9775
0.1315 -5.0985 -2.5018 0.9775
0.3140 -5.0906 -2.5018 0.9775
0.4961 -5.0762 -2.5019 0.9775
0.6776 -5.0553 -2.5019 0.9775
1.0377 -4.9941 -2.5020 0.9775
1.3925 -4.9072 -2.5021 0.9775
1.5674 -4.8543 -2.5022 0.9775
1.7403 -4.7951 -2.5022 0.9775
1.9109 -4.7298 -2.5023 0.9775
2.0791 -4.6585 -2.5023 0.9775
-1.2687 4.6518 -2.5014 0.9785
-1.4345 4.6033 -2.5013 0.9785
-1.5984 4.5489 -2.5013 0.9785
-1.7602 4.4886 -2.5012 0.9785
-2.3829 4.1911 -2.5011 0.9785
-2.5314 4.1030 -2.5010 0.9785
-2.6766 4.0096 -2.5010 0.9785
-2.8184 3.9112 -2.5009 0.9785
-3.3478 3.4684 -2.5008 0.9785
-3.5873 3.2199 -2.5007 0.9785
-4.1033 2.5292 -2.5006 0.9785
-4.1911 2.3807 -2.5006 0.9785
-4.2737 2.2291 -2.5005 0.9785
-4.3507 2.0746 -2.5005 0.9785
-4.4222 1.9174 -2.5005 0.9785
-4.4880 1.7578 -2.5005 0.9785
-4.7594 0.7603 -2.5004 0.9785
-4.8016 0.4177 -2.5004 0.9785
-4.7992 -0.4443 -2.5004 0.9785
-4.7240 -0.9564 -2.5004 0.9785
-4.6867 -1.1249 -2.5004 0.9785
-4.5942 -1.4575 -2.5004 0.9785
-4.1779 -2.4037 -2.5006 0.9785
-3.9953 -2.6967 -2.5006 0.9785
-3.8962 -2.8380 -2.5006 0.9785
-3.5695 -3.2396 -2.5007 0.9785
-3.0705 -3.7163 -2.5009 0.9785
-2.9355 -3.8239 -2.5009 0.9785
-2.7968 -3.9266 -2.5010 0.9785
-2.2076 -4.2860 -2.5011 0.9785
-1.5732 -4.5576 -2.5013 0.9785
-1.0754 -4.7003 -2.5014 0.9785
0.2969 -4.8134 -2.5018 0.9785
0.4691 -4.7998 -2.5019 0.9785
0.8115 -4.7540 -2.5020 0.9785
1.1497 -4.6840 -2.5021 0.9785
1.6455 -4.5339 -2.5022 0.9785
1.8068 -4.4722 -2.5023 0.9785
-1.0432 4.4464 -2.5015 0.9794
-1.2018 4.4061 -2.5014 0.9794
-1.3587 4.3602 -2.5014 0.9794
-1.5140 4.3087 -2.5013 0.9794
-1.8184 4.1892 -2.5012 0.9794
-1.9672 4.1213 -2.5012 0.9794
-3.3980 3.0499 -2.5008 0.9794
-3.5049 2.9262 -2.5008 0.9794
-3.6074 2.7988 -2.5007 0.9794
-3.7984 2.5334 -2.5007 0.9794
-4.1887 1.8162 -2.5006 0.9794
-4.2510 1.6650 -2.5005 0.9794
-4.3593 1.3565 -2.5005 0.9794
-4.4050 1.1996 -2.5005 0.9794
-4.4451 1.0410 -2.5005 0.9794
-4.5082 0.7202 -2.5005 0.9794
-4.5311 0.5583 -2.5005 0.9794
-4.5482 0.3957 -2.5005 0.9794
-4.5594 0.2325 -2.5005 0.9794
-4.5648 0.0691 -2.5005 0.9794
-4.5459 -0.4208 -2.5005 0.9794
-4.5279 -0.5833 -2.5005 0.9794
-4.3983 -1.2238 -2.5005 0.9794
-4.3517 -1.3805 -2.5005 0.9794
-4.0363 -2.1337 -2.5006 0.9794
-3.8733 -2.4171 -2.5006 0.9794
-3.5919 -2.8187 -2.5007 0.9794
-3.4887 -2.9455 -2.5008 0.9794
-3.3810 -3.0686 -2.5008 0.9794
-3.2690 -3.1878 -2.5008 0.9794
-2.7806 -3.6220 -2.5010 0.9794
-2.6491 -3.7194 -2.5010 0.9794
-2.3762 -3.8995 -2.5011 0.9794
-2.2351 -3.9821 -2.5011 0.9794
-2.0911 -4.0597 -2.5012 0.9794
-1.9444 -4.1320 -2.5012 0.9794
-1.6437 -4.2608 -2.5013 0.9794
-1.4901 -4.3170 -2.5013 0.9794
-1.1774 -4.4127 -2.5014 0.9794
-0.6974 -4.5138 -2.5016 0.9794
-0.5353 -4.5359 -2.5016 0.9794
-0.3726 -4.5523 -2.5016 0.9794
-0.2093 -4.5628 -2.5017 0.9794
-0.0458 -4.5674 -2.5017 0.9794
0.2812 -4.5592 -2.5018 0.9794
0.4443 -4.5462 -2.5019 0.9794
0.6068 -4.5275 -2.5019 0.9794
0.9294 -4.4726 -2.5020 0.9794
1.0890 -4.4366 -2.5021 0.9794
1.5585 -4.2944 -2.5022 0.9794
1.8620 -4.1720 -2.5023 0.9794
-1.1401 4.1800 -2.5014 0.9802
-1.5817 4.0334 -2.5013 0.9802
-1.8662 3.9097 -2.5012 0.9802
-2.1412 3.7660 -2.5011 0.9802
-2.4052 3.6030 -2.5011 0.9802
-2.5326 3.5145 -2.5010 0.9802
-2.6568 3.4215 -2.5010 0.9802
-2.8948 3.2225 -2.5009 0.9802
-3.0083 3.1167 -2.5009 0.9802
-3.1179 3.0070 -2.5009 0.9802
-3.4223 2.6552 -2.5008 0.9802
-3.5151 2.5309 -2.5007 0.9802
-3.6034 2.4034 -2.5007 0.9802
-3.6872 2.2728 -2.5007 0.9802
-3.7661 2.1392 -2.5007 0.9802
-3.8403 2.0030 -2.5007 0.9802
-3.9738 1.7230 -2.5006 0.9802
-4.0329 1.5796 -2.5006 0.9802
-4.1355 1.2869 -2.5006 0.9802
-4.3254 0.2206 -2.5005 0.9802
-4.3241 -0.2445 -2.5005 0.9802
-4.3126 -0.3992 -2.5005 0.9802
-4.2955 -0.5534 -2.5005 0.9802
-3.8292 -2.0242 -2.5007 0.9802
-3.7543 -2.1600 -2.5007 0.9802
-3.5901 -2.4232 -2.5007 0.9802
-3.5011 -2.5502 -2.5008 0.9802
-2.9910 -3.1333 -2.5009 0.9802
-2.5131 -3.5284 -2.5010 0.9802
-1.5593 -4.0420 -2.5013 0.9802
-1.4136 -4.0953 -2.5013 0.9802
-1.1169 -4.1861 -2.5014 0.9802
-0.9663 -4.2235 -2.5015 0.9802
-0.6616 -4.2820 -2.5016 0.9802
-0.5078 -4.3030 -2.5016 0.9802
-0.3534 -4.3185 -2.5017 0.9802
-0.1986 -4.3285 -2.5017 0.9802
0.7291 -4.2717 -2.5020 0.9802
1.0330 -4.2087 -2.5020 0.9802
1.1831 -4.1691 -2.5021 0.9802
1.3317 -4.1242 -2.5021 0.9802
1.4785 -4.0739 -2.5022 0.9802
1.6234 -4.0184 -2.5022 0.9802
1.7663 -3.9577 -2.5023 0.9802
