ply
format ascii 1.0
element vertex 1334
property float32 x
property float32 y
property float32 z
property float32 I
end_header
40.5620 14.4405 7.5919 0.8396
34.7745 15.2547 6.6957 0.8571
39.0570 28.3293 8.5077 0.8220
35.1673 29.5552 8.1000 0.8298
10.2193 11.4390 2.7047 0.9396
9.5235 11.4582 2.6271 0.9413
8.8657 11.4762 2.5571 0.9428
8.2413 11.4934 2.4937 0.9442
7.0774 11.5254 2.3848 0.9465
6.5314 11.5404 2.3382 0.9476
6.0056 11.5549 2.2962 0.9485
5.4978 11.5688 2.2585 0.9493
4.0615 11.6083 2.1685 0.9513
3.6060 11.6208 2.1454 0.9518
2.7206 11.6451 2.1086 0.9526
2.2880 11.6570 2.0947 0.9529
1.8607 11.6687 2.0835 0.9531
1.0168 11.6919 2.0694 0.9534
0.5981 11.7034 2.0663 0.9535
0.1817 11.8163 2.0838 0.9531
-0.2403 11.8278 2.0860 0.9531
-0.6637 11.8395 2.0909 0.9530
-1.0897 11.8511 2.0985 0.9528
-2.3942 11.8869 2.1381 0.9519
-3.7648 11.9244 2.2049 0.9505
-4.2430 11.9375 2.2339 0.9498
-4.7345 11.9510 2.2666 0.9491
-5.2414 11.9649 2.3033 0.9483
-4.6975 9.7601 1.9099 0.9570
-6.8754 12.0096 2.4401 0.9453
-24.4033 27.0461 6.4233 0.8625
-20.3455 15.7342 4.5351 0.9008
-20.3230 14.5884 4.4112 0.9034
-21.6727 12.2805 4.3923 0.9038
-23.7047 12.3360 4.7119 0.8971
33.3035 10.5335 5.3510 0.8682
40.5638 14.4412 6.5962 0.8401
36.6683 14.5485 6.0434 0.8525
34.8161 16.7788 5.9207 0.8552
34.8595 18.3603 6.0357 0.8526
32.9053 29.7207 6.7927 0.8357
35.2958 34.2444 7.5338 0.8195
8.2415 11.4937 2.1666 0.9444
7.0775 11.5256 2.0720 0.9467
6.5315 11.5406 2.0315 0.9478
5.4979 11.5690 1.9623 0.9495
4.1272 9.5496 1.5937 0.9588
3.7330 9.5604 1.5723 0.9593
3.3487 9.5709 1.5534 0.9598
2.9731 9.5813 1.5368 0.9602
1.2107 9.8387 1.5186 0.9607
0.5061 9.9016 1.5188 0.9607
-0.2030 9.9944 1.5314 0.9604
-0.5595 9.9813 1.5315 0.9604
-1.2701 9.9169 1.5316 0.9603
-2.7244 9.8390 1.5640 0.9595
-4.7346 11.9512 1.9693 0.9493
-5.2415 11.9651 2.0011 0.9485
-6.8755 12.0098 2.1200 0.9455
-7.4668 12.0260 2.1685 0.9443
-8.0866 12.0430 2.2222 0.9430
-8.7386 12.0608 2.2817 0.9415
-17.4513 22.3609 4.3453 0.8916
-22.6138 26.9360 5.3878 0.8673
-28.2638 27.1523 6.0041 0.8533
-20.3231 14.5885 3.8324 0.9037
-20.3594 13.5406 3.7458 0.9058
-20.4328 12.5616 3.6744 0.9075
-21.6735 12.2809 3.8162 0.9041
-23.6039 12.2835 4.0763 0.8979
33.3037 10.5336 4.5485 0.8686
40.5657 14.4419 5.6073 0.8406
36.8366 14.6152 5.1606 0.8523
34.7740 15.2545 4.9448 0.8580
34.8592 18.3601 5.1305 0.8531
34.9044 20.0063 5.2390 0.8502
39.0591 28.3309 6.2834 0.8231
36.3577 28.4051 6.0082 0.8302
35.1667 29.5546 5.9819 0.8309
32.9026 29.7183 5.7736 0.8362
35.2954 34.2440 6.4039 0.8201
7.8522 9.4474 1.5997 0.9517
7.3099 9.4623 1.5570 0.9529
6.4467 9.7040 1.5171 0.9541
5.7402 10.1425 1.5176 0.9541
5.3755 10.3425 1.5179 0.9541
5.0038 10.5293 1.5181 0.9541
4.6256 10.7028 1.5183 0.9541
4.2414 10.8626 1.5185 0.9541
3.8517 11.0085 1.5187 0.9540
3.4569 11.1404 1.5190 0.9540
2.6543 11.3614 1.5193 0.9540
1.8377 11.5243 1.5197 0.9540
1.4254 11.5837 1.5198 0.9540
-0.2391 11.7675 1.5327 0.9536
-1.0778 11.7220 1.5329 0.9536
-2.3246 11.5412 1.5331 0.9536
-2.7350 11.4513 1.5331 0.9536
-3.1419 11.3467 1.5332 0.9536
-4.7242 10.7844 1.5332 0.9536
-4.6966 9.7582 1.4102 0.9573
-6.2098 10.0014 1.5330 0.9536
-6.6795 9.9475 1.5603 0.9528
-19.6358 25.1598 4.1560 0.8792
-22.4441 24.8747 4.3629 0.8736
-28.1983 27.0894 5.0919 0.8541
-20.2799 18.1362 3.5429 0.8961
-20.3458 15.7345 3.3493 0.9015
-20.3233 14.5886 3.2577 0.9040
-20.3600 13.5410 3.1841 0.9061
-21.6742 12.2814 3.2441 0.9044
-23.6041 12.2836 3.4650 0.8982
40.5676 14.4425 4.6241 0.8409
36.8381 14.6158 4.2557 0.8526
34.7737 15.2544 4.0776 0.8583
34.9041 20.0062 4.3201 0.8506
34.9513 21.7257 4.4191 0.8474
39.0602 28.3316 5.1815 0.8236
10.3829 9.3780 1.5024 0.9453
10.1340 9.8321 1.5162 0.9448
9.4114 10.5347 1.5169 0.9448
8.6400 11.1841 1.5176 0.9447
8.2372 11.4877 1.5179 0.9447
7.0778 11.5261 1.4524 0.9470
6.0060 11.5555 1.3984 0.9490
5.4981 11.5695 1.3755 0.9498
4.9602 11.4769 1.3426 0.9509
4.0617 11.6089 1.3207 0.9517
3.6062 11.6214 1.3066 0.9522
3.1596 11.6337 1.2945 0.9527
2.7207 11.6457 1.2842 0.9530
0.5118 10.0131 1.0766 0.9605
0.1817 11.8169 1.2691 0.9536
-0.6615 11.7995 1.2690 0.9536
-1.9538 11.8754 1.2923 0.9527
-2.3798 11.8154 1.2942 0.9527
-2.8248 11.8276 1.3058 0.9523
-4.2432 11.9382 1.3605 0.9503
-4.6961 9.7573 1.1628 0.9574
-6.3097 11.9948 1.4554 0.9469
-7.9680 11.8664 1.5348 0.9441
-9.1884 10.9445 1.5345 0.9441
-9.3105 10.3188 1.4924 0.9456
-26.1317 26.9618 4.0319 0.8598
-28.1990 27.0900 4.1990 0.8544
33.2889 10.5289 2.9556 0.8692
40.5694 14.4432 3.6455 0.8412
34.7735 15.2543 3.2144 0.8586
34.8587 18.3598 3.3352 0.8537
39.0612 28.3324 4.0849 0.8239
36.3596 28.4066 3.9059 0.8309
10.7798 9.7366 1.2297 0.9434
10.7426 10.4226 1.2671 0.9417
10.7008 11.1503 1.3082 0.9398
10.2202 11.4400 1.2986 0.9403
7.5843 11.4163 1.1603 0.9465
6.0377 11.6166 1.1083 0.9488
4.9603 11.4771 1.0584 0.9510
4.5002 11.5254 1.0474 0.9515
4.0618 11.6091 1.0412 0.9518
2.7207 11.6459 1.0124 0.9531
2.2888 11.6610 1.0060 0.9534
1.4378 11.6844 0.9966 0.9538
1.0169 11.6927 0.9935 0.9540
0.5118 10.0133 0.8488 0.9606
-0.2404 11.8321 1.0018 0.9536
-0.6640 11.8437 1.0042 0.9535
-1.5194 11.8637 1.0125 0.9531
-1.9539 11.8756 1.0188 0.9528
-2.3798 11.8156 1.0203 0.9528
-2.8421 11.9000 1.0357 0.9521
-3.2785 11.8402 1.0400 0.9519
-3.7338 11.8261 1.0498 0.9514
-4.2270 11.8924 1.0684 0.9506
-4.7596 12.0143 1.0939 0.9494
-4.6957 9.7563 0.9166 0.9575
-8.0213 11.9458 1.2181 0.9439
-8.7392 12.0616 1.2609 0.9420
-20.9886 26.8932 2.8878 0.8720
-9.6234 11.4627 1.2670 0.9417
-9.7039 10.7548 1.2262 0.9435
-20.3141 16.9019 2.2370 0.8994
-20.3462 15.7347 2.1773 0.9019
-20.3766 14.6269 2.1233 0.9042
-20.4055 13.5713 2.0745 0.9063
-21.6758 12.2822 2.1090 0.9048
-23.7083 12.3379 2.2625 0.8983
40.5713 14.4438 2.6705 0.8415
36.6745 14.5509 2.4467 0.8537
34.7732 15.2542 2.3546 0.8588
34.8150 16.7783 2.3965 0.8565
34.8584 18.3597 2.4431 0.8539
34.9036 20.0059 2.4947 0.8511
11.2550 9.4589 0.9117 0.9428
11.2336 10.1464 0.9387 0.9411
31.3015 32.6164 2.8033 0.8343
10.2204 11.4403 0.9513 0.9404
9.5245 11.4594 0.9240 0.9420
8.8666 11.4774 0.8994 0.9435
7.0781 11.5265 0.8388 0.9472
5.4655 11.5009 0.7896 0.9502
4.9604 11.4773 0.7753 0.9511
4.5003 11.5256 0.7673 0.9516
4.0619 11.6093 0.7627 0.9519
3.5842 11.5507 0.7500 0.9527
2.2897 11.6654 0.7372 0.9535
1.8620 11.6771 0.7333 0.9537
1.0169 11.6929 0.7278 0.9541
0.5118 10.0135 0.6217 0.9606
-0.6642 11.8481 0.7359 0.9536
-1.5194 11.8639 0.7417 0.9532
-1.9539 11.8758 0.7463 0.9529
-2.3799 11.8158 0.7474 0.9528
-2.8422 11.9002 0.7587 0.9521
-3.7339 11.8263 0.7690 0.9515
-4.2270 11.8926 0.7826 0.9507
-5.2418 11.9659 0.8101 0.9490
-7.4103 11.9350 0.8712 0.9453
-20.9890 26.8938 2.1155 0.8722
-10.0609 11.9839 0.9703 0.9392
-10.1304 11.2274 0.9377 0.9412
-28.2206 27.1108 2.4266 0.8548
-19.8381 12.1960 1.4440 0.9109
-19.8786 11.2639 1.4168 0.9125
42.9199 11.9082 1.7563 0.8367
33.3048 10.5339 1.3773 0.8695
36.4873 14.4766 1.5478 0.8546
34.8373 16.7890 1.5249 0.8566
34.8582 18.3596 1.5535 0.8541
34.9033 20.0057 1.5863 0.8513
34.0153 24.6724 1.6569 0.8452
33.0255 25.8018 1.6525 0.8455
11.7334 9.8609 0.6044 0.9405
11.7166 11.3676 0.6437 0.9367
26.8192 27.9458 1.5273 0.8564
9.5247 11.4596 0.5876 0.9421
8.8668 11.4776 0.5719 0.9436
8.2423 11.4948 0.5577 0.9450
7.6473 11.5111 0.5449 0.9462
7.0782 11.5267 0.5334 0.9473
5.4656 11.5011 0.5021 0.9503
4.5004 11.5258 0.4879 0.9517
4.0620 11.6095 0.4850 0.9520
3.5843 11.5509 0.4769 0.9527
2.7208 11.6463 0.4716 0.9533
1.8627 11.6815 0.4664 0.9538
1.4389 11.6931 0.4645 0.9539
0.1817 11.8174 0.4660 0.9538
-0.6644 11.8525 0.4681 0.9536
-1.5194 11.8641 0.4716 0.9532
-2.8422 11.9004 0.4824 0.9522
-3.2787 11.8406 0.4845 0.9520
-3.7339 11.8266 0.4890 0.9516
-4.7598 12.0147 0.5096 0.9496
-4.6948 9.7545 0.4269 0.9576
-6.3100 11.9954 0.5344 0.9472
-6.8762 12.0110 0.5457 0.9461
-7.4104 11.9352 0.5540 0.9453
-19.5403 25.0375 1.2523 0.8806
-10.6457 10.9838 0.6031 0.9406
-20.3145 16.9022 1.0420 0.8996
-20.3465 15.7350 1.0142 0.9022
-19.0752 11.7270 0.8829 0.9143
40.5749 14.4452 0.7275 0.8417
34.7727 15.2539 0.6414 0.8591
32.9331 17.3457 0.6287 0.8616
33.9300 22.8085 0.6906 0.8491
12.2622 11.0754 0.2791 0.9360
10.2208 11.4407 0.2591 0.9405
9.5249 11.4598 0.2517 0.9421
8.8670 11.4779 0.2450 0.9436
8.2425 11.4950 0.2389 0.9450
7.6474 11.5113 0.2334 0.9462
6.5322 11.5419 0.2240 0.9483
6.0381 11.6172 0.2212 0.9490
4.9606 11.4778 0.2112 0.9512
4.5005 11.5260 0.2090 0.9517
2.2914 11.6741 0.2010 0.9535
1.0170 11.6932 0.1983 0.9541
0.5118 10.0138 0.1694 0.9607
0.1817 11.8176 0.1996 0.9538
-0.2406 11.8452 0.2001 0.9537
-0.6647 11.8569 0.2006 0.9536
-1.0913 11.8686 0.2013 0.9534
-1.9540 11.8762 0.2033 0.9530
-3.2787 11.8408 0.2075 0.9520
-7.4105 11.9353 0.2373 0.9453
-16.8603 21.6035 0.4629 0.8962
-18.1286 21.5935 0.4763 0.8933
-11.1717 10.7324 0.2617 0.9399
-20.3147 16.9023 0.4464 0.8997
-20.3467 15.7351 0.4345 0.9022
-18.3118 12.1788 0.3715 0.9158
-18.3366 11.2729 0.3636 0.9175
40.5767 14.4458 -0.2425 0.8417
36.6790 14.5527 -0.2222 0.8540
34.7725 15.2538 -0.2138 0.8591
32.8919 15.8515 -0.2056 0.8641
32.9329 17.3455 -0.2096 0.8617
32.9755 18.9008 -0.2140 0.8590
33.0400 22.2102 -0.2241 0.8528
31.0876 22.5489 -0.2162 0.8576
29.1104 22.7430 -0.2080 0.8626
25.3273 22.8761 -0.1922 0.8724
23.6387 22.9346 -0.1854 0.8766
22.0618 22.9886 -0.1794 0.8803
8.8672 11.4781 -0.0817 0.9436
8.2426 11.4953 -0.0796 0.9450
7.6475 11.5116 -0.0778 0.9462
7.0785 11.5272 -0.0762 0.9473
6.5323 11.5422 -0.0747 0.9483
6.0382 11.6174 -0.0737 0.9490
5.4658 11.5015 -0.0717 0.9503
4.5005 11.5262 -0.0697 0.9517
4.0621 11.6099 -0.0693 0.9520
2.7209 11.6467 -0.0673 0.9533
1.0170 11.6934 -0.0661 0.9541
-0.2407 11.8496 -0.0667 0.9537
-0.6649 11.8612 -0.0669 0.9536
-1.9540 11.8764 -0.0678 0.9530
-3.2788 11.8410 -0.0692 0.9520
-4.2273 11.8932 -0.0711 0.9508
-4.7600 12.0151 -0.0728 0.9496
-5.2421 11.9666 -0.0736 0.9491
-4.6939 9.7526 -0.0609 0.9576
-6.3103 11.9959 -0.0763 0.9472
-7.4106 11.9354 -0.0791 0.9454
-8.7399 12.0625 -0.0839 0.9422
-18.1290 21.5940 -0.1587 0.8933
-19.4745 21.5834 -0.1637 0.8902
-20.9081 21.5721 -0.1691 0.8868
-22.4427 21.5601 -0.1752 0.8830
-20.4062 13.5717 -0.1380 0.9066
-21.6788 12.2839 -0.1403 0.9051
33.3055 10.5342 -0.9837 0.8695
39.1634 13.9426 -1.1706 0.8467
36.6805 14.5533 -1.1112 0.8539
30.6146 20.5798 -1.0387 0.8628
25.0053 21.0148 -0.9197 0.8775
8.6827 9.7191 -0.3670 0.9492
8.8673 11.4784 -0.4084 0.9436
8.2428 11.4955 -0.3983 0.9450
7.0786 11.5274 -0.3809 0.9473
5.5492 9.8050 -0.3172 0.9559
4.9608 11.4782 -0.3521 0.9512
3.6065 11.6226 -0.3427 0.9525
2.3114 9.8938 -0.2861 0.9602
2.2924 11.6794 -0.3351 0.9535
1.8643 11.6912 -0.3334 0.9537
1.4401 11.7029 -0.3320 0.9539
0.1546 10.0544 -0.2831 0.9606
-0.9272 10.0841 -0.2851 0.9603
-1.9540 11.8766 -0.3389 0.9530
-2.8423 11.9010 -0.3445 0.9522
-3.2988 11.9135 -0.3481 0.9517
-4.2437 11.9394 -0.3568 0.9506
-8.0879 12.0449 -0.4085 0.9436
-8.0351 10.2956 -0.3677 0.9491
-22.4433 21.5606 -0.8763 0.8829
-20.2811 18.1373 -0.7661 0.8968
-20.3470 15.7353 -0.7243 0.9022
-20.4063 13.5718 -0.6901 0.9066
-21.6795 12.2844 -0.7016 0.9051
-20.2251 10.5252 -0.6420 0.9128
49.2849 -6.0391 -2.5181 0.8197
49.4447 -4.2747 -2.5169 0.8197
49.5733 -0.7368 -2.5143 0.8199
49.5425 1.0319 -2.5130 0.8200
49.2909 4.5577 -2.5104 0.8202
49.0707 6.3102 -2.5091 0.8202
45.4909 9.1868 -2.3536 0.8304
43.7524 10.4733 -2.2816 0.8351
33.3058 10.5343 -1.7716 0.8694
34.7720 15.2536 -1.9256 0.8589
32.8914 15.8513 -1.8517 0.8640
32.9324 17.3453 -1.8876 0.8615
29.7503 18.4928 -1.7765 0.8691
24.6178 19.2331 -1.5843 0.8824
20.3685 19.7618 -1.4392 0.8926
10.9010 11.3590 -0.7984 0.9389
8.6829 9.7193 -0.6610 0.9491
9.5255 11.4605 -0.7558 0.9421
8.8675 11.4786 -0.7356 0.9436
8.2429 11.4957 -0.7174 0.9449
7.0787 11.5276 -0.6860 0.9473
6.0067 11.5570 -0.6605 0.9492
4.9608 11.4784 -0.6342 0.9512
4.0622 11.6103 -0.6238 0.9519
3.6066 11.6228 -0.6172 0.9524
3.1600 11.6351 -0.6114 0.9529
1.4392 11.6952 -0.5976 0.9539
1.0170 11.6938 -0.5953 0.9541
0.1546 10.0546 -0.5100 0.9605
-0.5648 10.0743 -0.5117 0.9604
-0.9272 10.0843 -0.5136 0.9603
-2.3946 11.8889 -0.6150 0.9526
-2.8424 11.9012 -0.6205 0.9522
-3.2989 11.9137 -0.6269 0.9517
-4.2437 11.9396 -0.6426 0.9505
-4.4600 10.1812 -0.5637 0.9565
-6.8767 12.0119 -0.7019 0.9461
-7.4360 10.2629 -0.6427 0.9505
-8.0352 10.2957 -0.6623 0.9490
-8.6559 10.3103 -0.6827 0.9475
-9.3111 10.3194 -0.7049 0.9459
-20.9091 21.5732 -1.5236 0.8866
-22.4439 21.5612 -1.5784 0.8828
-20.2813 18.1375 -1.3799 0.8968
-20.3472 15.7354 -1.3045 0.9021
-20.3775 14.6275 -1.2721 0.9044
-20.4065 13.5719 -1.2429 0.9065
-19.7487 12.1411 -1.1757 0.9113
-20.1956 11.4435 -1.1772 0.9112
34.0156 -4.1681 -2.5127 0.8716
34.2038 -1.7305 -2.5111 0.8717
34.2324 -0.5088 -2.5103 0.8717
34.2175 0.7127 -2.5094 0.8717
34.1418 3.1569 -2.5140 0.8715
33.9073 5.5966 -2.5198 0.8712
32.6927 9.0706 -2.4877 0.8728
32.0431 10.1349 -2.4642 0.8739
31.9375 11.3701 -2.4857 0.8729
31.4417 12.4748 -2.4802 0.8731
29.3946 15.4819 -2.4359 0.8752
27.9293 16.0084 -2.3604 0.8789
21.1561 17.7799 -2.0263 0.8951
10.7052 9.6692 -1.0577 0.9438
10.0938 9.7931 -1.0312 0.9452
8.6613 9.6951 -0.9532 0.9492
7.5140 9.7266 -0.9012 0.9519
7.6480 11.5122 -1.0134 0.9461
6.0068 11.5572 -0.9550 0.9491
4.9609 11.4786 -0.9169 0.9511
3.1600 11.6353 -0.8840 0.9528
1.8618 11.6758 -0.8669 0.9537
1.0170 11.6940 -0.8607 0.9540
0.5118 10.0145 -0.7352 0.9606
0.1546 10.0548 -0.7373 0.9605
-0.2045 10.0646 -0.7381 0.9604
-2.3946 11.8891 -0.8892 0.9525
-2.8424 11.9014 -0.8972 0.9521
-3.2989 11.9139 -0.9064 0.9516
-3.7343 11.8278 -0.9094 0.9515
-4.2438 11.9398 -0.9291 0.9504
-4.7355 11.9533 -0.9427 0.9497
-4.4601 10.1814 -0.8150 0.9564
-6.3106 11.9966 -0.9939 0.9471
-6.3380 10.2080 -0.8810 0.9530
-6.8641 10.2224 -0.9028 0.9518
-7.4177 10.2376 -0.9270 0.9506
-8.0024 10.2537 -0.9537 0.9492
-20.2815 18.1376 -1.9950 0.8966
-20.3153 16.9029 -1.9377 0.8994
-20.3473 15.7356 -1.8860 0.9020
-20.3777 14.6277 -1.8392 0.9043
-20.4066 13.5720 -1.7970 0.9064
-19.5945 12.0462 -1.6865 0.9119
26.0641 -2.2533 -2.5116 0.9002
26.1213 -1.3216 -2.5110 0.9002
26.1453 -0.3886 -2.5104 0.9003
26.0175 2.4057 -2.5085 0.9003
25.7669 4.2529 -2.5072 0.9004
25.5392 6.1135 -2.5212 0.8999
25.3400 7.0306 -2.5247 0.8997
25.1268 9.9693 -2.5952 0.8971
24.8457 10.8992 -2.6047 0.8967
24.5287 11.8210 -2.6141 0.8964
24.2121 12.7524 -2.6272 0.8959
23.5653 13.5071 -2.6077 0.8966
22.6539 14.0817 -2.5608 0.8984
21.6882 14.5793 -2.5089 0.9003
19.9592 15.5934 -2.4316 0.9032
11.4803 9.6482 -1.4397 0.9415
10.7055 9.6694 -1.3849 0.9437
9.2590 9.6480 -1.2838 0.9477
8.6345 9.6651 -1.2442 0.9493
7.4908 9.6964 -1.1763 0.9520
6.9632 9.7109 -1.1472 0.9531
6.4604 9.7246 -1.1209 0.9542
4.6450 9.7744 -1.0390 0.9574
4.2541 9.8431 -1.0295 0.9578
3.0561 9.8489 -0.9900 0.9594
2.3057 9.8695 -0.9730 0.9601
1.9392 9.8795 -0.9666 0.9604
1.5770 9.8895 -0.9614 0.9606
-0.5634 10.0496 -0.9663 0.9604
-0.9250 10.0596 -0.9698 0.9602
-1.2896 10.0696 -0.9746 0.9600
-3.1859 10.0906 -1.0159 0.9584
-3.5905 10.1018 -1.0293 0.9578
-4.0065 10.1132 -1.0443 0.9572
-4.6921 9.7488 -1.0387 0.9575
-5.3391 10.1498 -1.1010 0.9550
-5.8182 10.1629 -1.1243 0.9540
-6.3186 10.1767 -1.1500 0.9530
-6.8431 10.1911 -1.1785 0.9519
-7.3949 10.2062 -1.2100 0.9506
-7.9779 10.2222 -1.2449 0.9492
-8.5962 10.2392 -1.2835 0.9477
-9.2574 10.2599 -1.3267 0.9460
-16.3580 16.8776 -2.2565 0.9099
-17.5356 15.6820 -2.2585 0.9098
-18.0939 15.0546 -2.2597 0.9098
-18.6309 14.4082 -2.2611 0.9097
-19.1462 13.7437 -2.2627 0.9096
-19.0963 11.7399 -2.1521 0.9139
-20.0285 10.4229 -2.1676 0.9133
21.1315 -0.3141 -2.5104 0.9184
21.0915 1.1933 -2.5094 0.9184
21.0313 1.9446 -2.5089 0.9184
20.9443 2.6933 -2.5084 0.9185
20.5243 4.9131 -2.5069 0.9185
20.3320 5.6412 -2.5064 0.9185
20.1632 6.3773 -2.5120 0.9183
20.0035 7.1215 -2.5222 0.9180
19.7578 7.8390 -2.5249 0.9179
19.5538 9.4235 -2.5784 0.9163
19.2652 10.1469 -2.5864 0.9160
18.9648 10.8702 -2.5966 0.9157
18.3190 12.3144 -2.6220 0.9149
17.8949 12.9797 -2.6260 0.9148
17.3398 13.5470 -2.6138 0.9152
10.6432 9.6132 -1.7036 0.9439
9.9256 9.6300 -1.6427 0.9458
8.6347 9.6653 -1.5395 0.9491
6.9633 9.7111 -1.4194 0.9530
5.9798 9.7380 -1.3574 0.9550
5.5184 9.7506 -1.3309 0.9559
5.0742 9.7628 -1.3070 0.9566
3.8254 9.7970 -1.2493 0.9585
3.4316 9.8078 -1.2343 0.9590
3.0467 9.8184 -1.2211 0.9594
2.6694 9.8287 -1.2098 0.9598
1.5721 9.8588 -1.1859 0.9606
1.2144 9.8686 -1.1811 0.9607
0.8591 9.8783 -1.1778 0.9608
0.1538 9.9992 -1.1879 0.9605
-2.4049 10.0694 -1.2297 0.9592
-3.1859 10.0908 -1.2570 0.9583
-4.6916 9.7479 -1.2850 0.9574
-5.3393 10.1500 -1.3623 0.9549
-5.8183 10.1631 -1.3911 0.9539
-6.3187 10.1769 -1.4229 0.9529
-6.8432 10.1913 -1.4582 0.9518
-7.3951 10.2064 -1.4972 0.9505
-7.9780 10.2225 -1.5403 0.9491
-8.5964 10.2395 -1.5881 0.9476
-9.2575 10.2601 -1.6415 0.9459
-14.7728 12.2913 -2.2828 0.9255
-15.2096 11.7623 -2.2839 0.9255
-16.0283 10.6601 -2.2866 0.9254
-16.6282 10.2226 -2.3186 0.9244
17.6806 -0.2628 -2.5054 0.9311
17.6755 0.3682 -2.5050 0.9311
17.6478 0.9984 -2.5045 0.9311
17.5976 1.6272 -2.5040 0.9311
17.4666 2.8829 -2.5083 0.9310
16.8677 5.3351 -2.5067 0.9310
16.4391 6.5223 -2.5059 0.9310
15.2290 10.2373 -2.6000 0.9285
13.8838 10.0704 -2.4302 0.9331
9.9259 9.6302 -1.9595 0.9457
8.6349 9.6655 -1.8364 0.9490
7.4911 9.6968 -1.7362 0.9517
6.4607 9.7250 -1.6543 0.9539
5.9799 9.7382 -1.6192 0.9549
5.5185 9.7508 -1.5875 0.9557
5.0743 9.7630 -1.5590 0.9565
4.6452 9.7747 -1.5334 0.9572
4.2295 9.7861 -1.5105 0.9578
3.8254 9.7972 -1.4902 0.9584
2.6694 9.8289 -1.4431 0.9597
2.2986 9.8390 -1.4316 0.9600
1.9332 9.8490 -1.4221 0.9603
0.8591 9.8785 -1.4050 0.9607
0.5105 9.9896 -1.4173 0.9604
0.1538 9.9993 -1.4170 0.9604
-0.9221 10.0288 -1.4270 0.9601
-1.6533 10.0489 -1.4430 0.9597
-2.0260 10.0591 -1.4539 0.9594
-2.4050 10.0696 -1.4669 0.9590
-2.7912 10.0802 -1.4820 0.9586
-3.1860 10.0910 -1.4994 0.9582
-3.5906 10.1021 -1.5191 0.9576
-4.4355 10.1253 -1.5663 0.9563
-5.3394 10.1502 -1.6250 0.9547
-5.8184 10.1633 -1.6593 0.9538
-6.8433 10.1915 -1.7394 0.9516
-7.3952 10.2067 -1.7859 0.9504
-7.9782 10.2227 -1.8373 0.9490
-9.2577 10.2603 -1.9581 0.9457
-9.9643 10.2808 -2.0286 0.9438
-12.4714 10.3765 -2.2987 0.9366
-13.0486 10.0911 -2.3372 0.9355
-13.4018 9.6201 -2.3375 0.9355
-13.7381 9.1369 -2.3377 0.9355
-14.0570 8.6419 -2.3380 0.9355
-14.5417 8.2399 -2.3682 0.9347
-15.5915 8.1138 -2.4904 0.9315
15.0984 -1.8501 -2.5059 0.9402
15.1872 -0.7684 -2.5051 0.9402
15.2026 -0.2260 -2.5047 0.9402
15.1752 0.8585 -2.5039 0.9402
15.1324 1.3992 -2.5035 0.9403
14.8889 3.0068 -2.5023 0.9403
14.6317 4.0596 -2.5015 0.9403
14.4750 4.5783 -2.5010 0.9403
14.3001 5.0910 -2.5006 0.9403
13.8959 6.0958 -2.4998 0.9403
13.6707 6.5883 -2.5000 0.9403
13.4284 7.0727 -2.5003 0.9403
13.1714 7.5495 -2.5010 0.9403
10.9037 9.1637 -2.3464 0.9439
8.6351 9.6657 -2.1352 0.9488
8.0471 9.6818 -2.0740 0.9502
7.4912 9.6970 -2.0186 0.9515
6.9636 9.7115 -1.9686 0.9527
5.0744 9.7632 -1.8126 0.9564
4.6453 9.7749 -1.7829 0.9571
4.2296 9.7863 -1.7563 0.9577
3.4317 9.8081 -1.7118 0.9588
3.0468 9.8187 -1.6936 0.9592
2.6695 9.8290 -1.6779 0.9596
2.2986 9.8392 -1.6645 0.9599
1.9332 9.8492 -1.6535 0.9601
1.2144 9.8689 -1.6381 0.9605
0.8592 9.8787 -1.6335 0.9606
0.1538 9.9995 -1.6475 0.9603
-0.5617 10.0191 -1.6531 0.9601
-1.2857 10.0390 -1.6673 0.9598
-1.6533 10.0491 -1.6777 0.9596
-3.5907 10.1023 -1.7662 0.9575
-4.4356 10.1255 -1.8211 0.9562
-5.0483 9.5968 -1.7864 0.9570
-6.3189 10.1773 -1.9735 0.9526
-7.3954 10.2069 -2.0764 0.9502
-7.9784 10.2229 -2.1363 0.9488
-9.2580 10.2605 -2.2767 0.9455
-9.8773 10.1910 -2.3380 0.9441
-10.9122 9.0792 -2.3385 0.9441
-11.2302 8.6848 -2.3387 0.9441
-11.5340 8.2793 -2.3389 0.9441
-12.3606 8.2207 -2.4455 0.9416
-13.1584 7.4560 -2.4915 0.9405
-13.4175 6.9825 -2.4918 0.9405
13.3216 -0.1980 -2.5042 0.9472
12.9440 3.0985 -2.5017 0.9473
12.8234 3.5579 -2.5013 0.9473
12.6864 4.0126 -2.5010 0.9473
12.5333 4.4619 -2.5006 0.9473
12.3643 4.9056 -2.5002 0.9473
12.1796 5.3429 -2.4999 0.9473
11.9794 5.7732 -2.4995 0.9473
10.4480 8.1627 -2.4921 0.9475
8.9510 8.6844 -2.3442 0.9505
7.4914 9.6972 -2.3032 0.9513
6.9637 9.7117 -2.2462 0.9525
5.0745 9.7633 -2.0682 0.9562
4.6454 9.7751 -2.0343 0.9569
4.2296 9.7865 -2.0039 0.9575
3.8256 9.7975 -1.9770 0.9581
3.0468 9.8189 -1.9324 0.9590
1.9332 9.8494 -1.8866 0.9600
1.2144 9.8691 -1.8690 0.9603
0.8592 9.8788 -1.8638 0.9604
-0.2033 10.0095 -1.8818 0.9601
-0.5617 10.0193 -1.8862 0.9600
-1.6534 10.0493 -1.9143 0.9594
-2.0261 10.0595 -1.9288 0.9591
-2.7913 10.0805 -1.9660 0.9583
-3.1861 10.0913 -1.9891 0.9578
-4.4357 10.1257 -2.0778 0.9560
-4.5994 9.5563 -1.9934 0.9578
-5.0187 9.5405 -2.0262 0.9571
-5.8187 10.1637 -2.2013 0.9535
-6.3191 10.1775 -2.2517 0.9524
-6.8436 10.1919 -2.3075 0.9513
-7.3006 10.0760 -2.3388 0.9506
-8.9754 8.6225 -2.3394 0.9506
-9.8803 8.2206 -2.4159 0.9490
-10.4867 8.1099 -2.4918 0.9475
-11.0402 7.3426 -2.4922 0.9475
11.7613 -1.4412 -2.5047 0.9527
11.8314 -0.5986 -2.5041 0.9527
11.8437 -0.1760 -2.5038 0.9527
11.8232 0.6689 -2.5032 0.9527
11.7903 1.0902 -2.5029 0.9527
11.7424 1.5100 -2.5025 0.9527
11.6795 1.9277 -2.5022 0.9528
11.1447 3.9676 -2.5006 0.9528
10.8305 4.7511 -2.4999 0.9528
10.4613 5.5099 -2.4993 0.9528
10.0392 6.2403 -2.4986 0.9528
9.8089 6.5937 -2.4983 0.9528
9.5661 6.9386 -2.4980 0.9528
9.3113 7.2746 -2.4977 0.9528
8.4186 8.1678 -2.4794 0.9532
7.8542 8.1841 -2.3977 0.9547
7.3880 8.2698 -2.3440 0.9557
6.7779 8.7736 -2.3435 0.9557
6.1336 9.2326 -2.3430 0.9557
5.7996 9.4446 -2.3428 0.9557
5.4584 9.6446 -2.3425 0.9557
4.2297 9.7867 -2.2536 0.9573
3.0469 9.8190 -2.1732 0.9588
2.6696 9.8294 -2.1530 0.9592
1.9333 9.8496 -2.1217 0.9598
0.8592 9.8790 -2.0961 0.9603
0.1538 9.9998 -2.1140 0.9599
-0.2033 10.0096 -2.1163 0.9599
-2.0261 10.0597 -2.1691 0.9589
-2.4051 10.0701 -2.1885 0.9586
-2.7913 10.0807 -2.2110 0.9581
-4.0068 10.1141 -2.2996 0.9565
-4.4358 10.1259 -2.3368 0.9558
-4.5614 9.4774 -2.2233 0.9579
-6.8105 8.7265 -2.3399 0.9558
-7.1179 8.4783 -2.3400 0.9558
-7.4318 8.2366 -2.3450 0.9557
-7.9629 8.2158 -2.4185 0.9543
-9.0645 7.5419 -2.4926 0.9529
-9.5806 6.8773 -2.4929 0.9529
-10.2631 5.8154 -2.4935 0.9529
-10.4650 5.4460 -2.4937 0.9529
4.1627 -0.5101 -0.9856 0.9829
4.1153 -0.2082 -0.9684 0.9832
4.1182 -0.0612 -0.9680 0.9832
4.1210 0.0858 -0.9687 0.9832
10.6032 0.9804 -2.5026 0.9572
10.5039 1.7337 -2.5020 0.9572
10.4341 2.1071 -2.5018 0.9572
10.3511 2.4778 -2.5015 0.9572
10.2549 2.8453 -2.5012 0.9572
10.1456 3.2089 -2.5009 0.9572
10.0235 3.5685 -2.5006 0.9572
9.7412 4.2732 -2.5000 0.9572
9.5814 4.6175 -2.4997 0.9572
9.4094 4.9559 -2.4994 0.9572
9.2255 5.2878 -2.4991 0.9572
9.0299 5.6130 -2.4988 0.9573
8.6047 6.2413 -2.4982 0.9573
7.6258 7.3986 -2.4971 0.9573
7.0773 7.9219 -2.4966 0.9573
5.8753 8.1938 -2.3696 0.9594
4.9105 8.6764 -2.3431 0.9599
3.9542 9.1491 -2.3425 0.9599
3.6249 9.2836 -2.3423 0.9599
2.9532 9.5171 -2.3419 0.9599
2.2666 9.7021 -2.3416 0.9599
1.5688 9.8378 -2.3413 0.9599
0.8592 9.8792 -2.3306 0.9601
0.5084 9.9476 -2.3410 0.9599
0.1531 9.9589 -2.3409 0.9599
-0.2023 9.9577 -2.3408 0.9599
-0.5574 9.9437 -2.3407 0.9599
-2.3133 9.6858 -2.3404 0.9599
-2.6574 9.5970 -2.3404 0.9599
-2.9981 9.4959 -2.3404 0.9599
-3.6676 9.2579 -2.3403 0.9599
-3.9957 9.1212 -2.3404 0.9599
-4.3186 8.9729 -2.3404 0.9599
-5.2530 8.4605 -2.3405 0.9599
-5.5517 8.2679 -2.3406 0.9599
-5.9539 8.2175 -2.3850 0.9592
-6.4052 8.2071 -2.4468 0.9581
-7.1055 7.8750 -2.4928 0.9574
-7.3823 7.6168 -2.4929 0.9574
-7.9075 7.0716 -2.4932 0.9573
-8.6195 6.1873 -2.4937 0.9573
-8.8353 5.8762 -2.4938 0.9573
-9.2330 5.2319 -2.4942 0.9573
3.7277 -0.1886 -0.9664 0.9847
3.7585 0.2126 -0.9747 0.9846
3.8419 0.3553 -0.9990 0.9842
9.3954 2.2490 -2.5014 0.9609
9.3082 2.5826 -2.5011 0.9609
9.0984 3.2391 -2.5006 0.9609
8.8423 3.8789 -2.5000 0.9609
8.6974 4.1915 -2.4998 0.9609
8.5414 4.4987 -2.4995 0.9609
8.3745 4.8001 -2.4992 0.9609
8.1971 5.0953 -2.4990 0.9609
8.0092 5.3839 -2.4987 0.9609
7.8112 5.6657 -2.4985 0.9609
7.6033 5.9402 -2.4982 0.9609
7.3857 6.2071 -2.4979 0.9609
7.1589 6.4660 -2.4977 0.9609
6.4250 7.1919 -2.4970 0.9609
5.8947 7.6304 -2.4965 0.9609
5.6182 7.8351 -2.4963 0.9609
5.3346 8.0299 -2.4961 0.9609
4.6321 8.1845 -2.4350 0.9619
4.2586 8.1935 -2.3909 0.9626
3.5900 8.3066 -2.3430 0.9633
3.2911 8.4288 -2.3428 0.9633
2.9881 8.5403 -2.3427 0.9633
2.0580 8.8090 -2.3422 0.9633
1.7423 8.8763 -2.3421 0.9633
1.1047 8.9770 -2.3418 0.9633
-0.1837 9.0413 -2.3414 0.9633
-1.4679 8.9223 -2.3412 0.9633
-2.1004 8.7946 -2.3411 0.9633
-2.4129 8.7139 -2.3411 0.9633
-3.0281 8.5196 -2.3411 0.9633
-3.6280 8.2820 -2.3411 0.9633
-4.3191 8.2107 -2.4021 0.9624
-4.6962 8.2031 -2.4474 0.9617
-5.6500 7.7979 -2.4933 0.9610
-6.1921 7.3756 -2.4934 0.9610
-7.1797 6.4208 -2.4939 0.9610
-7.4046 6.1608 -2.4940 0.9610
-7.6201 5.8930 -2.4941 0.9610
-7.8260 5.6177 -2.4943 0.9610
-8.0219 5.3352 -2.4944 0.9610
-8.2077 5.0459 -2.4946 0.9610
-8.5479 4.4484 -2.4949 0.9610
3.4592 -0.4238 -0.9866 0.9856
3.4644 -0.2995 -0.9844 0.9856
4.7955 0.6167 -1.3687 0.9801
8.7194 1.4391 -2.5018 0.9639
8.6616 1.7492 -2.5015 0.9639
8.4226 2.6640 -2.5008 0.9639
8.3214 2.9625 -2.5006 0.9639
8.2096 3.2572 -2.5003 0.9639
8.0874 3.5478 -2.5001 0.9640
7.9549 3.8337 -2.4998 0.9640
7.8122 4.1146 -2.4996 0.9640
7.6597 4.3904 -2.4993 0.9640
7.4975 4.6604 -2.4991 0.9640
7.3257 4.9245 -2.4989 0.9640
7.1444 5.1822 -2.4986 0.9640
6.9545 5.4333 -2.4984 0.9640
6.7556 5.6775 -2.4982 0.9640
6.5482 5.9144 -2.4979 0.9640
6.3324 6.1437 -2.4977 0.9640
6.1086 6.3652 -2.4975 0.9640
4.3428 7.6734 -2.4961 0.9640
3.1934 8.1784 -2.4855 0.9642
2.8637 8.1848 -2.4548 0.9646
2.2258 8.1956 -2.4042 0.9653
1.0115 8.2199 -2.3446 0.9662
0.7169 8.2428 -2.3423 0.9662
0.4223 8.2627 -2.3422 0.9662
0.1272 8.2722 -2.3421 0.9662
-0.4630 8.2597 -2.3419 0.9662
-0.7574 8.2377 -2.3419 0.9662
-1.3513 8.2130 -2.3563 0.9660
-1.6537 8.2104 -2.3710 0.9658
-4.1009 7.7959 -2.4937 0.9640
-4.6466 7.4839 -2.4938 0.9640
-4.9108 7.3134 -2.4938 0.9640
-5.9020 6.5412 -2.4941 0.9640
-6.1319 6.3267 -2.4942 0.9640
-6.9709 5.3909 -2.4947 0.9640
-7.6309 4.3239 -2.4829 0.9642
-7.7808 4.0492 -2.4831 0.9642
3.2750 -0.2831 -1.0111 0.9863
3.2771 -0.1658 -1.0093 0.9864
8.0678 1.0375 -2.5019 0.9665
7.9086 1.8931 -2.5012 0.9665
7.8353 2.1739 -2.5010 0.9665
7.7521 2.4519 -2.5008 0.9665
7.6590 2.7267 -2.5006 0.9665
7.4437 3.2653 -2.5001 0.9666
7.1905 3.7872 -2.4997 0.9666
7.0502 4.0410 -2.4994 0.9666
6.9009 4.2896 -2.4992 0.9666
6.5763 4.7700 -2.4988 0.9666
6.4013 5.0012 -2.4986 0.9666
6.2181 5.2260 -2.4983 0.9666
6.0274 5.4440 -2.4981 0.9666
5.8288 5.6552 -2.4979 0.9666
4.9634 6.4248 -2.4971 0.9666
4.7306 6.5973 -2.4969 0.9666
4.4919 6.7614 -2.4968 0.9666
3.9977 7.0636 -2.4964 0.9666
3.7428 7.2012 -2.4962 0.9666
3.4833 7.3297 -2.4961 0.9666
2.9513 7.5585 -2.4958 0.9666
2.4045 7.7488 -2.4955 0.9666
0.7028 8.0805 -2.4948 0.9666
0.4140 8.1002 -2.4947 0.9666
0.1247 8.1095 -2.4946 0.9666
-0.7425 8.0757 -2.4944 0.9666
-1.3165 8.0019 -2.4943 0.9666
-1.6012 7.9497 -2.4943 0.9666
-1.8838 7.8874 -2.4942 0.9666
-2.9867 7.5391 -2.4942 0.9666
-3.2538 7.4277 -2.4942 0.9666
-3.7753 7.1768 -2.4942 0.9666
-4.0290 7.0377 -2.4943 0.9666
-4.2776 6.8895 -2.4943 0.9666
-4.5208 6.7327 -2.4944 0.9666
-5.4333 6.0217 -2.4946 0.9666
-5.8493 5.6193 -2.4948 0.9666
-6.0463 5.4072 -2.4949 0.9666
-6.2357 5.1883 -2.4950 0.9666
-6.7554 4.4929 -2.4954 0.9666
-7.0594 4.0001 -2.4957 0.9666
3.1162 -0.3818 -1.0436 0.9869
3.1204 -0.2698 -1.0411 0.9869
3.6445 0.4687 -1.2214 0.9846
7.0869 2.5230 -2.5006 0.9688
6.9918 2.7740 -2.5003 0.9688
6.3857 3.9694 -2.4993 0.9688
6.0854 4.4139 -2.4989 0.9688
5.9236 4.6279 -2.4987 0.9688
5.7542 4.8359 -2.4985 0.9688
5.3934 5.2331 -2.4981 0.9688
5.2033 5.4219 -2.4979 0.9688
4.8027 5.7783 -2.4976 0.9688
4.5931 5.9456 -2.4974 0.9688
3.9307 6.4010 -2.4969 0.9688
2.9793 6.8934 -2.4963 0.9688
2.4798 7.0876 -2.4960 0.9688
1.7080 7.3109 -2.4956 0.9688
1.4460 7.3669 -2.4955 0.9689
1.1821 7.4134 -2.4954 0.9689
0.9168 7.4506 -2.4953 0.9689
0.3831 7.4965 -2.4951 0.9689
-0.9534 7.4445 -2.4948 0.9689
-1.2184 7.4056 -2.4948 0.9689
-1.4819 7.3573 -2.4947 0.9689
-3.0113 6.8743 -2.4947 0.9689
-3.2547 6.7625 -2.4947 0.9689
-3.9589 6.3762 -2.4948 0.9689
-4.1839 6.2310 -2.4948 0.9689
-4.4037 6.0778 -2.4949 0.9689
-5.0284 5.5729 -2.4951 0.9689
-5.2241 5.3901 -2.4952 0.9689
-5.7709 4.8016 -2.4954 0.9689
-5.9388 4.5927 -2.4955 0.9688
-6.0992 4.3782 -2.4957 0.9688
-6.2518 4.1579 -2.4958 0.9688
-6.5331 3.7019 -2.4960 0.9688
2.9948 -0.2589 -1.0750 0.9873
2.9992 -0.0446 -1.0727 0.9873
2.9959 0.1695 -1.0731 0.9873
3.0222 0.2795 -1.0854 0.9872
6.8562 1.3846 -2.5013 0.9707
6.8019 1.6282 -2.5011 0.9707
6.7390 1.8697 -2.5009 0.9707
6.6675 2.1088 -2.5007 0.9707
6.5874 2.3452 -2.5005 0.9707
6.4991 2.5785 -2.5004 0.9707
6.0642 3.4759 -2.4996 0.9707
5.9359 3.6897 -2.4994 0.9707
5.6568 4.1031 -2.4990 0.9707
5.0141 4.8647 -2.4983 0.9708
4.8370 5.0402 -2.4981 0.9708
4.6535 5.2091 -2.4979 0.9708
4.4646 5.3715 -2.4978 0.9708
4.2698 5.5270 -2.4976 0.9708
3.8643 5.8167 -2.4973 0.9708
3.6540 5.9505 -2.4971 0.9708
3.4392 6.0768 -2.4970 0.9708
2.3054 6.5889 -2.4963 0.9708
2.0687 6.6667 -2.4962 0.9708
1.8294 6.7359 -2.4961 0.9708
1.3443 6.8486 -2.4959 0.9708
0.8524 6.9265 -2.4957 0.9708
0.6047 6.9523 -2.4956 0.9708
0.3562 6.9692 -2.4955 0.9708
0.1073 6.9773 -2.4954 0.9708
-0.6389 6.9483 -2.4952 0.9708
-0.8863 6.9210 -2.4952 0.9708
-1.1327 6.8848 -2.4952 0.9708
-1.3777 6.8399 -2.4951 0.9708
-2.1006 6.6534 -2.4951 0.9708
-2.3367 6.5742 -2.4951 0.9708
-2.7996 6.3908 -2.4951 0.9708
-3.4666 6.0552 -2.4951 0.9708
-3.6805 5.9278 -2.4952 0.9708
-3.8897 5.7928 -2.4952 0.9708
-4.0940 5.6504 -2.4953 0.9708
-4.2931 5.5009 -2.4953 0.9708
-4.4867 5.3443 -2.4954 0.9708
-4.8567 5.0110 -2.4955 0.9708
-5.0326 4.8347 -2.4956 0.9708
-5.5210 4.2697 -2.4959 0.9708
-5.8120 3.8654 -2.4961 0.9708
-5.9465 3.6558 -2.4962 0.9708
-6.0734 3.4414 -2.4963 0.9708
2.8811 0.0600 -1.1043 0.9877
2.8778 0.1628 -1.1046 0.9877
2.9314 0.3770 -1.1326 0.9874
6.3979 1.2920 -2.5013 0.9724
6.3472 1.5194 -2.5011 0.9724
6.2885 1.7447 -2.5009 0.9724
6.0648 2.4062 -2.5004 0.9724
5.9746 2.6209 -2.5002 0.9724
5.6591 3.2437 -2.4996 0.9724
5.5394 3.4432 -2.4995 0.9724
5.1386 4.0146 -2.4989 0.9725
4.9918 4.1951 -2.4988 0.9725
3.9847 5.1580 -2.4978 0.9725
3.6063 5.4284 -2.4975 0.9725
3.4101 5.5534 -2.4974 0.9725
3.2096 5.6712 -2.4972 0.9725
3.0051 5.7818 -2.4971 0.9725
2.7967 5.8850 -2.4969 0.9725
2.1515 6.1492 -2.4966 0.9725
1.7074 6.2865 -2.4964 0.9725
1.4819 6.3431 -2.4963 0.9725
0.7955 6.4645 -2.4960 0.9725
0.5643 6.4885 -2.4959 0.9725
0.3324 6.5044 -2.4958 0.9725
0.1001 6.5119 -2.4958 0.9725
-0.1323 6.5112 -2.4957 0.9725
-1.0572 6.4256 -2.4955 0.9725
-1.2858 6.3837 -2.4955 0.9725
-1.9605 6.2096 -2.4954 0.9725
-2.1808 6.1357 -2.4954 0.9725
-2.3984 6.0540 -2.4954 0.9725
-2.6129 5.9646 -2.4954 0.9725
-2.8240 5.8676 -2.4954 0.9725
-3.4350 5.5324 -2.4955 0.9725
-3.8209 5.2735 -2.4956 0.9725
-4.0067 5.1339 -2.4957 0.9725
-4.1875 4.9878 -2.4957 0.9725
-4.3629 4.8354 -2.4958 0.9725
-4.5328 4.6767 -2.4959 0.9725
-4.6969 4.5121 -2.4959 0.9725
-4.8550 4.3419 -2.4960 0.9725
-5.2918 3.7986 -2.4963 0.9725
-5.4242 3.6075 -2.4964 0.9725
-5.7794 3.0076 -2.4967 0.9725
2.7639 -0.3387 -1.1397 0.9880
2.7713 -0.1402 -1.1357 0.9881
2.7726 -0.0412 -1.1349 0.9881
2.7724 0.0578 -1.1349 0.9881
2.7803 0.2571 -1.1428 0.9880
3.1154 0.5142 -1.2923 0.9864
5.8881 1.6336 -2.5009 0.9739
5.7558 2.0491 -2.5005 0.9739
5.5028 2.6520 -2.5000 0.9739
5.4043 2.8464 -2.4999 0.9739
5.1868 3.2241 -2.4995 0.9739
4.8117 3.7592 -2.4990 0.9740
4.6742 3.9282 -2.4989 0.9740
4.5307 4.0923 -2.4987 0.9740
4.3816 4.2510 -2.4986 0.9740
4.2268 4.4044 -2.4984 0.9740
3.9015 4.6940 -2.4981 0.9740
3.7313 4.8300 -2.4980 0.9740
3.3770 5.0832 -2.4977 0.9740
3.0055 5.3106 -2.4974 0.9740
2.2190 5.6830 -2.4969 0.9740
1.8079 5.8263 -2.4967 0.9740
1.5988 5.8869 -2.4966 0.9740
0.9605 6.0234 -2.4964 0.9740
0.3113 6.0910 -2.4961 0.9740
0.0938 6.0980 -2.4961 0.9740
-0.1239 6.0973 -2.4960 0.9740
-0.3413 6.0889 -2.4960 0.9740
-0.7747 6.0489 -2.4959 0.9740
-0.9900 6.0173 -2.4958 0.9740
-1.4166 5.9313 -2.4958 0.9740
-1.8359 5.8150 -2.4958 0.9740
-2.0422 5.7458 -2.4957 0.9740
-2.2459 5.6693 -2.4957 0.9740
-2.4468 5.5855 -2.4958 0.9740
-2.6446 5.4947 -2.4958 0.9740
-3.0298 5.2922 -2.4958 0.9740
-3.2167 5.1808 -2.4958 0.9740
-3.3996 5.0629 -2.4959 0.9740
-3.9213 4.6708 -2.4960 0.9740
-4.0856 4.5280 -2.4961 0.9740
-4.3984 4.2254 -2.4962 0.9740
-5.0794 3.3782 -2.4967 0.9740
-5.1969 3.1949 -2.4968 0.9740
2.6831 -0.3288 -1.1781 0.9883
2.6879 -0.2324 -1.1758 0.9883
2.6910 -0.0400 -1.1729 0.9883
2.6893 0.0560 -1.1723 0.9883
2.6934 0.1524 -1.1757 0.9883
2.6927 0.2490 -1.1785 0.9883
2.7558 0.4548 -1.2173 0.9879
5.6255 1.1361 -2.5012 0.9753
5.5810 1.3360 -2.5010 0.9753
5.4708 1.7304 -2.5007 0.9753
5.1677 2.4904 -2.5001 0.9753
5.0752 2.6731 -2.4999 0.9753
4.3897 3.6891 -2.4990 0.9753
4.2550 3.8432 -2.4988 0.9753
3.8193 4.2751 -2.4984 0.9753
3.5043 4.5361 -2.4981 0.9753
2.9990 4.8839 -2.4977 0.9753
2.8227 4.9875 -2.4976 0.9753
2.4601 5.1756 -2.4974 0.9753
2.2733 5.2599 -2.4973 0.9753
2.0840 5.3374 -2.4972 0.9753
1.8922 5.4081 -2.4971 0.9753
1.3033 5.5787 -2.4968 0.9753
0.9021 5.6571 -2.4966 0.9753
0.4963 5.7067 -2.4965 0.9753
0.0881 5.7272 -2.4963 0.9753
-0.1163 5.7266 -2.4963 0.9753
-0.5244 5.7035 -2.4962 0.9753
-0.7276 5.6811 -2.4961 0.9753
-0.9298 5.6514 -2.4961 0.9753
-1.3304 5.5707 -2.4961 0.9753
-1.5284 5.5196 -2.4961 0.9753
-1.7243 5.4615 -2.4960 0.9753
-1.9181 5.3965 -2.4960 0.9753
-2.1094 5.3246 -2.4960 0.9753
-2.2989 5.2460 -2.4960 0.9753
-2.4838 5.1607 -2.4961 0.9753
-2.6664 5.0688 -2.4961 0.9753
-2.8456 4.9705 -2.4961 0.9753
-3.0211 4.8659 -2.4961 0.9753
-3.8372 4.2527 -2.4964 0.9753
-3.9866 4.1132 -2.4964 0.9753
-4.1309 3.9685 -2.4965 0.9753
-4.2700 3.8186 -2.4966 0.9753
-4.4037 3.6639 -2.4966 0.9753
-4.5318 3.5046 -2.4967 0.9753
-4.6541 3.3408 -2.4968 0.9753
-5.0828 2.6451 -2.4972 0.9753
2.6143 -0.2260 -1.2147 0.9885
2.6175 -0.1324 -1.2131 0.9885
2.6174 -0.0389 -1.2117 0.9885
2.6131 0.1479 -1.2115 0.9885
5.2964 1.0696 -2.5011 0.9765
5.2546 1.2579 -2.5010 0.9765
5.2061 1.4444 -2.5008 0.9765
5.1509 1.6292 -2.5007 0.9765
5.0210 1.9921 -2.5004 0.9765
4.6854 2.6856 -2.4998 0.9765
4.5863 2.8509 -2.4996 0.9765
4.4814 3.0125 -2.4995 0.9765
4.2547 3.3240 -2.4992 0.9765
4.0063 3.6186 -2.4989 0.9765
3.8745 3.7590 -2.4988 0.9765
3.4500 4.1509 -2.4984 0.9765
2.9863 4.4951 -2.4980 0.9765
2.8238 4.5986 -2.4979 0.9765
2.6578 4.6962 -2.4978 0.9765
1.9623 5.0256 -2.4974 0.9765
1.4142 5.2060 -2.4971 0.9765
1.0390 5.2932 -2.4969 0.9765
0.8494 5.3267 -2.4968 0.9765
-0.3019 5.3848 -2.4965 0.9765
-0.4938 5.3706 -2.4964 0.9765
-0.6851 5.3495 -2.4964 0.9765
-0.8755 5.3216 -2.4964 0.9765
-1.4393 5.1974 -2.4963 0.9765
-1.6237 5.1427 -2.4963 0.9765
-1.9863 5.0138 -2.4963 0.9765
-2.1639 4.9398 -2.4963 0.9765
-2.5107 4.7729 -2.4963 0.9765
-2.8448 4.5818 -2.4964 0.9765
-3.0065 4.4774 -2.4964 0.9765
-3.1644 4.3674 -2.4965 0.9765
-3.6132 4.0045 -2.4966 0.9765
-3.7538 3.8731 -2.4967 0.9765
-4.0207 3.5957 -2.4968 0.9765
-4.1465 3.4500 -2.4969 0.9765
-4.2671 3.3000 -2.4969 0.9765
-4.4919 2.9875 -2.4971 0.9765
-4.5958 2.8254 -2.4972 0.9765
-4.6939 2.6597 -2.4973 0.9765
2.5858 -0.2236 -1.2731 0.9885
2.5868 -0.0384 -1.2690 0.9885
2.5885 0.0539 -1.2700 0.9885
2.5914 0.2396 -1.2765 0.9885
2.5895 0.3330 -1.2807 0.9884
2.9335 0.5924 -1.4680 0.9868
4.9127 1.3630 -2.5008 0.9775
4.8606 1.5373 -2.5007 0.9775
4.6677 2.0476 -2.5003 0.9775
4.4215 2.5343 -2.4998 0.9776
4.2290 2.8428 -2.4996 0.9776
4.1247 2.9917 -2.4994 0.9776
4.0151 3.1369 -2.4993 0.9776
3.9004 3.2779 -2.4991 0.9776
3.1138 4.0306 -2.4984 0.9776
2.8182 4.2421 -2.4982 0.9776
2.6649 4.3397 -2.4980 0.9776
2.5082 4.4318 -2.4979 0.9776
2.1856 4.5990 -2.4977 0.9776
1.8519 4.7428 -2.4975 0.9776
1.5088 4.8625 -2.4973 0.9776
1.1582 4.9574 -2.4972 0.9776
0.9805 4.9954 -2.4971 0.9776
0.8016 5.0271 -2.4970 0.9776
0.6217 5.0523 -2.4970 0.9776
0.4410 5.0712 -2.4969 0.9776
0.2598 5.0836 -2.4969 0.9776
-0.2849 5.0819 -2.4967 0.9776
-0.4660 5.0684 -2.4967 0.9776
-1.0049 4.9894 -2.4966 0.9776
-1.3582 4.9050 -2.4965 0.9776
-2.2072 4.5860 -2.4966 0.9776
-2.3695 4.5044 -2.4966 0.9776
-2.5287 4.4170 -2.4966 0.9776
-2.8373 4.2255 -2.4966 0.9776
-3.1316 4.0126 -2.4967 0.9776
-3.2728 3.8983 -2.4968 0.9776
-3.5426 3.6552 -2.4969 0.9776
-3.9132 3.2559 -2.4971 0.9776
-4.1357 2.9687 -2.4972 0.9776
-4.2391 2.8194 -2.4973 0.9776
-4.5166 2.3505 -2.4976 0.9776
2.5657 -0.2218 -1.3360 0.9885
2.5658 -0.1298 -1.3328 0.9885
2.5663 -0.0381 -1.3315 0.9885
2.5665 0.0535 -1.3317 0.9885
2.5677 0.2374 -1.3378 0.9884
2.5651 0.3299 -1.3417 0.9884
2.6389 0.5329 -1.3966 0.9879
4.6883 1.1223 -2.5009 0.9785
4.6451 1.2887 -2.5008 0.9785
4.5959 1.4536 -2.5007 0.9785
4.5409 1.6166 -2.5005 0.9785
4.4800 1.7775 -2.5004 0.9785
4.4135 1.9361 -2.5003 0.9785
4.3414 2.0922 -2.5001 0.9785
4.2638 2.2457 -2.5000 0.9785
4.1807 2.3963 -2.4999 0.9785
3.9987 2.6880 -2.4996 0.9785
3.9001 2.8288 -2.4995 0.9785
3.7965 2.9661 -2.4993 0.9785
3.5749 3.2289 -2.4991 0.9785
3.4573 3.3543 -2.4990 0.9785
3.3352 3.4753 -2.4989 0.9785
3.0786 3.7040 -2.4986 0.9785
2.8063 3.9137 -2.4984 0.9785
2.6648 4.0112 -2.4983 0.9785
2.5199 4.1036 -2.4982 0.9785
2.0667 4.3488 -2.4979 0.9785
1.5900 4.5443 -2.4976 0.9785
1.4268 4.5979 -2.4975 0.9785
1.2618 4.6458 -2.4974 0.9785
1.0952 4.6877 -2.4974 0.9785
0.5879 4.7775 -2.4972 0.9785
0.0740 4.8127 -2.4970 0.9785
-0.0977 4.8121 -2.4970 0.9785
-0.6114 4.7739 -2.4968 0.9785
-1.1180 4.6811 -2.4968 0.9785
-1.2843 4.6382 -2.4968 0.9785
-1.4490 4.5894 -2.4968 0.9785
-1.6118 4.5348 -2.4967 0.9785
-1.7726 4.4744 -2.4967 0.9785
-2.5387 4.0888 -2.4968 0.9785
-2.6830 3.9957 -2.4969 0.9785
-2.8239 3.8975 -2.4969 0.9785
-2.9612 3.7943 -2.4969 0.9785
-3.5881 3.2088 -2.4972 0.9785
-3.8080 2.9449 -2.4973 0.9785
-3.9107 2.8072 -2.4974 0.9785
-4.0085 2.6660 -2.4975 0.9785
-4.1012 2.5214 -2.4975 0.9785
-4.1887 2.3735 -2.4976 0.9785
2.5447 -0.3118 -1.4042 0.9884
2.5455 -0.2201 -1.3994 0.9884
2.5462 -0.0378 -1.3947 0.9885
2.5462 0.0530 -1.3949 0.9885
2.6091 0.5269 -1.4579 0.9879
4.4407 1.0630 -2.5009 0.9794
4.3997 1.2207 -2.5008 0.9794
4.2435 1.6836 -2.5004 0.9794
4.1805 1.8339 -2.5003 0.9794
4.1122 1.9817 -2.5001 0.9794
3.5961 2.8095 -2.4994 0.9794
3.0396 3.4024 -2.4988 0.9794
2.7890 3.6102 -2.4986 0.9794
2.5242 3.7996 -2.4984 0.9794
2.3869 3.8870 -2.4983 0.9794
1.9577 4.1194 -2.4980 0.9794
1.8094 4.1864 -2.4979 0.9794
1.6588 4.2482 -2.4978 0.9794
1.5061 4.3046 -2.4978 0.9794
1.0374 4.4404 -2.4975 0.9794
0.7181 4.5029 -2.4974 0.9794
0.3951 4.5424 -2.4973 0.9794
0.2327 4.5535 -2.4972 0.9794
-0.0926 4.5583 -2.4971 0.9794
-0.2552 4.5521 -2.4971 0.9794
-0.5791 4.5221 -2.4970 0.9794
-1.3726 4.3474 -2.4969 0.9794
-1.9771 4.1079 -2.4970 0.9794
-2.6750 3.6919 -2.4971 0.9794
-2.9316 3.4919 -2.4972 0.9794
-3.0543 3.3851 -2.4972 0.9794
-3.1732 3.2740 -2.4972 0.9794
-3.7044 2.6591 -2.4976 0.9794
-3.8849 2.3884 -2.4977 0.9794
-3.9677 2.2483 -2.4978 0.9794
-4.0456 2.1054 -2.4979 0.9794
2.5236 -0.0375 -1.4572 0.9884
2.5238 0.0526 -1.4574 0.9884
2.5258 0.1429 -1.4606 0.9884
2.5248 0.2335 -1.4639 0.9884
2.5840 0.5218 -1.5220 0.9879
4.1738 1.1580 -2.5008 0.9802
4.1296 1.3061 -2.5006 0.9802
3.9658 1.7397 -2.5003 0.9802
3.9010 1.8800 -2.5002 0.9802
3.7567 2.1532 -2.4999 0.9802
3.6773 2.2858 -2.4998 0.9802
3.5932 2.4154 -2.4997 0.9802
3.4115 2.6653 -2.4995 0.9802
3.2125 2.9015 -2.4992 0.9802
3.1067 3.0142 -2.4991 0.9802
2.7665 3.3285 -2.4988 0.9802
2.6459 3.4249 -2.4987 0.9802
2.3947 3.6046 -2.4985 0.9802
2.2644 3.6876 -2.4984 0.9802
1.5737 4.0303 -2.4980 0.9802
1.4288 4.0837 -2.4979 0.9802
1.2822 4.1320 -2.4978 0.9802
0.9842 4.2127 -2.4977 0.9802
0.2208 4.3200 -2.4974 0.9802
0.0665 4.3250 -2.4974 0.9802
-0.0878 4.3246 -2.4973 0.9802
-0.2421 4.3186 -2.4973 0.9802
-0.3960 4.3072 -2.4972 0.9802
-0.5495 4.2903 -2.4972 0.9802
-1.1542 4.1683 -2.4971 0.9802
-1.3022 4.1245 -2.4971 0.9802
-1.4485 4.0754 -2.4971 0.9802
-1.7355 3.9617 -2.4971 0.9802
-1.8757 3.8973 -2.4971 0.9802
-2.0136 3.8279 -2.4972 0.9802
-2.1489 3.7536 -2.4972 0.9802
-2.2815 3.6746 -2.4972 0.9802
-2.5378 3.5026 -2.4973 0.9802
-2.7812 3.3128 -2.4973 0.9802
-3.2245 2.8836 -2.4975 0.9802
-3.3254 2.7668 -2.4976 0.9802
-3.4221 2.6465 -2.4976 0.9802
-3.6023 2.3958 -2.4978 0.9802
-3.8381 1.9973 -2.4980 0.9802
