ply
format ascii 1.0
element vertex 1215
property float32 x
property float32 y
property float32 z
property float32 I
end_header
-42.2416 -24.4565 8.6066 0.8202
-39.0790 -24.5386 8.1365 0.8291
-34.8385 -23.6601 7.4257 0.8428
-33.8784 -26.7500 7.6113 0.8392
-34.1458 -29.0094 7.9003 0.8336
-29.5405 -31.1498 7.5696 0.8400
-27.8405 -31.5515 7.4196 0.8429
-25.9431 -34.0397 7.5466 0.8404
-23.7173 -36.2436 7.6374 0.8387
-21.9311 -36.2927 7.4771 0.8418
-20.3017 -36.4929 7.3634 0.8440
-12.2043 -23.9198 4.7350 0.8967
-12.3758 -26.5698 5.1682 0.8878
-12.3205 -36.1771 6.7388 0.8562
-10.7331 -40.9282 7.4608 0.8421
-6.1546 -41.0543 7.3199 0.8448
-4.6602 -41.0954 7.2927 0.8454
-3.1750 -41.1363 7.2750 0.8457
-1.6951 -41.1771 7.2668 0.8459
1.2642 -41.2587 7.2784 0.8456
2.7512 -41.2997 7.2984 0.8453
4.2484 -41.3410 7.3279 0.8447
5.7597 -41.3827 7.3672 0.8439
8.8693 -41.5983 7.4998 0.8413
9.6659 -38.5037 6.9999 0.8511
9.7073 -33.5254 6.1542 0.8678
10.1418 -27.4749 5.1641 0.8878
16.9276 -37.3635 7.2328 0.8465
8.8813 -17.8683 3.5184 0.9222
8.8733 -16.3524 3.2805 0.9272
20.8449 -35.3289 7.2329 0.8465
22.8007 -32.9849 7.0704 0.8497
28.5417 -30.7374 7.3961 0.8434
30.7240 -28.6596 7.4085 0.8431
27.1654 -18.8693 5.8322 0.8743
-28.8369 12.4738 4.8132 0.8806
-31.6875 12.3770 5.2115 0.8714
-42.5766 -24.6504 7.5368 0.8195
-34.7824 -23.6219 6.4411 0.8435
-35.0894 -25.7173 6.6647 0.8386
-34.7406 -27.4307 6.7811 0.8360
-35.1287 -29.8444 7.0614 0.8298
-35.1945 -32.1444 7.3019 0.8246
-34.7779 -34.1317 7.4649 0.8210
-31.3198 -38.1719 7.5642 0.8189
-29.4145 -38.5946 7.4339 0.8217
-26.4985 -40.4937 7.4136 0.8222
-12.6275 -33.1324 5.4318 0.8663
-12.4743 -41.4459 6.6306 0.8393
9.7811 -33.7804 5.3876 0.8673
19.1186 -42.1995 7.0972 0.8290
8.8811 -17.8680 3.0568 0.9224
22.7088 -41.8497 7.2942 0.8247
23.4512 -39.7458 7.0697 0.8297
28.0895 -37.6710 7.1987 0.8268
30.7553 -35.6020 7.2073 0.8266
32.5129 -32.5869 7.0519 0.8300
32.3759 -26.1208 6.3728 0.8451
-26.0538 12.3979 3.7573 0.8901
-28.9906 12.5403 4.1132 0.8804
-34.8507 -23.6683 5.4859 0.8437
-34.9782 -27.6183 5.8036 0.8355
-35.0624 -29.7880 5.9911 0.8306
-12.2403 -23.9902 3.5072 0.8971
-12.6145 -29.8348 4.2181 0.8775
-12.7424 -42.3367 5.7574 0.8367
9.5636 -38.0965 5.1149 0.8535
32.0565 -37.1083 6.3857 0.8205
32.2672 -34.7495 6.1751 0.8259
32.5103 -28.2137 5.6055 0.8406
23.4576 -18.9255 3.9249 0.8855
-26.0548 12.3984 3.0984 0.8904
-28.9918 12.5408 3.3920 0.8807
-34.7945 -23.6301 4.5165 0.8443
-35.3464 -32.2831 5.1404 0.8248
-12.2400 -23.9898 2.8920 0.8973
-12.6449 -37.1296 4.2119 0.8540
8.8808 -17.8674 2.1426 0.9229
32.9209 -30.7087 4.8343 0.8343
32.5421 -28.2412 4.6268 0.8409
32.6486 -26.3408 4.5046 0.8447
-41.4235 6.5596 3.5503 0.8451
-12.2398 -23.9894 2.2798 0.8975
-12.7691 -42.4253 3.7506 0.8371
10.0997 -24.6050 2.2515 0.8987
8.8807 -17.8671 1.6890 0.9230
32.2545 -34.7358 4.0127 0.8267
32.8360 -32.9107 3.9355 0.8298
-24.3720 11.5976 1.6737 0.8975
-32.1758 12.5677 2.1420 0.8707
-36.2501 12.6798 2.3814 0.8573
-34.8688 -23.6806 2.6137 0.8446
-12.0062 -23.5315 1.6382 0.8995
8.8805 -17.8668 1.2372 0.9232
-40.3205 10.9298 1.6473 0.8460
-34.2521 -23.2618 1.6326 0.8473
-12.0060 -23.5311 1.0416 0.8996
-12.6222 -41.9373 1.7269 0.8392
9.9068 -24.1350 1.0287 0.9008
10.9474 -24.1637 1.0460 0.8993
32.0979 -25.8965 1.6262 0.8478
33.1976 -24.8714 1.6356 0.8470
-32.2079 12.5803 0.5841 0.8708
-36.1162 12.6330 0.6463 0.8581
-41.7060 11.3054 0.7299 0.8412
-34.2580 -23.2658 0.6995 0.8473
-12.6220 -41.9366 0.7398 0.8393
10.9472 -24.1632 0.4481 0.8993
8.8803 -17.8662 0.3370 0.9233
31.9819 -25.8029 0.6941 0.8484
-22.1854 10.5571 -0.1383 0.9064
-27.3204 10.6712 -0.1653 0.8893
-30.8516 10.7915 -0.1840 0.8774
-35.1275 10.8892 -0.2071 0.8632
-43.5174 -17.4450 -0.2640 0.8290
-39.3722 -17.4480 -0.2425 0.8418
-32.7888 -17.4438 -0.2091 0.8619
-30.1319 -17.4453 -0.1960 0.8700
-23.8174 -17.4559 -0.1663 0.8886
-22.1045 -17.4534 -0.1586 0.8935
-20.5410 -17.4511 -0.1518 0.8978
-17.7817 -17.4513 -0.1403 0.9051
-16.5490 -17.4505 -0.1354 0.9083
-11.4158 -17.4450 -0.1174 0.9200
-7.3740 -17.4404 -0.1066 0.9271
-6.6471 -17.4406 -0.1051 0.9281
-5.9397 -17.4409 -0.1037 0.9290
-4.5739 -17.4414 -0.1015 0.9304
-3.2585 -17.4419 -0.0999 0.9315
-1.3466 -17.4469 -0.0985 0.9324
-0.7182 -17.4461 -0.0983 0.9325
1.1621 -17.4440 -0.0984 0.9325
3.0702 -17.4478 -0.0997 0.9316
3.7200 -17.4472 -0.1004 0.9311
4.3797 -17.4465 -0.1013 0.9306
8.8801 -17.8660 -0.1123 0.9233
31.3065 -36.2401 -0.2696 0.8257
31.6423 -25.5290 -0.2289 0.8499
-24.4287 10.5670 -0.7495 0.8990
-27.2529 10.6449 -0.8238 0.8895
-30.6084 10.7064 -0.9131 0.8783
-34.9214 10.8254 -1.0295 0.8639
-43.5188 -17.4455 -1.3202 0.8289
-35.8395 -17.4468 -1.1224 0.8526
-30.1314 -17.4450 -0.9804 0.8699
-27.7879 -17.4487 -0.9239 0.8770
-25.6879 -17.4456 -0.8744 0.8832
-22.1027 -17.4520 -0.7930 0.8934
-20.5395 -17.4497 -0.7589 0.8978
-19.1033 -17.4477 -0.7285 0.9016
-17.7804 -17.4499 -0.7015 0.9051
-15.3966 -17.4486 -0.6552 0.9111
-14.3161 -17.4480 -0.6355 0.9136
-12.3318 -17.4449 -0.6016 0.9181
-8.9005 -17.4443 -0.5514 0.9246
-6.6471 -17.4407 -0.5256 0.9280
-5.9397 -17.4410 -0.5188 0.9289
-3.9109 -17.4417 -0.5033 0.9310
-1.9786 -17.4476 -0.4944 0.9321
-0.7182 -17.4462 -0.4917 0.9325
1.7926 -17.4434 -0.4938 0.9322
2.4277 -17.4427 -0.4959 0.9320
3.0702 -17.4477 -0.4988 0.9316
3.7200 -17.4471 -0.5023 0.9311
4.3797 -17.4464 -0.5065 0.9305
5.0514 -17.4457 -0.5114 0.9299
6.4393 -17.4443 -0.5236 0.9283
8.8800 -17.8656 -0.5617 0.9233
21.6601 -26.9722 -0.9741 0.8707
31.3066 -36.2402 -1.3485 0.8256
31.4533 -31.5249 -1.2539 0.8368
31.5832 -27.4092 -1.1775 0.8459
31.6426 -25.5292 -1.1448 0.8499
31.6988 -23.7486 -1.1153 0.8534
32.9496 -22.8870 -1.1296 0.8517
35.7300 -22.9629 -1.1959 0.8437
-24.3533 10.5344 -1.3457 0.8992
-34.9235 10.8260 -1.8543 0.8638
-44.0099 10.2500 -2.2917 0.8344
-48.0164 9.3808 -2.4812 0.8221
-48.3444 7.6555 -2.4823 0.8220
-48.6108 5.9188 -2.4835 0.8219
-48.8152 4.1728 -2.4847 0.8218
-48.9574 2.4199 -2.4859 0.8217
-49.0370 0.6620 -2.4871 0.8217
-49.0538 -1.0984 -2.4883 0.8216
-48.8988 -4.6181 -2.4909 0.8214
-47.4145 -13.3062 -2.4975 0.8210
-43.5608 -15.6729 -2.3478 0.8308
-42.9934 -17.2350 -2.3490 0.8307
-39.3662 -17.4453 -2.1837 0.8416
-35.8370 -17.4456 -2.0214 0.8525
-30.1309 -17.4448 -1.7657 0.8698
-25.6884 -17.4459 -1.5748 0.8831
-22.1010 -17.4506 -1.4281 0.8933
-20.5379 -17.4484 -1.3667 0.8977
-19.1020 -17.4464 -1.3120 0.9016
-17.7790 -17.4486 -1.2633 0.9050
-16.5466 -17.4480 -1.2195 0.9082
-13.2954 -17.4447 -1.1123 0.9159
-11.4154 -17.4445 -1.0573 0.9199
-6.6471 -17.4408 -0.9466 0.9280
-5.9398 -17.4411 -0.9344 0.9289
-5.2495 -17.4413 -0.9237 0.9296
-4.5739 -17.4416 -0.9144 0.9303
-3.9109 -17.4418 -0.9065 0.9309
-1.9786 -17.4476 -0.8905 0.9321
-0.7182 -17.4462 -0.8855 0.9325
-0.0917 -17.4455 -0.8847 0.9325
0.5345 -17.4448 -0.8851 0.9325
1.7926 -17.4434 -0.8893 0.9322
3.0702 -17.4476 -0.8984 0.9315
5.0514 -17.4456 -0.9211 0.9298
7.1601 -17.4435 -0.9563 0.9273
29.4093 -36.6218 -2.3820 0.8285
31.3823 -33.7966 -2.3389 0.8313
31.4520 -31.5236 -2.2583 0.8366
31.5836 -27.4095 -2.1208 0.8458
31.6991 -23.7488 -2.0087 0.8533
32.9485 -22.8862 -2.0345 0.8516
-22.0022 10.4699 -1.7866 0.9069
-24.3543 10.5348 -1.9456 0.8990
-27.1701 10.6126 -2.1387 0.8896
-29.2642 10.2362 -2.2732 0.8831
-30.3966 9.4227 -2.3334 0.8802
-30.7243 8.3285 -2.3341 0.8801
-33.0256 7.6918 -2.4863 0.8728
-33.5133 5.3070 -2.4879 0.8728
-33.6931 4.1024 -2.4887 0.8727
-33.8299 2.8918 -2.4895 0.8727
-33.9233 1.6767 -2.4904 0.8726
-33.9733 0.4586 -2.4912 0.8726
-33.9797 -0.7608 -2.4921 0.8726
-33.9425 -1.9803 -2.4930 0.8725
-33.7373 -4.4124 -2.4948 0.8724
-33.5694 -5.6221 -2.4957 0.8724
-33.3583 -6.8254 -2.4966 0.8724
-33.1041 -8.0209 -2.4975 0.8723
-32.8071 -9.2069 -2.4984 0.8723
-32.0862 -11.5445 -2.5003 0.8722
-31.6631 -12.6929 -2.5012 0.8721
-30.6942 -14.9420 -2.5031 0.8720
-27.7635 -16.0741 -2.3522 0.8793
-23.8115 -17.4516 -2.1646 0.8883
-22.0993 -17.4492 -2.0646 0.8932
-20.5364 -17.4471 -1.9758 0.8976
-19.1006 -17.4452 -1.8967 0.9014
-17.7777 -17.4473 -1.8264 0.9049
-16.5454 -17.4467 -1.7630 0.9081
-15.3944 -17.4462 -1.7060 0.9109
-14.3141 -17.4456 -1.6546 0.9135
-11.4152 -17.4442 -1.5286 0.9198
-9.7043 -17.4439 -1.4636 0.9231
-8.9002 -17.4438 -1.4359 0.9245
-7.3741 -17.4407 -1.3884 0.9269
-6.6472 -17.4409 -1.3685 0.9279
-5.2495 -17.4414 -1.3355 0.9296
-4.5739 -17.4416 -1.3221 0.9302
-3.2586 -17.4421 -1.3010 0.9313
-1.9786 -17.4476 -1.2875 0.9320
-0.0917 -17.4455 -1.2792 0.9324
0.5345 -17.4448 -1.2797 0.9324
1.1621 -17.4441 -1.2819 0.9323
1.7926 -17.4434 -1.2857 0.9321
2.4277 -17.4427 -1.2913 0.9318
3.7199 -17.4468 -1.3080 0.9310
4.3797 -17.4462 -1.3189 0.9304
5.7371 -17.4448 -1.3465 0.9290
8.8797 -17.8651 -1.4628 0.9231
12.6088 -23.2366 -1.9384 0.8994
19.5885 -28.3380 -2.5259 0.8710
24.3164 -24.3716 -2.5243 0.8710
25.1711 -23.4797 -2.5239 0.8710
25.9928 -22.5575 -2.5235 0.8711
28.2494 -19.6222 -2.5220 0.8711
28.9289 -18.5919 -2.5214 0.8712
-21.4959 10.2290 -2.2855 0.9088
-22.3260 9.6574 -2.3353 0.9069
-22.6628 8.8520 -2.3358 0.9069
-23.6049 8.2567 -2.4008 0.9044
-25.0235 6.7832 -2.4891 0.9011
-25.2566 5.8823 -2.4897 0.9010
-25.4575 4.9736 -2.4903 0.9010
-25.6258 4.0579 -2.4909 0.9010
-25.7613 3.1366 -2.4915 0.9010
-25.9693 0.3506 -2.4934 0.9009
-25.9721 -0.5816 -2.4941 0.9009
-25.8776 -2.4439 -2.4954 0.9008
-25.4863 -5.2148 -2.4975 0.9007
-25.2899 -6.1276 -2.4982 0.9007
-24.9866 -7.0121 -2.4915 0.9010
-24.7995 -7.9299 -2.4996 0.9007
-24.1806 -9.6934 -2.5010 0.9006
-23.0186 -12.2460 -2.5032 0.9005
-22.5707 -13.0677 -2.5039 0.9005
-22.0935 -13.8730 -2.5046 0.9005
-21.5875 -14.6608 -2.5053 0.9004
-18.1134 -16.5436 -2.3551 0.9061
-16.5442 -17.4454 -2.3082 0.9079
-15.3933 -17.4449 -2.2336 0.9107
-14.3131 -17.4445 -2.1663 0.9133
-13.2949 -17.4441 -2.1057 0.9156
-11.4150 -17.4439 -2.0014 0.9196
-10.5410 -17.4438 -1.9567 0.9214
-9.7041 -17.4436 -1.9164 0.9229
-8.9001 -17.4435 -1.8801 0.9243
-8.1249 -17.4434 -1.8474 0.9256
-7.3742 -17.4407 -1.8179 0.9267
-6.6472 -17.4410 -1.7919 0.9277
-5.9398 -17.4412 -1.7689 0.9286
-5.2495 -17.4415 -1.7487 0.9294
-4.5740 -17.4418 -1.7311 0.9301
-3.9110 -17.4420 -1.7161 0.9307
-1.3466 -17.4470 -1.6800 0.9321
-0.0917 -17.4456 -1.6749 0.9323
1.1621 -17.4442 -1.6784 0.9322
1.7926 -17.4435 -1.6835 0.9320
2.4277 -17.4428 -1.6907 0.9317
3.7199 -17.4468 -1.7126 0.9308
4.3796 -17.4461 -1.7269 0.9303
5.0513 -17.4454 -1.7436 0.9296
7.1600 -17.4432 -1.8102 0.9270
11.7822 -21.7132 -2.3717 0.9055
13.2853 -20.7754 -2.3675 0.9057
17.1538 -19.8570 -2.5192 0.8999
18.5296 -18.5717 -2.5186 0.8999
19.1816 -17.8927 -2.5183 0.9000
19.8084 -17.1906 -2.5180 0.9000
21.5314 -14.9559 -2.5169 0.9000
-17.7683 8.4551 -2.3374 0.9238
-20.0286 6.2087 -2.4908 0.9190
-20.2422 5.4871 -2.4913 0.9190
-20.4299 4.7582 -2.4917 0.9190
-20.5914 4.0229 -2.4922 0.9190
-20.7266 3.2821 -2.4927 0.9189
-20.9171 1.7880 -2.4937 0.9189
-20.9722 1.0366 -2.4942 0.9189
-21.0003 0.2835 -2.4948 0.9189
-20.9757 -1.2238 -2.4959 0.9188
-20.8431 -2.7260 -2.4970 0.9188
-20.7366 -3.4729 -2.4975 0.9188
-20.6033 -4.2156 -2.4981 0.9188
-20.2571 -5.6849 -2.4992 0.9187
-20.0447 -6.4095 -2.4998 0.9187
-19.5424 -7.8341 -2.5009 0.9187
-18.9390 -9.2196 -2.5021 0.9187
-18.6002 -9.8954 -2.5027 0.9186
-17.4410 -11.8448 -2.5044 0.9186
-17.0086 -12.4657 -2.5049 0.9186
-15.5808 -14.2304 -2.5065 0.9185
-12.5794 -15.3315 -2.3557 0.9232
-9.6502 -17.3467 -2.3579 0.9232
-8.8999 -17.4432 -2.3261 0.9242
-6.6472 -17.4411 -2.2171 0.9276
-5.9399 -17.4413 -2.1886 0.9285
-5.2496 -17.4416 -2.1636 0.9293
-1.9786 -17.4477 -2.0858 0.9317
-1.3466 -17.4470 -2.0786 0.9319
0.5345 -17.4449 -2.0732 0.9321
3.0701 -17.4473 -2.1043 0.9311
4.3796 -17.4460 -2.1366 0.9301
5.7370 -17.4446 -2.1814 0.9287
7.1600 -17.4431 -2.2398 0.9269
7.9024 -17.4424 -2.2746 0.9258
8.8548 -17.8150 -2.3632 0.9230
10.1275 -17.1645 -2.3673 0.9229
10.7291 -16.7781 -2.3657 0.9229
11.3153 -16.3695 -2.3638 0.9230
12.1487 -16.2927 -2.4141 0.9214
13.2613 -16.5135 -2.5158 0.9182
13.8442 -16.0259 -2.5156 0.9182
14.9551 -14.9892 -2.5151 0.9182
16.9381 -12.6899 -2.5140 0.9183
17.3802 -12.0725 -2.5137 0.9183
-16.1377 6.9806 -2.4913 0.9314
-16.3800 6.3979 -2.4916 0.9314
-16.8016 5.2084 -2.4924 0.9314
-17.1372 3.9913 -2.4931 0.9314
-17.4756 2.1278 -2.4944 0.9313
-17.5437 1.4997 -2.4948 0.9313
-17.5893 0.8694 -2.4953 0.9313
-17.2756 -3.5348 -2.4985 0.9312
-16.9841 -4.7664 -2.4994 0.9312
-16.8054 -5.3737 -2.4999 0.9312
-16.1399 -7.1525 -2.5014 0.9312
-15.5914 -8.2947 -2.5023 0.9311
-15.2867 -8.8505 -2.5028 0.9311
-14.6182 -9.9277 -2.5037 0.9311
-14.2552 -10.4477 -2.5042 0.9311
-13.8737 -10.9545 -2.5047 0.9311
-13.4742 -11.4473 -2.5051 0.9311
-13.0572 -11.9256 -2.5056 0.9311
-12.6231 -12.3886 -2.5060 0.9310
-12.1726 -12.8357 -2.5065 0.9310
-11.7062 -13.2665 -2.5069 0.9310
-11.2246 -13.6803 -2.5073 0.9310
-10.7283 -14.0765 -2.5077 0.9310
-10.2180 -14.4547 -2.5081 0.9310
-9.6943 -14.8143 -2.5085 0.9310
-9.1579 -15.1550 -2.5089 0.9310
-7.7548 -15.1990 -2.4176 0.9334
-6.4791 -15.3239 -2.3573 0.9350
-3.6423 -16.2439 -2.3587 0.9350
-3.0575 -16.3658 -2.3590 0.9350
-2.4686 -16.4665 -2.3592 0.9349
-1.8763 -16.5460 -2.3594 0.9349
-0.6851 -16.6406 -2.3598 0.9349
0.5101 -16.6492 -2.3601 0.9349
1.1072 -16.6212 -2.3603 0.9349
2.2966 -16.5006 -2.3605 0.9349
3.4742 -16.2945 -2.3606 0.9349
4.6340 -16.0041 -2.3607 0.9349
6.3269 -15.4136 -2.3608 0.9349
8.2651 -15.2316 -2.4554 0.9324
9.5577 -14.9462 -2.5137 0.9308
10.6039 -14.2209 -2.5135 0.9308
13.3916 -11.6217 -2.5123 0.9309
14.1877 -10.6294 -2.5118 0.9309
14.5584 -10.1124 -2.5116 0.9309
14.9102 -9.5824 -2.5113 0.9309
-13.8869 6.0070 -2.4926 0.9405
-14.0952 5.5055 -2.4929 0.9405
-14.4574 4.4817 -2.4935 0.9405
-14.9581 2.3687 -2.4949 0.9405
-15.1327 0.7480 -2.4960 0.9404
-15.1521 0.2046 -2.4964 0.9404
-15.1325 -0.8829 -2.4972 0.9404
-15.0935 -1.4255 -2.4975 0.9404
-15.0350 -1.9664 -2.4979 0.9404
-14.9572 -2.5050 -2.4984 0.9404
-14.4545 -4.6220 -2.5000 0.9403
-13.8810 -6.1515 -2.5012 0.9403
-13.6537 -6.6467 -2.5016 0.9403
-13.4086 -7.1334 -2.5021 0.9403
-13.1462 -7.6112 -2.5025 0.9403
-11.9298 -9.4196 -2.5041 0.9402
-11.2271 -10.2541 -2.5049 0.9402
-10.0648 -11.4062 -2.5060 0.9402
-8.7846 -12.4270 -2.5071 0.9402
-8.3342 -12.7359 -2.5074 0.9402
-7.4013 -13.3042 -2.5080 0.9401
-6.9200 -13.5629 -2.5084 0.9401
-5.9310 -14.0275 -2.5089 0.9401
-4.9109 -14.4199 -2.5095 0.9401
-3.3339 -14.8684 -2.5102 0.9401
-2.7986 -14.9798 -2.5105 0.9401
-2.2595 -15.0719 -2.5107 0.9401
-1.7174 -15.1444 -2.5109 0.9401
1.5586 -15.1669 -2.5117 0.9401
2.1019 -15.1018 -2.5118 0.9401
3.1797 -14.9131 -2.5120 0.9401
6.2929 -13.8898 -2.5121 0.9401
7.2725 -13.4023 -2.5120 0.9401
9.1136 -12.2224 -2.5116 0.9401
9.9656 -11.5361 -2.5114 0.9401
10.3725 -11.1704 -2.5112 0.9401
10.7659 -10.7904 -2.5111 0.9401
11.1453 -10.3964 -2.5109 0.9401
11.5103 -9.9891 -2.5107 0.9401
12.1949 -9.1364 -2.5102 0.9401
-12.9278 3.0109 -2.4950 0.9474
-13.1815 1.6049 -2.4959 0.9474
-13.2323 1.1311 -2.4962 0.9474
-13.2652 -0.7739 -2.4976 0.9474
-13.2307 -1.2495 -2.4979 0.9473
-13.1107 -2.1958 -2.4986 0.9473
-12.9232 -3.1312 -2.4993 0.9473
-12.8044 -3.5934 -2.4997 0.9473
-12.3495 -4.9506 -2.5008 0.9473
-12.1657 -5.3913 -2.5011 0.9473
-11.7511 -6.2517 -2.5019 0.9473
-11.2758 -7.0803 -2.5026 0.9473
-11.0160 -7.4814 -2.5029 0.9472
-10.7420 -7.8729 -2.5033 0.9472
-10.4541 -8.2544 -2.5036 0.9472
-10.1526 -8.6253 -2.5040 0.9472
-8.8189 -9.9943 -2.5053 0.9472
-8.4557 -10.3056 -2.5056 0.9472
-7.6968 -10.8881 -2.5062 0.9472
-7.3020 -11.1586 -2.5065 0.9472
-6.8978 -11.4147 -2.5068 0.9472
-6.0628 -11.8827 -2.5074 0.9472
-5.6331 -12.0938 -2.5076 0.9471
-5.1961 -12.2894 -2.5079 0.9471
-4.7523 -12.4691 -2.5081 0.9471
-4.3022 -12.6328 -2.5084 0.9471
-3.8466 -12.7802 -2.5086 0.9471
-3.3859 -12.9111 -2.5088 0.9471
-2.9207 -13.0253 -2.5090 0.9471
-2.4516 -13.1227 -2.5092 0.9471
-1.9793 -13.2031 -2.5094 0.9471
-1.5045 -13.2666 -2.5096 0.9471
-1.0276 -13.3129 -2.5097 0.9471
-0.5492 -13.3420 -2.5099 0.9471
0.8877 -13.3256 -2.5102 0.9471
1.8412 -13.2287 -2.5104 0.9471
2.7852 -13.0632 -2.5106 0.9471
3.2522 -12.9551 -2.5106 0.9471
3.7150 -12.8303 -2.5106 0.9471
4.6255 -12.5310 -2.5107 0.9471
5.5122 -12.1669 -2.5106 0.9471
5.9452 -11.9611 -2.5106 0.9471
7.1955 -11.2522 -2.5104 0.9471
7.9833 -10.7065 -2.5103 0.9471
8.3620 -10.4127 -2.5101 0.9471
9.4309 -9.4524 -2.5097 0.9471
9.7634 -9.1073 -2.5096 0.9471
10.0832 -8.7506 -2.5094 0.9471
10.3899 -8.3826 -2.5092 0.9471
10.6831 -8.0037 -2.5090 0.9471
10.9625 -7.6147 -2.5088 0.9471
11.2277 -7.2158 -2.5086 0.9471
-10.8303 4.6848 -2.4943 0.9529
-10.9925 4.2936 -2.4946 0.9529
-11.1406 3.8968 -2.4948 0.9529
-11.2743 3.4950 -2.4951 0.9529
-11.5883 2.2639 -2.4958 0.9529
-11.6634 1.8469 -2.4961 0.9529
-11.7685 1.0060 -2.4967 0.9529
-11.7984 0.5832 -2.4970 0.9529
-11.8131 0.1595 -2.4973 0.9528
-11.8127 -0.2645 -2.4976 0.9528
-11.7970 -0.6883 -2.4979 0.9528
-11.7202 -1.5329 -2.4985 0.9528
-11.6591 -1.9527 -2.4988 0.9528
-11.5830 -2.3700 -2.4991 0.9528
-11.2656 -3.6023 -2.5001 0.9528
-11.1306 -4.0047 -2.5004 0.9528
-10.9811 -4.4021 -2.5008 0.9528
-10.8175 -4.7938 -2.5011 0.9528
-9.7945 -6.6518 -2.5027 0.9527
-9.5507 -6.9998 -2.5030 0.9527
-9.0264 -7.6686 -2.5036 0.9527
-8.4552 -8.2981 -2.5042 0.9527
-8.1530 -8.5971 -2.5045 0.9527
-7.8402 -8.8852 -2.5048 0.9527
-6.8423 -9.6794 -2.5056 0.9527
-6.4913 -9.9197 -2.5059 0.9527
-6.1318 -10.1472 -2.5061 0.9527
-5.3894 -10.5629 -2.5066 0.9527
-4.6189 -10.9242 -2.5071 0.9527
-3.8242 -11.2293 -2.5075 0.9527
-2.5961 -11.5778 -2.5081 0.9526
-2.1792 -11.6643 -2.5083 0.9526
-0.9133 -11.8331 -2.5087 0.9526
-0.4882 -11.8588 -2.5088 0.9526
-0.0624 -11.8693 -2.5090 0.9526
0.7890 -11.8442 -2.5092 0.9526
1.6365 -11.7579 -2.5093 0.9526
2.0573 -11.6918 -2.5094 0.9526
2.4756 -11.6108 -2.5094 0.9526
3.7090 -11.2779 -2.5095 0.9526
4.1112 -11.1376 -2.5095 0.9526
4.5082 -10.9829 -2.5095 0.9526
4.8993 -10.8140 -2.5095 0.9526
5.6621 -10.4346 -2.5094 0.9526
6.0327 -10.2245 -2.5094 0.9526
6.3955 -10.0012 -2.5093 0.9526
7.0958 -9.5162 -2.5092 0.9526
7.4324 -9.2551 -2.5091 0.9526
8.0762 -8.6975 -2.5088 0.9526
8.3826 -8.4017 -2.5087 0.9526
8.6782 -8.0950 -2.5086 0.9526
8.9625 -7.7780 -2.5084 0.9526
-9.5850 4.5611 -2.4947 0.9573
-9.7433 4.2146 -2.4949 0.9573
-9.8890 3.8626 -2.4952 0.9573
-10.0221 3.5056 -2.4954 0.9573
-10.1424 3.1440 -2.4956 0.9573
-10.2496 2.7784 -2.4958 0.9573
-10.4245 2.0366 -2.4963 0.9573
-10.4919 1.6614 -2.4966 0.9573
-10.5862 0.9049 -2.4971 0.9573
-10.6130 0.5246 -2.4973 0.9573
-10.6261 0.1435 -2.4976 0.9573
-10.6256 -0.2379 -2.4979 0.9573
-10.5835 -0.9995 -2.4984 0.9573
-10.5420 -1.3787 -2.4987 0.9573
-10.4869 -1.7563 -2.4990 0.9572
-10.4184 -2.1317 -2.4993 0.9572
-10.3364 -2.5044 -2.4996 0.9572
-10.2410 -2.8740 -2.4999 0.9572
-10.1325 -3.2400 -2.5002 0.9572
-10.0109 -3.6019 -2.5004 0.9572
-9.7291 -4.3115 -2.5010 0.9572
-9.2126 -5.3338 -2.5019 0.9572
-9.0164 -5.6616 -2.5022 0.9572
-8.8084 -5.9821 -2.5025 0.9572
-8.3587 -6.5998 -2.5030 0.9572
-7.6035 -7.4622 -2.5038 0.9572
-7.3316 -7.7310 -2.5041 0.9572
-7.0503 -7.9900 -2.5044 0.9572
-6.7597 -8.2386 -2.5046 0.9572
-6.4604 -8.4767 -2.5049 0.9572
-5.8370 -8.9199 -2.5053 0.9571
-5.1833 -9.3172 -2.5058 0.9571
-4.8461 -9.4979 -2.5060 0.9571
-4.5025 -9.6666 -2.5062 0.9571
-4.1531 -9.8227 -2.5064 0.9571
-3.7983 -9.9662 -2.5066 0.9571
-1.9593 -10.4876 -2.5075 0.9571
-1.5819 -10.5518 -2.5076 0.9571
-1.2023 -10.6023 -2.5078 0.9571
-0.4389 -10.6623 -2.5080 0.9571
0.3269 -10.6672 -2.5082 0.9571
0.7094 -10.6489 -2.5083 0.9571
1.4713 -10.5713 -2.5084 0.9571
3.3346 -10.1397 -2.5086 0.9571
3.6963 -10.0136 -2.5086 0.9571
4.0532 -9.8745 -2.5086 0.9571
5.0906 -9.3815 -2.5085 0.9571
6.0688 -8.7796 -2.5084 0.9571
6.6824 -8.3212 -2.5082 0.9571
6.9763 -8.0757 -2.5081 0.9571
7.2613 -7.8199 -2.5080 0.9571
7.5369 -7.5540 -2.5079 0.9571
7.8026 -7.2783 -2.5078 0.9571
8.0583 -6.9933 -2.5076 0.9571
8.3036 -6.6993 -2.5075 0.9571
8.5381 -6.3966 -2.5073 0.9571
8.7615 -6.0858 -2.5072 0.9571
-8.8459 3.8264 -2.4955 0.9610
-8.9782 3.5069 -2.4956 0.9610
-9.0540 3.1670 -2.4835 0.9611
-9.4639 1.8489 -2.4967 0.9609
-9.5739 1.1657 -2.4972 0.9609
-9.6105 0.8215 -2.4974 0.9609
-9.6465 0.1302 -2.4979 0.9609
-9.6459 -0.2160 -2.4981 0.9609
-9.6075 -0.9073 -2.4986 0.9609
-9.5197 -1.5943 -2.4991 0.9609
-9.4573 -1.9351 -2.4994 0.9609
-9.2961 -2.6089 -2.4999 0.9609
-9.1975 -2.9410 -2.5002 0.9609
-8.9648 -3.5938 -2.5007 0.9609
-8.8310 -3.9135 -2.5010 0.9609
-8.6858 -4.2283 -2.5012 0.9609
-8.5294 -4.5377 -2.5015 0.9609
-8.1838 -5.1388 -2.5020 0.9609
-7.9949 -5.4296 -2.5023 0.9609
-7.7958 -5.7136 -2.5025 0.9609
-7.5865 -5.9902 -2.5028 0.9608
-7.3675 -6.2592 -2.5030 0.9608
-6.9010 -6.7727 -2.5035 0.9608
-6.6541 -7.0166 -2.5038 0.9608
-6.1350 -7.4772 -2.5042 0.9608
-5.2974 -8.0952 -2.5049 0.9608
-5.0040 -8.2808 -2.5051 0.9608
-4.7040 -8.4557 -2.5053 0.9608
-3.7690 -8.9142 -2.5059 0.9608
-3.4470 -9.0444 -2.5061 0.9608
-2.7899 -9.2695 -2.5064 0.9608
-1.0911 -9.6213 -2.5071 0.9608
-0.0509 -9.6841 -2.5074 0.9608
0.2966 -9.6800 -2.5075 0.9608
0.6437 -9.6634 -2.5076 0.9608
1.3351 -9.5929 -2.5077 0.9608
1.6785 -9.5390 -2.5078 0.9608
2.6939 -9.3038 -2.5079 0.9608
3.0260 -9.2012 -2.5079 0.9608
3.6781 -8.9605 -2.5079 0.9608
4.6195 -8.5132 -2.5078 0.9608
4.9219 -8.3418 -2.5078 0.9608
5.7893 -7.7641 -2.5076 0.9608
6.0639 -7.5511 -2.5075 0.9608
6.5894 -7.0963 -2.5073 0.9608
6.8394 -6.8550 -2.5072 0.9608
7.0807 -6.6049 -2.5071 0.9608
7.3127 -6.3463 -2.5070 0.9608
7.5353 -6.0795 -2.5068 0.9608
7.7482 -5.8049 -2.5067 0.9608
-8.0520 3.4830 -2.4836 0.9642
-8.1723 3.1921 -2.4837 0.9642
-8.4230 2.6111 -2.4964 0.9640
-8.7573 1.0663 -2.4974 0.9640
-8.8128 0.4356 -2.4979 0.9640
-8.8229 -0.1976 -2.4983 0.9640
-8.8109 -0.5140 -2.4986 0.9640
-8.7876 -0.8299 -2.4988 0.9640
-8.7530 -1.1448 -2.4990 0.9640
-8.6500 -1.7699 -2.4995 0.9640
-8.5818 -2.0793 -2.4997 0.9640
-8.5025 -2.3861 -2.5000 0.9640
-8.3111 -2.9903 -2.5005 0.9639
-8.0768 -3.5792 -2.5009 0.9639
-7.1295 -5.2253 -2.5024 0.9639
-6.7377 -5.7242 -2.5028 0.9639
-6.3110 -6.1937 -2.5033 0.9639
-6.0852 -6.4167 -2.5035 0.9639
-5.3618 -7.0353 -2.5041 0.9639
-4.8443 -7.4028 -2.5045 0.9639
-4.5759 -7.5724 -2.5047 0.9639
-4.3016 -7.7323 -2.5049 0.9639
-4.0217 -7.8823 -2.5051 0.9639
-2.8535 -8.3787 -2.5057 0.9639
-1.3126 -8.7558 -2.5064 0.9639
-0.6814 -8.8282 -2.5066 0.9639
-0.3642 -8.8473 -2.5067 0.9639
-0.0465 -8.8550 -2.5068 0.9639
0.5886 -8.8361 -2.5070 0.9639
0.9053 -8.8095 -2.5070 0.9639
1.8468 -8.6617 -2.5072 0.9639
2.1564 -8.5900 -2.5072 0.9639
2.7669 -8.4133 -2.5072 0.9639
3.0670 -8.3087 -2.5072 0.9639
4.2239 -7.7842 -2.5072 0.9639
4.5004 -7.6275 -2.5071 0.9639
5.5448 -6.9046 -2.5069 0.9639
6.6868 -5.8030 -2.5064 0.9639
7.0850 -5.3080 -2.5062 0.9639
7.2705 -5.0501 -2.5060 0.9639
7.4466 -4.7858 -2.5059 0.9639
-7.7535 2.4035 -2.4968 0.9666
-7.8353 2.1239 -2.4969 0.9666
-7.9070 1.8416 -2.4971 0.9666
-7.9686 1.5568 -2.4973 0.9666
-8.0199 1.2700 -2.4975 0.9666
-8.1211 -0.1819 -2.4985 0.9666
-8.1100 -0.4732 -2.4987 0.9666
-8.0885 -0.7639 -2.4989 0.9666
-8.0566 -1.0537 -2.4991 0.9666
-7.9617 -1.6290 -2.4996 0.9666
-7.8988 -1.9138 -2.4998 0.9666
-7.7426 -2.4758 -2.5002 0.9666
-7.6495 -2.7522 -2.5005 0.9666
-7.5464 -3.0252 -2.5007 0.9665
-7.3114 -3.5592 -2.5011 0.9665
-7.1796 -3.8196 -2.5013 0.9665
-7.0385 -4.0751 -2.5016 0.9665
-6.8884 -4.3254 -2.5018 0.9665
-6.5616 -4.8090 -2.5022 0.9665
-5.8081 -5.7001 -2.5030 0.9665
-5.6003 -5.9054 -2.5032 0.9665
-5.3852 -6.1030 -2.5034 0.9665
-5.1632 -6.2928 -2.5036 0.9665
-4.2111 -6.9687 -2.5044 0.9665
-3.9586 -7.1158 -2.5045 0.9665
-3.4386 -7.3823 -2.5049 0.9665
-3.1717 -7.5014 -2.5050 0.9665
-2.6259 -7.7104 -2.5053 0.9665
-2.0664 -7.8797 -2.5056 0.9665
-1.7824 -7.9492 -2.5057 0.9665
-1.2079 -8.0573 -2.5059 0.9665
-0.9181 -8.0958 -2.5060 0.9665
-0.6270 -8.1238 -2.5061 0.9665
-0.0428 -8.1485 -2.5063 0.9665
0.2496 -8.1450 -2.5064 0.9665
0.5417 -8.1310 -2.5065 0.9665
1.4123 -8.0262 -2.5066 0.9665
1.6994 -7.9705 -2.5066 0.9665
2.2667 -7.8282 -2.5067 0.9665
2.5461 -7.7419 -2.5067 0.9665
3.0947 -7.5394 -2.5067 0.9665
3.3632 -7.4235 -2.5067 0.9665
3.8869 -7.1630 -2.5066 0.9665
4.1413 -7.0189 -2.5066 0.9665
4.8712 -6.5329 -2.5065 0.9665
5.1023 -6.3537 -2.5064 0.9665
5.5445 -5.9710 -2.5062 0.9665
5.7550 -5.7680 -2.5061 0.9665
5.9580 -5.5576 -2.5061 0.9665
6.1533 -5.3401 -2.5059 0.9665
6.3406 -5.1156 -2.5058 0.9665
6.5198 -4.8846 -2.5057 0.9665
6.6905 -4.6473 -2.5056 0.9665
-6.7481 3.2111 -2.4841 0.9690
-6.8593 2.9671 -2.4842 0.9690
-6.9963 2.7327 -2.4967 0.9688
-7.0903 2.4801 -2.4969 0.9688
-7.2508 1.9655 -2.4972 0.9688
-7.3172 1.7042 -2.4974 0.9688
-7.4216 1.1753 -2.4977 0.9688
-7.4595 0.9082 -2.4979 0.9688
-7.4879 0.6400 -2.4981 0.9688
-7.4914 0.1012 -2.4904 0.9689
-7.4908 -0.1677 -2.4906 0.9689
-7.5047 -0.4379 -2.4988 0.9688
-7.4552 -0.9750 -2.4992 0.9688
-6.8784 -3.0482 -2.5009 0.9688
-6.0712 -4.4496 -2.5021 0.9688
-5.9081 -4.6650 -2.5023 0.9688
-5.7374 -4.8743 -2.5025 0.9688
-5.5592 -5.0774 -2.5027 0.9688
-5.3739 -5.2740 -2.5029 0.9688
-5.1816 -5.4638 -2.5030 0.9688
-4.9826 -5.6467 -2.5032 0.9688
-4.5654 -5.9903 -2.5036 0.9688
-3.8961 -6.4475 -2.5041 0.9687
-3.1813 -6.8301 -2.5045 0.9687
-2.9344 -6.9402 -2.5047 0.9687
-2.1720 -7.2165 -2.5051 0.9687
-1.3842 -7.4091 -2.5054 0.9687
-1.1175 -7.4543 -2.5055 0.9687
-0.8494 -7.4899 -2.5056 0.9687
-0.3101 -7.5320 -2.5058 0.9687
-0.0396 -7.5386 -2.5059 0.9687
0.2309 -7.5353 -2.5059 0.9687
0.5011 -7.5223 -2.5060 0.9687
0.7707 -7.4997 -2.5061 0.9687
1.3066 -7.4254 -2.5062 0.9687
1.5722 -7.3738 -2.5062 0.9687
1.8358 -7.3128 -2.5062 0.9687
2.0970 -7.2422 -2.5062 0.9687
3.5959 -6.6268 -2.5062 0.9687
3.8313 -6.4934 -2.5062 0.9687
4.2869 -6.2018 -2.5061 0.9687
4.5066 -6.0438 -2.5060 0.9687
4.7204 -5.8781 -2.5060 0.9687
4.9282 -5.7048 -2.5059 0.9687
5.1295 -5.5241 -2.5058 0.9687
5.5121 -5.1417 -2.5056 0.9687
5.8661 -4.7328 -2.5054 0.9687
6.3399 -4.0745 -2.5051 0.9687
-6.3043 3.0000 -2.4967 0.9708
-6.7405 1.8272 -2.4974 0.9708
-6.8021 1.5842 -2.4976 0.9708
-6.8550 1.3392 -2.4978 0.9708
-6.8991 1.0925 -2.4979 0.9708
-6.9606 0.5950 -2.4983 0.9708
-6.9780 0.3449 -2.4984 0.9708
-6.9633 -0.1559 -2.4907 0.9708
-6.9762 -0.4070 -2.4990 0.9708
-6.9576 -0.6571 -2.4991 0.9707
-6.7311 -1.8890 -2.5001 0.9707
-6.6595 -2.1295 -2.5003 0.9707
-6.5793 -2.3672 -2.5005 0.9707
-6.4906 -2.6020 -2.5007 0.9707
-6.3936 -2.8334 -2.5008 0.9707
-6.2883 -3.0612 -2.5010 0.9707
-6.1749 -3.2851 -2.5012 0.9707
-5.9243 -3.7200 -2.5016 0.9707
-5.7874 -3.9305 -2.5018 0.9707
-5.6431 -4.1359 -2.5020 0.9707
-5.4915 -4.3360 -2.5022 0.9707
-5.3328 -4.5305 -2.5023 0.9707
-4.9948 -4.9020 -2.5027 0.9707
-4.0411 -5.7167 -2.5035 0.9707
-3.8336 -5.8583 -2.5037 0.9707
-3.4040 -6.1189 -2.5040 0.9707
-2.9568 -6.3480 -2.5043 0.9707
-2.7273 -6.4503 -2.5044 0.9707
-2.2579 -6.6300 -2.5046 0.9707
-1.7768 -6.7755 -2.5049 0.9707
-0.7894 -6.9611 -2.5053 0.9707
0.4657 -6.9912 -2.5056 0.9707
0.9659 -6.9400 -2.5057 0.9707
1.4612 -6.8531 -2.5058 0.9707
1.9489 -6.7307 -2.5058 0.9707
2.4266 -6.5737 -2.5058 0.9707
2.8917 -6.3828 -2.5058 0.9707
3.3419 -6.1588 -2.5058 0.9707
3.9842 -5.7638 -2.5057 0.9707
4.5802 -5.3020 -2.5055 0.9707
5.4520 -4.3987 -2.5051 0.9707
5.6061 -4.2001 -2.5050 0.9707
5.7529 -3.9960 -2.5049 0.9707
-6.1513 2.1516 -2.4974 0.9725
-6.2249 1.9297 -2.4975 0.9725
-6.2905 1.7052 -2.4976 0.9725
-6.3480 1.4785 -2.4978 0.9725
-6.3974 1.2498 -2.4979 0.9725
-6.4385 1.0195 -2.4981 0.9725
-6.4713 0.7879 -2.4982 0.9725
-6.5120 0.3218 -2.4986 0.9725
-6.5198 0.0880 -2.4987 0.9725
-6.4928 -0.6132 -2.4992 0.9724
-6.4671 -0.8458 -2.4994 0.9724
-6.4330 -1.0774 -2.4996 0.9724
-6.3907 -1.3076 -2.4998 0.9724
-6.2813 -1.7628 -2.5001 0.9724
-6.2145 -1.9871 -2.5003 0.9724
-6.1396 -2.2090 -2.5005 0.9724
-6.0568 -2.4281 -2.5006 0.9724
-5.9663 -2.6440 -2.5008 0.9724
-5.7621 -3.0655 -2.5012 0.9724
-5.5282 -3.4713 -2.5015 0.9724
-5.4005 -3.6676 -2.5017 0.9724
-5.2658 -3.8593 -2.5019 0.9724
-5.1243 -4.0461 -2.5020 0.9724
-4.8215 -4.4037 -2.5024 0.9724
-4.3213 -4.8972 -2.5029 0.9724
-4.1430 -5.0495 -2.5030 0.9724
-3.9592 -5.1951 -2.5032 0.9724
-3.7707 -5.3342 -2.5033 0.9724
-3.5771 -5.4664 -2.5035 0.9724
-2.9695 -5.8201 -2.5039 0.9724
-2.1068 -6.1862 -2.5044 0.9724
-1.6579 -6.3219 -2.5046 0.9724
-1.2003 -6.4250 -2.5048 0.9724
-0.2689 -6.5315 -2.5051 0.9724
0.2002 -6.5343 -2.5052 0.9724
0.6683 -6.5033 -2.5053 0.9724
1.3633 -6.3942 -2.5054 0.9724
2.0425 -6.2108 -2.5055 0.9724
2.2641 -6.1335 -2.5055 0.9724
2.6981 -5.9553 -2.5055 0.9724
2.9100 -5.8546 -2.5055 0.9724
3.1181 -5.7464 -2.5054 0.9724
3.3223 -5.6308 -2.5054 0.9724
3.7174 -5.3779 -2.5053 0.9724
3.9078 -5.2409 -2.5053 0.9724
4.4481 -4.7903 -2.5051 0.9724
4.7799 -4.4587 -2.5050 0.9724
4.9366 -4.2842 -2.5049 0.9724
5.0870 -4.1042 -2.5048 0.9724
5.3678 -3.7285 -2.5046 0.9724
5.4979 -3.5334 -2.5045 0.9724
-5.5095 2.6217 -2.4972 0.9740
-5.6003 2.4225 -2.4973 0.9740
-5.6839 2.2201 -2.4974 0.9740
-5.7602 2.0149 -2.4976 0.9740
-5.8291 1.8070 -2.4977 0.9740
-5.9905 1.1704 -2.4981 0.9740
-6.0289 0.9547 -2.4982 0.9740
-6.0597 0.7378 -2.4984 0.9740
-6.0977 0.3014 -2.4987 0.9740
-6.1044 -0.1367 -2.4990 0.9740
-6.0959 -0.3556 -2.4992 0.9740
-6.0796 -0.5742 -2.4993 0.9740
-6.0236 -1.0088 -2.4996 0.9739
-5.9839 -1.2244 -2.4998 0.9739
-5.8815 -1.6506 -2.5001 0.9739
-5.8189 -1.8607 -2.5003 0.9739
-5.6712 -2.2735 -2.5006 0.9739
-5.5864 -2.4756 -2.5008 0.9739
-5.4943 -2.6746 -2.5010 0.9739
-5.3952 -2.8703 -2.5011 0.9739
-5.2891 -3.0622 -2.5013 0.9739
-5.0565 -3.4340 -2.5016 0.9739
-4.9303 -3.6135 -2.5018 0.9739
-4.7978 -3.7883 -2.5020 0.9739
-4.6591 -3.9583 -2.5021 0.9739
-4.5144 -4.1231 -2.5023 0.9739
-3.8790 -4.7276 -2.5029 0.9739
-3.3491 -5.1180 -2.5033 0.9739
-2.1789 -5.7171 -2.5040 0.9739
-1.9725 -5.7918 -2.5041 0.9739
-1.7635 -5.8591 -2.5042 0.9739
-1.5522 -5.9188 -2.5043 0.9739
-0.9073 -6.0520 -2.5046 0.9739
-0.6896 -6.0808 -2.5047 0.9739
-0.2517 -6.1149 -2.5048 0.9739
0.1875 -6.1176 -2.5049 0.9739
0.4068 -6.1070 -2.5050 0.9739
0.6257 -6.0886 -2.5050 0.9739
0.8438 -6.0623 -2.5051 0.9739
1.0607 -6.0282 -2.5051 0.9739
1.2764 -5.9863 -2.5051 0.9739
2.3243 -5.6625 -2.5052 0.9739
2.5260 -5.5755 -2.5052 0.9739
2.7244 -5.4812 -2.5051 0.9739
3.2975 -5.1566 -2.5051 0.9739
3.4803 -5.0348 -2.5050 0.9739
3.8323 -4.7721 -2.5049 0.9739
4.0010 -4.6315 -2.5049 0.9739
4.1644 -4.4848 -2.5048 0.9739
4.7626 -3.8425 -2.5045 0.9739
5.1473 -3.3081 -2.5042 0.9739
-5.2597 2.2751 -2.4975 0.9753
-5.3381 2.0850 -2.4976 0.9753
-5.4098 1.8923 -2.4977 0.9753
-5.4744 1.6971 -2.4979 0.9753
-5.5321 1.4996 -2.4980 0.9753
-5.6909 0.6929 -2.4985 0.9753
-5.7334 0.0774 -2.4989 0.9753
-5.5751 -1.3508 -2.5000 0.9753
-5.5233 -1.5501 -2.5002 0.9753
-5.4645 -1.7473 -2.5003 0.9753
-5.3258 -2.1350 -2.5006 0.9753
-5.2461 -2.3248 -2.5008 0.9753
-5.1596 -2.5118 -2.5009 0.9753
-4.8608 -3.0522 -2.5014 0.9753
-4.6299 -3.3933 -2.5017 0.9753
-4.5055 -3.5575 -2.5019 0.9753
-4.3752 -3.7171 -2.5020 0.9753
-4.0978 -4.0217 -2.5023 0.9753
-3.9511 -4.1664 -2.5024 0.9753
-3.7993 -4.3057 -2.5026 0.9753
-3.4811 -4.5676 -2.5029 0.9753
-3.3152 -4.6897 -2.5030 0.9753
-3.1449 -4.8059 -2.5031 0.9753
-2.7925 -5.0196 -2.5034 0.9752
-2.6107 -5.1168 -2.5035 0.9752
-2.4254 -5.2074 -2.5036 0.9752
-2.0460 -5.3684 -2.5038 0.9752
-1.8522 -5.4386 -2.5039 0.9752
-1.6559 -5.5018 -2.5040 0.9752
-1.0553 -5.6484 -2.5043 0.9752
-0.2364 -5.7419 -2.5045 0.9752
0.5875 -5.7171 -2.5047 0.9752
0.7923 -5.6925 -2.5048 0.9752
0.9960 -5.6604 -2.5048 0.9752
1.3994 -5.5746 -2.5049 0.9752
1.5985 -5.5208 -2.5049 0.9752
2.5582 -5.1468 -2.5049 0.9752
2.9206 -4.9500 -2.5048 0.9752
3.0963 -4.8420 -2.5048 0.9752
3.5985 -4.4810 -2.5047 0.9752
3.7569 -4.3489 -2.5046 0.9752
4.0589 -4.0681 -2.5045 0.9752
4.3399 -3.7663 -2.5043 0.9752
4.5986 -3.4452 -2.5042 0.9752
4.8334 -3.1063 -2.5040 0.9752
-4.8722 2.3185 -2.4976 0.9765
-4.9524 2.1422 -2.4977 0.9765
-5.0263 1.9633 -2.4978 0.9765
-5.0938 1.7817 -2.4979 0.9765
-5.2089 1.4120 -2.4981 0.9765
-5.2973 1.0349 -2.4984 0.9765
-5.3313 0.8442 -2.4985 0.9765
-5.3786 0.4597 -2.4988 0.9765
-5.3920 0.2665 -2.4989 0.9765
-5.3983 0.0729 -2.4990 0.9765
-5.3903 -0.3145 -2.4993 0.9765
-5.3544 -0.7003 -2.4996 0.9765
-5.3262 -0.8920 -2.4997 0.9765
-5.2911 -1.0826 -2.4999 0.9765
-5.2491 -1.2718 -2.5000 0.9765
-5.2004 -1.4594 -2.5002 0.9765
-5.1451 -1.6452 -2.5003 0.9765
-4.9393 -2.1889 -2.5008 0.9765
-4.6763 -2.7074 -2.5012 0.9765
-4.4706 -3.0362 -2.5015 0.9765
-4.2419 -3.3493 -2.5018 0.9765
-3.8581 -3.7864 -2.5022 0.9765
-3.2774 -4.3003 -2.5027 0.9764
-3.1211 -4.4153 -2.5028 0.9764
-2.7967 -4.6282 -2.5031 0.9764
-2.6290 -4.7258 -2.5032 0.9764
-2.4579 -4.8173 -2.5033 0.9764
-2.2835 -4.9026 -2.5034 0.9764
-1.5590 -5.1796 -2.5038 0.9764
-0.8020 -5.3500 -2.5041 0.9764
-0.6096 -5.3755 -2.5042 0.9764
0.1657 -5.4079 -2.5044 0.9764
1.1283 -5.2919 -2.5046 0.9764
1.8738 -5.0762 -2.5046 0.9764
2.0547 -5.0056 -2.5046 0.9764
2.2329 -4.9287 -2.5046 0.9764
3.0766 -4.4508 -2.5045 0.9764
3.5369 -4.0942 -2.5044 0.9764
4.0858 -3.5458 -2.5041 0.9764
4.2102 -3.3968 -2.5041 0.9764
4.3293 -3.2435 -2.5040 0.9764
4.5504 -2.9245 -2.5038 0.9764
-4.5980 2.1879 -2.4977 0.9776
-4.6737 2.0217 -2.4978 0.9776
-4.8645 1.5079 -2.4982 0.9776
-4.9990 0.9766 -2.4985 0.9776
-5.0567 0.6157 -2.4987 0.9776
-5.0758 0.4339 -2.4989 0.9776
-5.0883 0.2515 -2.4990 0.9776
-5.0938 -0.1140 -2.4993 0.9776
-5.0730 -0.4791 -2.4995 0.9776
-5.0262 -0.8418 -2.4998 0.9776
-4.9534 -1.2002 -2.5001 0.9775
-4.8551 -1.5525 -2.5003 0.9775
-4.7966 -1.7258 -2.5005 0.9775
-4.7318 -1.8969 -2.5006 0.9775
-4.6610 -2.0655 -2.5008 0.9775
-4.5841 -2.2316 -2.5009 0.9775
-3.7662 -3.4398 -2.5020 0.9775
-3.5101 -3.7014 -2.5022 0.9775
-2.9451 -4.1663 -2.5027 0.9775
-2.7939 -4.2695 -2.5028 0.9775
-2.6390 -4.3672 -2.5029 0.9775
-2.4807 -4.4592 -2.5030 0.9775
-2.1547 -4.6260 -2.5032 0.9775
-1.9874 -4.7005 -2.5033 0.9775
-1.6454 -4.8313 -2.5035 0.9775
-1.4710 -4.8874 -2.5036 0.9775
-1.2947 -4.9372 -2.5037 0.9775
-1.1168 -4.9807 -2.5038 0.9775
-0.9374 -5.0176 -2.5038 0.9775
-0.0268 -5.1050 -2.5041 0.9775
0.1564 -5.1028 -2.5042 0.9775
1.4200 -4.9041 -2.5044 0.9775
1.5950 -4.8501 -2.5044 0.9775
2.1070 -4.6505 -2.5044 0.9775
2.2724 -4.5719 -2.5044 0.9775
2.4350 -4.4874 -2.5044 0.9775
2.5944 -4.3971 -2.5043 0.9775
2.7505 -4.3012 -2.5043 0.9775
3.0518 -4.0927 -2.5042 0.9775
3.4737 -3.7409 -2.5041 0.9775
3.6056 -3.6138 -2.5040 0.9775
3.9727 -3.2052 -2.5039 0.9775
-4.3478 2.0689 -2.4979 0.9785
-4.4853 1.7519 -2.4981 0.9785
-4.5454 1.5899 -2.4982 0.9785
-4.5998 1.4259 -2.4983 0.9785
-4.6482 1.2600 -2.4984 0.9785
-4.6906 1.0924 -2.4985 0.9785
-4.7995 0.4102 -2.4990 0.9785
-4.8113 0.2378 -2.4991 0.9785
-4.8170 0.0650 -2.4992 0.9785
-4.7968 -0.4530 -2.4996 0.9785
-4.7777 -0.6249 -2.4997 0.9785
-4.7525 -0.7960 -2.4998 0.9785
-4.7211 -0.9660 -2.5000 0.9785
-4.6837 -1.1348 -2.5001 0.9785
-4.6402 -1.3022 -2.5002 0.9785
-4.5907 -1.4679 -2.5004 0.9785
-4.4741 -1.7936 -2.5006 0.9785
-4.4071 -1.9530 -2.5007 0.9785
-4.0832 -2.5639 -2.5013 0.9785
-3.7846 -2.9883 -2.5016 0.9785
-3.5609 -3.2523 -2.5019 0.9785
-3.1913 -3.6167 -2.5023 0.9785
-3.0596 -3.7290 -2.5024 0.9785
-2.9240 -3.8365 -2.5025 0.9785
-2.6416 -4.0367 -2.5027 0.9785
-2.4951 -4.1291 -2.5028 0.9785
-2.1928 -4.2977 -2.5030 0.9785
-1.8791 -4.4443 -2.5032 0.9785
-1.0559 -4.7090 -2.5036 0.9785
-0.8863 -4.7440 -2.5037 0.9785
0.1478 -4.8245 -2.5040 0.9785
0.4934 -4.8016 -2.5041 0.9785
0.6654 -4.7808 -2.5041 0.9785
0.8365 -4.7540 -2.5041 0.9785
1.3425 -4.6366 -2.5042 0.9785
1.6716 -4.5284 -2.5042 0.9785
1.9920 -4.3969 -2.5042 0.9785
2.1485 -4.3226 -2.5042 0.9785
2.4529 -4.1573 -2.5041 0.9785
2.6005 -4.0666 -2.5041 0.9785
2.7446 -3.9706 -2.5041 0.9785
2.8853 -3.8695 -2.5040 0.9785
3.0222 -3.7634 -2.5040 0.9785
3.5292 -3.2921 -2.5038 0.9785
3.6450 -3.1633 -2.5037 0.9785
3.8622 -2.8936 -2.5036 0.9785
-4.1862 1.8108 -2.4981 0.9794
-4.3056 1.5060 -2.4983 0.9794
-4.4029 1.1935 -2.4985 0.9794
-4.5062 0.7135 -2.4988 0.9794
-4.5291 0.5514 -2.4989 0.9794
-4.5622 -0.1021 -2.4994 0.9794
-4.5559 -0.2658 -2.4995 0.9794
-4.5436 -0.4291 -2.4996 0.9794
-4.5255 -0.5919 -2.4997 0.9794
-4.4718 -0.9150 -2.5000 0.9794
-4.4364 -1.0749 -2.5001 0.9794
-4.3951 -1.2335 -2.5002 0.9794
-4.3483 -1.3904 -2.5004 0.9794
-4.2378 -1.6988 -2.5006 0.9794
-3.7781 -2.5658 -2.5013 0.9794
-3.2602 -3.1996 -2.5019 0.9794
-3.0227 -3.4255 -2.5022 0.9794
-2.7695 -3.6338 -2.5024 0.9794
-2.6374 -3.7310 -2.5025 0.9794
-1.7797 -4.2093 -2.5030 0.9794
-1.1594 -4.4212 -2.5034 0.9794
-0.5151 -4.5420 -2.5036 0.9794
0.1400 -4.5693 -2.5038 0.9794
0.4673 -4.5477 -2.5039 0.9794
0.6302 -4.5280 -2.5039 0.9794
0.7923 -4.5026 -2.5039 0.9794
1.1131 -4.4342 -2.5040 0.9794
1.2715 -4.3914 -2.5040 0.9794
1.7361 -4.2294 -2.5040 0.9794
2.1804 -4.0183 -2.5040 0.9794
2.3232 -3.9374 -2.5039 0.9794
2.5995 -3.7606 -2.5039 0.9794
2.9884 -3.4593 -2.5038 0.9794
3.1106 -3.3499 -2.5037 0.9794
3.2287 -3.2360 -2.5037 0.9794
3.5575 -2.8701 -2.5035 0.9794
3.7539 -2.6075 -2.5034 0.9794
-4.0307 1.5743 -2.4983 0.9802
-4.1770 1.1322 -2.4986 0.9802
-4.2151 0.9817 -2.4987 0.9802
-4.2478 0.8299 -2.4988 0.9802
-4.2750 0.6769 -2.4989 0.9802
-4.2967 0.5231 -2.4990 0.9802
-4.3235 0.2137 -2.4992 0.9802
-4.3281 -0.0969 -2.4994 0.9802
-4.3104 -0.4071 -2.4997 0.9802
-4.2423 -0.8680 -2.5000 0.9802
-4.0202 -1.6116 -2.5006 0.9802
-3.8243 -2.0346 -2.5010 0.9802
-3.4005 -2.6850 -2.5015 0.9802
-3.3022 -2.8054 -2.5016 0.9802
-3.1995 -2.9222 -2.5018 0.9802
-2.8674 -3.2496 -2.5021 0.9802
-2.6272 -3.4471 -2.5023 0.9802
-1.9701 -3.8613 -2.5027 0.9802
-1.8304 -3.9297 -2.5028 0.9802
-1.6883 -3.9929 -2.5029 0.9802
-1.2496 -4.1516 -2.5031 0.9802
-0.7963 -4.2622 -2.5033 0.9802
-0.6428 -4.2881 -2.5034 0.9802
-0.1784 -4.3326 -2.5036 0.9802
-0.0228 -4.3363 -2.5036 0.9802
0.1328 -4.3344 -2.5036 0.9802
0.2883 -4.3269 -2.5037 0.9802
0.4433 -4.3139 -2.5037 0.9802
0.5978 -4.2952 -2.5037 0.9802
1.0559 -4.2062 -2.5038 0.9802
1.2062 -4.1656 -2.5038 0.9802
1.3548 -4.1197 -2.5038 0.9802
1.7897 -3.9502 -2.5038 0.9802
1.9302 -3.8835 -2.5038 0.9802
2.0683 -3.8117 -2.5038 0.9802
2.3363 -3.6535 -2.5037 0.9802
2.5922 -3.4764 -2.5037 0.9802
2.8348 -3.2815 -2.5036 0.9802
2.9506 -3.1776 -2.5036 0.9802
3.0627 -3.0697 -2.5035 0.9802
3.1708 -2.9577 -2.5035 0.9802
3.3746 -2.7226 -2.5033 0.9802
3.4700 -2.5997 -2.5033 0.9802
3.5610 -2.4735 -2.5032 0.9802
3.6473 -2.3440 -2.5032 0.9802
