ply
format ascii 1.0
element vertex 957
property float32 x
property float32 y
property float32 z
property float32 I
end_header
-0.8716 11.6981 2.0684 0.9535
-1.3111 11.8120 2.0956 0.9529
-2.1893 11.8368 2.1225 0.9523
-3.0952 11.8624 2.1617 0.9514
-4.0402 11.8891 2.2141 0.9503
-5.0376 11.9173 2.2814 0.9488
-5.5607 11.9321 2.3212 0.9479
-6.6674 11.9633 2.4149 0.9459
-6.3715 9.7081 2.0475 0.9539
-9.2089 12.0350 2.6721 0.9403
-9.9360 12.0555 2.7546 0.9385
-25.6766 26.9254 6.5604 0.8597
-27.7797 27.0971 6.8427 0.8542
-29.9573 27.1777 7.1321 0.8485
-21.9114 18.4788 5.0541 0.8901
-21.9479 17.1906 4.9158 0.8929
-22.0154 14.8075 4.6783 0.8978
-21.9938 13.6643 4.5656 0.9002
-23.4255 12.3022 4.6655 0.8981
-25.7753 12.3684 5.0411 0.8904
-41.8447 -24.4768 8.5479 0.8213
-36.7666 -23.3308 7.6780 0.8379
-36.2002 -26.8288 7.9450 0.8328
-1.0938 9.8542 1.5189 0.9607
-1.8180 9.8293 1.5313 0.9604
-2.5545 9.7901 1.5500 0.9599
-3.3344 9.8122 1.5876 0.9589
-3.7398 9.8236 1.6103 0.9584
-5.0376 11.9175 1.9821 0.9490
-6.1032 11.9476 2.0553 0.9472
-6.6676 11.9635 2.0982 0.9461
-7.2567 11.9802 2.1457 0.9449
-6.3709 9.7072 1.7788 0.9541
-8.5234 12.0159 2.2569 0.9421
-9.2091 12.0352 2.3216 0.9405
-10.7108 12.0776 2.4730 0.9368
-21.9939 13.6644 3.9667 0.9005
-22.0771 12.6331 3.8967 0.9022
-23.4263 12.3027 4.0536 0.8985
-36.6360 -23.2480 6.6471 0.8390
-36.0974 -24.7816 6.7077 0.8376
-36.5462 -29.1906 7.1654 0.8276
-0.8674 11.6410 1.5201 0.9540
-1.7206 11.6429 1.5326 0.9536
-3.7872 11.1445 1.5328 0.9536
-4.1878 11.0002 1.5327 0.9536
-4.5828 10.8414 1.5327 0.9536
-4.9718 10.6684 1.5327 0.9536
-5.3542 10.4813 1.5327 0.9536
-5.7296 10.2805 1.5326 0.9536
-6.0974 10.0661 1.5325 0.9536
-6.3703 9.7063 1.5119 0.9542
-9.9364 12.0560 2.0345 0.9389
-25.7463 26.9985 4.8581 0.8603
-29.8885 27.1154 5.2551 0.8498
-21.9118 18.4791 3.7326 0.8908
-21.8954 17.1495 3.6217 0.8939
-21.9828 15.9698 3.5383 0.8962
-22.0157 14.8077 3.4550 0.8985
-21.9941 13.6645 3.3718 0.9008
-22.0773 12.6332 3.3123 0.9025
-23.4272 12.3031 3.4458 0.8988
-25.7774 12.3694 3.7232 0.8911
-28.6474 12.4929 4.0698 0.8816
-26.3298 10.3658 3.6848 0.8921
-35.9026 12.6550 4.9572 0.8577
-36.7644 -23.3295 5.6700 0.8389
-36.6114 -31.4776 6.2874 0.8230
-0.8717 11.6987 1.2597 0.9539
-1.1000 9.9104 1.0707 0.9607
-2.1819 11.7967 1.2882 0.9529
-2.6292 11.8093 1.2992 0.9525
-3.0954 11.8630 1.3165 0.9519
-3.5623 11.8762 1.3314 0.9513
-4.5317 11.9036 1.3677 0.9500
-5.5610 11.9327 1.4137 0.9484
-6.6678 11.9640 1.4708 0.9464
-7.2570 11.9806 1.5041 0.9452
-8.2662 11.6534 1.5342 0.9441
-8.6816 11.3459 1.5341 0.9441
-9.0854 11.0235 1.5340 0.9442
-9.8565 10.3359 1.5337 0.9442
-21.9119 18.4792 3.0780 0.8911
-21.8956 17.1496 2.9865 0.8941
-22.0159 14.8078 2.8491 0.8988
-22.0473 13.6976 2.7872 0.9008
-22.0774 12.6333 2.7314 0.9027
-23.4281 12.3036 2.8416 0.8990
-25.7784 12.3699 3.0703 0.8913
-28.6486 12.4934 3.3561 0.8818
-26.3266 10.3646 3.0382 0.8924
-37.0094 -18.1949 4.4284 0.8471
-36.6543 -23.2596 4.6616 0.8398
-0.8717 11.6989 0.9931 0.9540
-3.5623 11.8764 1.0496 0.9514
-4.0159 11.8175 1.0566 0.9511
-6.3692 9.7046 0.9827 0.9545
-8.4544 11.9186 1.2370 0.9430
-9.9368 12.0566 1.3226 0.9392
-11.2713 10.2255 1.2883 0.9407
-21.9121 18.4794 2.4265 0.8913
-21.9486 17.1911 2.3601 0.8941
-21.9831 15.9700 2.3002 0.8967
-22.0160 14.8079 2.2461 0.8990
-22.0776 12.6334 2.1533 0.9029
-23.4289 12.3040 2.2402 0.8992
-25.7794 12.3704 2.4206 0.8916
-35.6819 12.5772 3.2027 0.8591
-40.9106 12.7767 3.6281 0.8419
-36.7623 -23.3281 3.6857 0.8396
-0.8717 11.6990 0.7275 0.9541
-1.1001 9.9107 0.6183 0.9608
-1.7481 11.8291 0.7415 0.9532
-2.1909 11.8453 0.7470 0.9529
-2.6400 11.8579 0.7533 0.9525
-3.0955 11.8634 0.7603 0.9521
-3.5624 11.8766 0.7689 0.9515
-4.0160 11.8177 0.7740 0.9512
-5.0380 11.9183 0.8024 0.9495
-9.1347 11.9381 0.9321 0.9415
-21.9487 17.1912 1.7288 0.8943
-22.0476 13.6978 1.6096 0.9012
-21.6617 11.3759 1.5172 0.9066
-21.6978 10.4118 1.4924 0.9081
-26.2290 10.3262 1.7480 0.8932
-35.9083 12.6570 2.3610 0.8585
-40.9865 12.8004 2.6627 0.8419
-37.0008 -18.1907 2.5567 0.8477
-36.7612 -23.3275 2.6998 0.8399
-0.8717 11.6992 0.4626 0.9541
-1.1001 9.9109 0.3932 0.9609
-1.7481 11.8293 0.4715 0.9533
-2.1917 11.8498 0.4752 0.9529
-4.0160 11.8179 0.4922 0.9513
-4.5319 11.9042 0.5023 0.9503
-5.0381 11.9186 0.5102 0.9495
-5.5613 11.9333 0.5191 0.9487
-7.2574 11.9813 0.5523 0.9455
-6.3681 9.7029 0.4576 0.9546
-9.1349 11.9383 0.5927 0.9416
-23.9647 25.1303 1.3692 0.8702
-12.2181 11.0845 0.6505 0.9361
-12.2654 10.3438 0.6327 0.9378
-21.8961 17.1500 1.0967 0.8946
-28.5479 12.4496 1.2281 0.8828
-40.6160 12.6847 1.6778 0.8434
-1.1001 9.9111 0.1684 0.9609
-1.7482 11.8295 0.2020 0.9533
-2.1925 11.8542 0.2036 0.9529
-2.6420 11.8670 0.2054 0.9525
-3.0956 11.8638 0.2071 0.9521
-3.5625 11.8770 0.2095 0.9516
-5.0382 11.9187 0.2186 0.9496
-6.1359 12.0116 0.2278 0.9475
-6.7033 12.0276 0.2326 0.9464
-7.2576 11.9815 0.2366 0.9455
-6.3675 9.7021 0.1960 0.9546
-9.1351 11.9386 0.2539 0.9416
-10.6978 12.0630 0.2723 0.9375
-20.6015 21.6034 0.5043 0.8874
-22.1365 21.5926 0.5224 0.8836
-12.7860 10.7829 0.2825 0.9353
-21.9836 15.9704 0.4590 0.8970
-22.0165 14.8082 0.4482 0.8993
-21.9948 13.6650 0.4374 0.9016
-19.9949 11.4417 0.3891 0.9120
-25.7825 12.3718 0.4831 0.8919
-26.3185 10.3614 0.4778 0.8930
-35.6909 12.5803 0.6393 0.8595
-40.9113 12.7769 0.7240 0.8424
-1.7482 11.8297 -0.0673 0.9533
-2.1934 11.8587 -0.0679 0.9529
-3.5626 11.8772 -0.0698 0.9516
-4.0162 11.8183 -0.0703 0.9513
-6.7034 12.0278 -0.0775 0.9464
-7.2577 11.9818 -0.0789 0.9455
-6.3670 9.7012 -0.0653 0.9546
-9.1353 11.9388 -0.0846 0.9416
-9.9377 12.0576 -0.0880 0.9394
-20.6020 21.6040 -0.1681 0.8874
-23.7888 21.5816 -0.1808 0.8794
-21.9128 18.4799 -0.1614 0.8917
-21.9492 17.1916 -0.1570 0.8945
-22.0481 13.6981 -0.1461 0.9014
-22.0782 12.6337 -0.1432 0.9033
-23.4324 12.3058 -0.1490 0.8995
-35.9139 12.6590 -0.2144 0.8587
-34.8696 10.8900 -0.2057 0.8641
-43.0260 -17.4141 -0.2613 0.8305
-35.4294 -17.4181 -0.2223 0.8539
-32.4205 -17.4221 -0.2072 0.8631
-27.4623 -17.4266 -0.1831 0.8780
-25.4014 -17.4385 -0.1735 0.8840
-23.5280 -17.4371 -0.1649 0.8895
-21.8294 -17.4359 -0.1573 0.8943
-0.8717 11.6998 -0.3304 0.9541
-1.4858 10.0543 -0.2862 0.9601
-2.1934 11.8590 -0.3396 0.9529
-3.0289 10.0979 -0.2969 0.9587
-5.0384 11.9192 -0.3644 0.9495
-5.1896 10.1591 -0.3212 0.9554
-6.3664 9.7004 -0.3267 0.9546
-7.2509 10.2220 -0.3529 0.9511
-9.2106 12.0372 -0.4268 0.9412
-8.4490 10.2513 -0.3741 0.9482
-9.8302 10.3082 -0.4011 0.9446
-22.0168 14.8084 -0.7471 0.8993
-23.4332 12.3063 -0.7453 0.8995
-24.1637 10.5376 -0.7423 0.8999
-26.3146 10.3598 -0.7963 0.8930
-30.3006 10.6804 -0.9047 0.8794
-34.5867 10.8017 -1.0203 0.8650
-43.0274 -17.4147 -1.3070 0.8305
-38.9275 -17.4192 -1.2009 0.8431
-35.4288 -17.4178 -1.1116 0.8539
-32.4200 -17.4218 -1.0363 0.8631
-29.7955 -17.4287 -0.9720 0.8710
-27.4628 -17.4270 -0.9158 0.8780
-25.3992 -17.4370 -0.8675 0.8840
-23.5261 -17.4357 -0.8245 0.8894
-21.8277 -17.4345 -0.7866 0.8942
-0.8718 11.7000 -0.5950 0.9541
-1.1002 9.9115 -0.5057 0.9608
-1.4858 10.0545 -0.5154 0.9601
-2.6413 11.8636 -0.6164 0.9525
-3.0958 11.8644 -0.6218 0.9521
-3.0289 10.0981 -0.5347 0.9587
-4.5322 11.9051 -0.6460 0.9503
-4.7284 10.1462 -0.5677 0.9562
-6.6687 11.9655 -0.6947 0.9466
-7.2510 10.2221 -0.6356 0.9510
-9.2108 12.0375 -0.7687 0.9411
-10.6981 12.0633 -0.8177 0.9375
-9.8302 10.3083 -0.7224 0.9445
-10.5714 10.3116 -0.7489 0.9426
-11.4291 10.3687 -0.7826 0.9401
-21.9131 18.4802 -1.4537 0.8915
-21.9495 17.1919 -1.4140 0.8943
-21.9841 15.9707 -1.3780 0.8969
-22.0484 13.6983 -1.3164 0.9013
-21.2443 12.1566 -1.2413 0.9066
-21.8421 11.4707 -1.2512 0.9059
-43.8315 10.2796 -2.2832 0.8350
-48.6288 5.9546 -2.4846 0.8218
-48.8361 4.1941 -2.4858 0.8218
-49.0604 0.6537 -2.4883 0.8216
-49.0770 -1.1216 -2.4896 0.8215
-48.2014 -9.9576 -2.4961 0.8211
-47.4064 -13.4301 -2.4988 0.8209
-46.6565 -15.0605 -2.4864 0.8217
-42.9591 -17.3871 -2.3503 0.8306
-35.4282 -17.4175 -2.0021 0.8538
-32.4194 -17.4215 -1.8665 0.8629
-29.7961 -17.4290 -1.7506 0.8709
-25.3970 -17.4355 -1.5623 0.8839
-23.5242 -17.4343 -1.4849 0.8893
-0.8718 11.7002 -0.8603 0.9540
-1.4859 10.0546 -0.7452 0.9601
-2.1905 11.8431 -0.8831 0.9528
-3.0958 11.8646 -0.8991 0.9520
-4.7285 10.1464 -0.8208 0.9561
-6.6688 11.9658 -1.0044 0.9465
-6.2181 10.2654 -0.8800 0.9530
-6.3653 9.6987 -0.8506 0.9545
-7.2298 10.1923 -0.9162 0.9511
-7.8115 10.2087 -0.9425 0.9498
-8.4283 10.2262 -0.9717 0.9482
-9.7583 10.2329 -1.0368 0.9449
-21.9133 18.4803 -2.1018 0.8914
-22.0171 14.8086 -1.9455 0.8990
-22.0485 13.6984 -1.9032 0.9011
-20.9952 12.0140 -1.7736 0.9075
-30.7186 8.3872 -2.3348 0.8801
-33.0241 7.7450 -2.4871 0.8728
-33.2932 6.5477 -2.4879 0.8728
-33.8402 2.9062 -2.4904 0.8726
-33.9349 1.6810 -2.4912 0.8726
-33.9915 -0.7768 -2.4930 0.8725
-33.9533 -2.0064 -2.4939 0.8725
-33.8708 -3.2342 -2.4948 0.8724
-33.5729 -5.6782 -2.4966 0.8724
-33.3580 -6.8912 -2.4975 0.8723
-32.7970 -9.2913 -2.4994 0.8722
-32.4516 -10.4753 -2.5003 0.8722
-30.6478 -15.0673 -2.5040 0.8720
-27.7025 -16.2044 -2.3532 0.8792
-21.8243 -17.4318 -2.0480 0.8940
-1.1002 9.9119 -0.9574 0.9607
-1.4822 10.0297 -0.9734 0.9601
-1.8570 10.0403 -0.9803 0.9598
-2.2377 10.0511 -0.9886 0.9595
-3.0388 10.1310 -1.0154 0.9584
-3.4164 10.0535 -1.0194 0.9582
-4.2598 10.0773 -1.0504 0.9570
-4.7022 10.0899 -1.0687 0.9563
-5.1609 10.1029 -1.0891 0.9554
-6.3648 9.6978 -1.1136 0.9545
-7.2075 10.1608 -1.1960 0.9512
-7.7874 10.1773 -1.2303 0.9498
-8.4023 10.1947 -1.2683 0.9483
-9.7585 10.2331 -1.3575 0.9448
-10.5128 10.2545 -1.4099 0.9427
-12.2589 10.3384 -1.5396 0.9376
-18.5823 14.5545 -2.2661 0.9095
-19.1095 13.8824 -2.2676 0.9095
-20.0945 12.4843 -2.2712 0.9093
-20.5510 11.7598 -2.2732 0.9092
-20.9827 11.0194 -2.2753 0.9092
-23.4663 8.2715 -2.3888 0.9049
-25.0174 6.8306 -2.4897 0.9010
-25.2541 5.9227 -2.4903 0.9010
-25.6287 4.0838 -2.4915 0.9010
-25.7662 3.1551 -2.4922 0.9009
-25.8702 2.2217 -2.4928 0.9009
-25.9768 0.3461 -2.4941 0.9009
-25.9480 -1.5334 -2.4955 0.9008
-25.8827 -2.4714 -2.4962 0.9008
-25.7836 -3.4069 -2.4969 0.9008
-25.2843 -6.1846 -2.4990 0.9007
-25.0512 -7.0970 -2.4997 0.9007
-24.7853 -8.0006 -2.5004 0.9006
-24.4867 -8.8942 -2.5011 0.9006
-24.1560 -9.7768 -2.5018 0.9006
-23.7933 -10.6470 -2.5025 0.9006
-23.3994 -11.5038 -2.5033 0.9005
-22.9745 -12.3460 -2.5040 0.9005
-21.5202 -14.7740 -2.5061 0.9004
-20.4452 -15.1524 -2.4431 0.9028
-0.7359 9.8763 -1.1764 0.9609
-1.0974 9.8865 -1.1816 0.9607
-2.6174 10.0310 -1.2314 0.9591
-3.4165 10.0537 -1.2613 0.9581
-5.6382 10.1166 -1.3757 0.9544
-6.1365 10.1307 -1.4069 0.9534
-6.3642 9.6969 -1.3778 0.9544
-7.2077 10.1611 -1.4798 0.9511
-7.7876 10.1775 -1.5223 0.9497
-8.4025 10.1949 -1.5693 0.9482
-10.5131 10.2548 -1.7445 0.9426
-15.1693 11.8813 -2.2888 0.9253
-17.7442 8.5146 -2.3379 0.9238
-19.5084 7.6803 -2.4904 0.9190
-20.2365 5.5252 -2.4918 0.9190
-20.7282 3.3029 -2.4933 0.9189
-20.8384 2.5516 -2.4938 0.9189
-20.9772 1.0391 -2.4948 0.9189
-21.0055 0.2799 -2.4954 0.9189
-20.6006 -4.2557 -2.4987 0.9188
-20.4379 -4.9991 -2.4993 0.9187
-20.2484 -5.7363 -2.4999 0.9187
-20.0323 -6.4663 -2.5005 0.9187
-19.5215 -7.9010 -2.5016 0.9187
-19.2274 -8.6039 -2.5022 0.9186
-18.9080 -9.2957 -2.5028 0.9186
-18.5637 -9.9757 -2.5033 0.9186
-16.4849 -13.1670 -2.5061 0.9185
-16.0013 -13.7576 -2.5067 0.9185
-0.7359 9.8764 -1.4033 0.9608
-1.0974 9.8867 -1.4094 0.9606
-1.4776 9.9989 -1.4321 0.9600
-1.8513 10.0095 -1.4423 0.9597
-2.2309 10.0202 -1.4545 0.9594
-3.0122 10.0424 -1.4855 0.9585
-3.4166 10.0538 -1.5045 0.9580
-3.8320 10.0656 -1.5260 0.9574
-5.1611 10.1033 -1.6075 0.9552
-6.1366 10.1309 -1.6782 0.9533
-6.2985 9.5969 -1.6265 0.9547
-7.7877 10.1777 -1.8158 0.9495
-8.4027 10.1952 -1.8719 0.9480
-11.3327 10.2812 -2.1680 0.9401
-12.2575 10.3373 -2.2719 0.9373
-12.9896 10.1741 -2.3378 0.9355
-14.4168 8.2498 -2.3535 0.9351
-15.5652 8.1743 -2.4910 0.9314
-16.1197 7.0297 -2.4917 0.9314
-16.3658 6.4431 -2.4921 0.9314
-16.7938 5.2448 -2.4928 0.9314
-16.9752 4.6348 -2.4932 0.9314
-17.1345 4.0185 -2.4936 0.9314
-17.2715 3.3967 -2.4941 0.9314
-17.4778 2.1401 -2.4949 0.9313
-17.6161 0.2347 -2.4962 0.9313
-17.4789 -2.3095 -2.4981 0.9312
-17.3873 -2.9407 -2.4986 0.9312
-17.2728 -3.5683 -2.4991 0.9312
-17.1358 -4.1914 -2.4995 0.9312
-16.9763 -4.8093 -2.5000 0.9312
-16.7945 -5.4212 -2.5005 0.9312
-16.5906 -6.0262 -2.5010 0.9312
-16.1179 -7.2124 -2.5019 0.9311
-14.5714 -10.0036 -2.5043 0.9311
-13.8153 -11.0348 -2.5053 0.9311
-1.0974 9.8868 -1.6388 0.9605
-1.4777 9.9991 -1.6651 0.9599
-2.2309 10.0204 -1.6912 0.9592
-3.0123 10.0426 -1.7272 0.9584
-4.2600 10.0779 -1.8025 0.9566
-4.7024 10.0904 -1.8339 0.9559
-5.6384 10.1170 -1.9080 0.9541
-6.2754 9.5616 -1.8841 0.9547
-7.2080 10.1615 -2.0524 0.9507
-10.5151 9.5395 -2.3389 0.9441
-11.1791 8.7560 -2.3393 0.9441
-11.4895 8.3467 -2.3395 0.9441
-12.2348 8.2291 -2.4290 0.9420
-12.8482 7.9824 -2.4918 0.9405
-13.6418 6.5461 -2.4927 0.9405
-14.0827 5.5442 -2.4933 0.9405
-14.4504 4.5130 -2.4939 0.9405
-14.7429 3.4576 -2.4946 0.9405
-14.8604 2.9225 -2.4950 0.9405
-14.9585 2.3835 -2.4953 0.9404
-15.0372 1.8413 -2.4957 0.9404
-15.1355 0.7498 -2.4965 0.9404
-15.1551 0.2019 -2.4969 0.9404
-15.0951 -1.4413 -2.4981 0.9404
-14.4448 -4.6627 -2.5005 0.9403
-13.6306 -6.7012 -2.5022 0.9403
-12.2127 -9.0511 -2.5042 0.9402
-11.8793 -9.4884 -2.5046 0.9402
-1.4777 9.9993 -1.8999 0.9597
-3.0123 10.0427 -1.9707 0.9582
-3.8321 10.0660 -2.0245 0.9571
-4.2601 10.0781 -2.0566 0.9564
-4.7025 10.0906 -2.0925 0.9557
-5.6385 10.1172 -2.1770 0.9540
-6.2646 9.5452 -2.1460 0.9546
-6.7509 9.5171 -2.1932 0.9536
-7.5633 9.8843 -2.3394 0.9506
-8.2588 9.3128 -2.3396 0.9506
-8.9114 8.6925 -2.3399 0.9506
-9.7551 8.2270 -2.3986 0.9494
-10.7285 7.7939 -2.4925 0.9475
-11.0043 7.4014 -2.4927 0.9475
-11.2658 6.9993 -2.4929 0.9474
-11.5127 6.5879 -2.4932 0.9474
-11.7446 6.1678 -2.4934 0.9474
-11.9611 5.7396 -2.4937 0.9474
-12.3474 4.8611 -2.4942 0.9474
-12.9253 3.0313 -2.4954 0.9474
-13.1827 1.6142 -2.4963 0.9474
-13.2342 1.1365 -2.4967 0.9474
-13.2684 0.6573 -2.4970 0.9474
-13.2853 0.1770 -2.4973 0.9474
-13.2848 -0.3037 -2.4977 0.9474
-13.1794 -1.7414 -2.4987 0.9473
-12.9188 -3.1600 -2.4998 0.9473
-12.7980 -3.6257 -2.5002 0.9473
-12.1485 -5.4362 -2.5016 0.9473
-11.9457 -5.8729 -2.5020 0.9473
-11.7272 -6.3020 -2.5024 0.9473
-11.4932 -6.7229 -2.5027 0.9472
-11.2442 -7.1352 -2.5031 0.9472
-10.9804 -7.5382 -2.5034 0.9472
-10.7021 -7.9315 -2.5038 0.9472
-10.1035 -8.6868 -2.5045 0.9472
-0.7359 9.8769 -2.0936 0.9603
-1.8514 10.0100 -2.1518 0.9592
-2.2310 10.0208 -2.1701 0.9589
-2.6176 10.0317 -2.1915 0.9585
-3.0124 10.0429 -2.2163 0.9580
-3.4167 10.0544 -2.2447 0.9575
-3.8322 10.0661 -2.2768 0.9569
-5.0359 9.8583 -2.3400 0.9558
-5.3893 9.6699 -2.3400 0.9557
-5.7356 9.4689 -2.3401 0.9557
-6.0745 9.2556 -2.3402 0.9557
-7.3468 8.2844 -2.3406 0.9557
-8.4137 8.2070 -2.4845 0.9531
-8.7346 7.9241 -2.4929 0.9529
-9.0160 7.6035 -2.4930 0.9529
-9.5434 6.9329 -2.4934 0.9529
-10.0211 6.2260 -2.4938 0.9529
-10.8180 4.7176 -2.4947 0.9529
-10.9825 4.3237 -2.4949 0.9529
-11.2687 3.5193 -2.4954 0.9529
-11.3898 3.1098 -2.4957 0.9529
-11.4960 2.6961 -2.4960 0.9529
-11.5873 2.2788 -2.4962 0.9529
-11.6634 1.8585 -2.4965 0.9529
-11.8003 0.5845 -2.4974 0.9528
-11.7671 -1.1236 -2.4986 0.9528
-11.7202 -1.5486 -2.4990 0.9528
-11.2577 -3.6340 -2.5006 0.9528
-11.1204 -4.0392 -2.5009 0.9528
-10.6215 -5.2219 -2.5019 0.9528
-10.2190 -5.9776 -2.5025 0.9528
-9.9974 -6.3440 -2.5028 0.9527
-9.7626 -6.7023 -2.5031 0.9527
-9.5151 -7.0518 -2.5034 0.9527
-9.2549 -7.3922 -2.5037 0.9527
-8.9826 -7.7231 -2.5041 0.9527
-1.0975 9.8873 -2.3380 0.9599
-1.8115 9.7939 -2.3408 0.9599
-2.1644 9.7218 -2.3408 0.9599
-2.5146 9.6371 -2.3408 0.9599
-3.2046 9.4300 -2.3408 0.9599
-4.2071 9.0277 -2.3408 0.9599
-4.5309 8.8697 -2.3408 0.9599
-4.8488 8.7002 -2.3409 0.9599
-5.4653 8.3274 -2.3410 0.9599
-5.8309 8.2203 -2.3687 0.9594
-8.1115 6.8407 -2.4938 0.9573
-8.3541 6.5433 -2.4940 0.9573
-9.0155 5.6012 -2.4945 0.9573
-9.2134 5.2718 -2.4947 0.9573
-9.3982 4.9356 -2.4949 0.9573
-9.6840 4.2231 -2.4830 0.9575
-9.8800 3.8897 -2.4955 0.9573
-10.0871 3.1503 -2.4836 0.9575
-10.2460 2.7975 -2.4962 0.9573
-10.4235 2.0500 -2.4967 0.9573
-10.5466 1.2914 -2.4972 0.9573
-10.6146 0.5258 -2.4977 0.9573
-10.5936 0.1412 -2.4900 0.9574
-10.6126 -0.6271 -2.4986 0.9573
-10.5842 -1.0107 -2.4988 0.9573
-10.5419 -1.3929 -2.4991 0.9572
-10.1253 -3.2684 -2.5006 0.9572
-9.8648 -3.9927 -2.5012 0.9572
-9.5526 -4.6964 -2.5017 0.9572
-8.9909 -5.7054 -2.5026 0.9572
-8.7797 -6.0274 -2.5029 0.9572
-0.6720 9.0190 -2.3417 0.9633
-0.9977 8.9886 -2.3416 0.9633
-3.2175 8.4515 -2.3415 0.9633
-3.8325 8.2238 -2.3492 0.9632
-4.5727 8.2047 -2.4320 0.9619
-5.2844 8.0518 -2.4936 0.9610
-5.5723 7.8556 -2.4937 0.9610
-6.1260 7.4327 -2.4939 0.9610
-6.3910 7.2066 -2.4940 0.9610
-7.3648 6.2110 -2.4944 0.9610
-7.5850 5.9409 -2.4946 0.9610
-7.7954 5.6631 -2.4947 0.9610
-7.9956 5.3778 -2.4949 0.9610
-8.1854 5.0854 -2.4951 0.9610
-8.3645 4.7864 -2.4952 0.9610
-8.6899 4.1699 -2.4956 0.9610
-8.8357 3.8531 -2.4958 0.9610
-9.0476 3.1891 -2.4839 0.9611
-9.2033 2.8742 -2.4964 0.9609
-9.3886 2.2019 -2.4968 0.9609
-9.5249 1.5177 -2.4973 0.9609
-9.5745 1.1724 -2.4975 0.9609
-9.6116 0.8254 -2.4978 0.9609
-9.6361 0.4773 -2.4980 0.9609
-9.6169 0.1282 -2.4902 0.9610
-9.6473 -0.2205 -2.4985 0.9609
-9.4551 -1.9533 -2.4998 0.9609
-9.3793 -2.2942 -2.5001 0.9609
-8.9543 -3.6241 -2.5011 0.9609
-8.6707 -4.2628 -2.5016 0.9609
-8.5118 -4.5741 -2.5019 0.9609
-8.1608 -5.1784 -2.5024 0.9609
-7.9688 -5.4707 -2.5027 0.9608
-7.5540 -6.0337 -2.5032 0.9608
-7.3315 -6.3036 -2.5034 0.9608
-1.2139 8.2146 -2.3508 0.9661
-1.5180 8.2079 -2.3630 0.9659
-2.1404 8.2030 -2.4000 0.9654
-2.7851 8.1957 -2.4505 0.9647
-3.4302 8.1148 -2.4940 0.9640
-3.7214 7.9854 -2.4941 0.9640
-4.0079 7.8458 -2.4941 0.9640
-4.2890 7.6958 -2.4941 0.9640
-4.5647 7.5358 -2.4942 0.9640
-5.3544 6.9976 -2.4944 0.9640
-6.5271 5.9214 -2.4949 0.9640
-7.1311 5.1805 -2.4952 0.9640
-7.3142 4.9195 -2.4954 0.9640
-7.9492 3.8144 -2.4960 0.9640
-8.1648 3.2144 -2.4841 0.9642
-8.2763 2.9172 -2.4842 0.9642
-8.5880 2.0141 -2.4972 0.9640
-8.8140 0.4366 -2.4982 0.9640
-8.7964 0.1172 -2.4904 0.9641
-8.8241 -0.2017 -2.4987 0.9640
-8.3032 -3.0160 -2.5008 0.9639
-8.0650 -3.6090 -2.5013 0.9639
-7.9300 -3.8987 -2.5016 0.9639
-7.6289 -4.4625 -2.5020 0.9639
-7.4633 -4.7359 -2.5023 0.9639
-7.1027 -5.2640 -2.5027 0.9639
-6.7049 -5.7647 -2.5032 0.9639
-0.8948 8.0612 -2.4947 0.9666
-1.1857 8.0235 -2.4947 0.9666
-1.7625 7.9166 -2.4946 0.9666
-2.0477 7.8476 -2.4946 0.9666
-2.3301 7.7684 -2.4946 0.9666
-2.6095 7.6790 -2.4946 0.9666
-2.8855 7.5796 -2.4946 0.9666
-3.1578 7.4703 -2.4946 0.9666
-3.4259 7.3513 -2.4946 0.9666
-3.9485 7.0846 -2.4947 0.9666
-4.4504 6.7809 -2.4947 0.9666
-4.6928 6.6157 -2.4948 0.9666
-4.9292 6.4419 -2.4949 0.9666
-5.1591 6.2596 -2.4950 0.9666
-5.3822 6.0690 -2.4950 0.9666
-5.5984 5.8707 -2.4951 0.9666
-6.0086 5.4511 -2.4953 0.9666
-6.2023 5.2304 -2.4954 0.9666
-6.8928 4.2824 -2.4959 0.9666
-7.0436 4.0306 -2.4961 0.9666
-7.1852 3.7734 -2.4962 0.9666
-7.6562 2.6987 -2.4969 0.9666
-8.0614 0.9871 -2.4980 0.9666
-8.1130 0.4019 -2.4984 0.9666
-8.1221 -0.1856 -2.4989 0.9666
-8.1108 -0.4793 -2.4991 0.9666
-7.9597 -1.6444 -2.4999 0.9666
-7.8958 -1.9313 -2.5002 0.9666
-7.8214 -2.2158 -2.5004 0.9666
-7.7369 -2.4975 -2.5006 0.9665
-7.1646 -3.8501 -2.5017 0.9665
-7.0213 -4.1071 -2.5019 0.9665
-6.8688 -4.3587 -2.5022 0.9665
-6.7072 -4.6046 -2.5024 0.9665
-6.5369 -4.8446 -2.5026 0.9665
-6.3579 -5.0783 -2.5028 0.9665
-1.0973 7.4255 -2.4951 0.9689
-1.6312 7.3266 -2.4950 0.9689
-2.1565 7.1895 -2.4950 0.9689
-2.9225 6.9137 -2.4950 0.9689
-3.1706 6.8035 -2.4950 0.9689
-3.4146 6.6844 -2.4951 0.9689
-4.1187 6.2756 -2.4952 0.9689
-4.3431 6.1227 -2.4952 0.9689
-4.9811 5.6167 -2.4955 0.9689
-5.1811 5.4331 -2.4955 0.9688
-5.3743 5.2424 -2.4956 0.9688
-5.9113 4.6300 -2.4959 0.9688
-6.0752 4.4134 -2.4961 0.9688
-6.3789 3.9631 -2.4963 0.9688
-6.5184 3.7300 -2.4964 0.9688
-6.6494 3.4920 -2.4966 0.9688
-6.7718 3.2495 -2.4967 0.9688
-6.8853 3.0026 -2.4969 0.9688
-7.1713 2.2396 -2.4973 0.9688
-7.4886 0.6431 -2.4984 0.9688
-7.5075 0.3719 -2.4986 0.9688
-7.5159 -0.1718 -2.4990 0.9688
-7.5054 -0.4435 -2.4992 0.9688
-7.4549 -0.9851 -2.4996 0.9688
-7.4150 -1.2541 -2.4998 0.9688
-7.3061 -1.7871 -2.5002 0.9688
-7.2373 -2.0503 -2.5004 0.9688
-7.0714 -2.5685 -2.5008 0.9688
-6.7532 -3.3201 -2.5014 0.9688
-6.6293 -3.5625 -2.5016 0.9688
-6.3555 -4.0330 -2.5020 0.9688
-6.2060 -4.2605 -2.5022 0.9688
-6.0483 -4.4825 -2.5024 0.9688
-5.8827 -4.6987 -2.5026 0.9688
-5.7094 -4.9088 -2.5028 0.9688
-0.5185 6.9592 -2.4956 0.9708
-1.0202 6.9033 -2.4955 0.9708
-2.0048 6.6839 -2.4954 0.9708
-2.2452 6.6070 -2.4954 0.9708
-2.9477 6.3250 -2.4954 0.9708
-3.1745 6.2144 -2.4955 0.9708
-3.8291 5.8342 -2.4956 0.9708
-4.0376 5.6920 -2.4956 0.9708
-4.2409 5.5425 -2.4957 0.9708
-4.4387 5.3855 -2.4958 0.9708
-4.8167 5.0510 -2.4959 0.9708
-4.9964 4.8736 -2.4960 0.9708
-5.1696 4.6899 -2.4961 0.9708
-5.3360 4.5001 -2.4962 0.9708
-5.6478 4.1029 -2.4964 0.9708
-5.9301 3.6843 -2.4966 0.9708
-6.2952 3.0208 -2.4970 0.9708
-6.8542 1.3480 -2.4981 0.9708
-6.9613 0.5978 -2.4986 0.9708
-6.9789 0.3457 -2.4988 0.9708
-6.9873 0.0931 -2.4989 0.9708
-6.9866 -0.1597 -2.4991 0.9707
-6.9768 -0.4123 -2.4993 0.9707
-6.8926 -1.1657 -2.4999 0.9707
-6.8465 -1.4144 -2.5000 0.9707
-6.7914 -1.6612 -2.5002 0.9707
-6.7272 -1.9058 -2.5004 0.9707
-6.5730 -2.3875 -2.5008 0.9707
-6.4829 -2.6238 -2.5010 0.9707
-6.3842 -2.8568 -2.5012 0.9707
-6.1619 -3.3113 -2.5016 0.9707
-6.0386 -3.5323 -2.5018 0.9707
-5.9074 -3.7486 -2.5019 0.9707
-5.6218 -4.1664 -2.5023 0.9707
-5.4678 -4.3674 -2.5025 0.9707
-0.9522 6.4429 -2.4958 0.9725
-1.1845 6.4042 -2.4958 0.9725
-1.4153 6.3571 -2.4958 0.9725
-2.0955 6.1663 -2.4958 0.9725
-2.5357 5.9988 -2.4958 0.9725
-2.9628 5.7999 -2.4958 0.9725
-3.3743 5.5706 -2.4959 0.9725
-3.5736 5.4451 -2.4959 0.9725
-3.7683 5.3124 -2.4960 0.9725
-3.9580 5.1727 -2.4960 0.9725
-4.3218 4.8733 -2.4961 0.9725
-4.4954 4.7140 -2.4962 0.9725
-4.8247 4.3770 -2.4964 0.9725
-5.1288 4.0171 -2.4966 0.9725
-5.5344 3.4384 -2.4969 0.9725
-5.6554 3.2362 -2.4970 0.9725
-5.7690 3.0296 -2.4971 0.9725
-5.9735 2.6050 -2.4974 0.9725
-6.1469 2.1666 -2.4976 0.9725
-6.2881 1.7169 -2.4979 0.9725
-6.3465 1.4884 -2.4981 0.9725
-6.4383 1.0259 -2.4984 0.9725
-6.4964 0.5579 -2.4987 0.9725
-6.5128 0.3226 -2.4989 0.9725
-6.4668 -0.8545 -2.4997 0.9724
-6.4321 -1.0879 -2.4999 0.9724
-6.2778 -1.7785 -2.5004 0.9724
-6.2098 -2.0045 -2.5006 0.9724
-5.8576 -2.8798 -2.5013 0.9724
-5.5124 -3.4980 -2.5019 0.9724
-5.3826 -3.6953 -2.5020 0.9724
-0.4532 6.0823 -2.4962 0.9740
-0.6728 6.0618 -2.4962 0.9740
-0.8916 6.0334 -2.4962 0.9740
-1.1092 5.9971 -2.4961 0.9740
-1.7522 5.8416 -2.4961 0.9740
-2.7745 5.4313 -2.4961 0.9740
-2.9691 5.3274 -2.4962 0.9740
-3.1599 5.2166 -2.4962 0.9740
-3.5288 4.9748 -2.4963 0.9740
-4.2096 4.4144 -2.4965 0.9740
-5.0625 3.4050 -2.4970 0.9740
-5.1826 3.2198 -2.4971 0.9740
-5.2958 3.0304 -2.4972 0.9740
-5.4022 2.8371 -2.4973 0.9740
-5.5016 2.6399 -2.4975 0.9740
-5.6785 2.2356 -2.4977 0.9740
-5.8882 1.6077 -2.4981 0.9740
-5.9897 1.1780 -2.4984 0.9740
-6.0287 0.9606 -2.4985 0.9740
-6.0599 0.7420 -2.4987 0.9740
-6.0984 0.3021 -2.4990 0.9740
-6.1057 0.0813 -2.4992 0.9740
-6.1051 -0.1395 -2.4993 0.9740
-6.0227 -1.0186 -2.5000 0.9739
-5.9341 -1.4515 -2.5003 0.9739
-5.8145 -1.8769 -2.5006 0.9739
-5.7432 -2.0861 -2.5008 0.9739
-5.4846 -2.6964 -2.5013 0.9739
-5.1613 -3.2752 -2.5018 0.9739
-5.0398 -3.4599 -2.5020 0.9739
-4.7771 -3.8156 -2.5023 0.9739
-0.6319 5.6933 -2.4965 0.9753
-1.0418 5.6325 -2.4964 0.9753
-1.2448 5.5912 -2.4964 0.9753
-1.4462 5.5424 -2.4964 0.9753
-1.8430 5.4234 -2.4964 0.9753
-2.0379 5.3532 -2.4964 0.9753
-2.4197 5.1919 -2.4964 0.9753
-2.7886 5.0035 -2.4964 0.9753
-2.9678 4.8995 -2.4965 0.9753
-3.4811 4.5495 -2.4966 0.9753
-3.6435 4.4207 -2.4966 0.9753
-3.9537 4.1459 -2.4968 0.9753
-4.1011 4.0003 -2.4968 0.9753
-4.3798 3.6937 -2.4970 0.9753
-4.5107 3.5330 -2.4971 0.9753
-4.7546 3.1979 -2.4972 0.9753
-5.2534 2.2910 -2.4978 0.9753
-5.3331 2.0996 -2.4979 0.9753
-5.4714 1.7088 -2.4981 0.9753
-5.5812 1.3090 -2.4984 0.9753
-5.6252 1.1063 -2.4985 0.9753
-5.6619 0.9021 -2.4987 0.9753
-5.6911 0.6969 -2.4988 0.9753
-5.7341 0.0764 -2.4992 0.9753
-5.7335 -0.1310 -2.4994 0.9753
-5.7097 -0.5452 -2.4997 0.9753
-5.6866 -0.7514 -2.4999 0.9753
-5.6181 -1.1606 -2.5002 0.9753
-5.5728 -1.3631 -2.5003 0.9753
-5.4604 -1.7626 -2.5006 0.9753
-5.3934 -1.9591 -2.5008 0.9753
-5.3194 -2.1529 -2.5009 0.9753
-5.2383 -2.3441 -2.5011 0.9753
-4.7327 -3.2491 -2.5019 0.9753
-4.6124 -3.4184 -2.5020 0.9753
-0.4008 5.3790 -2.4967 0.9765
-0.5951 5.3609 -2.4967 0.9765
-0.7885 5.3358 -2.4967 0.9765
-1.1721 5.2647 -2.4966 0.9765
-1.3617 5.2188 -2.4966 0.9765
-1.5496 5.1662 -2.4966 0.9765
-2.2783 4.8888 -2.4966 0.9765
-2.4536 4.8033 -2.4967 0.9765
-2.6258 4.7114 -2.4967 0.9765
-2.7945 4.6134 -2.4967 0.9765
-3.1208 4.3995 -2.4968 0.9765
-3.2779 4.2838 -2.4968 0.9765
-3.4307 4.1626 -2.4969 0.9765
-3.8617 3.7668 -2.4971 0.9765
-3.9955 3.6247 -2.4971 0.9765
-4.1241 3.4780 -2.4972 0.9765
-4.4770 3.0112 -2.4974 0.9765
-4.5831 2.8474 -2.4975 0.9765
-4.6832 2.6799 -2.4976 0.9765
-4.7773 2.5089 -2.4977 0.9765
-4.8651 2.3345 -2.4978 0.9765
-4.9466 2.1571 -2.4979 0.9765
-5.0216 1.9769 -2.4981 0.9765
-5.0900 1.7941 -2.4982 0.9765
-5.1518 1.6089 -2.4983 0.9765
-5.2069 1.4216 -2.4984 0.9765
-5.2965 1.0416 -2.4987 0.9765
-5.3310 0.8495 -2.4988 0.9765
-5.3907 -0.3186 -2.4996 0.9765
-5.3542 -0.7075 -2.4999 0.9765
-5.1411 -1.6595 -2.5006 0.9765
-4.9320 -2.2070 -2.5011 0.9765
-4.8492 -2.3840 -2.5012 0.9765
-4.5633 -2.8957 -2.5017 0.9765
-4.4558 -3.0590 -2.5018 0.9765
-0.3782 5.0763 -2.4970 0.9776
-0.7441 5.0356 -2.4969 0.9776
-1.2851 4.9253 -2.4969 0.9776
-1.6378 4.8195 -2.4968 0.9776
-2.4781 4.4463 -2.4969 0.9776
-2.6373 4.3538 -2.4969 0.9776
-2.9452 4.1519 -2.4970 0.9776
-3.2377 3.9284 -2.4971 0.9776
-3.5133 3.6842 -2.4972 0.9776
-3.7706 3.4208 -2.4973 0.9776
-4.0083 3.1395 -2.4975 0.9776
-4.1193 2.9925 -2.4975 0.9776
-4.2250 2.8417 -2.4976 0.9776
-4.5084 2.3677 -2.4979 0.9776
-4.5913 2.2031 -2.4980 0.9776
-4.6681 2.0357 -2.4981 0.9776
-4.9593 1.1631 -2.4987 0.9776
-4.9983 0.9830 -2.4988 0.9776
-5.0309 0.8016 -2.4989 0.9776
-5.0568 0.6192 -2.4990 0.9776
-5.0762 0.4359 -2.4991 0.9776
-5.0889 0.2521 -2.4993 0.9776
-5.0949 0.0678 -2.4994 0.9776
-5.0943 -0.1165 -2.4995 0.9776
-5.0871 -0.3006 -2.4997 0.9776
-5.0254 -0.8500 -2.5001 0.9775
-4.9916 -1.0312 -2.5002 0.9775
-4.9514 -1.2111 -2.5004 0.9775
-4.8514 -1.5660 -2.5006 0.9775
-4.6540 -2.0826 -2.5011 0.9775
-4.4018 -2.5748 -2.5015 0.9775
-4.3061 -2.7325 -2.5016 0.9775
-4.0977 -3.0369 -2.5019 0.9775
-3.9854 -3.1833 -2.5020 0.9775
-0.5310 4.7841 -2.4971 0.9785
-0.7037 4.7617 -2.4971 0.9785
-1.7125 4.4984 -2.4971 0.9785
-2.0332 4.3628 -2.4971 0.9785
-2.1897 4.2865 -2.4971 0.9785
-2.4938 4.1171 -2.4971 0.9785
-2.7850 3.9261 -2.4972 0.9785
-2.9252 3.8229 -2.4972 0.9785
-3.1940 3.6016 -2.4973 0.9785
-3.7902 2.9687 -2.4976 0.9785
-3.8952 2.8298 -2.4977 0.9785
-4.2631 2.2388 -2.4981 0.9785
-4.3415 2.0832 -2.4981 0.9785
-4.4810 1.7641 -2.4983 0.9785
-4.6463 1.2686 -2.4987 0.9785
-4.8176 0.0642 -2.4995 0.9785
-4.8170 -0.1101 -2.4996 0.9785
-4.7198 -0.9751 -2.5002 0.9785
-4.6817 -1.1452 -2.5004 0.9785
-4.6375 -1.3138 -2.5005 0.9785
-4.5309 -1.6457 -2.5008 0.9785
-4.4005 -1.9691 -2.5010 0.9785
-4.3266 -2.1271 -2.5012 0.9785
-4.0714 -2.5836 -2.5016 0.9785
-3.9756 -2.7293 -2.5017 0.9785
-3.8744 -2.8714 -2.5018 0.9785
-3.6571 -3.1443 -2.5021 0.9785
-0.8292 4.4835 -2.4973 0.9794
-0.9908 4.4505 -2.4973 0.9794
-1.1511 4.4118 -2.4973 0.9794
-1.3099 4.3672 -2.4972 0.9794
-1.4670 4.3170 -2.4972 0.9794
-1.6222 4.2611 -2.4972 0.9794
-1.9260 4.1328 -2.4973 0.9794
-2.3623 3.8999 -2.4973 0.9794
-2.5018 3.8120 -2.4974 0.9794
-2.6381 3.7190 -2.4974 0.9794
-2.7709 3.6213 -2.4974 0.9794
-2.9001 3.5187 -2.4975 0.9794
-3.0255 3.4116 -2.4975 0.9794
-3.1470 3.3000 -2.4976 0.9794
-3.2644 3.1842 -2.4976 0.9794
-3.3775 3.0641 -2.4977 0.9794
-3.4862 2.9400 -2.4977 0.9794
-3.5903 2.8121 -2.4978 0.9794
-3.6898 2.6805 -2.4979 0.9794
-3.9587 2.2653 -2.4981 0.9794
-4.0382 2.1207 -2.4982 0.9794
-4.1124 1.9733 -2.4983 0.9794
-4.2446 1.6711 -2.4985 0.9794
-4.3546 1.3600 -2.4987 0.9794
-4.4419 1.0417 -2.4989 0.9794
-4.5060 0.7180 -2.4991 0.9794
-4.5465 0.3904 -2.4993 0.9794
-4.5579 0.2258 -2.4994 0.9794
-4.5627 -0.1043 -2.4997 0.9794
-4.5437 -0.4339 -2.4999 0.9794
-4.5252 -0.5979 -2.5000 0.9794
-4.3926 -1.2444 -2.5005 0.9794
-4.2326 -1.7131 -2.5009 0.9794
-4.1681 -1.8651 -2.5010 0.9794
-3.8564 -2.4471 -2.5015 0.9794
-3.6697 -2.7197 -2.5018 0.9794
-3.5692 -2.8508 -2.5019 0.9794
-3.4639 -2.9782 -2.5020 0.9794
-0.3214 4.3138 -2.4975 0.9802
-0.7867 4.2536 -2.4975 0.9802
-0.9400 4.2223 -2.4974 0.9802
-1.0921 4.1855 -2.4974 0.9802
-1.2428 4.1433 -2.4974 0.9802
-1.5390 4.0426 -2.4974 0.9802
-1.6842 3.9843 -2.4974 0.9802
-1.9678 3.8522 -2.4975 0.9802
-2.8704 3.2367 -2.4977 0.9802
-2.9856 3.1308 -2.4977 0.9802
-3.0969 3.0208 -2.4978 0.9802
-3.2042 2.9069 -2.4978 0.9802
-3.5005 2.5430 -2.4980 0.9802
-3.5903 2.4148 -2.4981 0.9802
-3.9014 1.8721 -2.4984 0.9802
-4.0268 1.5853 -2.4986 0.9802
-4.0817 1.4387 -2.4987 0.9802
-4.1312 1.2902 -2.4988 0.9802
-4.2471 0.8353 -2.4991 0.9802
-4.2748 0.6812 -2.4992 0.9802
-4.3132 0.3704 -2.4994 0.9802
-4.3291 0.0577 -2.4996 0.9802
-4.3285 -0.0989 -2.4997 0.9802
-4.3223 -0.2554 -2.4998 0.9802
-4.2929 -0.5672 -2.5001 0.9802
-4.2411 -0.8762 -2.5003 0.9802
-4.1670 -1.1805 -2.5005 0.9802
-4.1218 -1.3305 -2.5006 0.9802
-4.0712 -1.4788 -2.5008 0.9802
-4.0153 -1.6252 -2.5009 0.9802
-3.9540 -1.7694 -2.5010 0.9802
-3.8876 -1.9113 -2.5011 0.9802
-3.8162 -2.0508 -2.5012 0.9802
-3.4812 -2.5801 -2.5017 0.9802
