ply
format ascii 1.0
element vertex 920
property float32 x
property float32 y
property float32 z
property float32 I
end_header
-31.4329 -31.2361 7.8137 0.8353
-29.1999 -31.1812 7.5325 0.8407
-27.5897 -31.6697 7.4060 0.8432
-27.6526 -34.1459 7.7476 0.8366
-23.9321 -34.3273 7.3786 0.8437
-23.4018 -36.2793 7.6124 0.8392
-13.9535 -27.8090 5.4861 0.8813
-14.3562 -38.4635 7.2392 0.8464
-10.4364 -40.9743 7.4555 0.8422
-8.8912 -41.0182 7.4006 0.8433
-7.3666 -41.0614 7.3558 0.8441
-5.8585 -41.1042 7.3210 0.8448
-2.8751 -41.1889 7.2804 0.8456
4.5735 -41.4005 7.3444 0.8444
7.6554 -41.6184 7.4615 0.8421
7.8230 -35.3400 6.3822 0.8633
8.1977 -31.6042 5.7571 0.8758
14.2739 -37.7360 7.1140 0.8489
15.7006 -37.3893 7.1504 0.8481
17.3278 -37.4356 7.2737 0.8457
21.2874 -35.4055 7.2844 0.8455
23.0376 -32.7370 7.0585 0.8499
25.2802 -30.9376 7.0447 0.8502
29.1197 -30.8231 7.4768 0.8418
28.9861 -28.5528 7.1743 0.8477
30.9895 -26.4205 7.1806 0.8475
33.5908 -26.6145 7.5567 0.8402
36.3011 -26.6961 7.9454 0.8327
39.3096 -26.7868 8.3876 0.8243
-29.1098 -38.7108 7.4199 0.8220
-28.2143 -40.4696 7.5577 0.8190
-14.2261 -23.8981 4.2606 0.8936
-14.0233 -30.6488 5.1634 0.8725
-14.5668 -35.1204 5.8247 0.8574
-14.8768 -39.8583 6.5175 0.8418
8.0644 -36.4303 5.7160 0.8599
8.1225 -31.3142 4.9559 0.8773
7.3703 -17.5516 2.9163 0.9259
19.4261 -41.9685 7.0847 0.8293
21.2413 -41.8736 7.1929 0.8270
23.2737 -42.0617 7.3642 0.8232
23.9055 -39.7601 7.1072 0.8288
25.9326 -39.8178 7.2795 0.8251
28.6532 -37.7572 7.2612 0.8255
30.7954 -35.0377 7.1461 0.8280
30.8653 -32.6708 6.8853 0.8337
30.9307 -30.4683 6.6512 0.8389
30.6775 -28.1197 6.3752 0.8450
31.0345 -26.4589 6.2477 0.8479
36.2990 -28.7603 7.0947 0.8291
39.2904 -26.7737 7.2837 0.8250
-14.2681 -23.9688 3.6324 0.8936
-14.2303 -34.3091 4.8368 0.8609
2.6487 -18.0166 2.3714 0.9292
7.9019 -42.9589 5.6880 0.8385
8.3108 -24.6097 3.3825 0.9005
30.4049 -37.2091 6.2573 0.8238
30.6169 -34.8346 6.0393 0.8294
30.8677 -28.2941 5.4528 0.8446
-14.2679 -23.9683 2.9952 0.8939
-14.3085 -38.3357 4.3939 0.8482
2.6484 -18.0147 1.9552 0.9294
7.8811 -42.8454 4.6780 0.8392
8.1997 -37.0417 4.0739 0.8585
8.3106 -24.6093 2.7892 0.9008
31.0074 -26.4358 4.3755 0.8488
-14.2676 -23.9679 2.3612 0.8941
2.6481 -18.0128 1.5412 0.9295
7.9185 -43.0487 3.7053 0.8389
8.3105 -24.6089 2.1988 0.9010
30.6045 -34.8205 3.9244 0.8302
30.2566 -19.0627 3.0273 0.8663
-13.2413 -24.1807 1.7095 0.8954
2.6478 -18.0109 1.1289 0.9296
7.9183 -43.0480 2.7142 0.8391
-13.9955 -23.5109 1.0789 0.8963
-13.2454 -24.1881 1.0874 0.8955
-13.9569 -41.9356 1.7427 0.8378
7.8385 -42.6138 1.7085 0.8408
8.1520 -24.1397 1.0047 0.9030
9.1416 -24.1678 1.0189 0.9017
30.4174 -25.9328 1.5761 0.8521
31.3739 -24.8580 1.5783 0.8519
-13.9953 -23.5104 0.4622 0.8963
-13.9567 -41.9349 0.7466 0.8379
9.1414 -24.1674 0.4365 0.9018
30.3416 -25.8682 0.6735 0.8526
31.2964 -24.7967 0.6745 0.8524
-18.8555 -17.4363 -0.1446 0.9024
-17.5466 -17.4366 -0.1393 0.9058
-16.3290 -17.4370 -0.1345 0.9089
-15.1908 -17.4372 -0.1302 0.9116
-14.1192 -17.4346 -0.1263 0.9142
-9.5465 -17.4334 -0.1119 0.9236
-8.7479 -17.4343 -0.1098 0.9249
-7.9775 -17.4352 -0.1080 0.9262
-7.2319 -17.4361 -0.1063 0.9273
-6.5082 -17.4370 -0.1048 0.9283
-5.8036 -17.4379 -0.1035 0.9291
-4.4419 -17.4395 -0.1013 0.9305
-3.7816 -17.4457 -0.1005 0.9311
-2.4865 -17.4454 -0.0992 0.9319
-1.8497 -17.4452 -0.0988 0.9322
-1.2177 -17.4450 -0.0985 0.9324
-0.5889 -17.4448 -0.0983 0.9326
3.2098 -17.4499 -0.0999 0.9315
3.8628 -17.4498 -0.1006 0.9310
4.5262 -17.4497 -0.1015 0.9304
5.2022 -17.4495 -0.1025 0.9298
5.8927 -17.4494 -0.1037 0.9290
6.6003 -17.4493 -0.1050 0.9281
29.7362 -33.8327 -0.2536 0.8351
31.1536 -22.9106 -0.2177 0.8567
33.7277 -22.9830 -0.2298 0.8494
36.6101 -23.0656 -0.2436 0.8411
39.8746 -23.1637 -0.2596 0.8316
43.5427 -23.2433 -0.2779 0.8208
-16.3278 -17.4357 -0.6726 0.9088
-15.1897 -17.4360 -0.6511 0.9116
-14.1189 -17.4342 -0.6317 0.9141
-11.2471 -17.4362 -0.5842 0.9203
-9.5466 -17.4335 -0.5597 0.9235
-7.9775 -17.4353 -0.5399 0.9261
-7.2320 -17.4362 -0.5315 0.9272
-6.5083 -17.4371 -0.5241 0.9282
-5.8037 -17.4379 -0.5175 0.9291
-4.4419 -17.4396 -0.5067 0.9305
-3.7816 -17.4458 -0.5026 0.9311
-2.4865 -17.4454 -0.4962 0.9319
-1.2177 -17.4450 -0.4924 0.9324
-0.5889 -17.4449 -0.4915 0.9325
2.5653 -17.4499 -0.4966 0.9319
3.2098 -17.4498 -0.4996 0.9315
5.2021 -17.4494 -0.5127 0.9297
5.8927 -17.4493 -0.5186 0.9290
6.6002 -17.4492 -0.5253 0.9281
29.6579 -36.2949 -1.3198 0.8290
30.0030 -25.5795 -1.1102 0.8540
30.0602 -23.8172 -1.0799 0.8577
33.7265 -22.9822 -1.1492 0.8493
36.6100 -23.0655 -1.2184 0.8410
39.8745 -23.1637 -1.2985 0.8315
43.5435 -23.2438 -1.3898 0.8208
-18.8525 -17.4336 -1.3022 0.9023
-17.5439 -17.4340 -1.2543 0.9057
-15.1886 -17.4348 -1.1727 0.9115
-14.1187 -17.4339 -1.1377 0.9141
-13.1106 -17.4346 -1.1063 0.9163
-9.5466 -17.4336 -1.0080 0.9235
-8.7480 -17.4345 -0.9892 0.9248
-7.9776 -17.4354 -0.9724 0.9261
-7.2320 -17.4363 -0.9573 0.9272
-4.4420 -17.4396 -0.9127 0.9305
-3.1298 -17.4456 -0.8989 0.9315
-1.8497 -17.4453 -0.8897 0.9321
-1.2177 -17.4451 -0.8869 0.9324
-0.5889 -17.4449 -0.8852 0.9325
0.6656 -17.4445 -0.8853 0.9325
2.5653 -17.4498 -0.8945 0.9318
3.8627 -17.4496 -0.9064 0.9309
5.2021 -17.4493 -0.9234 0.9297
6.6002 -17.4491 -0.9461 0.9280
27.6685 -39.3175 -2.4382 0.8248
29.6580 -36.2950 -2.3770 0.8288
29.7363 -33.8328 -2.2843 0.8349
22.1178 -23.4116 -1.6333 0.8790
23.7742 -23.4187 -1.6923 0.8749
25.7416 -23.5953 -1.7709 0.8695
27.5713 -23.5063 -1.8375 0.8649
30.0605 -23.8175 -1.9450 0.8576
36.6099 -23.0655 -2.1944 0.8409
39.8743 -23.1636 -2.3386 0.8314
41.3092 -22.0512 -2.3748 0.8290
42.0615 -20.5458 -2.3740 0.8290
43.3766 -17.4509 -2.3712 0.8292
47.3672 -15.2051 -2.5229 0.8193
47.8620 -13.4872 -2.5218 0.8194
48.2941 -11.7533 -2.5207 0.8195
48.6628 -10.0056 -2.5195 0.8196
48.9681 -8.2467 -2.5183 0.8196
-18.8511 -17.4322 -1.8826 0.9021
-16.3255 -17.4332 -1.7512 0.9087
-10.3794 -17.4362 -1.4878 0.9218
-8.7480 -17.4346 -1.4302 0.9247
-7.9776 -17.4355 -1.4059 0.9260
-7.2321 -17.4364 -1.3841 0.9271
-5.8037 -17.4381 -1.3476 0.9289
-5.1157 -17.4389 -1.3325 0.9297
-3.1298 -17.4456 -1.2996 0.9314
-1.8497 -17.4453 -1.2863 0.9321
-1.2177 -17.4451 -1.2822 0.9323
0.0383 -17.4448 -1.2791 0.9324
0.6656 -17.4446 -1.2800 0.9324
2.5653 -17.4497 -1.2932 0.9317
3.2097 -17.4496 -1.3009 0.9313
5.2021 -17.4492 -1.3351 0.9296
6.6002 -17.4490 -1.3679 0.9279
14.4739 -31.2699 -2.5265 0.8709
12.7771 -23.0917 -1.9350 0.8996
18.7997 -28.8658 -2.5258 0.8710
16.4698 -23.4039 -2.0983 0.8916
17.5844 -23.1715 -2.1328 0.8899
18.9581 -23.2007 -2.1968 0.8868
20.4184 -23.2313 -2.2678 0.8833
24.5219 -24.1553 -2.5238 0.8711
26.1841 -22.3236 -2.5229 0.8711
27.7086 -20.3771 -2.5219 0.8711
28.2054 -19.2200 -2.5026 0.8721
28.5832 -18.0084 -2.4770 0.8733
29.2571 -16.9959 -2.4809 0.8731
31.3811 -13.9553 -2.5182 0.8713
32.2841 -11.6588 -2.5168 0.8714
33.0183 -9.3043 -2.5153 0.8715
33.3211 -8.1093 -2.5145 0.8715
33.5803 -6.9045 -2.5137 0.8715
33.7958 -5.6915 -2.5129 0.8716
33.9673 -4.4719 -2.5120 0.8716
-18.0163 -16.6603 -2.3558 0.9061
-17.4104 -17.3014 -2.3564 0.9061
-16.3242 -17.4319 -2.2928 0.9085
-14.1182 -17.4333 -2.1537 0.9138
-13.1101 -17.4340 -2.0942 0.9161
-12.1550 -17.4347 -2.0404 0.9181
-10.3793 -17.4359 -1.9481 0.9217
-9.5467 -17.4338 -1.9082 0.9232
-8.7481 -17.4347 -1.8727 0.9246
-7.2321 -17.4365 -1.8123 0.9270
-5.1157 -17.4390 -1.7448 0.9296
-4.4420 -17.4398 -1.7278 0.9302
-3.1298 -17.4457 -1.7016 0.9313
-0.5889 -17.4450 -1.6758 0.9323
1.2947 -17.4445 -1.6794 0.9321
2.5653 -17.4496 -1.6933 0.9316
3.2097 -17.4495 -1.7033 0.9312
3.8627 -17.4494 -1.7158 0.9307
5.2020 -17.4491 -1.7481 0.9294
6.6001 -17.4488 -1.7910 0.9278
9.5666 -22.7818 -2.3722 0.9055
11.1629 -22.0058 -2.3689 0.9056
13.5253 -22.4956 -2.5200 0.8999
15.1039 -21.4630 -2.5196 0.8999
16.6035 -20.3191 -2.5192 0.8999
17.3211 -19.7073 -2.5189 0.8999
18.6874 -18.4080 -2.5183 0.9000
19.3343 -17.7222 -2.5180 0.9000
19.9558 -17.0136 -2.5176 0.9000
21.1197 -15.5316 -2.5168 0.9000
22.1730 -13.9698 -2.5160 0.9000
23.1105 -12.3365 -2.5150 0.9001
23.9272 -10.6405 -2.5140 0.9001
24.2889 -9.7718 -2.5135 0.9001
24.6191 -8.8907 -2.5129 0.9002
24.9365 -8.0047 -2.5143 0.9001
25.2019 -7.1017 -2.5137 0.9001
25.8008 -4.3451 -2.5119 0.9002
25.9340 -3.4143 -2.5113 0.9002
-15.4965 -14.3302 -2.5072 0.9185
-14.9746 -14.8809 -2.5077 0.9185
-13.2280 -15.1843 -2.3921 0.9221
-10.7585 -16.6786 -2.3576 0.9232
-10.1541 -17.0575 -2.3580 0.9232
-9.5361 -17.4144 -2.3584 0.9231
-7.2321 -17.4366 -2.2423 0.9268
-6.5084 -17.4375 -2.2109 0.9278
-5.8038 -17.4383 -2.1831 0.9286
-4.4420 -17.4399 -2.1378 0.9301
-3.7816 -17.4459 -2.1205 0.9306
-2.4865 -17.4455 -2.0932 0.9315
-0.5889 -17.4450 -2.0734 0.9321
0.0383 -17.4448 -2.0722 0.9321
0.6656 -17.4446 -2.0737 0.9321
1.9277 -17.4496 -2.0854 0.9317
2.5653 -17.4495 -2.0950 0.9314
3.2097 -17.4493 -2.1075 0.9310
6.6001 -17.4487 -2.2160 0.9276
7.7027 -18.3432 -2.3632 0.9230
9.6449 -17.4309 -2.3664 0.9229
10.8555 -16.6679 -2.3628 0.9230
12.1896 -17.3216 -2.5160 0.9182
13.4002 -16.3990 -2.5156 0.9182
13.9796 -15.9055 -2.5154 0.9182
15.6056 -14.3044 -2.5146 0.9183
17.0482 -12.5374 -2.5137 0.9183
17.4853 -11.9150 -2.5134 0.9183
19.0006 -9.2813 -2.5119 0.9183
20.1203 -6.4587 -2.5101 0.9184
20.6867 -4.2535 -2.5087 0.9184
20.8501 -3.5114 -2.5116 0.9184
21.0401 -2.0040 -2.5106 0.9184
-11.6242 -13.3434 -2.5074 0.9310
-11.1391 -13.7547 -2.5078 0.9310
-10.1257 -14.5238 -2.5086 0.9310
-9.5986 -14.8806 -2.5090 0.9310
-7.6266 -15.1996 -2.4095 0.9336
-6.9599 -15.2112 -2.3702 0.9347
-6.3752 -15.3704 -2.3577 0.9350
-5.8194 -15.5915 -2.3580 0.9350
-5.2560 -15.7925 -2.3583 0.9350
-4.1091 -16.1327 -2.3588 0.9350
-2.9403 -16.3894 -2.3593 0.9349
-1.7559 -16.5611 -2.3597 0.9349
-0.5620 -16.6470 -2.3600 0.9349
0.0366 -16.6574 -2.3602 0.9349
1.8293 -16.5593 -2.3605 0.9349
2.4233 -16.4835 -2.3606 0.9349
3.0141 -16.3862 -2.3607 0.9349
3.6011 -16.2677 -2.3608 0.9349
5.8948 -15.5843 -2.3608 0.9349
7.0603 -15.2534 -2.3815 0.9344
8.4700 -15.3075 -2.4788 0.9318
9.6817 -14.8656 -2.5136 0.9308
10.7232 -14.1303 -2.5133 0.9308
11.7088 -13.3218 -2.5130 0.9309
12.1790 -12.8915 -2.5128 0.9309
13.0712 -11.9814 -2.5124 0.9309
13.4920 -11.5028 -2.5121 0.9309
13.8952 -11.0095 -2.5119 0.9309
14.2804 -10.5019 -2.5116 0.9309
14.9943 -9.4469 -2.5110 0.9309
15.3222 -8.9009 -2.5107 0.9309
15.6301 -8.3435 -2.5104 0.9309
15.9177 -7.7754 -2.5101 0.9309
16.1846 -7.1973 -2.5097 0.9309
17.1974 -4.1853 -2.5078 0.9310
17.3338 -3.5641 -2.5074 0.9310
17.6077 -1.6771 -2.5061 0.9310
-11.1657 -10.3253 -2.5054 0.9402
-10.3984 -11.1039 -2.5061 0.9402
-9.9941 -11.4721 -2.5065 0.9402
-9.5767 -11.8255 -2.5068 0.9402
-8.7050 -12.4861 -2.5075 0.9402
-7.7877 -13.0825 -2.5081 0.9401
-7.3134 -13.3555 -2.5085 0.9401
-5.3269 -14.2720 -2.5096 0.9401
-4.8111 -14.4557 -2.5098 0.9401
-4.2890 -14.6206 -2.5101 0.9401
-3.7612 -14.7667 -2.5103 0.9401
-3.2284 -14.8936 -2.5105 0.9401
-2.1507 -15.0894 -2.5109 0.9401
-1.0612 -15.2025 -2.5105 0.9401
0.0334 -15.2071 -2.5052 0.9402
1.6742 -15.1556 -2.5119 0.9401
2.7586 -14.9971 -2.5120 0.9401
3.2958 -14.8886 -2.5121 0.9401
3.8288 -14.7607 -2.5121 0.9401
4.8790 -14.4478 -2.5122 0.9401
5.9041 -14.0599 -2.5121 0.9401
6.8984 -13.5991 -2.5120 0.9401
7.3824 -13.3420 -2.5120 0.9401
7.8568 -13.0677 -2.5119 0.9401
8.7744 -12.4686 -2.5117 0.9401
10.0636 -11.4500 -2.5113 0.9401
10.8585 -10.6962 -2.5109 0.9401
11.9436 -9.4631 -2.5103 0.9401
12.8889 -8.1204 -2.5096 0.9401
13.6834 -6.6840 -2.5087 0.9401
13.9131 -6.1872 -2.5084 0.9401
14.1247 -5.6825 -2.5081 0.9401
15.0013 -2.5263 -2.5061 0.9402
15.0802 -1.9854 -2.5057 0.9402
15.1395 -1.4420 -2.5054 0.9402
-9.1112 -9.7295 -2.5054 0.9472
-8.7568 -10.0519 -2.5058 0.9472
-8.0142 -10.6575 -2.5064 0.9472
-7.6270 -10.9398 -2.5067 0.9472
-7.2298 -11.2081 -2.5069 0.9472
-6.8231 -11.4620 -2.5072 0.9472
-6.4075 -11.7010 -2.5075 0.9472
-5.9835 -11.9250 -2.5078 0.9471
-5.1126 -12.3264 -2.5083 0.9471
-4.2148 -12.6641 -2.5087 0.9471
-3.2949 -12.9362 -2.5091 0.9471
-2.8281 -13.0473 -2.5093 0.9471
-2.3576 -13.1414 -2.5095 0.9471
-1.8840 -13.2185 -2.5097 0.9471
-0.9299 -13.3213 -2.5100 0.9471
0.0293 -13.3550 -2.5102 0.9471
0.9885 -13.3195 -2.5104 0.9471
1.4665 -13.2758 -2.5105 0.9471
1.9428 -13.2149 -2.5106 0.9471
2.4164 -13.1369 -2.5106 0.9471
4.2738 -12.6556 -2.5107 0.9471
6.8824 -11.4469 -2.5105 0.9471
7.2890 -11.1918 -2.5104 0.9471
8.4500 -10.3410 -2.5101 0.9471
8.8157 -10.0302 -2.5100 0.9471
9.5122 -9.3699 -2.5097 0.9471
9.8421 -9.0215 -2.5095 0.9471
10.1592 -8.6614 -2.5093 0.9471
10.4630 -8.2901 -2.5091 0.9471
11.0296 -7.5160 -2.5087 0.9471
11.5388 -6.7031 -2.5082 0.9471
11.9881 -5.8559 -2.5077 0.9471
12.5446 -4.5303 -2.5069 0.9472
12.9547 -3.1528 -2.5060 0.9472
13.0580 -2.6849 -2.5057 0.9472
13.1444 -2.2137 -2.5054 0.9472
-8.6984 -8.0437 -2.5043 0.9527
-8.4047 -8.3521 -2.5046 0.9527
-7.1245 -9.4744 -2.5057 0.9527
-6.0654 -10.1892 -2.5065 0.9527
-5.6959 -10.4015 -2.5067 0.9527
-4.1483 -11.1142 -2.5076 0.9527
-2.5138 -11.5973 -2.5084 0.9526
-1.2514 -11.8026 -2.5088 0.9526
-0.8265 -11.8406 -2.5089 0.9526
0.0261 -11.8704 -2.5092 0.9526
0.4526 -11.8622 -2.5093 0.9526
0.8786 -11.8387 -2.5093 0.9526
1.7268 -11.7457 -2.5095 0.9526
2.1478 -11.6763 -2.5095 0.9526
2.5660 -11.5918 -2.5096 0.9526
2.9809 -11.4922 -2.5096 0.9526
4.2004 -11.1047 -2.5096 0.9526
6.8317 -9.7080 -2.5093 0.9526
7.5107 -9.1915 -2.5090 0.9526
7.8358 -8.9153 -2.5089 0.9526
8.7482 -8.0189 -2.5085 0.9526
9.0302 -7.6988 -2.5083 0.9526
9.5585 -7.0294 -2.5080 0.9526
9.8041 -6.6808 -2.5078 0.9527
10.0371 -6.3237 -2.5076 0.9527
10.8358 -4.8187 -2.5067 0.9527
11.0009 -4.4258 -2.5065 0.9527
11.5167 -2.8028 -2.5055 0.9527
11.6087 -2.3869 -2.5052 0.9527
11.6857 -1.9680 -2.5049 0.9527
11.7941 -1.1234 -2.5043 0.9527
-7.0005 -8.0358 -2.5047 0.9572
-6.7078 -8.2830 -2.5050 0.9571
-6.4065 -8.5195 -2.5052 0.9571
-6.0968 -8.7450 -2.5055 0.9571
-4.4374 -9.6981 -2.5065 0.9571
-4.0863 -9.8521 -2.5067 0.9571
-3.3687 -10.1216 -2.5071 0.9571
-3.0030 -10.2369 -2.5073 0.9571
-2.2603 -10.4274 -2.5076 0.9571
-1.8842 -10.5025 -2.5077 0.9571
-1.5057 -10.5640 -2.5079 0.9571
-1.1251 -10.6118 -2.5080 0.9571
0.0234 -10.6726 -2.5083 0.9571
0.4069 -10.6653 -2.5084 0.9571
0.7900 -10.6441 -2.5085 0.9571
1.1720 -10.6091 -2.5085 0.9571
1.9310 -10.4979 -2.5086 0.9571
2.6801 -10.3324 -2.5087 0.9571
3.4153 -10.1133 -2.5087 0.9571
4.1328 -9.8418 -2.5087 0.9571
4.4837 -9.6868 -2.5087 0.9571
4.8289 -9.5193 -2.5086 0.9571
5.1677 -9.3395 -2.5086 0.9571
5.4999 -9.1475 -2.5085 0.9571
5.8249 -8.9437 -2.5085 0.9571
6.4518 -8.5017 -2.5083 0.9571
6.7529 -8.2641 -2.5082 0.9571
7.0452 -8.0157 -2.5081 0.9571
7.3283 -7.7570 -2.5080 0.9571
7.8657 -7.2099 -2.5077 0.9571
8.5944 -6.3204 -2.5073 0.9571
8.8153 -6.0070 -2.5071 0.9571
9.5821 -4.6806 -2.5063 0.9571
9.7433 -4.3329 -2.5061 0.9571
9.8919 -3.9796 -2.5059 0.9571
10.0276 -3.6213 -2.5057 0.9571
10.1503 -3.2583 -2.5055 0.9571
10.2599 -2.8912 -2.5052 0.9571
10.3561 -2.5204 -2.5050 0.9571
4.1966 -0.5525 -0.9948 0.9828
-6.8596 -6.8167 -2.5039 0.9608
-6.6108 -7.0594 -2.5041 0.9608
-6.3535 -7.2931 -2.5044 0.9608
-5.8143 -7.7320 -2.5048 0.9608
-5.5332 -7.9366 -2.5050 0.9608
-5.2448 -8.1310 -2.5052 0.9608
-4.9497 -8.3149 -2.5054 0.9608
-4.6480 -8.4880 -2.5056 0.9608
-4.3403 -8.6502 -2.5058 0.9608
-3.7084 -8.9409 -2.5062 0.9608
-1.0210 -9.6298 -2.5073 0.9608
-0.6743 -9.6607 -2.5074 0.9608
0.0213 -9.6849 -2.5076 0.9608
0.3693 -9.6782 -2.5077 0.9608
2.4320 -9.3761 -2.5080 0.9608
3.0992 -9.1773 -2.5080 0.9608
4.0687 -8.7903 -2.5079 0.9608
4.3819 -8.6383 -2.5079 0.9608
5.2858 -8.1160 -2.5077 0.9608
5.5739 -7.9206 -2.5077 0.9608
5.8547 -7.7150 -2.5076 0.9608
6.6502 -7.0393 -2.5073 0.9608
7.3681 -6.2817 -2.5069 0.9608
7.7993 -5.7357 -2.5067 0.9608
7.9999 -5.4514 -2.5065 0.9608
8.6960 -4.2478 -2.5058 0.9608
8.8424 -3.9323 -2.5056 0.9608
8.9773 -3.6117 -2.5054 0.9608
9.3115 -2.6239 -2.5048 0.9608
9.4742 -1.9480 -2.5044 0.9608
3.7238 -0.3547 -0.9685 0.9847
-6.4925 -6.0039 -2.5034 0.9639
-6.2732 -6.2339 -2.5036 0.9639
-6.0456 -6.4558 -2.5038 0.9639
-5.8102 -6.6695 -2.5040 0.9639
-4.5262 -7.6036 -2.5050 0.9639
-4.2504 -7.7619 -2.5052 0.9639
-3.9690 -7.9101 -2.5054 0.9639
-3.6824 -8.0482 -2.5055 0.9639
-3.0953 -8.2929 -2.5059 0.9639
-2.7954 -8.3993 -2.5060 0.9639
-2.4919 -8.4948 -2.5061 0.9639
-2.1852 -8.5793 -2.5063 0.9639
-1.2494 -8.7659 -2.5066 0.9639
-0.6166 -8.8337 -2.5068 0.9639
-0.2988 -8.8505 -2.5069 0.9639
0.0194 -8.8558 -2.5070 0.9639
0.3377 -8.8496 -2.5071 0.9639
1.2882 -8.7625 -2.5072 0.9639
1.9143 -8.6475 -2.5073 0.9638
2.2238 -8.5733 -2.5073 0.9638
2.5304 -8.4879 -2.5073 0.9638
2.8338 -8.3914 -2.5074 0.9638
3.1335 -8.2842 -2.5073 0.9638
3.4292 -8.1662 -2.5073 0.9638
3.7204 -8.0376 -2.5073 0.9638
4.0067 -7.8986 -2.5073 0.9639
4.2879 -7.7494 -2.5072 0.9639
4.5635 -7.5902 -2.5072 0.9639
5.0967 -7.2425 -2.5071 0.9639
5.3535 -7.0545 -2.5070 0.9639
5.6033 -6.8573 -2.5069 0.9639
5.8459 -6.6513 -2.5068 0.9639
6.0809 -6.4367 -2.5067 0.9639
6.7374 -5.7441 -2.5064 0.9639
7.3153 -4.9849 -2.5060 0.9639
7.8078 -4.1679 -2.5055 0.9639
7.9520 -3.8844 -2.5054 0.9639
8.2093 -3.3027 -2.5050 0.9639
8.3221 -3.0054 -2.5048 0.9639
8.4240 -2.7042 -2.5046 0.9639
3.5394 -0.5961 -1.0161 0.9852
3.4596 -0.4555 -0.9878 0.9856
3.4632 -0.3298 -0.9849 0.9856
-5.9752 -5.5255 -2.5032 0.9665
-5.5638 -5.9413 -2.5036 0.9665
-4.8932 -6.5071 -2.5042 0.9665
-4.6565 -6.6791 -2.5043 0.9665
-4.4138 -6.8426 -2.5045 0.9665
-3.3888 -7.4064 -2.5052 0.9665
-3.1206 -7.5238 -2.5053 0.9665
-2.8484 -7.6315 -2.5054 0.9665
-2.0109 -7.8949 -2.5058 0.9665
-1.7260 -7.9625 -2.5060 0.9665
-0.8591 -8.1030 -2.5063 0.9665
-0.5674 -8.1289 -2.5063 0.9665
0.0179 -8.1491 -2.5065 0.9665
0.6032 -8.1272 -2.5066 0.9665
0.8949 -8.1005 -2.5067 0.9665
1.1854 -8.0633 -2.5067 0.9665
1.7615 -7.9575 -2.5068 0.9665
2.3285 -7.8105 -2.5068 0.9665
2.6077 -7.7218 -2.5068 0.9665
4.1994 -6.9845 -2.5067 0.9665
4.6900 -6.6646 -2.5066 0.9665
4.9263 -6.4916 -2.5065 0.9665
5.1562 -6.3102 -2.5064 0.9665
5.5958 -5.9231 -2.5063 0.9665
6.2000 -5.2859 -2.5059 0.9665
6.7318 -4.5872 -2.5056 0.9665
6.8919 -4.3422 -2.5054 0.9665
7.0431 -4.0914 -2.5053 0.9665
7.3179 -3.5746 -2.5050 0.9665
7.7524 -2.4886 -2.5043 0.9665
7.8363 -2.2083 -2.5041 0.9665
-5.5285 -5.1124 -2.5030 0.9688
-5.1478 -5.4971 -2.5034 0.9688
-4.7403 -5.8534 -2.5037 0.9687
-3.8538 -6.4739 -2.5044 0.9687
-3.6189 -6.6086 -2.5045 0.9687
-3.3792 -6.7348 -2.5047 0.9687
-3.1352 -6.8522 -2.5048 0.9687
-2.8871 -6.9609 -2.5050 0.9687
-1.8604 -7.3042 -2.5054 0.9687
-1.5968 -7.3666 -2.5056 0.9687
-1.0637 -7.4629 -2.5058 0.9687
0.0166 -7.5392 -2.5061 0.9687
0.2875 -7.5339 -2.5061 0.9687
0.5580 -7.5189 -2.5062 0.9687
1.6296 -7.3618 -2.5063 0.9687
1.8931 -7.2985 -2.5063 0.9687
2.4125 -7.1438 -2.5064 0.9687
3.1672 -6.8425 -2.5063 0.9687
3.6504 -6.5972 -2.5063 0.9687
4.1147 -6.3178 -2.5062 0.9687
4.7703 -5.8379 -2.5060 0.9687
5.3703 -5.2901 -2.5058 0.9687
5.7360 -4.8903 -2.5056 0.9687
5.9077 -4.6808 -2.5054 0.9687
6.2281 -4.2440 -2.5052 0.9687
6.6476 -3.5486 -2.5048 0.9687
6.7704 -3.3072 -2.5047 0.9687
6.9896 -2.8121 -2.5044 0.9687
7.0857 -2.5589 -2.5042 0.9687
7.1726 -2.3025 -2.5041 0.9687
3.1275 -0.5267 -1.0542 0.9867
-5.1385 -4.7518 -2.5028 0.9707
-4.7846 -5.1093 -2.5032 0.9707
-4.4059 -5.4405 -2.5035 0.9707
-4.2078 -5.5957 -2.5037 0.9707
-4.0043 -5.7436 -2.5038 0.9707
-3.3635 -6.1422 -2.5043 0.9707
-2.9139 -6.3686 -2.5045 0.9707
-2.2120 -6.6462 -2.5049 0.9707
-1.4841 -6.8465 -2.5052 0.9707
-0.4879 -6.9895 -2.5056 0.9707
0.0154 -7.0068 -2.5057 0.9707
0.5186 -6.9879 -2.5058 0.9707
1.0192 -6.9329 -2.5059 0.9707
1.7594 -6.7831 -2.5059 0.9707
2.0021 -6.7155 -2.5060 0.9707
2.7131 -6.4611 -2.5059 0.9707
2.9435 -6.3593 -2.5059 0.9707
3.3926 -6.1314 -2.5059 0.9707
3.6107 -6.0054 -2.5058 0.9707
4.6254 -5.2627 -2.5056 0.9707
4.8114 -5.0929 -2.5055 0.9707
4.9912 -4.9166 -2.5054 0.9707
5.3310 -4.5450 -2.5052 0.9707
5.6432 -4.1501 -2.5050 0.9707
5.9262 -3.7337 -2.5048 0.9707
6.0562 -3.5182 -2.5047 0.9707
6.2926 -3.0738 -2.5044 0.9707
6.3986 -2.8455 -2.5043 0.9707
6.4964 -2.6136 -2.5041 0.9707
6.6665 -2.1400 -2.5038 0.9707
6.7387 -1.8989 -2.5037 0.9707
6.8022 -1.6554 -2.5035 0.9707
2.9853 -0.5027 -1.0826 0.9872
2.9879 -0.3934 -1.0777 0.9873
2.9936 -0.2851 -1.0754 0.9873
-4.4646 -4.7675 -2.5030 0.9724
-4.2906 -4.9252 -2.5032 0.9724
-3.9264 -5.2213 -2.5035 0.9724
-3.7363 -5.3593 -2.5036 0.9724
-3.5415 -5.4904 -2.5038 0.9724
-3.3421 -5.6144 -2.5039 0.9724
-3.1384 -5.7312 -2.5040 0.9724
-2.9306 -5.8405 -2.5041 0.9724
-2.7189 -5.9424 -2.5043 0.9724
-2.2853 -6.1229 -2.5045 0.9724
-2.0639 -6.2013 -2.5046 0.9724
-1.8398 -6.2718 -2.5047 0.9724
-1.3847 -6.3882 -2.5049 0.9724
-0.4552 -6.5215 -2.5052 0.9724
0.2493 -6.5331 -2.5054 0.9724
0.7179 -6.4986 -2.5055 0.9724
0.9510 -6.4687 -2.5055 0.9724
1.4131 -6.3838 -2.5056 0.9724
1.6416 -6.3289 -2.5056 0.9724
1.8680 -6.2658 -2.5056 0.9724
2.3132 -6.1155 -2.5056 0.9724
3.1654 -5.7208 -2.5055 0.9724
3.9521 -5.2079 -2.5054 0.9724
4.1367 -5.0624 -2.5053 0.9724
4.4893 -4.7519 -2.5052 0.9724
4.6570 -4.5874 -2.5051 0.9724
4.8187 -4.4169 -2.5050 0.9724
5.2655 -3.8723 -2.5047 0.9724
5.6509 -3.2827 -2.5044 0.9724
5.7649 -3.0774 -2.5043 0.9724
5.8715 -2.8681 -2.5041 0.9724
5.9704 -2.6551 -2.5040 0.9724
2.9260 -0.7121 -1.1540 0.9872
2.8766 -0.2740 -1.1074 0.9877
-4.3375 -4.3104 -2.5027 0.9739
-4.1801 -4.4637 -2.5029 0.9739
-3.6760 -4.8885 -2.5033 0.9739
-3.3158 -5.1404 -2.5036 0.9739
-3.1291 -5.2565 -2.5037 0.9739
-2.9383 -5.3659 -2.5038 0.9739
-2.7437 -5.4682 -2.5039 0.9739
-2.1396 -5.7325 -2.5043 0.9739
-1.9323 -5.8059 -2.5044 0.9739
-1.7225 -5.8719 -2.5045 0.9739
-1.2964 -5.9808 -2.5046 0.9739
-0.8635 -6.0589 -2.5048 0.9739
-0.4262 -6.1056 -2.5049 0.9739
-0.2065 -6.1171 -2.5050 0.9739
0.0134 -6.1207 -2.5051 0.9739
0.2334 -6.1164 -2.5051 0.9739
0.6721 -6.0841 -2.5052 0.9739
0.8903 -6.0561 -2.5052 0.9739
1.1074 -6.0202 -2.5052 0.9739
1.3230 -5.9766 -2.5053 0.9739
2.3700 -5.6439 -2.5053 0.9739
2.5712 -5.5550 -2.5053 0.9739
2.7692 -5.4590 -2.5052 0.9739
3.3405 -5.1291 -2.5051 0.9739
3.5226 -5.0057 -2.5051 0.9739
3.7001 -4.8757 -2.5051 0.9739
4.0405 -4.5972 -2.5049 0.9739
4.2030 -4.4489 -2.5049 0.9739
4.3600 -4.2949 -2.5048 0.9739
4.6569 -3.9704 -2.5046 0.9739
4.9297 -3.6254 -2.5045 0.9739
5.2906 -3.0734 -2.5041 0.9739
5.6753 -2.2832 -2.5037 0.9739
5.8872 -1.6590 -2.5033 0.9739
2.7959 -0.6804 -1.1777 0.9876
2.7624 -0.3637 -1.1403 0.9880
-3.6145 -4.4632 -2.5030 0.9753
-3.4519 -4.5905 -2.5031 0.9753
-3.2849 -4.7118 -2.5033 0.9752
-2.7592 -5.0387 -2.5036 0.9752
-2.5764 -5.1348 -2.5037 0.9752
-2.2012 -5.3071 -2.5039 0.9752
-2.0091 -5.3829 -2.5040 0.9752
-1.8145 -5.4519 -2.5041 0.9752
-1.6174 -5.5137 -2.5042 0.9752
-1.4183 -5.5685 -2.5043 0.9752
-0.6059 -5.7149 -2.5046 0.9752
-0.4002 -5.7331 -2.5047 0.9752
-0.1939 -5.7440 -2.5047 0.9752
0.6311 -5.7129 -2.5049 0.9752
0.8360 -5.6866 -2.5049 0.9752
1.0398 -5.6530 -2.5050 0.9752
1.2423 -5.6120 -2.5050 0.9752
1.4432 -5.5637 -2.5050 0.9752
1.8390 -5.4457 -2.5050 0.9752
2.6003 -5.1260 -2.5050 0.9752
2.9616 -4.9259 -2.5049 0.9752
3.1367 -4.8162 -2.5049 0.9752
3.3077 -4.7003 -2.5048 0.9752
3.6366 -4.4504 -2.5047 0.9752
4.2362 -3.8831 -2.5045 0.9752
4.3729 -3.7282 -2.5044 0.9752
4.7482 -3.2356 -2.5041 0.9752
4.9680 -2.8860 -2.5039 0.9752
5.0683 -2.7055 -2.5038 0.9752
5.4026 -1.9511 -2.5034 0.9752
2.6877 -0.6541 -1.2055 0.9880
2.6828 -0.4518 -1.1857 0.9882
2.6815 -0.3530 -1.1787 0.9883
2.6868 -0.2559 -1.1763 0.9883
-3.8348 -3.8108 -2.5025 0.9765
-3.6956 -3.9464 -2.5026 0.9765
-3.5516 -4.0768 -2.5027 0.9764
-3.4029 -4.2020 -2.5029 0.9764
-3.2499 -4.3218 -2.5030 0.9764
-2.9314 -4.5445 -2.5032 0.9764
-2.5976 -4.7437 -2.5034 0.9764
-2.0723 -4.9963 -2.5038 0.9764
-1.8915 -5.0678 -2.5038 0.9764
-1.7082 -5.1326 -2.5039 0.9764
-1.5227 -5.1909 -2.5040 0.9764
-1.1460 -5.2872 -2.5042 0.9764
-0.9554 -5.3251 -2.5043 0.9764
-0.5704 -5.3803 -2.5044 0.9764
-0.3767 -5.3974 -2.5044 0.9764
-0.1826 -5.4076 -2.5045 0.9764
0.2063 -5.4070 -2.5046 0.9764
0.5941 -5.3783 -2.5047 0.9764
0.9789 -5.3219 -2.5047 0.9764
1.7313 -5.1268 -2.5048 0.9764
1.9144 -5.0612 -2.5048 0.9764
2.0950 -4.9892 -2.5047 0.9764
2.4480 -4.8258 -2.5047 0.9764
2.6198 -4.7346 -2.5047 0.9764
3.2709 -4.3102 -2.5045 0.9764
3.4236 -4.1898 -2.5045 0.9764
3.5719 -4.0640 -2.5044 0.9764
3.7155 -3.9329 -2.5044 0.9764
3.9882 -3.6557 -2.5043 0.9764
4.4702 -3.0461 -2.5039 0.9764
4.5766 -2.8835 -2.5038 0.9764
4.6771 -2.7170 -2.5037 0.9764
4.7715 -2.5471 -2.5036 0.9764
4.8598 -2.3739 -2.5035 0.9764
4.9417 -2.1976 -2.5034 0.9764
5.0173 -2.0186 -2.5033 0.9764
5.0864 -1.8369 -2.5032 0.9764
2.6114 -0.5369 -1.2340 0.9883
2.6103 -0.4396 -1.2253 0.9884
2.6093 -0.3435 -1.2182 0.9885
2.6133 -0.2489 -1.2151 0.9885
-3.6186 -3.5960 -2.5024 0.9775
-3.4872 -3.7238 -2.5025 0.9775
-3.3513 -3.8469 -2.5026 0.9775
-2.9182 -4.1858 -2.5030 0.9775
-2.4511 -4.4762 -2.5033 0.9775
-2.2888 -4.5615 -2.5034 0.9775
-1.9554 -4.7145 -2.5036 0.9775
-1.7848 -4.7819 -2.5037 0.9775
-1.4368 -4.8981 -2.5038 0.9775
-1.0814 -4.9889 -2.5040 0.9775
-0.9014 -5.0247 -2.5041 0.9775
-0.7203 -5.0539 -2.5041 0.9775
-0.5383 -5.0767 -2.5042 0.9775
-0.3555 -5.0929 -2.5042 0.9775
0.0112 -5.1054 -2.5043 0.9775
0.5606 -5.0748 -2.5044 0.9775
0.7426 -5.0514 -2.5045 0.9775
1.1035 -4.9851 -2.5045 0.9775
1.2819 -4.9423 -2.5045 0.9775
1.6336 -4.8375 -2.5045 0.9775
1.8064 -4.7756 -2.5045 0.9775
1.9768 -4.7076 -2.5045 0.9775
2.3098 -4.5534 -2.5045 0.9775
2.9382 -4.1753 -2.5044 0.9775
3.0863 -4.0670 -2.5043 0.9775
3.2304 -3.9534 -2.5043 0.9775
3.5059 -3.7110 -2.5042 0.9775
3.6369 -3.5825 -2.5041 0.9775
3.7632 -3.4494 -2.5041 0.9775
4.1122 -3.0241 -2.5038 0.9775
4.3184 -2.7208 -2.5037 0.9775
4.5857 -2.2400 -2.5034 0.9775
4.7344 -1.9047 -2.5032 0.9775
4.8585 -1.5596 -2.5030 0.9775
2.5850 -0.6291 -1.3050 0.9882
2.5886 -0.5322 -1.2963 0.9883
2.5872 -0.3406 -1.2800 0.9884
2.5861 -0.2463 -1.2743 0.9885
-3.4214 -3.4000 -2.5023 0.9785
-3.2971 -3.5209 -2.5024 0.9785
-2.7591 -3.9576 -2.5028 0.9785
-2.6153 -4.0544 -2.5029 0.9785
-2.4679 -4.1459 -2.5030 0.9785
-1.8488 -4.4574 -2.5034 0.9785
-1.6875 -4.5211 -2.5035 0.9785
-1.5240 -4.5790 -2.5036 0.9785
-0.5089 -4.7998 -2.5040 0.9785
-0.3361 -4.8151 -2.5040 0.9785
0.0106 -4.8270 -2.5041 0.9785
0.3573 -4.8139 -2.5042 0.9785
0.7021 -4.7759 -2.5043 0.9785
1.2121 -4.6727 -2.5043 0.9785
1.5445 -4.5736 -2.5043 0.9785
2.0277 -4.3808 -2.5043 0.9785
2.1838 -4.3051 -2.5043 0.9785
2.3371 -4.2238 -2.5043 0.9785
2.4873 -4.1371 -2.5042 0.9785
2.6344 -4.0449 -2.5042 0.9785
3.5579 -3.2613 -2.5039 0.9785
3.7828 -2.9972 -2.5037 0.9785
3.8879 -2.8592 -2.5037 0.9785
3.9880 -2.7176 -2.5036 0.9785
4.4088 -1.9606 -2.5031 0.9785
4.4762 -1.8009 -2.5030 0.9785
4.5379 -1.6388 -2.5029 0.9785
4.5936 -1.4746 -2.5028 0.9785
2.5602 -0.6231 -1.3669 0.9882
2.5651 -0.3377 -1.3422 0.9884
2.5656 -0.2444 -1.3370 0.9885
-3.2406 -3.2203 -2.5022 0.9794
-3.1229 -3.3348 -2.5023 0.9794
-3.0012 -3.4451 -2.5024 0.9794
-2.7462 -3.6520 -2.5026 0.9794
-2.6133 -3.7485 -2.5027 0.9794
-2.4770 -3.8401 -2.5028 0.9794
-2.1950 -4.0084 -2.5030 0.9794
-1.9015 -4.1560 -2.5032 0.9794
-1.5983 -4.2821 -2.5034 0.9794
-1.4434 -4.3369 -2.5034 0.9794
-1.2867 -4.3861 -2.5035 0.9794
-1.1283 -4.4296 -2.5036 0.9794
-0.9684 -4.4674 -2.5036 0.9794
-0.6451 -4.5257 -2.5038 0.9794
-0.4820 -4.5460 -2.5038 0.9794
-0.1543 -4.5690 -2.5039 0.9794
0.0101 -4.5717 -2.5039 0.9794
0.5020 -4.5443 -2.5040 0.9794
1.3063 -4.3815 -2.5041 0.9794
1.6175 -4.2764 -2.5041 0.9794
1.7702 -4.2155 -2.5041 0.9794
2.3558 -3.9183 -2.5040 0.9794
2.4951 -3.8310 -2.5040 0.9794
3.0180 -3.4338 -2.5039 0.9794
3.1394 -3.3231 -2.5038 0.9794
3.3698 -3.0889 -2.5037 0.9794
3.7772 -2.5739 -2.5034 0.9794
4.0319 -2.1523 -2.5032 0.9794
4.1757 -1.8570 -2.5030 0.9794
4.2397 -1.7057 -2.5029 0.9794
2.5388 -0.6179 -1.4311 0.9882
-3.0741 -3.0549 -2.5021 0.9802
-2.6051 -3.4644 -2.5025 0.9802
-2.3497 -3.6428 -2.5027 0.9802
-2.2174 -3.7250 -2.5028 0.9802
-2.0822 -3.8024 -2.5029 0.9802
-1.8038 -3.9424 -2.5031 0.9802
-1.6610 -4.0048 -2.5031 0.9802
-1.0702 -4.2019 -2.5034 0.9802
-0.9185 -4.2378 -2.5035 0.9802
-0.3019 -4.3261 -2.5037 0.9802
-0.1463 -4.3342 -2.5037 0.9802
0.3210 -4.3249 -2.5038 0.9802
0.4762 -4.3107 -2.5039 0.9802
0.6308 -4.2908 -2.5039 0.9802
0.7846 -4.2654 -2.5039 0.9802
0.9374 -4.2345 -2.5039 0.9802
1.0889 -4.1981 -2.5039 0.9802
1.2391 -4.1562 -2.5039 0.9802
1.3876 -4.1090 -2.5040 0.9802
1.6792 -3.9987 -2.5039 0.9802
2.0997 -3.7947 -2.5039 0.9802
2.2347 -3.7168 -2.5039 0.9802
2.6216 -3.4546 -2.5038 0.9802
2.7440 -3.3581 -2.5037 0.9802
2.9780 -3.1522 -2.5037 0.9802
3.0893 -3.0431 -2.5036 0.9802
3.1966 -2.9301 -2.5035 0.9802
3.3986 -2.6928 -2.5034 0.9802
3.5830 -2.4416 -2.5033 0.9802
3.7489 -2.1779 -2.5031 0.9802
3.8246 -2.0416 -2.5031 0.9802
3.9611 -1.7616 -2.5029 0.9802
4.0217 -1.6180 -2.5028 0.9802
4.0771 -1.4724 -2.5027 0.9802
2.5282 -0.7124 -1.5165 0.9879
2.5219 -0.5185 -1.4865 0.9882
