ply
format ascii 1.0
element vertex 719
property float32 x
property float32 y
property float32 z
property float32 I
end_header
-4.9228 -11.5029 1.9168 0.9506
-4.9223 -11.5019 1.6292 0.9508
-4.9219 -11.5010 1.3433 0.9509
-4.9215 -11.5000 1.0589 0.9510
-4.9211 -11.4990 0.7756 0.9511
-4.9203 -11.4971 0.2112 0.9512
-4.9199 -11.4962 -0.0704 0.9512
-4.9195 -11.4952 -0.3521 0.9512
-47.7874 -11.2367 -2.4896 0.8215
-47.3542 -12.9490 -2.4897 0.8215
-46.8603 -14.6448 -2.4898 0.8215
-45.6916 -17.9782 -2.4901 0.8215
-43.4986 -22.8011 -2.4907 0.8214
-41.7542 -25.8742 -2.4911 0.8214
-40.8003 -27.3620 -2.4914 0.8214
-31.3664 -35.1772 -2.3902 0.8280
-27.9237 -39.0928 -2.4364 0.8250
-26.6809 -40.3465 -2.4531 0.8239
-24.0521 -42.7670 -2.4884 0.8216
-22.6664 -43.9307 -2.5070 0.8204
-21.2333 -45.0610 -2.5262 0.8191
-33.5747 -5.3833 -2.4932 0.8725
-33.3601 -6.5877 -2.4933 0.8725
-30.1460 -10.6259 -2.3437 0.8797
-28.8902 -13.8425 -2.3489 0.8794
-26.4211 -20.6202 -2.4574 0.8742
-25.7555 -21.6356 -2.4663 0.8738
-25.0555 -22.6339 -2.4757 0.8733
-24.3214 -23.6140 -2.4856 0.8729
-21.9167 -26.4355 -2.5178 0.8713
-21.0486 -27.3328 -2.5295 0.8708
-18.2488 -29.8788 -2.5671 0.8690
-17.2517 -30.6752 -2.5805 0.8684
-16.2235 -31.4433 -2.5943 0.8677
-12.9572 -33.5666 -2.6382 0.8656
-11.8101 -34.2099 -2.6536 0.8649
-9.4322 -35.3917 -2.6856 0.8634
-6.9485 -36.4258 -2.7190 0.8618
-5.6694 -36.8842 -2.7362 0.8610
-4.3667 -37.3016 -2.7537 0.8602
-3.0416 -37.6770 -2.7715 0.8593
-1.6953 -38.0088 -2.7897 0.8585
2.4575 -38.7311 -2.8456 0.8559
5.2605 -38.6358 -2.8590 0.8552
7.9861 -37.9737 -2.8452 0.8559
9.3082 -37.5055 -2.8334 0.8564
10.6014 -36.9725 -2.8201 0.8570
11.8626 -36.3772 -2.8055 0.8577
13.0884 -35.7220 -2.7895 0.8585
14.2760 -35.0102 -2.7722 0.8593
15.4229 -34.2445 -2.7538 0.8602
16.5265 -33.4283 -2.7342 0.8611
17.5847 -32.5649 -2.7136 0.8621
18.5958 -31.6576 -2.6920 0.8631
19.5710 -30.7302 -2.6714 0.8641
21.3898 -28.7861 -2.6296 0.8660
22.2252 -27.7653 -2.6077 0.8671
25.5379 -27.5793 -2.7560 0.8601
-25.3015 -5.9494 -2.4953 0.9008
-25.0717 -6.8558 -2.4954 0.9008
-22.3805 -9.7497 -2.3437 0.9066
-22.0329 -10.5569 -2.3455 0.9065
-19.4709 -15.1960 -2.3712 0.9055
-18.4926 -16.7054 -2.3925 0.9047
-17.4332 -18.1894 -2.4188 0.9037
-14.9975 -20.9963 -2.4772 0.9015
-14.3144 -21.6460 -2.4914 0.9010
-13.6002 -22.2677 -2.5050 0.9005
-12.0834 -23.4193 -2.5300 0.8995
-11.2835 -23.9456 -2.5413 0.8991
-4.9182 -11.4923 -1.2001 0.9510
-9.6082 -24.8908 -2.5615 0.8983
-8.7364 -25.3064 -2.5702 0.8980
-7.8442 -25.6822 -2.5781 0.8977
-6.0070 -26.3093 -2.5908 0.8972
-4.1137 -26.7633 -2.5996 0.8969
-3.1518 -26.9233 -2.6024 0.8968
-2.1827 -27.0378 -2.6042 0.8967
-0.2332 -27.1293 -2.6046 0.8967
3.6438 -26.7617 -2.5930 0.8972
5.5365 -26.3255 -2.5827 0.8975
7.3766 -25.7259 -2.5693 0.8980
9.1473 -24.9655 -2.5526 0.8987
10.8534 -24.0985 -2.5374 0.8992
12.4726 -23.0979 -2.5202 0.8999
13.2453 -22.5489 -2.5107 0.9002
13.9966 -21.9773 -2.5015 0.9006
16.1207 -20.1391 -2.4766 0.9015
16.7728 -19.4742 -2.4675 0.9019
17.3952 -18.7857 -2.4580 0.9022
-20.7515 -3.3272 -2.4965 0.9188
-20.6187 -4.0716 -2.4965 0.9188
-20.2733 -5.5437 -2.4966 0.9188
-20.0612 -6.2695 -2.4967 0.9188
-19.8232 -6.9873 -2.4967 0.9188
-19.2706 -8.3949 -2.4969 0.9188
-18.4955 -9.6949 -2.4805 0.9193
-17.1439 -9.7882 -2.3450 0.9236
-16.4180 -11.0104 -2.3482 0.9235
-15.2591 -12.8181 -2.3672 0.9229
-14.2920 -13.8764 -2.3662 0.9229
-13.8094 -14.4084 -2.3707 0.9228
-12.2681 -15.9309 -2.3885 0.9222
-11.7178 -16.4047 -2.3947 0.9220
-11.1541 -16.8671 -2.4020 0.9218
-8.7137 -18.4920 -2.4283 0.9210
-4.9178 -11.4914 -1.4848 0.9509
-7.3998 -19.1697 -2.4409 0.9206
-6.7210 -19.4686 -2.4465 0.9204
-6.0290 -19.7393 -2.4517 0.9202
-5.3251 -19.9812 -2.4563 0.9201
-3.8869 -20.3763 -2.4641 0.9198
-3.1553 -20.5283 -2.4671 0.9197
-0.9276 -20.7978 -2.4729 0.9196
-0.1789 -20.8246 -2.4738 0.9195
2.8069 -20.6145 -2.4713 0.9196
3.5438 -20.4844 -2.4694 0.9197
5.0003 -20.1479 -2.4659 0.9198
5.7162 -19.9354 -2.4635 0.9199
9.7604 -18.0752 -2.4401 0.9206
10.3915 -17.6905 -2.4371 0.9207
12.1830 -16.3956 -2.4264 0.9210
13.8046 -14.9080 -2.4135 0.9214
14.2906 -14.3602 -2.4065 0.9216
-17.2917 -3.4146 -2.4974 0.9313
-16.8240 -5.2579 -2.4975 0.9313
-16.4031 -6.4541 -2.4976 0.9313
-16.1608 -7.0401 -2.4976 0.9313
-15.6136 -8.1843 -2.4978 0.9313
-14.9857 -9.2863 -2.4979 0.9313
-14.4603 -9.6975 -2.4670 0.9321
-13.0575 -10.1906 -2.3469 0.9353
-12.3049 -11.1156 -2.3495 0.9352
-11.1111 -12.4610 -2.3656 0.9348
-10.6859 -12.8893 -2.3723 0.9346
-10.2169 -13.2672 -2.3726 0.9346
-9.2344 -13.9641 -2.3721 0.9346
-8.7393 -14.3089 -2.3757 0.9345
-8.2370 -14.6462 -2.3809 0.9344
-7.7173 -14.9573 -2.3847 0.9343
-7.1854 -15.2487 -2.3884 0.9342
-6.0876 -15.7706 -2.3952 0.9340
-5.5236 -16.0000 -2.3983 0.9339
-4.3690 -16.3937 -2.4039 0.9338
-3.1853 -16.6979 -2.4086 0.9336
-2.5847 -16.8158 -2.4106 0.9336
-1.3709 -16.9815 -2.4139 0.9335
-0.7596 -17.0291 -2.4152 0.9335
0.4671 -17.0531 -2.4172 0.9334
1.0806 -17.0294 -2.4177 0.9334
1.6927 -16.9820 -2.4181 0.9334
3.5117 -16.6979 -2.4177 0.9334
4.1090 -16.5565 -2.4171 0.9334
4.7003 -16.3921 -2.4162 0.9334
5.2844 -16.2050 -2.4151 0.9335
5.8607 -15.9955 -2.4137 0.9335
6.4281 -15.7640 -2.4122 0.9335
6.9857 -15.5109 -2.4103 0.9336
7.5328 -15.2366 -2.4083 0.9336
8.0685 -14.9417 -2.4060 0.9337
9.5856 -13.9194 -2.3946 0.9340
10.5303 -13.1551 -2.3876 0.9342
11.7363 -11.7935 -2.3574 0.9350
-14.9718 -2.4005 -2.4979 0.9404
-14.6266 -3.9996 -2.4980 0.9404
-14.4735 -4.5232 -2.4981 0.9404
-14.3017 -5.0410 -2.4981 0.9404
-14.1113 -5.5523 -2.4982 0.9404
-13.9028 -6.0565 -2.4982 0.9404
-13.6762 -6.5529 -2.4983 0.9404
-13.4320 -7.0408 -2.4983 0.9404
-12.8917 -7.9887 -2.4985 0.9404
-11.9572 -9.3320 -2.4987 0.9404
-10.7516 -9.7125 -2.3869 0.9430
-9.4895 -10.6424 -2.3490 0.9438
-9.1044 -10.9815 -2.3500 0.9438
-8.7070 -11.3066 -2.3509 0.9438
-7.8799 -11.9160 -2.3534 0.9437
-7.0469 -12.5299 -2.3682 0.9434
-5.1985 -13.4671 -2.3781 0.9432
-2.7091 -14.2017 -2.3818 0.9431
-1.6841 -14.3859 -2.3861 0.9430
0.9191 -14.4855 -2.3911 0.9429
2.4731 -14.2957 -2.3901 0.9429
3.4911 -14.0667 -2.3876 0.9429
4.4958 -13.7866 -2.3889 0.9429
4.9909 -13.6216 -2.3899 0.9429
5.4794 -13.4377 -2.3907 0.9429
7.2827 -12.3980 -2.3687 0.9434
8.1130 -11.7811 -2.3565 0.9437
9.3261 -10.8282 -2.3543 0.9437
9.7062 -10.4821 -2.3534 0.9437
-13.1246 -2.1043 -2.4984 0.9473
-13.0405 -2.5751 -2.4984 0.9473
-12.8219 -3.5061 -2.4985 0.9473
-12.5370 -4.4190 -2.4986 0.9473
-12.1873 -5.3092 -2.4987 0.9473
-11.9886 -5.7443 -2.4987 0.9473
-11.0419 -7.4050 -2.4990 0.9473
-10.7687 -7.7977 -2.4990 0.9473
-10.4815 -8.1802 -2.4991 0.9473
-10.1808 -8.5522 -2.4992 0.9473
-8.6511 -9.7021 -2.4433 0.9485
-8.0546 -9.7153 -2.3721 0.9499
-7.6200 -9.8950 -2.3475 0.9504
-6.8935 -10.4243 -2.3490 0.9504
-5.7356 -11.1164 -2.3512 0.9504
-5.3335 -11.3187 -2.3518 0.9503
-4.5081 -11.6786 -2.3530 0.9503
-4.0860 -11.8359 -2.3535 0.9503
-1.9137 -12.4502 -2.3676 0.9500
-1.4657 -12.5204 -2.3694 0.9500
-0.1084 -12.6199 -2.3721 0.9499
2.1475 -12.4128 -2.3678 0.9500
2.5902 -12.3162 -2.3656 0.9501
3.0283 -12.2016 -2.3630 0.9501
3.8870 -11.9195 -2.3565 0.9503
4.7311 -11.6024 -2.3551 0.9503
5.5512 -11.2285 -2.3544 0.9503
6.3416 -10.7960 -2.3534 0.9503
8.3623 -9.7091 -2.4085 0.9492
9.3977 -9.4435 -2.5042 0.9472
-11.2836 -3.5264 -2.4989 0.9528
-11.1496 -3.9300 -2.4989 0.9528
-10.6618 -5.1085 -2.4990 0.9528
-10.2674 -5.8621 -2.4991 0.9528
-10.0501 -6.2278 -2.4992 0.9528
-9.3214 -7.2748 -2.4994 0.9528
-8.7747 -7.9266 -2.4995 0.9528
-8.4841 -8.2373 -2.4996 0.9528
-8.1826 -8.5375 -2.4997 0.9528
-7.2159 -9.3702 -2.4999 0.9528
-5.9301 -9.7093 -2.4049 0.9546
-4.3725 -10.2170 -2.3491 0.9556
-3.6281 -10.5093 -2.3501 0.9556
-2.4760 -10.8444 -2.3513 0.9555
-2.0846 -10.9280 -2.3516 0.9555
-1.6904 -10.9972 -2.3519 0.9555
-1.2938 -11.0521 -2.3521 0.9555
-0.8955 -11.0925 -2.3524 0.9555
-0.4959 -11.1183 -2.3525 0.9555
-0.0957 -11.1296 -2.3527 0.9555
0.7048 -11.1083 -2.3528 0.9555
1.1040 -11.0758 -2.3528 0.9555
1.8974 -10.9674 -2.3527 0.9555
2.2906 -10.8916 -2.3526 0.9555
2.6807 -10.8015 -2.3525 0.9555
3.8277 -10.4469 -2.3518 0.9555
4.9288 -9.9696 -2.3508 0.9555
5.2840 -9.7852 -2.3507 0.9556
5.7061 -9.7140 -2.3814 0.9550
6.1806 -9.7047 -2.4321 0.9540
6.6760 -9.6943 -2.4881 0.9530
7.4017 -9.2467 -2.5036 0.9527
7.7298 -8.9748 -2.5037 0.9527
-10.4993 -1.6834 -2.4991 0.9572
-10.4320 -2.0600 -2.4991 0.9572
-10.2571 -2.8048 -2.4991 0.9572
-9.8956 -3.8936 -2.4992 0.9572
-9.7492 -4.2471 -2.4993 0.9572
-9.5903 -4.5951 -2.4993 0.9572
-9.4190 -4.9372 -2.4994 0.9572
-9.2354 -5.2729 -2.4994 0.9572
-8.1438 -6.8411 -2.4997 0.9572
-7.8927 -7.1298 -2.4998 0.9572
-7.3600 -7.6793 -2.4999 0.9572
-7.0792 -7.9392 -2.5000 0.9572
-5.8681 -8.8736 -2.5003 0.9572
-4.1494 -9.6957 -2.4786 0.9576
-3.3514 -9.7077 -2.4137 0.9587
-2.9666 -9.7127 -2.3868 0.9591
-2.5898 -9.7174 -2.3635 0.9595
-2.2246 -9.7431 -2.3488 0.9598
-1.8727 -9.8172 -2.3489 0.9598
-1.5184 -9.8786 -2.3490 0.9598
-1.1622 -9.9277 -2.3492 0.9598
1.7044 -9.8518 -2.3498 0.9598
2.0578 -9.7845 -2.3499 0.9597
2.4140 -9.7267 -2.3554 0.9597
2.7857 -9.7150 -2.3753 0.9593
4.3652 -9.6923 -2.4983 0.9573
5.0604 -9.3712 -2.5031 0.9572
5.3944 -9.1835 -2.5031 0.9572
5.7214 -8.9837 -2.5032 0.9572
6.9517 -8.0713 -2.5035 0.9572
-9.5313 -1.5282 -2.4993 0.9609
-9.4702 -1.8701 -2.4993 0.9609
-9.2138 -2.8795 -2.4994 0.9609
-8.9832 -3.5346 -2.4995 0.9609
-8.8503 -3.8555 -2.4995 0.9609
-8.7060 -4.1714 -2.4995 0.9609
-8.3839 -4.7867 -2.4996 0.9609
-8.2064 -5.0853 -2.4997 0.9609
-7.8198 -5.6624 -2.4998 0.9609
-7.6113 -5.9402 -2.4998 0.9609
-7.3928 -6.2102 -2.4999 0.9609
-7.1648 -6.4723 -2.4999 0.9609
-6.9275 -6.7260 -2.5000 0.9609
-6.1631 -7.4337 -2.5002 0.9609
-5.8918 -7.6508 -2.5003 0.9609
-5.6130 -7.8581 -2.5003 0.9609
-5.0338 -8.2418 -2.5005 0.9609
-4.1170 -8.7369 -2.5007 0.9609
-3.4783 -9.0109 -2.5009 0.9609
-3.1521 -9.1305 -2.5010 0.9609
-2.8217 -9.2383 -2.5010 0.9609
-2.1503 -9.4179 -2.5012 0.9609
-1.8102 -9.4895 -2.5013 0.9609
-1.4677 -9.5488 -2.5014 0.9609
-1.1233 -9.5957 -2.5015 0.9609
-0.7774 -9.6302 -2.5016 0.9609
-0.4305 -9.6523 -2.5017 0.9609
-0.0830 -9.6619 -2.5017 0.9609
0.2646 -9.6590 -2.5018 0.9609
0.9584 -9.6157 -2.5020 0.9609
1.3037 -9.5753 -2.5021 0.9609
1.6474 -9.5225 -2.5022 0.9609
2.9965 -9.1890 -2.5025 0.9609
3.3253 -9.0756 -2.5026 0.9608
3.9694 -8.8136 -2.5028 0.9608
4.2841 -8.6654 -2.5029 0.9608
5.4833 -7.9624 -2.5032 0.9608
5.7663 -7.7602 -2.5032 0.9608
6.0419 -7.5479 -2.5033 0.9608
6.3097 -7.3259 -2.5034 0.9608
6.8204 -6.8536 -2.5035 0.9608
-8.6621 -1.7105 -2.4996 0.9640
-8.5951 -2.0210 -2.4996 0.9640
-8.3276 -2.9353 -2.4996 0.9640
-8.2167 -3.2330 -2.4997 0.9640
-7.6685 -4.3783 -2.4998 0.9640
-7.5061 -4.6514 -2.4999 0.9640
-7.3341 -4.9185 -2.4999 0.9640
-7.1525 -5.1792 -2.4999 0.9640
-6.9617 -5.4332 -2.5000 0.9640
-6.7619 -5.6803 -2.5000 0.9640
-6.3363 -6.1520 -2.5001 0.9640
-4.8722 -7.3676 -2.5005 0.9639
-4.6041 -7.5383 -2.5006 0.9639
-4.0504 -7.8502 -2.5007 0.9639
-3.7655 -7.9911 -2.5008 0.9639
-3.1814 -8.2416 -2.5010 0.9639
-2.2752 -8.5372 -2.5012 0.9639
-1.9667 -8.6138 -2.5013 0.9639
-1.6556 -8.6792 -2.5013 0.9639
-1.3424 -8.7334 -2.5014 0.9639
-1.0278 -8.7764 -2.5015 0.9639
-0.0759 -8.8368 -2.5017 0.9639
0.2420 -8.8341 -2.5018 0.9639
0.5596 -8.8200 -2.5019 0.9639
0.8766 -8.7944 -2.5020 0.9639
1.5067 -8.7092 -2.5021 0.9639
2.7406 -8.4041 -2.5025 0.9639
3.3379 -8.1858 -2.5026 0.9639
3.9181 -7.9251 -2.5028 0.9639
4.2008 -7.7793 -2.5028 0.9639
4.4780 -7.6234 -2.5029 0.9639
5.0148 -7.2821 -2.5030 0.9639
5.7706 -6.6999 -2.5032 0.9639
6.0080 -6.4882 -2.5033 0.9639
-7.9731 -1.5745 -2.4997 0.9666
-7.3297 -3.5119 -2.4999 0.9666
-6.7506 -4.5272 -2.5000 0.9666
-6.5835 -4.7672 -2.5001 0.9666
-5.8322 -5.6625 -2.5003 0.9666
-5.6248 -5.8688 -2.5003 0.9666
-4.9602 -6.4410 -2.5005 0.9666
-4.7254 -6.6155 -2.5006 0.9665
-4.4845 -6.7813 -2.5006 0.9665
-4.2377 -6.9385 -2.5007 0.9665
-3.7281 -7.2255 -2.5008 0.9665
-2.0941 -7.8577 -2.5012 0.9665
-0.6544 -8.1068 -2.5016 0.9665
-0.3624 -8.1253 -2.5017 0.9665
0.5151 -8.1178 -2.5019 0.9665
0.8068 -8.0942 -2.5020 0.9665
1.9596 -7.8958 -2.5023 0.9665
2.2424 -7.8204 -2.5023 0.9665
2.5224 -7.7349 -2.5024 0.9665
2.7990 -7.6394 -2.5025 0.9665
3.6061 -7.2940 -2.5027 0.9665
3.8662 -7.1597 -2.5027 0.9665
4.1214 -7.0162 -2.5028 0.9665
4.3712 -6.8636 -2.5029 0.9665
4.6154 -6.7021 -2.5029 0.9665
4.8536 -6.5319 -2.5030 0.9665
-7.3781 -1.4569 -2.4999 0.9688
-7.2543 -1.9837 -2.4999 0.9688
-6.9986 -2.7537 -2.5000 0.9688
-6.6614 -3.4918 -2.5001 0.9688
-6.3933 -3.9618 -2.5001 0.9688
-6.2468 -4.1893 -2.5002 0.9688
-5.9296 -4.6277 -2.5003 0.9688
-5.7594 -4.8381 -2.5003 0.9688
-5.3968 -5.2398 -2.5004 0.9688
-5.2049 -5.4307 -2.5004 0.9688
-4.8012 -5.7911 -2.5005 0.9688
-4.3726 -6.1216 -2.5006 0.9688
-4.1497 -6.2751 -2.5007 0.9688
-3.9214 -6.4204 -2.5008 0.9688
-3.6879 -6.5575 -2.5008 0.9688
-3.4497 -6.6861 -2.5009 0.9688
-3.2071 -6.8060 -2.5009 0.9688
-2.9603 -6.9171 -2.5010 0.9688
-2.1980 -7.1963 -2.5012 0.9688
-1.6750 -7.3361 -2.5013 0.9688
-0.8750 -7.4745 -2.5015 0.9688
0.2061 -7.5235 -2.5018 0.9688
1.2832 -7.4170 -2.5021 0.9688
2.3339 -7.1571 -2.5024 0.9688
2.5899 -7.0687 -2.5024 0.9688
2.8426 -6.9711 -2.5025 0.9688
3.0916 -6.8645 -2.5025 0.9688
3.3366 -6.7490 -2.5026 0.9688
3.8134 -6.4920 -2.5027 0.9688
4.0446 -6.3507 -2.5028 0.9688
4.2705 -6.2013 -2.5028 0.9688
5.3117 -5.3376 -2.5031 0.9688
-6.7435 -1.8440 -2.5000 0.9707
-6.6728 -2.0854 -2.5001 0.9707
-6.5935 -2.3241 -2.5001 0.9707
-6.3050 -3.0210 -2.5002 0.9707
-6.1923 -3.2458 -2.5002 0.9707
-6.0716 -3.4666 -2.5002 0.9707
-5.9430 -3.6827 -2.5002 0.9707
-5.6630 -4.1006 -2.5003 0.9707
-5.5119 -4.3018 -2.5004 0.9707
-5.1886 -4.6871 -2.5004 0.9707
-5.0167 -4.8708 -2.5005 0.9707
-4.8383 -5.0482 -2.5005 0.9707
-4.4630 -5.3832 -2.5006 0.9707
-4.2666 -5.5404 -2.5007 0.9707
-4.0646 -5.6903 -2.5007 0.9707
-3.2067 -6.2150 -2.5009 0.9707
-2.9811 -6.3265 -2.5010 0.9707
-2.2824 -6.6113 -2.5012 0.9707
-2.0431 -6.6893 -2.5012 0.9707
-1.3107 -6.8710 -2.5014 0.9707
-0.8133 -6.9478 -2.5016 0.9707
-0.3117 -6.9887 -2.5017 0.9707
-0.0601 -6.9955 -2.5017 0.9707
0.1916 -6.9933 -2.5018 0.9707
0.9439 -6.9325 -2.5020 0.9707
1.1927 -6.8943 -2.5021 0.9707
2.4074 -6.5704 -2.5024 0.9707
3.3252 -6.1578 -2.5026 0.9707
3.7595 -5.9030 -2.5027 0.9707
3.9694 -5.7641 -2.5028 0.9707
4.1743 -5.6177 -2.5028 0.9707
4.7555 -5.1356 -2.5030 0.9707
4.9372 -4.9613 -2.5030 0.9707
-6.4417 -1.0328 -2.5001 0.9724
-6.2271 -1.9461 -2.5002 0.9724
-6.1531 -2.1688 -2.5002 0.9724
-6.0712 -2.3888 -2.5002 0.9724
-5.9814 -2.6057 -2.5002 0.9724
-5.7787 -3.0290 -2.5003 0.9724
-5.6660 -3.2350 -2.5003 0.9724
-5.4189 -3.6341 -2.5004 0.9724
-5.2848 -3.8267 -2.5004 0.9724
-5.1438 -4.0144 -2.5005 0.9724
-4.9961 -4.1969 -2.5005 0.9724
-4.8420 -4.3740 -2.5005 0.9724
-4.6816 -4.5454 -2.5006 0.9724
-3.5996 -5.4433 -2.5008 0.9724
-3.1991 -5.6883 -2.5009 0.9724
-2.7820 -5.9038 -2.5011 0.9724
-2.5678 -6.0002 -2.5011 0.9724
-1.9066 -6.2423 -2.5013 0.9724
-0.9917 -6.4519 -2.5015 0.9724
-0.0561 -6.5280 -2.5017 0.9724
0.1788 -6.5259 -2.5018 0.9724
0.6475 -6.4965 -2.5019 0.9724
0.8808 -6.4692 -2.5020 0.9724
1.1130 -6.4334 -2.5020 0.9724
1.3438 -6.3894 -2.5021 0.9724
1.5727 -6.3371 -2.5022 0.9724
1.7997 -6.2765 -2.5022 0.9724
2.4656 -6.0466 -2.5024 0.9724
2.6816 -5.9541 -2.5024 0.9724
3.7040 -5.3787 -2.5027 0.9724
4.0813 -5.0987 -2.5028 0.9724
4.6071 -4.6295 -2.5029 0.9724
-5.8927 -1.6113 -2.5003 0.9739
-5.6849 -2.2368 -2.5003 0.9739
-5.5095 -2.6398 -2.5004 0.9739
-5.4110 -2.8363 -2.5004 0.9739
-5.3055 -3.0291 -2.5004 0.9739
-4.9485 -3.5832 -2.5005 0.9739
-4.8164 -3.7589 -2.5005 0.9739
-4.5338 -4.0956 -2.5006 0.9739
-4.3837 -4.2561 -2.5006 0.9739
-4.2278 -4.4111 -2.5007 0.9739
-4.0664 -4.5605 -2.5007 0.9739
-3.8998 -4.7039 -2.5008 0.9739
-3.5516 -4.9722 -2.5009 0.9739
-3.3705 -5.0969 -2.5009 0.9739
-2.9955 -5.3262 -2.5010 0.9739
-2.8020 -5.4307 -2.5010 0.9739
-2.6049 -5.5280 -2.5011 0.9739
-2.4044 -5.6183 -2.5011 0.9739
-1.9943 -5.7769 -2.5013 0.9739
-1.7852 -5.8450 -2.5013 0.9739
-1.1453 -6.0037 -2.5015 0.9739
-0.9286 -6.0411 -2.5015 0.9739
-0.7107 -6.0707 -2.5016 0.9739
-0.2724 -6.1064 -2.5017 0.9739
-0.0525 -6.1124 -2.5017 0.9739
0.6063 -6.0829 -2.5019 0.9739
1.0421 -6.0238 -2.5020 0.9739
1.2582 -5.9826 -2.5021 0.9739
2.1034 -5.7407 -2.5023 0.9739
2.3086 -5.6615 -2.5023 0.9739
2.5108 -5.5749 -2.5024 0.9739
2.9052 -5.3802 -2.5025 0.9739
3.4681 -5.0362 -2.5026 0.9739
3.6471 -4.9082 -2.5027 0.9739
3.9907 -4.6335 -2.5028 0.9739
-5.6647 -0.9083 -2.5003 0.9753
-5.6284 -1.1114 -2.5003 0.9753
-5.5340 -1.5132 -2.5004 0.9753
-5.4760 -1.7113 -2.5004 0.9753
-5.3389 -2.1007 -2.5004 0.9753
-5.2599 -2.2914 -2.5004 0.9753
-4.9826 -2.8448 -2.5005 0.9753
-4.7652 -3.1957 -2.5005 0.9753
-4.6472 -3.3651 -2.5006 0.9753
-4.3934 -3.6906 -2.5006 0.9753
-4.2578 -3.8463 -2.5007 0.9753
-3.8189 -4.2828 -2.5008 0.9753
-2.9912 -4.8974 -2.5010 0.9753
-2.8131 -5.0019 -2.5010 0.9753
-2.6314 -5.1000 -2.5011 0.9753
-2.4463 -5.1914 -2.5011 0.9753
-2.0668 -5.3541 -2.5012 0.9753
-1.6766 -5.4890 -2.5013 0.9753
-1.4780 -5.5459 -2.5014 0.9753
-1.2776 -5.5956 -2.5014 0.9753
-1.0755 -5.6381 -2.5015 0.9753
-0.8720 -5.6732 -2.5015 0.9753
-0.6674 -5.7010 -2.5016 0.9753
-0.2558 -5.7345 -2.5017 0.9753
0.1572 -5.7383 -2.5018 0.9753
0.3635 -5.7290 -2.5019 0.9753
1.1815 -5.6182 -2.5021 0.9753
1.9753 -5.3910 -2.5023 0.9753
3.0846 -4.8434 -2.5025 0.9753
3.5886 -4.4831 -2.5027 0.9753
3.7476 -4.3512 -2.5027 0.9753
3.9017 -4.2136 -2.5028 0.9753
-5.3337 -0.8551 -2.5004 0.9765
-5.2995 -1.0465 -2.5004 0.9765
-5.2584 -1.2365 -2.5004 0.9765
-5.2105 -1.4248 -2.5004 0.9765
-4.6913 -2.6785 -2.5006 0.9765
-4.3756 -3.1684 -2.5006 0.9765
-4.1366 -3.4749 -2.5007 0.9765
-3.5956 -4.0325 -2.5008 0.9765
-3.1404 -4.3966 -2.5010 0.9765
-2.9803 -4.5068 -2.5010 0.9765
-2.4776 -4.8018 -2.5011 0.9765
-2.1260 -4.9677 -2.5012 0.9765
-1.5785 -5.1681 -2.5014 0.9765
-1.3916 -5.2217 -2.5014 0.9765
-1.2029 -5.2684 -2.5015 0.9765
-0.8210 -5.3415 -2.5016 0.9765
-0.6284 -5.3677 -2.5016 0.9765
-0.4349 -5.3869 -2.5017 0.9765
-0.2408 -5.3992 -2.5017 0.9765
-0.0465 -5.4045 -2.5017 0.9765
0.5361 -5.3783 -2.5019 0.9765
0.7292 -5.3557 -2.5019 0.9765
1.1125 -5.2896 -2.5020 0.9765
1.4899 -5.1961 -2.5021 0.9765
1.6759 -5.1393 -2.5022 0.9765
2.7382 -4.6615 -2.5025 0.9765
3.0664 -4.4527 -2.5025 0.9765
3.2246 -4.3396 -2.5026 0.9765
3.3787 -4.2208 -2.5026 0.9765
3.8139 -3.8325 -2.5027 0.9764
-5.0333 -0.8070 -2.5005 0.9775
-5.0010 -0.9875 -2.5005 0.9775
-4.8656 -1.5206 -2.5005 0.9775
-4.6735 -2.0359 -2.5006 0.9775
-4.3334 -2.6853 -2.5007 0.9775
-4.1292 -2.9900 -2.5007 0.9775
-4.0190 -3.1366 -2.5007 0.9775
-3.9036 -3.2792 -2.5008 0.9775
-3.7832 -3.4175 -2.5008 0.9775
-3.5277 -3.6808 -2.5009 0.9775
-3.3931 -3.8053 -2.5009 0.9775
-3.2541 -3.9250 -2.5009 0.9775
-2.9635 -4.1489 -2.5010 0.9775
-2.8124 -4.2529 -2.5010 0.9775
-2.6577 -4.3514 -2.5011 0.9775
-2.4994 -4.4442 -2.5011 0.9775
-2.1735 -4.6126 -2.5012 0.9775
-1.8363 -4.7571 -2.5013 0.9775
-1.1351 -4.9716 -2.5015 0.9775
-0.5929 -5.0653 -2.5016 0.9775
-0.2272 -5.0950 -2.5017 0.9775
0.3230 -5.0901 -2.5018 0.9775
0.5059 -5.0753 -2.5019 0.9775
0.6881 -5.0539 -2.5019 0.9775
0.8695 -5.0260 -2.5020 0.9775
1.0498 -4.9915 -2.5020 0.9775
1.2287 -4.9506 -2.5021 0.9775
1.4060 -4.9033 -2.5021 0.9775
1.7549 -4.7897 -2.5022 0.9775
2.0948 -4.6513 -2.5023 0.9775
2.2608 -4.5730 -2.5023 0.9775
2.4239 -4.4888 -2.5024 0.9775
2.7405 -4.3030 -2.5025 0.9775
3.0428 -4.0950 -2.5025 0.9775
3.3295 -3.8657 -2.5026 0.9775
3.5989 -3.6164 -2.5027 0.9775
-4.7288 -0.9338 -2.5006 0.9785
-4.5460 -1.6024 -2.5006 0.9785
-4.4855 -1.7649 -2.5006 0.9785
-4.4191 -1.9251 -2.5006 0.9785
-4.1861 -2.3900 -2.5007 0.9785
-4.0974 -2.5391 -2.5007 0.9785
-4.0035 -2.6849 -2.5007 0.9785
-3.9044 -2.8272 -2.5008 0.9785
-3.6911 -3.1006 -2.5008 0.9785
-3.4587 -3.3581 -2.5009 0.9785
-3.3357 -3.4803 -2.5009 0.9785
-2.9414 -3.8196 -2.5010 0.9785
-2.8022 -3.9230 -2.5010 0.9785
-2.6593 -4.0213 -2.5011 0.9785
-2.3633 -4.2022 -2.5012 0.9785
-2.2107 -4.2846 -2.5012 0.9785
-1.8970 -4.4326 -2.5013 0.9785
-1.7363 -4.4980 -2.5013 0.9785
-1.5734 -4.5576 -2.5014 0.9785
-1.4085 -4.6114 -2.5014 0.9785
-1.2417 -4.6591 -2.5014 0.9785
-0.9035 -4.7365 -2.5015 0.9785
-0.5607 -4.7894 -2.5016 0.9785
-0.2149 -4.8175 -2.5017 0.9785
-0.0414 -4.8222 -2.5018 0.9785
0.3054 -4.8129 -2.5018 0.9785
0.6506 -4.7786 -2.5019 0.9785
0.8221 -4.7522 -2.5020 0.9785
1.1617 -4.6809 -2.5021 0.9785
1.4953 -4.5854 -2.5021 0.9785
1.6593 -4.5288 -2.5022 0.9785
1.8212 -4.4662 -2.5022 0.9785
1.9807 -4.3979 -2.5023 0.9785
2.4431 -4.1591 -2.5024 0.9785
2.5912 -4.0686 -2.5024 0.9785
2.7359 -3.9728 -2.5025 0.9785
3.1481 -3.6551 -2.5026 0.9785
3.2776 -3.5395 -2.5026 0.9785
-4.5080 -0.7228 -2.5006 0.9794
-4.3061 -1.5178 -2.5007 0.9794
-4.1858 -1.8235 -2.5007 0.9794
-3.8811 -2.4050 -2.5008 0.9794
-3.7922 -2.5431 -2.5008 0.9794
-3.5996 -2.8092 -2.5008 0.9794
-3.4962 -2.9369 -2.5009 0.9794
-3.3883 -3.0608 -2.5009 0.9794
-3.1596 -3.2966 -2.5010 0.9794
-3.0390 -3.4081 -2.5010 0.9794
-2.9145 -3.5153 -2.5010 0.9794
-2.6542 -3.7159 -2.5011 0.9794
-2.5189 -3.8090 -2.5011 0.9794
-2.3803 -3.8972 -2.5012 0.9794
-2.0940 -4.0584 -2.5012 0.9794
-1.9467 -4.1311 -2.5013 0.9794
-1.7968 -4.1985 -2.5013 0.9794
-1.4903 -4.3170 -2.5014 0.9794
-1.1761 -4.4131 -2.5015 0.9794
-0.6939 -4.5144 -2.5016 0.9794
-0.3675 -4.5527 -2.5017 0.9794
-0.2035 -4.5631 -2.5017 0.9794
-0.0393 -4.5675 -2.5018 0.9794
1.7250 -4.2303 -2.5022 0.9794
2.1708 -4.0200 -2.5023 0.9794
2.3140 -3.9394 -2.5024 0.9794
2.4543 -3.8537 -2.5024 0.9794
2.5914 -3.7629 -2.5024 0.9794
2.7251 -3.6674 -2.5025 0.9794
2.8553 -3.5670 -2.5025 0.9794
2.9818 -3.4620 -2.5025 0.9794
3.2231 -3.2387 -2.5026 0.9794
-4.2767 -0.6857 -2.5007 0.9802
-4.2492 -0.8391 -2.5007 0.9802
-4.2163 -0.9914 -2.5007 0.9802
-4.1779 -1.1425 -2.5007 0.9802
-3.9710 -1.7299 -2.5007 0.9802
-3.6819 -2.2816 -2.5008 0.9802
-3.5084 -2.5404 -2.5009 0.9802
-3.4148 -2.6650 -2.5009 0.9802
-2.5180 -3.5251 -2.5011 0.9802
-2.3896 -3.6134 -2.5012 0.9802
-2.1236 -3.7760 -2.5012 0.9802
-1.9865 -3.8500 -2.5013 0.9802
-1.8467 -3.9191 -2.5013 0.9802
-1.5602 -4.0418 -2.5014 0.9802
-1.1157 -4.1865 -2.5015 0.9802
-0.9644 -4.2240 -2.5015 0.9802
-0.8119 -4.2561 -2.5016 0.9802
-0.5038 -4.3035 -2.5016 0.9802
-0.3487 -4.3189 -2.5017 0.9802
-0.1931 -4.3288 -2.5017 0.9802
0.2744 -4.3246 -2.5018 0.9802
0.4298 -4.3120 -2.5019 0.9802
1.0439 -4.2060 -2.5020 0.9802
1.4910 -4.0693 -2.5021 0.9802
1.6364 -4.0130 -2.5022 0.9802
1.7797 -3.9517 -2.5022 0.9802
1.9208 -3.8851 -2.5023 0.9802
2.1952 -3.7371 -2.5023 0.9802
2.3282 -3.6558 -2.5024 0.9802
2.5851 -3.4790 -2.5024 0.9802
2.7086 -3.3838 -2.5025 0.9802
2.9450 -3.1804 -2.5025 0.9802
3.0575 -3.0724 -2.5025 0.9802
