ply
format ascii 1.0
element vertex 943
property float32 x
property float32 y
property float32 z
property float32 I
end_header
-6.2914 -41.1387 7.3382 0.8445
-4.7869 -41.1828 7.3105 0.8450
-3.2917 -41.2266 7.2925 0.8454
-1.8020 -41.2704 7.2840 0.8455
2.6734 -41.4016 7.3154 0.8449
4.1804 -41.4458 7.3451 0.8443
5.7016 -41.4905 7.3846 0.8436
6.2164 -35.6572 6.3822 0.8633
6.3501 -29.9922 5.4057 0.8829
7.0822 -24.5622 4.5074 0.9014
13.9245 -37.8158 7.1056 0.8490
15.3417 -37.4460 7.1354 0.8484
18.7031 -37.6624 7.4147 0.8430
19.2088 -35.4168 7.1043 0.8490
24.4634 -32.7800 7.2121 0.8469
26.5579 -30.6988 7.1575 0.8480
35.8513 -26.7684 7.8892 0.8338
29.6896 9.0439 5.4726 0.8816
37.2641 14.3576 7.0415 0.8503
33.8380 14.4585 6.4884 0.8612
31.2806 19.0908 6.4617 0.8617
5.7717 -42.0008 6.4947 0.8423
6.5437 -30.9064 4.8396 0.8800
6.5093 -26.0698 4.1163 0.8970
19.0419 -42.0869 7.0767 0.8295
25.5094 -39.8821 7.2526 0.8257
26.1171 -37.7619 7.0337 0.8304
28.2276 -37.8240 7.2301 0.8261
28.6980 -35.6950 7.0164 0.8308
29.0302 -33.5565 6.7974 0.8356
38.9091 -29.0515 7.4388 0.8216
46.2662 14.0933 7.4093 0.8222
41.3363 14.2384 6.6976 0.8378
33.8393 14.4590 5.6374 0.8616
31.1503 14.6591 5.2741 0.8700
31.1919 16.0760 5.3757 0.8676
31.3277 20.7047 5.7527 0.8590
5.9036 -42.9604 5.6469 0.8395
6.4902 -30.6540 4.0803 0.8813
29.0106 -33.5338 5.7741 0.8362
29.0104 -31.1879 5.5467 0.8421
29.0455 -29.0522 5.3496 0.8473
23.6664 -19.0363 3.9551 0.8847
29.5876 5.6156 3.9217 0.8856
46.2684 14.0941 6.2984 0.8227
33.7412 14.4171 4.7781 0.8624
31.1501 14.6590 4.4831 0.8703
31.2350 17.5505 4.6656 0.8654
31.4451 20.7823 4.9083 0.8590
5.9016 -42.9461 4.6550 0.8400
6.5165 -37.3786 4.0743 0.8584
29.0031 -33.5252 4.7602 0.8367
29.1253 -25.2084 4.1363 0.8564
29.6879 9.0434 3.3326 0.8826
41.3400 14.2397 4.6951 0.8387
33.7410 14.4171 3.9400 0.8628
31.1206 16.0393 3.7595 0.8686
31.2348 17.5505 3.8472 0.8658
31.2800 19.0904 3.9350 0.8629
31.4449 20.7821 4.0474 0.8593
5.9305 -43.1561 3.6876 0.8396
28.7987 -38.5892 4.0761 0.8242
29.2110 -25.2826 3.2704 0.8563
46.2029 14.0741 4.0886 0.8238
37.2701 14.3600 3.3811 0.8519
33.8431 14.4606 3.1155 0.8627
31.1913 16.0757 2.9705 0.8686
31.2346 17.5504 3.0329 0.8660
31.2798 19.0903 3.1021 0.8632
31.3271 20.7043 3.1788 0.8601
5.9255 -43.1197 2.6990 0.8399
6.9678 -24.1653 1.5595 0.9041
33.8443 14.4612 2.2823 0.8629
31.1496 14.6587 2.1348 0.8711
31.1911 16.0756 2.1759 0.8688
31.3269 20.7042 2.3285 0.8603
5.8550 -42.6066 1.6958 0.8418
43.8316 11.6435 1.7883 0.8340
35.6515 12.2803 1.4868 0.8599
35.6818 13.7480 1.5078 0.8581
33.7404 14.4168 1.4468 0.8634
31.1494 14.6586 1.3575 0.8713
31.1201 16.0390 1.3805 0.8692
31.4443 20.7818 1.4862 0.8599
6.0267 -24.1369 0.4202 0.9053
28.6541 -24.8006 0.6401 0.8593
33.4011 10.1745 0.5898 0.8696
35.8245 12.3398 0.6400 0.8593
33.7402 14.4167 0.6198 0.8635
31.1492 14.6585 0.5815 0.8713
29.2646 15.0827 0.5561 0.8766
29.3052 16.4662 0.5678 0.8742
29.3475 17.9111 0.5808 0.8715
-2.6677 -17.4437 -0.0994 0.9318
-1.3929 -17.4445 -0.0985 0.9324
-0.1326 -17.4513 -0.0983 0.9326
0.4965 -17.4518 -0.0983 0.9325
1.7604 -17.4527 -0.0988 0.9322
2.3984 -17.4532 -0.0992 0.9320
5.0714 -17.5886 -0.1031 0.9294
27.8158 -37.2721 -0.2618 0.8302
27.9000 -34.7024 -0.2507 0.8368
27.9802 -32.3428 -0.2408 0.8428
28.1178 -28.1244 -0.2239 0.8529
28.5881 -22.9952 -0.2066 0.8635
39.3730 -23.2407 -0.2574 0.8329
42.9693 -23.3179 -0.2752 0.8224
33.8480 14.4628 -0.2072 0.8631
29.2644 15.0826 -0.1854 0.8766
29.3918 19.4252 -0.1984 0.8686
-2.0276 -17.4441 -0.4945 0.9321
-1.3928 -17.4445 -0.4928 0.9324
-0.1326 -17.4512 -0.4914 0.9325
0.4965 -17.4517 -0.4916 0.9325
1.7604 -17.4526 -0.4939 0.9322
2.3984 -17.4531 -0.4961 0.9319
3.0429 -17.4536 -0.4989 0.9316
3.6955 -17.4541 -0.5024 0.9311
27.7267 -40.0892 -1.3725 0.8228
27.9001 -34.7025 -1.2538 0.8368
27.9790 -32.3414 -1.2041 0.8427
28.1815 -26.2261 -1.0840 0.8572
28.2409 -24.4430 -1.0517 0.8612
36.1611 -23.1411 -1.2089 0.8422
42.9702 -23.3184 -1.3766 0.8223
44.0354 11.6976 -1.2829 0.8333
33.3479 10.1583 -0.9816 0.8698
35.5677 12.2514 -1.0593 0.8602
33.8493 14.4633 -1.0365 0.8630
31.1488 14.6583 -0.9693 0.8713
29.2642 15.0825 -0.9270 0.8766
29.3048 16.4660 -0.9465 0.8741
29.3471 17.9108 -0.9681 0.8715
29.3916 19.4251 -0.9920 0.8685
-2.6677 -17.4438 -0.8949 0.9318
-0.1326 -17.4511 -0.8850 0.9325
1.7603 -17.4525 -0.8896 0.9322
2.3984 -17.4530 -0.8934 0.9319
3.0428 -17.4535 -0.8985 0.9315
5.0712 -17.5879 -0.9283 0.9293
25.8283 -40.3807 -2.4310 0.8253
27.9002 -34.7026 -2.2582 0.8367
20.2782 -23.4399 -1.5718 0.8833
28.1818 -26.2265 -1.9524 0.8571
28.5852 -22.9928 -1.8604 0.8634
33.3151 -23.0529 -2.0546 0.8502
36.1610 -23.1411 -2.1772 0.8420
42.6094 -19.2902 -2.3720 0.8292
43.2385 -17.7266 -2.3699 0.8293
43.8291 -16.1498 -2.3689 0.8294
46.9816 -15.4126 -2.5076 0.8203
47.7507 -13.7803 -2.5205 0.8195
48.1952 -12.0455 -2.5194 0.8196
48.5763 -10.2965 -2.5182 0.8197
48.8934 -8.5356 -2.5171 0.8197
49.3349 -4.9876 -2.5147 0.8199
49.4591 -3.2052 -2.5135 0.8200
49.5182 -1.4203 -2.5123 0.8200
49.4431 2.1474 -2.5098 0.8202
49.1108 5.6969 -2.5073 0.8204
45.5663 8.6483 -2.3521 0.8305
44.4803 10.1152 -2.3134 0.8330
41.1611 10.9341 -2.1598 0.8432
35.5048 12.2297 -1.9044 0.8604
35.5478 13.6963 -1.9320 0.8585
33.7396 14.4164 -1.8607 0.8633
29.2640 15.0824 -1.6696 0.8765
29.3470 17.9107 -1.7436 0.8714
-2.6677 -17.4438 -1.2939 0.9317
1.7603 -17.4524 -1.2861 0.9321
2.3984 -17.4529 -1.2917 0.9318
3.0428 -17.4534 -1.2990 0.9314
11.9015 -32.3228 -2.5255 0.8710
9.4430 -23.0483 -1.8263 0.9049
14.1976 -31.3798 -2.5254 0.8710
11.4704 -23.0979 -1.8909 0.9017
16.4187 -30.2724 -2.5251 0.8710
18.5532 -29.0066 -2.5247 0.8710
19.5843 -28.3164 -2.5244 0.8710
17.3393 -23.2340 -2.1257 0.8902
20.1761 -23.3219 -2.2611 0.8837
22.0181 -23.6708 -2.3704 0.8784
25.1822 -23.4349 -2.5223 0.8711
26.3289 -21.1779 -2.4775 0.8733
26.3820 -19.6981 -2.4141 0.8763
26.6452 -18.4376 -2.3758 0.8781
27.1982 -17.4053 -2.3676 0.8785
27.9918 -16.5227 -2.3833 0.8778
29.0743 -15.7776 -2.4254 0.8758
30.7522 -15.2803 -2.5178 0.8713
31.7558 -13.0190 -2.5165 0.8714
32.5925 -10.6922 -2.5151 0.8715
33.2581 -8.3122 -2.5136 0.8715
33.5257 -7.1063 -2.5128 0.8716
33.7493 -5.8918 -2.5120 0.8716
34.0640 -3.4437 -2.5104 0.8717
34.1546 -2.2134 -2.5095 0.8717
34.2008 -0.9809 -2.5087 0.8718
34.1592 1.4836 -2.5070 0.8719
33.9402 3.9371 -2.5053 0.8719
33.5448 6.3667 -2.5035 0.8720
28.9673 11.1609 -2.2761 0.8829
25.2564 16.6921 -2.2198 0.8857
-2.6677 -17.4438 -1.6942 0.9315
-2.0276 -17.4443 -1.6860 0.9319
-0.7617 -17.4451 -1.6764 0.9322
-0.1325 -17.4509 -1.6754 0.9323
0.4965 -17.4513 -1.6761 0.9322
2.3984 -17.4528 -1.6913 0.9317
8.5316 -23.1705 -2.3705 0.9055
10.1591 -22.4539 -2.3661 0.9057
11.6719 -23.5037 -2.5194 0.8999
13.3329 -22.5997 -2.5191 0.8999
14.1376 -22.1032 -2.5190 0.8999
14.9237 -21.5777 -2.5188 0.8999
16.4359 -20.4432 -2.5183 0.9000
17.1601 -19.8356 -2.5180 0.9000
17.8616 -19.2023 -2.5178 0.9000
18.5397 -18.5440 -2.5174 0.9000
19.1933 -17.8615 -2.5171 0.9000
19.8216 -17.1560 -2.5168 0.9000
20.4239 -16.4282 -2.5164 0.9000
20.9993 -15.6792 -2.5160 0.9000
21.5471 -14.9099 -2.5156 0.9001
22.5570 -13.3147 -2.5147 0.9001
23.0178 -12.4910 -2.5142 0.9001
23.4484 -11.6512 -2.5137 0.9001
24.5681 -9.0527 -2.5137 0.9001
24.8725 -8.1596 -2.5131 0.9002
25.1445 -7.2564 -2.5125 0.9002
25.5895 -5.4241 -2.5113 0.9002
26.0782 -1.6900 -2.5089 0.9003
26.1197 0.1924 -2.5077 0.9004
26.0896 1.1331 -2.5071 0.9004
25.8752 3.9510 -2.5129 0.9002
25.1832 7.6712 -2.5274 0.8996
25.0184 8.6177 -2.5404 0.8991
24.7632 11.6532 -2.6275 0.8959
24.3376 12.5434 -2.6286 0.8958
22.6830 13.8436 -2.5512 0.8987
-2.6677 -17.4439 -2.0962 0.9314
-1.3929 -17.4447 -2.0788 0.9319
0.4965 -17.4513 -2.0738 0.9321
1.7603 -17.4522 -2.0836 0.9318
2.3984 -17.4527 -2.0926 0.9315
3.6954 -17.4537 -2.1192 0.9307
5.0709 -17.5868 -2.1742 0.9289
6.8881 -18.7070 -2.3680 0.9228
7.5576 -18.4464 -2.3679 0.9228
8.2122 -18.1510 -2.3665 0.9229
12.0449 -17.4153 -2.5153 0.9182
12.6637 -16.9688 -2.5151 0.9182
13.8506 -16.0102 -2.5147 0.9183
14.4172 -15.4993 -2.5145 0.9183
14.9649 -14.9682 -2.5142 0.9183
15.4928 -14.4178 -2.5139 0.9183
16.4871 -13.2616 -2.5134 0.9183
17.8148 -11.4005 -2.5124 0.9183
18.5840 -10.0849 -2.5116 0.9184
18.9324 -9.4072 -2.5112 0.9184
19.2560 -8.7176 -2.5108 0.9184
19.8270 -7.3057 -2.5100 0.9184
20.0738 -6.5854 -2.5095 0.9184
20.2947 -5.8571 -2.5091 0.9184
20.9332 -2.8816 -2.5100 0.9184
21.0194 -2.1250 -2.5095 0.9184
21.0782 -1.3660 -2.5090 0.9184
21.1097 -0.6055 -2.5086 0.9185
21.0396 1.6750 -2.5071 0.9185
20.9617 2.4316 -2.5066 0.9185
20.7243 3.9334 -2.5057 0.9185
20.5654 4.6767 -2.5052 0.9186
20.4731 5.4385 -2.5163 0.9182
20.2868 6.1797 -2.5191 0.9181
19.8331 7.6415 -2.5247 0.9179
19.3858 9.9913 -2.5906 0.9159
-2.5170 -16.4582 -2.3591 0.9349
-1.3254 -16.5992 -2.3594 0.9349
1.0733 -16.6212 -2.3599 0.9349
2.2677 -16.5020 -2.3601 0.9349
2.8609 -16.4100 -2.3602 0.9349
4.0354 -16.1620 -2.3603 0.9349
4.6152 -16.0062 -2.3603 0.9349
5.1889 -15.8295 -2.3603 0.9349
5.7559 -15.6321 -2.3603 0.9349
6.3153 -15.4144 -2.3602 0.9349
6.9645 -15.3930 -2.3939 0.9340
7.7853 -15.6773 -2.4801 0.9317
8.4566 -15.5920 -2.5132 0.9308
11.6012 -13.4100 -2.5124 0.9309
12.0759 -12.9823 -2.5122 0.9309
12.9773 -12.0769 -2.5118 0.9309
13.8107 -11.1087 -2.5113 0.9309
14.5717 -10.0831 -2.5107 0.9309
15.2564 -9.0054 -2.5102 0.9309
15.5690 -8.4487 -2.5098 0.9309
16.6121 -6.1211 -2.5085 0.9310
17.4266 -3.0423 -2.5065 0.9310
17.6718 -1.1452 -2.5092 0.9310
17.6987 -0.5076 -2.5087 0.9310
17.6836 0.7680 -2.5079 0.9310
16.9137 5.1522 -2.5052 0.9311
16.5446 6.3744 -2.5122 0.9309
16.1097 7.5811 -2.5227 0.9306
15.5999 8.7655 -2.5354 0.9303
15.2134 10.0547 -2.5838 0.9290
-2.3038 -15.0644 -2.5105 0.9401
0.4329 -15.2155 -2.5076 0.9402
1.5299 -15.1680 -2.5114 0.9401
2.0755 -15.1035 -2.5115 0.9401
2.6184 -15.0193 -2.5116 0.9401
3.6934 -14.7921 -2.5117 0.9401
4.7491 -14.4879 -2.5117 0.9401
5.2680 -14.3072 -2.5117 0.9401
5.7801 -14.1080 -2.5116 0.9401
7.2682 -13.4010 -2.5115 0.9401
7.7461 -13.1299 -2.5114 0.9401
8.6709 -12.5369 -2.5112 0.9401
9.5502 -11.8787 -2.5109 0.9401
9.9714 -11.5261 -2.5108 0.9401
10.3796 -11.1586 -2.5106 0.9401
10.7741 -10.7766 -2.5104 0.9401
11.1546 -10.3806 -2.5102 0.9401
11.5205 -9.9711 -2.5100 0.9401
12.2065 -9.1140 -2.5096 0.9401
12.5258 -8.6674 -2.5093 0.9401
12.8287 -8.2097 -2.5091 0.9401
13.1148 -7.7413 -2.5088 0.9401
13.3837 -7.2629 -2.5085 0.9401
13.8689 -6.2787 -2.5080 0.9401
14.2815 -5.2623 -2.5074 0.9402
14.7602 -3.6891 -2.5064 0.9402
14.8815 -3.1544 -2.5060 0.9402
14.9834 -2.6158 -2.5057 0.9402
15.1285 -1.5294 -2.5050 0.9402
15.1949 -0.4358 -2.5042 0.9402
15.1985 0.1120 -2.5038 0.9402
15.1939 0.6599 -2.5054 0.9402
15.1751 1.2081 -2.5078 0.9402
15.0446 2.2973 -2.5072 0.9402
14.9500 2.8374 -2.5068 0.9402
14.5508 4.4324 -2.5058 0.9402
13.7563 6.4736 -2.5046 0.9402
13.3240 7.4866 -2.5178 0.9399
13.0718 7.9778 -2.5228 0.9398
12.7846 8.4494 -2.5245 0.9398
-1.5415 -13.2617 -2.5095 0.9471
-1.0627 -13.3094 -2.5096 0.9471
-0.1014 -13.3526 -2.5098 0.9471
0.8606 -13.3262 -2.5100 0.9471
1.3402 -13.2870 -2.5101 0.9471
1.8181 -13.2304 -2.5102 0.9471
3.2354 -12.9576 -2.5103 0.9471
3.7001 -12.8327 -2.5103 0.9471
4.6147 -12.5328 -2.5103 0.9471
5.5052 -12.1677 -2.5102 0.9471
5.9399 -11.9612 -2.5102 0.9471
6.7855 -11.5017 -2.5100 0.9471
7.1953 -11.2494 -2.5100 0.9471
7.5957 -10.9824 -2.5099 0.9471
7.9861 -10.7011 -2.5098 0.9471
8.3661 -10.4058 -2.5096 0.9471
8.7352 -10.0971 -2.5095 0.9471
9.0928 -9.7753 -2.5094 0.9471
9.4385 -9.4407 -2.5092 0.9471
10.0925 -8.7352 -2.5089 0.9471
10.3999 -8.3653 -2.5087 0.9471
10.6937 -7.9845 -2.5085 0.9471
10.9735 -7.5933 -2.5083 0.9471
11.7257 -6.3631 -2.5076 0.9471
12.1510 -5.5010 -2.5071 0.9472
12.3400 -5.0591 -2.5068 0.9472
12.5130 -4.6107 -2.5065 0.9472
12.6695 -4.1563 -2.5062 0.9472
12.8096 -3.6967 -2.5060 0.9472
12.9330 -3.2324 -2.5057 0.9472
13.0395 -2.7639 -2.5054 0.9472
13.2567 -1.3402 -2.5044 0.9472
13.3153 -0.3819 -2.5038 0.9472
13.3187 0.0981 -2.5035 0.9472
13.3047 0.5779 -2.5031 0.9472
13.2734 1.0568 -2.5028 0.9472
13.2249 1.5341 -2.5024 0.9473
12.9778 2.9512 -2.5016 0.9473
12.0598 5.6753 -2.5052 0.9472
11.6174 6.5277 -2.5047 0.9472
11.3736 6.9413 -2.5045 0.9472
11.1150 7.3460 -2.5042 0.9472
-1.7939 -11.7302 -2.5084 0.9526
-1.3702 -11.7879 -2.5085 0.9526
-0.0902 -11.8685 -2.5088 0.9526
0.3376 -11.8644 -2.5089 0.9526
0.7649 -11.8449 -2.5090 0.9526
1.1912 -11.8100 -2.5091 0.9526
2.0387 -11.6940 -2.5092 0.9526
2.8757 -11.5171 -2.5092 0.9526
3.2888 -11.4061 -2.5092 0.9526
3.6977 -11.2801 -2.5092 0.9526
4.5003 -10.9844 -2.5092 0.9526
4.8932 -10.8150 -2.5092 0.9526
5.2796 -10.6315 -2.5091 0.9526
5.6591 -10.4341 -2.5091 0.9526
6.3955 -9.9989 -2.5089 0.9526
6.7514 -9.7616 -2.5088 0.9526
7.0985 -9.5116 -2.5087 0.9526
7.4362 -9.2493 -2.5086 0.9526
7.7643 -8.9749 -2.5085 0.9526
8.0823 -8.6889 -2.5084 0.9526
8.6860 -8.0833 -2.5081 0.9526
9.7545 -6.7498 -2.5074 0.9527
9.9906 -6.3934 -2.5072 0.9527
10.4234 -5.6564 -2.5068 0.9527
10.6195 -5.2767 -2.5066 0.9527
11.1237 -4.0988 -2.5059 0.9527
11.2631 -3.6949 -2.5056 0.9527
11.3877 -3.2864 -2.5054 0.9527
11.4976 -2.8736 -2.5051 0.9527
11.6721 -2.0377 -2.5046 0.9527
11.7367 -1.6156 -2.5043 0.9527
11.8199 -0.7660 -2.5037 0.9527
11.8384 -0.3396 -2.5034 0.9527
11.8416 0.0872 -2.5031 0.9527
11.7588 1.3640 -2.5022 0.9528
11.4353 3.0377 -2.5010 0.9528
11.3170 3.4473 -2.5007 0.9528
11.1840 3.8524 -2.5004 0.9528
10.5094 5.4164 -2.4992 0.9528
10.3062 5.7909 -2.4989 0.9528
9.8600 6.5166 -2.4983 0.9528
-1.6129 -10.5469 -2.5076 0.9571
-1.2319 -10.5987 -2.5077 0.9571
-0.8493 -10.6366 -2.5078 0.9571
-0.4655 -10.6608 -2.5079 0.9571
-0.0810 -10.6710 -2.5080 0.9571
0.3035 -10.6673 -2.5081 0.9571
2.2107 -10.4412 -2.5083 0.9571
2.5855 -10.3549 -2.5083 0.9571
2.9569 -10.2551 -2.5084 0.9571
4.0462 -9.8760 -2.5083 0.9571
4.7468 -9.5587 -2.5083 0.9571
5.0881 -9.3813 -2.5082 0.9571
5.7502 -8.9900 -2.5081 0.9571
6.0702 -8.7767 -2.5080 0.9571
6.3823 -8.5520 -2.5079 0.9571
6.9810 -8.0695 -2.5077 0.9571
7.5433 -7.5451 -2.5075 0.9571
8.0662 -6.9814 -2.5072 0.9571
8.3120 -6.6859 -2.5071 0.9571
8.7708 -6.0691 -2.5067 0.9571
9.1838 -5.4209 -2.5064 0.9571
9.3725 -5.0861 -2.5062 0.9571
9.7129 -4.3972 -2.5058 0.9571
9.8642 -4.0440 -2.5056 0.9571
10.0026 -3.6857 -2.5053 0.9571
10.1280 -3.3226 -2.5051 0.9571
10.3391 -2.5841 -2.5047 0.9572
10.4245 -2.2096 -2.5044 0.9572
10.4963 -1.8324 -2.5042 0.9572
4.2183 -0.5807 -1.0007 0.9827
4.1145 -0.1180 -0.9674 0.9832
4.1187 0.1789 -0.9689 0.9832
10.5230 1.6068 -2.5018 0.9572
10.4571 1.9847 -2.5015 0.9572
10.3776 2.3599 -2.5013 0.9572
10.1785 3.1005 -2.5007 0.9572
10.0590 3.4648 -2.5004 0.9572
9.6232 4.5286 -2.4996 0.9572
9.2701 5.2087 -2.4990 0.9572
9.0754 5.5388 -2.4988 0.9573
8.8690 5.8615 -2.4985 0.9573
-1.1179 -9.6180 -2.5070 0.9608
-0.7707 -9.6524 -2.5071 0.9608
-0.4224 -9.6743 -2.5072 0.9608
0.2754 -9.6802 -2.5074 0.9608
2.3462 -9.3966 -2.5076 0.9608
3.6718 -8.9620 -2.5076 0.9608
4.6172 -8.5131 -2.5075 0.9608
5.5085 -7.9646 -2.5073 0.9608
6.3351 -7.3229 -2.5071 0.9608
6.5946 -7.0896 -2.5070 0.9608
6.8454 -6.8470 -2.5068 0.9608
7.5432 -6.0674 -2.5065 0.9608
8.1524 -5.2171 -2.5060 0.9608
9.1918 -3.0154 -2.5047 0.9608
9.2937 -2.6821 -2.5045 0.9608
9.3835 -2.3453 -2.5043 0.9608
3.7228 -0.3763 -0.9688 0.9847
3.7283 -0.1070 -0.9657 0.9847
3.7307 0.0275 -0.9660 0.9847
3.7297 0.1620 -0.9666 0.9847
3.8126 0.3035 -0.9903 0.9843
9.5987 1.1134 -2.5019 0.9609
9.3355 2.4799 -2.5009 0.9609
9.2391 2.8143 -2.5007 0.9609
9.0106 3.4717 -2.5002 0.9609
8.7355 4.1108 -2.4997 0.9609
8.5808 4.4225 -2.4994 0.9609
8.4151 4.7283 -2.4992 0.9609
8.2384 5.0280 -2.4990 0.9609
8.0511 5.3210 -2.4987 0.9609
-0.7047 -8.8262 -2.5066 0.9639
-0.3862 -8.8462 -2.5067 0.9639
0.2518 -8.8515 -2.5068 0.9639
0.8887 -8.8108 -2.5069 0.9639
1.2056 -8.7732 -2.5070 0.9639
1.5210 -8.7242 -2.5070 0.9639
1.8343 -8.6638 -2.5070 0.9639
2.4536 -8.5092 -2.5070 0.9639
3.0600 -8.3104 -2.5070 0.9639
3.6505 -8.0684 -2.5070 0.9639
3.9388 -7.9315 -2.5070 0.9639
4.4996 -7.6270 -2.5069 0.9639
4.7714 -7.4597 -2.5068 0.9639
5.0369 -7.2828 -2.5068 0.9639
5.2959 -7.0964 -2.5067 0.9639
5.5480 -6.9007 -2.5066 0.9639
5.7929 -6.6961 -2.5065 0.9639
6.0301 -6.4828 -2.5064 0.9639
6.4808 -6.0311 -2.5062 0.9639
6.8976 -5.5482 -2.5060 0.9639
7.0927 -5.2958 -2.5058 0.9639
7.2785 -5.0365 -2.5057 0.9639
7.4548 -4.7707 -2.5055 0.9639
7.6214 -4.4987 -2.5054 0.9639
7.7781 -4.2209 -2.5052 0.9639
7.9246 -3.9376 -2.5051 0.9639
8.0608 -3.6493 -2.5049 0.9639
8.1865 -3.3562 -2.5047 0.9639
8.4057 -2.7575 -2.5044 0.9639
8.4989 -2.4527 -2.5042 0.9639
3.5536 -0.6204 -1.0212 0.9851
3.4676 0.1506 -0.9826 0.9857
8.6809 1.6476 -2.5014 0.9639
8.6151 1.9591 -2.5011 0.9639
8.5382 2.2681 -2.5009 0.9639
8.4501 2.5740 -2.5007 0.9639
8.3511 2.8766 -2.5005 0.9639
8.2413 3.1752 -2.5002 0.9640
8.1208 3.4698 -2.5000 0.9640
7.9897 3.7599 -2.4998 0.9640
7.8484 4.0450 -2.4995 0.9640
7.6968 4.3247 -2.4993 0.9640
7.5353 4.5988 -2.4991 0.9640
-1.2317 -8.0537 -2.5059 0.9665
-0.9407 -8.0932 -2.5060 0.9665
-0.6485 -8.1221 -2.5061 0.9665
-0.3554 -8.1404 -2.5062 0.9665
-0.0619 -8.1481 -2.5063 0.9665
0.8178 -8.1078 -2.5064 0.9665
1.1094 -8.0731 -2.5065 0.9665
1.3996 -8.0280 -2.5065 0.9665
1.9742 -7.9065 -2.5065 0.9665
2.2578 -7.8303 -2.5065 0.9665
2.5384 -7.7438 -2.5065 0.9665
2.8158 -7.6473 -2.5065 0.9665
3.0895 -7.5409 -2.5065 0.9665
3.3592 -7.4246 -2.5065 0.9665
4.1406 -7.0184 -2.5064 0.9665
4.8734 -6.5302 -2.5062 0.9665
5.3307 -6.1619 -2.5060 0.9665
5.9638 -5.5501 -2.5058 0.9665
6.1596 -5.3313 -2.5057 0.9665
6.3475 -5.1056 -2.5055 0.9665
6.6980 -4.6348 -2.5053 0.9665
7.4181 -3.3583 -2.5046 0.9665
7.6397 -2.8150 -2.5042 0.9665
7.8215 -2.2572 -2.5039 0.9665
7.8972 -1.9738 -2.5037 0.9665
3.3189 -0.5794 -1.0363 0.9860
3.2673 -0.4497 -1.0144 0.9863
3.2762 -0.2123 -1.0098 0.9864
3.2802 0.0241 -1.0089 0.9864
3.3141 0.2638 -1.0226 0.9862
3.3841 0.3926 -1.0479 0.9858
8.0398 1.2277 -2.5015 0.9665
7.8584 2.0875 -2.5009 0.9665
7.5853 2.9226 -2.5003 0.9666
7.4745 3.1937 -2.5001 0.9666
6.9358 4.2329 -2.4992 0.9666
6.7782 4.4797 -2.4990 0.9666
-1.1395 -7.4510 -2.5055 0.9687
-0.0573 -7.5383 -2.5058 0.9687
0.2144 -7.5356 -2.5059 0.9687
0.7566 -7.5009 -2.5060 0.9687
1.0264 -7.4689 -2.5060 0.9687
1.2948 -7.4271 -2.5060 0.9687
1.8264 -7.3147 -2.5061 0.9687
2.0888 -7.2442 -2.5061 0.9687
2.6050 -7.0749 -2.5061 0.9687
2.8583 -6.9764 -2.5061 0.9687
3.5943 -6.6270 -2.5060 0.9687
3.8307 -6.4931 -2.5060 0.9687
4.0621 -6.3508 -2.5059 0.9687
4.2882 -6.2001 -2.5058 0.9687
4.7233 -5.8749 -2.5057 0.9687
4.9318 -5.7007 -2.5056 0.9687
5.3291 -5.3304 -2.5055 0.9687
5.6987 -4.9323 -2.5053 0.9687
5.8725 -4.7236 -2.5052 0.9687
6.0386 -4.5087 -2.5051 0.9687
6.3470 -4.0618 -2.5048 0.9687
6.4889 -3.8303 -2.5047 0.9687
6.6224 -3.5937 -2.5046 0.9687
6.8632 -3.1071 -2.5043 0.9687
6.9703 -2.8577 -2.5041 0.9687
7.1571 -2.3480 -2.5038 0.9687
7.2366 -2.0884 -2.5036 0.9688
3.1876 -0.6756 -1.0831 0.9864
3.1360 -0.5475 -1.0582 0.9867
3.1218 -0.2023 -1.0399 0.9869
3.1237 -0.0896 -1.0388 0.9869
3.1245 0.0230 -1.0386 0.9869
3.1947 0.3706 -1.0691 0.9865
7.4391 1.1359 -2.5015 0.9688
7.3928 1.4031 -2.5013 0.9688
7.0189 2.7043 -2.5003 0.9688
6.5555 3.6835 -2.4995 0.9688
6.4180 3.9170 -2.4993 0.9688
-0.8088 -6.9588 -2.5053 0.9707
-0.5576 -6.9837 -2.5053 0.9707
-0.3056 -6.9994 -2.5054 0.9707
-0.0532 -7.0060 -2.5055 0.9707
0.4515 -6.9919 -2.5056 0.9707
0.7032 -6.9713 -2.5056 0.9707
1.4514 -6.8549 -2.5057 0.9707
1.6974 -6.7982 -2.5057 0.9707
1.9413 -6.7326 -2.5057 0.9707
2.4211 -6.5753 -2.5057 0.9707
2.6564 -6.4838 -2.5057 0.9707
2.8883 -6.3838 -2.5057 0.9707
3.3405 -6.1591 -2.5056 0.9707
3.5602 -6.0346 -2.5056 0.9707
4.1903 -5.6149 -2.5054 0.9707
4.5836 -5.2982 -2.5053 0.9707
4.7713 -5.1295 -2.5052 0.9707
4.9529 -4.9541 -2.5051 0.9707
5.1280 -4.7722 -2.5050 0.9707
5.2964 -4.5842 -2.5050 0.9707
5.7595 -3.9854 -2.5046 0.9707
6.0310 -3.5599 -2.5044 0.9707
6.3789 -2.8879 -2.5040 0.9707
6.4785 -2.6560 -2.5039 0.9707
6.5696 -2.4207 -2.5037 0.9707
6.7260 -1.9411 -2.5034 0.9707
6.7912 -1.6974 -2.5033 0.9707
3.0368 -0.6437 -1.1101 0.9869
2.9930 -0.5225 -1.0865 0.9872
2.9868 -0.4112 -1.0782 0.9873
2.9927 -0.3026 -1.0757 0.9873
2.9970 -0.1942 -1.0740 0.9873
6.9147 1.0558 -2.5014 0.9707
6.8197 1.5509 -2.5010 0.9707
6.7589 1.7954 -2.5009 0.9707
6.5243 2.5137 -2.5003 0.9707
6.4290 2.7470 -2.5001 0.9707
6.3254 2.9767 -2.5000 0.9707
6.2136 3.2024 -2.4998 0.9707
6.0937 3.4240 -2.4996 0.9707
5.9660 3.6411 -2.4994 0.9707
5.8305 3.8534 -2.4992 0.9707
-0.7547 -6.4929 -2.5050 0.9724
-0.2851 -6.5308 -2.5051 0.9724
-0.0497 -6.5370 -2.5051 0.9724
0.4213 -6.5238 -2.5052 0.9724
0.6561 -6.5045 -2.5053 0.9724
0.8900 -6.4767 -2.5053 0.9724
1.1228 -6.4405 -2.5053 0.9724
1.8113 -6.2818 -2.5054 0.9724
2.6949 -5.9564 -2.5053 0.9724
2.9078 -5.8554 -2.5053 0.9724
3.1168 -5.7467 -2.5053 0.9724
3.3218 -5.6306 -2.5052 0.9724
4.0959 -5.0946 -2.5050 0.9724
4.2767 -4.9435 -2.5050 0.9724
4.4519 -4.7861 -2.5049 0.9724
4.6213 -4.6224 -2.5048 0.9724
4.7847 -4.4528 -2.5047 0.9724
4.9419 -4.2773 -2.5047 0.9724
5.0926 -4.0963 -2.5046 0.9724
5.2367 -3.9100 -2.5045 0.9724
5.8514 -2.9075 -2.5039 0.9724
6.2761 -1.8112 -2.5032 0.9724
2.8605 -0.4994 -1.1128 0.9876
2.8757 -0.2907 -1.1076 0.9877
2.8821 -0.0827 -1.1049 0.9877
2.8817 0.0212 -1.1043 0.9877
2.8792 0.1250 -1.1044 0.9877
2.8793 0.2292 -1.1069 0.9877
2.9183 0.3385 -1.1258 0.9875
6.3639 1.4472 -2.5010 0.9724
5.6866 3.1952 -2.4997 0.9724
5.4410 3.5960 -2.4993 0.9724
-0.0465 -6.1201 -2.5049 0.9739
0.3944 -6.1078 -2.5049 0.9739
0.6142 -6.0896 -2.5050 0.9739
1.2678 -5.9880 -2.5050 0.9739
1.6958 -5.8812 -2.5051 0.9739
2.5230 -5.5765 -2.5050 0.9739
2.9180 -5.3802 -2.5050 0.9739
3.1099 -5.2715 -2.5050 0.9739
3.2978 -5.1559 -2.5049 0.9739
3.6604 -4.9048 -2.5048 0.9739
3.8347 -4.7696 -2.5048 0.9739
4.1680 -4.4809 -2.5046 0.9739
4.3267 -4.3277 -2.5046 0.9739
4.4797 -4.1688 -2.5045 0.9739
4.6268 -4.0046 -2.5044 0.9739
4.9028 -3.6607 -2.5042 0.9739
5.1533 -3.2979 -2.5040 0.9739
5.2686 -3.1099 -2.5039 0.9739
5.3770 -2.9179 -2.5038 0.9739
5.6597 -2.3203 -2.5035 0.9739
5.7393 -2.1148 -2.5033 0.9739
5.8115 -1.9065 -2.5032 0.9739
2.7999 -0.6998 -1.1812 0.9876
2.7680 -0.4832 -1.1500 0.9879
2.7613 -0.3801 -1.1408 0.9880
2.7701 -0.1795 -1.1361 0.9881
2.7727 0.0204 -1.1348 0.9881
2.7712 0.1204 -1.1353 0.9881
2.7795 0.2213 -1.1412 0.9880
2.7982 0.3246 -1.1529 0.9879
2.8278 0.4318 -1.1707 0.9877
5.9587 1.3550 -2.5010 0.9739
5.9056 1.5688 -2.5008 0.9739
5.7766 1.9897 -2.5005 0.9739
5.7007 2.1964 -2.5004 0.9739
5.5271 2.6010 -2.5000 0.9739
5.4294 2.7982 -2.4999 0.9739
5.2131 3.1816 -2.4996 0.9739
5.0948 3.3672 -2.4994 0.9740
-0.6635 -5.7081 -2.5044 0.9752
-0.4574 -5.7285 -2.5045 0.9752
-0.0436 -5.7468 -2.5046 0.9752
0.3703 -5.7352 -2.5047 0.9752
0.7824 -5.6937 -2.5047 0.9752
0.9871 -5.6619 -2.5048 0.9752
1.5923 -5.5224 -2.5048 0.9752
1.9859 -5.3934 -2.5048 0.9752
2.1789 -5.3183 -2.5048 0.9752
2.3691 -5.2363 -2.5048 0.9752
2.5563 -5.1475 -2.5047 0.9752
2.9202 -4.9499 -2.5047 0.9752
3.0967 -4.8414 -2.5047 0.9752
3.4372 -4.6057 -2.5046 0.9752
3.6008 -4.4787 -2.5045 0.9752
3.7598 -4.3460 -2.5045 0.9752
3.9138 -4.2076 -2.5044 0.9752
4.6039 -3.4375 -2.5040 0.9752
4.7245 -3.2692 -2.5039 0.9752
4.9473 -2.9203 -2.5037 0.9752
5.0492 -2.7400 -2.5036 0.9752
5.1444 -2.5562 -2.5035 0.9752
5.2329 -2.3690 -2.5034 0.9752
5.3146 -2.1788 -2.5033 0.9752
5.3894 -1.9859 -2.5032 0.9752
5.5179 -1.5924 -2.5029 0.9753
2.6890 -0.6721 -1.2080 0.9880
2.6818 -0.4682 -1.1864 0.9882
2.6805 -0.3690 -1.1792 0.9883
2.6861 -0.2716 -1.1766 0.9883
2.6900 -0.1743 -1.1748 0.9883
2.6911 -0.0772 -1.1733 0.9883
2.6900 0.0198 -1.1724 0.9883
2.6886 0.1168 -1.1729 0.9883
2.6964 0.3128 -1.1830 0.9882
5.6383 1.0701 -2.5011 0.9753
5.5957 1.2725 -2.5010 0.9753
5.5459 1.4732 -2.5008 0.9753
5.4248 1.8685 -2.5005 0.9753
5.0989 2.6279 -2.4999 0.9753
5.0005 2.8097 -2.4998 0.9753
-0.8178 -5.3477 -2.5042 0.9764
-0.6246 -5.3738 -2.5042 0.9764
-0.4306 -5.3930 -2.5043 0.9764
-0.0411 -5.4102 -2.5044 0.9764
0.5430 -5.3833 -2.5045 0.9764
0.7366 -5.3603 -2.5045 0.9764
1.4991 -5.1990 -2.5046 0.9764
2.0513 -5.0068 -2.5045 0.9764
2.2304 -4.9296 -2.5045 0.9764
2.9153 -4.5579 -2.5044 0.9764
3.5396 -4.0915 -2.5042 0.9764
4.0902 -3.5401 -2.5040 0.9764
4.2150 -3.3904 -2.5039 0.9764
4.3343 -3.2362 -2.5038 0.9764
4.5558 -2.9154 -2.5036 0.9764
4.6577 -2.7493 -2.5035 0.9764
4.7536 -2.5796 -2.5034 0.9764
4.8432 -2.4065 -2.5033 0.9764
5.0740 -1.8696 -2.5030 0.9764
5.1378 -1.6855 -2.5029 0.9764
2.6194 -0.6547 -1.2498 0.9882
2.6115 -0.5536 -1.2357 0.9883
2.6105 -0.4557 -1.2266 0.9884
2.6165 -0.1696 -1.2137 0.9885
2.6176 -0.0751 -1.2121 0.9885
2.6139 0.1135 -1.2111 0.9885
2.6142 0.3032 -1.2182 0.9885
2.6306 0.4017 -1.2318 0.9883
5.2685 1.1980 -2.5010 0.9765
5.2216 1.3871 -2.5008 0.9765
5.1679 1.5742 -2.5007 0.9765
5.0406 1.9421 -2.5004 0.9765
4.7082 2.6455 -2.4998 0.9765
-0.7717 -5.0460 -2.5040 0.9775
-0.4063 -5.0887 -2.5041 0.9775
-0.2227 -5.1002 -2.5041 0.9775
0.3290 -5.0946 -2.5042 0.9775
1.0575 -4.9947 -2.5043 0.9775
2.1045 -4.6514 -2.5043 0.9775
2.2707 -4.5726 -2.5043 0.9775
2.5941 -4.3971 -2.5042 0.9775
2.7508 -4.3007 -2.5042 0.9775
2.9039 -4.1987 -2.5042 0.9775
3.1987 -3.9786 -2.5041 0.9775
3.3399 -3.8606 -2.5040 0.9775
3.7367 -3.4774 -2.5038 0.9775
3.8595 -3.3404 -2.5038 0.9775
4.1970 -2.9042 -2.5036 0.9775
4.2988 -2.7510 -2.5035 0.9775
4.3950 -2.5942 -2.5034 0.9775
4.4854 -2.4341 -2.5033 0.9775
4.5701 -2.2708 -2.5032 0.9775
2.5882 -0.4518 -1.2888 0.9884
2.5874 -0.3562 -1.2811 0.9884
2.5858 -0.1676 -1.2711 0.9885
2.5862 -0.0742 -1.2691 0.9885
2.5878 0.0190 -1.2694 0.9885
2.5893 0.1124 -1.2713 0.9885
2.5904 0.3005 -1.2792 0.9884
4.9716 1.1306 -2.5009 0.9775
4.8767 1.4855 -2.5007 0.9775
4.7566 1.8327 -2.5004 0.9775
4.6872 2.0027 -2.5003 0.9775
4.5303 2.3349 -2.5000 0.9775
4.4430 2.4965 -2.4999 0.9776
4.3500 2.6548 -2.4997 0.9776
-0.3842 -4.8112 -2.5039 0.9785
-0.2106 -4.8220 -2.5039 0.9785
0.3111 -4.8168 -2.5040 0.9785
0.4844 -4.8025 -2.5041 0.9785
1.1693 -4.6832 -2.5041 0.9785
1.5036 -4.5869 -2.5041 0.9785
1.9897 -4.3978 -2.5041 0.9785
2.1469 -4.3232 -2.5041 0.9785
2.3012 -4.2430 -2.5041 0.9785
2.4526 -4.1573 -2.5040 0.9785
2.7456 -3.9697 -2.5040 0.9785
3.0242 -3.7616 -2.5039 0.9785
3.2871 -3.5339 -2.5038 0.9785
3.5329 -3.2878 -2.5037 0.9785
3.7603 -3.0247 -2.5035 0.9785
3.8668 -2.8871 -2.5035 0.9785
3.9682 -2.7458 -2.5034 0.9785
4.0644 -2.6010 -2.5033 0.9785
4.1553 -2.4528 -2.5032 0.9785
4.2409 -2.3014 -2.5031 0.9785
4.3209 -2.1470 -2.5031 0.9785
4.5267 -1.6680 -2.5028 0.9785
4.5838 -1.5038 -2.5027 0.9785
2.5595 -0.6397 -1.3686 0.9882
2.5633 -0.5433 -1.3593 0.9883
2.5657 -0.4479 -1.3512 0.9883
2.5651 -0.3531 -1.3433 0.9884
2.5656 -0.2594 -1.3378 0.9884
2.5658 -0.1663 -1.3339 0.9885
2.5672 0.1115 -1.3331 0.9885
2.5685 0.2045 -1.3367 0.9885
2.5660 0.2977 -1.3401 0.9884
2.5685 0.3922 -1.3479 0.9884
2.6140 0.4961 -1.3803 0.9881
4.7008 1.0690 -2.5009 0.9785
4.6590 1.2376 -2.5008 0.9785
4.4975 1.7329 -2.5004 0.9785
4.4320 1.8937 -2.5003 0.9785
4.2011 2.3605 -2.4999 0.9785
4.0198 2.6567 -2.4997 0.9785
-0.6910 -4.5186 -2.5036 0.9794
-0.1994 -4.5670 -2.5038 0.9794
-0.0347 -4.5713 -2.5038 0.9794
0.1300 -4.5697 -2.5038 0.9794
0.4588 -4.5485 -2.5039 0.9794
0.6224 -4.5291 -2.5039 0.9794
1.1075 -4.4355 -2.5039 0.9794
1.4241 -4.3443 -2.5039 0.9794
1.5797 -4.2902 -2.5039 0.9794
1.8845 -4.1653 -2.5039 0.9794
2.3229 -3.9374 -2.5039 0.9794
2.4633 -3.8512 -2.5038 0.9794
2.6004 -3.7598 -2.5038 0.9794
2.7341 -3.6636 -2.5038 0.9794
2.9908 -3.4571 -2.5037 0.9794
3.2319 -3.2326 -2.5036 0.9794
3.4561 -2.9913 -2.5035 0.9794
3.5615 -2.8647 -2.5034 0.9794
3.8495 -2.4635 -2.5032 0.9794
4.0167 -2.1798 -2.5030 0.9794
4.0925 -2.0335 -2.5029 0.9794
4.3416 -1.4243 -2.5026 0.9794
2.5669 -0.7408 -1.4632 0.9879
2.5412 -0.5387 -1.4227 0.9882
2.5452 -0.2573 -1.4011 0.9884
2.5456 -0.1650 -1.3971 0.9884
2.5429 0.2950 -1.4021 0.9884
2.5855 0.4907 -1.4414 0.9881
4.4129 1.1722 -2.5008 0.9794
4.3166 1.4869 -2.5005 0.9794
4.2600 1.6414 -2.5004 0.9794
4.1979 1.7937 -2.5003 0.9794
4.1304 1.9437 -2.5002 0.9794
3.9793 2.2359 -2.5000 0.9794
3.8960 2.3777 -2.4998 0.9794
-0.5006 -4.3072 -2.5035 0.9802
-0.0329 -4.3363 -2.5036 0.9802
0.1233 -4.3347 -2.5037 0.9802
0.7448 -4.2722 -2.5038 0.9802
0.8983 -4.2426 -2.5038 0.9802
1.0506 -4.2075 -2.5038 0.9802
1.2015 -4.1669 -2.5038 0.9802
1.3509 -4.1209 -2.5038 0.9802
1.6441 -4.0129 -2.5038 0.9802
1.7876 -3.9511 -2.5038 0.9802
2.3366 -3.6531 -2.5037 0.9802
2.4667 -3.5665 -2.5036 0.9802
2.5936 -3.4753 -2.5036 0.9802
2.7171 -3.3796 -2.5036 0.9802
2.8370 -3.2794 -2.5035 0.9802
3.0657 -3.0664 -2.5034 0.9802
3.1741 -2.9539 -2.5034 0.9802
3.6517 -2.3369 -2.5030 0.9802
3.7334 -2.2037 -2.5030 0.9802
4.0107 -1.6443 -2.5026 0.9802
2.5239 -0.4406 -1.4792 0.9882
2.5226 -0.3472 -1.4701 0.9883
2.5224 -0.2550 -1.4638 0.9884
2.5251 0.1097 -1.4592 0.9884
2.5607 0.4860 -1.5048 0.9880
4.1433 1.2621 -2.5007 0.9802
4.0950 1.4105 -2.5006 0.9802
4.0413 1.5571 -2.5004 0.9802
3.9824 1.7016 -2.5003 0.9802
3.7750 2.1211 -2.5000 0.9802
