ply
format ascii 1.0
element vertex 1200
property float32 x
property float32 y
property float32 z
property float32 I
end_header
31.1341 22.2290 6.7454 0.8561
31.8490 28.3537 7.5188 0.8410
31.4311 32.2966 7.9464 0.8327
31.5297 34.8073 8.2811 0.8263
6.0317 11.4314 2.2790 0.9489
4.5587 11.4748 2.1771 0.9511
4.0946 11.4885 2.1506 0.9517
3.6411 11.5019 2.1273 0.9522
2.7602 11.5279 2.0901 0.9530
1.4844 11.5655 2.0560 0.9537
0.6506 11.5900 2.0469 0.9539
0.2354 11.6023 2.0462 0.9540
-0.1800 11.6145 2.0482 0.9539
-0.5968 11.6268 2.0528 0.9538
-1.4387 11.6516 2.0701 0.9534
-3.1887 11.7031 2.1388 0.9519
-3.6793 11.8190 2.1826 0.9510
-7.3503 11.9269 2.4703 0.9447
-10.0189 12.0053 2.7572 0.9385
-8.6777 9.6725 2.2913 0.9486
-11.5220 11.9534 2.9275 0.9348
-30.1891 27.1365 7.1576 0.8480
-32.4829 27.1613 7.4661 0.8420
-23.9212 18.5893 5.3418 0.8842
-24.2162 14.9561 5.0187 0.8908
-24.2502 13.8036 4.9202 0.8929
-24.2829 12.6941 4.8315 0.8947
-25.8050 12.3351 5.0432 0.8903
31.5040 34.7789 7.1888 0.8270
6.0318 11.4316 1.9801 0.9490
4.5464 9.4181 1.6021 0.9586
2.9960 9.4638 1.5207 0.9606
2.6503 9.5466 1.5178 0.9607
1.9612 9.7134 1.5181 0.9607
1.6125 9.7781 1.5182 0.9607
1.2617 9.8303 1.5183 0.9607
0.5555 9.8966 1.5185 0.9607
0.2011 9.9107 1.5186 0.9607
-0.1536 9.9121 1.5187 0.9607
-0.5082 9.9006 1.5187 0.9607
-0.8621 9.8765 1.5188 0.9607
-2.6236 9.6293 1.5289 0.9604
-3.0011 9.6404 1.5468 0.9600
-3.4240 9.7544 1.5837 0.9590
-3.8258 9.7662 1.6068 0.9584
-5.1438 11.8622 1.9807 0.9490
-5.6636 11.8775 2.0158 0.9481
-6.2028 11.8934 2.0549 0.9472
-7.3504 11.9271 2.1463 0.9449
-9.2946 11.9843 2.3234 0.9405
-10.0191 12.0055 2.3955 0.9387
-8.6770 9.6718 1.9905 0.9488
-12.5068 12.0786 2.6636 0.9321
-24.1051 18.7322 4.6767 0.8838
-24.1810 16.1573 4.4552 0.8890
-24.3381 13.8536 4.2902 0.8929
-24.2831 12.6942 4.1977 0.8950
31.4306 32.2961 5.8685 0.8338
6.4903 9.6332 1.5126 0.9542
5.8036 10.1055 1.5175 0.9541
5.4391 10.3082 1.5177 0.9541
4.6893 10.6737 1.5182 0.9541
4.3050 10.8361 1.5184 0.9541
3.5199 11.1188 1.5187 0.9540
1.8984 11.5120 1.5194 0.9540
1.4845 11.5659 1.5185 0.9541
1.0666 11.5782 1.5141 0.9542
0.2354 11.6026 1.5112 0.9543
-0.1800 11.6149 1.5127 0.9542
-2.6639 11.3661 1.5202 0.9540
-3.8980 11.1049 1.5326 0.9536
-4.2928 10.9582 1.5326 0.9536
-4.6820 10.7973 1.5325 0.9536
-5.0652 10.6226 1.5325 0.9536
-5.4418 10.4342 1.5324 0.9536
-5.8114 10.2324 1.5324 0.9536
-6.1735 10.0174 1.5323 0.9536
-7.0989 9.8626 1.5824 0.9522
-11.6178 12.0528 2.1800 0.9347
-12.5071 12.0789 2.2642 0.9323
-24.1053 18.7323 3.9754 0.8841
-24.2165 14.9562 3.7064 0.8915
-24.2832 12.6943 3.5682 0.8954
-25.8071 12.3361 3.7248 0.8910
-28.7122 12.4832 4.0770 0.8814
31.1334 22.2285 4.1078 0.8574
34.1612 28.2876 4.7627 0.8366
29.3551 30.1635 4.5197 0.8442
29.4235 32.4821 4.7062 0.8384
30.8842 36.6490 5.1465 0.8246
6.8756 9.4564 1.2555 0.9541
6.8136 10.1132 1.3094 0.9521
6.7439 10.8264 1.3697 0.9500
6.4923 11.3048 1.3999 0.9489
6.0321 11.4320 1.3880 0.9493
5.5257 11.4469 1.3649 0.9501
4.5590 11.4754 1.3259 0.9515
3.1969 11.5156 1.2833 0.9531
1.0666 11.5783 1.2486 0.9543
0.6466 11.5190 1.2389 0.9546
-1.0161 11.6397 1.2546 0.9541
-3.1565 11.5849 1.2894 0.9528
-4.1538 11.8335 1.3467 0.9508
-4.6413 11.8479 1.3664 0.9501
-6.2031 11.8938 1.4404 0.9475
-7.9252 11.8855 1.5340 0.9441
-8.3447 11.5935 1.5339 0.9442
-8.7534 11.2865 1.5337 0.9442
-9.9094 10.2804 1.5333 0.9442
-10.3102 9.9572 1.5391 0.9440
-11.1033 9.9805 1.6032 0.9417
-31.0224 25.9401 4.3424 0.8499
-24.1054 18.7325 3.2782 0.8844
-24.2316 17.4768 3.2082 0.8867
-24.1813 16.1575 3.1229 0.8896
-24.2833 12.6943 2.9424 0.8956
-28.7134 12.4837 3.3621 0.8817
-31.8549 12.5143 3.6751 0.8714
-40.5769 12.6745 4.5648 0.8428
36.6683 28.2143 3.9166 0.8305
29.2917 28.0189 3.4314 0.8498
7.3134 9.3370 1.0040 0.9535
7.2187 9.9284 1.0391 0.9519
7.1127 11.4186 1.1388 0.9474
6.4925 11.3050 1.1036 0.9490
5.0354 11.4616 1.0598 0.9510
4.0610 11.3942 1.0240 0.9526
2.7604 11.5286 1.0035 0.9535
2.3426 11.6027 1.0020 0.9536
1.9155 11.6153 0.9965 0.9538
1.4845 11.5662 0.9871 0.9543
1.0667 11.5785 0.9843 0.9544
-0.1800 11.6153 0.9834 0.9544
-1.0161 11.6399 0.9891 0.9542
-1.8668 11.6682 1.0003 0.9537
-2.7400 11.6906 1.0165 0.9529
-3.1565 11.5851 1.0165 0.9529
-5.6639 11.8782 1.1140 0.9485
-6.2032 11.8940 1.1356 0.9476
-6.7645 11.9106 1.1595 0.9465
-7.3508 11.9278 1.1861 0.9453
-9.2951 11.9850 1.2839 0.9409
-10.0198 12.0063 1.3238 0.9392
-11.6183 12.0534 1.4172 0.9350
-12.5077 12.0795 1.4720 0.9326
-13.2741 10.3154 1.4231 0.9347
-24.2168 14.9564 2.4095 0.8920
-24.2508 13.8040 2.3622 0.8940
-24.2835 12.6944 2.3196 0.8958
-28.5623 12.4180 2.6365 0.8825
-35.9234 12.6485 3.2240 0.8582
31.1330 22.2282 2.3721 0.8579
35.7154 27.4811 2.7945 0.8348
29.2915 28.0187 2.5136 0.8501
28.9266 29.7232 2.5719 0.8469
28.3236 31.2679 2.6161 0.8444
26.7576 31.7521 2.5749 0.8467
7.5964 10.4479 0.8010 0.9495
7.5620 11.2240 0.8392 0.9472
18.9815 30.4723 2.2262 0.8660
5.0355 11.4618 0.7763 0.9511
4.0611 11.3944 0.7501 0.9527
3.1970 11.5160 0.7411 0.9532
2.7604 11.5288 0.7351 0.9536
1.9155 11.6155 0.7300 0.9539
1.4845 11.5664 0.7231 0.9543
1.0667 11.5787 0.7210 0.9545
0.2355 11.6032 0.7197 0.9546
-0.5968 11.6277 0.7220 0.9544
-1.8675 11.6726 0.7330 0.9537
-2.3011 11.6853 0.7385 0.9534
-2.7400 11.6908 0.7446 0.9530
-3.1566 11.5853 0.7446 0.9530
-4.1564 11.8410 0.7782 0.9510
-5.1441 11.8631 0.8018 0.9495
-5.6640 11.8784 0.8160 0.9486
-9.2953 11.9853 0.9405 0.9410
-10.0200 12.0066 0.9697 0.9393
-12.4054 11.9807 1.0694 0.9332
-13.7191 11.4715 1.1089 0.9308
-13.7813 10.7095 1.0823 0.9324
-24.1446 17.4140 1.8460 0.8875
-24.2170 14.9565 1.7650 0.8922
-24.2509 13.8040 1.7304 0.8942
-24.0569 11.4995 1.6535 0.8987
30.1986 25.0063 1.5460 0.8547
25.0497 27.6537 1.4713 0.8613
8.0275 10.2487 0.5133 0.9492
6.4927 11.3054 0.5140 0.9491
6.0324 11.4326 0.5097 0.9496
5.5260 11.4475 0.5012 0.9504
4.5592 11.4760 0.4869 0.9518
4.0612 11.3946 0.4770 0.9527
2.7605 11.5290 0.4674 0.9537
1.4846 11.5666 0.4598 0.9544
0.2355 11.6034 0.4576 0.9546
-0.1800 11.6156 0.4581 0.9546
-0.5968 11.6279 0.4591 0.9545
-3.1566 11.5855 0.4735 0.9531
-4.6460 11.8599 0.5023 0.9503
-5.6641 11.8786 0.5189 0.9487
-6.2034 11.8945 0.5290 0.9477
-6.7648 11.9110 0.5401 0.9466
-8.6738 9.6682 0.5122 0.9493
-11.6189 12.0539 0.6602 0.9352
-12.4057 11.9810 0.6801 0.9333
-28.0510 25.2146 1.4873 0.8599
-14.2764 11.9375 0.7338 0.9282
-14.3271 11.1337 0.7155 0.9299
-14.3742 10.3672 0.6988 0.9315
-24.1817 16.1578 1.1468 0.8901
-24.2171 14.9566 1.1223 0.8923
-23.1114 12.0817 1.0283 0.9009
-23.1610 11.0712 1.0122 0.9023
-40.5833 12.6765 1.6765 0.8435
29.1948 20.8444 0.6059 0.8663
27.5139 24.4944 0.6223 0.8630
24.2468 24.9145 0.5873 0.8702
8.4722 10.8164 0.2321 0.9465
18.0915 24.8825 0.5197 0.8842
15.4982 24.8803 0.4951 0.8893
6.4928 11.3056 0.2202 0.9492
6.0325 11.4328 0.2184 0.9496
5.0357 11.4622 0.2115 0.9511
4.5593 11.4762 0.2086 0.9518
3.6415 11.5032 0.2038 0.9529
3.1971 11.5163 0.2019 0.9533
2.7605 11.5292 0.2003 0.9537
2.3427 11.6032 0.2000 0.9537
1.4846 11.5668 0.1970 0.9544
1.0667 11.5791 0.1964 0.9545
0.6467 11.5197 0.1949 0.9549
0.2355 11.6036 0.1960 0.9546
-0.5969 11.6281 0.1967 0.9545
-1.4401 11.6624 0.1985 0.9541
-1.8689 11.6814 0.1998 0.9538
-2.3028 11.6941 0.2013 0.9534
-6.2035 11.8947 0.2266 0.9477
-6.7649 11.9112 0.2314 0.9467
-7.3513 11.9285 0.2367 0.9455
-7.9659 11.9466 0.2425 0.9442
-10.0204 12.0071 0.2642 0.9394
-8.6731 9.6675 0.2194 0.9494
-24.0529 21.6208 0.5463 0.8786
-25.8443 21.6103 0.5691 0.8739
-14.9517 10.7837 0.3114 0.9289
-24.1819 16.1579 0.4913 0.8902
-22.2522 11.6325 0.4241 0.9044
-24.3741 10.5971 0.4490 0.8991
-31.8609 12.5166 0.5782 0.8720
-35.8892 12.6365 0.6427 0.8588
-40.5865 12.6775 0.7182 0.8436
-45.1969 12.3612 0.7915 0.8291
29.1946 20.8442 -0.2020 0.8663
28.8506 22.1990 -0.2050 0.8645
25.5183 22.7178 -0.1924 0.8723
23.8154 22.7805 -0.1856 0.8765
20.7366 22.8922 -0.1739 0.8838
18.0066 22.9890 -0.1644 0.8898
16.7467 23.0329 -0.1603 0.8923
14.3974 23.1131 -0.1533 0.8968
6.0326 11.4330 -0.0728 0.9496
5.5262 11.4479 -0.0716 0.9504
5.0358 11.4624 -0.0705 0.9512
4.5594 11.4764 -0.0695 0.9518
4.0613 11.3950 -0.0681 0.9528
3.6416 11.5034 -0.0679 0.9529
3.1972 11.5165 -0.0673 0.9533
2.3428 11.6034 -0.0666 0.9538
1.0667 11.5793 -0.0655 0.9546
0.6467 11.5199 -0.0650 0.9549
0.2355 11.6037 -0.0653 0.9546
-0.1800 11.6160 -0.0654 0.9546
-1.0161 11.6406 -0.0658 0.9543
-1.8696 11.6858 -0.0666 0.9538
-2.3037 11.6985 -0.0671 0.9534
-3.1567 11.5859 -0.0676 0.9531
-3.6798 11.8206 -0.0697 0.9517
-4.1613 11.8550 -0.0707 0.9510
-4.6498 11.8694 -0.0718 0.9503
-5.1468 11.8692 -0.0728 0.9496
-7.9660 11.9468 -0.0808 0.9442
-11.6194 12.0545 -0.0943 0.9352
-12.4063 11.9816 -0.0971 0.9333
-24.0536 21.6214 -0.1821 0.8786
-24.1062 18.7331 -0.1719 0.8850
-24.1450 17.4143 -0.1676 0.8877
-24.1820 16.1580 -0.1637 0.8902
-24.1608 10.5044 -0.1483 0.9000
-27.0487 10.6261 -0.1636 0.8903
-30.4458 10.7199 -0.1817 0.8789
-40.9283 12.7843 -0.2414 0.8424
-40.2428 11.0062 -0.2349 0.8463
28.3509 20.2419 -0.9809 0.8699
26.9272 20.7190 -0.9567 0.8729
19.2869 21.2918 -0.8089 0.8914
18.0167 21.3797 -0.7873 0.8942
15.6584 21.5361 -0.7498 0.8989
6.5278 9.6889 -0.3290 0.9543
6.4930 11.3060 -0.3671 0.9492
5.0359 11.4626 -0.3525 0.9511
4.5594 11.4766 -0.3477 0.9518
3.6417 11.5036 -0.3398 0.9529
2.3304 11.5422 -0.3316 0.9540
1.9055 11.5547 -0.3298 0.9542
1.0667 11.5795 -0.3274 0.9545
0.6507 11.5917 -0.3269 0.9546
0.2355 11.6039 -0.3268 0.9546
-0.1527 9.8509 -0.2774 0.9613
-0.5969 11.6285 -0.3279 0.9545
-1.2203 9.8824 -0.2804 0.9609
-1.8698 11.6867 -0.3333 0.9537
-2.7402 11.6916 -0.3381 0.9531
-3.1568 11.5861 -0.3381 0.9531
-3.3583 10.7879 -0.3181 0.9558
-3.5304 10.0578 -0.3001 0.9582
-5.1480 11.8720 -0.3644 0.9495
-5.6644 11.8792 -0.3706 0.9487
-6.2037 11.8951 -0.3778 0.9477
-5.7460 10.1172 -0.3276 0.9545
-7.3515 11.9289 -0.3946 0.9455
-8.6129 11.9661 -0.4151 0.9427
-9.2961 11.9862 -0.4271 0.9411
-10.0208 12.0076 -0.4404 0.9393
-8.6719 9.6660 -0.3657 0.9494
-11.6197 12.0547 -0.4714 0.9352
-11.4420 10.2851 -0.4332 0.9403
-12.3554 10.3313 -0.4535 0.9376
-13.3126 10.3453 -0.4747 0.9348
-24.1452 17.4145 -0.8383 0.8877
-24.1822 16.1581 -0.8189 0.8901
-24.2176 14.9569 -0.8015 0.8923
-24.2515 13.8044 -0.7857 0.8943
-23.4314 12.2490 -0.7445 0.8996
-26.9396 10.5833 -0.8150 0.8906
21.8499 19.4520 -1.4836 0.8894
20.5070 19.6159 -1.4392 0.8926
16.8728 20.0222 -1.3279 0.9004
6.4932 11.3062 -0.6612 0.9491
5.1160 9.6959 -0.5560 0.9570
2.7114 9.7667 -0.5140 0.9602
1.9055 11.5549 -0.5939 0.9542
1.0667 11.5796 -0.5897 0.9545
0.6507 11.5919 -0.5888 0.9546
0.2355 11.6041 -0.5886 0.9546
-0.8617 9.8720 -0.5026 0.9611
-1.8685 11.6790 -0.5998 0.9537
-2.3023 11.6917 -0.6043 0.9534
-2.7403 11.6918 -0.6090 0.9530
-3.1568 11.5863 -0.6090 0.9530
-3.3584 10.7881 -0.5730 0.9558
-4.6463 11.8606 -0.6460 0.9503
-5.6645 11.8795 -0.6674 0.9487
-7.3517 11.9292 -0.7106 0.9454
-6.7662 10.1475 -0.6185 0.9523
-8.6131 11.9663 -0.7477 0.9427
-9.2963 11.9865 -0.7693 0.9411
-11.6199 12.0550 -0.8491 0.9351
-10.6523 10.2877 -0.7510 0.9424
-23.8221 11.3872 -1.3390 0.8996
-24.0856 10.4717 -1.3319 0.9002
-39.9919 10.9377 -2.1026 0.8470
-43.8647 10.3253 -2.2854 0.8349
-45.1144 8.9290 -2.3323 0.8318
-48.8535 4.3118 -2.4872 0.8217
-49.0003 2.5623 -2.4884 0.8216
22.5513 17.3520 -2.0863 0.8921
20.0842 17.8801 -1.9716 0.8978
15.7188 18.6528 -1.7885 0.9068
13.7745 18.9450 -1.7174 0.9103
6.5280 9.6893 -0.8566 0.9542
6.0400 9.6965 -0.8376 0.9552
6.4933 11.3064 -0.9560 0.9491
5.1161 9.6961 -0.8038 0.9570
5.5265 11.4485 -0.9321 0.9503
4.5596 11.4770 -0.9055 0.9517
4.0954 11.4906 -0.8944 0.9523
2.7115 9.7669 -0.7432 0.9602
2.7607 11.5299 -0.8693 0.9536
2.3305 11.5426 -0.8634 0.9539
1.4847 11.5675 -0.8551 0.9543
1.0668 11.5798 -0.8527 0.9544
0.6507 11.5921 -0.8513 0.9545
-0.5969 11.6288 -0.8538 0.9544
-0.8618 9.8721 -0.7266 0.9610
-2.7403 11.6920 -0.8805 0.9530
-3.1569 11.5865 -0.8805 0.9530
-3.5306 10.0581 -0.7816 0.9581
-4.6430 11.8522 -0.9333 0.9502
-6.2040 11.8955 -0.9837 0.9476
-5.7462 10.1176 -0.8531 0.9544
-7.3220 11.8811 -1.0233 0.9456
-6.7494 10.1222 -0.8920 0.9524
-7.2973 10.1383 -0.9159 0.9511
-7.8762 10.1554 -0.9423 0.9498
-8.6706 9.6646 -0.9520 0.9493
-12.2628 10.2538 -1.1720 0.9379
-13.3133 10.3458 -1.2362 0.9346
-24.1455 17.4147 -2.1828 0.8875
-24.1825 16.1583 -2.1325 0.8899
-24.2179 14.9571 -2.0871 0.8921
-23.2003 12.1282 -1.9195 0.9003
-23.2285 11.1035 -1.8877 0.9019
-28.6908 10.1020 -2.2303 0.8852
-33.5243 5.3965 -2.4897 0.8727
-33.8463 2.9873 -2.4913 0.8726
-33.9962 0.5596 -2.4930 0.8725
20.1293 15.4884 -2.4384 0.9030
19.1830 15.8846 -2.3911 0.9048
18.2093 16.2109 -2.3406 0.9067
17.2570 16.5071 -2.2927 0.9085
16.3206 16.7700 -2.2466 0.9103
15.4083 17.0101 -2.2034 0.9119
14.5131 17.2220 -2.1622 0.9135
6.5279 9.6892 -1.1216 0.9541
5.5295 9.6282 -1.0659 0.9564
4.3142 9.8198 -1.0297 0.9578
1.6119 9.7745 -0.9511 0.9610
0.9024 9.7954 -0.9444 0.9612
-0.1523 9.8264 -0.9435 0.9613
-0.5049 9.8368 -0.9456 0.9612
-1.2172 9.8578 -0.9536 0.9609
-1.5789 9.8685 -0.9595 0.9606
-2.6978 9.9014 -0.9852 0.9596
-3.0859 9.9129 -0.9967 0.9591
-4.7843 10.0335 -1.0672 0.9563
-5.2398 10.0469 -1.0878 0.9555
-6.2093 10.0755 -1.1362 0.9536
-6.7284 10.0908 -1.1644 0.9524
-7.2747 10.1069 -1.1955 0.9512
-9.8144 10.1818 -1.3577 0.9448
-10.5657 10.2040 -1.4102 0.9427
-12.2631 10.2541 -1.5347 0.9378
-13.2355 10.2854 -1.6092 0.9349
-19.2132 13.8573 -2.2743 0.9092
-20.1868 12.4674 -2.2778 0.9091
-20.6381 11.7475 -2.2799 0.9090
-22.3203 9.7041 -2.3366 0.9068
-24.7556 7.7326 -2.4899 0.9010
-25.0221 6.8434 -2.4905 0.9010
-25.7675 3.2069 -2.4929 0.9009
-25.8723 2.2835 -2.4935 0.9009
16.7870 13.9007 -2.5890 0.9159
16.0785 14.3140 -2.5571 0.9169
14.6245 15.0272 -2.4908 0.9190
13.8949 15.3393 -2.4585 0.9200
8.0796 9.5878 -1.4894 0.9507
12.4710 15.9218 -2.4024 0.9218
5.5296 9.6284 -1.3189 0.9563
5.0872 9.6414 -1.2949 0.9570
4.2466 9.6661 -1.2541 0.9584
3.8448 9.6779 -1.2370 0.9589
3.0709 9.7007 -1.2087 0.9598
1.9652 9.7332 -1.1795 0.9608
0.8995 9.7646 -1.1648 0.9613
0.5487 9.7750 -1.1630 0.9613
-0.1518 9.7956 -1.1637 0.9613
-0.8569 9.8164 -1.1705 0.9611
-1.5739 9.8375 -1.1834 0.9607
-1.9393 9.8483 -1.1923 0.9604
-2.3108 9.8592 -1.2029 0.9600
-2.6893 9.8704 -1.2152 0.9596
-3.5088 9.9960 -1.2584 0.9582
-4.3452 10.0207 -1.2974 0.9570
-5.2399 10.0471 -1.3460 0.9554
-6.2094 10.0757 -1.4059 0.9534
-7.2749 10.1071 -1.4792 0.9511
-8.4641 10.1422 -1.5692 0.9482
-8.6529 9.6449 -1.5392 0.9491
-11.3788 10.2282 -1.8174 0.9402
-12.2634 10.2543 -1.8989 0.9376
-13.2358 10.2856 -1.9911 0.9347
-15.6813 11.3099 -2.2967 0.9251
-16.5933 10.2481 -2.3167 0.9244
-17.1033 9.7354 -2.3377 0.9238
-17.7614 8.4901 -2.3385 0.9238
-20.2391 5.5353 -2.4924 0.9190
-20.4281 4.8085 -2.4929 0.9189
-20.5911 4.0753 -2.4934 0.9189
-20.8381 2.5934 -2.4944 0.9189
-20.9218 1.8465 -2.4949 0.9189
14.8737 10.6195 -2.5895 0.9288
14.6200 11.2493 -2.6137 0.9282
14.2286 11.7821 -2.6175 0.9281
13.3810 12.7995 -2.6237 0.9279
12.3632 13.6484 -2.6093 0.9283
8.1017 9.6139 -1.7814 0.9505
10.7187 13.6845 -2.4629 0.9322
6.9721 9.5892 -1.6799 0.9532
6.4701 9.6033 -1.6407 0.9543
5.9893 9.6150 -1.6050 0.9553
5.0873 9.6415 -1.5446 0.9569
4.2467 9.6663 -1.4960 0.9582
3.0710 9.7009 -1.4417 0.9597
1.6069 9.7440 -1.3993 0.9609
1.2520 9.7544 -1.3934 0.9610
0.8996 9.7648 -1.3894 0.9612
-0.5033 9.8061 -1.3913 0.9611
-1.5739 9.8377 -1.4116 0.9606
-2.3108 9.8594 -1.4348 0.9599
-3.0763 9.8820 -1.4664 0.9590
-3.5088 9.9962 -1.5011 0.9581
-4.7844 10.0338 -1.5750 0.9561
-5.2400 10.0472 -1.6056 0.9553
-5.7142 10.0612 -1.6394 0.9543
-6.2095 10.0759 -1.6770 0.9533
-6.7287 10.0912 -1.7185 0.9522
-7.2750 10.1073 -1.7645 0.9509
-7.8521 10.1243 -1.8154 0.9496
-8.4643 10.1424 -1.8718 0.9480
-13.3864 9.6547 -2.3386 0.9355
-14.0459 8.6747 -2.3391 0.9355
-16.1309 7.0132 -2.4922 0.9314
-16.5960 5.8434 -2.4930 0.9314
-16.9766 4.6430 -2.4937 0.9314
-17.3849 2.7985 -2.4950 0.9313
12.5703 8.9748 -2.5445 0.9393
12.0628 9.9887 -2.5801 0.9385
11.8147 10.5180 -2.6059 0.9379
10.0085 11.0488 -2.4559 0.9414
6.9722 9.5894 -1.9532 0.9531
6.4702 9.6035 -1.9076 0.9541
5.5298 9.6287 -1.8292 0.9560
4.6604 9.6543 -1.7660 0.9575
4.2468 9.6664 -1.7393 0.9581
3.0710 9.7010 -1.6763 0.9596
2.6962 9.7121 -1.6605 0.9600
1.9652 9.7336 -1.6359 0.9605
0.8996 9.7649 -1.6155 0.9610
0.5487 9.7753 -1.6129 0.9611
-0.1518 9.7959 -1.6140 0.9611
-0.5033 9.8063 -1.6176 0.9610
-0.8569 9.8167 -1.6233 0.9608
-1.2135 9.8272 -1.6312 0.9607
-1.5740 9.8378 -1.6413 0.9604
-1.9394 9.8486 -1.6536 0.9601
-2.6894 9.8707 -1.6854 0.9594
-3.9208 10.0085 -1.7708 0.9574
-4.7845 10.0340 -1.8313 0.9559
-6.2097 10.0761 -1.9498 0.9532
-6.7288 10.0914 -1.9981 0.9520
-8.4644 10.1426 -2.1763 0.9479
-8.5525 9.5330 -2.1098 0.9494
-10.2133 9.8636 -2.3391 0.9441
-10.5605 9.4927 -2.3393 0.9441
-11.5200 8.3087 -2.3399 0.9440
-12.3211 8.2327 -2.4412 0.9417
-13.1492 7.4847 -2.4925 0.9405
-13.6540 6.5267 -2.4931 0.9405
-13.8804 6.0347 -2.4934 0.9405
-14.7425 3.4702 -2.4950 0.9404
-14.8593 2.9409 -2.4954 0.9404
-15.0359 1.8713 -2.4961 0.9404
-15.0955 1.3323 -2.4965 0.9404
-15.1567 0.2495 -2.4972 0.9404
10.8410 7.7402 -2.5038 0.9472
10.5982 8.1547 -2.5135 0.9470
10.3415 8.5633 -2.5237 0.9468
10.0982 8.9899 -2.5412 0.9465
8.7356 8.9761 -2.3543 0.9503
8.3957 9.2684 -2.3506 0.9504
8.0498 9.5522 -2.3480 0.9504
7.4997 9.5748 -2.2860 0.9517
6.9723 9.5896 -2.2285 0.9529
5.9895 9.6154 -2.1293 0.9549
5.5299 9.6289 -2.0871 0.9558
4.6604 9.6545 -2.0150 0.9573
3.8450 9.6784 -1.9575 0.9585
2.6963 9.7122 -1.8946 0.9598
2.3281 9.7230 -1.8792 0.9601
0.5487 9.7754 -1.8403 0.9609
-0.8569 9.8168 -1.8522 0.9607
-1.2135 9.8273 -1.8612 0.9605
-1.5740 9.8380 -1.8727 0.9603
-1.9394 9.8488 -1.8867 0.9600
-2.3109 9.8597 -1.9035 0.9596
-3.0764 9.8823 -1.9454 0.9587
-3.5090 9.9965 -1.9914 0.9578
-3.9208 10.0087 -2.0204 0.9572
-5.2402 10.0476 -2.1300 0.9549
-5.7144 10.0616 -2.1749 0.9540
-6.2098 10.0763 -2.2247 0.9530
-6.7290 10.0916 -2.2798 0.9518
-7.2713 10.1022 -2.3395 0.9506
-7.6285 9.8360 -2.3397 0.9506
-7.9759 9.5572 -2.3398 0.9506
-8.9558 8.6492 -2.3402 0.9506
-9.8398 8.2277 -2.4109 0.9491
-10.4714 8.1374 -2.4927 0.9475
-10.7568 7.7582 -2.4929 0.9475
-11.0284 7.3690 -2.4931 0.9474
-11.2861 6.9703 -2.4933 0.9474
-11.5293 6.5627 -2.4935 0.9474
-11.9715 5.7225 -2.4940 0.9474
-12.1702 5.2911 -2.4943 0.9474
-12.3528 4.8528 -2.4946 0.9474
-12.5199 4.4082 -2.4949 0.9474
-12.6710 3.9579 -2.4951 0.9474
-12.8609 3.0273 -2.4834 0.9476
-13.0269 2.5782 -2.4960 0.9474
-13.1813 1.6404 -2.4967 0.9474
-13.2332 1.1679 -2.4970 0.9474
-13.2683 0.6938 -2.4973 0.9474
-13.2864 0.2187 -2.4977 0.9474
9.3681 7.2083 -2.4986 0.9528
9.1034 7.5381 -2.4984 0.9528
7.4989 8.2784 -2.3611 0.9554
6.5191 8.9661 -2.3433 0.9557
4.2469 9.6668 -2.2319 0.9578
3.4536 9.6901 -2.1745 0.9588
3.0711 9.7013 -2.1510 0.9593
2.3281 9.7232 -2.1134 0.9599
1.9653 9.7339 -2.0991 0.9602
1.2520 9.7549 -2.0789 0.9606
0.1986 9.7859 -2.0690 0.9608
-0.1518 9.7962 -2.0710 0.9607
-0.5034 9.8066 -2.0756 0.9606
-0.8570 9.8170 -2.0830 0.9605
-2.3109 9.8599 -2.1407 0.9594
-3.0764 9.8825 -2.1878 0.9586
-3.5090 9.9967 -2.2395 0.9576
-3.9209 10.0089 -2.2722 0.9570
-5.1195 9.8162 -2.3402 0.9557
-5.4676 9.6270 -2.3403 0.9557
-6.1425 9.2120 -2.3404 0.9557
-6.4684 8.9866 -2.3405 0.9557
-7.0951 8.5018 -2.3407 0.9557
-7.9225 8.2191 -2.4131 0.9544
-8.7719 7.8849 -2.4932 0.9529
-9.5683 6.9010 -2.4937 0.9529
-10.2552 5.8374 -2.4943 0.9529
-10.6483 5.0900 -2.4948 0.9529
-10.8246 4.7062 -2.4950 0.9529
-10.9871 4.3163 -2.4952 0.9529
-11.3337 3.0997 -2.4837 0.9531
-11.4953 2.7059 -2.4963 0.9529
-11.7690 1.0387 -2.4974 0.9528
-11.8000 0.6170 -2.4977 0.9528
8.6506 6.1763 -2.4981 0.9573
7.9365 7.0655 -2.4973 0.9573
7.6778 7.3442 -2.4971 0.9573
7.1316 7.8729 -2.4966 0.9573
5.5717 8.2698 -2.3436 0.9599
5.2718 8.4631 -2.3434 0.9599
4.9652 8.6456 -2.3432 0.9599
4.6523 8.8170 -2.3430 0.9599
4.3335 8.9772 -2.3428 0.9599
4.0093 9.1258 -2.3426 0.9599
3.0077 9.5009 -2.3422 0.9599
2.3203 9.6905 -2.3419 0.9599
1.9653 9.7340 -2.3339 0.9600
0.8996 9.7654 -2.3048 0.9605
0.1986 9.7861 -2.3004 0.9606
-0.1518 9.7964 -2.3027 0.9605
-1.5736 9.8353 -2.3409 0.9599
-2.2728 9.6974 -2.3409 0.9599
-2.6183 9.6098 -2.3409 0.9599
-2.9605 9.5100 -2.3409 0.9599
-3.2989 9.3980 -2.3409 0.9599
-4.6061 8.8317 -2.3410 0.9599
-5.2262 8.4801 -2.3411 0.9599
-5.9142 8.2167 -2.3793 0.9593
-6.3653 8.2073 -2.4410 0.9582
-6.7977 8.1454 -2.4934 0.9573
-7.3635 7.6391 -2.4937 0.9573
-7.6325 7.3712 -2.4938 0.9573
-7.8918 7.0938 -2.4939 0.9573
-8.8254 5.8969 -2.4946 0.9573
-9.0314 5.5778 -2.4948 0.9573
-9.2265 5.2515 -2.4950 0.9573
-9.4086 4.9184 -2.4952 0.9573
-9.5794 4.5790 -2.4954 0.9573
-9.7379 4.2337 -2.4956 0.9573
-10.1382 3.1667 -2.4962 0.9573
-10.4222 2.0627 -2.4970 0.9573
-10.4904 1.6887 -2.4972 0.9573
7.2049 6.4142 -2.4976 0.9609
6.9702 6.6673 -2.4974 0.9609
6.7266 6.9118 -2.4972 0.9609
5.6698 7.7980 -2.4963 0.9609
5.3867 7.9952 -2.4961 0.9609
5.0767 8.1499 -2.4861 0.9611
4.3112 8.1706 -2.3920 0.9625
3.0378 8.5234 -2.3428 0.9633
2.7308 8.6261 -2.3427 0.9633
2.4202 8.7178 -2.3426 0.9633
1.7904 8.8677 -2.3423 0.9633
0.8298 9.0073 -2.3420 0.9633
0.5070 9.0309 -2.3420 0.9633
0.1835 9.0430 -2.3419 0.9633
-0.1402 9.0435 -2.3418 0.9633
-0.4636 9.0324 -2.3417 0.9633
-1.1083 8.9758 -2.3416 0.9633
-1.4287 8.9303 -2.3416 0.9633
-1.7473 8.8733 -2.3416 0.9633
-2.0637 8.8050 -2.3416 0.9633
-2.3774 8.7255 -2.3416 0.9633
-3.2988 8.4206 -2.3416 0.9633
-4.2800 8.2065 -2.3964 0.9625
-5.0487 8.1923 -2.4916 0.9610
-5.6269 7.8175 -2.4939 0.9610
-5.9032 7.6114 -2.4940 0.9610
-6.1720 7.3956 -2.4941 0.9610
-6.4329 7.1704 -2.4942 0.9610
-6.6857 6.9360 -2.4943 0.9610
-7.1653 6.4407 -2.4946 0.9610
-7.3915 6.1806 -2.4947 0.9610
-7.6084 5.9125 -2.4948 0.9610
-8.0127 5.3539 -2.4951 0.9610
-8.5421 4.4654 -2.4957 0.9610
-8.6970 4.1572 -2.4958 0.9610
-9.0946 3.2021 -2.4964 0.9609
-9.3018 2.5440 -2.4969 0.9609
-9.3877 2.2097 -2.4971 0.9609
-9.4616 1.8726 -2.4973 0.9609
-9.5731 1.1914 -2.4978 0.9609
-9.6105 0.8482 -2.4980 0.9609
-9.6356 0.5038 -2.4982 0.9609
7.1829 5.1284 -2.4985 0.9640
6.9942 5.3816 -2.4983 0.9640
6.7966 5.6280 -2.4981 0.9640
6.5903 5.8671 -2.4979 0.9640
6.3756 6.0986 -2.4977 0.9640
5.1864 7.1331 -2.4967 0.9640
4.9275 7.3136 -2.4965 0.9640
4.6623 7.4847 -2.4963 0.9640
4.3912 7.6462 -2.4962 0.9640
4.1146 7.7979 -2.4960 0.9640
3.2410 8.1580 -2.4851 0.9642
2.5869 8.1716 -2.4265 0.9650
2.2702 8.1774 -2.4025 0.9653
1.0535 8.2079 -2.3427 0.9662
-0.1282 8.2731 -2.3424 0.9662
-0.4241 8.2630 -2.3423 0.9662
-0.7195 8.2424 -2.3422 0.9662
-1.3129 8.2059 -2.3526 0.9660
-1.6147 8.2007 -2.3662 0.9659
-2.5505 8.1931 -2.4292 0.9650
-3.2064 8.1850 -2.4886 0.9641
-3.7921 7.9527 -2.4942 0.9640
-4.0743 7.8120 -2.4942 0.9640
-4.3513 7.6614 -2.4943 0.9640
-4.6227 7.5010 -2.4943 0.9640
-5.1476 7.1516 -2.4945 0.9640
-5.4003 6.9631 -2.4946 0.9640
-5.6462 6.7656 -2.4946 0.9640
-5.8849 6.5595 -2.4947 0.9640
-6.5547 5.8919 -2.4951 0.9640
-6.7617 5.6539 -2.4952 0.9640
-6.9600 5.4087 -2.4953 0.9640
-7.5008 4.6325 -2.4958 0.9640
-7.6623 4.3615 -2.4959 0.9640
-8.0871 3.5160 -2.4964 0.9640
-8.2084 3.2246 -2.4966 0.9640
-8.4192 2.6297 -2.4970 0.9640
-8.5871 2.0213 -2.4974 0.9640
-8.7111 1.4022 -2.4978 0.9640
-8.7906 0.7758 -2.4982 0.9640
6.6116 4.7205 -2.4987 0.9666
6.4379 4.9536 -2.4985 0.9666
6.0662 5.4005 -2.4981 0.9666
5.8687 5.6137 -2.4979 0.9666
5.4514 6.0180 -2.4975 0.9666
5.0063 6.3916 -2.4972 0.9666
4.0422 7.0385 -2.4965 0.9666
2.7242 7.6434 -2.4958 0.9666
2.4488 7.7356 -2.4957 0.9666
1.8892 7.8902 -2.4955 0.9666
1.6056 7.9524 -2.4953 0.9666
1.3200 8.0045 -2.4953 0.9666
0.4546 8.0990 -2.4950 0.9666
0.1646 8.1098 -2.4949 0.9666
-0.1257 8.1103 -2.4949 0.9666
-0.4158 8.1004 -2.4948 0.9666
-0.7053 8.0802 -2.4948 0.9666
-0.9940 8.0497 -2.4947 0.9666
-1.2813 8.0089 -2.4947 0.9666
-1.5671 7.9578 -2.4947 0.9666
-2.1321 7.8253 -2.4946 0.9666
-2.6863 7.6528 -2.4946 0.9666
-3.2267 7.4412 -2.4947 0.9666
-3.4909 7.3211 -2.4947 0.9666
-4.2556 6.9052 -2.4948 0.9666
-4.5000 6.7487 -2.4949 0.9666
-4.7387 6.5836 -2.4950 0.9666
-4.9714 6.4100 -2.4950 0.9666
-5.1977 6.2282 -2.4951 0.9666
-5.4174 6.0385 -2.4952 0.9666
-6.2245 5.2047 -2.4956 0.9666
-6.5814 4.7467 -2.4959 0.9666
-6.7474 4.5085 -2.4960 0.9666
-7.1929 3.7601 -2.4964 0.9666
-7.3233 3.5006 -2.4966 0.9666
-7.4444 3.2365 -2.4968 0.9666
-7.5559 2.9683 -2.4969 0.9666
-7.6578 2.6962 -2.4971 0.9666
-7.7499 2.4207 -2.4973 0.9666
-7.9043 1.8606 -2.4976 0.9666
-7.9664 1.5767 -2.4978 0.9666
-8.0914 0.7141 -2.4984 0.9666
6.1181 4.3682 -2.4988 0.9688
5.7892 4.7938 -2.4985 0.9688
4.8419 5.7456 -2.4976 0.9688
4.6329 5.9148 -2.4974 0.9688
4.4180 6.0764 -2.4973 0.9688
4.1975 6.2301 -2.4971 0.9688
3.7408 6.5136 -2.4968 0.9688
3.2650 6.7637 -2.4965 0.9688
3.0208 6.8758 -2.4964 0.9688
2.7727 6.9791 -2.4963 0.9688
2.0086 7.2350 -2.4959 0.9688
1.2216 7.4078 -2.4957 0.9688
0.9557 7.4465 -2.4956 0.9688
-0.6528 7.4780 -2.4952 0.9689
-0.9199 7.4497 -2.4952 0.9689
-1.7128 7.3081 -2.4951 0.9689
-1.9732 7.2421 -2.4951 0.9689
-2.2311 7.1669 -2.4951 0.9689
-2.7379 6.9890 -2.4951 0.9689
-3.2308 6.7755 -2.4952 0.9689
-3.9384 6.3906 -2.4953 0.9689
-4.1646 6.2457 -2.4953 0.9689
-5.2105 5.4056 -2.4957 0.9688
-5.7605 4.8167 -2.4960 0.9688
-5.9294 4.6077 -2.4961 0.9688
-6.2443 4.1723 -2.4964 0.9688
-6.3899 3.9464 -2.4965 0.9688
-6.5274 3.7155 -2.4966 0.9688
-6.7772 3.2396 -2.4969 0.9688
-6.8891 2.9951 -2.4971 0.9688
-7.0866 2.4951 -2.4974 0.9688
-7.2478 1.9822 -2.4977 0.9688
-7.3146 1.7218 -2.4979 0.9688
-7.3720 1.4590 -2.4980 0.9688
-7.4586 0.9283 -2.4984 0.9688
-7.5070 0.3925 -2.4988 0.9688
5.5379 4.2611 -2.4988 0.9708
5.3816 4.4562 -2.4986 0.9708
4.3068 5.4985 -2.4977 0.9708
3.9021 5.7917 -2.4974 0.9708
3.6922 5.9272 -2.4972 0.9708
3.4775 6.0552 -2.4971 0.9708
2.8082 6.3920 -2.4967 0.9708
2.5776 6.4881 -2.4966 0.9708
2.3437 6.5759 -2.4965 0.9708
1.8673 6.7261 -2.4963 0.9708
1.6254 6.7883 -2.4962 0.9708
1.3814 6.8419 -2.4961 0.9708
1.1357 6.8867 -2.4960 0.9708
0.6403 6.9499 -2.4959 0.9708
0.3911 6.9681 -2.4958 0.9708
-0.1082 6.9779 -2.4957 0.9708
-0.3578 6.9695 -2.4956 0.9708
-0.6069 6.9521 -2.4956 0.9708
-0.8552 6.9258 -2.4956 0.9708
-1.5924 6.7941 -2.4955 0.9708
-2.3112 6.5844 -2.4955 0.9708
-3.2271 6.1875 -2.4956 0.9708
-4.2772 5.5150 -2.4958 0.9708
-4.6609 5.1953 -2.4960 0.9708
-5.0209 4.8490 -2.4961 0.9708
-5.6622 4.0837 -2.4965 0.9708
-6.0681 3.4540 -2.4969 0.9708
-6.3002 3.0116 -2.4972 0.9708
-6.4043 2.7844 -2.4973 0.9708
-6.5002 2.5536 -2.4975 0.9708
-6.6669 2.0824 -2.4977 0.9708
-6.7376 1.8427 -2.4979 0.9708
-6.7997 1.6005 -2.4981 0.9708
-6.8530 1.3563 -2.4982 0.9708
-6.8976 1.1103 -2.4984 0.9708
-6.9334 0.8629 -2.4986 0.9708
-6.9603 0.6143 -2.4987 0.9708
-6.9783 0.3649 -2.4989 0.9708
-6.9874 0.1150 -2.4991 0.9707
5.3074 3.7893 -2.4991 0.9725
5.1681 3.9765 -2.4989 0.9725
5.0222 4.1587 -2.4988 0.9725
4.8698 4.3354 -2.4986 0.9725
4.3765 4.8314 -2.4982 0.9725
4.2005 4.9846 -2.4980 0.9725
4.0193 5.1314 -2.4979 0.9725
3.8329 5.2716 -2.4977 0.9725
3.6416 5.4051 -2.4976 0.9725
3.2454 5.6511 -2.4973 0.9725
3.0410 5.7633 -2.4972 0.9725
2.4056 6.0551 -2.4969 0.9725
1.9663 6.2111 -2.4967 0.9725
1.2893 6.3854 -2.4964 0.9725
1.0599 6.4272 -2.4963 0.9725
0.8292 6.4609 -2.4962 0.9725
-0.1009 6.5125 -2.4960 0.9725
-0.3339 6.5046 -2.4960 0.9725
-0.5664 6.4884 -2.4959 0.9725
-0.7982 6.4638 -2.4959 0.9725
-1.0289 6.4311 -2.4959 0.9725
-1.2584 6.3901 -2.4958 0.9725
-1.4862 6.3409 -2.4958 0.9725
-1.9358 6.2184 -2.4958 0.9725
-2.3756 6.0641 -2.4958 0.9725
-2.8032 5.8788 -2.4959 0.9725
-3.2165 5.6634 -2.4959 0.9725
-3.8051 5.2864 -2.4961 0.9725
-3.9919 5.1471 -2.4961 0.9725
-4.3500 4.8487 -2.4963 0.9725
-4.5208 4.6901 -2.4964 0.9725
-5.2844 3.8113 -2.4968 0.9725
-5.5439 3.4239 -2.4970 0.9725
-5.6631 3.2235 -2.4972 0.9725
-5.9768 2.5985 -2.4975 0.9725
-6.0663 2.3831 -2.4977 0.9725
-6.1480 2.1646 -2.4978 0.9725
-6.2219 1.9434 -2.4979 0.9725
-6.2878 1.7197 -2.4981 0.9725
-6.3457 1.4936 -2.4982 0.9725
-6.4370 1.0362 -2.4985 0.9725
-6.4955 0.5733 -2.4989 0.9725
-6.5122 0.3405 -2.4990 0.9725
-6.5207 0.1073 -2.4992 0.9725
4.7026 3.8941 -2.4989 0.9740
4.5600 4.0596 -2.4987 0.9740
4.4116 4.2199 -2.4986 0.9740
4.0981 4.5241 -2.4983 0.9740
3.9334 4.6675 -2.4982 0.9740
3.7636 4.8050 -2.4980 0.9740
3.4100 5.0614 -2.4978 0.9740
2.8477 5.3968 -2.4974 0.9740
2.4542 5.5862 -2.4972 0.9740
2.2527 5.6702 -2.4971 0.9740
1.8413 5.8163 -2.4969 0.9740
1.6319 5.8783 -2.4968 0.9740
1.2073 5.9795 -2.4967 0.9740
0.7765 6.0502 -2.4965 0.9740
0.5596 6.0740 -2.4965 0.9740
0.1237 6.0982 -2.4963 0.9740
-0.0945 6.0986 -2.4963 0.9740
-0.3127 6.0912 -2.4963 0.9740
-0.7474 6.0531 -2.4962 0.9740
-0.9635 6.0224 -2.4962 0.9740
-1.1784 5.9840 -2.4962 0.9740
-1.3917 5.9379 -2.4961 0.9740
-1.8128 5.8232 -2.4961 0.9740
-2.0200 5.7547 -2.4961 0.9740
-2.4264 5.5955 -2.4962 0.9740
-2.8204 5.4078 -2.4962 0.9740
-3.5633 4.9505 -2.4964 0.9740
-3.9083 4.6832 -2.4965 0.9740
-4.2335 4.3920 -2.4966 0.9740
-4.3880 4.2378 -2.4967 0.9740
-4.6802 3.9134 -2.4969 0.9740
-5.0731 3.3898 -2.4972 0.9740
-5.3030 3.0186 -2.4974 0.9740
-5.5058 2.6318 -2.4976 0.9740
-5.8261 1.8198 -2.4981 0.9740
-5.8879 1.6103 -2.4982 0.9740
-5.9420 1.3987 -2.4984 0.9740
-6.0275 0.9703 -2.4987 0.9740
-6.0587 0.7540 -2.4988 0.9740
-6.0822 0.5368 -2.4990 0.9740
-6.0979 0.3189 -2.4991 0.9740
4.6672 3.3322 -2.4993 0.9753
4.5447 3.4969 -2.4991 0.9753
4.4164 3.6571 -2.4990 0.9753
4.2825 3.8125 -2.4989 0.9753
4.1431 3.9631 -2.4987 0.9753
3.9985 4.1086 -2.4986 0.9753
3.8487 4.2488 -2.4985 0.9753
3.6940 4.3835 -2.4983 0.9753
3.5347 4.5127 -2.4982 0.9753
3.2026 4.7535 -2.4980 0.9753
2.8542 4.9698 -2.4977 0.9753
2.6744 5.0686 -2.4976 0.9753
1.7293 5.4626 -2.4971 0.9753
1.5327 5.5208 -2.4971 0.9753
1.3341 5.5719 -2.4970 0.9753
1.1339 5.6159 -2.4969 0.9753
0.9322 5.6527 -2.4968 0.9753
0.5255 5.7046 -2.4967 0.9753
0.3211 5.7197 -2.4967 0.9753
0.1162 5.7274 -2.4966 0.9753
-0.2937 5.7208 -2.4965 0.9753
-0.4981 5.7066 -2.4965 0.9753
-0.9050 5.6562 -2.4964 0.9753
-1.3071 5.5770 -2.4964 0.9753
-1.7026 5.4692 -2.4964 0.9753
-3.0054 4.8767 -2.4965 0.9753
-3.1780 4.7662 -2.4966 0.9753
-3.3466 4.6494 -2.4966 0.9753
-3.5109 4.5268 -2.4967 0.9753
-3.6707 4.3984 -2.4967 0.9753
-3.8258 4.2644 -2.4968 0.9753
-3.9760 4.1249 -2.4969 0.9753
-4.1212 3.9801 -2.4969 0.9753
-4.5244 3.5159 -2.4972 0.9753
-4.8756 3.0112 -2.4975 0.9753
-4.9805 2.8350 -2.4976 0.9753
-5.2563 2.2852 -2.4979 0.9753
-5.3349 2.0958 -2.4980 0.9753
-5.4717 1.7091 -2.4983 0.9753
-5.5296 1.5123 -2.4984 0.9753
-5.6607 0.9112 -2.4988 0.9753
-5.6900 0.7081 -2.4989 0.9753
-5.7120 0.5041 -2.4991 0.9753
-5.7341 0.0944 -2.4994 0.9753
4.1583 3.4433 -2.4991 0.9765
4.0323 3.5897 -2.4990 0.9765
3.7648 3.8685 -2.4987 0.9765
3.6238 4.0005 -2.4986 0.9765
2.8533 4.5806 -2.4980 0.9765
2.6875 4.6795 -2.4979 0.9765
2.5182 4.7725 -2.4978 0.9765
2.3457 4.8594 -2.4977 0.9765
2.1703 4.9400 -2.4976 0.9765
1.6283 5.1436 -2.4973 0.9765
1.2562 5.2465 -2.4972 0.9765
1.0677 5.2879 -2.4971 0.9765
0.8777 5.3226 -2.4971 0.9765
0.1094 5.3929 -2.4968 0.9765
-0.4690 5.3734 -2.4967 0.9765
-0.6610 5.3531 -2.4967 0.9765
-1.0421 5.2921 -2.4967 0.9765
-1.4179 5.2040 -2.4967 0.9765
-1.6032 5.1499 -2.4967 0.9765
-1.7864 5.0892 -2.4967 0.9765
-2.1458 4.9485 -2.4967 0.9765
-2.4942 4.7825 -2.4967 0.9765
-2.6638 4.6902 -2.4968 0.9765
-2.9925 4.4878 -2.4968 0.9765
-3.3059 4.2625 -2.4969 0.9765
-3.6024 4.0154 -2.4970 0.9765
-3.7438 3.8840 -2.4971 0.9765
-4.1388 3.4607 -2.4973 0.9765
-4.2602 3.3105 -2.4974 0.9765
-4.3760 3.1561 -2.4975 0.9765
-4.5909 2.8353 -2.4977 0.9765
-4.7823 2.5000 -2.4979 0.9765
-4.9492 2.1517 -2.4981 0.9765
-5.0232 1.9734 -2.4982 0.9765
-5.1520 1.6092 -2.4984 0.9765
-5.2065 1.4240 -2.4985 0.9765
-5.2544 1.2368 -2.4986 0.9765
-5.2955 1.0480 -2.4988 0.9765
-5.3299 0.8579 -2.4989 0.9765
-5.3575 0.6668 -2.4990 0.9765
-5.3782 0.4746 -2.4992 0.9765
-5.3989 0.0888 -2.4994 0.9765
3.8052 3.3876 -2.4991 0.9776
3.2824 3.8951 -2.4986 0.9776
3.1408 4.0098 -2.4985 0.9776
2.5362 4.4161 -2.4981 0.9776
2.3765 4.5039 -2.4980 0.9776
1.7094 4.7962 -2.4976 0.9776
1.5367 4.8541 -2.4975 0.9776
1.0076 4.9904 -2.4973 0.9776
0.4670 5.0693 -2.4972 0.9776
-0.2609 5.0837 -2.4970 0.9776
-0.8042 5.0263 -2.4969 0.9776
-0.9835 4.9943 -2.4969 0.9776
-1.1616 4.9559 -2.4969 0.9776
-1.3381 4.9112 -2.4969 0.9776
-1.5130 4.8602 -2.4969 0.9776
-1.6859 4.8029 -2.4969 0.9776
-1.8567 4.7395 -2.4969 0.9776
-2.1909 4.5947 -2.4969 0.9776
-2.5139 4.4263 -2.4970 0.9776
-2.6707 4.3336 -2.4970 0.9776
-3.1199 4.0227 -2.4971 0.9776
-3.2619 3.9086 -2.4972 0.9776
-3.9059 3.2660 -2.4975 0.9776
-4.1298 2.9785 -2.4977 0.9776
-4.2338 2.8289 -2.4977 0.9776
-4.4256 2.5191 -2.4979 0.9776
-4.5131 2.3592 -2.4980 0.9776
-4.8619 1.5186 -2.4985 0.9776
-4.9134 1.3438 -2.4986 0.9776
-4.9586 1.1672 -2.4988 0.9776
-5.0298 0.8096 -2.4990 0.9776
-5.0884 0.2661 -2.4994 0.9776
-5.0949 0.0838 -2.4995 0.9776
3.9212 2.7996 -2.4995 0.9785
3.8183 2.9380 -2.4994 0.9785
3.7106 3.0725 -2.4993 0.9785
3.4810 3.3297 -2.4990 0.9785
3.3595 3.4520 -2.4989 0.9785
3.1038 3.6831 -2.4987 0.9785
2.8322 3.8953 -2.4985 0.9785
2.5462 4.0875 -2.4983 0.9785
2.3982 4.1758 -2.4982 0.9785
1.6164 4.5353 -2.4978 0.9785
1.4531 4.5900 -2.4977 0.9785
1.2879 4.6389 -2.4976 0.9785
1.1210 4.6819 -2.4976 0.9785
0.9528 4.7189 -2.4975 0.9785
0.6128 4.7748 -2.4974 0.9785
0.4416 4.7936 -2.4973 0.9785
0.2698 4.8062 -2.4973 0.9785
0.0977 4.8127 -2.4973 0.9785
-0.0746 4.8130 -2.4972 0.9785
-0.2467 4.8072 -2.4972 0.9785
-0.4186 4.7953 -2.4972 0.9785
-0.5899 4.7772 -2.4971 0.9785
-1.4307 4.5958 -2.4971 0.9785
-1.5942 4.5417 -2.4971 0.9785
-1.9149 4.4161 -2.4971 0.9785
-2.3772 4.1856 -2.4972 0.9785
-2.5255 4.0979 -2.4972 0.9785
-2.8121 3.9069 -2.4973 0.9785
-3.0844 3.6959 -2.4974 0.9785
-3.4630 3.3444 -2.4975 0.9785
-3.5805 3.2184 -2.4976 0.9785
-3.9051 2.8165 -2.4978 0.9785
-4.0035 2.6750 -2.4979 0.9785
-4.0968 2.5301 -2.4980 0.9785
-4.1848 2.3821 -2.4981 0.9785
-4.2675 2.2309 -2.4982 0.9785
-4.3448 2.0768 -2.4982 0.9785
-4.4165 1.9201 -2.4983 0.9785
-4.4825 1.7609 -2.4984 0.9785
-4.5428 1.5995 -2.4985 0.9785
-4.6460 1.2706 -2.4988 0.9785
-4.7254 0.9352 -2.4990 0.9785
-4.8114 0.2516 -2.4994 0.9785
3.7142 2.6518 -2.4996 0.9794
3.6167 2.7829 -2.4994 0.9794
3.4082 3.0341 -2.4992 0.9794
3.1822 3.2698 -2.4990 0.9794
3.0630 3.3814 -2.4989 0.9794
2.8132 3.5915 -2.4987 0.9794
2.6827 3.6897 -2.4986 0.9794
2.1286 4.0341 -2.4982 0.9794
1.6839 4.2386 -2.4980 0.9794
1.5311 4.2960 -2.4979 0.9794
1.3764 4.3479 -2.4979 0.9794
1.0619 4.4350 -2.4977 0.9794
0.9025 4.4700 -2.4977 0.9794
0.7420 4.4993 -2.4976 0.9794
-0.2337 4.5537 -2.4974 0.9794
-0.7203 4.5023 -2.4973 0.9794
-0.8810 4.4736 -2.4973 0.9794
-1.1986 4.3991 -2.4973 0.9794
-1.3552 4.3534 -2.4973 0.9794
-1.5101 4.3022 -2.4973 0.9794
-1.8139 4.1832 -2.4973 0.9794
-1.9625 4.1156 -2.4973 0.9794
-2.2518 3.9648 -2.4974 0.9794
-2.3923 3.8818 -2.4974 0.9794
-2.5296 3.7937 -2.4974 0.9794
-2.6638 3.7008 -2.4975 0.9794
-3.0452 3.3943 -2.4976 0.9794
-3.1648 3.2832 -2.4976 0.9794
-3.3916 3.0486 -2.4978 0.9794
-3.6012 2.7984 -2.4979 0.9794
-3.7923 2.5339 -2.4980 0.9794
-4.0424 2.1131 -2.4983 0.9794
-4.1155 1.9672 -2.4984 0.9794
-4.1834 1.8188 -2.4985 0.9794
-4.2460 1.6680 -2.4986 0.9794
-4.3031 1.5151 -2.4987 0.9794
-4.4008 1.2036 -2.4989 0.9794
-4.4760 0.8859 -2.4991 0.9794
-4.5050 0.7252 -2.4992 0.9794
-4.5283 0.5636 -2.4993 0.9794
-4.5574 0.2383 -2.4995 0.9794
-4.5632 0.0751 -2.4996 0.9794
3.4311 2.6400 -2.4995 0.9802
3.2333 2.8784 -2.4993 0.9802
2.9058 3.2079 -2.4990 0.9802
2.5451 3.5004 -2.4987 0.9802
2.0194 3.8271 -2.4984 0.9802
1.8811 3.8968 -2.4983 0.9802
1.7404 3.9615 -2.4982 0.9802
1.4526 4.0756 -2.4981 0.9802
1.3058 4.1249 -2.4980 0.9802
1.1574 4.1689 -2.4979 0.9802
1.0074 4.2075 -2.4979 0.9802
0.3969 4.3078 -2.4977 0.9802
0.2425 4.3192 -2.4976 0.9802
0.0878 4.3250 -2.4976 0.9802
-0.0670 4.3254 -2.4976 0.9802
-0.2218 4.3202 -2.4975 0.9802
-1.7209 3.9686 -2.4975 0.9802
-1.8618 3.9046 -2.4975 0.9802
-2.0004 3.8354 -2.4975 0.9802
-2.1363 3.7615 -2.4975 0.9802
-2.5272 3.5110 -2.4976 0.9802
-2.7719 3.3214 -2.4977 0.9802
-3.0024 3.1148 -2.4978 0.9802
-3.3192 2.7754 -2.4980 0.9802
-3.4164 2.6549 -2.4980 0.9802
-3.5977 2.4039 -2.4982 0.9802
-3.6816 2.2737 -2.4982 0.9802
-3.7607 2.1406 -2.4983 0.9802
-3.9688 1.7255 -2.4986 0.9802
-4.0281 1.5824 -2.4987 0.9802
-4.0823 1.4373 -2.4988 0.9802
-4.2738 0.6879 -2.4992 0.9802
-4.2958 0.5346 -2.4994 0.9802
-4.3124 0.3806 -2.4995 0.9802
-4.3235 0.2260 -2.4996 0.9802
-4.3290 0.0712 -2.4997 0.9802
