ply
format ascii 1.0
element vertex 1063
property float32 x
property float32 y
property float32 z
property float32 I
end_header
47.0667 9.8193 8.4778 0.8226
47.0568 11.5868 8.5452 0.8213
40.9249 14.8779 7.6782 0.8379
6.0935 20.2325 3.7258 0.9178
4.5536 20.2654 3.6624 0.9191
3.8012 20.2815 3.6385 0.9196
3.0577 20.2974 3.6194 0.9200
47.0954 13.3989 7.5011 0.8203
6.0935 20.2325 3.2370 0.9180
5.3169 20.2491 3.2072 0.9188
4.5536 20.2654 3.1820 0.9194
3.8013 20.2815 3.1611 0.9199
3.0577 20.2974 3.1445 0.9203
1.5892 20.3289 3.1238 0.9208
0.8603 20.3444 3.1194 0.9209
47.0563 11.5867 6.3107 0.8224
47.0951 13.3988 6.3761 0.8208
5.3169 20.2491 2.7262 0.9190
3.0577 20.2974 2.6730 0.9205
1.5892 20.3288 2.6553 0.9210
0.8603 20.3444 2.6516 0.9211
44.7185 -17.1584 5.1433 0.8247
44.7939 -15.3741 5.0855 0.8265
47.0948 13.3987 5.2578 0.8212
6.0935 20.2325 2.2690 0.9185
5.3169 20.2491 2.2481 0.9192
4.5536 20.2654 2.2304 0.9198
3.8012 20.2815 2.2158 0.9203
2.3210 20.3132 2.1955 0.9210
1.5892 20.3288 2.1896 0.9212
0.8603 20.3444 2.1866 0.9213
42.9365 -23.9823 4.1632 0.8208
43.0187 -20.1410 4.0210 0.8264
44.8382 -17.2043 4.0655 0.8247
45.0212 -15.4521 4.0294 0.8261
47.0177 9.8091 4.0659 0.8246
47.1343 15.2510 4.1937 0.8197
3.8012 20.2815 1.7468 0.9205
2.3210 20.3132 1.7308 0.9212
1.5892 20.3288 1.7261 0.9214
0.8603 20.3444 1.7238 0.9215
43.1353 -20.1956 2.9535 0.8262
47.0175 9.8090 2.9783 0.8249
47.0555 11.5865 3.0051 0.8235
47.1340 15.2509 3.0720 0.8199
6.8856 20.2155 1.3243 0.9180
5.3169 20.2491 1.2982 0.9195
4.5536 20.2654 1.2880 0.9201
3.8012 20.2815 1.2796 0.9206
3.0577 20.2974 1.2729 0.9210
2.3210 20.3132 1.2678 0.9213
0.8603 20.3444 1.2627 0.9216
43.0003 -24.0179 1.9421 0.8211
44.2247 -18.8089 1.8950 0.8250
44.8377 -17.2041 1.8937 0.8251
47.0941 13.3985 1.9307 0.8220
47.1337 15.2508 1.9534 0.8201
6.8856 20.2155 0.8421 0.9181
6.0935 20.2325 0.8332 0.9189
5.3169 20.2491 0.8255 0.9196
4.5536 20.2654 0.8190 0.9202
3.8009 20.2801 0.8136 0.9207
2.3208 20.3118 0.8061 0.9214
1.5890 20.3274 0.8040 0.9216
0.8602 20.3430 0.8029 0.9217
41.5854 -19.4700 0.7756 0.8322
44.2305 -18.8113 0.8119 0.8251
44.8760 -15.4023 0.8014 0.8271
46.1949 -14.0304 0.8155 0.8244
47.0170 9.8089 0.8113 0.8252
47.0550 11.5864 0.8186 0.8238
47.0938 13.3984 0.8271 0.8221
6.8851 20.2141 0.3607 0.9181
6.0930 20.2310 0.3569 0.9189
4.5533 20.2640 0.3508 0.9203
3.8009 20.2801 0.3485 0.9208
3.0575 20.2960 0.3467 0.9212
41.4200 -27.1899 -0.2790 0.8202
41.4637 -25.1451 -0.2730 0.8237
41.5057 -23.1831 -0.2677 0.8268
41.5462 -21.2943 -0.2628 0.8297
44.8372 -17.2039 -0.2704 0.8252
44.8758 -15.4022 -0.2671 0.8271
46.1949 -14.0304 -0.2718 0.8244
44.2789 9.2377 -0.2547 0.8345
43.0078 12.2359 -0.2517 0.8362
42.9866 15.6274 -0.2575 0.8328
42.9404 22.9977 -0.2743 0.8230
9.4135 24.7060 -0.1489 0.8996
6.8851 20.2141 -0.1202 0.9181
4.5532 20.2640 -0.1169 0.9203
3.8009 20.2801 -0.1162 0.9208
2.3208 20.3118 -0.1151 0.9215
1.5890 20.3274 -0.1148 0.9217
0.8602 20.3430 -0.1146 0.9218
41.4197 -27.1897 -1.3951 0.8202
41.4635 -25.1450 -1.3654 0.8236
41.5055 -23.1830 -1.3387 0.8268
44.3295 -18.8534 -1.3564 0.8247
44.8370 -17.2038 -1.3523 0.8252
44.8755 -15.4022 -1.3360 0.8271
46.1949 -14.0304 -1.3594 0.8243
44.2788 9.2377 -1.2736 0.8344
43.0178 10.5923 -1.2475 0.8375
43.0075 12.2358 -1.2591 0.8362
42.9971 13.9124 -1.2725 0.8346
42.9864 15.6273 -1.2879 0.8327
42.9642 19.1965 -1.3250 0.8284
42.9522 21.0641 -1.3470 0.8258
42.9277 25.0053 -1.3989 0.8197
4.5532 20.2640 -0.5848 0.9203
3.8009 20.2801 -0.5810 0.9208
2.3208 20.3118 -0.5757 0.9214
41.4195 -27.1896 -2.5127 0.8200
41.5553 -21.2989 -2.3681 0.8294
43.5133 -18.5063 -2.3980 0.8275
43.8490 -15.0498 -2.3511 0.8305
42.9467 -13.0438 -2.2763 0.8355
42.7963 -11.3442 -2.2453 0.8375
43.9167 -9.9758 -2.2839 0.8350
45.7955 -3.6876 -2.3300 0.8319
45.8724 -2.0471 -2.3287 0.8320
45.9051 -0.4061 -2.3281 0.8320
45.8942 1.2353 -2.3283 0.8320
45.7358 4.5157 -2.3307 0.8319
44.1916 9.2195 -2.2894 0.8346
43.0176 10.5923 -2.2468 0.8374
42.9862 15.6272 -2.3196 0.8326
42.7534 17.2967 -2.3389 0.8313
39.7470 25.0972 -2.3839 0.8284
39.5823 29.1466 -2.4929 0.8213
37.6585 32.1216 -2.5102 0.8202
33.9923 35.9568 -2.5094 0.8202
32.6814 37.1445 -2.5091 0.8202
31.3290 38.2844 -2.5088 0.8203
28.5065 40.4146 -2.5082 0.8203
13.7626 22.8142 -1.3512 0.8988
13.2628 31.3878 -1.7281 0.8724
9.9618 26.1451 -1.4189 0.8940
6.8851 20.2140 -1.0830 0.9180
6.0930 20.2310 -1.0715 0.9189
5.3165 20.2476 -1.0617 0.9196
3.8009 20.2801 -1.0464 0.9207
-1.3546 46.3040 -2.3493 0.8307
-3.0085 46.2205 -2.3490 0.8307
-4.6580 46.0759 -2.3486 0.8307
-6.3004 45.8682 -2.3480 0.8307
-7.9349 45.6076 -2.3477 0.8308
-9.5592 45.2907 -2.3475 0.8308
-12.7680 44.4832 -2.3470 0.8308
22.7814 -31.0899 -2.8261 0.8568
25.3288 -27.7601 -2.7554 0.8601
27.5222 -24.3296 -2.6934 0.8630
28.8306 -22.0264 -2.6603 0.8646
30.4845 -18.4869 -2.6141 0.8668
30.9387 -17.2808 -2.5984 0.8675
31.3443 -16.0653 -2.5825 0.8683
31.7166 -14.8494 -2.5678 0.8690
32.1636 -13.6792 -2.5627 0.8692
32.5969 -12.5073 -2.5600 0.8693
33.3381 -10.1255 -2.5547 0.8696
33.6457 -8.9186 -2.5522 0.8697
33.9107 -7.7029 -2.5497 0.8698
34.1332 -6.4799 -2.5474 0.8699
34.5628 -1.5424 -2.5367 0.8704
34.5528 -0.3056 -2.5336 0.8706
34.4001 2.1584 -2.5273 0.8709
34.0727 4.5991 -2.5209 0.8712
33.5737 7.0043 -2.5147 0.8715
32.9147 9.3644 -2.5092 0.8718
32.5580 10.5346 -2.5091 0.8718
32.1594 11.6913 -2.5090 0.8718
31.7197 12.8328 -2.5089 0.8718
30.7190 15.0649 -2.5087 0.8718
29.5611 17.2194 -2.5084 0.8718
28.9252 18.2641 -2.5083 0.8718
28.2520 19.2851 -2.5081 0.8718
14.4445 10.6363 -1.3153 0.9306
14.4061 11.4242 -1.3481 0.9289
14.1405 12.9628 -1.4065 0.9259
14.0356 13.8218 -1.4444 0.9240
13.8282 14.6274 -1.4759 0.9224
13.7554 16.8092 -1.5926 0.9166
13.6672 17.9760 -1.6557 0.9134
13.6197 19.3091 -1.7325 0.9096
13.5717 20.7803 -1.8198 0.9052
13.5136 22.4015 -1.9182 0.9004
13.4306 26.3553 -2.1689 0.8881
13.3972 28.7897 -2.3283 0.8804
12.4948 29.5703 -2.3538 0.8792
3.8009 20.2801 -1.5129 0.9206
3.0575 20.2960 -1.5049 0.9210
2.3208 20.3118 -1.4990 0.9213
0.2087 32.0590 -2.3507 0.8793
-0.9374 32.0436 -2.3505 0.8793
-2.0820 31.9870 -2.3503 0.8794
-3.2238 31.8895 -2.3501 0.8794
-5.4931 31.5729 -2.3498 0.8794
-7.7336 31.0952 -2.3494 0.8794
17.8433 -21.0182 -2.6469 0.8951
21.4069 -16.3547 -2.5863 0.8974
22.3446 -14.6679 -2.5661 0.8982
22.7804 -13.8148 -2.5578 0.8985
24.1013 -11.2840 -2.5549 0.8986
24.4786 -10.4108 -2.5538 0.8986
25.1359 -8.6271 -2.5514 0.8987
25.4151 -7.7191 -2.5500 0.8988
26.2684 -3.0636 -2.5390 0.8992
26.3702 -1.1768 -2.5342 0.8994
26.3703 -0.2332 -2.5318 0.8995
26.2694 1.6483 -2.5269 0.8996
25.8679 4.4383 -2.5197 0.8999
24.5516 8.9255 -2.5080 0.9003
24.2091 9.7943 -2.5072 0.9004
22.5627 13.1428 -2.5068 0.9004
22.0775 13.9403 -2.5067 0.9004
14.0422 9.5853 -1.6323 0.9340
13.8994 10.2349 -1.6571 0.9330
13.8755 11.0034 -1.7001 0.9313
13.7939 13.5838 -1.8586 0.9252
13.7140 18.0376 -2.1754 0.9130
12.6721 21.0066 -2.3553 0.9061
11.9121 21.4444 -2.3551 0.9061
11.1368 21.8542 -2.3548 0.9061
8.7306 22.9138 -2.3541 0.9062
6.8851 20.2140 -2.0501 0.9178
6.0930 20.2310 -2.0284 0.9186
3.0575 20.2960 -1.9705 0.9208
2.3208 20.3118 -1.9627 0.9211
1.5891 20.3274 -1.9575 0.9213
0.8602 20.3430 -1.9548 0.9214
-3.3326 24.2622 -2.3512 0.9063
12.1180 -16.5375 -2.4354 0.9207
13.2234 -15.5762 -2.4271 0.9210
15.5535 -12.7885 -2.3919 0.9221
17.0586 -13.0326 -2.5500 0.9172
17.9231 -11.7655 -2.5467 0.9173
18.3276 -11.1145 -2.5461 0.9173
18.7079 -10.4494 -2.5454 0.9173
19.3945 -9.0804 -2.5438 0.9174
19.6998 -8.3784 -2.5429 0.9174
19.9793 -7.6660 -2.5420 0.9174
20.2326 -6.9442 -2.5410 0.9174
20.8324 -4.7321 -2.5376 0.9175
20.9783 -3.9825 -2.5364 0.9176
21.0967 -3.2285 -2.5352 0.9176
21.1877 -2.4711 -2.5339 0.9177
21.2512 -1.7112 -2.5325 0.9177
21.2870 -0.9500 -2.5311 0.9177
21.2953 -0.1883 -2.5297 0.9178
21.2760 0.5727 -2.5282 0.9178
21.2298 1.3321 -2.5268 0.9179
20.3658 5.7942 -2.5152 0.9182
20.1306 6.5136 -2.5133 0.9183
19.5848 7.9234 -2.5096 0.9184
18.5971 9.9601 -2.5059 0.9185
18.2285 10.6181 -2.5059 0.9185
13.8811 11.8402 -2.1672 0.9291
13.8286 12.6768 -2.2284 0.9272
13.6232 14.4105 -2.3556 0.9232
13.1036 14.8934 -2.3564 0.9232
12.5622 15.3512 -2.3562 0.9232
12.0047 15.7894 -2.3561 0.9232
10.8441 16.6039 -2.3557 0.9232
10.2428 16.9795 -2.3555 0.9232
9.0020 17.6649 -2.3551 0.9232
8.3641 17.9739 -2.3549 0.9232
7.7156 18.2598 -2.3547 0.9233
7.0574 18.5224 -2.3545 0.9233
4.3441 19.3330 -2.3537 0.9233
3.6500 19.4745 -2.3536 0.9233
2.9513 19.5910 -2.3534 0.9233
2.2489 19.6825 -2.3532 0.9233
1.5438 19.7489 -2.3530 0.9233
0.8369 19.7901 -2.3529 0.9233
0.1289 19.8060 -2.3527 0.9233
-0.5791 19.7966 -2.3526 0.9233
-1.2863 19.7620 -2.3524 0.9233
-2.6946 19.6172 -2.3521 0.9233
-3.3939 19.5071 -2.3520 0.9233
-4.7784 19.2127 -2.3517 0.9233
-5.4618 19.0286 -2.3516 0.9234
11.2657 -12.3470 -2.3682 0.9347
11.6459 -11.8814 -2.3573 0.9350
12.0575 -11.4521 -2.3562 0.9350
15.2178 -9.2285 -2.5217 0.9306
16.1760 -7.5730 -2.5307 0.9304
16.7024 -6.4086 -2.5348 0.9303
16.9152 -5.8056 -2.5339 0.9303
17.4204 -3.9570 -2.5312 0.9304
17.5437 -3.3305 -2.5302 0.9304
17.6442 -2.7002 -2.5291 0.9304
17.8166 -0.1575 -2.5245 0.9305
17.7648 1.1147 -2.5220 0.9306
17.7045 1.7481 -2.5207 0.9306
17.5158 3.0053 -2.5181 0.9307
17.3878 3.6276 -2.5167 0.9308
17.2374 4.2444 -2.5153 0.9308
16.4098 6.6389 -2.5082 0.9310
16.1505 7.2161 -2.5064 0.9310
14.9085 7.3113 -2.3527 0.9351
14.3639 8.3670 -2.3553 0.9350
14.0643 8.8806 -2.3568 0.9350
13.7432 9.3812 -2.3577 0.9350
13.0355 10.3373 -2.3573 0.9350
12.6568 10.7959 -2.3571 0.9350
11.8515 11.6710 -2.3568 0.9350
11.4260 12.0863 -2.3566 0.9350
10.9859 12.4862 -2.3564 0.9350
9.0915 13.9205 -2.3558 0.9350
8.5875 14.2355 -2.3556 0.9350
7.0127 15.0698 -2.3551 0.9351
6.4691 15.3098 -2.3549 0.9351
5.9173 15.5302 -2.3548 0.9351
5.3580 15.7307 -2.3546 0.9351
3.0605 16.3294 -2.3540 0.9351
1.8858 16.5043 -2.3537 0.9351
1.2946 16.5602 -2.3536 0.9351
0.1081 16.6084 -2.3533 0.9351
-1.0787 16.5718 -2.3530 0.9351
-2.2596 16.4507 -2.3528 0.9351
-2.8461 16.3587 -2.3527 0.9351
8.4518 -11.5342 -2.3557 0.9437
9.2483 -10.8938 -2.3541 0.9437
10.3506 -9.8310 -2.3517 0.9438
10.9817 -9.7078 -2.4146 0.9423
11.7425 -9.6550 -2.5044 0.9402
12.0805 -9.2294 -2.5045 0.9402
12.4031 -8.7920 -2.5046 0.9402
13.0002 -7.8838 -2.5047 0.9402
13.2857 -7.4208 -2.5070 0.9402
13.8185 -6.4697 -2.5136 0.9400
14.0451 -5.9734 -2.5144 0.9400
14.4344 -4.9541 -2.5141 0.9400
14.7489 -3.9096 -2.5136 0.9400
15.2068 -1.2244 -2.5133 0.9400
15.2392 -0.6800 -2.5130 0.9400
15.2504 -0.1348 -2.5124 0.9400
15.2128 0.9546 -2.5111 0.9401
15.0080 2.5750 -2.5085 0.9401
14.2922 5.1958 -2.5052 0.9402
14.0956 5.7027 -2.5049 0.9402
13.8825 6.2028 -2.5049 0.9402
12.8296 6.2918 -2.3540 0.9437
10.5459 9.6675 -2.3568 0.9437
9.8270 10.3950 -2.3566 0.9437
8.6561 11.3852 -2.3561 0.9437
8.2431 11.6866 -2.3560 0.9437
7.8196 11.9730 -2.3558 0.9437
4.6088 13.5310 -2.3548 0.9437
4.1219 13.6863 -2.3547 0.9437
3.6298 13.8241 -2.3546 0.9437
1.1136 14.2454 -2.3539 0.9437
0.6036 14.2753 -2.3538 0.9437
-0.4178 14.2806 -2.3536 0.9437
-1.4368 14.2129 -2.3534 0.9437
-1.9439 14.1519 -2.3533 0.9437
-2.4484 14.0727 -2.3532 0.9437
-3.9404 13.7281 -2.3529 0.9437
7.3948 -10.0917 -2.3516 0.9504
7.7492 -9.8189 -2.3511 0.9504
9.3247 -9.5133 -2.5039 0.9472
9.9812 -8.8233 -2.5040 0.9472
11.8575 -6.0774 -2.5044 0.9472
12.0673 -5.6498 -2.5045 0.9472
12.4406 -4.7734 -2.5046 0.9472
12.7603 -3.8755 -2.5066 0.9472
13.0236 -2.9583 -2.5103 0.9471
13.1197 -2.4907 -2.5100 0.9471
13.3339 -0.5950 -2.5087 0.9471
13.3446 -0.1180 -2.5084 0.9471
13.3144 0.8354 -2.5075 0.9472
13.0490 2.7224 -2.5055 0.9472
12.8167 3.6464 -2.5046 0.9472
12.6781 4.1022 -2.5046 0.9472
12.5231 4.5527 -2.5046 0.9472
12.1655 5.4356 -2.5045 0.9472
11.9632 5.8669 -2.5045 0.9472
10.8117 6.2978 -2.3518 0.9503
10.0865 7.4273 -2.3544 0.9503
9.8183 7.7861 -2.3553 0.9503
9.2427 8.4729 -2.3568 0.9502
8.9334 8.7974 -2.3566 0.9503
8.6128 9.1106 -2.3565 0.9503
8.2812 9.4121 -2.3564 0.9503
7.5867 9.9786 -2.3561 0.9503
6.8537 10.4940 -2.3559 0.9503
6.0858 10.9557 -2.3556 0.9503
5.6900 11.1656 -2.3555 0.9503
4.8772 11.5424 -2.3552 0.9503
4.0397 11.8601 -2.3550 0.9503
3.1817 12.1172 -2.3548 0.9503
2.7464 12.2226 -2.3546 0.9503
2.3076 12.3123 -2.3545 0.9503
1.8659 12.3864 -2.3544 0.9503
1.4219 12.4446 -2.3543 0.9503
0.9761 12.4869 -2.3542 0.9503
0.5292 12.5132 -2.3541 0.9503
-0.3662 12.5180 -2.3539 0.9503
-0.8134 12.4964 -2.3538 0.9503
-1.2595 12.4588 -2.3537 0.9503
-1.7040 12.4054 -2.3536 0.9503
-2.1462 12.3361 -2.3535 0.9503
-2.1430 8.6165 -1.6689 0.9645
-2.4442 8.5155 -1.6652 0.9646
7.6649 -9.0288 -2.5035 0.9527
7.9830 -8.7492 -2.5036 0.9527
8.5881 -8.1570 -2.5037 0.9527
8.8745 -7.8450 -2.5038 0.9527
9.1494 -7.5229 -2.5038 0.9527
9.6640 -6.8503 -2.5039 0.9527
9.9029 -6.5007 -2.5040 0.9527
10.3424 -5.7768 -2.5041 0.9527
10.5425 -5.4034 -2.5041 0.9527
10.9020 -4.6366 -2.5042 0.9527
11.2057 -3.8459 -2.5043 0.9527
11.6399 -2.2097 -2.5044 0.9527
11.7115 -1.7922 -2.5044 0.9527
11.8362 -0.5282 -2.5044 0.9527
11.8475 -0.1047 -2.5044 0.9527
11.7906 1.1642 -2.5044 0.9527
11.7414 1.5849 -2.5044 0.9527
11.6772 2.0036 -2.5044 0.9527
11.3953 3.2420 -2.5043 0.9527
11.2720 3.6473 -2.5043 0.9527
10.8163 4.8328 -2.5042 0.9527
10.2363 5.9627 -2.5041 0.9527
9.1877 6.2716 -2.3514 0.9555
8.9596 6.5975 -2.3519 0.9555
8.4710 7.2256 -2.3535 0.9555
7.6558 8.0983 -2.3557 0.9555
7.3634 8.3691 -2.3563 0.9554
7.0594 8.6267 -2.3562 0.9554
6.7462 8.8731 -2.3561 0.9555
6.4244 9.1081 -2.3560 0.9555
6.0944 9.3315 -2.3559 0.9555
5.0597 9.9289 -2.3556 0.9555
4.7014 10.1029 -2.3555 0.9555
3.9672 10.4121 -2.3552 0.9555
3.5923 10.5467 -2.3551 0.9555
3.2129 10.6679 -2.3550 0.9555
2.0521 10.9491 -2.3547 0.9555
1.2645 11.0668 -2.3545 0.9555
0.0725 11.1373 -2.3542 0.9555
-0.7233 11.1131 -2.3541 0.9555
-1.9087 10.9707 -2.3538 0.9555
-2.2996 10.8952 -2.3537 0.9555
-2.4339 8.4794 -1.8648 0.9646
6.2953 -8.5912 -2.5032 0.9572
6.8934 -8.1199 -2.5033 0.9572
7.7236 -7.3358 -2.5035 0.9572
8.2283 -6.7656 -2.5036 0.9572
9.1093 -5.5242 -2.5038 0.9572
10.0774 -3.4587 -2.5040 0.9572
10.1947 -3.0963 -2.5041 0.9572
10.2989 -2.7299 -2.5041 0.9572
10.5322 -1.6117 -2.5041 0.9572
10.5832 -1.2343 -2.5041 0.9572
10.6444 -0.4750 -2.5042 0.9572
10.6545 -0.0942 -2.5042 0.9572
10.6511 0.2867 -2.5042 0.9572
10.5591 1.4253 -2.5041 0.9572
10.2479 2.9156 -2.5041 0.9572
10.0132 3.6402 -2.5040 0.9572
9.8766 3.9958 -2.5040 0.9572
9.7273 4.3462 -2.5040 0.9572
9.3916 5.0299 -2.5039 0.9572
9.2057 5.3623 -2.5038 0.9572
9.0079 5.6879 -2.5038 0.9572
8.7987 6.0061 -2.5037 0.9572
7.8543 6.2286 -2.3559 0.9596
6.8787 7.2763 -2.3533 0.9597
6.3444 7.7529 -2.3544 0.9597
5.1777 8.5830 -2.3558 0.9596
4.5508 8.9303 -2.3556 0.9597
4.2285 9.0869 -2.3555 0.9597
3.5682 9.3650 -2.3553 0.9597
3.2311 9.4861 -2.3552 0.9597
2.8898 9.5952 -2.3551 0.9597
2.1967 9.7764 -2.3549 0.9597
1.4925 9.9075 -2.3548 0.9597
1.1374 9.9542 -2.3547 0.9597
0.4233 10.0093 -2.3545 0.9597
0.0652 10.0177 -2.3544 0.9597
-0.2929 10.0133 -2.3543 0.9597
-0.6506 9.9961 -2.3543 0.9597
-1.0075 9.9661 -2.3542 0.9597
-1.7169 9.8681 -2.3541 0.9597
-2.0684 9.8001 -2.3540 0.9597
-2.1079 8.4753 -2.0526 0.9648
-2.4262 8.4527 -2.0668 0.9645
5.9892 -7.5889 -2.5031 0.9608
6.2568 -7.3701 -2.5032 0.9608
6.7677 -6.9046 -2.5033 0.9608
7.0104 -6.6584 -2.5033 0.9608
7.2440 -6.4037 -2.5034 0.9608
7.4685 -6.1407 -2.5034 0.9608
7.6833 -5.8700 -2.5035 0.9608
7.8884 -5.5917 -2.5035 0.9608
8.0834 -5.3062 -2.5036 0.9608
8.4421 -4.7153 -2.5037 0.9608
8.8987 -3.7846 -2.5038 0.9608
9.0284 -3.4641 -2.5038 0.9608
9.1466 -3.1392 -2.5038 0.9608
9.3477 -2.4778 -2.5039 0.9608
9.4303 -2.1421 -2.5039 0.9608
9.6704 -0.0855 -2.5039 0.9608
9.6673 0.2603 -2.5039 0.9608
9.6239 0.9503 -2.5039 0.9608
9.4668 1.9751 -2.5039 0.9608
9.3901 2.3122 -2.5039 0.9608
9.3013 2.6463 -2.5039 0.9608
8.8289 3.9448 -2.5037 0.9608
8.6821 4.2578 -2.5037 0.9608
8.1760 5.1625 -2.5036 0.9608
7.9861 5.4514 -2.5036 0.9608
7.7860 5.7333 -2.5035 0.9608
7.2666 6.1983 -2.4729 0.9613
6.4692 6.3707 -2.3508 0.9632
6.2387 6.5993 -2.3513 0.9632
5.7538 7.0313 -2.3524 0.9632
4.6965 7.7854 -2.3542 0.9631
4.4159 7.9496 -2.3545 0.9631
4.1295 8.1035 -2.3549 0.9631
3.8378 8.2471 -2.3552 0.9631
3.5409 8.3801 -2.3555 0.9631
3.2390 8.5010 -2.3554 0.9631
2.3101 8.7979 -2.3551 0.9631
1.9941 8.8746 -2.3551 0.9631
1.0325 9.0361 -2.3548 0.9631
0.3842 9.0862 -2.3547 0.9631
0.0592 9.0938 -2.3546 0.9631
-0.5906 9.0742 -2.3544 0.9631
-0.9146 9.0471 -2.3544 0.9631
-1.2374 9.0084 -2.3543 0.9631
5.7223 -6.7404 -2.5031 0.9639
6.4114 -6.0895 -2.5032 0.9639
6.8303 -5.6160 -2.5033 0.9639
7.0268 -5.3684 -2.5033 0.9639
7.2143 -5.1139 -2.5034 0.9639
7.5615 -4.5855 -2.5035 0.9639
7.7207 -4.3124 -2.5035 0.9639
8.1383 -3.4612 -2.5036 0.9639
8.2569 -3.1681 -2.5036 0.9639
8.3649 -2.8710 -2.5036 0.9639
8.4623 -2.5702 -2.5037 0.9639
8.6890 -1.6495 -2.5037 0.9639
8.7424 -1.3379 -2.5037 0.9639
8.8439 -0.0782 -2.5038 0.9639
8.8269 0.5539 -2.5037 0.9639
8.7647 1.1831 -2.5037 0.9639
8.3117 3.0217 -2.5036 0.9639
7.4773 4.7214 -2.5034 0.9639
6.9286 5.4945 -2.5033 0.9639
6.5181 5.9753 -2.5032 0.9639
5.8690 6.2083 -2.4186 0.9651
5.4848 6.2339 -2.3506 0.9661
5.2586 6.4261 -2.3507 0.9661
4.7878 6.7879 -2.3515 0.9661
4.0355 7.2648 -2.3526 0.9660
3.7738 7.4055 -2.3529 0.9660
3.5071 7.5365 -2.3532 0.9660
2.6809 7.8710 -2.3539 0.9660
2.1120 8.0436 -2.3543 0.9660
0.9442 8.2636 -2.3546 0.9660
0.6482 8.2922 -2.3546 0.9660
0.0541 8.3170 -2.3545 0.9660
-0.2432 8.3134 -2.3545 0.9660
-0.8364 8.2739 -2.3542 0.9660
-1.4252 8.1918 -2.3539 0.9660
-1.7170 8.1349 -2.3536 0.9660
5.0413 -6.3877 -2.5029 0.9665
5.4850 -6.0115 -2.5030 0.9665
5.6965 -5.8117 -2.5030 0.9665
5.9007 -5.6044 -2.5031 0.9665
6.0974 -5.3900 -2.5031 0.9665
6.4671 -4.9408 -2.5032 0.9665
6.6396 -4.7065 -2.5033 0.9665
6.9592 -4.2203 -2.5033 0.9665
7.1056 -3.9688 -2.5034 0.9665
7.2431 -3.7124 -2.5034 0.9665
7.3712 -3.4511 -2.5034 0.9665
7.4900 -3.1855 -2.5035 0.9665
7.5991 -2.9157 -2.5035 0.9665
7.6986 -2.6422 -2.5035 0.9665
7.7882 -2.3654 -2.5035 0.9665
7.9373 -1.8029 -2.5036 0.9665
7.9968 -1.5181 -2.5036 0.9665
8.0460 -1.2313 -2.5036 0.9665
8.1134 -0.6533 -2.5036 0.9665
8.1316 -0.3628 -2.5036 0.9665
8.1394 -0.0719 -2.5036 0.9665
8.1237 0.5097 -2.5036 0.9665
8.0665 1.0888 -2.5036 0.9665
7.9680 1.6624 -2.5036 0.9665
7.6495 2.7810 -2.5035 0.9665
7.5452 3.0526 -2.5035 0.9665
7.3076 3.5838 -2.5034 0.9665
7.1748 3.8427 -2.5034 0.9665
7.0327 4.0966 -2.5033 0.9665
5.7984 5.7101 -2.5031 0.9665
5.3754 6.1096 -2.5030 0.9665
4.4045 6.2444 -2.3504 0.9685
4.1785 6.3978 -2.3503 0.9685
3.9477 6.5441 -2.3507 0.9685
3.4709 6.8111 -2.3513 0.9685
2.9761 7.0433 -2.3518 0.9685
1.9425 7.3977 -2.3525 0.9685
1.6769 7.4628 -2.3526 0.9685
1.1395 7.5640 -2.3528 0.9685
0.8684 7.6000 -2.3528 0.9685
0.0498 7.6491 -2.3527 0.9685
-0.4968 7.6326 -2.3526 0.9685
-1.0407 7.5767 -2.3523 0.9685
-1.3108 7.5341 -2.3521 0.9685
-1.8454 7.4199 -2.3517 0.9685
-2.1092 7.3484 -2.3515 0.9685
5.8165 -4.7824 -2.5031 0.9688
5.9838 -4.5715 -2.5031 0.9688
6.1435 -4.3548 -2.5031 0.9688
6.4391 -3.9048 -2.5032 0.9688
6.8204 -3.1932 -2.5033 0.9688
6.9302 -2.9474 -2.5033 0.9688
7.0312 -2.6978 -2.5033 0.9688
7.1232 -2.4448 -2.5034 0.9688
7.3991 -1.4046 -2.5034 0.9688
7.4446 -1.1392 -2.5034 0.9688
7.5070 -0.6044 -2.5035 0.9688
7.5238 -0.3358 -2.5035 0.9688
7.5286 0.2027 -2.5035 0.9688
7.5165 0.4717 -2.5035 0.9688
7.4636 1.0075 -2.5034 0.9688
7.3725 1.5381 -2.5034 0.9688
7.3128 1.8006 -2.5034 0.9688
7.2434 2.0609 -2.5034 0.9688
6.8758 3.0722 -2.5033 0.9688
6.7615 3.3159 -2.5033 0.9688
6.3674 4.0206 -2.5032 0.9688
6.2196 4.2456 -2.5032 0.9688
5.5507 5.0884 -2.5030 0.9688
5.3651 5.2835 -2.5030 0.9688
4.9738 5.6531 -2.5029 0.9688
4.7684 5.8271 -2.5028 0.9688
3.4544 6.2187 -2.3646 0.9705
3.2101 6.2992 -2.3501 0.9706
2.9828 6.4100 -2.3501 0.9706
2.7521 6.5131 -2.3503 0.9706
2.0395 6.7718 -2.3509 0.9706
1.7962 6.8408 -2.3510 0.9706
1.0537 6.9945 -2.3512 0.9706
0.8030 7.0278 -2.3513 0.9706
0.5513 7.0520 -2.3513 0.9706
0.2988 7.0672 -2.3513 0.9706
0.0460 7.0732 -2.3512 0.9706
-0.2068 7.0701 -2.3511 0.9706
-0.4594 7.0580 -2.3511 0.9706
-0.7114 7.0367 -2.3509 0.9706
-1.4603 6.9187 -2.3505 0.9706
-1.7065 6.8614 -2.3503 0.9706
-1.9505 6.7954 -2.3500 0.9706
4.5294 -5.3353 -2.5028 0.9707
4.7173 -5.1701 -2.5028 0.9707
5.0748 -4.8200 -2.5029 0.9707
5.4064 -4.4452 -2.5030 0.9707
5.9850 -3.6295 -2.5031 0.9707
6.3394 -2.9680 -2.5032 0.9707
6.5354 -2.5076 -2.5032 0.9707
6.6209 -2.2724 -2.5033 0.9707
6.6979 -2.0342 -2.5033 0.9707
6.7664 -1.7936 -2.5033 0.9707
6.9531 -0.8109 -2.5033 0.9707
6.9777 -0.5618 -2.5033 0.9707
6.9933 -0.3121 -2.5033 0.9707
7.0000 -0.0619 -2.5033 0.9707
6.9865 0.4384 -2.5033 0.9707
6.9664 0.6879 -2.5033 0.9707
6.8526 1.4297 -2.5033 0.9707
6.5787 2.3917 -2.5032 0.9707
6.4890 2.6253 -2.5032 0.9707
6.3909 2.8555 -2.5032 0.9707
5.9185 3.7371 -2.5031 0.9707
5.7810 3.9462 -2.5031 0.9707
5.3251 4.5422 -2.5030 0.9707
5.1593 4.7296 -2.5029 0.9707
4.9869 4.9109 -2.5029 0.9707
4.8081 5.0860 -2.5028 0.9707
4.6231 5.2545 -2.5028 0.9707
4.0338 5.7189 -2.5027 0.9707
3.8267 5.8594 -2.5026 0.9707
3.6148 5.9923 -2.5026 0.9707
3.3982 6.1175 -2.5025 0.9707
3.1572 6.1955 -2.4866 0.9709
2.1218 6.2296 -2.3534 0.9724
1.6688 6.3554 -2.3497 0.9725
1.4405 6.4110 -2.3498 0.9725
1.2105 6.4586 -2.3498 0.9725
0.9789 6.4979 -2.3499 0.9725
0.5121 6.5513 -2.3499 0.9725
0.2776 6.5654 -2.3499 0.9725
0.0428 6.5710 -2.3499 0.9725
-0.1921 6.5682 -2.3498 0.9725
-1.3566 6.4276 -2.3492 0.9725
-1.8122 6.3137 -2.3490 0.9725
3.8600 -5.2677 -2.5026 0.9724
4.4019 -4.8244 -2.5028 0.9724
4.7355 -4.4978 -2.5028 0.9724
4.8933 -4.3257 -2.5029 0.9724
5.0449 -4.1480 -2.5029 0.9724
5.1900 -3.9651 -2.5029 0.9724
5.3285 -3.7771 -2.5030 0.9724
5.4602 -3.5843 -2.5030 0.9724
5.5849 -3.3868 -2.5030 0.9724
5.7024 -3.1851 -2.5030 0.9724
5.9155 -2.7696 -2.5031 0.9724
6.0108 -2.5563 -2.5031 0.9724
6.1782 -2.1204 -2.5032 0.9724
6.2501 -1.8982 -2.5032 0.9724
6.3140 -1.6737 -2.5032 0.9724
6.3698 -1.4469 -2.5032 0.9724
6.4569 -0.9881 -2.5032 0.9724
6.4881 -0.7567 -2.5032 0.9724
6.5110 -0.5242 -2.5032 0.9724
6.5256 -0.2912 -2.5032 0.9724
6.5319 -0.0577 -2.5032 0.9724
6.5298 0.1758 -2.5032 0.9724
6.5005 0.6419 -2.5032 0.9724
6.4380 1.1046 -2.5032 0.9724
6.3944 1.3341 -2.5032 0.9724
6.2827 1.7875 -2.5032 0.9724
6.2147 2.0109 -2.5032 0.9724
5.9636 2.6646 -2.5031 0.9724
5.8645 2.8760 -2.5031 0.9724
5.1175 4.0583 -2.5029 0.9724
4.6535 4.5826 -2.5028 0.9724
4.4866 4.7459 -2.5028 0.9724
4.1359 5.0542 -2.5027 0.9724
3.7642 5.3366 -2.5026 0.9724
3.1711 5.7086 -2.5025 0.9724
2.9649 5.8182 -2.5024 0.9724
2.3249 6.1018 -2.5023 0.9724
1.8662 6.1967 -2.4800 0.9727
1.1634 6.2077 -2.4203 0.9733
0.0405 6.2148 -2.3817 0.9737
-0.4046 6.2139 -2.3863 0.9737
-0.6282 6.2127 -2.3929 0.9736
-0.8533 6.2109 -2.4025 0.9735
-1.0801 6.2086 -2.4150 0.9734
-1.7790 6.1981 -2.4711 0.9728
3.6141 -4.9322 -2.5026 0.9739
4.1216 -4.5172 -2.5027 0.9739
4.4339 -4.2113 -2.5028 0.9739
4.9891 -3.5365 -2.5029 0.9739
5.1124 -3.3560 -2.5029 0.9739
5.4424 -2.7895 -2.5030 0.9739
5.8519 -1.7773 -2.5031 0.9739
5.9118 -1.5670 -2.5031 0.9739
6.0748 -0.7084 -2.5031 0.9739
6.1100 -0.2726 -2.5031 0.9739
6.1040 0.3830 -2.5031 0.9739
6.0610 0.8182 -2.5031 0.9739
6.0279 1.0343 -2.5031 0.9739
5.9871 1.2491 -2.5031 0.9739
5.9386 1.4623 -2.5031 0.9739
5.8825 1.6736 -2.5031 0.9739
5.8189 1.8828 -2.5031 0.9739
5.7478 2.0896 -2.5031 0.9739
5.6694 2.2937 -2.5030 0.9739
5.5837 2.4949 -2.5030 0.9739
5.4910 2.6929 -2.5030 0.9739
5.3911 2.8874 -2.5030 0.9739
5.1710 3.2651 -2.5029 0.9739
4.9244 3.6262 -2.5029 0.9739
4.6526 3.9686 -2.5028 0.9739
4.5077 4.1323 -2.5028 0.9739
4.3571 4.2907 -2.5027 0.9739
3.8725 4.7323 -2.5026 0.9739
3.5244 4.9967 -2.5026 0.9739
3.3435 5.1194 -2.5025 0.9739
2.9691 5.3450 -2.5024 0.9739
2.7761 5.4477 -2.5024 0.9739
2.1769 5.7133 -2.5023 0.9739
1.9712 5.7873 -2.5022 0.9739
1.7630 5.8540 -2.5022 0.9739
1.5526 5.9132 -2.5021 0.9739
1.3402 5.9647 -2.5021 0.9739
1.1262 6.0087 -2.5020 0.9739
0.6940 6.0736 -2.5019 0.9739
0.4764 6.0944 -2.5019 0.9739
0.0398 6.1126 -2.5018 0.9739
-0.6148 6.0814 -2.5016 0.9739
-1.0477 6.0217 -2.5015 0.9739
-1.6862 5.8746 -2.5014 0.9739
3.5574 -4.5076 -2.5026 0.9753
4.1638 -3.9547 -2.5027 0.9753
4.3025 -3.8034 -2.5027 0.9753
4.6851 -3.3211 -2.5028 0.9753
5.1108 -2.6195 -2.5029 0.9753
5.2012 -2.4351 -2.5029 0.9753
5.2850 -2.2477 -2.5030 0.9753
5.4954 -1.6690 -2.5030 0.9753
5.6006 -1.2722 -2.5030 0.9753
5.6425 -1.0712 -2.5030 0.9753
5.6772 -0.8688 -2.5030 0.9753
5.7047 -0.6653 -2.5030 0.9753
5.7377 -0.2560 -2.5031 0.9753
5.7431 -0.0507 -2.5031 0.9753
5.5240 1.5717 -2.5030 0.9753
5.4643 1.7681 -2.5030 0.9753
5.3976 1.9623 -2.5030 0.9753
5.2435 2.3429 -2.5029 0.9753
5.1564 2.5288 -2.5029 0.9753
5.0627 2.7115 -2.5029 0.9753
4.7432 3.2378 -2.5028 0.9753
4.4996 3.5683 -2.5028 0.9753
4.3691 3.7268 -2.5027 0.9753
4.2331 3.8805 -2.5027 0.9753
4.0916 4.0293 -2.5027 0.9753
3.6366 4.4440 -2.5026 0.9753
3.4754 4.5711 -2.5025 0.9753
3.3097 4.6923 -2.5025 0.9753
2.9659 4.9167 -2.5024 0.9753
2.7882 5.0195 -2.5024 0.9753
2.6070 5.1158 -2.5024 0.9753
2.0443 5.3653 -2.5022 0.9753
1.8511 5.4348 -2.5022 0.9753
1.6557 5.4974 -2.5021 0.9753
1.4581 5.5530 -2.5021 0.9753
1.0576 5.6427 -2.5020 0.9753
0.8552 5.6768 -2.5020 0.9753
0.4474 5.7232 -2.5019 0.9753
0.2425 5.7355 -2.5018 0.9753
-0.7811 5.6867 -2.5016 0.9753
-0.9838 5.6550 -2.5015 0.9753
-1.3853 5.5700 -2.5015 0.9753
3.3493 -4.2439 -2.5025 0.9765
3.6441 -3.9939 -2.5026 0.9765
3.7846 -3.8610 -2.5026 0.9765
4.0508 -3.5809 -2.5027 0.9765
4.2964 -3.2824 -2.5027 0.9764
4.4110 -3.1268 -2.5028 0.9764
4.5200 -2.9671 -2.5028 0.9764
4.7206 -2.6367 -2.5028 0.9764
4.8970 -2.2927 -2.5029 0.9764
5.0483 -1.9370 -2.5029 0.9764
5.1144 -1.7553 -2.5029 0.9764
5.1739 -1.5714 -2.5029 0.9764
5.2268 -1.3854 -2.5029 0.9764
5.3451 -0.8179 -2.5030 0.9764
5.3709 -0.6264 -2.5030 0.9764
5.3899 -0.4340 -2.5030 0.9764
5.4054 0.1455 -2.5030 0.9764
5.3812 0.5314 -2.5030 0.9764
5.3587 0.7234 -2.5030 0.9764
5.3294 0.9144 -2.5030 0.9764
5.2504 1.2929 -2.5029 0.9764
5.2009 1.4797 -2.5029 0.9764
5.1446 1.6647 -2.5029 0.9764
5.0818 1.8475 -2.5029 0.9764
5.0125 2.0279 -2.5029 0.9764
4.9367 2.2058 -2.5029 0.9764
4.7665 2.5528 -2.5028 0.9764
4.3538 3.2060 -2.5027 0.9764
4.1136 3.5088 -2.5027 0.9765
3.9855 3.6535 -2.5027 0.9765
3.8523 3.7936 -2.5026 0.9765
3.7142 3.9288 -2.5026 0.9765
3.5713 4.0591 -2.5026 0.9765
3.2721 4.3037 -2.5025 0.9765
3.1161 4.4179 -2.5025 0.9765
2.7924 4.6291 -2.5024 0.9765
2.6252 4.7259 -2.5024 0.9765
2.4545 4.8166 -2.5023 0.9765
2.1041 4.9795 -2.5022 0.9765
1.9247 5.0515 -2.5022 0.9765
1.3728 5.2282 -2.5021 0.9765
1.1850 5.2738 -2.5020 0.9765
0.9957 5.3128 -2.5020 0.9765
0.4212 5.3885 -2.5019 0.9765
0.2283 5.4001 -2.5018 0.9765
-0.1580 5.4024 -2.5017 0.9765
-1.1160 5.2878 -2.5015 0.9765
-1.4909 5.1943 -2.5014 0.9765
3.1605 -4.0047 -2.5025 0.9775
3.3017 -3.8892 -2.5025 0.9775
3.4387 -3.7687 -2.5025 0.9775
3.5713 -3.6435 -2.5026 0.9775
3.6992 -3.5135 -2.5026 0.9775
3.8225 -3.3791 -2.5026 0.9775
4.0542 -3.0974 -2.5027 0.9775
4.2653 -2.7999 -2.5027 0.9775
4.5406 -2.3272 -2.5028 0.9775
4.6209 -2.1634 -2.5028 0.9775
4.6953 -1.9969 -2.5028 0.9775
4.7637 -1.8278 -2.5028 0.9775
4.8261 -1.6563 -2.5029 0.9775
4.8822 -1.4828 -2.5029 0.9775
4.9321 -1.3073 -2.5029 0.9775
4.9757 -1.1302 -2.5029 0.9775
5.0438 -0.7718 -2.5029 0.9775
5.0682 -0.5911 -2.5029 0.9775
5.0861 -0.4095 -2.5029 0.9775
5.0975 -0.2274 -2.5029 0.9775
5.1023 -0.0451 -2.5029 0.9775
5.0778 0.5014 -2.5029 0.9775
5.0567 0.6826 -2.5029 0.9775
4.9545 1.2200 -2.5029 0.9775
4.9077 1.3963 -2.5029 0.9775
4.7954 1.7434 -2.5028 0.9775
4.7299 1.9136 -2.5028 0.9775
4.5809 2.2467 -2.5028 0.9775
4.4088 2.5682 -2.5028 0.9775
4.3141 2.7241 -2.5027 0.9775
3.9976 3.1702 -2.5027 0.9775
3.8817 3.3110 -2.5026 0.9775
3.7608 3.4476 -2.5026 0.9775
3.3700 3.8303 -2.5025 0.9775
3.2309 3.9483 -2.5025 0.9775
3.0877 4.0612 -2.5025 0.9775
2.9405 4.1689 -2.5024 0.9775
2.4772 4.4595 -2.5023 0.9775
2.3162 4.5451 -2.5023 0.9775
2.1522 4.6250 -2.5023 0.9775
1.9855 4.6989 -2.5022 0.9775
1.8162 4.7668 -2.5022 0.9775
1.2954 4.9336 -2.5021 0.9775
0.9396 5.0134 -2.5020 0.9775
0.7598 5.0437 -2.5019 0.9775
0.3975 5.0849 -2.5019 0.9775
0.2155 5.0958 -2.5018 0.9775
0.0332 5.1001 -2.5018 0.9775
-0.1491 5.0980 -2.5017 0.9775
-0.6940 5.0525 -2.5016 0.9775
-0.8741 5.0244 -2.5016 0.9775
-1.0532 4.9898 -2.5015 0.9775
-1.2308 4.9489 -2.5015 0.9775
2.8511 -3.8908 -2.5024 0.9785
3.1218 -3.6773 -2.5025 0.9785
3.6142 -3.1949 -2.5026 0.9785
3.7262 -3.0638 -2.5026 0.9785
3.8333 -2.9286 -2.5026 0.9785
4.0329 -2.6473 -2.5027 0.9785
4.5042 -1.7282 -2.5028 0.9785
4.7398 -0.8998 -2.5028 0.9785
4.7689 -0.7298 -2.5028 0.9785
4.7920 -0.5588 -2.5028 0.9785
4.8089 -0.3872 -2.5028 0.9785
4.8197 -0.2151 -2.5029 0.9785
4.8243 -0.0426 -2.5029 0.9785
4.8150 0.3021 -2.5028 0.9785
4.7550 0.8159 -2.5028 0.9785
4.6845 1.1535 -2.5028 0.9785
4.6403 1.3202 -2.5028 0.9785
4.4046 1.9681 -2.5028 0.9785
4.2526 2.2777 -2.5027 0.9785
4.1686 2.4282 -2.5027 0.9785
4.0791 2.5757 -2.5027 0.9785
3.7798 2.9975 -2.5026 0.9785
3.5559 3.2598 -2.5026 0.9785
3.4371 3.3848 -2.5025 0.9785
3.0549 3.7331 -2.5025 0.9785
2.9195 3.8399 -2.5024 0.9785
2.6376 4.0386 -2.5024 0.9785
2.1900 4.2976 -2.5023 0.9785
2.0350 4.3730 -2.5022 0.9785
1.8773 4.4429 -2.5022 0.9785
1.2249 4.6649 -2.5020 0.9785
1.0573 4.7056 -2.5020 0.9785
0.7184 4.7689 -2.5019 0.9785
0.5475 4.7915 -2.5019 0.9785
0.2037 4.8182 -2.5018 0.9785
-0.1410 4.8203 -2.5017 0.9785
-0.3132 4.8121 -2.5017 0.9785
-0.4850 4.7978 -2.5017 0.9785
-0.6562 4.7773 -2.5016 0.9785
-0.9958 4.7181 -2.5015 0.9785
-1.3303 4.6347 -2.5015 0.9785
2.7005 -3.6853 -2.5024 0.9794
2.8305 -3.5865 -2.5024 0.9794
3.0796 -3.3751 -2.5025 0.9794
3.3129 -3.1466 -2.5025 0.9794
3.5293 -2.9019 -2.5026 0.9794
3.6308 -2.7739 -2.5026 0.9794
3.7277 -2.6424 -2.5026 0.9794
3.9070 -2.3693 -2.5026 0.9794
3.9893 -2.2282 -2.5027 0.9794
4.2662 -1.6369 -2.5027 0.9794
4.3220 -1.4833 -2.5027 0.9794
4.3723 -1.3279 -2.5028 0.9794
4.4170 -1.1708 -2.5028 0.9794
4.4560 -1.0122 -2.5028 0.9794
4.5388 -0.5293 -2.5028 0.9794
4.5549 -0.3667 -2.5028 0.9794
4.5651 -0.2037 -2.5028 0.9794
4.5694 -0.0404 -2.5028 0.9794
4.5680 0.1230 -2.5028 0.9794
4.5606 0.2862 -2.5028 0.9794
4.5475 0.4490 -2.5028 0.9794
4.5285 0.6113 -2.5028 0.9794
4.3951 1.2505 -2.5028 0.9794
4.2945 1.5613 -2.5027 0.9794
4.1720 1.8641 -2.5027 0.9794
3.9486 2.2999 -2.5027 0.9794
3.8636 2.4396 -2.5026 0.9794
3.6794 2.7093 -2.5026 0.9794
3.5801 2.8391 -2.5026 0.9794
3.4763 2.9653 -2.5025 0.9794
3.3681 3.0876 -2.5025 0.9794
3.0181 3.4303 -2.5024 0.9794
2.8935 3.5359 -2.5024 0.9794
2.2185 3.9939 -2.5023 0.9794
2.0743 4.0706 -2.5022 0.9794
1.9275 4.1421 -2.5022 0.9794
1.7782 4.2083 -2.5022 0.9794
1.6266 4.2691 -2.5021 0.9794
1.4729 4.3244 -2.5021 0.9794
0.8415 4.4899 -2.5020 0.9794
0.6805 4.5171 -2.5019 0.9794
0.0297 4.5677 -2.5018 0.9794
-0.1336 4.5658 -2.5017 0.9794
-0.6215 4.5250 -2.5016 0.9794
-0.7829 4.4999 -2.5016 0.9794
-1.1023 4.4323 -2.5015 0.9794
2.5618 -3.4960 -2.5023 0.9802
2.6851 -3.4023 -2.5024 0.9802
3.0340 -3.0954 -2.5025 0.9802
3.1428 -2.9849 -2.5025 0.9802
3.3481 -2.7529 -2.5025 0.9802
3.7063 -2.2476 -2.5026 0.9802
4.0471 -1.5528 -2.5027 0.9802
4.2272 -0.9602 -2.5027 0.9802
4.2588 -0.8084 -2.5027 0.9802
4.3306 -0.1932 -2.5027 0.9802
4.3347 -0.0383 -2.5027 0.9802
4.3333 0.1167 -2.5027 0.9802
4.2959 0.5799 -2.5027 0.9802
4.2724 0.7331 -2.5027 0.9802
4.2435 0.8853 -2.5027 0.9802
4.2091 1.0364 -2.5027 0.9802
4.1694 1.1862 -2.5027 0.9802
4.1243 1.3345 -2.5027 0.9802
4.0184 1.6257 -2.5027 0.9802
3.9577 1.7683 -2.5027 0.9802
3.8919 1.9087 -2.5026 0.9802
3.8211 2.0465 -2.5026 0.9802
3.5800 2.4438 -2.5026 0.9802
3.3962 2.6933 -2.5025 0.9802
3.2978 2.8129 -2.5025 0.9802
3.1951 2.9290 -2.5025 0.9802
2.9776 3.1497 -2.5024 0.9802
2.6232 3.4503 -2.5024 0.9802
2.3700 3.6288 -2.5023 0.9802
2.2387 3.7111 -2.5023 0.9802
2.1046 3.7887 -2.5022 0.9802
1.6869 3.9921 -2.5021 0.9802
1.5430 4.0498 -2.5021 0.9802
1.3973 4.1023 -2.5021 0.9802
1.2497 4.1496 -2.5020 0.9802
1.1006 4.1916 -2.5020 0.9802
0.9500 4.2282 -2.5020 0.9802
0.4919 4.3054 -2.5019 0.9802
-0.5896 4.2927 -2.5016 0.9802
-0.7427 4.2688 -2.5016 0.9802
-0.8948 4.2395 -2.5016 0.9802
