ply
format ascii 1.0
element vertex 1002
property float32 x
property float32 y
property float32 z
property float32 I
end_header
46.4755 9.8042 8.3753 0.8245
46.5121 11.5673 8.4512 0.8231
44.8661 20.1957 8.6756 0.8189
11.6076 21.1142 4.2485 0.9068
3.6833 20.2332 3.6263 0.9199
1.4737 20.2805 3.5854 0.9207
-0.7116 20.3273 3.5864 0.9207
-1.4434 20.3429 3.5960 0.9205
-4.6966 8.5775 1.7243 0.9611
45.9197 9.6870 7.1895 0.8270
44.6718 11.1096 7.0519 0.8300
44.7088 12.8365 7.1259 0.8284
44.7466 14.6022 7.2107 0.8266
44.8658 20.1956 7.5374 0.8195
3.6832 20.2332 3.1506 0.9201
2.2050 20.2649 3.1228 0.9208
0.7451 20.2961 3.1113 0.9211
0.0173 20.3117 3.1116 0.9211
-1.4434 20.3429 3.1243 0.9208
45.9197 9.6870 6.1113 0.8275
44.6716 11.1096 5.9944 0.8305
44.7086 12.8364 6.0572 0.8289
44.8656 20.1955 6.4070 0.8200
11.6048 21.1091 3.1368 0.9074
4.4342 20.2172 2.6953 0.9199
3.6833 20.2332 2.6781 0.9204
2.9408 20.2491 2.6645 0.9208
1.4737 20.2805 2.6479 0.9213
0.7451 20.2961 2.6448 0.9213
-0.7116 20.3272 2.6487 0.9212
-1.4434 20.3429 2.6557 0.9210
-4.6958 8.5761 1.2732 0.9613
43.9372 -15.0369 4.9867 0.8296
46.5113 11.5671 5.1466 0.8246
11.6034 21.1066 2.5864 0.9076
4.4342 20.2172 2.2226 0.9201
3.6833 20.2332 2.2084 0.9206
1.4737 20.2805 2.1835 0.9215
0.0173 20.3116 2.1811 0.9215
-0.7116 20.3272 2.1841 0.9214
44.7081 12.8363 3.9376 0.8297
44.7459 14.6020 3.9845 0.8278
46.6326 17.0898 4.2043 0.8192
44.8651 20.1953 4.1650 0.8208
4.4342 20.2172 1.7521 0.9203
3.6833 20.2332 1.7409 0.9208
2.9408 20.2491 1.7321 0.9211
2.2050 20.2648 1.7256 0.9214
0.7451 20.2961 1.7193 0.9217
0.0173 20.3116 1.7194 0.9217
-0.7116 20.3272 1.7218 0.9216
-4.6950 8.5746 0.8276 0.9615
40.7851 -19.0650 2.7918 0.8349
45.6382 -15.6190 2.9912 0.8242
46.4156 9.7916 2.9416 0.8269
46.0362 11.4490 2.9417 0.8269
44.7079 12.8362 2.8844 0.8299
44.7457 14.6019 2.9187 0.8281
44.8648 20.1952 3.0509 0.8210
11.6007 21.1016 1.4932 0.9080
7.7450 23.1049 1.5111 0.9070
3.6833 20.2332 1.2753 0.9209
2.9408 20.2491 1.2688 0.9213
2.2050 20.2648 1.2640 0.9216
1.4737 20.2805 1.2609 0.9217
0.7451 20.2961 1.2594 0.9218
-0.7116 20.3272 1.2613 0.9217
-4.6946 8.5739 0.6061 0.9616
42.4459 -18.0173 1.8182 0.8314
42.4835 -16.2624 1.7937 0.8335
46.4741 9.8039 1.8729 0.8268
46.5106 11.5669 1.8898 0.8254
44.7455 14.6019 1.8559 0.8283
11.5993 21.0991 0.9494 0.9081
4.4342 20.2171 0.8161 0.9205
3.6830 20.2318 0.8109 0.9210
2.9406 20.2476 0.8068 0.9214
1.4736 20.2790 0.8017 0.9218
0.7450 20.2946 0.8008 0.9219
-1.4433 20.3415 0.8041 0.9216
-4.6942 8.5731 0.3854 0.9616
40.1649 -18.7751 0.7489 0.8375
42.4457 -18.0172 0.7789 0.8315
42.4832 -16.2623 0.7684 0.8336
42.5198 -14.5519 0.7591 0.8354
46.5494 -14.0888 0.8215 0.8232
44.6705 11.1093 0.7776 0.8318
40.2656 14.7564 0.7244 0.8423
44.4835 21.9733 0.8381 0.8200
11.5980 21.0966 0.4067 0.9082
2.2048 20.2634 0.3443 0.9217
-0.7115 20.3258 0.3436 0.9219
-1.4433 20.3415 0.3445 0.9217
-4.6938 8.5724 0.1651 0.9617
42.4455 -18.0171 -0.2596 0.8316
42.6064 -16.3094 -0.2569 0.8332
46.5618 -14.0925 -0.2739 0.8232
43.6161 9.2010 -0.2510 0.8367
40.6467 10.1086 -0.2358 0.8457
40.6270 13.2579 -0.2406 0.8429
39.7780 14.5778 -0.2385 0.8441
40.6065 16.5550 -0.2469 0.8391
40.5611 23.7924 -0.2648 0.8285
40.5361 27.8622 -0.2769 0.8214
11.5966 21.0942 -0.1355 0.9082
7.4048 25.0334 -0.1470 0.9008
6.3555 24.7092 -0.1436 0.9030
3.6830 20.2318 -0.1158 0.9210
2.2048 20.2634 -0.1148 0.9217
1.4736 20.2790 -0.1145 0.9219
0.0173 20.3102 -0.1144 0.9220
-1.4433 20.3415 -0.1148 0.9217
-4.6934 8.5717 -0.0550 0.9617
40.1649 -18.7751 -1.2484 0.8374
42.4453 -18.0170 -1.2984 0.8315
42.4840 -16.2626 -1.2809 0.8336
40.6063 16.5550 -1.2348 0.8391
11.5952 21.0917 -0.6777 0.9082
4.4339 20.2157 -0.5828 0.9205
3.6830 20.2318 -0.5790 0.9210
2.2048 20.2634 -0.5739 0.9217
0.0173 20.3102 -0.5719 0.9219
-0.7115 20.3258 -0.5727 0.9218
-4.6930 8.5710 -0.2751 0.9617
42.7203 -16.3530 -2.3198 0.8326
42.3792 -12.8266 -2.2455 0.8375
44.7012 -8.4287 -2.3069 0.8334
44.8759 -6.8065 -2.3019 0.8338
45.0136 -5.1850 -2.2979 0.8340
45.2107 -0.3234 -2.2929 0.8344
45.1203 4.5443 -2.2998 0.8339
42.5975 7.4027 -2.1927 0.8410
43.1653 9.1059 -2.2373 0.8380
40.6266 13.2577 -2.1673 0.8427
39.7776 14.5776 -2.1485 0.8439
40.6061 16.5549 -2.2239 0.8389
40.5843 20.0472 -2.2956 0.8342
40.4605 21.8235 -2.3314 0.8318
39.2350 24.9462 -2.3579 0.8301
38.3125 26.3338 -2.3577 0.8301
37.2023 29.7085 -2.4145 0.8264
36.3586 33.5708 -2.5097 0.8202
31.1748 38.4040 -2.5086 0.8203
28.3371 40.5282 -2.5079 0.8203
26.8632 41.5125 -2.5076 0.8203
25.3549 42.4427 -2.5073 0.8204
11.5939 21.0892 -1.2205 0.9081
10.8407 32.3400 -1.7298 0.8723
7.6871 25.9878 -1.3744 0.8971
3.6830 20.2317 -1.0429 0.9209
2.2048 20.2634 -1.0337 0.9216
-0.7115 20.3258 -1.0314 0.9218
-4.9309 46.0471 -2.3486 0.8307
-6.5772 45.8358 -2.3483 0.8307
-13.0499 44.3954 -2.3467 0.8308
-17.7333 42.7246 -2.3460 0.8309
-19.2508 42.0568 -2.3457 0.8309
-20.7430 41.3350 -2.3454 0.8309
-4.6926 8.5703 -0.4955 0.9616
33.2651 -10.0681 -2.5483 0.8699
33.8351 -7.6448 -2.5434 0.8701
34.0561 -6.4215 -2.5411 0.8702
34.3693 -3.9589 -2.5367 0.8704
34.4613 -2.7225 -2.5347 0.8705
34.5103 -1.4847 -2.5327 0.8706
34.5163 -0.2469 -2.5309 0.8707
34.3899 2.2224 -2.5268 0.8709
34.2452 3.4490 -2.5236 0.8711
34.0570 4.6682 -2.5205 0.8712
33.8257 5.8783 -2.5173 0.8714
33.5517 7.0779 -2.5142 0.8715
33.2355 8.2655 -2.5111 0.8717
32.8892 9.4429 -2.5089 0.8718
32.5287 10.6151 -2.5089 0.8718
31.6825 12.9167 -2.5087 0.8718
31.1979 14.0432 -2.5086 0.8718
29.5063 17.3079 -2.5082 0.8718
27.4734 20.3709 -2.5077 0.8718
25.9403 22.2834 -2.5074 0.8718
25.1234 23.1970 -2.5072 0.8718
24.2741 24.0807 -2.5071 0.8719
23.3939 24.9332 -2.5069 0.8719
12.0712 13.8268 -1.3458 0.9290
11.7945 14.5296 -1.3722 0.9277
11.6016 15.3877 -1.4130 0.9256
11.5114 16.4638 -1.4730 0.9226
11.2693 18.8642 -1.6112 0.9156
11.0955 24.1315 -1.9474 0.8990
7.6468 25.8515 -1.9767 0.8975
6.6984 26.0425 -1.9716 0.8978
4.4339 20.2157 -1.5175 0.9203
3.6830 20.2317 -1.5078 0.9208
2.2048 20.2634 -1.4945 0.9215
0.7450 20.2946 -1.4890 0.9218
0.0173 20.3102 -1.4892 0.9218
-3.4126 31.8680 -2.3500 0.8794
-4.5521 31.7230 -2.3498 0.8794
-9.0354 30.7384 -2.3492 0.8794
-10.1305 30.3930 -2.3490 0.8794
-11.2124 30.0085 -2.3489 0.8794
-12.2798 29.5857 -2.3487 0.8794
-13.3314 29.1249 -2.3486 0.8794
-14.3658 28.6269 -2.3485 0.8794
-4.6922 8.5695 -0.7164 0.9616
-16.3776 27.5216 -2.3482 0.8795
24.1349 -11.2819 -2.5577 0.8985
25.6628 -6.7734 -2.5481 0.8988
25.8653 -5.8441 -2.5458 0.8989
26.0340 -4.9088 -2.5434 0.8990
26.2693 -3.0259 -2.5387 0.8992
26.3360 -2.0806 -2.5363 0.8993
26.3685 -1.1344 -2.5338 0.8994
26.3670 -0.1886 -2.5314 0.8995
26.2625 1.6972 -2.5266 0.8996
26.1597 2.6347 -2.5242 0.8997
25.6525 5.4115 -2.5170 0.9000
24.8537 8.1106 -2.5099 0.9003
23.8116 10.7184 -2.5070 0.9004
23.4114 11.5644 -2.5069 0.9004
22.9811 12.3955 -2.5068 0.9004
22.0324 14.0085 -2.5066 0.9004
21.5153 14.7884 -2.5065 0.9004
12.0273 9.6046 -1.4777 0.9400
11.6623 10.0182 -1.4760 0.9401
11.4351 12.1875 -1.6044 0.9350
11.4422 13.1063 -1.6703 0.9325
11.4432 15.1776 -1.8249 0.9265
11.3642 17.5614 -2.0082 0.9194
11.2097 20.3904 -2.2339 0.9107
9.4392 22.6327 -2.3543 0.9062
8.6212 22.9541 -2.3540 0.9062
6.9536 23.5081 -2.3536 0.9062
6.1061 23.7399 -2.3533 0.9062
3.6830 20.2317 -1.9743 0.9207
2.9406 20.2476 -1.9643 0.9211
0.0173 20.3102 -1.9499 0.9216
-0.7115 20.3258 -1.9526 0.9215
-1.4433 20.3415 -1.9578 0.9213
-3.4785 24.2416 -2.3512 0.9063
-4.3447 24.0997 -2.3510 0.9063
-5.2052 23.9270 -2.3508 0.9063
-7.7416 23.2259 -2.3504 0.9063
-9.3843 22.6094 -2.3502 0.9063
-10.1880 22.2575 -2.3500 0.9063
-4.6918 8.5688 -0.9379 0.9615
19.4219 -9.0787 -2.5467 0.9173
19.7278 -8.3740 -2.5458 0.9173
20.2613 -6.9342 -2.5438 0.9174
21.2108 -2.4432 -2.5362 0.9176
21.2986 -0.9163 -2.5323 0.9177
21.3013 -0.1524 -2.5304 0.9178
21.2767 0.6106 -2.5284 0.9178
21.0394 2.8839 -2.5226 0.9180
20.9064 3.6332 -2.5206 0.9181
20.3492 5.8425 -2.5149 0.9183
20.1116 6.5631 -2.5130 0.9183
19.2486 8.6645 -2.5074 0.9185
18.9141 9.3429 -2.5059 0.9185
18.5666 10.0144 -2.5058 0.9185
18.1952 10.6730 -2.5057 0.9185
17.8004 11.3178 -2.5056 0.9185
11.5134 13.1879 -2.0795 0.9319
11.3574 16.2444 -2.3544 0.9233
10.7728 16.6476 -2.3554 0.9232
10.1691 17.0225 -2.3554 0.9232
9.5519 17.3748 -2.3552 0.9232
8.2815 18.0113 -2.3548 0.9233
7.6301 18.2951 -2.3546 0.9233
6.9690 18.5552 -2.3544 0.9233
3.5484 19.4928 -2.3535 0.9233
2.8474 19.6060 -2.3533 0.9233
2.1428 19.6940 -2.3532 0.9233
1.4356 19.7568 -2.3530 0.9233
0.7267 19.7942 -2.3529 0.9233
0.0169 19.8062 -2.3527 0.9233
-0.6929 19.7928 -2.3525 0.9233
-1.4016 19.7540 -2.3524 0.9233
-2.8126 19.6005 -2.3521 0.9233
-4.8991 19.1824 -2.3517 0.9233
-5.5831 18.9935 -2.3516 0.9234
-6.2599 18.7804 -2.3515 0.9234
-6.9285 18.5432 -2.3514 0.9234
-7.5883 18.2823 -2.3513 0.9234
-8.2382 17.9979 -2.3512 0.9234
-8.8776 17.6905 -2.3511 0.9234
16.2346 -7.5888 -2.5392 0.9302
16.7263 -6.4027 -2.5376 0.9302
17.1303 -5.1847 -2.5359 0.9302
17.2987 -4.5658 -2.5350 0.9303
17.4445 -3.9415 -2.5340 0.9303
17.5675 -3.3125 -2.5330 0.9303
17.7446 -2.0439 -2.5308 0.9304
17.7984 -1.4061 -2.5297 0.9304
17.8291 -0.7671 -2.5285 0.9304
17.8367 -0.1275 -2.5273 0.9305
17.7824 1.1492 -2.5248 0.9305
17.5287 3.0462 -2.5208 0.9306
17.3997 3.6706 -2.5196 0.9307
17.0719 4.9016 -2.5166 0.9308
16.6561 6.1041 -2.5135 0.9308
16.4165 6.6930 -2.5119 0.9309
16.1563 7.2725 -2.5104 0.9309
15.8757 7.8421 -2.5089 0.9310
15.2553 8.9485 -2.5059 0.9310
14.9194 9.4860 -2.5050 0.9311
11.8709 9.4797 -2.1525 0.9405
11.5190 10.6358 -2.2214 0.9386
11.4850 11.3934 -2.2922 0.9367
10.0104 13.2771 -2.3560 0.9350
9.5275 13.6265 -2.3559 0.9350
8.5259 14.2719 -2.3555 0.9350
7.4807 14.8438 -2.3552 0.9351
6.9435 15.1013 -2.3550 0.9351
6.3974 15.3394 -2.3549 0.9351
5.8432 15.5577 -2.3547 0.9351
4.1390 16.0918 -2.3542 0.9351
3.5594 16.2287 -2.3541 0.9351
2.3876 16.4400 -2.3538 0.9351
1.7968 16.5140 -2.3537 0.9351
1.2038 16.5668 -2.3535 0.9351
0.6093 16.5984 -2.3534 0.9351
0.0141 16.6086 -2.3533 0.9351
-1.7681 16.5116 -2.3529 0.9351
-2.9460 16.3410 -2.3527 0.9351
-6.3638 15.3322 -2.3521 0.9351
-6.9089 15.0938 -2.3520 0.9351
-7.4451 14.8360 -2.3519 0.9351
14.1480 -6.0052 -2.5320 0.9396
14.5402 -4.9761 -2.5317 0.9396
14.7048 -4.4506 -2.5310 0.9396
14.9761 -3.3837 -2.5293 0.9397
15.1694 -2.3008 -2.5276 0.9397
15.2836 -1.2074 -2.5257 0.9397
15.3110 -0.6587 -2.5247 0.9398
15.3061 0.4393 -2.5226 0.9398
15.0594 2.6171 -2.5181 0.9399
14.8193 3.6855 -2.5157 0.9400
14.6706 4.2122 -2.5145 0.9400
14.5031 4.7329 -2.5132 0.9400
14.1059 5.7509 -2.5095 0.9401
13.6391 6.7373 -2.5061 0.9402
11.7783 8.0958 -2.3545 0.9437
11.4870 8.5173 -2.3558 0.9437
10.8521 9.3223 -2.3568 0.9437
10.5108 9.7049 -2.3568 0.9437
9.7875 10.4316 -2.3565 0.9437
9.4068 10.7749 -2.3563 0.9437
8.6099 11.4196 -2.3560 0.9437
8.1946 11.7201 -2.3559 0.9437
7.3332 12.2755 -2.3556 0.9437
4.5431 13.5529 -2.3548 0.9437
3.5603 13.8419 -2.3545 0.9437
3.0618 13.9598 -2.3544 0.9437
2.5594 14.0598 -2.3543 0.9437
0.5242 14.2783 -2.3538 0.9437
-1.0111 14.2501 -2.3535 0.9437
-3.0363 13.9571 -2.3531 0.9437
-4.5162 13.5492 -2.3528 0.9437
-4.9987 13.3782 -2.3527 0.9437
-5.4747 13.1901 -2.3527 0.9437
-5.9437 12.9851 -2.3526 0.9438
-4.6788 8.5451 -1.6049 0.9613
12.3122 -5.2262 -2.5141 0.9470
12.4910 -4.7814 -2.5139 0.9470
13.0563 -2.9500 -2.5159 0.9470
13.3668 -0.5751 -2.5148 0.9470
13.3673 0.3836 -2.5136 0.9470
13.3415 0.8622 -2.5129 0.9470
13.2970 1.3394 -2.5120 0.9471
12.9512 3.2209 -2.5085 0.9471
12.8221 3.6814 -2.5074 0.9472
11.9460 5.9009 -2.5044 0.9472
10.8568 6.3684 -2.3658 0.9501
10.5610 6.7148 -2.3523 0.9503
9.5089 8.1684 -2.3562 0.9503
9.2120 8.5056 -2.3567 0.9502
8.9008 8.8298 -2.3566 0.9503
8.5782 9.1426 -2.3564 0.9503
8.2446 9.4437 -2.3563 0.9503
7.9005 9.7325 -2.3562 0.9503
7.5462 10.0088 -2.3561 0.9503
6.0375 10.9821 -2.3556 0.9503
5.6397 11.1908 -2.3554 0.9503
4.8232 11.5648 -2.3552 0.9503
4.4054 11.7296 -2.3551 0.9503
3.1207 12.1329 -2.3547 0.9503
2.6838 12.2363 -2.3546 0.9503
2.2434 12.3240 -2.3545 0.9503
1.8003 12.3959 -2.3544 0.9503
0.4595 12.5159 -2.3541 0.9503
-3.5309 12.0120 -2.3533 0.9503
-3.9589 11.8774 -2.3532 0.9503
-5.2104 11.3830 -2.3530 0.9503
-5.6148 11.1887 -2.3530 0.9503
-4.6443 8.4820 -1.8176 0.9614
10.7481 -5.0242 -2.5079 0.9527
11.0960 -4.2474 -2.5114 0.9526
11.3705 -3.4414 -2.5112 0.9526
11.4857 -3.0315 -2.5110 0.9526
11.5860 -2.6178 -2.5108 0.9526
11.6713 -2.2007 -2.5106 0.9526
11.7964 -1.3588 -2.5100 0.9526
11.8362 -0.9351 -2.5097 0.9526
11.8632 0.3405 -2.5087 0.9526
11.8416 0.7653 -2.5083 0.9526
11.6849 2.0307 -2.5070 0.9527
11.6025 2.4476 -2.5065 0.9527
11.5050 2.8613 -2.5060 0.9527
11.3928 3.2711 -2.5055 0.9527
11.2659 3.6764 -2.5050 0.9527
11.1245 4.0769 -2.5044 0.9527
10.9701 4.4725 -2.5042 0.9527
10.6212 5.2465 -2.5041 0.9527
10.4262 5.6237 -2.5040 0.9527
10.2178 5.9936 -2.5040 0.9527
9.1672 6.3010 -2.3514 0.9555
8.9378 6.6272 -2.3520 0.9555
7.6253 8.1271 -2.3557 0.9555
7.3311 8.3974 -2.3563 0.9554
7.0251 8.6542 -2.3562 0.9555
6.0549 9.3569 -2.3559 0.9555
5.7155 9.5674 -2.3557 0.9555
5.0150 9.9513 -2.3555 0.9555
4.6550 10.1241 -2.3554 0.9555
3.5411 10.5638 -2.3551 0.9555
3.1601 10.6835 -2.3550 0.9555
2.7751 10.7894 -2.3549 0.9555
2.3866 10.8814 -2.3548 0.9555
1.9951 10.9595 -2.3547 0.9555
0.4086 11.1304 -2.3543 0.9555
0.0095 11.1374 -2.3542 0.9555
-0.7882 11.1087 -2.3541 0.9555
-1.1858 11.0729 -2.3540 0.9555
-1.5817 11.0230 -2.3539 0.9555
-2.3670 10.8807 -2.3537 0.9555
-4.4461 8.8597 -2.0954 0.9603
-5.6932 9.5671 -2.3533 0.9555
9.6513 -4.5115 -2.5039 0.9572
9.9499 -3.8087 -2.5039 0.9572
10.2029 -3.0880 -2.5053 0.9571
10.3132 -2.7221 -2.5069 0.9571
10.4109 -2.3522 -2.5085 0.9571
10.5523 -1.6005 -2.5084 0.9571
10.6018 -1.2212 -2.5081 0.9571
10.6597 -0.4586 -2.5076 0.9571
10.6679 -0.0763 -2.5073 0.9571
10.6624 0.3060 -2.5069 0.9571
10.6431 0.6878 -2.5066 0.9571
10.6100 1.0686 -2.5062 0.9571
10.5029 1.8252 -2.5054 0.9571
10.3416 2.5719 -2.5045 0.9572
10.2409 2.9403 -2.5041 0.9572
10.1285 3.3053 -2.5040 0.9572
9.5518 4.7183 -2.5039 0.9572
9.3765 5.0575 -2.5038 0.9572
8.7791 6.0343 -2.5037 0.9572
7.3528 6.7890 -2.3520 0.9597
6.8513 7.3021 -2.3533 0.9597
6.5869 7.5449 -2.3539 0.9597
6.3138 7.7780 -2.3545 0.9597
5.7430 8.2138 -2.3555 0.9597
4.8287 8.7834 -2.3557 0.9597
4.1869 9.1060 -2.3555 0.9597
3.8577 9.2498 -2.3554 0.9597
2.8424 9.6092 -2.3551 0.9597
2.4961 9.7045 -2.3550 0.9597
1.0837 9.9601 -2.3547 0.9597
-0.3505 10.0114 -2.3543 0.9597
-0.7090 9.9921 -2.3543 0.9597
-1.0666 9.9600 -2.3542 0.9597
-1.7771 9.8574 -2.3541 0.9597
-2.1291 9.7871 -2.3540 0.9597
-2.8245 9.6090 -2.3539 0.9597
-3.8392 9.2497 -2.3537 0.9597
-4.1681 9.1060 -2.3537 0.9597
-4.4132 8.7942 -2.3125 0.9604
-4.6123 8.4236 -2.2571 0.9613
8.9012 -3.7783 -2.5037 0.9608
9.0310 -3.4570 -2.5037 0.9608
9.1491 -3.1312 -2.5038 0.9608
9.2556 -2.8013 -2.5038 0.9608
9.3501 -2.4679 -2.5038 0.9608
9.4326 -2.1312 -2.5038 0.9608
9.5029 -1.7919 -2.5038 0.9608
9.6070 -1.1066 -2.5039 0.9608
9.6616 -0.4157 -2.5039 0.9608
9.6256 0.9695 -2.5049 0.9608
9.5833 1.3136 -2.5045 0.9608
9.3844 2.3339 -2.5038 0.9608
9.2947 2.6686 -2.5038 0.9608
8.3404 4.8924 -2.5036 0.9608
6.2139 6.6228 -2.3514 0.9632
5.7261 7.0540 -2.3524 0.9632
4.9389 7.6322 -2.3538 0.9631
4.0932 8.1221 -2.3549 0.9631
3.8000 8.2646 -2.3552 0.9631
3.5018 8.3964 -2.3555 0.9631
2.8912 8.6250 -2.3553 0.9631
1.6290 8.9483 -2.3550 0.9631
1.3072 9.0007 -2.3549 0.9631
0.6591 9.0706 -2.3547 0.9631
0.3336 9.0881 -2.3547 0.9631
-0.3181 9.0881 -2.3545 0.9631
-0.6436 9.0706 -2.3544 0.9631
-0.9682 9.0415 -2.3544 0.9631
-1.6132 8.9484 -2.3543 0.9631
-1.9328 8.8847 -2.3542 0.9631
-3.7833 8.2653 -2.3536 0.9631
-4.3639 7.9700 -2.3526 0.9632
8.0114 -3.7449 -2.5035 0.9639
8.1405 -3.4554 -2.5035 0.9639
8.2592 -3.1615 -2.5036 0.9639
8.3673 -2.8636 -2.5036 0.9639
8.6265 -1.9491 -2.5037 0.9639
8.6908 -1.6387 -2.5037 0.9639
8.7859 -1.0120 -2.5037 0.9639
8.8404 0.2537 -2.5037 0.9639
8.8256 0.5704 -2.5037 0.9639
8.7995 0.8863 -2.5037 0.9639
8.7621 1.2010 -2.5037 0.9639
8.1891 3.3387 -2.5036 0.9639
8.0641 3.6300 -2.5035 0.9639
7.9288 3.9166 -2.5035 0.9639
7.7833 4.1982 -2.5035 0.9639
7.6277 4.4743 -2.5034 0.9639
7.4624 4.7447 -2.5034 0.9639
7.1031 5.2668 -2.5033 0.9639
6.9097 5.5179 -2.5033 0.9639
6.4965 5.9984 -2.5032 0.9639
6.2447 6.1951 -2.4902 0.9641
5.8264 6.2098 -2.4106 0.9652
4.7598 6.8076 -2.3515 0.9661
3.4726 7.5525 -2.3532 0.9660
2.6428 7.8840 -2.3539 0.9660
2.3587 7.9742 -2.3541 0.9660
1.4895 8.1826 -2.3545 0.9660
1.1954 8.2309 -2.3546 0.9660
0.8997 8.2686 -2.3546 0.9660
0.3051 8.3117 -2.3546 0.9660
0.0071 8.3171 -2.3545 0.9660
-0.2910 8.3118 -2.3544 0.9660
-0.5886 8.2957 -2.3543 0.9660
-1.4752 8.1828 -2.3538 0.9660
-2.0571 8.0546 -2.3534 0.9660
-2.6281 7.8846 -2.3528 0.9660
-3.4575 7.5536 -2.3517 0.9661
-4.2459 7.1350 -2.3504 0.9661
7.3732 -3.4466 -2.5034 0.9665
7.4921 -3.1802 -2.5034 0.9665
7.7007 -2.6354 -2.5035 0.9665
7.7903 -2.3578 -2.5035 0.9665
7.8698 -2.0772 -2.5035 0.9665
7.9985 -1.5081 -2.5035 0.9665
8.0474 -1.2206 -2.5035 0.9665
8.0860 -0.9314 -2.5035 0.9665
8.1142 -0.6410 -2.5035 0.9665
8.1320 -0.3498 -2.5035 0.9665
8.1393 -0.0582 -2.5035 0.9665
8.0641 1.1054 -2.5035 0.9665
7.9641 1.6801 -2.5035 0.9665
7.6421 2.8007 -2.5034 0.9665
7.5368 3.0727 -2.5034 0.9665
7.1633 3.8637 -2.5033 0.9665
7.0201 4.1179 -2.5033 0.9665
6.8679 4.3668 -2.5033 0.9665
6.5373 4.8473 -2.5032 0.9665
6.3594 5.0784 -2.5032 0.9665
6.1732 5.3029 -2.5031 0.9665
5.5681 5.9345 -2.5030 0.9665
5.3518 6.1301 -2.5029 0.9665
4.6842 6.2129 -2.3932 0.9680
4.3787 6.2625 -2.3503 0.9685
3.6823 6.6981 -2.3510 0.9685
3.1939 6.9463 -2.3516 0.9685
2.6887 7.1586 -2.3520 0.9685
2.1694 7.3340 -2.3524 0.9685
1.6387 7.4713 -2.3526 0.9685
1.0994 7.5700 -2.3528 0.9685
0.0065 7.6492 -2.3527 0.9685
-0.5413 7.6295 -2.3526 0.9685
-1.6255 7.4718 -2.3519 0.9685
-1.8920 7.4080 -2.3517 0.9685
-2.1560 7.3347 -2.3514 0.9685
-2.4172 7.2519 -2.3512 0.9685
-3.4266 6.8282 -2.3498 0.9685
6.9321 -2.9425 -2.5033 0.9688
7.2081 -2.1816 -2.5033 0.9688
7.2817 -1.9219 -2.5034 0.9688
7.4007 -1.3954 -2.5034 0.9688
7.5310 -0.0538 -2.5034 0.9688
7.5155 0.4857 -2.5034 0.9688
7.4933 0.7547 -2.5034 0.9688
7.4199 1.2895 -2.5034 0.9688
7.3689 1.5545 -2.5034 0.9688
7.3084 1.8176 -2.5034 0.9688
7.2385 2.0783 -2.5033 0.9688
7.1594 2.3364 -2.5033 0.9688
6.9736 2.8431 -2.5033 0.9688
6.8671 3.0911 -2.5033 0.9688
6.7519 3.3352 -2.5032 0.9688
6.6279 3.5750 -2.5032 0.9688
6.4955 3.8102 -2.5032 0.9688
6.2058 4.2655 -2.5031 0.9688
6.0488 4.4851 -2.5031 0.9688
5.8842 4.6989 -2.5031 0.9688
5.7119 4.9067 -2.5030 0.9688
5.3456 5.3030 -2.5029 0.9688
4.9519 5.6721 -2.5028 0.9688
4.3143 6.1704 -2.5027 0.9688
3.7101 6.2107 -2.4048 0.9700
2.7217 6.5259 -2.3503 0.9706
2.4863 6.6198 -2.3505 0.9706
2.0060 6.7818 -2.3509 0.9706
1.0166 7.0000 -2.3512 0.9706
0.7651 7.0320 -2.3513 0.9706
0.5126 7.0549 -2.3513 0.9706
0.2595 7.0687 -2.3512 0.9706
-0.5006 7.0551 -2.3510 0.9706
-0.7531 7.0323 -2.3509 0.9706
-1.9938 6.7827 -2.3500 0.9706
-2.9410 6.4251 -2.3488 0.9707
-3.1691 6.3151 -2.3487 0.9707
-3.6959 6.2107 -2.4024 0.9700
6.5373 -2.5024 -2.5032 0.9707
6.6228 -2.2665 -2.5032 0.9707
6.6998 -2.0278 -2.5032 0.9707
6.7682 -1.7864 -2.5032 0.9707
6.8279 -1.5427 -2.5033 0.9707
6.8788 -1.2970 -2.5033 0.9707
6.9541 -0.8010 -2.5033 0.9707
6.9784 -0.5513 -2.5033 0.9707
6.9937 -0.3009 -2.5033 0.9707
6.9352 0.9506 -2.5033 0.9707
6.8967 1.1985 -2.5033 0.9707
6.8493 1.4449 -2.5033 0.9707
6.7931 1.6894 -2.5033 0.9707
6.6545 2.1716 -2.5032 0.9707
6.4818 2.6426 -2.5032 0.9707
6.2758 3.1000 -2.5031 0.9707
6.1606 3.3229 -2.5031 0.9707
6.0375 3.5415 -2.5031 0.9707
5.9066 3.7555 -2.5031 0.9707
5.7682 3.9647 -2.5030 0.9707
5.4693 4.3676 -2.5030 0.9707
5.1423 4.7480 -2.5029 0.9707
4.9687 4.9292 -2.5029 0.9707
4.6028 5.2722 -2.5028 0.9707
4.4108 5.4337 -2.5027 0.9707
4.2132 5.5882 -2.5027 0.9707
3.8020 5.8753 -2.5026 0.9707
3.3713 6.1324 -2.5025 0.9707
3.1228 6.1965 -2.4814 0.9710
2.5900 6.2104 -2.4063 0.9718
1.8638 6.3010 -2.3498 0.9725
0.9444 6.5029 -2.3499 0.9725
0.4762 6.5540 -2.3499 0.9725
0.2411 6.5668 -2.3499 0.9725
-0.2299 6.5669 -2.3498 0.9725
-0.6996 6.5331 -2.3496 0.9725
-1.1656 6.4654 -2.3493 0.9725
-1.3964 6.4190 -2.3492 0.9725
-2.3226 6.2163 -2.3731 0.9722
-3.3589 6.1345 -2.5010 0.9707
6.0125 -2.5521 -2.5031 0.9724
6.1799 -2.1150 -2.5031 0.9724
6.2518 -1.8922 -2.5031 0.9724
6.4189 -1.2103 -2.5032 0.9724
6.4581 -0.9795 -2.5032 0.9724
6.5117 -0.5144 -2.5032 0.9724
6.5293 0.1874 -2.5032 0.9724
6.5184 0.4213 -2.5032 0.9724
6.4991 0.6546 -2.5032 0.9724
6.4715 0.8871 -2.5032 0.9724
6.3913 1.3483 -2.5032 0.9724
6.3388 1.5765 -2.5032 0.9724
6.2096 2.0264 -2.5031 0.9724
6.1329 2.2476 -2.5031 0.9724
6.0484 2.4659 -2.5031 0.9724
5.8562 2.8927 -2.5030 0.9724
5.7487 3.1007 -2.5030 0.9724
5.3825 3.6997 -2.5029 0.9724
5.1036 4.0756 -2.5029 0.9724
4.7984 4.4306 -2.5028 0.9724
4.6365 4.5996 -2.5028 0.9724
4.4686 4.7627 -2.5027 0.9724
4.2950 4.9197 -2.5027 0.9724
4.1159 5.0704 -2.5027 0.9724
3.5478 5.4826 -2.5025 0.9724
3.3490 5.6061 -2.5025 0.9724
3.1459 5.7224 -2.5025 0.9724
2.9388 5.8314 -2.5024 0.9724
2.7279 5.9328 -2.5024 0.9724
2.5135 6.0266 -2.5023 0.9724
2.2958 6.1127 -2.5023 0.9724
1.8331 6.1973 -2.4766 0.9727
1.3609 6.2051 -2.4344 0.9732
1.1300 6.2081 -2.4181 0.9733
0.6758 6.2124 -2.3948 0.9736
0.0053 6.2148 -2.3816 0.9737
-0.2176 6.2146 -2.3830 0.9737
-1.1192 6.2081 -2.4174 0.9733
-1.3500 6.2051 -2.4335 0.9732
-1.5839 6.2015 -2.4528 0.9730
-1.8217 6.1973 -2.4754 0.9727
-2.0640 6.1922 -2.5013 0.9724
-2.2845 6.1142 -2.5013 0.9724
-2.5021 6.0283 -2.5012 0.9724
-2.9273 5.8334 -2.5011 0.9724
-3.1344 5.7246 -2.5011 0.9724
-3.3375 5.6085 -2.5010 0.9724
5.7116 -2.1863 -2.5030 0.9739
5.8536 -1.7716 -2.5030 0.9739
5.9133 -1.5607 -2.5031 0.9739
5.9655 -1.3479 -2.5031 0.9739
6.0100 -1.1332 -2.5031 0.9739
6.0468 -0.9171 -2.5031 0.9739
6.0757 -0.6998 -2.5031 0.9739
6.0969 -0.4817 -2.5031 0.9739
6.1158 -0.0437 -2.5031 0.9739
6.1134 0.1755 -2.5031 0.9739
5.8783 1.6878 -2.5031 0.9739
5.8140 1.8973 -2.5030 0.9739
5.7423 2.1045 -2.5030 0.9739
5.5767 2.5103 -2.5030 0.9739
5.4831 2.7085 -2.5030 0.9739
5.3825 2.9032 -2.5029 0.9739
5.2750 3.0942 -2.5029 0.9739
5.1606 3.2812 -2.5029 0.9739
5.0397 3.4640 -2.5029 0.9739
4.9123 3.6423 -2.5028 0.9739
4.6386 3.9847 -2.5028 0.9739
4.1841 4.4594 -2.5027 0.9739
3.8538 4.7475 -2.5026 0.9739
3.6811 4.8824 -2.5026 0.9739
2.7516 5.4600 -2.5024 0.9739
2.5541 5.5550 -2.5023 0.9739
2.1497 5.7235 -2.5022 0.9739
1.9431 5.7967 -2.5022 0.9739
1.3097 5.9715 -2.5021 0.9739
1.0949 6.0145 -2.5020 0.9739
0.8786 6.0497 -2.5020 0.9739
0.6612 6.0772 -2.5019 0.9739
0.4430 6.0968 -2.5019 0.9739
0.2243 6.1087 -2.5018 0.9739
0.0052 6.1127 -2.5018 0.9739
-0.6508 6.0776 -2.5016 0.9739
-0.8682 6.0503 -2.5016 0.9739
-1.5124 5.9218 -2.5014 0.9739
-1.9326 5.7981 -2.5013 0.9739
-2.3428 5.6446 -2.5013 0.9739
-2.5436 5.5569 -2.5012 0.9739
5.2865 -2.2440 -2.5029 0.9753
5.6438 -1.0641 -2.5030 0.9753
5.7409 0.1648 -2.5030 0.9753
5.7313 0.3704 -2.5030 0.9753
5.6901 0.7800 -2.5030 0.9753
5.6585 0.9834 -2.5030 0.9753
5.5734 1.3861 -2.5030 0.9753
5.4598 1.7817 -2.5030 0.9753
5.3924 1.9762 -2.5029 0.9753
5.3181 2.1682 -2.5029 0.9753
4.9536 2.9057 -2.5029 0.9753
4.8462 3.0813 -2.5028 0.9753
4.0767 4.0443 -2.5027 0.9753
3.7765 4.3258 -2.5026 0.9753
3.4569 4.5850 -2.5025 0.9753
3.2903 4.7059 -2.5025 0.9753
3.1195 4.8207 -2.5025 0.9753
2.7661 5.0316 -2.5024 0.9753
2.5840 5.1274 -2.5023 0.9753
2.3986 5.2166 -2.5023 0.9753
2.2100 5.2992 -2.5023 0.9753
2.0187 5.3748 -2.5022 0.9753
1.6285 5.5055 -2.5021 0.9753
1.4301 5.5602 -2.5021 0.9753
1.0282 5.6481 -2.5020 0.9753
0.4160 5.7256 -2.5019 0.9753
0.2106 5.7367 -2.5018 0.9753
-0.8153 5.6818 -2.5016 0.9753
-1.6187 5.5067 -2.5014 0.9753
-1.8149 5.4450 -2.5014 0.9753
-2.0088 5.3764 -2.5013 0.9753
-2.2002 5.3009 -2.5013 0.9753
-2.3887 5.2186 -2.5013 0.9753
-2.7563 5.0339 -2.5012 0.9753
-2.9348 4.9318 -2.5011 0.9753
5.0498 -1.9330 -2.5029 0.9764
5.1158 -1.7508 -2.5029 0.9764
5.1753 -1.5663 -2.5029 0.9764
5.2282 -1.3799 -2.5029 0.9764
5.3136 -1.0019 -2.5029 0.9764
5.3717 -0.6187 -2.5029 0.9764
5.3905 -0.4258 -2.5029 0.9764
5.4023 -0.2324 -2.5029 0.9764
5.3801 0.5419 -2.5029 0.9764
5.3572 0.7343 -2.5029 0.9764
5.0769 1.8606 -2.5029 0.9764
5.0070 2.0414 -2.5029 0.9764
4.8478 2.3947 -2.5028 0.9764
4.7589 2.5668 -2.5028 0.9764
4.6638 2.7357 -2.5028 0.9764
4.1012 3.5231 -2.5027 0.9765
3.9723 3.6677 -2.5026 0.9765
3.8383 3.8077 -2.5026 0.9765
3.6993 3.9428 -2.5026 0.9765
3.5556 4.0727 -2.5025 0.9765
3.4073 4.1975 -2.5025 0.9765
3.2547 4.3168 -2.5025 0.9765
2.9370 4.5387 -2.5024 0.9765
2.7725 4.6410 -2.5024 0.9765
2.6043 4.7373 -2.5023 0.9765
2.2583 4.9115 -2.5023 0.9765
1.9006 5.0605 -2.5022 0.9765
1.5332 5.1835 -2.5021 0.9765
0.9680 5.3178 -2.5020 0.9765
0.7768 5.3490 -2.5019 0.9765
0.5846 5.3733 -2.5019 0.9765
0.3917 5.3907 -2.5019 0.9765
0.0046 5.4047 -2.5018 0.9765
-0.1891 5.4013 -2.5017 0.9765
-0.3825 5.3911 -2.5017 0.9765
-0.5754 5.3738 -2.5016 0.9765
-0.7676 5.3496 -2.5016 0.9765
-0.9588 5.3186 -2.5016 0.9765
-1.3373 5.2361 -2.5015 0.9765
-1.8914 5.0621 -2.5014 0.9765
-2.2490 4.9134 -2.5013 0.9765
-2.4236 4.8296 -2.5012 0.9765
-2.5951 4.7396 -2.5012 0.9765
-2.7632 4.6435 -2.5012 0.9765
4.6967 -1.9936 -2.5028 0.9775
4.7651 -1.8241 -2.5028 0.9775
4.8836 -1.4781 -2.5028 0.9775
4.9334 -1.3021 -2.5028 0.9775
4.9770 -1.1245 -2.5029 0.9775
5.0689 -0.5838 -2.5029 0.9775
5.0866 -0.4018 -2.5029 0.9775
5.0978 -0.2193 -2.5029 0.9775
5.1023 -0.0365 -2.5029 0.9775
5.0768 0.5113 -2.5029 0.9775
5.0271 0.8736 -2.5029 0.9775
4.9925 1.0532 -2.5029 0.9775
4.8506 1.5829 -2.5028 0.9775
4.7907 1.7557 -2.5028 0.9775
4.7247 1.9262 -2.5028 0.9775
4.6530 2.0943 -2.5028 0.9775
4.4906 2.4222 -2.5027 0.9775
4.3055 2.7376 -2.5027 0.9775
4.2046 2.8901 -2.5027 0.9775
3.6219 3.5931 -2.5026 0.9775
3.3552 3.8432 -2.5025 0.9775
3.2153 3.9609 -2.5025 0.9775
2.7715 4.2829 -2.5024 0.9775
2.2958 4.5555 -2.5023 0.9775
1.6212 4.8365 -2.5021 0.9775
1.4469 4.8914 -2.5021 0.9775
1.0928 4.9823 -2.5020 0.9775
0.7331 5.0476 -2.5019 0.9775
0.5517 5.0705 -2.5019 0.9775
0.3696 5.0870 -2.5019 0.9775
-0.1784 5.0970 -2.5017 0.9775
-0.9048 5.0189 -2.5016 0.9775
-1.0841 4.9832 -2.5015 0.9775
-1.2619 4.9411 -2.5015 0.9775
-1.4382 4.8926 -2.5015 0.9775
-1.6125 4.8379 -2.5014 0.9775
-1.9548 4.7098 -2.5013 0.9775
-2.1223 4.6366 -2.5013 0.9775
-2.2871 4.5575 -2.5013 0.9775
-2.4489 4.4726 -2.5012 0.9775
4.3703 -2.0429 -2.5027 0.9785
4.5644 -1.5621 -2.5028 0.9785
4.6175 -1.3975 -2.5028 0.9785
4.7058 -1.0632 -2.5028 0.9785
4.7409 -0.8939 -2.5028 0.9785
4.8094 -0.3799 -2.5028 0.9785
4.8225 0.1384 -2.5028 0.9785
4.8001 0.4835 -2.5028 0.9785
4.7797 0.6552 -2.5028 0.9785
4.7532 0.8261 -2.5028 0.9785
4.6818 1.1644 -2.5028 0.9785
4.6370 1.3314 -2.5028 0.9785
4.4673 1.8213 -2.5027 0.9785
4.3991 1.9802 -2.5027 0.9785
4.2459 2.2902 -2.5027 0.9785
4.1611 2.4408 -2.5027 0.9785
3.9755 2.7326 -2.5026 0.9785
3.8750 2.8733 -2.5026 0.9785
3.7695 3.0103 -2.5026 0.9785
3.6592 3.1434 -2.5026 0.9785
3.5442 3.2724 -2.5025 0.9785
3.4246 3.3973 -2.5025 0.9785
3.1724 3.6338 -2.5025 0.9785
3.0401 3.7451 -2.5024 0.9785
2.9039 3.8516 -2.5024 0.9785
2.7640 3.9532 -2.5024 0.9785
2.6205 4.0496 -2.5023 0.9785
1.6958 4.5152 -2.5021 0.9785
1.2014 4.6709 -2.5020 0.9785
1.0332 4.7109 -2.5020 0.9785
0.6931 4.7727 -2.5019 0.9785
0.1769 4.8193 -2.5018 0.9785
0.0041 4.8224 -2.5018 0.9785
-0.3413 4.8102 -2.5017 0.9785
-0.6849 4.7733 -2.5016 0.9785
-0.8555 4.7456 -2.5016 0.9785
-1.0250 4.7118 -2.5015 0.9785
-1.5247 4.5744 -2.5014 0.9785
-1.6876 4.5167 -2.5014 0.9785
-2.3156 4.2291 -2.5013 0.9785
-2.4656 4.1433 -2.5012 0.9785
4.1395 -1.9350 -2.5027 0.9794
4.2062 -1.7854 -2.5027 0.9794
4.2675 -1.6335 -2.5027 0.9794
4.3233 -1.4796 -2.5027 0.9794
4.4182 -1.1661 -2.5027 0.9794
4.5179 -0.6852 -2.5028 0.9794
4.5395 -0.5229 -2.5028 0.9794
4.5554 -0.3599 -2.5028 0.9794
4.5653 -0.1964 -2.5028 0.9794
4.5694 -0.0327 -2.5028 0.9794
4.5600 0.2947 -2.5028 0.9794
4.5465 0.4579 -2.5028 0.9794
4.5272 0.6206 -2.5028 0.9794
4.5021 0.7824 -2.5028 0.9794
4.4711 0.9432 -2.5027 0.9794
4.3920 1.2610 -2.5027 0.9794
4.2904 1.5724 -2.5027 0.9794
4.2313 1.7251 -2.5027 0.9794
4.1667 1.8756 -2.5027 0.9794
4.0968 2.0237 -2.5027 0.9794
4.0216 2.1692 -2.5026 0.9794
3.9413 2.3119 -2.5026 0.9794
3.6703 2.7215 -2.5026 0.9794
3.5704 2.8512 -2.5025 0.9794
3.3570 3.0996 -2.5025 0.9794
3.2437 3.2179 -2.5025 0.9794
3.0048 3.4419 -2.5024 0.9794
2.8795 3.5473 -2.5024 0.9794
2.7505 3.6481 -2.5024 0.9794
2.4821 3.8357 -2.5023 0.9794
2.3430 3.9222 -2.5023 0.9794
1.9085 4.1508 -2.5022 0.9794
1.7585 4.2164 -2.5022 0.9794
1.4520 4.3315 -2.5021 0.9794
1.1379 4.4242 -2.5020 0.9794
0.4941 4.5411 -2.5019 0.9794
0.3310 4.5559 -2.5018 0.9794
0.1676 4.5647 -2.5018 0.9794
0.0039 4.5678 -2.5018 0.9794
-0.1598 4.5649 -2.5017 0.9794
-0.8104 4.4950 -2.5016 0.9794
-0.9709 4.4630 -2.5016 0.9794
-1.1302 4.4253 -2.5015 0.9794
-1.5985 4.2782 -2.5014 0.9794
-1.7508 4.2182 -2.5014 0.9794
-1.9008 4.1527 -2.5014 0.9794
-2.1933 4.0058 -2.5013 0.9794
-2.3354 3.9245 -2.5013 0.9794
3.9901 -1.6937 -2.5026 0.9802
4.0483 -1.5496 -2.5027 0.9802
4.1012 -1.4036 -2.5027 0.9802
4.1489 -1.2557 -2.5027 0.9802
4.1912 -1.1062 -2.5027 0.9802
4.2282 -0.9553 -2.5027 0.9802
4.3063 -0.4960 -2.5027 0.9802
4.3214 -0.3414 -2.5027 0.9802
4.3347 -0.0310 -2.5027 0.9802
4.2946 0.5887 -2.5027 0.9802
4.2708 0.7422 -2.5027 0.9802
4.2414 0.8948 -2.5027 0.9802
4.1664 1.1963 -2.5027 0.9802
4.1209 1.3448 -2.5027 0.9802
4.0700 1.4916 -2.5027 0.9802
4.0139 1.6365 -2.5026 0.9802
3.9527 1.7793 -2.5026 0.9802
3.7388 2.1932 -2.5026 0.9802
3.6578 2.3257 -2.5026 0.9802
3.4818 2.5817 -2.5025 0.9802
3.3870 2.7048 -2.5025 0.9802
3.2879 2.8244 -2.5025 0.9802
3.0771 3.0526 -2.5024 0.9802
2.9657 3.1608 -2.5024 0.9802
2.7316 3.3651 -2.5024 0.9802
2.3546 3.6387 -2.5023 0.9802
1.9505 3.8703 -2.5022 0.9802
1.8105 3.9376 -2.5022 0.9802
1.6682 3.9999 -2.5021 0.9802
1.5238 4.0571 -2.5021 0.9802
0.9284 4.2329 -2.5020 0.9802
0.6228 4.2885 -2.5019 0.9802
0.4687 4.3080 -2.5019 0.9802
0.1590 4.3304 -2.5018 0.9802
-0.4614 4.3084 -2.5017 0.9802
-0.7688 4.2642 -2.5016 0.9802
-1.0722 4.1981 -2.5015 0.9802
-1.3701 4.1104 -2.5015 0.9802
-1.5164 4.0586 -2.5014 0.9802
-1.6609 4.0016 -2.5014 0.9802
-1.8032 3.9395 -2.5014 0.9802
-1.9432 3.8723 -2.5013 0.9802
-2.0807 3.8001 -2.5013 0.9802
