ply
format ascii 1.0
element vertex 853
property float32 x
property float32 y
property float32 z
property float32 I
end_header
-45.7480 16.9070 7.4716 0.8209
-45.7464 16.9064 6.3509 0.8214
-43.8295 9.3810 4.8131 0.8350
-45.7404 16.9042 4.1280 0.8222
-43.8298 9.3811 3.7943 0.8353
-43.9243 6.1576 3.7547 0.8369
-44.8266 -13.3846 3.9602 0.8288
-43.8300 9.3811 2.7795 0.8356
-45.7330 16.9014 1.9225 0.8227
-43.8302 9.3812 1.7674 0.8357
-45.7293 16.9000 0.8235 0.8228
-43.8304 9.3812 0.7571 0.8358
-44.8272 -13.3848 0.7902 0.8293
-45.7256 16.8987 -0.2745 0.8228
-43.8307 9.3813 -0.2524 0.8359
-44.8274 -13.3849 -0.2634 0.8293
-45.7219 16.8973 -1.3725 0.8228
-45.7262 15.0625 -1.3556 0.8248
-43.8309 9.3813 -1.2621 0.8358
-26.4203 37.9288 -2.3442 0.8310
-30.3194 34.8645 -2.3432 0.8311
-31.5427 33.7523 -2.3428 0.8311
-33.8652 31.4005 -2.3421 0.8311
-34.9653 30.1673 -2.3420 0.8311
-36.0218 28.8966 -2.3420 0.8311
-37.9964 26.2469 -2.3420 0.8311
-38.9121 24.8712 -2.3421 0.8311
-39.7785 23.4639 -2.3421 0.8311
-42.0715 19.0699 -2.3426 0.8311
-42.7304 17.5539 -2.3428 0.8311
-43.3353 16.0153 -2.3430 0.8311
-43.8773 14.4535 -2.3428 0.8311
-44.3102 12.8581 -2.3399 0.8313
-44.7401 11.2641 -2.3398 0.8313
-43.8311 9.3814 -2.2732 0.8357
-48.8612 5.0749 -2.4913 0.8214
-49.0109 3.3234 -2.4913 0.8214
-49.0980 1.5678 -2.4912 0.8214
-49.1226 -0.1899 -2.4912 0.8214
-48.9838 -3.7024 -2.4913 0.8214
-48.3079 -8.9304 -2.4914 0.8214
-47.9589 -10.6534 -2.4915 0.8214
-44.7075 -11.6242 -2.3427 0.8311
-44.2751 -13.2200 -2.3433 0.8311
-43.9371 -14.8508 -2.3521 0.8305
-43.0600 -18.0797 -2.3684 0.8294
-41.9229 -21.2476 -2.3836 0.8284
-39.8595 -25.9131 -2.4111 0.8266
-37.3628 -30.4501 -2.4444 0.8244
-36.4335 -31.9288 -2.4568 0.8236
-35.4554 -33.3886 -2.4699 0.8228
-33.3524 -36.2466 -2.4980 0.8210
-17.3527 26.9161 -2.3481 0.8795
-19.2314 25.6041 -2.3479 0.8795
-21.0117 24.1615 -2.3478 0.8795
-22.6844 22.5956 -2.3476 0.8795
-24.2409 20.9145 -2.3475 0.8795
-25.6736 19.1268 -2.3474 0.8795
-26.3410 18.1957 -2.3474 0.8795
-26.9749 17.2414 -2.3474 0.8795
-27.5750 16.2655 -2.3474 0.8795
-28.6691 14.2527 -2.3475 0.8795
-29.1617 13.2182 -2.3476 0.8795
-29.6171 12.1668 -2.3477 0.8795
-24.3137 8.9855 -1.9006 0.9013
-30.4140 10.0186 -2.3479 0.8795
-30.7545 8.9245 -2.3480 0.8795
-33.5022 5.9258 -2.4946 0.8724
-33.8392 3.5147 -2.4945 0.8724
-34.0205 -0.1315 -2.4945 0.8725
-33.9243 -2.5641 -2.4945 0.8725
-33.4555 -6.1847 -2.4946 0.8724
-32.9291 -8.5617 -2.4947 0.8724
-30.2829 -10.2357 -2.3438 0.8797
-29.6813 -12.4635 -2.3605 0.8789
-28.3653 -15.6762 -2.3763 0.8781
-27.9820 -16.7986 -2.3930 0.8773
-27.1812 -19.0882 -2.4353 0.8753
-26.2869 -21.4235 -2.4864 0.8728
-22.3645 -28.0980 -2.6331 0.8659
-21.5164 -29.1122 -2.6543 0.8649
-20.5802 -30.0374 -2.6698 0.8641
-12.9688 -35.5078 -2.7717 0.8593
-9.2527 -37.3525 -2.8215 0.8570
-7.9590 -37.8912 -2.8389 0.8562
-6.6209 -38.2828 -2.8487 0.8557
-13.9888 20.0823 -2.3496 0.9063
-14.6980 19.5684 -2.3496 0.9063
-15.3884 19.0296 -2.3495 0.9063
-16.7092 17.8798 -2.3494 0.9063
-17.3381 17.2703 -2.3494 0.9063
-17.9448 16.6388 -2.3494 0.9063
-19.0886 15.3128 -2.3494 0.9063
-20.1350 13.9087 -2.3494 0.9063
-20.6199 13.1795 -2.3494 0.9063
-21.9146 10.8947 -2.3496 0.9063
-22.2909 10.1039 -2.3496 0.9063
-23.2269 7.6511 -2.3478 0.9064
-23.4628 6.8085 -2.3455 0.9065
-25.4261 5.4421 -2.4963 0.9008
-25.7494 3.6098 -2.4962 0.9008
-25.9412 1.7591 -2.4962 0.9008
-26.0005 -0.1005 -2.4962 0.9008
-25.9803 -1.0307 -2.4962 0.9008
-25.8404 -2.8861 -2.4962 0.9008
-25.1658 -6.5432 -2.4964 0.9008
-24.9161 -7.4396 -2.4964 0.9008
-24.6346 -8.3265 -2.4965 0.9008
-23.1221 -9.7083 -2.4076 0.9041
-21.4238 -11.8400 -2.3500 0.9063
-20.2035 -14.1880 -2.3701 0.9056
-19.2868 -15.7185 -2.3887 0.9049
-18.2593 -17.1950 -2.4079 0.9041
-17.7140 -17.9198 -2.4191 0.9037
-17.1383 -18.6255 -2.4300 0.9033
-15.2711 -20.6623 -2.4667 0.9019
-13.8853 -21.9079 -2.4901 0.9010
-13.1573 -22.5014 -2.5024 0.9006
-12.4013 -23.0647 -2.5141 0.9001
-9.9789 -24.5573 -2.5448 0.8990
-8.2508 -25.3729 -2.5615 0.8983
-7.3581 -25.7228 -2.5686 0.8981
-1.7241 -26.9480 -2.5924 0.8972
-11.3120 16.2395 -2.3509 0.9234
-11.8856 15.8241 -2.3508 0.9234
-12.4439 15.3884 -2.3508 0.9234
-12.9863 14.9331 -2.3508 0.9234
-14.0207 13.9659 -2.3507 0.9234
-15.4363 12.3829 -2.3507 0.9234
-16.6746 10.6578 -2.3507 0.9234
-17.3945 9.4383 -2.3508 0.9234
-18.0208 8.1683 -2.3503 0.9234
-18.2875 7.5126 -2.3485 0.9235
-18.5302 6.8482 -2.3466 0.9235
-18.8750 6.2176 -2.3606 0.9231
-20.1917 5.8593 -2.4974 0.9188
-20.3881 5.1331 -2.4974 0.9188
-20.7024 3.6618 -2.4973 0.9188
-20.9109 2.1719 -2.4973 0.9188
-20.9751 1.4223 -2.4973 0.9188
-21.0125 0.6710 -2.4973 0.9188
-20.8935 -2.3335 -2.4973 0.9188
-20.7968 -3.0796 -2.4973 0.9188
-19.6650 -7.4409 -2.4976 0.9188
-19.3866 -8.1399 -2.4976 0.9188
-19.0835 -8.8285 -2.4977 0.9188
-17.5744 -9.7126 -2.3852 0.9223
-16.9364 -10.1675 -2.3465 0.9235
-15.0491 -13.1887 -2.3770 0.9226
-14.0782 -14.2417 -2.3788 0.9225
-12.5737 -15.7972 -2.3983 0.9219
-11.4640 -16.7320 -2.4093 0.9215
-10.2889 -17.5959 -2.4213 0.9212
-9.6787 -18.0011 -2.4278 0.9210
-9.0515 -18.3825 -2.4339 0.9208
-7.7496 -19.0710 -2.4453 0.9204
-4.9863 -20.1294 -2.4634 0.9199
-4.2690 -20.3239 -2.4669 0.9197
-3.5436 -20.4894 -2.4700 0.9197
-2.0734 -20.7316 -2.4749 0.9195
-1.3312 -20.8077 -2.4767 0.9194
-9.9680 13.2710 -2.3517 0.9351
-10.4363 12.9057 -2.3517 0.9351
-11.7587 11.7127 -2.3516 0.9351
-12.9459 10.3853 -2.3516 0.9351
-13.6556 9.4329 -2.3516 0.9351
-14.2954 8.4324 -2.3516 0.9351
-14.8442 7.3797 -2.3488 0.9352
-16.7462 5.5164 -2.4982 0.9312
-17.0973 4.3045 -2.4981 0.9312
-17.2402 3.6900 -2.4981 0.9313
-17.3610 3.0708 -2.4980 0.9313
-17.4596 2.4476 -2.4980 0.9313
-17.5897 1.1928 -2.4980 0.9313
-17.6299 -0.0681 -2.4980 0.9313
-17.6162 -0.6989 -2.4980 0.9313
-17.5800 -1.3288 -2.4980 0.9313
-17.3368 -3.2049 -2.4981 0.9313
-17.2112 -3.8232 -2.4981 0.9313
-16.7031 -5.6457 -2.4982 0.9312
-16.4907 -6.2398 -2.4982 0.9312
-15.7282 -7.9714 -2.4984 0.9312
-15.4333 -8.5293 -2.4985 0.9312
-15.1187 -9.0763 -2.4985 0.9312
-14.7847 -9.6117 -2.4986 0.9312
-13.8283 -9.7110 -2.3942 0.9340
-13.2055 -9.9978 -2.3468 0.9353
-12.8467 -10.4699 -2.3482 0.9352
-12.4708 -10.9289 -2.3495 0.9352
-12.0783 -11.3742 -2.3508 0.9352
-11.6698 -11.8053 -2.3520 0.9351
-11.2844 -12.2635 -2.3613 0.9349
-10.4667 -13.1520 -2.3817 0.9343
-9.9928 -13.5205 -2.3821 0.9343
-9.0102 -14.2158 -2.3847 0.9343
-8.0051 -14.8884 -2.3951 0.9340
-6.9410 -15.4698 -2.4024 0.9338
-6.3920 -15.7303 -2.4058 0.9337
-5.8328 -15.9699 -2.4090 0.9336
-4.6869 -16.3850 -2.4147 0.9335
-4.1020 -16.5596 -2.4172 0.9334
-2.9126 -16.8414 -2.4217 0.9333
-1.7033 -17.0313 -2.4252 0.9332
-1.0935 -17.0912 -2.4266 0.9332
-8.9785 11.1030 -2.3523 0.9438
-9.3699 10.7745 -2.3523 0.9438
-9.7493 10.4323 -2.3523 0.9438
-10.4702 9.7082 -2.3522 0.9438
-10.8109 9.3274 -2.3522 0.9438
-11.1376 8.9346 -2.3522 0.9438
-11.4502 8.5304 -2.3522 0.9438
-12.0208 7.6833 -2.3503 0.9438
-12.5263 6.7968 -2.3478 0.9439
-14.2273 5.2579 -2.4987 0.9404
-14.7081 3.7030 -2.4986 0.9404
-14.8310 3.1744 -2.4986 0.9404
-15.0198 2.1056 -2.4985 0.9404
-15.0854 1.5669 -2.4985 0.9404
-15.1318 1.0261 -2.4985 0.9404
-15.1664 -0.0586 -2.4985 0.9404
-14.6791 -3.8166 -2.4986 0.9404
-14.1862 -5.3678 -2.4987 0.9404
-13.9853 -5.8721 -2.4988 0.9404
-13.7665 -6.3688 -2.4988 0.9404
-13.0057 -7.8078 -2.4990 0.9404
-12.4146 -8.7182 -2.4991 0.9404
-12.0951 -9.1571 -2.4992 0.9404
-11.7601 -9.5843 -2.4993 0.9404
-11.0744 -9.7052 -2.4258 0.9421
-10.3724 -9.7677 -2.3471 0.9439
-10.0195 -10.1358 -2.3479 0.9439
-9.6546 -10.4924 -2.3489 0.9438
-8.4851 -11.4806 -2.3518 0.9438
-8.0720 -11.7813 -2.3527 0.9437
-7.6623 -12.0894 -2.3579 0.9436
-7.2473 -12.3942 -2.3653 0.9435
-6.3786 -12.9542 -2.3787 0.9431
-5.9262 -13.2080 -2.3849 0.9430
-4.9724 -13.6142 -2.3877 0.9429
-4.4824 -13.7842 -2.3879 0.9429
-2.9852 -14.2114 -2.3923 0.9428
-1.4489 -14.4885 -2.3987 0.9427
-0.9303 -14.5402 -2.4002 0.9426
-7.5176 10.0087 -2.3528 0.9503
-7.8708 9.7332 -2.3528 0.9503
-8.2140 9.4453 -2.3528 0.9503
-10.2829 7.1032 -2.3491 0.9504
-10.5257 6.7277 -2.3480 0.9504
-10.7553 6.3442 -2.3471 0.9504
-11.4309 6.2025 -2.4445 0.9484
-12.4714 4.6091 -2.4991 0.9473
-12.6281 4.1598 -2.4991 0.9473
-12.7687 3.7053 -2.4990 0.9473
-13.0008 2.7826 -2.4990 0.9473
-13.2238 1.3735 -2.4989 0.9473
-13.2881 0.4243 -2.4989 0.9473
-13.2844 -0.5270 -2.4989 0.9473
-13.2571 -1.0020 -2.4989 0.9473
-13.1517 -1.9475 -2.4990 0.9473
-13.0736 -2.4168 -2.4990 0.9473
-12.8676 -3.3456 -2.4990 0.9473
-12.7398 -3.8039 -2.4990 0.9473
-12.5956 -4.2573 -2.4991 0.9473
-12.4354 -4.7053 -2.4991 0.9473
-11.4004 -6.8441 -2.4993 0.9473
-10.6021 -8.0268 -2.4995 0.9473
-10.0018 -8.7649 -2.4996 0.9473
-9.6818 -9.1174 -2.4997 0.9473
-8.9216 -9.6958 -2.4766 0.9478
-8.3128 -9.7096 -2.4025 0.9493
-7.7785 -9.7727 -2.3477 0.9504
-6.6923 -10.5590 -2.3497 0.9504
-6.3121 -10.7950 -2.3504 0.9504
-5.9236 -11.0170 -2.3511 0.9504
-5.5271 -11.2250 -2.3518 0.9504
-4.7126 -11.5972 -2.3529 0.9503
-4.2956 -11.7611 -2.3535 0.9503
-3.0208 -12.1948 -2.3614 0.9502
-2.5857 -12.3098 -2.3643 0.9501
-1.7019 -12.4863 -2.3686 0.9500
-1.2548 -12.5474 -2.3702 0.9500
-7.3051 8.4002 -2.3531 0.9555
-7.5986 8.1309 -2.3524 0.9555
-7.8819 7.8511 -2.3516 0.9555
-8.4171 7.2622 -2.3499 0.9556
-9.7069 6.2043 -2.4352 0.9540
-10.1852 6.0079 -2.4996 0.9528
-10.3934 5.6395 -2.4995 0.9528
-10.5883 5.2639 -2.4995 0.9528
-11.0910 4.0989 -2.4994 0.9528
-11.2304 3.6994 -2.4994 0.9528
-11.7602 1.2215 -2.4992 0.9528
-11.8141 -0.4687 -2.4992 0.9528
-11.7898 -0.8911 -2.4992 0.9528
-11.6266 -2.1493 -2.4993 0.9528
-11.5424 -2.5639 -2.4993 0.9528
-11.4433 -2.9753 -2.4993 0.9528
-11.2015 -3.7861 -2.4994 0.9528
-10.5474 -5.3457 -2.4995 0.9528
-10.1385 -6.0865 -2.4996 0.9528
-9.6776 -6.7962 -2.4997 0.9528
-8.8943 -7.7946 -2.4999 0.9528
-7.6921 -8.9846 -2.5001 0.9528
-7.3660 -9.2543 -2.5002 0.9528
-7.0303 -9.5122 -2.5003 0.9528
-6.1509 -9.7047 -2.4287 0.9541
-5.2609 -9.7845 -2.3482 0.9556
-2.6745 -10.7969 -2.3512 0.9555
-2.2868 -10.8872 -2.3516 0.9555
-1.8961 -10.9634 -2.3518 0.9555
-1.1074 -11.0731 -2.3523 0.9555
-6.0112 8.0031 -2.3524 0.9597
-6.5644 7.5485 -2.3511 0.9597
-6.8282 7.3066 -2.3504 0.9597
-7.0831 7.0555 -2.3496 0.9598
-7.3287 6.7953 -2.3489 0.9598
-7.5646 6.5267 -2.3481 0.9598
-7.7919 6.2507 -2.3477 0.9598
-8.3269 6.2035 -2.4404 0.9582
-8.7518 6.0455 -2.4999 0.9572
-10.1016 3.3276 -2.4996 0.9572
-10.2141 2.9640 -2.4996 0.9572
-10.3135 2.5966 -2.4996 0.9572
-10.4727 1.8524 -2.4995 0.9572
-10.5322 1.4765 -2.4995 0.9572
-10.6107 0.7195 -2.4995 0.9572
-10.6350 -0.0411 -2.4995 0.9572
-10.6267 -0.4216 -2.4995 0.9572
-10.6049 -0.8015 -2.4995 0.9572
-10.5205 -1.5578 -2.4995 0.9572
-10.4580 -1.9333 -2.4995 0.9572
-10.2932 -2.6763 -2.4996 0.9572
-10.1909 -3.0429 -2.4996 0.9572
-9.6530 -4.4657 -2.4997 0.9572
-9.4872 -4.8083 -2.4997 0.9572
-9.3092 -5.1448 -2.4998 0.9572
-9.1193 -5.4747 -2.4998 0.9572
-8.7048 -6.1130 -2.4999 0.9572
-8.0001 -7.0110 -2.5001 0.9572
-7.7443 -7.2929 -2.5001 0.9572
-7.2033 -7.8284 -2.5002 0.9572
-6.9188 -8.0813 -2.5003 0.9572
-6.0135 -8.7768 -2.5005 0.9572
-5.6957 -8.9866 -2.5006 0.9572
-5.0388 -9.3714 -2.5007 0.9572
-4.7004 -9.5460 -2.5008 0.9572
-4.3487 -9.6922 -2.4967 0.9573
-2.7789 -9.7148 -2.3748 0.9593
-2.4092 -9.7260 -2.3549 0.9597
-1.7033 -9.8486 -2.3490 0.9598
-1.3499 -9.9038 -2.3491 0.9598
-0.9947 -9.9465 -2.3493 0.9598
-0.6383 -9.9764 -2.3495 0.9598
-4.9214 7.6337 -2.3516 0.9632
-5.1902 7.4510 -2.3511 0.9632
-5.7069 7.0573 -2.3499 0.9632
-5.9542 6.8468 -2.3493 0.9632
-6.4250 6.3999 -2.3480 0.9632
-7.1864 6.2003 -2.4575 0.9615
-7.5321 6.0423 -2.5002 0.9609
-7.7433 5.7688 -2.5001 0.9609
-7.9446 5.4880 -2.5001 0.9609
-8.1358 5.2001 -2.5000 0.9609
-8.4866 4.6049 -2.5000 0.9609
-8.6458 4.2982 -2.4999 0.9609
-8.9308 3.6688 -2.4999 0.9609
-9.2722 2.6907 -2.4998 0.9609
-9.4407 2.0207 -2.4997 0.9609
-9.5070 1.6816 -2.4997 0.9609
-9.5610 1.3403 -2.4997 0.9609
-9.6028 0.9974 -2.4997 0.9609
-9.6323 0.6532 -2.4997 0.9609
-9.6495 0.3081 -2.4997 0.9609
-9.6468 -0.3827 -2.4997 0.9609
-9.5948 -1.0716 -2.4997 0.9609
-9.4937 -1.7550 -2.4997 0.9609
-9.4249 -2.0936 -2.4998 0.9609
-9.2512 -2.7623 -2.4998 0.9609
-9.1465 -3.0915 -2.4998 0.9609
-8.2783 -4.9698 -2.5000 0.9609
-7.0301 -6.6202 -2.5003 0.9609
-6.5389 -7.1063 -2.5004 0.9609
-6.2806 -7.3359 -2.5004 0.9609
-5.7402 -7.7666 -2.5005 0.9609
-5.1703 -8.1576 -2.5007 0.9609
-4.5739 -8.5069 -2.5008 0.9609
-3.6363 -8.9488 -2.5010 0.9609
-2.9873 -9.1864 -2.5011 0.9609
-2.3228 -9.3771 -2.5013 0.9609
-1.9859 -9.4544 -2.5013 0.9609
-4.4979 6.9769 -2.3500 0.9661
-4.7437 6.8101 -2.3495 0.9661
-4.9832 6.6345 -2.3490 0.9661
-5.8033 6.2099 -2.4062 0.9653
-6.2196 6.1953 -2.4852 0.9642
-6.8893 5.5266 -2.5003 0.9639
-7.9079 3.9314 -2.5001 0.9640
-8.1687 3.3557 -2.5000 0.9640
-8.3876 2.7629 -2.5000 0.9640
-8.4810 2.4611 -2.5000 0.9640
-8.5635 2.1560 -2.4999 0.9640
-8.7451 1.2260 -2.4999 0.9640
-8.8104 0.5975 -2.4999 0.9640
-8.8261 0.2819 -2.4999 0.9640
-8.8305 -0.0341 -2.4999 0.9640
-8.8236 -0.3500 -2.4999 0.9640
-8.8055 -0.6655 -2.4999 0.9640
-8.6835 -1.6052 -2.4999 0.9640
-8.6206 -1.9149 -2.4999 0.9640
-7.5719 -4.5456 -2.5001 0.9640
-7.4045 -4.8137 -2.5002 0.9640
-7.0415 -5.3311 -2.5003 0.9639
-6.8464 -5.5797 -2.5003 0.9639
-6.6425 -5.8212 -2.5003 0.9639
-6.4300 -6.0552 -2.5004 0.9639
-5.5009 -6.9111 -2.5006 0.9639
-3.0310 -8.2988 -2.5011 0.9639
-2.7322 -8.4021 -2.5012 0.9639
-1.8163 -8.6472 -2.5014 0.9639
-1.5058 -8.7069 -2.5015 0.9639
-1.1938 -8.7554 -2.5015 0.9639
-0.8794 -8.7927 -2.5016 0.9639
-4.1374 6.4176 -2.3486 0.9686
-5.3350 6.1348 -2.5006 0.9665
-5.5510 5.9399 -2.5006 0.9665
-5.9613 5.5275 -2.5005 0.9666
-6.1552 5.3106 -2.5005 0.9666
-6.5190 4.8566 -2.5004 0.9666
-6.8494 4.3779 -2.5003 0.9666
-7.1448 3.8768 -2.5002 0.9666
-7.2788 3.6187 -2.5002 0.9666
-7.5188 3.0888 -2.5002 0.9666
-7.7203 2.5432 -2.5001 0.9666
-7.8063 2.2653 -2.5001 0.9666
-8.1095 0.5499 -2.5000 0.9666
-8.1239 0.2594 -2.5000 0.9666
-8.1280 -0.0314 -2.5000 0.9666
-8.0779 -0.9022 -2.5000 0.9666
-7.7885 -2.3255 -2.5001 0.9666
-7.6024 -2.8766 -2.5001 0.9666
-7.1146 -3.9319 -2.5002 0.9666
-6.9694 -4.1840 -2.5003 0.9666
-6.6526 -4.6718 -2.5003 0.9666
-6.1139 -5.3580 -2.5005 0.9666
-5.9184 -5.5734 -2.5005 0.9666
-5.7153 -5.7817 -2.5005 0.9665
-5.5049 -5.9826 -2.5006 0.9665
-5.0632 -6.3612 -2.5007 0.9665
-4.5955 -6.7073 -2.5008 0.9665
-4.1042 -7.0190 -2.5009 0.9665
-3.8506 -7.1615 -2.5009 0.9665
-3.5919 -7.2949 -2.5010 0.9665
-3.3287 -7.4189 -2.5011 0.9665
-3.0612 -7.5334 -2.5011 0.9665
-1.6717 -7.9589 -2.5014 0.9665
-1.3860 -8.0138 -2.5015 0.9665
-1.0984 -8.0585 -2.5015 0.9665
-4.3002 6.1734 -2.5008 0.9688
-4.5183 6.0155 -2.5008 0.9688
-4.9367 5.6767 -2.5007 0.9688
-5.1366 5.4964 -2.5007 0.9688
-5.5163 5.1149 -2.5006 0.9688
-5.6957 4.9141 -2.5005 0.9688
-5.8678 4.7071 -2.5005 0.9688
-6.1892 4.2754 -2.5004 0.9688
-6.3381 4.0511 -2.5004 0.9688
-6.4789 3.8217 -2.5004 0.9688
-6.6114 3.5874 -2.5004 0.9688
-6.8509 3.1054 -2.5003 0.9688
-6.9575 2.8582 -2.5003 0.9688
-7.1440 2.3533 -2.5002 0.9688
-7.2236 2.0962 -2.5002 0.9688
-7.4065 1.3101 -2.5002 0.9688
-7.4812 0.7770 -2.5002 0.9688
-7.5176 0.2401 -2.5002 0.9688
-7.5155 -0.2981 -2.5002 0.9688
-7.4403 -1.1017 -2.5002 0.9688
-7.3962 -1.3673 -2.5002 0.9688
-7.1256 -2.4084 -2.5002 0.9688
-7.0350 -2.6619 -2.5003 0.9688
-6.9353 -2.9119 -2.5003 0.9688
-6.8267 -3.1582 -2.5003 0.9688
-6.7094 -3.4005 -2.5003 0.9688
-6.4492 -3.8716 -2.5004 0.9688
-5.9974 -4.5406 -2.5005 0.9688
-5.8312 -4.7523 -2.5005 0.9688
-5.6575 -4.9580 -2.5006 0.9688
-5.2886 -5.3501 -2.5006 0.9688
-4.6851 -5.8863 -2.5008 0.9688
-4.4716 -6.0502 -2.5008 0.9688
-4.0277 -6.3548 -2.5009 0.9688
-3.7978 -6.4949 -2.5010 0.9688
-3.5631 -6.6268 -2.5010 0.9688
-3.0802 -6.8649 -2.5011 0.9688
-2.3270 -7.1559 -2.5013 0.9688
-2.0695 -7.2347 -2.5013 0.9688
-1.8094 -7.3043 -2.5014 0.9688
-1.5469 -7.3645 -2.5014 0.9688
-1.2825 -7.4153 -2.5015 0.9688
-1.0163 -7.4567 -2.5016 0.9688
-0.7489 -7.4884 -2.5016 0.9688
-0.4805 -7.5106 -2.5017 0.9688
-4.2000 5.5917 -2.5009 0.9707
-4.3973 5.4378 -2.5008 0.9707
-4.5890 5.2769 -2.5008 0.9707
-4.7747 5.1092 -2.5007 0.9707
-4.9544 4.9351 -2.5007 0.9707
-5.4544 4.3756 -2.5006 0.9707
-5.6074 4.1775 -2.5006 0.9707
-5.7532 3.9742 -2.5005 0.9707
-5.8917 3.7658 -2.5005 0.9707
-6.0226 3.5525 -2.5005 0.9707
-6.1458 3.3347 -2.5005 0.9707
-6.2611 3.1127 -2.5004 0.9707
-6.7148 1.9486 -2.5003 0.9707
-6.7802 1.7071 -2.5003 0.9707
-6.8369 1.4634 -2.5003 0.9707
-6.9240 0.9707 -2.5003 0.9707
-6.9916 -0.0270 -2.5003 0.9707
-6.9862 -0.2771 -2.5003 0.9707
-6.9485 -0.7760 -2.5003 0.9707
-6.8752 -1.2710 -2.5003 0.9707
-6.7668 -1.7594 -2.5003 0.9707
-6.3459 -2.9358 -2.5004 0.9707
-6.2368 -3.1610 -2.5004 0.9707
-6.1198 -3.3821 -2.5005 0.9707
-5.8624 -3.8112 -2.5005 0.9707
-5.5750 -4.2207 -2.5006 0.9707
-5.4204 -4.4176 -2.5006 0.9707
-5.2590 -4.6087 -2.5006 0.9707
-5.0908 -4.7940 -2.5007 0.9707
-4.5480 -5.3122 -2.5008 0.9707
-4.3551 -5.4716 -2.5008 0.9707
-3.9528 -5.7693 -2.5009 0.9707
-3.7439 -5.9071 -2.5010 0.9707
-3.3120 -6.1599 -2.5011 0.9707
-3.0896 -6.2746 -2.5011 0.9707
-2.8631 -6.3812 -2.5012 0.9707
-2.6331 -6.4797 -2.5012 0.9707
-2.3996 -6.5699 -2.5013 0.9707
-2.1630 -6.6517 -2.5013 0.9707
-1.9237 -6.7250 -2.5014 0.9707
-1.6819 -6.7896 -2.5014 0.9707
-0.9447 -6.9312 -2.5016 0.9707
-0.6961 -6.9607 -2.5016 0.9707
-0.4466 -6.9813 -2.5017 0.9707
-3.5363 5.4852 -2.5010 0.9724
-3.7302 5.3551 -2.5010 0.9724
-3.9194 5.2181 -2.5009 0.9724
-4.4557 4.7679 -2.5008 0.9724
-4.9408 4.2629 -2.5007 0.9724
-5.0901 4.0833 -2.5007 0.9724
-5.2328 3.8985 -2.5006 0.9724
-5.8428 2.9048 -2.5005 0.9724
-5.9430 2.6938 -2.5005 0.9724
-6.0355 2.4794 -2.5005 0.9724
-6.4250 1.1365 -2.5004 0.9724
-6.5246 -0.0252 -2.5004 0.9724
-6.5195 -0.2586 -2.5004 0.9724
-6.4844 -0.7242 -2.5004 0.9724
-6.4160 -1.1861 -2.5004 0.9724
-6.2521 -1.8668 -2.5004 0.9724
-6.1026 -2.3091 -2.5005 0.9724
-6.0162 -2.5260 -2.5005 0.9724
-5.9220 -2.7396 -2.5005 0.9724
-5.7110 -3.1562 -2.5005 0.9724
-4.9077 -4.3009 -2.5007 0.9724
-4.7507 -4.4738 -2.5008 0.9724
-4.5877 -4.6409 -2.5008 0.9724
-3.6887 -5.3838 -2.5010 0.9724
-3.4938 -5.5124 -2.5010 0.9724
-3.0907 -5.7484 -2.5011 0.9724
-2.2392 -6.1309 -2.5013 0.9724
-2.0185 -6.2072 -2.5013 0.9724
-1.5695 -6.3359 -2.5014 0.9724
-1.3418 -6.3881 -2.5015 0.9724
-0.8816 -6.4680 -2.5016 0.9724
-0.4168 -6.5148 -2.5017 0.9724
-3.3112 5.1361 -2.5011 0.9739
-3.4928 5.0143 -2.5010 0.9739
-3.6699 4.8860 -2.5010 0.9739
-4.0098 4.6109 -2.5009 0.9739
-4.3292 4.3123 -2.5008 0.9739
-4.6263 3.9915 -2.5008 0.9739
-4.8998 3.6504 -2.5007 0.9739
-5.2626 3.1043 -2.5006 0.9739
-5.6514 2.3217 -2.5006 0.9739
-5.9742 1.2787 -2.5005 0.9739
-6.0504 0.8482 -2.5005 0.9739
-6.0955 0.4133 -2.5005 0.9739
-6.1064 0.1950 -2.5005 0.9739
-6.1094 -0.0236 -2.5005 0.9739
-6.0921 -0.4604 -2.5005 0.9739
-6.0718 -0.6781 -2.5005 0.9739
-6.0077 -1.1106 -2.5005 0.9739
-5.9130 -1.5374 -2.5005 0.9739
-5.7880 -1.9563 -2.5005 0.9739
-5.7143 -2.1622 -2.5005 0.9739
-5.5451 -2.5653 -2.5006 0.9739
-5.3476 -2.9553 -2.5006 0.9739
-5.0002 -3.5115 -2.5007 0.9739
-4.4484 -4.1891 -2.5008 0.9739
-4.2957 -4.3456 -2.5009 0.9739
-4.1375 -4.4966 -2.5009 0.9739
-3.9740 -4.6418 -2.5009 0.9739
-3.6320 -4.9143 -2.5010 0.9739
-2.6996 -5.4826 -2.5012 0.9739
-2.5018 -5.5758 -2.5012 0.9739
-2.0967 -5.7407 -2.5013 0.9739
-1.4695 -5.9326 -2.5015 0.9739
-1.2564 -5.9815 -2.5015 0.9739
-1.0416 -6.0227 -2.5016 0.9739
-3.4465 4.5886 -2.5010 0.9753
-3.6084 4.4622 -2.5010 0.9753
-3.7657 4.3302 -2.5010 0.9753
-4.0656 4.0498 -2.5009 0.9753
-4.2078 3.9016 -2.5009 0.9753
-4.3447 3.7486 -2.5008 0.9753
-4.4760 3.5907 -2.5008 0.9753
-4.7212 3.2613 -2.5008 0.9753
-4.9422 2.9153 -2.5007 0.9753
-5.2260 2.3689 -2.5007 0.9753
-5.3074 2.1803 -2.5006 0.9753
-5.5104 1.5990 -2.5006 0.9753
-5.5640 1.4009 -2.5006 0.9753
-5.6499 0.9994 -2.5006 0.9753
-5.6821 0.7966 -2.5006 0.9753
-5.7347 0.1831 -2.5005 0.9753
-5.7213 -0.4324 -2.5005 0.9753
-5.6757 -0.8404 -2.5006 0.9753
-5.5530 -1.4438 -2.5006 0.9753
-5.4979 -1.6416 -2.5006 0.9753
-5.3664 -2.0305 -2.5006 0.9753
-5.2076 -2.4091 -2.5007 0.9753
-5.1181 -2.5939 -2.5007 0.9753
-5.0220 -2.7754 -2.5007 0.9753
-4.8108 -3.1275 -2.5007 0.9753
-4.6959 -3.2977 -2.5008 0.9753
-4.4481 -3.6251 -2.5008 0.9753
-3.5738 -4.4900 -2.5010 0.9753
-3.2437 -4.7342 -2.5011 0.9753
-2.7178 -5.0548 -2.5012 0.9753
-2.5352 -5.1488 -2.5012 0.9753
-2.3494 -5.2363 -2.5013 0.9753
-1.7749 -5.4582 -2.5014 0.9753
-0.7752 -5.6874 -2.5016 0.9753
-3.0884 4.4337 -2.5011 0.9765
-3.2450 4.3203 -2.5011 0.9765
-3.3974 4.2014 -2.5010 0.9765
-3.5455 4.0771 -2.5010 0.9765
-3.8279 3.8130 -2.5010 0.9765
-3.9619 3.6736 -2.5009 0.9765
-4.2144 3.3808 -2.5009 0.9765
-4.3326 3.2278 -2.5008 0.9765
-4.4452 3.0707 -2.5008 0.9765
-4.5522 2.9096 -2.5008 0.9765
-4.7485 2.5766 -2.5008 0.9765
-4.8376 2.4051 -2.5007 0.9765
-4.9206 2.2304 -2.5007 0.9765
-4.9972 2.0529 -2.5007 0.9765
-5.0674 1.8728 -2.5007 0.9765
-5.1311 1.6903 -2.5007 0.9765
-5.2826 1.1307 -2.5006 0.9765
-5.3197 0.9409 -2.5006 0.9765
-5.3499 0.7500 -2.5006 0.9765
-5.3733 0.5581 -2.5006 0.9765
-5.3898 0.3655 -2.5006 0.9765
-5.3995 0.1724 -2.5006 0.9765
-5.4022 -0.0208 -2.5006 0.9765
-5.3980 -0.2141 -2.5006 0.9765
-5.3440 -0.7913 -2.5006 0.9765
-5.3123 -0.9820 -2.5006 0.9765
-5.1179 -1.7298 -2.5007 0.9765
-4.9812 -2.0914 -2.5007 0.9765
-4.9032 -2.2683 -2.5007 0.9765
-4.8189 -2.4423 -2.5007 0.9765
-4.4214 -3.1049 -2.5008 0.9765
-4.1881 -3.4132 -2.5009 0.9765
-3.7983 -3.8425 -2.5010 0.9765
-3.6585 -3.9759 -2.5010 0.9765
-3.5139 -4.1043 -2.5010 0.9765
-3.2115 -4.3452 -2.5011 0.9765
-2.7275 -4.6645 -2.5012 0.9765
-2.5589 -4.7592 -2.5012 0.9765
-2.2121 -4.9302 -2.5013 0.9765
-2.0343 -5.0062 -2.5013 0.9765
-1.8539 -5.0759 -2.5014 0.9765
-0.7299 -5.3548 -2.5016 0.9765
-0.5378 -5.3776 -2.5017 0.9765
-2.9144 4.1840 -2.5011 0.9775
-3.2061 3.9647 -2.5011 0.9775
-3.3458 3.8474 -2.5011 0.9775
-3.7387 3.4666 -2.5010 0.9775
-3.8603 3.3306 -2.5009 0.9775
-4.2958 2.7458 -2.5009 0.9775
-4.3913 2.5903 -2.5008 0.9775
-4.6434 2.1047 -2.5008 0.9775
-4.8421 1.5950 -2.5007 0.9775
-4.8961 1.4208 -2.5007 0.9775
-4.9851 1.0670 -2.5007 0.9775
-5.0201 0.8880 -2.5007 0.9775
-5.0863 0.3449 -2.5007 0.9775
-5.0940 -0.2021 -2.5007 0.9775
-5.0665 -0.5658 -2.5007 0.9775
-5.0430 -0.7468 -2.5007 0.9775
-5.0131 -0.9267 -2.5007 0.9775
-4.9767 -1.1055 -2.5007 0.9775
-4.9340 -1.2829 -2.5007 0.9775
-4.8850 -1.4586 -2.5007 0.9775
-4.8297 -1.6324 -2.5007 0.9775
-4.3711 -2.6241 -2.5008 0.9775
-4.2744 -2.7788 -2.5009 0.9775
-4.1723 -2.9300 -2.5009 0.9775
-4.0649 -3.0774 -2.5009 0.9775
-3.9522 -3.2210 -2.5009 0.9775
-3.8344 -3.3603 -2.5010 0.9775
-3.4524 -3.7520 -2.5010 0.9775
-3.3160 -3.8732 -2.5011 0.9775
-3.1753 -3.9894 -2.5011 0.9775
-2.7297 -4.3068 -2.5012 0.9775
-2.5739 -4.4018 -2.5012 0.9775
-2.4148 -4.4911 -2.5013 0.9775
-2.0875 -4.6524 -2.5013 0.9775
-1.9197 -4.7242 -2.5014 0.9775
-1.5770 -4.8495 -2.5014 0.9775
-1.0483 -4.9908 -2.5015 0.9775
-0.8691 -5.0252 -2.5016 0.9775
-0.5075 -5.0746 -2.5017 0.9775
-0.3256 -5.0896 -2.5017 0.9775
-2.8955 3.8550 -2.5012 0.9785
-3.0315 3.7488 -2.5011 0.9785
-3.1636 3.6379 -2.5011 0.9785
-3.4156 3.4023 -2.5010 0.9785
-3.9664 2.7399 -2.5009 0.9785
-4.0619 2.5962 -2.5009 0.9785
-4.1522 2.4492 -2.5009 0.9785
-4.2371 2.2991 -2.5009 0.9785
-4.3166 2.1460 -2.5008 0.9785
-4.3906 1.9902 -2.5008 0.9785
-4.5216 1.6711 -2.5008 0.9785
-4.5785 1.5082 -2.5008 0.9785
-4.6295 1.3434 -2.5008 0.9785
-4.6746 1.1769 -2.5008 0.9785
-4.7468 0.8396 -2.5008 0.9785
-4.7738 0.6692 -2.5007 0.9785
-4.7946 0.4980 -2.5007 0.9785
-4.8094 0.3262 -2.5007 0.9785
-4.8180 0.1539 -2.5007 0.9785
-4.8204 -0.0186 -2.5007 0.9785
-4.8166 -0.1911 -2.5007 0.9785
-4.8067 -0.3633 -2.5007 0.9785
-4.7906 -0.5350 -2.5007 0.9785
-4.7684 -0.7061 -2.5007 0.9785
-4.3751 -2.0240 -2.5008 0.9785
-4.2999 -2.1793 -2.5009 0.9785
-4.1331 -2.4812 -2.5009 0.9785
-4.0417 -2.6275 -2.5009 0.9785
-3.5097 -3.3051 -2.5010 0.9785
-3.2644 -3.5477 -2.5011 0.9785
-2.8656 -3.8772 -2.5012 0.9785
-2.7251 -3.9773 -2.5012 0.9785
-2.2832 -4.2465 -2.5013 0.9785
-2.1299 -4.3256 -2.5013 0.9785
-1.9738 -4.3991 -2.5014 0.9785
-1.8151 -4.4669 -2.5014 0.9785
-1.6542 -4.5291 -2.5014 0.9785
-1.4911 -4.5854 -2.5015 0.9785
-1.1594 -4.6804 -2.5015 0.9785
-0.9912 -4.7190 -2.5016 0.9785
-0.8217 -4.7515 -2.5016 0.9785
-2.4745 3.8383 -2.5012 0.9794
-2.8714 3.5509 -2.5012 0.9794
-2.9966 3.4459 -2.5011 0.9794
-3.2353 3.2227 -2.5011 0.9794
-3.3485 3.1048 -2.5011 0.9794
-3.4574 2.9830 -2.5010 0.9794
-3.5619 2.8574 -2.5010 0.9794
-3.6618 2.7281 -2.5010 0.9794
-3.7570 2.5953 -2.5010 0.9794
-4.0134 2.1777 -2.5009 0.9794
-4.0887 2.0327 -2.5009 0.9794
-4.1588 1.8851 -2.5009 0.9794
-4.2236 1.7351 -2.5009 0.9794
-4.2829 1.5829 -2.5009 0.9794
-4.3368 1.4286 -2.5008 0.9794
-4.4649 0.9557 -2.5008 0.9794
-4.4962 0.7953 -2.5008 0.9794
-4.5218 0.6339 -2.5008 0.9794
-4.5415 0.4717 -2.5008 0.9794
-4.5555 0.3089 -2.5008 0.9794
-4.5636 0.1458 -2.5008 0.9794
-4.5659 -0.0176 -2.5008 0.9794
-4.5530 -0.3441 -2.5008 0.9794
-4.5377 -0.5068 -2.5008 0.9794
-4.4191 -1.1490 -2.5008 0.9794
-4.3752 -1.3063 -2.5008 0.9794
-4.3256 -1.4621 -2.5008 0.9794
-4.2706 -1.6159 -2.5009 0.9794
-3.9965 -2.2086 -2.5009 0.9794
-3.9149 -2.3503 -2.5009 0.9794
-3.8284 -2.4888 -2.5010 0.9794
-3.7369 -2.6242 -2.5010 0.9794
-3.6406 -2.7563 -2.5010 0.9794
-3.5397 -2.8848 -2.5010 0.9794
-3.4342 -3.0096 -2.5010 0.9794
-3.3244 -3.1306 -2.5011 0.9794
-3.2103 -3.2475 -2.5011 0.9794
-2.8439 -3.5730 -2.5012 0.9794
-2.7143 -3.6725 -2.5012 0.9794
-2.3052 -3.9423 -2.5013 0.9794
-2.0174 -4.0972 -2.5013 0.9794
-1.4124 -4.3433 -2.5015 0.9794
-1.2560 -4.3911 -2.5015 0.9794
-1.0982 -4.4333 -2.5015 0.9794
-0.7784 -4.5006 -2.5016 0.9794
-0.4545 -4.5449 -2.5017 0.9794
-0.2916 -4.5583 -2.5017 0.9794
-2.3475 3.6412 -2.5013 0.9802
-2.4762 3.5549 -2.5012 0.9802
-2.8428 3.2690 -2.5012 0.9802
-3.5642 2.4621 -2.5010 0.9802
-3.6500 2.3330 -2.5010 0.9802
-3.8074 2.0659 -2.5010 0.9802
-3.9453 1.7883 -2.5009 0.9802
-4.0068 1.6460 -2.5009 0.9802
-4.1142 1.3553 -2.5009 0.9802
-4.2005 1.0576 -2.5009 0.9802
-4.2357 0.9066 -2.5009 0.9802
-4.2654 0.7545 -2.5009 0.9802
-4.3217 0.2931 -2.5008 0.9802
-4.3294 0.1383 -2.5008 0.9802
-4.3282 -0.1717 -2.5008 0.9802
-4.2849 -0.6345 -2.5009 0.9802
-4.2594 -0.7874 -2.5009 0.9802
-4.1506 -1.2393 -2.5009 0.9802
-4.1036 -1.3870 -2.5009 0.9802
-4.0514 -1.5329 -2.5009 0.9802
-3.9314 -1.8188 -2.5009 0.9802
-3.4537 -2.6148 -2.5010 0.9802
-3.3580 -2.7367 -2.5011 0.9802
-3.2579 -2.8551 -2.5011 0.9802
-3.0455 -3.0808 -2.5011 0.9802
-2.9333 -3.1879 -2.5011 0.9802
-2.5749 -3.4839 -2.5012 0.9802
-2.3192 -3.6592 -2.5013 0.9802
-2.0517 -3.8158 -2.5013 0.9802
-1.9138 -3.8868 -2.5014 0.9802
-1.7736 -3.9529 -2.5014 0.9802
-1.4864 -4.0697 -2.5015 0.9802
-1.3399 -4.1203 -2.5015 0.9802
-1.1916 -4.1656 -2.5015 0.9802
-0.5852 -4.2933 -2.5016 0.9802
-0.4312 -4.3115 -2.5017 0.9802
