ply
format ascii 1.0
element vertex 1145
property float32 x
property float32 y
property float32 z
property float32 I
end_header
41.7995 11.0758 7.6247 0.8389
40.8140 12.3963 7.5212 0.8409
40.0260 13.7421 7.4620 0.8421
41.9475 17.8547 8.0386 0.8310
41.9866 19.6775 8.1761 0.8283
40.3679 24.5176 8.3279 0.8254
40.2993 26.4985 8.5044 0.8221
-1.7521 20.2489 3.5838 0.9208
-3.9848 20.2967 3.6472 0.9194
-4.7500 20.3131 3.6784 0.9188
-5.5293 20.3297 3.7149 0.9180
-6.3253 20.3468 3.7571 0.9171
45.3864 8.6029 7.0767 0.8295
39.9583 10.5880 6.3326 0.8460
39.9917 12.1465 6.4028 0.8444
40.0609 15.3802 6.5739 0.8406
41.9473 17.8546 6.9840 0.8315
41.9864 19.6774 7.1034 0.8289
40.1724 20.6145 6.9172 0.8330
-0.2956 20.2178 3.0976 0.9214
-1.0220 20.2333 3.1036 0.9213
-3.2315 20.2806 3.1461 0.9203
-3.9848 20.2967 3.1687 0.9197
-6.3253 20.3468 3.2642 0.9174
45.3788 8.6015 6.0145 0.8300
42.5562 9.6583 5.6826 0.8386
41.7991 11.0757 5.6310 0.8399
40.0607 15.3801 5.5880 0.8411
41.9862 19.6773 6.0381 0.8294
40.1722 20.6144 5.8798 0.8335
40.2130 22.4915 6.0000 0.8304
40.2550 24.4490 6.1331 0.8270
40.2989 26.4982 6.2806 0.8232
-0.2956 20.2178 2.6331 0.9217
-1.0220 20.2333 2.6382 0.9215
-1.7521 20.2489 2.6467 0.9213
-2.4880 20.2647 2.6587 0.9209
-3.9848 20.2967 2.6935 0.9200
-4.7499 20.3130 2.7165 0.9193
-5.5293 20.3297 2.7435 0.9185
-6.3253 20.3468 2.7747 0.9176
35.5188 -22.5412 4.5173 0.8443
37.7319 -18.5978 4.5172 0.8443
37.7669 -16.9608 4.4457 0.8466
37.9987 -15.4533 4.4049 0.8479
42.5480 -15.5506 4.8645 0.8334
45.3746 8.6007 4.9592 0.8304
42.5562 9.6583 4.6860 0.8390
40.0255 13.7419 4.5443 0.8435
40.0605 15.3800 4.6079 0.8414
41.9469 17.8544 4.8954 0.8324
-1.0220 20.2333 2.1755 0.9217
-1.7521 20.2489 2.1825 0.9215
-2.4880 20.2646 2.1924 0.9211
-3.2315 20.2806 2.2052 0.9207
-3.9848 20.2967 2.2211 0.9202
-5.5293 20.3297 2.2623 0.9187
-6.3253 20.3467 2.2880 0.9179
37.9072 -30.2201 4.1039 0.8232
35.8059 -26.5030 3.7711 0.8363
36.0396 -21.0990 3.5352 0.8457
36.0755 -19.4185 3.4682 0.8483
37.7317 -18.5978 3.5610 0.8446
37.7667 -16.9607 3.5047 0.8469
42.5562 9.6583 3.6941 0.8393
39.9577 10.5878 3.4993 0.8471
39.9911 12.1463 3.5381 0.8455
41.9467 17.8544 3.8592 0.8328
41.9857 19.6771 3.9252 0.8302
40.2984 26.4979 4.0828 0.8240
-1.0220 20.2333 1.7150 0.9219
-1.7521 20.2489 1.7205 0.9217
-3.2315 20.2806 1.7385 0.9209
-3.9848 20.2967 1.7510 0.9203
-4.7499 20.3130 1.7659 0.9197
-5.5293 20.3297 1.7835 0.9189
35.9219 -26.5889 2.7714 0.8360
35.9114 -22.7904 2.6375 0.8433
36.0394 -21.0988 2.5896 0.8459
36.0753 -19.4184 2.5405 0.8486
37.7315 -18.5977 2.6085 0.8449
37.7665 -16.9607 2.5672 0.8471
45.3662 8.5991 2.8633 0.8311
42.5561 9.6583 2.7060 0.8396
41.7985 11.0755 2.6814 0.8409
40.0601 15.3799 2.6609 0.8420
41.9465 17.8543 2.8269 0.8330
41.9855 19.6770 2.8753 0.8304
40.1716 20.6141 2.7999 0.8345
40.3668 24.5170 2.9287 0.8276
-0.2956 20.2178 1.2538 0.9222
-1.0220 20.2333 1.2563 0.9220
-3.2315 20.2806 1.2735 0.9210
-4.7499 20.3130 1.2936 0.9198
-5.5293 20.3297 1.3064 0.9190
-6.3253 20.3467 1.3213 0.9182
34.3403 -27.3764 1.7317 0.8388
35.9105 -24.6385 1.7172 0.8400
35.9112 -22.7903 1.6771 0.8434
35.9226 -21.0305 1.6414 0.8465
35.9584 -19.3555 1.6102 0.8492
42.6243 -15.5785 1.7895 0.8339
42.5562 9.6583 1.7207 0.8397
40.0599 15.3798 1.6920 0.8422
41.9463 17.8542 1.7976 0.8332
40.1714 20.6140 1.7804 0.8346
40.2407 22.5069 1.8181 0.8315
-0.2956 20.2163 0.7972 0.9223
-1.0219 20.2318 0.7988 0.9221
-3.9848 20.2967 0.8156 0.9205
-4.7499 20.3130 0.8226 0.9199
34.3398 -27.3760 0.7418 0.8389
34.4576 -21.8678 0.6894 0.8494
34.4935 -20.1938 0.6752 0.8522
34.8560 -18.7621 0.6687 0.8535
45.3580 8.5975 0.7798 0.8314
39.9905 12.1461 0.7060 0.8460
41.9851 19.6768 0.7832 0.8307
39.9805 22.3614 0.7738 0.8325
37.6563 31.0287 0.8242 0.8227
-0.2956 20.2163 0.3415 0.9223
-1.7520 20.2474 0.3433 0.9219
-2.4878 20.2632 0.3449 0.9216
-4.7496 20.3116 0.3524 0.9199
34.3869 -25.4527 -0.2409 0.8427
34.4200 -23.6159 -0.2350 0.8462
34.4575 -21.8677 -0.2298 0.8494
34.8561 -18.7621 -0.2229 0.8536
37.7309 -18.5974 -0.2368 0.8451
37.8000 -15.3724 -0.2297 0.8494
43.4078 -14.1230 -0.2570 0.8331
45.3538 8.5967 -0.2599 0.8314
35.9395 10.9158 -0.2115 0.8605
35.8564 12.3105 -0.2136 0.8593
35.9216 13.7910 -0.2166 0.8573
35.9027 16.8262 -0.2232 0.8533
35.8928 18.4184 -0.2271 0.8510
35.8825 20.0694 -0.2315 0.8484
35.8603 23.5797 -0.2416 0.8423
1.4181 24.8184 -0.1400 0.9053
-1.7520 20.2474 -0.1144 0.9219
-2.4878 20.2632 -0.1149 0.9216
-3.2313 20.2791 -0.1156 0.9211
-3.9845 20.2952 -0.1164 0.9206
-4.7496 20.3116 -0.1174 0.9199
-6.3249 20.3453 -0.1200 0.9183
36.4373 -31.2484 -1.3516 0.8252
34.3394 -27.3757 -1.2366 0.8388
34.3867 -25.4526 -1.2046 0.8427
34.4199 -23.6157 -1.1754 0.8462
34.4573 -21.8676 -1.1491 0.8493
34.8560 -18.7621 -1.1146 0.8535
37.7308 -18.5973 -1.1845 0.8451
37.7658 -16.9603 -1.1657 0.8473
43.4051 -14.1221 -1.2853 0.8331
35.9393 10.9157 -1.0576 0.8604
35.8564 12.3105 -1.0675 0.8592
35.9215 13.7910 -1.0835 0.8573
35.9121 15.2858 -1.0990 0.8554
35.9025 16.8262 -1.1165 0.8533
35.8926 18.4184 -1.1360 0.8509
35.8713 21.7866 -1.1818 0.8454
35.8601 23.5795 -1.2085 0.8422
35.8364 27.4332 -1.2708 0.8348
35.8234 29.5185 -1.3070 0.8305
-1.0219 20.2318 -0.5704 0.9221
-1.7520 20.2474 -0.5723 0.9219
-3.2313 20.2791 -0.5782 0.9211
-3.9845 20.2952 -0.5824 0.9206
-4.7496 20.3116 -0.5874 0.9199
36.3879 -33.5428 -2.5098 0.8202
34.3392 -27.3756 -2.2272 0.8387
34.4571 -21.8675 -2.0697 0.8492
34.8560 -18.7621 -2.0075 0.8534
37.7306 -18.5972 -2.1333 0.8450
37.7656 -16.9603 -2.0995 0.8472
38.3431 -14.0138 -2.0703 0.8492
40.6757 -11.6395 -2.1456 0.8441
40.8988 -10.1325 -2.1369 0.8447
43.3099 -7.4862 -2.2290 0.8386
43.9013 -1.2193 -2.2273 0.8387
43.9582 0.3553 -2.2294 0.8386
43.9735 1.9331 -2.2322 0.8384
43.8753 5.0960 -2.2401 0.8379
41.4828 6.3322 -2.1281 0.8453
40.4010 9.1692 -2.1010 0.8471
35.9478 9.5253 -1.8860 0.8616
35.8482 25.4577 -2.2298 0.8385
35.8362 27.4331 -2.2888 0.8346
35.4673 29.2250 -2.3307 0.8319
33.6465 32.0371 -2.3561 0.8302
32.4733 33.2190 -2.3559 0.8302
32.2886 35.4902 -2.4333 0.8252
31.9502 37.7523 -2.5082 0.8203
24.6933 42.8188 -2.5067 0.8204
19.9470 45.2046 -2.5058 0.8205
16.6531 46.5050 -2.5051 0.8205
6.0020 36.1290 -1.8574 0.8636
6.3383 48.9473 -2.5030 0.8206
1.6098 28.1731 -1.4311 0.8931
-0.2956 20.2163 -1.0254 0.9222
-1.0219 20.2318 -1.0273 0.9221
-1.7520 20.2474 -1.0307 0.9218
-3.2313 20.2791 -1.0414 0.9210
-5.5289 20.3283 -1.0684 0.9191
20.1745 -33.7116 -2.8806 0.8542
21.1954 -32.6979 -2.8571 0.8553
22.1747 -31.6617 -2.8342 0.8564
23.1075 -30.5980 -2.8114 0.8575
25.6164 -27.2578 -2.7427 0.8607
26.3785 -26.1257 -2.7222 0.8617
27.0888 -24.9707 -2.7013 0.8626
29.0564 -21.5071 -2.6506 0.8650
30.1673 -19.1450 -2.6198 0.8665
31.4646 -15.5087 -2.5721 0.8688
31.8528 -14.3049 -2.5602 0.8693
32.1228 -13.0636 -2.5426 0.8702
32.5355 -11.8912 -2.5399 0.8703
32.7991 -10.6714 -2.5290 0.8708
32.9632 -9.4325 -2.5139 0.8715
33.0950 -8.1992 -2.5000 0.8722
33.2130 -6.9753 -2.4884 0.8727
33.3325 -5.7616 -2.4802 0.8731
33.5657 -2.1381 -2.4661 0.8738
33.6273 0.2718 -2.4657 0.8738
33.6028 2.6865 -2.4717 0.8735
33.4891 5.1120 -2.4839 0.8730
33.3936 6.3297 -2.4921 0.8726
33.0620 8.7606 -2.5078 0.8718
32.3553 11.1085 -2.5083 0.8718
31.9354 12.2606 -2.5082 0.8718
31.4742 13.3968 -2.5081 0.8718
30.9726 14.5156 -2.5080 0.8718
29.2315 17.7539 -2.5077 0.8718
27.8815 19.8002 -2.5074 0.8718
26.3883 21.7440 -2.5071 0.8718
25.5904 22.6743 -2.5069 0.8719
23.0040 25.2849 -2.5064 0.8719
22.0813 26.0912 -2.5062 0.8719
21.1304 26.8638 -2.5060 0.8719
20.1524 27.6016 -2.5058 0.8719
18.1204 28.9697 -2.5054 0.8719
17.0690 29.5980 -2.5052 0.8719
15.9958 30.1881 -2.5050 0.8719
7.4985 16.9935 -1.3619 0.9282
6.8260 17.1044 -1.3503 0.9288
6.6418 18.5476 -1.4445 0.9240
6.4997 20.4302 -1.5720 0.9176
6.4279 23.0313 -1.7532 0.9086
5.2562 31.6395 -2.3517 0.8793
4.1183 31.8041 -2.3514 0.8793
2.2897 24.5689 -1.8092 0.9058
1.3986 24.4766 -1.7976 0.9064
0.6805 32.0524 -2.3507 0.8793
-1.0219 20.2318 -1.4853 0.9220
-1.7520 20.2474 -1.4901 0.9217
-3.2313 20.2791 -1.5057 0.9209
-4.7496 20.3116 -1.5295 0.9197
-5.5289 20.3283 -1.5447 0.9190
-6.3249 20.3453 -1.5622 0.9181
15.1656 -23.3957 -2.6767 0.8940
15.9450 -22.7666 -2.6685 0.8943
17.4190 -21.4234 -2.6508 0.8950
18.1117 -20.7122 -2.6415 0.8953
20.0022 -18.4382 -2.6117 0.8964
20.5675 -17.6385 -2.6013 0.8968
21.0994 -16.8207 -2.5906 0.8972
23.5004 -12.6496 -2.5622 0.8983
23.9188 -11.7894 -2.5601 0.8984
24.3054 -10.9154 -2.5579 0.8985
24.6597 -10.0285 -2.5557 0.8985
25.2700 -8.2218 -2.5512 0.8987
25.5254 -7.3042 -2.5489 0.8988
26.0897 -4.5096 -2.5419 0.8991
26.2099 -3.5683 -2.5395 0.8992
26.2961 -2.6241 -2.5371 0.8993
26.3482 -1.6783 -2.5347 0.8993
26.3662 -0.7323 -2.5323 0.8994
26.3504 0.2130 -2.5298 0.8995
26.2172 2.0961 -2.5250 0.8997
25.9501 3.9612 -2.5202 0.8999
25.5512 5.7990 -2.5154 0.9001
25.3032 6.7047 -2.5131 0.9002
25.0233 7.6002 -2.5107 0.9002
24.7121 8.4844 -2.5084 0.9003
24.3753 9.3581 -2.5067 0.9004
23.6409 11.0796 -2.5065 0.9004
23.2278 11.9194 -2.5065 0.9004
22.3126 13.5517 -2.5063 0.9004
21.8117 14.3422 -2.5062 0.9004
21.2828 15.1140 -2.5061 0.9004
20.1435 16.5983 -2.5058 0.9004
19.5347 17.3087 -2.5057 0.9004
18.2428 18.6617 -2.5054 0.9004
17.5612 19.3025 -2.5053 0.9004
16.8572 19.9184 -2.5052 0.9005
16.1315 20.5085 -2.5050 0.9005
7.0068 12.1499 -1.3465 0.9452
6.7441 15.2836 -1.6038 0.9351
6.4996 20.4300 -2.0582 0.9175
6.4020 22.9386 -2.2864 0.9087
3.1468 24.3015 -2.3525 0.9062
2.2736 24.3967 -2.3523 0.9062
1.3297 23.2703 -2.2377 0.9106
0.5200 24.4931 -2.3520 0.9062
-0.2956 20.2163 -1.9411 0.9220
-1.0219 20.2318 -1.9448 0.9218
-1.7520 20.2474 -1.9511 0.9216
-3.2313 20.2791 -1.9715 0.9208
-4.7496 20.3116 -2.0026 0.9196
-5.5289 20.3283 -2.0225 0.9188
11.3047 -18.8902 -2.6150 0.9151
11.9504 -18.4358 -2.6098 0.9153
14.8604 -15.8126 -2.5776 0.9163
16.3443 -14.0168 -2.5576 0.9169
16.8299 -13.4170 -2.5567 0.9170
17.2966 -12.8027 -2.5562 0.9170
17.7405 -12.1718 -2.5556 0.9170
19.5962 -8.8004 -2.5517 0.9171
20.1480 -7.3637 -2.5481 0.9172
20.5939 -5.8930 -2.5445 0.9173
20.7766 -5.1473 -2.5426 0.9174
20.9321 -4.3961 -2.5407 0.9175
21.0604 -3.6403 -2.5388 0.9175
21.1613 -2.8809 -2.5368 0.9176
21.2992 -0.5915 -2.5310 0.9178
21.2903 0.1721 -2.5291 0.9178
21.2540 0.9343 -2.5271 0.9179
21.1904 1.6942 -2.5252 0.9179
21.0998 2.4507 -2.5232 0.9180
20.8380 3.9498 -2.5193 0.9181
20.6672 4.6905 -2.5174 0.9182
20.4703 5.4241 -2.5155 0.9182
19.9991 6.8663 -2.5117 0.9184
19.1047 8.9537 -2.5062 0.9185
18.0273 10.9490 -2.5054 0.9185
17.1955 12.2114 -2.5052 0.9186
16.2753 13.4109 -2.5051 0.9186
15.7836 13.9850 -2.5050 0.9186
15.2716 14.5411 -2.5048 0.9186
14.1894 15.5964 -2.5046 0.9186
13.6207 16.0942 -2.5045 0.9186
6.8026 10.8756 -1.5238 0.9496
6.7173 15.2231 -1.9765 0.9352
6.5174 18.2003 -2.2964 0.9251
6.0078 18.8839 -2.3539 0.9233
1.8382 19.7240 -2.3531 0.9233
1.1300 19.7759 -2.3529 0.9233
-0.9991 19.7794 -2.3525 0.9233
-1.7072 19.7297 -2.3524 0.9233
-3.1158 19.5546 -2.3521 0.9233
-3.8145 19.4294 -2.3520 0.9233
-5.8772 18.9051 -2.3517 0.9233
8.7429 -14.6093 -2.4123 0.9335
10.3888 -14.8334 -2.5659 0.9295
11.8630 -13.5663 -2.5535 0.9298
12.7841 -12.6616 -2.5494 0.9299
15.8218 -8.5165 -2.5459 0.9300
16.1127 -7.9418 -2.5452 0.9300
16.3823 -7.3571 -2.5445 0.9300
16.6304 -6.7632 -2.5438 0.9300
17.2414 -4.9315 -2.5412 0.9301
17.6414 -3.0493 -2.5367 0.9302
17.7281 -2.4136 -2.5351 0.9303
17.8503 -0.4957 -2.5302 0.9304
17.8451 0.1443 -2.5285 0.9304
17.7658 1.4204 -2.5253 0.9305
17.6920 2.0549 -2.5236 0.9306
17.5956 2.6859 -2.5220 0.9306
17.4768 3.3127 -2.5204 0.9307
17.3358 3.9345 -2.5188 0.9307
17.1727 4.5504 -2.5172 0.9307
16.9878 5.1597 -2.5156 0.9308
16.3055 6.9404 -2.5109 0.9309
16.0366 7.5157 -2.5094 0.9310
15.7475 8.0809 -2.5079 0.9310
15.4387 8.6350 -2.5064 0.9310
15.1106 9.1775 -2.5050 0.9311
14.7707 9.7124 -2.5047 0.9311
14.4127 10.2352 -2.5047 0.9311
14.0362 10.7449 -2.5046 0.9311
13.6416 11.2407 -2.5045 0.9311
7.5522 9.6013 -1.7308 0.9518
6.9824 9.5634 -1.6778 0.9533
6.8241 10.0868 -1.7255 0.9520
6.1594 15.4338 -2.3545 0.9351
5.6022 15.6446 -2.3545 0.9351
5.0376 15.8345 -2.3544 0.9351
2.7225 16.3882 -2.3538 0.9351
2.1333 16.4743 -2.3537 0.9351
1.5414 16.5392 -2.3536 0.9351
0.9475 16.5829 -2.3535 0.9351
-2.6129 16.3983 -2.3528 0.9351
-4.3575 16.0212 -2.3525 0.9351
-4.9287 15.8541 -2.3524 0.9351
7.4208 -12.4003 -2.3807 0.9431
8.2824 -11.8258 -2.3785 0.9432
10.5736 -11.2511 -2.5435 0.9393
10.9693 -10.8642 -2.5434 0.9393
11.3507 -10.4632 -2.5432 0.9393
11.7172 -10.0486 -2.5429 0.9393
12.0684 -9.6211 -2.5426 0.9393
12.4038 -9.1811 -2.5423 0.9394
13.0253 -8.2662 -2.5414 0.9394
13.3106 -7.7926 -2.5409 0.9394
13.8286 -6.8160 -2.5398 0.9394
14.2742 -5.8050 -2.5385 0.9394
14.4691 -5.2882 -2.5378 0.9395
14.6450 -4.7648 -2.5371 0.9395
15.0573 -3.1623 -2.5346 0.9395
15.1556 -2.6196 -2.5337 0.9396
15.2342 -2.0740 -2.5328 0.9396
15.2930 -1.5261 -2.5319 0.9396
15.3324 -0.9766 -2.5310 0.9396
15.3459 0.1241 -2.5281 0.9397
15.2805 1.2217 -2.5253 0.9397
15.2184 1.7676 -2.5239 0.9398
14.9160 3.3853 -2.5197 0.9399
14.2483 5.4702 -2.5143 0.9400
14.0357 5.9742 -2.5130 0.9400
13.2928 7.4348 -2.5091 0.9401
12.0707 9.2403 -2.5043 0.9402
11.7311 9.6664 -2.5041 0.9402
11.0079 10.4814 -2.5040 0.9402
10.6248 10.8688 -2.5039 0.9402
7.4986 9.5332 -1.9981 0.9520
6.8041 10.0572 -2.0004 0.9520
6.2354 12.8619 -2.3547 0.9437
5.7711 13.0787 -2.3550 0.9437
5.2984 13.2765 -2.3549 0.9437
3.3461 13.8946 -2.3544 0.9437
2.8458 14.0048 -2.3543 0.9437
1.8351 14.1713 -2.3541 0.9437
-0.2089 14.2855 -2.3536 0.9437
-0.7207 14.2682 -2.3535 0.9437
-1.7408 14.1788 -2.3533 0.9437
-4.2400 13.6389 -2.3529 0.9437
8.0821 -10.7020 -2.5207 0.9469
9.2366 -9.8284 -2.5351 0.9466
9.5969 -9.5049 -2.5388 0.9465
10.8525 -8.0328 -2.5378 0.9465
11.1319 -7.6376 -2.5375 0.9465
11.6466 -6.8184 -2.5367 0.9466
11.8813 -6.3954 -2.5362 0.9466
12.3039 -5.5256 -2.5352 0.9466
12.6622 -4.6278 -2.5340 0.9466
13.1790 -2.7678 -2.5312 0.9467
13.2657 -2.2930 -2.5304 0.9467
13.4219 -0.8549 -2.5279 0.9467
13.4391 -0.3732 -2.5270 0.9468
13.3866 1.0703 -2.5242 0.9468
13.2651 2.0249 -2.5222 0.9468
12.8186 3.8933 -2.5181 0.9469
12.4950 4.7971 -2.5157 0.9470
11.8916 6.1022 -2.5123 0.9471
11.6601 6.5216 -2.5111 0.9471
11.4139 6.9323 -2.5101 0.9471
11.1533 7.3338 -2.5090 0.9471
10.5905 8.1072 -2.5069 0.9472
10.2891 8.4782 -2.5059 0.9472
9.9738 8.8373 -2.5047 0.9472
9.6469 9.1854 -2.5037 0.9472
7.4916 9.5244 -2.2776 0.9519
6.6451 10.6236 -2.3553 0.9503
4.2239 11.7956 -2.3550 0.9503
3.3677 12.0667 -2.3547 0.9503
2.9330 12.1791 -2.3546 0.9503
2.4945 12.2758 -2.3545 0.9503
2.0528 12.3568 -2.3544 0.9503
1.6085 12.4219 -2.3543 0.9503
0.2659 12.5213 -2.3540 0.9503
-1.0796 12.4761 -2.3538 0.9503
-1.5260 12.4290 -2.3537 0.9503
-2.8510 12.1922 -2.3535 0.9503
-3.7168 11.9560 -2.3533 0.9503
7.5085 -9.2346 -2.5158 0.9525
7.8365 -8.9616 -2.5164 0.9525
8.7856 -8.0985 -2.5257 0.9523
9.8852 -6.7823 -2.5341 0.9522
10.1205 -6.4228 -2.5337 0.9522
10.5513 -5.6795 -2.5329 0.9522
10.7462 -5.2967 -2.5325 0.9522
11.0937 -4.5116 -2.5315 0.9522
11.2459 -4.1102 -2.5309 0.9522
11.3834 -3.7036 -2.5304 0.9522
11.5060 -3.2925 -2.5298 0.9522
11.8458 -1.6127 -2.5271 0.9523
11.8925 -1.1867 -2.5263 0.9523
11.9238 -0.7595 -2.5256 0.9523
11.9396 -0.3316 -2.5248 0.9523
11.9400 0.0965 -2.5239 0.9524
11.7112 2.2199 -2.5196 0.9524
11.6198 2.6372 -2.5187 0.9525
11.5135 3.0508 -2.5177 0.9525
11.3925 3.4602 -2.5168 0.9525
10.9425 4.6577 -2.5138 0.9525
10.7643 5.0448 -2.5128 0.9526
10.5724 5.4252 -2.5118 0.9526
9.4130 7.2057 -2.5058 0.9527
9.1433 7.5341 -2.5043 0.9527
8.8647 7.8546 -2.5036 0.9527
7.1941 8.5006 -2.3540 0.9555
6.5723 9.0017 -2.3560 0.9555
5.9099 9.4484 -2.3557 0.9555
5.5672 9.6537 -2.3556 0.9555
5.2174 9.8466 -2.3555 0.9555
4.8609 10.0268 -2.3554 0.9555
3.7561 10.4893 -2.3551 0.9555
3.3776 10.6168 -2.3550 0.9555
2.6082 10.8306 -2.3548 0.9555
2.2183 10.9166 -2.3547 0.9555
1.8255 10.9887 -2.3546 0.9555
-0.1628 11.1361 -2.3542 0.9555
-0.5618 11.1227 -2.3541 0.9555
-1.3571 11.0532 -2.3540 0.9555
-2.9224 10.7447 -2.3537 0.9555
-3.3055 10.6328 -2.3536 0.9555
5.7928 -8.9365 -2.5029 0.9572
6.1095 -8.7233 -2.5030 0.9572
6.4255 -8.5083 -2.5058 0.9571
7.0370 -8.0474 -2.5124 0.9570
8.1310 -6.9731 -2.5175 0.9569
9.2812 -5.4336 -2.5276 0.9568
9.9678 -4.0537 -2.5290 0.9567
10.4361 -2.5855 -2.5269 0.9568
10.5196 -2.2093 -2.5263 0.9568
10.5894 -1.8304 -2.5257 0.9568
10.6455 -1.4493 -2.5250 0.9568
10.6878 -1.0665 -2.5244 0.9568
10.7308 -0.2980 -2.5230 0.9568
10.7315 0.0868 -2.5222 0.9569
10.7183 0.4712 -2.5215 0.9569
10.6504 1.2370 -2.5199 0.9569
10.5959 1.6175 -2.5191 0.9569
10.5277 1.9955 -2.5183 0.9569
10.4459 2.3708 -2.5175 0.9569
10.3508 2.7427 -2.5166 0.9570
10.2424 3.1109 -2.5158 0.9570
10.1208 3.4748 -2.5149 0.9570
9.9863 3.8340 -2.5140 0.9570
9.8390 4.1879 -2.5131 0.9570
9.5038 4.8769 -2.5105 0.9571
9.3162 5.2107 -2.5087 0.9571
8.6906 6.1717 -2.5051 0.9571
8.4611 6.4771 -2.5043 0.9572
8.2213 6.7744 -2.5036 0.9572
7.2440 6.8975 -2.3508 0.9597
6.9939 7.1545 -2.3514 0.9597
6.7355 7.4033 -2.3523 0.9597
6.4681 7.6427 -2.3531 0.9597
6.1922 7.8723 -2.3539 0.9597
5.9080 8.0918 -2.3547 0.9597
5.6158 8.3009 -2.3554 0.9597
5.3155 8.4981 -2.3558 0.9596
5.0073 8.6828 -2.3557 0.9597
4.0459 9.1690 -2.3554 0.9597
3.7145 9.3077 -2.3553 0.9597
3.3784 9.4345 -2.3552 0.9597
2.3460 9.7416 -2.3549 0.9597
1.9952 9.8191 -2.3549 0.9597
1.2866 9.9361 -2.3547 0.9597
0.5715 10.0021 -2.3545 0.9597
0.2127 10.0158 -2.3545 0.9597
-0.1464 10.0167 -2.3544 0.9597
-0.5053 10.0047 -2.3543 0.9597
-1.2207 9.9422 -2.3542 0.9597
-1.9297 9.8287 -2.3541 0.9597
-2.2806 9.7530 -2.3540 0.9597
-2.6286 9.6648 -2.3540 0.9597
-2.9733 9.5642 -2.3539 0.9597
4.9638 -8.2945 -2.5028 0.9608
5.2580 -8.1114 -2.5028 0.9608
5.5455 -7.9179 -2.5029 0.9608
6.3735 -7.2886 -2.5069 0.9608
6.6382 -7.0636 -2.5098 0.9607
6.8963 -6.8302 -2.5131 0.9607
7.3690 -6.3196 -2.5135 0.9607
7.5910 -6.0516 -2.5136 0.9607
8.0076 -5.4941 -2.5144 0.9607
8.3903 -4.9120 -2.5173 0.9606
8.7287 -4.3023 -2.5196 0.9606
9.2655 -3.0146 -2.5228 0.9605
9.6055 -1.6603 -2.5239 0.9605
9.6566 -1.3146 -2.5233 0.9605
9.6952 -0.9675 -2.5227 0.9605
9.7347 -0.2703 -2.5215 0.9606
9.6629 1.1224 -2.5187 0.9606
9.6135 1.4674 -2.5179 0.9606
9.5500 1.8105 -2.5167 0.9606
9.4744 2.1503 -2.5155 0.9607
8.7705 4.1104 -2.5078 0.9608
8.2708 5.0234 -2.5055 0.9608
7.6781 5.8777 -2.5036 0.9608
6.3464 6.4922 -2.3507 0.9632
5.8678 6.9334 -2.3518 0.9632
5.6170 7.1411 -2.3524 0.9632
5.3587 7.3396 -2.3530 0.9631
5.0933 7.5285 -2.3534 0.9631
4.8211 7.7076 -2.3539 0.9631
3.9678 8.1844 -2.3550 0.9631
3.6723 8.3224 -2.3553 0.9631
2.7577 8.6683 -2.3552 0.9631
2.1296 8.8430 -2.3551 0.9631
1.1680 9.0196 -2.3548 0.9631
0.8439 9.0554 -2.3548 0.9631
0.1930 9.0921 -2.3546 0.9631
-0.1329 9.0929 -2.3546 0.9631
-0.4587 9.0820 -2.3545 0.9631
-1.1081 9.0254 -2.3544 0.9631
-1.7517 8.9224 -2.3543 0.9631
-2.0703 8.8537 -2.3542 0.9631
-2.6991 8.6823 -2.3541 0.9631
4.5397 -7.5859 -2.5027 0.9639
5.5777 -6.8598 -2.5029 0.9639
5.8200 -6.6557 -2.5030 0.9639
6.0600 -6.4483 -2.5051 0.9639
6.5196 -6.0098 -2.5102 0.9638
7.3177 -5.0207 -2.5123 0.9638
7.4931 -4.7553 -2.5123 0.9638
7.8145 -4.2063 -2.5123 0.9638
7.9601 -3.9235 -2.5123 0.9638
8.4477 -2.7485 -2.5149 0.9637
8.5421 -2.4443 -2.5153 0.9637
8.6251 -2.1368 -2.5155 0.9637
8.8661 -0.5648 -2.5150 0.9637
8.8795 -0.2466 -2.5147 0.9637
8.8489 0.7075 -2.5130 0.9638
8.4797 2.5755 -2.5088 0.9638
8.3794 2.8770 -2.5081 0.9638
8.0152 3.7564 -2.5059 0.9639
7.8741 4.0406 -2.5054 0.9639
7.5616 4.5926 -2.5045 0.9639
7.3907 4.8597 -2.5040 0.9639
7.2104 5.1205 -2.5036 0.9639
6.8240 5.6230 -2.5031 0.9639
6.6179 5.8638 -2.5031 0.9639
6.4034 6.0971 -2.5031 0.9639
5.6984 6.2634 -2.3971 0.9654
5.1338 6.5268 -2.3508 0.9661
4.8975 6.7079 -2.3512 0.9661
4.1512 7.1984 -2.3524 0.9660
3.3559 7.6053 -2.3533 0.9660
2.5209 7.9239 -2.3540 0.9660
1.9471 8.0852 -2.3543 0.9660
1.6561 8.1502 -2.3544 0.9660
1.3630 8.2046 -2.3545 0.9660
1.0681 8.2484 -2.3546 0.9660
0.4745 8.3039 -2.3546 0.9660
0.1766 8.3154 -2.3546 0.9660
-0.1216 8.3162 -2.3545 0.9660
-1.6018 8.1588 -2.3538 0.9660
-1.8930 8.0954 -2.3536 0.9660
-2.1817 8.0215 -2.3533 0.9660
-2.4675 7.9371 -2.3530 0.9660
4.6678 -6.6648 -2.5027 0.9665
4.9038 -6.4933 -2.5028 0.9665
5.1334 -6.3135 -2.5028 0.9665
5.7831 -5.7277 -2.5035 0.9665
6.3815 -5.0874 -2.5102 0.9664
6.5620 -4.8571 -2.5111 0.9664
7.0457 -4.1248 -2.5112 0.9664
7.1890 -3.8696 -2.5112 0.9664
7.6675 -2.8023 -2.5109 0.9664
7.8479 -2.2457 -2.5107 0.9664
7.9230 -1.9629 -2.5106 0.9664
7.9877 -1.6776 -2.5105 0.9664
8.0887 -1.1012 -2.5108 0.9664
8.1472 -0.5190 -2.5110 0.9664
8.1332 0.6503 -2.5096 0.9664
8.1025 0.9411 -2.5089 0.9664
8.0610 1.2305 -2.5081 0.9665
7.9501 1.8043 -2.5074 0.9665
7.7982 2.3686 -2.5067 0.9665
7.6062 2.9202 -2.5060 0.9665
7.3752 3.4565 -2.5052 0.9665
6.9581 4.2260 -2.5040 0.9665
6.8009 4.4719 -2.5035 0.9665
6.0908 5.3968 -2.5030 0.9665
5.4761 6.0191 -2.5029 0.9665
5.2485 6.2016 -2.4989 0.9666
4.5395 6.2177 -2.3679 0.9683
3.3349 6.8790 -2.3514 0.9685
3.0866 6.9949 -2.3516 0.9685
2.8342 7.1017 -2.3519 0.9685
2.5781 7.1994 -2.3521 0.9685
2.3185 7.2877 -2.3522 0.9685
2.0560 7.3667 -2.3524 0.9685
1.7907 7.4360 -2.3525 0.9685
1.2535 7.5458 -2.3527 0.9685
0.7098 7.6165 -2.3528 0.9685
-0.6594 7.6201 -2.3525 0.9685
-0.9320 7.5912 -2.3524 0.9685
-1.2034 7.5524 -2.3522 0.9685
-1.4732 7.5038 -2.3521 0.9685
-1.7410 7.4455 -2.3519 0.9685
-2.0066 7.3776 -2.3516 0.9685
3.8660 -6.4601 -2.5026 0.9688
4.0952 -6.3176 -2.5026 0.9688
4.7499 -5.8418 -2.5027 0.9688
4.9563 -5.6679 -2.5028 0.9688
5.5363 -5.1034 -2.5029 0.9688
5.8945 -4.6991 -2.5058 0.9687
6.5168 -3.8152 -2.5101 0.9687
6.7732 -3.3385 -2.5101 0.9687
6.8884 -3.0935 -2.5101 0.9687
7.2589 -2.0771 -2.5097 0.9687
7.4387 -1.2858 -2.5093 0.9687
7.5321 -0.4798 -2.5088 0.9687
7.5458 0.0610 -2.5083 0.9687
7.4565 1.1383 -2.5073 0.9687
7.4101 1.4046 -2.5070 0.9687
6.9340 2.9514 -2.5050 0.9687
6.5741 3.6770 -2.5039 0.9687
6.1394 4.3599 -2.5030 0.9688
5.9791 4.5771 -2.5030 0.9688
5.6357 4.9935 -2.5029 0.9688
5.2634 5.3842 -2.5028 0.9688
4.4396 6.0808 -2.5027 0.9688
4.1916 6.1957 -2.4865 0.9690
3.5839 6.2145 -2.3846 0.9702
3.3101 6.2470 -2.3500 0.9706
2.8543 6.4685 -2.3502 0.9706
2.6208 6.5672 -2.3504 0.9706
2.1440 6.7392 -2.3507 0.9706
0.9084 7.0149 -2.3512 0.9706
0.4035 7.0620 -2.3513 0.9706
0.1502 7.0718 -2.3512 0.9706
-0.3568 7.0641 -2.3511 0.9706
-0.8618 7.0197 -2.3509 0.9706
-1.1128 6.9839 -2.3507 0.9706
-1.3623 6.9390 -2.3506 0.9706
-1.6100 6.8851 -2.3504 0.9706
3.5935 -6.0048 -2.5025 0.9707
4.6069 -5.2683 -2.5027 0.9707
5.1460 -4.7436 -2.5028 0.9707
5.3128 -4.5562 -2.5028 0.9707
5.6282 -4.1659 -2.5040 0.9707
5.7776 -3.9640 -2.5057 0.9707
5.9200 -3.7569 -2.5074 0.9707
6.2937 -3.1021 -2.5092 0.9706
6.4007 -2.8745 -2.5092 0.9706
6.5899 -2.4085 -2.5090 0.9706
6.7450 -1.9301 -2.5089 0.9706
6.8095 -1.6870 -2.5087 0.9706
6.9121 -1.1947 -2.5085 0.9706
6.9791 -0.6964 -2.5082 0.9706
6.9990 -0.4458 -2.5080 0.9706
7.0047 0.3080 -2.5073 0.9707
6.9885 0.5587 -2.5071 0.9707
6.9633 0.8088 -2.5069 0.9707
6.9291 1.0577 -2.5066 0.9707
6.8860 1.3053 -2.5063 0.9707
6.8340 1.5510 -2.5060 0.9707
6.7037 2.0361 -2.5054 0.9707
6.6256 2.2748 -2.5051 0.9707
6.5390 2.5105 -2.5048 0.9707
6.3406 2.9716 -2.5041 0.9707
6.2292 3.1965 -2.5038 0.9707
5.9825 3.6335 -2.5030 0.9707
5.8482 3.8454 -2.5030 0.9707
5.5576 4.2544 -2.5029 0.9707
4.7097 5.1767 -2.5027 0.9707
4.5211 5.3421 -2.5027 0.9707
4.3267 5.5006 -2.5026 0.9707
3.9214 5.7962 -2.5026 0.9707
3.7110 5.9330 -2.5025 0.9707
3.4960 6.0620 -2.5025 0.9707
3.2764 6.1834 -2.5024 0.9707
3.0056 6.1998 -2.4639 0.9712
2.4796 6.2131 -2.3922 0.9720
2.2275 6.2204 -2.3628 0.9723
1.9921 6.2616 -2.3498 0.9725
1.5384 6.3880 -2.3497 0.9725
1.0769 6.4822 -2.3498 0.9725
0.6098 6.5429 -2.3499 0.9725
0.3749 6.5605 -2.3499 0.9725
-0.0961 6.5704 -2.3498 0.9725
-0.3315 6.5625 -2.3498 0.9725
-0.5664 6.5462 -2.3497 0.9725
-1.0338 6.4881 -2.3494 0.9725
-1.9500 6.2725 -2.3490 0.9725
3.3533 -5.6033 -2.5025 0.9724
3.5520 -5.4796 -2.5025 0.9724
3.9356 -5.2113 -2.5026 0.9724
4.6402 -4.5956 -2.5027 0.9724
4.9576 -4.2515 -2.5028 0.9724
5.1068 -4.0712 -2.5028 0.9724
5.3855 -3.6950 -2.5029 0.9724
5.5167 -3.5010 -2.5039 0.9724
5.7598 -3.1003 -2.5067 0.9724
6.2923 -1.8006 -2.5081 0.9724
6.4483 -1.1146 -2.5077 0.9724
6.4837 -0.8827 -2.5076 0.9724
6.5108 -0.6497 -2.5074 0.9724
6.5294 -0.4159 -2.5073 0.9724
6.5397 -0.1816 -2.5071 0.9724
6.5198 0.5213 -2.5065 0.9724
6.3192 1.6745 -2.5052 0.9724
6.2544 1.8996 -2.5049 0.9724
6.1815 2.1223 -2.5046 0.9724
6.0121 2.5591 -2.5040 0.9724
5.9158 2.7725 -2.5037 0.9724
5.8119 2.9824 -2.5033 0.9724
5.7005 3.1883 -2.5030 0.9724
5.1860 3.9700 -2.5028 0.9724
5.0403 4.1532 -2.5028 0.9724
4.8882 4.3312 -2.5028 0.9724
4.7297 4.5035 -2.5027 0.9724
4.3948 4.8306 -2.5027 0.9724
4.0374 5.1329 -2.5026 0.9724
3.8508 5.2742 -2.5026 0.9724
3.6592 5.4088 -2.5025 0.9724
3.4630 5.5364 -2.5025 0.9724
3.0574 5.7700 -2.5024 0.9724
2.6361 5.9740 -2.5023 0.9724
2.4202 6.0645 -2.5023 0.9724
1.7301 6.1993 -2.4665 0.9728
1.4938 6.2032 -2.4451 0.9730
0.8043 6.2115 -2.4002 0.9735
0.3551 6.2142 -2.3853 0.9737
-0.0909 6.2148 -2.3819 0.9737
-0.5377 6.2133 -2.3899 0.9736
-0.7627 6.2118 -2.3983 0.9735
-1.4508 6.2037 -2.4415 0.9731
-1.6863 6.1999 -2.4622 0.9729
3.3258 -5.1307 -2.5024 0.9739
3.5076 -5.0083 -2.5025 0.9739
3.6849 -4.8794 -2.5025 0.9739
4.0251 -4.6030 -2.5026 0.9739
4.1876 -4.4558 -2.5026 0.9739
4.3446 -4.3030 -2.5027 0.9739
4.6418 -3.9808 -2.5027 0.9739
4.7816 -3.8119 -2.5027 0.9739
4.9152 -3.6381 -2.5028 0.9739
5.0425 -3.4596 -2.5028 0.9739
5.1633 -3.2767 -2.5028 0.9739
5.4891 -2.7055 -2.5046 0.9739
5.6743 -2.3076 -2.5070 0.9739
5.7546 -2.1032 -2.5076 0.9739
5.8261 -1.8955 -2.5075 0.9739
5.9465 -1.4732 -2.5073 0.9739
5.9952 -1.2591 -2.5072 0.9739
6.0947 -0.6082 -2.5068 0.9739
6.1122 -0.3893 -2.5066 0.9739
6.1218 -0.1700 -2.5065 0.9739
6.1235 0.0495 -2.5063 0.9739
6.1173 0.2689 -2.5061 0.9739
6.0813 0.7063 -2.5057 0.9739
6.0516 0.9238 -2.5054 0.9739
6.0140 1.1400 -2.5052 0.9739
5.8551 1.7783 -2.5044 0.9739
5.7869 1.9868 -2.5041 0.9739
5.4410 2.7921 -2.5030 0.9739
5.2268 3.1745 -2.5028 0.9739
5.1096 3.3598 -2.5028 0.9739
4.9859 3.5407 -2.5028 0.9739
4.8557 3.7171 -2.5028 0.9739
4.7193 3.8887 -2.5027 0.9739
4.5768 4.0553 -2.5027 0.9739
4.1150 4.5230 -2.5026 0.9739
3.9501 4.6675 -2.5026 0.9739
3.4262 5.0643 -2.5025 0.9739
2.6672 5.5016 -2.5023 0.9739
2.4682 5.5936 -2.5023 0.9739
2.2661 5.6784 -2.5022 0.9739
2.0611 5.7558 -2.5022 0.9739
1.8535 5.8259 -2.5021 0.9739
1.6434 5.8885 -2.5021 0.9739
0.7851 6.0625 -2.5019 0.9739
0.3487 6.1030 -2.5018 0.9739
0.1298 6.1114 -2.5018 0.9739
-0.3084 6.1048 -2.5017 0.9739
-0.9618 6.0361 -2.5016 0.9739
-1.3917 5.9515 -2.5015 0.9739
-1.6040 5.8977 -2.5015 0.9739
-1.8144 5.8363 -2.5014 0.9739
2.9485 -4.9269 -2.5024 0.9753
3.1232 -4.8182 -2.5024 0.9753
3.2939 -4.7032 -2.5024 0.9753
3.6225 -4.4552 -2.5025 0.9753
3.7799 -4.3226 -2.5025 0.9753
4.0799 -4.0408 -2.5026 0.9753
4.2222 -3.8920 -2.5026 0.9753
4.8487 -3.0771 -2.5028 0.9753
4.9559 -2.9013 -2.5028 0.9753
5.0567 -2.7219 -2.5028 0.9753
5.1511 -2.5389 -2.5028 0.9753
5.3979 -1.9728 -2.5047 0.9752
5.4673 -1.7788 -2.5057 0.9752
5.6287 -1.1821 -2.5066 0.9752
5.6672 -0.9796 -2.5065 0.9752
5.7222 -0.5710 -2.5062 0.9752
5.7387 -0.3655 -2.5061 0.9752
5.7436 0.2525 -2.5056 0.9752
5.7098 0.6632 -2.5052 0.9752
5.6467 1.0703 -2.5047 0.9752
5.4976 1.6698 -2.5040 0.9752
5.4336 1.8655 -2.5037 0.9752
5.2849 2.2495 -2.5032 0.9752
5.2003 2.4372 -2.5029 0.9753
5.1095 2.6221 -2.5028 0.9753
5.0121 2.8033 -2.5028 0.9753
4.6821 3.3250 -2.5027 0.9753
4.5599 3.4906 -2.5027 0.9753
4.4318 3.6518 -2.5027 0.9753
4.2980 3.8083 -2.5026 0.9753
3.8643 4.2474 -2.5026 0.9753
3.7095 4.3831 -2.5025 0.9753
3.3859 4.6375 -2.5025 0.9753
3.2175 4.7558 -2.5024 0.9753
3.0449 4.8680 -2.5024 0.9753
2.8685 4.9739 -2.5024 0.9753
2.6883 5.0735 -2.5023 0.9753
2.5047 5.1665 -2.5023 0.9753
1.9356 5.4052 -2.5022 0.9753
1.5434 5.5298 -2.5021 0.9753
1.3441 5.5815 -2.5020 0.9753
0.5327 5.7159 -2.5019 0.9753
0.1219 5.7392 -2.5018 0.9753
-0.4948 5.7189 -2.5017 0.9753
-0.6995 5.6974 -2.5016 0.9753
-1.1058 5.6324 -2.5016 0.9753
-1.3069 5.5891 -2.5015 0.9753
-1.5064 5.5386 -2.5015 0.9753
-1.7039 5.4809 -2.5014 0.9753
3.1013 -4.4281 -2.5024 0.9765
3.2580 -4.3141 -2.5024 0.9765
3.4106 -4.1946 -2.5025 0.9765
3.5588 -4.0697 -2.5025 0.9765
3.7024 -3.9396 -2.5025 0.9765
3.8413 -3.8045 -2.5026 0.9765
4.1040 -3.5196 -2.5026 0.9765
4.2276 -3.3702 -2.5026 0.9765
4.3457 -3.2166 -2.5027 0.9765
4.6660 -2.7316 -2.5027 0.9765
4.7609 -2.5626 -2.5027 0.9764
4.8498 -2.3904 -2.5028 0.9764
5.1998 -1.4879 -2.5035 0.9764
5.2513 -1.3010 -2.5042 0.9764
5.3340 -0.9220 -2.5056 0.9764
5.3640 -0.7303 -2.5058 0.9764
5.3865 -0.5375 -2.5057 0.9764
5.4105 -0.1502 -2.5054 0.9764
5.4067 0.2377 -2.5051 0.9764
5.3749 0.6243 -2.5047 0.9764
5.3487 0.8165 -2.5045 0.9764
5.2288 1.3855 -2.5038 0.9764
5.1151 1.7562 -2.5034 0.9764
4.9751 2.1177 -2.5029 0.9764
4.8959 2.2945 -2.5028 0.9764
4.8105 2.4685 -2.5027 0.9764
4.7189 2.6393 -2.5027 0.9764
4.6212 2.8067 -2.5027 0.9765
4.5176 2.9705 -2.5027 0.9765
4.4082 3.1305 -2.5027 0.9765
4.0466 3.5855 -2.5026 0.9765
3.9154 3.7282 -2.5026 0.9765
3.7793 3.8661 -2.5025 0.9765
3.6382 3.9990 -2.5025 0.9765
3.1879 4.3662 -2.5024 0.9765
3.0293 4.4777 -2.5024 0.9765
2.1823 4.9456 -2.5022 0.9765
1.8224 5.0891 -2.5021 0.9765
1.4531 5.2064 -2.5021 0.9765
1.2656 5.2551 -2.5020 0.9765
0.8858 5.3321 -2.5020 0.9765
0.6941 5.3603 -2.5019 0.9765
0.3083 5.3961 -2.5018 0.9765
0.1147 5.4036 -2.5018 0.9765
-0.6586 5.3642 -2.5016 0.9765
-1.0411 5.3031 -2.5016 0.9765
-1.6043 5.1604 -2.5015 0.9765
2.6196 -4.3773 -2.5023 0.9775
2.9265 -4.1785 -2.5024 0.9775
3.3582 -3.8404 -2.5025 0.9775
3.6248 -3.5900 -2.5025 0.9775
3.7512 -3.4578 -2.5025 0.9775
4.1008 -3.0353 -2.5026 0.9775
4.2070 -2.8864 -2.5026 0.9775
4.3077 -2.7338 -2.5026 0.9775
4.4030 -2.5776 -2.5027 0.9775
4.4926 -2.4182 -2.5027 0.9775
4.5764 -2.2557 -2.5027 0.9775
4.6543 -2.0902 -2.5027 0.9775
4.7922 -1.7514 -2.5027 0.9775
4.8519 -1.5786 -2.5028 0.9775
5.0565 -0.6884 -2.5032 0.9775
5.1061 0.0413 -2.5047 0.9775
5.0713 0.5890 -2.5043 0.9775
5.0153 0.9506 -2.5039 0.9775
4.9776 1.1297 -2.5037 0.9775
4.8830 1.4831 -2.5033 0.9775
4.8263 1.6570 -2.5030 0.9775
4.7633 1.8288 -2.5028 0.9775
4.6946 1.9983 -2.5027 0.9775
4.5393 2.3294 -2.5027 0.9775
4.4529 2.4905 -2.5027 0.9775
4.3607 2.6485 -2.5027 0.9775
4.2630 2.8031 -2.5026 0.9775
3.8185 3.3834 -2.5025 0.9775
3.6948 3.5180 -2.5025 0.9775
3.5663 3.6482 -2.5025 0.9775
3.4332 3.7736 -2.5025 0.9775
3.2957 3.8942 -2.5024 0.9775
3.1540 4.0098 -2.5024 0.9775
2.8586 4.2253 -2.5024 0.9775
2.3884 4.5076 -2.5023 0.9775
2.2253 4.5902 -2.5022 0.9775
2.0593 4.6669 -2.5022 0.9775
1.1942 4.9590 -2.5020 0.9775
0.6550 5.0583 -2.5019 0.9775
0.2910 5.0921 -2.5018 0.9775
2.4769 -4.1389 -2.5023 0.9785
2.6237 -4.0474 -2.5023 0.9785
2.7671 -3.9509 -2.5023 0.9785
2.9069 -3.8492 -2.5024 0.9785
3.3034 -3.5150 -2.5024 0.9785
3.7720 -3.0070 -2.5025 0.9785
3.8774 -2.8699 -2.5026 0.9785
3.9778 -2.7291 -2.5026 0.9785
4.1631 -2.4372 -2.5026 0.9785
4.4007 -1.9763 -2.5027 0.9785
4.5311 -1.6560 -2.5027 0.9785
4.5875 -1.4925 -2.5027 0.9785
4.6381 -1.3271 -2.5027 0.9785
4.8225 -0.1339 -2.5027 0.9785
4.8242 0.0390 -2.5027 0.9785
4.8197 0.2119 -2.5027 0.9785
4.6633 1.2357 -2.5027 0.9785
4.6160 1.4020 -2.5027 0.9785
4.5628 1.5666 -2.5027 0.9785
4.4388 1.8894 -2.5027 0.9785
4.3682 2.0472 -2.5027 0.9785
4.2920 2.2025 -2.5026 0.9785
4.1231 2.5042 -2.5026 0.9785
4.0307 2.6504 -2.5026 0.9785
3.9331 2.7931 -2.5026 0.9785
3.8304 2.9323 -2.5025 0.9785
3.6105 3.1991 -2.5025 0.9785
3.4935 3.3264 -2.5025 0.9785
3.3720 3.4494 -2.5025 0.9785
2.9821 3.7913 -2.5024 0.9785
2.8443 3.8957 -2.5023 0.9785
2.5579 4.0894 -2.5023 0.9785
2.4096 4.1784 -2.5023 0.9785
2.2583 4.2620 -2.5022 0.9785
2.1041 4.3402 -2.5022 0.9785
1.6260 4.5408 -2.5021 0.9785
1.4622 4.5960 -2.5021 0.9785
1.1292 4.6889 -2.5020 0.9785
0.9604 4.7262 -2.5020 0.9785
0.7904 4.7575 -2.5019 0.9785
-0.2433 4.8162 -2.5017 0.9785
-0.5876 4.7863 -2.5017 0.9785
-1.2655 4.6529 -2.5015 0.9785
-1.4314 4.6045 -2.5015 0.9785
2.4851 -3.8337 -2.5023 0.9794
2.6209 -3.7422 -2.5023 0.9794
2.8823 -3.5449 -2.5024 0.9794
3.1289 -3.3294 -2.5024 0.9794
3.2463 -3.2151 -2.5024 0.9794
3.7676 -2.5850 -2.5025 0.9794
3.8579 -2.4483 -2.5026 0.9794
3.9432 -2.3085 -2.5026 0.9794
4.1683 -1.8719 -2.5026 0.9794
4.2327 -1.7213 -2.5026 0.9794
4.3931 -1.2571 -2.5027 0.9794
4.5277 -0.6164 -2.5027 0.9794
4.5693 0.0370 -2.5027 0.9794
4.5549 0.3642 -2.5027 0.9794
4.4895 0.8510 -2.5027 0.9794
4.4170 1.1704 -2.5027 0.9794
4.3722 1.3280 -2.5027 0.9794
4.3217 1.4838 -2.5026 0.9794
4.2658 1.6377 -2.5026 0.9794
4.2042 1.7896 -2.5026 0.9794
4.0653 2.0861 -2.5026 0.9794
3.9879 2.2305 -2.5026 0.9794
3.8178 2.5104 -2.5025 0.9794
3.7253 2.6456 -2.5025 0.9794
3.4198 3.0301 -2.5025 0.9794
3.3089 3.1507 -2.5024 0.9794
3.1939 3.2672 -2.5024 0.9794
3.0747 3.3795 -2.5024 0.9794
2.5601 3.7841 -2.5023 0.9794
2.4228 3.8734 -2.5023 0.9794
2.1390 4.0369 -2.5022 0.9794
1.6933 4.2430 -2.5021 0.9794
1.3850 4.3533 -2.5021 0.9794
1.2280 4.4001 -2.5020 0.9794
1.0695 4.4412 -2.5020 0.9794
0.9097 4.4766 -2.5020 0.9794
0.5866 4.5302 -2.5019 0.9794
0.4239 4.5482 -2.5019 0.9794
0.2606 4.5605 -2.5018 0.9794
0.0970 4.5668 -2.5018 0.9794
-0.0668 4.5673 -2.5018 0.9794
-0.2304 4.5619 -2.5017 0.9794
-0.3938 4.5507 -2.5017 0.9794
-0.8799 4.4819 -2.5016 0.9794
-1.0400 4.4474 -2.5016 0.9794
-1.1987 4.4072 -2.5015 0.9794
-1.3558 4.3614 -2.5015 0.9794
2.2256 -3.7189 -2.5022 0.9802
2.3575 -3.6368 -2.5023 0.9802
2.6120 -3.4586 -2.5023 0.9802
2.8531 -3.2627 -2.5024 0.9802
3.2902 -2.8216 -2.5024 0.9802
3.6597 -2.3225 -2.5025 0.9802
3.8167 -2.0544 -2.5025 0.9802
3.8879 -1.9163 -2.5026 0.9802
4.0712 -1.4879 -2.5026 0.9802
4.1220 -1.3411 -2.5026 0.9802
4.2075 -1.0424 -2.5026 0.9802
4.2421 -0.8909 -2.5026 0.9802
4.2714 -0.7383 -2.5026 0.9802
4.2951 -0.5847 -2.5026 0.9802
4.3133 -0.4304 -2.5026 0.9802
4.3330 -0.1203 -2.5026 0.9802
4.3058 0.5001 -2.5026 0.9802
4.2851 0.6541 -2.5026 0.9802
4.2272 0.9594 -2.5026 0.9802
4.1901 1.1103 -2.5026 0.9802
4.0998 1.4076 -2.5026 0.9802
4.0466 1.5536 -2.5026 0.9802
3.6217 2.3814 -2.5025 0.9802
3.0298 3.0994 -2.5024 0.9802
2.6796 3.4066 -2.5023 0.9802
2.2983 3.6745 -2.5022 0.9802
2.1651 3.7544 -2.5022 0.9802
2.0292 3.8296 -2.5022 0.9802
1.7496 3.9650 -2.5021 0.9802
1.6063 4.0251 -2.5021 0.9802
1.3139 4.1297 -2.5020 0.9802
1.1650 4.1741 -2.5020 0.9802
0.7102 4.2749 -2.5019 0.9802
0.5565 4.2975 -2.5019 0.9802
0.4021 4.3147 -2.5019 0.9802
0.2472 4.3263 -2.5018 0.9802
-0.2186 4.3276 -2.5017 0.9802
-0.3735 4.3170 -2.5017 0.9802
-0.6818 4.2790 -2.5016 0.9802
-0.9866 4.2191 -2.5016 0.9802
-1.1371 4.1809 -2.5015 0.9802
-1.2862 4.1374 -2.5015 0.9802
