ply
format ascii 1.0
element vertex 1026
property float32 x
property float32 y
property float32 z
property float32 I
end_header
-0.9777 11.4530 2.0268 0.9544
-1.3921 11.4666 2.0367 0.9542
-3.1079 11.5227 2.1044 0.9527
-3.5577 11.5374 2.1289 0.9521
-4.0187 11.5525 2.1567 0.9515
-4.4925 11.5679 2.1882 0.9508
-4.9809 11.5839 2.2234 0.9501
-6.5552 11.6354 2.3548 0.9472
-7.7214 11.6735 2.4679 0.9447
-8.3491 11.6940 2.5336 0.9433
-12.2183 11.9063 3.0082 0.9331
-13.1199 11.9030 3.1236 0.9306
-15.3172 12.0230 3.4335 0.9240
-16.5511 12.0633 3.6113 0.9202
-40.3927 -24.5939 8.3387 0.8252
-37.4667 -24.6850 7.9114 0.8334
-32.9134 -29.1720 7.7550 0.8364
-30.5833 -29.1185 7.4460 0.8424
-30.6855 -31.3761 7.7384 0.8367
-0.4904 9.8985 1.5183 0.9607
-0.8430 9.8748 1.5183 0.9607
-1.5445 9.7897 1.5183 0.9607
-2.2381 9.6546 1.5182 0.9607
-2.5808 9.5684 1.5182 0.9607
-3.2948 9.4715 1.5363 0.9602
-4.0837 9.4973 1.5837 0.9590
-6.5554 11.6356 2.0459 0.9474
-7.7216 11.6737 2.1442 0.9449
-9.8017 11.8431 2.3551 0.9397
-10.5571 11.8678 2.4333 0.9377
-11.3656 11.8942 2.5203 0.9356
-13.1754 11.9534 2.7253 0.9305
-14.1982 11.9868 2.8466 0.9276
-15.3176 12.0233 2.9831 0.9242
-16.5516 12.0636 3.1376 0.9205
-14.5655 9.8406 2.6929 0.9313
-29.9124 18.6915 5.4035 0.8670
-30.0049 15.8962 5.2018 0.8716
-30.2327 14.6613 5.1473 0.8729
-40.6104 -26.7563 7.4502 0.8214
-25.3781 -18.0500 4.7708 0.8816
-37.6320 -31.0306 7.4722 0.8209
-0.5667 11.4399 1.4915 0.9548
-0.9777 11.4534 1.4969 0.9547
-1.3922 11.4669 1.5042 0.9545
-1.8112 11.4806 1.5135 0.9542
-2.2281 11.4536 1.5195 0.9540
-2.6350 11.3667 1.5194 0.9540
-3.0385 11.2653 1.5194 0.9540
-3.4381 11.1495 1.5194 0.9540
-5.3597 10.3605 1.5190 0.9540
-6.0835 9.9509 1.5188 0.9540
-6.4339 9.7269 1.5187 0.9540
-6.8453 9.5877 1.5341 0.9536
-10.5574 11.8681 2.0685 0.9379
-11.3659 11.8945 2.1424 0.9358
-12.2354 11.9229 2.2247 0.9334
-14.1985 11.9871 2.4198 0.9278
-15.3180 12.0236 2.5358 0.9245
-30.1796 14.6355 4.3677 0.8735
-30.2750 13.3705 4.3098 0.8750
-30.8777 12.3407 4.3302 0.8745
-34.9151 12.5301 4.8306 0.8610
-39.1498 12.4932 5.3514 0.8472
-25.3752 -18.0479 4.0549 0.8820
-0.9695 11.3572 1.2240 0.9552
-1.3922 11.4671 1.2404 0.9546
-2.2173 11.3980 1.2469 0.9544
-4.4927 11.5685 1.3326 0.9513
-4.9344 11.4757 1.3414 0.9510
-6.0103 11.6182 1.4046 0.9487
-6.5556 11.6360 1.4341 0.9477
-7.1250 11.6546 1.4668 0.9465
-9.4815 10.6586 1.5319 0.9442
-14.1989 11.9873 1.9954 0.9280
-15.3184 12.0239 2.0911 0.9246
-30.0971 18.8070 3.8110 0.8669
-30.1892 15.9938 3.6686 0.8716
-30.1797 14.6355 3.6017 0.8738
-30.2751 13.3705 3.5539 0.8753
-30.8778 12.3407 3.5707 0.8748
-35.1061 12.5986 4.0052 0.8607
-39.7634 12.6890 4.4820 0.8454
-25.3722 -18.0458 3.3434 0.8823
-0.5667 11.4403 0.9696 0.9551
-0.9777 11.4537 0.9731 0.9549
-1.3922 11.4673 0.9779 0.9547
-1.8113 11.4810 0.9839 0.9544
-2.2362 11.4949 0.9913 0.9541
-3.1081 11.5234 1.0104 0.9532
-4.0407 11.6157 1.0411 0.9518
-4.4928 11.5687 1.0506 0.9514
-6.0104 11.6184 1.1073 0.9488
-6.5557 11.6362 1.1306 0.9478
-7.1252 11.6548 1.1564 0.9466
-8.3202 11.6534 1.2121 0.9441
-9.8023 11.8439 1.3015 0.9401
-11.3664 11.8950 1.3927 0.9361
-13.8366 11.6816 1.5329 0.9299
-14.2415 11.1787 1.5326 0.9299
-30.1441 17.3736 2.9453 0.8696
-30.2752 13.3705 2.8017 0.8756
-31.0373 12.4045 2.8295 0.8744
-1.3922 11.4674 0.7163 0.9548
-2.6680 11.5092 0.7326 0.9538
-3.5362 11.4677 0.7442 0.9530
-4.4929 11.5689 0.7696 0.9515
-5.4865 11.6014 0.7958 0.9499
-7.1253 11.6550 0.8471 0.9467
-7.7258 11.6801 0.8684 0.9454
-8.3536 11.7002 0.8915 0.9440
-10.5614 11.8727 0.9854 0.9383
-15.3192 12.0246 1.2076 0.9249
-16.4154 11.9643 1.2596 0.9218
-34.9202 12.5320 2.3006 0.8618
-2.2362 11.4952 0.4618 0.9542
-2.6681 11.5094 0.4659 0.9538
-3.1082 11.5238 0.4706 0.9533
-4.0408 11.6161 0.4850 0.9520
-4.4929 11.5691 0.4894 0.9515
-5.4866 11.6016 0.5060 0.9499
-6.0106 11.6188 0.5158 0.9490
-8.3575 11.7056 0.5671 0.9440
-9.0132 11.7170 0.5829 0.9425
-9.8026 11.8444 0.6062 0.9403
-10.5668 11.8787 0.6269 0.9383
-11.3669 11.8955 0.6488 0.9363
-12.2186 11.9065 0.6727 0.9340
-14.1138 11.9155 0.7283 0.9287
-15.3196 12.0249 0.7679 0.9250
-16.5538 12.0653 0.8077 0.9213
-30.0973 18.8071 1.3994 0.8676
-20.0310 11.5449 0.9116 0.9116
-20.0832 10.6398 0.8962 0.9130
-30.1799 14.6357 1.3226 0.8744
-30.2753 13.3706 1.3050 0.8759
-29.4831 11.7833 1.2520 0.8806
-40.7839 11.4296 1.6701 0.8440
-0.5668 11.4408 0.1935 0.9552
-1.3923 11.4678 0.1951 0.9548
-3.1083 11.5240 0.2016 0.9534
-4.0409 11.6163 0.2078 0.9520
-4.4930 11.5693 0.2096 0.9516
-4.9347 11.4764 0.2110 0.9513
-5.4867 11.6018 0.2168 0.9500
-6.0107 11.6190 0.2210 0.9490
-7.1256 11.6555 0.2308 0.9468
-7.7327 11.6906 0.2368 0.9455
-8.3613 11.7110 0.2431 0.9441
-9.0133 11.7172 0.2497 0.9426
-9.8028 11.8446 0.2597 0.9403
-11.3671 11.8958 0.2779 0.9363
-14.1141 11.9158 0.3120 0.9288
-15.3200 12.0252 0.3290 0.9250
-14.5586 9.8359 0.2968 0.9321
-20.8280 11.0344 0.3982 0.9100
-20.9325 10.1512 0.3930 0.9111
-30.2754 13.3706 0.5591 0.8760
-28.4224 11.3594 0.5170 0.8847
-35.1130 12.6011 0.6302 0.8614
-39.7722 12.6919 0.7052 0.8462
-25.3606 -18.0375 0.5257 0.8829
-0.9778 11.4544 -0.0647 0.9551
-1.8114 11.4817 -0.0654 0.9546
-2.6682 11.5097 -0.0665 0.9538
-3.1083 11.5241 -0.0672 0.9534
-4.0409 11.6164 -0.0692 0.9520
-6.0108 11.6192 -0.0737 0.9490
-7.1257 11.6557 -0.0769 0.9468
-8.3652 11.7165 -0.0811 0.9440
-10.5776 11.8908 -0.0896 0.9383
-12.2187 11.9066 -0.0960 0.9340
-14.1145 11.9161 -0.1040 0.9288
-12.9413 10.1580 -0.0926 0.9363
-13.9839 10.1922 -0.0974 0.9331
-14.5574 9.8352 -0.0989 0.9321
-16.4394 10.2726 -0.1091 0.9254
-17.9067 10.3206 -0.1164 0.9207
-30.2332 14.6615 -0.1892 0.8742
-30.2755 13.3707 -0.1863 0.8760
-39.0046 10.9310 -0.2281 0.8504
-45.9652 11.1307 -0.2663 0.8276
-44.6284 -17.2388 -0.2694 0.8258
-30.8718 -17.3193 -0.1993 0.8680
-24.3945 -17.3504 -0.1685 0.8871
-19.5985 -17.3706 -0.1474 0.9005
-18.2516 -17.3773 -0.1419 0.9041
-16.9973 -17.3798 -0.1369 0.9073
-0.5668 11.4411 -0.3226 0.9552
-0.9778 11.4546 -0.3237 0.9550
-1.1776 9.6993 -0.2751 0.9617
-3.1084 11.5243 -0.3361 0.9534
-3.0085 9.7565 -0.2875 0.9600
-4.0193 11.5542 -0.3445 0.9522
-4.6473 9.8269 -0.3061 0.9574
-6.0109 11.6194 -0.3684 0.9490
-6.0250 9.8552 -0.3253 0.9548
-10.5745 11.8874 -0.4480 0.9383
-11.3676 11.8963 -0.4633 0.9363
-14.2010 11.9891 -0.5233 0.9283
-12.9748 10.1844 -0.4644 0.9361
-14.5563 9.8344 -0.4947 0.9321
-16.5236 10.3252 -0.5486 0.9250
-20.9669 12.0843 -0.6814 0.9077
-29.4501 10.5689 -0.8810 0.8823
-33.4191 10.6645 -0.9878 0.8690
-45.7015 11.0668 -1.3240 0.8285
-36.7212 -17.2848 -1.1428 0.8501
-28.4626 -17.3299 -0.9383 0.8752
-24.3923 -17.3488 -0.8428 0.8871
-22.6460 -17.3550 -0.8034 0.8921
-19.5981 -17.3703 -0.7374 0.9005
-18.2512 -17.3770 -0.7096 0.9041
-1.1776 9.6995 -0.4955 0.9616
-1.8115 11.4820 -0.5895 0.9545
-2.6682 11.5101 -0.5992 0.9538
-3.0086 9.7566 -0.5178 0.9599
-4.0193 11.5543 -0.6204 0.9522
-6.0110 11.6196 -0.6635 0.9490
-6.0251 9.8554 -0.5858 0.9548
-7.7293 11.6855 -0.7105 0.9454
-8.2161 9.9273 -0.6535 0.9497
-10.5650 11.8767 -0.8061 0.9383
-11.3679 11.8966 -0.8345 0.9362
-12.9751 10.1846 -0.8365 0.9361
-14.5552 9.8336 -0.8908 0.9321
-16.4404 10.2732 -0.9832 0.9253
-19.7227 10.4488 -1.1319 0.9145
-30.2334 14.6616 -1.7040 0.8741
-29.4728 11.7792 -1.6096 0.8806
-29.5094 10.5901 -1.5900 0.8820
-38.6695 10.8371 -2.0366 0.8514
-42.9771 10.4071 -2.2425 0.8377
-48.4401 8.1288 -2.4910 0.8214
-49.0991 2.9143 -2.4944 0.8212
-49.1949 1.1626 -2.4956 0.8211
-49.2283 -0.5923 -2.4967 0.8210
-49.1075 -4.1026 -2.4991 0.8209
-48.9533 -5.8535 -2.5003 0.8208
-48.7368 -7.5987 -2.5015 0.8207
-43.8793 -15.1751 -2.3546 0.8303
-43.3306 -16.7376 -2.3557 0.8302
-40.3486 -17.2629 -2.2257 0.8388
-36.7221 -17.2852 -2.0583 0.8500
-30.8658 -17.3159 -1.7948 0.8678
-28.4598 -17.3282 -1.6898 0.8751
-24.3901 -17.3473 -1.5179 0.8870
-22.6455 -17.3546 -1.4469 0.8920
-19.5977 -17.3699 -1.3281 0.9004
-18.2509 -17.3767 -1.2780 0.9040
-16.9976 -17.3800 -1.2329 0.9072
-0.5668 11.4415 -0.8399 0.9551
-0.9778 11.4549 -0.8430 0.9549
-1.1776 9.6996 -0.7164 0.9616
-1.8115 11.4822 -0.8523 0.9544
-3.1085 11.5247 -0.8752 0.9533
-3.0086 9.7568 -0.7486 0.9599
-3.7992 9.7827 -0.7695 0.9588
-4.9350 11.4772 -0.9160 0.9511
-4.6473 9.8270 -0.7970 0.9573
-6.0111 11.6198 -0.9592 0.9489
-6.0252 9.8556 -0.8470 0.9547
-7.0608 9.8895 -0.8910 0.9524
-7.6018 9.8823 -0.9142 0.9512
-9.5722 10.0174 -1.0159 0.9459
-10.3046 10.0414 -1.0550 0.9439
-11.0966 10.0673 -1.0986 0.9417
-13.9405 10.1606 -1.2648 0.9332
-16.3885 10.2408 -1.4170 0.9254
-17.8515 10.2887 -1.5107 0.9207
-19.5303 10.3469 -1.6206 0.9152
-28.8430 11.5274 -2.2775 0.8829
-29.2803 10.5079 -2.2810 0.8827
-30.3916 9.6983 -2.3391 0.8799
-30.7272 8.6112 -2.3398 0.8799
-33.0376 8.0002 -2.4924 0.8726
-33.7345 4.4311 -2.4947 0.8724
-34.0407 -1.6246 -2.4988 0.8722
-33.9723 -2.8382 -2.4996 0.8722
-33.8607 -4.0488 -2.5004 0.8722
-33.7059 -5.2552 -2.5012 0.8721
-33.4560 -6.4456 -2.4982 0.8723
-32.9846 -8.8327 -2.5037 0.8720
-32.6595 -10.0063 -2.5045 0.8720
-31.8840 -12.3160 -2.5062 0.8719
-28.0281 -15.7240 -2.3564 0.8791
-22.6450 -17.3542 -2.0919 0.8919
-18.2505 -17.3764 -1.8477 0.9039
-16.9977 -17.3802 -1.7825 0.9071
-1.1742 9.6719 -0.9354 0.9616
-1.5277 9.6835 -0.9412 0.9614
-2.2503 9.7071 -0.9566 0.9607
-3.3897 9.7444 -0.9905 0.9594
-3.7894 9.7575 -1.0049 0.9588
-4.2329 9.8442 -1.0288 0.9579
-4.6126 9.7535 -1.0358 0.9576
-5.0531 9.7679 -1.0558 0.9568
-5.5116 9.7830 -1.0780 0.9559
-5.9904 9.7987 -1.1026 0.9549
-7.0200 9.8324 -1.1599 0.9526
-8.1687 9.8701 -1.2300 0.9498
-8.7984 9.8907 -1.2709 0.9482
-9.5724 10.0176 -1.3302 0.9458
-10.3048 10.0416 -1.3813 0.9438
-12.9014 10.1267 -1.5746 0.9362
-13.9409 10.1608 -1.6562 0.9330
-14.4875 9.7879 -1.6785 0.9322
-16.3890 10.2411 -1.8554 0.9253
-17.8521 10.2891 -1.9782 0.9205
-19.5306 10.3471 -2.1219 0.9150
-22.2934 9.8455 -2.3397 0.9067
-22.6351 9.0464 -2.3402 0.9067
-24.7403 7.8950 -2.4932 0.9009
-25.2517 6.1148 -2.4944 0.9009
-25.4596 5.2119 -2.4949 0.9008
-25.8893 2.4654 -2.4967 0.9008
-25.9671 1.5413 -2.4974 0.9007
-26.0120 0.6147 -2.4980 0.9007
-25.9484 -2.1678 -2.4999 0.9007
-25.4023 -5.8403 -2.5024 0.9006
-24.6520 -8.5255 -2.5042 0.9005
-23.6180 -11.1171 -2.5061 0.9004
-23.2122 -11.9549 -2.5067 0.9004
-21.8183 -14.3750 -2.5084 0.9003
-19.7354 -15.1245 -2.3871 0.9049
-18.9427 -15.6197 -2.3571 0.9061
-18.3777 -16.2886 -2.3576 0.9060
-0.8220 9.6295 -1.1480 0.9618
-1.5228 9.6524 -1.1608 0.9614
-1.8800 9.6641 -1.1695 0.9611
-2.2431 9.6760 -1.1799 0.9608
-2.6131 9.6882 -1.1919 0.9604
-2.9913 9.7005 -1.2058 0.9599
-3.3789 9.7132 -1.2216 0.9594
-4.1880 9.7398 -1.2594 0.9582
-5.5117 9.7831 -1.3338 0.9558
-6.4923 9.8153 -1.3979 0.9537
-7.0202 9.8326 -1.4351 0.9525
-8.1688 9.8703 -1.5219 0.9497
-8.7986 9.8909 -1.5725 0.9481
-9.5726 10.0178 -1.6459 0.9457
-10.3051 10.0418 -1.7092 0.9437
-11.9587 10.0961 -1.8591 0.9389
-12.9017 10.1270 -1.9483 0.9361
-14.4372 9.7539 -2.0697 0.9322
-17.0687 9.8376 -2.3402 0.9237
-17.4114 9.2243 -2.3405 0.9237
-17.7322 8.5991 -2.3409 0.9237
-19.4942 7.7911 -2.4937 0.9189
-20.0070 6.3845 -2.4946 0.9189
-20.4187 4.9445 -2.4956 0.9189
-20.9305 1.9932 -2.4975 0.9188
-20.9924 1.2460 -2.4980 0.9188
-21.0277 0.4969 -2.4985 0.9188
-20.9733 -1.7522 -2.5000 0.9187
-20.9018 -2.4993 -2.5005 0.9187
-20.6790 -3.9840 -2.5015 0.9187
-20.5279 -4.7196 -2.5020 0.9187
-20.1476 -6.1729 -2.5031 0.9186
-19.9187 -6.8886 -2.5036 0.9186
-18.7519 -9.6577 -2.5055 0.9185
-18.0229 -10.9736 -2.5065 0.9185
-16.7573 -12.8421 -2.5078 0.9185
-15.2982 -14.5654 -2.5091 0.9184
-1.5228 9.6526 -1.3846 0.9613
-2.2431 9.6762 -1.4074 0.9607
-2.6131 9.6883 -1.4218 0.9603
-2.9913 9.7007 -1.4384 0.9598
-3.3789 9.7134 -1.4572 0.9593
-3.7773 9.7265 -1.4784 0.9587
-4.1880 9.7399 -1.5022 0.9581
-4.6127 9.7538 -1.5288 0.9573
-5.0533 9.7683 -1.5583 0.9565
-5.5118 9.7833 -1.5911 0.9556
-6.4925 9.8155 -1.6675 0.9536
-7.0203 9.8328 -1.7119 0.9524
-7.5778 9.8511 -1.7610 0.9510
-11.0974 10.0680 -2.1231 0.9413
-11.9590 10.0963 -2.2176 0.9387
-13.3495 9.7298 -2.3406 0.9354
-13.6896 9.2488 -2.3409 0.9354
-14.3588 8.2757 -2.3482 0.9352
-16.7796 5.3546 -2.4956 0.9313
-17.3814 2.9168 -2.4972 0.9313
-17.4772 2.2957 -2.4976 0.9313
-17.5508 1.6714 -2.4980 0.9313
-17.6022 1.0448 -2.4984 0.9312
-17.6378 -0.2122 -2.4993 0.9312
-17.2082 -3.9564 -2.5018 0.9312
-16.8882 -5.1743 -2.5027 0.9311
-16.6958 -5.7740 -2.5031 0.9311
-16.4821 -6.3667 -2.5035 0.9311
-15.9918 -7.5274 -2.5043 0.9311
-15.4198 -8.6506 -2.5051 0.9311
-15.1039 -9.1963 -2.5055 0.9311
-14.7688 -9.7304 -2.5059 0.9310
-14.4147 -10.2523 -2.5063 0.9310
-14.0421 -10.7613 -2.5067 0.9310
-13.6515 -11.2567 -2.5070 0.9310
-13.2434 -11.7380 -2.5074 0.9310
-12.3768 -12.6553 -2.5081 0.9310
-1.8801 9.6645 -1.6220 0.9609
-2.9914 9.7009 -1.6724 0.9597
-3.3790 9.7136 -1.6943 0.9592
-4.1881 9.7401 -1.7466 0.9579
-4.6128 9.7540 -1.7775 0.9572
-5.5119 9.7835 -1.8499 0.9555
-5.9907 9.7992 -1.8921 0.9545
-7.5779 9.8513 -2.0475 0.9509
-8.1692 9.8707 -2.1108 0.9494
-9.5730 10.0183 -2.2827 0.9454
-10.1761 9.9162 -2.3407 0.9440
-10.8590 9.1676 -2.3412 0.9440
-11.4869 8.3723 -2.3416 0.9440
-12.1940 8.2384 -2.4243 0.9421
-13.1188 7.5611 -2.4944 0.9405
-14.2606 5.1177 -2.4960 0.9404
-14.5929 4.0896 -2.4966 0.9404
-14.8513 3.0402 -2.4973 0.9404
-14.9523 2.5092 -2.4977 0.9404
-15.0344 1.9748 -2.4980 0.9404
-15.1658 0.3584 -2.4991 0.9404
-15.1712 -0.1826 -2.4995 0.9403
-15.0716 -1.8022 -2.5006 0.9403
-14.5237 -4.4498 -2.5024 0.9403
-14.1737 -5.4750 -2.5031 0.9403
-13.7515 -6.4729 -2.5038 0.9402
-13.5138 -6.9600 -2.5042 0.9402
-12.6986 -8.3665 -2.5052 0.9402
-12.3939 -8.8151 -2.5055 0.9402
-12.0733 -9.2525 -2.5058 0.9402
-11.3861 -10.0918 -2.5065 0.9402
-11.0204 -10.4926 -2.5068 0.9402
-0.8221 9.6299 -1.8166 0.9614
-1.5229 9.6529 -1.8368 0.9610
-1.8801 9.6646 -1.8506 0.9607
-2.6132 9.6886 -1.8862 0.9600
-2.9914 9.7010 -1.9081 0.9595
-3.7775 9.7268 -1.9613 0.9584
-4.1882 9.7403 -1.9929 0.9578
-5.0535 9.7686 -2.0673 0.9562
-5.5120 9.7837 -2.1107 0.9553
-6.4927 9.8159 -2.2121 0.9532
-7.0206 9.8332 -2.2710 0.9520
-8.6062 9.0064 -2.3415 0.9506
-8.9225 8.6946 -2.3417 0.9506
-9.2275 8.3716 -2.3418 0.9506
-10.4385 8.1935 -2.4943 0.9474
-10.9978 7.4303 -2.4947 0.9474
-11.2568 7.0341 -2.4950 0.9474
-11.9472 5.7938 -2.4957 0.9474
-12.1475 5.3647 -2.4960 0.9474
-12.6552 4.0384 -2.4969 0.9474
-12.7926 3.5851 -2.4971 0.9474
-13.0187 2.6651 -2.4977 0.9474
-13.1070 2.1995 -2.4981 0.9473
-13.2337 1.2603 -2.4987 0.9473
-13.2932 0.3141 -2.4993 0.9473
-13.2852 -0.6341 -2.4999 0.9473
-13.2096 -1.5796 -2.5006 0.9473
-13.0669 -2.5174 -2.5012 0.9473
-12.9705 -2.9821 -2.5015 0.9473
-12.8576 -3.4430 -2.5019 0.9473
-12.7282 -3.8997 -2.5022 0.9473
-12.5827 -4.3516 -2.5025 0.9473
-11.6187 -6.5182 -2.5040 0.9472
-11.3802 -6.9291 -2.5043 0.9472
-11.1273 -7.3312 -2.5046 0.9472
-10.8601 -7.7242 -2.5049 0.9472
-9.6560 -9.1935 -2.5060 0.9472
-0.4765 9.6188 -2.0357 0.9614
-0.8221 9.6301 -2.0430 0.9613
-1.1706 9.6415 -2.0530 0.9611
-1.5229 9.6530 -2.0657 0.9608
-1.8801 9.6648 -2.0812 0.9605
-2.2432 9.6767 -2.0997 0.9602
-3.3791 9.7139 -2.1740 0.9588
-3.7775 9.7270 -2.2057 0.9582
-4.1883 9.7404 -2.2412 0.9576
-4.6130 9.7544 -2.2808 0.9568
-5.0536 9.7688 -2.3249 0.9560
-5.4368 9.6502 -2.3413 0.9557
-5.7776 9.4507 -2.3414 0.9557
-6.4370 9.0158 -2.3417 0.9557
-6.7547 8.7811 -2.3418 0.9557
-7.0639 8.5352 -2.3419 0.9557
-7.3642 8.2784 -2.3421 0.9557
-7.8450 8.2098 -2.4003 0.9546
-8.4137 8.1988 -2.4833 0.9531
-8.7404 7.9296 -2.4946 0.9529
-9.2846 7.2878 -2.4950 0.9529
-9.7819 6.6087 -2.4954 0.9529
-10.4345 5.5280 -2.4960 0.9529
-10.9682 4.3836 -2.4968 0.9529
-11.1186 3.9901 -2.4970 0.9529
-11.7198 1.5394 -2.4986 0.9528
-11.7686 1.1207 -2.4989 0.9528
-11.8212 0.2793 -2.4995 0.9528
-11.8137 -0.5638 -2.5000 0.9528
-11.7874 -0.9848 -2.5003 0.9528
-11.7462 -1.4046 -2.5006 0.9528
-11.6189 -2.2385 -2.5012 0.9528
-11.5330 -2.6516 -2.5014 0.9528
-11.0440 -4.2660 -2.5026 0.9527
-10.8860 -4.6575 -2.5029 0.9527
-10.7143 -5.0433 -2.5031 0.9527
-10.5288 -5.4226 -2.5034 0.9527
-10.1178 -6.1604 -2.5039 0.9527
-9.8927 -6.5179 -2.5042 0.9527
-9.4051 -7.2077 -2.5047 0.9527
-9.1430 -7.5391 -2.5049 0.9527
-8.8693 -7.8611 -2.5052 0.9527
-8.5842 -8.1730 -2.5054 0.9527
-0.4765 9.6189 -2.2634 0.9612
-0.8221 9.6303 -2.2716 0.9611
-1.1706 9.6417 -2.2827 0.9609
-2.2433 9.6768 -2.3346 0.9600
-2.5946 9.6194 -2.3416 0.9599
-2.9359 9.5210 -2.3416 0.9599
-4.2599 9.0078 -2.3419 0.9599
-4.8913 8.6820 -2.3420 0.9599
-5.1980 8.5024 -2.3421 0.9599
-6.7675 8.1770 -2.4946 0.9573
-7.0551 7.9310 -2.4947 0.9573
-7.3338 7.6748 -2.4949 0.9573
-7.8630 7.1337 -2.4952 0.9573
-8.1129 6.8493 -2.4954 0.9573
-8.3525 6.5562 -2.4955 0.9573
-8.5816 6.2546 -2.4957 0.9573
-8.7998 5.9452 -2.4959 0.9573
-9.0068 5.6281 -2.4961 0.9573
-9.2025 5.3039 -2.4963 0.9573
-9.3865 4.9729 -2.4965 0.9573
-10.0016 3.5893 -2.4974 0.9573
-10.3306 2.5016 -2.4981 0.9573
-10.4142 2.1319 -2.4983 0.9573
-10.4846 1.7594 -2.4986 0.9573
-10.5417 1.3847 -2.4988 0.9573
-10.6157 0.6301 -2.4993 0.9572
-10.6325 0.2512 -2.4996 0.9572
-10.6358 -0.1280 -2.4998 0.9572
-10.6255 -0.5072 -2.5001 0.9572
-10.6018 -0.8857 -2.5003 0.9572
-10.5139 -1.6393 -2.5009 0.9572
-10.4498 -2.0133 -2.5011 0.9572
-10.3725 -2.3848 -2.5014 0.9572
-10.2819 -2.7533 -2.5016 0.9572
-10.1783 -3.1185 -2.5019 0.9572
-10.0616 -3.4797 -2.5021 0.9572
-9.4686 -4.8766 -2.5031 0.9572
-9.2894 -5.2115 -2.5034 0.9572
-8.8963 -5.8614 -2.5038 0.9572
-8.6825 -6.1754 -2.5041 0.9572
-8.4576 -6.4815 -2.5043 0.9572
-7.9756 -7.0690 -2.5047 0.9572
-7.7192 -7.3494 -2.5049 0.9572
-7.4528 -7.6206 -2.5051 0.9571
-0.4476 9.0349 -2.3422 0.9633
-1.4097 8.9354 -2.3422 0.9633
-2.3558 8.7340 -2.3422 0.9633
-2.9722 8.5442 -2.3423 0.9633
-3.8767 8.1974 -2.3478 0.9632
-4.2343 8.1851 -2.3860 0.9626
-4.6083 8.1796 -2.4308 0.9620
-5.3158 8.0365 -2.4948 0.9610
-5.8754 7.6380 -2.4950 0.9610
-6.1443 7.4240 -2.4952 0.9610
-6.6584 6.9680 -2.4954 0.9610
-6.9030 6.7266 -2.4956 0.9610
-7.3656 6.2184 -2.4959 0.9610
-7.7910 5.6785 -2.4962 0.9609
-8.3546 4.8152 -2.4967 0.9609
-8.5216 4.5146 -2.4969 0.9609
-8.8230 3.8965 -2.4973 0.9609
-9.0797 3.2584 -2.4977 0.9609
-9.3781 2.2709 -2.4983 0.9609
-9.4539 1.9353 -2.4985 0.9609
-9.5177 1.5972 -2.4988 0.9609
-9.5695 1.2570 -2.4990 0.9609
-9.6091 0.9150 -2.4992 0.9609
-9.6365 0.5720 -2.4994 0.9609
-9.6516 0.2281 -2.4997 0.9609
-9.5896 -1.1467 -2.5006 0.9609
-9.2385 -2.8305 -2.5018 0.9609
-9.0150 -3.4823 -2.5022 0.9609
-8.7455 -4.1166 -2.5027 0.9608
-8.4314 -4.7301 -2.5031 0.9608
-8.2581 -5.0281 -2.5033 0.9608
-7.8802 -5.6047 -2.5038 0.9608
-7.6760 -5.8826 -2.5040 0.9608
-7.0057 -6.6701 -2.5045 0.9608
-6.7639 -6.9162 -2.5047 0.9608
-0.4094 8.2652 -2.3427 0.9662
-0.7039 8.2453 -2.3427 0.9662
-2.2031 8.1680 -2.3949 0.9654
-2.5181 8.1659 -2.4191 0.9651
-2.8397 8.1633 -2.4468 0.9647
-3.1690 8.1600 -2.4781 0.9643
-3.7679 7.9673 -2.4950 0.9640
-4.5974 7.5202 -2.4952 0.9640
-5.1220 7.1740 -2.4954 0.9640
-6.3146 6.1533 -2.4960 0.9640
-6.9366 5.4448 -2.4964 0.9640
-7.1274 5.1944 -2.4966 0.9640
-7.7949 4.1296 -2.4972 0.9640
-7.9377 3.8493 -2.4974 0.9640
-8.0705 3.5641 -2.4976 0.9640
-8.1930 3.2744 -2.4978 0.9640
-8.3052 2.9805 -2.4979 0.9640
-8.4977 2.3815 -2.4983 0.9640
-8.5779 2.0772 -2.4985 0.9640
-8.6472 1.7702 -2.4987 0.9640
-8.7055 1.4609 -2.4989 0.9640
-8.7889 0.8370 -2.4993 0.9640
-8.8139 0.5231 -2.4996 0.9640
-8.7707 -1.0488 -2.5006 0.9639
-8.6752 -1.6713 -2.5010 0.9639
-8.6108 -1.9797 -2.5013 0.9639
-8.5355 -2.2857 -2.5015 0.9639
-8.4493 -2.5887 -2.5017 0.9639
-8.3523 -2.8886 -2.5019 0.9639
-8.2447 -3.1848 -2.5021 0.9639
-8.1266 -3.4770 -2.5023 0.9639
-7.9981 -3.7648 -2.5025 0.9639
-7.8595 -4.0479 -2.5027 0.9639
-7.7107 -4.3258 -2.5029 0.9639
-7.5522 -4.5983 -2.5031 0.9639
-7.3841 -4.8650 -2.5033 0.9639
-7.2065 -5.1256 -2.5035 0.9639
-7.0197 -5.3796 -2.5037 0.9639
-6.4066 -6.0997 -2.5042 0.9639
-0.4014 8.1024 -2.4952 0.9666
-1.8320 7.9029 -2.4952 0.9666
-3.4685 7.3344 -2.4954 0.9666
-3.7279 7.2062 -2.4955 0.9666
-4.2322 6.9227 -2.4957 0.9666
-4.7150 6.6039 -2.4958 0.9666
-5.1740 6.2517 -2.4960 0.9666
-5.3939 6.0635 -2.4961 0.9666
-5.6069 5.8676 -2.4962 0.9666
-5.8127 5.6643 -2.4964 0.9666
-6.0113 5.4537 -2.4965 0.9666
-6.2017 5.2362 -2.4966 0.9666
-6.3853 5.0120 -2.4968 0.9666
-6.7270 4.5448 -2.4970 0.9666
-7.3066 3.5433 -2.4977 0.9666
-7.7381 2.4693 -2.4983 0.9666
-7.9593 1.6293 -2.4989 0.9666
-8.0130 1.3446 -2.4991 0.9666
-8.0896 0.7704 -2.4995 0.9666
-8.1126 0.4815 -2.4996 0.9666
-8.1252 0.1920 -2.4998 0.9666
-8.1195 -0.3875 -2.5002 0.9666
-8.1012 -0.6768 -2.5004 0.9666
-8.0725 -0.9653 -2.5006 0.9665
-7.9252 -1.8221 -2.5012 0.9665
-7.8558 -2.1037 -2.5014 0.9665
-7.7764 -2.3826 -2.5016 0.9665
-7.4793 -3.2000 -2.5022 0.9665
-7.3610 -3.4649 -2.5024 0.9665
-7.2333 -3.7254 -2.5025 0.9665
-6.9505 -4.2319 -2.5029 0.9665
-6.6322 -4.7171 -2.5033 0.9665
-6.4603 -4.9509 -2.5034 0.9665
-6.2801 -5.1785 -2.5036 0.9665
-0.3715 7.4985 -2.4956 0.9688
-0.6386 7.4804 -2.4956 0.9688
-1.1700 7.4160 -2.4956 0.9688
-1.4336 7.3695 -2.4956 0.9688
-1.6955 7.3138 -2.4956 0.9688
-1.9551 7.2487 -2.4956 0.9688
-2.2123 7.1745 -2.4957 0.9688
-2.7180 6.9988 -2.4957 0.9688
-2.9659 6.8976 -2.4958 0.9688
-3.2100 6.7876 -2.4958 0.9688
-3.6857 6.5420 -2.4960 0.9688
-3.9167 6.4066 -2.4960 0.9688
-4.1427 6.2631 -2.4961 0.9688
-4.5788 5.9524 -2.4963 0.9688
-4.7882 5.7855 -2.4964 0.9688
-4.9917 5.6114 -2.4965 0.9688
-5.3793 5.2419 -2.4967 0.9688
-5.9091 4.6382 -2.4970 0.9688
-6.0710 4.4248 -2.4972 0.9688
-6.2252 4.2058 -2.4973 0.9688
-6.3716 3.9814 -2.4974 0.9688
-7.0742 2.5387 -2.4984 0.9688
-7.1607 2.2851 -2.4985 0.9688
-7.2381 2.0284 -2.4987 0.9688
-7.3063 1.7692 -2.4989 0.9688
-7.4148 1.2443 -2.4992 0.9688
-7.4550 0.9792 -2.4994 0.9688
-7.4857 0.7129 -2.4995 0.9688
-7.5069 0.4455 -2.4997 0.9688
-7.5206 -0.0905 -2.5001 0.9688
-7.4962 -0.6262 -2.5004 0.9688
-7.1127 -2.4599 -2.5017 0.9688
-7.0210 -2.7121 -2.5019 0.9688
-6.9203 -2.9608 -2.5021 0.9688
-6.6927 -3.4470 -2.5024 0.9688
-6.5660 -3.6836 -2.5026 0.9688
-6.4309 -3.9156 -2.5027 0.9688
-5.9773 -4.5808 -2.5032 0.9688
-5.4550 -5.1937 -2.5037 0.9687
-0.3453 6.9711 -2.4960 0.9708
-0.5937 6.9543 -2.4960 0.9708
-1.0877 6.8943 -2.4960 0.9708
-1.3328 6.8512 -2.4960 0.9708
-1.5762 6.7993 -2.4960 0.9708
-2.0567 6.6698 -2.4960 0.9708
-2.5269 6.5065 -2.4961 0.9708
-2.7572 6.4124 -2.4961 0.9708
-3.2073 6.1999 -2.4962 0.9708
-3.8513 5.8225 -2.4964 0.9708
-4.0565 5.6816 -2.4965 0.9708
-4.4514 5.3785 -2.4967 0.9708
-4.6404 5.2166 -2.4968 0.9708
-5.0008 4.8730 -2.4970 0.9708
-5.1715 4.6919 -2.4971 0.9708
-5.3358 4.5047 -2.4972 0.9708
-5.7871 3.9098 -2.4975 0.9708
-5.9231 3.7012 -2.4977 0.9708
-6.4874 2.5928 -2.4984 0.9708
-6.7918 1.6446 -2.4990 0.9708
-6.8926 1.1566 -2.4993 0.9707
-6.9584 0.6626 -2.4996 0.9707
-6.9838 -0.3334 -2.5003 0.9707
-6.9679 -0.5822 -2.5005 0.9707
-6.9097 -1.0773 -2.5008 0.9707
-6.8673 -1.3230 -2.5010 0.9707
-6.6882 -2.0492 -2.5015 0.9707
-6.6113 -2.2865 -2.5016 0.9707
-6.5260 -2.5209 -2.5018 0.9707
-6.2207 -3.2039 -2.5023 0.9707
-5.8442 -3.8505 -2.5028 0.9707
-5.5556 -4.2577 -2.5031 0.9707
-5.4006 -4.4533 -2.5032 0.9707
-5.2387 -4.6432 -2.5033 0.9707
-0.3223 6.5060 -2.4963 0.9725
-0.5540 6.4903 -2.4963 0.9725
-0.7851 6.4665 -2.4963 0.9725
-1.4710 6.3457 -2.4963 0.9725
-1.9195 6.2249 -2.4963 0.9725
-2.3583 6.0724 -2.4964 0.9725
-2.9933 5.7862 -2.4965 0.9725
-3.1978 5.6760 -2.4966 0.9725
-3.3982 5.5585 -2.4966 0.9725
-3.5943 5.4339 -2.4967 0.9725
-3.7858 5.3025 -2.4968 0.9725
-3.9727 5.1643 -2.4969 0.9725
-4.5017 4.7111 -2.4971 0.9725
-4.8264 4.3787 -2.4973 0.9725
-4.9796 4.2040 -2.4974 0.9725
-5.1266 4.0240 -2.4975 0.9725
-5.2670 3.8388 -2.4976 0.9725
-5.5277 3.4541 -2.4979 0.9725
-5.8658 2.8446 -2.4983 0.9725
-6.2120 1.9823 -2.4988 0.9725
-6.2790 1.7597 -2.4989 0.9725
-6.3381 1.5348 -2.4991 0.9725
-6.3892 1.3079 -2.4992 0.9724
-6.4322 1.0794 -2.4994 0.9724
-6.5118 0.3865 -2.4998 0.9724
-6.5219 0.1541 -2.5000 0.9724
-6.5236 -0.0785 -2.5002 0.9724
-6.5023 -0.5433 -2.5005 0.9724
-6.4792 -0.7748 -2.5006 0.9724
-6.4479 -1.0053 -2.5008 0.9724
-6.3049 -1.6884 -2.5013 0.9724
-6.2410 -1.9122 -2.5014 0.9724
-6.1693 -2.1336 -2.5016 0.9724
-6.0897 -2.3523 -2.5017 0.9724
-6.0023 -2.5681 -2.5019 0.9724
-5.8048 -2.9896 -2.5022 0.9724
-5.6948 -3.1949 -2.5023 0.9724
-5.4533 -3.5930 -2.5026 0.9724
-5.3221 -3.7853 -2.5028 0.9724
-5.1840 -3.9729 -2.5029 0.9724
-5.0394 -4.1554 -2.5030 0.9724
-4.7309 -4.5044 -2.5033 0.9724
-0.3018 6.0925 -2.4966 0.9740
-0.5188 6.0778 -2.4966 0.9740
-0.7352 6.0554 -2.4965 0.9740
-0.9506 6.0254 -2.4965 0.9740
-2.4097 5.6042 -2.4967 0.9740
-2.8030 5.4184 -2.4968 0.9740
-2.9945 5.3151 -2.4968 0.9740
-3.1821 5.2051 -2.4969 0.9740
-3.5452 4.9654 -2.4970 0.9740
-3.8902 4.7004 -2.4972 0.9740
-4.2155 4.4116 -2.4973 0.9740
-4.6630 3.9367 -2.4976 0.9740
-4.8006 3.7681 -2.4977 0.9740
-5.3940 2.8576 -2.4983 0.9740
-5.4927 2.6637 -2.4984 0.9740
-5.7466 2.0623 -2.4988 0.9740
-5.9349 1.4371 -2.4992 0.9740
-6.0974 0.3619 -2.4999 0.9739
-6.1084 -0.0735 -2.5002 0.9739
-6.1022 -0.2913 -2.5003 0.9739
-6.0667 -0.7255 -2.5006 0.9739
-6.0373 -0.9413 -2.5008 0.9739
-5.9034 -1.5809 -2.5012 0.9739
-5.7764 -1.9977 -2.5015 0.9739
-5.5310 -2.6035 -2.5019 0.9739
-5.3320 -2.9913 -2.5022 0.9739
-4.8537 -3.7197 -2.5028 0.9739
-4.7182 -3.8906 -2.5029 0.9739
-4.5768 -4.0565 -2.5030 0.9739
-4.4294 -4.2173 -2.5031 0.9739
-0.2835 5.7220 -2.4968 0.9753
-0.4873 5.7082 -2.4968 0.9753
-1.0940 5.6236 -2.4968 0.9753
-1.8823 5.4111 -2.4969 0.9753
-2.2632 5.2634 -2.4969 0.9753
-2.4497 5.1794 -2.4970 0.9753
-2.8124 4.9919 -2.4971 0.9753
-3.3296 4.6634 -2.4973 0.9753
-3.4938 4.5419 -2.4973 0.9753
-3.8088 4.2816 -2.4975 0.9753
-3.9591 4.1432 -2.4975 0.9753
-4.1045 3.9996 -2.4976 0.9753
-4.3793 3.6972 -2.4978 0.9753
-4.5085 3.5389 -2.4979 0.9753
-4.6320 3.3760 -2.4980 0.9753
-4.7496 3.2089 -2.4981 0.9753
-4.8612 3.0377 -2.4982 0.9753
-5.0658 2.6837 -2.4984 0.9753
-5.2446 2.3162 -2.4987 0.9753
-5.3968 1.9367 -2.4989 0.9753
-5.6562 0.9491 -2.4995 0.9753
-5.7101 0.5437 -2.4998 0.9753
-5.7365 -0.0690 -2.5002 0.9753
-5.7307 -0.2735 -2.5004 0.9753
-5.7176 -0.4777 -2.5005 0.9753
-5.6972 -0.6812 -2.5006 0.9753
-5.3544 -2.0683 -2.5016 0.9753
-5.2776 -2.2580 -2.5017 0.9753
-5.1038 -2.6286 -2.5020 0.9753
-4.7947 -3.1590 -2.5024 0.9753
-4.4306 -3.6534 -2.5027 0.9753
-4.2978 -3.8093 -2.5029 0.9753
-0.6501 5.3552 -2.4970 0.9765
-0.8407 5.3286 -2.4970 0.9765
-1.4048 5.2084 -2.4971 0.9765
-1.7724 5.0952 -2.4971 0.9765
-1.9530 5.0288 -2.4971 0.9765
-2.1310 4.9560 -2.4972 0.9765
-2.3064 4.8769 -2.4972 0.9765
-2.4788 4.7917 -2.4972 0.9765
-2.9765 4.4999 -2.4974 0.9765
-3.1351 4.3911 -2.4975 0.9765
-3.2897 4.2766 -2.4975 0.9765
-3.4402 4.1567 -2.4976 0.9765
-3.7279 3.9012 -2.4977 0.9765
-3.8647 3.7660 -2.4978 0.9765
-3.9967 3.6259 -2.4979 0.9765
-4.2452 3.3321 -2.4981 0.9765
-4.3614 3.1788 -2.4982 0.9765
-4.7698 2.5269 -2.4986 0.9765
-4.9381 2.1808 -2.4988 0.9765
-5.1990 1.4570 -2.4992 0.9765
-5.2479 1.2708 -2.4994 0.9765
-5.2901 1.0829 -2.4995 0.9765
-5.3256 0.8937 -2.4996 0.9765
-5.3544 0.7033 -2.4997 0.9765
-5.3914 0.3200 -2.5000 0.9765
-5.3997 0.1276 -2.5001 0.9765
-5.3833 -0.4498 -2.5005 0.9765
-5.3641 -0.6414 -2.5006 0.9765
-5.3381 -0.8323 -2.5008 0.9765
-5.3053 -1.0221 -2.5009 0.9765
-5.2658 -1.2107 -2.5010 0.9765
-5.2195 -1.3977 -2.5012 0.9765
-5.1666 -1.5830 -2.5013 0.9765
-5.1072 -1.7663 -2.5014 0.9765
-5.0412 -1.9473 -2.5015 0.9765
-4.9688 -2.1259 -2.5017 0.9765
-4.8901 -2.3018 -2.5018 0.9765
-4.8052 -2.4748 -2.5019 0.9765
-4.4055 -3.1334 -2.5024 0.9765
-4.1714 -3.4396 -2.5026 0.9765
-4.0463 -3.5863 -2.5027 0.9764
-3.9160 -3.7285 -2.5028 0.9764
-3.7807 -3.8659 -2.5029 0.9764
-0.2519 5.0847 -2.4972 0.9776
-0.4330 5.0725 -2.4972 0.9776
-0.6136 5.0538 -2.4972 0.9776
-0.9721 4.9973 -2.4972 0.9776
-1.1497 4.9594 -2.4972 0.9776
-1.5002 4.8650 -2.4973 0.9776
-1.6727 4.8084 -2.4973 0.9776
-1.8431 4.7458 -2.4973 0.9776
-2.1766 4.6026 -2.4974 0.9776
-2.3394 4.5221 -2.4974 0.9776
-2.4991 4.4359 -2.4975 0.9776
-2.6558 4.3440 -2.4975 0.9776
-2.8090 4.2467 -2.4976 0.9776
-3.1046 4.0359 -2.4977 0.9776
-3.2466 3.9228 -2.4978 0.9776
-3.3845 3.8046 -2.4978 0.9776
-3.5181 3.6817 -2.4979 0.9776
-3.6472 3.5540 -2.4980 0.9776
-3.8914 3.2853 -2.4981 0.9776
-4.0062 3.1446 -2.4982 0.9776
-4.2204 2.8513 -2.4984 0.9776
-4.4132 2.5435 -2.4986 0.9776
-4.5836 2.2228 -2.4988 0.9776
-4.7307 1.8906 -2.4990 0.9776
-4.7953 1.7209 -2.4991 0.9776
-4.8538 1.5489 -2.4992 0.9776
-4.9062 1.3749 -2.4993 0.9776
-4.9922 1.0219 -2.4996 0.9776
-5.0528 0.6637 -2.4998 0.9776
-5.0735 0.4831 -2.4999 0.9775
-5.0955 0.1204 -2.5002 0.9775
-5.0916 -0.2430 -2.5004 0.9775
-5.0800 -0.4245 -2.5005 0.9775
-5.0619 -0.6053 -2.5006 0.9775
-5.0063 -0.9646 -2.5009 0.9775
-4.9690 -1.1425 -2.5010 0.9775
-4.9254 -1.3190 -2.5011 0.9775
-4.8755 -1.4938 -2.5013 0.9775
-4.3568 -2.6527 -2.5021 0.9775
-4.1571 -2.9567 -2.5023 0.9775
-3.8181 -3.3841 -2.5026 0.9775
-0.2382 4.8081 -2.4974 0.9785
-0.5802 4.7789 -2.4974 0.9785
-1.2536 4.6479 -2.4974 0.9785
-1.4186 4.6003 -2.4975 0.9785
-2.5113 4.1077 -2.4977 0.9785
-2.6562 4.0157 -2.4977 0.9785
-2.7977 3.9185 -2.4978 0.9785
-3.0700 3.7094 -2.4979 0.9785
-3.2003 3.5976 -2.4980 0.9785
-3.3266 3.4814 -2.4980 0.9785
-3.4488 3.3606 -2.4981 0.9785
-3.7882 2.9735 -2.4984 0.9785
-4.1730 2.4051 -2.4987 0.9785
-4.3341 2.1018 -2.4989 0.9785
-4.4065 1.9460 -2.4990 0.9785
-4.5896 1.4646 -2.4993 0.9785
-4.7520 0.7974 -2.4997 0.9785
-4.7777 0.6275 -2.4998 0.9785
-4.7972 0.4568 -2.5000 0.9785
-4.8180 0.1138 -2.5002 0.9785
-4.8033 -0.4013 -2.5005 0.9785
-4.7629 -0.7426 -2.5008 0.9785
-4.6983 -1.0802 -2.5010 0.9785
-4.5568 -1.5759 -2.5013 0.9785
-4.4979 -1.7375 -2.5015 0.9785
-4.2873 -2.2081 -2.5018 0.9785
-4.1194 -2.5082 -2.5020 0.9785
-4.0275 -2.6535 -2.5021 0.9785
-3.6100 -3.1996 -2.5025 0.9785
-3.3731 -3.4490 -2.5027 0.9785
-0.3879 4.5436 -2.4976 0.9794
-1.0298 4.4423 -2.4976 0.9794
-1.1875 4.4028 -2.4976 0.9794
-1.6509 4.2509 -2.4977 0.9794
-1.8014 4.1895 -2.4977 0.9794
-2.5160 3.8038 -2.4979 0.9794
-2.6501 3.7118 -2.4980 0.9794
-2.7808 3.6150 -2.4980 0.9794
-3.0315 3.4078 -2.4981 0.9794
-3.1511 3.2977 -2.4982 0.9794
-3.2668 3.1833 -2.4983 0.9794
-3.4855 2.9426 -2.4984 0.9794
-3.8689 2.4176 -2.4987 0.9794
-3.9528 2.2782 -2.4988 0.9794
-4.1054 1.9909 -2.4990 0.9794
-4.1739 1.8433 -2.4991 0.9794
-4.2371 1.6934 -2.4992 0.9794
-4.2950 1.5413 -2.4993 0.9794
-4.3474 1.3873 -2.4994 0.9794
-4.4355 1.0740 -2.4996 0.9794
-4.5254 0.5944 -2.4999 0.9794
-4.5567 0.2704 -2.5001 0.9794
-4.5636 0.1078 -2.5002 0.9794
-4.5601 -0.2177 -2.5004 0.9794
-4.5334 -0.5421 -2.5006 0.9794
-4.4837 -0.8638 -2.5009 0.9794
-4.4502 -1.0232 -2.5010 0.9794
-4.4111 -1.1812 -2.5011 0.9794
-4.3664 -1.3378 -2.5012 0.9794
-4.3161 -1.4927 -2.5013 0.9794
-4.2603 -1.6457 -2.5014 0.9794
-4.1326 -1.9452 -2.5016 0.9794
-3.9838 -2.2349 -2.5018 0.9794
-3.7228 -2.6479 -2.5021 0.9794
-3.6262 -2.7790 -2.5022 0.9794
-3.5249 -2.9066 -2.5023 0.9794
-3.4192 -3.0306 -2.5024 0.9794
-3.3091 -3.1506 -2.5025 0.9794
-3.1948 -3.2668 -2.5026 0.9794
-0.5214 4.2947 -2.4977 0.9802
-0.9770 4.2145 -2.4978 0.9802
-1.1266 4.1770 -2.4978 0.9802
-1.2748 4.1342 -2.4978 0.9802
-1.5662 4.0329 -2.4978 0.9802
-1.7090 3.9745 -2.4979 0.9802
-1.9879 3.8427 -2.4979 0.9802
-2.2568 3.6914 -2.4980 0.9802
-2.3870 3.6087 -2.4980 0.9802
-2.5142 3.5214 -2.4981 0.9802
-2.9895 3.1285 -2.4983 0.9802
-3.0992 3.0200 -2.4984 0.9802
-3.2050 2.9077 -2.4984 0.9802
-3.5862 2.4228 -2.4987 0.9802
-3.8947 1.8887 -2.4991 0.9802
-4.0746 1.4622 -2.4993 0.9802
-4.2079 1.0189 -2.4996 0.9802
-4.2701 0.7165 -2.4998 0.9802
-4.3107 0.4105 -2.5000 0.9802
-4.3293 0.1023 -2.5002 0.9802
-4.3260 -0.2065 -2.5004 0.9802
-4.3160 -0.3606 -2.5005 0.9802
-4.3006 -0.5143 -2.5006 0.9802
-4.2797 -0.6673 -2.5008 0.9802
-4.1845 -1.1206 -2.5011 0.9802
-4.1421 -1.2691 -2.5012 0.9802
-4.0944 -1.4160 -2.5013 0.9802
-3.9203 -1.8453 -2.5016 0.9802
-3.8522 -1.9840 -2.5017 0.9802
-3.7791 -2.1201 -2.5018 0.9802
-3.0306 -3.0989 -2.5025 0.9802
