ply
format ascii 1.0
element vertex 945
property float32 x
property float32 y
property float32 z
property float32 I
end_header
-15.1980 12.0608 3.4211 0.9242
-16.3370 12.0368 3.5781 0.9209
-15.4432 9.7540 3.2207 0.9285
-37.4408 -24.6955 7.9086 0.8335
-34.6350 -24.6694 7.4979 0.8414
-35.1328 -26.9716 7.8099 0.8354
-32.8510 -29.1860 7.7484 0.8365
-30.5170 -29.1338 7.4394 0.8425
-23.0223 -25.3695 6.0407 0.8701
-22.8243 -29.0903 6.5198 0.8605
-23.2270 -31.8929 6.9569 0.8519
-22.8244 -36.5838 7.6032 0.8393
-17.0699 -38.7959 7.4737 0.8418
-15.4573 -38.8495 7.3725 0.8438
-13.8858 -38.9016 7.2833 0.8455
-12.4175 -39.1654 7.2447 0.8463
-8.3475 -41.2752 7.4253 0.8428
-1.5844 -17.1598 3.0386 0.9324
-2.3352 -41.4750 7.3247 0.8447
5.1692 -41.8546 7.4362 0.8426
-16.3375 12.0371 3.1088 0.9212
-17.6920 12.0820 3.2820 0.9170
-15.4420 9.7532 2.7980 0.9288
-30.8146 16.5029 5.3550 0.8681
-30.8607 15.1310 5.2654 0.8702
-30.9395 13.8180 5.1910 0.8719
-35.5116 -33.9020 7.5212 0.8198
-23.2845 -23.8807 5.1095 0.8737
-23.0584 -29.3887 5.7226 0.8597
-23.2240 -31.8888 6.0434 0.8525
-1.6470 -17.8381 2.7443 0.9301
-15.1176 11.9970 2.5132 0.9251
-30.9995 16.6019 4.5792 0.8678
-31.0454 15.2216 4.5025 0.8698
-31.1777 13.9244 4.4465 0.8713
-31.1330 12.5871 4.3730 0.8733
-34.4266 12.5036 4.7696 0.8627
-38.5767 12.4661 5.2793 0.8491
-46.2108 -17.8241 6.4497 0.8189
-23.3256 -37.3871 5.7384 0.8371
-1.6470 -17.8378 2.3327 0.9303
-15.1180 11.9973 2.0725 0.9253
-17.6930 12.0827 2.3007 0.9174
-31.1778 13.9244 3.6666 0.8716
-31.1330 12.5871 3.6060 0.8736
-34.3014 12.4581 3.9188 0.8635
-38.9418 12.5840 4.3946 0.8482
-45.2950 12.8646 5.0562 0.8274
-46.2073 -17.8228 5.3181 0.8194
-23.2835 -23.8797 3.5814 0.8744
-23.1815 -31.8303 4.2284 0.8535
-1.6470 -17.8375 1.9236 0.9305
-14.9424 10.2043 1.5317 0.9299
-30.8991 18.0012 3.0272 0.8663
-30.9997 16.6020 2.9768 0.8683
-31.0455 15.2217 2.9270 0.8704
-31.1331 12.5871 2.8427 0.8739
-34.1389 12.3991 3.0747 0.8643
-46.2032 -17.8212 4.1921 0.8197
-15.4371 9.7501 1.1322 0.9294
-31.0456 15.2217 2.1441 0.8706
-31.0900 13.8852 2.1114 0.8724
-39.1871 12.6633 2.5537 0.8479
-45.3006 12.8663 2.9202 0.8280
-46.1990 -17.8196 3.0705 0.8200
-23.0746 -23.6654 2.0496 0.8759
-1.6469 -17.8369 1.1108 0.9307
-0.4937 -24.1718 1.4992 0.9077
-15.2003 12.0627 0.7652 0.9253
-16.3396 12.0387 0.8003 0.9220
-15.4358 9.7494 0.7199 0.9295
-20.7885 12.1109 0.9487 0.9082
-20.8958 10.2452 0.9176 0.9110
-31.0369 13.8615 1.3403 0.8728
-30.3281 12.2617 1.2899 0.8773
-39.1893 12.6640 1.6240 0.8480
-40.7275 11.5674 1.6694 0.8441
-46.1949 -17.8180 1.9523 0.8202
-22.8439 -23.4288 1.2903 0.8772
-1.6469 -17.8366 0.7063 0.9308
0.3728 -24.2003 0.9544 0.9077
-16.3401 12.0391 0.3428 0.9220
-15.4346 9.7486 0.3084 0.9296
-21.6184 11.5778 0.4142 0.9066
-21.6595 10.6197 0.4075 0.9080
-31.1780 13.9245 0.5768 0.8723
-29.2925 10.6389 0.5264 0.8828
-39.2274 12.6763 0.6964 0.8480
-45.2107 12.8407 0.7939 0.8286
-45.2210 11.1098 0.7866 0.8300
-22.8435 -23.4284 0.5527 0.8773
-22.2897 -24.5623 0.5603 0.8757
-24.0513 -41.8143 0.8148 0.8245
-1.6469 -17.8363 0.3026 0.9308
-0.4937 -24.1711 0.4084 0.9078
-12.7662 10.1310 -0.0918 0.9369
-14.9410 10.2033 -0.1019 0.9302
-15.4334 9.7479 -0.1028 0.9296
-17.6697 10.2940 -0.1151 0.9215
-31.0458 15.2218 -0.1947 0.8708
-31.0902 13.8853 -0.1917 0.8727
-31.1334 12.5872 -0.1891 0.8743
-29.2978 10.6408 -0.1755 0.8828
-33.1069 10.6985 -0.1959 0.8701
-45.2211 11.1098 -0.2622 0.8301
-40.3643 -17.2543 -0.2472 0.8390
-36.7039 -17.2697 -0.2284 0.8502
-33.5820 -17.2961 -0.2127 0.8598
-28.4274 -17.3220 -0.1874 0.8753
-26.2785 -17.3329 -0.1772 0.8817
-24.3488 -17.3428 -0.1683 0.8873
-15.7754 -17.3837 -0.1322 0.9104
-11.7501 -17.4120 -0.1183 0.9194
-10.8658 -17.4160 -0.1156 0.9212
-7.6693 -17.4306 -0.1072 0.9267
-6.9390 -17.4399 -0.1057 0.9277
-3.5303 -17.4558 -0.1003 0.9312
-1.6469 -17.8361 -0.1008 0.9309
-1.6994 -30.1813 -0.1702 0.8861
0.3728 -24.1995 -0.1363 0.9077
-12.7994 10.1573 -0.4601 0.9367
-16.3409 12.0397 -0.5715 0.9220
-15.4322 9.7471 -0.5140 0.9296
-19.3742 10.3759 -0.6188 0.9158
-31.0459 15.2219 -0.9736 0.8708
-31.0903 13.8853 -0.9588 0.8726
-38.0519 10.8075 -1.1138 0.8536
-44.6485 -17.2215 -1.3475 0.8257
-36.7049 -17.2702 -1.1422 0.8502
-33.5786 -17.2943 -1.0635 0.8597
-28.4246 -17.3203 -0.9373 0.8753
-26.2760 -17.3313 -0.8863 0.8817
-22.5981 -17.3486 -0.8022 0.8923
-19.5462 -17.3654 -0.7362 0.9007
-16.9431 -17.3769 -0.6834 0.9074
-14.6808 -17.3905 -0.6408 0.9130
-11.7501 -17.4121 -0.5915 0.9194
-10.8658 -17.4161 -0.5780 0.9211
-9.2076 -17.4236 -0.5549 0.9242
-8.4253 -17.4272 -0.5451 0.9255
-4.1855 -17.4526 -0.5054 0.9307
-3.5302 -17.4557 -0.5015 0.9312
-2.8842 -17.4587 -0.4983 0.9316
-1.6468 -17.8358 -0.5044 0.9308
-1.7150 -30.4592 -0.8590 0.8851
0.3728 -24.1992 -0.6815 0.9077
-12.7997 10.1576 -0.8287 0.9366
-14.9418 10.2038 -0.9176 0.9301
-15.4310 9.7463 -0.9256 0.9295
-17.6145 10.2618 -1.0338 0.9216
-19.2635 10.3166 -1.1082 0.9162
-31.0904 13.8854 -1.7268 0.8725
-29.2979 10.6409 -1.5808 0.8826
-32.9174 10.6373 -1.7544 0.8706
-48.7187 6.5393 -2.4929 0.8213
-48.9441 4.7923 -2.4940 0.8212
-49.2075 1.2773 -2.4964 0.8211
-48.9784 -5.7742 -2.5011 0.8208
-48.1449 -11.0105 -2.5047 0.8205
-47.2775 -14.4425 -2.5070 0.8204
-43.9026 -15.1509 -2.3553 0.8303
-43.3516 -16.7214 -2.3564 0.8302
-33.5751 -17.2925 -1.9153 0.8596
-26.2735 -17.3296 -1.5962 0.8816
-21.0062 -17.3570 -1.3819 0.8966
-19.5458 -17.3651 -1.3259 0.9006
-16.9432 -17.3770 -1.2308 0.9074
-14.6809 -17.3906 -1.1542 0.9129
-13.6496 -17.3968 -1.1214 0.9152
-12.6778 -17.4079 -1.0921 0.9174
-10.0198 -17.4200 -1.0192 0.9227
-9.2077 -17.4237 -0.9994 0.9241
-6.9389 -17.4397 -0.9519 0.9276
-5.5314 -17.4463 -0.9282 0.9293
-4.8518 -17.4494 -0.9185 0.9300
-3.5302 -17.4556 -0.9032 0.9312
-2.2455 -17.4616 -0.8928 0.9319
-1.7134 -30.4298 -1.5457 0.8851
-0.4936 -24.1700 -1.2260 0.9077
0.3728 -24.1988 -1.2274 0.9076
-12.7265 10.0994 -1.1913 0.9369
-13.7539 10.1336 -1.2526 0.9338
-14.8945 10.1716 -1.3225 0.9302
-15.4298 9.7456 -1.3381 0.9294
-19.2642 10.3170 -1.6023 0.9161
-28.3491 12.6611 -2.2765 0.8829
-28.8264 11.6545 -2.2798 0.8828
-33.0179 8.1117 -2.4929 0.8725
-33.5348 5.7307 -2.4945 0.8725
-33.8807 3.3174 -2.4961 0.8724
-33.9887 2.1024 -2.4969 0.8723
-34.0532 0.8839 -2.4977 0.8723
-34.0514 -1.5572 -2.4993 0.8722
-33.5240 -6.4127 -2.5026 0.8721
-31.8966 -12.3030 -2.5067 0.8719
-31.4455 -13.4418 -2.5075 0.8718
-29.2030 -15.0407 -2.4085 0.8766
-28.0307 -15.7321 -2.3568 0.8790
-27.4574 -16.7309 -2.3575 0.8790
-26.2711 -17.3280 -2.3075 0.8814
-21.0058 -17.3567 -1.9979 0.8965
-19.5454 -17.3648 -1.9170 0.9005
-18.1943 -17.3696 -1.8444 0.9040
-16.9433 -17.3771 -1.7795 0.9072
-14.6810 -17.3907 -1.6687 0.9128
-13.6497 -17.3970 -1.6213 0.9151
-10.0199 -17.4200 -1.4735 0.9226
-8.4254 -17.4273 -1.4193 0.9253
-6.9389 -17.4396 -1.3762 0.9275
-5.5313 -17.4462 -1.3419 0.9292
-4.8518 -17.4493 -1.3280 0.9299
-4.1854 -17.4525 -1.3159 0.9305
-2.8842 -17.4585 -1.2975 0.9315
-0.4936 -24.1696 -1.7725 0.9076
0.3728 -24.1984 -1.7745 0.9075
1.6572 -32.3184 -2.3728 0.8783
2.0148 -23.0848 -1.6991 0.9112
-12.7268 10.0997 -1.5598 0.9368
-13.7543 10.1339 -1.6402 0.9337
-14.8949 10.1719 -1.7316 0.9301
-15.3205 9.6765 -1.7397 0.9298
-22.6024 9.1381 -2.3406 0.9067
-25.4473 5.2931 -2.4954 0.9008
-25.6267 4.3793 -2.4960 0.9008
-25.7733 3.4594 -2.4966 0.9008
-25.9676 1.6062 -2.4978 0.9007
-26.0149 0.6752 -2.4984 0.9007
-26.0289 -0.2571 -2.4990 0.9007
-25.7512 -3.9757 -2.5015 0.9006
-25.5987 -4.8967 -2.5022 0.9006
-25.4133 -5.8119 -2.5028 0.9005
-24.9444 -7.6201 -2.5040 0.9005
-24.3468 -9.3909 -2.5053 0.9005
-24.0006 -10.2594 -2.5059 0.9004
-23.6233 -11.1152 -2.5065 0.9004
-22.3103 -13.5946 -2.5082 0.9003
-21.8140 -14.3882 -2.5088 0.9003
-18.9293 -15.6410 -2.3574 0.9060
-17.7683 -16.9629 -2.3584 0.9060
-16.9435 -17.3773 -2.3301 0.9071
-14.6811 -17.3909 -2.1850 0.9126
-13.6498 -17.3971 -2.1229 0.9150
-11.7502 -17.4122 -2.0167 0.9191
-10.0199 -17.4201 -1.9293 0.9224
-7.6694 -17.4308 -1.8283 0.9263
-4.8518 -17.4493 -1.7388 0.9298
-2.8842 -17.4584 -1.6988 0.9314
-1.3851 -24.6005 -2.3655 0.9057
-0.4936 -24.1693 -2.3208 0.9074
0.3728 -24.1981 -2.3234 0.9073
1.2638 -24.6464 -2.3693 0.9056
2.8444 -23.0309 -2.2279 0.9110
-12.7271 10.0999 -1.9300 0.9366
-13.7547 10.1342 -2.0294 0.9335
-17.0247 9.9182 -2.3405 0.9237
-17.6970 8.6768 -2.3412 0.9237
-19.4655 7.8699 -2.4941 0.9189
-20.9280 2.0491 -2.4978 0.9188
-21.0230 -0.9614 -2.4999 0.9187
-20.9794 -1.7142 -2.5004 0.9187
-20.9087 -2.4650 -2.5009 0.9187
-20.6870 -3.9571 -2.5019 0.9187
-20.3588 -5.4302 -2.5029 0.9186
-20.1553 -6.1571 -2.5034 0.9186
-19.9258 -6.8765 -2.5039 0.9186
-19.3900 -8.2885 -2.5049 0.9186
-18.7541 -9.6591 -2.5058 0.9185
-18.3996 -10.3266 -2.5063 0.9185
-18.0212 -10.9811 -2.5068 0.9185
-17.6195 -11.6216 -2.5072 0.9185
-17.1950 -12.2474 -2.5077 0.9185
-16.2798 -13.4517 -2.5085 0.9185
-15.7902 -14.0285 -2.5090 0.9184
-15.2800 -14.5874 -2.5094 0.9184
-14.7501 -15.1278 -2.5098 0.9184
-13.7589 -15.1617 -2.4320 0.9208
-12.8243 -15.1915 -2.3616 0.9230
-11.6873 -16.0478 -2.3582 0.9231
-10.5112 -16.8477 -2.3588 0.9231
-9.9022 -17.2155 -2.3591 0.9231
-7.6695 -17.4309 -2.2621 0.9262
-6.9388 -17.4394 -2.2295 0.9272
-5.5313 -17.4460 -2.1740 0.9289
-4.1854 -17.4522 -2.1319 0.9303
-2.8841 -17.4583 -2.1019 0.9312
-2.2455 -17.4613 -2.0912 0.9315
-1.6467 -17.8346 -2.1275 0.9304
-1.1183 -19.8607 -2.3629 0.9230
-0.4069 -19.9218 -2.3669 0.9229
0.3070 -19.9241 -2.3670 0.9229
2.4387 -19.7458 -2.3633 0.9230
-13.6446 9.3180 -2.3411 0.9354
-15.4122 8.2540 -2.4772 0.9318
-16.0767 7.1800 -2.4948 0.9313
-16.3260 6.6006 -2.4951 0.9313
-16.5544 6.0125 -2.4955 0.9313
-17.2888 2.9545 -2.4851 0.9316
-17.6322 0.4576 -2.4991 0.9312
-17.5835 -0.1736 -2.4915 0.9314
-17.6257 -0.8061 -2.5000 0.9312
-17.4464 -2.6935 -2.5013 0.9312
-17.3417 -3.3173 -2.5017 0.9312
-17.2147 -3.9370 -2.5021 0.9311
-17.0655 -4.5518 -2.5025 0.9311
-16.8946 -5.1610 -2.5030 0.9311
-16.7015 -5.7637 -2.5034 0.9311
-16.4870 -6.3593 -2.5038 0.9311
-15.9947 -7.5257 -2.5046 0.9311
-14.4091 -10.2631 -2.5065 0.9310
-13.6413 -11.2716 -2.5073 0.9310
-13.2307 -11.7546 -2.5076 0.9310
-12.3586 -12.6750 -2.5083 0.9310
-11.8982 -13.1113 -2.5086 0.9310
-10.4269 -14.3171 -2.5095 0.9309
-9.9085 -14.6830 -2.5098 0.9309
-8.7388 -15.1928 -2.4834 0.9316
-7.3584 -15.2204 -2.3954 0.9340
-6.1530 -15.4644 -2.3582 0.9350
-5.0308 -15.8676 -2.3586 0.9350
-3.8824 -16.1890 -2.3588 0.9350
-3.3003 -16.3186 -2.3590 0.9350
-2.7138 -16.4271 -2.3591 0.9349
-2.1237 -16.5145 -2.3592 0.9349
-0.3404 -16.6688 -2.3623 0.9349
0.2568 -16.6661 -2.3617 0.9349
0.8532 -16.6399 -2.3608 0.9349
1.4480 -16.5909 -2.3597 0.9349
2.8026 -17.5104 -2.5126 0.9309
-11.4445 8.4321 -2.3418 0.9440
-12.0660 8.2399 -2.4070 0.9425
-12.8017 8.0856 -2.4944 0.9405
-13.3508 7.1500 -2.4950 0.9405
-13.6000 6.6681 -2.4953 0.9404
-13.8319 6.1775 -2.4956 0.9404
-14.0460 5.6788 -2.4959 0.9404
-14.5800 4.1410 -2.4969 0.9404
-14.9462 2.5541 -2.4979 0.9404
-15.0303 2.0174 -2.4983 0.9404
-15.1405 0.9365 -2.4990 0.9404
-15.1602 -0.6934 -2.5001 0.9403
-15.0760 -1.7774 -2.5008 0.9403
-14.9145 -2.8530 -2.5015 0.9403
-14.8049 -3.3858 -2.5019 0.9403
-14.1777 -5.4686 -2.5033 0.9403
-13.9747 -5.9737 -2.5037 0.9402
-13.5150 -6.9608 -2.5044 0.9402
-12.6954 -8.3737 -2.5054 0.9402
-12.0664 -9.2634 -2.5060 0.9402
-11.7283 -9.6909 -2.5063 0.9402
-11.3751 -10.1060 -2.5066 0.9402
-11.0071 -10.5082 -2.5069 0.9402
-10.6249 -10.8970 -2.5072 0.9402
-10.2289 -11.2718 -2.5075 0.9402
-9.8196 -11.6321 -2.5078 0.9402
-8.9635 -12.3078 -2.5083 0.9401
-7.5937 -13.2020 -2.5090 0.9401
-7.1166 -13.4666 -2.5092 0.9401
-6.1352 -13.9437 -2.5096 0.9401
-5.6321 -14.1555 -2.5098 0.9401
-5.1219 -14.3491 -2.5099 0.9401
-4.0819 -14.6807 -2.5102 0.9401
-0.3112 -15.2383 -2.5109 0.9401
0.2348 -15.2399 -2.5109 0.9401
1.8682 -15.1270 -2.5109 0.9401
2.4089 -15.0503 -2.5109 0.9401
-10.6852 7.8726 -2.4947 0.9474
-10.9614 7.4856 -2.4949 0.9474
-12.1261 5.4156 -2.4962 0.9474
-12.3137 4.9784 -2.4965 0.9474
-12.4855 4.5346 -2.4968 0.9474
-12.9045 3.1703 -2.4977 0.9474
-13.1015 2.2389 -2.4983 0.9473
-13.2711 0.8208 -2.4992 0.9473
-13.2991 -0.1313 -2.4998 0.9473
-13.2876 -0.6077 -2.5002 0.9473
-13.2590 -1.0834 -2.5005 0.9473
-13.2134 -1.5578 -2.5008 0.9473
-13.1508 -2.0303 -2.5011 0.9473
-13.0713 -2.5004 -2.5014 0.9473
-12.9750 -2.9673 -2.5018 0.9473
-12.7325 -3.8896 -2.5024 0.9473
-12.5866 -4.3437 -2.5027 0.9472
-12.4245 -4.7923 -2.5030 0.9472
-12.2464 -5.2349 -2.5033 0.9472
-12.0525 -5.6709 -2.5036 0.9472
-11.6184 -6.5208 -2.5042 0.9472
-11.3787 -6.9336 -2.5045 0.9472
-10.8556 -7.7321 -2.5051 0.9472
-10.5729 -8.1169 -2.5054 0.9472
-10.2765 -8.4913 -2.5056 0.9472
-9.9668 -8.8548 -2.5059 0.9472
-8.9621 -9.8759 -2.5067 0.9472
-8.6035 -10.1915 -2.5069 0.9472
-8.2337 -10.4940 -2.5071 0.9472
-7.8532 -10.7832 -2.5074 0.9472
-7.4625 -11.0585 -2.5076 0.9471
-6.6528 -11.5662 -2.5080 0.9471
-6.2347 -11.7979 -2.5081 0.9471
-5.3733 -12.2157 -2.5085 0.9471
-4.9341 -12.4011 -2.5086 0.9471
-4.4871 -12.5706 -2.5088 0.9471
-2.1760 -13.1719 -2.5093 0.9471
-0.2726 -13.3490 -2.5096 0.9471
0.6837 -13.3346 -2.5097 0.9471
1.1609 -13.3016 -2.5097 0.9471
2.1102 -13.1843 -2.5097 0.9471
-9.5039 7.0023 -2.4953 0.9529
-9.7495 6.6580 -2.4955 0.9529
-9.9826 6.3050 -2.4958 0.9529
-10.4102 5.5752 -2.4962 0.9529
-10.6043 5.1993 -2.4965 0.9529
-10.7848 4.8166 -2.4967 0.9529
-10.9514 4.4276 -2.4970 0.9529
-11.2426 3.6330 -2.4975 0.9528
-11.3667 3.2283 -2.4977 0.9528
-11.7163 1.5726 -2.4988 0.9528
-11.7665 1.1521 -2.4991 0.9528
-11.8261 -0.1168 -2.4999 0.9528
-11.8157 -0.5404 -2.5002 0.9528
-11.6936 -1.8054 -2.5011 0.9528
-11.4363 -3.0503 -2.5019 0.9528
-11.0468 -4.2610 -2.5028 0.9527
-10.7158 -5.0420 -2.5033 0.9527
-10.3295 -5.7974 -2.5038 0.9527
-9.6510 -6.8741 -2.5046 0.9527
-8.2757 -8.4876 -2.5058 0.9527
-7.3193 -9.3287 -2.5064 0.9527
-6.9811 -9.5857 -2.5066 0.9527
-5.5421 -10.4874 -2.5073 0.9527
-5.1632 -10.6798 -2.5075 0.9527
-4.7777 -10.8585 -2.5076 0.9527
-4.3859 -11.0233 -2.5078 0.9527
-3.5859 -11.3101 -2.5080 0.9526
-1.9342 -11.7081 -2.5084 0.9526
-1.0911 -11.8171 -2.5085 0.9526
-0.6672 -11.8488 -2.5086 0.9526
-0.2423 -11.8653 -2.5086 0.9526
1.0319 -11.8231 -2.5087 0.9526
1.8757 -11.7189 -2.5087 0.9526
-8.5497 6.2992 -2.4959 0.9573
-8.7705 5.9894 -2.4961 0.9573
-8.9801 5.6719 -2.4963 0.9573
-9.1783 5.3470 -2.4965 0.9573
-9.3647 5.0153 -2.4967 0.9573
-10.1129 3.2680 -2.4978 0.9573
-10.3229 2.5361 -2.4983 0.9573
-10.4081 2.1649 -2.4985 0.9573
-10.4800 1.7909 -2.4988 0.9573
-10.5385 1.4145 -2.4990 0.9572
-10.5834 1.0362 -2.4992 0.9572
-10.6148 0.6565 -2.4995 0.9572
-10.6041 -0.8664 -2.5005 0.9572
-10.4532 -1.9996 -2.5013 0.9572
-9.9347 -3.8320 -2.5026 0.9572
-9.7920 -4.1858 -2.5028 0.9572
-9.2892 -5.2135 -2.5035 0.9572
-8.8938 -5.8663 -2.5040 0.9572
-8.6788 -6.1816 -2.5042 0.9572
-8.2154 -6.7883 -2.5047 0.9572
-7.4417 -7.6322 -2.5053 0.9571
-7.1641 -7.8945 -2.5055 0.9571
-5.9649 -8.8392 -2.5062 0.9571
-5.3175 -9.2447 -2.5065 0.9571
-4.9832 -9.4298 -2.5066 0.9571
-4.6425 -9.6028 -2.5068 0.9571
-3.9436 -9.9115 -2.5070 0.9571
-3.5862 -10.0469 -2.5072 0.9571
-3.2242 -10.1693 -2.5073 0.9571
-2.1150 -10.4576 -2.5075 0.9571
-1.7391 -10.5270 -2.5076 0.9571
-0.9810 -10.6250 -2.5077 0.9571
-0.2179 -10.6683 -2.5078 0.9571
0.9278 -10.6304 -2.5079 0.9571
1.3079 -10.5903 -2.5079 0.9571
1.6864 -10.5366 -2.5079 0.9571
-7.7620 5.7189 -2.4963 0.9609
-8.1527 5.1493 -2.4967 0.9609
-8.3325 4.8543 -2.4969 0.9609
-8.8072 3.9334 -2.4974 0.9609
-8.9432 3.6157 -2.4976 0.9609
-9.0677 3.2933 -2.4978 0.9609
-9.1806 2.9667 -2.4981 0.9609
-9.3711 2.3022 -2.4985 0.9609
-9.4483 1.9653 -2.4987 0.9609
-9.5135 1.6258 -2.4989 0.9609
-9.5665 1.2840 -2.4992 0.9609
-9.6357 0.5960 -2.4996 0.9609
-9.6554 -0.0954 -2.5001 0.9609
-9.6256 -0.7865 -2.5005 0.9609
-9.5463 -1.4739 -2.5010 0.9609
-9.2414 -2.8231 -2.5019 0.9609
-9.1352 -3.1526 -2.5022 0.9609
-9.0172 -3.4781 -2.5024 0.9609
-8.8877 -3.7992 -2.5026 0.9608
-8.7467 -4.1155 -2.5028 0.9608
-7.6714 -5.8894 -2.5041 0.9608
-7.4561 -6.1609 -2.5043 0.9608
-6.5018 -7.1647 -2.5050 0.9608
-6.2414 -7.3935 -2.5052 0.9608
-5.4133 -8.0218 -2.5057 0.9608
-5.1228 -8.2111 -2.5058 0.9608
-4.8257 -8.3898 -2.5060 0.9608
-4.2131 -8.7146 -2.5062 0.9608
-2.9259 -9.2286 -2.5067 0.9608
-2.2579 -9.4150 -2.5068 0.9608
-1.9193 -9.4901 -2.5069 0.9608
-1.5782 -9.5530 -2.5070 0.9608
-0.8903 -9.6419 -2.5071 0.9608
-0.5443 -9.6678 -2.5071 0.9608
0.1492 -9.6822 -2.5072 0.9608
1.1869 -9.6104 -2.5072 0.9608
1.5304 -9.5617 -2.5072 0.9608
-7.4575 4.7102 -2.4970 0.9640
-7.9214 3.8838 -2.4975 0.9640
-8.1803 3.3073 -2.4979 0.9640
-8.2942 3.0124 -2.4981 0.9640
-8.3974 2.7136 -2.4983 0.9640
-8.5715 2.1058 -2.4987 0.9640
-8.6421 1.7976 -2.4989 0.9640
-8.8131 0.5451 -2.4997 0.9640
-8.8277 0.2291 -2.4999 0.9640
-8.8310 -0.0872 -2.5001 0.9640
-8.7730 -1.0343 -2.5008 0.9639
-8.4519 -2.5819 -2.5018 0.9639
-8.2467 -3.1809 -2.5022 0.9639
-8.1282 -3.4746 -2.5024 0.9639
-7.9992 -3.7637 -2.5026 0.9639
-7.8598 -4.0482 -2.5028 0.9639
-7.7104 -4.3274 -2.5030 0.9639
-7.5510 -4.6012 -2.5032 0.9639
-7.2034 -5.1307 -2.5036 0.9639
-7.0155 -5.3858 -2.5038 0.9639
-6.8186 -5.6341 -2.5040 0.9639
-6.3986 -6.1086 -2.5043 0.9639
-6.1761 -6.3343 -2.5045 0.9639
-5.7075 -6.7611 -2.5048 0.9639
-4.1354 -7.8254 -2.5056 0.9639
-3.8526 -7.9689 -2.5057 0.9639
-3.5649 -8.1022 -2.5059 0.9639
-3.2725 -8.2250 -2.5060 0.9639
-2.9759 -8.3372 -2.5061 0.9639
-1.7550 -8.6779 -2.5064 0.9639
-0.8141 -8.8166 -2.5065 0.9639
-0.4977 -8.8403 -2.5066 0.9639
-0.1808 -8.8525 -2.5066 0.9639
0.1364 -8.8534 -2.5066 0.9639
0.4534 -8.8429 -2.5066 0.9639
0.7699 -8.8210 -2.5066 0.9639
1.3994 -8.7432 -2.5066 0.9639
-7.0160 4.0873 -2.4975 0.9666
-7.1583 3.8337 -2.4976 0.9666
-7.2915 3.5750 -2.4978 0.9666
-7.5298 3.0443 -2.4981 0.9666
-7.6345 2.7728 -2.4983 0.9666
-7.7295 2.4978 -2.4985 0.9666
-7.8146 2.2195 -2.4987 0.9666
-8.0093 1.3687 -2.4992 0.9666
-8.0538 1.0810 -2.4994 0.9666
-8.0880 0.7919 -2.4996 0.9666
-8.1118 0.5017 -2.4998 0.9666
-8.1252 0.2109 -2.5000 0.9666
-8.1207 -0.3714 -2.5004 0.9666
-8.0745 -0.9520 -2.5008 0.9665
-8.0359 -1.2407 -2.5010 0.9665
-7.9869 -1.5278 -2.5011 0.9665
-7.6892 -2.6536 -2.5019 0.9665
-7.5898 -2.9275 -2.5021 0.9665
-7.3619 -3.4639 -2.5025 0.9665
-7.2336 -3.7256 -2.5027 0.9665
-6.9494 -4.2346 -2.5030 0.9665
-6.4564 -4.9566 -2.5036 0.9665
-6.2751 -5.1850 -2.5037 0.9665
-6.0858 -5.4068 -2.5039 0.9665
-5.8885 -5.6217 -2.5040 0.9665
-5.2525 -6.2220 -2.5045 0.9665
-5.0265 -6.4065 -2.5046 0.9665
-4.0609 -7.0601 -2.5051 0.9665
-3.8056 -7.2014 -2.5052 0.9665
-3.2806 -7.4559 -2.5054 0.9665
-2.4621 -7.7656 -2.5057 0.9665
-1.9000 -7.9224 -2.5059 0.9665
-1.0392 -8.0811 -2.5060 0.9665
-0.7491 -8.1132 -2.5061 0.9665
-0.4580 -8.1350 -2.5061 0.9665
0.1255 -8.1471 -2.5061 0.9665
0.7085 -8.1173 -2.5062 0.9665
0.9987 -8.0866 -2.5062 0.9665
1.2877 -8.0457 -2.5062 0.9665
-6.0484 4.4563 -2.4973 0.9688
-6.2044 4.2371 -2.4974 0.9688
-6.3526 4.0123 -2.4976 0.9688
-6.8621 3.0647 -2.4982 0.9688
-6.9679 2.8171 -2.4983 0.9688
-7.4114 1.2665 -2.4993 0.9688
-7.4526 1.0003 -2.4995 0.9688
-7.5061 0.4643 -2.4998 0.9688
-7.5185 0.1951 -2.5000 0.9688
-7.5142 -0.3437 -2.5004 0.9688
-7.4714 -0.8809 -2.5008 0.9688
-7.4356 -1.1480 -2.5009 0.9688
-7.3355 -1.6776 -2.5013 0.9688
-7.1975 -2.1988 -2.5017 0.9688
-6.4299 -3.9180 -2.5029 0.9688
-6.1337 -4.3688 -2.5032 0.9688
-5.9736 -4.5860 -2.5033 0.9688
-5.8059 -4.7973 -2.5035 0.9688
-5.6307 -5.0025 -2.5036 0.9688
-5.4482 -5.2013 -2.5038 0.9687
-4.8596 -5.7566 -2.5042 0.9687
-4.6506 -5.9273 -2.5043 0.9687
-4.4355 -6.0904 -2.5045 0.9687
-4.2147 -6.2456 -2.5046 0.9687
-3.9885 -6.3929 -2.5047 0.9687
-3.5209 -6.6626 -2.5049 0.9687
-3.0351 -6.8981 -2.5051 0.9687
-2.0191 -7.2617 -2.5054 0.9687
-1.7578 -7.3296 -2.5055 0.9687
-1.2286 -7.4369 -2.5056 0.9687
-0.4238 -7.5262 -2.5057 0.9687
-0.1539 -7.5366 -2.5057 0.9687
0.1161 -7.5374 -2.5057 0.9687
0.3860 -7.5284 -2.5058 0.9687
0.6554 -7.5097 -2.5058 0.9687
1.1914 -7.4435 -2.5058 0.9687
-6.0355 3.5162 -2.4979 0.9708
-6.2725 3.0754 -2.4982 0.9708
-6.4773 2.6188 -2.4985 0.9708
-6.5673 2.3852 -2.4986 0.9708
-6.7866 1.6673 -2.4991 0.9707
-6.8894 1.1773 -2.4994 0.9707
-6.9773 0.4316 -2.4999 0.9707
-6.9912 -0.0690 -2.5002 0.9707
-6.9848 -0.3195 -2.5004 0.9707
-6.8184 -1.5594 -2.5013 0.9707
-6.7586 -1.8027 -2.5014 0.9707
-6.6901 -2.0437 -2.5016 0.9707
-6.6131 -2.2822 -2.5017 0.9707
-6.5275 -2.5178 -2.5019 0.9707
-6.4336 -2.7501 -2.5021 0.9707
-6.1026 -3.4250 -2.5026 0.9707
-5.9764 -3.6417 -2.5027 0.9707
-5.8425 -3.8536 -2.5029 0.9707
-5.7010 -4.0607 -2.5030 0.9707
-5.2334 -4.6496 -2.5034 0.9707
-4.7052 -5.1850 -2.5038 0.9707
-4.5167 -5.3504 -2.5040 0.9707
-4.3224 -5.5090 -2.5041 0.9707
-3.9173 -5.8049 -2.5043 0.9707
-3.0486 -6.3058 -2.5047 0.9707
-2.8208 -6.4112 -2.5048 0.9707
-2.5895 -6.5083 -2.5049 0.9707
-2.3548 -6.5971 -2.5049 0.9707
-2.1171 -6.6773 -2.5050 0.9707
-1.8766 -6.7491 -2.5051 0.9707
-1.6337 -6.8121 -2.5051 0.9707
-1.3887 -6.8664 -2.5052 0.9707
-1.1418 -6.9119 -2.5052 0.9707
-0.8936 -6.9485 -2.5053 0.9707
-0.6441 -6.9761 -2.5053 0.9707
-0.3938 -6.9948 -2.5053 0.9707
1.1073 -6.9180 -2.5054 0.9707
-5.1053 4.0514 -2.4976 0.9725
-5.2473 3.8661 -2.4977 0.9725
-5.3827 3.6758 -2.4978 0.9725
-5.6326 3.2814 -2.4981 0.9725
-5.8537 2.8700 -2.4984 0.9725
-6.2049 2.0051 -2.4989 0.9725
-6.4292 1.0987 -2.4995 0.9724
-6.4648 0.8677 -2.4997 0.9724
-6.4921 0.6356 -2.4998 0.9724
-6.5112 0.4027 -2.5000 0.9724
-6.5241 -0.0644 -2.5003 0.9724
-6.4808 -0.7641 -2.5007 0.9724
-6.4496 -0.9957 -2.5009 0.9724
-6.4102 -1.2262 -2.5011 0.9724
-6.3626 -1.4551 -2.5012 0.9724
-6.2428 -1.9071 -2.5015 0.9724
-6.1709 -2.1296 -2.5017 0.9724
-6.0911 -2.3494 -2.5018 0.9724
-5.9080 -2.7798 -2.5021 0.9724
-5.8050 -2.9898 -2.5023 0.9724
-5.6945 -3.1960 -2.5024 0.9724
-5.3197 -3.7890 -2.5028 0.9724
-5.0353 -4.1606 -2.5031 0.9724
-4.7250 -4.5109 -2.5034 0.9724
-4.5606 -4.6775 -2.5035 0.9724
-4.0331 -5.1404 -2.5038 0.9724
-3.0533 -5.7779 -2.5043 0.9724
-2.8445 -5.8837 -2.5044 0.9724
-2.6320 -5.9821 -2.5045 0.9724
-2.4162 -6.0727 -2.5046 0.9724
-1.9753 -6.2304 -2.5047 0.9724
-1.2957 -6.4068 -2.5049 0.9724
-1.0654 -6.4492 -2.5049 0.9724
-0.8337 -6.4833 -2.5050 0.9724
-0.3675 -6.5265 -2.5050 0.9724
-0.1335 -6.5356 -2.5051 0.9724
0.8013 -6.4877 -2.5051 0.9724
-5.1606 3.2595 -2.4981 0.9740
-5.2743 3.0727 -2.4983 0.9740
-5.3813 2.8819 -2.4984 0.9740
-5.4813 2.6875 -2.4985 0.9740
-5.7389 2.0843 -2.4989 0.9740
-5.9790 1.2437 -2.4994 0.9740
-6.0200 1.0287 -2.4996 0.9739
-6.0534 0.8125 -2.4997 0.9739
-6.0789 0.5952 -2.4999 0.9739
-6.1031 -0.2792 -2.5004 0.9739
-6.0681 -0.7154 -2.5007 0.9739
-6.0390 -0.9323 -2.5009 0.9739
-6.0021 -1.1481 -2.5010 0.9739
-5.9052 -1.5751 -2.5013 0.9739
-5.2214 -3.1816 -2.5024 0.9739
-5.1043 -3.3668 -2.5026 0.9739
-4.9807 -3.5476 -2.5027 0.9739
-4.5721 -4.0621 -2.5031 0.9739
-4.1106 -4.5297 -2.5034 0.9739
-3.9459 -4.6742 -2.5035 0.9739
-3.7761 -4.8128 -2.5036 0.9739
-3.4221 -5.0711 -2.5038 0.9739
-3.2384 -5.1906 -2.5039 0.9739
-2.8587 -5.4095 -2.5041 0.9739
-2.6632 -5.5086 -2.5042 0.9739
-2.2621 -5.6855 -2.5043 0.9739
-1.6393 -5.8957 -2.5045 0.9739
-1.4271 -5.9508 -2.5046 0.9739
-1.2131 -5.9982 -2.5046 0.9739
-0.9975 -6.0379 -2.5047 0.9739
-0.7806 -6.0699 -2.5047 0.9739
-0.3440 -6.1103 -2.5048 0.9739
-0.1250 -6.1188 -2.5048 0.9739
0.3134 -6.1121 -2.5048 0.9739
0.5321 -6.0970 -2.5048 0.9739
0.7502 -6.0740 -2.5048 0.9739
-4.4898 3.5629 -2.4980 0.9753
-4.8467 3.0612 -2.4983 0.9753
-4.9534 2.8857 -2.4984 0.9753
-5.0538 2.7066 -2.4985 0.9753
-5.1478 2.5239 -2.4986 0.9753
-5.2351 2.3381 -2.4988 0.9753
-5.3896 1.9574 -2.4990 0.9753
-5.5164 1.5668 -2.4993 0.9753
-5.5693 1.3682 -2.4994 0.9753
-5.6848 0.7630 -2.4998 0.9753
-5.7255 0.3541 -2.5000 0.9753
-5.7348 0.1488 -2.5002 0.9753
-5.7314 -0.2621 -2.5005 0.9753
-5.7187 -0.4673 -2.5006 0.9753
-5.6365 -1.0782 -2.5010 0.9753
-5.5946 -1.2795 -2.5012 0.9753
-5.5454 -1.4791 -2.5013 0.9753
-5.4892 -1.6769 -2.5014 0.9753
-5.3556 -2.0658 -2.5017 0.9753
-5.1946 -2.4441 -2.5020 0.9753
-5.0068 -2.8101 -2.5022 0.9753
-4.9032 -2.9877 -2.5023 0.9753
-4.7932 -3.1616 -2.5025 0.9753
-4.6771 -3.3314 -2.5026 0.9753
-4.5550 -3.4970 -2.5027 0.9753
-4.2934 -3.8144 -2.5029 0.9753
-4.1542 -3.9659 -2.5030 0.9753
-3.8600 -4.2536 -2.5033 0.9752
-3.5458 -4.5193 -2.5035 0.9752
-3.3818 -4.6436 -2.5036 0.9752
-3.0409 -4.8741 -2.5037 0.9752
-2.8645 -4.9801 -2.5038 0.9752
-2.3140 -5.2591 -2.5040 0.9752
-2.1242 -5.3388 -2.5041 0.9752
-1.7366 -5.4774 -2.5042 0.9752
-1.5393 -5.5362 -2.5043 0.9752
-0.9366 -5.6696 -2.5044 0.9752
-0.7330 -5.6996 -2.5045 0.9752
-0.5284 -5.7223 -2.5045 0.9752
-0.1173 -5.7456 -2.5045 0.9752
0.2943 -5.7393 -2.5045 0.9752
0.4997 -5.7251 -2.5046 0.9752
0.7044 -5.7035 -2.5046 0.9752
0.9082 -5.6746 -2.5045 0.9752
-4.2275 3.3548 -2.4981 0.9765
-4.4571 3.0438 -2.4983 0.9765
-4.6640 2.7171 -2.4985 0.9765
-4.9292 2.2014 -2.4989 0.9765
-5.0051 2.0236 -2.4990 0.9765
-5.0746 1.8430 -2.4991 0.9765
-5.1376 1.6602 -2.4992 0.9765
-5.3996 0.1401 -2.5002 0.9765
-5.3963 -0.2468 -2.5005 0.9765
-5.3068 -1.0151 -2.5010 0.9765
-5.1085 -1.7630 -2.5015 0.9765
-5.0424 -1.9449 -2.5016 0.9765
-4.8907 -2.3012 -2.5019 0.9765
-4.7138 -2.6456 -2.5021 0.9765
-4.5128 -2.9766 -2.5024 0.9765
-4.4035 -3.1365 -2.5025 0.9765
-4.2885 -3.2923 -2.5026 0.9765
-4.0421 -3.5912 -2.5028 0.9764
-3.3383 -4.2548 -2.5033 0.9764
-3.1839 -4.3718 -2.5034 0.9764
-3.0253 -4.4831 -2.5035 0.9764
-2.8629 -4.5887 -2.5036 0.9764
-2.5272 -4.7823 -2.5037 0.9764
-2.1785 -4.9512 -2.5038 0.9764
-1.9998 -5.0262 -2.5039 0.9764
-1.6349 -5.1567 -2.5040 0.9764
-0.8818 -5.3377 -2.5042 0.9764
-0.6900 -5.3659 -2.5042 0.9764
-0.3041 -5.4016 -2.5043 0.9764
0.2771 -5.4032 -2.5043 0.9764
0.4704 -5.3898 -2.5043 0.9764
-3.9895 3.1660 -2.4983 0.9776
-4.4906 2.4049 -2.4988 0.9776
-4.6517 2.0775 -2.4990 0.9776
-4.7233 1.9096 -2.4991 0.9776
-4.7889 1.7393 -2.4992 0.9776
-4.9891 1.0377 -2.4996 0.9776
-5.0233 0.8584 -2.4998 0.9776
-5.0510 0.6779 -2.4999 0.9776
-5.0871 0.3146 -2.5001 0.9775
-5.0971 -0.0504 -2.5004 0.9775
-5.0386 -0.7779 -2.5009 0.9775
-5.0078 -0.9579 -2.5010 0.9775
-4.9268 -1.3141 -2.5012 0.9775
-4.8206 -1.6637 -2.5015 0.9775
-4.7581 -1.8353 -2.5016 0.9775
-4.6896 -2.0046 -2.5017 0.9775
-4.6150 -2.1715 -2.5018 0.9775
-4.4481 -2.4965 -2.5020 0.9775
-4.3560 -2.6543 -2.5022 0.9775
-4.2583 -2.8087 -2.5023 0.9775
-4.0467 -3.1067 -2.5025 0.9775
-3.8142 -3.3887 -2.5027 0.9775
-3.5621 -3.6533 -2.5029 0.9775
-3.4291 -3.7787 -2.5030 0.9775
-3.2917 -3.8993 -2.5031 0.9775
-3.1500 -4.0148 -2.5032 0.9775
-3.0043 -4.1252 -2.5032 0.9775
-2.8547 -4.2303 -2.5033 0.9775
-2.0556 -4.6719 -2.5037 0.9775
-1.8870 -4.7426 -2.5037 0.9775
-1.3674 -4.9180 -2.5039 0.9775
-1.0119 -5.0034 -2.5040 0.9775
-0.4693 -5.0832 -2.5041 0.9775
-0.2870 -5.0968 -2.5041 0.9775
-0.1042 -5.1039 -2.5041 0.9775
0.0786 -5.1044 -2.5041 0.9775
0.4439 -5.0857 -2.5041 0.9775
-3.8774 2.8567 -2.4985 0.9785
-3.9773 2.7162 -2.4986 0.9785
-4.0722 2.5720 -2.4987 0.9785
-4.4662 1.8056 -2.4992 0.9785
-4.5844 1.4814 -2.4994 0.9785
-4.6347 1.3163 -2.4995 0.9785
-4.6791 1.1496 -2.4996 0.9785
-4.8179 0.1250 -2.5003 0.9785
-4.8195 -0.0476 -2.5004 0.9785
-4.7873 -0.5644 -2.5007 0.9785
-4.6112 -1.4087 -2.5013 0.9785
-4.2873 -2.2082 -2.5019 0.9785
-3.9287 -2.7983 -2.5023 0.9785
-3.7186 -3.0726 -2.5025 0.9785
-3.4894 -3.3312 -2.5027 0.9785
-3.2421 -3.5727 -2.5029 0.9785
-3.1122 -3.6867 -2.5029 0.9785
-2.9783 -3.7959 -2.5030 0.9785
-2.5541 -4.0939 -2.5032 0.9785
-2.4059 -4.1828 -2.5033 0.9785
-2.1004 -4.3446 -2.5034 0.9785
-1.9435 -4.4171 -2.5035 0.9785
-1.6224 -4.5451 -2.5036 0.9785
-0.7867 -4.7619 -2.5038 0.9785
-0.6156 -4.7870 -2.5038 0.9785
-0.2713 -4.8189 -2.5039 0.9785
-0.0985 -4.8256 -2.5039 0.9785
0.2472 -4.8203 -2.5039 0.9785
0.5916 -4.7902 -2.5039 0.9785
0.7628 -4.7659 -2.5039 0.9785
-3.8573 2.4363 -2.4988 0.9794
-3.9423 2.2966 -2.4989 0.9794
-4.0221 2.1540 -2.4990 0.9794
-4.0969 2.0087 -2.4991 0.9794
-4.3424 1.4032 -2.4994 0.9794
-4.4321 1.0888 -2.4996 0.9794
-4.4684 0.9294 -2.4998 0.9794
-4.4990 0.7688 -2.4999 0.9794
-4.5239 0.6072 -2.5000 0.9794
-4.5635 0.1184 -2.5003 0.9794
-4.5650 -0.0451 -2.5004 0.9794
-4.5607 -0.2086 -2.5005 0.9794
-4.4849 -0.8579 -2.5009 0.9794
-4.4515 -1.0181 -2.5011 0.9794
-4.3676 -1.3343 -2.5013 0.9794
-4.3172 -1.4899 -2.5014 0.9794
-4.2613 -1.6436 -2.5015 0.9794
-4.0608 -2.0915 -2.5018 0.9794
-3.9010 -2.3771 -2.5020 0.9794
-3.8135 -2.5154 -2.5021 0.9794
-3.7211 -2.6504 -2.5022 0.9794
-3.5221 -2.9103 -2.5024 0.9794
-3.4157 -3.0347 -2.5025 0.9794
-3.3049 -3.1552 -2.5026 0.9794
-3.0708 -3.3839 -2.5027 0.9794
-2.8208 -3.5953 -2.5029 0.9794
-2.6903 -3.6941 -2.5030 0.9794
-2.5564 -3.7882 -2.5030 0.9794
-2.4191 -3.8775 -2.5031 0.9794
-1.5366 -4.3048 -2.5035 0.9794
-1.3814 -4.3572 -2.5035 0.9794
-1.2245 -4.4040 -2.5035 0.9794
-1.0660 -4.4450 -2.5036 0.9794
-0.7451 -4.5101 -2.5037 0.9794
-0.4203 -4.5519 -2.5037 0.9794
-0.2570 -4.5641 -2.5037 0.9794
-0.0933 -4.5704 -2.5037 0.9794
0.2341 -4.5654 -2.5038 0.9794
0.5603 -4.5370 -2.5038 0.9794
-3.3900 2.6902 -2.4986 0.9802
-3.5741 2.4408 -2.4988 0.9802
-3.8157 2.0435 -2.4991 0.9802
-4.0690 1.4778 -2.4994 0.9802
-4.1195 1.3312 -2.4995 0.9802
-4.1647 1.1828 -2.4996 0.9802
-4.2916 0.5760 -2.5000 0.9802
-4.3222 0.2673 -2.5002 0.9802
-4.3292 0.1123 -2.5003 0.9802
-4.3306 -0.0428 -2.5004 0.9802
-4.3265 -0.1979 -2.5005 0.9802
-4.3016 -0.5071 -2.5007 0.9802
-4.2808 -0.6609 -2.5008 0.9802
-4.0424 -1.5592 -2.5014 0.9802
-3.9841 -1.7031 -2.5015 0.9802
-3.6176 -2.3862 -2.5020 0.9802
-3.2402 -2.8787 -2.5024 0.9802
-3.0260 -3.1035 -2.5026 0.9802
-2.7962 -3.3124 -2.5027 0.9802
-2.6759 -3.4105 -2.5028 0.9802
-1.8871 -3.9034 -2.5032 0.9802
-1.7461 -3.9686 -2.5032 0.9802
-1.6029 -4.0286 -2.5033 0.9802
-1.1616 -4.1776 -2.5034 0.9802
-1.0112 -4.2166 -2.5034 0.9802
-0.8595 -4.2501 -2.5035 0.9802
0.2221 -4.3307 -2.5036 0.9802
0.3770 -4.3200 -2.5036 0.9802
0.5315 -4.3037 -2.5036 0.9802
0.6853 -4.2819 -2.5036 0.9802
