ply
format ascii 1.0
element vertex 1086
property float32 x
property float32 y
property float32 z
property float32 I
end_header
35.7588 9.7092 6.5335 0.8603
30.9159 14.7546 6.0403 0.8701
37.3623 19.5137 7.4324 0.8426
35.7337 23.8951 7.5798 0.8398
35.8228 11.1267 5.7465 0.8592
35.3927 12.4078 5.7455 0.8592
35.4416 15.3725 5.9182 0.8553
37.3269 17.8142 6.3361 0.8459
35.5446 20.2264 6.2651 0.8475
35.2049 21.7482 6.3393 0.8458
29.8760 -18.8810 4.6023 0.8671
33.1324 -17.7379 4.8939 0.8593
35.8583 -14.4656 5.0351 0.8556
37.1605 10.0897 5.0143 0.8561
37.1907 11.5516 5.0712 0.8546
35.4168 12.4163 4.8872 0.8595
35.4102 13.8656 4.9521 0.8578
35.4424 15.3728 5.0308 0.8557
37.3641 19.5146 5.4892 0.8436
35.5454 20.2269 5.3257 0.8479
35.6961 22.0517 5.4638 0.8443
35.7355 23.8962 5.5981 0.8408
28.2284 -40.3157 5.2849 0.8204
31.8341 -29.2875 4.6450 0.8403
31.1848 -26.6812 4.4071 0.8478
31.2246 -24.8241 4.2835 0.8517
31.2982 -21.3954 4.0711 0.8585
33.2882 -16.3067 3.9804 0.8615
34.9882 -15.6027 4.1137 0.8572
35.7547 9.7080 3.9784 0.8615
35.3797 12.4033 4.0258 0.8600
35.4109 13.8659 4.0836 0.8581
30.9581 14.7747 3.6835 0.8711
35.5462 20.2273 4.3917 0.8483
28.2198 -40.3034 4.1650 0.8208
33.2818 -30.6194 3.8284 0.8340
31.3015 -26.7810 3.4872 0.8476
31.2894 -24.8756 3.3838 0.8517
31.4152 -21.4754 3.2214 0.8583
31.4496 -19.8754 3.1494 0.8613
32.3963 -18.8759 3.1740 0.8603
33.1339 -17.7387 3.1815 0.8600
33.2890 -16.3070 3.1380 0.8617
35.7534 9.7077 3.1362 0.8618
35.4117 13.8662 3.2193 0.8584
35.4439 15.3735 3.2705 0.8563
30.9458 14.7688 2.9027 0.8714
37.3657 19.5155 3.5685 0.8443
35.1989 23.5374 3.5845 0.8437
28.2113 -40.2913 3.0500 0.8211
33.3984 -30.7267 2.8142 0.8337
31.3022 -26.7817 2.5546 0.8478
31.2902 -24.8762 2.4788 0.8520
31.2897 -23.0863 2.4113 0.8557
31.4160 -21.4759 2.3598 0.8585
32.3970 -18.8763 2.3251 0.8605
33.1346 -17.7391 2.3306 0.8602
33.1975 -14.8041 2.2540 0.8644
35.4137 12.4152 2.3271 0.8604
35.4124 13.8665 2.3583 0.8586
35.4447 15.3738 2.3958 0.8566
35.6986 22.0532 2.6020 0.8452
35.7380 23.8980 2.6660 0.8417
28.2028 -40.2791 1.9389 0.8213
31.7696 -33.7639 1.8281 0.8306
31.8244 -31.4694 1.7648 0.8360
33.2835 -30.6210 1.7833 0.8344
31.1872 -26.6832 1.6184 0.8485
31.2909 -24.8768 1.5762 0.8521
29.8406 -22.0171 1.4623 0.8620
32.2727 -18.8038 1.4728 0.8611
34.8390 -14.0544 1.4813 0.8604
35.7508 9.7070 1.4607 0.8622
35.3819 12.4041 1.4784 0.8606
35.4454 15.3741 1.5235 0.8567
30.9386 14.7654 1.3518 0.8718
35.1617 21.7215 1.6297 0.8475
31.8195 -31.4645 0.7559 0.8361
29.7671 -25.4682 0.6617 0.8549
29.8410 -22.0174 0.6264 0.8621
29.9077 -18.9010 0.5976 0.8680
35.3522 10.9805 0.6253 0.8624
35.4139 13.8671 0.6424 0.8589
35.4462 15.3745 0.6526 0.8568
30.9350 14.7637 0.5790 0.8719
35.5495 20.2292 0.6909 0.8491
35.6270 23.8237 0.7240 0.8424
28.1968 -40.2705 -0.2768 0.8215
31.7244 -36.2481 -0.2712 0.8247
31.7743 -33.7690 -0.2611 0.8307
29.7755 -25.4754 -0.2206 0.8549
29.8058 -23.6961 -0.2144 0.8587
29.8417 -22.0180 -0.2088 0.8621
29.8759 -20.4231 -0.2038 0.8652
29.9084 -18.9014 -0.1992 0.8680
32.3991 -18.8775 -0.2111 0.8607
33.2918 -16.3084 -0.2087 0.8622
33.1996 -14.8051 -0.2047 0.8647
34.9910 -14.1157 -0.2124 0.8599
39.0114 -14.1259 -0.2336 0.8471
33.9210 9.2101 -0.1979 0.8688
31.3187 12.2635 -0.1894 0.8741
31.3105 13.5806 -0.1922 0.8724
31.2842 17.8021 -0.2027 0.8659
31.2747 19.3204 -0.2070 0.8633
28.1947 -40.2675 -1.3842 0.8214
31.7253 -36.2491 -1.3564 0.8247
31.7752 -33.7699 -1.3056 0.8306
31.8212 -31.4662 -1.2601 0.8360
29.7763 -25.4761 -1.1034 0.8549
29.8066 -23.6967 -1.0722 0.8587
29.8425 -22.0185 -1.0443 0.8621
32.3998 -18.8779 -1.0559 0.8607
33.2925 -16.3088 -1.0439 0.8621
33.2003 -14.8054 -1.0236 0.8646
33.9197 9.2098 -0.9897 0.8688
31.3351 9.7328 -0.9239 0.8770
31.3273 10.9826 -0.9347 0.8756
31.3193 12.2637 -0.9471 0.8741
31.3111 13.5809 -0.9610 0.8723
30.4681 14.5409 -0.9507 0.8736
31.2940 16.3443 -0.9941 0.8682
31.2849 17.8025 -1.0136 0.8659
31.2754 19.3208 -1.0351 0.8632
31.2652 20.9070 -1.0591 0.8603
28.0877 -40.1147 -2.4835 0.8219
31.7200 -36.2430 -2.4426 0.8246
29.7292 -27.3510 -2.0487 0.8506
29.8996 -20.4393 -1.8368 0.8650
29.9098 -18.9023 -1.7944 0.8679
32.2754 -18.8054 -1.8944 0.8610
33.1702 -16.2489 -1.8732 0.8625
33.2010 -14.8057 -1.8436 0.8645
38.4425 -13.9199 -2.0735 0.8490
38.4488 -12.3748 -2.0484 0.8506
41.0349 -8.4586 -2.1248 0.8455
41.2876 -6.9706 -2.1235 0.8456
41.5059 -5.4780 -2.1232 0.8456
41.6898 -3.9805 -2.1239 0.8456
41.8393 -2.4781 -2.1256 0.8455
41.9542 -0.9705 -2.1282 0.8453
42.0345 0.5426 -2.1319 0.8450
42.0629 3.5826 -2.1409 0.8444
42.0051 5.1076 -2.1459 0.8441
39.7272 6.2902 -2.0398 0.8512
39.6308 7.7478 -2.0479 0.8507
39.0555 9.1073 -2.0338 0.8516
31.3199 12.2640 -1.7058 0.8740
31.3118 13.5812 -1.7309 0.8722
31.2946 16.3446 -1.7905 0.8681
31.2856 17.8029 -1.8255 0.8657
-24.2133 -25.5600 -2.5815 0.8683
-22.7004 -27.7135 -2.6267 0.8662
-20.9762 -29.7441 -2.6687 0.8642
-20.0374 -30.7046 -2.6883 0.8633
-15.8073 -34.1006 -2.7559 0.8601
-14.6417 -34.8218 -2.7697 0.8594
-10.9290 -36.6318 -2.8029 0.8579
-9.6300 -37.1088 -2.8110 0.8575
-6.9618 -37.8614 -2.8226 0.8569
-5.6001 -38.1338 -2.8260 0.8568
-2.8419 -38.4654 -2.8281 0.8567
1.3202 -38.4238 -2.8190 0.8571
15.2708 -36.6634 -2.9121 0.8527
17.6180 -34.9666 -2.8709 0.8547
18.7205 -34.0442 -2.8487 0.8557
21.7465 -31.0583 -2.7800 0.8589
22.6612 -30.0031 -2.7569 0.8600
25.1454 -26.7239 -2.6905 0.8631
25.8931 -25.6042 -2.6700 0.8641
27.9296 -20.6071 -2.5449 0.8700
27.9730 -19.1222 -2.4845 0.8729
28.1636 -16.4096 -2.3900 0.8775
28.5880 -15.3050 -2.3776 0.8780
28.9727 -14.1926 -2.3655 0.8786
30.3006 -10.9717 -2.3629 0.8788
31.0387 -7.5740 -2.3426 0.8797
31.4105 -5.3030 -2.3357 0.8801
31.7291 -1.8792 -2.3305 0.8803
31.7794 0.4102 -2.3303 0.8803
31.6964 2.6997 -2.3325 0.8802
31.6048 3.8429 -2.3344 0.8801
30.2939 9.4094 -2.3259 0.8805
28.6821 13.6885 -2.3303 0.8803
28.3130 16.1113 -2.3885 0.8775
28.2771 17.4685 -2.4371 0.8752
-18.0732 -17.7515 -2.4321 0.9032
-17.4943 -18.4672 -2.4422 0.9028
-16.2459 -19.8337 -2.4614 0.9021
-15.5783 -20.4814 -2.4705 0.9018
-14.1822 -21.7323 -2.4914 0.9010
-13.4422 -22.3155 -2.5011 0.9006
-12.6757 -22.8686 -2.5102 0.9003
-10.2312 -24.3324 -2.5341 0.8994
-5.7687 -26.0569 -2.5622 0.8983
-3.8863 -26.4634 -2.5679 0.8981
-1.0095 -26.7531 -2.5703 0.8980
-0.0451 -26.7682 -2.5699 0.8980
1.8802 -26.6711 -2.5669 0.8981
3.7851 -26.3932 -2.5598 0.8984
5.0695 -28.1025 -2.7415 0.8916
10.7925 -25.9115 -2.6948 0.8933
11.6761 -25.4128 -2.6850 0.8937
12.5352 -24.8788 -2.6745 0.8941
13.3682 -24.3110 -2.6636 0.8945
14.9694 -23.1084 -2.6433 0.8953
15.7397 -22.4793 -2.6346 0.8956
16.4822 -21.8222 -2.6255 0.8959
17.1958 -21.1383 -2.6161 0.8963
19.7455 -18.1660 -2.5759 0.8978
21.7869 -14.8934 -2.5337 0.8994
22.2281 -14.0476 -2.5244 0.8997
23.1377 -12.3871 -2.5196 0.8999
24.2762 -9.7932 -2.5131 0.9002
24.5938 -8.9054 -2.5111 0.9002
25.5473 -5.2661 -2.5042 0.9005
25.7054 -4.3399 -2.5028 0.9005
25.9242 -2.4752 -2.5002 0.9006
25.9848 -1.5390 -2.4990 0.9007
25.9010 2.2061 -2.4956 0.9008
25.7995 3.1370 -2.4951 0.9008
25.2582 5.8899 -2.4900 0.9010
25.0130 6.7915 -2.4883 0.9011
24.7361 7.6832 -2.4867 0.9011
23.7488 10.3008 -2.4852 0.9012
23.3692 11.1530 -2.4860 0.9012
22.9593 11.9912 -2.4867 0.9011
22.5194 12.8145 -2.4875 0.9011
22.0501 13.6217 -2.4883 0.9011
-13.9034 -14.6767 -2.4015 0.9218
-11.7468 -16.6570 -2.4211 0.9212
-9.9329 -17.9203 -2.4338 0.9208
-8.6522 -18.6651 -2.4438 0.9205
-6.6227 -19.5923 -2.4567 0.9201
-5.2089 -20.0722 -2.4633 0.9199
-4.4873 -20.2689 -2.4660 0.9198
-3.0213 -20.5738 -2.4701 0.9196
-2.2796 -20.6812 -2.4715 0.9196
-0.7850 -20.8047 -2.4731 0.9196
-0.0351 -20.8206 -2.4732 0.9196
0.7149 -20.8057 -2.4729 0.9196
4.4125 -20.2540 -2.4623 0.9199
5.4930 -21.4643 -2.6318 0.9146
6.2569 -21.2331 -2.6294 0.9147
7.7450 -20.6622 -2.6211 0.9150
9.8685 -19.5861 -2.6052 0.9154
10.5435 -19.1741 -2.5992 0.9156
11.2005 -18.7367 -2.5930 0.9158
11.8383 -18.2749 -2.5865 0.9160
12.4561 -17.7898 -2.5797 0.9162
13.0531 -17.2821 -2.5726 0.9165
13.6284 -16.7530 -2.5653 0.9167
14.1814 -16.2035 -2.5578 0.9169
14.7112 -15.6347 -2.5501 0.9172
15.2177 -15.0480 -2.5422 0.9174
15.7238 -14.4659 -2.5380 0.9175
16.2307 -13.8867 -2.5373 0.9176
16.7161 -13.2896 -2.5367 0.9176
17.6099 -12.0381 -2.5339 0.9177
19.1044 -9.3585 -2.5270 0.9179
19.4159 -8.6583 -2.5253 0.9179
20.1953 -6.4998 -2.5201 0.9181
20.7367 -4.2745 -2.5150 0.9182
20.8633 -3.5224 -2.5133 0.9183
20.9629 -2.7667 -2.5117 0.9184
21.0353 -2.0084 -2.5101 0.9184
21.0804 -1.2485 -2.5084 0.9185
21.0983 -0.4881 -2.5068 0.9185
21.0890 0.2722 -2.5053 0.9186
21.0525 1.0310 -2.5037 0.9186
20.8986 2.5412 -2.5007 0.9187
20.7814 3.2904 -2.4993 0.9187
20.4676 4.7728 -2.4965 0.9188
20.2715 5.5041 -2.4952 0.9189
20.0496 6.2275 -2.4938 0.9189
19.5297 7.6473 -2.4914 0.9190
18.5757 9.7018 -2.4894 0.9190
18.2187 10.3673 -2.4900 0.9190
-11.0725 -12.5656 -2.3730 0.9346
-9.7317 -13.7994 -2.3925 0.9341
-8.7408 -14.5108 -2.4002 0.9339
-7.1547 -15.4347 -2.4105 0.9336
-6.6014 -15.7000 -2.4132 0.9335
-6.0378 -15.9441 -2.4157 0.9334
-4.8830 -16.3671 -2.4201 0.9333
-1.8768 -17.0272 -2.4272 0.9331
-1.2625 -17.0891 -2.4279 0.9331
-0.0288 -17.1414 -2.4288 0.9331
1.2054 -17.0982 -2.4286 0.9331
3.0357 -16.8282 -2.4229 0.9332
3.6367 -16.6932 -2.4207 0.9333
4.2315 -16.5350 -2.4183 0.9334
6.9738 -16.7433 -2.5699 0.9293
7.5613 -16.4570 -2.5661 0.9294
8.6986 -15.8190 -2.5579 0.9297
9.2468 -15.4685 -2.5535 0.9298
10.2999 -14.7103 -2.5444 0.9300
10.8048 -14.3054 -2.5401 0.9301
13.9912 -11.1232 -2.5326 0.9303
14.7489 -10.0823 -2.5314 0.9304
15.4249 -8.9873 -2.5295 0.9304
16.2765 -7.2583 -2.5251 0.9305
16.5180 -6.6635 -2.5237 0.9306
16.9355 -5.4507 -2.5208 0.9306
17.1112 -4.8343 -2.5194 0.9307
17.2644 -4.2124 -2.5179 0.9307
17.5033 -2.9551 -2.5151 0.9308
17.6909 -1.0478 -2.5110 0.9309
17.7017 0.2285 -2.5084 0.9310
17.6213 1.5009 -2.5058 0.9310
17.5470 2.1336 -2.5045 0.9311
17.4503 2.7630 -2.5033 0.9311
17.3312 3.3882 -2.5021 0.9311
17.1899 4.0085 -2.5010 0.9312
16.6352 5.8319 -2.4977 0.9313
16.4076 6.4248 -2.4966 0.9313
16.1590 7.0089 -2.4957 0.9313
14.6247 9.7796 -2.4928 0.9314
-10.1870 -10.0057 -2.3523 0.9438
-9.4439 -10.7173 -2.3532 0.9437
-6.9742 -12.5822 -2.3699 0.9433
-6.5329 -12.8579 -2.3759 0.9432
-6.0799 -13.1158 -2.3815 0.9431
-5.6155 -13.3553 -2.3867 0.9430
-5.1410 -13.5757 -2.3914 0.9428
-3.9833 -11.7839 -2.0492 0.9508
-3.6506 -14.0673 -2.3942 0.9428
-2.6329 -14.3185 -2.3984 0.9427
-2.1169 -14.4138 -2.4000 0.9427
-1.5970 -14.4884 -2.4013 0.9426
-1.0744 -14.5423 -2.4022 0.9426
-0.0246 -14.5875 -2.4031 0.9426
1.0257 -14.5490 -2.4027 0.9426
1.5486 -14.4984 -2.4020 0.9426
2.0690 -14.4270 -2.4010 0.9426
2.5879 -14.3460 -2.4015 0.9426
3.6032 -14.0798 -2.3943 0.9428
4.5967 -13.7512 -2.3886 0.9429
5.9400 -14.2612 -2.5450 0.9393
6.9358 -13.7655 -2.5393 0.9394
7.4179 -13.4899 -2.5361 0.9395
7.8897 -13.1982 -2.5331 0.9396
8.8178 -12.5935 -2.5326 0.9396
9.2646 -12.2662 -2.5323 0.9396
10.5296 -11.1905 -2.5313 0.9396
10.9242 -10.8023 -2.5309 0.9396
11.3043 -10.4000 -2.5305 0.9396
11.6696 -9.9843 -2.5300 0.9396
12.0194 -9.5556 -2.5296 0.9396
12.3534 -9.1147 -2.5291 0.9397
13.7714 -6.7461 -2.5263 0.9397
13.9986 -6.2425 -2.5250 0.9398
14.7211 -4.1591 -2.5201 0.9399
14.8541 -3.6243 -2.5188 0.9399
15.0620 -2.5429 -2.5164 0.9400
15.1917 -1.4505 -2.5140 0.9400
15.2270 -0.9019 -2.5129 0.9400
15.1714 1.2922 -2.5084 0.9401
15.1085 1.8371 -2.5073 0.9402
14.9247 2.9178 -2.5052 0.9402
14.6643 3.9816 -2.5032 0.9403
14.5058 4.5056 -2.5023 0.9403
14.3289 5.0234 -2.5014 0.9403
14.1336 5.5344 -2.5005 0.9403
13.9203 6.0378 -2.4996 0.9403
13.6892 6.5332 -2.4988 0.9404
13.1752 7.4972 -2.4973 0.9404
12.8928 7.9647 -2.4965 0.9404
12.5942 8.4217 -2.4959 0.9404
-9.1606 -9.6701 -2.5037 0.9472
-8.5516 -9.7048 -2.4313 0.9487
-7.5688 -9.9510 -2.3500 0.9504
-7.2062 -10.2184 -2.3502 0.9504
-6.8341 -10.4724 -2.3505 0.9504
-6.4530 -10.7127 -2.3507 0.9504
-6.0633 -10.9390 -2.3508 0.9504
-5.6656 -11.1509 -2.3509 0.9504
-5.2604 -11.3481 -2.3510 0.9504
-4.8483 -11.5305 -2.3511 0.9504
-4.4298 -11.6977 -2.3511 0.9504
-3.9526 -11.6930 -2.3200 0.9510
-3.1488 -12.1337 -2.3562 0.9503
-2.7124 -12.2516 -2.3586 0.9502
-2.2711 -12.3515 -2.3605 0.9502
-1.8259 -12.4333 -2.3620 0.9501
-0.4743 -12.5683 -2.3640 0.9501
-0.0212 -12.5761 -2.3638 0.9501
0.4317 -12.5653 -2.3632 0.9501
0.8837 -12.5355 -2.3620 0.9501
1.7839 -12.4393 -2.3620 0.9501
2.2333 -12.3801 -2.3645 0.9501
3.5625 -12.0894 -2.3689 0.9500
4.0530 -12.1249 -2.4030 0.9493
5.1774 -12.4304 -2.5310 0.9467
6.0584 -12.0242 -2.5308 0.9467
6.4873 -11.7974 -2.5306 0.9467
6.9076 -11.5553 -2.5304 0.9467
8.1117 -10.7397 -2.5297 0.9467
8.8619 -10.1255 -2.5292 0.9467
10.5251 -8.3676 -2.5273 0.9467
10.8178 -7.9816 -2.5269 0.9468
11.0963 -7.5854 -2.5264 0.9468
11.3602 -7.1794 -2.5260 0.9468
11.8430 -6.3403 -2.5249 0.9468
12.0612 -5.9083 -2.5244 0.9468
12.4498 -5.0224 -2.5233 0.9468
12.6200 -4.5696 -2.5228 0.9468
12.7709 -4.1103 -2.5217 0.9469
13.2064 -2.2296 -2.5174 0.9469
13.2726 -1.7517 -2.5164 0.9470
13.3216 -1.2719 -2.5153 0.9470
13.2531 1.6115 -2.5094 0.9471
13.0931 2.5597 -2.5076 0.9471
12.9878 3.0287 -2.5067 0.9472
12.5728 4.4078 -2.5042 0.9472
12.4020 4.8563 -2.5034 0.9472
12.2153 5.2983 -2.5027 0.9473
12.0130 5.7333 -2.5019 0.9473
11.7954 6.1606 -2.5013 0.9473
11.0536 7.3915 -2.4994 0.9473
-7.1659 -9.4214 -2.5021 0.9528
-6.8208 -9.6718 -2.5017 0.9528
-5.8494 -9.7107 -2.3963 0.9547
-4.6711 -10.0768 -2.3478 0.9556
-3.5567 -10.5220 -2.3478 0.9556
-3.1753 -10.6430 -2.3477 0.9556
-2.0082 -10.9216 -2.3473 0.9556
-1.2164 -11.0359 -2.3469 0.9556
-0.8180 -11.0713 -2.3466 0.9556
-0.0187 -11.0985 -2.3460 0.9556
0.3810 -11.0900 -2.3456 0.9556
0.7801 -11.0664 -2.3450 0.9557
1.5767 -10.9946 -2.3478 0.9556
1.9738 -10.9417 -2.3502 0.9556
6.1371 -10.2664 -2.5283 0.9523
7.2071 -9.5421 -2.5277 0.9523
7.8738 -8.9966 -2.5272 0.9523
8.4992 -8.4044 -2.5266 0.9523
8.7953 -8.0916 -2.5262 0.9523
9.6127 -7.0925 -2.5252 0.9523
9.8604 -6.7405 -2.5247 0.9523
10.0951 -6.3799 -2.5243 0.9523
10.3166 -6.0110 -2.5239 0.9524
10.5246 -5.6345 -2.5234 0.9524
10.8988 -4.8602 -2.5225 0.9524
11.0647 -4.4636 -2.5220 0.9524
11.3527 -3.6538 -2.5210 0.9524
11.4745 -3.2418 -2.5204 0.9524
11.5817 -2.8254 -2.5200 0.9524
11.6721 -2.4060 -2.5191 0.9524
11.7468 -1.9832 -2.5182 0.9525
11.8504 -1.1315 -2.5163 0.9525
11.8791 -0.7036 -2.5154 0.9525
11.7925 1.4339 -2.5111 0.9526
11.5579 2.6952 -2.5086 0.9526
11.3270 3.5183 -2.5071 0.9527
11.1897 3.9229 -2.5064 0.9527
11.0381 4.3222 -2.5057 0.9527
10.8723 4.7158 -2.5051 0.9527
10.6926 5.1031 -2.5044 0.9527
10.4993 5.4836 -2.5038 0.9527
10.2925 5.8569 -2.5032 0.9527
10.0726 6.2225 -2.5026 0.9527
9.8398 6.5799 -2.5021 0.9528
-7.3244 -7.7318 -2.5030 0.9572
-7.0401 -7.9894 -2.5027 0.9572
-6.4446 -8.4730 -2.5019 0.9572
-6.1343 -8.6984 -2.5016 0.9572
-5.4904 -9.1148 -2.5008 0.9572
-5.1577 -9.3052 -2.5004 0.9572
-4.0771 -9.6964 -2.4721 0.9577
-3.2816 -9.7080 -2.4084 0.9588
-2.5219 -9.7179 -2.3596 0.9596
-1.8044 -9.8129 -2.3449 0.9598
-1.4512 -9.8816 -2.3473 0.9598
-0.3761 -9.9657 -2.3438 0.9599
-0.0168 -9.9715 -2.3435 0.9599
0.3424 -9.9641 -2.3432 0.9599
0.7009 -9.9434 -2.3427 0.9599
1.0586 -9.9104 -2.3424 0.9599
1.8203 -10.0907 -2.4098 0.9587
2.6404 -10.3174 -2.5030 0.9572
3.0127 -10.2236 -2.5049 0.9572
3.3836 -10.1223 -2.5084 0.9571
3.7519 -10.0094 -2.5123 0.9570
4.4784 -9.7470 -2.5210 0.9569
5.5160 -9.2274 -2.5266 0.9568
6.1652 -8.8051 -2.5262 0.9568
6.7820 -8.3369 -2.5258 0.9568
7.6395 -7.5542 -2.5250 0.9568
8.1616 -6.9829 -2.5244 0.9568
8.4068 -6.6835 -2.5241 0.9568
8.8637 -6.0592 -2.5234 0.9568
9.0749 -5.7351 -2.5230 0.9568
9.2741 -5.4036 -2.5226 0.9569
10.4127 -2.5406 -2.5190 0.9569
10.5643 -1.7836 -2.5180 0.9569
10.6617 -1.0180 -2.5171 0.9569
10.6546 0.9075 -2.5131 0.9570
10.6118 1.2903 -2.5124 0.9570
10.4853 2.0499 -2.5109 0.9571
10.4017 2.4256 -2.5102 0.9571
10.3047 2.7979 -2.5095 0.9571
10.1946 3.1665 -2.5089 0.9571
10.0713 3.5308 -2.5082 0.9571
9.4508 4.9360 -2.5059 0.9571
9.2649 5.2722 -2.5053 0.9571
9.0671 5.6014 -2.5048 0.9572
-6.8972 -6.7744 -2.5031 0.9608
-6.3898 -7.2515 -2.5025 0.9609
-6.1236 -7.4760 -2.5021 0.9609
-5.8496 -7.6907 -2.5018 0.9609
-5.5680 -7.8954 -2.5015 0.9609
-5.2792 -8.0897 -2.5011 0.9609
-4.9837 -8.2735 -2.5008 0.9609
-4.6818 -8.4465 -2.5004 0.9609
-4.3739 -8.6085 -2.5001 0.9609
-4.0604 -8.7593 -2.4998 0.9609
-3.7417 -8.8987 -2.4994 0.9609
-2.4235 -9.3388 -2.4981 0.9609
-2.0852 -9.4188 -2.4978 0.9609
-1.7443 -9.4866 -2.4974 0.9609
-1.0565 -9.5851 -2.4968 0.9609
-0.0163 -9.6396 -2.4959 0.9610
1.0234 -9.5818 -2.4950 0.9610
3.3998 -9.0701 -2.5080 0.9608
3.7294 -8.9539 -2.5114 0.9607
4.0549 -8.8254 -2.5147 0.9607
4.3766 -8.6863 -2.5184 0.9606
4.6940 -8.5363 -2.5223 0.9605
5.3021 -8.1849 -2.5250 0.9605
5.5932 -7.9881 -2.5249 0.9605
5.8769 -7.7809 -2.5247 0.9605
6.4208 -7.3363 -2.5243 0.9605
6.9310 -6.8537 -2.5238 0.9605
7.4049 -6.3355 -2.5232 0.9605
7.8399 -5.7845 -2.5226 0.9605
8.2338 -5.2036 -2.5219 0.9606
8.8906 -3.9647 -2.5204 0.9606
9.1500 -3.3132 -2.5196 0.9606
9.3615 -2.6449 -2.5188 0.9606
9.4491 -2.3055 -2.5183 0.9606
9.5243 -1.9633 -2.5178 0.9606
9.6751 -0.9238 -2.5164 0.9606
9.7002 -0.5745 -2.5159 0.9606
9.7126 0.1253 -2.5150 0.9607
9.6367 1.1717 -2.5135 0.9607
9.5857 1.5178 -2.5128 0.9607
9.5223 1.8616 -2.5122 0.9607
9.4467 2.2029 -2.5115 0.9607
9.3588 2.5411 -2.5109 0.9607
9.2590 2.8759 -2.5103 0.9607
9.1472 3.2068 -2.5097 0.9607
8.4158 4.7889 -2.5071 0.9608
8.2362 5.0881 -2.5066 0.9608
-6.3077 -6.1954 -2.5029 0.9639
-5.8438 -6.6318 -2.5023 0.9639
-5.6004 -6.8372 -2.5020 0.9639
-4.2820 -7.7252 -2.5004 0.9639
-4.0004 -7.8735 -2.5001 0.9640
-3.4223 -8.1391 -2.4995 0.9640
-2.8267 -8.3622 -2.4989 0.9640
-2.5233 -8.4576 -2.4986 0.9640
-2.2167 -8.5420 -2.4983 0.9640
-1.2818 -8.7282 -2.4974 0.9640
-0.9664 -8.7677 -2.4971 0.9640
0.6199 -8.7941 -2.4957 0.9640
0.9362 -8.7652 -2.4955 0.9640
1.2513 -8.7249 -2.4952 0.9640
2.1900 -8.5574 -2.5006 0.9639
2.4998 -8.4830 -2.5036 0.9639
2.8066 -8.3959 -2.5061 0.9639
3.1073 -8.2897 -2.5062 0.9639
3.4057 -8.1768 -2.5076 0.9638
3.7023 -8.0581 -2.5104 0.9638
3.9944 -7.9277 -2.5131 0.9638
5.1132 -7.3026 -2.5237 0.9636
5.6249 -6.9145 -2.5234 0.9636
5.8699 -6.7069 -2.5232 0.9636
6.1072 -6.4905 -2.5229 0.9636
6.7698 -5.7921 -2.5222 0.9636
6.9733 -5.5439 -2.5219 0.9636
7.5280 -4.7575 -2.5210 0.9637
7.6935 -4.4827 -2.5207 0.9637
7.8489 -4.2020 -2.5204 0.9637
7.9941 -3.9160 -2.5200 0.9637
8.2529 -3.3293 -2.5193 0.9637
8.4686 -2.7256 -2.5185 0.9637
8.5600 -2.4184 -2.5181 0.9637
8.7090 -1.7952 -2.5173 0.9637
8.7666 -1.4800 -2.5169 0.9637
8.8473 -0.8447 -2.5160 0.9637
8.8820 -0.2054 -2.5151 0.9637
8.8705 0.4344 -2.5142 0.9638
8.7671 1.3881 -2.5128 0.9638
8.7097 1.7028 -2.5123 0.9638
8.5613 2.3246 -2.5114 0.9638
8.4704 2.6310 -2.5109 0.9638
8.2559 3.2328 -2.5100 0.9638
8.1329 3.5276 -2.5096 0.9638
7.9992 3.8177 -2.5092 0.9638
7.8551 4.1026 -2.5087 0.9638
7.5365 4.6558 -2.5078 0.9638
-5.8051 -5.7017 -2.5027 0.9665
-5.5953 -5.9065 -2.5024 0.9665
-5.1543 -6.2926 -2.5019 0.9665
-4.9237 -6.4734 -2.5016 0.9665
-4.6868 -6.6458 -2.5013 0.9665
-4.4439 -6.8096 -2.5010 0.9665
-4.1952 -6.9644 -2.5007 0.9665
-3.6820 -7.2468 -2.5002 0.9666
-2.8777 -7.5991 -2.4993 0.9666
-2.6018 -7.6970 -2.4990 0.9666
-2.3226 -7.7848 -2.4987 0.9666
-2.0404 -7.8625 -2.4985 0.9666
-1.4687 -7.9873 -2.4979 0.9666
-0.8896 -8.0706 -2.4974 0.9666
-0.0137 -8.1170 -2.4966 0.9666
0.2787 -8.1114 -2.4964 0.9666
0.5707 -8.0953 -2.4961 0.9666
2.8595 -7.6287 -2.5059 0.9665
3.1326 -7.5210 -2.5059 0.9665
3.4031 -7.4067 -2.5071 0.9665
3.6712 -7.2863 -2.5095 0.9664
3.9351 -7.1562 -2.5119 0.9664
4.9430 -6.5444 -2.5226 0.9663
5.6189 -5.9716 -2.5220 0.9663
5.8299 -5.7649 -2.5218 0.9663
6.0333 -5.5506 -2.5216 0.9663
6.2287 -5.3292 -2.5213 0.9663
6.4160 -5.1008 -2.5211 0.9663
6.5949 -4.8659 -2.5208 0.9663
6.9266 -4.3774 -2.5203 0.9663
7.0789 -4.1246 -2.5200 0.9663
7.2221 -3.8664 -2.5197 0.9663
7.3557 -3.6033 -2.5193 0.9663
7.4798 -3.3355 -2.5190 0.9663
7.5940 -3.0635 -2.5187 0.9663
7.8768 -2.2254 -2.5176 0.9663
8.0142 -1.6520 -2.5168 0.9663
8.1418 -0.7773 -2.5156 0.9664
8.1740 -0.1891 -2.5148 0.9664
8.1741 0.1055 -2.5144 0.9664
8.1109 0.9862 -2.5131 0.9664
8.0688 1.2776 -2.5127 0.9664
7.8798 2.1395 -2.5114 0.9664
7.7962 2.4216 -2.5110 0.9664
7.4856 3.2469 -2.5097 0.9664
7.3626 3.5138 -2.5092 0.9664
7.0881 4.0335 -2.5084 0.9664
6.7771 4.5318 -2.5076 0.9665
-4.3367 -6.1493 -2.5013 0.9688
-3.8818 -6.4443 -2.5007 0.9688
-3.4070 -6.7056 -2.5002 0.9688
-2.9148 -6.9320 -2.4997 0.9688
-2.6629 -7.0318 -2.4994 0.9688
-2.1492 -7.2037 -2.4989 0.9688
-1.6246 -7.3383 -2.4984 0.9688
-1.3591 -7.3913 -2.4981 0.9688
-1.0918 -7.4347 -2.4979 0.9688
-0.5536 -7.4926 -2.4974 0.9688
-0.2833 -7.5070 -2.4971 0.9688
0.2579 -7.5065 -2.4967 0.9688
0.7976 -7.4671 -2.4962 0.9688
1.0660 -7.4329 -2.4960 0.9688
2.1281 -7.2218 -2.5026 0.9688
3.3931 -6.7343 -2.5066 0.9687
3.8754 -6.4829 -2.5106 0.9687
4.1101 -6.3448 -2.5129 0.9686
4.5642 -6.0429 -2.5173 0.9686
5.5810 -5.1345 -2.5208 0.9685
5.7618 -4.9297 -2.5206 0.9685
6.1006 -4.5012 -2.5201 0.9685
6.2582 -4.2781 -2.5199 0.9686
6.6810 -3.5768 -2.5190 0.9686
6.8047 -3.3334 -2.5187 0.9686
6.9195 -3.0857 -2.5184 0.9686
7.0253 -2.8341 -2.5181 0.9686
7.2092 -2.3203 -2.5175 0.9686
7.2872 -2.0588 -2.5171 0.9686
7.3556 -1.7947 -2.5168 0.9686
7.4144 -1.5284 -2.5164 0.9686
7.4636 -1.2601 -2.5161 0.9686
7.5031 -0.9903 -2.5157 0.9686
7.5526 -0.4473 -2.5149 0.9686
7.5339 0.6417 -2.5134 0.9686
7.4658 1.1821 -2.5126 0.9686
7.2912 1.9797 -2.5114 0.9687
7.2140 2.2407 -2.5110 0.9687
7.1275 2.4988 -2.5106 0.9687
7.0318 2.7534 -2.5102 0.9687
6.9269 3.0045 -2.5098 0.9687
6.6905 3.4944 -2.5090 0.9687
6.4196 3.9658 -2.5082 0.9687
6.2716 4.1938 -2.5079 0.9687
-4.9923 -4.9034 -2.5024 0.9707
-4.8120 -5.0796 -2.5022 0.9707
-4.6254 -5.2491 -2.5019 0.9707
-4.4329 -5.4119 -2.5017 0.9707
-3.8221 -5.8568 -2.5010 0.9707
-3.6082 -5.9901 -2.5007 0.9707
-3.3898 -6.1156 -2.5005 0.9707
-2.7094 -6.4437 -2.4997 0.9707
-2.2380 -6.6208 -2.4992 0.9707
-1.7551 -6.7634 -2.4988 0.9708
-1.2634 -6.8709 -2.4983 0.9708
-0.2633 -6.9786 -2.4974 0.9708
-0.0118 -6.9829 -2.4972 0.9708
0.4910 -6.9645 -2.4967 0.9708
1.7332 -6.7726 -2.5000 0.9707
3.1525 -6.2569 -2.5055 0.9707
3.5983 -6.0194 -2.5079 0.9706
3.8151 -5.8895 -2.5094 0.9706
4.2358 -5.6081 -2.5133 0.9706
4.4383 -5.4559 -2.5151 0.9706
5.0114 -4.9555 -2.5203 0.9705
5.1863 -4.7714 -2.5201 0.9705
5.3544 -4.5811 -2.5199 0.9705
5.6693 -4.1829 -2.5195 0.9705
5.8158 -3.9756 -2.5193 0.9705
5.9546 -3.7632 -2.5190 0.9705
6.0857 -3.5458 -2.5188 0.9705
6.3239 -3.0978 -2.5182 0.9705
6.4306 -2.8677 -2.5179 0.9705
6.5290 -2.6338 -2.5176 0.9705
6.6188 -2.3967 -2.5173 0.9705
6.8362 -1.6680 -2.5164 0.9705
6.8909 -1.4204 -2.5161 0.9706
6.9367 -1.1711 -2.5157 0.9706
7.0011 -0.6685 -2.5150 0.9706
7.0197 -0.4157 -2.5147 0.9706
7.0291 -0.1626 -2.5143 0.9706
7.0294 0.0908 -2.5140 0.9706
7.0026 0.5965 -2.5132 0.9706
6.9756 0.8482 -2.5129 0.9706
6.8403 1.5951 -2.5118 0.9706
6.5364 2.5595 -2.5103 0.9706
6.2194 3.2483 -2.5092 0.9706
6.0975 3.4697 -2.5088 0.9706
5.9677 3.6866 -2.5085 0.9706
-4.1365 -5.0500 -2.5016 0.9724
-3.7615 -5.3338 -2.5012 0.9724
-2.7436 -5.9187 -2.5000 0.9724
-2.5284 -6.0131 -2.4998 0.9724
-2.0885 -6.1785 -2.4993 0.9724
-1.8644 -6.2491 -2.4991 0.9725
-1.1790 -6.4121 -2.4984 0.9725
-0.9472 -6.4498 -2.4982 0.9725
-0.7142 -6.4792 -2.4980 0.9725
-0.4802 -6.5002 -2.4978 0.9725
-0.0110 -6.5169 -2.4974 0.9725
0.2238 -6.5125 -2.4972 0.9725
0.4582 -6.4997 -2.4970 0.9725
0.9248 -6.4489 -2.4966 0.9725
1.1565 -6.4109 -2.4964 0.9725
1.3875 -6.3688 -2.4979 0.9725
1.6173 -6.3196 -2.4998 0.9724
2.2944 -6.1211 -2.5051 0.9724
2.5135 -6.0346 -2.5051 0.9724
3.1500 -5.7285 -2.5053 0.9724
3.3547 -5.6120 -2.5056 0.9724
3.7553 -5.3633 -2.5090 0.9723
4.1363 -5.0846 -2.5118 0.9723
4.3190 -4.9349 -2.5131 0.9723
4.4971 -4.7794 -2.5149 0.9723
4.6698 -4.6177 -2.5167 0.9723
5.4260 -3.7092 -2.5187 0.9722
5.6779 -3.3082 -2.5183 0.9722
5.7928 -3.1012 -2.5180 0.9722
5.9002 -2.8903 -2.5178 0.9722
6.0916 -2.4574 -2.5172 0.9723
6.3190 -1.7853 -2.5164 0.9723
6.3785 -1.5563 -2.5161 0.9723
6.4724 -1.0927 -2.5154 0.9723
6.5067 -0.8587 -2.5151 0.9723
6.5326 -0.6237 -2.5148 0.9723
6.5592 0.0847 -2.5138 0.9723
6.5091 0.7915 -2.5128 0.9723
6.4755 1.0253 -2.5124 0.9723
6.4334 1.2577 -2.5121 0.9723
6.3831 1.4885 -2.5117 0.9723
6.2576 1.9437 -2.5110 0.9723
6.1827 2.1675 -2.5107 0.9723
5.8041 3.0314 -2.5093 0.9723
5.6904 3.2381 -2.5090 0.9723
5.5693 3.4405 -2.5087 0.9723
5.4410 3.6384 -2.5083 0.9724
-4.0412 -4.5861 -2.5018 0.9739
-3.8730 -4.7284 -2.5015 0.9739
-3.6999 -4.8644 -2.5013 0.9739
-3.5220 -4.9941 -2.5011 0.9739
-3.3395 -5.1173 -2.5009 0.9739
-3.1527 -5.2338 -2.5007 0.9739
-2.7672 -5.4463 -2.5003 0.9739
-2.5690 -5.5420 -2.5000 0.9739
-2.3675 -5.6304 -2.4998 0.9739
-2.1629 -5.7116 -2.4996 0.9739
-1.9556 -5.7853 -2.4994 0.9740
-1.7458 -5.8515 -2.4992 0.9740
-1.5337 -5.9101 -2.4990 0.9740
-1.3197 -5.9610 -2.4988 0.9740
-1.1040 -6.0042 -2.4986 0.9740
-0.8869 -6.0396 -2.4984 0.9740
-0.4497 -6.0868 -2.4980 0.9740
-0.2301 -6.0986 -2.4978 0.9740
0.2096 -6.0984 -2.4974 0.9740
0.6480 -6.0666 -2.4970 0.9740
0.8661 -6.0389 -2.4969 0.9740
1.5142 -5.9169 -2.4997 0.9739
2.1482 -5.7309 -2.5049 0.9739
2.3533 -5.6499 -2.5049 0.9739
2.5553 -5.5616 -2.5050 0.9739
2.9492 -5.3634 -2.5051 0.9739
3.3278 -5.1372 -2.5051 0.9739
3.5134 -5.0178 -2.5070 0.9739
4.2054 -4.4693 -2.5117 0.9738
4.5212 -4.1596 -2.5144 0.9738
4.6708 -3.9963 -2.5159 0.9738
4.8145 -3.8276 -2.5173 0.9738
4.9516 -3.6534 -2.5185 0.9738
5.3155 -3.0971 -2.5178 0.9738
5.4231 -2.9033 -2.5176 0.9738
5.5236 -2.7058 -2.5173 0.9738
5.6169 -2.5048 -2.5171 0.9738
5.7030 -2.3006 -2.5168 0.9738
6.0196 -1.2408 -2.5155 0.9738
6.0919 -0.8040 -2.5149 0.9738
6.1162 -0.5839 -2.5146 0.9738
6.1336 0.3004 -2.5133 0.9738
6.0945 0.7411 -2.5127 0.9738
6.0237 1.1776 -2.5120 0.9738
5.7892 2.0295 -2.5107 0.9738
5.7116 2.2365 -2.5104 0.9738
5.6266 2.4405 -2.5101 0.9738
5.4349 2.8386 -2.5095 0.9738
-3.9480 -4.1676 -2.5019 0.9753
-3.3074 -4.6899 -2.5011 0.9753
-2.7815 -5.0181 -2.5005 0.9753
-2.5987 -5.1146 -2.5003 0.9753
-2.4125 -5.2045 -2.5001 0.9753
-1.4404 -5.5504 -2.4991 0.9753
-1.2394 -5.5982 -2.4989 0.9753
-0.4223 -5.7164 -2.4981 0.9753
-0.2161 -5.7275 -2.4979 0.9753
0.1968 -5.7274 -2.4976 0.9753
0.4030 -5.7162 -2.4974 0.9753
0.6086 -5.6976 -2.4973 0.9753
1.6223 -5.5055 -2.5014 0.9753
2.5862 -5.1327 -2.5048 0.9752
3.1249 -4.8240 -2.5049 0.9752
3.2967 -4.7083 -2.5050 0.9752
3.6301 -4.4624 -2.5070 0.9752
3.7905 -4.3310 -2.5084 0.9752
3.9459 -4.1934 -2.5095 0.9752
4.0960 -4.0503 -2.5105 0.9752
4.2410 -3.9017 -2.5115 0.9752
4.3806 -3.7479 -2.5125 0.9752
4.5146 -3.5892 -2.5136 0.9751
4.8819 -3.0851 -2.5169 0.9751
5.1865 -2.5407 -2.5170 0.9751
5.2741 -2.3520 -2.5168 0.9751
5.4287 -1.9657 -2.5163 0.9751
5.4955 -1.7687 -2.5160 0.9751
5.5550 -1.5694 -2.5158 0.9751
5.6074 -1.3682 -2.5155 0.9751
5.6524 -1.1651 -2.5152 0.9751
5.7204 -0.7549 -2.5147 0.9751
5.7432 -0.5483 -2.5144 0.9751
5.7586 -0.3411 -2.5141 0.9751
5.7665 -0.1334 -2.5138 0.9751
5.7452 0.4893 -2.5129 0.9752
5.6126 1.3088 -2.5117 0.9752
5.3638 2.1003 -2.5105 0.9752
5.1974 2.4805 -2.5099 0.9752
5.0040 2.8475 -2.5092 0.9752
4.8960 3.0246 -2.5081 0.9752
-2.9527 -4.5246 -2.5009 0.9765
-2.7875 -4.6276 -2.5007 0.9765
-2.6188 -4.7247 -2.5005 0.9765
-1.3562 -5.2259 -2.4992 0.9765
-1.1669 -5.2711 -2.4990 0.9765
-0.7843 -5.3406 -2.4986 0.9765
-0.5914 -5.3650 -2.4984 0.9765
0.1853 -5.3929 -2.4978 0.9765
1.1487 -5.2727 -2.4979 0.9765
1.5273 -5.1831 -2.5012 0.9765
1.7143 -5.1284 -2.5030 0.9764
1.8991 -5.0664 -2.5045 0.9764
2.0804 -4.9949 -2.5046 0.9764
2.6073 -4.7415 -2.5047 0.9764
2.9420 -4.5416 -2.5048 0.9764
3.1037 -4.4327 -2.5048 0.9764
3.2614 -4.3180 -2.5048 0.9764
3.4157 -4.1988 -2.5055 0.9764
3.5667 -4.0752 -2.5068 0.9764
3.9894 -3.6702 -2.5092 0.9764
4.3663 -3.2215 -2.5117 0.9764
4.5904 -2.9010 -2.5136 0.9763
4.8808 -2.3909 -2.5157 0.9763
4.9651 -2.2141 -2.5164 0.9763
5.1736 -1.6651 -2.5157 0.9763
5.3214 -1.0969 -2.5150 0.9763
5.3855 -0.7107 -2.5145 0.9763
5.4070 -0.5162 -2.5142 0.9763
5.4215 -0.3211 -2.5139 0.9763
5.4294 0.0701 -2.5134 0.9764
5.4090 0.4607 -2.5128 0.9764
5.3883 0.6552 -2.5125 0.9764
5.3606 0.8488 -2.5122 0.9764
5.1807 1.6092 -2.5111 0.9764
5.1188 1.7946 -2.5108 0.9764
4.6071 2.8461 -2.5066 0.9764
-3.0869 -4.0585 -2.5012 0.9775
-2.9385 -4.1667 -2.5010 0.9775
-2.7863 -4.2696 -2.5008 0.9775
-2.6305 -4.3669 -2.5007 0.9775
-2.1435 -4.6242 -2.5001 0.9775
-1.4567 -4.8827 -2.4994 0.9776
-1.2798 -4.9317 -2.4992 0.9776
-0.7401 -5.0399 -2.4987 0.9776
-0.0086 -5.0926 -2.4981 0.9776
0.1749 -5.0893 -2.4979 0.9776
0.5408 -5.0629 -2.4976 0.9776
0.7228 -5.0399 -2.4975 0.9776
0.9038 -5.0103 -2.4973 0.9776
1.4411 -4.8906 -2.5010 0.9775
1.7920 -4.7807 -2.5044 0.9775
1.9631 -4.7131 -2.5044 0.9775
2.2974 -4.5597 -2.5045 0.9775
2.6198 -4.3825 -2.5046 0.9775
3.0774 -4.0744 -2.5047 0.9775
3.2222 -3.9610 -2.5047 0.9775
3.3629 -3.8424 -2.5047 0.9775
3.8850 -3.3239 -2.5080 0.9775
4.2246 -2.8878 -2.5102 0.9775
4.3272 -2.7347 -2.5110 0.9775
4.4243 -2.5779 -2.5118 0.9774
4.7523 -1.9171 -2.5136 0.9774
4.8197 -1.7452 -2.5144 0.9774
4.8795 -1.5704 -2.5144 0.9774
4.9343 -1.3940 -2.5151 0.9774
5.0817 -0.6707 -2.5143 0.9774
5.1020 -0.4871 -2.5140 0.9774
5.1232 0.0661 -2.5133 0.9774
5.1041 0.4348 -2.5127 0.9774
5.0846 0.6183 -2.5125 0.9774
5.0258 0.9825 -2.5119 0.9774
4.9864 1.1628 -2.5116 0.9774
4.8870 1.5179 -2.5101 0.9775
4.8276 1.6925 -2.5094 0.9775
4.7624 1.8649 -2.5088 0.9775
4.5296 2.3658 -2.5067 0.9775
4.4400 2.5266 -2.5059 0.9775
-3.4405 -3.3793 -2.5018 0.9785
-3.1879 -3.6177 -2.5015 0.9785
-2.9187 -3.8374 -2.5012 0.9785
-2.7784 -3.9397 -2.5010 0.9785
-2.6345 -4.0370 -2.5008 0.9785
-2.3367 -4.2157 -2.5005 0.9785
-2.1831 -4.2968 -2.5003 0.9785
-2.0268 -4.3724 -2.5001 0.9785
-1.3774 -4.6169 -2.4995 0.9785
-1.2101 -4.6632 -2.4993 0.9785
-0.8711 -4.7376 -2.4990 0.9785
-0.5277 -4.7874 -2.4987 0.9785
-0.0081 -4.8155 -2.4982 0.9785
0.1653 -4.8124 -2.4981 0.9785
0.3386 -4.8031 -2.4979 0.9785
0.5114 -4.7875 -2.4978 0.9785
0.8546 -4.7377 -2.4975 0.9785
1.1944 -4.6673 -2.4993 0.9785
1.5292 -4.5747 -2.5024 0.9785
1.8561 -4.4562 -2.5043 0.9785
2.1722 -4.3111 -2.5044 0.9785
2.3261 -4.2301 -2.5044 0.9785
2.4770 -4.1436 -2.5044 0.9785
2.6247 -4.0517 -2.5045 0.9785
2.7690 -3.9546 -2.5045 0.9785
2.9096 -3.8523 -2.5045 0.9785
3.0466 -3.7450 -2.5045 0.9785
3.3083 -3.5160 -2.5045 0.9785
3.4338 -3.3955 -2.5052 0.9785
4.1796 -2.4352 -2.5095 0.9784
4.3456 -2.1287 -2.5104 0.9784
4.4890 -1.8109 -2.5112 0.9784
4.7050 -1.1480 -2.5124 0.9784
4.8418 0.0625 -2.5120 0.9784
4.8358 0.2369 -2.5117 0.9784
4.8232 0.4108 -2.5112 0.9784
4.8041 0.5842 -2.5106 0.9784
4.7792 0.7567 -2.5103 0.9784
4.7483 0.9283 -2.5100 0.9784
4.6669 1.2671 -2.5087 0.9784
4.3599 2.0808 -2.5062 0.9785
4.1071 2.5373 -2.5045 0.9785
-3.2587 -3.2007 -2.5018 0.9794
-3.1411 -3.3158 -2.5016 0.9794
-2.8939 -3.5329 -2.5013 0.9794
-2.4954 -3.8238 -2.5008 0.9794
-2.2133 -3.9930 -2.5005 0.9794
-1.9198 -4.1415 -2.5002 0.9794
-1.7692 -4.2077 -2.5000 0.9794
-1.6164 -4.2684 -2.4998 0.9794
-1.1463 -4.4170 -2.4994 0.9794
-0.9863 -4.4552 -2.4992 0.9794
-0.4998 -4.5348 -2.4988 0.9794
-0.3361 -4.5496 -2.4986 0.9794
-0.1720 -4.5585 -2.4985 0.9794
0.1566 -4.5585 -2.4982 0.9794
0.4844 -4.5349 -2.4979 0.9794
0.8096 -4.4878 -2.4977 0.9794
0.9708 -4.4562 -2.4979 0.9794
1.7580 -4.2206 -2.5042 0.9794
1.9089 -4.1547 -2.5042 0.9794
2.2031 -4.0065 -2.5043 0.9794
2.6226 -3.7455 -2.5044 0.9794
2.7558 -3.6487 -2.5044 0.9794
2.8855 -3.5470 -2.5044 0.9794
3.1334 -3.3301 -2.5044 0.9794
3.2514 -3.2151 -2.5044 0.9794
3.5817 -2.8475 -2.5061 0.9793
3.8696 -2.4455 -2.5071 0.9793
3.9564 -2.3052 -2.5079 0.9793
4.1838 -1.8657 -2.5090 0.9793
4.3086 -1.5601 -2.5098 0.9793
4.3618 -1.4038 -2.5097 0.9793
4.5190 -0.7629 -2.5101 0.9793
4.5624 -0.4357 -2.5102 0.9793
4.5751 -0.2710 -2.5102 0.9793
4.5822 0.0591 -2.5099 0.9793
4.5469 0.5528 -2.5087 0.9793
4.5236 0.7163 -2.5085 0.9793
4.4945 0.8787 -2.5082 0.9793
4.4176 1.1995 -2.5071 0.9793
4.3189 1.5141 -2.5066 0.9793
4.1971 1.8205 -2.5057 0.9794
4.1276 1.9699 -2.5049 0.9794
4.0536 2.1172 -2.5048 0.9794
3.9737 2.2613 -2.5041 0.9794
3.8894 2.4027 -2.5039 0.9794
3.8001 2.5412 -2.5038 0.9794
-2.9798 -3.1455 -2.5015 0.9802
-2.7452 -3.3515 -2.5012 0.9802
-2.6225 -3.4480 -2.5011 0.9802
-2.3672 -3.6274 -2.5008 0.9802
-1.9617 -3.8609 -2.5003 0.9802
-1.8212 -3.9289 -2.5002 0.9802
-1.6784 -3.9917 -2.5000 0.9802
-1.0874 -4.1903 -2.4994 0.9802
-0.9357 -4.2265 -2.4993 0.9802
-0.6289 -4.2824 -2.4990 0.9802
-0.4742 -4.3021 -2.4988 0.9802
-0.3189 -4.3161 -2.4987 0.9802
0.4595 -4.3023 -2.4981 0.9802
0.6142 -4.2827 -2.4979 0.9802
0.9210 -4.2274 -2.4979 0.9802
1.0732 -4.1935 -2.4992 0.9802
1.2242 -4.1543 -2.5005 0.9802
1.5219 -4.0602 -2.5034 0.9802
1.6676 -4.0037 -2.5041 0.9802
1.9516 -3.8734 -2.5041 0.9802
2.2255 -3.7229 -2.5042 0.9802
2.7372 -3.3647 -2.5043 0.9802
2.8566 -3.2640 -2.5043 0.9802
2.9724 -3.1590 -2.5043 0.9802
3.2958 -2.8199 -2.5043 0.9802
3.3955 -2.6994 -2.5044 0.9802
3.5832 -2.4494 -2.5059 0.9802
3.6691 -2.3187 -2.5059 0.9802
3.8279 -2.0493 -2.5069 0.9801
3.8994 -1.9101 -2.5069 0.9801
3.9667 -1.7688 -2.5076 0.9801
4.0280 -1.6249 -2.5077 0.9801
4.1356 -1.3311 -2.5083 0.9801
4.1810 -1.1812 -2.5084 0.9801
4.2206 -1.0298 -2.5083 0.9801
4.2552 -0.8771 -2.5084 0.9801
4.3254 -0.4130 -2.5086 0.9801
4.3434 -0.1005 -2.5083 0.9801
4.3389 0.2125 -2.5080 0.9801
4.2610 0.8330 -2.5066 0.9801
4.2279 0.9859 -2.5065 0.9801
4.1449 1.2875 -2.5058 0.9802
3.9146 1.8683 -2.5043 0.9802
3.8446 2.0080 -2.5042 0.9802
3.6888 2.2788 -2.5034 0.9802
