ply
format ascii 1.0
element vertex 957
property float32 x
property float32 y
property float32 z
property float32 I
end_header
35.1415 25.3775 7.6432 0.8386
1.8582 21.0557 3.7271 0.9177
-5.0946 21.4228 3.8828 0.9144
-6.3707 20.2412 3.7417 0.9174
-7.1808 20.2586 3.7899 0.9164
-8.0133 20.2764 3.8444 0.9153
-8.8712 20.2948 3.9055 0.9140
35.1427 25.3784 6.6407 0.8391
-4.9774 24.8406 3.8811 0.9026
-5.5797 20.2241 3.2140 0.9186
-6.3706 20.2410 3.2508 0.9177
-9.7577 20.3136 3.4523 0.9128
-10.6771 20.3333 3.5183 0.9113
-11.6336 20.3538 3.5915 0.9095
35.1863 27.3738 5.8053 0.8354
-4.8549 29.7002 3.9189 0.8857
-5.0327 25.1166 3.3357 0.9018
-6.3705 20.2407 2.7632 0.9180
-7.1807 20.2581 2.7989 0.9170
-8.0131 20.2759 2.8391 0.9158
-8.8709 20.2943 2.8842 0.9145
-9.7576 20.3133 2.9346 0.9131
-11.6334 20.3535 3.0528 0.9098
35.1449 25.3801 4.6551 0.8400
-5.0321 25.1136 2.7503 0.9021
-6.3704 20.2405 2.2786 0.9182
-8.0130 20.2757 2.3411 0.9160
-8.8708 20.2940 2.3783 0.9148
-9.7575 20.3130 2.4199 0.9133
35.1886 27.3756 3.7741 0.8361
-5.0315 25.1106 2.1679 0.9023
-5.1088 21.4825 1.8693 0.9152
-6.3703 20.2403 1.7963 0.9183
-7.1805 20.2576 1.8194 0.9173
-8.0129 20.2754 1.8455 0.9162
-10.6767 20.3324 1.9441 0.9119
31.9349 38.2780 3.0912 0.8189
-2.1063 23.1874 1.4438 0.9109
-2.9790 23.4594 1.4664 0.9096
-5.0344 21.1698 1.3494 0.9165
-6.3703 20.2400 1.3158 0.9185
-8.0128 20.2752 1.3519 0.9163
-8.8706 20.2935 1.3734 0.9151
-9.7572 20.3125 1.3974 0.9136
-10.6766 20.3322 1.4241 0.9121
-4.8522 29.6835 1.1860 0.8866
-5.0339 21.1677 0.8579 0.9166
-6.3702 20.2398 0.8367 0.9186
-8.0127 20.2749 0.8596 0.9164
-8.8705 20.2933 0.8733 0.9152
-9.7571 20.3122 0.8885 0.9137
35.1921 27.3784 0.7532 0.8366
34.3063 30.8628 0.7795 0.8314
32.8167 31.7150 0.7709 0.8331
32.8680 34.1176 0.8002 0.8274
1.8570 21.0421 0.3568 0.9190
-4.8515 29.6793 0.5080 0.8866
-5.0335 21.1660 0.3675 0.9166
-8.0120 20.2732 0.3682 0.9165
-9.7563 20.3105 0.3806 0.9138
-11.6319 20.3507 0.3960 0.9105
30.7458 22.2032 -0.2135 0.8592
30.7239 25.7152 -0.2256 0.8519
30.7123 27.6295 -0.2326 0.8477
30.6996 29.6690 -0.2404 0.8430
30.6715 34.2025 -0.2587 0.8321
-2.3054 25.3801 -0.1435 0.9031
-3.1268 24.6231 -0.1397 0.9055
-4.9566 24.7367 -0.1420 0.9040
-5.6720 23.8508 -0.1380 0.9066
-6.3696 20.2378 -0.1195 0.9186
-7.1796 20.2551 -0.1210 0.9176
-8.0119 20.2730 -0.1227 0.9165
-8.8696 20.2913 -0.1247 0.9152
-10.6754 20.3300 -0.1293 0.9122
-11.6317 20.3504 -0.1320 0.9105
30.7361 23.9117 -1.0965 0.8557
30.7249 25.7160 -1.1282 0.8519
30.7007 29.6701 -1.2022 0.8430
30.6727 34.2038 -1.2936 0.8321
-4.9560 24.7337 -0.7103 0.9040
-6.3695 20.2376 -0.5974 0.9186
-7.1795 20.2549 -0.6051 0.9176
-8.0118 20.2727 -0.6138 0.9165
-8.8695 20.2910 -0.6235 0.9152
-9.7560 20.3100 -0.6344 0.9138
-11.6316 20.3501 -0.6600 0.9105
30.7476 22.2045 -1.9234 0.8591
30.7144 27.6313 -2.0952 0.8475
30.7017 29.6711 -2.1653 0.8428
30.6884 31.8551 -2.2432 0.8376
30.2908 33.7780 -2.3009 0.8338
28.2195 36.3921 -2.3355 0.8316
27.0485 37.5805 -2.3482 0.8307
25.7999 41.8540 -2.4935 0.8213
22.7860 43.6646 -2.4978 0.8210
21.2305 44.4893 -2.5000 0.8208
14.7300 47.2235 -2.5087 0.8203
13.0452 47.7605 -2.5109 0.8201
11.3409 48.2375 -2.5130 0.8200
9.6191 48.6533 -2.5152 0.8198
7.8820 49.0073 -2.5173 0.8197
6.1318 49.2988 -2.5194 0.8196
1.8565 21.0364 -1.0710 0.9189
-2.5686 46.7687 -2.3754 0.8289
-2.2315 24.5658 -1.2510 0.9059
-5.6719 23.8503 -1.2433 0.9065
-5.5787 20.2204 -1.0638 0.9194
-6.3694 20.2373 -1.0759 0.9185
-8.8694 20.2908 -1.1230 0.9151
-10.6751 20.3294 -1.1645 0.9121
-11.6314 20.3499 -1.1887 0.9104
-26.3421 39.2832 -2.3987 0.8274
-27.7409 38.3349 -2.3998 0.8274
-32.9711 34.0494 -2.4037 0.8271
-36.4608 30.3582 -2.4061 0.8269
-39.5308 26.3054 -2.4081 0.8268
-42.1432 21.9395 -2.4095 0.8267
-43.6141 18.8805 -2.4102 0.8267
-45.3883 14.1087 -2.4105 0.8267
-46.2728 10.8311 -2.4101 0.8267
-46.8683 7.4908 -2.4070 0.8269
27.4201 19.8015 -2.4799 0.8731
26.7095 20.7792 -2.4813 0.8731
25.9644 21.7316 -2.4826 0.8730
23.5304 24.4249 -2.4867 0.8728
22.6559 25.2642 -2.4882 0.8728
17.8595 28.9725 -2.4955 0.8724
16.8234 29.6096 -2.4970 0.8723
14.6846 30.7721 -2.5000 0.8722
12.4655 31.7800 -2.5030 0.8720
11.3294 32.2244 -2.5045 0.8720
7.8316 33.3110 -2.5090 0.8718
2.4054 19.3389 -1.4289 0.9248
1.2581 24.0331 -1.7646 0.9080
0.5348 32.2555 -2.3654 0.8786
-0.6179 32.2717 -2.3667 0.8786
-1.7710 32.2465 -2.3679 0.8785
-4.0008 24.4749 -1.8184 0.9053
-4.9548 24.7280 -1.8491 0.9038
-5.6718 23.8500 -1.7975 0.9064
-5.5786 20.2202 -1.5380 0.9193
-6.3693 20.2371 -1.5556 0.9184
-8.0116 20.2722 -1.5983 0.9163
-9.7558 20.3095 -1.6520 0.9136
-10.6750 20.3291 -1.6836 0.9120
-18.1111 27.0087 -2.3844 0.8777
-20.0067 25.6646 -2.3860 0.8776
-23.4850 22.5805 -2.3888 0.8775
-24.2825 21.7327 -2.3894 0.8775
-25.0489 20.8563 -2.3899 0.8775
-25.7832 19.9526 -2.3904 0.8774
-27.7836 17.0891 -2.3917 0.8774
-29.9460 12.9636 -2.3926 0.8773
-30.3912 11.8863 -2.3927 0.8773
-30.7972 10.7937 -2.3928 0.8773
-31.4889 8.5677 -2.3928 0.8773
-34.2248 5.4700 -2.5413 0.8702
-34.3921 4.2435 -2.5408 0.8702
-34.5924 1.7768 -2.5397 0.8703
-34.6135 -0.6966 -2.5384 0.8704
-34.5567 -1.9319 -2.5377 0.8704
19.2644 17.3307 -2.4878 0.9011
18.6411 18.0154 -2.4888 0.9011
17.9936 18.6777 -2.4899 0.9010
17.3226 19.3169 -2.4910 0.9010
16.6290 19.9320 -2.4921 0.9009
15.9137 20.5224 -2.4932 0.9009
15.1774 21.0871 -2.4943 0.9009
14.4212 21.6255 -2.4955 0.9008
12.0418 23.0757 -2.4989 0.9007
10.3735 23.8984 -2.5012 0.9006
9.5177 24.2648 -2.5023 0.9006
8.6490 24.6006 -2.5035 0.9005
7.7684 24.9052 -2.5046 0.9005
6.8771 25.1782 -2.5058 0.9004
5.0669 25.6280 -2.5080 0.9003
1.2005 22.9319 -2.2046 0.9119
-0.4713 24.6169 -2.3638 0.9058
-2.2292 24.5407 -2.3657 0.9057
-7.1793 20.2541 -2.0630 0.9173
-8.0115 20.2719 -2.0927 0.9161
-10.6749 20.3289 -2.2044 0.9119
-13.0438 21.0393 -2.3766 0.9053
-14.5204 20.0656 -2.3779 0.9053
-15.2316 19.5392 -2.3785 0.9052
-18.4806 16.5401 -2.3811 0.9051
-19.0629 15.8723 -2.3815 0.9051
-20.1534 14.4754 -2.3822 0.9051
-20.6602 13.7482 -2.3825 0.9051
-21.5935 12.2409 -2.3830 0.9051
-22.0187 11.4629 -2.3832 0.9051
-22.4156 10.6698 -2.3834 0.9051
-23.1222 9.0433 -2.3836 0.9050
-23.4259 8.2102 -2.3831 0.9051
-23.9027 6.5036 -2.3782 0.9053
-26.0373 4.1615 -2.5314 0.8995
-26.1657 3.2285 -2.5311 0.8995
-26.2602 2.2916 -2.5307 0.8995
-26.3400 -0.5301 -2.5293 0.8995
16.5345 12.8634 -2.4884 0.9191
16.0699 13.4502 -2.4893 0.9191
15.0791 14.5730 -2.4910 0.9190
14.0103 15.6232 -2.4927 0.9189
12.8685 16.5953 -2.4945 0.9189
12.2721 17.0506 -2.4954 0.9189
11.6596 17.4844 -2.4963 0.9188
9.7333 18.6519 -2.4991 0.9187
9.0643 18.9947 -2.5000 0.9187
8.3833 19.3136 -2.5010 0.9187
7.6910 19.6079 -2.5019 0.9187
6.2764 20.1218 -2.5038 0.9186
4.8276 20.5336 -2.5056 0.9185
2.2009 11.1320 -1.3479 0.9553
1.6588 13.3367 -1.5964 0.9473
1.4939 16.9273 -2.0185 0.9338
1.0387 19.8417 -2.3601 0.9231
0.3295 19.8747 -2.3612 0.9231
-1.0908 19.8612 -2.3628 0.9230
-1.8000 19.8161 -2.3636 0.9230
-2.5074 19.7455 -2.3643 0.9230
-3.9130 19.5285 -2.3658 0.9229
-4.6094 19.3823 -2.3665 0.9229
-5.3002 19.2111 -2.3673 0.9229
-6.6619 18.7946 -2.3686 0.9228
-7.9910 18.2812 -2.3699 0.9228
-10.5233 16.9739 -2.3723 0.9227
-11.1254 16.5910 -2.3728 0.9227
-11.7133 16.1865 -2.3734 0.9227
-13.3853 14.8496 -2.3748 0.9226
-13.9096 14.3645 -2.3752 0.9226
-15.8226 12.2445 -2.3766 0.9226
-16.2517 11.6730 -2.3768 0.9226
-14.2866 8.7873 -1.9924 0.9347
-17.4118 9.8704 -2.3775 0.9225
-17.7545 9.2429 -2.3776 0.9225
-18.3610 7.9485 -2.3766 0.9226
-18.6187 7.2820 -2.3748 0.9226
-18.8518 6.6071 -2.3729 0.9227
-20.7041 4.8462 -2.5258 0.9179
-20.8622 4.1034 -2.5256 0.9179
-21.2460 0.3314 -2.5240 0.9180
-21.2409 -0.4275 -2.5236 0.9180
14.2450 10.2871 -2.4896 0.9315
13.8723 10.7922 -2.4903 0.9315
13.0739 11.7616 -2.4917 0.9314
12.6491 12.2246 -2.4924 0.9314
12.2081 12.6722 -2.4932 0.9314
11.7512 13.1040 -2.4939 0.9314
11.2791 13.5194 -2.4947 0.9313
10.7923 13.9178 -2.4954 0.9313
10.2915 14.2988 -2.4962 0.9313
9.7773 14.6617 -2.4969 0.9313
7.0278 16.1907 -2.5008 0.9312
6.4471 16.4365 -2.5016 0.9312
1.6925 10.5231 -1.5102 0.9579
0.8705 16.6282 -2.3593 0.9349
-0.9139 16.6413 -2.3614 0.9349
-2.6909 16.4615 -2.3634 0.9348
-5.0127 15.9267 -2.3658 0.9348
-6.1397 15.5357 -2.3669 0.9347
-6.6922 15.3099 -2.3674 0.9347
-7.2363 15.0645 -2.3680 0.9347
-7.7714 14.7996 -2.3685 0.9347
-8.2967 14.5155 -2.3689 0.9347
-9.3153 13.8917 -2.3699 0.9347
-9.8072 13.5526 -2.3703 0.9346
-10.7533 12.8222 -2.3711 0.9346
-11.2061 12.4319 -2.3715 0.9346
-13.2449 10.2498 -2.3730 0.9346
-13.6038 9.7711 -2.3732 0.9346
-14.1823 8.7232 -2.3592 0.9349
-14.8492 7.7304 -2.3720 0.9346
-15.1066 7.1908 -2.3706 0.9346
-15.3441 6.6425 -2.3691 0.9347
-15.8823 6.2118 -2.4163 0.9334
-16.9967 5.2833 -2.5219 0.9306
-17.1737 4.6727 -2.5218 0.9306
-17.4611 3.4344 -2.5215 0.9306
-17.5712 2.8084 -2.5212 0.9306
-17.6586 2.1788 -2.5210 0.9306
-17.7652 0.9125 -2.5205 0.9307
-17.7803 -0.3578 -2.5198 0.9307
11.9378 9.2873 -2.4917 0.9405
11.6013 9.7101 -2.4923 0.9405
11.2499 10.1207 -2.4929 0.9405
10.8840 10.5186 -2.4935 0.9405
10.5040 10.9034 -2.4941 0.9405
7.0191 13.4505 -2.4994 0.9403
6.5359 13.6963 -2.5001 0.9403
5.5445 14.1355 -2.5014 0.9403
4.2480 13.6190 -2.3502 0.9438
2.2403 9.5287 -1.6126 0.9611
1.8922 9.5708 -1.6072 0.9612
1.6066 12.9167 -2.1443 0.9486
0.7485 14.2981 -2.3587 0.9436
0.2374 14.3195 -2.3593 0.9436
-0.7857 14.3070 -2.3605 0.9436
-1.2965 14.2732 -2.3610 0.9436
-2.8177 14.0623 -2.3627 0.9435
-3.3189 13.9558 -2.3632 0.9435
-4.3085 13.6891 -2.3642 0.9435
-5.2768 13.3521 -2.3652 0.9435
-5.7514 13.1577 -2.3656 0.9434
-6.2188 12.9463 -2.3661 0.9434
-6.6785 12.7183 -2.3665 0.9434
-7.1297 12.4739 -2.3669 0.9434
-9.2396 11.0173 -2.3688 0.9434
-9.6285 10.6817 -2.3691 0.9434
-10.0051 10.3323 -2.3694 0.9434
-10.3689 9.9696 -2.3696 0.9434
-11.0564 9.2059 -2.3701 0.9433
-11.3792 8.8060 -2.3704 0.9433
-11.9747 7.9685 -2.3695 0.9434
-12.5012 7.0867 -2.3673 0.9434
-13.0618 6.2174 -2.3831 0.9430
-14.2403 5.5696 -2.5190 0.9399
-14.6007 4.5386 -2.5188 0.9399
-15.0001 2.9504 -2.5184 0.9399
-15.2787 0.2384 -2.5173 0.9399
-15.2531 -0.8527 -2.5167 0.9399
10.7652 7.7742 -2.4959 0.9474
10.4788 8.1523 -2.4955 0.9474
9.5425 9.2223 -2.4944 0.9474
8.8637 9.8842 -2.4954 0.9474
7.7609 10.7829 -2.4971 0.9474
6.5677 11.5592 -2.4989 0.9473
6.1521 11.7892 -2.4995 0.9473
5.7285 12.0042 -2.5001 0.9473
5.2973 12.2041 -2.5007 0.9473
4.8592 12.3884 -2.5012 0.9473
4.1456 11.7915 -2.3493 0.9504
2.6121 9.5635 -1.8634 0.9605
1.1025 12.4928 -2.3573 0.9502
0.2080 12.5473 -2.3587 0.9502
-0.6885 12.5355 -2.3597 0.9502
-1.5822 12.4595 -2.3607 0.9502
-2.9075 12.2261 -2.3621 0.9501
-3.3430 12.1167 -2.3625 0.9501
-3.7743 11.9918 -2.3630 0.9501
-5.0379 11.5254 -2.3642 0.9501
-5.4472 11.3400 -2.3646 0.9501
-6.2448 10.9257 -2.3654 0.9501
-6.6320 10.6973 -2.3657 0.9501
-7.7413 9.9306 -2.3667 0.9500
-8.7622 9.0488 -2.3675 0.9500
-9.3876 8.4019 -2.3680 0.9500
-10.2220 7.3421 -2.3656 0.9501
-10.4737 6.9697 -2.3647 0.9501
-10.9796 6.2242 -2.3723 0.9499
-11.8763 6.1828 -2.5167 0.9470
-12.0896 5.7547 -2.5167 0.9470
-12.2874 5.3192 -2.5167 0.9470
-12.7850 3.9742 -2.5165 0.9470
-12.9183 3.5149 -2.5164 0.9470
-13.0350 3.0511 -2.5163 0.9470
-13.1350 2.5835 -2.5162 0.9470
-13.3650 0.6865 -2.5154 0.9470
-13.3797 0.2087 -2.5152 0.9470
-13.3773 -0.2692 -2.5149 0.9470
8.7852 7.9035 -2.4979 0.9528
8.4964 8.2112 -2.4976 0.9528
8.1968 8.5085 -2.4973 0.9528
7.8870 8.7951 -2.4971 0.9528
6.5565 9.8320 -2.4980 0.9528
5.4706 10.4834 -2.4995 0.9528
5.0938 10.6743 -2.5001 0.9528
4.0582 10.3463 -2.3492 0.9556
3.6885 10.4913 -2.3507 0.9556
3.3136 10.6232 -2.3522 0.9555
2.2398 9.5270 -2.0687 0.9608
1.8904 9.5616 -2.0603 0.9609
1.3759 11.0621 -2.3563 0.9554
0.1850 11.1549 -2.3582 0.9554
-0.2136 11.1566 -2.3587 0.9554
-0.6120 11.1440 -2.3591 0.9554
-1.0098 11.1170 -2.3596 0.9554
-1.4065 11.0759 -2.3600 0.9554
-2.1943 10.9511 -2.3608 0.9554
-2.5845 10.8677 -2.3613 0.9554
-3.7339 10.5341 -2.3624 0.9553
-4.1084 10.3956 -2.3628 0.9553
-4.8414 10.0789 -2.3635 0.9553
-5.5501 9.7102 -2.3642 0.9553
-6.2307 9.2917 -2.3648 0.9553
-6.8797 8.8253 -2.3653 0.9553
-7.4931 8.3127 -2.3656 0.9553
-7.7833 8.0380 -2.3651 0.9553
-8.5914 7.1535 -2.3632 0.9553
-10.0723 6.1952 -2.4996 0.9528
-10.7423 5.1134 -2.5148 0.9525
-10.9180 4.7264 -2.5148 0.9525
-11.2272 3.9349 -2.5147 0.9525
-11.6714 2.2956 -2.5144 0.9525
-11.8762 0.6100 -2.5137 0.9525
-11.8701 -0.6636 -2.5130 0.9526
8.6287 6.2313 -2.5015 0.9572
8.3995 6.5346 -2.5011 0.9572
7.3801 7.6607 -2.5000 0.9572
6.8134 8.1667 -2.4996 0.9572
6.2124 8.6314 -2.4994 0.9572
5.5801 9.0524 -2.4992 0.9572
4.9204 9.4290 -2.4996 0.9572
3.6504 9.3065 -2.3495 0.9598
2.6159 9.5773 -2.3333 0.9600
1.9025 9.6230 -2.3054 0.9605
1.2375 9.9496 -2.3564 0.9596
0.5244 10.0171 -2.3575 0.9596
-0.1921 10.0324 -2.3583 0.9596
-0.9080 9.9965 -2.3591 0.9596
-1.2647 9.9593 -2.3595 0.9596
-1.6198 9.9094 -2.3598 0.9596
-2.6717 9.6838 -2.3609 0.9596
-3.0163 9.5836 -2.3613 0.9596
-3.3571 9.4712 -2.3616 0.9596
-3.6938 9.3465 -2.3620 0.9595
-4.0258 9.2099 -2.3623 0.9595
-4.6742 8.9013 -2.3629 0.9595
-5.2989 8.5471 -2.3635 0.9595
-5.6012 8.3530 -2.3636 0.9595
-6.4594 7.7023 -2.3625 0.9595
-6.7291 7.4652 -2.3621 0.9595
-7.7163 6.4248 -2.3598 0.9596
-8.0321 6.2158 -2.3870 0.9591
-8.9025 5.9242 -2.5132 0.9570
-9.1086 5.6025 -2.5133 0.9570
-9.3030 5.2737 -2.5133 0.9570
-9.9592 3.8952 -2.5133 0.9570
-10.3180 2.8074 -2.5131 0.9570
-10.4114 2.4370 -2.5130 0.9570
-10.6500 0.9294 -2.5125 0.9570
-10.6756 0.5484 -2.5123 0.9570
-10.6859 -0.2151 -2.5119 0.9570
-10.6704 -0.5965 -2.5117 0.9570
7.8389 5.6609 -2.5035 0.9608
7.6307 5.9365 -2.5032 0.9608
7.4130 6.2045 -2.5029 0.9608
7.1859 6.4646 -2.5026 0.9608
6.7049 6.9598 -2.5022 0.9609
6.1901 7.4197 -2.5019 0.9609
5.9208 7.6356 -2.5017 0.9609
5.6442 7.8419 -2.5016 0.9609
5.3603 8.0382 -2.5015 0.9609
5.0686 8.2226 -2.5010 0.9609
4.7712 8.3974 -2.5007 0.9609
4.1586 8.7145 -2.5001 0.9609
3.0108 8.5636 -2.3503 0.9632
2.7044 8.6701 -2.3515 0.9632
2.3942 8.7656 -2.3527 0.9632
2.0807 8.8499 -2.3539 0.9631
1.7641 8.9229 -2.3550 0.9631
1.4450 8.9844 -2.3561 0.9631
0.4759 9.0917 -2.3572 0.9631
-0.1743 9.1053 -2.3579 0.9631
-0.4995 9.0946 -2.3583 0.9631
-1.4700 8.9930 -2.3593 0.9630
-2.1088 8.8676 -2.3600 0.9630
-3.0465 8.5947 -2.3610 0.9630
-3.3519 8.4815 -2.3613 0.9630
-3.6530 8.3571 -2.3615 0.9630
-5.3442 7.3851 -2.3603 0.9630
-5.8559 6.9826 -2.3595 0.9630
-6.1005 6.7679 -2.3591 0.9631
-6.3371 6.5445 -2.3587 0.9631
-6.5660 6.3131 -2.3584 0.9631
-6.9399 6.2111 -2.4114 0.9622
-7.4385 6.1936 -2.5062 0.9608
-7.6723 5.9373 -2.5118 0.9607
-7.8797 5.6597 -2.5119 0.9607
-8.0770 5.3748 -2.5120 0.9607
-8.4404 4.7847 -2.5121 0.9607
-8.9038 3.8545 -2.5121 0.9607
-9.1560 3.2090 -2.5120 0.9607
-9.2646 2.8799 -2.5120 0.9607
-9.3613 2.5471 -2.5119 0.9607
-9.4460 2.2111 -2.5118 0.9607
-9.6270 1.1879 -2.5115 0.9607
-9.6627 0.8432 -2.5114 0.9607
-9.6860 0.4976 -2.5112 0.9607
-9.6970 0.1513 -2.5110 0.9607
6.9840 5.4334 -2.5050 0.9639
5.9036 6.5833 -2.5033 0.9639
5.1638 7.1744 -2.5024 0.9639
4.9037 7.3534 -2.5021 0.9639
4.3640 7.6807 -2.5008 0.9639
4.0857 7.8294 -2.5001 0.9640
3.8035 7.9703 -2.5001 0.9640
3.0292 7.7228 -2.3484 0.9661
2.4723 7.9262 -2.3504 0.9661
1.9019 8.0895 -2.3525 0.9660
1.6124 8.1556 -2.3535 0.9660
1.3206 8.2112 -2.3544 0.9660
0.7316 8.2901 -2.3560 0.9660
0.4352 8.3131 -2.3566 0.9660
0.1380 8.3251 -2.3571 0.9660
-0.1594 8.3261 -2.3575 0.9660
-0.7535 8.2955 -2.3580 0.9660
-1.0494 8.2641 -2.3583 0.9660
-1.6369 8.1693 -2.3586 0.9660
-2.2161 8.0323 -2.3588 0.9660
-3.3373 7.6348 -2.3588 0.9660
-3.6077 7.5105 -2.3587 0.9660
-3.8734 7.3764 -2.3586 0.9660
-4.6390 6.9180 -2.3580 0.9660
-4.8825 6.7471 -2.3577 0.9660
-5.3502 6.3796 -2.3571 0.9660
-6.0081 6.2047 -2.4450 0.9647
-6.3926 6.1465 -2.5105 0.9638
-6.6084 5.9145 -2.5106 0.9638
-8.1401 3.5239 -2.5111 0.9638
-8.4700 2.6329 -2.5110 0.9638
-8.8014 1.0860 -2.5105 0.9638
-8.8341 0.7709 -2.5104 0.9638
-8.8656 0.1383 -2.5101 0.9638
-8.8643 -0.1784 -2.5099 0.9638
6.6049 4.7698 -2.5059 0.9665
6.4294 5.0019 -2.5055 0.9665
5.6488 5.8636 -2.5042 0.9665
5.4351 6.0608 -2.5039 0.9665
5.2146 6.2504 -2.5037 0.9665
4.9875 6.4319 -2.5034 0.9665
4.7541 6.6052 -2.5031 0.9665
4.2677 6.9233 -2.5015 0.9665
4.0165 7.0692 -2.5008 0.9665
3.7608 7.2068 -2.5003 0.9666
3.5007 7.3359 -2.5001 0.9666
2.2745 7.2919 -2.3494 0.9685
2.0134 7.3713 -2.3503 0.9685
1.7495 7.4412 -2.3512 0.9685
1.4831 7.5016 -2.3520 0.9685
1.2147 7.5522 -2.3527 0.9685
0.4002 7.6447 -2.3546 0.9685
-0.4200 7.6470 -2.3556 0.9685
-0.9650 7.5990 -2.3560 0.9685
-1.5051 7.5118 -2.3564 0.9684
-1.7725 7.4536 -2.3565 0.9684
-2.3002 7.3085 -2.3566 0.9684
-3.0686 7.0203 -2.3565 0.9684
-3.5616 6.7827 -2.3563 0.9684
-4.0362 6.5102 -2.3560 0.9685
-4.5052 6.2257 -2.3637 0.9684
-4.8400 6.2088 -2.4214 0.9676
-5.4625 6.0601 -2.5094 0.9664
-5.6758 5.8615 -2.5096 0.9664
-6.0803 5.4418 -2.5098 0.9664
-6.4537 4.9943 -2.5100 0.9664
-6.7941 4.5211 -2.5101 0.9664
-7.0997 4.0247 -2.5102 0.9664
-7.3689 3.5077 -2.5102 0.9664
-7.6005 2.9727 -2.5102 0.9664
-7.7930 2.4224 -2.5101 0.9664
-7.8744 2.1425 -2.5100 0.9664
-7.9456 1.8599 -2.5100 0.9664
-8.0067 1.5749 -2.5099 0.9664
-8.0981 0.9992 -2.5097 0.9664
-8.1282 0.7093 -2.5096 0.9664
-8.1560 -0.1641 -2.5091 0.9664
-8.1444 -0.4553 -2.5090 0.9664
6.1126 4.4143 -2.5063 0.9687
5.7805 4.8382 -2.5057 0.9687
5.6033 5.0409 -2.5054 0.9687
5.4191 5.2372 -2.5051 0.9687
5.0303 5.6094 -2.5045 0.9687
4.6161 5.9530 -2.5040 0.9687
4.3988 6.1117 -2.5030 0.9688
4.1760 6.2623 -2.5020 0.9688
3.9485 6.4055 -2.5013 0.9688
3.7167 6.5414 -2.5009 0.9688
3.4802 6.6691 -2.5005 0.9688
3.2396 6.7888 -2.5004 0.9688
2.9951 6.9002 -2.5004 0.9688
2.7471 7.0037 -2.5007 0.9688
2.4730 7.0341 -2.4784 0.9691
2.1304 6.8300 -2.3782 0.9703
1.1232 6.9836 -2.3512 0.9706
0.8733 7.0210 -2.3518 0.9706
0.6221 7.0493 -2.3523 0.9706
0.1174 7.0783 -2.3532 0.9706
-0.1355 7.0788 -2.3535 0.9706
-0.3883 7.0703 -2.3537 0.9706
-0.8922 7.0257 -2.3541 0.9706
-1.3916 6.9450 -2.3544 0.9706
-1.6388 6.8912 -2.3545 0.9706
-1.8839 6.8285 -2.3546 0.9706
-2.1266 6.7570 -2.3547 0.9706
-2.8371 6.4906 -2.3546 0.9706
-3.0670 6.3849 -2.3545 0.9706
-3.2933 6.2718 -2.3547 0.9706
-4.1560 6.1977 -2.4804 0.9690
-4.8494 5.7825 -2.5086 0.9687
-5.2504 5.4221 -2.5088 0.9687
-5.4409 5.2314 -2.5090 0.9687
-5.9699 4.6199 -2.5092 0.9687
-6.2847 4.1822 -2.5093 0.9687
-6.4302 3.9551 -2.5094 0.9687
-6.9280 2.9992 -2.5094 0.9687
-7.3500 1.7204 -2.5092 0.9687
-7.4066 1.4568 -2.5092 0.9687
-7.4911 0.9243 -2.5090 0.9687
-7.5459 0.1178 -2.5086 0.9687
-7.5448 -0.1518 -2.5085 0.9687
5.6827 4.1038 -2.5067 0.9707
5.5318 4.3036 -2.5064 0.9707
5.3740 4.4979 -2.5061 0.9707
5.2094 4.6865 -2.5058 0.9707
5.0381 4.8690 -2.5055 0.9707
4.6767 5.2152 -2.5050 0.9707
4.0877 5.6793 -2.5023 0.9707
3.6701 5.9539 -2.5012 0.9707
3.4548 6.0805 -2.5009 0.9707
3.2352 6.1995 -2.5007 0.9707
2.5535 6.5100 -2.5007 0.9707
2.3196 6.5979 -2.5010 0.9707
1.8138 6.6406 -2.4617 0.9712
1.2755 6.4512 -2.3516 0.9725
1.0435 6.4881 -2.3500 0.9725
0.8112 6.5222 -2.3504 0.9725
0.5779 6.5483 -2.3508 0.9725
0.3437 6.5659 -2.3512 0.9725
0.1090 6.5750 -2.3516 0.9725
-0.1259 6.5754 -2.3518 0.9724
-0.3607 6.5674 -2.3521 0.9724
-1.2926 6.4510 -2.3527 0.9724
-2.4558 6.2143 -2.3895 0.9720
-2.9788 6.2013 -2.4602 0.9712
-3.4791 6.0870 -2.5072 0.9707
-3.6946 5.9593 -2.5074 0.9707
-4.1110 5.6811 -2.5077 0.9706
-4.5066 5.3737 -2.5080 0.9706
-4.6959 5.2096 -2.5081 0.9706
-5.0562 4.8615 -2.5083 0.9706
-5.2268 4.6780 -2.5084 0.9706
-5.5477 4.2932 -2.5086 0.9706
-5.6977 4.0925 -2.5086 0.9706
-5.9755 3.6754 -2.5087 0.9706
-6.2227 3.2396 -2.5088 0.9706
-6.4381 2.7871 -2.5088 0.9706
-6.6990 2.0824 -2.5087 0.9706
-6.7690 1.8418 -2.5086 0.9706
-6.8303 1.5988 -2.5086 0.9706
-6.8829 1.3538 -2.5085 0.9706
-6.9266 1.1071 -2.5084 0.9706
-6.9874 0.6098 -2.5082 0.9706
-7.0115 -0.1411 -2.5079 0.9706
5.3036 3.8300 -2.5070 0.9724
4.8619 4.3740 -2.5062 0.9724
4.7022 4.5444 -2.5059 0.9724
4.3633 4.8657 -2.5045 0.9724
4.1850 5.0162 -2.5034 0.9724
4.0020 5.1611 -2.5028 0.9724
3.8139 5.2990 -2.5020 0.9724
3.6216 5.4309 -2.5015 0.9724
3.4249 5.5561 -2.5012 0.9724
2.5982 5.9858 -2.5006 0.9724
2.3828 6.0749 -2.5007 0.9724
1.7200 6.2971 -2.5015 0.9724
1.2664 6.4052 -2.5021 0.9724
1.0204 6.3444 -2.4625 0.9728
0.5523 6.2583 -2.4076 0.9734
0.1032 6.2218 -2.3846 0.9737
-0.5644 6.2137 -2.3910 0.9736
-1.7106 6.2002 -2.4648 0.9728
-2.1846 6.1632 -2.5058 0.9724
-2.6194 5.9925 -2.5062 0.9724
-3.2460 5.6791 -2.5067 0.9724
-3.4470 5.5599 -2.5069 0.9724
-3.6436 5.4336 -2.5071 0.9724
-4.0226 5.1602 -2.5073 0.9724
-4.2045 5.0135 -2.5075 0.9724
-4.7172 4.5356 -2.5078 0.9724
-5.4488 3.6259 -2.5081 0.9724
-5.6938 3.2277 -2.5082 0.9724
-5.8055 3.0223 -2.5082 0.9724
-5.9098 2.8131 -2.5082 0.9724
-6.1764 2.1648 -2.5082 0.9724
-6.2499 1.9428 -2.5081 0.9724
-6.3724 1.4916 -2.5080 0.9724
-6.4622 1.0329 -2.5079 0.9724
-6.4948 0.8014 -2.5078 0.9724
-6.5190 0.5689 -2.5077 0.9724
-6.5349 0.3357 -2.5076 0.9724
-6.5323 -0.3652 -2.5072 0.9724
4.8348 3.7613 -2.5070 0.9739
4.6969 3.9312 -2.5068 0.9739
4.5530 4.0961 -2.5065 0.9739
4.2457 4.4072 -2.5046 0.9739
3.7466 4.8316 -2.5023 0.9739
3.2069 5.2023 -2.5012 0.9739
2.6315 5.5146 -2.5008 0.9739
2.2311 5.6881 -2.5006 0.9739
1.6104 5.8959 -2.5014 0.9739
1.3990 5.9503 -2.5017 0.9739
1.1857 5.9971 -2.5020 0.9739
0.9708 6.0363 -2.5022 0.9739
0.7547 6.0677 -2.5025 0.9739
0.1014 6.1154 -2.5032 0.9739
-0.1171 6.1158 -2.5035 0.9739
-0.5535 6.0930 -2.5040 0.9739
-1.2023 6.0004 -2.5046 0.9739
-1.6278 5.9003 -2.5051 0.9739
-1.8377 5.8389 -2.5053 0.9739
-2.0452 5.7700 -2.5054 0.9739
-2.6512 5.5193 -2.5060 0.9739
-2.8468 5.4215 -2.5062 0.9739
-3.0388 5.3167 -2.5063 0.9739
-3.2270 5.2051 -2.5065 0.9739
-3.5907 4.9620 -2.5067 0.9739
-3.7658 4.8308 -2.5069 0.9739
-4.1014 4.5501 -2.5071 0.9739
-4.2615 4.4009 -2.5072 0.9739
-4.4161 4.2460 -2.5073 0.9739
-4.8453 3.7496 -2.5075 0.9739
-5.2189 3.2100 -2.5076 0.9739
-5.3302 3.0216 -2.5077 0.9739
-5.4348 2.8293 -2.5077 0.9739
-5.5324 2.6334 -2.5077 0.9739
-5.6229 2.4342 -2.5077 0.9739
-5.7062 2.2318 -2.5077 0.9739
-5.8508 1.8187 -2.5076 0.9739
-5.9119 1.6086 -2.5076 0.9739
-6.0114 1.1824 -2.5074 0.9739
-6.0496 0.9669 -2.5074 0.9739
-6.0801 0.7502 -2.5073 0.9739
-6.1028 0.5326 -2.5072 0.9739
-6.1177 0.3143 -2.5071 0.9739
-6.1247 0.0956 -2.5070 0.9739
-6.1153 -0.3419 -2.5068 0.9739
4.5408 3.5326 -2.5073 0.9752
4.4099 3.6911 -2.5063 0.9752
4.2737 3.8448 -2.5053 0.9752
4.1323 3.9937 -2.5045 0.9752
3.9859 4.1375 -2.5038 0.9752
3.8346 4.2761 -2.5031 0.9753
3.6785 4.4092 -2.5025 0.9753
3.5180 4.5369 -2.5021 0.9753
3.3534 4.6591 -2.5018 0.9753
3.0114 4.8853 -2.5011 0.9753
2.8349 4.9895 -2.5010 0.9753
2.6548 5.0874 -2.5009 0.9753
2.4714 5.1789 -2.5008 0.9753
2.0953 5.3419 -2.5007 0.9753
0.5048 5.7201 -2.5026 0.9753
-0.1099 5.7429 -2.5033 0.9752
-1.1290 5.6344 -2.5044 0.9752
-1.7255 5.4826 -2.5049 0.9752
-2.4894 5.1824 -2.5056 0.9752
-2.6730 5.0906 -2.5058 0.9752
-3.0300 4.8873 -2.5061 0.9752
-3.2028 4.7762 -2.5062 0.9752
-3.6958 4.4069 -2.5066 0.9752
-3.8510 4.2723 -2.5067 0.9752
-4.4207 3.6808 -2.5070 0.9752
-4.5494 3.5207 -2.5071 0.9752
-5.2794 2.2855 -2.5072 0.9752
-5.3579 2.0955 -2.5072 0.9752
-5.5508 1.5103 -2.5071 0.9752
-5.6443 1.1102 -2.5070 0.9752
-5.6802 0.9079 -2.5069 0.9752
-5.7441 0.2951 -2.5067 0.9752
-5.7419 -0.3210 -2.5063 0.9752
4.2730 3.3243 -2.5060 0.9764
4.1502 3.4737 -2.5052 0.9764
4.0223 3.6186 -2.5044 0.9764
3.8894 3.7589 -2.5037 0.9764
3.4628 4.1506 -2.5021 0.9765
3.3122 4.2715 -2.5020 0.9765
3.1571 4.3864 -2.5016 0.9765
2.9978 4.4955 -2.5011 0.9765
2.8353 4.5996 -2.5011 0.9765
2.6692 4.6978 -2.5010 0.9765
2.3269 4.8762 -2.5009 0.9765
1.9728 5.0297 -2.5008 0.9765
1.7919 5.0969 -2.5008 0.9765
1.4238 5.2127 -2.5013 0.9765
1.2368 5.2608 -2.5015 0.9765
0.8583 5.3366 -2.5020 0.9765
0.2826 5.3993 -2.5026 0.9765
-0.6814 5.3659 -2.5037 0.9764
-1.0628 5.3044 -2.5041 0.9764
-1.2517 5.2634 -2.5043 0.9764
-1.4390 5.2158 -2.5045 0.9764
-1.6245 5.1614 -2.5047 0.9764
-1.8079 5.1005 -2.5048 0.9764
-1.9890 5.0330 -2.5050 0.9764
-2.1676 4.9590 -2.5052 0.9764
-2.5164 4.7922 -2.5055 0.9764
-2.6861 4.6996 -2.5056 0.9764
-3.0150 4.4963 -2.5059 0.9764
-3.3286 4.2700 -2.5061 0.9764
-3.7667 3.8899 -2.5064 0.9764
-4.0350 3.6114 -2.5065 0.9764
-4.1615 3.4650 -2.5066 0.9764
-4.2827 3.3142 -2.5066 0.9764
-4.3984 3.1592 -2.5067 0.9764
-4.6128 2.8373 -2.5068 0.9764
-4.7112 2.6707 -2.5068 0.9764
-4.8036 2.5008 -2.5068 0.9764
-5.0435 1.9726 -2.5068 0.9764
-5.1107 1.7912 -2.5068 0.9764
-5.2728 1.2343 -2.5066 0.9764
-5.3471 0.8547 -2.5065 0.9764
-5.3741 0.6631 -2.5065 0.9764
-5.3942 0.4707 -2.5064 0.9764
-5.4136 0.0845 -2.5062 0.9764
-5.4054 -0.3021 -2.5060 0.9764
4.0306 3.1357 -2.5049 0.9775
3.2675 3.9166 -2.5020 0.9775
3.1253 4.0305 -2.5018 0.9775
2.9788 4.1387 -2.5012 0.9775
2.8290 4.2423 -2.5012 0.9775
2.6756 4.3405 -2.5011 0.9775
2.5188 4.4333 -2.5011 0.9775
2.1959 4.6016 -2.5010 0.9775
2.0301 4.6770 -2.5009 0.9775
0.8099 5.0358 -2.5019 0.9775
0.4485 5.0816 -2.5023 0.9775
0.0846 5.1015 -2.5027 0.9775
-0.6429 5.0631 -2.5035 0.9775
-0.8234 5.0373 -2.5037 0.9775
-1.1811 4.9664 -2.5041 0.9775
-1.7058 4.8125 -2.5046 0.9775
-2.2112 4.6033 -2.5050 0.9775
-2.3743 4.5217 -2.5052 0.9775
-2.5344 4.4342 -2.5053 0.9775
-2.8448 4.2424 -2.5055 0.9775
-3.1406 4.0289 -2.5057 0.9775
-4.3522 2.6770 -2.5064 0.9775
-4.5323 2.3595 -2.5064 0.9775
-4.7586 1.8612 -2.5064 0.9775
-4.8793 1.5167 -2.5064 0.9775
-5.0132 0.9861 -2.5062 0.9775
-5.0895 0.4441 -2.5060 0.9775
-5.1020 0.2621 -2.5059 0.9775
-5.1073 -0.1027 -2.5058 0.9775
-5.1001 -0.2851 -2.5057 0.9775
3.9140 2.8266 -2.5046 0.9785
3.5871 3.2271 -2.5031 0.9785
3.4688 3.3524 -2.5026 0.9785
3.3467 3.4740 -2.5025 0.9785
2.8166 3.9133 -2.5013 0.9785
2.5299 4.1042 -2.5012 0.9785
2.3817 4.1919 -2.5011 0.9785
2.2304 4.2742 -2.5011 0.9785
2.0763 4.3510 -2.5011 0.9785
1.7604 4.4880 -2.5010 0.9785
1.5990 4.5479 -2.5009 0.9785
1.4355 4.6022 -2.5009 0.9785
1.2703 4.6509 -2.5011 0.9785
1.1035 4.6937 -2.5014 0.9785
0.9353 4.7305 -2.5016 0.9785
0.7658 4.7613 -2.5018 0.9785
0.4240 4.8046 -2.5022 0.9785
0.0800 4.8233 -2.5026 0.9785
-0.0923 4.8235 -2.5028 0.9785
-0.2646 4.8175 -2.5030 0.9785
-0.4365 4.8053 -2.5031 0.9785
-0.6079 4.7870 -2.5033 0.9785
-0.7785 4.7626 -2.5035 0.9785
-0.9482 4.7321 -2.5037 0.9785
-1.2837 4.6529 -2.5040 0.9785
-1.4492 4.6044 -2.5042 0.9785
-1.6128 4.5500 -2.5043 0.9785
-1.7743 4.4898 -2.5045 0.9785
-1.9337 4.4238 -2.5046 0.9785
-2.2448 4.2749 -2.5049 0.9785
-2.3961 4.1922 -2.5050 0.9785
-2.6895 4.0109 -2.5052 0.9785
-2.8312 3.9124 -2.5053 0.9785
-3.7121 3.0908 -2.5059 0.9785
-3.9234 2.8180 -2.5060 0.9785
-4.0216 2.6762 -2.5060 0.9785
-4.3618 2.0763 -2.5061 0.9785
-4.4331 1.9192 -2.5061 0.9785
-4.4988 1.7596 -2.5061 0.9785
-4.5588 1.5978 -2.5060 0.9785
-4.6129 1.4339 -2.5060 0.9785
-4.6611 1.2682 -2.5060 0.9785
-4.7395 0.9322 -2.5059 0.9785
-4.8117 0.4199 -2.5057 0.9785
-4.8291 0.0754 -2.5055 0.9785
-4.8218 -0.2695 -2.5053 0.9785
3.7066 2.6767 -2.5041 0.9794
3.6077 2.8067 -2.5034 0.9794
3.5048 2.9335 -2.5032 0.9794
3.3972 3.0562 -2.5027 0.9794
3.1696 3.2901 -2.5021 0.9794
3.0500 3.4012 -2.5021 0.9794
2.7986 3.6092 -2.5014 0.9794
2.6679 3.7067 -2.5013 0.9794
2.3964 3.8876 -2.5012 0.9794
2.2560 3.9706 -2.5012 0.9794
1.9667 4.1214 -2.5011 0.9794
1.3597 4.3592 -2.5010 0.9794
1.0452 4.4457 -2.5013 0.9794
0.8858 4.4805 -2.5015 0.9794
0.5638 4.5331 -2.5019 0.9794
0.4016 4.5506 -2.5021 0.9794
0.0758 4.5684 -2.5024 0.9794
-0.4134 4.5513 -2.5030 0.9794
-0.7373 4.5108 -2.5033 0.9794
-1.5275 4.3093 -2.5041 0.9794
-1.8314 4.1898 -2.5044 0.9794
-2.2694 3.9704 -2.5047 0.9794
-2.4098 3.8870 -2.5049 0.9794
-2.5472 3.7986 -2.5050 0.9794
-2.8121 3.6074 -2.5052 0.9794
-2.9392 3.5048 -2.5052 0.9794
-3.1821 3.2862 -2.5054 0.9794
-3.4087 3.0509 -2.5055 0.9794
-3.5156 2.9273 -2.5056 0.9794
-3.6180 2.7999 -2.5056 0.9794
-3.8087 2.5345 -2.5057 0.9794
-4.1985 1.8176 -2.5058 0.9794
-4.3175 1.5132 -2.5057 0.9794
-4.3687 1.3580 -2.5057 0.9794
-4.4887 0.8829 -2.5056 0.9794
-4.5401 0.5602 -2.5055 0.9794
-4.5571 0.3977 -2.5054 0.9794
-4.5682 0.2347 -2.5053 0.9794
-4.5735 0.0714 -2.5053 0.9794
-4.5730 -0.0920 -2.5052 0.9794
-4.5666 -0.2553 -2.5051 0.9794
3.0065 3.1209 -2.5019 0.9802
2.8927 3.2258 -2.5015 0.9802
2.7756 3.3269 -2.5015 0.9802
2.4037 3.6045 -2.5013 0.9802
2.2734 3.6880 -2.5013 0.9802
2.1402 3.7668 -2.5012 0.9802
2.0043 3.8408 -2.5012 0.9802
1.7249 3.9739 -2.5011 0.9802
1.2899 4.1354 -2.5010 0.9802
0.9915 4.2173 -2.5012 0.9802
0.5349 4.3001 -2.5018 0.9802
0.2266 4.3280 -2.5021 0.9802
-0.2377 4.3283 -2.5027 0.9802
-0.3921 4.3173 -2.5028 0.9802
-0.5461 4.3008 -2.5030 0.9802
-1.1533 4.1803 -2.5036 0.9802
-1.4489 4.0877 -2.5039 0.9802
-2.2858 3.6871 -2.5046 0.9802
-2.4162 3.6032 -2.5047 0.9802
-2.6674 3.4218 -2.5049 0.9802
-3.0184 3.1171 -2.5051 0.9802
-3.1279 3.0074 -2.5052 0.9802
-3.2333 2.8939 -2.5053 0.9802
-3.4318 2.6558 -2.5053 0.9802
-3.5245 2.5316 -2.5054 0.9802
-3.6127 2.4041 -2.5054 0.9802
-3.6963 2.2735 -2.5054 0.9802
-3.7752 2.1401 -2.5055 0.9802
-4.0415 1.5807 -2.5055 0.9802
-4.1872 1.1393 -2.5054 0.9802
-4.2252 0.9890 -2.5053 0.9802
-4.2577 0.8375 -2.5053 0.9802
-4.2848 0.6849 -2.5053 0.9802
-4.3065 0.5314 -2.5052 0.9802
-4.3382 0.0677 -2.5050 0.9802
