ply
format ascii 1.0
element vertex 898
property float32 x
property float32 y
property float32 z
property float32 I
end_header
-8.6169 -41.3175 7.4421 0.8425
-7.0950 -41.3698 7.4011 0.8433
-5.5879 -41.4215 7.3699 0.8439
-2.2630 -36.1143 6.3804 0.8633
0.3718 -41.6261 7.3401 0.8444
1.8637 -41.6773 7.3562 0.8441
4.8921 -41.9113 7.4402 0.8425
7.5376 -39.6824 7.1222 0.8487
12.1409 -39.9578 7.3637 0.8440
12.9932 -37.8427 7.0550 0.8500
16.9112 -36.1085 7.0306 0.8505
18.3405 -35.7720 7.0883 0.8494
19.9212 -35.6548 7.2017 0.8471
11.5581 -19.0533 3.9294 0.9135
20.5077 -28.9222 6.2517 0.8659
20.2026 -26.4356 5.8666 0.8736
29.4831 -26.8924 7.0364 0.8504
31.9267 -27.0952 7.3836 0.8436
37.2517 -27.2870 8.1421 0.8290
40.1502 -27.2596 8.5571 0.8211
20.7764 6.3689 3.8317 0.9155
36.0323 13.9326 6.8119 0.8548
23.5451 14.3626 4.8631 0.8940
-2.4299 -24.6303 3.7915 0.9047
17.9665 -42.2299 7.0305 0.8305
19.8100 -38.6382 6.6518 0.8389
19.9945 -32.9605 5.9058 0.8556
25.0476 -38.1452 6.9908 0.8314
20.0550 -28.2838 5.3116 0.8691
34.4135 -31.3895 7.1356 0.8282
37.3692 -29.4823 7.2919 0.8248
37.0686 -27.1528 7.0392 0.8303
40.3355 -27.3854 7.4688 0.8210
39.8742 13.8010 6.4640 0.8430
20.8001 8.0428 3.4164 0.9137
32.7872 14.0449 5.4643 0.8656
29.8419 14.0663 5.0540 0.8750
27.5756 14.2244 4.7534 0.8820
22.3591 14.7611 4.1044 0.8973
-2.4299 -24.6299 3.2229 0.9050
-2.6936 -42.9851 5.6085 0.8405
20.3453 -30.9840 4.8269 0.8611
36.0351 13.9338 5.0311 0.8557
32.6154 13.9714 4.6205 0.8666
27.5765 14.2248 4.0406 0.8824
25.4429 14.2982 3.8005 0.8889
23.5464 14.3634 3.5917 0.8947
22.3591 14.7611 3.4889 0.8976
-2.6927 -42.9709 4.6233 0.8410
19.6226 -19.2276 2.9501 0.8954
39.8776 13.8021 4.5314 0.8439
36.0365 13.9343 4.1489 0.8560
29.8439 14.0672 3.5429 0.8757
22.3590 14.7610 2.8770 0.8978
19.7411 -42.1508 3.9401 0.8296
36.0379 13.9348 3.2708 0.8563
28.5630 12.2354 2.6304 0.8827
28.7048 13.5303 2.6863 0.8804
27.5782 14.2257 2.6269 0.8829
25.4444 14.2990 2.4708 0.8894
23.5477 14.3642 2.3350 0.8952
22.3590 14.7610 2.2680 0.8980
-2.3841 -24.1664 1.5058 0.9073
33.3830 11.5543 2.1906 0.8680
27.3342 11.7091 1.8440 0.8877
27.5061 14.1884 1.9192 0.8833
23.5484 14.3646 1.7105 0.8953
22.3590 14.7610 1.6614 0.8982
-1.5162 -24.1958 0.9559 0.9075
19.5575 -25.5914 1.2700 0.8790
20.5229 -24.9526 1.2740 0.8787
33.2449 11.5065 1.3872 0.8686
31.4223 12.1501 1.3284 0.8738
31.7410 13.5968 1.3616 0.8709
27.5799 14.2266 1.2237 0.8832
25.4459 14.2999 1.1509 0.8897
23.5490 14.3650 1.0877 0.8955
22.3589 14.7610 1.0564 0.8983
-2.3841 -24.1656 0.4102 0.9074
18.8533 -44.3143 0.8135 0.8248
20.5225 -24.9521 0.5457 0.8788
31.4192 12.1489 0.5690 0.8739
27.5808 14.2270 0.5242 0.8832
25.4466 14.3003 0.4931 0.8898
23.5497 14.3654 0.4660 0.8955
22.3589 14.7609 0.4526 0.8984
-3.7602 -18.0299 -0.1037 0.9290
-3.9234 -22.8766 -0.1307 0.9113
-4.0683 -30.1573 -0.1713 0.8854
-2.3840 -24.1653 -0.1367 0.9074
18.5257 -43.5443 -0.2664 0.8275
18.6683 -39.8602 -0.2478 0.8386
18.9895 -31.3039 -0.2061 0.8638
19.0724 -29.0455 -0.1956 0.8702
19.1530 -27.0117 -0.1864 0.8759
19.2242 -25.1554 -0.1782 0.8810
19.2895 -23.4530 -0.1710 0.8856
21.9652 -23.1191 -0.1795 0.8802
32.0083 -23.4461 -0.2234 0.8532
34.6627 -23.5339 -0.2359 0.8457
37.6585 -23.6465 -0.2504 0.8371
31.4160 12.1477 -0.1896 0.8739
30.0071 14.1442 -0.1868 0.8757
27.5816 14.2275 -0.1747 0.8833
23.5503 14.3658 -0.1553 0.8955
-3.9241 -22.8810 -0.6537 0.9113
-4.2168 -31.2581 -0.8881 0.8814
-2.3840 -24.1649 -0.6837 0.9074
-1.5161 -24.1947 -0.6826 0.9075
18.5258 -43.5445 -1.3325 0.8275
18.6684 -39.8604 -1.2394 0.8385
18.8962 -33.8204 -1.0909 0.8564
18.9887 -31.3025 -1.0309 0.8637
19.2246 -25.1559 -0.8915 0.8810
20.3956 -23.0651 -0.8670 0.8841
21.9646 -23.1185 -0.8979 0.8802
25.4784 -23.2396 -0.9710 0.8711
27.4680 -23.3112 -1.0144 0.8657
34.6633 -23.5343 -1.1797 0.8456
31.3426 13.4262 -0.9601 0.8725
-3.9249 -22.8854 -1.1776 0.9112
-4.2161 -31.2529 -1.5993 0.8813
-2.3840 -24.1646 -1.2314 0.9073
-1.5161 -24.1944 -1.2294 0.9075
-1.2611 -46.9993 -2.3844 0.8284
0.4191 -46.9266 -2.3799 0.8287
18.7868 -36.6425 -2.0883 0.8480
18.8953 -33.8187 -1.9646 0.8563
18.9878 -31.3010 -1.8566 0.8636
19.2250 -25.1564 -1.6057 0.8809
19.2902 -23.4539 -1.5401 0.8855
20.3951 -23.0645 -1.5614 0.8840
21.9641 -23.1179 -1.6172 0.8801
25.4784 -23.2395 -1.7489 0.8710
34.6639 -23.5347 -2.1248 0.8455
37.6533 -23.6433 -2.2548 0.8369
41.1931 -21.9287 -2.3666 0.8295
41.9350 -20.4344 -2.3658 0.8296
43.2106 -17.3549 -2.3615 0.8299
47.1764 -15.1329 -2.5126 0.8200
48.7625 -8.2389 -2.5080 0.8203
49.2951 -2.9667 -2.5045 0.8205
49.3343 0.5626 -2.5021 0.8207
49.1214 4.0822 -2.4997 0.8208
48.9208 5.8329 -2.4986 0.8209
48.6580 7.5744 -2.4974 0.8210
43.0285 9.8907 -2.2391 0.8379
42.7257 13.0974 -2.2663 0.8361
32.0895 11.1066 -1.7221 0.8728
29.5447 11.4240 -1.6064 0.8808
27.0472 11.5862 -1.4922 0.8888
26.7124 12.5912 -1.4977 0.8885
26.7539 13.8005 -1.5267 0.8864
25.4489 14.3015 -1.4805 0.8897
-3.7619 -18.0381 -1.3510 0.9288
-3.9256 -22.8898 -1.7028 0.9111
-4.0898 -30.3169 -2.2430 0.8845
-0.8687 -32.3765 -2.3748 0.8782
2.7660 -34.3102 -2.5239 0.8711
2.7044 -23.1689 -1.7103 0.9107
5.2102 -34.0236 -2.5238 0.8711
4.4114 -23.2240 -1.7333 0.9095
7.6272 -33.5613 -2.5235 0.8711
8.0123 -23.3360 -1.8091 0.9058
9.9529 -23.3942 -1.8641 0.9031
14.5895 -31.1513 -2.5222 0.8711
17.1413 -28.2572 -2.4233 0.8759
15.4654 -23.5523 -2.0659 0.8931
16.8961 -23.8287 -2.1418 0.8894
23.8183 -21.7254 -2.3638 0.8787
24.5752 -20.8562 -2.3633 0.8787
25.3002 -19.9604 -2.3629 0.8788
27.8547 -16.1318 -2.3602 0.8789
30.7967 -15.0069 -2.5119 0.8716
31.7716 -12.7606 -2.5104 0.8717
33.2252 -8.0917 -2.5073 0.8718
33.6965 -5.6934 -2.5057 0.8719
33.8680 -4.4837 -2.5049 0.8720
33.9956 -3.2690 -2.5041 0.8720
34.1200 -0.8311 -2.5025 0.8721
34.1168 0.3890 -2.5017 0.8721
34.0698 1.6079 -2.5009 0.8721
33.8456 4.0354 -2.4992 0.8722
33.1867 7.6284 -2.4968 0.8723
30.8782 8.2703 -2.3439 0.8797
29.2810 10.1345 -2.2719 0.8831
28.1701 10.8926 -2.2145 0.8859
26.6723 11.4255 -2.1276 0.8901
26.7123 12.5912 -2.1653 0.8883
26.7539 13.8004 -2.2073 0.8863
25.4496 14.3020 -2.1405 0.8895
-3.7625 -18.0409 -1.7693 0.9286
-3.2938 -24.4161 -2.3653 0.9057
-1.5160 -24.1936 -2.3273 0.9072
-0.6621 -24.6742 -2.3697 0.9056
1.0300 -23.0339 -2.2136 0.9115
3.9706 -25.9284 -2.5183 0.9000
6.1513 -23.1958 -2.3039 0.9081
7.6245 -25.0934 -2.5178 0.9000
7.9828 -23.2501 -2.3600 0.9059
10.2650 -24.1276 -2.5173 0.9000
11.1199 -23.7431 -2.5171 0.9000
11.9604 -23.3281 -2.5168 0.9000
12.7854 -22.8832 -2.5165 0.9000
14.3843 -21.9060 -2.5159 0.9000
15.9085 -20.8166 -2.5153 0.9001
16.6400 -20.2316 -2.5149 0.9001
18.0779 -17.7141 -2.4299 0.9033
18.6458 -17.0074 -2.4229 0.9036
19.3156 -16.3925 -2.4322 0.9032
21.6420 -14.6936 -2.5114 0.9002
22.6273 -13.1043 -2.5103 0.9003
23.4956 -11.4491 -2.5092 0.9003
24.5697 -8.8619 -2.5075 0.9004
25.1283 -7.0803 -2.5064 0.9004
25.8558 -3.4230 -2.5039 0.9005
26.0542 -0.6347 -2.5021 0.9006
25.5536 4.9193 -2.4983 0.9007
24.8619 7.6213 -2.4965 0.9008
21.4032 10.0887 -2.2716 0.9093
21.0240 10.8448 -2.2711 0.9093
20.1819 12.3111 -2.2696 0.9094
20.2175 13.3472 -2.3258 0.9072
-3.7631 -18.0437 -2.1894 0.9284
-2.6638 -19.7462 -2.3668 0.9229
-1.9563 -19.8295 -2.3669 0.9229
-0.5344 -19.9158 -2.3666 0.9229
1.7013 -21.1037 -2.5149 0.9183
2.4546 -21.0291 -2.5149 0.9183
3.2048 -20.9276 -2.5149 0.9183
3.9508 -20.7992 -2.5148 0.9183
4.6916 -20.6440 -2.5147 0.9183
6.1542 -20.2543 -2.5145 0.9183
6.8739 -20.0204 -2.5144 0.9183
7.5848 -19.7606 -2.5143 0.9183
8.2858 -19.4756 -2.5141 0.9183
8.9761 -19.1655 -2.5139 0.9183
10.3208 -18.4722 -2.5135 0.9183
10.9735 -18.0897 -2.5133 0.9183
14.0077 -15.8411 -2.5119 0.9183
15.0998 -14.7959 -2.5112 0.9184
15.6169 -14.2446 -2.5108 0.9184
17.4828 -11.8698 -2.5101 0.9184
17.8924 -11.2350 -2.5096 0.9184
18.2790 -10.5861 -2.5091 0.9184
18.6420 -9.9239 -2.5086 0.9184
18.9811 -9.2493 -2.5081 0.9185
19.8503 -7.1597 -2.5066 0.9185
20.3030 -5.7209 -2.5056 0.9185
20.4905 -4.9903 -2.5051 0.9186
20.6517 -4.2538 -2.5046 0.9186
20.8947 -2.7662 -2.5037 0.9186
20.9762 -2.0171 -2.5032 0.9186
21.0587 -0.5130 -2.5022 0.9186
20.7493 3.9944 -2.5100 0.9184
20.6173 4.7392 -2.5129 0.9183
20.4583 5.4795 -2.5158 0.9182
19.8209 7.6641 -2.5243 0.9180
19.6785 9.2756 -2.5842 0.9161
18.8576 10.5974 -2.5695 0.9166
-3.3993 -16.2994 -2.3591 0.9349
-2.8177 -16.4294 -2.3619 0.9349
-1.0421 -16.6302 -2.3609 0.9349
0.1493 -16.7204 -2.3692 0.9347
0.7802 -17.4486 -2.4748 0.9319
2.0560 -17.6137 -2.5126 0.9309
2.6843 -17.5287 -2.5126 0.9309
3.3091 -17.4212 -2.5125 0.9309
3.9297 -17.2913 -2.5125 0.9309
6.9405 -16.3134 -2.5119 0.9309
8.0874 -15.7737 -2.5116 0.9309
8.6454 -15.4734 -2.5114 0.9309
10.2497 -14.4553 -2.5108 0.9309
10.7590 -14.0783 -2.5106 0.9309
11.2542 -13.6834 -2.5103 0.9309
11.7350 -13.2709 -2.5100 0.9309
13.5006 -11.4575 -2.5089 0.9310
13.8998 -10.9662 -2.5086 0.9310
14.2810 -10.4609 -2.5082 0.9310
14.6439 -9.9423 -2.5079 0.9310
14.9979 -9.4174 -2.5092 0.9310
15.3224 -8.8738 -2.5088 0.9310
15.9120 -7.7537 -2.5080 0.9310
16.1762 -7.1787 -2.5076 0.9310
16.4198 -6.5948 -2.5071 0.9310
16.6422 -6.0026 -2.5067 0.9310
17.3164 -3.5668 -2.5050 0.9311
17.4299 -2.9450 -2.5046 0.9311
17.5212 -2.3196 -2.5042 0.9311
17.6365 -1.0614 -2.5034 0.9311
17.6604 -0.4302 -2.5030 0.9311
17.6405 0.8325 -2.5023 0.9311
17.5968 1.4624 -2.5019 0.9311
17.5307 2.0902 -2.5015 0.9312
17.4423 2.7152 -2.5011 0.9312
17.3697 3.3438 -2.5063 0.9310
17.2559 3.9665 -2.5087 0.9310
16.9610 5.1993 -2.5136 0.9308
16.3523 7.0048 -2.5206 0.9307
-3.1114 -14.9190 -2.5106 0.9401
-2.5762 -15.0212 -2.5107 0.9401
0.1361 -15.2414 -2.5110 0.9401
1.2248 -15.1927 -2.5110 0.9401
2.8442 -14.9738 -2.5109 0.9401
3.3776 -14.8622 -2.5108 0.9401
4.4306 -14.5820 -2.5107 0.9401
4.9489 -14.4137 -2.5106 0.9401
5.4608 -14.2270 -2.5105 0.9401
5.9656 -14.0221 -2.5103 0.9401
7.4313 -13.3004 -2.5099 0.9401
7.9015 -13.0254 -2.5097 0.9401
8.8106 -12.4257 -2.5094 0.9401
9.2485 -12.1019 -2.5092 0.9401
9.6744 -11.7625 -2.5090 0.9401
10.4882 -11.0392 -2.5085 0.9401
11.2479 -10.2596 -2.5080 0.9401
11.9497 -9.4276 -2.5075 0.9402
12.5899 -8.5478 -2.5069 0.9402
12.8859 -8.0913 -2.5066 0.9402
13.1773 -7.6315 -2.5086 0.9401
13.6850 -6.6686 -2.5079 0.9402
13.9127 -6.1742 -2.5075 0.9402
14.1224 -5.6721 -2.5071 0.9402
14.3141 -5.1628 -2.5068 0.9402
14.9933 -2.5333 -2.5050 0.9402
15.0722 -1.9954 -2.5046 0.9402
15.1318 -1.4551 -2.5043 0.9402
15.1765 0.7162 -2.5029 0.9403
15.0827 1.7983 -2.5023 0.9403
14.9119 2.8707 -2.5017 0.9403
14.7980 3.4015 -2.5014 0.9403
14.6652 3.9279 -2.5011 0.9403
14.5664 4.4653 -2.5099 0.9401
14.2329 5.5034 -2.5139 0.9400
13.8248 6.5164 -2.5178 0.9399
13.3438 7.4988 -2.5216 0.9398
12.7921 8.4451 -2.5252 0.9398
-1.7850 -13.2315 -2.5095 0.9471
-0.3581 -13.3472 -2.5097 0.9471
0.1192 -13.3517 -2.5097 0.9471
0.5965 -13.3389 -2.5097 0.9471
1.0729 -13.3090 -2.5097 0.9471
2.4916 -13.1173 -2.5096 0.9471
2.9589 -13.0196 -2.5096 0.9471
4.3354 -12.6269 -2.5093 0.9471
5.2261 -12.2838 -2.5091 0.9471
5.6616 -12.0886 -2.5090 0.9471
6.9222 -11.4111 -2.5086 0.9471
7.3252 -11.1557 -2.5085 0.9471
7.7188 -10.8860 -2.5083 0.9471
8.1025 -10.6023 -2.5081 0.9471
8.4757 -10.3051 -2.5079 0.9471
8.8380 -9.9947 -2.5077 0.9471
9.5279 -9.3361 -2.5073 0.9472
9.8547 -8.9888 -2.5071 0.9472
11.5356 -6.6807 -2.5056 0.9472
11.9939 -5.8445 -2.5078 0.9471
12.3777 -4.9713 -2.5072 0.9472
12.5459 -4.5251 -2.5068 0.9472
12.8340 -3.6162 -2.5062 0.9472
12.9534 -3.1547 -2.5059 0.9472
13.0563 -2.6893 -2.5056 0.9472
13.2118 -1.7491 -2.5050 0.9472
13.2642 -1.2755 -2.5047 0.9472
13.2998 -0.8004 -2.5044 0.9472
13.3198 0.1519 -2.5038 0.9472
13.2719 1.1030 -2.5032 0.9472
13.2225 1.5765 -2.5029 0.9472
13.1562 2.0480 -2.5026 0.9473
13.0732 2.5167 -2.5024 0.9473
12.5759 4.3526 -2.5014 0.9473
12.0985 5.7027 -2.5140 0.9470
11.6754 6.5612 -2.5173 0.9470
11.4406 6.9788 -2.5189 0.9469
11.1907 7.3878 -2.5204 0.9469
-2.4227 -11.6170 -2.5084 0.9526
-1.1652 -11.8104 -2.5086 0.9526
-0.3183 -11.8638 -2.5087 0.9526
0.5302 -11.8564 -2.5087 0.9526
1.7965 -11.7312 -2.5087 0.9526
2.2147 -11.6594 -2.5086 0.9526
2.6300 -11.5725 -2.5086 0.9526
3.4500 -11.3545 -2.5085 0.9526
3.8536 -11.2236 -2.5084 0.9526
4.6454 -10.9188 -2.5082 0.9526
5.7869 -10.3573 -2.5079 0.9527
6.5114 -9.9163 -2.5076 0.9527
7.2024 -9.4246 -2.5073 0.9527
7.5342 -9.1605 -2.5071 0.9527
7.8564 -8.8846 -2.5070 0.9527
8.7604 -7.9906 -2.5064 0.9527
9.5632 -7.0050 -2.5058 0.9527
10.0374 -6.3027 -2.5053 0.9527
10.2553 -5.9393 -2.5051 0.9527
10.4601 -5.5683 -2.5048 0.9527
10.8414 -4.8113 -2.5072 0.9527
11.0064 -4.4205 -2.5072 0.9527
11.2916 -3.6220 -2.5066 0.9527
11.5189 -2.8054 -2.5060 0.9527
11.6873 -1.9747 -2.5055 0.9527
11.8444 -0.2885 -2.5044 0.9527
11.8459 0.1351 -2.5041 0.9527
11.8323 0.5584 -2.5039 0.9527
11.7598 1.4021 -2.5034 0.9527
11.7010 1.8214 -2.5031 0.9527
11.4355 3.0629 -2.5024 0.9528
11.1855 3.8714 -2.5020 0.9528
10.8785 4.6600 -2.5016 0.9528
10.7042 5.0455 -2.5014 0.9528
10.5499 5.4419 -2.5092 0.9526
10.1588 6.1969 -2.5154 0.9525
-1.4265 -10.5745 -2.5078 0.9571
-1.0476 -10.6189 -2.5078 0.9571
0.0953 -10.6704 -2.5079 0.9571
0.4767 -10.6602 -2.5079 0.9571
0.8575 -10.6363 -2.5079 0.9571
1.9912 -10.4831 -2.5078 0.9571
2.7351 -10.3137 -2.5077 0.9571
3.8233 -9.9608 -2.5075 0.9571
4.1768 -9.8174 -2.5075 0.9571
4.8672 -9.4932 -2.5073 0.9571
6.7746 -8.2368 -2.5065 0.9571
7.0642 -7.9888 -2.5063 0.9571
7.3448 -7.7307 -2.5062 0.9571
7.6160 -7.4627 -2.5060 0.9571
7.8773 -7.1851 -2.5058 0.9571
8.3693 -6.6030 -2.5054 0.9571
9.0260 -5.6676 -2.5048 0.9572
9.5784 -4.6675 -2.5042 0.9572
9.7382 -4.3217 -2.5040 0.9572
10.0340 -3.6191 -2.5069 0.9571
10.1559 -3.2578 -2.5067 0.9571
10.5123 -1.7762 -2.5057 0.9571
4.1072 -0.3949 -0.9697 0.9832
4.1117 -0.2474 -0.9681 0.9832
4.1262 0.1947 -0.9708 0.9832
4.2596 0.3540 -1.0046 0.9826
10.5256 1.6385 -2.5035 0.9572
10.4594 2.0135 -2.5033 0.9572
9.9307 3.8399 -2.5023 0.9572
9.6296 4.5390 -2.5020 0.9572
8.8991 5.8750 -2.5062 0.9571
-1.6367 -9.5435 -2.5071 0.9608
0.0865 -9.6831 -2.5072 0.9608
1.8070 -9.5132 -2.5072 0.9608
2.4820 -9.3595 -2.5071 0.9608
3.7904 -8.9092 -2.5068 0.9608
4.1063 -8.7677 -2.5067 0.9608
4.4169 -8.6150 -2.5067 0.9608
5.3132 -8.0915 -2.5063 0.9608
5.8772 -7.6905 -2.5061 0.9608
6.4110 -7.2501 -2.5058 0.9608
6.6657 -7.0158 -2.5057 0.9608
7.1490 -6.5208 -2.5053 0.9608
7.3771 -6.2607 -2.5052 0.9608
7.8044 -5.7168 -2.5048 0.9608
8.1917 -5.1438 -2.5045 0.9608
8.3698 -4.8473 -2.5043 0.9608
8.5370 -4.5446 -2.5041 0.9608
8.6933 -4.2362 -2.5039 0.9608
9.0946 -3.2803 -2.5032 0.9608
9.2106 -2.9545 -2.5045 0.9608
3.7560 -0.4972 -0.9810 0.9845
3.7224 -0.3579 -0.9682 0.9847
3.7258 -0.2242 -0.9664 0.9847
3.7274 -0.0908 -0.9654 0.9847
3.7279 0.1759 -0.9663 0.9847
3.8161 0.3171 -0.9915 0.9843
9.6033 1.1450 -2.5041 0.9608
9.5555 1.4874 -2.5039 0.9608
9.4955 1.8279 -2.5037 0.9608
9.4234 2.1661 -2.5035 0.9608
9.3392 2.5014 -2.5033 0.9608
9.2432 2.8334 -2.5031 0.9608
9.1353 3.1618 -2.5030 0.9608
8.5891 4.4305 -2.5023 0.9609
8.4248 4.7345 -2.5022 0.9609
8.2497 5.0323 -2.5020 0.9609
-1.8076 -8.6674 -2.5065 0.9639
-1.4966 -8.7267 -2.5065 0.9639
0.3956 -8.8458 -2.5067 0.9639
0.7115 -8.8259 -2.5067 0.9639
1.3403 -8.7524 -2.5066 0.9639
1.9622 -8.6341 -2.5066 0.9639
2.5740 -8.4716 -2.5065 0.9639
3.1726 -8.2656 -2.5064 0.9639
3.7549 -8.0173 -2.5062 0.9639
4.0389 -7.8777 -2.5061 0.9639
4.3178 -7.7280 -2.5061 0.9639
4.8585 -7.3992 -2.5059 0.9639
5.1197 -7.2204 -2.5057 0.9639
5.3743 -7.0324 -2.5056 0.9639
6.3205 -6.1933 -2.5051 0.9639
6.5375 -5.9630 -2.5049 0.9639
6.7461 -5.7252 -2.5048 0.9639
7.3188 -4.9691 -2.5043 0.9639
7.8071 -4.1561 -2.5038 0.9639
8.2053 -3.2955 -2.5032 0.9639
8.3172 -2.9999 -2.5030 0.9639
8.5977 -2.0940 -2.5051 0.9639
3.5420 -0.5985 -1.0169 0.9852
8.6857 1.6721 -2.5040 0.9639
8.6197 1.9813 -2.5038 0.9639
8.5428 2.2880 -2.5036 0.9639
8.4550 2.5918 -2.5035 0.9639
8.2472 3.1889 -2.5032 0.9639
7.3768 4.8700 -2.5024 0.9639
-1.3772 -8.0304 -2.5060 0.9665
-0.2185 -8.1452 -2.5062 0.9665
0.9447 -8.0931 -2.5062 0.9665
1.2334 -8.0542 -2.5062 0.9665
1.8057 -7.9453 -2.5061 0.9665
2.6458 -7.7059 -2.5060 0.9665
2.9195 -7.6062 -2.5059 0.9665
3.1895 -7.4968 -2.5059 0.9665
3.4553 -7.3778 -2.5058 0.9665
3.7168 -7.2493 -2.5057 0.9665
3.9734 -7.1116 -2.5056 0.9665
4.2249 -6.9647 -2.5055 0.9665
4.7114 -6.6446 -2.5053 0.9665
4.9457 -6.4716 -2.5052 0.9665
5.1737 -6.2904 -2.5051 0.9665
5.6094 -5.9041 -2.5049 0.9665
6.3922 -5.0431 -2.5043 0.9665
7.1849 -3.8248 -2.5035 0.9665
7.3165 -3.5653 -2.5034 0.9665
7.4388 -3.3012 -2.5032 0.9665
7.5515 -3.0330 -2.5030 0.9665
7.7478 -2.4853 -2.5027 0.9665
7.9690 -1.6414 -2.5026 0.9665
3.2734 -0.3148 -1.0115 0.9863
3.2780 -0.0798 -1.0085 0.9864
3.2781 0.1547 -1.0094 0.9864
8.0455 1.2524 -2.5044 0.9665
7.9344 1.8238 -2.5041 0.9665
7.8636 2.1062 -2.5039 0.9665
7.7828 2.3858 -2.5038 0.9665
7.4814 3.2048 -2.5034 0.9665
7.0942 3.9867 -2.5030 0.9665
6.7906 4.4830 -2.5027 0.9665
-1.2742 -7.4295 -2.5056 0.9687
-1.0078 -7.4704 -2.5057 0.9687
-0.4714 -7.5235 -2.5057 0.9687
0.0673 -7.5380 -2.5058 0.9687
0.6058 -7.5140 -2.5058 0.9687
0.8740 -7.4875 -2.5058 0.9687
1.1411 -7.4514 -2.5058 0.9687
1.4067 -7.4058 -2.5057 0.9687
1.6706 -7.3507 -2.5057 0.9687
2.4478 -7.1292 -2.5056 0.9687
2.7010 -7.0370 -2.5055 0.9687
2.9508 -6.9358 -2.5055 0.9687
3.9088 -6.4436 -2.5052 0.9687
4.1365 -6.2996 -2.5051 0.9687
4.3589 -6.1474 -2.5050 0.9687
4.5757 -5.9874 -2.5049 0.9687
5.7439 -4.8746 -2.5042 0.9687
5.9142 -4.6660 -2.5041 0.9687
6.2317 -4.2310 -2.5038 0.9687
6.7695 -3.2987 -2.5032 0.9688
6.9870 -2.8062 -2.5028 0.9688
7.0824 -2.5545 -2.5027 0.9688
3.1808 -0.6552 -1.0795 0.9864
3.1293 -0.5287 -1.0550 0.9867
3.1222 0.1473 -1.0390 0.9869
3.1436 0.2613 -1.0486 0.9868
7.4452 1.1589 -2.5046 0.9687
7.3425 1.6878 -2.5043 0.9687
7.2023 2.2078 -2.5040 0.9687
7.1184 2.4637 -2.5039 0.9687
7.0254 2.7165 -2.5038 0.9687
6.9234 2.9657 -2.5036 0.9688
6.4288 3.9216 -2.5032 0.9688
6.2842 4.1487 -2.5031 0.9688
-1.4303 -6.8581 -2.5053 0.9707
-1.1842 -6.9049 -2.5053 0.9707
-0.6878 -6.9721 -2.5054 0.9707
-0.4382 -6.9923 -2.5054 0.9707
-0.1879 -7.0035 -2.5054 0.9707
0.0626 -7.0058 -2.5054 0.9707
0.5630 -6.9834 -2.5054 0.9707
0.8123 -6.9588 -2.5054 0.9707
1.0605 -6.9253 -2.5054 0.9707
1.5526 -6.8317 -2.5053 0.9707
1.7958 -6.7717 -2.5053 0.9707
2.0367 -6.7031 -2.5053 0.9707
2.2750 -6.6259 -2.5052 0.9707
2.7425 -6.4461 -2.5051 0.9707
2.9711 -6.3439 -2.5051 0.9707
3.1959 -6.2334 -2.5050 0.9707
4.0512 -5.7135 -2.5047 0.9707
4.2527 -5.5648 -2.5046 0.9707
4.4488 -5.4090 -2.5045 0.9707
5.0017 -4.9010 -2.5042 0.9707
5.3386 -4.5307 -2.5039 0.9707
5.4968 -4.3367 -2.5038 0.9707
5.6481 -4.1372 -2.5037 0.9707
6.3972 -2.8390 -2.5028 0.9707
6.5829 -2.3743 -2.5025 0.9707
6.7980 -1.6556 -2.5021 0.9707
3.0315 -0.6244 -1.1068 0.9869
2.9878 -0.3955 -1.0778 0.9873
2.9972 -0.1804 -1.0738 0.9873
2.9987 -0.0730 -1.0727 0.9873
2.9979 0.0342 -1.0721 0.9873
3.0534 0.3641 -1.0997 0.9870
6.9210 1.0774 -2.5048 0.9707
6.7648 1.8118 -2.5044 0.9707
6.6953 2.0524 -2.5043 0.9707
6.5309 2.5253 -2.5040 0.9707
6.4362 2.7570 -2.5039 0.9707
6.3332 2.9852 -2.5038 0.9707
6.2221 3.2096 -2.5037 0.9707
6.1032 3.4298 -2.5036 0.9707
5.9764 3.6456 -2.5035 0.9707
5.8421 3.8568 -2.5034 0.9707
-1.1049 -6.4427 -2.5050 0.9724
-0.4088 -6.5242 -2.5051 0.9724
0.0584 -6.5368 -2.5051 0.9724
0.2920 -6.5305 -2.5051 0.9724
0.9895 -6.4617 -2.5051 0.9724
1.6756 -6.3184 -2.5050 0.9724
1.9004 -6.2544 -2.5050 0.9724
2.1227 -6.1823 -2.5049 0.9724
2.3423 -6.1024 -2.5049 0.9724
2.7722 -5.9192 -2.5048 0.9724
3.1879 -5.7057 -2.5047 0.9724
3.3897 -5.5879 -2.5046 0.9724
4.1510 -5.0470 -2.5042 0.9724
4.3286 -4.8952 -2.5041 0.9724
4.5007 -4.7371 -2.5040 0.9724
4.8273 -4.4031 -2.5038 0.9724
4.9814 -4.2275 -2.5037 0.9724
5.4046 -3.6694 -2.5034 0.9724
5.6523 -3.2735 -2.5031 0.9724
5.8712 -2.8610 -2.5028 0.9724
5.9694 -2.6491 -2.5027 0.9724
6.1427 -2.2156 -2.5024 0.9724
2.8921 -0.5957 -1.1316 0.9874
2.8621 -0.4836 -1.1124 0.9876
2.8704 -0.3800 -1.1096 0.9877
2.8764 -0.2766 -1.1074 0.9877
2.8819 -0.0702 -1.1047 0.9877
2.8811 0.0329 -1.1042 0.9877
3.5542 0.5533 -1.3784 0.9847
6.3699 1.4642 -2.5047 0.9724
6.3131 1.6909 -2.5046 0.9724
6.1756 2.1374 -2.5043 0.9724
5.8069 2.9953 -2.5039 0.9724
5.6958 3.2009 -2.5038 0.9724
5.5776 3.4023 -2.5037 0.9724
5.4522 3.5994 -2.5036 0.9724
-1.2494 -5.9909 -2.5047 0.9739
-1.0345 -6.0319 -2.5047 0.9739
-0.3827 -6.1081 -2.5048 0.9739
-0.1642 -6.1179 -2.5048 0.9739
0.0547 -6.1199 -2.5048 0.9739
0.2734 -6.1141 -2.5048 0.9739
0.4918 -6.1004 -2.5048 0.9739
0.7096 -6.0789 -2.5048 0.9739
1.7792 -5.8555 -2.5047 0.9739
1.9873 -5.7881 -2.5047 0.9739
2.1929 -5.7133 -2.5046 0.9739
2.5954 -5.5418 -2.5045 0.9739
2.9846 -5.3419 -2.5044 0.9739
3.1736 -5.2316 -2.5043 0.9739
3.3585 -5.1147 -2.5043 0.9739
3.5391 -4.9912 -2.5042 0.9739
3.7151 -4.8613 -2.5041 0.9739
4.2138 -4.4352 -2.5038 0.9739
4.6638 -3.9581 -2.5035 0.9739
5.8215 -1.8674 -2.5022 0.9739
2.7689 -0.4678 -1.1493 0.9879
2.7704 -0.1667 -1.1359 0.9881
2.7720 -0.0675 -1.1349 0.9881
2.7723 0.0316 -1.1347 0.9881
2.7786 0.2309 -1.1411 0.9880
2.7995 0.3338 -1.1539 0.9879
2.8291 0.4404 -1.1718 0.9877
5.9647 1.3711 -2.5049 0.9739
5.6246 2.4093 -2.5043 0.9739
5.5346 2.6088 -2.5042 0.9739
5.2229 3.1860 -2.5039 0.9739
5.1055 3.3706 -2.5038 0.9739
-1.1732 -5.6255 -2.5044 0.9752
-0.9714 -5.6640 -2.5045 0.9752
-0.3594 -5.7356 -2.5045 0.9752
0.2567 -5.7411 -2.5046 0.9752
0.4618 -5.7283 -2.5046 0.9752
1.2736 -5.6039 -2.5045 0.9752
1.4731 -5.5547 -2.5045 0.9752
1.8661 -5.4351 -2.5044 0.9752
2.2496 -5.2877 -2.5043 0.9752
2.6216 -5.1132 -2.5042 0.9752
2.9801 -4.9126 -2.5041 0.9752
3.1537 -4.8028 -2.5040 0.9752
3.4886 -4.5649 -2.5039 0.9752
3.6494 -4.4371 -2.5038 0.9752
3.8056 -4.3037 -2.5037 0.9752
3.9569 -4.1647 -2.5036 0.9752
4.1031 -4.0205 -2.5036 0.9752
4.2440 -3.8711 -2.5035 0.9752
4.6335 -3.3941 -2.5032 0.9752
4.7517 -3.2261 -2.5030 0.9753
4.8637 -3.0541 -2.5029 0.9753
5.0691 -2.6985 -2.5027 0.9753
5.4009 -1.9480 -2.5022 0.9753
5.4668 -1.7536 -2.5021 0.9753
5.5257 -1.5570 -2.5019 0.9753
2.6884 -0.6547 -1.2059 0.9880
2.6903 -0.1619 -1.1746 0.9883
2.6895 0.1269 -1.1734 0.9883
2.6977 0.3217 -1.1840 0.9882
5.5435 1.4847 -2.5011 0.9753
5.4895 1.6827 -2.5023 0.9753
5.4282 1.8787 -2.5034 0.9752
5.3598 2.0724 -2.5044 0.9752
5.2824 2.2628 -2.5045 0.9752
5.1979 2.4501 -2.5044 0.9752
5.0092 2.8150 -2.5042 0.9752
4.9052 2.9922 -2.5041 0.9752
-0.9145 -5.3323 -2.5043 0.9764
-0.7233 -5.3616 -2.5043 0.9764
-0.1451 -5.4084 -2.5043 0.9764
0.2417 -5.4049 -2.5043 0.9764
1.3868 -5.2294 -2.5043 0.9764
1.9386 -5.0507 -2.5042 0.9764
2.4681 -4.8138 -2.5040 0.9764
2.8056 -4.6250 -2.5039 0.9764
2.9690 -4.5216 -2.5038 0.9764
3.2843 -4.2977 -2.5037 0.9764
3.8629 -3.7851 -2.5034 0.9764
3.9956 -3.6445 -2.5033 0.9764
4.2455 -3.3494 -2.5031 0.9764
4.4736 -3.0373 -2.5029 0.9764
4.6788 -2.7096 -2.5027 0.9765
4.7724 -2.5405 -2.5026 0.9765
5.1469 -1.6510 -2.5020 0.9765
2.8662 -0.8076 -1.3784 0.9870
2.6170 -0.6373 -1.2468 0.9882
2.6124 -0.5381 -1.2346 0.9883
2.6111 -0.4412 -1.2258 0.9884
2.6161 0.0298 -1.2110 0.9885
2.6131 0.1233 -1.2109 0.9885
2.6133 0.3116 -1.2182 0.9885
2.6311 0.4096 -1.2325 0.9883
5.2638 1.2099 -2.5001 0.9765
5.2169 1.3973 -2.5000 0.9765
5.1634 1.5828 -2.4998 0.9765
5.0380 1.9480 -2.5003 0.9765
4.9655 2.1270 -2.5005 0.9765
4.8867 2.3034 -2.5007 0.9765
4.8024 2.4772 -2.5013 0.9765
4.5117 2.9785 -2.5024 0.9765
-1.0422 -4.9973 -2.5040 0.9775
-0.6825 -5.0591 -2.5041 0.9775
-0.3193 -5.0950 -2.5041 0.9775
-0.1369 -5.1032 -2.5041 0.9775
0.4102 -5.0886 -2.5041 0.9775
1.1313 -4.9780 -2.5041 0.9775
1.4841 -4.8844 -2.5040 0.9775
1.6577 -4.8282 -2.5040 0.9775
1.8292 -4.7657 -2.5040 0.9775
1.9984 -4.6972 -2.5039 0.9775
2.1650 -4.6227 -2.5039 0.9775
2.4897 -4.4560 -2.5038 0.9775
3.0991 -4.0552 -2.5035 0.9775
3.2420 -3.9417 -2.5035 0.9775
3.3807 -3.8232 -2.5034 0.9775
3.6450 -3.5717 -2.5032 0.9775
3.7702 -3.4390 -2.5031 0.9775
3.8906 -3.3019 -2.5031 0.9775
4.0060 -3.1606 -2.5030 0.9775
4.1163 -3.0152 -2.5029 0.9775
4.3209 -2.7132 -2.5027 0.9775
4.4149 -2.5569 -2.5026 0.9775
4.5033 -2.3973 -2.5025 0.9775
4.5859 -2.2347 -2.5024 0.9775
4.7982 -1.7306 -2.5020 0.9775
4.8568 -1.5579 -2.5019 0.9775
2.5862 -0.6299 -1.3057 0.9882
2.5895 -0.5334 -1.2969 0.9883
2.5878 -0.3426 -1.2805 0.9884
2.5865 -0.2487 -1.2746 0.9885
2.5862 -0.0630 -1.2689 0.9885
2.5889 0.1222 -1.2713 0.9885
2.5902 0.2153 -1.2749 0.9885
2.5892 0.3087 -1.2791 0.9884
4.8158 1.6668 -2.4998 0.9776
4.7529 1.8378 -2.4996 0.9776
4.6840 2.0064 -2.4995 0.9776
4.5282 2.3358 -2.4993 0.9776
4.4418 2.4961 -2.4993 0.9776
4.2522 2.8072 -2.4994 0.9776
-0.9853 -4.7248 -2.5038 0.9785
-0.8158 -4.7571 -2.5039 0.9785
-0.6453 -4.7832 -2.5039 0.9785
-0.4739 -4.8033 -2.5039 0.9785
-0.3019 -4.8172 -2.5039 0.9785
0.0431 -4.8265 -2.5039 0.9785
0.3879 -4.8110 -2.5039 0.9785
0.9007 -4.7418 -2.5039 0.9785
1.8894 -4.4411 -2.5038 0.9785
2.2018 -4.2946 -2.5037 0.9785
2.3539 -4.2130 -2.5036 0.9785
2.9301 -3.8341 -2.5034 0.9785
3.4463 -3.3769 -2.5031 0.9785
3.5647 -3.2515 -2.5030 0.9785
3.8919 -2.8508 -2.5028 0.9785
4.1743 -2.4175 -2.5025 0.9785
4.3360 -2.1129 -2.5023 0.9785
4.5921 -1.4730 -2.5019 0.9785
2.5614 -0.6238 -1.3676 0.9882
2.5660 -0.2467 -1.3373 0.9885
2.5659 -0.1544 -1.3335 0.9885
2.5661 0.0293 -1.3313 0.9885
2.5669 0.1212 -1.3331 0.9885
2.5676 0.2134 -1.3366 0.9885
2.5704 0.4001 -1.3495 0.9883
4.6968 1.0796 -2.5001 0.9785
4.6550 1.2467 -2.5000 0.9785
4.6072 1.4123 -2.4999 0.9785
4.3581 2.0542 -2.4995 0.9785
4.1126 2.5087 -2.4992 0.9785
4.0202 2.6540 -2.4991 0.9785
-0.9333 -4.4750 -2.5037 0.9794
-0.4488 -4.5493 -2.5037 0.9794
-0.2859 -4.5624 -2.5038 0.9794
-0.1226 -4.5698 -2.5038 0.9794
0.0408 -4.5712 -2.5038 0.9794
0.2042 -4.5669 -2.5038 0.9794
0.3673 -4.5567 -2.5038 0.9794
0.5300 -4.5406 -2.5038 0.9794
0.8531 -4.4911 -2.5038 0.9794
1.3290 -4.3738 -2.5037 0.9794
1.6380 -4.2676 -2.5036 0.9794
1.7895 -4.2062 -2.5036 0.9794
1.9387 -4.1395 -2.5036 0.9794
2.0854 -4.0675 -2.5035 0.9794
2.6437 -3.7284 -2.5033 0.9794
2.9032 -3.5298 -2.5032 0.9794
3.1478 -3.3132 -2.5030 0.9794
3.8695 -2.4297 -2.5025 0.9794
3.9537 -2.2897 -2.5024 0.9794
4.1069 -2.0013 -2.5022 0.9794
4.1756 -1.8531 -2.5021 0.9794
2.6324 -0.8444 -1.5141 0.9875
2.5601 -0.7213 -1.4568 0.9879
2.5401 -0.6186 -1.4319 0.9881
2.5457 -0.2448 -1.4007 0.9884
2.5460 -0.0620 -1.3949 0.9885
2.5460 0.0290 -1.3945 0.9885
2.5453 0.1201 -1.3956 0.9884
2.5419 0.3031 -1.4020 0.9884
2.5888 0.4984 -1.4439 0.9880
4.4092 1.1809 -2.5001 0.9794
4.3132 1.4928 -2.4999 0.9794
4.1952 1.7970 -2.4996 0.9794
4.0557 2.0920 -2.4994 0.9794
3.9782 2.2356 -2.4993 0.9794
3.8956 2.3763 -2.4992 0.9794
-0.8853 -4.2449 -2.5035 0.9802
-0.4257 -4.3154 -2.5036 0.9802
-0.1163 -4.3348 -2.5036 0.9802
0.1937 -4.3321 -2.5036 0.9802
0.3485 -4.3224 -2.5036 0.9802
1.1115 -4.1914 -2.5036 0.9802
1.2606 -4.1490 -2.5035 0.9802
1.4081 -4.1012 -2.5035 0.9802
1.5538 -4.0482 -2.5035 0.9802
1.9782 -3.8584 -2.5034 0.9802
2.1149 -3.7852 -2.5033 0.9802
2.3798 -3.6242 -2.5032 0.9802
2.6326 -3.4448 -2.5031 0.9802
3.4031 -2.6849 -2.5026 0.9802
3.4968 -2.5614 -2.5025 0.9802
3.7505 -2.1721 -2.5023 0.9802
3.8959 -1.8984 -2.5021 0.9802
3.9611 -1.7579 -2.5020 0.9802
4.0213 -1.6151 -2.5019 0.9802
4.0763 -1.4703 -2.5018 0.9802
2.6039 -0.8353 -1.5788 0.9874
2.5216 -0.6141 -1.4984 0.9881
2.5232 -0.1519 -1.4594 0.9884
2.5235 -0.0615 -1.4574 0.9884
2.5233 0.0288 -1.4569 0.9884
2.5249 0.1192 -1.4594 0.9884
2.5224 0.3007 -1.4666 0.9883
2.5220 0.3926 -1.4736 0.9883
2.5642 0.4937 -1.5076 0.9880
4.2204 0.9701 -2.5002 0.9802
4.1400 1.2691 -2.5000 0.9802
4.0918 1.4162 -2.4999 0.9802
4.0384 1.5615 -2.4998 0.9802
3.8476 1.9846 -2.4995 0.9802
3.7740 2.1208 -2.4994 0.9802
3.6956 2.2543 -2.4993 0.9802
3.6126 2.3849 -2.4992 0.9802
