ply
format ascii 1.0
element vertex 917
property float32 x
property float32 y
property float32 z
property float32 I
end_header
-26.4252 -29.3810 6.9678 0.8517
-26.6003 -34.2156 7.6419 0.8386
-24.7624 -34.3216 7.4625 0.8421
-22.9810 -34.3845 7.2924 0.8454
-9.4391 -18.0563 3.5926 0.9206
-17.7080 -37.0493 7.2406 0.8464
-16.9004 -38.8813 7.4755 0.8418
-12.1880 -39.0479 7.2128 0.8469
-4.8731 -17.8352 3.2601 0.9277
-3.9437 -24.5567 4.3855 0.9039
-3.6617 -29.5209 5.2452 0.8862
-3.6473 -41.5400 7.3528 0.8442
-2.1544 -41.5928 7.3438 0.8444
0.8301 -41.6985 7.3540 0.8442
2.3367 -41.8823 7.3965 0.8433
3.8504 -41.9355 7.4255 0.8428
5.1125 -39.9158 7.0957 0.8492
8.0209 -39.7633 7.1526 0.8481
9.5277 -39.8167 7.2190 0.8468
11.0647 -39.8712 7.2961 0.8453
15.0476 -37.8738 7.1860 0.8474
17.2912 -35.8100 7.0118 0.8509
18.4280 -34.9122 6.9609 0.8518
10.9723 -19.0971 3.8836 0.9144
26.3091 -31.1949 7.1955 0.8473
28.5172 -27.2498 6.9549 0.8520
30.3747 -27.0109 7.1672 0.8478
-32.5483 -36.1889 7.4564 0.8212
-30.6903 -36.6848 7.3272 0.8240
-26.7090 -37.0196 6.9931 0.8313
-26.8200 -40.1283 7.3941 0.8226
-4.8730 -17.8349 2.8323 0.9279
-3.8590 -31.1116 4.8026 0.8809
18.1889 -41.3939 6.9265 0.8328
18.0158 -37.3108 6.3472 0.8456
18.2638 -34.6012 5.9938 0.8536
18.4464 -32.1056 5.6724 0.8608
25.7882 -38.2539 7.0675 0.8297
18.6413 -25.6219 4.8541 0.8797
15.0490 -19.1991 3.7371 0.9060
30.7115 -36.4149 7.2976 0.8247
18.8237 -19.3237 4.1327 0.8966
35.5949 -31.6529 7.2971 0.8247
35.5273 -29.3829 7.0628 0.8298
-26.3293 -29.2743 5.1272 0.8531
-9.4367 -18.0518 2.6525 0.9211
-3.9550 -24.6276 3.2481 0.9043
-3.8504 -31.0426 4.0734 0.8815
18.2359 -37.7665 5.4613 0.8444
18.4058 -34.8701 5.1345 0.8530
18.4244 -32.0675 4.8160 0.8614
18.8236 -19.3235 3.5129 0.8969
-26.3808 -29.3316 4.2362 0.8532
-26.6035 -34.2198 4.6544 0.8400
18.6330 -25.6105 3.4010 0.8804
-9.4343 -18.0473 1.7239 0.9215
-4.8727 -17.8338 1.5650 0.9285
-3.9549 -24.6265 2.1114 0.9047
18.8233 -19.3232 2.2836 0.8974
41.3450 -27.2973 4.1940 0.8196
-4.8726 -17.8334 1.1464 0.9286
-3.8807 -24.1647 1.5177 0.9066
-3.0012 -24.1958 1.5119 0.9069
18.8232 -19.3231 1.6728 0.8975
-9.4320 -18.0428 0.8028 0.9217
-4.8725 -17.8331 0.7290 0.9287
18.1483 -24.9443 1.2164 0.8838
18.8230 -19.3229 1.0637 0.8976
-26.2577 -42.5077 0.8440 0.8188
-9.4308 -18.0406 0.3439 0.9218
-4.8724 -17.8327 0.3123 0.9287
-3.8805 -24.1637 0.4134 0.9067
-3.0010 -24.1948 0.4118 0.9071
18.1479 -24.9437 0.5211 0.8839
19.5919 -24.9948 0.5365 0.8807
42.2965 -25.7989 0.8369 0.8202
-15.6315 -17.3799 -0.1316 0.9107
-14.5459 -17.3872 -0.1276 0.9133
-11.6339 -17.4068 -0.1179 0.9197
-10.7597 -17.4186 -0.1153 0.9214
-9.1116 -17.4298 -0.1107 0.9243
-5.4482 -17.4548 -0.1029 0.9295
-5.4500 -23.1831 -0.1341 0.9091
-5.6384 -28.5381 -0.1638 0.8902
-3.0010 -24.1943 -0.1373 0.9071
17.1717 -39.0790 -0.2403 0.8430
17.5068 -30.4704 -0.1978 0.8689
17.5953 -28.2324 -0.1873 0.8754
17.6747 -26.2184 -0.1780 0.8812
17.7467 -24.3922 -0.1698 0.8863
19.4893 -23.1086 -0.1702 0.8861
18.8227 -19.3226 -0.1519 0.8977
26.2599 -23.3517 -0.1978 0.8689
28.3276 -23.4283 -0.2070 0.8633
30.5591 -23.4824 -0.2170 0.8571
35.8613 -23.6768 -0.2419 0.8421
42.5665 -23.9150 -0.2749 0.8226
-15.6314 -17.3798 -0.6582 0.9107
-14.5458 -17.3871 -0.6383 0.9133
-13.5227 -17.3940 -0.6204 0.9156
-10.7596 -17.4183 -0.5765 0.9213
-9.9190 -17.4241 -0.5646 0.9229
-9.1115 -17.4296 -0.5538 0.9243
-8.3332 -17.4349 -0.5441 0.9256
-6.8508 -17.4450 -0.5277 0.9277
-6.1408 -17.4499 -0.5209 0.9286
-5.4481 -17.4546 -0.5149 0.9294
-4.8722 -17.8320 -0.5205 0.9287
-3.8804 -24.1627 -0.6891 0.9067
-3.0009 -24.1938 -0.6865 0.9071
17.0260 -42.8531 -1.2984 0.8315
17.2983 -35.8248 -1.1202 0.8528
17.5060 -30.4689 -0.9895 0.8688
17.7471 -24.3928 -0.8494 0.8863
20.9983 -23.1609 -0.8803 0.8824
24.3641 -23.2812 -0.9489 0.8738
28.3273 -23.4281 -1.0351 0.8632
38.9932 -23.7841 -1.2861 0.8330
-12.5542 -17.4005 -1.0882 0.9177
-11.6338 -17.4066 -1.0618 0.9196
-10.7595 -17.4181 -1.0383 0.9213
-9.1114 -17.4294 -0.9974 0.9243
-7.5806 -17.4398 -0.9644 0.9267
-6.8507 -17.4449 -0.9505 0.9277
-6.1407 -17.4497 -0.9381 0.9286
-4.8722 -17.8317 -0.9375 0.9286
-5.6372 -28.5321 -1.4750 0.8900
-2.4427 -47.1580 -2.3948 0.8277
14.9916 -47.3661 -2.5196 0.8196
17.1722 -39.0801 -2.1648 0.8429
17.4100 -32.9836 -1.8915 0.8612
17.5051 -30.4674 -1.7820 0.8687
17.5961 -28.2337 -1.6872 0.8753
17.6754 -26.2196 -1.6036 0.8810
18.1360 -23.1374 -1.4909 0.8889
20.9977 -23.1602 -1.5854 0.8823
18.8225 -19.3223 -1.3680 0.8976
24.3638 -23.2810 -1.7090 0.8737
28.3271 -23.4279 -1.8642 0.8631
38.9900 -23.7821 -2.3162 0.8328
42.2671 -19.9100 -2.3695 0.8293
47.8891 -12.7951 -2.5138 0.8199
48.2866 -11.0646 -2.5123 0.8200
48.8931 -7.5695 -2.5091 0.8202
49.2468 -4.0445 -2.5059 0.8204
49.3286 -2.2763 -2.5043 0.8206
49.1878 -0.5059 -2.4946 0.8212
49.3014 1.2595 -2.5011 0.8208
-13.5226 -17.3939 -1.6154 0.9154
-9.1112 -17.4292 -1.4420 0.9242
-8.3330 -17.4345 -1.4168 0.9254
-5.4480 -17.4543 -1.3407 0.9293
-4.8721 -17.8313 -1.3554 0.9285
-5.4472 -23.1715 -1.7453 0.9089
-5.6366 -28.5292 -2.1323 0.8899
-3.8802 -24.1617 -1.7943 0.9065
-2.8428 -32.3766 -2.3831 0.8778
-1.1960 -23.0899 -1.6953 0.9114
4.0715 -24.7236 -1.8372 0.9044
4.6982 -23.2914 -1.7422 0.9091
8.0350 -33.5784 -2.5315 0.8707
10.4162 -32.9100 -2.5310 0.8707
8.3424 -23.4081 -1.8221 0.9051
10.3125 -23.4690 -1.8796 0.9023
12.4214 -23.5327 -1.9511 0.8988
17.1499 -27.5177 -2.3774 0.8781
17.7478 -24.3938 -2.2119 0.8860
19.4875 -23.1064 -2.2163 0.8858
18.8223 -19.3222 -1.9778 0.8975
24.1425 -21.4689 -2.3689 0.8785
26.2833 -18.7386 -2.3668 0.8786
30.2621 -15.6032 -2.4965 0.8724
31.5212 -13.4905 -2.5140 0.8715
32.3796 -11.1900 -2.5119 0.8716
32.7457 -10.0187 -2.5109 0.8717
33.0696 -8.8356 -2.5098 0.8717
33.3506 -7.6421 -2.5087 0.8718
33.5884 -6.4397 -2.5076 0.8718
34.1036 -1.5738 -2.5032 0.8720
34.1229 -0.3510 -2.5021 0.8721
34.0984 0.8712 -2.5010 0.8721
-13.5225 -17.3938 -2.1152 0.9153
-11.6338 -17.4065 -2.0100 0.9193
-10.7592 -17.4177 -1.9655 0.9210
-9.9186 -17.4235 -1.9248 0.9226
-9.1111 -17.4290 -1.8881 0.9240
-8.3329 -17.4343 -1.8551 0.9253
-4.8720 -17.8310 -1.7746 0.9284
-5.4463 -23.1675 -2.2848 0.9088
-4.7868 -24.2276 -2.3709 0.9055
-3.8801 -24.1612 -2.3493 0.9063
-3.0007 -24.1923 -2.3404 0.9067
-2.1643 -24.6490 -2.3755 0.9054
-1.1919 -23.0102 -2.2121 0.9116
-0.3669 -23.0394 -2.2122 0.9116
0.5234 -26.2922 -2.5247 0.8997
2.9655 -23.1530 -2.2410 0.9105
6.1188 -25.5705 -2.5242 0.8997
7.9325 -25.0628 -2.5238 0.8998
9.7045 -24.4255 -2.5233 0.8998
10.5719 -24.0592 -2.5230 0.8998
11.4254 -23.6620 -2.5226 0.8998
12.2639 -23.2342 -2.5223 0.8998
13.0862 -22.7764 -2.5219 0.8998
14.6783 -21.7736 -2.5210 0.8999
15.4459 -21.2299 -2.5205 0.8999
15.8827 -20.2627 -2.4717 0.9017
16.0353 -19.0131 -2.3879 0.9049
16.5503 -18.2548 -2.3656 0.9057
17.1940 -17.6507 -2.3657 0.9057
19.0569 -15.7610 -2.3742 0.9054
23.6669 -11.1484 -2.5116 0.9002
24.3893 -9.4195 -2.5101 0.9003
24.7032 -8.5371 -2.5093 0.9003
24.9852 -7.6443 -2.5085 0.9003
25.2348 -6.7423 -2.5076 0.9004
25.4518 -5.8321 -2.5068 0.9004
25.9890 -2.1344 -2.5035 0.9005
26.0400 -1.2017 -2.5026 0.9005
26.0575 -0.2680 -2.5018 0.9006
26.0415 0.6653 -2.5009 0.9006
-12.7581 -15.2501 -2.3618 0.9230
-12.2058 -15.7002 -2.3622 0.9230
-9.8447 -17.2936 -2.3638 0.9230
-8.3328 -17.4341 -2.2953 0.9251
-7.5803 -17.4393 -2.2588 0.9263
-6.8505 -17.4443 -2.2262 0.9273
-6.1405 -17.4491 -2.1973 0.9282
-4.8719 -17.8306 -2.1957 0.9282
-4.5579 -19.3883 -2.3658 0.9229
-0.3172 -19.9222 -2.3668 0.9229
0.4223 -21.2109 -2.5201 0.9181
1.9397 -21.1260 -2.5200 0.9181
2.6952 -21.0425 -2.5200 0.9181
3.4471 -20.9318 -2.5199 0.9181
5.6718 -20.4381 -2.5195 0.9181
7.1195 -19.9766 -2.5191 0.9181
7.8298 -19.7070 -2.5189 0.9181
10.5594 -18.3785 -2.5178 0.9182
11.2095 -17.9861 -2.5174 0.9182
11.8448 -17.5705 -2.5171 0.9182
13.0683 -16.6722 -2.5163 0.9182
14.2236 -15.6885 -2.5154 0.9182
14.7737 -15.1661 -2.5150 0.9183
15.8156 -14.0640 -2.5140 0.9183
16.7784 -12.8930 -2.5135 0.9183
18.4288 -10.3538 -2.5109 0.9184
19.1126 -9.0030 -2.5096 0.9184
19.4177 -8.3104 -2.5089 0.9184
19.6978 -7.6074 -2.5083 0.9185
19.9525 -6.8955 -2.5076 0.9185
20.3844 -5.4463 -2.5063 0.9185
20.7110 -3.9709 -2.5050 0.9186
20.8343 -3.2255 -2.5043 0.9186
21.0004 -1.7247 -2.5029 0.9186
21.0473 0.5377 -2.5009 0.9187
-11.8575 -13.1838 -2.5124 0.9309
-11.3794 -13.6021 -2.5128 0.9309
-10.3794 -14.3862 -2.5135 0.9308
-9.8588 -14.7508 -2.5139 0.9308
-9.3253 -15.0964 -2.5142 0.9308
-8.6566 -15.2066 -2.4793 0.9317
-6.6455 -15.2888 -2.3620 0.9349
-4.3986 -16.0986 -2.3646 0.9348
-3.8197 -16.2482 -2.3650 0.9348
-2.6462 -16.4773 -2.3646 0.9348
-2.0537 -16.5569 -2.3639 0.9348
-1.4592 -16.6194 -2.3638 0.9348
-0.8918 -17.2173 -2.4428 0.9327
0.3536 -17.7601 -2.5169 0.9308
0.9895 -17.7360 -2.5169 0.9308
1.6242 -17.6890 -2.5169 0.9308
2.2567 -17.6192 -2.5168 0.9308
3.5122 -17.4114 -2.5167 0.9308
4.1333 -17.2737 -2.5166 0.9308
4.7495 -17.1137 -2.5165 0.9308
5.3585 -16.9315 -2.5163 0.9308
7.1428 -16.2553 -2.5157 0.9308
8.8429 -15.3908 -2.5150 0.9308
9.3874 -15.0624 -2.5147 0.9308
9.9197 -14.7148 -2.5144 0.9308
10.4391 -14.3482 -2.5141 0.9308
11.4365 -13.5603 -2.5134 0.9308
12.3742 -12.7029 -2.5127 0.9309
12.8193 -12.2495 -2.5123 0.9309
13.2476 -11.7806 -2.5119 0.9309
14.0545 -10.7998 -2.5114 0.9309
14.4351 -10.2915 -2.5119 0.9309
14.7913 -9.7657 -2.5113 0.9309
16.0203 -7.5465 -2.5091 0.9310
16.7262 -5.7804 -2.5074 0.9310
17.0894 -4.5660 -2.5063 0.9310
17.4688 -2.7045 -2.5046 0.9311
17.6604 -0.1817 -2.5024 0.9311
17.6518 0.4509 -2.5019 0.9311
-10.1917 -11.3317 -2.5107 0.9401
-9.3568 -12.0355 -2.5114 0.9401
-8.9208 -12.3645 -2.5117 0.9401
-7.5454 -13.2546 -2.5126 0.9400
-7.0665 -13.5177 -2.5128 0.9400
-6.5783 -13.7635 -2.5131 0.9400
-5.5771 -14.2016 -2.5135 0.9400
-5.0652 -14.3933 -2.5137 0.9400
-4.0222 -14.7210 -2.5140 0.9400
-3.4925 -14.8564 -2.5141 0.9400
-2.4201 -15.0697 -2.5144 0.9400
-1.8788 -15.1473 -2.5145 0.9400
-0.7896 -15.2437 -2.5146 0.9400
-0.2430 -15.2623 -2.5146 0.9400
0.8503 -15.2406 -2.5146 0.9400
1.9393 -15.1403 -2.5146 0.9400
2.4803 -15.0608 -2.5145 0.9400
3.0180 -14.9618 -2.5144 0.9400
3.5519 -14.8436 -2.5144 0.9400
4.0811 -14.7062 -2.5142 0.9400
4.6051 -14.5499 -2.5141 0.9400
5.1230 -14.3747 -2.5140 0.9400
5.6343 -14.1811 -2.5138 0.9400
8.5252 -12.6462 -2.5125 0.9400
9.4066 -12.0007 -2.5119 0.9401
10.6358 -10.9182 -2.5110 0.9401
11.7407 -9.7102 -2.5099 0.9401
12.0791 -9.2820 -2.5096 0.9401
12.4031 -8.8427 -2.5094 0.9401
12.7185 -8.3972 -2.5107 0.9401
13.7770 -6.4897 -2.5088 0.9401
13.9979 -5.9909 -2.5083 0.9401
14.2008 -5.4846 -2.5078 0.9402
14.8271 -3.3975 -2.5059 0.9402
14.9364 -2.8637 -2.5054 0.9402
15.0264 -2.3264 -2.5049 0.9402
15.1486 -1.2441 -2.5040 0.9402
15.1931 -0.1563 -2.5030 0.9403
15.1862 0.3880 -2.5026 0.9403
-8.9282 -9.9268 -2.5095 0.9471
-8.1964 -10.5430 -2.5101 0.9471
-7.0203 -11.3650 -2.5109 0.9471
-6.6093 -11.6103 -2.5111 0.9471
-5.7621 -12.0558 -2.5115 0.9471
-5.3271 -12.2554 -2.5117 0.9471
-4.8850 -12.4392 -2.5119 0.9471
-4.4365 -12.6070 -2.5121 0.9471
-3.0590 -13.0124 -2.5125 0.9470
-2.1197 -13.1990 -2.5127 0.9470
0.2661 -13.3667 -2.5129 0.9470
1.2224 -13.3132 -2.5129 0.9470
2.1723 -13.1911 -2.5128 0.9470
3.1110 -13.0010 -2.5127 0.9470
3.5746 -12.8808 -2.5126 0.9470
4.9350 -12.4211 -2.5122 0.9471
5.3764 -12.2356 -2.5120 0.9471
7.0667 -11.3388 -2.5113 0.9471
7.4676 -11.0774 -2.5110 0.9471
7.8589 -10.8018 -2.5108 0.9471
8.9695 -9.8933 -2.5100 0.9471
11.6395 -6.5394 -2.5094 0.9471
11.8643 -6.1172 -2.5090 0.9471
12.6078 -4.3571 -2.5073 0.9472
12.8830 -3.4421 -2.5064 0.9472
12.9958 -2.9779 -2.5060 0.9472
13.0919 -2.5101 -2.5056 0.9472
13.3073 -0.6141 -2.5039 0.9472
13.3186 -0.1370 -2.5035 0.9472
13.3128 0.3401 -2.5031 0.9472
-7.9359 -8.8236 -2.5085 0.9526
-6.5970 -9.8705 -2.5095 0.9526
-6.2397 -10.1013 -2.5097 0.9526
-5.8744 -10.3192 -2.5099 0.9526
-3.5393 -11.3393 -2.5109 0.9526
-3.1310 -11.4594 -2.5111 0.9526
-2.3028 -11.6551 -2.5113 0.9526
-1.8838 -11.7305 -2.5114 0.9526
-1.4625 -11.7907 -2.5114 0.9526
-1.0392 -11.8358 -2.5115 0.9526
-0.6146 -11.8657 -2.5115 0.9526
-0.1892 -11.8802 -2.5115 0.9526
0.2365 -11.8794 -2.5116 0.9526
0.6619 -11.8633 -2.5116 0.9526
1.5095 -11.7853 -2.5115 0.9526
2.7649 -11.5545 -2.5113 0.9526
3.1769 -11.4477 -2.5112 0.9526
3.5848 -11.3261 -2.5112 0.9526
3.9880 -11.1899 -2.5110 0.9526
4.3860 -11.0393 -2.5109 0.9526
4.7784 -10.8745 -2.5108 0.9526
5.9163 -10.2971 -2.5103 0.9526
6.2808 -10.0779 -2.5101 0.9526
6.6372 -9.8456 -2.5099 0.9526
6.9851 -9.6007 -2.5097 0.9526
7.6531 -9.0744 -2.5092 0.9526
7.9725 -8.7936 -2.5090 0.9526
9.4066 -7.2283 -2.5076 0.9527
10.1238 -6.1750 -2.5067 0.9527
10.3488 -5.8142 -2.5091 0.9526
10.5488 -5.4390 -2.5087 0.9526
10.7353 -5.0569 -2.5084 0.9526
10.9079 -4.6684 -2.5080 0.9526
11.0664 -4.2740 -2.5076 0.9527
11.3406 -3.4697 -2.5069 0.9527
11.5564 -2.6481 -2.5061 0.9527
11.6421 -2.2321 -2.5057 0.9527
11.8091 -0.9698 -2.5046 0.9527
11.8448 -0.1219 -2.5039 0.9527
-5.9312 -8.8744 -2.5086 0.9571
-5.2815 -9.2777 -2.5090 0.9571
-4.2566 -9.7927 -2.5095 0.9571
-3.9033 -9.9395 -2.5097 0.9571
-3.5449 -10.0734 -2.5098 0.9571
0.2126 -10.6797 -2.5105 0.9571
0.5950 -10.6652 -2.5105 0.9571
0.9767 -10.6370 -2.5104 0.9571
2.4857 -10.3877 -2.5103 0.9571
3.2228 -10.1824 -2.5101 0.9571
3.9432 -9.9247 -2.5099 0.9571
4.6431 -9.6159 -2.5096 0.9571
4.9843 -9.4429 -2.5095 0.9571
5.3190 -9.2577 -2.5093 0.9571
5.6468 -9.0606 -2.5092 0.9571
6.2801 -8.6319 -2.5088 0.9571
7.4460 -7.6438 -2.5079 0.9571
7.7143 -7.3715 -2.5077 0.9571
7.9726 -7.0897 -2.5074 0.9571
8.4579 -6.4993 -2.5069 0.9571
8.6844 -6.1915 -2.5066 0.9571
9.1033 -5.5526 -2.5061 0.9571
9.4869 -4.8915 -2.5085 0.9571
9.8101 -4.1986 -2.5079 0.9571
9.9528 -3.8440 -2.5075 0.9571
10.1997 -3.1207 -2.5069 0.9571
10.3941 -2.3818 -2.5062 0.9571
10.4714 -2.0076 -2.5058 0.9571
10.5351 -1.6311 -2.5055 0.9571
4.1528 -0.4913 -0.9828 0.9830
-6.2136 -7.4274 -2.5073 0.9608
-5.9441 -7.6458 -2.5075 0.9608
-5.6669 -7.8545 -2.5077 0.9608
-5.0907 -8.2413 -2.5081 0.9608
-4.4882 -8.5857 -2.5084 0.9608
-4.1781 -8.7416 -2.5086 0.9608
-3.2167 -9.1407 -2.5090 0.9608
-2.8873 -9.2505 -2.5091 0.9608
-2.5542 -9.3484 -2.5092 0.9607
-2.2178 -9.4342 -2.5093 0.9607
-1.8785 -9.5079 -2.5093 0.9607
-0.1543 -9.6912 -2.5095 0.9607
0.1929 -9.6906 -2.5096 0.9607
0.5399 -9.6775 -2.5096 0.9607
0.8862 -9.6519 -2.5095 0.9607
1.5749 -9.5634 -2.5095 0.9607
2.2555 -9.4257 -2.5094 0.9607
2.5916 -9.3387 -2.5093 0.9607
2.9243 -9.2395 -2.5092 0.9607
3.2533 -9.1285 -2.5091 0.9607
3.5781 -9.0058 -2.5090 0.9608
3.8982 -8.8714 -2.5089 0.9608
5.1241 -8.2219 -2.5084 0.9608
5.4150 -8.0325 -2.5082 0.9608
5.6989 -7.8329 -2.5080 0.9608
5.9753 -7.6232 -2.5079 0.9608
6.5048 -7.1747 -2.5075 0.9608
7.6756 -5.8982 -2.5063 0.9608
7.8812 -5.6189 -2.5061 0.9608
8.4359 -4.7395 -2.5053 0.9608
8.5993 -4.4338 -2.5050 0.9608
8.7604 -4.1266 -2.5073 0.9608
8.9044 -3.8110 -2.5078 0.9608
9.0341 -3.4891 -2.5075 0.9608
9.3528 -2.4989 -2.5065 0.9608
9.4351 -2.1620 -2.5062 0.9608
9.5053 -1.8224 -2.5059 0.9608
3.8115 -0.5901 -0.9986 0.9842
3.7203 -0.4402 -0.9700 0.9846
3.7285 -0.1721 -0.9664 0.9847
3.7313 -0.0384 -0.9662 0.9847
3.7322 0.0954 -0.9667 0.9847
-5.9209 -6.5832 -2.5065 0.9639
-5.6817 -6.7916 -2.5067 0.9639
-5.1817 -7.1820 -2.5071 0.9639
-4.6548 -7.5356 -2.5074 0.9638
-4.3822 -7.6980 -2.5076 0.9638
-3.8202 -7.9929 -2.5079 0.9638
-3.5317 -8.1250 -2.5080 0.9638
-3.2385 -8.2467 -2.5081 0.9638
-2.3354 -8.5476 -2.5084 0.9638
-1.7176 -8.6934 -2.5086 0.9638
-1.4051 -8.7495 -2.5087 0.9638
-1.0908 -8.7944 -2.5087 0.9638
-0.7751 -8.8280 -2.5087 0.9638
-0.4584 -8.8502 -2.5088 0.9638
1.1259 -8.7902 -2.5088 0.9638
1.4400 -8.7441 -2.5087 0.9638
1.7523 -8.6868 -2.5087 0.9638
2.0623 -8.6183 -2.5086 0.9638
2.6738 -8.4480 -2.5085 0.9638
2.9746 -8.3466 -2.5084 0.9638
3.5643 -8.1116 -2.5082 0.9638
3.8524 -7.9783 -2.5081 0.9638
4.1355 -7.8348 -2.5080 0.9638
4.4133 -7.6812 -2.5079 0.9638
4.6853 -7.5178 -2.5077 0.9638
5.2109 -7.1622 -2.5074 0.9638
6.8217 -5.6419 -2.5061 0.9639
7.0188 -5.3935 -2.5059 0.9639
8.0031 -3.7699 -2.5044 0.9639
8.5542 -2.2855 -2.5066 0.9639
4.7968 -0.9197 -1.3827 0.9799
3.5114 -0.5436 -1.0059 0.9853
3.4601 -0.4094 -0.9864 0.9856
3.4698 0.0887 -0.9826 0.9857
-5.4486 -6.0580 -2.5061 0.9665
-5.2284 -6.2497 -2.5063 0.9665
-5.0016 -6.4335 -2.5064 0.9665
-4.7682 -6.6090 -2.5066 0.9665
-3.7763 -7.2239 -2.5072 0.9665
-3.5153 -7.3549 -2.5073 0.9665
-2.4293 -7.7829 -2.5077 0.9665
-2.1490 -7.8652 -2.5078 0.9665
-1.0037 -8.0923 -2.5081 0.9665
-0.7132 -8.1232 -2.5081 0.9665
-0.4218 -8.1436 -2.5081 0.9664
-0.1298 -8.1535 -2.5081 0.9664
0.7456 -8.1204 -2.5081 0.9664
1.3250 -8.0460 -2.5081 0.9665
2.1804 -7.8569 -2.5080 0.9665
2.4604 -7.7736 -2.5079 0.9665
2.7372 -7.6803 -2.5078 0.9665
3.0104 -7.5770 -2.5077 0.9665
3.2798 -7.4640 -2.5076 0.9665
3.8054 -7.2095 -2.5074 0.9665
4.0610 -7.0682 -2.5073 0.9665
4.5562 -6.7586 -2.5070 0.9665
4.7950 -6.5907 -2.5069 0.9665
5.0277 -6.4143 -2.5067 0.9665
5.2539 -6.2297 -2.5066 0.9665
5.4733 -6.0371 -2.5064 0.9665
6.2776 -5.1919 -2.5057 0.9665
6.4590 -4.9633 -2.5054 0.9665
6.7966 -4.4873 -2.5050 0.9665
6.9524 -4.2407 -2.5048 0.9665
7.0992 -3.9886 -2.5046 0.9665
7.5951 -2.9333 -2.5043 0.9665
7.7937 -2.3845 -2.5068 0.9665
7.8733 -2.1036 -2.5066 0.9665
7.9427 -1.8200 -2.5063 0.9665
3.2777 -0.1513 -1.0092 0.9864
-4.6272 -5.9520 -2.5060 0.9687
-4.1897 -6.2687 -2.5063 0.9687
-3.7306 -6.5533 -2.5066 0.9687
-2.7569 -7.0202 -2.5070 0.9687
-1.9881 -7.2762 -2.5073 0.9687
-1.7262 -7.3430 -2.5074 0.9687
-1.4621 -7.4003 -2.5074 0.9687
-0.3902 -7.5337 -2.5076 0.9687
0.1502 -7.5424 -2.5076 0.9687
0.6898 -7.5122 -2.5076 0.9687
1.2258 -7.4434 -2.5075 0.9687
1.4916 -7.3946 -2.5075 0.9687
1.7555 -7.3363 -2.5075 0.9687
2.0171 -7.2686 -2.5074 0.9687
2.5322 -7.1051 -2.5073 0.9687
3.9886 -6.3999 -2.5067 0.9687
4.2151 -6.2526 -2.5066 0.9687
4.6514 -5.9341 -2.5063 0.9687
5.0637 -5.5852 -2.5060 0.9687
5.2602 -5.3999 -2.5058 0.9687
5.4498 -5.2077 -2.5056 0.9687
5.6325 -5.0087 -2.5055 0.9687
5.8079 -4.8034 -2.5053 0.9687
5.9757 -4.5919 -2.5051 0.9687
6.1359 -4.3746 -2.5049 0.9687
6.2882 -4.1517 -2.5047 0.9687
6.5682 -3.6902 -2.5043 0.9687
6.6956 -3.4523 -2.5041 0.9687
7.1183 -2.4600 -2.5035 0.9688
7.2084 -2.2054 -2.5057 0.9687
7.2852 -1.9465 -2.5066 0.9687
7.3496 -1.6841 -2.5064 0.9687
3.1623 -0.6063 -1.0703 0.9865
3.1172 -0.3688 -1.0434 0.9869
3.1237 -0.1442 -1.0394 0.9869
3.1248 -0.0321 -1.0388 0.9869
3.1247 0.0798 -1.0390 0.9869
-4.3005 -5.5317 -2.5056 0.9707
-4.0998 -5.6825 -2.5058 0.9707
-3.8938 -5.8260 -2.5059 0.9707
-3.6828 -5.9621 -2.5060 0.9707
-3.4671 -6.0905 -2.5062 0.9707
-3.2469 -6.2111 -2.5063 0.9707
-3.0224 -6.3237 -2.5064 0.9707
-2.7941 -6.4281 -2.5065 0.9707
-2.3269 -6.6121 -2.5067 0.9707
-2.0886 -6.6915 -2.5068 0.9707
-1.8476 -6.7622 -2.5068 0.9707
-1.6042 -6.8242 -2.5069 0.9707
-1.3588 -6.8774 -2.5070 0.9707
-1.1116 -6.9218 -2.5070 0.9707
-0.8630 -6.9573 -2.5070 0.9707
-0.6132 -6.9838 -2.5071 0.9707
-0.1116 -7.0099 -2.5071 0.9707
0.8907 -6.9540 -2.5071 0.9707
1.6315 -6.8180 -2.5070 0.9707
2.1153 -6.6834 -2.5069 0.9707
2.3533 -6.6032 -2.5068 0.9707
3.2718 -6.1985 -2.5065 0.9707
3.4916 -6.0771 -2.5064 0.9707
3.9174 -5.8110 -2.5061 0.9707
4.1228 -5.6667 -2.5060 0.9707
5.0651 -4.8400 -2.5053 0.9707
5.2349 -4.6552 -2.5051 0.9707
5.3979 -4.4644 -2.5050 0.9707
5.5539 -4.2679 -2.5048 0.9707
6.2232 -3.2087 -2.5038 0.9707
6.3336 -2.9835 -2.5036 0.9707
6.7645 -1.8074 -2.5039 0.9707
6.8317 -1.5655 -2.5064 0.9707
3.0162 -0.5783 -1.0983 0.9870
2.9903 -0.3538 -1.0768 0.9873
2.9957 -0.2460 -1.0749 0.9873
2.9989 -0.1384 -1.0736 0.9873
-4.3713 -4.8603 -2.5050 0.9724
-4.0125 -5.1613 -2.5053 0.9724
-3.8253 -5.3021 -2.5054 0.9724
-3.0294 -5.7951 -2.5059 0.9724
-2.8200 -5.9001 -2.5060 0.9724
-2.6069 -5.9976 -2.5061 0.9724
-2.3905 -6.0873 -2.5062 0.9724
-2.1710 -6.1693 -2.5063 0.9724
-1.9487 -6.2433 -2.5064 0.9724
-1.4968 -6.3671 -2.5065 0.9724
-1.2678 -6.4167 -2.5065 0.9724
-1.0371 -6.4582 -2.5066 0.9724
-0.5721 -6.5160 -2.5066 0.9724
-0.1041 -6.5404 -2.5067 0.9724
0.3644 -6.5311 -2.5067 0.9724
0.8310 -6.4881 -2.5067 0.9724
1.2934 -6.4118 -2.5066 0.9724
1.7490 -6.3026 -2.5065 0.9724
2.4149 -6.0781 -2.5063 0.9724
3.4586 -5.5496 -2.5059 0.9724
3.6550 -5.4219 -2.5058 0.9724
3.8467 -5.2872 -2.5057 0.9724
4.3911 -4.8433 -2.5053 0.9724
4.7260 -4.5160 -2.5050 0.9724
5.0366 -4.1655 -2.5047 0.9724
5.1822 -3.9822 -2.5045 0.9724
5.6962 -3.2003 -2.5038 0.9724
6.0053 -2.5702 -2.5033 0.9724
6.0931 -2.3532 -2.5031 0.9724
6.1729 -2.1333 -2.5029 0.9724
6.2449 -1.9106 -2.5027 0.9724
2.9145 -0.6678 -1.1458 0.9873
2.8656 -0.4437 -1.1112 0.9877
2.8732 -0.3399 -1.1087 0.9877
2.8786 -0.2364 -1.1068 0.9877
-4.0925 -4.5503 -2.5047 0.9739
-3.9271 -4.6943 -2.5049 0.9739
-3.7567 -4.8322 -2.5050 0.9739
-3.4014 -5.0892 -2.5053 0.9739
-3.2171 -5.2080 -2.5054 0.9739
-3.0286 -5.3202 -2.5055 0.9739
-2.6401 -5.5237 -2.5057 0.9739
-2.4406 -5.6150 -2.5058 0.9739
-2.0325 -5.7757 -2.5059 0.9739
-1.8244 -5.8449 -2.5060 0.9739
-1.4013 -5.9608 -2.5061 0.9739
-1.1869 -6.0073 -2.5062 0.9739
0.5599 -6.0981 -2.5063 0.9739
0.7780 -6.0741 -2.5063 0.9739
0.9951 -6.0423 -2.5063 0.9739
1.2108 -6.0027 -2.5062 0.9739
1.4251 -5.9554 -2.5062 0.9739
2.2608 -5.6904 -2.5060 0.9739
2.6623 -5.5136 -2.5058 0.9739
2.8580 -5.4145 -2.5057 0.9739
3.0500 -5.3084 -2.5057 0.9739
3.9462 -4.6790 -2.5051 0.9739
4.1110 -4.5344 -2.5050 0.9739
4.2706 -4.3840 -2.5049 0.9739
4.4246 -4.2280 -2.5047 0.9739
4.7154 -3.8999 -2.5044 0.9739
4.8518 -3.7283 -2.5043 0.9739
5.3332 -2.9963 -2.5036 0.9739
5.5332 -2.6064 -2.5033 0.9739
5.6226 -2.4064 -2.5031 0.9739
5.7048 -2.2033 -2.5029 0.9739
2.7882 -0.6389 -1.1707 0.9877
2.7690 -0.2274 -1.1371 0.9881
2.7717 -0.1279 -1.1356 0.9881
2.7729 -0.0285 -1.1349 0.9881
2.7725 0.0708 -1.1351 0.9881
-3.6876 -4.4079 -2.5046 0.9752
-3.3629 -4.6611 -2.5049 0.9752
-2.8438 -4.9956 -2.5052 0.9752
-2.6631 -5.0944 -2.5053 0.9752
-2.2917 -5.2724 -2.5055 0.9752
-2.1015 -5.3513 -2.5055 0.9752
-1.9085 -5.4232 -2.5056 0.9752
-1.5154 -5.5462 -2.5057 0.9752
-1.3158 -5.5971 -2.5058 0.9752
-1.1145 -5.6407 -2.5058 0.9752
-0.9117 -5.6771 -2.5059 0.9752
-0.5029 -5.7279 -2.5059 0.9752
-0.2974 -5.7424 -2.5059 0.9752
0.1144 -5.7489 -2.5060 0.9752
0.7305 -5.7034 -2.5059 0.9752
0.9343 -5.6735 -2.5059 0.9752
1.1370 -5.6364 -2.5059 0.9752
1.5375 -5.5404 -2.5058 0.9752
1.7350 -5.4816 -2.5058 0.9752
1.9302 -5.4158 -2.5057 0.9752
2.1229 -5.3431 -2.5057 0.9752
2.3128 -5.2635 -2.5056 0.9752
2.4998 -5.1771 -2.5055 0.9752
2.6836 -5.0841 -2.5054 0.9752
3.0405 -4.8786 -2.5053 0.9752
3.2131 -4.7663 -2.5052 0.9752
3.3817 -4.6480 -2.5051 0.9752
3.5458 -4.5237 -2.5050 0.9752
3.8602 -4.2578 -2.5047 0.9752
4.2941 -3.8185 -2.5043 0.9752
4.5559 -3.5009 -2.5041 0.9752
4.6781 -3.3353 -2.5039 0.9752
4.7943 -3.1654 -2.5038 0.9752
4.9043 -2.9914 -2.5036 0.9752
5.0080 -2.8136 -2.5034 0.9752
5.1053 -2.6323 -2.5033 0.9752
5.2799 -2.2597 -2.5030 0.9753
5.4274 -1.8756 -2.5026 0.9753
2.6928 -0.7195 -1.2147 0.9879
2.6814 -0.6144 -1.1989 0.9881
2.6793 -0.5137 -1.1889 0.9882
2.6819 -0.4152 -1.1828 0.9882
2.6842 -0.3176 -1.1780 0.9883
2.6914 -0.1242 -1.1742 0.9883
2.6911 -0.0277 -1.1729 0.9883
-3.6179 -4.0226 -2.5043 0.9764
-3.4716 -4.1498 -2.5044 0.9764
-3.3209 -4.2717 -2.5045 0.9764
-3.0068 -4.4989 -2.5047 0.9764
-2.6772 -4.7030 -2.5049 0.9764
-2.5071 -4.7960 -2.5050 0.9764
-2.3338 -4.8829 -2.5051 0.9764
-1.9783 -5.0378 -2.5053 0.9764
-1.7967 -5.1055 -2.5053 0.9764
-1.0492 -5.3103 -2.5055 0.9764
-0.8583 -5.3445 -2.5056 0.9764
-0.6663 -5.3719 -2.5056 0.9764
-0.4735 -5.3924 -2.5056 0.9764
-0.0862 -5.4125 -2.5057 0.9764
0.3015 -5.4048 -2.5057 0.9764
0.4949 -5.3905 -2.5057 0.9764
0.8796 -5.3411 -2.5056 0.9764
1.0703 -5.3062 -2.5056 0.9764
1.4474 -5.2158 -2.5055 0.9764
1.8171 -5.0986 -2.5054 0.9764
1.9985 -5.0301 -2.5054 0.9764
2.1773 -4.9551 -2.5053 0.9764
2.3534 -4.8738 -2.5052 0.9764
2.5264 -4.7863 -2.5052 0.9764
2.6961 -4.6925 -2.5051 0.9764
2.8624 -4.5928 -2.5050 0.9764
3.0249 -4.4872 -2.5049 0.9764
3.1836 -4.3758 -2.5048 0.9764
3.3382 -4.2587 -2.5047 0.9764
3.4884 -4.1363 -2.5046 0.9764
3.6342 -4.0085 -2.5045 0.9764
3.9115 -3.7376 -2.5043 0.9764
4.1686 -3.4477 -2.5040 0.9764
4.6172 -2.8163 -2.5034 0.9764
4.7149 -2.6490 -2.5033 0.9764
4.8064 -2.4782 -2.5031 0.9764
4.8918 -2.3043 -2.5030 0.9764
4.9709 -2.1275 -2.5028 0.9764
5.0436 -1.9479 -2.5027 0.9765
2.6322 -0.7033 -1.2611 0.9881
2.6105 -0.3089 -1.2168 0.9885
2.6152 -0.2148 -1.2146 0.9885
2.6179 -0.1208 -1.2131 0.9885
-2.9873 -4.1405 -2.5044 0.9775
-2.6834 -4.3441 -2.5046 0.9775
-2.5261 -4.4376 -2.5047 0.9775
-2.3656 -4.5254 -2.5048 0.9775
-2.0357 -4.6834 -2.5049 0.9775
-1.3461 -4.9266 -2.5052 0.9775
-1.1688 -4.9717 -2.5052 0.9775
-0.9899 -5.0105 -2.5053 0.9775
-0.6287 -5.0687 -2.5053 0.9775
-0.0813 -5.1070 -2.5054 0.9775
0.1017 -5.1066 -2.5054 0.9775
0.2845 -5.0997 -2.5054 0.9775
0.6489 -5.0662 -2.5054 0.9775
1.0099 -5.0066 -2.5053 0.9775
1.1886 -4.9672 -2.5053 0.9775
1.5411 -4.8692 -2.5052 0.9775
1.7145 -4.8108 -2.5052 0.9775
2.3838 -4.5162 -2.5049 0.9775
2.5440 -4.4277 -2.5048 0.9775
3.1498 -4.0184 -2.5045 0.9775
3.4291 -3.7823 -2.5043 0.9775
3.8146 -3.3921 -2.5039 0.9775
3.9334 -3.2532 -2.5038 0.9775
4.0472 -3.1100 -2.5037 0.9775
4.3568 -2.6575 -2.5033 0.9775
4.5354 -2.3385 -2.5030 0.9775
4.6160 -2.1743 -2.5029 0.9775
4.6906 -2.0075 -2.5027 0.9775
4.7592 -1.8381 -2.5026 0.9775
4.8217 -1.6663 -2.5024 0.9775
4.8780 -1.4924 -2.5022 0.9775
2.5891 -0.4008 -1.2851 0.9884
2.5880 -0.3062 -1.2783 0.9885
2.5867 -0.2124 -1.2731 0.9885
2.5865 -0.1194 -1.2701 0.9885
2.5872 -0.0266 -1.2692 0.9885
2.5886 0.0661 -1.2702 0.9885
-2.9626 -3.8108 -2.5041 0.9785
-2.8243 -3.9147 -2.5042 0.9785
-2.2366 -4.2785 -2.5046 0.9785
-1.9246 -4.4279 -2.5047 0.9785
-1.7649 -4.4941 -2.5048 0.9785
-1.2726 -4.6579 -2.5049 0.9785
-0.5944 -4.7921 -2.5051 0.9785
-0.2498 -4.8224 -2.5051 0.9785
-0.0769 -4.8283 -2.5051 0.9785
0.0961 -4.8280 -2.5051 0.9785
0.4415 -4.8087 -2.5051 0.9785
1.2912 -4.6528 -2.5050 0.9785
1.9424 -4.4204 -2.5048 0.9785
2.0994 -4.3479 -2.5048 0.9785
2.2537 -4.2698 -2.5047 0.9785
2.9780 -3.7992 -2.5043 0.9785
3.4895 -3.3345 -2.5039 0.9785
3.8265 -2.9405 -2.5035 0.9785
4.1193 -2.5126 -2.5031 0.9785
4.2064 -2.3633 -2.5030 0.9785
4.3643 -2.0559 -2.5027 0.9785
4.4998 -1.7379 -2.5025 0.9785
4.5589 -1.5755 -2.5023 0.9785
2.6298 -0.8046 -1.4267 0.9877
2.5726 -0.6874 -1.3814 0.9881
2.5634 -0.5874 -1.3643 0.9882
2.5666 -0.4921 -1.3558 0.9883
2.5667 -0.3974 -1.3474 0.9884
2.5666 -0.2108 -1.3360 0.9885
2.5664 -0.1184 -1.3328 0.9885
2.5666 -0.0264 -1.3316 0.9885
2.5666 0.0656 -1.3319 0.9885
-3.0569 -3.3989 -2.5037 0.9794
-2.8060 -3.6093 -2.5039 0.9794
-2.6750 -3.7076 -2.5040 0.9794
-2.5406 -3.8012 -2.5041 0.9794
-2.2620 -3.9736 -2.5043 0.9794
-1.9719 -4.1256 -2.5044 0.9794
-1.8228 -4.1937 -2.5045 0.9794
-1.6715 -4.2564 -2.5046 0.9794
-1.3625 -4.3653 -2.5047 0.9794
-1.2053 -4.4114 -2.5047 0.9794
-0.8864 -4.4866 -2.5048 0.9794
-0.5629 -4.5386 -2.5048 0.9794
-0.0728 -4.5729 -2.5049 0.9794
0.0910 -4.5726 -2.5049 0.9794
0.2548 -4.5664 -2.5049 0.9794
0.5810 -4.5364 -2.5049 0.9794
0.7432 -4.5127 -2.5049 0.9794
0.9043 -4.4831 -2.5048 0.9794
1.0643 -4.4478 -2.5048 0.9794
1.2229 -4.4067 -2.5048 0.9794
1.6885 -4.2499 -2.5047 0.9794
1.8396 -4.1866 -2.5046 0.9794
2.4185 -3.8805 -2.5043 0.9794
2.5558 -3.7913 -2.5043 0.9794
3.0707 -3.3870 -2.5039 0.9794
3.3050 -3.1581 -2.5037 0.9794
3.4159 -3.0376 -2.5036 0.9794
3.5223 -2.9131 -2.5035 0.9794
3.8140 -2.5181 -2.5031 0.9794
3.9015 -2.3798 -2.5030 0.9794
3.9841 -2.2384 -2.5029 0.9794
4.2005 -1.7978 -2.5025 0.9794
4.3180 -1.4923 -2.5022 0.9794
2.6020 -0.7961 -1.4904 0.9877
2.5429 -0.6794 -1.4416 0.9881
2.5418 -0.5824 -1.4283 0.9882
2.5448 -0.3940 -1.4104 0.9883
-2.8998 -3.2242 -2.5036 0.9802
-2.6617 -3.4237 -2.5038 0.9802
-2.4099 -3.6058 -2.5039 0.9802
-1.7291 -3.9781 -2.5043 0.9802
-1.5855 -4.0376 -2.5044 0.9802
-1.4399 -4.0918 -2.5044 0.9802
-0.9927 -4.2229 -2.5045 0.9802
-0.6879 -4.2833 -2.5046 0.9802
-0.5340 -4.3052 -2.5046 0.9802
-0.3794 -4.3216 -2.5047 0.9802
-0.0691 -4.3377 -2.5047 0.9802
0.2417 -4.3315 -2.5047 0.9802
0.3967 -4.3201 -2.5047 0.9802
0.7049 -4.2806 -2.5046 0.9802
1.4563 -4.0862 -2.5045 0.9802
2.4244 -3.5963 -2.5041 0.9802
2.5516 -3.5071 -2.5040 0.9802
2.6755 -3.4133 -2.5039 0.9802
2.7959 -3.3152 -2.5038 0.9802
3.2403 -2.8814 -2.5035 0.9802
3.4380 -2.6418 -2.5032 0.9802
3.6179 -2.3887 -2.5030 0.9802
3.7793 -2.1233 -2.5028 0.9802
3.8528 -1.9865 -2.5027 0.9802
3.9213 -1.8471 -2.5025 0.9802
4.0430 -1.5615 -2.5023 0.9802
4.0962 -1.4156 -2.5021 0.9802
2.5742 -0.7876 -1.5542 0.9876
2.5225 -0.5780 -1.4941 0.9881
2.5246 -0.3908 -1.4749 0.9883
2.5230 -0.2985 -1.4668 0.9883
2.5238 -0.0260 -1.4572 0.9884
2.5240 0.0645 -1.4577 0.9884
