ply
format ascii 1.0
element vertex 946
property float32 x
property float32 y
property float32 z
property float32 I
end_header
-28.2628 -11.6044 5.3872 0.8833
-7.5734 44.7870 6.9585 0.8321
-10.8122 20.2595 3.5180 0.9113
-12.7836 20.3021 3.6754 0.9075
-18.4889 8.5944 3.1235 0.9208
-8.2978 -11.9365 2.2270 0.9429
-7.5577 44.6942 5.9027 0.8329
-8.9713 22.2891 3.1288 0.9076
-9.0138 20.2651 2.8882 0.9144
-11.7758 20.2795 3.0538 0.9097
-12.7830 20.3013 3.1241 0.9078
-13.8391 20.3242 3.2019 0.9056
-14.9507 20.3483 3.2881 0.9032
-18.4848 8.5925 2.6545 0.9211
-28.2531 -11.6004 3.9772 0.8841
-8.2970 -11.9353 1.8929 0.9431
-8.7918 31.1501 3.4756 0.8779
-8.8576 27.5624 3.1088 0.8901
-9.8854 20.2378 2.4186 0.9134
-11.7754 20.2787 2.5181 0.9100
-12.7825 20.3005 2.5761 0.9080
-8.6844 35.6065 3.1025 0.8632
-8.7915 31.1490 2.7399 0.8782
-8.9302 27.7882 2.4708 0.8894
-9.0430 22.4671 2.0502 0.9074
-9.0094 20.2552 1.8766 0.9149
-9.8850 20.2371 1.9066 0.9136
-10.8109 20.2571 1.9437 0.9119
-12.7820 20.2996 2.0307 0.9082
-14.9494 20.3465 2.1373 0.9036
-28.2435 -11.5964 2.5846 0.8847
-9.8846 20.2363 1.3966 0.9137
-10.8105 20.2563 1.4238 0.9121
-11.7744 20.2771 1.4540 0.9103
-13.8374 20.3216 1.5246 0.9062
-8.2946 -11.9319 0.9011 0.9434
-2.0229 21.0515 0.8339 0.9188
-8.6774 35.5779 1.4440 0.8636
-6.5685 23.2726 0.9535 0.9077
-8.9618 22.2655 0.9464 0.9084
-10.8100 20.2555 0.9053 0.9122
-8.6739 35.5633 0.6183 0.8638
-6.5679 23.2706 0.4084 0.9078
-8.8464 27.5275 0.4884 0.8908
-8.9083 24.6488 0.4427 0.9005
-8.9596 22.2599 0.4053 0.9085
-9.0029 20.2407 0.3742 0.9152
-10.8088 20.2532 0.3878 0.9123
-11.7726 20.2740 0.3960 0.9105
-13.8353 20.3185 0.4152 0.9063
-18.4647 8.5831 0.3440 0.9218
-28.2292 -11.5906 0.5155 0.8851
-7.5533 44.6682 -0.2551 0.8343
-9.6013 23.8544 -0.1448 0.9023
-10.8084 20.2524 -0.1292 0.9123
-11.7722 20.2732 -0.1320 0.9105
-14.9458 20.3416 -0.1421 0.9040
-18.4607 8.5813 -0.1146 0.9218
-2.0219 21.0413 -0.5952 0.9189
-8.7008 35.6738 -1.0339 0.8633
-6.5668 23.2668 -0.6807 0.9078
-9.4671 29.4586 -0.8713 0.8835
-8.9032 24.6347 -0.7376 0.9005
-8.9986 20.2309 -0.6235 0.9152
-9.8824 20.2317 -0.6340 0.9138
-10.8080 20.2516 -0.6464 0.9122
-11.7717 20.2724 -0.6601 0.9105
-13.8341 20.3168 -0.6921 0.9063
-18.4567 8.5794 -0.5731 0.9218
-28.2198 -11.5867 -0.8590 0.8851
-8.2914 -11.9274 -0.4090 0.9435
-2.0216 21.0379 -1.0718 0.9188
-6.5663 23.2648 -1.2260 0.9077
-8.9006 24.6277 -1.3280 0.9004
-9.6006 23.8526 -1.3040 0.9021
-8.9964 20.2260 -1.1226 0.9152
-11.7712 20.2716 -1.1888 0.9104
-13.8335 20.3159 -1.2465 0.9062
-8.2906 -11.9262 -0.7366 0.9435
-4.3199 32.6222 -2.4128 0.8764
-6.6747 32.3668 -2.4231 0.8759
-6.0587 24.8411 -1.8748 0.9025
-6.5657 23.2629 -1.7723 0.9076
-9.6003 23.8517 -1.8852 0.9020
-8.9942 20.2211 -1.6227 0.9151
-11.7708 20.2708 -1.7187 0.9103
-12.7775 20.2924 -1.7583 0.9083
-13.8329 20.3151 -1.8021 0.9061
-22.8956 25.0128 -2.4863 0.8728
-24.6862 23.3621 -2.4921 0.8726
-25.5345 22.4855 -2.4947 0.8724
-26.3496 21.5763 -2.4971 0.8723
-28.5822 18.6673 -2.5031 0.8720
-29.2514 17.6417 -2.5047 0.8720
-31.5246 13.3012 -2.5088 0.8718
-32.4061 11.0114 -2.5095 0.8717
-32.7805 9.8427 -2.5095 0.8717
-33.5492 6.2479 -2.5022 0.8721
-35.9344 5.3672 -2.6640 0.8644
-36.0848 4.0734 -2.6626 0.8645
-36.2365 1.4753 -2.6591 0.8646
-36.2378 0.1752 -2.6571 0.8647
-36.0916 -2.4175 -2.6522 0.8650
-31.9988 -10.5290 -2.4700 0.8736
-31.5926 -11.6664 -2.4693 0.8737
-29.9910 -16.2743 -2.5019 0.8721
-29.5209 -17.4173 -2.5132 0.8716
-28.5108 -19.7047 -2.5412 0.8702
-27.9640 -20.8468 -2.5574 0.8695
-27.3787 -21.9804 -2.5744 0.8686
-26.1099 -24.2352 -2.6120 0.8669
-25.4083 -25.3392 -2.6311 0.8660
-24.6577 -26.4203 -2.6498 0.8651
-23.8531 -27.4699 -2.6675 0.8642
-20.1236 -31.2843 -2.7274 0.8614
-16.8418 -33.6505 -2.7591 0.8599
-15.6686 -34.3291 -2.7669 0.8595
-1.5044 15.6562 -1.5100 0.9388
-1.8513 13.9807 -1.3539 0.9449
-5.0587 24.5305 -2.4046 0.9043
-8.5653 23.7000 -2.4193 0.9037
-8.9920 20.2162 -2.1242 0.9149
-9.8813 20.2294 -2.1614 0.9135
-10.8067 20.2493 -2.2036 0.9119
-11.7703 20.2700 -2.2503 0.9101
-14.9432 20.3381 -2.4229 0.9036
-16.5413 19.4255 -2.4495 0.9026
-19.2151 16.9206 -2.4580 0.9022
-19.8237 16.2327 -2.4598 0.9022
-20.9623 14.7892 -2.4629 0.9020
-21.9903 13.2625 -2.4654 0.9020
-22.9013 11.6615 -2.4673 0.9019
-24.0361 9.1410 -2.4688 0.9018
-24.3468 8.2729 -2.4687 0.9018
-24.6015 7.3869 -2.4660 0.9019
-26.6616 5.9615 -2.6228 0.8960
-26.8512 5.0005 -2.6222 0.8961
-27.0044 4.0334 -2.6213 0.8961
-27.2008 2.0863 -2.6191 0.8962
-27.2439 1.1092 -2.6177 0.8962
-27.2501 0.1317 -2.6162 0.8963
-27.2196 -0.8447 -2.6145 0.8963
-26.7330 -4.7116 -2.6061 0.8967
-26.5216 -5.6616 -2.6036 0.8968
-26.2750 -6.6020 -2.6009 0.8969
-25.6783 -8.4493 -2.5953 0.8971
-23.0473 -10.4435 -2.4292 0.9033
-22.6493 -11.2587 -2.4283 0.9034
-22.2613 -12.0799 -2.4316 0.9032
-20.5542 -15.3229 -2.4613 0.9021
-20.0296 -16.0804 -2.4660 0.9019
-19.4749 -16.8180 -2.4704 0.9018
-18.8910 -17.5346 -2.4745 0.9016
-18.2993 -18.2495 -2.4811 0.9014
-17.6811 -18.9450 -2.4879 0.9011
-16.3575 -20.2615 -2.5000 0.9006
-15.6544 -20.8798 -2.5054 0.9004
-11.8027 -23.5823 -2.5317 0.8995
-10.9651 -24.0241 -2.5353 0.8993
-1.3106 13.6390 -1.6276 0.9463
-1.4927 11.2725 -1.3507 0.9552
-2.0269 11.9866 -1.4441 0.9522
-4.7801 19.5988 -2.3963 0.9220
-5.4865 19.4390 -2.3993 0.9219
-6.1873 19.2532 -2.4022 0.9218
-6.8818 19.0415 -2.4051 0.9217
-7.5687 18.8043 -2.4078 0.9216
-11.4798 16.8592 -2.4228 0.9211
-13.2575 15.5692 -2.4290 0.9209
-13.8177 15.0955 -2.4309 0.9209
-14.8847 14.0863 -2.4343 0.9208
-16.3394 12.4283 -2.4386 0.9206
-16.7826 11.8403 -2.4397 0.9206
-17.2037 11.2359 -2.4408 0.9206
-18.3285 9.3330 -2.4432 0.9205
-21.1524 5.5329 -2.5971 0.9157
-21.3339 4.7702 -2.5967 0.9157
-21.4867 4.0015 -2.5962 0.9157
-21.7057 2.4502 -2.5947 0.9158
-21.7716 1.6699 -2.5938 0.9158
-21.8083 0.8879 -2.5927 0.9158
-21.8159 0.1055 -2.5914 0.9159
-21.7943 -0.6763 -2.5901 0.9159
-21.7435 -1.4564 -2.5886 0.9160
-21.6639 -2.2336 -2.5870 0.9160
-21.5554 -3.0068 -2.5853 0.9161
-21.4184 -3.7749 -2.5834 0.9161
-21.2531 -4.5369 -2.5814 0.9162
-21.0597 -5.2916 -2.5794 0.9162
-20.8387 -6.0380 -2.5772 0.9163
-20.0135 -8.2173 -2.5699 0.9165
-19.6860 -8.9204 -2.5673 0.9166
-19.3332 -9.6103 -2.5646 0.9167
-17.9038 -9.7153 -2.4197 0.9212
-17.0393 -10.8950 -2.4024 0.9218
-15.8675 -12.7389 -2.4171 0.9213
-14.4962 -14.4568 -2.4319 0.9208
-13.4590 -15.4997 -2.4384 0.9206
-12.3354 -16.4532 -2.4427 0.9205
-9.8793 -18.0883 -2.4482 0.9203
-9.2272 -18.4364 -2.4490 0.9203
-8.5665 -18.7687 -2.4507 0.9203
-7.8927 -19.0748 -2.4521 0.9202
-4.5830 16.2379 -2.3906 0.9341
-5.1674 16.0794 -2.3930 0.9340
-6.3186 15.6985 -2.3977 0.9339
-6.8838 15.4764 -2.4000 0.9339
-7.4410 15.2335 -2.4022 0.9338
-7.9893 14.9701 -2.4043 0.9337
-10.0793 13.7182 -2.4120 0.9335
-11.0517 12.9788 -2.4153 0.9334
-11.9682 12.1687 -2.4183 0.9334
-13.2263 10.8304 -2.4221 0.9333
-13.6120 10.3538 -2.4232 0.9332
-15.2528 7.7668 -2.4252 0.9332
-15.7538 6.6470 -2.4227 0.9333
-17.4383 5.2361 -2.5798 0.9291
-17.7649 3.9722 -2.5793 0.9291
-17.8928 3.3322 -2.5788 0.9291
-18.0769 2.0406 -2.5776 0.9291
-18.1329 1.3908 -2.5768 0.9292
-18.1560 -0.5634 -2.5738 0.9292
-18.1155 -1.2134 -2.5725 0.9293
-18.0510 -1.8611 -2.5712 0.9293
-17.8506 -3.1461 -2.5682 0.9294
-17.7151 -3.7816 -2.5666 0.9294
-17.5563 -4.4113 -2.5649 0.9295
-17.3745 -5.0343 -2.5630 0.9295
-16.6943 -6.8545 -2.5570 0.9297
-16.4239 -7.4422 -2.5549 0.9297
-15.4875 -9.1376 -2.5479 0.9299
-14.0517 -9.7115 -2.4202 0.9333
-12.3192 -11.4347 -2.3815 0.9343
-11.4994 -12.3214 -2.3880 0.9342
-10.6561 -13.1994 -2.4036 0.9338
-10.2061 -13.6131 -2.4107 0.9336
-8.1966 -11.7909 -2.0347 0.9436
-8.6991 -14.6532 -2.4145 0.9335
-8.1721 -14.9625 -2.4156 0.9334
-7.6323 -15.2496 -2.4162 0.9334
-6.5214 -15.7609 -2.4168 0.9334
-1.6254 9.6120 -1.6060 0.9613
-3.4264 14.0484 -2.3822 0.9431
-3.9314 13.9292 -2.3843 0.9430
-4.4321 13.7915 -2.3864 0.9430
-4.9279 13.6353 -2.3885 0.9429
-5.9018 13.2687 -2.3924 0.9428
-6.3787 13.0588 -2.3942 0.9428
-6.8479 12.8314 -2.3960 0.9427
-7.3089 12.5868 -2.3978 0.9427
-7.7608 12.3253 -2.3995 0.9427
-8.6354 11.7530 -2.4026 0.9426
-9.8645 10.7767 -2.4068 0.9425
-10.2498 10.4215 -2.4080 0.9425
-11.6543 8.8646 -2.4122 0.9424
-11.9687 8.4440 -2.4130 0.9423
-12.2618 8.0083 -2.4127 0.9424
-13.0382 6.6391 -2.4103 0.9424
-14.3573 6.0578 -2.5671 0.9388
-14.7552 5.0137 -2.5673 0.9388
-15.2050 3.3998 -2.5667 0.9388
-15.3148 2.8521 -2.5663 0.9388
-15.4734 1.7467 -2.5653 0.9388
-15.5221 1.1905 -2.5646 0.9388
-15.5445 -0.4824 -2.5620 0.9389
-15.5109 -1.0389 -2.5610 0.9389
-15.4568 -1.5936 -2.5598 0.9390
-15.1731 -3.2390 -2.5559 0.9390
-14.8843 -4.3127 -2.5529 0.9391
-14.7107 -4.8404 -2.5512 0.9391
-14.5180 -5.3611 -2.5495 0.9392
-13.5623 -7.3594 -2.5420 0.9394
-10.5532 -9.7954 -2.3720 0.9433
-10.1888 -10.1610 -2.3705 0.9433
-9.8124 -10.5138 -2.3692 0.9434
-9.4236 -10.8524 -2.3678 0.9434
-9.0228 -11.1763 -2.3663 0.9434
-8.1317 -11.6976 -2.3469 0.9439
-6.0021 -13.1505 -2.3814 0.9431
-1.0213 10.6281 -2.0069 0.9575
-1.2693 9.5857 -1.8175 0.9614
-2.9974 12.2897 -2.3777 0.9498
-3.4388 12.1840 -2.3796 0.9498
-4.7377 11.7708 -2.3849 0.9497
-5.9863 11.2170 -2.3898 0.9496
-6.3887 11.0022 -2.3913 0.9495
-6.7831 10.7726 -2.3928 0.9495
-7.1692 10.5287 -2.3942 0.9495
-7.5463 10.2707 -2.3955 0.9494
-7.9138 9.9989 -2.3968 0.9494
-8.6185 9.4154 -2.3992 0.9494
-9.8884 8.0972 -2.4023 0.9493
-10.4405 7.3659 -2.4016 0.9493
-11.2121 6.2252 -2.4105 0.9491
-12.1235 6.1733 -2.5572 0.9461
-12.3383 5.7354 -2.5574 0.9461
-12.8843 4.3780 -2.5577 0.9461
-13.3736 2.4906 -2.5569 0.9461
-13.4521 2.0092 -2.5565 0.9461
-13.5129 1.5254 -2.5560 0.9462
-13.5557 1.0398 -2.5554 0.9462
-13.5808 0.5530 -2.5548 0.9462
-13.5878 0.0657 -2.5540 0.9462
-13.5771 -0.4213 -2.5532 0.9462
-13.5484 -0.9075 -2.5523 0.9462
-13.5019 -1.3921 -2.5513 0.9463
-12.8556 -4.2300 -2.5438 0.9464
-12.5045 -5.1342 -2.5408 0.9465
-12.3045 -5.5756 -2.5391 0.9465
-11.8575 -6.4343 -2.5357 0.9466
-11.6110 -6.8504 -2.5339 0.9466
-10.7842 -8.0394 -2.5283 0.9467
-10.4809 -8.4143 -2.5263 0.9468
-10.1643 -8.7776 -2.5243 0.9468
-9.8351 -9.1289 -2.5222 0.9468
-9.4936 -9.4678 -2.5201 0.9469
-9.0479 -9.6948 -2.4925 0.9475
-8.4300 -9.7082 -2.4167 0.9490
-7.8869 -9.7693 -2.3599 0.9502
-6.7794 -10.5393 -2.3554 0.9503
-6.3931 -10.7687 -2.3539 0.9503
-5.9990 -10.9837 -2.3524 0.9503
-5.5975 -11.1840 -2.3508 0.9504
-1.2716 9.6028 -2.0476 0.9612
-1.9832 9.6169 -2.0756 0.9607
-3.0531 10.8173 -2.3759 0.9551
-3.8255 10.5850 -2.3791 0.9550
-4.9491 10.1321 -2.3836 0.9549
-6.0185 9.5583 -2.3876 0.9549
-6.3606 9.3413 -2.3888 0.9548
-6.6947 9.1117 -2.3900 0.9548
-7.6443 8.3512 -2.3931 0.9548
-9.2490 6.5253 -2.3926 0.9548
-10.5448 5.8547 -2.5495 0.9519
-10.7493 5.4736 -2.5498 0.9519
-10.9396 5.0852 -2.5500 0.9519
-11.2770 4.2887 -2.5503 0.9519
-11.4236 3.8817 -2.5503 0.9519
-11.7723 2.6323 -2.5499 0.9519
-11.8578 2.2083 -2.5496 0.9519
-11.9276 1.7816 -2.5492 0.9519
-12.0153 -0.8048 -2.5455 0.9520
-11.5381 -3.3431 -2.5392 0.9521
-11.2574 -4.1571 -2.5367 0.9521
-11.0951 -4.5555 -2.5353 0.9521
-10.9185 -4.9475 -2.5339 0.9522
-10.7278 -5.3327 -2.5324 0.9522
-10.3055 -6.0802 -2.5293 0.9523
-9.8304 -6.7941 -2.5259 0.9523
-8.7338 -8.1067 -2.5189 0.9524
-8.4313 -8.4084 -2.5170 0.9525
-8.1184 -8.6987 -2.5151 0.9525
-6.7379 -9.6926 -2.4952 0.9529
-6.2412 -9.7026 -2.4386 0.9539
-5.7656 -9.7117 -2.3874 0.9549
-5.3252 -9.7501 -2.3483 0.9556
-4.6065 -10.0926 -2.3451 0.9557
-1.6126 9.5368 -2.2732 0.9610
-1.9689 9.5474 -2.2911 0.9607
-2.7423 9.7162 -2.3727 0.9594
-3.0910 9.6183 -2.3744 0.9593
-3.4359 9.5069 -2.3758 0.9593
-4.1129 9.2468 -2.3785 0.9593
-4.7700 8.9379 -2.3810 0.9592
-5.0900 8.7656 -2.3822 0.9592
-5.7104 8.3863 -2.3845 0.9592
-6.5809 7.7285 -2.3857 0.9591
-6.8544 7.4883 -2.3859 0.9591
-7.1188 7.2381 -2.3860 0.9591
-7.6192 6.7095 -2.3860 0.9591
-8.1738 6.2172 -2.4136 0.9587
-9.0586 5.9163 -2.5428 0.9565
-9.8162 4.5630 -2.5441 0.9565
-10.2503 3.4830 -2.5443 0.9565
-10.5635 2.3620 -2.5440 0.9565
-10.7518 1.2137 -2.5430 0.9565
-10.8070 0.4400 -2.5420 0.9565
-10.8132 0.0523 -2.5414 0.9565
-10.7833 -0.7223 -2.5400 0.9566
-10.6970 -1.4921 -2.5384 0.9566
-10.6329 -1.8740 -2.5375 0.9566
-10.4631 -2.6290 -2.5355 0.9566
-10.3577 -3.0011 -2.5344 0.9567
-10.2389 -3.3690 -2.5333 0.9567
-10.1068 -3.7322 -2.5321 0.9567
-9.9616 -4.0901 -2.5309 0.9567
-9.4500 -5.1279 -2.5269 0.9568
-9.0480 -5.7853 -2.5240 0.9568
-8.8295 -6.1023 -2.5225 0.9569
-8.5998 -6.4110 -2.5210 0.9569
-8.3592 -6.7110 -2.5194 0.9569
-8.1081 -7.0019 -2.5178 0.9569
-7.8467 -7.2833 -2.5162 0.9570
-7.5755 -7.5549 -2.5145 0.9570
-7.2949 -7.8164 -2.5128 0.9570
-6.7068 -8.3076 -2.5093 0.9571
-6.4002 -8.5366 -2.5076 0.9571
-5.7639 -8.9605 -2.5040 0.9572
-4.7581 -9.5069 -2.4986 0.9573
-4.4110 -9.6643 -2.4967 0.9573
-0.8720 9.0745 -2.3603 0.9630
-1.1978 9.0455 -2.3625 0.9630
-1.5226 9.0045 -2.3645 0.9630
-1.8460 8.9515 -2.3665 0.9629
-2.8026 8.7209 -2.3717 0.9629
-3.1152 8.6198 -2.3731 0.9628
-3.4240 8.5070 -2.3743 0.9628
-4.3224 8.0992 -2.3770 0.9628
-5.1707 7.5938 -2.3787 0.9628
-5.4406 7.4048 -2.3791 0.9627
-5.7034 7.2061 -2.3794 0.9627
-6.2063 6.7802 -2.3799 0.9627
-6.4457 6.5536 -2.3800 0.9627
-7.5649 6.1945 -2.5316 0.9604
-7.7992 5.9324 -2.5371 0.9603
-8.0084 5.6500 -2.5376 0.9603
-8.2073 5.3603 -2.5381 0.9603
-8.7386 4.4498 -2.5390 0.9603
-9.0362 3.8127 -2.5394 0.9603
-9.1673 3.4864 -2.5394 0.9603
-9.3934 2.8205 -2.5394 0.9603
-9.4880 2.4818 -2.5393 0.9603
-9.5706 2.1399 -2.5391 0.9603
-9.7413 1.0997 -2.5382 0.9603
-9.7975 0.0474 -2.5368 0.9603
-9.7906 -0.3038 -2.5362 0.9603
-9.7709 -0.6544 -2.5355 0.9603
-9.6354 -1.6982 -2.5332 0.9604
-9.4823 -2.3825 -2.5314 0.9604
-9.2799 -3.0534 -2.5294 0.9604
-9.1605 -3.3827 -2.5284 0.9605
-8.8866 -4.0268 -2.5261 0.9605
-8.3904 -4.9503 -2.5224 0.9605
-8.2033 -5.2452 -2.5210 0.9606
-8.0056 -5.5329 -2.5197 0.9606
-7.5801 -6.0855 -2.5169 0.9606
-7.1163 -6.6053 -2.5139 0.9607
-6.3543 -7.3177 -2.5093 0.9607
-6.0840 -7.5361 -2.5077 0.9608
-5.8062 -7.7444 -2.5061 0.9608
-5.5213 -7.9425 -2.5045 0.9608
-5.2296 -8.1300 -2.5029 0.9608
-4.6276 -8.4727 -2.4996 0.9609
-4.3180 -8.6275 -2.4980 0.9609
-4.0032 -8.7709 -2.4963 0.9609
-3.6838 -8.9028 -2.4947 0.9610
-1.0940 8.2617 -2.3592 0.9659
-1.3905 8.2234 -2.3610 0.9659
-1.9790 8.1142 -2.3644 0.9659
-2.2701 8.0433 -2.3659 0.9659
-2.5585 7.9614 -2.3673 0.9658
-3.1256 7.7655 -2.3697 0.9658
-3.4034 7.6516 -2.3707 0.9658
-3.6768 7.5273 -2.3716 0.9658
-3.9454 7.3929 -2.3722 0.9658
-4.2090 7.2484 -2.3728 0.9658
-4.9657 6.7585 -2.3742 0.9657
-5.2055 6.5770 -2.3745 0.9657
-5.4385 6.3868 -2.3747 0.9657
-5.6953 6.2220 -2.3879 0.9655
-6.1035 6.2057 -2.4641 0.9645
-6.4951 6.1467 -2.5316 0.9635
-6.9221 5.6681 -2.5327 0.9635
-7.1222 5.4174 -2.5332 0.9635
-7.3132 5.1595 -2.5337 0.9635
-7.6663 4.6236 -2.5344 0.9635
-7.8280 4.3463 -2.5347 0.9635
-7.9796 4.0633 -2.5350 0.9635
-8.2512 3.4815 -2.5353 0.9635
-8.4797 2.8814 -2.5353 0.9635
-8.6638 2.2662 -2.5352 0.9635
-8.8026 1.6393 -2.5348 0.9635
-8.8954 1.0042 -2.5342 0.9635
-8.9243 0.6845 -2.5338 0.9635
-8.9232 -0.5977 -2.5318 0.9635
-8.8528 -1.2349 -2.5304 0.9635
-8.7362 -1.8649 -2.5289 0.9635
-8.6609 -2.1762 -2.5280 0.9636
-8.3679 -3.0900 -2.5252 0.9636
-7.8269 -4.2471 -2.5209 0.9637
-7.6660 -4.5229 -2.5198 0.9637
-7.4953 -4.7925 -2.5186 0.9637
-6.9270 -5.5611 -2.5147 0.9637
-6.7196 -5.8028 -2.5134 0.9638
-6.5037 -6.0367 -2.5121 0.9638
-6.2797 -6.2626 -2.5107 0.9638
-6.0477 -6.4800 -2.5093 0.9638
-5.5615 -6.8889 -2.5064 0.9639
-4.5090 -7.5951 -2.5005 0.9639
-3.3689 -8.1419 -2.4944 0.9640
-0.7419 7.7207 -2.3857 0.9681
-1.0058 7.5953 -2.3565 0.9684
-2.3511 7.3160 -2.3636 0.9684
-3.3783 6.9163 -2.3675 0.9683
-3.8673 6.6599 -2.3688 0.9683
-4.1044 6.5183 -2.3692 0.9683
-4.3363 6.3683 -2.3697 0.9683
-4.9149 6.2098 -2.4359 0.9674
-5.7627 5.8593 -2.5278 0.9662
-6.3628 5.2102 -2.5295 0.9662
-6.5467 4.9796 -2.5299 0.9662
-6.7221 4.7425 -2.5303 0.9662
-6.8888 4.4991 -2.5307 0.9662
-7.3343 3.7347 -2.5315 0.9661
-7.4640 3.4696 -2.5317 0.9661
-7.5839 3.1999 -2.5318 0.9661
-7.6939 2.9260 -2.5318 0.9661
-7.7939 2.6483 -2.5318 0.9661
-7.9632 2.0829 -2.5317 0.9661
-8.2029 0.6292 -2.5305 0.9662
-8.2189 0.3346 -2.5301 0.9662
-8.2187 -0.2550 -2.5291 0.9662
-8.2025 -0.5494 -2.5286 0.9662
-8.1756 -0.8429 -2.5280 0.9662
-8.0313 -1.7144 -2.5259 0.9662
-7.7933 -2.5643 -2.5235 0.9662
-7.6936 -2.8410 -2.5226 0.9663
-7.5840 -3.1139 -2.5216 0.9663
-7.4646 -3.3824 -2.5207 0.9663
-7.1972 -3.9054 -2.5186 0.9663
-6.7274 -4.6495 -2.5153 0.9664
-6.5533 -4.8854 -2.5141 0.9664
-6.3709 -5.1147 -2.5129 0.9664
-6.1804 -5.3372 -2.5117 0.9664
-5.3432 -6.1533 -2.5066 0.9665
-5.1164 -6.3375 -2.5053 0.9665
-4.8833 -6.5134 -2.5039 0.9665
-4.3993 -6.8391 -2.5012 0.9665
-4.1490 -6.9886 -2.4998 0.9666
-3.8936 -7.1290 -2.4984 0.9666
-3.3690 -7.3814 -2.4957 0.9666
-3.1005 -7.4932 -2.4943 0.9666
-0.9860 7.4458 -2.4966 0.9688
-1.2242 7.2398 -2.4407 0.9695
-3.3536 6.2839 -2.3676 0.9704
-3.6210 6.2360 -2.3970 0.9701
-3.9116 6.2122 -2.4402 0.9695
-4.2207 6.1985 -2.4927 0.9689
-4.4931 6.1152 -2.5224 0.9685
-4.7108 5.9519 -2.5231 0.9685
-5.1278 5.6020 -2.5245 0.9685
-5.3267 5.4159 -2.5251 0.9685
-5.8810 4.8156 -2.5266 0.9685
-6.3669 4.1583 -2.5278 0.9685
-6.5126 3.9278 -2.5281 0.9685
-6.7785 3.4517 -2.5285 0.9684
-6.8983 3.2066 -2.5287 0.9684
-7.2032 2.4476 -2.5288 0.9684
-7.3597 1.9251 -2.5287 0.9684
-7.5816 0.5815 -2.5276 0.9685
-7.6014 0.0368 -2.5268 0.9685
-7.5965 -0.2357 -2.5263 0.9685
-7.5816 -0.5078 -2.5258 0.9685
-7.5569 -0.7791 -2.5253 0.9685
-7.4780 -1.3179 -2.5240 0.9685
-7.4240 -1.5848 -2.5234 0.9685
-7.3603 -1.8494 -2.5227 0.9685
-7.2045 -2.3706 -2.5211 0.9685
-7.1125 -2.6264 -2.5203 0.9685
-6.9012 -3.1271 -2.5185 0.9686
-6.3734 -4.0751 -2.5146 0.9686
-6.2206 -4.2992 -2.5136 0.9686
-6.0599 -4.5175 -2.5125 0.9686
-5.8914 -4.7298 -2.5114 0.9687
-5.3422 -5.3277 -2.5079 0.9687
-5.1453 -5.5131 -2.5067 0.9687
-4.9420 -5.6913 -2.5055 0.9687
-4.7325 -5.8619 -2.5043 0.9687
-4.5170 -6.0248 -2.5031 0.9688
-3.8382 -6.4652 -2.4993 0.9688
-3.3616 -6.7167 -2.4967 0.9688
-2.8718 -6.9404 -2.4967 0.9688
-0.6704 6.9773 -2.5066 0.9707
-0.9205 6.9513 -2.5075 0.9707
-1.1696 6.9168 -2.5086 0.9706
-2.1322 6.6347 -2.4921 0.9708
-2.3603 6.5310 -2.4834 0.9709
-2.8321 6.3672 -2.4920 0.9708
-3.9655 5.8237 -2.5195 0.9705
-4.1729 5.6794 -2.5203 0.9705
-4.3750 5.5276 -2.5209 0.9705
-4.9467 5.0296 -2.5227 0.9705
-5.1249 4.8500 -2.5233 0.9705
-5.2964 4.6640 -2.5237 0.9705
-5.4612 4.4719 -2.5242 0.9705
-5.7693 4.0704 -2.5249 0.9705
-5.9123 3.8614 -2.5252 0.9704
-6.0475 3.6473 -2.5255 0.9704
-6.1750 3.4285 -2.5257 0.9704
-6.4056 2.9776 -2.5261 0.9704
-6.5085 2.7461 -2.5262 0.9704
-6.7657 2.0315 -2.5262 0.9704
-6.8340 1.7876 -2.5261 0.9704
-6.9437 1.2931 -2.5258 0.9704
-7.0402 0.5400 -2.5250 0.9705
-7.0588 0.0342 -2.5243 0.9705
-7.0543 -0.2189 -2.5239 0.9705
-7.0178 -0.7235 -2.5229 0.9705
-6.9448 -1.2240 -2.5218 0.9705
-6.8947 -1.4718 -2.5212 0.9705
-6.7679 -1.9610 -2.5198 0.9705
-6.6913 -2.2017 -2.5191 0.9705
-6.2997 -3.1315 -2.5158 0.9706
-6.1811 -3.3541 -2.5149 0.9706
-5.4733 -4.3940 -2.5100 0.9706
-5.3100 -4.5855 -2.5090 0.9706
-4.3974 -5.4470 -2.5034 0.9707
-3.9921 -5.7427 -2.5011 0.9707
-3.3477 -6.1295 -2.4976 0.9708
-3.1259 -6.2457 -2.4977 0.9708
-2.9008 -6.3554 -2.4983 0.9708
-2.6719 -6.4574 -2.4991 0.9707
-0.6255 6.5100 -2.5062 0.9724
-1.5517 6.3619 -2.5094 0.9723
-2.0050 6.2390 -2.5113 0.9723
-2.4486 6.0836 -2.5131 0.9723
-2.6660 5.9939 -2.5139 0.9723
-2.8801 5.8964 -2.5147 0.9723
-3.0906 5.7911 -2.5155 0.9723
-3.2972 5.6783 -2.5163 0.9723
-3.4997 5.5581 -2.5170 0.9723
-3.6977 5.4305 -2.5177 0.9722
-4.0794 5.1543 -2.5190 0.9722
-4.6123 4.6896 -2.5207 0.9722
-5.5122 3.6001 -2.5230 0.9722
-5.6383 3.4006 -2.5233 0.9722
-5.8684 2.9882 -2.5236 0.9722
-5.9720 2.7761 -2.5238 0.9722
-6.0680 2.5603 -2.5239 0.9722
-6.3076 1.8940 -2.5239 0.9722
-6.5123 0.9727 -2.5233 0.9722
-6.5424 0.7386 -2.5231 0.9722
-6.5640 0.5035 -2.5228 0.9722
-6.5769 0.2678 -2.5225 0.9722
-6.5773 -0.2041 -2.5217 0.9722
-6.5646 -0.4397 -2.5213 0.9722
-6.5434 -0.6746 -2.5208 0.9722
-6.4755 -1.1413 -2.5198 0.9722
-6.4289 -1.3724 -2.5192 0.9722
-6.3740 -1.6016 -2.5186 0.9722
-6.3109 -1.8285 -2.5179 0.9722
-6.1602 -2.2748 -2.5165 0.9723
-5.7645 -3.1280 -2.5134 0.9723
-5.6468 -3.3315 -2.5125 0.9723
-5.5218 -3.5306 -2.5116 0.9723
-5.3897 -3.7249 -2.5107 0.9723
-5.1051 -4.0984 -2.5088 0.9723
-4.9529 -4.2771 -2.5078 0.9724
-4.7945 -4.4502 -2.5068 0.9724
-4.6300 -4.6173 -2.5058 0.9724
-4.2837 -4.9331 -2.5037 0.9724
-4.1023 -5.0814 -2.5027 0.9724
-3.7245 -5.3577 -2.5005 0.9724
-3.5284 -5.4853 -2.4994 0.9724
-2.9195 -5.8332 -2.4997 0.9724
-0.5857 6.0948 -2.5059 0.9739
-0.8040 6.0714 -2.5065 0.9739
-1.0213 6.0400 -2.5071 0.9739
-1.2376 6.0012 -2.5078 0.9739
-1.4523 5.9545 -2.5085 0.9739
-2.0852 5.7699 -2.5109 0.9738
-2.4949 5.6092 -2.5125 0.9738
-2.6952 5.5178 -2.5133 0.9738
-2.8921 5.4192 -2.5140 0.9738
-3.6409 4.9554 -2.5167 0.9738
-3.8171 4.8228 -2.5173 0.9738
-4.3155 4.3879 -2.5188 0.9738
-4.6204 4.0687 -2.5197 0.9737
-4.7640 3.9011 -2.5201 0.9737
-5.2752 3.1815 -2.5213 0.9737
-5.5873 2.5972 -2.5217 0.9737
-5.7594 2.1903 -2.5219 0.9737
-5.8342 1.9825 -2.5219 0.9737
-5.9610 1.5592 -2.5218 0.9737
-6.0128 1.3445 -2.5217 0.9737
-6.1535 0.2506 -2.5205 0.9737
-6.1539 -0.1910 -2.5198 0.9737
-6.0946 -0.8501 -2.5185 0.9738
-6.0590 -1.0679 -2.5180 0.9738
-6.0155 -1.2841 -2.5175 0.9738
-5.7644 -2.1287 -2.5150 0.9738
-5.5939 -2.5348 -2.5135 0.9738
-5.3946 -2.9273 -2.5120 0.9738
-5.2845 -3.1178 -2.5112 0.9738
-4.6357 -4.0032 -2.5068 0.9739
-4.4876 -4.1653 -2.5059 0.9739
-4.1744 -4.4727 -2.5040 0.9739
-3.8401 -4.7566 -2.5020 0.9739
-3.6656 -4.8893 -2.5010 0.9739
-3.1189 -5.2535 -2.5005 0.9739
-2.7358 -5.4662 -2.5018 0.9739
-2.5390 -5.5629 -2.5027 0.9739
-1.1620 5.6345 -2.5073 0.9752
-1.5635 5.5395 -2.5085 0.9752
-1.7615 5.4812 -2.5091 0.9752
-2.1509 5.3439 -2.5105 0.9752
-2.3418 5.2650 -2.5113 0.9752
-2.7145 5.0865 -2.5127 0.9752
-3.0736 4.8814 -2.5140 0.9751
-3.5824 4.5263 -2.5157 0.9751
-3.7432 4.3959 -2.5162 0.9751
-3.8991 4.2597 -2.5167 0.9751
-4.0501 4.1179 -2.5172 0.9751
-4.1958 3.9708 -2.5176 0.9751
-4.3361 3.8184 -2.5180 0.9751
-4.5998 3.4988 -2.5187 0.9751
-4.8397 3.1609 -2.5192 0.9751
-4.9504 2.9856 -2.5195 0.9751
-5.2433 2.4373 -2.5199 0.9751
-5.5380 1.6629 -2.5200 0.9751
-5.6426 1.2617 -2.5198 0.9751
-5.6839 1.0585 -2.5197 0.9751
-5.7177 0.8540 -2.5195 0.9751
-5.7632 0.4420 -2.5191 0.9751
-5.7747 0.2351 -2.5188 0.9751
-5.7787 0.0280 -2.5185 0.9751
-5.7457 -0.5923 -2.5173 0.9751
-5.7197 -0.7978 -2.5169 0.9751
-5.6456 -1.2051 -2.5159 0.9751
-5.5976 -1.4065 -2.5154 0.9751
-5.3339 -2.1900 -2.5129 0.9752
-5.2505 -2.3792 -2.5122 0.9752
-4.8508 -3.1016 -2.5093 0.9752
-4.7349 -3.2724 -2.5085 0.9752
-4.4853 -3.6009 -2.5068 0.9752
-4.2128 -3.9103 -2.5051 0.9752
-4.0685 -4.0574 -2.5042 0.9752
-3.2761 -4.7126 -2.5014 0.9753
-2.5712 -5.1374 -2.5038 0.9752
-2.3848 -5.2249 -2.5031 0.9753
-2.1953 -5.3056 -2.5024 0.9753
-0.5177 5.3877 -2.5054 0.9764
-0.7106 5.3666 -2.5058 0.9764
-0.9028 5.3391 -2.5065 0.9764
-1.0938 5.3040 -2.5068 0.9764
-1.6581 5.1595 -2.5085 0.9764
-2.2039 4.9549 -2.5102 0.9764
-2.3807 4.8740 -2.5108 0.9764
-2.8924 4.5936 -2.5127 0.9764
-3.0559 4.4880 -2.5133 0.9764
-3.5223 4.1365 -2.5148 0.9763
-3.6690 4.0083 -2.5153 0.9763
-3.9481 3.7363 -2.5161 0.9763
-4.0801 3.5929 -2.5165 0.9763
-4.2068 3.4448 -2.5168 0.9763
-4.4439 3.1352 -2.5174 0.9763
-4.5538 2.9742 -2.5177 0.9763
-4.9334 2.2933 -2.5183 0.9763
-5.4049 0.6101 -2.5177 0.9763
-5.4228 0.4159 -2.5175 0.9763
-5.4336 0.2213 -2.5172 0.9763
-5.4239 -0.3633 -2.5162 0.9763
-5.4065 -0.5574 -2.5159 0.9763
-5.3508 -0.9430 -2.5150 0.9763
-5.2674 -1.3235 -2.5140 0.9763
-5.2155 -1.5112 -2.5135 0.9764
-5.1568 -1.6968 -2.5129 0.9764
-5.0914 -1.8801 -2.5123 0.9764
-5.0195 -2.0609 -2.5117 0.9764
-4.8564 -2.4140 -2.5104 0.9764
-4.6683 -2.7543 -2.5090 0.9764
-4.5653 -2.9190 -2.5083 0.9764
-4.3417 -3.2367 -2.5067 0.9764
-4.2216 -3.3892 -2.5059 0.9764
-3.9653 -3.6806 -2.5043 0.9764
-3.8295 -3.8191 -2.5035 0.9764
-3.5440 -4.0814 -2.5021 0.9765
-3.3957 -4.2062 -2.5023 0.9765
-3.2432 -4.3258 -2.5026 0.9765
-3.0865 -4.4400 -2.5030 0.9764
-2.9260 -4.5488 -2.5036 0.9764
-2.7618 -4.6521 -2.5043 0.9764
-2.5931 -4.7478 -2.5041 0.9764
-2.4206 -4.8365 -2.5035 0.9764
-0.4885 5.0837 -2.5051 0.9775
-0.8518 5.0376 -2.5061 0.9775
-1.2110 4.9652 -2.5069 0.9775
-1.5643 4.8678 -2.5080 0.9775
-1.9099 4.7452 -2.5091 0.9775
-2.2459 4.5979 -2.5101 0.9775
-2.7282 4.3328 -2.5115 0.9774
-2.8824 4.2331 -2.5121 0.9774
-3.0329 4.1279 -2.5126 0.9774
-3.3221 3.9014 -2.5135 0.9774
-3.7236 3.5239 -2.5148 0.9774
-3.8481 3.3886 -2.5151 0.9774
-3.9676 3.2489 -2.5154 0.9774
-4.0820 3.1050 -2.5157 0.9774
-4.2948 2.8050 -2.5162 0.9774
-4.3929 2.6496 -2.5164 0.9774
-4.6527 2.1628 -2.5168 0.9774
-4.7274 1.9947 -2.5169 0.9774
-4.7960 1.8240 -2.5169 0.9774
-4.9639 1.2985 -2.5168 0.9774
-5.0071 1.1196 -2.5167 0.9774
-5.0437 0.9393 -2.5166 0.9774
-5.0739 0.7578 -2.5165 0.9774
-5.1246 0.2087 -2.5158 0.9774
-5.1282 0.0248 -2.5155 0.9774
-5.0107 -1.0696 -2.5132 0.9774
-4.9192 -1.4253 -2.5123 0.9774
-4.8639 -1.6004 -2.5117 0.9774
-4.8024 -1.7734 -2.5112 0.9774
-4.7346 -1.9440 -2.5106 0.9775
-4.4951 -2.4392 -2.5087 0.9775
-4.4036 -2.5981 -2.5080 0.9775
-4.3065 -2.7536 -2.5073 0.9775
-4.0957 -3.0533 -2.5059 0.9775
-3.8641 -3.3369 -2.5044 0.9775
-3.6132 -3.6034 -2.5031 0.9775
-3.0625 -4.0847 -2.5043 0.9775
-2.9147 -4.1928 -2.5048 0.9775
-2.4467 -4.4798 -2.5039 0.9775
-2.2840 -4.5636 -2.5033 0.9775
-2.1184 -4.6413 -2.5026 0.9775
-1.9502 -4.7132 -2.5020 0.9775
-0.4619 4.8063 -2.5049 0.9785
-0.8053 4.7626 -2.5058 0.9785
-0.9756 4.7310 -2.5060 0.9785
-1.1448 4.6940 -2.5065 0.9785
-1.3127 4.6509 -2.5070 0.9785
-1.6432 4.5467 -2.5080 0.9785
-1.8055 4.4858 -2.5085 0.9784
-1.9655 4.4190 -2.5090 0.9784
-2.1231 4.3465 -2.5095 0.9784
-2.7244 4.0011 -2.5112 0.9784
-2.8665 3.9014 -2.5116 0.9784
-3.0050 3.7967 -2.5119 0.9784
-3.3969 3.4538 -2.5132 0.9784
-3.6367 3.2025 -2.5139 0.9784
-3.7496 3.0704 -2.5142 0.9784
-3.8577 2.9343 -2.5144 0.9784
-3.9607 2.7944 -2.5147 0.9784
-4.1515 2.5038 -2.5151 0.9784
-4.3207 2.2001 -2.5153 0.9784
-4.3970 2.0437 -2.5154 0.9784
-4.4675 1.8850 -2.5155 0.9784
-4.5323 1.7237 -2.5155 0.9784
-4.5912 1.5600 -2.5156 0.9784
-4.6441 1.3945 -2.5155 0.9784
-4.6910 1.2271 -2.5155 0.9784
-4.7665 0.8877 -2.5153 0.9784
-4.7950 0.7162 -2.5151 0.9784
-4.8172 0.5438 -2.5149 0.9784
-4.8464 0.0235 -2.5142 0.9784
-4.8344 -0.3238 -2.5136 0.9784
-4.8191 -0.4968 -2.5133 0.9784
-4.5971 -1.5126 -2.5107 0.9784
-4.5389 -1.6761 -2.5101 0.9784
-4.4749 -1.8373 -2.5096 0.9784
-4.3298 -2.1523 -2.5084 0.9784
-4.2488 -2.3056 -2.5078 0.9785
-3.9736 -2.7462 -2.5058 0.9785
-3.7645 -3.0222 -2.5044 0.9785
-3.6534 -3.1549 -2.5042 0.9785
-3.5381 -3.2840 -2.5043 0.9785
-3.4183 -3.4090 -2.5045 0.9785
-3.0337 -3.7578 -2.5055 0.9785
-2.3132 -4.2354 -2.5036 0.9785
-1.8439 -4.4562 -2.5019 0.9785
-0.4374 4.5523 -2.5048 0.9794
-0.6005 4.5346 -2.5053 0.9794
-0.7627 4.5105 -2.5055 0.9794
-1.2431 4.4046 -2.5066 0.9793
-1.7098 4.2480 -2.5080 0.9793
-2.1572 4.0420 -2.5093 0.9793
-2.4420 3.8783 -2.5102 0.9793
-3.0967 3.3831 -2.5119 0.9793
-3.3319 3.1532 -2.5125 0.9793
-3.7499 2.6456 -2.5135 0.9793
-4.0131 2.2282 -2.5141 0.9793
-4.0907 2.0830 -2.5142 0.9793
-4.1629 1.9351 -2.5143 0.9793
-4.5126 0.8404 -2.5140 0.9793
-4.5606 0.5149 -2.5137 0.9793
-4.5758 0.3510 -2.5135 0.9793
-4.5850 0.1867 -2.5133 0.9793
-4.5856 -0.1423 -2.5128 0.9793
-4.5771 -0.3066 -2.5125 0.9793
-4.5625 -0.4704 -2.5122 0.9793
-4.5421 -0.6335 -2.5118 0.9793
-4.4836 -0.9571 -2.5110 0.9793
-4.4457 -1.1170 -2.5106 0.9793
-4.3526 -1.4322 -2.5097 0.9793
-4.2976 -1.5870 -2.5092 0.9793
-4.2371 -1.7397 -2.5087 0.9793
-4.1711 -1.8900 -2.5081 0.9793
-4.0997 -2.0379 -2.5075 0.9793
-3.9413 -2.3254 -2.5064 0.9793
-3.8544 -2.4645 -2.5058 0.9794
-3.6673 -2.7339 -2.5053 0.9794
-3.3531 -3.1123 -2.5057 0.9794
-3.2396 -3.2308 -2.5059 0.9793
-2.8741 -3.5600 -2.5060 0.9793
-2.6105 -3.7553 -2.5049 0.9794
-2.1909 -4.0113 -2.5034 0.9794
-2.0452 -4.0864 -2.5028 0.9794
-1.7464 -4.2206 -2.5017 0.9794
-0.5696 4.3014 -2.5050 0.9802
-0.7235 4.2785 -2.5052 0.9802
-0.8766 4.2507 -2.5058 0.9802
-1.0284 4.2165 -2.5058 0.9802
-1.1791 4.1777 -2.5062 0.9801
-1.3284 4.1336 -2.5067 0.9801
-1.4760 4.0840 -2.5071 0.9801
-1.6217 4.0292 -2.5076 0.9801
-1.7654 3.9691 -2.5080 0.9801
-2.0459 3.8337 -2.5088 0.9801
-2.3161 3.6783 -2.5096 0.9801
-2.5744 3.5039 -2.5103 0.9801
-2.6988 3.4098 -2.5106 0.9801
-2.9369 3.2085 -2.5113 0.9801
-3.0504 3.1015 -2.5116 0.9801
-3.1599 2.9905 -2.5118 0.9801
-3.2655 2.8756 -2.5121 0.9801
-3.4638 2.6347 -2.5126 0.9801
-3.5563 2.5090 -2.5128 0.9801
-3.6442 2.3801 -2.5130 0.9801
-3.8059 2.1132 -2.5133 0.9801
-3.8794 1.9755 -2.5134 0.9801
-4.1702 1.2522 -2.5139 0.9801
-4.2125 1.1019 -2.5139 0.9801
-4.2483 0.9500 -2.5133 0.9801
-4.3245 0.4882 -2.5126 0.9801
-4.3389 0.3328 -2.5124 0.9801
-4.3477 0.1770 -2.5122 0.9801
-4.3402 -0.2907 -2.5114 0.9801
-4.3265 -0.4460 -2.5111 0.9801
-4.3071 -0.6008 -2.5108 0.9801
-4.2822 -0.7547 -2.5104 0.9801
-4.1744 -1.2095 -2.5092 0.9801
-4.1276 -1.3581 -2.5088 0.9801
-4.0755 -1.5050 -2.5083 0.9801
-4.0181 -1.6498 -2.5078 0.9801
-3.8880 -1.9326 -2.5068 0.9801
-3.8159 -2.0706 -2.5066 0.9801
-3.6576 -2.3387 -2.5065 0.9801
-3.5714 -2.4683 -2.5065 0.9801
-3.1829 -2.9543 -2.5072 0.9801
-3.0746 -3.0662 -2.5070 0.9801
-2.9621 -3.1738 -2.5065 0.9801
-2.6028 -3.4717 -2.5051 0.9802
-2.2137 -3.7288 -2.5037 0.9802
-2.0782 -3.8050 -2.5031 0.9802
-1.9400 -3.8763 -2.5026 0.9802
-1.6566 -4.0037 -2.5016 0.9802
