ply
format ascii 1.0
element vertex 982
property float32 x
property float32 y
property float32 z
property float32 I
end_header
45.9245 3.8257 8.1258 0.8293
35.5566 13.7446 6.7217 0.8566
25.1558 14.1287 5.0874 0.8894
23.2893 14.1976 4.8094 0.8951
21.6665 14.2938 4.5769 0.8999
19.0807 14.6447 4.2412 0.9069
19.0960 16.9541 4.5027 0.9015
23.7023 28.0341 6.4732 0.8615
19.6099 28.9917 6.1716 0.8675
19.7022 31.4963 6.5507 0.8599
19.8068 34.3325 6.9889 0.8513
20.1584 38.0172 7.5875 0.8396
20.0650 41.3444 8.1033 0.8297
-2.2836 47.3044 8.3508 0.8250
-4.2152 35.0537 6.2254 0.8664
-4.3362 27.6796 4.9402 0.8924
-5.5762 24.1599 4.3720 0.9042
46.0517 8.8695 7.1845 0.8271
32.3733 13.8625 5.3950 0.8672
27.2544 14.0514 4.6975 0.8833
25.1561 14.1289 4.4200 0.8898
20.0991 14.3155 3.7802 0.9050
19.0806 14.6447 3.6848 0.9073
19.1230 15.7937 3.7995 0.9045
19.0960 16.9541 3.9120 0.9018
19.2165 18.3294 4.0683 0.8981
19.2685 19.7404 4.2259 0.8944
19.3248 21.2672 4.4022 0.8902
23.7025 28.0344 5.6240 0.8619
22.1360 28.1629 5.4876 0.8651
19.7022 31.4962 5.6913 0.8604
19.7321 34.2031 6.0492 0.8523
-2.4392 28.9849 4.4560 0.8890
-4.2261 35.1442 5.4227 0.8665
-4.3363 27.6798 4.2921 0.8928
-6.0329 26.1387 4.1096 0.8971
-5.1635 16.7950 2.6917 0.9314
46.0082 8.8611 6.1013 0.8278
35.3705 13.6727 4.9381 0.8582
32.3739 13.8627 4.5860 0.8676
29.7767 14.0293 4.2864 0.8757
21.6148 14.2597 3.3720 0.9008
19.1230 15.7937 3.2297 0.9048
19.1681 17.0182 3.3379 0.9018
19.2165 18.3293 3.4582 0.8984
19.3248 21.2671 3.7420 0.8906
22.1362 28.1632 4.6647 0.8655
20.5438 28.1512 4.5382 0.8689
19.3341 36.4627 5.3744 0.8466
-2.4392 28.9852 3.7878 0.8893
-4.2261 35.1444 4.6095 0.8669
-4.3030 27.4672 3.6204 0.8939
-6.0362 26.1529 3.4952 0.8974
-7.0610 26.2729 3.5427 0.8961
46.0356 8.8664 5.0342 0.8281
32.3745 13.8630 3.7817 0.8679
29.4804 13.8897 3.4994 0.8771
25.1569 14.1293 3.0983 0.8904
23.2903 14.1981 2.9290 0.8961
21.6151 14.2599 2.7807 0.9011
19.1681 17.0182 2.7525 0.9020
19.2164 18.3293 2.8517 0.8987
19.2685 19.7403 2.9622 0.8950
23.7030 28.0349 3.9422 0.8627
17.7631 33.4999 4.0717 0.8585
17.9877 40.7039 4.7786 0.8361
4.4929 47.3324 5.1055 0.8259
-0.5319 42.4920 4.5632 0.8429
-2.4393 28.9855 3.1235 0.8896
-6.5752 24.4654 2.7204 0.9031
29.7994 11.5192 2.7045 0.8796
29.9144 12.8095 2.7547 0.8775
24.7861 11.6780 2.3194 0.8958
25.0572 14.0733 2.4328 0.8910
21.6154 14.2601 2.1921 0.9013
20.0998 14.3160 2.0890 0.9057
19.0806 14.6446 2.0361 0.9080
19.1229 15.7937 2.0995 0.9052
19.2684 19.7403 2.3352 0.8952
22.0826 28.0950 3.0250 0.8664
20.5442 28.1517 2.9502 0.8694
19.6097 28.9915 2.9629 0.8689
17.6564 30.6051 2.9910 0.8678
17.7631 33.4998 3.2099 0.8588
12.1297 33.7871 3.0389 0.8658
4.3129 32.8974 2.8087 0.8753
3.1186 32.8537 2.7937 0.8759
1.9369 32.8362 2.7845 0.8763
0.7622 32.8443 2.7811 0.8764
-1.5429 31.9604 2.7087 0.8795
-4.2154 35.0548 2.9889 0.8679
-4.7251 24.4224 2.1058 0.9050
-6.0555 26.2362 2.2794 0.8975
-5.1636 16.7952 1.4874 0.9319
46.0278 8.8649 2.9067 0.8287
48.1781 12.9045 3.0928 0.8188
29.7207 11.4887 1.9759 0.8801
27.0593 11.5869 1.8253 0.8887
24.7719 11.6713 1.6981 0.8961
23.8584 13.4000 1.6968 0.8961
21.5007 14.1845 1.5973 0.9019
20.1001 14.3162 1.5302 0.9058
19.1229 15.7936 1.5380 0.9054
19.3247 21.2670 1.7819 0.8912
18.4020 25.2162 1.9358 0.8824
17.4546 25.8053 1.9319 0.8826
17.5631 28.0767 2.0536 0.8757
15.7066 29.6215 2.0791 0.8743
11.7042 29.2702 1.9548 0.8813
9.2996 29.1363 1.8966 0.8846
7.0329 29.0512 1.8535 0.8871
5.9381 29.0255 1.8372 0.8880
3.8027 29.0059 1.8141 0.8894
2.7539 29.0115 1.8071 0.8898
1.7123 29.0272 1.8031 0.8900
0.6742 29.0531 1.8021 0.8901
-1.3747 28.4764 1.7679 0.8920
-2.4024 28.5477 1.7765 0.8915
-4.0846 26.0730 1.6365 0.8996
-6.5669 24.4345 1.5690 0.9036
-5.2392 17.0413 1.1056 0.9310
46.0239 8.8641 1.8481 0.8289
48.1793 12.9048 1.9667 0.8190
29.6395 13.9646 1.2919 0.8771
20.1003 14.3164 0.9731 0.9059
19.0805 14.6446 0.9484 0.9082
19.1229 15.7936 0.9780 0.9055
19.0958 16.9540 1.0069 0.9028
19.3246 21.2670 1.1331 0.8913
19.0557 22.5384 1.1638 0.8886
17.7529 22.5864 1.1328 0.8914
17.4545 25.8052 1.2284 0.8828
14.0804 26.5545 1.1852 0.8866
11.7106 26.4997 1.1424 0.8905
10.5900 26.4836 1.1247 0.8921
9.5039 26.4729 1.1091 0.8935
8.4477 26.4674 1.0955 0.8947
3.4756 26.5106 1.0543 0.8985
2.5186 26.5329 1.0509 0.8988
0.6170 26.5911 1.0488 0.8990
-0.3271 26.1250 1.0302 0.9007
-1.2621 26.1445 1.0321 0.9005
-3.8125 24.3365 0.9713 0.9061
48.1806 12.9052 0.8425 0.8191
35.3724 13.6734 0.6406 0.8592
28.1353 12.0477 0.5170 0.8848
25.1583 14.1301 0.4874 0.8910
23.2916 14.1989 0.4608 0.8966
19.1228 15.7936 0.4189 0.9055
17.2963 17.7198 0.4183 0.9057
17.3468 19.0904 0.4357 0.9020
17.4621 22.2164 0.4773 0.8931
17.3812 23.8174 0.4981 0.8887
15.2702 24.4112 0.4864 0.8912
11.8655 24.4490 0.4591 0.8970
10.8111 24.4642 0.4518 0.8985
8.7949 24.4982 0.4397 0.9011
7.8252 24.5170 0.4347 0.9022
5.0288 24.5811 0.4238 0.9045
2.3405 24.6571 0.4184 0.9057
1.4561 24.6853 0.4177 0.9058
-1.1743 24.3262 0.4114 0.9072
-3.0106 15.5607 0.2677 0.9386
-4.9141 18.2847 0.3198 0.9271
-3.2589 10.6000 0.1873 0.9566
29.6867 13.9869 -0.1848 0.8770
25.1587 14.1303 -0.1625 0.8910
23.2919 14.1991 -0.1536 0.8966
20.1008 14.3167 -0.1389 0.9060
19.0804 14.6445 -0.1354 0.9083
19.1228 15.7936 -0.1396 0.9056
17.2496 16.4533 -0.1342 0.9091
17.4018 20.5822 -0.1517 0.8978
17.4126 22.1535 -0.1586 0.8934
16.1984 22.1967 -0.1547 0.8959
12.0724 22.7676 -0.1451 0.9021
11.0691 22.8081 -0.1427 0.9036
10.0964 22.8468 -0.1406 0.9049
9.1506 22.8841 -0.1388 0.9061
8.2283 22.9199 -0.1371 0.9072
6.4422 22.9879 -0.1344 0.9089
4.7160 23.0519 -0.1325 0.9102
3.8691 23.0826 -0.1318 0.9106
3.0301 23.1126 -0.1312 0.9110
1.3668 23.1707 -0.1307 0.9113
-2.6436 21.9842 -0.1247 0.9152
-2.7961 17.8482 -0.1017 0.9303
-3.0106 15.5608 -0.0892 0.9386
-4.2143 18.2590 -0.1055 0.9278
-4.9142 18.2848 -0.1066 0.9271
-3.4495 11.2200 -0.0661 0.9541
48.1831 12.9058 -1.4046 0.8191
29.6435 13.9666 -0.9227 0.8771
25.1591 14.1305 -0.8125 0.8909
19.1228 15.7935 -0.6984 0.9055
17.2062 15.2763 -0.6479 0.9120
17.2962 17.7198 -0.6972 0.9057
17.4018 20.5821 -0.7589 0.8978
16.2676 20.6967 -0.7412 0.9000
15.4121 21.1191 -0.7362 0.9007
14.3364 21.1953 -0.7205 0.9027
10.4114 21.4528 -0.6714 0.9090
8.6205 21.5585 -0.6538 0.9113
7.7568 21.6064 -0.6464 0.9122
6.9106 21.6516 -0.6400 0.9131
6.0796 21.6939 -0.6344 0.9138
3.6552 21.8063 -0.6226 0.9153
2.8632 21.8393 -0.6202 0.9156
2.0760 21.8702 -0.6186 0.9158
1.2918 21.8991 -0.6177 0.9160
-0.2748 21.9513 -0.6182 0.9159
-1.0436 21.6174 -0.6094 0.9170
-1.8214 21.6436 -0.6116 0.9168
-2.7961 17.8484 -0.5087 0.9303
-3.0107 15.5609 -0.4463 0.9385
-4.2143 18.2592 -0.5277 0.9278
-4.9142 18.2850 -0.5331 0.9270
42.4962 -18.8228 -2.3571 0.8301
43.1194 -17.2844 -2.3559 0.8302
47.5918 -13.3807 -2.5072 0.8204
48.0284 -11.6700 -2.5066 0.8204
48.7166 -8.2083 -2.5054 0.8205
48.9674 -6.4618 -2.5049 0.8205
49.3425 -1.1868 -2.5031 0.8206
49.1510 4.0944 -2.5013 0.8207
48.9617 5.8457 -2.5007 0.8208
48.2352 7.5146 -2.4757 0.8224
45.4469 8.7530 -2.3472 0.8308
32.1618 11.1294 -1.7260 0.8726
29.0987 11.2483 -1.5821 0.8825
27.0723 11.5925 -1.4935 0.8887
24.7837 11.6768 -1.3894 0.8961
23.4546 13.1732 -1.3643 0.8979
23.2926 14.1995 -1.3835 0.8965
20.1013 14.3171 -1.2516 0.9059
19.1227 15.7935 -1.2578 0.9054
17.2495 16.4532 -1.2089 0.9089
17.3467 19.0903 -1.3081 0.9018
16.3041 19.2838 -1.2807 0.9038
14.4885 19.8535 -1.2465 0.9063
12.5398 20.0463 -1.1992 0.9096
10.7150 20.2077 -1.1600 0.9125
8.1610 20.4093 -1.1147 0.9157
7.3478 20.4671 -1.1028 0.9166
6.5497 20.5207 -1.0924 0.9173
5.7647 20.5703 -1.0834 0.9180
4.9908 20.6160 -1.0757 0.9186
2.7180 20.7322 -1.0604 0.9197
1.9710 20.7643 -1.0578 0.9199
1.2266 20.7933 -1.0563 0.9200
-0.9907 20.5213 -1.0419 0.9210
-3.0107 15.5610 -0.8038 0.9385
-4.9142 18.2851 -0.9602 0.9270
32.8915 -9.2477 -2.5052 0.8719
33.4572 -6.8743 -2.5044 0.8720
33.6761 -5.6742 -2.5040 0.8720
33.8517 -4.4672 -2.5036 0.8720
33.9842 -3.2549 -2.5032 0.8720
34.1186 -0.8206 -2.5024 0.8721
34.1206 0.3983 -2.5020 0.8721
34.0788 1.6162 -2.5015 0.8721
33.6937 5.2492 -2.5003 0.8722
33.2221 7.6382 -2.4995 0.8722
30.5959 9.3782 -2.3464 0.8795
25.2479 10.8113 -2.0138 0.8957
23.4140 12.0714 -1.9315 0.8997
23.4546 13.1732 -1.9724 0.8977
23.2929 14.1997 -2.0002 0.8964
21.6662 14.2936 -1.9032 0.9011
19.0804 14.6445 -1.7636 0.9080
17.2061 15.2763 -1.6871 0.9118
17.2495 16.4532 -1.7479 0.9088
17.1515 17.5714 -1.8004 0.9062
16.1302 17.7515 -1.7587 0.9083
14.5107 18.4615 -1.7217 0.9101
13.5735 18.5998 -1.6883 0.9118
11.7878 18.8441 -1.6298 0.9147
10.9341 18.9528 -1.6043 0.9160
7.7194 19.3048 -1.5244 0.9200
5.4640 19.4972 -1.4847 0.9220
2.5802 19.6804 -1.4554 0.9235
1.8713 19.7144 -1.4520 0.9236
1.1646 19.7437 -1.4502 0.9237
0.4587 19.7686 -1.4499 0.9238
-0.2477 19.7891 -1.4511 0.9237
-4.9143 18.2853 -1.3883 0.9269
23.8596 -10.5681 -2.5053 0.9004
24.5476 -8.8361 -2.5047 0.9005
24.8447 -7.9530 -2.5044 0.9005
25.1099 -7.0598 -2.5041 0.9005
25.3430 -6.1579 -2.5038 0.9005
25.8468 -3.4108 -2.5029 0.9005
26.0560 0.3041 -2.5017 0.9006
25.9613 2.1626 -2.5010 0.9006
25.8642 3.0880 -2.5007 0.9006
25.7342 4.0091 -2.5004 0.9006
25.5713 4.9250 -2.5001 0.9006
25.3759 5.8343 -2.4998 0.9007
24.8886 7.6287 -2.4991 0.9007
23.0981 7.9929 -2.3466 0.9065
22.7952 8.8116 -2.3463 0.9065
22.4632 9.6188 -2.3460 0.9065
21.0574 9.9212 -2.2348 0.9107
18.7862 14.4187 -2.2736 0.9092
18.2573 15.0788 -2.2733 0.9092
17.2061 15.2762 -2.2090 0.9117
16.5374 15.7740 -2.1941 0.9123
15.1932 16.7203 -2.1690 0.9132
14.3172 16.9338 -2.1289 0.9147
13.4610 17.1260 -2.0913 0.9162
12.6246 17.2994 -2.0561 0.9175
11.8100 17.4602 -2.0237 0.9188
11.0152 17.6091 -1.9941 0.9199
9.4705 17.8607 -1.9409 0.9220
8.7220 17.9719 -1.9178 0.9229
7.9873 18.0742 -1.8971 0.9237
7.2648 18.1680 -1.8785 0.9244
5.8501 18.3289 -1.8471 0.9256
4.4683 18.4575 -1.8232 0.9265
2.4387 18.6016 -1.8011 0.9274
-0.2342 18.7090 -1.7963 0.9276
-0.8843 18.3176 -1.7606 0.9290
-2.7961 17.8487 -1.7345 0.9300
-4.2144 18.2596 -1.7991 0.9275
-3.4496 11.2204 -1.1270 0.9539
19.2771 -8.5384 -2.5044 0.9186
20.4778 -4.9757 -2.5033 0.9186
20.6404 -4.2408 -2.5030 0.9186
20.7767 -3.5007 -2.5028 0.9186
20.9694 -2.0084 -2.5023 0.9186
21.0550 -0.5064 -2.5018 0.9187
20.7994 3.2403 -2.5005 0.9187
20.3273 5.4446 -2.4997 0.9187
20.1179 6.1664 -2.4995 0.9187
19.8828 6.8803 -2.4992 0.9187
17.6762 9.9278 -2.4082 0.9216
16.8257 10.2572 -2.3408 0.9237
16.8575 11.1213 -2.3989 0.9219
16.8911 12.0306 -2.4633 0.9199
15.3652 13.6418 -2.4407 0.9206
15.2067 14.5046 -2.4963 0.9188
13.0931 15.4859 -2.4089 0.9216
12.3588 15.7237 -2.3756 0.9226
10.9162 16.1388 -2.3144 0.9245
10.2046 16.3132 -2.2857 0.9254
8.8145 16.6234 -2.2350 0.9270
8.1333 16.7587 -2.2128 0.9277
6.7924 16.9864 -2.1731 0.9290
5.4820 17.1755 -2.1416 0.9300
4.8360 17.2563 -2.1288 0.9304
3.5579 17.3911 -2.1086 0.9310
2.9240 17.4440 -2.1010 0.9312
1.0356 17.5569 -2.0891 0.9316
0.4079 17.5797 -2.0888 0.9316
-2.0630 17.1561 -2.0526 0.9328
-4.2145 18.2597 -2.2260 0.9273
16.1605 -7.1579 -2.5043 0.9311
16.8289 -5.3870 -2.5037 0.9311
17.1675 -4.1714 -2.5032 0.9311
17.3041 -3.5554 -2.5030 0.9311
17.4186 -2.9349 -2.5028 0.9311
17.5109 -2.3108 -2.5026 0.9311
17.6285 -1.0549 -2.5022 0.9311
17.6562 0.2061 -2.5019 0.9311
17.5941 1.4656 -2.5015 0.9312
17.5433 2.0945 -2.5034 0.9311
17.2739 3.9715 -2.5114 0.9309
17.1390 4.5906 -2.5140 0.9308
16.9816 5.2051 -2.5166 0.9308
16.8021 5.8142 -2.5192 0.9307
16.6004 6.4170 -2.5217 0.9306
16.3769 7.0127 -2.5242 0.9306
15.7673 9.6120 -2.6165 0.9281
14.7325 11.3074 -2.6314 0.9277
14.3115 11.8198 -2.6300 0.9278
13.8729 12.3169 -2.6286 0.9278
13.3734 12.7569 -2.6188 0.9281
12.2044 13.4311 -2.5713 0.9293
11.6211 13.7449 -2.5503 0.9299
10.4500 14.3195 -2.5117 0.9309
9.8625 14.5809 -2.4942 0.9314
8.0943 15.2652 -2.4482 0.9326
6.9026 15.6196 -2.4196 0.9333
5.6972 15.8694 -2.3890 0.9342
5.0976 15.9711 -2.3754 0.9345
4.5014 16.0623 -2.3635 0.9348
3.9080 16.1431 -2.3534 0.9351
2.7280 16.2745 -2.3381 0.9355
2.1403 16.3254 -2.3329 0.9356
1.5536 16.3665 -2.3294 0.9357
0.9673 16.3979 -2.3275 0.9358
0.3810 16.4197 -2.3271 0.9358
-0.7691 15.9309 -2.2599 0.9376
-1.9135 15.9124 -2.2709 0.9373
-2.4890 15.8879 -2.2786 0.9371
-3.0108 15.5615 -2.2458 0.9380
-4.3012 16.0040 -2.3481 0.9352
-3.4497 11.2205 -1.6633 0.9537
13.9009 -6.1571 -2.5046 0.9402
14.3027 -5.1484 -2.5042 0.9402
14.4764 -4.6340 -2.5040 0.9402
14.7680 -3.5884 -2.5037 0.9402
15.0639 -1.9879 -2.5031 0.9403
15.1243 -1.4486 -2.5030 0.9403
15.1654 -0.9075 -2.5028 0.9403
15.1896 0.1773 -2.5025 0.9403
14.9197 2.8735 -2.5030 0.9403
14.7197 3.9426 -2.5104 0.9401
14.5825 4.4698 -2.5126 0.9400
14.4262 4.9920 -2.5148 0.9400
14.2510 5.5088 -2.5170 0.9399
14.0572 6.0193 -2.5191 0.9399
13.8448 6.5229 -2.5212 0.9398
12.1712 10.0522 -2.6005 0.9380
11.4603 10.9312 -2.6091 0.9378
10.6830 11.7568 -2.6170 0.9376
9.8503 12.5322 -2.6260 0.9374
8.3779 13.3930 -2.6025 0.9380
7.8488 13.6049 -2.5875 0.9383
7.3173 13.7998 -2.5732 0.9386
6.7830 13.9766 -2.5593 0.9390
5.7153 14.2929 -2.5359 0.9395
4.6472 14.5601 -2.5178 0.9399
3.5784 14.7813 -2.5054 0.9402
3.0434 14.8761 -2.5014 0.9403
2.5073 14.9584 -2.4986 0.9404
1.9704 15.0292 -2.4971 0.9404
1.4323 15.0888 -2.4969 0.9404
0.3521 15.1742 -2.5005 0.9403
-0.1903 15.2000 -2.5042 0.9402
12.3687 -4.9580 -2.5046 0.9472
12.5370 -4.5128 -2.5045 0.9472
12.6893 -4.0620 -2.5043 0.9472
12.9452 -3.1455 -2.5040 0.9472
13.2941 -0.7955 -2.5032 0.9472
13.3133 -0.3202 -2.5031 0.9472
13.3155 0.1554 -2.5030 0.9472
13.3008 0.6308 -2.5028 0.9472
13.2691 1.1053 -2.5027 0.9472
13.1551 2.0495 -2.5025 0.9473
13.0729 2.5178 -2.5024 0.9473
12.7655 3.9128 -2.5096 0.9471
12.3017 5.2676 -2.5153 0.9470
12.1146 5.7078 -2.5171 0.9470
11.6928 6.5672 -2.5207 0.9469
11.2094 7.3951 -2.5241 0.9468
10.2675 9.1160 -2.5808 0.9456
9.9739 9.5134 -2.5908 0.9454
9.6407 9.8768 -2.5942 0.9454
8.9334 10.5661 -2.6007 0.9452
8.5602 10.8908 -2.6037 0.9452
8.1746 11.2016 -2.6065 0.9451
7.7772 11.4980 -2.6091 0.9451
6.9726 12.0860 -2.6226 0.9448
6.5401 12.3342 -2.6241 0.9448
6.0987 12.5664 -2.6255 0.9447
5.1859 12.9692 -2.6254 0.9447
4.7123 13.1261 -2.6214 0.9448
4.2348 13.2681 -2.6178 0.9449
3.7538 13.3949 -2.6147 0.9450
3.2697 13.5064 -2.6120 0.9450
2.7829 13.6028 -2.6098 0.9451
2.2937 13.6839 -2.6079 0.9451
1.3100 13.8001 -2.6055 0.9451
0.8161 13.8353 -2.6050 0.9452
0.3215 13.8550 -2.6049 0.9452
-0.1735 13.8602 -2.6054 0.9451
-0.6692 13.8613 -2.6084 0.9451
-1.5728 13.0798 -2.4762 0.9478
-2.0399 13.0209 -2.4773 0.9478
-2.5044 12.9443 -2.4781 0.9478
-2.9779 12.9022 -2.4889 0.9475
-3.2692 12.1640 -2.3675 0.9500
-3.4497 11.2207 -2.2065 0.9533
11.4056 -3.2068 -2.5044 0.9527
11.5122 -2.7973 -2.5042 0.9527
11.8228 -0.7075 -2.5036 0.9527
11.8009 0.9830 -2.5031 0.9527
11.7577 1.4038 -2.5030 0.9527
11.6996 1.8227 -2.5029 0.9527
11.6266 2.2392 -2.5028 0.9527
11.3192 3.4695 -2.5025 0.9528
11.1877 3.8714 -2.5024 0.9528
10.9257 4.6784 -2.5123 0.9526
9.7165 6.9205 -2.5216 0.9524
9.4684 7.2671 -2.5230 0.9524
9.2079 7.6048 -2.5244 0.9523
8.9351 7.9329 -2.5257 0.9523
8.3862 8.5915 -2.5378 0.9521
8.1672 8.9877 -2.5670 0.9516
7.2239 9.8989 -2.5904 0.9511
6.8719 10.1596 -2.5927 0.9511
6.5101 10.4071 -2.5948 0.9511
5.7590 10.8611 -2.5986 0.9510
5.3709 11.0668 -2.6002 0.9510
2.4860 12.1518 -2.6218 0.9506
2.0509 12.2352 -2.6224 0.9505
1.6129 12.3029 -2.6228 0.9505
0.7308 12.3892 -2.6234 0.9505
0.2879 12.4079 -2.6235 0.9505
-0.1554 12.4102 -2.6235 0.9505
-0.9778 11.6196 -2.4648 0.9534
-1.3918 11.5742 -2.4642 0.9535
-1.8039 11.5146 -2.4636 0.9535
-2.2125 11.4357 -2.4621 0.9535
-3.0009 11.1657 -2.4440 0.9538
9.7458 -4.3167 -2.5051 0.9571
9.8932 -3.9657 -2.5050 0.9571
10.2590 -2.8844 -2.5046 0.9572
10.3549 -2.5161 -2.5045 0.9572
10.4377 -2.1446 -2.5043 0.9572
4.2183 -0.5566 -1.0000 0.9827
4.1245 -0.2468 -0.9711 0.9832
4.1255 -0.0992 -0.9699 0.9832
10.5763 1.2627 -2.5033 0.9572
10.2873 2.7554 -2.5030 0.9572
10.0638 3.4825 -2.5028 0.9572
9.9327 3.8395 -2.5028 0.9572
9.1391 5.5713 -2.5155 0.9570
8.9391 5.8973 -2.5169 0.9570
8.7273 6.2160 -2.5182 0.9569
8.2695 6.8298 -2.5207 0.9569
7.7681 7.4095 -2.5230 0.9568
7.5019 7.6855 -2.5241 0.9568
7.2256 7.9519 -2.5252 0.9568
6.3846 8.7490 -2.5455 0.9565
5.4925 9.5205 -2.5832 0.9558
4.4502 10.0703 -2.5876 0.9558
3.3514 10.5003 -2.5905 0.9557
2.2258 10.8795 -2.6099 0.9554
1.4459 11.0287 -2.6142 0.9553
0.6551 11.1059 -2.6147 0.9553
0.2581 11.1222 -2.6147 0.9553
-0.1393 11.1245 -2.6147 0.9553
-0.9326 11.0816 -2.6136 0.9553
-1.6095 10.2739 -2.4441 0.9582
-1.9657 10.1602 -2.4322 0.9584
-2.3111 10.0131 -2.4152 0.9587
-2.9767 9.6822 -2.3807 0.9592
8.8468 -3.9185 -2.5052 0.9608
8.9807 -3.5999 -2.5051 0.9608
9.3999 -2.2840 -2.5046 0.9608
9.4751 -1.9468 -2.5045 0.9608
3.8496 -0.6486 -1.0108 0.9840
3.7288 -0.3571 -0.9699 0.9846
3.7342 -0.0898 -0.9671 0.9847
3.7362 0.0436 -0.9674 0.9847
3.7350 0.1771 -0.9681 0.9847
3.8212 0.3183 -0.9928 0.9843
9.4944 1.8286 -2.5034 0.9608
9.2435 2.8333 -2.5032 0.9608
9.0173 3.4856 -2.5031 0.9608
8.5922 4.4298 -2.5029 0.9608
8.2717 5.0425 -2.5083 0.9608
7.7103 5.9178 -2.5166 0.9606
7.2746 6.4587 -2.5188 0.9606
6.2906 7.4402 -2.5227 0.9605
6.0229 7.6628 -2.5235 0.9605
5.7474 7.8755 -2.5244 0.9605
5.4641 8.0782 -2.5251 0.9605
5.1736 8.2706 -2.5259 0.9605
4.5854 8.6479 -2.5344 0.9604
3.6869 9.2206 -2.5712 0.9598
0.5867 9.9457 -2.5796 0.9597
-0.1251 9.9977 -2.5888 0.9595
-0.4829 10.0029 -2.5930 0.9595
-0.8405 9.9879 -2.5952 0.9594
-1.8874 9.7550 -2.5726 0.9598
8.2141 -3.2926 -2.5052 0.9639
8.5180 -2.3949 -2.5049 0.9639
8.5977 -2.0891 -2.5048 0.9639
8.6665 -1.7807 -2.5047 0.9639
3.5495 -0.5981 -1.0190 0.9851
3.4687 -0.4578 -0.9905 0.9856
3.4668 -0.3320 -0.9859 0.9856
3.4699 -0.2076 -0.9840 0.9857
4.6371 0.5537 -1.3221 0.9808
8.6844 1.6726 -2.5037 0.9639
8.6190 1.9816 -2.5036 0.9639
8.5424 2.2881 -2.5035 0.9639
8.2481 3.1883 -2.5034 0.9639
8.1288 3.4808 -2.5033 0.9639
7.7095 4.3300 -2.5032 0.9639
7.5498 4.6025 -2.5031 0.9639
7.3806 4.8691 -2.5031 0.9639
7.2019 5.1295 -2.5031 0.9639
5.9837 6.5851 -2.5189 0.9637
5.5020 6.9999 -2.5205 0.9637
4.4540 7.7205 -2.5233 0.9636
4.1764 7.8764 -2.5238 0.9636
3.6050 8.1578 -2.5249 0.9636
3.0145 8.3970 -2.5257 0.9636
2.7132 8.5005 -2.5260 0.9636
2.4081 8.5929 -2.5263 0.9636
2.1052 8.6961 -2.5329 0.9635
1.4849 8.8579 -2.5426 0.9634
0.8506 8.9606 -2.5481 0.9633
0.2088 9.0029 -2.5494 0.9633
-0.1128 9.0021 -2.5486 0.9633
-2.0061 8.6918 -2.5253 0.9636
7.4477 -3.2988 -2.5054 0.9665
7.6635 -2.7586 -2.5052 0.9665
7.9137 -1.9229 -2.5049 0.9665
7.9770 -1.6390 -2.5048 0.9665
3.3146 -0.5585 -1.0339 0.9860
3.2715 -0.4317 -1.0150 0.9863
3.2796 -0.1962 -1.0105 0.9863
3.2815 -0.0789 -1.0096 0.9864
3.2830 0.0383 -1.0099 0.9864
8.0439 1.2531 -2.5040 0.9665
7.9938 1.5396 -2.5039 0.9665
7.9335 1.8240 -2.5038 0.9665
7.8631 2.1061 -2.5038 0.9665
7.7827 2.3855 -2.5037 0.9665
7.4824 3.2040 -2.5036 0.9665
6.9495 4.2365 -2.5034 0.9665
6.4563 4.9553 -2.5033 0.9665
6.0861 5.4035 -2.5033 0.9665
5.2838 6.2495 -2.5172 0.9663
4.3448 6.9456 -2.5199 0.9663
4.0949 7.0979 -2.5204 0.9663
3.8396 7.2412 -2.5210 0.9663
3.5793 7.3751 -2.5215 0.9663
3.3142 7.4996 -2.5219 0.9663
3.0448 7.6144 -2.5223 0.9663
2.7712 7.7193 -2.5227 0.9663
1.9304 7.9740 -2.5235 0.9662
1.3565 8.0925 -2.5238 0.9662
0.7754 8.1691 -2.5240 0.9662
-0.6880 8.1755 -2.5235 0.9662
-0.9778 8.1311 -2.5190 0.9663
-1.2642 8.0697 -2.5124 0.9664
-1.8312 7.9342 -2.5045 0.9665
6.9960 -2.8043 -2.5054 0.9687
7.2550 -2.0398 -2.5051 0.9687
7.3229 -1.7794 -2.5050 0.9687
3.1173 -0.4114 -1.0452 0.9868
3.1219 -0.2990 -1.0425 0.9869
3.1265 0.0365 -1.0393 0.9869
3.1999 0.3821 -1.0712 0.9865
7.4436 1.1596 -2.5041 0.9687
7.2764 1.9489 -2.5040 0.9687
7.2020 2.2075 -2.5039 0.9687
6.8137 3.2103 -2.5037 0.9687
6.6946 3.4515 -2.5037 0.9687
6.1347 4.3694 -2.5036 0.9688
5.9747 4.5856 -2.5035 0.9688
5.8071 4.7960 -2.5035 0.9688
5.4499 5.1982 -2.5035 0.9688
5.2607 5.3895 -2.5035 0.9688
5.0649 5.5739 -2.5035 0.9688
4.6541 5.9212 -2.5035 0.9688
4.4405 6.0847 -2.5039 0.9687
4.2259 6.2476 -2.5072 0.9687
3.7791 6.5506 -2.5138 0.9686
3.5470 6.6893 -2.5168 0.9686
3.0636 6.9325 -2.5194 0.9686
2.8145 7.0385 -2.5198 0.9686
2.5617 7.1355 -2.5201 0.9685
2.3055 7.2232 -2.5204 0.9685
1.5201 7.4302 -2.5210 0.9685
1.2535 7.4783 -2.5205 0.9685
0.4451 7.5451 -2.5124 0.9686
0.1751 7.5475 -2.5095 0.9687
-0.0944 7.5398 -2.5065 0.9687
-0.3633 7.5251 -2.5043 0.9687
-0.6318 7.5075 -2.5044 0.9687
-1.1661 7.4437 -2.5045 0.9687
-1.4312 7.3975 -2.5046 0.9687
-1.6946 7.3420 -2.5047 0.9687
6.5031 -2.6068 -2.5054 0.9707
3.0345 -0.6235 -1.1078 0.9869
2.9900 -0.5038 -1.0843 0.9872
2.9900 -0.3946 -1.0785 0.9873
2.9956 -0.2869 -1.0761 0.9873
2.9994 -0.1795 -1.0745 0.9873
3.0009 -0.0722 -1.0735 0.9873
3.0001 0.0350 -1.0729 0.9873
2.9981 0.1422 -1.0733 0.9873
6.9195 1.0780 -2.5043 0.9707
6.8764 1.3243 -2.5042 0.9707
6.7640 1.8117 -2.5041 0.9707
6.6949 2.0521 -2.5041 0.9707
6.5311 2.5246 -2.5040 0.9707
5.8442 3.8555 -2.5038 0.9707
5.0662 4.8323 -2.5037 0.9707
4.7083 5.1816 -2.5037 0.9707
4.3265 5.5044 -2.5037 0.9707
3.4987 6.0645 -2.5037 0.9707
3.2799 6.1856 -2.5038 0.9707
2.5996 6.5011 -2.5038 0.9707
2.3658 6.5899 -2.5039 0.9707
2.1290 6.6703 -2.5039 0.9707
1.6475 6.8055 -2.5040 0.9707
1.4034 6.8601 -2.5040 0.9707
0.9103 6.9430 -2.5041 0.9707
0.6617 6.9713 -2.5042 0.9707
0.4124 6.9906 -2.5042 0.9707
0.1625 7.0011 -2.5043 0.9707
-0.5873 6.9788 -2.5045 0.9707
-0.8362 6.9536 -2.5046 0.9707
-1.0840 6.9195 -2.5046 0.9707
-1.3304 6.8765 -2.5047 0.9707
-1.5752 6.8248 -2.5048 0.9707
-1.8165 6.7590 -2.5029 0.9707
5.9781 -2.6479 -2.5056 0.9724
6.0687 -2.4326 -2.5055 0.9724
6.2264 -1.9931 -2.5053 0.9724
2.8945 -0.5947 -1.1324 0.9874
2.8639 -0.4825 -1.1130 0.9876
2.8722 -0.3790 -1.1102 0.9877
2.8782 -0.2757 -1.1080 0.9877
2.8837 -0.0693 -1.1054 0.9877
2.8829 0.0337 -1.1049 0.9877
2.8800 0.1366 -1.1049 0.9877
2.8833 0.2402 -1.1088 0.9877
2.9214 0.3488 -1.1275 0.9875
6.4172 1.2359 -2.5044 0.9724
6.3688 1.4643 -2.5043 0.9724
6.2478 1.9150 -2.5042 0.9724
6.1753 2.1369 -2.5042 0.9724
6.0069 2.5721 -2.5041 0.9724
5.9111 2.7850 -2.5041 0.9724
5.6971 3.1997 -2.5040 0.9724
5.0378 4.1607 -2.5039 0.9724
4.7279 4.5096 -2.5039 0.9724
4.3940 4.8356 -2.5039 0.9724
4.2185 4.9894 -2.5039 0.9724
4.0376 5.1369 -2.5039 0.9724
3.8516 5.2779 -2.5039 0.9724
3.6607 5.4120 -2.5039 0.9724
2.8528 5.8783 -2.5040 0.9724
2.4260 6.0671 -2.5040 0.9724
2.2078 6.1499 -2.5040 0.9724
1.9869 6.2249 -2.5041 0.9724
1.7633 6.2920 -2.5041 0.9724
1.3097 6.4020 -2.5042 0.9724
1.0803 6.4448 -2.5042 0.9724
0.8495 6.4794 -2.5043 0.9724
0.6175 6.5057 -2.5043 0.9724
0.3848 6.5237 -2.5044 0.9724
0.1516 6.5335 -2.5044 0.9724
-0.0818 6.5349 -2.5045 0.9724
-0.3151 6.5280 -2.5046 0.9724
-0.5481 6.5127 -2.5046 0.9724
-1.2416 6.4173 -2.5048 0.9724
-1.4691 6.3650 -2.5033 0.9724
-1.6932 6.3002 -2.5000 0.9724
-1.9162 6.2328 -2.4989 0.9725
5.5955 -2.4784 -2.5047 0.9739
5.6824 -2.2778 -2.5056 0.9739
5.7599 -2.0734 -2.5055 0.9739
5.8929 -1.6569 -2.5053 0.9739
2.7640 -0.3647 -1.1410 0.9880
2.7688 -0.2652 -1.1384 0.9881
2.7719 -0.1659 -1.1365 0.9881
2.7735 -0.0667 -1.1354 0.9881
2.7737 0.0324 -1.1353 0.9881
2.7719 0.1315 -1.1358 0.9881
6.0089 1.1573 -2.5045 0.9739
5.9636 1.3711 -2.5045 0.9739
5.9108 1.5832 -2.5044 0.9739
5.7825 2.0010 -2.5043 0.9739
5.4383 2.8038 -2.5042 0.9739
5.3347 2.9962 -2.5041 0.9739
4.9835 3.5495 -2.5041 0.9739
4.7174 3.8961 -2.5040 0.9739
4.5752 4.0620 -2.5040 0.9739
4.4272 4.2228 -2.5040 0.9739
4.2736 4.3782 -2.5040 0.9739
4.1145 4.5280 -2.5040 0.9739
3.2447 5.1870 -2.5041 0.9739
3.0574 5.2996 -2.5041 0.9739
2.8662 5.4054 -2.5041 0.9739
2.6714 5.5044 -2.5041 0.9739
2.4731 5.5963 -2.5041 0.9739
2.2717 5.6812 -2.5042 0.9739
1.8605 5.8289 -2.5042 0.9739
1.6511 5.8917 -2.5042 0.9739
1.4397 5.9470 -2.5043 0.9739
0.5783 6.0919 -2.5045 0.9739
-0.0766 6.1191 -2.5046 0.9739
-0.2951 6.1126 -2.5047 0.9739
-0.5132 6.0984 -2.5047 0.9739
-0.7307 6.0763 -2.5048 0.9739
-0.9472 6.0464 -2.5049 0.9739
-1.1620 6.0059 -2.5036 0.9739
5.4093 -1.9471 -2.5055 0.9752
5.4752 -1.7527 -2.5055 0.9752
2.6898 -0.6536 -1.2064 0.9880
2.6846 -0.4523 -1.1865 0.9882
2.6832 -0.3541 -1.1795 0.9883
2.6883 -0.2575 -1.1770 0.9883
2.6907 0.0314 -1.1727 0.9883
5.6432 1.0868 -2.5046 0.9752
5.6007 1.2877 -2.5046 0.9752
5.4306 1.8792 -2.5044 0.9752
5.3599 2.0719 -2.5044 0.9752
5.2825 2.2620 -2.5044 0.9752
5.1982 2.4491 -2.5043 0.9752
5.1074 2.6332 -2.5043 0.9752
4.9063 2.9910 -2.5043 0.9752
4.7963 3.1642 -2.5042 0.9752
4.2968 3.8148 -2.5042 0.9752
4.0135 4.1118 -2.5042 0.9752
3.7098 4.3878 -2.5042 0.9752
3.5507 4.5175 -2.5042 0.9752
3.3872 4.6414 -2.5042 0.9752
3.2193 4.7594 -2.5042 0.9752
2.6918 5.0765 -2.5042 0.9752
2.1335 5.3354 -2.5043 0.9752
1.5506 5.5332 -2.5044 0.9752
1.1518 5.6299 -2.5044 0.9752
-0.2771 5.7406 -2.5048 0.9752
-0.4820 5.7272 -2.5048 0.9752
-0.6862 5.7064 -2.5049 0.9752
-0.8892 5.6759 -2.5038 0.9752
-1.0900 5.6338 -2.5008 0.9753
-1.2898 5.5883 -2.4995 0.9753
4.9415 -2.1888 -2.5017 0.9765
2.8794 -0.8096 -1.3845 0.9869
2.6196 -0.6365 -1.2479 0.9882
2.6119 -0.3447 -1.2195 0.9885
2.6185 -0.0630 -1.2124 0.9885
2.6171 0.0305 -1.2115 0.9885
5.2734 1.2124 -2.5047 0.9764
5.1733 1.5857 -2.5046 0.9764
4.7173 2.6494 -2.5044 0.9764
4.6196 2.8162 -2.5044 0.9764
4.5161 2.9794 -2.5044 0.9764
4.4068 3.1387 -2.5043 0.9764
4.0457 3.5919 -2.5043 0.9764
3.4930 4.1314 -2.5043 0.9764
2.8692 4.5867 -2.5043 0.9764
2.7036 4.6863 -2.5043 0.9764
2.5345 4.7799 -2.5043 0.9764
1.8281 5.0922 -2.5044 0.9764
1.6452 5.1543 -2.5045 0.9764
1.4600 5.2098 -2.5045 0.9764
0.7034 5.3650 -2.5046 0.9764
0.3186 5.4017 -2.5047 0.9764
0.1255 5.4097 -2.5048 0.9764
-0.0677 5.4109 -2.5048 0.9764
-1.4012 5.2136 -2.4989 0.9765
-1.5865 5.1603 -2.4990 0.9765
4.6631 -2.0655 -2.5017 0.9775
4.8000 -1.7278 -2.5024 0.9775
2.5908 -0.4365 -1.2888 0.9884
2.5896 -0.3417 -1.2813 0.9884
2.5881 -0.2479 -1.2753 0.9885
2.5873 -0.1548 -1.2714 0.9885
2.5886 0.0302 -1.2699 0.9885
2.5896 0.1228 -1.2717 0.9885
2.5895 0.3092 -1.2792 0.9884
2.5998 0.4050 -1.2906 0.9883
2.7488 0.5294 -1.3731 0.9876
4.7626 1.8410 -2.5046 0.9775
4.6189 2.1762 -2.5046 0.9775
4.4517 2.5002 -2.5045 0.9775
4.3595 2.6576 -2.5045 0.9775
4.2618 2.8116 -2.5045 0.9775
4.0502 3.1086 -2.5044 0.9775
3.9366 3.2512 -2.5044 0.9775
3.6945 3.5239 -2.5044 0.9775
3.5663 3.6536 -2.5044 0.9775
3.1550 4.0140 -2.5044 0.9775
2.8605 4.2290 -2.5044 0.9775
2.7077 4.3285 -2.5044 0.9775
1.8957 4.7408 -2.5045 0.9775
1.7252 4.8055 -2.5045 0.9775
1.5525 4.8641 -2.5046 0.9775
1.3778 4.9165 -2.5046 0.9775
1.2014 4.9627 -2.5046 0.9775
0.6638 5.0629 -2.5047 0.9775
0.4825 5.0835 -2.5048 0.9775
-0.9677 5.0019 -2.4990 0.9776
-1.4972 4.8697 -2.4991 0.9776
4.4090 -1.9529 -2.5016 0.9785
2.5929 -0.7290 -1.3973 0.9879
2.5637 -0.6229 -1.3687 0.9882
2.5669 0.0300 -1.3317 0.9885
2.5674 0.1218 -1.3334 0.9885
2.5650 0.3063 -1.3401 0.9884
2.5699 0.4004 -1.3493 0.9883
2.6148 0.5036 -1.3815 0.9881
4.5033 1.7408 -2.5047 0.9785
4.3675 2.0577 -2.5047 0.9785
4.0298 2.6586 -2.5046 0.9785
3.9323 2.8008 -2.5046 0.9785
3.8298 2.9394 -2.5045 0.9785
3.7223 3.0742 -2.5045 0.9785
3.6102 3.2052 -2.5045 0.9785
3.4934 3.3321 -2.5045 0.9785
3.3722 3.4547 -2.5045 0.9785
3.2466 3.5729 -2.5045 0.9785
3.1170 3.6866 -2.5045 0.9785
2.9833 3.7956 -2.5045 0.9785
2.7048 3.9988 -2.5045 0.9785
2.5603 4.0929 -2.5045 0.9785
2.4125 4.1817 -2.5045 0.9785
2.2616 4.2653 -2.5046 0.9785
1.9515 4.4159 -2.5046 0.9785
1.7925 4.4828 -2.5046 0.9785
1.4680 4.5994 -2.5047 0.9785
1.3028 4.6489 -2.5047 0.9785
0.9677 4.7301 -2.5047 0.9785
0.6276 4.7873 -2.5048 0.9785
0.4563 4.8067 -2.5049 0.9785
0.1120 4.8272 -2.5049 0.9785
-0.0604 4.8282 -2.5050 0.9785
-0.4043 4.8044 -2.5013 0.9785
-0.5754 4.7845 -2.5000 0.9785
-0.7456 4.7594 -2.4992 0.9785
-0.9151 4.7296 -2.4991 0.9785
-1.2503 4.6522 -2.4991 0.9785
-1.4157 4.6046 -2.4992 0.9785
4.2394 -1.6994 -2.5015 0.9794
4.2973 -1.5469 -2.5015 0.9794
2.5626 -0.7205 -1.4579 0.9879
2.5447 -0.5228 -1.4229 0.9882
2.5465 -0.3361 -1.4068 0.9884
2.5471 -0.2440 -1.4014 0.9884
2.5469 -0.0612 -1.3954 0.9884
2.5467 0.0297 -1.3949 0.9885
2.5457 0.1207 -1.3959 0.9884
2.5425 0.3961 -1.4093 0.9883
2.5876 0.4983 -1.4433 0.9881
4.4572 1.0248 -2.5049 0.9794
4.3219 1.4955 -2.5048 0.9794
4.2657 1.6489 -2.5048 0.9794
4.1370 1.9491 -2.5047 0.9794
4.0647 2.0956 -2.5047 0.9794
3.8172 2.5183 -2.5047 0.9794
3.7248 2.6530 -2.5046 0.9794
3.5259 2.9120 -2.5046 0.9794
3.1942 3.2724 -2.5046 0.9794
3.0753 3.3844 -2.5046 0.9794
2.9525 3.4920 -2.5046 0.9794
2.8259 3.5953 -2.5046 0.9794
2.6957 3.6939 -2.5046 0.9794
2.1423 4.0401 -2.5046 0.9794
1.8485 4.1828 -2.5047 0.9794
1.6979 4.2462 -2.5047 0.9794
1.5452 4.3042 -2.5047 0.9794
1.2341 4.4036 -2.5048 0.9794
0.4322 4.5530 -2.5049 0.9794
-0.0572 4.5702 -2.5033 0.9794
4.0216 -1.6121 -2.5015 0.9802
4.0765 -1.4674 -2.5014 0.9802
2.5322 -0.7120 -1.5187 0.9879
2.5249 -0.5188 -1.4882 0.9882
2.5245 -0.3331 -1.4701 0.9883
2.5242 -0.2418 -1.4640 0.9884
2.5239 0.0295 -1.4573 0.9884
2.5247 0.2103 -1.4627 0.9884
2.5216 0.3929 -1.4734 0.9883
2.5629 0.4936 -1.5069 0.9880
4.2285 0.9722 -2.5050 0.9802
4.1910 1.1225 -2.5050 0.9802
4.0468 1.5643 -2.5049 0.9802
3.9883 1.7078 -2.5048 0.9802
3.8561 1.9881 -2.5048 0.9802
3.7826 2.1245 -2.5048 0.9802
3.6213 2.3890 -2.5047 0.9802
3.5337 2.5168 -2.5047 0.9802
3.4415 2.6414 -2.5047 0.9802
2.6809 3.4107 -2.5047 0.9802
2.3007 3.6779 -2.5047 0.9802
2.0323 3.8328 -2.5047 0.9802
1.8942 3.9029 -2.5047 0.9802
1.7536 3.9682 -2.5048 0.9802
1.4659 4.0833 -2.5048 0.9802
1.1707 4.1775 -2.5049 0.9802
1.0208 4.2167 -2.5049 0.9802
0.7173 4.2789 -2.5049 0.9802
0.5640 4.3019 -2.5050 0.9802
0.2555 4.3311 -2.5049 0.9802
0.1006 4.3341 -2.5030 0.9802
-0.0542 4.3315 -2.5010 0.9802
-0.8223 4.2501 -2.4993 0.9802
-0.9735 4.2180 -2.4993 0.9802
-1.1236 4.1805 -2.4993 0.9802
