ply
format ascii 1.0
element vertex 999
property float32 x
property float32 y
property float32 z
property float32 I
end_header
-41.9319 8.7217 7.5520 0.8403
-12.3162 -11.9261 3.0230 0.9327
-41.8458 8.7038 6.5477 0.8412
-12.3155 -11.9254 2.6262 0.9330
-5.6341 -29.6158 4.6183 0.8852
21.3229 -22.8748 4.7907 0.8811
-12.3148 -11.9247 2.2323 0.9332
-41.8227 8.6990 4.5871 0.8421
23.5372 -36.7328 4.6847 0.8390
24.7593 -33.1134 4.4398 0.8468
22.6855 -28.1612 3.8831 0.8646
22.7275 -26.2176 3.7259 0.8697
22.8298 -24.4914 3.5953 0.8740
22.6862 -28.1620 3.0613 0.8649
22.8433 -26.3512 2.9522 0.8694
22.8304 -24.4921 2.8344 0.8742
-41.8020 8.6947 2.6476 0.8427
-12.3127 -11.9227 1.0628 0.9336
24.8241 -33.2002 2.5706 0.8469
22.8440 -26.3520 2.1626 0.8696
-41.7917 8.6925 1.6832 0.8429
-5.6325 -29.6077 1.1884 0.8863
24.7070 -35.6573 1.7105 0.8406
24.8249 -33.2013 1.6347 0.8471
22.6877 -28.1638 1.4260 0.8652
-41.7815 8.6904 0.7209 0.8431
-12.3113 -11.9213 0.2895 0.9337
23.2476 -36.2808 0.7279 0.8417
23.3561 -31.2369 0.6588 0.8555
21.3184 -24.5922 0.5498 0.8779
21.3546 -22.9089 0.5290 0.8822
-5.6319 -29.6045 -0.1697 0.8864
23.2520 -36.2877 -0.2426 0.8416
23.3054 -33.6344 -0.2304 0.8490
23.3569 -31.2379 -0.2196 0.8555
-12.3099 -11.9200 -0.4825 0.9337
21.3544 -26.5087 -0.9585 0.8727
-38.3041 28.4079 -2.4185 0.8261
-39.2748 26.9873 -2.4167 0.8263
-41.0516 24.0454 -2.4127 0.8265
-42.6013 20.9843 -2.4084 0.8268
-45.8288 11.2715 -2.3934 0.8278
-41.5885 8.6503 -2.1543 0.8436
-46.6169 6.2320 -2.3852 0.8283
-49.6854 4.8251 -2.5316 0.8188
-49.7586 3.0251 -2.5281 0.8190
-49.7657 1.2261 -2.5246 0.8192
-49.5822 -2.3591 -2.5174 0.8197
-49.3925 -4.1404 -2.5137 0.8199
-49.1387 -5.9111 -2.5100 0.8202
-48.8205 -7.6688 -2.5063 0.8204
-45.0756 -10.4584 -2.3467 0.8308
-44.7770 -12.1072 -2.3524 0.8305
-44.3870 -13.7383 -2.3564 0.8302
-43.6510 -20.7912 -2.4520 0.8239
19.9164 -40.0380 -2.2678 0.8360
23.2501 -36.2847 -2.1855 0.8415
21.2812 -26.4179 -1.7204 0.8730
21.3203 -24.5944 -1.6507 0.8778
-25.4888 20.3692 -2.3924 0.8773
-26.1952 19.4275 -2.3913 0.8774
-26.8660 18.4608 -2.3901 0.8774
-27.5005 17.4704 -2.3889 0.8775
-28.0975 16.4578 -2.3876 0.8776
-28.6565 15.4244 -2.3862 0.8776
-29.6574 13.3012 -2.3832 0.8778
-30.0981 12.2144 -2.3817 0.8779
-31.6150 6.5758 -2.3677 0.8785
-34.1338 -1.6241 -2.5056 0.8719
-34.0188 -2.8517 -2.5031 0.8720
-33.8593 -4.0731 -2.5005 0.8722
-33.1180 -7.6840 -2.4928 0.8725
-32.7848 -8.8646 -2.4902 0.8727
-29.6545 -11.5817 -2.3343 0.8801
-29.4534 -12.7462 -2.3531 0.8792
-28.6184 -14.9210 -2.3664 0.8786
-28.1680 -16.0043 -2.3754 0.8782
-27.6752 -17.0738 -2.3843 0.8777
-12.3085 -11.9186 -1.2563 0.9336
-22.0538 -26.5461 -2.5305 0.8707
-20.3672 -28.4659 -2.5664 0.8690
-17.4995 -31.0813 -2.6153 0.8667
-16.4562 -31.8660 -2.6297 0.8660
-14.2513 -33.2871 -2.6550 0.8648
-10.6863 -35.0095 -2.6839 0.8635
-9.4409 -35.4654 -2.6910 0.8631
-5.6066 -29.4717 -2.1997 0.8866
-4.3669 -37.5366 -2.7708 0.8594
-0.3007 -39.8191 -2.9197 0.8524
1.1349 -39.7595 -2.9164 0.8525
2.5645 -39.6278 -2.9117 0.8528
5.3897 -39.1516 -2.8978 0.8534
8.1436 -38.4000 -2.8782 0.8543
17.9119 -32.9688 -2.7511 0.8603
18.9560 -32.0748 -2.7318 0.8612
19.2400 -30.0263 -2.6148 0.8667
20.3107 -27.1638 -2.4869 0.8728
21.1431 -26.2465 -2.4712 0.8736
-18.1978 16.8309 -2.3798 0.9052
-19.3523 15.4653 -2.3783 0.9052
-19.8908 14.7519 -2.3775 0.9053
-20.4026 14.0194 -2.3766 0.9053
-21.3432 12.5016 -2.3747 0.9054
-21.7709 11.7182 -2.3736 0.9054
-22.1736 8.9985 -2.2974 0.9083
-23.4389 7.5945 -2.3654 0.9057
-23.6595 6.7330 -2.3616 0.9059
-25.2042 6.1989 -2.4918 0.9010
-25.6171 5.3283 -2.5120 0.9002
-25.8991 3.4623 -2.5086 0.9003
-26.0442 1.5834 -2.5050 0.9005
-26.0520 -0.2985 -2.5013 0.9006
-26.0046 -1.2373 -2.4994 0.9007
-25.9232 -2.1731 -2.4975 0.9007
-25.8079 -3.1045 -2.4955 0.9008
-25.6590 -4.0306 -2.4936 0.9009
-25.4768 -4.9498 -2.4916 0.9010
-25.0136 -6.7634 -2.4877 0.9011
-24.7334 -7.6553 -2.4857 0.9012
-24.0781 -9.4038 -2.4817 0.9013
-22.4452 -9.7133 -2.3480 0.9064
-21.8811 -10.4221 -2.3268 0.9072
-21.4928 -11.2058 -2.3270 0.9072
-20.8126 -12.8400 -2.3478 0.9064
-20.4316 -13.6465 -2.3588 0.9060
-19.4915 -15.1600 -2.3707 0.9055
-18.4414 -16.6107 -2.3828 0.9051
-12.2237 -11.8365 -1.6336 0.9339
-16.0442 -19.3125 -2.4104 0.9040
-15.3875 -19.9441 -2.4184 0.9037
-14.7040 -20.5508 -2.4260 0.9034
-13.9948 -21.1311 -2.4333 0.9032
-10.1148 -23.6255 -2.4673 0.9019
-9.2781 -24.0328 -2.4732 0.9017
-7.5518 -24.7404 -2.4834 0.9013
-6.6654 -25.0388 -2.4876 0.9011
-3.2239 -27.7117 -2.6784 0.8939
-1.2172 -27.8747 -2.6787 0.8939
0.7952 -27.8579 -2.6756 0.8941
1.7981 -27.7852 -2.6731 0.8941
3.7873 -27.5117 -2.6662 0.8944
4.7695 -27.3113 -2.6617 0.8946
6.6991 -26.7866 -2.6508 0.8950
8.5700 -26.1017 -2.6375 0.8955
9.4789 -25.7017 -2.6300 0.8958
13.7145 -23.2058 -2.5879 0.8973
15.2645 -22.0298 -2.5731 0.8979
18.0280 -19.3402 -2.5383 0.8992
-14.6527 13.5521 -2.3708 0.9227
-15.1285 13.0115 -2.3703 0.9228
-15.5841 12.4540 -2.3697 0.9228
-16.0188 11.8803 -2.3690 0.9228
-17.5384 9.4400 -2.3659 0.9229
-18.4138 7.4727 -2.3606 0.9231
-18.6482 6.7949 -2.3576 0.9232
-19.1828 6.2155 -2.3953 0.9220
-20.6524 4.2957 -2.5057 0.9185
-20.7826 3.5458 -2.5044 0.9186
-20.8853 2.7921 -2.5030 0.9186
-20.9605 2.0355 -2.5015 0.9187
-21.0204 -0.2408 -2.4971 0.9188
-20.9226 -1.7539 -2.4940 0.9189
-20.7156 -3.2540 -2.4909 0.9190
-20.5716 -3.9968 -2.4893 0.9191
-20.4009 -4.7334 -2.4877 0.9191
-20.2038 -5.4628 -2.4861 0.9192
-19.4572 -7.5991 -2.4813 0.9193
-18.8340 -8.9707 -2.4780 0.9194
-17.1011 -9.7164 -2.3364 0.9238
-16.2574 -10.8586 -2.3223 0.9243
-15.8555 -11.4384 -2.3224 0.9243
-15.4518 -12.0181 -2.3253 0.9242
-15.0935 -12.6392 -2.3385 0.9238
-12.1749 -11.7893 -2.0131 0.9340
-13.2942 -14.8758 -2.3699 0.9228
-12.7715 -15.3730 -2.3740 0.9226
-12.2293 -15.8507 -2.3781 0.9225
-11.6684 -16.3082 -2.3820 0.9224
-10.4939 -17.1593 -2.3892 0.9222
-9.8818 -17.5514 -2.3926 0.9221
-7.9571 -18.5856 -2.4015 0.9218
-6.6115 -19.1557 -2.4072 0.9216
-5.9231 -19.4049 -2.4100 0.9215
-4.5148 -19.8096 -2.4134 0.9214
-3.9531 -20.7795 -2.5126 0.9183
-2.5187 -21.6503 -2.5891 0.9159
-1.7363 -21.7321 -2.5897 0.9159
-0.1646 -21.7906 -2.5885 0.9160
1.4059 -21.7242 -2.5859 0.9160
2.1873 -21.6442 -2.5841 0.9161
4.5003 -21.2204 -2.5767 0.9163
6.0036 -20.7878 -2.5702 0.9165
7.4644 -20.2394 -2.5625 0.9168
10.8713 -18.3949 -2.5381 0.9175
11.5022 -17.9507 -2.5325 0.9177
12.1142 -17.4833 -2.5266 0.9179
12.7064 -16.9938 -2.5205 0.9181
14.3563 -15.4012 -2.5010 0.9187
-12.2529 11.3325 -2.3648 0.9348
-12.6513 10.8809 -2.3643 0.9348
-13.0328 10.4151 -2.3638 0.9348
-13.3970 9.9358 -2.3633 0.9348
-14.3808 8.4234 -2.3614 0.9349
-14.9228 7.3506 -2.3570 0.9350
-15.1633 6.8006 -2.3547 0.9351
-15.3856 6.2438 -2.3526 0.9351
-16.6160 6.0545 -2.5057 0.9310
-16.8167 5.4488 -2.5047 0.9311
-17.1512 4.2183 -2.5026 0.9311
-17.2846 3.5951 -2.5015 0.9312
-17.3951 2.9678 -2.5003 0.9312
-17.4827 2.3372 -2.4991 0.9312
-17.5472 1.7041 -2.4980 0.9313
-17.5887 1.0693 -2.4967 0.9313
-17.6071 0.4338 -2.4955 0.9313
-17.6025 -0.2017 -2.4942 0.9314
-17.5241 -1.4690 -2.4917 0.9314
-17.2354 -3.3486 -2.4877 0.9315
-17.0941 -3.9662 -2.4864 0.9316
-16.9307 -4.5779 -2.4850 0.9316
-16.7454 -5.1829 -2.4837 0.9316
-16.5385 -5.7806 -2.4823 0.9317
-16.3102 -6.3700 -2.4810 0.9317
-16.0610 -6.9506 -2.4796 0.9317
-15.5010 -8.0819 -2.4769 0.9318
-11.7568 -11.3844 -2.3188 0.9360
-10.9403 -12.2419 -2.3263 0.9358
-10.1064 -13.0993 -2.3442 0.9353
-9.1920 -13.8793 -2.3587 0.9350
-8.6995 -14.2248 -2.3625 0.9349
-7.6788 -14.8694 -2.3712 0.9346
-7.1447 -15.1524 -2.3736 0.9346
-6.0446 -15.6572 -2.3780 0.9344
-5.4687 -15.8445 -2.3750 0.9345
1.1596 -17.9190 -2.5442 0.9300
3.7143 -17.5143 -2.5368 0.9302
4.9573 -17.1648 -2.5315 0.9304
5.5667 -16.9545 -2.5284 0.9304
6.1668 -16.7209 -2.5252 0.9305
8.4559 -15.5641 -2.5097 0.9309
8.9962 -15.2221 -2.5053 0.9311
-11.1893 8.9419 -2.3596 0.9436
-11.7961 8.1056 -2.3578 0.9436
-12.5732 6.7676 -2.3523 0.9438
-14.0779 5.7131 -2.5029 0.9403
-14.2701 5.1997 -2.5020 0.9403
-14.7324 3.6234 -2.4993 0.9403
-14.8478 3.0883 -2.4984 0.9404
-14.9437 2.5496 -2.4974 0.9404
-15.0200 2.0079 -2.4964 0.9404
-15.1270 -0.1733 -2.4922 0.9405
-15.0618 -1.2626 -2.4900 0.9406
-14.9997 -1.8044 -2.4889 0.9406
-14.9181 -2.3433 -2.4877 0.9406
-14.8170 -2.8788 -2.4866 0.9406
-14.6967 -3.4099 -2.4854 0.9407
-14.5573 -3.9361 -2.4843 0.9407
-14.0270 -5.4783 -2.4808 0.9408
-13.8138 -5.9781 -2.4796 0.9408
-13.5827 -6.4695 -2.4785 0.9408
-13.0685 -7.4252 -2.4761 0.9409
-12.1728 -8.7816 -2.4727 0.9410
-9.7411 -10.1387 -2.3162 0.9446
-9.3686 -10.4832 -2.3161 0.9446
-8.1797 -11.4322 -2.3158 0.9446
-7.7606 -11.7179 -2.3154 0.9446
-6.9312 -12.3108 -2.3274 0.9443
-6.0577 -12.8471 -2.3399 0.9440
-5.6051 -13.0921 -2.3461 0.9439
-4.6596 -13.5004 -2.3528 0.9437
-2.8549 -15.0067 -2.5165 0.9400
-1.7655 -15.1756 -2.5169 0.9399
-1.2167 -15.2287 -2.5168 0.9399
-0.1153 -15.2717 -2.5159 0.9400
0.9856 -15.2303 -2.5143 0.9400
2.0794 -15.1051 -2.5119 0.9401
3.1594 -14.8978 -2.5088 0.9401
3.6925 -14.7646 -2.5072 0.9402
4.2199 -14.6114 -2.5054 0.9402
4.7406 -14.4384 -2.5035 0.9403
6.2702 -13.8355 -2.5024 0.9403
6.7658 -13.6014 -2.5026 0.9403
7.7303 -13.0802 -2.5030 0.9403
8.6532 -12.4883 -2.5029 0.9403
9.5268 -11.8263 -2.5018 0.9403
-9.5039 8.1740 -2.3562 0.9503
-10.0565 7.4583 -2.3533 0.9503
-10.3124 7.0861 -2.3518 0.9503
-10.5544 6.7049 -2.3503 0.9504
-10.7829 6.3159 -2.3488 0.9504
-11.5215 6.2016 -2.4594 0.9481
-11.9383 5.8805 -2.5014 0.9473
-12.3243 5.0015 -2.5000 0.9473
-12.4931 4.5522 -2.4992 0.9473
-12.6453 4.0972 -2.4985 0.9473
-13.0859 2.2326 -2.4952 0.9474
-13.2363 0.8047 -2.4925 0.9475
-13.2498 -0.1518 -2.4906 0.9475
-13.2307 -0.6295 -2.4897 0.9475
-12.9819 -2.5222 -2.4857 0.9476
-12.8773 -2.9878 -2.4847 0.9476
-12.6180 -3.9054 -2.4827 0.9477
-12.4637 -4.3563 -2.4817 0.9477
-12.1071 -5.2395 -2.4796 0.9477
-11.6881 -6.0939 -2.4776 0.9478
-11.4559 -6.5090 -2.4766 0.9478
-11.2091 -6.9152 -2.4755 0.9478
-10.9478 -7.3122 -2.4745 0.9478
-10.3836 -8.0762 -2.4726 0.9479
-10.0815 -8.4422 -2.4716 0.9479
-7.1624 -10.0104 -2.3136 0.9511
-5.6754 -10.9900 -2.3249 0.9509
-5.2830 -11.2040 -2.3283 0.9508
-4.5776 -11.8572 -2.3890 0.9496
-4.2664 -12.3611 -2.4579 0.9482
-2.9559 -12.9695 -2.5003 0.9473
-2.0132 -13.1511 -2.5007 0.9473
-1.0595 -13.2610 -2.5005 0.9473
0.8591 -13.2747 -2.5003 0.9473
1.3376 -13.2360 -2.5005 0.9473
2.2889 -13.1071 -2.5009 0.9473
4.6057 -12.4882 -2.5018 0.9473
5.0537 -12.3148 -2.5020 0.9473
5.4951 -12.1253 -2.5022 0.9473
5.9295 -11.9200 -2.5024 0.9473
6.7746 -11.4630 -2.5027 0.9472
7.1843 -11.2119 -2.5029 0.9472
7.5842 -10.9456 -2.5030 0.9472
8.3504 -10.3659 -2.5019 0.9473
8.7172 -10.0559 -2.5014 0.9473
9.0725 -9.7329 -2.5009 0.9473
-8.1693 7.5557 -2.3522 0.9555
-8.9238 6.6183 -2.3485 0.9556
-9.7654 6.2037 -2.4455 0.9538
-10.6053 5.2239 -2.4989 0.9528
-10.7842 4.8367 -2.4983 0.9528
-11.2348 3.6402 -2.4964 0.9529
-11.3556 3.2316 -2.4957 0.9529
-11.7333 1.1394 -2.4919 0.9529
-11.7630 0.7151 -2.4911 0.9530
-11.7761 -0.1349 -2.4894 0.9530
-11.6180 -1.8250 -2.4859 0.9531
-11.5405 -2.2421 -2.4850 0.9531
-11.4479 -2.6561 -2.4841 0.9531
-10.1881 -5.7886 -2.4769 0.9532
-9.7371 -6.5035 -2.4751 0.9533
-9.4927 -6.8481 -2.4742 0.9533
-9.2361 -7.1836 -2.4733 0.9533
-7.7836 -8.7096 -2.4691 0.9534
-5.7423 -10.1990 -2.4741 0.9533
-5.3758 -10.4099 -2.4765 0.9532
-5.0039 -10.6121 -2.4801 0.9532
-4.6255 -10.8041 -2.4843 0.9531
-3.8505 -11.1561 -2.4947 0.9529
-3.4512 -11.3064 -2.4988 0.9528
-2.6272 -11.5273 -2.4991 0.9528
-1.7893 -11.6882 -2.4994 0.9528
-0.5159 -11.8154 -2.4999 0.9528
-0.0893 -11.8271 -2.5001 0.9528
0.3375 -11.8234 -2.5002 0.9528
1.6134 -11.7200 -2.5007 0.9528
2.0353 -11.6550 -2.5009 0.9528
4.8860 -10.7813 -2.5021 0.9528
5.2722 -10.5987 -2.5022 0.9528
5.6515 -10.4023 -2.5024 0.9528
6.7437 -9.7325 -2.5029 0.9527
7.0895 -9.4816 -2.5025 0.9528
7.4257 -9.2180 -2.5021 0.9528
7.7520 -8.9425 -2.5016 0.9528
8.0682 -8.6554 -2.5012 0.9528
-7.3335 6.7826 -2.3477 0.9598
-7.8084 6.2400 -2.3492 0.9598
-8.9732 5.7005 -2.4985 0.9573
-9.6920 4.3468 -2.4964 0.9573
-9.9756 3.6349 -2.4953 0.9573
-10.0977 3.2718 -2.4947 0.9573
-10.2066 2.9046 -2.4940 0.9573
-10.3021 2.5338 -2.4934 0.9573
-10.3840 2.1599 -2.4927 0.9574
-10.4523 1.7833 -2.4920 0.9574
-10.5477 1.0243 -2.4906 0.9574
-10.5747 0.6429 -2.4899 0.9574
-10.5879 0.2609 -2.4892 0.9574
-10.5872 -0.1213 -2.4884 0.9574
-10.5727 -0.5030 -2.4876 0.9574
-10.5023 -1.2634 -2.4861 0.9575
-10.2944 -2.3885 -2.4837 0.9575
-10.0887 -3.1226 -2.4821 0.9575
-9.9662 -3.4834 -2.4812 0.9575
-9.8308 -3.8395 -2.4804 0.9576
-9.6827 -4.1903 -2.4796 0.9576
-9.5220 -4.5354 -2.4788 0.9576
-9.3491 -4.8744 -2.4780 0.9576
-9.1642 -5.2068 -2.4772 0.9576
-8.7591 -5.8503 -2.4755 0.9576
-8.5396 -6.1606 -2.4747 0.9577
-8.3091 -6.4626 -2.4740 0.9577
-8.0679 -6.7560 -2.4732 0.9577
-7.8165 -7.0405 -2.4724 0.9577
-7.2839 -7.5812 -2.4709 0.9577
-7.0050 -7.8383 -2.4706 0.9577
-6.7214 -8.0905 -2.4720 0.9577
-6.4292 -8.3331 -2.4736 0.9577
-4.8472 -9.3862 -2.4828 0.9575
-4.5117 -9.5683 -2.4862 0.9575
-3.4690 -10.0507 -2.4989 0.9573
-3.1043 -10.1699 -2.4990 0.9572
-1.2291 -10.5648 -2.4997 0.9572
-0.8471 -10.6029 -2.4999 0.9572
-0.4641 -10.6272 -2.5000 0.9572
0.3036 -10.6343 -2.5003 0.9572
0.6871 -10.6170 -2.5005 0.9572
1.8306 -10.4825 -2.5009 0.9572
4.0413 -9.8480 -2.5018 0.9572
4.3943 -9.6963 -2.5020 0.9572
5.4172 -9.1663 -2.5024 0.9572
6.0648 -8.7528 -2.5027 0.9572
6.6790 -8.2911 -2.5022 0.9572
6.9726 -8.0434 -2.5018 0.9572
-7.2818 6.2628 -2.4868 0.9611
-7.5365 6.0228 -2.4979 0.9609
-8.3192 4.8729 -2.4963 0.9609
-8.7920 3.9432 -2.4949 0.9610
-9.0497 3.2975 -2.4938 0.9610
-9.1607 2.9682 -2.4933 0.9610
-9.6073 0.2367 -2.4883 0.9611
-9.6070 -0.1100 -2.4876 0.9611
-9.5308 -1.1465 -2.4855 0.9611
-9.4804 -1.4892 -2.4848 0.9611
-9.4178 -1.8297 -2.4840 0.9611
-9.3429 -2.1677 -2.4833 0.9611
-9.1568 -2.8341 -2.4818 0.9612
-8.9233 -3.4850 -2.4803 0.9612
-8.7891 -3.8035 -2.4796 0.9612
-8.1408 -5.0223 -2.4766 0.9612
-7.9519 -5.3112 -2.4759 0.9613
-7.3251 -6.1340 -2.4738 0.9613
-7.1010 -6.3961 -2.4745 0.9613
-6.8685 -6.6509 -2.4755 0.9613
-6.6273 -6.8978 -2.4767 0.9612
-6.3777 -7.1365 -2.4781 0.9612
-5.2900 -7.9875 -2.4805 0.9612
-4.4092 -8.5381 -2.4880 0.9611
-3.7935 -8.8605 -2.4956 0.9610
-3.4761 -9.0039 -2.4990 0.9609
-3.1491 -9.1239 -2.4991 0.9609
-2.8180 -9.2320 -2.4992 0.9609
-2.1451 -9.4121 -2.4995 0.9609
-1.4609 -9.5433 -2.4997 0.9609
-1.1157 -9.5903 -2.4998 0.9609
-0.7690 -9.6248 -2.5000 0.9609
0.2755 -9.6531 -2.5004 0.9609
0.9710 -9.6091 -2.5006 0.9609
1.3172 -9.5683 -2.5008 0.9609
2.3438 -9.3715 -2.5012 0.9609
2.6805 -9.2814 -2.5013 0.9609
3.0138 -9.1791 -2.5015 0.9609
3.3432 -9.0649 -2.5016 0.9609
4.3038 -8.6519 -2.5020 0.9609
4.9170 -8.3199 -2.5023 0.9609
5.2143 -8.1375 -2.5024 0.9609
5.5047 -7.9444 -2.5025 0.9609
5.7882 -7.7412 -2.5027 0.9608
6.0628 -7.5262 -2.5023 0.9609
6.3295 -7.3014 -2.5019 0.9609
6.5878 -7.0673 -2.5016 0.9609
-6.8886 5.5050 -2.4963 0.9640
-7.4399 4.7264 -2.4953 0.9640
-7.6044 4.4542 -2.4949 0.9640
-7.9031 3.8929 -2.4940 0.9640
-8.0370 3.6045 -2.4936 0.9640
-8.3745 2.7135 -2.4921 0.9641
-8.4651 2.4090 -2.4916 0.9641
-8.6131 1.7915 -2.4905 0.9641
-8.7729 0.5334 -2.4881 0.9641
-8.7842 -0.1007 -2.4869 0.9641
-8.7495 -0.7334 -2.4856 0.9642
-8.6693 -1.3618 -2.4843 0.9642
-8.6122 -1.6732 -2.4837 0.9642
-8.5440 -1.9823 -2.4830 0.9642
-8.3742 -2.5919 -2.4816 0.9642
-8.1610 -3.1873 -2.4803 0.9642
-7.9056 -3.7655 -2.4789 0.9643
-7.6093 -4.3234 -2.4776 0.9643
-7.4482 -4.5950 -2.4775 0.9643
-6.7171 -5.6249 -2.4802 0.9642
-5.8421 -6.5371 -2.4819 0.9642
-5.6021 -6.7433 -2.4818 0.9642
-4.8457 -7.3167 -2.4844 0.9642
-4.5830 -7.4940 -2.4868 0.9641
-4.3141 -7.6623 -2.4893 0.9641
-3.7605 -7.9752 -2.4961 0.9640
-3.4744 -8.1151 -2.4990 0.9640
-3.1794 -8.2355 -2.4991 0.9640
-1.6502 -8.6744 -2.4997 0.9640
-1.0205 -8.7716 -2.4999 0.9640
-0.7033 -8.8031 -2.5001 0.9640
-0.0667 -8.8318 -2.5003 0.9639
0.5704 -8.8145 -2.5005 0.9639
0.8881 -8.7886 -2.5007 0.9639
1.5198 -8.7025 -2.5009 0.9639
1.8329 -8.6425 -2.5010 0.9639
3.3549 -8.1753 -2.5017 0.9639
3.9361 -7.9128 -2.5019 0.9639
4.2192 -7.7660 -2.5020 0.9639
4.4969 -7.6091 -2.5021 0.9639
5.0344 -7.2656 -2.5024 0.9639
-6.3368 5.0640 -2.4950 0.9666
-6.5146 4.8315 -2.4947 0.9666
-6.8442 4.3480 -2.4940 0.9666
-6.9956 4.0976 -2.4936 0.9666
-7.2706 3.5813 -2.4929 0.9667
-7.3938 3.3161 -2.4924 0.9667
-7.6114 2.7735 -2.4917 0.9667
-7.7055 2.4967 -2.4913 0.9667
-7.8633 1.9340 -2.4906 0.9667
-7.9268 1.6488 -2.4903 0.9667
-7.9800 1.3615 -2.4900 0.9667
-8.0229 1.0725 -2.4896 0.9667
-8.0771 0.4911 -2.4889 0.9667
-8.0860 0.1992 -2.4878 0.9667
-8.0848 -0.0926 -2.4869 0.9667
-8.0735 -0.3841 -2.4860 0.9667
-8.0519 -0.6750 -2.4853 0.9668
-7.8641 -1.8246 -2.4831 0.9668
-7.7921 -2.1069 -2.4827 0.9668
-7.7102 -2.3864 -2.4825 0.9668
-7.5174 -2.9359 -2.4823 0.9668
-7.4067 -3.2053 -2.4823 0.9668
-7.2867 -3.4707 -2.4825 0.9668
-7.1575 -3.7317 -2.4827 0.9668
-6.8725 -4.2399 -2.4837 0.9668
-6.7155 -4.4854 -2.4839 0.9668
-6.5487 -4.7243 -2.4837 0.9668
-5.9986 -5.4031 -2.4832 0.9668
-5.7994 -5.6157 -2.4830 0.9668
-5.5927 -5.8209 -2.4828 0.9668
-5.3787 -6.0186 -2.4827 0.9668
-5.1578 -6.2084 -2.4826 0.9668
-4.7038 -6.5742 -2.4864 0.9667
-4.2250 -6.9086 -2.4908 0.9667
-3.9772 -7.0641 -2.4935 0.9666
-3.7247 -7.2125 -2.4968 0.9666
-3.4652 -7.3490 -2.4991 0.9666
-2.6512 -7.6813 -2.4994 0.9666
-2.3724 -7.7723 -2.4995 0.9666
-2.0905 -7.8532 -2.4996 0.9666
-0.9392 -8.0736 -2.5000 0.9666
-0.6474 -8.1026 -2.5001 0.9666
-0.0614 -8.1289 -2.5003 0.9666
0.5250 -8.1129 -2.5006 0.9665
0.8174 -8.0890 -2.5007 0.9665
1.9729 -7.8888 -2.5011 0.9665
2.5369 -7.7266 -2.5014 0.9665
3.3574 -7.4083 -2.5017 0.9665
3.6227 -7.2826 -2.5018 0.9665
3.8832 -7.1475 -2.5019 0.9665
5.1040 -6.3359 -2.5024 0.9665
5.3286 -6.1468 -2.5021 0.9665
-5.6903 4.8940 -2.4948 0.9689
-5.8625 4.6849 -2.4945 0.9689
-6.1835 4.2490 -2.4939 0.9689
-6.4722 3.7910 -2.4933 0.9689
-6.7270 3.3136 -2.4926 0.9689
-6.8413 3.0683 -2.4923 0.9689
-6.9466 2.8191 -2.4920 0.9689
-7.2078 2.0512 -2.4910 0.9689
-7.2762 1.7896 -2.4907 0.9689
-7.3844 1.2599 -2.4901 0.9689
-7.4542 0.7239 -2.4895 0.9689
-7.4859 -0.0858 -2.4885 0.9689
-7.4302 -0.8938 -2.4876 0.9689
-7.3923 -1.1612 -2.4874 0.9690
-7.3447 -1.4270 -2.4871 0.9690
-7.2877 -1.6908 -2.4868 0.9690
-6.8624 -2.9698 -2.4855 0.9690
-6.7502 -3.2151 -2.4853 0.9690
-6.6292 -3.4563 -2.4851 0.9690
-6.4996 -3.6929 -2.4849 0.9690
-6.3616 -3.9247 -2.4847 0.9690
-6.0611 -4.3725 -2.4843 0.9690
-5.8989 -4.5880 -2.4841 0.9690
-5.5520 -5.0008 -2.4838 0.9690
-5.3676 -5.1976 -2.4836 0.9690
-4.9816 -5.5741 -2.4850 0.9690
-4.1391 -6.2497 -2.4918 0.9689
-3.6861 -6.5470 -2.4975 0.9688
-3.2066 -6.8005 -2.4992 0.9688
-0.8691 -7.4708 -2.5001 0.9688
-0.5990 -7.4976 -2.5002 0.9688
-0.3281 -7.5146 -2.5003 0.9688
0.4858 -7.5070 -2.5006 0.9688
2.0878 -7.2292 -2.5012 0.9688
2.3474 -7.1495 -2.5013 0.9688
2.8571 -6.9622 -2.5016 0.9688
3.1066 -6.8548 -2.5017 0.9688
3.8295 -6.4798 -2.5020 0.9688
4.0610 -6.3377 -2.5021 0.9688
4.5078 -6.0288 -2.5023 0.9688
4.9307 -5.6879 -2.5022 0.9688
5.1322 -5.5057 -2.5019 0.9688
-5.6018 4.1546 -2.4940 0.9708
-6.1383 3.3040 -2.4929 0.9708
-6.2527 3.0800 -2.4926 0.9708
-6.3590 2.8520 -2.4923 0.9708
-6.6999 1.9067 -2.4911 0.9708
-6.8184 1.4182 -2.4905 0.9708
-6.9482 0.4224 -2.4893 0.9709
-6.9508 -0.3307 -2.4885 0.9709
-6.9074 -0.8309 -2.4879 0.9709
-6.8280 -1.3266 -2.4874 0.9709
-6.7750 -1.5719 -2.4871 0.9709
-6.7132 -1.8152 -2.4869 0.9709
-6.5636 -2.2941 -2.4864 0.9709
-6.3799 -2.7609 -2.4860 0.9709
-6.2756 -2.9891 -2.4858 0.9709
-6.1631 -3.2133 -2.4855 0.9709
-6.0427 -3.4333 -2.4853 0.9709
-5.7785 -3.8595 -2.4850 0.9709
-5.6351 -4.0652 -2.4848 0.9709
-4.8172 -5.0138 -2.4864 0.9709
-4.6352 -5.1867 -2.4875 0.9709
-3.6440 -5.9585 -2.4977 0.9708
-3.4287 -6.0898 -2.4992 0.9707
-2.9808 -6.3216 -2.4993 0.9707
-2.7508 -6.4252 -2.4994 0.9707
-2.2805 -6.6073 -2.4996 0.9707
-1.7982 -6.7550 -2.4998 0.9707
-1.3065 -6.8676 -2.5000 0.9707
-0.8079 -6.9445 -2.5001 0.9707
-0.5568 -6.9693 -2.5002 0.9707
-0.3050 -6.9851 -2.5003 0.9707
-0.0528 -6.9919 -2.5004 0.9707
0.1995 -6.9895 -2.5005 0.9707
0.4516 -6.9781 -2.5006 0.9707
1.2031 -6.8892 -2.5009 0.9707
1.4509 -6.8416 -2.5010 0.9707
1.6969 -6.7851 -2.5011 0.9707
2.1819 -6.6456 -2.5013 0.9707
2.8876 -6.3716 -2.5016 0.9707
3.9849 -5.7510 -2.5021 0.9707
4.1899 -5.6037 -2.5022 0.9707
4.3896 -5.4491 -2.5022 0.9707
4.5834 -5.2872 -2.5023 0.9707
4.7707 -5.1179 -2.5020 0.9707
-5.3629 3.6851 -2.4936 0.9725
-5.7279 3.0831 -2.4928 0.9725
-6.0254 2.4453 -2.4919 0.9725
-6.3117 1.5524 -2.4908 0.9725
-6.4665 0.6280 -2.4897 0.9726
-6.4842 0.3942 -2.4895 0.9726
-6.4944 -0.0744 -2.4889 0.9726
-6.4708 -0.5424 -2.4884 0.9726
-6.4464 -0.7754 -2.4882 0.9726
-6.4135 -1.0074 -2.4879 0.9726
-6.3724 -1.2381 -2.4877 0.9726
-6.3230 -1.4671 -2.4874 0.9726
-6.2653 -1.6941 -2.4872 0.9726
-6.1996 -1.9188 -2.4870 0.9726
-6.1257 -2.1411 -2.4868 0.9726
-5.9544 -2.5768 -2.4863 0.9726
-5.8571 -2.7897 -2.4861 0.9726
-5.2594 -3.7943 -2.4852 0.9726
-5.1188 -3.9813 -2.4851 0.9726
-4.9744 -4.1655 -2.4864 0.9726
-4.6642 -4.5165 -2.4881 0.9726
-4.5005 -4.6842 -2.4894 0.9726
-3.4025 -5.5638 -2.4992 0.9724
-2.9926 -5.7950 -2.4994 0.9724
-2.5671 -5.9960 -2.4995 0.9724
-2.3492 -6.0850 -2.4996 0.9724
-2.1281 -6.1659 -2.4997 0.9724
-1.6781 -6.3037 -2.4998 0.9724
-1.2192 -6.4088 -2.5000 0.9724
-0.9872 -6.4488 -2.5001 0.9724
-0.7539 -6.4805 -2.5002 0.9724
-0.0493 -6.5247 -2.5005 0.9724
0.1862 -6.5225 -2.5006 0.9724
0.4214 -6.5117 -2.5006 0.9724
1.3540 -6.3843 -2.5010 0.9724
1.5835 -6.3316 -2.5011 0.9724
2.0361 -6.2013 -2.5013 0.9724
2.2586 -6.1241 -2.5014 0.9724
2.4782 -6.0388 -2.5015 0.9724
2.9074 -5.8448 -2.5016 0.9724
3.9098 -5.2290 -2.5021 0.9724
4.0961 -5.0847 -2.5022 0.9724
4.4520 -4.7760 -2.5021 0.9724
-4.4759 4.1397 -2.4952 0.9740
-4.6220 3.9752 -2.4951 0.9740
-5.0212 3.4503 -2.4935 0.9740
-5.1420 3.2666 -2.4932 0.9740
-5.2559 3.0786 -2.4930 0.9740
-5.6418 2.2896 -2.4919 0.9740
-5.7910 1.8763 -2.4914 0.9740
-5.8543 1.6660 -2.4911 0.9740
-6.0305 0.8062 -2.4901 0.9740
-6.0551 0.5880 -2.4899 0.9740
-6.0743 -0.2890 -2.4889 0.9741
-6.0593 -0.5079 -2.4886 0.9741
-6.0365 -0.7261 -2.4884 0.9741
-6.0058 -0.9434 -2.4882 0.9741
-5.9673 -1.1594 -2.4879 0.9741
-5.8055 -1.7969 -2.4873 0.9741
-5.7365 -2.0050 -2.4871 0.9741
-5.5761 -2.4131 -2.4867 0.9741
-5.3867 -2.8085 -2.4863 0.9741
-5.2815 -3.0008 -2.4861 0.9741
-5.1695 -3.1892 -2.4860 0.9741
-3.8955 -4.6891 -2.4950 0.9740
-3.7264 -4.8298 -2.4967 0.9740
-3.3719 -5.0913 -2.4993 0.9740
-3.1860 -5.2097 -2.4993 0.9740
-2.8022 -5.4262 -2.4995 0.9740
-2.1997 -5.6977 -2.4997 0.9739
-1.7832 -5.8419 -2.4998 0.9739
-1.5713 -5.9026 -2.4999 0.9739
-1.3573 -5.9556 -2.5000 0.9739
-1.1416 -6.0009 -2.5001 0.9739
-0.9244 -6.0384 -2.5002 0.9739
-0.4866 -6.0897 -2.5003 0.9739
-0.0461 -6.1094 -2.5005 0.9739
0.1743 -6.1073 -2.5006 0.9739
0.6143 -6.0792 -2.5007 0.9739
0.8333 -6.0533 -2.5008 0.9739
1.2678 -5.9779 -2.5010 0.9739
1.4827 -5.9284 -2.5011 0.9739
1.6957 -5.8713 -2.5012 0.9739
1.9065 -5.8065 -2.5013 0.9739
2.1148 -5.7341 -2.5013 0.9739
2.3204 -5.6543 -2.5014 0.9739
3.1100 -5.2624 -2.5018 0.9739
3.2980 -5.1469 -2.5018 0.9739
3.4816 -5.0247 -2.5019 0.9739
3.8352 -4.7608 -2.5021 0.9739
4.1687 -4.4721 -2.5022 0.9739
-4.2045 3.8887 -2.4960 0.9753
-4.3411 3.7336 -2.4954 0.9753
-4.4719 3.5736 -2.4948 0.9753
-4.7164 3.2408 -2.4940 0.9753
-5.0363 2.7108 -2.4926 0.9754
-5.2176 2.3401 -2.4922 0.9754
-5.2981 2.1501 -2.4919 0.9754
-5.3717 1.9574 -2.4917 0.9754
-5.5501 1.3651 -2.4909 0.9754
-5.7023 0.3467 -2.4897 0.9754
-5.7113 -0.0654 -2.4893 0.9754
-5.7047 -0.2714 -2.4890 0.9754
-5.6907 -0.4770 -2.4888 0.9754
-5.5610 -1.2902 -2.4879 0.9754
-5.4525 -1.6876 -2.4875 0.9754
-5.3877 -1.8831 -2.4873 0.9754
-4.9631 -2.8199 -2.4878 0.9754
-4.8587 -2.9975 -2.4881 0.9754
-4.7485 -3.1716 -2.4886 0.9754
-4.6317 -3.3414 -2.4890 0.9754
-4.3818 -3.6693 -2.4908 0.9754
-3.5030 -4.5404 -2.4993 0.9753
-3.3370 -4.6639 -2.4993 0.9753
-2.9921 -4.8927 -2.4994 0.9753
-2.2574 -5.2727 -2.4997 0.9753
-1.6746 -5.4862 -2.4999 0.9753
-1.2747 -5.5931 -2.5001 0.9753
-1.0721 -5.6355 -2.5001 0.9753
-0.8681 -5.6707 -2.5002 0.9753
-0.6630 -5.6986 -2.5003 0.9753
-0.2503 -5.7319 -2.5004 0.9753
0.3706 -5.7259 -2.5007 0.9753
0.5769 -5.7090 -2.5008 0.9753
0.9872 -5.6529 -2.5009 0.9753
1.5924 -5.5137 -2.5012 0.9753
1.7903 -5.4528 -2.5012 0.9753
2.3693 -5.2279 -2.5015 0.9753
2.7403 -5.0437 -2.5016 0.9753
3.2695 -4.7186 -2.5019 0.9753
3.7606 -4.3380 -2.5021 0.9753
-3.9602 3.6627 -2.4969 0.9765
-4.2118 3.3659 -2.4957 0.9765
-4.3294 3.2109 -2.4950 0.9765
-4.6492 2.7232 -2.4940 0.9765
-4.7431 2.5530 -2.4933 0.9765
-4.8317 2.3800 -2.4931 0.9765
-5.0576 1.8429 -2.4917 0.9766
-5.1764 1.4731 -2.4912 0.9766
-5.2257 1.2853 -2.4910 0.9766
-5.3038 0.9049 -2.4905 0.9766
-5.3325 0.7129 -2.4903 0.9766
-5.3542 0.5200 -2.4901 0.9766
-5.3690 0.3264 -2.4898 0.9766
-5.3768 0.1325 -2.4896 0.9766
-5.3776 -0.0616 -2.4894 0.9766
-5.3583 -0.4492 -2.4890 0.9766
-5.3381 -0.6421 -2.4888 0.9766
-5.3110 -0.8343 -2.4886 0.9766
-5.2362 -1.2149 -2.4882 0.9766
-5.0732 -1.7732 -2.4876 0.9766
-5.0069 -1.9555 -2.4881 0.9766
-4.7679 -2.4858 -2.4889 0.9766
-4.6763 -2.6570 -2.4896 0.9766
-4.5775 -2.8241 -2.4897 0.9766
-4.4743 -2.9884 -2.4906 0.9766
-4.2494 -3.3051 -2.4919 0.9766
-4.0034 -3.6060 -2.4940 0.9765
-3.5967 -4.0245 -2.4984 0.9765
-3.4503 -4.1532 -2.4993 0.9765
-3.2983 -4.2750 -2.4994 0.9765
-2.9816 -4.5020 -2.4995 0.9765
-1.7620 -5.1052 -2.4999 0.9765
-1.5767 -5.1655 -2.5000 0.9765
-1.3894 -5.2192 -2.5000 0.9765
-0.2357 -5.3968 -2.5005 0.9765
-0.0408 -5.4019 -2.5005 0.9765
0.1542 -5.4000 -2.5006 0.9765
0.5432 -5.3752 -2.5008 0.9765
0.7368 -5.3522 -2.5008 0.9765
1.1209 -5.2855 -2.5010 0.9765
1.6856 -5.1339 -2.5012 0.9765
1.8698 -5.0699 -2.5013 0.9765
2.5800 -4.7487 -2.5016 0.9765
3.0783 -4.4425 -2.5018 0.9765
3.3908 -4.2092 -2.5019 0.9765
3.5406 -4.0842 -2.5020 0.9765
3.6858 -3.9541 -2.5022 0.9765
-3.8597 3.3196 -2.4972 0.9776
-3.9762 3.1776 -2.4967 0.9776
-4.0872 3.0312 -2.4961 0.9776
-4.2934 2.7275 -2.4951 0.9776
-4.3881 2.5703 -2.4945 0.9776
-4.4771 2.4097 -2.4940 0.9776
-4.5604 2.2464 -2.4937 0.9776
-4.9330 1.2133 -2.4919 0.9776
-5.0053 0.8540 -2.4907 0.9776
-5.0322 0.6727 -2.4904 0.9776
-5.0741 0.1250 -2.4897 0.9776
-5.0749 -0.0582 -2.4895 0.9776
-5.0567 -0.4239 -2.4891 0.9776
-5.0129 -0.7875 -2.4891 0.9776
-4.9816 -0.9678 -2.4893 0.9776
-4.8995 -1.3248 -2.4896 0.9776
-4.8482 -1.5006 -2.4895 0.9776
-4.7906 -1.6744 -2.4893 0.9776
-4.6589 -2.0162 -2.4901 0.9776
-4.5027 -2.3476 -2.4908 0.9776
-4.4152 -2.5086 -2.4909 0.9776
-4.3236 -2.6674 -2.4920 0.9776
-4.1218 -2.9736 -2.4931 0.9776
-4.0137 -3.1218 -2.4942 0.9776
-3.9002 -3.2660 -2.4954 0.9776
-3.7816 -3.4061 -2.4965 0.9776
-3.3953 -3.7992 -2.4994 0.9776
-3.2561 -3.9193 -2.4994 0.9776
-2.9651 -4.1441 -2.4995 0.9776
-2.6586 -4.3473 -2.4996 0.9776
-1.8355 -4.7544 -2.4999 0.9775
-1.6628 -4.8176 -2.5000 0.9775
-1.3111 -4.9252 -2.5001 0.9775
-1.1326 -4.9695 -2.5002 0.9775
-0.9526 -5.0072 -2.5002 0.9775
-0.7713 -5.0385 -2.5003 0.9775
-0.5890 -5.0632 -2.5004 0.9775
-0.0385 -5.0976 -2.5006 0.9775
0.3292 -5.0874 -2.5007 0.9775
0.5126 -5.0723 -2.5008 0.9775
0.6953 -5.0507 -2.5009 0.9775
0.8771 -5.0224 -2.5009 0.9775
1.4148 -4.8987 -2.5011 0.9775
1.5906 -4.8446 -2.5012 0.9775
2.1050 -4.6448 -2.5014 0.9775
2.2713 -4.5659 -2.5015 0.9775
2.5948 -4.3905 -2.5016 0.9775
3.4779 -3.7311 -2.5020 0.9775
-3.7608 3.0054 -2.4975 0.9785
-3.8661 2.8672 -2.4970 0.9785
-4.3867 1.9674 -2.4941 0.9786
-4.6659 1.1476 -2.4927 0.9786
-4.7603 0.6364 -2.4915 0.9786
-4.8002 0.1183 -2.4910 0.9786
-4.7839 -0.4010 -2.4905 0.9786
-4.7662 -0.5734 -2.4904 0.9786
-4.7426 -0.7450 -2.4906 0.9786
-4.7131 -0.9157 -2.4908 0.9786
-4.6347 -1.2532 -2.4908 0.9786
-4.5863 -1.4195 -2.4906 0.9786
-4.1785 -2.3741 -2.4932 0.9786
-4.0907 -2.5237 -2.4935 0.9786
-3.7982 -2.9541 -2.4962 0.9786
-3.4610 -3.3514 -2.4994 0.9785
-3.3379 -3.4742 -2.4994 0.9785
-2.8037 -3.9185 -2.4996 0.9785
-2.5139 -4.1106 -2.4997 0.9785
-2.3640 -4.1987 -2.4997 0.9785
-2.2110 -4.2814 -2.4998 0.9785
-1.7355 -4.4955 -2.5000 0.9785
-1.4069 -4.6092 -2.5001 0.9785
-1.0709 -4.6989 -2.5002 0.9785
-0.7293 -4.7641 -2.5003 0.9785
-0.5570 -4.7875 -2.5004 0.9785
-0.2103 -4.8154 -2.5005 0.9785
0.3113 -4.8103 -2.5007 0.9785
0.4847 -4.7961 -2.5008 0.9785
0.8293 -4.7489 -2.5009 0.9785
1.0002 -4.7160 -2.5010 0.9785
1.3377 -4.6319 -2.5011 0.9785
1.6683 -4.5236 -2.5013 0.9785
1.8305 -4.4606 -2.5013 0.9785
1.9903 -4.3917 -2.5014 0.9785
2.3019 -4.2370 -2.5015 0.9785
2.6017 -4.0602 -2.5017 0.9785
2.7465 -3.9638 -2.5017 0.9785
2.8878 -3.8622 -2.5018 0.9785
3.0253 -3.7555 -2.5018 0.9785
3.2885 -3.5278 -2.5020 0.9785
-3.3508 3.0991 -2.4999 0.9794
-3.4602 2.9760 -2.4997 0.9794
-3.5642 2.8483 -2.4989 0.9794
-3.6635 2.7170 -2.4981 0.9794
-4.0874 2.0134 -2.4956 0.9794
-4.3317 1.4035 -2.4939 0.9794
-4.3790 1.2462 -2.4936 0.9795
-4.4867 0.7655 -2.4929 0.9795
-4.5483 0.1121 -2.4919 0.9795
-4.5492 -0.0521 -2.4918 0.9795
-4.5441 -0.2162 -2.4916 0.9795
-4.5334 -0.3800 -2.4917 0.9795
-4.5169 -0.5433 -2.4918 0.9795
-4.4947 -0.7061 -2.4919 0.9795
-4.4665 -0.8678 -2.4921 0.9795
-4.3920 -1.1875 -2.4919 0.9795
-4.2963 -1.5017 -2.4927 0.9795
-4.0383 -2.1055 -2.4944 0.9794
-3.8780 -2.3925 -2.4957 0.9794
-3.7902 -2.5316 -2.4964 0.9794
-3.3907 -3.0542 -2.4994 0.9794
-3.1618 -3.2908 -2.4995 0.9794
-2.9163 -3.5104 -2.4996 0.9794
-2.7878 -3.6133 -2.4996 0.9794
-2.6557 -3.7117 -2.4997 0.9794
-2.5201 -3.8051 -2.4997 0.9794
-2.0943 -4.0554 -2.4998 0.9794
-1.9467 -4.1284 -2.4999 0.9794
-1.7965 -4.1960 -2.4999 0.9794
-1.0144 -4.4508 -2.5002 0.9794
-0.3636 -4.5509 -2.5005 0.9794
-0.1992 -4.5612 -2.5005 0.9794
-0.0345 -4.5655 -2.5006 0.9794
0.1303 -4.5639 -2.5007 0.9794
0.2949 -4.5563 -2.5007 0.9794
0.6227 -4.5234 -2.5009 0.9794
1.1079 -4.4300 -2.5011 0.9794
1.8852 -4.1598 -2.5014 0.9794
2.4642 -3.8457 -2.5016 0.9794
2.6014 -3.7544 -2.5017 0.9794
2.9921 -3.4515 -2.5018 0.9794
-3.1788 2.9400 -2.4999 0.9802
-3.4775 2.5791 -2.4996 0.9802
-3.8085 2.0499 -2.4971 0.9802
-3.8792 1.9108 -2.4967 0.9802
-3.9450 1.7693 -2.4962 0.9802
-4.1114 1.3321 -2.4952 0.9802
-4.3175 0.1064 -2.4935 0.9802
-4.2876 -0.5158 -2.4933 0.9803
-4.2069 -0.9760 -2.4934 0.9803
-4.1697 -1.1274 -2.4938 0.9802
-4.0779 -1.4252 -2.4940 0.9802
-3.6815 -2.2712 -2.4975 0.9802
-3.5982 -2.4033 -2.4982 0.9802
-3.5108 -2.5327 -2.4994 0.9802
-3.3191 -2.7794 -2.4995 0.9802
-3.2167 -2.8974 -2.4995 0.9802
-3.1102 -3.0116 -2.4995 0.9802
-2.9995 -3.1219 -2.4996 0.9802
-2.7666 -3.3302 -2.4996 0.9802
-2.5194 -3.5212 -2.4997 0.9802
-2.3907 -3.6098 -2.4998 0.9802
-2.2590 -3.6938 -2.4998 0.9802
-2.1243 -3.7729 -2.4999 0.9802
-1.9868 -3.8472 -2.4999 0.9802
-1.8467 -3.9165 -2.4999 0.9802
-1.7042 -3.9806 -2.5000 0.9802
-1.2642 -4.1417 -2.5002 0.9802
-0.6553 -4.2809 -2.5004 0.9802
-0.3449 -4.3172 -2.5005 0.9802
-0.0327 -4.3311 -2.5006 0.9802
0.1236 -4.3295 -2.5007 0.9802
0.2797 -4.3224 -2.5007 0.9802
0.4355 -4.3096 -2.5008 0.9802
0.5907 -4.2912 -2.5009 0.9802
0.7452 -4.2671 -2.5009 0.9802
0.8987 -4.2376 -2.5010 0.9802
1.3514 -4.1160 -2.5012 0.9802
1.4991 -4.0646 -2.5012 0.9802
1.7884 -3.9461 -2.5013 0.9802
1.9296 -3.8791 -2.5014 0.9802
2.2044 -3.7300 -2.5015 0.9802
2.3376 -3.6482 -2.5016 0.9802
2.5948 -3.4703 -2.5017 0.9802
2.7183 -3.3744 -2.5017 0.9802
2.8384 -3.2742 -2.5018 0.9802
2.9547 -3.1698 -2.5019 0.9802
