ply
format ascii 1.0
element vertex 1211
property float32 x
property float32 y
property float32 z
property float32 I
end_header
29.7876 14.1822 5.8173 0.8746
27.3526 14.2503 5.4383 0.8823
14.9781 8.5011 3.0368 0.9324
21.6117 14.4109 4.5802 0.8999
17.3938 14.5295 3.9962 0.9121
16.4988 17.1149 4.1917 0.9080
16.5937 18.4998 4.3820 0.9040
16.6386 19.9477 4.5803 0.8999
16.6880 21.5351 4.8039 0.8952
18.8789 28.3560 6.0067 0.8708
16.9496 29.9136 6.0624 0.8697
17.0387 32.7622 6.5114 0.8607
17.1423 36.0712 7.0420 0.8503
17.4892 44.8559 8.4892 0.8224
-6.9895 28.6661 5.2027 0.8871
-10.6015 26.3205 5.0033 0.8911
-7.7670 17.4466 3.3674 0.9254
-7.8129 15.9785 3.1362 0.9303
-7.8529 14.6973 2.9383 0.9346
-7.9196 12.5596 2.6181 0.9415
-9.0860 11.4591 2.5786 0.9423
-10.5524 11.5042 2.7526 0.9386
-11.3647 11.5292 2.8545 0.9364
-13.1905 11.5856 3.0956 0.9312
-14.2814 11.6620 3.2511 0.9278
-16.7179 11.7568 3.6038 0.9203
-18.1957 11.8425 3.8281 0.9156
-21.5386 11.9093 4.3397 0.9049
-23.7005 12.0138 4.6853 0.8977
-26.1392 12.0899 5.0782 0.8896
46.5549 14.4322 7.4668 0.8210
32.5730 14.0961 5.4372 0.8662
29.7720 14.1748 5.0515 0.8751
27.3298 14.2383 4.7209 0.8828
14.9606 9.9759 2.7547 0.9298
20.0665 14.4484 3.7880 0.9048
17.3875 14.5243 3.4707 0.9124
16.4736 14.7975 3.3923 0.9143
16.5087 15.9372 3.5152 0.9113
16.6812 21.5262 4.1720 0.8957
18.9198 28.4176 5.2300 0.8710
17.4619 28.3886 5.1058 0.8738
17.0293 32.7439 5.6540 0.8613
-5.3892 26.1527 4.0906 0.8976
-7.3976 26.2093 4.1720 0.8957
-8.3592 26.0034 4.1843 0.8954
-10.2673 25.4907 4.2099 0.8948
-7.8169 15.9867 2.7262 0.9305
-7.8567 14.7044 2.5540 0.9348
-7.8918 13.5731 2.4052 0.9384
-9.0831 11.4555 2.2396 0.9426
-13.1856 11.5813 2.6885 0.9314
-14.2216 11.6132 2.8128 0.9284
-15.3595 11.6482 2.9531 0.9250
-16.7106 11.7517 3.1296 0.9207
-18.1874 11.8370 3.3243 0.9159
-19.6605 11.8126 3.5137 0.9114
45.3541 14.0599 6.1833 0.8257
45.4091 15.8866 6.2647 0.8236
45.1995 17.6604 6.3192 0.8222
32.7083 14.1546 4.6410 0.8661
29.7565 14.1675 4.2917 0.8755
27.4548 14.3035 4.0313 0.8826
25.1899 14.2970 3.7718 0.8897
23.4032 14.4185 3.5795 0.8950
21.5940 14.3991 3.3798 0.9006
16.4684 17.0833 3.0900 0.9087
14.9989 26.4709 3.9620 0.8845
14.8791 28.6097 4.1993 0.8780
17.1218 36.0280 5.1944 0.8514
17.2417 39.9203 5.6626 0.8391
-5.2070 39.4142 5.1771 0.8518
-5.1279 30.3671 4.0104 0.8832
-5.3879 26.1463 3.4763 0.8979
-6.9542 28.5211 3.8229 0.8883
-8.4359 26.2420 3.5895 0.8948
-7.7755 17.4659 2.4896 0.9258
-7.8209 15.9949 2.3185 0.9307
-7.8954 13.5792 2.0455 0.9386
-7.9264 12.5704 1.9352 0.9418
-7.9543 11.6636 1.8384 0.9446
-8.4134 11.4317 1.8484 0.9444
-9.7890 11.4735 1.9640 0.9410
-12.2318 11.5480 2.1906 0.9344
-14.2160 11.6087 2.3900 0.9286
-15.3532 11.6434 2.5092 0.9252
-21.5502 11.9158 3.2067 0.9054
-26.1075 12.0753 3.7458 0.8904
45.3427 14.0564 5.0976 0.8262
45.3975 15.8825 5.1646 0.8241
29.7411 14.1602 3.5372 0.8759
23.2834 14.3447 2.9366 0.8958
20.0510 14.4372 2.6532 0.9054
18.6546 14.4772 2.5356 0.9094
16.4974 15.9263 2.4623 0.9119
16.5347 17.1521 2.5583 0.9086
16.5752 18.4792 2.6656 0.9050
16.6676 21.5087 2.9220 0.8963
20.3386 28.2896 3.7414 0.8692
17.4524 28.3731 3.5770 0.8746
14.9949 26.4638 3.2662 0.8848
14.9594 31.4778 3.7424 0.8692
15.1839 38.9433 4.4884 0.8452
-5.2080 39.4220 4.2700 0.8522
-5.1349 30.4083 3.3115 0.8833
-7.3963 26.2045 2.9238 0.8962
-9.4630 26.1701 2.9883 0.8941
-7.8642 14.7185 1.7920 0.9351
-7.9298 12.5757 1.5965 0.9419
-7.6860 11.2701 1.4648 0.9466
-9.4530 10.3056 1.5017 0.9453
-10.7475 9.4398 1.5360 0.9441
-11.5915 9.4655 1.6070 0.9416
-15.3470 11.6387 2.0683 0.9254
-16.6044 11.6770 2.1798 0.9216
45.3313 14.0529 4.0176 0.8265
45.4422 17.7553 4.1300 0.8221
32.3452 13.9975 2.9835 0.8681
29.7259 14.1529 2.7870 0.8762
22.8010 11.8789 2.1764 0.9019
22.8027 14.0485 2.2672 0.8981
21.5765 14.3875 2.1953 0.9011
20.0432 14.4317 2.0908 0.9056
18.6477 14.4719 1.9982 0.9096
17.3690 14.5088 1.9158 0.9132
16.4574 14.7829 1.8727 0.9150
16.4918 15.9209 1.9405 0.9121
16.5289 17.1461 2.0161 0.9088
16.6129 19.9168 2.1955 0.9011
16.6609 21.5001 2.3026 0.8966
17.4477 28.3655 2.8191 0.8749
14.9506 31.4593 2.9486 0.8695
15.1971 38.9771 3.5414 0.8454
13.6681 39.1577 3.5109 0.8466
12.8285 41.4866 3.6760 0.8400
10.8994 40.3288 3.5364 0.8456
9.1565 39.4581 3.4290 0.8499
7.5281 38.7088 3.3382 0.8536
5.9949 38.0803 3.2633 0.8566
4.5379 37.5680 3.2034 0.8591
1.7822 36.8439 3.1226 0.8624
-2.1559 36.2068 3.0704 0.8645
-5.3853 26.1337 2.2588 0.8984
-7.0146 28.7688 2.5067 0.8879
-6.8932 24.4222 2.1482 0.9031
-8.4317 26.2289 2.3323 0.8953
-9.8707 24.5060 2.2365 0.8994
-7.8289 16.0112 1.5087 0.9310
-7.8680 14.7255 1.4133 0.9352
-7.2001 10.5577 1.0818 0.9500
-7.1485 9.7131 1.0209 0.9527
-11.3491 11.5135 1.3686 0.9372
-12.2232 11.5398 1.4230 0.9347
-13.1710 11.5685 1.4840 0.9320
-14.0851 11.5017 1.5394 0.9296
-14.5809 11.0578 1.5491 0.9292
-15.0636 10.5934 1.5589 0.9287
-15.5320 10.1088 1.5688 0.9283
-15.9853 9.6044 1.5787 0.9279
-21.5651 11.9240 2.0860 0.9058
45.3200 14.0494 2.9423 0.8268
45.3722 15.8737 2.9808 0.8248
27.1450 11.7471 1.8341 0.8882
26.4655 12.6006 1.8177 0.8892
22.7901 11.8732 1.5935 0.9021
21.5167 12.2122 1.5342 0.9056
21.5678 14.3816 1.6075 0.9013
20.0356 14.4261 1.5310 0.9058
16.4520 14.7781 1.3713 0.9152
16.5630 18.4656 1.5382 0.9054
20.3271 28.2737 2.1593 0.8697
18.8989 28.3861 2.1147 0.8723
17.4430 28.3578 2.0645 0.8751
14.8548 28.5629 1.9964 0.8790
14.9383 31.4335 2.1581 0.8698
12.4134 31.8375 2.1190 0.8720
11.0313 31.6036 2.0757 0.8745
7.2090 31.0658 1.9776 0.8800
6.0173 30.9401 1.9545 0.8813
3.7140 30.7472 1.9205 0.8833
1.4811 30.6173 1.9008 0.8844
-0.7192 30.5510 1.8950 0.8847
-3.9338 29.7768 1.8625 0.8866
-5.0345 29.8140 1.8750 0.8859
-7.0208 28.7943 1.8379 0.8880
-6.8915 24.4163 1.5732 0.9033
-8.8276 24.4128 1.6098 0.9012
-9.8453 24.4431 1.6341 0.8998
-7.9315 13.6414 0.9785 0.9387
-6.7749 10.7442 0.7876 0.9504
-6.7307 9.8694 0.7408 0.9533
-9.0720 11.4414 0.9055 0.9432
-9.6956 11.3640 0.9263 0.9419
-10.5351 11.4853 0.9664 0.9394
-13.1662 11.5642 1.0866 0.9322
-15.3346 11.6294 1.1934 0.9258
-16.5432 11.6339 1.2541 0.9221
-19.7453 11.8635 1.4284 0.9118
-23.6349 11.9806 1.6432 0.8992
-22.0522 10.1996 1.5067 0.9072
24.8020 11.8086 1.0832 0.8959
21.8022 12.3742 0.9885 0.9045
21.2998 13.1226 0.9865 0.9047
21.0198 14.0162 0.9962 0.9038
17.3568 14.4986 0.8918 0.9134
16.4466 14.7733 0.8717 0.9153
16.5570 18.4589 0.9778 0.9055
16.6002 19.9016 1.0219 0.9015
15.1450 22.7478 1.0776 0.8964
15.6165 25.3884 1.1753 0.8875
14.7463 26.0249 1.1795 0.8871
14.4471 27.7790 1.2346 0.8822
13.1437 27.6571 1.2074 0.8846
4.3681 27.7466 1.1076 0.8937
1.3381 27.6613 1.0920 0.8951
0.3428 27.6442 1.0901 0.8952
-0.6505 27.6325 1.0899 0.8953
-1.6450 27.6262 1.0913 0.8951
-3.5737 27.0511 1.0759 0.8965
-4.5719 27.0747 1.0827 0.8959
-5.3827 26.1212 1.0516 0.8987
-9.8428 24.4369 1.0388 0.8999
-7.7925 17.5039 0.7555 0.9262
-7.8368 16.0273 0.7035 0.9311
-7.8754 14.7395 0.6590 0.9353
-6.3568 10.9330 0.4987 0.9506
-6.3230 10.0275 0.4674 0.9537
-6.3413 9.2985 0.4438 0.9559
-8.4034 11.4181 0.5590 0.9448
-9.6925 11.3605 0.5888 0.9420
-12.2822 11.5955 0.6660 0.9346
-13.1614 11.5600 0.6907 0.9323
-14.1942 11.5908 0.7226 0.9293
-15.3285 11.6247 0.7586 0.9259
-16.5939 11.6696 0.7999 0.9220
-18.1464 11.8104 0.8537 0.9170
-19.6836 11.8265 0.9054 0.9122
-22.0578 10.2022 0.9583 0.9073
45.2975 14.0424 0.8011 0.8272
45.3134 15.8531 0.8109 0.8253
45.4074 17.7416 0.8235 0.8228
32.6183 14.1157 0.6004 0.8675
27.2693 14.2069 0.5194 0.8843
25.1333 14.2648 0.4882 0.8908
23.2545 14.3269 0.4614 0.8965
21.5505 14.3701 0.4375 0.9016
18.7151 14.5242 0.4002 0.9096
16.4751 15.9049 0.3868 0.9125
16.4622 17.0769 0.4007 0.9095
16.5939 19.8940 0.4376 0.9016
16.3248 22.7068 0.4724 0.8942
15.1409 22.7416 0.4615 0.8965
14.8328 24.1144 0.4782 0.8929
14.3454 25.3174 0.4915 0.8901
12.2338 25.7425 0.4814 0.8922
11.1038 25.7090 0.4730 0.8940
7.9242 25.6264 0.4531 0.8982
5.9370 25.5843 0.4437 0.9003
4.9723 25.5668 0.4400 0.9010
1.2344 25.5173 0.4315 0.9028
0.3163 25.5098 0.4309 0.9030
-1.5184 25.5004 0.4315 0.9029
-3.3065 25.0281 0.4264 0.9039
-4.2282 25.0391 0.4289 0.9034
-5.1624 25.0520 0.4321 0.9027
-5.3380 21.8927 0.3806 0.9138
-5.6276 15.5631 0.2795 0.9359
-7.3581 18.2680 0.3327 0.9242
-7.8407 16.0354 0.3015 0.9311
-5.9327 11.1036 0.2127 0.9509
-5.9225 10.1862 0.1990 0.9540
-5.9139 9.3788 0.1873 0.9566
-7.9703 11.6870 0.2390 0.9450
-9.6895 11.3569 0.2522 0.9420
-11.2401 11.4029 0.2705 0.9380
-18.1383 11.8051 0.3656 0.9171
-19.6889 11.8296 0.3879 0.9122
-21.5323 11.9059 0.4156 0.9063
45.2863 14.0389 -0.2669 0.8272
45.2841 15.8429 -0.2701 0.8254
32.6005 14.1080 -0.2000 0.8675
27.2822 14.2136 -0.1732 0.8842
23.2642 14.3329 -0.1538 0.8965
21.5419 14.3644 -0.1458 0.9016
18.7083 14.5189 -0.1333 0.9096
14.5486 15.0918 -0.1180 0.9196
14.6207 17.5285 -0.1285 0.9127
14.6619 18.9205 -0.1348 0.9087
14.7074 20.4570 -0.1419 0.9041
14.3933 23.3998 -0.1547 0.8959
12.3940 23.8313 -0.1512 0.8981
8.3222 23.8422 -0.1422 0.9039
7.3729 23.8434 -0.1405 0.9050
5.5332 23.8442 -0.1378 0.9067
4.6372 23.8438 -0.1368 0.9074
2.8799 23.8416 -0.1352 0.9084
2.0139 23.8407 -0.1347 0.9087
0.2956 23.8387 -0.1342 0.9090
-0.5612 23.8370 -0.1342 0.9090
-2.2808 23.8321 -0.1348 0.9087
-5.4861 17.0658 -0.1009 0.9308
-7.3562 18.2634 -0.1109 0.9243
-7.8009 17.5229 -0.1080 0.9261
-7.8447 16.0435 -0.1005 0.9311
-7.9734 11.6917 -0.0797 0.9450
-9.6865 11.3533 -0.0840 0.9420
-13.1518 11.5516 -0.0986 0.9324
-13.9136 9.7847 -0.0958 0.9342
-15.0871 9.8193 -0.1013 0.9305
-16.4077 9.8582 -0.1078 0.9263
-18.1029 10.0096 -0.1165 0.9206
-22.0691 10.2074 -0.1369 0.9073
45.2750 14.0354 -1.3347 0.8272
25.5418 12.1608 -0.7966 0.8930
20.0050 14.4041 -0.6941 0.9061
17.3386 14.4834 -0.6361 0.9136
16.4307 14.7589 -0.6219 0.9154
16.4641 15.8942 -0.6444 0.9125
14.6560 18.9129 -0.6737 0.9087
14.7012 20.4484 -0.7091 0.9041
10.6006 22.3060 -0.6954 0.9059
8.7169 22.3570 -0.6757 0.9084
7.8111 22.3781 -0.6674 0.9095
4.3636 22.4372 -0.6436 0.9126
3.5336 22.4461 -0.6398 0.9131
2.7121 22.4528 -0.6368 0.9135
1.8970 22.4573 -0.6346 0.9138
1.0865 22.4597 -0.6332 0.9139
0.2785 22.4600 -0.6325 0.9140
-0.5287 22.4583 -0.6326 0.9140
-3.7266 22.0684 -0.6302 0.9143
-4.5465 22.0632 -0.6343 0.9138
-5.4268 19.2269 -0.5625 0.9232
-5.4899 17.0778 -0.5051 0.9307
-7.8051 17.5324 -0.5404 0.9261
-7.8486 16.0516 -0.5031 0.9310
-6.0479 11.3190 -0.3614 0.9499
-7.9200 13.6216 -0.4437 0.9389
-8.3960 11.4081 -0.3988 0.9449
-13.9853 9.8351 -0.4814 0.9339
-15.1406 9.8541 -0.5087 0.9303
-19.8897 10.0821 -0.6279 0.9146
-22.0747 10.2100 -0.6848 0.9073
38.8387 13.5879 -2.0867 0.8481
27.7418 12.0054 -1.5330 0.8860
25.3651 12.0767 -1.4247 0.8936
23.6630 12.3280 -1.3531 0.8986
23.2880 13.2175 -1.3580 0.8983
21.5246 14.3529 -1.3120 0.9016
19.9974 14.3986 -1.2497 0.9060
16.4253 14.7541 -1.1197 0.9154
16.4585 15.8888 -1.1602 0.9124
14.6096 17.5151 -1.1567 0.9127
14.6502 18.9054 -1.2130 0.9087
14.6699 20.4049 -1.2745 0.9042
13.6278 20.4689 -1.2471 0.9062
12.7258 20.6888 -1.2318 0.9073
11.8590 20.9293 -1.2200 0.9081
10.9125 20.9826 -1.1994 0.9096
9.1019 21.0739 -1.1642 0.9122
8.2318 21.1126 -1.1492 0.9132
7.3814 21.1471 -1.1359 0.9142
5.7306 21.2039 -1.1139 0.9158
4.9258 21.2267 -1.1051 0.9164
1.0298 21.2887 -1.0809 0.9182
0.2640 21.2913 -1.0799 0.9183
-0.5012 21.2906 -1.0800 0.9182
-2.8099 21.2693 -1.0880 0.9177
-3.5306 20.9079 -1.0753 0.9186
-5.0911 20.8802 -1.0899 0.9175
-5.4311 19.2420 -1.0140 0.9230
-7.3525 18.2542 -0.9980 0.9242
-7.8094 17.5419 -0.9738 0.9260
-7.8526 16.0597 -0.9066 0.9309
-7.8903 14.7673 -0.8491 0.9351
-7.9236 13.6277 -0.7994 0.9388
-7.6091 9.5965 -0.6211 0.9521
-8.1945 9.6046 -0.6403 0.9507
-11.3263 11.4903 -0.8182 0.9374
-10.2698 9.6956 -0.7163 0.9450
-13.1422 11.5432 -0.8871 0.9323
-15.3040 11.6062 -0.9741 0.9260
40.3586 7.8790 -3.0150 0.8480
37.1489 10.0685 -2.8221 0.8570
36.3171 11.2584 -2.7879 0.8586
28.4037 11.0979 -2.2359 0.8849
24.2168 11.5299 -1.9666 0.8980
22.5828 11.7653 -1.8671 0.9029
20.9624 11.8975 -1.7673 0.9079
20.8197 13.8828 -1.8348 0.9045
19.9897 14.3931 -1.8061 0.9059
17.3265 14.4733 -1.6553 0.9134
16.4200 14.7494 -1.6183 0.9153
16.4530 15.8835 -1.6768 0.9124
14.5334 15.0760 -1.5354 0.9194
14.5672 16.2406 -1.5996 0.9162
14.6444 18.8979 -1.7530 0.9086
12.7985 19.2232 -1.6933 0.9115
12.0986 19.6692 -1.6932 0.9115
11.1896 19.7480 -1.6643 0.9130
7.7956 19.9941 -1.5735 0.9175
6.9951 20.0402 -1.5563 0.9184
4.6751 20.1465 -1.5164 0.9204
1.7080 20.2198 -1.4878 0.9218
0.2508 20.2290 -1.4834 0.9221
-0.4762 20.2270 -1.4835 0.9221
-1.2040 20.2205 -1.4852 0.9220
-2.6678 20.1941 -1.4935 0.9216
-4.8187 19.7628 -1.4915 0.9217
-5.4977 17.1019 -1.3171 0.9305
-5.6219 15.5475 -1.2122 0.9358
-7.8566 16.0678 -1.3114 0.9308
-7.8940 14.7743 -1.2282 0.9350
-8.3911 11.4013 -1.0380 0.9448
-9.5077 9.6453 -0.9930 0.9471
-10.2248 9.6532 -1.0310 0.9452
-10.9953 9.6574 -1.0730 0.9430
-12.8034 9.7098 -1.1782 0.9376
-13.8501 9.7400 -1.2415 0.9343
-16.3302 9.8117 -1.3969 0.9264
-21.7723 10.0701 -1.7589 0.9083
29.4697 5.7531 -2.8826 0.8863
29.3387 6.8303 -2.8920 0.8860
29.1632 7.9041 -2.9008 0.8857
25.8468 10.0989 -2.6641 0.8945
24.9214 10.7848 -2.6070 0.8966
23.0618 10.9800 -2.4522 0.9025
18.7616 9.7745 -2.0310 0.9185
20.7526 11.7785 -2.2909 0.9086
20.7825 12.8039 -2.3435 0.9066
20.8137 13.8788 -2.4017 0.9044
18.6810 14.4977 -2.2702 0.9094
16.4146 14.7446 -2.1183 0.9152
14.5984 17.5018 -2.1880 0.9125
13.6972 17.6755 -2.1468 0.9141
11.3499 18.4519 -2.0798 0.9166
10.5149 18.5571 -2.0477 0.9179
5.1430 19.0295 -1.8925 0.9238
-0.4511 19.1608 -1.8400 0.9259
-1.8312 19.1339 -1.8453 0.9257
-3.8441 18.6548 -1.8286 0.9263
-5.5016 17.1140 -1.7258 0.9303
-5.6205 15.5437 -1.5868 0.9357
-7.3488 18.2449 -1.8883 0.9240
-7.8606 16.0760 -1.7180 0.9306
-7.6977 11.2873 -1.3116 0.9466
-7.0466 9.5745 -1.1413 0.9534
-8.1671 9.5725 -1.2080 0.9507
-8.7973 9.5907 -1.2494 0.9490
-10.2015 9.6312 -1.3469 0.9452
-10.9912 9.6539 -1.4044 0.9429
-11.8526 9.6787 -1.4691 0.9404
-13.8442 9.7359 -1.6249 0.9343
-15.0104 9.7694 -1.7194 0.9306
23.0385 5.3636 -2.8098 0.9091
22.6989 7.0367 -2.8229 0.9087
20.8741 8.1559 -2.6621 0.9137
20.6038 8.9163 -2.6668 0.9135
20.3024 9.6662 -2.6710 0.9134
18.6413 9.7118 -2.4968 0.9188
18.2321 12.1574 -2.6030 0.9155
17.7964 12.8138 -2.6049 0.9155
16.8455 14.0715 -2.6073 0.9154
14.2026 15.8340 -2.5266 0.9179
13.3954 16.0594 -2.4841 0.9192
12.6131 16.2765 -2.4460 0.9204
12.1412 16.8875 -2.4706 0.9196
6.9107 17.7244 -2.2598 0.9262
6.2119 17.7965 -2.2391 0.9269
5.5224 17.8591 -2.2205 0.9275
4.8413 17.9133 -2.2042 0.9280
4.1676 17.9593 -2.1900 0.9284
3.5001 17.9972 -2.1779 0.9288
2.1803 18.0500 -2.1597 0.9294
1.5260 18.0650 -2.1535 0.9296
0.2241 18.0728 -2.1470 0.9298
-0.4253 18.0655 -2.1465 0.9298
-1.0748 18.0509 -2.1480 0.9297
-3.6018 17.4789 -2.1199 0.9306
-7.3469 18.2402 -2.3358 0.9238
-7.9016 14.7884 -1.9917 0.9347
-6.5258 11.2237 -1.5422 0.9490
-7.6416 10.3829 -1.5314 0.9494
-7.6429 9.6391 -1.4612 0.9517
-8.1645 9.5695 -1.4942 0.9506
-9.4698 9.6070 -1.6024 0.9471
-10.1979 9.6278 -1.6659 0.9451
-10.9872 9.6504 -1.7371 0.9428
-11.8480 9.6750 -1.8170 0.9402
-15.0037 9.7650 -2.1265 0.9304
-16.7246 9.2475 -2.2701 0.9259
-17.6369 8.1574 -2.3082 0.9247
18.8141 5.0992 -2.7619 0.9243
18.2497 7.1305 -2.7762 0.9239
18.0077 7.7929 -2.7802 0.9238
16.8345 8.0151 -2.6418 0.9274
16.1002 9.1379 -2.6230 0.9279
15.8400 9.7588 -2.6361 0.9276
15.1725 10.1172 -2.5839 0.9290
14.2074 11.0259 -2.5481 0.9299
14.2322 11.8885 -2.6275 0.9278
14.2585 12.8078 -2.7156 0.9255
13.9782 13.4944 -2.7529 0.9245
13.3630 13.8619 -2.7281 0.9252
12.7283 14.1904 -2.7010 0.9259
10.4531 15.7004 -2.6725 0.9266
9.0862 16.0358 -2.6115 0.9282
6.4417 16.5216 -2.5126 0.9309
5.7980 16.6107 -2.4928 0.9314
3.9016 16.8130 -2.4455 0.9326
3.2787 16.8588 -2.4335 0.9330
2.6596 16.8939 -2.4232 0.9332
1.4307 16.9368 -2.4083 0.9336
0.8197 16.9448 -2.4037 0.9338
0.2101 16.9438 -2.4009 0.9338
-1.6155 16.8803 -2.4027 0.9338
-2.2247 16.8396 -2.4067 0.9337
-3.3489 16.2513 -2.3510 0.9352
-3.9428 16.1704 -2.3583 0.9350
-5.6177 15.5358 -2.3407 0.9354
-7.0185 15.7653 -2.4451 0.9327
-7.9054 14.7956 -2.3768 0.9345
-7.1491 11.3377 -1.8991 0.9473
-7.3285 9.9576 -1.7518 0.9513
-8.1619 9.5665 -1.7818 0.9505
-10.9832 9.6468 -2.0712 0.9427
-12.7879 9.6980 -2.2740 0.9372
-14.7141 8.1358 -2.3823 0.9343
-15.2541 7.7323 -2.4232 0.9332
-15.4704 7.1554 -2.4151 0.9335
16.2182 3.1662 -2.7222 0.9352
15.6975 5.4918 -2.7397 0.9348
14.8632 7.7435 -2.7609 0.9343
13.9494 9.3016 -2.7621 0.9343
13.5415 9.7502 -2.7489 0.9346
12.8902 10.7675 -2.7669 0.9342
11.0866 13.2914 -2.8513 0.9322
9.9486 13.8378 -2.8076 0.9332
9.3765 14.0835 -2.7873 0.9337
8.2281 14.5213 -2.7496 0.9346
7.6523 14.7138 -2.7322 0.9350
7.0759 14.8892 -2.7157 0.9354
6.4991 15.0475 -2.7002 0.9357
5.9222 15.1891 -2.6857 0.9360
4.7690 15.4227 -2.6594 0.9367
4.1932 15.5151 -2.6477 0.9369
3.6181 15.5916 -2.6368 0.9372
3.0440 15.6522 -2.6268 0.9374
2.4710 15.6971 -2.6178 0.9376
1.3295 15.7406 -2.6023 0.9380
0.7613 15.7393 -2.5959 0.9381
0.1950 15.7229 -2.5904 0.9382
-0.3694 15.6914 -2.5857 0.9384
-1.4944 15.6149 -2.5842 0.9384
-2.6267 15.5548 -2.5988 0.9381
-4.1552 14.7217 -2.5200 0.9399
-5.2258 14.4519 -2.5317 0.9396
-6.9497 13.0069 -2.4294 0.9420
-7.3890 12.7083 -2.4217 0.9421
-6.9359 10.1703 -2.0280 0.9513
-8.7886 9.5813 -2.1419 0.9487
-9.4634 9.6004 -2.2208 0.9468
-10.1907 9.6210 -2.3088 0.9448
-10.6551 9.3586 -2.3363 0.9441
-11.5726 8.1383 -2.3307 0.9443
-12.4715 8.1169 -2.4514 0.9415
14.0585 2.7445 -2.6923 0.9434
13.6469 4.7744 -2.7175 0.9429
13.4943 5.2725 -2.7231 0.9427
13.1306 6.2516 -2.7335 0.9425
12.4410 7.6647 -2.7466 0.9423
12.1740 8.1177 -2.7503 0.9422
11.9612 8.6123 -2.7704 0.9418
11.8559 9.2010 -2.8208 0.9407
11.5549 9.6521 -2.8299 0.9406
11.2207 10.0790 -2.8350 0.9405
10.4996 10.8916 -2.8436 0.9403
10.1139 11.2757 -2.8471 0.9402
9.7124 11.6440 -2.8500 0.9402
7.4464 13.1417 -2.8391 0.9404
6.9326 13.3301 -2.8241 0.9407
6.4146 13.4977 -2.8090 0.9410
5.8946 13.6475 -2.7942 0.9413
4.8533 13.9041 -2.7681 0.9418
3.8134 14.1100 -2.7473 0.9422
2.7745 14.2663 -2.7317 0.9426
2.2553 14.3261 -2.7259 0.9427
1.7362 14.3739 -2.7214 0.9428
1.2172 14.4096 -2.7181 0.9428
0.6981 14.4312 -2.7157 0.9429
-0.3397 14.4281 -2.7127 0.9430
-1.3755 14.3730 -2.7139 0.9429
-1.8913 14.3161 -2.7143 0.9429
-2.9170 14.1557 -2.7166 0.9429
-3.3852 13.8837 -2.6861 0.9435
-3.7263 13.2021 -2.5784 0.9457
-4.6458 12.8479 -2.5679 0.9459
-5.5211 12.4017 -2.5516 0.9462
-5.6980 11.6531 -2.4382 0.9486
-6.4837 11.1513 -2.4245 0.9489
-7.0152 9.5319 -2.2245 0.9530
-8.7838 8.9109 -2.3518 0.9503
-9.3489 8.2113 -2.3388 0.9506
-9.9419 8.1183 -2.4126 0.9491
-10.7479 7.5584 -2.4697 0.9479
-11.2031 6.7311 -2.4566 0.9482
-11.5971 5.8785 -2.4439 0.9485
-11.7709 5.4442 -2.4377 0.9486
12.1378 3.7627 -2.6861 0.9494
11.5550 5.5014 -2.7052 0.9490
10.9419 6.7412 -2.7166 0.9488
10.4531 7.5265 -2.7228 0.9487
10.1857 7.9047 -2.7254 0.9487
9.4865 9.1581 -2.7872 0.9475
9.1874 9.5304 -2.7982 0.9473
8.4959 10.1858 -2.8038 0.9472
7.3635 11.0600 -2.8086 0.9471
6.9630 11.3200 -2.8093 0.9471
6.5522 11.5637 -2.8094 0.9471
6.1319 11.7903 -2.8091 0.9471
5.2787 12.2219 -2.8142 0.9470
4.8334 12.3966 -2.8125 0.9471
3.9237 12.6889 -2.8075 0.9471
3.4615 12.8078 -2.8044 0.9472
2.9954 12.9082 -2.8010 0.9473
2.0524 13.0369 -2.7897 0.9475
1.5796 13.0768 -2.7843 0.9476
0.1625 13.1019 -2.7697 0.9478
-0.7765 13.0407 -2.7614 0.9480
-1.7038 12.8969 -2.7498 0.9482
-2.1610 12.7970 -2.7433 0.9483
-2.6129 12.6801 -2.7366 0.9484
-3.0592 12.5465 -2.7298 0.9486
-3.4446 12.2041 -2.6805 0.9495
-4.4810 11.1251 -2.5352 0.9521
-4.8516 10.8979 -2.5216 0.9524
-5.1860 10.6062 -2.4956 0.9529
-5.4920 10.2787 -2.4634 0.9535
-5.7858 9.9509 -2.4331 0.9540
-6.0677 9.6226 -2.4046 0.9546
-6.3604 9.3264 -2.3862 0.9549
-6.9691 8.7893 -2.3710 0.9552
-7.5415 8.2216 -2.3583 0.9554
-7.9987 8.1145 -2.4085 0.9545
-8.8583 7.7804 -2.4922 0.9529
-9.5739 6.7328 -2.4741 0.9533
-9.7863 6.3692 -2.4682 0.9534
-10.5001 4.8564 -2.4454 0.9538
11.0725 2.1616 -2.6514 0.9547
11.0012 2.5612 -2.6547 0.9546
10.9148 2.9582 -2.6578 0.9546
10.8132 3.3521 -2.6607 0.9545
10.7252 3.7522 -2.6705 0.9544
10.6006 4.1419 -2.6748 0.9543
10.3065 4.9070 -2.6828 0.9542
10.1372 5.2812 -2.6864 0.9541
9.9533 5.6491 -2.6898 0.9541
9.3171 6.7086 -2.6983 0.9539
8.8254 7.3721 -2.7026 0.9538
8.5603 7.6893 -2.7044 0.9538
8.2830 7.9962 -2.7058 0.9538
7.9937 8.2922 -2.7070 0.9538
7.7212 8.6085 -2.7178 0.9536
7.4857 8.9744 -2.7466 0.9531
7.2176 9.3139 -2.7693 0.9527
6.5358 9.8167 -2.7717 0.9527
6.1802 10.0473 -2.7723 0.9527
3.4751 11.2381 -2.7646 0.9528
3.0660 11.3444 -2.7619 0.9529
2.6621 11.4720 -2.7678 0.9528
1.8309 11.6301 -2.7670 0.9528
1.4099 11.6720 -2.7631 0.9528
0.9881 11.6974 -2.7590 0.9529
0.5663 11.7065 -2.7545 0.9530
0.1451 11.6992 -2.7498 0.9531
-0.2749 11.6757 -2.7448 0.9531
-0.6929 11.6361 -2.7396 0.9532
-1.5205 11.5094 -2.7285 0.9534
-2.7318 11.2040 -2.7104 0.9537
-3.5115 10.9234 -2.6967 0.9539
-3.8746 10.7153 -2.6779 0.9543
-5.2739 9.0706 -2.4659 0.9578
-5.5772 8.8447 -2.4575 0.9579
-6.2362 8.4734 -2.4727 0.9577
-6.6013 8.3255 -2.4971 0.9573
-7.4824 7.5907 -2.5050 0.9571
-7.7331 7.3007 -2.4994 0.9572
-7.9727 7.0026 -2.4939 0.9573
-8.2010 6.6968 -2.4884 0.9574
-8.4179 6.3838 -2.4830 0.9575
-8.6230 6.0641 -2.4776 0.9576
-8.8164 5.7380 -2.4722 0.9577
-9.3236 4.7262 -2.4567 0.9580
-9.4681 4.3791 -2.4517 0.9580
9.8556 2.6711 -2.6438 0.9587
9.6566 3.3784 -2.6489 0.9586
9.4325 4.0819 -2.6611 0.9584
9.2918 4.4239 -2.6646 0.9584
8.3951 6.0446 -2.6785 0.9582
6.9293 7.7253 -2.6870 0.9580
5.2084 9.1918 -2.7354 0.9573
4.8872 9.3971 -2.7424 0.9572
4.1973 9.7181 -2.7409 0.9572
3.8435 9.8578 -2.7395 0.9572
3.1214 10.0943 -2.7357 0.9573
2.3839 10.2727 -2.7305 0.9574
2.0109 10.3398 -2.7273 0.9574
1.6360 10.3920 -2.7238 0.9575
0.1296 10.4527 -2.7066 0.9577
-0.2456 10.4310 -2.7015 0.9578
-2.4460 10.0318 -2.6735 0.9582
-3.1379 9.7612 -2.6547 0.9585
-3.8046 9.4457 -2.6366 0.9588
-4.1178 9.2496 -2.6215 0.9590
-4.4151 9.0294 -2.6024 0.9593
-4.9776 8.5609 -2.5640 0.9599
-5.2449 8.3178 -2.5460 0.9602
-5.5183 8.0916 -2.5359 0.9603
-5.7844 7.8596 -2.5267 0.9605
-6.0488 7.6287 -2.5208 0.9606
-6.5543 7.1454 -2.5105 0.9607
-6.7930 6.8914 -2.5054 0.9608
-7.2410 6.3600 -2.4953 0.9610
-7.8364 5.5109 -2.4805 0.9612
-8.0137 5.2156 -2.4756 0.9613
9.1080 1.7781 -2.6271 0.9622
8.7918 3.0758 -2.6368 0.9620
8.6823 3.3923 -2.6388 0.9620
8.5608 3.7047 -2.6407 0.9620
8.4276 4.0125 -2.6424 0.9619
8.3049 4.3267 -2.6510 0.9618
7.9927 4.9242 -2.6576 0.9617
7.8174 5.2127 -2.6599 0.9617
7.2262 6.0362 -2.6655 0.9616
7.0083 6.2952 -2.6669 0.9616
6.7806 6.5459 -2.6681 0.9616
6.5433 6.7876 -2.6690 0.9616
6.0416 7.2431 -2.6702 0.9615
5.5063 7.6589 -2.6704 0.9615
5.2271 7.8511 -2.6701 0.9615
4.9405 8.0323 -2.6696 0.9616
3.7461 8.6740 -2.6748 0.9615
3.4443 8.8340 -2.6842 0.9613
1.4839 9.4257 -2.7012 0.9611
1.1428 9.4608 -2.6978 0.9612
0.4591 9.4911 -2.6900 0.9613
0.1176 9.4862 -2.6857 0.9613
-0.2229 9.4682 -2.6811 0.9614
-1.8835 9.1401 -2.6419 0.9619
-2.2002 9.0236 -2.6294 0.9621
-2.5100 8.8928 -2.6159 0.9623
-2.8121 8.7477 -2.6012 0.9625
-3.1106 8.6023 -2.5896 0.9627
-3.4107 8.4677 -2.5843 0.9628
-3.7050 8.3224 -2.5789 0.9628
-4.2454 7.9456 -2.5503 0.9632
-4.5190 7.7721 -2.5451 0.9633
-4.7866 7.5910 -2.5405 0.9634
-5.2869 7.1835 -2.5250 0.9636
-5.7664 6.7587 -2.5151 0.9637
-6.2138 6.3037 -2.5058 0.9639
-6.8182 5.5676 -2.4920 0.9641
-7.0010 5.3093 -2.4874 0.9641
-7.1743 5.0453 -2.4829 0.9642
-7.3378 4.7757 -2.4785 0.9643
-7.6349 4.2215 -2.4698 0.9644
-7.7682 3.9377 -2.4655 0.9644
-7.8912 3.6498 -2.4613 0.9645
8.3531 1.6307 -2.6177 0.9650
8.2968 1.9315 -2.6202 0.9650
8.2293 2.2304 -2.6225 0.9649
8.0606 2.8200 -2.6266 0.9649
7.7254 3.6781 -2.6317 0.9648
7.4487 4.2276 -2.6344 0.9648
7.2991 4.4969 -2.6369 0.9648
7.1581 4.7731 -2.6463 0.9646
6.9870 5.0308 -2.6482 0.9646
6.6156 5.5262 -2.6513 0.9646
6.4159 5.7630 -2.6526 0.9646
5.9897 6.2134 -2.6545 0.9645
5.7640 6.4261 -2.6552 0.9645
5.5303 6.6301 -2.6556 0.9645
4.7847 7.1866 -2.6555 0.9645
4.5226 7.3526 -2.6551 0.9645
4.2545 7.5085 -2.6544 0.9645
3.9807 7.6540 -2.6536 0.9645
3.1296 8.0260 -2.6497 0.9646
2.5414 8.2188 -2.6460 0.9646
2.2426 8.2981 -2.6439 0.9647
1.3330 8.4671 -2.6364 0.9648
1.0268 8.5003 -2.6335 0.9648
0.7200 8.5218 -2.6305 0.9648
0.4128 8.5316 -2.6272 0.9649
-0.2005 8.5166 -2.6203 0.9650
-0.8092 8.4558 -2.6127 0.9651
-1.1108 8.4083 -2.6087 0.9651
-2.5738 8.0065 -2.5867 0.9654
-3.1149 7.7333 -2.5643 0.9657
-3.3787 7.5893 -2.5552 0.9658
-4.1552 7.1465 -2.5427 0.9660
-4.8632 6.6078 -2.5235 0.9662
-5.7198 5.8026 -2.5061 0.9665
-5.9145 5.5838 -2.5018 0.9665
-6.2789 5.1272 -2.4933 0.9666
-6.6087 4.6475 -2.4850 0.9668
-6.7603 4.3998 -2.4809 0.9668
-6.9027 4.1473 -2.4769 0.9669
-7.2741 3.3644 -2.4651 0.9670
7.5171 2.3303 -2.6160 0.9674
7.4337 2.6007 -2.6179 0.9673
7.3403 2.8680 -2.6196 0.9673
7.2369 3.1317 -2.6212 0.9673
7.1235 3.3916 -2.6226 0.9673
6.8679 3.8979 -2.6250 0.9673
6.7259 4.1437 -2.6260 0.9672
6.5748 4.3841 -2.6268 0.9672
6.4147 4.6187 -2.6275 0.9672
6.0935 5.0900 -2.6392 0.9671
5.5165 5.7225 -2.6421 0.9671
5.3085 5.9183 -2.6427 0.9670
4.8709 6.2856 -2.6433 0.9670
4.6419 6.4565 -2.6433 0.9670
3.9184 6.9153 -2.6421 0.9671
3.1480 7.2885 -2.6391 0.9671
2.6135 7.4873 -2.6361 0.9671
2.3412 7.5713 -2.6343 0.9671
2.0662 7.6449 -2.6324 0.9672
1.5092 7.7605 -2.6280 0.9672
1.2283 7.8024 -2.6255 0.9673
0.3804 7.8640 -2.6171 0.9674
0.0975 7.8632 -2.6140 0.9674
-0.4662 7.8298 -2.6073 0.9675
-0.7462 7.7974 -2.6037 0.9675
-1.3005 7.7015 -2.5963 0.9676
-1.5740 7.6382 -2.5923 0.9677
-1.8415 7.5526 -2.5841 0.9678
-2.1024 7.4485 -2.5727 0.9679
-2.3600 7.3414 -2.5633 0.9680
-2.6185 7.2414 -2.5596 0.9681
-3.1225 7.0140 -2.5521 0.9682
-3.3675 6.8869 -2.5483 0.9682
-3.6072 6.7512 -2.5444 0.9682
-3.8416 6.6071 -2.5405 0.9683
-4.0696 6.4539 -2.5362 0.9684
-5.2931 5.3697 -2.5063 0.9687
-5.8127 4.7466 -2.4945 0.9689
-5.9702 4.5276 -2.4907 0.9689
-6.2607 4.0746 -2.4830 0.9690
-6.6330 3.3623 -2.4719 0.9691
-6.7397 3.1172 -2.4684 0.9692
7.0943 1.6516 -2.6048 0.9695
6.9675 2.1599 -2.6086 0.9695
6.8899 2.4104 -2.6103 0.9695
6.8029 2.6580 -2.6119 0.9694
6.4872 3.3797 -2.6158 0.9694
6.3641 3.6121 -2.6169 0.9694
5.7873 4.4913 -2.6197 0.9694
5.6229 4.6970 -2.6200 0.9694
5.4509 4.8963 -2.6202 0.9694
5.2734 5.0909 -2.6212 0.9693
5.0977 5.2880 -2.6266 0.9693
4.9143 5.4788 -2.6320 0.9692
4.5091 5.8187 -2.6325 0.9692
3.8560 6.2688 -2.6319 0.9692
3.6275 6.4019 -2.6313 0.9692
3.3941 6.5262 -2.6306 0.9692
3.1564 6.6416 -2.6297 0.9692
2.9145 6.7479 -2.6286 0.9693
2.4199 6.9326 -2.6259 0.9693
2.1679 7.0107 -2.6242 0.9693
1.9133 7.0792 -2.6224 0.9693
1.6565 7.1381 -2.6205 0.9694
1.3978 7.1872 -2.6184 0.9694
0.8765 7.2559 -2.6136 0.9694
0.3524 7.2853 -2.6083 0.9695
0.0904 7.2852 -2.6054 0.9695
-0.1713 7.2753 -2.6024 0.9696
-0.4320 7.2556 -2.5993 0.9696
-0.6909 7.2192 -2.5935 0.9697
-0.9465 7.1643 -2.5843 0.9698
-1.7001 6.9726 -2.5665 0.9700
-1.9470 6.8981 -2.5632 0.9700
-2.4309 6.7225 -2.5564 0.9701
-2.6672 6.6219 -2.5529 0.9701
-3.1272 6.3955 -2.5458 0.9702
-3.3502 6.2701 -2.5423 0.9703
-3.5682 6.1370 -2.5386 0.9703
-3.9803 5.8364 -2.5263 0.9704
-4.1792 5.6785 -2.5213 0.9705
-4.7450 5.1729 -2.5102 0.9706
-4.9205 4.9917 -2.5065 0.9707
-5.2509 4.6120 -2.4992 0.9707
-5.5524 4.2108 -2.4920 0.9708
-6.0640 3.3529 -2.4779 0.9710
-6.1721 3.1286 -2.4745 0.9710
-6.2720 2.9009 -2.4712 0.9711
6.6504 1.2983 -2.5966 0.9714
6.6043 1.5375 -2.5986 0.9714
6.3319 2.4740 -2.6051 0.9713
6.2421 2.7012 -2.6065 0.9713
6.1439 2.9252 -2.6077 0.9713
5.8000 3.5732 -2.6106 0.9712
5.6694 3.7804 -2.6113 0.9712
5.5311 3.9825 -2.6119 0.9712
5.2324 4.3707 -2.6127 0.9712
5.0724 4.5563 -2.6129 0.9712
4.7321 4.9087 -2.6129 0.9712
4.5523 5.0752 -2.6127 0.9712
4.3664 5.2348 -2.6123 0.9712
4.1748 5.3873 -2.6119 0.9712
3.9822 5.5390 -2.6143 0.9712
3.7842 5.6839 -2.6168 0.9712
3.1561 6.0685 -2.6213 0.9711
2.9351 6.1760 -2.6204 0.9711
2.4819 6.3654 -2.6182 0.9712
1.5407 6.6393 -2.6119 0.9712
1.3002 6.6853 -2.6099 0.9712
1.0583 6.7222 -2.6078 0.9713
0.5708 6.7563 -2.5984 0.9714
0.3269 6.7573 -2.5926 0.9714
0.0837 6.7504 -2.5871 0.9715
-0.1586 6.7341 -2.5814 0.9716
-0.3998 6.7139 -2.5775 0.9716
-1.1162 6.6100 -2.5690 0.9717
-1.3514 6.5581 -2.5660 0.9717
-1.8145 6.4287 -2.5599 0.9718
-2.0418 6.3515 -2.5567 0.9718
-2.2659 6.2662 -2.5535 0.9719
-2.7031 6.0718 -2.5470 0.9719
-2.9157 5.9630 -2.5437 0.9720
-3.3276 5.7231 -2.5370 0.9720
-3.8987 5.2973 -2.5205 0.9722
-4.4278 4.8271 -2.5102 0.9723
-4.5920 4.6585 -2.5067 0.9724
-4.7499 4.4844 -2.5033 0.9724
-4.9013 4.3049 -2.4999 0.9724
-5.4382 3.5393 -2.4865 0.9726
-5.6635 3.1315 -2.4800 0.9727
-5.7649 2.9222 -2.4769 0.9727
6.2140 1.2131 -2.5912 0.9730
5.9912 2.0960 -2.5978 0.9729
5.8311 2.5234 -2.6004 0.9729
5.6395 2.9380 -2.6026 0.9729
5.4175 3.3376 -2.6043 0.9729
5.2954 3.5310 -2.6049 0.9729
5.1662 3.7198 -2.6055 0.9729
5.0300 3.9036 -2.6059 0.9729
4.8871 4.0823 -2.6062 0.9729
4.7376 4.2555 -2.6064 0.9729
4.4198 4.5848 -2.6064 0.9729
4.2519 4.7402 -2.6062 0.9729
3.7153 5.1676 -2.6049 0.9729
3.5263 5.2964 -2.6042 0.9729
2.9328 5.6391 -2.6014 0.9729
2.7271 5.7383 -2.6003 0.9729
2.5179 5.8297 -2.5990 0.9729
2.3056 5.9133 -2.5976 0.9729
2.0905 5.9889 -2.5962 0.9730
1.8728 6.0564 -2.5946 0.9730
1.2077 6.2098 -2.5892 0.9730
0.5312 6.2885 -2.5829 0.9731
0.3046 6.2980 -2.5806 0.9731
-0.3737 6.2764 -2.5734 0.9732
-0.5984 6.2527 -2.5708 0.9732
-1.0437 6.1806 -2.5654 0.9733
-1.4816 6.0764 -2.5598 0.9733
-1.6970 6.0125 -2.5569 0.9734
-2.1195 5.8615 -2.5510 0.9734
-2.7281 5.5792 -2.5418 0.9735
-3.1140 5.3557 -2.5355 0.9736
-3.2962 5.2273 -2.5292 0.9736
-3.4744 5.0946 -2.5238 0.9737
-3.9858 4.6717 -2.5134 0.9738
-4.3000 4.3622 -2.5069 0.9739
-4.5904 4.0318 -2.5005 0.9739
-4.8557 3.6824 -2.4942 0.9740
-5.2043 3.1269 -2.4849 0.9741
-5.3069 2.9343 -2.4819 0.9741
-5.4024 2.7384 -2.4789 0.9742
5.7838 1.3465 -2.5881 0.9744
5.6789 1.7604 -2.5912 0.9744
5.6150 1.9644 -2.5925 0.9744
5.4646 2.3648 -2.5950 0.9744
5.3783 2.5606 -2.5960 0.9743
5.2847 2.7532 -2.5970 0.9743
5.1841 2.9423 -2.5979 0.9743
4.4392 3.9875 -2.6006 0.9743
3.9841 4.4417 -2.6004 0.9743
3.8215 4.5814 -2.6001 0.9743
2.9376 5.1843 -2.5969 0.9743
2.3597 5.4635 -2.5937 0.9744
2.1608 5.5420 -2.5924 0.9744
1.9593 5.6130 -2.5910 0.9744
1.5493 5.7324 -2.5879 0.9744
1.1321 5.8211 -2.5845 0.9745
0.7101 5.8787 -2.5807 0.9745
0.4980 5.8957 -2.5786 0.9745
0.0732 5.9063 -2.5743 0.9746
-0.3505 5.8858 -2.5697 0.9746
-0.5612 5.8639 -2.5673 0.9746
-0.9789 5.7971 -2.5622 0.9747
-1.3898 5.7001 -2.5570 0.9747
-1.5920 5.6405 -2.5543 0.9748
-2.1825 5.4186 -2.5459 0.9748
-2.5602 5.2360 -2.5401 0.9749
-2.7435 5.1347 -2.5372 0.9749
-3.4263 4.6554 -2.5192 0.9751
-3.8932 4.2444 -2.5101 0.9752
-4.3117 3.7871 -2.5011 0.9753
-4.6775 3.2895 -2.4922 0.9754
-4.7871 3.1156 -2.4893 0.9754
-4.9870 2.7574 -2.4835 0.9754
2.7894 0.5446 -1.3155 0.9876
5.3904 1.4609 -2.5851 0.9757
5.2770 1.8462 -2.5878 0.9757
5.2097 2.0355 -2.5890 0.9756
5.0542 2.4063 -2.5911 0.9756
4.8715 2.7648 -2.5928 0.9756
4.7703 2.9389 -2.5935 0.9756
4.5488 3.2752 -2.5946 0.9756
4.1712 3.7468 -2.5954 0.9756
3.8914 4.0366 -2.5954 0.9756
3.5908 4.3049 -2.5949 0.9756
3.4333 4.4305 -2.5945 0.9756
2.7605 4.8718 -2.5919 0.9756
2.4017 5.0537 -2.5900 0.9756
1.8414 5.2754 -2.5864 0.9757
1.4562 5.3880 -2.5835 0.9757
1.2609 5.4335 -2.5819 0.9757
0.8663 5.5027 -2.5785 0.9757
0.6675 5.5264 -2.5767 0.9758
0.4682 5.5427 -2.5748 0.9758
-0.1306 5.5475 -2.5686 0.9758
-0.3295 5.5345 -2.5664 0.9759
-0.5277 5.5142 -2.5641 0.9759
-1.4976 5.3057 -2.5519 0.9760
-1.6855 5.2432 -2.5493 0.9760
-2.0534 5.0980 -2.5440 0.9761
-2.2329 5.0156 -2.5413 0.9761
-2.7493 4.7284 -2.5318 0.9762
-2.9104 4.6155 -2.5258 0.9762
-3.2252 4.3822 -2.5186 0.9763
-3.3768 4.2587 -2.5158 0.9763
-3.9341 3.7141 -2.5044 0.9764
-4.1812 3.4143 -2.4987 0.9765
-4.5093 2.9348 -2.4904 0.9766
-4.6068 2.7679 -2.4877 0.9766
-4.6982 2.5978 -2.4850 0.9766
-4.7834 2.4247 -2.4824 0.9766
5.1220 1.1924 -2.5797 0.9768
5.0786 1.3764 -2.5810 0.9768
4.8378 2.0935 -2.5857 0.9768
4.6782 2.4372 -2.5875 0.9768
4.5889 2.6045 -2.5883 0.9768
4.4935 2.7684 -2.5889 0.9768
4.3921 2.9287 -2.5895 0.9768
4.2848 3.0851 -2.5899 0.9768
4.1717 3.2375 -2.5903 0.9767
4.0531 3.3856 -2.5905 0.9767
3.7998 3.6682 -2.5907 0.9767
3.6654 3.8023 -2.5906 0.9767
3.0815 4.2861 -2.5894 0.9768
2.9249 4.3931 -2.5889 0.9768
2.6004 4.5893 -2.5874 0.9768
2.4330 4.6782 -2.5866 0.9768
2.2625 4.7609 -2.5856 0.9768
2.0892 4.8371 -2.5846 0.9768
1.3720 5.0765 -2.5795 0.9768
1.1881 5.1196 -2.5780 0.9769
1.0027 5.1559 -2.5765 0.9769
0.8163 5.1852 -2.5748 0.9769
0.2531 5.2319 -2.5694 0.9769
0.0649 5.2337 -2.5675 0.9770
-0.1231 5.2286 -2.5655 0.9770
-0.3106 5.2165 -2.5634 0.9770
-0.4974 5.1977 -2.5612 0.9770
-0.6833 5.1720 -2.5590 0.9770
-1.0510 5.1005 -2.5545 0.9771
-1.2325 5.0548 -2.5521 0.9771
-1.7642 4.8788 -2.5448 0.9772
-2.1058 4.7301 -2.5398 0.9772
-2.4351 4.5574 -2.5346 0.9772
-3.0429 4.1345 -2.5181 0.9774
-3.1860 4.0181 -2.5154 0.9774
-3.4590 3.7709 -2.5100 0.9775
-3.5883 3.6403 -2.5073 0.9775
-3.8323 3.3660 -2.5020 0.9775
-4.0555 3.0755 -2.4967 0.9776
-4.1591 2.9248 -2.4941 0.9776
-4.3494 2.6132 -2.4889 0.9776
-4.5915 2.1236 -2.4815 0.9777
2.6113 0.5098 -1.3803 0.9881
4.8362 1.1259 -2.5760 0.9779
4.7475 1.4717 -2.5785 0.9779
4.6335 1.8104 -2.5808 0.9778
4.5672 1.9764 -2.5817 0.9778
4.4948 2.1400 -2.5826 0.9778
4.4164 2.3008 -2.5834 0.9778
4.3320 2.4587 -2.5841 0.9778
4.2419 2.6134 -2.5847 0.9778
4.1461 2.7646 -2.5852 0.9778
3.9380 3.0562 -2.5860 0.9778
3.3287 3.7110 -2.5862 0.9778
3.0529 3.9396 -2.5856 0.9778
2.9089 4.0461 -2.5852 0.9778
2.7611 4.1471 -2.5847 0.9778
2.4549 4.3325 -2.5833 0.9778
2.2969 4.4165 -2.5825 0.9778
1.9724 4.5667 -2.5807 0.9778
1.4676 4.7461 -2.5772 0.9779
1.1218 4.8341 -2.5745 0.9779
0.9468 4.8685 -2.5730 0.9779
0.7708 4.8964 -2.5714 0.9779
0.5940 4.9178 -2.5698 0.9779
0.4167 4.9327 -2.5681 0.9779
-0.1163 4.9383 -2.5626 0.9780
-0.4699 4.9096 -2.5586 0.9780
-0.6454 4.8856 -2.5566 0.9780
-0.9929 4.8185 -2.5523 0.9781
-1.6670 4.6100 -2.5432 0.9782
-1.9900 4.4700 -2.5384 0.9782
-2.1473 4.3914 -2.5359 0.9782
-2.4496 4.2131 -2.5283 0.9783
-2.7371 4.0135 -2.5202 0.9783
-2.8766 3.9085 -2.5176 0.9784
-3.1435 3.6844 -2.5125 0.9784
-3.2705 3.5654 -2.5100 0.9784
-3.3931 3.4421 -2.5075 0.9785
-3.5110 3.3147 -2.5049 0.9785
-3.6242 3.1831 -2.5024 0.9785
-3.7324 3.0478 -2.4999 0.9785
-4.0267 2.6207 -2.4925 0.9786
-4.1143 2.4719 -2.4900 0.9786
-4.3440 2.0091 -2.4830 0.9787
2.5830 0.5042 -1.4414 0.9881
4.3199 1.8694 -2.5781 0.9788
4.2513 2.0241 -2.5789 0.9788
4.0973 2.3254 -2.5803 0.9787
4.0120 2.4717 -2.5809 0.9787
3.8254 2.7544 -2.5818 0.9787
3.6185 3.0226 -2.5823 0.9787
3.3923 3.2749 -2.5825 0.9787
3.2724 3.3945 -2.5825 0.9787
2.8874 3.7260 -2.5818 0.9787
2.7512 3.8267 -2.5814 0.9787
2.3219 4.0977 -2.5796 0.9787
2.0204 4.2512 -2.5780 0.9788
1.7086 4.3821 -2.5761 0.9788
1.3883 4.4895 -2.5738 0.9788
1.0612 4.5730 -2.5712 0.9788
0.8957 4.6057 -2.5698 0.9788
0.3942 4.6670 -2.5652 0.9789
-0.1100 4.6727 -2.5600 0.9789
-0.2776 4.6624 -2.5582 0.9789
-0.4446 4.6460 -2.5563 0.9789
-0.6108 4.6234 -2.5543 0.9790
-0.9397 4.5604 -2.5502 0.9790
-1.1021 4.5200 -2.5481 0.9790
-1.2627 4.4737 -2.5460 0.9790
-1.4214 4.4216 -2.5438 0.9790
-1.5780 4.3639 -2.5416 0.9791
-2.1784 4.0771 -2.5318 0.9791
-2.4568 3.8962 -2.5228 0.9792
-2.7242 3.7015 -2.5172 0.9793
-2.8527 3.5978 -2.5148 0.9793
-3.0978 3.3771 -2.5100 0.9793
-3.2140 3.2605 -2.5076 0.9793
-3.3259 3.1399 -2.5052 0.9794
-3.4333 3.0155 -2.5028 0.9794
-3.6341 2.7559 -2.4980 0.9794
-3.7272 2.6211 -2.4957 0.9794
-3.8155 2.4832 -2.4934 0.9795
-3.8986 2.3424 -2.4911 0.9795
-3.9766 2.1988 -2.4888 0.9795
-4.0494 2.0526 -2.4866 0.9795
-4.1169 1.9041 -2.4844 0.9795
2.5546 0.4987 -1.5027 0.9881
2.6128 0.6083 -1.5488 0.9877
4.2549 1.3190 -2.5719 0.9796
4.2064 1.4716 -2.5729 0.9796
4.1524 1.6224 -2.5739 0.9796
4.0928 1.7711 -2.5747 0.9796
4.0277 1.9176 -2.5755 0.9796
3.9573 2.0616 -2.5762 0.9796
3.8008 2.3416 -2.5774 0.9796
3.7149 2.4771 -2.5779 0.9796
3.3230 2.9849 -2.5789 0.9796
3.2136 3.1024 -2.5789 0.9796
2.9824 3.3249 -2.5787 0.9796
2.8607 3.4296 -2.5785 0.9796
2.3384 3.8015 -2.5768 0.9796
2.1997 3.8821 -2.5762 0.9796
1.9141 4.0277 -2.5746 0.9796
1.4680 4.2056 -2.5718 0.9796
0.6910 4.3895 -2.5655 0.9797
0.5326 4.4090 -2.5641 0.9797
0.2143 4.4305 -2.5610 0.9797
-0.1043 4.4287 -2.5576 0.9797
-0.4214 4.4036 -2.5541 0.9798
-0.5790 4.3824 -2.5522 0.9798
-1.0448 4.2849 -2.5464 0.9798
-1.3476 4.1921 -2.5423 0.9799
-2.3299 3.6949 -2.5220 0.9800
-2.4583 3.6047 -2.5191 0.9800
-2.5839 3.5109 -2.5168 0.9801
-2.9387 3.2037 -2.5099 0.9801
-3.2574 2.8610 -2.5031 0.9802
-3.3551 2.7397 -2.5009 0.9802
-3.5369 2.4872 -2.4964 0.9802
-3.7740 2.0868 -2.4898 0.9803
-3.9075 1.8073 -2.4856 0.9803
