ply
format ascii 1.0
element vertex 1048
property float32 x
property float32 y
property float32 z
property float32 I
end_header
-26.2116 -41.2261 8.6141 0.8200
-8.9858 -24.5419 4.6083 0.8993
-8.7858 -26.9545 4.9989 0.8912
-8.7725 -41.6854 7.5113 0.8411
13.0280 -37.9175 7.0695 0.8497
13.2319 -34.4371 6.5050 0.8608
13.3796 -31.4061 6.0193 0.8705
21.6111 -35.5431 7.3347 0.8445
23.4179 -35.5732 7.5096 0.8411
13.4985 -18.9848 4.1074 0.9097
27.6272 -28.9719 7.0589 0.8499
29.3219 -28.6185 7.2246 0.8467
31.4701 -26.5865 7.2642 0.8459
40.8586 -25.4976 8.4922 0.8223
41.9603 3.7077 7.4276 0.8427
32.7504 14.2793 6.2998 0.8649
25.6368 14.6388 5.2055 0.8870
23.6748 14.6693 4.9109 0.8930
-9.0127 -24.6155 4.0158 0.8994
-9.0024 -36.2669 5.7245 0.8597
13.3445 -31.3238 5.2159 0.8713
26.2736 -39.9111 7.3200 0.8242
31.7054 -35.7324 7.3182 0.8242
31.7097 -33.2531 7.0391 0.8303
33.7930 -32.9824 7.2340 0.8261
33.9626 -30.8474 7.0286 0.8306
34.3916 -29.0546 6.8971 0.8334
36.2573 -26.4188 6.8725 0.8340
39.6107 -26.7403 7.3214 0.8242
45.6096 14.2828 7.3217 0.8241
30.3485 14.5495 5.1559 0.8727
27.8241 14.5896 4.8129 0.8806
25.4756 14.5467 4.4941 0.8881
-9.3160 -37.5302 5.0355 0.8556
-9.0332 -42.9247 5.7121 0.8378
13.2031 -43.4411 5.9124 0.8326
13.3640 -31.3695 4.4402 0.8715
13.4165 -18.8694 3.0150 0.9108
35.7977 -32.5141 6.2974 0.8228
35.9633 -30.3823 6.1307 0.8270
36.1921 -26.3712 5.8314 0.8347
43.6738 13.6766 5.9595 0.8314
30.1538 14.4562 4.3546 0.8738
25.7083 14.6796 3.8551 0.8874
21.9865 14.7406 3.4470 0.8987
-9.0220 -24.6406 2.8177 0.8998
13.1780 -43.3585 4.8662 0.8333
36.0256 -30.4349 5.0642 0.8272
36.0705 -28.3187 4.9244 0.8315
43.9520 17.3140 5.0726 0.8269
27.7678 14.5600 3.3668 0.8815
25.6839 14.6657 3.1759 0.8878
23.6109 14.6297 2.9826 0.8943
-8.1486 -24.9995 2.2259 0.8998
-9.0938 -43.2127 3.7382 0.8376
13.2165 -43.4850 3.8474 0.8332
13.4780 -18.9559 1.9689 0.9109
36.0896 -28.3337 3.8841 0.8318
43.9334 17.3067 3.9972 0.8273
43.9701 19.1711 4.0606 0.8248
21.4105 12.2255 2.0871 0.9058
21.5575 13.3574 2.1468 0.9032
-9.8537 -24.1866 1.6195 0.9006
-8.8627 -24.2056 1.5984 0.9019
-8.1631 -25.0440 1.6334 0.8998
-8.9695 -42.6219 2.7009 0.8398
13.7882 -24.6265 1.7502 0.8931
13.4745 -18.9511 1.4420 0.9110
42.0565 9.9226 2.6795 0.8410
43.9149 17.2994 2.9268 0.8277
43.9512 19.1629 2.9732 0.8252
25.3649 12.1603 1.7443 0.8934
25.4878 13.3645 1.7846 0.8911
21.3130 12.1698 1.5219 0.9063
20.5732 13.7931 1.5359 0.9055
-9.8587 -24.1990 1.0303 0.9007
-8.1776 -25.0885 1.0405 0.8998
13.0799 -43.0358 1.7736 0.8352
12.7911 -24.9019 1.1039 0.8940
13.7958 -24.6401 1.1135 0.8931
13.4753 -18.9522 0.9171 0.9111
42.0428 9.9194 1.7033 0.8412
44.2071 13.8436 1.8266 0.8307
43.8615 15.4844 1.8341 0.8301
43.8964 17.2921 1.8603 0.8279
25.2139 12.0879 1.1026 0.8941
23.1249 12.1255 1.0296 0.9008
21.2930 12.1585 0.9668 0.9065
19.6697 12.1877 0.9124 0.9115
19.5436 13.1028 0.9278 0.9101
-11.1560 -17.5463 0.3512 0.9202
-10.6918 -19.8274 0.3805 0.9138
-10.7762 -23.9528 0.4437 0.9003
-8.1922 -25.1332 0.4465 0.8996
-11.3950 -45.9056 0.7990 0.8276
12.7771 -24.8745 0.4724 0.8942
13.8034 -24.6537 0.4773 0.8931
13.4761 -18.9533 0.3928 0.9112
35.4398 -25.8231 0.7407 0.8391
44.1405 13.8228 0.7813 0.8311
43.8434 15.4780 0.7854 0.8303
43.9138 19.1465 0.8092 0.8256
30.0187 14.3914 0.5623 0.8753
24.0647 12.6183 0.4590 0.8970
25.3891 14.4973 0.4939 0.8896
23.5275 14.5780 0.4675 0.8952
21.7932 14.6110 0.4432 0.9004
-10.7014 -19.8452 -0.1269 0.9138
-10.7365 -21.7438 -0.1365 0.9076
-9.8688 -24.2237 -0.1473 0.9007
-8.7651 -30.5736 -0.1791 0.8805
-11.4002 -45.9264 -0.2664 0.8276
-8.9787 -42.6655 -0.2455 0.8400
11.9668 -45.1353 -0.2629 0.8296
12.3893 -26.4107 -0.1642 0.8899
15.0146 -22.8080 -0.1537 0.8965
13.4769 -18.9544 -0.1309 0.9112
34.3005 -23.1555 -0.2330 0.8474
43.8597 17.2776 -0.2654 0.8281
43.8951 19.1384 -0.2696 0.8257
24.0515 12.6114 -0.1529 0.8971
23.5068 14.5652 -0.1557 0.8953
-10.6797 -18.2091 -0.5944 0.9190
-10.7110 -19.8630 -0.6354 0.9137
-10.7955 -23.9958 -0.7409 0.9001
-8.8806 -24.2545 -0.7273 0.9018
-8.2214 -25.2229 -0.7470 0.8993
-8.7365 -30.4737 -0.8926 0.8809
-8.9830 -42.6862 -1.2283 0.8398
-7.8217 -45.1528 -1.2903 0.8325
-6.2469 -45.7736 -1.3008 0.8312
-4.9478 -49.4408 -1.3991 0.8197
11.9495 -45.0699 -1.3129 0.8298
12.0727 -39.7217 -1.1690 0.8469
12.3155 -28.9083 -0.8848 0.8818
13.8626 -22.7993 -0.7513 0.8987
13.4777 -18.9555 -0.6549 0.9111
18.8915 -22.8958 -0.8358 0.8880
21.8927 -22.9582 -0.8933 0.8808
23.5568 -22.9917 -0.9269 0.8766
29.4045 -23.0853 -1.0526 0.8611
40.4937 -23.2939 -1.3154 0.8295
43.8765 19.1303 -1.3478 0.8257
30.0895 14.4254 -0.9396 0.8750
25.4641 14.5401 -0.8257 0.8893
23.4862 14.5524 -0.7780 0.8953
-11.1750 -17.5762 -1.0563 0.9200
-10.6887 -18.2244 -1.0715 0.9189
-10.7573 -21.7859 -1.2322 0.9073
-9.8789 -24.2485 -1.3279 0.9004
-8.8851 -24.2667 -1.3106 0.9017
-8.2361 -25.2681 -1.3478 0.8990
-6.6285 -23.1207 -1.2198 0.9082
-5.7442 -23.1410 -1.2092 0.9089
-6.5198 -30.9813 -1.6056 0.8809
-4.0154 -23.1800 -1.1931 0.9101
-4.6143 -33.8112 -1.7306 0.8723
-2.3235 -23.2174 -1.1833 0.9108
-0.6504 -23.2536 -1.1797 0.9110
1.0212 -23.2889 -1.1822 0.9109
5.5304 -36.2259 -1.8585 0.8635
4.4355 -23.3926 -1.2075 0.9090
10.0129 -23.5034 -1.2956 0.9027
11.0328 -23.5189 -1.3174 0.9012
12.4208 -24.1810 -1.3786 0.8968
12.8046 -22.8696 -1.3292 0.9003
13.8704 -22.8121 -1.3540 0.8986
15.0319 -22.8342 -1.3864 0.8963
13.4785 -18.9567 -1.1796 0.9110
17.5390 -22.8821 -1.4621 0.8909
18.9037 -22.9107 -1.5063 0.8878
27.2890 -23.0542 -1.8117 0.8667
34.3644 -23.1987 -2.1027 0.8470
37.2739 -23.2606 -2.2282 0.8386
40.5344 -23.3172 -2.3715 0.8292
25.4095 14.5090 -1.4839 0.8894
23.4655 14.5397 -1.4000 0.8953
-11.1814 -17.5862 -1.5280 0.9198
-10.6977 -18.2398 -1.5504 0.9187
-10.7303 -19.8989 -1.6576 0.9133
-10.4879 -21.2402 -1.7369 0.9094
-7.4460 -22.8440 -1.7617 0.9081
-6.6082 -23.0502 -1.7582 0.9083
-5.7269 -23.0710 -1.7430 0.9091
-0.6485 -23.1850 -1.7006 0.9112
0.2122 -26.7613 -1.9623 0.8982
1.8562 -23.2373 -1.7092 0.9107
2.7003 -23.2544 -1.7165 0.9104
4.4157 -23.2882 -1.7380 0.9093
7.0934 -23.3387 -1.7885 0.9068
8.9806 -23.3727 -1.8359 0.9045
10.9805 -23.4075 -1.8957 0.9015
12.4112 -24.1622 -1.9917 0.8968
12.8115 -22.8820 -1.9228 0.9002
13.4801 -18.9590 -1.7057 0.9109
22.4679 -21.9289 -2.3020 0.8817
25.6997 -20.1766 -2.3957 0.8772
26.7701 -19.5059 -2.4286 0.8756
29.9152 -17.2086 -2.5305 0.8707
30.9469 -16.3531 -2.5664 0.8690
34.3509 -15.1078 -2.7515 0.8603
36.1360 -14.3685 -2.8513 0.8556
39.1205 -10.8598 -2.9769 0.8497
40.0548 -9.5854 -3.0198 0.8477
40.9534 -8.2589 -3.0632 0.8457
41.8129 -6.8811 -3.1070 0.8437
43.3997 -3.9745 -3.1955 0.8396
44.1196 -2.4482 -3.2399 0.8376
44.7852 -0.8753 -3.2844 0.8356
45.3930 0.7422 -3.3288 0.8335
46.4184 4.1015 -3.4168 0.8295
44.5501 8.8364 -3.3301 0.8335
41.7766 9.8565 -3.1472 0.8418
41.8858 11.4836 -3.1845 0.8401
37.6281 11.7834 -2.8911 0.8537
35.2753 12.4532 -2.7429 0.8607
35.3024 13.9067 -2.7820 0.8588
25.0903 12.0287 -2.0402 0.8944
23.0196 12.0703 -1.9058 0.9010
20.0685 12.4348 -1.7310 0.9097
-8.5587 -17.3332 -1.8559 0.9253
-7.9465 -17.6630 -1.8594 0.9251
-7.3226 -17.9738 -1.8633 0.9250
-5.0322 -20.2727 -2.0053 0.9195
-4.3176 -20.5164 -2.0128 0.9192
-3.5929 -20.7407 -2.0209 0.9189
0.1710 -21.5597 -2.0699 0.9170
1.7365 -21.7387 -2.0937 0.9161
2.5308 -21.7947 -2.1065 0.9156
3.3323 -21.8277 -2.1198 0.9151
9.1066 -21.3759 -2.2307 0.9109
10.4746 -20.3921 -2.2009 0.9120
10.9376 -19.5351 -2.1494 0.9140
11.7442 -19.3154 -2.1702 0.9132
12.5519 -19.0670 -2.1916 0.9124
16.4827 -17.2849 -2.2930 0.9085
17.2622 -16.8481 -2.3158 0.9076
18.0353 -16.3811 -2.3391 0.9067
18.8011 -15.8834 -2.3629 0.9058
19.5580 -15.3549 -2.3872 0.9049
22.3979 -15.1203 -2.5944 0.8971
23.9220 -13.7610 -2.6495 0.8950
24.6598 -13.0309 -2.6777 0.8940
26.7561 -10.6388 -2.7643 0.8907
27.4098 -9.7750 -2.7938 0.8896
29.2095 -6.9900 -2.8834 0.8863
29.7490 -5.9994 -2.9136 0.8852
30.2550 -4.9790 -2.9437 0.8841
30.7254 -3.9300 -2.9738 0.8830
31.1581 -2.8534 -3.0038 0.8819
31.9025 -0.6235 -3.0634 0.8797
32.6868 2.8882 -3.1503 0.8765
32.9664 5.3172 -3.2058 0.8744
30.8911 9.6736 -3.1077 0.8780
25.5901 11.1574 -2.6801 0.8939
21.9424 11.5054 -2.3786 0.9052
19.2836 11.9484 -2.1779 0.9129
19.3016 12.9406 -2.2310 0.9108
-9.2598 -14.5639 -2.0500 0.9328
-8.7401 -14.9019 -2.0521 0.9328
-7.1198 -15.8256 -2.0613 0.9325
-6.5602 -16.1025 -2.0654 0.9324
-5.9914 -16.3635 -2.0699 0.9322
-5.4135 -16.6084 -2.0750 0.9321
-4.8269 -16.8368 -2.0805 0.9319
-4.2319 -17.0485 -2.0866 0.9317
-3.6287 -17.2432 -2.0931 0.9315
-3.0178 -17.4206 -2.1001 0.9313
-2.3993 -17.5805 -2.1077 0.9310
-1.7736 -17.7226 -2.1157 0.9308
-1.1411 -17.8464 -2.1242 0.9305
0.1431 -18.0384 -2.1428 0.9299
2.1114 -18.1826 -2.1743 0.9289
4.7968 -18.0925 -2.2234 0.9274
6.1573 -17.9206 -2.2509 0.9265
6.8401 -17.8018 -2.2653 0.9261
9.5743 -17.1001 -2.3280 0.9241
10.2553 -16.8666 -2.3448 0.9236
13.6083 -15.3367 -2.4355 0.9207
14.9094 -14.5518 -2.4748 0.9195
15.5477 -14.1216 -2.4949 0.9189
16.1765 -13.6661 -2.5155 0.9182
17.4012 -12.6793 -2.5575 0.9169
17.9950 -12.1480 -2.5790 0.9163
18.5748 -11.5915 -2.6008 0.9156
19.1396 -11.0100 -2.6228 0.9149
21.6939 -7.7366 -2.7359 0.9114
22.5660 -6.2643 -2.7819 0.9100
22.9647 -5.4956 -2.8049 0.9093
23.3368 -4.7062 -2.8279 0.9086
25.0866 1.3117 -2.9840 0.9038
25.3133 4.0828 -3.0457 0.9019
25.3115 5.0205 -3.0652 0.9013
25.1874 6.9055 -3.1023 0.9001
25.0639 7.8488 -3.1198 0.8996
23.3901 8.2574 -2.9465 0.9049
23.1956 9.1374 -2.9614 0.9045
22.0096 10.5517 -2.8994 0.9064
17.4591 9.9693 -2.3882 0.9222
19.2746 11.9429 -2.6934 0.9127
19.2924 12.9344 -2.7590 0.9107
-8.0026 -12.5866 -2.1133 0.9415
-7.5524 -12.8769 -2.1152 0.9415
-7.0932 -13.1539 -2.1175 0.9414
-6.1486 -13.6667 -2.1234 0.9413
-5.1711 -14.1232 -2.1310 0.9410
-4.6708 -14.3298 -2.1355 0.9409
-3.6485 -14.6983 -2.1458 0.9407
-3.1272 -14.8597 -2.1516 0.9405
-2.5994 -15.0057 -2.1578 0.9403
-2.0657 -15.1359 -2.1645 0.9402
-1.5262 -15.2501 -2.1716 0.9400
-0.9815 -15.3480 -2.1791 0.9398
0.1229 -15.4942 -2.1954 0.9393
0.6815 -15.5420 -2.2043 0.9391
1.2439 -15.5726 -2.2135 0.9388
2.9501 -15.5585 -2.2437 0.9380
3.5235 -15.5178 -2.2547 0.9377
4.0986 -15.4587 -2.2660 0.9374
4.6747 -15.3809 -2.2777 0.9371
5.2517 -15.2842 -2.2899 0.9368
5.8283 -15.1686 -2.3024 0.9365
6.4047 -15.0337 -2.3154 0.9361
6.9799 -14.8793 -2.3287 0.9358
8.6933 -14.2975 -2.3709 0.9346
9.8187 -13.8094 -2.4008 0.9338
11.4700 -12.9268 -2.4487 0.9326
12.5335 -12.2329 -2.4815 0.9317
13.0525 -11.8552 -2.4984 0.9312
13.5622 -11.4575 -2.5156 0.9308
14.0616 -11.0397 -2.5330 0.9303
14.5496 -10.6015 -2.5507 0.9299
15.4880 -9.6652 -2.5867 0.9289
15.9365 -9.1674 -2.6050 0.9284
16.7874 -8.1141 -2.6419 0.9274
18.6008 -5.1636 -2.7352 0.9250
18.9019 -4.5233 -2.7538 0.9245
19.4351 -3.1984 -2.7908 0.9235
19.8700 -1.8197 -2.8271 0.9226
20.0484 -1.1125 -2.8450 0.9221
20.3230 0.3323 -2.8799 0.9212
20.4177 1.0676 -2.8969 0.9207
20.5232 3.3102 -2.9455 0.9194
20.4970 4.0655 -2.9608 0.9190
20.4392 4.8223 -2.9755 0.9187
20.3497 5.5791 -2.9897 0.9183
20.2279 6.3345 -3.0033 0.9179
20.0739 7.0867 -3.0163 0.9176
19.8876 7.8343 -3.0286 0.9173
18.8271 8.2087 -2.9101 0.9204
18.2408 8.7449 -2.8662 0.9215
17.9747 9.4250 -2.8757 0.9213
16.8339 10.4305 -2.8059 0.9231
-7.0406 -11.0735 -2.1617 0.9482
-6.6438 -11.3277 -2.1634 0.9482
-5.4063 -12.0170 -2.1708 0.9480
-4.9791 -12.2215 -2.1740 0.9479
-4.5449 -12.4130 -2.1777 0.9478
-2.7453 -13.0450 -2.1961 0.9474
-1.8121 -13.2777 -2.2076 0.9471
-0.3781 -13.5180 -2.2278 0.9467
0.5965 -13.6033 -2.2432 0.9463
1.5824 -13.6269 -2.2600 0.9459
2.0786 -13.6151 -2.2689 0.9457
2.5763 -13.5874 -2.2783 0.9455
4.0747 -13.4065 -2.3083 0.9448
4.5743 -13.3132 -2.3191 0.9445
6.0665 -12.9322 -2.3532 0.9437
6.5600 -12.7711 -2.3652 0.9435
7.5378 -12.3972 -2.3902 0.9429
8.0209 -12.1843 -2.4031 0.9426
8.4994 -11.9539 -2.4163 0.9423
10.8033 -10.5441 -2.4869 0.9406
11.6675 -9.8568 -2.5162 0.9400
12.0849 -9.4878 -2.5311 0.9396
12.4915 -9.1019 -2.5462 0.9393
13.2697 -8.2809 -2.5768 0.9386
13.6397 -7.8462 -2.5922 0.9382
14.9762 -5.9548 -2.6550 0.9368
15.2704 -5.4458 -2.6708 0.9364
15.8056 -4.3876 -2.7023 0.9357
17.0450 -0.3331 -2.8085 0.9332
17.1967 0.8992 -2.8368 0.9326
17.2400 2.7807 -2.8768 0.9317
17.0532 4.6754 -2.9130 0.9308
16.9387 5.3044 -2.9241 0.9306
16.6309 6.5514 -2.9447 0.9301
16.4376 7.1668 -2.9541 0.9299
16.2182 7.7752 -2.9629 0.9297
14.4815 8.9730 -2.8065 0.9333
14.2283 9.5392 -2.8220 0.9329
-6.2800 -9.8773 -2.2000 0.9535
-4.8202 -10.7140 -2.2082 0.9533
-4.4385 -10.8946 -2.2112 0.9532
-4.0507 -11.0633 -2.2145 0.9532
-2.8537 -11.4964 -2.2265 0.9529
-2.0307 -11.7226 -2.2362 0.9527
-1.6126 -11.8163 -2.2416 0.9526
-0.3361 -12.0181 -2.2598 0.9522
0.5299 -12.0847 -2.2736 0.9520
0.9663 -12.0972 -2.2810 0.9518
1.4046 -12.0955 -2.2888 0.9516
1.8442 -12.0797 -2.2968 0.9515
3.1671 -11.9454 -2.3228 0.9509
4.0483 -11.7825 -2.3417 0.9506
5.3599 -11.4259 -2.3722 0.9499
6.2219 -11.1126 -2.3938 0.9495
6.6476 -10.9332 -2.4051 0.9493
7.4860 -10.5286 -2.4282 0.9488
7.8976 -10.3035 -2.4401 0.9485
8.7075 -9.8134 -2.4660 0.9480
9.0997 -9.5425 -2.4784 0.9477
9.8606 -8.9561 -2.5038 0.9472
11.9127 -6.8527 -2.5832 0.9456
12.2146 -6.4545 -2.5967 0.9453
12.5034 -6.0434 -2.6103 0.9450
13.0390 -5.1846 -2.6375 0.9445
13.5149 -4.2796 -2.6646 0.9439
13.7288 -3.8111 -2.6781 0.9437
14.4120 -1.8434 -2.7310 0.9426
14.5370 -1.3313 -2.7438 0.9423
14.6427 -0.8125 -2.7565 0.9421
14.7286 -0.2879 -2.7689 0.9418
14.8670 1.8534 -2.8160 0.9408
14.8646 2.3976 -2.8301 0.9406
14.7920 3.4900 -2.8567 0.9400
14.5976 4.5713 -2.8752 0.9396
14.3135 5.6385 -2.8916 0.9393
14.1445 6.1670 -2.9003 0.9391
13.9568 6.6911 -2.9092 0.9389
13.0784 8.7682 -2.9596 0.9379
-5.6631 -8.9069 -2.2311 0.9578
-5.0166 -9.3031 -2.2342 0.9577
-4.6838 -9.4858 -2.2362 0.9577
-4.0005 -9.8194 -2.2413 0.9576
-2.9351 -10.2378 -2.2513 0.9574
-1.8282 -10.5539 -2.2641 0.9572
-1.0714 -10.7055 -2.2742 0.9570
0.8683 -10.8694 -2.3049 0.9564
1.2616 -10.8642 -2.3119 0.9563
2.4456 -10.7706 -2.3346 0.9558
4.0193 -10.4605 -2.3687 0.9552
4.4090 -10.3494 -2.3779 0.9550
4.7965 -10.2248 -2.3873 0.9549
5.5625 -9.9349 -2.4068 0.9545
5.9402 -9.7696 -2.4169 0.9543
7.0462 -9.1927 -2.4483 0.9537
7.4095 -8.9801 -2.4610 0.9535
8.1065 -8.5010 -2.4830 0.9531
8.4444 -8.2418 -2.4942 0.9529
9.4097 -7.3875 -2.5288 0.9523
10.0075 -6.7558 -2.5523 0.9518
10.2911 -6.4221 -2.5642 0.9516
10.8251 -5.7203 -2.5880 0.9512
11.0744 -5.3528 -2.6000 0.9510
11.5351 -4.5866 -2.6240 0.9505
12.1239 -3.3655 -2.6596 0.9499
12.6979 -1.6241 -2.7059 0.9490
12.8008 -1.1723 -2.7172 0.9488
13.0062 0.2126 -2.7496 0.9482
13.0503 1.6269 -2.7799 0.9477
12.9515 3.0557 -2.8129 0.9470
12.8835 3.5322 -2.8238 0.9468
12.7961 4.0071 -2.8344 0.9467
12.6894 4.4797 -2.8445 0.9465
12.4178 5.4142 -2.8635 0.9461
11.8665 6.7758 -2.8884 0.9457
11.6449 7.2154 -2.8957 0.9455
11.4049 7.6463 -2.9024 0.9454
-4.8607 -8.2876 -2.2581 0.9613
-4.5634 -8.4626 -2.2596 0.9613
-4.2603 -8.6280 -2.2615 0.9612
-3.9518 -8.7838 -2.2637 0.9612
-3.6380 -8.9297 -2.2662 0.9612
-2.9959 -9.1912 -2.2720 0.9611
-2.3361 -9.4113 -2.2790 0.9609
-1.3185 -9.6612 -2.2917 0.9607
0.0780 -9.8390 -2.3125 0.9604
0.7876 -9.8592 -2.3245 0.9602
1.5011 -9.8324 -2.3376 0.9600
2.2157 -9.7579 -2.3517 0.9597
4.3363 -9.2438 -2.3997 0.9589
5.0249 -8.9747 -2.4174 0.9586
5.6988 -8.6568 -2.4358 0.9583
6.0292 -8.4796 -2.4453 0.9581
6.6800 -8.0959 -2.4668 0.9578
6.9942 -7.8825 -2.4767 0.9576
7.8966 -7.1722 -2.5071 0.9571
8.1825 -6.9127 -2.5175 0.9569
8.4603 -6.6421 -2.5279 0.9568
8.7294 -6.3606 -2.5385 0.9566
8.9894 -6.0685 -2.5491 0.9564
9.2397 -5.7660 -2.5597 0.9562
9.4801 -5.4534 -2.5704 0.9561
9.7099 -5.1310 -2.5811 0.9559
10.1364 -4.4581 -2.6025 0.9555
10.6863 -3.3840 -2.6344 0.9550
11.1187 -2.2423 -2.6657 0.9545
11.2349 -1.8489 -2.6760 0.9543
11.3366 -1.4500 -2.6861 0.9541
11.4234 -1.0461 -2.6960 0.9540
11.5513 -0.2258 -2.7153 0.9536
11.5919 0.1895 -2.7247 0.9535
11.6165 0.6074 -2.7339 0.9533
11.6250 1.0272 -2.7428 0.9532
11.6172 1.4482 -2.7514 0.9530
11.5522 2.2913 -2.7679 0.9528
11.4949 2.7120 -2.7757 0.9526
11.4408 3.1366 -2.7881 0.9524
11.1430 4.3895 -2.8147 0.9520
11.0099 4.8004 -2.8228 0.9518
10.3115 6.3891 -2.8509 0.9514
10.0963 6.7690 -2.8568 0.9513
-4.7215 -7.4261 -2.2785 0.9643
-4.4543 -7.5946 -2.2796 0.9643
-3.9036 -7.9056 -2.2828 0.9642
-3.6206 -8.0476 -2.2848 0.9642
-3.3328 -8.1806 -2.2871 0.9642
-3.0405 -8.3042 -2.2897 0.9641
-2.7440 -8.4183 -2.2925 0.9641
-2.1391 -8.6177 -2.2990 0.9640
-1.5205 -8.7776 -2.3065 0.9639
-0.5717 -8.9412 -2.3198 0.9637
-0.2510 -8.9750 -2.3247 0.9636
0.3951 -9.0108 -2.3353 0.9634
0.7199 -9.0127 -2.3410 0.9633
1.6976 -8.9529 -2.3594 0.9630
2.6728 -8.7942 -2.3798 0.9627
2.9958 -8.7191 -2.3871 0.9626
3.6362 -8.5353 -2.4021 0.9624
3.9530 -8.4267 -2.4100 0.9623
4.2670 -8.3070 -2.4180 0.9621
4.5777 -8.1761 -2.4261 0.9620
4.8849 -8.0341 -2.4345 0.9619
5.7813 -7.5426 -2.4606 0.9615
6.3589 -7.1666 -2.4807 0.9612
7.1713 -6.5135 -2.5084 0.9608
7.6774 -6.0275 -2.5272 0.9605
7.9186 -5.7698 -2.5368 0.9603
8.1512 -5.5027 -2.5464 0.9602
8.5895 -4.9411 -2.5657 0.9599
9.1734 -4.0345 -2.5947 0.9594
9.5091 -3.3912 -2.6140 0.9591
9.6598 -3.0589 -2.6235 0.9590
10.0392 -2.0246 -2.6517 0.9586
10.1403 -1.6688 -2.6608 0.9584
4.0990 0.0671 -1.0614 0.9832
10.4317 1.6826 -2.7359 0.9573
10.3920 2.0612 -2.7431 0.9572
10.1078 3.5683 -2.7754 0.9567
10.0004 3.9395 -2.7829 0.9566
9.2420 5.7265 -2.8150 0.9561
9.0472 6.0656 -2.8202 0.9560
-4.3534 -6.8471 -2.2970 0.9668
-4.1069 -7.0023 -2.2981 0.9668
-3.3376 -7.4187 -2.3029 0.9667
-3.0721 -7.5406 -2.3050 0.9667
-2.5288 -7.7583 -2.3100 0.9666
-2.2516 -7.8538 -2.3129 0.9666
-1.9710 -7.9403 -2.3161 0.9666
-1.1114 -8.1441 -2.3269 0.9664
-0.5264 -8.2325 -2.3353 0.9663
0.3636 -8.2922 -2.3497 0.9661
0.6624 -8.2923 -2.3550 0.9660
0.9618 -8.2823 -2.3604 0.9659
4.4802 -7.3684 -2.4413 0.9648
4.7569 -7.2260 -2.4491 0.9647
5.0294 -7.0736 -2.4571 0.9646
5.2981 -6.9122 -2.4655 0.9644
5.5659 -6.7456 -2.4758 0.9643
6.0759 -6.3716 -2.4924 0.9641
6.7945 -5.7401 -2.5180 0.9637
7.2384 -5.2742 -2.5354 0.9635
7.4486 -5.0284 -2.5442 0.9633
8.3690 -3.6807 -2.5882 0.9627
8.5244 -3.3895 -2.5970 0.9626
8.6696 -3.0918 -2.6057 0.9625
8.8042 -2.7880 -2.6144 0.9623
9.1412 -1.8435 -2.6399 0.9620
9.2305 -1.5190 -2.6482 0.9619
9.3078 -1.1905 -2.6564 0.9617
3.7366 -0.0730 -1.0580 0.9846
3.7472 0.1959 -1.0623 0.9845
3.7496 0.3313 -1.0656 0.9845
3.8194 0.4762 -1.0896 0.9841
9.4334 1.8711 -2.7226 0.9608
9.3817 2.2135 -2.7288 0.9607
9.3167 2.5543 -2.7348 0.9606
8.9474 3.9011 -2.7632 0.9602
8.8212 4.2290 -2.7694 0.9601
-4.0348 -6.3461 -2.3130 0.9690
-3.8062 -6.4896 -2.3140 0.9690
-3.5728 -6.6256 -2.3153 0.9690
-3.3349 -6.7539 -2.3168 0.9690
-2.8465 -6.9870 -2.3205 0.9689
-2.3428 -7.1876 -2.3252 0.9689
-2.0858 -7.2754 -2.3279 0.9688
-0.4873 -7.6207 -2.3488 0.9685
0.0608 -7.6644 -2.3575 0.9684
0.3364 -7.6725 -2.3622 0.9684
0.6128 -7.6713 -2.3670 0.9683
0.8896 -7.6608 -2.3721 0.9682
1.1665 -7.6409 -2.3774 0.9682
1.4432 -7.6116 -2.3829 0.9681
1.7195 -7.5728 -2.3885 0.9680
2.2694 -7.4669 -2.4004 0.9679
2.5425 -7.3997 -2.4066 0.9678
2.8138 -7.3230 -2.4129 0.9677
4.1333 -6.7979 -2.4471 0.9673
4.3875 -6.6649 -2.4543 0.9672
5.1301 -6.2174 -2.4793 0.9668
5.3663 -6.0479 -2.4869 0.9667
5.5972 -5.8696 -2.4946 0.9666
5.8223 -5.6826 -2.5024 0.9665
6.0414 -5.4873 -2.5103 0.9664
6.2541 -5.2836 -2.5182 0.9663
7.0344 -4.3898 -2.5503 0.9659
7.6863 -3.3805 -2.5827 0.9655
8.0793 -2.5584 -2.6066 0.9652
8.1906 -2.2737 -2.6145 0.9651
8.2915 -1.9842 -2.6223 0.9649
8.3819 -1.6904 -2.6300 0.9648
8.4616 -1.3925 -2.6376 0.9647
3.5709 -0.4567 -1.1073 0.9850
3.5037 -0.3209 -1.0822 0.9854
3.4818 -0.1932 -1.0726 0.9855
3.4898 0.0571 -1.0735 0.9855
3.4929 0.3087 -1.0785 0.9854
3.5364 0.4409 -1.0961 0.9852
3.6188 0.5837 -1.1275 0.9848
8.6274 1.7112 -2.7053 0.9639
8.5784 2.0240 -2.7110 0.9638
8.5174 2.3351 -2.7164 0.9637
8.4442 2.6443 -2.7216 0.9636
8.2618 3.2546 -2.7312 0.9635
8.1528 3.5546 -2.7356 0.9635
8.0320 3.8507 -2.7397 0.9634
7.9225 4.1542 -2.7515 0.9633
7.7822 4.4437 -2.7564 0.9632
7.6303 4.7278 -2.7609 0.9631
-3.7561 -5.9077 -2.3271 0.9709
-3.5432 -6.0412 -2.3280 0.9709
-3.3258 -6.1675 -2.3292 0.9709
-3.1042 -6.2867 -2.3306 0.9709
-2.8786 -6.3985 -2.3322 0.9709
-2.4164 -6.5996 -2.3362 0.9708
-1.9408 -6.7698 -2.3410 0.9708
-1.6986 -6.8431 -2.3437 0.9707
-1.4538 -6.9082 -2.3466 0.9707
-0.9572 -7.0141 -2.3532 0.9706
-0.7060 -7.0546 -2.3567 0.9706
-0.4531 -7.0868 -2.3605 0.9705
-0.1989 -7.1104 -2.3645 0.9705
0.3127 -7.1320 -2.3730 0.9704
0.5696 -7.1299 -2.3776 0.9703
0.8267 -7.1190 -2.3823 0.9702
1.3407 -7.0710 -2.3923 0.9701
1.5971 -7.0338 -2.3976 0.9701
1.8527 -6.9878 -2.4031 0.9700
2.3602 -6.8694 -2.4144 0.9698
3.5941 -6.4192 -2.4455 0.9695
3.8325 -6.3031 -2.4521 0.9694
4.2983 -6.0453 -2.4656 0.9692
4.7527 -5.7601 -2.4823 0.9690
5.1831 -5.4354 -2.4965 0.9688
5.5919 -5.0789 -2.5110 0.9687
6.1592 -4.4878 -2.5332 0.9684
6.3348 -4.2765 -2.5406 0.9683
6.9624 -3.3652 -2.5705 0.9679
7.4569 -2.3613 -2.6000 0.9676
3.2914 -0.3014 -1.0987 0.9862
3.3019 0.0540 -1.0977 0.9862
7.8932 1.8623 -2.6958 0.9664
7.7672 2.4323 -2.7055 0.9663
7.6877 2.7140 -2.7100 0.9662
7.4961 3.2683 -2.7183 0.9661
7.2616 3.8076 -2.7255 0.9660
6.8561 4.5966 -2.7438 0.9658
-3.5100 -5.5206 -2.3394 0.9726
-3.1077 -5.7631 -2.3415 0.9726
-2.9005 -5.8742 -2.3428 0.9726
-2.6896 -5.9784 -2.3443 0.9725
-2.4752 -6.0756 -2.3461 0.9725
-2.2575 -6.1656 -2.3480 0.9725
-1.8129 -6.3238 -2.3525 0.9724
-1.3578 -6.4521 -2.3578 0.9724
-1.1268 -6.5047 -2.3608 0.9723
-0.6592 -6.5869 -2.3673 0.9723
-0.1856 -6.6375 -2.3746 0.9722
0.2919 -6.6561 -2.3826 0.9721
0.5315 -6.6532 -2.3868 0.9720
1.9646 -6.4639 -2.4159 0.9717
2.6660 -6.2580 -2.4325 0.9715
2.8958 -6.1730 -2.4383 0.9715
3.5688 -5.8694 -2.4565 0.9712
3.7867 -5.7523 -2.4628 0.9712
4.2133 -5.4969 -2.4768 0.9710
4.4225 -5.3599 -2.4850 0.9709
5.1992 -4.7223 -2.5117 0.9706
5.3799 -4.5450 -2.5185 0.9705
5.5546 -4.3609 -2.5254 0.9704
6.1885 -3.5599 -2.5531 0.9701
6.5883 -2.8976 -2.5738 0.9699
6.8151 -2.4304 -2.5875 0.9697
7.0082 -1.9455 -2.6009 0.9696
7.0915 -1.6971 -2.6076 0.9695
7.2308 -1.1900 -2.6206 0.9693
3.1514 0.0515 -1.1271 0.9867
3.1515 0.1648 -1.1286 0.9867
3.1501 0.2784 -1.1309 0.9867
3.1507 0.3928 -1.1354 0.9866
7.3451 1.4569 -2.6778 0.9687
7.2470 1.9869 -2.6872 0.9686
7.1827 2.2493 -2.6916 0.9685
7.0239 2.7669 -2.6996 0.9684
6.9295 3.0213 -2.7033 0.9684
6.7114 3.5191 -2.7100 0.9683
6.4550 3.9996 -2.7156 0.9683
-3.1041 -5.2926 -2.3513 0.9741
-2.9135 -5.4030 -2.3524 0.9740
-2.7192 -5.5070 -2.3536 0.9740
-2.1160 -5.7794 -2.3585 0.9740
-1.6992 -5.9269 -2.3628 0.9739
-1.4869 -5.9901 -2.3652 0.9739
-1.0559 -6.0952 -2.3706 0.9738
-0.6176 -6.1711 -2.3767 0.9738
-0.1739 -6.2173 -2.3835 0.9737
0.7221 -6.2189 -2.3992 0.9735
1.6167 -6.0976 -2.4175 0.9733
1.8382 -6.0480 -2.4224 0.9733
2.4934 -5.8528 -2.4380 0.9731
2.7078 -5.7724 -2.4434 0.9731
2.9199 -5.6844 -2.4489 0.9730
3.1292 -5.5889 -2.4546 0.9729
3.9366 -5.1358 -2.4798 0.9727
4.5015 -4.7206 -2.4997 0.9724
4.6798 -4.5675 -2.5060 0.9724
5.9002 -3.1178 -2.5573 0.9718
6.0234 -2.9114 -2.5638 0.9717
6.1393 -2.7001 -2.5702 0.9717
6.2477 -2.4842 -2.5766 0.9716
6.3484 -2.2640 -2.5829 0.9715
6.4412 -2.0397 -2.5892 0.9715
6.5259 -1.8116 -2.5954 0.9714
3.0748 -0.5060 -1.1942 0.9867
3.0254 0.1582 -1.1610 0.9871
6.8258 1.3538 -2.6667 0.9706
6.7840 1.6006 -2.6711 0.9706
6.6724 2.0895 -2.6794 0.9705
6.6026 2.3309 -2.6833 0.9705
6.5235 2.5698 -2.6869 0.9704
6.4352 2.8057 -2.6903 0.9704
6.3379 3.0385 -2.6935 0.9703
6.2315 3.2675 -2.6964 0.9703
6.1164 3.4925 -2.6991 0.9703
5.9927 3.7132 -2.7016 0.9703
-2.9187 -4.9764 -2.3612 0.9754
-2.7394 -5.0800 -2.3622 0.9754
-1.9893 -5.4330 -2.3680 0.9753
-1.7945 -5.5054 -2.3699 0.9753
-1.3976 -5.6303 -2.3743 0.9752
-0.9923 -5.7282 -2.3793 0.9752
-0.3723 -5.8234 -2.3882 0.9751
-0.1634 -5.8410 -2.3915 0.9751
0.4674 -5.8512 -2.4024 0.9749
0.6782 -5.8403 -2.4063 0.9749
0.8888 -5.8220 -2.4104 0.9749
1.7252 -5.6764 -2.4281 0.9747
1.9316 -5.6218 -2.4329 0.9746
2.9345 -5.2413 -2.4584 0.9744
3.5044 -4.9286 -2.4750 0.9742
4.3834 -4.2783 -2.5069 0.9739
4.8522 -3.8094 -2.5248 0.9737
4.9977 -3.6415 -2.5308 0.9736
5.1373 -3.4681 -2.5368 0.9736
5.2710 -3.2893 -2.5429 0.9735
5.6337 -2.7231 -2.5610 0.9733
5.8417 -2.3228 -2.5729 0.9732
6.1694 -1.4764 -2.5963 0.9730
6.2320 -1.2568 -2.6019 0.9729
2.9362 -0.4832 -1.2179 0.9872
2.8960 -0.2652 -1.1902 0.9875
2.9024 -0.1611 -1.1897 0.9875
2.9084 0.0476 -1.1905 0.9875
2.9046 0.2566 -1.1934 0.9875
2.8992 0.3614 -1.1958 0.9875
2.9266 0.4721 -1.2132 0.9873
6.2797 1.7217 -2.6650 0.9722
6.2226 1.9486 -2.6687 0.9722
5.8090 3.0460 -2.6845 0.9720
5.7013 3.2555 -2.6870 0.9720
-2.5822 -4.7885 -2.3710 0.9765
-2.4098 -4.8803 -2.3721 0.9765
-1.6912 -5.1885 -2.3783 0.9765
-1.5052 -5.2501 -2.3803 0.9765
-1.3170 -5.3056 -2.3824 0.9764
-1.1269 -5.3546 -2.3848 0.9764
-0.9349 -5.3972 -2.3872 0.9764
-0.5467 -5.4629 -2.3927 0.9763
0.0437 -5.5114 -2.4020 0.9762
0.2418 -5.5141 -2.4055 0.9762
0.4402 -5.5101 -2.4090 0.9762
0.8368 -5.4815 -2.4166 0.9761
1.0347 -5.4569 -2.4206 0.9761
1.2319 -5.4255 -2.4247 0.9760
1.4283 -5.3872 -2.4289 0.9760
1.8176 -5.2901 -2.4378 0.9759
2.7597 -4.9289 -2.4619 0.9757
3.1188 -4.7377 -2.4722 0.9756
3.6381 -4.4092 -2.4913 0.9754
3.8022 -4.2851 -2.4967 0.9753
4.2689 -3.8773 -2.5133 0.9752
4.6921 -3.4189 -2.5302 0.9750
4.9473 -3.0873 -2.5415 0.9749
5.0662 -2.9143 -2.5472 0.9748
5.1790 -2.7367 -2.5528 0.9748
5.2855 -2.5547 -2.5585 0.9747
5.4790 -2.1786 -2.5697 0.9746
5.5656 -1.9848 -2.5752 0.9745
5.7178 -1.5873 -2.5861 0.9744
2.7967 -0.2561 -1.2240 0.9878
2.7938 -0.1550 -1.2195 0.9879
2.7967 -0.0546 -1.2191 0.9879
2.7976 0.1463 -1.2209 0.9879
2.7954 0.2470 -1.2230 0.9878
2.8018 0.3493 -1.2305 0.9878
2.8085 0.4530 -1.2398 0.9877
5.8767 1.6112 -2.6557 0.9738
5.8228 1.8234 -2.6592 0.9737
5.7608 2.0338 -2.6625 0.9737
5.6908 2.2418 -2.6657 0.9737
5.4337 2.8491 -2.6739 0.9736
5.3326 3.0450 -2.6762 0.9736
5.2241 3.2369 -2.6784 0.9735
-2.4394 -4.5237 -2.3790 0.9776
-2.1107 -4.6915 -2.3813 0.9776
-1.7710 -4.8368 -2.3842 0.9776
-1.5974 -4.9008 -2.3859 0.9775
-1.2438 -5.0109 -2.3899 0.9775
-1.0642 -5.0570 -2.3921 0.9775
-0.7002 -5.1307 -2.3969 0.9774
-0.5162 -5.1582 -2.3996 0.9774
-0.3312 -5.1794 -2.4024 0.9774
-0.1453 -5.1944 -2.4053 0.9774
0.4155 -5.2008 -2.4150 0.9773
2.0754 -4.8715 -2.4511 0.9769
2.6016 -4.6466 -2.4650 0.9768
2.7720 -4.5591 -2.4698 0.9768
2.9397 -4.4655 -2.4747 0.9767
3.2686 -4.2644 -2.4871 0.9766
3.5819 -4.0368 -2.4981 0.9765
3.7321 -3.9137 -2.5033 0.9764
4.6557 -2.9054 -2.5403 0.9761
4.7670 -2.7422 -2.5456 0.9761
4.8725 -2.5747 -2.5509 0.9760
5.1527 -2.0488 -2.5667 0.9759
5.2335 -1.8664 -2.5719 0.9758
2.7218 -0.5489 -1.2852 0.9878
2.7120 -0.3469 -1.2656 0.9880
2.7128 -0.2484 -1.2610 0.9881
2.7154 -0.1507 -1.2589 0.9881
2.7160 0.3386 -1.2669 0.9880
2.7109 0.4373 -1.2711 0.9880
2.7284 0.5412 -1.2875 0.9878
5.5593 1.3116 -2.6440 0.9751
5.5158 1.5122 -2.6474 0.9751
5.4647 1.7113 -2.6507 0.9751
5.2666 2.2962 -2.6595 0.9750
5.0027 2.8566 -2.6666 0.9749
4.7918 3.2126 -2.6704 0.9749
-2.6085 -4.1027 -2.3848 0.9786
-2.3090 -4.2820 -2.3863 0.9786
-2.1548 -4.3639 -2.3873 0.9785
-1.9978 -4.4406 -2.3885 0.9785
-1.8382 -4.5119 -2.3898 0.9785
-1.6761 -4.5778 -2.3913 0.9785
-1.5118 -4.6381 -2.3929 0.9785
-1.3454 -4.6929 -2.3947 0.9785
-1.0070 -4.7853 -2.3987 0.9784
-0.6625 -4.8545 -2.4033 0.9784
-0.1374 -4.9139 -2.4113 0.9783
0.0390 -4.9216 -2.4142 0.9783
0.2159 -4.9233 -2.4173 0.9783
0.3929 -4.9189 -2.4205 0.9783
0.7468 -4.8917 -2.4273 0.9782
0.9232 -4.8689 -2.4309 0.9782
1.6205 -4.7165 -2.4463 0.9780
1.7917 -4.6631 -2.4504 0.9780
1.9613 -4.6037 -2.4546 0.9780
2.1289 -4.5384 -2.4589 0.9779
2.4578 -4.3897 -2.4678 0.9778
2.7766 -4.2178 -2.4770 0.9778
2.9322 -4.1240 -2.4821 0.9777
3.0869 -4.0273 -2.4891 0.9776
3.3817 -3.8112 -2.4993 0.9776
3.7940 -3.4459 -2.5141 0.9774
3.9229 -3.3142 -2.5191 0.9774
4.0474 -3.1775 -2.5241 0.9773
4.1671 -3.0363 -2.5291 0.9773
4.2818 -2.8905 -2.5341 0.9772
4.3915 -2.7405 -2.5391 0.9772
4.4959 -2.5862 -2.5442 0.9772
4.5948 -2.4280 -2.5492 0.9771
4.6881 -2.2660 -2.5542 0.9771
4.7757 -2.1004 -2.5592 0.9770
4.8574 -1.9314 -2.5641 0.9770
4.9330 -1.7592 -2.5690 0.9769
2.6742 -0.5393 -1.3382 0.9879
2.6562 -0.4371 -1.3205 0.9881
2.6477 -0.1469 -1.3007 0.9883
2.6442 0.0432 -1.2972 0.9883
2.6419 0.1381 -1.2977 0.9883
2.6379 0.4255 -1.3107 0.9882
2.8482 0.6720 -1.4355 0.9870
5.0864 1.7956 -2.6459 0.9763
4.8782 2.3387 -2.6536 0.9762
4.7952 2.5143 -2.6559 0.9762
4.7055 2.6869 -2.6579 0.9761
4.5067 3.0215 -2.6615 0.9761
-2.4735 -3.8903 -2.3916 0.9794
-2.3329 -3.9777 -2.3923 0.9794
-1.8942 -4.2104 -2.3951 0.9794
-1.5891 -4.3402 -2.3978 0.9794
-1.4333 -4.3972 -2.3993 0.9794
-1.2755 -4.4490 -2.4010 0.9794
-1.1159 -4.4953 -2.4028 0.9793
-0.9546 -4.5362 -2.4048 0.9793
-0.7919 -4.5715 -2.4069 0.9793
-0.4629 -4.6255 -2.4116 0.9793
0.2046 -4.6651 -2.4225 0.9792
0.5400 -4.6503 -2.4287 0.9791
0.7075 -4.6342 -2.4320 0.9791
0.8745 -4.6122 -2.4354 0.9791
1.0410 -4.5845 -2.4389 0.9790
1.2066 -4.5509 -2.4425 0.9790
1.3712 -4.5115 -2.4462 0.9790
2.0155 -4.2965 -2.4620 0.9788
2.1720 -4.2285 -2.4661 0.9788
2.6276 -3.9915 -2.4791 0.9787
2.7748 -3.9025 -2.4841 0.9787
3.1990 -3.6053 -2.5005 0.9785
3.3324 -3.4946 -2.5051 0.9785
3.4621 -3.3791 -2.5098 0.9784
3.7094 -3.1338 -2.5192 0.9784
3.8266 -3.0043 -2.5239 0.9783
3.9394 -2.8704 -2.5286 0.9783
4.0474 -2.7323 -2.5334 0.9782
4.4296 -2.1410 -2.5523 0.9781
4.5118 -1.9843 -2.5570 0.9780
4.5885 -1.8245 -2.5617 0.9780
4.6594 -1.6616 -2.5663 0.9780
4.7244 -1.4960 -2.5709 0.9779
2.6965 -0.6453 -1.4384 0.9876
2.6242 -0.1456 -1.3635 0.9882
2.6167 0.2312 -1.3628 0.9882
2.6155 0.3261 -1.3674 0.9882
2.6139 0.4216 -1.3735 0.9881
2.6439 0.6238 -1.4092 0.9878
4.8950 1.3420 -2.6331 0.9774
4.8490 1.5185 -2.6360 0.9774
4.7964 1.6932 -2.6387 0.9773
4.6714 2.0368 -2.6438 0.9773
4.5993 2.2049 -2.6460 0.9773
4.5208 2.3705 -2.6481 0.9773
4.3452 2.6923 -2.6518 0.9772
-2.3490 -3.6946 -2.3979 0.9802
-1.7987 -3.9982 -2.4012 0.9802
-1.5089 -4.1212 -2.4037 0.9802
-1.3609 -4.1753 -2.4052 0.9802
-1.2110 -4.2242 -2.4068 0.9802
-1.0594 -4.2681 -2.4086 0.9801
-0.9063 -4.3067 -2.4105 0.9801
-0.7518 -4.3401 -2.4125 0.9801
-0.4394 -4.3909 -2.4169 0.9801
-0.2819 -4.4082 -2.4193 0.9801
-0.1236 -4.4201 -2.4218 0.9800
0.1942 -4.4275 -2.4273 0.9800
0.5124 -4.4128 -2.4332 0.9799
0.8298 -4.3761 -2.4395 0.9799
1.1446 -4.3172 -2.4463 0.9798
1.4556 -4.2364 -2.4534 0.9798
1.6091 -4.1877 -2.4571 0.9797
1.9112 -4.0742 -2.4648 0.9797
2.0595 -4.0094 -2.4687 0.9797
2.3492 -3.8638 -2.4769 0.9796
2.6301 -3.6991 -2.4859 0.9795
2.7685 -3.6119 -2.4926 0.9795
3.5136 -2.9683 -2.5192 0.9792
3.6243 -2.8454 -2.5237 0.9792
3.8326 -2.5873 -2.5327 0.9791
3.9300 -2.4525 -2.5372 0.9791
4.0226 -2.3140 -2.5417 0.9791
4.1102 -2.1719 -2.5462 0.9790
4.1929 -2.0266 -2.5506 0.9790
4.3424 -1.7267 -2.5595 0.9789
4.4091 -1.5724 -2.5638 0.9789
2.6650 -0.6378 -1.5009 0.9876
2.6041 -0.4286 -1.4455 0.9880
2.6037 -0.2385 -1.4320 0.9881
2.5999 -0.0508 -1.4243 0.9882
2.5977 0.0425 -1.4230 0.9882
2.5881 0.4174 -1.4358 0.9881
2.6146 0.6169 -1.4713 0.9878
4.4756 1.7631 -2.6347 0.9783
4.4133 1.9242 -2.6370 0.9783
4.3450 2.0830 -2.6391 0.9783
4.2706 2.2393 -2.6411 0.9782
4.1904 2.3928 -2.6429 0.9782
-2.1068 -3.5921 -2.4043 0.9809
-1.8449 -3.7364 -2.4059 0.9809
-1.1514 -4.0163 -2.4122 0.9809
-0.5667 -4.1525 -2.4196 0.9808
-0.2679 -4.1901 -2.4241 0.9808
-0.1175 -4.2012 -2.4265 0.9808
0.0334 -4.2071 -2.4290 0.9808
0.3358 -4.2032 -2.4344 0.9807
1.3826 -4.0240 -2.4565 0.9805
1.6725 -3.9258 -2.4637 0.9805
1.9556 -3.8072 -2.4711 0.9804
2.3645 -3.5918 -2.4828 0.9803
2.4968 -3.5115 -2.4876 0.9803
2.7541 -3.3378 -2.4984 0.9802
2.8768 -3.2422 -2.5025 0.9802
2.9963 -3.1421 -2.5067 0.9801
3.1123 -3.0376 -2.5108 0.9801
3.3333 -2.8160 -2.5193 0.9800
3.5386 -2.5783 -2.5278 0.9800
3.7269 -2.3257 -2.5363 0.9799
3.8971 -2.0593 -2.5448 0.9798
3.9751 -1.9214 -2.5491 0.9798
4.1162 -1.6367 -2.5574 0.9797
2.6357 -0.6307 -1.5647 0.9876
2.5835 -0.5210 -1.5216 0.9879
2.5824 -0.4250 -1.5110 0.9880
2.5808 -0.2363 -1.4963 0.9881
2.5779 -0.0504 -1.4886 0.9882
2.5759 0.0421 -1.4874 0.9882
2.5711 0.2272 -1.4902 0.9881
2.5597 0.5077 -1.5066 0.9880
2.5852 0.6100 -1.5336 0.9878
2.6931 0.7384 -1.6122 0.9872
4.3369 1.3581 -2.6238 0.9792
4.2894 1.5143 -2.6263 0.9792
4.2360 1.6687 -2.6286 0.9792
4.1768 1.8211 -2.6307 0.9792
4.0414 2.1191 -2.6346 0.9791
3.9653 2.2642 -2.6363 0.9791
3.7970 2.5456 -2.6393 0.9791
