ply
format ascii 1.0
element vertex 1125
property float32 x
property float32 y
property float32 z
property float32 I
end_header
-10.5825 47.4598 8.5740 0.8208
-10.7572 41.1956 7.5075 0.8412
-10.5477 35.1593 6.4725 0.8615
-9.3333 22.1030 4.2306 0.9071
-13.3869 26.2490 5.1956 0.8872
-14.6181 26.2787 5.3023 0.8850
-15.9026 26.3097 5.4207 0.8826
-11.3647 16.0632 3.4696 0.9232
-11.3926 14.9312 3.3116 0.9266
-11.4630 12.0638 2.9343 0.9346
-11.6394 11.3975 2.8724 0.9360
-12.5349 11.4194 2.9899 0.9334
-13.5082 11.4434 3.1216 0.9306
-14.5727 11.4695 3.2700 0.9274
-17.0460 11.5305 3.6287 0.9198
-18.5021 11.5665 3.8474 0.9152
-20.2594 11.6718 4.1227 0.9094
-26.8766 11.8279 5.1777 0.8876
-40.3507 -25.2017 8.3886 0.8243
-37.2618 -25.1828 7.9301 0.8330
-33.8488 -30.8106 8.0708 0.8303
-8.7799 47.3463 7.3768 0.8229
-10.5673 47.3917 7.4384 0.8216
-10.5546 35.1825 5.6271 0.8619
-8.8769 26.1304 4.2277 0.8943
-9.3313 22.0984 3.6748 0.9075
-11.6681 25.0716 4.2364 0.8941
-11.3686 16.0688 3.0154 0.9234
-11.3963 14.9361 2.8781 0.9268
-11.4216 13.9008 2.7562 0.9298
-11.4449 12.9484 2.6474 0.9325
-12.5308 11.4157 2.5968 0.9337
-13.5036 11.4394 2.7112 0.9309
-17.0392 11.5259 3.1514 0.9201
-18.4942 11.5616 3.3413 0.9155
-22.3395 11.8194 3.8718 0.9028
-24.2083 11.7121 4.1198 0.8969
-33.5450 -24.4761 6.3614 0.8453
-33.7780 -26.5624 6.5829 0.8404
-34.4540 -31.3615 7.1373 0.8282
-8.7880 39.4120 5.2583 0.8497
-10.2888 39.4018 5.3030 0.8485
-8.8749 26.1244 3.5929 0.8947
-9.3744 24.6421 3.4333 0.8991
-9.3294 22.0938 3.1231 0.9078
-12.1970 26.2079 3.7643 0.8899
-15.8945 26.2963 4.0013 0.8834
-11.3421 17.3228 2.6963 0.9199
-11.3725 16.0742 2.5641 0.9236
-11.4000 14.9410 2.4473 0.9270
-11.4252 13.9051 2.3436 0.9300
-11.4483 12.9523 2.2511 0.9326
-11.6321 11.3903 2.1200 0.9364
-12.5267 11.4120 2.2067 0.9339
-13.4990 11.4355 2.3038 0.9311
-17.0324 11.5213 2.6778 0.9204
-18.4865 11.5567 2.8390 0.9158
-20.2412 11.6613 3.0420 0.9101
-33.7828 -26.5661 5.5965 0.8408
-33.7355 -28.5546 5.7555 0.8367
-33.7687 -30.7377 5.9463 0.8318
-33.9734 -33.2393 6.1893 0.8255
-8.7327 47.0916 5.1430 0.8247
-8.7862 39.4037 4.3352 0.8501
-8.7883 29.2948 3.2842 0.8842
-8.5959 25.3030 2.8696 0.8981
-9.3274 22.0893 2.5748 0.9080
-12.1941 26.2017 3.1034 0.8902
-11.3462 17.3289 2.2242 0.9200
-11.4037 14.9458 2.0187 0.9272
-11.4729 12.0742 1.7885 0.9352
-11.6285 11.3867 1.7477 0.9366
-11.4745 9.7205 1.6148 0.9413
-17.0257 11.5168 2.2072 0.9206
-20.1202 11.5916 2.4935 0.9108
-22.1957 11.7433 2.6964 0.9039
-30.0016 11.9324 3.4671 0.8782
-42.1913 15.0440 4.8100 0.8351
-42.2311 13.3641 4.7565 0.8368
-43.3824 12.0274 4.8342 0.8343
-33.8347 -30.7979 4.9130 0.8319
-33.7647 -33.0352 5.0724 0.8269
9.4160 37.0267 3.2342 0.8578
8.1836 37.8390 3.2772 0.8561
2.4892 36.0876 3.0622 0.8648
1.1785 35.8796 3.0389 0.8658
-0.1142 35.7234 3.0241 0.8664
-1.3980 35.6174 3.0174 0.8667
-2.6813 35.5605 3.0188 0.8666
-3.9743 35.5617 3.0291 0.8662
-6.5012 35.0579 3.0183 0.8666
-8.7945 29.3154 2.5909 0.8844
-8.8292 25.9897 2.3236 0.8957
-10.6164 27.9067 2.5275 0.8870
-14.8039 24.4920 2.4226 0.8915
-11.4074 14.9506 1.5919 0.9273
-11.4550 12.9600 1.4642 0.9329
-24.3697 11.7902 2.2917 0.8970
-26.9307 11.8518 2.4908 0.8886
-29.9833 11.9252 2.7315 0.8785
-42.2002 15.0472 3.7927 0.8354
6.6594 30.7913 1.9535 0.8814
5.4865 30.6793 1.9326 0.8826
4.3388 30.5830 1.9155 0.8836
2.0992 30.4344 1.8917 0.8849
0.9979 30.3821 1.8850 0.8853
-0.0971 30.3484 1.8819 0.8855
-2.2862 30.3189 1.8854 0.8853
-3.3888 30.3231 1.8921 0.8849
-4.5025 30.3399 1.9020 0.8843
-5.6318 30.3697 1.9153 0.8836
-7.7580 29.7098 1.9041 0.8842
-8.8006 29.3358 1.8992 0.8845
-8.8272 25.9838 1.7017 0.8959
-11.3314 24.3481 1.6653 0.8980
-12.4307 24.3740 1.6967 0.8961
-14.7849 24.4605 1.7724 0.8918
-11.3542 17.3412 1.2853 0.9203
-11.3840 16.0904 1.2222 0.9240
-11.4110 14.9554 1.1665 0.9274
-10.4426 10.9898 0.9401 0.9411
-10.4387 10.2217 0.9060 0.9431
-13.4853 11.4240 1.0960 0.9316
-14.5468 11.4492 1.1479 0.9285
-15.7362 11.4920 1.2083 0.9249
-24.2475 10.6709 1.6428 0.8993
-42.2091 15.0504 2.7788 0.8356
-33.3160 -24.3090 2.5574 0.8477
3.9097 27.5584 1.0975 0.8946
1.8970 27.5024 1.0870 0.8955
-1.0778 27.4590 1.0836 0.8958
-3.0682 27.4546 1.0893 0.8953
-4.0752 27.4607 1.0947 0.8948
-5.0945 27.4722 1.1017 0.8942
-6.1296 27.4895 1.1106 0.8934
-7.0343 26.9385 1.0978 0.8945
-8.8252 25.9780 1.0818 0.8960
-9.9058 26.0390 1.0985 0.8945
-11.3288 24.3424 1.0587 0.8981
-12.4277 24.3682 1.0786 0.8963
-11.3582 17.3472 0.8176 0.9203
-11.3878 16.0958 0.7775 0.9241
-11.4147 14.9601 0.7420 0.9274
-11.4392 13.9222 0.7105 0.9304
-12.5106 11.3972 0.6673 0.9345
-13.4808 11.4201 0.6967 0.9317
-15.7972 11.5365 0.7713 0.9247
-16.8887 9.7298 0.7685 0.9249
-24.2017 11.7089 1.0602 0.8980
-26.9396 11.8557 1.1606 0.8889
-29.9469 11.9107 1.2708 0.8790
-31.6401 11.2818 1.3245 0.8742
-41.7330 11.5702 1.7076 0.8408
-41.8832 10.0021 1.6980 0.8417
4.5445 25.4119 0.4361 0.9019
3.6030 25.3963 0.4333 0.9025
1.7500 25.3711 0.4296 0.9033
0.8330 25.3614 0.4286 0.9035
-0.0811 25.3547 0.4283 0.9035
-0.9950 25.3505 0.4285 0.9035
-1.9114 25.3481 0.4294 0.9033
-3.7617 25.3483 0.4329 0.9026
-7.4713 24.9046 0.4392 0.9012
-8.4668 24.9230 0.4446 0.9001
-8.9444 21.1821 0.3884 0.9121
-8.9883 19.3134 0.3598 0.9183
-9.0595 16.2862 0.3148 0.9282
-11.0260 18.2417 0.3601 0.9183
-9.4350 9.9295 0.2314 0.9467
-16.8348 11.3877 0.3433 0.9219
-22.1811 11.7356 0.4239 0.9045
-29.9289 11.9035 0.5441 0.8791
-32.7672 11.6837 0.5876 0.8701
-32.8255 10.3877 0.5816 0.8713
-33.0704 -24.1299 0.6915 0.8489
2.4971 23.7180 -0.1343 0.9090
1.6358 23.7160 -0.1338 0.9093
0.7789 23.7135 -0.1336 0.9095
-0.0758 23.7105 -0.1335 0.9095
-0.9305 23.7071 -0.1336 0.9095
-3.5162 23.6938 -0.1349 0.9086
-4.3928 23.6884 -0.1356 0.9081
-5.2807 23.6824 -0.1366 0.9075
-6.9771 23.2574 -0.1367 0.9074
-8.9924 19.3221 -0.1200 0.9183
-9.0301 17.7062 -0.1119 0.9236
-9.0631 16.2926 -0.1050 0.9281
-11.0232 18.2371 -0.1200 0.9183
-11.3661 17.3594 -0.1168 0.9204
-11.4219 14.9697 -0.1060 0.9274
-11.4462 13.9307 -0.1015 0.9304
-9.7332 9.5309 -0.0767 0.9470
-12.5026 11.3900 -0.0952 0.9346
-13.4718 11.4125 -0.0994 0.9318
-14.5315 11.4371 -0.1041 0.9287
-26.8714 11.8256 -0.1653 0.8892
-25.2423 10.0395 -0.1529 0.8970
-44.4722 -17.6661 -0.2694 0.8258
-36.4725 -17.6267 -0.2281 0.8504
-33.3173 -17.6097 -0.2122 0.8601
-28.1532 -17.5834 -0.1869 0.8757
-20.7406 -17.5553 -0.1530 0.8970
-17.9335 -17.5460 -0.1413 0.9045
5.6740 22.3119 -0.6483 0.9120
3.1691 22.3383 -0.6353 0.9137
2.3523 22.3426 -0.6326 0.9140
0.7339 22.3451 -0.6295 0.9144
-0.0715 22.3431 -0.6291 0.9145
-2.4953 22.3283 -0.6326 0.9140
-4.1369 22.3084 -0.6389 0.9132
-4.9714 22.2952 -0.6432 0.9126
-6.6785 22.2621 -0.6545 0.9112
-7.4329 21.8795 -0.6507 0.9117
-8.3171 21.8628 -0.6587 0.9106
-9.0339 17.7136 -0.5599 0.9235
-11.0205 18.2326 -0.5999 0.9183
-11.3701 17.3655 -0.5845 0.9203
-11.3992 16.1120 -0.5557 0.9241
-11.4497 13.9349 -0.5078 0.9304
-11.4719 12.9790 -0.4878 0.9330
-11.4924 12.0947 -0.4698 0.9354
-12.4986 11.3863 -0.4761 0.9346
-11.3006 9.5732 -0.4170 0.9425
-16.8218 11.3789 -0.5719 0.9219
-16.9002 9.7364 -0.5492 0.9249
-18.4667 9.7703 -0.5883 0.9198
-24.3080 11.7604 -0.7604 0.8976
-25.1180 9.9901 -0.7612 0.8975
-26.6725 9.5105 -0.7974 0.8929
-32.0875 10.1542 -0.9477 0.8740
-41.7562 11.5766 -1.2201 0.8408
-40.1562 -17.6520 -1.2351 0.8390
-33.3322 -17.6175 -1.0616 0.8600
-30.5872 -17.6048 -0.9937 0.8683
-28.1653 -17.5910 -0.9351 0.8756
-26.0157 -17.5821 -0.8842 0.8819
-24.0858 -17.5741 -0.8395 0.8875
-20.7478 -17.5614 -0.7654 0.8969
-19.2841 -17.5532 -0.7343 0.9009
5.3709 21.1199 -1.1052 0.9164
3.0032 21.1686 -1.0843 0.9179
2.2297 21.1781 -1.0800 0.9182
1.4612 21.1843 -1.0769 0.9185
0.6959 21.1872 -1.0751 0.9186
-0.0678 21.1870 -1.0745 0.9186
-0.8315 21.1835 -1.0751 0.9186
-3.1393 21.1538 -1.0845 0.9179
-3.9197 21.1372 -1.0902 0.9175
-4.7087 21.1172 -1.0972 0.9170
-7.8593 20.6594 -1.1210 0.9153
-9.0005 19.3395 -1.0818 0.9181
-9.0377 17.7210 -1.0088 0.9234
-11.3741 17.3716 -1.0530 0.9202
-11.4030 16.1174 -1.0013 0.9240
-11.4752 12.9828 -0.8787 0.9330
-11.4956 12.0981 -0.8464 0.9353
-9.7273 9.5250 -0.6904 0.9469
-12.4946 11.3827 -0.8572 0.9345
-13.4628 11.4049 -0.8948 0.9318
-15.6867 11.4559 -0.9851 0.9252
-15.4554 9.6619 -0.9244 0.9296
-16.7692 9.6610 -0.9815 0.9254
-22.4801 9.8931 -1.2456 0.9063
-32.2384 10.2019 -1.7149 0.8733
-38.8585 10.7732 -2.0450 0.8509
-40.0423 8.0497 -2.0713 0.8491
-42.3405 3.8333 -2.1560 0.8434
-42.1998 2.2919 -2.1433 0.8443
-41.7845 -0.7442 -2.1194 0.8459
-39.5284 -9.4222 -2.0608 0.8498
-39.0138 -10.7987 -2.0529 0.8503
-38.4616 -12.1536 -2.0456 0.8508
-34.9814 -15.3772 -1.9379 0.8581
-33.7069 -16.2902 -1.8986 0.8608
-30.6000 -17.6121 -1.7905 0.8681
-26.0263 -17.5892 -1.5931 0.8818
-24.0950 -17.5809 -1.5127 0.8874
-22.3514 -17.5767 -1.4420 0.8924
-19.2905 -17.5591 -1.3229 0.9008
-17.9446 -17.5568 -1.2732 0.9043
4.3396 20.0654 -1.5053 0.9210
3.5923 20.0875 -1.4962 0.9214
2.1181 20.1178 -1.4832 0.9221
1.3882 20.1262 -1.4792 0.9223
0.6612 20.1300 -1.4768 0.9224
-0.0644 20.1295 -1.4759 0.9224
-0.7899 20.1244 -1.4767 0.9224
-1.5167 20.1150 -1.4791 0.9223
-2.2464 20.1010 -1.4830 0.9221
-2.9803 20.0825 -1.4886 0.9218
-5.2222 19.9986 -1.5155 0.9204
-5.9881 19.9606 -1.5280 0.9198
-8.2083 19.4388 -1.5472 0.9189
-9.0045 19.3482 -1.5648 0.9180
-9.0415 17.7285 -1.4592 0.9233
-9.0738 16.3118 -1.3686 0.9279
-11.0150 18.2235 -1.5613 0.9181
-11.4786 12.9866 -1.2708 0.9328
-10.6871 11.2472 -1.1376 0.9397
-9.7243 9.5221 -0.9979 0.9469
-11.5660 9.7980 -1.1114 0.9410
-15.3977 9.6258 -1.3314 0.9298
-18.3188 9.6921 -1.5196 0.9202
-20.1174 9.7329 -1.6386 0.9143
-22.4677 9.8877 -1.7999 0.9062
-25.0051 9.9452 -1.9731 0.8977
-30.6139 3.8879 -2.2627 0.8836
-30.5464 1.6590 -2.2430 0.8845
-30.1843 -1.6267 -2.2164 0.8858
-29.9962 -2.7031 -2.2083 0.8862
-29.7751 -3.7687 -2.2006 0.8866
-29.5217 -4.8228 -2.1933 0.8869
-29.2365 -5.8647 -2.1864 0.8873
-28.5727 -7.9087 -2.1738 0.8879
-28.1952 -8.9095 -2.1681 0.8882
-27.7881 -9.8952 -2.1628 0.8884
-27.3517 -10.8652 -2.1579 0.8887
-25.8728 -13.6750 -2.1457 0.8893
-24.5660 -15.3430 -2.1237 0.8903
-19.2970 -17.5649 -1.9133 0.9006
4.8202 18.9543 -1.8776 0.9244
4.1068 18.9889 -1.8652 0.9249
2.0062 19.0553 -1.8395 0.9259
0.6263 19.0694 -1.8317 0.9262
-1.4362 19.0464 -1.8337 0.9261
-2.8199 19.0014 -1.8442 0.9257
-3.5178 18.9698 -1.8522 0.9254
-4.2213 18.9313 -1.8621 0.9250
-4.9309 18.8831 -1.8737 0.9246
-6.3750 18.7655 -1.9027 0.9234
-6.9576 18.2890 -1.8786 0.9244
-8.4356 18.1257 -1.9194 0.9228
-9.0774 16.3183 -1.7927 0.9277
-11.3822 17.3839 -1.9949 0.9199
-11.4107 16.1282 -1.8967 0.9237
-11.4602 13.9478 -1.7331 0.9300
-11.4820 12.9904 -1.6645 0.9327
-9.7212 9.5192 -1.3062 0.9468
-12.1316 9.5483 -1.4822 0.9398
-13.1047 9.5702 -1.5579 0.9369
-15.3913 9.6218 -1.7426 0.9297
-16.7545 9.6525 -1.8564 0.9252
-18.3102 9.6875 -1.9887 0.9201
-21.6278 8.6019 -2.2346 0.9107
-23.4349 7.4160 -2.3598 0.9059
-23.8871 3.9125 -2.3238 0.9073
-23.9266 3.0386 -2.3155 0.9076
-23.6968 -1.2771 -2.2783 0.9090
-23.4114 -2.9633 -2.2655 0.9095
-23.2287 -3.7948 -2.2596 0.9098
-22.2394 -7.0275 -2.2392 0.9105
-21.9295 -7.8090 -2.2348 0.9107
-21.5954 -8.5786 -2.2309 0.9109
-20.8563 -10.0796 -2.2239 0.9111
-19.5768 -12.2270 -2.2159 0.9114
-19.1065 -12.9127 -2.2139 0.9115
-16.8426 -15.3309 -2.1865 0.9125
3.8677 17.8835 -2.1734 0.9289
2.5458 17.9448 -2.1529 0.9296
1.8913 17.9641 -2.1457 0.9298
1.2399 17.9758 -2.1403 0.9300
-0.0575 17.9771 -2.1354 0.9301
-1.3534 17.9490 -2.1382 0.9301
-2.0031 17.9239 -2.1424 0.9299
-2.6547 17.8890 -2.1482 0.9297
-3.3092 17.8449 -2.1559 0.9295
-3.9674 17.7926 -2.1654 0.9292
-4.6302 17.7318 -2.1769 0.9288
-6.6556 17.4952 -2.2235 0.9274
-7.8266 16.8171 -2.2034 0.9280
-8.5110 16.6883 -2.2253 0.9273
-9.0810 16.3248 -2.2190 0.9275
-11.0937 16.9434 -2.4057 0.9217
-11.4145 16.1336 -2.3476 0.9235
-11.4402 14.9936 -2.2403 0.9268
-11.4637 13.9521 -2.1450 0.9298
-10.5183 9.5823 -1.6902 0.9443
-13.0998 9.5667 -1.9268 0.9367
-14.1785 9.5908 -2.0333 0.9334
-16.9673 8.9771 -2.2802 0.9256
-17.2178 8.3300 -2.2720 0.9258
-18.9850 6.7694 -2.3942 0.9220
-19.2955 5.3495 -2.3785 0.9225
-19.4137 4.6362 -2.3709 0.9227
-19.5074 3.9216 -2.3636 0.9230
-19.6399 1.0666 -2.3364 0.9238
-19.6132 0.3575 -2.3302 0.9240
-19.5631 -0.3484 -2.3242 0.9242
-19.4897 -1.0503 -2.3185 0.9244
-19.3934 -1.7476 -2.3130 0.9246
-18.9687 -3.8051 -2.2981 0.9250
-17.5369 -7.7089 -2.2755 0.9257
-16.8967 -8.9307 -2.2702 0.9259
-16.1798 -10.1053 -2.2660 0.9260
-15.7936 -10.6737 -2.2643 0.9261
-15.3893 -11.2288 -2.2629 0.9261
-14.9675 -11.7701 -2.2618 0.9262
-14.5285 -12.2972 -2.2610 0.9262
-14.0727 -12.8096 -2.2604 0.9262
4.2427 16.6836 -2.4391 0.9328
3.0008 16.7798 -2.4152 0.9335
2.3853 16.8129 -2.4061 0.9337
1.1622 16.8498 -2.3931 0.9340
0.5536 16.8538 -2.3893 0.9341
-0.0539 16.8482 -2.3872 0.9342
-0.6607 16.8331 -2.3869 0.9342
-1.2674 16.8084 -2.3883 0.9342
-1.8746 16.7741 -2.3915 0.9341
-3.0925 16.6765 -2.4032 0.9338
-4.3188 16.5393 -2.4220 0.9333
-4.9357 16.4524 -2.4338 0.9330
-5.5542 16.3493 -2.4465 0.9326
-6.8019 16.1083 -2.4775 0.9318
-8.3864 15.0762 -2.4444 0.9327
-8.9799 14.8565 -2.4597 0.9323
-9.3275 14.2458 -2.4126 0.9335
-10.2639 13.4520 -2.3975 0.9339
-10.7086 13.0330 -2.3900 0.9341
-10.4322 10.9789 -2.1459 0.9406
-9.7152 9.5132 -1.9266 0.9465
-11.2434 9.5247 -2.0879 0.9422
-13.7984 8.6260 -2.3057 0.9364
-15.4550 7.4772 -2.4326 0.9330
-15.6677 6.8951 -2.4254 0.9332
-16.0303 5.7158 -2.4114 0.9336
-16.1808 5.1202 -2.4046 0.9337
-16.4171 3.9205 -2.3915 0.9341
-16.5043 3.3178 -2.3853 0.9343
-16.5706 2.7142 -2.3792 0.9344
-16.6162 2.1102 -2.3733 0.9346
-16.6458 0.9040 -2.3620 0.9349
-16.6300 0.3031 -2.3567 0.9350
-16.5939 -0.2955 -2.3516 0.9351
-16.5379 -0.8912 -2.3466 0.9353
-16.4620 -1.4834 -2.3419 0.9354
-15.9640 -3.8053 -2.3253 0.9358
-15.3932 -5.4815 -2.3152 0.9361
-15.1667 -6.0249 -2.3123 0.9362
-14.9227 -6.5598 -2.3097 0.9363
-14.6613 -7.0857 -2.3072 0.9363
-14.3829 -7.6020 -2.3050 0.9364
-13.4491 -9.0893 -2.3000 0.9365
-13.1060 -9.5629 -2.2988 0.9366
-12.7477 -10.0246 -2.2978 0.9366
-12.3745 -10.4741 -2.2971 0.9366
-11.9867 -10.9108 -2.2966 0.9366
3.9334 15.4675 -2.6292 0.9373
2.7866 15.5819 -2.6077 0.9378
1.6474 15.6475 -2.5920 0.9382
1.0804 15.6631 -2.5865 0.9383
0.5146 15.6674 -2.5824 0.9384
-0.6129 15.6161 -2.5746 0.9386
-1.1738 15.5665 -2.5717 0.9387
-2.2888 15.4229 -2.5686 0.9387
-2.8426 15.3289 -2.5683 0.9388
-3.4009 15.2521 -2.5743 0.9386
-4.5332 15.1110 -2.5990 0.9380
-5.0984 15.0075 -2.6111 0.9378
-6.7785 14.5650 -2.6466 0.9369
-6.9839 13.6939 -2.5324 0.9396
-7.4756 13.4387 -2.5334 0.9396
-7.9511 13.1545 -2.5322 0.9396
-8.8233 12.4710 -2.5167 0.9399
-9.1895 12.0438 -2.4957 0.9404
-9.2416 11.2476 -2.3982 0.9427
-9.6154 10.8786 -2.3918 0.9428
-9.9750 10.4978 -2.3856 0.9430
-9.7122 9.5103 -2.2393 0.9464
-10.8372 9.1806 -2.3398 0.9440
-11.3966 8.3228 -2.3248 0.9444
-11.9498 8.0833 -2.3767 0.9432
-12.9143 7.4401 -2.4553 0.9414
-13.5353 5.9566 -2.4362 0.9418
-13.7064 5.4514 -2.4300 0.9420
-13.9944 4.4285 -2.4181 0.9422
-14.1111 3.9122 -2.4123 0.9424
-14.2097 3.3934 -2.4067 0.9425
-14.3969 1.8284 -2.3908 0.9429
-14.4232 1.3058 -2.3858 0.9430
-14.4222 0.2629 -2.3763 0.9432
-14.3505 -0.7734 -2.3675 0.9434
-14.2884 -1.2876 -2.3634 0.9435
-13.8692 -3.3059 -2.3488 0.9438
-13.5598 -4.2848 -2.3427 0.9440
-13.3809 -4.7649 -2.3400 0.9440
-13.1862 -5.2381 -2.3374 0.9441
-11.9849 -7.4854 -2.3278 0.9443
-11.7010 -7.9079 -2.3265 0.9444
-11.0922 -8.7227 -2.3246 0.9444
-10.7678 -9.1141 -2.3240 0.9444
-10.0811 -9.8633 -2.3234 0.9444
3.5541 13.9760 -2.7106 0.9430
2.5220 14.1028 -2.6928 0.9434
2.0067 14.1444 -2.6852 0.9435
-0.5597 14.2597 -2.6823 0.9436
-1.0741 14.2443 -2.6850 0.9435
-3.1235 14.0082 -2.6977 0.9433
-5.5886 13.2348 -2.7003 0.9432
-6.9377 12.4719 -2.6825 0.9436
-7.0621 11.6838 -2.5661 0.9460
-7.6634 10.8316 -2.4940 0.9474
-8.5244 9.6443 -2.4193 0.9490
-8.7645 9.2239 -2.3916 0.9495
-9.4485 8.6076 -2.4024 0.9493
-10.3884 8.1763 -2.4849 0.9476
-10.6505 7.7779 -2.4789 0.9477
-11.9032 5.2384 -2.4444 0.9484
-12.0573 4.7955 -2.4390 0.9486
-12.3179 3.8980 -2.4284 0.9488
-12.4242 3.4445 -2.4234 0.9489
-12.5145 2.9885 -2.4184 0.9490
-12.6471 2.0715 -2.4088 0.9492
-12.6894 1.6115 -2.4043 0.9493
-12.7157 1.1512 -2.3998 0.9494
-12.6631 -0.6824 -2.3836 0.9497
-12.5433 -1.5877 -2.3765 0.9498
-12.4605 -2.0356 -2.3731 0.9499
-12.3626 -2.4799 -2.3700 0.9500
-12.2498 -2.9200 -2.3670 0.9500
-12.1223 -3.3554 -2.3642 0.9501
-11.2705 -5.4470 -2.3528 0.9503
-11.0590 -5.8452 -2.3511 0.9504
-10.8342 -6.2358 -2.3496 0.9504
-10.5965 -6.6182 -2.3483 0.9504
-10.3462 -6.9923 -2.3471 0.9504
-8.9152 -8.7226 -2.3443 0.9505
2.7770 12.8404 -2.7770 0.9477
1.8396 12.9665 -2.7683 0.9479
1.3689 13.0024 -2.7636 0.9480
0.8982 13.0227 -2.7593 0.9480
0.4279 13.0273 -2.7552 0.9481
-0.0416 13.0164 -2.7514 0.9482
-0.5099 12.9900 -2.7480 0.9482
-0.9761 12.9451 -2.7441 0.9483
-1.4390 12.8764 -2.7388 0.9484
-4.1117 12.1032 -2.7020 0.9491
-4.5335 11.9170 -2.6951 0.9492
-5.3516 11.4991 -2.6810 0.9495
-5.7467 11.2680 -2.6737 0.9496
-6.1318 11.0231 -2.6663 0.9497
-7.7922 9.4836 -2.5945 0.9511
-8.0502 9.1077 -2.5694 0.9515
-8.2731 8.7067 -2.5388 0.9521
-9.0012 7.6252 -2.4936 0.9529
-9.2455 7.2767 -2.4870 0.9530
-9.7038 6.5640 -2.4764 0.9532
-9.9129 6.1970 -2.4712 0.9533
-10.1085 5.8237 -2.4660 0.9534
-10.2905 5.4444 -2.4609 0.9535
-10.7526 4.2766 -2.4461 0.9538
-10.8785 3.8788 -2.4413 0.9539
-10.9902 3.4778 -2.4366 0.9540
-11.1706 2.6676 -2.4276 0.9541
-11.3338 1.4393 -2.4150 0.9544
-11.3515 -0.2022 -2.3999 0.9546
-11.3206 -0.6101 -2.3964 0.9547
-11.2758 -1.0161 -2.3931 0.9548
-11.1447 -1.8207 -2.3870 0.9549
-11.0587 -2.2184 -2.3842 0.9549
-10.7206 -3.3877 -2.3766 0.9551
-10.5818 -3.7682 -2.3744 0.9551
-10.0896 -4.8762 -2.3687 0.9552
-9.9009 -5.2331 -2.3672 0.9552
-9.7003 -5.5831 -2.3658 0.9553
-9.2644 -6.2612 -2.3636 0.9553
-9.0296 -6.5885 -2.3627 0.9553
-8.2608 -7.5194 -2.3612 0.9554
-7.9840 -7.8116 -2.3611 0.9554
2.8777 11.3160 -2.7442 0.9532
1.6348 11.5231 -2.7353 0.9533
0.7986 11.5782 -2.7276 0.9534
-0.8696 11.5320 -2.7180 0.9536
-1.2829 11.4789 -2.7146 0.9536
-1.6927 11.4062 -2.7101 0.9537
-2.0984 11.3156 -2.7048 0.9538
-2.4993 11.2085 -2.6989 0.9539
-4.7403 10.1856 -2.6404 0.9549
-5.0887 9.9780 -2.6324 0.9550
-5.4281 9.7580 -2.6243 0.9552
-5.7579 9.5261 -2.6161 0.9553
-6.0624 9.2591 -2.6011 0.9555
-6.5846 8.6298 -2.5512 0.9564
-6.8741 8.3662 -2.5449 0.9565
-7.6302 7.4715 -2.5098 0.9571
-8.1070 6.8678 -2.4971 0.9573
-8.3220 6.5499 -2.4890 0.9574
-8.7374 5.9103 -2.4792 0.9576
-9.4248 4.5597 -2.4607 0.9579
-9.5656 4.2096 -2.4562 0.9580
-9.6937 3.8554 -2.4518 0.9580
-9.9116 3.1365 -2.4433 0.9582
-10.0779 2.4067 -2.4351 0.9583
-10.2304 1.2992 -2.4237 0.9585
-10.2553 0.9284 -2.4201 0.9586
-10.1870 -0.9180 -2.4039 0.9588
-10.1353 -1.2829 -2.4010 0.9589
-10.0711 -1.6453 -2.3983 0.9589
-9.9945 -2.0049 -2.3957 0.9590
-9.9057 -2.3612 -2.3933 0.9590
-9.8048 -2.7139 -2.3910 0.9591
-9.5673 -3.4068 -2.3868 0.9591
-9.4310 -3.7464 -2.3850 0.9592
-9.2833 -4.0808 -2.3833 0.9592
-8.7733 -5.0496 -2.3791 0.9593
-8.3799 -5.6634 -2.3770 0.9593
-8.1677 -5.9596 -2.3763 0.9593
-7.9457 -6.2484 -2.3757 0.9593
-7.7139 -6.5293 -2.3752 0.9593
-7.4728 -6.8021 -2.3749 0.9593
-7.2225 -7.0664 -2.3748 0.9593
2.2168 10.2498 -2.7152 0.9576
0.7183 10.4140 -2.7028 0.9578
0.3422 10.4180 -2.6989 0.9578
-0.4075 10.3822 -2.6902 0.9580
-0.7798 10.3425 -2.6855 0.9580
-2.2391 10.0418 -2.6639 0.9584
-2.9427 9.8092 -2.6516 0.9586
-4.2567 9.1465 -2.6121 0.9592
-4.5480 8.9177 -2.5919 0.9595
-5.4098 8.2623 -2.5570 0.9600
-5.6914 8.0444 -2.5514 0.9601
-5.9595 7.8105 -2.5437 0.9602
-6.1920 7.5361 -2.5254 0.9605
-6.4421 7.2884 -2.5186 0.9606
-6.9256 6.7816 -2.5097 0.9607
-7.7534 5.6622 -2.4858 0.9611
-7.9385 5.3699 -2.4815 0.9612
-8.1127 5.0716 -2.4772 0.9612
-8.2759 4.7679 -2.4730 0.9613
-8.4281 4.4591 -2.4688 0.9614
-8.8162 3.5064 -2.4566 0.9616
-8.9225 3.1815 -2.4527 0.9616
-9.1713 2.1902 -2.4414 0.9618
-9.2782 1.5197 -2.4343 0.9619
-9.3140 1.1828 -2.4309 0.9619
-9.3500 0.5078 -2.4245 0.9620
-9.3504 0.1705 -2.4214 0.9621
-9.2813 -0.8364 -2.4128 0.9622
-9.1087 -1.8272 -2.4054 0.9623
-8.9373 -2.4738 -2.4010 0.9624
-8.5985 -3.4157 -2.3955 0.9625
-8.4644 -3.7208 -2.3940 0.9625
-8.3199 -4.0210 -2.3925 0.9625
-8.1652 -4.3157 -2.3913 0.9626
-8.0006 -4.6049 -2.3901 0.9626
-7.8263 -4.8881 -2.3891 0.9626
-7.6424 -5.1649 -2.3883 0.9626
2.3378 9.1928 -2.6853 0.9613
2.0073 9.2812 -2.6882 0.9613
1.3339 9.4024 -2.6884 0.9613
0.6520 9.4523 -2.6822 0.9614
-0.0302 9.4490 -2.6750 0.9615
-0.3700 9.4275 -2.6709 0.9615
-0.7083 9.3930 -2.6667 0.9616
-1.0435 9.3369 -2.6597 0.9617
-2.0213 9.0648 -2.6292 0.9621
-2.6430 8.8086 -2.6034 0.9625
-3.2413 8.5204 -2.5807 0.9628
-3.5398 8.3829 -2.5761 0.9629
-4.3986 7.9073 -2.5615 0.9631
-4.9371 7.5403 -2.5515 0.9632
-5.1714 7.3095 -2.5348 0.9635
-5.4122 7.0932 -2.5258 0.9636
-5.6551 6.8826 -2.5218 0.9636
-5.8899 6.6637 -2.5177 0.9637
-6.1162 6.4367 -2.5136 0.9638
-6.5426 5.9604 -2.5055 0.9639
-7.0972 5.1830 -2.4879 0.9641
-7.2663 4.9151 -2.4834 0.9642
-7.4268 4.6428 -2.4795 0.9642
-7.5774 4.3654 -2.4756 0.9643
-7.7177 4.0833 -2.4718 0.9644
-7.8478 3.7968 -2.4680 0.9644
-8.0765 3.2122 -2.4606 0.9645
-8.2628 2.6148 -2.4535 0.9646
-8.3399 2.3121 -2.4500 0.9647
-8.4616 1.7010 -2.4434 0.9648
-8.5750 0.4657 -2.4311 0.9649
-8.5762 0.1563 -2.4283 0.9650
-8.5666 -0.1526 -2.4255 0.9650
-8.5463 -0.4606 -2.4229 0.9650
-8.4737 -1.0726 -2.4180 0.9651
-8.4216 -1.3758 -2.4157 0.9651
-8.3591 -1.6768 -2.4135 0.9652
-7.7708 -3.4160 -2.4030 0.9653
-7.6385 -3.6917 -2.4017 0.9653
-7.4969 -3.9625 -2.4005 0.9654
-7.3461 -4.2281 -2.3995 0.9654
-7.1862 -4.4883 -2.3986 0.9654
-7.0176 -4.7427 -2.3978 0.9654
-6.6546 -5.2331 -2.3966 0.9654
-6.2589 -5.6971 -2.3959 0.9654
-6.0493 -5.9186 -2.3958 0.9654
2.1050 8.2776 -2.6270 0.9649
1.5013 8.3949 -2.6231 0.9649
0.8914 8.4660 -2.6184 0.9650
0.5852 8.4842 -2.6158 0.9650
-0.0271 8.4859 -2.6101 0.9651
-0.3324 8.4695 -2.6070 0.9652
-0.6365 8.4416 -2.6038 0.9652
-2.4119 8.0400 -2.5818 0.9655
-4.2740 7.0710 -2.5413 0.9660
-4.7473 6.7099 -2.5281 0.9662
-4.9786 6.5249 -2.5244 0.9662
-5.2027 6.3320 -2.5207 0.9663
-5.4194 6.1313 -2.5169 0.9663
-5.6284 5.9233 -2.5132 0.9664
-5.8294 5.7082 -2.5095 0.9664
-6.2069 5.2580 -2.5020 0.9665
-6.8410 4.2766 -2.4815 0.9668
-7.2314 3.4986 -2.4709 0.9669
-7.5356 2.6869 -2.4607 0.9671
-7.6174 2.4105 -2.4575 0.9671
-7.8032 1.5687 -2.4481 0.9672
-7.8451 1.2850 -2.4452 0.9673
-7.8771 1.0003 -2.4423 0.9673
-7.9045 -0.1408 -2.4316 0.9675
-7.8864 -0.4250 -2.4292 0.9675
-7.8585 -0.7082 -2.4269 0.9675
-7.8207 -0.9899 -2.4247 0.9675
-7.7731 -1.2699 -2.4225 0.9676
-7.6491 -1.8233 -2.4186 0.9676
-7.5729 -2.0961 -2.4168 0.9677
-7.2883 -2.8952 -2.4121 0.9677
-7.1753 -3.1542 -2.4108 0.9677
-7.0535 -3.4089 -2.4096 0.9677
-6.6365 -4.1449 -2.4067 0.9678
-5.9669 -5.0506 -2.4045 0.9678
1.6629 7.6886 -2.6148 0.9674
1.3838 7.7378 -2.6129 0.9674
0.8217 7.8045 -2.6086 0.9675
-0.3066 7.8104 -2.5982 0.9676
-0.5874 7.7854 -2.5953 0.9676
-0.8661 7.7500 -2.5922 0.9677
-1.1433 7.7042 -2.5890 0.9677
-1.4183 7.6482 -2.5856 0.9677
-1.9600 7.5059 -2.5787 0.9678
-2.4881 7.3242 -2.5712 0.9679
-3.2478 6.9786 -2.5587 0.9681
-3.4791 6.8218 -2.5455 0.9682
-4.1694 6.3678 -2.5301 0.9684
-4.3901 6.2051 -2.5266 0.9685
-4.8123 5.8569 -2.5198 0.9686
-5.0133 5.6719 -2.5163 0.9686
-5.2072 5.4801 -2.5128 0.9686
-5.3938 5.2817 -2.5094 0.9687
-5.5729 5.0770 -2.5059 0.9687
-5.9078 4.6498 -2.4991 0.9688
-6.0577 4.4239 -2.4934 0.9689
-6.1978 4.1924 -2.4873 0.9690
-6.4643 3.7241 -2.4799 0.9690
-6.8016 2.9933 -2.4702 0.9692
-6.8963 2.7428 -2.4670 0.9692
-7.3023 0.9273 -2.4468 0.9694
-7.3232 0.6630 -2.4442 0.9695
-7.3138 -0.3942 -2.4347 0.9696
-7.2884 -0.6568 -2.4325 0.9696
-7.2102 -1.1779 -2.4285 0.9697
-7.1575 -1.4358 -2.4266 0.9697
-7.0960 -1.6915 -2.4248 0.9697
-6.9465 -2.1951 -2.4216 0.9698
-6.8588 -2.4424 -2.4201 0.9698
-6.5452 -3.1632 -2.4164 0.9698
-6.4243 -3.3955 -2.4154 0.9698
-6.2954 -3.6234 -2.4145 0.9698
-6.0145 -4.0648 -2.4130 0.9699
-5.8628 -4.2778 -2.4125 0.9699
-5.5378 -4.6873 -2.4117 0.9699
1.5404 7.1223 -2.6059 0.9695
1.0221 7.2046 -2.6022 0.9696
0.7613 7.2310 -2.6002 0.9696
0.4999 7.2476 -2.5980 0.9696
-0.2841 7.2385 -2.5905 0.9697
-0.8028 7.1838 -2.5850 0.9698
-1.3149 7.0907 -2.5789 0.9698
-1.8175 6.9601 -2.5725 0.9699
-2.0643 6.8811 -2.5691 0.9699
-2.3077 6.7931 -2.5656 0.9700
-2.7712 6.5628 -2.5476 0.9702
-2.9981 6.4421 -2.5410 0.9703
-3.2243 6.3222 -2.5379 0.9703
-3.4458 6.1943 -2.5348 0.9703
-4.4718 5.4424 -2.5189 0.9705
-4.8396 5.0932 -2.5125 0.9706
-5.1805 4.7195 -2.5061 0.9707
-5.4929 4.3232 -2.4997 0.9707
-6.0129 3.4641 -2.4816 0.9710
-6.3284 2.7850 -2.4725 0.9711
-6.6868 1.5968 -2.4585 0.9712
-6.7327 1.3535 -2.4558 0.9712
-6.7701 1.1089 -2.4533 0.9713
-6.7987 0.8634 -2.4508 0.9713
-6.8325 0.1245 -2.4438 0.9714
-6.8117 -0.3671 -2.4395 0.9714
-6.6107 -1.5758 -2.4303 0.9715
-6.5455 -1.8117 -2.4287 0.9716
-6.3906 -2.2757 -2.4259 0.9716
-6.2040 -2.7272 -2.4235 0.9716
-6.0990 -2.9476 -2.4224 0.9716
-5.1610 -4.3684 -2.4180 0.9717
-4.8325 -4.7281 -2.4177 0.9717
0.4652 6.7443 -2.5907 0.9715
0.2218 6.7511 -2.5885 0.9715
-0.2644 6.7372 -2.5838 0.9715
-0.5065 6.7168 -2.5813 0.9716
-1.4596 6.5458 -2.5701 0.9717
-1.6918 6.4787 -2.5660 0.9717
-2.1386 6.2953 -2.5479 0.9719
-2.3608 6.2057 -2.5444 0.9720
-2.7953 6.0063 -2.5388 0.9720
-3.0065 5.8950 -2.5359 0.9721
-3.4152 5.6503 -2.5301 0.9721
-3.6124 5.5171 -2.5272 0.9721
-3.8043 5.3771 -2.5242 0.9722
-3.9908 5.2304 -2.5212 0.9722
-4.1717 5.0772 -2.5182 0.9722
-4.5157 4.7523 -2.5122 0.9723
-4.8346 4.4043 -2.5063 0.9724
-5.1270 4.0352 -2.5003 0.9724
-5.2628 3.8434 -2.4974 0.9725
-5.9105 2.6011 -2.4746 0.9727
-5.9938 2.3838 -2.4719 0.9727
-6.0691 2.1640 -2.4692 0.9728
-6.1366 1.9419 -2.4666 0.9728
-6.3534 0.8068 -2.4543 0.9729
-6.3725 0.5769 -2.4520 0.9730
-6.3862 0.1164 -2.4477 0.9730
-6.3676 -0.3432 -2.4437 0.9731
-6.3462 -0.5719 -2.4418 0.9731
-6.2794 -1.0259 -2.4383 0.9731
-6.2342 -1.2506 -2.4367 0.9731
-6.1812 -1.4734 -2.4351 0.9731
-6.0520 -1.9124 -2.4323 0.9732
-5.9761 -2.1281 -2.4310 0.9732
-5.8019 -2.5504 -2.4287 0.9732
-5.3680 -3.3527 -2.4254 0.9733
-5.1103 -3.7288 -2.4243 0.9733
-4.9719 -3.9098 -2.4239 0.9733
1.1139 6.2285 -2.5896 0.9730
0.8882 6.2606 -2.5880 0.9730
0.6616 6.2842 -2.5862 0.9731
0.4345 6.2993 -2.5843 0.9731
0.2071 6.3059 -2.5823 0.9731
-0.0202 6.3041 -2.5801 0.9731
-0.4732 6.2751 -2.5755 0.9732
-0.9212 6.2074 -2.5684 0.9732
-1.1408 6.1512 -2.5605 0.9733
-1.5740 6.0276 -2.5497 0.9734
-1.9999 5.8871 -2.5447 0.9735
-2.2085 5.8053 -2.5421 0.9735
-2.4137 5.7161 -2.5395 0.9735
-3.5607 5.0327 -2.5232 0.9737
-4.3804 4.2893 -2.5092 0.9739
-4.5270 4.1241 -2.5064 0.9739
-4.9291 3.5997 -2.4981 0.9740
-5.0501 3.4160 -2.4953 0.9740
-5.1574 3.2241 -2.4893 0.9741
-5.2609 3.0309 -2.4849 0.9741
-5.3598 2.8357 -2.4818 0.9741
-5.4527 2.6380 -2.4791 0.9742
-5.6878 2.0280 -2.4714 0.9742
-5.8076 1.6101 -2.4666 0.9743
-5.9307 0.9714 -2.4596 0.9744
-5.9565 0.7564 -2.4574 0.9744
-5.9853 0.3250 -2.4532 0.9744
-5.9883 0.1091 -2.4513 0.9744
-5.9714 -0.3219 -2.4475 0.9745
-5.9516 -0.5363 -2.4457 0.9745
-5.8895 -0.9622 -2.4424 0.9745
-5.8474 -1.1730 -2.4409 0.9746
-5.7979 -1.3820 -2.4394 0.9746
-5.7411 -1.5891 -2.4380 0.9746
-5.5280 -2.1960 -2.4344 0.9746
-5.4430 -2.3927 -2.4334 0.9746
-5.2528 -2.7763 -2.4316 0.9746
-5.1478 -2.9629 -2.4309 0.9747
-5.0363 -3.1455 -2.4302 0.9747
-4.6649 -3.6684 -2.4288 0.9747
-4.2410 -4.1494 -2.4283 0.9747
1.2538 5.7973 -2.5850 0.9745
1.0436 5.8354 -2.5836 0.9745
0.8322 5.8658 -2.5820 0.9745
0.6199 5.8881 -2.5803 0.9745
0.4071 5.9026 -2.5786 0.9745
0.1941 5.9091 -2.5767 0.9745
-0.2310 5.8834 -2.5661 0.9746
-0.4417 5.8595 -2.5609 0.9747
-1.4766 5.6549 -2.5471 0.9748
-1.6779 5.5929 -2.5448 0.9748
-1.8765 5.5237 -2.5424 0.9749
-2.0723 5.4473 -2.5400 0.9749
-2.6401 5.1767 -2.5326 0.9750
-2.8220 5.0731 -2.5300 0.9750
-3.3426 4.7245 -2.5223 0.9751
-3.8208 4.3228 -2.5144 0.9751
-4.1136 4.0280 -2.5091 0.9752
-4.3837 3.7136 -2.5039 0.9752
-4.5100 3.5496 -2.5013 0.9753
-4.7440 3.2090 -2.4961 0.9753
-4.8489 3.0313 -2.4922 0.9754
-5.1238 2.4789 -2.4807 0.9755
-5.2046 2.2904 -2.4782 0.9755
-5.2786 2.0994 -2.4758 0.9755
-5.5049 1.3146 -2.4666 0.9756
-5.5438 1.1145 -2.4644 0.9756
-5.5756 0.9132 -2.4623 0.9756
-5.6176 0.5086 -2.4582 0.9757
-5.6309 0.1026 -2.4544 0.9757
-5.6155 -0.3027 -2.4509 0.9758
-5.5717 -0.7053 -2.4476 0.9758
-5.5392 -0.9050 -2.4461 0.9758
-5.2002 -2.0658 -2.4386 0.9759
-4.9416 -2.6119 -2.4360 0.9759
-4.7382 -2.9593 -2.4346 0.9759
-4.3889 -3.4514 -2.4333 0.9759
-4.2612 -3.6068 -2.4331 0.9759
-3.9901 -3.9039 -2.4328 0.9759
0.7793 5.4929 -2.5680 0.9758
0.5803 5.5110 -2.5651 0.9759
0.3809 5.5221 -2.5622 0.9759
0.1816 5.5286 -2.5605 0.9759
-0.2167 5.5196 -2.5569 0.9759
-0.4150 5.5042 -2.5551 0.9760
-0.6126 5.4815 -2.5531 0.9760
-0.8090 5.4516 -2.5511 0.9760
-1.0041 5.4146 -2.5491 0.9760
-1.1975 5.3705 -2.5470 0.9760
-1.3890 5.3194 -2.5448 0.9761
-1.7654 5.1965 -2.5404 0.9761
-1.9497 5.1250 -2.5381 0.9761
-2.1311 5.0468 -2.5358 0.9761
-2.4843 4.8712 -2.5311 0.9762
-2.6557 4.7740 -2.5287 0.9762
-2.8232 4.6708 -2.5263 0.9762
-2.9868 4.5616 -2.5239 0.9763
-3.1461 4.4468 -2.5214 0.9763
-3.3010 4.3263 -2.5190 0.9763
-3.4514 4.2005 -2.5165 0.9763
-3.8729 3.7924 -2.5091 0.9764
-4.1278 3.4968 -2.5041 0.9764
-4.2469 3.3426 -2.5017 0.9765
-4.3603 3.1843 -2.4992 0.9765
-4.4678 3.0222 -2.4968 0.9765
-4.5694 2.8565 -2.4944 0.9765
-4.8269 2.3352 -2.4820 0.9766
-4.9033 2.1578 -2.4797 0.9767
-5.0937 1.6119 -2.4730 0.9767
-5.2781 0.6703 -2.4628 0.9768
-5.3047 0.2881 -2.4591 0.9769
-5.2766 -0.4755 -2.4524 0.9769
-5.2529 -0.6649 -2.4509 0.9769
-5.0918 -1.4094 -2.4455 0.9770
-5.0354 -1.5912 -2.4444 0.9770
-4.9726 -1.7708 -2.4433 0.9770
-4.9036 -1.9480 -2.4423 0.9770
-4.8285 -2.1225 -2.4414 0.9770
-4.7473 -2.2944 -2.4406 0.9770
-4.6601 -2.4631 -2.4399 0.9770
-4.4684 -2.7908 -2.4386 0.9770
-4.2542 -3.1041 -2.4377 0.9771
-4.1391 -3.2549 -2.4374 0.9771
-4.0188 -3.4016 -2.4371 0.9771
-3.7630 -3.6818 -2.4369 0.9771
1.1053 5.1105 -2.5648 0.9770
0.9200 5.1444 -2.5635 0.9770
0.7337 5.1713 -2.5621 0.9770
0.5466 5.1915 -2.5606 0.9770
0.3590 5.2047 -2.5591 0.9770
-0.5775 5.1675 -2.5506 0.9771
-0.7627 5.1395 -2.5487 0.9771
-0.9466 5.1048 -2.5467 0.9771
-1.3097 5.0155 -2.5427 0.9772
-1.4883 4.9611 -2.5407 0.9772
-1.6647 4.9002 -2.5386 0.9772
-2.1780 4.6799 -2.5321 0.9773
-2.5049 4.5030 -2.5276 0.9773
-3.1143 4.0816 -2.5184 0.9774
-3.2563 3.9631 -2.5160 0.9774
-3.5266 3.7114 -2.5114 0.9774
-3.6547 3.5786 -2.5090 0.9775
-3.7777 3.4415 -2.5067 0.9775
-4.0082 3.1547 -2.5021 0.9775
-4.1155 3.0055 -2.4997 0.9776
-4.2172 2.8527 -2.4975 0.9776
-4.3133 2.6964 -2.4952 0.9776
-4.4818 2.3712 -2.4872 0.9777
-4.5581 2.2052 -2.4838 0.9777
-4.6296 2.0374 -2.4811 0.9777
-4.6959 1.8677 -2.4790 0.9777
-4.7561 1.6958 -2.4769 0.9778
-4.8101 1.5221 -2.4748 0.9778
-4.8578 1.3468 -2.4728 0.9778
-4.8993 1.1700 -2.4708 0.9778
-4.9344 0.9919 -2.4688 0.9778
-4.9631 0.8129 -2.4669 0.9778
-4.9854 0.6331 -2.4651 0.9779
-5.0014 0.4528 -2.4633 0.9779
-5.0109 0.2721 -2.4616 0.9779
-5.0141 0.0914 -2.4599 0.9779
-5.0012 -0.2696 -2.4567 0.9779
-4.9852 -0.4492 -2.4553 0.9779
-4.7581 -1.5036 -2.4477 0.9780
-4.6989 -1.6733 -2.4467 0.9780
-4.6338 -1.8408 -2.4458 0.9780
-4.5629 -2.0058 -2.4449 0.9780
-4.3161 -2.4842 -2.4428 0.9781
-4.1243 -2.7874 -2.4418 0.9781
-4.0206 -2.9337 -2.4414 0.9781
-3.7981 -3.2148 -2.4408 0.9781
-3.6796 -3.3493 -2.4407 0.9781
-3.5564 -3.4796 -2.4406 0.9781
0.8688 4.8583 -2.5604 0.9780
0.6929 4.8840 -2.5591 0.9780
-0.0157 4.9215 -2.5532 0.9781
-0.1929 4.9147 -2.5516 0.9781
-0.3696 4.9013 -2.5499 0.9781
-1.2374 4.7388 -2.5408 0.9782
-1.4063 4.6876 -2.5389 0.9782
-2.2145 4.3421 -2.5287 0.9783
-2.5171 4.1643 -2.5244 0.9783
-2.9440 3.8584 -2.5178 0.9784
-3.0784 3.7466 -2.5156 0.9784
-3.6837 3.1206 -2.5046 0.9785
-3.7904 2.9832 -2.5024 0.9785
-3.8920 2.8423 -2.5002 0.9785
-4.1652 2.3996 -2.4938 0.9786
-4.2423 2.2445 -2.4899 0.9786
-4.4426 1.7669 -2.4803 0.9787
-4.4998 1.6044 -2.4783 0.9787
-4.6358 1.1071 -2.4726 0.9788
-4.7179 0.5991 -2.4672 0.9788
-4.7332 0.4285 -2.4655 0.9788
-4.7456 0.0865 -2.4623 0.9788
-4.7426 -0.0845 -2.4608 0.9789
-4.7337 -0.2551 -2.4593 0.9789
-4.6977 -0.5946 -2.4565 0.9789
-4.6708 -0.7631 -2.4552 0.9789
-4.5548 -1.2607 -2.4518 0.9789
-4.3870 -1.7427 -2.4489 0.9790
-4.3200 -1.8990 -2.4481 0.9790
-4.0865 -2.3521 -2.4461 0.9790
-3.9983 -2.4972 -2.4455 0.9790
-3.8068 -2.7777 -2.4447 0.9790
-3.4840 -3.1713 -2.4441 0.9790
1.1519 4.5296 -2.5599 0.9789
0.6556 4.6211 -2.5564 0.9789
0.4885 4.6394 -2.5551 0.9789
0.3208 4.6515 -2.5537 0.9790
0.1530 4.6574 -2.5523 0.9790
-0.3498 4.6384 -2.5477 0.9790
-0.6819 4.5952 -2.5444 0.9790
-1.1713 4.4855 -2.5391 0.9791
-1.3311 4.4371 -2.5373 0.9791
-1.6447 4.3233 -2.5335 0.9791
-2.2416 4.0296 -2.5256 0.9792
-2.6567 3.7551 -2.5194 0.9792
-2.7880 3.6539 -2.5173 0.9793
-3.1581 3.3236 -2.5111 0.9793
-3.2730 3.2049 -2.5090 0.9793
-3.3835 3.0824 -2.5069 0.9793
-3.4894 2.9560 -2.5048 0.9794
-3.7786 2.5560 -2.4986 0.9794
-4.0222 2.1281 -2.4923 0.9795
-4.0891 1.9783 -2.4879 0.9795
-4.1518 1.8271 -2.4844 0.9795
-4.2645 1.5205 -2.4797 0.9796
-4.3564 1.2078 -2.4760 0.9796
-4.3939 1.0493 -2.4743 0.9796
-4.4723 0.5679 -2.4692 0.9796
-4.4958 0.2441 -2.4660 0.9797
-4.4989 0.0820 -2.4645 0.9797
-4.4963 -0.0801 -2.4630 0.9797
-4.4880 -0.2419 -2.4616 0.9797
-4.4542 -0.5638 -2.4590 0.9797
-4.3611 -1.0396 -2.4555 0.9798
-4.2185 -1.5022 -2.4526 0.9798
-4.1602 -1.6526 -2.4518 0.9798
-4.0280 -1.9467 -2.4503 0.9798
-3.9542 -2.0900 -2.4496 0.9798
-3.8755 -2.2306 -2.4491 0.9798
-3.7918 -2.3682 -2.4486 0.9798
-3.7034 -2.5029 -2.4482 0.9798
-3.6103 -2.6343 -2.4478 0.9798
-3.1936 -3.1246 -2.4471 0.9798
0.9359 4.3272 -2.5561 0.9798
0.3041 4.4085 -2.5513 0.9798
0.1450 4.4143 -2.5500 0.9798
-0.3315 4.3967 -2.5457 0.9798
-0.4894 4.3792 -2.5441 0.9799
-0.6464 4.3561 -2.5425 0.9799
-0.8024 4.3272 -2.5409 0.9799
-0.9572 4.2926 -2.5392 0.9799
-1.1104 4.2525 -2.5375 0.9799
-1.2620 4.2068 -2.5358 0.9799
-1.5594 4.0992 -2.5322 0.9799
-1.8478 3.9704 -2.5285 0.9800
-2.1257 3.8214 -2.5247 0.9800
-2.3917 3.6528 -2.5208 0.9800
-2.5198 3.5615 -2.5188 0.9801
-2.6443 3.4657 -2.5169 0.9801
-2.7653 3.3655 -2.5149 0.9801
-2.8825 3.2611 -2.5129 0.9801
-3.2099 2.9242 -2.5069 0.9801
-3.3105 2.8044 -2.5050 0.9802
-3.4983 2.5548 -2.5010 0.9802
-3.9969 1.5897 -2.4834 0.9803
-4.0940 1.2955 -2.4792 0.9804
-4.1351 1.1464 -2.4775 0.9804
-4.1709 0.9960 -2.4758 0.9804
-4.2013 0.8446 -2.4741 0.9804
-4.2262 0.6922 -2.4725 0.9804
-4.2597 0.3856 -2.4694 0.9804
-4.2054 -0.6871 -2.4601 0.9805
-4.1413 -0.9872 -2.4580 0.9805
-4.1014 -1.1353 -2.4570 0.9805
-4.0564 -1.2818 -2.4561 0.9805
-3.8906 -1.7103 -2.4537 0.9806
-3.7554 -1.9849 -2.4524 0.9806
-3.6807 -2.1185 -2.4519 0.9806
-3.5173 -2.3771 -2.4510 0.9806
-3.4289 -2.5020 -2.4507 0.9806
-3.3362 -2.6236 -2.4504 0.9806
-3.2393 -2.7418 -2.4502 0.9806
-3.1382 -2.8566 -2.4501 0.9806
-3.0332 -2.9677 -2.4500 0.9806
