ply
format ascii 1.0
element vertex 1074
property float32 x
property float32 y
property float32 z
property float32 I
end_header
-47.7379 6.1266 8.4865 0.8224
-38.0673 -18.3325 7.4501 0.8423
-40.5762 -25.2637 8.4281 0.8235
-37.4290 -25.2191 7.9581 0.8325
-34.7629 -25.2898 7.5801 0.8398
-34.8096 -27.2941 7.7997 0.8355
-34.8577 -29.4198 8.0429 0.8309
-34.9062 -31.6826 8.3122 0.8257
-32.5886 -31.7938 8.0279 0.8312
-30.7179 -34.6242 8.1615 0.8286
-28.2916 -36.9366 8.2039 0.8278
-26.1873 -36.8681 7.9739 0.8322
-23.7090 -39.0595 8.0567 0.8306
-12.5841 -24.5605 4.8660 0.8940
-12.1525 -25.9841 5.0580 0.8900
2.8354 -42.3065 7.4765 0.8418
4.3420 -42.0269 7.4499 0.8423
5.8616 -41.9052 7.4609 0.8421
7.4153 -41.9389 7.5096 0.8411
8.9915 -41.9730 7.5689 0.8400
9.9027 -34.0417 6.2513 0.8659
10.0267 -30.3466 5.6354 0.8783
10.3832 -27.9972 5.2652 0.8858
7.8206 -18.9625 3.6168 0.9201
17.2215 -37.8300 7.3291 0.8447
18.9721 -37.9843 7.4866 0.8416
10.3270 -18.9370 3.8033 0.9161
21.2161 -35.7755 7.3340 0.8446
27.0271 -31.1016 7.2654 0.8459
26.9635 -28.8593 6.9641 0.8518
29.1308 -29.0102 7.2491 0.8462
28.8026 -26.6873 6.9236 0.8526
31.1626 -26.8539 7.2535 0.8461
32.9208 -26.3635 7.4367 0.8426
36.2803 -26.9679 7.9709 0.8323
39.0500 -26.8985 8.3610 0.8248
-34.7979 -25.3154 6.5923 0.8402
-34.6216 -31.4243 7.1628 0.8276
-34.6491 -33.8040 7.4157 0.8221
-13.4137 -17.5124 3.3794 0.9146
-12.3684 -26.4459 4.4725 0.8886
-12.5408 -36.6867 5.9395 0.8548
-12.9774 -42.9613 6.8751 0.8339
10.0189 -34.4412 5.4949 0.8649
10.3403 -25.0722 4.1548 0.8961
21.0991 -42.2428 7.2337 0.8261
23.7889 -40.1140 7.1446 0.8280
28.6407 -38.1986 7.3140 0.8243
29.0353 -35.9502 7.0793 0.8294
31.3960 -36.1290 7.3326 0.8239
31.0231 -33.2046 6.9614 0.8320
32.7721 -32.6363 7.0854 0.8293
32.8223 -30.4117 6.8548 0.8344
32.8696 -28.3248 6.6471 0.8390
32.9140 -26.3581 6.4598 0.8431
36.1199 -26.8486 6.8946 0.8335
-38.0776 -18.3374 5.5035 0.8433
9.8911 -39.2174 5.2668 0.8495
9.9075 -34.0581 4.6189 0.8667
10.3730 -25.1513 3.5428 0.8961
10.3305 -18.9435 2.8098 0.9166
33.1455 -26.5435 5.5297 0.8426
-38.0849 -18.3409 4.5391 0.8436
-34.8435 -29.4078 4.8960 0.8324
-34.8946 -31.6721 5.0604 0.8273
-12.4539 -41.2284 4.6247 0.8409
9.8457 -39.0372 4.3231 0.8505
10.3756 -25.1576 2.9222 0.8963
32.9286 -30.5102 4.8204 0.8348
-12.5543 -24.5025 2.3306 0.8954
10.3781 -25.1638 2.3042 0.8965
10.3340 -18.9499 1.8272 0.9170
32.5050 -34.7907 4.0305 0.8260
-11.4413 -24.4636 1.6747 0.8974
9.5148 -25.6556 1.6968 0.8961
10.1892 -24.7056 1.6572 0.8984
10.3358 -18.9531 1.3387 0.9171
-38.1110 -18.3534 1.6679 0.8442
-11.4509 -24.4840 1.0658 0.8974
9.4867 -25.5798 1.0758 0.8965
32.5067 -26.0319 1.6421 0.8464
-38.1210 -18.3583 0.7147 0.8443
-34.1366 -24.8343 0.7131 0.8446
-11.4604 -24.5045 0.4569 0.8974
-11.7479 -30.7060 0.5553 0.8768
10.1928 -24.7144 0.4516 0.8986
10.3431 -18.9666 0.3649 0.9172
-30.7290 -17.6293 -0.1995 0.8679
-28.2879 -17.6126 -0.1876 0.8752
-26.1230 -17.6012 -0.1773 0.8816
-24.1867 -17.5957 -0.1684 0.8872
-19.3567 -17.5691 -0.1472 0.9007
-16.7396 -17.5518 -0.1366 0.9075
-15.5648 -17.5440 -0.1320 0.9105
-14.4638 -17.5368 -0.1280 0.9131
-14.0442 -23.1371 -0.1524 0.8974
-14.0886 -25.2153 -0.1626 0.8909
-11.9991 -31.3625 -0.1891 0.8743
-15.6835 -45.8800 -0.2730 0.8237
-12.8787 -42.6347 -0.2507 0.8368
-12.0942 -45.9569 -0.2676 0.8269
8.7370 -40.7848 -0.2348 0.8463
9.0777 -27.4743 -0.1629 0.8907
9.1509 -24.6745 -0.1482 0.9001
13.5883 -22.9131 -0.1500 0.8989
14.7452 -22.9384 -0.1535 0.8967
18.5998 -23.0294 -0.1667 0.8883
21.5562 -23.0720 -0.1778 0.8813
26.9185 -23.1967 -0.2001 0.8675
29.0227 -23.2419 -0.2093 0.8618
36.7504 -23.4087 -0.2453 0.8401
-44.8003 -17.7250 -1.3566 0.8247
-40.4106 -17.6972 -1.2422 0.8382
-33.5134 -17.6537 -1.0666 0.8594
-30.7428 -17.6372 -0.9980 0.8678
-28.3008 -17.6206 -0.9387 0.8751
-26.1343 -17.6088 -0.8873 0.8815
-24.1965 -17.6029 -0.8425 0.8872
-22.4343 -17.5907 -0.8027 0.8922
-20.8290 -17.5796 -0.7675 0.8967
-19.3634 -17.5751 -0.7363 0.9006
-18.0051 -17.5659 -0.7083 0.9042
-13.9662 -19.6624 -0.6791 0.9080
-14.0016 -21.2977 -0.7177 0.9030
-14.0490 -23.1449 -0.7624 0.8973
-12.4142 -24.2290 -0.7666 0.8968
-11.4796 -24.5454 -0.7630 0.8972
-13.0055 -30.6379 -0.9372 0.8753
-12.0965 -45.9659 -1.3384 0.8268
8.5335 -48.2627 -1.3801 0.8219
8.7296 -40.7503 -1.1735 0.8464
8.8710 -35.1727 -1.0214 0.8649
8.9818 -30.8760 -0.9054 0.8793
9.0726 -27.4589 -0.8143 0.8907
9.4470 -22.9061 -0.6977 0.9056
10.4018 -22.8493 -0.7069 0.9044
11.4238 -22.8717 -0.7199 0.9028
10.3509 -18.9809 -0.6088 0.9171
18.6056 -23.0366 -0.8338 0.8883
31.3464 -23.3004 -1.0998 0.8553
-39.8440 8.0642 -2.0616 0.8497
-42.3461 5.4346 -2.1652 0.8428
-41.8809 0.8191 -2.1244 0.8455
-41.6377 -0.6859 -2.1119 0.8464
-40.6564 -5.0903 -2.0779 0.8487
-39.3160 -9.3150 -2.0491 0.8506
-38.7933 -10.6806 -2.0406 0.8512
-38.2339 -12.0240 -2.0326 0.8517
-37.0081 -14.6421 -2.0184 0.8527
-35.1945 -15.4129 -1.9485 0.8574
-33.4748 -16.1208 -1.8843 0.8617
-26.1457 -17.6165 -1.5989 0.8814
-20.8368 -17.5861 -1.3828 0.8965
-18.0111 -17.5717 -1.2761 0.9041
-16.7503 -17.5630 -1.2308 0.9074
-13.9397 -18.1992 -1.1626 0.9123
-13.9719 -19.6704 -1.2236 0.9079
-14.0538 -23.1528 -1.3736 0.8972
-14.0988 -25.2336 -1.4659 0.8907
-12.4173 -24.2351 -1.3810 0.8967
-9.8360 -23.1713 -1.2766 0.9041
-11.8881 -31.0724 -1.6872 0.8752
-7.0249 -23.2558 -1.2320 0.9073
-9.5777 -36.3945 -1.9086 0.8601
-7.4376 -39.6838 -2.0476 0.8507
-4.6026 -40.4785 -2.0661 0.8494
-3.1569 -40.8164 -2.0762 0.8488
1.2850 -41.5823 -2.1098 0.8465
4.3265 -41.8779 -2.1351 0.8448
5.8691 -41.9586 -2.1486 0.8439
6.9731 -39.4374 -2.0311 0.8518
8.4595 -39.4896 -2.0481 0.8507
9.0676 -27.4436 -1.4658 0.8907
9.1417 -24.6495 -1.3333 0.9001
9.4492 -22.9114 -1.2569 0.9055
13.5954 -22.9252 -1.3517 0.8988
14.7531 -22.9507 -1.3837 0.8965
21.5712 -23.0880 -1.6024 0.8811
24.9963 -23.1604 -1.7282 0.8724
29.0423 -23.2576 -1.8869 0.8616
31.3600 -23.3106 -1.9816 0.8551
33.9311 -23.3725 -2.0895 0.8479
-30.5054 6.1741 -2.2821 0.8826
-30.4148 3.9034 -2.2484 0.8843
-30.3912 2.7921 -2.2377 0.8848
-30.3891 0.5944 -2.2286 0.8852
-30.2613 -0.4985 -2.2191 0.8857
-30.0999 -1.5817 -2.2100 0.8861
-29.9054 -2.6544 -2.2013 0.8866
-29.6785 -3.7158 -2.1931 0.8870
-26.7588 -11.7187 -2.1419 0.8894
-25.1938 -14.4537 -2.1297 0.8900
-24.6194 -15.3286 -2.1264 0.8902
-22.8312 -15.3833 -2.0186 0.8955
-21.9710 -15.9838 -1.9922 0.8968
-21.3613 -16.7494 -1.9903 0.8968
-20.7292 -17.4954 -1.9889 0.8969
-19.3767 -17.5872 -1.9187 0.9004
-15.5792 -17.5603 -1.7212 0.9101
-14.4767 -17.5525 -1.6683 0.9128
-13.9451 -18.2063 -1.6815 0.9121
-13.9776 -19.6785 -1.7698 0.9077
-14.0137 -21.3161 -1.8704 0.9027
-14.0585 -23.1607 -1.9866 0.8970
-6.0945 -23.1585 -1.7558 0.9084
-5.2225 -23.2123 -1.7445 0.9090
-5.4509 -29.0834 -2.1696 0.8881
-4.4139 -29.3546 -2.1765 0.8878
-3.3650 -29.5945 -2.1839 0.8874
-1.2347 -29.9778 -2.1999 0.8866
1.5643 -23.3411 -1.7153 0.9104
5.3610 -30.3205 -2.2576 0.8838
5.0162 -23.4161 -1.7559 0.9084
6.8239 -23.4579 -1.7913 0.9067
7.7666 -23.5061 -1.8152 0.9055
9.1370 -24.6370 -1.9267 0.9000
9.4514 -22.9167 -1.8176 0.9054
11.4296 -22.8832 -1.8755 0.9025
10.3587 -18.9952 -1.5864 0.9169
14.7571 -22.9569 -2.0010 0.8963
15.9753 -22.9873 -2.0525 0.8938
20.0617 -23.0861 -2.2426 0.8846
21.5787 -23.0961 -2.3176 0.8809
23.5900 -21.8575 -2.3580 0.8790
25.4423 -20.3746 -2.3899 0.8775
26.3372 -19.5769 -2.4062 0.8767
28.0388 -17.8597 -2.4375 0.8752
-23.7970 4.8163 -2.3310 0.9070
-23.8959 3.0667 -2.3129 0.9077
-23.9020 2.1958 -2.3044 0.9081
-23.8795 1.3287 -2.2961 0.9084
-23.8290 0.4661 -2.2881 0.9087
-23.7506 -0.3913 -2.2805 0.9090
-22.7166 -5.3822 -2.2413 0.9105
-22.4539 -6.1821 -2.2359 0.9107
-22.1665 -6.9711 -2.2309 0.9109
-21.8548 -7.7486 -2.2261 0.9110
-21.5192 -8.5140 -2.2218 0.9112
-21.1601 -9.2667 -2.2177 0.9114
-19.0280 -12.8208 -2.2028 0.9119
-18.0264 -14.1345 -2.1992 0.9121
-16.9059 -15.3447 -2.1919 0.9123
-15.7411 -15.3572 -2.1113 0.9154
-14.2590 -16.0723 -2.0627 0.9173
-13.6739 -16.5792 -2.0632 0.9173
-13.0962 -17.0979 -2.0677 0.9171
-12.4836 -17.5751 -2.0696 0.9170
-11.2023 -18.4552 -2.0727 0.9169
-10.5366 -18.8581 -2.0739 0.9169
-9.1624 -19.5907 -2.0763 0.9168
-8.6933 -20.4795 -2.1359 0.9145
-5.9115 -22.4633 -2.2300 0.9109
-4.2988 -22.9363 -2.2403 0.9105
-2.6501 -23.3068 -2.2520 0.9100
-1.8139 -23.4528 -2.2583 0.9098
-0.9708 -23.5721 -2.2649 0.9096
-0.1215 -23.6643 -2.2719 0.9093
0.7333 -23.7292 -2.2792 0.9090
2.4563 -23.7755 -2.2947 0.9084
3.3230 -23.7563 -2.3029 0.9081
4.1920 -23.7086 -2.3114 0.9078
5.0625 -23.6320 -2.3203 0.9074
5.8994 -23.3908 -2.3159 0.9076
8.0278 -21.6461 -2.2164 0.9114
9.6639 -21.2285 -2.2393 0.9105
10.3626 -19.0024 -2.0780 0.9167
12.8179 -19.9402 -2.2758 0.9091
13.5930 -19.5594 -2.2867 0.9087
15.1136 -18.7129 -2.3093 0.9079
15.8567 -18.2472 -2.3208 0.9074
16.5853 -17.7515 -2.3323 0.9070
17.2986 -17.2269 -2.3438 0.9066
17.9985 -16.6766 -2.3557 0.9061
22.6047 -14.3984 -2.5730 0.8979
-19.4920 3.9451 -2.3623 0.9230
-19.5582 3.2299 -2.3547 0.9233
-19.6184 1.8023 -2.3402 0.9237
-19.5832 0.3830 -2.3267 0.9241
-19.2343 -2.4082 -2.3026 0.9249
-19.0906 -3.0923 -2.2973 0.9251
-18.9249 -3.7695 -2.2922 0.9252
-18.7374 -4.4394 -2.2874 0.9254
-18.0479 -6.3988 -2.2746 0.9258
-17.1749 -8.2711 -2.2644 0.9261
-16.4957 -9.4636 -2.2590 0.9263
-16.1281 -10.0417 -2.2568 0.9263
-15.7423 -10.6069 -2.2548 0.9264
-15.3388 -11.1589 -2.2532 0.9264
-14.9178 -11.6971 -2.2518 0.9265
-14.4800 -12.2211 -2.2507 0.9265
-13.0690 -13.7031 -2.2493 0.9266
-12.5676 -14.1657 -2.2495 0.9266
-12.0514 -14.6120 -2.2499 0.9265
-11.5210 -15.0414 -2.2506 0.9265
-10.4189 -15.8481 -2.2529 0.9264
-8.6705 -16.9222 -2.2586 0.9263
-8.0641 -17.2425 -2.2611 0.9262
-7.4470 -17.5433 -2.2639 0.9261
-6.8195 -17.8243 -2.2669 0.9260
-5.5356 -18.3254 -2.2739 0.9258
-4.8806 -18.5449 -2.2779 0.9257
-4.2169 -18.7432 -2.2821 0.9255
-0.1000 -19.4725 -2.3131 0.9246
0.6031 -19.5148 -2.3192 0.9244
1.3092 -19.5338 -2.3255 0.9242
2.0176 -19.5293 -2.3321 0.9240
2.7278 -19.5011 -2.3390 0.9237
3.4388 -19.4490 -2.3461 0.9235
4.1501 -19.3729 -2.3534 0.9233
4.8607 -19.2725 -2.3610 0.9231
7.5258 -18.2478 -2.3447 0.9236
7.9492 -17.4618 -2.2790 0.9256
8.5173 -17.0526 -2.2642 0.9261
9.1630 -16.8026 -2.2734 0.9258
9.8013 -16.5274 -2.2825 0.9255
11.6568 -15.5469 -2.3082 0.9247
13.2658 -15.2656 -2.4023 0.9218
14.2488 -15.2507 -2.4792 0.9194
16.6131 -13.3041 -2.5282 0.9178
-16.6233 1.5271 -2.3653 0.9348
-16.6259 0.9251 -2.3594 0.9349
-16.6081 0.3248 -2.3536 0.9351
-16.5703 -0.2730 -2.3482 0.9352
-16.4350 -1.4588 -2.3378 0.9355
-16.3379 -2.0456 -2.3330 0.9356
-15.9317 -3.7747 -2.3198 0.9360
-15.5676 -4.8958 -2.3123 0.9362
-15.3583 -5.4453 -2.3088 0.9363
-14.8868 -6.5195 -2.3027 0.9365
-14.0518 -8.0615 -2.2954 0.9366
-13.7406 -8.5552 -2.2934 0.9367
-12.3414 -10.4161 -2.2882 0.9368
-11.9547 -10.8507 -2.2875 0.9369
-11.1398 -11.6803 -2.2870 0.9369
-10.7123 -12.0745 -2.2871 0.9369
-8.8789 -13.5055 -2.2901 0.9368
-7.8940 -14.1284 -2.2931 0.9367
-5.8061 -15.1756 -2.3022 0.9365
-4.7110 -15.5951 -2.3083 0.9363
-3.5868 -15.9421 -2.3153 0.9361
-3.0151 -16.0878 -2.3192 0.9360
-2.4382 -16.2147 -2.3233 0.9359
-1.8562 -16.3224 -2.3276 0.9358
-1.2691 -16.4108 -2.3322 0.9357
1.1103 -16.5674 -2.3527 0.9351
2.9127 -16.4734 -2.3703 0.9346
3.5133 -16.4011 -2.3766 0.9345
4.1131 -16.3081 -2.3830 0.9343
4.7110 -16.1944 -2.3897 0.9341
5.8985 -15.9048 -2.4035 0.9338
6.4869 -15.7288 -2.4107 0.9336
7.0707 -15.5321 -2.4180 0.9334
10.4363 -13.9191 -2.4650 0.9321
11.4880 -13.2199 -2.4815 0.9317
11.9973 -12.8410 -2.4900 0.9315
12.4945 -12.4428 -2.4985 0.9312
13.9062 -11.1364 -2.5243 0.9306
14.3476 -10.6649 -2.5330 0.9303
14.7731 -10.1761 -2.5417 0.9301
-14.3416 2.3684 -2.3946 0.9428
-14.4094 1.3238 -2.3838 0.9430
-14.4057 0.2818 -2.3736 0.9433
-14.3773 -0.2368 -2.3688 0.9434
-14.3314 -0.7531 -2.3642 0.9435
-14.2682 -1.2664 -2.3598 0.9436
-14.1878 -1.7764 -2.3555 0.9437
-13.5346 -4.2565 -2.3373 0.9441
-13.3553 -4.7351 -2.3343 0.9442
-12.9498 -5.6712 -2.3289 0.9443
-12.7241 -6.1277 -2.3266 0.9444
-11.9590 -7.4459 -2.3208 0.9445
-11.6755 -7.8668 -2.3193 0.9445
-11.0679 -8.6783 -2.3170 0.9446
-10.4081 -9.4469 -2.3156 0.9446
-9.6989 -10.1695 -2.3151 0.9446
-8.9432 -10.8433 -2.3155 0.9446
-8.5489 -11.1611 -2.3160 0.9446
-7.7291 -11.7566 -2.3178 0.9446
-6.8705 -12.2967 -2.3205 0.9445
-5.9766 -12.7790 -2.3241 0.9444
-5.0507 -13.2013 -2.3285 0.9443
-4.0966 -13.5616 -2.3338 0.9442
-3.1178 -13.8579 -2.3400 0.9440
-2.1184 -14.0885 -2.3470 0.9439
-1.6122 -14.1786 -2.3508 0.9438
-1.1023 -14.2517 -2.3548 0.9437
-0.5893 -14.3077 -2.3590 0.9436
0.4440 -14.3675 -2.3680 0.9434
1.4833 -14.3570 -2.3777 0.9432
2.0038 -14.3251 -2.3829 0.9430
3.0436 -14.2077 -2.3937 0.9428
4.5915 -13.8966 -2.4110 0.9424
5.6086 -13.5992 -2.4234 0.9421
6.6080 -13.2300 -2.4362 0.9418
8.0645 -12.5457 -2.4569 0.9413
9.4499 -11.7004 -2.4777 0.9409
10.7499 -10.7053 -2.4993 0.9404
11.5606 -9.9622 -2.5141 0.9400
11.9472 -9.5675 -2.5215 0.9398
13.0243 -8.2960 -2.5439 0.9393
-12.6794 1.6272 -2.4028 0.9493
-12.7047 1.1672 -2.3980 0.9494
-12.7078 0.2486 -2.3890 0.9496
-12.5953 -1.1179 -2.3767 0.9498
-12.5269 -1.5684 -2.3730 0.9499
-12.4434 -2.0155 -2.3694 0.9500
-12.2315 -2.8980 -2.3627 0.9501
-11.9610 -3.7616 -2.3568 0.9502
-10.8147 -6.2044 -2.3435 0.9505
-10.5773 -6.5857 -2.3420 0.9506
-9.7910 -7.6771 -2.3386 0.9506
-9.5052 -8.0223 -2.3379 0.9506
-9.2080 -8.3576 -2.3373 0.9506
-8.8997 -8.6826 -2.3370 0.9507
-7.2045 -10.1429 -2.3385 0.9506
-6.8371 -10.3998 -2.3393 0.9506
-6.0768 -10.8761 -2.3417 0.9506
-5.2852 -11.3007 -2.3449 0.9505
-4.4655 -11.6716 -2.3489 0.9504
-4.0461 -11.8363 -2.3512 0.9504
-3.1904 -12.1233 -2.3563 0.9503
-2.7550 -12.2451 -2.3591 0.9502
-1.8712 -12.4445 -2.3654 0.9501
-0.9733 -12.5838 -2.3723 0.9499
-0.0650 -12.6619 -2.3800 0.9498
0.8497 -12.6779 -2.3883 0.9496
1.7668 -12.6310 -2.3972 0.9494
2.2250 -12.5838 -2.4019 0.9493
2.6822 -12.5207 -2.4068 0.9492
3.5917 -12.3469 -2.4169 0.9490
4.9354 -11.9669 -2.4331 0.9487
5.3757 -11.8086 -2.4387 0.9486
5.8112 -11.6346 -2.4444 0.9484
6.2441 -11.4500 -2.4514 0.9483
6.6683 -11.2444 -2.4572 0.9482
7.8998 -10.5361 -2.4752 0.9478
8.2948 -10.2702 -2.4814 0.9477
9.0580 -9.6950 -2.4939 0.9474
10.1280 -8.7276 -2.5130 0.9470
11.3929 -7.2569 -2.5389 0.9465
-11.2862 1.8639 -2.4180 0.9543
-11.3255 1.4535 -2.4136 0.9544
-11.3505 1.0427 -2.4094 0.9545
-11.3613 0.6321 -2.4053 0.9545
-11.3579 0.2221 -2.4013 0.9546
-11.3403 -0.1868 -2.3974 0.9547
-11.3088 -0.5943 -2.3938 0.9548
-11.2634 -0.9998 -2.3902 0.9548
-11.0448 -2.1999 -2.3805 0.9550
-10.8319 -2.9823 -2.3748 0.9551
-9.8858 -5.2075 -2.3619 0.9553
-9.2501 -6.2326 -2.3577 0.9554
-9.0157 -6.5589 -2.3567 0.9554
-8.5148 -7.1865 -2.3552 0.9555
-8.2487 -7.4870 -2.3547 0.9555
-7.9727 -7.7782 -2.3544 0.9555
-7.6870 -8.0600 -2.3543 0.9555
-7.0878 -8.5938 -2.3547 0.9555
-6.7749 -8.8451 -2.3551 0.9555
-6.4537 -9.0858 -2.3557 0.9555
-6.1243 -9.3156 -2.3565 0.9554
-5.4427 -9.7413 -2.3587 0.9554
-4.7330 -10.1201 -2.3616 0.9554
-4.3686 -10.2914 -2.3633 0.9553
-3.9982 -10.4504 -2.3651 0.9553
-3.2414 -10.7305 -2.3694 0.9552
-2.8556 -10.8512 -2.3718 0.9552
-2.0716 -11.0532 -2.3771 0.9551
-1.6742 -11.1342 -2.3800 0.9550
-0.0581 -11.3214 -2.3931 0.9548
0.3502 -11.3334 -2.3968 0.9547
0.7594 -11.3314 -2.4006 0.9546
1.9875 -11.2405 -2.4129 0.9544
2.3954 -11.1818 -2.4172 0.9543
2.8018 -11.1088 -2.4217 0.9542
3.2062 -11.0216 -2.4263 0.9542
3.6081 -10.9201 -2.4310 0.9541
4.0070 -10.8045 -2.4358 0.9540
4.7940 -10.5309 -2.4458 0.9538
6.3134 -9.8215 -2.4680 0.9534
6.6775 -9.6085 -2.4733 0.9533
7.3844 -9.1430 -2.4843 0.9531
8.0594 -8.6262 -2.4954 0.9529
8.3838 -8.3491 -2.5010 0.9528
8.6988 -8.0599 -2.5067 0.9527
-10.1359 2.0514 -2.4305 0.9584
-10.1861 1.6822 -2.4264 0.9585
-10.2234 1.3120 -2.4224 0.9585
-10.2477 0.9414 -2.4186 0.9586
-10.2577 0.2006 -2.4113 0.9587
-10.2435 -0.1688 -2.4078 0.9588
-10.2165 -0.5369 -2.4044 0.9588
-10.1248 -1.2677 -2.3981 0.9589
-9.7931 -2.6963 -2.3873 0.9591
-9.6801 -3.0443 -2.3849 0.9592
-9.4190 -3.7266 -2.3806 0.9592
-9.2713 -4.0602 -2.3788 0.9593
-9.1124 -4.3884 -2.3770 0.9593
-8.7618 -5.0267 -2.3740 0.9593
-7.9355 -6.2223 -2.3700 0.9594
-7.7043 -6.5024 -2.3694 0.9594
-7.2141 -7.0381 -2.3687 0.9594
-6.9556 -7.2932 -2.3686 0.9594
-6.6886 -7.5392 -2.3687 0.9594
-4.6057 -8.9891 -2.3738 0.9593
-4.2814 -9.1545 -2.3752 0.9593
-3.9515 -9.3088 -2.3767 0.9593
-3.6162 -9.4519 -2.3784 0.9593
-3.2760 -9.5836 -2.3803 0.9592
-2.5821 -9.8118 -2.3845 0.9592
-2.2292 -9.9081 -2.3868 0.9591
-1.5133 -10.0644 -2.3919 0.9590
-0.7867 -10.1713 -2.3976 0.9589
0.3164 -10.2376 -2.4072 0.9588
1.0556 -10.2180 -2.4142 0.9587
1.4252 -10.1890 -2.4179 0.9586
1.7941 -10.1471 -2.4218 0.9585
3.2547 -9.8505 -2.4382 0.9583
4.6730 -9.3558 -2.4578 0.9579
5.0164 -9.1987 -2.4625 0.9579
6.6478 -8.2310 -2.4866 0.9575
6.9539 -8.0023 -2.4916 0.9574
7.2523 -7.7622 -2.4966 0.9573
8.0966 -6.9771 -2.5119 0.9570
8.6130 -6.4022 -2.5222 0.9569
8.8560 -6.1003 -2.5274 0.9568
9.0885 -5.7891 -2.5325 0.9567
-9.2256 1.8672 -2.4371 0.9619
-9.2727 1.5313 -2.4334 0.9619
-9.3080 1.1946 -2.4298 0.9620
-9.3432 0.5199 -2.4229 0.9621
-9.0192 -2.1369 -2.3999 0.9624
-8.9279 -2.4580 -2.3976 0.9625
-8.8256 -2.7755 -2.3954 0.9625
-8.5889 -3.3982 -2.3915 0.9626
-8.4548 -3.7027 -2.3898 0.9626
-7.9915 -4.5848 -2.3855 0.9626
-7.8175 -4.8673 -2.3843 0.9627
-7.4410 -5.4133 -2.3825 0.9627
-7.2390 -5.6762 -2.3818 0.9627
-6.8089 -6.1801 -2.3808 0.9627
-6.5812 -6.4207 -2.3806 0.9627
-6.1018 -6.8778 -2.3806 0.9627
-5.5922 -7.3010 -2.3812 0.9627
-5.3268 -7.4993 -2.3817 0.9627
-5.0546 -7.6885 -2.3824 0.9627
-4.7761 -7.8683 -2.3832 0.9627
-4.4914 -8.0386 -2.3842 0.9627
-3.9049 -8.3494 -2.3865 0.9626
-3.6038 -8.4897 -2.3880 0.9626
-2.9873 -8.7390 -2.3912 0.9626
-2.0322 -9.0328 -2.3972 0.9625
-1.7072 -9.1088 -2.3995 0.9624
-1.0491 -9.2270 -2.4044 0.9624
-0.7169 -9.2691 -2.4071 0.9623
-0.0478 -9.3187 -2.4128 0.9622
0.2882 -9.3261 -2.4158 0.9622
1.6335 -9.2387 -2.4292 0.9620
2.6326 -9.0498 -2.4403 0.9618
3.9337 -8.6410 -2.4582 0.9615
4.2495 -8.5080 -2.4624 0.9615
4.5610 -8.3637 -2.4666 0.9614
4.8678 -8.2083 -2.4709 0.9613
5.1693 -8.0417 -2.4752 0.9613
5.4653 -7.8642 -2.4796 0.9612
6.3159 -7.2681 -2.4931 0.9610
7.1023 -6.5806 -2.5069 0.9608
7.5856 -6.0747 -2.5162 0.9606
8.2423 -5.2500 -2.5302 0.9604
-8.4572 1.7116 -2.4427 0.9648
-8.5014 1.4039 -2.4393 0.9648
-8.5348 1.0954 -2.4360 0.9649
-8.5691 0.4768 -2.4296 0.9650
-8.5700 0.1676 -2.4266 0.9650
-8.5602 -0.1410 -2.4236 0.9650
-8.5084 -0.7552 -2.4181 0.9651
-8.4142 -1.3629 -2.4131 0.9652
-8.2785 -1.9614 -2.4085 0.9653
-7.4895 -3.9452 -2.3964 0.9654
-7.3388 -4.2103 -2.3952 0.9654
-7.1792 -4.4700 -2.3941 0.9655
-7.0109 -4.7238 -2.3932 0.9655
-6.8339 -4.9717 -2.3924 0.9655
-6.2538 -5.6763 -2.3909 0.9655
-6.0447 -5.8973 -2.3907 0.9655
-5.8282 -6.1110 -2.3906 0.9655
-5.6044 -6.3171 -2.3907 0.9655
-5.3737 -6.5154 -2.3909 0.9655
-5.1362 -6.7057 -2.3912 0.9655
-4.8923 -6.8877 -2.3917 0.9655
-4.6423 -7.0613 -2.3923 0.9655
-4.1247 -7.3823 -2.3940 0.9655
-3.8578 -7.5293 -2.3950 0.9654
-3.5858 -7.6672 -2.3962 0.9654
-3.3092 -7.7956 -2.3975 0.9654
-3.0280 -7.9145 -2.3989 0.9654
-2.7428 -8.0237 -2.4005 0.9654
-2.4538 -8.1231 -2.4022 0.9653
-2.1612 -8.2125 -2.4040 0.9653
-1.8655 -8.2918 -2.4060 0.9653
-1.5670 -8.3608 -2.4081 0.9653
-1.2660 -8.4196 -2.4103 0.9652
0.2644 -8.5555 -2.4232 0.9650
0.8818 -8.5351 -2.4291 0.9650
1.4979 -8.4715 -2.4354 0.9649
2.4130 -8.2950 -2.4456 0.9647
3.3113 -8.0290 -2.4587 0.9645
4.1774 -7.6603 -2.4701 0.9644
4.7331 -7.3631 -2.4780 0.9643
5.0034 -7.1996 -2.4820 0.9642
5.2681 -7.0262 -2.4861 0.9642
5.5269 -6.8432 -2.4902 0.9641
6.2643 -6.2384 -2.5028 0.9639
7.1435 -5.3099 -2.5198 0.9637
7.3426 -5.0577 -2.5240 0.9636
-7.8409 1.2948 -2.4443 0.9673
-7.8725 1.0103 -2.4413 0.9673
-7.9057 0.4398 -2.4354 0.9674
-7.9073 0.1546 -2.4326 0.9674
-7.8990 -0.1301 -2.4299 0.9675
-7.8807 -0.4141 -2.4273 0.9675
-7.8146 -0.9784 -2.4224 0.9676
-7.7669 -1.2581 -2.4201 0.9676
-7.6428 -1.8108 -2.4158 0.9677
-7.5665 -2.0832 -2.4139 0.9677
-7.4808 -2.3526 -2.4120 0.9677
-7.3859 -2.6187 -2.4103 0.9677
-7.2820 -2.8811 -2.4087 0.9678
-6.9170 -3.6437 -2.4046 0.9678
-6.7781 -3.8887 -2.4035 0.9678
-6.6309 -4.1286 -2.4025 0.9678
-6.3123 -4.5922 -2.4010 0.9679
-5.9627 -5.0325 -2.3999 0.9679
-5.7768 -5.2433 -2.3996 0.9679
-4.9638 -6.0185 -2.3995 0.9679
-4.5191 -6.3622 -2.4003 0.9679
-4.2880 -6.5224 -2.4009 0.9679
-2.7963 -7.3090 -2.4070 0.9678
-2.5328 -7.4094 -2.4084 0.9678
-2.2658 -7.5008 -2.4100 0.9677
-1.9955 -7.5829 -2.4117 0.9677
-0.3244 -7.8754 -2.4243 0.9676
1.0979 -7.8493 -2.4378 0.9674
1.6643 -7.7691 -2.4438 0.9673
2.7801 -7.4962 -2.4591 0.9671
3.0525 -7.4014 -2.4625 0.9670
3.3217 -7.2968 -2.4659 0.9670
3.5875 -7.1826 -2.4695 0.9670
3.8494 -7.0589 -2.4730 0.9669
4.1072 -6.9258 -2.4766 0.9669
4.6089 -6.6319 -2.4840 0.9668
5.0898 -6.3020 -2.4916 0.9667
5.5474 -5.9375 -2.4993 0.9666
6.1843 -5.3292 -2.5110 0.9664
6.5724 -4.8854 -2.5188 0.9663
6.7546 -4.6527 -2.5227 0.9663
-7.2982 0.9366 -2.4459 0.9695
-7.3189 0.6724 -2.4431 0.9695
-7.3089 -0.3841 -2.4329 0.9696
-7.2833 -0.6465 -2.4305 0.9696
-7.2487 -0.9075 -2.4283 0.9697
-7.2049 -1.1671 -2.4262 0.9697
-7.1522 -1.4246 -2.4241 0.9697
-7.0203 -1.9329 -2.4204 0.9698
-6.8535 -2.4299 -2.4171 0.9698
-6.7573 -2.6735 -2.4156 0.9698
-6.6529 -2.9135 -2.4142 0.9698
-6.5402 -3.1496 -2.4130 0.9699
-6.4194 -3.3816 -2.4118 0.9699
-6.1544 -3.8319 -2.4099 0.9699
-5.8589 -4.2624 -2.4084 0.9699
-5.3621 -4.8669 -2.4071 0.9699
-4.9972 -5.2397 -2.4068 0.9699
-4.8053 -5.4164 -2.4069 0.9699
-4.1946 -5.9054 -2.4078 0.9699
-3.9800 -6.0540 -2.4083 0.9699
-3.3069 -6.4542 -2.4106 0.9699
-2.5950 -6.7828 -2.4140 0.9699
-2.1025 -6.9601 -2.4168 0.9698
-1.3422 -7.1613 -2.4219 0.9698
-0.8245 -7.2511 -2.4258 0.9697
-0.5632 -7.2824 -2.4279 0.9697
-0.0376 -7.3177 -2.4325 0.9696
0.7543 -7.3014 -2.4400 0.9695
1.2809 -7.2443 -2.4454 0.9695
1.8033 -7.1501 -2.4511 0.9694
2.3206 -7.0235 -2.4588 0.9693
2.8283 -6.8578 -2.4658 0.9692
3.3234 -6.6538 -2.4723 0.9691
3.5656 -6.5385 -2.4756 0.9691
4.4924 -5.9916 -2.4893 0.9689
4.7119 -5.8341 -2.4928 0.9689
5.9042 -4.7282 -2.5144 0.9686
6.2473 -4.3033 -2.5216 0.9685
-6.7295 1.3620 -2.4553 0.9713
-6.8285 0.1336 -2.4424 0.9714
-6.8223 -0.1124 -2.4400 0.9714
-6.8075 -0.3577 -2.4378 0.9715
-6.7119 -1.0872 -2.4315 0.9715
-6.6632 -1.3272 -2.4296 0.9716
-6.3862 -2.2642 -2.4230 0.9716
-6.2969 -2.4913 -2.4216 0.9716
-6.1997 -2.7151 -2.4204 0.9717
-6.0950 -2.9352 -2.4192 0.9717
-5.8629 -3.3636 -2.4171 0.9717
-5.7359 -3.5713 -2.4163 0.9717
-5.4608 -3.9727 -2.4149 0.9717
-5.1586 -4.3539 -2.4140 0.9717
-4.8309 -4.7130 -2.4135 0.9717
-3.9096 -5.5042 -2.4143 0.9717
-3.7096 -5.6426 -2.4148 0.9717
-3.5048 -5.7740 -2.4154 0.9717
-3.2955 -5.8982 -2.4161 0.9717
-2.4183 -6.3208 -2.4201 0.9717
-2.1902 -6.4072 -2.4214 0.9716
-1.9591 -6.4856 -2.4228 0.9716
-1.7253 -6.5559 -2.4243 0.9716
-1.4890 -6.6182 -2.4258 0.9716
-1.2505 -6.6721 -2.4275 0.9716
-1.0101 -6.7177 -2.4293 0.9716
-0.7681 -6.7550 -2.4312 0.9715
-0.5247 -6.7838 -2.4332 0.9715
0.2107 -6.8189 -2.4396 0.9714
0.7025 -6.7992 -2.4444 0.9714
1.1926 -6.7450 -2.4495 0.9713
1.9208 -6.6020 -2.4586 0.9712
2.1607 -6.5396 -2.4630 0.9712
2.3977 -6.4651 -2.4658 0.9711
2.6321 -6.3821 -2.4687 0.9711
2.8637 -6.2907 -2.4717 0.9711
3.5388 -5.9673 -2.4810 0.9710
3.7562 -5.8434 -2.4841 0.9709
4.1780 -5.5723 -2.4906 0.9708
4.3817 -5.4253 -2.4938 0.9708
5.1428 -4.7651 -2.5072 0.9707
5.4872 -4.3942 -2.5139 0.9706
5.9530 -3.7918 -2.5240 0.9705
-6.2879 1.2726 -2.4585 0.9729
-6.3502 0.8149 -2.4535 0.9729
-6.3691 0.5851 -2.4510 0.9730
-6.3799 0.3550 -2.4487 0.9730
-6.3773 -0.1051 -2.4442 0.9730
-6.3638 -0.3344 -2.4421 0.9731
-6.2303 -1.2410 -2.4345 0.9732
-6.0482 -1.9021 -2.4297 0.9732
-5.9723 -2.1175 -2.4283 0.9732
-5.8890 -2.3300 -2.4270 0.9732
-5.7006 -2.7453 -2.4247 0.9733
-5.5957 -2.9476 -2.4237 0.9733
-5.4838 -3.1461 -2.4228 0.9733
-5.2398 -3.5306 -2.4213 0.9733
-4.9699 -3.8969 -2.4202 0.9733
-4.3571 -4.5685 -2.4193 0.9733
-4.0172 -4.8707 -2.4195 0.9733
-3.8396 -5.0129 -2.4198 0.9733
-3.6571 -5.1487 -2.4201 0.9733
-3.4699 -5.2780 -2.4206 0.9733
-3.2783 -5.4009 -2.4212 0.9733
-3.0825 -5.5171 -2.4218 0.9733
-2.4721 -5.8238 -2.4245 0.9733
-2.2618 -5.9117 -2.4256 0.9733
-2.0484 -5.9923 -2.4268 0.9732
-1.8321 -6.0654 -2.4281 0.9732
-1.6134 -6.1309 -2.4295 0.9732
-1.3924 -6.1888 -2.4309 0.9732
-1.1693 -6.2390 -2.4325 0.9732
-0.9445 -6.2814 -2.4342 0.9732
-0.0327 -6.3716 -2.4417 0.9731
0.1970 -6.3742 -2.4439 0.9731
0.4268 -6.3686 -2.4460 0.9730
0.8859 -6.3333 -2.4506 0.9730
1.3422 -6.2655 -2.4555 0.9729
1.5691 -6.2212 -2.4587 0.9729
1.7955 -6.1721 -2.4633 0.9728
2.0188 -6.1099 -2.4659 0.9728
2.2399 -6.0398 -2.4686 0.9728
2.6749 -5.8759 -2.4741 0.9727
2.8881 -5.7824 -2.4769 0.9727
3.0981 -5.6812 -2.4798 0.9727
4.2755 -4.9200 -2.4979 0.9725
4.6301 -4.6109 -2.5041 0.9724
4.9624 -4.2763 -2.5103 0.9723
5.2705 -3.9177 -2.5166 0.9723
5.4150 -3.7300 -2.5198 0.9722
5.5527 -3.5369 -2.5229 0.9722
-5.8945 1.1930 -2.4614 0.9743
-5.9278 0.9789 -2.4590 0.9744
-5.9536 0.7641 -2.4566 0.9744
-5.9717 0.5486 -2.4544 0.9744
-5.9822 0.3329 -2.4522 0.9744
-5.9681 -0.3136 -2.4460 0.9745
-5.9483 -0.5280 -2.4441 0.9745
-5.8441 -1.1640 -2.4388 0.9746
-5.7946 -1.3729 -2.4372 0.9746
-5.7378 -1.5797 -2.4357 0.9746
-5.6029 -1.9865 -2.4330 0.9746
-5.5250 -2.1860 -2.4318 0.9746
-5.4401 -2.3824 -2.4306 0.9747
-5.3485 -2.5757 -2.4296 0.9747
-5.2502 -2.7657 -2.4287 0.9747
-5.1453 -2.9519 -2.4278 0.9747
-4.7930 -3.4869 -2.4258 0.9747
-4.6634 -3.6566 -2.4254 0.9747
-4.5280 -3.8216 -2.4250 0.9747
-4.3870 -3.9818 -2.4248 0.9747
-4.0885 -4.2870 -2.4246 0.9747
-3.7696 -4.5705 -2.4247 0.9747
-2.5138 -5.3749 -2.4285 0.9747
-2.3194 -5.4641 -2.4294 0.9747
-1.3062 -5.8056 -2.4355 0.9746
-1.0969 -5.8524 -2.4370 0.9746
-0.4601 -5.9487 -2.4419 0.9745
0.4003 -5.9720 -2.4497 0.9745
0.8306 -5.9382 -2.4540 0.9744
1.4721 -5.8369 -2.4637 0.9743
1.6831 -5.7857 -2.4661 0.9743
2.0994 -5.6609 -2.4710 0.9742
2.3044 -5.5874 -2.4736 0.9742
2.7064 -5.4185 -2.4789 0.9742
3.0962 -5.2210 -2.4843 0.9741
3.6537 -4.8730 -2.4927 0.9740
4.3357 -4.3178 -2.5043 0.9739
4.4937 -4.1636 -2.5072 0.9739
4.6462 -4.0038 -2.5102 0.9738
5.0687 -3.4915 -2.5190 0.9737
5.1972 -3.3105 -2.5219 0.9737
-5.5975 0.7184 -2.4595 0.9757
-5.6149 0.5158 -2.4574 0.9757
-5.6239 -0.0927 -2.4513 0.9758
-5.5942 -0.4965 -2.4476 0.9758
-5.4506 -1.2914 -2.4412 0.9759
-5.3974 -1.4860 -2.4398 0.9759
-5.3375 -1.6786 -2.4385 0.9759
-5.2708 -1.8688 -2.4372 0.9759
-5.1180 -2.2413 -2.4350 0.9759
-5.0319 -2.4233 -2.4340 0.9759
-4.9395 -2.6020 -2.4331 0.9759
-4.8410 -2.7773 -2.4323 0.9759
-4.7364 -2.9490 -2.4316 0.9759
-4.6260 -3.1170 -2.4310 0.9760
-4.5097 -3.2808 -2.4305 0.9760
-4.3878 -3.4405 -2.4301 0.9760
-4.1278 -3.7466 -2.4295 0.9760
-3.8470 -4.0337 -2.4293 0.9760
-3.6993 -4.1697 -2.4293 0.9760
-3.3900 -4.4259 -2.4297 0.9760
-3.2288 -4.5457 -2.4300 0.9760
-3.0635 -4.6599 -2.4304 0.9760
-2.3650 -5.0569 -2.4330 0.9759
-2.1821 -5.1406 -2.4339 0.9759
-1.9964 -5.2180 -2.4348 0.9759
-1.8079 -5.2888 -2.4359 0.9759
-1.6170 -5.3530 -2.4370 0.9759
-0.0289 -5.6196 -2.4491 0.9758
0.3764 -5.6158 -2.4529 0.9757
0.5790 -5.6032 -2.4549 0.9757
0.7810 -5.5833 -2.4570 0.9757
0.9826 -5.5576 -2.4597 0.9757
1.3840 -5.4873 -2.4663 0.9756
1.5822 -5.4388 -2.4686 0.9756
2.1658 -5.2515 -2.4757 0.9755
2.5434 -5.0921 -2.4806 0.9755
3.2618 -4.6936 -2.4910 0.9754
3.7613 -4.3283 -2.4991 0.9753
4.6325 -3.4434 -2.5156 0.9751
4.8790 -3.1078 -2.5211 0.9751
-5.2222 1.0569 -2.4663 0.9768
-5.2523 0.8674 -2.4641 0.9768
-5.3022 0.2950 -2.4581 0.9769
-5.3053 0.1037 -2.4562 0.9769
-5.2503 -0.6574 -2.4493 0.9769
-5.1829 -1.0324 -2.4462 0.9770
-5.0894 -1.4013 -2.4435 0.9770
-4.9704 -1.7623 -2.4411 0.9770
-4.9015 -1.9393 -2.4400 0.9770
-4.8265 -2.1137 -2.4390 0.9770
-4.7454 -2.2853 -2.4380 0.9771
-4.2533 -3.0943 -2.4347 0.9771
-4.1384 -3.2450 -2.4343 0.9771
-3.8932 -3.5337 -2.4337 0.9771
-3.6284 -3.8045 -2.4335 0.9771
-3.4891 -3.9328 -2.4336 0.9771
-3.3453 -4.0561 -2.4337 0.9771
-2.8893 -4.3950 -2.4346 0.9771
-2.7297 -4.4971 -2.4351 0.9771
-2.4001 -4.6843 -2.4363 0.9771
-1.8827 -4.9209 -2.4388 0.9770
-1.5248 -5.0479 -2.4409 0.9770
-1.1586 -5.1496 -2.4433 0.9770
-0.0272 -5.2978 -2.4523 0.9769
0.1638 -5.2991 -2.4541 0.9769
0.3548 -5.2937 -2.4559 0.9769
0.7363 -5.2639 -2.4603 0.9768
0.9271 -5.2431 -2.4646 0.9768
1.1162 -5.2107 -2.4666 0.9768
1.6761 -5.0729 -2.4730 0.9767
1.8594 -5.0138 -2.4753 0.9767
2.3961 -4.7974 -2.4822 0.9766
3.0723 -4.4208 -2.4920 0.9765
3.3894 -4.1967 -2.4970 0.9765
3.6903 -3.9498 -2.5021 0.9765
3.9733 -3.6815 -2.5073 0.9764
4.3608 -3.2415 -2.5151 0.9763
4.5923 -2.9252 -2.5203 0.9763
-4.9321 0.9982 -2.4684 0.9778
-4.9991 0.4592 -2.4625 0.9779
-5.0086 0.2787 -2.4607 0.9779
-5.0085 -0.0825 -2.4571 0.9779
-4.9829 -0.4423 -2.4538 0.9780
-4.9606 -0.6211 -2.4523 0.9780
-4.9321 -0.7989 -2.4508 0.9780
-4.8563 -1.1506 -2.4481 0.9780
-4.5612 -1.9975 -2.4425 0.9781
-4.4026 -2.3192 -2.4409 0.9781
-4.3149 -2.4755 -2.4402 0.9781
-3.9114 -3.0669 -2.4381 0.9781
-3.7979 -3.2055 -2.4378 0.9781
-3.2977 -3.7171 -2.4374 0.9781
-3.0220 -3.9454 -2.4378 0.9781
-2.7308 -4.1538 -2.4384 0.9781
-2.4257 -4.3414 -2.4394 0.9781
-1.9449 -4.5817 -2.4415 0.9781
-1.7792 -4.6504 -2.4424 0.9781
-1.4410 -4.7703 -2.4444 0.9780
-1.0948 -4.8662 -2.4466 0.9780
-0.9193 -4.9050 -2.4479 0.9780
-0.7424 -4.9375 -2.4492 0.9780
-0.5644 -4.9639 -2.4506 0.9780
-0.3855 -4.9840 -2.4520 0.9780
-0.2058 -4.9978 -2.4536 0.9780
-0.0257 -5.0052 -2.4552 0.9779
1.0543 -4.9216 -2.4689 0.9778
1.2319 -4.8844 -2.4709 0.9778
1.4082 -4.8407 -2.4729 0.9778
1.7560 -4.7347 -2.4771 0.9778
1.9270 -4.6725 -2.4792 0.9777
2.0959 -4.6041 -2.4814 0.9777
2.2624 -4.5296 -2.4836 0.9777
2.4263 -4.4493 -2.4859 0.9777
2.5874 -4.3630 -2.4882 0.9777
3.0516 -4.0699 -2.4952 0.9776
3.3431 -3.8471 -2.5000 0.9775
3.4829 -3.7278 -2.5025 0.9775
3.6184 -3.6034 -2.5049 0.9775
3.9977 -3.2014 -2.5123 0.9774
4.1144 -3.0584 -2.5147 0.9774
4.2260 -2.9110 -2.5172 0.9774
4.3323 -2.7596 -2.5196 0.9774
-4.6674 0.9447 -2.4704 0.9788
-4.7435 0.0928 -2.4613 0.9788
-4.7406 -0.0781 -2.4596 0.9789
-4.7316 -0.2486 -2.4581 0.9789
-4.7167 -0.4186 -2.4565 0.9789
-4.2462 -2.0449 -2.4450 0.9790
-4.1686 -2.1959 -2.4442 0.9790
-4.0856 -2.3440 -2.4436 0.9790
-3.9045 -2.6308 -2.4424 0.9790
-3.8065 -2.7692 -2.4420 0.9790
-3.4843 -3.1626 -2.4411 0.9790
-3.3680 -3.2858 -2.4410 0.9790
-2.9940 -3.6301 -2.4411 0.9790
-2.7254 -3.8370 -2.4416 0.9790
-2.2968 -4.1108 -2.4429 0.9790
-2.1478 -4.1919 -2.4435 0.9790
-1.9959 -4.2677 -2.4441 0.9790
-1.8415 -4.3381 -2.4449 0.9790
-1.6846 -4.4031 -2.4457 0.9790
-1.3643 -4.5163 -2.4475 0.9790
-1.2012 -4.5645 -2.4486 0.9790
-1.0365 -4.6069 -2.4497 0.9789
-0.8703 -4.6435 -2.4509 0.9789
-0.5343 -4.6990 -2.4534 0.9789
-0.1948 -4.7307 -2.4563 0.9789
-0.0243 -4.7376 -2.4578 0.9789
0.1462 -4.7382 -2.4594 0.9789
0.3173 -4.7346 -2.4617 0.9788
0.9977 -4.6575 -2.4710 0.9788
1.3325 -4.5805 -2.4748 0.9787
1.8232 -4.4208 -2.4808 0.9787
2.4475 -4.1271 -2.4892 0.9786
2.7431 -3.9472 -2.4937 0.9786
2.8861 -3.8493 -2.4959 0.9786
3.0257 -3.7463 -2.4982 0.9785
3.1615 -3.6382 -2.5005 0.9785
3.4215 -3.4074 -2.5051 0.9785
3.5453 -3.2850 -2.5074 0.9785
4.0953 -2.6086 -2.5190 0.9784
-4.4504 0.7349 -2.4706 0.9796
-4.4850 0.4120 -2.4668 0.9797
-4.4861 -0.2358 -2.4605 0.9797
-4.4721 -0.3970 -2.4590 0.9797
-4.4270 -0.7171 -2.4563 0.9798
-4.3596 -1.0329 -2.4538 0.9798
-4.3175 -1.1887 -2.4527 0.9798
-4.2172 -1.4952 -2.4506 0.9798
-3.8748 -2.2230 -2.4467 0.9798
-3.7913 -2.3606 -2.4461 0.9798
-3.7031 -2.4951 -2.4456 0.9798
-3.6102 -2.6264 -2.4452 0.9798
-3.4109 -2.8788 -2.4446 0.9798
-3.3047 -2.9996 -2.4444 0.9799
-3.1944 -3.1165 -2.4443 0.9799
-3.0800 -3.2295 -2.4442 0.9799
-2.9617 -3.3384 -2.4443 0.9799
-2.8396 -3.4430 -2.4444 0.9799
-2.4525 -3.7304 -2.4451 0.9798
-2.3169 -3.8170 -2.4456 0.9798
-2.0370 -3.9756 -2.4466 0.9798
-1.8929 -4.0474 -2.4472 0.9798
-1.7464 -4.1142 -2.4479 0.9798
-1.4467 -4.2320 -2.4496 0.9798
-1.2938 -4.2830 -2.4505 0.9798
-1.1391 -4.3286 -2.4515 0.9798
-0.5066 -4.4556 -2.4561 0.9798
-0.3461 -4.4733 -2.4574 0.9797
-0.1847 -4.4855 -2.4588 0.9797
0.4631 -4.4821 -2.4679 0.9797
0.7856 -4.4431 -2.4712 0.9796
0.9458 -4.4149 -2.4729 0.9796
1.1050 -4.3812 -2.4747 0.9796
1.2630 -4.3417 -2.4765 0.9796
1.8792 -4.1280 -2.4841 0.9795
2.0283 -4.0609 -2.4861 0.9795
2.5991 -3.7399 -2.4944 0.9794
2.8665 -3.5491 -2.4987 0.9794
3.2410 -3.2276 -2.5052 0.9794
3.3581 -3.1115 -2.5074 0.9793
3.4711 -2.9912 -2.5096 0.9793
3.5797 -2.8667 -2.5118 0.9793
3.6838 -2.7383 -2.5140 0.9793
3.8781 -2.4703 -2.5184 0.9792
-4.2042 0.8508 -2.4765 0.9804
-4.2263 0.6979 -2.4731 0.9804
-4.2448 0.5448 -2.4708 0.9804
-4.2697 0.0835 -2.4656 0.9805
-4.2596 -0.2239 -2.4627 0.9805
-4.2464 -0.3770 -2.4613 0.9805
-4.1746 -0.8315 -2.4575 0.9805
-4.1400 -0.9809 -2.4564 0.9805
-4.0552 -1.2753 -2.4543 0.9806
-3.9499 -1.5628 -2.4525 0.9806
-3.8247 -1.8420 -2.4509 0.9806
-3.7548 -1.9779 -2.4502 0.9806
-3.5172 -2.3699 -2.4486 0.9806
-3.4290 -2.4946 -2.4482 0.9806
-3.2397 -2.7343 -2.4476 0.9806
-3.1389 -2.8490 -2.4474 0.9806
-3.0341 -2.9601 -2.4473 0.9806
-2.9254 -3.0674 -2.4472 0.9806
-2.8131 -3.1708 -2.4473 0.9806
-2.5778 -3.3655 -2.4476 0.9806
-2.0689 -3.7030 -2.4490 0.9806
-1.7978 -3.8441 -2.4501 0.9806
-1.2287 -4.0676 -2.4532 0.9806
-0.9334 -4.1487 -2.4551 0.9806
-0.7837 -4.1815 -2.4562 0.9805
-0.4811 -4.2311 -2.4585 0.9805
0.1320 -4.2709 -2.4670 0.9805
0.8979 -4.1912 -2.4747 0.9804
1.0490 -4.1590 -2.4764 0.9804
1.3475 -4.0784 -2.4799 0.9804
1.6400 -3.9766 -2.4835 0.9803
1.7836 -3.9179 -2.4853 0.9803
2.2009 -3.7112 -2.4911 0.9803
2.3350 -3.6324 -2.4931 0.9803
2.4663 -3.5488 -2.4951 0.9802
2.5946 -3.4605 -2.4971 0.9802
2.8416 -3.2701 -2.5012 0.9802
2.9600 -3.1682 -2.5033 0.9802
3.1857 -2.9518 -2.5074 0.9801
3.2927 -2.8374 -2.5095 0.9801
3.4942 -2.5973 -2.5137 0.9801
3.5885 -2.4718 -2.5157 0.9801
3.6782 -2.3429 -2.5178 0.9801
