ply
format ascii 1.0
element vertex 1205
property float32 x
property float32 y
property float32 z
property float32 I
end_header
31.5157 9.8504 5.8222 0.8745
19.8436 8.6292 3.8155 0.9159
23.4138 12.2401 4.6586 0.8982
16.9965 9.6741 3.4484 0.9236
15.7099 9.7013 3.2557 0.9277
14.4887 13.0176 3.4344 0.9239
14.5099 14.0058 3.5559 0.9214
14.5327 15.0679 3.6913 0.9185
16.4357 18.3078 4.3382 0.9049
15.5016 19.9711 4.4578 0.9024
14.8367 24.0478 4.9824 0.8916
23.1486 40.7080 8.2573 0.8268
16.6297 38.2838 7.3598 0.8441
15.0520 38.3477 7.2640 0.8459
13.5006 38.3749 7.1730 0.8477
11.1849 47.5496 8.6131 0.8200
35.8698 9.8185 5.6972 0.8603
31.5156 9.8503 5.0584 0.8749
31.7170 11.1727 5.1515 0.8728
29.6989 11.6710 4.8884 0.8789
19.8414 8.6283 3.3146 0.9162
16.9945 9.6730 2.9956 0.9239
16.2558 10.0384 2.9269 0.9256
15.5840 11.2368 2.9433 0.9252
14.7283 12.3106 2.9407 0.9253
14.5098 14.0057 3.0894 0.9216
16.4356 18.3077 3.7690 0.9052
16.4659 19.7159 3.9352 0.9013
15.5004 19.9696 3.8727 0.9028
14.6450 20.3281 3.8381 0.9036
14.3021 23.1813 4.1727 0.8956
13.4589 38.2565 6.2128 0.8486
11.9503 38.2887 6.1447 0.8502
41.3097 9.7347 5.5267 0.8427
31.3567 9.8007 4.2781 0.8759
29.4511 10.3745 4.0661 0.8817
29.4770 11.5839 4.1243 0.8801
28.3066 13.5324 4.0857 0.8811
23.4080 12.2371 3.4396 0.8989
16.2731 10.8712 2.5485 0.9241
16.1963 12.5821 2.6707 0.9206
14.8572 12.4183 2.5215 0.9249
14.5326 15.0678 2.7260 0.9190
16.4355 18.3076 3.2038 0.9055
16.4658 19.7159 3.3450 0.9016
9.9244 14.8687 2.3279 0.9304
14.3011 23.1797 3.5467 0.8960
14.7667 25.9681 3.8901 0.8865
19.9066 38.1164 5.5997 0.8408
18.2204 38.1525 5.5057 0.8432
16.6276 38.2789 5.4347 0.8451
15.0501 38.3429 5.3639 0.8469
12.4050 39.7455 5.4219 0.8454
31.3509 9.7988 3.5271 0.8762
29.4770 11.5839 3.4009 0.8804
28.3029 13.5306 3.3687 0.8814
16.2557 10.0383 2.0516 0.9260
16.2730 10.8712 2.1015 0.9243
14.5097 14.0057 2.1655 0.9221
14.6449 20.3279 2.6903 0.9041
9.9230 14.8667 1.9194 0.9306
14.7213 23.8608 3.0106 0.8933
16.6266 38.2765 4.4812 0.8454
13.5002 38.3739 4.3682 0.8490
12.4043 39.7430 4.4707 0.8458
-25.3233 26.1124 3.9060 0.8639
-25.4400 24.4221 3.7868 0.8677
-25.4756 22.7634 3.6686 0.8716
-26.2072 20.2442 3.5560 0.8753
-30.6282 20.3400 3.9481 0.8625
31.5154 9.8503 2.7951 0.8759
29.6852 11.6657 2.7000 0.8798
19.8347 8.6254 1.8310 0.9168
28.2992 13.5288 2.6553 0.8817
23.4023 12.2341 2.2354 0.8994
16.9886 9.6697 1.6548 0.9245
14.5521 9.7215 1.4815 0.9322
14.4324 10.4064 1.5062 0.9311
14.4500 11.2254 1.5490 0.9292
14.4686 12.0935 1.5963 0.9271
15.4970 19.9652 2.1395 0.9035
14.6448 20.3278 2.1209 0.9043
22.4781 39.5290 3.8494 0.8331
18.0243 37.7417 3.5406 0.8454
13.4563 38.2493 3.4324 0.8498
11.9481 38.2816 3.3948 0.8513
9.2860 33.9781 2.9818 0.8681
-25.3172 30.1461 3.3325 0.8538
-25.5092 21.2033 2.8080 0.8753
-28.2992 20.2875 2.9476 0.8696
-30.6248 20.3378 3.1121 0.8628
41.3094 9.7346 2.6318 0.8436
35.8401 9.8104 2.3042 0.8616
31.5153 9.8502 2.0475 0.8761
31.7167 11.1725 2.0852 0.8739
19.8325 8.6244 1.3411 0.9170
14.4323 10.4064 1.1033 0.9312
14.4499 11.2254 1.1347 0.9293
14.4685 12.0934 1.1693 0.9272
14.4884 13.0174 1.2078 0.9249
14.5096 14.0055 1.2505 0.9224
15.4959 19.9638 1.5671 0.9037
14.6447 20.3277 1.5536 0.9045
9.9203 14.8627 1.1081 0.9309
14.8363 24.0472 1.7521 0.8929
22.4766 39.5263 2.8196 0.8334
19.9027 38.1089 2.6660 0.8417
18.2606 38.2366 2.6276 0.8438
9.2842 33.9718 2.1839 0.8684
-25.2695 32.3719 2.5466 0.8482
-25.4402 24.4223 2.1868 0.8682
-25.4758 22.7635 2.1185 0.8720
-26.2020 20.2402 2.0531 0.8757
-30.6215 20.3356 2.2794 0.8630
41.3092 9.7346 1.6735 0.8438
31.3336 9.7934 1.2945 0.8769
29.4507 10.3743 1.2312 0.8825
19.8304 8.6234 0.8527 0.9171
28.2918 13.5253 1.2365 0.8820
14.5208 9.7006 0.6886 0.9325
14.4883 13.0174 0.7680 0.9250
16.4353 18.3073 0.9701 0.9062
16.4655 19.7155 1.0129 0.9023
15.4799 19.9431 0.9955 0.9039
14.2972 23.1734 1.0737 0.8967
14.7664 25.9675 1.1779 0.8873
13.9172 32.0391 1.3774 0.8695
12.0939 34.3764 1.4369 0.8643
12.4020 39.7358 1.6414 0.8465
9.2825 33.9655 1.3884 0.8685
-25.2174 34.8019 1.6947 0.8419
-25.2829 28.0081 1.4878 0.8598
-22.5211 23.2228 1.2756 0.8785
-25.3970 22.6931 1.3430 0.8725
-25.4304 21.1378 1.3039 0.8760
-26.1994 20.2382 1.3054 0.8759
35.4462 9.7025 0.6208 0.8633
31.3279 9.7916 0.5544 0.8769
29.4506 10.3743 0.5274 0.8826
29.4766 11.5837 0.5350 0.8810
28.2882 13.5236 0.5296 0.8821
16.9828 9.6664 0.3301 0.9248
14.5194 9.6997 0.2950 0.9325
14.4322 10.4063 0.3006 0.9313
14.4883 13.0173 0.3290 0.9250
14.5323 15.0675 0.3536 0.9197
16.4352 18.3073 0.4156 0.9063
9.9177 14.8587 0.3018 0.9310
15.9967 30.6299 0.5837 0.8709
14.6334 30.6414 0.5736 0.8730
13.3155 30.6539 0.5645 0.8748
9.2808 33.9592 0.5947 0.8686
-25.1395 34.6944 0.7237 0.8425
-25.1915 32.2720 0.6916 0.8489
-25.2392 30.0532 0.6629 0.8547
-25.3238 26.1129 0.6144 0.8646
-25.3617 24.3469 0.5939 0.8688
-25.3972 22.6933 0.5753 0.8726
-25.4306 21.1379 0.5586 0.8761
-26.1949 20.2347 0.5591 0.8760
-28.2884 20.2797 0.5879 0.8700
-30.6126 20.3297 0.6207 0.8633
32.1665 8.8048 -0.1878 0.8751
28.4275 8.8851 -0.1677 0.8877
22.9089 9.0027 -0.1386 0.9062
19.0227 9.0941 -0.1187 0.9191
16.0882 9.1571 -0.1042 0.9286
13.7700 9.1990 -0.0932 0.9359
11.8933 9.2393 -0.0848 0.9415
11.0749 9.2569 -0.0813 0.9439
10.5861 9.5113 -0.0801 0.9447
10.4146 11.6008 -0.0878 0.9395
10.3649 12.4107 -0.0910 0.9374
10.4035 13.4030 -0.0955 0.9344
10.3823 16.8281 -0.1113 0.9240
10.3638 19.8441 -0.1260 0.9143
10.3521 21.6767 -0.1352 0.9084
10.3390 23.8017 -0.1461 0.9014
10.3239 26.3021 -0.1591 0.8931
9.2794 33.9540 -0.1982 0.8687
-25.7888 35.5904 -0.2475 0.8388
-22.5406 28.8760 -0.2062 0.8637
-23.5095 27.9937 -0.2058 0.8640
-22.7357 25.1863 -0.1910 0.8731
-23.9890 24.7365 -0.1940 0.8712
-25.3618 24.3470 -0.1979 0.8688
-27.0017 22.4438 -0.1977 0.8690
-26.1923 20.2327 -0.1863 0.8760
-28.2855 20.2776 -0.1959 0.8700
-30.6093 20.3275 -0.2069 0.8633
25.4006 8.9476 -0.7583 0.8978
19.8238 8.6206 -0.6087 0.9171
17.4580 9.1265 -0.5547 0.9242
14.8571 9.1746 -0.4917 0.9325
13.7686 9.1981 -0.4662 0.9359
12.7859 9.2192 -0.4439 0.9389
11.0740 9.2561 -0.4064 0.9439
10.5852 9.5105 -0.4007 0.9446
10.4240 10.0619 -0.4079 0.9437
10.4194 10.8031 -0.4226 0.9417
10.3971 14.4317 -0.5008 0.9313
10.3823 16.8279 -0.5568 0.9239
10.3637 19.8440 -0.6304 0.9143
10.3520 21.6764 -0.6764 0.9084
10.3389 23.8014 -0.7307 0.9014
10.3238 26.3018 -0.7956 0.8931
10.3054 29.2927 -0.8744 0.8832
9.2781 33.9492 -0.9910 0.8686
-24.3723 33.6355 -1.1696 0.8469
-27.0017 22.4439 -0.9887 0.8689
-30.6059 20.3252 -1.0345 0.8633
28.4171 8.8819 -1.5099 0.8876
25.3964 8.9462 -1.3655 0.8978
19.8216 8.6196 -1.0962 0.9171
19.0178 9.0917 -1.0690 0.9190
14.8555 9.1736 -0.8855 0.9325
11.8911 9.2376 -0.7636 0.9415
11.0730 9.2553 -0.7319 0.9438
10.5842 9.5097 -0.7216 0.9446
10.4194 10.8031 -0.7612 0.9417
10.1170 11.2693 -0.7680 0.9411
10.4033 13.4029 -0.8604 0.9343
10.3970 14.4316 -0.9020 0.9312
9.7216 14.5650 -0.8881 0.9323
10.3822 16.8278 -1.0028 0.9239
10.3237 26.3015 -1.4329 0.8930
10.3052 29.2923 -1.5748 0.8831
10.2829 32.9460 -1.7503 0.8709
9.2469 33.8353 -1.7789 0.8689
10.2179 43.4390 -2.2631 0.8363
5.9662 47.9592 -2.4510 0.8240
4.2503 48.1670 -2.4522 0.8239
-20.8027 43.2545 -2.4341 0.8251
-18.4176 35.0310 -2.0071 0.8534
-18.1434 31.7037 -1.8525 0.8639
-18.2948 23.4369 -1.5078 0.8877
-18.2086 21.6817 -1.4359 0.8928
-18.6382 20.6471 -1.4106 0.8946
-25.9780 26.7875 -1.8924 0.8612
-25.3620 24.3471 -1.7830 0.8687
-26.7114 23.8676 -1.8167 0.8663
-27.0018 22.4439 -1.7807 0.8688
-30.6026 20.3230 -1.8630 0.8632
-40.0820 24.6003 -2.3850 0.8283
-40.8721 23.1158 -2.3813 0.8286
-41.6064 21.6058 -2.3776 0.8288
-42.2842 20.0725 -2.3738 0.8291
-42.9050 18.5182 -2.3699 0.8293
-43.9732 15.3549 -2.3621 0.8298
-44.4196 13.7501 -2.3582 0.8301
-44.8073 12.1332 -2.3542 0.8303
25.7482 6.0676 -1.9396 0.8993
25.6513 7.0215 -1.9500 0.8988
25.5390 7.9824 -1.9619 0.8982
22.8985 8.9987 -1.8040 0.9060
19.7134 8.5726 -1.5762 0.9174
19.0153 9.0905 -1.5454 0.9189
17.4537 9.1243 -1.4441 0.9240
14.8539 9.1726 -1.2800 0.9324
13.7658 9.1962 -1.2138 0.9358
11.8900 9.2367 -1.1040 0.9414
11.0720 9.2544 -1.0581 0.9438
10.4239 10.0617 -1.0623 0.9435
10.4193 10.8030 -1.1005 0.9416
9.4234 11.2834 -1.0779 0.9427
10.3733 18.2422 -1.5387 0.9193
10.3387 23.8009 -1.9027 0.9012
10.3236 26.3012 -2.0717 0.8929
10.3051 29.2919 -2.2768 0.8829
8.6630 31.6987 -2.4094 0.8765
6.7968 34.3632 -2.5684 0.8689
5.5649 34.5892 -2.5688 0.8689
4.3254 34.7694 -2.5690 0.8689
3.0799 34.9035 -2.5691 0.8689
1.8303 34.9913 -2.5691 0.8689
-0.6742 35.0280 -2.5688 0.8689
-3.1741 34.8792 -2.5680 0.8690
-4.4178 34.7354 -2.5674 0.8690
-5.6551 34.5458 -2.5667 0.8690
-6.8841 34.3106 -2.5659 0.8691
-9.3106 33.7049 -2.5639 0.8691
-11.6837 32.9223 -2.5614 0.8693
-15.1146 31.4275 -2.5570 0.8695
-16.2176 30.8466 -2.5553 0.8696
-16.4229 28.6974 -2.4244 0.8758
-17.2250 27.7484 -2.3947 0.8772
-18.1580 27.0437 -2.3884 0.8775
-17.8406 15.9412 -1.7542 0.9085
-17.7713 13.7277 -1.6465 0.9139
-17.8234 12.7775 -1.6080 0.9158
-17.5083 11.6272 -1.5410 0.9192
-18.5408 9.6280 -1.5318 0.9196
-29.0892 13.8088 -2.3610 0.8788
-29.9341 11.6690 -2.3557 0.8791
-30.2975 10.5795 -2.3530 0.8792
-30.6211 9.4788 -2.3503 0.8794
-30.9037 8.3683 -2.3475 0.8795
-31.1038 7.2399 -2.3416 0.8798
-31.8181 6.2162 -2.3771 0.8781
-33.6170 4.1023 -2.4832 0.8730
21.8900 5.1584 -2.1591 0.9136
20.3064 6.3469 -2.0425 0.9181
20.1459 7.0966 -2.0506 0.9178
19.9601 7.8439 -2.0589 0.9174
19.5962 8.5216 -2.0515 0.9177
19.0128 9.0894 -2.0232 0.9188
16.0809 9.1529 -1.7764 0.9283
14.8523 9.1717 -1.6759 0.9323
13.7644 9.1952 -1.5892 0.9356
11.0710 9.2536 -1.3853 0.9437
10.5824 9.5080 -1.3658 0.9444
10.1154 11.2676 -1.4537 0.9410
9.4227 11.2826 -1.4113 0.9426
10.3968 14.4313 -1.7076 0.9310
10.3820 16.8275 -1.8983 0.9236
9.8426 22.6590 -2.3717 0.9055
9.0861 23.1485 -2.3874 0.9049
8.2552 23.4651 -2.3881 0.9049
6.9905 25.5788 -2.5457 0.8989
6.0728 25.8169 -2.5462 0.8989
5.1468 26.0213 -2.5466 0.8989
4.2138 26.1914 -2.5468 0.8989
3.2752 26.3273 -2.5470 0.8989
2.3320 26.4285 -2.5471 0.8989
0.4379 26.5268 -2.5470 0.8989
-0.5105 26.5237 -2.5469 0.8989
-1.4582 26.4857 -2.5466 0.8989
-3.3457 26.3057 -2.5458 0.8989
-6.1381 25.7775 -2.5440 0.8990
-7.9588 25.2565 -2.5423 0.8991
-8.8532 24.9465 -2.5413 0.8991
-10.6039 24.2296 -2.5392 0.8992
-11.4578 23.8239 -2.5380 0.8992
-13.1170 22.9206 -2.5354 0.8993
-14.7042 21.8997 -2.5324 0.8994
-15.4680 21.3470 -2.5309 0.8995
-17.1772 17.7125 -2.3688 0.9056
-17.7862 17.0745 -2.3670 0.9057
-17.7989 15.9039 -2.2915 0.9085
-17.7803 14.7789 -2.2197 0.9113
-17.8047 12.7641 -2.1032 0.9157
-18.6192 9.6688 -2.0142 0.9191
-22.1533 10.5163 -2.3543 0.9062
-23.0828 8.0602 -2.3473 0.9064
-25.2529 5.8779 -2.4892 0.9011
-25.6629 3.1317 -2.4820 0.9013
18.2186 4.2933 -2.2234 0.9274
17.9438 5.6084 -2.2332 0.9271
17.4654 6.1524 -2.1996 0.9281
16.3212 7.0975 -2.1141 0.9308
15.8729 8.2979 -2.1276 0.9304
12.7810 9.2156 -1.8717 0.9385
11.0700 9.2528 -1.7138 0.9435
10.5814 9.5071 -1.6897 0.9443
9.7902 14.6678 -2.0948 0.9314
10.3648 16.7996 -2.3448 0.9236
9.8335 17.2927 -2.3630 0.9230
9.2496 17.7108 -2.3734 0.9227
8.6133 18.0356 -2.3741 0.9226
5.6206 20.5662 -2.5326 0.9177
4.8825 20.7569 -2.5329 0.9177
2.6330 21.1658 -2.5336 0.9177
1.1141 21.3005 -2.5337 0.9177
0.3521 21.3262 -2.5336 0.9177
-0.4104 21.3240 -2.5335 0.9177
-1.9325 21.2360 -2.5330 0.9177
-4.1927 20.8966 -2.5317 0.9177
-4.9359 20.7288 -2.5311 0.9177
-6.4009 20.3124 -2.5298 0.9178
-7.1207 20.0646 -2.5290 0.9178
-8.5302 19.4913 -2.5273 0.9179
-9.8932 18.8173 -2.5253 0.9179
-11.2024 18.0464 -2.5231 0.9180
-11.8347 17.6261 -2.5219 0.9180
-12.4510 17.1833 -2.5207 0.9181
-13.0505 16.7186 -2.5193 0.9181
-15.7698 14.0909 -2.5121 0.9183
-15.9589 13.2651 -2.4651 0.9198
-16.0994 11.5416 -2.3530 0.9233
-16.4905 10.9513 -2.3514 0.9234
-17.2254 9.7421 -2.3507 0.9234
-17.5507 9.1139 -2.3491 0.9234
-18.1216 7.8214 -2.3445 0.9236
-20.2257 5.4768 -2.4891 0.9191
-20.6478 3.2725 -2.4833 0.9192
-20.7354 2.5304 -2.4814 0.9193
15.5801 3.6715 -2.2680 0.9374
15.4616 4.2323 -2.2713 0.9373
15.3232 4.7893 -2.2747 0.9372
15.1658 5.3423 -2.2782 0.9371
13.7205 6.5593 -2.1548 0.9404
13.0531 8.0606 -2.1737 0.9399
12.9293 8.6374 -2.2031 0.9391
11.8867 9.2341 -2.1327 0.9410
11.0690 9.2520 -2.0441 0.9434
10.5805 9.5063 -2.0154 0.9442
10.4142 11.6004 -2.2088 0.9390
10.3646 12.4104 -2.2910 0.9368
10.1345 13.0566 -2.3419 0.9354
9.7291 13.5045 -2.3583 0.9350
9.2606 13.8743 -2.3635 0.9348
8.2508 14.5094 -2.3650 0.9348
7.7290 14.7992 -2.3656 0.9348
6.5045 16.5715 -2.5224 0.9306
5.9092 16.7966 -2.5229 0.9306
4.6955 17.1811 -2.5237 0.9306
4.0788 17.3401 -2.5240 0.9306
3.4567 17.4764 -2.5242 0.9306
2.1995 17.6809 -2.5245 0.9305
0.9307 17.7933 -2.5246 0.9305
0.2941 17.8148 -2.5245 0.9305
-0.3429 17.8132 -2.5244 0.9306
-1.6144 17.7402 -2.5240 0.9306
-2.2472 17.6692 -2.5237 0.9306
-2.8770 17.5751 -2.5233 0.9306
-3.5028 17.4582 -2.5229 0.9306
-4.1238 17.3186 -2.5225 0.9306
-4.7393 17.1565 -2.5219 0.9306
-5.3483 16.9722 -2.5214 0.9306
-5.9500 16.7659 -2.5207 0.9306
-7.1286 16.2887 -2.5193 0.9307
-7.7038 16.0184 -2.5185 0.9307
-8.8225 15.4163 -2.5167 0.9308
-9.8937 14.7352 -2.5148 0.9308
-10.4097 14.3662 -2.5137 0.9308
-11.8718 13.1514 -2.5103 0.9309
-13.1917 11.7873 -2.5066 0.9310
-13.5974 11.3022 -2.5053 0.9311
-14.3545 10.2906 -2.5025 0.9311
-15.3565 8.6851 -2.4997 0.9312
-15.9229 7.5587 -2.4974 0.9313
-16.1728 6.9803 -2.4958 0.9313
-16.4033 6.3945 -2.4945 0.9313
-16.6119 5.8007 -2.4931 0.9314
-17.1118 3.9830 -2.4894 0.9315
-17.3348 2.7475 -2.4868 0.9315
-17.4110 2.1247 -2.4852 0.9316
13.5910 3.2028 -2.3003 0.9450
13.4858 3.6914 -2.3034 0.9449
13.3640 4.1770 -2.3066 0.9448
13.0718 5.1370 -2.3138 0.9447
12.9023 5.6107 -2.3178 0.9446
12.7167 6.0795 -2.3220 0.9445
11.3585 7.0142 -2.1992 0.9473
11.1473 7.4470 -2.2085 0.9471
10.5839 8.8465 -2.2724 0.9456
8.7720 11.3012 -2.3568 0.9437
8.3650 11.6111 -2.3575 0.9436
7.4438 13.0904 -2.4808 0.9408
7.0663 13.5303 -2.5146 0.9400
6.5796 13.7773 -2.5152 0.9400
5.0697 14.4103 -2.5166 0.9400
3.4991 14.8757 -2.5175 0.9399
2.9654 14.9925 -2.5177 0.9399
-0.2941 15.2812 -2.5179 0.9399
-0.8401 15.2600 -2.5177 0.9399
-1.3850 15.2190 -2.5175 0.9399
-1.9279 15.1582 -2.5173 0.9399
-2.4682 15.0778 -2.5170 0.9399
-3.0052 14.9779 -2.5166 0.9399
-4.5888 14.5622 -2.5153 0.9400
-5.1053 14.3858 -2.5147 0.9400
-5.6150 14.1908 -2.5141 0.9400
-6.6110 13.7461 -2.5128 0.9400
-8.0372 12.9474 -2.5105 0.9401
-8.4920 12.6475 -2.5096 0.9401
-9.3670 11.9998 -2.5078 0.9402
-10.9638 10.5251 -2.5037 0.9402
-11.6773 9.7062 -2.5015 0.9403
-13.4677 6.9937 -2.5000 0.9403
-14.1335 5.5096 -2.4990 0.9404
-14.3179 4.9996 -2.4984 0.9404
-14.7609 3.4358 -2.4967 0.9404
-14.8711 2.9054 -2.4962 0.9404
-15.0349 1.8347 -2.4952 0.9404
11.7093 4.1247 -2.3334 0.9507
11.5704 4.5470 -2.3367 0.9507
11.4175 4.9651 -2.3402 0.9506
11.2505 5.3785 -2.3439 0.9505
10.8801 6.1928 -2.3531 0.9503
10.0355 6.7043 -2.2685 0.9521
9.6521 6.9596 -2.2366 0.9527
9.4773 7.3624 -2.2557 0.9523
9.3075 7.7796 -2.2801 0.9518
8.9147 8.6050 -2.3289 0.9508
8.6698 8.9891 -2.3474 0.9504
7.4089 11.1000 -2.5084 0.9471
7.0090 11.3605 -2.5090 0.9471
6.5999 11.6064 -2.5096 0.9471
5.3226 12.2533 -2.5110 0.9471
3.9820 12.7581 -2.5121 0.9471
2.5940 13.1146 -2.5128 0.9470
1.1752 13.3184 -2.5131 0.9470
-0.2573 13.3670 -2.5129 0.9470
-0.7349 13.3485 -2.5128 0.9470
-4.0146 12.7398 -2.5107 0.9471
-4.4665 12.5857 -2.5102 0.9471
-4.9125 12.4155 -2.5097 0.9471
-5.3520 12.2293 -2.5091 0.9471
-5.7843 12.0273 -2.5085 0.9471
-6.2090 11.8098 -2.5079 0.9471
-7.0330 11.3298 -2.5065 0.9472
-7.4313 11.0678 -2.5057 0.9472
-8.1978 10.5019 -2.5041 0.9472
-8.5650 10.1987 -2.5033 0.9472
-9.2652 9.5539 -2.5015 0.9473
-9.5973 9.2133 -2.5006 0.9473
-10.2305 8.5036 -2.5005 0.9473
-10.8115 7.7507 -2.5004 0.9473
-11.0814 7.3591 -2.5003 0.9473
-11.3371 6.9582 -2.5003 0.9473
-11.5784 6.5483 -2.5002 0.9473
-12.0163 5.7042 -2.5001 0.9473
-12.2123 5.2709 -2.5001 0.9473
-12.5573 4.3848 -2.5000 0.9473
-12.8355 3.4757 -2.4995 0.9473
-13.1266 2.0805 -2.4981 0.9473
10.2323 4.4497 -2.3586 0.9554
9.9221 5.1871 -2.3666 0.9553
9.3899 6.2729 -2.3870 0.9549
9.1981 6.6322 -2.3970 0.9547
9.0165 7.0045 -2.4134 0.9544
8.8326 7.3827 -2.4333 0.9540
8.6354 7.7587 -2.4539 0.9536
8.3890 8.0976 -2.4646 0.9534
8.1440 8.4439 -2.4798 0.9532
7.5911 9.0895 -2.5033 0.9527
6.2240 10.0881 -2.5056 0.9527
5.8605 10.3062 -2.5061 0.9527
5.4894 10.5110 -2.5066 0.9527
4.7260 10.8799 -2.5074 0.9527
4.3347 11.0434 -2.5077 0.9527
3.9377 11.1927 -2.5081 0.9526
2.7176 11.5532 -2.5088 0.9526
1.8854 11.7192 -2.5091 0.9526
1.4654 11.7795 -2.5091 0.9526
1.0434 11.8245 -2.5092 0.9526
-0.2284 11.8678 -2.5091 0.9526
-0.6525 11.8514 -2.5089 0.9526
-1.0756 11.8198 -2.5088 0.9526
-1.4973 11.7729 -2.5086 0.9526
-1.9170 11.7108 -2.5084 0.9526
-2.7481 11.5412 -2.5078 0.9527
-3.1585 11.4340 -2.5074 0.9527
-4.3622 11.0246 -2.5062 0.9527
-4.7525 10.8595 -2.5057 0.9527
-5.1366 10.6804 -2.5051 0.9527
-5.8838 10.2813 -2.5040 0.9527
-6.2460 10.0619 -2.5033 0.9527
-6.9451 9.5848 -2.5020 0.9528
-7.9276 8.7821 -2.5008 0.9528
-8.2363 8.4930 -2.5008 0.9528
-8.8217 7.8825 -2.5007 0.9528
-9.3619 7.2318 -2.5006 0.9528
-9.6143 6.8924 -2.5005 0.9528
-10.0818 6.1877 -2.5004 0.9528
-10.2963 5.8232 -2.5004 0.9528
-10.4977 5.4514 -2.5004 0.9528
-10.6857 5.0726 -2.5003 0.9528
-11.0205 4.2961 -2.5003 0.9528
-11.4167 3.0915 -2.5002 0.9528
-11.5198 2.6814 -2.5001 0.9528
9.7884 2.3067 -2.3635 0.9595
9.5278 3.3563 -2.3741 0.9593
9.0466 4.7293 -2.3991 0.9589
8.9045 5.0683 -2.4080 0.9588
8.4252 6.0750 -2.4412 0.9582
8.2474 6.4070 -2.4545 0.9580
8.0604 6.7373 -2.4690 0.9578
6.2252 8.6409 -2.5029 0.9572
5.9122 8.8577 -2.5029 0.9572
5.2651 9.2590 -2.5033 0.9572
4.9316 9.4428 -2.5037 0.9572
4.2456 9.7739 -2.5044 0.9572
3.8940 9.9207 -2.5048 0.9572
3.5373 10.0546 -2.5050 0.9571
3.1759 10.1757 -2.5053 0.9571
2.0689 10.4594 -2.5058 0.9571
1.6937 10.5272 -2.5059 0.9571
0.1760 10.6614 -2.5060 0.9571
-0.2052 10.6606 -2.5060 0.9571
-1.3452 10.5756 -2.5055 0.9571
-1.7221 10.5199 -2.5053 0.9571
-2.0968 10.4506 -2.5051 0.9571
-2.4688 10.3678 -2.5048 0.9572
-3.2023 10.1623 -2.5041 0.9572
-3.5630 10.0398 -2.5038 0.9572
-4.2697 9.7562 -2.5029 0.9572
-4.6148 9.5956 -2.5024 0.9572
-4.9539 9.4225 -2.5019 0.9572
-6.2442 8.6174 -2.5011 0.9572
-6.5480 8.3886 -2.5010 0.9572
-6.8436 8.1490 -2.5010 0.9572
-7.6762 7.3691 -2.5008 0.9572
-7.9346 7.0899 -2.5008 0.9572
-8.1828 6.8015 -2.5007 0.9572
-8.6475 6.1993 -2.5007 0.9572
-8.8634 5.8862 -2.5006 0.9572
-9.0680 5.5655 -2.5006 0.9572
-9.2610 5.2377 -2.5005 0.9572
-9.4422 4.9033 -2.5005 0.9572
-9.7681 4.2160 -2.5004 0.9572
-9.9125 3.8641 -2.5004 0.9572
-10.2688 2.7807 -2.5003 0.9572
-10.5072 1.6653 -2.5003 0.9572
-10.5600 1.2887 -2.5002 0.9572
8.9930 2.1192 -2.3922 0.9625
8.8555 2.7678 -2.4022 0.9624
8.7704 3.0895 -2.4076 0.9623
8.6786 3.4105 -2.4143 0.9622
8.4675 4.0481 -2.4300 0.9620
8.3468 4.3635 -2.4386 0.9618
8.2200 4.6787 -2.4489 0.9617
7.6025 5.9061 -2.4926 0.9610
6.9509 6.7095 -2.5014 0.9609
6.7090 6.9561 -2.5023 0.9609
6.4578 7.1934 -2.5029 0.9608
6.1965 7.4196 -2.5029 0.9608
5.6504 7.8431 -2.5028 0.9608
5.3664 8.0400 -2.5028 0.9608
4.7781 8.4026 -2.5027 0.9608
4.1654 8.7221 -2.5026 0.9608
3.8509 8.8653 -2.5026 0.9608
2.8800 9.2274 -2.5028 0.9608
2.5485 9.3252 -2.5030 0.9608
1.8760 9.4845 -2.5033 0.9608
1.5358 9.5459 -2.5034 0.9608
0.5050 9.6558 -2.5035 0.9608
0.1596 9.6676 -2.5035 0.9608
-0.1861 9.6669 -2.5034 0.9608
-0.5315 9.6537 -2.5033 0.9608
-0.8762 9.6280 -2.5032 0.9608
-1.2197 9.5900 -2.5030 0.9608
-1.5616 9.5395 -2.5028 0.9608
-2.5730 9.3147 -2.5021 0.9609
-2.9040 9.2156 -2.5017 0.9609
-3.2313 9.1052 -2.5015 0.9609
-4.1872 8.7064 -2.5014 0.9609
-4.4957 8.5510 -2.5013 0.9609
-5.3849 8.0201 -2.5012 0.9609
-6.7246 6.9341 -2.5010 0.9609
-6.9680 6.6892 -2.5009 0.9609
-7.2026 6.4358 -2.5009 0.9609
-7.4279 6.1741 -2.5008 0.9609
-7.6437 5.9046 -2.5008 0.9609
-8.2315 5.0521 -2.5007 0.9609
-8.4068 4.7546 -2.5007 0.9609
-8.5712 4.4510 -2.5006 0.9609
-8.7247 4.1417 -2.5006 0.9609
-8.9981 3.5077 -2.5005 0.9609
-9.1177 3.1838 -2.5005 0.9609
-9.2256 2.8558 -2.5005 0.9609
-9.4780 1.8517 -2.5004 0.9609
-9.5381 1.5117 -2.5004 0.9609
-9.5860 1.1698 -2.5004 0.9609
8.2896 2.2693 -2.4331 0.9649
8.2238 2.5704 -2.4392 0.9648
8.1494 2.8707 -2.4460 0.9647
8.0666 3.1701 -2.4536 0.9646
7.8727 3.7636 -2.4703 0.9644
7.7561 4.0547 -2.4776 0.9643
7.4975 4.6299 -2.4946 0.9640
7.3386 4.9025 -2.4984 0.9640
6.9736 5.4175 -2.4999 0.9640
6.7776 5.6650 -2.5006 0.9639
6.5727 5.9055 -2.5014 0.9639
6.3595 6.1385 -2.5022 0.9639
6.1376 6.3636 -2.5029 0.9639
5.6671 6.7857 -2.5028 0.9639
4.3699 7.6848 -2.5026 0.9639
3.8096 7.9771 -2.5026 0.9639
3.5220 8.1080 -2.5025 0.9639
3.2299 8.2286 -2.5025 0.9639
2.9336 8.3387 -2.5024 0.9639
2.6336 8.4381 -2.5024 0.9639
2.0240 8.6044 -2.5023 0.9639
1.4040 8.7267 -2.5022 0.9639
1.0912 8.7711 -2.5022 0.9639
0.7769 8.8044 -2.5021 0.9639
-0.1701 8.8364 -2.5020 0.9639
-1.4276 8.7213 -2.5018 0.9639
-3.5427 8.0950 -2.5015 0.9639
-3.8297 7.9630 -2.5014 0.9639
-4.3887 7.6688 -2.5013 0.9639
-4.6599 7.5069 -2.5013 0.9639
-5.4365 6.9645 -2.5012 0.9639
-5.6818 6.7656 -2.5011 0.9639
-5.9200 6.5581 -2.5011 0.9639
-6.1505 6.3422 -2.5010 0.9639
-6.3732 6.1182 -2.5010 0.9639
-6.7938 5.6470 -2.5009 0.9639
-7.1797 5.1471 -2.5009 0.9639
-7.3590 4.8871 -2.5008 0.9639
-7.5289 4.6208 -2.5008 0.9639
-7.9800 3.7881 -2.5007 0.9639
-8.1102 3.5004 -2.5007 0.9639
-8.3394 2.9120 -2.5006 0.9639
-8.5260 2.3087 -2.5006 0.9639
-8.6030 2.0025 -2.5006 0.9639
-8.7240 1.3827 -2.5005 0.9639
7.6178 2.6835 -2.4842 0.9668
7.1959 3.7619 -2.4975 0.9666
6.9122 4.2685 -2.4988 0.9666
6.7570 4.5140 -2.4994 0.9666
6.2400 5.2157 -2.5015 0.9665
6.0514 5.4370 -2.5022 0.9665
5.8546 5.6512 -2.5028 0.9665
5.4358 6.0550 -2.5028 0.9665
5.2158 6.2453 -2.5027 0.9665
4.9892 6.4277 -2.5027 0.9665
4.5171 6.7675 -2.5026 0.9665
4.2722 6.9246 -2.5026 0.9665
4.0219 7.0728 -2.5026 0.9665
3.7665 7.2119 -2.5025 0.9665
3.2415 7.4624 -2.5025 0.9665
2.4239 7.7662 -2.5023 0.9665
1.8628 7.9193 -2.5023 0.9665
1.5785 7.9807 -2.5022 0.9665
1.2922 8.0319 -2.5022 0.9665
1.0043 8.0728 -2.5021 0.9665
0.4249 8.1236 -2.5021 0.9665
0.1342 8.1335 -2.5020 0.9665
-0.1566 8.1329 -2.5020 0.9665
-0.4471 8.1220 -2.5019 0.9665
-1.0263 8.0690 -2.5018 0.9665
-1.3140 8.0271 -2.5018 0.9665
-2.9923 7.5625 -2.5015 0.9665
-3.7845 7.1984 -2.5014 0.9665
-4.0393 7.0584 -2.5014 0.9665
-5.0038 6.4102 -2.5012 0.9665
-5.2296 6.2271 -2.5012 0.9665
-5.6610 5.8374 -2.5011 0.9665
-5.8660 5.6313 -2.5011 0.9665
-6.4349 4.9707 -2.5010 0.9665
-6.6083 4.7375 -2.5009 0.9665
-7.0773 4.0026 -2.5008 0.9665
-7.2157 3.7471 -2.5008 0.9665
-7.4648 3.2219 -2.5008 0.9665
-7.5752 2.9530 -2.5007 0.9665
-7.7667 2.4042 -2.5007 0.9665
-7.9185 1.8432 -2.5007 0.9665
-7.9792 1.5589 -2.5006 0.9665
-8.0298 1.2727 -2.5006 0.9665
-8.0701 0.9848 -2.5006 0.9665
7.3057 1.7216 -2.4950 0.9689
7.2408 1.9820 -2.4954 0.9689
7.1667 2.2400 -2.4959 0.9688
6.9911 2.7474 -2.4969 0.9688
6.8899 2.9962 -2.4974 0.9688
6.6611 3.4823 -2.4985 0.9688
6.1026 4.4003 -2.5009 0.9688
5.9429 4.6168 -2.5015 0.9688
5.6007 5.0321 -2.5027 0.9688
5.4172 5.2290 -2.5027 0.9688
4.8261 5.7787 -2.5027 0.9688
4.6164 5.9475 -2.5026 0.9688
4.1796 6.2619 -2.5026 0.9688
3.7215 6.5444 -2.5025 0.9688
2.9994 6.9049 -2.5024 0.9688
2.2429 7.1860 -2.5023 0.9688
1.7237 7.3277 -2.5022 0.9688
1.1957 7.4318 -2.5022 0.9688
0.3932 7.5168 -2.5020 0.9688
-0.1448 7.5254 -2.5020 0.9688
-0.6821 7.4956 -2.5019 0.9688
-1.2159 7.4275 -2.5018 0.9688
-1.7434 7.3214 -2.5017 0.9688
-2.0039 7.2543 -2.5017 0.9688
-2.2619 7.1779 -2.5016 0.9688
-2.5170 7.0924 -2.5016 0.9688
-2.7689 6.9977 -2.5016 0.9688
-3.0172 6.8942 -2.5015 0.9688
-3.2616 6.7818 -2.5015 0.9688
-3.9687 6.3934 -2.5014 0.9688
-4.1946 6.2474 -2.5013 0.9688
-4.4152 6.0933 -2.5013 0.9688
-4.6302 5.9316 -2.5013 0.9688
-4.8391 5.7622 -2.5012 0.9688
-5.0419 5.5854 -2.5012 0.9688
-5.4280 5.2108 -2.5011 0.9688
-6.1149 4.3838 -2.5010 0.9688
-6.2676 4.1623 -2.5010 0.9688
-6.5489 3.7038 -2.5009 0.9688
-6.6770 3.4673 -2.5009 0.9688
-6.7966 3.2264 -2.5009 0.9688
-6.9075 2.9814 -2.5008 0.9688
-7.0096 2.7325 -2.5008 0.9688
-7.1868 2.2247 -2.5008 0.9688
-7.2617 1.9664 -2.5008 0.9688
6.7334 1.8431 -2.4965 0.9708
6.6644 2.0830 -2.4969 0.9708
6.5869 2.3203 -2.4974 0.9708
6.5010 2.5548 -2.4979 0.9708
6.4067 2.7860 -2.4984 0.9708
6.1938 3.2380 -2.4994 0.9707
5.8155 3.8850 -2.5010 0.9707
5.5256 4.2926 -2.5022 0.9707
5.3697 4.4882 -2.5027 0.9707
5.2058 4.6773 -2.5027 0.9707
5.0353 4.8604 -2.5027 0.9707
4.6751 5.2076 -2.5026 0.9707
4.0906 5.6780 -2.5025 0.9707
3.8850 5.8205 -2.5025 0.9707
3.6744 5.9556 -2.5025 0.9707
3.4591 6.0831 -2.5025 0.9707
3.2394 6.2027 -2.5024 0.9707
3.0156 6.3145 -2.5024 0.9707
2.5567 6.5137 -2.5023 0.9707
2.3222 6.6008 -2.5023 0.9707
2.0847 6.6795 -2.5023 0.9707
1.8446 6.7496 -2.5022 0.9707
1.1114 6.9081 -2.5021 0.9707
0.8638 6.9433 -2.5021 0.9707
0.6150 6.9696 -2.5021 0.9707
0.3655 6.9870 -2.5020 0.9707
-0.1346 6.9951 -2.5019 0.9707
-0.8827 6.9402 -2.5018 0.9707
-1.3762 6.8592 -2.5018 0.9707
-2.5737 6.5046 -2.5016 0.9707
-3.2552 6.1915 -2.5015 0.9707
-3.4743 6.0711 -2.5014 0.9707
-4.1041 5.6640 -2.5013 0.9707
-4.3039 5.5136 -2.5013 0.9707
-4.4982 5.3562 -2.5013 0.9707
-4.6867 5.1919 -2.5012 0.9707
-5.2154 4.6602 -2.5011 0.9707
-5.3786 4.4707 -2.5011 0.9707
-5.8261 3.8691 -2.5010 0.9707
-5.9606 3.6583 -2.5010 0.9707
-6.0875 3.4429 -2.5010 0.9707
-6.2066 3.2231 -2.5009 0.9707
-6.5158 2.5401 -2.5009 0.9707
-6.6024 2.3055 -2.5009 0.9707
-6.7501 1.8279 -2.5008 0.9707
-6.9069 1.0947 -2.5008 0.9707
6.3423 1.4946 -2.4971 0.9725
6.2859 1.7206 -2.4975 0.9725
6.1489 2.1660 -2.4983 0.9725
6.0686 2.3849 -2.4987 0.9725
5.9806 2.6008 -2.4992 0.9725
5.8849 2.8134 -2.4997 0.9724
5.7817 3.0225 -2.5001 0.9724
5.6711 3.2279 -2.5006 0.9724
5.5532 3.4293 -2.5012 0.9724
5.4282 3.6264 -2.5017 0.9724
5.2963 3.8189 -2.5022 0.9724
5.1573 4.0064 -2.5027 0.9724
5.0108 4.1882 -2.5026 0.9724
4.6986 4.5354 -2.5026 0.9724
4.3626 4.8595 -2.5026 0.9724
4.1860 5.0123 -2.5025 0.9724
4.0041 5.1587 -2.5025 0.9724
3.8171 5.2984 -2.5025 0.9724
3.6253 5.4314 -2.5025 0.9724
3.0229 5.7881 -2.5024 0.9724
2.8140 5.8924 -2.5024 0.9724
2.6016 5.9892 -2.5023 0.9724
2.1670 6.1596 -2.5023 0.9724
1.9454 6.2330 -2.5022 0.9724
1.7214 6.2985 -2.5022 0.9724
1.4951 6.3559 -2.5022 0.9724
0.8060 6.4792 -2.5021 0.9724
0.5739 6.5038 -2.5020 0.9724
0.3411 6.5200 -2.5020 0.9724
-0.1256 6.5276 -2.5019 0.9724
-0.3589 6.5188 -2.5019 0.9724
-0.5917 6.5017 -2.5019 0.9724
-0.8237 6.4763 -2.5018 0.9724
-1.2842 6.4008 -2.5018 0.9724
-1.5122 6.3506 -2.5017 0.9724
-1.7382 6.2925 -2.5017 0.9724
-2.1833 6.1520 -2.5016 0.9724
-2.4018 6.0700 -2.5016 0.9724
-2.6173 5.9802 -2.5016 0.9724
-2.8292 5.8827 -2.5015 0.9724
-3.0376 5.7777 -2.5015 0.9724
-3.2422 5.6654 -2.5015 0.9724
-3.6386 5.4191 -2.5014 0.9724
-3.8299 5.2855 -2.5014 0.9724
-4.3735 4.8450 -2.5013 0.9724
-4.5439 4.6855 -2.5012 0.9724
-4.7084 4.5200 -2.5012 0.9724
-5.1651 3.9899 -2.5011 0.9724
-5.5623 3.4139 -2.5010 0.9724
-5.6808 3.2129 -2.5010 0.9724
-5.7919 3.0077 -2.5010 0.9724
-5.8957 2.7987 -2.5010 0.9724
-5.9919 2.5862 -2.5010 0.9724
-6.1613 2.1515 -2.5009 0.9724
-6.2342 1.9298 -2.5009 0.9724
-6.4455 1.0216 -2.5009 0.9724
-6.4778 0.7905 -2.5008 0.9724
5.7593 2.0288 -2.4991 0.9740
5.6015 2.4359 -2.4999 0.9739
5.4151 2.8309 -2.5008 0.9739
5.2009 3.2117 -2.5018 0.9739
5.0839 3.3963 -2.5023 0.9739
4.9599 3.5763 -2.5026 0.9739
4.6916 3.9215 -2.5026 0.9739
4.2448 4.4011 -2.5025 0.9739
3.9194 4.6930 -2.5025 0.9739
3.5740 4.9610 -2.5024 0.9739
3.3944 5.0855 -2.5024 0.9739
3.0224 5.3150 -2.5024 0.9739
2.8304 5.4195 -2.5023 0.9739
2.6348 5.5172 -2.5023 0.9739
2.4359 5.6078 -2.5023 0.9739
2.0290 5.7673 -2.5022 0.9739
1.6117 5.8974 -2.5022 0.9739
1.3998 5.9512 -2.5021 0.9739
1.1862 5.9974 -2.5021 0.9739
0.7547 6.0667 -2.5021 0.9739
0.5373 6.0896 -2.5020 0.9739
0.3193 6.1049 -2.5020 0.9739
0.1009 6.1123 -2.5020 0.9739
-0.1177 6.1119 -2.5019 0.9739
-0.3360 6.1038 -2.5019 0.9739
-0.7713 6.0640 -2.5018 0.9739
-1.6275 5.8919 -2.5017 0.9739
-1.8371 5.8298 -2.5017 0.9739
-2.6491 5.5082 -2.5015 0.9739
-2.8442 5.4099 -2.5015 0.9739
-3.0358 5.3048 -2.5015 0.9739
-3.4069 5.0742 -2.5014 0.9739
-3.9304 4.6801 -2.5013 0.9739
-4.0952 4.5366 -2.5013 0.9739
-4.2546 4.3872 -2.5013 0.9739
-4.6997 3.9064 -2.5012 0.9739
-4.8363 3.7359 -2.5012 0.9739
-5.0908 3.3808 -2.5011 0.9739
-5.6105 2.4216 -2.5010 0.9739
-5.6935 2.2195 -2.5010 0.9739
-5.7691 2.0146 -2.5010 0.9739
-5.8374 1.8070 -2.5010 0.9739
-5.8983 1.5972 -2.5009 0.9739
-5.9515 1.3853 -2.5009 0.9739
5.4101 1.9058 -2.4998 0.9753
5.2618 2.2882 -2.5006 0.9753
5.1774 2.4752 -2.5010 0.9753
4.6577 3.3584 -2.5026 0.9753
3.9862 4.1330 -2.5025 0.9753
3.8359 4.2728 -2.5025 0.9753
3.6807 4.4072 -2.5024 0.9753
3.5208 4.5359 -2.5024 0.9753
2.8382 4.9912 -2.5023 0.9753
2.6580 5.0894 -2.5023 0.9753
2.2875 5.2662 -2.5023 0.9753
2.0978 5.3446 -2.5022 0.9753
1.9054 5.4161 -2.5022 0.9753
1.7106 5.4806 -2.5022 0.9753
1.5136 5.5383 -2.5022 0.9753
1.3146 5.5887 -2.5021 0.9753
1.1140 5.6321 -2.5021 0.9753
0.7087 5.6972 -2.5020 0.9753
0.5046 5.7188 -2.5020 0.9753
0.0947 5.7401 -2.5019 0.9753
-0.7243 5.6947 -2.5018 0.9753
-0.9274 5.6651 -2.5018 0.9753
-2.1119 5.3374 -2.5016 0.9753
-2.3013 5.2585 -2.5016 0.9753
-2.8509 4.9817 -2.5015 0.9753
-3.0271 4.8766 -2.5015 0.9753
-3.1995 4.7652 -2.5014 0.9753
-3.3677 4.6477 -2.5014 0.9753
-3.8458 4.2603 -2.5013 0.9753
-3.9956 4.1201 -2.5013 0.9753
-4.5419 3.5085 -2.5012 0.9753
-4.6643 3.3439 -2.5012 0.9753
-4.7808 3.1750 -2.5012 0.9753
-4.8912 3.0020 -2.5011 0.9753
-4.9953 2.8252 -2.5011 0.9753
-5.2689 2.2742 -2.5011 0.9753
-5.4179 1.8919 -2.5010 0.9753
-5.4820 1.6970 -2.5010 0.9753
-5.6321 1.1003 -2.5010 0.9753
-5.6678 0.8983 -2.5010 0.9753
5.2558 1.2386 -2.4995 0.9765
5.2088 1.4258 -2.4998 0.9765
5.1552 1.6113 -2.5001 0.9765
4.9553 2.1549 -2.5012 0.9765
4.8758 2.3310 -2.5016 0.9765
4.7902 2.5042 -2.5020 0.9765
4.6984 2.6743 -2.5025 0.9765
4.6000 2.8406 -2.5025 0.9765
4.1481 3.4672 -2.5025 0.9765
4.0215 3.6132 -2.5025 0.9765
3.8897 3.7546 -2.5025 0.9765
3.7530 3.8912 -2.5024 0.9765
3.0012 4.4964 -2.5023 0.9765
2.8385 4.6008 -2.5023 0.9765
2.6722 4.6993 -2.5023 0.9765
1.7940 5.0993 -2.5022 0.9765
1.6105 5.1601 -2.5022 0.9765
1.4250 5.2143 -2.5021 0.9765
1.2377 5.2619 -2.5021 0.9765
0.6673 5.3640 -2.5020 0.9765
0.2823 5.3978 -2.5020 0.9765
0.0892 5.4044 -2.5019 0.9765
-0.1040 5.4041 -2.5019 0.9765
-0.2971 5.3968 -2.5019 0.9765
-0.8731 5.3338 -2.5018 0.9765
-1.0632 5.2991 -2.5018 0.9765
-1.4391 5.2095 -2.5017 0.9765
-1.6243 5.1547 -2.5017 0.9765
-1.9884 5.0253 -2.5016 0.9765
-2.1667 4.9510 -2.5016 0.9765
-2.6842 4.6904 -2.5015 0.9765
-3.1708 4.3760 -2.5014 0.9765
-3.4753 4.1382 -2.5014 0.9765
-3.6210 4.0112 -2.5014 0.9765
-3.7620 3.8792 -2.5013 0.9765
-3.8982 3.7422 -2.5013 0.9765
-4.2763 3.3033 -2.5012 0.9765
-4.3916 3.1483 -2.5012 0.9765
-4.5013 2.9893 -2.5012 0.9765
-4.6052 2.8265 -2.5012 0.9765
-4.7033 2.6601 -2.5012 0.9765
-4.8812 2.3172 -2.5011 0.9765
-4.9609 2.1412 -2.5011 0.9765
-5.1616 1.5978 -2.5011 0.9765
-5.3633 0.6545 -2.5010 0.9765
4.9609 1.1691 -2.5001 0.9775
4.9166 1.3458 -2.5004 0.9775
4.8659 1.5209 -2.5007 0.9775
4.8091 1.6941 -2.5010 0.9775
4.6771 2.0339 -2.5018 0.9775
4.5212 2.3636 -2.5025 0.9775
4.4338 2.5237 -2.5025 0.9775
4.2422 2.8340 -2.5025 0.9775
4.1381 2.9838 -2.5025 0.9775
3.9143 3.2718 -2.5025 0.9775
3.7949 3.4096 -2.5024 0.9775
3.6705 3.5430 -2.5024 0.9775
3.5415 3.6720 -2.5024 0.9775
3.4080 3.7962 -2.5024 0.9775
2.9819 4.1391 -2.5023 0.9775
2.6786 4.3415 -2.5023 0.9775
2.1983 4.6032 -2.5022 0.9775
2.0324 4.6788 -2.5022 0.9775
1.6929 4.8119 -2.5022 0.9775
1.5198 4.8693 -2.5021 0.9775
1.3448 4.9205 -2.5021 0.9775
1.1680 4.9654 -2.5021 0.9775
0.8102 5.0360 -2.5020 0.9775
0.6297 5.0617 -2.5020 0.9775
0.2664 5.0936 -2.5020 0.9775
-0.0982 5.0995 -2.5019 0.9775
-0.2804 5.0928 -2.5019 0.9775
-0.6435 5.0596 -2.5018 0.9775
-1.0033 5.0005 -2.5018 0.9775
-1.5328 4.8642 -2.5017 0.9775
-2.0447 4.6720 -2.5016 0.9775
-2.3732 4.5139 -2.5015 0.9775
-3.1379 4.0198 -2.5014 0.9775
-3.4169 3.7853 -2.5014 0.9775
-3.5500 3.6607 -2.5014 0.9775
-3.6786 3.5314 -2.5013 0.9775
-3.9214 3.2595 -2.5013 0.9775
-4.1442 2.9710 -2.5012 0.9775
-4.3458 2.6673 -2.5012 0.9775
-4.5252 2.3499 -2.5012 0.9775
-4.6063 2.1867 -2.5012 0.9775
-4.7507 1.8520 -2.5011 0.9775
-4.8708 1.5078 -2.5011 0.9775
-4.9660 1.1559 -2.5011 0.9775
4.6498 1.2728 -2.5010 0.9785
4.6019 1.4384 -2.5013 0.9785
4.5481 1.6022 -2.5016 0.9785
4.2749 2.2348 -2.5025 0.9785
4.1922 2.3862 -2.5025 0.9785
4.0110 2.6796 -2.5025 0.9785
3.9127 2.8213 -2.5024 0.9785
3.7011 3.0935 -2.5024 0.9785
3.4706 3.3500 -2.5024 0.9785
3.3486 3.4719 -2.5024 0.9785
3.2223 3.5894 -2.5024 0.9785
2.8195 3.9136 -2.5023 0.9785
2.6778 4.0119 -2.5023 0.9785
2.5326 4.1050 -2.5023 0.9785
2.0786 4.3524 -2.5022 0.9785
1.9217 4.4239 -2.5022 0.9785
1.6007 4.5498 -2.5021 0.9785
1.2715 4.6524 -2.5021 0.9785
0.9358 4.7313 -2.5020 0.9785
0.0796 4.8221 -2.5019 0.9785
-0.0928 4.8218 -2.5019 0.9785
-0.2651 4.8153 -2.5019 0.9785
-0.4371 4.8027 -2.5018 0.9785
-0.6084 4.7840 -2.5018 0.9785
-0.7791 4.7592 -2.5018 0.9785
-1.1171 4.6912 -2.5017 0.9785
-1.2840 4.6482 -2.5017 0.9785
-1.4493 4.5993 -2.5017 0.9785
-1.6128 4.5445 -2.5017 0.9785
-1.9333 4.4176 -2.5016 0.9785
-2.0900 4.3456 -2.5016 0.9785
-2.2439 4.2681 -2.5016 0.9785
-2.5431 4.0968 -2.5015 0.9785
-2.6879 4.0032 -2.5015 0.9785
-2.8293 3.9046 -2.5015 0.9785
-2.9670 3.8009 -2.5014 0.9785
-3.2309 3.5792 -2.5014 0.9785
-3.4783 3.3391 -2.5014 0.9785
-3.5954 3.2126 -2.5013 0.9785
-3.7079 3.0820 -2.5013 0.9785
-3.9185 2.8092 -2.5013 0.9785
-4.2788 2.2220 -2.5012 0.9785
-4.3555 2.0676 -2.5012 0.9785
-4.4266 1.9106 -2.5012 0.9785
-4.6056 1.4257 -2.5011 0.9785
-4.6956 1.0930 -2.5011 0.9785
-4.7617 0.7547 -2.5011 0.9785
-4.7856 0.5840 -2.5011 0.9785
4.4450 1.0475 -2.5012 0.9794
4.4052 1.2058 -2.5015 0.9794
4.3598 1.3627 -2.5018 0.9794
4.3088 1.5178 -2.5021 0.9794
4.2524 1.6710 -2.5024 0.9794
4.1222 1.9707 -2.5024 0.9794
3.9708 2.2601 -2.5024 0.9794
3.8875 2.4006 -2.5024 0.9794
3.5055 2.9301 -2.5024 0.9794
3.3986 3.0535 -2.5024 0.9794
3.1717 3.2885 -2.5023 0.9794
2.9286 3.5067 -2.5023 0.9794
2.8014 3.6091 -2.5023 0.9794
2.6706 3.7069 -2.5023 0.9794
2.1149 4.0495 -2.5022 0.9794
1.9688 4.1225 -2.5022 0.9794
1.8202 4.1902 -2.5022 0.9794
1.6692 4.2526 -2.5021 0.9794
1.2043 4.4067 -2.5021 0.9794
1.0460 4.4469 -2.5021 0.9794
0.7256 4.5102 -2.5020 0.9794
0.5639 4.5332 -2.5020 0.9794
0.0754 4.5674 -2.5019 0.9794
-0.2511 4.5610 -2.5019 0.9794
-0.4140 4.5491 -2.5018 0.9794
-0.5763 4.5313 -2.5018 0.9794
-0.7379 4.5078 -2.5018 0.9794
-0.8986 4.4785 -2.5018 0.9794
-1.0581 4.4435 -2.5017 0.9794
-1.2162 4.4028 -2.5017 0.9794
-1.3728 4.3564 -2.5017 0.9794
-1.6805 4.2471 -2.5016 0.9794
-2.1254 4.0427 -2.5016 0.9794
-2.2686 3.9642 -2.5016 0.9794
-2.4088 3.8805 -2.5015 0.9794
-2.5459 3.7919 -2.5015 0.9794
-2.8103 3.6002 -2.5015 0.9794
-3.0603 3.3901 -2.5014 0.9794
-3.1795 3.2786 -2.5014 0.9794
-3.4055 3.0430 -2.5014 0.9794
-3.5121 2.9193 -2.5013 0.9794
-3.6142 2.7919 -2.5013 0.9794
-3.8922 2.3889 -2.5013 0.9794
-3.9751 2.2482 -2.5013 0.9794
-4.0529 2.1047 -2.5012 0.9794
-4.3114 1.5055 -2.5012 0.9794
-4.4079 1.1936 -2.5012 0.9794
-4.4477 1.0353 -2.5012 0.9794
4.2176 0.9939 -2.5017 0.9802
4.1367 1.2930 -2.5023 0.9802
4.0340 1.5853 -2.5024 0.9802
3.9104 1.8695 -2.5024 0.9802
3.6878 2.2773 -2.5024 0.9802
3.6040 2.4077 -2.5024 0.9802
3.5156 2.5349 -2.5024 0.9802
3.3255 2.7796 -2.5024 0.9802
3.2240 2.8967 -2.5023 0.9802
2.8954 3.2251 -2.5023 0.9802
2.7782 3.3266 -2.5023 0.9802
2.6575 3.4237 -2.5023 0.9802
2.2757 3.6885 -2.5022 0.9802
2.0063 3.8416 -2.5022 0.9802
1.7267 3.9750 -2.5021 0.9802
0.9923 4.2186 -2.5020 0.9802
0.8409 4.2513 -2.5020 0.9802
0.3809 4.3167 -2.5020 0.9802
0.2263 4.3275 -2.5019 0.9802
0.0715 4.3329 -2.5019 0.9802
-0.0834 4.3326 -2.5019 0.9802
-0.2382 4.3268 -2.5019 0.9802
-0.5467 4.2986 -2.5018 0.9802
-0.8524 4.2485 -2.5018 0.9802
-1.0037 4.2153 -2.5017 0.9802
-1.5942 4.0291 -2.5017 0.9802
-1.7372 3.9695 -2.5016 0.9802
-2.2851 3.6812 -2.5015 0.9802
-2.4152 3.5972 -2.5015 0.9802
-2.5422 3.5085 -2.5015 0.9802
-2.9031 3.2161 -2.5014 0.9802
-3.1255 3.0004 -2.5014 0.9802
-3.3318 2.7694 -2.5014 0.9802
-3.6090 2.3968 -2.5013 0.9802
-3.6924 2.2662 -2.5013 0.9802
-3.8448 1.9966 -2.5013 0.9802
-3.9776 1.7168 -2.5012 0.9802
-4.0364 1.5735 -2.5012 0.9802
-4.0900 1.4282 -2.5012 0.9802
-4.1385 1.2811 -2.5012 0.9802
-4.2194 0.9821 -2.5012 0.9802
-4.2518 0.8307 -2.5012 0.9802
-4.2787 0.6782 -2.5012 0.9802
-4.3002 0.5248 -2.5012 0.9802
