ply
format ascii 1.0
element vertex 1170
property float32 x
property float32 y
property float32 z
property float32 I
end_header
10.2587 -18.7859 3.7742 0.9167
11.1692 -18.8068 3.8569 0.9150
11.2124 -17.4162 3.6523 0.9193
11.6869 -15.5610 3.4315 0.9240
12.6057 -15.5804 3.5338 0.9218
14.5124 -15.5028 3.7444 0.9174
15.6896 -15.5927 3.9004 0.9141
16.8496 -15.5784 4.0463 0.9110
18.1202 -15.5790 4.2136 0.9075
31.9246 9.8820 5.8927 0.8731
16.9888 9.6525 3.4453 0.9237
14.5299 9.7044 3.0809 0.9315
13.4476 12.1117 3.1911 0.9291
13.5121 15.1180 3.5753 0.9209
15.4194 18.5582 4.2544 0.9066
15.3952 19.9516 4.4436 0.9027
14.2940 19.9749 4.3310 0.9050
13.6288 20.5752 4.3517 0.9046
9.0462 14.7895 3.0569 0.9320
13.8259 24.5519 4.9684 0.8919
18.0317 38.2322 7.4535 0.8422
14.7557 38.2094 7.2223 0.8467
12.1332 39.7336 7.3255 0.8447
10.5915 39.7684 7.2567 0.8461
10.4238 45.7106 8.2669 0.8266
10.2991 -18.8598 3.2919 0.9167
11.1700 -18.8082 3.3511 0.9153
11.2124 -17.4161 3.1731 0.9196
12.6067 -15.5816 3.0705 0.9221
14.5136 -15.5041 3.2535 0.9176
26.7092 -19.8020 5.0936 0.8741
28.3150 -19.4498 5.2625 0.8702
40.4054 9.3764 6.3544 0.8455
31.9185 9.8801 5.1186 0.8735
28.4201 9.9341 4.6121 0.8853
28.4453 11.1099 4.6782 0.8838
28.4714 12.3216 4.7526 0.8820
16.9869 9.6514 2.9930 0.9240
15.2371 10.1767 2.8070 0.9285
15.1591 11.7898 2.9420 0.9252
13.4675 13.0398 2.8718 0.9269
13.5121 15.1180 3.1062 0.9212
15.4194 18.5581 3.6963 0.9070
15.3941 19.9501 3.8603 0.9031
9.0441 14.7861 2.6553 0.9323
13.2741 23.5721 4.1443 0.8963
16.1722 37.7637 6.2934 0.8468
14.7548 38.2070 6.2744 0.8473
11.6870 38.2725 6.1304 0.8505
10.2700 38.5613 6.1133 0.8509
9.9584 43.6698 6.8617 0.8342
10.2998 -18.8611 2.7985 0.9170
11.1708 -18.8095 2.8488 0.9155
11.2123 -17.4160 2.6973 0.9198
11.3602 -16.3206 2.5894 0.9229
11.5986 -15.4434 2.5151 0.9250
11.3200 -13.9913 2.3436 0.9300
13.5845 -15.6036 2.6941 0.9199
15.6923 -15.5954 2.8810 0.9146
16.8527 -15.5812 2.9888 0.9116
19.6944 -15.7332 3.2825 0.9033
26.7484 -19.8310 4.3361 0.8743
28.8981 -19.8503 4.5654 0.8681
35.8274 -22.7527 5.5268 0.8427
41.2396 9.5699 5.5130 0.8430
28.3626 13.5095 4.0910 0.8810
27.0370 14.0964 3.9706 0.8843
15.6872 9.6778 2.4003 0.9283
15.2542 11.0041 2.4493 0.9269
15.0593 12.6098 2.5577 0.9238
13.4674 13.0397 2.4411 0.9272
13.5120 15.1179 2.6404 0.9215
14.2919 19.9721 3.1981 0.9057
13.6286 20.5750 3.2138 0.9052
13.2741 23.5719 3.5228 0.8966
13.7595 26.6383 3.9043 0.8861
18.0052 38.1758 5.4965 0.8434
12.1317 39.7287 5.4093 0.8457
10.4015 45.6129 6.0922 0.8280
11.1716 -18.8108 2.3493 0.9157
11.2123 -17.4159 2.2242 0.9200
11.2395 -16.1471 2.1126 0.9239
11.3208 -13.9924 1.9327 0.9302
14.5160 -15.5066 2.2809 0.9181
15.2382 -14.0886 2.2285 0.9199
19.6963 -15.7348 2.7071 0.9036
29.0784 -19.9742 3.7882 0.8677
37.9856 -24.1232 4.8320 0.8344
22.7195 -13.3032 2.8271 0.8995
41.2297 9.5677 4.5450 0.8434
34.3670 9.2936 3.8229 0.8666
31.5707 9.7724 3.5488 0.8755
28.4199 9.9340 3.2328 0.8859
28.4712 12.3215 3.3313 0.8827
16.9829 9.6492 2.0975 0.9244
15.6855 9.6767 1.9791 0.9285
15.2370 10.1767 1.9675 0.9289
15.2723 11.8778 2.0776 0.9251
15.0580 12.6087 2.1090 0.9240
13.7877 12.4181 1.9925 0.9281
13.4673 13.0396 2.0129 0.9274
15.5696 18.7390 2.6162 0.9066
14.2909 19.9706 2.6370 0.9059
13.7594 26.6382 3.2195 0.8864
18.0282 38.2247 4.5383 0.8436
16.3847 38.2598 4.4693 0.8458
14.7529 38.2022 4.3975 0.8481
10.5896 39.7611 4.4184 0.8474
10.6012 46.4885 5.1202 0.8255
11.1724 -18.8121 1.8522 0.9159
14.5172 -15.5079 1.7982 0.9183
26.7538 -19.8351 2.8193 0.8749
22.7183 -13.3025 2.2286 0.8997
41.2199 9.5654 3.5821 0.8438
30.6855 10.7260 2.7517 0.8777
29.8058 11.6413 2.7088 0.8795
28.4711 12.3215 2.6262 0.8829
16.9810 9.6481 1.6533 0.9246
13.4113 10.4304 1.4382 0.9341
13.4474 12.1116 1.5320 0.9299
13.4673 13.0396 1.5869 0.9275
14.2899 19.9692 2.0787 0.9061
9.0378 14.7758 1.4662 0.9328
13.8256 24.5513 2.3852 0.8931
18.0271 38.2223 3.5774 0.8440
16.1692 37.7564 3.4769 0.8480
14.7520 38.1998 3.4665 0.8484
13.2006 38.2330 3.4240 0.8501
11.6849 38.2655 3.3869 0.8516
9.9580 43.6680 3.7915 0.8354
11.2121 -17.4158 1.2844 0.9203
11.2394 -16.1470 1.2200 0.9242
12.1997 -14.0130 1.1521 0.9282
14.1418 -14.0545 1.2364 0.9232
15.2263 -14.0776 1.2859 0.9203
17.6877 -14.1301 1.4038 0.9133
20.6910 -14.2129 1.5566 0.9043
35.7887 9.6780 2.2990 0.8619
31.8947 9.8727 2.0704 0.8748
28.4450 11.1098 1.8937 0.8848
28.3514 13.5042 1.9473 0.8817
27.0368 14.0963 1.8908 0.8850
16.9459 9.6281 1.2086 0.9249
14.4941 9.6804 1.0808 0.9325
13.4502 9.7027 1.0284 0.9357
13.4287 11.2444 1.0861 0.9322
13.4672 13.0396 1.1624 0.9276
15.3895 19.9443 1.5621 0.9040
13.6284 20.5747 1.5304 0.9058
9.0358 14.7724 1.0738 0.9330
20.4279 39.5484 2.7602 0.8366
16.3826 38.2550 2.5806 0.8464
14.7511 38.1974 2.5391 0.8487
13.2419 38.3526 2.5160 0.8499
11.2121 -17.4157 0.8167 0.9204
11.2393 -16.1469 0.7757 0.9243
11.2640 -14.9979 0.7396 0.9277
12.2006 -14.0141 0.7327 0.9283
13.1375 -14.0341 0.7580 0.9259
14.1430 -14.0557 0.7862 0.9233
16.4046 -14.1040 0.8531 0.9170
22.7160 -13.3011 1.0380 0.9000
41.2004 9.5609 1.6677 0.8442
34.3456 9.2878 1.4029 0.8673
28.4449 11.1098 1.2041 0.8849
28.4710 12.3214 1.2233 0.8832
28.3478 13.5024 1.2381 0.8819
16.9440 9.6271 0.7684 0.9250
15.6499 9.6547 0.7251 0.9290
14.4926 9.6795 0.6872 0.9326
13.4112 10.4303 0.6699 0.9342
13.4672 13.0395 0.7392 0.9277
13.4886 14.0378 0.7676 0.9250
15.4190 18.5577 0.9514 0.9079
13.7592 26.6377 1.1822 0.8869
13.7101 32.0144 1.3733 0.8699
12.1288 39.7190 1.6376 0.8468
10.5876 39.7539 1.6222 0.8482
10.6008 46.4866 1.8801 0.8262
10.2645 -18.7965 0.3618 0.9179
11.1747 -18.8160 0.3697 0.9162
11.3599 -16.3202 0.3359 0.9235
11.2639 -14.9979 0.3168 0.9277
11.3241 -13.9964 0.3041 0.9305
12.2016 -14.0152 0.3139 0.9284
13.2110 -14.1127 0.3265 0.9256
15.2290 -14.0801 0.3503 0.9204
17.6911 -14.1329 0.3825 0.9134
19.1034 -14.1631 0.4017 0.9092
20.6674 -14.1967 0.4235 0.9046
22.7148 -13.3004 0.4446 0.9001
47.8532 -2.9055 0.8098 0.8255
35.2214 9.5246 0.6163 0.8642
31.2786 9.6820 0.5531 0.8772
28.4196 9.9339 0.5085 0.8865
28.3440 13.5007 0.5303 0.8820
27.0371 14.0965 0.5151 0.8852
16.9421 9.6260 0.3292 0.9250
14.5194 9.6974 0.2949 0.9325
13.4476 9.7008 0.2801 0.9358
13.4111 10.4303 0.2870 0.9343
13.4472 12.1114 0.3057 0.9302
13.4886 14.0378 0.3288 0.9251
9.3569 11.2616 0.2473 0.9431
14.2869 19.9650 0.4147 0.9065
9.0316 14.7657 0.2924 0.9331
13.7099 24.3459 0.4720 0.8942
13.7591 26.6375 0.5064 0.8870
11.5427 33.4309 0.5974 0.8681
11.6828 38.2585 0.6757 0.8521
9.9576 43.6663 0.7565 0.8360
11.2120 -17.4155 -0.1166 0.9205
11.3599 -16.3201 -0.1120 0.9235
11.2639 -14.9978 -0.1056 0.9277
11.3249 -13.9975 -0.1014 0.9305
12.2026 -14.0163 -0.1046 0.9284
14.1500 -14.0626 -0.1123 0.9233
16.4076 -14.1066 -0.1218 0.9171
17.6928 -14.1342 -0.1275 0.9134
19.1133 -14.1705 -0.1340 0.9092
20.6696 -14.1981 -0.1412 0.9046
29.0018 -18.4180 -0.1934 0.8716
47.8531 -2.9055 -0.2699 0.8255
38.8465 9.0147 -0.2245 0.8526
25.5321 8.9246 -0.1523 0.8975
22.9900 8.9792 -0.1390 0.9060
20.8543 9.0251 -0.1279 0.9131
19.0460 9.0718 -0.1188 0.9191
17.4650 9.1058 -0.1109 0.9242
16.0790 9.1356 -0.1041 0.9287
14.8387 9.1543 -0.0982 0.9326
13.7415 9.1778 -0.0930 0.9360
11.8530 9.2184 -0.0845 0.9417
11.0303 9.2361 -0.0810 0.9441
10.2728 9.2524 -0.0778 0.9462
9.3997 10.5168 -0.0794 0.9451
9.3895 12.1684 -0.0865 0.9404
9.3772 14.1567 -0.0956 0.9343
9.3620 16.6250 -0.1074 0.9265
9.3424 19.8084 -0.1233 0.9161
9.2985 26.9310 -0.1604 0.8923
9.2155 40.4121 -0.2334 0.8472
9.1674 48.1549 -0.2760 0.8219
10.3046 -18.8700 -0.6054 0.9176
11.3598 -16.3200 -0.5599 0.9235
11.3258 -13.9985 -0.5070 0.9305
12.2035 -14.0174 -0.5233 0.9283
15.2317 -14.0826 -0.5841 0.9203
45.6524 8.8717 -1.3095 0.8302
32.4670 8.7797 -0.9470 0.8741
22.9865 8.9779 -0.6949 0.9060
19.0435 9.0706 -0.5939 0.9191
17.4629 9.1047 -0.5545 0.9242
16.0772 9.1345 -0.5207 0.9287
12.7508 9.1982 -0.4427 0.9390
11.8518 9.2176 -0.4228 0.9417
11.0293 9.2353 -0.4051 0.9441
10.2720 9.2516 -0.3893 0.9462
9.6058 9.3007 -0.3765 0.9479
9.3996 10.5167 -0.3972 0.9451
9.3240 11.2221 -0.4108 0.9433
8.0501 11.2494 -0.3895 0.9461
9.3619 16.6248 -0.5372 0.9265
9.3528 18.1069 -0.5739 0.9217
9.3423 19.8082 -0.6167 0.9161
9.3297 21.7857 -0.6673 0.9095
9.3153 24.1217 -0.7281 0.9017
9.2983 26.9307 -0.8022 0.8923
9.2771 30.3803 -0.8944 0.8806
9.2504 34.7327 -1.0121 0.8660
9.2154 40.4114 -1.1671 0.8472
9.1672 48.1539 -1.3803 0.8219
11.1770 -18.8198 -1.1101 0.9161
11.2119 -17.4154 -1.0504 0.9204
13.2143 -14.1161 -0.9806 0.9255
15.2330 -14.0838 -1.0521 0.9203
16.4169 -14.1147 -1.0980 0.9169
17.6962 -14.1369 -1.1487 0.9133
28.0542 -17.8161 -1.6854 0.8754
28.5857 -15.3811 -1.6462 0.8781
29.0496 -14.3042 -1.6421 0.8784
33.3785 -9.4948 -1.7599 0.8702
33.8262 -8.3157 -1.7665 0.8698
34.2333 -7.1169 -1.7732 0.8693
34.6105 -5.9016 -1.7806 0.8688
35.5923 -2.1610 -1.8084 0.8669
36.0521 0.4155 -1.8285 0.8655
34.1364 2.8636 -1.7373 0.8718
34.2698 4.1243 -1.7505 0.8709
34.7563 8.0655 -1.8095 0.8668
28.6100 8.8560 -1.5189 0.8870
25.5237 8.9216 -1.3712 0.8974
20.8484 9.0226 -1.1521 0.9130
19.0411 9.0695 -1.0696 0.9190
17.4607 9.1036 -0.9986 0.9242
13.7387 9.1760 -0.8379 0.9360
11.0283 9.2345 -0.7295 0.9440
10.2711 9.2508 -0.7010 0.9461
9.4040 9.7869 -0.6883 0.9471
9.3995 10.5167 -0.7153 0.9451
9.3234 11.2212 -0.7399 0.9432
8.7025 11.2781 -0.7224 0.9445
9.3771 14.1565 -0.8611 0.9343
8.9187 14.5811 -0.8668 0.9338
9.3527 18.1068 -1.0335 0.9216
9.3422 19.8080 -1.1107 0.9160
9.3296 21.7855 -1.2019 0.9094
9.3152 24.1214 -1.3113 0.9016
9.2982 26.9303 -1.4449 0.8922
9.2502 34.7321 -1.8228 0.8659
9.2152 40.4107 -2.1020 0.8470
7.3187 47.7656 -2.4507 0.8240
11.1777 -18.8212 -1.6050 0.9159
11.2638 -14.9976 -1.3753 0.9275
11.3275 -14.0007 -1.3205 0.9303
16.4121 -14.1105 -1.5870 0.9169
20.6762 -14.2027 -1.8392 0.9043
21.6557 -13.7527 -1.8810 0.9022
22.6733 -11.1645 -1.8531 0.9036
24.3911 -10.9355 -1.9599 0.8983
24.7592 -10.0441 -1.9591 0.8984
25.1097 -9.1460 -1.9594 0.8984
25.7429 -7.3228 -1.9624 0.8982
26.8746 -2.6075 -1.9798 0.8974
27.2341 0.3139 -1.9970 0.8965
27.3073 1.3010 -2.0045 0.8962
27.3475 3.2913 -2.0196 0.8954
25.6142 4.9777 -1.9132 0.9006
25.2271 8.8180 -1.9595 0.8984
22.9795 8.9751 -1.8089 0.9058
19.0386 9.0683 -1.5462 0.9189
14.8339 9.1513 -1.2780 0.9325
13.7374 9.1750 -1.2112 0.9359
12.7484 9.1964 -1.1526 0.9389
11.8496 9.2159 -1.1007 0.9416
11.0274 9.2336 -1.0546 0.9439
9.6057 9.3007 -0.9803 0.9478
9.4040 9.7869 -0.9952 0.9470
9.3995 10.5166 -1.0342 0.9450
8.9181 14.5801 -1.2532 0.9337
9.3618 16.6245 -1.3989 0.9263
9.3526 18.1066 -1.4943 0.9215
9.3295 21.7852 -1.7377 0.9093
9.3151 24.1211 -1.8959 0.9015
9.2981 26.9300 -2.0889 0.8920
8.4152 31.5969 -2.3975 0.8771
6.1483 32.2957 -2.4105 0.8765
5.3061 34.6304 -2.5688 0.8689
2.7958 34.9274 -2.5691 0.8689
1.5339 35.0053 -2.5691 0.8689
11.2390 -16.1465 -1.8887 0.9240
11.2637 -14.9975 -1.8007 0.9274
13.1440 -14.0410 -1.8465 0.9256
14.1502 -14.0628 -1.9153 0.9230
15.2357 -14.0863 -1.9921 0.9200
16.3136 -14.0258 -2.0655 0.9172
16.6542 -13.3045 -2.0464 0.9179
17.5802 -11.1645 -1.9994 0.9197
17.9083 -10.4860 -1.9923 0.9200
18.5241 -9.9672 -2.0195 0.9189
19.9384 -8.9391 -2.0978 0.9159
20.2196 -8.2026 -2.0948 0.9161
20.4885 -7.4627 -2.0934 0.9161
20.9664 -5.9641 -2.0927 0.9161
21.1703 -5.2044 -2.0930 0.9161
21.3524 -4.4390 -2.0938 0.9161
21.6514 -2.8925 -2.0971 0.9160
21.8561 -1.3270 -2.1022 0.9158
21.9235 -0.5385 -2.1054 0.9156
21.9675 0.2532 -2.1091 0.9155
21.9877 1.0476 -2.1133 0.9153
21.9842 1.8442 -2.1180 0.9152
21.9566 2.6425 -2.1232 0.9150
21.9050 3.4420 -2.1288 0.9148
21.1989 5.7327 -2.1083 0.9155
20.0011 6.9913 -2.0341 0.9184
19.1858 8.3031 -2.0070 0.9194
16.0717 9.1314 -1.7746 0.9284
11.8486 9.2150 -1.4410 0.9415
11.0264 9.2328 -1.3807 0.9438
10.2693 9.2492 -1.3268 0.9460
8.7012 11.2764 -1.3674 0.9444
8.9175 14.5792 -1.6407 0.9336
9.3617 16.6244 -1.8317 0.9262
9.3525 18.1064 -1.9565 0.9214
9.3420 19.8076 -2.1025 0.9158
9.3294 21.7850 -2.2752 0.9092
8.1185 23.5136 -2.3882 0.9049
7.2667 23.7970 -2.3888 0.9049
6.4049 24.0487 -2.3893 0.9048
1.1614 26.5057 -2.5471 0.8989
0.2045 26.5292 -2.5470 0.8989
-0.7526 26.5173 -2.5468 0.8989
9.3850 -17.1860 -2.3260 0.9242
10.4020 -16.1573 -2.2826 0.9255
10.8784 -15.6284 -2.2619 0.9262
12.1708 -13.9798 -2.2017 0.9281
12.5202 -13.3746 -2.1762 0.9289
13.0687 -12.0827 -2.1142 0.9308
13.4016 -11.5222 -2.0994 0.9313
13.7660 -10.9972 -2.0929 0.9315
14.1122 -10.4626 -2.0868 0.9317
16.2524 -8.7449 -2.1923 0.9284
16.7531 -7.5110 -2.1809 0.9287
17.4099 -5.6388 -2.1738 0.9289
18.0411 -3.0763 -2.1740 0.9289
18.3030 -1.1113 -2.1781 0.9288
18.2422 1.5302 -2.1745 0.9289
18.3283 2.2058 -2.1929 0.9283
18.2709 2.8709 -2.1969 0.9282
18.1924 3.5353 -2.2014 0.9281
18.0929 4.1986 -2.2063 0.9279
17.9724 4.8602 -2.2116 0.9277
16.2156 7.0177 -2.0988 0.9313
15.5709 8.8469 -2.1273 0.9304
14.8307 9.1493 -2.0699 0.9322
13.7345 9.1732 -1.9619 0.9356
11.0254 9.2320 -1.7082 0.9437
9.4039 9.7867 -1.6122 0.9468
8.0478 11.2463 -1.6427 0.9458
8.9562 14.6424 -2.0389 0.9332
9.0950 17.6079 -2.3541 0.9233
6.5281 18.9073 -2.3760 0.9226
6.2258 20.3879 -2.5322 0.9177
5.4871 20.6027 -2.5326 0.9177
4.7410 20.7902 -2.5330 0.9177
3.9883 20.9500 -2.5333 0.9177
2.4677 21.1860 -2.5336 0.9177
1.7019 21.2617 -2.5337 0.9177
0.9337 21.3092 -2.5337 0.9177
-0.6051 21.3190 -2.5334 0.9177
8.4008 -14.1452 -2.3310 0.9357
8.6254 -13.3976 -2.2577 0.9377
8.9316 -12.8315 -2.2152 0.9388
9.6941 -11.9817 -2.1837 0.9396
12.1460 -9.7030 -2.2027 0.9391
12.8286 -9.5110 -2.2627 0.9375
13.4326 -8.5305 -2.2546 0.9377
13.7097 -8.0275 -2.2510 0.9378
13.9581 -7.5104 -2.2458 0.9380
14.1864 -6.9854 -2.2405 0.9381
14.6133 -5.9282 -2.2344 0.9383
14.9664 -4.8474 -2.2290 0.9384
15.2365 -3.7457 -2.2231 0.9386
15.3584 -3.1929 -2.2226 0.9386
15.5586 -2.0786 -2.2241 0.9386
15.7251 -0.3863 -2.2287 0.9384
15.6407 2.4576 -2.2433 0.9380
15.5690 3.0256 -2.2472 0.9379
15.4786 3.5919 -2.2514 0.9378
15.3659 4.1553 -2.2554 0.9377
15.2317 4.7148 -2.2592 0.9376
14.9031 5.8207 -2.2669 0.9374
14.3371 6.2047 -2.2135 0.9388
13.6225 6.4885 -2.1379 0.9409
13.4187 6.9961 -2.1442 0.9407
12.9595 7.9949 -2.1575 0.9403
11.8463 9.2133 -2.1264 0.9412
11.0244 9.2312 -2.0373 0.9436
10.2676 9.2476 -1.9579 0.9457
9.3205 11.2179 -2.0665 0.9428
8.0472 11.2455 -1.9593 0.9457
9.1337 13.7890 -2.3435 0.9354
7.6624 14.8343 -2.3657 0.9348
7.1241 15.1050 -2.3663 0.9348
5.8113 16.8311 -2.5229 0.9306
5.2012 17.0326 -2.5234 0.9306
3.9606 17.3678 -2.5240 0.9306
2.6984 17.6110 -2.5244 0.9306
2.0614 17.6977 -2.5245 0.9305
0.7800 17.8006 -2.5246 0.9305
0.1373 17.8166 -2.5245 0.9305
6.8946 -12.6254 -2.3698 0.9434
7.2275 -12.1696 -2.3317 0.9442
7.5817 -11.7767 -2.3074 0.9448
8.7055 -10.7598 -2.2801 0.9454
9.1271 -10.4836 -2.2899 0.9452
9.9596 -9.8981 -2.3132 0.9447
10.5962 -9.1102 -2.3021 0.9449
10.8981 -8.7061 -2.2979 0.9450
11.4600 -7.8720 -2.2904 0.9452
11.7195 -7.4427 -2.2871 0.9453
12.4098 -6.1106 -2.2788 0.9455
12.7912 -5.1891 -2.2740 0.9456
12.9574 -4.7196 -2.2718 0.9456
13.1083 -4.2456 -2.2699 0.9457
13.2438 -3.7673 -2.2683 0.9457
13.4682 -2.7999 -2.2662 0.9458
13.6302 -1.8209 -2.2654 0.9458
13.6858 -1.3279 -2.2652 0.9458
13.7465 -0.3377 -2.2653 0.9458
13.7618 0.1586 -2.2673 0.9457
13.6615 2.1466 -2.2782 0.9455
13.2789 4.1104 -2.2900 0.9452
13.1429 4.5941 -2.2936 0.9451
11.2636 6.9488 -2.1803 0.9478
10.8054 7.7948 -2.1949 0.9474
10.5682 8.2192 -2.2055 0.9472
10.3940 8.7034 -2.2333 0.9465
10.2667 9.2468 -2.2762 0.9455
8.0466 11.2446 -2.2779 0.9455
7.0279 12.4800 -2.3595 0.9436
6.4160 13.6036 -2.4778 0.9408
6.0118 14.0381 -2.5158 0.9400
5.5024 14.2484 -2.5162 0.9400
4.9857 14.4400 -2.5166 0.9399
2.3148 15.1078 -2.5179 0.9399
1.2196 15.2362 -2.5180 0.9399
0.6691 15.2703 -2.5180 0.9399
6.6087 -11.1277 -2.4326 0.9487
6.9204 -10.7494 -2.4030 0.9493
7.2321 -10.3899 -2.3794 0.9498
7.8792 -9.7385 -2.3545 0.9503
8.2001 -9.4189 -2.3473 0.9504
8.5136 -9.0946 -2.3416 0.9506
9.3844 -8.0684 -2.3262 0.9509
9.6525 -7.7110 -2.3221 0.9510
10.8066 -5.8147 -2.3066 0.9513
11.3433 -4.6016 -2.3009 0.9514
11.6317 -3.7673 -2.2981 0.9515
11.9587 -2.4861 -2.2958 0.9515
12.0392 -2.0528 -2.2956 0.9515
12.1572 -1.1796 -2.2958 0.9515
12.2173 -0.3000 -2.2971 0.9515
12.2255 0.1410 -2.2981 0.9515
11.9668 2.7770 -2.3090 0.9512
11.8723 3.2105 -2.3117 0.9512
11.7632 3.6412 -2.3145 0.9511
11.6397 4.0686 -2.3176 0.9511
11.5017 4.4923 -2.3209 0.9510
11.1829 5.3266 -2.3282 0.9508
11.0026 5.7365 -2.3323 0.9508
10.8089 6.1413 -2.3367 0.9507
9.7539 6.5146 -2.2047 0.9534
9.5455 6.8860 -2.2123 0.9532
9.3313 7.2573 -2.2219 0.9530
8.3268 9.3164 -2.3486 0.9504
8.0084 9.6386 -2.3554 0.9503
7.6555 9.9213 -2.3554 0.9503
7.2921 10.1903 -2.3553 0.9503
6.1288 11.8654 -2.5102 0.9471
3.9034 12.7826 -2.5122 0.9471
3.4401 12.9165 -2.5124 0.9471
2.0249 13.2154 -2.5130 0.9470
1.5469 13.2802 -2.5130 0.9470
1.0668 13.3276 -2.5131 0.9470
5.6300 -10.3097 -2.4830 0.9531
6.5954 -9.4752 -2.4403 0.9539
6.8633 -9.1384 -2.4158 0.9543
7.1237 -8.8048 -2.3940 0.9548
7.3898 -8.4881 -2.3789 0.9550
7.6531 -8.1754 -2.3671 0.9552
7.9189 -7.8700 -2.3599 0.9554
8.1743 -7.5576 -2.3532 0.9555
8.4255 -7.2439 -2.3487 0.9556
9.3149 -5.9155 -2.3325 0.9559
10.3130 -3.7564 -2.3201 0.9561
10.5474 -3.0003 -2.3180 0.9562
10.6453 -2.6170 -2.3172 0.9562
10.8627 -1.4512 -2.3165 0.9562
10.9090 -1.0585 -2.3168 0.9562
10.9422 -0.6643 -2.3172 0.9562
10.9621 -0.2693 -2.3179 0.9562
10.9689 0.1264 -2.3187 0.9561
10.9623 0.5223 -2.3198 0.9561
10.6444 2.8785 -2.3308 0.9559
10.5453 3.2642 -2.3334 0.9559
10.3076 4.0259 -2.3391 0.9558
10.1694 4.4010 -2.3423 0.9557
9.2921 6.2061 -2.3620 0.9553
9.0892 6.5568 -2.3690 0.9552
8.7738 6.8237 -2.3495 0.9556
8.4361 7.0639 -2.3258 0.9560
8.1295 7.3219 -2.3126 0.9563
7.8490 7.5997 -2.3094 0.9563
7.5822 7.8909 -2.3132 0.9562
7.3397 8.2120 -2.3281 0.9560
4.6698 10.9044 -2.5074 0.9527
3.8725 11.2157 -2.5081 0.9526
3.4657 11.3494 -2.5084 0.9526
3.0543 11.4681 -2.5086 0.9526
1.3734 11.7907 -2.5092 0.9526
0.9472 11.8327 -2.5092 0.9526
0.0915 11.8700 -2.5091 0.9526
-0.3367 11.8651 -2.5091 0.9526
5.0688 -9.2820 -2.4856 0.9575
5.3991 -9.0909 -2.4850 0.9575
6.0378 -8.6741 -2.4839 0.9575
6.3209 -8.4162 -2.4737 0.9577
6.5563 -8.1034 -2.4498 0.9581
6.7848 -7.7932 -2.4285 0.9584
7.4445 -6.8828 -2.3828 0.9592
7.8706 -6.2875 -2.3676 0.9595
8.6253 -5.0504 -2.3491 0.9598
9.3462 -3.4042 -2.3377 0.9600
9.5582 -2.7189 -2.3355 0.9600
9.6472 -2.3716 -2.3348 0.9600
9.7241 -2.0216 -2.3343 0.9600
9.7894 -1.6692 -2.3339 0.9600
9.8848 -0.9591 -2.3341 0.9600
9.9146 -0.6020 -2.3344 0.9600
9.9323 -0.2440 -2.3350 0.9600
9.9379 0.1146 -2.3358 0.9600
9.8393 1.5460 -2.3408 0.9599
9.7844 1.9014 -2.3426 0.9599
9.7175 2.2550 -2.3445 0.9598
9.6387 2.6065 -2.3467 0.9598
9.5482 2.9556 -2.3491 0.9598
9.3314 3.6446 -2.3544 0.9597
9.0688 4.3196 -2.3608 0.9596
8.7659 4.9805 -2.3695 0.9594
8.6020 5.3067 -2.3754 0.9593
8.4305 5.6306 -2.3826 0.9592
8.0663 6.2734 -2.4016 0.9589
7.6744 6.9121 -2.4274 0.9584
7.0170 7.8509 -2.4747 0.9577
5.5569 9.0849 -2.5029 0.9572
4.1951 9.7959 -2.5045 0.9572
3.8395 9.9421 -2.5048 0.9572
2.7437 10.3018 -2.5056 0.9571
1.9940 10.4741 -2.5059 0.9571
1.2337 10.5913 -2.5060 0.9571
0.0822 10.6626 -2.5060 0.9571
-0.3025 10.6583 -2.5060 0.9571
4.6049 -8.4324 -2.4876 0.9611
4.9050 -8.2590 -2.4871 0.9611
5.4855 -7.8807 -2.4861 0.9611
6.2840 -7.2179 -2.4779 0.9612
6.4967 -6.9401 -2.4614 0.9615
6.6890 -6.6476 -2.4417 0.9618
7.0625 -6.0720 -2.4115 0.9622
7.9062 -4.6294 -2.3722 0.9629
8.1884 -4.0320 -2.3632 0.9630
8.3208 -3.7305 -2.3610 0.9630
8.4438 -3.4254 -2.3593 0.9630
8.6505 -2.8017 -2.3543 0.9631
8.7415 -2.4867 -2.3531 0.9631
8.9470 -1.5255 -2.3500 0.9632
8.9953 -1.2017 -2.3497 0.9632
9.0590 -0.5500 -2.3498 0.9632
9.0276 1.0865 -2.3543 0.9631
8.9887 1.4124 -2.3559 0.9631
8.9388 1.7371 -2.3577 0.9631
8.7274 2.7015 -2.3655 0.9630
8.5358 3.3338 -2.3726 0.9628
8.4286 3.6477 -2.3779 0.9628
8.1823 4.2660 -2.3892 0.9626
7.9076 4.8783 -2.4057 0.9623
7.5992 5.4820 -2.4261 0.9620
7.2567 6.0763 -2.4506 0.9616
7.0741 6.3714 -2.4650 0.9614
6.4328 7.1973 -2.4994 0.9609
5.9041 7.6515 -2.5023 0.9609
5.6253 7.8610 -2.5028 0.9608
5.0437 8.2459 -2.5027 0.9608
4.4359 8.5878 -2.5026 0.9608
4.1231 8.7421 -2.5026 0.9608
3.8050 8.8850 -2.5026 0.9609
3.4820 9.0164 -2.5025 0.9609
3.1546 9.1364 -2.5026 0.9608
2.4880 9.3417 -2.5030 0.9608
2.1496 9.4259 -2.5032 0.9608
1.8082 9.4978 -2.5033 0.9608
1.4644 9.5573 -2.5034 0.9608
1.1187 9.6041 -2.5035 0.9608
0.7715 9.6383 -2.5035 0.9608
0.4233 9.6598 -2.5035 0.9608
0.0745 9.6687 -2.5035 0.9608
-0.2743 9.6648 -2.5034 0.9608
4.2146 -7.7177 -2.4894 0.9641
4.7582 -7.3909 -2.4884 0.9641
5.2769 -7.0261 -2.4876 0.9641
5.5261 -6.8301 -2.4872 0.9641
6.0025 -6.4121 -2.4865 0.9641
6.2279 -6.1894 -2.4856 0.9642
6.4097 -5.9261 -2.4712 0.9644
6.8964 -5.1129 -2.4304 0.9649
7.3188 -4.2854 -2.4010 0.9654
7.4499 -4.0085 -2.3949 0.9654
7.5705 -3.7276 -2.3889 0.9655
7.6879 -3.4467 -2.3851 0.9656
7.7938 -3.1617 -2.3810 0.9656
8.1964 -1.7040 -2.3700 0.9658
8.2500 -1.4067 -2.3692 0.9658
8.2950 -1.1081 -2.3691 0.9658
8.3299 -0.8082 -2.3692 0.9658
8.3549 -0.5073 -2.3696 0.9658
8.3533 0.7007 -2.3731 0.9658
8.1939 1.9015 -2.3813 0.9656
7.9822 2.7901 -2.3938 0.9655
7.7980 3.3748 -2.4054 0.9653
7.6956 3.6655 -2.4131 0.9652
7.5822 3.9532 -2.4207 0.9651
7.4621 4.2397 -2.4296 0.9650
7.0513 5.0867 -2.4613 0.9645
6.8948 5.3623 -2.4727 0.9643
6.5453 5.8951 -2.4937 0.9640
6.3433 6.1418 -2.4996 0.9640
5.8878 6.5875 -2.5012 0.9639
5.4008 6.9993 -2.5027 0.9639
4.8820 7.3703 -2.5027 0.9639
4.3377 7.7029 -2.5026 0.9639
3.4800 8.1261 -2.5025 0.9639
3.1845 8.2462 -2.5025 0.9639
2.8849 8.3556 -2.5024 0.9639
2.5816 8.4541 -2.5024 0.9639
2.2749 8.5416 -2.5023 0.9639
1.3387 8.7369 -2.5022 0.9639
1.0226 8.7793 -2.5022 0.9639
0.7052 8.8103 -2.5021 0.9639
0.0681 8.8379 -2.5020 0.9639
-0.2507 8.8344 -2.5020 0.9639
4.3822 -6.8068 -2.4900 0.9667
5.0896 -6.2906 -2.4888 0.9667
5.3125 -6.1021 -2.4885 0.9667
5.5285 -5.9057 -2.4882 0.9667
5.9386 -5.4905 -2.4876 0.9667
6.1322 -5.2722 -2.4874 0.9667
6.3025 -5.0348 -2.4811 0.9668
6.4533 -4.7844 -2.4709 0.9669
7.1668 -3.2131 -2.4157 0.9677
7.3505 -2.6773 -2.4062 0.9678
7.5677 -1.8604 -2.3970 0.9679
7.6233 -1.5848 -2.3949 0.9679
7.6740 -1.3085 -2.3944 0.9679
7.7420 -0.7512 -2.3925 0.9680
7.7634 -0.4714 -2.3922 0.9680
7.7763 -0.1910 -2.3925 0.9680
7.7809 0.0897 -2.3934 0.9680
7.7770 0.3705 -2.3947 0.9679
7.7647 0.6513 -2.3966 0.9679
7.6773 1.4919 -2.4055 0.9678
7.5737 2.0481 -2.4132 0.9677
7.4396 2.6005 -2.4240 0.9676
7.3581 2.8739 -2.4297 0.9675
7.2704 3.1464 -2.4366 0.9674
7.0724 3.6874 -2.4532 0.9672
6.9614 3.9553 -2.4627 0.9670
6.7062 4.4790 -2.4804 0.9668
6.5658 4.7365 -2.4901 0.9667
6.0384 5.4386 -2.4995 0.9666
5.6338 5.8632 -2.5010 0.9665
5.1996 6.2581 -2.5026 0.9665
4.9707 6.4419 -2.5027 0.9665
4.4932 6.7834 -2.5026 0.9665
4.2455 6.9409 -2.5026 0.9665
3.4707 7.3587 -2.5025 0.9665
3.2029 7.4790 -2.5024 0.9665
2.9310 7.5896 -2.5024 0.9665
2.6552 7.6903 -2.5024 0.9665
1.8088 7.9317 -2.5023 0.9665
1.2321 8.0413 -2.5022 0.9665
0.9412 8.0803 -2.5021 0.9665
0.6491 8.1089 -2.5021 0.9665
0.3561 8.1269 -2.5020 0.9665
0.0627 8.1343 -2.5020 0.9665
-0.2308 8.1311 -2.5020 0.9665
3.8278 -6.4452 -2.4917 0.9689
4.0571 -6.3019 -2.4913 0.9689
5.1186 -5.4679 -2.4897 0.9689
5.8497 -4.6731 -2.4888 0.9689
6.3061 -4.0047 -2.4832 0.9690
6.4277 -3.7637 -2.4759 0.9691
6.6366 -3.2679 -2.4590 0.9693
6.8188 -2.7661 -2.4460 0.9695
7.0937 -1.7439 -2.4282 0.9697
7.1440 -1.4851 -2.4255 0.9697
7.2209 -0.9647 -2.4216 0.9698
7.2858 0.0839 -2.4220 0.9698
7.2822 0.3470 -2.4234 0.9697
7.2707 0.6099 -2.4253 0.9697
7.2513 0.8728 -2.4278 0.9697
7.1900 1.3973 -2.4347 0.9696
7.1480 1.6587 -2.4392 0.9695
7.0971 1.9192 -2.4438 0.9695
6.9740 2.4377 -2.4557 0.9693
6.8982 2.6943 -2.4617 0.9693
6.8175 2.9504 -2.4693 0.9692
6.6284 3.4558 -2.4848 0.9690
6.3870 3.9403 -2.4946 0.9689
6.0952 4.3970 -2.4982 0.9688
5.7653 4.8275 -2.4995 0.9688
5.5889 5.0337 -2.5002 0.9688
5.4051 5.2334 -2.5009 0.9688
5.0164 5.6127 -2.5022 0.9688
4.3813 6.1226 -2.5026 0.9688
4.1575 6.2766 -2.5026 0.9688
3.9284 6.4224 -2.5025 0.9688
3.4550 6.6887 -2.5025 0.9688
3.2114 6.8089 -2.5024 0.9688
2.9636 6.9203 -2.5024 0.9688
2.7120 7.0226 -2.5024 0.9688
2.1985 7.1997 -2.5023 0.9688
1.9374 7.2742 -2.5023 0.9688
1.4078 7.3947 -2.5022 0.9688
0.8709 7.4767 -2.5021 0.9688
0.3295 7.5198 -2.5020 0.9688
0.0580 7.5267 -2.5020 0.9688
-0.2135 7.5238 -2.5019 0.9688
4.3823 -5.4164 -2.4915 0.9708
4.5743 -5.2542 -2.4912 0.9708
4.7604 -5.0852 -2.4910 0.9708
4.9402 -4.9097 -2.4907 0.9708
5.5934 -4.1468 -2.4900 0.9709
5.8772 -3.7324 -2.4897 0.9709
6.4258 -2.6068 -2.4798 0.9710
6.6298 -1.8859 -2.4649 0.9711
6.6807 -1.6423 -2.4602 0.9712
6.7303 -1.3992 -2.4583 0.9712
6.8608 0.0791 -2.4536 0.9713
6.8573 0.3267 -2.4550 0.9713
6.8470 0.5744 -2.4571 0.9712
6.8297 0.8220 -2.4600 0.9712
6.7257 1.5608 -2.4690 0.9711
6.6259 2.0510 -2.4804 0.9710
6.5583 2.2924 -2.4844 0.9709
6.4838 2.5324 -2.4892 0.9709
6.0716 3.4497 -2.4972 0.9708
5.9446 3.6673 -2.4978 0.9708
5.8097 3.8803 -2.4984 0.9708
5.6673 4.0883 -2.4989 0.9708
5.5174 4.2911 -2.4995 0.9707
5.3603 4.4884 -2.5001 0.9707
5.1962 4.6800 -2.5008 0.9707
4.8477 5.0450 -2.5020 0.9707
4.6636 5.2178 -2.5026 0.9707
4.2751 5.5404 -2.5025 0.9707
3.8645 5.8341 -2.5025 0.9707
3.2114 6.2173 -2.5024 0.9707
2.7547 6.4325 -2.5024 0.9707
2.5208 6.5276 -2.5023 0.9707
2.2837 6.6142 -2.5023 0.9707
2.0436 6.6922 -2.5023 0.9707
1.8008 6.7614 -2.5022 0.9707
1.5557 6.8219 -2.5022 0.9707
1.3085 6.8735 -2.5022 0.9707
1.0597 6.9161 -2.5021 0.9707
0.8095 6.9497 -2.5021 0.9707
0.3063 6.9898 -2.5020 0.9707
0.0539 6.9962 -2.5020 0.9707
3.1196 -5.7125 -2.4943 0.9725
3.3231 -5.5955 -2.4939 0.9725
3.5223 -5.4712 -2.4936 0.9725
3.7169 -5.3398 -2.4932 0.9725
3.9066 -5.2016 -2.4929 0.9725
4.0913 -5.0567 -2.4926 0.9725
4.2705 -4.9053 -2.4924 0.9725
4.7742 -4.4140 -2.4917 0.9725
5.3581 -3.6805 -2.4911 0.9725
5.4872 -3.4847 -2.4910 0.9725
5.7239 -3.0798 -2.4908 0.9725
5.8312 -2.8713 -2.4908 0.9725
5.9309 -2.6590 -2.4908 0.9725
6.3066 -1.5504 -2.4888 0.9726
6.3948 -1.0904 -2.4860 0.9726
6.4277 -0.8587 -2.4851 0.9726
6.4744 -0.1590 -2.4818 0.9726
6.4629 0.5421 -2.4854 0.9726
6.4168 1.0083 -2.4892 0.9726
6.2844 1.6994 -2.4948 0.9725
6.1475 2.1488 -2.4956 0.9725
6.0671 2.3696 -2.4961 0.9725
5.8826 2.8020 -2.4970 0.9725
5.7788 3.0130 -2.4975 0.9725
5.6675 3.2201 -2.4980 0.9725
5.5488 3.4232 -2.4985 0.9725
5.4229 3.6219 -2.4990 0.9725
5.2898 3.8160 -2.4996 0.9724
4.5246 4.7088 -2.5025 0.9724
4.3518 4.8690 -2.5025 0.9724
3.8002 5.3106 -2.5025 0.9724
3.2041 5.6898 -2.5024 0.9724
2.9968 5.8017 -2.5024 0.9724
2.3524 6.0912 -2.5023 0.9724
1.2211 6.4141 -2.5021 0.9724
0.9889 6.4539 -2.5021 0.9724
0.5210 6.5082 -2.5020 0.9724
0.0503 6.5286 -2.5020 0.9724
3.1127 -5.2411 -2.4948 0.9740
3.2993 -5.1248 -2.4945 0.9740
3.4816 -5.0018 -2.4942 0.9740
3.6594 -4.8723 -2.4939 0.9740
3.8323 -4.7366 -2.4936 0.9740
4.1631 -4.4471 -2.4931 0.9740
4.6180 -3.9704 -2.4926 0.9740
4.8918 -3.6267 -2.4923 0.9740
5.1401 -3.2643 -2.4921 0.9740
5.2543 -3.0766 -2.4920 0.9740
5.3618 -2.8850 -2.4919 0.9740
5.4623 -2.6897 -2.4919 0.9740
5.6421 -2.2888 -2.4919 0.9740
5.7211 -2.0838 -2.4920 0.9740
5.8567 -1.6660 -2.4921 0.9740
5.9133 -1.4537 -2.4922 0.9740
6.0033 -1.0237 -2.4924 0.9740
6.0623 -0.5882 -2.4928 0.9740
6.0900 -0.1496 -2.4932 0.9740
6.0920 0.0702 -2.4934 0.9740
6.0861 0.2900 -2.4937 0.9740
6.0723 0.5094 -2.4940 0.9740
5.9840 1.1629 -2.4949 0.9740
5.8863 1.5918 -2.4956 0.9740
5.8259 1.8033 -2.4960 0.9740
5.6826 2.2195 -2.4968 0.9740
5.1969 3.2060 -2.4991 0.9740
4.9541 3.5738 -2.5001 0.9739
4.6855 3.9234 -2.5012 0.9739
4.5419 4.0907 -2.5017 0.9739
3.9075 4.7029 -2.5025 0.9739
3.7353 4.8408 -2.5025 0.9739
3.5582 4.9724 -2.5024 0.9739
3.1904 5.2159 -2.5024 0.9739
3.0001 5.3275 -2.5024 0.9739
2.4069 5.6203 -2.5023 0.9739
2.2026 5.7034 -2.5023 0.9739
1.9953 5.7790 -2.5022 0.9739
1.7855 5.8472 -2.5022 0.9739
1.5734 5.9077 -2.5022 0.9739
1.3593 5.9606 -2.5021 0.9739
0.7074 6.0724 -2.5020 0.9739
0.2676 6.1073 -2.5020 0.9739
0.0471 6.1129 -2.5020 0.9739
-0.1734 6.1106 -2.5019 0.9739
2.7449 -5.0265 -2.4960 0.9753
3.0994 -4.8143 -2.4953 0.9753
3.2707 -4.6988 -2.4951 0.9753
3.7580 -4.3166 -2.4943 0.9753
4.5956 -3.4071 -2.4932 0.9753
5.0373 -2.7104 -2.4929 0.9753
5.1317 -2.5269 -2.4929 0.9754
5.3005 -2.1503 -2.4929 0.9754
5.6398 -0.9617 -2.4934 0.9753
5.6952 -0.5526 -2.4937 0.9753
5.7119 -0.3468 -2.4939 0.9753
5.7230 0.0660 -2.4943 0.9753
5.7175 0.2724 -2.4946 0.9753
5.7045 0.4785 -2.4948 0.9753
5.6214 1.0924 -2.4957 0.9753
5.3380 2.0849 -2.4975 0.9753
5.2602 2.2765 -2.4979 0.9753
5.0840 2.6507 -2.4988 0.9753
4.8815 3.0115 -2.4997 0.9753
4.7705 3.1862 -2.5001 0.9753
4.6534 3.3568 -2.5006 0.9753
4.4009 3.6851 -2.5016 0.9753
4.2660 3.8422 -2.5021 0.9753
3.9784 4.1404 -2.5025 0.9753
3.8265 4.2812 -2.5025 0.9753
3.6695 4.4164 -2.5024 0.9753
3.5078 4.5459 -2.5024 0.9753
3.1708 4.7869 -2.5024 0.9753
2.6350 5.1013 -2.5023 0.9753
2.4492 5.1930 -2.5023 0.9753
2.0684 5.3560 -2.5022 0.9753
1.8738 5.4271 -2.5022 0.9753
1.4776 5.5479 -2.5021 0.9753
1.2765 5.5975 -2.5021 0.9753
1.0737 5.6399 -2.5021 0.9753
0.8695 5.6749 -2.5021 0.9753
0.4581 5.7227 -2.5020 0.9753
2.5851 -4.7339 -2.4967 0.9765
3.0804 -4.4254 -2.4958 0.9765
3.3908 -4.1909 -2.4953 0.9765
3.6835 -3.9348 -2.4949 0.9765
3.8227 -3.7991 -2.4947 0.9765
3.9570 -3.6585 -2.4945 0.9765
4.0862 -3.5131 -2.4944 0.9765
4.3284 -3.2090 -2.4941 0.9765
4.4412 -3.0507 -2.4940 0.9765
4.9161 -2.2040 -2.4938 0.9765
5.2755 -1.0967 -2.4941 0.9765
5.3119 -0.9057 -2.4943 0.9765
5.3640 -0.5204 -2.4946 0.9765
5.3884 -0.1323 -2.4949 0.9765
5.3848 0.2566 -2.4954 0.9765
5.3726 0.4507 -2.4956 0.9765
5.3534 0.6443 -2.4959 0.9765
5.3273 0.8371 -2.4962 0.9765
5.2942 1.0288 -2.4965 0.9765
5.2543 1.2193 -2.4968 0.9765
5.2076 1.4083 -2.4971 0.9765
5.0939 1.7806 -2.4978 0.9765
4.4924 3.0004 -2.5006 0.9765
4.2659 3.3178 -2.5015 0.9765
4.1442 3.4702 -2.5020 0.9765
3.7457 3.8983 -2.5024 0.9765
3.4549 4.1581 -2.5024 0.9765
3.3026 4.2800 -2.5024 0.9765
2.9854 4.5069 -2.5023 0.9765
2.8208 4.6116 -2.5023 0.9765
2.4809 4.8029 -2.5023 0.9765
2.3060 4.8893 -2.5022 0.9765
1.7642 5.1096 -2.5022 0.9765
1.5787 5.1699 -2.5021 0.9765
1.2019 5.2702 -2.5021 0.9765
0.4313 5.3880 -2.5020 0.9765
0.2366 5.4000 -2.5020 0.9765
-0.1533 5.4029 -2.5019 0.9765
2.4401 -4.4683 -2.4973 0.9776
2.7553 -4.2798 -2.4968 0.9776
2.9076 -4.1772 -2.4965 0.9776
3.0561 -4.0692 -2.4963 0.9776
3.2007 -3.9559 -2.4960 0.9776
3.3410 -3.8375 -2.4958 0.9776
3.9741 -3.1747 -2.4950 0.9776
4.0858 -3.0292 -2.4949 0.9776
4.1923 -2.8797 -2.4948 0.9776
4.3888 -2.5698 -2.4947 0.9776
4.5625 -2.2466 -2.4946 0.9776
4.6406 -2.0805 -2.4946 0.9776
4.7126 -1.9118 -2.4946 0.9776
4.7786 -1.7405 -2.4946 0.9776
4.8383 -1.5670 -2.4947 0.9776
4.9390 -1.2141 -2.4948 0.9776
4.9798 -1.0352 -2.4949 0.9776
5.0141 -0.8550 -2.4950 0.9776
5.0420 -0.6736 -2.4952 0.9776
5.0633 -0.4913 -2.4953 0.9776
5.0879 0.0587 -2.4959 0.9776
5.0532 0.6082 -2.4966 0.9776
5.0285 0.7902 -2.4968 0.9776
4.9596 1.1509 -2.4974 0.9776
4.9154 1.3292 -2.4977 0.9776
4.8649 1.5059 -2.4980 0.9776
4.8080 1.6806 -2.4984 0.9776
4.7449 1.8532 -2.4987 0.9776
4.6003 2.1912 -2.4994 0.9776
4.4317 2.5179 -2.5002 0.9775
4.3387 2.6766 -2.5006 0.9775
4.2400 2.8319 -2.5010 0.9775
3.9114 3.2751 -2.5024 0.9775
3.7907 3.4142 -2.5024 0.9775
3.6651 3.5487 -2.5024 0.9775
3.5347 3.6786 -2.5024 0.9775
3.3996 3.8036 -2.5024 0.9775
3.2601 3.9238 -2.5024 0.9775
2.9687 4.1486 -2.5023 0.9775
2.6618 4.3518 -2.5023 0.9775
2.0082 4.6892 -2.5022 0.9775
1.8377 4.7585 -2.5022 0.9775
1.4898 4.8786 -2.5021 0.9775
1.1341 4.9732 -2.5021 0.9775
0.4070 5.0844 -2.5020 0.9775
0.2233 5.0957 -2.5020 0.9775
-0.1447 5.0984 -2.5019 0.9775
2.4584 -4.1395 -2.4977 0.9785
2.6059 -4.0477 -2.4974 0.9785
2.8904 -3.8485 -2.4969 0.9785
3.4129 -3.3917 -2.4962 0.9786
3.6481 -3.1365 -2.4959 0.9786
3.7587 -3.0027 -2.4957 0.9786
3.8644 -2.8650 -2.4956 0.9786
3.9651 -2.7236 -2.4955 0.9786
4.1510 -2.4305 -2.4954 0.9786
4.2359 -2.2792 -2.4954 0.9786
4.3153 -2.1249 -2.4954 0.9786
4.3891 -1.9678 -2.4953 0.9786
4.5196 -1.6462 -2.4954 0.9786
4.6268 -1.3161 -2.4955 0.9786
4.6714 -1.1484 -2.4956 0.9786
4.7099 -0.9792 -2.4957 0.9786
4.7424 -0.8086 -2.4958 0.9786
4.8029 -0.2916 -2.4962 0.9786
4.8106 -0.1182 -2.4964 0.9785
4.8121 0.0555 -2.4966 0.9785
4.8073 0.2291 -2.4968 0.9785
4.7964 0.4024 -2.4970 0.9785
4.7558 0.7473 -2.4975 0.9785
4.7262 0.9185 -2.4977 0.9785
4.6488 1.2571 -2.4983 0.9785
4.6009 1.4242 -2.4986 0.9785
4.4219 1.9137 -2.4996 0.9785
4.3506 2.0722 -2.4999 0.9785
4.2736 2.2282 -2.5003 0.9785
4.1911 2.3812 -2.5007 0.9785
4.1031 2.5312 -2.5010 0.9785
3.9111 2.8214 -2.5018 0.9785
3.6983 3.0968 -2.5024 0.9785
3.5842 3.2281 -2.5024 0.9785
3.4654 3.3553 -2.5024 0.9785
3.3421 3.4782 -2.5024 0.9785
2.3667 4.2028 -2.5022 0.9785
2.2136 4.2854 -2.5022 0.9785
2.0575 4.3624 -2.5022 0.9785
1.8988 4.4337 -2.5022 0.9785
1.7376 4.4993 -2.5022 0.9785
1.4086 4.6128 -2.5021 0.9785
1.2413 4.6606 -2.5021 0.9785
0.7305 4.7673 -2.5020 0.9785
0.5580 4.7905 -2.5020 0.9785
0.3848 4.8074 -2.5020 0.9785
0.2112 4.8182 -2.5019 0.9785
-0.1368 4.8207 -2.5019 0.9785
2.1864 -4.0036 -2.4985 0.9794
2.4689 -3.8348 -2.4980 0.9794
2.6053 -3.7429 -2.4977 0.9794
2.8680 -3.5447 -2.4973 0.9794
2.9937 -3.4387 -2.4971 0.9794
3.1156 -3.3282 -2.4970 0.9794
3.3471 -3.0945 -2.4966 0.9794
3.4563 -2.9716 -2.4965 0.9794
3.5612 -2.8448 -2.4964 0.9794
3.8473 -2.4432 -2.4961 0.9794
4.0885 -2.0132 -2.4960 0.9794
4.2822 -1.5597 -2.4961 0.9794
4.4259 -1.0880 -2.4962 0.9794
4.4624 -0.9277 -2.4963 0.9794
4.4931 -0.7661 -2.4964 0.9794
4.5181 -0.6036 -2.4965 0.9794
4.5504 -0.2763 -2.4968 0.9794
4.5591 0.0525 -2.4972 0.9794
4.5546 0.2170 -2.4974 0.9794
4.5441 0.3812 -2.4976 0.9794
4.2512 1.6604 -2.4997 0.9794
4.1892 1.8130 -2.5000 0.9794
4.1216 1.9632 -2.5004 0.9794
3.8870 2.3979 -2.5014 0.9794
3.7052 2.6728 -2.5022 0.9794
3.5030 2.9332 -2.5024 0.9794
3.2824 3.1781 -2.5023 0.9794
3.0447 3.4065 -2.5023 0.9794
2.7910 3.6171 -2.5023 0.9794
2.5230 3.8088 -2.5023 0.9794
2.3839 3.8973 -2.5022 0.9794
1.9488 4.1320 -2.5022 0.9794
1.7985 4.1996 -2.5022 0.9794
1.6458 4.2617 -2.5021 0.9794
1.4910 4.3182 -2.5021 0.9794
0.8544 4.4876 -2.5020 0.9794
0.6919 4.5155 -2.5020 0.9794
0.5286 4.5375 -2.5020 0.9794
0.3645 4.5536 -2.5020 0.9794
0.2000 4.5637 -2.5019 0.9794
-0.1296 4.5662 -2.5019 0.9794
2.0745 -3.7988 -2.4990 0.9802
2.5984 -3.4597 -2.4981 0.9802
2.8407 -3.2629 -2.4977 0.9802
3.1760 -2.9363 -2.4972 0.9802
3.4741 -2.5757 -2.4969 0.9802
3.5647 -2.4486 -2.4968 0.9802
3.8081 -2.0490 -2.4967 0.9802
3.9459 -1.7691 -2.4967 0.9802
4.0072 -1.6256 -2.4967 0.9802
4.1596 -1.1832 -2.4968 0.9802
4.1996 -1.0324 -2.4968 0.9802
4.2343 -0.8803 -2.4969 0.9802
4.2635 -0.7270 -2.4970 0.9802
4.2871 -0.5727 -2.4971 0.9802
4.3177 -0.2621 -2.4974 0.9802
4.3217 0.2059 -2.4979 0.9802
4.2963 0.5171 -2.4983 0.9802
4.2486 0.8257 -2.4988 0.9802
3.9747 1.7201 -2.5005 0.9802
3.9105 1.8626 -2.5008 0.9802
3.8413 2.0028 -2.5011 0.9802
3.5151 2.5357 -2.5024 0.9802
3.4213 2.6609 -2.5024 0.9802
3.3231 2.7826 -2.5023 0.9802
3.1138 3.0149 -2.5023 0.9802
2.8882 3.2315 -2.5023 0.9802
2.7698 3.3336 -2.5023 0.9802
2.6477 3.4313 -2.5023 0.9802
1.8488 3.9198 -2.5022 0.9802
1.5613 4.0428 -2.5021 0.9802
1.4144 4.0964 -2.5021 0.9802
1.1154 4.1877 -2.5021 0.9802
0.9635 4.2252 -2.5020 0.9802
0.8105 4.2571 -2.5020 0.9802
0.5014 4.3044 -2.5020 0.9802
0.0334 4.3333 -2.5019 0.9802
