ply
format ascii 1.0
element vertex 988
property float32 x
property float32 y
property float32 z
property float32 I
end_header
-40.6225 -25.1934 8.4285 0.8235
-34.8919 -25.2566 7.5951 0.8395
-35.3118 -27.5344 7.8956 0.8337
-32.9256 -27.6195 7.5778 0.8398
-19.9977 -18.0298 4.7477 0.8964
-15.3727 -14.8888 3.7736 0.9167
-24.9586 -34.7529 7.5444 0.8405
-22.7278 -36.9547 7.6498 0.8384
-19.4631 -37.3884 7.4323 0.8426
-14.4867 -30.4354 5.9435 0.8720
-14.1966 -32.7950 6.3012 0.8649
-13.8435 -39.4989 7.3801 0.8437
-8.1980 -41.6706 7.4885 0.8416
-6.6689 -41.7116 7.4483 0.8423
-0.6568 -41.8726 7.3842 0.8436
0.8396 -41.9126 7.3918 0.8434
6.5618 -39.9285 7.1349 0.8484
7.9840 -39.6719 7.1355 0.8484
6.0085 -19.0362 3.5198 0.9221
13.4773 -37.9247 7.0968 0.8492
15.0395 -37.9661 7.2006 0.8472
17.2717 -35.8839 7.0221 0.8507
18.9010 -35.9270 7.1581 0.8480
22.3177 -33.2280 7.0579 0.8499
24.2044 -33.3958 7.2726 0.8458
24.3109 -31.1391 6.9658 0.8518
26.2258 -29.0527 6.9012 0.8530
35.2326 -27.2273 7.8513 0.8346
38.0711 -27.3067 8.2612 0.8267
40.5179 -26.9240 8.5779 0.8207
-36.8147 -30.8819 7.3613 0.8233
-13.9223 -24.5616 4.3251 0.8920
-14.2975 -36.5560 6.0133 0.8531
8.1728 -40.6099 6.3459 0.8457
8.5212 -30.7865 4.8936 0.8787
7.5538 -19.0689 3.1421 0.9204
23.8053 -38.3323 6.9125 0.8331
26.3420 -36.3450 6.8764 0.8339
28.2444 -36.1773 7.0312 0.8305
30.5436 -36.3667 7.2754 0.8252
35.0686 -27.1005 6.7895 0.8358
-36.9505 -26.7467 5.9400 0.8319
-19.9988 -18.0308 3.5065 0.8971
7.8767 -39.1387 5.1989 0.8513
8.2155 -29.6821 4.0105 0.8832
8.3667 -19.0995 2.7153 0.9193
31.2206 -34.5859 6.0674 0.8287
-37.0479 -31.0776 5.1926 0.8232
-14.5521 -37.2071 4.2901 0.8515
8.3658 -19.0975 2.2388 0.9195
-13.9660 -24.6386 2.3975 0.8925
8.3655 -19.0967 1.7648 0.9197
30.9104 -31.8762 3.7588 0.8367
-20.0005 -18.0323 1.6699 0.8977
-14.8546 -24.1530 1.7583 0.8926
-13.7082 -24.1838 1.7238 0.8946
7.8290 -24.8041 1.6129 0.9010
8.8313 -24.8511 1.6354 0.8997
8.3651 -19.0959 1.2929 0.9198
31.0810 -25.8429 2.5065 0.8504
-20.0010 -18.0328 1.0619 0.8978
-14.8557 -24.1549 1.1182 0.8927
-13.7092 -24.1857 1.0962 0.8947
-14.9214 -42.5736 1.7788 0.8348
7.2054 -43.8445 1.7520 0.8371
8.3648 -19.0952 0.8221 0.9199
-35.9783 -24.1334 0.7318 0.8409
-20.0016 -18.0333 0.4549 0.8979
-14.8569 -24.1569 0.4791 0.8927
8.6957 -43.2083 0.7445 0.8383
8.8096 -24.7898 0.4444 0.9001
8.3645 -19.0944 0.3521 0.9200
30.5116 -25.3695 0.6703 0.8532
-36.4114 -17.4983 -0.2274 0.8508
-33.3038 -17.4952 -0.2118 0.8603
-30.5875 -17.4894 -0.1984 0.8685
-28.1987 -17.4883 -0.1868 0.8757
-26.0773 -17.4920 -0.1768 0.8820
-24.1601 -17.4883 -0.1679 0.8875
-22.4238 -17.4849 -0.1601 0.8925
-20.8474 -17.4877 -0.1532 0.8969
-19.3935 -17.4850 -0.1470 0.9008
-15.7626 -17.6149 -0.1331 0.9098
-15.7752 -18.9493 -0.1388 0.9061
-15.8141 -20.4382 -0.1455 0.9018
-14.8581 -24.1588 -0.1597 0.8927
-13.7114 -24.1895 -0.1565 0.8947
-13.6164 -31.4545 -0.1930 0.8719
-17.9160 -45.8075 -0.2769 0.8214
-14.9236 -42.5797 -0.2540 0.8349
6.7910 -41.3231 -0.2358 0.8458
8.1353 -22.8924 -0.1368 0.9074
9.0783 -22.9174 -0.1388 0.9061
8.3641 -19.0936 -0.1173 0.9200
11.0559 -22.9698 -0.1435 0.9031
12.0989 -22.9974 -0.1463 0.9013
13.1846 -23.0262 -0.1494 0.8993
15.5101 -23.0924 -0.1566 0.8947
16.7626 -23.1280 -0.1608 0.8920
19.4668 -23.1780 -0.1704 0.8860
24.2813 -23.3135 -0.1895 0.8740
26.1394 -23.3622 -0.1974 0.8692
28.1610 -23.4151 -0.2062 0.8637
32.8241 -23.5432 -0.2274 0.8508
-44.2833 -17.5108 -1.3409 0.8265
-40.0306 -17.5068 -1.2303 0.8396
-36.4171 -17.5011 -1.1377 0.8507
-33.3086 -17.4978 -1.0594 0.8602
-30.5929 -17.4925 -0.9923 0.8685
-28.2033 -17.4911 -0.9345 0.8756
-19.3957 -17.4870 -0.7353 0.9008
-18.0527 -17.4845 -0.7077 0.9043
-15.7789 -18.9537 -0.6944 0.9060
-14.8593 -24.1607 -0.7987 0.8927
-14.5032 -30.4701 -0.9502 0.8737
-17.9166 -45.8092 -1.3850 0.8213
-14.9247 -42.5828 -1.2705 0.8348
6.7869 -41.2981 -1.1785 0.8458
6.9849 -34.7076 -0.9969 0.8679
7.1308 -29.8739 -0.8648 0.8844
9.0789 -22.9191 -0.6941 0.9061
11.0567 -22.9715 -0.7179 0.9030
12.0998 -22.9992 -0.7318 0.9012
14.3213 -23.0609 -0.7644 0.8971
16.7644 -23.1304 -0.8044 0.8920
20.9597 -23.2190 -0.8808 0.8823
22.5550 -23.2598 -0.9123 0.8784
28.1633 -23.4170 -1.0313 0.8637
32.8297 -23.5472 -1.1376 0.8507
-43.2998 -8.6868 -2.2397 0.8379
-42.4847 -11.7314 -2.2352 0.8382
-41.4793 -14.7122 -2.2320 0.8384
-38.5873 -15.2585 -2.1044 0.8469
-33.3136 -17.5004 -1.9084 0.8601
-30.5983 -17.4955 -1.7875 0.8683
-28.2080 -17.4940 -1.6833 0.8755
-26.0852 -17.4973 -1.5929 0.8818
-24.1670 -17.4933 -1.5130 0.8874
-22.4299 -17.4896 -1.4425 0.8923
-20.8524 -17.4918 -1.3803 0.8967
-16.8075 -17.4839 -1.2299 0.9074
-15.7653 -17.6180 -1.1990 0.9097
-15.8219 -20.4483 -1.3112 0.9016
-14.8605 -24.1627 -1.4386 0.8926
-13.7135 -24.1933 -1.4103 0.8946
-14.4624 -30.3843 -1.7066 0.8739
-13.7901 -31.8557 -1.7604 0.8702
-14.0787 -40.1691 -2.1586 0.8433
-12.6714 -40.7618 -2.1648 0.8429
-8.8383 -44.9250 -2.3220 0.8325
-7.2516 -45.3563 -2.3294 0.8320
-5.6460 -45.7363 -2.3371 0.8315
-4.0229 -46.0642 -2.3450 0.8309
-0.7304 -46.5601 -2.3615 0.8299
2.6135 -46.8375 -2.3790 0.8287
6.7828 -41.2731 -2.1212 0.8458
7.1268 -29.8573 -1.5567 0.8843
7.2445 -26.1737 -1.3773 0.8969
8.1365 -22.8957 -1.2323 0.9073
9.0796 -22.9207 -1.2503 0.9060
8.3634 -19.0921 -1.0571 0.9199
11.0575 -22.9732 -1.2930 0.9029
15.5133 -23.0971 -1.4110 0.8945
18.0898 -23.1706 -1.4908 0.8889
19.4716 -23.1838 -1.5354 0.8858
22.5581 -23.2629 -1.6433 0.8783
26.1434 -23.3658 -1.7782 0.8690
28.1655 -23.4189 -1.8576 0.8635
30.3853 -23.4814 -1.9475 0.8574
42.0447 -23.7988 -2.4501 0.8241
-30.6840 -7.3044 -2.3127 0.8812
-30.3835 -8.3898 -2.3112 0.8812
-30.0475 -9.4640 -2.3098 0.8813
-29.2710 -11.5746 -2.3079 0.8814
-27.8511 -14.6308 -2.3067 0.8815
-26.6860 -15.2586 -2.2539 0.8840
-24.5446 -16.4639 -2.1670 0.8882
-22.4330 -17.4921 -2.0858 0.8922
-18.0567 -17.4883 -1.8431 0.9041
-16.8093 -17.4858 -1.7784 0.9073
-15.7666 -17.6195 -1.7336 0.9095
-15.8694 -22.0969 -1.9947 0.8966
-15.9221 -23.9297 -2.1075 0.8911
-14.8617 -24.1646 -2.0801 0.8925
-13.7146 -24.1952 -2.0392 0.8945
-13.8610 -26.6269 -2.2010 0.8866
-11.9530 -27.6120 -2.2061 0.8863
-9.0398 -23.1128 -1.8197 0.9053
-8.1109 -23.1417 -1.7980 0.9063
-8.4671 -31.1160 -2.3645 0.8787
-3.7210 -23.2732 -1.7281 0.9098
-3.9861 -32.2896 -2.3855 0.8777
-2.0367 -23.3214 -1.7165 0.9104
-1.6796 -32.6492 -2.3971 0.8771
-0.3666 -23.3679 -1.7136 0.9105
1.3065 -23.4131 -1.7194 0.9102
2.1493 -23.4354 -1.7255 0.9099
2.9993 -23.4576 -1.7340 0.9095
3.8586 -23.4797 -1.7447 0.9090
6.1770 -30.6932 -2.2956 0.8820
7.2419 -26.1642 -1.9905 0.8968
7.3331 -23.2327 -1.7863 0.9069
11.0583 -22.9750 -1.8695 0.9028
12.1017 -23.0027 -1.9058 0.9010
13.1885 -23.0331 -1.9461 0.8990
14.3242 -23.0656 -1.9908 0.8968
15.5149 -23.0996 -2.0403 0.8944
23.7479 -22.8013 -2.4139 0.8763
25.4658 -21.1740 -2.4283 0.8756
26.2824 -20.3106 -2.4355 0.8753
27.8094 -18.4792 -2.4482 0.8747
26.8075 -16.4648 -2.3067 0.8815
29.2060 -16.5315 -2.4607 0.8741
-24.0624 -4.8273 -2.3561 0.9061
-23.8606 -5.6801 -2.3547 0.9061
-23.6303 -6.5251 -2.3535 0.9062
-23.3720 -7.3614 -2.3525 0.9062
-23.0858 -8.1883 -2.3516 0.9063
-22.0640 -10.6034 -2.3502 0.9063
-21.6701 -11.3838 -2.3500 0.9063
-20.8049 -12.9028 -2.3503 0.9063
-20.3345 -13.6399 -2.3507 0.9063
-19.8396 -14.3609 -2.3513 0.9063
-15.3850 -17.1929 -2.2150 0.9115
-14.8064 -17.7855 -2.2217 0.9112
-14.1740 -18.3184 -2.2236 0.9111
-12.8552 -19.3203 -2.2279 0.9110
-10.5523 -22.1696 -2.3572 0.9060
-9.8538 -22.7628 -2.3813 0.9051
-8.0940 -23.0936 -2.3493 0.9063
-7.3954 -23.7898 -2.3918 0.9047
-5.6970 -24.3350 -2.3994 0.9044
-3.7084 -23.1944 -2.2551 0.9099
-1.2956 -25.1844 -2.4210 0.9036
-0.3653 -23.2894 -2.2362 0.9106
0.5070 -25.3114 -2.4305 0.9033
1.3021 -23.3342 -2.2437 0.9104
2.9891 -23.3779 -2.2627 0.9096
6.4435 -23.2797 -2.3190 0.9075
8.1321 -22.8835 -2.3315 0.9070
8.9642 -22.6299 -2.3368 0.9068
10.5840 -21.9895 -2.3429 0.9066
12.1827 -21.2765 -2.3538 0.9062
14.4901 -19.9925 -2.3705 0.9055
18.0120 -17.2940 -2.3973 0.9045
19.2855 -16.0353 -2.4079 0.9041
21.3803 -15.3351 -2.5260 0.8997
22.3884 -14.8771 -2.5807 0.8976
22.9530 -14.0974 -2.5860 0.8974
23.9973 -12.4736 -2.5965 0.8970
24.4751 -11.6315 -2.6016 0.8968
-19.5044 -4.6431 -2.3816 0.9224
-19.1084 -6.0185 -2.3797 0.9225
-18.8757 -6.6950 -2.3790 0.9225
-18.3423 -8.0217 -2.3781 0.9225
-18.0422 -8.6706 -2.3778 0.9225
-17.7203 -9.3089 -2.3777 0.9225
-17.3769 -9.9359 -2.3777 0.9225
-17.0125 -10.5509 -2.3779 0.9225
-15.7966 -12.3172 -2.3794 0.9225
-13.9056 -14.4653 -2.3835 0.9224
-12.8534 -15.4396 -2.3864 0.9223
-11.7358 -16.3412 -2.3898 0.9222
-11.1539 -16.7635 -2.3918 0.9221
-10.5574 -17.1660 -2.3939 0.9220
-9.9470 -17.5483 -2.3961 0.9220
-9.3232 -17.9098 -2.3984 0.9219
-8.6867 -18.2502 -2.4009 0.9218
-6.0278 -19.3910 -2.4121 0.9215
-5.3387 -19.6191 -2.4152 0.9214
-4.6409 -19.8235 -2.4184 0.9213
-3.2233 -20.1604 -2.4252 0.9211
-2.5050 -20.2922 -2.4287 0.9209
-1.7815 -20.3993 -2.4324 0.9208
-1.0536 -20.4813 -2.4361 0.9207
-0.3222 -20.5381 -2.4399 0.9206
1.8852 -20.5556 -2.4520 0.9202
5.8973 -18.6839 -2.3273 0.9241
7.2510 -18.3046 -2.3387 0.9238
9.2252 -17.5352 -2.3536 0.9233
10.4696 -16.8586 -2.3573 0.9232
11.0855 -16.5048 -2.3617 0.9230
12.2807 -15.7300 -2.3705 0.9228
12.8900 -15.3471 -2.3807 0.9224
15.4416 -14.8261 -2.5428 0.9174
15.9898 -14.2909 -2.5474 0.9172
16.5191 -13.7351 -2.5519 0.9171
17.0288 -13.1596 -2.5564 0.9170
18.4320 -11.3207 -2.5694 0.9166
18.8554 -10.6728 -2.5737 0.9164
19.2553 -10.0087 -2.5778 0.9163
-16.6160 -3.3335 -2.4012 0.9338
-16.3233 -4.5074 -2.3994 0.9339
-16.1470 -5.0858 -2.3987 0.9339
-15.9511 -5.6577 -2.3981 0.9339
-14.3776 -8.9167 -2.3971 0.9339
-13.7086 -9.9230 -2.3978 0.9339
-13.3486 -10.4086 -2.3984 0.9339
-11.3093 -12.6383 -2.4030 0.9338
-10.8567 -13.0412 -2.4043 0.9337
-9.4179 -14.1544 -2.4089 0.9336
-8.9131 -14.4923 -2.4107 0.9336
-8.3965 -14.8129 -2.4126 0.9335
-7.8687 -15.1158 -2.4146 0.9335
-7.3304 -15.4005 -2.4167 0.9334
-6.2241 -15.9143 -2.4212 0.9333
-5.0834 -16.3513 -2.4262 0.9332
-4.5006 -16.5403 -2.4288 0.9331
-3.9118 -16.7092 -2.4315 0.9330
-3.3171 -16.8577 -2.4343 0.9329
-2.7156 -16.9857 -2.4373 0.9329
-2.1101 -17.0928 -2.4403 0.9328
-1.5003 -17.1789 -2.4433 0.9327
-0.2712 -17.2874 -2.4497 0.9325
2.2050 -17.2455 -2.4634 0.9322
2.8235 -17.1806 -2.4670 0.9321
3.4402 -17.0939 -2.4706 0.9320
4.0544 -16.9854 -2.4743 0.9319
4.6653 -16.8552 -2.4780 0.9318
5.8741 -16.5295 -2.4855 0.9316
6.4705 -16.3344 -2.4894 0.9315
7.6435 -15.8802 -2.4971 0.9313
10.4237 -14.3820 -2.5167 0.9308
11.9573 -13.2462 -2.5284 0.9304
12.4416 -12.8303 -2.5323 0.9303
13.3657 -11.9456 -2.5399 0.9301
13.8042 -11.4778 -2.5437 0.9300
14.6306 -10.4938 -2.5511 0.9298
15.3854 -9.4495 -2.5583 0.9297
15.7345 -8.9062 -2.5618 0.9296
-14.2548 -3.3934 -2.4140 0.9423
-14.1202 -3.8990 -2.4132 0.9423
-13.9683 -4.3996 -2.4126 0.9424
-13.1918 -6.3396 -2.4111 0.9424
-12.9566 -6.8064 -2.4111 0.9424
-11.5477 -9.0043 -2.4123 0.9424
-11.2216 -9.4132 -2.4129 0.9424
-10.8815 -9.8107 -2.4136 0.9423
-10.1608 -10.5698 -2.4153 0.9423
-9.7810 -10.9304 -2.4164 0.9423
-9.3889 -11.2779 -2.4175 0.9422
-8.9848 -11.6119 -2.4187 0.9422
-8.5692 -11.9319 -2.4200 0.9422
-8.1425 -12.2376 -2.4215 0.9422
-7.7053 -12.5284 -2.4230 0.9421
-6.8009 -13.0646 -2.4264 0.9420
-6.3349 -13.3091 -2.4282 0.9420
-5.8603 -13.5375 -2.4302 0.9420
-5.3776 -13.7495 -2.4322 0.9419
-4.8875 -13.9449 -2.4343 0.9419
-2.3442 -14.6620 -2.4461 0.9416
-1.8211 -14.7520 -2.4487 0.9415
-0.2339 -14.9120 -2.4569 0.9413
0.2990 -14.9282 -2.4598 0.9413
1.9006 -14.8645 -2.4687 0.9411
2.4332 -14.8056 -2.4718 0.9410
4.5396 -14.3822 -2.4845 0.9407
5.0568 -14.2297 -2.4878 0.9406
5.5691 -14.0587 -2.4911 0.9405
6.0756 -13.8694 -2.4944 0.9405
7.0695 -13.4377 -2.5014 0.9403
7.5546 -13.1937 -2.5046 0.9402
8.0313 -12.9324 -2.5079 0.9402
8.4994 -12.6544 -2.5112 0.9401
8.9578 -12.3594 -2.5146 0.9400
9.4059 -12.0477 -2.5180 0.9399
10.6826 -11.0164 -2.5280 0.9397
12.2044 -9.4314 -2.5409 0.9394
12.8779 -8.5573 -2.5472 0.9392
13.7675 -7.1562 -2.5561 0.9390
-11.9849 -4.7392 -2.4224 0.9489
-11.6140 -5.5814 -2.4220 0.9489
-10.7025 -7.1790 -2.4223 0.9489
-10.1660 -7.9269 -2.4230 0.9489
-9.5788 -8.6362 -2.4242 0.9489
-9.2671 -8.9754 -2.4249 0.9488
-8.2633 -9.9260 -2.4276 0.9488
-7.1650 -10.7684 -2.4311 0.9487
-6.7797 -11.0235 -2.4325 0.9487
-6.3855 -11.2652 -2.4339 0.9487
-5.5725 -11.7074 -2.4371 0.9486
-5.1545 -11.9072 -2.4388 0.9486
-2.5167 -12.7927 -2.4506 0.9483
-2.0602 -12.8861 -2.4528 0.9483
-1.6003 -12.9635 -2.4551 0.9482
-0.2055 -13.0988 -2.4624 0.9481
0.2626 -13.1111 -2.4649 0.9480
2.1357 -12.9957 -2.4755 0.9478
2.6013 -12.9255 -2.4782 0.9478
3.0646 -12.8388 -2.4810 0.9477
3.9821 -12.6162 -2.4867 0.9476
4.4352 -12.4803 -2.4895 0.9475
4.8846 -12.3308 -2.4929 0.9474
5.3287 -12.1643 -2.4962 0.9474
6.1972 -11.7795 -2.5018 0.9473
6.6213 -11.5639 -2.5046 0.9472
7.4466 -11.0870 -2.5103 0.9471
8.6188 -10.2620 -2.5189 0.9469
8.9901 -9.9592 -2.5218 0.9469
9.7001 -9.3134 -2.5276 0.9467
10.0378 -8.9712 -2.5304 0.9467
10.9756 -7.8723 -2.5388 0.9465
11.5338 -7.0838 -2.5441 0.9464
12.0343 -6.2553 -2.5493 0.9463
-11.2874 -2.2645 -2.4335 0.9540
-10.3639 -4.9807 -2.4306 0.9541
-9.3167 -6.7438 -2.4311 0.9541
-9.0713 -7.0733 -2.4315 0.9541
-8.8146 -7.3941 -2.4320 0.9541
-8.2685 -8.0083 -2.4332 0.9540
-5.6952 -10.0473 -2.4413 0.9539
-4.9694 -10.4402 -2.4441 0.9538
-4.5963 -10.6176 -2.4456 0.9538
-4.2170 -10.7820 -2.4472 0.9538
-3.4415 -11.0707 -2.4506 0.9537
-2.6466 -11.3050 -2.4543 0.9536
-1.4260 -11.5511 -2.4602 0.9535
-1.0135 -11.6046 -2.4623 0.9535
-0.5990 -11.6435 -2.4645 0.9535
-0.1830 -11.6679 -2.4667 0.9534
0.2339 -11.6777 -2.4689 0.9534
0.6513 -11.6727 -2.4712 0.9533
1.0687 -11.6530 -2.4736 0.9533
1.4855 -11.6186 -2.4759 0.9532
1.9013 -11.5694 -2.4783 0.9532
4.3464 -10.9721 -2.4946 0.9529
4.7401 -10.8207 -2.4971 0.9529
5.1286 -10.6552 -2.4996 0.9528
5.8878 -10.2828 -2.5047 0.9527
6.2575 -10.0761 -2.5072 0.9527
6.6200 -9.8562 -2.5097 0.9526
6.9747 -9.6232 -2.5123 0.9526
7.6591 -9.1192 -2.5173 0.9525
9.2023 -7.6514 -2.5297 0.9522
9.4788 -7.3251 -2.5322 0.9522
10.2367 -6.2871 -2.5394 0.9521
-10.0980 -2.4038 -2.4396 0.9582
-10.0035 -2.7623 -2.4390 0.9583
-9.8967 -3.1171 -2.4386 0.9583
-9.7775 -3.4680 -2.4382 0.9583
-9.6463 -3.8144 -2.4379 0.9583
-9.1815 -4.8233 -2.4375 0.9583
-9.0035 -5.1481 -2.4375 0.9583
-8.8144 -5.4665 -2.4376 0.9583
-8.6142 -5.7782 -2.4378 0.9583
-8.4033 -6.0827 -2.4381 0.9583
-8.1819 -6.3798 -2.4384 0.9583
-7.7086 -6.9500 -2.4393 0.9582
-7.4573 -7.2226 -2.4399 0.9582
-7.1966 -7.4862 -2.4406 0.9582
-6.9268 -7.7407 -2.4413 0.9582
-6.6481 -7.9858 -2.4421 0.9582
-5.7628 -8.6611 -2.4450 0.9582
-5.1348 -9.0587 -2.4472 0.9581
-4.8105 -9.2409 -2.4485 0.9581
-3.1017 -9.9776 -2.4557 0.9580
-2.7453 -10.0887 -2.4573 0.9579
-2.3849 -10.1872 -2.4590 0.9579
-1.2847 -10.4065 -2.4643 0.9578
-0.1648 -10.5090 -2.4702 0.9577
0.2107 -10.5168 -2.4722 0.9577
1.3375 -10.4607 -2.4785 0.9576
1.7117 -10.4154 -2.4807 0.9576
2.8232 -10.2001 -2.4874 0.9574
3.1905 -10.1083 -2.4912 0.9574
4.2646 -9.7352 -2.4979 0.9573
4.6136 -9.5853 -2.5001 0.9572
5.9528 -8.8630 -2.5092 0.9571
6.2712 -8.6526 -2.5115 0.9570
7.4659 -7.6992 -2.5205 0.9569
8.0104 -7.1593 -2.5250 0.9568
8.2681 -6.8746 -2.5271 0.9568
9.3965 -5.3187 -2.5376 0.9566
-9.2615 -1.8580 -2.4457 0.9617
-9.1872 -2.1870 -2.4452 0.9617
-8.8961 -3.1553 -2.4439 0.9617
-8.6465 -3.7814 -2.4435 0.9618
-8.5056 -4.0876 -2.4434 0.9618
-8.3540 -4.3886 -2.4433 0.9618
-8.1921 -4.6841 -2.4433 0.9618
-8.0199 -4.9738 -2.4434 0.9618
-7.4442 -5.8046 -2.4441 0.9617
-7.2333 -6.0677 -2.4445 0.9617
-7.0134 -6.3232 -2.4450 0.9617
-6.7846 -6.5710 -2.4455 0.9617
-6.5472 -6.8108 -2.4461 0.9617
-6.3016 -7.0421 -2.4468 0.9617
-5.7866 -7.4786 -2.4483 0.9617
-5.5178 -7.6831 -2.4492 0.9617
-5.2420 -7.8783 -2.4501 0.9617
-4.3751 -8.4046 -2.4533 0.9616
-3.7679 -8.7041 -2.4557 0.9616
-3.4566 -8.8378 -2.4571 0.9615
-2.1682 -9.2617 -2.4629 0.9615
-1.8374 -9.3392 -2.4644 0.9614
-1.1677 -9.4592 -2.4677 0.9614
-0.8298 -9.5015 -2.4695 0.9614
0.8743 -9.5333 -2.4787 0.9612
1.5549 -9.4615 -2.4826 0.9612
1.8933 -9.4076 -2.4846 0.9611
2.8975 -9.1800 -2.4925 0.9610
3.2261 -9.0780 -2.4945 0.9610
3.5510 -8.9643 -2.4965 0.9609
3.8720 -8.8390 -2.4985 0.9609
4.1886 -8.7022 -2.5006 0.9609
4.5003 -8.5542 -2.5026 0.9608
4.8068 -8.3949 -2.5047 0.9608
5.1077 -8.2247 -2.5068 0.9608
5.4026 -8.0437 -2.5088 0.9608
5.6910 -7.8521 -2.5109 0.9607
6.7730 -6.9846 -2.5191 0.9606
7.2658 -6.4938 -2.5231 0.9605
7.4989 -6.2351 -2.5251 0.9605
7.7227 -5.9680 -2.5270 0.9605
7.9369 -5.6928 -2.5290 0.9604
8.5190 -4.8220 -2.5346 0.9604
8.6919 -4.5180 -2.5364 0.9603
8.8539 -4.2077 -2.5381 0.9603
-8.4868 -1.7026 -2.4504 0.9647
-8.4189 -2.0042 -2.4499 0.9647
-8.3404 -2.3030 -2.4495 0.9647
-8.0432 -3.1805 -2.4485 0.9647
-7.7948 -3.7459 -2.4482 0.9647
-7.6559 -4.0218 -2.4482 0.9647
-7.5075 -4.2927 -2.4482 0.9647
-7.3497 -4.5582 -2.4483 0.9647
-7.1827 -4.8179 -2.4484 0.9647
-6.8219 -5.3194 -2.4490 0.9647
-6.6286 -5.5604 -2.4493 0.9647
-6.4269 -5.7945 -2.4497 0.9647
-6.2172 -6.0215 -2.4502 0.9647
-5.9995 -6.2410 -2.4507 0.9647
-5.7743 -6.4529 -2.4514 0.9646
-5.5417 -6.6567 -2.4520 0.9646
-5.0557 -7.0397 -2.4536 0.9646
-4.5437 -7.3879 -2.4554 0.9646
-4.2787 -7.5484 -2.4563 0.9646
-4.0082 -7.6996 -2.4574 0.9646
-3.1662 -8.0954 -2.4608 0.9645
-2.2860 -8.4010 -2.4647 0.9645
-1.0692 -8.6615 -2.4706 0.9644
-0.7598 -8.6997 -2.4722 0.9643
-0.4490 -8.7270 -2.4738 0.9643
0.1752 -8.7486 -2.4772 0.9643
0.4879 -8.7429 -2.4789 0.9643
1.1121 -8.6982 -2.4824 0.9642
1.4231 -8.6592 -2.4843 0.9642
2.3479 -8.4828 -2.4917 0.9641
2.6512 -8.3996 -2.4935 0.9640
2.9516 -8.3057 -2.4953 0.9640
3.2487 -8.2011 -2.4972 0.9640
3.5421 -8.0859 -2.4991 0.9640
3.8314 -7.9603 -2.5009 0.9639
4.1163 -7.8242 -2.5028 0.9639
4.6712 -7.5218 -2.5066 0.9639
4.9405 -7.3558 -2.5085 0.9638
5.2040 -7.1801 -2.5104 0.9638
5.4611 -6.9950 -2.5123 0.9638
5.7117 -6.8006 -2.5141 0.9638
6.6411 -5.9355 -2.5215 0.9636
6.8538 -5.6987 -2.5233 0.9636
7.2532 -5.2024 -2.5269 0.9636
7.4394 -4.9434 -2.5286 0.9635
8.0886 -3.8440 -2.5352 0.9635
-7.7615 -1.8476 -2.4540 0.9672
-7.6075 -2.3961 -2.4532 0.9672
-7.5162 -2.6659 -2.4529 0.9672
-7.0585 -3.7080 -2.4524 0.9672
-6.9216 -3.9577 -2.4524 0.9672
-6.4598 -4.6759 -2.4528 0.9672
-6.2894 -4.9042 -2.4531 0.9672
-5.9251 -5.3421 -2.4538 0.9672
-5.7316 -5.5512 -2.4542 0.9672
-5.3232 -5.9487 -2.4553 0.9671
-4.6604 -6.4892 -2.4573 0.9671
-2.1065 -7.7413 -2.4676 0.9670
-1.5503 -7.8803 -2.4703 0.9669
-1.2687 -7.9351 -2.4717 0.9669
-0.4136 -8.0394 -2.4760 0.9669
-0.1263 -8.0540 -2.4776 0.9669
0.7371 -8.0368 -2.4823 0.9668
1.0242 -8.0107 -2.4840 0.9668
2.1619 -7.8107 -2.4927 0.9667
2.4410 -7.7337 -2.4944 0.9666
2.9908 -7.5501 -2.4978 0.9666
3.2607 -7.4436 -2.4995 0.9666
3.5269 -7.3274 -2.5012 0.9665
4.2992 -6.9227 -2.5064 0.9665
5.0252 -6.4366 -2.5117 0.9664
5.4792 -6.0699 -2.5151 0.9664
6.1092 -5.4601 -2.5202 0.9663
6.4918 -5.0168 -2.5235 0.9662
6.8420 -4.5465 -2.5267 0.9662
7.0043 -4.3019 -2.5283 0.9662
-7.1921 -1.7121 -2.4575 0.9693
-6.8717 -2.7172 -2.4563 0.9693
-6.6596 -3.2004 -2.4560 0.9693
-6.5409 -3.4361 -2.4560 0.9693
-6.2793 -3.8943 -2.4561 0.9693
-6.1365 -4.1163 -2.4562 0.9693
-5.8282 -4.5445 -2.4567 0.9693
-5.6629 -4.7503 -2.4570 0.9693
-5.3111 -5.1439 -2.4577 0.9693
-5.1250 -5.3313 -2.4582 0.9693
-4.9324 -5.5121 -2.4587 0.9693
-4.3180 -6.0125 -2.4606 0.9693
-3.1868 -6.6953 -2.4648 0.9692
-2.7031 -6.9113 -2.4668 0.9692
-1.9512 -7.1704 -2.4702 0.9692
-1.6947 -7.2391 -2.4714 0.9691
-1.1750 -7.3490 -2.4739 0.9691
-0.6482 -7.4222 -2.4765 0.9691
-0.3830 -7.4447 -2.4779 0.9691
1.2143 -7.3890 -2.4891 0.9689
1.4783 -7.3454 -2.4906 0.9689
1.7406 -7.2923 -2.4921 0.9689
2.0012 -7.2300 -2.4936 0.9689
2.5151 -7.0775 -2.4967 0.9688
2.7680 -6.9877 -2.4983 0.9688
3.0177 -6.8887 -2.4999 0.9688
3.2638 -6.7809 -2.5015 0.9688
4.2067 -6.2632 -2.5079 0.9687
5.0684 -5.6148 -2.5143 0.9686
5.2690 -5.4337 -2.5159 0.9686
5.6503 -5.0500 -2.5190 0.9686
6.1691 -4.4248 -2.5236 0.9685
6.3268 -4.2041 -2.5251 0.9685
6.8763 -3.2679 -2.5307 0.9684
-6.7473 -1.3537 -2.4610 0.9712
-6.6314 -1.8311 -2.4602 0.9712
-6.5610 -2.0665 -2.4599 0.9712
-6.1983 -2.9787 -2.4592 0.9712
-6.0878 -3.1981 -2.4592 0.9712
-5.7114 -3.8311 -2.4594 0.9712
-5.5714 -4.0329 -2.4596 0.9712
-5.4243 -4.2296 -2.4598 0.9712
-4.9429 -4.7874 -2.4608 0.9712
-4.7697 -4.9617 -2.4612 0.9712
-4.5904 -5.1298 -2.4617 0.9712
-4.4053 -5.2917 -2.4622 0.9712
-4.2145 -5.4469 -2.4628 0.9712
-3.6109 -5.8712 -2.4649 0.9711
-2.7420 -6.3342 -2.4683 0.9711
-2.0514 -6.5991 -2.4713 0.9711
-1.5767 -6.7347 -2.4735 0.9710
-0.8486 -6.8746 -2.4771 0.9710
-0.3562 -6.9247 -2.4796 0.9710
-0.1088 -6.9367 -2.4809 0.9710
0.3870 -6.9359 -2.4842 0.9709
0.6353 -6.9268 -2.4875 0.9709
1.1292 -6.8713 -2.4902 0.9709
1.3746 -6.8304 -2.4916 0.9708
1.6186 -6.7808 -2.4930 0.9708
2.8054 -6.4041 -2.5003 0.9707
3.0341 -6.3036 -2.5017 0.9707
3.2592 -6.1950 -2.5032 0.9707
3.6974 -5.9537 -2.5062 0.9707
4.3205 -5.5340 -2.5107 0.9706
4.5180 -5.3794 -2.5122 0.9706
4.7100 -5.2177 -2.5137 0.9706
4.8962 -5.0491 -2.5151 0.9706
5.0763 -4.8739 -2.5166 0.9705
5.2500 -4.6922 -2.5180 0.9705
5.4173 -4.5043 -2.5194 0.9705
5.5778 -4.3104 -2.5209 0.9705
5.7313 -4.1108 -2.5222 0.9705
5.8776 -3.9057 -2.5236 0.9705
6.0165 -3.6953 -2.5250 0.9705
6.1479 -3.4799 -2.5263 0.9704
6.2714 -3.2598 -2.5276 0.9704
-6.3033 -1.2646 -2.4637 0.9728
-6.0560 -2.1480 -2.4624 0.9729
-5.9750 -2.3627 -2.4622 0.9729
-5.6875 -2.9877 -2.4620 0.9729
-5.3358 -3.5791 -2.4622 0.9729
-5.2049 -3.7676 -2.4623 0.9729
-5.0675 -3.9514 -2.4625 0.9728
-4.9237 -4.1303 -2.4628 0.9728
-4.7737 -4.3039 -2.4631 0.9728
-4.6176 -4.4723 -2.4635 0.9728
-4.4558 -4.6351 -2.4639 0.9728
-4.2882 -4.7921 -2.4643 0.9728
-3.9370 -5.0881 -2.4654 0.9728
-3.7537 -5.2267 -2.4660 0.9728
-3.3729 -5.4842 -2.4673 0.9728
-3.1759 -5.6028 -2.4681 0.9728
-2.9747 -5.7145 -2.4688 0.9728
-2.5611 -5.9162 -2.4705 0.9728
-1.9159 -6.1631 -2.4733 0.9727
-1.6953 -6.2302 -2.4743 0.9727
-0.5630 -6.4466 -2.4799 0.9727
0.1299 -6.4846 -2.4855 0.9726
0.5931 -6.4669 -2.4886 0.9726
1.2832 -6.3762 -2.4925 0.9725
1.5109 -6.3296 -2.4938 0.9725
1.7368 -6.2750 -2.4951 0.9725
2.1826 -6.1417 -2.4978 0.9725
3.2478 -5.6721 -2.5047 0.9724
3.4501 -5.5555 -2.5061 0.9724
3.8421 -5.3011 -2.5089 0.9723
4.2153 -5.0189 -2.5117 0.9723
4.7355 -4.5467 -2.5158 0.9723
4.8975 -4.3771 -2.5171 0.9723
5.0533 -4.2017 -2.5185 0.9722
5.6114 -3.4464 -2.5236 0.9722
5.7337 -3.2455 -2.5248 0.9722
5.9564 -2.8307 -2.5272 0.9721
-5.9077 -1.1852 -2.4660 0.9743
-5.8065 -1.6034 -2.4654 0.9743
-5.7449 -1.8095 -2.4651 0.9743
-5.1175 -3.1737 -2.4645 0.9743
-4.8784 -3.5313 -2.4648 0.9743
-4.6148 -3.8711 -2.4653 0.9743
-4.1761 -4.3442 -2.4663 0.9743
-4.0190 -4.4913 -2.4667 0.9743
-3.6897 -4.7686 -2.4677 0.9743
-3.5179 -4.8984 -2.4682 0.9743
-3.3416 -5.0221 -2.4688 0.9743
-2.9762 -5.2506 -2.4702 0.9743
-2.3999 -5.5439 -2.4725 0.9742
-1.9995 -5.7050 -2.4742 0.9742
-1.5885 -5.8376 -2.4760 0.9742
-1.3796 -5.8929 -2.4770 0.9742
-1.1688 -5.9408 -2.4780 0.9742
-0.9563 -5.9812 -2.4791 0.9742
-0.7424 -6.0142 -2.4802 0.9741
-0.0953 -6.0739 -2.4862 0.9741
0.1217 -6.0762 -2.4873 0.9741
0.3388 -6.0708 -2.4885 0.9741
1.4151 -5.9283 -2.4945 0.9740
1.6267 -5.8770 -2.4957 0.9740
2.0440 -5.7517 -2.4983 0.9740
3.2304 -5.2017 -2.5060 0.9739
3.4158 -5.0857 -2.5074 0.9739
3.5971 -4.9630 -2.5087 0.9739
3.7740 -4.8339 -2.5100 0.9738
3.9462 -4.6985 -2.5113 0.9738
4.1136 -4.5570 -2.5125 0.9738
4.4328 -4.2561 -2.5151 0.9738
4.7299 -3.9328 -2.5176 0.9738
4.8697 -3.7632 -2.5188 0.9738
5.0034 -3.5887 -2.5200 0.9737
5.1308 -3.4094 -2.5212 0.9737
5.3659 -3.0373 -2.5236 0.9737
5.5740 -2.6490 -2.5258 0.9737
-5.5527 -1.1140 -2.4682 0.9756
-5.5087 -1.3114 -2.4679 0.9756
-5.4577 -1.5070 -2.4676 0.9756
-5.3352 -1.8924 -2.4671 0.9756
-5.1860 -2.2680 -2.4668 0.9756
-5.0107 -2.6322 -2.4667 0.9756
-4.8102 -2.9832 -2.4668 0.9756
-4.7008 -3.1532 -2.4669 0.9756
-4.5855 -3.3192 -2.4670 0.9756
-4.3376 -3.6386 -2.4675 0.9756
-4.2054 -3.7916 -2.4677 0.9756
-3.7775 -4.2214 -2.4688 0.9756
-3.6250 -4.3544 -2.4693 0.9756
-3.4679 -4.4819 -2.4697 0.9756
-3.3064 -4.6038 -2.4703 0.9756
-3.1406 -4.7201 -2.4708 0.9756
-2.9708 -4.8304 -2.4714 0.9756
-2.0686 -5.2889 -2.4750 0.9755
-1.8790 -5.3612 -2.4759 0.9755
-1.0982 -5.5822 -2.4795 0.9755
-0.8984 -5.6203 -2.4805 0.9755
-0.4960 -5.6803 -2.4850 0.9754
-0.0895 -5.7066 -2.4873 0.9754
0.1144 -5.7086 -2.4884 0.9754
0.9276 -5.6441 -2.4928 0.9754
1.1290 -5.6100 -2.4939 0.9753
1.5279 -5.5203 -2.4963 0.9753
1.9198 -5.4023 -2.4987 0.9753
2.1125 -5.3329 -2.4999 0.9753
2.3027 -5.2566 -2.5011 0.9753
2.4901 -5.1735 -2.5023 0.9753
2.6746 -5.0838 -2.5035 0.9752
2.8558 -4.9875 -2.5047 0.9752
3.2076 -4.7757 -2.5072 0.9752
3.3777 -4.6604 -2.5084 0.9752
3.5437 -4.5390 -2.5096 0.9752
3.8623 -4.2786 -2.5121 0.9752
4.0145 -4.1400 -2.5133 0.9752
4.3038 -3.8466 -2.5156 0.9751
4.4405 -3.6921 -2.5168 0.9751
4.5716 -3.5328 -2.5180 0.9751
4.6969 -3.3689 -2.5191 0.9751
4.8164 -3.2005 -2.5202 0.9751
4.9297 -3.0278 -2.5213 0.9751
5.0369 -2.8510 -2.5224 0.9751
5.1376 -2.6705 -2.5235 0.9751
5.2318 -2.4864 -2.5245 0.9750
-5.2321 -1.0497 -2.4701 0.9768
-5.1427 -1.4200 -2.4695 0.9768
-5.0882 -1.6026 -2.4693 0.9768
-5.0273 -1.7831 -2.4691 0.9768
-4.9601 -1.9614 -2.4690 0.9768
-4.7215 -2.4803 -2.4687 0.9768
-4.6300 -2.6473 -2.4688 0.9768
-4.5326 -2.8111 -2.4688 0.9768
-4.4295 -2.9712 -2.4689 0.9768
-4.2067 -3.2802 -2.4692 0.9768
-4.0873 -3.4286 -2.4694 0.9768
-3.6985 -3.8474 -2.4703 0.9768
-3.5593 -3.9776 -2.4707 0.9767
-3.2676 -4.2230 -2.4716 0.9767
-2.9591 -4.4473 -2.4726 0.9767
-2.7991 -4.5512 -2.4732 0.9767
-2.6354 -4.6493 -2.4738 0.9767
-2.1249 -4.9085 -2.4758 0.9767
-1.7702 -5.0508 -2.4774 0.9767
-0.8472 -5.2985 -2.4838 0.9766
-0.6579 -5.3292 -2.4855 0.9766
-0.4673 -5.3512 -2.4865 0.9766
-0.2761 -5.3666 -2.4874 0.9766
0.1077 -5.3768 -2.4894 0.9766
0.2998 -5.3717 -2.4904 0.9766
0.6829 -5.3411 -2.4924 0.9765
0.8736 -5.3156 -2.4935 0.9765
1.0633 -5.2833 -2.4946 0.9765
1.8078 -5.0871 -2.4990 0.9765
1.9892 -5.0216 -2.5002 0.9765
2.1682 -4.9496 -2.5013 0.9765
3.1799 -4.3875 -2.5082 0.9764
3.4881 -4.1531 -2.5105 0.9764
3.6358 -4.0277 -2.5116 0.9764
4.0511 -3.6207 -2.5150 0.9763
4.1796 -3.4752 -2.5161 0.9763
4.3029 -3.3252 -2.5172 0.9763
4.4208 -3.1708 -2.5183 0.9763
4.5331 -3.0122 -2.5193 0.9763
4.8351 -2.5133 -2.5224 0.9763
-4.8050 -1.5134 -2.4711 0.9778
-4.7475 -1.6839 -2.4709 0.9778
-4.6148 -2.0182 -2.4707 0.9778
-4.3724 -2.5000 -2.4706 0.9778
-4.0804 -2.9536 -2.4709 0.9778
-3.9726 -3.0976 -2.4710 0.9778
-3.6196 -3.5057 -2.4718 0.9778
-3.3612 -3.7561 -2.4724 0.9778
-3.2254 -3.8744 -2.4728 0.9778
-2.9418 -4.0962 -2.4737 0.9778
-2.7942 -4.1995 -2.4742 0.9778
-2.6430 -4.2975 -2.4748 0.9778
-2.3307 -4.4773 -2.4760 0.9778
-2.1699 -4.5588 -2.4766 0.9778
-0.4412 -5.0519 -2.4875 0.9777
0.1017 -5.0756 -2.4902 0.9776
0.4640 -5.0594 -2.4921 0.9776
0.8245 -5.0174 -2.4941 0.9776
1.0036 -4.9867 -2.4952 0.9776
1.5330 -4.8569 -2.4983 0.9776
1.7062 -4.8011 -2.4993 0.9776
1.8773 -4.7392 -2.5004 0.9775
2.0462 -4.6711 -2.5015 0.9775
2.2127 -4.5971 -2.5026 0.9775
2.5373 -4.4313 -2.5048 0.9775
2.6951 -4.3397 -2.5058 0.9775
3.0005 -4.1400 -2.5080 0.9775
3.1478 -4.0319 -2.5091 0.9775
3.2912 -3.9186 -2.5102 0.9775
3.4305 -3.8002 -2.5113 0.9774
3.5655 -3.6769 -2.5123 0.9774
3.8220 -3.4159 -2.5144 0.9774
3.9432 -3.2786 -2.5155 0.9774
4.4716 -2.5311 -2.5204 0.9774
-4.6759 -0.9380 -2.4741 0.9787
-4.5950 -1.2687 -2.4730 0.9787
-4.5463 -1.4319 -2.4728 0.9788
-4.4920 -1.5932 -2.4726 0.9788
-4.4320 -1.7525 -2.4725 0.9788
-4.3664 -1.9096 -2.4724 0.9788
-4.2953 -2.0642 -2.4723 0.9788
-4.2188 -2.2162 -2.4723 0.9788
-4.1370 -2.3655 -2.4723 0.9788
-4.0500 -2.5118 -2.4723 0.9788
-3.8608 -2.7946 -2.4725 0.9788
-3.7587 -2.9309 -2.4727 0.9788
-3.5406 -3.1922 -2.4731 0.9787
-3.4247 -3.3170 -2.4734 0.9787
-3.1801 -3.5538 -2.4740 0.9787
-3.0516 -3.6657 -2.4744 0.9787
-2.6436 -3.9731 -2.4757 0.9787
-2.3544 -4.1533 -2.4768 0.9787
-2.0529 -4.3129 -2.4780 0.9787
-1.7410 -4.4515 -2.4797 0.9787
-1.5821 -4.5129 -2.4810 0.9787
-1.0920 -4.6645 -2.4853 0.9786
-0.9250 -4.7019 -2.4860 0.9786
-0.7568 -4.7334 -2.4868 0.9786
-0.5875 -4.7590 -2.4876 0.9786
-0.4173 -4.7785 -2.4884 0.9786
-0.0753 -4.7994 -2.4901 0.9786
0.2676 -4.7959 -2.4919 0.9786
0.4388 -4.7851 -2.4928 0.9786
0.6097 -4.7682 -2.4938 0.9786
0.7798 -4.7452 -2.4947 0.9786
1.1173 -4.6811 -2.4967 0.9785
1.6135 -4.5402 -2.4996 0.9785
1.9349 -4.4170 -2.5017 0.9785
2.2471 -4.2712 -2.5037 0.9785
2.6942 -4.0113 -2.5068 0.9785
2.9761 -3.8119 -2.5089 0.9784
3.1116 -3.7048 -2.5099 0.9784
3.3707 -3.4760 -2.5119 0.9784
3.4941 -3.3548 -2.5129 0.9784
3.6131 -3.2292 -2.5139 0.9784
4.3896 -2.0861 -2.5213 0.9783
-4.3989 -1.0472 -2.4766 0.9796
-4.3099 -1.3575 -2.4749 0.9796
-3.9985 -2.1005 -2.4738 0.9796
-3.9211 -2.2419 -2.4738 0.9796
-3.7513 -2.5160 -2.4739 0.9796
-3.6591 -2.6486 -2.4741 0.9796
-3.5624 -2.7778 -2.4742 0.9796
-3.4612 -2.9035 -2.4744 0.9796
-3.3557 -3.0254 -2.4746 0.9796
-2.8923 -3.4740 -2.4758 0.9796
-2.7667 -3.5757 -2.4762 0.9796
-2.6377 -3.6729 -2.4766 0.9796
-2.3695 -3.8535 -2.4776 0.9796
-2.0901 -4.0150 -2.4792 0.9796
-1.9461 -4.0887 -2.4801 0.9796
-1.8002 -4.1584 -2.4818 0.9795
-1.6517 -4.2231 -2.4837 0.9795
-1.5003 -4.2805 -2.4843 0.9795
-1.3468 -4.3325 -2.4849 0.9795
-1.1916 -4.3790 -2.4856 0.9795
-1.0348 -4.4200 -2.4863 0.9795
-0.8765 -4.4554 -2.4870 0.9795
-0.7171 -4.4851 -2.4877 0.9795
-0.0713 -4.5473 -2.4909 0.9795
0.0911 -4.5485 -2.4917 0.9795
0.2535 -4.5439 -2.4926 0.9795
0.5776 -4.5174 -2.4943 0.9794
1.0585 -4.4346 -2.4971 0.9794
1.5284 -4.3008 -2.4999 0.9794
2.5518 -3.7994 -2.5067 0.9793
2.6869 -3.7072 -2.5077 0.9793
2.8187 -3.6103 -2.5087 0.9793
2.9469 -3.5087 -2.5096 0.9793
3.0715 -3.4026 -2.5106 0.9793
3.3090 -3.1771 -2.5125 0.9793
3.4216 -3.0580 -2.5134 0.9793
3.5299 -2.9350 -2.5144 0.9793
3.7331 -2.6776 -2.5162 0.9793
3.9174 -2.4060 -2.5179 0.9793
4.0819 -2.1217 -2.5196 0.9792
-4.2124 -0.8451 -2.4805 0.9804
-4.1405 -1.1433 -2.4800 0.9804
-3.9296 -1.7185 -2.4762 0.9804
-3.7962 -1.9942 -2.4757 0.9804
-3.6438 -2.2598 -2.4755 0.9804
-3.5607 -2.3885 -2.4755 0.9804
-3.4732 -2.5141 -2.4755 0.9804
-3.1848 -2.8721 -2.4760 0.9804
-3.0809 -2.9839 -2.4762 0.9804
-2.8609 -3.1972 -2.4770 0.9804
-2.5042 -3.4869 -2.4786 0.9804
-2.3787 -3.5750 -2.4792 0.9804
-2.2507 -3.6594 -2.4804 0.9804
-2.1196 -3.7395 -2.4817 0.9803
-1.9859 -3.8149 -2.4831 0.9803
-1.8488 -3.8843 -2.4837 0.9803
-1.7093 -3.9487 -2.4842 0.9803
-0.9820 -4.1946 -2.4872 0.9803
-0.8318 -4.2282 -2.4879 0.9803
-0.5282 -4.2791 -2.4893 0.9803
-0.2216 -4.3085 -2.4908 0.9803
-0.0677 -4.3151 -2.4916 0.9803
0.7010 -4.2655 -2.4957 0.9802
0.8532 -4.2392 -2.4966 0.9802
1.1543 -4.1705 -2.4984 0.9802
1.4501 -4.0804 -2.5002 0.9802
1.5954 -4.0275 -2.5011 0.9802
1.7388 -3.9694 -2.5020 0.9802
2.1557 -3.7649 -2.5048 0.9802
2.2896 -3.6869 -2.5057 0.9802
2.9134 -3.2275 -2.5103 0.9801
3.0279 -3.1225 -2.5112 0.9801
3.1386 -3.0135 -2.5121 0.9801
3.4465 -2.6634 -2.5147 0.9801
3.5406 -2.5395 -2.5156 0.9801
3.6302 -2.4123 -2.5164 0.9801
3.7152 -2.2818 -2.5173 0.9801
3.7956 -2.1484 -2.5181 0.9801
3.8711 -2.0122 -2.5189 0.9801
3.9417 -1.8732 -2.5196 0.9800
