ply
format ascii 1.0
element vertex 1120
property float32 x
property float32 y
property float32 z
property float32 I
end_header
48.8871 0.1827 8.6202 0.8199
48.9282 1.9454 8.6342 0.8196
29.1541 11.0994 5.5006 0.8810
27.5932 11.6589 5.2819 0.8854
26.9363 12.5424 5.2393 0.8863
25.4993 14.1892 5.1454 0.8882
20.2595 12.2487 4.1744 0.9083
14.7571 9.6640 3.1104 0.9309
13.6898 9.6866 2.9570 0.9342
12.1100 11.5056 2.9454 0.9344
11.9081 12.1587 3.0009 0.9332
11.9499 14.1020 3.2593 0.9277
11.9737 15.2078 3.4129 0.9244
13.5053 19.9555 4.2488 0.9068
12.4957 19.9770 4.1548 0.9087
12.1882 25.1703 4.9312 0.8926
16.7965 38.1282 7.3465 0.8443
15.1958 38.1623 7.2429 0.8463
13.6377 38.1956 7.1513 0.8481
12.1553 38.3501 7.0937 0.8492
10.6273 38.2599 7.0017 0.8511
38.7572 10.1345 6.1370 0.8503
32.7189 9.8266 5.2335 0.8709
28.8154 9.7982 4.6626 0.8841
26.8864 10.2361 4.4073 0.8901
26.9108 11.3706 4.4755 0.8885
25.4990 14.1890 4.4704 0.8886
20.2577 12.2476 3.6265 0.9087
13.2760 12.6133 2.8054 0.9286
13.8888 19.0100 3.6067 0.9091
12.2132 21.1852 3.7461 0.9058
12.1879 25.1697 4.2841 0.8930
16.7956 38.1262 6.3823 0.8449
15.0320 37.7508 6.2248 0.8484
13.6370 38.1937 6.2128 0.8486
12.1160 38.2262 6.1431 0.8502
9.1646 38.2893 6.0314 0.8527
38.7568 10.1344 5.2166 0.8508
31.0634 9.3294 4.2236 0.8774
28.8113 9.7968 3.9628 0.8845
26.8861 10.2360 3.7463 0.8904
26.9105 11.3704 3.8043 0.8888
26.9357 12.5422 3.8692 0.8871
14.7546 9.6624 2.2967 0.9313
13.6876 9.6850 2.1835 0.9346
13.7021 10.4553 2.2444 0.9328
13.7191 11.2722 2.3122 0.9309
13.7372 12.1412 2.3874 0.9287
12.1626 12.4186 2.2636 0.9323
11.9495 14.1015 2.4070 0.9282
13.8885 19.0097 3.0658 0.9094
12.4943 19.9748 3.0681 0.9093
11.9765 20.7747 3.1227 0.9078
12.1394 22.9268 3.3782 0.9006
12.1876 25.1691 3.6416 0.8933
16.7947 38.1242 5.4249 0.8453
15.1943 38.1584 5.3485 0.8473
12.1540 38.3463 5.2383 0.8502
9.5140 39.7492 5.3224 0.8480
32.3634 9.7199 3.6286 0.8729
28.8073 9.7954 3.2673 0.8848
27.6317 10.5198 3.1749 0.8879
27.2193 11.5009 3.1731 0.8879
26.9354 12.5420 3.1906 0.8873
12.1618 12.4178 1.8664 0.9325
14.0392 19.2160 2.5555 0.9087
13.5887 20.0786 2.6034 0.9071
16.7939 38.1223 4.4732 0.8457
15.1935 38.1565 4.4102 0.8477
12.1535 38.3444 4.3194 0.8506
9.1637 38.2856 4.2273 0.8535
6.8415 33.9368 3.7175 0.8700
-27.9509 23.0509 3.8904 0.8644
-28.4889 20.2359 3.7524 0.8689
42.5383 9.5016 3.6897 0.8395
38.7561 10.1342 3.3911 0.8515
26.9351 12.5419 2.5152 0.8876
26.7326 13.6392 2.5405 0.8865
25.4982 14.1886 2.4702 0.8895
20.2523 12.2444 2.0034 0.9094
14.7522 9.6608 1.4928 0.9317
13.6854 9.6835 1.4192 0.9349
11.8555 9.7410 1.2989 0.9403
11.8716 10.4924 1.3412 0.9384
13.5879 20.0775 2.0523 0.9073
12.4929 19.9726 1.9942 0.9098
15.0297 37.7451 3.4392 0.8495
13.6350 38.1879 3.4326 0.8498
12.1142 38.2205 3.3941 0.8513
10.6252 38.2524 3.3608 0.8527
9.1632 38.2838 3.3324 0.8538
6.8404 33.9318 2.9302 0.8703
-27.7663 35.3981 3.8084 0.8348
-27.8337 28.5230 3.3737 0.8522
-27.9542 26.6558 3.2698 0.8564
-27.9145 24.7619 3.1588 0.8609
-28.0651 21.4957 2.9926 0.8677
-30.8538 20.2854 3.1258 0.8622
-33.5096 20.3427 3.3185 0.8544
32.6987 9.8206 2.1171 0.8721
28.7994 9.7927 1.8863 0.8852
26.9349 12.5418 1.8424 0.8877
26.4778 13.5092 1.8433 0.8877
20.2505 12.2433 1.4674 0.9095
14.7221 9.6411 1.0913 0.9319
13.6576 9.6638 1.0375 0.9351
11.8715 10.4923 0.9825 0.9385
11.8887 11.2953 1.0169 0.9364
11.9072 12.1579 1.0553 0.9341
11.9490 14.1009 1.1461 0.9286
11.9727 15.2066 1.2002 0.9254
13.8878 19.0088 1.4598 0.9100
12.4923 19.9715 1.4608 0.9099
12.2122 21.1835 1.5163 0.9067
16.7921 38.1184 2.5829 0.8463
15.1920 38.1527 2.5465 0.8483
13.6343 38.1860 2.5143 0.8500
10.9611 39.4618 2.5397 0.8486
9.5126 39.7435 2.5341 0.8489
-27.8193 32.9505 2.6741 0.8413
-27.8341 28.5233 2.4713 0.8524
-27.9545 26.6561 2.3952 0.8566
-27.9148 24.7622 2.3139 0.8611
-28.0088 23.0986 2.2513 0.8646
-28.0654 21.4960 2.1922 0.8679
-30.8510 20.2836 2.2895 0.8625
-33.5064 20.3408 2.4306 0.8546
48.9144 7.2802 1.9500 0.8204
48.9534 9.0980 1.9633 0.8193
42.5216 9.4978 1.7180 0.8399
38.7553 10.1341 1.5795 0.8518
28.7955 9.7914 1.1993 0.8854
26.9095 11.3700 1.1519 0.8896
26.9346 12.5416 1.1716 0.8879
26.4752 13.5079 1.1720 0.8878
20.2176 12.2234 0.9316 0.9098
14.7209 9.6403 0.6939 0.9320
13.6565 9.6631 0.6597 0.9352
11.8552 9.7408 0.6050 0.9404
11.9071 12.1577 0.6710 0.9341
11.9271 13.0891 0.6983 0.9316
11.9488 14.1007 0.7288 0.9287
13.8876 19.0085 0.9283 0.9101
13.4877 19.9296 0.9489 0.9082
11.7010 22.0990 0.9860 0.9047
12.7219 31.9495 1.3560 0.8714
10.1248 31.9438 1.3213 0.8745
9.5669 34.4424 1.4095 0.8667
6.8384 33.9216 1.3645 0.8706
-27.7671 35.3991 1.7740 0.8352
-27.8197 32.9510 1.7004 0.8414
-27.8682 30.6951 1.6348 0.8471
-27.8344 28.5237 1.5715 0.8525
-27.9152 24.7626 1.4714 0.8612
-27.9519 23.0517 1.4286 0.8650
-27.9866 21.4356 1.3900 0.8684
-33.5033 20.3389 1.5454 0.8548
48.7993 1.9403 0.8250 0.8225
37.2840 2.8294 0.6316 0.8611
42.5133 9.4960 0.7358 0.8401
28.7915 9.7901 0.5137 0.8855
26.9092 11.3699 0.4935 0.8897
26.9343 12.5415 0.5019 0.8879
26.4726 13.5066 0.5020 0.8879
14.7485 9.6584 0.2978 0.9319
11.8550 9.7406 0.2592 0.9405
11.8712 10.4920 0.2676 0.9386
13.8874 19.0082 0.3976 0.9101
13.5000 19.9476 0.4069 0.9081
12.4788 19.9501 0.3975 0.9102
6.4593 11.2044 0.2185 0.9496
12.1381 22.9245 0.4382 0.9014
12.1863 25.1663 0.4723 0.8942
12.1805 30.5899 0.5562 0.8766
10.9274 30.6046 0.5489 0.8781
9.7052 30.6202 0.5426 0.8794
6.8374 33.9166 0.5844 0.8707
-27.6893 35.2999 0.7578 0.8357
-27.8348 28.5241 0.6732 0.8526
-27.9523 23.0521 0.6120 0.8651
48.7612 0.1822 -0.2745 0.8228
37.2621 2.8277 -0.2104 0.8612
47.3699 8.8037 -0.2713 0.8247
40.1166 8.9607 -0.2314 0.8484
29.3342 8.8101 -0.1724 0.8847
26.1130 8.8793 -0.1553 0.8955
15.0894 9.1229 -0.0993 0.9319
13.9677 9.1470 -0.0940 0.9354
12.0316 9.1807 -0.0852 0.9413
10.4264 9.2151 -0.0783 0.9459
9.7153 9.2304 -0.0754 0.9478
9.0540 9.2446 -0.0729 0.9496
8.4360 9.2579 -0.0705 0.9511
7.8615 9.9849 -0.0715 0.9504
7.8516 11.6015 -0.0789 0.9455
6.4855 11.2499 -0.0731 0.9494
7.8319 14.7916 -0.0942 0.9352
7.0431 14.5450 -0.0910 0.9374
7.8023 19.5944 -0.1187 0.9191
7.7882 21.8127 -0.1304 0.9115
7.7242 32.2715 -0.1868 0.8757
-26.2110 33.4153 -0.2391 0.8438
-25.5271 28.1165 -0.2138 0.8591
-28.9365 23.8638 -0.2112 0.8607
-29.5605 22.6411 -0.2096 0.8616
-28.4749 20.2259 -0.1966 0.8696
-30.8406 20.2767 -0.2078 0.8627
-33.4946 20.3336 -0.2206 0.8549
48.7607 0.1822 -1.3730 0.8227
48.8745 5.4845 -1.3848 0.8214
48.9130 7.2800 -1.3925 0.8205
47.3589 8.8017 -1.3564 0.8247
40.1088 8.9589 -1.1572 0.8484
33.3737 8.7268 -0.9713 0.8711
26.1094 8.8780 -0.7765 0.8955
23.4664 8.9340 -0.7070 0.9044
19.3758 9.0220 -0.6018 0.9180
17.7662 9.0645 -0.5616 0.9233
16.3447 9.0951 -0.5267 0.9279
13.9665 9.1463 -0.4701 0.9354
12.0308 9.1800 -0.4261 0.9412
11.1946 9.1980 -0.4080 0.9437
10.4257 9.2145 -0.3918 0.9458
9.7147 9.2298 -0.3773 0.9478
8.0589 9.5103 -0.3510 0.9513
7.8614 9.9848 -0.3578 0.9504
7.6088 11.2428 -0.3822 0.9471
6.4852 11.2493 -0.3656 0.9494
7.7168 14.5742 -0.4644 0.9361
7.0427 14.5442 -0.4550 0.9374
7.7879 21.8121 -0.6522 0.9115
7.7507 27.9038 -0.8155 0.8906
6.8354 33.9065 -0.9739 0.8707
7.6361 46.4542 -1.3256 0.8283
-27.9886 35.6814 -1.2769 0.8340
-28.4438 31.3291 -1.1915 0.8442
-28.5323 27.2069 -1.1101 0.8541
34.6374 1.3772 -1.7580 0.8704
33.8344 2.5677 -1.7208 0.8729
34.1731 5.0862 -1.7521 0.8708
34.3411 6.3823 -1.7714 0.8694
33.3680 8.7253 -1.7491 0.8710
29.3252 8.8074 -1.5528 0.8846
26.1059 8.8768 -1.3984 0.8954
19.3738 9.0211 -1.0838 0.9180
17.7645 9.0636 -1.0114 0.9232
15.0867 9.1213 -0.8941 0.9318
13.9654 9.1455 -0.8466 0.9353
12.9449 9.1596 -0.8042 0.9385
11.1938 9.1973 -0.7347 0.9436
9.0529 9.2434 -0.6561 0.9495
8.0584 9.5097 -0.6321 0.9513
6.4849 11.2487 -0.6585 0.9493
7.7164 14.5735 -0.8363 0.9361
7.0424 14.5435 -0.8195 0.9373
7.8133 17.7363 -0.9829 0.9253
7.8018 19.5933 -1.0695 0.9190
7.7877 21.8114 -1.1745 0.9114
7.7710 24.5177 -1.3044 0.9021
7.7504 27.9028 -1.4686 0.8905
7.7235 32.2687 -1.6827 0.8756
7.6356 46.4512 -2.3874 0.8282
4.3448 47.6573 -2.4269 0.8256
-20.8909 30.9896 -1.8954 0.8610
-20.8219 28.6086 -1.7945 0.8679
-20.5320 26.1754 -1.6871 0.8753
-20.7747 24.6066 -1.6332 0.8790
-20.4077 22.4778 -1.5397 0.8855
-20.6488 17.0289 -1.3574 0.8983
-30.8351 20.2731 -1.8715 0.8626
-33.4883 20.3298 -1.9868 0.8548
26.9807 0.1008 -1.9783 0.8974
27.0456 1.0754 -1.9846 0.8971
27.0829 2.0553 -1.9915 0.8968
25.2171 6.5940 -1.9111 0.9007
25.1218 7.5450 -1.9233 0.9001
25.0117 8.5048 -1.9370 0.8995
19.3717 9.0201 -1.5668 0.9179
17.1755 8.7631 -1.4138 0.9256
16.3417 9.0934 -1.3712 0.9277
15.0854 9.1205 -1.2925 0.9317
11.1930 9.1967 -1.0622 0.9436
9.7134 9.2286 -0.9824 0.9477
8.4344 9.2562 -0.9182 0.9510
7.8611 9.9844 -0.9318 0.9503
7.6085 11.2424 -0.9953 0.9470
6.4845 11.2481 -0.9520 0.9493
7.7079 14.5574 -1.2078 0.9361
7.8131 17.7359 -1.4210 0.9252
7.8016 19.5928 -1.5463 0.9189
7.7875 21.8107 -1.6981 0.9113
7.7707 24.5168 -1.8858 0.9020
7.4998 31.3339 -2.3624 0.8788
5.2993 32.2378 -2.3955 0.8772
4.2771 33.5177 -2.4775 0.8733
3.1599 34.6603 -2.5519 0.8697
0.6578 34.7861 -2.5510 0.8698
-1.8456 34.7262 -2.5498 0.8698
-3.0935 34.6268 -2.5490 0.8699
-5.5727 34.2900 -2.5472 0.8699
-6.8006 34.0533 -2.5462 0.8700
-8.0184 33.7715 -2.5450 0.8700
-9.2244 33.4450 -2.5438 0.8701
-12.7551 32.2028 -2.5397 0.8703
-16.1213 30.5814 -2.5348 0.8705
-19.0362 26.1552 -2.3719 0.8783
-20.4151 22.4860 -2.2269 0.8853
-20.5459 21.0547 -2.1570 0.8887
-20.5045 19.5520 -2.0774 0.8926
-20.4813 18.1682 -2.0074 0.8960
-20.1569 14.3176 -1.8128 0.9056
-20.3470 13.3775 -1.7854 0.9070
21.7325 0.0812 -2.0864 0.9164
21.6096 0.8592 -2.0763 0.9168
21.7382 2.4393 -2.1001 0.9159
21.6913 3.2284 -2.1054 0.9156
21.6235 4.0187 -2.1115 0.9154
21.5262 4.8082 -2.1175 0.9152
21.1004 5.5175 -2.0938 0.9161
19.9663 5.9966 -2.0014 0.9196
19.4490 8.2177 -2.0270 0.9187
19.2357 8.9568 -2.0371 0.9183
17.1181 8.7338 -1.8450 0.9257
15.0841 9.1197 -1.6922 0.9316
13.9630 9.1440 -1.6024 0.9351
9.7127 9.2280 -1.2862 0.9476
9.0517 9.2422 -1.2420 0.9493
8.0574 9.5086 -1.1965 0.9512
7.8610 9.9843 -1.2200 0.9502
7.8562 10.7531 -1.2785 0.9479
7.6084 11.2422 -1.3031 0.9469
7.0549 11.2787 -1.2772 0.9479
6.4842 11.2475 -1.2464 0.9492
7.7156 14.5719 -1.5830 0.9359
7.0416 14.5420 -1.5512 0.9371
7.8129 17.7354 -1.8606 0.9251
7.8014 19.5922 -2.0246 0.9188
7.4210 23.4135 -2.3580 0.9060
6.6313 23.8738 -2.3788 0.9052
5.7678 24.0977 -2.3788 0.9052
1.4487 26.3544 -2.5340 0.8994
-0.4510 26.3820 -2.5332 0.8994
-2.3469 26.2698 -2.5321 0.8994
-3.2901 26.1616 -2.5314 0.8995
-4.2285 26.0189 -2.5307 0.8995
-6.0855 25.6307 -2.5291 0.8996
-7.9078 25.1075 -2.5272 0.8996
-8.8028 24.7962 -2.5261 0.8997
-10.5544 24.0770 -2.5238 0.8998
-13.0684 22.7641 -2.5200 0.8999
-13.8717 22.2667 -2.5186 0.8999
-16.1625 20.6049 -2.5141 0.9001
-18.8853 15.5746 -2.3501 0.9063
-20.0583 11.2093 -2.2060 0.9118
18.2075 0.7239 -2.1645 0.9292
18.1608 2.0379 -2.1708 0.9290
18.1066 2.6949 -2.1745 0.9289
18.0318 3.3512 -2.1786 0.9288
17.9358 4.0062 -2.1830 0.9286
17.5216 5.9579 -2.1984 0.9282
16.0916 6.7991 -2.0751 0.9321
15.6643 7.9921 -2.0889 0.9316
13.9619 9.1432 -1.9825 0.9350
12.9419 9.1574 -1.8832 0.9381
11.1913 9.1953 -1.7206 0.9433
10.4228 9.2119 -1.6523 0.9455
9.7121 9.2274 -1.5913 0.9475
8.4334 9.2550 -1.4873 0.9508
8.0569 9.5079 -1.4804 0.9510
7.8608 9.9841 -1.5094 0.9501
7.8561 10.7529 -1.5819 0.9478
7.6082 11.2420 -1.6125 0.9468
6.4838 11.2469 -1.5421 0.9491
5.3365 19.2123 -2.3686 0.9228
4.7504 19.8470 -2.4241 0.9211
3.4462 20.9646 -2.5237 0.9180
2.6892 21.0741 -2.5236 0.9180
1.1659 21.2096 -2.5232 0.9180
-0.3630 21.2331 -2.5226 0.9180
-1.1269 21.2029 -2.5222 0.9180
-2.6483 21.0586 -2.5212 0.9181
-3.4039 20.9449 -2.5206 0.9181
-4.1546 20.8035 -2.5200 0.9181
-4.8994 20.6349 -2.5193 0.9181
-6.3674 20.2166 -2.5178 0.9182
-7.0886 19.9677 -2.5169 0.9182
-9.1896 19.0659 -2.5141 0.9183
-9.8659 18.7150 -2.5131 0.9183
-11.1770 17.9411 -2.5109 0.9184
-11.8101 17.5190 -2.5097 0.9184
-12.4271 17.0745 -2.5085 0.9185
-13.0273 16.6079 -2.5073 0.9185
-14.7186 15.0831 -2.5034 0.9186
-15.7482 13.9697 -2.5006 0.9187
-16.2316 13.3861 -2.4992 0.9187
-17.1326 12.1695 -2.4963 0.9188
-17.9421 10.8921 -2.4932 0.9189
-18.3113 10.2330 -2.4917 0.9190
15.5926 0.0582 -2.2093 0.9389
15.5815 1.1825 -2.2141 0.9388
14.9682 5.0897 -2.2401 0.9381
13.5251 6.2978 -2.1139 0.9415
13.3236 6.7978 -2.1193 0.9414
13.1061 7.2930 -2.1251 0.9412
9.7114 9.2267 -1.8980 0.9473
9.0505 9.2410 -1.8327 0.9491
8.0564 9.5074 -1.7657 0.9509
7.8560 10.7528 -1.8868 0.9476
7.7741 12.4286 -2.0771 0.9425
6.4835 11.2463 -1.8393 0.9489
7.7000 14.5425 -2.3315 0.9357
7.0409 14.5404 -2.2891 0.9368
5.0358 15.8881 -2.3615 0.9349
4.1341 17.2722 -2.5164 0.9308
2.8807 17.5245 -2.5164 0.9308
2.2479 17.6162 -2.5163 0.9308
1.6123 17.6846 -2.5161 0.9308
0.9746 17.7298 -2.5159 0.9308
0.3357 17.7517 -2.5157 0.9308
-1.5792 17.6773 -2.5147 0.9308
-2.2142 17.6060 -2.5142 0.9308
-3.4737 17.3941 -2.5132 0.9308
-4.7139 17.0910 -2.5120 0.9309
-7.6864 15.9473 -2.5083 0.9310
-8.8077 15.3422 -2.5066 0.9310
-9.3507 15.0096 -2.5056 0.9310
-10.3982 14.2868 -2.5037 0.9311
-11.3896 13.4904 -2.5016 0.9312
-11.8626 13.0660 -2.5005 0.9312
-13.9776 10.7058 -2.4947 0.9313
-14.3469 10.1907 -2.4934 0.9314
-14.6970 9.6628 -2.4922 0.9314
-15.3492 8.5777 -2.4914 0.9314
13.6276 0.5418 -2.2468 0.9462
13.6130 1.0330 -2.2490 0.9462
13.5823 1.5241 -2.2516 0.9461
13.5357 2.0146 -2.2544 0.9460
13.4730 2.5040 -2.2575 0.9460
12.7316 5.3794 -2.2769 0.9455
12.5503 5.8438 -2.2807 0.9454
12.1552 6.2017 -2.2480 0.9462
10.7340 7.5952 -2.1662 0.9481
10.2166 8.3945 -2.1783 0.9478
9.7108 9.2261 -2.2066 0.9471
9.0499 9.2404 -2.1307 0.9489
8.4323 9.2539 -2.0625 0.9505
8.0559 9.5068 -2.0528 0.9507
7.8558 10.7526 -2.1938 0.9474
7.8505 11.6000 -2.3075 0.9448
7.5241 12.0288 -2.3373 0.9441
6.6909 12.6367 -2.3556 0.9437
6.2325 12.8709 -2.3558 0.9437
5.7657 13.0882 -2.3561 0.9437
4.8873 13.6879 -2.3944 0.9428
4.6052 14.5296 -2.5109 0.9401
3.5482 14.8240 -2.5111 0.9401
3.0122 14.9422 -2.5111 0.9401
0.2881 15.2362 -2.5105 0.9401
-0.8086 15.2142 -2.5099 0.9401
-2.4429 15.0317 -2.5088 0.9401
-3.5167 14.8114 -2.5079 0.9402
-5.6008 14.1403 -2.5055 0.9402
-6.6000 13.6932 -2.5042 0.9402
-7.5635 13.1749 -2.5027 0.9403
-8.0302 12.8900 -2.5019 0.9403
-8.4862 12.5884 -2.5010 0.9403
-8.9308 12.2706 -2.5002 0.9403
-9.3634 11.9370 -2.4993 0.9404
-10.9629 10.4537 -2.4955 0.9404
-11.3276 10.0483 -2.4945 0.9405
-13.2095 7.3819 -2.4929 0.9405
11.9247 1.7748 -2.2661 0.9521
11.7800 3.0803 -2.2886 0.9517
11.6738 3.5060 -2.2910 0.9516
11.5549 3.9290 -2.2940 0.9515
11.1134 5.1748 -2.3042 0.9513
10.7477 5.9806 -2.3118 0.9512
8.7897 7.7685 -2.2049 0.9534
8.5480 8.1213 -2.2162 0.9531
8.3094 8.4842 -2.2321 0.9528
7.6956 9.7743 -2.3383 0.9506
6.2487 10.8392 -2.3517 0.9504
5.8552 11.0584 -2.3519 0.9503
5.4539 11.2631 -2.3522 0.9503
5.0454 11.4532 -2.3524 0.9503
4.8892 12.2787 -2.4842 0.9476
4.4846 12.5603 -2.5068 0.9472
3.1048 12.9717 -2.5070 0.9472
2.6359 13.0751 -2.5070 0.9472
2.1635 13.1613 -2.5070 0.9472
1.6883 13.2303 -2.5069 0.9472
1.2109 13.2819 -2.5068 0.9472
0.2521 13.3329 -2.5065 0.9472
-0.2279 13.3322 -2.5063 0.9472
-0.7076 13.3139 -2.5060 0.9472
-1.1862 13.2783 -2.5057 0.9472
-1.6632 13.2253 -2.5054 0.9472
-2.6096 13.0674 -2.5047 0.9472
-3.5417 12.8413 -2.5038 0.9472
-5.3434 12.1895 -2.5016 0.9473
-6.2034 11.7676 -2.5004 0.9473
-7.4296 11.0210 -2.4983 0.9473
-7.8191 10.7432 -2.4975 0.9474
-8.5664 10.1465 -2.4959 0.9474
-8.9231 9.8283 -2.4951 0.9474
-9.6010 9.1550 -2.4935 0.9474
-10.2350 8.4408 -2.4936 0.9474
-11.0863 7.2889 -2.4938 0.9474
10.8656 0.4320 -2.2986 0.9565
10.8483 0.8233 -2.2997 0.9565
10.8178 1.2139 -2.3010 0.9565
10.7743 1.6036 -2.3025 0.9564
10.4692 3.1442 -2.3106 0.9563
10.3604 3.5229 -2.3131 0.9562
10.2388 3.8980 -2.3158 0.9562
10.1044 4.2694 -2.3187 0.9561
9.9574 4.6365 -2.3218 0.9561
9.7979 4.9989 -2.3251 0.9560
9.6259 5.3564 -2.3285 0.9560
9.4417 5.7084 -2.3322 0.9559
7.8492 6.9373 -2.2143 0.9581
7.6296 7.2488 -2.2246 0.9579
7.4167 7.5728 -2.2406 0.9576
6.9967 8.2568 -2.2877 0.9567
6.5191 8.9229 -2.3359 0.9558
6.2271 9.2013 -2.3485 0.9556
5.2002 9.8212 -2.3491 0.9556
4.9561 10.2350 -2.4038 0.9546
4.3815 11.0036 -2.5035 0.9527
3.9828 11.1548 -2.5037 0.9527
3.5788 11.2913 -2.5038 0.9527
3.1702 11.4132 -2.5038 0.9527
2.7573 11.5200 -2.5039 0.9527
1.9213 11.6884 -2.5039 0.9527
1.4993 11.7497 -2.5038 0.9527
-0.2024 11.8405 -2.5032 0.9527
-0.6284 11.8245 -2.5030 0.9527
-1.0536 11.7930 -2.5027 0.9527
-1.4772 11.7461 -2.5024 0.9528
-1.8988 11.6838 -2.5021 0.9528
-2.3178 11.6062 -2.5018 0.9528
-2.7337 11.5136 -2.5014 0.9528
-3.9568 11.1459 -2.5001 0.9528
-4.3546 10.9941 -2.4996 0.9528
-4.7465 10.8280 -2.4991 0.9528
-5.5108 10.4537 -2.4980 0.9528
-6.6007 9.7914 -2.4961 0.9529
-6.9470 9.5450 -2.4954 0.9529
-7.9324 8.7371 -2.4944 0.9529
-8.2417 8.4459 -2.4945 0.9529
-8.5405 8.1438 -2.4945 0.9529
-9.3691 7.1760 -2.4946 0.9529
-9.8616 6.4837 -2.4947 0.9529
-10.0890 6.1247 -2.4948 0.9529
-10.3032 5.7578 -2.4949 0.9529
9.8433 0.3914 -2.3152 0.9603
9.8269 0.7457 -2.3162 0.9603
9.7986 1.0995 -2.3173 0.9603
9.7583 1.4524 -2.3187 0.9603
9.6420 2.1537 -2.3219 0.9602
9.5661 2.5014 -2.3238 0.9602
9.3789 3.1891 -2.3282 0.9601
9.2678 3.5284 -2.3307 0.9601
9.1449 3.8640 -2.3333 0.9600
9.0105 4.1956 -2.3360 0.9600
8.5397 5.1630 -2.3453 0.9598
8.1708 5.7815 -2.3524 0.9597
7.9717 6.0828 -2.3567 0.9596
7.7659 6.3809 -2.3622 0.9595
7.5301 6.6552 -2.3619 0.9595
7.2045 6.8449 -2.3356 0.9600
6.9085 7.0539 -2.3205 0.9602
6.6336 7.2800 -2.3147 0.9603
6.3774 7.5259 -2.3184 0.9603
6.1264 7.7811 -2.3275 0.9601
5.8852 8.0553 -2.3446 0.9598
5.6585 8.3610 -2.3727 0.9594
5.2446 9.0973 -2.4679 0.9578
4.6373 9.5766 -2.5007 0.9572
3.9368 9.8867 -2.5010 0.9572
3.5785 10.0225 -2.5012 0.9572
2.8484 10.2546 -2.5013 0.9572
2.4774 10.3506 -2.5013 0.9572
0.2012 10.6392 -2.5009 0.9572
-0.1819 10.6389 -2.5007 0.9572
-2.0827 10.4290 -2.4994 0.9572
-2.8268 10.2492 -2.4987 0.9573
-4.6121 9.5690 -2.4965 0.9573
-5.2864 9.2085 -2.4955 0.9573
-5.6141 9.0116 -2.4953 0.9573
-5.9347 8.8035 -2.4953 0.9573
-6.2477 8.5841 -2.4952 0.9573
-6.5526 8.3536 -2.4952 0.9573
-6.8490 8.1123 -2.4952 0.9573
-8.1911 6.7552 -2.4953 0.9573
-8.8722 5.8332 -2.4955 0.9573
-9.0766 5.5102 -2.4955 0.9573
8.9920 0.0336 -2.3282 0.9635
8.8013 1.9659 -2.3350 0.9634
8.6507 2.5981 -2.3387 0.9634
8.4571 3.2197 -2.3430 0.9633
8.3442 3.5256 -2.3454 0.9633
8.2208 3.8278 -2.3479 0.9632
7.7893 4.7093 -2.3567 0.9631
7.4533 5.2738 -2.3640 0.9630
7.2724 5.5492 -2.3685 0.9629
7.0867 5.8228 -2.3748 0.9628
6.8944 6.0935 -2.3824 0.9627
6.6958 6.3616 -2.3914 0.9626
6.2848 6.8971 -2.4160 0.9622
6.0688 7.1618 -2.4305 0.9620
5.6108 7.6797 -2.4626 0.9615
5.3675 7.9310 -2.4796 0.9612
4.8207 8.3621 -2.4991 0.9609
4.5179 8.5326 -2.4998 0.9609
3.5709 8.9678 -2.4992 0.9609
3.2456 9.0900 -2.4991 0.9609
2.9164 9.2012 -2.4992 0.9609
2.5833 9.3004 -2.4992 0.9609
2.2469 9.3875 -2.4992 0.9609
1.9075 9.4623 -2.4992 0.9609
1.5657 9.5247 -2.4992 0.9609
1.2218 9.5747 -2.4992 0.9609
0.5297 9.6371 -2.4990 0.9609
-0.1649 9.6491 -2.4987 0.9609
-1.8891 9.4592 -2.4975 0.9609
-2.2281 9.3840 -2.4972 0.9609
-3.2255 9.0856 -2.4963 0.9609
-4.4955 8.5278 -2.4960 0.9610
-6.2185 7.3655 -2.4958 0.9610
-6.9764 6.6523 -2.4959 0.9610
-7.2114 6.3969 -2.4959 0.9610
-7.4370 6.1333 -2.4959 0.9610
-8.0554 5.2961 -2.4961 0.9609
-8.2410 5.0029 -2.4961 0.9609
-8.4160 4.7032 -2.4962 0.9609
8.2474 0.6259 -2.3415 0.9662
8.1882 1.2187 -2.3436 0.9662
7.9495 2.3875 -2.3498 0.9661
7.8649 2.6743 -2.3517 0.9661
7.7707 2.9584 -2.3539 0.9660
7.6666 3.2393 -2.3561 0.9660
7.4317 3.7917 -2.3619 0.9659
6.8663 4.8585 -2.3812 0.9656
6.7051 5.1163 -2.3877 0.9655
6.1928 5.8837 -2.4182 0.9651
6.0076 6.1341 -2.4306 0.9649
5.6140 6.6251 -2.4583 0.9645
4.6811 7.4837 -2.4989 0.9640
4.4099 7.6494 -2.4996 0.9640
4.1324 7.8046 -2.5000 0.9640
3.8485 7.9477 -2.4998 0.9640
3.5597 8.0804 -2.4996 0.9640
3.2662 8.2028 -2.4995 0.9640
2.6672 8.4153 -2.4991 0.9640
2.0546 8.5842 -2.4988 0.9640
1.7442 8.6520 -2.4986 0.9640
1.4315 8.7086 -2.4984 0.9640
1.1170 8.7540 -2.4983 0.9640
-0.4682 8.8100 -2.4976 0.9640
-1.1007 8.7527 -2.4973 0.9640
-1.4150 8.7070 -2.4972 0.9640
-1.7275 8.6501 -2.4971 0.9640
-3.8291 7.9443 -2.4966 0.9640
-4.1125 7.8012 -2.4965 0.9640
-4.3905 7.6480 -2.4965 0.9640
-5.1892 7.1298 -2.4964 0.9640
-5.6887 6.7379 -2.4964 0.9640
-5.9275 6.5288 -2.4964 0.9640
-6.5969 5.8519 -2.4964 0.9640
-6.8034 5.6107 -2.4965 0.9640
-7.1896 5.1069 -2.4965 0.9640
7.6428 0.0286 -2.3508 0.9685
7.6252 0.5786 -2.3521 0.9685
7.6024 0.8531 -2.3530 0.9685
7.5293 1.3993 -2.3555 0.9685
7.4790 1.6705 -2.3571 0.9684
7.4196 1.9401 -2.3588 0.9684
7.3509 2.2078 -2.3608 0.9684
7.2736 2.4732 -2.3630 0.9684
6.7694 3.7669 -2.3828 0.9681
6.6441 4.0170 -2.3881 0.9680
6.3780 4.5129 -2.4032 0.9678
6.0830 4.9980 -2.4216 0.9676
5.9258 5.2374 -2.4325 0.9674
5.5884 5.7061 -2.4566 0.9671
5.4085 5.9355 -2.4699 0.9670
5.2170 6.1565 -2.4821 0.9668
5.0133 6.3674 -2.4927 0.9667
4.5533 6.7279 -2.4987 0.9666
4.3092 6.8892 -2.4993 0.9666
3.8037 7.1838 -2.5002 0.9666
3.5424 7.3155 -2.5000 0.9666
3.0065 7.5504 -2.4997 0.9666
2.4552 7.7461 -2.4993 0.9666
1.8913 7.9017 -2.4990 0.9666
1.6055 7.9641 -2.4989 0.9666
0.4458 8.1103 -2.4983 0.9666
-0.1388 8.1205 -2.4981 0.9666
-0.7226 8.0887 -2.4978 0.9666
-1.0133 8.0571 -2.4977 0.9666
-1.5902 7.9627 -2.4975 0.9666
-2.1588 7.8271 -2.4973 0.9666
-2.4391 7.7441 -2.4973 0.9666
-2.7162 7.6511 -2.4972 0.9666
-3.5248 7.3132 -2.4970 0.9666
-3.7858 7.1814 -2.4970 0.9666
-4.0417 7.0403 -2.4969 0.9666
-4.2925 6.8902 -2.4969 0.9666
-5.0101 6.3872 -2.4968 0.9666
-5.4567 6.0102 -2.4968 0.9666
-6.0728 5.3870 -2.4969 0.9666
-6.2629 5.1650 -2.4969 0.9666
-6.9398 4.2130 -2.4971 0.9666
-7.0871 3.9605 -2.4971 0.9666
7.0940 0.5384 -2.3648 0.9705
7.0728 0.7937 -2.3658 0.9704
7.0429 1.0482 -2.3669 0.9704
7.0056 1.3020 -2.3686 0.9704
6.9612 1.5549 -2.3709 0.9704
6.8476 2.0566 -2.3766 0.9703
6.7764 2.3042 -2.3792 0.9703
6.5234 3.0375 -2.3920 0.9701
6.3189 3.5162 -2.4037 0.9700
6.0846 3.9847 -2.4177 0.9698
5.8248 4.4447 -2.4355 0.9696
5.5384 4.8950 -2.4570 0.9693
5.3839 5.1152 -2.4686 0.9692
5.2191 5.3290 -2.4794 0.9690
5.0452 5.5368 -2.4899 0.9689
4.6488 5.9045 -2.4980 0.9688
4.2139 6.2265 -2.4991 0.9688
3.5198 6.6476 -2.5003 0.9688
3.2780 6.7695 -2.5002 0.9688
2.7821 6.9870 -2.4999 0.9688
2.5287 7.0821 -2.4997 0.9688
2.2720 7.1681 -2.4995 0.9688
1.7502 7.3122 -2.4993 0.9688
1.2194 7.4183 -2.4990 0.9688
0.6825 7.4860 -2.4987 0.9688
0.4125 7.5054 -2.4986 0.9688
-0.1284 7.5149 -2.4984 0.9688
-0.6687 7.4855 -2.4981 0.9688
-1.2055 7.4175 -2.4979 0.9688
-1.4716 7.3690 -2.4979 0.9688
-1.7359 7.3110 -2.4978 0.9688
-1.9978 7.2435 -2.4977 0.9688
-2.5136 7.0806 -2.4976 0.9688
-3.2621 6.7680 -2.4974 0.9688
-3.5035 6.6460 -2.4973 0.9688
-3.9725 6.3766 -2.4973 0.9688
-4.1994 6.2294 -2.4973 0.9688
-4.4209 6.0742 -2.4972 0.9688
-4.6366 5.9111 -2.4972 0.9688
-4.8464 5.7403 -2.4972 0.9688
-5.0499 5.5621 -2.4972 0.9688
-5.2468 5.3768 -2.4972 0.9688
-5.7960 4.7800 -2.4973 0.9688
-6.2778 4.1275 -2.4974 0.9688
-6.4224 3.8989 -2.4975 0.9688
6.6454 0.2642 -2.3783 0.9721
6.6349 0.5035 -2.3795 0.9721
6.5913 0.9810 -2.3830 0.9721
6.5582 1.2189 -2.3854 0.9721
6.2763 2.3895 -2.4016 0.9719
6.1987 2.6191 -2.4065 0.9718
6.1149 2.8473 -2.4122 0.9718
5.9262 3.2977 -2.4253 0.9716
5.5919 3.9567 -2.4497 0.9713
5.1932 4.5899 -2.4785 0.9710
5.0449 4.7931 -2.4885 0.9709
4.8811 4.9838 -2.4946 0.9708
4.5159 5.3292 -2.4980 0.9708
4.3220 5.4894 -2.4985 0.9708
3.9175 5.7886 -2.4995 0.9707
3.2719 6.1794 -2.5005 0.9707
3.0472 6.2928 -2.5003 0.9707
2.1120 6.6634 -2.4997 0.9707
1.8707 6.7348 -2.4996 0.9707
1.6270 6.7974 -2.4995 0.9707
1.3812 6.8512 -2.4993 0.9707
0.3835 6.9771 -2.4988 0.9708
0.1321 6.9861 -2.4987 0.9708
-0.3708 6.9769 -2.4985 0.9708
-0.8717 6.9316 -2.4983 0.9708
-1.1207 6.8955 -2.4982 0.9708
-1.3681 6.8505 -2.4982 0.9708
-1.8573 6.7339 -2.4980 0.9708
-2.0984 6.6625 -2.4979 0.9708
-2.3368 6.5825 -2.4979 0.9708
-2.8042 6.3970 -2.4978 0.9708
-3.0326 6.2918 -2.4977 0.9708
-3.9040 5.7912 -2.4976 0.9708
-4.1099 5.6469 -2.4976 0.9708
-4.5055 5.3365 -2.4976 0.9708
-4.6947 5.1709 -2.4976 0.9708
-4.8777 4.9986 -2.4976 0.9708
-5.0545 4.8198 -2.4976 0.9708
-5.3883 4.4437 -2.4976 0.9708
-5.9706 3.6246 -2.4978 0.9708
-6.0973 3.4074 -2.4978 0.9708
6.2489 0.0233 -2.3947 0.9736
5.9728 2.0309 -2.4176 0.9733
5.6709 2.8934 -2.4397 0.9731
5.4839 3.3155 -2.4558 0.9729
5.2661 3.7262 -2.4721 0.9727
5.1446 3.9256 -2.4799 0.9727
5.0168 4.1220 -2.4882 0.9726
4.8762 4.3098 -2.4939 0.9725
4.7238 4.4880 -2.4970 0.9725
4.5600 4.6560 -2.4975 0.9725
4.3903 4.8180 -2.4979 0.9725
3.6562 5.4024 -2.4999 0.9724
3.0534 5.7667 -2.5006 0.9724
2.4135 6.0612 -2.5001 0.9724
2.1937 6.1439 -2.5000 0.9724
1.9710 6.2185 -2.4999 0.9724
1.7458 6.2851 -2.4998 0.9724
1.0579 6.4357 -2.4994 0.9724
0.5921 6.4946 -2.4992 0.9725
0.3579 6.5114 -2.4991 0.9725
0.1233 6.5198 -2.4990 0.9725
-0.1115 6.5197 -2.4989 0.9725
-0.3461 6.5113 -2.4988 0.9725
-0.5802 6.4943 -2.4987 0.9725
-0.8135 6.4690 -2.4986 0.9725
-1.0458 6.4354 -2.4985 0.9725
-1.2768 6.3933 -2.4984 0.9725
-1.5060 6.3430 -2.4983 0.9725
-1.7333 6.2846 -2.4983 0.9725
-1.9584 6.2179 -2.4982 0.9725
-2.4006 6.0607 -2.4981 0.9725
-3.0397 5.7662 -2.4980 0.9725
-3.2453 5.6530 -2.4979 0.9725
-4.5523 4.6651 -2.4979 0.9725
-4.8762 4.3255 -2.4979 0.9725
-5.0288 4.1472 -2.4979 0.9725
-5.3142 3.7748 -2.4980 0.9725
-5.4467 3.5811 -2.4980 0.9725
-5.5722 3.3827 -2.4981 0.9725
5.8994 0.0221 -2.4145 0.9748
5.8880 0.4468 -2.4167 0.9748
5.8722 0.6589 -2.4184 0.9748
5.7843 1.2920 -2.4257 0.9747
5.7425 1.5016 -2.4293 0.9747
5.6940 1.7102 -2.4333 0.9746
5.6405 1.9180 -2.4383 0.9746
5.5797 2.1242 -2.4435 0.9745
5.3581 2.7338 -2.4619 0.9743
5.2723 2.9338 -2.4694 0.9743
5.1750 3.1287 -2.4750 0.9742
5.0784 3.3257 -2.4845 0.9741
4.9649 3.5131 -2.4893 0.9741
4.7133 3.8727 -2.4967 0.9740
4.5716 4.0405 -2.4971 0.9740
4.2705 4.3604 -2.4979 0.9740
4.1115 4.5120 -2.4983 0.9740
3.9471 4.6580 -2.4988 0.9740
3.7776 4.7979 -2.4992 0.9740
3.4238 5.0591 -2.5002 0.9739
2.8591 5.3998 -2.5007 0.9739
2.6627 5.4989 -2.5005 0.9739
2.4629 5.5909 -2.5004 0.9739
2.0541 5.7530 -2.5001 0.9739
1.8456 5.8229 -2.5000 0.9739
1.6348 5.8853 -2.4999 0.9739
1.4218 5.9401 -2.4998 0.9739
0.3352 6.0973 -2.4992 0.9740
0.1155 6.1052 -2.4991 0.9740
-0.3241 6.0973 -2.4990 0.9740
-0.5433 6.0814 -2.4989 0.9740
-1.1956 5.9868 -2.4987 0.9740
-1.4103 5.9398 -2.4986 0.9740
-2.4507 5.5907 -2.4983 0.9740
-3.0390 5.2937 -2.4982 0.9740
-3.4119 5.0612 -2.4982 0.9740
-3.5919 4.9351 -2.4981 0.9740
-3.9376 4.6639 -2.4981 0.9740
-4.1029 4.5191 -2.4981 0.9740
-4.4174 4.2123 -2.4982 0.9740
-4.5662 4.0505 -2.4982 0.9740
-4.7091 3.8836 -2.4982 0.9740
-4.8459 3.7116 -2.4982 0.9740
-4.9764 3.5348 -2.4982 0.9740
-5.1005 3.3534 -2.4983 0.9740
-5.3287 2.9779 -2.4984 0.9740
5.5764 0.4232 -2.4373 0.9759
5.5406 0.8246 -2.4413 0.9759
5.4814 1.2244 -2.4478 0.9758
5.3433 1.8169 -2.4596 0.9757
5.0754 2.5895 -2.4832 0.9754
4.8934 2.9585 -2.4921 0.9754
4.7913 3.1377 -2.4960 0.9753
4.5545 3.4753 -2.4968 0.9753
4.1552 3.9478 -2.4979 0.9753
4.0111 4.0955 -2.4983 0.9753
3.8617 4.2379 -2.4987 0.9753
3.3840 4.6319 -2.5000 0.9753
3.2157 4.7515 -2.5004 0.9753
2.8660 4.9714 -2.5009 0.9753
2.6851 5.0711 -2.5007 0.9753
2.5007 5.1642 -2.5006 0.9753
1.3353 5.5786 -2.4999 0.9753
0.9304 5.6597 -2.4997 0.9753
0.1084 5.7338 -2.4993 0.9753
-0.3044 5.7263 -2.4992 0.9753
-1.1229 5.6227 -2.4989 0.9753
-1.7223 5.4685 -2.4987 0.9753
-2.1112 5.3302 -2.4986 0.9753
-2.3017 5.2507 -2.4985 0.9753
-2.4892 5.1643 -2.4985 0.9753
-2.6734 5.0713 -2.4985 0.9753
-3.2044 4.7535 -2.4984 0.9753
-3.5381 4.5105 -2.4984 0.9753
-3.6982 4.3803 -2.4984 0.9753
-3.8534 4.2443 -2.4984 0.9753
-4.0037 4.1029 -2.4984 0.9753
-4.6738 3.3198 -2.4985 0.9753
5.2963 0.4019 -2.4586 0.9769
5.2637 0.7834 -2.4633 0.9768
4.8795 2.2721 -2.4915 0.9766
4.8007 2.4494 -2.4947 0.9765
4.7117 2.6219 -2.4959 0.9765
4.6149 2.7901 -2.4962 0.9765
3.9128 3.7175 -2.4983 0.9765
3.6364 3.9906 -2.4991 0.9765
3.3409 4.2433 -2.4999 0.9765
3.1865 4.3615 -2.5003 0.9765
3.0279 4.4741 -2.5007 0.9765
2.8654 4.5809 -2.5011 0.9765
2.6985 4.6808 -2.5009 0.9765
2.3545 4.8624 -2.5007 0.9765
1.9984 5.0187 -2.5005 0.9765
1.8164 5.0871 -2.5004 0.9765
1.6320 5.1490 -2.5003 0.9765
1.4456 5.2042 -2.5002 0.9765
0.6836 5.3570 -2.4998 0.9765
0.4903 5.3779 -2.4997 0.9765
-0.2866 5.3919 -2.4993 0.9765
-0.6737 5.3569 -2.4992 0.9765
-1.0573 5.2943 -2.4990 0.9765
-1.2472 5.2527 -2.4990 0.9765
-1.4354 5.2043 -2.4989 0.9765
-1.8060 5.0873 -2.4988 0.9765
-2.1673 4.9441 -2.4987 0.9765
-2.5173 4.7752 -2.4987 0.9765
-2.6875 4.6814 -2.4987 0.9765
-2.8543 4.5816 -2.4986 0.9765
-3.0173 4.4759 -2.4986 0.9765
-3.1765 4.3643 -2.4986 0.9765
-3.3315 4.2472 -2.4986 0.9765
-3.6284 3.9964 -2.4986 0.9765
-3.7699 3.8633 -2.4986 0.9765
-4.1645 3.4344 -2.4986 0.9765
5.0516 0.0189 -2.4779 0.9777
5.0494 0.2007 -2.4788 0.9777
5.0416 0.3827 -2.4801 0.9777
5.0264 0.5640 -2.4810 0.9777
5.0050 0.7450 -2.4821 0.9777
4.9776 0.9251 -2.4834 0.9777
4.8632 1.4606 -2.4908 0.9776
4.8104 1.6357 -2.4923 0.9776
4.7542 1.8100 -2.4953 0.9776
4.6126 2.1478 -2.4958 0.9776
4.5328 2.3127 -2.4961 0.9776
4.4471 2.4746 -2.4964 0.9776
4.2586 2.7888 -2.4970 0.9776
4.0479 3.0888 -2.4976 0.9776
3.6929 3.5085 -2.4987 0.9776
3.4319 3.7663 -2.4994 0.9776
3.1530 4.0046 -2.5001 0.9775
3.0073 4.1161 -2.5005 0.9775
2.8576 4.2224 -2.5009 0.9775
1.7141 4.8007 -2.5005 0.9775
1.5401 4.8591 -2.5004 0.9775
1.1865 4.9569 -2.5002 0.9775
0.8267 5.0291 -2.5000 0.9775
0.6451 5.0554 -2.4999 0.9775
0.4627 5.0752 -2.4998 0.9776
0.2797 5.0884 -2.4997 0.9776
0.0963 5.0949 -2.4996 0.9776
-0.0871 5.0950 -2.4996 0.9776
-0.4534 5.0752 -2.4994 0.9776
-0.6358 5.0554 -2.4993 0.9776
-0.9978 4.9963 -2.4992 0.9776
-1.7044 4.8010 -2.4990 0.9776
-2.0453 4.6658 -2.4989 0.9776
-2.3756 4.5065 -2.4989 0.9776
-2.5362 4.4180 -2.4988 0.9776
-2.6937 4.3238 -2.4988 0.9776
-2.8475 4.2240 -2.4988 0.9776
-3.8109 3.3805 -2.4988 0.9776
-3.9301 3.2412 -2.4988 0.9776
4.8004 0.0179 -2.4903 0.9786
4.7898 0.3635 -2.4920 0.9786
4.7766 0.5360 -2.4936 0.9786
4.7564 0.7079 -2.4947 0.9786
4.7281 0.8787 -2.4948 0.9786
4.6937 1.0484 -2.4950 0.9786
4.6533 1.2168 -2.4952 0.9786
4.6069 1.3836 -2.4954 0.9786
4.5545 1.5487 -2.4956 0.9786
4.3622 2.0312 -2.4963 0.9785
4.2867 2.1871 -2.4966 0.9785
4.0273 2.6374 -2.4974 0.9785
3.8281 2.9210 -2.4980 0.9785
3.6089 3.1896 -2.4986 0.9785
3.3710 3.4419 -2.4993 0.9785
2.9815 3.7869 -2.5004 0.9785
2.8437 3.8923 -2.5007 0.9785
2.5567 4.0875 -2.5012 0.9785
2.4079 4.1767 -2.5011 0.9785
2.2559 4.2605 -2.5010 0.9785
1.9433 4.4114 -2.5008 0.9785
1.6208 4.5394 -2.5006 0.9785
1.4563 4.5946 -2.5005 0.9785
1.2899 4.6439 -2.5004 0.9785
1.1219 4.6872 -2.5003 0.9785
0.7817 4.7554 -2.5001 0.9785
-0.0824 4.8177 -2.4997 0.9785
-0.2557 4.8115 -2.4996 0.9785
-0.7729 4.7555 -2.4994 0.9785
-1.1129 4.6874 -2.4993 0.9785
-1.2809 4.6442 -2.4993 0.9785
-1.4472 4.5950 -2.4992 0.9785
-1.7740 4.4788 -2.4991 0.9785
-2.0916 4.3395 -2.4991 0.9785
-2.2464 4.2613 -2.4990 0.9785
-2.3983 4.1777 -2.4990 0.9785
-2.5471 4.0886 -2.4990 0.9785
-2.6926 3.9942 -2.4990 0.9785
-2.8346 3.8947 -2.4990 0.9785
-3.2379 3.5664 -2.4990 0.9785
-3.4862 3.3242 -2.4990 0.9785
-3.6036 3.1966 -2.4990 0.9785
-3.9272 2.7896 -2.4991 0.9785
-4.1179 2.4998 -2.4991 0.9785
-4.2053 2.3500 -2.4992 0.9785
4.5514 0.1810 -2.4948 0.9794
4.5271 0.5080 -2.4951 0.9794
4.4793 0.8325 -2.4953 0.9794
4.4084 1.1528 -2.4957 0.9794
4.3147 1.4672 -2.4961 0.9794
4.1988 1.7741 -2.4965 0.9794
4.1326 1.9243 -2.4968 0.9794
4.0610 2.0720 -2.4970 0.9794
3.8152 2.4984 -2.4978 0.9794
3.6264 2.7671 -2.4984 0.9794
3.4187 3.0216 -2.4990 0.9794
3.3082 3.1431 -2.4993 0.9794
3.1933 3.2605 -2.4996 0.9794
2.8244 3.5872 -2.5006 0.9794
2.4218 3.8717 -2.5012 0.9794
2.2808 3.9562 -2.5011 0.9794
1.8408 4.1786 -2.5008 0.9794
1.6891 4.2419 -2.5007 0.9794
1.5352 4.2998 -2.5006 0.9794
1.3794 4.3522 -2.5005 0.9794
1.2218 4.3988 -2.5005 0.9794
0.9021 4.4750 -2.5003 0.9794
0.5778 4.5280 -2.5001 0.9794
-0.2422 4.5576 -2.4998 0.9794
-0.4061 4.5459 -2.4997 0.9794
-0.7321 4.5046 -2.4996 0.9794
-1.0542 4.4401 -2.4995 0.9794
-1.2133 4.3992 -2.4994 0.9794
-1.3709 4.3526 -2.4994 0.9794
-1.9813 4.1106 -2.4992 0.9794
-2.1279 4.0365 -2.4992 0.9794
-2.2718 3.9573 -2.4992 0.9794
-2.4127 3.8729 -2.4992 0.9794
-2.5506 3.7836 -2.4992 0.9794
-3.0671 3.3783 -2.4991 0.9794
-3.1868 3.2657 -2.4991 0.9794
-3.3023 3.1489 -2.4991 0.9794
-3.4135 3.0280 -2.4992 0.9794
-3.6225 2.7746 -2.4992 0.9794
-3.7201 2.6424 -2.4992 0.9794
4.2954 0.4820 -2.4955 0.9802
4.2192 0.9424 -2.4960 0.9802
4.0939 1.3921 -2.4965 0.9802
3.9838 1.6833 -2.4969 0.9802
3.7802 2.1035 -2.4976 0.9802
3.7024 2.2384 -2.4979 0.9802
3.5325 2.4995 -2.4984 0.9802
3.4406 2.6254 -2.4987 0.9802
3.3442 2.7478 -2.4990 0.9802
3.2436 2.8667 -2.4992 0.9802
3.1387 2.9820 -2.4995 0.9802
3.0296 3.0934 -2.4998 0.9802
2.8000 3.3042 -2.5005 0.9802
2.6795 3.4033 -2.5008 0.9802
2.4283 3.5880 -2.5014 0.9802
2.2975 3.6730 -2.5013 0.9802
2.0271 3.8285 -2.5011 0.9802
1.7463 3.9641 -2.5009 0.9802
1.6024 4.0242 -2.5008 0.9802
1.4565 4.0791 -2.5007 0.9802
1.3087 4.1288 -2.5006 0.9802
1.0081 4.2120 -2.5005 0.9802
0.3932 4.3125 -2.5001 0.9802
0.0819 4.3294 -2.5000 0.9802
-0.0740 4.3294 -2.4999 0.9802
-0.6945 4.2735 -2.4997 0.9802
-0.8479 4.2457 -2.4996 0.9802
-1.0002 4.2123 -2.4996 0.9802
-1.1511 4.1735 -2.4996 0.9802
-1.3006 4.1293 -2.4995 0.9802
-1.7380 3.9649 -2.4994 0.9802
-1.8796 3.8997 -2.4994 0.9802
-2.2890 3.6743 -2.4993 0.9802
-2.4198 3.5895 -2.4993 0.9802
-2.5474 3.5000 -2.4993 0.9802
-2.6717 3.4061 -2.4993 0.9802
-2.7926 3.3077 -2.4993 0.9802
-3.1329 2.9874 -2.4993 0.9802
-3.2384 2.8727 -2.4993 0.9802
-3.5293 2.5069 -2.4994 0.9802
-3.6173 2.3783 -2.4994 0.9802
-3.7006 2.2465 -2.4994 0.9802
