ply
format ascii 1.0
element vertex 1151
property float32 x
property float32 y
property float32 z
property float32 I
end_header
8.6348 -16.9964 3.3615 0.9255
9.3823 -15.5711 3.2055 0.9288
11.0126 -15.6058 3.3679 0.9254
13.7372 -15.5719 3.6615 0.9191
14.7919 -15.5943 3.7899 0.9164
16.0205 -15.7122 3.9567 0.9129
17.2251 -15.7144 4.1113 0.9096
22.5828 -19.1547 5.2214 0.8867
23.2486 -18.3180 5.2189 0.8867
47.5683 -11.3348 8.6224 0.8199
47.5935 -9.5390 8.5589 0.8211
47.6376 -7.7703 8.5108 0.8220
47.6831 -6.0193 8.4746 0.8227
47.7285 -4.2809 8.4496 0.8231
47.8610 0.9046 8.4407 0.8233
47.9015 2.6381 8.4591 0.8230
47.9423 4.3813 8.4887 0.8224
48.0255 7.9164 8.5825 0.8206
25.8929 12.5814 5.0761 0.8896
24.4541 14.1494 4.9817 0.8916
13.1876 9.6738 2.8839 0.9357
12.6466 9.9990 2.8427 0.9366
11.4351 12.0961 2.9351 0.9346
10.8870 13.3240 3.0339 0.9325
11.9838 19.9643 4.1057 0.9098
15.9447 38.1222 7.2862 0.8455
14.3630 38.1560 7.1888 0.8474
12.8520 38.2808 7.1202 0.8487
11.3499 38.3433 7.0509 0.8501
8.6009 -18.5606 3.1338 0.9206
8.6692 -15.6386 2.7392 0.9302
9.3828 -15.5719 2.7851 0.9291
10.1779 -15.5888 2.8521 0.9274
11.8070 -15.5106 2.9862 0.9241
13.7380 -15.5729 3.1813 0.9194
14.7928 -15.5953 3.2929 0.9167
16.0215 -15.7132 3.4378 0.9132
17.2525 -15.7394 3.5776 0.9098
27.1862 -19.8725 5.1588 0.8726
37.2833 -23.3218 6.7370 0.8370
37.7218 10.5098 5.9989 0.8535
25.8433 10.3243 4.2633 0.8935
25.8672 11.4336 4.3326 0.8919
24.4532 14.1489 4.3280 0.8920
19.4948 12.2402 3.5264 0.9111
13.1866 9.6731 2.5054 0.9360
10.8865 13.3233 2.6358 0.9327
10.9094 14.3815 2.7653 0.9296
10.9347 15.5507 2.9123 0.9260
11.9831 19.9633 3.5669 0.9101
10.9658 21.6749 3.7212 0.9064
10.6928 23.1768 3.9102 0.9019
12.8514 38.2791 6.1858 0.8493
11.3132 38.2195 6.1061 0.8510
8.6003 -18.5593 2.6637 0.9208
8.6337 -16.9942 2.4822 0.9260
9.1614 -14.0320 2.1822 0.9346
9.8931 -14.0193 2.2344 0.9331
11.5230 -14.0540 2.3666 0.9293
13.7388 -15.5738 2.7044 0.9196
14.7937 -15.5963 2.7993 0.9169
16.0225 -15.7142 2.9225 0.9134
23.3659 -19.8189 3.9899 0.8837
25.3229 -19.9524 4.1982 0.8781
34.7866 -23.5492 5.4703 0.8441
36.2399 -22.6691 5.5664 0.8416
29.5780 9.4042 4.0417 0.8823
27.3697 9.8036 3.7859 0.8893
25.8424 10.3240 3.6238 0.8938
24.4523 14.1484 3.6788 0.8923
14.2044 9.6508 2.2363 0.9331
13.1856 9.6724 2.1295 0.9362
12.6456 9.9982 2.0992 0.9370
12.6619 10.7764 2.1652 0.9351
11.7267 12.4046 2.2229 0.9335
10.9210 12.4217 2.1538 0.9355
10.8859 13.3226 2.2404 0.9330
10.9341 15.5499 2.4754 0.9262
12.8588 19.7676 3.0709 0.9093
11.0334 19.9825 2.9724 0.9120
10.9331 21.6103 3.1538 0.9069
11.2356 24.3533 3.4926 0.8975
11.1757 26.7201 3.7716 0.8897
14.3617 38.1524 5.3086 0.8484
11.3488 38.3398 5.2068 0.8510
8.5997 -18.5581 2.1964 0.9210
8.6623 -15.6262 1.9185 0.9306
9.3118 -15.4540 1.9374 0.9300
14.7947 -15.5972 2.3085 0.9171
14.4260 -14.1484 2.1698 0.9219
15.4991 -14.1397 2.2528 0.9191
25.3247 -19.9538 3.4621 0.8784
35.6501 -24.1338 4.6229 0.8410
37.3058 -23.3358 4.7251 0.8378
45.7429 -2.4421 4.9190 0.8317
39.7364 9.5392 4.3882 0.8484
30.6132 9.7333 3.4495 0.8788
27.6320 9.8976 3.1518 0.8886
27.2450 10.8843 3.1504 0.8887
26.3726 11.6569 3.0962 0.8905
16.2263 8.6221 1.9731 0.9287
24.4515 14.1479 3.0335 0.8926
12.2577 9.6915 1.6780 0.9391
10.8115 9.8966 1.5739 0.9427
10.8278 10.6552 1.6313 0.9407
11.7260 12.4038 1.8329 0.9336
10.9204 12.4210 1.7760 0.9356
11.0328 19.9815 2.4510 0.9123
11.2347 24.3515 2.8798 0.8977
11.1748 26.7180 3.1099 0.8900
14.3610 38.1506 4.3773 0.8487
12.8502 38.2755 4.3355 0.8501
11.3483 38.3380 4.2934 0.8514
8.5992 -18.5568 1.7314 0.9212
8.6326 -16.9921 1.6134 0.9263
8.6618 -15.6253 1.5124 0.9308
8.6876 -14.4182 1.4250 0.9347
9.8940 -14.0205 1.4526 0.9334
12.7857 -15.5941 1.7071 0.9222
13.7405 -15.5757 1.7583 0.9200
14.7956 -15.5982 1.8200 0.9173
35.8330 -24.2576 3.6631 0.8405
37.3031 -23.3342 3.7247 0.8381
45.7415 -2.4420 3.8777 0.8320
37.7182 10.5088 3.3146 0.8546
28.1091 11.2296 2.5624 0.8856
26.3698 11.6557 2.4406 0.8907
16.2241 8.6210 1.5553 0.9289
14.2023 9.6493 1.4535 0.9334
11.4076 9.7089 1.2681 0.9416
10.8641 12.3569 1.3928 0.9361
10.8849 13.3213 1.4563 0.9333
10.9329 15.5482 1.6090 0.9265
12.8574 19.7654 1.9960 0.9097
11.9813 19.9603 1.9707 0.9108
11.1855 22.1092 2.0975 0.9053
11.2339 24.3497 2.2701 0.8979
12.8496 38.2738 3.4177 0.8504
8.6321 -16.9910 1.1818 0.9265
8.6871 -14.4174 1.0438 0.9348
9.1440 -14.0052 1.0372 0.9352
9.8945 -14.0213 1.0642 0.9335
10.6862 -14.0383 1.0940 0.9317
13.3703 -14.0957 1.2048 0.9251
14.3946 -14.1176 1.2503 0.9224
18.0159 -14.1950 1.4223 0.9122
33.4878 -22.6700 2.5077 0.8504
36.3049 -22.7097 2.6554 0.8423
39.7228 9.5359 2.5332 0.8490
30.6049 9.7307 1.9914 0.8792
16.2220 8.6198 1.1391 0.9290
19.4886 12.2363 1.4270 0.9119
14.1734 9.6297 1.0626 0.9336
13.1570 9.6514 1.0118 0.9367
12.2320 9.6712 0.9669 0.9394
11.3845 9.6893 0.9270 0.9418
10.8106 9.8958 0.9088 0.9430
10.8269 10.6543 0.9419 0.9409
10.8445 11.4713 0.9789 0.9387
10.8844 13.3207 1.0667 0.9334
10.9071 14.3786 1.1191 0.9302
10.9323 15.5474 1.1786 0.9267
11.9807 19.9593 1.4435 0.9109
10.9637 21.6707 1.5060 0.9073
14.3597 38.1471 2.5276 0.8493
12.8491 38.2720 2.5034 0.8506
9.8937 38.4784 2.4637 0.8528
8.6315 -16.9900 0.7514 0.9266
8.6608 -15.6234 0.7044 0.9310
12.4176 -14.0761 0.7401 0.9276
16.7035 -14.1679 0.8637 0.9161
18.0172 -14.1961 0.9045 0.9123
45.2755 -2.4171 1.7878 0.8340
47.7674 2.6307 1.8864 0.8257
47.5431 4.3448 1.8825 0.8260
39.7160 9.5343 1.6105 0.8492
37.7159 10.5081 1.5438 0.8549
27.3563 9.7988 1.1458 0.8902
25.8391 10.3226 1.0972 0.8946
25.8629 11.4317 1.1150 0.8930
16.2199 8.6187 0.7243 0.9291
19.4570 12.2165 0.9059 0.9121
14.1724 9.6289 0.6756 0.9337
12.2311 9.6705 0.6148 0.9395
11.3837 9.6886 0.5894 0.9419
10.8101 9.8954 0.5779 0.9430
10.8265 10.6539 0.5989 0.9410
10.8440 11.4708 0.6224 0.9388
10.8631 12.3558 0.6487 0.9363
10.9066 14.3779 0.7116 0.9303
10.9317 15.5466 0.7494 0.9267
11.0312 19.9786 0.8999 0.9127
10.6902 23.1713 1.0062 0.9029
12.0208 31.9339 1.3454 0.8723
9.4508 31.9274 1.3129 0.8752
8.8062 34.2487 1.3944 0.8680
8.5974 -18.5531 0.3454 0.9215
8.6310 -16.9889 0.3219 0.9266
8.6648 -15.6307 0.3019 0.9310
9.1450 -14.0067 0.2826 0.9353
9.8956 -14.0228 0.2899 0.9336
10.7461 -14.1169 0.2997 0.9315
11.5314 -14.0643 0.3072 0.9298
12.4183 -14.0770 0.3171 0.9277
13.3720 -14.0974 0.3282 0.9252
14.3964 -14.1194 0.3406 0.9225
18.0185 -14.1971 0.3875 0.9123
25.1595 -18.3910 0.5264 0.8828
27.2327 -18.4355 0.5555 0.8767
47.6177 -4.2709 0.8076 0.8259
45.2742 -2.4170 0.7659 0.8341
47.7288 0.9022 0.8064 0.8262
47.7659 2.6306 0.8081 0.8258
47.8033 4.3686 0.8108 0.8253
47.9175 9.6878 0.8258 0.8224
39.7091 9.5326 0.6898 0.8493
37.7147 10.5078 0.6613 0.8550
30.5967 9.7281 0.5423 0.8795
27.3530 9.7976 0.4908 0.8903
25.8383 10.3223 0.4700 0.8947
25.8867 12.5785 0.4862 0.8912
14.1713 9.6282 0.2894 0.9338
13.1809 9.6689 0.2761 0.9367
12.2543 9.6888 0.2639 0.9394
11.3830 9.6880 0.2525 0.9420
10.8097 9.8949 0.2475 0.9431
10.8260 10.6534 0.2566 0.9410
10.8626 12.3552 0.2779 0.9363
10.8833 13.3194 0.2905 0.9335
10.9312 15.5457 0.3210 0.9268
12.8552 19.7620 0.3982 0.9100
11.0306 19.9776 0.3855 0.9127
11.0663 21.8734 0.4141 0.9066
5.4129 11.7327 0.2183 0.9496
11.1712 26.7093 0.4890 0.8906
10.2725 30.5975 0.5452 0.8789
9.0613 30.6118 0.5393 0.8801
8.9460 34.7928 0.6068 0.8661
8.5968 -18.5518 -0.1151 0.9215
8.6857 -14.4150 -0.0948 0.9349
10.7467 -14.1177 -0.0999 0.9315
13.3728 -14.0983 -0.1094 0.9252
14.3973 -14.1203 -0.1135 0.9225
15.4480 -14.0930 -0.1177 0.9198
16.7116 -14.1748 -0.1234 0.9161
18.0197 -14.1981 -0.1292 0.9123
25.1757 -18.4028 -0.1756 0.8827
36.3059 -22.7104 -0.2411 0.8426
45.2729 -2.4170 -0.2553 0.8341
47.6904 -0.8212 -0.2685 0.8263
47.8395 6.1207 -0.2715 0.8245
47.8775 7.8920 -0.2732 0.8236
43.8079 8.8570 -0.2516 0.8363
37.4665 8.9944 -0.2169 0.8572
31.3975 8.7477 -0.1835 0.8778
22.3673 8.9357 -0.1356 0.9081
20.3157 8.9798 -0.1251 0.9150
18.5583 9.0175 -0.1162 0.9208
13.4457 9.1352 -0.0915 0.9370
9.3643 9.2150 -0.0740 0.9488
7.5612 9.2538 -0.0673 0.9533
7.0283 9.2652 -0.0655 0.9545
6.8096 10.4683 -0.0703 0.9513
6.7359 11.2216 -0.0737 0.9490
6.7835 14.7035 -0.0912 0.9373
6.7634 17.9673 -0.1081 0.9261
6.7336 22.7482 -0.1336 0.9095
6.7132 26.1091 -0.1518 0.8978
8.5962 -18.5506 -0.5757 0.9214
9.8967 -14.0243 -0.4833 0.9336
10.7473 -14.1185 -0.4996 0.9315
11.5326 -14.0658 -0.5122 0.9298
12.4198 -14.0786 -0.5286 0.9276
14.3982 -14.1212 -0.5679 0.9225
15.4490 -14.0940 -0.5888 0.9197
18.0210 -14.1991 -0.6460 0.9123
25.1981 -18.4192 -0.8789 0.8826
27.2370 -18.4384 -0.9261 0.8767
36.3090 -22.7123 -1.2059 0.8425
45.2715 -2.4169 -1.2766 0.8341
47.6890 -0.8212 -1.3430 0.8262
47.8004 4.3684 -1.3516 0.8252
47.8380 6.1206 -1.3580 0.8245
43.7992 8.8552 -1.2583 0.8363
20.3137 8.9788 -0.6254 0.9150
18.5565 9.0167 -0.5809 0.9208
14.5119 9.1116 -0.4825 0.9337
13.4447 9.1346 -0.4577 0.9370
11.5937 9.1665 -0.4162 0.9426
10.7905 9.1838 -0.3990 0.9449
10.0502 9.1997 -0.3837 0.9469
9.3637 9.2145 -0.3699 0.9488
8.7239 9.2282 -0.3576 0.9505
7.0279 9.2647 -0.3274 0.9545
6.8140 9.6906 -0.3336 0.9537
6.8092 10.4676 -0.3516 0.9513
5.7102 11.2866 -0.3562 0.9506
6.7138 14.5524 -0.4513 0.9379
6.7124 26.1059 -0.7590 0.8978
8.6626 -15.6267 -0.9061 0.9309
8.6848 -14.4134 -0.8534 0.9348
11.5332 -14.0665 -0.9225 0.9297
13.3744 -14.1000 -0.9856 0.9251
14.3992 -14.1221 -1.0228 0.9224
15.4500 -14.0949 -1.0606 0.9197
16.7134 -14.1763 -1.1114 0.9160
19.8961 -13.4689 -1.2185 0.9083
27.6032 -17.2665 -1.6512 0.8777
30.8092 -14.9063 -1.7357 0.8719
31.3993 -13.8158 -1.7397 0.8716
32.4900 -11.5761 -1.7492 0.8710
32.9965 -10.4301 -1.7550 0.8706
35.0833 -4.4287 -1.7933 0.8679
35.8958 -0.6181 -1.8207 0.8661
35.0561 0.6626 -1.7782 0.8690
33.9491 1.8697 -1.7243 0.8727
34.5559 5.6962 -1.7761 0.8691
34.7106 7.0177 -1.7959 0.8678
27.7365 8.8187 -1.4760 0.8900
14.5108 9.1109 -0.8689 0.9337
13.4437 9.1339 -0.8243 0.9370
11.5929 9.1658 -0.7495 0.9425
10.0495 9.1991 -0.6909 0.9469
9.3631 9.2139 -0.6662 0.9487
7.5604 9.2527 -0.6060 0.9533
7.0276 9.2642 -0.5897 0.9545
6.8089 10.4671 -0.6333 0.9512
6.2255 11.2750 -0.6532 0.9497
5.7099 11.2861 -0.6414 0.9506
6.0918 14.5650 -0.8006 0.9387
6.7623 17.9642 -0.9734 0.9260
6.7490 20.1024 -1.0754 0.9186
6.7116 26.1028 -1.3668 0.8977
8.5951 -18.5480 -1.4989 0.9213
8.6288 -16.9846 -1.3968 0.9264
8.6843 -14.4126 -1.2338 0.9347
9.8977 -14.0259 -1.2587 0.9335
10.6897 -14.0429 -1.2940 0.9317
14.4001 -14.1230 -1.4789 0.9223
15.4510 -14.0958 -1.5335 0.9195
22.0439 -11.6659 -1.8287 0.9048
24.9145 -8.8770 -1.9393 0.8994
25.2440 -7.9795 -1.9412 0.8993
25.5482 -7.0718 -1.9437 0.8991
25.8267 -6.1541 -1.9467 0.8990
26.3060 -4.2908 -1.9543 0.8986
26.5061 -3.3460 -1.9589 0.8984
26.6795 -2.3929 -1.9641 0.8981
26.8260 -1.4323 -1.9697 0.8979
27.0476 0.5113 -1.9835 0.8972
27.1073 1.4929 -1.9906 0.8968
27.1388 2.4801 -1.9982 0.8965
25.3821 5.1316 -1.8987 0.9014
25.3136 6.0768 -1.9088 0.9009
25.1360 7.9919 -1.9339 0.8996
22.3598 8.9327 -1.7655 0.9079
20.3095 8.9770 -1.6281 0.9148
18.5529 9.0150 -1.5124 0.9206
15.7004 9.0844 -1.3300 0.9298
14.5096 9.1101 -1.2562 0.9336
11.5921 9.1652 -1.0835 0.9425
10.7891 9.1825 -1.0388 0.9448
7.0272 9.2637 -0.8526 0.9544
6.8133 9.6896 -0.8685 0.9536
6.8085 10.4665 -0.9155 0.9512
6.2252 11.2744 -0.9443 0.9497
5.7096 11.2855 -0.9274 0.9505
6.1098 14.6079 -1.1610 0.9385
6.7617 17.9627 -1.4073 0.9259
6.7483 20.1005 -1.5547 0.9185
6.7108 26.0997 -1.9759 0.8976
8.5945 -18.5468 -1.9625 0.9211
8.6283 -16.9836 -1.8289 0.9263
8.6577 -15.6180 -1.7144 0.9308
9.8983 -14.0266 -1.6482 0.9333
10.6903 -14.0437 -1.6945 0.9315
13.3760 -14.1017 -1.8660 0.9249
15.9941 -13.5662 -2.0135 0.9192
16.3225 -12.8608 -1.9950 0.9199
16.9897 -11.5014 -1.9697 0.9209
17.3334 -10.8425 -1.9628 0.9211
19.4045 -9.3884 -2.0695 0.9170
19.9928 -7.9481 -2.0655 0.9172
20.2559 -7.2171 -2.0644 0.9172
20.4983 -6.4794 -2.0639 0.9172
20.7197 -5.7352 -2.0640 0.9172
21.3949 -2.7008 -2.0703 0.9170
21.6042 -1.1534 -2.0771 0.9167
21.7265 0.4107 -2.0862 0.9164
21.7436 1.9871 -2.0962 0.9160
21.7113 2.7778 -2.1014 0.9158
21.5751 4.3620 -2.1132 0.9153
20.0248 5.5792 -1.9957 0.9199
19.5420 7.8070 -2.0203 0.9189
19.3438 8.5502 -2.0304 0.9185
14.5085 9.1094 -1.6447 0.9335
13.4417 9.1325 -1.5601 0.9368
12.4781 9.1533 -1.4857 0.9397
10.7884 9.1819 -1.3601 0.9447
10.0483 9.1979 -1.3078 0.9467
9.3620 9.2128 -1.2610 0.9486
8.7224 9.2266 -1.2190 0.9503
8.1233 9.2395 -1.1811 0.9518
7.5596 9.2517 -1.1470 0.9531
6.8129 9.6890 -1.1371 0.9535
6.2249 11.2739 -1.2364 0.9496
5.7093 11.2850 -1.2142 0.9504
6.7129 14.5503 -1.5384 0.9376
6.0912 14.5637 -1.5155 0.9385
6.7611 17.9611 -1.8425 0.9258
6.7477 20.0986 -2.0354 0.9183
6.1425 23.8895 -2.3681 0.9056
8.1576 -17.6040 -2.3047 0.9248
8.7028 -17.1302 -2.2824 0.9255
8.6572 -15.6170 -2.1211 0.9306
8.6833 -14.4110 -1.9986 0.9345
10.6909 -14.0445 -2.0966 0.9314
11.5300 -14.0627 -2.1601 0.9294
11.9391 -13.5337 -2.1438 0.9299
12.9207 -11.7875 -2.0775 0.9320
13.2814 -11.2653 -2.0687 0.9323
13.6269 -10.7368 -2.0608 0.9325
16.3448 -7.9081 -2.1568 0.9295
16.5948 -7.3017 -2.1536 0.9296
16.8260 -6.6892 -2.1508 0.9297
17.2338 -5.4475 -2.1470 0.9298
17.8451 -2.9108 -2.1478 0.9298
17.9477 -2.2656 -2.1489 0.9297
18.0313 -1.6173 -2.1505 0.9297
18.1591 0.3432 -2.1574 0.9295
18.1017 2.3160 -2.1678 0.9291
18.0412 2.9739 -2.1720 0.9290
17.9598 3.6310 -2.1765 0.9289
17.8625 4.2881 -2.1821 0.9287
16.6634 5.9688 -2.1025 0.9312
16.1676 6.4589 -2.0681 0.9323
15.9763 7.0617 -2.0749 0.9321
15.7631 7.6594 -2.0818 0.9318
15.5279 8.2510 -2.0887 0.9316
15.2762 8.8390 -2.0965 0.9314
14.5073 9.1087 -2.0348 0.9333
13.4407 9.1318 -1.9302 0.9366
11.5905 9.1639 -1.7551 0.9422
10.7877 9.1813 -1.6827 0.9445
9.3614 9.2122 -1.5601 0.9485
8.7219 9.2260 -1.5081 0.9501
7.0264 9.2627 -1.3810 0.9542
6.2246 11.2733 -1.5297 0.9494
6.1804 14.7768 -1.9026 0.9375
4.9706 19.3314 -2.3710 0.9227
6.8866 -14.8611 -2.3208 0.9360
8.1640 -13.5491 -2.2413 0.9381
8.5411 -13.0818 -2.2136 0.9388
8.8942 -12.6038 -2.1857 0.9396
9.5812 -11.6858 -2.1411 0.9408
10.3376 -10.8984 -2.1284 0.9411
12.3121 -9.7009 -2.2209 0.9386
13.3071 -8.3240 -2.2240 0.9386
13.5638 -7.8178 -2.2182 0.9387
13.8024 -7.3044 -2.2126 0.9389
14.0225 -6.7845 -2.2072 0.9390
14.2362 -6.2640 -2.2037 0.9391
14.4432 -5.7419 -2.2022 0.9391
14.6331 -5.2137 -2.2010 0.9392
14.8058 -4.6801 -2.2001 0.9392
14.9613 -4.1413 -2.1996 0.9392
15.4078 -1.9450 -2.2004 0.9392
15.4751 -1.3880 -2.2015 0.9392
15.5559 -0.2678 -2.2044 0.9391
15.5693 0.2943 -2.2064 0.9390
15.5415 1.4203 -2.2112 0.9389
15.3633 3.1061 -2.2209 0.9386
14.8674 5.3254 -2.2376 0.9382
14.6937 5.8701 -2.2419 0.9381
13.4057 6.5139 -2.1118 0.9416
12.9708 7.5050 -2.1233 0.9413
12.4735 8.4747 -2.1367 0.9409
11.5897 9.1633 -2.0934 0.9421
10.7870 9.1807 -2.0070 0.9444
10.0470 9.1968 -1.9299 0.9465
9.3608 9.2116 -1.8608 0.9483
8.7214 9.2255 -1.7988 0.9500
8.1224 9.2385 -1.7430 0.9515
7.5587 9.2507 -1.6926 0.9529
7.0260 9.2622 -1.6472 0.9541
6.8073 10.4647 -1.7688 0.9508
6.1978 11.2248 -1.8168 0.9495
6.7180 14.5615 -2.2722 0.9373
4.7363 16.0006 -2.3643 0.9348
5.6982 -12.2966 -2.2327 0.9465
6.0970 -12.0011 -2.2176 0.9469
6.4983 -11.7224 -2.2080 0.9471
6.8867 -11.4292 -2.1982 0.9473
7.2627 -11.1238 -2.1885 0.9476
7.6269 -10.8078 -2.1792 0.9478
7.9800 -10.4831 -2.1704 0.9480
8.6570 -9.8131 -2.1558 0.9483
11.1258 -8.1327 -2.2703 0.9457
11.3857 -7.7077 -2.2650 0.9458
11.6277 -7.2734 -2.2594 0.9459
11.8601 -6.8357 -2.2551 0.9460
12.4748 -5.4889 -2.2452 0.9462
12.6438 -5.0265 -2.2415 0.9463
12.9335 -4.0882 -2.2346 0.9465
13.0698 -3.6177 -2.2341 0.9465
13.1906 -3.1431 -2.2338 0.9465
13.3854 -2.1833 -2.2342 0.9465
13.4592 -1.6990 -2.2348 0.9465
13.5854 -0.2339 -2.2384 0.9464
13.5955 0.2570 -2.2401 0.9464
13.4751 2.2212 -2.2498 0.9461
13.4046 2.7101 -2.2529 0.9461
13.3180 3.1972 -2.2563 0.9460
13.0939 4.1632 -2.2635 0.9458
12.9541 4.6401 -2.2668 0.9457
12.7969 5.1123 -2.2702 0.9457
12.6227 5.5794 -2.2735 0.9456
11.6934 6.2135 -2.1814 0.9477
11.2638 6.5174 -2.1438 0.9486
11.0492 6.9374 -2.1493 0.9485
10.8199 7.3512 -2.1549 0.9484
10.5762 7.7582 -2.1608 0.9482
10.3180 8.1579 -2.1669 0.9481
10.1465 8.6356 -2.1950 0.9474
9.9061 9.0678 -2.2124 0.9470
9.3603 9.2111 -2.1634 0.9482
7.0256 9.2617 -1.9151 0.9540
6.4247 12.6991 -2.3445 0.9439
6.0023 13.0102 -2.3604 0.9436
5.0466 13.4064 -2.3598 0.9436
3.7973 14.7682 -2.5120 0.9401
5.3003 -11.4379 -2.3695 0.9500
5.6470 -11.1154 -2.3434 0.9505
6.0041 -10.8309 -2.3277 0.9508
7.1598 -10.1459 -2.3341 0.9507
7.8300 -9.5498 -2.3212 0.9510
8.1519 -9.2407 -2.3161 0.9511
8.7649 -8.5962 -2.3075 0.9513
9.0541 -8.2599 -2.3036 0.9513
9.8487 -7.1992 -2.2930 0.9516
10.0885 -6.8295 -2.2899 0.9516
10.3149 -6.4522 -2.2869 0.9517
10.7193 -5.6728 -2.2796 0.9518
11.0745 -4.8728 -2.2742 0.9519
11.2319 -4.4652 -2.2719 0.9520
11.5058 -3.6369 -2.2681 0.9521
11.6220 -3.2170 -2.2666 0.9521
11.7201 -2.7927 -2.2646 0.9521
11.9381 -1.5070 -2.2617 0.9522
11.9890 -1.0753 -2.2625 0.9522
12.0479 -0.2074 -2.2649 0.9521
12.0493 0.6636 -2.2682 0.9521
12.0284 1.0992 -2.2703 0.9520
11.7040 3.2606 -2.2838 0.9518
11.5920 3.6856 -2.2863 0.9517
10.9967 5.3434 -2.2980 0.9515
10.6181 6.1437 -2.3058 0.9513
9.9011 6.2166 -2.1974 0.9535
9.5550 6.4918 -2.1713 0.9541
9.1036 7.1977 -2.1813 0.9539
8.6024 7.8745 -2.1920 0.9536
8.1144 8.5835 -2.2202 0.9531
7.9897 9.0877 -2.2744 0.9519
7.0252 9.2612 -2.1849 0.9538
6.7691 10.4059 -2.3333 0.9507
6.0614 10.9779 -2.3570 0.9502
5.6597 11.1868 -2.3565 0.9503
4.4155 11.7300 -2.3558 0.9503
3.3241 12.9281 -2.5090 0.9471
4.7490 -10.2483 -2.3876 0.9549
5.4243 -9.7850 -2.3649 0.9553
5.7573 -9.5549 -2.3580 0.9554
6.0825 -9.3163 -2.3518 0.9555
6.7081 -8.8123 -2.3410 0.9557
7.0077 -8.5470 -2.3363 0.9558
7.2978 -8.2725 -2.3318 0.9559
7.8486 -7.6976 -2.3238 0.9560
8.1087 -7.3975 -2.3201 0.9561
8.3586 -7.0897 -2.3168 0.9562
8.8251 -6.4509 -2.3107 0.9563
9.0412 -6.1205 -2.3079 0.9563
9.4388 -5.4402 -2.3028 0.9564
9.7889 -4.7361 -2.2986 0.9565
9.9457 -4.3762 -2.2968 0.9565
10.0892 -4.0109 -2.2950 0.9566
10.2192 -3.6411 -2.2932 0.9566
10.3369 -3.2674 -2.2916 0.9566
10.4421 -2.8904 -2.2902 0.9567
10.6146 -2.1274 -2.2883 0.9567
10.6818 -1.7423 -2.2878 0.9567
10.7362 -1.3553 -2.2874 0.9567
10.7778 -0.9667 -2.2874 0.9567
10.8191 -0.1863 -2.2873 0.9567
10.7935 0.9864 -2.2910 0.9567
10.7607 1.3768 -2.2931 0.9566
10.6418 1.7542 -2.2798 0.9569
10.6556 2.1543 -2.2979 0.9565
10.5802 2.5399 -2.3000 0.9565
10.2738 3.6800 -2.3068 0.9564
9.8533 4.7877 -2.3156 0.9562
9.6872 5.1474 -2.3188 0.9561
9.3183 5.8506 -2.3258 0.9560
7.9211 6.7416 -2.1987 0.9584
7.6961 7.0448 -2.2055 0.9582
7.4628 7.3438 -2.2132 0.9581
7.2205 7.6379 -2.2217 0.9579
6.9743 7.9327 -2.2327 0.9577
6.2802 8.9314 -2.3079 0.9563
6.0415 9.2874 -2.3420 0.9557
5.0308 9.9437 -2.3556 0.9555
4.6664 10.1145 -2.3546 0.9555
4.2961 10.2716 -2.3535 0.9555
3.3651 11.3683 -2.5061 0.9527
2.9520 11.4808 -2.5058 0.9527
4.3317 -9.3477 -2.4213 0.9586
4.6226 -9.0988 -2.3986 0.9589
4.9170 -8.8699 -2.3835 0.9592
5.5053 -8.4321 -2.3667 0.9595
6.3385 -7.7307 -2.3495 0.9598
6.6010 -7.4826 -2.3451 0.9598
7.1003 -6.9637 -2.3374 0.9600
7.5627 -6.4146 -2.3307 0.9601
7.9860 -5.8376 -2.3249 0.9602
8.1824 -5.5392 -2.3223 0.9602
8.5447 -4.9249 -2.3179 0.9603
8.7097 -4.6093 -2.3160 0.9603
8.8638 -4.2885 -2.3142 0.9603
9.2578 -3.2985 -2.3098 0.9604
9.3665 -2.9607 -2.3087 0.9604
9.5492 -2.2754 -2.3071 0.9605
9.7998 -0.5232 -2.3065 0.9605
9.8142 -0.1690 -2.3069 0.9605
9.7855 0.8943 -2.3094 0.9604
9.7519 1.2477 -2.3106 0.9604
9.7063 1.6000 -2.3120 0.9604
9.5792 2.2996 -2.3153 0.9603
9.4975 2.6461 -2.3171 0.9603
9.2988 3.3308 -2.3214 0.9602
9.1819 3.6681 -2.3238 0.9602
8.7620 4.6558 -2.3319 0.9600
8.2409 5.5990 -2.3415 0.9599
8.0459 5.9021 -2.3452 0.9598
7.4277 6.3217 -2.2923 0.9607
6.7246 6.6174 -2.2173 0.9620
6.5034 6.8793 -2.2249 0.9618
5.8475 7.7086 -2.2740 0.9610
5.3666 8.2499 -2.3130 0.9604
4.8218 8.7327 -2.3445 0.9598
4.2090 9.1230 -2.3613 0.9596
3.7534 9.9711 -2.5040 0.9572
3.3906 10.0992 -2.5037 0.9572
4.7734 -7.9220 -2.3947 0.9625
5.0300 -7.7041 -2.3822 0.9627
5.2892 -7.4952 -2.3752 0.9628
5.5410 -7.2791 -2.3686 0.9629
5.7863 -7.0572 -2.3629 0.9630
6.2549 -6.5942 -2.3533 0.9631
6.4780 -6.3533 -2.3493 0.9632
6.8998 -5.8524 -2.3426 0.9633
7.4668 -5.0547 -2.3346 0.9634
7.7974 -4.4942 -2.3302 0.9635
8.0890 -3.9137 -2.3266 0.9636
8.2199 -3.6166 -2.3252 0.9636
8.3405 -3.3157 -2.3239 0.9636
8.4507 -3.0110 -2.3228 0.9636
8.6395 -2.3914 -2.3210 0.9636
8.7179 -2.0773 -2.3204 0.9636
8.7855 -1.7608 -2.3200 0.9637
8.8423 -1.4422 -2.3197 0.9637
8.9599 -0.1543 -2.3202 0.9637
8.9325 0.8163 -2.3224 0.9636
8.9012 1.1389 -2.3235 0.9636
8.8589 1.4603 -2.3247 0.9636
8.7414 2.0985 -2.3276 0.9635
8.3762 3.3463 -2.3354 0.9634
8.1295 3.9502 -2.3402 0.9633
7.9904 4.2458 -2.3428 0.9633
7.8411 4.5369 -2.3455 0.9633
7.6816 4.8230 -2.3484 0.9632
7.5121 5.1038 -2.3514 0.9632
7.3328 5.3790 -2.3546 0.9631
6.5274 6.4234 -2.3711 0.9629
6.3118 6.6767 -2.3789 0.9627
5.7945 7.0916 -2.3711 0.9629
5.5402 7.3035 -2.3735 0.9628
5.2994 7.5365 -2.3854 0.9626
4.8265 8.0406 -2.4281 0.9620
4.0470 8.7719 -2.5013 0.9609
3.4041 9.0429 -2.5018 0.9609
3.0750 9.1590 -2.5015 0.9609
2.7420 9.2632 -2.5013 0.9609
3.6935 -7.9705 -2.4869 0.9641
3.9430 -7.7612 -2.4644 0.9645
4.6437 -7.1125 -2.4047 0.9653
5.0995 -6.6991 -2.3834 0.9656
5.5407 -6.2807 -2.3710 0.9658
5.7512 -6.0631 -2.3658 0.9659
6.1519 -5.6123 -2.3574 0.9660
6.3398 -5.3774 -2.3534 0.9660
6.6948 -4.8937 -2.3476 0.9661
7.0168 -4.3892 -2.3430 0.9662
7.1646 -4.1294 -2.3410 0.9662
7.3034 -3.8650 -2.3392 0.9662
7.5534 -3.3235 -2.3361 0.9663
7.8573 -2.4836 -2.3328 0.9663
7.9394 -2.1976 -2.3321 0.9663
8.0734 -1.6181 -2.3310 0.9663
8.2001 -0.7354 -2.3307 0.9664
8.2353 0.1557 -2.3318 0.9663
8.2079 0.7501 -2.3333 0.9663
8.1395 1.3417 -2.3353 0.9663
7.8817 2.5060 -2.3413 0.9662
7.6930 3.0733 -2.3452 0.9661
7.5839 3.3521 -2.3473 0.9661
7.4651 3.6273 -2.3496 0.9661
7.1990 4.1654 -2.3546 0.9660
7.0520 4.4277 -2.3573 0.9660
6.8960 4.6853 -2.3601 0.9659
6.5570 5.1844 -2.3664 0.9658
5.7978 6.1330 -2.3892 0.9655
5.3870 6.5929 -2.4102 0.9652
5.1741 6.8209 -2.4236 0.9650
4.9539 7.0452 -2.4381 0.9648
4.4906 7.4811 -2.4701 0.9644
4.2445 7.6872 -2.4859 0.9642
3.7021 8.0242 -2.5017 0.9639
3.4106 8.1542 -2.5022 0.9639
3.1135 8.2712 -2.5019 0.9639
3.4113 -7.3613 -2.4955 0.9666
3.6673 -7.2186 -2.4904 0.9667
3.8970 -7.0298 -2.4722 0.9669
4.9329 -6.0163 -2.3930 0.9680
5.3234 -5.6122 -2.3792 0.9681
5.5118 -5.4057 -2.3746 0.9682
5.6899 -5.1908 -2.3689 0.9683
6.3409 -4.2925 -2.3552 0.9685
6.6214 -3.8163 -2.3507 0.9685
6.7497 -3.5720 -2.3489 0.9685
6.9808 -3.0715 -2.3458 0.9686
7.1770 -2.5571 -2.3434 0.9686
7.2619 -2.2954 -2.3425 0.9686
7.4621 -1.4956 -2.3408 0.9687
7.5101 -1.2250 -2.3405 0.9687
7.5785 -0.6797 -2.3403 0.9687
7.5987 -0.4056 -2.3405 0.9687
7.6107 0.1439 -2.3413 0.9686
7.6025 0.4187 -2.3419 0.9686
7.5577 0.9670 -2.3435 0.9686
7.4753 1.5113 -2.3458 0.9686
7.4202 1.7813 -2.3471 0.9686
7.2816 2.3152 -2.3501 0.9685
7.1985 2.5785 -2.3519 0.9685
6.7764 3.6007 -2.3602 0.9684
6.6489 3.8471 -2.3627 0.9684
6.5130 4.0893 -2.3654 0.9683
6.2191 4.5620 -2.3723 0.9682
6.0633 4.7939 -2.3774 0.9682
5.9002 5.0217 -2.3831 0.9681
5.3786 5.6895 -2.4081 0.9678
4.8039 6.3330 -2.4449 0.9673
4.5989 6.5404 -2.4592 0.9671
4.3865 6.7433 -2.4743 0.9669
3.6714 7.2568 -2.5014 0.9665
3.1391 7.5053 -2.5022 0.9665
2.8658 7.6130 -2.5020 0.9665
2.5885 7.7102 -2.5016 0.9665
2.0247 7.8742 -2.5007 0.9665
3.1572 -6.8130 -2.4960 0.9688
3.4008 -6.6939 -2.4958 0.9688
3.6380 -6.5627 -2.4943 0.9689
4.2350 -6.0013 -2.4416 0.9695
4.4212 -5.8080 -2.4263 0.9697
4.9570 -5.2259 -2.3943 0.9701
5.1273 -5.0286 -2.3872 0.9702
5.2963 -4.8317 -2.3831 0.9702
5.6059 -4.4170 -2.3724 0.9704
6.0272 -3.7702 -2.3632 0.9705
6.1543 -3.5471 -2.3612 0.9705
6.6658 -2.3750 -2.3522 0.9706
6.9301 -1.3890 -2.3494 0.9706
7.0110 -0.8850 -2.3490 0.9707
7.0384 -0.6313 -2.3490 0.9707
7.0569 -0.3767 -2.3491 0.9707
7.0677 0.1336 -2.3498 0.9706
7.0600 0.3888 -2.3503 0.9706
7.0182 0.8979 -2.3519 0.9706
6.9840 1.1513 -2.3528 0.9706
6.7606 2.1495 -2.3581 0.9705
6.0539 3.8011 -2.3761 0.9703
5.9234 4.0244 -2.3804 0.9703
5.6437 4.4622 -2.3915 0.9701
5.4976 4.6790 -2.3997 0.9700
5.0177 5.3076 -2.4279 0.9697
4.6663 5.7108 -2.4514 0.9694
4.4819 5.9084 -2.4651 0.9692
4.0869 6.2828 -2.4914 0.9689
3.8690 6.4454 -2.4988 0.9688
3.6371 6.5871 -2.5012 0.9688
3.3973 6.7151 -2.5015 0.9688
2.6518 7.0446 -2.5021 0.9688
2.1358 7.2154 -2.5013 0.9688
1.8736 7.2867 -2.5009 0.9688
3.1617 -6.2234 -2.4963 0.9708
3.3841 -6.1047 -2.4961 0.9708
3.9776 -5.6365 -2.4670 0.9711
4.1530 -5.4557 -2.4519 0.9713
4.3223 -5.2717 -2.4378 0.9715
4.6435 -4.8953 -2.4129 0.9717
4.8013 -4.7088 -2.4049 0.9718
5.0996 -4.3254 -2.3913 0.9720
5.2418 -4.1301 -2.3865 0.9720
5.5086 -3.7291 -2.3788 0.9721
5.6279 -3.5204 -2.3739 0.9722
5.7465 -3.3121 -2.3719 0.9722
5.8581 -3.1002 -2.3702 0.9722
6.3579 -1.7598 -2.3591 0.9724
6.4153 -1.5286 -2.3584 0.9724
6.5058 -1.0611 -2.3572 0.9724
6.5644 -0.5887 -2.3569 0.9724
6.5914 0.1246 -2.3575 0.9724
6.5841 0.3626 -2.3581 0.9724
6.5130 1.0736 -2.3605 0.9723
6.4733 1.3088 -2.3617 0.9723
6.4255 1.5425 -2.3631 0.9723
6.3060 2.0050 -2.3663 0.9723
6.2342 2.2330 -2.3681 0.9723
6.0714 2.6836 -2.3738 0.9722
5.8788 3.1238 -2.3807 0.9721
5.7736 3.3407 -2.3854 0.9721
5.6571 3.5519 -2.3887 0.9720
5.5402 3.7641 -2.3953 0.9719
5.4149 3.9722 -2.4015 0.9719
5.2852 4.1787 -2.4094 0.9718
4.6997 4.9714 -2.4465 0.9714
4.5390 5.1627 -2.4583 0.9712
4.0099 5.7027 -2.4930 0.9708
3.5993 5.9963 -2.5010 0.9707
2.4650 6.5484 -2.5022 0.9707
2.2266 6.6321 -2.5018 0.9707
1.9854 6.7072 -2.5014 0.9707
1.7416 6.7736 -2.5011 0.9707
3.1585 -5.6977 -2.4965 0.9725
3.3619 -5.5795 -2.4963 0.9725
3.5609 -5.4540 -2.4961 0.9725
3.9138 -5.1414 -2.4762 0.9727
4.5167 -4.4298 -2.4244 0.9733
4.6549 -4.2465 -2.4146 0.9734
4.9219 -3.8780 -2.4013 0.9735
5.0462 -3.6886 -2.3953 0.9736
5.3884 -3.1057 -2.3834 0.9737
5.4930 -2.9070 -2.3816 0.9737
5.6731 -2.4962 -2.3752 0.9738
5.7565 -2.2885 -2.3739 0.9738
5.8329 -2.0782 -2.3729 0.9738
5.9582 -1.6493 -2.3692 0.9739
6.0571 -1.2140 -2.3674 0.9739
6.0961 -0.9943 -2.3670 0.9739
6.1499 -0.5516 -2.3662 0.9739
6.1655 -0.3291 -2.3661 0.9739
6.1675 0.3397 -2.3671 0.9739
6.0212 1.4455 -2.3730 0.9738
5.9688 1.6630 -2.3745 0.9738
5.8473 2.0945 -2.3802 0.9737
5.7758 2.3074 -2.3835 0.9737
5.0890 3.7331 -2.4187 0.9733
4.9665 3.9267 -2.4262 0.9732
4.8387 4.1182 -2.4349 0.9731
4.5645 4.4917 -2.4541 0.9729
4.4193 4.6748 -2.4653 0.9728
4.1043 5.0231 -2.4858 0.9726
3.9343 5.1865 -2.4947 0.9725
3.1551 5.7142 -2.5014 0.9724
2.9471 5.8251 -2.5017 0.9724
2.7351 5.9285 -2.5020 0.9724
2.3003 6.1109 -2.5022 0.9724
2.0779 6.1891 -2.5019 0.9724
1.8528 6.2593 -2.5015 0.9724
3.1484 -5.2252 -2.4967 0.9740
3.3348 -5.1077 -2.4966 0.9740
3.5168 -4.9836 -2.4964 0.9740
3.8432 -4.6873 -2.4808 0.9741
3.9908 -4.5238 -2.4690 0.9743
4.1313 -4.3554 -2.4569 0.9744
4.9731 -3.1107 -2.4008 0.9750
5.4158 -2.1530 -2.3853 0.9751
5.5483 -1.7538 -2.3815 0.9752
5.6025 -1.5508 -2.3792 0.9752
5.7330 -0.9351 -2.3774 0.9752
5.7852 -0.5188 -2.3773 0.9752
5.8006 -0.3097 -2.3774 0.9752
5.8096 0.1098 -2.3782 0.9752
5.8033 0.3196 -2.3787 0.9752
5.7690 0.7381 -2.3803 0.9752
5.7410 0.9463 -2.3813 0.9752
5.6636 1.3596 -2.3838 0.9751
5.6159 1.5647 -2.3860 0.9751
5.3626 2.3704 -2.3996 0.9750
5.2850 2.5680 -2.4048 0.9749
5.1073 2.9551 -2.4149 0.9748
5.0092 3.1452 -2.4208 0.9748
4.6820 3.7019 -2.4428 0.9745
4.5624 3.8831 -2.4520 0.9744
4.4373 4.0618 -2.4621 0.9743
4.3037 4.2351 -2.4712 0.9742
4.0183 4.5705 -2.4907 0.9740
3.8607 4.7249 -2.4972 0.9740
3.1453 5.2399 -2.5012 0.9739
2.9543 5.3506 -2.5015 0.9739
2.5611 5.5512 -2.5021 0.9739
2.3593 5.6408 -2.5024 0.9739
1.9457 5.7953 -2.5020 0.9739
1.5220 5.9191 -2.5013 0.9739
2.4096 -5.1999 -2.4977 0.9753
2.5956 -5.1090 -2.4975 0.9753
2.7782 -5.0116 -2.4973 0.9753
2.9572 -4.9077 -2.4971 0.9753
3.1322 -4.7973 -2.4969 0.9753
3.3032 -4.6808 -2.4968 0.9753
3.4698 -4.5582 -2.4966 0.9753
3.6319 -4.4297 -2.4965 0.9753
3.7785 -4.2832 -2.4892 0.9754
4.2808 -3.6309 -2.4464 0.9758
4.3937 -3.4619 -2.4378 0.9759
4.6027 -3.1159 -2.4223 0.9760
4.8839 -2.5846 -2.4081 0.9762
5.1765 -1.8443 -2.3949 0.9763
5.2378 -1.6556 -2.3941 0.9763
5.3750 -1.0773 -2.3891 0.9764
5.4097 -0.8824 -2.3888 0.9764
5.4378 -0.6864 -2.3887 0.9764
5.4592 -0.4896 -2.3888 0.9764
5.4810 -0.0944 -2.3891 0.9764
5.4818 0.1036 -2.3895 0.9764
5.4641 0.4994 -2.3913 0.9763
5.4447 0.6966 -2.3922 0.9763
5.4185 0.8932 -2.3933 0.9763
5.3856 1.0888 -2.3946 0.9763
5.2562 1.6712 -2.4037 0.9762
5.0678 2.2400 -2.4147 0.9761
4.8275 2.7933 -2.4307 0.9760
4.7350 2.9730 -2.4366 0.9759
4.6378 3.1510 -2.4436 0.9758
4.5361 3.3275 -2.4518 0.9758
4.4291 3.5019 -2.4607 0.9757
4.1930 3.8382 -2.4774 0.9755
4.0671 4.0024 -2.4868 0.9754
3.9298 4.1570 -2.4931 0.9753
3.4676 4.5712 -2.5005 0.9753
3.3006 4.6939 -2.5008 0.9753
3.1293 4.8105 -2.5011 0.9753
2.9538 4.9210 -2.5013 0.9753
2.4051 5.2132 -2.5021 0.9753
2.2156 5.2973 -2.5025 0.9753
2.0228 5.3737 -2.5023 0.9753
1.8272 5.4425 -2.5020 0.9753
1.6293 5.5043 -2.5017 0.9753
1.4293 5.5589 -2.5014 0.9753
2.6161 -4.7192 -2.4976 0.9765
2.7846 -4.6213 -2.4975 0.9765
3.4201 -4.1713 -2.4968 0.9765
3.8319 -3.7581 -2.4844 0.9766
4.3690 -2.9576 -2.4422 0.9770
4.8436 -1.9256 -2.4127 0.9773
4.9586 -1.5674 -2.4072 0.9773
5.0069 -1.3859 -2.4048 0.9774
5.0512 -1.2036 -2.4036 0.9774
5.0898 -1.0201 -2.4028 0.9774
5.1454 -0.6495 -2.4006 0.9774
5.1643 -0.4632 -2.4001 0.9774
5.1843 -0.0893 -2.4001 0.9774
5.1804 0.2853 -2.4016 0.9774
5.1695 0.4724 -2.4029 0.9774
5.1527 0.6593 -2.4045 0.9774
5.1298 0.8456 -2.4066 0.9773
5.0231 1.3994 -2.4137 0.9773
4.9244 1.7639 -2.4212 0.9772
4.8010 2.1221 -2.4297 0.9771
4.7304 2.2985 -2.4344 0.9771
4.3977 2.9879 -2.4610 0.9768
4.1956 3.3173 -2.4758 0.9767
3.9692 3.6333 -2.4908 0.9766
3.8442 3.7829 -2.4965 0.9765
3.7102 3.9246 -2.4999 0.9765
3.4179 4.1830 -2.5004 0.9765
3.2650 4.3041 -2.5007 0.9765
3.1077 4.4197 -2.5009 0.9765
2.7812 4.6333 -2.5014 0.9765
2.6124 4.7313 -2.5017 0.9765
2.2646 4.9085 -2.5022 0.9765
1.9045 5.0595 -2.5024 0.9765
1.7204 5.1244 -2.5021 0.9765
1.3458 5.2340 -2.5015 0.9765
2.1414 -4.6210 -2.4983 0.9776
2.3067 -4.5404 -2.4981 0.9776
2.4690 -4.4538 -2.4979 0.9776
2.9356 -4.1599 -2.4975 0.9776
3.0837 -4.0510 -2.4973 0.9776
3.2278 -3.9368 -2.4972 0.9776
3.3677 -3.8174 -2.4971 0.9776
3.5032 -3.6932 -2.4969 0.9776
3.9655 -3.1245 -2.4764 0.9778
4.0590 -2.9670 -2.4662 0.9778
4.1534 -2.8117 -2.4603 0.9779
4.3229 -2.4916 -2.4475 0.9780
4.3995 -2.3282 -2.4416 0.9781
4.4708 -2.1631 -2.4362 0.9781
4.5381 -1.9967 -2.4320 0.9782
4.5989 -1.8283 -2.4276 0.9782
4.6556 -1.6587 -2.4243 0.9782
4.7073 -1.4879 -2.4217 0.9782
4.7955 -1.1427 -2.4182 0.9783
4.8609 -0.7929 -2.4159 0.9783
4.9155 -0.2624 -2.4146 0.9783
4.9221 -0.0848 -2.4148 0.9783
4.9232 0.0931 -2.4153 0.9783
4.9185 0.2709 -2.4163 0.9783
4.9081 0.4486 -2.4176 0.9783
4.7245 1.5022 -2.4318 0.9782
4.6746 1.6745 -2.4357 0.9781
4.6194 1.8455 -2.4401 0.9781
4.5597 2.0155 -2.4454 0.9780
4.4934 2.1834 -2.4505 0.9780
4.3457 2.5145 -2.4628 0.9779
4.1743 2.8361 -2.4755 0.9778
4.0802 2.9931 -2.4822 0.9777
3.7581 3.4400 -2.4991 0.9776
3.6325 3.5746 -2.4999 0.9775
3.2255 3.9475 -2.5006 0.9775
2.7805 4.2744 -2.5013 0.9775
2.3027 4.5514 -2.5020 0.9775
2.1370 4.6320 -2.5022 0.9775
1.9686 4.7067 -2.5025 0.9775
1.2700 4.9393 -2.5016 0.9775
2.0250 -4.3698 -2.4985 0.9785
2.1813 -4.2935 -2.4984 0.9785
2.3347 -4.2117 -2.4982 0.9785
2.7760 -3.9338 -2.4978 0.9785
2.9161 -3.8308 -2.4976 0.9785
3.1847 -3.6100 -2.4974 0.9785
3.3128 -3.4925 -2.4973 0.9785
3.6704 -3.1132 -2.4968 0.9785
3.8641 -2.8245 -2.4831 0.9787
3.9568 -2.6786 -2.4789 0.9787
4.0366 -2.5250 -2.4701 0.9788
4.3218 -1.9016 -2.4495 0.9789
4.3808 -1.7416 -2.4457 0.9790
4.4814 -1.4166 -2.4382 0.9790
4.6227 -0.7539 -2.4298 0.9791
4.6808 -0.0805 -2.4286 0.9791
4.6817 0.0885 -2.4292 0.9791
4.6674 0.4266 -2.4314 0.9791
4.6313 0.7635 -2.4350 0.9791
4.6057 0.9312 -2.4377 0.9790
4.5750 1.0983 -2.4408 0.9790
4.4493 1.5937 -2.4518 0.9789
4.3392 1.9180 -2.4612 0.9788
4.2752 2.0773 -2.4659 0.9788
4.1316 2.3906 -2.4763 0.9787
4.0546 2.5458 -2.4837 0.9787
3.6693 3.1229 -2.4996 0.9785
3.4349 3.3802 -2.5001 0.9785
3.3109 3.5023 -2.5003 0.9785
3.1825 3.6198 -2.5005 0.9785
2.7731 3.9438 -2.5011 0.9785
2.4817 4.1344 -2.5016 0.9785
2.3311 4.2217 -2.5018 0.9785
2.1772 4.3035 -2.5020 0.9785
2.0206 4.3798 -2.5023 0.9785
1.6994 4.5146 -2.5025 0.9785
1.5351 4.5725 -2.5022 0.9785
1.3689 4.6245 -2.5020 0.9785
1.9182 -4.1394 -2.4988 0.9794
2.0663 -4.0672 -2.4986 0.9794
2.2117 -3.9897 -2.4985 0.9794
2.3542 -3.9070 -2.4983 0.9794
2.7625 -3.6289 -2.4979 0.9794
3.0168 -3.4198 -2.4977 0.9794
3.2555 -3.1929 -2.4975 0.9794
3.3686 -3.0731 -2.4974 0.9794
3.4772 -2.9493 -2.4973 0.9794
3.5813 -2.8218 -2.4972 0.9794
3.7667 -2.5499 -2.4913 0.9795
3.8479 -2.4070 -2.4859 0.9795
4.0585 -1.9636 -2.4694 0.9796
4.2278 -1.5063 -2.4581 0.9797
4.3522 -1.0371 -2.4505 0.9798
4.4092 -0.7192 -2.4468 0.9798
4.4298 -0.5592 -2.4454 0.9798
4.4624 -0.0768 -2.4444 0.9799
4.4632 0.0844 -2.4449 0.9798
4.4356 0.5675 -2.4492 0.9798
4.3923 0.8880 -2.4543 0.9798
4.3618 1.0471 -2.4568 0.9798
4.3261 1.2053 -2.4596 0.9797
4.2852 1.3625 -2.4628 0.9797
4.1325 1.8266 -2.4746 0.9796
4.0726 1.9789 -2.4799 0.9796
3.8579 2.4223 -2.4950 0.9794
3.4758 2.9582 -2.4998 0.9794
3.2537 3.2018 -2.5002 0.9794
3.1362 3.3175 -2.5004 0.9794
2.6268 3.7357 -2.5012 0.9794
2.4904 3.8284 -2.5014 0.9794
2.0623 4.0764 -2.5021 0.9794
1.9139 4.1485 -2.5023 0.9794
1.2966 4.3804 -2.5020 0.9794
1.1375 4.4239 -2.5018 0.9794
1.8199 -3.9271 -2.4990 0.9802
1.9604 -3.8587 -2.4988 0.9802
2.0983 -3.7851 -2.4987 0.9802
2.2335 -3.7067 -2.4985 0.9802
2.3657 -3.6234 -2.4984 0.9802
2.4950 -3.5355 -2.4983 0.9802
2.7433 -3.3459 -2.4981 0.9802
2.8622 -3.2445 -2.4979 0.9802
3.0887 -3.0292 -2.4978 0.9802
3.2991 -2.7982 -2.4976 0.9802
3.3978 -2.6772 -2.4975 0.9802
3.5820 -2.4249 -2.4974 0.9802
3.6672 -2.2939 -2.4973 0.9802
3.8736 -1.8741 -2.4844 0.9803
3.9357 -1.7317 -2.4825 0.9803
3.9892 -1.5859 -2.4785 0.9804
4.0781 -1.2890 -2.4693 0.9804
4.1179 -1.1398 -2.4668 0.9805
4.1540 -0.9898 -2.4655 0.9805
4.2102 -0.6867 -2.4628 0.9805
4.2297 -0.5339 -2.4614 0.9805
4.2445 -0.3807 -2.4604 0.9805
4.2546 -0.2271 -2.4599 0.9805
4.2600 -0.0733 -2.4599 0.9805
4.2607 0.0805 -2.4603 0.9805
4.2345 0.5418 -2.4647 0.9805
4.1614 0.9990 -2.4708 0.9804
4.1262 1.1496 -2.4730 0.9804
3.9989 1.5975 -2.4862 0.9803
3.9421 1.7424 -2.4884 0.9803
3.8164 2.0279 -2.4952 0.9802
3.6662 2.3019 -2.4993 0.9802
3.3964 2.6854 -2.4998 0.9802
3.2975 2.8065 -2.5000 0.9802
3.1942 2.9239 -2.5002 0.9802
2.9753 3.1473 -2.5005 0.9802
2.8599 3.2530 -2.5007 0.9802
2.7408 3.3544 -2.5009 0.9802
2.6182 3.4514 -2.5011 0.9802
2.3626 3.6320 -2.5015 0.9802
2.0946 3.7936 -2.5019 0.9802
1.9565 3.8671 -2.5021 0.9802
1.3794 4.1088 -2.5023 0.9802
1.2301 4.1555 -2.5021 0.9802
