ply
format ascii 1.0
element vertex 1145
property float32 x
property float32 y
property float32 z
property float32 I
end_header
27.5431 -36.3345 8.0395 0.8309
27.8030 -34.0636 7.7530 0.8364
28.6152 -30.3260 7.3520 0.8442
33.9746 -29.0054 7.8769 0.8341
33.8062 -26.8240 7.6094 0.8392
39.7262 -27.1145 8.4809 0.8225
22.0830 14.6704 4.6748 0.8979
20.4557 14.6747 4.4390 0.9028
17.7240 14.7520 4.0661 0.9106
10.0825 10.4207 2.5567 0.9428
12.4822 14.9079 3.4284 0.9241
11.6185 14.9348 3.3364 0.9260
9.9748 14.9197 3.1645 0.9297
8.5577 15.0341 3.0503 0.9321
8.0893 16.9341 3.3091 0.9266
8.1957 18.8710 3.6277 0.9198
8.1585 23.2198 4.3397 0.9049
9.3620 39.9600 7.2368 0.8465
5.5800 -18.7367 2.9949 0.9239
27.5845 -39.2404 7.3481 0.8236
28.1308 -25.8192 5.8495 0.8568
39.6931 -27.0919 7.3621 0.8233
25.5675 14.4545 4.4994 0.8879
23.6641 14.5238 4.2535 0.8937
20.3799 14.6204 3.8424 0.9035
18.9622 14.6627 3.6721 0.9076
10.0591 10.3965 2.2162 0.9431
13.3569 14.8359 3.0582 0.9224
9.2491 14.9713 2.6959 0.9313
8.1945 17.1543 2.9124 0.9260
9.0608 29.0880 4.6673 0.8840
6.3391 -24.4652 3.2911 0.9031
28.2160 -34.5696 5.8108 0.8353
28.0224 -25.7198 4.9531 0.8578
39.5367 13.7618 5.4515 0.8446
40.2538 15.6536 5.6243 0.8401
25.4815 14.4059 3.8118 0.8886
23.5681 14.4649 3.6010 0.8945
21.8538 14.5182 3.4166 0.8996
18.8958 14.6113 3.1105 0.9081
16.4141 14.6909 2.8685 0.9150
10.0360 10.3727 1.8795 0.9434
13.3179 14.7926 2.5920 0.9228
8.2623 21.0640 2.9464 0.9128
10.1815 28.9772 3.9996 0.8835
28.0607 -25.7549 4.0900 0.8579
35.0820 9.4500 3.9014 0.8640
43.4239 13.3871 4.8795 0.8329
38.8747 13.5313 4.4201 0.8474
38.4070 16.5468 4.4907 0.8452
39.1218 18.5476 4.6492 0.8401
23.4735 14.4068 2.9575 0.8951
21.7705 14.4629 2.8066 0.9002
16.3615 14.6439 2.3579 0.9155
15.3349 14.7505 2.2848 0.9180
13.2794 14.7498 2.1312 0.9233
12.3762 14.7814 2.0702 0.9254
11.5225 14.8115 2.0151 0.9273
9.9869 14.9379 1.9295 0.9303
8.4930 14.9205 1.8436 0.9333
8.1122 18.6786 2.1867 0.9213
10.1578 28.9098 3.2904 0.8840
9.0190 28.9538 3.2565 0.8851
8.8217 32.3718 3.6029 0.8737
9.1735 39.1554 4.3184 0.8506
6.3679 -24.5764 2.1492 0.9031
5.6025 -18.8122 1.6616 0.9242
28.1547 -25.8412 3.2351 0.8578
34.9232 9.4072 3.0617 0.8649
43.1322 13.2971 3.8208 0.8343
38.6380 13.4489 3.4633 0.8485
36.9002 14.3495 3.3516 0.8531
36.9765 15.9304 3.4083 0.8508
36.6965 17.3978 3.4379 0.8496
37.3438 19.3766 3.5615 0.8446
25.2663 14.2842 2.4570 0.8900
23.4901 14.4170 2.3332 0.8953
20.1586 14.4616 2.1002 0.9052
18.8537 14.5788 2.0175 0.9088
16.3095 14.5974 1.8529 0.9159
15.2879 14.7053 1.7957 0.9184
9.9905 10.3257 1.2163 0.9440
13.2412 14.7074 1.6753 0.9236
11.4912 14.7712 1.5842 0.9276
10.6839 14.8009 1.5453 0.9293
8.4719 14.8834 1.4497 0.9336
7.9092 15.1344 1.4456 0.9337
8.1189 16.9961 1.5945 0.9272
8.7731 32.1935 2.8247 0.8746
9.1131 38.8973 3.3819 0.8518
5.8901 -22.7324 1.4562 0.9102
7.6928 -22.8032 1.4923 0.9081
8.6305 -22.8397 1.5140 0.9068
27.8490 -25.5606 2.3440 0.8594
34.8805 9.3958 2.2401 0.8652
42.8454 13.2087 2.7802 0.8355
36.8527 14.3310 2.4520 0.8535
36.9282 15.9096 2.4934 0.8512
37.0881 19.2440 2.5910 0.8458
25.1607 14.2246 1.7923 0.8906
23.3973 14.3601 1.7023 0.8958
20.0866 14.4099 1.5329 0.9057
18.7893 14.5290 1.4728 0.9092
16.2581 14.5513 1.3530 0.9163
15.2414 14.6605 1.3114 0.9187
13.2034 14.6655 1.2237 0.9240
12.3075 14.6993 1.1888 0.9260
10.6557 14.7620 1.1290 0.9296
9.8889 14.7913 1.1033 0.9312
9.1553 14.8195 1.0802 0.9326
8.0581 18.5541 1.2544 0.9221
8.9780 28.8221 1.8720 0.8860
5.6306 -18.9065 0.7779 0.9241
8.6507 -22.8934 0.9650 0.9067
9.6199 -22.9318 0.9806 0.9052
11.6633 -23.0156 1.0174 0.9019
13.8783 -23.1067 1.0628 0.8977
15.0646 -23.1552 1.0893 0.8953
34.8459 9.3864 1.4230 0.8655
36.8055 14.3127 1.5572 0.8538
36.8085 15.8581 1.5804 0.8518
36.9575 17.5215 1.6128 0.8490
37.0379 19.2180 1.6453 0.8462
25.0563 14.1655 1.1350 0.8912
23.3055 14.3037 1.0782 0.8963
21.5264 14.3007 1.0190 0.9017
18.6377 14.4118 0.9290 0.9100
14.5142 12.0804 0.7446 0.9272
14.4066 12.8942 0.7624 0.9255
15.1240 14.5477 0.8275 0.9194
13.1660 14.6239 0.7759 0.9243
9.8636 14.7534 0.6998 0.9314
9.1323 14.7824 0.6851 0.9328
8.4302 14.8102 0.6720 0.9341
8.0315 18.4928 0.7950 0.9225
10.1128 28.7816 1.2029 0.8850
8.9577 28.7570 1.1877 0.8864
8.6781 31.8446 1.3015 0.8762
5.9168 -22.8353 0.3985 0.9099
7.7285 -22.9090 0.4084 0.9078
9.6429 -22.9866 0.4211 0.9051
10.6487 -23.0291 0.4286 0.9035
12.7793 -23.1192 0.4462 0.8997
13.9146 -23.1671 0.4565 0.8975
15.1050 -23.2173 0.4679 0.8951
20.5492 -23.4075 0.5261 0.8828
23.8789 -23.5516 0.5665 0.8744
47.8360 12.8855 0.8368 0.8202
42.2852 13.0360 0.7475 0.8378
37.9489 13.2091 0.6788 0.8515
36.7608 15.8375 0.6761 0.8520
24.9529 14.1071 0.4842 0.8917
18.4079 12.2290 0.3733 0.9154
18.6971 13.4131 0.3887 0.9121
18.5748 14.3631 0.3966 0.9103
14.4671 12.0412 0.3179 0.9275
13.4402 12.0292 0.3047 0.9304
13.6738 13.1527 0.3205 0.9269
9.9237 10.2566 0.2411 0.9445
11.3989 14.6526 0.3136 0.9284
9.1096 14.7455 0.2928 0.9330
8.4096 14.7740 0.2872 0.9343
8.0050 18.4320 0.3394 0.9228
6.7366 34.2487 0.5896 0.8697
9.6660 -23.0417 -0.1407 0.9049
10.6749 -23.0858 -0.1432 0.9033
12.8120 -23.1784 -0.1491 0.8995
15.1456 -23.2797 -0.1564 0.8949
22.2266 -23.5555 -0.1823 0.8785
23.9553 -23.6269 -0.1894 0.8741
25.8264 -23.7043 -0.1974 0.8692
27.8678 -23.7919 -0.2063 0.8637
30.1074 -23.8892 -0.2164 0.8575
42.0110 12.9515 -0.2475 0.8387
37.7254 13.1313 -0.2249 0.8523
36.7845 15.8478 -0.2255 0.8520
19.2277 11.8010 -0.1270 0.9137
17.8506 11.8587 -0.1207 0.9178
17.6033 12.6285 -0.1220 0.9170
14.4204 12.0024 -0.1056 0.9277
13.4553 12.0428 -0.1017 0.9303
13.0919 14.5415 -0.1102 0.9247
12.2064 14.5786 -0.1071 0.9268
11.3686 14.6136 -0.1042 0.9286
10.5726 14.6468 -0.1017 0.9303
9.8135 14.6785 -0.0994 0.9318
8.3891 14.7379 -0.0955 0.9344
7.8216 14.9669 -0.0951 0.9347
7.9788 18.3716 -0.1128 0.9230
6.6834 33.9783 -0.1950 0.8706
5.8139 36.4201 -0.2076 0.8628
8.7120 -23.0556 -0.6940 0.9061
9.6892 -23.0970 -0.7053 0.9046
10.7013 -23.1427 -0.7179 0.9030
11.7514 -23.1893 -0.7320 0.9012
16.4294 -23.3717 -0.8044 0.8920
20.6740 -23.5497 -0.8824 0.8821
22.2953 -23.6282 -0.9147 0.8781
30.2206 -23.9790 -1.0863 0.8570
32.6910 -24.0779 -1.1432 0.8500
35.4520 -24.1971 -1.2086 0.8422
42.0839 -24.4924 -1.3711 0.8230
42.2605 11.3837 -1.2324 0.8393
41.7403 12.8680 -1.2299 0.8396
37.5044 13.0544 -1.1182 0.8531
36.7369 15.8272 -1.1263 0.8521
36.8113 17.4522 -1.1471 0.8496
36.8885 19.1405 -1.1702 0.8468
17.7849 11.8151 -0.6012 0.9181
16.4750 11.8190 -0.5709 0.9221
13.3569 11.9547 -0.5047 0.9308
12.4684 11.9932 -0.4871 0.9331
9.9012 10.2333 -0.4009 0.9446
12.1731 14.5388 -0.5339 0.9269
11.3384 14.5748 -0.5200 0.9288
10.4890 14.5310 -0.5046 0.9308
8.0527 20.5298 -0.6210 0.9155
7.1507 22.9561 -0.6770 0.9083
6.2660 22.9934 -0.6711 0.9090
6.3297 27.0169 -0.7813 0.8949
6.0368 30.6913 -0.8808 0.8823
4.8543 30.4090 -0.8671 0.8841
4.7826 -18.4582 -0.9670 0.9265
5.5681 -18.6965 -0.9893 0.9248
12.2166 -20.3400 -1.2033 0.9093
13.3978 -20.5932 -1.2459 0.9063
16.0054 -21.1141 -1.3437 0.8993
22.5473 -22.2381 -1.6061 0.8809
24.5611 -22.5429 -1.6907 0.8750
26.7768 -22.8603 -1.7855 0.8685
29.2297 -23.1927 -1.8923 0.8612
31.9641 -23.5426 -2.0133 0.8530
35.0363 -23.9134 -2.1513 0.8438
42.2977 -24.6168 -2.4819 0.8220
45.5962 10.5418 -2.3734 0.8291
44.6789 12.0351 -2.3466 0.8308
22.8112 14.0004 -1.3574 0.8983
17.0040 12.1985 -1.0613 0.9196
16.0287 12.3943 -1.0276 0.9221
16.0067 14.3263 -1.0894 0.9176
14.8974 14.3296 -1.0483 0.9205
13.0185 14.4601 -0.9867 0.9250
9.8098 14.6730 -0.8951 0.9317
9.0419 14.6360 -0.8725 0.9334
8.3483 14.6663 -0.8558 0.9346
7.7695 16.2647 -0.9142 0.9304
7.9450 20.2552 -1.1034 0.9165
7.1347 22.9047 -1.2166 0.9084
5.4063 27.4855 -1.4206 0.8939
4.4385 27.8043 -1.4279 0.8934
4.2322 -16.3339 -1.2372 0.9346
4.7600 -15.9830 -1.2228 0.9353
7.5474 -16.3222 -1.3185 0.9304
8.3314 -16.4406 -1.3514 0.9287
9.1499 -16.5531 -1.3868 0.9269
13.8821 -17.0080 -1.6097 0.9157
14.9879 -17.0727 -1.6657 0.9129
16.1602 -17.1264 -1.7265 0.9099
18.7351 -17.1956 -1.8646 0.9030
24.2466 -16.5491 -2.1524 0.8889
27.0256 -17.0564 -2.3432 0.8797
29.1278 -16.9521 -2.4711 0.8736
31.4322 -16.8121 -2.6136 0.8668
36.7890 -16.3988 -2.9533 0.8508
46.2586 12.4607 -3.5127 0.8252
36.7143 17.4062 -2.9792 0.8496
36.9072 19.1502 -3.0487 0.8464
24.5476 13.8779 -2.0676 0.8931
22.7505 13.9631 -1.9572 0.8985
17.0956 14.2290 -1.6309 0.9147
9.8809 10.2123 -1.0419 0.9446
12.9821 14.4196 -1.4226 0.9251
12.1069 14.4597 -1.3828 0.9272
11.2783 14.4976 -1.3468 0.9290
10.4348 14.4559 -1.3072 0.9310
9.7850 14.6359 -1.2909 0.9318
9.0195 14.5997 -1.2583 0.9335
7.7464 16.2163 -1.3177 0.9305
5.9339 15.1280 -1.1915 0.9369
8.0162 22.8146 -1.7731 0.9076
7.1188 22.8535 -1.7551 0.9085
4.9665 25.2497 -1.8868 0.9019
4.0959 25.6585 -1.9052 0.9010
3.7464 -14.4589 -1.4340 0.9417
4.3343 -14.5537 -1.4579 0.9408
4.9394 -14.6414 -1.4835 0.9398
7.5569 -14.9122 -1.6050 0.9350
9.7678 -15.0137 -1.7196 0.9306
10.5616 -15.0245 -1.7632 0.9289
12.2480 -15.0059 -1.8596 0.9251
14.0841 -14.9261 -1.9702 0.9208
16.0962 -14.7735 -2.0975 0.9159
17.1780 -14.6655 -2.1684 0.9132
19.5171 -14.3750 -2.3271 0.9072
20.7857 -14.1870 -2.4160 0.9038
25.0725 -13.4105 -2.7298 0.8920
32.2823 -11.6919 -3.2963 0.8711
36.7863 -10.4049 -3.6702 0.8576
45.1905 -7.6592 -4.4004 0.8318
48.5749 -6.4481 -4.7043 0.8213
44.7552 10.3473 -4.4101 0.8314
40.9457 12.6230 -4.1135 0.8418
36.5250 14.2036 -3.7624 0.8543
36.6685 19.0263 -3.9660 0.8470
24.4478 13.8215 -2.6962 0.8933
22.6629 13.9093 -2.5529 0.8987
16.8854 12.1134 -1.9951 0.9199
15.9836 12.3594 -1.9398 0.9220
17.0407 14.1833 -2.1285 0.9148
15.9079 14.2379 -2.0496 0.9178
14.8733 14.3065 -1.9813 0.9204
9.8707 10.2018 -1.3628 0.9446
12.9457 14.3792 -1.8575 0.9252
11.2484 14.4591 -1.7587 0.9290
10.4078 14.4185 -1.7072 0.9310
9.7602 14.5989 -1.6859 0.9319
8.9972 14.5635 -1.6435 0.9335
8.3078 14.5951 -1.6123 0.9347
7.7359 14.8028 -1.6035 0.9351
7.8753 18.1332 -1.8980 0.9236
5.9204 15.0934 -1.5565 0.9369
5.9249 16.8627 -1.7159 0.9307
6.0287 19.3540 -1.9461 0.9218
6.1647 22.6217 -2.2510 0.9101
3.8136 23.8898 -2.3226 0.9074
3.3107 -12.7773 -1.5679 0.9482
4.3474 -12.8866 -1.6155 0.9467
4.8851 -12.9280 -1.6416 0.9459
5.4369 -12.9606 -1.6695 0.9450
7.1847 -12.9979 -1.7641 0.9419
7.8008 -12.9879 -1.7997 0.9408
8.4354 -12.9657 -1.8374 0.9396
9.0895 -12.9303 -1.8775 0.9383
9.7643 -12.8809 -1.9200 0.9370
11.1810 -12.7362 -2.0131 0.9340
11.9257 -12.6387 -2.0641 0.9324
17.9799 -11.3475 -2.5255 0.9179
18.9907 -11.0524 -2.6101 0.9153
22.3026 -9.9414 -2.9005 0.9063
23.5115 -9.4836 -3.0115 0.9029
27.5113 -7.7814 -3.3962 0.8912
28.9857 -7.0849 -3.5445 0.8867
30.5405 -6.3121 -3.7045 0.8819
32.1821 -5.4545 -3.8773 0.8768
35.7557 -3.4452 -4.2669 0.8653
39.7743 -0.9635 -4.7260 0.8519
46.1338 8.9341 -5.5819 0.8276
41.0321 9.4865 -5.0026 0.8440
40.7465 10.9759 -5.0126 0.8437
40.6856 12.5429 -5.0573 0.8424
36.4782 14.1854 -4.6492 0.8541
36.5467 15.7453 -4.7270 0.8519
33.1915 15.7361 -4.3633 0.8625
32.1469 16.6802 -4.3020 0.8643
24.3483 13.7653 -3.3224 0.8934
22.5756 13.8557 -3.1465 0.8988
16.8264 12.0711 -2.4599 0.9200
12.0410 14.3810 -2.2280 0.9272
10.4364 14.4581 -2.1181 0.9307
9.6899 14.4936 -2.0710 0.9322
7.7145 14.7621 -1.9785 0.9351
7.8497 18.0742 -2.3407 0.9237
5.9068 15.0588 -1.9215 0.9369
5.9011 16.7949 -2.1146 0.9308
6.0013 19.2659 -2.3970 0.9219
5.1859 22.1351 -2.7005 0.9125
3.8799 -11.5010 -1.7198 0.9521
4.3523 -11.5179 -1.7446 0.9515
4.8348 -11.5252 -1.7709 0.9508
5.3280 -11.5223 -1.7987 0.9500
5.8325 -11.5094 -1.8282 0.9492
6.8770 -11.4499 -1.8925 0.9475
7.9723 -11.3410 -1.9642 0.9455
9.7203 -11.0724 -2.0876 0.9422
10.9633 -10.8131 -2.1818 0.9397
11.6101 -10.6561 -2.2329 0.9383
12.9582 -10.2818 -2.3438 0.9354
13.6609 -10.0617 -2.4040 0.9338
14.3840 -9.8175 -2.4675 0.9321
15.1281 -9.5477 -2.5347 0.9303
15.8943 -9.2503 -2.6057 0.9284
16.6833 -8.9234 -2.6807 0.9264
17.4960 -8.5648 -2.7601 0.9243
20.0860 -7.2747 -3.0269 0.9173
21.0027 -6.7640 -3.1264 0.9147
21.9477 -6.2078 -3.2318 0.9120
22.9216 -5.6027 -3.3434 0.9091
23.9251 -4.9448 -3.4616 0.9060
26.0234 -3.4545 -3.7196 0.8994
31.8068 1.5157 -4.5118 0.8793
33.0513 2.7674 -4.6994 0.8746
34.3215 4.1194 -4.8979 0.8697
35.6145 5.5784 -5.1077 0.8645
35.9829 8.3192 -5.2329 0.8614
35.3007 9.5089 -5.1800 0.8627
27.9797 13.2652 -4.3874 0.8824
28.0367 14.5475 -4.4754 0.8802
20.7592 11.7362 -3.3789 0.9082
16.7674 12.0288 -2.9239 0.9200
15.9383 12.3244 -2.8547 0.9218
14.7747 14.2116 -2.9047 0.9205
13.7898 14.2524 -2.8099 0.9230
12.8730 14.2985 -2.7260 0.9252
12.0081 14.3417 -2.6503 0.9272
9.6652 14.4567 -2.4640 0.9322
8.9524 14.4912 -2.4135 0.9335
8.2673 14.5239 -2.3679 0.9347
7.7532 16.2307 -2.5486 0.9299
5.8932 15.0242 -2.2867 0.9369
5.7027 20.9263 -3.0732 0.9161
4.8996 20.9130 -3.0434 0.9169
3.0877 -10.3680 -1.7822 0.9571
3.5011 -10.3779 -1.8043 0.9566
3.9218 -10.3786 -1.8278 0.9560
4.7863 -10.3509 -1.8787 0.9548
5.2306 -10.3216 -1.9062 0.9542
6.1447 -10.2306 -1.9660 0.9528
7.0947 -10.0926 -2.0323 0.9512
8.0823 -9.9023 -2.1057 0.9495
8.5909 -9.7859 -2.1452 0.9486
9.1097 -9.6543 -2.1867 0.9476
9.6390 -9.5068 -2.2303 0.9466
10.7296 -9.1603 -2.3241 0.9444
11.2915 -8.9594 -2.3746 0.9432
11.8647 -8.7387 -2.4275 0.9420
13.0457 -8.2334 -2.5414 0.9394
14.9052 -7.2965 -2.7339 0.9349
15.5486 -6.9309 -2.8044 0.9333
16.8702 -6.1100 -2.9558 0.9298
17.5478 -5.6513 -3.0370 0.9280
18.2362 -5.1580 -3.1221 0.9260
21.0845 -2.7989 -3.5039 0.9174
22.5513 -1.3578 -3.7218 0.9125
23.2903 -0.5642 -3.8380 0.9099
24.0304 0.2811 -3.9590 0.9072
25.5036 2.1354 -4.2161 0.9014
26.9468 4.2207 -4.4933 0.8953
27.6476 5.3541 -4.6393 0.8921
27.7809 7.4833 -4.7397 0.8899
27.8524 8.5865 -4.8015 0.8886
27.5900 9.6034 -4.8126 0.8883
27.8408 10.8265 -4.9210 0.8859
27.9443 13.2484 -5.0947 0.8822
27.9984 14.5277 -5.1964 0.8800
19.7499 11.1655 -3.7375 0.9121
18.7217 11.4904 -3.6188 0.9148
17.4040 11.5621 -3.4421 0.9188
16.5083 11.8429 -3.3470 0.9209
15.4800 11.9700 -3.2236 0.9237
13.4920 12.0756 -2.9829 0.9292
12.1662 13.5134 -2.9955 0.9289
11.9751 14.3023 -3.0730 0.9272
10.3821 14.3829 -2.9222 0.9306
7.7300 16.1820 -2.9543 0.9299
7.7984 17.9561 -3.2250 0.9237
5.8796 14.9895 -2.6525 0.9368
5.9467 19.0906 -3.2940 0.9221
5.3967 19.8034 -3.3814 0.9202
3.2107 20.1127 -3.3553 0.9207
3.5664 -9.4381 -1.8964 0.9598
4.7381 -9.3499 -1.9702 0.9582
5.9647 -9.1681 -2.0558 0.9565
6.3864 -9.0851 -2.0873 0.9558
6.8146 -8.9898 -2.1203 0.9551
7.6907 -8.7604 -2.1911 0.9537
9.0543 -8.3103 -2.3100 0.9512
9.5220 -8.1293 -2.3533 0.9503
10.9639 -7.4832 -2.4950 0.9474
11.4569 -7.2307 -2.5465 0.9464
11.9559 -6.9582 -2.6001 0.9453
14.0041 -5.6487 -2.8383 0.9404
15.0531 -4.8479 -2.9725 0.9377
15.5817 -4.4072 -3.0436 0.9362
17.1722 -2.9104 -3.2737 0.9316
18.2248 -1.7560 -3.4414 0.9282
19.7612 0.2312 -3.7146 0.9227
21.1967 2.5441 -4.0127 0.9168
22.0624 4.2725 -4.2239 0.9126
22.4585 5.1924 -4.3327 0.9104
23.1591 7.1396 -4.5552 0.9061
22.0637 7.6798 -4.3911 0.9093
22.3039 8.6734 -4.4981 0.9072
21.9893 10.4251 -4.5741 0.9057
19.1796 10.8432 -4.1412 0.9142
17.7947 10.9215 -3.9244 0.9185
16.8779 11.2125 -3.8086 0.9208
13.1302 11.7518 -3.3121 0.9308
12.2660 11.7985 -3.1990 0.9331
12.0125 13.3427 -3.3746 0.9295
10.3548 14.3451 -3.3254 0.9305
9.6158 14.3828 -3.2519 0.9320
8.9076 14.4186 -3.1856 0.9333
8.2267 14.4526 -3.1258 0.9346
7.6505 14.6396 -3.1048 0.9350
7.7067 16.1332 -3.3606 0.9298
7.7727 17.8970 -3.6675 0.9237
5.8300 16.5927 -3.3057 0.9309
5.8144 18.6659 -3.6747 0.9235
3.7462 19.0454 -3.6484 0.9240
2.5835 -8.6751 -1.9133 0.9637
2.9235 -8.6658 -1.9332 0.9633
3.9696 -8.5848 -1.9993 0.9621
4.3273 -8.5391 -2.0235 0.9616
4.6894 -8.4836 -2.0490 0.9611
5.0559 -8.4179 -2.0757 0.9606
5.4270 -8.3415 -2.1036 0.9601
6.9556 -7.9231 -2.2286 0.9578
7.7456 -7.6394 -2.2996 0.9565
8.5514 -7.3006 -2.3767 0.9551
10.6236 -6.1828 -2.5982 0.9510
11.0454 -5.9079 -2.6478 0.9501
11.8931 -5.3014 -2.7524 0.9482
12.3178 -4.9685 -2.8076 0.9471
13.1656 -4.2400 -2.9237 0.9450
13.5870 -3.8430 -2.9847 0.9439
14.4205 -2.9804 -3.1126 0.9416
15.2341 -2.0222 -3.2484 0.9391
16.0176 -0.9644 -3.3919 0.9365
16.3943 -0.3971 -3.4664 0.9352
17.1090 0.8153 -3.6206 0.9324
17.4433 1.4605 -3.7001 0.9309
17.7594 2.1315 -3.7809 0.9295
18.3284 3.5494 -3.9462 0.9265
18.5765 4.2948 -4.0303 0.9250
19.1450 6.6639 -4.2850 0.9205
19.2672 7.4925 -4.3698 0.9190
18.2439 8.6494 -4.2679 0.9208
18.2444 9.4665 -4.3447 0.9194
17.6696 9.9895 -4.2906 0.9204
16.1077 10.7009 -4.0877 0.9240
15.0048 10.7644 -3.9035 0.9273
14.3223 11.0748 -3.8270 0.9287
13.3707 11.1287 -3.6772 0.9313
12.6009 11.2781 -3.5746 0.9332
11.9532 12.3542 -3.6337 0.9321
10.2725 14.2310 -3.7100 0.9308
9.6362 14.4133 -3.6649 0.9316
7.6291 14.5986 -3.4818 0.9349
7.6833 16.0843 -3.7679 0.9297
7.7470 17.8378 -4.1108 0.9236
5.8522 14.9197 -3.3877 0.9366
5.8064 16.5253 -3.7025 0.9309
5.4532 17.5066 -3.8759 0.9278
4.7767 17.5285 -3.8403 0.9284
2.6978 -7.9970 -1.9835 0.9659
3.3316 -7.9419 -2.0241 0.9652
3.6536 -7.9014 -2.0459 0.9649
5.3123 -7.5570 -2.1710 0.9628
6.3435 -7.2259 -2.2598 0.9613
7.0442 -6.9476 -2.3253 0.9602
7.3979 -6.7900 -2.3600 0.9596
7.7535 -6.6194 -2.3960 0.9590
8.4692 -6.2378 -2.4721 0.9577
9.5493 -5.5576 -2.5967 0.9556
9.9094 -5.3002 -2.6411 0.9549
10.2687 -5.0268 -2.6870 0.9541
10.6267 -4.7369 -2.7344 0.9533
10.9827 -4.4300 -2.7833 0.9525
11.3361 -4.1057 -2.8336 0.9517
12.3729 -3.0243 -2.9935 0.9490
13.0358 -2.2094 -3.1074 0.9471
13.3556 -1.7729 -3.1664 0.9461
15.0345 1.2588 -3.5458 0.9399
15.2610 1.8317 -3.6124 0.9388
15.4679 2.4228 -3.6796 0.9377
15.6536 3.0314 -3.7473 0.9366
15.9543 4.2976 -3.8833 0.9344
16.0657 4.9529 -3.9512 0.9333
16.2017 6.3004 -4.0856 0.9311
16.2103 7.6853 -4.2163 0.9289
15.2037 7.8888 -4.0256 0.9320
15.0105 9.2127 -4.1393 0.9302
14.8473 9.8636 -4.1893 0.9294
13.7000 10.5937 -4.0701 0.9313
13.0226 10.8390 -3.9820 0.9327
11.8982 11.4447 -3.8800 0.9344
11.8757 14.1836 -4.3476 0.9268
11.0684 14.2277 -4.2365 0.9286
10.3001 14.2693 -4.1360 0.9302
8.8625 14.3455 -3.9630 0.9331
8.1857 14.3807 -3.8890 0.9343
7.6076 14.5574 -3.8603 0.9347
7.6599 16.0352 -4.1765 0.9296
7.4348 17.1190 -4.3864 0.9262
5.8385 14.8847 -3.7577 0.9364
4.4495 16.3276 -3.9773 0.9328
3.8345 16.3668 -3.9507 0.9333
2.6787 16.7804 -3.9937 0.9326
1.9300 -7.4486 -1.9922 0.9687
3.0860 -7.3564 -2.0655 0.9676
3.3816 -7.3130 -2.0861 0.9673
4.2827 -7.1305 -2.1536 0.9662
4.5876 -7.0513 -2.1781 0.9658
5.8257 -6.6360 -2.2863 0.9642
6.4536 -6.3652 -2.3469 0.9632
6.7691 -6.2129 -2.3790 0.9627
7.0853 -6.0490 -2.4121 0.9622
8.0344 -5.4837 -2.5186 0.9606
8.3497 -5.2697 -2.5564 0.9600
8.9763 -4.8012 -2.6357 0.9588
9.5941 -4.2766 -2.7197 0.9575
10.4944 -3.3797 -2.8546 0.9555
10.7847 -3.0504 -2.9019 0.9547
11.0688 -2.7055 -2.9503 0.9540
11.3460 -2.3450 -2.9998 0.9533
11.8756 -1.5764 -3.1018 0.9517
12.3659 -0.7446 -3.2076 0.9501
13.1933 1.1047 -3.4279 0.9468
13.3613 1.6037 -3.4843 0.9459
13.7514 3.1793 -3.6544 0.9433
13.8392 3.7279 -3.7109 0.9425
13.9574 5.4276 -3.8774 0.9400
13.9443 6.0076 -3.9313 0.9392
13.9032 6.5915 -3.9839 0.9384
13.8330 7.1776 -4.0350 0.9376
12.7946 7.8527 -3.8869 0.9399
12.4593 8.9382 -3.9702 0.9386
12.2465 9.4697 -4.0082 0.9380
11.9257 9.9260 -4.0174 0.9379
11.3873 10.1919 -3.9568 0.9388
10.4212 11.5752 -4.0327 0.9377
10.0447 11.9967 -4.0512 0.9374
9.6428 12.3951 -4.0661 0.9372
8.7682 13.1150 -4.0847 0.9369
8.2988 13.4331 -4.0883 0.9368
7.8105 13.7214 -4.0880 0.9368
7.3052 13.9788 -4.0838 0.9369
6.7852 14.2043 -4.0758 0.9370
6.2527 14.3971 -4.0640 0.9372
5.7098 14.5567 -4.0486 0.9374
4.6834 15.0352 -4.0774 0.9370
4.1079 15.0740 -4.0453 0.9375
3.6542 15.5973 -4.1478 0.9360
3.0699 15.6074 -4.1185 0.9364
2.4904 15.6007 -4.0904 0.9368
2.8718 -6.8457 -2.1016 0.9696
3.4193 -6.7475 -2.1414 0.9690
3.6957 -6.6860 -2.1627 0.9687
4.8154 -6.3524 -2.2566 0.9674
5.6652 -6.0039 -2.3369 0.9663
7.3640 -5.0262 -2.5240 0.9636
7.6434 -4.8239 -2.5587 0.9631
7.9208 -4.6098 -2.5944 0.9626
8.4673 -4.1450 -2.6688 0.9616
8.9995 -3.6300 -2.7471 0.9605
9.2588 -3.3533 -2.7877 0.9599
9.5128 -3.0637 -2.8292 0.9593
9.7609 -2.7608 -2.8716 0.9587
10.0022 -2.4448 -2.9149 0.9581
10.2361 -2.1156 -2.9590 0.9575
10.8852 -1.0488 -3.0958 0.9556
11.2655 -0.2729 -3.1901 0.9542
11.7389 0.9829 -3.3348 0.9522
12.0719 2.3378 -3.4810 0.9502
12.2094 5.2602 -3.7635 0.9462
12.1532 5.7618 -3.8076 0.9456
10.6121 8.2059 -3.7976 0.9458
10.1420 9.0772 -3.8531 0.9450
9.8705 9.4943 -3.8771 0.9447
8.9961 9.9922 -3.8063 0.9456
8.6566 10.3388 -3.8173 0.9455
7.9359 10.9941 -3.8385 0.9452
7.5478 11.2896 -3.8445 0.9451
6.7226 11.8104 -3.8471 0.9451
6.2887 12.0336 -3.8438 0.9451
5.2962 13.5022 -4.1059 0.9415
4.2578 13.6690 -4.0530 0.9422
3.3591 14.3379 -4.1689 0.9406
2.2688 14.2123 -4.0744 0.9419
1.9327 -6.4895 -2.0827 0.9721
2.1812 -6.4656 -2.0988 0.9718
2.6831 -6.3960 -2.1334 0.9714
2.9363 -6.3501 -2.1518 0.9711
3.1907 -6.2964 -2.1711 0.9709
4.2187 -6.0013 -2.2563 0.9698
4.7364 -5.8029 -2.3039 0.9691
4.9955 -5.6903 -2.3290 0.9688
5.2544 -5.5686 -2.3549 0.9685
5.5130 -5.4375 -2.3817 0.9681
5.7709 -5.2968 -2.4093 0.9677
6.0280 -5.1463 -2.4378 0.9674
6.2837 -4.9859 -2.4672 0.9670
6.7902 -4.6345 -2.5286 0.9662
7.0403 -4.4433 -2.5606 0.9658
7.2877 -4.2413 -2.5935 0.9653
8.0093 -3.5702 -2.6972 0.9640
8.4684 -3.0671 -2.7703 0.9630
8.9047 -2.5187 -2.8463 0.9620
9.1128 -2.2274 -2.8854 0.9615
9.6891 -1.2862 -3.0063 0.9599
9.8629 -0.9503 -3.0477 0.9594
10.0262 -0.6037 -3.0894 0.9588
4.2476 -0.1029 -1.3069 0.9824
4.2948 0.3596 -1.3256 0.9821
4.3429 0.5213 -1.3454 0.9819
10.8971 2.9353 -3.4712 0.9539
10.9127 3.3642 -3.5124 0.9533
10.9094 3.7973 -3.5529 0.9528
10.8863 4.2334 -3.5927 0.9523
10.8431 4.6714 -3.6314 0.9518
10.7790 5.1103 -3.6691 0.9513
10.6937 5.5487 -3.7056 0.9508
10.5868 5.9852 -3.7406 0.9504
10.1336 7.2698 -3.8360 0.9491
9.9381 7.6848 -3.8640 0.9488
9.4499 7.8653 -3.7817 0.9498
8.9187 7.9824 -3.6815 0.9511
8.6735 8.3430 -3.7016 0.9509
8.4087 8.6907 -3.7195 0.9507
7.8333 9.3556 -3.7531 0.9502
7.1946 9.9670 -3.7809 0.9499
6.7104 10.0371 -3.7136 0.9507
6.2598 10.1326 -3.6633 0.9514
5.8915 10.3503 -3.6631 0.9514
5.3578 11.2160 -3.8232 0.9493
5.1414 11.8383 -3.9698 0.9474
4.2450 12.0816 -3.9388 0.9478
3.7902 12.1678 -3.9199 0.9481
3.5256 12.9376 -4.1244 0.9454
3.0408 12.9792 -4.1002 0.9457
2.5441 12.9343 -4.0545 0.9463
2.0643 12.9312 -4.0277 0.9467
1.5836 -6.1118 -2.0987 0.9737
2.0471 -6.0680 -2.1287 0.9734
2.2808 -6.0358 -2.1448 0.9732
2.9882 -5.8967 -2.1974 0.9725
3.2257 -5.8357 -2.2164 0.9723
3.4638 -5.7670 -2.2362 0.9720
3.7023 -5.6906 -2.2567 0.9718
3.9410 -5.6063 -2.2780 0.9715
4.4185 -5.4135 -2.3228 0.9710
5.1315 -5.0611 -2.3958 0.9701
5.3673 -4.9262 -2.4217 0.9698
5.6016 -4.7823 -2.4483 0.9694
5.8343 -4.6293 -2.4757 0.9691
6.0650 -4.4670 -2.5038 0.9687
6.5189 -4.1142 -2.5624 0.9680
6.7415 -3.9235 -2.5928 0.9677
7.3868 -3.2927 -2.6883 0.9665
7.7937 -2.8227 -2.7554 0.9657
7.9887 -2.5728 -2.7898 0.9652
8.3591 -2.0432 -2.8604 0.9644
8.8571 -1.1757 -2.9700 0.9630
5.0608 -0.4876 -1.6900 0.9788
4.1896 -0.2523 -1.3952 0.9825
3.9063 -0.0946 -1.2988 0.9837
3.8765 0.0453 -1.2886 0.9838
3.9253 0.3287 -1.3093 0.9835
3.9710 0.6220 -1.3361 0.9832
4.0872 0.7915 -1.3838 0.9826
9.8335 3.0315 -3.4205 0.9576
9.8192 3.4178 -3.4560 0.9571
9.7876 3.8061 -3.4908 0.9567
9.7381 4.1954 -3.5246 0.9563
9.6703 4.5847 -3.5574 0.9559
9.5840 4.9729 -3.5891 0.9555
9.4788 5.3588 -3.6195 0.9551
9.2114 6.1194 -3.6760 0.9545
9.0490 6.4917 -3.7019 0.9541
7.6761 7.9336 -3.6695 0.9545
7.2361 8.0374 -3.5949 0.9554
6.1315 9.1712 -3.6671 0.9546
5.8611 9.4873 -3.7069 0.9541
4.5623 10.5047 -3.8069 0.9529
4.1762 10.6468 -3.8016 0.9529
3.8808 11.0449 -3.8914 0.9519
2.7184 11.6028 -3.9613 0.9510
1.8570 11.6328 -3.9158 0.9516
1.4918 -5.7575 -2.1269 0.9751
1.7088 -5.7377 -2.1409 0.9749
1.9268 -5.7115 -2.1556 0.9747
2.8073 -5.5397 -2.2209 0.9740
3.0289 -5.4795 -2.2389 0.9738
3.2506 -5.4121 -2.2577 0.9735
3.4725 -5.3375 -2.2771 0.9733
3.9158 -5.1656 -2.3180 0.9728
4.3571 -4.9632 -2.3617 0.9723
4.5764 -4.8501 -2.3846 0.9721
4.7946 -4.7289 -2.4082 0.9718
5.2264 -4.4620 -2.4575 0.9712
5.4394 -4.3160 -2.4831 0.9709
5.6501 -4.1615 -2.5094 0.9706
6.0633 -3.8267 -2.5640 0.9700
6.2652 -3.6462 -2.5923 0.9697
7.0314 -2.8362 -2.7113 0.9683
7.7117 -1.8850 -2.8390 0.9668
8.1469 -1.0815 -2.9390 0.9657
8.2749 -0.7973 -2.9729 0.9653
3.6946 -0.2225 -1.3236 0.9844
3.6358 0.0425 -1.3003 0.9847
3.6666 0.3070 -1.3158 0.9845
3.7785 0.7317 -1.3763 0.9838
8.8780 3.4524 -3.4064 0.9603
8.8252 3.8021 -3.4364 0.9600
8.7561 4.1512 -3.4653 0.9597
8.5686 4.8442 -3.5200 0.9590
8.4498 5.1861 -3.5455 0.9588
8.1622 5.8554 -3.5923 0.9582
7.8082 6.4989 -3.6329 0.9578
7.3897 7.1081 -3.6667 0.9574
6.6505 7.9429 -3.7046 0.9569
5.7706 8.6314 -3.7129 0.9569
4.9078 9.3913 -3.7893 0.9560
4.3337 9.9786 -3.8904 0.9548
3.5986 10.2419 -3.8821 0.9549
3.2122 10.3121 -3.8624 0.9552
2.8079 10.3039 -3.8191 0.9556
1.6580 10.3861 -3.7612 0.9563
1.6131 -5.4165 -2.1658 0.9761
1.8182 -5.3896 -2.1798 0.9759
2.0241 -5.3566 -2.1944 0.9758
2.4374 -5.2712 -2.2255 0.9754
2.6446 -5.2187 -2.2420 0.9752
3.0593 -5.0936 -2.2770 0.9749
3.2665 -5.0207 -2.2954 0.9747
3.4733 -4.9409 -2.3145 0.9745
3.6795 -4.8540 -2.3342 0.9742
4.0895 -4.6584 -2.3755 0.9738
4.2929 -4.5495 -2.3971 0.9736
4.6950 -4.3092 -2.4422 0.9731
4.8933 -4.1776 -2.4656 0.9728
5.4736 -3.7359 -2.5396 0.9720
5.8454 -3.4020 -2.5918 0.9714
6.0257 -3.2230 -2.6187 0.9712
6.2019 -3.0360 -2.6462 0.9709
6.8571 -2.2083 -2.7607 0.9696
7.0065 -1.9818 -2.7903 0.9693
7.1492 -1.7475 -2.8204 0.9690
7.2849 -1.5056 -2.8507 0.9686
7.4130 -1.2564 -2.8813 0.9683
3.4416 0.0403 -1.3190 0.9854
3.4795 0.4176 -1.3430 0.9851
3.5318 0.6840 -1.3786 0.9847
8.1905 2.2062 -3.2506 0.9643
8.1520 2.8375 -3.3078 0.9637
8.1119 3.1545 -3.3354 0.9634
8.0575 3.4714 -3.3622 0.9631
7.9886 3.7874 -3.3880 0.9628
7.9051 4.1017 -3.4129 0.9626
7.6936 4.7219 -3.4593 0.9621
7.5656 5.0261 -3.4808 0.9618
7.4229 5.3251 -3.5009 0.9616
6.7144 6.4584 -3.5702 0.9609
6.5079 6.7262 -3.5866 0.9607
5.5773 7.7265 -3.6518 0.9600
5.0189 8.1240 -3.6595 0.9599
4.4448 8.5053 -3.6776 0.9597
4.1569 8.7020 -3.6957 0.9595
3.8552 8.8767 -3.7087 0.9594
3.2157 9.1522 -3.7175 0.9593
2.1926 9.3588 -3.6836 0.9597
1.8466 9.3881 -3.6667 0.9598
1.3333 -5.1459 -2.1756 0.9773
1.5262 -5.1246 -2.1884 0.9772
1.7196 -5.0974 -2.2018 0.9770
1.9136 -5.0643 -2.2157 0.9769
2.4974 -4.9281 -2.2612 0.9764
2.8865 -4.8058 -2.2944 0.9761
3.0805 -4.7349 -2.3119 0.9759
3.4667 -4.5733 -2.3487 0.9755
3.6585 -4.4823 -2.3680 0.9753
4.0383 -4.2797 -2.4083 0.9749
4.2259 -4.1680 -2.4293 0.9747
4.4117 -4.0491 -2.4508 0.9745
4.5953 -3.9232 -2.4729 0.9742
5.1310 -3.5021 -2.5425 0.9735
5.3034 -3.3471 -2.5667 0.9733
5.7984 -2.8385 -2.6422 0.9725
5.9547 -2.6544 -2.6683 0.9722
6.2524 -2.2645 -2.7216 0.9717
6.3929 -2.0588 -2.7488 0.9714
3.3158 0.2776 -1.3618 0.9857
3.3210 0.3986 -1.3690 0.9856
3.3419 0.6472 -1.3932 0.9854
7.5524 2.0344 -3.2012 0.9668
7.5144 2.6156 -3.2564 0.9662
7.4166 3.1953 -3.3052 0.9657
7.3474 3.4834 -3.3280 0.9655
7.2667 3.7705 -3.3506 0.9652
7.0691 4.3387 -3.3947 0.9648
6.5339 5.4383 -3.4792 0.9639
5.7769 6.4166 -3.5337 0.9634
5.5576 6.6376 -3.5431 0.9633
5.3273 6.8478 -3.5509 0.9632
5.0866 7.0467 -3.5569 0.9631
4.8361 7.2335 -3.5612 0.9631
4.5764 7.4078 -3.5637 0.9631
3.7501 7.8505 -3.5608 0.9631
2.5669 8.2404 -3.5324 0.9634
2.2621 8.3008 -3.5212 0.9635
1.9553 8.3460 -3.5083 0.9636
1.3396 8.3918 -3.4781 0.9639
1.2644 -4.8796 -2.1968 0.9782
1.4468 -4.8579 -2.2091 0.9781
1.9964 -4.7589 -2.2491 0.9777
2.1799 -4.7142 -2.2635 0.9776
2.9117 -4.4754 -2.3269 0.9770
3.0932 -4.4003 -2.3441 0.9768
3.4534 -4.2310 -2.3802 0.9765
3.6316 -4.1367 -2.3990 0.9763
3.8083 -4.0360 -2.4183 0.9761
3.9832 -3.9286 -2.4382 0.9759
4.4952 -3.5668 -2.5009 0.9753
4.8234 -3.2921 -2.5451 0.9748
4.9827 -3.1446 -2.5678 0.9746
5.1384 -2.9905 -2.5910 0.9744
5.5812 -2.4878 -2.6631 0.9737
5.7196 -2.3070 -2.6878 0.9734
5.8528 -2.1198 -2.7129 0.9732
6.1025 -1.7261 -2.7639 0.9727
6.4295 -1.0897 -2.8421 0.9719
6.5245 -0.8661 -2.8684 0.9717
3.1727 -0.1910 -1.3852 0.9862
3.1646 0.0370 -1.3793 0.9863
3.1743 0.1512 -1.3850 0.9862
3.1854 0.3823 -1.3982 0.9861
3.1867 0.4991 -1.4057 0.9860
6.9886 1.8825 -3.1543 0.9689
6.9723 2.1495 -3.1798 0.9687
6.9051 2.6852 -3.2289 0.9682
6.8538 2.9528 -3.2524 0.9680
6.7905 3.2194 -3.2752 0.9677
6.5279 4.0065 -3.3381 0.9671
6.0085 5.0009 -3.4069 0.9665
5.8491 5.2351 -3.4211 0.9663
4.8897 6.2854 -3.4706 0.9658
4.4378 6.6379 -3.4799 0.9658
4.1994 6.7974 -3.4821 0.9657
3.7004 7.0809 -3.4820 0.9657
3.1767 7.3145 -3.4754 0.9658
2.9073 7.4119 -3.4698 0.9659
2.6339 7.4961 -3.4627 0.9659
2.3570 7.5669 -3.4541 0.9660
1.7965 7.6681 -3.4324 0.9662
1.2010 -4.6350 -2.2163 0.9791
1.3739 -4.6131 -2.2280 0.9790
1.7205 -4.5532 -2.2530 0.9788
2.0675 -4.4711 -2.2801 0.9785
2.2407 -4.4216 -2.2945 0.9784
2.7575 -4.2385 -2.3406 0.9780
3.0981 -4.0869 -2.3739 0.9776
3.2666 -4.0021 -2.3913 0.9775
3.5992 -3.8143 -2.4275 0.9771
3.9244 -3.6019 -2.4657 0.9768
4.2405 -3.3647 -2.5057 0.9764
4.3945 -3.2366 -2.5263 0.9762
4.6932 -2.9619 -2.5689 0.9758
4.8373 -2.8153 -2.5907 0.9756
5.3727 -2.1671 -2.6816 0.9748
5.4947 -1.9900 -2.7051 0.9746
5.8276 -1.4244 -2.7769 0.9739
5.9264 -1.2249 -2.8012 0.9737
3.0419 -0.1831 -1.4106 0.9867
3.0386 -0.0736 -1.4069 0.9867
3.0408 0.0356 -1.4076 0.9867
3.0488 0.1453 -1.4129 0.9866
3.0583 0.3671 -1.4258 0.9865
3.0588 0.4791 -1.4331 0.9864
3.0957 0.7157 -1.4707 0.9861
6.4059 2.4911 -3.1815 0.9702
6.3550 2.7379 -3.2030 0.9700
6.2931 2.9836 -3.2238 0.9698
6.2202 3.2275 -3.2437 0.9696
6.1362 3.4691 -3.2629 0.9694
5.9352 3.9429 -3.2983 0.9691
5.8182 4.1739 -3.3145 0.9689
5.6904 4.4002 -3.3296 0.9688
5.5520 4.6210 -3.3436 0.9687
5.0749 5.2451 -3.3783 0.9683
4.7085 5.6235 -3.3950 0.9682
4.5118 5.7997 -3.4013 0.9681
4.3069 5.9665 -3.4062 0.9681
3.6468 6.4067 -3.4123 0.9680
3.4136 6.5320 -3.4115 0.9680
3.1748 6.6460 -3.4093 0.9681
2.6827 6.8392 -3.4006 0.9681
2.1757 6.9846 -3.3863 0.9683
1.9183 7.0392 -3.3771 0.9684
1.3988 7.1117 -3.3550 0.9686
1.1425 -4.4093 -2.2343 0.9799
1.4710 -4.3603 -2.2573 0.9797
1.6354 -4.3280 -2.2695 0.9796
1.9640 -4.2475 -2.2954 0.9794
2.1279 -4.1991 -2.3091 0.9792
2.2913 -4.1453 -2.3233 0.9791
3.0956 -3.7927 -2.4014 0.9784
3.2527 -3.7052 -2.4184 0.9783
3.4081 -3.6118 -2.4359 0.9781
3.8620 -3.2971 -2.4909 0.9776
4.4303 -2.7961 -2.5698 0.9769
4.8204 -2.3597 -2.6326 0.9764
5.1716 -1.8731 -2.6981 0.9758
5.2788 -1.7000 -2.7203 0.9756
5.3805 -1.5219 -2.7428 0.9754
5.4764 -1.3386 -2.7654 0.9752
5.6499 -0.9576 -2.8109 0.9748
3.2272 -0.4284 -1.5969 0.9856
2.9482 0.1405 -1.4478 0.9869
2.9480 0.4618 -1.4637 0.9868
2.9581 0.5729 -1.4780 0.9867
2.9673 0.6861 -1.4939 0.9865
2.9974 0.8074 -1.5227 0.9863
6.0019 2.0891 -3.1173 0.9721
5.9656 2.3199 -3.1397 0.9719
5.9154 2.5485 -3.1595 0.9717
5.7848 3.0016 -3.1968 0.9714
5.7044 3.2249 -3.2144 0.9712
5.5133 3.6627 -3.2468 0.9709
5.1523 4.2883 -3.2882 0.9706
5.0127 4.4865 -3.2999 0.9705
4.8639 4.6785 -3.3104 0.9704
4.3647 5.2129 -3.3350 0.9702
4.1818 5.3755 -3.3407 0.9701
3.9914 5.5295 -3.3452 0.9701
3.7939 5.6746 -3.3484 0.9700
3.5897 5.8105 -3.3502 0.9700
3.1632 6.0529 -3.3501 0.9700
2.9420 6.1588 -3.3480 0.9700
2.7163 6.2543 -3.3447 0.9701
2.4865 6.3390 -3.3401 0.9701
1.0563 6.6166 -3.2867 0.9706
1.4005 -4.1515 -2.2730 0.9805
1.5567 -4.1196 -2.2847 0.9804
1.7127 -4.0828 -2.2969 0.9802
1.8685 -4.0408 -2.3095 0.9801
2.0238 -3.9936 -2.3226 0.9800
2.1786 -3.9413 -2.3362 0.9799
2.7889 -3.6790 -2.3950 0.9794
3.5191 -3.2300 -2.4780 0.9787
3.6589 -3.1238 -2.4958 0.9786
4.1904 -2.6446 -2.5706 0.9779
4.4362 -2.3728 -2.6099 0.9776
4.6663 -2.0800 -2.6504 0.9772
4.8784 -1.7669 -2.6917 0.9769
4.9771 -1.6029 -2.7126 0.9767
5.0706 -1.4342 -2.7337 0.9765
5.3169 -0.9012 -2.7976 0.9760
2.9115 -0.3865 -1.5237 0.9869
2.8747 -0.2770 -1.4982 0.9871
2.8675 -0.1727 -1.4903 0.9871
2.8638 0.1365 -1.4874 0.9872
2.8626 0.4484 -1.5032 0.9870
2.8623 0.5543 -1.5125 0.9869
2.8582 0.6608 -1.5219 0.9869
2.8738 0.7741 -1.5440 0.9867
5.6121 1.9534 -3.0828 0.9736
5.5701 2.1660 -3.1005 0.9734
5.5247 2.3802 -3.1208 0.9733
5.4663 2.5916 -3.1383 0.9731
5.3985 2.8012 -3.1552 0.9730
5.3215 3.0085 -3.1713 0.9728
5.2353 3.2131 -3.1867 0.9727
5.1398 3.4145 -3.2012 0.9726
5.0352 3.6122 -3.2148 0.9725
4.6679 4.1779 -3.2499 0.9722
4.5283 4.3557 -3.2596 0.9721
4.3806 4.5275 -3.2682 0.9720
3.8909 5.0015 -3.2873 0.9718
3.3393 5.4052 -3.2961 0.9718
2.9426 5.6307 -3.2959 0.9718
2.5271 5.8187 -3.2910 0.9718
1.8774 6.0271 -3.2749 0.9720
1.4328 6.1155 -3.2585 0.9721
0.9839 6.1632 -3.2378 0.9723
1.0379 -4.0058 -2.2664 0.9813
1.7798 -3.8491 -2.3226 0.9808
3.0708 -3.2544 -2.4507 0.9798
3.3406 -3.0661 -2.4835 0.9795
3.7271 -2.7451 -2.5353 0.9791
3.8503 -2.6279 -2.5532 0.9790
3.9703 -2.5057 -2.5714 0.9788
4.0869 -2.3785 -2.5899 0.9787
4.1999 -2.2464 -2.6086 0.9785
4.3090 -2.1094 -2.6276 0.9784
4.4140 -1.9675 -2.6468 0.9782
4.5146 -1.8210 -2.6663 0.9780
4.6107 -1.6699 -2.6859 0.9779
4.7021 -1.5143 -2.7056 0.9777
4.8693 -1.1902 -2.7454 0.9774
4.9447 -1.0220 -2.7655 0.9772
5.0144 -0.8499 -2.7856 0.9771
2.8737 -0.3815 -1.5877 0.9869
2.8384 -0.2735 -1.5618 0.9871
2.8150 0.4409 -1.5606 0.9871
2.8085 0.6493 -1.5788 0.9869
2.8156 0.7584 -1.5971 0.9868
5.2952 1.6324 -3.0349 0.9750
5.2623 1.8317 -3.0518 0.9749
5.2210 2.0303 -3.0682 0.9748
5.1130 2.4241 -3.0992 0.9745
5.0531 2.6219 -3.1180 0.9744
4.9794 2.8151 -3.1329 0.9742
4.8972 3.0056 -3.1471 0.9741
4.8064 3.1931 -3.1605 0.9740
4.5999 3.5569 -3.1847 0.9738
4.2297 4.0685 -3.2143 0.9736
4.0909 4.2281 -3.2223 0.9735
3.4662 4.8019 -3.2436 0.9734
2.9340 5.1544 -3.2484 0.9733
2.5546 5.3478 -3.2461 0.9733
2.1598 5.5061 -3.2394 0.9734
1.1291 5.7404 -3.2043 0.9737
0.9909 -3.8243 -2.2809 0.9819
1.5566 -3.7106 -2.3232 0.9816
1.6973 -3.6706 -2.3348 0.9815
1.9769 -3.5764 -2.3593 0.9813
2.2531 -3.4632 -2.3854 0.9811
2.3896 -3.3994 -2.3990 0.9810
2.5248 -3.3307 -2.4130 0.9809
3.0493 -3.0075 -2.4727 0.9804
3.4207 -2.7142 -2.5211 0.9800
3.5393 -2.6068 -2.5378 0.9799
3.6550 -2.4946 -2.5548 0.9798
3.8767 -2.2562 -2.5897 0.9795
3.9824 -2.1300 -2.6074 0.9794
4.0843 -1.9994 -2.6254 0.9792
4.1822 -1.8642 -2.6436 0.9791
4.2760 -1.7248 -2.6620 0.9789
4.4500 -1.4331 -2.6992 0.9786
4.6741 -0.9661 -2.7556 0.9782
2.9120 -0.4935 -1.7052 0.9865
2.8359 -0.3764 -1.6516 0.9869
2.8080 -0.2706 -1.6287 0.9871
2.8079 -0.1691 -1.6241 0.9871
2.8024 0.0328 -1.6181 0.9871
2.7988 0.1334 -1.6177 0.9871
2.7947 0.2340 -1.6192 0.9871
2.7908 0.3350 -1.6228 0.9871
2.7782 0.7484 -1.6612 0.9868
4.9463 1.7217 -3.0238 0.9761
4.6716 2.6411 -3.0983 0.9755
4.5931 2.8190 -3.1115 0.9754
4.5069 2.9940 -3.1239 0.9753
4.4128 3.1657 -3.1355 0.9752
4.2020 3.4974 -3.1564 0.9751
4.0855 3.6565 -3.1655 0.9750
3.8312 3.9598 -3.1811 0.9749
3.5503 4.2402 -3.1929 0.9748
3.2448 4.4953 -3.2009 0.9747
2.5708 4.9194 -3.2047 0.9747
2.2083 5.0846 -3.2005 0.9747
1.6416 5.2699 -3.1868 0.9748
1.4483 5.3146 -3.1803 0.9749
1.2536 5.3506 -3.1728 0.9749
1.0578 5.3780 -3.1645 0.9750
