ply
format ascii 1.0
element vertex 1207
property float32 x
property float32 y
property float32 z
property float32 I
end_header
26.6718 -33.0634 7.4904 0.8415
26.9174 -28.8450 6.9567 0.8519
27.0857 -25.1276 6.5146 0.8607
33.4756 -26.8428 7.5659 0.8401
39.0634 -26.9452 8.3676 0.8247
46.2293 14.1311 8.5238 0.8217
39.7554 13.7361 7.4165 0.8430
35.9216 13.8787 6.7903 0.8552
34.3359 14.7081 6.5864 0.8592
21.9846 14.5552 4.6491 0.8984
18.8527 14.5367 4.1977 0.9078
17.5372 14.5589 4.0190 0.9116
15.2092 14.5983 3.7172 0.9179
14.1690 14.6160 3.5894 0.9206
12.3425 14.7183 3.3870 0.9249
7.9904 10.2572 2.2926 0.9486
7.0424 14.7406 2.8806 0.9358
6.4060 14.7520 2.8358 0.9368
5.7883 14.7632 2.7961 0.9376
5.7361 16.3384 3.0533 0.9321
5.8502 18.8044 3.4725 0.9231
5.9096 21.7246 3.9698 0.9126
6.6924 28.6370 5.1855 0.8874
6.2707 39.4746 7.0477 0.8501
3.9578 46.1777 8.1722 0.8284
26.4564 -35.3278 6.7614 0.8364
26.9100 -33.3586 6.5658 0.8408
33.7050 -36.1187 7.5681 0.8188
26.9056 -26.8269 5.8206 0.8575
27.3685 -25.3899 5.7191 0.8598
39.1684 -29.1537 7.4801 0.8207
38.9032 -26.8347 7.2400 0.8259
44.0419 13.4624 7.0551 0.8300
39.7066 13.7192 6.4357 0.8437
34.6810 16.3581 5.8743 0.8563
34.7444 19.5612 6.1082 0.8510
34.7782 21.2649 6.2448 0.8479
18.8400 14.5269 3.6445 0.9082
16.3954 14.6398 3.3673 0.9149
13.1895 14.6245 3.0170 0.9234
7.9870 10.2528 1.9910 0.9488
10.6018 14.6700 2.7728 0.9294
8.3779 14.7096 2.5933 0.9338
6.4031 14.7453 2.4627 0.9370
5.8475 18.7957 3.0155 0.9234
6.1153 31.1990 4.8705 0.8793
3.9556 46.1520 7.0961 0.8291
26.7504 -30.8201 5.3143 0.8482
26.8057 -28.7253 5.1163 0.8534
35.8415 13.8477 5.0036 0.8564
34.7070 17.9258 5.0868 0.8542
18.8274 14.5172 3.0959 0.9086
17.5147 14.5401 2.9643 0.9123
11.8643 12.2386 2.2197 0.9336
7.9836 10.2484 1.6917 0.9489
10.5964 14.6625 2.3558 0.9296
9.0824 14.6898 2.2490 0.9327
5.7992 16.5183 2.2797 0.9318
5.8448 18.7871 2.5621 0.9237
6.6866 28.6124 3.8263 0.8882
6.1127 31.1857 4.1383 0.8797
4.2375 26.6756 3.5173 0.8968
3.9534 46.1265 6.0287 0.8297
26.7377 -35.7035 4.7898 0.8357
27.4174 -25.4354 4.0159 0.8603
44.7420 13.6764 5.0239 0.8284
35.8020 13.8325 4.1214 0.8569
34.6414 14.8389 4.0468 0.8593
34.7875 16.4084 4.1302 0.8566
34.7020 17.9232 4.1940 0.8546
34.8507 19.6211 4.2947 0.8514
34.7677 21.2584 4.3760 0.8488
21.8318 14.4541 2.8116 0.9000
16.8735 12.0673 2.2276 0.9199
16.2908 12.5613 2.2090 0.9206
16.5118 13.7076 2.3044 0.9173
16.2976 14.5524 2.3462 0.9159
12.6506 12.1425 1.8829 0.9319
7.9802 10.2441 1.3944 0.9491
9.8170 14.6692 1.8954 0.9315
7.6893 14.7081 1.7822 0.9354
6.3973 14.7320 1.7247 0.9374
5.7805 14.7435 1.7005 0.9383
5.7969 16.5116 1.8791 0.9320
6.0875 31.0571 3.3984 0.8805
44.6822 13.6582 3.9552 0.8290
39.7829 13.7456 3.5631 0.8445
34.6970 17.9206 3.3058 0.8549
34.8456 19.6181 3.3851 0.8517
21.8159 14.4435 2.2148 0.9003
16.8618 12.0589 1.7549 0.9202
15.6672 12.0805 1.6748 0.9237
15.4961 12.8644 1.7049 0.9223
13.5718 12.1185 1.5402 0.9296
12.6432 12.1354 1.4835 0.9321
11.7794 12.1511 1.4326 0.9343
10.9720 12.1658 1.3868 0.9364
7.9769 10.2398 1.0988 0.9492
8.3660 14.6887 1.4310 0.9344
7.6857 14.7013 1.4043 0.9356
7.0295 14.7136 1.3804 0.9366
5.7780 14.7370 1.3400 0.9384
5.7945 16.5049 1.4808 0.9322
5.8395 18.7699 1.6640 0.9241
6.6810 28.5882 2.4853 0.8888
6.0831 31.0344 2.6771 0.8808
3.4591 40.3588 3.4290 0.8499
2.1221 42.8555 3.6323 0.8418
0.5823 43.2654 3.6629 0.8406
-0.9693 42.9549 3.6372 0.8416
-2.5141 42.8695 3.6353 0.8417
-5.6652 43.1250 3.6820 0.8398
-9.0048 43.8231 3.7873 0.8356
-12.4731 44.2587 3.8926 0.8314
44.6229 13.6400 2.8935 0.8294
39.7352 13.7291 2.6069 0.8449
35.7238 13.8022 2.3748 0.8577
34.6318 14.8348 2.3363 0.8599
34.6614 16.3489 2.3765 0.8576
34.7239 19.5497 2.4710 0.8524
34.7573 21.2521 2.5263 0.8494
16.8502 12.0506 1.2846 0.9203
12.5815 12.0762 1.0814 0.9325
11.2705 12.4968 1.0435 0.9348
10.3429 14.3117 1.0950 0.9317
9.0693 14.6686 1.0694 0.9332
7.7188 14.7647 1.0331 0.9354
7.0263 14.7069 1.0107 0.9368
6.3916 14.7189 0.9951 0.9377
5.7754 14.7305 0.9811 0.9386
5.7182 16.2876 1.0704 0.9332
5.8368 18.7614 1.2184 0.9243
5.3582 22.9281 1.4601 0.9100
3.6300 29.7250 1.8570 0.8869
1.5896 32.1008 1.9930 0.8791
0.4314 32.0520 1.9877 0.8794
-0.7225 32.0199 1.9861 0.8795
-1.8769 32.0043 1.9880 0.8794
-3.0367 32.0052 1.9936 0.8791
-4.2068 32.0228 2.0028 0.8786
-6.5978 32.1091 2.0327 0.8769
-7.8297 32.1791 2.0537 0.8757
-9.0938 32.2680 2.0789 0.8743
-10.3969 32.3770 2.1087 0.8726
-11.7460 32.5073 2.1433 0.8706
26.2207 -26.1440 1.4600 0.8622
27.0377 -25.0830 1.4543 0.8627
40.0853 12.2530 1.6528 0.8455
35.6850 13.7872 1.5085 0.8580
34.6565 16.3466 1.5109 0.8578
34.6871 17.9155 1.5394 0.8553
34.7189 19.5468 1.5711 0.8526
23.5344 14.3899 1.0877 0.8955
13.1544 14.5856 0.7745 0.9244
7.9702 10.2312 0.5114 0.9494
10.5751 14.6330 0.7119 0.9303
9.8026 14.6476 0.6950 0.9319
7.7153 14.7579 0.6566 0.9355
7.0231 14.7003 0.6424 0.9369
6.3887 14.7123 0.6325 0.9378
5.8342 18.7529 0.7744 0.9244
4.0664 25.5982 1.0220 0.9014
3.4044 27.8777 1.1074 0.8937
2.3863 27.8419 1.1019 0.8942
1.4101 28.4754 1.1242 0.8921
-2.6998 28.4537 1.1270 0.8919
-4.7908 28.4830 1.1389 0.8908
-5.8578 28.5080 1.1476 0.8900
-6.9443 28.5404 1.1582 0.8891
-8.0545 28.5802 1.1709 0.8879
-9.1930 28.6280 1.1856 0.8866
43.7107 11.6577 0.7642 0.8345
39.6407 13.6964 0.7085 0.8455
35.6463 13.7723 0.6455 0.8582
34.6223 14.8308 0.6362 0.8601
34.6594 16.3479 0.6473 0.8579
34.8304 19.6096 0.6752 0.8522
23.5164 14.3789 0.4656 0.8956
18.7164 12.3915 0.3792 0.9141
15.0114 12.4621 0.3296 0.9249
14.1129 14.5581 0.3425 0.9221
13.1553 14.5867 0.3318 0.9244
10.5223 12.5477 0.2766 0.9366
9.0606 14.6546 0.2910 0.9334
7.7117 14.7512 0.2812 0.9356
7.0200 14.6937 0.2751 0.9369
4.0647 25.5876 0.4376 0.9015
3.1243 25.5843 0.4354 0.9020
2.1915 25.5692 0.4335 0.9024
0.3511 26.0830 0.4406 0.9009
-1.5296 26.0823 0.4413 0.9008
-3.4273 26.0896 0.4445 0.9001
-4.3894 26.0963 0.4470 0.8995
-9.4536 26.1629 0.4699 0.8947
17.2413 -23.0228 -0.1619 0.8913
20.0370 -23.0854 -0.1721 0.8849
24.9846 -23.1784 -0.1919 0.8726
29.0090 -23.2612 -0.2093 0.8618
31.3014 -23.2981 -0.2197 0.8555
39.8909 -23.4691 -0.2606 0.8310
43.5310 -23.5429 -0.2786 0.8204
43.7008 11.6551 -0.2546 0.8345
44.4464 13.5861 -0.2617 0.8303
34.6175 14.8287 -0.2120 0.8602
34.6274 16.3329 -0.2156 0.8580
34.6772 17.9104 -0.2197 0.8555
18.7532 14.4599 -0.1333 0.9096
15.0020 12.4542 -0.1098 0.9250
14.0692 12.5627 -0.1062 0.9273
15.1380 14.5300 -0.1181 0.9195
14.1050 14.5500 -0.1141 0.9221
13.1562 14.5877 -0.1106 0.9244
7.9636 10.2227 -0.0730 0.9495
10.5646 14.6185 -0.1016 0.9304
9.0563 14.6476 -0.0970 0.9334
5.8289 18.7361 -0.1105 0.9245
4.1171 15.1350 -0.0883 0.9392
3.7859 23.8329 -0.1359 0.9080
2.0534 23.9582 -0.1354 0.9083
1.2021 24.2759 -0.1368 0.9074
-2.3031 24.2735 -0.1373 0.9071
-3.1885 24.2716 -0.1378 0.9067
-4.0820 24.2690 -0.1386 0.9062
-4.9862 24.2660 -0.1395 0.9057
-5.9034 24.2624 -0.1406 0.9049
-6.8365 24.2581 -0.1419 0.9041
-7.7882 24.2532 -0.1434 0.9031
-8.7615 24.2476 -0.1452 0.9020
23.2260 -23.1581 -0.9235 0.8770
24.9992 -23.1919 -0.9602 0.8724
26.9266 -23.2330 -1.0014 0.8673
33.8712 -23.3637 -1.1586 0.8482
39.9254 -23.4894 -1.3043 0.8308
43.5735 -23.5659 -1.3949 0.8202
43.1722 11.5141 -1.2581 0.8363
34.6127 14.8267 -1.0603 0.8601
34.6420 16.3397 -1.0785 0.8579
34.6723 17.9078 -1.0988 0.8554
23.4807 14.3571 -0.7750 0.8957
18.7409 14.4505 -0.6664 0.9096
14.9926 12.4464 -0.5487 0.9250
15.1292 14.5215 -0.5905 0.9195
13.1507 14.5815 -0.5529 0.9244
7.9603 10.2185 -0.3647 0.9495
9.0520 14.6407 -0.4847 0.9334
6.3803 14.6928 -0.4510 0.9379
3.9579 20.1924 -0.5794 0.9210
1.9542 22.8004 -0.6444 0.9125
0.3070 22.8076 -0.6423 0.9128
-0.5146 22.8079 -0.6424 0.9128
-4.6800 22.7762 -0.6547 0.9112
-5.5386 22.7629 -0.6597 0.9105
-7.2986 22.7287 -0.6722 0.9089
-8.2051 22.7076 -0.6799 0.9079
18.6129 -23.0733 -1.5034 0.8880
20.0580 -23.1096 -1.5519 0.8847
21.5929 -23.1393 -1.6051 0.8809
23.2391 -23.1712 -1.6643 0.8768
25.0138 -23.2055 -1.7304 0.8723
26.9450 -23.2489 -1.8048 0.8672
29.0506 -23.2946 -1.8884 0.8614
31.3462 -23.3315 -1.9817 0.8551
33.8967 -23.3813 -2.0883 0.8480
37.3019 -21.9459 -2.1948 0.8409
43.0727 -15.8057 -2.3268 0.8321
45.9321 -15.0015 -2.4505 0.8240
45.8629 10.4783 -2.3858 0.8283
38.9771 11.9143 -2.0670 0.8494
35.5309 13.7277 -1.9317 0.8585
30.3073 15.6534 -1.7299 0.8723
28.0434 15.7885 -1.6321 0.8791
18.7287 14.4411 -1.1994 0.9096
14.9832 12.4386 -0.9876 0.9250
14.0679 12.5615 -0.9565 0.9272
14.0892 14.5337 -1.0266 0.9221
10.5057 12.5279 -0.8292 0.9366
7.9570 10.2142 -0.6566 0.9495
9.7835 14.6192 -0.8921 0.9320
9.0477 14.6337 -0.8725 0.9334
7.6646 14.6610 -0.8390 0.9359
7.0105 14.6739 -0.8247 0.9369
5.7628 14.6984 -0.8007 0.9387
5.8237 18.7192 -0.9942 0.9245
3.3652 21.1844 -1.0878 0.9177
2.5882 21.1937 -1.0828 0.9180
1.8476 21.5570 -1.0973 0.9170
-0.4867 21.5694 -1.0942 0.9172
-2.0458 21.5609 -1.0984 0.9169
-2.8312 21.5516 -1.1024 0.9166
-3.6228 21.5388 -1.1077 0.9162
-5.2319 21.5026 -1.1223 0.9152
-6.0532 21.4789 -1.1317 0.9145
-6.8884 21.4513 -1.1426 0.9137
-7.7397 21.4197 -1.1550 0.9128
18.6849 -21.5275 -2.0901 0.8920
19.5890 -20.9918 -2.1052 0.8912
20.4836 -20.4237 -2.1209 0.8905
22.2383 -19.1878 -2.1536 0.8889
23.0915 -18.5162 -2.1702 0.8881
23.9302 -17.8117 -2.1873 0.8872
23.2117 -16.0110 -2.0675 0.8931
31.2343 -12.7558 -2.4738 0.8734
33.3440 -9.5759 -2.5437 0.8701
34.5969 -7.2881 -2.5924 0.8678
35.7104 -4.8715 -2.6426 0.8654
36.2102 -3.6171 -2.6682 0.8642
36.6695 -2.3332 -2.6941 0.8630
37.0864 -1.0210 -2.7203 0.8617
37.4589 0.3183 -2.7467 0.8605
38.4679 5.9152 -2.8537 0.8555
36.6102 8.3644 -2.7535 0.8602
36.3280 9.6887 -2.7568 0.8600
30.2547 11.6892 -2.3781 0.8780
28.4969 12.2069 -2.2731 0.8831
27.1335 12.7982 -2.1997 0.8866
26.1322 13.4970 -2.1565 0.8887
15.9875 12.3275 -1.4803 0.9222
14.8765 12.3500 -1.4177 0.9254
13.8543 12.3708 -1.3619 0.9282
12.9084 12.3899 -1.3119 0.9308
12.2081 12.5933 -1.2860 0.9321
10.5002 12.5213 -1.1982 0.9366
10.4629 14.4777 -1.3097 0.9309
9.7787 14.6121 -1.2892 0.9319
9.0434 14.6268 -1.2609 0.9334
8.3387 14.6408 -1.2354 0.9347
7.6611 14.6543 -1.2125 0.9358
5.7603 14.6919 -1.1571 0.9387
5.7783 16.4587 -1.2790 0.9324
3.1928 20.0987 -1.4922 0.9216
2.4561 20.1123 -1.4856 0.9219
0.2757 20.4803 -1.5018 0.9211
-0.4621 20.4808 -1.5021 0.9211
-1.2009 20.4770 -1.5040 0.9210
-2.6873 20.4560 -1.5128 0.9206
-3.4378 20.4388 -1.5197 0.9202
-4.1953 20.4170 -1.5283 0.9198
-4.9614 20.3905 -1.5387 0.9193
-7.3269 20.2772 -1.5808 0.9172
13.9746 -17.3235 -2.1368 0.9144
16.0296 -15.9827 -2.1732 0.9131
16.6932 -15.4864 -2.1861 0.9126
17.5845 -15.1724 -2.2297 0.9109
21.0866 -13.4510 -2.4012 0.9044
22.8712 -11.3246 -2.4502 0.9025
23.3504 -10.5325 -2.4593 0.9022
24.4657 -8.9778 -2.5020 0.9006
24.9497 -8.1486 -2.5198 0.8999
25.4081 -7.2969 -2.5379 0.8992
25.8397 -6.4232 -2.5562 0.8985
26.2432 -5.5283 -2.5748 0.8978
26.9617 -3.6781 -2.6124 0.8964
27.2743 -2.7245 -2.6315 0.8957
27.5543 -1.7532 -2.6507 0.8950
27.8004 -0.7654 -2.6700 0.8943
28.0117 0.2380 -2.6894 0.8935
28.3251 2.2861 -2.7282 0.8921
28.4252 3.3282 -2.7476 0.8914
28.4873 6.5085 -2.8054 0.8892
25.2916 10.8338 -2.6415 0.8953
24.7410 12.7785 -2.6734 0.8941
24.4043 13.7397 -2.6887 0.8936
17.6865 11.7096 -2.0364 0.9183
16.4104 11.7361 -1.9369 0.9221
11.7314 12.1015 -1.6181 0.9345
10.2179 12.1847 -1.5267 0.9381
10.1559 14.0529 -1.6646 0.9327
8.3348 14.6339 -1.6168 0.9346
7.6576 14.6475 -1.5868 0.9357
7.0042 14.6606 -1.5599 0.9368
5.7759 16.4521 -1.6740 0.9323
5.8184 18.7023 -1.8804 0.9243
4.1101 15.1094 -1.5033 0.9390
3.8826 16.6141 -1.6380 0.9337
2.3244 19.0342 -1.8410 0.9258
1.6644 19.4193 -1.8712 0.9247
0.9621 19.4297 -1.8676 0.9248
0.2616 19.4345 -1.8660 0.9249
-2.5479 19.3955 -1.8781 0.9244
-3.2582 19.3710 -1.8858 0.9241
-4.6968 19.3032 -1.9073 0.9233
-6.1665 19.2030 -1.9363 0.9222
-6.9167 19.1421 -1.9540 0.9215
12.2480 -15.1831 -2.3172 0.9244
13.4337 -14.3958 -2.3389 0.9237
14.5742 -13.5206 -2.3615 0.9230
15.1265 -13.0515 -2.3732 0.9227
16.7019 -11.5207 -2.4102 0.9215
17.1974 -10.9700 -2.4230 0.9211
18.1386 -9.8099 -2.4495 0.9203
19.7999 -7.2657 -2.5053 0.9186
20.5064 -5.8892 -2.5343 0.9176
20.8259 -5.1768 -2.5491 0.9172
21.1213 -4.4493 -2.5640 0.9167
21.3922 -3.7074 -2.5790 0.9163
21.8571 -2.1834 -2.6092 0.9153
22.0495 -1.4030 -2.6245 0.9148
22.3504 0.1899 -2.6550 0.9139
22.4575 1.0004 -2.6703 0.9134
22.5347 1.8187 -2.6855 0.9130
22.5815 2.6440 -2.7007 0.9125
22.5972 3.4748 -2.7158 0.9120
22.4529 5.9882 -2.7603 0.9106
22.1928 7.6679 -2.7891 0.9098
21.3905 8.2644 -2.7239 0.9118
20.4798 8.7726 -2.6465 0.9142
20.2470 9.5500 -2.6592 0.9138
19.9823 10.3206 -2.6715 0.9134
19.0981 10.7522 -2.6034 0.9155
18.1739 11.1123 -2.5304 0.9178
15.6136 11.1662 -2.2802 0.9256
10.1162 12.0634 -1.8701 0.9386
9.0348 14.6128 -2.0408 0.9331
7.6906 14.7106 -1.9718 0.9353
7.0010 14.6540 -1.9291 0.9367
6.3689 14.6667 -1.8994 0.9376
5.7553 14.6790 -1.8729 0.9385
5.7736 16.4454 -2.0704 0.9322
5.8158 18.6938 -2.3255 0.9242
3.5034 17.8737 -2.1635 0.9293
2.8441 17.9037 -2.1534 0.9296
1.5726 18.3481 -2.1875 0.9285
0.9092 18.3599 -2.1836 0.9286
-0.4143 18.3618 -2.1817 0.9287
-1.0763 18.3519 -2.1837 0.9286
-2.4054 18.3104 -2.1937 0.9283
-3.7468 18.2344 -2.2112 0.9278
-4.4243 18.1834 -2.2230 0.9274
-5.7981 18.0560 -2.2527 0.9265
-6.4964 17.9790 -2.2708 0.9259
10.4048 -12.8982 -2.3480 0.9352
12.3435 -11.4511 -2.3856 0.9342
12.8015 -11.0454 -2.3957 0.9340
13.2475 -10.6226 -2.4059 0.9337
13.6809 -10.1829 -2.4164 0.9334
14.1010 -9.7266 -2.4272 0.9331
14.8988 -8.7655 -2.4492 0.9325
15.2751 -8.2613 -2.4606 0.9322
15.6355 -7.7419 -2.4721 0.9319
15.9793 -7.2077 -2.4838 0.9316
16.3058 -6.6591 -2.4956 0.9313
18.2190 -1.8200 -2.5943 0.9287
18.5760 0.1578 -2.6321 0.9277
18.6469 0.8306 -2.6447 0.9274
18.7137 2.1911 -2.6696 0.9267
18.6780 3.5649 -2.6942 0.9261
18.4265 5.6325 -2.7301 0.9251
17.4586 8.2347 -2.7351 0.9250
16.1545 9.0950 -2.6267 0.9278
15.8728 9.7053 -2.6361 0.9276
15.5661 10.3058 -2.6451 0.9274
14.1169 10.8851 -2.5258 0.9305
13.4953 11.2034 -2.4852 0.9316
11.7115 11.2411 -2.3001 0.9365
11.0903 11.4402 -2.2576 0.9377
10.4089 11.5414 -2.2021 0.9391
10.1141 12.0609 -2.2302 0.9384
7.9190 10.1654 -1.8258 0.9493
9.7644 14.5905 -2.4876 0.9315
6.9978 14.6473 -2.3001 0.9365
6.3661 14.6601 -2.2646 0.9375
5.7527 14.6725 -2.2330 0.9383
5.5600 17.8715 -2.6519 0.9272
4.1066 15.0965 -2.2167 0.9388
3.8779 16.5939 -2.4145 0.9335
0.8547 17.2596 -2.4485 0.9326
0.2324 17.2640 -2.4464 0.9326
-1.6339 17.2206 -2.4509 0.9325
-2.2578 17.1871 -2.4562 0.9324
-2.8836 17.1441 -2.4633 0.9322
-3.5120 17.0915 -2.4723 0.9319
-6.0612 16.7743 -2.5271 0.9305
10.6959 -9.9227 -2.4035 0.9426
11.0865 -9.5657 -2.4122 0.9424
11.8344 -8.8086 -2.4303 0.9419
12.1905 -8.4088 -2.4397 0.9417
13.1809 -7.1287 -2.4686 0.9411
13.4833 -6.6762 -2.4786 0.9408
14.0429 -5.7350 -2.4989 0.9404
14.2992 -5.2472 -2.5092 0.9401
15.1548 -3.1925 -2.5514 0.9391
15.4741 -2.1110 -2.5728 0.9387
15.6050 -1.5588 -2.5835 0.9384
15.8775 0.1349 -2.6157 0.9377
15.9554 1.2877 -2.6370 0.9372
15.9622 1.8689 -2.6476 0.9369
15.9472 2.4521 -2.6580 0.9367
15.8509 3.6214 -2.6785 0.9362
15.7692 4.2056 -2.6886 0.9360
15.6650 4.7884 -2.6985 0.9358
15.5383 5.3687 -2.7082 0.9355
15.3888 5.9456 -2.7178 0.9353
15.0221 7.0855 -2.7362 0.9349
12.8847 9.2146 -2.6096 0.9378
12.5778 9.6983 -2.6165 0.9376
12.2512 10.1705 -2.6231 0.9375
8.7211 13.0317 -2.5832 0.9384
7.2870 13.9387 -2.5911 0.9382
6.7850 14.2019 -2.5929 0.9382
6.2724 14.4445 -2.5942 0.9382
4.6806 15.0450 -2.5957 0.9381
4.1351 15.2015 -2.5953 0.9381
3.0365 15.4917 -2.6007 0.9380
2.4680 15.5366 -2.5916 0.9382
0.7978 16.1103 -2.6573 0.9367
-0.3635 16.1069 -2.6541 0.9368
-0.9436 16.0887 -2.6550 0.9368
-1.5238 16.0595 -2.6575 0.9367
-2.1044 16.0193 -2.6617 0.9366
-3.2682 15.9052 -2.6750 0.9363
-5.0192 15.6303 -2.7044 0.9356
-5.5928 15.4781 -2.7112 0.9355
8.3524 -9.6231 -2.3950 0.9495
9.4280 -8.7465 -2.4172 0.9490
10.7263 -7.3989 -2.4492 0.9483
11.3086 -6.6532 -2.4662 0.9480
11.8412 -5.8631 -2.4836 0.9476
12.0877 -5.4523 -2.4924 0.9475
12.3204 -5.0315 -2.5014 0.9473
12.5389 -4.6012 -2.5105 0.9471
12.9313 -3.7137 -2.5288 0.9467
13.2618 -2.7937 -2.5474 0.9463
13.5270 -1.8454 -2.5661 0.9460
13.6342 -1.3620 -2.5754 0.9458
13.7963 -0.3799 -2.5941 0.9454
13.8505 0.1177 -2.6034 0.9452
13.9040 1.1222 -2.6219 0.9448
13.9028 1.6278 -2.6310 0.9446
13.8826 2.1347 -2.6401 0.9444
13.7073 3.6557 -2.6665 0.9439
13.4936 4.6622 -2.6834 0.9436
13.3577 5.1608 -2.6916 0.9434
13.0277 6.1448 -2.7074 0.9431
12.8338 6.6285 -2.7150 0.9429
12.3891 7.5752 -2.7295 0.9426
11.4798 8.2099 -2.6528 0.9442
9.9752 9.5745 -2.5989 0.9453
9.2927 10.3038 -2.6080 0.9451
7.9185 10.9570 -2.5410 0.9465
7.5275 11.2481 -2.5440 0.9464
6.7111 11.7830 -2.5488 0.9463
6.2870 12.0259 -2.5507 0.9463
5.8533 12.2518 -2.5522 0.9462
4.5020 12.8233 -2.5545 0.9462
1.8146 14.8593 -2.8137 0.9409
1.2691 14.8074 -2.7934 0.9413
0.7339 14.8196 -2.7889 0.9414
-0.3339 14.7982 -2.7822 0.9415
-0.8659 14.7646 -2.7799 0.9416
-1.3963 14.7159 -2.7784 0.9416
-2.4512 14.5730 -2.7776 0.9416
-2.9752 14.4790 -2.7783 0.9416
-4.0148 14.2460 -2.7820 0.9415
-5.0561 13.9929 -2.7965 0.9412
7.7938 -8.3519 -2.4147 0.9544
8.1117 -8.0880 -2.4213 0.9542
8.7221 -7.5257 -2.4351 0.9540
9.2956 -6.9189 -2.4495 0.9537
9.5675 -6.5995 -2.4568 0.9536
9.8289 -6.2698 -2.4643 0.9535
10.3185 -5.5806 -2.4797 0.9532
10.5458 -5.2218 -2.4875 0.9530
10.9641 -4.4776 -2.5034 0.9527
11.1540 -4.0930 -2.5115 0.9526
11.6431 -2.8943 -2.5360 0.9521
11.7780 -2.4811 -2.5443 0.9520
11.8983 -2.0621 -2.5525 0.9518
12.2276 -0.3367 -2.5856 0.9512
12.2975 0.5478 -2.6020 0.9509
12.3021 1.4404 -2.6182 0.9506
12.2794 1.8881 -2.6261 0.9505
12.2400 2.3361 -2.6340 0.9503
12.1103 3.2298 -2.6494 0.9500
12.0200 3.6742 -2.6568 0.9499
11.9128 4.1160 -2.6642 0.9498
11.6474 4.9892 -2.6784 0.9495
11.1233 6.2624 -2.6983 0.9491
10.6918 7.0787 -2.7105 0.9489
10.1967 7.8622 -2.7217 0.9487
9.8620 8.1871 -2.7094 0.9489
8.7748 8.4223 -2.5710 0.9515
8.4794 8.7468 -2.5751 0.9514
8.1710 9.0600 -2.5789 0.9513
7.8502 9.3612 -2.5825 0.9513
7.5174 9.6499 -2.5857 0.9512
7.1732 9.9256 -2.5886 0.9512
6.8180 10.1879 -2.5913 0.9511
6.3632 10.2917 -2.5577 0.9517
5.1414 10.7616 -2.5211 0.9524
4.3564 11.1111 -2.5227 0.9524
3.9539 11.2623 -2.5231 0.9524
3.5835 11.5185 -2.5499 0.9519
2.9569 12.6526 -2.7466 0.9483
1.1605 13.5402 -2.8726 0.9460
-0.3038 13.4636 -2.8467 0.9464
-1.2705 13.3903 -2.8432 0.9465
-1.7533 13.3464 -2.8454 0.9465
-3.2001 13.1520 -2.8612 0.9462
-4.1339 12.8735 -2.8581 0.9462
6.1408 -8.1999 -2.4077 0.9588
7.0392 -7.5433 -2.4248 0.9585
7.3244 -7.3030 -2.4309 0.9584
7.6019 -7.0523 -2.4370 0.9583
8.1320 -6.5208 -2.4498 0.9581
8.3839 -6.2404 -2.4563 0.9580
8.6266 -5.9505 -2.4630 0.9579
8.8596 -5.6515 -2.4698 0.9577
9.0826 -5.3436 -2.4766 0.9576
9.6879 -4.3699 -2.4978 0.9573
9.8674 -4.0298 -2.5050 0.9571
10.0352 -3.6825 -2.5123 0.9570
10.1908 -3.3284 -2.5196 0.9569
10.4649 -2.6014 -2.5343 0.9567
10.6872 -1.8522 -2.5492 0.9564
10.7783 -1.4704 -2.5566 0.9563
4.3389 0.1933 -1.0208 0.9823
4.3132 0.5050 -1.0206 0.9823
4.3048 0.6619 -1.0236 0.9823
4.2933 0.8194 -1.0272 0.9822
4.4352 1.0133 -1.0692 0.9815
10.8358 2.8899 -2.6357 0.9550
10.7518 3.2865 -2.6423 0.9549
10.2656 4.8420 -2.6676 0.9544
10.1068 5.2200 -2.6734 0.9543
9.7455 5.9588 -2.6846 0.9541
9.5434 6.3183 -2.6899 0.9541
9.0974 7.0147 -2.6999 0.9539
8.3282 7.9936 -2.7130 0.9537
6.9964 8.3430 -2.5590 0.9562
6.6989 8.5992 -2.5619 0.9562
5.7537 9.3060 -2.5714 0.9560
5.4217 9.5191 -2.5746 0.9560
4.0291 10.2763 -2.5942 0.9557
3.6071 10.2743 -2.5592 0.9562
3.0419 11.1825 -2.7237 0.9535
2.6363 11.2809 -2.7227 0.9535
2.2262 11.3578 -2.7201 0.9536
1.9030 11.9799 -2.8509 0.9514
1.4855 12.1647 -2.8802 0.9509
1.0458 12.2017 -2.8782 0.9509
0.6051 12.2218 -2.8759 0.9510
0.1645 12.2249 -2.8734 0.9510
-1.1510 12.1307 -2.8638 0.9512
-2.8477 11.7037 -2.8309 0.9517
-3.6636 11.4087 -2.8162 0.9520
-4.0605 11.2374 -2.8082 0.9521
5.5970 -7.4738 -2.4176 0.9622
5.8748 -7.2827 -2.4227 0.9621
6.9212 -6.4209 -2.4444 0.9617
7.1648 -6.1820 -2.4502 0.9617
7.4004 -5.9341 -2.4560 0.9616
7.6278 -5.6775 -2.4620 0.9615
7.8467 -5.4125 -2.4681 0.9614
8.0566 -5.1393 -2.4743 0.9613
8.4484 -4.5692 -2.4869 0.9611
9.1114 -3.3435 -2.5129 0.9607
9.3779 -2.6932 -2.5262 0.9605
9.4939 -2.3600 -2.5329 0.9604
9.6903 -1.6794 -2.5464 0.9602
5.3510 -0.1473 -1.3860 0.9781
4.1115 0.0349 -1.0646 0.9832
3.9739 0.6111 -1.0410 0.9835
3.9620 0.7562 -1.0444 0.9835
9.7941 2.6121 -2.6245 0.9590
9.6240 3.3252 -2.6364 0.9588
9.1226 4.7117 -2.6584 0.9585
8.7929 5.3763 -2.6685 0.9583
8.6089 5.6996 -2.6732 0.9582
8.2036 6.3255 -2.6822 0.9581
7.9828 6.6270 -2.6863 0.9580
7.7502 6.9203 -2.6902 0.9580
6.7095 8.0009 -2.7036 0.9578
6.3647 8.1702 -2.6816 0.9581
4.2912 8.9820 -2.5774 0.9597
3.9951 9.2002 -2.5970 0.9594
2.4577 10.5166 -2.7963 0.9564
2.1274 10.8531 -2.8636 0.9553
0.9424 10.9948 -2.8572 0.9554
0.1471 10.9295 -2.8301 0.9558
-0.2463 10.9148 -2.8268 0.9559
-1.0283 10.8379 -2.8187 0.9560
-1.7995 10.6984 -2.8089 0.9562
-2.1792 10.6056 -2.8034 0.9562
-2.5543 10.4980 -2.7974 0.9563
6.1172 -6.0993 -2.4455 0.9647
6.5683 -5.6674 -2.4559 0.9646
6.7830 -5.4390 -2.4613 0.9645
7.1891 -4.9589 -2.4724 0.9643
7.3799 -4.7076 -2.4781 0.9643
7.5621 -4.4491 -2.4838 0.9642
8.3352 -3.0587 -2.5135 0.9638
8.4603 -2.7632 -2.5196 0.9637
8.6792 -2.1575 -2.5318 0.9635
8.9257 -1.2177 -2.5502 0.9632
8.9854 -0.8976 -2.5563 0.9632
3.8352 0.0326 -1.0858 0.9842
3.7624 0.3037 -1.0686 0.9844
3.7297 0.7119 -1.0749 0.9843
8.9259 2.3805 -2.6152 0.9623
8.8528 2.7060 -2.6206 0.9622
8.5600 3.6667 -2.6362 0.9620
8.3044 4.2891 -2.6460 0.9619
8.1588 4.5934 -2.6506 0.9618
8.0016 4.8925 -2.6551 0.9618
7.6529 5.4730 -2.6635 0.9616
7.2600 6.0270 -2.6712 0.9615
5.8379 7.4940 -2.6893 0.9613
5.5689 7.7057 -2.6915 0.9612
5.0080 8.0998 -2.6959 0.9612
4.1450 8.6759 -2.7220 0.9608
3.8539 8.8749 -2.7391 0.9606
3.5584 9.0757 -2.7597 0.9603
3.2561 9.2746 -2.7827 0.9600
2.9405 9.4518 -2.8022 0.9597
2.6123 9.6032 -2.8174 0.9595
2.2573 9.6591 -2.8081 0.9596
1.5555 9.7922 -2.8069 0.9596
1.2013 9.8374 -2.8056 0.9596
0.8458 9.8682 -2.8039 0.9597
0.4895 9.8848 -2.8017 0.9597
0.1331 9.8869 -2.7992 0.9597
-0.2228 9.8747 -2.7962 0.9598
-0.9306 9.8078 -2.7890 0.9599
-1.2812 9.7532 -2.7848 0.9599
-1.6289 9.6847 -2.7802 0.9600
-1.9731 9.6026 -2.7752 0.9601
-2.3132 9.5070 -2.7699 0.9601
-2.6486 9.3981 -2.7642 0.9602
-2.9707 9.2509 -2.7506 0.9604
4.7420 -6.3321 -2.4332 0.9674
5.2040 -5.9958 -2.4419 0.9673
5.4267 -5.8154 -2.4465 0.9673
6.2545 -5.0153 -2.4658 0.9670
6.4443 -4.7967 -2.4709 0.9669
6.6267 -4.5710 -2.4761 0.9669
6.9680 -4.0995 -2.4866 0.9667
7.1264 -3.8542 -2.4920 0.9667
7.4177 -3.3459 -2.5029 0.9665
3.6308 0.0309 -1.1168 0.9849
3.5896 0.1599 -1.1052 0.9851
3.5817 0.2891 -1.1053 0.9851
3.5611 0.5476 -1.1082 0.9850
7.8496 3.3624 -2.6266 0.9649
7.4783 4.2103 -2.6397 0.9647
7.3332 4.4838 -2.6437 0.9647
7.0118 5.0145 -2.6514 0.9646
6.8359 5.2709 -2.6550 0.9645
6.2503 5.9992 -2.6647 0.9644
6.0366 6.2270 -2.6676 0.9644
5.8142 6.4468 -2.6702 0.9643
5.3445 6.8606 -2.6749 0.9643
5.0996 7.0564 -2.6779 0.9642
4.5978 7.4363 -2.6891 0.9641
3.8041 7.9625 -2.7142 0.9637
3.5166 8.0982 -2.7156 0.9637
3.2239 8.2227 -2.7166 0.9637
2.6249 8.4372 -2.7178 0.9637
2.3195 8.5268 -2.7180 0.9637
1.7085 8.7161 -2.7319 0.9635
1.3962 8.7892 -2.7373 0.9634
0.7613 8.8824 -2.7421 0.9634
0.1199 8.9084 -2.7403 0.9634
-0.2007 8.8954 -2.7367 0.9634
-0.8370 8.8214 -2.7255 0.9636
-1.1506 8.7583 -2.7170 0.9637
-1.7647 8.5882 -2.6967 0.9640
-2.9587 8.1883 -2.6779 0.9642
4.6155 -5.7216 -2.4435 0.9695
5.2325 -5.2172 -2.4562 0.9693
5.4268 -5.0345 -2.4606 0.9693
5.6149 -4.8447 -2.4651 0.9692
5.9716 -4.4448 -2.4745 0.9691
6.5995 -3.5693 -2.4940 0.9689
6.7373 -3.3360 -2.4990 0.9688
6.9883 -2.8540 -2.5092 0.9687
7.1011 -2.6058 -2.5144 0.9686
7.2052 -2.3533 -2.5195 0.9686
7.3862 -1.8361 -2.5299 0.9684
7.4629 -1.5721 -2.5352 0.9684
7.6358 -0.7628 -2.5508 0.9682
7.6738 -0.4883 -2.5560 0.9681
3.4697 0.0295 -1.1534 0.9855
3.4403 0.1532 -1.1447 0.9856
3.4257 0.4011 -1.1465 0.9856
3.4146 0.5251 -1.1484 0.9855
3.4008 0.6491 -1.1509 0.9855
3.3857 0.7735 -1.1544 0.9855
3.4250 0.9134 -1.1783 0.9852
7.3354 2.8340 -2.6140 0.9674
7.1352 3.3655 -2.6224 0.9673
6.8952 3.8820 -2.6303 0.9672
6.7606 4.1337 -2.6340 0.9671
6.1282 5.0874 -2.6475 0.9670
5.9477 5.3107 -2.6505 0.9669
5.7587 5.5273 -2.6533 0.9669
5.3581 5.9411 -2.6594 0.9668
5.1498 6.1410 -2.6641 0.9668
4.9368 6.3371 -2.6703 0.9667
4.4985 6.7219 -2.6886 0.9665
4.2599 6.8899 -2.6927 0.9664
4.0120 7.0441 -2.6946 0.9664
3.4987 7.3233 -2.6978 0.9664
1.8492 7.9128 -2.7011 0.9663
0.9843 8.0602 -2.6992 0.9664
0.6931 8.0869 -2.6980 0.9664
0.4012 8.1023 -2.6966 0.9664
-0.1827 8.0992 -2.6929 0.9664
-0.4739 8.0808 -2.6907 0.9665
-0.7639 8.0511 -2.6883 0.9665
-1.3386 7.9585 -2.6826 0.9666
-1.9033 7.8224 -2.6761 0.9666
-2.1808 7.7383 -2.6725 0.9667
4.0986 -5.4730 -2.4451 0.9714
4.2996 -5.3299 -2.4489 0.9713
4.4957 -5.1797 -2.4527 0.9713
4.8726 -4.8583 -2.4606 0.9712
5.0528 -4.6875 -2.4647 0.9711
5.2272 -4.5102 -2.4689 0.9711
5.5577 -4.1367 -2.4776 0.9710
5.8622 -3.7395 -2.4866 0.9709
6.0041 -3.5324 -2.4911 0.9708
6.3858 -2.8804 -2.5052 0.9707
6.6016 -2.4226 -2.5147 0.9706
6.6974 -2.1874 -2.5195 0.9705
6.8637 -1.7062 -2.5292 0.9704
6.9954 -1.2124 -2.5389 0.9703
7.0479 -0.9615 -2.5437 0.9702
3.3728 -0.0929 -1.2066 0.9858
3.3034 0.1471 -1.1825 0.9861
3.2969 0.2661 -1.1828 0.9860
3.2887 0.3851 -1.1841 0.9860
6.9500 2.1244 -2.5989 0.9696
6.8800 2.3771 -2.6030 0.9696
6.8004 2.6274 -2.6071 0.9695
6.7115 2.8749 -2.6110 0.9695
6.3895 3.5973 -2.6222 0.9693
6.1298 4.0583 -2.6290 0.9693
5.8358 4.4997 -2.6353 0.9692
5.5134 4.9229 -2.6432 0.9691
5.1683 5.3314 -2.6554 0.9689
3.9395 6.3717 -2.6789 0.9687
3.4751 6.6472 -2.6823 0.9686
3.2351 6.7714 -2.6837 0.9686
2.9904 6.8864 -2.6848 0.9686
2.4884 7.0877 -2.6863 0.9686
1.9721 7.2498 -2.6868 0.9686
1.7097 7.3159 -2.6867 0.9686
1.1783 7.4173 -2.6858 0.9686
0.6409 7.4775 -2.6838 0.9686
-0.1690 7.4899 -2.6792 0.9687
-0.7065 7.4464 -2.6749 0.9687
-0.9733 7.4093 -2.6724 0.9688
-1.2383 7.3620 -2.6697 0.9688
-1.5009 7.3046 -2.6668 0.9688
-2.0179 7.1603 -2.6603 0.9689
4.0199 -4.9833 -2.4536 0.9729
4.2029 -4.8423 -2.4571 0.9729
4.5543 -4.5409 -2.4646 0.9728
4.8847 -4.2146 -2.4723 0.9727
5.0414 -4.0425 -2.4763 0.9727
5.1922 -3.8647 -2.4804 0.9727
5.3369 -3.6813 -2.4846 0.9726
5.4752 -3.4927 -2.4887 0.9726
5.6070 -3.2989 -2.4930 0.9725
5.8503 -2.8968 -2.5017 0.9724
5.9613 -2.6889 -2.5061 0.9724
6.1612 -2.2609 -2.5150 0.9723
6.2498 -2.0412 -2.5195 0.9722
6.4033 -1.5917 -2.5285 0.9721
6.4680 -1.3625 -2.5331 0.9721
6.5727 -0.8967 -2.5421 0.9720
6.6124 -0.6605 -2.5466 0.9719
3.6393 -0.2316 -1.3975 0.9845
3.2400 -0.0892 -1.2421 0.9862
3.1877 0.2573 -1.2256 0.9864
3.1694 0.4874 -1.2289 0.9864
3.1561 0.6024 -1.2313 0.9863
3.1520 0.7201 -1.2390 0.9862
3.1377 0.8368 -1.2444 0.9862
3.1581 0.9654 -1.2655 0.9860
6.4059 2.2133 -2.5973 0.9714
6.1562 2.9037 -2.6084 0.9713
5.9503 3.3500 -2.6168 0.9712
5.5885 3.9966 -2.6329 0.9710
5.4534 4.2049 -2.6390 0.9709
4.9877 4.7873 -2.6493 0.9708
4.8177 4.9696 -2.6524 0.9708
4.4569 5.3147 -2.6581 0.9707
4.2667 5.4770 -2.6606 0.9707
3.8678 5.7795 -2.6650 0.9706
3.6598 5.9192 -2.6669 0.9706
3.4464 6.0510 -2.6686 0.9706
3.2280 6.1746 -2.6701 0.9706
3.0050 6.2898 -2.6713 0.9706
2.3112 6.5831 -2.6737 0.9706
1.8317 6.7337 -2.6742 0.9705
1.3421 6.8469 -2.6738 0.9706
1.0944 6.8894 -2.6732 0.9706
0.8454 6.9223 -2.6725 0.9706
0.5953 6.9457 -2.6715 0.9706
0.3446 6.9594 -2.6702 0.9706
-0.4072 6.9430 -2.6653 0.9706
-1.1506 6.8409 -2.6584 0.9707
-1.6366 6.7262 -2.6528 0.9708
-1.8756 6.6551 -2.6497 0.9708
-2.3438 6.4864 -2.6430 0.9709
3.7704 -4.6740 -2.4578 0.9744
3.9417 -4.5414 -2.4611 0.9743
4.1084 -4.4027 -2.4646 0.9743
4.2704 -4.2579 -2.4681 0.9743
4.4275 -4.1074 -2.4717 0.9742
5.2538 -3.0910 -2.4948 0.9740
5.3704 -2.9045 -2.4988 0.9740
5.5837 -2.5186 -2.5070 0.9739
5.6802 -2.3198 -2.5111 0.9738
5.7696 -2.1172 -2.5153 0.9738
5.9943 -1.4901 -2.5280 0.9737
6.0542 -1.2754 -2.5322 0.9736
6.1063 -1.0583 -2.5364 0.9736
6.1507 -0.8391 -2.5406 0.9735
6.1872 -0.6181 -2.5448 0.9735
3.3027 -0.2101 -1.3544 0.9858
3.1066 0.1384 -1.2727 0.9866
3.0990 0.2501 -1.2725 0.9867
3.0917 0.3620 -1.2740 0.9866
3.0812 0.4738 -1.2759 0.9866
3.0679 0.5856 -1.2783 0.9866
5.9899 2.0696 -2.5937 0.9730
5.8456 2.5040 -2.6027 0.9729
5.7612 2.7174 -2.6070 0.9728
5.3441 3.5381 -2.6231 0.9727
5.2206 3.7335 -2.6268 0.9726
4.9513 4.1104 -2.6337 0.9726
4.6537 4.4667 -2.6400 0.9725
4.4947 4.6364 -2.6429 0.9725
4.3292 4.8003 -2.6456 0.9724
3.9798 5.1088 -2.6505 0.9724
3.4132 5.5204 -2.6564 0.9723
3.2141 5.6431 -2.6579 0.9723
2.5901 5.9646 -2.6614 0.9723
2.3743 6.0557 -2.6621 0.9723
2.1551 6.1385 -2.6627 0.9723
1.9329 6.2129 -2.6630 0.9723
1.7080 6.2787 -2.6631 0.9723
1.4807 6.3360 -2.6630 0.9723
1.2514 6.3845 -2.6627 0.9723
0.3214 6.4899 -2.6594 0.9723
-0.1464 6.4892 -2.6565 0.9723
-0.3798 6.4754 -2.6548 0.9724
-0.8436 6.4214 -2.6507 0.9724
-1.7500 6.2094 -2.6404 0.9725
-1.9702 6.1353 -2.6373 0.9725
-2.1872 6.0530 -2.6341 0.9726
3.3814 -4.5153 -2.4585 0.9757
3.5462 -4.3961 -2.4615 0.9757
3.7070 -4.2710 -2.4647 0.9756
3.8635 -4.1402 -2.4680 0.9756
4.0155 -4.0038 -2.4713 0.9756
4.1628 -3.8619 -2.4747 0.9755
4.4425 -3.5623 -2.4817 0.9755
4.5745 -3.4049 -2.4853 0.9754
4.9370 -2.9046 -2.4964 0.9753
5.0460 -2.7291 -2.5002 0.9753
5.3355 -2.1790 -2.5117 0.9752
5.4957 -1.7949 -2.5196 0.9751
5.5654 -1.5984 -2.5236 0.9751
5.6282 -1.3991 -2.5275 0.9750
5.7323 -0.9935 -2.5354 0.9749
3.1479 -0.2003 -1.3747 0.9863
3.0925 0.0263 -1.3478 0.9866
3.0810 0.1372 -1.3441 0.9866
3.0697 0.2478 -1.3422 0.9867
3.0591 0.3582 -1.3423 0.9867
3.0497 0.4689 -1.3447 0.9866
3.0415 0.5805 -1.3495 0.9866
3.0335 0.6930 -1.3561 0.9865
3.0246 0.8066 -1.3642 0.9864
3.0191 0.9229 -1.3759 0.9863
3.3698 1.1643 -1.5538 0.9846
5.5493 2.1440 -2.5927 0.9744
5.4773 2.3462 -2.5969 0.9743
5.2159 2.9365 -2.6087 0.9742
5.0049 3.3135 -2.6160 0.9741
4.6358 3.8485 -2.6259 0.9741
4.4994 4.0175 -2.6289 0.9740
4.3565 4.1815 -2.6317 0.9740
3.8913 4.6403 -2.6393 0.9739
3.7248 4.7813 -2.6415 0.9739
3.5529 4.9161 -2.6435 0.9739
3.3758 5.0443 -2.6453 0.9739
3.0075 5.2804 -2.6484 0.9738
2.8168 5.3879 -2.6497 0.9738
2.0164 5.7434 -2.6529 0.9738
1.8085 5.8129 -2.6532 0.9738
1.5980 5.8745 -2.6533 0.9738
1.3854 5.9281 -2.6532 0.9738
1.1709 5.9735 -2.6529 0.9738
0.9548 6.0107 -2.6524 0.9738
0.7376 6.0396 -2.6518 0.9738
0.5194 6.0603 -2.6509 0.9738
0.3007 6.0727 -2.6498 0.9738
0.0818 6.0767 -2.6486 0.9738
-0.1370 6.0724 -2.6471 0.9738
-0.3554 6.0598 -2.6455 0.9739
-0.7895 6.0099 -2.6417 0.9739
-1.0046 5.9726 -2.6395 0.9739
-1.2179 5.9273 -2.6372 0.9739
-1.4292 5.8740 -2.6347 0.9740
-1.6382 5.8129 -2.6320 0.9740
-1.8445 5.7439 -2.6292 0.9740
3.6421 -3.9029 -2.4710 0.9767
3.7851 -3.7740 -2.4741 0.9767
4.0575 -3.5009 -2.4806 0.9767
4.3106 -3.2085 -2.4873 0.9766
4.4294 -3.0554 -2.4908 0.9766
4.5430 -2.8979 -2.4943 0.9765
4.6510 -2.7363 -2.4978 0.9765
4.7533 -2.5708 -2.5014 0.9765
4.9403 -2.2284 -2.5086 0.9764
5.1028 -1.8725 -2.5160 0.9763
5.2983 -1.3171 -2.5271 0.9762
5.3502 -1.1271 -2.5309 0.9762
3.1152 -0.1982 -1.4449 0.9863
3.0457 0.2458 -1.4144 0.9866
3.0079 0.6872 -1.4282 0.9865
2.9834 0.9119 -1.4440 0.9863
4.8035 2.9371 -2.6062 0.9755
4.7007 3.1121 -2.6095 0.9755
4.5912 3.2834 -2.6127 0.9754
4.3530 3.6137 -2.6188 0.9754
4.2246 3.7721 -2.6216 0.9753
4.0901 3.9258 -2.6243 0.9753
3.8040 4.2179 -2.6291 0.9753
3.6527 4.3558 -2.6314 0.9753
3.4962 4.4880 -2.6334 0.9752
3.1684 4.7345 -2.6370 0.9752
2.6435 5.0564 -2.6411 0.9752
2.4606 5.1503 -2.6421 0.9752
2.0847 5.3170 -2.6436 0.9751
1.8922 5.3896 -2.6441 0.9751
1.4996 5.5126 -2.6444 0.9751
1.3000 5.5629 -2.6444 0.9751
0.8960 5.6405 -2.6437 0.9751
0.4875 5.6872 -2.6422 0.9752
0.2822 5.6990 -2.6412 0.9752
-0.9430 5.6064 -2.6316 0.9753
-1.5380 5.4574 -2.6246 0.9753
-1.7318 5.3930 -2.6219 0.9753
-1.9229 5.3215 -2.6191 0.9754
3.0126 -4.0229 -2.4653 0.9779
3.1591 -3.9161 -2.4681 0.9778
4.0708 -3.0300 -2.4892 0.9776
4.1827 -2.8852 -2.4925 0.9776
4.4874 -2.4270 -2.5025 0.9775
4.7425 -1.9368 -2.5128 0.9774
4.8158 -1.7672 -2.5163 0.9774
4.9991 -1.2427 -2.5268 0.9773
5.0477 -1.0633 -2.5303 0.9773
3.0824 -0.1961 -1.5150 0.9863
3.0476 -0.0839 -1.4955 0.9865
3.0310 0.1350 -1.4883 0.9866
3.0118 0.3527 -1.4875 0.9866
3.0023 0.4617 -1.4900 0.9866
2.9925 0.5712 -1.4944 0.9865
2.9728 0.7929 -1.5092 0.9864
4.8461 2.0758 -2.5860 0.9768
4.7764 2.2529 -2.5905 0.9767
4.6984 2.4266 -2.5939 0.9767
4.6140 2.5976 -2.5973 0.9767
4.0977 3.4018 -2.6124 0.9766
3.9766 3.5507 -2.6150 0.9765
3.5801 3.9696 -2.6221 0.9765
3.4376 4.0992 -2.6242 0.9764
3.2901 4.2234 -2.6261 0.9764
3.1380 4.3421 -2.6279 0.9764
2.6558 4.6628 -2.6322 0.9764
2.3151 4.8457 -2.6343 0.9764
2.1397 4.9274 -2.6351 0.9764
1.5966 5.1320 -2.6364 0.9763
1.4108 5.1863 -2.6365 0.9763
1.2231 5.2336 -2.6364 0.9763
1.0337 5.2738 -2.6362 0.9763
0.8430 5.3068 -2.6357 0.9763
0.6512 5.3324 -2.6352 0.9763
0.4586 5.3509 -2.6344 0.9764
0.0722 5.3659 -2.6324 0.9764
-0.1210 5.3624 -2.6311 0.9764
-0.3139 5.3517 -2.6297 0.9764
-0.6974 5.3085 -2.6263 0.9764
-0.8874 5.2762 -2.6244 0.9764
-1.4476 5.1367 -2.6178 0.9765
-1.8101 5.0094 -2.6127 0.9765
2.9905 -3.7071 -2.4709 0.9788
3.1254 -3.6009 -2.4736 0.9787
3.6266 -3.1292 -2.4849 0.9786
3.8517 -2.8670 -2.4909 0.9786
4.0582 -2.5887 -2.4971 0.9785
4.2447 -2.2957 -2.5035 0.9785
4.4850 -1.8316 -2.5133 0.9784
4.5540 -1.6711 -2.5166 0.9784
4.6747 -1.3425 -2.5232 0.9783
4.7263 -1.1749 -2.5265 0.9783
4.7718 -1.0052 -2.5298 0.9783
4.8444 -0.6609 -2.5365 0.9782
3.0496 -0.1940 -1.5853 0.9863
2.9961 0.2418 -1.5594 0.9865
2.9685 0.5666 -1.5678 0.9865
2.9614 0.6766 -1.5759 0.9864
2.9506 0.7869 -1.5842 0.9863
2.9413 0.8991 -1.5956 0.9862
2.9747 1.0278 -1.6328 0.9859
4.5068 2.1257 -2.5850 0.9778
4.4316 2.2889 -2.5876 0.9778
4.2683 2.6098 -2.5955 0.9777
4.1763 2.7650 -2.5984 0.9777
4.0785 2.9168 -2.6013 0.9777
3.9750 3.0650 -2.6040 0.9776
3.8659 3.2094 -2.6066 0.9776
3.3769 3.7443 -2.6158 0.9775
2.6600 4.3022 -2.6241 0.9775
2.3454 4.4863 -2.6263 0.9774
1.5055 4.8392 -2.6292 0.9774
1.3303 4.8904 -2.6293 0.9774
1.1533 4.9351 -2.6292 0.9774
0.7949 5.0041 -2.6286 0.9774
-0.1141 5.0571 -2.6242 0.9775
-0.6577 5.0067 -2.6197 0.9775
-1.1912 4.8958 -2.6139 0.9776
-1.3656 4.8456 -2.6117 0.9776
-1.5378 4.7889 -2.6094 0.9776
-1.7077 4.7260 -2.6069 0.9776
2.7044 -3.6112 -2.4710 0.9796
2.9633 -3.4142 -2.4760 0.9796
3.4377 -2.9662 -2.4868 0.9795
3.6506 -2.7173 -2.4925 0.9795
3.7505 -2.5871 -2.4954 0.9794
3.8458 -2.4533 -2.4984 0.9794
4.4277 -1.2716 -2.5231 0.9792
4.4762 -1.1127 -2.5262 0.9792
4.5190 -0.9520 -2.5294 0.9792
4.5560 -0.7896 -2.5325 0.9791
4.5872 -0.6258 -2.5357 0.9791
2.9956 0.0254 -1.6408 0.9864
2.9850 0.1330 -1.6365 0.9865
2.9522 0.4540 -1.6359 0.9865
2.9298 0.7814 -1.6608 0.9863
2.9461 1.0179 -1.7072 0.9859
4.3882 1.6954 -2.5766 0.9788
4.2631 2.0108 -2.5816 0.9787
4.1148 2.3166 -2.5863 0.9787
4.0348 2.4670 -2.5902 0.9787
3.9484 2.6141 -2.5936 0.9786
3.5459 3.1662 -2.6037 0.9786
3.4325 3.2946 -2.6059 0.9785
3.3143 3.4188 -2.6080 0.9785
3.1915 3.5387 -2.6100 0.9785
2.6569 3.9701 -2.6165 0.9784
2.5135 4.0652 -2.6178 0.9784
2.3665 4.1549 -2.6189 0.9784
2.0627 4.3175 -2.6207 0.9784
1.9064 4.3901 -2.6214 0.9784
1.5860 4.5175 -2.6224 0.9784
0.7511 4.7280 -2.6220 0.9784
0.2366 4.7777 -2.6200 0.9784
-0.1078 4.7786 -2.6179 0.9784
-0.2797 4.7693 -2.6166 0.9784
-0.6215 4.7314 -2.6137 0.9785
-0.7910 4.7029 -2.6120 0.9785
-0.9592 4.6681 -2.6102 0.9785
-1.1259 4.6271 -2.6082 0.9785
-1.6142 4.4673 -2.6016 0.9786
2.6925 -3.3378 -2.4759 0.9804
2.9316 -3.1415 -2.4808 0.9803
3.0459 -3.0370 -2.4833 0.9803
3.1566 -2.9284 -2.4859 0.9803
3.3664 -2.6994 -2.4913 0.9803
3.4652 -2.5792 -2.4940 0.9802
3.5598 -2.4555 -2.4968 0.9802
4.0313 -1.6463 -2.5141 0.9801
4.0928 -1.5019 -2.5170 0.9801
4.1491 -1.3551 -2.5200 0.9800
4.2002 -1.2063 -2.5230 0.9800
4.2459 -1.0555 -2.5260 0.9800
4.3210 -0.7489 -2.5319 0.9799
2.9835 -0.0821 -1.7232 0.9863
2.9739 0.0253 -1.7170 0.9864
2.9311 0.4507 -1.7121 0.9864
2.9170 0.6664 -1.7275 0.9863
2.9083 0.7756 -1.7378 0.9862
2.8990 0.8861 -1.7502 0.9861
3.9714 2.0512 -2.5807 0.9796
3.8199 2.3356 -2.5850 0.9795
3.4602 2.8726 -2.5965 0.9794
3.2499 3.1193 -2.6008 0.9794
3.1379 3.2368 -2.6028 0.9794
3.0214 3.3501 -2.6046 0.9794
1.9524 4.0865 -2.6148 0.9793
1.5012 4.2758 -2.6163 0.9793
1.1896 4.3732 -2.6167 0.9793
0.8717 4.4471 -2.6164 0.9793
0.7109 4.4750 -2.6160 0.9793
-0.4269 4.4998 -2.6096 0.9793
-0.7488 4.4521 -2.6066 0.9794
-0.9081 4.4194 -2.6048 0.9794
-1.0659 4.3807 -2.6030 0.9794
-1.2220 4.3362 -2.6010 0.9794
-1.3763 4.2859 -2.5989 0.9794
