ply
format ascii 1.0
element vertex 1152
property float32 x
property float32 y
property float32 z
property float32 I
end_header
21.6029 9.7624 4.1801 0.9082
18.9258 10.2373 3.7941 0.9163
18.9698 12.0857 3.9661 0.9127
18.9936 13.0770 4.0661 0.9106
17.5384 14.0201 3.9592 0.9128
9.2863 8.5782 2.2291 0.9499
12.3260 12.2299 3.0617 0.9319
11.4928 12.2479 2.9615 0.9341
10.7061 12.2586 2.8698 0.9360
9.9753 12.2804 2.7897 0.9378
6.2611 9.6599 2.0298 0.9543
5.7883 9.6700 1.9872 0.9553
5.6929 10.3305 2.0798 0.9532
5.7172 11.3120 2.2349 0.9498
5.2757 12.5992 2.4085 0.9460
4.6773 12.3945 2.3359 0.9476
4.1819 12.4052 2.3083 0.9482
3.9878 15.3779 2.8012 0.9375
3.9935 21.6603 3.8837 0.9144
5.6371 38.1721 6.8038 0.8549
2.8807 38.2314 6.7603 0.8558
1.5121 38.2609 6.7517 0.8560
-0.4717 14.7783 2.6071 0.9417
21.6029 9.7624 3.6317 0.9085
19.7765 9.8017 3.3813 0.9146
18.9132 10.2305 3.2941 0.9167
18.9566 12.0774 3.4434 0.9131
18.9801 13.0677 3.5301 0.9110
18.1861 13.5027 3.4700 0.9124
17.5252 14.0096 3.4372 0.9132
17.1776 14.7670 3.4702 0.9124
11.4928 12.2479 2.5730 0.9343
10.8185 12.3873 2.5195 0.9356
10.0752 12.4033 2.4480 0.9374
6.7553 9.6492 1.8045 0.9535
5.6858 10.3176 1.8047 0.9534
5.7095 11.2968 1.9391 0.9501
5.7081 12.3723 2.0874 0.9464
5.2757 12.5992 2.0925 0.9462
4.1819 12.4052 2.0055 0.9484
3.9777 15.3388 2.4275 0.9379
4.4225 19.9616 3.1321 0.9206
3.9935 21.6603 3.3742 0.9147
5.6371 38.1722 5.9112 0.8554
4.2545 38.2019 5.8885 0.8559
2.8807 38.2315 5.8734 0.8563
1.5121 38.2609 5.8659 0.8565
-0.4718 14.7804 2.2654 0.9419
19.7766 9.8017 2.8743 0.9148
18.9216 11.1260 2.8584 0.9153
17.5376 15.0764 3.0116 0.9109
11.4929 12.2479 2.1872 0.9345
10.0752 12.4033 2.0809 0.9376
6.7553 9.6492 1.5339 0.9536
6.2611 9.6599 1.4990 0.9546
4.8970 9.6892 1.4137 0.9572
3.8416 10.1798 1.4169 0.9571
4.1819 12.4052 1.7047 0.9486
3.9145 13.1448 1.7860 0.9462
3.9677 15.3002 2.0583 0.9382
4.4225 19.9616 2.6624 0.9208
5.6371 38.1722 5.0247 0.8559
1.5701 39.7286 5.1775 0.8518
21.6029 9.7624 2.5456 0.9090
20.9736 10.3950 2.5136 0.9101
18.3615 13.6329 2.4557 0.9121
17.4991 13.9887 2.4057 0.9138
9.2682 8.5615 1.3549 0.9505
10.8186 12.3874 1.7661 0.9360
10.0752 12.4033 1.7159 0.9377
5.3343 9.6798 1.1868 0.9565
4.8970 9.6892 1.1658 0.9573
3.8350 10.1622 1.1664 0.9572
3.8664 11.4693 1.2997 0.9525
3.9060 13.1163 1.4696 0.9464
3.9578 15.2619 1.6931 0.9385
4.4225 19.9616 2.1955 0.9210
5.6371 38.1723 4.1435 0.8562
2.8807 38.2316 4.1170 0.8571
-0.4719 14.7845 1.5884 0.9422
-35.9827 23.3106 4.6038 0.8416
19.7869 11.6348 1.9431 0.9120
17.6053 15.1346 1.9653 0.9110
11.4929 12.2480 1.4218 0.9348
10.8186 12.3874 1.3922 0.9361
7.2737 9.6381 1.0222 0.9527
6.2611 9.6599 0.9745 0.9548
5.7768 9.6508 0.9521 0.9559
4.4655 9.6790 0.9024 0.9581
3.8284 10.1449 0.9179 0.9574
3.8590 11.4474 1.0226 0.9527
3.8976 13.0880 1.1560 0.9467
3.9479 15.2241 1.3314 0.9388
4.4225 19.9617 1.7308 0.9212
5.6371 38.1723 3.2664 0.8565
-0.4720 14.7866 1.2524 0.9423
-35.7737 33.5528 4.1519 0.8213
-35.9211 27.0958 3.8089 0.8348
-36.0066 23.3261 3.6318 0.8418
-36.7240 20.2266 3.5491 0.8451
21.6032 9.7626 1.4701 0.9094
20.9468 10.3817 1.4497 0.9106
18.1862 13.5028 1.4046 0.9132
17.4733 13.9681 1.3872 0.9142
17.5919 15.1232 1.4386 0.9112
9.2621 8.5558 0.7819 0.9507
12.3261 12.2300 1.0767 0.9328
10.3196 11.8160 0.9728 0.9391
9.5066 11.7034 0.9350 0.9414
7.2592 9.6189 0.7473 0.9529
6.7419 9.6301 0.7290 0.9540
6.2487 9.6407 0.7124 0.9550
5.7768 9.6508 0.6975 0.9559
4.8873 9.6700 0.6719 0.9575
4.4655 9.6790 0.6610 0.9582
3.9382 15.1865 0.9729 0.9391
3.9935 21.6604 1.3658 0.9155
5.6371 38.1724 2.3928 0.8567
4.2681 38.3246 2.3912 0.8568
-0.4721 14.7887 0.9175 0.9424
-35.8007 33.5781 3.0437 0.8214
-35.7734 31.2284 2.9446 0.8267
-35.9892 25.1832 2.7238 0.8386
-36.0304 23.3415 2.6621 0.8419
-36.7241 20.2267 2.5998 0.8453
-40.1911 20.3012 2.7922 0.8349
18.8515 10.1971 0.8451 0.9178
18.9137 13.0220 0.9055 0.9122
17.1778 14.7671 0.8932 0.9133
9.2591 8.5530 0.4970 0.9508
12.3069 12.2110 0.6836 0.9330
11.4750 12.2289 0.6612 0.9351
10.3196 11.8160 0.6186 0.9391
7.2592 9.6190 0.4752 0.9529
6.7419 9.6301 0.4635 0.9540
5.7768 9.6508 0.4435 0.9560
5.3237 9.6606 0.4349 0.9568
4.4655 9.6790 0.4203 0.9582
3.8154 10.1105 0.4261 0.9577
3.8444 11.4042 0.4745 0.9530
3.8810 13.0321 0.5362 0.9470
3.9285 15.1492 0.6171 0.9393
4.7424 32.1138 1.2800 0.8781
2.4144 32.0428 1.2671 0.8793
-35.8470 29.1046 1.8207 0.8312
-35.9749 23.3056 1.6902 0.8423
-36.7242 20.2267 1.6532 0.8455
21.6033 9.7626 0.4005 0.9095
18.8588 11.0890 0.3696 0.9162
18.8792 12.0280 0.3781 0.9143
18.9007 13.0130 0.3876 0.9123
18.1863 13.5028 0.3826 0.9134
17.4477 13.9476 0.3773 0.9145
9.2561 8.5503 0.2129 0.9508
12.3069 12.2110 0.2929 0.9330
11.4750 12.2289 0.2833 0.9351
10.6949 12.2457 0.2746 0.9370
9.9600 12.2615 0.2668 0.9388
6.7554 9.6493 0.1990 0.9540
5.3343 9.6799 0.1867 0.9567
4.8970 9.6893 0.1834 0.9575
4.4655 9.6791 0.1801 0.9583
4.0567 9.6879 0.1774 0.9589
3.8372 11.3828 0.2029 0.9531
3.8727 13.0044 0.2292 0.9472
4.4182 19.9423 0.3450 0.9215
4.0718 22.0850 0.3793 0.9141
4.5518 30.8230 0.5263 0.8828
-33.6616 25.3915 0.7122 0.8448
-36.8235 23.8553 0.7411 0.8390
-37.6154 22.5040 0.7404 0.8392
-40.1884 20.2998 0.7605 0.8352
18.8876 13.0040 -0.1291 0.9124
18.1863 13.5029 -0.1275 0.9134
12.3261 12.2301 -0.0978 0.9329
11.4750 12.2289 -0.0944 0.9351
10.5728 12.1060 -0.0905 0.9377
9.9752 12.2802 -0.0891 0.9387
7.2592 9.6190 -0.0678 0.9529
6.2612 9.6600 -0.0648 0.9550
5.7883 9.6701 -0.0635 0.9559
4.8970 9.6893 -0.0611 0.9575
4.0567 9.6879 -0.0591 0.9589
3.8159 10.1118 -0.0609 0.9577
4.1754 12.3860 -0.0736 0.9491
3.9094 15.0755 -0.0877 0.9396
4.4182 19.9423 -0.1150 0.9215
4.1492 22.5045 -0.1288 0.9125
3.3860 30.4035 -0.1722 0.8848
-0.7620 11.2533 -0.0635 0.9559
-1.1677 11.2620 -0.0637 0.9557
-1.5732 11.2434 -0.0639 0.9556
-36.5552 29.6797 -0.2651 0.8283
-36.6418 25.6398 -0.2518 0.8362
-36.7216 20.2253 -0.2360 0.8456
-40.1885 20.2998 -0.2535 0.8352
16.4650 8.9063 -0.5271 0.9278
15.1916 8.9327 -0.4962 0.9319
14.0590 8.9571 -0.4694 0.9355
13.0415 8.9790 -0.4458 0.9386
11.2796 9.0168 -0.4066 0.9439
8.5240 9.0840 -0.3508 0.9514
6.8822 9.1193 -0.3217 0.9553
5.4767 9.1495 -0.3003 0.9582
5.0429 9.1509 -0.2942 0.9591
3.8426 9.1767 -0.2801 0.9610
3.0989 9.1927 -0.2732 0.9619
2.3879 9.2080 -0.2679 0.9626
0.3657 9.2516 -0.2607 0.9636
0.0352 9.2587 -0.2607 0.9636
-0.7598 11.2209 -0.3167 0.9560
-1.1644 11.2296 -0.3179 0.9558
-1.5733 11.2434 -0.3197 0.9556
-29.0437 33.7691 -1.2542 0.8367
-28.9941 31.3729 -1.2029 0.8429
-28.8596 27.0680 -1.1141 0.8536
-28.7759 21.7061 -1.0149 0.8657
-28.3230 16.9447 -0.9293 0.8763
-28.2944 15.5838 -0.9096 0.8787
-28.5189 14.4054 -0.8997 0.8800
-28.6388 13.2047 -0.8880 0.8814
-28.6021 11.9689 -0.8730 0.8833
-29.0387 9.7817 -0.8628 0.8846
-45.6220 13.5748 -1.3403 0.8266
-46.1276 10.2084 -1.3303 0.8277
-45.6807 8.4112 -1.3079 0.8304
-46.4197 6.8441 -1.3212 0.8288
19.5611 8.8397 -1.0886 0.9176
17.9073 8.8753 -1.0136 0.9231
16.4651 8.9063 -0.9493 0.9278
15.1916 8.9327 -0.8937 0.9318
14.0590 8.9571 -0.8454 0.9354
12.1201 8.9988 -0.7656 0.9413
9.2470 8.5419 -0.6384 0.9508
9.1419 9.0707 -0.6531 0.9497
7.9445 9.0965 -0.6125 0.9528
5.9241 9.1399 -0.5524 0.9573
5.4767 9.1495 -0.5408 0.9582
5.0429 9.1509 -0.5299 0.9590
3.4661 9.1849 -0.4979 0.9614
3.0990 9.1928 -0.4920 0.9619
2.0417 9.2155 -0.4787 0.9629
1.7004 9.2228 -0.4756 0.9631
1.0288 9.2373 -0.4714 0.9635
0.3657 9.2516 -0.4696 0.9636
-0.4651 14.5712 -0.7393 0.9433
-0.7631 11.2695 -0.5728 0.9558
-1.1694 11.2783 -0.5750 0.9556
-8.2250 46.5924 -2.3994 0.8274
-9.7311 45.5581 -2.3626 0.8298
-12.5755 43.4307 -2.2930 0.8344
-13.9164 42.3412 -2.2603 0.8365
-15.2047 41.2363 -2.2289 0.8386
-16.4418 40.1176 -2.1988 0.8406
-18.7671 37.8438 -2.1423 0.8444
-19.8577 36.6909 -2.1158 0.8461
-20.9020 35.5287 -2.0905 0.8478
-21.9008 34.3581 -2.0663 0.8494
-22.8554 33.1799 -2.0433 0.8510
-23.7668 31.9951 -2.0213 0.8525
-27.0004 27.1999 -1.9437 0.8577
-26.9145 23.4950 -1.8119 0.8667
-27.3372 22.1955 -1.7858 0.8685
-27.9017 21.0467 -1.7724 0.8694
-28.6376 18.5522 -1.7305 0.8723
-28.3419 16.9560 -1.6749 0.8761
-28.4509 13.1181 -1.5888 0.8821
-28.5663 9.6226 -1.5287 0.8863
-31.8622 9.4806 -1.6859 0.8753
-32.0866 8.3129 -1.6810 0.8757
-32.2417 7.1353 -1.6747 0.8761
-33.7044 6.2060 -1.7380 0.8717
-34.6379 3.8495 -1.7674 0.8697
19.5611 8.8397 -1.5739 0.9175
16.4651 8.9063 -1.3726 0.9277
15.1917 8.9327 -1.2922 0.9318
13.0415 8.9790 -1.1610 0.9385
11.2797 9.0169 -1.0588 0.9437
10.5171 9.0411 -1.0169 0.9459
9.2440 8.5391 -0.9227 0.9508
9.1420 9.0707 -0.9443 0.9497
8.5240 9.0840 -0.9134 0.9513
7.9445 9.0965 -0.8855 0.9527
6.8822 9.1193 -0.8377 0.9552
6.3917 9.1299 -0.8172 0.9563
5.9242 9.1399 -0.7986 0.9573
5.4767 9.1496 -0.7819 0.9581
4.6295 9.1599 -0.7525 0.9597
3.4661 9.1849 -0.7198 0.9614
2.7399 9.2005 -0.7039 0.9622
2.3879 9.2081 -0.6975 0.9626
1.0288 9.2373 -0.6815 0.9634
0.6966 9.2444 -0.6797 0.9635
0.3657 9.2516 -0.6789 0.9635
-0.4651 14.5712 -1.0689 0.9432
-1.1694 11.2783 -0.8314 0.9555
-5.8481 33.1280 -2.4666 0.8738
-8.0196 31.9209 -2.4132 0.8763
-9.0575 31.2810 -2.3878 0.8776
-11.0375 29.9346 -2.3393 0.8799
-11.9800 29.2308 -2.3163 0.8810
-12.8908 28.5081 -2.2940 0.8821
-13.7703 27.7678 -2.2726 0.8831
-14.6186 27.0106 -2.2519 0.8841
-15.4360 26.2378 -2.2320 0.8851
-16.2227 25.4502 -2.2129 0.8860
-18.4011 23.0080 -2.1602 0.8886
-20.3129 20.4629 -2.1141 0.8908
-21.4428 18.7185 -2.0870 0.8921
-21.9652 17.8339 -2.0745 0.8927
-22.9263 16.0425 -2.0517 0.8938
-23.7772 14.2251 -2.0316 0.8948
-24.1620 13.3078 -2.0226 0.8953
-24.8511 11.4583 -2.0065 0.8961
-25.1559 10.5268 -1.9995 0.8964
-25.7021 8.6578 -1.9886 0.8969
-26.1598 6.7774 -1.9814 0.8973
-26.3503 5.8315 -1.9788 0.8974
-26.6484 3.9291 -1.9750 0.8976
-26.7559 2.9735 -1.9739 0.8977
19.5612 8.8397 -2.0608 0.9174
16.4652 8.9063 -1.7972 0.9275
14.0591 8.9571 -1.6004 0.9352
13.0416 8.9790 -1.5201 0.9384
11.2797 9.0169 -1.3864 0.9436
10.5171 9.0411 -1.3315 0.9458
9.2410 8.5363 -1.2078 0.9507
9.1420 9.0707 -1.2364 0.9496
8.5240 9.0840 -1.1959 0.9512
7.9445 9.0965 -1.1595 0.9526
7.3986 9.1082 -1.1266 0.9539
6.3917 9.1299 -1.0700 0.9562
5.9242 9.1399 -1.0457 0.9572
5.0429 9.1510 -1.0031 0.9589
4.2299 9.1685 -0.9694 0.9602
2.3879 9.2081 -0.9133 0.9625
0.6966 9.2445 -0.8900 0.9634
0.3657 9.2516 -0.8889 0.9635
0.0351 9.2587 -0.8889 0.9635
-1.1694 11.2783 -1.0886 0.9555
-7.0724 24.4253 -2.4413 0.9029
-7.8757 23.9622 -2.4216 0.9036
-8.6570 23.4785 -2.4024 0.9043
-12.2278 20.7846 -2.3151 0.9076
-12.8739 20.1966 -2.2994 0.9082
-13.4971 19.5942 -2.2842 0.9088
-14.6749 18.3489 -2.2557 0.9099
-15.2294 17.7073 -2.2423 0.9104
-16.2697 16.3900 -2.2171 0.9114
-17.2187 15.0311 -2.1943 0.9122
-18.0766 13.6355 -2.1738 0.9130
-18.8439 12.2077 -2.1556 0.9137
-19.5210 10.7517 -2.1396 0.9143
-19.8259 10.0144 -2.1324 0.9146
-20.8668 7.0290 -2.1139 0.9153
-21.0763 6.2713 -2.1111 0.9154
-21.8734 1.6430 -2.1059 0.9156
19.1687 8.6624 -2.4987 0.9188
16.4652 8.9063 -2.2236 0.9274
15.1917 8.9328 -2.0934 0.9315
14.0592 8.9571 -1.9802 0.9351
13.0416 8.9790 -1.8808 0.9382
12.1201 8.9988 -1.7931 0.9410
9.1420 9.0708 -1.5298 0.9494
8.5241 9.0840 -1.4797 0.9511
7.9445 9.0965 -1.4346 0.9525
6.3917 9.1299 -1.3239 0.9561
5.9242 9.1400 -1.2938 0.9571
5.4768 9.1496 -1.2667 0.9580
5.0429 9.1510 -1.2411 0.9588
4.6295 9.1599 -1.2191 0.9595
3.8427 9.1768 -1.1818 0.9607
3.4661 9.1849 -1.1661 0.9612
3.0990 9.1928 -1.1524 0.9617
1.7004 9.2229 -1.1140 0.9629
1.3631 9.2301 -1.1083 0.9631
0.3657 9.2516 -1.0998 0.9634
0.0352 9.2587 -1.0998 0.9634
-0.4651 14.5712 -1.7317 0.9430
-1.1694 11.2783 -1.3469 0.9554
-1.5733 11.2435 -1.3486 0.9553
-3.6987 20.9521 -2.5273 0.9179
-4.4133 20.6617 -2.5097 0.9184
-5.1127 20.3504 -2.4925 0.9190
-6.4643 19.6680 -2.4592 0.9200
-7.1157 19.2984 -2.4432 0.9205
-7.7504 18.9108 -2.4277 0.9210
-8.9684 18.0847 -2.3979 0.9219
-9.5511 17.6475 -2.3836 0.9224
-10.1161 17.1953 -2.3698 0.9228
-11.1921 16.2479 -2.3436 0.9236
-11.7026 15.7541 -2.3312 0.9240
-12.1947 15.2478 -2.3192 0.9244
-12.6683 14.7295 -2.3078 0.9247
-13.1231 14.1998 -2.2968 0.9251
-13.5592 13.6594 -2.2862 0.9254
-14.7540 11.9790 -2.2575 0.9263
-15.4554 10.8148 -2.2407 0.9268
-15.7775 10.2212 -2.2331 0.9271
-16.0804 9.6204 -2.2259 0.9273
-16.3669 9.0145 -2.2195 0.9275
-16.6414 8.4059 -2.2146 0.9277
-16.8971 7.7909 -2.2102 0.9278
-17.3518 6.5435 -2.2028 0.9280
-17.5508 5.9120 -2.1999 0.9281
-18.0334 3.9909 -2.1939 0.9283
-18.1560 3.3431 -2.1929 0.9283
-18.3436 2.0386 -2.1924 0.9284
-18.4085 1.3828 -2.1928 0.9283
14.0592 8.9572 -2.3620 0.9349
13.0416 8.9791 -2.2435 0.9380
12.1202 8.9989 -2.1389 0.9408
11.2797 9.0170 -2.0461 0.9433
8.5241 9.0841 -1.7650 0.9509
7.3986 9.1083 -1.6627 0.9537
6.8822 9.1194 -1.6188 0.9549
5.9242 9.1400 -1.5433 0.9570
5.4768 9.1496 -1.5109 0.9578
5.0429 9.1510 -1.4804 0.9587
4.2299 9.1685 -1.4307 0.9600
3.4661 9.1849 -1.3910 0.9611
2.0417 9.2156 -1.3374 0.9626
1.7004 9.2229 -1.3288 0.9628
1.0287 9.2373 -1.3169 0.9631
0.6966 9.2445 -1.3136 0.9632
0.0351 9.2587 -1.3119 0.9633
-3.7278 17.4528 -2.5287 0.9304
-6.5801 16.0553 -2.4585 0.9323
-7.1111 15.7264 -2.4455 0.9326
-7.6283 15.3824 -2.4328 0.9330
-8.1312 15.0240 -2.4205 0.9333
-8.6196 14.6515 -2.4086 0.9336
-9.0933 14.2657 -2.3970 0.9339
-9.5520 13.8670 -2.3858 0.9342
-12.6601 10.2790 -2.3106 0.9362
-12.9763 9.7883 -2.3030 0.9364
-13.2760 9.2898 -2.2959 0.9366
-13.5641 8.7873 -2.2899 0.9368
-14.3356 7.2412 -2.2756 0.9372
-14.5599 6.7133 -2.2717 0.9373
-15.2905 4.5497 -2.2604 0.9376
-15.4311 3.9979 -2.2586 0.9376
-15.5549 3.4424 -2.2573 0.9377
-15.6616 2.8838 -2.2564 0.9377
-15.7514 2.3224 -2.2559 0.9377
-15.8795 1.1928 -2.2563 0.9377
13.4657 6.0852 -2.4343 0.9419
13.2462 6.5651 -2.4355 0.9418
12.1924 8.3944 -2.4386 0.9418
11.2798 9.0170 -2.3790 0.9431
9.1420 9.0708 -2.1216 0.9491
8.5241 9.0841 -2.0522 0.9508
7.9446 9.0965 -1.9896 0.9522
7.3986 9.1083 -1.9331 0.9535
6.3917 9.1299 -1.8360 0.9558
5.9242 9.1400 -1.7943 0.9568
4.2300 9.1685 -1.6634 0.9599
3.0990 9.1928 -1.5982 0.9614
2.7400 9.2005 -1.5815 0.9618
2.0417 9.2156 -1.5550 0.9625
1.7004 9.2229 -1.5450 0.9627
1.3631 9.2302 -1.5371 0.9629
1.0287 9.2373 -1.5312 0.9630
0.6966 9.2445 -1.5273 0.9631
0.0352 9.2587 -1.5253 0.9632
-0.7623 11.2573 -1.8588 0.9553
-3.7418 14.8937 -2.5298 0.9396
-4.2499 14.6776 -2.5173 0.9399
-5.2355 14.1989 -2.4931 0.9405
-5.7120 13.9372 -2.4814 0.9408
-6.1773 13.6613 -2.4699 0.9410
-6.6311 13.3716 -2.4588 0.9413
-7.0730 13.0686 -2.4480 0.9415
-7.5026 12.7528 -2.4375 0.9418
-7.9198 12.4247 -2.4273 0.9420
-8.7159 11.7335 -2.4079 0.9425
-9.0943 11.3712 -2.3987 0.9427
-9.4594 10.9985 -2.3898 0.9429
-10.1486 10.2237 -2.3731 0.9433
-10.4725 9.8224 -2.3653 0.9435
-10.7823 9.4124 -2.3579 0.9436
-11.3654 8.5731 -2.3453 0.9439
-12.3671 6.8115 -2.3259 0.9444
-12.5813 6.3550 -2.3220 0.9445
-12.9656 5.4256 -2.3154 0.9446
-13.1354 4.9535 -2.3127 0.9447
-13.2904 4.4769 -2.3103 0.9447
-13.5551 3.5118 -2.3068 0.9448
-13.6648 3.0241 -2.3056 0.9448
-13.7592 2.5335 -2.3048 0.9449
12.3993 5.6033 -2.5575 0.9461
11.5939 5.7462 -2.4322 0.9487
11.3330 6.1302 -2.4218 0.9489
11.1086 6.5319 -2.4222 0.9489
10.3453 7.6811 -2.4219 0.9489
9.0459 8.3561 -2.3147 0.9511
8.9253 8.8558 -2.3633 0.9501
8.5241 9.0841 -2.3415 0.9506
7.9446 9.0966 -2.2701 0.9520
7.3986 9.1083 -2.2056 0.9534
6.8822 9.1194 -2.1474 0.9546
5.4768 9.1496 -2.0043 0.9575
5.0429 9.1510 -1.9639 0.9584
4.2300 9.1685 -1.8979 0.9597
3.4662 9.1850 -1.8452 0.9608
3.0990 9.1928 -1.8234 0.9613
2.0417 9.2156 -1.7742 0.9623
1.7004 9.2229 -1.7628 0.9625
0.6966 9.2445 -1.7425 0.9630
0.0352 9.2587 -1.7403 0.9630
-2.6732 12.5150 -2.4054 0.9492
-3.1044 12.3567 -2.3947 0.9495
-3.7450 12.9338 -2.5309 0.9467
-4.1863 12.7370 -2.5200 0.9469
-4.6187 12.5263 -2.5094 0.9471
-5.4556 12.0652 -2.4888 0.9475
-5.8594 11.8156 -2.4789 0.9477
-6.2531 11.5537 -2.4693 0.9479
-7.3699 10.6994 -2.4420 0.9485
-8.0590 10.0766 -2.4252 0.9488
-8.7011 9.4150 -2.4097 0.9492
-9.0045 9.0710 -2.4024 0.9493
-9.8498 7.9973 -2.3848 0.9497
-10.1069 7.6238 -2.3796 0.9498
-10.5830 6.8560 -2.3701 0.9500
-10.8018 6.4624 -2.3659 0.9501
-11.3799 5.2470 -2.3554 0.9503
-11.5461 4.8316 -2.3526 0.9503
-11.6989 4.4117 -2.3501 0.9504
-11.8382 3.9877 -2.3480 0.9504
-11.9639 3.5599 -2.3462 0.9505
-12.2590 2.2573 -2.3430 0.9505
-12.3298 1.8179 -2.3426 0.9505
-12.3867 1.3766 -2.3426 0.9505
-12.4297 0.9337 -2.3429 0.9505
10.0669 5.9194 -2.4685 0.9534
9.6303 6.1355 -2.4137 0.9544
9.3927 6.4668 -2.4105 0.9544
9.1538 6.7964 -2.4099 0.9545
8.3650 7.7271 -2.4071 0.9545
8.0791 8.0162 -2.4057 0.9545
6.3918 9.1300 -2.3558 0.9555
5.4768 9.1496 -2.2541 0.9573
4.2300 9.1685 -2.1344 0.9596
3.4661 9.1850 -2.0752 0.9607
3.0990 9.1929 -2.0506 0.9611
1.7004 9.2229 -1.9824 0.9624
1.0287 9.2374 -1.9647 0.9627
0.6966 9.2445 -1.9596 0.9628
0.3657 9.2517 -1.9571 0.9629
0.0352 9.2588 -1.9571 0.9629
-1.9927 11.2885 -2.4230 0.9542
-2.3849 11.1653 -2.4134 0.9544
-2.7709 11.0293 -2.4038 0.9546
-3.1506 10.8809 -2.3945 0.9547
-4.5085 11.0008 -2.5131 0.9526
-4.8806 10.7934 -2.5039 0.9527
-5.2440 10.5745 -2.4950 0.9529
-5.9440 10.1035 -2.4779 0.9532
-6.2800 9.8521 -2.4696 0.9534
-6.9227 9.3194 -2.4540 0.9536
-7.5273 8.7521 -2.4401 0.9539
-8.0921 8.1519 -2.4280 0.9541
-9.5237 6.1697 -2.3986 0.9547
-10.0842 5.0937 -2.3881 0.9549
-10.2471 4.7247 -2.3852 0.9549
-10.3981 4.3512 -2.3826 0.9550
-10.5367 3.9735 -2.3804 0.9550
-10.6632 3.5919 -2.3784 0.9550
-10.7772 3.2068 -2.3768 0.9551
-11.0446 2.0336 -2.3739 0.9551
-11.1598 1.2403 -2.3735 0.9551
9.9373 4.4907 -2.5629 0.9562
9.5869 5.1858 -2.5616 0.9562
8.7616 6.0323 -2.5000 0.9572
8.2169 6.1008 -2.4053 0.9588
7.9753 6.3754 -2.3997 0.9589
7.7398 6.6536 -2.3988 0.9589
7.4938 6.9224 -2.3976 0.9589
7.2379 7.1815 -2.3963 0.9590
6.6981 7.6693 -2.3931 0.9590
6.4150 7.8974 -2.3912 0.9591
6.1237 8.1142 -2.3892 0.9591
5.8246 8.3198 -2.3869 0.9591
5.5245 8.5234 -2.3872 0.9591
5.2192 8.7192 -2.3883 0.9591
4.9062 8.9030 -2.3891 0.9591
4.5861 9.0741 -2.3895 0.9591
4.2300 9.1685 -2.3731 0.9594
3.8427 9.1769 -2.3382 0.9599
3.0990 9.1929 -2.2800 0.9609
2.3879 9.2081 -2.2357 0.9617
2.0417 9.2156 -2.2184 0.9620
1.7004 9.2229 -2.2041 0.9622
0.6966 9.2445 -2.1788 0.9626
-1.4396 10.2882 -2.4415 0.9582
-1.7986 10.1889 -2.4316 0.9584
-2.1526 10.0777 -2.4219 0.9585
-3.3767 10.2738 -2.5417 0.9565
-3.7286 10.1121 -2.5330 0.9567
-4.0735 9.9392 -2.5245 0.9568
-4.4111 9.7553 -2.5162 0.9570
-5.3777 9.1409 -2.4925 0.9574
-5.6843 8.9176 -2.4854 0.9575
-6.2728 8.4445 -2.4723 0.9577
-7.0881 7.6697 -2.4545 0.9580
-7.3411 7.3954 -2.4490 0.9581
-7.5844 7.1136 -2.4439 0.9582
-7.8178 6.8246 -2.4390 0.9583
-8.0412 6.5288 -2.4344 0.9583
-8.6495 5.6035 -2.4222 0.9585
-8.8313 5.2835 -2.4186 0.9586
-9.0022 4.9582 -2.4154 0.9586
-9.3114 4.2933 -2.4098 0.9587
-9.8892 2.5621 -2.4009 0.9589
8.9971 4.0658 -2.5563 0.9600
8.6802 4.6953 -2.5552 0.9600
8.5049 5.0009 -2.5545 0.9601
8.3179 5.2993 -2.5536 0.9601
7.6358 6.1040 -2.5311 0.9604
6.3090 6.7235 -2.3872 0.9626
4.9949 7.7063 -2.3778 0.9628
4.7119 7.8718 -2.3754 0.9628
4.4240 8.0279 -2.3733 0.9628
4.1315 8.1746 -2.3715 0.9629
3.2577 8.6327 -2.3890 0.9626
2.9594 8.7789 -2.3987 0.9624
2.6497 8.8976 -2.4037 0.9624
2.3353 9.0053 -2.4087 0.9623
2.0163 9.1010 -2.4135 0.9622
1.3631 9.2302 -2.4158 0.9622
-0.6360 9.3918 -2.4373 0.9619
-3.0748 9.3552 -2.5497 0.9601
-4.0210 8.8925 -2.5269 0.9605
-5.7302 7.7141 -2.4881 0.9611
-5.9882 7.4875 -2.4824 0.9612
-6.2379 7.2529 -2.4769 0.9612
-6.4791 7.0107 -2.4717 0.9613
-7.1500 6.2417 -2.4574 0.9615
-7.3555 5.9721 -2.4532 0.9616
-7.5516 5.6964 -2.4492 0.9617
-7.7383 5.4149 -2.4454 0.9617
-7.9153 5.1278 -2.4419 0.9618
-8.3874 4.2367 -2.4330 0.9619
-8.5247 3.9306 -2.4305 0.9620
-8.6518 3.6205 -2.4283 0.9620
-8.7686 3.3067 -2.4264 0.9620
-8.8751 2.9896 -2.4248 0.9620
-9.0564 2.3463 -2.4223 0.9621
-9.1312 2.0208 -2.4215 0.9621
8.0718 4.0006 -2.5503 0.9632
7.5918 4.8368 -2.5483 0.9633
7.4112 5.1025 -2.5472 0.9633
7.2204 5.3610 -2.5458 0.9633
6.8110 5.8551 -2.5427 0.9633
6.5932 6.0904 -2.5409 0.9634
6.2241 6.1756 -2.4821 0.9642
5.8176 6.1999 -2.4068 0.9653
5.5293 6.3311 -2.3796 0.9657
4.0391 7.3294 -2.3691 0.9658
3.7723 7.4639 -2.3675 0.9658
3.5010 7.5884 -2.3658 0.9659
2.6633 7.9004 -2.3602 0.9659
2.3773 7.9829 -2.3580 0.9660
1.2133 8.2155 -2.3510 0.9661
0.3289 8.3200 -2.3572 0.9660
-0.5695 8.4104 -2.3864 0.9656
-1.1707 8.3668 -2.3917 0.9655
-1.7682 8.2784 -2.3964 0.9654
-2.0615 8.2057 -2.3952 0.9654
-2.3905 8.2559 -2.4332 0.9649
-2.8156 8.5668 -2.5528 0.9632
-3.1132 8.4433 -2.5475 0.9633
-3.6927 8.1665 -2.5372 0.9634
-3.9719 8.0093 -2.5309 0.9635
-4.2447 7.8429 -2.5246 0.9636
-4.5111 7.6680 -2.5185 0.9637
-5.0236 7.2929 -2.5070 0.9639
-5.2691 7.0934 -2.5015 0.9639
-5.5074 6.8862 -2.4962 0.9640
-6.1759 6.2216 -2.4817 0.9642
-6.7713 5.4978 -2.4692 0.9644
-7.5898 4.1803 -2.4530 0.9646
-7.9711 3.3356 -2.4462 0.9647
-8.0792 3.0467 -2.4444 0.9647
-8.4146 1.8622 -2.4398 0.9648
-8.5233 1.2567 -2.4390 0.9648
-8.5920 0.6454 -2.4392 0.9648
7.5436 3.4090 -2.5461 0.9660
6.8094 4.6882 -2.5428 0.9660
6.6344 4.9259 -2.5416 0.9660
6.2585 5.3801 -2.5385 0.9661
6.0581 5.5962 -2.5367 0.9661
4.6912 6.2161 -2.3953 0.9679
4.1881 6.4615 -2.3684 0.9683
3.7120 6.7358 -2.3656 0.9683
3.2178 6.9747 -2.3626 0.9684
2.9649 7.0804 -2.3610 0.9684
2.4480 7.2618 -2.3571 0.9684
1.6533 7.4623 -2.3509 0.9685
1.3846 7.5097 -2.3487 0.9685
1.1158 7.5558 -2.3492 0.9685
0.8455 7.5915 -2.3494 0.9685
0.3015 7.6287 -2.3483 0.9686
0.0290 7.6326 -2.3476 0.9686
-0.2436 7.6311 -2.3484 0.9686
-1.6066 7.5215 -2.3656 0.9683
-1.9372 7.7110 -2.4454 0.9673
-2.2955 7.9278 -2.5386 0.9660
-2.5745 7.8332 -2.5361 0.9661
-2.8607 7.7585 -2.5434 0.9660
-3.4088 7.5387 -2.5448 0.9660
-3.6679 7.3963 -2.5393 0.9660
-3.9213 7.2454 -2.5340 0.9661
-4.1690 7.0865 -2.5289 0.9662
-4.4098 6.9182 -2.5234 0.9662
-4.8721 6.5589 -2.5131 0.9664
-5.5142 5.9667 -2.4990 0.9666
-5.9060 5.5394 -2.4906 0.9667
-6.0905 5.3168 -2.4867 0.9667
-7.2733 3.3536 -2.4635 0.9670
-7.3827 3.0894 -2.4616 0.9671
-7.4832 2.8220 -2.4599 0.9671
-7.5748 2.5516 -2.4585 0.9671
-7.6573 2.2785 -2.4573 0.9671
6.9691 3.1494 -2.5421 0.9683
6.8511 3.3956 -2.5417 0.9683
6.7243 3.6373 -2.5412 0.9683
6.2914 4.3316 -2.5390 0.9683
5.5981 5.1712 -2.5333 0.9684
5.4062 5.3640 -2.5315 0.9684
4.7904 5.8974 -2.5255 0.9685
4.5732 6.0598 -2.5235 0.9685
4.3370 6.1950 -2.5137 0.9686
4.0218 6.2049 -2.4579 0.9693
3.7195 6.2138 -2.4073 0.9699
3.4342 6.2318 -2.3652 0.9705
3.2042 6.3399 -2.3613 0.9705
2.7400 6.5433 -2.3580 0.9705
2.2626 6.7118 -2.3544 0.9706
1.7751 6.8451 -2.3506 0.9706
1.5284 6.8984 -2.3487 0.9707
1.2801 6.9431 -2.3468 0.9707
0.5299 7.0320 -2.3441 0.9707
0.0268 7.0453 -2.3419 0.9707
-0.4754 7.0200 -2.3388 0.9708
-0.7257 6.9991 -2.3390 0.9708
-1.5656 7.3299 -2.4915 0.9689
-1.8428 7.3348 -2.5139 0.9686
-2.1023 7.2608 -2.5127 0.9686
-2.6383 7.1554 -2.5350 0.9684
-2.9026 7.0823 -2.5442 0.9683
-3.1598 6.9880 -2.5493 0.9682
-3.4032 6.8627 -2.5463 0.9682
-3.8693 6.5770 -2.5365 0.9683
-4.0941 6.4229 -2.5318 0.9684
-4.7323 5.9171 -2.5185 0.9686
-5.1249 5.5454 -2.5100 0.9687
-5.3111 5.3503 -2.5059 0.9687
-5.4903 5.1495 -2.5021 0.9688
-5.6624 4.9430 -2.4985 0.9688
-6.2767 4.0663 -2.4860 0.9690
-6.4111 3.8356 -2.4834 0.9690
-6.5376 3.6008 -2.4810 0.9690
-6.6561 3.3622 -2.4788 0.9691
-6.9625 2.6256 -2.4735 0.9691
-7.0480 2.3741 -2.4721 0.9691
-7.1935 1.8637 -2.4701 0.9692
-7.3475 1.0833 -2.4688 0.9692
-7.3814 0.8203 -2.4687 0.9692
-7.4067 0.5564 -2.4690 0.9692
6.3596 3.1520 -2.5382 0.9703
6.2420 3.3764 -2.5378 0.9703
5.6908 4.2252 -2.5346 0.9703
5.5334 4.4233 -2.5333 0.9704
5.3690 4.6155 -2.5319 0.9704
5.1975 4.8012 -2.5303 0.9704
5.0195 4.9804 -2.5286 0.9704
4.6445 5.3179 -2.5249 0.9705
4.4483 5.4761 -2.5230 0.9705
4.0413 5.7726 -2.5199 0.9705
3.8302 5.9095 -2.5183 0.9705
3.6146 6.0386 -2.5167 0.9705
3.1330 6.1990 -2.4838 0.9709
2.6013 6.2122 -2.4084 0.9718
1.8761 6.2996 -2.3505 0.9725
1.6486 6.3574 -2.3486 0.9725
0.9576 6.4840 -2.3439 0.9725
0.4919 6.5275 -2.3409 0.9726
0.2583 6.5362 -2.3392 0.9726
-0.9607 6.8663 -2.4793 0.9710
-1.2114 6.8626 -2.4921 0.9708
-1.4564 6.8188 -2.4935 0.9708
-1.7015 6.7725 -2.4971 0.9708
-2.4435 6.6270 -2.5258 0.9704
-3.1681 6.3886 -2.5501 0.9702
-3.3911 6.2658 -2.5478 0.9702
-4.0207 5.8371 -2.5347 0.9703
-4.4129 5.5177 -2.5266 0.9704
-4.9559 4.9925 -2.5156 0.9706
-5.2853 4.6138 -2.5089 0.9706
-5.4396 4.4166 -2.5057 0.9707
-5.5871 4.2145 -2.5027 0.9707
-5.7275 4.0078 -2.4998 0.9707
-5.8606 3.7967 -2.4972 0.9708
-6.1051 3.3625 -2.4925 0.9708
-6.3195 2.9138 -2.4886 0.9709
-6.4152 2.6845 -2.4869 0.9709
-6.5832 2.2176 -2.4842 0.9709
-6.6554 1.9803 -2.4831 0.9709
-6.7195 1.7409 -2.4823 0.9709
-6.7757 1.4995 -2.4817 0.9710
-6.8237 1.2565 -2.4812 0.9710
-6.8636 1.0120 -2.4810 0.9710
-6.8953 0.7663 -2.4810 0.9710
-6.9188 0.5197 -2.4812 0.9710
5.5762 3.5526 -2.5337 0.9721
5.4439 3.7481 -2.5328 0.9721
4.8451 4.4757 -2.5277 0.9721
4.6793 4.6429 -2.5261 0.9722
3.7687 5.3832 -2.5182 0.9722
3.5721 5.5111 -2.5167 0.9723
3.3710 5.6317 -2.5152 0.9723
3.1659 5.7450 -2.5137 0.9723
2.9570 5.8508 -2.5122 0.9723
2.5283 6.0380 -2.5085 0.9723
2.3095 6.1198 -2.5066 0.9724
1.3748 6.2054 -2.4357 0.9731
0.9201 6.2302 -2.4134 0.9734
0.6970 6.2579 -2.4130 0.9734
0.4745 6.2961 -2.4196 0.9733
-0.2069 6.4833 -2.4858 0.9726
-0.4382 6.4715 -2.4856 0.9726
-0.6685 6.4476 -2.4841 0.9726
-0.8980 6.4177 -2.4833 0.9726
-1.1266 6.3820 -2.4835 0.9726
-1.3559 6.3479 -2.4875 0.9726
-1.8151 6.2690 -2.5010 0.9724
-2.2731 6.1651 -2.5180 0.9722
-2.5014 6.1036 -2.5278 0.9721
-2.9506 5.9499 -2.5451 0.9720
-3.1683 5.8541 -2.5509 0.9719
-3.3732 5.7337 -2.5493 0.9719
-3.7617 5.4611 -2.5412 0.9720
-3.9483 5.3152 -2.5374 0.9720
-4.1295 5.1633 -2.5336 0.9721
-4.4749 4.8421 -2.5266 0.9722
-4.6388 4.6731 -2.5233 0.9722
-4.7967 4.4989 -2.5202 0.9722
-5.2323 3.9469 -2.5116 0.9723
-5.4898 3.5565 -2.5067 0.9724
-5.6083 3.3553 -2.5045 0.9724
-5.7198 3.1503 -2.5024 0.9724
-6.0114 2.5156 -2.4972 0.9725
-6.0939 2.2981 -2.4959 0.9725
-6.2366 1.8557 -2.4936 0.9725
-6.3939 1.1773 -2.4915 0.9725
-6.4309 0.9482 -2.4911 0.9725
-6.4602 0.7180 -2.4909 0.9725
5.6395 2.5485 -2.5328 0.9736
5.3323 3.1354 -2.5317 0.9736
5.2157 3.3230 -2.5311 0.9736
4.6816 4.0246 -2.5268 0.9737
4.3774 4.3433 -2.5238 0.9737
4.0513 4.6388 -2.5206 0.9737
3.3428 5.1573 -2.5153 0.9738
2.7673 5.4753 -2.5108 0.9738
2.5683 5.5668 -2.5091 0.9739
2.3663 5.6510 -2.5074 0.9739
2.1616 5.7279 -2.5056 0.9739
1.5335 5.9135 -2.5003 0.9739
1.1061 5.9994 -2.4968 0.9740
0.6743 6.0546 -2.4933 0.9740
-0.1937 6.0702 -2.4856 0.9741
-0.4100 6.0546 -2.4836 0.9741
-1.2689 5.9409 -2.4863 0.9741
-1.4827 5.9020 -2.4906 0.9740
-1.6966 5.8595 -2.4966 0.9740
-1.9102 5.8122 -2.5040 0.9739
-2.1232 5.7585 -2.5119 0.9738
-2.3349 5.6973 -2.5200 0.9737
-2.7555 5.5565 -2.5384 0.9735
-2.9601 5.4694 -2.5453 0.9735
-3.3500 5.2556 -2.5508 0.9734
-3.7058 4.9887 -2.5434 0.9735
-4.2011 4.5458 -2.5333 0.9736
-4.7833 3.8837 -2.5217 0.9737
-4.9139 3.7067 -2.5192 0.9737
-5.2679 3.1517 -2.5125 0.9738
-5.4713 2.7637 -2.5087 0.9739
-5.5628 2.5649 -2.5071 0.9739
-5.7253 2.1590 -2.5043 0.9739
-6.0078 1.1062 -2.5002 0.9739
-6.0427 0.8910 -2.4999 0.9739
-6.0702 0.6746 -2.4997 0.9739
-6.0904 0.4575 -2.4997 0.9739
5.2909 2.3910 -2.5304 0.9750
5.0029 2.9417 -2.5293 0.9750
4.8936 3.1177 -2.5288 0.9750
4.6554 3.4565 -2.5270 0.9750
4.5271 3.6189 -2.5259 0.9750
4.3928 3.7763 -2.5246 0.9750
4.2529 3.9286 -2.5233 0.9751
4.1075 4.0755 -2.5218 0.9751
3.6426 4.4843 -2.5178 0.9751
3.4785 4.6092 -2.5166 0.9751
3.1376 4.8408 -2.5141 0.9751
2.9612 4.9471 -2.5128 0.9752
2.2213 5.3047 -2.5064 0.9752
2.0292 5.3770 -2.5047 0.9752
1.8347 5.4424 -2.5030 0.9753
1.4398 5.5519 -2.4996 0.9753
1.2398 5.5959 -2.4979 0.9753
1.0385 5.6327 -2.4962 0.9753
0.4295 5.6991 -2.4908 0.9754
0.2256 5.7068 -2.4891 0.9754
-0.5875 5.6666 -2.4828 0.9754
-0.7893 5.6408 -2.4823 0.9755
-0.9905 5.6111 -2.4832 0.9754
-1.1911 5.5767 -2.4852 0.9754
-1.3912 5.5375 -2.4883 0.9754
-1.7910 5.4493 -2.4999 0.9753
-2.3837 5.2716 -2.5214 0.9751
-3.3222 4.8230 -2.5523 0.9748
-3.6482 4.5616 -2.5456 0.9748
-4.5039 3.6569 -2.5284 0.9750
-4.9613 2.9682 -2.5197 0.9751
-5.2397 2.4159 -2.5146 0.9751
-5.4598 1.8392 -2.5109 0.9752
-5.5200 1.6425 -2.5100 0.9752
-5.5734 1.4439 -2.5092 0.9752
-5.6926 0.8393 -2.5078 0.9752
-5.7186 0.6355 -2.5076 0.9752
4.9772 2.2492 -2.5282 0.9762
4.8028 2.5979 -2.5276 0.9762
4.7063 2.7674 -2.5272 0.9762
4.6036 2.9330 -2.5266 0.9762
4.4946 3.0945 -2.5259 0.9762
4.3796 3.2517 -2.5249 0.9762
4.2589 3.4046 -2.5238 0.9763
3.8645 3.8344 -2.5199 0.9763
3.7234 3.9680 -2.5187 0.9763
3.4277 4.2198 -2.5165 0.9763
3.2734 4.3375 -2.5153 0.9763
3.1150 4.4495 -2.5141 0.9763
2.6172 4.7493 -2.5100 0.9764
2.4445 4.8368 -2.5085 0.9764
2.2689 4.9179 -2.5070 0.9764
2.0906 4.9927 -2.5055 0.9764
1.9099 5.0610 -2.5039 0.9764
1.5420 5.1778 -2.5007 0.9765
1.3553 5.2262 -2.4991 0.9765
1.1671 5.2679 -2.4975 0.9765
0.9777 5.3026 -2.4959 0.9765
0.4044 5.3659 -2.4908 0.9766
0.2124 5.3734 -2.4892 0.9766
0.0204 5.3741 -2.4876 0.9766
-0.5532 5.3361 -2.4832 0.9766
-0.7432 5.3118 -2.4827 0.9766
-1.3095 5.2121 -2.4876 0.9766
-1.4967 5.1692 -2.4910 0.9766
-1.8698 5.0711 -2.5018 0.9765
-2.0550 5.0142 -2.5084 0.9764
-2.6028 4.8092 -2.5312 0.9762
-2.7811 4.7272 -2.5387 0.9761
-3.5890 4.1729 -2.5477 0.9760
-3.8689 3.8976 -2.5421 0.9761
-4.1287 3.6042 -2.5369 0.9761
-4.4783 3.1337 -2.5301 0.9762
-4.6833 2.8019 -2.5262 0.9762
-4.7771 2.6311 -2.5245 0.9762
-4.8648 2.4574 -2.5229 0.9763
-4.9466 2.2808 -2.5214 0.9763
-5.1549 1.7365 -2.5179 0.9763
-5.2118 1.5508 -2.5170 0.9763
-5.3064 1.1744 -2.5157 0.9763
-5.3750 0.7925 -2.5149 0.9763
-5.3996 0.6001 -2.5148 0.9763
-5.4176 0.4070 -2.5148 0.9763
4.6931 2.1208 -2.5262 0.9773
4.5287 2.4497 -2.5256 0.9773
4.4378 2.6094 -2.5253 0.9773
4.1298 3.0663 -2.5231 0.9773
4.0161 3.2104 -2.5220 0.9774
3.8971 3.3502 -2.5209 0.9774
3.6445 3.6161 -2.5184 0.9774
3.5117 3.7424 -2.5174 0.9774
3.0875 4.0912 -2.5142 0.9774
2.7851 4.2970 -2.5118 0.9774
2.3059 4.5625 -2.5076 0.9775
1.4548 4.8850 -2.5002 0.9775
1.2787 4.9309 -2.4987 0.9776
1.1012 4.9704 -2.4972 0.9776
0.0193 5.0718 -2.4878 0.9777
-0.1617 5.0663 -2.4864 0.9777
-0.3422 5.0545 -2.4850 0.9777
-0.5222 5.0363 -2.4837 0.9777
-0.7015 5.0133 -2.4831 0.9777
-1.0578 4.9528 -2.4842 0.9777
-1.4110 4.8732 -2.4886 0.9777
-1.5873 4.8296 -2.4937 0.9776
-1.9359 4.7236 -2.5040 0.9775
-2.1084 4.6628 -2.5101 0.9775
-2.4486 4.5243 -2.5235 0.9773
-2.6172 4.4487 -2.5318 0.9773
-2.9422 4.2714 -2.5442 0.9772
-3.2504 4.0642 -2.5528 0.9771
-3.3931 3.9453 -2.5526 0.9771
-3.5280 3.8176 -2.5498 0.9771
-3.7838 3.5489 -2.5447 0.9772
-3.9044 3.4084 -2.5423 0.9772
-4.6794 2.1576 -2.5276 0.9773
-4.8169 1.8165 -2.5253 0.9773
-4.8768 1.6428 -2.5243 0.9773
-5.0854 0.7498 -2.5215 0.9774
-5.1086 0.5677 -2.5213 0.9774
4.4343 2.0039 -2.5244 0.9783
4.2790 2.3146 -2.5238 0.9783
4.1017 2.6132 -2.5230 0.9783
4.0046 2.7571 -2.5223 0.9783
3.9022 2.8973 -2.5214 0.9783
3.7948 3.0335 -2.5203 0.9783
3.5653 3.2935 -2.5180 0.9784
3.4442 3.4174 -2.5171 0.9784
3.3188 3.5368 -2.5161 0.9784
3.1892 3.6516 -2.5151 0.9784
2.9181 3.8667 -2.5131 0.9784
2.4843 4.1503 -2.5093 0.9784
2.3333 4.2341 -2.5080 0.9785
2.1795 4.3124 -2.5067 0.9785
2.0231 4.3851 -2.5053 0.9785
1.3753 4.6181 -2.4997 0.9785
1.2088 4.6616 -2.4983 0.9785
0.8721 4.7303 -2.4953 0.9786
0.7023 4.7556 -2.4938 0.9786
0.5318 4.7748 -2.4924 0.9786
-0.6634 4.7409 -2.4834 0.9787
-0.8320 4.7133 -2.4829 0.9787
-1.1674 4.6467 -2.4855 0.9786
-1.3341 4.6075 -2.4885 0.9786
-1.4993 4.5619 -2.4912 0.9786
-1.8279 4.4601 -2.5006 0.9785
-1.9901 4.4013 -2.5058 0.9785
-2.1508 4.3371 -2.5115 0.9784
-2.3094 4.2671 -2.5171 0.9784
-2.9237 3.9360 -2.5436 0.9781
-3.0706 3.8394 -2.5505 0.9781
-3.5845 3.3620 -2.5495 0.9781
-3.6989 3.2290 -2.5472 0.9781
-3.9134 2.9520 -2.5430 0.9782
-4.5025 1.8842 -2.5321 0.9782
-4.5650 1.7215 -2.5311 0.9783
-4.6730 1.3905 -2.5293 0.9783
-4.7184 1.2225 -2.5287 0.9783
-4.7581 1.0530 -2.5281 0.9783
-4.8198 0.7107 -2.5275 0.9783
-4.8419 0.5381 -2.5273 0.9783
-4.8580 0.3649 -2.5273 0.9783
4.0504 2.1910 -2.5222 0.9792
3.7908 2.6099 -2.5207 0.9792
3.6939 2.7426 -2.5198 0.9792
3.4858 2.9967 -2.5177 0.9793
3.3754 3.1180 -2.5168 0.9793
3.2608 3.2354 -2.5159 0.9793
3.0195 3.4573 -2.5140 0.9793
2.8930 3.5614 -2.5131 0.9793
2.4922 3.8451 -2.5096 0.9793
2.3522 3.9296 -2.5084 0.9793
2.0638 4.0834 -2.5059 0.9794
1.7653 4.2158 -2.5033 0.9794
1.3024 4.3734 -2.4993 0.9794
1.1449 4.4147 -2.4979 0.9794
0.9860 4.4503 -2.4965 0.9794
0.6652 4.5042 -2.4937 0.9794
0.5037 4.5226 -2.4923 0.9795
0.3417 4.5352 -2.4909 0.9795
0.1795 4.5419 -2.4896 0.9795
0.0173 4.5430 -2.4882 0.9795
-0.6284 4.4911 -2.4838 0.9795
-0.7882 4.4651 -2.4833 0.9795
-1.1054 4.4000 -2.4848 0.9795
-1.4189 4.3170 -2.4889 0.9795
-1.5749 4.2713 -2.4934 0.9795
-1.7290 4.2189 -2.4972 0.9794
-1.8817 4.1616 -2.5015 0.9794
-2.3308 3.9618 -2.5176 0.9793
-2.4771 3.8862 -2.5242 0.9792
-2.7622 3.7186 -2.5371 0.9791
-2.8997 3.6258 -2.5428 0.9790
-3.1630 3.4226 -2.5525 0.9790
-3.2845 3.3089 -2.5536 0.9790
-3.4011 3.1900 -2.5539 0.9790
-3.6140 2.9343 -2.5497 0.9790
-3.7137 2.8013 -2.5478 0.9790
-3.8085 2.6650 -2.5459 0.9790
-3.8986 2.5257 -2.5442 0.9790
-3.9838 2.3834 -2.5426 0.9791
-4.0639 2.2384 -2.5411 0.9791
-4.1390 2.0907 -2.5398 0.9791
-4.2090 1.9407 -2.5385 0.9791
-4.2737 1.7884 -2.5374 0.9791
-4.3331 1.6341 -2.5364 0.9791
-4.3871 1.4778 -2.5355 0.9791
-4.4358 1.3199 -2.5348 0.9791
-4.4789 1.1604 -2.5341 0.9791
-4.5753 0.6746 -2.5330 0.9791
-4.5962 0.5108 -2.5329 0.9791
3.9531 1.7864 -2.5045 0.9802
3.7632 2.2128 -2.5204 0.9800
3.6810 2.3452 -2.5199 0.9800
3.5022 2.6003 -2.5183 0.9801
3.4057 2.7225 -2.5173 0.9801
3.2006 2.9566 -2.5156 0.9801
2.9795 3.1753 -2.5139 0.9801
2.8632 3.2784 -2.5130 0.9801
2.7433 3.3772 -2.5120 0.9801
2.4932 3.5612 -2.5098 0.9801
2.2307 3.7266 -2.5075 0.9801
2.0952 3.8020 -2.5063 0.9801
1.9572 3.8725 -2.5051 0.9802
1.6743 3.9984 -2.5027 0.9802
1.5297 4.0536 -2.5014 0.9802
1.3833 4.1035 -2.5001 0.9802
1.0859 4.1874 -2.4976 0.9802
0.9352 4.2213 -2.4962 0.9802
0.7835 4.2497 -2.4949 0.9802
0.6310 4.2727 -2.4936 0.9802
0.4778 4.2902 -2.4923 0.9803
0.3242 4.3024 -2.4910 0.9803
0.1703 4.3089 -2.4897 0.9803
0.0164 4.3101 -2.4884 0.9803
-0.2909 4.2961 -2.4860 0.9803
-0.4439 4.2810 -2.4849 0.9803
-0.5962 4.2610 -2.4840 0.9803
-0.8986 4.2072 -2.4838 0.9803
-1.1978 4.1367 -2.4864 0.9803
-1.3460 4.0954 -2.4889 0.9803
-2.4799 3.6001 -2.5239 0.9800
-2.6133 3.5182 -2.5303 0.9800
-2.7436 3.4305 -2.5361 0.9799
-2.9941 3.2398 -2.5470 0.9798
-3.2272 3.0269 -2.5545 0.9798
-3.3350 2.9114 -2.5560 0.9798
-3.4342 2.7884 -2.5540 0.9798
-3.5290 2.6621 -2.5522 0.9798
-3.6193 2.5327 -2.5504 0.9798
-3.8624 2.1274 -2.5459 0.9798
-3.9339 1.9871 -2.5446 0.9798
-4.1186 1.5532 -2.5413 0.9799
-4.1700 1.4047 -2.5405 0.9799
-4.3490 0.6413 -2.5381 0.9799
-4.3690 0.4856 -2.5380 0.9799
