ply
format ascii 1.0
element vertex 1008
property float32 x
property float32 y
property float32 z
property float32 I
end_header
-8.8812 -40.1755 7.2551 0.8461
-2.7787 -18.8720 3.3635 0.9254
-2.0956 -18.8867 3.3507 0.9257
-1.1677 -15.5780 2.7545 0.9385
-0.6104 -15.5900 2.7510 0.9386
-0.0538 -15.6020 2.7511 0.9386
1.0629 -15.6260 2.7617 0.9384
4.5227 -15.6087 2.8654 0.9361
6.4540 -15.7421 3.0000 0.9332
7.1268 -15.7566 3.0493 0.9322
10.6943 -19.7566 3.9613 0.9128
11.6362 -19.7769 4.0460 0.9110
-2.7787 -18.8717 2.9222 0.9257
-1.1677 -15.5778 2.3931 0.9387
-0.0538 -15.6018 2.3901 0.9388
1.6260 -15.6379 2.4086 0.9384
2.1867 -15.5970 2.4127 0.9383
2.7595 -15.6093 2.4283 0.9379
3.3355 -15.5985 2.4436 0.9375
3.9215 -15.5955 2.4635 0.9370
4.5226 -15.6084 2.4895 0.9364
5.1677 -15.7141 2.5341 0.9353
5.8018 -15.7278 2.5681 0.9344
6.4539 -15.7418 2.6064 0.9335
7.1267 -15.7563 2.6492 0.9324
-2.0956 -18.8862 2.4745 0.9262
-1.1588 -15.4597 2.0188 0.9394
1.0549 -15.5073 2.0241 0.9392
2.1866 -15.5968 2.0509 0.9384
3.0214 -14.1297 1.8816 0.9434
3.5520 -14.1261 1.8968 0.9429
4.6494 -14.1380 1.9381 0.9417
5.2199 -14.1503 1.9640 0.9410
5.8066 -14.1630 1.9933 0.9401
7.8227 -15.7711 2.2925 0.9314
-6.0099 -20.2185 2.2650 0.9186
-2.7786 -18.8713 2.0483 0.9261
-2.0955 -18.8859 2.0405 0.9264
-1.1588 -15.4596 1.6647 0.9395
-0.6058 -15.4714 1.6626 0.9396
-0.0534 -15.4833 1.6626 0.9396
1.6136 -15.5192 1.6755 0.9392
2.1866 -15.5966 1.6912 0.9386
2.7594 -15.6089 1.7021 0.9382
3.3321 -15.5824 1.7111 0.9379
3.9214 -15.5951 1.7268 0.9374
5.7577 -15.6084 1.7865 0.9353
6.4049 -15.6223 1.8131 0.9343
7.0726 -15.6366 1.8429 0.9333
7.7634 -15.6515 1.8761 0.9321
-44.1786 20.3156 4.1163 0.8227
-5.9987 -20.1809 1.7822 0.9190
-2.7683 -18.8010 1.6087 0.9266
-2.0877 -18.8156 1.6026 0.9268
-0.5492 -14.0255 1.1882 0.9452
-0.0484 -14.0363 1.1882 0.9452
1.4644 -14.0841 1.1987 0.9447
1.9775 -14.1050 1.2057 0.9444
2.7593 -15.6087 1.3418 0.9384
3.9214 -15.5949 1.3612 0.9375
5.7576 -15.6081 1.4083 0.9354
10.6937 -19.7554 1.9016 0.9138
-44.1800 20.3163 3.0154 0.8229
-5.9968 -20.1744 1.3051 0.9191
-0.5491 -14.0254 0.8704 0.9453
-0.0484 -14.0361 0.8704 0.9453
0.9563 -14.0577 0.8737 0.9451
1.4628 -14.0686 0.8771 0.9449
2.4910 -14.0908 0.8873 0.9443
3.0155 -14.1020 0.8942 0.9438
3.5489 -14.1135 0.9024 0.9433
5.2196 -14.1494 0.9352 0.9413
5.8063 -14.1621 0.9491 0.9405
7.0378 -14.1886 0.9821 0.9385
7.6879 -14.2026 1.0015 0.9373
11.6741 -19.8413 1.4275 0.9119
-44.1815 20.3169 1.9175 0.8231
-5.9949 -20.1680 0.8296 0.9192
-3.4548 -18.7857 0.7532 0.9264
-2.7682 -18.8005 0.7493 0.9267
-1.0505 -14.0144 0.5542 0.9453
-0.5491 -14.0252 0.5535 0.9454
-0.0484 -14.0359 0.5535 0.9454
0.4530 -14.0467 0.5542 0.9453
0.9563 -14.0576 0.5556 0.9452
1.4628 -14.0684 0.5577 0.9450
1.9739 -14.0794 0.5606 0.9447
3.5488 -14.1133 0.5738 0.9434
5.2195 -14.1492 0.5947 0.9414
7.6878 -14.2024 0.6368 0.9374
10.7729 -18.3097 0.8377 0.9185
-44.1796 20.3161 0.8214 0.8232
-3.4548 -18.7855 0.3226 0.9264
-1.0505 -14.0142 0.2374 0.9453
-0.5491 -14.0250 0.2371 0.9454
0.9568 -14.0657 0.2381 0.9452
1.4628 -14.0683 0.2389 0.9450
1.9739 -14.0792 0.2402 0.9447
2.4912 -14.0915 0.2417 0.9444
4.0929 -14.1255 0.2484 0.9429
5.2194 -14.1491 0.2547 0.9415
5.8061 -14.1617 0.2585 0.9406
7.6877 -14.2021 0.2728 0.9374
10.7736 -18.3108 0.3589 0.9185
-44.1810 20.3167 -0.2738 0.8232
-3.4547 -18.7852 -0.1075 0.9264
-0.5491 -14.0248 -0.0790 0.9454
-0.0484 -14.0356 -0.0790 0.9454
0.4554 -14.1222 -0.0796 0.9450
0.9614 -14.1331 -0.0798 0.9449
1.4628 -14.0681 -0.0796 0.9450
1.9739 -14.0791 -0.0800 0.9447
3.0154 -14.1015 -0.0812 0.9440
3.5487 -14.1129 -0.0819 0.9435
4.6489 -14.1366 -0.0838 0.9422
5.2193 -14.1489 -0.0849 0.9415
7.0374 -14.1879 -0.0892 0.9386
10.7733 -18.3102 -0.1196 0.9185
-31.8293 14.6368 -0.9865 0.8692
-32.0640 13.3804 -0.9783 0.8702
-32.0747 12.0601 -0.9649 0.8719
-48.5043 8.8875 -1.3885 0.8209
-5.9891 -20.1487 -0.5919 0.9193
-4.1493 -18.7700 -0.5413 0.9260
-3.4547 -18.7850 -0.5378 0.9264
0.4554 -14.1221 -0.3979 0.9450
0.9614 -14.1329 -0.3989 0.9449
1.4627 -14.0679 -0.3983 0.9450
4.0927 -14.1246 -0.4141 0.9429
6.4130 -14.1784 -0.4382 0.9396
7.0374 -14.1877 -0.4459 0.9386
7.6874 -14.2017 -0.4547 0.9374
-31.6796 15.9610 -1.7990 0.8676
-31.6589 14.5584 -1.7672 0.8697
-31.5602 11.8667 -1.7100 0.8737
-35.8906 10.6430 -1.8985 0.8608
-36.1773 9.3376 -1.8948 0.8610
-36.4141 8.0248 -1.8910 0.8613
-36.5765 6.7020 -1.8858 0.8616
-38.9392 5.7075 -1.9959 0.8542
-39.2055 2.9131 -1.9938 0.8543
-39.2833 1.5125 -1.9937 0.8543
-39.3282 -1.2939 -1.9956 0.8542
-39.2250 -4.1044 -2.0001 0.8539
-39.1176 -5.5103 -2.0034 0.8537
-38.9728 -6.9160 -2.0074 0.8534
-36.1745 -10.5073 -1.9104 0.8600
-35.9449 -11.8467 -1.9194 0.8593
-36.0853 -14.8220 -1.9784 0.8554
-35.6504 -17.7122 -2.0188 0.8526
-35.3951 -19.1894 -2.0419 0.8511
-35.1673 -20.7225 -2.0701 0.8492
-34.3180 -25.5264 -2.1691 0.8426
-33.9704 -27.2030 -2.2071 0.8400
-31.8070 -29.4293 -2.1976 0.8407
-32.3771 -34.5573 -2.4016 0.8272
-31.2483 -38.5263 -2.5157 0.8198
-4.1492 -18.7698 -0.9749 0.9259
-2.7783 -18.8695 -0.9673 0.9265
-2.0954 -18.8842 -0.9636 0.9267
-1.0504 -14.0137 -0.7127 0.9453
0.9614 -14.1328 -0.7184 0.9448
1.4627 -14.0677 -0.7173 0.9449
1.9738 -14.0787 -0.7210 0.9447
2.4912 -14.0918 -0.7257 0.9443
3.0153 -14.1011 -0.7313 0.9439
4.6488 -14.1362 -0.7547 0.9421
5.2007 -14.0983 -0.7621 0.9416
5.8105 -14.1725 -0.7768 0.9405
6.4162 -14.1855 -0.7896 0.9395
7.6873 -14.2015 -0.8190 0.9374
10.7723 -18.3086 -1.0773 0.9184
-26.8642 13.5348 -2.2056 0.8863
-27.9453 10.5075 -2.1891 0.8871
-28.5371 8.4624 -2.1825 0.8875
-28.7986 7.4331 -2.1808 0.8876
-29.2250 5.3550 -2.1785 0.8877
-29.6431 2.2026 -2.1795 0.8876
-29.7834 -2.0455 -2.1889 0.8872
-29.4404 -6.3154 -2.2077 0.8862
-29.2779 -7.3823 -2.2139 0.8859
-29.0845 -8.4480 -2.2207 0.8856
-28.8599 -9.5116 -2.2280 0.8853
-28.3164 -11.6309 -2.2445 0.8845
-27.9972 -12.6853 -2.2537 0.8840
-27.7018 -13.7631 -2.2680 0.8833
-27.3981 -14.8538 -2.2851 0.8825
-27.0767 -15.9550 -2.3044 0.8816
-26.3710 -18.1908 -2.3490 0.8794
-25.9643 -19.3128 -2.3727 0.8783
-24.4811 -22.6511 -2.4455 0.8748
-23.9140 -23.7651 -2.4720 0.8735
-23.3469 -24.9190 -2.5038 0.8720
-22.7342 -26.0702 -2.5362 0.8705
-21.3807 -28.3726 -2.6049 0.8672
-20.6576 -29.5504 -2.6436 0.8654
-19.8827 -30.7207 -2.6831 0.8635
-19.0551 -31.8807 -2.7233 0.8616
-18.1830 -33.0446 -2.7655 0.8596
-17.2609 -34.2041 -2.8092 0.8576
-14.1527 -37.5654 -2.9434 0.8513
-10.5267 -40.6746 -3.0806 0.8449
-0.5491 -14.0243 -1.0291 0.9453
-0.0484 -14.0358 -1.0291 0.9453
1.9738 -14.0785 -1.0424 0.9446
2.4912 -14.0919 -1.0493 0.9442
3.0153 -14.1009 -1.0573 0.9438
5.2006 -14.0981 -1.1018 0.9415
5.8134 -14.1796 -1.1237 0.9404
6.4183 -14.1901 -1.1419 0.9394
7.0372 -14.1873 -1.1612 0.9385
10.7721 -18.3083 -1.5575 0.9183
-21.7717 10.0118 -2.3006 0.9082
-22.0708 9.2102 -2.2960 0.9084
-22.6284 7.5985 -2.2916 0.9085
-23.5897 3.4577 -2.2889 0.9086
-23.7069 2.6148 -2.2898 0.9086
-23.7989 1.7683 -2.2911 0.9086
-23.8654 0.9189 -2.2929 0.9085
-23.9065 0.0669 -2.2952 0.9084
-23.8683 -2.4975 -2.3040 0.9081
-23.8023 -3.3529 -2.3077 0.9079
-23.7107 -4.2076 -2.3119 0.9078
-23.5933 -5.0611 -2.3166 0.9076
-23.4501 -5.9129 -2.3218 0.9074
-22.8650 -8.4515 -2.3403 0.9067
-22.0448 -10.9525 -2.3632 0.9058
-21.7189 -11.7748 -2.3718 0.9055
-21.3667 -12.5904 -2.3810 0.9051
-20.9881 -13.3984 -2.3905 0.9048
-20.5831 -14.1983 -2.4006 0.9044
-18.9001 -17.4872 -2.4720 0.9017
-18.4115 -18.2968 -2.4920 0.9010
-17.8919 -19.0967 -2.5123 0.9002
-16.7594 -20.6628 -2.5542 0.8986
-15.5019 -22.1753 -2.5976 0.8970
-14.8264 -22.9081 -2.6197 0.8961
-13.3955 -24.3440 -2.6676 0.8944
-12.6432 -25.0539 -2.6942 0.8934
-11.8581 -25.7424 -2.7210 0.8924
-10.1903 -27.0483 -2.7749 0.8903
-9.3087 -27.6617 -2.8020 0.8893
-5.9603 -20.0516 -2.0083 0.9194
-3.4546 -18.7843 -1.8336 0.9261
-2.7670 -18.7923 -1.8236 0.9265
-1.0504 -14.0133 -1.3491 0.9451
-0.0484 -14.0360 -1.3475 0.9452
3.5485 -14.1122 -1.3970 0.9432
4.0925 -14.1239 -1.4117 0.9426
4.6486 -14.1358 -1.4286 0.9420
5.2005 -14.0979 -1.4426 0.9414
7.0371 -14.1871 -1.5204 0.9383
-18.1265 8.3356 -2.3699 0.9228
-18.3932 7.6755 -2.3675 0.9229
-18.8638 6.3344 -2.3637 0.9230
-19.2501 4.9686 -2.3616 0.9230
-19.6691 2.8830 -2.3614 0.9230
-19.7656 2.1801 -2.3621 0.9230
-19.9242 0.0558 -2.3667 0.9229
-19.9332 -0.6558 -2.3691 0.9228
-19.9201 -1.3681 -2.3718 0.9227
-19.8849 -2.0807 -2.3749 0.9226
-19.8275 -2.7930 -2.3785 0.9225
-19.7478 -3.5044 -2.3824 0.9224
-19.6458 -4.2143 -2.3867 0.9223
-19.3748 -5.6276 -2.3966 0.9219
-19.0142 -7.0282 -2.4080 0.9216
-18.5639 -8.4112 -2.4209 0.9212
-17.7205 -10.4418 -2.4432 0.9205
-17.3948 -11.1045 -2.4514 0.9202
-16.6766 -12.4044 -2.4689 0.9197
-16.2844 -13.0403 -2.4781 0.9194
-15.8677 -13.6637 -2.4874 0.9191
-15.4216 -14.2688 -2.4957 0.9189
-14.0458 -16.1069 -2.5386 0.9175
-12.4956 -17.8748 -2.5907 0.9159
-11.9313 -18.4350 -2.6085 0.9153
-9.4440 -20.5017 -2.6813 0.9131
-8.0680 -21.4150 -2.7183 0.9119
-7.3390 -21.8086 -2.7333 0.9115
-5.9400 -19.9831 -2.4764 0.9195
-4.1491 -18.7691 -2.2833 0.9255
-2.7679 -18.7988 -2.2571 0.9263
-1.0504 -14.0131 -1.6692 0.9450
-0.5491 -14.0239 -1.6671 0.9450
-0.0484 -14.0347 -1.6671 0.9450
0.4529 -14.0455 -1.6693 0.9450
0.9562 -14.0563 -1.6735 0.9448
2.4908 -14.0892 -1.6996 0.9440
3.0152 -14.1005 -1.7128 0.9436
3.5485 -14.1120 -1.7285 0.9431
5.2005 -14.0977 -1.7849 0.9413
5.8144 -14.1821 -1.8207 0.9401
6.4142 -14.1811 -1.8488 0.9392
7.6870 -14.2009 -1.9181 0.9370
9.8951 -16.8177 -2.3178 0.9244
-15.2746 7.6957 -2.4234 0.9332
-15.5233 7.1384 -2.4209 0.9333
-15.7540 6.5742 -2.4187 0.9334
-15.9665 6.0034 -2.4169 0.9334
-16.1608 5.4267 -2.4155 0.9334
-16.4938 4.2572 -2.4136 0.9335
-16.6324 3.6654 -2.4132 0.9335
-16.7522 3.0696 -2.4131 0.9335
-16.8531 2.4702 -2.4134 0.9335
-16.9350 1.8679 -2.4141 0.9335
-16.9979 1.2630 -2.4151 0.9335
-17.0661 0.0478 -2.4181 0.9334
-17.0240 -1.7813 -2.4253 0.9332
-16.9712 -2.3906 -2.4284 0.9331
-16.0571 -6.5954 -2.4596 0.9323
-15.8489 -7.1810 -2.4654 0.9321
-15.3745 -8.3352 -2.4780 0.9318
-15.1085 -8.9027 -2.4847 0.9316
-14.8235 -9.4630 -2.4918 0.9314
-14.1891 -10.5542 -2.5056 0.9311
-13.8401 -11.0830 -2.5123 0.9309
-12.6841 -12.6051 -2.5337 0.9303
-12.2632 -13.0890 -2.5414 0.9301
-11.8250 -13.5601 -2.5493 0.9299
-10.9324 -14.5076 -2.5739 0.9292
-9.4706 -15.8452 -2.6156 0.9281
-8.9460 -16.2579 -2.6293 0.9278
-7.2766 -17.4053 -2.6730 0.9266
-6.2936 -16.7052 -2.5294 0.9304
-5.7248 -17.0118 -2.5432 0.9301
-5.1421 -17.2990 -2.5571 0.9297
-3.2545 -17.6966 -2.5495 0.9299
-1.0504 -14.0129 -1.9911 0.9448
-0.5491 -14.0237 -1.9885 0.9449
-0.0484 -14.0345 -1.9886 0.9449
0.4529 -14.0453 -1.9911 0.9448
0.9562 -14.0561 -1.9962 0.9447
1.4626 -14.0670 -2.0039 0.9445
2.4907 -14.0891 -2.0272 0.9438
3.0151 -14.1003 -2.0430 0.9434
3.5484 -14.1118 -2.0617 0.9429
5.8100 -14.1712 -2.1701 0.9400
6.4106 -14.1733 -2.2041 0.9391
-13.3439 6.7230 -2.4615 0.9412
-13.5630 6.2370 -2.4593 0.9413
-13.7661 5.7447 -2.4574 0.9413
-13.9532 5.2464 -2.4558 0.9414
-14.5379 3.2038 -2.4524 0.9414
-14.6426 2.6830 -2.4524 0.9414
-14.7306 2.1591 -2.4526 0.9414
-14.8017 1.6326 -2.4532 0.9414
-14.8559 1.1039 -2.4541 0.9414
-14.8931 0.5734 -2.4553 0.9414
-14.8708 -1.5560 -2.4632 0.9412
-14.7565 -2.6186 -2.4690 0.9411
-14.4561 -4.1989 -2.4799 0.9408
-13.8154 -6.2596 -2.4987 0.9404
-13.6127 -6.7632 -2.5041 0.9402
-11.6962 -10.0717 -2.5428 0.9393
-11.3574 -10.5084 -2.5490 0.9392
-11.0031 -10.9346 -2.5555 0.9391
-10.6338 -11.3498 -2.5622 0.9389
-9.4377 -12.5240 -2.5834 0.9384
-8.1369 -13.6138 -2.6128 0.9377
-4.8956 -14.5479 -2.5287 0.9397
-3.8215 -14.7663 -2.5127 0.9400
-3.2977 -14.9177 -2.5169 0.9399
-2.7567 -14.9893 -2.5107 0.9401
-2.2131 -15.0297 -2.5027 0.9403
-1.6696 -15.0468 -2.4940 0.9405
-0.5491 -14.0235 -2.3120 0.9447
0.9561 -14.0559 -2.3209 0.9445
1.4626 -14.0668 -2.3298 0.9443
1.9737 -14.0778 -2.3418 0.9440
2.4907 -14.0889 -2.3570 0.9436
4.0350 -13.9258 -2.3885 0.9429
4.9742 -13.4845 -2.3677 0.9434
5.8698 -12.9775 -2.3464 0.9439
6.7170 -12.4089 -2.3245 0.9444
7.1357 -12.1278 -2.3181 0.9446
-12.0322 5.5331 -2.4893 0.9475
-12.5327 4.2084 -2.4849 0.9476
-12.6703 3.7573 -2.4840 0.9476
-13.0720 1.9160 -2.4833 0.9476
-13.1348 1.4487 -2.4838 0.9476
-13.1823 0.9795 -2.4846 0.9476
-13.2315 0.0370 -2.4870 0.9476
-13.2331 -0.4354 -2.4887 0.9475
-12.8124 -3.7215 -2.5078 0.9471
-12.6907 -4.1826 -2.5116 0.9471
-12.5537 -4.6402 -2.5156 0.9470
-12.0426 -5.9831 -2.5275 0.9467
-11.8409 -6.4195 -2.5317 0.9467
-11.6244 -6.8497 -2.5360 0.9466
-11.3931 -7.2732 -2.5406 0.9465
-11.1474 -7.6895 -2.5454 0.9464
-10.8872 -8.0981 -2.5504 0.9463
-10.6129 -8.4987 -2.5556 0.9462
-10.0226 -9.2734 -2.5665 0.9459
-9.3784 -10.0099 -2.5782 0.9457
-7.5459 -11.6591 -2.6104 0.9450
-7.1439 -11.9524 -2.6173 0.9449
-6.1930 -12.2720 -2.5837 0.9456
-5.6094 -12.1774 -2.5201 0.9469
-4.8947 -11.7079 -2.3852 0.9497
-4.0599 -12.0643 -2.3926 0.9495
-3.6326 -12.2207 -2.3963 0.9494
-2.7555 -12.4649 -2.3995 0.9494
-2.3216 -12.6236 -2.4125 0.9491
-1.8712 -12.7088 -2.4145 0.9491
-1.4175 -12.7749 -2.4159 0.9490
-0.9620 -12.8332 -2.4189 0.9490
-0.5039 -12.8691 -2.4207 0.9489
0.8700 -12.7896 -2.4095 0.9492
3.0751 -12.2296 -2.3702 0.9500
3.9124 -11.8969 -2.3540 0.9503
5.1338 -11.3503 -2.3415 0.9506
5.9090 -10.9162 -2.3331 0.9507
-10.6262 5.3537 -2.5151 0.9525
-10.8026 4.9676 -2.5133 0.9526
-10.9662 4.5762 -2.5118 0.9526
-11.4886 2.9653 -2.5080 0.9526
-11.5857 2.5532 -2.5077 0.9527
-11.6692 2.1382 -2.5077 0.9527
-11.7952 1.3010 -2.5084 0.9526
-11.8805 0.0332 -2.5113 0.9526
-11.8811 -0.3909 -2.5128 0.9526
-11.6746 -2.5044 -2.5239 0.9524
-11.1082 -4.5627 -2.5384 0.9521
-10.9528 -4.9626 -2.5418 0.9520
-10.7839 -5.3578 -2.5453 0.9520
-10.6014 -5.7475 -2.5491 0.9519
-10.4057 -6.1316 -2.5530 0.9518
-10.1968 -6.5094 -2.5572 0.9517
-9.4926 -7.6015 -2.5706 0.9515
-8.3805 -8.9449 -2.5910 0.9511
-8.0731 -9.2577 -2.5965 0.9510
-7.4249 -9.8529 -2.6079 0.9508
-6.7341 -10.4048 -2.6198 0.9506
-5.3923 -10.6854 -2.5300 0.9522
-4.6090 -11.0245 -2.5258 0.9523
-4.0367 -10.7147 -2.4203 0.9543
-2.4269 -10.9787 -2.3767 0.9551
-2.0332 -11.0558 -2.3762 0.9551
-1.6365 -11.1143 -2.3747 0.9551
-1.2377 -11.1554 -2.3725 0.9551
0.3615 -11.2085 -2.3705 0.9552
1.1598 -11.1539 -2.3704 0.9552
2.3384 -10.9357 -2.3639 0.9553
3.4804 -10.5832 -2.3549 0.9555
3.8508 -10.4390 -2.3519 0.9555
4.2149 -10.2805 -2.3486 0.9556
4.5729 -10.1101 -2.3455 0.9556
-9.6318 4.8527 -2.5348 0.9567
-10.2030 3.4261 -2.5295 0.9567
-10.3157 3.0590 -2.5288 0.9568
-10.4162 2.6885 -2.5283 0.9568
-10.5801 1.9387 -2.5280 0.9568
-10.6940 1.1796 -2.5286 0.9568
-10.7321 0.7974 -2.5293 0.9567
-10.7575 0.4142 -2.5301 0.9567
-10.7574 -0.7388 -2.5342 0.9567
-10.7313 -1.1229 -2.5359 0.9566
-10.6909 -1.5060 -2.5374 0.9566
-10.6377 -1.8877 -2.5392 0.9566
-10.5716 -2.2678 -2.5411 0.9565
-10.4011 -3.0211 -2.5455 0.9565
-10.0506 -4.1282 -2.5536 0.9563
-9.7546 -4.8463 -2.5599 0.9562
-9.4098 -5.5447 -2.5669 0.9561
-9.2194 -5.8855 -2.5707 0.9561
-9.0173 -6.2202 -2.5746 0.9560
-8.8036 -6.5482 -2.5787 0.9559
-7.8364 -7.7876 -2.5965 0.9556
-7.5677 -8.0773 -2.6014 0.9555
-7.2886 -8.3581 -2.6063 0.9555
-6.9994 -8.6297 -2.6114 0.9554
-6.7005 -8.8916 -2.6167 0.9553
-5.1785 -9.4110 -2.5246 0.9568
-4.1325 -9.8848 -2.5180 0.9569
-1.8210 -9.9018 -2.3662 0.9595
-1.4666 -9.9604 -2.3662 0.9595
-0.7524 -10.0377 -2.3657 0.9595
-0.0347 -10.0682 -2.3663 0.9595
0.3245 -10.0633 -2.3663 0.9595
0.6833 -10.0452 -2.3663 0.9595
1.3978 -9.9702 -2.3662 0.9595
1.7512 -9.9057 -2.3642 0.9595
2.1018 -9.8291 -2.3623 0.9595
2.4507 -9.7461 -2.3619 0.9595
3.2077 -9.7541 -2.4132 0.9587
3.6039 -9.7697 -2.4473 0.9581
4.0129 -9.7879 -2.4862 0.9575
4.3831 -9.6905 -2.4996 0.9572
4.7216 -9.5189 -2.4973 0.9573
-8.9468 4.1142 -2.5497 0.9601
-9.3230 3.1306 -2.5464 0.9602
-9.4263 2.7953 -2.5457 0.9602
-9.5989 2.1154 -2.5450 0.9602
-9.8264 0.3783 -2.5461 0.9602
-9.8344 -0.3235 -2.5477 0.9602
-9.8208 -0.6745 -2.5488 0.9601
-9.7952 -1.0249 -2.5500 0.9601
-9.7578 -1.3745 -2.5514 0.9601
-9.5751 -2.4143 -2.5568 0.9600
-9.0380 -4.0950 -2.5691 0.9598
-8.8964 -4.4200 -2.5721 0.9598
-8.7436 -4.7403 -2.5752 0.9597
-8.5799 -5.0557 -2.5785 0.9597
-8.4052 -5.3657 -2.5819 0.9596
-7.6010 -6.5452 -2.5971 0.9594
-7.1380 -7.0936 -2.6056 0.9593
-6.8920 -7.3562 -2.6100 0.9592
-6.3053 -7.7739 -2.5916 0.9595
-4.6922 -8.5272 -2.5200 0.9606
-3.7483 -8.9659 -2.5162 0.9606
-3.4258 -9.0930 -2.5159 0.9606
-3.0991 -9.2093 -2.5159 0.9606
-2.0980 -9.4907 -2.5167 0.9606
-1.7583 -9.5611 -2.5171 0.9606
-0.3794 -9.6912 -2.5112 0.9607
0.3126 -9.6914 -2.5106 0.9607
0.6592 -9.6906 -2.5149 0.9607
1.0058 -9.6728 -2.5180 0.9606
1.6920 -9.5708 -2.5165 0.9606
2.0310 -9.4982 -2.5149 0.9607
3.0271 -9.2050 -2.5089 0.9608
3.6691 -8.9492 -2.5043 0.9608
3.9818 -8.8033 -2.5017 0.9609
4.2886 -8.6460 -2.4989 0.9609
-8.0880 4.0750 -2.5639 0.9631
-8.6652 2.5696 -2.5586 0.9631
-8.8863 1.6283 -2.5575 0.9631
-8.9386 1.3102 -2.5575 0.9631
-8.9802 0.9905 -2.5576 0.9631
-9.0396 0.0253 -2.5591 0.9631
-9.0247 -0.6198 -2.5609 0.9631
-9.0009 -0.9418 -2.5620 0.9631
-8.9662 -1.2630 -2.5633 0.9631
-8.9205 -1.5830 -2.5648 0.9630
-8.4205 -3.4587 -2.5770 0.9629
-8.1692 -4.0587 -2.5824 0.9628
-7.5447 -5.2044 -2.5947 0.9626
-7.3640 -5.4775 -2.5982 0.9626
-7.1737 -5.7446 -2.6018 0.9625
-6.7654 -6.2596 -2.6093 0.9624
-6.5299 -6.4892 -2.6062 0.9625
-6.2456 -6.6662 -2.5860 0.9627
-5.9534 -6.8270 -2.5643 0.9630
-5.3836 -7.1442 -2.5324 0.9635
-5.1080 -7.3069 -2.5239 0.9636
-2.8334 -8.4197 -2.5149 0.9637
-2.5313 -8.5159 -2.5151 0.9637
-2.2261 -8.6014 -2.5152 0.9637
-1.9180 -8.6764 -2.5155 0.9637
-1.6074 -8.7402 -2.5158 0.9637
-0.0307 -8.8912 -2.5170 0.9637
0.2866 -8.8868 -2.5171 0.9637
0.9196 -8.8439 -2.5172 0.9637
1.8568 -8.6834 -2.5138 0.9638
3.0649 -8.3085 -2.5070 0.9639
3.6428 -8.0538 -2.5023 0.9639
3.9238 -7.9106 -2.4998 0.9640
4.4688 -7.5951 -2.4947 0.9640
-7.5996 3.4947 -2.5728 0.9656
-7.8231 2.9415 -2.5707 0.9656
-8.0083 2.3748 -2.5692 0.9656
-8.1546 1.7971 -2.5684 0.9657
-8.2613 1.2109 -2.5681 0.9657
-8.2996 0.9155 -2.5683 0.9657
-8.3279 0.6188 -2.5686 0.9657
-8.3542 0.0234 -2.5696 0.9656
-8.3522 -0.2748 -2.5704 0.9656
-8.3400 -0.5728 -2.5713 0.9656
-8.3178 -0.8703 -2.5723 0.9656
-8.2428 -1.4627 -2.5749 0.9656
-8.1902 -1.7569 -2.5764 0.9656
-7.9724 -2.6276 -2.5819 0.9655
-7.5446 -3.7484 -2.5912 0.9654
-7.2735 -4.2859 -2.5967 0.9653
-7.1240 -4.5478 -2.5996 0.9652
-6.6215 -5.3024 -2.6092 0.9651
-6.3985 -5.5098 -2.5972 0.9653
-6.1511 -5.6913 -2.5776 0.9655
-5.9081 -5.8713 -2.5619 0.9657
-5.1735 -6.3784 -2.5261 0.9662
-4.9357 -6.5498 -2.5225 0.9663
-4.6928 -6.7129 -2.5193 0.9663
-4.4464 -6.8701 -2.5170 0.9663
-4.1955 -7.0194 -2.5153 0.9664
-3.9408 -7.1618 -2.5143 0.9664
-3.4195 -7.4233 -2.5139 0.9664
-3.1525 -7.5407 -2.5139 0.9664
-2.8816 -7.6486 -2.5140 0.9664
-2.3291 -7.8358 -2.5143 0.9664
-1.7649 -7.9840 -2.5150 0.9664
-1.4791 -8.0426 -2.5152 0.9664
-0.3201 -8.1745 -2.5162 0.9663
0.2637 -8.1771 -2.5164 0.9663
0.8462 -8.1377 -2.5165 0.9663
1.4229 -8.0487 -2.5140 0.9664
1.7080 -7.9873 -2.5123 0.9664
1.9903 -7.9151 -2.5103 0.9664
3.0896 -7.5358 -2.5051 0.9665
4.1144 -6.9928 -2.4955 0.9666
-7.1648 2.9899 -2.5807 0.9678
-7.3550 2.4698 -2.5790 0.9678
-7.5093 1.9382 -2.5779 0.9678
-7.6269 1.3976 -2.5774 0.9678
-7.6718 1.1245 -2.5774 0.9678
-7.7074 0.8501 -2.5775 0.9678
-7.7336 0.5747 -2.5778 0.9678
-7.7578 0.0217 -2.5788 0.9678
-7.7558 -0.2552 -2.5795 0.9678
-7.7443 -0.5319 -2.5803 0.9678
-7.7234 -0.8081 -2.5813 0.9678
-7.6930 -1.0837 -2.5825 0.9678
-7.6533 -1.3581 -2.5837 0.9678
-7.6041 -1.6312 -2.5852 0.9677
-7.4778 -2.1720 -2.5884 0.9677
-7.4008 -2.4391 -2.5902 0.9677
-7.1150 -3.2237 -2.5965 0.9676
-7.0018 -3.4787 -2.5989 0.9676
-6.8799 -3.7299 -2.6014 0.9676
-6.6099 -4.2196 -2.6067 0.9675
-6.4407 -4.4428 -2.6009 0.9676
-6.2426 -4.6434 -2.5862 0.9677
-6.0381 -4.8352 -2.5713 0.9679
-5.8275 -5.0180 -2.5563 0.9681
-5.6154 -5.1955 -2.5430 0.9683
-4.9886 -5.7206 -2.5230 0.9685
-4.5569 -6.0470 -2.5169 0.9686
-4.3371 -6.2042 -2.5163 0.9686
-4.1100 -6.3503 -2.5144 0.9686
-3.6447 -6.6236 -2.5131 0.9686
-3.1632 -6.8667 -2.5131 0.9686
-2.6657 -7.0757 -2.5134 0.9686
-1.3683 -7.4404 -2.5147 0.9686
-0.2961 -7.5622 -2.5157 0.9686
0.2440 -7.5646 -2.5158 0.9686
0.5137 -7.5512 -2.5159 0.9686
0.7826 -7.5270 -2.5155 0.9686
1.3159 -7.4434 -2.5126 0.9686
1.5795 -7.3864 -2.5108 0.9687
2.1005 -7.2493 -2.5088 0.9687
2.3571 -7.1674 -2.5080 0.9687
2.6104 -7.0765 -2.5072 0.9687
3.1037 -6.8620 -2.5034 0.9688
3.3437 -6.7410 -2.5013 0.9688
3.5788 -6.6114 -2.4990 0.9688
3.8088 -6.4734 -2.4966 0.9688
-6.7733 2.5468 -2.5878 0.9697
-7.0613 1.5562 -2.5858 0.9698
-7.1869 0.7927 -2.5857 0.9698
-7.2269 0.2783 -2.5863 0.9697
-7.2337 0.0203 -2.5868 0.9697
-7.2011 -0.7535 -2.5892 0.9697
-7.0343 -1.7736 -2.5943 0.9697
-6.6312 -3.0045 -2.6034 0.9695
-6.5134 -3.2360 -2.6009 0.9696
-6.0683 -3.8739 -2.5746 0.9699
-5.8996 -4.0695 -2.5630 0.9700
-5.3692 -4.6234 -2.5338 0.9703
-5.0049 -4.9737 -2.5233 0.9705
-4.8180 -5.1425 -2.5200 0.9705
-4.6253 -5.3040 -2.5167 0.9705
-4.4321 -5.4643 -2.5161 0.9706
-3.8176 -5.8985 -2.5126 0.9706
-3.6042 -6.0302 -2.5123 0.9706
-3.1652 -6.2721 -2.5124 0.9706
-2.9395 -6.3812 -2.5125 0.9706
-2.7102 -6.4827 -2.5127 0.9706
-2.2414 -6.6606 -2.5131 0.9706
-1.5175 -6.8646 -2.5141 0.9706
-1.2717 -6.9149 -2.5143 0.9706
-1.0242 -6.9565 -2.5145 0.9706
-0.7755 -6.9892 -2.5147 0.9706
-0.2752 -7.0279 -2.5152 0.9706
-0.0242 -7.0335 -2.5153 0.9706
0.7271 -6.9930 -2.5142 0.9706
0.9756 -6.9586 -2.5128 0.9706
1.2225 -6.9148 -2.5112 0.9706
1.7113 -6.8057 -2.5095 0.9706
1.9525 -6.7382 -2.5088 0.9706
2.1910 -6.6623 -2.5080 0.9706
2.4265 -6.5779 -2.5073 0.9707
2.8855 -6.3795 -2.5039 0.9707
3.1088 -6.2674 -2.5019 0.9707
3.3277 -6.1475 -2.4998 0.9707
3.5417 -6.0195 -2.4976 0.9708
-5.9951 3.0205 -2.5725 0.9717
-6.4081 2.1518 -2.5905 0.9715
-6.5523 1.6912 -2.5932 0.9714
-6.6077 1.4562 -2.5930 0.9714
-6.6551 1.2194 -2.5928 0.9714
-6.6943 0.9812 -2.5928 0.9714
-6.7253 0.7418 -2.5929 0.9714
-6.7626 0.2604 -2.5935 0.9714
-6.7668 -0.2226 -2.5946 0.9714
-6.7565 -0.4640 -2.5953 0.9714
-6.6759 -1.1847 -2.5983 0.9714
-6.4395 -2.1223 -2.5983 0.9714
-6.1246 -2.7750 -2.5768 0.9716
-5.8775 -3.1864 -2.5621 0.9718
-5.7385 -3.3814 -2.5525 0.9719
-4.8266 -4.4658 -2.5199 0.9722
-4.4885 -4.7907 -2.5158 0.9723
-4.3140 -4.9470 -2.5154 0.9723
-4.1312 -5.0934 -2.5132 0.9723
-3.9449 -5.2350 -2.5120 0.9723
-3.7554 -5.3721 -2.5118 0.9723
-3.3625 -5.6258 -2.5117 0.9723
-3.1598 -5.7424 -2.5118 0.9723
-2.5287 -6.0485 -2.5123 0.9723
-2.0913 -6.2144 -2.5127 0.9723
-1.8685 -6.2861 -2.5131 0.9723
-1.4158 -6.4048 -2.5137 0.9723
-0.2567 -6.5571 -2.5147 0.9723
0.2115 -6.5590 -2.5149 0.9723
0.4453 -6.5457 -2.5142 0.9723
1.1406 -6.4518 -2.5108 0.9723
1.5969 -6.3505 -2.5094 0.9723
1.8219 -6.2878 -2.5087 0.9723
2.4806 -6.0504 -2.5059 0.9724
-5.7699 2.4079 -2.5589 0.9733
-5.8652 2.2054 -2.5646 0.9733
-6.1543 1.3563 -2.5792 0.9731
-6.2123 1.1383 -2.5849 0.9731
-6.3212 0.2434 -2.5890 0.9730
-6.2646 -0.8824 -2.5893 0.9730
-6.2184 -1.1035 -2.5848 0.9731
-6.1621 -1.3219 -2.5794 0.9731
-5.9565 -1.9631 -2.5669 0.9733
-5.8732 -2.1709 -2.5627 0.9733
-5.7750 -2.3721 -2.5552 0.9734
-5.5639 -2.7642 -2.5428 0.9735
-5.4520 -2.9558 -2.5382 0.9736
-4.9465 -3.6793 -2.5231 0.9737
-4.5113 -4.1741 -2.5155 0.9738
-4.1976 -4.4803 -2.5128 0.9738
-4.0345 -4.6265 -2.5123 0.9738
-3.8652 -4.7655 -2.5113 0.9738
-3.6923 -4.8998 -2.5110 0.9738
-3.3336 -5.1507 -2.5111 0.9738
-3.1479 -5.2666 -2.5112 0.9738
-2.9581 -5.3758 -2.5113 0.9738
-1.9579 -5.8182 -2.5125 0.9738
-1.7494 -5.8853 -2.5129 0.9738
-1.5385 -5.9448 -2.5132 0.9738
-1.3255 -5.9963 -2.5134 0.9738
-0.6774 -6.1050 -2.5140 0.9738
-0.4592 -6.1258 -2.5142 0.9738
-0.2403 -6.1387 -2.5144 0.9738
-0.0212 -6.1435 -2.5144 0.9738
0.4167 -6.1261 -2.5131 0.9738
0.8519 -6.0764 -2.5113 0.9738
1.0679 -6.0406 -2.5106 0.9738
1.2824 -5.9972 -2.5100 0.9738
1.7059 -5.8873 -2.5087 0.9739
1.9143 -5.8212 -2.5080 0.9739
2.7174 -5.4784 -2.5029 0.9739
3.0966 -5.2629 -2.4992 0.9740
-5.3775 2.2441 -2.5395 0.9749
-5.5374 1.8595 -2.5457 0.9748
-5.8139 0.8522 -2.5609 0.9747
-5.8795 0.2264 -2.5643 0.9747
-5.8841 0.0165 -2.5644 0.9747
-5.8802 -0.1934 -2.5641 0.9747
-5.8680 -0.4030 -2.5634 0.9747
-5.8470 -0.6118 -2.5621 0.9747
-5.8151 -0.8191 -2.5594 0.9747
-5.7293 -1.2290 -2.5537 0.9748
-5.5407 -1.8260 -2.5425 0.9749
-5.4655 -2.0202 -2.5395 0.9749
-5.2926 -2.3980 -2.5323 0.9750
-5.1955 -2.5813 -2.5284 0.9750
-4.9886 -2.9396 -2.5235 0.9751
-4.8742 -3.1116 -2.5202 0.9751
-4.7584 -3.2823 -2.5193 0.9751
-4.6314 -3.4449 -2.5156 0.9751
-4.5046 -3.6072 -2.5151 0.9751
-4.2313 -3.9150 -2.5124 0.9752
-4.0885 -4.0630 -2.5121 0.9752
-3.9388 -4.2041 -2.5108 0.9752
-3.7862 -4.3421 -2.5107 0.9752
-3.6285 -4.4736 -2.5104 0.9752
-3.3004 -4.7212 -2.5105 0.9752
-3.1301 -4.8363 -2.5107 0.9752
-2.9557 -4.9451 -2.5108 0.9752
-2.7777 -5.0480 -2.5111 0.9752
-1.8386 -5.4635 -2.5123 0.9752
-1.6427 -5.5263 -2.5127 0.9752
-1.4446 -5.5821 -2.5129 0.9752
-1.2447 -5.6304 -2.5131 0.9752
-1.0431 -5.6717 -2.5133 0.9752
-0.4311 -5.7519 -2.5138 0.9751
-0.2257 -5.7640 -2.5140 0.9751
-0.0199 -5.7685 -2.5141 0.9751
0.5961 -5.7322 -2.5117 0.9752
1.0028 -5.6724 -2.5105 0.9752
1.6020 -5.5287 -2.5086 0.9752
1.9912 -5.3977 -2.5074 0.9752
2.5523 -5.1456 -2.5033 0.9752
2.7325 -5.0479 -2.5016 0.9753
2.9088 -4.9437 -2.4998 0.9753
-4.9532 2.2778 -2.5236 0.9763
-5.0338 2.1007 -2.5249 0.9762
-5.2463 1.5559 -2.5330 0.9762
-5.3038 1.3690 -2.5355 0.9761
-5.3539 1.1799 -2.5377 0.9761
-5.4300 0.7959 -2.5403 0.9761
-5.4760 0.4069 -2.5417 0.9761
-5.4916 0.0154 -2.5420 0.9761
-5.4881 -0.1805 -2.5417 0.9761
-5.4581 -0.5711 -2.5403 0.9761
-5.3981 -0.9579 -2.5378 0.9761
-5.3570 -1.1491 -2.5361 0.9761
-5.1884 -1.7100 -2.5287 0.9762
-4.7847 -2.5940 -2.5193 0.9763
-4.6852 -2.7607 -2.5172 0.9763
-4.4717 -3.0846 -2.5146 0.9763
-4.3584 -3.2419 -2.5144 0.9763
-4.2358 -3.3920 -2.5119 0.9764
-4.1117 -3.5406 -2.5116 0.9764
-3.9808 -3.6833 -2.5104 0.9764
-3.5636 -4.0865 -2.5098 0.9764
-3.2634 -4.3306 -2.5100 0.9764
-3.1071 -4.4446 -2.5102 0.9764
-2.9467 -4.5529 -2.5104 0.9764
-2.7827 -4.6557 -2.5106 0.9764
-2.6149 -4.7523 -2.5108 0.9764
-2.2698 -4.9276 -2.5113 0.9764
-1.7309 -5.1436 -2.5121 0.9764
-1.3600 -5.2551 -2.5127 0.9764
-1.1717 -5.3006 -2.5128 0.9764
-0.9819 -5.3394 -2.5130 0.9764
0.3683 -5.4144 -2.5120 0.9764
0.7531 -5.3719 -2.5109 0.9764
1.1271 -5.2708 -2.4949 0.9765
1.3136 -5.2239 -2.4933 0.9765
1.6926 -5.1470 -2.5080 0.9764
2.0541 -5.0102 -2.5065 0.9764
2.2304 -4.9310 -2.5051 0.9764
2.5732 -4.7537 -2.5021 0.9765
-4.8701 1.6354 -2.5200 0.9774
-4.9304 1.4621 -2.5226 0.9773
-5.0974 0.7472 -2.5271 0.9773
-5.1413 0.3820 -2.5289 0.9773
-5.1561 0.0145 -2.5292 0.9773
-5.1252 -0.5363 -2.5278 0.9773
-5.1004 -0.7184 -2.5266 0.9773
-5.0684 -0.8994 -2.5250 0.9773
-5.0313 -1.0792 -2.5241 0.9773
-4.9889 -1.2579 -2.5238 0.9773
-4.9393 -1.4347 -2.5230 0.9773
-4.8800 -1.6083 -2.5204 0.9774
-4.8174 -1.7806 -2.5193 0.9774
-4.5061 -2.4429 -2.5143 0.9774
-4.4157 -2.6020 -2.5141 0.9774
-4.1076 -3.0553 -2.5111 0.9775
-3.9942 -3.1984 -2.5100 0.9775
-3.6285 -3.6059 -2.5093 0.9775
-3.4976 -3.7332 -2.5094 0.9775
-3.3624 -3.8558 -2.5095 0.9775
-3.2229 -3.9735 -2.5096 0.9775
-2.9317 -4.1937 -2.5100 0.9775
-2.6256 -4.3928 -2.5104 0.9775
-2.4674 -4.4841 -2.5106 0.9775
-1.9747 -4.7234 -2.5113 0.9774
-1.4593 -4.9093 -2.5123 0.9774
-1.1056 -5.0015 -2.5126 0.9774
-0.7462 -5.0683 -2.5129 0.9774
-0.5650 -5.0920 -2.5131 0.9774
-0.0176 -5.1227 -2.5129 0.9774
0.1651 -5.1191 -2.5123 0.9774
0.5295 -5.0921 -2.5113 0.9774
0.7107 -5.0688 -2.5107 0.9775
0.8909 -5.0392 -2.5102 0.9775
1.0699 -5.0031 -2.5096 0.9775
1.2474 -4.9607 -2.5091 0.9775
1.4233 -4.9120 -2.5085 0.9775
1.5973 -4.8570 -2.5080 0.9775
1.9385 -4.7282 -2.5067 0.9775
2.2683 -4.5731 -2.5040 0.9775
2.5856 -4.3944 -2.5010 0.9775
-4.4674 1.8643 -2.5113 0.9784
-4.5316 1.7039 -2.5116 0.9784
-4.5901 1.5414 -2.5119 0.9784
-4.6956 1.2120 -2.5158 0.9784
-4.7389 1.0444 -2.5175 0.9784
-4.7753 0.8750 -2.5186 0.9784
-4.8423 0.3598 -2.5190 0.9784
-4.8535 -0.1597 -2.5193 0.9784
-4.8082 -0.6773 -2.5190 0.9784
-4.7808 -0.8484 -2.5189 0.9784
-4.7049 -1.1863 -2.5172 0.9784
-4.6025 -1.5169 -2.5140 0.9784
-4.5453 -1.6800 -2.5139 0.9784
-4.4822 -1.8411 -2.5138 0.9784
-4.4135 -1.9997 -2.5137 0.9784
-3.6645 -3.1555 -2.5088 0.9784
-3.5496 -3.2843 -2.5088 0.9784
-3.4305 -3.4091 -2.5090 0.9784
-3.0470 -3.7567 -2.5094 0.9784
-2.9113 -3.8634 -2.5096 0.9784
-2.7719 -3.9652 -2.5099 0.9784
-2.6288 -4.0618 -2.5100 0.9784
-2.4825 -4.1534 -2.5102 0.9784
-2.3329 -4.2396 -2.5104 0.9784
-2.1803 -4.3205 -2.5106 0.9784
-2.0250 -4.3960 -2.5109 0.9784
-1.8671 -4.4660 -2.5112 0.9784
-1.7068 -4.5303 -2.5115 0.9784
-1.5442 -4.5889 -2.5118 0.9784
-1.2133 -4.6881 -2.5122 0.9784
-0.8760 -4.7632 -2.5125 0.9784
-0.7055 -4.7918 -2.5127 0.9784
-0.5342 -4.8142 -2.5129 0.9784
-0.3621 -4.8305 -2.5130 0.9784
-0.1895 -4.8404 -2.5131 0.9784
-0.0167 -4.8432 -2.5126 0.9784
0.5006 -4.8144 -2.5111 0.9784
0.6719 -4.7925 -2.5106 0.9784
0.8423 -4.7645 -2.5101 0.9784
1.0116 -4.7304 -2.5095 0.9784
1.5103 -4.5924 -2.5080 0.9785
1.9904 -4.4005 -2.5056 0.9785
2.1450 -4.3245 -2.5043 0.9785
2.2967 -4.2429 -2.5029 0.9785
-4.0840 2.0577 -2.5047 0.9794
-4.1568 1.9115 -2.5059 0.9793
-4.2852 1.6113 -2.5075 0.9793
-4.5116 0.8267 -2.5121 0.9793
-4.5751 0.3400 -2.5127 0.9793
-4.5881 0.0129 -2.5130 0.9793
-4.5859 -0.1509 -2.5131 0.9793
-4.5777 -0.3144 -2.5131 0.9793
-4.5636 -0.4775 -2.5132 0.9793
-4.5438 -0.6400 -2.5132 0.9793
-4.5181 -0.8018 -2.5132 0.9793
-4.4866 -0.9624 -2.5132 0.9793
-4.4494 -1.1219 -2.5132 0.9793
-4.4065 -1.2799 -2.5132 0.9793
-4.3010 -1.5897 -2.5115 0.9793
-4.1043 -2.0391 -2.5101 0.9793
-4.0275 -2.1834 -2.5092 0.9793
-3.9459 -2.3252 -2.5085 0.9793
-3.8605 -2.4645 -2.5086 0.9793
-3.7700 -2.6005 -2.5085 0.9793
-3.6745 -2.7332 -2.5083 0.9793
-3.5748 -2.8626 -2.5083 0.9793
-3.4706 -2.9885 -2.5085 0.9793
-3.2489 -3.2287 -2.5087 0.9793
-3.1319 -3.3428 -2.5089 0.9793
-3.0108 -3.4526 -2.5090 0.9793
-2.7574 -3.6592 -2.5095 0.9793
-2.6253 -3.7555 -2.5097 0.9793
-2.3512 -3.9337 -2.5101 0.9793
-2.2096 -4.0155 -2.5103 0.9793
-1.9180 -4.1637 -2.5108 0.9793
-1.6166 -4.2909 -2.5114 0.9793
-1.3067 -4.3961 -2.5119 0.9793
-0.9900 -4.4786 -2.5122 0.9793
-0.8297 -4.5113 -2.5123 0.9793
-0.6682 -4.5383 -2.5125 0.9793
-0.5059 -4.5596 -2.5126 0.9793
-0.3429 -4.5750 -2.5128 0.9793
-0.1795 -4.5843 -2.5128 0.9793
-0.0158 -4.5870 -2.5123 0.9793
0.9581 -4.4804 -2.5095 0.9793
1.4305 -4.3499 -2.5080 0.9793
1.5845 -4.2952 -2.5075 0.9793
1.8855 -4.1684 -2.5058 0.9794
2.0320 -4.0966 -2.5046 0.9794
2.3165 -3.9371 -2.5019 0.9794
-3.8720 1.9508 -2.5032 0.9802
-3.9397 1.8117 -2.5036 0.9802
-4.0027 1.6703 -2.5041 0.9802
-4.0613 1.5271 -2.5051 0.9802
-4.2048 1.0853 -2.5072 0.9801
-4.2412 0.9347 -2.5074 0.9801
-4.3206 0.4766 -2.5096 0.9801
-4.3452 0.1673 -2.5106 0.9801
-4.3467 -0.1430 -2.5109 0.9801
-4.3251 -0.4526 -2.5108 0.9801
-4.2806 -0.7596 -2.5100 0.9801
-4.2498 -0.9116 -2.5094 0.9801
-3.4855 -2.5925 -2.5080 0.9801
-3.2920 -2.8348 -2.5082 0.9801
-3.1891 -2.9507 -2.5085 0.9801
-3.0819 -3.0628 -2.5086 0.9801
-2.4904 -3.5625 -2.5096 0.9801
-2.3619 -3.6493 -2.5097 0.9801
-2.2304 -3.7316 -2.5100 0.9801
-2.0960 -3.8090 -2.5101 0.9801
-1.9590 -3.8819 -2.5105 0.9801
-1.8195 -3.9498 -2.5107 0.9801
-1.5335 -4.0704 -2.5113 0.9801
-1.3874 -4.1229 -2.5116 0.9801
-1.2396 -4.1701 -2.5117 0.9801
-1.0900 -4.2119 -2.5119 0.9801
-0.7870 -4.2794 -2.5121 0.9801
-0.6338 -4.3050 -2.5123 0.9801
-0.4799 -4.3251 -2.5124 0.9801
-0.3253 -4.3397 -2.5126 0.9801
-0.1703 -4.3485 -2.5125 0.9801
-0.0150 -4.3511 -2.5121 0.9801
0.1402 -4.3481 -2.5117 0.9801
1.2092 -4.1730 -2.5084 0.9801
1.5032 -4.0747 -2.5075 0.9801
1.9279 -3.8866 -2.5048 0.9802
2.0643 -3.8135 -2.5036 0.9802
