ply
format ascii 1.0
element vertex 902
property float32 x
property float32 y
property float32 z
property float32 I
end_header
42.6057 13.4891 7.8801 0.8340
37.6235 13.4052 7.0426 0.8502
34.4806 13.6894 6.5415 0.8601
28.6357 15.0870 5.7072 0.8768
28.6589 16.4304 5.8249 0.8744
28.6832 17.8322 5.9553 0.8718
28.7085 19.3001 6.0997 0.8689
35.3378 27.6068 7.9070 0.8335
17.0947 14.3650 3.9372 0.9133
16.0061 14.4545 3.8028 0.9161
14.8249 14.3799 3.6417 0.9195
13.8439 14.4211 3.5249 0.9220
12.0175 14.4526 3.3143 0.9265
11.1818 14.4670 3.2241 0.9284
9.6351 14.4937 3.0688 0.9318
8.9145 14.5061 3.0022 0.9332
5.7515 12.0893 2.3606 0.9471
5.1070 14.5717 2.7226 0.9392
3.9720 14.5913 2.6665 0.9404
2.0007 10.1580 1.8255 0.9588
1.8107 14.6286 2.5991 0.9419
34.4806 13.6894 5.6833 0.8606
31.1388 13.6670 5.2095 0.8714
28.6130 13.7951 4.8662 0.8794
28.6353 15.0868 4.9584 0.8772
28.5880 16.3897 5.0482 0.8752
28.7348 20.8426 5.4381 0.8662
34.2417 26.7506 6.6566 0.8388
17.0948 14.3651 3.4207 0.9136
14.8495 14.4038 3.1692 0.9197
10.7275 12.0035 2.4662 0.9369
10.1076 12.1557 2.4218 0.9380
10.3893 14.4807 2.7302 0.9304
7.4117 12.0607 2.1686 0.9443
6.8373 12.0706 2.1252 0.9454
5.7516 12.0893 2.0509 0.9473
5.6940 14.5616 2.3952 0.9387
5.1070 14.5718 2.3654 0.9394
3.9720 14.5913 2.3166 0.9406
2.3414 14.6194 2.2682 0.9418
1.8107 14.6286 2.2581 0.9421
1.2840 14.6376 2.2510 0.9423
-0.7165 36.7798 5.6355 0.8617
-1.7092 30.9688 4.7515 0.8820
34.4807 13.6895 4.8310 0.8610
28.5877 16.3895 4.2911 0.8755
28.6824 17.8317 4.3980 0.8726
28.7077 19.2995 4.5046 0.8698
28.7344 20.8423 4.6225 0.8666
14.8495 14.4038 2.6940 0.9199
10.7275 12.0035 2.0964 0.9371
9.9916 12.0162 2.0350 0.9389
9.4500 12.2264 2.0123 0.9396
7.4117 12.0607 1.8434 0.9445
5.7516 12.0893 1.7434 0.9474
4.7342 12.1069 1.6928 0.9489
5.0510 14.4122 1.9887 0.9403
4.5336 14.5816 1.9885 0.9403
3.9720 14.5913 1.9692 0.9408
3.4206 14.6008 1.9528 0.9413
1.9999 10.1543 1.3477 0.9591
2.3414 14.6194 1.9280 0.9420
1.2840 14.6376 1.9134 0.9425
-0.7165 36.7798 4.7904 0.8621
38.2393 13.6247 4.3591 0.8493
31.2081 13.6974 3.6597 0.8719
28.6123 13.7947 3.4109 0.8800
28.6346 15.0864 3.4755 0.8779
28.6820 17.8314 3.6266 0.8730
28.7340 20.8420 3.8117 0.8669
17.0948 14.3651 2.3977 0.9141
12.3407 11.9702 1.8461 0.9332
11.5101 11.9900 1.7847 0.9353
9.9917 12.0162 1.6781 0.9391
9.2968 12.0282 1.6324 0.9407
7.4117 12.0607 1.5201 0.9446
6.8373 12.0706 1.4897 0.9457
6.2848 12.0801 1.4622 0.9467
5.7265 12.0367 1.4313 0.9478
5.2126 12.0456 1.4094 0.9486
4.7136 12.0542 1.3898 0.9493
4.3151 12.3124 1.4010 0.9489
4.4547 14.3280 1.6112 0.9414
3.9720 14.5913 1.6239 0.9410
3.4206 14.6008 1.6103 0.9415
2.3286 14.5396 1.5812 0.9425
0.2371 14.6557 1.5740 0.9427
-0.7165 36.7799 3.9502 0.8624
-4.4603 48.9914 5.2825 0.8204
31.3144 13.7441 2.8949 0.8717
28.6119 13.7946 2.6889 0.8803
28.6342 15.0862 2.7398 0.8782
28.6574 16.4295 2.7963 0.8758
28.7069 19.2989 2.9282 0.8704
28.7335 20.8416 3.0049 0.8672
33.2737 25.9944 3.5744 0.8441
15.9293 14.3852 1.8169 0.9174
12.3462 11.9756 1.4560 0.9333
9.7410 12.6029 1.3484 0.9381
8.9166 12.4280 1.2948 0.9404
8.3438 13.5775 1.3491 0.9380
7.8563 13.8696 1.3494 0.9380
6.9178 14.5405 1.3631 0.9374
6.2969 14.5512 1.3422 0.9383
5.6941 14.5617 1.3236 0.9392
4.5336 14.5817 1.2927 0.9405
3.9720 14.5913 1.2801 0.9411
3.4206 14.6008 1.2695 0.9416
2.3527 14.6900 1.2594 0.9420
1.8194 14.6991 1.2538 0.9423
0.2371 14.6557 1.2408 0.9429
-1.2617 22.8607 1.9382 0.9122
-2.0826 22.8749 1.9444 0.9119
-5.4029 33.0368 2.8338 0.8743
40.0164 11.1163 2.5754 0.8467
35.3837 11.2026 2.3015 0.8618
34.4208 13.6657 2.2965 0.8621
31.3144 13.7441 2.1206 0.8719
28.6338 15.0860 2.0070 0.8784
28.6570 16.4293 2.0484 0.8760
28.7331 20.8413 2.2011 0.8674
32.9548 25.7452 2.5932 0.8457
17.0948 14.3651 1.3846 0.9144
13.8439 14.4212 1.2396 0.9230
12.9026 14.4374 1.2007 0.9253
12.0176 14.4527 1.1656 0.9274
8.9166 12.4280 0.9485 0.9405
8.9145 14.5062 1.0558 0.9340
7.5591 14.5295 1.0156 0.9365
6.2987 14.5555 0.9835 0.9384
4.4719 12.7598 0.8384 0.9473
4.5336 14.5817 0.9469 0.9406
3.9720 14.5913 0.9377 0.9412
2.3527 14.6900 0.9225 0.9421
0.7599 14.6467 0.9095 0.9429
-2.0826 22.8749 1.4243 0.9121
-3.5821 28.1770 1.7613 0.8924
-4.7322 28.9360 1.8182 0.8891
40.0382 11.1224 1.6385 0.8468
35.3837 11.2026 1.4635 0.8619
33.1699 11.8184 1.3885 0.8685
28.6808 17.8307 1.3316 0.8735
28.7327 20.8410 1.3996 0.8675
17.0948 14.3651 0.8805 0.9145
12.7446 12.3621 0.7001 0.9314
12.9026 14.4374 0.7635 0.9254
11.1892 14.4766 0.7215 0.9294
8.9166 12.4280 0.6031 0.9406
8.2693 12.4392 0.5890 0.9420
8.2236 14.5181 0.6579 0.9354
7.5591 14.5295 0.6458 0.9365
6.9231 14.5518 0.6354 0.9375
1.9985 10.1470 0.4078 0.9594
1.8194 14.6992 0.5840 0.9424
0.7599 14.6467 0.5783 0.9430
0.2371 14.6557 0.5780 0.9430
-0.4451 22.8467 0.9010 0.9126
-1.2617 22.8607 0.9028 0.9124
41.3711 11.4927 0.7253 0.8422
33.3196 11.8717 0.5975 0.8681
31.2065 13.6967 0.5757 0.8725
28.6108 13.7940 0.5365 0.8807
28.6331 15.0856 0.5467 0.8786
28.6804 17.8304 0.5705 0.8736
28.7057 19.2981 0.5843 0.8708
28.7323 20.8407 0.5996 0.8676
28.0966 21.9499 0.6023 0.8671
17.0948 14.3651 0.3772 0.9145
13.8439 14.4212 0.3377 0.9231
12.0176 14.4527 0.3175 0.9276
11.1945 14.4835 0.3092 0.9294
8.2236 14.5181 0.2818 0.9354
7.5591 14.5295 0.2767 0.9366
6.9266 14.5592 0.2723 0.9375
5.6941 14.5617 0.2641 0.9394
4.4709 12.7568 0.2283 0.9474
3.4206 14.6009 0.2533 0.9418
1.9981 10.1452 0.1747 0.9595
1.8194 14.6992 0.2502 0.9425
1.2902 14.7083 0.2494 0.9426
0.7599 14.6467 0.2477 0.9430
-1.7911 19.6736 0.3337 0.9240
41.3712 11.4927 -0.2418 0.8422
36.9354 11.6939 -0.2181 0.8564
34.4810 13.6896 -0.2089 0.8621
28.6104 13.7938 -0.1788 0.8807
28.6327 15.0854 -0.1822 0.8786
28.6558 16.4286 -0.1860 0.8762
28.7319 20.8404 -0.1998 0.8676
25.8560 20.1995 -0.1847 0.8770
15.9294 14.3852 -0.1208 0.9177
12.7446 12.3621 -0.1000 0.9314
13.8439 14.4212 -0.1126 0.9231
12.9027 14.4374 -0.1090 0.9255
12.0176 14.4527 -0.1058 0.9276
8.2693 12.4392 -0.0841 0.9420
8.9145 14.5062 -0.0959 0.9342
4.4704 12.7554 -0.0761 0.9474
4.5336 14.5817 -0.0860 0.9407
3.4206 14.6009 -0.0844 0.9418
1.9978 10.1434 -0.0582 0.9595
0.7599 14.6467 -0.0826 0.9430
0.2371 14.6557 -0.0825 0.9431
-0.4450 22.8467 -0.1287 0.9126
-1.2617 22.8608 -0.1289 0.9125
-1.9177 15.0847 -0.0856 0.9410
-3.6853 22.5343 -0.1286 0.9127
33.0011 11.7583 -0.9865 0.8692
33.0244 13.1113 -1.0005 0.8675
28.6100 13.7937 -0.8943 0.8806
28.6323 15.0852 -0.9113 0.8785
28.6796 17.8300 -0.9509 0.8736
24.2058 17.5575 -0.8420 0.8872
22.5116 17.5867 -0.8044 0.8920
12.9027 14.4374 -0.5452 0.9254
8.9167 12.4280 -0.4307 0.9406
7.5591 14.5295 -0.4612 0.9366
5.6941 14.5617 -0.4403 0.9394
4.4699 12.7539 -0.3805 0.9474
3.4206 14.6009 -0.4223 0.9418
1.9974 10.1416 -0.2911 0.9595
-1.7915 19.6779 -0.5564 0.9240
48.5275 -11.2722 -2.5266 0.8191
48.9007 -9.5355 -2.5267 0.8191
49.6639 -4.2621 -2.5279 0.8190
37.7415 10.4844 -1.9865 0.8548
33.0240 13.1111 -1.8019 0.8674
28.6097 13.7935 -1.6107 0.8806
28.6319 15.0850 -1.6412 0.8784
23.9531 14.8915 -1.4304 0.8932
22.1959 14.9218 -1.3564 0.8984
20.1958 15.7776 -1.2997 0.9024
12.7446 12.3621 -0.9004 0.9314
12.8080 14.3315 -0.9748 0.9259
12.0176 14.4527 -0.9532 0.9275
8.2693 12.4392 -0.7575 0.9419
7.5591 14.5296 -0.8306 0.9365
6.9200 14.5453 -0.8169 0.9375
6.2991 14.5563 -0.8044 0.9385
5.6941 14.5617 -0.7929 0.9393
4.5336 14.5817 -0.7744 0.9407
3.9721 14.5914 -0.7669 0.9412
3.4206 14.6009 -0.7605 0.9417
1.9971 10.1398 -0.5241 0.9595
2.3414 14.6195 -0.7509 0.9424
0.7599 14.6467 -0.7438 0.9430
0.2371 14.6558 -0.7434 0.9430
-0.4451 22.8467 -1.1589 0.9125
-1.7917 19.6800 -1.0022 0.9239
33.4615 -7.7726 -2.5188 0.8713
33.7185 -6.5750 -2.5189 0.8713
33.9325 -5.3689 -2.5190 0.8713
34.2298 -2.9376 -2.5190 0.8713
34.3128 -1.7154 -2.5190 0.8713
33.6651 6.8119 -2.5184 0.8713
28.0014 11.1171 -2.2090 0.8862
25.7460 11.3001 -2.0616 0.8934
21.3938 12.2652 -1.8081 0.9058
20.8544 12.9651 -1.8005 0.9062
20.1759 14.6344 -1.8275 0.9049
12.3513 11.9805 -1.2617 0.9333
11.6549 12.1408 -1.2340 0.9347
11.0008 12.3093 -1.2105 0.9359
10.2462 12.3223 -1.1750 0.9377
8.2149 12.3573 -1.0880 0.9422
7.6005 12.3679 -1.0644 0.9434
5.3687 12.4064 -0.9912 0.9472
4.8547 12.4153 -0.9774 0.9479
4.3778 12.4911 -0.9705 0.9483
4.1660 13.3994 -1.0289 0.9453
1.8107 14.6286 -1.0808 0.9426
1.2840 14.6377 -1.0774 0.9428
0.7599 14.6468 -1.0754 0.9429
0.2371 14.6558 -1.0747 0.9429
-0.4451 22.8467 -1.6755 0.9124
-1.2617 22.8608 -1.6788 0.9123
-3.1298 19.1376 -1.4219 0.9252
25.5136 -5.9264 -2.5146 0.9001
25.8724 -4.0936 -2.5148 0.9001
26.0989 -2.2398 -2.5148 0.9001
26.1621 -1.3079 -2.5148 0.9001
26.1920 -0.3744 -2.5148 0.9001
26.1884 0.5596 -2.5148 0.9001
26.1512 1.4928 -2.5147 0.9001
26.0808 2.4240 -2.5147 0.9001
25.8399 4.2759 -2.5145 0.9001
25.6698 5.1941 -2.5144 0.9001
22.8512 9.0723 -2.3604 0.9059
22.5113 9.8803 -2.3602 0.9059
20.1060 10.5931 -2.1818 0.9127
20.1392 12.5204 -2.2766 0.9091
18.7761 14.6685 -2.2875 0.9087
17.0949 14.3652 -2.1437 0.9142
12.9568 11.7008 -1.6761 0.9323
12.0785 11.7159 -1.6155 0.9346
11.2605 11.7300 -1.5610 0.9367
10.4948 11.7432 -1.5120 0.9387
9.3006 12.0331 -1.4601 0.9407
8.6975 12.1226 -1.4324 0.9418
5.7539 12.0943 -1.2858 0.9476
4.1658 13.3988 -1.3471 0.9452
3.9721 14.5914 -1.4518 0.9410
3.4206 14.6009 -1.4397 0.9415
1.9964 10.1362 -0.9918 0.9593
1.8107 14.6287 -1.4151 0.9425
0.7599 14.6468 -1.4081 0.9428
0.2371 14.6558 -1.4072 0.9428
-0.4451 22.8468 -2.1938 0.9123
-1.7921 19.6842 -1.8976 0.9236
20.5996 -4.7850 -2.5121 0.9183
20.8890 -3.3051 -2.5122 0.9183
20.9938 -2.5584 -2.5122 0.9183
21.1229 -1.0560 -2.5122 0.9183
21.1470 -0.3023 -2.5122 0.9183
21.1441 0.4518 -2.5122 0.9183
21.0574 1.9571 -2.5121 0.9183
20.7261 4.1938 -2.5119 0.9183
20.1570 6.3818 -2.5115 0.9184
19.9155 7.0959 -2.5114 0.9184
19.6486 7.8008 -2.5112 0.9184
18.9601 8.3217 -2.4596 0.9200
17.8801 8.6205 -2.3579 0.9232
17.2176 9.8710 -2.3575 0.9232
16.7726 10.4274 -2.3460 0.9235
15.1635 11.8462 -2.2857 0.9254
11.7690 11.4158 -1.9476 0.9361
10.9720 11.4295 -1.8820 0.9382
8.9234 11.5451 -1.7333 0.9429
8.4506 11.7785 -1.7220 0.9433
7.8371 11.7890 -1.6816 0.9446
5.6268 11.8271 -1.5558 0.9486
5.1218 11.8358 -1.5319 0.9494
4.1806 11.9287 -1.5015 0.9504
1.9960 10.1344 -1.2269 0.9592
2.3527 14.6900 -1.7672 0.9418
1.8194 14.6992 -1.7594 0.9421
1.2902 14.7083 -1.7539 0.9423
0.7599 14.6468 -1.7422 0.9426
0.2371 14.6558 -1.7411 0.9427
-0.3734 19.1695 -2.2775 0.9257
-1.7379 19.0883 -2.2768 0.9257
17.6961 -0.8847 -2.5105 0.9309
17.7139 0.3785 -2.5104 0.9309
17.6413 1.6396 -2.5104 0.9309
17.4788 2.8924 -2.5102 0.9309
17.2272 4.1301 -2.5101 0.9309
17.0683 4.7414 -2.5100 0.9309
16.8876 5.3467 -2.5099 0.9309
16.4620 6.5357 -2.5096 0.9309
16.2177 7.1180 -2.5095 0.9309
14.1209 8.7789 -2.3559 0.9350
13.7980 9.2760 -2.3557 0.9350
13.0998 10.2339 -2.3554 0.9350
12.3651 10.3907 -2.2885 0.9368
11.9640 10.8043 -2.2841 0.9369
10.7139 11.1606 -2.1920 0.9394
7.0652 11.4968 -1.9120 0.9469
4.9906 11.5326 -1.7805 0.9505
4.1382 11.8076 -1.7728 0.9507
3.9721 14.5914 -2.1427 0.9407
3.4206 14.6009 -2.1248 0.9412
1.9956 10.1325 -1.4632 0.9591
2.3414 14.6195 -2.0978 0.9419
1.8107 14.6287 -2.0885 0.9422
1.2840 14.6377 -2.0820 0.9424
-0.3131 16.0718 -2.2776 0.9371
-1.4571 16.0045 -2.2770 0.9371
14.8357 -3.4461 -2.5091 0.9401
14.9494 -2.9151 -2.5091 0.9401
15.1194 -1.8425 -2.5092 0.9401
15.1755 -1.3024 -2.5092 0.9401
15.2277 0.3253 -2.5092 0.9401
15.2062 0.8680 -2.5091 0.9401
15.1654 1.4095 -2.5091 0.9401
15.0258 2.4864 -2.5090 0.9401
14.9272 3.0204 -2.5089 0.9401
14.8096 3.5505 -2.5088 0.9401
14.5179 4.5964 -2.5087 0.9401
13.7145 6.6121 -2.5082 0.9401
13.4693 7.0964 -2.5080 0.9401
13.2069 7.5716 -2.5079 0.9402
12.9280 8.0371 -2.5077 0.9402
12.3041 8.2717 -2.4424 0.9417
10.2564 9.9485 -2.3539 0.9437
9.8944 10.3070 -2.3537 0.9437
9.2629 10.3647 -2.2900 0.9452
8.8585 10.6535 -2.2825 0.9454
7.8839 10.9886 -2.2280 0.9466
6.8990 11.2264 -2.1707 0.9480
6.3643 11.2356 -2.1273 0.9490
5.3537 11.2530 -2.0529 0.9507
4.4067 11.2693 -1.9934 0.9521
4.1380 11.8071 -2.0611 0.9505
4.1090 13.2160 -2.2800 0.9454
3.6348 13.3526 -2.2797 0.9454
3.1562 13.4722 -2.2795 0.9455
2.1877 13.6599 -2.2790 0.9455
1.6992 13.7277 -2.2787 0.9455
1.2086 13.7779 -2.2785 0.9455
0.7165 13.8107 -2.2782 0.9455
0.2237 13.8260 -2.2780 0.9455
-1.7431 13.7113 -2.2770 0.9455
-2.2305 13.6390 -2.2767 0.9455
13.0974 -2.5539 -2.5082 0.9471
13.3278 -0.6663 -2.5082 0.9471
13.3412 0.2850 -2.5082 0.9471
13.2867 1.2349 -2.5081 0.9471
13.2340 1.7078 -2.5081 0.9471
13.1645 2.1784 -2.5080 0.9471
13.0781 2.6463 -2.5080 0.9471
12.9751 3.1108 -2.5079 0.9471
12.7197 4.0271 -2.5078 0.9471
12.5676 4.4778 -2.5077 0.9471
12.3995 4.9228 -2.5076 0.9471
12.2155 5.3614 -2.5075 0.9472
12.0161 5.7933 -2.5073 0.9472
11.8013 6.2177 -2.5072 0.9472
11.0682 7.4409 -2.5068 0.9472
10.7952 7.8302 -2.5066 0.9472
9.8266 8.2575 -2.4126 0.9491
9.2926 8.3918 -2.3535 0.9503
8.6699 9.0313 -2.3531 0.9503
8.3417 9.3339 -2.3529 0.9503
7.6542 9.9030 -2.3526 0.9503
7.2957 10.1688 -2.3524 0.9503
5.2095 10.9500 -2.2792 0.9518
4.7420 10.9580 -2.2443 0.9526
3.6010 11.5821 -2.2798 0.9518
3.1855 11.7021 -2.2796 0.9518
2.3314 9.9516 -1.9211 0.9593
1.9174 11.9718 -2.2789 0.9519
1.4892 12.0314 -2.2787 0.9519
-0.6678 12.0989 -2.2776 0.9519
-1.0985 12.0662 -2.2774 0.9519
-1.5278 12.0182 -2.2771 0.9519
-1.9551 11.9550 -2.2769 0.9519
11.5544 -2.6839 -2.5074 0.9527
11.8189 -1.0143 -2.5075 0.9527
11.8611 -0.1696 -2.5075 0.9527
11.8596 0.2534 -2.5074 0.9527
11.8429 0.6760 -2.5074 0.9527
4.6898 0.6052 -0.9996 0.9809
4.5331 0.7501 -0.9712 0.9814
4.4535 1.4100 -0.9874 0.9811
10.6820 5.1501 -2.5067 0.9527
9.8396 6.6149 -2.5062 0.9527
9.5970 6.9611 -2.5061 0.9527
9.3422 7.2984 -2.5059 0.9527
9.0755 7.6263 -2.5058 0.9527
7.9119 8.2418 -2.4150 0.9544
7.4161 8.2983 -2.3525 0.9555
6.4864 9.0407 -2.3520 0.9555
6.1595 9.2655 -2.3518 0.9555
5.8248 9.4785 -2.3516 0.9555
5.4828 9.6794 -2.3515 0.9555
5.1338 9.8679 -2.3513 0.9555
4.0359 10.3211 -2.3425 0.9557
3.6160 10.3176 -2.3110 0.9563
3.2068 10.3142 -2.2832 0.9568
2.3224 9.9132 -2.1522 0.9592
0.9419 10.7377 -2.2784 0.9569
0.1744 10.7756 -2.2781 0.9569
-0.5938 10.7588 -2.2777 0.9569
-0.9769 10.7299 -2.2775 0.9569
-1.7386 10.6312 -2.2771 0.9569
10.3895 -2.4133 -2.5068 0.9571
10.4690 -2.0414 -2.5068 0.9571
10.5352 -1.6669 -2.5068 0.9571
10.6273 -0.9120 -2.5068 0.9571
10.6531 -0.5326 -2.5068 0.9571
10.6489 0.6078 -2.5068 0.9571
5.0250 0.4671 -1.1861 0.9795
4.1497 0.6867 -0.9885 0.9829
4.0870 0.9798 -0.9878 0.9829
4.0581 1.1273 -0.9899 0.9828
4.1160 1.4665 -1.0269 0.9822
9.7647 4.2858 -2.5062 0.9571
9.6053 4.6310 -2.5061 0.9571
9.4338 4.9702 -2.5060 0.9571
8.8480 5.9483 -2.5057 0.9571
8.6299 6.2596 -2.5056 0.9571
8.4008 6.5629 -2.5055 0.9571
7.3810 7.6887 -2.5049 0.9572
7.1018 7.9465 -2.5047 0.9572
6.3566 8.2241 -2.4429 0.9582
4.2973 9.0326 -2.3509 0.9597
3.9723 9.1794 -2.3507 0.9597
3.6422 9.3145 -2.3505 0.9597
3.3077 9.4377 -2.3504 0.9597
1.9319 9.8090 -2.3496 0.9598
1.5809 9.8709 -2.3495 0.9598
1.2279 9.9202 -2.3493 0.9598
0.8734 9.9569 -2.3491 0.9598
0.5179 9.9809 -2.3489 0.9598
-0.1950 10.0087 -2.3527 0.9597
9.4288 -2.1902 -2.5063 0.9608
9.5010 -1.8526 -2.5063 0.9608
9.5610 -1.5128 -2.5063 0.9608
9.6090 -1.1710 -2.5063 0.9608
4.5012 0.4184 -1.1705 0.9815
3.9898 0.5149 -1.0416 0.9835
3.8147 1.0597 -1.0251 0.9838
3.7872 1.1990 -1.0285 0.9837
3.7905 1.3505 -1.0419 0.9835
8.9952 3.5712 -2.5059 0.9608
8.7173 4.2029 -2.5057 0.9608
8.3951 4.8130 -2.5055 0.9608
8.2179 5.1090 -2.5054 0.9608
7.6244 5.9564 -2.5051 0.9608
7.4068 6.2241 -2.5050 0.9608
7.1799 6.4839 -2.5048 0.9608
6.4456 7.2122 -2.5044 0.9608
6.1840 7.4370 -2.5043 0.9608
5.9146 7.6523 -2.5041 0.9608
5.6377 7.8578 -2.5040 0.9608
4.6508 8.2104 -2.4432 0.9618
3.9136 8.2262 -2.3587 0.9631
3.3059 8.4543 -2.3504 0.9632
3.0022 8.5662 -2.3502 0.9632
2.6948 8.6672 -2.3501 0.9632
2.3838 8.7572 -2.3499 0.9632
1.1146 9.0046 -2.3492 0.9632
0.7928 9.0380 -2.3491 0.9632
0.4701 9.0598 -2.3489 0.9632
-0.1768 9.0759 -2.3503 0.9632
-0.8235 9.0459 -2.3518 0.9632
-1.4743 9.0149 -2.3651 0.9630
8.6881 -1.6942 -2.5059 0.9639
8.7431 -1.3833 -2.5059 0.9639
8.7869 -1.0708 -2.5059 0.9639
8.8409 -0.4420 -2.5059 0.9639
8.8374 0.5045 -2.5059 0.9639
3.7765 0.4873 -1.0780 0.9843
3.6979 0.6119 -1.0611 0.9845
3.6562 0.8766 -1.0644 0.9845
3.6331 1.0093 -1.0675 0.9844
3.5813 1.2760 -1.0763 0.9843
8.1039 3.5568 -2.5054 0.9639
7.6771 4.4013 -2.5052 0.9639
7.5150 4.6720 -2.5051 0.9639
7.1625 5.1952 -2.5049 0.9639
6.9724 5.4470 -2.5048 0.9639
6.3501 6.1595 -2.5044 0.9639
5.8945 6.5956 -2.5042 0.9639
5.4090 6.9981 -2.5039 0.9639
5.1558 7.1861 -2.5038 0.9639
4.3583 7.6942 -2.5033 0.9639
4.0810 7.8442 -2.5032 0.9639
2.5483 8.1962 -2.4298 0.9649
2.2317 8.1982 -2.4053 0.9653
1.6152 8.2005 -2.3661 0.9659
1.3146 8.2094 -2.3536 0.9660
1.0194 8.2356 -2.3492 0.9661
-1.0747 8.4537 -2.4124 0.9652
7.9954 -1.5591 -2.5055 0.9665
8.1452 -0.1164 -2.5055 0.9665
6.0557 0.3457 -1.8656 0.9749
3.5413 0.5860 -1.1040 0.9851
7.3362 3.5370 -2.5050 0.9665
7.2052 3.7962 -2.5049 0.9665
7.0651 4.0504 -2.5049 0.9665
6.5915 4.7811 -2.5046 0.9665
6.4167 5.0128 -2.5045 0.9665
6.2336 5.2382 -2.5044 0.9665
6.0427 5.4569 -2.5043 0.9665
5.8440 5.6686 -2.5042 0.9665
5.6380 5.8730 -2.5041 0.9665
4.9780 6.4405 -2.5037 0.9665
4.5060 6.7782 -2.5035 0.9665
4.2613 6.9341 -2.5033 0.9665
4.0111 7.0812 -2.5032 0.9665
3.7559 7.2194 -2.5031 0.9665
3.4960 7.3483 -2.5029 0.9665
2.9632 7.5779 -2.5026 0.9665
2.6910 7.6782 -2.5025 0.9665
1.5718 7.9809 -2.5019 0.9665
1.2863 8.0314 -2.5018 0.9665
0.7107 8.1016 -2.5015 0.9665
0.4214 8.1214 -2.5013 0.9665
0.1316 8.1307 -2.5012 0.9665
-0.7372 8.0969 -2.5007 0.9665
-1.0256 8.0675 -2.5014 0.9665
-1.3139 8.0342 -2.5040 0.9665
7.3973 -1.4425 -2.5052 0.9687
7.4813 -0.9117 -2.5052 0.9687
7.5091 -0.6444 -2.5052 0.9687
7.5349 0.1610 -2.5052 0.9687
5.8877 0.3361 -1.9603 0.9754
3.4603 0.4465 -1.1598 0.9854
3.4071 0.5638 -1.1479 0.9855
3.3602 0.8056 -1.1486 0.9855
3.3381 0.9273 -1.1516 0.9855
3.3149 1.0496 -1.1558 0.9855
3.2955 1.1742 -1.1629 0.9854
3.2821 1.3030 -1.1738 0.9852
3.2945 1.4460 -1.1960 0.9849
6.5367 3.7475 -2.5046 0.9687
6.2527 4.2035 -2.5044 0.9687
5.9369 4.6380 -2.5043 0.9687
5.7675 4.8466 -2.5042 0.9687
5.4071 5.2448 -2.5040 0.9687
5.2165 5.4339 -2.5039 0.9687
4.8156 5.7913 -2.5036 0.9688
4.1692 6.2715 -2.5033 0.9688
3.9428 6.4158 -2.5032 0.9688
3.4752 6.6798 -2.5029 0.9688
3.2347 6.7991 -2.5028 0.9688
2.7417 7.0116 -2.5025 0.9688
2.2350 7.1883 -2.5023 0.9688
1.9772 7.2631 -2.5021 0.9688
1.4545 7.3847 -2.5019 0.9688
1.1902 7.4314 -2.5017 0.9688
0.6576 7.4965 -2.5015 0.9688
-0.6821 7.4922 -2.5008 0.9688
-1.2164 7.4379 -2.5053 0.9687
6.8752 -1.3406 -2.5049 0.9707
6.9187 -1.0947 -2.5049 0.9707
6.9533 -0.8474 -2.5050 0.9707
6.9791 -0.5990 -2.5050 0.9707
7.0032 0.1496 -2.5050 0.9707
5.8201 0.3322 -2.0847 0.9755
3.4371 0.3195 -1.2344 0.9854
3.3323 0.4300 -1.2016 0.9858
3.2984 0.5458 -1.1956 0.9859
3.2731 0.6623 -1.1942 0.9859
3.2576 0.7810 -1.1980 0.9859
3.2403 0.9001 -1.2026 0.9858
3.2189 1.0191 -1.2074 0.9858
3.1954 1.1385 -1.2131 0.9857
3.1743 1.2603 -1.2214 0.9856
3.1553 1.3849 -1.2323 0.9855
6.3086 3.0415 -2.5045 0.9707
6.0755 3.4831 -2.5044 0.9707
5.5180 4.3108 -2.5041 0.9707
5.1964 4.6927 -2.5039 0.9707
5.0256 4.8748 -2.5038 0.9707
4.8485 5.0506 -2.5037 0.9707
4.6652 5.2201 -2.5036 0.9707
4.2810 5.5387 -2.5034 0.9707
4.0807 5.6876 -2.5033 0.9707
3.8751 5.8292 -2.5032 0.9707
3.4496 6.0900 -2.5029 0.9707
2.5485 6.5172 -2.5025 0.9707
2.3144 6.6036 -2.5023 0.9707
1.8378 6.7511 -2.5021 0.9707
1.3519 6.8641 -2.5018 0.9707
1.1063 6.9077 -2.5017 0.9707
0.6112 6.9682 -2.5014 0.9707
0.1132 6.9933 -2.5012 0.9707
-0.3854 6.9829 -2.5009 0.9707
-0.6340 6.9644 -2.5008 0.9707
-1.1312 6.9169 -2.5064 0.9707
6.3664 -1.4788 -2.5047 0.9724
6.4557 -1.0215 -2.5047 0.9724
6.5345 0.1396 -2.5047 0.9724
3.8252 0.2184 -1.4683 0.9837
3.3239 0.3089 -1.2793 0.9858
3.1999 0.6475 -1.2511 0.9861
3.1699 0.8806 -1.2608 0.9860
3.1583 0.9999 -1.2695 0.9859
5.7814 3.0460 -2.5042 0.9724
5.6690 3.2501 -2.5042 0.9724
5.5494 3.4500 -2.5041 0.9724
5.4227 3.6455 -2.5040 0.9724
5.2892 3.8364 -2.5040 0.9724
5.1489 4.0224 -2.5039 0.9724
4.8488 4.3788 -2.5037 0.9724
4.6895 4.5487 -2.5036 0.9724
4.3532 4.8709 -2.5034 0.9724
4.1766 5.0228 -2.5033 0.9724
3.9947 5.1683 -2.5032 0.9724
3.8078 5.3072 -2.5031 0.9724
3.6160 5.4394 -2.5030 0.9724
3.2190 5.6827 -2.5028 0.9724
3.0142 5.7936 -2.5027 0.9724
2.8056 5.8971 -2.5026 0.9724
2.5935 5.9931 -2.5025 0.9724
2.3781 6.0815 -2.5024 0.9724
2.1597 6.1621 -2.5023 0.9724
1.9385 6.2349 -2.5022 0.9724
1.7149 6.2997 -2.5020 0.9724
1.4892 6.3566 -2.5019 0.9724
1.2616 6.4054 -2.5018 0.9724
0.8019 6.4783 -2.5016 0.9724
0.3382 6.5184 -2.5013 0.9724
0.1056 6.5260 -2.5012 0.9724
-0.1271 6.5253 -2.5011 0.9724
-0.3596 6.5163 -2.5010 0.9724
-1.0562 6.4585 -2.5079 0.9724
5.9606 -1.3846 -2.5045 0.9739
6.0062 -1.1712 -2.5045 0.9739
6.0970 -0.5232 -2.5045 0.9739
6.1180 0.1307 -2.5045 0.9739
3.2506 0.3021 -1.3361 0.9860
3.1891 0.5277 -1.3230 0.9861
3.1742 0.6423 -1.3254 0.9861
3.1597 0.7575 -1.3298 0.9861
3.1467 0.8741 -1.3366 0.9860
3.1340 0.9922 -1.3454 0.9859
3.1094 1.2345 -1.3692 0.9856
4.8207 3.7661 -2.5037 0.9739
4.6833 3.9354 -2.5036 0.9739
4.5399 4.0998 -2.5036 0.9739
4.3907 4.2589 -2.5035 0.9739
3.5652 4.9691 -2.5030 0.9739
3.0139 5.3207 -2.5027 0.9739
2.6269 5.5215 -2.5025 0.9739
2.2266 5.6942 -2.5023 0.9739
2.0221 5.7697 -2.5022 0.9739
1.6057 5.8986 -2.5020 0.9739
1.1812 5.9975 -2.5018 0.9739
0.9666 6.0355 -2.5017 0.9739
0.3167 6.1034 -2.5013 0.9739
-0.1190 6.1099 -2.5011 0.9739
-0.3367 6.1015 -2.5010 0.9739
-0.5541 6.0863 -2.5013 0.9739
5.5972 -1.3001 -2.5043 0.9752
5.6400 -1.0998 -2.5043 0.9752
5.6756 -0.8980 -2.5043 0.9752
5.7041 -0.6951 -2.5043 0.9752
5.7252 -0.4913 -2.5043 0.9752
5.7391 -0.2869 -2.5043 0.9752
5.7457 -0.0821 -2.5043 0.9752
3.1708 0.4092 -1.3933 0.9861
3.1488 0.6371 -1.4001 0.9861
3.0839 1.2243 -1.4461 0.9856
3.0763 1.4832 -1.4884 0.9852
4.9841 2.8574 -2.5038 0.9752
4.8790 3.0332 -2.5038 0.9752
4.7676 3.2051 -2.5037 0.9752
4.6502 3.3730 -2.5036 0.9752
4.5269 3.5365 -2.5036 0.9752
4.1231 3.9993 -2.5033 0.9752
3.9778 4.1436 -2.5033 0.9752
3.8274 4.2826 -2.5032 0.9752
2.6502 5.0941 -2.5026 0.9753
2.4668 5.1851 -2.5025 0.9753
1.5079 5.5393 -2.5020 0.9753
0.9078 5.6679 -2.5016 0.9753
0.7051 5.6964 -2.5015 0.9753
0.5016 5.7177 -2.5014 0.9753
0.2974 5.7317 -2.5013 0.9753
-0.3162 5.7299 -2.5010 0.9753
-0.7248 5.7015 -2.5048 0.9752
-0.9300 5.6869 -2.5114 0.9752
5.3434 -0.8455 -2.5041 0.9764
5.4031 -0.2701 -2.5041 0.9764
5.4093 -0.0773 -2.5041 0.9764
3.3094 0.1889 -1.5344 0.9855
3.1486 0.4063 -1.4695 0.9861
3.1374 0.5192 -1.4720 0.9861
3.1252 0.6324 -1.4759 0.9860
3.0971 0.8604 -1.4879 0.9859
3.0613 1.2154 -1.5246 0.9856
3.0392 1.4653 -1.5618 0.9852
4.7854 2.5213 -2.5037 0.9764
4.6924 2.6902 -2.5037 0.9764
4.5934 2.8557 -2.5036 0.9764
4.2620 3.3296 -2.5034 0.9764
4.1404 3.4793 -2.5034 0.9764
3.8818 3.7652 -2.5032 0.9764
3.7450 3.9011 -2.5032 0.9764
3.4573 4.1578 -2.5030 0.9764
2.9933 4.5027 -2.5028 0.9764
2.8308 4.6064 -2.5027 0.9765
2.6647 4.7042 -2.5026 0.9765
2.4952 4.7961 -2.5025 0.9765
2.1470 4.9612 -2.5023 0.9765
1.9686 5.0345 -2.5022 0.9765
1.7879 5.1012 -2.5021 0.9765
1.4197 5.2153 -2.5019 0.9765
1.2328 5.2623 -2.5018 0.9765
0.8547 5.3364 -2.5016 0.9765
0.6639 5.3633 -2.5015 0.9765
0.4722 5.3833 -2.5014 0.9765
0.2800 5.3965 -2.5013 0.9765
-0.4901 5.3835 -2.5023 0.9765
-0.8764 5.3590 -2.5135 0.9763
5.0103 -0.9770 -2.5040 0.9775
5.0420 -0.7978 -2.5040 0.9775
5.0672 -0.6176 -2.5040 0.9775
5.0860 -0.4364 -2.5040 0.9775
5.0984 -0.2549 -2.5040 0.9775
5.1042 -0.0730 -2.5040 0.9775
5.1036 0.1090 -2.5040 0.9775
3.2538 0.1857 -1.5986 0.9856
3.1632 0.2940 -1.5583 0.9859
3.1279 0.4036 -1.5470 0.9860
3.1024 0.6278 -1.5527 0.9860
3.0869 0.7401 -1.5571 0.9860
3.0589 0.9685 -1.5739 0.9858
3.0259 1.3281 -1.6209 0.9854
3.0144 1.4533 -1.6415 0.9852
3.1355 1.6520 -1.7385 0.9843
4.4278 2.5385 -2.5036 0.9775
4.2355 2.8474 -2.5034 0.9775
4.1312 2.9965 -2.5034 0.9775
4.0216 3.1418 -2.5033 0.9775
3.9070 3.2831 -2.5033 0.9775
3.6629 3.5529 -2.5031 0.9775
3.5338 3.6812 -2.5031 0.9775
3.4002 3.8047 -2.5030 0.9775
3.2624 3.9234 -2.5029 0.9775
3.1203 4.0370 -2.5028 0.9775
2.9743 4.1456 -2.5028 0.9775
2.8246 4.2488 -2.5027 0.9775
2.6712 4.3467 -2.5026 0.9775
2.5145 4.4390 -2.5025 0.9775
1.8577 4.7507 -2.5022 0.9775
1.3397 4.9214 -2.5019 0.9775
1.1634 4.9658 -2.5018 0.9775
0.9855 5.0039 -2.5017 0.9775
0.2642 5.0925 -2.5013 0.9775
-0.2810 5.0914 -2.5013 0.9775
4.7371 -0.9237 -2.5038 0.9785
4.7910 -0.5838 -2.5038 0.9785
4.8087 -0.4127 -2.5038 0.9785
3.2348 0.1846 -1.6809 0.9855
3.1389 0.2918 -1.6354 0.9859
3.1068 0.4009 -1.6251 0.9860
3.0939 0.5120 -1.6269 0.9860
3.0649 0.7348 -1.6351 0.9859
3.0372 0.9616 -1.6527 0.9857
3.0164 1.1976 -1.6837 0.9855
3.0040 1.3185 -1.7019 0.9853
2.9985 1.4456 -1.7269 0.9851
4.1864 2.4001 -2.5034 0.9785
4.0981 2.5478 -2.5034 0.9785
3.9060 2.8332 -2.5033 0.9785
3.5809 3.2337 -2.5031 0.9785
3.3412 3.4805 -2.5030 0.9785
2.9503 3.8171 -2.5028 0.9785
2.6706 4.0173 -2.5026 0.9785
2.5257 4.1099 -2.5025 0.9785
2.3775 4.1971 -2.5024 0.9785
2.2262 4.2791 -2.5024 0.9785
1.7565 4.4919 -2.5021 0.9785
1.5952 4.5515 -2.5020 0.9785
0.4213 4.8033 -2.5014 0.9785
0.2498 4.8151 -2.5013 0.9785
-0.2657 4.8145 -2.5015 0.9785
-0.4376 4.8066 -2.5039 0.9785
-0.6100 4.7982 -2.5093 0.9784
4.4868 -0.8749 -2.5037 0.9794
4.5151 -0.7144 -2.5037 0.9794
4.5377 -0.5530 -2.5037 0.9794
4.5708 -0.0654 -2.5037 0.9794
4.5703 0.0977 -2.5037 0.9794
3.2187 0.1837 -1.7658 0.9854
3.0852 0.3981 -1.7038 0.9859
3.0723 0.5084 -1.7056 0.9859
3.0586 0.6189 -1.7092 0.9859
3.0158 0.9548 -1.7326 0.9857
2.9824 1.4379 -1.8134 0.9850
3.8815 2.4131 -2.5033 0.9794
3.7930 2.5499 -2.5032 0.9794
3.6015 2.8136 -2.5031 0.9794
3.3917 3.0629 -2.5030 0.9794
3.2803 3.1818 -2.5029 0.9794
3.0451 3.4072 -2.5028 0.9794
2.9216 3.5135 -2.5027 0.9794
2.5295 3.8051 -2.5025 0.9794
2.3922 3.8927 -2.5025 0.9794
2.2518 3.9754 -2.5024 0.9794
1.9627 4.1255 -2.5022 0.9794
1.8144 4.1927 -2.5022 0.9794
1.6637 4.2546 -2.5021 0.9794
1.3562 4.3621 -2.5019 0.9794
1.0419 4.4473 -2.5018 0.9794
0.7223 4.5099 -2.5016 0.9794
0.3991 4.5496 -2.5014 0.9794
0.0739 4.5662 -2.5013 0.9794
-0.0889 4.5658 -2.5012 0.9794
-0.2517 4.5611 -2.5019 0.9794
-0.4147 4.5547 -2.5049 0.9794
-0.5783 4.5487 -2.5114 0.9793
-0.7407 4.5293 -2.5137 0.9793
4.2831 -0.6777 -2.5036 0.9802
4.3205 -0.3708 -2.5036 0.9802
4.3309 -0.2165 -2.5036 0.9802
3.0937 0.2876 -1.7939 0.9858
3.0698 0.3962 -1.7870 0.9858
3.0505 0.5048 -1.7852 0.9858
2.9942 0.9480 -1.8132 0.9856
2.9722 1.1800 -1.8463 0.9853
3.7614 2.1564 -2.5032 0.9802
3.6821 2.2891 -2.5032 0.9802
3.5981 2.4189 -2.5031 0.9802
3.5095 2.5456 -2.5031 0.9802
3.3190 2.7890 -2.5030 0.9802
2.7715 3.3330 -2.5027 0.9802
2.5268 3.5218 -2.5025 0.9802
2.1362 3.7712 -2.5023 0.9802
1.1382 4.1811 -2.5018 0.9802
0.9884 4.2189 -2.5017 0.9802
0.8373 4.2513 -2.5017 0.9802
0.3786 4.3160 -2.5014 0.9802
0.2245 4.3266 -2.5013 0.9802
0.0701 4.3317 -2.5013 0.9802
-0.2388 4.3278 -2.5025 0.9802
-0.5489 4.3176 -2.5128 0.9801
-0.7024 4.2949 -2.5126 0.9801
