ply
format ascii 1.0
element vertex 1192
property float32 x
property float32 y
property float32 z
property float32 I
end_header
35.5308 -18.0482 7.0270 0.8506
35.6135 -16.5024 6.9210 0.8526
37.8212 -15.8947 7.2339 0.8465
37.7248 -14.2762 7.1123 0.8489
37.7454 -12.7476 7.0248 0.8506
37.7657 -11.2544 6.9485 0.8521
40.7724 -7.4785 7.3092 0.8450
40.8508 -4.4810 7.2463 0.8463
40.9659 -0.0424 7.2234 0.8467
41.0005 1.4372 7.2339 0.8465
19.9171 2.8730 3.5483 0.9215
38.6393 7.0046 6.9242 0.8526
38.4074 8.4037 6.9325 0.8524
38.2542 9.8284 6.9643 0.8518
38.2759 12.8387 7.1186 0.8488
22.7842 9.5199 4.3541 0.9046
21.5290 10.8799 4.2534 0.9067
20.9248 11.5402 4.2135 0.9075
12.6472 9.5805 2.7977 0.9376
11.9586 9.7572 2.7215 0.9392
10.3582 11.2957 2.7024 0.9396
9.6528 12.1845 2.7410 0.9388
9.6767 13.1635 2.8808 0.9358
9.1820 13.4839 2.8765 0.9359
8.4962 13.4989 2.8124 0.9373
8.2587 15.4979 3.0965 0.9312
8.3405 18.8046 3.6273 0.9198
8.3932 20.9293 3.9761 0.9125
2.4924 12.2312 2.2010 0.9506
1.1526 12.3851 2.1933 0.9507
0.7038 12.3948 2.1891 0.9508
0.1764 8.5401 1.5062 0.9659
-0.6404 12.4238 2.1936 0.9507
-1.0806 12.3085 2.1787 0.9511
-1.7466 10.8423 1.9364 0.9564
-2.2749 9.6346 1.7456 0.9606
-2.6473 9.6426 1.7632 0.9602
-3.4178 9.6592 1.8067 0.9592
-4.8939 12.3905 2.3490 0.9473
40.6283 -22.5166 7.1160 0.8286
42.7232 -17.9547 7.0994 0.8290
42.6278 -16.1316 6.9823 0.8316
42.6513 -14.4045 6.8965 0.8335
42.6745 -12.7172 6.8216 0.8351
44.9742 -9.9381 7.0560 0.8300
44.9417 -6.5778 6.9582 0.8321
44.9844 -4.9345 6.9327 0.8327
29.4832 -2.1615 4.5288 0.8872
45.0698 -1.6732 6.9092 0.8332
43.2707 11.1173 6.8441 0.8346
43.2033 12.7776 6.9019 0.8333
43.2156 14.4956 6.9829 0.8316
43.2284 16.2568 7.0752 0.8295
22.7871 9.5211 3.7833 0.9049
21.4956 9.9066 3.6259 0.9087
14.9203 9.6934 2.7257 0.9305
13.9909 9.8248 2.6190 0.9332
12.9984 9.8466 2.4981 0.9361
11.9598 9.7582 2.3647 0.9394
11.8762 11.2093 2.5018 0.9361
11.4366 11.6024 2.4958 0.9362
10.6551 11.6195 2.4152 0.9382
9.6455 12.1752 2.3796 0.9391
9.6690 13.1530 2.5008 0.9361
8.4967 13.4997 2.4436 0.9375
4.3854 12.1907 1.9847 0.9489
3.4214 12.2117 1.9428 0.9500
2.9533 12.2218 1.9262 0.9504
2.4925 12.2318 1.9124 0.9507
1.6038 12.3760 1.9118 0.9508
1.1527 12.3858 1.9056 0.9509
-1.0807 12.3091 1.8929 0.9512
-1.5310 12.3188 1.9017 0.9510
-1.7509 10.8692 1.6866 0.9564
-2.6475 9.6432 1.5319 0.9603
-3.0280 9.6513 1.5496 0.9599
-3.4180 9.6597 1.5697 0.9594
-4.8941 12.3912 2.0410 0.9475
29.5422 -2.1658 3.8573 0.8874
19.8983 2.8703 2.6180 0.9221
25.1816 9.4699 3.5034 0.8972
21.5068 10.8687 3.1380 0.9074
16.3046 9.7752 2.4756 0.9262
15.0871 9.8018 2.3429 0.9300
13.9921 9.8257 2.2264 0.9334
11.6730 10.2472 2.0227 0.9393
11.8686 11.2022 2.1252 0.9363
11.4374 11.6032 2.1216 0.9364
9.6382 12.1661 2.0212 0.9393
9.6613 13.1426 2.1241 0.9363
9.2730 13.6175 2.1454 0.9357
8.4973 13.5005 2.0773 0.9377
8.2106 14.1530 2.1307 0.9361
8.3395 17.1093 2.4786 0.9261
8.3714 20.8749 2.9288 0.9133
3.4216 12.2123 1.6515 0.9501
1.6039 12.3766 1.6252 0.9509
1.1527 12.3864 1.6199 0.9511
-0.6404 12.4251 1.6202 0.9511
-1.0807 12.3098 1.6092 0.9514
-1.5310 12.3195 1.6166 0.9512
-1.7553 10.8962 1.4372 0.9565
-2.6476 9.6437 1.3023 0.9605
-3.4181 9.6603 1.3344 0.9595
-3.8189 9.6689 1.3537 0.9589
-4.2320 9.6778 1.3755 0.9583
-4.6592 9.6869 1.3998 0.9576
29.5288 -2.1649 3.1794 0.8877
19.8889 2.8690 2.1578 0.9223
22.7929 9.5235 2.6526 0.9054
21.4740 9.8966 2.5390 0.9093
20.6758 11.4029 2.5355 0.9094
16.3062 9.7761 2.0416 0.9264
15.0885 9.8027 1.9321 0.9302
13.0005 9.8482 1.7514 0.9365
11.6658 10.2409 1.6669 0.9395
11.8611 11.1950 1.7514 0.9365
10.6566 11.6211 1.6931 0.9385
9.9229 11.6371 1.6422 0.9403
9.6310 12.1570 1.6655 0.9395
9.2736 13.6184 1.7692 0.9359
8.2029 14.1397 1.7554 0.9364
8.3400 17.1103 2.0440 0.9263
3.4217 12.2130 1.3620 0.9503
2.9536 12.2231 1.3503 0.9507
1.0987 11.8062 1.2732 0.9534
0.6710 11.8154 1.2708 0.9535
-0.1805 11.7038 1.2569 0.9540
-0.6405 12.4258 1.3361 0.9512
-1.0808 12.3104 1.3270 0.9515
-1.5311 12.3201 1.3331 0.9513
-1.7596 10.9230 1.1881 0.9565
-1.9096 9.6283 1.0540 0.9613
-2.6478 9.6442 1.0739 0.9606
-3.0283 9.6524 1.0863 0.9601
-3.4183 9.6608 1.1004 0.9596
-4.2322 9.6783 1.1343 0.9584
-4.6594 9.6875 1.1543 0.9577
26.3612 9.9136 2.3841 0.8931
22.7957 9.5246 2.0914 0.9056
21.4633 9.8917 2.0006 0.9095
21.4849 10.8576 2.0378 0.9079
15.0898 9.8035 1.5233 0.9303
13.9945 9.8274 1.4476 0.9337
13.0016 9.8490 1.3808 0.9366
11.9627 9.7605 1.3070 0.9399
10.3778 9.7950 1.2080 0.9443
9.6703 9.8104 1.1661 0.9462
9.5851 10.4527 1.2006 0.9447
9.6036 11.2627 1.2530 0.9423
9.6462 13.1220 1.3787 0.9367
9.1843 13.4872 1.3813 0.9366
8.4983 13.5021 1.3505 0.9380
7.8645 14.7583 1.4156 0.9351
8.4309 19.0085 1.7603 0.9199
3.4219 12.2136 1.0737 0.9504
2.9537 12.2238 1.0646 0.9508
2.4929 12.2337 1.0569 0.9511
2.0380 12.2436 1.0507 0.9514
1.0988 11.8068 1.0038 0.9535
0.6710 11.8160 1.0019 0.9536
-0.1805 11.7044 0.9909 0.9541
-1.9058 9.6092 0.8293 0.9614
-2.2707 9.6171 0.8365 0.9611
-3.0223 9.6333 0.8547 0.9603
-3.4116 9.6417 0.8658 0.9598
-3.8116 9.6503 0.8783 0.9592
-5.0925 9.6779 0.9258 0.9570
21.4526 9.8868 1.4648 0.9097
21.4740 10.8521 1.4920 0.9081
15.4552 9.2659 1.1174 0.9303
14.8167 9.6261 1.0957 0.9316
13.3131 9.3489 1.0088 0.9369
13.0027 9.8498 1.0115 0.9367
10.3785 9.7957 0.8850 0.9444
9.5968 11.2547 0.9172 0.9424
8.4988 13.5029 0.9894 0.9381
8.1877 14.1135 1.0118 0.9367
7.8650 14.7591 1.0371 0.9352
7.8182 16.0397 1.1065 0.9310
8.2916 18.6944 1.2682 0.9213
8.3393 20.7949 1.3893 0.9141
3.8929 12.1846 0.7932 0.9500
2.4891 12.2150 0.7730 0.9513
-1.9059 9.6097 0.6075 0.9615
-3.0225 9.6338 0.6261 0.9603
-4.2241 9.6597 0.6538 0.9586
-4.6505 9.6689 0.6653 0.9579
31.5057 2.2443 1.2455 0.8812
21.4631 10.8467 0.9483 0.9082
20.6820 11.4063 0.9313 0.9098
15.4567 9.2668 0.7106 0.9304
14.8087 9.6209 0.6963 0.9317
13.3057 9.3437 0.6411 0.9370
9.6716 9.8118 0.5433 0.9463
9.5721 10.4385 0.5585 0.9449
9.5900 11.2468 0.5828 0.9425
9.6312 13.1016 0.6412 0.9370
8.4993 13.5037 0.6292 0.9381
7.8654 14.7600 0.6595 0.9352
7.8098 16.0226 0.7028 0.9311
8.2820 18.6728 0.8055 0.9215
2.9493 12.2056 0.4951 0.9510
1.1396 12.2448 0.4849 0.9520
0.6959 12.2544 0.4840 0.9521
0.1765 8.5475 0.3371 0.9664
-0.1893 12.2735 0.4840 0.9520
-0.6331 12.2831 0.4850 0.9520
-1.0792 12.2927 0.4866 0.9518
-1.7615 10.9351 0.4367 0.9566
-3.0227 9.6343 0.3981 0.9604
30.7764 -4.5045 0.5254 0.8830
31.4916 2.2433 0.5333 0.8813
19.8521 2.8637 0.3388 0.9229
30.9948 5.6189 0.5321 0.8816
31.5926 6.9126 0.5463 0.8786
31.6456 9.3593 0.5574 0.8763
32.6365 10.9471 0.5815 0.8713
25.1987 9.4764 0.4548 0.8979
22.8042 9.5282 0.4175 0.9059
20.6841 11.4075 0.3990 0.9098
12.8622 9.7434 0.2726 0.9375
11.1415 9.7807 0.2504 0.9424
10.3800 9.7971 0.2411 0.9445
9.5833 11.2389 0.2495 0.9426
9.6026 12.1210 0.2612 0.9400
9.6238 13.0915 0.2745 0.9371
9.1859 13.4896 0.2757 0.9368
8.4998 13.5045 0.2695 0.9382
8.2011 15.3899 0.2946 0.9326
8.2340 16.8928 0.3174 0.9276
8.2724 18.6512 0.3447 0.9216
8.3182 20.7423 0.3775 0.9145
3.8933 12.1859 0.2161 0.9501
3.4225 12.2155 0.2143 0.9505
2.9542 12.2257 0.2125 0.9509
2.4893 12.2162 0.2106 0.9513
1.5881 12.2552 0.2087 0.9518
1.1414 12.2648 0.2081 0.9519
0.6970 12.2745 0.2077 0.9520
0.1766 8.5521 0.1445 0.9664
-0.1896 12.2920 0.2077 0.9520
-0.6323 12.2685 0.2075 0.9520
-1.0767 12.2630 0.2079 0.9519
-1.7770 11.0309 0.1887 0.9563
-2.2711 9.6186 0.1669 0.9612
-2.6483 9.6462 0.1690 0.9608
-3.4191 9.6629 0.1731 0.9598
-4.2332 9.6805 0.1785 0.9586
-4.6605 9.6897 0.1816 0.9579
35.5177 -9.2037 -0.2066 0.8635
35.5469 -7.8549 -0.2050 0.8645
47.5008 -8.7126 -0.2719 0.8243
31.3303 -4.5855 -0.1783 0.8810
31.3550 -3.4394 -0.1776 0.8815
28.9999 -2.1261 -0.1637 0.8902
31.4530 1.1026 -0.1772 0.8817
31.4776 2.2423 -0.1777 0.8814
31.5023 3.3897 -0.1784 0.8810
31.5525 5.7200 -0.1805 0.8796
31.5782 6.9094 -0.1820 0.8787
31.6042 8.1199 -0.1837 0.8776
21.4208 9.8721 -0.1328 0.9100
21.4415 10.8357 -0.1353 0.9084
15.8745 9.5173 -0.1042 0.9286
13.8458 9.7230 -0.0952 0.9346
11.9663 9.7635 -0.0869 0.9401
11.3849 10.7456 -0.0881 0.9393
8.5003 13.5053 -0.0898 0.9382
8.1651 14.0745 -0.0916 0.9370
8.2185 15.4225 -0.0984 0.9325
8.3220 17.0734 -0.1069 0.9268
8.3920 18.9208 -0.1165 0.9205
3.4226 12.2162 -0.0714 0.9505
2.9543 12.2263 -0.0708 0.9509
1.5673 12.0944 -0.0687 0.9524
1.1414 12.2650 -0.0694 0.9519
0.6970 12.2747 -0.0692 0.9520
-0.1896 12.2942 -0.0692 0.9520
-0.6258 12.1418 -0.0684 0.9525
-1.0668 12.1513 -0.0687 0.9524
-1.7813 11.0581 -0.0631 0.9562
-3.0292 9.6550 -0.0570 0.9603
-3.4193 9.6634 -0.0577 0.9598
-4.8883 12.3763 -0.0749 0.9482
-9.1321 20.8835 -0.1283 0.9129
-4.7724 9.9224 -0.0620 0.9569
35.7726 -9.2697 -1.0405 0.8625
35.8020 -7.9113 -1.0324 0.8635
31.4390 1.1021 -0.8858 0.8817
31.4636 2.2413 -0.8882 0.8814
31.4883 3.3882 -0.8918 0.8810
19.8338 2.8610 -0.5643 0.9229
27.3121 9.1612 -0.8112 0.8911
30.9145 11.6259 -0.9300 0.8762
20.9438 11.5507 -0.6735 0.9087
15.0966 9.8079 -0.5069 0.9305
14.0004 9.8316 -0.4817 0.9338
13.0069 9.8530 -0.4595 0.9368
11.6236 10.2038 -0.4355 0.9400
11.4430 11.6089 -0.4590 0.9369
10.6609 11.6258 -0.4441 0.9388
9.5885 12.1032 -0.4348 0.9401
9.6089 13.0713 -0.4568 0.9371
9.2770 13.6233 -0.4641 0.9362
8.5008 13.5061 -0.4494 0.9381
4.3803 12.1766 -0.3644 0.9495
3.8937 12.1872 -0.3603 0.9501
3.4228 12.2168 -0.3572 0.9505
2.9545 12.2269 -0.3542 0.9509
2.0353 12.2273 -0.3490 0.9516
1.6045 12.3810 -0.3515 0.9513
1.1532 12.3908 -0.3504 0.9514
-0.8031 9.1472 -0.2586 0.9639
-1.1293 9.0870 -0.2578 0.9640
-1.8051 9.1017 -0.2613 0.9636
-2.1508 9.1091 -0.2635 0.9632
-2.5029 9.1168 -0.2662 0.9629
-2.8627 9.1245 -0.2693 0.9625
-3.2314 9.1325 -0.2728 0.9620
-3.6103 9.1407 -0.2767 0.9614
-3.9974 9.1412 -0.2809 0.9609
-4.8194 9.1589 -0.2914 0.9594
-5.2550 9.1684 -0.2976 0.9586
35.6402 -9.2354 -1.8672 0.8629
31.3023 -4.5814 -1.6044 0.8810
31.3271 -3.4364 -1.5983 0.8814
28.9741 -2.1242 -1.4733 0.8902
31.4007 -0.0325 -1.5925 0.8818
31.4495 2.2403 -1.5990 0.8814
19.8247 2.8597 -1.0158 0.9229
21.4816 8.9757 -1.1807 0.9110
19.5502 9.0101 -1.0917 0.9174
17.1971 8.6907 -0.9772 0.9257
12.5192 8.7914 -0.7758 0.9406
11.6242 8.8055 -0.7396 0.9433
10.8136 8.8230 -0.7078 0.9456
7.0539 8.9040 -0.5761 0.9555
6.5527 8.9138 -0.5611 0.9567
5.6230 8.9338 -0.5353 0.9586
4.3678 8.9609 -0.5056 0.9609
3.9782 8.9693 -0.4976 0.9615
3.2323 8.9854 -0.4843 0.9625
2.8732 8.9932 -0.4788 0.9629
2.5217 9.0007 -0.4740 0.9633
2.1767 9.0082 -0.4700 0.9636
1.8371 9.0155 -0.4666 0.9638
1.5032 9.0306 -0.4643 0.9640
1.1712 9.0377 -0.4622 0.9642
0.8418 9.0449 -0.4607 0.9643
0.5140 9.0520 -0.4598 0.9643
0.1771 8.5751 -0.4350 0.9662
-0.1398 9.0661 -0.4598 0.9643
-1.1294 9.0875 -0.4644 0.9640
-2.1509 9.1096 -0.4747 0.9632
-2.5031 9.1172 -0.4795 0.9628
-2.8629 9.1250 -0.4850 0.9624
-3.2316 9.1330 -0.4913 0.9619
-3.6105 9.1412 -0.4984 0.9614
-4.4011 9.1504 -0.5149 0.9601
31.4881 -15.9947 -2.5896 0.8679
32.8234 -13.7942 -2.6106 0.8669
32.3182 -8.3746 -2.4479 0.8747
32.7377 -7.2341 -2.4583 0.8742
31.2882 -4.5794 -2.3186 0.8809
31.3131 -3.4348 -2.3097 0.8813
28.9612 -2.1232 -2.1292 0.8901
31.3622 -1.1643 -2.3011 0.8817
31.3867 -0.0324 -2.3013 0.8817
31.5096 5.7122 -2.3480 0.8795
31.5605 8.1086 -2.3892 0.8775
29.7483 8.7983 -2.2746 0.8830
23.7412 8.9284 -1.8598 0.9033
19.5525 9.0112 -1.5786 0.9173
17.1989 8.6916 -1.4129 0.9256
14.5908 8.7477 -1.2474 0.9340
12.5203 8.7921 -1.1218 0.9405
10.8145 8.8237 -1.0234 0.9456
10.0696 8.8397 -0.9825 0.9477
8.1440 8.8811 -0.8835 0.9528
7.5831 8.8932 -0.8569 0.9542
7.0544 8.9045 -0.8330 0.9555
6.5531 8.9144 -0.8112 0.9566
6.0773 8.9246 -0.7917 0.9576
5.6233 8.9344 -0.7740 0.9585
4.7708 8.9527 -0.7438 0.9601
4.3680 8.9614 -0.7310 0.9608
3.6004 8.9779 -0.7092 0.9619
1.8372 9.0160 -0.6747 0.9638
1.1713 9.0382 -0.6682 0.9641
0.1773 8.5829 -0.6294 0.9662
-0.1399 9.0666 -0.6649 0.9643
-1.1294 9.0880 -0.6715 0.9639
-1.8053 9.1026 -0.6804 0.9635
-2.1510 9.1101 -0.6863 0.9632
-3.2318 9.1335 -0.7104 0.9619
-4.8199 9.1600 -0.7589 0.9593
22.3186 -12.3692 -2.4498 0.9025
24.2104 -9.1619 -2.4852 0.9012
24.9521 -7.4358 -2.4996 0.9007
25.2717 -6.5486 -2.5063 0.9004
25.5588 -5.6478 -2.5130 0.9002
24.5145 -2.6891 -2.3676 0.9057
24.7365 -0.9183 -2.3765 0.9053
19.6387 2.8329 -1.9049 0.9234
25.1431 4.5580 -2.4532 0.9024
24.8016 7.3352 -2.4830 0.9013
15.8153 8.7223 -1.7339 0.9300
11.6261 8.8070 -1.4003 0.9431
8.7421 8.8689 -1.1956 0.9512
7.0548 8.9051 -1.0907 0.9554
6.5535 8.9149 -1.0622 0.9565
5.6237 8.9349 -1.0136 0.9585
5.1889 8.9442 -0.9927 0.9593
4.7711 8.9532 -0.9740 0.9601
3.9786 8.9703 -0.9421 0.9613
3.6006 8.9784 -0.9287 0.9619
2.5220 9.0017 -0.8975 0.9631
2.1770 9.0091 -0.8898 0.9634
1.8373 9.0165 -0.8834 0.9637
1.5034 9.0315 -0.8790 0.9639
1.1713 9.0387 -0.8750 0.9640
0.5141 9.0529 -0.8705 0.9642
0.1774 8.5907 -0.8249 0.9661
-0.1399 9.0670 -0.8706 0.9642
-0.4677 9.0741 -0.8723 0.9641
-0.7973 9.0812 -0.8752 0.9640
-2.1511 9.1106 -0.8987 0.9631
-2.8632 9.1260 -0.9182 0.9623
-3.2319 9.1340 -0.9302 0.9618
-4.4016 9.1515 -0.9749 0.9600
18.6346 -8.6348 -2.4396 0.9206
19.3041 -7.3051 -2.4517 0.9202
19.6038 -6.6207 -2.4579 0.9200
20.1206 -5.2138 -2.4690 0.9197
20.5305 -3.7657 -2.4794 0.9194
20.6947 -3.0289 -2.4844 0.9192
20.8329 -2.2852 -2.4895 0.9190
20.9448 -1.5355 -2.4946 0.9189
20.0589 -0.0207 -2.3827 0.9224
19.7650 0.6929 -2.3492 0.9234
19.7741 1.4086 -2.3548 0.9233
19.6312 4.2955 -2.3871 0.9222
19.4301 5.7466 -2.4069 0.9216
19.2473 6.4560 -2.4115 0.9215
18.8387 7.8713 -2.4252 0.9210
18.6025 8.5733 -2.4331 0.9208
17.2026 8.6935 -2.2895 0.9253
15.8169 8.7232 -2.1456 0.9298
13.5031 8.7727 -1.9128 0.9372
10.0712 8.8410 -1.5919 0.9474
9.3826 8.8558 -1.5326 0.9494
8.1451 8.8823 -1.4315 0.9526
7.0553 8.9057 -1.3496 0.9553
6.5539 8.9155 -1.3144 0.9564
6.0780 8.9257 -1.2827 0.9574
5.6240 8.9354 -1.2541 0.9584
5.1892 8.9448 -1.2284 0.9592
3.9789 8.9708 -1.1657 0.9612
3.6008 8.9789 -1.1491 0.9618
2.8737 8.9946 -1.1216 0.9627
2.5221 9.0022 -1.1105 0.9630
1.5035 9.0320 -1.0876 0.9638
0.8419 9.0462 -1.0792 0.9641
0.5141 9.0533 -1.0771 0.9641
-0.1399 9.0675 -1.0772 0.9641
-0.4677 9.0746 -1.0794 0.9641
-0.7973 9.0817 -1.0829 0.9639
-1.1296 9.0889 -1.0879 0.9638
-1.4653 9.0962 -1.0944 0.9636
-2.5034 9.1187 -1.1232 0.9626
-3.2321 9.1345 -1.1510 0.9617
-4.4019 9.1520 -1.2063 0.9599
-4.8205 9.1611 -1.2297 0.9592
-5.2563 9.1705 -1.2556 0.9583
15.0117 -8.3196 -2.4318 0.9330
15.3268 -7.7854 -2.4358 0.9329
15.9022 -6.6830 -2.4441 0.9327
16.6200 -4.9528 -2.4572 0.9323
16.9903 -3.7544 -2.4654 0.9321
17.1429 -3.1443 -2.4695 0.9320
17.4661 -1.2805 -2.4814 0.9317
17.5734 -0.0181 -2.4900 0.9315
17.5873 0.6166 -2.4935 0.9314
17.4940 1.2462 -2.4850 0.9316
16.4125 2.3676 -2.3495 0.9352
16.3472 2.9635 -2.3540 0.9351
16.1450 4.1481 -2.3619 0.9349
16.0263 4.7399 -2.3680 0.9347
15.8895 5.3298 -2.3746 0.9345
15.7300 5.9156 -2.3812 0.9344
15.3317 7.0659 -2.3919 0.9341
15.1028 7.6324 -2.3976 0.9339
13.5043 8.7735 -2.2818 0.9370
10.8170 8.8257 -1.9781 0.9452
10.0719 8.8417 -1.8989 0.9473
8.1456 8.8829 -1.7077 0.9525
7.0557 8.9063 -1.6099 0.9551
6.5543 8.9160 -1.5679 0.9563
5.6243 8.9360 -1.4960 0.9582
4.7716 8.9543 -1.4376 0.9598
3.2330 8.9873 -1.3533 0.9621
2.8738 8.9951 -1.3380 0.9626
1.8375 9.0174 -1.3039 0.9635
1.5035 9.0324 -1.2974 0.9637
1.1715 9.0396 -1.2915 0.9638
0.8419 9.0467 -1.2874 0.9640
0.1778 8.6064 -1.2197 0.9658
-0.4677 9.0750 -1.2875 0.9640
-1.1296 9.0894 -1.2978 0.9637
-1.8056 9.1040 -1.3151 0.9632
-2.5036 9.1192 -1.3399 0.9625
-2.8635 9.1270 -1.3553 0.9621
-3.9985 9.1437 -1.4140 0.9605
-4.4021 9.1525 -1.4390 0.9598
-5.2566 9.1711 -1.4978 0.9582
12.9645 -7.1850 -2.4418 0.9417
13.2316 -6.7211 -2.4449 0.9416
13.7162 -5.7643 -2.4510 0.9415
13.9329 -5.2726 -2.4541 0.9414
14.3133 -4.2654 -2.4604 0.9412
14.4765 -3.7512 -2.4636 0.9412
14.7471 -2.7049 -2.4700 0.9410
14.8542 -2.1741 -2.4731 0.9410
14.9421 -1.6390 -2.4763 0.9409
15.0694 -0.5594 -2.4842 0.9407
15.0966 -0.0156 -2.4870 0.9406
15.1040 0.5295 -2.4898 0.9406
15.0594 1.6204 -2.4952 0.9404
13.9258 3.0471 -2.3484 0.9438
13.7068 4.0539 -2.3547 0.9437
13.2383 5.5313 -2.3636 0.9435
13.0562 6.0172 -2.3683 0.9434
12.8517 6.4948 -2.3722 0.9433
12.6314 6.9664 -2.3764 0.9432
12.1291 7.8800 -2.3828 0.9430
11.5531 8.7517 -2.3877 0.9429
10.8178 8.8265 -2.3001 0.9450
10.0727 8.8423 -2.2080 0.9471
8.7440 8.8707 -2.0520 0.9508
8.1462 8.8835 -1.9856 0.9523
7.5851 8.8955 -1.9259 0.9537
6.0788 8.9268 -1.7792 0.9572
5.6247 8.9365 -1.7395 0.9581
5.1898 8.9458 -1.7038 0.9589
4.7719 8.9548 -1.6716 0.9597
4.3690 8.9634 -1.6427 0.9604
3.9793 8.9718 -1.6169 0.9610
3.2332 8.9878 -1.5735 0.9620
2.5224 9.0031 -1.5403 0.9628
1.8376 9.0179 -1.5161 0.9634
0.8420 9.0472 -1.4969 0.9638
0.1779 8.6143 -1.4194 0.9657
-0.1399 9.0684 -1.4941 0.9639
-0.4678 9.0755 -1.4971 0.9638
-1.8057 9.1045 -1.5291 0.9631
-2.1515 9.1120 -1.5424 0.9628
-2.8636 9.1275 -1.5759 0.9620
-3.2325 9.1355 -1.5964 0.9615
-4.8211 9.1621 -1.7056 0.9589
11.8535 -5.4926 -2.4556 0.9482
12.0556 -5.0664 -2.4580 0.9482
12.7088 -3.2932 -2.4677 0.9480
13.1044 -1.4374 -2.4779 0.9478
13.1647 -0.9651 -2.4811 0.9477
13.2031 -0.4901 -2.4834 0.9476
13.2145 0.9414 -2.4901 0.9475
11.9796 3.5431 -2.3481 0.9504
11.5597 4.8300 -2.3548 0.9503
11.2001 5.6601 -2.3587 0.9502
10.9956 6.0642 -2.3602 0.9502
10.3152 7.2437 -2.3692 0.9500
9.1949 8.6786 -2.3765 0.9498
7.5856 8.8961 -2.1975 0.9535
7.0567 8.9074 -2.1360 0.9548
6.5551 8.9171 -2.0802 0.9560
6.0792 8.9273 -2.0301 0.9570
5.6250 8.9370 -1.9848 0.9579
5.1901 8.9463 -1.9440 0.9588
3.9795 8.9723 -1.8449 0.9608
3.2334 8.9883 -1.7954 0.9619
2.5225 9.0036 -1.7575 0.9627
2.1774 9.0110 -1.7425 0.9630
1.1716 9.0406 -1.7135 0.9636
0.1751 8.4769 -1.5937 0.9661
-0.4678 9.0760 -1.7082 0.9637
-0.7975 9.0831 -1.7138 0.9636
-1.1297 9.0903 -1.7218 0.9634
-1.8058 9.1050 -1.7447 0.9629
-2.1516 9.1125 -1.7599 0.9626
-2.8638 9.1280 -1.7982 0.9618
-3.2326 9.1360 -1.8215 0.9613
-3.9989 9.1448 -1.8760 0.9602
-4.4026 9.1536 -1.9092 0.9595
-4.8214 9.1627 -1.9461 0.9587
-5.2573 9.1722 -1.9871 0.9579
10.1847 -5.6444 -2.4613 0.9535
10.5768 -4.9010 -2.4641 0.9535
10.9171 -4.1313 -2.4674 0.9534
11.2038 -3.3388 -2.4712 0.9533
11.3265 -2.9350 -2.4733 0.9533
11.5285 -2.1145 -2.4775 0.9532
11.6053 -1.6986 -2.4793 0.9532
11.7455 -0.4360 -2.4845 0.9531
11.7626 0.4124 -2.4879 0.9530
11.7480 0.8369 -2.4896 0.9530
11.7181 1.2609 -2.4913 0.9530
11.3382 3.3534 -2.4993 0.9528
11.1390 3.7363 -2.4835 0.9531
10.5101 3.9525 -2.3735 0.9551
9.7536 5.3792 -2.3545 0.9555
8.8984 6.7407 -2.3597 0.9554
8.6566 7.0631 -2.3616 0.9554
8.4030 7.3767 -2.3635 0.9553
7.2698 8.5257 -2.3684 0.9552
6.9604 8.7858 -2.3693 0.9552
6.0796 8.9279 -2.2832 0.9568
5.6254 8.9376 -2.2323 0.9577
5.1904 8.9469 -2.1864 0.9586
4.7725 8.9558 -2.1451 0.9594
4.3695 8.9645 -2.1080 0.9600
3.9798 8.9728 -2.0749 0.9607
2.1775 9.0115 -1.9597 0.9628
1.8378 9.0188 -1.9456 0.9631
1.1717 9.0410 -1.9271 0.9634
0.8421 9.0481 -1.9209 0.9635
0.5142 9.0552 -1.9172 0.9636
0.1741 8.4272 -1.7817 0.9661
-0.1301 8.4329 -1.7828 0.9661
-0.4678 9.0764 -1.9211 0.9635
-0.7975 9.0836 -1.9275 0.9634
-1.4656 9.0981 -1.9479 0.9630
-2.1517 9.1130 -1.9793 0.9624
-2.5040 9.1207 -1.9993 0.9621
-3.2328 9.1365 -2.0486 0.9612
-3.9991 9.1453 -2.1099 0.9600
-5.2576 9.1728 -2.2349 0.9577
9.1759 -5.0853 -2.4656 0.9578
9.3564 -4.7527 -2.4664 0.9578
9.8282 -3.7193 -2.4697 0.9577
9.9621 -3.3645 -2.4712 0.9577
10.0833 -3.0049 -2.4728 0.9577
10.1915 -2.6409 -2.4743 0.9577
10.4368 -1.5275 -2.4790 0.9576
10.4935 -1.1510 -2.4810 0.9576
10.4758 -0.7680 -2.4687 0.9578
10.5662 -0.3922 -2.4850 0.9575
10.5646 0.7526 -2.4892 0.9574
10.5365 1.1338 -2.4906 0.9574
10.4945 1.5139 -2.4920 0.9574
10.3729 2.2696 -2.4955 0.9573
9.9555 3.7439 -2.4997 0.9572
9.8177 4.1021 -2.5007 0.9572
9.3166 4.2937 -2.4110 0.9587
8.9200 4.5079 -2.3489 0.9598
8.3943 5.4537 -2.3527 0.9597
8.1965 5.7558 -2.3539 0.9597
7.7662 6.3366 -2.3557 0.9597
7.5356 6.6152 -2.3566 0.9596
7.2943 6.8847 -2.3573 0.9596
6.7841 7.3982 -2.3591 0.9596
6.5159 7.6417 -2.3602 0.9596
5.9519 8.0965 -2.3617 0.9596
5.3561 8.5098 -2.3632 0.9595
5.0454 8.6969 -2.3630 0.9595
3.6018 8.9814 -2.2743 0.9610
3.2337 8.9893 -2.2452 0.9615
2.8745 8.9970 -2.2198 0.9619
2.5228 9.0046 -2.1978 0.9623
2.1777 9.0120 -2.1790 0.9626
1.8379 9.0193 -2.1633 0.9629
1.5038 9.0343 -2.1525 0.9631
1.1717 9.0415 -2.1427 0.9632
0.5142 9.0557 -2.1317 0.9634
0.1735 8.4023 -1.9752 0.9661
-0.4678 9.0769 -2.1361 0.9633
-1.8060 9.1060 -2.1818 0.9626
-2.5041 9.1212 -2.2230 0.9619
-3.2330 9.1370 -2.2779 0.9610
-3.6121 9.1453 -2.3109 0.9604
-3.9994 9.1458 -2.3460 0.9598
-4.9438 8.6254 -2.3365 0.9600
8.9363 -3.3817 -2.4739 0.9613
9.0562 -3.0585 -2.4749 0.9613
9.1647 -2.7311 -2.4760 0.9613
9.2618 -2.4000 -2.4772 0.9612
9.4211 -1.7280 -2.4800 0.9612
9.5332 -1.0457 -2.4831 0.9611
9.5313 -0.3539 -2.4695 0.9614
9.6105 -0.0099 -2.4883 0.9611
9.6087 0.3369 -2.4894 0.9611
9.5278 1.3744 -2.4924 0.9610
9.4758 1.7178 -2.4934 0.9610
9.4114 2.0593 -2.4944 0.9610
9.2457 2.7345 -2.4964 0.9609
9.1446 3.0674 -2.4973 0.9609
9.0314 3.3964 -2.4983 0.9609
8.9065 3.7214 -2.4993 0.9609
8.7692 4.0414 -2.5000 0.9609
8.2775 4.5652 -2.4475 0.9617
7.8280 4.6931 -2.3631 0.9630
7.6087 4.9432 -2.3493 0.9632
7.2388 5.4836 -2.3513 0.9632
6.6109 6.2397 -2.3537 0.9631
6.3836 6.4762 -2.3545 0.9631
6.1471 6.7035 -2.3549 0.9631
5.9024 6.9221 -2.3554 0.9631
5.6501 7.1320 -2.3558 0.9631
5.1223 7.5222 -2.3563 0.9631
4.5688 7.8753 -2.3573 0.9631
4.2825 8.0364 -2.3578 0.9631
3.3901 8.4537 -2.3583 0.9631
2.4567 8.7686 -2.3577 0.9631
2.1382 8.8487 -2.3570 0.9631
1.8174 8.9186 -2.3566 0.9631
1.4943 8.9767 -2.3562 0.9631
1.1690 9.0206 -2.3551 0.9631
0.5143 9.0562 -2.3486 0.9632
-0.1293 8.3828 -2.1707 0.9660
-0.4673 9.0665 -2.3506 0.9632
-0.7935 9.0383 -2.3492 0.9632
-1.4416 8.9491 -2.3469 0.9632
-1.7623 8.8858 -2.3455 0.9633
-2.0806 8.8117 -2.3442 0.9633
-4.4829 7.8212 -2.3341 0.9634
7.6461 -4.2375 -2.4747 0.9643
7.7968 -3.9604 -2.4756 0.9643
8.0679 -3.3906 -2.4775 0.9643
8.1881 -3.0985 -2.4784 0.9643
8.5616 -1.8919 -2.4822 0.9642
8.6276 -1.5825 -2.4832 0.9642
8.6824 -1.2708 -2.4841 0.9642
8.7884 -0.0090 -2.4879 0.9641
8.7864 0.3080 -2.4889 0.9641
8.7729 0.6250 -2.4898 0.9641
8.5364 2.1932 -2.4951 0.9640
8.3613 2.8046 -2.4966 0.9640
8.0176 3.6951 -2.4992 0.9640
7.8808 3.9827 -2.4997 0.9640
7.7337 4.2652 -2.5002 0.9639
7.5765 4.5424 -2.5008 0.9639
7.3628 4.7835 -2.4856 0.9642
6.9626 4.8894 -2.4085 0.9652
6.6140 5.0103 -2.3489 0.9661
6.4303 5.2466 -2.3494 0.9661
5.8313 5.9158 -2.3516 0.9661
5.1615 6.5153 -2.3531 0.9660
4.9238 6.6980 -2.3534 0.9660
4.6798 6.8723 -2.3537 0.9660
4.1729 7.1930 -2.3541 0.9660
3.9110 7.3393 -2.3543 0.9660
3.6439 7.4759 -2.3544 0.9660
3.3720 7.6024 -2.3544 0.9660
3.0955 7.7191 -2.3544 0.9660
2.8150 7.8254 -2.3543 0.9660
1.9528 8.0814 -2.3536 0.9660
1.0679 8.2405 -2.3523 0.9660
0.1714 8.3008 -2.3504 0.9661
-0.1280 8.2983 -2.3495 0.9661
-0.4271 8.2853 -2.3486 0.9661
-0.7253 8.2614 -2.3477 0.9661
-1.0224 8.2271 -2.3470 0.9661
-1.3179 8.1816 -2.3460 0.9661
-1.9028 8.0588 -2.3441 0.9662
-2.1912 7.9813 -2.3431 0.9662
-2.4765 7.8935 -2.3420 0.9662
-3.0364 7.6878 -2.3399 0.9662
-3.3101 7.5697 -2.3389 0.9662
-3.8437 7.3046 -2.3367 0.9663
7.4283 -3.1218 -2.4783 0.9668
7.6382 -2.5796 -2.4797 0.9668
7.8804 -1.7413 -2.4823 0.9668
7.9410 -1.4565 -2.4832 0.9668
7.9912 -1.1696 -2.4841 0.9668
8.0310 -0.8809 -2.4850 0.9668
8.0898 0.2836 -2.4898 0.9667
8.0770 0.5754 -2.4906 0.9667
7.9749 1.4458 -2.4929 0.9667
7.9199 1.7329 -2.4936 0.9666
7.6966 2.5817 -2.4969 0.9666
7.6001 2.8582 -2.4975 0.9666
7.4936 3.1310 -2.4980 0.9666
7.1158 3.9245 -2.4994 0.9666
6.9709 4.1793 -2.4999 0.9666
6.6537 4.6725 -2.5008 0.9665
6.4818 4.9101 -2.5011 0.9665
6.1905 5.0510 -2.4575 0.9671
5.8489 5.1345 -2.3938 0.9680
5.3618 5.4395 -2.3493 0.9685
5.1634 5.6308 -2.3498 0.9685
4.9581 5.8147 -2.3504 0.9685
4.5276 6.1590 -2.3512 0.9685
4.3032 6.3194 -2.3516 0.9685
4.0730 6.4712 -2.3518 0.9685
3.8372 6.6142 -2.3520 0.9685
3.1009 6.9914 -2.3524 0.9685
2.8468 7.0988 -2.3525 0.9685
2.3275 7.2852 -2.3523 0.9685
1.7961 7.4330 -2.3520 0.9685
1.2552 7.5407 -2.3513 0.9685
0.4331 7.6275 -2.3498 0.9685
-0.3929 7.6236 -2.3480 0.9686
-1.4831 7.4780 -2.3449 0.9686
-2.0168 7.3462 -2.3431 0.9686
-2.5392 7.1763 -2.3414 0.9686
-2.7952 7.0771 -2.3404 0.9687
-3.2955 6.8519 -2.3386 0.9687
-3.5392 6.7260 -2.3377 0.9687
-3.7779 6.5913 -2.3367 0.9687
6.5233 -3.6152 -2.4791 0.9691
6.6507 -3.3782 -2.4796 0.9690
6.8808 -2.8916 -2.4810 0.9690
7.2333 -1.8743 -2.4838 0.9690
7.3999 -1.0830 -2.4860 0.9690
7.4362 -0.8157 -2.4867 0.9690
7.4800 -0.2776 -2.4881 0.9689
7.4727 0.5323 -2.4903 0.9689
7.1204 2.3884 -2.4964 0.9688
7.0310 2.6442 -2.4969 0.9688
6.8246 3.1453 -2.4979 0.9688
6.7080 3.3900 -2.4983 0.9688
6.4484 3.8661 -2.4992 0.9688
4.8813 5.3232 -2.4008 0.9700
4.5981 5.3924 -2.3556 0.9706
4.3883 5.5393 -2.3491 0.9707
4.1862 5.6945 -2.3493 0.9706
3.7658 5.9831 -2.3499 0.9706
3.0985 6.3569 -2.3507 0.9706
2.6323 6.5641 -2.3508 0.9706
2.1523 6.7367 -2.3508 0.9706
1.6609 6.8735 -2.3505 0.9706
1.1608 6.9738 -2.3500 0.9706
0.9084 7.0100 -2.3496 0.9706
0.4006 7.0549 -2.3489 0.9707
-0.1089 7.0622 -2.3478 0.9707
-0.3635 7.0521 -2.3473 0.9707
-0.8704 7.0036 -2.3459 0.9707
-1.3722 6.9187 -2.3446 0.9707
-1.6203 6.8626 -2.3439 0.9707
-1.8662 6.7973 -2.3431 0.9707
-2.1094 6.7234 -2.3423 0.9707
-3.0502 6.3417 -2.3392 0.9708
-3.5536 6.1999 -2.3754 0.9703
6.1922 -3.1453 -2.4837 0.9709
6.3019 -2.9201 -2.4838 0.9709
6.4037 -2.6912 -2.4840 0.9709
6.6599 -1.9846 -2.4851 0.9709
6.7286 -1.7436 -2.4857 0.9709
6.8831 -1.0074 -2.4877 0.9709
6.9591 -0.2583 -2.4903 0.9709
6.9018 0.9956 -2.4937 0.9708
6.8627 1.2441 -2.4942 0.9708
6.7577 1.7363 -2.4951 0.9708
6.6920 1.9792 -2.4956 0.9708
6.5343 2.4573 -2.4965 0.9708
6.4425 2.6919 -2.4969 0.9708
6.3423 2.9230 -2.4973 0.9708
6.2338 3.1504 -2.4978 0.9708
5.9942 3.5938 -2.4993 0.9707
5.8614 3.8080 -2.4996 0.9707
5.7208 4.0173 -2.4998 0.9707
5.4174 4.4202 -2.5003 0.9707
5.2551 4.6132 -2.5006 0.9707
5.0856 4.8001 -2.5008 0.9707
4.7270 5.1549 -2.5011 0.9707
3.5094 5.5758 -2.3560 0.9724
3.0891 5.7969 -2.3490 0.9725
2.6636 6.0054 -2.3493 0.9725
2.4454 6.0978 -2.3494 0.9725
2.2239 6.1822 -2.3495 0.9725
1.5430 6.3857 -2.3493 0.9725
1.3116 6.4367 -2.3491 0.9725
1.0785 6.4792 -2.3489 0.9725
0.6085 6.5383 -2.3482 0.9725
0.3722 6.5551 -2.3479 0.9725
0.1355 6.5631 -2.3475 0.9725
-0.3377 6.5530 -2.3465 0.9725
-0.8089 6.5088 -2.3455 0.9725
-1.2753 6.4301 -2.3442 0.9725
-1.9609 6.2500 -2.3425 0.9726
-2.4346 6.1642 -2.3701 0.9722
-2.6976 6.1690 -2.4078 0.9718
5.6726 -3.1437 -2.4854 0.9726
5.8865 -2.7276 -2.4862 0.9726
5.9821 -2.5140 -2.4866 0.9726
6.0699 -2.2970 -2.4871 0.9726
6.1499 -2.0770 -2.4875 0.9726
6.2219 -1.8542 -2.4880 0.9726
6.3417 -1.4013 -2.4889 0.9726
6.3893 -1.1719 -2.4893 0.9726
6.4963 -0.2412 -2.4912 0.9725
6.4991 0.2279 -2.4921 0.9725
6.4400 0.9290 -2.4935 0.9725
6.4034 1.1609 -2.4939 0.9725
6.3585 1.3913 -2.4944 0.9725
6.2439 1.8467 -2.4952 0.9725
6.0966 2.2927 -2.4961 0.9725
6.0109 2.5115 -2.4965 0.9725
5.8189 2.9407 -2.4985 0.9725
5.3377 3.7483 -2.4995 0.9724
5.0550 4.1245 -2.5002 0.9724
4.9033 4.3044 -2.5003 0.9724
3.4768 5.5240 -2.5013 0.9724
1.8652 5.8381 -2.3487 0.9741
1.4393 5.9565 -2.3483 0.9741
1.2235 6.0040 -2.3481 0.9741
1.0060 6.0437 -2.3479 0.9741
0.7873 6.0754 -2.3477 0.9741
0.3472 6.1148 -2.3471 0.9741
-0.0944 6.1224 -2.3465 0.9741
-0.5353 6.0977 -2.3457 0.9741
-0.7556 6.0799 -2.3478 0.9741
-2.3908 6.0532 -2.4940 0.9725
-2.6071 5.9620 -2.4936 0.9725
-2.8200 5.8632 -2.4933 0.9725
5.3121 -2.9440 -2.4857 0.9741
5.5123 -2.5542 -2.4865 0.9741
5.6839 -2.1510 -2.4873 0.9741
5.7588 -1.9449 -2.4877 0.9741
5.8262 -1.7362 -2.4881 0.9741
5.8860 -1.5252 -2.4886 0.9741
5.9382 -1.3121 -2.4890 0.9741
6.0194 -0.8810 -2.4898 0.9740
6.0693 -0.4449 -2.4907 0.9740
6.0825 -0.2258 -2.4911 0.9740
6.0877 -0.0063 -2.4916 0.9740
6.0850 0.2133 -2.4920 0.9740
6.0745 0.4327 -2.4924 0.9740
6.0559 0.6517 -2.4928 0.9740
5.9952 1.0868 -2.4937 0.9740
5.9032 1.5167 -2.4945 0.9740
5.8460 1.7290 -2.4951 0.9740
5.7117 2.1480 -2.4975 0.9740
5.6311 2.3528 -2.4977 0.9740
5.3456 2.9482 -2.4985 0.9740
4.9982 3.5099 -2.4996 0.9739
4.8687 3.6881 -2.4998 0.9739
4.5907 4.0300 -2.5001 0.9739
4.1296 4.5034 -2.5007 0.9739
3.9646 4.6496 -2.5008 0.9739
3.6194 4.9236 -2.5010 0.9739
3.2553 5.1720 -2.5011 0.9739
2.8741 5.3934 -2.5012 0.9739
1.6283 5.8117 -2.4702 0.9743
0.5525 5.9366 -2.4402 0.9746
0.3383 5.9574 -2.4421 0.9745
0.1234 5.9776 -2.4470 0.9745
-0.5292 6.0275 -2.4764 0.9742
-0.7510 6.0425 -2.4920 0.9740
-0.9705 6.0245 -2.4974 0.9740
-1.4018 5.9370 -2.4967 0.9740
-1.8256 5.8188 -2.4959 0.9740
-2.0339 5.7483 -2.4955 0.9740
-2.4423 5.5852 -2.4949 0.9740
-2.8380 5.3935 -2.4944 0.9740
-3.0304 5.2871 -2.4941 0.9740
4.9908 -2.7659 -2.4868 0.9754
5.4084 -1.8266 -2.4879 0.9754
5.4717 -1.6306 -2.4883 0.9754
5.5767 -1.2323 -2.4891 0.9754
5.6185 -1.0305 -2.4895 0.9754
5.6800 -0.6230 -2.4903 0.9754
5.6997 -0.4178 -2.4907 0.9754
5.7120 -0.2120 -2.4911 0.9754
5.7168 -0.0059 -2.4915 0.9754
5.7042 0.4064 -2.4923 0.9754
5.6499 0.6080 -2.4766 0.9755
5.5480 1.4254 -2.4964 0.9753
5.4322 1.8221 -2.4971 0.9753
5.3635 2.0170 -2.4973 0.9753
5.2877 2.2094 -2.4976 0.9753
5.2051 2.3989 -2.4978 0.9753
5.1157 2.5853 -2.4980 0.9753
5.0200 2.7686 -2.4985 0.9753
4.9182 2.9486 -2.4991 0.9753
4.8089 3.1243 -2.4993 0.9753
4.5718 3.4633 -2.4996 0.9753
3.5632 4.4977 -2.5008 0.9753
3.3988 4.6235 -2.5008 0.9753
3.2299 4.7432 -2.5009 0.9753
3.0569 4.8567 -2.5010 0.9753
2.8798 4.9640 -2.5011 0.9753
2.3269 5.2462 -2.5012 0.9753
2.1361 5.3267 -2.5012 0.9753
1.7465 5.4666 -2.5011 0.9753
1.1457 5.6224 -2.5007 0.9753
0.9421 5.6596 -2.5005 0.9753
0.5316 5.7117 -2.5000 0.9753
0.1184 5.7340 -2.4995 0.9753
-0.0884 5.7340 -2.4993 0.9753
-0.2951 5.7264 -2.4990 0.9753
-0.7070 5.6888 -2.4983 0.9753
-1.3168 5.5771 -2.4974 0.9753
-1.7150 5.4663 -2.4968 0.9753
-2.1041 5.3274 -2.4963 0.9753
-2.2947 5.2476 -2.4961 0.9753
-2.4822 5.1609 -2.4958 0.9753
-2.6665 5.0676 -2.4956 0.9753
4.7042 -2.6071 -2.4896 0.9766
4.7949 -2.4356 -2.4894 0.9766
4.9578 -2.0836 -2.4893 0.9766
5.0298 -1.9034 -2.4894 0.9766
5.3856 -0.0055 -2.4929 0.9765
5.3593 0.5767 -2.4951 0.9765
5.1723 1.5297 -2.4967 0.9765
5.1142 1.7155 -2.4969 0.9765
5.0495 1.8990 -2.4972 0.9765
4.9782 2.0800 -2.4974 0.9765
4.8178 2.4347 -2.4987 0.9765
4.7271 2.6071 -2.4988 0.9765
4.0592 3.5634 -2.5002 0.9765
3.9282 3.7076 -2.5003 0.9765
3.7920 3.8470 -2.5004 0.9765
3.6510 3.9814 -2.5005 0.9765
3.5051 4.1106 -2.5006 0.9765
3.3546 4.2345 -2.5006 0.9765
3.1999 4.3529 -2.5007 0.9765
3.0409 4.4656 -2.5008 0.9765
2.8779 4.5725 -2.5009 0.9765
2.7112 4.6735 -2.5009 0.9765
2.5411 4.7686 -2.5011 0.9765
2.3675 4.8571 -2.5011 0.9765
2.1907 4.9393 -2.5011 0.9765
2.0112 5.0151 -2.5011 0.9765
1.8290 5.0843 -2.5011 0.9765
1.6445 5.1472 -2.5012 0.9765
1.0788 5.2938 -2.5008 0.9765
0.6942 5.3571 -2.5004 0.9765
0.5005 5.3782 -2.5002 0.9765
0.3062 5.3922 -2.5000 0.9765
-0.6658 5.3572 -2.4988 0.9765
-0.8585 5.3291 -2.4986 0.9765
-1.2402 5.2524 -2.4981 0.9765
-1.7997 5.0863 -2.4974 0.9765
-2.1613 4.9424 -2.4969 0.9765
-2.3379 4.8609 -2.4967 0.9765
4.4429 -2.4622 -2.4917 0.9776
4.5292 -2.3006 -2.4919 0.9776
4.6092 -2.1358 -2.4919 0.9776
4.7513 -1.7980 -2.4919 0.9776
4.8132 -1.6255 -2.4920 0.9776
4.8689 -1.4509 -2.4921 0.9776
4.9185 -1.2745 -2.4923 0.9776
4.9987 -0.9168 -2.4929 0.9776
5.0534 -0.5543 -2.4937 0.9776
5.0710 -0.3718 -2.4941 0.9776
5.0859 -0.0052 -2.4948 0.9776
5.0833 0.1783 -2.4950 0.9776
5.0066 0.9077 -2.4959 0.9776
4.9291 1.2664 -2.4964 0.9776
4.8807 1.4435 -2.4966 0.9776
4.7660 1.7924 -2.4977 0.9776
4.6993 1.9636 -2.4983 0.9776
4.4606 2.4600 -2.4987 0.9776
4.2721 2.7755 -2.4990 0.9776
4.1695 2.9280 -2.4991 0.9776
3.9490 3.2221 -2.5000 0.9775
3.7067 3.4986 -2.5002 0.9775
3.5782 3.6301 -2.5003 0.9775
3.4451 3.7569 -2.5004 0.9775
3.1655 3.9957 -2.5005 0.9775
3.0194 4.1074 -2.5006 0.9775
2.7156 4.3146 -2.5007 0.9775
2.5586 4.4104 -2.5011 0.9775
2.3979 4.4998 -2.5011 0.9775
2.0673 4.6609 -2.5011 0.9775
1.7259 4.7978 -2.5010 0.9775
0.8371 5.0291 -2.5008 0.9775
0.6551 5.0556 -2.5006 0.9775
0.4724 5.0755 -2.5004 0.9775
0.1052 5.0954 -2.4999 0.9775
-0.0786 5.0955 -2.4997 0.9776
-0.2623 5.0890 -2.4996 0.9776
-0.4456 5.0758 -2.4994 0.9776
-0.6284 5.0560 -2.4992 0.9776
-0.8102 5.0297 -2.4990 0.9776
-1.3484 4.9115 -2.4984 0.9776
-1.5246 4.8593 -2.4982 0.9776
-1.6987 4.8008 -2.4980 0.9776
-1.8706 4.7361 -2.4978 0.9776
-2.2068 4.5883 -2.4975 0.9776
-2.3707 4.5055 -2.4973 0.9776
4.2012 -2.3283 -2.4918 0.9786
4.2828 -2.1755 -2.4920 0.9786
4.3588 -2.0197 -2.4922 0.9786
4.5526 -1.5375 -2.4928 0.9786
4.6932 -1.0370 -2.4935 0.9786
4.7952 -0.3516 -2.4943 0.9786
4.8052 -0.1784 -2.4945 0.9786
4.8064 0.1685 -2.4950 0.9786
4.7825 0.5146 -2.4954 0.9786
4.7033 0.8526 -2.4797 0.9787
4.7002 1.0284 -2.4960 0.9786
4.6615 1.1977 -2.4968 0.9785
4.5649 1.5312 -2.4979 0.9785
4.2983 2.1722 -2.4984 0.9785
4.2174 2.3260 -2.4986 0.9785
4.0401 2.6248 -2.4994 0.9785
3.7338 3.0465 -2.5000 0.9785
3.6216 3.1793 -2.5000 0.9785
3.3832 3.4323 -2.5002 0.9785
3.2573 3.5522 -2.5003 0.9785
2.8548 3.8835 -2.5005 0.9785
2.7130 3.9841 -2.5006 0.9785
2.5676 4.0794 -2.5006 0.9785
2.4192 4.1701 -2.5010 0.9785
1.9546 4.4070 -2.5010 0.9785
1.7944 4.4746 -2.5010 0.9785
1.6322 4.5373 -2.5015 0.9785
1.4674 4.5931 -2.5014 0.9785
0.7916 4.7554 -2.5009 0.9785
0.6195 4.7805 -2.5007 0.9785
0.4467 4.7993 -2.5005 0.9785
-0.2480 4.8121 -2.4997 0.9785
-0.4214 4.7997 -2.4995 0.9785
-1.1069 4.6879 -2.4989 0.9785
-2.0871 4.3393 -2.4980 0.9785
4.0572 -2.0608 -2.4924 0.9795
4.1288 -1.9132 -2.4923 0.9795
4.2566 -1.6108 -2.4927 0.9795
4.4454 -0.9823 -2.4935 0.9795
4.4784 -0.8213 -2.4937 0.9794
4.5055 -0.6594 -2.4939 0.9794
4.5420 -0.3330 -2.4943 0.9794
4.5549 -0.0047 -2.4947 0.9794
4.5525 0.1596 -2.4950 0.9794
4.5444 0.3238 -2.4953 0.9794
4.5308 0.4875 -2.4959 0.9794
4.4165 1.1347 -2.4975 0.9794
4.3730 1.2934 -2.4977 0.9794
4.3237 1.4503 -2.4978 0.9794
4.2689 1.6054 -2.4979 0.9794
4.1425 1.9092 -2.4982 0.9794
4.0712 2.0574 -2.4983 0.9794
3.6382 2.7560 -2.4998 0.9794
3.5365 2.8855 -2.4999 0.9794
3.4302 3.0113 -2.5000 0.9794
3.2044 3.2509 -2.5001 0.9794
3.0852 3.3645 -2.5002 0.9794
2.9619 3.4737 -2.5003 0.9794
2.7040 3.6783 -2.5004 0.9794
2.5696 3.7735 -2.5005 0.9794
2.4324 3.8646 -2.5010 0.9794
2.2914 3.9498 -2.5010 0.9794
2.1475 4.0299 -2.5010 0.9794
2.0007 4.1047 -2.5010 0.9794
1.8514 4.1742 -2.5010 0.9794
1.2322 4.3978 -2.5014 0.9794
1.0727 4.4392 -2.5013 0.9794
0.9118 4.4747 -2.5012 0.9794
0.0943 4.5641 -2.5003 0.9794
-0.5628 4.5289 -2.4996 0.9794
-0.7258 4.5053 -2.4994 0.9794
-1.3657 4.3531 -2.4988 0.9794
-1.8276 4.1794 -2.4984 0.9794
-1.9770 4.1106 -2.4982 0.9794
-2.2680 3.9570 -2.4980 0.9794
3.7790 -2.0943 -2.4945 0.9802
3.9825 -1.6736 -2.4941 0.9802
4.0402 -1.5289 -2.4940 0.9802
4.1399 -1.2337 -2.4941 0.9802
4.1819 -1.0836 -2.4942 0.9802
4.2185 -0.9321 -2.4943 0.9802
4.2497 -0.7794 -2.4945 0.9802
4.2957 -0.4712 -2.4950 0.9802
4.3234 -0.0044 -2.4961 0.9802
4.3215 0.1515 -2.4966 0.9802
4.2559 0.7715 -2.4972 0.9802
4.1897 1.0764 -2.4975 0.9802
4.0495 1.5229 -2.4979 0.9802
3.9922 1.6681 -2.4980 0.9802
3.9301 1.8113 -2.4984 0.9802
3.8635 1.9525 -2.4993 0.9802
3.3548 2.7373 -2.4998 0.9802
3.2540 2.8566 -2.4999 0.9802
2.9267 3.1916 -2.5001 0.9802
2.6891 3.3945 -2.5002 0.9802
2.4381 3.5805 -2.5010 0.9802
2.1737 3.7469 -2.5009 0.9802
1.7563 3.9598 -2.5009 0.9802
1.6125 4.0211 -2.5013 0.9802
1.4667 4.0774 -2.5017 0.9802
1.3187 4.1274 -2.5016 0.9802
0.8651 4.2452 -2.5013 0.9802
0.4014 4.3129 -2.5008 0.9802
0.0894 4.3300 -2.5004 0.9802
-0.2229 4.3246 -2.5001 0.9802
-0.3787 4.3134 -2.4999 0.9802
-0.5340 4.2967 -2.4998 0.9802
-0.6885 4.2744 -2.4996 0.9802
-0.9948 4.2131 -2.4993 0.9802
-1.2957 4.1299 -2.4990 0.9802
