ply
format ascii 1.0
element vertex 1248
property float32 x
property float32 y
property float32 z
property float32 I
end_header
46.5397 6.6209 8.2888 0.8262
43.6980 9.4642 7.8838 0.8339
42.3799 10.7885 7.7111 0.8373
36.4085 13.5891 6.8524 0.8540
32.9051 13.6495 6.2814 0.8653
29.9370 13.7006 5.8052 0.8748
27.3842 13.7446 5.4026 0.8830
25.1597 13.7830 5.0584 0.8900
24.7198 14.7222 5.0732 0.8897
11.4932 14.3944 3.2479 0.9279
10.6787 14.4085 3.1623 0.9297
9.1675 14.4345 3.0151 0.9329
7.0286 12.0000 2.4522 0.9451
6.4656 12.0097 2.4050 0.9461
6.4204 13.0281 2.5610 0.9427
6.4996 14.4805 2.7987 0.9376
5.2922 14.5013 2.7219 0.9392
4.7989 14.7804 2.7401 0.9388
3.4418 12.0618 2.2117 0.9503
2.9789 12.0698 2.1921 0.9508
2.0746 12.0854 2.1621 0.9514
-0.6709 14.6041 2.5778 0.9423
-1.7317 14.6223 2.5963 0.9419
-2.8134 14.6410 2.6288 0.9412
-3.9285 14.6602 2.6762 0.9402
-5.4614 10.5487 2.0945 0.9529
-27.6429 35.7905 7.9740 0.8322
-27.8686 33.5171 7.6860 0.8377
-27.7833 28.9052 7.0694 0.8497
-27.8174 26.9305 6.8270 0.8545
-26.4004 22.1120 6.0722 0.8695
-33.5705 26.1213 7.5002 0.8413
36.4085 13.5891 5.9534 0.8545
32.9051 13.6495 5.4574 0.8658
29.9370 13.7006 5.0436 0.8753
24.8576 16.0432 4.5323 0.8872
24.7636 17.2754 4.6255 0.8850
24.9294 20.2045 4.9158 0.8782
24.8393 21.6576 5.0485 0.8752
11.4932 14.3944 2.8218 0.9282
10.6787 14.4085 2.7474 0.9300
9.9051 14.4218 2.6802 0.9316
7.0286 12.0000 2.1305 0.9453
5.9232 12.0191 2.0527 0.9472
5.8875 14.4910 2.3962 0.9387
2.0746 12.0854 1.8785 0.9516
1.6305 12.0930 1.8693 0.9518
0.9056 14.5769 2.2374 0.9426
-0.6709 14.6041 2.2396 0.9426
-1.1994 14.6131 2.2462 0.9424
-1.7317 14.6223 2.2557 0.9422
-3.3660 14.6505 2.3028 0.9410
-3.9285 14.6602 2.3251 0.9404
-5.4614 10.5487 1.8197 0.9531
-26.2557 39.5820 7.2765 0.8251
-27.8255 36.0270 6.9736 0.8318
-27.8689 33.5175 6.6778 0.8383
-27.8344 31.1262 6.3968 0.8445
-27.7836 28.9055 6.1420 0.8502
-26.3959 22.1082 5.2747 0.8699
-28.2199 17.4298 5.0813 0.8744
42.3803 10.7886 5.6948 0.8383
32.9051 13.6495 4.6390 0.8661
29.9370 13.7006 4.2873 0.8756
27.2992 13.7020 3.9776 0.8841
25.1597 13.7829 3.7357 0.8907
24.7634 17.2753 3.9319 0.8853
29.5724 27.7192 5.2782 0.8492
27.5521 27.7540 5.0926 0.8541
13.2681 14.3638 2.5463 0.9242
12.3541 14.3796 2.4687 0.9264
10.6787 14.4085 2.3354 0.9302
7.6150 11.9899 1.8496 0.9443
5.2106 12.8249 1.8026 0.9457
4.3767 11.9927 1.6624 0.9498
1.6304 12.0930 1.5890 0.9520
0.7522 12.1082 1.5798 0.9522
-0.1448 14.5950 1.9007 0.9428
-0.6709 14.6041 1.9038 0.9427
-1.1994 14.6131 1.9093 0.9426
-2.8134 14.6410 1.9414 0.9416
-27.7785 38.7733 6.2112 0.8250
-27.8259 36.0274 5.9279 0.8322
-27.8692 33.5178 5.6764 0.8388
-27.7472 31.0287 5.4205 0.8454
-27.8179 26.9311 5.0420 0.8554
-33.5705 26.1213 5.5391 0.8423
-36.3367 26.2307 5.8359 0.8346
-28.3757 16.1455 4.2514 0.8766
40.8205 13.5838 4.6197 0.8411
32.9051 13.6495 3.8254 0.8665
27.3841 13.7446 3.2902 0.8840
24.7406 15.9677 3.1620 0.8883
24.7869 18.6525 3.3311 0.8827
24.7413 20.0520 3.4198 0.8797
27.5521 27.7540 4.1994 0.8544
12.3541 14.3796 2.0357 0.9266
11.4932 14.3944 1.9780 0.9286
8.2276 11.9794 1.5605 0.9432
3.8965 12.0010 1.3549 0.9505
3.4509 12.0940 1.3505 0.9507
3.0146 12.2145 1.3510 0.9506
2.1301 12.4091 1.3520 0.9506
1.6826 12.4803 1.3523 0.9506
1.2328 12.5345 1.3525 0.9506
0.7767 12.5010 1.3450 0.9509
0.3802 14.5859 1.5668 0.9430
-1.1994 14.6131 1.5745 0.9427
-1.7222 14.5421 1.5725 0.9428
-3.9285 14.6602 1.6298 0.9408
-5.4614 10.5488 1.2756 0.9533
-27.7788 38.7737 5.1218 0.8254
-27.8262 36.0278 4.8883 0.8327
-25.9370 29.0044 4.1782 0.8551
-27.8182 26.9314 4.1577 0.8558
-26.3870 22.1009 3.6961 0.8707
-33.3300 24.0603 4.4141 0.8476
-39.1304 26.1590 5.0543 0.8275
-28.4058 17.5446 3.5852 0.8743
-28.3760 16.1456 3.5058 0.8769
40.8205 13.5838 3.6419 0.8414
32.9051 13.6495 3.0157 0.8667
25.1597 13.7830 2.4285 0.8912
24.7189 14.7218 2.4355 0.8909
24.7630 17.2750 2.5559 0.8859
24.7867 18.6523 2.6260 0.8829
24.8119 20.1093 2.7036 0.8797
29.0721 27.2502 3.3731 0.8522
13.2681 14.3638 1.6553 0.9245
12.3541 14.3796 1.6048 0.9267
11.4301 14.3154 1.5507 0.9291
8.5513 13.4643 1.3502 0.9380
7.5621 14.0464 1.3504 0.9380
7.0524 14.3104 1.3505 0.9380
5.2922 14.5013 1.3068 0.9399
4.7984 14.7789 1.3154 0.9395
4.1435 14.5211 1.2783 0.9412
3.0285 14.4939 1.2534 0.9423
1.4327 14.5678 1.2392 0.9429
-0.6709 14.6041 1.2376 0.9430
-2.2802 14.7025 1.2595 0.9420
-2.7980 14.5607 1.2552 0.9422
-10.3629 33.7630 2.9897 0.8678
-11.8126 34.0652 3.0522 0.8653
-16.7511 35.4211 3.3169 0.8545
-23.5146 38.3792 3.8102 0.8347
-25.9475 36.2177 3.7716 0.8362
-25.9438 33.5906 3.5929 0.8433
-25.9404 31.1981 3.4347 0.8497
-25.9344 26.9816 3.1681 0.8605
-25.7216 24.9016 3.0306 0.8661
-33.5705 26.1213 3.6008 0.8430
-39.1322 26.1602 3.9847 0.8278
-28.4061 17.5448 2.8263 0.8746
42.3684 10.7855 2.7111 0.8393
34.8165 11.5858 2.2754 0.8632
29.9545 11.1802 1.9826 0.8797
30.0242 12.4545 2.0156 0.8779
29.9370 13.7006 2.0416 0.8764
27.3841 13.7446 1.9000 0.8844
24.7187 14.7216 1.7841 0.8911
12.3541 14.3796 1.1756 0.9268
11.5488 14.4641 1.1478 0.9285
10.6787 14.4084 1.1121 0.9306
8.5945 12.5136 0.9414 0.9410
9.1675 14.4345 1.0604 0.9338
7.7839 14.4583 1.0182 0.9363
7.1327 14.4735 1.0006 0.9374
6.5014 14.4846 0.9845 0.9384
4.7983 14.7786 0.9635 0.9396
2.4985 14.5551 0.9158 0.9425
1.4327 14.5678 0.9077 0.9430
-0.6709 14.6040 0.9066 0.9431
-1.1994 14.6132 0.9092 0.9429
-1.7401 14.6932 0.9175 0.9424
-2.2802 14.7025 0.9226 0.9421
-2.7980 14.5607 0.9194 0.9423
-3.3660 14.6505 0.9321 0.9415
-3.9285 14.6602 0.9412 0.9410
-8.9685 29.2199 1.8954 0.8847
-10.1746 29.3416 1.9258 0.8830
-12.7248 29.6203 1.9991 0.8788
-14.0930 29.8004 2.0442 0.8762
-5.4614 10.5488 0.7366 0.9535
-18.6785 30.4859 2.2171 0.8665
-20.4126 30.7732 2.2899 0.8624
-22.2854 31.1060 2.3728 0.8578
-23.7133 30.7026 2.4056 0.8560
-28.9111 26.0410 2.4128 0.8556
-31.2769 24.3367 2.4575 0.8531
-36.4730 24.3825 2.7205 0.8388
42.3644 10.7846 1.7238 0.8395
29.9370 13.7006 1.2982 0.8765
27.2983 13.7015 1.2044 0.8849
25.1597 13.7829 1.1312 0.8915
24.7863 18.6520 1.2232 0.8832
24.8381 21.6566 1.2994 0.8764
23.4314 21.9631 1.2664 0.8794
12.3541 14.3796 0.7475 0.9269
11.5488 14.4641 0.7298 0.9286
10.6787 14.4084 0.7072 0.9307
8.5948 12.5140 0.5986 0.9410
8.4617 14.4466 0.6602 0.9352
6.5047 14.4919 0.6264 0.9384
4.7982 14.7782 0.6127 0.9397
3.0408 14.5525 0.5862 0.9422
2.4997 14.5620 0.5826 0.9426
1.4327 14.5678 0.5772 0.9431
0.7767 12.5010 0.4939 0.9511
-3.3660 14.6505 0.5927 0.9416
-3.9285 14.6602 0.5985 0.9411
-8.1269 26.4777 1.0921 0.8951
-9.2030 26.5397 1.1076 0.8936
-11.4640 26.6855 1.1452 0.8902
-5.4614 10.5488 0.4684 0.9536
-15.2273 26.9870 1.2218 0.8833
-16.6113 27.1120 1.2538 0.8805
-18.0759 27.2505 1.2894 0.8773
-21.2840 27.5573 1.3730 0.8699
-23.0616 27.7358 1.4223 0.8655
-25.9349 26.9822 1.4757 0.8609
-26.7667 25.9133 1.4690 0.8615
-26.9443 24.2695 1.4299 0.8649
-26.3123 22.0383 1.3534 0.8716
-31.1787 24.2603 1.5577 0.8537
-33.6664 24.3031 1.6373 0.8469
-28.4301 16.1764 1.2898 0.8773
40.8204 13.5837 0.7267 0.8419
36.4084 13.5891 0.6565 0.8560
32.9050 13.6495 0.6018 0.8672
24.7623 17.2745 0.5100 0.8862
24.7861 18.6518 0.5240 0.8833
23.4314 21.9631 0.5425 0.8794
13.2680 14.3638 0.3303 0.9248
10.6787 14.4084 0.3029 0.9308
8.5951 12.5144 0.2564 0.9411
9.1675 14.4345 0.2888 0.9339
8.4617 14.4466 0.2828 0.9352
7.1400 14.4883 0.2728 0.9374
5.0491 12.4274 0.2266 0.9478
4.7981 14.7779 0.2625 0.9397
4.1435 14.5211 0.2551 0.9414
3.5863 14.5307 0.2528 0.9419
1.9629 14.5587 0.2481 0.9429
1.4327 14.5678 0.2473 0.9431
0.7767 12.5010 0.2116 0.9511
0.3802 14.5859 0.2465 0.9433
-1.7401 14.6932 0.2499 0.9425
-2.2802 14.7025 0.2513 0.9422
-5.7175 18.6281 0.3291 0.9250
-10.5669 24.5972 0.4522 0.8984
-16.4660 24.8235 0.5032 0.8877
-19.2666 24.9454 0.5324 0.8815
-20.7995 25.0152 0.5495 0.8780
-22.4385 25.0921 0.5686 0.8740
-26.0062 21.7819 0.5730 0.8731
-26.0325 20.2560 0.5572 0.8764
-26.0575 18.8104 0.5429 0.8794
-26.1038 16.1228 0.5183 0.8845
-28.3769 16.1461 0.5515 0.8776
42.3566 10.7826 -0.2461 0.8396
40.6184 13.5165 -0.2410 0.8426
24.7181 14.7212 -0.1620 0.8913
24.7396 15.9670 -0.1658 0.8889
24.7621 17.2744 -0.1700 0.8862
24.7858 18.6516 -0.1746 0.8833
24.8109 20.1085 -0.1798 0.8801
13.2680 14.3638 -0.1101 0.9248
12.3541 14.3795 -0.1067 0.9270
11.4931 14.3944 -0.1037 0.9290
10.6787 14.4084 -0.1010 0.9308
8.5954 12.5148 -0.0855 0.9411
9.1675 14.4345 -0.0963 0.9339
8.4617 14.4466 -0.0943 0.9352
5.2922 14.5013 -0.0869 0.9401
4.1435 14.5211 -0.0850 0.9414
3.0436 14.5662 -0.0838 0.9422
2.5020 14.5755 -0.0833 0.9426
1.9629 14.5587 -0.0827 0.9429
0.7767 12.5010 -0.0705 0.9511
0.3802 14.5859 -0.0821 0.9433
-0.1448 14.5950 -0.0822 0.9433
-1.1994 14.6131 -0.0826 0.9430
-2.7980 14.5607 -0.0835 0.9424
-5.7528 16.5900 -0.0989 0.9322
-5.8470 15.0851 -0.0911 0.9373
-9.8562 22.9429 -0.1406 0.9049
-12.9575 22.9643 -0.1485 0.8999
-15.2415 22.9774 -0.1552 0.8956
-20.5684 23.0010 -0.1737 0.8839
-22.1133 23.0062 -0.1797 0.8802
-25.1111 22.6183 -0.1903 0.8736
-26.0328 20.2562 -0.1857 0.8764
-26.0577 18.8105 -0.1809 0.8794
-26.1040 16.1229 -0.1727 0.8845
34.4445 11.4620 -1.0222 0.8648
32.5793 12.1599 -0.9792 0.8701
29.9370 13.7006 -0.9270 0.8766
27.3841 13.7446 -0.8628 0.8846
24.7179 14.7211 -0.8101 0.8913
24.7394 15.9669 -0.8291 0.8889
20.1400 17.5603 -0.7524 0.8986
12.3541 14.3795 -0.5338 0.9269
8.5956 12.5152 -0.4275 0.9411
9.1675 14.4345 -0.4815 0.9339
8.4617 14.4466 -0.4714 0.9352
6.5066 14.4961 -0.4474 0.9384
5.0491 12.4274 -0.3777 0.9477
4.1435 14.5211 -0.4252 0.9414
3.0416 14.5567 -0.4187 0.9422
2.5004 14.5660 -0.4161 0.9426
1.9629 14.5587 -0.4136 0.9429
0.7767 12.5010 -0.3527 0.9511
0.3802 14.5859 -0.4108 0.9433
-0.1448 14.5950 -0.4110 0.9433
-1.1994 14.6131 -0.4129 0.9430
-1.7317 14.6223 -0.4146 0.9428
-2.2692 14.6316 -0.4169 0.9425
-2.8134 14.6409 -0.4198 0.9421
-3.3660 14.6505 -0.4233 0.9416
-3.9285 14.6602 -0.4274 0.9411
-5.7178 18.6289 -0.5487 0.9250
-5.7529 16.5903 -0.4944 0.9321
-15.3695 21.4528 -0.7431 0.8998
-16.5445 21.4209 -0.7621 0.8974
-17.7810 21.3849 -0.7831 0.8947
-20.4721 21.2988 -0.8318 0.8885
-24.8077 20.7780 -0.9112 0.8785
-26.0330 20.2564 -0.9288 0.8763
-26.0816 17.4357 -0.8834 0.8820
-26.1042 16.1231 -0.8639 0.8845
-28.4308 16.1768 -0.9211 0.8773
47.7015 10.3312 -2.4752 0.8224
35.9926 10.5550 -1.9022 0.8605
29.1198 13.3266 -1.6241 0.8796
27.2300 13.6672 -1.5451 0.8851
25.1597 13.7829 -1.4549 0.8915
21.3150 14.8696 -1.3180 0.9011
19.8013 14.9007 -1.2568 0.9055
19.2498 15.6013 -1.2566 0.9055
18.1378 15.8145 -1.2204 0.9081
16.2989 16.4183 -1.1733 0.9115
12.3541 14.3795 -0.9614 0.9269
10.6787 14.4084 -0.9095 0.9307
8.5959 12.5156 -0.7700 0.9410
7.7839 14.4583 -0.8328 0.9363
6.5018 14.4854 -0.8052 0.9384
5.0491 12.4274 -0.6803 0.9477
3.5863 14.5307 -0.7590 0.9418
1.9629 14.5587 -0.7450 0.9429
1.4327 14.5678 -0.7424 0.9431
0.7767 12.5010 -0.6352 0.9511
-1.1994 14.6131 -0.7436 0.9430
-2.2692 14.6316 -0.7509 0.9424
-3.3660 14.6505 -0.7623 0.9416
-5.7179 18.6294 -0.9883 0.9249
-5.7530 16.5907 -0.8905 0.9321
-8.7614 20.3943 -1.1257 0.9149
-5.4615 10.5489 -0.6024 0.9535
-11.4485 20.2899 -1.1815 0.9109
-12.4044 20.2457 -1.2041 0.9093
-16.6249 19.9945 -1.3187 0.9011
-20.3643 19.7150 -1.4374 0.8927
-23.2388 19.4640 -1.5373 0.8857
-24.3247 18.9271 -1.5631 0.8839
-26.0818 17.4359 -1.5911 0.8819
-26.1044 16.1232 -1.5560 0.8844
-28.4310 16.1769 -1.6589 0.8772
34.1825 2.3742 -2.5124 0.8716
34.0746 3.6024 -2.5123 0.8716
33.9223 4.8259 -2.5123 0.8716
33.7258 6.0430 -2.5122 0.8716
33.4857 7.2523 -2.5122 0.8716
33.2018 8.4520 -2.5121 0.8716
30.8723 9.0534 -2.3590 0.8789
28.1634 10.5117 -2.2042 0.8864
22.9820 9.5333 -1.8243 0.9050
27.3315 12.5082 -2.2039 0.8864
25.1597 13.7829 -2.1034 0.8913
21.0586 12.5418 -1.7972 0.9064
18.8246 13.1323 -1.6829 0.9121
16.2601 14.1774 -1.5818 0.9171
13.2680 14.3638 -1.4337 0.9246
12.3541 14.3795 -1.3900 0.9268
9.0974 12.2748 -1.1203 0.9406
7.8100 12.2970 -1.0681 0.9432
6.6312 12.3173 -1.0257 0.9454
5.5371 12.3362 -0.9914 0.9472
4.5376 12.4336 -0.9705 0.9483
4.0867 12.5870 -0.9703 0.9483
3.6307 12.7240 -0.9702 0.9483
2.2376 13.0353 -0.9698 0.9483
1.7669 13.1054 -0.9696 0.9483
1.2941 13.1585 -0.9695 0.9484
-0.1448 14.5950 -1.0702 0.9431
-1.1994 14.6131 -1.0751 0.9429
-1.7317 14.6223 -1.0796 0.9427
-2.2692 14.6316 -1.0856 0.9423
-2.8134 14.6409 -1.0931 0.9420
-5.7181 18.6298 -1.4289 0.9248
-9.0847 19.2103 -1.5581 0.9183
-11.6453 19.0068 -1.6344 0.9145
-13.4910 18.8308 -1.6985 0.9113
-14.4626 18.7254 -1.7348 0.9095
-15.4697 18.6051 -1.7741 0.9075
-18.7539 18.1560 -1.9139 0.9006
-23.8634 17.2265 -2.1580 0.8887
-24.5773 16.4301 -2.1677 0.8882
-25.9769 16.0445 -2.2387 0.8847
-27.8027 15.8194 -2.3454 0.8796
26.1287 0.8720 -2.5099 0.9003
26.0803 1.8114 -2.5099 0.9003
25.8818 3.6820 -2.5098 0.9003
25.7321 4.6107 -2.5098 0.9003
25.5490 5.5334 -2.5097 0.9003
25.3327 6.4488 -2.5096 0.9003
25.0835 7.3558 -2.5096 0.9003
24.8017 8.2532 -2.5095 0.9003
22.6715 9.4044 -2.3564 0.9061
22.3174 10.2135 -2.3563 0.9061
20.7767 10.4282 -2.2318 0.9108
19.7022 10.7932 -2.1567 0.9137
16.8794 11.7753 -1.9759 0.9206
16.2425 13.1640 -2.0072 0.9194
16.2786 15.2584 -2.1420 0.9142
13.2680 14.3638 -1.8773 0.9244
8.2309 11.9842 -1.3958 0.9433
5.9256 12.0239 -1.2869 0.9476
4.8924 12.0418 -1.2478 0.9491
3.9565 12.1859 -1.2300 0.9498
3.0552 12.3789 -1.2241 0.9501
2.5883 12.3870 -1.2149 0.9504
2.1277 12.3949 -1.2074 0.9507
1.2206 12.4105 -1.1972 0.9511
0.7715 12.4183 -1.1945 0.9512
0.3239 12.4260 -1.1934 0.9513
-0.1448 14.5950 -1.4013 0.9430
-2.2692 14.6316 -1.4215 0.9422
-3.3660 14.6505 -1.4432 0.9414
-5.7182 18.6302 -1.8709 0.9247
-5.7533 16.5913 -1.6859 0.9319
-5.8470 15.0851 -1.5532 0.9371
-7.5974 17.6848 -1.8479 0.9256
-8.5218 18.0197 -1.9137 0.9230
-10.0674 17.8423 -1.9668 0.9210
-12.5252 17.4828 -2.0647 0.9172
-17.0754 16.5310 -2.2817 0.9089
-18.0549 16.2626 -2.3328 0.9070
-19.9664 15.5359 -2.4288 0.9033
-21.9778 14.6923 -2.5380 0.8992
-22.9163 14.1540 -2.5859 0.8974
21.1045 0.7043 -2.5083 0.9185
20.9053 2.9740 -2.5083 0.9185
20.6366 4.4695 -2.5082 0.9185
20.2608 5.9416 -2.5081 0.9185
19.7800 7.3827 -2.5079 0.9185
15.7671 10.9993 -2.2836 0.9255
14.4876 12.6319 -2.2832 0.9255
14.0229 13.1441 -2.2831 0.9255
13.5401 13.6393 -2.2829 0.9255
13.0397 14.1166 -2.2828 0.9255
12.3541 14.3795 -2.2519 0.9265
8.6767 11.7072 -1.7309 0.9430
8.0481 11.7180 -1.6886 0.9443
7.4488 11.7283 -1.6504 0.9456
6.8753 11.7382 -1.6159 0.9467
6.3246 11.7477 -1.5848 0.9477
5.2810 11.7657 -1.5319 0.9494
4.7837 11.7743 -1.5096 0.9501
3.4432 12.0667 -1.4906 0.9507
2.9801 12.0747 -1.4773 0.9511
2.0754 12.0903 -1.4572 0.9518
1.6311 12.0979 -1.4501 0.9520
0.3160 12.1206 -1.4402 0.9523
-1.1994 14.6131 -1.7417 0.9426
-1.7401 14.6932 -1.7575 0.9421
-2.2802 14.7025 -1.7673 0.9418
-3.3660 14.6504 -1.7856 0.9412
-3.9285 14.6602 -1.8029 0.9407
-5.7534 16.5917 -2.0860 0.9317
-5.8470 15.0851 -1.9218 0.9369
-7.0605 16.4351 -2.1248 0.9305
-7.7214 16.3273 -2.1454 0.9298
-11.5197 16.0793 -2.3496 0.9234
-12.2674 15.8831 -2.3839 0.9223
-13.0200 15.6589 -2.4191 0.9212
-13.7517 15.3780 -2.4505 0.9203
-14.4300 15.0127 -2.4735 0.9195
-16.6200 13.9204 -2.5752 0.9164
-17.3480 13.4985 -2.6110 0.9153
-18.3526 12.2688 -2.6223 0.9149
-18.7462 11.5784 -2.6173 0.9151
17.5972 1.8604 -2.5072 0.9310
17.4175 3.1209 -2.5072 0.9310
17.1474 4.3651 -2.5071 0.9310
16.5761 6.1868 -2.5069 0.9310
16.3423 6.7790 -2.5068 0.9310
16.0873 7.3623 -2.5068 0.9310
15.8115 7.9361 -2.5067 0.9310
13.6235 9.5039 -2.3536 0.9351
13.2722 9.9874 -2.3535 0.9351
12.8659 10.4274 -2.3465 0.9353
12.1419 10.5867 -2.2825 0.9370
11.7526 11.0161 -2.2824 0.9370
11.3480 11.4311 -2.2822 0.9370
10.9288 11.8313 -2.2821 0.9370
8.2806 11.1728 -1.9705 0.9454
7.8408 11.4161 -1.9623 0.9456
7.2569 11.4261 -1.9179 0.9468
6.6982 11.4358 -1.8778 0.9479
6.1616 11.4450 -1.8417 0.9488
5.6447 11.4539 -1.8093 0.9497
4.7834 11.7735 -1.8006 0.9500
4.1892 11.4790 -1.7314 0.9518
3.7720 11.6174 -1.7307 0.9519
1.5949 11.8292 -1.6912 0.9529
1.1641 11.8366 -1.6852 0.9531
0.7358 11.8440 -1.6814 0.9532
-0.1448 14.5950 -2.0681 0.9427
-0.6709 14.6040 -2.0714 0.9426
-1.1994 14.6131 -2.0775 0.9425
-1.7317 14.6223 -2.0863 0.9422
-2.8134 14.6409 -2.1124 0.9415
-3.3660 14.6504 -2.1299 0.9411
-4.7159 15.3647 -2.2773 0.9371
-5.2653 15.1840 -2.2771 0.9371
-6.4967 15.1227 -2.3321 0.9357
-7.0843 14.9801 -2.3479 0.9352
-8.5738 15.1951 -2.4721 0.9319
-11.5281 13.8647 -2.5548 0.9297
-13.3233 12.8986 -2.6275 0.9278
-13.7445 12.3800 -2.6210 0.9280
-14.1440 11.8465 -2.6141 0.9282
-14.8790 10.7409 -2.6001 0.9285
-15.5264 9.5898 -2.5857 0.9289
-15.6560 8.9080 -2.5522 0.9298
15.2064 0.5074 -2.5065 0.9402
15.1783 1.0542 -2.5065 0.9402
15.1304 1.5996 -2.5065 0.9402
14.9759 2.6834 -2.5064 0.9402
14.7438 3.7532 -2.5063 0.9402
14.5989 4.2812 -2.5063 0.9402
14.4352 4.8035 -2.5062 0.9402
14.2528 5.3196 -2.5062 0.9402
13.8326 6.3304 -2.5061 0.9402
13.3407 7.3083 -2.5059 0.9402
11.9097 8.3084 -2.3922 0.9428
11.4123 8.5879 -2.3529 0.9437
11.0956 8.9926 -2.3528 0.9437
10.7644 9.3855 -2.3527 0.9437
10.4192 9.7663 -2.3526 0.9438
7.0852 11.1558 -2.1771 0.9478
6.0158 11.1742 -2.0906 0.9499
5.5111 11.1829 -2.0538 0.9507
5.0232 11.1913 -2.0208 0.9515
3.6910 11.3682 -1.9690 0.9527
3.2794 11.4929 -1.9689 0.9527
2.4050 11.5098 -1.9371 0.9535
1.9770 11.5171 -1.9251 0.9537
1.5538 11.5244 -1.9157 0.9540
1.1341 11.5317 -1.9089 0.9541
0.7169 11.5388 -1.9046 0.9542
0.3010 11.5460 -1.9027 0.9543
-0.6347 13.8165 -2.2785 0.9455
-1.1313 13.7838 -2.2784 0.9455
-1.5625 10.0751 -1.6796 0.9595
-1.9180 9.9811 -1.6744 0.9596
-3.0960 13.4754 -2.2778 0.9455
-3.5786 13.3544 -2.2776 0.9455
-4.0565 13.2161 -2.2775 0.9455
-4.9956 12.8886 -2.2772 0.9455
-5.4558 12.6997 -2.2770 0.9455
-5.9088 12.4944 -2.2769 0.9455
-7.8557 12.8216 -2.4772 0.9409
-8.7790 13.2349 -2.6164 0.9376
-10.2095 12.2788 -2.6307 0.9373
-10.6451 11.9041 -2.6308 0.9373
-11.3803 11.0174 -2.6094 0.9378
-12.0895 10.1257 -2.5979 0.9381
-13.0418 8.0551 -2.5253 0.9397
-13.3105 7.5735 -2.5229 0.9398
13.3246 0.4446 -2.5059 0.9472
13.2581 1.4016 -2.5059 0.9472
13.1990 1.8777 -2.5059 0.9472
13.1227 2.3513 -2.5058 0.9472
13.0295 2.8219 -2.5058 0.9472
12.9194 3.2888 -2.5058 0.9472
12.7925 3.7514 -2.5057 0.9472
12.4891 4.6614 -2.5056 0.9472
12.3131 5.1076 -2.5056 0.9472
12.1211 5.5471 -2.5055 0.9472
11.6902 6.4041 -2.5054 0.9472
10.9311 7.6256 -2.5052 0.9472
10.2165 8.2801 -2.4718 0.9479
9.5114 8.2930 -2.3719 0.9499
8.8162 8.8808 -2.3521 0.9503
8.4907 9.1919 -2.3520 0.9503
7.8070 9.7777 -2.3518 0.9504
7.0831 10.3128 -2.3516 0.9504
6.5893 10.3750 -2.3102 0.9512
4.8872 10.8881 -2.2432 0.9526
4.4579 10.9723 -2.2261 0.9529
4.0600 11.1250 -2.2260 0.9529
3.6413 11.2151 -2.2163 0.9531
2.7717 11.2301 -2.1742 0.9540
1.1073 11.2588 -2.1264 0.9550
0.6999 11.2658 -2.1216 0.9551
-0.5563 12.1097 -2.2785 0.9519
-1.5478 9.9803 -1.8983 0.9597
-3.1367 11.7052 -2.2777 0.9519
-3.5555 11.5841 -2.2776 0.9519
-4.3788 11.2972 -2.2774 0.9519
-4.7822 11.1317 -2.2772 0.9519
-5.4615 10.5490 -2.2328 0.9528
-6.9055 11.2707 -2.4845 0.9476
-8.9278 10.7374 -2.6247 0.9448
-9.5877 9.9749 -2.6005 0.9452
-9.9219 9.6055 -2.5957 0.9453
-11.6497 6.6285 -2.5193 0.9469
11.8462 0.3953 -2.5054 0.9527
11.8243 0.8212 -2.5054 0.9527
11.7870 1.2461 -2.5054 0.9527
11.7345 1.6694 -2.5054 0.9527
4.3908 1.4611 -0.9782 0.9813
4.3333 1.6174 -0.9777 0.9813
10.5917 5.3162 -2.5051 0.9527
10.1815 6.0637 -2.5049 0.9527
9.9565 6.4259 -2.5049 0.9527
9.7185 6.7798 -2.5048 0.9527
9.2053 7.4605 -2.5046 0.9527
8.2059 8.2660 -2.4620 0.9535
7.6451 8.2764 -2.3816 0.9550
6.9413 8.6934 -2.3515 0.9555
6.6237 8.9372 -2.3514 0.9555
5.9634 9.3895 -2.3512 0.9555
5.2723 9.7931 -2.3510 0.9555
4.5540 10.1459 -2.3508 0.9556
4.1858 10.3027 -2.3507 0.9556
3.7778 10.3515 -2.3293 0.9559
3.3598 10.3480 -2.2998 0.9565
1.4407 10.6856 -2.2792 0.9569
1.0553 10.7300 -2.2790 0.9569
0.2809 10.7770 -2.2788 0.9569
-0.1070 10.7795 -2.2787 0.9569
-0.8817 10.7428 -2.2784 0.9569
-1.2676 10.7035 -2.2783 0.9569
-1.9063 9.9204 -2.1353 0.9595
-3.5683 10.2902 -2.3022 0.9564
-4.7904 10.1295 -2.3685 0.9552
-5.1871 10.0189 -2.3848 0.9549
-5.5877 9.9030 -2.4035 0.9546
-5.9665 9.7381 -2.4141 0.9544
-6.3379 9.5548 -2.4236 0.9542
-7.2200 10.0778 -2.6205 0.9506
-8.1185 9.0786 -2.5744 0.9514
-8.8833 8.0014 -2.5272 0.9523
-9.1593 7.6715 -2.5255 0.9523
-9.6739 6.9834 -2.5220 0.9524
-9.9118 6.6261 -2.5202 0.9524
-10.1365 6.2607 -2.5184 0.9525
10.6332 0.7385 -2.5051 0.9571
10.5997 1.1206 -2.5051 0.9571
10.5525 1.5012 -2.5050 0.9571
4.4798 0.8027 -1.0696 0.9815
4.1307 0.8946 -0.9933 0.9828
3.9788 1.1668 -0.9745 0.9831
3.9367 1.3100 -0.9751 0.9831
3.9282 1.7978 -1.0153 0.9824
9.5249 4.7807 -2.5047 0.9572
9.1561 5.4530 -2.5046 0.9572
8.9537 5.7787 -2.5045 0.9572
8.7398 6.0970 -2.5045 0.9572
8.2783 6.7093 -2.5043 0.9572
7.7739 7.2867 -2.5042 0.9572
7.5065 7.5614 -2.5041 0.9572
7.2293 7.8263 -2.5040 0.9572
6.5869 8.2496 -2.4811 0.9576
6.1204 8.2580 -2.4158 0.9586
5.6814 8.2716 -2.3584 0.9596
5.3631 8.4442 -2.3510 0.9597
5.0556 8.6314 -2.3509 0.9597
4.7416 8.8073 -2.3508 0.9597
4.4215 8.9718 -2.3507 0.9597
4.0957 9.1247 -2.3506 0.9597
3.4286 9.3947 -2.3504 0.9597
3.0883 9.5116 -2.3503 0.9597
2.3961 9.7082 -2.3501 0.9597
1.6916 9.8544 -2.3499 0.9597
1.3359 9.9084 -2.3498 0.9598
0.2605 9.9932 -2.3494 0.9598
-0.8176 9.9617 -2.3491 0.9598
-1.1754 9.9254 -2.3490 0.9598
-1.8859 9.8142 -2.3488 0.9598
-2.9320 9.5526 -2.3485 0.9598
-3.6149 9.3264 -2.3508 0.9597
-3.9472 9.1882 -2.3503 0.9597
-4.2740 9.0377 -2.3496 0.9598
-4.5959 8.8770 -2.3493 0.9598
-5.9198 8.9244 -2.5169 0.9569
-6.5826 8.5228 -2.5309 0.9567
-6.8810 8.2757 -2.5295 0.9567
-7.1705 8.0184 -2.5281 0.9568
-7.4502 7.7510 -2.5267 0.9568
-7.7198 7.4737 -2.5253 0.9568
-8.2276 6.8911 -2.5223 0.9569
-8.4650 6.5866 -2.5208 0.9569
-8.6910 6.2739 -2.5192 0.9569
-9.2983 5.2906 -2.5143 0.9570
9.6686 0.3227 -2.5048 0.9608
5.2460 0.7463 -1.3720 0.9783
3.6213 1.3516 -1.0008 0.9842
3.5856 1.4873 -1.0051 0.9841
8.4831 4.6471 -2.5044 0.9608
8.3102 4.9492 -2.5043 0.9608
8.1266 5.2449 -2.5043 0.9608
7.5136 6.0895 -2.5041 0.9608
6.8131 6.8630 -2.5039 0.9608
6.5616 7.1034 -2.5038 0.9608
4.8248 8.2373 -2.4717 0.9613
4.4378 8.2431 -2.4239 0.9621
4.0648 8.2481 -2.3808 0.9627
3.7175 8.2822 -2.3505 0.9632
3.4170 8.4103 -2.3504 0.9632
3.1121 8.5274 -2.3503 0.9632
2.1749 8.8120 -2.3500 0.9632
1.8564 8.8841 -2.3499 0.9632
1.5355 8.9448 -2.3498 0.9632
0.8882 9.0313 -2.3496 0.9632
-0.0900 9.0732 -2.3493 0.9632
-0.4164 9.0637 -2.3492 0.9632
-1.0670 9.0095 -2.3490 0.9632
-2.3479 8.7618 -2.3486 0.9632
-2.9716 8.5696 -2.3484 0.9632
-5.0496 8.2417 -2.5026 0.9608
-5.9667 7.7254 -2.5274 0.9605
-6.2379 7.5022 -2.5262 0.9605
-6.9994 6.7763 -2.5224 0.9605
-7.2348 6.5166 -2.5211 0.9606
-7.6763 5.9729 -2.5183 0.9606
-8.4340 4.7988 -2.5125 0.9607
8.8421 0.2950 -2.5045 0.9639
8.8257 0.6130 -2.5045 0.9639
8.7979 0.9301 -2.5045 0.9639
4.0608 0.7276 -1.1679 0.9830
3.5324 0.8992 -1.0319 0.9850
3.4822 1.0212 -1.0273 0.9850
3.4494 1.1479 -1.0292 0.9850
3.4142 1.2743 -1.0317 0.9850
3.3500 1.5331 -1.0429 0.9848
3.3549 1.6839 -1.0627 0.9845
7.0674 5.3184 -2.5040 0.9639
6.8714 5.5690 -2.5039 0.9639
6.6664 5.8125 -2.5038 0.9639
6.0009 6.4964 -2.5036 0.9639
5.2655 7.1045 -2.5034 0.9639
4.4689 7.6297 -2.5032 0.9639
3.6203 8.0660 -2.5029 0.9639
2.6704 8.2246 -2.4480 0.9647
2.3475 8.2268 -2.4219 0.9651
0.2163 8.2963 -2.3494 0.9661
-0.0823 8.2984 -2.3493 0.9661
-0.3808 8.2897 -2.3493 0.9661
-0.6788 8.2703 -2.3492 0.9661
-0.9759 8.2403 -2.3491 0.9661
-1.2741 8.2185 -2.3544 0.9660
-1.8841 8.2006 -2.3820 0.9656
-2.1959 8.1945 -2.4017 0.9653
-2.8366 8.1802 -2.4511 0.9646
-3.1675 8.1720 -2.4812 0.9642
-3.7763 7.9852 -2.5006 0.9639
-4.0610 7.8439 -2.5005 0.9639
-4.6142 7.5310 -2.5003 0.9639
-5.1575 7.1989 -2.5070 0.9639
-5.4404 7.0440 -2.5196 0.9637
-5.6990 6.8541 -2.5235 0.9636
-5.9393 6.6417 -2.5223 0.9636
-6.3956 6.1917 -2.5200 0.9637
-6.6110 5.9547 -2.5188 0.9637
-7.0150 5.4584 -2.5163 0.9637
-7.3816 4.9346 -2.5136 0.9638
8.1374 0.2715 -2.5043 0.9665
3.3210 0.9739 -1.0645 0.9856
3.2665 1.2192 -1.0724 0.9855
3.1694 1.5908 -1.0908 0.9853
3.2013 1.7537 -1.1227 0.9848
6.9944 4.1656 -2.5039 0.9665
6.8398 4.4144 -2.5039 0.9665
6.6764 4.6575 -2.5038 0.9665
6.5044 4.8946 -2.5038 0.9665
6.3240 5.1253 -2.5037 0.9665
5.9387 5.5665 -2.5036 0.9665
5.0783 6.3602 -2.5033 0.9665
4.8461 6.5386 -2.5033 0.9665
4.6075 6.7085 -2.5032 0.9665
4.1130 7.0220 -2.5030 0.9665
3.8575 7.1652 -2.5030 0.9665
3.5971 7.2991 -2.5029 0.9665
2.7895 7.6434 -2.5026 0.9665
2.2325 7.8237 -2.5025 0.9665
1.9494 7.8987 -2.5024 0.9665
1.6639 7.9634 -2.5023 0.9665
0.7962 8.0955 -2.5020 0.9665
0.5044 8.1186 -2.5019 0.9665
0.2118 8.1312 -2.5018 0.9665
-0.0808 8.1333 -2.5017 0.9665
-0.3733 8.1248 -2.5017 0.9665
-0.9565 8.0763 -2.5015 0.9665
-1.2465 8.0364 -2.5014 0.9665
-2.1049 7.8545 -2.5011 0.9665
-2.3859 7.7734 -2.5010 0.9665
-2.6639 7.6822 -2.5009 0.9665
-3.2092 7.4703 -2.5008 0.9665
-3.4758 7.3498 -2.5007 0.9665
-3.9951 7.0804 -2.5005 0.9665
-4.7377 6.6129 -2.5021 0.9665
-4.9846 6.4537 -2.5082 0.9664
-5.4616 6.1075 -2.5201 0.9663
-5.8816 5.6941 -2.5179 0.9663
-6.0800 5.4764 -2.5168 0.9663
-6.4521 5.0204 -2.5145 0.9664
-6.6254 4.7827 -2.5133 0.9664
-6.7898 4.5390 -2.5121 0.9664
-6.9453 4.2897 -2.5108 0.9664
7.5291 0.2512 -2.5041 0.9687
4.3215 0.6148 -1.4510 0.9818
3.7500 0.6720 -1.2664 0.9841
3.1585 1.0511 -1.1065 0.9861
3.0700 1.4050 -1.1223 0.9859
6.3286 4.0844 -2.5037 0.9687
6.1774 4.3094 -2.5037 0.9687
5.6768 4.9496 -2.5035 0.9688
5.4949 5.1505 -2.5035 0.9688
5.3059 5.3447 -2.5034 0.9688
3.8056 6.4973 -2.5029 0.9688
3.5693 6.6298 -2.5029 0.9688
3.0831 6.8689 -2.5027 0.9688
2.8339 6.9751 -2.5026 0.9688
2.3249 7.1604 -2.5025 0.9688
2.0657 7.2392 -2.5024 0.9688
1.8039 7.3086 -2.5023 0.9688
1.5397 7.3685 -2.5022 0.9688
0.7367 7.4908 -2.5020 0.9688
0.4667 7.5122 -2.5019 0.9688
-0.6156 7.5004 -2.5016 0.9688
-0.8850 7.4732 -2.5015 0.9688
-1.6849 7.3336 -2.5012 0.9688
-1.9476 7.2680 -2.5012 0.9688
-2.2077 7.1929 -2.5011 0.9688
-2.4650 7.1087 -2.5010 0.9688
-2.9696 6.9126 -2.5008 0.9688
-3.2163 6.8010 -2.5008 0.9688
-3.6968 6.5518 -2.5006 0.9688
-3.9300 6.4143 -2.5005 0.9688
-4.1581 6.2686 -2.5005 0.9688
-5.0498 5.6470 -2.5182 0.9686
-5.2476 5.4596 -2.5172 0.9686
-5.4385 5.2651 -2.5162 0.9686
-5.9666 4.6426 -2.5130 0.9686
-6.1271 4.4230 -2.5119 0.9686
-6.2794 4.1978 -2.5108 0.9687
-6.5589 3.7320 -2.5084 0.9687
6.9980 0.2335 -2.5039 0.9707
6.9851 0.4852 -2.5039 0.9707
6.9631 0.7362 -2.5039 0.9707
4.0843 0.5810 -1.4753 0.9826
3.1767 0.6880 -1.1624 0.9863
3.1100 0.7917 -1.1476 0.9865
3.0059 1.1219 -1.1474 0.9865
2.9222 1.4667 -1.1692 0.9862
2.9031 1.5904 -1.1837 0.9860
2.8940 1.7236 -1.2045 0.9858
5.7417 4.0055 -2.5035 0.9707
5.5938 4.2094 -2.5035 0.9707
5.4387 4.4078 -2.5035 0.9707
5.1074 4.7873 -2.5034 0.9707
4.9318 4.9679 -2.5033 0.9707
4.7497 5.1419 -2.5032 0.9707
3.9626 5.7695 -2.5030 0.9707
3.3177 6.1624 -2.5028 0.9707
3.0937 6.2776 -2.5027 0.9707
2.8658 6.3846 -2.5027 0.9707
2.6342 6.4835 -2.5026 0.9707
2.1610 6.6557 -2.5024 0.9707
1.9201 6.7289 -2.5024 0.9707
1.4312 6.8492 -2.5022 0.9707
0.9349 6.9339 -2.5021 0.9707
0.6848 6.9629 -2.5020 0.9707
-0.0694 6.9954 -2.5017 0.9707
-0.3210 6.9881 -2.5017 0.9707
-0.8226 6.9466 -2.5015 0.9707
-1.0720 6.9122 -2.5014 0.9707
-1.8104 6.7559 -2.5012 0.9707
-2.0522 6.6862 -2.5011 0.9707
-2.2913 6.6078 -2.5011 0.9707
-2.5275 6.5209 -2.5010 0.9707
-2.7604 6.4256 -2.5009 0.9707
-2.9897 6.3220 -2.5008 0.9707
-3.2151 6.2101 -2.5008 0.9707
-3.8652 5.8271 -2.5006 0.9707
-4.0723 5.6841 -2.5005 0.9707
-4.2743 5.5341 -2.5006 0.9707
-4.8747 5.0715 -2.5156 0.9706
-5.0521 4.8911 -2.5146 0.9706
-5.5432 4.3131 -2.5117 0.9706
6.5300 0.2179 -2.5038 0.9724
6.5179 0.4527 -2.5038 0.9724
6.4974 0.6869 -2.5038 0.9724
3.9707 0.5649 -1.5370 0.9830
3.3663 0.6032 -1.3106 0.9855
2.9655 0.8696 -1.1843 0.9868
2.9334 0.9761 -1.1847 0.9868
2.9129 1.0872 -1.1915 0.9868
2.8904 1.1990 -1.1992 0.9867
2.8357 1.4233 -1.2159 0.9865
2.8070 1.5377 -1.2265 0.9864
2.7910 1.6622 -1.2449 0.9862
5.2197 3.9279 -2.5034 0.9724
5.0750 4.1131 -2.5033 0.9724
4.9236 4.2929 -2.5033 0.9724
4.6020 4.6356 -2.5032 0.9724
4.4321 4.7981 -2.5031 0.9724
4.2565 4.9543 -2.5031 0.9724
4.0754 5.1041 -2.5030 0.9724
3.6977 5.3838 -2.5029 0.9724
3.5015 5.5132 -2.5029 0.9724
3.0958 5.7504 -2.5027 0.9724
2.8869 5.8579 -2.5027 0.9724
2.4581 6.0500 -2.5025 0.9724
2.2387 6.1343 -2.5025 0.9724
2.0165 6.2107 -2.5024 0.9724
1.7917 6.2791 -2.5023 0.9724
1.5646 6.3393 -2.5023 0.9724
1.1047 6.4350 -2.5021 0.9724
-0.0648 6.5279 -2.5017 0.9724
-0.5340 6.5060 -2.5016 0.9724
-0.7677 6.4824 -2.5015 0.9724
-1.0004 6.4504 -2.5015 0.9724
-1.2317 6.4100 -2.5014 0.9724
-1.4615 6.3613 -2.5013 0.9724
-1.9151 6.2395 -2.5012 0.9724
-2.3587 6.0852 -2.5010 0.9724
-2.5760 5.9963 -2.5010 0.9724
-2.7900 5.8996 -2.5009 0.9724
-3.4091 5.5642 -2.5007 0.9724
-4.1720 5.0176 -2.5007 0.9724
-5.3097 3.8329 -2.5096 0.9723
-5.4420 3.6380 -2.5086 0.9723
-5.6850 3.2347 -2.5066 0.9724
6.1139 0.2040 -2.5037 0.9739
3.8695 0.5505 -1.5996 0.9832
3.2545 0.5831 -1.3532 0.9858
2.9416 0.6371 -1.2318 0.9871
2.8996 0.7381 -1.2246 0.9872
2.8731 0.8426 -1.2254 0.9871
2.8358 1.0584 -1.2388 0.9870
2.8055 1.2839 -1.2628 0.9868
2.7929 1.4018 -1.2790 0.9866
2.7797 1.5228 -1.2972 0.9864
5.0165 3.4995 -2.5033 0.9739
4.8872 3.6777 -2.5033 0.9739
4.6099 4.0194 -2.5032 0.9739
4.3088 4.3404 -2.5031 0.9739
4.1498 4.4925 -2.5031 0.9739
3.8158 4.7791 -2.5030 0.9739
2.8987 5.3841 -2.5027 0.9739
2.0962 5.7437 -2.5024 0.9739
1.6776 5.8792 -2.5023 0.9739
1.4650 5.9357 -2.5022 0.9739
0.8169 6.0584 -2.5020 0.9739
0.5984 6.0838 -2.5020 0.9739
0.3791 6.1012 -2.5019 0.9739
-0.0606 6.1123 -2.5017 0.9739
-0.2805 6.1060 -2.5017 0.9739
-0.5000 6.0918 -2.5016 0.9739
-0.9367 6.0397 -2.5015 0.9739
-1.1533 6.0020 -2.5014 0.9739
-1.3685 5.9564 -2.5013 0.9739
-1.5819 5.9032 -2.5013 0.9739
-2.0021 5.7738 -2.5011 0.9739
-2.6124 5.5241 -2.5010 0.9739
-3.0027 5.3217 -2.5008 0.9739
-3.1922 5.2101 -2.5008 0.9739
-3.3775 5.0918 -2.5007 0.9739
-3.5584 4.9668 -2.5007 0.9739
-3.9062 4.6979 -2.5006 0.9739
-4.0729 4.5546 -2.5007 0.9739
-4.2385 4.4096 -2.5033 0.9739
-4.4089 4.2683 -2.5116 0.9738
-4.7022 3.9384 -2.5104 0.9738
-4.8392 3.7654 -2.5095 0.9738
5.7307 0.3980 -2.5035 0.9752
3.1441 0.5634 -1.3921 0.9862
2.9000 0.6281 -1.2932 0.9871
2.8123 1.0497 -1.3082 0.9870
2.7974 1.1604 -1.3199 0.9869
2.7688 1.3897 -1.3502 0.9866
2.7551 1.5093 -1.3691 0.9864
4.7108 3.2863 -2.5032 0.9752
4.5894 3.4536 -2.5032 0.9752
4.1904 3.9277 -2.5031 0.9753
4.0463 4.0759 -2.5030 0.9753
3.7426 4.3561 -2.5029 0.9753
3.5834 4.4879 -2.5029 0.9753
3.2512 4.7337 -2.5028 0.9753
2.9023 4.9550 -2.5027 0.9753
2.7221 5.0562 -2.5026 0.9753
2.5383 5.1507 -2.5026 0.9753
2.3514 5.2385 -2.5025 0.9753
2.1613 5.3196 -2.5024 0.9753
1.9685 5.3938 -2.5024 0.9753
1.7731 5.4610 -2.5023 0.9753
1.3758 5.5741 -2.5022 0.9753
1.1743 5.6198 -2.5021 0.9753
0.7671 5.6894 -2.5020 0.9753
-0.0570 5.7400 -2.5017 0.9753
-0.2634 5.7341 -2.5017 0.9753
-0.6750 5.7001 -2.5016 0.9753
-0.8796 5.6719 -2.5015 0.9753
-1.4856 5.5437 -2.5013 0.9753
-1.6840 5.4866 -2.5012 0.9753
-2.0741 5.3510 -2.5011 0.9753
-2.4534 5.1878 -2.5010 0.9753
-2.9978 4.8929 -2.5008 0.9753
-3.5073 4.5411 -2.5007 0.9753
-3.8247 4.2770 -2.5006 0.9753
-4.1267 3.9951 -2.5032 0.9752
-4.5428 3.5347 -2.5086 0.9752
-4.7820 3.1968 -2.5069 0.9752
-4.9959 2.8426 -2.5051 0.9752
5.3954 0.3747 -2.5034 0.9764
3.5995 0.5121 -1.6829 0.9841
3.0196 0.5411 -1.4200 0.9866
2.8746 0.6226 -1.3614 0.9871
2.8304 0.7205 -1.3519 0.9872
2.8188 0.8266 -1.3597 0.9871
2.8046 0.9333 -1.3682 0.9871
2.7901 1.0414 -1.3785 0.9870
2.7465 1.3785 -1.4224 0.9865
2.7319 1.4965 -1.4418 0.9864
2.7148 1.6169 -1.4626 0.9862
2.6992 1.7421 -1.4870 0.9859
4.4351 3.0940 -2.5031 0.9764
4.3209 3.2515 -2.5031 0.9764
4.0758 3.5537 -2.5030 0.9764
3.5236 4.1013 -2.5029 0.9764
3.3737 4.2253 -2.5028 0.9764
3.0611 4.4568 -2.5027 0.9765
2.8987 4.5639 -2.5027 0.9765
2.7325 4.6652 -2.5026 0.9765
2.5629 4.7604 -2.5026 0.9765
2.3899 4.8494 -2.5025 0.9765
2.0349 5.0084 -2.5024 0.9765
1.8533 5.0783 -2.5023 0.9765
0.7222 5.3567 -2.5020 0.9765
0.5291 5.3791 -2.5019 0.9765
0.3352 5.3945 -2.5019 0.9765
0.1409 5.4029 -2.5018 0.9765
-0.0536 5.4044 -2.5017 0.9765
-0.4421 5.3863 -2.5016 0.9765
-1.0198 5.3069 -2.5015 0.9765
-1.3987 5.2196 -2.5013 0.9765
-1.5855 5.1658 -2.5013 0.9765
-1.7703 5.1053 -2.5012 0.9765
-1.9528 5.0381 -2.5012 0.9765
-2.3099 4.8845 -2.5010 0.9765
-2.8226 4.6069 -2.5009 0.9765
-2.9865 4.5022 -2.5008 0.9765
-3.1464 4.3918 -2.5008 0.9765
-3.3023 4.2756 -2.5007 0.9765
-3.4540 4.1540 -2.5007 0.9765
-3.6011 4.0270 -2.5006 0.9765
-3.8815 3.7577 -2.5007 0.9765
-4.0181 3.6192 -2.5032 0.9764
-4.1545 3.4797 -2.5085 0.9764
-4.2757 3.3269 -2.5077 0.9764
-4.6048 2.8441 -2.5053 0.9764
-4.7026 2.6757 -2.5045 0.9764
5.1006 0.1702 -2.5033 0.9775
5.0912 0.3536 -2.5033 0.9775
3.4848 0.4958 -1.7266 0.9844
2.8058 0.7143 -1.4202 0.9872
2.7821 0.9258 -1.4383 0.9870
2.7101 1.4846 -1.5157 0.9863
2.7546 1.9216 -1.6475 0.9851
4.0773 3.0682 -2.5030 0.9775
3.7228 3.4895 -2.5029 0.9775
3.5948 3.6211 -2.5029 0.9775
3.4621 3.7480 -2.5028 0.9775
3.3250 3.8701 -2.5028 0.9775
2.8885 4.2056 -2.5027 0.9775
2.7353 4.3067 -2.5026 0.9775
2.2552 4.5761 -2.5025 0.9775
2.0891 4.6542 -2.5024 0.9775
1.9202 4.7262 -2.5024 0.9775
1.7489 4.7921 -2.5023 0.9775
1.2223 4.9524 -2.5021 0.9775
1.0433 4.9930 -2.5021 0.9775
0.6816 5.0549 -2.5020 0.9775
0.1329 5.0985 -2.5018 0.9775
-0.2340 5.0947 -2.5017 0.9775
-0.4172 5.0828 -2.5016 0.9775
-0.7816 5.0394 -2.5015 0.9775
-0.9623 5.0079 -2.5015 0.9775
-1.1418 4.9700 -2.5014 0.9775
-1.3199 4.9255 -2.5014 0.9775
-1.4962 4.8747 -2.5013 0.9775
-1.6706 4.8177 -2.5012 0.9775
-1.8428 4.7543 -2.5012 0.9775
-2.0126 4.6849 -2.5011 0.9775
-2.1798 4.6094 -2.5011 0.9775
-2.3442 4.5279 -2.5010 0.9775
-2.5055 4.4405 -2.5010 0.9775
-2.8182 4.2487 -2.5009 0.9775
-3.1163 4.0348 -2.5008 0.9775
-3.2594 3.9200 -2.5008 0.9775
-3.3983 3.8002 -2.5007 0.9775
-3.5328 3.6754 -2.5007 0.9775
-3.6626 3.5459 -2.5006 0.9775
-4.0336 3.1386 -2.5070 0.9775
-4.1427 2.9905 -2.5062 0.9775
-4.2463 2.8386 -2.5055 0.9775
-4.4367 2.5244 -2.5039 0.9775
4.8226 0.1609 -2.5033 0.9785
4.8137 0.3343 -2.5033 0.9785
4.7986 0.5073 -2.5033 0.9785
2.8232 0.6114 -1.4986 0.9871
2.7867 0.7094 -1.4918 0.9871
2.7739 0.8135 -1.4996 0.9871
2.7448 1.0245 -1.5199 0.9869
2.7281 1.1317 -1.5322 0.9868
2.7129 1.2415 -1.5477 0.9866
2.7006 1.3555 -1.5676 0.9865
2.6740 1.5925 -1.6146 0.9861
2.6588 1.7160 -1.6416 0.9858
2.7133 1.8928 -1.7163 0.9852
3.7482 3.0378 -2.5029 0.9785
3.6364 3.1706 -2.5029 0.9785
3.5200 3.2993 -2.5029 0.9785
3.3989 3.4238 -2.5028 0.9785
3.2735 3.5438 -2.5028 0.9785
3.1438 3.6592 -2.5027 0.9785
2.8725 3.8757 -2.5027 0.9785
2.7311 3.9765 -2.5026 0.9785
2.2867 4.2473 -2.5025 0.9785
2.1323 4.3268 -2.5024 0.9785
1.9752 4.4006 -2.5024 0.9785
1.4895 4.5875 -2.5022 0.9785
0.9865 4.7210 -2.5021 0.9785
0.8160 4.7533 -2.5020 0.9785
0.6444 4.7795 -2.5020 0.9785
0.4720 4.7995 -2.5019 0.9785
0.2991 4.8133 -2.5019 0.9785
-0.0478 4.8221 -2.5018 0.9785
-0.2213 4.8172 -2.5017 0.9785
-0.9099 4.7352 -2.5015 0.9785
-1.0797 4.6993 -2.5014 0.9785
-1.7425 4.4954 -2.5012 0.9785
-2.0611 4.3583 -2.5011 0.9785
-2.3691 4.1987 -2.5010 0.9785
-2.6648 4.0173 -2.5009 0.9785
-2.8075 3.9188 -2.5009 0.9785
-2.9467 3.8152 -2.5009 0.9785
-3.2133 3.5933 -2.5008 0.9785
-3.5816 3.2260 -2.5007 0.9785
-3.8069 2.9621 -2.5024 0.9785
-4.0140 2.6834 -2.5049 0.9785
-4.1068 2.5365 -2.5041 0.9785
4.5678 0.1524 -2.5032 0.9794
4.5594 0.3166 -2.5032 0.9794
4.5450 0.4805 -2.5032 0.9794
3.1891 0.4537 -1.7643 0.9854
2.7991 0.6062 -1.5686 0.9870
2.7539 0.8076 -1.5718 0.9870
2.7402 0.9118 -1.5817 0.9869
2.7237 1.0166 -1.5923 0.9868
2.6913 1.2317 -1.6211 0.9866
2.6798 1.3451 -1.6423 0.9864
2.6675 1.4613 -1.6659 0.9862
2.6533 1.5803 -1.6915 0.9860
2.6404 1.7041 -1.7212 0.9858
2.6741 1.8655 -1.7858 0.9852
3.5502 2.8773 -2.5029 0.9794
3.1006 3.3566 -2.5027 0.9794
2.9778 3.4659 -2.5027 0.9794
2.4496 3.8570 -2.5025 0.9794
2.3092 3.9425 -2.5025 0.9794
2.1659 4.0230 -2.5024 0.9794
1.8709 4.1681 -2.5023 0.9794
1.4108 4.3452 -2.5022 0.9794
1.2536 4.3931 -2.5022 0.9794
1.0947 4.4352 -2.5021 0.9794
0.6104 4.5271 -2.5020 0.9794
0.4471 4.5461 -2.5019 0.9794
0.1191 4.5662 -2.5018 0.9794
-0.7000 4.5134 -2.5015 0.9794
-0.8619 4.4852 -2.5015 0.9794
-1.0227 4.4512 -2.5014 0.9794
-1.1821 4.4114 -2.5014 0.9794
-1.3400 4.3659 -2.5013 0.9794
-1.4962 4.3148 -2.5013 0.9794
-2.5241 3.8052 -2.5010 0.9794
-2.7911 3.6138 -2.5009 0.9794
-2.9193 3.5110 -2.5009 0.9794
-3.5002 2.9316 -2.5007 0.9794
-3.9719 2.2599 -2.5029 0.9794
4.3331 0.1446 -2.5031 0.9802
4.3251 0.3004 -2.5031 0.9802
4.3115 0.4558 -2.5031 0.9802
2.7481 0.6996 -1.6372 0.9870
2.7344 0.8019 -1.6452 0.9869
2.7040 1.0092 -1.6664 0.9868
2.6873 1.1147 -1.6797 0.9867
2.6714 1.2225 -1.6961 0.9865
2.6597 1.3349 -1.7181 0.9863
2.6468 1.4500 -1.7424 0.9862
2.6326 1.5679 -1.7690 0.9859
2.6249 1.6941 -1.8037 0.9857
3.4639 2.6066 -2.5028 0.9802
3.3678 2.7295 -2.5028 0.9802
3.1627 2.9645 -2.5027 0.9802
2.7046 3.3873 -2.5026 0.9802
2.5810 3.4824 -2.5026 0.9802
1.7748 3.9540 -2.5023 0.9802
1.6314 4.0153 -2.5023 0.9802
1.1892 4.1675 -2.5021 0.9802
1.0385 4.2075 -2.5021 0.9802
0.8864 4.2420 -2.5020 0.9802
0.7332 4.2711 -2.5020 0.9802
0.2687 4.3250 -2.5018 0.9802
0.1129 4.3317 -2.5018 0.9802
-0.5096 4.3028 -2.5016 0.9802
-0.6640 4.2816 -2.5016 0.9802
-0.8176 4.2549 -2.5015 0.9802
-0.9702 4.2226 -2.5015 0.9802
-1.1214 4.1849 -2.5014 0.9802
-1.5657 4.0395 -2.5013 0.9802
-1.8521 3.9163 -2.5012 0.9802
-1.9917 3.8471 -2.5011 0.9802
-2.3945 3.6099 -2.5010 0.9802
-2.5228 3.5213 -2.5010 0.9802
-2.7694 3.3307 -2.5009 0.9802
-2.8874 3.2289 -2.5009 0.9802
-3.0017 3.1229 -2.5008 0.9802
-3.3205 2.7812 -2.5007 0.9802
-3.4184 2.6598 -2.5007 0.9802
-3.5118 2.5351 -2.5007 0.9802
-3.6014 2.4075 -2.5011 0.9802
-3.6887 2.2783 -2.5031 0.9802
