ply
format ascii 1.0
element vertex 1316
property float32 x
property float32 y
property float32 z
property float32 I
end_header
35.9977 -11.8352 6.6816 0.8573
36.1396 -10.4565 6.6338 0.8583
36.5024 -9.1515 6.6355 0.8583
36.7594 11.1436 6.7730 0.8555
8.9176 3.0579 1.6623 0.9624
36.5371 15.5486 7.0016 0.8511
36.6803 17.1941 7.1431 0.8483
34.4002 19.2574 6.9514 0.8520
15.4756 9.4104 3.1937 0.9291
13.2976 9.4599 2.8775 0.9359
12.3603 9.4812 2.7468 0.9387
10.4800 10.7547 2.6478 0.9408
8.9222 11.3908 2.5513 0.9429
5.9867 9.6243 1.9986 0.9550
5.5856 9.7449 1.9805 0.9554
5.1340 9.7549 1.9437 0.9562
3.8240 9.6731 1.8341 0.9586
3.4300 9.6819 1.8111 0.9591
3.0797 9.8006 1.8114 0.9591
2.6986 9.8090 1.7939 0.9595
2.3243 9.8172 1.7789 0.9599
1.9556 9.8254 1.7665 0.9601
1.2175 9.7306 1.7291 0.9610
0.8638 9.7383 1.7239 0.9611
-0.6448 11.6023 2.0490 0.9539
-1.0656 11.6114 2.0560 0.9537
-1.7426 13.5914 2.4162 0.9459
-2.7255 13.4787 2.4248 0.9457
-4.7221 19.6777 3.5682 0.9211
-5.4826 19.6940 3.6046 0.9203
-6.5123 13.4295 2.6317 0.9412
-7.0268 12.1733 2.4784 0.9445
-7.6317 12.1861 2.5353 0.9433
-8.2659 12.1995 2.5984 0.9419
-8.9333 12.2135 2.6682 0.9404
-9.5089 12.0639 2.7085 0.9395
-10.3867 12.2441 2.8311 0.9369
-11.1834 12.2600 2.9261 0.9348
-11.9833 12.2227 3.0182 0.9328
-12.7319 11.2411 2.9948 0.9333
-12.7505 10.4655 2.9086 0.9352
8.9025 3.0527 1.4418 0.9626
11.5060 9.5028 2.2861 0.9414
10.4544 9.9829 2.2145 0.9432
10.3012 11.3621 2.3495 0.9398
8.2903 11.4071 2.1603 0.9445
5.9878 9.6260 1.7367 0.9552
3.8247 9.6747 1.5937 0.9588
2.6990 9.8105 1.5588 0.9597
2.3246 9.8188 1.5458 0.9600
1.2177 9.7321 1.5025 0.9611
0.6081 11.5767 1.7759 0.9542
0.1909 11.5859 1.7751 0.9542
-2.2225 13.4700 2.0914 0.9463
-4.7228 19.6808 3.1006 0.9214
-7.8767 19.7485 3.2571 0.9176
-6.5190 13.4434 2.2888 0.9413
-6.5458 12.3459 2.1407 0.9450
-8.2675 12.2017 2.2579 0.9421
-8.9350 12.2159 2.3186 0.9406
-10.3888 12.2466 2.4602 0.9371
-11.3026 12.3907 2.5693 0.9344
-12.7203 12.0728 2.6866 0.9315
-12.7398 11.2481 2.6035 0.9335
8.8876 3.0476 1.2235 0.9628
15.4033 10.1433 2.4017 0.9283
13.3043 9.4647 2.1262 0.9363
12.3663 9.4858 2.0295 0.9391
10.4654 10.7397 1.9527 0.9413
10.3032 11.3643 1.9975 0.9400
9.7155 11.5238 1.9628 0.9410
9.0383 11.5390 1.9087 0.9426
8.2919 11.4092 1.8366 0.9447
7.7860 11.5669 1.8157 0.9453
5.9888 9.6277 1.4765 0.9553
4.7000 9.7679 1.4116 0.9572
4.0484 9.2521 1.3151 0.9601
3.8253 9.6763 1.3549 0.9589
2.9153 9.2771 1.2663 0.9615
2.5545 9.2850 1.2540 0.9619
2.2988 9.7099 1.2994 0.9605
0.1608 9.7566 1.2707 0.9614
-0.1906 9.7643 1.2718 0.9614
-0.5431 9.7720 1.2745 0.9613
-1.2549 9.7874 1.2850 0.9610
-2.2228 13.4721 1.7781 0.9464
-2.7264 13.4829 1.7913 0.9460
-4.7236 19.6839 2.6360 0.9216
-5.4844 19.7002 2.6629 0.9208
-7.0588 19.7341 2.7292 0.9189
-6.5521 12.3578 1.8214 0.9451
-8.9367 12.2182 1.9712 0.9408
-9.7423 12.3601 2.0494 0.9385
-10.3909 12.2491 2.0917 0.9373
-12.7283 12.0805 2.2852 0.9317
-12.7476 11.2550 2.2144 0.9337
-12.7658 10.4781 2.1506 0.9356
39.4170 -12.9594 4.4556 0.8463
18.1068 -2.5082 1.9629 0.9291
8.8728 3.0426 1.0072 0.9630
10.4404 9.9696 1.5502 0.9436
10.4582 10.7323 1.6091 0.9415
9.7174 11.5261 1.6189 0.9412
9.0400 11.5411 1.5742 0.9427
7.7874 11.5689 1.4975 0.9454
5.1367 9.7599 1.1843 0.9566
4.4483 9.2448 1.1017 0.9596
3.8006 9.6138 1.1101 0.9593
2.5548 9.2865 1.0343 0.9620
1.9565 9.8299 1.0763 0.9605
1.5924 9.8378 1.0702 0.9607
1.2181 9.7350 1.0535 0.9613
0.8642 9.7428 1.0503 0.9614
0.1608 9.7581 1.0480 0.9615
-0.1907 9.7658 1.0489 0.9615
-0.5432 9.7734 1.0511 0.9614
-0.8977 9.7811 1.0547 0.9613
-1.2551 9.7889 1.0598 0.9611
-2.7268 13.4850 1.4774 0.9462
-4.7243 19.6869 2.1740 0.9218
-5.4852 19.7033 2.1962 0.9210
-6.2629 19.7201 2.2218 0.9201
-7.9464 19.9233 2.3033 0.9173
-6.5323 13.4709 1.6076 0.9415
-6.5583 12.3696 1.5034 0.9452
-7.0305 12.1797 1.5101 0.9450
-7.6359 12.1927 1.5448 0.9438
-8.2705 12.2062 1.5833 0.9424
-9.7442 12.3626 1.6903 0.9386
-12.0674 12.3086 1.8510 0.9330
-12.7363 12.0881 1.8856 0.9318
-12.7554 11.2619 1.8272 0.9338
-12.7733 10.4843 1.7745 0.9357
45.2160 -13.0826 3.9847 0.8278
18.0091 -2.4947 1.5391 0.9296
18.0231 -1.8384 1.5336 0.9299
8.8582 3.0375 0.7927 0.9631
12.3722 9.4903 1.3200 0.9393
11.5139 9.5094 1.2641 0.9418
10.7244 9.5269 1.2143 0.9440
10.3073 11.3688 1.2991 0.9403
9.5981 11.3846 1.2605 0.9420
8.9289 11.3994 1.2258 0.9435
8.2949 11.4134 1.1944 0.9449
7.6917 11.4267 1.1660 0.9462
5.5722 9.7215 0.9486 0.9560
5.1375 9.7615 0.9338 0.9567
4.4490 9.2463 0.8686 0.9596
3.7955 9.6008 0.8739 0.9594
2.2996 9.7129 0.8450 0.9607
1.2182 9.7365 0.8307 0.9614
0.8644 9.7442 0.8281 0.9615
0.5122 9.7519 0.8267 0.9616
0.1608 9.7596 0.8263 0.9616
-0.5433 9.7749 0.8288 0.9615
-2.7272 13.4871 1.1648 0.9463
-4.7250 19.6900 1.7141 0.9219
-5.4861 19.7064 1.7316 0.9212
-6.2639 19.7232 1.7518 0.9203
-6.5390 13.4846 1.2686 0.9416
-7.6373 12.1948 1.2181 0.9439
-8.2720 12.2085 1.2484 0.9425
-8.9401 12.2228 1.2819 0.9410
-10.0002 11.7885 1.3086 0.9398
-10.6967 11.7265 1.3436 0.9383
-12.7632 11.2688 1.4413 0.9339
39.7815 -13.0793 2.5968 0.8455
45.1898 -13.0750 2.9172 0.8282
18.0147 -1.8375 1.1229 0.9300
20.2797 -1.3333 1.2603 0.9218
20.4924 2.3536 1.2791 0.9207
20.2615 3.8200 1.2786 0.9207
8.8436 3.0326 0.5797 0.9632
20.6145 7.9090 1.3692 0.9153
20.4749 8.7132 1.3798 0.9147
13.3143 9.4718 1.0132 0.9366
12.3751 9.4926 0.9672 0.9394
10.7267 9.5290 0.8897 0.9441
10.4267 9.9565 0.8940 0.9439
10.4439 10.7176 0.9280 0.9418
10.3093 11.3711 0.9518 0.9403
9.5999 11.3867 0.9236 0.9421
8.9306 11.4015 0.8981 0.9436
5.9919 9.6327 0.7035 0.9556
5.5668 9.7120 0.6942 0.9561
5.1384 9.7631 0.6841 0.9567
4.0504 9.2566 0.6266 0.9603
3.7904 9.5879 0.6393 0.9595
3.4327 9.6895 0.6374 0.9596
1.9571 9.8329 0.6217 0.9606
1.5929 9.8408 0.6182 0.9608
0.8645 9.7457 0.6067 0.9615
0.5123 9.7533 0.6056 0.9616
-0.1907 9.7687 0.6059 0.9616
-0.5434 9.7763 0.6072 0.9615
-0.8980 9.7840 0.6093 0.9614
-7.0622 19.7436 1.3003 0.9194
-7.8818 19.7613 1.3193 0.9183
-6.5456 13.4984 0.9303 0.9416
-6.5587 12.3704 0.8682 0.9454
-7.6262 12.1773 0.8910 0.9440
-10.0022 11.7909 0.9588 0.9399
-10.7040 11.7344 0.9849 0.9383
-11.4632 11.6922 1.0154 0.9365
-12.7523 12.1033 1.0902 0.9320
-12.7709 11.2756 1.0564 0.9340
-12.7884 10.4967 1.0259 0.9358
39.3565 -12.9395 1.6336 0.8472
45.1636 -13.0675 1.8539 0.8284
18.0064 -1.8366 0.7137 0.9301
20.4027 -1.3413 0.8062 0.9214
20.4187 -0.6056 0.8055 0.9215
20.4666 1.6068 0.8095 0.9211
20.4993 3.1054 0.8175 0.9204
20.0517 6.0787 0.8262 0.9195
8.8292 3.0276 0.3680 0.9633
20.6042 7.9050 0.8702 0.9154
20.6233 8.7764 0.8838 0.9142
20.4507 9.5864 0.8906 0.9136
22.6301 11.6191 1.0031 0.9032
15.5015 9.4261 0.7154 0.9299
13.3176 9.4742 0.6445 0.9367
10.7291 9.5311 0.5659 0.9442
10.4199 9.9500 0.5681 0.9440
8.9322 11.4036 0.5712 0.9437
8.2979 11.4175 0.5565 0.9451
5.9929 9.6344 0.4474 0.9556
5.5614 9.7026 0.4410 0.9562
5.1392 9.7648 0.4351 0.9568
4.6502 9.6644 0.4229 0.9580
4.2329 9.6736 0.4164 0.9586
3.8277 9.6824 0.4105 0.9592
3.4332 9.6911 0.4054 0.9597
3.0480 9.6995 0.4009 0.9601
2.6708 9.7077 0.3970 0.9605
2.3003 9.7158 0.3937 0.9608
1.9354 9.7238 0.3909 0.9611
1.5752 9.7316 0.3887 0.9613
1.2186 9.7394 0.3870 0.9615
0.8646 9.7471 0.3859 0.9616
0.5124 9.7548 0.3852 0.9617
-0.1908 9.7701 0.3853 0.9616
-0.8981 9.7855 0.3875 0.9614
-1.2556 9.7933 0.3893 0.9612
-2.2241 13.4802 0.5387 0.9468
-2.7280 13.4912 0.5427 0.9464
-6.2596 19.7098 0.8154 0.9205
-7.0563 19.7271 0.8261 0.9196
-7.8752 19.7449 0.8382 0.9184
-6.5118 14.7592 0.6361 0.9375
-6.5650 12.3821 0.5526 0.9454
-7.6276 12.1794 0.5667 0.9441
-8.9290 12.2076 0.5964 0.9413
-9.6310 12.2189 0.6135 0.9396
-10.0042 11.7932 0.6098 0.9400
-12.7479 12.0991 0.6930 0.9321
-12.7663 11.2715 0.6715 0.9341
45.1375 -13.0599 0.7937 0.8286
20.3816 -0.6045 0.3444 0.9217
20.4411 0.8662 0.3456 0.9214
20.4294 1.6039 0.3462 0.9213
20.4456 2.3481 0.3476 0.9210
20.4619 3.0998 0.3496 0.9205
20.4784 3.8609 0.3520 0.9200
20.4952 4.6336 0.3549 0.9194
20.5850 8.7601 0.3779 0.9144
20.6045 9.6585 0.3844 0.9130
20.3985 10.4734 0.3873 0.9123
13.3209 9.4765 0.2761 0.9367
12.3810 9.4971 0.2636 0.9395
10.7314 9.5332 0.2425 0.9442
10.4131 9.9435 0.2432 0.9440
8.9339 11.4057 0.2447 0.9437
7.6958 11.4328 0.2328 0.9464
5.9940 9.6360 0.1917 0.9556
5.0821 9.6563 0.1843 0.9573
4.2336 9.6751 0.1784 0.9586
3.4337 9.6926 0.1737 0.9597
3.0485 9.7009 0.1718 0.9601
2.6710 9.7086 0.1701 0.9605
2.3004 9.7162 0.1687 0.9608
1.9191 9.6417 0.1661 0.9614
1.5594 9.6339 0.1649 0.9617
0.8647 9.7482 0.1653 0.9616
0.1609 9.7639 0.1650 0.9617
-0.5435 9.7793 0.1655 0.9616
-0.8982 9.7870 0.1660 0.9614
-1.2558 9.7948 0.1668 0.9613
-2.7285 13.4932 0.2325 0.9464
-5.4832 19.6960 0.3454 0.9215
-7.0574 19.7302 0.3540 0.9196
-7.8765 19.7481 0.3591 0.9185
-6.5309 14.8025 0.2733 0.9373
-6.5589 13.5258 0.2539 0.9416
-7.0240 12.1685 0.2373 0.9453
-9.6516 12.2450 0.2634 0.9395
-11.2004 12.2787 0.2807 0.9357
-12.0563 12.2972 0.2909 0.9334
-12.7683 12.1184 0.2974 0.9320
-12.7864 11.2892 0.2881 0.9340
-12.8035 10.5090 0.2798 0.9359
45.1115 -13.0524 -0.2644 0.8287
20.3192 -4.3234 -0.1170 0.9203
20.3356 -3.5671 -0.1162 0.9207
17.9897 -1.8349 -0.1018 0.9302
20.3998 -0.6050 -0.1149 0.9216
20.4800 3.1025 -0.1166 0.9205
20.5302 5.4251 -0.1196 0.9186
20.5476 6.2290 -0.1209 0.9177
8.8020 3.0183 -0.0524 0.9635
20.5836 7.8971 -0.1241 0.9156
20.6024 8.7675 -0.1261 0.9143
20.6218 9.6666 -0.1282 0.9129
15.5100 9.4313 -0.1022 0.9300
13.3242 9.4789 -0.0921 0.9367
11.5244 9.5180 -0.0841 0.9420
10.7338 9.5352 -0.0808 0.9442
9.6054 11.3932 -0.0839 0.9421
8.9356 11.4078 -0.0816 0.9437
7.6971 11.4348 -0.0776 0.9464
4.6515 9.6672 -0.0604 0.9580
4.2341 9.6763 -0.0595 0.9586
2.6715 9.7107 -0.0567 0.9605
1.9039 9.5655 -0.0549 0.9617
1.5496 9.5732 -0.0546 0.9620
1.2190 9.7422 -0.0553 0.9615
0.1609 9.7654 -0.0550 0.9617
-0.2266 11.6071 -0.0654 0.9546
-1.0669 11.6254 -0.0657 0.9544
-2.7289 13.4953 -0.0775 0.9464
-4.7279 19.7021 -0.1141 0.9222
-5.4895 19.7187 -0.1152 0.9214
-6.2678 19.7356 -0.1166 0.9205
-6.5380 14.8187 -0.0912 0.9373
-6.5656 13.5395 -0.0847 0.9416
-6.5774 12.4056 -0.0791 0.9454
-7.0253 12.1706 -0.0791 0.9453
-7.6427 12.2035 -0.0811 0.9440
-8.2781 12.2174 -0.0831 0.9427
-8.9323 12.2121 -0.0852 0.9413
-9.7536 12.3745 -0.0887 0.9389
-11.3190 12.4086 -0.0946 0.9350
-12.1065 12.3484 -0.0974 0.9332
-12.7762 12.1260 -0.0992 0.9320
24.7554 -8.1390 -0.7338 0.9010
17.9671 -2.4889 -0.5107 0.9300
17.9813 -1.8341 -0.5089 0.9302
20.3904 -0.6047 -0.5744 0.9216
20.4222 0.8654 -0.5756 0.9215
20.4542 2.3492 -0.5797 0.9209
20.5035 4.6355 -0.5919 0.9193
20.5203 5.4225 -0.5976 0.9186
20.5376 6.2260 -0.6043 0.9177
8.7964 3.0164 -0.2618 0.9635
20.5920 8.7631 -0.6301 0.9143
20.6311 10.5928 -0.6530 0.9114
20.6518 11.5610 -0.6664 0.9096
20.6734 12.5711 -0.6813 0.9077
20.6959 13.6286 -0.6978 0.9056
13.3276 9.4812 -0.4605 0.9366
11.5270 9.5202 -0.4210 0.9419
10.7361 9.5373 -0.4044 0.9442
10.3174 11.3800 -0.4325 0.9404
9.7286 11.5393 -0.4250 0.9414
8.3024 11.4237 -0.3976 0.9451
4.7054 9.7791 -0.3056 0.9575
4.2831 9.7883 -0.3008 0.9581
3.8731 9.7972 -0.2966 0.9587
2.7024 9.8226 -0.2869 0.9601
2.3275 9.8308 -0.2845 0.9604
1.2192 9.7438 -0.2765 0.9615
0.1911 11.5997 -0.3267 0.9546
-0.6457 11.6180 -0.3276 0.9545
-1.0671 11.6272 -0.3288 0.9544
-1.7450 13.6099 -0.3864 0.9466
-2.7293 13.4974 -0.3877 0.9464
-4.7287 19.7051 -0.5706 0.9221
-6.2688 19.7387 -0.5832 0.9205
-7.0667 19.7562 -0.5908 0.9195
-6.5452 14.8349 -0.4566 0.9372
-8.2796 12.2196 -0.4156 0.9426
-6.8327 9.3417 -0.3259 0.9547
-7.0979 9.0052 -0.3229 0.9552
-7.6080 8.9685 -0.3312 0.9540
-8.1927 8.9813 -0.3423 0.9525
-9.5014 9.0179 -0.3689 0.9489
-11.0275 9.0513 -0.4017 0.9445
38.9045 -11.2565 -2.0539 0.8503
36.2752 -9.0946 -1.8966 0.8609
20.3001 -4.3193 -1.0526 0.9202
20.3166 -3.5638 -1.0461 0.9207
17.9588 -2.4877 -0.9195 0.9300
20.3650 -1.3389 -1.0350 0.9215
20.4127 0.8650 -1.0361 0.9214
20.4287 1.6038 -1.0392 0.9212
20.4447 2.3480 -1.0437 0.9209
20.4608 3.0996 -1.0495 0.9205
20.4771 3.8606 -1.0568 0.9199
20.4937 4.6333 -1.0656 0.9193
20.5105 5.4199 -1.0759 0.9185
20.5276 6.2229 -1.0878 0.9177
8.7908 3.0145 -0.4713 0.9635
15.7991 8.8445 -0.9182 0.9300
14.5896 8.8717 -0.8660 0.9339
13.5074 8.8950 -0.8202 0.9373
11.6480 8.9350 -0.7445 0.9429
9.4001 8.9762 -0.6592 0.9493
8.9163 9.1501 -0.6479 0.9501
9.7304 11.5415 -0.7656 0.9413
7.7971 11.5832 -0.7081 0.9456
5.1426 9.7713 -0.5600 0.9567
3.0845 9.8158 -0.5218 0.9596
2.7028 9.8241 -0.5167 0.9600
2.3278 9.8322 -0.5124 0.9603
1.5941 9.8482 -0.5059 0.9608
1.2194 9.7452 -0.4981 0.9614
0.8652 9.7529 -0.4965 0.9615
0.6089 11.5923 -0.5887 0.9546
0.1912 11.6014 -0.5884 0.9546
-0.1782 9.1262 -0.4629 0.9641
-0.5003 9.0019 -0.4572 0.9645
-1.1320 8.8292 -0.4514 0.9650
-1.7882 8.8436 -0.4576 0.9645
-2.4661 8.8584 -0.4663 0.9638
-2.8157 8.8660 -0.4718 0.9634
-4.3148 8.8979 -0.5015 0.9612
-5.1467 8.9162 -0.5221 0.9596
-5.5900 8.9259 -0.5341 0.9587
-6.0548 8.9361 -0.5474 0.9577
-7.6095 8.9703 -0.5966 0.9540
-8.1943 8.9832 -0.6166 0.9525
-9.5035 9.0199 -0.6645 0.9489
26.8572 -7.7708 -2.0500 0.8939
17.9646 -1.8324 -1.3240 0.9301
20.3556 -1.3383 -1.4957 0.9214
20.3715 -0.6042 -1.4943 0.9215
20.3874 0.1295 -1.4949 0.9215
20.4033 0.8646 -1.4974 0.9214
20.4191 1.6031 -1.5018 0.9211
20.4351 2.3470 -1.5082 0.9208
20.4512 3.0982 -1.5166 0.9204
20.4675 3.8588 -1.5272 0.9199
20.5006 5.4173 -1.5547 0.9185
8.7852 3.0125 -0.6810 0.9634
20.5711 8.7542 -1.6392 0.9142
18.7397 8.7844 -1.5175 0.9203
17.1740 8.8179 -1.4155 0.9255
15.8038 8.8471 -1.3280 0.9299
14.5936 8.8742 -1.2523 0.9338
11.6508 8.9371 -1.0766 0.9428
10.8419 8.9544 -1.0310 0.9452
10.0977 8.9703 -0.9903 0.9473
8.7621 8.9919 -0.9206 0.9509
8.1638 9.0047 -0.8912 0.9524
7.6018 9.0168 -0.8647 0.9538
6.7865 8.6641 -0.8070 0.9568
5.8458 8.6844 -0.7676 0.9589
5.4079 8.6938 -0.7507 0.9598
4.9883 8.7028 -0.7355 0.9606
4.5849 8.7115 -0.7218 0.9613
4.1958 8.7199 -0.7095 0.9619
3.8192 8.7281 -0.6985 0.9625
3.0976 8.7437 -0.6801 0.9635
2.7500 8.7512 -0.6726 0.9639
2.4096 8.7586 -0.6661 0.9642
1.7462 8.7730 -0.6559 0.9648
1.4212 8.7800 -0.6522 0.9650
0.1450 8.8026 -0.6455 0.9653
-0.1720 8.8096 -0.6461 0.9653
-0.8098 8.8235 -0.6497 0.9651
-1.1322 8.8305 -0.6528 0.9649
-1.4582 8.8377 -0.6568 0.9647
-2.1243 8.8522 -0.6675 0.9641
-2.4665 8.8598 -0.6743 0.9638
-3.9230 8.8917 -0.7126 0.9618
-5.5910 8.9275 -0.7724 0.9586
-6.0559 8.9378 -0.7916 0.9576
-7.0623 8.9600 -0.8365 0.9553
-8.1960 8.9850 -0.8917 0.9524
-10.2367 9.0381 -1.0013 0.9467
-11.0328 9.0557 -1.0466 0.9444
20.2810 -4.3152 -1.9907 0.9201
17.9420 -2.4854 -1.7390 0.9298
17.9563 -1.8315 -1.7328 0.9300
20.3621 -0.6039 -1.9557 0.9214
20.4096 1.6024 -1.9655 0.9210
20.4416 3.0967 -1.9849 0.9203
20.4578 3.8570 -1.9986 0.9197
20.5425 7.8814 -2.1123 0.9154
18.7460 8.7874 -1.9876 0.9202
17.1794 8.8206 -1.8540 0.9253
15.8085 8.8497 -1.7393 0.9298
12.5390 8.9204 -1.4774 0.9400
10.1000 8.9723 -1.2970 0.9472
8.7639 8.9937 -1.2056 0.9508
8.1654 9.0065 -1.1671 0.9523
5.8468 8.6859 -1.0052 0.9588
4.9892 8.7043 -0.9632 0.9605
4.1965 8.7213 -0.9292 0.9619
3.8198 8.7295 -0.9148 0.9624
3.4541 8.7374 -0.9020 0.9629
3.0981 8.7451 -0.8907 0.9634
2.7504 8.7525 -0.8808 0.9638
2.0757 8.7671 -0.8650 0.9644
1.0990 8.7832 -0.8498 0.9651
0.4621 8.7971 -0.8457 0.9652
0.1451 8.8040 -0.8453 0.9652
-0.8099 8.8248 -0.8508 0.9650
-3.1752 8.8767 -0.9051 0.9628
-3.5437 8.8848 -0.9183 0.9623
-3.9237 8.8932 -0.9332 0.9617
-4.3162 8.9009 -0.9497 0.9610
-4.7240 8.9099 -0.9682 0.9603
-5.1485 8.9193 -0.9887 0.9595
-5.5920 8.9291 -1.0115 0.9585
-6.0570 8.9394 -1.0367 0.9575
-6.5465 8.9502 -1.0646 0.9564
-7.0637 8.9617 -1.0955 0.9552
-7.6126 8.9739 -1.1298 0.9538
-8.1977 8.9869 -1.1678 0.9523
-8.8245 9.0008 -1.2101 0.9506
-10.2391 9.0401 -1.3113 0.9466
-11.0355 9.0579 -1.3706 0.9442
20.2714 -4.3132 -2.4619 0.9199
20.2880 -3.5588 -2.4467 0.9204
20.3367 -1.3370 -2.4209 0.9212
20.3842 0.8638 -2.4235 0.9211
20.4001 1.6016 -2.4307 0.9209
20.4480 3.8552 -2.4717 0.9196
20.4643 4.6267 -2.4922 0.9190
20.4975 6.2138 -2.5442 0.9173
8.7740 3.0087 -1.1018 0.9633
18.7524 8.7903 -2.4601 0.9200
14.6017 8.8791 -2.0300 0.9335
13.5181 8.9020 -1.9227 0.9369
11.6564 8.9413 -1.7451 0.9425
9.4060 8.9819 -1.5449 0.9490
4.5865 8.7145 -1.1698 0.9611
4.1972 8.7228 -1.1499 0.9618
3.8204 8.7309 -1.1321 0.9623
3.0986 8.7464 -1.1022 0.9633
2.4104 8.7613 -1.0794 0.9641
2.0760 8.7685 -1.0704 0.9644
1.4217 8.7827 -1.0568 0.9648
0.4621 8.7984 -1.0466 0.9651
-0.8100 8.8262 -1.0528 0.9649
-1.1325 8.8332 -1.0579 0.9648
-1.4586 8.8404 -1.0643 0.9646
-2.1250 8.8550 -1.0817 0.9640
-2.4673 8.8625 -1.0928 0.9636
-3.9244 8.8947 -1.1548 0.9616
-4.3169 8.9024 -1.1753 0.9609
-4.7248 8.9114 -1.1981 0.9602
-5.1494 8.9209 -1.2235 0.9594
-6.0581 8.9411 -1.2829 0.9574
-6.5477 8.9519 -1.3175 0.9563
-7.6141 8.9757 -1.3981 0.9537
-8.1994 8.9888 -1.4452 0.9522
-9.5099 9.0259 -1.5574 0.9486
16.5032 -4.7750 -2.4342 0.9329
17.1068 -2.3697 -2.4470 0.9326
17.4952 1.3736 -2.4865 0.9316
17.4012 2.6361 -2.4937 0.9314
16.5336 6.3433 -2.5091 0.9310
15.7711 8.0975 -2.5119 0.9309
13.5217 8.9043 -2.2940 0.9367
12.5453 8.9249 -2.1815 0.9397
10.8493 8.9606 -1.9937 0.9447
10.1044 8.9763 -1.9150 0.9469
9.4081 8.9838 -1.8432 0.9488
8.1687 9.0101 -1.7232 0.9521
7.6062 9.0220 -1.6720 0.9534
6.7903 8.6690 -1.5603 0.9565
6.3078 8.6792 -1.5202 0.9576
5.8489 8.6890 -1.4841 0.9586
5.4107 8.6984 -1.4515 0.9595
4.9909 8.7073 -1.4220 0.9603
4.1979 8.7243 -1.3718 0.9616
3.8210 8.7323 -1.3505 0.9622
3.0991 8.7478 -1.3150 0.9632
2.7513 8.7553 -1.3003 0.9636
2.4108 8.7626 -1.2877 0.9639
2.0763 8.7699 -1.2769 0.9642
1.7470 8.7770 -1.2680 0.9645
0.4622 8.7997 -1.2485 0.9650
0.1451 8.8066 -1.2480 0.9650
-0.8101 8.8275 -1.2560 0.9648
-1.4588 8.8417 -1.2697 0.9644
-1.7893 8.8490 -1.2792 0.9642
-2.1253 8.8564 -1.2905 0.9639
-3.1762 8.8796 -1.3362 0.9626
-3.5449 8.8877 -1.3558 0.9621
-3.9250 8.8962 -1.3777 0.9615
-4.7257 8.9130 -1.4294 0.9601
-5.1503 8.9224 -1.4597 0.9592
-5.5940 8.9323 -1.4933 0.9583
-6.5490 8.9536 -1.5718 0.9562
-7.0664 8.9652 -1.6174 0.9549
-10.7269 8.8046 -1.9663 0.9455
14.7970 -4.8649 -2.5660 0.9388
14.9733 -4.3323 -2.5679 0.9388
14.4102 -2.5277 -2.4102 0.9424
14.6285 -0.9617 -2.4151 0.9423
14.7296 0.0935 -2.4266 0.9420
14.7440 1.1575 -2.4364 0.9418
14.7223 1.6909 -2.4413 0.9417
14.6793 2.2238 -2.4458 0.9416
14.6150 2.7554 -2.4501 0.9415
14.5150 3.2816 -2.4515 0.9415
14.2832 4.3300 -2.4587 0.9413
8.7413 2.9975 -1.5223 0.9632
13.7680 5.8591 -2.4650 0.9411
13.5528 6.3530 -2.4658 0.9411
13.3175 6.8377 -2.4662 0.9411
13.0748 7.3194 -2.4685 0.9411
12.5113 8.2389 -2.4678 0.9411
12.2157 8.6903 -2.4697 0.9410
11.6620 8.9457 -2.4213 0.9422
10.1067 8.9783 -2.2271 0.9467
8.7693 8.9993 -2.0700 0.9503
6.3090 8.6808 -1.7679 0.9574
5.4117 8.6999 -1.6879 0.9593
4.9918 8.7088 -1.6537 0.9601
3.8217 8.7337 -1.5705 0.9621
3.0996 8.7492 -1.5291 0.9631
2.7517 8.7567 -1.5121 0.9635
1.4221 8.7854 -1.4661 0.9646
1.0995 8.7872 -1.4589 0.9647
0.4623 8.8011 -1.4519 0.9649
0.1451 8.8080 -1.4512 0.9649
-0.8103 8.8288 -1.4606 0.9647
-1.4591 8.8431 -1.4765 0.9643
-1.7896 8.8504 -1.4875 0.9641
-2.1256 8.8578 -1.5006 0.9637
-2.8180 8.8731 -1.5337 0.9630
-3.1767 8.8810 -1.5538 0.9625
-3.5455 8.8892 -1.5766 0.9619
-3.9257 8.8977 -1.6021 0.9613
-4.3185 8.9054 -1.6305 0.9607
-5.1513 8.9240 -1.6975 0.9591
-6.0604 8.9444 -1.7799 0.9571
-8.2029 8.9925 -2.0052 0.9519
-10.2463 9.0465 -2.2517 0.9461
12.7811 -2.2419 -2.4390 0.9486
12.6053 -1.7461 -2.3919 0.9495
12.7468 -0.3780 -2.3970 0.9494
12.7571 1.0016 -2.4052 0.9493
12.7352 1.4627 -2.4095 0.9492
12.6954 1.9233 -2.4135 0.9491
12.5570 2.8390 -2.4198 0.9490
8.8823 2.6926 -1.7445 0.9629
11.7318 5.4994 -2.4354 0.9486
11.3132 6.3332 -2.4370 0.9486
11.0873 6.7420 -2.4390 0.9486
10.5732 7.5219 -2.4389 0.9486
10.3030 7.9031 -2.4407 0.9485
10.0181 8.2740 -2.4422 0.9485
9.6892 8.6073 -2.4360 0.9486
9.3720 8.9494 -2.4357 0.9486
8.1720 9.0137 -2.2869 0.9517
6.7929 8.6723 -2.0706 0.9562
4.5888 8.7189 -1.8519 0.9607
4.1992 8.7272 -1.8204 0.9613
3.4563 8.7430 -1.7671 0.9625
2.7522 8.7581 -1.7255 0.9633
2.4115 8.7654 -1.7088 0.9637
1.7476 8.7797 -1.6826 0.9642
1.4223 8.7867 -1.6731 0.9644
1.0997 8.7886 -1.6648 0.9646
0.1452 8.8093 -1.6560 0.9648
-0.1721 8.8162 -1.6574 0.9647
-0.8104 8.8302 -1.6667 0.9646
-1.4593 8.8445 -1.6849 0.9642
-1.7899 8.8517 -1.6975 0.9639
-2.4684 8.8667 -1.7300 0.9632
-3.5461 8.8907 -1.7991 0.9618
-3.9263 8.8992 -1.8283 0.9612
-4.3192 8.9070 -1.8606 0.9605
-5.5960 8.9356 -1.9817 0.9580
-6.5515 8.9571 -2.0859 0.9558
-8.9815 8.5244 -2.3275 0.9509
-9.2798 8.1932 -2.3268 0.9509
-9.5682 7.8535 -2.3267 0.9509
11.3803 -3.7416 -2.5323 0.9522
11.6324 -2.9163 -2.5350 0.9522
11.7352 -2.4969 -2.5361 0.9521
11.8221 -2.0737 -2.5371 0.9521
11.2443 -0.7392 -2.3819 0.9550
11.2704 -0.3342 -2.3834 0.9549
11.2761 0.4778 -2.3857 0.9549
11.0632 2.5012 -2.3976 0.9547
8.8456 2.6816 -1.9538 0.9629
10.6407 4.0825 -2.4091 0.9545
10.4908 4.4644 -2.4100 0.9545
10.1620 5.2176 -2.4146 0.9544
9.9759 5.5846 -2.4166 0.9543
9.7665 5.9388 -2.4162 0.9543
9.5540 6.2915 -2.4181 0.9543
8.8139 7.2794 -2.4163 0.9543
8.5502 7.5955 -2.4175 0.9543
8.2746 7.9015 -2.4185 0.9543
7.6779 8.4686 -2.4163 0.9543
7.3645 8.7352 -2.4151 0.9544
7.0396 8.9873 -2.4131 0.9544
5.4136 8.7030 -2.1665 0.9590
3.8229 8.7367 -2.0158 0.9618
3.4569 8.7445 -1.9876 0.9623
2.7526 8.7595 -1.9409 0.9632
2.4119 8.7668 -1.9220 0.9635
2.0773 8.7740 -1.9059 0.9638
1.4225 8.7881 -1.8818 0.9643
0.7804 8.7968 -1.8668 0.9645
0.4624 8.8038 -1.8635 0.9646
0.1452 8.8107 -1.8627 0.9646
-0.1721 8.8176 -1.8642 0.9646
-0.4904 8.8246 -1.8682 0.9645
-0.8106 8.8316 -1.8747 0.9644
-1.1333 8.8387 -1.8836 0.9642
-1.4595 8.8458 -1.8951 0.9640
-3.1778 8.8839 -1.9944 0.9622
-4.7281 8.9177 -2.1336 0.9596
-5.5971 8.9372 -2.2290 0.9578
-6.0627 8.9477 -2.2846 0.9568
-7.1384 8.4150 -2.3326 0.9559
-7.7193 7.8735 -2.3307 0.9559
-7.9973 7.5903 -2.3306 0.9559
10.3192 -2.9857 -2.5247 0.9568
10.5163 -2.2376 -2.5269 0.9568
10.5939 -1.8583 -2.5278 0.9568
10.7062 -1.0920 -2.5293 0.9567
10.0962 -0.2994 -2.3739 0.9593
10.1061 0.0642 -2.3752 0.9593
10.1016 0.4281 -2.3762 0.9593
10.0086 1.5162 -2.3791 0.9593
9.8861 2.2351 -2.3821 0.9592
9.8109 2.5925 -2.3849 0.9592
8.5491 2.9316 -2.1241 0.9635
9.2337 4.3283 -2.3967 0.9590
9.0746 4.6593 -2.3974 0.9590
8.9086 4.9871 -2.3995 0.9589
8.5394 5.6234 -2.4030 0.9589
8.3246 5.9222 -2.4011 0.9589
8.1081 6.2195 -2.4016 0.9589
7.6449 6.7913 -2.4033 0.9589
6.5845 7.8100 -2.4008 0.9589
5.7048 8.4750 -2.4010 0.9589
4.9944 8.7134 -2.3604 0.9596
3.1011 8.7535 -2.1826 0.9626
2.7531 8.7609 -2.1583 0.9630
2.0776 8.7754 -2.1194 0.9636
1.4228 8.7895 -2.0926 0.9641
0.4625 8.8051 -2.0723 0.9644
0.1452 8.8120 -2.0713 0.9644
-0.1722 8.8190 -2.0731 0.9644
-0.8107 8.8330 -2.0847 0.9642
-1.1334 8.8401 -2.0946 0.9640
-1.4597 8.8472 -2.1074 0.9638
-1.7905 8.8546 -2.1231 0.9636
-2.1266 8.8620 -2.1419 0.9632
-2.4692 8.8696 -2.1638 0.9629
-2.8194 8.8774 -2.1891 0.9625
-3.1783 8.8854 -2.2179 0.9620
-3.5472 8.8937 -2.2503 0.9614
-3.9277 8.9022 -2.2868 0.9608
-4.3207 8.9101 -2.3273 0.9601
-5.2810 8.4325 -2.3384 0.9599
-6.4230 7.5716 -2.3335 0.9600
-6.6913 7.3354 -2.3335 0.9600
-6.9504 7.0892 -2.3333 0.9600
-7.6738 6.2987 -2.3333 0.9600
9.3468 -2.7043 -2.5193 0.9606
9.5927 -1.6827 -2.5217 0.9606
9.6495 -1.3367 -2.5223 0.9605
9.6935 -0.9887 -2.5228 0.9605
9.7247 -0.6393 -2.5233 0.9605
9.0990 1.0450 -2.3714 0.9629
9.0057 1.6979 -2.3728 0.9628
8.7112 2.6408 -2.3569 0.9631
8.4326 2.8916 -2.3081 0.9638
8.4639 3.6019 -2.3816 0.9627
8.3362 3.9077 -2.3838 0.9627
8.1969 4.2086 -2.3857 0.9626
8.0463 4.5044 -2.3875 0.9626
7.7035 5.0729 -2.3882 0.9626
7.5201 5.3498 -2.3895 0.9626
7.3263 5.6198 -2.3907 0.9626
7.1174 5.8783 -2.3901 0.9626
6.4481 6.6171 -2.3922 0.9625
6.2017 6.8404 -2.3906 0.9626
5.9522 7.0600 -2.3909 0.9626
5.1570 7.6612 -2.3911 0.9626
4.8776 7.8413 -2.3910 0.9626
3.9980 8.3090 -2.3874 0.9626
3.3846 8.5615 -2.3837 0.9627
3.0732 8.6749 -2.3829 0.9627
2.7535 8.7624 -2.3781 0.9628
2.4127 8.7696 -2.3550 0.9631
2.0780 8.7768 -2.3353 0.9634
1.7484 8.7839 -2.3189 0.9637
1.4230 8.7909 -2.3057 0.9639
1.1001 8.7927 -2.2943 0.9640
0.1452 8.8134 -2.2823 0.9642
-0.1722 8.8204 -2.2842 0.9642
-1.4600 8.8487 -2.3221 0.9636
-1.7908 8.8560 -2.3394 0.9634
-2.1201 8.8350 -2.3525 0.9632
-2.4352 8.7476 -2.3510 0.9632
-2.7454 8.6445 -2.3484 0.9632
-4.2351 7.9879 -2.3409 0.9633
-4.7935 7.6542 -2.3384 0.9634
-6.0786 6.6638 -2.3354 0.9634
8.5325 -2.4687 -2.5146 0.9637
8.6185 -2.1607 -2.5153 0.9637
8.8085 -1.2202 -2.5174 0.9637
8.8489 -0.9026 -2.5181 0.9637
8.3570 0.3541 -2.3679 0.9658
8.3294 0.6540 -2.3652 0.9659
8.3039 0.9537 -2.3662 0.9658
8.1608 1.8450 -2.3686 0.9658
8.0100 2.4283 -2.3695 0.9658
7.5937 3.5596 -2.3742 0.9657
7.4663 3.8335 -2.3760 0.9657
7.1773 4.3644 -2.3780 0.9657
7.0195 4.6225 -2.3793 0.9657
6.8520 4.8746 -2.3805 0.9656
6.2912 5.5887 -2.3822 0.9656
6.0877 5.8131 -2.3829 0.9656
5.4251 6.4349 -2.3827 0.9656
5.1904 6.6264 -2.3828 0.9656
4.7004 6.9828 -2.3829 0.9656
4.4446 7.1452 -2.3822 0.9656
4.1820 7.2961 -2.3807 0.9656
3.6451 7.5755 -2.3799 0.9657
3.3666 7.6939 -2.3775 0.9657
2.2232 8.0809 -2.3726 0.9658
1.9301 8.1525 -2.3717 0.9658
1.3365 8.2569 -2.3679 0.9658
0.7384 8.3237 -2.3657 0.9659
0.4378 8.3356 -2.3630 0.9659
-0.4624 8.3205 -2.3591 0.9659
-0.7607 8.2891 -2.3564 0.9660
-1.6470 8.1450 -2.3524 0.9660
-2.2252 7.9929 -2.3488 0.9661
-2.5100 7.9031 -2.3474 0.9661
-2.7911 7.8031 -2.3461 0.9661
-3.6091 7.4426 -2.3416 0.9662
-3.8725 7.3039 -2.3403 0.9662
-5.1109 6.4843 -2.3373 0.9663
-5.7782 5.8937 -2.3366 0.9663
-5.9861 5.6815 -2.3364 0.9663
7.9213 -1.9859 -2.5118 0.9664
7.9900 -1.7000 -2.5126 0.9664
8.0483 -1.4117 -2.5133 0.9664
8.1747 -0.2424 -2.5155 0.9664
8.1795 0.0520 -2.5159 0.9663
8.1737 0.3464 -2.5163 0.9663
7.8049 0.6128 -2.4080 0.9678
7.6303 0.8764 -2.3623 0.9684
7.4983 1.6953 -2.3645 0.9683
7.4348 1.9647 -2.3653 0.9683
7.3615 2.2317 -2.3660 0.9683
7.2779 2.4957 -2.3665 0.9683
7.1845 2.7564 -2.3669 0.9683
7.0816 3.0136 -2.3672 0.9683
6.8484 3.5162 -2.3678 0.9683
6.7215 3.7627 -2.3693 0.9683
6.5854 4.0044 -2.3706 0.9683
6.2851 4.4713 -2.3724 0.9682
6.1225 4.6964 -2.3734 0.9682
5.9515 4.9154 -2.3742 0.9682
5.5836 5.3319 -2.3746 0.9682
5.1874 5.7216 -2.3754 0.9682
4.9786 5.9052 -2.3757 0.9682
4.7632 6.0811 -2.3759 0.9682
4.3135 6.4081 -2.3759 0.9682
3.8387 6.6972 -2.3743 0.9682
3.5947 6.8301 -2.3740 0.9682
3.3460 6.9538 -2.3736 0.9682
3.0911 7.0642 -2.3717 0.9682
2.3095 7.3495 -2.3695 0.9683
2.0418 7.4217 -2.3676 0.9683
1.5015 7.5437 -2.3658 0.9683
0.9536 7.6217 -2.3625 0.9684
0.4025 7.6635 -2.3604 0.9684
-0.1496 7.6615 -2.3570 0.9684
-0.4250 7.6473 -2.3558 0.9685
-0.6996 7.6230 -2.3545 0.9685
-0.9726 7.5862 -2.3524 0.9685
-1.2444 7.5423 -2.3512 0.9685
-1.7818 7.4252 -2.3487 0.9685
-2.5671 7.1768 -2.3444 0.9686
-2.8222 7.0758 -2.3431 0.9686
-3.3210 6.8486 -2.3411 0.9686
-4.4889 6.1372 -2.3387 0.9687
-4.7063 5.9709 -2.3384 0.9687
-5.3205 5.4268 -2.3375 0.9687
-5.5127 5.2321 -2.3377 0.9687
-5.9764 5.2766 -2.4521 0.9672
7.1660 -2.3560 -2.5075 0.9687
7.4403 -1.3051 -2.5110 0.9687
7.4842 -1.0367 -2.5115 0.9687
7.5182 -0.7668 -2.5121 0.9686
7.5424 -0.4959 -2.5126 0.9686
7.5568 -0.2241 -2.5130 0.9686
7.5612 0.0480 -2.5134 0.9686
7.5398 0.5920 -2.5140 0.9686
7.0209 1.0636 -2.3604 0.9705
6.9794 1.3159 -2.3609 0.9705
6.9297 1.5667 -2.3616 0.9705
6.8028 2.0623 -2.3629 0.9705
6.6390 2.5471 -2.3637 0.9705
6.5445 2.7850 -2.3642 0.9705
6.4411 3.0193 -2.3646 0.9705
6.0798 3.6970 -2.3652 0.9705
5.9431 3.9137 -2.3654 0.9705
5.6504 4.3343 -2.3672 0.9704
5.4925 4.5363 -2.3679 0.9704
5.3263 4.7316 -2.3682 0.9704
5.1537 4.9213 -2.3687 0.9704
4.9741 5.1045 -2.3691 0.9704
4.7878 5.2810 -2.3695 0.9704
4.5951 5.4504 -2.3697 0.9704
3.9813 5.9145 -2.3699 0.9704
3.3185 6.3053 -2.3685 0.9704
3.0889 6.4196 -2.3681 0.9704
2.8542 6.5228 -2.3667 0.9704
2.6170 6.6198 -2.3662 0.9704
2.3764 6.7080 -2.3656 0.9704
1.8858 6.8547 -2.3632 0.9705
1.3869 6.9678 -2.3616 0.9705
1.1348 7.0105 -2.3607 0.9705
0.8811 7.0414 -2.3589 0.9705
0.6268 7.0657 -2.3579 0.9705
0.3719 7.0805 -2.3569 0.9706
-0.3928 7.0676 -2.3529 0.9706
-0.6466 7.0454 -2.3518 0.9706
-0.8993 7.0140 -2.3506 0.9706
-1.1504 6.9724 -2.3490 0.9707
-1.6473 6.8646 -2.3466 0.9707
-2.1346 6.7212 -2.3441 0.9707
-3.2992 6.2225 -2.3411 0.9707
-3.7369 5.9671 -2.3403 0.9708
-3.9486 5.8277 -2.3399 0.9708
-4.7413 5.1977 -2.3386 0.9708
-4.9960 5.0959 -2.3722 0.9704
-5.4341 5.1576 -2.4904 0.9689
-5.6172 4.9595 -2.4908 0.9689
6.6586 -2.1891 -2.5065 0.9707
6.7348 -1.9486 -2.5072 0.9707
6.8608 -1.4598 -2.5084 0.9706
6.9105 -1.2122 -2.5090 0.9706
6.9511 -0.9629 -2.5095 0.9706
7.0182 -0.2081 -2.5109 0.9706
7.0170 0.2974 -2.5116 0.9706
7.0029 0.5498 -2.5120 0.9706
6.4490 1.4581 -2.3644 0.9723
6.3797 1.6859 -2.3598 0.9724
5.7649 3.2272 -2.3626 0.9723
5.6457 3.4330 -2.3629 0.9723
5.0938 4.2070 -2.3625 0.9723
4.9403 4.3887 -2.3631 0.9723
4.7801 4.5646 -2.3636 0.9723
4.6135 4.7344 -2.3640 0.9723
4.4407 4.8980 -2.3643 0.9723
3.8876 5.3492 -2.3647 0.9723
3.0784 5.8491 -2.3637 0.9723
2.8655 5.9553 -2.3633 0.9723
2.6482 6.0520 -2.3623 0.9723
2.4281 6.1421 -2.3619 0.9723
2.2050 6.2240 -2.3613 0.9723
1.9790 6.2977 -2.3607 0.9723
1.7501 6.3614 -2.3594 0.9724
1.2871 6.4667 -2.3579 0.9724
0.5818 6.5590 -2.3548 0.9724
0.3453 6.5731 -2.3538 0.9724
-0.6004 6.5421 -2.3493 0.9725
-0.8351 6.5133 -2.3482 0.9725
-1.0684 6.4758 -2.3471 0.9725
-1.5305 6.3779 -2.3455 0.9725
-1.7586 6.3170 -2.3449 0.9725
-1.9843 6.2480 -2.3443 0.9725
-2.2073 6.1709 -2.3437 0.9725
-2.8578 5.8934 -2.3422 0.9726
-3.6710 5.4180 -2.3404 0.9726
-3.8630 5.2816 -2.3400 0.9726
-4.0501 5.1384 -2.3397 0.9726
-4.5568 4.9955 -2.4180 0.9717
-5.0541 4.7969 -2.4918 0.9708
-5.3879 4.4224 -2.4927 0.9708
6.2806 -1.8172 -2.5056 0.9724
6.3434 -1.5903 -2.5061 0.9724
6.5502 0.0416 -2.5102 0.9723
6.5451 0.2774 -2.5104 0.9723
6.5093 0.7476 -2.5109 0.9723
6.4786 0.9815 -2.5110 0.9723
6.1767 1.3965 -2.4267 0.9732
5.9489 1.5720 -2.3580 0.9740
5.8892 1.7853 -2.3583 0.9740
5.7480 2.2053 -2.3593 0.9740
5.2636 3.2007 -2.3608 0.9740
5.0199 3.5712 -2.3609 0.9740
4.7502 3.9232 -2.3609 0.9740
4.1369 4.5630 -2.3603 0.9740
3.9695 4.7083 -2.3600 0.9740
3.4389 5.1088 -2.3600 0.9740
3.2527 5.2291 -2.3599 0.9740
3.0621 5.3424 -2.3597 0.9740
2.6693 5.5475 -2.3592 0.9740
2.4672 5.6384 -2.3585 0.9740
2.2622 5.7224 -2.3581 0.9740
2.0543 5.7989 -2.3576 0.9740
1.8439 5.8676 -2.3570 0.9740
1.1995 6.0263 -2.3547 0.9740
0.7623 6.0927 -2.3530 0.9740
0.5423 6.1135 -2.3520 0.9741
0.3218 6.1268 -2.3511 0.9741
-0.7790 6.0756 -2.3473 0.9741
-0.9969 6.0421 -2.3467 0.9741
-1.4282 5.9516 -2.3455 0.9741
-2.6670 5.5000 -2.3424 0.9742
-2.8628 5.3995 -2.3420 0.9742
-3.0547 5.2920 -2.3416 0.9742
-3.2426 5.1778 -2.3412 0.9742
-3.4263 5.0568 -2.3408 0.9742
-3.6056 4.9296 -2.3405 0.9742
-3.8124 4.8368 -2.3601 0.9740
-4.1529 4.8956 -2.4602 0.9729
-4.3830 4.8050 -2.4924 0.9725
-4.7186 4.4785 -2.4930 0.9725
-4.8775 4.3064 -2.4934 0.9725
5.9919 -1.2749 -2.5072 0.9739
6.0698 -0.8408 -2.5079 0.9739
6.1161 -0.4021 -2.5085 0.9739
6.1256 0.2596 -2.5093 0.9738
6.0921 0.6997 -2.5097 0.9738
6.0633 0.9186 -2.5099 0.9738
5.9823 1.3525 -2.5102 0.9738
5.8351 1.5420 -2.4701 0.9743
5.5585 1.6851 -2.3772 0.9752
5.4480 1.8682 -2.3572 0.9754
5.2171 2.4456 -2.3582 0.9754
5.1265 2.6321 -2.3585 0.9754
4.8138 3.1700 -2.3590 0.9754
4.5738 3.5084 -2.3592 0.9754
4.4445 3.6707 -2.3592 0.9754
4.3093 3.8281 -2.3591 0.9754
3.8710 4.2697 -2.3587 0.9754
3.7144 4.4058 -2.3585 0.9754
3.2167 4.7787 -2.3576 0.9754
2.6815 5.0950 -2.3564 0.9754
1.9209 5.4221 -2.3542 0.9754
1.5253 5.5443 -2.3534 0.9755
1.3242 5.5933 -2.3525 0.9755
1.1220 5.6370 -2.3523 0.9755
0.5075 5.7210 -2.3506 0.9755
0.3012 5.7341 -2.3501 0.9755
0.0946 5.7398 -2.3495 0.9755
-0.1120 5.7380 -2.3489 0.9755
-0.3184 5.7288 -2.3483 0.9755
-0.5243 5.7123 -2.3477 0.9755
-0.7293 5.6886 -2.3472 0.9755
-0.9334 5.6573 -2.3467 0.9755
-1.1361 5.6186 -2.3461 0.9755
-1.5366 5.5197 -2.3450 0.9755
-2.1214 5.3189 -2.3436 0.9756
-2.3110 5.2380 -2.3432 0.9756
-2.4975 5.1503 -2.3426 0.9756
-2.6807 5.0561 -2.3422 0.9756
-3.0365 4.8486 -2.3414 0.9756
-3.9408 4.6455 -2.4932 0.9740
-4.5683 4.0334 -2.4942 0.9740
-4.7110 3.8668 -2.4944 0.9740
5.5228 -1.5979 -2.5056 0.9752
5.5775 -1.3983 -2.5060 0.9752
5.6652 -0.9937 -2.5067 0.9752
5.6980 -0.7893 -2.5070 0.9752
5.7518 -0.1705 -2.5078 0.9752
5.7187 0.6568 -2.5087 0.9752
5.6918 0.8623 -2.5089 0.9752
5.6159 1.2697 -2.5093 0.9752
5.5669 1.4711 -2.5094 0.9752
5.5104 1.6705 -2.5095 0.9752
5.0479 1.9367 -2.3563 0.9767
4.8961 2.2951 -2.3566 0.9767
4.8110 2.4702 -2.3569 0.9767
4.7194 2.6420 -2.3571 0.9767
4.6215 2.8102 -2.3573 0.9767
4.4080 3.1359 -2.3576 0.9767
4.1711 3.4449 -2.3577 0.9767
3.9122 3.7358 -2.3575 0.9767
3.7751 3.8741 -2.3575 0.9767
3.4862 4.1350 -2.3571 0.9767
3.3347 4.2573 -2.3568 0.9767
2.6879 4.6895 -2.3557 0.9767
2.5170 4.7824 -2.3553 0.9767
1.8034 5.0905 -2.3536 0.9767
1.6187 5.1510 -2.3531 0.9767
1.4319 5.2048 -2.3526 0.9767
1.0534 5.2923 -2.3517 0.9767
0.8620 5.3255 -2.3512 0.9767
0.6696 5.3519 -2.3506 0.9767
-0.2990 5.3793 -2.3480 0.9768
-0.4922 5.3637 -2.3474 0.9768
-1.0669 5.2764 -2.3461 0.9768
-1.2558 5.2334 -2.3455 0.9768
-1.4430 5.1836 -2.3450 0.9768
-1.6283 5.1271 -2.3445 0.9768
-1.9922 4.9949 -2.3436 0.9768
-2.3455 4.8370 -2.3428 0.9768
-2.5176 4.7486 -2.3424 0.9768
-2.8869 4.6098 -2.3705 0.9765
-3.1581 4.6610 -2.4537 0.9757
-3.8571 4.2284 -2.4943 0.9753
-4.0071 4.0872 -2.4945 0.9753
-4.2915 3.7891 -2.4950 0.9753
-4.4256 3.6325 -2.4953 0.9753
5.2944 -1.1265 -2.5055 0.9764
5.4135 -0.1605 -2.5069 0.9764
5.4122 0.2294 -2.5074 0.9764
5.3826 0.6182 -2.5079 0.9764
5.2858 1.1950 -2.5085 0.9764
5.2396 1.3846 -2.5086 0.9764
5.1267 1.7580 -2.5087 0.9764
4.9899 1.9144 -2.4739 0.9767
4.5269 2.3243 -2.3555 0.9778
4.1478 2.9508 -2.3562 0.9778
3.6814 3.5154 -2.3562 0.9778
3.4188 3.7709 -2.3561 0.9778
3.1381 4.0063 -2.3556 0.9778
2.6872 4.3201 -2.3550 0.9778
2.3688 4.5008 -2.3543 0.9778
2.0383 4.6583 -2.3536 0.9778
1.8691 4.7279 -2.3533 0.9778
1.6973 4.7912 -2.3528 0.9778
1.5235 4.8482 -2.3524 0.9778
1.3478 4.8989 -2.3519 0.9779
0.9916 4.9816 -2.3511 0.9779
0.6303 5.0378 -2.3501 0.9779
0.4485 5.0561 -2.3496 0.9779
0.2662 5.0680 -2.3491 0.9779
-0.0990 5.0722 -2.3483 0.9779
-0.2815 5.0642 -2.3478 0.9779
-0.4634 5.0497 -2.3472 0.9779
-0.6447 5.0286 -2.3467 0.9779
-0.8251 5.0012 -2.3463 0.9779
-1.5331 4.8274 -2.3445 0.9779
-2.0434 4.6315 -2.3432 0.9779
-2.2086 4.5545 -2.3430 0.9779
-2.8604 4.5674 -2.4946 0.9765
-3.0230 4.4617 -2.4946 0.9765
-3.6327 3.9825 -2.4951 0.9765
-3.7740 3.8494 -2.4953 0.9765
-4.0418 3.5686 -2.4958 0.9765
-4.1680 3.4211 -2.4960 0.9765
4.9946 -1.0627 -2.5048 0.9775
5.0540 0.7657 -2.5074 0.9775
4.9431 1.3062 -2.5079 0.9775
4.8365 1.6585 -2.5080 0.9775
4.7737 1.8315 -2.5081 0.9775
4.7046 2.0021 -2.5080 0.9775
4.1889 2.3450 -2.3548 0.9788
4.1016 2.4941 -2.3547 0.9788
4.0094 2.6403 -2.3548 0.9788
3.9120 2.7830 -2.3550 0.9788
3.8095 2.9221 -2.3550 0.9788
3.4723 3.3157 -2.3550 0.9788
2.5348 4.0750 -2.3540 0.9788
2.2345 4.2456 -2.3533 0.9789
2.0799 4.3227 -2.3530 0.9789
1.7632 4.4600 -2.3525 0.9789
1.4372 4.5737 -2.3517 0.9789
0.9354 4.6997 -2.3505 0.9789
0.7656 4.7296 -2.3501 0.9789
0.5947 4.7530 -2.3497 0.9789
0.4232 4.7703 -2.3492 0.9789
-0.0934 4.7856 -2.3479 0.9789
-0.6083 4.7449 -2.3465 0.9789
-0.9478 4.6871 -2.3457 0.9789
-1.2820 4.6052 -2.3448 0.9789
-1.4467 4.5553 -2.3444 0.9789
-2.3613 4.4537 -2.4727 0.9778
-2.5430 4.4056 -2.4952 0.9776
-2.7000 4.3113 -2.4953 0.9776
-2.8535 4.2114 -2.4953 0.9776
-3.1493 3.9956 -2.4955 0.9776
-3.2913 3.8799 -2.4957 0.9776
-3.4290 3.7591 -2.4959 0.9776
-3.5623 3.6336 -2.4960 0.9776
-3.6911 3.5033 -2.4962 0.9776
4.5840 -1.5071 -2.5033 0.9785
4.6818 -1.1738 -2.5040 0.9785
4.7216 -1.0046 -2.5043 0.9785
4.7553 -0.8341 -2.5046 0.9785
4.7828 -0.6625 -2.5049 0.9785
4.8040 -0.4900 -2.5052 0.9785
4.8278 -0.1431 -2.5057 0.9785
4.8303 0.0307 -2.5059 0.9785
4.8164 0.3781 -2.5063 0.9785
4.8001 0.5513 -2.5065 0.9785
4.7494 0.8954 -2.5073 0.9785
4.6729 1.2348 -2.5074 0.9785
4.5720 1.5678 -2.5074 0.9785
4.1003 2.2954 -2.4378 0.9790
3.7898 2.4956 -2.3540 0.9798
3.6973 2.6302 -2.3539 0.9798
3.4986 2.8895 -2.3540 0.9798
3.3923 3.0135 -2.3540 0.9798
3.2817 3.1337 -2.3540 0.9798
3.0477 3.3615 -2.3539 0.9798
2.6670 3.6697 -2.3534 0.9798
2.5331 3.7631 -2.3533 0.9798
2.2554 3.9348 -2.3528 0.9798
2.1120 4.0129 -2.3525 0.9798
1.6666 4.2158 -2.3517 0.9798
1.3586 4.3234 -2.3510 0.9798
1.2019 4.3687 -2.3506 0.9798
1.0437 4.4085 -2.3503 0.9798
0.8843 4.4426 -2.3499 0.9798
0.2375 4.5203 -2.3483 0.9798
0.0746 4.5252 -2.3479 0.9798
-0.4134 4.5047 -2.3468 0.9798
-0.5752 4.4861 -2.3464 0.9798
-1.9136 4.3372 -2.4593 0.9789
-2.0992 4.3290 -2.4959 0.9786
-2.4051 4.1667 -2.4959 0.9786
-2.6987 3.9829 -2.4959 0.9786
-2.8403 3.8833 -2.4959 0.9786
-2.9786 3.7790 -2.4962 0.9786
-3.4909 3.3133 -2.4969 0.9785
-3.6082 3.1858 -2.4971 0.9785
-3.7209 3.0541 -2.4973 0.9785
4.3412 -1.4273 -2.5029 0.9794
4.4714 -0.9514 -2.5038 0.9794
4.5033 -0.7899 -2.5041 0.9794
4.5293 -0.6274 -2.5044 0.9794
4.5494 -0.4640 -2.5046 0.9794
4.5636 -0.3000 -2.5049 0.9794
4.5718 -0.1356 -2.5051 0.9794
4.5742 0.0291 -2.5053 0.9794
4.5714 0.1937 -2.5060 0.9793
4.5468 0.5222 -2.5067 0.9793
4.5252 0.6855 -2.5067 0.9793
4.4643 1.0093 -2.5068 0.9793
4.4252 1.1694 -2.5069 0.9793
4.3802 1.3279 -2.5069 0.9793
4.3296 1.4847 -2.5069 0.9793
4.1443 1.9427 -2.5068 0.9793
4.0716 2.0906 -2.5068 0.9793
3.9936 2.2357 -2.5067 0.9793
3.8936 2.3676 -2.4958 0.9794
3.7198 2.4496 -2.4394 0.9799
3.5529 2.5276 -2.3881 0.9803
3.4092 2.6151 -2.3533 0.9806
3.3127 2.7360 -2.3532 0.9806
3.2119 2.8532 -2.3530 0.9806
3.1071 2.9670 -2.3530 0.9806
2.9982 3.0769 -2.3530 0.9806
2.6488 3.3817 -2.3527 0.9806
2.5253 3.4746 -2.3526 0.9806
1.9998 3.7997 -2.3517 0.9806
1.8616 3.8689 -2.3515 0.9806
1.7210 3.9330 -2.3513 0.9806
1.5781 3.9919 -2.3510 0.9806
1.1382 4.1370 -2.3500 0.9806
0.8374 4.2070 -2.3494 0.9806
0.2249 4.2810 -2.3480 0.9806
-0.2378 4.2783 -2.3468 0.9806
-0.3916 4.2663 -2.3465 0.9807
-0.9992 4.1637 -2.3452 0.9807
-1.1539 4.1451 -2.3566 0.9806
-1.3284 4.1827 -2.4036 0.9802
-1.6887 4.2340 -2.4966 0.9794
-1.8400 4.1703 -2.4965 0.9794
-2.5567 3.7734 -2.4964 0.9794
-2.9486 3.4759 -2.4965 0.9794
-3.5252 2.8935 -2.4978 0.9794
4.1177 -1.3538 -2.5025 0.9802
4.2410 -0.9023 -2.5034 0.9802
4.2962 -0.5951 -2.5041 0.9802
4.3367 0.1838 -2.5060 0.9802
4.3275 0.3398 -2.5061 0.9802
4.3125 0.4953 -2.5062 0.9801
4.2659 0.8043 -2.5063 0.9801
4.1065 1.4082 -2.5064 0.9801
4.0532 1.5551 -2.5064 0.9801
3.9946 1.6999 -2.5064 0.9801
3.9308 1.8426 -2.5064 0.9801
3.8618 1.9828 -2.5063 0.9801
3.6252 2.3873 -2.5060 0.9802
3.5323 2.5129 -2.5028 0.9802
3.3705 2.5854 -2.4525 0.9806
3.2143 2.6547 -2.4069 0.9809
2.9469 2.8140 -2.3525 0.9814
2.8434 2.9180 -2.3523 0.9814
2.7397 3.0219 -2.3550 0.9813
2.5119 3.2069 -2.3519 0.9814
1.7655 3.6692 -2.3508 0.9814
1.6321 3.7300 -2.3506 0.9814
1.4967 3.7859 -2.3504 0.9814
1.3593 3.8369 -2.3501 0.9814
1.0795 3.9237 -2.3495 0.9814
0.3594 4.0509 -2.3479 0.9814
-0.0793 4.0641 -2.3469 0.9814
-0.2255 4.0581 -2.3465 0.9814
-0.3714 4.0469 -2.3463 0.9814
-1.1465 4.1185 -2.4682 0.9804
-1.4567 4.0725 -2.4971 0.9802
-1.7458 3.9569 -2.4970 0.9802
-1.8870 3.8915 -2.4969 0.9802
-2.1621 3.7455 -2.4969 0.9802
-2.2954 3.6653 -2.4969 0.9802
-2.6772 3.3966 -2.4969 0.9802
-2.7977 3.2981 -2.4970 0.9802
-3.0279 3.0884 -2.4971 0.9802
-3.1377 2.9780 -2.4976 0.9802
-3.3448 2.7454 -2.4984 0.9802
