ply
format ascii 1.0
element vertex 1342
property float32 x
property float32 y
property float32 z
property float32 I
end_header
25.8322 -27.5361 6.6575 0.8578
28.5404 -24.5200 6.6346 0.8583
30.3241 -24.2188 6.8430 0.8542
32.5682 -22.3880 6.9686 0.8517
32.4188 -19.0181 6.6273 0.8584
34.6150 -17.1000 6.8077 0.8549
34.6350 -15.5916 6.6974 0.8570
34.7845 -14.1825 6.6237 0.8585
7.5232 2.8803 1.4204 0.9678
35.2959 19.6982 7.1272 0.8486
35.4800 21.5038 7.3154 0.8449
14.3172 9.3950 3.0195 0.9328
13.2893 9.4188 2.8721 0.9360
12.3560 9.4403 2.7418 0.9388
11.5025 9.4599 2.6260 0.9413
10.7172 9.4780 2.5227 0.9435
9.3142 9.5102 2.3472 0.9474
8.4190 11.5081 2.5142 0.9437
6.6741 11.5476 2.3518 0.9473
4.6726 9.6149 1.8850 0.9575
3.8994 9.7438 1.8506 0.9583
2.3380 9.6676 1.7538 0.9604
1.9758 9.6757 1.7413 0.9607
1.6367 9.7940 1.7509 0.9605
1.2789 9.8019 1.7430 0.9606
0.9238 9.8097 1.7374 0.9608
0.5705 9.8174 1.7340 0.9608
-0.1327 9.7219 1.7144 0.9613
-0.4820 9.7295 1.7177 0.9612
-1.4103 11.5799 2.0569 0.9537
-1.8350 11.5891 2.0689 0.9535
-2.2653 11.5983 2.0837 0.9531
-3.1620 13.5821 2.4589 0.9449
-6.8796 19.6813 3.6763 0.9188
-7.6884 19.6985 3.7286 0.9177
-8.5217 19.7161 3.7873 0.9165
-7.7742 14.9452 2.9705 0.9339
-7.8031 13.7714 2.7910 0.9377
32.5357 -27.9525 6.5712 0.8407
34.6728 -25.7120 6.6128 0.8397
35.0951 -24.1250 6.5241 0.8417
17.1971 -2.3572 2.6591 0.9322
7.5207 2.8794 1.2337 0.9679
9.1520 10.0403 2.0812 0.9465
8.9473 11.3528 2.2144 0.9432
7.1417 11.3936 2.0600 0.9470
4.6737 9.6171 1.6381 0.9577
1.6371 9.7961 1.5215 0.9606
0.2182 9.8272 1.5058 0.9610
-0.4821 9.7315 1.4926 0.9613
-0.9901 11.5732 1.7794 0.9541
-1.8354 11.5915 1.7979 0.9536
-3.1627 13.5850 2.1368 0.9451
-3.6472 13.4616 2.1366 0.9451
-6.0935 19.6689 3.1544 0.9201
-6.8811 19.6857 3.1947 0.9191
-7.6902 19.7029 3.2401 0.9180
-8.5236 19.7206 3.2912 0.9167
-7.7813 14.9589 2.5831 0.9340
-7.8098 13.7832 2.4269 0.9379
35.0268 -34.7525 6.4253 0.8195
36.8150 -13.4928 5.1059 0.8537
12.3641 9.4466 2.0262 0.9392
11.5098 9.4659 1.9406 0.9417
9.9963 9.5003 1.7958 0.9459
9.3195 9.5156 1.7344 0.9477
9.1458 10.0336 1.7679 0.9467
9.1640 10.8075 1.8452 0.9444
8.9496 11.3558 1.8828 0.9433
8.4232 11.5139 1.8577 0.9441
6.1421 11.5650 1.7052 0.9485
4.6747 9.6193 1.3927 0.9578
4.2802 9.6748 1.3776 0.9582
2.9491 9.2391 1.2629 0.9616
2.5904 9.2471 1.2505 0.9620
2.3390 9.6717 1.2958 0.9607
0.9242 9.8138 1.2836 0.9610
-0.8333 9.7411 1.2731 0.9613
-1.5449 9.7565 1.2863 0.9609
-1.9071 9.7643 1.2955 0.9607
-2.2750 9.7723 1.3066 0.9603
-6.8826 19.6900 2.7162 0.9193
-8.5255 19.7251 2.7983 0.9170
-7.7884 14.9725 2.1977 0.9342
-7.8164 13.7950 2.0647 0.9380
39.2591 -29.1130 5.2484 0.8215
39.6375 -19.5812 4.7474 0.8371
37.9938 -17.1036 4.4742 0.8457
36.6459 -14.9415 4.2496 0.8528
7.5159 2.8775 0.8642 0.9681
12.3682 9.4496 1.6714 0.9393
11.5134 9.4689 1.6007 0.9418
9.1576 10.7999 1.5205 0.9446
8.4254 11.5168 1.5323 0.9442
7.8167 11.5304 1.4959 0.9455
7.1452 11.3991 1.4446 0.9473
4.6758 9.6215 1.1487 0.9579
4.2753 9.6638 1.1347 0.9584
3.9019 9.7502 1.1277 0.9586
3.3163 9.2330 1.0535 0.9613
2.3395 9.6737 1.0687 0.9608
1.9771 9.6817 1.0611 0.9610
1.5495 9.2719 1.0094 0.9629
1.2107 9.2793 1.0049 0.9631
0.9243 9.8158 1.0587 0.9611
0.5708 9.8235 1.0566 0.9612
0.2183 9.8312 1.0560 0.9612
-1.1875 9.7508 1.0548 0.9613
-2.2755 9.7743 1.0777 0.9604
-2.6504 9.7824 1.0883 0.9600
-6.0962 19.6774 2.2121 0.9205
-7.6936 19.7117 2.2722 0.9184
-8.6002 19.8980 2.3277 0.9165
-9.4358 19.8461 2.3597 0.9154
-7.7955 14.9861 1.8139 0.9343
-7.8231 13.8067 1.7040 0.9382
41.0291 -28.2041 4.2147 0.8188
41.3382 -26.2861 4.1470 0.8215
38.3108 -22.4746 3.7600 0.8367
38.5168 -20.7770 3.7047 0.8389
36.7480 -14.9831 3.3595 0.8527
36.9045 -13.5256 3.3273 0.8540
16.6980 -2.9018 1.4347 0.9342
16.7111 -2.2906 1.4279 0.9345
16.7241 -1.6843 1.4229 0.9348
18.6392 2.8277 1.5959 0.9271
18.6544 3.5181 1.6070 0.9266
10.7302 9.4895 1.2126 0.9441
10.0021 9.5058 1.1681 0.9461
9.3247 9.5209 1.1281 0.9479
9.1513 10.7925 1.1978 0.9448
7.7208 11.3890 1.1648 0.9463
6.5969 11.4140 1.1160 0.9485
3.9028 9.7524 0.8892 0.9587
3.3170 9.2350 0.8307 0.9614
2.9504 9.2431 0.8214 0.9618
2.3400 9.6758 0.8427 0.9608
1.9775 9.6838 0.8367 0.9611
0.9246 9.8178 0.8348 0.9612
-0.4824 9.7375 0.8253 0.9616
-0.8337 9.7451 0.8280 0.9615
-1.5455 9.7606 0.8366 0.9611
-2.2760 9.7764 0.8497 0.9605
-2.6509 9.7845 0.8581 0.9601
-6.0975 19.6817 1.7442 0.9206
-6.8856 19.6987 1.7665 0.9196
-7.6953 19.7161 1.7916 0.9185
-7.8297 13.8184 1.3445 0.9382
41.3871 -26.3172 3.0414 0.8216
38.6228 -20.8342 2.7213 0.8387
39.6193 -19.5723 2.7403 0.8377
36.7310 -14.9761 2.4597 0.8530
36.8871 -13.5192 2.4362 0.8543
39.8278 -12.9979 2.5979 0.8454
46.1628 -13.2547 2.9782 0.8249
16.7038 -2.2896 1.0455 0.9347
19.1878 2.2108 1.1977 0.9255
19.2031 2.9133 1.2044 0.9251
18.6615 4.2172 1.1864 0.9262
24.0617 7.2839 1.5589 0.9042
7.5111 2.8757 0.4987 0.9683
19.1015 8.9305 1.3076 0.9190
22.4175 12.5109 1.5919 0.9022
20.2679 12.2840 1.4696 0.9094
13.3123 9.4350 1.0118 0.9367
12.3763 9.4558 0.9658 0.9395
11.5207 9.4749 0.9250 0.9420
10.0050 9.5085 0.8559 0.9462
9.3274 9.5236 0.8266 0.9480
9.1276 10.0137 0.8402 0.9471
9.1450 10.7850 0.8768 0.9449
8.9564 11.3645 0.8973 0.9437
8.3241 11.3785 0.8742 0.9451
7.1485 11.4045 0.8346 0.9475
4.6779 9.6258 0.6637 0.9580
3.3177 9.2370 0.6086 0.9614
2.5920 9.2529 0.5959 0.9622
2.3405 9.6778 0.6174 0.9609
1.2112 9.2832 0.5805 0.9632
0.9247 9.8198 0.6116 0.9612
-0.1329 9.7319 0.6035 0.9617
-1.1880 9.7548 0.6094 0.9614
-1.9083 9.7704 0.6173 0.9609
-6.0988 19.6859 1.2780 0.9207
-7.6970 19.7204 1.3127 0.9187
-9.3935 19.7570 1.3566 0.9161
-7.8095 15.0130 1.0494 0.9344
38.9600 -31.1159 1.9661 0.8191
41.2979 -26.2605 1.9298 0.8221
38.2729 -22.4523 1.7497 0.8373
39.6371 -17.8434 1.7140 0.8403
36.5949 -14.9207 1.5583 0.8537
45.6910 -13.1192 1.8744 0.8267
16.6834 -2.8993 0.6677 0.9345
16.6966 -2.2886 0.6645 0.9348
19.1048 -1.2344 0.7549 0.9262
19.1196 -0.5484 0.7542 0.9263
19.1794 2.2098 0.7613 0.9256
19.1947 2.9120 0.7655 0.9252
19.2102 3.6230 0.7708 0.9247
19.2259 4.3448 0.7772 0.9241
19.2751 6.5978 0.8033 0.9217
18.8107 11.4008 0.8673 0.9157
13.3168 9.4382 0.6436 0.9367
12.3803 9.4589 0.6143 0.9395
10.7367 9.4952 0.5652 0.9442
10.0079 9.5113 0.5444 0.9462
9.3300 9.5262 0.5258 0.9480
9.1216 10.0071 0.5339 0.9472
9.1388 10.7776 0.5572 0.9450
8.9587 11.3674 0.5707 0.9437
8.3262 11.3813 0.5561 0.9451
6.0709 11.4309 0.5104 0.9495
4.6790 9.6279 0.4221 0.9581
3.9045 9.7566 0.4144 0.9588
2.7093 9.6717 0.3961 0.9606
1.9783 9.6877 0.3899 0.9612
1.6203 9.6956 0.3876 0.9614
0.5648 9.7186 0.3839 0.9618
0.2159 9.7262 0.3836 0.9618
-0.4825 9.7415 0.3846 0.9617
-1.1883 9.7568 0.3876 0.9614
-1.5461 9.7646 0.3898 0.9612
-1.9087 9.7725 0.3926 0.9609
-2.2770 9.7805 0.3960 0.9606
-2.6520 9.7886 0.3999 0.9602
-6.0940 19.6705 0.8120 0.9209
-6.8818 19.6876 0.8224 0.9199
-7.6910 19.7051 0.8341 0.9188
-9.3862 19.7418 0.8619 0.9162
-7.8308 13.8203 0.6264 0.9384
39.1320 -29.0189 0.8229 0.8229
40.9834 -28.1728 0.8401 0.8196
41.2756 -26.2463 0.8262 0.8223
39.5816 -19.5536 0.7457 0.8381
39.6185 -17.8351 0.7339 0.8405
36.5780 -14.9138 0.6673 0.8538
45.6546 -13.1087 0.8023 0.8269
16.6761 -2.8981 0.2859 0.9345
16.6893 -2.2875 0.2846 0.9348
16.7024 -1.6821 0.2836 0.9350
19.0689 -1.2321 0.3228 0.9264
19.1262 0.1372 0.3231 0.9263
19.1411 0.8239 0.3236 0.9262
19.1434 2.2057 0.3255 0.9258
19.1896 4.3366 0.3323 0.9243
19.2333 5.0774 0.3360 0.9235
18.6824 5.6555 0.3297 0.9249
7.5064 2.8739 0.1358 0.9684
19.2914 9.0193 0.3597 0.9183
19.2730 9.8673 0.3657 0.9170
18.7974 10.4906 0.3636 0.9175
13.3213 9.4414 0.2758 0.9368
12.3843 9.4620 0.2633 0.9396
11.5278 9.4808 0.2521 0.9420
10.7399 9.4980 0.2422 0.9443
8.9610 11.3703 0.2445 0.9437
8.3283 11.3841 0.2383 0.9451
6.6014 11.4219 0.2228 0.9486
3.4636 9.6433 0.1731 0.9598
3.0850 9.6648 0.1714 0.9602
2.3414 9.6818 0.1683 0.9609
1.6206 9.6974 0.1661 0.9614
1.2662 9.7047 0.1653 0.9616
0.9033 9.5923 0.1628 0.9622
-0.4827 9.7431 0.1648 0.9617
-1.9091 9.7745 0.1682 0.9609
-2.2774 9.7825 0.1697 0.9606
-2.6526 9.7907 0.1714 0.9602
-6.0953 19.6747 0.3479 0.9209
-6.8833 19.6918 0.3524 0.9199
-7.6927 19.7094 0.3574 0.9188
-8.5266 19.7276 0.3630 0.9176
-9.3977 19.7660 0.3697 0.9162
-7.8114 15.0167 0.2859 0.9345
-7.8495 13.8534 0.2690 0.9383
39.2240 -29.0870 -0.2749 0.8226
41.1565 -28.2917 -0.2812 0.8189
41.2548 -26.2331 -0.2753 0.8224
38.5671 -20.8041 -0.2467 0.8392
39.5627 -19.5443 -0.2484 0.8382
36.6801 -14.9554 -0.2230 0.8535
24.4432 -7.9771 -0.1448 0.9023
46.0526 -13.2230 -0.2698 0.8256
19.0281 -4.0142 -0.1095 0.9252
19.0883 -1.2334 -0.1077 0.9263
19.1328 0.8236 -0.1078 0.9263
19.1477 1.5132 -0.1081 0.9260
19.1628 2.2079 -0.1086 0.9257
19.1933 3.6198 -0.1100 0.9248
19.2247 5.0751 -0.1119 0.9235
19.2574 6.5917 -0.1146 0.9218
7.5040 2.8730 -0.0452 0.9684
19.3288 9.8959 -0.1223 0.9168
19.3482 10.7980 -0.1247 0.9152
19.3685 11.7389 -0.1275 0.9134
14.3586 9.4222 -0.0967 0.9336
13.3259 9.4446 -0.0920 0.9368
12.3884 9.4651 -0.0878 0.9395
10.0137 9.5168 -0.0778 0.9462
9.3352 9.5315 -0.0751 0.9480
9.1097 9.9940 -0.0761 0.9473
7.7283 11.4000 -0.0775 0.9464
7.1536 11.4126 -0.0758 0.9475
6.6030 11.4246 -0.0743 0.9486
6.0736 11.4361 -0.0729 0.9495
4.1947 9.4816 -0.0584 0.9594
3.4117 9.4986 -0.0568 0.9604
3.0858 9.6674 -0.0571 0.9602
2.7104 9.6756 -0.0566 0.9606
2.3419 9.6838 -0.0561 0.9609
1.9791 9.6918 -0.0557 0.9612
1.2665 9.7073 -0.0551 0.9616
0.8996 9.5534 -0.0540 0.9623
-0.1329 9.7378 -0.0548 0.9618
-0.9915 11.5898 -0.0655 0.9545
-2.2691 11.6178 -0.0666 0.9538
-2.7069 11.6274 -0.0672 0.9534
-7.7020 19.7334 -0.1193 0.9188
-8.5370 19.7517 -0.1211 0.9175
-9.3999 19.7705 -0.1232 0.9162
39.2038 -29.0721 -1.3743 0.8226
41.1411 -28.2811 -1.4058 0.8189
39.5440 -19.5350 -1.2419 0.8382
39.5815 -17.8184 -1.2223 0.8406
23.4490 -8.5941 -0.7032 0.9049
24.0240 -7.8403 -0.7116 0.9038
37.6368 -10.8066 -1.1026 0.8550
19.0043 -4.7265 -0.5514 0.9246
19.0198 -4.0124 -0.5473 0.9252
16.6616 -2.8955 -0.4762 0.9346
19.0950 -0.5477 -0.5379 0.9264
19.1098 0.1370 -0.5381 0.9264
19.1246 0.8232 -0.5390 0.9263
19.1395 1.5126 -0.5406 0.9261
19.1696 2.9082 -0.5459 0.9253
19.2004 4.3390 -0.5543 0.9243
19.2161 5.0728 -0.5596 0.9236
19.2322 5.8219 -0.5658 0.9227
7.5017 2.8721 -0.2262 0.9684
19.2829 8.1865 -0.5899 0.9196
19.3194 9.8911 -0.6111 0.9168
19.3587 11.7329 -0.6374 0.9134
19.4017 13.7509 -0.6696 0.9092
11.5350 9.4867 -0.4205 0.9420
10.7463 9.5037 -0.4039 0.9442
9.1200 10.7556 -0.3971 0.9451
8.4379 11.5340 -0.4024 0.9444
7.8281 11.5472 -0.3928 0.9457
6.6881 11.5719 -0.3763 0.9479
6.1519 11.5835 -0.3693 0.9489
3.9071 9.7630 -0.2961 0.9588
3.5097 9.7716 -0.2923 0.9593
2.3424 9.6858 -0.2806 0.9609
1.9795 9.6937 -0.2786 0.9612
1.2813 9.8201 -0.2789 0.9611
-0.1329 9.7398 -0.2743 0.9618
-1.4129 11.6014 -0.3291 0.9543
-1.8384 11.6108 -0.3310 0.9540
-7.7037 19.7378 -0.5966 0.9187
-8.6118 19.9247 -0.6112 0.9168
40.9380 -28.1415 -2.5194 0.8196
38.1974 -22.4081 -2.2459 0.8375
23.4670 -8.6008 -1.2675 0.9047
24.1022 -7.8658 -1.2858 0.9034
37.6200 -10.8018 -1.9850 0.8549
19.0115 -4.0107 -0.9854 0.9251
16.6544 -2.8943 -0.8573 0.9345
16.6676 -2.2846 -0.8532 0.9348
19.0719 -1.2323 -0.9692 0.9263
19.0867 -0.5475 -0.9684 0.9264
19.1015 0.1370 -0.9687 0.9263
19.1461 2.2060 -0.9774 0.9257
19.1918 4.3371 -0.9978 0.9242
19.2235 5.8193 -1.0186 0.9227
19.2398 6.5857 -1.0313 0.9218
19.2738 8.1827 -1.0619 0.9196
18.7149 8.7499 -1.0477 0.9206
17.1554 8.7832 -0.9774 0.9257
14.5826 8.8383 -0.8648 0.9340
13.5039 8.8614 -0.8191 0.9374
12.5338 8.8834 -0.7791 0.9403
11.6517 8.9023 -0.7436 0.9430
8.8383 9.0244 -0.6406 0.9507
8.3720 9.1847 -0.6303 0.9514
7.9085 9.3269 -0.6202 0.9522
8.9679 11.3789 -0.7347 0.9436
7.8300 11.5500 -0.7077 0.9456
7.1570 11.4180 -0.6834 0.9475
6.1533 11.5862 -0.6653 0.9488
4.2672 9.6455 -0.5349 0.9586
3.1224 9.7821 -0.5207 0.9597
1.9799 9.6958 -0.5019 0.9611
0.9257 9.8298 -0.5007 0.9612
-0.1330 9.7417 -0.4941 0.9617
-2.0525 8.8163 -0.4591 0.9644
-2.3906 8.8237 -0.4636 0.9640
-2.7360 8.8313 -0.4689 0.9636
-3.8274 8.8553 -0.4892 0.9621
-4.2143 8.8638 -0.4977 0.9615
-5.0326 8.8819 -0.5177 0.9599
29.7717 -31.7354 -3.1906 0.8399
30.9580 -30.7155 -3.1976 0.8395
32.0816 -29.6257 -3.2019 0.8393
31.4726 -25.1360 -2.9533 0.8508
32.4065 -24.0314 -2.9582 0.8506
34.5257 -21.9542 -3.0000 0.8487
35.5419 -20.8500 -3.0213 0.8477
36.4867 -19.6819 -3.0397 0.8468
37.3754 -18.4637 -3.0566 0.8460
23.4276 -8.5863 -1.8295 0.9048
37.6032 -10.7970 -2.8685 0.8548
16.6471 -2.8930 -1.2389 0.9345
16.6604 -2.2836 -1.2330 0.9348
19.0636 -1.2318 -1.4007 0.9262
19.0785 -0.5473 -1.3994 0.9263
19.0933 0.1369 -1.4000 0.9263
19.1229 1.5113 -1.4065 0.9259
19.1378 2.2050 -1.4125 0.9256
19.1528 2.9056 -1.4204 0.9252
19.1680 3.6150 -1.4302 0.9247
19.2147 5.8166 -1.4720 0.9226
19.2309 6.5827 -1.4904 0.9217
7.4970 2.8702 -0.5886 0.9683
19.2646 8.1788 -1.5346 0.9195
18.7235 8.7539 -1.5155 0.9204
15.7967 8.8160 -1.3264 0.9300
14.5882 8.8417 -1.2508 0.9339
13.5088 8.8646 -1.1847 0.9373
10.8488 8.9224 -1.0299 0.9452
10.1067 8.9382 -0.9893 0.9473
9.4202 8.9528 -0.9529 0.9492
8.7816 8.9664 -0.9202 0.9509
8.1846 8.9792 -0.8908 0.9524
7.0894 8.9955 -0.8398 0.9551
6.1124 9.0164 -0.7987 0.9573
5.4288 8.6609 -0.7495 0.9598
3.8467 8.6949 -0.6971 0.9626
3.4828 8.7028 -0.6873 0.9631
3.1286 8.7104 -0.6786 0.9636
2.7828 8.7179 -0.6710 0.9640
2.1119 8.7324 -0.6587 0.9646
1.7846 8.7395 -0.6540 0.9649
0.8250 8.7604 -0.6452 0.9653
0.1948 8.7741 -0.6435 0.9654
-0.1198 8.7758 -0.6435 0.9654
-0.4351 8.7827 -0.6448 0.9653
-0.7520 8.7897 -0.6468 0.9652
-1.3940 8.8037 -0.6536 0.9649
-2.7366 8.8332 -0.6780 0.9636
-3.0904 8.8410 -0.6867 0.9631
-3.4538 8.8490 -0.6965 0.9626
-3.8283 8.8573 -0.7075 0.9620
-4.6165 8.8747 -0.7335 0.9607
21.3021 -19.6714 -2.7837 0.8900
23.4244 -17.3706 -2.7997 0.8894
24.6567 -15.6787 -2.8052 0.8892
23.9270 -12.9069 -2.6100 0.8965
23.3286 -8.5500 -2.3853 0.9050
23.6816 -7.7285 -2.3916 0.9047
18.9948 -4.0071 -1.8637 0.9250
16.6398 -2.8917 -1.6214 0.9344
16.6663 -1.6785 -1.6081 0.9349
19.0850 0.1368 -1.8323 0.9262
19.0998 0.8221 -1.8354 0.9261
19.1294 2.2041 -1.8487 0.9255
19.1444 2.9044 -1.8590 0.9251
19.1748 4.3332 -1.8873 0.9240
19.2060 5.8140 -1.9265 0.9225
7.4946 2.8693 -0.7704 0.9683
19.2555 8.1749 -2.0083 0.9194
17.1701 8.7908 -1.8519 0.9254
15.8030 8.8196 -1.7375 0.9299
12.5424 8.8895 -1.4759 0.9401
10.8522 8.9252 -1.3490 0.9451
10.1097 8.9409 -1.2957 0.9472
7.6200 8.9866 -1.1312 0.9538
7.0912 8.9978 -1.0999 0.9550
5.0120 8.6719 -0.9616 0.9606
4.6102 8.6805 -0.9436 0.9613
4.2226 8.6888 -0.9275 0.9619
3.8475 8.6969 -0.9130 0.9625
3.4835 8.7047 -0.9001 0.9630
2.7834 8.7198 -0.8788 0.9639
2.4447 8.7271 -0.8701 0.9642
2.1123 8.7343 -0.8627 0.9645
0.8252 8.7622 -0.8449 0.9653
-0.4352 8.7845 -0.8444 0.9653
-0.7521 8.7915 -0.8471 0.9652
-1.0715 8.7984 -0.8509 0.9650
-1.7212 8.8127 -0.8621 0.9646
-2.3917 8.8275 -0.8780 0.9639
-2.7371 8.8351 -0.8880 0.9635
-3.0910 8.8429 -0.8993 0.9631
-3.4546 8.8510 -0.9122 0.9625
-3.8291 8.8593 -0.9266 0.9620
-4.6175 8.8768 -0.9606 0.9606
-5.0350 8.8861 -0.9805 0.9598
15.1548 -16.1544 -2.6311 0.9146
16.9161 -14.5332 -2.6491 0.9141
18.4688 -12.6957 -2.6622 0.9137
19.3733 -11.3651 -2.6680 0.9135
20.1639 -9.9611 -2.6715 0.9134
19.4595 -7.9341 -2.4963 0.9188
20.0107 -6.5305 -2.5004 0.9187
20.2811 -5.8233 -2.5064 0.9185
18.9706 -4.7181 -2.3221 0.9243
16.6325 -2.8905 -2.0053 0.9343
16.6459 -2.2816 -1.9958 0.9346
16.6591 -1.6777 -1.9889 0.9348
19.0619 -0.5468 -2.2652 0.9261
19.0767 0.1368 -2.2661 0.9260
19.0915 0.8218 -2.2699 0.9259
19.1062 1.5099 -2.2766 0.9257
19.1510 3.6118 -2.3150 0.9245
19.1662 4.3313 -2.3341 0.9239
19.1972 5.8113 -2.3825 0.9224
19.2132 6.5766 -2.4123 0.9215
17.1775 8.7946 -2.2923 0.9252
14.5993 8.8484 -2.0278 0.9335
12.5467 8.8925 -1.8267 0.9399
10.8556 8.9280 -1.6696 0.9450
10.1128 8.9436 -1.6036 0.9471
9.4257 8.9580 -1.5446 0.9490
7.6220 8.9889 -1.3999 0.9536
7.0930 9.0001 -1.3612 0.9549
6.1153 9.0208 -1.2946 0.9570
4.6112 8.6825 -1.1678 0.9612
2.1127 8.7361 -1.0676 0.9644
1.7854 8.7432 -1.0600 0.9647
1.4623 8.7502 -1.0538 0.9649
0.8253 8.7640 -1.0456 0.9652
0.1949 8.7777 -1.0429 0.9653
-0.7523 8.7933 -1.0483 0.9651
-1.3946 8.8074 -1.0592 0.9647
-1.7216 8.8146 -1.0668 0.9645
-2.3922 8.8294 -1.0866 0.9638
-3.8300 8.8613 -1.1467 0.9619
-4.2172 8.8699 -1.1667 0.9612
13.3967 -12.3711 -2.5837 0.9290
14.2917 -11.4142 -2.5915 0.9288
14.7108 -10.9090 -2.5949 0.9287
15.8455 -9.2956 -2.6029 0.9285
16.1804 -8.7281 -2.6049 0.9284
16.4927 -8.1475 -2.6064 0.9284
16.5734 -4.7587 -2.4432 0.9327
16.7411 -4.1636 -2.4443 0.9327
16.8783 -3.5607 -2.4441 0.9327
16.6518 -1.6770 -2.3713 0.9346
17.4794 0.1254 -2.4767 0.9318
17.4942 0.7530 -2.4810 0.9317
17.4255 2.0078 -2.4853 0.9316
17.3650 2.6344 -2.4886 0.9315
17.0027 4.4886 -2.4916 0.9314
16.6422 5.6966 -2.4923 0.9314
16.1999 6.8777 -2.4936 0.9314
15.9183 7.4423 -2.4898 0.9315
12.5511 8.8956 -2.1797 0.9397
11.6670 8.9140 -2.0804 0.9424
10.8591 8.9308 -1.9921 0.9448
10.1159 8.9463 -1.9134 0.9469
9.4284 8.9607 -1.8430 0.9488
8.7890 8.9740 -1.7798 0.9505
7.0949 9.0024 -1.6241 0.9547
6.5936 9.0130 -1.5823 0.9559
6.1169 9.0231 -1.5446 0.9569
5.0144 8.6760 -1.4198 0.9603
4.2245 8.6927 -1.3694 0.9617
3.1306 8.7161 -1.3122 0.9633
2.4458 8.7308 -1.2847 0.9640
1.1428 8.7589 -1.2516 0.9649
0.8255 8.7658 -1.2475 0.9651
-0.1198 8.7813 -1.2443 0.9651
-0.7524 8.7951 -1.2507 0.9650
-1.3949 8.8092 -1.2637 0.9646
-1.7220 8.8164 -1.2728 0.9644
-2.7384 8.8390 -1.3111 0.9633
-3.4561 8.8549 -1.3468 0.9623
-4.2182 8.8720 -1.3919 0.9611
-4.6197 8.8809 -1.4184 0.9604
10.5787 -11.2764 -2.5472 0.9392
10.9892 -10.9032 -2.5502 0.9392
11.3862 -10.5146 -2.5532 0.9391
12.1362 -9.6927 -2.5587 0.9390
12.4880 -9.2605 -2.5612 0.9389
13.7273 -7.4048 -2.5694 0.9387
14.6675 -5.3757 -2.5735 0.9386
14.1125 -4.0521 -2.4188 0.9422
14.2041 -3.5326 -2.4112 0.9424
14.4306 -2.5078 -2.4129 0.9424
14.5149 -1.9895 -2.4135 0.9423
14.5912 -1.4695 -2.4159 0.9423
14.6629 -0.9474 -2.4206 0.9422
14.7141 -0.4221 -2.4250 0.9421
14.7444 0.1058 -2.4290 0.9420
14.7350 1.1645 -2.4350 0.9418
14.6503 2.2226 -2.4411 0.9417
14.5695 2.7478 -2.4425 0.9417
7.4874 2.8666 -1.3208 0.9680
13.2354 6.7762 -2.4495 0.9415
12.4231 8.1521 -2.4479 0.9415
12.1262 8.5945 -2.4485 0.9415
11.6709 8.9169 -2.4196 0.9422
10.1190 8.9491 -2.2254 0.9467
8.7916 8.9766 -2.0699 0.9503
8.1936 8.9891 -2.0037 0.9519
7.6260 8.9937 -1.9426 0.9533
7.0967 9.0048 -1.8888 0.9546
6.5953 9.0153 -1.8402 0.9557
5.4340 8.6692 -1.6855 0.9594
5.0156 8.6780 -1.6512 0.9602
4.6134 8.6865 -1.6203 0.9609
4.2254 8.6947 -1.5925 0.9616
3.8501 8.7027 -1.5677 0.9622
2.7851 8.7254 -1.5089 0.9636
2.4463 8.7326 -1.4940 0.9639
1.7861 8.7468 -1.4707 0.9645
1.4629 8.7538 -1.4621 0.9647
1.1431 8.7607 -1.4555 0.9648
0.8256 8.7676 -1.4508 0.9649
0.1950 8.7813 -1.4470 0.9650
-0.1199 8.7831 -1.4471 0.9650
-0.4354 8.7900 -1.4498 0.9650
-1.3952 8.8111 -1.4696 0.9645
-2.3932 8.8332 -1.5076 0.9636
-2.7390 8.8409 -1.5247 0.9632
-3.0931 8.8488 -1.5442 0.9627
-3.4569 8.8569 -1.5663 0.9622
-3.8317 8.8653 -1.5911 0.9616
-4.2191 8.8740 -1.6187 0.9609
-4.6208 8.8830 -1.6495 0.9602
9.2134 -9.8210 -2.5311 0.9467
10.5575 -8.4318 -2.5396 0.9465
10.8616 -8.0545 -2.5416 0.9465
11.4265 -7.2658 -2.5452 0.9464
11.6864 -6.8556 -2.5467 0.9463
11.9307 -6.4357 -2.5480 0.9463
12.1590 -6.0066 -2.5491 0.9463
12.3710 -5.5690 -2.5500 0.9463
12.5664 -5.1236 -2.5508 0.9463
12.7458 -4.6714 -2.5515 0.9462
12.9075 -4.2124 -2.5520 0.9462
12.4504 -2.6265 -2.3917 0.9495
12.5415 -2.1795 -2.3926 0.9495
12.6156 -1.7292 -2.3934 0.9495
12.6719 -1.2762 -2.3939 0.9495
12.7105 -0.8213 -2.3941 0.9495
12.7358 -0.3653 -2.3948 0.9495
12.7558 1.0081 -2.4051 0.9493
12.7273 1.4664 -2.4081 0.9492
12.6811 1.9238 -2.4108 0.9491
12.1714 4.1662 -2.4181 0.9490
7.4654 2.8582 -1.5025 0.9680
11.8579 5.0342 -2.4213 0.9489
11.2532 6.2803 -2.4223 0.9489
11.0255 6.6823 -2.4233 0.9489
10.7664 7.0650 -2.4205 0.9489
10.5105 7.4493 -2.4214 0.9489
10.2401 7.8238 -2.4222 0.9489
9.9382 8.1734 -2.4186 0.9490
9.6415 8.5267 -2.4192 0.9490
8.7941 8.9792 -2.3623 0.9501
8.1959 8.9915 -2.2868 0.9517
7.6281 8.9962 -2.2170 0.9531
7.0986 9.0072 -2.1556 0.9544
6.1199 9.0275 -2.0500 0.9566
5.4354 8.6713 -1.9236 0.9592
5.0168 8.6801 -1.8844 0.9600
4.6145 8.6886 -1.8491 0.9608
3.8510 8.7047 -1.7891 0.9620
3.4866 8.7124 -1.7639 0.9625
3.1320 8.7199 -1.7415 0.9630
2.1141 8.7417 -1.6905 0.9641
1.4632 8.7557 -1.6685 0.9645
1.1433 8.7626 -1.6610 0.9647
0.1950 8.7832 -1.6513 0.9649
-0.4355 8.7918 -1.6545 0.9648
-0.7527 8.7988 -1.6599 0.9647
-1.0724 8.8058 -1.6674 0.9645
-1.7227 8.8202 -1.6892 0.9641
-2.0551 8.8276 -1.7036 0.9638
-2.7396 8.8428 -1.7401 0.9630
-3.0938 8.8508 -1.7623 0.9626
-3.4577 8.8589 -1.7875 0.9620
-4.6219 8.8852 -1.8825 0.9601
-5.0399 8.8947 -1.9216 0.9592
8.1670 -8.7057 -2.5232 0.9524
8.7795 -8.1074 -2.5260 0.9523
9.6148 -7.1300 -2.5302 0.9522
9.8696 -6.7845 -2.5316 0.9522
10.1113 -6.4295 -2.5328 0.9522
10.3397 -6.0656 -2.5339 0.9522
11.1165 -4.5325 -2.5376 0.9521
11.2732 -4.1316 -2.5379 0.9521
11.5414 -3.3138 -2.5382 0.9521
11.0907 -1.9273 -2.3795 0.9550
11.1546 -1.5289 -2.3799 0.9550
11.2643 0.0808 -2.3811 0.9550
11.2548 0.4845 -2.3812 0.9550
11.2174 1.2925 -2.3868 0.9549
11.1757 1.6954 -2.3893 0.9548
10.8540 3.2857 -2.3971 0.9547
10.7370 3.6753 -2.3989 0.9547
10.2931 4.8123 -2.4018 0.9546
10.1192 5.1808 -2.4030 0.9546
9.9213 5.5370 -2.4017 0.9546
9.7213 5.8919 -2.4028 0.9546
9.5080 6.2392 -2.4039 0.9546
9.0310 6.8999 -2.4024 0.9546
8.2393 7.8304 -2.4027 0.9546
7.6415 8.3832 -2.3977 0.9547
7.3368 8.6525 -2.3980 0.9547
6.1214 9.0298 -2.3060 0.9564
4.6155 8.6906 -2.0800 0.9606
3.4874 8.7144 -1.9841 0.9624
2.4474 8.7364 -1.9178 0.9636
2.1145 8.7436 -1.9015 0.9639
1.7869 8.7506 -1.8879 0.9641
0.8260 8.7713 -1.8623 0.9646
0.5101 8.7782 -1.8587 0.9647
0.1951 8.7850 -1.8574 0.9647
-1.3957 8.8149 -1.8865 0.9642
-1.7231 8.8221 -1.9001 0.9639
-3.0945 8.8528 -1.9823 0.9624
-3.4585 8.8610 -2.0106 0.9619
-4.2211 8.8782 -2.0780 0.9606
-4.6231 8.8873 -2.1176 0.9599
-5.0411 8.8969 -2.1615 0.9591
8.3818 -6.6942 -2.5211 0.9569
8.6203 -6.3924 -2.5222 0.9569
9.4591 -5.1025 -2.5259 0.9568
9.6384 -4.7615 -2.5266 0.9568
10.0995 -3.7015 -2.5280 0.9568
10.2268 -3.3375 -2.5283 0.9568
10.4406 -2.5966 -2.5285 0.9568
10.5268 -2.2208 -2.5285 0.9568
10.5986 -1.8418 -2.5282 0.9568
10.0886 -0.2894 -2.3720 0.9594
10.0929 0.0724 -2.3721 0.9594
10.0626 0.7952 -2.3723 0.9594
10.0258 1.1552 -2.3719 0.9594
9.8712 2.2308 -2.3785 0.9593
9.7899 2.5844 -2.3797 0.9592
9.6987 2.9360 -2.3816 0.9592
7.3506 2.8142 -1.8498 0.9682
7.4275 3.1534 -1.8964 0.9674
9.0423 4.6295 -2.3875 0.9591
8.6957 5.2703 -2.3897 0.9591
8.2948 5.8789 -2.3894 0.9591
8.0819 6.1748 -2.3904 0.9591
7.8580 6.4626 -2.3912 0.9591
7.6186 6.7377 -2.3903 0.9591
5.9903 8.1883 -2.3844 0.9592
5.0192 8.6843 -2.3574 0.9596
4.2284 8.7008 -2.2736 0.9610
3.8528 8.7087 -2.2381 0.9616
2.7870 8.7312 -2.1540 0.9630
2.1150 8.7455 -2.1146 0.9637
1.7873 8.7525 -2.0995 0.9640
1.4639 8.7594 -2.0872 0.9642
1.1438 8.7663 -2.0778 0.9643
0.8262 8.7732 -2.0710 0.9644
0.1951 8.7869 -2.0656 0.9645
-0.4357 8.7956 -2.0697 0.9645
-1.0729 8.8096 -2.0858 0.9642
-1.3961 8.8168 -2.0980 0.9640
-1.7234 8.8241 -2.1130 0.9637
-2.0560 8.8315 -2.1311 0.9634
-2.3948 8.8391 -2.1523 0.9631
-3.0952 8.8548 -2.2046 0.9622
-3.4592 8.8630 -2.2361 0.9617
-3.8344 8.8715 -2.2714 0.9611
-4.5830 8.8105 -2.3341 0.9600
-4.8943 8.6380 -2.3334 0.9600
6.8902 -6.8362 -2.5131 0.9607
7.3684 -6.3304 -2.5152 0.9607
7.5933 -6.0644 -2.5161 0.9606
8.0125 -5.5079 -2.5175 0.9606
8.2070 -5.2186 -2.5181 0.9606
8.3909 -4.9224 -2.5188 0.9606
8.5641 -4.6197 -2.5194 0.9606
9.0165 -3.6763 -2.5211 0.9606
9.1436 -3.3511 -2.5214 0.9606
9.2585 -3.0215 -2.5216 0.9606
9.3614 -2.6879 -2.5218 0.9606
9.5955 -1.6675 -2.5217 0.9606
9.6480 -1.3224 -2.5214 0.9606
9.1150 -0.5889 -2.3649 0.9630
9.1319 -0.2619 -2.3654 0.9630
9.1368 0.0655 -2.3657 0.9630
9.1095 0.7199 -2.3660 0.9629
8.9762 1.6929 -2.3651 0.9630
8.9172 2.0152 -2.3670 0.9629
7.6294 2.6115 -2.0879 0.9672
8.1718 4.1837 -2.3770 0.9628
8.0202 4.4760 -2.3781 0.9628
7.8534 4.7598 -2.3777 0.9628
7.6812 5.0405 -2.3788 0.9628
7.4987 5.3147 -2.3797 0.9627
7.3059 5.5819 -2.3806 0.9627
6.4280 6.5632 -2.3786 0.9628
6.1831 6.7833 -2.3765 0.9628
5.9365 7.0011 -2.3766 0.9628
5.1449 7.5891 -2.3739 0.9628
4.8691 7.7679 -2.3737 0.9628
4.0054 8.2419 -2.3726 0.9628
3.3991 8.4938 -2.3687 0.9629
1.7877 8.7544 -2.3135 0.9638
1.1441 8.7682 -2.2895 0.9641
0.8264 8.7751 -2.2821 0.9642
-0.7532 8.8045 -2.2880 0.9641
-1.3964 8.8187 -2.3118 0.9638
-1.7238 8.8260 -2.3284 0.9635
-2.0510 8.8100 -2.3421 0.9633
-2.6747 8.6337 -2.3402 0.9633
-3.2821 8.4091 -2.3372 0.9634
-3.5801 8.2832 -2.3364 0.9634
-3.8733 8.1468 -2.3356 0.9634
-4.4428 7.8410 -2.3334 0.9634
6.0656 -6.4657 -2.5097 0.9638
6.2944 -6.2451 -2.5101 0.9638
6.5152 -6.0164 -2.5105 0.9638
7.1283 -5.2860 -2.5123 0.9638
7.3153 -5.0286 -2.5130 0.9638
7.9660 -3.9353 -2.5153 0.9637
8.2298 -3.3555 -2.5160 0.9637
8.4506 -2.7578 -2.5165 0.9637
8.5444 -2.4533 -2.5166 0.9637
8.6270 -2.1455 -2.5166 0.9637
8.7596 -1.5223 -2.5169 0.9637
8.8442 -0.8907 -2.5164 0.9637
8.6878 -0.5613 -2.4646 0.9645
8.3151 0.6571 -2.3613 0.9659
8.2869 0.9548 -2.3615 0.9659
8.2475 1.2512 -2.3615 0.9659
8.1969 1.5459 -2.3614 0.9659
8.0638 2.1288 -2.3610 0.9659
7.5316 2.5780 -2.2536 0.9674
7.2664 3.0850 -2.2348 0.9677
7.5748 3.5414 -2.3671 0.9658
7.4441 3.8112 -2.3675 0.9658
7.1589 4.3388 -2.3698 0.9658
7.0016 4.5945 -2.3707 0.9658
6.6553 5.0848 -2.3710 0.9658
6.0715 5.7702 -2.3712 0.9658
5.8573 5.9805 -2.3698 0.9658
5.6397 6.1872 -2.3700 0.9658
5.1825 6.5758 -2.3702 0.9658
4.6938 6.9239 -2.3680 0.9658
4.1850 7.2409 -2.3676 0.9658
3.9223 7.3852 -2.3673 0.9658
2.5376 7.9500 -2.3625 0.9659
2.2484 8.0262 -2.3596 0.9659
1.6666 8.1615 -2.3581 0.9660
1.3724 8.2118 -2.3569 0.9660
0.1843 8.2990 -2.3500 0.9661
-0.1132 8.2972 -2.3491 0.9661
-0.4104 8.2846 -2.3482 0.9661
-0.7067 8.2613 -2.3472 0.9661
-2.1615 7.9782 -2.3400 0.9662
-3.8055 7.3157 -2.3345 0.9663
-4.0639 7.1723 -2.3337 0.9663
5.5814 -5.9495 -2.5091 0.9664
5.7925 -5.7471 -2.5098 0.9664
5.9962 -5.5372 -2.5104 0.9664
6.1923 -5.3199 -2.5110 0.9664
6.3803 -5.0956 -2.5115 0.9664
6.5600 -4.8646 -2.5120 0.9664
7.0474 -4.1342 -2.5131 0.9664
7.1918 -3.8794 -2.5133 0.9664
7.7700 -2.5357 -2.5139 0.9664
7.9313 -1.9725 -2.5138 0.9664
8.0511 -1.3991 -2.5135 0.9664
8.0953 -1.1096 -2.5132 0.9664
8.1289 -0.8187 -2.5129 0.9664
7.6417 0.6039 -2.3577 0.9684
7.4779 1.6899 -2.3580 0.9684
6.7060 3.7425 -2.3621 0.9684
6.4258 4.2166 -2.3640 0.9683
6.2686 4.4428 -2.3632 0.9684
6.1066 4.6656 -2.3637 0.9684
5.9369 4.8827 -2.3643 0.9683
5.5723 5.2958 -2.3645 0.9683
5.3785 5.4917 -2.3643 0.9683
4.9721 5.8637 -2.3646 0.9683
4.7558 6.0345 -2.3632 0.9684
4.5365 6.2010 -2.3632 0.9684
3.6025 6.7832 -2.3623 0.9684
3.3566 6.9069 -2.3620 0.9684
3.1059 7.0205 -2.3612 0.9684
2.3315 7.3041 -2.3583 0.9684
1.5317 7.5005 -2.3546 0.9685
1.2615 7.5481 -2.3538 0.9685
0.9891 7.5810 -2.3515 0.9685
0.4432 7.6272 -2.3499 0.9685
-0.6499 7.5968 -2.3452 0.9686
-1.9892 7.3423 -2.3398 0.9687
5.3542 -5.3123 -2.5071 0.9687
6.1796 -4.2480 -2.4927 0.9689
6.3715 -4.0514 -2.5098 0.9687
6.6468 -3.5854 -2.5104 0.9687
6.9945 -2.8518 -2.5108 0.9687
7.0924 -2.5994 -2.5109 0.9687
7.3906 -1.5591 -2.5107 0.9687
7.4827 -1.0256 -2.5105 0.9687
7.5141 -0.7567 -2.5104 0.9687
7.1267 0.3068 -2.3712 0.9704
7.0623 0.5581 -2.3548 0.9706
7.0385 0.8110 -2.3551 0.9706
7.0055 1.0628 -2.3553 0.9706
6.9122 1.5621 -2.3556 0.9706
6.7034 2.2946 -2.3552 0.9706
6.4160 2.9997 -2.3543 0.9706
6.1902 3.4547 -2.3564 0.9706
5.6386 4.3080 -2.3587 0.9705
5.1449 4.8896 -2.3593 0.9705
4.9669 5.0714 -2.3596 0.9705
4.5915 5.4149 -2.3599 0.9705
3.9819 5.8736 -2.3588 0.9705
3.7685 6.0121 -2.3586 0.9705
3.5503 6.1428 -2.3584 0.9705
3.3275 6.2653 -2.3581 0.9705
2.6331 6.5795 -2.3557 0.9706
1.9103 6.8193 -2.3540 0.9706
1.6634 6.8780 -2.3522 0.9706
1.4154 6.9313 -2.3515 0.9706
0.4097 7.0503 -2.3475 0.9707
0.1567 7.0580 -2.3467 0.9707
-2.0812 6.7179 -2.3378 0.9708
-2.5551 6.5466 -2.3360 0.9708
-3.0169 6.3454 -2.3355 0.9708
-3.4636 6.1130 -2.3355 0.9708
4.7924 -5.1084 -2.5048 0.9707
5.1479 -4.7538 -2.5058 0.9707
5.3159 -4.5670 -2.5062 0.9707
5.4770 -4.3743 -2.5066 0.9707
5.6311 -4.1758 -2.5070 0.9707
5.7417 -3.9469 -2.4916 0.9708
6.2886 -3.1066 -2.5083 0.9706
6.3963 -2.8794 -2.5084 0.9706
6.4957 -2.6485 -2.5086 0.9706
6.7429 -1.9361 -2.5087 0.9706
6.8079 -1.6932 -2.5087 0.9706
6.8641 -1.4481 -2.5087 0.9706
6.9114 -1.2011 -2.5086 0.9706
6.9789 -0.7029 -2.5083 0.9706
7.0102 -0.2011 -2.5079 0.9706
7.0120 0.0503 -2.5076 0.9707
6.6792 0.5279 -2.3960 0.9719
6.5060 0.9870 -2.3532 0.9724
6.4669 1.2196 -2.3534 0.9724
6.1466 2.3533 -2.3536 0.9724
6.0579 2.5719 -2.3535 0.9724
5.7456 3.2066 -2.3530 0.9724
5.3701 3.8060 -2.3538 0.9724
5.2315 3.9970 -2.3544 0.9724
5.0860 4.1828 -2.3549 0.9724
4.7741 4.5371 -2.3552 0.9724
4.6089 4.7058 -2.3555 0.9724
3.8886 5.3153 -2.3551 0.9724
3.6954 5.4511 -2.3550 0.9724
3.4974 5.5796 -2.3549 0.9724
3.2950 5.7009 -2.3547 0.9724
2.8774 5.9209 -2.3541 0.9724
2.6629 6.0193 -2.3538 0.9724
2.4442 6.1075 -2.3525 0.9724
2.2233 6.1900 -2.3520 0.9724
1.9996 6.2643 -2.3515 0.9725
1.3142 6.4355 -2.3489 0.9725
0.6151 6.5316 -2.3461 0.9725
0.3805 6.5475 -2.3454 0.9725
0.1456 6.5549 -2.3446 0.9725
-0.3241 6.5440 -2.3431 0.9726
-0.5582 6.5246 -2.3418 0.9726
-0.7914 6.4983 -2.3410 0.9726
-1.0234 6.4635 -2.3402 0.9726
-1.4827 6.3691 -2.3385 0.9726
-1.9338 6.2420 -2.3368 0.9726
-2.1562 6.1687 -2.3369 0.9726
-2.3758 6.0871 -2.3367 0.9726
-2.5923 5.9978 -2.3366 0.9726
4.4730 -4.7680 -2.5053 0.9724
4.8025 -4.4348 -2.5051 0.9724
4.9581 -4.2596 -2.5049 0.9724
5.2512 -3.8941 -2.5053 0.9724
5.3880 -3.7038 -2.5056 0.9724
5.5179 -3.5087 -2.5059 0.9724
5.7561 -3.1050 -2.5063 0.9724
5.9646 -2.6850 -2.5066 0.9724
6.1421 -2.2511 -2.5068 0.9724
6.2877 -1.8054 -2.5069 0.9724
6.5088 -0.6555 -2.5069 0.9724
6.5276 -0.4217 -2.5067 0.9724
6.5381 -0.1875 -2.5065 0.9724
6.5401 0.0469 -2.5063 0.9724
6.5333 0.2813 -2.5060 0.9724
6.5183 0.5152 -2.5057 0.9724
6.0673 0.9205 -2.3517 0.9741
5.9859 1.3528 -2.3517 0.9741
5.8744 1.7783 -2.3521 0.9741
5.4626 2.7968 -2.3518 0.9741
5.3590 2.9908 -2.3518 0.9741
5.2481 3.1807 -2.3517 0.9741
5.1303 3.3665 -2.3515 0.9741
4.8740 3.7238 -2.3505 0.9741
4.7383 3.8969 -2.3510 0.9741
4.2943 4.3846 -2.3519 0.9741
3.2592 5.1995 -2.3516 0.9741
3.0705 5.3126 -2.3514 0.9741
2.8778 5.4187 -2.3512 0.9741
2.6815 5.5177 -2.3509 0.9741
2.2781 5.6924 -2.3496 0.9741
2.0722 5.7694 -2.3492 0.9741
1.6529 5.9005 -2.3482 0.9741
1.4397 5.9532 -2.3471 0.9741
1.2252 5.9995 -2.3466 0.9741
0.7918 6.0686 -2.3453 0.9741
0.1357 6.1121 -2.3428 0.9742
-0.0834 6.1111 -2.3421 0.9742
-0.3022 6.1023 -2.3414 0.9742
-0.5206 6.0855 -2.3406 0.9742
-0.7381 6.0606 -2.3397 0.9742
-0.9545 6.0283 -2.3389 0.9742
-1.1696 5.9883 -2.3382 0.9742
-1.8053 5.8275 -2.3379 0.9742
-2.2179 5.6826 -2.3377 0.9742
4.1867 -4.4628 -2.5044 0.9739
4.4966 -4.1523 -2.5050 0.9739
4.6429 -3.9888 -2.5052 0.9739
4.8843 -3.6220 -2.4887 0.9741
5.0453 -3.4682 -2.5057 0.9739
5.2814 -3.0982 -2.5060 0.9739
5.6705 -2.3120 -2.5063 0.9739
5.7498 -2.1073 -2.5063 0.9739
5.8216 -1.8999 -2.5063 0.9739
6.0661 -0.8314 -2.5059 0.9739
6.1150 0.2632 -2.5050 0.9739
6.1009 0.4822 -2.5047 0.9739
5.9190 0.8980 -2.4502 0.9745
5.6020 1.2660 -2.3506 0.9755
5.5534 1.4660 -2.3507 0.9755
5.3644 2.0538 -2.3509 0.9755
5.2871 2.2446 -2.3508 0.9755
5.2032 2.4327 -2.3508 0.9755
5.1128 2.6177 -2.3508 0.9755
4.9119 2.9770 -2.3507 0.9755
4.6853 3.3207 -2.3503 0.9755
4.5631 3.4863 -2.3502 0.9755
4.4348 3.6473 -2.3500 0.9755
4.3007 3.8034 -2.3497 0.9755
3.8662 4.2415 -2.3488 0.9755
3.5526 4.5077 -2.3490 0.9755
3.2204 4.7504 -2.3488 0.9755
3.0479 4.8625 -2.3487 0.9755
2.6913 5.0675 -2.3484 0.9755
2.5077 5.1601 -2.3481 0.9755
2.3209 5.2460 -2.3478 0.9755
1.9382 5.3964 -2.3467 0.9755
1.7433 5.4613 -2.3463 0.9755
1.5461 5.5192 -2.3458 0.9755
1.3470 5.5698 -2.3453 0.9755
1.1461 5.6126 -2.3445 0.9755
0.9440 5.6487 -2.3439 0.9756
0.7408 5.6774 -2.3433 0.9756
0.5367 5.6987 -2.3427 0.9756
0.1270 5.7190 -2.3412 0.9756
-0.2828 5.7101 -2.3399 0.9756
-0.4873 5.6963 -2.3399 0.9756
-0.8939 5.6456 -2.3394 0.9756
-1.0955 5.6094 -2.3392 0.9756
-1.2958 5.5660 -2.3389 0.9756
-1.4943 5.5155 -2.3387 0.9756
-1.8853 5.3935 -2.3384 0.9756
3.9303 -4.1895 -2.5035 0.9752
4.2211 -3.8979 -2.5040 0.9752
4.3585 -3.7445 -2.5042 0.9752
4.4902 -3.5861 -2.5044 0.9752
4.5850 -3.4001 -2.4877 0.9754
4.7362 -3.2557 -2.5047 0.9752
4.8501 -3.0840 -2.5049 0.9752
5.0590 -2.7289 -2.5051 0.9752
5.1537 -2.5459 -2.5052 0.9752
5.2417 -2.3596 -2.5052 0.9752
5.3230 -2.1703 -2.5052 0.9752
5.4648 -1.7834 -2.5052 0.9752
5.6243 -1.1865 -2.5051 0.9752
5.6630 -0.9841 -2.5050 0.9752
5.7184 -0.5759 -2.5048 0.9752
5.7350 -0.3705 -2.5046 0.9752
5.7461 0.0412 -2.5043 0.9752
5.7404 0.2471 -2.5041 0.9752
5.7070 0.6576 -2.5037 0.9752
5.6793 0.8616 -2.5034 0.9752
5.5818 1.0527 -2.4755 0.9755
5.3133 1.2007 -2.3740 0.9765
5.1604 1.5621 -2.3498 0.9767
5.1012 1.7461 -2.3498 0.9767
4.7997 2.4573 -2.3500 0.9767
4.5076 2.9579 -2.3496 0.9767
4.3985 3.1174 -2.3496 0.9768
4.1634 3.4241 -2.3493 0.9768
4.0376 3.5707 -2.3490 0.9768
3.7706 3.8499 -2.3485 0.9768
3.4844 4.1092 -2.3480 0.9768
3.1802 4.3470 -2.3473 0.9768
3.0218 4.4576 -2.3470 0.9768
1.6356 5.1239 -2.3441 0.9768
1.2638 5.2258 -2.3431 0.9768
1.0755 5.2666 -2.3426 0.9768
0.5038 5.3498 -2.3418 0.9768
-0.0733 5.3708 -2.3409 0.9768
-0.4577 5.3504 -2.3403 0.9768
-0.6491 5.3300 -2.3400 0.9768
-1.4036 5.1809 -2.3393 0.9769
-2.1291 4.9261 -2.3388 0.9769
-2.3042 4.8465 -2.3388 0.9769
-2.4765 4.7608 -2.3388 0.9769
3.8401 -3.8099 -2.5039 0.9764
3.9736 -3.6694 -2.5036 0.9764
4.2261 -3.3752 -2.5035 0.9764
4.5648 -2.9026 -2.5040 0.9764
4.7614 -2.5684 -2.5042 0.9764
4.9334 -2.2208 -2.5043 0.9764
5.0099 -2.0426 -2.5043 0.9764
5.0799 -1.8618 -2.5043 0.9764
5.1433 -1.6785 -2.5043 0.9764
5.2001 -1.4931 -2.5043 0.9764
5.2502 -1.3057 -2.5042 0.9764
5.2935 -1.1167 -2.5042 0.9764
5.3595 -0.7346 -2.5040 0.9764
5.3821 -0.5420 -2.5039 0.9764
5.3982 -0.3488 -2.5039 0.9764
5.4080 -0.1551 -2.5043 0.9764
5.3917 0.4261 -2.5035 0.9764
5.3132 1.0021 -2.5027 0.9764
5.0303 1.3280 -2.4082 0.9773
4.8574 1.4704 -2.3492 0.9779
4.8011 1.6434 -2.3489 0.9779
4.6714 1.9832 -2.3491 0.9779
4.5974 2.1494 -2.3492 0.9779
4.5175 2.3129 -2.3492 0.9779
4.2427 2.7841 -2.3490 0.9779
4.1401 2.9343 -2.3489 0.9779
3.8004 3.3610 -2.3484 0.9779
3.6771 3.4947 -2.3481 0.9779
3.5493 3.6240 -2.3480 0.9779
3.2800 3.8682 -2.3475 0.9779
2.8447 4.1962 -2.3466 0.9779
2.5362 4.3881 -2.3460 0.9779
2.3770 4.4755 -2.3457 0.9779
2.2147 4.5572 -2.3453 0.9779
1.8820 4.7029 -2.3447 0.9779
1.7120 4.7665 -2.3444 0.9779
1.1900 4.9205 -2.3433 0.9779
1.0128 4.9594 -2.3430 0.9779
0.8342 4.9919 -2.3427 0.9779
0.6547 5.0179 -2.3424 0.9779
0.4744 5.0374 -2.3420 0.9779
0.1123 5.0570 -2.3414 0.9780
-0.2502 5.0512 -2.3410 0.9780
-0.6112 5.0192 -2.3405 0.9780
-1.1462 4.9233 -2.3399 0.9780
-1.4957 4.8282 -2.3397 0.9780
-1.8375 4.7081 -2.3394 0.9780
-2.1699 4.5640 -2.3392 0.9780
-2.4913 4.3968 -2.3392 0.9780
3.4952 -3.7257 -2.5059 0.9775
3.6259 -3.5975 -2.5055 0.9775
4.5763 -2.2607 -2.5038 0.9775
4.7265 -1.9271 -2.5038 0.9775
4.7926 -1.7565 -2.5038 0.9775
4.8527 -1.5837 -2.5039 0.9775
4.9065 -1.4088 -2.5040 0.9775
5.0798 -0.5116 -2.5043 0.9775
5.1025 -0.1464 -2.5039 0.9775
5.1040 0.0366 -2.5037 0.9775
5.0691 0.5841 -2.5029 0.9775
5.0131 0.9455 -2.5024 0.9775
4.9755 1.1244 -2.5021 0.9775
4.9314 1.3018 -2.5018 0.9775
4.7679 1.4434 -2.4436 0.9780
4.5539 1.5588 -2.3610 0.9788
4.4713 1.7119 -2.3485 0.9789
4.1806 2.3331 -2.3484 0.9789
4.0943 2.4815 -2.3484 0.9789
3.9059 2.7683 -2.3483 0.9789
3.6971 3.0406 -2.3480 0.9789
3.5854 3.1708 -2.3478 0.9789
3.4692 3.2971 -2.3476 0.9789
3.2238 3.5367 -2.3474 0.9789
3.0946 3.6495 -2.3471 0.9789
2.9615 3.7576 -2.3468 0.9789
2.6841 3.9592 -2.3463 0.9789
2.3931 4.1404 -2.3458 0.9789
2.2428 4.2230 -2.3455 0.9789
1.6156 4.4979 -2.3443 0.9789
0.7873 4.7108 -2.3428 0.9789
0.4477 4.7539 -2.3422 0.9790
0.1060 4.7726 -2.3416 0.9790
-0.0651 4.7728 -2.3414 0.9790
-0.5769 4.7371 -2.3408 0.9790
-0.7462 4.7130 -2.3406 0.9790
-1.4116 4.5568 -2.3400 0.9790
-2.0480 4.3077 -2.3397 0.9790
-2.2059 4.2407 -2.3448 0.9789
3.5489 -3.2772 -2.5060 0.9785
3.6641 -3.1479 -2.5060 0.9785
3.7507 -2.9955 -2.4902 0.9786
4.1656 -2.4437 -2.5054 0.9785
4.2504 -2.2927 -2.5053 0.9785
4.4036 -1.9824 -2.5053 0.9785
4.4718 -1.8233 -2.5053 0.9785
4.5904 -1.4981 -2.5050 0.9785
4.6409 -1.3325 -2.5049 0.9785
4.7238 -0.9965 -2.5045 0.9785
4.7561 -0.8265 -2.5044 0.9785
4.7823 -0.6555 -2.5042 0.9785
4.8024 -0.4836 -2.5040 0.9785
4.8239 -0.1383 -2.5036 0.9785
4.8253 0.0346 -2.5033 0.9785
4.8206 0.2075 -2.5031 0.9785
4.7691 0.7235 -2.5024 0.9785
4.3192 1.6536 -2.3993 0.9794
4.0999 1.9168 -2.3479 0.9798
3.9520 2.2055 -2.3478 0.9798
3.6923 2.6169 -2.3478 0.9798
3.0477 3.3435 -2.3470 0.9798
2.7997 3.5524 -2.3464 0.9798
2.4016 3.8314 -2.3458 0.9798
2.1205 3.9926 -2.3453 0.9798
1.5275 4.2528 -2.3442 0.9798
1.3740 4.3043 -2.3440 0.9798
0.9037 4.4251 -2.3430 0.9799
0.7444 4.4543 -2.3428 0.9799
0.5842 4.4777 -2.3426 0.9799
0.2620 4.5071 -2.3421 0.9799
0.1003 4.5130 -2.3418 0.9799
-0.5455 4.4796 -2.3411 0.9799
-0.7057 4.4569 -2.3409 0.9799
-0.8649 4.4284 -2.3408 0.9799
-1.0229 4.3941 -2.3405 0.9799
-1.1797 4.3543 -2.3404 0.9799
-1.3349 4.3091 -2.3403 0.9799
-1.4885 4.2583 -2.3402 0.9799
-1.6401 4.2021 -2.3401 0.9799
-1.7896 4.1405 -2.3401 0.9799
-2.3162 4.0878 -2.4374 0.9791
3.1300 -3.3364 -2.5056 0.9794
3.2475 -3.2220 -2.5056 0.9794
3.3609 -3.1036 -2.5056 0.9794
3.4699 -2.9811 -2.5055 0.9794
3.5518 -2.8367 -2.4896 0.9795
3.6745 -2.7248 -2.5055 0.9794
3.7697 -2.5913 -2.5054 0.9794
3.8600 -2.4545 -2.5053 0.9794
3.9454 -2.3145 -2.5053 0.9794
4.0257 -2.1715 -2.5052 0.9794
4.1008 -2.0258 -2.5051 0.9794
4.1705 -1.8774 -2.5050 0.9794
4.3473 -1.4187 -2.5046 0.9794
4.4372 -1.1036 -2.5043 0.9794
4.5292 -0.6208 -2.5038 0.9794
4.5613 -0.2947 -2.5034 0.9794
4.5686 -0.1310 -2.5032 0.9794
4.5551 0.3600 -2.5026 0.9794
4.4554 1.0069 -2.5017 0.9794
4.3204 1.4789 -2.5011 0.9794
4.1033 1.7420 -2.4415 0.9799
3.9246 1.8349 -2.3728 0.9804
3.8154 1.9534 -2.3476 0.9806
3.7475 2.0914 -2.3505 0.9806
3.6652 2.2214 -2.3473 0.9806
3.5832 2.3513 -2.3473 0.9806
3.4053 2.6018 -2.3472 0.9806
3.3097 2.7219 -2.3470 0.9806
2.9980 3.0611 -2.3467 0.9806
2.8863 3.1664 -2.3466 0.9806
2.4033 3.5450 -2.3457 0.9807
2.2746 3.6287 -2.3456 0.9807
2.1429 3.7076 -2.3454 0.9807
1.8713 3.8505 -2.3448 0.9807
1.7319 3.9146 -2.3445 0.9807
1.5903 3.9739 -2.3443 0.9807
0.8559 4.1914 -2.3430 0.9807
0.7051 4.2191 -2.3428 0.9807
0.5534 4.2413 -2.3427 0.9807
0.4010 4.2581 -2.3425 0.9807
0.0949 4.2750 -2.3420 0.9807
-0.0583 4.2752 -2.3418 0.9807
-0.6685 4.2218 -2.3411 0.9807
-0.8193 4.1949 -2.3410 0.9807
-0.9690 4.1626 -2.3408 0.9807
-1.1176 4.1250 -2.3407 0.9807
-1.4100 4.0339 -2.3405 0.9807
-1.6981 3.9290 -2.3443 0.9807
-1.8849 3.9646 -2.4044 0.9802
3.0803 -3.0561 -2.5052 0.9802
3.1878 -2.9437 -2.5051 0.9802
3.2699 -2.8093 -2.4889 0.9803
3.4852 -2.5845 -2.5050 0.9802
3.5755 -2.4578 -2.5050 0.9802
3.8896 -1.9214 -2.5047 0.9802
4.0728 -1.4927 -2.5044 0.9802
4.1688 -1.1970 -2.5041 0.9802
4.2088 -1.0467 -2.5040 0.9802
4.3141 -0.4344 -2.5033 0.9802
4.3266 -0.2795 -2.5031 0.9802
4.3054 0.4961 -2.5022 0.9802
4.2846 0.6500 -2.5020 0.9802
4.2582 0.8031 -2.5018 0.9802
4.2264 0.9551 -2.5016 0.9802
4.1891 1.1059 -2.5014 0.9802
4.1464 1.2552 -2.5012 0.9802
3.9867 1.6925 -2.5005 0.9802
3.4061 2.2351 -2.3521 0.9814
3.2298 2.4677 -2.3467 0.9814
3.0446 2.6925 -2.3465 0.9814
2.9460 2.7998 -2.3464 0.9814
2.8436 2.9034 -2.3463 0.9814
2.7376 3.0033 -2.3462 0.9814
2.6280 3.0993 -2.3460 0.9814
2.5150 3.1912 -2.3458 0.9814
2.3988 3.2790 -2.3456 0.9814
2.1575 3.4420 -2.3453 0.9814
1.7751 3.6526 -2.3446 0.9814
1.6428 3.7135 -2.3444 0.9814
1.3724 3.8210 -2.3440 0.9814
0.9541 3.9451 -2.3434 0.9814
0.6689 4.0025 -2.3429 0.9814
0.5250 4.0236 -2.3427 0.9814
0.2354 4.0502 -2.3423 0.9814
-0.0553 4.0560 -2.3420 0.9814
-0.2007 4.0510 -2.3417 0.9814
-0.7773 3.9798 -2.3411 0.9814
-0.9193 3.9492 -2.3410 0.9814
-1.0603 3.9135 -2.3409 0.9814
-1.1999 3.8731 -2.3410 0.9814
-1.3380 3.8279 -2.3411 0.9814
-1.5032 3.8515 -2.3870 0.9811
-1.6832 3.8945 -2.4495 0.9806
-1.9931 3.8316 -2.4935 0.9802
-2.1294 3.7581 -2.4938 0.9802
