ply
format ascii 1.0
element vertex 1166
property float32 x
property float32 y
property float32 z
property float32 I
end_header
-8.4138 13.6816 2.8321 0.9368
-9.4293 12.1771 2.7156 0.9394
-10.1604 12.1922 2.7984 0.9376
-10.9372 12.2068 2.8900 0.9356
-12.6657 12.2449 3.1063 0.9309
-13.6321 12.2650 3.2334 0.9282
-14.6147 12.2302 3.3603 0.9255
-16.9226 9.6347 3.4336 0.9240
-17.1571 -15.5752 4.0859 0.9102
-15.9926 -15.5996 3.9393 0.9133
-14.9076 -15.6223 3.8076 0.9160
-11.2586 -15.8171 3.4234 0.9242
-8.8755 -13.4659 2.8438 0.9366
-10.1712 -19.7676 3.9199 0.9137
-9.2995 -19.7862 3.8550 0.9150
-6.8356 -19.8388 3.6999 0.9183
-6.0625 -19.8817 3.6650 0.9190
-4.5636 -20.0059 3.6182 0.9200
-3.0813 -20.0379 3.5748 0.9210
2.3804 -24.1232 4.2742 0.9062
3.2596 -24.1426 4.2956 0.9058
4.1490 -24.1622 4.3228 0.9052
-9.4314 12.1799 2.3599 0.9396
-12.6690 12.2480 2.6995 0.9312
-14.6231 12.2373 2.9211 0.9257
-14.6620 10.5809 2.7699 0.9294
-19.7708 -15.5163 3.8502 0.9033
-17.1527 -15.5713 3.5490 0.9105
-13.0286 -15.7763 3.1344 0.9205
-12.1191 -15.7955 3.0500 0.9226
-9.3527 -19.8993 3.3684 0.9149
-6.8566 -19.8998 3.2244 0.9184
-5.2950 -19.8946 3.1538 0.9201
-4.5628 -20.0023 3.1430 0.9203
-3.8173 -20.0184 3.1220 0.9208
-3.0808 -20.0344 3.1052 0.9212
-1.6170 -19.9480 3.0660 0.9222
-1.0888 -24.1611 3.7051 0.9068
1.5125 -24.1650 3.7092 0.9067
2.3864 -24.1842 3.7229 0.9063
3.2591 -24.1383 3.7314 0.9061
-8.4278 13.7043 2.0950 0.9372
-8.7430 12.1679 1.9511 0.9414
-9.4335 12.1826 2.0064 0.9397
-10.1653 12.1981 2.0677 0.9380
-10.9442 12.2146 2.1357 0.9360
-12.6723 12.2512 2.2953 0.9314
-13.7815 12.3994 2.4141 0.9279
-14.6513 11.3935 2.4169 0.9279
-14.6700 10.5867 2.3558 0.9296
-12.7379 8.5152 1.9952 0.9401
-18.5400 -15.6560 3.1600 0.9068
-17.1484 -15.5673 3.0160 0.9108
-13.9881 -15.7524 2.7433 0.9185
-8.8866 -13.4827 2.1028 0.9369
-9.3509 -19.8955 2.8627 0.9151
-8.5020 -19.9138 2.8196 0.9164
-5.2940 -19.8910 2.6804 0.9203
-4.5619 -19.9987 2.6712 0.9206
-3.0802 -20.0309 2.6391 0.9215
-2.3507 -20.0467 2.6284 0.9218
-1.0886 -24.1569 3.1489 0.9071
-0.2221 -24.1758 3.1483 0.9071
0.6452 -24.1948 3.1518 0.9070
1.5122 -24.1608 3.1524 0.9070
4.1520 -24.1800 3.1948 0.9058
-8.4583 12.7094 1.6394 0.9404
-9.4356 12.1853 1.6549 0.9399
-10.9468 12.2175 1.7615 0.9361
-11.9027 12.3627 1.8428 0.9333
-12.6755 12.2543 1.8932 0.9315
-14.6594 11.3998 1.9941 0.9280
-14.6779 10.5924 1.9437 0.9298
-12.7417 8.5177 1.6458 0.9402
-15.5647 9.6161 1.9646 0.9290
-17.1468 -15.5659 2.4868 0.9110
-16.0462 -15.6518 2.4070 0.9138
-14.9216 -15.6370 2.3210 0.9167
-13.9849 -15.7487 2.2617 0.9188
-12.1139 -15.7887 2.1369 0.9231
-11.1687 -15.6908 2.0682 0.9254
-8.8921 -13.4910 1.7351 0.9371
-11.0518 -19.7091 2.4264 0.9131
-8.5004 -19.9101 2.3247 0.9166
-7.6555 -19.8753 2.2871 0.9179
-5.2931 -19.8875 2.2099 0.9205
-3.8159 -20.0114 2.1876 0.9213
-2.3503 -20.0432 2.1670 0.9220
-1.0884 -24.1527 2.5962 0.9073
-0.2221 -24.1716 2.5957 0.9073
0.6451 -24.1906 2.5986 0.9072
4.1512 -24.1757 2.6340 0.9060
-10.1700 12.2037 1.3448 0.9382
-10.9494 12.2204 1.3890 0.9363
-12.6787 12.2574 1.4928 0.9317
-14.6482 12.2583 1.6169 0.9262
-14.6675 11.4061 1.5729 0.9281
-12.7455 8.5203 1.2978 0.9403
-15.5700 9.6194 1.5493 0.9292
-16.7225 -14.1212 1.8528 0.9159
-16.0424 -15.6480 1.8971 0.9140
-14.9181 -15.6333 1.8293 0.9169
-13.8788 -15.6293 1.7694 0.9195
-10.9515 -14.2737 1.5230 0.9303
-11.1664 -15.6875 1.6301 0.9256
-8.8975 -13.4993 1.3686 0.9372
-11.0622 -19.7276 1.9146 0.9132
-10.1633 -19.7523 1.8805 0.9147
-6.8529 -19.8890 1.7808 0.9190
-6.0581 -19.8674 1.7583 0.9200
-4.5335 -19.8742 1.7256 0.9214
-1.6290 -20.0965 1.7068 0.9223
-1.0178 -22.5844 1.9138 0.9132
-0.2077 -22.6021 1.9134 0.9133
0.6032 -22.6199 1.9155 0.9132
1.4169 -22.6377 1.9201 0.9130
2.2356 -22.6556 1.9272 0.9127
3.8965 -22.6921 1.9491 0.9117
-8.4484 13.7379 1.0001 0.9374
-8.7486 12.1758 0.9297 0.9417
-9.4398 12.1907 0.9561 0.9401
-10.1723 12.2064 0.9853 0.9383
-10.9519 12.2232 1.0177 0.9363
-12.9817 11.6798 1.0829 0.9324
-14.6565 12.2652 1.1851 0.9263
-14.6756 11.4124 1.1528 0.9282
-14.6937 10.6038 1.1236 0.9300
-15.5753 9.6227 1.1353 0.9293
-16.9534 9.6522 1.2097 0.9248
-19.7492 -15.4995 1.5568 0.9043
-14.9147 -15.6297 1.3397 0.9171
-13.8757 -15.6258 1.2959 0.9197
-12.9213 -15.6464 1.2583 0.9219
-10.9597 -14.2844 1.1165 0.9304
-11.1641 -15.6843 1.1938 0.9257
-8.9030 -13.5076 1.0032 0.9372
-11.0393 -18.1312 1.3163 0.9184
-10.1614 -19.7486 1.3772 0.9148
-9.2907 -19.7674 1.3544 0.9162
-4.9013 -18.4154 1.1817 0.9265
-4.5327 -19.8707 1.2638 0.9216
-3.0605 -19.9027 1.2487 0.9225
-2.3357 -19.9185 1.2436 0.9228
-0.2209 -24.0453 1.4911 0.9081
0.6417 -24.0641 1.4928 0.9080
2.3848 -24.1674 1.5059 0.9073
3.2603 -24.1477 1.5110 0.9070
4.1498 -24.1672 1.5206 0.9064
-8.4432 13.7293 0.6355 0.9375
-8.4657 12.7205 0.6025 0.9407
-8.7363 12.1586 0.5903 0.9418
-10.9367 12.2062 0.6462 0.9365
-12.2014 11.7959 0.6692 0.9343
-12.9851 11.6829 0.6887 0.9325
-14.6892 10.6006 0.7143 0.9301
-15.5478 9.6057 0.7206 0.9295
-16.9239 9.6354 0.7679 0.9250
-17.9493 -14.0869 0.8997 0.9127
-15.5742 -14.1382 0.8294 0.9192
-14.5179 -14.1611 0.7997 0.9220
-13.5336 -14.1824 0.7730 0.9245
-12.6117 -14.2024 0.7489 0.9268
-11.7443 -14.2212 0.7273 0.9288
-10.9679 -14.2951 0.7105 0.9304
-11.0490 -18.1471 0.8378 0.9185
-10.2590 -18.2954 0.8271 0.9195
-9.4230 -18.3135 0.8121 0.9209
-8.6156 -18.3310 0.7987 0.9221
-6.3332 -18.3807 0.7666 0.9251
-5.6095 -18.3964 0.7584 0.9259
-4.2034 -18.4270 0.7453 0.9271
-1.0174 -22.5764 0.8911 0.9135
-0.2076 -22.5941 0.8909 0.9135
3.0603 -22.6656 0.9018 0.9125
3.8951 -22.6839 0.9075 0.9120
-8.4622 13.7603 0.2729 0.9374
-9.4439 12.1960 0.2606 0.9402
-11.7915 12.2471 0.2872 0.9342
-14.7095 10.6152 0.3064 0.9300
-15.5858 9.6291 0.3095 0.9293
-19.2928 -14.0538 0.4032 0.9089
-17.9445 -14.0831 0.3853 0.9128
-15.5703 -14.1347 0.3552 0.9193
-14.5145 -14.1577 0.3425 0.9221
-13.5305 -14.1791 0.3311 0.9246
-10.9760 -14.3057 0.3046 0.9304
-11.0007 -15.4547 0.3204 0.9269
-8.9139 -13.5241 0.2736 0.9373
-11.0587 -18.1631 0.3592 0.9184
-9.4212 -18.3100 0.3478 0.9209
-8.6140 -18.3276 0.3421 0.9222
-7.0724 -18.3612 0.3324 0.9243
-6.3320 -18.3774 0.3283 0.9252
-4.8995 -18.4086 0.3218 0.9266
-4.2027 -18.4238 0.3192 0.9272
-3.5160 -18.4388 0.3171 0.9277
-2.1657 -18.4683 0.3141 0.9283
-1.0172 -22.5726 0.3817 0.9136
1.4162 -22.6257 0.3829 0.9133
3.0597 -22.6616 0.3863 0.9126
3.8944 -22.6799 0.3887 0.9120
-9.4460 12.1987 -0.0869 0.9402
-10.1792 12.2147 -0.0895 0.9384
-14.6813 12.2860 -0.1078 0.9263
-12.7605 8.5303 -0.0864 0.9404
-15.5910 9.6324 -0.1032 0.9293
-22.0011 11.5022 -0.1398 0.9055
-21.2124 9.2202 -0.1302 0.9116
-19.2873 -14.0498 -0.1343 0.9090
-18.0337 -14.1531 -0.1291 0.9124
-15.5664 -14.1312 -0.1184 0.9193
-14.5110 -14.1543 -0.1141 0.9221
-12.6060 -14.1960 -0.1069 0.9269
-11.1098 -16.8557 -0.1137 0.9224
-9.4580 -18.3816 -0.1164 0.9206
-8.6476 -18.3993 -0.1145 0.9219
-4.8986 -18.4054 -0.1072 0.9266
-4.2020 -18.4206 -0.1064 0.9272
-2.8372 -18.4505 -0.1051 0.9280
-1.7189 -21.2062 -0.1198 0.9184
-0.2082 -22.6622 -0.1276 0.9133
0.6048 -22.6800 -0.1277 0.9132
3.0592 -22.6577 -0.1287 0.9126
-8.4760 13.7826 -0.4556 0.9373
-9.4481 12.2014 -0.4345 0.9401
-10.1815 12.2175 -0.4478 0.9383
-8.0787 9.0165 -0.3409 0.9527
-8.6137 8.9466 -0.3497 0.9515
-9.2690 8.9610 -0.3630 0.9497
-11.5993 9.0202 -0.4137 0.9429
-12.5276 9.0406 -0.4350 0.9401
-16.0141 9.1174 -0.5189 0.9289
-17.4866 9.1420 -0.5556 0.9241
-19.2058 9.1799 -0.5994 0.9183
-19.2819 -14.0459 -0.6717 0.9090
-18.0289 -14.1493 -0.6453 0.9124
-16.7005 -14.1027 -0.6155 0.9162
-15.5626 -14.1277 -0.5918 0.9193
-14.5075 -14.1509 -0.5706 0.9221
-12.6063 -14.1963 -0.5346 0.9268
-10.9924 -14.3271 -0.5085 0.9303
-11.0179 -15.4790 -0.5350 0.9268
-11.1190 -16.8697 -0.5689 0.9223
-11.0781 -18.1950 -0.5998 0.9183
-10.2531 -18.2848 -0.5903 0.9195
-8.6461 -18.3958 -0.5723 0.9219
-7.8292 -18.3379 -0.5614 0.9233
-7.0698 -18.3546 -0.5538 0.9243
-5.6069 -18.3879 -0.5413 0.9260
-4.8978 -18.4022 -0.5362 0.9266
-3.5154 -18.4356 -0.5285 0.9276
-2.8367 -18.4473 -0.5255 0.9280
-2.1649 -18.4620 -0.5234 0.9283
1.4157 -22.6180 -0.6381 0.9133
2.2336 -22.6358 -0.6405 0.9130
3.0587 -22.6538 -0.6437 0.9126
3.8931 -22.6720 -0.6477 0.9121
-6.3947 8.8997 -0.5558 0.9571
-8.0059 8.9353 -0.6084 0.9531
-9.9798 8.9790 -0.6808 0.9477
-10.7499 8.9960 -0.7109 0.9454
-12.7680 8.5353 -0.7789 0.9403
-16.0199 9.1207 -0.9349 0.9288
-19.2138 9.1837 -1.0800 0.9182
-41.1145 12.8301 -2.1842 0.8416
-41.5942 11.3610 -2.1867 0.8414
-42.4734 8.3862 -2.1956 0.8408
-43.2830 5.3615 -2.2118 0.8397
-43.6331 3.8230 -2.2213 0.8391
-43.9460 2.2673 -2.2317 0.8384
-44.8522 -5.7587 -2.2933 0.8343
-44.9114 -7.4111 -2.3084 0.8333
-44.9290 -9.0790 -2.3246 0.8323
-44.9040 -10.7624 -2.3418 0.8312
-44.8114 -14.2029 -2.3840 0.8284
-44.8801 -16.0163 -2.4166 0.8263
-44.9898 -17.8980 -2.4555 0.8237
-45.0364 -19.8144 -2.4953 0.8211
-18.0240 -14.1455 -1.1620 0.9123
-16.6962 -14.0991 -1.1082 0.9162
-14.5040 -14.1476 -1.0275 0.9221
-11.1282 -16.8837 -1.0255 0.9222
-10.2511 -18.2812 -1.0629 0.9195
-9.4544 -18.3746 -1.0480 0.9206
-7.8278 -18.3346 -1.0110 0.9233
-5.6058 -18.3842 -0.9747 0.9259
-4.2016 -18.4190 -0.9581 0.9271
-2.8362 -18.4441 -0.9464 0.9280
-0.2081 -22.6545 -1.1490 0.9133
2.2332 -22.6320 -1.1533 0.9129
3.8924 -22.6681 -1.1664 0.9120
-5.4621 8.8818 -0.7645 0.9590
-6.3960 8.9016 -0.8037 0.9570
-7.4374 8.9247 -0.8518 0.9545
-8.0078 8.9374 -0.8799 0.9530
-8.6179 8.9509 -0.9110 0.9514
-9.2737 8.9655 -0.9458 0.9496
-9.9824 8.9813 -0.9846 0.9476
-12.5351 9.0460 -1.1334 0.9399
-12.7723 8.5382 -1.1265 0.9402
-14.7210 9.0949 -1.2688 0.9330
-16.0256 9.1240 -1.3521 0.9287
-17.5001 9.1490 -1.4479 0.9239
-21.2412 9.2327 -1.6982 0.9113
-30.8617 10.8590 -2.3988 0.8770
-31.2487 9.7514 -2.4002 0.8770
-31.6174 8.6359 -2.4032 0.8768
-32.2976 6.3771 -2.4138 0.8763
-33.5887 -0.6769 -2.4633 0.8739
-33.6902 -1.8885 -2.4741 0.8734
-33.7580 -3.1093 -2.4857 0.8729
-33.7904 -5.5760 -2.5111 0.8717
-33.5727 -9.3308 -2.5549 0.8696
-32.9699 -13.1162 -2.6017 0.8673
-32.6872 -14.3812 -2.6184 0.8666
-31.4714 -21.2417 -2.7840 0.8587
-17.9252 -14.0679 -1.6707 0.9127
-16.6919 -14.0954 -1.6019 0.9161
-15.5610 -14.1262 -1.5410 0.9192
-14.5006 -14.1442 -1.4853 0.9220
-13.5350 -14.1839 -1.4375 0.9244
-9.4180 -18.3039 -1.5093 0.9208
-7.8263 -18.3312 -1.4615 0.9232
-7.0672 -18.3479 -1.4417 0.9242
-4.8960 -18.3957 -1.3958 0.9265
-4.2031 -18.4254 -1.3857 0.9270
-2.1642 -18.4556 -1.3625 0.9282
-1.7181 -21.1954 -1.5592 0.9182
-1.0165 -22.5571 -1.6556 0.9134
-5.9189 8.8938 -1.0257 0.9580
-8.0097 8.9395 -1.1523 0.9529
-8.6200 8.9531 -1.1932 0.9513
-10.7558 9.0010 -1.3465 0.9452
-11.6093 9.0279 -1.4119 0.9426
-12.5389 9.0488 -1.4845 0.9398
-12.7773 8.5415 -1.4755 0.9401
-14.7260 9.0979 -1.6618 0.9328
-16.0314 9.1273 -1.7711 0.9286
-17.5069 9.1526 -1.8966 0.9237
-19.2298 9.1914 -2.0462 0.9179
-21.2508 9.2369 -2.2246 0.9111
-23.0479 7.1923 -2.3179 0.9075
-25.7659 6.0543 -2.5410 0.8991
-26.4248 3.2732 -2.5563 0.8985
-26.5892 2.3297 -2.5625 0.8983
-26.7254 1.3788 -2.5692 0.8980
-26.8333 0.4213 -2.5764 0.8978
-26.9123 -0.5423 -2.5842 0.8975
-26.9737 -3.4632 -2.6109 0.8965
-26.8649 -5.4287 -2.6313 0.8957
-26.7646 -6.4148 -2.6423 0.8953
-26.4709 -8.3899 -2.6659 0.8944
-26.2768 -9.3773 -2.6785 0.8939
-22.9062 -12.1055 -2.4873 0.9011
-22.9543 -14.3231 -2.5975 0.8970
-16.6876 -14.0918 -2.0969 0.9160
-15.5510 -14.1172 -2.0164 0.9191
-14.4971 -14.1408 -1.9443 0.9218
-12.6042 -14.1940 -1.8224 0.9266
-11.7290 -14.2026 -1.7684 0.9287
-8.9904 -13.6402 -1.5684 0.9365
-11.1076 -18.2434 -2.0506 0.9178
-10.2471 -18.2741 -2.0114 0.9193
-8.6059 -18.3105 -1.9424 0.9219
-7.0659 -18.3446 -1.8873 0.9240
-6.3264 -18.3609 -1.8644 0.9249
-4.8952 -18.3925 -1.8272 0.9264
-3.5180 -18.4491 -1.8031 0.9273
-2.8353 -18.4377 -1.7909 0.9278
-1.0164 -22.5533 -2.1674 0.9133
-0.2073 -22.5710 -2.1670 0.9133
0.6024 -22.5886 -2.1694 0.9132
3.0571 -22.6421 -2.1935 0.9123
3.8910 -22.6602 -2.2073 0.9117
-5.4644 8.8855 -1.2391 0.9589
-5.9202 8.8957 -1.2693 0.9579
-6.9046 8.9167 -1.3396 0.9556
-8.0116 8.9416 -1.4261 0.9528
-8.6221 8.9553 -1.4767 0.9512
-10.7588 9.0035 -1.6665 0.9451
-11.6127 9.0306 -1.7474 0.9425
-12.6642 8.4659 -1.8095 0.9405
-17.3104 9.0499 -2.3203 0.9243
-17.5476 8.3873 -2.3103 0.9246
-17.8577 7.7621 -2.3130 0.9246
-18.4151 6.4795 -2.3189 0.9244
-20.1006 5.4902 -2.4751 0.9195
-20.5279 4.0531 -2.4855 0.9192
-21.1590 0.3322 -2.5137 0.9183
-21.2076 -0.4274 -2.5197 0.9181
-21.1362 -3.4878 -2.5446 0.9173
-21.0510 -4.2539 -2.5511 0.9171
-20.7982 -5.7804 -2.5642 0.9167
-20.6305 -6.5388 -2.5708 0.9165
-19.6797 -9.5143 -2.5965 0.9157
-17.2143 -11.6188 -2.4670 0.9197
-16.9126 -12.3199 -2.4855 0.9192
-15.5471 -14.1137 -2.4942 0.9189
-13.5205 -14.1687 -2.3264 0.9241
-11.0528 -15.5280 -2.2641 0.9261
-8.6043 -18.3070 -2.4028 0.9217
-7.8234 -18.3244 -2.3668 0.9229
-5.6026 -18.3735 -2.2817 0.9255
-4.2011 -18.4170 -2.2439 0.9267
-2.8348 -18.4345 -2.2155 0.9276
-1.6545 -20.4106 -2.4324 0.9208
-0.1862 -20.2747 -2.4085 0.9216
0.5376 -20.1572 -2.3952 0.9220
1.2522 -20.0078 -2.3813 0.9224
2.6485 -19.6165 -2.3513 0.9234
-5.4655 8.8873 -1.4783 0.9587
-8.0135 8.9437 -1.7015 0.9526
-9.9904 8.9885 -1.9041 0.9472
-13.9434 8.6145 -2.3223 0.9359
-14.2499 8.1130 -2.3234 0.9359
-15.0686 6.5497 -2.3280 0.9358
-15.7151 6.1710 -2.3922 0.9341
-16.9518 4.6302 -2.4899 0.9315
-17.4411 2.7984 -2.5028 0.9311
-17.7185 0.9142 -2.5139 0.9308
-17.7870 -1.6382 -2.5309 0.9304
-17.7048 -2.9216 -2.5425 0.9301
-17.3903 -4.8332 -2.5574 0.9297
-16.8643 -6.7090 -2.5716 0.9293
-16.6425 -7.3221 -2.5762 0.9292
-16.3979 -7.9276 -2.5807 0.9291
-16.1305 -8.5247 -2.5851 0.9289
-14.5808 -9.8413 -2.4925 0.9314
-13.8732 -10.1058 -2.4319 0.9330
-13.1169 -11.0764 -2.4325 0.9330
-12.7068 -11.5352 -2.4316 0.9330
-12.2757 -11.9740 -2.4298 0.9331
-11.8264 -12.3934 -2.4272 0.9331
-11.3904 -12.8271 -2.4306 0.9330
-10.9304 -13.2355 -2.4322 0.9330
-8.7398 -13.2600 -2.2502 0.9379
-7.7921 -15.1439 -2.4131 0.9335
-7.2267 -15.3760 -2.4072 0.9337
-4.9077 -16.0951 -2.3842 0.9343
-4.3142 -16.2095 -2.3767 0.9345
-3.7199 -16.3075 -2.3700 0.9347
-3.1227 -16.3755 -2.3620 0.9349
0.4367 -16.3769 -2.3213 0.9360
1.0233 -16.3491 -2.3210 0.9360
2.1931 -16.2435 -2.3224 0.9359
2.7756 -16.1646 -2.3239 0.9359
-5.4666 8.8892 -1.7191 0.9586
-5.9227 8.8995 -1.7611 0.9576
-6.4016 8.9093 -1.8073 0.9565
-7.4442 8.9329 -1.9156 0.9540
-8.6264 8.9597 -2.0489 0.9508
-9.9930 8.9909 -2.2145 0.9470
-11.1611 8.6794 -2.3292 0.9443
-11.4652 8.2739 -2.3292 0.9443
-11.7576 7.8598 -2.3299 0.9443
-12.3018 7.0039 -2.3320 0.9442
-14.0636 5.5225 -2.4890 0.9406
-14.2701 5.0211 -2.4921 0.9405
-14.9128 2.9445 -2.5041 0.9402
-15.0273 2.4111 -2.5072 0.9402
-15.1229 1.8733 -2.5104 0.9401
-15.1996 1.3318 -2.5136 0.9400
-15.2951 0.2401 -2.5200 0.9399
-15.3138 -0.3086 -2.5233 0.9398
-15.3129 -0.8584 -2.5266 0.9397
-15.2521 -1.9582 -2.5332 0.9396
-14.7555 -4.6767 -2.5500 0.9392
-14.5974 -5.2094 -2.5533 0.9391
-14.4201 -5.7366 -2.5566 0.9390
-13.7737 -7.2791 -2.5664 0.9388
-12.6097 -9.1855 -2.5700 0.9387
-10.6540 -10.3921 -2.4518 0.9414
-9.6669 -10.8862 -2.3984 0.9427
-9.2608 -11.2138 -2.3959 0.9427
-8.8430 -11.5256 -2.3932 0.9428
-8.4129 -11.8191 -2.3900 0.9429
-7.0632 -12.5960 -2.3790 0.9431
-6.5954 -12.8182 -2.3748 0.9432
-6.1204 -13.0222 -2.3704 0.9433
-4.6611 -13.5278 -2.3571 0.9436
-3.1637 -13.8691 -2.3435 0.9440
-2.1548 -14.0125 -2.3355 0.9441
-1.6487 -14.0604 -2.3322 0.9442
0.9259 -14.7925 -2.4417 0.9417
1.4756 -14.9543 -2.4755 0.9409
-5.4678 8.8910 -1.9619 0.9584
-5.9240 8.9014 -2.0098 0.9574
-6.4030 8.9113 -2.0625 0.9563
-8.6150 8.9479 -2.3347 0.9507
-9.2275 8.3021 -2.3331 0.9507
-10.3259 6.9028 -2.3346 0.9507
-10.5705 6.5306 -2.3354 0.9507
-11.1024 5.8044 -2.3548 0.9503
-11.9527 5.7131 -2.4901 0.9475
-12.1616 5.2862 -2.4925 0.9475
-12.5338 4.4101 -2.4974 0.9474
-12.6967 3.9621 -2.5000 0.9473
-12.8439 3.5082 -2.5026 0.9473
-12.9750 3.0488 -2.5052 0.9472
-13.1885 2.1161 -2.5106 0.9471
-13.2704 1.6438 -2.5134 0.9470
-13.3356 1.1684 -2.5162 0.9470
-13.3839 0.6905 -2.5190 0.9469
-13.2421 -2.6759 -2.5393 0.9465
-13.0465 -3.6259 -2.5452 0.9464
-12.6111 -5.0170 -2.5511 0.9463
-12.4263 -5.4671 -2.5517 0.9462
-12.2241 -5.9097 -2.5521 0.9462
-12.0095 -6.3468 -2.5532 0.9462
-11.7768 -6.7746 -2.5537 0.9462
-11.2658 -7.6039 -2.5547 0.9462
-10.9817 -7.9996 -2.5537 0.9462
-10.3715 -8.7581 -2.5515 0.9462
-10.0458 -9.1195 -2.5502 0.9463
-9.3510 -9.7993 -2.5459 0.9464
-8.9862 -10.1196 -2.5438 0.9464
-8.6088 -10.4243 -2.5411 0.9465
-7.3670 -11.1772 -2.5162 0.9470
-6.8950 -11.3245 -2.4921 0.9475
-5.9814 -11.6249 -2.4573 0.9482
-5.0974 -11.9392 -2.4401 0.9485
-4.6615 -12.1020 -2.4376 0.9486
-4.2272 -12.2686 -2.4391 0.9486
-3.3595 -12.6223 -2.4551 0.9482
-2.9217 -12.8081 -2.4693 0.9479
-1.5407 -13.1391 -2.4866 0.9476
-1.0680 -13.1753 -2.4846 0.9476
-0.5946 -13.1950 -2.4827 0.9477
0.3518 -13.1925 -2.4806 0.9477
1.2961 -13.1354 -2.4809 0.9477
2.2345 -13.0130 -2.4817 0.9477
-6.7731 8.7469 -2.3384 0.9558
-7.0797 8.4955 -2.3376 0.9558
-7.3771 8.2334 -2.3368 0.9558
-7.6647 7.9610 -2.3360 0.9558
-7.9421 7.6782 -2.3351 0.9558
-8.4735 7.0910 -2.3356 0.9558
-8.9632 6.4684 -2.3365 0.9558
-9.1914 6.1444 -2.3370 0.9558
-10.8283 4.7067 -2.4958 0.9529
-11.1559 3.9253 -2.4998 0.9528
-11.2988 3.5259 -2.5019 0.9528
-11.5481 2.7135 -2.5075 0.9527
-11.6503 2.3004 -2.5102 0.9526
-11.7372 1.8832 -2.5127 0.9526
-11.8648 1.0396 -2.5176 0.9525
-11.9051 0.6142 -2.5198 0.9524
-11.9297 0.1873 -2.5220 0.9524
-11.9312 -0.6688 -2.5260 0.9523
-11.6610 -2.7948 -2.5347 0.9522
-11.4475 -3.6283 -2.5384 0.9521
-11.3123 -4.0370 -2.5389 0.9521
-11.0050 -4.8417 -2.5414 0.9520
-10.3590 -5.9590 -2.5261 0.9523
-10.2116 -6.3719 -2.5443 0.9520
-9.7241 -7.0835 -2.5430 0.9520
-9.4606 -7.4248 -2.5421 0.9520
-8.5974 -8.3861 -2.5387 0.9521
-7.6281 -9.2369 -2.5322 0.9522
-7.2870 -9.4975 -2.5304 0.9522
-6.5767 -9.9781 -2.5261 0.9523
-5.4496 -10.5914 -2.5178 0.9525
-4.2670 -11.0779 -2.5094 0.9526
-3.8625 -11.2101 -2.5063 0.9527
-3.0435 -11.4353 -2.5013 0.9528
-2.2114 -11.5968 -2.4955 0.9529
-1.7926 -11.6576 -2.4932 0.9529
-1.3727 -11.7066 -2.4915 0.9530
-0.9514 -11.7373 -2.4892 0.9530
-0.5297 -11.7550 -2.4873 0.9530
-0.1080 -11.7586 -2.4856 0.9531
1.1540 -11.6949 -2.4841 0.9531
-5.2224 8.4920 -2.3430 0.9599
-6.0936 7.8694 -2.3392 0.9599
-6.3692 7.6429 -2.3382 0.9599
-6.6364 7.4067 -2.3373 0.9600
-7.1496 6.9120 -2.3372 0.9600
-7.3936 6.6521 -2.3374 0.9600
-7.8531 6.1069 -2.3380 0.9599
-8.0679 5.8223 -2.3383 0.9599
-8.2846 5.5382 -2.3421 0.9599
-9.4048 4.9168 -2.4942 0.9573
-9.5814 4.5796 -2.4958 0.9573
-10.0383 3.5321 -2.5010 0.9572
-10.1656 3.1723 -2.5028 0.9572
-10.2801 2.8079 -2.5046 0.9572
-10.3816 2.4394 -2.5064 0.9571
-10.5449 1.6919 -2.5100 0.9571
-10.6066 1.3138 -2.5118 0.9570
-10.6893 -0.9845 -2.5229 0.9569
-10.6548 -1.3680 -2.5247 0.9568
-10.6065 -1.7502 -2.5265 0.9568
-10.5445 -2.1307 -2.5283 0.9568
-10.4687 -2.5091 -2.5301 0.9567
-10.3793 -2.8846 -2.5318 0.9567
-10.2763 -3.2570 -2.5336 0.9567
-10.1539 -3.6236 -2.5338 0.9567
-9.7149 -4.6967 -2.5361 0.9566
-9.5381 -5.0407 -2.5355 0.9566
-9.3533 -5.3804 -2.5360 0.9566
-8.9407 -6.0346 -2.5351 0.9566
-8.6539 -6.3039 -2.5163 0.9570
-8.4779 -6.6535 -2.5328 0.9567
-7.1437 -8.0447 -2.5285 0.9568
-6.2279 -8.7495 -2.5241 0.9568
-5.9044 -8.9582 -2.5216 0.9569
-4.8955 -9.5144 -2.5148 0.9570
-4.5499 -9.6807 -2.5140 0.9570
-4.1955 -9.8269 -2.5112 0.9570
-3.8364 -9.9600 -2.5085 0.9571
-3.1074 -10.1908 -2.5039 0.9572
-2.7380 -10.2872 -2.5019 0.9572
-1.9908 -10.4402 -2.4979 0.9573
-1.6137 -10.4940 -2.4953 0.9573
-0.8571 -10.5744 -2.4934 0.9573
-0.0973 -10.5924 -2.4896 0.9574
0.6612 -10.5636 -2.4875 0.9574
1.0394 -10.5336 -2.4877 0.9574
1.4159 -10.4866 -2.4870 0.9575
1.7910 -10.4302 -2.4872 0.9574
-4.7400 7.7076 -2.3428 0.9633
-6.0276 6.7273 -2.3387 0.9634
-6.2650 6.5071 -2.3388 0.9634
-6.7157 6.0422 -2.3390 0.9634
-7.1323 5.5464 -2.3393 0.9634
-7.8949 5.2777 -2.4588 0.9615
-8.3724 4.7668 -2.4945 0.9610
-8.7031 4.1599 -2.4976 0.9609
-8.8521 3.8477 -2.4991 0.9609
-8.9899 3.5301 -2.5007 0.9609
-9.1164 3.2077 -2.5022 0.9609
-9.3348 2.5497 -2.5055 0.9608
-9.4263 2.2150 -2.5071 0.9608
-9.5059 1.8769 -2.5088 0.9608
-9.6716 0.8474 -2.5137 0.9607
-9.7022 0.5006 -2.5154 0.9607
-9.7204 0.1526 -2.5171 0.9606
-9.7260 -0.1960 -2.5187 0.9606
-9.7192 -0.5448 -2.5204 0.9606
-9.6991 -0.8933 -2.5219 0.9606
-9.4873 -2.2739 -2.5260 0.9605
-9.4052 -2.6139 -2.5275 0.9605
-9.1968 -3.2820 -2.5283 0.9605
-9.0748 -3.6102 -2.5287 0.9604
-8.9442 -3.9351 -2.5300 0.9604
-8.4666 -4.8704 -2.5290 0.9604
-8.2837 -5.1689 -2.5281 0.9605
-7.2245 -6.5584 -2.5264 0.9605
-6.4701 -7.2861 -2.5230 0.9605
-5.6443 -7.9295 -2.5201 0.9606
-4.4405 -8.6301 -2.5129 0.9607
-4.1280 -8.7830 -2.5127 0.9607
-3.1524 -9.1491 -2.5056 0.9608
-2.1492 -9.4220 -2.5022 0.9609
-1.8085 -9.4843 -2.4999 0.9609
-1.4661 -9.5341 -2.4976 0.9609
-1.1224 -9.5716 -2.4952 0.9610
-0.4338 -9.6265 -2.4950 0.9610
0.2565 -9.6192 -2.4915 0.9610
0.5969 -9.5369 -2.4741 0.9613
1.2867 -9.5303 -2.4900 0.9610
1.6274 -9.4773 -2.4898 0.9610
-4.5810 6.8835 -2.3408 0.9662
-5.0611 6.5360 -2.3402 0.9662
-5.2920 6.3502 -2.3401 0.9662
-5.7333 5.9548 -2.3401 0.9662
-6.3395 5.3052 -2.3402 0.9662
-7.0885 5.1155 -2.4747 0.9643
-7.3231 4.8955 -2.4937 0.9640
-7.4972 4.6319 -2.4948 0.9640
-7.6623 4.3625 -2.4961 0.9640
-7.8177 4.0871 -2.4973 0.9640
-8.2241 3.2294 -2.5012 0.9639
-8.3390 2.9342 -2.5026 0.9639
-8.5371 2.3318 -2.5053 0.9639
-8.7526 1.4043 -2.5095 0.9638
-8.8406 0.7746 -2.5123 0.9638
-8.8676 0.4575 -2.5137 0.9638
-8.8833 0.1395 -2.5151 0.9637
-8.8805 -0.4978 -2.5179 0.9637
-8.8619 -0.8162 -2.5194 0.9637
-8.7842 -1.4495 -2.5204 0.9637
-8.5890 -2.3871 -2.5236 0.9636
-8.5021 -2.6947 -2.5249 0.9636
-8.3995 -2.9975 -2.5247 0.9636
-8.2856 -3.2962 -2.5244 0.9636
-8.0252 -3.8798 -2.5234 0.9636
-7.7325 -4.4481 -2.5253 0.9636
-7.5708 -4.7241 -2.5263 0.9636
-6.8077 -5.7487 -2.5224 0.9636
-6.3765 -6.2198 -2.5217 0.9636
-6.1468 -6.4414 -2.5206 0.9637
-5.9133 -6.6590 -2.5211 0.9637
-5.6700 -6.8658 -2.5208 0.9637
-4.6193 -7.5868 -2.5146 0.9637
-2.5803 -8.4621 -2.5045 0.9639
-2.2733 -8.5414 -2.5022 0.9639
-1.0274 -8.7615 -2.4973 0.9640
-0.7122 -8.7864 -2.4955 0.9640
-0.0810 -8.8181 -2.4964 0.9640
0.5502 -8.7900 -2.4933 0.9640
0.8644 -8.7603 -2.4920 0.9641
1.4891 -8.6723 -2.4910 0.9641
-4.6605 6.0186 -2.3413 0.9686
-4.8729 5.8474 -2.3412 0.9686
-5.0790 5.6686 -2.3410 0.9686
-5.2787 5.4827 -2.3409 0.9687
-5.6578 5.0904 -2.3409 0.9687
-6.9041 4.2655 -2.4961 0.9666
-7.0555 4.0170 -2.4972 0.9666
-7.4556 3.2407 -2.5004 0.9666
-7.5704 2.9727 -2.5016 0.9665
-7.7709 2.4250 -2.5038 0.9665
-7.8565 2.1459 -2.5050 0.9665
-7.9320 1.8639 -2.5062 0.9665
-7.9975 1.5791 -2.5073 0.9665
-8.0527 1.2921 -2.5085 0.9664
-8.1323 0.7126 -2.5109 0.9664
-8.1565 0.4208 -2.5121 0.9664
-8.1702 0.1283 -2.5133 0.9664
-8.1735 -0.1647 -2.5145 0.9664
-8.1662 -0.4577 -2.5157 0.9664
-8.1484 -0.7505 -2.5169 0.9663
-8.0799 -1.3333 -2.5188 0.9663
-8.0275 -1.6221 -2.5190 0.9663
-7.9643 -1.9088 -2.5190 0.9663
-7.8907 -2.1930 -2.5190 0.9663
-7.7153 -2.7533 -2.5196 0.9663
-7.6144 -3.0292 -2.5206 0.9663
-7.2530 -3.8331 -2.5232 0.9663
-6.9565 -4.3407 -2.5220 0.9663
-6.0636 -5.5045 -2.5189 0.9663
-5.8625 -5.7184 -2.5189 0.9663
-5.6550 -5.9261 -2.5195 0.9663
-5.4388 -6.1248 -2.5194 0.9663
-5.2121 -6.3114 -2.5176 0.9663
-4.9790 -6.4894 -2.5158 0.9663
-4.7397 -6.6588 -2.5140 0.9664
-3.9932 -7.1212 -2.5112 0.9664
-3.7359 -7.2607 -2.5115 0.9664
-2.9293 -7.6049 -2.5066 0.9665
-2.6531 -7.7001 -2.5050 0.9665
-2.0927 -7.8627 -2.5026 0.9665
-1.5239 -7.9916 -2.5024 0.9665
-0.0746 -8.1165 -2.4966 0.9666
0.5070 -8.1000 -2.4963 0.9666
0.7965 -8.0721 -2.4949 0.9666
1.3715 -7.9874 -2.4927 0.9667
-3.9042 5.8664 -2.3424 0.9707
-4.1115 5.7221 -2.3421 0.9707
-4.3135 5.5705 -2.3419 0.9707
-4.5101 5.4120 -2.3418 0.9707
-4.8858 5.0747 -2.3416 0.9707
-5.0644 4.8962 -2.3415 0.9707
-6.0875 4.3931 -2.4954 0.9689
-6.6611 3.4825 -2.4985 0.9688
-6.8994 2.9989 -2.5007 0.9688
-7.1040 2.4996 -2.5033 0.9688
-7.1923 2.2444 -2.5045 0.9687
-7.2712 1.9861 -2.5055 0.9687
-7.3409 1.7249 -2.5066 0.9687
-7.4012 1.4613 -2.5077 0.9687
-7.4925 0.9281 -2.5096 0.9687
-7.4732 0.6548 -2.4936 0.9689
-7.5552 0.1187 -2.5117 0.9687
-7.5473 -0.4231 -2.5127 0.9686
-7.5284 -0.6934 -2.5131 0.9686
-7.5002 -0.9629 -2.5136 0.9686
-7.4636 -1.2316 -2.5145 0.9686
-7.4173 -1.4988 -2.5154 0.9686
-7.2211 -2.2887 -2.5180 0.9686
-6.8252 -3.2997 -2.5200 0.9685
-6.7006 -3.5411 -2.5192 0.9686
-5.7853 -4.8853 -2.5170 0.9686
-5.4227 -5.2894 -2.5180 0.9686
-5.2299 -5.4806 -2.5181 0.9686
-4.3845 -6.1597 -2.5132 0.9686
-4.1595 -6.3108 -2.5124 0.9686
-3.9278 -6.4511 -2.5106 0.9687
-3.6942 -6.5880 -2.5107 0.9687
-2.9627 -6.9394 -2.5081 0.9687
-2.7100 -7.0357 -2.5062 0.9687
-2.4548 -7.1244 -2.5048 0.9687
-2.1979 -7.2078 -2.5048 0.9687
-1.6740 -7.3385 -2.5020 0.9688
-1.4101 -7.3945 -2.5023 0.9688
-0.8761 -7.4715 -2.5006 0.9688
-0.3382 -7.5045 -2.4971 0.9688
-0.0690 -7.5108 -2.4968 0.9688
1.0048 -7.4424 -2.4963 0.9688
1.2703 -7.3980 -2.4951 0.9689
-3.4323 5.5812 -2.3431 0.9725
-4.5425 4.7180 -2.3421 0.9726
-4.7594 4.6012 -2.3673 0.9723
-5.1856 4.6656 -2.4945 0.9708
-5.8052 3.8807 -2.4971 0.9708
-6.0718 3.4569 -2.4986 0.9708
-6.1937 3.2381 -2.4993 0.9707
-6.3077 3.0149 -2.5001 0.9707
-6.5115 2.5569 -2.5016 0.9707
-6.7548 1.8450 -2.5041 0.9707
-6.9207 1.1104 -2.5065 0.9707
-7.0070 0.3615 -2.5091 0.9706
-7.0196 -0.1414 -2.5108 0.9706
-6.9367 -1.1446 -2.5142 0.9706
-6.8935 -1.3930 -2.5150 0.9706
-6.8414 -1.6397 -2.5158 0.9706
-6.5400 -2.6018 -2.5170 0.9705
-5.9715 -3.7262 -2.5171 0.9705
-5.8323 -3.9365 -2.5163 0.9706
-5.6852 -4.1414 -2.5153 0.9706
-5.5343 -4.3433 -2.5158 0.9706
-5.3761 -4.5397 -2.5163 0.9706
-4.6680 -5.2568 -2.5141 0.9706
-4.4739 -5.4174 -2.5125 0.9706
-3.8637 -5.8620 -2.5107 0.9706
-3.6500 -5.9949 -2.5099 0.9706
-3.2119 -6.2424 -2.5105 0.9706
-2.9849 -6.3507 -2.5094 0.9706
-2.5186 -6.5389 -2.5058 0.9707
-2.2816 -6.6218 -2.5047 0.9707
-2.0430 -6.7000 -2.5049 0.9707
-1.8004 -6.7644 -2.5032 0.9707
-1.5560 -6.8212 -2.5020 0.9707
-1.0636 -6.9165 -2.5025 0.9707
-0.5649 -6.9688 -2.5003 0.9707
-0.3146 -6.9800 -2.4986 0.9708
-0.0641 -6.9823 -2.4970 0.9708
0.1862 -6.9808 -2.4973 0.9708
1.1820 -6.8836 -2.4977 0.9708
-3.2036 5.2093 -2.3436 0.9741
-3.9137 4.6963 -2.3427 0.9742
-4.3155 4.4823 -2.3844 0.9737
-4.6809 4.5254 -2.4950 0.9725
-5.1430 3.9994 -2.4967 0.9725
-5.2844 3.8135 -2.4973 0.9725
-5.4191 3.6226 -2.4980 0.9725
-5.5469 3.4270 -2.4986 0.9725
-5.7813 3.0225 -2.5000 0.9724
-6.1611 2.1680 -2.5029 0.9724
-6.2367 1.9462 -2.5037 0.9724
-6.3640 1.4954 -2.5052 0.9724
-6.4938 0.8044 -2.5075 0.9724
-6.5205 0.5713 -2.5083 0.9724
-6.5388 0.3374 -2.5091 0.9723
-6.5488 0.1029 -2.5099 0.9723
-6.5435 -0.3668 -2.5115 0.9723
-6.5044 -0.8351 -2.5131 0.9723
-6.4319 -1.2997 -2.5146 0.9723
-6.3813 -1.5294 -2.5147 0.9723
-6.3218 -1.7570 -2.5145 0.9723
-6.0053 -2.6421 -2.5142 0.9723
-5.6884 -3.2722 -2.5149 0.9723
-5.3041 -3.8637 -2.5147 0.9723
-4.8609 -4.4127 -2.5159 0.9723
-4.3523 -4.9012 -2.5119 0.9723
-3.7992 -5.3375 -2.5107 0.9723
-3.6034 -5.4671 -2.5093 0.9723
-3.4055 -5.5933 -2.5095 0.9723
-3.2033 -5.7124 -2.5098 0.9723
-2.7847 -5.9249 -2.5088 0.9723
-2.5689 -6.0169 -2.5071 0.9724
-2.3500 -6.1010 -2.5055 0.9724
-0.7606 -6.4861 -2.5026 0.9724
-0.5274 -6.5064 -2.5016 0.9724
-0.2937 -6.5172 -2.5000 0.9724
-0.0599 -6.5196 -2.4985 0.9725
0.1737 -6.5147 -2.4974 0.9725
0.4071 -6.5050 -2.4977 0.9725
-3.1726 4.7671 -2.3436 0.9756
-3.3411 4.6500 -2.3434 0.9756
-3.6653 4.3984 -2.3433 0.9756
-3.9182 4.3731 -2.4031 0.9749
-4.2290 4.3924 -2.4955 0.9740
-4.5344 4.0797 -2.4964 0.9740
-4.6785 3.9152 -2.4968 0.9740
-5.0756 3.3930 -2.4987 0.9740
-5.1952 3.2097 -2.4993 0.9740
-5.3083 3.0222 -2.5000 0.9739
-5.5141 2.6356 -2.5013 0.9739
-5.6918 2.2350 -2.5027 0.9739
-5.7698 2.0302 -2.5034 0.9739
-5.8405 1.8226 -2.5041 0.9739
-6.0807 0.7533 -2.5077 0.9739
-6.1318 0.0963 -2.5099 0.9738
-6.1109 -0.5628 -2.5116 0.9738
-6.0868 -0.7815 -2.5116 0.9738
-6.0149 -1.2154 -2.5115 0.9738
-5.9671 -1.4302 -2.5113 0.9738
-5.9125 -1.6432 -2.5115 0.9738
-5.6220 -2.4735 -2.5138 0.9738
-5.4279 -2.8685 -2.5126 0.9738
-5.3221 -3.0615 -2.5129 0.9738
-5.0909 -3.4361 -2.5138 0.9738
-4.8334 -3.7933 -2.5147 0.9738
-4.5475 -4.1282 -2.5137 0.9738
-4.3945 -4.2864 -2.5125 0.9738
-4.2359 -4.4390 -2.5112 0.9738
-4.0734 -4.5872 -2.5108 0.9738
-3.7342 -4.8669 -2.5107 0.9738
-3.3736 -5.1184 -2.5089 0.9739
-3.1883 -5.2365 -2.5092 0.9739
-2.9989 -5.3479 -2.5094 0.9738
-2.4049 -5.6329 -2.5067 0.9739
-1.9933 -5.7852 -2.5044 0.9739
-1.7849 -5.8534 -2.5046 0.9739
-1.1451 -6.0053 -2.5021 0.9739
-0.7121 -6.0729 -2.5025 0.9739
-0.4941 -6.0949 -2.5027 0.9739
-0.0561 -6.1078 -2.4999 0.9739
0.3813 -6.0911 -2.4978 0.9740
0.5994 -6.0742 -2.4981 0.9740
0.8168 -6.0495 -2.4984 0.9740
1.0332 -6.0172 -2.4988 0.9740
-3.1379 4.3671 -2.3436 0.9768
-3.2926 4.2521 -2.3438 0.9768
-3.5588 4.2705 -2.4227 0.9760
-3.8217 4.2654 -2.4959 0.9753
-4.1187 3.9819 -2.4967 0.9753
-4.2594 3.8323 -2.4971 0.9753
-4.5244 3.5185 -2.4979 0.9753
-4.6485 3.3546 -2.4983 0.9753
-4.8785 3.0140 -2.4992 0.9753
-4.9843 2.8378 -2.4997 0.9753
-5.0842 2.6580 -2.5003 0.9753
-5.4192 1.9068 -2.5037 0.9752
-5.4856 1.7118 -2.5044 0.9752
-5.5970 1.3151 -2.5057 0.9752
-5.6418 1.1140 -2.5062 0.9752
-5.6792 0.9112 -2.5067 0.9752
-5.7092 0.7072 -2.5072 0.9752
-5.7469 -0.3221 -2.5085 0.9752
-5.7104 -0.7332 -2.5091 0.9752
-5.6457 -1.1408 -2.5102 0.9752
-5.6024 -1.3427 -2.5108 0.9752
-5.1884 -2.5083 -2.5116 0.9752
-5.0961 -2.6932 -2.5120 0.9752
-4.7801 -3.2263 -2.5134 0.9752
-4.4052 -3.7199 -2.5128 0.9752
-4.2672 -3.8737 -2.5117 0.9752
-4.1238 -4.0224 -2.5106 0.9752
-3.9762 -4.1668 -2.5101 0.9752
-3.3376 -4.6890 -2.5084 0.9752
-3.1677 -4.8061 -2.5086 0.9752
-2.8158 -5.0216 -2.5091 0.9752
-2.6343 -5.1197 -2.5093 0.9752
-2.4477 -5.2078 -2.5078 0.9752
-2.2581 -5.2890 -2.5064 0.9752
-1.4777 -5.5520 -2.5039 0.9752
-1.2770 -5.5981 -2.5024 0.9753
-0.2585 -5.7360 -2.5024 0.9753
-0.0527 -5.7386 -2.5011 0.9753
0.3581 -5.7217 -2.4985 0.9753
0.5629 -5.7045 -2.4982 0.9753
0.7670 -5.6812 -2.4985 0.9753
0.9703 -5.6507 -2.4987 0.9753
-2.6529 4.3139 -2.3442 0.9779
-3.2314 4.1732 -2.4431 0.9770
-3.5993 4.0171 -2.4966 0.9765
-3.8788 3.7499 -2.4973 0.9765
-4.0113 3.6091 -2.4977 0.9765
-4.1387 3.4635 -2.4981 0.9765
-4.6938 2.6723 -2.5001 0.9765
-4.9562 2.1544 -2.5015 0.9765
-5.0312 1.9756 -2.5020 0.9765
-5.0997 1.7944 -2.5024 0.9765
-5.1617 1.6108 -2.5029 0.9764
-5.2659 1.2374 -2.5039 0.9764
-5.3432 0.8573 -2.5049 0.9764
-5.3716 0.6654 -2.5054 0.9764
-5.3931 0.4726 -2.5059 0.9764
-5.4153 0.0851 -2.5070 0.9764
-5.4097 -0.3032 -2.5080 0.9764
-5.3965 -0.4970 -2.5085 0.9764
-5.3763 -0.6903 -2.5090 0.9764
-5.3493 -0.8827 -2.5096 0.9764
-5.3152 -1.0741 -2.5101 0.9764
-5.2744 -1.2641 -2.5106 0.9764
-5.2252 -1.4522 -2.5103 0.9764
-5.1071 -1.8225 -2.5100 0.9764
-5.0394 -2.0048 -2.5105 0.9764
-4.9651 -2.1845 -2.5109 0.9764
-4.8845 -2.3614 -2.5113 0.9764
-4.7043 -2.7061 -2.5122 0.9764
-4.6051 -2.8735 -2.5126 0.9764
-4.4998 -3.0371 -2.5130 0.9764
-4.3880 -3.1964 -2.5129 0.9764
-4.2690 -3.3504 -2.5120 0.9764
-3.8810 -3.7856 -2.5096 0.9764
-3.6007 -4.0548 -2.5101 0.9764
-3.4518 -4.1798 -2.5093 0.9764
-3.2982 -4.2987 -2.5080 0.9764
-3.1421 -4.4143 -2.5081 0.9764
-2.3042 -4.9024 -2.5074 0.9764
-2.1258 -4.9791 -2.5060 0.9764
-1.9449 -5.0493 -2.5046 0.9764
-1.0125 -5.3096 -2.5020 0.9765
-0.6296 -5.3693 -2.5024 0.9765
-0.2434 -5.4014 -2.5028 0.9764
-0.0497 -5.4053 -2.5021 0.9765
0.1440 -5.4010 -2.5009 0.9765
0.3373 -5.3898 -2.4997 0.9765
0.5300 -5.3717 -2.4986 0.9765
0.7222 -5.3492 -2.4985 0.9765
0.9136 -5.3203 -2.4988 0.9765
-3.3973 3.7917 -2.4973 0.9776
-3.5314 3.6679 -2.4975 0.9776
-3.7859 3.4063 -2.4981 0.9776
-3.9061 3.2688 -2.4984 0.9776
-4.4301 2.5222 -2.5006 0.9775
-4.6776 2.0332 -2.5018 0.9775
-4.7483 1.8646 -2.5023 0.9775
-4.8129 1.6935 -2.5027 0.9775
-4.9697 1.1678 -2.5041 0.9775
-5.0425 0.8092 -2.5051 0.9775
-5.0692 0.6280 -2.5056 0.9775
-5.0894 0.4459 -2.5060 0.9775
-5.1031 0.2633 -2.5065 0.9775
-5.0970 0.0800 -2.5005 0.9775
-5.1109 -0.1030 -2.5075 0.9775
-5.1049 -0.2861 -2.5080 0.9775
-5.0924 -0.4690 -2.5085 0.9775
-5.0728 -0.6513 -2.5088 0.9775
-4.9732 -1.1919 -2.5086 0.9775
-4.6088 -2.2281 -2.5111 0.9775
-4.5267 -2.3923 -2.5115 0.9774
-4.4387 -2.5534 -2.5119 0.9774
-4.2447 -2.8649 -2.5120 0.9774
-4.0257 -3.1594 -2.5102 0.9775
-3.9084 -3.3004 -2.5093 0.9775
-3.7872 -3.4380 -2.5090 0.9775
-3.6619 -3.5719 -2.5093 0.9775
-3.3965 -3.8249 -2.5092 0.9775
-3.2558 -3.9424 -2.5081 0.9775
-2.9649 -4.1652 -2.5079 0.9775
-2.6593 -4.3677 -2.5083 0.9775
-2.3396 -4.5470 -2.5083 0.9775
-1.1348 -4.9747 -2.5029 0.9775
-0.5941 -5.0666 -2.5024 0.9775
-0.4122 -5.0850 -2.5025 0.9775
-0.2297 -5.0969 -2.5027 0.9775
-0.0469 -5.1022 -2.5029 0.9775
0.5004 -5.0714 -2.4997 0.9776
0.6816 -5.0481 -2.4987 0.9776
-2.4249 3.9431 -2.4015 0.9794
-2.9473 3.8062 -2.4973 0.9785
-3.0821 3.6985 -2.4976 0.9785
-3.2130 3.5860 -2.4978 0.9785
-3.4623 3.3473 -2.4983 0.9785
-3.6940 3.0913 -2.4989 0.9785
-3.8028 2.9573 -2.4991 0.9785
-4.0059 2.6779 -2.4998 0.9785
-4.0998 2.5330 -2.5001 0.9785
-4.3509 2.0796 -2.5018 0.9785
-4.4234 1.9227 -2.5022 0.9785
-4.4902 1.7632 -2.5026 0.9785
-4.5513 1.6015 -2.5030 0.9785
-4.6559 1.2717 -2.5039 0.9785
-4.7367 0.9353 -2.5048 0.9785
-4.7933 0.5938 -2.5057 0.9785
-4.8119 -0.4432 -2.5069 0.9785
-4.7937 -0.6154 -2.5073 0.9785
-4.7693 -0.7870 -2.5077 0.9785
-4.7388 -0.9575 -2.5081 0.9784
-4.6108 -1.4614 -2.5093 0.9784
-4.5562 -1.6259 -2.5097 0.9784
-4.4294 -1.9488 -2.5105 0.9784
-4.2797 -2.2617 -2.5112 0.9784
-4.1965 -2.4140 -2.5116 0.9784
-3.6945 -3.1197 -2.5085 0.9784
-3.5806 -3.2505 -2.5088 0.9784
-3.3389 -3.4990 -2.5091 0.9784
-2.9422 -3.8347 -2.5075 0.9785
-2.6604 -4.0363 -2.5079 0.9785
-2.5142 -4.1294 -2.5081 0.9784
-2.2118 -4.2986 -2.5079 0.9785
-1.2416 -4.6648 -2.5042 0.9785
-1.0731 -4.7042 -2.5032 0.9785
-0.7331 -4.7671 -2.5021 0.9785
-0.5618 -4.7906 -2.5023 0.9785
-0.3897 -4.8080 -2.5025 0.9785
-0.2172 -4.8191 -2.5026 0.9785
-0.0443 -4.8242 -2.5028 0.9785
0.4734 -4.7973 -2.5008 0.9785
0.6447 -4.7753 -2.4998 0.9785
-2.3886 3.8841 -2.4974 0.9794
-2.5264 3.7962 -2.4975 0.9794
-2.6610 3.7035 -2.4977 0.9794
-2.9199 3.5038 -2.4981 0.9794
-3.1640 3.2863 -2.4985 0.9794
-3.2800 3.1711 -2.4988 0.9794
-3.3919 3.0518 -2.4990 0.9794
-3.6026 2.8016 -2.4996 0.9794
-3.7949 2.5369 -2.5001 0.9794
-3.8838 2.3995 -2.5004 0.9794
-3.9678 2.2591 -2.5007 0.9794
-4.2522 1.6698 -2.5021 0.9794
-4.3621 1.3612 -2.5028 0.9794
-4.4087 1.2042 -2.5031 0.9794
-4.5145 0.7243 -2.5042 0.9794
-4.5382 0.5622 -2.5046 0.9794
-4.5561 0.3992 -2.5050 0.9794
-4.5682 0.2357 -2.5053 0.9794
-4.5744 0.0718 -2.5057 0.9794
-4.5442 -0.0916 -2.4894 0.9795
-4.5577 -0.4198 -2.5069 0.9793
-4.5405 -0.5830 -2.5072 0.9793
-4.5174 -0.7454 -2.5076 0.9793
-4.4884 -0.9070 -2.5080 0.9793
-4.1952 -1.8457 -2.5103 0.9793
-4.1269 -1.9952 -2.5106 0.9793
-3.9728 -2.2853 -2.5102 0.9793
-3.8872 -2.4256 -2.5095 0.9793
-3.7013 -2.6962 -2.5080 0.9793
-3.6024 -2.8272 -2.5081 0.9793
-3.4991 -2.9547 -2.5084 0.9793
-3.2791 -3.1984 -2.5088 0.9793
-3.1612 -3.3127 -2.5080 0.9793
-3.0392 -3.4226 -2.5070 0.9793
-2.9148 -3.5295 -2.5071 0.9793
-2.5197 -3.8229 -2.5077 0.9793
-2.3812 -3.9110 -2.5079 0.9793
-2.0947 -4.0710 -2.5075 0.9793
-1.9465 -4.1415 -2.5064 0.9793
-0.5321 -4.5375 -2.5023 0.9794
-0.2057 -4.5645 -2.5026 0.9794
0.2855 -4.5607 -2.5028 0.9794
0.6109 -4.5250 -2.5008 0.9794
0.7725 -4.4985 -2.4999 0.9794
-2.3971 3.6019 -2.4980 0.9802
-2.5248 3.5139 -2.4981 0.9802
-2.8881 3.2233 -2.4987 0.9802
-3.0020 3.1181 -2.4989 0.9802
-3.1121 3.0087 -2.4992 0.9802
-3.2183 2.8955 -2.4994 0.9802
-3.5116 2.5342 -2.5002 0.9802
-3.8394 2.0073 -2.5014 0.9802
-3.9094 1.8686 -2.5017 0.9802
-4.0343 1.5842 -2.5023 0.9802
-4.0889 1.4387 -2.5026 0.9802
-4.1384 1.2915 -2.5030 0.9802
-4.1826 1.1425 -2.5033 0.9802
-4.2549 0.8401 -2.5040 0.9802
-4.2829 0.6872 -2.5043 0.9802
-4.3396 0.0682 -2.5058 0.9802
-4.3346 -0.2429 -2.5065 0.9801
-4.3237 -0.3982 -2.5069 0.9801
-4.3073 -0.5530 -2.5072 0.9801
-4.2579 -0.8604 -2.5080 0.9801
-4.2249 -1.0126 -2.5083 0.9801
-4.1865 -1.1635 -2.5087 0.9801
-3.5108 -2.5574 -2.5077 0.9801
-3.2169 -2.9203 -2.5084 0.9801
-3.1095 -3.0330 -2.5078 0.9801
-2.7649 -3.3480 -2.5069 0.9801
-2.6434 -3.4453 -2.5071 0.9801
-2.5184 -3.5380 -2.5073 0.9801
-2.2588 -3.7099 -2.5077 0.9801
-2.1245 -3.7887 -2.5079 0.9801
-1.9868 -3.8614 -2.5072 0.9801
-1.8463 -3.9283 -2.5061 0.9802
-1.7036 -3.9903 -2.5050 0.9802
-0.3502 -4.3200 -2.5024 0.9802
0.2708 -4.3267 -2.5029 0.9802
0.4257 -4.3138 -2.5027 0.9802
0.7331 -4.2692 -2.5009 0.9802
