ply
format ascii 1.0
element vertex 1064
property float32 x
property float32 y
property float32 z
property float32 I
end_header
12.7011 -42.0177 7.7399 0.8367
12.8158 -30.2457 5.7921 0.8751
23.7014 -28.9073 6.5914 0.8591
25.2986 -28.6988 6.7458 0.8561
24.9967 -26.3917 6.4096 0.8627
26.9937 -26.5329 6.6740 0.8575
29.0267 -26.5596 6.9374 0.8523
31.2292 -26.5880 7.2319 0.8465
33.0738 -24.3078 7.2374 0.8464
-37.9953 -17.6309 6.4168 0.8441
-31.5325 -23.9186 6.0631 0.8520
-9.8743 -24.3226 4.0214 0.8992
12.8001 -25.0569 4.3104 0.8924
26.1284 -39.9220 7.3092 0.8244
27.5160 -31.2142 6.3745 0.8450
29.2992 -30.9343 6.5272 0.8416
29.1751 -28.6771 6.2670 0.8474
38.3739 -26.1436 7.1133 0.8287
-31.4746 -23.8746 5.1444 0.8527
12.8929 -42.6523 5.8024 0.8355
13.0751 -34.2129 4.7695 0.8627
12.8596 -25.1734 3.6811 0.8922
8.7909 -15.7889 2.3532 0.9297
31.9411 -36.2340 6.2900 0.8230
34.0748 -35.9764 6.4527 0.8188
33.8039 -30.9307 5.9666 0.8312
33.8288 -28.8012 5.7855 0.8359
35.7939 -26.3068 5.7846 0.8360
39.3589 -26.8147 6.2018 0.8252
-34.0929 -29.9280 4.8714 0.8332
-31.8106 -30.0041 4.6956 0.8387
-9.8740 -24.3218 2.8187 0.8998
-8.9385 -24.4947 2.7999 0.9004
-10.5552 -42.6410 4.7171 0.8380
12.8822 -25.2176 3.0408 0.8923
35.2041 -34.6032 5.3007 0.8199
35.2528 -32.2564 5.1310 0.8251
35.3434 -27.9750 4.8402 0.8342
-45.2346 -17.1796 4.0961 0.8235
-40.7532 -17.1683 3.7435 0.8373
-34.1235 -18.9064 3.3024 0.8550
-34.1582 -20.5545 3.3747 0.8521
-34.1941 -22.2784 3.4548 0.8489
-34.2391 -24.0935 3.5441 0.8453
-31.6419 -24.0015 3.3620 0.8526
-34.3644 -30.1664 3.8709 0.8323
-32.1470 -30.3214 3.7409 0.8374
-10.0777 -22.4825 2.0857 0.9058
-8.2188 -22.5223 2.0296 0.9082
-10.8216 -33.3062 2.9645 0.8689
-10.5719 -42.7084 3.7245 0.8381
12.9047 -25.2616 2.4013 0.8924
8.8165 -15.8350 1.5342 0.9298
35.4075 -34.8031 4.2028 0.8193
35.4114 -30.1486 3.9369 0.8297
-37.1123 -17.2211 2.5370 0.8488
-34.2755 -22.3314 2.5368 0.8488
-34.3202 -24.1506 2.6023 0.8452
-30.0428 -22.7885 2.3383 0.8597
-34.4043 -28.0892 2.7542 0.8369
-34.2512 -30.0670 2.8262 0.8331
-32.1140 -30.2902 2.7375 0.8378
-7.3357 -22.5774 1.4721 0.9092
-3.0885 -22.6675 1.4186 0.9124
-2.2686 -22.6852 1.4137 0.9127
-1.4533 -22.7027 1.4107 0.9129
-0.6404 -22.7201 1.4094 0.9129
0.3761 -49.6815 3.0809 0.8195
11.9844 -25.6871 1.7577 0.8926
35.3457 -25.9774 2.7201 0.8388
-49.4068 -3.8112 1.9540 0.8201
-43.8898 -8.1785 1.7604 0.8363
-42.3495 -9.4691 1.7111 0.8405
-40.9244 -10.6995 1.6679 0.8442
-39.5991 -11.8803 1.6302 0.8475
-37.1976 -14.1273 1.5690 0.8528
-35.7262 -15.0505 1.5286 0.8563
-33.0239 -15.3240 1.4355 0.8644
-32.1185 -16.3234 1.4206 0.8657
-31.2387 -17.3080 1.4082 0.8668
-30.3819 -18.2821 1.3982 0.8677
-29.5432 -19.2481 1.3904 0.8684
-29.0292 -22.0196 1.4367 0.8643
-28.2993 -23.1048 1.4405 0.8639
-22.6432 -22.9409 1.2710 0.8789
-19.8704 -23.2410 1.2057 0.8848
-18.3404 -23.0725 1.1622 0.8887
-14.7607 -23.3159 1.0881 0.8954
-21.3411 -36.5374 1.6685 0.8442
-10.0471 -18.7061 0.8373 0.9185
-8.2455 -22.5954 0.9484 0.9082
-7.3475 -22.6136 0.9376 0.9092
-5.6064 -22.6485 0.9200 0.9108
-2.2721 -22.7206 0.9004 0.9126
0.1722 -22.7485 0.8970 0.9130
1.8047 -22.7780 0.9010 0.9126
2.6284 -22.7928 0.9047 0.9122
3.4601 -22.8077 0.9096 0.9118
11.4662 -43.4874 1.7734 0.8352
13.0901 -43.3046 1.7839 0.8344
12.7106 -24.8817 1.1017 0.8942
35.3165 -25.9560 1.7282 0.8391
-36.9949 -0.2032 0.6249 0.8624
-34.6970 -2.6765 0.5878 0.8700
-32.6821 -4.8887 0.5582 0.8762
-30.8837 -6.9054 0.5346 0.8811
-30.0497 -7.8564 0.5247 0.8832
-29.2524 -8.7762 0.5159 0.8850
-26.3490 -12.2267 0.4907 0.8903
-24.3814 -14.6713 0.4807 0.8924
-23.7518 -15.4748 0.4789 0.8928
-22.5177 -17.0805 0.4774 0.8931
-21.9098 -17.8881 0.4778 0.8930
-21.3049 -18.7023 0.4789 0.8928
-20.0971 -20.3613 0.4833 0.8919
-19.4901 -21.2120 0.4866 0.8912
-18.8785 -22.0809 0.4907 0.8903
-18.2599 -22.9713 0.4957 0.8892
-17.6322 -23.8868 0.5015 0.8880
-16.9929 -24.8318 0.5083 0.8866
-13.5334 -23.1702 0.4533 0.8982
-10.0603 -18.7305 0.3591 0.9185
-10.1282 -22.5951 0.4183 0.9057
-9.1807 -22.6139 0.4123 0.9070
-7.3593 -22.6498 0.4023 0.9091
-6.4790 -22.6671 0.3982 0.9100
-5.6152 -22.6841 0.3947 0.9107
-3.0982 -22.7385 0.3876 0.9123
-2.2757 -22.7560 0.3863 0.9126
-1.4578 -22.7734 0.3855 0.9128
2.6326 -22.8287 0.3882 0.9122
4.3087 -22.8589 0.3929 0.9111
5.1645 -22.8743 0.3961 0.9105
7.8380 -22.9360 0.4094 0.9076
8.7721 -22.9535 0.4151 0.9064
9.7334 -22.9714 0.4214 0.9050
10.7249 -22.9876 0.4285 0.9035
35.2271 -25.8903 0.7385 0.8395
-26.1006 -2.9550 -0.1479 0.9003
-23.7449 -6.2080 -0.1382 0.9065
-23.1962 -6.9592 -0.1364 0.9077
-20.6042 -10.4715 -0.1301 0.9117
-20.1057 -11.1397 -0.1294 0.9122
-17.6435 -14.4050 -0.1282 0.9129
-17.1487 -15.0539 -0.1285 0.9128
-16.1478 -16.3601 -0.1294 0.9122
-15.6389 -17.0205 -0.1301 0.9117
-14.0629 -19.0514 -0.1333 0.9096
-12.7309 -18.6035 -0.1269 0.9138
-12.2117 -19.2895 -0.1285 0.9127
-11.6764 -19.9908 -0.1303 0.9116
-10.0734 -18.7550 -0.1199 0.9184
-5.6240 -22.7198 -0.1318 0.9106
-1.4600 -22.8088 -0.1287 0.9126
-0.6434 -22.8262 -0.1286 0.9127
1.8103 -22.8494 -0.1290 0.9124
4.3156 -22.8953 -0.1312 0.9110
5.1728 -22.9110 -0.1322 0.9103
6.9389 -22.9555 -0.1350 0.9085
7.8506 -22.9730 -0.1367 0.9075
8.7864 -22.9910 -0.1386 0.9062
11.7747 -23.0497 -0.1457 0.9016
12.8462 -23.0726 -0.1487 0.8998
13.9635 -23.0964 -0.1519 0.8977
34.5755 -25.4114 -0.2416 0.8423
-22.6958 -0.1247 -0.6391 0.9132
-20.9099 -3.1277 -0.5953 0.9189
-20.4800 -3.8163 -0.5866 0.9200
-20.0488 -4.4828 -0.5785 0.9211
-19.6288 -5.1319 -0.5713 0.9220
-18.8107 -6.3847 -0.5593 0.9236
-18.4064 -6.9918 -0.5544 0.9242
-17.6046 -8.1690 -0.5465 0.9253
-16.8031 -9.3099 -0.5409 0.9260
-14.7673 -12.0567 -0.5368 0.9266
-14.3490 -12.5961 -0.5376 0.9264
-13.4951 -13.6726 -0.5409 0.9260
-13.0580 -14.2116 -0.5434 0.9257
-12.1588 -15.2960 -0.5502 0.9248
-11.6949 -15.8434 -0.5545 0.9242
-8.6626 -17.6108 -0.5526 0.9245
-8.1380 -18.1552 -0.5602 0.9235
-7.6005 -18.7215 -0.5689 0.9223
-6.4684 -19.9082 -0.5894 0.9196
-5.8670 -20.5263 -0.6011 0.9181
-3.8902 -22.5053 -0.6431 0.9127
-3.1079 -22.8098 -0.6482 0.9120
-2.2828 -22.8271 -0.6460 0.9123
-1.4623 -22.8444 -0.6446 0.9125
-0.6444 -22.8617 -0.6440 0.9125
0.1730 -22.8552 -0.6436 0.9126
3.4765 -22.9161 -0.6527 0.9114
5.1811 -22.9479 -0.6624 0.9102
6.0576 -22.9746 -0.6690 0.9093
6.9500 -22.9921 -0.6763 0.9084
8.8008 -23.0287 -0.6942 0.9061
10.7625 -23.0681 -0.7168 0.9032
16.3850 -23.1821 -0.7993 0.8926
17.6804 -23.2083 -0.8215 0.8898
20.5093 -23.2658 -0.8733 0.8833
23.7481 -23.3428 -0.9376 0.8752
25.5493 -23.3777 -0.9751 0.8706
-18.6735 -0.7705 -0.9478 0.9279
-18.3486 -1.4154 -0.9333 0.9289
-17.3803 -3.2387 -0.8966 0.9316
-17.0582 -3.8141 -0.8865 0.9324
-16.7358 -4.3755 -0.8773 0.9331
-16.0885 -5.4607 -0.8616 0.9342
-15.7628 -5.9866 -0.8551 0.9347
-15.1054 -7.0093 -0.8445 0.9355
-14.4373 -7.9991 -0.8370 0.9360
-14.0982 -8.4835 -0.8344 0.9362
-13.0560 -9.9034 -0.8311 0.9365
-12.6987 -10.3678 -0.8314 0.9365
-12.3357 -10.8287 -0.8324 0.9364
-11.9665 -11.2869 -0.8342 0.9362
-11.5904 -11.7429 -0.8368 0.9361
-10.8158 -12.6505 -0.8441 0.9355
-10.4162 -13.1038 -0.8489 0.9352
-9.1595 -14.4682 -0.8684 0.9337
-8.7183 -14.9264 -0.8767 0.9331
-7.4134 -15.0713 -0.8518 0.9349
-5.4342 -16.7249 -0.8918 0.9320
-4.3726 -17.6643 -0.9229 0.9297
-1.9657 -19.6562 -1.0018 0.9239
-0.5842 -20.7300 -1.0517 0.9203
3.4820 -22.9525 -1.1773 0.9112
4.3294 -22.9685 -1.1853 0.9106
5.1894 -22.9849 -1.1950 0.9099
6.0672 -23.0110 -1.2069 0.9091
6.9611 -23.0290 -1.2201 0.9081
7.8761 -23.0475 -1.2352 0.9071
9.7821 -23.0864 -1.2716 0.9045
14.0155 -23.1825 -1.3738 0.8972
19.0904 -23.2835 -1.5270 0.8864
20.5525 -23.3147 -1.5762 0.8830
22.1265 -23.3613 -1.6318 0.8791
25.6095 -23.4328 -1.7604 0.8702
-16.3344 -0.0897 -1.1977 0.9366
-16.0905 -0.6640 -1.1808 0.9375
-15.8441 -1.2222 -1.1652 0.9383
-15.3435 -2.2951 -1.1375 0.9397
-15.0889 -2.8117 -1.1254 0.9403
-14.8315 -3.3162 -1.1143 0.9409
-14.0396 -4.7653 -1.0871 0.9423
-13.7687 -5.2292 -1.0799 0.9426
-12.9321 -6.5724 -1.0636 0.9435
-11.4450 -8.6815 -1.0533 0.9440
-10.8114 -9.4907 -1.0548 0.9439
-10.1518 -10.2852 -1.0596 0.9437
-9.4638 -11.0693 -1.0678 0.9433
-9.1079 -11.4579 -1.0732 0.9430
-8.7433 -11.8447 -1.0795 0.9427
-8.3695 -12.2302 -1.0866 0.9423
-7.9859 -12.6146 -1.0947 0.9419
-7.1873 -13.3816 -1.1137 0.9409
-6.7709 -13.7650 -1.1248 0.9403
-6.3421 -14.1487 -1.1369 0.9397
-3.7506 -15.1500 -1.1443 0.9393
-2.7476 -15.8952 -1.1828 0.9374
-2.2172 -16.2727 -1.2042 0.9363
-1.6655 -16.6542 -1.2272 0.9351
1.4774 -18.6468 -1.3715 0.9277
2.1985 -19.0641 -1.4071 0.9259
3.7556 -19.9246 -1.4866 0.9219
5.4910 -20.8254 -1.5792 0.9172
6.4367 -21.2938 -1.6311 0.9146
7.4415 -21.7756 -1.6873 0.9118
11.8380 -23.1737 -1.9080 0.9009
15.2195 -23.2541 -2.0378 0.8945
16.4483 -23.2717 -2.0895 0.8920
19.1295 -23.3312 -2.2122 0.8860
20.5959 -23.3640 -2.2837 0.8826
22.1751 -23.4126 -2.3644 0.8787
25.6701 -23.4882 -2.5512 0.8697
29.8034 -23.5900 -2.7869 0.8586
32.1795 -23.6505 -2.9282 0.8520
-14.3188 -0.0786 -1.3747 0.9441
-14.1296 -0.5830 -1.3577 0.9448
-13.9357 -1.0750 -1.3419 0.9454
-13.5340 -2.0245 -1.3138 0.9465
-13.3263 -2.4832 -1.3014 0.9470
-13.1139 -2.9323 -1.2901 0.9474
-12.8970 -3.3719 -1.2798 0.9478
-12.2179 -4.6403 -1.2547 0.9488
-11.7411 -5.4482 -1.2426 0.9493
-10.7254 -6.9880 -1.2290 0.9499
-10.4577 -7.3590 -1.2277 0.9499
-10.1843 -7.7251 -1.2272 0.9499
-9.3272 -8.7976 -1.2309 0.9498
-9.0284 -9.1471 -1.2339 0.9497
-8.7226 -9.4932 -1.2377 0.9495
-8.4094 -9.8360 -1.2424 0.9493
-7.7597 -10.5122 -1.2544 0.9489
-7.4224 -10.8462 -1.2618 0.9486
-6.7210 -11.5069 -1.2794 0.9479
-6.3561 -11.8340 -1.2896 0.9475
-5.9810 -12.1591 -1.3009 0.9470
-5.5952 -12.4824 -1.3133 0.9465
-4.7892 -13.1243 -1.3413 0.9454
-2.0469 -15.0228 -1.4556 0.9409
0.1161 -15.3288 -1.4717 0.9403
0.6772 -15.6234 -1.5013 0.9391
1.8696 -16.2123 -1.5668 0.9365
2.5042 -16.5068 -1.6029 0.9351
3.8598 -17.0960 -1.6826 0.9320
4.5856 -17.3917 -1.7268 0.9303
5.3469 -17.6884 -1.7741 0.9284
7.8723 -18.5788 -1.9372 0.9221
8.8064 -18.8754 -1.9997 0.9197
10.8390 -19.4674 -2.1391 0.9144
11.9477 -19.7622 -2.2171 0.9114
13.1262 -20.0558 -2.3012 0.9082
14.3813 -20.3472 -2.3921 0.9047
15.7208 -20.6361 -2.4906 0.9010
18.6925 -21.2048 -2.7138 0.8926
20.3474 -21.4828 -2.8407 0.8879
22.1329 -21.7551 -2.9795 0.8828
28.4533 -22.5214 -3.4838 0.8643
-12.7399 -0.0700 -1.5133 0.9500
-11.3727 -3.4120 -1.4104 0.9533
-11.1772 -3.7938 -1.4021 0.9536
-10.7700 -4.5371 -1.3882 0.9540
-10.1182 -5.6061 -1.3741 0.9545
-9.1702 -6.9559 -1.3672 0.9547
-8.6606 -7.6027 -1.3689 0.9546
-8.3963 -7.9195 -1.3710 0.9546
-7.8477 -8.5411 -1.3778 0.9544
-7.2713 -9.1473 -1.3880 0.9540
-6.9720 -9.4451 -1.3945 0.9538
-6.6649 -9.7394 -1.4019 0.9536
-6.3499 -10.0303 -1.4101 0.9533
-5.0034 -11.1621 -1.4530 0.9519
-4.6433 -11.4374 -1.4663 0.9515
-4.2731 -11.7096 -1.4807 0.9510
-3.0964 -12.5089 -1.5307 0.9494
-2.6805 -12.7695 -1.5499 0.9488
-1.8096 -13.2815 -1.5922 0.9474
-0.3953 -14.0263 -1.6668 0.9450
1.1679 -14.7404 -1.7564 0.9422
1.7264 -14.9709 -1.7901 0.9411
2.8400 -15.0662 -1.8212 0.9401
3.4025 -15.0705 -1.8352 0.9397
4.5707 -15.1206 -1.8764 0.9384
5.2319 -15.3096 -1.9218 0.9369
5.9208 -15.4925 -1.9701 0.9354
6.6392 -15.6687 -2.0214 0.9337
7.3892 -15.8377 -2.0760 0.9320
8.9924 -16.1509 -2.1958 0.9282
9.8505 -16.2933 -2.2616 0.9262
11.6937 -16.5448 -2.4066 0.9216
12.6852 -16.6514 -2.4865 0.9191
13.7280 -16.7432 -2.5719 0.9165
14.8260 -16.8186 -2.6632 0.9136
17.2058 -16.9121 -2.8658 0.9074
19.8653 -16.9130 -3.0991 0.9002
21.3150 -16.8713 -3.2291 0.8963
22.8540 -16.7967 -3.3691 0.8920
24.4903 -16.6849 -3.5201 0.8875
-11.4685 -0.0630 -1.6250 0.9547
-11.3449 -0.4681 -1.6088 0.9552
-11.0787 -1.2543 -1.5798 0.9560
-10.9364 -1.6359 -1.5668 0.9563
-10.6338 -2.3777 -1.5439 0.9569
-10.3078 -3.0925 -1.5248 0.9575
-10.1361 -3.4404 -1.5167 0.9577
-9.3929 -4.7737 -1.4929 0.9583
-9.1929 -5.0934 -1.4891 0.9584
-8.9875 -5.4082 -1.4862 0.9585
-8.5591 -6.0229 -1.4829 0.9586
-8.3361 -6.3232 -1.4825 0.9586
-7.8719 -6.9103 -1.4842 0.9586
-7.6306 -7.1973 -1.4862 0.9585
-7.1289 -7.7587 -1.4929 0.9583
-6.6007 -8.3038 -1.5030 0.9581
-5.7559 -9.0920 -1.5247 0.9575
-5.4595 -9.3470 -1.5337 0.9572
-4.8430 -9.8456 -1.5547 0.9566
-4.5224 -10.0892 -1.5666 0.9563
-3.8553 -10.5648 -1.5935 0.9556
-2.7845 -11.2487 -1.6419 0.9543
-2.0196 -11.6841 -1.6801 0.9532
-1.6208 -11.8953 -1.7010 0.9527
-0.7876 -12.3041 -1.7469 0.9514
0.5583 -12.8802 -1.8267 0.9492
1.5264 -13.2367 -1.8879 0.9476
2.5575 -13.5683 -1.9563 0.9457
3.0985 -13.7238 -1.9935 0.9447
3.6576 -13.8718 -2.0327 0.9437
4.8333 -14.1434 -2.1178 0.9414
5.4520 -14.2658 -2.1639 0.9402
6.7559 -14.4804 -2.2640 0.9375
7.4434 -14.5709 -2.3183 0.9360
8.8958 -14.7141 -2.4362 0.9329
9.6633 -14.7646 -2.5002 0.9312
11.2880 -14.8173 -2.6393 0.9275
12.1483 -14.8166 -2.7148 0.9255
13.9733 -14.7531 -2.8791 0.9212
14.9416 -14.6865 -2.9685 0.9188
18.0923 -14.3204 -3.2693 0.9110
20.4184 -13.9107 -3.5007 0.9050
-10.4218 -0.0572 -1.7169 0.9586
-10.3189 -0.4258 -1.7014 0.9590
-10.2093 -0.7875 -1.6869 0.9593
-10.0932 -1.1427 -1.6734 0.9597
-9.7075 -2.1706 -1.6387 0.9605
-9.5667 -2.5012 -1.6290 0.9607
-9.1091 -3.4596 -1.6052 0.9613
-8.9450 -3.7683 -1.5990 0.9614
-8.7753 -4.0720 -1.5937 0.9615
-8.5999 -4.3707 -1.5892 0.9616
-8.4188 -4.6645 -1.5856 0.9617
-7.8411 -5.5177 -1.5795 0.9619
-7.6370 -5.7929 -1.5791 0.9619
-7.2111 -6.3302 -1.5807 0.9618
-6.9892 -6.5923 -1.5828 0.9618
-6.5272 -7.1038 -1.5893 0.9616
-6.2868 -7.3533 -1.5938 0.9615
-6.0401 -7.5986 -1.5991 0.9614
-5.7870 -7.8397 -1.6053 0.9613
-5.5271 -8.0768 -1.6123 0.9611
-5.2606 -8.3096 -1.6202 0.9609
-4.7066 -8.7629 -1.6386 0.9605
-4.4188 -8.9832 -1.6492 0.9602
-4.1235 -9.1993 -1.6608 0.9600
-2.5282 -10.2132 -1.7333 0.9582
-1.8299 -10.5860 -1.7698 0.9574
-1.4667 -10.7647 -1.7897 0.9569
-0.7109 -11.1061 -1.8334 0.9559
-0.3174 -11.2683 -1.8571 0.9553
0.5017 -11.5746 -1.9086 0.9541
1.3671 -11.8547 -1.9659 0.9528
1.8181 -11.9841 -1.9968 0.9520
2.2826 -12.1059 -2.0295 0.9513
2.7589 -12.2196 -2.0637 0.9505
3.7547 -12.4211 -2.1377 0.9488
5.9273 -12.7043 -2.3095 0.9448
6.5113 -12.7462 -2.3579 0.9436
7.7326 -12.7901 -2.4622 0.9412
9.0286 -12.7740 -2.5769 0.9386
10.4042 -12.6894 -2.7033 0.9356
11.1233 -12.6183 -2.7711 0.9341
11.8641 -12.5261 -2.8422 0.9324
13.4126 -12.2725 -2.9949 0.9290
14.2204 -12.1077 -3.0768 0.9271
-9.4572 -0.3903 -1.7791 0.9622
-9.3634 -0.7223 -1.7652 0.9625
-9.2631 -1.0487 -1.7522 0.9628
-9.0434 -1.6852 -1.7291 0.9633
-8.6680 -2.6005 -1.7010 0.9638
-8.3884 -3.1859 -1.6866 0.9641
-7.7605 -4.2998 -1.6676 0.9645
-7.4125 -4.8295 -1.6629 0.9646
-7.0420 -5.3416 -1.6613 0.9647
-6.8482 -5.5912 -1.6617 0.9647
-6.6487 -5.8365 -1.6629 0.9646
-6.4435 -6.0776 -1.6649 0.9646
-6.2325 -6.3145 -1.6676 0.9645
-5.7929 -6.7755 -1.6755 0.9644
-5.5641 -6.9997 -1.6807 0.9643
-5.0882 -7.4354 -1.6935 0.9640
-4.8410 -7.6468 -1.7011 0.9638
-4.0605 -8.2548 -1.7291 0.9633
-3.5067 -8.6377 -1.7522 0.9628
-3.2194 -8.8222 -1.7652 0.9625
-2.6230 -9.1767 -1.7939 0.9619
-2.3136 -9.3464 -1.8098 0.9616
-1.9965 -9.5111 -1.8267 0.9612
-1.6715 -9.6702 -1.8446 0.9608
-1.3385 -9.8239 -1.8636 0.9605
-0.6474 -10.1140 -1.9049 0.9596
0.0786 -10.3793 -1.9510 0.9586
0.4552 -10.5021 -1.9758 0.9581
1.2370 -10.7264 -2.0295 0.9570
2.9214 -11.0800 -2.1538 0.9544
3.8284 -11.2026 -2.2252 0.9530
4.7811 -11.2836 -2.3034 0.9513
5.2754 -11.3071 -2.3452 0.9505
5.7819 -11.3183 -2.3889 0.9496
7.3770 -11.2713 -2.5320 0.9466
8.5054 -11.1647 -2.6381 0.9445
9.0895 -11.0859 -2.6946 0.9433
9.6871 -10.9890 -2.7535 0.9421
10.2980 -10.8727 -2.8148 0.9409
11.5601 -10.5775 -2.9452 0.9382
13.5510 -9.9594 -3.1610 0.9338
14.2394 -9.7011 -3.2385 0.9323
-8.7972 -0.0483 -1.8596 0.9647
-8.5536 -0.9684 -1.8196 0.9654
-8.3594 -1.5577 -1.7974 0.9658
-7.8986 -2.6810 -1.7632 0.9665
-7.7688 -2.9505 -1.7566 0.9666
-7.4922 -3.4766 -1.7459 0.9668
-7.3454 -3.7331 -1.7417 0.9669
-6.7033 -4.7170 -1.7326 0.9670
-6.5290 -4.9525 -1.7322 0.9671
-6.3492 -5.1838 -1.7326 0.9670
-6.1640 -5.4110 -1.7337 0.9670
-5.5750 -6.0675 -1.7417 0.9669
-5.1544 -6.4843 -1.7509 0.9667
-4.9355 -6.6863 -1.7567 0.9666
-4.0019 -7.4508 -1.7878 0.9660
-3.7535 -7.6308 -1.7976 0.9658
-3.4990 -7.8061 -1.8082 0.9656
-2.9713 -8.1425 -1.8322 0.9652
-2.6978 -8.3033 -1.8455 0.9649
-2.4178 -8.4590 -1.8597 0.9647
-1.8378 -8.7547 -1.8909 0.9641
-1.5374 -8.8943 -1.9080 0.9638
-0.9156 -9.1562 -1.9451 0.9631
-0.5939 -9.2781 -1.9652 0.9627
-0.2648 -9.3937 -1.9864 0.9623
0.0720 -9.5026 -2.0087 0.9619
1.1286 -9.7871 -2.0825 0.9605
1.4969 -9.8668 -2.1095 0.9600
1.8733 -9.9384 -2.1378 0.9595
2.6514 -10.0558 -2.1982 0.9584
6.1146 -10.1139 -2.4982 0.9528
7.0705 -10.0037 -2.5894 0.9512
7.5619 -9.9262 -2.6377 0.9503
10.1469 -9.2843 -2.9072 0.9453
10.6874 -9.0990 -2.9669 0.9442
11.2349 -8.8926 -3.0287 0.9431
12.3481 -8.4126 -3.1583 0.9407
-8.1531 -0.0448 -1.9162 0.9671
-8.0886 -0.3337 -1.9026 0.9673
-7.9402 -0.8989 -1.8780 0.9677
-7.8565 -1.1752 -1.8670 0.9679
-7.6710 -1.7152 -1.8474 0.9682
-7.4617 -2.2386 -1.8309 0.9685
-7.2296 -2.7457 -1.8175 0.9687
-7.1051 -2.9932 -1.8120 0.9688
-6.9751 -3.2367 -1.8072 0.9689
-6.8397 -3.4761 -1.8032 0.9690
-6.2440 -4.3938 -1.7944 0.9691
-6.0817 -4.6132 -1.7940 0.9691
-5.9142 -4.8286 -1.7944 0.9691
-5.7414 -5.0400 -1.7955 0.9691
-5.5633 -5.2473 -1.7973 0.9691
-5.1911 -5.6498 -1.8032 0.9690
-4.9971 -5.8448 -1.8073 0.9689
-4.3828 -6.4046 -1.8239 0.9686
-4.1672 -6.5825 -1.8310 0.9685
-3.4874 -7.0897 -1.8569 0.9681
-3.2496 -7.2496 -1.8672 0.9679
-2.5018 -7.7000 -1.9028 0.9673
-2.2409 -7.8400 -1.9164 0.9671
-1.4222 -8.2278 -1.9624 0.9663
-0.8458 -8.4578 -1.9977 0.9657
-0.2442 -8.6630 -2.0368 0.9650
0.0663 -8.7559 -2.0579 0.9647
0.3833 -8.8418 -2.0800 0.9643
1.3738 -9.0557 -2.1527 0.9631
1.7175 -9.1114 -2.1791 0.9626
3.1600 -9.2470 -2.2967 0.9606
3.5378 -9.2572 -2.3291 0.9601
4.3139 -9.2462 -2.3979 0.9589
4.7121 -9.2241 -2.4344 0.9583
5.1169 -9.1902 -2.4721 0.9577
5.9461 -9.0852 -2.5519 0.9564
7.2363 -8.8257 -2.6823 0.9542
7.6778 -8.7098 -2.7288 0.9534
8.1246 -8.5779 -2.7768 0.9526
8.5761 -8.4297 -2.8262 0.9518
9.4917 -8.0811 -2.9298 0.9501
10.8881 -7.4179 -3.0964 0.9473
-7.5917 -0.0417 -1.9657 0.9691
-7.4726 -0.5765 -1.9405 0.9695
-7.3285 -1.0962 -1.9186 0.9698
-7.2474 -1.3505 -1.9088 0.9700
-6.9693 -2.0909 -1.8839 0.9704
-6.8653 -2.3302 -1.8771 0.9705
-6.7558 -2.5658 -1.8711 0.9706
-6.6408 -2.7976 -1.8658 0.9707
-6.2637 -3.4705 -1.8541 0.9708
-5.8396 -4.1092 -1.8488 0.9709
-5.5312 -4.5159 -1.8488 0.9709
-5.3693 -4.7134 -1.8499 0.9709
-5.0305 -5.0966 -1.8541 0.9708
-4.8534 -5.2822 -1.8573 0.9708
-4.6713 -5.4637 -1.8612 0.9707
-4.2919 -5.8144 -1.8712 0.9706
-3.8922 -6.1481 -1.8840 0.9704
-3.4720 -6.4643 -1.8999 0.9701
-2.8029 -6.9042 -1.9293 0.9697
-2.5694 -7.0412 -1.9407 0.9695
-2.3307 -7.1732 -1.9529 0.9693
-2.0866 -7.3001 -1.9658 0.9691
-1.8372 -7.4218 -1.9796 0.9689
-1.5823 -7.5379 -1.9943 0.9687
-1.3221 -7.6486 -2.0097 0.9684
-0.7853 -7.8524 -2.0433 0.9679
-0.5086 -7.9452 -2.0614 0.9676
-0.2264 -8.0317 -2.0804 0.9673
0.0614 -8.1116 -2.1003 0.9670
0.3548 -8.1848 -2.1212 0.9667
1.2684 -8.3612 -2.1896 0.9657
1.5842 -8.4046 -2.2144 0.9653
1.9056 -8.4400 -2.2403 0.9649
2.2325 -8.4669 -2.2672 0.9645
2.9028 -8.4942 -2.3242 0.9636
3.2461 -8.4937 -2.3543 0.9631
3.9485 -8.4631 -2.4180 0.9621
4.6712 -8.3898 -2.4863 0.9611
5.0399 -8.3362 -2.5222 0.9605
5.4131 -8.2706 -2.5593 0.9600
6.1722 -8.1020 -2.6371 0.9588
6.9463 -7.8799 -2.7198 0.9575
7.3382 -7.7477 -2.7630 0.9569
7.7327 -7.6007 -2.8074 0.9562
8.5276 -7.2602 -2.8998 0.9548
9.2979 -6.8335 -2.9876 0.9534
-7.0476 -0.2908 -1.9968 0.9711
-6.9917 -0.5394 -1.9852 0.9713
-6.9298 -0.7846 -1.9743 0.9714
-6.8619 -1.0264 -1.9642 0.9716
-6.7088 -1.5000 -1.9461 0.9718
-6.6237 -1.7318 -1.9382 0.9719
-6.5331 -1.9600 -1.9309 0.9720
-6.4370 -2.1849 -1.9244 0.9721
-6.2289 -2.6241 -1.9134 0.9723
-6.1169 -2.8384 -1.9090 0.9724
-5.8775 -3.2565 -1.9022 0.9725
-5.6178 -3.6602 -1.8981 0.9725
-5.4805 -3.8565 -1.8971 0.9725
-5.1910 -4.2382 -1.8971 0.9725
-4.8820 -4.6048 -1.8999 0.9725
-4.7203 -4.7823 -1.9022 0.9725
-4.5536 -4.9560 -1.9053 0.9724
-4.2060 -5.2912 -1.9135 0.9723
-3.6486 -5.7633 -1.9310 0.9720
-3.2530 -6.0565 -1.9462 0.9718
-2.8382 -6.3317 -1.9643 0.9716
-2.1798 -6.7089 -1.9970 0.9711
-1.7167 -6.9352 -2.0226 0.9707
-1.4779 -7.0404 -2.0365 0.9705
-0.4739 -7.4043 -2.1004 0.9696
-0.2108 -7.4802 -2.1184 0.9694
0.3300 -7.6125 -2.1571 0.9688
0.6076 -7.6685 -2.1777 0.9685
0.8900 -7.7175 -2.1992 0.9682
1.1771 -7.7590 -2.2217 0.9679
1.7654 -7.8192 -2.2693 0.9672
3.6368 -7.7951 -2.4351 0.9649
4.6263 -7.6521 -2.5314 0.9635
4.9629 -7.5828 -2.5655 0.9630
5.3024 -7.5021 -2.6007 0.9625
5.6446 -7.4095 -2.6369 0.9620
6.3356 -7.1872 -2.7123 0.9610
7.3828 -6.7553 -2.8329 0.9593
8.4311 -6.1965 -2.9621 0.9574
8.7780 -5.9803 -3.0069 0.9568
-6.5639 -0.5063 -2.0249 0.9728
-6.4462 -0.9643 -2.0048 0.9731
-6.3788 -1.1887 -1.9958 0.9732
-6.3059 -1.4100 -1.9874 0.9733
-6.1436 -1.8432 -1.9729 0.9735
-5.9602 -2.2636 -1.9610 0.9737
-5.6466 -2.8697 -1.9482 0.9738
-5.2883 -3.4454 -1.9413 0.9739
-5.0253 -3.8118 -1.9400 0.9739
-4.8867 -3.9897 -1.9404 0.9739
-4.7433 -4.1639 -1.9413 0.9739
-4.5954 -4.3344 -1.9430 0.9739
-4.4428 -4.5012 -1.9453 0.9739
-4.2856 -4.6642 -1.9482 0.9738
-3.7863 -5.1297 -1.9611 0.9737
-3.4311 -5.4197 -1.9729 0.9735
-3.2466 -5.5584 -1.9799 0.9734
-3.0576 -5.6928 -1.9876 0.9733
-2.8642 -5.8227 -1.9959 0.9732
-2.6662 -5.9481 -2.0049 0.9731
-2.2570 -6.1849 -2.0251 0.9728
-2.0457 -6.2961 -2.0362 0.9727
-0.6854 -6.8534 -2.1185 0.9716
-0.1971 -6.9938 -2.1520 0.9711
0.5671 -7.1568 -2.2082 0.9704
1.3681 -7.2581 -2.2717 0.9696
1.9217 -7.2882 -2.3183 0.9689
2.7793 -7.2724 -2.3946 0.9679
3.6662 -7.1768 -2.4788 0.9668
3.9676 -7.1259 -2.5086 0.9664
5.5058 -6.7151 -2.6709 0.9643
5.8176 -6.5995 -2.7059 0.9639
7.0659 -6.0158 -2.8543 0.9619
-6.1805 -0.4768 -2.0605 0.9742
-5.8713 -1.5351 -2.0173 0.9747
-5.7934 -1.7381 -2.0106 0.9748
-5.7104 -1.9382 -2.0045 0.9749
-5.6224 -2.1353 -1.9992 0.9750
-5.4313 -2.5203 -1.9903 0.9751
-4.9914 -3.2520 -1.9802 0.9752
-4.8696 -3.4267 -1.9793 0.9752
-4.7433 -3.5980 -1.9790 0.9752
-4.3372 -4.0909 -1.9818 0.9752
-4.1929 -4.2481 -1.9840 0.9752
-4.0442 -4.4014 -1.9869 0.9751
-3.5719 -4.8389 -1.9992 0.9750
-3.4058 -4.9769 -2.0046 0.9749
-3.0609 -5.2405 -2.0173 0.9747
-2.8821 -5.3660 -2.0247 0.9747
-1.9255 -5.9264 -2.0713 0.9741
-1.0868 -6.2873 -2.1209 0.9735
-0.8671 -6.3643 -2.1351 0.9733
0.0501 -6.6149 -2.1989 0.9725
0.2888 -6.6623 -2.2167 0.9723
0.5311 -6.7034 -2.2352 0.9721
0.7770 -6.7377 -2.2545 0.9718
1.5351 -6.7990 -2.3169 0.9710
2.5893 -6.7753 -2.4110 0.9699
2.8597 -6.7490 -2.4365 0.9696
3.4075 -6.6702 -2.4898 0.9689
3.9630 -6.5550 -2.5462 0.9682
4.2431 -6.4831 -2.5755 0.9679
4.5244 -6.4013 -2.6057 0.9675
4.8066 -6.3094 -2.6365 0.9671
5.0893 -6.2071 -2.6681 0.9667
5.3722 -6.0942 -2.7005 0.9663
5.6549 -5.9705 -2.7335 0.9659
6.2181 -5.6896 -2.8016 0.9651
6.4977 -5.5320 -2.8366 0.9647
6.7753 -5.3628 -2.8722 0.9642
-5.9107 -0.0325 -2.1138 0.9752
-5.8754 -0.2425 -2.1029 0.9753
-5.8345 -0.4501 -2.0927 0.9754
-5.7881 -0.6553 -2.0831 0.9756
-5.7362 -0.8580 -2.0741 0.9757
-5.6791 -1.0583 -2.0658 0.9758
-5.6167 -1.2559 -2.0582 0.9758
-5.4766 -1.6431 -2.0447 0.9760
-5.3990 -1.8325 -2.0389 0.9761
-5.3165 -2.0192 -2.0337 0.9761
-4.7223 -3.0767 -2.0155 0.9763
-4.4877 -3.4042 -2.0143 0.9764
-4.2357 -3.7183 -2.0155 0.9763
-4.1032 -3.8702 -2.0171 0.9763
-3.6803 -4.3046 -2.0253 0.9762
-3.3776 -4.5757 -2.0338 0.9761
-2.8929 -4.9529 -2.0512 0.9759
-2.5499 -5.1839 -2.0659 0.9758
-2.1913 -5.3976 -2.0832 0.9756
-2.0061 -5.4976 -2.0928 0.9754
-1.8172 -5.5930 -2.1030 0.9753
-1.6245 -5.6836 -2.1139 0.9752
-1.4281 -5.7694 -2.1254 0.9751
-1.0243 -5.9256 -2.1505 0.9748
-0.8169 -5.9959 -2.1640 0.9746
-0.6061 -6.0608 -2.1782 0.9745
-0.1740 -6.1736 -2.2086 0.9741
0.0471 -6.2212 -2.2248 0.9739
0.2715 -6.2628 -2.2417 0.9737
0.4990 -6.2982 -2.2593 0.9735
0.7297 -6.3272 -2.2776 0.9733
1.1998 -6.3653 -2.3164 0.9729
1.9255 -6.3699 -2.3797 0.9721
2.1723 -6.3567 -2.4023 0.9719
2.6723 -6.3068 -2.4495 0.9713
2.9252 -6.2697 -2.4741 0.9710
3.4355 -6.1703 -2.5255 0.9704
3.9503 -6.0358 -2.5796 0.9698
4.2088 -5.9548 -2.6077 0.9695
4.4676 -5.8645 -2.6364 0.9692
4.7264 -5.7645 -2.6657 0.9688
5.2425 -5.5351 -2.7263 0.9681
5.4991 -5.4053 -2.7574 0.9678
5.7542 -5.2651 -2.7891 0.9674
6.2580 -4.9533 -2.8541 0.9667
6.5058 -4.7814 -2.8873 0.9663
6.7501 -4.5988 -2.9209 0.9659
-5.5577 -0.2293 -2.1316 0.9765
-5.5204 -0.4259 -2.1218 0.9766
-5.3771 -1.0020 -2.0961 0.9768
-5.2561 -1.3742 -2.0819 0.9770
-5.0380 -1.9134 -2.0652 0.9772
-4.8691 -2.2594 -2.0570 0.9773
-4.7777 -2.4282 -2.0538 0.9773
-4.6819 -2.5940 -2.0512 0.9773
-4.4770 -2.9169 -2.0477 0.9774
-4.3680 -3.0737 -2.0468 0.9774
-4.1373 -3.3779 -2.0468 0.9774
-4.0156 -3.5251 -2.0477 0.9774
-3.8899 -3.6690 -2.0492 0.9774
-3.7600 -3.8095 -2.0512 0.9773
-3.3464 -4.2098 -2.0609 0.9772
-2.7402 -4.6914 -2.0820 0.9770
-2.2459 -5.0104 -2.1042 0.9768
-1.1605 -5.5288 -2.1649 0.9761
-0.9677 -5.5984 -2.1772 0.9760
-0.7716 -5.6628 -2.1901 0.9758
0.0444 -5.8664 -2.2482 0.9752
0.4701 -5.9338 -2.2810 0.9748
1.3532 -5.9933 -2.3546 0.9740
2.9773 -5.8282 -2.5080 0.9724
3.2148 -5.7739 -2.5325 0.9721
3.4529 -5.7112 -2.5576 0.9718
3.9302 -5.5606 -2.6095 0.9713
4.4071 -5.3750 -2.6636 0.9707
5.1157 -5.0283 -2.7489 0.9697
5.3486 -4.8940 -2.7782 0.9694
6.0323 -4.4335 -2.8689 0.9684
-5.2338 -0.4038 -2.1484 0.9776
-5.1504 -0.7704 -2.1314 0.9777
-4.9881 -1.3041 -2.1101 0.9780
-4.9244 -1.4774 -2.1042 0.9780
-4.7055 -1.9823 -2.0898 0.9782
-4.4465 -2.4636 -2.0805 0.9783
-4.3515 -2.6185 -2.0785 0.9783
-4.0413 -3.0655 -2.0760 0.9783
-3.8141 -3.3482 -2.0771 0.9783
-3.6945 -3.4847 -2.0786 0.9783
-3.5710 -3.6179 -2.0805 0.9783
-3.4436 -3.7478 -2.0831 0.9782
-3.0386 -4.1165 -2.0941 0.9781
-2.7501 -4.3441 -2.1043 0.9780
-2.6004 -4.4521 -2.1102 0.9780
-2.2904 -4.6564 -2.1238 0.9778
-2.1302 -4.7524 -2.1315 0.9777
-1.9666 -4.8442 -2.1397 0.9777
-1.7996 -4.9316 -2.1486 0.9776
-1.6293 -5.0147 -2.1580 0.9775
-1.4558 -5.0932 -2.1680 0.9774
-1.0992 -5.2362 -2.1898 0.9771
-0.9162 -5.3005 -2.2015 0.9770
-0.7303 -5.3598 -2.2139 0.9769
-0.5414 -5.4140 -2.2269 0.9768
0.0420 -5.5447 -2.2694 0.9763
0.6487 -5.6246 -2.3173 0.9758
0.8555 -5.6394 -2.3344 0.9756
1.0646 -5.6478 -2.3522 0.9755
1.4886 -5.6456 -2.3896 0.9751
1.7032 -5.6346 -2.4091 0.9749
2.3559 -5.5599 -2.4714 0.9742
3.0175 -5.4197 -2.5388 0.9735
3.9031 -5.1236 -2.6361 0.9725
4.3428 -4.9265 -2.6878 0.9720
4.7768 -4.6952 -2.7413 0.9715
5.4111 -4.2830 -2.8244 0.9706
-5.0284 -0.0276 -2.1915 0.9783
-5.0022 -0.2064 -2.1819 0.9784
-4.9709 -0.3835 -2.1729 0.9785
-4.9347 -0.5587 -2.1644 0.9786
-4.8936 -0.7320 -2.1565 0.9786
-4.8477 -0.9033 -2.1491 0.9787
-4.7971 -1.0726 -2.1423 0.9788
-4.7418 -1.2397 -2.1360 0.9788
-4.6819 -1.4046 -2.1303 0.9789
-4.2299 -2.3436 -2.1075 0.9791
-3.8448 -2.9164 -2.1032 0.9792
-3.7386 -3.0524 -2.1034 0.9792
-3.6286 -3.1853 -2.1043 0.9792
-3.3970 -3.4417 -2.1075 0.9791
-3.2756 -3.5650 -2.1100 0.9791
-3.1506 -3.6850 -2.1130 0.9791
-2.4720 -4.2323 -2.1361 0.9788
-2.1766 -4.4250 -2.1492 0.9787
-1.7092 -4.6839 -2.1730 0.9785
-1.0429 -4.9684 -2.2125 0.9781
-0.8691 -5.0280 -2.2238 0.9780
-0.3314 -5.1775 -2.2610 0.9776
-0.1470 -5.2170 -2.2746 0.9775
0.2289 -5.2802 -2.3034 0.9772
1.0063 -5.3387 -2.3677 0.9766
1.4059 -5.3320 -2.4032 0.9762
1.6079 -5.3191 -2.4218 0.9760
2.2208 -5.2411 -2.4807 0.9755
2.6333 -5.1547 -2.5227 0.9751
2.8410 -5.1009 -2.5445 0.9748
3.2536 -4.9712 -2.5893 0.9744
3.6654 -4.8114 -2.6361 0.9740
5.2479 -3.8570 -2.8384 0.9720
5.4328 -3.7013 -2.8650 0.9717
-4.7575 -0.1963 -2.2040 0.9792
-4.5144 -1.1803 -2.1599 0.9796
-4.3972 -1.4925 -2.1494 0.9797
-4.3320 -1.6453 -2.1450 0.9798
-4.0296 -2.2327 -2.1324 0.9799
-3.8542 -2.5111 -2.1293 0.9799
-3.7606 -2.6463 -2.1285 0.9799
-3.6632 -2.7787 -2.1283 0.9799
-3.3484 -3.1583 -2.1306 0.9799
-3.1204 -3.3961 -2.1348 0.9799
-2.7521 -3.7283 -2.1450 0.9798
-2.2142 -4.1224 -2.1660 0.9796
-2.0717 -4.2116 -2.1726 0.9795
-1.9261 -4.2970 -2.1797 0.9795
-1.7775 -4.3783 -2.1873 0.9794
-0.9912 -4.7221 -2.2334 0.9790
-0.8258 -4.7776 -2.2443 0.9789
-0.6578 -4.8284 -2.2556 0.9788
-0.1396 -4.9515 -2.2929 0.9784
0.3984 -5.0286 -2.3350 0.9780
0.9531 -5.0565 -2.3818 0.9776
1.1412 -5.0543 -2.3984 0.9774
1.7126 -5.0114 -2.4514 0.9769
1.9050 -4.9846 -2.4701 0.9768
2.0981 -4.9514 -2.4892 0.9766
2.2916 -4.9118 -2.5088 0.9764
2.4854 -4.8654 -2.5289 0.9762
3.2591 -4.6112 -2.6137 0.9754
3.6416 -4.4415 -2.6586 0.9750
4.0183 -4.2426 -2.7049 0.9746
4.2038 -4.1320 -2.7285 0.9744
4.3869 -4.0140 -2.7524 0.9741
4.5673 -3.8885 -2.7766 0.9739
5.0891 -3.4671 -2.8504 0.9732
-4.5530 -0.0250 -2.2334 0.9799
-4.4734 -0.5065 -2.2083 0.9801
-4.4377 -0.6638 -2.2010 0.9802
-4.3974 -0.8194 -2.1942 0.9803
-4.3528 -0.9733 -2.1879 0.9803
-4.3038 -1.1252 -2.1821 0.9804
-4.2504 -1.2752 -2.1768 0.9804
-4.1929 -1.4232 -2.1720 0.9805
-3.9955 -1.8540 -2.1606 0.9806
-3.9217 -1.9931 -2.1578 0.9806
-3.8439 -2.1298 -2.1556 0.9806
-3.6768 -2.3955 -2.1526 0.9806
-3.5875 -2.5245 -2.1518 0.9806
-3.3981 -2.7744 -2.1518 0.9806
-3.2979 -2.8950 -2.1526 0.9806
-3.1942 -3.0128 -2.1538 0.9806
-2.9764 -3.2394 -2.1579 0.9806
-2.8624 -3.3480 -2.1607 0.9806
-2.6245 -3.5555 -2.1677 0.9805
-2.2437 -3.8413 -2.1821 0.9804
-2.1105 -3.9295 -2.1879 0.9803
-1.9744 -4.0140 -2.1943 0.9803
-1.6935 -4.1715 -2.2084 0.9801
-1.4014 -4.3133 -2.2246 0.9800
-1.2513 -4.3780 -2.2335 0.9799
-0.7859 -4.5463 -2.2631 0.9797
-0.6259 -4.5935 -2.2740 0.9796
-0.4636 -4.6361 -2.2854 0.9795
-0.2992 -4.6739 -2.2974 0.9793
-0.1326 -4.7069 -2.3098 0.9792
0.0359 -4.7350 -2.3227 0.9791
0.7276 -4.7957 -2.3793 0.9786
0.9043 -4.7975 -2.3947 0.9785
1.0823 -4.7937 -2.4106 0.9783
1.4416 -4.7689 -2.4438 0.9780
1.8040 -4.7204 -2.4788 0.9777
2.3507 -4.6016 -2.5347 0.9772
2.5330 -4.5493 -2.5541 0.9771
2.7149 -4.4906 -2.5740 0.9769
2.8963 -4.4253 -2.5943 0.9767
3.6114 -4.0968 -2.6789 0.9760
3.7862 -3.9975 -2.7008 0.9758
3.9590 -3.8914 -2.7230 0.9756
4.1293 -3.7783 -2.7455 0.9754
4.2969 -3.6583 -2.7682 0.9752
4.6228 -3.3975 -2.8141 0.9748
4.7803 -3.2568 -2.8373 0.9746
-4.3410 -0.0238 -2.2521 0.9806
-4.1541 -0.9288 -2.2083 0.9810
-4.1078 -1.0740 -2.2027 0.9810
-4.0573 -1.2173 -2.1976 0.9811
-3.8817 -1.6353 -2.1852 0.9812
-3.8153 -1.7704 -2.1820 0.9812
-3.2454 -2.6497 -2.1735 0.9813
-3.1497 -2.7649 -2.1742 0.9813
-3.0505 -2.8773 -2.1755 0.9813
-2.9481 -2.9869 -2.1772 0.9813
-2.6211 -3.2974 -2.1852 0.9812
-2.3873 -3.4886 -2.1930 0.9811
-2.2659 -3.5792 -2.1976 0.9811
-2.1415 -3.6664 -2.2027 0.9810
-1.8841 -3.8302 -2.2144 0.9809
-1.7511 -3.9067 -2.2210 0.9809
-1.3364 -4.1132 -2.2436 0.9807
-1.1931 -4.1741 -2.2522 0.9806
-1.0473 -4.2310 -2.2612 0.9806
-0.7488 -4.3320 -2.2807 0.9804
-0.4415 -4.4155 -2.3021 0.9802
-0.2849 -4.4504 -2.3135 0.9801
0.0341 -4.5061 -2.3378 0.9799
0.3599 -4.5425 -2.3639 0.9797
0.6916 -4.5586 -2.3920 0.9794
0.8593 -4.5588 -2.4067 0.9793
1.0281 -4.5537 -2.4218 0.9792
1.1979 -4.5431 -2.4374 0.9791
1.3684 -4.5270 -2.4534 0.9789
1.7113 -4.4777 -2.4868 0.9786
1.8832 -4.4444 -2.5041 0.9785
2.2273 -4.3600 -2.5399 0.9782
2.3990 -4.3087 -2.5584 0.9780
2.7408 -4.1877 -2.5964 0.9777
3.0790 -4.0416 -2.6358 0.9774
3.2461 -3.9590 -2.6560 0.9772
3.4116 -3.8701 -2.6764 0.9770
3.7365 -3.6727 -2.7180 0.9767
3.8955 -3.5644 -2.7392 0.9765
4.0517 -3.4496 -2.7605 0.9763
4.3548 -3.2006 -2.8037 0.9759
4.5011 -3.0665 -2.8255 0.9758
-4.1251 -0.1702 -2.2613 0.9813
-4.1023 -0.3164 -2.2535 0.9814
-4.0752 -0.4614 -2.2463 0.9815
-4.0083 -0.7469 -2.2331 0.9816
-3.9686 -0.8874 -2.2273 0.9816
-3.9248 -1.0262 -2.2219 0.9817
-3.8770 -1.1632 -2.2170 0.9817
-3.8253 -1.2984 -2.2125 0.9817
-3.7696 -1.4317 -2.2085 0.9818
-3.6469 -1.6922 -2.2020 0.9818
-3.5092 -1.9443 -2.1973 0.9819
-3.3570 -2.1872 -2.1945 0.9819
-3.2757 -2.3051 -2.1938 0.9819
-3.1908 -2.4204 -2.1935 0.9819
-3.1026 -2.5331 -2.1938 0.9819
-3.0111 -2.6433 -2.1945 0.9819
-2.7170 -2.9570 -2.1994 0.9819
-2.6126 -3.0558 -2.2020 0.9818
-2.5052 -3.1516 -2.2051 0.9818
-2.3948 -3.2443 -2.2086 0.9818
-2.2814 -3.3338 -2.2126 0.9817
-1.9243 -3.5827 -2.2274 0.9816
-1.6725 -3.7313 -2.2396 0.9815
-1.5428 -3.8002 -2.2464 0.9815
-1.4105 -3.8654 -2.2536 0.9814
-1.2758 -3.9268 -2.2614 0.9813
-0.9995 -4.0378 -2.2782 0.9812
-0.8580 -4.0872 -2.2874 0.9811
-0.2716 -4.2426 -2.3285 0.9808
0.0325 -4.2937 -2.3517 0.9806
0.6583 -4.3390 -2.4036 0.9802
1.1391 -4.3203 -2.4471 0.9798
1.4631 -4.2814 -2.4781 0.9796
1.9511 -4.1820 -2.5275 0.9792
2.4373 -4.0314 -2.5802 0.9787
-3.7949 -0.8485 -2.2451 0.9822
-3.7534 -0.9813 -2.2399 0.9822
-3.7081 -1.1125 -2.2352 0.9823
-3.2122 -2.0929 -2.2135 0.9824
-3.0533 -2.3160 -2.2126 0.9825
-2.9688 -2.4239 -2.2128 0.9825
-2.8812 -2.5292 -2.2135 0.9824
-2.7904 -2.6320 -2.2146 0.9824
-2.6965 -2.7320 -2.2162 0.9824
-2.4995 -2.9236 -2.2207 0.9824
-2.3966 -3.0150 -2.2237 0.9824
-2.2908 -3.1035 -2.2271 0.9823
-1.9568 -3.3502 -2.2400 0.9822
-1.8400 -3.4259 -2.2452 0.9822
-1.5989 -3.5672 -2.2569 0.9821
-1.4747 -3.6325 -2.2635 0.9821
-1.2192 -3.7524 -2.2779 0.9819
-1.0881 -3.8067 -2.2858 0.9819
-0.6821 -3.9462 -2.3122 0.9817
0.1783 -4.1125 -2.3766 0.9812
0.4765 -4.1321 -2.4015 0.9810
0.6273 -4.1347 -2.4145 0.9809
0.7790 -4.1326 -2.4280 0.9808
0.9315 -4.1255 -2.4418 0.9807
1.3922 -4.0740 -2.4857 0.9803
1.5464 -4.0465 -2.5010 0.9802
1.8548 -3.9755 -2.5328 0.9799
2.0086 -3.9320 -2.5492 0.9798
2.1620 -3.8830 -2.5659 0.9797
2.3146 -3.8285 -2.5829 0.9795
2.7665 -3.6314 -2.6357 0.9791
2.9144 -3.5545 -2.6538 0.9790
3.3467 -3.2896 -2.7093 0.9786
3.4862 -3.1899 -2.7282 0.9784
3.8877 -2.8573 -2.7856 0.9780
