ply
format ascii 1.0
element vertex 1261
property float32 x
property float32 y
property float32 z
property float32 I
end_header
-10.9326 -19.7934 3.9871 0.9122
-9.1632 -19.8311 3.8520 0.9151
-7.5015 -19.8667 3.7444 0.9174
-5.1569 -19.9171 3.6277 0.9198
-3.6622 -19.9495 3.5764 0.9209
-1.7814 -24.0747 4.2566 0.9066
-0.9151 -24.0936 4.2514 0.9067
-0.0498 -24.1125 4.2517 0.9067
0.8167 -24.1316 4.2575 0.9066
1.6868 -24.1507 4.2688 0.9063
5.2485 -24.2296 4.3714 0.9042
17.0589 -41.1712 7.8581 0.8344
16.9255 -37.0315 7.1793 0.8476
17.1729 -34.2640 6.7580 0.8558
18.9164 -34.5850 6.9508 0.8520
21.2230 -35.6961 7.3226 0.8448
20.9898 -32.5821 6.8340 0.8543
23.0754 -30.7293 6.7760 0.8555
25.9796 -29.8678 6.9800 0.8515
27.8929 -25.8402 6.7044 0.8569
30.1591 -25.9918 7.0203 0.8507
29.8827 -23.9395 6.7515 0.8560
30.0729 -22.3683 6.6087 0.8588
32.1633 -20.5127 6.7265 0.8565
32.8939 21.5981 6.9386 0.8523
12.2828 9.3917 2.7264 0.9391
11.4333 9.4112 2.6111 0.9416
10.6518 9.4291 2.5084 0.9439
-10.0898 -19.9255 3.4215 0.9136
-7.5099 -19.8890 3.2568 0.9176
-6.7018 -19.8801 3.2139 0.9186
-5.1863 -20.0309 3.1698 0.9197
-3.5213 -24.0040 3.7166 0.9065
-2.6635 -24.1692 3.7250 0.9063
-0.9194 -24.2073 3.7111 0.9066
0.8188 -24.1924 3.7083 0.9067
1.6882 -24.1702 3.7118 0.9066
2.5621 -24.1656 3.7228 0.9063
3.4458 -24.1852 3.7424 0.9059
5.2475 -24.2250 3.7972 0.9046
8.1692 -27.8715 4.4494 0.8891
9.2521 -27.8249 4.4921 0.8881
16.9016 -40.7914 6.7642 0.8364
21.3496 -42.5973 7.2994 0.8246
23.4594 -39.4577 7.0324 0.8305
23.3768 -36.2873 6.6127 0.8397
28.2605 -34.9480 6.8853 0.8337
28.0834 -32.2864 6.5554 0.8410
32.3171 -29.9389 6.7488 0.8367
32.2627 -27.8047 6.5247 0.8417
33.8977 -15.3063 5.6978 0.8603
34.4216 -14.0783 5.6972 0.8603
33.8242 23.9892 6.3526 0.8455
12.4932 9.5525 2.4092 0.9383
12.1915 10.0353 2.4190 0.9381
-9.1894 -19.8878 2.8529 0.9154
-8.3444 -19.9060 2.8107 0.9166
-6.7005 -19.8763 2.7314 0.9189
-5.1853 -20.0273 2.6940 0.9199
-4.4286 -20.0437 2.6731 0.9205
-3.5248 -24.0279 3.1624 0.9067
-2.6630 -24.1649 3.1658 0.9066
-1.7895 -24.1839 3.1579 0.9068
-0.0499 -24.1690 3.1473 0.9071
1.6880 -24.1683 3.1549 0.9069
2.5616 -24.1613 3.1639 0.9066
3.4621 -24.2993 3.1962 0.9057
9.4769 -32.3332 4.3876 0.8729
16.8551 -45.2028 6.2823 0.8232
18.7461 -45.2430 6.3773 0.8207
32.5354 -37.4048 6.4557 0.8188
35.7356 -22.7910 5.5194 0.8428
34.2621 -14.0131 4.8204 0.8613
14.2930 -3.0278 1.9026 0.9428
14.2965 -1.9703 1.8793 0.9434
5.0870 2.8401 0.7587 0.9768
33.9139 24.0529 5.4142 0.8456
12.6732 11.2186 2.2040 0.9340
-10.9904 -19.8981 2.4410 0.9126
-9.1876 -19.8839 2.3521 0.9157
-8.3428 -19.9022 2.3173 0.9168
-7.5071 -19.8814 2.2820 0.9181
-5.1844 -20.0236 2.2211 0.9202
-4.4278 -20.0400 2.2038 0.9208
-3.6602 -19.9386 2.1768 0.9217
-1.7892 -24.1796 2.6035 0.9071
1.6877 -24.1640 2.6011 0.9071
2.5612 -24.1569 2.6085 0.9069
3.4615 -24.2949 2.6352 0.9060
39.2714 -29.2102 5.2557 0.8213
34.1739 -15.4310 4.0264 0.8600
34.2460 -14.0065 3.9731 0.8617
35.2529 -12.9619 4.0333 0.8598
14.2529 -2.4885 1.5537 0.9435
14.3590 -1.4560 1.5498 0.9436
5.0853 2.8392 0.6254 0.9768
33.8444 24.0036 4.4555 0.8463
31.6008 24.1626 4.2716 0.8521
12.6766 11.2216 1.8180 0.9342
-9.1858 -19.8801 1.8539 0.9158
-6.6980 -19.8689 1.7750 0.9193
-5.9179 -19.8859 1.7564 0.9201
-5.1530 -19.9025 1.7404 0.9208
-3.4836 -18.9762 1.6332 0.9255
-1.6732 -22.6121 1.9194 0.9130
-0.8595 -22.6299 1.9171 0.9131
3.4608 -24.2905 2.0770 0.9062
7.1127 -27.9468 2.4412 0.8907
36.8039 -31.7185 4.1129 0.8228
36.6752 -29.3810 3.9781 0.8281
37.8930 -28.1849 3.9978 0.8273
38.8657 -26.7968 3.9963 0.8274
14.2353 -3.0156 1.2318 0.9433
14.2466 -2.4874 1.2243 0.9436
14.2579 -1.9650 1.2184 0.9439
14.3266 -1.4527 1.2190 0.9438
49.1337 -1.4382 4.1611 0.8209
49.1722 0.3263 4.1627 0.8209
49.2497 3.8707 4.1820 0.8201
49.2889 5.6598 4.1999 0.8194
16.8159 7.8634 1.5715 0.9282
16.5204 8.4606 1.5712 0.9282
5.0836 2.8383 0.4929 0.9769
12.6799 11.2245 1.4335 0.9343
-10.9216 -19.7735 1.4008 0.9134
-5.9168 -19.8822 1.2863 0.9202
-5.1521 -19.8989 1.2746 0.9209
-4.4002 -19.9153 1.2647 0.9215
-0.0499 -24.1561 1.4979 0.9077
1.6871 -24.1554 1.5015 0.9075
5.2437 -24.2073 1.5359 0.9055
7.0796 -27.8165 1.7799 0.8913
38.0520 -28.3032 2.9408 0.8269
38.8481 -26.7846 2.9261 0.8277
36.0872 -21.2329 2.5964 0.8455
37.1476 -20.0980 2.6191 0.8443
33.9940 -15.3498 2.3129 0.8612
34.0851 -13.9408 2.2836 0.8628
34.9246 -12.8412 2.3074 0.8615
39.8659 -13.0540 2.6013 0.8453
14.2403 -2.4863 0.8964 0.9437
49.1122 -1.4375 3.0468 0.8213
49.2280 3.8690 3.0621 0.8205
16.7227 1.9203 1.0438 0.9348
16.7362 2.5333 1.0496 0.9344
16.7637 3.7843 1.0657 0.9334
16.3072 4.3018 1.0458 0.9346
17.1108 6.5504 1.1361 0.9292
16.8714 8.6404 1.1754 0.9268
5.0819 2.8373 0.3609 0.9769
18.5266 12.1645 1.3744 0.9150
16.9189 11.9994 1.2862 0.9202
12.3004 9.4051 0.9602 0.9398
11.4490 9.4241 0.9195 0.9423
10.6657 9.4415 0.8833 0.9445
-10.1295 -18.3394 0.8261 0.9196
-8.4904 -18.3751 0.7982 0.9222
-7.7098 -18.3921 0.7864 0.9233
-6.9510 -18.4086 0.7759 0.9243
-6.2112 -18.4248 0.7667 0.9251
-4.7785 -18.4560 0.7517 0.9265
-4.0811 -18.4713 0.7459 0.9271
-3.4672 -18.8871 0.7572 0.9260
-3.3106 -22.5680 0.8994 0.9127
2.4060 -22.6932 0.8998 0.9127
3.2359 -22.7115 0.9046 0.9123
4.9277 -22.7486 0.9178 0.9110
36.7036 -31.6320 1.9106 0.8237
36.6367 -29.3502 1.8510 0.8287
35.9512 -21.1529 1.6448 0.8462
37.1652 -18.4150 1.6355 0.8470
34.1250 -15.4089 1.4764 0.8608
35.1952 -12.9407 1.4786 0.8606
39.8345 -13.0437 1.6528 0.8455
14.2226 -3.0129 0.5733 0.9435
14.2340 -2.4852 0.5698 0.9438
14.2453 -1.9633 0.5670 0.9441
16.6499 -1.0864 0.6579 0.9354
16.6629 -0.4877 0.6573 0.9354
49.1291 0.3260 1.9373 0.8215
49.1676 2.0925 1.9405 0.8212
16.7562 3.7826 0.6773 0.9335
16.3472 4.9462 0.6734 0.9339
17.0542 5.8361 0.7108 0.9304
16.8145 6.4370 0.7099 0.9305
16.8301 7.1457 0.7210 0.9294
16.8463 7.8776 0.7333 0.9283
5.0803 2.8364 0.2294 0.9770
16.3576 9.9190 0.7543 0.9263
11.4521 9.4266 0.5849 0.9424
10.6685 9.4440 0.5618 0.9446
-6.2100 -18.4214 0.3284 0.9252
-4.7776 -18.4527 0.3220 0.9266
-4.0804 -18.4680 0.3195 0.9271
-3.4767 -18.9387 0.3253 0.9259
-2.4886 -22.5820 0.3838 0.9131
-1.6723 -22.5999 0.3828 0.9133
-0.8591 -22.6177 0.3823 0.9134
-0.0467 -22.6355 0.3824 0.9134
1.5834 -22.6712 0.3839 0.9131
2.4055 -22.6892 0.3854 0.9128
3.2353 -22.7074 0.3874 0.9123
7.0770 -27.8063 0.4847 0.8916
36.6176 -29.3349 0.7925 0.8289
35.7863 -22.8233 0.7170 0.8438
37.1111 -20.0783 0.7127 0.8447
34.1814 -13.9801 0.6238 0.8627
39.8104 -13.0358 0.7076 0.8457
16.3041 -4.6979 0.2866 0.9344
14.2390 -1.9624 0.2428 0.9441
14.2503 -1.4450 0.2420 0.9443
16.6150 -1.0842 0.2813 0.9356
16.6280 -0.4867 0.2810 0.9356
16.6817 0.7100 0.2820 0.9354
16.7208 3.7746 0.2896 0.9337
16.7787 6.4233 0.3035 0.9306
16.8102 7.8607 0.3135 0.9284
16.8267 8.6175 0.3193 0.9272
5.0786 2.8355 0.0983 0.9770
16.3495 10.7350 0.3304 0.9247
12.3073 9.4104 0.2617 0.9399
10.6713 9.4464 0.2407 0.9446
-10.1271 -18.3351 -0.1179 0.9196
-8.4872 -18.3680 -0.1139 0.9223
-7.7069 -18.3851 -0.1122 0.9234
-6.9484 -18.4018 -0.1107 0.9243
-6.2089 -18.4180 -0.1094 0.9252
-1.6776 -22.6716 -0.1280 0.9131
-0.8590 -22.6148 -0.1274 0.9135
7.1075 -27.9264 -0.1622 0.8911
36.7052 -29.4051 -0.2648 0.8285
38.0178 -28.2777 -0.2668 0.8273
38.7845 -26.7409 -0.2652 0.8282
20.7612 -8.4913 -0.1263 0.9142
21.7144 -7.9840 -0.1303 0.9116
14.2100 -3.0102 -0.0818 0.9436
14.2214 -2.4830 -0.0813 0.9439
14.2440 -1.4444 -0.0806 0.9443
16.6353 -1.0855 -0.0939 0.9355
16.6483 -0.4873 -0.0938 0.9355
16.6614 0.1106 -0.0938 0.9355
16.7007 1.9177 -0.0946 0.9350
16.7140 2.5300 -0.0952 0.9346
16.7275 3.1499 -0.0958 0.9342
16.7550 4.4199 -0.0976 0.9330
16.8140 7.1388 -0.1028 0.9295
16.8299 7.8700 -0.1046 0.9284
5.0769 2.8346 -0.0327 0.9770
16.8813 10.2366 -0.1112 0.9241
16.9195 11.9999 -0.1168 0.9204
12.3108 9.4131 -0.0872 0.9399
10.6741 9.4489 -0.0803 0.9446
-10.1247 -18.3307 -0.5897 0.9196
-8.4855 -18.3645 -0.5696 0.9222
-7.7054 -18.3817 -0.5612 0.9233
-6.2077 -18.4146 -0.5472 0.9252
-5.4858 -18.4338 -0.5416 0.9259
-4.7759 -18.4460 -0.5365 0.9266
-4.0789 -18.4613 -0.5324 0.9271
-3.3089 -22.5560 -0.6419 0.9128
-2.4877 -22.5740 -0.6395 0.9131
-1.6773 -22.6676 -0.6400 0.9131
-0.8588 -22.6102 -0.6371 0.9134
-0.0467 -22.6275 -0.6371 0.9134
0.7664 -22.6453 -0.6380 0.9133
4.0746 -22.7241 -0.6501 0.9118
7.1062 -27.9213 -0.8113 0.8911
8.1540 -27.8198 -0.8163 0.8905
36.6860 -29.3897 -1.3236 0.8285
35.8681 -22.8755 -1.1979 0.8435
37.1980 -18.4313 -1.1689 0.8469
20.7515 -8.4873 -0.6313 0.9142
20.7701 -7.6368 -0.6231 0.9153
16.5476 -4.7681 -0.4849 0.9334
14.2152 -2.4819 -0.4063 0.9439
16.6281 -1.0850 -0.4692 0.9355
16.6411 -0.4871 -0.4688 0.9356
16.6671 0.7094 -0.4697 0.9354
16.6933 1.9169 -0.4731 0.9350
16.7066 2.5288 -0.4758 0.9346
16.7475 4.4179 -0.4877 0.9330
16.7616 5.0716 -0.4931 0.9323
16.7908 6.4279 -0.5063 0.9306
16.8380 8.6233 -0.5327 0.9271
5.0753 2.8336 -0.1637 0.9770
16.8910 11.0906 -0.5690 0.9223
16.9103 11.9934 -0.5838 0.9204
16.9307 12.9456 -0.6001 0.9183
-9.2886 -18.3432 -1.0427 0.9210
-8.4839 -18.3610 -1.0258 0.9222
-6.9458 -18.3949 -0.9972 0.9243
-6.2066 -18.4112 -0.9853 0.9251
-5.4875 -18.4394 -0.9757 0.9258
-4.7751 -18.4427 -0.9662 0.9265
-3.5054 -19.0953 -0.9846 0.9252
-3.3083 -22.5520 -1.1559 0.9128
-1.6770 -22.6637 -1.1525 0.9130
-0.0467 -22.6235 -1.1473 0.9134
0.7663 -22.6413 -1.1489 0.9133
4.0758 -22.7308 -1.1712 0.9117
4.9242 -22.7322 -1.1796 0.9111
8.1525 -27.8146 -1.4699 0.8904
36.5603 -29.2890 -2.3757 0.8289
37.1628 -18.4138 -2.1034 0.8470
34.0604 -15.3798 -1.8953 0.8610
16.5402 -4.7660 -0.8729 0.9334
16.5541 -4.1327 -0.8653 0.9339
14.1974 -3.0075 -0.7360 0.9435
14.2089 -2.4808 -0.7315 0.9439
14.2203 -1.9598 -0.7280 0.9441
16.6468 0.1105 -0.8442 0.9355
16.6598 0.7090 -0.8457 0.9354
16.6860 1.9161 -0.8518 0.9349
16.7980 7.1320 -0.9255 0.9295
16.8297 8.6190 -0.9589 0.9271
5.0736 2.8327 -0.2947 0.9770
14.4882 8.7855 -0.8593 0.9344
12.4493 8.8295 -0.7740 0.9407
11.8623 9.0702 -0.7573 0.9419
16.1323 13.2791 -1.0597 0.9197
-10.1198 -18.3219 -1.5347 0.9195
-5.4891 -18.4450 -1.4110 0.9257
-4.7742 -18.4394 -1.3966 0.9265
-3.5152 -19.1482 -1.4275 0.9249
-3.3077 -22.5480 -1.6710 0.9127
-2.4868 -22.5661 -1.6646 0.9130
-0.0467 -22.6196 -1.6585 0.9133
0.7662 -22.6373 -1.6608 0.9132
1.5823 -22.6552 -1.6652 0.9129
4.9233 -22.7281 -1.7051 0.9109
7.0718 -27.7860 -2.1023 0.8914
9.2550 -27.8335 -2.1507 0.8890
14.4945 -34.9819 -2.7764 0.8591
17.3178 -37.8898 -3.0546 0.8461
20.3348 -37.1781 -3.1071 0.8437
21.8150 -36.6920 -3.1299 0.8426
23.2766 -36.1318 -3.1514 0.8417
24.7134 -35.4958 -3.1713 0.8407
26.1168 -34.7796 -3.1891 0.8399
28.7917 -33.1007 -3.2167 0.8387
30.6975 -30.5575 -3.1759 0.8405
32.2923 -25.8697 -3.0338 0.8471
33.5386 -24.9461 -3.0648 0.8457
34.7419 -23.9535 -3.0941 0.8443
35.7130 -22.7766 -3.1058 0.8438
35.8642 -21.1017 -3.0511 0.8463
36.1045 -17.8895 -2.9544 0.8508
34.0439 -15.3723 -2.7389 0.8609
20.9733 -8.5780 -1.6615 0.9131
16.5327 -4.7638 -1.2615 0.9333
16.5467 -4.1309 -1.2505 0.9339
14.2026 -2.4797 -1.0571 0.9438
14.2140 -1.9589 -1.0521 0.9441
14.2254 -1.4425 -1.0484 0.9443
16.6266 -0.4866 -1.2196 0.9355
16.6396 0.1104 -1.2201 0.9354
16.6525 0.7087 -1.2221 0.9353
16.6655 1.3098 -1.2257 0.9352
16.6786 1.9152 -1.2309 0.9349
16.6918 2.5266 -1.2378 0.9345
16.7051 3.1456 -1.2464 0.9341
16.7604 5.7355 -1.2989 0.9314
14.4930 8.7884 -1.2428 0.9343
12.4529 8.8321 -1.1194 0.9406
11.5755 8.8509 -1.0684 0.9432
10.7749 8.8693 -1.0233 0.9456
10.0371 8.8851 -0.9829 0.9477
-10.1174 -18.3175 -2.0090 0.9193
-8.4806 -18.3539 -1.9411 0.9220
-6.9432 -18.3880 -1.8870 0.9241
-6.2062 -18.4099 -1.8652 0.9249
-5.4892 -18.4453 -1.8476 0.9256
-4.0768 -18.4514 -1.8141 0.9269
-3.3071 -22.5440 -2.1875 0.9125
-0.0467 -22.6155 -2.1712 0.9131
0.7660 -22.6333 -2.1742 0.9130
2.4034 -22.6691 -2.1885 0.9125
4.0724 -22.7120 -2.2152 0.9114
4.9224 -22.7239 -2.2322 0.9108
5.9324 -23.3093 -2.3092 0.9079
8.0049 -24.0737 -2.4356 0.9031
8.9156 -23.9101 -2.4499 0.9025
11.5786 -25.3330 -2.6741 0.8941
12.5686 -25.0773 -2.6930 0.8934
13.5515 -24.7762 -2.7112 0.8927
14.5230 -24.4270 -2.7283 0.8921
16.4280 -23.5955 -2.7602 0.8909
17.3544 -23.1106 -2.7747 0.8904
19.1404 -22.0052 -2.8000 0.8894
19.9948 -21.3861 -2.8108 0.8890
20.8220 -20.7270 -2.8206 0.8886
23.8068 -17.7075 -2.8485 0.8876
23.4438 -16.1637 -2.7338 0.8919
23.3204 -14.8730 -2.6555 0.8948
24.4804 -13.2446 -2.6722 0.8942
20.8753 -8.5379 -2.1653 0.9134
27.2165 -8.9120 -2.7494 0.8913
16.5252 -4.7617 -1.6510 0.9332
14.1847 -3.0048 -1.3920 0.9434
14.1963 -2.4786 -1.3835 0.9437
14.2078 -1.9581 -1.3769 0.9440
14.2191 -1.4419 -1.3721 0.9442
16.6063 -1.0836 -1.5977 0.9353
16.6193 -0.4864 -1.5962 0.9354
16.6323 0.1104 -1.5968 0.9353
16.6452 0.7084 -1.5995 0.9352
16.6582 1.3092 -1.6042 0.9351
16.6844 2.5255 -1.6200 0.9344
16.7110 3.7724 -1.6447 0.9335
16.7246 4.4119 -1.6606 0.9329
16.7385 5.0647 -1.6789 0.9321
16.7526 5.7328 -1.6999 0.9313
16.7670 6.4188 -1.7236 0.9304
16.7972 7.8546 -1.7802 0.9282
16.8130 8.6104 -1.8135 0.9269
12.4566 8.8347 -1.4661 0.9405
11.5788 8.8535 -1.3993 0.9431
10.0397 8.8875 -1.2873 0.9475
-9.2831 -18.3324 -2.4409 0.9206
-7.6996 -18.3677 -2.3658 0.9229
-6.9419 -18.3846 -2.3343 0.9239
-6.2054 -18.4075 -2.3075 0.9247
-5.4842 -18.4287 -2.2840 0.9255
-4.7724 -18.4326 -2.2617 0.9262
-4.0760 -18.4480 -2.2442 0.9267
-3.5349 -19.2556 -2.3255 0.9242
-2.9609 -20.1847 -2.4233 0.9211
-0.7639 -20.1092 -2.3904 0.9221
0.6733 -19.8921 -2.3643 0.9230
1.3783 -19.7358 -2.3501 0.9234
3.4855 -19.4383 -2.3458 0.9235
4.1920 -19.3521 -2.3521 0.9233
6.7466 -20.2895 -2.5399 0.9175
7.5027 -20.1210 -2.5508 0.9171
8.2552 -19.9236 -2.5618 0.9168
9.0041 -19.7002 -2.5729 0.9164
9.7469 -19.4471 -2.5840 0.9161
10.4838 -19.1675 -2.5952 0.9158
11.2111 -18.8566 -2.6059 0.9154
11.9278 -18.5153 -2.6162 0.9151
12.6332 -18.1451 -2.6263 0.9148
13.3256 -17.7455 -2.6361 0.9145
14.0031 -17.3166 -2.6454 0.9142
14.6642 -16.8589 -2.6542 0.9139
15.3074 -16.3726 -2.6624 0.9137
17.6719 -14.1572 -2.6897 0.9128
18.2042 -13.5403 -2.6950 0.9127
18.7104 -12.9003 -2.6996 0.9125
18.7483 -10.1434 -2.5321 0.9177
19.8214 -8.1069 -2.5438 0.9174
20.1930 -7.4246 -2.5556 0.9170
16.5318 -4.1272 -2.0240 0.9337
14.1784 -3.0035 -1.7216 0.9433
16.5990 -1.0831 -1.9759 0.9352
16.6120 -0.4862 -1.9741 0.9352
16.6250 0.1104 -1.9749 0.9352
16.6379 0.7081 -1.9781 0.9351
16.6509 1.3086 -1.9840 0.9349
16.6639 1.9135 -1.9924 0.9347
16.6769 2.5243 -2.0036 0.9343
16.7447 5.7301 -2.1023 0.9312
16.7591 6.4158 -2.1316 0.9303
16.7738 7.1217 -2.1646 0.9292
16.7890 7.8508 -2.2016 0.9281
16.8046 8.6061 -2.2427 0.9268
10.7807 8.8741 -1.6586 0.9453
-7.6025 -15.0135 -2.3844 0.9343
-7.0411 -15.2385 -2.3785 0.9344
-6.4736 -15.4431 -2.3726 0.9346
-5.9015 -15.6293 -2.3671 0.9347
-4.7368 -15.9171 -2.3530 0.9351
-3.5602 -16.1137 -2.3382 0.9355
-2.9687 -16.1721 -2.3297 0.9357
-2.3837 -16.2491 -2.3270 0.9358
-0.6225 -16.3911 -2.3241 0.9359
-0.0339 -16.4061 -2.3246 0.9359
0.5552 -16.4046 -2.3257 0.9358
1.7555 -16.5582 -2.3593 0.9349
2.4273 -17.0362 -2.4382 0.9328
3.1035 -17.3079 -2.4915 0.9314
3.7308 -17.2230 -2.4969 0.9313
4.3566 -17.1176 -2.5027 0.9311
5.6018 -16.8467 -2.5155 0.9308
6.8334 -16.4920 -2.5294 0.9304
9.2298 -15.5241 -2.5590 0.9296
9.8075 -15.2239 -2.5659 0.9295
10.9303 -14.5558 -2.5791 0.9291
11.4759 -14.1914 -2.5859 0.9289
12.0078 -13.8049 -2.5924 0.9287
12.5251 -13.3967 -2.5986 0.9286
14.8580 -11.0514 -2.6237 0.9279
15.6559 -9.9848 -2.6310 0.9277
16.0225 -9.4273 -2.6340 0.9276
16.3671 -8.8551 -2.6367 0.9276
16.5417 -8.1962 -2.6157 0.9281
16.6204 -5.4423 -2.4780 0.9318
16.5101 -4.7573 -2.4345 0.9329
16.5243 -4.1253 -2.4132 0.9335
14.1720 -3.0021 -2.0526 0.9432
14.1952 -1.9563 -2.0303 0.9438
16.5916 -1.0826 -2.3559 0.9350
16.6047 -0.4860 -2.3537 0.9351
16.6695 2.5232 -2.3888 0.9342
16.6826 3.1414 -2.4053 0.9337
16.7093 4.4078 -2.4485 0.9326
16.7368 5.7275 -2.5064 0.9310
16.7511 6.4127 -2.5414 0.9301
16.5762 7.0378 -2.5516 0.9298
16.3192 7.6311 -2.5526 0.9298
5.0669 2.8290 -0.8223 0.9768
13.4323 8.8197 -2.2768 0.9371
12.4641 8.8400 -2.1651 0.9401
11.5854 8.8585 -2.0664 0.9428
10.0450 8.8921 -1.9008 0.9472
-6.9401 -12.5650 -2.3647 0.9435
-2.5550 -13.9182 -2.3312 0.9442
-1.0874 -14.6961 -2.4276 0.9420
-0.0311 -15.0458 -2.4786 0.9408
0.5092 -15.0447 -2.4799 0.9408
1.5898 -14.9949 -2.4841 0.9407
2.6679 -14.8784 -2.4901 0.9406
3.7384 -14.6888 -2.4970 0.9404
4.2707 -14.5701 -2.5013 0.9403
5.3256 -14.2822 -2.5111 0.9401
5.8085 -14.0186 -2.4998 0.9403
6.3590 -13.9128 -2.5200 0.9399
7.8651 -13.2288 -2.5354 0.9395
8.3513 -12.9635 -2.5404 0.9394
8.8277 -12.6791 -2.5451 0.9393
9.2946 -12.3775 -2.5500 0.9392
11.0522 -11.0018 -2.5690 0.9387
11.4587 -10.6154 -2.5732 0.9386
11.8506 -10.2130 -2.5772 0.9385
12.9314 -8.9158 -2.5876 0.9383
13.2581 -8.4555 -2.5905 0.9382
13.5668 -7.9824 -2.5931 0.9382
14.1287 -7.0006 -2.5976 0.9381
13.6830 -5.5963 -2.4354 0.9418
14.0760 -4.6091 -2.4400 0.9417
14.3915 -3.5928 -2.4436 0.9416
14.1656 -3.0008 -2.3854 0.9430
14.1773 -2.4753 -2.3709 0.9433
14.1888 -1.9555 -2.3596 0.9436
14.2002 -1.4399 -2.3513 0.9438
15.0584 0.0999 -2.4808 0.9408
15.0633 1.1839 -2.4892 0.9406
14.9633 2.2650 -2.4931 0.9405
14.8908 2.8040 -2.4962 0.9404
14.7954 3.3400 -2.4987 0.9404
14.6553 3.8660 -2.4969 0.9404
14.5203 4.3935 -2.4992 0.9404
14.3641 4.9155 -2.5011 0.9403
14.1716 5.4253 -2.4999 0.9403
13.5004 6.9140 -2.4987 0.9404
5.0653 2.8280 -0.9557 0.9768
12.9728 7.8665 -2.4993 0.9403
10.0477 8.8945 -2.2106 0.9471
-6.4666 -11.7078 -2.5140 0.9470
-5.1491 -12.2834 -2.5034 0.9472
-3.7837 -12.7141 -2.4933 0.9474
-3.3210 -12.8266 -2.4904 0.9475
-2.8557 -12.9251 -2.4880 0.9476
-1.9185 -13.0785 -2.4846 0.9476
-1.4471 -13.1318 -2.4832 0.9476
-0.9750 -13.1765 -2.4834 0.9476
-0.5014 -13.2008 -2.4830 0.9477
-0.0273 -13.2106 -2.4831 0.9477
0.9211 -13.1882 -2.4849 0.9476
1.3945 -13.1524 -2.4860 0.9476
1.8672 -13.1049 -2.4881 0.9475
2.3393 -13.0462 -2.4913 0.9475
2.8083 -12.9643 -2.4933 0.9474
3.7403 -12.7610 -2.4995 0.9473
4.2004 -12.6321 -2.5022 0.9473
4.6560 -12.4865 -2.5048 0.9472
5.5533 -12.1501 -2.5110 0.9471
5.9954 -11.9622 -2.5150 0.9470
6.8612 -11.5401 -2.5235 0.9468
7.6965 -11.0544 -2.5318 0.9467
8.4933 -10.5030 -2.5389 0.9465
9.2483 -9.8919 -2.5453 0.9464
9.6095 -9.5656 -2.5485 0.9463
9.9587 -9.2258 -2.5517 0.9462
10.6192 -8.5072 -2.5575 0.9461
11.2260 -7.7400 -2.5630 0.9460
12.0248 -6.5058 -2.5698 0.9459
12.4779 -5.6343 -2.5734 0.9458
12.4852 -3.1169 -2.4188 0.9490
12.9268 -0.8435 -2.4349 0.9486
13.0088 0.5537 -2.4474 0.9484
12.9604 1.4883 -2.4520 0.9483
12.6607 3.3398 -2.4611 0.9481
11.8839 5.5571 -2.4659 0.9480
10.4064 7.9570 -2.4623 0.9481
-5.3613 -10.5877 -2.5086 0.9526
-4.1791 -11.0677 -2.5007 0.9528
-3.7745 -11.1968 -2.4977 0.9528
-3.3683 -11.3186 -2.4962 0.9529
-2.1263 -11.5826 -2.4893 0.9530
2.0798 -11.5991 -2.4909 0.9530
2.9111 -11.4379 -2.4948 0.9529
3.7329 -11.2261 -2.5007 0.9528
4.5354 -10.9460 -2.5045 0.9527
5.7071 -10.4342 -2.5139 0.9525
6.0836 -10.2323 -2.5163 0.9525
6.4529 -10.0166 -2.5186 0.9525
6.8152 -9.7886 -2.5212 0.9524
7.1692 -9.5472 -2.5237 0.9524
7.5157 -9.2942 -2.5266 0.9523
8.1826 -8.7520 -2.5326 0.9522
8.5010 -8.4622 -2.5355 0.9521
8.8086 -8.1604 -2.5382 0.9521
9.1050 -7.8469 -2.5407 0.9520
9.3898 -7.5223 -2.5432 0.9520
10.1696 -6.4858 -2.5496 0.9519
11.0209 -4.9764 -2.5561 0.9518
11.1977 -4.5798 -2.5573 0.9517
11.0277 -3.6110 -2.4528 0.9537
11.0240 -2.7521 -2.4018 0.9546
11.1224 -2.3561 -2.4032 0.9546
11.2050 -1.9563 -2.4043 0.9546
11.2723 -1.5535 -2.4053 0.9545
11.3248 -1.1483 -2.4061 0.9545
11.4152 -0.3341 -2.4140 0.9544
11.4372 0.0759 -2.4176 0.9543
11.4434 0.4871 -2.4211 0.9543
11.4336 0.8986 -2.4243 0.9542
11.2347 2.5362 -2.4346 0.9540
11.1468 2.9405 -2.4368 0.9540
10.7794 4.1266 -2.4398 0.9539
10.4586 4.8906 -2.4405 0.9539
10.2789 5.2642 -2.4411 0.9539
5.0619 2.8261 -1.2254 0.9766
9.8833 5.9931 -2.4432 0.9538
9.6507 6.3367 -2.4404 0.9539
9.1771 7.0171 -2.4420 0.9539
-5.1605 -9.3431 -2.5085 0.9571
-4.8191 -9.5168 -2.5071 0.9571
-4.4695 -9.6730 -2.5043 0.9572
-3.7596 -9.9569 -2.5014 0.9572
-3.3961 -10.0742 -2.4986 0.9573
-2.6625 -10.2833 -2.4965 0.9573
-2.2895 -10.3626 -2.4942 0.9573
-1.9145 -10.4291 -2.4920 0.9574
-1.5379 -10.4838 -2.4903 0.9574
-0.7816 -10.5629 -2.4893 0.9574
-0.0219 -10.5901 -2.4889 0.9574
0.3585 -10.5916 -2.4907 0.9574
1.1174 -10.5389 -2.4908 0.9574
2.2458 -10.3673 -2.4931 0.9573
2.6184 -10.2880 -2.4950 0.9573
3.3528 -10.0831 -2.4973 0.9573
3.7163 -9.9665 -2.4999 0.9572
4.4311 -9.6948 -2.5052 0.9571
4.7813 -9.5397 -2.5079 0.9571
5.1253 -9.3706 -2.5102 0.9571
5.4621 -9.1869 -2.5119 0.9570
5.7922 -8.9911 -2.5136 0.9570
6.4349 -8.5693 -2.5186 0.9569
6.7451 -8.3412 -2.5211 0.9569
7.0469 -8.1015 -2.5235 0.9568
7.3399 -7.8507 -2.5259 0.9568
7.6237 -7.5888 -2.5281 0.9568
7.8977 -7.3165 -2.5303 0.9567
8.0882 -6.9705 -2.5094 0.9571
8.4154 -6.7416 -2.5342 0.9567
8.6580 -6.4398 -2.5360 0.9566
8.8895 -6.1290 -2.5377 0.9566
9.1093 -5.8096 -2.5392 0.9566
9.3173 -5.4820 -2.5407 0.9566
9.5130 -5.1468 -2.5420 0.9565
9.6961 -4.8043 -2.5432 0.9565
10.0237 -4.0996 -2.5452 0.9565
10.1676 -3.7384 -2.5460 0.9565
10.2982 -3.3721 -2.5468 0.9565
9.9740 -2.8740 -2.4395 0.9582
10.0271 -1.7507 -2.3922 0.9590
10.0874 -1.3902 -2.3932 0.9590
10.1341 -1.0276 -2.3939 0.9590
10.1671 -0.6634 -2.3946 0.9590
10.1897 -0.2983 -2.3958 0.9590
10.2129 0.4347 -2.4024 0.9589
10.2035 0.8019 -2.4055 0.9588
10.1426 1.5353 -2.4109 0.9587
10.0851 1.8991 -2.4119 0.9587
10.0202 2.2620 -2.4142 0.9587
9.9414 2.6225 -2.4164 0.9586
9.8489 2.9800 -2.4183 0.9586
9.7427 3.3340 -2.4201 0.9586
9.4834 4.0264 -2.4214 0.9585
9.3383 4.3667 -2.4228 0.9585
9.1802 4.7014 -2.4240 0.9585
8.8172 5.3466 -2.4235 0.9585
8.4170 5.9696 -2.4252 0.9585
7.9603 6.5524 -2.4231 0.9585
7.7219 6.8356 -2.4237 0.9585
-4.0566 -8.7794 -2.5041 0.9608
-3.7393 -8.9204 -2.5044 0.9608
-3.0836 -9.1474 -2.4994 0.9609
-2.0803 -9.4155 -2.4967 0.9609
-1.0539 -9.5638 -2.4912 0.9610
-0.7100 -9.5947 -2.4910 0.9610
-0.3652 -9.6144 -2.4912 0.9610
-0.0199 -9.6179 -2.4903 0.9610
0.6705 -9.6007 -2.4919 0.9610
1.3586 -9.5358 -2.4939 0.9610
4.3328 -8.6449 -2.5037 0.9608
4.6443 -8.4912 -2.5059 0.9608
4.9503 -8.3261 -2.5080 0.9608
5.8316 -7.7659 -2.5145 0.9607
6.1116 -7.5578 -2.5166 0.9606
6.9041 -6.8726 -2.5223 0.9605
8.6070 -4.6566 -2.5338 0.9604
9.1972 -3.3817 -2.5372 0.9603
9.4202 -2.7144 -2.5383 0.9603
9.0669 -1.5830 -2.3831 0.9627
9.1218 -1.2571 -2.3841 0.9627
9.1646 -0.9293 -2.3850 0.9627
9.2123 -0.2696 -2.3862 0.9626
9.2055 0.7235 -2.3908 0.9626
9.1836 1.0546 -2.3934 0.9625
8.9708 2.3665 -2.4022 0.9624
8.8828 2.6877 -2.4029 0.9624
8.7872 3.0070 -2.4047 0.9624
8.6794 3.3227 -2.4063 0.9623
8.5597 3.6342 -2.4077 0.9623
8.4282 3.9412 -2.4090 0.9623
8.2789 4.2399 -2.4083 0.9623
5.0017 3.0330 -1.5145 0.9761
7.7852 5.1118 -2.4114 0.9622
7.5972 5.3882 -2.4116 0.9622
7.3951 5.6545 -2.4103 0.9623
6.9740 6.1736 -2.4115 0.9622
-3.9972 -7.8937 -2.5048 0.9639
-3.4198 -8.1580 -2.5042 0.9639
-3.1224 -8.2693 -2.5023 0.9639
-2.8211 -8.3684 -2.5000 0.9640
-1.9038 -8.6166 -2.4981 0.9640
-0.6496 -8.7789 -2.4921 0.9641
-0.3341 -8.7975 -2.4923 0.9641
-0.0182 -8.8053 -2.4927 0.9641
0.9285 -8.7570 -2.4929 0.9641
1.8671 -8.6192 -2.4966 0.9640
2.4807 -8.4637 -2.4968 0.9640
2.7833 -8.3706 -2.4972 0.9640
3.0826 -8.2670 -2.4977 0.9640
3.9618 -7.9046 -2.5031 0.9639
4.2447 -7.7606 -2.5041 0.9639
5.0627 -7.2715 -2.5083 0.9638
5.8271 -6.6992 -2.5136 0.9638
6.0677 -6.4900 -2.5152 0.9637
6.5258 -6.0455 -2.5183 0.9637
6.7426 -5.8109 -2.5198 0.9637
7.3399 -5.0606 -2.5239 0.9636
7.5203 -4.7962 -2.5251 0.9636
7.6910 -4.5252 -2.5262 0.9636
7.8515 -4.2479 -2.5272 0.9636
8.0018 -3.9648 -2.5281 0.9636
8.1416 -3.6763 -2.5289 0.9635
8.3890 -3.0845 -2.5303 0.9635
8.4964 -2.7821 -2.5309 0.9635
8.5925 -2.4759 -2.5315 0.9635
8.3185 -1.1464 -2.3772 0.9657
8.3567 -0.8474 -2.3778 0.9657
8.4012 -0.2459 -2.3793 0.9657
8.4006 0.3575 -2.3803 0.9656
8.3608 0.9601 -2.3824 0.9656
8.3287 1.2607 -2.3846 0.9656
8.2837 1.5599 -2.3863 0.9656
8.1641 2.1537 -2.3903 0.9655
8.0875 2.4471 -2.3920 0.9655
7.9998 2.7376 -2.3936 0.9655
7.7879 3.3066 -2.3952 0.9654
5.2254 2.6761 -1.6620 0.9759
4.9950 2.7888 -1.6195 0.9765
4.9160 2.9810 -1.6275 0.9764
6.9138 4.9035 -2.3995 0.9654
6.7355 5.1501 -2.4003 0.9654
6.5480 5.3900 -2.4009 0.9654
6.3517 5.6226 -2.4014 0.9653
-3.9392 -7.1320 -2.5060 0.9665
-3.4145 -7.3896 -2.5038 0.9665
-2.8743 -7.6122 -2.5027 0.9665
-2.5970 -7.7039 -2.5006 0.9665
-2.3169 -7.7857 -2.4985 0.9666
-2.0356 -7.8620 -2.4979 0.9666
-0.8886 -8.0640 -2.4953 0.9666
1.1437 -8.0271 -2.4939 0.9666
1.4317 -7.9846 -2.4950 0.9666
2.0029 -7.8697 -2.4977 0.9666
2.5638 -7.7102 -2.4992 0.9666
3.1108 -7.5079 -2.4997 0.9666
3.3789 -7.3928 -2.5001 0.9666
3.6433 -7.2692 -2.5010 0.9665
3.9043 -7.1382 -2.5025 0.9665
4.1605 -6.9978 -2.5041 0.9665
4.6574 -6.6893 -2.5071 0.9665
4.8969 -6.5211 -2.5083 0.9664
5.1296 -6.3434 -2.5092 0.9664
5.3559 -6.1574 -2.5101 0.9664
5.5763 -5.9642 -2.5114 0.9664
5.7900 -5.7636 -2.5128 0.9664
5.9830 -5.5427 -2.5086 0.9664
6.3861 -5.1160 -2.5168 0.9663
6.7429 -4.6490 -2.5192 0.9663
7.0649 -4.1568 -2.5212 0.9663
7.2122 -3.9020 -2.5222 0.9663
7.3502 -3.6419 -2.5230 0.9663
7.5971 -3.1071 -2.5246 0.9662
7.7056 -2.8332 -2.5252 0.9662
7.8042 -2.5554 -2.5258 0.9662
7.8924 -2.2741 -2.5263 0.9662
7.5981 -1.3266 -2.3724 0.9682
7.6393 -1.0528 -2.3719 0.9682
7.6748 -0.7782 -2.3727 0.9682
7.7151 -0.2258 -2.3740 0.9682
7.7196 0.0513 -2.3744 0.9682
7.6366 1.1560 -2.3756 0.9682
7.5462 1.7035 -2.3795 0.9681
7.4857 1.9747 -2.3812 0.9681
7.1419 3.0323 -2.3865 0.9681
7.0321 3.2884 -2.3877 0.9680
5.1828 2.6543 -1.7910 0.9759
4.8799 2.9591 -1.7553 0.9764
6.4962 4.2654 -2.3903 0.9680
6.3411 4.4973 -2.3911 0.9680
6.1774 4.7234 -2.3918 0.9680
6.0054 4.9433 -2.3924 0.9680
5.8227 5.1544 -2.3918 0.9680
-3.6437 -6.5969 -2.5051 0.9687
-3.4023 -6.7189 -2.5034 0.9688
-2.9121 -6.9470 -2.5039 0.9687
-2.6600 -7.0446 -2.5030 0.9688
-2.4036 -7.1299 -2.5011 0.9688
-1.6215 -7.3392 -2.4984 0.9688
-1.3573 -7.3939 -2.4988 0.9688
-1.0911 -7.4378 -2.4988 0.9688
-0.2848 -7.4993 -2.4946 0.9689
0.2538 -7.4995 -2.4943 0.9689
0.7913 -7.4634 -2.4948 0.9689
1.0584 -7.4285 -2.4942 0.9689
1.3246 -7.3872 -2.4947 0.9689
1.5895 -7.3380 -2.4958 0.9688
1.8527 -7.2793 -2.4968 0.9688
2.1137 -7.2116 -2.4980 0.9688
2.3724 -7.1346 -2.4993 0.9688
2.6282 -7.0483 -2.5005 0.9688
2.8806 -6.9522 -2.5015 0.9688
3.3725 -6.7288 -2.5019 0.9688
4.0786 -6.3311 -2.5034 0.9688
4.3056 -6.1841 -2.5048 0.9687
4.5271 -6.0287 -2.5061 0.9687
4.7431 -5.8654 -2.5074 0.9687
4.9530 -5.6943 -2.5086 0.9687
5.5441 -5.1361 -2.5122 0.9686
5.7273 -4.9359 -2.5132 0.9686
6.2318 -4.2966 -2.5161 0.9686
6.3841 -4.0716 -2.5170 0.9686
6.6641 -3.6055 -2.5186 0.9686
6.9096 -3.1200 -2.5201 0.9685
7.0189 -2.8707 -2.5207 0.9685
7.1190 -2.6175 -2.5213 0.9685
7.2097 -2.3608 -2.5218 0.9685
7.2911 -2.1009 -2.5222 0.9685
7.3629 -1.8381 -2.5226 0.9685
7.4773 -1.3055 -2.5231 0.9685
7.1253 -0.2085 -2.3695 0.9704
7.0873 0.8138 -2.3713 0.9704
7.0114 1.3203 -2.3716 0.9704
6.7640 2.3147 -2.3764 0.9703
6.6804 2.5575 -2.3778 0.9703
6.5878 2.7970 -2.3790 0.9703
6.4863 3.0331 -2.3802 0.9703
5.9930 3.9350 -2.3831 0.9702
5.6986 4.3573 -2.3845 0.9702
5.5398 4.5600 -2.3851 0.9702
-2.9365 -6.3553 -2.5036 0.9707
-2.4728 -6.5488 -2.5033 0.9707
-1.7511 -6.7633 -2.4984 0.9708
-0.2649 -6.9751 -2.4962 0.9708
0.4862 -6.9602 -2.4951 0.9708
0.9845 -6.9098 -2.4960 0.9708
1.4773 -6.8199 -2.4954 0.9708
1.7218 -6.7651 -2.4964 0.9708
2.9079 -6.3623 -2.5016 0.9707
3.1358 -6.2565 -2.5027 0.9707
4.0021 -5.7481 -2.5047 0.9707
4.5998 -5.2882 -2.5064 0.9707
4.7887 -5.1220 -2.5075 0.9707
5.4813 -4.3912 -2.5116 0.9706
5.6375 -4.1931 -2.5125 0.9706
6.0614 -3.5664 -2.5150 0.9706
6.3051 -3.1241 -2.5164 0.9706
6.4148 -2.8965 -2.5170 0.9705
6.5161 -2.6650 -2.5176 0.9705
6.6089 -2.4300 -2.5181 0.9705
6.6931 -2.1916 -2.5185 0.9705
6.7685 -1.9503 -2.5189 0.9705
6.8351 -1.7064 -2.5193 0.9705
6.8928 -1.4601 -2.5196 0.9705
6.9411 -1.2119 -2.5197 0.9705
6.9026 -0.9513 -2.4917 0.9708
6.5802 -0.6672 -2.3652 0.9723
6.6138 -0.1936 -2.3662 0.9723
6.6181 0.0439 -2.3667 0.9723
6.6136 0.2815 -2.3672 0.9723
6.4040 1.6894 -2.3684 0.9723
6.3400 1.9183 -2.3687 0.9723
6.2707 2.1459 -2.3701 0.9722
6.1930 2.3708 -2.3714 0.9722
6.1069 2.5928 -2.3726 0.9722
5.1392 2.6320 -2.0648 0.9758
5.0282 3.3015 -2.1511 0.9748
5.4232 3.8463 -2.3776 0.9722
5.2830 4.0395 -2.3782 0.9721
4.9799 4.4084 -2.3784 0.9721
-3.1586 -5.7187 -2.5036 0.9724
-2.7402 -5.9303 -2.5035 0.9724
-1.8609 -6.2531 -2.5002 0.9724
-1.4067 -6.3669 -2.4988 0.9725
-0.9466 -6.4529 -2.4994 0.9724
-0.4812 -6.5035 -2.4991 0.9725
-0.2474 -6.5131 -2.4978 0.9725
-0.0134 -6.5148 -2.4966 0.9725
0.9189 -6.4493 -2.4965 0.9725
1.1500 -6.4137 -2.4971 0.9725
1.6066 -6.3125 -2.4962 0.9725
1.8326 -6.2525 -2.4969 0.9725
2.0566 -6.1849 -2.4978 0.9725
2.2780 -6.1093 -2.4987 0.9725
2.4967 -6.0257 -2.4995 0.9724
2.7124 -5.9345 -2.5005 0.9724
2.9248 -5.8356 -2.5015 0.9724
3.1336 -5.7291 -2.5025 0.9724
3.5392 -5.4938 -2.5044 0.9724
3.9270 -5.2295 -2.5061 0.9724
4.1132 -5.0866 -2.5068 0.9724
4.9597 -4.2744 -2.5091 0.9723
5.1110 -4.0945 -2.5096 0.9723
5.5260 -3.5243 -2.5117 0.9723
5.6505 -3.3246 -2.5124 0.9723
5.7677 -3.1205 -2.5131 0.9723
5.9796 -2.7000 -2.5143 0.9723
6.0739 -2.4842 -2.5148 0.9723
6.1604 -2.2650 -2.5153 0.9723
6.2387 -2.0428 -2.5157 0.9723
6.3093 -1.8180 -2.5162 0.9723
6.3719 -1.5907 -2.5167 0.9723
6.4253 -1.3611 -2.5169 0.9723
6.4704 -1.1297 -2.5171 0.9723
6.3812 -0.6471 -2.4579 0.9729
6.1642 -0.1804 -2.3633 0.9739
6.1681 0.0409 -2.3638 0.9739
6.1508 0.4834 -2.3644 0.9739
6.0661 1.1423 -2.3655 0.9739
5.9692 1.5746 -2.3657 0.9739
5.6850 2.4137 -2.3668 0.9739
5.5973 2.6174 -2.3679 0.9739
5.1196 2.6219 -2.2042 0.9757
4.9220 2.7480 -2.1603 0.9761
4.8034 2.9127 -2.1527 0.9762
4.7804 3.9349 -2.3727 0.9738
4.6371 4.1049 -2.3733 0.9738
-2.9569 -5.3534 -2.5030 0.9739
-2.3648 -5.6415 -2.5036 0.9739
-1.9530 -5.7934 -2.5022 0.9739
-1.7427 -5.8561 -2.5006 0.9739
-1.3172 -5.9619 -2.4989 0.9740
-1.1025 -6.0058 -2.4991 0.9740
-0.8864 -6.0422 -2.4994 0.9740
0.4249 -6.0842 -2.4962 0.9740
0.8604 -6.0385 -2.4964 0.9740
1.0768 -6.0053 -2.4970 0.9740
1.5052 -5.9141 -2.4977 0.9740
1.7163 -5.8555 -2.4973 0.9740
2.1326 -5.7191 -2.4981 0.9740
2.5390 -5.5551 -2.4998 0.9739
3.4958 -5.0210 -2.5040 0.9739
3.8494 -4.7604 -2.5056 0.9739
4.0191 -4.6206 -2.5064 0.9739
4.1565 -4.4458 -2.4909 0.9740
4.3427 -4.3229 -2.5078 0.9739
4.6441 -4.0024 -2.5092 0.9739
4.7860 -3.8341 -2.5098 0.9738
5.1738 -3.2997 -2.5115 0.9738
5.2900 -3.1125 -2.5120 0.9738
5.3993 -2.9212 -2.5125 0.9738
5.5968 -2.5272 -2.5133 0.9738
5.7652 -2.1197 -2.5140 0.9738
5.8382 -1.9117 -2.5143 0.9738
5.9036 -1.7011 -2.5145 0.9738
5.9613 -1.4882 -2.5147 0.9738
5.9305 -0.3870 -2.4324 0.9746
5.7692 0.0383 -2.3612 0.9754
5.7653 0.2454 -2.3617 0.9754
5.6743 1.0685 -2.3632 0.9754
5.6326 1.2715 -2.3633 0.9754
5.5271 1.6724 -2.3634 0.9754
5.2308 2.4461 -2.3633 0.9754
4.6910 2.8445 -2.2453 0.9766
4.7172 3.3456 -2.3669 0.9753
-2.4093 -5.2143 -2.5033 0.9752
-2.2208 -5.2978 -2.5035 0.9752
-2.0293 -5.3745 -2.5037 0.9752
-1.8343 -5.4412 -2.5025 0.9753
-1.6368 -5.5003 -2.5010 0.9753
-1.4375 -5.5522 -2.4995 0.9753
-1.2371 -5.5991 -2.4990 0.9753
-1.0354 -5.6403 -2.4992 0.9753
-0.6283 -5.7013 -2.4998 0.9753
0.6040 -5.6967 -2.4967 0.9753
1.0112 -5.6393 -2.4969 0.9753
1.2132 -5.6007 -2.4975 0.9753
1.6126 -5.5018 -2.4987 0.9753
2.1944 -5.2961 -2.4984 0.9753
2.5702 -5.1282 -2.5000 0.9753
2.9332 -4.9335 -2.5014 0.9753
3.1093 -4.8264 -2.5021 0.9753
3.2814 -4.7130 -2.5028 0.9753
3.4495 -4.5936 -2.5036 0.9752
3.9267 -4.1999 -2.5058 0.9752
4.0760 -4.0573 -2.5064 0.9752
4.4918 -3.5984 -2.5083 0.9752
4.7404 -3.2684 -2.5094 0.9752
4.8556 -3.0967 -2.5099 0.9752
5.0671 -2.7414 -2.5108 0.9752
5.1630 -2.5582 -2.5112 0.9752
5.2523 -2.3716 -2.5116 0.9752
5.4102 -1.9892 -2.5122 0.9752
5.4787 -1.7940 -2.5125 0.9752
5.6411 -1.1950 -2.5130 0.9752
5.6806 -0.9918 -2.5132 0.9752
5.7128 -0.7873 -2.5132 0.9752
5.7374 -0.5818 -2.5133 0.9752
5.4138 0.0359 -2.3595 0.9767
5.3989 0.4243 -2.3602 0.9766
5.3810 0.6179 -2.3605 0.9766
5.3561 0.8107 -2.3609 0.9766
5.2847 1.1930 -2.3611 0.9766
5.2387 1.3819 -2.3612 0.9766
5.0610 1.9375 -2.3618 0.9766
4.9882 2.1179 -2.3618 0.9766
4.9089 2.2955 -2.3617 0.9766
4.8232 2.4701 -2.3617 0.9766
4.7301 2.6409 -2.3610 0.9766
4.1884 3.4476 -2.3642 0.9766
-2.6143 -4.7333 -2.5029 0.9764
-2.0908 -4.9878 -2.5035 0.9764
-1.9106 -5.0600 -2.5036 0.9764
-1.7272 -5.1236 -2.5028 0.9764
-1.5413 -5.1794 -2.5014 0.9765
-1.3537 -5.2284 -2.5000 0.9765
-0.9749 -5.3107 -2.4993 0.9765
-0.5915 -5.3679 -2.4998 0.9765
-0.3986 -5.3863 -2.5001 0.9765
-0.0112 -5.4023 -2.5006 0.9765
0.3761 -5.3849 -2.4987 0.9765
0.5689 -5.3662 -2.4978 0.9765
1.1422 -5.2729 -2.4974 0.9765
1.3311 -5.2297 -2.4979 0.9765
1.5182 -5.1797 -2.4985 0.9765
2.0666 -4.9877 -2.4991 0.9765
2.2441 -4.9099 -2.4989 0.9765
2.4194 -4.8272 -2.4994 0.9765
2.9267 -4.5429 -2.5015 0.9765
3.0886 -4.4361 -2.5021 0.9765
3.2467 -4.3235 -2.5027 0.9764
3.4006 -4.2053 -2.5034 0.9764
3.6953 -3.9524 -2.5046 0.9764
3.9712 -3.6790 -2.5058 0.9764
4.1017 -3.5349 -2.5064 0.9764
4.2268 -3.3861 -2.5069 0.9764
4.3465 -3.2329 -2.5075 0.9764
4.8581 -2.4071 -2.5097 0.9764
5.0906 -1.8717 -2.5106 0.9764
5.2127 -1.5020 -2.5111 0.9764
5.2637 -1.3140 -2.5112 0.9764
5.3450 -0.9332 -2.5115 0.9764
5.3754 -0.7408 -2.5117 0.9764
5.4151 -0.3533 -2.5119 0.9764
5.1684 0.0343 -2.3924 0.9775
5.0793 0.3992 -2.3584 0.9778
5.0388 0.7627 -2.3590 0.9778
4.8240 1.6508 -2.3601 0.9778
4.7618 1.8229 -2.3602 0.9778
4.6187 2.1598 -2.3601 0.9778
4.5381 2.3241 -2.3601 0.9778
4.4516 2.4854 -2.3600 0.9778
4.3593 2.6434 -2.3599 0.9778
4.2617 2.7982 -2.3599 0.9778
4.1578 2.9488 -2.3595 0.9778
4.0503 3.0970 -2.3601 0.9778
3.9374 3.2411 -2.3606 0.9778
-2.1405 -4.6325 -2.5032 0.9775
-1.8029 -4.7748 -2.5035 0.9775
-1.6300 -4.8354 -2.5030 0.9775
-1.4547 -4.8882 -2.5017 0.9775
-0.9200 -5.0117 -2.4994 0.9776
-0.7396 -5.0418 -2.4996 0.9776
-0.5582 -5.0655 -2.4998 0.9776
-0.3761 -5.0828 -2.5001 0.9775
-0.0105 -5.0978 -2.5006 0.9775
0.1725 -5.0954 -2.5009 0.9775
0.5371 -5.0662 -2.4990 0.9776
0.7184 -5.0421 -2.4982 0.9776
1.0778 -4.9757 -2.4973 0.9776
1.7802 -4.7741 -2.4993 0.9776
1.9508 -4.7080 -2.4998 0.9776
2.2835 -4.5561 -2.4998 0.9776
2.6048 -4.3811 -2.5002 0.9775
2.7611 -4.2859 -2.5008 0.9775
3.1886 -3.9432 -2.4875 0.9777
3.3491 -3.8504 -2.5032 0.9775
3.4860 -3.7285 -2.5038 0.9775
3.6183 -3.6018 -2.5043 0.9775
3.7460 -3.4703 -2.5048 0.9775
4.0997 -3.0494 -2.5063 0.9775
4.4060 -2.5924 -2.5076 0.9775
4.6611 -2.1046 -2.5087 0.9775
4.8620 -1.5920 -2.5095 0.9775
4.9646 -1.2394 -2.5100 0.9775
5.0414 -0.8802 -2.5103 0.9775
5.0700 -0.6987 -2.5105 0.9775
5.0921 -0.5163 -2.5106 0.9775
5.1163 -0.1497 -2.5107 0.9775
4.8504 0.2065 -2.3814 0.9786
4.7902 0.3765 -2.3569 0.9788
4.6486 1.2263 -2.3582 0.9788
4.5495 1.5569 -2.3587 0.9788
4.4908 1.7192 -2.3587 0.9788
4.1983 2.3440 -2.3586 0.9788
4.1117 2.4933 -2.3587 0.9788
4.0196 2.6393 -2.3588 0.9788
3.9222 2.7818 -2.3587 0.9788
3.5991 3.1860 -2.3578 0.9788
-2.0239 -4.3801 -2.5032 0.9785
-1.7047 -4.5146 -2.5035 0.9785
-1.2082 -4.6665 -2.5007 0.9785
-0.3556 -4.8060 -2.5001 0.9785
0.6796 -4.7696 -2.4994 0.9785
1.1875 -4.6658 -2.4977 0.9785
1.5197 -4.5703 -2.4986 0.9785
1.8443 -4.4512 -2.4996 0.9785
2.0033 -4.3830 -2.5001 0.9785
2.1597 -4.3090 -2.5005 0.9785
2.3132 -4.2292 -2.5008 0.9785
2.4634 -4.1432 -2.5006 0.9785
2.7545 -3.9562 -2.5009 0.9785
3.2951 -3.5244 -2.5031 0.9785
3.4202 -3.4046 -2.5036 0.9785
3.5409 -3.2803 -2.5041 0.9785
3.6570 -3.1517 -2.5045 0.9785
3.7685 -3.0189 -2.5050 0.9785
3.8751 -2.8823 -2.5054 0.9785
3.9767 -2.7418 -2.5059 0.9785
4.0732 -2.5977 -2.5063 0.9785
4.1645 -2.4502 -2.5066 0.9785
4.3307 -2.1458 -2.5073 0.9785
4.4055 -1.9892 -2.5077 0.9785
4.5953 -1.5047 -2.5085 0.9784
4.6468 -1.3389 -2.5087 0.9784
4.6922 -1.1714 -2.5089 0.9784
4.7648 -0.8319 -2.5092 0.9784
4.7918 -0.6604 -2.5094 0.9784
4.8126 -0.4880 -2.5095 0.9784
4.8272 -0.3149 -2.5096 0.9784
4.5636 0.3587 -2.3748 0.9796
4.4639 0.8406 -2.3565 0.9797
4.3490 1.3159 -2.3572 0.9797
4.2993 1.4713 -2.3574 0.9797
4.2438 1.6246 -2.3574 0.9797
3.9679 2.2153 -2.3575 0.9797
3.7990 2.4944 -2.3577 0.9797
3.7070 2.6291 -2.3577 0.9797
3.5085 2.8880 -2.3575 0.9797
-2.2094 -4.0001 -2.5028 0.9794
-2.0645 -4.0770 -2.5030 0.9794
-1.9170 -4.1488 -2.5031 0.9794
-1.6146 -4.2760 -2.5034 0.9794
-1.4601 -4.3313 -2.5034 0.9794
-1.1446 -4.4207 -2.5011 0.9794
-0.8240 -4.4887 -2.4996 0.9794
-0.6624 -4.5157 -2.4997 0.9794
-0.3368 -4.5522 -2.5001 0.9794
0.1545 -4.5633 -2.5008 0.9794
0.3182 -4.5553 -2.5011 0.9794
0.4815 -4.5414 -2.5013 0.9794
0.6440 -4.5198 -2.5005 0.9794
0.8055 -4.4924 -2.4997 0.9794
1.1252 -4.4209 -2.4985 0.9794
1.2828 -4.3768 -2.4980 0.9794
1.5941 -4.2750 -2.4989 0.9794
1.7468 -4.2158 -2.4994 0.9794
2.1910 -4.0057 -2.5007 0.9794
2.4735 -3.8395 -2.5015 0.9794
2.7425 -3.6521 -2.5014 0.9794
2.9979 -3.4466 -2.5019 0.9794
3.1203 -3.3374 -2.5024 0.9794
3.3530 -3.1062 -2.5033 0.9794
3.4629 -2.9844 -2.5038 0.9794
3.6693 -2.7292 -2.5046 0.9794
3.8568 -2.4597 -2.5054 0.9794
4.0245 -2.1773 -2.5061 0.9793
4.1005 -2.0318 -2.5065 0.9793
4.2966 -1.5798 -2.5073 0.9793
4.3509 -1.4247 -2.5075 0.9793
4.3997 -1.2677 -2.5077 0.9793
4.4427 -1.1091 -2.5079 0.9793
4.5114 -0.7876 -2.5083 0.9793
4.5370 -0.6252 -2.5084 0.9793
4.5783 -0.1340 -2.5086 0.9793
4.5759 0.1948 -2.5085 0.9793
4.2518 0.6436 -2.3552 0.9806
4.1591 1.0972 -2.3558 0.9806
4.1174 1.2458 -2.3560 0.9806
4.0176 1.5380 -2.3562 0.9806
3.8971 1.8224 -2.3563 0.9806
3.8295 1.9612 -2.3565 0.9806
3.6793 2.2311 -2.3567 0.9806
3.5969 2.3617 -2.3568 0.9806
3.5097 2.4893 -2.3567 0.9806
3.4181 2.6135 -2.3566 0.9806
3.3219 2.7344 -2.3565 0.9806
-2.0959 -3.7946 -2.5028 0.9802
-1.5317 -4.0564 -2.5034 0.9802
-0.9343 -4.2286 -2.5003 0.9802
-0.3195 -4.3185 -2.5001 0.9802
-0.1644 -4.3275 -2.5003 0.9802
-0.0089 -4.3310 -2.5005 0.9802
0.9168 -4.2322 -2.5001 0.9802
1.2175 -4.1537 -2.4990 0.9802
1.5121 -4.0552 -2.4988 0.9802
1.7997 -3.9376 -2.4996 0.9802
2.0782 -3.7996 -2.5004 0.9802
2.2136 -3.7232 -2.5008 0.9802
2.4591 -3.5320 -2.4848 0.9803
2.7253 -3.3701 -2.5023 0.9802
2.8445 -3.2701 -2.5023 0.9802
3.1799 -2.9459 -2.5027 0.9802
3.2842 -2.8303 -2.5031 0.9802
3.7395 -2.2002 -2.5050 0.9802
4.0178 -1.6432 -2.5062 0.9802
4.0746 -1.4981 -2.5064 0.9801
4.1723 -1.2022 -2.5069 0.9801
4.2130 -1.0518 -2.5070 0.9801
4.2484 -0.8999 -2.5072 0.9801
4.3397 0.1847 -2.5078 0.9801
4.2618 0.4894 -2.4767 0.9804
4.0582 0.6143 -2.3697 0.9812
3.9042 1.1813 -2.3550 0.9813
3.8594 1.3207 -2.3551 0.9813
3.8095 1.4584 -2.3551 0.9813
3.7550 1.5943 -2.3553 0.9813
3.6315 1.8598 -2.3556 0.9813
3.5626 1.9891 -2.3557 0.9813
3.4891 2.1157 -2.3558 0.9813
3.4109 2.2396 -2.3559 0.9813
3.3283 2.3606 -2.3558 0.9813
3.2413 2.4784 -2.3557 0.9813
3.1502 2.5930 -2.3556 0.9813
3.0549 2.7043 -2.3555 0.9813
