ply
format ascii 1.0
element vertex 1321
property float32 x
property float32 y
property float32 z
property float32 I
end_header
30.6627 24.1725 6.8847 0.8533
3.2959 2.7948 0.7620 0.9826
3.2145 2.9295 0.7669 0.9825
9.8650 9.6574 2.4342 0.9455
9.2190 10.4144 2.4525 0.9451
7.7836 9.4528 2.1591 0.9515
7.2424 9.4651 2.1015 0.9527
4.4276 11.5061 2.1739 0.9512
3.9655 11.5165 2.1477 0.9517
3.5138 11.5266 2.1248 0.9522
3.0323 11.3910 2.0785 0.9532
2.2070 11.5556 2.0744 0.9533
0.9347 11.4375 2.0235 0.9545
-0.2498 9.7435 1.7186 0.9612
-0.5991 9.7511 1.7226 0.9611
-0.9504 9.7588 1.7289 0.9610
-1.3047 9.7665 1.7374 0.9608
-1.6630 9.7742 1.7482 0.9605
-2.0032 9.6707 1.7414 0.9607
-2.7720 9.7982 1.7955 0.9595
-3.1567 9.8064 1.8165 0.9590
-3.9565 9.8236 1.8674 0.9579
-4.3246 9.7205 1.8760 0.9577
-4.7520 9.7296 1.9093 0.9570
-6.1833 11.5910 2.3164 0.9480
-6.7325 11.6027 2.3654 0.9470
-12.3982 19.7098 4.1058 0.9098
-13.8698 18.9055 4.1344 0.9092
-12.0800 14.2145 3.2892 0.9270
-13.7956 12.1854 3.2456 0.9280
-16.4514 11.6538 3.5549 0.9214
-18.2971 12.0034 3.8586 0.9150
-18.3182 11.1023 3.7769 0.9167
-18.7178 9.5889 3.7083 0.9181
-20.5719 9.6272 4.0049 0.9119
30.6938 24.1970 5.9876 0.8537
3.2117 2.9269 0.6657 0.9826
9.9454 11.2350 2.2986 0.9411
6.7301 9.4789 1.7809 0.9540
6.2404 9.4899 1.7400 0.9551
4.8563 10.3480 1.7512 0.9548
4.8410 11.3529 1.8907 0.9513
4.4285 11.5084 1.8891 0.9513
3.9663 11.5187 1.8663 0.9519
3.5144 11.5288 1.8464 0.9524
2.2074 11.5578 1.8026 0.9535
0.9349 11.4396 1.7583 0.9546
0.0971 9.6261 1.4747 0.9618
-0.2498 9.7453 1.4934 0.9613
-4.3255 9.7225 1.6302 0.9579
-4.7529 9.7316 1.6591 0.9571
-6.1846 11.5935 2.0130 0.9482
-6.7340 11.6052 2.0555 0.9472
-12.4010 19.7141 3.5679 0.9101
-13.4217 19.7358 3.6563 0.9079
-13.8795 18.9188 3.5946 0.9094
-12.8225 12.1683 2.7080 0.9310
-13.7989 12.1883 2.8205 0.9282
-14.7143 12.0894 2.9174 0.9258
-16.0267 12.2355 3.0889 0.9216
-18.3063 12.0095 3.3541 0.9152
-18.3273 11.1078 3.2831 0.9169
-18.3473 10.2424 3.2190 0.9185
-18.7257 9.5929 3.2232 0.9184
-20.5812 9.6316 3.4811 0.9121
3.2090 2.9244 0.5654 0.9826
10.6725 11.2218 2.0167 0.9394
9.9478 11.2377 1.9544 0.9413
7.2457 9.4694 1.5527 0.9530
6.2418 9.4920 1.4794 0.9552
5.3239 9.5126 1.4196 0.9570
4.8912 9.5222 1.3940 0.9577
4.4294 11.5106 1.6061 0.9515
3.0334 11.3953 1.5356 0.9535
1.3641 11.5785 1.5182 0.9541
0.9351 11.4417 1.4949 0.9547
0.4411 9.6203 1.2541 0.9619
-1.2342 9.2384 1.2137 0.9631
-2.0040 9.6743 1.2865 0.9609
-2.3692 9.6822 1.2980 0.9606
-2.9861 9.2764 1.2690 0.9615
-3.5525 9.8187 1.3597 0.9588
-4.3264 9.7244 1.3860 0.9580
-4.7539 9.7336 1.4106 0.9572
-6.7354 11.6077 1.7476 0.9473
-12.4037 19.7184 3.0335 0.9103
-13.8893 18.9321 3.0577 0.9096
-12.0709 15.2777 2.5355 0.9245
-13.8034 12.1922 2.3983 0.9284
-15.0229 12.3429 2.5319 0.9246
-16.0316 12.2393 2.6265 0.9219
-17.0807 12.0996 2.7258 0.9190
-18.3155 12.0156 2.8525 0.9154
-18.3363 11.1133 2.7921 0.9171
-20.5905 9.6359 2.9604 0.9124
14.3446 2.9551 1.5727 0.9428
14.3566 3.4964 1.5867 0.9423
30.6415 24.1557 4.1898 0.8547
3.2063 2.9219 0.4658 0.9827
10.6751 11.2246 1.6634 0.9396
9.9501 11.2404 1.6120 0.9414
6.7331 9.4830 1.2489 0.9543
6.2431 9.4940 1.2202 0.9553
5.7746 9.5045 1.1942 0.9562
4.8922 9.5242 1.1498 0.9578
4.8461 10.3261 1.2249 0.9551
4.4250 11.4992 1.3231 0.9516
2.6041 11.4069 1.2564 0.9540
1.3471 11.4346 1.2364 0.9547
0.9352 11.4437 1.2329 0.9549
0.0972 9.6296 1.0341 0.9620
-0.2499 9.7488 1.0472 0.9615
-1.2344 9.2401 1.0010 0.9632
-1.5734 9.2475 1.0073 0.9630
-2.0043 9.6761 1.0611 0.9610
-2.3696 9.6840 1.0706 0.9607
-3.5531 9.8206 1.1215 0.9589
-4.3272 9.7264 1.1431 0.9581
-4.7549 9.7356 1.1635 0.9573
-5.6604 9.7551 1.2111 0.9556
-6.1429 9.7654 1.2388 0.9546
-14.1683 19.3124 2.5720 0.9081
-12.1033 14.2419 2.0070 0.9276
-12.8294 12.1748 1.8992 0.9313
-15.0273 12.3465 2.0884 0.9247
-16.0365 12.2431 2.1665 0.9220
-18.3453 11.1187 2.3035 0.9173
47.4183 4.5659 4.0327 0.8259
14.8991 2.5183 1.2791 0.9411
16.0605 7.1243 1.4873 0.9319
14.4292 7.0278 1.3587 0.9376
3.2966 2.7954 0.3659 0.9828
8.3641 9.4487 1.0682 0.9506
7.2489 9.4736 1.0098 0.9532
6.2444 9.4960 0.9621 0.9554
5.7758 9.5064 0.9416 0.9563
4.8931 9.5261 0.9066 0.9579
4.8409 10.3152 0.9646 0.9553
4.8438 11.3595 1.0454 0.9516
4.3752 11.3699 1.0313 0.9523
3.4721 11.3899 1.0080 0.9533
1.7621 11.4276 0.9788 0.9546
1.3473 11.4367 0.9749 0.9548
0.0972 9.6313 0.8154 0.9621
-0.2500 9.7506 0.8257 0.9616
-0.9299 9.5486 0.8121 0.9622
-1.5737 9.2492 0.7942 0.9630
-2.0047 9.6779 0.8367 0.9611
-2.6231 9.2720 0.8157 0.9621
-3.5538 9.8225 0.8843 0.9589
-3.9596 9.8313 0.8972 0.9583
-5.6616 9.7571 0.9550 0.9557
-6.1442 9.7675 0.9768 0.9547
-6.6500 9.7784 1.0011 0.9536
-14.1715 19.3168 2.0281 0.9083
-12.0869 15.2981 1.6505 0.9247
-12.1110 14.2510 1.5832 0.9277
-13.8111 12.1991 1.5599 0.9287
-15.0316 12.3501 1.6469 0.9249
-18.3339 12.0276 1.8562 0.9157
14.8688 1.4317 0.9263 0.9419
14.9048 3.0705 0.9437 0.9408
14.9299 4.2063 0.9619 0.9397
15.9944 6.4216 1.0688 0.9333
14.4082 6.3914 0.9774 0.9388
14.9987 7.3053 1.0345 0.9353
15.0140 7.9883 1.0546 0.9341
15.0299 8.6994 1.0769 0.9328
14.8412 9.3132 1.0865 0.9322
16.3001 11.9312 1.2526 0.9222
3.2008 2.9170 0.2685 0.9828
8.9753 9.4374 0.8076 0.9491
7.7926 9.4637 0.7602 0.9521
6.7360 9.4871 0.7215 0.9544
5.7770 9.5084 0.6899 0.9564
4.8941 9.5280 0.6642 0.9580
4.8359 10.3044 0.7059 0.9554
4.8448 11.3617 0.7659 0.9517
2.6050 11.4111 0.7258 0.9542
2.1812 11.4205 0.7210 0.9545
1.7625 11.4297 0.7171 0.9547
0.9356 11.4478 0.7123 0.9550
0.0972 9.6331 0.5974 0.9621
-0.2500 9.7523 0.6049 0.9617
-0.5996 9.7600 0.6064 0.9616
-0.9332 9.5823 0.5970 0.9622
-2.3705 9.6876 0.6185 0.9608
-2.6236 9.2738 0.5976 0.9621
-2.9878 9.2817 0.6047 0.9617
-3.9604 9.8333 0.6574 0.9584
-5.6628 9.7592 0.6997 0.9558
-6.6515 9.7806 0.7335 0.9537
-12.0949 15.3082 1.2098 0.9248
-12.1406 13.2929 1.1163 0.9304
-12.8363 12.1813 1.0973 0.9315
-15.0360 12.3537 1.2067 0.9250
-15.4302 11.7801 1.2038 0.9251
-18.3430 12.0336 1.3604 0.9158
-18.3826 10.2620 1.3055 0.9191
-20.6180 9.6488 1.4116 0.9128
14.8508 0.8961 0.5867 0.9422
14.8625 1.4311 0.5888 0.9420
14.8743 1.9706 0.5916 0.9417
14.9234 4.2044 0.6114 0.9398
14.9362 4.7901 0.6185 0.9391
14.3750 5.1833 0.6025 0.9407
14.3880 5.7767 0.6114 0.9398
14.9771 6.6438 0.6461 0.9365
15.0067 7.9845 0.6703 0.9342
15.0389 9.4373 0.7001 0.9314
3.1982 2.9146 0.1706 0.9828
9.6279 9.4252 0.5313 0.9475
8.9775 9.4396 0.5137 0.9492
7.7944 9.4658 0.4835 0.9521
7.2521 9.4778 0.4706 0.9533
5.7782 9.5104 0.4388 0.9564
4.8951 9.5299 0.4225 0.9580
4.8309 10.2937 0.4484 0.9555
4.8457 11.3639 0.4871 0.9517
4.3769 11.3742 0.4806 0.9524
3.0357 11.4037 0.4653 0.9539
2.6055 11.4132 0.4616 0.9542
2.1816 11.4225 0.4585 0.9545
1.7628 11.4317 0.4561 0.9548
1.3478 11.4408 0.4542 0.9549
0.9357 11.4499 0.4530 0.9551
0.4414 9.6272 0.3800 0.9622
0.0972 9.6348 0.3799 0.9622
-0.9406 9.6581 0.3826 0.9619
-1.2913 9.6658 0.3845 0.9617
-1.6459 9.6736 0.3869 0.9615
-2.7435 9.6976 0.3974 0.9605
-3.1243 9.7059 0.4021 0.9600
-3.5147 9.7144 0.4074 0.9595
-3.9160 9.7231 0.4133 0.9589
-4.3298 9.7321 0.4200 0.9583
-5.2018 9.7512 0.4358 0.9567
-13.9156 18.9679 0.9276 0.9101
-12.0907 15.3028 0.7690 0.9249
-12.1357 13.2875 0.7096 0.9305
-13.7961 12.1858 0.7258 0.9290
-14.8599 12.2089 0.7583 0.9259
-15.4349 11.7837 0.7657 0.9252
-16.4833 11.6764 0.7965 0.9223
-18.3396 12.0314 0.8649 0.9159
-18.3597 11.1275 0.8465 0.9176
-18.3789 10.2600 0.8300 0.9192
-18.7246 9.5924 0.8296 0.9192
-20.5834 9.6326 0.8961 0.9130
14.8446 0.8957 0.2512 0.9422
14.8286 1.4278 0.2516 0.9421
14.8522 2.5104 0.2544 0.9415
14.8765 3.6231 0.2586 0.9406
14.8890 4.1947 0.2613 0.9400
14.3928 5.1897 0.2584 0.9406
14.4661 5.8080 0.2633 0.9395
14.9422 6.6283 0.2761 0.9367
14.9716 7.9657 0.2865 0.9344
15.0034 9.4150 0.2992 0.9316
15.0485 10.2101 0.3072 0.9298
3.2971 2.7958 0.0730 0.9829
3.1955 2.9121 0.0730 0.9829
9.6304 9.4276 0.2277 0.9475
6.7389 9.4912 0.1966 0.9545
6.2484 9.5020 0.1921 0.9555
4.3777 11.3764 0.2059 0.9524
3.4740 11.3962 0.2013 0.9535
1.3481 11.4429 0.1946 0.9550
0.9359 11.4519 0.1941 0.9551
0.0973 9.6365 0.1628 0.9622
-0.2472 9.6442 0.1630 0.9621
-0.5926 9.6467 0.1633 0.9621
-0.9406 9.6587 0.1639 0.9619
-1.6462 9.6751 0.1658 0.9615
-2.0058 9.6832 0.1670 0.9612
-3.1247 9.7069 0.1723 0.9600
-3.4842 9.6300 0.1730 0.9599
-3.8784 9.6296 0.1754 0.9593
-4.3302 9.7330 0.1800 0.9583
-5.2029 9.7532 0.1867 0.9567
-5.6652 9.7633 0.1907 0.9558
-6.1481 9.7738 0.1951 0.9549
-13.9252 18.9810 0.3977 0.9101
-12.1430 13.2956 0.3042 0.9305
-12.8221 12.1679 0.2986 0.9317
-13.7999 12.1892 0.3110 0.9290
-14.8641 12.2124 0.3250 0.9259
-18.3612 12.0455 0.3709 0.9159
14.8383 0.8954 -0.0837 0.9423
14.8735 2.5140 -0.0849 0.9414
14.9103 4.2007 -0.0872 0.9399
14.9360 5.3856 -0.0894 0.9385
14.9494 6.0020 -0.0907 0.9376
14.9632 6.6376 -0.0922 0.9366
15.0077 8.6865 -0.0976 0.9330
15.0407 10.2048 -0.1023 0.9299
15.0584 11.0223 -0.1051 0.9281
3.2972 2.7959 -0.0243 0.9829
3.1928 2.9097 -0.0243 0.9829
8.3720 9.4576 -0.0711 0.9507
6.7403 9.4933 -0.0655 0.9545
6.2497 9.5040 -0.0640 0.9555
5.3304 9.5242 -0.0614 0.9573
4.8970 9.5336 -0.0603 0.9580
4.8444 11.3610 -0.0695 0.9518
4.3785 11.3785 -0.0686 0.9524
3.9214 11.3885 -0.0678 0.9530
3.0368 11.4079 -0.0665 0.9539
2.6065 11.4174 -0.0659 0.9542
1.7634 11.4358 -0.0651 0.9548
1.3483 11.4449 -0.0649 0.9549
0.0973 9.6382 -0.0543 0.9622
-0.2431 9.4844 -0.0534 0.9628
-0.9409 9.6613 -0.0546 0.9619
-1.2917 9.6690 -0.0549 0.9617
-1.6465 9.6769 -0.0553 0.9615
-2.0062 9.6850 -0.0557 0.9612
-2.7446 9.7012 -0.0568 0.9605
-3.4570 9.5549 -0.0572 0.9602
-4.7597 9.7454 -0.0611 0.9575
-6.1935 11.6102 -0.0741 0.9487
-13.4425 19.7663 -0.1346 0.9088
-13.9348 18.9941 -0.1326 0.9101
-12.1066 15.3230 -0.1099 0.9249
-12.1628 13.3172 -0.1015 0.9304
-12.1699 12.4047 -0.0978 0.9328
-13.8264 12.2126 -0.1039 0.9289
-18.3703 12.0514 -0.1237 0.9159
-18.3899 11.1458 -0.1211 0.9176
-18.3964 10.2697 -0.1186 0.9192
-23.9849 9.1997 -0.1446 0.9023
14.8321 0.8950 -0.4184 0.9423
14.8437 1.4293 -0.4199 0.9421
14.8554 1.9681 -0.4219 0.9418
14.8672 2.5129 -0.4246 0.9414
14.8792 3.0652 -0.4278 0.9410
14.8913 3.6267 -0.4316 0.9405
14.9704 7.2914 -0.4689 0.9355
14.9851 7.9729 -0.4780 0.9343
15.0330 10.1996 -0.5115 0.9299
15.0690 11.8794 -0.5403 0.9261
15.1319 14.8133 -0.5963 0.9188
9.9642 11.2562 -0.4233 0.9416
7.7997 9.4723 -0.3455 0.9521
6.7418 9.4953 -0.3279 0.9545
6.2510 9.5060 -0.3204 0.9555
5.3315 9.5261 -0.3074 0.9573
4.8158 10.2617 -0.3192 0.9557
4.8390 11.3482 -0.3474 0.9518
4.3920 11.4136 -0.3443 0.9522
3.9722 11.5361 -0.3435 0.9524
3.0373 11.4100 -0.3325 0.9539
2.6069 11.4194 -0.3298 0.9542
1.3658 11.5931 -0.3287 0.9544
-0.6000 9.7670 -0.2755 0.9616
-0.9519 9.7747 -0.2765 0.9615
-1.6658 9.7904 -0.2796 0.9610
-3.5572 9.8320 -0.2944 0.9590
-3.9634 9.8409 -0.2987 0.9584
-4.7606 9.7474 -0.3054 0.9575
-6.1948 11.6126 -0.3706 0.9487
-6.7453 11.6247 -0.3784 0.9476
-13.9444 19.0072 -0.6638 0.9100
-12.1146 15.3331 -0.5502 0.9248
-12.8499 12.1943 -0.4988 0.9316
-10.0721 8.8965 -0.3784 0.9476
-10.8491 8.9137 -0.3954 0.9454
-11.7002 8.9325 -0.4145 0.9428
-13.6828 8.9763 -0.4608 0.9366
-14.8532 9.0022 -0.4891 0.9329
-17.7115 9.0733 -0.5603 0.9235
-19.4716 9.1123 -0.6053 0.9176
14.8608 2.5119 -0.7643 0.9414
14.8727 3.0639 -0.7701 0.9410
14.8849 3.6251 -0.7769 0.9405
14.9097 4.7816 -0.7941 0.9392
14.9225 5.3807 -0.8045 0.9384
14.9357 5.9965 -0.8162 0.9376
14.9493 6.6314 -0.8294 0.9366
14.9633 7.2880 -0.8441 0.9355
13.9520 8.7554 -0.8353 0.9362
13.1761 8.9398 -0.8075 0.9382
14.3124 10.4762 -0.8995 0.9314
3.1875 2.9048 -0.2187 0.9829
10.6932 11.2436 -0.7869 0.9397
7.8015 9.4744 -0.6224 0.9520
7.2585 9.4862 -0.6058 0.9533
5.7829 9.5183 -0.5648 0.9564
5.3326 9.5280 -0.5537 0.9572
4.8990 9.5375 -0.5438 0.9580
3.5203 11.5481 -0.6123 0.9528
2.6074 11.4215 -0.5941 0.9542
2.2110 11.5767 -0.5977 0.9539
1.7865 11.5860 -0.5945 0.9541
1.3660 11.5952 -0.5921 0.9543
0.4417 9.6341 -0.4891 0.9621
0.0973 9.6417 -0.4890 0.9621
-0.2502 9.7610 -0.4952 0.9616
-1.3071 9.7842 -0.5006 0.9612
-1.6661 9.7922 -0.5037 0.9610
-2.0069 9.6885 -0.5018 0.9611
-2.7772 9.8166 -0.5174 0.9600
-3.5579 9.8338 -0.5303 0.9590
-3.6520 9.0676 -0.4958 0.9616
-5.1002 8.7895 -0.5154 0.9601
-6.4707 8.8199 -0.5548 0.9571
-8.7016 8.8694 -0.6301 0.9515
-9.3618 8.8841 -0.6545 0.9496
-10.8523 8.9163 -0.7123 0.9453
-12.6431 8.9561 -0.7858 0.9398
-13.6875 8.9794 -0.8302 0.9365
-14.8585 9.0054 -0.8811 0.9328
-19.4802 9.1163 -1.0908 0.9175
-21.5327 9.1542 -1.1866 0.9105
-24.0103 9.2094 -1.3042 0.9021
14.8196 0.8942 -1.0886 0.9422
14.8427 1.9665 -1.0978 0.9417
14.8663 3.0626 -1.1129 0.9409
14.9158 5.3783 -1.1626 0.9384
14.9289 5.9938 -1.1795 0.9375
14.9424 6.6284 -1.1986 0.9365
14.9563 7.2845 -1.2198 0.9355
14.9856 8.6737 -1.2696 0.9329
13.9566 8.7582 -1.2081 0.9361
12.0219 8.7997 -1.0924 0.9420
9.0552 8.8646 -0.9291 0.9504
8.4431 8.8778 -0.8983 0.9520
7.8696 8.8902 -0.8705 0.9535
7.3299 8.9018 -0.8455 0.9548
5.8743 8.9332 -0.7839 0.9580
5.4332 8.9428 -0.7672 0.9589
5.0101 8.9519 -0.7522 0.9597
4.6027 8.9608 -0.7386 0.9604
3.8250 8.9705 -0.7150 0.9616
2.7417 8.9941 -0.6894 0.9630
2.3962 9.0016 -0.6830 0.9633
1.7220 9.0163 -0.6730 0.9639
1.3914 9.0235 -0.6694 0.9640
1.0204 8.6614 -0.6395 0.9656
0.7084 8.6682 -0.6377 0.9657
0.3978 8.6750 -0.6367 0.9658
-0.8475 8.7024 -0.6411 0.9655
-2.1364 8.7308 -0.6590 0.9646
-3.5287 8.7616 -0.6926 0.9628
-5.9922 8.8112 -0.7813 0.9582
-6.9791 8.8332 -0.8254 0.9559
-7.5170 8.8452 -0.8511 0.9545
-8.0901 8.8580 -0.8796 0.9530
-10.0777 8.9014 -0.9859 0.9475
-10.8554 8.9188 -1.0301 0.9452
-11.7073 8.9379 -1.0800 0.9426
-13.6921 8.9824 -1.2007 0.9364
-14.8639 9.0087 -1.2744 0.9327
14.8133 0.8939 -1.4247 0.9421
14.8248 1.4275 -1.4298 0.9419
14.8364 1.9656 -1.4368 0.9416
14.8599 3.0613 -1.4566 0.9409
14.9090 5.3758 -1.5215 0.9383
14.9221 5.9910 -1.5437 0.9374
14.9354 6.6253 -1.5686 0.9365
14.9492 7.2811 -1.5964 0.9354
13.9612 8.7611 -1.5824 0.9359
12.9446 8.7827 -1.5018 0.9391
12.0254 8.8023 -1.4307 0.9419
3.1821 2.9000 -0.4133 0.9828
9.0574 8.8669 -1.2169 0.9503
7.8715 8.8923 -1.1401 0.9534
6.8212 8.9148 -1.0777 0.9559
5.0111 8.9537 -0.9851 0.9596
3.8258 8.9722 -0.9364 0.9616
1.7223 9.0179 -0.8814 0.9638
0.7086 8.6698 -0.8351 0.9656
0.3978 8.6766 -0.8339 0.9657
0.0877 8.6834 -0.8337 0.9657
-0.8476 8.7039 -0.8396 0.9655
-1.1637 8.7109 -0.8437 0.9653
-2.4726 8.7398 -0.8720 0.9642
-3.1677 8.7553 -0.8939 0.9633
-5.1023 8.7932 -0.9760 0.9600
-5.5374 8.8029 -0.9984 0.9591
-7.5188 8.8473 -1.1147 0.9544
-8.7061 8.8740 -1.1935 0.9513
-9.3668 8.8888 -1.2397 0.9494
-10.0805 8.9039 -1.2912 0.9474
-10.8586 8.9214 -1.3492 0.9451
-11.7109 8.9407 -1.4145 0.9425
-13.6967 8.9855 -1.5727 0.9363
-21.5536 9.1630 -2.2485 0.9102
-22.9092 8.7871 -2.3556 0.9061
-22.9216 7.8648 -2.3265 0.9072
14.8300 1.9648 -1.7770 0.9415
14.8417 2.5086 -1.7880 0.9412
14.8898 4.7752 -1.8574 0.9390
14.9284 6.6222 -1.9399 0.9363
14.9420 7.2776 -1.9742 0.9352
14.9708 8.6651 -2.0547 0.9327
12.0290 8.8050 -1.7708 0.9417
3.2980 2.7966 -0.5136 0.9827
3.1807 2.8986 -0.5112 0.9828
8.4472 8.8821 -1.4560 0.9518
7.8733 8.8944 -1.4110 0.9533
7.3332 8.9059 -1.3704 0.9546
6.8227 8.9168 -1.3337 0.9558
5.4355 8.9465 -1.2435 0.9587
3.8265 8.9740 -1.1588 0.9615
3.4563 8.9820 -1.1432 0.9620
3.0954 8.9898 -1.1294 0.9624
2.3971 9.0049 -1.1069 0.9632
0.7087 8.6714 -1.0335 0.9656
0.3979 8.6781 -1.0319 0.9656
0.0877 8.6849 -1.0317 0.9656
-0.2228 8.6918 -1.0328 0.9656
-1.1639 8.7125 -1.0441 0.9652
-1.4835 8.7196 -1.0506 0.9650
-2.1372 8.7340 -1.0681 0.9644
-3.5301 8.7650 -1.1224 0.9627
-4.2866 8.7768 -1.1603 0.9614
-5.1034 8.7950 -1.2079 0.9599
-5.5386 8.8048 -1.2356 0.9590
-7.5206 8.8494 -1.3795 0.9543
-8.0942 8.8624 -1.4257 0.9528
-8.7083 8.8763 -1.4771 0.9511
-9.3693 8.8912 -1.5343 0.9493
-10.0834 8.9064 -1.5981 0.9472
-10.8618 8.9240 -1.6698 0.9449
-11.7145 8.9434 -1.7507 0.9424
-12.6553 8.9648 -1.8422 0.9394
-16.2179 9.0536 -2.2063 0.9279
-17.7970 8.3287 -2.3341 0.9239
-18.3859 7.0521 -2.3391 0.9237
14.8007 0.8931 -2.1009 0.9419
14.8121 1.4262 -2.1084 0.9417
14.8237 1.9639 -2.1187 0.9414
14.8588 3.6188 -2.1669 0.9401
14.8830 4.7731 -2.2146 0.9388
14.8955 5.3709 -2.2435 0.9380
14.9214 6.6191 -2.3129 0.9362
14.9488 7.9537 -2.3992 0.9339
13.9704 8.7669 -2.3369 0.9355
12.9527 8.7882 -2.2178 0.9387
12.0326 8.8076 -2.1128 0.9415
11.1947 8.8252 -2.0198 0.9440
3.1797 2.8977 -0.6095 0.9828
8.4493 8.8843 -1.7372 0.9517
7.3349 8.9080 -1.6350 0.9545
6.8243 8.9188 -1.5912 0.9556
5.8780 8.9390 -1.5158 0.9577
5.0132 8.9574 -1.4544 0.9594
3.4570 8.9837 -1.3639 0.9619
3.0960 8.9915 -1.3474 0.9623
2.7432 8.9991 -1.3330 0.9627
1.3921 9.0284 -1.2943 0.9638
1.0209 8.6661 -1.2364 0.9654
0.7088 8.6729 -1.2330 0.9655
0.3980 8.6797 -1.2311 0.9655
0.0877 8.6865 -1.2309 0.9655
-0.2229 8.6933 -1.2322 0.9655
-0.5345 8.7002 -1.2351 0.9654
-1.1641 8.7141 -1.2457 0.9651
-1.8080 8.7284 -1.2630 0.9646
-2.1375 8.7357 -1.2743 0.9643
-2.8169 8.7508 -1.3026 0.9635
-3.5308 8.7667 -1.3391 0.9625
-4.2875 8.7786 -1.3843 0.9613
-4.6878 8.7876 -1.4112 0.9606
-5.1045 8.7969 -1.4411 0.9597
-5.5398 8.8067 -1.4742 0.9588
-5.9962 8.8171 -1.5108 0.9578
-6.9840 8.8394 -1.5962 0.9555
-8.0962 8.8646 -1.7010 0.9527
-8.7106 8.8786 -1.7623 0.9510
-10.0862 8.9089 -1.9068 0.9471
-12.6594 8.9677 -2.1982 0.9392
-13.7061 8.9916 -2.3226 0.9359
-14.1163 8.5556 -2.3388 0.9355
-14.7038 7.5326 -2.3408 0.9354
-14.9746 7.0078 -2.3426 0.9354
-15.4627 5.9309 -2.3465 0.9353
-16.6914 5.7271 -2.5003 0.9312
14.8058 1.4257 -2.4504 0.9415
14.8172 1.9631 -2.4623 0.9412
14.8404 3.0573 -2.4961 0.9404
14.8522 3.6171 -2.5183 0.9399
14.5930 4.6800 -2.5246 0.9398
14.4214 5.2000 -2.5255 0.9397
13.9945 6.2079 -2.5221 0.9398
13.5031 7.1845 -2.5197 0.9399
12.9605 8.1331 -2.5207 0.9399
12.6229 8.5644 -2.5129 0.9400
12.0362 8.8102 -2.4573 0.9413
3.2984 2.7969 -0.7124 0.9826
8.4514 8.8865 -2.0203 0.9515
7.3366 8.9100 -1.9014 0.9543
6.8258 8.9208 -1.8505 0.9555
6.3411 8.9311 -1.8044 0.9566
5.8793 8.9409 -1.7628 0.9575
5.4378 8.9503 -1.7253 0.9584
5.0142 8.9593 -1.6914 0.9592
4.6064 8.9680 -1.6609 0.9600
3.0966 8.9932 -1.5669 0.9622
2.7438 9.0008 -1.5502 0.9626
2.3980 9.0083 -1.5357 0.9629
1.3924 9.0301 -1.5052 0.9636
0.0877 8.6881 -1.4314 0.9654
-1.1643 8.7157 -1.4486 0.9650
-1.8084 8.7300 -1.4687 0.9645
-2.4740 8.7448 -1.4972 0.9638
-2.8174 8.7525 -1.5147 0.9634
-3.1695 8.7604 -1.5347 0.9629
-3.5315 8.7685 -1.5573 0.9624
-4.2884 8.7804 -1.6098 0.9612
-5.5410 8.8087 -1.7144 0.9587
-6.4780 8.8299 -1.8041 0.9566
-6.9856 8.8415 -1.8563 0.9553
-7.5242 8.8538 -1.9141 0.9540
-8.0982 8.8669 -1.9783 0.9525
-9.3744 8.8961 -2.1290 0.9490
-10.0891 8.9114 -2.2176 0.9469
-11.3000 8.6270 -2.3421 0.9440
-12.1546 7.3666 -2.3414 0.9440
-12.4158 6.9311 -2.3425 0.9440
-12.8919 6.0332 -2.3449 0.9439
-13.1226 5.5788 -2.3491 0.9438
-14.3765 4.9328 -2.5039 0.9402
13.1396 0.7929 -2.4742 0.9478
13.0111 2.1992 -2.4803 0.9477
12.9372 2.6652 -2.4828 0.9477
12.7132 3.5818 -2.4826 0.9477
12.5865 4.0366 -2.4845 0.9476
12.4420 4.4863 -2.4860 0.9476
11.6845 6.2168 -2.4877 0.9476
10.9334 7.4182 -2.4834 0.9476
10.3562 8.1642 -2.4787 0.9477
3.1776 2.8959 -0.8081 0.9827
9.0667 8.8759 -2.3849 0.9497
8.4535 8.8887 -2.3057 0.9513
7.8790 8.9008 -2.2343 0.9528
5.4389 8.9522 -1.9689 0.9583
4.6073 8.9698 -1.8954 0.9598
4.2134 8.9782 -1.8641 0.9604
3.0972 8.9950 -1.7881 0.9620
2.7443 9.0026 -1.7690 0.9624
2.3984 9.0100 -1.7525 0.9628
2.0585 9.0174 -1.7385 0.9631
1.7236 9.0246 -1.7269 0.9633
1.3926 9.0318 -1.7177 0.9635
0.7091 8.6761 -1.6362 0.9652
0.3981 8.6829 -1.6338 0.9652
-0.2229 8.6965 -1.6352 0.9652
-0.5347 8.7034 -1.6390 0.9651
-1.1646 8.7173 -1.6531 0.9648
-2.1384 8.7390 -1.6911 0.9640
-2.4745 8.7465 -1.7085 0.9637
-2.8180 8.7542 -1.7286 0.9633
-3.5322 8.7702 -1.7771 0.9622
-3.9056 8.7787 -1.8060 0.9616
-4.6897 8.7913 -1.8728 0.9603
-5.1067 8.8007 -1.9125 0.9594
-5.9989 8.8210 -2.0051 0.9575
-8.1003 8.8691 -2.2577 0.9523
-9.0539 8.5920 -2.3461 0.9505
-9.9066 7.5632 -2.3427 0.9505
-10.1670 7.2021 -2.3419 0.9506
-10.8895 6.0790 -2.3441 0.9505
-12.2396 5.2034 -2.4998 0.9473
-12.6045 4.3249 -2.5047 0.9472
11.5478 0.6968 -2.4454 0.9538
11.5296 1.1102 -2.4484 0.9537
11.4941 1.5228 -2.4509 0.9537
11.4331 1.9325 -2.4510 0.9537
11.3677 2.3419 -2.4534 0.9537
10.9425 3.9456 -2.4588 0.9536
10.8010 4.3365 -2.4602 0.9535
10.6445 4.7218 -2.4615 0.9535
10.4591 5.0942 -2.4591 0.9536
10.2697 5.4641 -2.4589 0.9536
10.0713 5.8293 -2.4598 0.9535
9.3804 6.8662 -2.4573 0.9536
3.2987 2.7972 -0.9142 0.9825
3.1766 2.8949 -0.9085 0.9826
8.2937 8.1191 -2.4533 0.9537
7.9982 8.4099 -2.4533 0.9537
7.6816 8.6776 -2.4497 0.9537
5.4401 8.9541 -2.2147 0.9581
5.0163 8.9630 -2.1711 0.9589
4.6083 8.9717 -2.1320 0.9596
3.8296 8.9811 -2.0638 0.9609
3.4590 8.9890 -2.0359 0.9614
3.0978 8.9967 -2.0113 0.9618
2.3989 9.0117 -1.9712 0.9626
2.0589 9.0191 -1.9555 0.9629
1.3929 9.0335 -1.9321 0.9633
1.0215 8.6709 -1.8455 0.9649
0.7092 8.6777 -1.8404 0.9650
0.3982 8.6845 -1.8377 0.9651
-0.2230 8.6982 -1.8392 0.9651
-0.5348 8.7050 -1.8435 0.9650
-0.8484 8.7120 -1.8503 0.9648
-1.1648 8.7190 -1.8594 0.9647
-1.4847 8.7261 -1.8710 0.9645
-1.8091 8.7333 -1.8852 0.9642
-2.4749 8.7482 -1.9218 0.9635
-3.5329 8.7720 -1.9990 0.9621
-3.9064 8.7805 -2.0314 0.9615
-6.0003 8.8230 -2.2554 0.9573
-6.4811 8.8341 -2.3160 0.9562
-6.8990 8.7319 -2.3523 0.9555
-7.2018 8.4744 -2.3508 0.9556
-7.7768 7.9268 -2.3473 0.9556
-8.3144 7.3440 -2.3449 0.9557
-8.5670 7.0387 -2.3437 0.9557
-8.8121 6.7276 -2.3435 0.9557
-9.0483 6.4097 -2.3439 0.9557
-9.6873 5.4080 -2.3452 0.9557
-11.2081 3.8457 -2.5048 0.9527
10.2786 0.9897 -2.4269 0.9585
10.2473 1.3576 -2.4294 0.9584
10.1416 2.0893 -2.4336 0.9583
10.0649 2.4512 -2.4346 0.9583
9.4865 4.2082 -2.4390 0.9583
9.3344 4.5464 -2.4402 0.9582
9.1695 4.8787 -2.4411 0.9582
8.5913 5.8291 -2.4400 0.9582
3.2989 2.7973 -1.0165 0.9824
7.4120 7.2560 -2.4378 0.9583
7.1480 7.5160 -2.4377 0.9583
6.2917 8.2226 -2.4333 0.9583
5.0174 8.9650 -2.4145 0.9587
4.6093 8.9735 -2.3709 0.9594
4.2152 8.9819 -2.3318 0.9601
3.8304 8.9829 -2.2951 0.9607
3.0984 8.9985 -2.2367 0.9616
2.7454 9.0061 -2.2128 0.9621
2.0593 9.0208 -2.1746 0.9627
1.7242 9.0280 -2.1601 0.9629
1.0217 8.6725 -2.0524 0.9648
0.3983 8.6861 -2.0436 0.9649
0.0878 8.6930 -2.0432 0.9649
-0.5349 8.7067 -2.0501 0.9648
-0.8486 8.7136 -2.0576 0.9647
-1.4850 8.7277 -2.0807 0.9643
-1.8094 8.7350 -2.0965 0.9640
-2.1392 8.7424 -2.1153 0.9637
-2.8191 8.7577 -2.1623 0.9629
-3.1714 8.7656 -2.1908 0.9624
-3.5337 8.7738 -2.2230 0.9619
-3.9072 8.7823 -2.2591 0.9613
-4.2911 8.7859 -2.2980 0.9606
-4.6917 8.7950 -2.3428 0.9599
-5.0348 8.6769 -2.3577 0.9596
-5.3379 8.4859 -2.3561 0.9596
-5.6342 8.2848 -2.3547 0.9597
-6.2036 7.8518 -2.3518 0.9597
-6.7380 7.3775 -2.3482 0.9598
-7.7079 6.3329 -2.3445 0.9598
-7.9296 6.0538 -2.3447 0.9598
-8.7146 4.8650 -2.3457 0.9598
-9.6347 4.5088 -2.5001 0.9572
-9.9436 3.8140 -2.5030 0.9572
9.2882 0.5605 -2.4092 0.9623
9.2716 0.8928 -2.4117 0.9622
9.2405 1.2242 -2.4134 0.9622
9.1995 1.5550 -2.4157 0.9622
9.0801 2.2114 -2.4197 0.9621
9.0017 2.5361 -2.4214 0.9621
8.9033 2.8553 -2.4209 0.9621
8.6864 3.4875 -2.4235 0.9621
8.5604 3.7974 -2.4247 0.9620
8.4229 4.1024 -2.4257 0.9620
7.9360 4.9801 -2.4258 0.9620
7.7550 5.2616 -2.4265 0.9620
7.5635 5.5363 -2.4269 0.9620
7.3529 5.7966 -2.4242 0.9621
3.2990 2.7975 -1.1199 0.9823
3.1745 2.8930 -1.1121 0.9824
6.1995 7.0034 -2.4217 0.9621
5.6835 7.4278 -2.4216 0.9621
5.4086 7.6176 -2.4189 0.9621
4.8475 7.9786 -2.4172 0.9622
4.5589 8.1457 -2.4169 0.9622
3.9510 8.4190 -2.4079 0.9623
3.0235 8.7808 -2.4045 0.9624
2.7043 8.8712 -2.4013 0.9624
2.3850 8.9592 -2.4005 0.9624
1.7246 9.0298 -2.3802 0.9627
1.3934 9.0369 -2.3675 0.9629
1.0219 8.6742 -2.2614 0.9646
0.7095 8.6810 -2.2552 0.9647
-0.2231 8.7015 -2.2537 0.9647
-0.5350 8.7083 -2.2590 0.9646
-0.8487 8.7153 -2.2672 0.9645
-1.4852 8.7294 -2.2927 0.9641
-2.8022 8.7050 -2.3678 0.9629
-3.7098 8.3387 -2.3631 0.9630
-4.0027 8.1955 -2.3615 0.9630
-4.2871 8.0365 -2.3583 0.9631
-4.5686 7.8735 -2.3569 0.9631
-5.1126 7.5179 -2.3540 0.9631
-5.3744 7.3257 -2.3525 0.9632
-5.8748 6.9129 -2.3489 0.9632
-6.1144 6.6947 -2.3475 0.9632
-6.3459 6.4683 -2.3462 0.9633
-6.7893 5.9969 -2.3454 0.9633
-6.9991 5.7505 -2.3454 0.9633
-7.2003 5.4971 -2.3455 0.9633
-8.0538 4.4961 -2.3882 0.9626
-8.7479 4.0938 -2.5008 0.9609
-8.8932 3.7808 -2.5021 0.9609
-9.1500 3.1396 -2.5047 0.9608
8.3227 1.7146 -2.4056 0.9653
7.6601 3.7309 -2.4121 0.9652
7.5251 4.0038 -2.4131 0.9652
7.3799 4.2715 -2.4139 0.9652
7.2247 4.5337 -2.4146 0.9652
7.0597 4.7899 -2.4152 0.9652
6.8787 5.0350 -2.4132 0.9652
3.2992 2.7976 -1.2246 0.9822
6.0921 5.9638 -2.4134 0.9652
5.8711 6.1733 -2.4118 0.9652
5.6472 6.3795 -2.4119 0.9652
5.1772 6.7661 -2.4118 0.9652
4.9250 6.9366 -2.4083 0.9653
4.1541 7.4224 -2.4079 0.9653
3.0436 7.9093 -2.3991 0.9654
2.4663 8.0904 -2.3944 0.9654
2.1751 8.1709 -2.3937 0.9655
1.8812 8.2406 -2.3929 0.9655
1.5844 8.2954 -2.3908 0.9655
1.2854 8.3361 -2.3878 0.9655
0.6865 8.3995 -2.3858 0.9656
0.3858 8.4147 -2.3847 0.9656
0.0850 8.4190 -2.3835 0.9656
-0.2156 8.4124 -2.3823 0.9656
-0.8138 8.3567 -2.3769 0.9657
-1.1112 8.3177 -2.3756 0.9657
-1.7001 8.2075 -2.3728 0.9658
-2.8421 7.8553 -2.3649 0.9659
-3.1184 7.7427 -2.3630 0.9659
-3.3890 7.6177 -2.3603 0.9659
-4.1767 7.1981 -2.3559 0.9660
-4.9120 6.6954 -2.3508 0.9661
-5.5898 6.1204 -2.3465 0.9661
-6.0115 5.7047 -2.3461 0.9661
-6.2113 5.4864 -2.3461 0.9661
-6.4033 5.2610 -2.3461 0.9661
-6.7625 4.7904 -2.3461 0.9661
-7.8601 4.0267 -2.5001 0.9640
-8.2554 3.1665 -2.5031 0.9639
7.7481 0.4676 -2.3875 0.9680
7.6711 1.2966 -2.3929 0.9680
7.6257 1.5710 -2.3948 0.9679
7.5701 1.8436 -2.3964 0.9679
7.5043 2.1142 -2.3980 0.9679
7.3424 2.6475 -2.4007 0.9679
6.8992 3.6708 -2.4037 0.9678
6.7658 3.9161 -2.4045 0.9678
3.1724 2.8911 -1.3202 0.9822
5.5834 5.4658 -2.4032 0.9678
5.1799 5.8515 -2.4037 0.9678
4.9676 6.0328 -2.4037 0.9678
4.7487 6.2061 -2.4036 0.9678
4.2883 6.5214 -2.4007 0.9679
4.0525 6.6700 -2.4005 0.9679
3.8113 6.8099 -2.4003 0.9679
2.7938 7.2602 -2.3927 0.9680
2.2646 7.4288 -2.3887 0.9680
1.9971 7.5023 -2.3879 0.9680
1.7274 7.5665 -2.3872 0.9680
1.1806 7.6561 -2.3827 0.9681
0.6305 7.7149 -2.3808 0.9681
0.3544 7.7291 -2.3798 0.9681
0.0781 7.7333 -2.3787 0.9682
-0.1981 7.7275 -2.3776 0.9682
-1.5623 7.5424 -2.3691 0.9683
-1.8297 7.4775 -2.3678 0.9683
-2.0943 7.4029 -2.3663 0.9683
-2.3544 7.3140 -2.3633 0.9684
-2.8672 7.1191 -2.3606 0.9684
-3.1177 7.0079 -2.3592 0.9684
-3.3640 6.8878 -2.3577 0.9684
-3.6042 6.7563 -2.3553 0.9685
-3.8409 6.6195 -2.3539 0.9685
-4.0725 6.4742 -2.3525 0.9685
-4.2986 6.3208 -2.3511 0.9685
-4.5188 6.1595 -2.3497 0.9685
-4.7329 5.9904 -2.3482 0.9686
-5.3436 5.4466 -2.3469 0.9686
-5.5344 5.2521 -2.3468 0.9686
-5.8947 4.8431 -2.3466 0.9686
-6.3784 4.1844 -2.3463 0.9686
-7.4866 3.1828 -2.5022 0.9665
-7.5979 2.9143 -2.5030 0.9665
-7.6995 2.6419 -2.5038 0.9665
7.1451 0.4312 -2.3794 0.9703
7.1312 0.6867 -2.3814 0.9703
7.1078 0.9417 -2.3833 0.9702
7.0327 1.4488 -2.3868 0.9702
6.9199 1.9496 -2.3898 0.9702
6.7682 2.4405 -2.3916 0.9701
6.6801 2.6820 -2.3928 0.9701
6.5830 2.9202 -2.3939 0.9701
6.4771 3.1547 -2.3948 0.9701
6.1045 3.8307 -2.3956 0.9701
3.2996 2.7979 -1.4380 0.9819
3.1713 2.8901 -1.4263 0.9821
4.5830 5.5658 -2.3966 0.9701
3.9572 6.0178 -2.3941 0.9701
3.5171 6.2841 -2.3938 0.9701
3.0535 6.5065 -2.3891 0.9702
2.0926 6.8646 -2.3855 0.9702
1.5951 6.9870 -2.3823 0.9702
1.3441 7.0373 -2.3815 0.9703
1.0915 7.0783 -2.3807 0.9703
0.0721 7.1435 -2.3746 0.9703
-0.1830 7.1383 -2.3736 0.9703
-0.4376 7.1239 -2.3725 0.9704
-0.6915 7.1002 -2.3713 0.9704
-1.1950 7.0239 -2.3683 0.9704
-1.4437 6.9696 -2.3659 0.9704
-1.6908 6.9100 -2.3647 0.9705
-2.1773 6.7640 -2.3620 0.9705
-2.8821 6.4782 -2.3569 0.9706
-3.1099 6.3674 -2.3555 0.9706
-3.5523 6.1219 -2.3527 0.9706
-3.9750 5.8450 -2.3496 0.9706
-4.1788 5.6960 -2.3483 0.9707
-4.7623 5.2143 -2.3474 0.9707
-4.9451 5.0405 -2.3472 0.9707
-5.2915 4.6738 -2.3468 0.9707
-5.4547 4.4817 -2.3467 0.9707
-6.4306 3.8975 -2.4995 0.9688
-6.5675 3.6663 -2.5002 0.9688
-6.6962 3.4304 -2.5009 0.9688
-6.8164 3.1899 -2.5017 0.9688
6.6105 0.6366 -2.3749 0.9722
6.5577 1.1084 -2.3783 0.9721
6.4123 1.8066 -2.3823 0.9721
6.3472 2.0356 -2.3837 0.9721
6.2737 2.2621 -2.3849 0.9721
6.1918 2.4859 -2.3860 0.9721
5.7804 3.3457 -2.3884 0.9720
3.1524 2.8729 -1.5253 0.9820
4.4306 5.0052 -2.3904 0.9720
4.0597 5.3056 -2.3890 0.9720
3.4678 5.7077 -2.3883 0.9720
3.0508 5.9394 -2.3878 0.9720
2.1685 6.2978 -2.3819 0.9721
1.9418 6.3698 -2.3813 0.9721
1.4800 6.4830 -2.3780 0.9721
0.5405 6.6136 -2.3729 0.9722
-0.1699 6.6255 -2.3701 0.9722
-0.4062 6.6123 -2.3691 0.9722
-0.8764 6.5603 -2.3669 0.9723
-1.7971 6.3523 -2.3608 0.9723
-2.0217 6.2807 -2.3595 0.9724
-2.2436 6.2011 -2.3582 0.9724
-2.8884 5.9140 -2.3536 0.9724
-3.0961 5.8039 -2.3524 0.9724
-3.4985 5.5617 -2.3497 0.9725
-3.6928 5.4301 -2.3483 0.9725
-3.8844 5.2947 -2.3483 0.9725
-4.2515 5.0028 -2.3478 0.9725
-4.5971 4.6858 -2.3475 0.9725
-4.7612 4.5183 -2.3473 0.9725
-4.9192 4.3450 -2.3471 0.9725
-5.0709 4.1663 -2.3469 0.9725
-5.2161 3.9822 -2.3468 0.9725
-5.3552 3.7935 -2.3469 0.9725
-5.8438 3.8338 -2.4994 0.9707
-5.9785 3.6235 -2.5000 0.9707
-6.2251 3.1890 -2.5012 0.9707
-6.3367 2.9655 -2.5019 0.9707
-6.4403 2.7380 -2.5026 0.9707
6.1778 0.3728 -2.3718 0.9738
6.1361 0.8129 -2.3720 0.9738
6.1041 1.0318 -2.3724 0.9738
5.9695 1.6818 -2.3767 0.9738
5.7637 2.3141 -2.3801 0.9737
5.4874 2.9196 -2.3820 0.9737
5.3814 3.1148 -2.3828 0.9737
5.2682 3.3060 -2.3835 0.9737
5.0211 3.6753 -2.3845 0.9737
3.2319 2.7406 -1.6239 0.9820
3.0985 2.8237 -1.6065 0.9822
3.1070 3.0416 -1.6662 0.9815
4.1252 4.6601 -2.3850 0.9737
3.9562 4.8045 -2.3850 0.9737
3.7793 4.9392 -2.3833 0.9737
3.6006 5.0712 -2.3834 0.9737
3.2293 5.3151 -2.3833 0.9737
2.8411 5.5310 -2.3828 0.9737
2.6390 5.6232 -2.3804 0.9737
2.4345 5.7092 -2.3785 0.9738
2.2287 5.7917 -2.3781 0.9738
2.0200 5.8665 -2.3777 0.9738
1.5944 5.9893 -2.3751 0.9738
0.9436 6.1197 -2.3729 0.9738
0.7243 6.1475 -2.3721 0.9738
0.5037 6.1632 -2.3697 0.9739
-0.1583 6.1748 -2.3671 0.9739
-0.5982 6.1425 -2.3651 0.9739
-0.8168 6.1145 -2.3640 0.9739
-1.0342 6.0786 -2.3629 0.9739
-2.8874 5.4128 -2.3510 0.9741
-3.6251 4.9413 -2.3485 0.9741
-3.9678 4.6689 -2.3480 0.9741
-4.1316 4.5237 -2.3478 0.9741
-4.2901 4.3729 -2.3476 0.9741
-4.4431 4.2164 -2.3473 0.9741
-4.8677 3.7163 -2.3469 0.9741
-5.4542 3.5781 -2.4998 0.9724
-5.5796 3.3817 -2.5003 0.9724
-5.6980 3.1809 -2.5008 0.9724
-6.0099 2.5550 -2.5026 0.9724
-6.0991 2.3394 -2.5033 0.9724
-6.1804 2.1206 -2.5040 0.9724
5.7086 0.9649 -2.3695 0.9753
5.6273 1.3705 -2.3704 0.9753
5.5777 1.5714 -2.3717 0.9753
5.5207 1.7705 -2.3728 0.9753
5.3052 2.3534 -2.3753 0.9752
5.2198 2.5423 -2.3762 0.9752
5.0283 2.9104 -2.3778 0.9752
4.8101 3.2636 -2.3790 0.9752
4.6914 3.4339 -2.3794 0.9752
3.0673 3.0028 -1.7568 0.9816
3.1937 4.8567 -2.3790 0.9752
2.6553 5.1693 -2.3784 0.9752
2.0835 5.4145 -2.3744 0.9752
1.8885 5.4845 -2.3740 0.9752
1.6911 5.5473 -2.3735 0.9752
1.4915 5.6029 -2.3730 0.9753
1.0865 5.6887 -2.3703 0.9753
0.6772 5.7483 -2.3689 0.9753
0.4713 5.7670 -2.3681 0.9753
0.2648 5.7751 -2.3661 0.9753
0.0583 5.7789 -2.3653 0.9753
-0.1480 5.7751 -2.3644 0.9753
-0.5595 5.7452 -2.3625 0.9754
-0.7640 5.7191 -2.3615 0.9754
-1.3695 5.5969 -2.3583 0.9754
-1.5677 5.5417 -2.3571 0.9754
-1.7638 5.4794 -2.3559 0.9754
-1.9570 5.4091 -2.3542 0.9754
-2.1479 5.3331 -2.3531 0.9755
-2.3359 5.2504 -2.3519 0.9755
-2.7019 5.0649 -2.3494 0.9755
-2.8811 4.9652 -2.3495 0.9755
-3.0562 4.8585 -2.3491 0.9755
-3.2273 4.7456 -2.3488 0.9755
-3.5572 4.5022 -2.3484 0.9755
-3.7154 4.3719 -2.3482 0.9755
-3.8688 4.2360 -2.3479 0.9755
-4.0172 4.0948 -2.3477 0.9755
-4.2985 3.7968 -2.3473 0.9755
-5.2250 3.1668 -2.5006 0.9739
-5.5366 2.5910 -2.5019 0.9739
-5.7095 2.1899 -2.5027 0.9739
5.4204 0.3271 -2.3666 0.9766
5.4060 0.5206 -2.3669 0.9766
5.3558 0.9053 -2.3672 0.9766
5.3202 1.0960 -2.3673 0.9766
5.2777 1.2854 -2.3673 0.9766
5.2281 1.4730 -2.3672 0.9766
5.1746 1.6595 -2.3683 0.9766
5.0468 2.0262 -2.3701 0.9765
4.9731 2.2061 -2.3710 0.9765
4.8929 2.3832 -2.3719 0.9765
4.7132 2.7281 -2.3734 0.9765
4.5086 3.0590 -2.3745 0.9765
3.2093 2.7214 -1.8338 0.9818
3.0771 2.8042 -1.8144 0.9820
3.0279 2.9642 -1.8467 0.9817
3.7569 3.9503 -2.3759 0.9765
3.6135 4.0821 -2.3760 0.9765
3.3115 4.3278 -2.3749 0.9765
3.1549 4.4435 -2.3750 0.9765
2.9942 4.5533 -2.3750 0.9765
2.8295 4.6572 -2.3749 0.9765
2.4894 4.8465 -2.3745 0.9765
2.3138 4.9304 -2.3736 0.9765
2.1342 5.0052 -2.3714 0.9765
1.7710 5.1433 -2.3707 0.9765
1.5859 5.2022 -2.3702 0.9765
1.3988 5.2545 -2.3697 0.9766
1.2093 5.2971 -2.3680 0.9766
1.0191 5.3357 -2.3674 0.9766
0.6352 5.3918 -2.3661 0.9766
0.2485 5.4198 -2.3645 0.9766
-0.1389 5.4179 -2.3620 0.9766
-0.3321 5.4075 -2.3611 0.9766
-0.5249 5.3901 -2.3602 0.9766
-0.7168 5.3657 -2.3593 0.9767
-1.0971 5.2964 -2.3573 0.9767
-1.2850 5.2515 -2.3562 0.9767
-2.1921 4.9274 -2.3504 0.9767
-2.5378 4.7573 -2.3498 0.9767
-2.7057 4.6630 -2.3495 0.9768
-2.8702 4.5628 -2.3493 0.9768
-3.3406 4.2281 -2.3484 0.9768
-3.4890 4.1056 -2.3481 0.9768
-3.9071 3.7079 -2.3475 0.9768
-4.0367 3.5656 -2.3473 0.9768
-4.4569 3.4027 -2.4438 0.9758
-4.6809 3.3159 -2.5000 0.9753
-4.7971 3.1471 -2.5004 0.9753
-5.0111 2.7974 -2.5012 0.9753
-5.1087 2.6171 -2.5016 0.9753
-5.1997 2.4334 -2.5020 0.9753
-5.3619 2.0567 -2.5028 0.9753
5.0652 0.6711 -2.3651 0.9777
4.8071 1.7333 -2.3654 0.9777
4.7440 1.9047 -2.3663 0.9777
4.6747 2.0737 -2.3672 0.9777
4.4302 2.5642 -2.3694 0.9777
4.3368 2.7214 -2.3699 0.9777
4.2377 2.8752 -2.3704 0.9777
3.3343 2.6285 -1.9653 0.9815
3.1978 2.7116 -1.9408 0.9817
3.0661 2.7943 -1.9202 0.9819
3.5315 3.7133 -2.3720 0.9777
2.9660 4.1774 -2.3715 0.9777
2.8149 4.2806 -2.3715 0.9777
2.1759 4.6364 -2.3707 0.9777
1.8373 4.7746 -2.3681 0.9777
1.6654 4.8364 -2.3677 0.9777
1.3153 4.9411 -2.3668 0.9777
1.1376 4.9830 -2.3659 0.9777
0.9584 5.0181 -2.3648 0.9777
0.7784 5.0478 -2.3642 0.9777
0.4158 5.0876 -2.3628 0.9778
0.0515 5.0994 -2.3606 0.9778
-0.4938 5.0705 -2.3581 0.9778
-1.0321 4.9826 -2.3553 0.9778
-1.5571 4.8373 -2.3523 0.9779
-1.7281 4.7764 -2.3512 0.9779
-1.8972 4.7107 -2.3507 0.9779
-2.0640 4.6393 -2.3504 0.9779
-2.5475 4.3903 -2.3495 0.9779
-2.7024 4.2961 -2.3493 0.9779
-2.8538 4.1964 -2.3491 0.9779
-3.0015 4.0914 -2.3488 0.9779
-3.1454 3.9811 -2.3485 0.9779
-3.5520 3.6206 -2.3478 0.9779
-3.6787 3.4910 -2.3475 0.9779
-3.9457 3.2418 -2.3638 0.9777
-4.2928 3.2773 -2.5000 0.9765
-4.5170 2.9633 -2.5006 0.9765
-4.7181 2.6339 -2.5012 0.9765
-4.8098 2.4640 -2.5016 0.9765
-5.0477 1.9362 -2.5025 0.9765
-5.1143 1.7548 -2.5028 0.9764
4.8085 0.2901 -2.3629 0.9788
4.7954 0.4618 -2.3631 0.9788
4.7507 0.8030 -2.3633 0.9788
4.7190 0.9722 -2.3634 0.9788
4.6813 1.1401 -2.3634 0.9788
4.6380 1.3067 -2.3636 0.9788
4.5886 1.4716 -2.3637 0.9788
4.5330 1.6345 -2.3637 0.9788
4.4717 1.7953 -2.3637 0.9788
4.1742 2.4160 -2.3658 0.9787
4.0862 2.5642 -2.3663 0.9787
3.9923 2.7087 -2.3665 0.9787
3.3199 2.6172 -2.0737 0.9813
2.9338 3.8342 -2.3682 0.9787
2.3577 4.2127 -2.3680 0.9787
2.2055 4.2938 -2.3678 0.9787
1.8916 4.4362 -2.3656 0.9787
1.5697 4.5587 -2.3650 0.9787
1.4057 4.6111 -2.3646 0.9788
0.9035 4.7306 -2.3624 0.9788
0.7338 4.7587 -2.3618 0.9788
0.5632 4.7806 -2.3612 0.9788
0.3920 4.7964 -2.3606 0.9788
0.2204 4.8059 -2.3599 0.9788
-0.4656 4.7810 -2.3563 0.9788
-1.7903 4.4452 -2.3507 0.9789
-2.1025 4.3049 -2.3501 0.9789
-2.4038 4.1427 -2.3494 0.9789
-2.6929 3.9597 -2.3489 0.9789
-2.8323 3.8607 -2.3487 0.9789
-2.9681 3.7567 -2.3485 0.9789
-3.5870 3.1683 -2.3476 0.9789
-3.9001 3.2043 -2.4760 0.9778
-4.2628 2.7965 -2.5008 0.9775
-4.3604 2.6428 -2.5011 0.9775
-4.4526 2.4857 -2.5014 0.9775
-4.5390 2.3253 -2.5017 0.9775
-4.6946 1.9958 -2.5023 0.9775
4.5434 0.2742 -2.3613 0.9797
4.5310 0.4363 -2.3615 0.9797
4.5127 0.5979 -2.3616 0.9797
4.4887 0.7587 -2.3617 0.9797
4.3361 1.3906 -2.3623 0.9797
4.2257 1.6965 -2.3623 0.9797
4.1622 1.8463 -2.3622 0.9797
4.0934 1.9937 -2.3621 0.9797
4.0193 2.1385 -2.3619 0.9797
3.9414 2.2813 -2.3625 0.9797
3.8581 2.4210 -2.3629 0.9797
3.7700 2.5579 -2.3635 0.9797
3.1743 2.6917 -2.1591 0.9814
2.8980 3.5195 -2.3651 0.9797
2.7706 3.6209 -2.3653 0.9797
2.5051 3.8095 -2.3653 0.9797
2.3674 3.8965 -2.3652 0.9797
1.9365 4.1263 -2.3647 0.9797
1.6358 4.2508 -2.3629 0.9797
1.3277 4.3554 -2.3622 0.9797
1.1711 4.3993 -2.3618 0.9797
1.0130 4.4374 -2.3613 0.9797
0.8535 4.4688 -2.3602 0.9797
0.3703 4.5311 -2.3585 0.9797
-0.1164 4.5407 -2.3564 0.9797
-0.2784 4.5316 -2.3553 0.9797
-0.4399 4.5174 -2.3546 0.9798
-0.9196 4.4397 -2.3521 0.9798
-1.2339 4.3615 -2.3514 0.9798
-1.3887 4.3141 -2.3511 0.9798
-1.9880 4.0704 -2.3500 0.9798
-2.1318 3.9963 -2.3497 0.9798
-2.5461 3.7439 -2.3489 0.9798
-2.8063 3.5519 -2.3484 0.9798
-2.9311 3.4490 -2.3482 0.9798
-3.2825 3.1150 -2.3476 0.9798
-3.4674 3.0627 -2.4000 0.9794
-3.8310 2.9248 -2.5004 0.9785
-4.2103 2.3504 -2.5015 0.9785
-4.4391 1.8872 -2.5024 0.9785
-4.5635 1.5658 -2.5029 0.9785
4.2719 0.5660 -2.3602 0.9805
4.2494 0.7183 -2.3604 0.9805
4.1880 1.0200 -2.3608 0.9805
4.1492 1.1690 -2.3610 0.9805
4.1048 1.3164 -2.3610 0.9805
4.0003 1.6061 -2.3610 0.9805
3.6501 2.2905 -2.3602 0.9805
3.2498 2.5620 -2.2665 0.9813
3.1242 2.6492 -2.2435 0.9815
3.0143 2.7470 -2.2336 0.9816
2.8835 2.8228 -2.2101 0.9818
2.9727 3.1257 -2.3625 0.9805
2.8591 3.2298 -2.3625 0.9805
2.7419 3.3298 -2.3625 0.9805
2.3701 3.6043 -2.3626 0.9805
2.2398 3.6866 -2.3626 0.9805
1.9706 3.8365 -2.3623 0.9805
1.8322 3.9041 -2.3620 0.9805
1.1082 4.1631 -2.3595 0.9805
0.9587 4.1992 -2.3591 0.9805
0.6560 4.2545 -2.3577 0.9806
0.5036 4.2742 -2.3572 0.9806
0.3505 4.2884 -2.3566 0.9806
0.1970 4.2970 -2.3560 0.9806
-0.1102 4.2976 -2.3546 0.9806
-0.2635 4.2896 -2.3538 0.9806
-0.5687 4.2570 -2.3523 0.9806
-0.7203 4.2338 -2.3522 0.9806
-0.8710 4.2048 -2.3519 0.9806
-1.0205 4.1705 -2.3516 0.9806
-1.1686 4.1309 -2.3513 0.9806
-1.7442 3.9205 -2.3502 0.9806
-2.0192 3.7852 -2.3497 0.9806
-2.1529 3.7103 -2.3495 0.9806
-2.2838 3.6306 -2.3492 0.9806
-2.4117 3.5463 -2.3489 0.9806
-2.5365 3.4575 -2.3486 0.9806
-2.6581 3.3643 -2.3484 0.9806
-2.8909 3.1653 -2.3479 0.9806
-3.1128 2.9540 -2.3504 0.9806
-3.5274 2.8982 -2.5004 0.9794
-3.6290 2.7705 -2.5006 0.9794
-3.9881 2.2264 -2.5016 0.9794
-4.1378 1.9364 -2.5022 0.9794
-4.3226 1.4832 -2.5030 0.9794
4.0777 0.2461 -2.3585 0.9813
4.0507 0.5367 -2.3591 0.9813
4.0293 0.6811 -2.3593 0.9813
3.9710 0.9672 -2.3597 0.9813
3.9342 1.1084 -2.3598 0.9813
3.8921 1.2482 -2.3598 0.9813
3.8450 1.3864 -2.3598 0.9813
3.7930 1.5229 -2.3598 0.9813
3.7360 1.6573 -2.3597 0.9813
3.6743 1.7896 -2.3596 0.9813
3.5372 2.0473 -2.3596 0.9813
3.2975 2.4137 -2.3593 0.9813
3.2087 2.5295 -2.3590 0.9813
3.1148 2.6412 -2.3579 0.9813
2.9849 2.7202 -2.3316 0.9815
2.8617 2.8014 -2.3121 0.9817
2.7092 3.0606 -2.3599 0.9813
2.5984 3.1556 -2.3600 0.9813
2.4841 3.2465 -2.3601 0.9813
2.2461 3.4157 -2.3602 0.9813
1.8675 3.6358 -2.3598 0.9813
1.7363 3.6997 -2.3596 0.9813
1.4671 3.8125 -2.3585 0.9813
1.0504 3.9460 -2.3575 0.9813
0.9086 3.9802 -2.3571 0.9813
0.6219 4.0329 -2.3559 0.9813
0.4773 4.0517 -2.3554 0.9813
0.1868 4.0734 -2.3543 0.9813
0.0412 4.0764 -2.3536 0.9813
-0.3949 4.0555 -2.3525 0.9814
-0.6833 4.0161 -2.3520 0.9814
-1.1086 3.9185 -2.3512 0.9814
-1.2476 3.8759 -2.3509 0.9814
-1.5208 3.7760 -2.3503 0.9814
-1.6545 3.7189 -2.3500 0.9814
-2.2878 3.3641 -2.3488 0.9814
-2.4062 3.2799 -2.3486 0.9814
-2.5216 3.1915 -2.3483 0.9814
-3.0641 2.9078 -2.4389 0.9807
-3.2459 2.8671 -2.5004 0.9802
-3.5348 2.5040 -2.5010 0.9802
-3.6223 2.3764 -2.5012 0.9802
-3.7835 2.1121 -2.5017 0.9802
-3.9254 1.8370 -2.5022 0.9802
-3.9889 1.6958 -2.5025 0.9802
