ply
format ascii 1.0
element vertex 1318
property float32 x
property float32 y
property float32 z
property float32 I
end_header
11.7692 -2.2935 2.1143 0.9525
11.7798 -1.8609 2.1029 0.9527
20.8657 -2.5351 3.7063 0.9182
25.9628 -2.2155 4.5946 0.8996
29.9434 10.7335 5.6088 0.8788
29.9016 11.9419 5.6774 0.8774
25.6589 17.3523 5.4618 0.8818
23.7263 21.5657 5.6535 0.8779
8.5602 9.6478 2.2743 0.9490
7.9709 9.6585 2.2081 0.9504
2.2487 2.9325 0.6516 0.9851
5.9035 9.6972 2.0018 0.9549
5.4430 9.7062 1.9622 0.9558
4.1576 9.7318 1.8660 0.9579
3.7959 11.0032 2.0524 0.9538
3.0950 11.6042 2.1177 0.9524
2.6565 11.6137 2.1007 0.9528
2.2244 11.6232 2.0867 0.9531
0.5366 11.6615 2.0584 0.9537
0.1192 11.6713 2.0581 0.9537
-0.2775 10.8515 1.9140 0.9569
-0.6042 9.8369 1.7378 0.9608
-1.3325 9.9675 1.7732 0.9600
-1.6990 9.9767 1.7845 0.9597
-2.0706 9.9861 1.7983 0.9594
-2.4485 9.9957 1.8146 0.9591
-3.6323 10.0266 1.8804 0.9576
-4.0480 10.0377 1.9084 0.9570
-4.4770 10.0493 1.9399 0.9563
-4.9210 10.0614 1.9749 0.9555
31.3738 -13.5285 5.2341 0.8709
11.3183 -2.6290 1.7801 0.9541
11.3511 -1.7932 1.7605 0.9546
29.9823 17.2893 5.3021 0.8693
29.9683 18.7406 5.4148 0.8667
28.0017 22.0108 5.4563 0.8658
26.0580 22.0356 5.2279 0.8710
9.1731 9.6221 2.0366 0.9476
7.9596 9.6449 1.9157 0.9507
2.2454 2.9282 0.5653 0.9852
2.1154 2.9731 0.5590 0.9853
5.8960 9.6849 1.7370 0.9552
4.1526 9.7202 1.6193 0.9581
3.7507 9.7286 1.5973 0.9587
3.7844 10.9700 1.7777 0.9541
3.5372 11.5814 1.8551 0.9522
3.0914 11.5910 1.8378 0.9526
2.6826 11.7280 1.8431 0.9525
1.3906 11.7766 1.8166 0.9531
0.9658 11.7863 1.8117 0.9533
-0.6036 9.8260 1.5081 0.9609
-0.9582 9.8346 1.5137 0.9608
-1.3310 9.9564 1.5388 0.9602
-1.6971 9.9654 1.5486 0.9599
-2.4457 9.9843 1.5748 0.9593
-3.6279 10.0147 1.6318 0.9578
-4.4715 10.0370 1.6833 0.9565
32.9331 -21.8601 5.1474 0.8526
32.7215 -20.0716 4.9988 0.8565
32.3217 -16.7723 4.7419 0.8634
11.2734 -2.6186 1.5071 0.9544
11.2938 -1.7841 1.4889 0.9549
11.3040 -1.3734 1.4828 0.9551
27.1144 -2.3138 3.5437 0.8960
9.8259 9.5950 1.7884 0.9461
8.6497 9.7487 1.6971 0.9488
2.2421 2.9238 0.4798 0.9852
2.1121 2.9685 0.4744 0.9854
4.5609 9.7000 1.3958 0.9577
4.1477 9.7087 1.3748 0.9583
3.7463 9.7172 1.3562 0.9589
3.7731 10.9371 1.5066 0.9544
3.5331 11.5682 1.5751 0.9524
3.1271 11.7246 1.5802 0.9522
2.6841 11.7344 1.5675 0.9526
2.2476 11.7442 1.5571 0.9529
1.7936 11.6068 1.5294 0.9537
1.3891 11.7637 1.5425 0.9533
0.9647 11.7734 1.5383 0.9535
0.5422 11.7832 1.5360 0.9535
0.1189 11.6456 1.5166 0.9541
-0.2921 11.4202 1.4876 0.9550
-1.6951 9.9543 1.3149 0.9601
-2.0659 9.9635 1.3251 0.9598
-2.4429 9.9729 1.3371 0.9594
-3.1842 9.8798 1.3517 0.9590
-3.6237 10.0029 1.3854 0.9580
-4.0383 10.0136 1.4060 0.9574
33.8706 -28.1444 4.7288 0.8376
35.8788 -27.7050 4.8677 0.8333
32.9995 -23.6471 4.3594 0.8493
34.2270 -19.3453 4.2218 0.8537
34.2661 -17.7812 4.1455 0.8562
31.4467 -13.5599 3.6774 0.8713
32.9808 -12.8428 3.8006 0.8673
42.7162 -13.2036 4.8011 0.8354
11.2631 -2.6162 1.2417 0.9545
11.2734 -2.1969 1.2333 0.9548
11.2939 -1.3722 1.2217 0.9553
29.0278 24.5469 4.0822 0.8582
25.1171 24.5268 3.7697 0.8683
30.4431 31.9332 4.7376 0.8374
6.3590 9.6504 1.2410 0.9546
4.9815 9.6794 1.1690 0.9572
4.5555 9.6884 1.1496 0.9578
4.1429 9.6973 1.1324 0.9585
3.7420 9.7060 1.1170 0.9590
3.7619 10.9047 1.2387 0.9547
3.1236 11.7114 1.3016 0.9524
2.6811 11.7213 1.2912 0.9528
0.9637 11.7605 1.2671 0.9536
0.1187 11.6329 1.2492 0.9543
-0.2917 11.4077 1.2254 0.9551
-0.6022 9.8044 1.0548 0.9613
-2.0636 9.9523 1.0914 0.9599
-2.4402 9.9616 1.1013 0.9596
-2.8242 9.9712 1.1128 0.9592
-3.6194 9.9912 1.1411 0.9582
-4.9027 10.0241 1.1983 0.9561
33.9619 -28.2204 3.7380 0.8376
32.9828 -21.8931 3.3512 0.8531
33.3616 -20.4642 3.3131 0.8546
31.3066 -14.8492 2.9332 0.8701
33.0834 -12.8827 3.0054 0.8672
36.9140 -12.8738 3.3095 0.8548
45.9528 -12.4219 4.0297 0.8261
11.2530 -2.6139 0.9780 0.9547
11.2633 -2.1949 0.9714 0.9550
11.2838 -1.3709 0.9622 0.9554
13.2221 3.1917 1.1514 0.9469
46.6978 16.7392 4.1994 0.8194
30.9711 24.3450 3.3348 0.8537
27.3174 24.8298 3.1250 0.8623
21.7281 24.4888 2.7714 0.8768
9.4182 11.4123 1.2526 0.9423
2.1056 2.9594 0.3075 0.9855
5.4160 9.6582 0.9374 0.9565
4.5501 9.6770 0.9052 0.9580
3.7508 10.8726 0.9736 0.9549
2.6781 11.7084 1.0167 0.9529
2.2426 11.7183 1.0100 0.9532
1.3860 11.7380 1.0006 0.9537
0.9627 11.7478 0.9978 0.9538
0.1186 11.6203 0.9837 0.9544
-0.2957 11.5626 0.9791 0.9546
-0.6015 9.7938 0.8306 0.9614
-0.9550 9.8022 0.8337 0.9612
-1.3266 9.9234 0.8475 0.9606
-2.0380 9.8291 0.8498 0.9605
-2.3060 9.4139 0.8205 0.9618
-2.6689 9.4228 0.8291 0.9614
-3.1768 9.8571 0.8767 0.9593
-3.5333 9.7533 0.8782 0.9592
-4.2151 9.4614 0.8768 0.9593
-4.8967 10.0118 0.9435 0.9562
35.8004 -27.6445 2.8048 0.8342
32.8302 -21.7918 2.4435 0.8539
33.0859 -20.2951 2.4069 0.8559
34.1587 -19.3067 2.4331 0.8545
32.8499 -12.7918 2.1860 0.8682
41.9962 -12.9810 2.7258 0.8385
11.2636 -1.7794 0.7071 0.9553
13.1118 -0.6476 0.8141 0.9487
46.2063 -0.6272 2.8655 0.8309
46.2484 1.0270 2.8686 0.8308
46.2907 2.6869 2.8753 0.8304
46.3334 4.3568 2.8858 0.8299
13.7714 2.8071 0.8715 0.9452
46.6047 14.8474 3.0331 0.8220
46.6538 16.7235 3.0733 0.8199
30.8462 24.2467 2.4330 0.8545
27.2151 24.7368 2.2806 0.8630
9.4053 11.3967 0.9163 0.9425
2.2323 2.9111 0.2275 0.9854
6.3428 9.6258 0.7148 0.9549
5.4094 9.6464 0.6858 0.9566
4.1332 9.6748 0.6524 0.9587
3.7334 9.6837 0.6436 0.9593
3.7399 10.8408 0.7111 0.9551
3.5212 11.5292 0.7475 0.9528
3.1166 11.6854 0.7500 0.9527
2.6752 11.6955 0.7440 0.9531
1.7877 11.5688 0.7259 0.9542
1.3846 11.7253 0.7321 0.9538
0.9616 11.7351 0.7301 0.9539
0.5405 11.7449 0.7291 0.9540
0.1185 11.6078 0.7198 0.9545
-0.2971 11.6176 0.7206 0.9545
-0.6009 9.7832 0.6078 0.9615
-0.9539 9.7916 0.6101 0.9613
-2.0358 9.8182 0.6218 0.9606
-2.3034 9.4034 0.6004 0.9619
-2.6659 9.4122 0.6066 0.9616
-3.1732 9.8458 0.6415 0.9594
-3.5417 9.7766 0.6448 0.9592
-4.8908 9.9997 0.6903 0.9564
35.7616 -27.6145 1.7816 0.8345
33.2997 -20.4262 1.5404 0.8552
34.1249 -19.2876 1.5456 0.8548
31.2481 -16.2152 1.3882 0.8686
31.2592 -13.4791 1.3423 0.8726
32.9526 -12.8318 1.3944 0.8680
13.1078 -4.0516 0.5410 0.9466
11.2329 -2.6092 0.4547 0.9549
11.2640 -1.3685 0.4474 0.9556
13.6704 -0.6752 0.5397 0.9467
46.2079 1.0261 1.8225 0.8311
46.2500 2.6846 1.8268 0.8307
46.2926 4.3530 1.8334 0.8302
13.7330 1.7889 0.5461 0.9461
13.7460 2.2933 0.5495 0.9457
13.7591 2.8047 0.5537 0.9453
13.7724 3.3246 0.5587 0.9449
13.5432 4.3146 0.5605 0.9447
46.6100 16.7078 1.9524 0.8202
16.4695 7.2709 0.7099 0.9305
13.2981 7.0469 0.5934 0.9415
13.3499 9.0282 0.6355 0.9375
2.2291 2.9069 0.1444 0.9854
6.3347 9.6136 0.4540 0.9550
5.8592 9.6243 0.4443 0.9559
4.9636 9.6446 0.4277 0.9575
4.5394 9.6542 0.4207 0.9582
3.7291 9.6727 0.4088 0.9594
3.5173 11.5163 0.4748 0.9529
2.6388 11.5365 0.4667 0.9537
1.3657 11.5661 0.4592 0.9544
0.9485 11.5758 0.4580 0.9546
0.5331 11.5855 0.4573 0.9546
0.1184 11.5953 0.4572 0.9546
-0.2968 11.6050 0.4578 0.9546
-0.6002 9.7726 0.3861 0.9616
-2.3009 9.3929 0.3813 0.9620
-3.1696 9.8346 0.4074 0.9595
-3.5501 9.8000 0.4110 0.9591
-3.8026 9.4291 0.4009 0.9601
-4.2051 9.4389 0.4075 0.9595
-4.8849 9.9876 0.4384 0.9565
35.7229 -27.5846 0.7624 0.8348
32.7701 -21.7519 0.6644 0.8544
33.3705 -20.4696 0.6613 0.8550
33.0558 -12.8720 0.5992 0.8677
11.2228 -2.6068 0.1946 0.9550
11.2334 -2.1890 0.1933 0.9552
11.2438 -1.7762 0.1923 0.9555
11.2541 -1.3673 0.1915 0.9557
13.6584 -0.6746 0.2310 0.9468
13.1126 0.2912 0.2216 0.9489
13.7082 1.2890 0.2326 0.9464
13.7209 1.7873 0.2337 0.9461
13.7735 3.8511 0.2416 0.9444
13.7873 4.3924 0.2444 0.9438
16.1870 6.4647 0.2944 0.9326
14.3056 6.3156 0.2641 0.9394
13.8467 6.7147 0.2600 0.9403
14.3750 12.1560 0.3180 0.9275
9.0928 9.5379 0.2226 0.9486
8.4752 9.5520 0.2157 0.9502
2.2258 2.9027 0.0618 0.9855
6.3267 9.6015 0.1942 0.9550
5.8519 9.6124 0.1901 0.9560
5.3963 9.6229 0.1864 0.9568
3.7182 10.7779 0.1926 0.9554
3.5134 11.5035 0.2032 0.9530
3.0708 11.5138 0.2013 0.9534
2.6359 11.5239 0.1997 0.9538
2.2073 11.5339 0.1984 0.9541
0.5326 11.5731 0.1957 0.9547
-0.2965 11.5926 0.1959 0.9547
-0.9519 9.7705 0.1658 0.9615
-1.6858 9.8997 0.1696 0.9606
-2.0354 9.8166 0.1694 0.9607
-2.2983 9.3825 0.1632 0.9621
-2.6599 9.3911 0.1649 0.9617
-3.5586 9.8234 0.1765 0.9591
-3.7982 9.4181 0.1715 0.9602
-4.8790 9.9756 0.1876 0.9565
35.6843 -27.5548 -0.2538 0.8350
32.8908 -23.5691 -0.2278 0.8506
32.8533 -21.8071 -0.2220 0.8541
33.6482 -20.6400 -0.2222 0.8539
34.0575 -19.2495 -0.2203 0.8551
18.1917 -7.8444 -0.1115 0.9238
33.5046 -13.0468 -0.2024 0.8660
13.5574 -4.1906 -0.0799 0.9448
13.5431 -3.6610 -0.0790 0.9454
11.2129 -2.6045 -0.0648 0.9550
13.6065 -1.1611 -0.0769 0.9468
13.6189 -0.6726 -0.0768 0.9469
13.5944 -0.1845 -0.0765 0.9471
13.6685 1.2853 -0.0773 0.9466
13.6937 2.2846 -0.0782 0.9460
13.7331 3.8398 -0.0803 0.9446
13.7467 4.3794 -0.0812 0.9439
13.8655 7.9956 -0.0901 0.9380
13.8829 8.6816 -0.0922 0.9366
13.9010 9.4009 -0.0945 0.9351
13.6892 9.9894 -0.0954 0.9345
13.3793 11.3141 -0.0987 0.9323
13.9843 12.7109 -0.1064 0.9272
9.0796 9.5241 -0.0741 0.9487
7.8833 9.5524 -0.0697 0.9517
6.3188 9.5894 -0.0647 0.9551
5.8447 9.6006 -0.0633 0.9560
5.3898 9.6113 -0.0620 0.9569
4.9518 9.6217 -0.0609 0.9576
4.5288 9.6316 -0.0599 0.9583
4.1189 9.6413 -0.0590 0.9589
3.7207 9.6507 -0.0582 0.9595
3.0675 11.5011 -0.0670 0.9535
2.6331 11.5114 -0.0665 0.9539
2.2049 11.5214 -0.0660 0.9542
1.7819 11.5314 -0.0657 0.9544
0.9465 11.5510 -0.0653 0.9547
0.5320 11.5608 -0.0652 0.9548
-0.2962 11.5802 -0.0652 0.9547
-2.3992 9.7945 -0.0568 0.9605
-2.7766 9.8033 -0.0574 0.9601
-3.1624 9.8124 -0.0580 0.9596
-3.9647 9.8311 -0.0597 0.9585
-4.3842 9.8409 -0.0607 0.9578
33.8912 -28.1616 -1.2408 0.8383
35.6458 -27.5251 -1.2681 0.8351
32.6868 -23.4229 -1.1323 0.8514
32.7198 -21.7185 -1.1058 0.8546
33.3476 -20.4557 -1.1016 0.8551
17.7227 -8.4061 -0.5523 0.9245
19.2229 -7.4855 -0.5809 0.9208
13.5451 -4.1868 -0.3992 0.9448
13.5584 -3.6651 -0.3955 0.9453
11.2029 -2.6022 -0.3238 0.9550
11.2135 -2.1851 -0.3217 0.9553
11.2344 -1.3649 -0.3187 0.9557
13.6222 -1.1624 -0.3850 0.9468
13.6594 0.3033 -0.3847 0.9468
13.6717 0.7936 -0.3856 0.9467
13.6320 1.7757 -0.3871 0.9465
13.6944 2.7915 -0.3935 0.9456
13.7206 3.8363 -0.4012 0.9446
13.2871 5.8660 -0.4090 0.9435
13.7915 6.6879 -0.4316 0.9405
13.8580 9.3718 -0.4711 0.9352
13.9048 10.1467 -0.4847 0.9334
13.4720 10.5897 -0.4825 0.9337
13.9171 11.7688 -0.5132 0.9297
13.9392 12.6699 -0.5304 0.9274
9.0666 9.5103 -0.3700 0.9488
8.4515 9.5253 -0.3586 0.9503
2.2195 2.8944 -0.1027 0.9855
2.0898 2.9371 -0.1015 0.9857
6.3108 9.5773 -0.3230 0.9551
5.8375 9.5887 -0.3161 0.9561
5.3833 9.5997 -0.3099 0.9569
4.9459 9.6102 -0.3043 0.9577
4.5235 9.6204 -0.2993 0.9584
3.7164 9.6398 -0.2909 0.9595
3.6968 10.7159 -0.3192 0.9557
3.5056 11.4780 -0.3379 0.9531
2.6302 11.4988 -0.3321 0.9539
0.9455 11.5387 -0.3260 0.9547
-0.5983 9.7412 -0.2748 0.9617
-0.9499 9.7494 -0.2758 0.9616
-2.0268 9.7751 -0.2811 0.9608
-2.7735 9.7924 -0.2866 0.9601
-3.1589 9.8013 -0.2900 0.9596
-3.9599 9.8193 -0.2981 0.9585
-4.7463 9.7043 -0.3042 0.9577
33.9499 -28.2103 -2.2386 0.8380
32.6950 -21.7020 -1.9901 0.8546
33.5845 -20.6010 -1.9981 0.8540
17.9256 -9.3019 -1.0242 0.9223
17.9748 -8.5257 -1.0089 0.9234
18.1799 -7.8392 -1.0040 0.9238
13.5191 -4.7148 -0.7261 0.9443
13.5328 -4.1830 -0.7183 0.9448
11.2036 -2.1832 -0.5789 0.9553
11.2142 -1.7716 -0.5758 0.9555
11.3289 -1.3764 -0.5788 0.9553
13.6104 -1.1614 -0.6927 0.9468
13.6228 -0.6728 -0.6917 0.9468
13.6722 1.2856 -0.6964 0.9465
13.7099 2.7946 -0.7096 0.9455
13.7228 3.3126 -0.7159 0.9450
13.7492 4.3802 -0.7318 0.9438
13.7628 4.9334 -0.7415 0.9431
13.7767 5.5021 -0.7523 0.9423
13.7911 6.0885 -0.7645 0.9414
13.8060 6.6950 -0.7781 0.9404
13.8213 7.3242 -0.7933 0.9393
13.8539 8.6635 -0.8287 0.9367
13.8895 10.1356 -0.8720 0.9335
13.9087 10.9330 -0.8972 0.9316
13.9290 11.7789 -0.9251 0.9295
13.9507 12.6803 -0.9561 0.9273
9.7083 9.4801 -0.6882 0.9471
2.2163 2.8902 -0.1847 0.9855
2.0866 2.9327 -0.1825 0.9857
5.3767 9.5881 -0.5575 0.9569
4.9401 9.5988 -0.5475 0.9577
4.1095 9.6191 -0.5305 0.9590
3.7122 9.6288 -0.5233 0.9595
3.6862 10.6852 -0.5732 0.9557
3.0608 11.4759 -0.6023 0.9535
2.6273 11.4863 -0.5976 0.9539
2.2002 11.4965 -0.5936 0.9542
0.9445 11.5263 -0.5865 0.9547
0.1179 11.5458 -0.5856 0.9548
-0.2955 11.5555 -0.5862 0.9548
-1.2815 9.5856 -0.4904 0.9620
-1.6337 9.5937 -0.4935 0.9618
-1.9909 9.6019 -0.4973 0.9615
-3.1553 9.7902 -0.5216 0.9596
-4.3738 9.8177 -0.5451 0.9579
23.3045 -19.3646 -2.2217 0.8856
24.8195 -19.1652 -2.2992 0.8818
26.6286 -19.0817 -2.4020 0.8769
28.5604 -18.9576 -2.5135 0.8715
32.6476 -18.4526 -2.7497 0.8604
17.9202 -9.2991 -1.4803 0.9222
17.9577 -8.5176 -1.4573 0.9234
32.0398 -12.4764 -2.5211 0.8712
13.5341 -3.6585 -1.0280 0.9453
11.2043 -1.7700 -0.8317 0.9555
11.4585 -1.3921 -0.8463 0.9548
13.5984 -1.1604 -1.0007 0.9467
13.6355 0.3028 -1.0000 0.9468
13.6725 1.7810 -1.0110 0.9462
13.6850 2.2831 -1.0173 0.9459
13.6976 2.7921 -1.0250 0.9455
13.7104 3.3096 -1.0341 0.9450
13.7233 3.8370 -1.0448 0.9445
13.7500 4.9288 -1.0710 0.9431
13.7778 6.0826 -1.1043 0.9414
13.7924 6.6884 -1.1239 0.9404
13.8075 7.3169 -1.1458 0.9393
13.8394 8.6545 -1.1968 0.9366
13.8564 9.3707 -1.2265 0.9351
13.8742 10.1244 -1.2593 0.9334
13.9128 11.7651 -1.3360 0.9295
9.6939 9.4660 -0.9934 0.9471
8.4279 9.4987 -0.9311 0.9503
2.2131 2.8861 -0.2667 0.9855
2.0835 2.9283 -0.2635 0.9857
2.0496 3.1105 -0.2731 0.9852
5.8231 9.5651 -0.8211 0.9561
5.3703 9.5765 -0.8050 0.9569
4.9342 9.5874 -0.7906 0.9577
2.1978 11.4840 -0.8573 0.9542
1.7762 11.4942 -0.8528 0.9544
1.3584 11.5041 -0.8494 0.9546
0.9435 11.5140 -0.8471 0.9547
-0.5970 9.7203 -0.7141 0.9617
-1.3166 9.8484 -0.7285 0.9609
-2.4186 9.8735 -0.7453 0.9600
-2.7989 9.8820 -0.7531 0.9596
-3.5458 9.7879 -0.7633 0.9591
-4.8555 9.9276 -0.8103 0.9566
18.7577 -15.5865 -2.3414 0.9066
19.4828 -15.0443 -2.3632 0.9058
19.4088 -13.9081 -2.2924 0.9085
17.8031 -9.2383 -1.9256 0.9226
17.8242 -8.4543 -1.8939 0.9238
13.4943 -4.7061 -1.3720 0.9442
13.5083 -4.1754 -1.3574 0.9448
11.1619 -3.0173 -1.1101 0.9546
13.5865 -1.1594 -1.3091 0.9467
13.5990 -0.6717 -1.3072 0.9468
13.6113 -0.1848 -1.3069 0.9468
13.6236 0.3025 -1.3083 0.9467
13.6481 1.2833 -1.3161 0.9464
13.6605 1.7795 -1.3226 0.9461
13.7108 3.8336 -1.3668 0.9444
13.7238 4.3721 -1.3828 0.9438
13.7645 6.0767 -1.4445 0.9413
13.7936 7.3095 -1.4987 0.9392
13.8090 7.9629 -1.5304 0.9380
13.8249 8.6454 -1.5654 0.9366
13.8965 11.7514 -1.7472 0.9295
13.9622 14.6457 -1.9426 0.9219
13.1288 14.7969 -1.8991 0.9236
9.3161 11.2885 -1.4051 0.9429
2.2100 2.8819 -0.3487 0.9855
5.8159 9.5533 -1.0737 0.9561
4.9283 9.5760 -1.0339 0.9576
4.5077 9.5867 -1.0170 0.9583
4.1000 9.5970 -1.0019 0.9589
3.6651 10.6239 -1.0789 0.9558
3.0927 11.5957 -1.1522 0.9529
2.6548 11.6064 -1.1430 0.9533
1.7742 11.4817 -1.1154 0.9544
0.9544 11.6473 -1.1219 0.9541
0.5364 11.6572 -1.1203 0.9542
-0.2949 11.5307 -1.1074 0.9547
-1.3152 9.8377 -0.9529 0.9609
-1.6767 9.8459 -0.9589 0.9607
-3.1482 9.7680 -0.9853 0.9596
-3.5417 9.7766 -0.9983 0.9591
-4.3209 8.8346 -0.9442 0.9613
16.5988 -11.8945 -2.4257 0.9210
16.9381 -10.3900 -2.3604 0.9231
17.6631 -9.9833 -2.4101 0.9215
17.7857 -9.2293 -2.3802 0.9225
18.0447 -7.7809 -2.3342 0.9239
20.9240 -8.1480 -2.6673 0.9135
13.4819 -4.7018 -1.6960 0.9441
13.4960 -4.1716 -1.6780 0.9447
11.1630 -2.5929 -1.3613 0.9549
11.1738 -2.1774 -1.3523 0.9552
11.1845 -1.7669 -1.3450 0.9554
13.5870 -0.6710 -1.6159 0.9467
13.6116 0.3023 -1.6173 0.9466
13.6239 0.7908 -1.6210 0.9465
13.6361 1.2822 -1.6269 0.9463
13.6483 1.7778 -1.6349 0.9461
13.6606 2.2790 -1.6451 0.9457
13.6982 3.8300 -1.6896 0.9443
13.7110 4.3681 -1.7093 0.9437
13.7241 4.9195 -1.7318 0.9430
13.7375 5.4864 -1.7571 0.9422
13.7512 6.0708 -1.7855 0.9412
13.7652 6.6752 -1.8172 0.9402
13.8104 8.6363 -1.9348 0.9365
11.2086 8.8106 -1.6935 0.9442
9.7380 8.8513 -1.5632 0.9484
7.8991 8.9028 -1.4138 0.9532
2.2068 2.8778 -0.4308 0.9855
2.0772 2.9194 -0.4256 0.9857
2.0416 3.0983 -0.4408 0.9852
4.9224 9.5646 -1.2778 0.9576
4.5024 9.5754 -1.2569 0.9583
3.6995 9.5960 -1.2216 0.9594
3.6545 10.5934 -1.3311 0.9559
3.4900 11.4270 -1.4193 0.9530
3.0893 11.5828 -1.4240 0.9529
1.3555 11.4793 -1.3731 0.9545
0.9534 11.6348 -1.3867 0.9541
0.5359 11.6446 -1.3847 0.9541
0.1190 11.6545 -1.3845 0.9541
-0.5608 9.1298 -1.0865 0.9638
-0.8689 8.9185 -1.0644 0.9645
-1.8184 8.7701 -1.0639 0.9646
-2.4881 8.7848 -1.0846 0.9639
-2.8337 8.7923 -1.0973 0.9635
-3.5520 8.8078 -1.1281 0.9625
-3.9274 8.8157 -1.1464 0.9619
13.2964 -10.2673 -2.3803 0.9344
13.8691 -9.9384 -2.4176 0.9334
14.0615 -8.6254 -2.3373 0.9355
15.6895 -7.4417 -2.4604 0.9323
16.8739 -6.5707 -2.5657 0.9295
13.4694 -4.6974 -2.0212 0.9440
13.4836 -4.1678 -1.9997 0.9446
11.1417 -3.0118 -1.6353 0.9544
11.1529 -2.5906 -1.6223 0.9548
11.8692 -1.4420 -1.6941 0.9528
13.5626 -1.1573 -1.9287 0.9465
13.5750 -0.6705 -1.9258 0.9466
13.5874 -0.1844 -1.9254 0.9466
13.5996 0.3020 -1.9274 0.9465
13.6240 1.2811 -1.9389 0.9462
13.6484 2.2770 -1.9606 0.9456
13.6607 2.7846 -1.9754 0.9452
13.6730 3.3006 -1.9930 0.9448
13.6856 3.8265 -2.0135 0.9442
13.6983 4.3640 -2.0370 0.9436
13.7112 4.9149 -2.0638 0.9429
13.7805 7.9466 -2.2539 0.9378
12.9318 8.7455 -2.2120 0.9389
11.1896 8.7957 -2.0166 0.9441
9.0691 8.8560 -1.7960 0.9501
7.3491 8.9052 -1.6359 0.9544
2.2036 2.8737 -0.5131 0.9855
2.0740 2.9150 -0.5069 0.9857
3.1110 9.0182 -1.3517 0.9622
2.7570 9.0272 -1.3374 0.9626
2.0671 9.0374 -1.3136 0.9632
1.7311 9.0457 -1.3049 0.9635
1.3990 9.0538 -1.2981 0.9637
1.0700 9.0618 -1.2929 0.9638
0.7431 9.0696 -1.2894 0.9639
-0.2231 8.7244 -1.2366 0.9654
-0.8514 8.7388 -1.2441 0.9652
-1.1692 8.7460 -1.2502 0.9650
-1.4906 8.7532 -1.2581 0.9648
-2.4853 8.7749 -1.2922 0.9638
-3.1842 8.7898 -1.3246 0.9629
-4.3104 8.8131 -1.3901 0.9611
11.4623 -8.8510 -2.3857 0.9430
11.9284 -8.5477 -2.4175 0.9422
12.3921 -8.2255 -2.4503 0.9415
12.9045 -6.6964 -2.3951 0.9428
13.3304 -6.3228 -2.4305 0.9419
13.7501 -5.9291 -2.4668 0.9411
14.1811 -5.5221 -2.5071 0.9402
13.4568 -4.6931 -2.3478 0.9439
13.4712 -4.1640 -2.3228 0.9444
11.1316 -3.0091 -1.8996 0.9543
11.1428 -2.5883 -1.8845 0.9547
11.1646 -1.7637 -1.8620 0.9552
12.0144 -1.4597 -1.9938 0.9521
13.5505 -1.1563 -2.2404 0.9464
13.5753 -0.1843 -2.2366 0.9464
13.6118 1.2799 -2.2523 0.9461
13.6360 2.2749 -2.2774 0.9455
13.6482 2.7821 -2.2946 0.9451
13.6605 3.2975 -2.3151 0.9446
13.6729 3.8229 -2.3388 0.9441
13.6854 4.3599 -2.3662 0.9434
13.6982 4.9102 -2.3972 0.9427
13.7379 6.6619 -2.5152 0.9400
13.7662 7.9383 -2.6179 0.9376
13.7811 8.6180 -2.6777 0.9362
12.9077 8.7293 -2.5670 0.9388
11.9992 8.7563 -2.4471 0.9416
11.1706 8.7808 -2.3407 0.9440
8.4466 8.8602 -2.0166 0.9516
7.3389 8.8929 -1.8995 0.9543
2.2004 2.8695 -0.5957 0.9854
4.2217 8.9787 -1.6345 0.9606
3.8401 8.9888 -1.6103 0.9611
3.4692 8.9985 -1.5888 0.9617
3.1075 9.0079 -1.5698 0.9621
2.7539 9.0170 -1.5532 0.9625
2.0648 9.0274 -1.5256 0.9632
1.7292 9.0358 -1.5155 0.9634
1.0688 9.0519 -1.5016 0.9637
0.0926 9.0752 -1.4951 0.9639
-0.8505 8.7292 -1.4449 0.9651
-1.4889 8.7435 -1.4611 0.9647
-1.8144 8.7506 -1.4722 0.9644
-3.1805 8.7796 -1.5383 0.9629
-3.5436 8.7870 -1.5608 0.9623
-4.3052 8.8024 -1.6142 0.9611
10.0775 -7.7817 -2.3932 0.9495
11.2442 -5.8348 -2.3811 0.9497
11.9332 -5.1456 -2.4426 0.9485
12.2666 -4.7767 -2.4743 0.9478
12.5968 -4.3931 -2.5076 0.9471
11.1437 -2.1715 -2.1340 0.9548
12.1643 -1.4779 -2.3032 0.9513
13.5632 -0.1841 -2.5496 0.9463
13.5754 0.3015 -2.5523 0.9462
13.6237 2.2729 -2.5961 0.9453
13.6357 2.7795 -2.6157 0.9449
13.6479 3.2945 -2.6389 0.9445
13.6601 3.8194 -2.6660 0.9439
13.6725 4.3558 -2.6972 0.9433
13.6850 4.9055 -2.7325 0.9425
13.6978 5.4705 -2.7724 0.9417
13.7664 8.6088 -3.0518 0.9361
11.9778 8.7406 -2.7871 0.9414
11.1516 8.7658 -2.6661 0.9439
9.0415 8.8292 -2.3753 0.9499
8.4342 8.8471 -2.2975 0.9515
2.0295 3.0800 -0.6933 0.9851
5.0167 8.9461 -1.9278 0.9591
4.6098 8.9573 -1.8935 0.9598
4.2166 8.9680 -1.8627 0.9605
3.4651 8.9881 -1.8106 0.9616
2.7508 9.0068 -1.7701 0.9624
2.4027 9.0087 -1.7525 0.9628
2.0625 9.0173 -1.7387 0.9631
1.7273 9.0258 -1.7273 0.9633
1.0676 9.0420 -1.7113 0.9636
0.7415 9.0499 -1.7067 0.9637
-1.1666 8.7267 -1.6549 0.9648
-1.4873 8.7338 -1.6652 0.9646
-1.8124 8.7408 -1.6779 0.9643
-2.8239 8.7621 -1.7303 0.9632
-4.2999 8.7915 -1.8395 0.9610
9.3273 -6.6838 -2.4256 0.9542
9.9868 -6.1259 -2.4765 0.9532
10.8179 -4.2125 -2.4539 0.9536
11.1111 -3.0035 -2.4330 0.9540
11.1225 -2.5835 -2.4137 0.9544
11.1335 -2.1696 -2.3977 0.9547
11.1444 -1.7605 -2.3849 0.9549
12.3194 -1.4967 -2.6232 0.9505
12.8117 -1.0932 -2.7180 0.9488
13.0121 -0.6427 -2.7539 0.9481
13.1975 -0.1791 -2.7899 0.9475
13.3666 0.2968 -2.8261 0.9468
13.5187 0.7847 -2.8624 0.9461
13.5873 1.2777 -2.8847 0.9457
13.5992 1.7714 -2.8989 0.9455
13.6112 2.2708 -2.9169 0.9451
13.6231 2.7769 -2.9389 0.9447
13.6473 3.8158 -2.9954 0.9437
13.6719 4.9008 -3.0700 0.9423
13.6130 7.2138 -3.2566 0.9390
13.2725 8.3000 -3.3089 0.9380
12.8592 8.6965 -3.2814 0.9385
11.9563 8.7249 -3.1287 0.9413
10.3758 8.7742 -2.8723 0.9460
9.6769 8.7958 -2.7642 0.9479
9.0277 8.8156 -2.6672 0.9497
8.4216 8.8340 -2.5799 0.9513
7.8542 8.8522 -2.5015 0.9528
2.0645 2.9016 -0.7527 0.9855
2.0255 3.0738 -0.7781 0.9851
5.4321 8.9230 -2.2082 0.9582
5.0104 8.9349 -2.1654 0.9590
4.6042 8.9463 -2.1268 0.9597
2.7476 8.9965 -1.9884 0.9623
1.0665 9.0320 -1.9224 0.9635
0.7407 9.0399 -1.9172 0.9636
0.0924 9.0553 -1.9142 0.9637
-0.2224 8.6958 -1.8387 0.9651
-0.5345 8.7029 -1.8431 0.9650
-0.8486 8.7100 -1.8498 0.9649
-1.8103 8.7309 -1.8848 0.9642
-2.1404 8.7379 -1.9016 0.9639
-2.4768 8.7448 -1.9212 0.9635
-3.1730 8.7589 -1.9692 0.9626
-4.2946 8.7806 -2.0662 0.9608
7.8127 -6.4919 -2.3873 0.9591
8.1125 -6.2643 -2.4089 0.9588
8.9815 -5.5093 -2.4763 0.9576
9.2594 -5.2335 -2.4997 0.9572
9.5308 -4.9457 -2.5236 0.9568
9.1913 -4.3596 -2.3909 0.9591
9.4356 -4.0687 -2.4150 0.9587
9.9004 -3.4528 -2.4643 0.9578
10.3259 -2.7913 -2.5139 0.9570
10.5428 -2.4489 -2.5438 0.9565
10.9447 -1.7289 -2.6041 0.9555
11.4605 -0.5660 -2.6968 0.9539
11.6059 -0.1575 -2.7279 0.9534
11.7369 0.2607 -2.7591 0.9529
11.8525 0.6880 -2.7903 0.9524
12.0846 2.0161 -2.8794 0.9509
12.1317 2.4729 -2.9099 0.9504
12.1599 2.9353 -2.9399 0.9499
12.1686 3.4024 -2.9696 0.9494
12.1014 4.3379 -3.0213 0.9485
12.0492 4.8121 -3.0493 0.9481
11.9755 5.2869 -3.0766 0.9476
11.7476 6.2253 -3.1247 0.9468
10.8039 8.4925 -3.2297 0.9451
9.6614 8.7817 -3.0685 0.9478
9.0137 8.8020 -2.9609 0.9495
7.8428 8.8394 -2.7773 0.9526
7.3082 8.8557 -2.6985 0.9539
2.0613 2.8971 -0.8356 0.9855
5.4252 8.9116 -2.4520 0.9580
5.0041 8.9237 -2.4045 0.9588
4.5985 8.9353 -2.3618 0.9595
2.0579 8.9970 -2.1691 0.9628
1.7234 9.0055 -2.1549 0.9630
0.7399 9.0298 -2.1293 0.9635
-0.5340 8.6932 -2.0470 0.9648
-0.8476 8.7002 -2.0544 0.9647
-1.1640 8.7072 -2.0646 0.9645
-1.8083 8.7210 -2.0932 0.9641
-2.1379 8.7278 -2.1119 0.9638
-3.1692 8.7485 -2.1869 0.9625
-3.5309 8.7555 -2.2188 0.9620
-3.9037 8.7625 -2.2545 0.9614
7.6468 -5.4796 -2.4357 0.9619
7.9036 -5.2462 -2.4562 0.9616
8.3995 -4.7474 -2.4981 0.9609
8.4786 -4.0215 -2.4297 0.9620
8.9385 -3.1173 -2.4510 0.9616
9.1271 -2.8212 -2.4735 0.9613
9.4768 -2.2012 -2.5190 0.9606
9.9633 -1.2105 -2.5987 0.9594
10.1032 -0.8621 -2.6254 0.9590
10.5407 0.6119 -2.7338 0.9573
10.7442 2.1901 -2.8391 0.9557
10.7492 2.5948 -2.8631 0.9553
10.6837 3.8297 -2.9385 0.9542
10.6260 4.2438 -2.9626 0.9538
10.4470 5.0661 -3.0062 0.9532
10.3347 5.4766 -3.0283 0.9528
10.2035 5.8838 -3.0496 0.9525
10.0334 6.2744 -3.0640 0.9523
9.8627 6.6699 -3.0828 0.9520
9.2284 7.8039 -3.1292 0.9513
8.9882 8.1697 -3.1449 0.9511
8.7301 8.5249 -3.1593 0.9508
8.3964 8.8075 -3.1506 0.9510
7.8313 8.8265 -3.0552 0.9524
7.2978 8.8431 -2.9686 0.9537
2.0581 2.8925 -0.9191 0.9854
5.4182 8.9001 -2.6978 0.9579
4.5928 8.9242 -2.5987 0.9594
4.2013 8.9354 -2.5565 0.9600
3.4529 8.9563 -2.4853 0.9611
3.0931 8.9662 -2.4558 0.9616
2.7413 8.9757 -2.4299 0.9620
2.3944 8.9779 -2.4058 0.9623
1.3912 9.0036 -2.3589 0.9631
1.0641 9.0118 -2.3495 0.9632
0.7391 9.0197 -2.3432 0.9633
0.4154 9.0275 -2.3398 0.9633
0.0922 9.0351 -2.3395 0.9634
-0.2219 8.6764 -2.2472 0.9648
-0.5333 8.6834 -2.2525 0.9647
-1.1627 8.6973 -2.2719 0.9644
-1.4822 8.7041 -2.2861 0.9642
-1.8062 8.7109 -2.3034 0.9639
-2.8140 8.7312 -2.3752 0.9628
-4.2838 8.7586 -2.5245 0.9605
6.5340 -5.4294 -2.4050 0.9653
7.2370 -4.8037 -2.4590 0.9645
7.4615 -4.5769 -2.4780 0.9643
7.9670 -3.1023 -2.4204 0.9651
8.1401 -2.8389 -2.4405 0.9648
8.3053 -2.5671 -2.4609 0.9645
8.8816 -1.4031 -2.5455 0.9633
9.0108 -1.0948 -2.5697 0.9630
9.2372 -0.4562 -2.6182 0.9623
9.4862 0.5506 -2.6900 0.9613
9.5861 1.2487 -2.7367 0.9606
9.6173 1.6045 -2.7602 0.9603
9.6236 2.6908 -2.8289 0.9593
9.5459 3.4218 -2.8708 0.9587
9.4123 4.1553 -2.9127 0.9581
8.7793 5.9372 -3.0003 0.9569
8.2036 6.9372 -3.0414 0.9563
2.1841 2.8482 -1.0161 0.9852
2.0131 3.0551 -1.0358 0.9849
4.9914 8.9010 -2.8890 0.9585
4.1961 8.9243 -2.7917 0.9598
2.7380 8.9651 -2.6537 0.9618
1.3897 8.9933 -2.5762 0.9629
1.0629 9.0015 -2.5660 0.9630
0.7382 9.0095 -2.5591 0.9631
0.4149 9.0172 -2.5554 0.9632
0.0921 9.0248 -2.5550 0.9632
-0.2216 8.6665 -2.4542 0.9646
-0.8457 8.6805 -2.4690 0.9644
-1.1614 8.6874 -2.4812 0.9642
-1.4805 8.6941 -2.4967 0.9640
-2.1329 8.7075 -2.5379 0.9634
-2.4681 8.7141 -2.5639 0.9630
-2.8106 8.7207 -2.5938 0.9626
-3.1616 8.7274 -2.6278 0.9621
-3.5222 8.7340 -2.6660 0.9616
-3.8940 8.7407 -2.7089 0.9610
6.2498 -4.8260 -2.4287 0.9675
6.6705 -4.4277 -2.4626 0.9670
6.8728 -4.2158 -2.4799 0.9668
7.2591 -3.7669 -2.5154 0.9664
7.2237 -3.1149 -2.4196 0.9676
7.3128 -2.8476 -2.4138 0.9677
7.4667 -2.6040 -2.4322 0.9674
7.6126 -2.3530 -2.4508 0.9672
7.7504 -2.0950 -2.4694 0.9670
8.0004 -1.5590 -2.5070 0.9665
8.3187 -0.7098 -2.5679 0.9657
8.4096 -0.4154 -2.5898 0.9654
8.4898 -0.1152 -2.6115 0.9651
8.6629 0.8146 -2.6763 0.9642
8.6968 1.1329 -2.6975 0.9640
8.7256 1.7787 -2.7390 0.9634
8.6244 3.0915 -2.8180 0.9624
8.2911 4.3937 -2.8861 0.9615
8.1752 4.7142 -2.9026 0.9613
7.8998 5.3425 -2.9333 0.9609
7.5598 5.9424 -2.9576 0.9606
7.3742 6.2358 -2.9704 0.9604
7.1750 6.5216 -2.9823 0.9602
6.7274 7.0567 -2.9988 0.9600
2.1807 2.8438 -1.1023 0.9851
2.0515 2.8833 -1.0884 0.9853
2.0089 3.0488 -1.1230 0.9848
5.1305 8.4274 -3.0347 0.9596
3.4446 8.9347 -2.9453 0.9607
3.0857 8.9448 -2.9103 0.9612
2.3888 8.9568 -2.8512 0.9619
2.0508 8.9658 -2.8289 0.9622
1.7175 8.9745 -2.8105 0.9625
0.4144 9.0069 -2.7733 0.9630
-0.2214 8.6566 -2.6635 0.9644
-0.8447 8.6705 -2.6795 0.9642
-1.4788 8.6840 -2.7095 0.9638
-1.8020 8.6906 -2.7299 0.9635
-2.1304 8.6971 -2.7541 0.9632
-2.4651 8.7037 -2.7824 0.9629
-3.6610 8.2178 -2.7671 0.9631
5.5977 -4.6513 -2.4192 0.9698
5.7965 -4.4760 -2.4344 0.9696
6.5415 -3.6973 -2.4977 0.9688
6.7137 -3.4838 -2.5142 0.9686
6.8796 -3.2631 -2.5310 0.9684
6.7523 -2.6293 -2.4087 0.9699
7.0204 -2.1700 -2.4426 0.9695
7.1435 -1.9310 -2.4598 0.9693
7.3654 -1.4353 -2.4944 0.9689
7.7130 -0.3809 -2.5670 0.9680
7.7812 -0.1056 -2.5868 0.9677
7.8392 0.1741 -2.6065 0.9675
7.8868 0.4578 -2.6260 0.9672
7.9216 0.7449 -2.6448 0.9670
7.9476 1.0353 -2.6642 0.9668
7.9015 2.5173 -2.7565 0.9656
7.7183 3.4074 -2.8045 0.9651
7.5383 3.9946 -2.8358 0.9647
7.4289 4.2839 -2.8506 0.9645
7.3041 4.5676 -2.8636 0.9643
7.1649 4.8454 -2.8751 0.9642
7.0185 5.1216 -2.8881 0.9640
6.8596 5.3920 -2.9003 0.9639
6.6885 5.6560 -2.9117 0.9638
6.0976 6.3961 -2.9374 0.9634
5.6547 6.8520 -2.9531 0.9632
2.1774 2.8394 -1.1894 0.9850
2.0481 2.8786 -1.1743 0.9852
4.6457 7.6310 -2.9697 0.9630
4.3707 7.7940 -2.9703 0.9630
3.8035 8.0891 -2.9713 0.9630
3.5122 8.2211 -2.9716 0.9630
3.2152 8.3396 -2.9710 0.9630
2.2898 8.5855 -2.9536 0.9632
1.6622 8.6854 -2.9395 0.9634
1.3478 8.7218 -2.9336 0.9635
1.0325 8.7442 -2.9268 0.9636
0.7172 8.7525 -2.9191 0.9637
0.4019 8.7338 -2.9063 0.9638
0.0890 8.7151 -2.8971 0.9639
-0.8358 8.5787 -2.8651 0.9643
-1.1373 8.5073 -2.8530 0.9645
-1.7266 8.3274 -2.8269 0.9648
-2.2919 8.0921 -2.7957 0.9652
-2.5663 7.9626 -2.7809 0.9654
-2.8338 7.8225 -2.7656 0.9655
5.3992 -4.1691 -2.4394 0.9714
5.7511 -3.8174 -2.4685 0.9711
5.9194 -3.6310 -2.4833 0.9709
6.5347 -2.8178 -2.5449 0.9702
6.2662 -2.4400 -2.4047 0.9718
6.3897 -2.2284 -2.4200 0.9717
6.5075 -2.0114 -2.4358 0.9715
6.6180 -1.7890 -2.4516 0.9713
6.9819 -0.8483 -2.5152 0.9706
7.0521 -0.6018 -2.5310 0.9704
7.1149 -0.3514 -2.5474 0.9702
7.1736 -0.0974 -2.5656 0.9700
7.2229 0.1604 -2.5836 0.9698
7.2626 0.4216 -2.6016 0.9696
7.2925 0.6857 -2.6193 0.9694
7.3212 1.2214 -2.6543 0.9690
7.3197 1.4921 -2.6714 0.9688
7.3074 1.7639 -2.6882 0.9686
7.2838 2.0365 -2.7046 0.9684
7.1989 2.5805 -2.7348 0.9680
7.1419 2.8523 -2.7501 0.9679
6.9935 3.3914 -2.7795 0.9675
6.9020 3.6575 -2.7933 0.9674
6.7941 3.9178 -2.8046 0.9672
6.4176 4.6831 -2.8411 0.9668
6.2701 4.9286 -2.8520 0.9667
6.1116 5.1682 -2.8622 0.9666
5.9361 5.3955 -2.8686 0.9665
5.1615 6.2543 -2.8998 0.9661
2.1739 2.8350 -1.2776 0.9849
2.0448 2.8738 -1.2613 0.9851
2.0005 3.0359 -1.3002 0.9847
3.9887 7.1130 -2.9163 0.9660
3.7308 7.2493 -2.9156 0.9660
2.9339 7.6099 -2.9166 0.9659
2.6558 7.6984 -2.9122 0.9660
2.0908 7.8393 -2.9014 0.9661
1.5207 7.9458 -2.8930 0.9662
0.0814 7.9720 -2.8510 0.9667
-0.2032 7.9448 -2.8420 0.9668
-0.4855 7.9056 -2.8324 0.9669
-1.3143 7.7179 -2.7997 0.9673
-1.5827 7.6329 -2.7876 0.9674
-2.1047 7.4309 -2.7619 0.9677
-2.8427 7.0489 -2.7180 0.9682
4.8782 -4.0535 -2.4306 0.9732
5.0475 -3.8976 -2.4439 0.9731
5.5274 -3.3905 -2.4849 0.9726
5.6772 -3.2087 -2.4990 0.9725
5.8213 -3.0208 -2.5133 0.9723
6.0918 -2.6268 -2.5423 0.9720
6.0903 -2.3716 -2.5046 0.9724
5.9510 -2.0754 -2.4152 0.9734
6.2509 -1.4520 -2.4593 0.9729
6.4151 -1.0134 -2.4889 0.9726
6.4856 -0.7879 -2.5037 0.9724
6.5479 -0.5587 -2.5184 0.9722
6.6480 -0.0902 -2.5478 0.9719
6.6902 0.1486 -2.5645 0.9717
6.7477 0.6345 -2.5973 0.9714
6.7625 0.8809 -2.6134 0.9712
6.7676 1.1291 -2.6293 0.9710
6.7615 1.3783 -2.6444 0.9709
6.7210 1.8792 -2.6744 0.9705
6.6412 2.3806 -2.7036 0.9702
6.5858 2.6302 -2.7176 0.9701
6.5199 2.8784 -2.7312 0.9699
6.2558 3.6074 -2.7674 0.9695
5.7665 4.5328 -2.8108 0.9691
5.6140 4.7473 -2.8175 0.9690
5.4577 4.9607 -2.8263 0.9689
5.2920 5.1676 -2.8345 0.9688
4.7384 5.7416 -2.8528 0.9686
2.1704 2.8305 -1.3669 0.9848
2.0414 2.8691 -1.3494 0.9850
3.8927 6.3943 -2.8688 0.9684
3.6635 6.5329 -2.8703 0.9684
3.4263 6.6575 -2.8693 0.9684
2.9431 6.8889 -2.8708 0.9684
2.1806 7.1398 -2.8609 0.9685
1.6603 7.2586 -2.8535 0.9686
1.3976 7.3027 -2.8493 0.9687
1.1331 7.3328 -2.8434 0.9687
0.8677 7.3479 -2.8354 0.9688
0.3385 7.3568 -2.8222 0.9689
-0.1870 7.3131 -2.8034 0.9691
-0.4471 7.2789 -2.7947 0.9692
-0.9596 7.1784 -2.7754 0.9695
-1.2112 7.1125 -2.7649 0.9696
-1.7026 6.9507 -2.7424 0.9698
-2.1756 6.7506 -2.7180 0.9701
-2.4043 6.6370 -2.7052 0.9702
-2.6268 6.5136 -2.6915 0.9704
-2.8428 6.3812 -2.6771 0.9705
4.7342 -3.6557 -2.4480 0.9745
4.8870 -3.5020 -2.4607 0.9743
5.1787 -3.1766 -2.4865 0.9741
5.3171 -3.0052 -2.4997 0.9739
5.4501 -2.8281 -2.5130 0.9738
5.5775 -2.6455 -2.5265 0.9737
5.5639 -1.9404 -2.4117 0.9749
5.6609 -1.7498 -2.4250 0.9747
5.9146 -1.1525 -2.4662 0.9743
5.9853 -0.9455 -2.4800 0.9742
6.1040 -0.5209 -2.5073 0.9739
6.2233 0.1382 -2.5477 0.9735
6.2515 0.3629 -2.5629 0.9733
6.2712 0.5897 -2.5779 0.9731
6.2811 0.8182 -2.5924 0.9730
6.2602 1.5112 -2.6357 0.9725
6.2349 1.7433 -2.6496 0.9724
6.1560 2.2067 -2.6765 0.9721
5.8815 3.1167 -2.7242 0.9716
5.7900 3.3388 -2.7355 0.9715
5.6891 3.5577 -2.7462 0.9714
5.4594 3.9839 -2.7661 0.9712
5.3267 4.1870 -2.7730 0.9711
5.1898 4.3886 -2.7817 0.9711
4.3746 5.3008 -2.8129 0.9707
3.3828 6.0323 -2.8306 0.9706
2.9427 6.2584 -2.8304 0.9706
2.7173 6.3603 -2.8307 0.9705
2.4877 6.4524 -2.8303 0.9706
1.7746 6.6537 -2.8184 0.9707
1.5338 6.7056 -2.8153 0.9707
1.2912 6.7470 -2.8115 0.9707
0.3131 6.8024 -2.7870 0.9710
0.0694 6.7922 -2.7800 0.9711
-0.4137 6.7357 -2.7620 0.9713
-0.6524 6.6958 -2.7534 0.9713
-0.8885 6.6462 -2.7443 0.9714
-1.1217 6.5870 -2.7347 0.9715
-1.3516 6.5184 -2.7246 0.9716
-1.7998 6.3545 -2.7030 0.9719
-2.0174 6.2595 -2.6916 0.9720
-2.2302 6.1563 -2.6798 0.9721
-2.6401 5.9261 -2.6552 0.9723
-2.8366 5.7998 -2.6424 0.9725
4.7333 -3.1418 -2.4759 0.9755
4.8666 -2.9852 -2.4882 0.9754
4.9950 -2.8232 -2.5005 0.9753
5.1183 -2.6560 -2.5131 0.9752
5.4551 -2.1242 -2.5513 0.9748
5.3063 -1.8505 -2.4492 0.9758
5.3067 -1.6403 -2.4207 0.9761
5.3904 -1.4571 -2.4335 0.9759
5.4678 -1.2700 -2.4464 0.9758
5.5386 -1.0793 -2.4592 0.9757
5.7097 -0.4872 -2.4974 0.9753
5.7877 -0.0786 -2.5226 0.9751
5.8156 0.1291 -2.5352 0.9749
5.8508 0.5502 -2.5611 0.9747
5.8585 0.9774 -2.5885 0.9744
5.8499 1.1924 -2.6019 0.9743
5.8071 1.6237 -2.6279 0.9740
5.6154 2.4791 -2.6751 0.9736
5.2866 3.3059 -2.7174 0.9732
5.1828 3.5050 -2.7268 0.9731
4.9471 3.8887 -2.7424 0.9729
4.6826 4.2562 -2.7578 0.9728
4.5386 4.4319 -2.7646 0.9727
4.2282 4.7654 -2.7765 0.9726
4.0591 4.9185 -2.7793 0.9726
2.1634 2.8212 -1.5494 0.9846
1.9874 3.0161 -1.5741 0.9844
3.3335 5.4757 -2.7938 0.9724
2.7295 5.8049 -2.7956 0.9724
1.8716 6.1281 -2.7925 0.9724
1.6468 6.1746 -2.7850 0.9725
1.4233 6.2227 -2.7820 0.9725
1.1984 6.2617 -2.7785 0.9726
0.7452 6.3112 -2.7697 0.9727
0.5176 6.3163 -2.7620 0.9727
-0.6065 6.2257 -2.7261 0.9731
-0.8261 6.1794 -2.7171 0.9732
-1.8782 5.8277 -2.6685 0.9736
-2.0770 5.7333 -2.6576 0.9737
-2.2710 5.6315 -2.6463 0.9739
-2.6442 5.4065 -2.6229 0.9741
4.5848 -2.8123 -2.4897 0.9766
4.7044 -2.6589 -2.5013 0.9765
4.9287 -2.3378 -2.5251 0.9762
5.2025 -1.8143 -2.5504 0.9760
4.9890 -1.5420 -2.4171 0.9772
5.0654 -1.3693 -2.4289 0.9771
5.3119 -0.6454 -2.4769 0.9767
5.3574 -0.4571 -2.4889 0.9766
5.4277 -0.0737 -2.5126 0.9764
5.4521 0.1211 -2.5243 0.9762
5.4773 0.5150 -2.5465 0.9760
5.4829 0.7142 -2.5594 0.9759
5.4273 1.5175 -2.6085 0.9755
5.3932 1.7182 -2.6201 0.9754
5.2429 2.3146 -2.6528 0.9751
5.1769 2.5105 -2.6632 0.9750
5.0208 2.8953 -2.6828 0.9748
4.8324 3.2681 -2.7003 0.9746
4.3637 3.9663 -2.7296 0.9743
4.0869 4.2870 -2.7416 0.9742
3.9367 4.4369 -2.7456 0.9742
3.7810 4.5816 -2.7497 0.9742
2.1597 2.8165 -1.6429 0.9845
2.0308 2.8542 -1.6215 0.9847
1.9829 3.0092 -1.6681 0.9842
3.1041 5.0987 -2.7631 0.9740
2.7324 5.3093 -2.7640 0.9740
2.3468 5.4933 -2.7651 0.9740
1.7430 5.7068 -2.7620 0.9740
1.5352 5.7561 -2.7575 0.9741
1.3259 5.7969 -2.7526 0.9741
0.9058 5.8619 -2.7456 0.9742
0.4828 5.8917 -2.7363 0.9743
0.2710 5.8893 -2.7289 0.9743
-0.1501 5.8669 -2.7166 0.9745
-0.7713 5.7696 -2.6944 0.9747
-1.1738 5.6610 -2.6761 0.9748
-1.7548 5.4447 -2.6479 0.9751
-2.1229 5.2641 -2.6274 0.9753
-2.3004 5.1637 -2.6167 0.9754
4.0920 -2.9322 -2.4694 0.9778
4.2125 -2.7961 -2.4801 0.9777
4.5477 -2.3599 -2.5132 0.9774
4.6499 -2.2055 -2.5244 0.9773
4.9249 -1.7176 -2.5585 0.9770
4.8975 -0.9544 -2.4476 0.9780
4.9990 -0.6073 -2.4701 0.9778
5.0752 -0.2506 -2.4926 0.9776
5.1035 -0.0693 -2.5036 0.9775
5.1249 0.1138 -2.5145 0.9774
5.1478 0.6706 -2.5464 0.9771
5.1421 0.8579 -2.5572 0.9770
5.1314 1.0460 -2.5688 0.9769
5.0871 1.4224 -2.5910 0.9767
5.0542 1.6102 -2.6019 0.9766
4.9658 1.9832 -2.6229 0.9765
4.6990 2.7096 -2.6607 0.9761
4.6137 2.8852 -2.6692 0.9760
4.5194 3.0564 -2.6762 0.9760
4.4200 3.2254 -2.6840 0.9759
4.3135 3.3907 -2.6913 0.9759
4.2001 3.5518 -2.6981 0.9758
3.8201 4.0071 -2.7157 0.9756
3.6787 4.1461 -2.7189 0.9756
3.5339 4.2821 -2.7233 0.9756
2.1475 2.8005 -1.7311 0.9844
1.9522 2.9626 -1.7404 0.9843
2.7296 4.8676 -2.7374 0.9754
1.8193 5.2737 -2.7364 0.9755
1.6286 5.3324 -2.7349 0.9755
1.0437 5.4533 -2.7235 0.9756
0.4515 5.5091 -2.7114 0.9757
0.2536 5.5114 -2.7063 0.9757
-0.1404 5.4888 -2.6933 0.9758
-0.3358 5.4672 -2.6868 0.9759
-0.7220 5.4006 -2.6727 0.9760
-1.0992 5.3015 -2.6558 0.9762
-1.2841 5.2422 -2.6474 0.9762
-1.4659 5.1757 -2.6387 0.9763
-1.6444 5.1024 -2.6296 0.9764
-1.8194 5.0222 -2.6202 0.9765
-2.3200 4.7435 -2.5902 0.9767
3.7568 -2.9009 -2.4624 0.9788
3.8737 -2.7759 -2.4723 0.9788
3.9868 -2.6463 -2.4824 0.9787
4.0957 -2.5123 -2.4927 0.9786
4.2004 -2.3740 -2.5030 0.9785
4.3005 -2.2316 -2.5135 0.9784
4.5665 -1.0607 -2.4321 0.9791
4.6713 -0.7379 -2.4534 0.9789
4.7528 -0.4055 -2.4746 0.9787
4.8097 -0.0652 -2.4954 0.9786
4.8412 0.2810 -2.5158 0.9784
4.8473 0.4558 -2.5257 0.9783
4.8467 0.6314 -2.5356 0.9782
4.8394 0.8074 -2.5453 0.9781
4.7819 1.3370 -2.5759 0.9779
4.6113 2.0358 -2.6150 0.9775
4.4840 2.3762 -2.6326 0.9774
4.3278 2.7064 -2.6481 0.9773
4.2405 2.8678 -2.6557 0.9772
4.0459 3.1803 -2.6697 0.9771
3.9389 3.3309 -2.6761 0.9770
3.3125 4.0138 -2.6998 0.9768
2.0016 2.8132 -1.7911 0.9846
2.3925 4.6487 -2.7123 0.9767
2.2253 4.7327 -2.7131 0.9767
2.0548 4.8096 -2.7133 0.9767
1.7049 4.9420 -2.7121 0.9767
0.9784 5.1124 -2.7003 0.9768
0.6088 5.1558 -2.6933 0.9769
0.4233 5.1661 -2.6890 0.9769
0.2379 5.1688 -2.6843 0.9770
-1.0325 4.9798 -2.6384 0.9773
-1.2062 4.9240 -2.6300 0.9774
-1.3771 4.8621 -2.6216 0.9775
-1.5451 4.7942 -2.6131 0.9776
-1.8710 4.6395 -2.5952 0.9777
-2.0284 4.5531 -2.5859 0.9778
-2.1818 4.4610 -2.5762 0.9779
3.4489 -2.8658 -2.4560 0.9798
3.6729 -2.6319 -2.4748 0.9796
3.7792 -2.5085 -2.4844 0.9795
3.8816 -2.3810 -2.4941 0.9794
3.9799 -2.2495 -2.5039 0.9794
4.1634 -1.9748 -2.5238 0.9792
4.3284 -1.6854 -2.5440 0.9790
4.2629 -1.1523 -2.4186 0.9801
4.3187 -1.0031 -2.4283 0.9800
4.3698 -0.8515 -2.4384 0.9799
4.4904 -0.3832 -2.4684 0.9797
4.5192 -0.2232 -2.4782 0.9796
4.5589 0.1013 -2.4975 0.9794
4.5744 0.4301 -2.5165 0.9793
4.5656 0.7617 -2.5351 0.9791
4.5515 0.9278 -2.5441 0.9790
4.5053 1.2597 -2.5622 0.9789
4.4740 1.4253 -2.5717 0.9788
4.3917 1.7539 -2.5901 0.9787
4.1480 2.3919 -2.6225 0.9784
3.9885 2.6973 -2.6372 0.9783
3.7032 3.1315 -2.6562 0.9781
3.5962 3.2688 -2.6617 0.9781
3.4836 3.4017 -2.6668 0.9780
3.2410 3.6528 -2.6746 0.9780
3.1128 3.7719 -2.6785 0.9779
2.0857 2.7199 -1.8773 0.9845
1.9813 2.7847 -1.8718 0.9845
1.8771 2.8487 -1.8685 0.9846
2.5532 4.1940 -2.6893 0.9779
1.6018 4.6431 -2.6901 0.9778
1.4340 4.6952 -2.6888 0.9779
0.3980 4.8566 -2.6689 0.9780
0.2236 4.8597 -2.6645 0.9781
0.0496 4.8557 -2.6596 0.9781
-0.1238 4.8441 -2.6540 0.9781
-0.2964 4.8253 -2.6478 0.9782
-0.4677 4.8008 -2.6418 0.9782
-0.6376 4.7695 -2.6355 0.9783
-0.8058 4.7315 -2.6287 0.9783
-0.9718 4.6869 -2.6217 0.9784
-1.1356 4.6360 -2.6142 0.9785
-1.7628 4.3711 -2.5814 0.9787
-2.0574 4.2066 -2.5648 0.9789
3.3835 -2.6127 -2.4681 0.9804
3.4874 -2.4991 -2.4771 0.9804
3.6842 -2.2599 -2.4954 0.9802
3.8652 -2.0057 -2.5141 0.9801
4.1040 -1.5981 -2.5428 0.9799
4.1743 -1.4558 -2.5524 0.9798
4.2397 -1.3105 -2.5621 0.9797
4.0972 -1.1075 -2.4504 0.9806
4.0913 -0.9503 -2.4250 0.9808
4.1811 -0.6605 -2.4439 0.9806
4.2182 -0.5125 -2.4533 0.9806
4.2499 -0.3627 -2.4626 0.9805
4.2969 -0.0583 -2.4811 0.9803
4.3122 0.0958 -2.4902 0.9803
4.3218 0.2509 -2.4994 0.9802
4.3255 0.4068 -2.5083 0.9801
4.3234 0.5632 -2.5172 0.9801
4.3153 0.7200 -2.5259 0.9800
4.3012 0.8768 -2.5343 0.9799
4.2548 1.1897 -2.5507 0.9798
4.2226 1.3453 -2.5587 0.9797
3.9779 2.1080 -2.5992 0.9794
3.8382 2.4002 -2.6136 0.9793
3.7595 2.5425 -2.6203 0.9793
3.6750 2.6818 -2.6266 0.9792
3.5848 2.8179 -2.6326 0.9792
3.4891 2.9505 -2.6381 0.9791
3.1690 3.3241 -2.6515 0.9790
2.1990 2.6646 -1.9946 0.9842
1.9710 2.7702 -1.9629 0.9844
1.8674 2.8340 -1.9595 0.9844
2.4042 3.9491 -2.6693 0.9789
2.2625 4.0346 -2.6706 0.9789
1.8177 4.2548 -2.6713 0.9789
1.6642 4.3166 -2.6710 0.9789
1.5083 4.3721 -2.6702 0.9789
1.1906 4.4639 -2.6673 0.9789
0.8665 4.5277 -2.6615 0.9789
0.7029 4.5491 -2.6576 0.9790
0.5391 4.5657 -2.6543 0.9790
0.2107 4.5790 -2.6465 0.9791
0.0467 4.5758 -2.6419 0.9791
-0.4409 4.5259 -2.6254 0.9792
-0.6012 4.4970 -2.6194 0.9793
-0.9166 4.4205 -2.6065 0.9794
-1.0712 4.3732 -2.5995 0.9794
-1.3733 4.2610 -2.5847 0.9795
-1.6645 4.1274 -2.5695 0.9797
