ply
format ascii 1.0
element vertex 1662
property float32 x
property float32 y
property float32 z
property float32 I
end_header
-10.5741 -22.0827 4.3172 0.9053
-9.3934 -23.8607 4.5216 0.9011
-3.0146 -24.0554 4.2748 0.9062
16.0784 -45.4082 8.4938 0.8223
21.2891 -40.5573 8.0767 0.8302
27.1396 -15.3643 5.4991 0.8810
7.2764 -2.2550 1.3432 0.9695
7.2924 -1.6997 1.3203 0.9700
7.3004 -1.4284 1.3117 0.9702
20.3873 -2.4932 3.6216 0.9200
26.1375 17.6395 5.5601 0.8798
24.0993 20.3383 5.5604 0.8798
24.2176 23.6008 5.9626 0.8717
20.1859 24.4084 5.5850 0.8793
5.8071 9.5159 1.9657 0.9557
5.3565 9.5279 1.9273 0.9566
2.9419 9.5937 1.7694 0.9601
2.5732 9.6040 1.7532 0.9604
2.2107 9.6142 1.7395 0.9607
1.8534 9.6243 1.7282 0.9610
1.5003 9.6343 1.7193 0.9612
1.1503 9.6444 1.7126 0.9613
0.8026 9.6544 1.7082 0.9614
0.4563 9.6645 1.7060 0.9615
0.1104 9.6746 1.7060 0.9615
-10.5977 -22.1319 3.7591 0.9055
-9.4007 -23.8792 3.9314 0.9014
-8.4380 -23.9089 3.8841 0.9025
-6.5602 -23.9136 3.7988 0.9045
-5.6464 -23.9027 3.7625 0.9054
-4.7563 -23.9295 3.7376 0.9060
-3.8915 -24.0469 3.7318 0.9061
-3.0168 -24.0730 3.7167 0.9065
-2.1481 -24.0988 3.7064 0.9067
-0.4791 -27.5826 4.2261 0.8944
1.9999 -36.8835 5.6586 0.8612
16.0687 -45.3810 7.3751 0.8230
17.8313 -45.1572 7.4376 0.8216
21.2865 -44.3362 7.5343 0.8195
25.4814 -41.1064 7.4090 0.8222
28.8415 -22.3012 5.5851 0.8628
30.7382 -22.0576 5.7959 0.8580
27.1823 -15.3884 4.7852 0.8813
27.2279 -14.1532 4.7010 0.8832
7.2528 -2.8303 1.1927 0.9690
7.2612 -2.5383 1.1784 0.9694
7.2856 -1.6981 1.1460 0.9702
22.8743 -2.7974 3.5303 0.9110
26.2768 23.8361 5.4349 0.8663
23.0045 24.0816 5.1019 0.8739
21.8780 24.6070 5.0442 0.8753
18.8236 24.4945 4.7325 0.8825
20.1093 30.4478 5.5899 0.8627
4.3211 11.1712 1.8349 0.9527
2.5712 9.5967 1.5220 0.9606
2.2091 9.6069 1.5101 0.9609
1.8520 9.6171 1.5004 0.9611
1.1495 9.6373 1.4868 0.9615
0.8021 9.6473 1.4830 0.9616
0.4560 9.6574 1.4811 0.9616
0.1103 9.6675 1.4811 0.9616
-8.4444 -23.9270 3.3042 0.9027
-7.4862 -23.9034 3.2618 0.9039
-6.5650 -23.9314 3.2315 0.9047
-5.6506 -23.9203 3.2007 0.9056
-4.7598 -23.9471 3.1794 0.9062
-3.8943 -24.0644 3.1745 0.9063
-3.0190 -24.0905 3.1616 0.9067
-2.1497 -24.1162 3.1529 0.9070
-1.3956 -26.2412 3.4220 0.8994
0.5108 -27.7554 3.6149 0.8941
9.1017 -45.5454 6.0482 0.8292
12.4802 -45.3101 6.1201 0.8273
29.7268 -28.5672 5.3688 0.8468
32.8770 -29.4068 5.7440 0.8370
28.8090 -22.2760 4.7422 0.8634
30.1425 -20.0370 4.7133 0.8642
30.1842 -18.5435 4.6131 0.8668
27.1543 -15.3725 4.0634 0.8817
27.2053 -14.1415 3.9927 0.8837
30.0333 -12.9760 4.2604 0.8764
7.2707 -1.9713 0.9810 0.9701
7.2868 -1.4258 0.9669 0.9705
26.7645 24.2786 4.7056 0.8644
24.7350 34.6871 5.5478 0.8421
16.2067 24.5387 3.8295 0.8881
15.0354 24.6381 3.7586 0.8901
20.3557 36.2078 5.4090 0.8457
5.3524 11.3510 1.6342 0.9506
4.8698 11.3640 1.6100 0.9514
3.9434 11.3892 1.5695 0.9525
2.2074 9.5998 1.2827 0.9610
1.8507 9.6100 1.2744 0.9613
1.1486 9.6302 1.2629 0.9616
0.4556 9.6504 1.2581 0.9618
-0.2805 11.5142 1.4998 0.9546
-10.3539 -23.7694 2.7840 0.9010
-9.3693 -23.7994 2.7465 0.9022
-8.4096 -23.8286 2.7134 0.9033
-6.5699 -23.9491 2.6667 0.9049
-4.7632 -23.9646 2.6237 0.9064
-3.8782 -23.9648 2.6069 0.9070
-3.0065 -23.9906 2.5963 0.9073
-1.4425 -27.1232 2.9167 0.8965
-0.4798 -27.6265 2.9670 0.8948
0.5112 -27.7754 2.9831 0.8943
7.6889 -47.2034 5.1356 0.8250
9.1288 -45.6812 5.0024 0.8291
14.3717 -45.7233 5.1467 0.8246
16.0934 -45.4507 5.1775 0.8237
18.0731 -45.7696 5.2841 0.8204
32.1498 -35.6547 5.1553 0.8244
31.5120 -28.1859 4.5399 0.8436
28.7767 -22.2511 3.9061 0.8639
28.9831 -20.7981 3.8307 0.8663
30.2225 -18.5671 3.8088 0.8670
27.5347 -13.0841 3.2736 0.8846
7.2389 -2.8249 0.8344 0.9692
7.2557 -2.2486 0.8157 0.9699
7.2640 -1.9694 0.8082 0.9702
7.2721 -1.6950 0.8018 0.9704
9.2158 2.2161 1.0178 0.9626
9.8168 3.1178 1.1060 0.9594
9.6715 3.4570 1.1029 0.9595
42.9658 20.7862 5.1253 0.8253
43.0299 22.7508 5.2267 0.8222
23.1959 24.2819 3.6059 0.8736
18.7904 24.4514 3.3114 0.8833
16.1670 24.4786 3.1501 0.8887
14.9594 24.5136 3.0837 0.8909
5.8458 11.3285 1.3689 0.9500
5.3482 11.3421 1.3465 0.9508
4.8660 11.3552 1.3266 0.9515
3.9404 11.3806 1.2932 0.9527
2.5674 9.5824 1.0653 0.9609
2.2058 9.5927 1.0570 0.9612
0.4552 9.6434 1.0367 0.9619
0.1102 9.6535 1.0367 0.9619
-10.6681 -22.2789 2.0910 0.9056
-9.7409 -22.3622 2.0648 0.9067
-8.8145 -22.3903 2.0370 0.9079
-6.1641 -22.4699 1.9724 0.9107
-5.3181 -22.5127 1.9582 0.9113
-4.4821 -22.5501 1.9463 0.9118
-3.0087 -24.0079 2.0482 0.9074
-2.1423 -24.0334 2.0426 0.9077
-1.4686 -27.6132 2.3408 0.8949
0.5092 -27.6711 2.3428 0.8949
7.6874 -47.1940 4.0477 0.8253
9.0915 -45.4945 3.9274 0.8301
31.0590 -37.0256 4.0911 0.8237
29.5823 -30.5369 3.5991 0.8431
29.7841 -28.6222 3.4968 0.8472
31.6914 -28.3463 3.5993 0.8431
31.8078 -26.4652 3.5028 0.8470
29.0788 -20.8668 3.0298 0.8662
30.0784 -19.9944 3.0575 0.8650
30.1911 -18.5478 2.9995 0.8674
27.2174 -15.4083 2.6476 0.8820
30.1494 -13.0262 2.7803 0.8765
7.2572 -1.9676 0.6365 0.9703
9.6637 -1.5343 0.8283 0.9615
42.2049 -2.1186 3.5773 0.8440
42.2510 -0.6079 3.5770 0.8440
9.6399 1.9563 0.8327 0.9613
9.7953 2.7294 0.8608 0.9600
9.8200 3.5101 0.8828 0.9590
9.6263 3.8344 0.8772 0.9593
42.9222 20.7651 4.0363 0.8258
42.9853 22.7272 4.1161 0.8227
9.3748 7.3542 1.0087 0.9533
9.3911 7.9255 1.0402 0.9519
26.6955 24.2160 3.0511 0.8653
23.1687 24.2534 2.8394 0.8740
21.6277 24.3254 2.7554 0.8775
5.8412 11.3195 1.0783 0.9502
5.3440 11.3331 1.0607 0.9509
3.9374 11.3720 1.0187 0.9528
2.9331 9.5648 0.8469 0.9606
1.8480 9.5959 0.8273 0.9615
1.4959 9.6061 0.8230 0.9617
1.1470 9.6162 0.8198 0.9619
0.8003 9.6263 0.8177 0.9620
-9.7484 -22.3794 1.5137 0.9068
-7.9176 -22.4343 1.4753 0.9091
-7.0343 -22.4607 1.4595 0.9100
-6.1686 -22.4865 1.4459 0.9108
-5.3179 -22.5117 1.4344 0.9115
-4.4794 -22.5366 1.4248 0.9120
-3.6510 -22.5611 1.4172 0.9125
-1.4696 -27.6329 1.7159 0.8950
0.5096 -27.6908 1.7174 0.8949
1.5030 -27.7198 1.7214 0.8947
7.6892 -47.2052 2.9658 0.8256
31.0281 -36.9887 2.9938 0.8241
28.6654 -23.8506 2.3124 0.8612
28.5666 -22.0886 2.2392 0.8653
30.0466 -19.9733 2.2373 0.8654
30.0920 -18.4870 2.1900 0.8680
27.3625 -13.0023 1.8786 0.8857
7.2337 -2.5287 0.4752 0.9698
7.2422 -2.2444 0.4702 0.9701
7.2669 -1.4219 0.4592 0.9708
9.6550 -1.5329 0.6062 0.9616
9.6656 -1.1820 0.6038 0.9617
9.6762 -0.8334 0.6022 0.9618
9.2181 -0.4627 0.5723 0.9637
9.7628 1.9813 0.6177 0.9609
9.7743 2.3504 0.6234 0.9605
9.8106 3.5067 0.6460 0.9591
9.5759 4.2170 0.6488 0.9589
12.7066 7.3113 0.9091 0.9429
9.3669 6.8213 0.7185 0.9546
9.9668 8.4114 0.8087 0.9491
5.3398 11.3243 0.7764 0.9511
3.3055 9.5469 0.6265 0.9603
2.9309 9.5576 0.6199 0.9607
2.5636 9.5682 0.6143 0.9611
2.2025 9.5787 0.6095 0.9614
0.7997 9.6194 0.5986 0.9621
0.4546 9.6295 0.5978 0.9621
0.1100 9.6396 0.5978 0.9621
-10.7108 -22.3682 0.9779 0.9055
-8.8574 -22.4991 0.9534 0.9077
-7.9235 -22.4511 0.9388 0.9091
-6.1732 -22.5029 0.9201 0.9108
-5.3217 -22.5281 0.9128 0.9115
-2.8324 -22.6015 0.8982 0.9128
-2.0168 -22.6255 0.8957 0.9131
-1.4707 -27.6526 1.0919 0.8951
-0.4808 -27.6816 1.0917 0.8951
1.5041 -27.7397 1.0954 0.8948
30.8961 -36.8314 1.8956 0.8249
29.6143 -28.4591 1.6195 0.8484
31.6168 -28.2796 1.6726 0.8438
28.7616 -23.9307 1.4753 0.8609
28.9080 -20.7442 1.4030 0.8672
30.0150 -19.9523 1.4212 0.8656
27.0441 -15.3102 1.2254 0.8830
27.1163 -14.0952 1.2051 0.8848
7.2270 -2.5264 0.3019 0.9698
7.2603 -1.4206 0.2917 0.9708
9.6463 -1.5316 0.3851 0.9617
9.6675 -0.8327 0.3826 0.9619
9.6781 -0.4858 0.3821 0.9620
42.2217 0.9029 1.6652 0.8445
42.2681 2.4182 1.6694 0.8441
9.7316 1.2593 0.3869 0.9615
9.7427 1.6168 0.3894 0.9612
9.7538 1.9794 0.3924 0.9609
9.7653 2.3482 0.3960 0.9606
9.7769 2.7243 0.4002 0.9602
9.8011 3.5034 0.4104 0.9592
9.8268 4.3275 0.4234 0.9579
9.5170 4.6042 0.4169 0.9586
11.3560 6.5342 0.5166 0.9489
9.3647 6.3200 0.4455 0.9558
9.9548 8.4013 0.5136 0.9492
9.4817 9.2402 0.5220 0.9484
11.8596 12.4149 0.6770 0.9336
5.7781 9.4685 0.4374 0.9566
4.8990 9.4937 0.4213 0.9581
3.6858 9.5287 0.4029 0.9599
2.5617 9.5612 0.3903 0.9612
2.2010 9.5717 0.3873 0.9614
1.4937 9.5923 0.3828 0.9619
1.1453 9.6024 0.3813 0.9620
0.7992 9.6125 0.3803 0.9621
-9.7633 -22.4138 0.4130 0.9068
-8.8641 -22.5162 0.4088 0.9077
-7.9294 -22.4679 0.4025 0.9091
-7.0447 -22.4939 0.3982 0.9100
-5.3256 -22.5445 0.3913 0.9115
-3.6568 -22.5967 0.3867 0.9125
-2.8282 -22.5681 0.3842 0.9130
-1.4717 -27.6723 0.4681 0.8951
-0.4814 -27.7163 0.4683 0.8950
1.5052 -27.7595 0.4696 0.8947
30.8649 -36.7943 0.8112 0.8252
32.2959 -35.8167 0.8147 0.8245
29.5867 -28.4326 0.6931 0.8486
28.7152 -23.8921 0.6310 0.8612
30.0283 -18.4478 0.5953 0.8685
9.5463 -4.5362 0.1785 0.9586
9.5586 -4.1298 0.1759 0.9592
7.2202 -2.5240 0.1292 0.9699
9.6050 -0.4821 0.1625 0.9623
9.1299 0.5224 0.1545 0.9641
9.7120 0.9050 0.1648 0.9617
9.7228 1.2582 0.1656 0.9615
9.7338 1.6153 0.1667 0.9613
9.7562 2.3461 0.1695 0.9607
9.7796 3.1060 0.1733 0.9598
9.7917 3.5000 0.1757 0.9593
9.8042 3.9052 0.1783 0.9587
9.8171 4.3233 0.1812 0.9580
9.4419 4.9921 0.1804 0.9582
10.2667 5.9074 0.2001 0.9537
9.9064 7.2143 0.2070 0.9522
9.9241 7.7851 0.2131 0.9508
9.9429 8.3912 0.2198 0.9493
9.9629 9.0376 0.2272 0.9476
9.8821 9.6304 0.2331 0.9463
9.4181 9.8591 0.2303 0.9469
10.3025 11.5875 0.2619 0.9399
10.0900 13.1298 0.2797 0.9359
10.1232 14.1962 0.2945 0.9326
9.6432 14.6009 0.2956 0.9324
5.3260 9.4737 0.1836 0.9575
4.8951 9.4862 0.1803 0.9582
4.4788 9.4983 0.1774 0.9589
4.0753 9.5100 0.1748 0.9595
3.6830 9.5215 0.1725 0.9600
3.3005 9.5326 0.1704 0.9604
2.5599 9.5542 0.1671 0.9612
1.8439 9.5751 0.1647 0.9617
1.4927 9.5854 0.1639 0.9619
1.1445 9.5956 0.1632 0.9621
0.7986 9.6057 0.1628 0.9622
0.4540 9.6158 0.1626 0.9622
0.1098 9.6259 0.1626 0.9622
-9.7708 -22.4310 -0.1377 0.9068
-8.8708 -22.5332 -0.1363 0.9077
-7.9354 -22.4846 -0.1342 0.9090
-7.0500 -22.5105 -0.1328 0.9100
-6.1822 -22.5359 -0.1316 0.9108
-5.3295 -22.5609 -0.1305 0.9114
-4.4892 -22.5855 -0.1296 0.9120
-2.8302 -22.5842 -0.1282 0.9130
-0.4837 -27.8455 -0.1568 0.8946
0.5109 -27.7648 -0.1563 0.8949
1.5062 -27.7793 -0.1566 0.8947
8.9395 -44.7338 -0.2568 0.8332
29.6760 -28.5183 -0.2317 0.8482
31.5360 -28.2074 -0.2382 0.8443
29.0125 -20.8192 -0.2010 0.8669
13.7081 -8.4215 -0.0906 0.9377
9.5371 -4.5318 -0.0594 0.9586
7.2046 -2.8115 -0.0435 0.9695
7.2222 -2.2382 -0.0426 0.9702
7.2307 -1.9604 -0.0422 0.9705
7.2390 -1.6872 -0.0418 0.9707
9.6015 -1.5244 -0.0547 0.9619
9.6122 -1.1755 -0.0545 0.9620
9.2463 0.5290 -0.0521 0.9636
9.6972 1.6093 -0.0553 0.9614
9.7425 3.0942 -0.0576 0.9599
9.7794 4.3067 -0.0602 0.9582
9.7925 4.7375 -0.0612 0.9574
9.3642 5.3881 -0.0608 0.9577
9.8351 6.1373 -0.0653 0.9547
9.8465 7.7242 -0.0705 0.9512
9.9310 8.3812 -0.0732 0.9493
9.9506 9.0264 -0.0756 0.9477
9.9716 9.7177 -0.0784 0.9458
9.7188 10.9311 -0.0824 0.9432
10.0747 13.1099 -0.0931 0.9360
10.1070 14.1735 -0.0980 0.9327
5.3217 9.4661 -0.0611 0.9575
4.8913 9.4787 -0.0601 0.9582
4.4753 9.4909 -0.0591 0.9589
4.0721 9.5028 -0.0582 0.9595
2.9244 9.5365 -0.0562 0.9609
1.8426 9.5682 -0.0549 0.9618
0.7980 9.5988 -0.0542 0.9622
0.4536 9.6089 -0.0542 0.9623
0.1098 9.6190 -0.0542 0.9623
-0.2346 9.6291 -0.0542 0.9622
-10.7359 -22.4205 -0.7000 0.9053
-7.9413 -22.5015 -0.6719 0.9089
-7.0552 -22.5272 -0.6647 0.9099
-5.3333 -22.5773 -0.6532 0.9113
-4.4924 -22.6018 -0.6489 0.9119
-3.6655 -22.6506 -0.6461 0.9123
-2.8344 -22.6170 -0.6419 0.9128
-2.0211 -22.6740 -0.6410 0.9129
-0.4819 -27.7435 -0.7813 0.8949
0.5112 -27.7769 -0.7823 0.8948
7.6863 -47.1874 -1.3462 0.8259
8.9460 -44.7664 -1.2854 0.8330
32.2130 -35.7248 -1.3545 0.8249
29.2826 -30.2275 -1.1850 0.8450
29.4572 -28.3081 -1.1504 0.8492
28.7039 -22.1948 -1.0217 0.8649
13.6731 -9.0890 -0.4623 0.9364
13.6941 -8.4129 -0.4525 0.9377
9.5278 -4.5274 -0.2970 0.9587
9.5404 -4.1220 -0.2926 0.9593
7.2241 -1.9586 -0.2108 0.9705
7.2325 -1.6857 -0.2091 0.9707
9.6204 -1.5274 -0.2743 0.9618
9.6311 -1.1778 -0.2732 0.9619
9.5774 -0.8250 -0.2707 0.9623
9.5879 -0.4813 -0.2703 0.9623
9.6629 -0.1390 -0.2721 0.9621
9.6946 0.9034 -0.2742 0.9618
9.6884 1.6078 -0.2765 0.9615
9.6994 1.9684 -0.2787 0.9612
9.7218 2.7090 -0.2842 0.9604
9.7451 3.4833 -0.2914 0.9594
9.7698 4.3024 -0.3006 0.9582
9.5155 5.0310 -0.3031 0.9578
9.8382 5.6608 -0.3196 0.9556
9.8559 7.1775 -0.3433 0.9524
9.8728 7.7449 -0.3533 0.9510
9.9099 8.9895 -0.3767 0.9479
9.9304 9.6775 -0.3904 0.9460
9.5231 10.7110 -0.4036 0.9443
10.0306 13.0525 -0.4635 0.9363
10.1258 15.3316 -0.5174 0.9291
5.7639 9.4452 -0.3116 0.9567
4.4719 9.4836 -0.2952 0.9589
2.9222 9.5294 -0.2807 0.9609
2.5561 9.5402 -0.2781 0.9612
1.8413 9.5613 -0.2742 0.9618
1.4905 9.5716 -0.2728 0.9620
0.4533 9.6021 -0.2707 0.9623
0.1097 9.6122 -0.2707 0.9623
-10.7442 -22.4380 -1.2617 0.9052
-9.7859 -22.4654 -1.2427 0.9065
-8.8547 -22.4922 -1.2259 0.9077
-7.9472 -22.5183 -1.2110 0.9088
-6.1913 -22.5690 -1.1869 0.9105
-5.3372 -22.5937 -1.1774 0.9112
-4.4957 -22.6182 -1.1695 0.9118
-2.8406 -22.6663 -1.1585 0.9126
-0.4822 -27.7606 -1.4081 0.8948
0.5114 -27.7898 -1.4096 0.8947
1.5084 -27.8191 -1.4129 0.8944
2.7856 -30.8916 -1.5730 0.8832
5.1605 -31.6810 -1.6279 0.8794
8.4601 -35.6489 -1.8581 0.8635
10.0235 -36.3909 -1.9143 0.8597
11.6692 -37.1252 -1.9736 0.8557
13.4004 -37.8451 -2.0360 0.8515
17.1196 -39.1909 -2.1689 0.8426
21.0519 -40.1054 -2.2971 0.8341
23.4729 -41.0773 -2.3993 0.8274
25.7031 -41.4641 -2.4741 0.8225
26.4309 -39.4169 -2.4068 0.8269
29.1792 -40.3200 -2.5241 0.8193
31.5240 -34.9606 -2.3873 0.8282
29.2462 -30.1900 -2.1317 0.8451
31.4629 -28.1420 -2.1408 0.8445
28.5771 -23.7772 -1.8853 0.8617
28.5553 -22.0799 -1.8306 0.8654
13.8972 -9.2381 -0.8463 0.9353
13.9189 -8.5510 -0.8285 0.9367
7.1910 -2.8062 -0.3915 0.9696
7.2000 -2.5170 -0.3868 0.9699
7.2088 -2.2341 -0.3827 0.9702
9.6117 -1.5261 -0.4936 0.9618
9.6331 -0.8297 -0.4903 0.9620
9.6648 0.2067 -0.4903 0.9620
9.6754 0.5535 -0.4915 0.9619
9.6966 1.2547 -0.4959 0.9616
9.7074 1.6109 -0.4990 0.9614
9.7183 1.9722 -0.5029 0.9611
9.7293 2.3396 -0.5075 0.9607
9.7520 3.0972 -0.5189 0.9598
9.7758 3.8939 -0.5337 0.9587
9.7882 4.3105 -0.5424 0.9581
9.8009 4.7416 -0.5522 0.9573
9.8279 5.6549 -0.5750 0.9556
9.8572 6.6524 -0.6031 0.9535
9.8730 7.1899 -0.6194 0.9523
9.9261 9.0041 -0.6796 0.9477
9.9461 9.6929 -0.7043 0.9459
9.9677 10.4344 -0.7318 0.9438
9.9910 11.2372 -0.7626 0.9416
10.0163 12.1116 -0.7971 0.9390
10.0441 13.0701 -0.8360 0.9361
5.7592 9.4375 -0.5607 0.9567
5.3132 9.4509 -0.5498 0.9575
4.8836 9.4638 -0.5401 0.9582
4.4684 9.4762 -0.5313 0.9589
4.0660 9.4882 -0.5235 0.9595
3.6747 9.4999 -0.5166 0.9600
2.1946 9.5439 -0.4966 0.9615
1.4894 9.5648 -0.4909 0.9620
0.7969 9.5852 -0.4878 0.9622
0.4530 9.5953 -0.4872 0.9623
0.1096 9.6053 -0.4872 0.9623
-8.3890 -19.2584 -1.5402 0.9192
-7.7001 -19.5594 -1.5413 0.9191
-7.0030 -19.8432 -1.5429 0.9191
-6.2964 -20.1045 -1.5447 0.9190
-4.8604 -20.5757 -1.5502 0.9187
-3.3939 -20.9727 -1.5578 0.9183
-2.6657 -21.2716 -1.5719 0.9176
-1.9218 -21.5608 -1.5872 0.9168
-0.3844 -22.1307 -1.6229 0.9151
0.4124 -22.4101 -1.6434 0.9140
2.1566 -23.9147 -1.7606 0.9082
4.0962 -25.1471 -1.8681 0.9029
6.1132 -25.7596 -1.9412 0.8993
7.1770 -26.0563 -1.9817 0.8973
8.2809 -26.3452 -2.0249 0.8952
9.4254 -26.6187 -2.0705 0.8929
14.4569 -27.5415 -2.2807 0.8827
17.2489 -27.8258 -2.4004 0.8770
20.2326 -27.9573 -2.5304 0.8707
21.7973 -27.9573 -2.5993 0.8675
21.8189 -26.0104 -2.4893 0.8727
23.4247 -25.9784 -2.5648 0.8691
23.0394 -23.7829 -2.4279 0.8756
29.2174 -26.1335 -2.8742 0.8545
28.5297 -23.7377 -2.7212 0.8617
13.9330 -8.5597 -1.1990 0.9365
9.5204 -4.9487 -0.7867 0.9579
7.1933 -2.5146 -0.5587 0.9699
7.2022 -2.2320 -0.5529 0.9702
7.2108 -1.9550 -0.5478 0.9705
7.2193 -1.6827 -0.5435 0.9707
7.2844 -1.4253 -0.5442 0.9707
9.6139 -1.1757 -0.7102 0.9619
9.6246 -0.8290 -0.7083 0.9620
9.6351 -0.4837 -0.7074 0.9620
9.6562 0.2065 -0.7082 0.9620
9.6667 0.5531 -0.7099 0.9619
9.6773 0.9018 -0.7126 0.9618
9.6986 1.6095 -0.7208 0.9613
9.7203 2.3374 -0.7330 0.9607
9.7315 2.7117 -0.7407 0.9603
9.7785 4.3063 -0.7834 0.9581
9.8176 5.6490 -0.8305 0.9556
9.8464 6.6451 -0.8710 0.9535
9.8619 7.1818 -0.8945 0.9522
9.9545 10.4205 -1.0566 0.9438
9.9771 11.2217 -1.1010 0.9416
10.0019 12.0941 -1.1507 0.9390
10.0288 13.0503 -1.2068 0.9361
10.0916 15.2798 -1.3426 0.9292
5.3089 9.4433 -0.7943 0.9575
4.8797 9.4563 -0.7802 0.9582
4.4649 9.4688 -0.7676 0.9589
4.0628 9.4810 -0.7563 0.9595
3.6719 9.4927 -0.7463 0.9600
2.9179 9.5154 -0.7297 0.9609
0.4527 9.5884 -0.7038 0.9622
0.1095 9.5985 -0.7038 0.9622
-0.2341 9.6085 -0.7047 0.9622
-7.4400 -15.5375 -1.6539 0.9331
-6.3274 -16.0728 -1.6583 0.9329
-5.2165 -16.6564 -1.6757 0.9323
-4.6781 -17.0529 -1.6977 0.9314
-3.5650 -17.9363 -1.7557 0.9292
-1.6964 -19.0313 -1.8343 0.9261
-1.0234 -19.2428 -1.8500 0.9255
-0.3377 -19.4460 -1.8672 0.9248
0.3614 -19.6387 -1.8857 0.9241
1.0748 -19.8217 -1.9058 0.9233
1.8033 -19.9966 -1.9276 0.9225
2.5478 -20.1615 -1.9510 0.9216
4.0874 -20.4535 -2.0025 0.9196
4.8839 -20.5797 -2.0306 0.9185
5.6995 -20.6923 -2.0605 0.9174
7.3895 -20.8692 -2.1254 0.9149
8.2658 -20.9328 -2.1607 0.9135
10.0823 -20.9999 -2.2364 0.9106
13.8716 -20.6871 -2.3912 0.9048
16.0490 -20.5844 -2.5059 0.9004
17.1208 -20.4097 -2.5575 0.8985
18.2098 -20.1949 -2.6106 0.8965
19.1215 -18.3755 -2.5460 0.8989
20.2339 -18.0982 -2.6062 0.8967
22.7368 -17.5808 -2.7593 0.8909
24.0427 -17.2530 -2.8410 0.8879
13.8964 -9.2375 -1.6020 0.9351
13.9187 -8.5509 -1.5683 0.9365
13.9584 -7.9021 -1.5399 0.9376
9.5078 -4.9422 -1.0287 0.9579
9.5130 -4.1101 -0.9949 0.9592
7.1955 -2.2300 -0.7232 0.9702
7.2042 -1.9532 -0.7166 0.9705
7.2128 -1.6812 -0.7110 0.9707
7.3170 -1.4317 -0.7158 0.9705
9.5945 -1.5233 -0.9327 0.9617
9.6791 1.2525 -0.9370 0.9615
9.6897 1.6080 -0.9430 0.9613
9.7005 1.9686 -0.9503 0.9610
9.7113 2.3353 -0.9589 0.9607
9.7224 2.7091 -0.9690 0.9603
9.7336 3.0914 -0.9805 0.9598
9.7568 3.8863 -1.0083 0.9587
9.7941 5.1784 -1.0636 0.9565
9.8212 6.1287 -1.1114 0.9545
9.8356 6.6378 -1.1392 0.9534
9.8668 7.7401 -1.2039 0.9509
9.8836 8.3412 -1.2416 0.9494
9.9015 8.9818 -1.2834 0.9477
9.9207 9.6680 -1.3299 0.9459
9.9412 10.4066 -1.3817 0.9438
9.9633 11.2061 -1.4396 0.9415
9.9874 12.0765 -1.5045 0.9390
10.0136 13.0304 -1.5777 0.9361
10.0425 14.0831 -1.6606 0.9329
9.2227 16.4051 -1.8068 0.9272
5.8043 11.2481 -1.2152 0.9504
4.3674 11.2908 -1.1622 0.9525
2.9158 9.5083 -0.9548 0.9608
2.5505 9.5193 -0.9461 0.9612
1.8373 9.5406 -0.9328 0.9617
0.7958 9.5715 -0.9221 0.9621
-0.2339 9.6017 -0.9221 0.9621
-6.8149 -14.2321 -1.8744 0.9384
-5.2775 -14.9537 -1.8837 0.9381
-4.2202 -15.3839 -1.8949 0.9378
-3.6815 -15.5845 -1.9022 0.9375
-3.1366 -15.7806 -1.9112 0.9372
-2.5829 -15.9610 -1.9206 0.9369
-1.4526 -16.2962 -1.9434 0.9362
-0.8747 -16.4471 -1.9564 0.9358
-0.2881 -16.5899 -1.9709 0.9353
0.9133 -16.8436 -2.0037 0.9343
3.4355 -17.1915 -2.0825 0.9318
4.7611 -17.2852 -2.1297 0.9303
6.8328 -17.3038 -2.2099 0.9278
7.5458 -17.2740 -2.2391 0.9269
8.2702 -17.2255 -2.2698 0.9259
10.5069 -16.9495 -2.3688 0.9228
12.0489 -16.6492 -2.4413 0.9205
12.8329 -16.4595 -2.4792 0.9194
14.4258 -15.9983 -2.5589 0.9169
15.2318 -15.7233 -2.6004 0.9156
15.8076 -14.1390 -2.5193 0.9181
18.2761 -13.1148 -2.6721 0.9134
13.7665 -9.1512 -1.9636 0.9356
13.9801 -7.9144 -1.9083 0.9373
9.4952 -4.9357 -1.2712 0.9578
9.4908 -4.5098 -1.2482 0.9586
9.5038 -4.1062 -1.2298 0.9592
7.1706 -2.7982 -0.9143 0.9695
7.1798 -2.5099 -0.9035 0.9698
7.1888 -2.2279 -0.8940 0.9701
7.1976 -1.9514 -0.8858 0.9704
7.2062 -1.6796 -0.8789 0.9706
7.3500 -1.4381 -0.8896 0.9703
9.5858 -1.5219 -1.1529 0.9617
9.6179 -0.4828 -1.1439 0.9620
9.6285 -0.1385 -1.1438 0.9620
9.6389 0.2061 -1.1452 0.9619
9.6494 0.5521 -1.1481 0.9618
9.6599 0.9002 -1.1524 0.9617
9.6703 1.2514 -1.1583 0.9615
9.7023 2.3331 -1.1854 0.9606
9.7133 2.7066 -1.1978 0.9602
9.7244 3.0885 -1.2120 0.9597
9.7714 4.7273 -1.2894 0.9572
9.7840 5.1730 -1.3146 0.9564
9.7970 5.6371 -1.3426 0.9555
9.8248 6.6305 -1.4079 0.9534
9.8893 8.9707 -1.5860 0.9476
9.2111 11.1379 -1.7168 0.9434
9.2095 12.9149 -1.8842 0.9381
9.2071 15.0875 -2.0995 0.9313
9.2055 16.3744 -2.2314 0.9271
5.3067 11.2540 -1.4780 0.9511
4.3641 11.2823 -1.4369 0.9524
3.9110 11.2958 -1.4199 0.9530
1.8360 9.5337 -1.1533 0.9616
1.4862 9.5441 -1.1474 0.9618
1.1396 9.5544 -1.1430 0.9620
0.7951 9.5646 -1.1401 0.9621
0.4520 9.5747 -1.1386 0.9621
0.1094 9.5847 -1.1386 0.9621
-5.5418 -12.7224 -1.9662 0.9455
-4.6361 -13.1365 -1.9738 0.9453
-4.1728 -13.3240 -1.9783 0.9452
-3.2294 -13.6711 -1.9904 0.9448
-2.7484 -13.8277 -1.9976 0.9446
-2.2625 -13.9813 -2.0068 0.9444
-1.7698 -14.1221 -2.0166 0.9441
-1.2698 -14.2463 -2.0266 0.9439
-0.7637 -14.3610 -2.0377 0.9436
0.7942 -14.6466 -2.0783 0.9425
2.4146 -14.8235 -2.1280 0.9411
3.5292 -14.8712 -2.1656 0.9401
4.6723 -14.8648 -2.2078 0.9390
5.2529 -14.8350 -2.2298 0.9384
5.8406 -14.7910 -2.2532 0.9378
7.6413 -14.5571 -2.3295 0.9357
8.8695 -14.3081 -2.3852 0.9343
10.7425 -13.7783 -2.4755 0.9319
12.0055 -13.3143 -2.5402 0.9301
13.6511 -11.3582 -2.5162 0.9308
14.2509 -11.0192 -2.5524 0.9298
14.8576 -10.6618 -2.5911 0.9288
13.7520 -9.1415 -2.3397 0.9355
9.4814 -4.5054 -1.4874 0.9585
9.4946 -4.1022 -1.4655 0.9591
7.1731 -2.5075 -1.0767 0.9698
7.1821 -2.2258 -1.0654 0.9701
7.1996 -1.6780 -1.0474 0.9706
9.5987 -0.8268 -1.3651 0.9618
9.6093 -0.4824 -1.3632 0.9619
9.6198 -0.1384 -1.3632 0.9619
9.6511 0.8993 -1.3734 0.9616
9.6615 1.2502 -1.3803 0.9614
9.6720 1.6051 -1.3892 0.9612
9.6933 2.3309 -1.4126 0.9605
9.7263 3.4766 -1.4635 0.9591
9.7494 4.2934 -1.5094 0.9579
9.7615 4.7224 -1.5364 0.9571
9.7867 5.6312 -1.5998 0.9554
9.8000 6.1154 -1.6367 0.9544
9.8285 7.1575 -1.7227 0.9521
9.8437 7.7221 -1.7727 0.9507
9.8769 8.9595 -1.8895 0.9476
7.7858 8.7570 -1.6603 0.9538
6.7549 8.7900 -1.5707 0.9562
5.8249 8.8196 -1.4976 0.9582
5.3905 8.8333 -1.4662 0.9591
4.9733 8.8465 -1.4379 0.9598
4.5714 8.8590 -1.4125 0.9605
4.1830 8.8711 -1.3897 0.9612
3.8069 8.8839 -1.3695 0.9617
3.4407 8.8953 -1.3514 0.9622
2.3918 8.9273 -1.3095 0.9634
2.0551 8.9375 -1.2994 0.9636
1.7230 8.9475 -1.2910 0.9639
1.0695 8.9670 -1.2795 0.9642
0.4242 8.9861 -1.2746 0.9643
-0.2195 9.0049 -1.2763 0.9643
-4.5352 -11.5202 -2.0396 0.9510
-4.1300 -11.7024 -2.0444 0.9509
-3.7172 -11.8691 -2.0490 0.9508
-2.8752 -12.1717 -2.0604 0.9506
-2.4454 -12.3033 -2.0665 0.9504
-2.0108 -12.4257 -2.0736 0.9503
-1.5716 -12.5407 -2.0821 0.9501
-1.1276 -12.6503 -2.0923 0.9498
0.2373 -12.8943 -2.1246 0.9491
0.7025 -12.9554 -2.1374 0.9488
2.1283 -13.0656 -2.1808 0.9477
2.6132 -13.0763 -2.1968 0.9474
3.1027 -13.0737 -2.2136 0.9470
3.5972 -13.0598 -2.2316 0.9466
4.0963 -13.0323 -2.2505 0.9461
4.5996 -12.9900 -2.2702 0.9457
5.1059 -12.9305 -2.2902 0.9452
6.6460 -12.6611 -2.3557 0.9437
7.6842 -12.3960 -2.4026 0.9426
8.2066 -12.2386 -2.4275 0.9420
9.2543 -11.8696 -2.4795 0.9408
9.7780 -11.6563 -2.5064 0.9402
10.3006 -11.4232 -2.5340 0.9395
11.3408 -10.8984 -2.5911 0.9382
11.1749 -9.9954 -2.4699 0.9410
11.6216 -9.6696 -2.4906 0.9406
12.5825 -9.0291 -2.5513 0.9391
13.5618 -8.3316 -2.6221 0.9375
9.4721 -4.5010 -1.7276 0.9584
7.1754 -2.2237 -1.2375 0.9700
7.1842 -1.9478 -1.2263 0.9703
7.4176 -1.4514 -1.2451 0.9698
9.5684 -1.5192 -1.5960 0.9615
9.5793 -1.1715 -1.5898 0.9616
9.5900 -0.8260 -1.5857 0.9617
9.6111 -0.1383 -1.5835 0.9618
9.6319 0.5511 -1.5893 0.9616
9.6423 0.8985 -1.5953 0.9615
9.6527 1.2491 -1.6034 0.9613
9.6631 1.6036 -1.6137 0.9611
9.6736 1.9632 -1.6261 0.9608
9.6842 2.3287 -1.6408 0.9604
9.6949 2.7015 -1.6580 0.9600
9.7281 3.8749 -1.7251 0.9584
9.7515 4.7176 -1.7846 0.9570
9.7637 5.1623 -1.8194 0.9562
9.7763 5.6252 -1.8581 0.9553
9.7894 6.1088 -1.9009 0.9543
9.8321 7.7130 -2.0587 0.9506
9.8479 8.3110 -2.1229 0.9491
7.2494 8.7660 -1.8739 0.9549
6.7489 8.7822 -1.8246 0.9561
4.9693 8.8392 -1.6705 0.9597
4.5678 8.8519 -1.6410 0.9604
3.0812 8.8995 -1.5515 0.9625
2.7323 8.9102 -1.5353 0.9629
2.3901 8.9207 -1.5214 0.9633
1.7217 8.9409 -1.5000 0.9638
0.4239 8.9796 -1.4809 0.9642
-4.8071 -10.0391 -2.0921 0.9557
-4.4504 -10.2169 -2.0947 0.9557
-2.9704 -10.8281 -2.1105 0.9553
-2.5871 -10.9519 -2.1152 0.9552
-1.4130 -11.2752 -2.1359 0.9548
-1.0126 -11.3599 -2.1437 0.9546
-0.6084 -11.4408 -2.1535 0.9544
1.0500 -11.6435 -2.1974 0.9535
1.4742 -11.6653 -2.2101 0.9533
3.6461 -11.5997 -2.2855 0.9517
6.3312 -11.0795 -2.3985 0.9494
6.7824 -10.9413 -2.4196 0.9490
7.2334 -10.7873 -2.4412 0.9485
7.6827 -10.6159 -2.4631 0.9481
8.1324 -10.4305 -2.4860 0.9476
9.4680 -9.7734 -2.5577 0.9461
10.5275 -8.1402 -2.5013 0.9473
10.9252 -7.8398 -2.5275 0.9467
11.3162 -7.5223 -2.5541 0.9462
9.4572 -4.9159 -2.0034 0.9575
9.4761 -4.0942 -1.9403 0.9589
7.1594 -2.5027 -1.4255 0.9696
7.1775 -1.9460 -1.3978 0.9702
7.1862 -1.6750 -1.3869 0.9704
9.5812 -0.8253 -1.8076 0.9616
9.6024 -0.1381 -1.8051 0.9617
9.6128 0.2056 -1.8072 0.9616
9.6335 0.8977 -1.8186 0.9614
9.6438 1.2479 -1.8278 0.9612
9.6964 3.0796 -1.9123 0.9594
9.7298 4.2848 -1.9983 0.9577
9.7535 5.1569 -2.0737 0.9561
9.7920 6.6084 -2.2204 0.9531
9.8059 7.1411 -2.2801 0.9518
9.8359 8.3009 -2.4191 0.9490
9.8521 8.9370 -2.5002 0.9473
8.9292 8.7019 -2.3435 0.9505
8.3317 8.7218 -2.2671 0.9521
7.7710 8.7404 -2.1983 0.9535
7.2428 8.7579 -2.1361 0.9548
4.9652 8.8320 -1.9044 0.9596
4.5641 8.8447 -1.8708 0.9603
2.3883 8.9140 -1.7346 0.9631
2.0520 8.9242 -1.7212 0.9634
1.0679 8.9539 -1.6949 0.9640
0.4236 8.9730 -1.6884 0.9641
-0.2191 8.9918 -1.6906 0.9641
-3.7152 -9.4374 -2.1439 0.9594
-3.3801 -9.5776 -2.1469 0.9593
-2.6992 -9.8395 -2.1567 0.9591
-1.6429 -10.1519 -2.1738 0.9588
-0.9189 -10.3097 -2.1879 0.9586
-0.5516 -10.3724 -2.1956 0.9584
-0.1811 -10.4281 -2.2046 0.9583
0.1928 -10.4756 -2.2147 0.9581
1.3335 -10.5522 -2.2483 0.9574
1.7188 -10.5514 -2.2598 0.9572
2.4970 -10.5217 -2.2858 0.9568
3.2837 -10.4469 -2.3148 0.9562
4.0761 -10.3224 -2.3459 0.9556
4.4741 -10.2421 -2.3625 0.9553
5.6688 -9.9202 -2.4152 0.9544
8.4143 -8.6858 -2.5562 0.9518
8.7939 -8.4508 -2.5781 0.9514
8.9679 -7.4616 -2.4660 0.9534
9.3136 -7.2015 -2.4886 0.9530
10.3113 -6.3347 -2.5581 0.9517
10.6410 -6.0241 -2.5847 0.9512
9.4532 -4.4920 -2.2123 0.9581
7.1332 -3.0819 -1.6425 0.9687
7.1430 -2.7875 -1.6208 0.9691
7.1525 -2.5003 -1.6016 0.9695
9.5724 -0.8245 -2.0309 0.9615
9.6348 1.2468 -2.0536 0.9611
9.6451 1.6006 -2.0667 0.9608
9.6554 1.9595 -2.0826 0.9605
9.7087 3.8672 -2.2090 0.9582
9.7200 4.2805 -2.2450 0.9575
9.7315 4.7079 -2.2851 0.9568
9.7433 5.1515 -2.3297 0.9559
9.7553 5.6131 -2.3791 0.9550
9.7679 6.0954 -2.4338 0.9540
9.7946 7.1328 -2.5612 0.9517
9.8088 7.6947 -2.6352 0.9503
9.8396 8.9257 -2.8081 0.9471
8.9201 8.6930 -2.6328 0.9504
8.3235 8.7132 -2.5471 0.9519
6.7367 8.7664 -2.3370 0.9558
6.2623 8.7821 -2.2800 0.9569
5.3769 8.8111 -2.1819 0.9587
4.5603 8.8375 -2.1021 0.9602
3.7980 8.8630 -2.0382 0.9613
3.0765 8.8858 -1.9877 0.9623
2.7282 8.8967 -1.9670 0.9627
2.3865 8.9072 -1.9492 0.9630
1.7192 8.9276 -1.9218 0.9635
1.0671 8.9473 -1.9047 0.9638
0.1024 8.9758 -1.8974 0.9640
-4.0038 -8.3615 -2.1788 0.9626
-3.7065 -8.5091 -2.1813 0.9626
-3.4035 -8.6456 -2.1837 0.9625
-2.7850 -8.8927 -2.1901 0.9624
-2.4706 -9.0061 -2.1948 0.9624
-2.1522 -9.1111 -2.2002 0.9623
-1.8296 -9.2052 -2.2057 0.9622
-1.5026 -9.2855 -2.2107 0.9621
-1.1733 -9.3625 -2.2176 0.9620
-0.1655 -9.5287 -2.2398 0.9616
0.1760 -9.5637 -2.2481 0.9615
1.2158 -9.6207 -2.2791 0.9609
1.5669 -9.6192 -2.2905 0.9607
2.2736 -9.5803 -2.3141 0.9603
2.6285 -9.5427 -2.3263 0.9601
2.9848 -9.4958 -2.3394 0.9599
3.3424 -9.4394 -2.3534 0.9597
3.7004 -9.3712 -2.3680 0.9594
4.4161 -9.1979 -2.3980 0.9589
4.7735 -9.0939 -2.4138 0.9587
5.1304 -8.9781 -2.4303 0.9584
5.4860 -8.8499 -2.4471 0.9581
6.5403 -8.3886 -2.4999 0.9572
6.8865 -8.2094 -2.5184 0.9569
8.2320 -7.3631 -2.5957 0.9556
9.4874 -5.3709 -2.5623 0.9562
9.4314 -4.9025 -2.4982 0.9573
9.4437 -4.4875 -2.4573 0.9579
7.1360 -2.7847 -1.8003 0.9690
7.1549 -2.2174 -1.7605 0.9697
7.1640 -1.9423 -1.7445 0.9700
7.1728 -1.6718 -1.7309 0.9702
9.5636 -0.8237 -2.2560 0.9613
9.5742 -0.4806 -2.2530 0.9614
9.5847 -0.1379 -2.2528 0.9614
9.5950 0.2052 -2.2556 0.9613
9.6053 0.5495 -2.2612 0.9612
9.6258 1.2456 -2.2811 0.9609
9.6360 1.5991 -2.2957 0.9607
9.6463 1.9576 -2.3133 0.9604
9.6566 2.3221 -2.3342 0.9600
9.6670 2.6937 -2.3585 0.9596
9.6775 3.0736 -2.3864 0.9591
9.6990 3.8633 -2.4537 0.9580
9.7213 4.7030 -2.5381 0.9566
9.7329 5.1460 -2.5875 0.9558
9.7447 5.6071 -2.6423 0.9549
9.7571 6.0886 -2.7030 0.9538
9.7698 6.5934 -2.7701 0.9527
9.7970 7.6855 -2.9265 0.9501
9.8116 8.2804 -3.0174 0.9486
8.9109 8.6841 -2.9243 0.9502
7.7561 8.7237 -2.7434 0.9532
6.7306 8.7583 -2.5960 0.9556
6.2568 8.7742 -2.5327 0.9567
5.8048 8.7893 -2.4755 0.9576
5.3723 8.8036 -2.4239 0.9585
4.9569 8.8172 -2.3773 0.9593
4.5566 8.8303 -2.3353 0.9600
3.4300 8.8676 -2.2346 0.9617
2.7260 8.8898 -2.1853 0.9625
2.3847 8.9004 -2.1656 0.9628
2.0489 8.9108 -2.1489 0.9631
1.7179 8.9209 -2.1351 0.9634
1.3907 8.9309 -2.1243 0.9635
0.4229 8.9597 -2.1081 0.9638
0.1023 8.9691 -2.1081 0.9638
-3.4163 -7.8429 -2.2150 0.9653
-3.1375 -7.9698 -2.2177 0.9652
-2.2759 -8.2964 -2.2275 0.9651
-1.9822 -8.3910 -2.2324 0.9650
-1.3843 -8.5542 -2.2437 0.9648
-0.7734 -8.6766 -2.2554 0.9646
0.1619 -8.7966 -2.2780 0.9643
0.4780 -8.8159 -2.2860 0.9642
1.1162 -8.8322 -2.3050 0.9639
1.4378 -8.8263 -2.3154 0.9637
1.7608 -8.8107 -2.3264 0.9636
2.0849 -8.7853 -2.3378 0.9634
2.4099 -8.7493 -2.3497 0.9632
2.7355 -8.7027 -2.3620 0.9630
3.0407 -8.5874 -2.3587 0.9631
4.0356 -8.4055 -2.4142 0.9622
4.3597 -8.3055 -2.4287 0.9620
4.6824 -8.1941 -2.4436 0.9618
5.3223 -7.9372 -2.4743 0.9613
5.9526 -7.6348 -2.5066 0.9608
6.5704 -7.2866 -2.5404 0.9603
6.8732 -7.0950 -2.5576 0.9600
7.8211 -5.6123 -2.4925 0.9610
8.0760 -5.3684 -2.5108 0.9607
8.3238 -5.1136 -2.5294 0.9604
8.8007 -4.5746 -2.5681 0.9598
7.1289 -2.7820 -1.9814 0.9689
7.1659 -1.6702 -1.9051 0.9701
9.5329 -1.5136 -2.4992 0.9609
9.5439 -1.1671 -2.4895 0.9611
9.5546 -0.8230 -2.4830 0.9611
9.5652 -0.4801 -2.4797 0.9612
9.5757 -0.1377 -2.4796 0.9612
9.5861 0.2050 -2.4826 0.9612
9.6167 1.2444 -2.5107 0.9607
9.6269 1.5976 -2.5267 0.9605
9.6473 2.3199 -2.5690 0.9598
9.6575 2.6911 -2.5958 0.9594
9.6679 3.0705 -2.6264 0.9590
9.6891 3.8594 -2.7004 0.9578
9.7000 4.2717 -2.7442 0.9572
9.7225 5.1405 -2.8475 0.9556
9.7341 5.6009 -2.9078 0.9547
9.7461 6.0818 -2.9745 0.9536
9.7586 6.5858 -3.0482 0.9525
9.7716 7.1161 -3.1298 0.9513
8.3068 8.6958 -3.1137 0.9515
7.2224 8.7333 -2.9343 0.9543
6.2511 8.7663 -2.7877 0.9565
5.3677 8.7960 -2.6680 0.9583
4.1662 8.8356 -2.5293 0.9604
3.7919 8.8489 -2.4926 0.9610
2.3828 8.8936 -2.3839 0.9627
0.4226 8.9530 -2.3207 0.9636
-2.9070 -7.3844 -2.2466 0.9675
-2.1079 -7.6841 -2.2557 0.9674
-1.8354 -7.7700 -2.2602 0.9674
-1.0000 -7.9801 -2.2768 0.9671
-0.7157 -8.0292 -2.2820 0.9670
-0.4293 -8.0724 -2.2885 0.9670
0.1498 -8.1364 -2.3037 0.9667
0.4421 -8.1532 -2.3115 0.9666
0.7358 -8.1591 -2.3192 0.9665
1.0308 -8.1567 -2.3275 0.9664
3.4168 -7.8217 -2.4163 0.9651
4.0087 -7.6367 -2.4416 0.9648
4.3024 -7.5291 -2.4549 0.9646
4.5950 -7.4126 -2.4689 0.9644
4.8854 -7.2857 -2.4833 0.9642
5.7392 -6.8417 -2.5281 0.9636
6.2901 -6.4930 -2.5592 0.9631
7.1358 -5.1205 -2.4864 0.9641
7.5843 -4.6594 -2.5199 0.9637
8.2101 -3.9012 -2.5733 0.9629
7.1117 -3.0726 -2.1931 0.9683
7.1316 -2.4930 -2.1387 0.9691
7.1410 -2.2131 -2.1164 0.9694
7.1501 -1.9386 -2.0972 0.9697
7.1590 -1.6686 -2.0810 0.9699
9.5348 -1.1660 -2.7193 0.9609
9.5456 -0.8222 -2.7123 0.9610
9.5770 0.2048 -2.7118 0.9610
9.5872 0.5485 -2.7185 0.9609
9.5974 0.8943 -2.7287 0.9607
9.6075 1.2432 -2.7425 0.9605
9.6277 1.9538 -2.7811 0.9600
9.6583 3.0675 -2.8688 0.9587
9.6687 3.4560 -2.9067 0.9582
9.6898 4.2672 -2.9973 0.9569
9.4511 4.9970 -3.0265 0.9565
9.1105 5.6851 -3.0401 0.9563
8.7315 6.3587 -3.0578 0.9561
8.5193 6.6831 -3.0653 0.9560
8.2818 6.9894 -3.0679 0.9559
8.0424 7.2954 -3.0739 0.9559
7.7892 7.5908 -3.0790 0.9558
7.2237 8.1247 -3.0777 0.9558
6.6333 8.6317 -3.0818 0.9558
6.2454 8.7584 -3.0452 0.9563
5.3630 8.7884 -2.9146 0.9581
3.7888 8.8417 -2.7231 0.9608
3.4246 8.8535 -2.6873 0.9613
3.0693 8.8649 -2.6557 0.9618
1.0647 8.9271 -2.5451 0.9633
0.4223 8.9463 -2.5354 0.9635
0.1021 8.9557 -2.5354 0.9635
-3.1837 -6.6487 -2.2674 0.9696
-2.7057 -6.8729 -2.2719 0.9696
-2.4610 -6.9732 -2.2745 0.9695
-1.9613 -7.1496 -2.2803 0.9695
-1.7075 -7.2285 -2.2845 0.9694
-1.1916 -7.3636 -2.2944 0.9693
-0.9298 -7.4196 -2.3000 0.9692
0.4106 -7.5730 -2.3327 0.9688
0.9574 -7.5756 -2.3486 0.9685
1.2319 -7.5622 -2.3566 0.9684
1.7831 -7.5134 -2.3751 0.9682
2.3356 -7.4306 -2.3957 0.9679
2.6115 -7.3754 -2.4065 0.9678
3.7074 -7.0628 -2.4535 0.9672
3.9778 -6.9610 -2.4660 0.9670
4.2461 -6.8496 -2.4788 0.9668
4.7748 -6.5977 -2.5050 0.9665
5.0343 -6.4569 -2.5183 0.9663
5.2913 -6.3077 -2.5323 0.9661
5.7936 -5.9805 -2.5611 0.9658
6.3440 -4.9053 -2.4665 0.9670
6.5553 -4.7040 -2.4817 0.9668
6.7606 -4.4940 -2.4969 0.9666
6.9594 -4.2754 -2.5122 0.9664
7.1514 -4.0485 -2.5276 0.9662
7.3362 -3.8134 -2.5431 0.9660
7.1044 -3.0695 -2.3804 0.9681
7.1146 -2.7764 -2.3490 0.9685
7.1339 -2.2109 -2.2972 0.9692
7.1431 -1.9367 -2.2764 0.9695
7.1521 -1.6670 -2.2588 0.9697
8.6914 -1.3800 -2.7068 0.9638
8.7935 -1.0754 -2.7248 0.9636
8.8842 -0.7652 -2.7427 0.9634
8.9631 -0.4499 -2.7603 0.9631
9.0841 0.1943 -2.7947 0.9627
9.1545 1.8578 -2.8731 0.9617
9.1284 2.1951 -2.8877 0.9615
8.9508 3.1994 -2.9236 0.9610
8.8681 3.5323 -2.9360 0.9608
8.2247 5.1324 -2.9819 0.9602
7.6760 6.0216 -3.0008 0.9600
6.5154 7.3280 -3.0160 0.9598
5.6978 7.9902 -3.0185 0.9598
4.7981 8.5346 -3.0114 0.9599
4.4853 8.6919 -3.0084 0.9599
3.0668 8.8578 -2.8831 0.9615
2.7196 8.8689 -2.8532 0.9619
1.7140 8.9004 -2.7879 0.9628
-2.7534 -6.3210 -2.2918 0.9714
-2.5281 -6.4219 -2.2941 0.9713
-2.0670 -6.6002 -2.2990 0.9713
-1.1126 -6.8752 -2.3151 0.9711
-0.8680 -6.9263 -2.3204 0.9710
-0.1221 -7.0321 -2.3379 0.9708
0.1298 -7.0495 -2.3437 0.9707
0.6373 -7.0667 -2.3585 0.9705
1.4047 -7.0290 -2.3827 0.9702
1.6609 -6.9984 -2.3909 0.9701
2.1738 -6.9157 -2.4097 0.9699
2.4299 -6.8622 -2.4198 0.9698
2.6852 -6.8000 -2.4302 0.9697
2.9395 -6.7292 -2.4409 0.9695
3.1925 -6.6495 -2.4519 0.9694
3.9417 -6.3586 -2.4868 0.9690
4.4293 -6.1205 -2.5113 0.9687
4.9047 -5.8468 -2.5368 0.9683
5.1369 -5.6968 -2.5498 0.9682
5.3650 -5.5381 -2.5630 0.9680
5.8076 -5.1946 -2.5900 0.9677
5.6669 -4.7150 -2.4504 0.9694
6.0571 -4.3465 -2.4781 0.9691
6.2438 -4.1505 -2.4922 0.9689
6.4243 -3.9467 -2.5063 0.9687
6.5984 -3.7355 -2.5204 0.9685
6.7656 -3.5167 -2.5346 0.9684
7.1073 -2.7735 -2.5360 0.9684
7.1267 -2.2087 -2.4801 0.9690
7.1360 -1.9347 -2.4577 0.9693
7.1450 -1.6654 -2.4387 0.9695
8.0605 -0.9857 -2.6993 0.9663
8.1392 -0.7010 -2.7155 0.9662
8.2042 -0.4118 -2.7305 0.9660
8.2613 -0.1188 -2.7464 0.9658
8.3633 0.7793 -2.7920 0.9652
8.3710 1.3892 -2.8206 0.9649
8.2781 2.3067 -2.8565 0.9644
8.2256 2.6124 -2.8688 0.9643
8.1601 2.9168 -2.8805 0.9641
8.0817 3.2191 -2.8917 0.9640
7.9901 3.5187 -2.9021 0.9639
7.6278 4.3890 -2.9253 0.9636
7.1608 5.2148 -2.9446 0.9633
6.7967 5.7360 -2.9563 0.9632
6.1551 6.4433 -2.9620 0.9631
5.9262 6.6653 -2.9647 0.9631
5.4406 7.0796 -2.9679 0.9631
5.1816 7.2664 -2.9666 0.9631
4.3649 7.7641 -2.9607 0.9632
4.0813 7.9091 -2.9584 0.9632
3.7859 8.0288 -2.9506 0.9633
3.1934 8.2557 -2.9424 0.9634
2.5857 8.4318 -2.9316 0.9635
1.0298 8.6336 -2.8902 0.9640
0.7169 8.6229 -2.8762 0.9642
0.4068 8.6157 -2.8671 0.9643
-2.7897 -5.8259 -2.3099 0.9729
-2.5816 -5.9266 -2.3117 0.9729
-1.9380 -6.1882 -2.3189 0.9728
-1.2697 -6.3883 -2.3292 0.9727
-1.0425 -6.4419 -2.3336 0.9727
-0.5819 -6.5282 -2.3438 0.9725
-0.1143 -6.5855 -2.3554 0.9724
0.5963 -6.6124 -2.3742 0.9722
0.8350 -6.6075 -2.3817 0.9721
1.0743 -6.5949 -2.3895 0.9720
1.3138 -6.5744 -2.3975 0.9719
2.5074 -6.3497 -2.4413 0.9714
2.9794 -6.2054 -2.4616 0.9712
3.2131 -6.1210 -2.4722 0.9711
3.6745 -5.9275 -2.4940 0.9708
4.1261 -5.7015 -2.5168 0.9705
5.3984 -4.8286 -2.5901 0.9697
5.4473 -4.2119 -2.4624 0.9712
5.6237 -4.0354 -2.4753 0.9710
5.7945 -3.8518 -2.4882 0.9709
6.1184 -3.4637 -2.5143 0.9706
6.2708 -3.2596 -2.5273 0.9704
6.5562 -2.8326 -2.5540 0.9701
6.8245 -2.3856 -2.5853 0.9698
7.1378 -1.6637 -2.6210 0.9693
7.2638 -1.4212 -2.6468 0.9690
7.3521 -1.1673 -2.6621 0.9689
7.5003 -0.6460 -2.6921 0.9685
7.5596 -0.3795 -2.7067 0.9684
7.6087 -0.1094 -2.7212 0.9682
7.6474 0.1636 -2.7354 0.9680
7.6925 0.7169 -2.7628 0.9677
7.6956 0.9958 -2.7749 0.9676
7.6415 1.8375 -2.8105 0.9672
7.6021 2.1183 -2.8221 0.9670
7.5512 2.3983 -2.8333 0.9669
7.4105 2.9518 -2.8525 0.9667
7.3177 3.2225 -2.8593 0.9666
7.1124 3.7605 -2.8771 0.9664
6.9927 4.0235 -2.8850 0.9663
6.8617 4.2819 -2.8924 0.9662
6.7153 4.5320 -2.8971 0.9662
6.5615 4.7784 -2.9027 0.9661
6.3990 5.0199 -2.9084 0.9660
6.0432 5.4819 -2.9178 0.9659
5.2093 6.2991 -2.9231 0.9659
4.9827 6.4838 -2.9242 0.9659
4.4997 6.8130 -2.9198 0.9659
3.9985 7.1124 -2.9178 0.9659
3.7390 7.2457 -2.9157 0.9660
3.4713 7.3616 -2.9105 0.9660
3.1996 7.4664 -2.9049 0.9661
2.9268 7.5665 -2.9012 0.9661
2.6504 7.6547 -2.8968 0.9662
2.3708 7.7312 -2.8918 0.9662
1.8017 7.8355 -2.8751 0.9664
1.5170 7.8772 -2.8687 0.9665
0.9452 7.9247 -2.8540 0.9667
0.6593 7.9306 -2.8458 0.9668
-0.1917 7.8677 -2.8144 0.9671
-2.6235 -5.4789 -2.3279 0.9743
-2.4276 -5.5732 -2.3296 0.9743
-2.2288 -5.6615 -2.3317 0.9743
-0.9797 -6.0542 -2.3503 0.9741
-0.7640 -6.0971 -2.3548 0.9740
-0.5467 -6.1333 -2.3597 0.9740
-0.1074 -6.1853 -2.3707 0.9738
0.1142 -6.2007 -2.3766 0.9738
0.5599 -6.2084 -2.3888 0.9737
1.2325 -6.1675 -2.4103 0.9734
1.4571 -6.1396 -2.4181 0.9733
1.6814 -6.1041 -2.4263 0.9732
2.1281 -6.0099 -2.4432 0.9731
2.7900 -5.8111 -2.4703 0.9728
3.0081 -5.7305 -2.4802 0.9727
3.8583 -5.3313 -2.5219 0.9722
4.2664 -5.0860 -2.5440 0.9720
4.6603 -4.8106 -2.5667 0.9717
5.0377 -4.5059 -2.5901 0.9715
5.0802 -3.9281 -2.4609 0.9729
5.4000 -3.5896 -2.4849 0.9726
5.5518 -3.4107 -2.4969 0.9725
5.6977 -3.2255 -2.5091 0.9723
5.9711 -2.8374 -2.5334 0.9721
6.2214 -2.4278 -2.5592 0.9718
6.5545 -1.7771 -2.6025 0.9713
6.7377 -1.3183 -2.6309 0.9710
6.8167 -1.0823 -2.6450 0.9709
6.9484 -0.5985 -2.6726 0.9706
7.0006 -0.3514 -2.6861 0.9704
7.0433 -0.1013 -2.6994 0.9703
7.1035 1.1788 -2.7594 0.9696
7.0861 1.4381 -2.7709 0.9695
7.0581 1.6973 -2.7819 0.9694
7.0196 1.9560 -2.7925 0.9693
6.9705 2.2138 -2.8027 0.9692
6.8319 2.7213 -2.8181 0.9690
6.4471 3.7096 -2.8504 0.9686
6.1886 4.1765 -2.8611 0.9685
5.8968 4.6259 -2.8721 0.9684
5.7367 4.8414 -2.8767 0.9684
5.5675 5.0504 -2.8806 0.9683
4.5901 5.9729 -2.8867 0.9682
4.3712 6.1299 -2.8851 0.9683
3.9179 6.4201 -2.8822 0.9683
3.6842 6.5533 -2.8810 0.9683
3.4453 6.6765 -2.8791 0.9683
3.2010 6.7883 -2.8761 0.9684
2.9491 6.8818 -2.8692 0.9684
2.6979 6.9747 -2.8658 0.9685
2.4433 7.0569 -2.8618 0.9685
2.1860 7.1283 -2.8573 0.9686
1.9262 7.1889 -2.8521 0.9686
1.3995 7.2670 -2.8360 0.9688
0.8724 7.3138 -2.8226 0.9689
0.6086 7.3208 -2.8151 0.9690
0.3455 7.3171 -2.8072 0.9691
-0.1771 7.2681 -2.7861 0.9693
-2.2888 -5.2545 -2.3457 0.9755
-1.7179 -5.4852 -2.3525 0.9755
-1.5222 -5.5489 -2.3549 0.9754
-1.3242 -5.6060 -2.3576 0.9754
-0.7199 -5.7446 -2.3695 0.9753
0.3170 -5.8456 -2.3960 0.9750
1.1595 -5.8022 -2.4217 0.9748
1.3705 -5.7748 -2.4291 0.9747
1.5811 -5.7403 -2.4368 0.9746
2.0005 -5.6498 -2.4530 0.9744
2.2089 -5.5938 -2.4614 0.9743
2.4160 -5.5307 -2.4701 0.9743
2.6213 -5.4595 -2.4787 0.9742
3.4245 -5.1069 -2.5165 0.9738
3.8113 -4.8884 -2.5369 0.9736
4.3669 -4.5078 -2.5686 0.9732
4.4405 -3.9717 -2.4383 0.9746
4.5995 -3.8269 -2.4488 0.9745
5.1914 -3.1892 -2.4936 0.9740
5.3261 -3.0152 -2.5049 0.9739
5.4550 -2.8355 -2.5162 0.9738
5.8053 -2.2654 -2.5504 0.9734
5.9136 -2.0671 -2.5639 0.9733
6.1092 -1.6563 -2.5906 0.9730
6.2753 -1.2278 -2.6170 0.9727
6.3466 -1.0076 -2.6300 0.9726
6.5077 -0.3267 -2.6668 0.9722
6.5928 0.3772 -2.7027 0.9719
6.5954 1.0946 -2.7363 0.9715
6.5773 1.3348 -2.7468 0.9714
6.4578 2.0510 -2.7731 0.9711
6.4011 2.2880 -2.7821 0.9710
6.2587 2.7562 -2.7989 0.9709
6.0777 3.2134 -2.8137 0.9707
5.9714 3.4359 -2.8196 0.9707
5.8551 3.6537 -2.8246 0.9706
5.4608 4.2838 -2.8406 0.9704
5.3119 4.4829 -2.8448 0.9704
5.1516 4.6731 -2.8467 0.9704
4.6298 5.2073 -2.8518 0.9703
4.4430 5.3724 -2.8533 0.9703
4.2494 5.5296 -2.8542 0.9703
4.0466 5.6747 -2.8525 0.9703
3.8386 5.8121 -2.8507 0.9703
3.6277 5.9445 -2.8502 0.9703
3.4114 6.0680 -2.8490 0.9704
3.1903 6.1824 -2.8473 0.9704
2.4991 6.4606 -2.8351 0.9705
1.2973 6.7366 -2.8078 0.9708
1.0533 6.7640 -2.8017 0.9708
0.8089 6.7818 -2.7953 0.9709
0.5645 6.7896 -2.7884 0.9710
0.3205 6.7876 -2.7811 0.9711
0.0773 6.7757 -2.7733 0.9711
-2.1487 -4.9329 -2.3449 0.9768
-1.9725 -5.0105 -2.3468 0.9768
-1.7937 -5.0825 -2.3489 0.9768
-1.4383 -5.2431 -2.3694 0.9766
-1.2510 -5.2961 -2.3717 0.9765
-0.6799 -5.4252 -2.3829 0.9764
-0.4863 -5.4559 -2.3872 0.9764
-0.2914 -5.4805 -2.3919 0.9763
-0.0955 -5.4989 -2.3969 0.9763
0.4975 -5.5159 -2.4137 0.9761
1.0938 -5.4731 -2.4325 0.9759
1.2923 -5.4452 -2.4390 0.9759
1.4906 -5.4117 -2.4463 0.9758
1.6884 -5.3714 -2.4539 0.9757
1.8853 -5.3244 -2.4616 0.9757
2.2759 -5.2100 -2.4778 0.9755
2.6606 -5.0686 -2.4948 0.9753
3.4046 -4.7045 -2.5309 0.9750
3.7609 -4.4834 -2.5504 0.9748
4.1037 -4.2361 -2.5704 0.9746
4.1707 -3.7304 -2.4386 0.9759
4.6037 -3.3035 -2.4695 0.9756
4.7389 -3.1501 -2.4800 0.9755
4.8691 -2.9913 -2.4905 0.9754
4.9941 -2.8272 -2.5011 0.9753
5.1135 -2.6580 -2.5116 0.9752
5.2272 -2.4838 -2.5222 0.9751
5.4350 -2.1209 -2.5426 0.9749
5.5345 -1.9347 -2.5551 0.9747
5.6275 -1.7440 -2.5676 0.9746
5.7138 -1.5491 -2.5801 0.9745
5.9283 -0.9412 -2.6160 0.9741
6.1475 1.0202 -2.7158 0.9732
6.1288 1.2438 -2.7254 0.9731
5.8976 2.3491 -2.7667 0.9727
5.7448 2.7792 -2.7812 0.9725
5.6542 2.9895 -2.7874 0.9725
5.5535 3.1954 -2.7923 0.9724
5.4472 3.3991 -2.7982 0.9724
5.3324 3.5987 -2.8036 0.9723
5.0783 3.9837 -2.8129 0.9722
4.3047 4.8416 -2.8234 0.9721
3.9508 5.1410 -2.8257 0.9721
3.7621 5.2757 -2.8239 0.9721
3.5692 5.4042 -2.8226 0.9721
3.1721 5.6424 -2.8210 0.9722
2.9667 5.7491 -2.8194 0.9722
2.7571 5.8470 -2.8173 0.9722
2.3246 6.0095 -2.8081 0.9723
1.8842 6.1444 -2.8009 0.9723
0.2985 6.3216 -2.7581 0.9728
-0.1533 6.2929 -2.7434 0.9729
-1.7093 -4.8433 -2.3774 0.9776
-1.5365 -4.9062 -2.3798 0.9776
-1.1844 -5.0140 -2.3848 0.9775
-1.0055 -5.0591 -2.3876 0.9775
-0.6434 -5.1340 -2.3951 0.9775
-0.4601 -5.1626 -2.3992 0.9774
-0.2758 -5.1853 -2.4036 0.9774
-0.0903 -5.2019 -2.4083 0.9773
0.0960 -5.2127 -2.4133 0.9773
0.8462 -5.1944 -2.4361 0.9771
1.4085 -5.1135 -2.4551 0.9769
1.5950 -5.0743 -2.4621 0.9768
1.7807 -5.0290 -2.4695 0.9768
2.1489 -4.9192 -2.4848 0.9766
2.6895 -4.7066 -2.5092 0.9764
2.8658 -4.6230 -2.5177 0.9763
3.2110 -4.4369 -2.5352 0.9761
3.3795 -4.3345 -2.5441 0.9761
3.5450 -4.2260 -2.5532 0.9760
4.0212 -3.8644 -2.5815 0.9757
4.2012 -3.2485 -2.4582 0.9769
4.3319 -3.1085 -2.4680 0.9768
4.4580 -2.9634 -2.4778 0.9767
4.5793 -2.8132 -2.4877 0.9766
4.6955 -2.6582 -2.4976 0.9765
5.0123 -2.1656 -2.5274 0.9762
5.1065 -1.9927 -2.5373 0.9761
5.2807 -1.6366 -2.5590 0.9759
5.6094 -0.6860 -2.6158 0.9754
5.7562 0.3293 -2.6688 0.9749
5.7457 0.9535 -2.6960 0.9747
5.6999 1.3707 -2.7136 0.9745
5.6649 1.5785 -2.7221 0.9744
5.6215 1.7854 -2.7302 0.9743
5.5698 1.9909 -2.7379 0.9743
5.5098 2.1947 -2.7453 0.9742
5.3645 2.5953 -2.7585 0.9741
5.2779 2.7905 -2.7635 0.9740
4.6078 3.8887 -2.7909 0.9738
4.3233 4.2132 -2.7943 0.9737
4.1733 4.3687 -2.7966 0.9737
3.8546 4.6609 -2.7997 0.9737
3.5104 4.9227 -2.7986 0.9737
3.3309 5.0433 -2.7976 0.9737
3.1479 5.1583 -2.7972 0.9737
2.9604 5.2658 -2.7962 0.9737
2.3742 5.5403 -2.7901 0.9738
2.1700 5.6100 -2.7843 0.9738
1.9658 5.6776 -2.7811 0.9739
0.9168 5.8872 -2.7579 0.9741
0.7036 5.8991 -2.7499 0.9742
0.4912 5.9078 -2.7441 0.9742
0.0673 5.8998 -2.7311 0.9743
-0.1433 5.8832 -2.7241 0.9744
-2.0996 -4.3848 -2.3847 0.9786
-1.7829 -4.5290 -2.3875 0.9785
-1.6212 -4.5936 -2.3895 0.9785
-1.2912 -4.7070 -2.3942 0.9785
-1.1233 -4.7554 -2.3969 0.9785
-0.4362 -4.8940 -2.4102 0.9783
-0.2614 -4.9150 -2.4144 0.9783
0.4457 -4.9416 -2.4338 0.9781
0.6235 -4.9337 -2.4394 0.9781
0.9792 -4.9000 -2.4511 0.9780
1.3338 -4.8423 -2.4637 0.9779
1.5102 -4.8044 -2.4703 0.9778
1.8598 -4.7096 -2.4838 0.9777
2.0330 -4.6539 -2.4912 0.9776
2.2048 -4.5921 -2.4987 0.9776
2.3749 -4.5242 -2.5064 0.9775
2.7093 -4.3706 -2.5224 0.9774
3.0345 -4.1931 -2.5389 0.9772
3.1932 -4.0955 -2.5474 0.9771
3.5014 -3.8830 -2.5647 0.9770
3.7962 -3.6481 -2.5826 0.9768
3.9639 -3.0650 -2.4578 0.9779
4.2042 -2.7947 -2.4763 0.9778
4.4263 -2.5058 -2.4950 0.9776
4.6285 -2.1993 -2.5136 0.9774
4.8898 -1.7093 -2.5408 0.9772
4.9690 -1.5400 -2.5518 0.9771
5.1092 -1.1908 -2.5733 0.9769
5.2714 -0.6446 -2.6050 0.9766
5.3119 -0.4575 -2.6152 0.9765
5.3454 -0.2683 -2.6253 0.9764
5.3909 0.1153 -2.6450 0.9763
5.4027 0.3091 -2.6545 0.9762
5.4041 0.5036 -2.6623 0.9761
5.3452 1.2854 -2.6967 0.9758
5.3113 1.4800 -2.7046 0.9757
5.2697 1.6736 -2.7121 0.9757
5.1632 2.0566 -2.7262 0.9755
5.0979 2.2450 -2.7323 0.9755
4.8574 2.7949 -2.7489 0.9753
4.7631 2.9723 -2.7540 0.9753
4.4376 3.4811 -2.7666 0.9752
4.1820 3.7936 -2.7696 0.9752
3.9069 4.0898 -2.7744 0.9751
3.7604 4.2294 -2.7760 0.9751
3.4509 4.4905 -2.7780 0.9751
3.2859 4.6079 -2.7761 0.9751
2.9470 4.8291 -2.7750 0.9751
2.5922 5.0233 -2.7727 0.9751
1.4525 5.4211 -2.7530 0.9753
1.0579 5.4935 -2.7442 0.9754
0.4604 5.5370 -2.7254 0.9755
-1.9947 -4.1657 -2.3961 0.9794
-1.8452 -4.2362 -2.3971 0.9794
-1.6937 -4.3024 -2.3987 0.9794
-1.3842 -4.4197 -2.4027 0.9793
-0.9056 -4.5566 -2.4101 0.9793
-0.7430 -4.5915 -2.4130 0.9793
-0.5792 -4.6218 -2.4165 0.9792
-0.4142 -4.6468 -2.4202 0.9792
-0.2481 -4.6663 -2.4242 0.9792
-0.0813 -4.6804 -2.4285 0.9791
0.0863 -4.6889 -2.4329 0.9791
0.2544 -4.6919 -2.4376 0.9790
0.5916 -4.6814 -2.4479 0.9790
0.9289 -4.6482 -2.4591 0.9789
1.0972 -4.6231 -2.4650 0.9788
1.2649 -4.5923 -2.4711 0.9788
1.4320 -4.5557 -2.4774 0.9787
2.0892 -4.3515 -2.5042 0.9785
2.2501 -4.2865 -2.5115 0.9784
2.8731 -3.9700 -2.5423 0.9782
3.0227 -3.8770 -2.5504 0.9781
3.5910 -3.4508 -2.5837 0.9778
3.6286 -3.0191 -2.4488 0.9790
3.7475 -2.8976 -2.4575 0.9789
3.8623 -2.7716 -2.4662 0.9788
4.1811 -2.3670 -2.4925 0.9786
4.2781 -2.2237 -2.5013 0.9785
4.3701 -2.0766 -2.5101 0.9784
4.4571 -1.9257 -2.5188 0.9784
4.5387 -1.7712 -2.5275 0.9783
4.6149 -1.6132 -2.5362 0.9782
4.6861 -1.4523 -2.5451 0.9781
4.9219 -0.7815 -2.5854 0.9778
4.9654 -0.6072 -2.5951 0.9777
5.0025 -0.4309 -2.6048 0.9776
5.0329 -0.2526 -2.6142 0.9775
5.0565 -0.0727 -2.6235 0.9775
5.0845 0.4738 -2.6491 0.9773
5.0804 0.6574 -2.6576 0.9772
5.0510 1.0250 -2.6738 0.9770
5.0255 1.2085 -2.6814 0.9770
4.9927 1.3912 -2.6888 0.9769
4.9056 1.7535 -2.7026 0.9768
4.7878 2.1085 -2.7140 0.9767
4.7195 2.2833 -2.7198 0.9767
4.5620 2.6249 -2.7305 0.9766
4.1649 3.2673 -2.7462 0.9764
4.0468 3.4153 -2.7471 0.9764
3.9262 3.5615 -2.7500 0.9764
3.7997 3.7029 -2.7524 0.9764
3.6675 3.8392 -2.7544 0.9764
3.3870 4.0955 -2.7571 0.9763
3.2392 4.2150 -2.7578 0.9763
2.7664 4.5332 -2.7551 0.9764
2.4335 4.7158 -2.7530 0.9764
1.9092 4.9357 -2.7454 0.9764
1.3642 5.0914 -2.7345 0.9765
1.1796 5.1296 -2.7306 0.9766
0.9938 5.1604 -2.7263 0.9766
0.0593 5.1991 -2.6973 0.9768
-1.6112 -4.0927 -2.4091 0.9801
-1.4649 -4.1508 -2.4108 0.9801
-1.3166 -4.2041 -2.4129 0.9801
-1.1665 -4.2524 -2.4151 0.9801
-1.0148 -4.2959 -2.4176 0.9801
-0.7066 -4.3664 -2.4226 0.9800
-0.5507 -4.3950 -2.4260 0.9800
-0.3938 -4.4184 -2.4296 0.9800
-0.0772 -4.4496 -2.4374 0.9799
0.0821 -4.4572 -2.4417 0.9799
0.5622 -4.4484 -2.4558 0.9798
1.0422 -4.3916 -2.4721 0.9796
1.3599 -4.3265 -2.4839 0.9795
1.5175 -4.2857 -2.4901 0.9795
1.8294 -4.1878 -2.5030 0.9794
1.9832 -4.1307 -2.5096 0.9793
2.1354 -4.0679 -2.5163 0.9793
2.2858 -4.0000 -2.5233 0.9792
2.4343 -3.9270 -2.5305 0.9791
2.5807 -3.8486 -2.5379 0.9791
2.8662 -3.6761 -2.5531 0.9790
3.0049 -3.5821 -2.5608 0.9789
3.1407 -3.4830 -2.5687 0.9788
3.2032 -3.0782 -2.4331 0.9799
3.3216 -2.9710 -2.4408 0.9799
3.4371 -2.8598 -2.4489 0.9798
3.6572 -2.6243 -2.4654 0.9797
3.7613 -2.5002 -2.4737 0.9796
3.8611 -2.3720 -2.4819 0.9795
3.9566 -2.2399 -2.4902 0.9795
4.1340 -1.9644 -2.5068 0.9793
4.2154 -1.8212 -2.5150 0.9793
4.2918 -1.6748 -2.5233 0.9792
4.3630 -1.5252 -2.5314 0.9791
4.4281 -1.3723 -2.5391 0.9791
4.6469 -0.7378 -2.5770 0.9788
4.6870 -0.5732 -2.5862 0.9787
4.7689 -0.0686 -2.6122 0.9785
4.7945 0.4468 -2.6373 0.9783
4.7784 0.7930 -2.6529 0.9782
4.7355 1.1387 -2.6676 0.9780
4.7039 1.3108 -2.6745 0.9780
4.6656 1.4818 -2.6811 0.9779
4.4440 2.1499 -2.7038 0.9777
4.3726 2.3119 -2.7090 0.9777
4.2947 2.4711 -2.7138 0.9777
4.2104 2.6274 -2.7182 0.9776
4.1199 2.7804 -2.7223 0.9776
4.0233 2.9299 -2.7259 0.9776
3.5756 3.4845 -2.7345 0.9775
3.4511 3.6126 -2.7364 0.9775
3.3214 3.7357 -2.7378 0.9775
2.7544 4.1705 -2.7374 0.9775
2.6032 4.2657 -2.7370 0.9775
2.4483 4.3549 -2.7363 0.9775
2.2900 4.4377 -2.7351 0.9775
2.1286 4.5142 -2.7335 0.9775
1.7976 4.6472 -2.7291 0.9775
1.6272 4.6997 -2.7239 0.9776
1.4566 4.7498 -2.7210 0.9776
1.2842 4.7930 -2.7177 0.9776
1.1105 4.8294 -2.7141 0.9777
0.7601 4.8813 -2.7057 0.9777
0.5841 4.8967 -2.7010 0.9778
-1.8075 -3.7748 -2.4164 0.9809
-1.5346 -3.8981 -2.4187 0.9808
-1.3952 -3.9532 -2.4204 0.9808
-1.2539 -4.0038 -2.4223 0.9808
-0.9663 -4.0908 -2.4269 0.9808
-0.8203 -4.1272 -2.4295 0.9808
-0.5244 -4.1844 -2.4348 0.9807
-0.2246 -4.2234 -2.4419 0.9807
0.0781 -4.2424 -2.4498 0.9806
0.9914 -4.1772 -2.4787 0.9804
1.1427 -4.1483 -2.4842 0.9803
2.7217 -3.4908 -2.5556 0.9798
3.1068 -3.2071 -2.5780 0.9796
3.3664 -2.6029 -2.4568 0.9805
3.4683 -2.4888 -2.4646 0.9805
3.5663 -2.3707 -2.4724 0.9804
3.8358 -1.9939 -2.4959 0.9802
3.9170 -1.8612 -2.5038 0.9802
3.9934 -1.7253 -2.5116 0.9801
4.3521 -0.8515 -2.5603 0.9797
4.3948 -0.6977 -2.5691 0.9797
4.4318 -0.5420 -2.5778 0.9796
4.4630 -0.3844 -2.5863 0.9795
4.4885 -0.2253 -2.5947 0.9795
4.5079 -0.0649 -2.6029 0.9794
4.5213 0.0967 -2.6109 0.9793
4.5285 0.2591 -2.6188 0.9793
4.5297 0.4221 -2.6265 0.9792
4.5130 0.7489 -2.6412 0.9791
4.4711 1.0752 -2.6550 0.9790
4.4407 1.2374 -2.6615 0.9789
4.4024 1.3982 -2.6668 0.9789
4.1930 2.0286 -2.6893 0.9787
3.9715 2.4783 -2.7027 0.9786
3.6940 2.8978 -2.7107 0.9785
3.5919 3.0313 -2.7135 0.9785
3.4844 3.1608 -2.7160 0.9785
3.3718 3.2859 -2.7182 0.9785
2.5973 3.9326 -2.7210 0.9785
2.4547 4.0225 -2.7206 0.9785
2.3087 4.1066 -2.7199 0.9785
2.0074 4.2570 -2.7173 0.9785
1.5351 4.4337 -2.7089 0.9786
1.3739 4.4803 -2.7056 0.9786
1.2114 4.5215 -2.7025 0.9786
0.8828 4.5842 -2.6953 0.9787
0.2187 4.6315 -2.6770 0.9788
-0.1124 4.6132 -2.6642 0.9789
