ply
format ascii 1.0
element vertex 1439
property float32 x
property float32 y
property float32 z
property float32 I
end_header
13.3096 -34.8449 6.5770 0.8594
15.5949 -33.4236 6.5034 0.8609
17.7032 -34.6444 6.8601 0.8538
1.7358 -2.6498 0.5586 0.9872
1.7445 -2.2870 0.5072 0.9884
1.7483 -2.1291 0.4858 0.9889
1.7549 -1.8495 0.4496 0.9897
1.7579 -1.7244 0.4342 0.9900
1.7686 -1.5021 0.4092 0.9906
1.9075 -1.5057 0.4285 0.9902
2.0604 -1.5098 0.4504 0.9897
2.4197 -1.5194 0.5038 0.9885
2.8785 -1.5316 0.5749 0.9868
4.1358 -2.0139 0.8111 0.9815
4.1401 -1.8355 0.7985 0.9818
4.1523 -1.3290 0.7688 0.9824
4.1639 -0.8537 0.7495 0.9829
4.1676 -0.6999 0.7452 0.9830
3.6096 -0.2126 0.6376 0.9854
3.6127 -0.0831 0.6372 0.9854
4.2166 1.3026 0.7782 0.9822
4.2340 2.0089 0.8264 0.9811
4.2437 2.4001 0.8597 0.9804
4.2489 2.6083 0.8791 0.9800
4.2660 3.2979 0.9508 0.9783
4.2724 3.5546 0.9800 0.9777
4.2792 3.8279 1.0124 0.9769
4.1045 4.2387 1.0404 0.9763
3.7248 4.4437 1.0224 0.9767
5.1048 7.0617 1.5364 0.9652
4.6724 6.9772 1.4806 0.9665
4.2726 6.9031 1.4315 0.9676
10.5657 24.2540 4.6648 0.8981
8.6999 24.6613 4.6111 0.8992
13.6911 43.7480 8.0829 0.8301
11.4986 41.9632 7.6720 0.8380
8.3201 41.9580 7.5424 0.8405
6.6242 41.0705 7.3354 0.8445
3.0426 24.3985 4.3354 0.9050
0.1844 11.1584 1.9678 0.9557
-1.0210 11.1869 1.9808 0.9554
-1.4281 11.1964 1.9902 0.9552
15.7340 -41.1919 6.7550 0.8366
17.7667 -38.0784 6.4371 0.8436
1.7249 -3.0964 0.5430 0.9858
1.7305 -2.8603 0.5121 0.9866
1.7356 -2.6494 0.4852 0.9873
1.7401 -2.4593 0.4615 0.9879
1.7480 -2.1288 0.4220 0.9889
1.7515 -1.9836 0.4054 0.9893
1.7547 -1.8492 0.3905 0.9897
1.7605 -1.6073 0.3652 0.9904
2.0592 -1.5089 0.3911 0.9897
2.2286 -1.5134 0.4127 0.9892
2.4181 -1.5184 0.4374 0.9885
2.6321 -1.5240 0.4659 0.9878
2.8763 -1.5305 0.4991 0.9869
4.1354 -2.0137 0.7046 0.9816
4.1558 -1.1677 0.6613 0.9827
4.1597 -1.0094 0.6557 0.9828
3.6156 0.0465 0.5539 0.9855
3.6317 0.7063 0.5668 0.9851
4.2121 1.1376 0.6684 0.9825
4.2162 1.3025 0.6760 0.9823
4.2204 1.4714 0.6847 0.9821
4.2336 2.0087 0.7179 0.9812
4.2383 2.2004 0.7316 0.9809
4.2433 2.3998 0.7468 0.9805
4.2484 2.6080 0.7637 0.9800
4.2595 3.0554 0.8030 0.9790
4.2655 3.2975 0.8259 0.9784
4.2719 3.5542 0.8513 0.9778
4.2859 4.1198 0.9107 0.9762
4.2590 4.3983 0.9379 0.9755
4.0261 4.4676 0.9213 0.9760
4.3682 6.5230 1.2027 0.9687
4.0031 6.4676 1.1652 0.9697
3.7785 6.6241 1.1683 0.9696
4.3920 8.3844 1.4500 0.9624
3.8327 8.7982 1.4702 0.9619
15.5890 44.1898 7.1785 0.8273
10.0297 42.5283 6.6938 0.8379
0.1845 11.1622 1.7102 0.9558
-0.2159 11.1717 1.7118 0.9558
-0.6175 11.1812 1.7155 0.9557
20.2957 -43.4985 6.2506 0.8240
1.7246 -3.0958 0.4615 0.9858
1.7440 -2.2864 0.3745 0.9885
1.7513 -1.9834 0.3446 0.9894
1.7603 -1.6071 0.3104 0.9904
1.9054 -1.5041 0.3161 0.9903
2.0580 -1.5080 0.3322 0.9898
2.2272 -1.5124 0.3506 0.9892
2.4165 -1.5174 0.3716 0.9886
2.6303 -1.5229 0.3958 0.9878
4.1393 -1.8351 0.5896 0.9819
4.1593 -1.0094 0.5573 0.9829
4.1631 -0.8535 0.5534 0.9830
4.1668 -0.6998 0.5502 0.9831
4.1742 -0.3964 0.5460 0.9832
3.6528 0.0470 0.4757 0.9854
3.6184 0.1764 0.4718 0.9855
3.6249 0.4385 0.4755 0.9854
4.2078 0.9761 0.5625 0.9827
4.2158 1.3024 0.5746 0.9824
4.2242 1.6449 0.5903 0.9819
4.2332 2.0085 0.6102 0.9813
4.2379 2.2002 0.6218 0.9809
4.2533 2.8258 0.6650 0.9796
4.2590 3.0551 0.6825 0.9791
4.2713 3.5537 0.7236 0.9778
4.2781 3.8270 0.7475 0.9771
3.9355 4.6952 0.7978 0.9756
4.4621 6.1727 0.9918 0.9697
4.3911 8.3827 1.2323 0.9625
3.9273 9.0153 1.2805 0.9611
3.9250 12.5419 1.7113 0.9484
3.0447 24.4149 3.2040 0.9055
3.5709 40.3735 5.2780 0.8492
1.7299 -2.8594 0.3589 0.9866
1.7350 -2.6485 0.3400 0.9873
1.7510 -1.9831 0.2841 0.9894
1.7543 -1.8488 0.2737 0.9898
1.7573 -1.7238 0.2643 0.9901
1.7601 -1.6069 0.2559 0.9905
1.9043 -1.5032 0.2605 0.9903
2.8720 -1.5282 0.3493 0.9870
4.1346 -2.0133 0.4938 0.9817
4.1389 -1.8350 0.4862 0.9820
4.1472 -1.4933 0.4733 0.9824
4.1512 -1.3287 0.4680 0.9826
4.1589 -1.0093 0.4596 0.9829
4.1022 -0.6889 0.4467 0.9834
4.1095 -0.3903 0.4433 0.9835
4.1775 -0.2461 0.4494 0.9833
4.1462 0.0533 0.4453 0.9835
3.7016 0.1804 0.3980 0.9852
3.6213 0.3069 0.3903 0.9855
3.6245 0.4385 0.3920 0.9854
4.1997 0.6616 0.4565 0.9830
4.2035 0.8175 0.4598 0.9829
4.1425 0.9609 0.4566 0.9830
4.1464 1.1199 0.4612 0.9829
4.1504 1.2822 0.4665 0.9827
4.1630 1.7954 0.4868 0.9819
4.2328 2.0083 0.5031 0.9813
4.2424 2.3993 0.5234 0.9806
4.2475 2.6075 0.5352 0.9801
4.2529 2.8255 0.5483 0.9797
4.2585 3.0547 0.5628 0.9791
4.2848 4.1188 0.6382 0.9764
4.3010 4.7726 0.6899 0.9745
4.0928 4.8827 0.6842 0.9747
3.8389 4.9284 0.6708 0.9752
4.2002 5.8104 0.7699 0.9716
4.3725 7.6655 0.9476 0.9651
4.4108 9.2088 1.0964 0.9598
4.7049 11.9529 1.3794 0.9496
11.7764 42.9771 4.7851 0.8359
0.1544 9.3417 1.0033 0.9631
-0.5168 9.3580 1.0064 0.9630
1.7240 -3.0948 0.2999 0.9859
1.7297 -2.8589 0.2829 0.9867
1.7508 -1.9828 0.2239 0.9894
1.7571 -1.7236 0.2084 0.9902
1.7599 -1.6067 0.2017 0.9905
1.9032 -1.5024 0.2053 0.9903
2.0555 -1.5063 0.2157 0.9898
2.2245 -1.5106 0.2276 0.9893
2.4134 -1.5154 0.2412 0.9886
2.8699 -1.5271 0.2752 0.9870
4.1068 -1.9998 0.3867 0.9818
4.1111 -1.8226 0.3807 0.9821
4.1153 -1.6507 0.3754 0.9824
4.1272 -1.1597 0.3629 0.9829
4.1348 -0.8478 0.3573 0.9832
4.1386 -0.6950 0.3552 0.9833
4.1422 -0.5438 0.3537 0.9834
4.1459 -0.3937 0.3525 0.9834
4.1771 -0.2460 0.3542 0.9833
4.1845 0.0538 0.3543 0.9833
3.6203 0.1765 0.3068 0.9856
3.6210 0.3069 0.3076 0.9855
4.2031 0.8175 0.3625 0.9830
4.1421 0.9608 0.3600 0.9831
4.1913 1.4613 0.3758 0.9823
4.1955 1.6337 0.3811 0.9821
4.2139 2.3832 0.4098 0.9808
4.2190 2.5899 0.4191 0.9803
4.2299 3.0342 0.4407 0.9793
4.2358 3.2746 0.4532 0.9787
4.2488 3.8007 0.4826 0.9774
4.2182 4.0547 0.4953 0.9768
4.2258 4.3640 0.5142 0.9759
4.3004 4.7720 0.5438 0.9745
3.7512 5.6016 0.5707 0.9733
4.3562 7.0383 0.7007 0.9673
4.3717 7.6641 0.7469 0.9652
4.3894 8.3793 0.8008 0.9627
4.4098 9.2068 0.8642 0.9598
4.2143 9.6741 0.8933 0.9585
3.9709 14.4915 1.2720 0.9415
4.0357 17.1123 1.4884 0.9319
2.9791 23.8892 2.0380 0.9079
0.1544 9.3447 0.7912 0.9632
-0.1807 9.3529 0.7919 0.9631
-0.5170 9.3611 0.7937 0.9631
-1.1961 9.3776 0.8003 0.9628
1.7345 -2.6477 0.1963 0.9874
1.7432 -2.2854 0.1782 0.9885
1.7538 -1.8483 0.1580 0.9898
1.7597 -1.6065 0.1478 0.9905
1.7639 -1.4981 0.1435 0.9908
1.9022 -1.5016 0.1503 0.9903
2.2231 -1.5096 0.1666 0.9893
2.4118 -1.5144 0.1766 0.9887
2.8678 -1.5259 0.2014 0.9871
4.1064 -1.9996 0.2832 0.9819
4.1269 -1.1596 0.2658 0.9830
4.1382 -0.6949 0.2602 0.9833
4.1419 -0.5438 0.2590 0.9834
4.1455 -0.3937 0.2582 0.9834
4.1768 -0.2460 0.2595 0.9834
4.1804 -0.0961 0.2593 0.9834
3.6587 0.0470 0.2269 0.9854
3.6636 0.1786 0.2275 0.9854
4.2028 0.8174 0.2655 0.9830
4.1417 0.9608 0.2637 0.9831
4.1909 1.4612 0.2752 0.9824
4.1951 1.6335 0.2792 0.9821
4.1995 1.8111 0.2836 0.9818
4.2039 1.9946 0.2885 0.9815
4.2086 2.1850 0.2941 0.9812
4.2185 2.5896 0.3070 0.9804
4.2354 3.2742 0.3320 0.9788
4.2416 3.5290 0.3422 0.9781
4.2483 3.8003 0.3535 0.9774
4.2554 4.0905 0.3660 0.9766
4.2631 4.4025 0.3800 0.9757
4.2675 4.7354 0.3953 0.9748
4.0645 5.2179 0.4101 0.9738
4.3267 6.9905 0.5098 0.9676
4.3048 7.5469 0.5388 0.9658
4.3208 8.2484 0.5774 0.9634
4.4089 9.2048 0.6329 0.9599
4.3720 10.0360 0.6788 0.9571
4.1044 14.9786 0.9631 0.9397
2.9801 23.8971 1.4933 0.9080
2.0962 39.9892 2.4831 0.8517
0.1545 9.3478 0.5797 0.9632
-0.1808 9.3560 0.5803 0.9632
-0.5171 9.3642 0.5816 0.9631
-0.8554 9.3725 0.5836 0.9630
-1.1965 9.3808 0.5864 0.9628
1.7291 -2.8580 0.1317 0.9867
1.7342 -2.6473 0.1248 0.9874
1.7388 -2.4575 0.1187 0.9880
1.7430 -2.2851 0.1133 0.9886
1.7468 -2.1274 0.1085 0.9890
1.7504 -1.9823 0.1043 0.9895
1.7566 -1.7232 0.0970 0.9902
2.0532 -1.5045 0.1004 0.9899
2.2218 -1.5087 0.1059 0.9893
2.6230 -1.5187 0.1195 0.9879
4.1060 -1.9994 0.1801 0.9819
4.1145 -1.6504 0.1748 0.9824
4.1186 -1.4830 0.1726 0.9826
4.1226 -1.3195 0.1707 0.9828
4.1303 -1.0023 0.1676 0.9831
4.1341 -0.8476 0.1664 0.9832
4.1378 -0.6949 0.1654 0.9833
4.1415 -0.5437 0.1647 0.9834
4.1764 -0.2460 0.1650 0.9834
4.1801 -0.0961 0.1649 0.9834
4.1874 0.2041 0.1653 0.9834
4.1911 0.3552 0.1659 0.9833
4.2024 0.8173 0.1688 0.9830
4.1824 1.1296 0.1708 0.9828
4.1864 1.2933 0.1728 0.9826
4.1947 1.6333 0.1775 0.9821
4.2181 2.5894 0.1952 0.9804
4.2234 2.8059 0.1999 0.9799
4.2349 3.2738 0.2111 0.9788
4.2411 3.5286 0.2175 0.9782
4.2478 3.7998 0.2247 0.9774
4.2549 4.0900 0.2327 0.9767
4.2625 4.4020 0.2416 0.9758
4.3259 6.9893 0.3241 0.9676
4.3412 7.6106 0.3455 0.9655
4.3586 8.3206 0.3704 0.9631
4.3788 9.1420 0.3997 0.9602
4.4317 10.1732 0.4376 0.9566
4.4650 12.6570 0.5292 0.9477
2.0891 39.8537 1.5736 0.8524
-0.8557 9.3756 0.3712 0.9630
-1.1969 9.3839 0.3730 0.9628
1.7339 -2.6469 0.0535 0.9874
1.7428 -2.2847 0.0485 0.9886
1.7466 -2.1271 0.0465 0.9890
1.7501 -1.9821 0.0447 0.9895
1.7534 -1.8479 0.0430 0.9899
1.7621 -1.4965 0.0391 0.9908
1.9001 -1.4999 0.0409 0.9904
2.2204 -1.5078 0.0453 0.9893
2.4087 -1.5124 0.0480 0.9887
2.6212 -1.5177 0.0512 0.9880
4.1182 -1.4828 0.0739 0.9826
4.1299 -1.0022 0.0718 0.9831
4.1337 -0.8475 0.0713 0.9833
4.1375 -0.6948 0.0709 0.9834
4.1448 -0.3936 0.0703 0.9835
4.1797 -0.0961 0.0706 0.9834
4.1834 0.0538 0.0707 0.9834
4.1870 0.2041 0.0708 0.9834
4.1907 0.3552 0.0710 0.9833
4.1944 0.5075 0.0714 0.9832
4.1982 0.6613 0.0718 0.9831
4.2020 0.8172 0.0723 0.9830
4.1820 1.1295 0.0732 0.9828
4.1901 1.4609 0.0750 0.9824
4.1943 1.6332 0.0760 0.9822
4.2031 1.9943 0.0786 0.9816
4.2344 3.2735 0.0904 0.9788
4.2472 3.7993 0.0963 0.9775
4.2543 4.0895 0.0997 0.9767
4.2620 4.4014 0.1035 0.9758
4.2702 4.7385 0.1078 0.9748
4.3077 5.1391 0.1133 0.9735
4.3118 6.4387 0.1309 0.9695
4.3778 9.1400 0.1712 0.9603
4.4307 10.1708 0.1874 0.9566
4.4335 11.2634 0.2045 0.9527
4.4638 12.6533 0.2266 0.9477
4.5065 14.4000 0.2549 0.9414
4.5615 16.6468 0.2916 0.9333
4.6351 19.6538 0.3411 0.9224
2.0892 39.8570 0.6742 0.8524
0.1546 9.3540 0.1580 0.9633
-0.1809 9.3622 0.1582 0.9632
-0.5175 9.3704 0.1585 0.9632
-0.8560 9.3787 0.1591 0.9630
1.7285 -2.8570 -0.0188 0.9867
1.7383 -2.4567 -0.0169 0.9880
1.7499 -1.9818 -0.0149 0.9895
1.7562 -1.7228 -0.0138 0.9902
1.7591 -1.6060 -0.0134 0.9905
2.0508 -1.5028 -0.0143 0.9899
2.4072 -1.5115 -0.0160 0.9887
2.6194 -1.5167 -0.0170 0.9880
2.8614 -1.5226 -0.0182 0.9871
4.0688 -1.9813 -0.0255 0.9821
4.0731 -1.8058 -0.0251 0.9823
4.0929 -0.9932 -0.0237 0.9833
4.1646 -0.6994 -0.0238 0.9832
4.1830 0.0538 -0.0236 0.9834
4.1903 0.3551 -0.0237 0.9833
4.1978 0.6613 -0.0239 0.9831
4.2016 0.8172 -0.0241 0.9830
4.2055 0.9756 -0.0243 0.9829
4.2262 1.8226 -0.0259 0.9818
4.2307 2.0073 -0.0264 0.9814
4.2353 2.1989 -0.0269 0.9811
4.2402 2.3981 -0.0274 0.9807
4.2562 3.0530 -0.0295 0.9793
4.2683 3.5512 -0.0313 0.9780
4.2750 3.8242 -0.0323 0.9773
4.2898 4.4301 -0.0347 0.9756
4.2980 4.7694 -0.0361 0.9746
4.3071 5.1383 -0.0377 0.9735
4.3684 7.6584 -0.0496 0.9653
4.3859 8.3727 -0.0532 0.9629
4.4060 9.1989 -0.0574 0.9600
4.4297 10.1685 -0.0624 0.9566
4.4579 11.3254 -0.0685 0.9525
4.4922 12.7340 -0.0760 0.9474
4.5902 16.7515 -0.0978 0.9329
4.6639 19.7762 -0.1144 0.9219
2.0894 39.8602 -0.2247 0.8524
0.1546 9.3571 -0.0527 0.9633
-0.1810 9.3653 -0.0527 0.9632
-0.5177 9.3735 -0.0529 0.9631
1.7225 -3.0921 -0.0997 0.9859
1.7423 -2.2841 -0.0809 0.9886
1.7461 -2.1265 -0.0775 0.9890
1.7497 -1.9816 -0.0744 0.9895
1.7529 -1.8474 -0.0717 0.9899
1.7560 -1.7225 -0.0693 0.9902
1.7589 -1.6058 -0.0671 0.9905
2.4056 -1.5105 -0.0800 0.9887
2.6176 -1.5156 -0.0852 0.9880
2.8593 -1.5214 -0.0912 0.9871
4.1322 -2.0121 -0.1294 0.9818
4.1365 -1.8339 -0.1274 0.9821
4.1407 -1.6609 -0.1256 0.9823
4.1489 -1.3279 -0.1227 0.9827
4.1716 -0.3962 -0.1180 0.9834
4.1753 -0.2459 -0.1178 0.9834
4.1790 -0.0961 -0.1177 0.9834
4.1826 0.0538 -0.1178 0.9834
4.1863 0.2040 -0.1180 0.9834
4.1900 0.3551 -0.1184 0.9833
4.1975 0.6612 -0.1196 0.9831
4.2051 0.9755 -0.1215 0.9829
4.2090 1.1368 -0.1228 0.9827
4.2131 1.3015 -0.1242 0.9825
4.2214 1.6437 -0.1276 0.9820
4.2501 2.8236 -0.1437 0.9798
4.2557 3.0527 -0.1475 0.9793
4.2616 3.2945 -0.1517 0.9787
4.2678 3.5508 -0.1563 0.9780
4.2745 3.8237 -0.1615 0.9773
4.2816 4.1157 -0.1672 0.9765
4.2892 4.4295 -0.1736 0.9756
4.2975 4.7688 -0.1808 0.9746
4.3676 7.6570 -0.2482 0.9653
4.4051 9.1969 -0.2871 0.9600
4.4287 10.1661 -0.3122 0.9566
4.5336 14.4866 -0.4274 0.9411
2.9840 23.9287 -0.6790 0.9080
3.6144 40.8656 -1.1552 0.8486
2.0896 39.8635 -1.1240 0.8524
-0.5178 9.3766 -0.2644 0.9631
1.7222 -3.0915 -0.1795 0.9859
1.7280 -2.8561 -0.1693 0.9867
1.7331 -2.6457 -0.1604 0.9874
1.7420 -2.2838 -0.1457 0.9886
1.7459 -2.1263 -0.1395 0.9890
1.7495 -1.9813 -0.1340 0.9895
1.7527 -1.8471 -0.1291 0.9899
1.8970 -1.4974 -0.1226 0.9904
2.2164 -1.5051 -0.1359 0.9893
2.6158 -1.5146 -0.1533 0.9880
2.8572 -1.5203 -0.1641 0.9871
4.1485 -1.3278 -0.2209 0.9827
4.1524 -1.1667 -0.2187 0.9829
4.1563 -1.0086 -0.2169 0.9830
4.1639 -0.6992 -0.2141 0.9832
4.1676 -0.5471 -0.2132 0.9833
4.1713 -0.3961 -0.2125 0.9834
4.1786 -0.0961 -0.2120 0.9834
4.1859 0.2040 -0.2125 0.9834
4.1971 0.6612 -0.2155 0.9831
4.2009 0.8170 -0.2170 0.9830
4.2086 1.1367 -0.2211 0.9827
4.2127 1.3014 -0.2236 0.9825
4.2168 1.4702 -0.2265 0.9823
4.2253 1.8223 -0.2334 0.9817
4.2298 2.0069 -0.2374 0.9814
4.2444 2.6055 -0.2526 0.9803
4.2673 3.5504 -0.2815 0.9780
4.2810 4.1152 -0.3011 0.9765
4.2887 4.4289 -0.3127 0.9756
4.2969 4.7681 -0.3255 0.9746
4.3383 6.4783 -0.3954 0.9693
4.3517 7.0309 -0.4193 0.9674
4.3668 7.6556 -0.4470 0.9653
4.4042 9.1950 -0.5170 0.9600
4.4276 10.1637 -0.5622 0.9566
4.4556 11.3196 -0.6169 0.9524
4.4897 12.7267 -0.6844 0.9474
4.5322 14.4820 -0.7696 0.9410
3.7732 13.7702 -0.7241 0.9444
3.6725 22.7701 -1.1697 0.9118
2.9850 23.9367 -1.2233 0.9079
3.6113 40.8305 -2.0788 0.8486
2.0897 39.8667 -2.0246 0.8522
-0.2165 11.2050 -0.5684 0.9561
18.8214 -44.4286 -3.5379 0.8241
20.3113 -43.5319 -3.5222 0.8248
1.7219 -3.0910 -0.2594 0.9859
1.7277 -2.8556 -0.2447 0.9867
1.7375 -2.4556 -0.2206 0.9880
1.7418 -2.2835 -0.2106 0.9885
1.7556 -1.7221 -0.1803 0.9902
1.7612 -1.4957 -0.1694 0.9908
1.8960 -1.4966 -0.1771 0.9904
2.0473 -1.5002 -0.1861 0.9899
4.1400 -1.6605 -0.3271 0.9823
4.1672 -0.5471 -0.3082 0.9833
4.1709 -0.3961 -0.3072 0.9833
4.1746 -0.2459 -0.3066 0.9834
4.1783 -0.0961 -0.3064 0.9834
4.1856 0.2040 -0.3073 0.9833
4.1929 0.5073 -0.3097 0.9832
4.1967 0.6611 -0.3115 0.9831
4.2005 0.8170 -0.3138 0.9830
4.2123 1.3013 -0.3233 0.9825
4.2164 1.4701 -0.3274 0.9823
4.2206 1.6434 -0.3321 0.9820
4.2249 1.8221 -0.3374 0.9817
4.2294 2.0067 -0.3432 0.9814
4.2389 2.3974 -0.3571 0.9807
4.2439 2.6053 -0.3651 0.9802
4.2492 2.8230 -0.3741 0.9797
4.2606 3.2937 -0.3949 0.9786
4.2668 3.5500 -0.4070 0.9780
4.2805 4.1146 -0.4353 0.9765
4.2881 4.4283 -0.4520 0.9756
4.2963 4.7675 -0.4706 0.9746
4.3052 5.1362 -0.4914 0.9735
4.3149 5.5395 -0.5148 0.9722
4.3257 5.9839 -0.5414 0.9708
4.3509 7.0297 -0.6062 0.9674
4.3660 7.6542 -0.6461 0.9653
4.3832 8.3677 -0.6926 0.9628
4.4266 10.1614 -0.8127 0.9565
3.9024 9.9143 -0.7812 0.9582
2.9860 23.9446 -1.7693 0.9078
2.9436 33.2811 -2.4498 0.8746
-1.0248 11.2280 -0.8267 0.9558
-1.4334 11.2378 -0.8306 0.9556
13.8491 -29.6818 -3.1445 0.8767
14.8717 -29.1033 -3.1377 0.8769
1.7326 -2.6448 -0.3035 0.9874
1.7373 -2.4553 -0.2888 0.9880
1.7415 -2.2831 -0.2757 0.9885
1.7454 -2.1257 -0.2641 0.9890
1.7523 -1.8467 -0.2444 0.9898
1.7554 -1.7219 -0.2361 0.9902
1.7583 -1.6052 -0.2286 0.9905
2.6122 -1.5125 -0.2898 0.9879
2.8530 -1.5181 -0.3103 0.9871
4.1517 -1.1666 -0.4140 0.9828
4.1594 -0.8528 -0.4076 0.9831
4.1668 -0.5470 -0.4035 0.9833
4.1779 -0.0960 -0.4012 0.9833
4.1815 0.0538 -0.4015 0.9833
4.1852 0.2040 -0.4023 0.9833
4.1889 0.3550 -0.4036 0.9832
4.1926 0.5072 -0.4054 0.9832
4.1963 0.6611 -0.4078 0.9831
4.2079 1.1365 -0.4185 0.9826
4.2160 1.4699 -0.4287 0.9822
4.2202 1.6433 -0.4348 0.9820
4.2336 2.1980 -0.4580 0.9810
4.2543 3.0517 -0.5026 0.9792
4.2729 3.8223 -0.5504 0.9772
4.2800 4.1141 -0.5699 0.9764
4.2875 4.4278 -0.5917 0.9755
4.2957 4.7668 -0.6160 0.9745
4.3143 5.5387 -0.6740 0.9722
4.3250 5.9829 -0.7088 0.9708
4.3652 7.6527 -0.8458 0.9652
4.3824 8.3660 -0.9067 0.9628
3.4258 8.7034 -0.8980 0.9631
3.0733 8.7119 -0.8869 0.9636
2.3916 8.7283 -0.8688 0.9643
0.1451 8.7829 -0.8433 0.9653
-1.1243 8.8141 -0.8530 0.9649
8.8590 -23.1930 -2.9491 0.9048
1.7213 -3.0899 -0.4201 0.9859
1.7271 -2.8547 -0.3963 0.9867
1.7413 -2.2828 -0.3410 0.9885
1.7488 -1.9805 -0.3138 0.9894
1.7521 -1.8465 -0.3024 0.9898
1.7580 -1.6050 -0.2828 0.9905
1.7608 -1.4954 -0.2744 0.9907
2.2123 -1.5023 -0.3177 0.9893
2.6104 -1.5114 -0.3583 0.9879
2.8509 -1.5170 -0.3836 0.9871
4.1349 -1.8332 -0.5373 0.9819
4.1392 -1.6602 -0.5298 0.9822
4.1474 -1.3274 -0.5173 0.9826
4.1513 -1.1664 -0.5122 0.9828
4.1702 -0.3960 -0.4976 0.9833
4.1738 -0.2458 -0.4967 0.9833
4.1775 -0.0960 -0.4964 0.9833
4.1848 0.2040 -0.4977 0.9833
4.1885 0.3550 -0.4993 0.9832
4.1959 0.6610 -0.5046 0.9830
4.2075 1.1363 -0.5177 0.9826
4.2115 1.3011 -0.5236 0.9824
4.2198 1.6431 -0.5379 0.9819
4.2241 1.8217 -0.5464 0.9816
4.2538 3.0514 -0.6218 0.9791
4.2597 3.2930 -0.6396 0.9785
4.2658 3.5492 -0.6592 0.9779
4.2951 4.7662 -0.7621 0.9745
4.3136 5.5378 -0.8338 0.9721
4.3243 5.9820 -0.8768 0.9707
4.3362 6.4751 -0.9257 0.9691
4.3494 7.0272 -0.9817 0.9673
4.3644 7.6513 -1.0463 0.9651
4.3815 8.3643 -1.1216 0.9627
4.4013 9.1890 -1.2103 0.9598
3.7890 8.6979 -1.1270 0.9625
3.0744 8.7150 -1.0977 0.9635
2.0610 8.7393 -1.0666 0.9645
1.4120 8.7550 -1.0534 0.9649
-0.4861 8.8013 -1.0471 0.9651
-0.8041 8.8091 -1.0507 0.9650
7.8444 -18.5168 -2.8493 0.9220
8.4978 -18.2127 -2.8476 0.9220
9.1378 -17.8822 -2.8454 0.9221
1.7210 -3.0894 -0.5011 0.9858
1.7268 -2.8542 -0.4727 0.9866
1.7321 -2.6440 -0.4479 0.9873
1.7368 -2.4545 -0.4260 0.9879
1.7410 -2.2825 -0.4067 0.9885
1.7578 -1.6048 -0.3373 0.9904
1.7605 -1.4952 -0.3273 0.9907
1.8928 -1.4941 -0.3417 0.9903
2.0437 -1.4976 -0.3590 0.9898
2.8488 -1.5158 -0.4572 0.9870
4.1345 -1.8330 -0.6408 0.9819
4.1429 -1.4917 -0.6239 0.9824
4.1509 -1.1663 -0.6109 0.9827
4.1586 -0.8526 -0.6015 0.9830
4.1624 -0.6990 -0.5980 0.9831
4.1734 -0.2458 -0.5924 0.9833
4.1771 -0.0960 -0.5920 0.9833
4.1808 0.0538 -0.5924 0.9833
4.1844 0.2039 -0.5936 0.9832
4.1881 0.3549 -0.5955 0.9832
4.1918 0.5071 -0.5983 0.9831
4.2071 1.1363 -0.6175 0.9825
4.2194 1.6430 -0.6416 0.9819
4.2281 2.0061 -0.6631 0.9813
4.2426 2.6044 -0.7054 0.9801
4.2478 2.8221 -0.7226 0.9796
4.2533 3.0510 -0.7417 0.9791
4.2592 3.2926 -0.7628 0.9785
4.2789 4.1131 -0.8410 0.9763
4.2864 4.4266 -0.8731 0.9754
4.2945 4.7655 -0.9090 0.9744
4.3236 5.9811 -1.0457 0.9706
4.3354 6.4741 -1.1040 0.9690
4.3486 7.0260 -1.1708 0.9672
4.3636 7.6499 -1.2478 0.9650
1.4125 8.7579 -1.2569 0.9648
1.0931 8.7657 -1.2516 0.9649
0.7759 8.7734 -1.2479 0.9650
0.1452 8.7888 -1.2454 0.9651
-0.4863 8.8043 -1.2494 0.9650
-1.1250 8.8200 -1.2598 0.9647
6.0582 -15.8604 -2.7970 0.9335
1.7265 -2.8537 -0.5495 0.9866
1.7447 -2.1248 -0.4529 0.9889
1.7483 -1.9800 -0.4351 0.9893
1.7516 -1.8460 -0.4192 0.9897
2.0425 -1.4967 -0.4171 0.9898
2.2096 -1.5005 -0.4400 0.9892
2.3963 -1.5046 -0.4661 0.9886
2.6067 -1.5093 -0.4962 0.9879
2.8466 -1.5147 -0.5312 0.9870
4.1341 -1.8328 -0.7450 0.9818
4.1384 -1.6599 -0.7345 0.9821
4.1425 -1.4916 -0.7253 0.9823
4.1466 -1.3272 -0.7172 0.9825
4.1505 -1.1662 -0.7102 0.9827
4.1544 -1.0082 -0.7043 0.9828
4.1657 -0.5469 -0.6921 0.9831
4.1694 -0.3960 -0.6900 0.9832
4.1731 -0.2458 -0.6887 0.9832
4.1768 -0.0960 -0.6883 0.9832
4.1804 0.0538 -0.6887 0.9832
4.1877 0.3549 -0.6924 0.9831
4.1914 0.5071 -0.6955 0.9830
4.1952 0.6609 -0.6996 0.9829
4.2028 0.9749 -0.7107 0.9827
4.2107 1.3008 -0.7260 0.9823
4.2233 1.8214 -0.7577 0.9815
4.2277 2.0059 -0.7709 0.9812
4.2421 2.6042 -0.8200 0.9800
4.2474 2.8218 -0.8401 0.9795
4.2587 3.2922 -0.8868 0.9784
4.2648 3.5483 -0.9140 0.9778
4.2713 3.8209 -0.9441 0.9770
4.2783 4.1125 -0.9776 0.9762
4.2940 4.7649 -1.0567 0.9743
4.3123 5.5362 -1.1561 0.9720
4.3229 5.9801 -1.2156 0.9705
4.3347 6.4730 -1.2834 0.9689
4.3627 7.6484 -1.4506 0.9649
4.3993 9.1850 -1.6777 0.9596
2.0624 8.7453 -1.4802 0.9642
1.4130 8.7609 -1.4619 0.9647
1.0934 8.7687 -1.4557 0.9648
0.7762 8.7763 -1.4514 0.9649
0.4604 8.7840 -1.4491 0.9650
-0.1701 8.7995 -1.4499 0.9650
-0.4864 8.8073 -1.4531 0.9649
-0.8046 8.8151 -1.4582 0.9648
-1.1254 8.8231 -1.4653 0.9646
5.2467 -13.7360 -2.7638 0.9419
5.7326 -13.5320 -2.7623 0.9419
6.2100 -13.3095 -2.7606 0.9420
6.6781 -13.0689 -2.7586 0.9420
1.7204 -3.0883 -0.6645 0.9857
1.7263 -2.8533 -0.6268 0.9865
1.7315 -2.6432 -0.5939 0.9872
1.7362 -2.4538 -0.5650 0.9878
1.7445 -2.1245 -0.5167 0.9889
1.7514 -1.8458 -0.4783 0.9897
1.7545 -1.7211 -0.4620 0.9900
1.7601 -1.4949 -0.4341 0.9906
1.8907 -1.4925 -0.4527 0.9902
2.0413 -1.4958 -0.4757 0.9898
2.2082 -1.4995 -0.5017 0.9892
2.6049 -1.5083 -0.5658 0.9878
2.8445 -1.5136 -0.6056 0.9870
4.1293 -2.0108 -0.8633 0.9815
4.1380 -1.6598 -0.8380 0.9820
4.1421 -1.4914 -0.8275 0.9822
4.1462 -1.3271 -0.8183 0.9824
4.1501 -1.1661 -0.8103 0.9826
4.1578 -0.8525 -0.7978 0.9829
4.1653 -0.5468 -0.7896 0.9830
4.1690 -0.3959 -0.7871 0.9831
4.1837 0.2039 -0.7873 0.9831
4.1873 0.3549 -0.7899 0.9830
4.1910 0.5071 -0.7935 0.9830
4.1948 0.6608 -0.7982 0.9829
4.2024 0.9748 -0.8109 0.9826
4.2185 1.6426 -0.8509 0.9817
4.2273 2.0057 -0.8795 0.9811
4.2524 3.0503 -0.9837 0.9789
4.2582 3.2919 -1.0116 0.9783
4.2643 3.5479 -1.0427 0.9777
4.2708 3.8205 -1.0771 0.9769
4.2778 4.1120 -1.1153 0.9761
4.3117 5.5353 -1.3188 0.9718
4.3223 5.9792 -1.3867 0.9704
4.3619 7.6470 -1.6547 0.9648
4.3984 9.1830 -1.9138 0.9594
3.4307 8.7159 -1.7606 0.9626
3.0776 8.7242 -1.7389 0.9630
2.0631 8.7483 -1.6894 0.9641
1.7363 8.7562 -1.6779 0.9643
0.7764 8.7793 -1.6566 0.9648
0.4605 8.7870 -1.6539 0.9648
-0.4866 8.8103 -1.6585 0.9647
-1.1258 8.8261 -1.6724 0.9644
5.4769 -11.7383 -2.7380 0.9484
5.8898 -11.5261 -2.7361 0.9485
1.7260 -2.8528 -0.7048 0.9865
1.7312 -2.6428 -0.6678 0.9872
1.7360 -2.4534 -0.6353 0.9878
1.7403 -2.2815 -0.6065 0.9883
1.7478 -1.9795 -0.5582 0.9893
1.7512 -1.8455 -0.5378 0.9897
1.7543 -1.7209 -0.5194 0.9900
1.8896 -1.4916 -0.5089 0.9902
2.0401 -1.4949 -0.5346 0.9897
2.6031 -1.5072 -0.6358 0.9878
2.8423 -1.5124 -0.6806 0.9869
4.1289 -2.0105 -0.9707 0.9814
4.1333 -1.8325 -0.9557 0.9817
4.1376 -1.6596 -0.9423 0.9819
4.1497 -1.1660 -0.9111 0.9825
4.1612 -0.6988 -0.8919 0.9829
4.1650 -0.5468 -0.8879 0.9830
4.1723 -0.2458 -0.8835 0.9831
4.1760 -0.0960 -0.8830 0.9831
4.1833 0.2039 -0.8853 0.9830
4.1870 0.3549 -0.8882 0.9830
4.1907 0.5070 -0.8923 0.9829
4.1944 0.6607 -0.8975 0.9828
4.2020 0.9747 -0.9118 0.9825
4.2059 1.1359 -0.9209 0.9823
4.2099 1.3006 -0.9314 0.9821
4.2140 1.4692 -0.9433 0.9819
4.2181 1.6425 -0.9568 0.9817
4.2269 2.0055 -0.9889 0.9811
4.2315 2.1968 -1.0078 0.9807
4.2577 3.2915 -1.1376 0.9782
4.2703 3.8200 -1.2111 0.9768
4.2772 4.1115 -1.2541 0.9760
4.2928 4.7635 -1.3555 0.9741
4.3216 5.9782 -1.5593 0.9703
3.7945 8.7106 -2.0084 0.9619
3.0788 8.7274 -1.9562 0.9629
2.7338 8.7355 -1.9348 0.9633
2.0639 8.7514 -1.9006 0.9639
1.7369 8.7592 -1.8876 0.9642
1.0942 8.7747 -1.8691 0.9645
0.4607 8.7900 -1.8606 0.9647
-0.1702 8.8055 -1.8616 0.9646
-0.4868 8.8133 -1.8658 0.9646
4.5206 -10.6709 -2.7237 0.9535
5.2664 -10.3060 -2.7201 0.9536
1.7197 -3.0872 -0.8305 0.9856
1.7309 -2.6423 -0.7424 0.9871
1.7357 -2.4531 -0.7062 0.9877
1.7400 -2.2812 -0.6743 0.9883
1.7509 -1.8453 -0.5979 0.9896
1.7541 -1.7207 -0.5775 0.9900
1.7570 -1.6041 -0.5591 0.9903
2.0388 -1.4940 -0.5941 0.9897
2.2054 -1.4976 -0.6265 0.9891
2.3915 -1.5016 -0.6637 0.9885
4.1285 -2.0104 -1.0792 0.9813
4.1329 -1.8323 -1.0625 0.9816
4.1372 -1.6595 -1.0476 0.9819
4.1413 -1.4912 -1.0345 0.9821
4.1454 -1.3268 -1.0229 0.9823
4.1494 -1.1659 -1.0130 0.9824
4.1571 -0.8523 -0.9973 0.9827
4.1646 -0.5467 -0.9872 0.9829
4.1683 -0.3959 -0.9840 0.9829
4.1719 -0.2457 -0.9822 0.9830
4.1792 0.0537 -0.9823 0.9830
4.1866 0.3548 -0.9875 0.9829
4.1903 0.5069 -0.9920 0.9828
4.1940 0.6607 -0.9978 0.9827
4.1978 0.8164 -1.0051 0.9826
4.2016 0.9746 -1.0137 0.9824
4.2135 1.4691 -1.0487 0.9818
4.2264 2.0053 -1.0994 0.9810
4.2310 2.1966 -1.1204 0.9806
4.2408 2.6033 -1.1695 0.9798
4.2514 3.0496 -1.2297 0.9787
4.2572 3.2911 -1.2646 0.9781
4.3009 5.1310 -1.5735 0.9729
4.3103 5.5336 -1.6485 0.9716
4.3455 7.0209 -1.9406 0.9666
4.3602 7.6440 -2.0682 0.9645
3.7960 8.7139 -2.2338 0.9617
3.4332 8.7223 -2.2030 0.9622
3.0799 8.7306 -2.1758 0.9627
2.0646 8.7545 -2.1139 0.9637
1.7375 8.7623 -2.0994 0.9640
1.4145 8.7700 -2.0878 0.9642
1.0946 8.7777 -2.0789 0.9643
0.7770 8.7854 -2.0728 0.9644
0.4609 8.7931 -2.0694 0.9645
0.1454 8.8008 -2.0687 0.9645
4.0852 -9.6433 -2.7116 0.9576
4.4253 -9.4845 -2.7099 0.9577
1.7254 -2.8518 -0.8630 0.9863
1.7307 -2.6419 -0.8177 0.9870
1.7354 -2.4527 -0.7779 0.9877
1.7437 -2.1236 -0.7114 0.9887
1.7474 -1.9789 -0.6835 0.9892
1.7595 -1.4943 -0.5977 0.9905
2.3899 -1.5006 -0.7306 0.9884
4.1281 -2.0101 -1.1888 0.9812
4.1325 -1.8321 -1.1704 0.9815
4.1367 -1.6593 -1.1540 0.9818
4.1490 -1.1658 -1.1158 0.9824
4.1567 -0.8522 -1.0986 0.9826
4.1605 -0.6987 -1.0923 0.9827
4.1642 -0.5467 -1.0874 0.9828
4.1715 -0.2457 -1.0820 0.9829
4.1789 0.0537 -1.0821 0.9829
4.1862 0.3548 -1.0878 0.9828
4.1899 0.5069 -1.0927 0.9827
4.1936 0.6606 -1.0992 0.9826
4.2012 0.9746 -1.1166 0.9823
4.2051 1.1357 -1.1278 0.9822
4.2091 1.3003 -1.1406 0.9820
4.2131 1.4689 -1.1553 0.9817
4.2173 1.6422 -1.1718 0.9815
4.2216 1.8206 -1.1904 0.9812
4.2260 2.0051 -1.2111 0.9809
4.2353 2.3953 -1.2598 0.9801
4.2403 2.6030 -1.2882 0.9797
4.2455 2.8206 -1.3197 0.9792
4.2509 3.0492 -1.3545 0.9786
4.2567 3.2907 -1.3931 0.9780
4.2692 3.8190 -1.4831 0.9766
4.2761 4.1104 -1.5357 0.9758
4.2835 4.4236 -1.5943 0.9749
4.2915 4.7622 -1.6598 0.9739
4.3002 5.1302 -1.7332 0.9727
4.3317 6.4685 -2.0157 0.9683
4.3594 7.6425 -2.2781 0.9643
4.3761 8.3540 -2.4418 0.9618
3.0810 8.7338 -2.3979 0.9625
2.0653 8.7576 -2.3297 0.9635
1.7381 8.7654 -2.3137 0.9638
1.0950 8.7808 -2.2911 0.9641
0.7773 8.7885 -2.2844 0.9642
-0.4871 8.8195 -2.2870 0.9642
-0.8057 8.8274 -2.2951 0.9640
4.0841 -7.9924 -2.5409 0.9634
1.7251 -2.8513 -0.9434 0.9862
1.7352 -2.4523 -0.8504 0.9876
1.7471 -1.9787 -0.7473 0.9891
1.7536 -1.7202 -0.6954 0.9898
1.7566 -1.6037 -0.6733 0.9902
1.7593 -1.4942 -0.6534 0.9905
1.8863 -1.4890 -0.6803 0.9901
2.0364 -1.4922 -0.7147 0.9896
2.2026 -1.4957 -0.7537 0.9890
2.5974 -1.5039 -0.8497 0.9876
4.1276 -2.0099 -1.2997 0.9811
4.1321 -1.8319 -1.2796 0.9814
4.1363 -1.6591 -1.2617 0.9816
4.1405 -1.4909 -1.2458 0.9819
4.1446 -1.3266 -1.2319 0.9821
4.1485 -1.1657 -1.2199 0.9822
4.1563 -0.8522 -1.2011 0.9825
4.1601 -0.6986 -1.1942 0.9826
4.1675 -0.3958 -1.1851 0.9827
4.1748 -0.0960 -1.1822 0.9828
4.1821 0.2039 -1.1853 0.9827
4.1858 0.3548 -1.1892 0.9827
4.1895 0.5068 -1.1947 0.9826
4.2008 0.9744 -1.2208 0.9822
4.2086 1.3002 -1.2470 0.9819
4.2127 1.4688 -1.2630 0.9816
4.2211 1.8204 -1.3014 0.9811
4.2255 2.0049 -1.3240 0.9807
4.2398 2.6027 -1.4084 0.9795
4.2504 3.0489 -1.4808 0.9785
4.2561 3.2903 -1.5229 0.9779
4.2622 3.5461 -1.5696 0.9772
4.2686 3.8185 -1.6214 0.9765
4.2755 4.1099 -1.6789 0.9756
4.3310 6.4674 -2.2035 0.9682
4.3439 7.0184 -2.3366 0.9663
4.1201 7.8652 -2.5136 0.9638
3.8328 8.0021 -2.5118 0.9638
3.5422 8.1313 -2.5109 0.9638
3.2496 8.2557 -2.5116 0.9638
2.9525 8.3694 -2.5124 0.9638
2.6515 8.4724 -2.5132 0.9638
2.3428 8.5498 -2.5096 0.9638
1.0954 8.7840 -2.5059 0.9639
0.7775 8.7916 -2.4985 0.9640
-0.4873 8.8226 -2.5014 0.9639
-0.8060 8.8305 -2.5102 0.9638
-1.1225 8.8005 -2.5115 0.9638
3.1277 -8.1883 -2.6960 0.9640
3.4858 -7.4709 -2.5357 0.9661
1.7248 -2.8508 -1.0248 0.9862
1.7301 -2.6410 -0.9711 0.9869
1.7349 -2.4519 -0.9238 0.9875
1.7432 -2.1230 -0.8449 0.9886
1.7503 -1.8445 -0.7821 0.9894
1.7534 -1.7200 -0.7555 0.9898
2.0351 -1.4913 -0.7760 0.9895
2.5955 -1.5028 -0.9225 0.9875
2.8335 -1.5077 -0.9872 0.9867
4.1316 -1.8317 -1.3901 0.9813
4.1359 -1.6589 -1.3706 0.9815
4.1401 -1.4907 -1.3534 0.9818
4.1442 -1.3264 -1.3384 0.9820
4.1481 -1.1655 -1.3253 0.9821
4.1520 -1.0076 -1.3141 0.9823
4.1559 -0.8521 -1.3048 0.9824
4.1596 -0.6985 -1.2973 0.9825
4.1671 -0.3957 -1.2875 0.9826
4.1708 -0.2457 -1.2851 0.9827
4.1744 -0.0960 -1.2843 0.9827
4.1891 0.5068 -1.2979 0.9825
4.1928 0.6605 -1.3055 0.9824
4.2164 1.6418 -1.3917 0.9812
4.2251 2.0047 -1.4384 0.9806
4.2344 2.3948 -1.4963 0.9798
4.2393 2.6024 -1.5300 0.9794
4.2617 3.5457 -1.7052 0.9771
4.2681 3.8180 -1.7614 0.9763
4.2750 4.1093 -1.8239 0.9755
4.2989 5.1287 -2.0583 0.9724
4.3083 5.5310 -2.1564 0.9711
4.3187 5.9743 -2.2674 0.9696
4.2981 6.9443 -2.5119 0.9664
3.5291 7.3679 -2.5128 0.9664
2.9898 7.5956 -2.5107 0.9664
2.7164 7.7001 -2.5114 0.9664
2.1585 7.8773 -2.5122 0.9664
1.8724 7.9392 -2.5089 0.9664
1.5859 7.9973 -2.5077 0.9665
1.2988 8.0523 -2.5087 0.9664
1.0098 8.0971 -2.5098 0.9664
0.1348 8.1545 -2.5085 0.9664
-0.1576 8.1563 -2.5092 0.9664
-1.0337 8.1048 -2.5131 0.9664
3.2193 -6.8996 -2.5308 0.9684
1.7185 -3.0849 -1.1738 0.9852
1.7245 -2.8503 -1.1073 0.9861
1.7390 -2.2798 -0.9531 0.9880
1.7430 -2.1227 -0.9130 0.9885
1.7466 -1.9781 -0.8772 0.9889
1.7532 -1.7197 -0.8163 0.9897
2.0338 -1.4903 -0.8381 0.9894
2.3849 -1.4975 -0.9361 0.9882
2.5936 -1.5017 -0.9962 0.9874
4.1268 -2.0095 -1.5257 0.9808
4.1312 -1.8315 -1.5021 0.9811
4.1355 -1.6588 -1.4811 0.9814
4.1554 -0.8520 -1.4100 0.9823
4.1593 -0.6985 -1.4019 0.9824
4.1630 -0.5465 -1.3957 0.9825
4.1667 -0.3957 -1.3913 0.9825
4.1740 -0.0960 -1.3878 0.9826
4.1777 0.0537 -1.3888 0.9825
4.1813 0.2038 -1.3915 0.9825
4.1850 0.3547 -1.3961 0.9825
4.1924 0.6604 -1.4108 0.9823
4.2038 1.1354 -1.4474 0.9818
4.2118 1.4685 -1.4827 0.9814
4.2160 1.6416 -1.5039 0.9811
4.2202 1.8201 -1.5277 0.9808
4.2246 2.0045 -1.5543 0.9805
4.2339 2.3945 -1.6169 0.9797
4.2494 3.0482 -1.7383 0.9782
4.2744 4.1087 -1.9708 0.9753
4.2897 4.7601 -2.1300 0.9734
4.3179 5.9732 -2.4500 0.9694
4.2038 6.2774 -2.5113 0.9687
3.9760 6.4239 -2.5112 0.9687
3.2649 6.8164 -2.5123 0.9686
2.7656 7.0260 -2.5099 0.9687
2.5126 7.1225 -2.5106 0.9687
-0.1459 7.5491 -2.5099 0.9687
-0.4161 7.5361 -2.5089 0.9687
-0.6863 7.5199 -2.5101 0.9687
-0.9558 7.4940 -2.5112 0.9687
2.7569 -6.5078 -2.5274 0.9704
2.9875 -6.4028 -2.5267 0.9704
3.2139 -6.2895 -2.5258 0.9704
1.7295 -2.6401 -1.1287 0.9867
1.7343 -2.4511 -1.0738 0.9873
1.7387 -2.2794 -1.0252 0.9879
1.7427 -2.1224 -0.9820 0.9884
1.7464 -1.9778 -0.9435 0.9889
2.0325 -1.4894 -0.9011 0.9894
2.3832 -1.4964 -1.0063 0.9881
2.8290 -1.5053 -1.1459 0.9865
4.1263 -2.0093 -1.6412 0.9807
4.1626 -0.5465 -1.5013 0.9823
4.1663 -0.3957 -1.4966 0.9824
4.1809 0.2038 -1.4969 0.9824
4.1846 0.3547 -1.5018 0.9823
4.1957 0.8160 -1.5285 0.9820
4.1995 0.9742 -1.5417 0.9819
4.2155 1.6415 -1.6178 0.9810
4.2242 2.0043 -1.6720 0.9803
4.2435 2.8192 -1.8219 0.9786
4.2606 3.5448 -1.9820 0.9767
4.2670 3.8170 -2.0473 0.9760
4.2811 4.4211 -2.2008 0.9742
4.3069 5.5292 -2.5064 0.9707
3.9070 5.8343 -2.5110 0.9706
3.0340 6.3343 -2.5116 0.9706
2.8046 6.4382 -2.5113 0.9706
2.5700 6.5290 -2.5092 0.9706
2.3349 6.6186 -2.5098 0.9706
1.3657 6.8870 -2.5108 0.9706
1.1168 6.9240 -2.5081 0.9706
0.8678 6.9585 -2.5077 0.9707
0.3673 7.0076 -2.5094 0.9706
0.1160 7.0186 -2.5103 0.9706
-0.3872 7.0113 -2.5111 0.9706
2.3511 -6.1553 -2.5250 0.9722
2.5694 -6.0651 -2.5242 0.9722
2.7841 -5.9671 -2.5234 0.9722
2.9952 -5.8613 -2.5224 0.9722
1.7178 -3.0837 -1.3527 0.9850
1.7292 -2.6396 -1.2093 0.9866
1.7340 -2.4507 -1.1505 0.9872
1.7424 -2.1220 -1.0522 0.9883
1.7495 -1.8438 -0.9740 0.9892
1.7527 -1.7193 -0.9409 0.9895
1.7556 -1.6028 -0.9110 0.9899
1.7584 -1.4934 -0.8841 0.9902
2.0312 -1.4884 -0.9650 0.9893
2.1967 -1.4917 -1.0176 0.9887
2.5896 -1.4994 -1.1467 0.9873
4.1303 -1.8312 -1.7314 0.9808
4.1388 -1.4903 -1.6857 0.9813
4.1429 -1.3260 -1.6670 0.9815
4.1469 -1.1652 -1.6507 0.9817
4.1508 -1.0073 -1.6368 0.9819
4.1584 -0.6983 -1.6159 0.9821
4.1622 -0.5464 -1.6087 0.9822
4.1695 -0.2456 -1.6006 0.9823
4.1841 0.3546 -1.6092 0.9822
4.1878 0.5067 -1.6166 0.9821
4.1916 0.6603 -1.6261 0.9820
4.1991 0.9741 -1.6519 0.9817
4.2069 1.2997 -1.6873 0.9813
4.2109 1.4682 -1.7090 0.9811
4.2193 1.8197 -1.7609 0.9805
4.2430 2.8189 -1.9521 0.9784
4.2540 3.2886 -2.0606 0.9772
4.2664 3.8165 -2.1937 0.9758
4.2732 4.1076 -2.2714 0.9749
4.2805 4.4205 -2.3581 0.9740
4.2883 4.7586 -2.4548 0.9729
4.0334 5.1781 -2.5153 0.9723
3.8428 5.3159 -2.5137 0.9723
3.4472 5.5696 -2.5101 0.9723
2.8305 5.9095 -2.5110 0.9723
2.3984 6.0931 -2.5094 0.9723
2.1783 6.1746 -2.5091 0.9723
1.9560 6.2501 -2.5097 0.9723
1.7311 6.3175 -2.5102 0.9723
1.2747 6.4280 -2.5113 0.9723
0.8098 6.4939 -2.5078 0.9724
0.5765 6.5183 -2.5077 0.9724
-0.1266 6.5485 -2.5100 0.9723
2.1989 -5.7567 -2.5221 0.9737
2.6040 -5.5810 -2.5205 0.9737
1.7235 -2.8487 -1.3627 0.9857
1.7381 -2.2787 -1.1729 0.9877
1.7422 -2.1217 -1.1236 0.9882
1.7493 -1.8435 -1.0401 0.9891
1.7554 -1.6026 -0.9728 0.9898
1.8806 -1.4845 -0.9806 0.9897
2.1952 -1.4907 -1.0860 0.9886
2.3797 -1.4942 -1.1500 0.9879
2.8242 -1.5028 -1.3093 0.9863
4.1254 -2.0088 -1.8780 0.9804
4.1299 -1.8309 -1.8489 0.9807
4.1342 -1.6582 -1.8231 0.9809
4.1425 -1.3259 -1.7801 0.9814
4.1464 -1.1651 -1.7628 0.9816
4.1542 -0.8517 -1.7356 0.9818
4.1691 -0.2456 -1.7093 0.9821
4.1728 -0.0960 -1.7083 0.9821
4.1801 0.2038 -1.7128 0.9821
4.1874 0.5066 -1.7263 0.9819
4.1911 0.6602 -1.7365 0.9818
4.1949 0.8159 -1.7490 0.9817
4.1987 0.9740 -1.7640 0.9815
4.2025 1.1350 -1.7816 0.9814
4.2065 1.2995 -1.8019 0.9812
4.2188 1.8195 -1.8804 0.9803
4.2324 2.3937 -1.9901 0.9792
4.2373 2.6012 -2.0349 0.9787
4.2425 2.8185 -2.0846 0.9782
4.2478 3.0470 -2.1395 0.9777
4.2594 3.5438 -2.2678 0.9763
4.2658 3.8159 -2.3425 0.9756
4.2725 4.1070 -2.4255 0.9747
4.2737 4.4135 -2.5144 0.9738
3.7756 4.8471 -2.5146 0.9738
3.5975 4.9766 -2.5132 0.9738
2.8460 5.4330 -2.5102 0.9738
2.2465 5.7074 -2.5103 0.9738
2.0391 5.7801 -2.5086 0.9739
1.4078 5.9693 -2.5101 0.9738
1.1932 6.0170 -2.5106 0.9738
0.7589 6.0857 -2.5100 0.9738
0.5398 6.1034 -2.5077 0.9739
0.3207 6.1186 -2.5076 0.9739
0.1013 6.1279 -2.5083 0.9739
-0.1184 6.1293 -2.5090 0.9739
2.0627 -5.4003 -2.5194 0.9751
1.7171 -3.0824 -1.5377 0.9847
1.7286 -2.6387 -1.3748 0.9863
1.7334 -2.4499 -1.3079 0.9870
1.7378 -2.2783 -1.2488 0.9876
1.7419 -2.1214 -1.1963 0.9881
1.7456 -1.9769 -1.1494 0.9886
1.7490 -1.8432 -1.1074 0.9890
1.7522 -1.7188 -1.0697 0.9893
1.7552 -1.6024 -1.0358 0.9897
1.8794 -1.4836 -1.0435 0.9896
2.3779 -1.4931 -1.2237 0.9878
2.5855 -1.4970 -1.3021 0.9870
2.8218 -1.5015 -1.3931 0.9861
4.1249 -2.0086 -1.9995 0.9802
4.1337 -1.6580 -1.9411 0.9808
4.1379 -1.4899 -1.9167 0.9810
4.1420 -1.3257 -1.8954 0.9812
4.1538 -0.8516 -1.8479 0.9817
4.1576 -0.6982 -1.8373 0.9818
4.1613 -0.5463 -1.8291 0.9819
4.1687 -0.2456 -1.8199 0.9819
4.1723 -0.0959 -1.8189 0.9820
4.1760 0.0537 -1.8201 0.9819
4.1833 0.3546 -1.8297 0.9818
4.1907 0.6601 -1.8489 0.9817
4.2100 1.4679 -1.9431 0.9807
4.2141 1.6409 -1.9709 0.9805
4.2184 1.8193 -2.0021 0.9802
4.2227 2.0036 -2.0370 0.9798
4.2319 2.3934 -2.1189 0.9790
4.2368 2.6009 -2.1666 0.9785
4.2419 2.8182 -2.2195 0.9780
4.2472 3.0466 -2.2780 0.9775
4.2588 3.5433 -2.4145 0.9761
4.2652 3.8154 -2.4940 0.9753
4.1582 3.9970 -2.5137 0.9751
4.0124 4.1436 -2.5138 0.9751
3.5448 4.5508 -2.5140 0.9751
3.2049 4.7859 -2.5103 0.9752
3.0301 4.8956 -2.5092 0.9752
2.4879 5.1942 -2.5100 0.9752
2.3004 5.2805 -2.5102 0.9752
2.1098 5.3601 -2.5105 0.9752
1.9150 5.4284 -2.5087 0.9752
1.7192 5.4932 -2.5085 0.9752
1.1202 5.6491 -2.5099 0.9752
0.9172 5.6866 -2.5104 0.9752
0.7129 5.7169 -2.5108 0.9752
-0.1112 5.7540 -2.5082 0.9752
-0.3174 5.7479 -2.5088 0.9752
-0.7287 5.7132 -2.5101 0.9752
1.9405 -5.0803 -2.5173 0.9763
2.2980 -4.9251 -2.5157 0.9763
2.4722 -4.8379 -2.5148 0.9763
1.7228 -2.8476 -1.5406 0.9854
1.7376 -2.2779 -1.3261 0.9875
1.7416 -2.1210 -1.2704 0.9880
1.7453 -1.9766 -1.2206 0.9884
1.7488 -1.8430 -1.1760 0.9889
1.7549 -1.6022 -1.0999 0.9896
1.7577 -1.4928 -1.0675 0.9899
1.8782 -1.4826 -1.1076 0.9895
2.1920 -1.4885 -1.2265 0.9884
2.5834 -1.4958 -1.3818 0.9869
4.1333 -1.6579 -2.0614 0.9806
4.1375 -1.4898 -2.0355 0.9808
4.1416 -1.3256 -2.0129 0.9810
4.1682 -0.2455 -1.9328 0.9818
4.1755 0.0537 -1.9330 0.9818
4.1792 0.2037 -1.9368 0.9817
4.1902 0.6601 -1.9635 0.9815
4.1940 0.8157 -1.9777 0.9813
4.1978 0.9737 -1.9947 0.9812
4.2136 1.6407 -2.0931 0.9803
4.2222 2.0033 -2.1632 0.9796
4.2267 2.1944 -2.2045 0.9792
4.2363 2.6005 -2.3009 0.9783
4.2414 2.8178 -2.3570 0.9778
4.2467 3.0462 -2.4192 0.9772
4.2523 3.2873 -2.4879 0.9766
4.0463 3.6196 -2.5130 0.9764
3.9141 3.7625 -2.5131 0.9764
3.6348 4.0334 -2.5133 0.9764
3.3367 4.2836 -2.5134 0.9764
3.0173 4.5057 -2.5101 0.9764
2.8524 4.6086 -2.5088 0.9764
2.6857 4.7083 -2.5091 0.9764
2.5155 4.8021 -2.5093 0.9764
2.3420 4.8896 -2.5096 0.9764
1.8037 5.1128 -2.5096 0.9764
1.6183 5.1709 -2.5080 0.9764
1.4322 5.2265 -2.5085 0.9764
0.8634 5.3528 -2.5098 0.9764
0.0896 5.4169 -2.5077 0.9764
-0.1046 5.4159 -2.5074 0.9764
2.1670 -4.6444 -2.5139 0.9774
1.7164 -3.0811 -1.7300 0.9844
1.7225 -2.8471 -1.6322 0.9853
1.7279 -2.6377 -1.5468 0.9860
1.7328 -2.4490 -1.4716 0.9867
1.7373 -2.2775 -1.4051 0.9873
1.7450 -1.9763 -1.2933 0.9883
1.7485 -1.8427 -1.2460 0.9887
1.7547 -1.6020 -1.1655 0.9895
1.7575 -1.4926 -1.1310 0.9898
1.8769 -1.4816 -1.1729 0.9894
2.1904 -1.4874 -1.2988 0.9883
2.3743 -1.4908 -1.3752 0.9876
2.5813 -1.4946 -1.4631 0.9868
2.8169 -1.4989 -1.5652 0.9859
4.1370 -1.4896 -2.1568 0.9806
4.1411 -1.3254 -2.1328 0.9808
4.1451 -1.1647 -2.1120 0.9810
4.1490 -1.0069 -2.0943 0.9812
4.1529 -0.8515 -2.0795 0.9813
4.1641 -0.3954 -2.0518 0.9815
4.1678 -0.2455 -2.0479 0.9816
4.1751 0.0537 -2.0482 0.9816
4.1824 0.3545 -2.0589 0.9815
4.1898 0.6600 -2.0805 0.9813
4.1935 0.8156 -2.0956 0.9811
4.1973 0.9736 -2.1135 0.9810
4.2091 1.4675 -2.1865 0.9803
4.2174 1.8188 -2.2529 0.9797
4.2262 2.1941 -2.3358 0.9790
4.2357 2.6002 -2.4380 0.9781
4.2408 2.8175 -2.4975 0.9776
4.1692 2.9906 -2.5168 0.9774
3.9381 3.2765 -2.5129 0.9774
3.8176 3.4150 -2.5125 0.9774
3.6928 3.5497 -2.5126 0.9774
3.5634 3.6799 -2.5127 0.9774
3.4293 3.8054 -2.5127 0.9774
2.8471 4.2515 -2.5099 0.9775
1.8739 4.7606 -2.5096 0.9775
1.7022 4.8251 -2.5098 0.9775
0.8145 5.0501 -2.5092 0.9775
0.2679 5.1106 -2.5103 0.9775
0.0846 5.1156 -2.5097 0.9775
-0.2818 5.1037 -2.5073 0.9775
-0.4647 5.0915 -2.5078 0.9775
-0.6470 5.0726 -2.5084 0.9775
1.7290 -4.5265 -2.5137 0.9784
1.8896 -4.4604 -2.5130 0.9784
1.7160 -3.0805 -1.8293 0.9842
1.7276 -2.6372 -1.6355 0.9859
1.7325 -2.4485 -1.5561 0.9866
1.7369 -2.2771 -1.4858 0.9872
1.7410 -2.1203 -1.4233 0.9877
1.7482 -1.8424 -1.3176 0.9886
1.7572 -1.4924 -1.1960 0.9897
1.8756 -1.4806 -1.2397 0.9893
2.1888 -1.4863 -1.3725 0.9881
2.8143 -1.4975 -1.6538 0.9857
4.1280 -1.8301 -2.3425 0.9799
4.1365 -1.4894 -2.2808 0.9804
4.1406 -1.3253 -2.2554 0.9806
4.1524 -0.8513 -2.1990 0.9811
4.1562 -0.6980 -2.1863 0.9812
4.1710 -0.0959 -2.1644 0.9814
4.1819 0.3544 -2.1773 0.9813
4.1856 0.5064 -2.1872 0.9812
4.1930 0.8155 -2.2160 0.9809
4.1968 0.9735 -2.2350 0.9808
4.2007 1.1345 -2.2573 0.9806
4.2046 1.2989 -2.2830 0.9804
4.2086 1.4673 -2.3122 0.9801
4.2127 1.6404 -2.3453 0.9798
4.2169 1.8186 -2.3824 0.9795
4.2212 2.0029 -2.4239 0.9792
4.2257 2.1938 -2.4700 0.9788
4.2218 2.3877 -2.5162 0.9784
4.1335 2.5374 -2.5162 0.9784
3.9406 2.8267 -2.5159 0.9784
3.6090 3.2284 -2.5120 0.9784
3.3687 3.4788 -2.5122 0.9784
3.2419 3.5975 -2.5123 0.9784
3.1109 3.7114 -2.5123 0.9784
2.8366 3.9240 -2.5119 0.9784
2.2438 4.2834 -2.5086 0.9784
2.0890 4.3615 -2.5088 0.9784
1.9316 4.4339 -2.5090 0.9784
1.7715 4.5007 -2.5092 0.9784
1.4446 4.6158 -2.5091 0.9784
1.2774 4.6617 -2.5075 0.9785
1.1097 4.7053 -2.5079 0.9785
0.4262 4.8183 -2.5094 0.9784
0.2533 4.8312 -2.5097 0.9784
0.0800 4.8377 -2.5101 0.9784
-0.0935 4.8368 -2.5097 0.9784
-0.2666 4.8272 -2.5081 0.9785
-0.6116 4.7949 -2.5077 0.9785
1.7886 -4.2221 -2.5114 0.9793
1.9383 -4.1541 -2.5107 0.9793
1.7218 -2.8459 -1.8217 0.9849
1.7445 -1.9757 -1.4435 0.9881
1.7512 -1.7178 -1.3435 0.9889
1.7542 -1.6015 -1.3009 0.9892
2.0228 -1.4822 -1.3735 0.9886
2.1871 -1.4852 -1.4479 0.9880
2.3704 -1.4884 -1.5330 0.9873
2.5769 -1.4920 -1.6309 0.9865
2.8117 -1.4961 -1.7444 0.9856
4.1230 -2.0077 -2.5117 0.9793
4.1318 -1.6573 -2.4383 0.9799
4.1360 -1.4892 -2.4077 0.9802
4.1401 -1.3251 -2.3809 0.9804
4.1442 -1.1644 -2.3577 0.9806
4.1557 -0.6979 -2.3080 0.9810
4.1669 -0.2454 -2.2862 0.9811
4.1705 -0.0959 -2.2848 0.9812
4.1815 0.3544 -2.2984 0.9810
4.1851 0.5063 -2.3089 0.9810
4.1926 0.8154 -2.3393 0.9807
4.1963 0.9734 -2.3594 0.9805
4.2002 1.1344 -2.3829 0.9804
4.2041 1.2988 -2.4100 0.9801
4.2081 1.4672 -2.4408 0.9799
4.2163 1.8184 -2.5149 0.9793
4.1495 1.9688 -2.5155 0.9793
4.0763 2.1163 -2.5155 0.9793
3.5251 2.9328 -2.5115 0.9793
3.3062 3.1780 -2.5117 0.9793
3.1902 3.2946 -2.5118 0.9793
3.0702 3.4069 -2.5118 0.9793
2.6866 3.7164 -2.5116 0.9793
2.4098 3.8934 -2.5078 0.9793
2.1250 4.0567 -2.5083 0.9793
1.9785 4.1306 -2.5085 0.9793
1.6778 4.2623 -2.5089 0.9793
1.5240 4.3201 -2.5090 0.9793
1.3683 4.3722 -2.5092 0.9793
1.2102 4.4163 -2.5080 0.9793
1.0509 4.4560 -2.5075 0.9793
0.8907 4.4914 -2.5079 0.9793
0.7292 4.5211 -2.5082 0.9793
0.5668 4.5450 -2.5086 0.9793
0.4036 4.5630 -2.5089 0.9793
0.2398 4.5751 -2.5092 0.9793
0.0757 4.5813 -2.5095 0.9793
-0.2527 4.5755 -2.5098 0.9793
-0.4162 4.5607 -2.5083 0.9793
1.9771 -3.8691 -2.5085 0.9801
1.7152 -3.0791 -2.0349 0.9839
1.7214 -2.8453 -1.9199 0.9848
1.7269 -2.6362 -1.8195 0.9855
1.7363 -2.2763 -1.6529 0.9869
1.7442 -1.9753 -1.5214 0.9879
1.7539 -1.6012 -1.3711 0.9891
1.8730 -1.4785 -1.3777 0.9890
2.0213 -1.4811 -1.4467 0.9885
2.8090 -1.4947 -1.8371 0.9854
3.9170 -1.9073 -2.5153 0.9801
4.0446 -1.6222 -2.5160 0.9801
4.1006 -1.4765 -2.5163 0.9801
4.1396 -1.3250 -2.5095 0.9801
4.1437 -1.1643 -2.4850 0.9803
4.1476 -1.0065 -2.4641 0.9805
4.1514 -0.8511 -2.4467 0.9806
4.1627 -0.3953 -2.4142 0.9809
4.1664 -0.2454 -2.4096 0.9809
4.1700 -0.0959 -2.4082 0.9809
4.1773 0.2036 -2.4146 0.9809
4.1846 0.5063 -2.4336 0.9807
4.1921 0.8153 -2.4656 0.9805
4.1958 0.9733 -2.4868 0.9803
4.1996 1.1342 -2.5116 0.9801
4.1616 1.2856 -2.5147 0.9801
4.1129 1.4340 -2.5148 0.9801
3.9354 1.8673 -2.5149 0.9801
3.7916 2.1444 -2.5149 0.9801
3.7123 2.2789 -2.5149 0.9801
3.5372 2.5373 -2.5133 0.9801
3.2418 2.8999 -2.5112 0.9801
3.1359 3.0144 -2.5113 0.9801
3.0259 3.1249 -2.5114 0.9801
2.9120 3.2314 -2.5114 0.9801
2.7944 3.3338 -2.5115 0.9801
2.5483 3.5252 -2.5114 0.9801
2.4185 3.6115 -2.5094 0.9801
2.2858 3.6931 -2.5076 0.9801
2.0157 3.8480 -2.5080 0.9801
1.8767 3.9181 -2.5082 0.9801
1.5914 4.0430 -2.5085 0.9801
1.4456 4.0977 -2.5087 0.9801
1.2979 4.1471 -2.5089 0.9801
1.1484 4.1909 -2.5088 0.9801
0.9968 4.2265 -2.5071 0.9801
0.6917 4.2882 -2.5078 0.9801
0.5376 4.3108 -2.5081 0.9801
0.3828 4.3278 -2.5084 0.9801
0.2275 4.3393 -2.5087 0.9801
0.0718 4.3452 -2.5090 0.9801
-0.2397 4.3401 -2.5096 0.9801
-0.3951 4.3292 -2.5098 0.9801
-0.5497 4.3101 -2.5086 0.9801
