ply
format ascii 1.0
element vertex 957
property float32 x
property float32 y
property float32 z
property float32 I
end_header
-32.6773 -26.8501 7.4575 0.8422
-28.2978 -28.8715 7.1283 0.8486
-28.4046 -31.1398 7.4319 0.8427
-26.2914 -30.9857 7.1654 0.8478
-26.2167 -33.2446 7.4653 0.8420
-22.5316 -33.2176 7.0774 0.8496
-22.5798 -36.0043 7.4937 0.8415
-16.2992 -28.1874 5.7413 0.8761
-16.7000 -31.4307 6.2758 0.8654
-15.9170 -32.7394 6.4189 0.8626
-16.1957 -36.5950 7.0564 0.8500
-15.1853 -37.9330 7.2047 0.8471
-13.6219 -37.9152 7.1039 0.8490
-12.0996 -37.8979 7.0147 0.8508
-10.7052 -38.2096 6.9968 0.8511
-6.6789 -39.9733 7.1461 0.8482
-5.2111 -39.9566 7.1051 0.8490
-3.7579 -39.9401 7.0736 0.8496
-2.3159 -39.9237 7.0514 0.8501
-0.8809 -39.9074 7.0385 0.8503
1.9823 -39.8748 7.0397 0.8503
3.4179 -39.8585 7.0539 0.8500
5.8616 -25.1443 4.5525 0.9004
14.7353 -37.7099 7.1389 0.8484
18.4397 -35.4086 7.0394 0.8503
-38.3314 -27.1387 7.1949 0.8269
-38.0308 -31.2489 7.5406 0.8194
-35.1814 -31.0869 7.1922 0.8270
-34.9895 -33.2266 7.3920 0.8226
-30.5168 -35.9656 7.2258 0.8262
-27.8726 -38.0773 7.2290 0.8262
-26.0211 -38.3625 7.1013 0.8290
-16.2949 -28.1802 4.9868 0.8766
-16.2271 -33.3773 5.6855 0.8606
1.9427 -15.9226 2.4573 0.9372
6.2733 -39.5557 6.1354 0.8504
5.9934 -30.6424 4.7832 0.8813
5.8577 -25.1278 3.9526 0.9009
16.3724 -41.8995 6.8914 0.8336
19.0867 -40.0993 6.8034 0.8355
-38.9880 -25.5551 6.0705 0.8286
-23.6012 -19.3924 3.9778 0.8841
-16.5789 -37.4610 5.3346 0.8477
-16.4676 -41.1361 5.7701 0.8363
1.9422 -15.9178 2.0882 0.9374
5.9184 -25.3884 3.3947 0.9002
-40.7028 16.6511 4.7223 0.8378
-40.6836 14.9636 4.6548 0.8400
-40.6649 13.3216 4.5950 0.8419
-40.6467 11.7192 4.5425 0.8435
-39.1211 -25.6423 5.0229 0.8285
-16.1872 -33.2951 3.9754 0.8616
1.9416 -15.9131 1.7214 0.9375
-40.7030 16.6512 3.7228 0.8382
-40.6838 14.9637 3.6696 0.8403
-40.6651 13.3217 3.6224 0.8422
-40.5927 11.7036 3.5763 0.8440
-48.4134 10.2665 4.1894 0.8198
-40.5270 -18.9171 3.7861 0.8357
-39.1040 -25.6311 3.9580 0.8289
1.9410 -15.9084 1.3567 0.9377
5.9108 -25.3555 2.2040 0.9008
-40.7032 16.6513 2.7271 0.8384
-40.6471 11.7193 2.6232 0.8441
-48.4136 10.2666 3.0689 0.8201
-39.1209 -25.6422 2.9007 0.8291
1.9404 -15.9037 0.9935 0.9378
6.7316 -24.8148 1.5944 0.9021
-40.7034 16.6514 1.7341 0.8386
-40.6655 13.3218 1.6873 0.8426
-40.6473 11.7194 1.6681 0.8442
-40.5456 10.1302 1.6479 0.8459
-38.5637 -25.2770 1.8181 0.8315
-15.6278 -24.9191 1.1598 0.8889
-15.8604 -44.1458 1.8496 0.8288
1.9399 -15.8991 0.6316 0.9379
5.7505 -24.6679 0.9988 0.9036
-40.7036 16.6515 0.7429 0.8387
-40.6844 14.9639 0.7322 0.8408
-40.5273 -18.9172 0.7555 0.8362
-15.6318 -24.9254 0.4970 0.8890
-15.5663 -43.3273 0.7777 0.8318
1.9393 -15.8944 0.2705 0.9380
6.8310 -43.0725 0.7367 0.8399
5.7505 -24.6679 0.4279 0.9036
-38.3656 15.6951 -0.2334 0.8472
-40.6846 14.9640 -0.2441 0.8408
-40.6660 13.3219 -0.2409 0.8427
-40.4871 8.5856 -0.2330 0.8474
-44.0482 -18.6672 -0.2693 0.8258
-40.5274 -18.9172 -0.2518 0.8362
-40.9470 -20.9333 -0.2589 0.8320
-38.3345 -31.4983 -0.2793 0.8200
-16.8686 -23.0445 -0.1608 0.8920
-15.6212 -23.0300 -0.1567 0.8947
-14.4345 -23.0162 -0.1530 0.8970
-7.3248 -22.9423 -0.1356 0.9082
-4.6735 -22.8871 -0.1315 0.9108
-1.3252 -22.8448 -0.1288 0.9125
-0.5044 -22.8473 -0.1287 0.9126
0.3151 -22.8376 -0.1286 0.9127
1.1347 -22.8278 -0.1287 0.9126
1.9566 -22.8179 -0.1289 0.9125
1.9387 -15.8898 -0.0901 0.9380
4.4569 -22.7868 -0.1307 0.9113
9.8331 -22.7245 -0.1394 0.9057
10.8110 -22.7129 -0.1416 0.9043
-40.6662 13.3220 -1.2049 0.8426
-40.6479 11.7196 -1.1912 0.8443
-40.6470 10.1555 -1.1797 0.8456
-48.3938 8.4613 -1.3833 0.8215
-44.0492 -18.6676 -1.3471 0.8258
-40.5275 -18.9173 -1.2596 0.8361
-40.9484 -20.9340 -1.2950 0.8319
-40.9089 -24.7635 -1.3465 0.8258
-38.4005 -25.1700 -1.2929 0.8322
-38.5761 -31.6968 -1.4059 0.8189
-14.4344 -23.0161 -0.7650 0.8970
-10.1659 -22.9702 -0.7073 0.9044
-9.1917 -22.9607 -0.6964 0.9058
-8.2459 -22.9515 -0.6867 0.9070
-5.5382 -22.8985 -0.6634 0.9100
-2.1505 -22.8557 -0.6464 0.9122
-1.3252 -22.8453 -0.6444 0.9125
-0.5044 -22.8469 -0.6435 0.9126
0.3151 -22.8371 -0.6431 0.9127
1.1347 -22.8273 -0.6436 0.9126
1.9565 -22.8175 -0.6448 0.9124
1.9382 -15.8851 -0.4506 0.9380
3.6155 -22.7977 -0.6500 0.9118
4.4570 -22.7874 -0.6538 0.9113
6.1770 -22.7706 -0.6643 0.9099
7.0602 -22.7620 -0.6710 0.9090
8.8873 -22.7442 -0.6876 0.9069
9.8332 -22.7246 -0.6972 0.9057
11.8220 -22.7010 -0.7207 0.9027
-40.6851 14.9641 -2.1984 0.8406
-40.6664 13.3221 -2.1702 0.8425
-48.6463 6.7175 -2.4905 0.8214
-49.0911 1.4539 -2.4907 0.8214
-49.0735 -2.0690 -2.4909 0.8214
-47.0430 -14.2041 -2.4921 0.8213
-46.5074 -15.8835 -2.4923 0.8213
-43.1149 -16.4740 -2.3407 0.8312
-42.5005 -18.0113 -2.3409 0.8312
-40.5276 -18.9173 -2.2682 0.8360
-40.3382 -22.4821 -2.3420 0.8311
-36.4607 -23.8985 -2.2109 0.8398
-33.7749 -23.9126 -2.0987 0.8473
-29.0397 -23.8611 -1.9061 0.8602
-26.9915 -23.8500 -1.8267 0.8657
-25.1045 -23.8395 -1.7557 0.8705
-31.8536 -37.5409 -2.4968 0.8210
-30.4910 -38.6646 -2.4972 0.8210
-16.8684 -23.0442 -1.4483 0.8919
-15.6210 -23.0297 -1.4113 0.8945
-13.3012 -23.0028 -1.3476 0.8990
-9.1918 -22.9611 -1.2543 0.9057
-8.2460 -22.9519 -1.2368 0.9069
-7.3250 -22.9429 -1.2214 0.9080
-5.5383 -22.8991 -1.1948 0.9100
-4.6737 -22.8881 -1.1847 0.9107
-3.8225 -22.8774 -1.1763 0.9113
-2.9823 -22.8668 -1.1695 0.9118
-2.1506 -22.8562 -1.1643 0.9122
-1.3253 -22.8458 -1.1606 0.9124
0.3151 -22.8366 -1.1582 0.9126
1.1347 -22.8268 -1.1591 0.9125
1.9565 -22.8170 -1.1614 0.9124
3.6154 -22.7972 -1.1706 0.9117
4.4571 -22.7879 -1.1776 0.9112
7.9629 -22.7538 -1.2226 0.9080
10.8112 -22.7131 -1.2757 0.9042
-33.5983 7.1248 -2.5183 0.8713
-33.5768 5.8706 -2.4993 0.8722
-33.9122 3.4488 -2.4993 0.8722
-33.9516 2.2262 -2.4948 0.8724
-33.9991 1.0069 -2.4940 0.8725
-34.0142 -0.2130 -2.4940 0.8725
-33.9138 -2.6509 -2.4942 0.8725
-32.9047 -8.6605 -2.4948 0.8724
-31.7901 -12.1468 -2.4953 0.8724
-30.8418 -14.3962 -2.4956 0.8724
-30.3079 -15.4942 -2.4958 0.8724
-29.7346 -16.5725 -2.4960 0.8724
-29.1240 -17.6297 -2.4962 0.8724
-25.5227 -22.5522 -2.4973 0.8723
-23.8449 -24.3281 -2.4977 0.8723
-21.6290 -23.7117 -2.3532 0.8792
-21.1002 -26.7565 -2.4985 0.8723
-16.8683 -23.0441 -2.0939 0.8918
-14.4343 -23.0159 -1.9920 0.8968
-13.3012 -23.0027 -1.9483 0.8989
-12.2153 -22.9900 -1.9089 0.9009
-6.4190 -22.9108 -1.7446 0.9090
-3.8226 -22.8779 -1.7007 0.9112
-2.9823 -22.8673 -1.6909 0.9117
0.3151 -22.8361 -1.6745 0.9125
1.1347 -22.8263 -1.6757 0.9124
1.9565 -22.8165 -1.6791 0.9122
1.9370 -15.8758 -1.1727 0.9379
3.6154 -22.7967 -1.6924 0.9116
5.3104 -22.7802 -1.7151 0.9105
6.1773 -22.7718 -1.7300 0.9097
7.9631 -22.7544 -1.7676 0.9078
8.8878 -22.7454 -1.7905 0.9067
9.8333 -22.7249 -1.8155 0.9055
11.8221 -22.7012 -1.8767 0.9024
-25.3120 9.3099 -2.5892 0.8973
-25.0746 8.2143 -2.5332 0.8994
-25.8937 2.6333 -2.4987 0.9007
-25.9717 1.7030 -2.4988 0.9007
-25.8598 -2.9577 -2.4989 0.9007
-25.7372 -3.8832 -2.4989 0.9007
-25.5815 -4.8038 -2.4989 0.9007
-25.3928 -5.7181 -2.4989 0.9007
-24.2930 -9.2823 -2.4967 0.9008
-23.9458 -10.1480 -2.4968 0.9008
-23.5677 -11.0008 -2.4970 0.9008
-23.1593 -11.8397 -2.4971 0.9008
-22.7211 -12.6634 -2.4972 0.9008
-22.2536 -13.4709 -2.4974 0.9007
-20.6821 -15.7862 -2.4979 0.9007
-19.5000 -17.2305 -2.4982 0.9007
-17.7272 -16.8339 -2.3470 0.9064
-17.1304 -17.4776 -2.3495 0.9063
-15.8479 -18.6775 -2.3516 0.9063
-15.1508 -19.2123 -2.3490 0.9064
-13.7245 -20.2338 -2.3473 0.9064
-12.9914 -20.7153 -2.3475 0.9064
-12.2415 -21.1702 -2.3478 0.9064
-11.4757 -21.5981 -2.3480 0.9064
-10.6950 -21.9983 -2.3483 0.9064
-9.0928 -22.7137 -2.3489 0.9064
-5.5386 -22.9002 -2.2619 0.9097
-3.8227 -22.8785 -2.2269 0.9110
-2.9824 -22.8678 -2.2140 0.9115
-0.5044 -22.8454 -2.1938 0.9123
1.1346 -22.8258 -2.1941 0.9123
1.9564 -22.8160 -2.1985 0.9121
3.6153 -22.7962 -2.2159 0.9114
8.8880 -22.7460 -2.3445 0.9065
-19.6863 8.0535 -2.5266 0.9179
-19.9356 7.3324 -2.5232 0.9180
-20.1584 6.6038 -2.5197 0.9181
-20.3544 5.8685 -2.5163 0.9182
-20.6656 4.3823 -2.5094 0.9184
-20.8347 2.8770 -2.4984 0.9188
-20.9247 2.1279 -2.4984 0.9188
-21.0145 -0.8860 -2.4984 0.9188
-20.8971 -2.3901 -2.4985 0.9188
-20.7980 -3.1380 -2.4985 0.9188
-20.5197 -4.6207 -2.4985 0.9188
-20.1357 -6.0797 -2.4985 0.9188
-19.6480 -7.5074 -2.4985 0.9188
-19.3661 -8.2072 -2.4985 0.9188
-18.7278 -9.5742 -2.4984 0.9188
-17.9931 -10.8919 -2.4984 0.9188
-17.5908 -11.5300 -2.4984 0.9188
-16.7200 -12.7621 -2.4985 0.9188
-16.2525 -13.3542 -2.4987 0.9188
-15.7640 -13.9293 -2.4988 0.9188
-13.9969 -15.3447 -2.4671 0.9197
-13.0018 -15.3232 -2.3871 0.9222
-12.2362 -15.5163 -2.3473 0.9235
-11.0939 -16.3556 -2.3476 0.9235
-9.2752 -17.4565 -2.3481 0.9235
-8.6448 -17.7813 -2.3486 0.9234
-8.0030 -18.0833 -2.3490 0.9234
-6.6878 -18.6149 -2.3496 0.9234
-5.3374 -19.0502 -2.3500 0.9234
-3.2613 -19.5191 -2.3507 0.9234
-2.5595 -19.6255 -2.3510 0.9234
-1.1464 -19.7624 -2.3514 0.9234
0.2732 -19.7978 -2.3519 0.9233
0.9831 -19.7773 -2.3522 0.9233
1.6920 -19.7313 -2.3524 0.9233
3.1026 -19.5631 -2.3529 0.9233
5.1866 -19.1194 -2.3532 0.9233
7.2097 -18.4508 -2.3531 0.9233
9.1484 -17.5672 -2.3527 0.9233
-16.5471 6.0861 -2.4981 0.9312
-16.8248 5.5117 -2.5086 0.9310
-17.0408 4.9131 -2.5129 0.9309
-17.4869 2.4147 -2.5012 0.9312
-17.6310 -0.1104 -2.4982 0.9312
-17.6158 -0.7427 -2.4982 0.9312
-17.5174 -2.0035 -2.4982 0.9312
-17.3288 -3.2541 -2.4982 0.9312
-16.4702 -6.2932 -2.4982 0.9312
-15.7007 -8.0266 -2.4985 0.9312
-15.4033 -8.5849 -2.4986 0.9312
-14.7495 -9.6677 -2.4988 0.9312
-13.6277 -11.1975 -2.4991 0.9312
-13.2180 -11.6796 -2.4992 0.9312
-12.7911 -12.1467 -2.4993 0.9312
-12.3480 -12.5982 -2.4995 0.9312
-11.4143 -13.4523 -2.4997 0.9312
-10.9251 -13.8538 -2.4999 0.9312
-10.4218 -14.2374 -2.5000 0.9312
-8.7611 -15.1514 -2.4799 0.9317
-8.0415 -15.1347 -2.4283 0.9331
-6.7076 -15.1566 -2.3484 0.9352
-3.3172 -16.2450 -2.3492 0.9352
-2.1444 -16.4429 -2.3495 0.9352
0.8235 -16.5662 -2.3501 0.9352
1.4172 -16.5269 -2.3503 0.9352
1.9072 -15.6311 -2.2312 0.9384
4.9156 -15.8477 -2.3510 0.9352
5.4810 -15.6619 -2.3511 0.9352
6.0395 -15.4560 -2.3512 0.9352
-14.0342 5.7412 -2.4980 0.9404
-14.4095 4.7204 -2.4979 0.9404
-14.5696 4.2006 -2.4979 0.9404
-14.7108 3.6754 -2.4979 0.9404
-14.8332 3.1455 -2.4980 0.9404
-15.0855 1.5341 -2.4980 0.9404
-15.1310 0.9921 -2.4980 0.9404
-15.0664 -1.7232 -2.4982 0.9404
-14.9952 -2.2625 -2.4983 0.9404
-14.9047 -2.7989 -2.4983 0.9404
-14.5190 -4.3839 -2.4985 0.9404
-14.1682 -5.4136 -2.4986 0.9404
-13.7445 -6.4156 -2.4988 0.9404
-13.5060 -6.9047 -2.4989 0.9404
-12.6876 -8.3162 -2.4991 0.9404
-11.7224 -9.6320 -2.4994 0.9403
-11.3699 -10.0466 -2.4995 0.9403
-11.0027 -10.4483 -2.4996 0.9403
-10.6214 -10.8367 -2.4997 0.9403
-8.9642 -12.2463 -2.5002 0.9403
-8.5197 -12.5605 -2.5003 0.9403
-6.6374 -13.6522 -2.5008 0.9403
-6.1437 -13.8821 -2.5009 0.9403
-5.6422 -14.0942 -2.5010 0.9403
-5.1334 -14.2882 -2.5011 0.9403
-3.5696 -14.7590 -2.5015 0.9403
-1.4006 -14.8859 -2.4631 0.9412
1.2685 -14.7918 -2.4457 0.9416
2.8807 -14.7281 -2.4723 0.9410
3.9780 -14.6644 -2.5031 0.9403
5.0194 -14.3427 -2.5033 0.9403
5.5307 -14.1540 -2.5034 0.9403
6.0350 -13.9471 -2.5035 0.9403
-12.3024 5.0328 -2.4984 0.9473
-12.6314 4.1379 -2.4984 0.9473
-12.8955 3.2219 -2.4984 0.9473
-13.0934 2.2892 -2.4984 0.9473
-13.2240 1.3448 -2.4984 0.9473
-13.2866 0.3935 -2.4985 0.9473
-13.2809 -0.5599 -2.4985 0.9473
-13.2525 -1.0359 -2.4986 0.9473
-13.0653 -2.4534 -2.4987 0.9473
-12.8563 -3.3838 -2.4988 0.9473
-12.7270 -3.8428 -2.4988 0.9473
-12.5813 -4.2968 -2.4989 0.9473
-12.2416 -5.1879 -2.4990 0.9473
-12.0480 -5.6237 -2.4991 0.9473
-10.8531 -7.6840 -2.4995 0.9473
-10.5709 -8.0686 -2.4996 0.9473
-9.9661 -8.8062 -2.4997 0.9473
-9.6442 -9.1583 -2.4998 0.9473
-9.3099 -9.4986 -2.4999 0.9473
-8.6057 -10.1423 -2.5001 0.9473
-7.4675 -11.0092 -2.5004 0.9473
-6.6597 -11.5171 -2.5006 0.9473
-4.9452 -12.3532 -2.5010 0.9473
-4.4992 -12.5231 -2.5012 0.9473
-3.1285 -12.9355 -2.5015 0.9473
-1.2469 -13.2522 -2.5019 0.9473
-0.7709 -13.2890 -2.5020 0.9473
0.1837 -13.3111 -2.5022 0.9473
1.1375 -13.2648 -2.5024 0.9473
1.6125 -13.2160 -2.5025 0.9473
2.0855 -13.1502 -2.5026 0.9473
2.5559 -13.0674 -2.5027 0.9472
3.4863 -12.8515 -2.5029 0.9472
3.9451 -12.7187 -2.5030 0.9472
4.8469 -12.4041 -2.5031 0.9472
6.1518 -11.8129 -2.5034 0.9472
-10.9408 4.4758 -2.4987 0.9528
-11.0942 4.0805 -2.4987 0.9528
-11.2334 3.6800 -2.4987 0.9528
-11.4683 2.8653 -2.4987 0.9528
-11.5637 2.4522 -2.4987 0.9528
-11.7099 1.6170 -2.4987 0.9528
-11.8211 -0.0741 -2.4988 0.9528
-11.8110 -0.4980 -2.4988 0.9528
-11.7857 -0.9212 -2.4989 0.9528
-11.7453 -1.3433 -2.4989 0.9528
-11.6897 -1.7637 -2.4989 0.9528
-11.3182 -3.4174 -2.4991 0.9528
-11.1886 -3.8212 -2.4992 0.9528
-11.0446 -4.2201 -2.4992 0.9528
-10.8864 -4.6136 -2.4993 0.9528
-10.3287 -5.7566 -2.4995 0.9528
-10.1159 -6.1235 -2.4995 0.9528
-9.8900 -6.4826 -2.4996 0.9528
-9.4005 -7.1752 -2.4998 0.9528
-9.1374 -7.5079 -2.4998 0.9528
-8.5763 -8.1442 -2.5000 0.9528
-8.2789 -8.4468 -2.5001 0.9528
-7.9710 -8.7385 -2.5002 0.9528
-7.6527 -9.0191 -2.5003 0.9528
-6.6404 -9.7899 -2.5005 0.9528
-5.9221 -10.2415 -2.5007 0.9528
-4.3975 -10.9847 -2.5011 0.9528
-3.5990 -11.2724 -2.5013 0.9528
-3.1925 -11.3947 -2.5014 0.9528
-2.3677 -11.5951 -2.5016 0.9528
-1.5306 -11.7359 -2.5017 0.9528
-1.1087 -11.7837 -2.5018 0.9528
0.1633 -11.8359 -2.5021 0.9528
1.8544 -11.6926 -2.5025 0.9528
2.2726 -11.6189 -2.5025 0.9527
3.0998 -11.4270 -2.5027 0.9527
3.5077 -11.3087 -2.5028 0.9527
3.9112 -11.1761 -2.5029 0.9527
4.3096 -11.0289 -2.5029 0.9527
4.7025 -10.8676 -2.5030 0.9527
5.0893 -10.6922 -2.5031 0.9527
-9.8412 4.0259 -2.4990 0.9573
-10.3157 2.5773 -2.4990 0.9573
-10.4015 2.2057 -2.4990 0.9573
-10.5330 1.4545 -2.4990 0.9573
-10.6285 0.3148 -2.4990 0.9572
-10.6239 -0.4479 -2.4991 0.9572
-10.6011 -0.8286 -2.4991 0.9572
-10.5647 -1.2083 -2.4991 0.9572
-10.4512 -1.9626 -2.4992 0.9572
-10.3743 -2.3362 -2.4993 0.9572
-10.2840 -2.7068 -2.4993 0.9572
-10.1805 -3.0739 -2.4993 0.9572
-10.0639 -3.4371 -2.4994 0.9572
-9.9344 -3.7959 -2.4994 0.9572
-9.7920 -4.1498 -2.4995 0.9572
-9.6371 -4.4984 -2.4995 0.9572
-9.4698 -4.8412 -2.4996 0.9572
-9.2905 -5.1779 -2.4997 0.9572
-8.8957 -5.8308 -2.4998 0.9572
-8.6811 -6.1462 -2.4999 0.9572
-8.2187 -6.7531 -2.5000 0.9572
-7.9714 -7.0437 -2.5001 0.9572
-7.4465 -7.5974 -2.5002 0.9572
-7.1694 -7.8598 -2.5003 0.9572
-6.8831 -8.1121 -2.5004 0.9572
-6.5880 -8.3540 -2.5004 0.9572
-5.9726 -8.8053 -2.5006 0.9572
-5.6532 -9.0142 -2.5007 0.9572
-3.5983 -10.0156 -2.5012 0.9572
-3.2369 -10.1385 -2.5013 0.9572
-2.5020 -10.3452 -2.5014 0.9572
-0.6164 -10.6273 -2.5019 0.9572
-0.2348 -10.6429 -2.5019 0.9572
0.1470 -10.6449 -2.5020 0.9572
0.9096 -10.6077 -2.5022 0.9572
1.6677 -10.5159 -2.5023 0.9572
2.4096 -10.3364 -2.4944 0.9573
2.7877 -10.2768 -2.5026 0.9572
3.1545 -10.1705 -2.5026 0.9572
4.2290 -9.7737 -2.5029 0.9572
4.5770 -9.6160 -2.5029 0.9572
-9.3645 2.3397 -2.4992 0.9609
-9.4424 2.0023 -2.4992 0.9609
-9.6030 0.9766 -2.4992 0.9609
-9.6319 0.6316 -2.4992 0.9609
-9.6484 0.2857 -2.4992 0.9609
-9.6525 -0.0605 -2.4993 0.9609
-9.5905 -1.0969 -2.4993 0.9609
-9.4176 -2.1207 -2.4994 0.9609
-9.0182 -3.4458 -2.4996 0.9609
-8.8890 -3.7671 -2.4997 0.9609
-8.5964 -4.3947 -2.4998 0.9609
-8.4335 -4.7004 -2.4998 0.9609
-8.0752 -5.2930 -2.4999 0.9609
-7.4606 -6.1302 -2.5001 0.9609
-6.7595 -6.8965 -2.5003 0.9609
-6.2481 -7.3637 -2.5005 0.9609
-5.4216 -7.9929 -2.5007 0.9609
-5.1316 -8.1825 -2.5007 0.9609
-4.8350 -8.3615 -2.5008 0.9609
-4.5321 -8.5298 -2.5009 0.9609
-3.5901 -8.9680 -2.5011 0.9609
-3.2662 -9.0913 -2.5012 0.9609
-2.9382 -9.2029 -2.5013 0.9609
-2.6064 -9.3026 -2.5014 0.9609
-2.2711 -9.3904 -2.5014 0.9609
-1.9329 -9.4661 -2.5015 0.9609
-0.9051 -9.6198 -2.5017 0.9609
-0.2133 -9.6606 -2.5019 0.9609
0.1333 -9.6623 -2.5020 0.9609
1.1705 -9.5929 -2.5022 0.9609
1.5138 -9.5450 -2.5023 0.9609
2.1942 -9.4125 -2.5024 0.9609
3.1926 -9.1231 -2.5026 0.9608
3.5179 -9.0029 -2.5027 0.9608
3.8386 -8.8712 -2.5027 0.9608
4.1543 -8.7280 -2.5028 0.9608
-8.4832 2.4459 -2.4994 0.9640
-8.7836 0.8932 -2.4994 0.9640
-8.8213 -0.3719 -2.4995 0.9640
-8.8023 -0.6881 -2.4995 0.9640
-8.7306 -1.3173 -2.4995 0.9640
-8.6139 -1.9397 -2.4996 0.9640
-8.5389 -2.2475 -2.4996 0.9640
-8.3561 -2.8538 -2.4997 0.9640
-8.2485 -3.1517 -2.4998 0.9640
-8.1303 -3.4456 -2.4998 0.9640
-8.0017 -3.7350 -2.4999 0.9640
-7.7137 -4.2992 -2.4999 0.9640
-7.5547 -4.5732 -2.5000 0.9640
-7.3860 -4.8412 -2.5001 0.9640
-7.0203 -5.3584 -2.5002 0.9640
-6.6184 -5.8481 -2.5003 0.9639
-6.4046 -6.0819 -2.5003 0.9639
-6.1825 -6.3078 -2.5004 0.9639
-5.7147 -6.7351 -2.5005 0.9639
-5.4697 -6.9359 -2.5006 0.9639
-4.9587 -7.3105 -2.5007 0.9639
-3.8628 -7.9454 -2.5010 0.9639
-3.5755 -8.0790 -2.5011 0.9639
-3.2835 -8.2022 -2.5011 0.9639
-2.9873 -8.3150 -2.5012 0.9639
-2.6873 -8.4170 -2.5013 0.9639
-2.3838 -8.5082 -2.5014 0.9639
-1.7679 -8.6577 -2.5015 0.9639
-1.4562 -8.7158 -2.5016 0.9639
-0.8278 -8.7982 -2.5017 0.9639
-0.1951 -8.8354 -2.5018 0.9639
0.1220 -8.8369 -2.5019 0.9639
0.4388 -8.8271 -2.5020 0.9639
2.3142 -8.5311 -2.5024 0.9639
2.6188 -8.4428 -2.5024 0.9639
3.2174 -8.2337 -2.5025 0.9639
3.5107 -8.1133 -2.5026 0.9639
3.7995 -7.9823 -2.5026 0.9639
4.0834 -7.8410 -2.5027 0.9639
-7.8841 1.9698 -2.4995 0.9666
-8.0050 1.3996 -2.4995 0.9666
-8.0501 1.1116 -2.4995 0.9666
-8.1231 0.2406 -2.4996 0.9666
-8.1021 -0.6333 -2.4996 0.9666
-8.0742 -0.9235 -2.4997 0.9666
-8.0360 -1.2125 -2.4997 0.9666
-7.9875 -1.4999 -2.4997 0.9666
-7.8596 -2.0687 -2.4998 0.9666
-7.7804 -2.3492 -2.4998 0.9666
-7.6913 -2.6268 -2.4998 0.9666
-7.4835 -3.1714 -2.4999 0.9666
-7.2371 -3.6999 -2.5000 0.9666
-7.0999 -3.9571 -2.5001 0.9666
-6.9536 -4.2093 -2.5001 0.9666
-6.4616 -4.9321 -2.5003 0.9666
-6.2807 -5.1608 -2.5003 0.9666
-6.0918 -5.3828 -2.5004 0.9666
-5.8949 -5.5979 -2.5004 0.9666
-5.6905 -5.8058 -2.5005 0.9666
-5.2599 -6.1991 -2.5006 0.9665
-4.3199 -6.8882 -2.5008 0.9665
-4.0702 -7.0389 -2.5009 0.9665
-3.2908 -7.4359 -2.5011 0.9665
-3.0221 -7.5493 -2.5012 0.9665
-2.7495 -7.6531 -2.5012 0.9665
-2.4734 -7.7469 -2.5013 0.9665
-2.1940 -7.8309 -2.5014 0.9665
-1.9118 -7.9047 -2.5014 0.9665
-1.6271 -7.9684 -2.5015 0.9665
-1.0518 -8.0650 -2.5016 0.9665
-0.7619 -8.0977 -2.5017 0.9665
-0.4710 -8.1200 -2.5017 0.9665
-0.1795 -8.1319 -2.5018 0.9665
0.9852 -8.0748 -2.5020 0.9665
2.1300 -7.8517 -2.5023 0.9665
2.4102 -7.7704 -2.5023 0.9665
2.6874 -7.6791 -2.5024 0.9665
2.9611 -7.5780 -2.5024 0.9665
3.2311 -7.4671 -2.5025 0.9665
3.4968 -7.3465 -2.5025 0.9665
3.7581 -7.2166 -2.5026 0.9665
-7.0576 2.5958 -2.4997 0.9688
-7.2256 2.0832 -2.4997 0.9688
-7.2956 1.8228 -2.4997 0.9688
-7.3563 1.5599 -2.4997 0.9688
-7.4492 1.0287 -2.4997 0.9688
-7.5039 0.4920 -2.4997 0.9688
-7.5199 -0.0471 -2.4997 0.9688
-7.5135 -0.3168 -2.4997 0.9688
-7.4973 -0.5860 -2.4998 0.9688
-7.4362 -1.1220 -2.4998 0.9688
-7.3912 -1.3880 -2.4998 0.9688
-7.2729 -1.9143 -2.4999 0.9688
-7.1997 -2.1739 -2.4999 0.9688
-7.1172 -2.4307 -2.5000 0.9688
-6.9248 -2.9347 -2.5000 0.9688
-6.8152 -3.1812 -2.5001 0.9688
-6.1389 -4.3464 -2.5003 0.9688
-5.9792 -4.5639 -2.5003 0.9688
-5.4548 -5.1800 -2.5005 0.9688
-4.8672 -5.7362 -2.5006 0.9688
-4.6584 -5.9072 -2.5007 0.9688
-4.4437 -6.0706 -2.5008 0.9688
-3.9973 -6.3738 -2.5009 0.9688
-3.7662 -6.5132 -2.5009 0.9688
-3.2898 -6.7668 -2.5011 0.9688
-2.7965 -6.9855 -2.5012 0.9688
-2.5442 -7.0815 -2.5012 0.9688
-2.2886 -7.1684 -2.5013 0.9688
-1.7690 -7.3143 -2.5014 0.9688
-1.2402 -7.4227 -2.5015 0.9688
-0.7050 -7.4928 -2.5017 0.9688
-0.4358 -7.5135 -2.5017 0.9688
0.1039 -7.5257 -2.5018 0.9688
0.6431 -7.4993 -2.5019 0.9688
0.9116 -7.4716 -2.5020 0.9688
1.7090 -7.3309 -2.5022 0.9688
1.9708 -7.2651 -2.5022 0.9688
3.2355 -6.7976 -2.5025 0.9688
-6.4698 2.6467 -2.4998 0.9707
-6.5606 2.4130 -2.4998 0.9707
-6.7167 1.9365 -2.4998 0.9707
-6.9873 0.2069 -2.4998 0.9707
-6.9693 -0.5448 -2.4999 0.9707
-6.7606 -1.7794 -2.5000 0.9707
-6.6926 -2.0208 -2.5000 0.9707
-6.4371 -2.7280 -2.5001 0.9707
-6.3352 -2.9571 -2.5002 0.9707
-6.2251 -3.1825 -2.5002 0.9707
-6.1071 -3.4037 -2.5002 0.9707
-5.9812 -3.6206 -2.5003 0.9707
-5.7065 -4.0402 -2.5004 0.9707
-5.2398 -4.6300 -2.5005 0.9707
-4.7125 -5.1663 -2.5006 0.9707
-4.5243 -5.3321 -2.5007 0.9707
-4.1306 -5.6429 -2.5008 0.9707
-3.5008 -6.0543 -2.5010 0.9707
-3.2815 -6.1761 -2.5010 0.9707
-2.5994 -6.4933 -2.5012 0.9707
-2.3649 -6.5824 -2.5012 0.9707
-2.1273 -6.6632 -2.5013 0.9707
-1.8871 -6.7353 -2.5013 0.9707
-1.6443 -6.7988 -2.5014 0.9707
-1.3995 -6.8536 -2.5015 0.9707
-1.1528 -6.8995 -2.5015 0.9707
-0.9046 -6.9366 -2.5016 0.9707
-0.6553 -6.9647 -2.5016 0.9707
-0.4051 -6.9839 -2.5017 0.9707
0.0962 -6.9728 -2.4937 0.9708
0.3474 -6.9875 -2.5018 0.9707
0.8474 -6.9449 -2.5019 0.9707
1.0959 -6.9102 -2.5020 0.9707
1.3431 -6.8666 -2.5021 0.9707
1.5834 -6.7921 -2.4940 0.9708
2.5385 -6.4964 -2.4942 0.9708
2.7789 -6.4220 -2.5023 0.9707
3.0074 -6.3184 -2.5024 0.9707
3.2321 -6.2065 -2.5024 0.9707
-6.0377 2.4699 -2.4999 0.9724
-6.1992 2.0308 -2.4999 0.9724
-6.3815 1.3532 -2.4999 0.9724
-6.4259 1.1235 -2.4999 0.9724
-6.5234 -0.0409 -2.4999 0.9724
-6.5038 -0.5084 -2.5000 0.9724
-6.4814 -0.7413 -2.5000 0.9724
-6.4507 -0.9733 -2.5000 0.9724
-6.4117 -1.2040 -2.5000 0.9724
-6.3645 -1.4332 -2.5001 0.9724
-6.0944 -2.3287 -2.5002 0.9724
-5.8093 -2.9699 -2.5003 0.9724
-5.3252 -3.7703 -2.5004 0.9724
-5.0415 -4.1424 -2.5005 0.9724
-4.7317 -4.4933 -2.5006 0.9724
-4.5676 -4.6602 -2.5006 0.9724
-4.3976 -4.8211 -2.5007 0.9724
-4.2222 -4.9758 -2.5007 0.9724
-4.0409 -5.1242 -2.5008 0.9724
-3.8546 -5.2658 -2.5008 0.9724
-2.8537 -5.8696 -2.5011 0.9724
-2.6413 -5.9683 -2.5011 0.9724
-2.4257 -6.0594 -2.5012 0.9724
-2.2068 -6.1426 -2.5012 0.9724
-1.5344 -6.3445 -2.5014 0.9724
-1.3059 -6.3955 -2.5015 0.9724
-1.0758 -6.4384 -2.5015 0.9724
-0.8442 -6.4729 -2.5016 0.9724
-0.3780 -6.5171 -2.5017 0.9724
-0.1436 -6.5055 -2.4937 0.9725
0.0898 -6.5066 -2.4937 0.9725
0.3237 -6.5109 -2.4982 0.9725
0.5578 -6.5047 -2.5019 0.9724
1.2533 -6.4075 -2.5020 0.9724
2.8064 -5.8959 -2.5023 0.9724
3.0161 -5.7915 -2.5023 0.9724
-5.6535 2.3128 -2.5000 0.9739
-5.8692 1.6922 -2.5000 0.9739
-5.9261 1.4806 -2.5000 0.9739
-5.9754 1.2671 -2.5000 0.9739
-6.0170 1.0520 -2.5000 0.9739
-6.0770 0.6180 -2.5000 0.9739
-6.1083 -0.0383 -2.5000 0.9739
-6.0690 -0.6941 -2.5001 0.9739
-6.0402 -0.9114 -2.5001 0.9739
-6.0037 -1.1274 -2.5001 0.9739
-5.9076 -1.5549 -2.5002 0.9739
-5.7066 -2.1805 -2.5002 0.9739
-5.5357 -2.5840 -2.5003 0.9739
-5.3364 -2.9742 -2.5004 0.9739
-5.2264 -3.1637 -2.5004 0.9739
-5.1096 -3.3492 -2.5004 0.9739
-4.9863 -3.5303 -2.5005 0.9739
-4.8566 -3.7070 -2.5005 0.9739
-4.5785 -4.0457 -2.5006 0.9739
-4.4306 -4.2074 -2.5006 0.9739
-4.2769 -4.3636 -2.5007 0.9739
-3.9533 -4.6591 -2.5008 0.9739
-3.6092 -4.9306 -2.5009 0.9739
-3.4301 -5.0570 -2.5009 0.9739
-3.2467 -5.1769 -2.5010 0.9739
-3.0589 -5.2901 -2.5010 0.9739
-2.8673 -5.3965 -2.5011 0.9739
-2.4732 -5.5884 -2.5012 0.9739
-2.0664 -5.7515 -2.5012 0.9739
-1.8588 -5.8220 -2.5013 0.9739
-1.6488 -5.8851 -2.5013 0.9739
-1.4367 -5.9405 -2.5014 0.9739
-0.7904 -6.0608 -2.5015 0.9739
-0.5726 -6.0854 -2.5016 0.9739
-0.1349 -6.1110 -2.5017 0.9739
0.3035 -6.1052 -2.5018 0.9739
0.9575 -6.0376 -2.5019 0.9739
1.1734 -5.9995 -2.5020 0.9739
1.3879 -5.9537 -2.5020 0.9739
1.8112 -5.8390 -2.5021 0.9739
2.0194 -5.7704 -2.5021 0.9739
2.4279 -5.6110 -2.5022 0.9739
2.8240 -5.4227 -2.5023 0.9739
-5.3839 1.9802 -2.5001 0.9753
-5.5654 1.3904 -2.5001 0.9753
-5.6117 1.1900 -2.5001 0.9753
-5.6826 0.7847 -2.5001 0.9753
-5.7341 0.1698 -2.5001 0.9753
-5.7315 -0.2416 -2.5001 0.9753
-5.7192 -0.4471 -2.5001 0.9753
-5.6725 -0.8559 -2.5002 0.9753
-5.6382 -1.0588 -2.5002 0.9753
-5.5967 -1.2603 -2.5002 0.9753
-5.5479 -1.4602 -2.5002 0.9753
-5.2824 -2.2386 -2.5003 0.9753
-5.1987 -2.4267 -2.5004 0.9753
-5.1084 -2.6116 -2.5004 0.9753
-5.0115 -2.7932 -2.5004 0.9753
-4.9082 -2.9711 -2.5005 0.9753
-4.6827 -3.3154 -2.5005 0.9753
-4.2998 -3.7993 -2.5006 0.9753
-4.0165 -4.0979 -2.5007 0.9753
-3.8670 -4.2394 -2.5008 0.9753
-3.5533 -4.5059 -2.5009 0.9753
-3.3895 -4.6304 -2.5009 0.9753
-3.0490 -4.8617 -2.5010 0.9753
-2.8727 -4.9680 -2.5010 0.9753
-2.6927 -5.0679 -2.5011 0.9753
-2.5093 -5.1613 -2.5011 0.9753
-2.3226 -5.2480 -2.5012 0.9753
-2.1329 -5.3281 -2.5012 0.9753
-1.9405 -5.4012 -2.5013 0.9753
-1.7456 -5.4675 -2.5013 0.9753
-1.5484 -5.5266 -2.5013 0.9753
-1.1483 -5.6236 -2.5014 0.9753
-0.9459 -5.6613 -2.5015 0.9753
-0.5377 -5.7148 -2.5016 0.9753
-0.3324 -5.7305 -2.5016 0.9753
-0.1267 -5.7388 -2.5017 0.9753
0.2850 -5.7333 -2.5018 0.9753
1.1020 -5.6340 -2.5019 0.9753
1.8964 -5.4189 -2.5021 0.9753
2.0895 -5.3475 -2.5021 0.9753
2.2800 -5.2692 -2.5022 0.9753
2.6519 -5.0923 -2.5022 0.9753
-5.3735 0.5464 -2.5001 0.9765
-5.4012 -0.0339 -2.5002 0.9765
-5.3965 -0.2275 -2.5002 0.9765
-5.3664 -0.6138 -2.5002 0.9765
-5.3087 -0.9969 -2.5003 0.9765
-5.2696 -1.1867 -2.5003 0.9765
-5.0459 -1.9280 -2.5004 0.9765
-4.9736 -2.1078 -2.5004 0.9765
-4.8098 -2.4589 -2.5005 0.9765
-4.4090 -3.1216 -2.5006 0.9765
-4.2943 -3.2777 -2.5006 0.9765
-3.6409 -3.9916 -2.5008 0.9765
-3.1913 -4.3597 -2.5009 0.9765
-3.0329 -4.4714 -2.5010 0.9765
-2.8707 -4.5774 -2.5010 0.9765
-2.7047 -4.6775 -2.5010 0.9765
-2.5353 -4.7716 -2.5011 0.9765
-2.3625 -4.8595 -2.5011 0.9765
-1.4579 -5.2035 -2.5013 0.9765
-0.8906 -5.3302 -2.5015 0.9765
-0.6989 -5.3588 -2.5015 0.9765
-0.5062 -5.3805 -2.5016 0.9765
0.0746 -5.4041 -2.5017 0.9765
0.2683 -5.3980 -2.5017 0.9765
0.4617 -5.3850 -2.5018 0.9765
1.0375 -5.3045 -2.5019 0.9765
1.6013 -5.1626 -2.5020 0.9765
1.9673 -5.0347 -2.5021 0.9765
2.1467 -4.9609 -2.5021 0.9765
2.3232 -4.8808 -2.5021 0.9765
-4.7175 1.9299 -2.5002 0.9775
-4.7837 1.7594 -2.5002 0.9775
-4.8437 1.5867 -2.5002 0.9775
-4.9450 1.2355 -2.5002 0.9775
-5.0208 0.8778 -2.5002 0.9775
-5.0491 0.6972 -2.5002 0.9775
-5.0709 0.5157 -2.5002 0.9775
-5.0861 0.3335 -2.5002 0.9775
-5.0948 0.1509 -2.5002 0.9775
-5.0926 -0.2147 -2.5003 0.9775
-5.0402 -0.7604 -2.5003 0.9775
-5.0097 -0.9407 -2.5003 0.9775
-4.9294 -1.2974 -2.5004 0.9775
-4.8238 -1.6475 -2.5004 0.9775
-4.7617 -1.8194 -2.5004 0.9775
-4.6934 -1.9891 -2.5005 0.9775
-4.4528 -2.4817 -2.5005 0.9775
-4.3610 -2.6399 -2.5006 0.9775
-4.1606 -2.9457 -2.5006 0.9775
-4.0523 -3.0931 -2.5007 0.9775
-3.9389 -3.2365 -2.5007 0.9775
-3.8203 -3.3757 -2.5007 0.9775
-3.5686 -3.6410 -2.5008 0.9775
-3.0115 -4.1141 -2.5009 0.9775
-2.8621 -4.2195 -2.5010 0.9775
-2.7090 -4.3195 -2.5010 0.9775
-2.3924 -4.5028 -2.5011 0.9775
-1.0202 -4.9964 -2.5014 0.9775
-0.8404 -5.0299 -2.5015 0.9775
-0.6595 -5.0569 -2.5015 0.9775
-0.4777 -5.0773 -2.5015 0.9775
-0.2953 -5.0913 -2.5016 0.9775
-0.1126 -5.0987 -2.5016 0.9775
0.2532 -5.0938 -2.5017 0.9775
0.6177 -5.0627 -2.5018 0.9775
0.9791 -5.0055 -2.5019 0.9775
1.5113 -4.8716 -2.5020 0.9775
1.8565 -4.7509 -2.5020 0.9775
2.0257 -4.6814 -2.5021 0.9775
2.1923 -4.6058 -2.5021 0.9775
2.3561 -4.5242 -2.5021 0.9775
-4.4607 1.8248 -2.5003 0.9785
-4.5800 1.5004 -2.5003 0.9785
-4.6758 1.1682 -2.5003 0.9785
-4.7475 0.8300 -2.5003 0.9785
-4.7742 0.6593 -2.5003 0.9785
-4.8153 -0.2030 -2.5003 0.9785
-4.7369 -0.8895 -2.5004 0.9785
-4.5612 -1.5578 -2.5005 0.9785
-4.5024 -1.7204 -2.5005 0.9785
-4.3676 -2.0387 -2.5005 0.9785
-4.2917 -2.1941 -2.5005 0.9785
-4.2103 -2.3466 -2.5006 0.9785
-4.0314 -2.6424 -2.5006 0.9785
-3.8317 -2.9247 -2.5007 0.9785
-3.7244 -3.0603 -2.5007 0.9785
-3.6123 -3.1919 -2.5008 0.9785
-3.3743 -3.4427 -2.5008 0.9785
-3.2487 -3.5615 -2.5009 0.9785
-2.8475 -3.8901 -2.5010 0.9785
-2.1080 -4.3360 -2.5012 0.9785
-1.6302 -4.5375 -2.5013 0.9785
-1.1335 -4.6866 -2.5014 0.9785
-0.7946 -4.7559 -2.5015 0.9785
-0.6236 -4.7814 -2.5015 0.9785
-0.2792 -4.8139 -2.5016 0.9785
-0.1064 -4.8210 -2.5016 0.9785
0.2398 -4.8163 -2.5017 0.9785
1.0949 -4.6967 -2.5019 0.9785
1.2626 -4.6545 -2.5019 0.9785
1.5931 -4.5521 -2.5020 0.9785
1.7553 -4.4921 -2.5020 0.9785
1.9153 -4.4263 -2.5020 0.9785
2.0728 -4.3548 -2.5021 0.9785
2.2277 -4.2777 -2.5021 0.9785
-4.2252 1.7285 -2.5003 0.9794
-4.2845 1.5758 -2.5003 0.9794
-4.3864 1.2647 -2.5003 0.9794
-4.4289 1.1065 -2.5003 0.9794
-4.4658 0.9470 -2.5003 0.9794
-4.5222 0.6245 -2.5003 0.9794
-4.5611 -0.1923 -2.5004 0.9794
-4.5513 -0.3558 -2.5004 0.9794
-4.5356 -0.5188 -2.5004 0.9794
-4.5142 -0.6811 -2.5004 0.9794
-4.4538 -1.0030 -2.5004 0.9794
-4.4150 -1.1621 -2.5005 0.9794
-4.3204 -1.4756 -2.5005 0.9794
-4.2036 -1.7815 -2.5005 0.9794
-4.0652 -2.0782 -2.5006 0.9794
-3.9058 -2.3643 -2.5006 0.9794
-3.7264 -2.6383 -2.5007 0.9794
-3.6294 -2.7703 -2.5007 0.9794
-3.4216 -3.0234 -2.5008 0.9794
-3.0772 -3.3735 -2.5009 0.9794
-2.9542 -3.4817 -2.5009 0.9794
-2.8275 -3.5855 -2.5010 0.9794
-2.4262 -3.8686 -2.5011 0.9794
-2.2859 -3.9532 -2.5011 0.9794
-2.1427 -4.0327 -2.5011 0.9794
-1.9967 -4.1070 -2.5012 0.9794
-1.8482 -4.1760 -2.5012 0.9794
-1.6972 -4.2397 -2.5012 0.9794
-1.5441 -4.2979 -2.5013 0.9794
-1.2321 -4.3976 -2.5013 0.9794
-0.9137 -4.4748 -2.5014 0.9794
-0.5906 -4.5289 -2.5015 0.9794
-0.4278 -4.5473 -2.5015 0.9794
-0.2645 -4.5597 -2.5016 0.9794
0.0630 -4.5671 -2.5016 0.9794
0.5532 -4.5341 -2.5017 0.9794
0.7155 -4.5114 -2.5018 0.9794
0.8768 -4.4829 -2.5018 0.9794
1.1960 -4.4086 -2.5019 0.9794
1.5089 -4.3116 -2.5019 0.9794
1.6626 -4.2548 -2.5020 0.9794
1.9633 -4.1248 -2.5020 0.9794
2.1100 -4.0518 -2.5020 0.9794
-4.0083 1.6398 -2.5004 0.9802
-4.1155 1.3482 -2.5004 0.9802
-4.1612 1.1997 -2.5004 0.9802
-4.2016 1.0497 -2.5004 0.9802
-4.2365 0.8984 -2.5004 0.9802
-4.3085 0.4382 -2.5004 0.9802
-4.3215 0.2833 -2.5004 0.9802
-4.3289 0.1282 -2.5004 0.9802
-4.3270 -0.1824 -2.5004 0.9802
-4.3177 -0.3375 -2.5004 0.9802
-4.3028 -0.4921 -2.5004 0.9802
-4.2565 -0.7993 -2.5005 0.9802
-4.0458 -1.5459 -2.5006 0.9802
-3.8565 -1.9715 -2.5006 0.9802
-3.7833 -2.1086 -2.5007 0.9802
-3.5351 -2.5029 -2.5007 0.9802
-3.3467 -2.7499 -2.5008 0.9802
-2.8026 -3.3030 -2.5009 0.9802
-2.6823 -3.4014 -2.5010 0.9802
-2.4317 -3.5850 -2.5010 0.9802
-2.1685 -3.7502 -2.5011 0.9802
-2.0327 -3.8256 -2.5011 0.9802
-1.6101 -4.0220 -2.5012 0.9802
-1.0185 -4.2111 -2.5014 0.9802
-0.5603 -4.2963 -2.5015 0.9802
-0.4059 -4.3137 -2.5015 0.9802
-0.2509 -4.3255 -2.5016 0.9802
0.6787 -4.2797 -2.5017 0.9802
1.1345 -4.1822 -2.5018 0.9802
1.7210 -3.9772 -2.5020 0.9802
1.8625 -3.9129 -2.5020 0.9802
2.0016 -3.8437 -2.5020 0.9802
