ply
format ascii 1.0
element vertex 1281
property float32 x
property float32 y
property float32 z
property float32 I
end_header
12.1863 43.3881 7.9465 0.8327
10.5467 43.5272 7.8971 0.8337
7.0059 41.9353 7.4968 0.8414
4.3595 46.5632 8.2463 0.8270
-0.9652 11.0530 1.9564 0.9559
-1.7758 11.0536 1.9740 0.9555
-3.4638 11.0541 2.0426 0.9540
-4.0333 9.2309 1.7763 0.9599
-6.2128 9.2311 1.9620 0.9558
-9.3267 11.0581 2.5508 0.9429
-10.0312 11.0577 2.6325 0.9412
-11.1440 10.6312 2.7157 0.9394
-11.1877 9.2274 2.5571 0.9428
-12.9924 9.2261 2.8098 0.9373
-14.0376 9.2249 2.9618 0.9340
-14.9107 9.0457 3.0752 0.9316
-16.5171 9.2218 3.3356 0.9260
-18.0112 9.2198 3.5678 0.9211
-24.5635 11.4748 4.7805 0.8957
-26.6916 11.3143 5.1118 0.8889
-30.0223 11.4666 5.6667 0.8776
-30.2977 10.3354 5.6446 0.8781
-8.3303 2.5100 1.5341 0.9653
3.1275 8.6754 1.4128 0.9634
10.5502 43.5414 6.8633 0.8342
8.8322 43.2093 6.7563 0.8365
3.8414 41.0295 6.3130 0.8464
-0.9657 11.0583 1.7005 0.9561
-1.3694 11.0586 1.7071 0.9559
-1.7766 11.0589 1.7159 0.9557
-2.6067 11.0593 1.7407 0.9551
-3.0318 11.0594 1.7568 0.9547
-4.0354 9.2357 1.5440 0.9600
-4.4390 9.2359 1.5698 0.9594
-4.8569 9.2361 1.5986 0.9587
-6.7130 9.2364 1.7492 0.9548
-10.1702 11.2108 2.3188 0.9406
-10.7903 11.0645 2.3676 0.9394
-11.1960 9.2342 2.2233 0.9430
-15.2160 9.2309 2.7264 0.9305
-16.5331 9.2307 2.9008 0.9262
-27.3878 11.6095 4.5570 0.8866
-18.8182 -18.9962 4.0963 0.8974
1.3967 24.3656 3.1781 0.9062
-1.7775 11.0641 1.4593 0.9558
-2.6079 11.0646 1.4803 0.9552
-3.4672 11.0650 1.5100 0.9543
-4.4413 9.2407 1.3351 0.9595
-6.7169 9.2417 1.4878 0.9550
-9.3382 11.0717 1.8861 0.9432
-10.7974 11.0717 2.0139 0.9395
-12.2115 9.3523 2.0030 0.9398
-18.0484 9.2388 2.6403 0.9215
-8.3367 2.5119 1.1338 0.9655
-22.6245 -19.7600 3.9117 0.8859
-20.2703 -20.4620 3.7507 0.8903
-18.8570 -20.4619 3.6235 0.8938
-17.5347 -20.4620 3.5091 0.8970
-16.6442 -20.9046 3.4797 0.8978
-16.5707 -24.2091 3.8203 0.8884
3.1266 8.6729 0.9900 0.9636
3.0262 9.4504 1.0656 0.9609
2.6678 9.4984 1.0594 0.9611
2.8757 14.0685 1.5419 0.9439
2.9163 17.4559 1.9004 0.9313
1.3827 24.1209 2.5944 0.9074
-1.1443 9.2415 1.0000 0.9632
-1.4848 9.2421 1.0052 0.9630
-1.8291 9.2426 1.0117 0.9628
-2.5340 9.2435 1.0292 0.9622
-2.8966 9.2439 1.0402 0.9618
-4.0395 9.2451 1.0834 0.9602
-5.2966 9.2462 1.1442 0.9580
-5.7496 9.2465 1.1692 0.9571
-9.3439 11.0784 1.5563 0.9434
-10.1830 11.2250 1.6274 0.9409
-10.8044 11.0789 1.6617 0.9396
-11.2743 10.7554 1.6732 0.9392
-11.2125 9.2478 1.5607 0.9432
-12.2208 9.3594 1.6529 0.9400
-15.4279 9.3595 1.9377 0.9300
-24.1230 12.3483 2.9100 0.8967
-27.1737 11.5187 3.1693 0.8880
-8.3400 2.5129 0.9353 0.9656
-31.7225 -15.9258 3.8116 0.8669
-29.9261 -16.4018 3.6645 0.8717
-27.5204 -16.4016 3.4402 0.8791
-26.0785 -16.8465 3.3338 0.8826
-26.0831 -19.6535 3.5069 0.8769
-25.1914 -20.4475 3.4840 0.8776
-23.4120 -20.4478 3.3379 0.8825
-21.7738 -20.4481 3.2075 0.8868
-20.2570 -20.4485 3.0908 0.8907
-18.8450 -20.4489 2.9861 0.8942
-17.6252 -20.5676 2.9086 0.8968
-16.6509 -24.3263 3.1655 0.8882
3.1261 8.6717 0.7803 0.9637
2.7040 11.1596 0.9720 0.9550
2.7887 16.6924 1.4326 0.9343
1.3669 23.8449 2.0219 0.9086
-0.8889 10.1788 0.8649 0.9598
-2.1796 9.2474 0.8043 0.9626
-2.5352 9.2479 0.8118 0.9622
-4.0415 9.2498 0.8545 0.9603
-4.8646 9.2507 0.8848 0.9589
-5.2994 9.2511 0.9025 0.9581
-6.2268 9.2520 0.9441 0.9562
-8.6845 11.0847 1.1920 0.9450
-10.1894 11.2320 1.2838 0.9409
-10.8114 11.0861 1.3109 0.9397
-11.1470 10.6340 1.3042 0.9400
-12.2302 9.3666 1.3041 0.9400
-13.1908 9.3670 1.3695 0.9371
-15.4418 9.3679 1.5289 0.9301
-16.5806 9.2572 1.6075 0.9266
-24.1243 12.3490 2.2942 0.8969
-24.6723 11.5256 2.3052 0.8964
-30.1800 11.5269 2.7348 0.8784
-30.3040 10.3375 2.7105 0.8794
-8.3432 2.5138 0.7376 0.9656
-26.1503 -16.8928 2.6354 0.8825
-26.0823 -18.2156 2.6931 0.8801
-25.3183 -20.5505 2.7604 0.8773
-23.5306 -20.5514 2.6447 0.8821
-21.8283 -20.4993 2.5349 0.8867
-20.2697 -20.4614 2.4381 0.8908
-17.6144 -20.5550 2.2915 0.8970
-15.5911 -24.6407 2.4684 0.8895
3.1000 9.6807 0.6303 0.9601
2.5776 19.8014 1.2383 0.9231
0.8351 39.4453 2.4466 0.8537
-1.1454 9.2502 0.5780 0.9633
-1.8309 9.2513 0.5848 0.9629
-2.1806 9.2518 0.5894 0.9626
-2.5364 9.2524 0.5949 0.9623
-2.8994 9.2529 0.6013 0.9619
-4.0436 9.2545 0.6263 0.9603
-4.8671 9.2555 0.6485 0.9590
-6.2303 9.2571 0.6919 0.9563
-6.7285 9.2576 0.7097 0.9552
-8.6896 11.0912 0.8737 0.9451
-9.3553 11.0919 0.8998 0.9435
-10.0629 11.0926 0.9287 0.9417
-10.8184 11.0933 0.9609 0.9398
-11.1478 10.6348 0.9554 0.9401
-11.1492 9.8927 0.9243 0.9420
-13.4587 8.8445 0.9987 0.9375
-14.5804 8.8453 1.0575 0.9339
-16.5964 9.2660 1.1787 0.9267
-24.1256 12.3497 1.6806 0.8971
-27.5188 11.6650 1.8534 0.8871
-8.3464 2.5148 0.5405 0.9657
-26.0839 -18.2167 1.9729 0.8803
-26.0863 -19.6559 2.0254 0.8773
-25.2997 -20.5355 2.0206 0.8776
-21.8135 -20.4854 1.8556 0.8870
-20.2565 -20.4480 1.7848 0.8911
-17.6037 -20.5424 1.6776 0.8972
-16.6508 -22.5361 1.7375 0.8938
-15.5825 -24.6272 1.8072 0.8898
3.0975 8.5921 0.3601 0.9641
2.5759 10.6308 0.4313 0.9572
3.0736 15.0370 0.6052 0.9404
2.5732 15.4022 0.6157 0.9394
1.3682 23.8669 0.9426 0.9087
-0.8898 10.1898 0.4033 0.9599
-1.1459 9.2545 0.3677 0.9634
-2.1817 9.2562 0.3750 0.9626
-2.5376 9.2568 0.3785 0.9623
-4.0456 9.2591 0.3984 0.9604
-4.4504 9.2597 0.4051 0.9597
-5.3051 9.2610 0.4208 0.9582
-5.7590 9.2616 0.4300 0.9573
-10.0691 11.0995 0.5909 0.9418
-11.1485 10.6355 0.6076 0.9402
-12.2488 9.3808 0.6084 0.9401
-14.5935 8.8532 0.6730 0.9340
-16.6121 9.2748 0.7502 0.9267
-27.5514 11.6788 1.1800 0.8871
-30.2584 11.5568 1.2772 0.8784
-26.0854 -18.2177 1.2546 0.8804
-21.7077 -18.9593 1.1365 0.8910
-20.2069 -18.9766 1.0930 0.8950
-20.2434 -20.4347 1.1342 0.8912
-17.4919 -20.4120 1.0600 0.8980
-15.4993 -24.4958 1.1430 0.8904
3.1248 8.6680 0.1556 0.9638
3.1268 9.7644 0.1732 0.9598
3.1325 12.9281 0.2247 0.9482
3.1369 15.3464 0.2646 0.9393
1.3688 23.8779 0.4040 0.9088
0.8359 39.4833 0.6671 0.8539
-1.1465 9.2588 0.1576 0.9634
-1.4875 9.2594 0.1584 0.9632
-2.1827 9.2606 0.1607 0.9627
-2.5388 9.2612 0.1622 0.9623
-2.9022 9.2618 0.1640 0.9619
-3.2739 9.2625 0.1659 0.9615
-4.8722 9.2652 0.1768 0.9590
-5.7621 9.2666 0.1843 0.9573
-8.6998 11.1042 0.2383 0.9451
-10.8324 11.1076 0.2621 0.9398
-11.1493 10.6362 0.2603 0.9402
-11.1506 9.8940 0.2518 0.9421
-15.4831 9.3929 0.3059 0.9301
-16.6279 9.2836 0.3217 0.9266
-18.1404 9.2859 0.3442 0.9217
-28.7542 10.9823 0.5199 0.8841
-21.7842 -20.4579 0.5048 0.8873
-16.6535 -22.5398 0.4734 0.8939
-15.7668 -23.0347 0.4715 0.8943
3.1243 8.6667 -0.0519 0.9638
3.1263 9.7629 -0.0577 0.9598
3.1319 12.9254 -0.0749 0.9482
3.1423 18.8085 -0.1074 0.9266
1.3694 23.8890 -0.1347 0.9087
0.8363 39.5024 -0.2225 0.8538
-0.8908 10.2008 -0.0576 0.9599
-1.8334 9.2643 -0.0532 0.9629
-2.1837 9.2650 -0.0536 0.9626
-2.5401 9.2656 -0.0541 0.9623
-3.2755 9.2670 -0.0553 0.9614
-3.6570 9.2677 -0.0561 0.9609
-4.4550 9.2692 -0.0579 0.9597
-4.8747 9.2700 -0.0590 0.9590
-5.7652 9.2717 -0.0615 0.9573
-6.2407 9.2725 -0.0629 0.9563
-10.8393 11.1148 -0.0874 0.9398
-11.1500 10.6369 -0.0868 0.9402
-11.1513 9.8946 -0.0839 0.9421
-11.2533 9.2814 -0.0821 0.9433
-18.1588 9.2953 -0.1148 0.9216
-30.2954 11.5709 -0.1826 0.8783
-8.3559 2.5177 -0.0491 0.9657
-32.4961 -14.8713 -0.2012 0.8668
-29.6329 -14.8768 -0.1867 0.8758
-27.1523 -14.8816 -0.1743 0.8835
-25.1176 -18.9260 -0.1771 0.8818
-23.3211 -18.9294 -0.1691 0.8868
-21.6770 -18.9325 -0.1620 0.8913
-20.1630 -18.9354 -0.1557 0.8953
-18.7607 -18.9381 -0.1501 0.8989
-16.6493 -19.4287 -0.1441 0.9027
-15.7580 -23.0219 -0.1571 0.8944
-14.5682 -23.0241 -0.1534 0.8967
3.1258 9.7613 -0.2886 0.9598
3.1354 15.3390 -0.4408 0.9393
-0.8913 10.2064 -0.2885 0.9598
-1.1475 9.2673 -0.2629 0.9633
-1.8343 9.2687 -0.2660 0.9629
-2.9050 9.2708 -0.2736 0.9619
-4.0517 9.2731 -0.2849 0.9603
-4.8772 9.2748 -0.2951 0.9589
-5.7684 9.2767 -0.3076 0.9572
-6.2442 9.2777 -0.3149 0.9562
-6.7438 9.2788 -0.3230 0.9551
-8.7812 11.2082 -0.4009 0.9446
-9.3779 11.1187 -0.4096 0.9435
-10.2212 11.2671 -0.4283 0.9409
-11.1520 9.8953 -0.4198 0.9421
-11.2615 9.2882 -0.4110 0.9433
-12.2767 9.4022 -0.4354 0.9400
-13.2436 9.4045 -0.4574 0.9371
-15.5107 9.4097 -0.5108 0.9300
-16.6594 9.3012 -0.5372 0.9265
-27.6496 11.7204 -0.8456 0.8868
-22.8311 8.7200 -0.6882 0.9068
-31.9318 8.3771 -0.9296 0.8763
-37.4017 8.3823 -1.0793 0.8578
-29.6027 -14.8616 -0.9327 0.8759
-27.1263 -14.8674 -0.8710 0.8836
-26.1578 -16.8977 -0.8769 0.8828
-26.0900 -18.2209 -0.8961 0.8804
-25.0984 -18.9115 -0.8849 0.8818
-20.1495 -18.9227 -0.7783 0.8953
-17.4441 -18.9287 -0.7248 0.9021
-16.6505 -19.4302 -0.7205 0.9027
-16.7236 -21.0043 -0.7560 0.8981
-16.6562 -22.5434 -0.7892 0.8939
-15.7493 -23.0090 -0.7851 0.8944
-14.6081 -23.0873 -0.7693 0.8964
3.1276 11.1354 -0.5866 0.9547
2.6036 12.7374 -0.6593 0.9493
2.3175 13.8718 -0.7133 0.9452
-2.1605 42.3154 -2.1488 0.8439
-1.3751 11.1051 -0.5675 0.9562
-1.7841 11.1056 -0.5704 0.9559
-2.1980 11.1061 -0.5742 0.9557
-2.6179 11.1067 -0.5787 0.9553
-3.8084 10.7747 -0.5796 0.9553
-3.6607 9.2769 -0.5058 0.9608
-5.7715 9.2817 -0.5543 0.9572
-6.2476 9.2829 -0.5675 0.9562
-6.7477 9.2841 -0.5821 0.9551
-8.7819 11.2091 -0.7222 0.9446
-11.2796 10.7604 -0.7906 0.9395
-11.1527 9.8959 -0.7562 0.9420
-11.7367 8.3344 -0.7300 0.9440
-12.6864 8.3370 -0.7699 0.9410
-14.9433 8.3431 -0.8680 0.9338
-19.7011 8.3511 -1.0852 0.9179
-21.8785 8.3562 -1.1877 0.9105
-31.9904 8.3925 -1.6773 0.8759
-32.4246 -14.8386 -1.8084 0.8669
-27.1004 -14.8532 -1.5673 0.8836
-26.1593 -16.8986 -1.5794 0.8827
-23.2897 -18.9039 -1.5212 0.8868
-21.6468 -18.9061 -1.4576 0.8913
-20.1360 -18.9100 -1.4009 0.8953
-18.7439 -18.9211 -1.3507 0.8988
-16.6517 -19.4316 -1.2978 0.9026
-16.7248 -21.0059 -1.3617 0.8980
-16.6576 -22.5452 -1.4216 0.8938
-15.7405 -22.9962 -1.4133 0.8944
-14.6002 -23.0747 -1.3848 0.8964
3.1248 9.7582 -0.7513 0.9597
2.6745 9.5225 -0.7252 0.9611
2.4180 9.9794 -0.7529 0.9597
2.3754 11.6211 -0.8697 0.9535
2.2320 17.1465 -1.2678 0.9330
2.0959 22.3862 -1.6486 0.9138
1.3713 23.9222 -1.7569 0.9084
0.6568 31.0257 -2.2754 0.8830
-0.4626 30.9921 -2.2727 0.8831
-1.3758 11.1103 -0.8208 0.9561
-1.7850 11.1108 -0.8251 0.9559
-2.6191 11.1120 -0.8371 0.9552
-3.4823 11.1133 -0.8539 0.9544
-3.8089 10.7763 -0.8380 0.9552
-3.6625 9.2815 -0.7316 0.9608
-3.9407 9.0189 -0.7217 0.9613
-4.2746 8.8937 -0.7235 0.9612
-4.6059 8.7587 -0.7256 0.9611
-4.9834 8.6993 -0.7351 0.9606
-5.8565 8.7016 -0.7691 0.9588
-7.8989 8.7072 -0.8620 0.9539
-9.1235 8.7036 -0.9245 0.9507
-9.8113 8.7056 -0.9617 0.9488
-10.8878 8.3385 -1.0055 0.9465
-11.7461 8.3411 -1.0563 0.9439
-12.6971 8.3441 -1.1140 0.9409
-13.7595 8.3473 -1.1800 0.9375
-14.9576 8.3511 -1.2561 0.9336
-16.3125 8.3502 -1.3437 0.9291
-19.7247 8.3611 -1.5708 0.9177
-21.9071 8.3671 -1.7195 0.9102
-24.5532 8.3757 -1.9022 0.9012
-8.3655 2.5206 -0.6406 0.9656
-37.5620 8.4182 -2.8224 0.8569
-42.6017 7.9452 -3.1775 0.8405
-43.2991 6.4682 -3.2100 0.8390
-45.6840 0.1791 -3.3497 0.8326
-46.1688 -1.4858 -3.3870 0.8309
-47.3221 -6.6903 -3.5043 0.8256
-47.5962 -8.4910 -3.5450 0.8237
-47.7956 -10.3188 -3.5852 0.8219
-47.9318 -12.1738 -3.6260 0.8201
-29.5422 -14.8312 -2.4237 0.8758
-27.0745 -14.8390 -2.2638 0.8835
-26.0881 -15.5480 -2.2268 0.8853
-26.1608 -16.8996 -2.2836 0.8826
-23.2710 -18.8888 -2.1976 0.8867
-18.7441 -18.9213 -1.9528 0.8987
-16.6530 -19.4330 -1.8765 0.9024
-16.7261 -21.0076 -1.9689 0.8979
-15.7317 -22.9833 -2.0422 0.8943
-14.5922 -23.0621 -2.0010 0.8963
3.1226 8.6618 -0.8840 0.9637
2.8450 8.8846 -0.8956 0.9632
2.4399 8.6873 -0.8663 0.9644
1.4515 8.6887 -0.8457 0.9652
1.1310 8.6892 -0.8412 0.9654
0.8135 8.6897 -0.8379 0.9655
0.4981 8.6902 -0.8357 0.9656
-0.1297 8.6913 -0.8345 0.9657
-0.7592 8.6926 -0.8377 0.9655
-1.3967 8.6939 -0.8454 0.9652
-1.7208 8.6946 -0.8509 0.9650
-2.0495 8.6953 -0.8577 0.9647
-2.3840 8.6961 -0.8657 0.9644
-4.9860 8.7040 -0.9630 0.9605
-5.8597 8.7065 -1.0075 0.9587
-6.3289 8.7079 -1.0335 0.9577
-6.8235 8.7093 -1.0622 0.9565
-7.3471 8.7110 -1.0940 0.9552
-7.9039 8.7127 -1.1294 0.9538
-9.1296 8.7095 -1.2114 0.9506
-10.5656 8.7142 -1.3148 0.9465
-14.9719 8.3591 -1.6462 0.9334
-16.3292 8.3588 -1.7611 0.9289
-28.3800 6.3604 -2.7922 0.8897
-31.0904 4.6444 -3.0180 0.8813
-31.9400 2.4355 -3.0753 0.8792
-32.2911 1.2927 -3.1026 0.8782
-32.8579 -1.0575 -3.1562 0.8762
-33.4589 -4.7304 -3.2442 0.8730
-33.3675 -5.9526 -3.2540 0.8727
-33.5309 -9.8170 -3.3543 0.8690
-31.1802 -11.6296 -3.1949 0.8748
-31.0382 -12.8707 -3.2259 0.8737
-24.0020 -14.3048 -2.6825 0.8938
-20.1089 -18.8846 -2.6484 0.8951
-18.7340 -18.9111 -2.5556 0.8986
-17.4113 -18.8932 -2.4666 0.9019
-16.6542 -19.4345 -2.4572 0.9023
-16.6571 -20.9208 -2.5674 0.8981
-16.6603 -22.5489 -2.6916 0.8935
2.4411 8.6915 -1.0724 0.9643
1.7767 8.6923 -1.0539 0.9649
1.1316 8.6933 -1.0413 0.9653
0.8139 8.6938 -1.0372 0.9654
-0.1298 8.6954 -1.0330 0.9656
-0.7595 8.6966 -1.0370 0.9654
-1.3974 8.6980 -1.0464 0.9651
-1.7216 8.6987 -1.0533 0.9649
-2.7269 8.7023 -1.0833 0.9639
-3.0762 8.7032 -1.0965 0.9635
-4.1845 8.7063 -1.1474 0.9618
-4.9887 8.7087 -1.1922 0.9604
-6.3326 8.7129 -1.2794 0.9575
-6.8276 8.7145 -1.3150 0.9564
-7.9089 8.7182 -1.3982 0.9537
-8.4972 8.7131 -1.4457 0.9522
-9.1358 8.7154 -1.4998 0.9504
-12.7188 8.3583 -1.8078 0.9405
-13.7844 8.3624 -1.9151 0.9371
-14.9863 8.3671 -2.0388 0.9332
-16.3461 8.3674 -2.1813 0.9287
-20.8570 7.9661 -2.6521 0.9140
-8.3720 2.5225 -1.0386 0.9654
-24.0221 4.4801 -2.9027 0.9063
-24.3387 3.6358 -2.9232 0.9056
-25.0916 1.0045 -2.9829 0.9038
-25.4177 -0.8180 -3.0208 0.9026
-25.5249 -1.7451 -3.0391 0.9021
-25.6230 -3.6226 -3.0739 0.9010
-25.5336 -5.5126 -3.1029 0.9001
-25.0688 -8.3328 -3.1380 0.8991
-24.5074 -10.1626 -3.1515 0.8986
-24.1583 -11.0556 -3.1559 0.8985
-20.3470 -14.2100 -2.9480 0.9049
-19.7705 -14.8970 -2.9405 0.9051
-18.6526 -16.2910 -2.9418 0.9051
-18.0688 -16.9687 -2.9444 0.9050
-17.4483 -17.6132 -2.9450 0.9050
-16.1374 -18.8313 -2.9459 0.9049
-15.4441 -19.3973 -2.9453 0.9049
-14.7260 -19.9311 -2.9437 0.9050
-13.2074 -20.8734 -2.9341 0.9053
2.4423 8.6957 -1.2798 0.9642
2.1070 8.6961 -1.2678 0.9645
1.7776 8.6965 -1.2577 0.9648
1.4529 8.6969 -1.2493 0.9650
0.8143 8.6979 -1.2378 0.9653
0.4986 8.6984 -1.2345 0.9654
0.1841 8.6989 -1.2328 0.9655
-0.1299 8.6995 -1.2328 0.9655
-0.4443 8.7001 -1.2343 0.9654
-1.0775 8.7014 -1.2423 0.9652
-1.3981 8.7021 -1.2488 0.9650
-4.1866 8.7108 -1.3694 0.9617
-4.5813 8.7121 -1.3947 0.9610
-4.9914 8.7134 -1.4228 0.9602
-5.4190 8.7148 -1.4540 0.9594
-6.3362 8.7180 -1.5270 0.9574
-6.8317 8.7197 -1.5695 0.9562
-7.3562 8.7217 -1.6166 0.9550
-7.9139 8.7237 -1.6689 0.9535
-8.5028 8.7189 -1.7256 0.9520
-9.8321 8.7241 -1.8624 0.9483
-10.9130 8.3578 -1.9476 0.9460
-13.7970 8.3700 -2.2865 0.9369
-16.2515 8.3190 -2.5868 0.9289
-16.9305 7.1767 -2.6055 0.9284
-17.2382 6.5839 -2.6146 0.9282
-17.5238 5.9778 -2.6234 0.9279
-8.3752 2.5235 -1.2394 0.9653
-19.7084 3.6756 -2.8406 0.9222
-20.2943 1.5475 -2.8838 0.9211
-20.4337 0.8180 -2.8976 0.9207
-20.6250 -0.6638 -2.9239 0.9200
-20.5456 -4.4357 -2.9782 0.9186
-20.2851 -5.9390 -2.9948 0.9182
-20.0863 -6.6766 -2.9991 0.9180
-19.8642 -7.4089 -3.0039 0.9179
-19.6059 -8.1300 -3.0073 0.9178
-19.3255 -8.8440 -3.0113 0.9177
-18.9975 -9.5374 -3.0119 0.9177
-18.6320 -10.2118 -3.0105 0.9177
-17.8271 -11.5161 -3.0071 0.9178
-16.8951 -12.7304 -2.9974 0.9181
-16.3904 -13.3039 -2.9911 0.9183
-15.3273 -14.3941 -2.9792 0.9186
-14.7040 -14.8430 -2.9603 0.9191
-14.0290 -15.2230 -2.9332 0.9198
-13.3752 -15.6080 -2.9124 0.9203
-10.9017 -17.2295 -2.8889 0.9209
3.1212 8.6580 -1.5162 0.9634
2.4435 8.7000 -1.4887 0.9640
1.7784 8.7007 -1.4630 0.9646
0.4988 8.7025 -1.4360 0.9653
-0.7602 8.7049 -1.4395 0.9652
-1.0780 8.7055 -1.4451 0.9651
-1.7233 8.7071 -1.4622 0.9647
-2.0525 8.7079 -1.4738 0.9644
-2.3875 8.7088 -1.4876 0.9641
-2.7296 8.7109 -1.5038 0.9637
-3.0793 8.7119 -1.5222 0.9632
-4.1888 8.7154 -1.5930 0.9616
-4.5838 8.7167 -1.6224 0.9609
-4.9941 8.7181 -1.6552 0.9601
-5.4220 8.7197 -1.6915 0.9592
-6.3400 8.7231 -1.7765 0.9572
-7.3607 8.7271 -1.8808 0.9548
-8.5085 8.7246 -2.0076 0.9518
-9.8391 8.7303 -2.1670 0.9481
-10.9215 8.3644 -2.2662 0.9458
-12.7408 8.3727 -2.5116 0.9401
-13.2581 8.0431 -2.5546 0.9391
-14.4233 6.1139 -2.5807 0.9385
-14.6730 5.6042 -2.5875 0.9383
-14.9036 5.0840 -2.5941 0.9382
-8.3785 2.5245 -1.4416 0.9651
-17.0131 1.9169 -2.8205 0.9329
-17.1375 1.3068 -2.8314 0.9327
-17.3103 0.0678 -2.8517 0.9322
-17.3577 -0.5586 -2.8610 0.9320
-17.3828 -1.1885 -2.8703 0.9318
-16.9612 -4.9658 -2.9115 0.9309
-16.1575 -7.3942 -2.9273 0.9305
-15.8743 -7.9694 -2.9262 0.9305
-14.9125 -9.6333 -2.9247 0.9306
-14.5391 -10.1540 -2.9215 0.9306
-14.1582 -10.6681 -2.9204 0.9307
-12.8924 -12.1075 -2.9136 0.9308
-12.4327 -12.5502 -2.9102 0.9309
-11.4766 -13.3926 -2.9056 0.9310
2.4447 8.7043 -1.6994 0.9639
1.7793 8.7050 -1.6700 0.9645
1.1332 8.7057 -1.6501 0.9649
0.8150 8.7062 -1.6436 0.9650
-0.1300 8.7078 -1.6369 0.9652
-0.4447 8.7084 -1.6390 0.9651
-1.3994 8.7105 -1.6582 0.9647
-2.0535 8.7122 -1.6824 0.9642
-3.0809 8.7163 -1.7377 0.9631
-3.8095 8.7187 -1.7884 0.9620
-5.4251 8.7246 -1.9310 0.9590
-5.8731 8.7263 -1.9771 0.9581
-7.3653 8.7325 -2.1472 0.9546
-7.9241 8.7350 -2.2167 0.9531
-9.8462 8.7366 -2.4742 0.9478
-10.3318 8.5214 -2.5173 0.9470
-10.6583 8.1628 -2.5234 0.9468
-10.9720 7.7914 -2.5294 0.9467
-11.2723 7.4077 -2.5353 0.9466
-12.3290 5.7595 -2.5578 0.9461
-12.5547 5.3217 -2.5630 0.9460
-12.7639 4.8751 -2.5682 0.9459
-8.3818 2.5255 -1.6454 0.9650
-13.3165 3.4935 -2.5877 0.9455
-13.4737 3.0197 -2.5954 0.9454
-14.6062 2.1819 -2.7759 0.9417
-14.7233 1.6589 -2.7849 0.9415
-14.8199 1.1300 -2.7936 0.9413
-14.8959 0.5963 -2.8021 0.9411
-14.9511 0.0586 -2.8102 0.9410
-14.9852 -0.4823 -2.8181 0.9408
-14.9980 -1.0254 -2.8256 0.9406
-14.9504 -2.1137 -2.8380 0.9404
-14.7254 -3.7400 -2.8557 0.9400
-14.6033 -4.2755 -2.8601 0.9399
-14.4463 -4.8019 -2.8614 0.9399
-14.2778 -5.3254 -2.8643 0.9399
-13.6521 -6.8538 -2.8713 0.9397
-13.3901 -7.3389 -2.8700 0.9397
-12.5189 -8.7430 -2.8701 0.9397
-12.2016 -9.1938 -2.8716 0.9397
-11.1208 -10.4438 -2.8675 0.9398
-10.7371 -10.8385 -2.8676 0.9398
-8.6051 -12.5717 -2.8635 0.9399
-8.1410 -12.8663 -2.8618 0.9399
3.1218 9.7487 -2.1638 0.9590
2.4459 8.7087 -1.9121 0.9637
2.1101 8.7089 -1.8942 0.9640
1.7802 8.7092 -1.8790 0.9643
1.1337 8.7099 -1.8566 0.9647
0.4993 8.7108 -1.8443 0.9650
0.1844 8.7114 -1.8418 0.9650
-0.4449 8.7126 -1.8441 0.9650
-0.7610 8.7132 -1.8488 0.9649
-1.4001 8.7147 -1.8657 0.9646
-2.0545 8.7165 -1.8930 0.9640
-3.0824 8.7208 -1.9552 0.9629
-3.4417 8.7220 -1.9820 0.9624
-4.1933 8.7247 -2.0462 0.9612
-5.4282 8.7295 -2.1729 0.9588
-6.3475 8.7334 -2.2821 0.9568
-6.8441 8.7356 -2.3458 0.9556
-7.9293 8.7407 -2.4946 0.9529
-8.2574 8.4672 -2.5000 0.9528
-8.5746 8.1800 -2.5050 0.9527
-9.1778 7.5696 -2.5147 0.9525
-9.4560 7.2420 -2.5176 0.9525
-9.7257 6.9064 -2.5214 0.9524
-9.9879 6.5636 -2.5263 0.9523
-10.2376 6.2107 -2.5311 0.9522
-10.9075 5.0954 -2.5448 0.9520
-11.1031 4.7065 -2.5491 0.9519
-11.2841 4.3099 -2.5533 0.9518
-8.1846 2.7920 -1.8279 0.9653
-8.2807 2.4950 -1.8281 0.9653
-11.7558 3.0841 -2.5690 0.9515
-11.8893 2.6646 -2.5755 0.9514
-13.1081 0.5248 -2.7730 0.9478
-13.1512 0.0516 -2.7799 0.9477
-13.1759 -0.4240 -2.7866 0.9475
-13.1821 -0.9013 -2.7929 0.9474
-13.1632 -1.3786 -2.7977 0.9473
-13.0751 -2.3326 -2.8075 0.9471
-12.8080 -3.7498 -2.8210 0.9469
-12.6819 -4.2154 -2.8249 0.9468
-12.3528 -5.1224 -2.8267 0.9468
-12.1705 -5.5696 -2.8292 0.9467
-11.9724 -6.0106 -2.8318 0.9467
-11.7487 -6.4392 -2.8320 0.9467
-11.0050 -7.6858 -2.8374 0.9466
-10.1039 -8.8247 -2.8357 0.9466
-8.3555 -10.4942 -2.8355 0.9466
-7.9733 -10.7915 -2.8362 0.9466
3.1198 8.6542 -2.1621 0.9629
3.1212 9.7471 -2.4054 0.9588
1.4557 8.7138 -2.0763 0.9643
1.1343 8.7142 -2.0653 0.9645
-0.4451 8.7168 -2.0513 0.9648
-0.7613 8.7175 -2.0566 0.9647
-1.0796 8.7182 -2.0646 0.9645
-1.4008 8.7190 -2.0754 0.9644
-1.7258 8.7199 -2.0891 0.9641
-2.0555 8.7208 -2.1058 0.9639
-2.3910 8.7219 -2.1255 0.9635
-3.8135 8.7279 -2.2385 0.9616
-4.1956 8.7294 -2.2763 0.9610
-5.0025 8.7327 -2.3653 0.9595
-6.8417 8.1118 -2.4940 0.9573
-7.1413 7.8721 -2.4980 0.9573
-7.4324 7.6213 -2.5019 0.9572
-7.9871 7.0870 -2.5096 0.9571
-8.2478 6.8026 -2.5127 0.9570
-8.4953 6.5062 -2.5149 0.9570
-9.1801 5.5692 -2.5235 0.9568
-9.3895 5.2424 -2.5274 0.9568
-9.5869 4.9075 -2.5312 0.9567
-9.7719 4.5649 -2.5349 0.9566
-10.5125 2.7579 -2.5543 0.9563
-10.7297 2.0011 -2.5652 0.9561
-10.8897 1.2269 -2.5755 0.9560
-11.7261 0.0460 -2.7559 0.9530
-11.7456 -0.8030 -2.7669 0.9528
-11.7308 -1.2286 -2.7721 0.9527
-11.6995 -1.6540 -2.7770 0.9526
-11.5852 -2.5012 -2.7855 0.9525
-11.4951 -2.9195 -2.7874 0.9524
-11.1513 -4.1592 -2.7972 0.9523
-10.8367 -4.9593 -2.8009 0.9522
-10.4687 -5.7377 -2.8057 0.9521
-10.2634 -6.1168 -2.8080 0.9521
-9.2838 -7.5355 -2.8102 0.9521
-9.0076 -7.8671 -2.8107 0.9520
-7.4533 -9.3611 -2.8122 0.9520
-6.7591 -9.8747 -2.8124 0.9520
-6.3952 -10.1073 -2.8110 0.9520
2.8885 9.0202 -2.4523 0.9616
1.7819 8.7179 -2.3039 0.9639
1.4564 8.7182 -2.2886 0.9641
0.8162 8.7189 -2.2673 0.9645
0.4998 8.7194 -2.2613 0.9646
0.1846 8.7199 -2.2582 0.9646
-0.4454 8.7211 -2.2610 0.9646
-0.7617 8.7218 -2.2668 0.9645
-1.0801 8.7225 -2.2757 0.9643
-1.7267 8.7243 -2.3027 0.9639
-2.0566 8.7252 -2.3210 0.9636
-2.7351 8.7286 -2.3683 0.9629
-3.4453 8.7312 -2.4303 0.9620
-3.8156 8.7326 -2.4674 0.9614
-4.1360 8.6054 -2.4721 0.9613
-4.4475 8.4577 -2.4742 0.9613
-4.7562 8.3029 -2.4775 0.9612
-5.0596 8.1369 -2.4809 0.9612
-5.3571 7.9596 -2.4842 0.9611
-5.6483 7.7714 -2.4875 0.9611
-5.9328 7.5725 -2.4908 0.9610
-6.2103 7.3631 -2.4940 0.9610
-6.4779 7.1407 -2.4963 0.9609
-6.7345 6.9056 -2.4975 0.9609
-6.9877 6.6661 -2.5005 0.9609
-7.2336 6.4184 -2.5039 0.9608
-7.4705 6.1615 -2.5073 0.9608
-7.6981 5.8957 -2.5106 0.9607
-8.3213 5.0482 -2.5200 0.9606
-8.6839 4.4452 -2.5259 0.9605
-9.1425 3.4919 -2.5339 0.9604
-8.2340 2.4810 -2.2266 0.9651
-9.6028 2.1521 -2.5480 0.9602
-9.6920 1.8075 -2.5527 0.9601
-9.7682 1.4592 -2.5572 0.9600
-9.8314 1.1077 -2.5616 0.9599
-10.5451 0.4222 -2.7325 0.9573
-10.5739 0.0415 -2.7378 0.9573
-10.5682 -1.1069 -2.7513 0.9570
-10.4324 -2.2523 -2.7634 0.9569
-10.3577 -2.6307 -2.7669 0.9568
-10.1608 -3.3774 -2.7723 0.9567
-10.0432 -3.7459 -2.7754 0.9567
-9.9113 -4.1099 -2.7781 0.9566
-9.2455 -5.5102 -2.7867 0.9565
-9.0396 -5.8395 -2.7864 0.9565
-8.8272 -6.1648 -2.7877 0.9565
-8.3662 -6.7907 -2.7899 0.9565
-8.1168 -7.0892 -2.7903 0.9564
-7.5908 -7.6625 -2.7926 0.9564
-7.3124 -7.9347 -2.7938 0.9564
-6.0952 -8.9048 -2.7940 0.9564
2.9465 8.1733 -2.4596 0.9645
2.6461 8.2635 -2.4563 0.9646
2.0443 8.4369 -2.4575 0.9646
1.7391 8.5081 -2.4584 0.9645
-0.4431 8.6777 -2.4598 0.9645
-0.7553 8.6485 -2.4577 0.9646
-1.3790 8.5833 -2.4610 0.9645
-1.9979 8.4764 -2.4654 0.9644
-2.6053 8.3142 -2.4665 0.9644
-2.9047 8.2180 -2.4675 0.9644
-3.4974 8.0044 -2.4729 0.9643
-3.7881 7.8815 -2.4755 0.9643
-4.3560 7.6043 -2.4809 0.9642
-4.6317 7.4487 -2.4831 0.9642
-5.1614 7.1015 -2.4853 0.9642
-5.4208 6.9189 -2.4883 0.9641
-5.6737 6.7268 -2.4912 0.9641
-5.9197 6.5254 -2.4942 0.9640
-6.3895 6.0955 -2.4999 0.9640
-6.8277 5.6313 -2.5055 0.9639
-7.0341 5.3872 -2.5082 0.9638
-7.2316 5.1352 -2.5109 0.9638
-7.7676 4.3368 -2.5185 0.9637
-7.9265 4.0575 -2.5209 0.9637
-8.0752 3.7724 -2.5232 0.9636
-8.2134 3.4816 -2.5254 0.9636
-8.3408 3.1857 -2.5276 0.9636
-8.6567 2.2711 -2.5336 0.9635
-8.8311 1.6470 -2.5431 0.9633
-8.9554 1.0090 -2.5513 0.9632
-9.6204 0.0377 -2.7235 0.9608
-9.6288 -0.6583 -2.7322 0.9607
-9.5839 -1.3550 -2.7401 0.9606
-9.4847 -2.0477 -2.7469 0.9605
-9.4160 -2.3915 -2.7502 0.9604
-9.3343 -2.7328 -2.7534 0.9604
-9.1320 -3.4061 -2.7592 0.9603
-9.0122 -3.7371 -2.7620 0.9603
-8.3999 -5.0062 -2.7682 0.9602
-8.0272 -5.6060 -2.7718 0.9601
-7.1475 -6.7123 -2.7758 0.9601
-5.8334 -7.8952 -2.7790 0.9600
-5.5442 -8.0999 -2.7787 0.9600
-5.2461 -8.2912 -2.7776 0.9600
2.7154 7.5325 -2.4628 0.9670
2.4414 7.6241 -2.4623 0.9671
1.6026 7.8403 -2.4614 0.9671
0.1693 7.9957 -2.4598 0.9671
-0.4083 7.9965 -2.4628 0.9670
-1.2700 7.9054 -2.4627 0.9670
-1.5557 7.8608 -2.4647 0.9670
-1.8399 7.8059 -2.4667 0.9670
-2.1221 7.7408 -2.4688 0.9670
-2.6793 7.5803 -2.4729 0.9669
-3.2199 7.3694 -2.4736 0.9669
-3.7494 7.1301 -2.4778 0.9668
-4.2623 6.8548 -2.4827 0.9668
-5.2246 6.1944 -2.4925 0.9667
-5.8745 5.6042 -2.4972 0.9666
-6.8178 4.4804 -2.5093 0.9664
-7.1362 3.9843 -2.5139 0.9664
-7.2817 3.7274 -2.5161 0.9663
-7.4177 3.4652 -2.5182 0.9663
-7.5441 3.1979 -2.5203 0.9663
-7.6606 2.9259 -2.5222 0.9663
-8.0305 1.7998 -2.5313 0.9661
-8.1643 1.2196 -2.5390 0.9660
-8.2549 0.6295 -2.5464 0.9659
-8.2834 0.3316 -2.5498 0.9659
-8.3004 0.0325 -2.5531 0.9659
-8.8080 -0.9225 -2.7240 0.9636
-8.7805 -1.2414 -2.7276 0.9636
-8.7410 -1.5593 -2.7310 0.9635
-8.5506 -2.5034 -2.7404 0.9634
-8.4637 -2.8133 -2.7433 0.9634
-7.8496 -4.3022 -2.7532 0.9632
-7.6945 -4.5857 -2.7551 0.9632
-7.3499 -5.1331 -2.7574 0.9632
-7.1637 -5.3978 -2.7589 0.9632
-6.9677 -5.6556 -2.7603 0.9631
-6.3240 -6.3838 -2.7639 0.9631
-5.8099 -6.7798 -2.7463 0.9633
-5.2987 -7.1716 -2.7426 0.9634
-5.0384 -7.3609 -2.7436 0.9634
-4.7712 -7.5407 -2.7446 0.9633
2.5155 6.9778 -2.4656 0.9692
2.2622 7.0647 -2.4658 0.9692
2.0047 7.1376 -2.4644 0.9692
1.7451 7.2020 -2.4633 0.9692
1.2218 7.3135 -2.4647 0.9692
0.4243 7.4021 -2.4645 0.9692
-0.1106 7.4100 -2.4634 0.9692
-0.3781 7.4054 -2.4648 0.9692
-0.6455 7.3911 -2.4662 0.9692
-0.9122 7.3673 -2.4676 0.9692
-1.1782 7.3339 -2.4691 0.9692
-1.4420 7.2861 -2.4689 0.9692
-1.7032 7.2264 -2.4679 0.9692
-1.9644 7.1656 -2.4698 0.9692
-2.2234 7.0955 -2.4717 0.9691
-2.7336 6.9275 -2.4755 0.9691
-2.9841 6.8297 -2.4775 0.9691
-3.2312 6.7229 -2.4794 0.9690
-3.4741 6.6065 -2.4812 0.9690
-3.7099 6.4763 -2.4810 0.9690
-3.9428 6.3409 -2.4820 0.9690
-4.1729 6.2001 -2.4843 0.9690
-4.6175 5.8937 -2.4888 0.9689
-5.0396 5.5553 -2.4932 0.9689
-5.2413 5.3745 -2.4954 0.9689
-5.6250 4.9911 -2.4997 0.9688
-5.8063 4.7889 -2.5018 0.9688
-5.9802 4.5800 -2.5039 0.9687
-6.3050 4.1434 -2.5079 0.9687
-6.5975 3.6835 -2.5117 0.9687
-6.7311 3.4456 -2.5136 0.9686
-6.8560 3.2028 -2.5154 0.9686
-6.9719 2.9553 -2.5171 0.9686
-7.1764 2.4480 -2.5204 0.9685
-7.2646 2.1889 -2.5220 0.9685
-7.3432 1.9265 -2.5235 0.9685
-7.4800 1.3950 -2.5293 0.9684
-7.5819 0.8542 -2.5362 0.9684
-8.1202 -0.8505 -2.7140 0.9662
-8.0940 -1.1443 -2.7172 0.9661
-8.0572 -1.4374 -2.7206 0.9661
-8.0095 -1.7292 -2.7237 0.9661
-7.9506 -2.0193 -2.7267 0.9660
-7.8808 -2.3073 -2.7296 0.9660
-7.8000 -2.5927 -2.7323 0.9659
-7.7079 -2.8749 -2.7346 0.9659
-7.6027 -3.1526 -2.7358 0.9659
-7.4902 -3.4278 -2.7381 0.9659
-6.9358 -4.4804 -2.7447 0.9658
-6.0340 -5.6666 -2.7515 0.9657
-5.3895 -6.2893 -2.7532 0.9657
-5.1606 -6.4816 -2.7540 0.9657
-4.9245 -6.6652 -2.7547 0.9657
-4.6811 -6.8390 -2.7548 0.9657
-4.4296 -7.0008 -2.7538 0.9657
1.6241 6.7028 -2.4663 0.9711
1.3811 6.7568 -2.4662 0.9711
1.1368 6.8042 -2.4670 0.9711
0.1461 6.9008 -2.4683 0.9711
-0.1029 6.8960 -2.4663 0.9711
-0.3517 6.8884 -2.4666 0.9711
-0.8485 6.8524 -2.4692 0.9711
-1.3420 6.7809 -2.4719 0.9711
-2.0673 6.5975 -2.4724 0.9711
-2.3057 6.5233 -2.4742 0.9710
-2.5414 6.4406 -2.4760 0.9710
-2.7742 6.3493 -2.4778 0.9710
-3.2297 6.1417 -2.4815 0.9710
-3.4517 6.0256 -2.4833 0.9709
-3.8830 5.7695 -2.4870 0.9709
-4.0913 5.6292 -2.4886 0.9709
-4.4887 5.3220 -2.4897 0.9709
-4.6817 5.1608 -2.4918 0.9708
-5.3926 4.4477 -2.4997 0.9707
-5.5539 4.2535 -2.5017 0.9707
-5.7080 4.0534 -2.5035 0.9707
-5.9942 3.6364 -2.5072 0.9707
-6.2495 3.1991 -2.5107 0.9706
-6.4724 2.7436 -2.5140 0.9706
-6.6616 2.2725 -2.5170 0.9705
-6.8159 1.7881 -2.5199 0.9705
-6.8796 1.5419 -2.5212 0.9705
-6.9387 1.2941 -2.5241 0.9705
-7.1011 0.0279 -2.5394 0.9703
-7.1051 -0.2287 -2.5421 0.9703
-7.0845 -0.7420 -2.5473 0.9702
-7.4656 -1.3319 -2.7119 0.9683
-7.3655 -1.8707 -2.7176 0.9682
-6.8244 -3.4260 -2.7307 0.9681
-6.7006 -3.6725 -2.7325 0.9681
-6.5666 -3.9136 -2.7337 0.9680
-6.4250 -4.1505 -2.7353 0.9680
-6.2745 -4.3820 -2.7368 0.9680
-5.9477 -4.8276 -2.7394 0.9680
-5.3979 -5.4489 -2.7428 0.9679
-4.9922 -5.8256 -2.7436 0.9679
-4.7801 -6.0036 -2.7443 0.9679
-4.5613 -6.1736 -2.7449 0.9679
2.1860 6.0638 -2.4701 0.9728
1.9659 6.1393 -2.4704 0.9728
1.5182 6.2659 -2.4707 0.9728
1.2899 6.3104 -2.4683 0.9728
1.0616 6.3545 -2.4689 0.9728
0.8319 6.3905 -2.4696 0.9728
0.6009 6.4182 -2.4703 0.9728
-0.3287 6.4371 -2.4700 0.9728
-0.5606 6.4192 -2.4693 0.9728
-1.0231 6.3686 -2.4719 0.9727
-1.2529 6.3309 -2.4732 0.9727
-1.7081 6.2307 -2.4758 0.9727
-2.3726 6.0128 -2.4771 0.9727
-2.8032 5.8324 -2.4798 0.9727
-3.0139 5.7314 -2.4815 0.9726
-3.2210 5.6228 -2.4833 0.9726
-3.6231 5.3833 -2.4867 0.9726
-3.8176 5.2526 -2.4884 0.9726
-4.3717 4.8191 -2.4935 0.9725
-4.5458 4.6613 -2.4951 0.9725
-4.8766 4.3271 -2.4984 0.9725
-5.1811 3.9680 -2.5009 0.9724
-5.3235 3.7804 -2.5021 0.9724
-5.4594 3.5877 -2.5035 0.9724
-5.8262 2.9824 -2.5082 0.9724
-6.0349 2.5581 -2.5119 0.9723
-6.1270 2.3401 -2.5134 0.9723
-6.3537 1.6669 -2.5172 0.9723
-6.4633 1.2054 -2.5196 0.9722
-6.5115 0.9727 -2.5230 0.9722
-6.5500 0.7380 -2.5259 0.9722
-6.5798 0.5017 -2.5288 0.9721
-6.6104 -0.4519 -2.5391 0.9720
-6.5957 -0.6908 -2.5414 0.9720
-6.5722 -0.9292 -2.5436 0.9720
-6.8530 -1.7405 -2.7096 0.9702
-6.6420 -2.4773 -2.7166 0.9701
-6.5533 -2.7175 -2.7187 0.9701
-6.1096 -3.6412 -2.7256 0.9700
-5.9776 -3.8615 -2.7271 0.9700
-5.8374 -4.0767 -2.7285 0.9700
-5.6890 -4.2867 -2.7298 0.9699
-5.1993 -4.8827 -2.7334 0.9699
-5.0214 -5.0689 -2.7343 0.9699
-4.8353 -5.2469 -2.7343 0.9699
-4.4469 -5.5851 -2.7359 0.9699
-4.0339 -5.8934 -2.7368 0.9699
-3.8175 -6.0333 -2.7360 0.9699
2.0484 5.6822 -2.4721 0.9742
1.4228 5.8719 -2.4727 0.9742
1.2097 5.9182 -2.4722 0.9742
0.9947 5.9542 -2.4707 0.9742
0.1279 6.0422 -2.4735 0.9742
-0.0902 6.0447 -2.4742 0.9742
-0.9584 5.9659 -2.4730 0.9742
-1.3876 5.8871 -2.4755 0.9742
-1.5999 5.8362 -2.4767 0.9742
-1.8104 5.7776 -2.4780 0.9742
-2.0187 5.7115 -2.4793 0.9742
-2.2247 5.6379 -2.4806 0.9741
-2.8221 5.3667 -2.4816 0.9741
-3.2059 5.1558 -2.4848 0.9741
-3.3921 5.0400 -2.4864 0.9741
-3.5740 4.9174 -2.4880 0.9741
-3.7515 4.7884 -2.4896 0.9741
-3.9243 4.6528 -2.4912 0.9740
-4.0923 4.5110 -2.4927 0.9740
-4.5642 4.0499 -2.4974 0.9740
-4.7103 3.8850 -2.4989 0.9740
-4.8503 3.7147 -2.5004 0.9739
-5.1115 3.3591 -2.5033 0.9739
-5.2324 3.1743 -2.5048 0.9739
-5.3465 2.9851 -2.5062 0.9739
-5.4537 2.7917 -2.5075 0.9739
-5.5539 2.5945 -2.5089 0.9739
-5.6468 2.3937 -2.5102 0.9738
-5.8105 1.9821 -2.5127 0.9738
-5.8810 1.7720 -2.5138 0.9738
-5.9439 1.5594 -2.5150 0.9738
-5.9989 1.3445 -2.5161 0.9738
-6.0879 0.9094 -2.5193 0.9737
-6.1807 0.0242 -2.5296 0.9736
-6.1832 -0.1990 -2.5319 0.9736
-6.1118 -1.0903 -2.5409 0.9735
-6.4013 -1.6258 -2.7031 0.9719
-6.3440 -1.8574 -2.7054 0.9718
-6.2780 -2.0868 -2.7076 0.9718
-6.2033 -2.3137 -2.7097 0.9718
-6.0283 -2.7588 -2.7133 0.9718
-5.9289 -2.9765 -2.7152 0.9717
-5.5821 -3.6060 -2.7199 0.9717
-5.3126 -4.0030 -2.7225 0.9717
-3.9622 -5.3627 -2.7289 0.9716
-3.5648 -5.6340 -2.7287 0.9716
1.9250 5.3398 -2.4738 0.9755
1.5351 5.4656 -2.4742 0.9755
0.7324 5.6265 -2.4728 0.9755
0.5291 5.6508 -2.4735 0.9755
0.3249 5.6678 -2.4742 0.9755
0.1202 5.6774 -2.4749 0.9755
-0.0848 5.6797 -2.4756 0.9755
-0.2898 5.6747 -2.4763 0.9755
-0.9009 5.6079 -2.4753 0.9755
-1.3035 5.5306 -2.4764 0.9755
-1.7007 5.4274 -2.4787 0.9755
-1.8963 5.3651 -2.4800 0.9755
-2.0897 5.2958 -2.4812 0.9755
-2.2806 5.2196 -2.4824 0.9755
-2.4687 5.1365 -2.4837 0.9754
-3.0125 4.8448 -2.4864 0.9754
-3.1854 4.7329 -2.4863 0.9754
-3.6846 4.3685 -2.4906 0.9754
-3.8421 4.2352 -2.4921 0.9754
-3.9947 4.0963 -2.4936 0.9753
-4.1424 3.9517 -2.4950 0.9753
-4.4216 3.6469 -2.4979 0.9753
-4.5529 3.4869 -2.4993 0.9753
-4.6783 3.3222 -2.5007 0.9753
-4.7978 3.1529 -2.5020 0.9753
-5.0180 2.8017 -2.5047 0.9752
-5.1184 2.6201 -2.5060 0.9752
-5.2123 2.4349 -2.5072 0.9752
-5.2993 2.2463 -2.5085 0.9752
-5.4526 1.8600 -2.5108 0.9752
-5.5186 1.6628 -2.5119 0.9752
-5.6289 1.2615 -2.5140 0.9751
-5.6730 1.0580 -2.5150 0.9751
-5.7855 0.2316 -2.5234 0.9751
-5.7956 0.0227 -2.5258 0.9750
-5.7980 -0.1866 -2.5282 0.9750
-5.7927 -0.3960 -2.5304 0.9750
-5.7796 -0.6053 -2.5326 0.9750
-5.7585 -0.8141 -2.5346 0.9749
-5.5978 -1.6389 -2.5420 0.9749
-5.8824 -1.9553 -2.7016 0.9733
-5.7343 -2.3779 -2.7055 0.9733
-5.2297 -3.3783 -2.7134 0.9732
-5.1069 -3.5666 -2.7147 0.9732
-4.9773 -3.7503 -2.7160 0.9732
-4.8408 -3.9292 -2.7172 0.9732
-4.5481 -4.2712 -2.7192 0.9731
-4.3921 -4.4337 -2.7199 0.9731
-3.7118 -5.0238 -2.7222 0.9731
-3.5285 -5.1551 -2.7226 0.9731
1.6310 5.0932 -2.4755 0.9767
1.0713 5.2412 -2.4762 0.9767
0.8816 5.2770 -2.4765 0.9767
0.4984 5.3232 -2.4748 0.9767
0.3060 5.3392 -2.4755 0.9767
0.1132 5.3481 -2.4761 0.9767
-0.0799 5.3502 -2.4768 0.9767
-0.2729 5.3454 -2.4775 0.9767
-0.4658 5.3336 -2.4783 0.9767
-1.6017 5.1113 -2.4794 0.9767
-1.7859 5.0526 -2.4806 0.9767
-2.3247 4.8369 -2.4841 0.9766
-2.8379 4.5639 -2.4877 0.9766
-3.0022 4.4607 -2.4889 0.9766
-3.1627 4.3516 -2.4901 0.9766
-3.3193 4.2367 -2.4913 0.9766
-3.6173 3.9875 -2.4921 0.9765
-3.7602 3.8557 -2.4929 0.9765
-4.0328 3.5784 -2.4957 0.9765
-4.2850 3.2817 -2.4983 0.9765
-4.4029 3.1266 -2.4996 0.9765
-4.5152 2.9672 -2.5009 0.9765
-4.8164 2.4655 -2.5046 0.9764
-4.9046 2.2912 -2.5058 0.9764
-4.9864 2.1137 -2.5069 0.9764
-5.0617 1.9333 -2.5080 0.9764
-5.1303 1.7501 -2.5091 0.9764
-5.1923 1.5645 -2.5102 0.9764
-5.2475 1.3767 -2.5112 0.9764
-5.3379 0.9955 -2.5134 0.9764
-5.3722 0.8026 -2.5143 0.9763
-5.4406 0.2178 -2.5204 0.9763
-5.4498 0.0214 -2.5226 0.9763
-5.4465 -0.3724 -2.5270 0.9762
-5.4337 -0.5691 -2.5289 0.9762
-5.3863 -0.9609 -2.5326 0.9762
-5.3517 -1.1554 -2.5343 0.9762
-5.3100 -1.3487 -2.5360 0.9761
-5.3883 -2.2344 -2.7001 0.9746
-5.3076 -2.4289 -2.7019 0.9746
-5.1245 -2.8086 -2.7050 0.9746
-4.7981 -3.3509 -2.7090 0.9745
-4.6762 -3.5235 -2.7102 0.9745
-4.4133 -3.8546 -2.7123 0.9745
-4.1259 -4.1649 -2.7137 0.9745
-3.9741 -4.3123 -2.7145 0.9745
-3.6544 -4.5899 -2.7158 0.9745
-3.4870 -4.7195 -2.7162 0.9745
-3.3148 -4.8429 -2.7165 0.9745
1.7123 4.7499 -2.4767 0.9778
1.1893 4.9083 -2.4773 0.9778
0.8324 4.9824 -2.4778 0.9777
0.6521 5.0098 -2.4782 0.9777
0.2890 5.0407 -2.4766 0.9778
0.1069 5.0491 -2.4773 0.9778
-0.4397 5.0352 -2.4793 0.9777
-0.6213 5.0176 -2.4800 0.9777
-0.8022 4.9933 -2.4808 0.9777
-1.1606 4.9240 -2.4815 0.9777
-1.6856 4.7689 -2.4811 0.9777
-2.0269 4.6391 -2.4833 0.9777
-2.1940 4.5650 -2.4844 0.9777
-2.5198 4.3988 -2.4867 0.9777
-2.6781 4.3070 -2.4878 0.9777
-3.2759 3.8840 -2.4924 0.9776
-3.8076 3.3785 -2.4969 0.9776
-4.0449 3.0978 -2.4992 0.9776
-4.1559 2.9512 -2.5003 0.9775
-4.2615 2.8005 -2.5013 0.9775
-4.3617 2.6461 -2.5024 0.9775
-4.5450 2.3265 -2.5045 0.9775
-4.6278 2.1619 -2.5056 0.9775
-4.7755 1.8239 -2.5075 0.9775
-4.9956 1.1196 -2.5113 0.9774
-5.0345 0.9389 -2.5121 0.9774
-5.1132 0.3899 -2.5154 0.9774
-5.1284 0.2053 -2.5176 0.9774
-5.1330 -0.3509 -2.5238 0.9773
-5.1016 -0.7212 -2.5273 0.9773
-5.0756 -0.9055 -2.5290 0.9773
-5.0433 -1.0888 -2.5308 0.9773
-5.0041 -1.2709 -2.5326 0.9773
-4.9054 -1.6305 -2.5357 0.9772
-4.8461 -1.8075 -2.5371 0.9772
-4.7083 -2.1546 -2.5399 0.9772
-4.9164 -2.4682 -2.6984 0.9758
-4.8266 -2.6454 -2.6999 0.9758
-4.7304 -2.8192 -2.7012 0.9758
-4.5192 -3.1561 -2.7038 0.9757
-4.4042 -3.3185 -2.7050 0.9757
-4.2832 -3.4766 -2.7060 0.9757
-4.1564 -3.6301 -2.7069 0.9757
-3.8858 -3.9226 -2.7084 0.9757
-3.4417 -4.3226 -2.7104 0.9757
-3.2839 -4.4447 -2.7108 0.9757
-3.1218 -4.5608 -2.7111 0.9757
1.2918 4.5993 -2.4784 0.9787
0.6169 4.7393 -2.4794 0.9787
0.2733 4.7688 -2.4780 0.9787
0.1011 4.7761 -2.4783 0.9787
-0.2437 4.7734 -2.4796 0.9787
-0.4159 4.7628 -2.4802 0.9787
-0.9289 4.6939 -2.4823 0.9787
-1.0981 4.6588 -2.4831 0.9787
-1.2658 4.6175 -2.4838 0.9787
-1.4315 4.5683 -2.4836 0.9787
-1.7566 4.4515 -2.4826 0.9787
-1.9168 4.3871 -2.4837 0.9787
-2.0748 4.3169 -2.4847 0.9786
-2.3828 4.1595 -2.4869 0.9786
-2.5324 4.0726 -2.4879 0.9786
-2.8220 3.8828 -2.4901 0.9786
-2.9615 3.7800 -2.4912 0.9786
-3.3570 3.4423 -2.4944 0.9786
-3.4805 3.3204 -2.4955 0.9786
-3.7141 3.0633 -2.4976 0.9785
-3.9287 2.7898 -2.4997 0.9785
-4.2122 2.3518 -2.5028 0.9785
-4.2961 2.1991 -2.5037 0.9785
-4.3743 2.0435 -2.5047 0.9785
-4.4469 1.8850 -2.5057 0.9785
-4.5746 1.5606 -2.5075 0.9785
-4.6296 1.3949 -2.5084 0.9784
-4.7884 0.7153 -2.5117 0.9784
-4.8304 0.3683 -2.5132 0.9784
-4.8443 0.1939 -2.5151 0.9784
-4.8520 0.0190 -2.5171 0.9784
-4.8532 -0.1562 -2.5190 0.9784
-4.7629 -1.0283 -2.5279 0.9783
-4.7258 -1.2003 -2.5295 0.9783
-4.6822 -1.3708 -2.5310 0.9783
-4.5137 -1.8717 -2.5350 0.9782
-4.4453 -2.0343 -2.5361 0.9782
-4.3708 -2.1943 -2.5372 0.9782
-4.2910 -2.3518 -2.5385 0.9782
-4.2055 -2.5064 -2.5398 0.9782
-4.0427 -3.2814 -2.7012 0.9768
-3.7978 -3.5666 -2.7028 0.9768
-3.6676 -3.7023 -2.7036 0.9768
-3.5326 -3.8333 -2.7043 0.9768
-3.3928 -3.9592 -2.7049 0.9768
-3.2483 -4.0798 -2.7054 0.9768
-3.0994 -4.1950 -2.7058 0.9768
1.5351 4.2583 -2.4792 0.9796
1.3806 4.3112 -2.4793 0.9796
0.9068 4.4362 -2.4799 0.9796
0.5846 4.4910 -2.4805 0.9796
0.4222 4.5097 -2.4808 0.9796
0.2592 4.5221 -2.4809 0.9796
0.0958 4.5258 -2.4794 0.9796
-0.5568 4.4968 -2.4817 0.9795
-0.7189 4.4750 -2.4824 0.9795
-1.0404 4.4140 -2.4838 0.9795
-1.5126 4.2795 -2.4860 0.9795
-1.8168 4.1582 -2.4854 0.9795
-1.9655 4.0894 -2.4850 0.9795
-2.2571 3.9402 -2.4870 0.9795
-2.3987 3.8577 -2.4881 0.9795
-2.5374 3.7702 -2.4891 0.9795
-2.8051 3.5803 -2.4911 0.9795
-2.9336 3.4782 -2.4922 0.9795
-3.0585 3.3715 -2.4932 0.9795
-3.2964 3.1447 -2.4952 0.9794
-3.6213 2.7734 -2.4982 0.9794
-3.7204 2.6420 -2.4992 0.9794
-3.8148 2.5070 -2.5002 0.9794
-3.9043 2.3686 -2.5011 0.9794
-4.0680 2.0824 -2.5030 0.9794
-4.3834 1.3208 -2.5074 0.9793
-4.5047 0.8401 -2.5098 0.9793
-4.5562 0.5134 -2.5113 0.9793
-4.5839 0.1835 -2.5126 0.9793
-4.5913 0.0180 -2.5147 0.9793
-4.5922 -0.1478 -2.5165 0.9793
-4.5872 -0.3136 -2.5183 0.9792
-4.5762 -0.4793 -2.5201 0.9792
-4.5590 -0.6445 -2.5218 0.9792
-4.5358 -0.8092 -2.5235 0.9792
-4.5066 -0.9729 -2.5251 0.9792
-4.4298 -1.2969 -2.5281 0.9792
-4.3823 -1.4567 -2.5294 0.9792
-4.3291 -1.6147 -2.5306 0.9791
-4.2052 -1.9244 -2.5329 0.9791
-3.9779 -2.3708 -2.5363 0.9791
-3.8912 -2.5137 -2.5373 0.9791
-3.7994 -2.6534 -2.5382 0.9791
-3.7026 -2.7899 -2.5392 0.9791
-3.7097 -3.2400 -2.6977 0.9778
-3.3406 -3.6249 -2.6999 0.9778
-3.0717 -3.8579 -2.7010 0.9778
-2.6376 -4.1685 -2.7018 0.9778
0.8606 4.2101 -2.4810 0.9803
0.0910 4.2982 -2.4821 0.9803
-0.0641 4.2964 -2.4808 0.9803
-0.3740 4.2825 -2.4819 0.9803
-0.6822 4.2465 -2.4831 0.9803
-0.8352 4.2202 -2.4838 0.9803
-0.9872 4.1884 -2.4844 0.9803
-1.4352 4.0607 -2.4865 0.9803
-2.0056 3.8141 -2.4880 0.9803
-2.6610 3.3964 -2.4911 0.9803
-3.0159 3.0926 -2.4940 0.9802
-3.1267 2.9829 -2.4950 0.9802
-3.2336 2.8692 -2.4959 0.9802
-3.3363 2.7517 -2.4969 0.9802
-3.4348 2.6305 -2.4978 0.9802
-3.5287 2.5058 -2.4987 0.9802
-3.6182 2.3777 -2.4997 0.9802
-3.7830 2.1121 -2.5015 0.9802
-3.8581 1.9749 -2.5024 0.9802
-3.9282 1.8351 -2.5032 0.9802
-3.9933 1.6927 -2.5041 0.9802
-4.0531 1.5480 -2.5049 0.9802
-4.2006 1.1020 -2.5073 0.9801
-4.2389 0.9500 -2.5081 0.9801
-4.2717 0.7967 -2.5088 0.9801
-4.3365 0.3307 -2.5110 0.9801
-4.3513 0.0171 -2.5122 0.9801
-4.3374 -0.4543 -2.5179 0.9801
-4.3210 -0.6109 -2.5195 0.9800
-4.2988 -0.7669 -2.5211 0.9800
-4.2709 -0.9221 -2.5226 0.9800
-4.1022 -1.5301 -2.5278 0.9800
-4.0461 -1.6778 -2.5289 0.9800
-3.9184 -1.9672 -2.5314 0.9800
-3.5079 -2.6432 -2.5359 0.9799
-2.9805 -3.2342 -2.5393 0.9799
-2.8625 -3.3404 -2.5398 0.9799
-2.7405 -3.4421 -2.5402 0.9799
-2.4858 -3.6316 -2.5408 0.9799
