ply
format ascii 1.0
element vertex 1271
property float32 x
property float32 y
property float32 z
property float32 I
end_header
0.2307 14.6792 2.5887 0.9421
-1.8836 14.6552 2.6054 0.9418
-2.9622 14.6429 2.6342 0.9411
-4.6402 14.6238 2.7053 0.9396
-5.2223 14.6172 2.7370 0.9389
-5.8191 14.6104 2.7730 0.9381
-5.8756 12.1387 2.3779 0.9467
-8.3983 14.5811 2.9670 0.9339
-9.1052 14.5730 3.0299 0.9326
-10.6178 14.5558 3.1769 0.9294
-14.1813 14.5152 3.5782 0.9209
-16.3472 14.4906 3.8519 0.9151
-18.2242 7.7545 3.4922 0.9227
-39.1447 -26.9237 8.3773 0.8245
-31.0604 -26.7052 7.2228 0.8467
-29.0727 -28.8709 7.2246 0.8467
-27.0177 -30.9846 7.2487 0.8462
-25.3334 -31.2489 7.0932 0.8493
-24.9222 -33.1027 7.3062 0.8451
-23.0947 -33.0819 7.1140 0.8489
-17.3167 -26.8054 5.6270 0.8784
-17.1181 -31.2008 6.2752 0.8654
-16.6297 -36.2575 7.0335 0.8504
-15.7755 -37.9304 7.2435 0.8463
-14.1950 -37.9124 7.1382 0.8484
-12.6579 -37.8949 7.0448 0.8502
-11.2127 -38.0611 6.9963 0.8512
1.9007 36.8041 5.6457 0.8615
-0.2961 14.6733 2.2483 0.9423
-1.3518 14.6613 2.2556 0.9422
-1.8836 14.6552 2.2636 0.9420
-2.9622 14.6429 2.2887 0.9413
-3.5119 14.6367 2.3059 0.9409
-5.2224 14.6172 2.3779 0.9391
-5.8756 12.1387 2.0660 0.9469
-6.4197 12.1325 2.1028 0.9460
-9.1052 14.5730 2.6324 0.9328
-9.7122 12.3575 2.4078 0.9384
-10.2238 12.0892 2.4255 0.9379
-14.1813 14.5153 3.1088 0.9212
-16.3473 14.4906 3.3466 0.9154
-38.9576 -26.7950 7.2435 0.8259
-36.6150 -29.2631 7.1805 0.8272
-36.1588 -31.0887 7.3052 0.8245
-33.4315 -33.1995 7.2178 0.8264
-31.3611 -35.9658 7.3102 0.8244
-29.2706 -36.1058 7.1205 0.8285
-26.5651 -38.0531 7.1095 0.8288
-25.9591 -40.1834 7.3287 0.8240
-17.0768 -37.2322 6.2751 0.8473
1.9007 36.8041 4.7990 0.8619
0.2307 14.6793 1.9118 0.9425
-0.2961 14.6733 1.9112 0.9425
-0.8231 14.6673 1.9130 0.9425
-1.3518 14.6613 1.9173 0.9423
-2.4199 14.6491 1.9335 0.9419
-5.3495 12.1447 1.7281 0.9479
-5.8756 12.1387 1.7561 0.9471
-6.4197 12.1325 1.7874 0.9461
-6.9843 12.1261 1.8223 0.9451
-7.5721 12.1194 1.8609 0.9440
-9.5078 12.0973 2.0036 0.9398
-10.2238 12.0892 2.0618 0.9381
-14.1814 14.5153 2.6426 0.9214
-41.2873 27.1520 6.4349 0.8193
-40.1756 -25.5593 6.2007 0.8252
-17.4230 -31.7565 4.7169 0.8641
1.9007 36.8041 3.9574 0.8622
0.2307 14.6793 1.5765 0.9426
-0.2961 14.6733 1.5760 0.9427
-0.8186 14.5873 1.5689 0.9429
-1.3445 14.5814 1.5724 0.9428
-1.8734 14.5753 1.5780 0.9426
-2.4199 14.6492 1.5944 0.9420
-2.9622 14.6430 1.6042 0.9417
-3.5119 14.6367 1.6163 0.9412
-4.0707 14.6304 1.6307 0.9407
-3.9606 12.4819 1.4062 0.9487
-4.3242 12.1033 1.3801 0.9496
-4.8183 12.0977 1.3983 0.9490
-5.3263 12.0919 1.4188 0.9482
-5.8756 12.1387 1.4481 0.9472
-7.5721 12.1194 1.5345 0.9441
-8.8301 12.1051 1.6090 0.9415
-9.5078 12.0974 1.6522 0.9400
-10.2238 12.0892 1.7002 0.9383
-41.1978 27.0931 5.2948 0.8201
-41.4965 15.9239 4.7728 0.8363
-41.4402 10.9688 4.6032 0.8416
-45.5451 10.3222 5.0147 0.8287
-39.6517 -29.4223 5.3020 0.8198
-18.1205 -19.3346 2.8455 0.8989
-16.8996 -40.6330 4.7256 0.8377
1.1810 22.8686 1.9385 0.9122
-0.2961 14.6733 1.2424 0.9428
-1.3583 14.7319 1.2524 0.9423
-4.0707 14.6304 1.2855 0.9409
-4.6402 14.6239 1.2988 0.9403
-5.2224 14.6173 1.3140 0.9396
-6.4326 14.6035 1.3508 0.9380
-6.9752 14.4105 1.3553 0.9378
-7.4881 14.1518 1.3554 0.9377
-7.9914 13.8746 1.3554 0.9377
-7.8161 12.5099 1.2487 0.9425
-8.5177 12.6029 1.2877 0.9408
-10.3398 12.2263 1.3555 0.9377
-10.9360 12.0281 1.3762 0.9368
-11.7424 12.0189 1.4224 0.9348
-15.2245 14.5034 1.7800 0.9191
-39.4254 30.1892 4.2035 0.8193
-39.2947 25.8416 3.9813 0.8280
-40.3928 24.5343 4.0007 0.8272
-41.5190 12.6000 3.6730 0.8401
-40.0198 -27.5256 4.1118 0.8228
-39.6919 -29.4522 4.1840 0.8200
1.1810 22.8686 1.4200 0.9123
0.2307 14.6793 0.9104 0.9429
-0.2961 14.6733 0.9101 0.9429
-2.4199 14.6492 0.9207 0.9422
-2.9622 14.6430 0.9264 0.9419
-5.2224 14.6173 0.9625 0.9397
-7.8161 12.5099 0.9147 0.9426
-12.2938 14.5368 1.1806 0.9265
-13.2075 14.5264 1.2175 0.9243
-15.2979 14.5733 1.3102 0.9188
-39.3586 27.9566 2.9937 0.8241
-39.2950 25.8418 2.9164 0.8282
-41.2307 25.0432 2.9914 0.8242
-41.4971 15.9241 2.7562 0.8368
-41.4778 14.2316 2.7192 0.8388
-41.4591 12.5818 2.6867 0.8406
1.1810 22.8687 0.9029 0.9124
-1.3583 14.7320 0.5834 0.9425
-2.9622 14.6430 0.5891 0.9419
-3.5119 14.6368 0.5935 0.9415
-4.6402 14.6239 0.6050 0.9404
-5.2224 14.6173 0.6121 0.9398
-7.0652 14.5963 0.6394 0.9371
-7.7195 14.5889 0.6508 0.9361
-7.8161 12.5099 0.5816 0.9427
-8.5150 12.5989 0.5996 0.9409
-10.6251 14.5658 0.7109 0.9304
-11.4327 14.5466 0.7295 0.9286
-13.2075 14.5264 0.7742 0.9244
-16.3474 14.4907 0.8614 0.9163
-34.1069 28.1140 1.7429 0.8378
-41.2307 25.0433 1.9022 0.8244
-41.4973 15.9242 1.7526 0.8370
-41.4781 14.2317 1.7291 0.8390
-41.4593 12.5818 1.7084 0.8408
-41.4410 10.9691 1.6903 0.8423
-17.3983 -24.9220 1.1985 0.8854
-16.4241 -25.4237 1.1935 0.8859
-0.2961 14.6734 0.2479 0.9430
-0.8186 14.5874 0.2468 0.9432
-1.3583 14.7320 0.2499 0.9425
-1.8927 14.7259 0.2508 0.9423
-2.4200 14.6492 0.2508 0.9423
-2.9622 14.6430 0.2524 0.9420
-3.5119 14.6368 0.2543 0.9416
-4.0707 14.6304 0.2565 0.9411
-5.8267 14.6295 0.2660 0.9389
-6.4409 14.6224 0.2699 0.9381
-8.3984 14.5812 0.2842 0.9349
-7.8161 12.5099 0.2492 0.9427
-8.5137 12.5970 0.2568 0.9410
-11.4327 14.5467 0.3125 0.9287
-12.2938 14.5369 0.3216 0.9267
-16.3474 14.4907 0.3690 0.9163
-18.8243 15.5167 0.4121 0.9070
-32.3424 24.7655 0.6881 0.8496
-34.9679 24.8379 0.7245 0.8423
-37.1582 24.4365 0.7512 0.8370
-40.0659 24.3358 0.7919 0.8290
-41.7162 23.3317 0.8074 0.8260
-41.5194 12.6001 0.7329 0.8406
-39.9909 9.0634 0.6926 0.8487
-39.5704 -25.1743 0.7922 0.8289
-17.3982 -24.9220 0.5134 0.8855
-16.4282 -25.4300 0.5114 0.8859
1.1810 22.8687 -0.1289 0.9125
-0.2961 14.6734 -0.0826 0.9430
-0.8186 14.5874 -0.0823 0.9432
-1.3445 14.5814 -0.0824 0.9431
-1.8734 14.5754 -0.0827 0.9429
-2.9622 14.6430 -0.0841 0.9420
-4.6402 14.6240 -0.0864 0.9405
-5.8296 14.6368 -0.0887 0.9389
-7.7195 14.5889 -0.0929 0.9361
-7.8161 12.5099 -0.0830 0.9427
-8.5124 12.5950 -0.0856 0.9410
-10.6366 14.5816 -0.1016 0.9303
-11.4328 14.5467 -0.1042 0.9287
-12.2938 14.5369 -0.1072 0.9267
-15.2246 14.5035 -0.1184 0.9193
-29.1431 22.3158 -0.2067 0.8634
-33.7454 22.1922 -0.2274 0.8508
-36.4166 22.1192 -0.2399 0.8433
-38.7280 21.6604 -0.2498 0.8374
-39.1791 16.6708 -0.2397 0.8434
-39.1604 15.0274 -0.2362 0.8455
-41.4786 14.2319 -0.2469 0.8391
-41.4057 12.5656 -0.2436 0.8411
-45.5460 10.3224 -0.2629 0.8296
-45.2961 8.5699 -0.2595 0.8316
-45.8811 -18.7084 -0.2790 0.8202
-41.7302 -22.5182 -0.2670 0.8272
-41.7160 -24.4823 -0.2723 0.8241
-39.5704 -25.1743 -0.2641 0.8289
-16.0745 -23.0258 -0.1581 0.8938
-12.6110 -22.9858 -0.1476 0.9004
-11.5530 -22.9755 -0.1448 0.9022
-9.5476 -22.9560 -0.1400 0.9053
-8.5917 -22.9468 -0.1380 0.9066
-7.6618 -22.9377 -0.1362 0.9078
-6.7471 -22.9031 -0.1344 0.9089
1.1810 22.8687 -0.6448 0.9124
-0.2961 14.6734 -0.4133 0.9430
-0.8231 14.6674 -0.4137 0.9429
-1.3518 14.6614 -0.4146 0.9428
-1.8837 14.6553 -0.4161 0.9426
-2.4200 14.6492 -0.4181 0.9423
-2.9622 14.6431 -0.4207 0.9420
-4.0707 14.6304 -0.4276 0.9410
-4.6402 14.6240 -0.4320 0.9405
-5.2224 14.6173 -0.4371 0.9398
-5.8254 14.6262 -0.4433 0.9389
-6.4394 14.6191 -0.4498 0.9381
-7.0652 14.5964 -0.4566 0.9372
-7.7195 14.5889 -0.4648 0.9361
-8.3984 14.5812 -0.4738 0.9349
-7.8161 12.5099 -0.4154 0.9427
-10.6279 14.5696 -0.5078 0.9304
-11.4328 14.5467 -0.5210 0.9286
-12.2938 14.5369 -0.5361 0.9266
-15.2246 14.5035 -0.5921 0.9193
-16.3474 14.4908 -0.6151 0.9163
-18.8246 15.5170 -0.6869 0.9070
-26.7049 20.4487 -0.9471 0.8741
-35.4424 19.8228 -1.1435 0.8500
-39.1986 18.3670 -1.2189 0.8410
-39.1793 16.6709 -1.1989 0.8433
-39.1606 15.0275 -1.1811 0.8455
-41.4789 14.2320 -1.2348 0.8391
-44.9758 8.5093 -1.2889 0.8326
-45.8824 -18.7088 -1.3952 0.8201
-41.7317 -22.5189 -1.3352 0.8272
-39.5703 -25.1742 -1.3206 0.8289
-17.3467 -23.0405 -0.8121 0.8910
-16.0745 -23.0258 -0.7907 0.8937
-13.7136 -22.9983 -0.7540 0.8984
-12.6112 -22.9862 -0.7383 0.9004
-10.5335 -22.9660 -0.7114 0.9038
-8.5918 -22.9471 -0.6899 0.9066
-7.6620 -22.9380 -0.6810 0.9078
-0.8231 14.6674 -0.7450 0.9429
-1.3518 14.6614 -0.7467 0.9427
-1.8837 14.6553 -0.7493 0.9425
-3.5119 14.6368 -0.7634 0.9415
-4.0707 14.6305 -0.7702 0.9410
-4.6402 14.6240 -0.7781 0.9404
-5.2224 14.6174 -0.7872 0.9397
-5.8212 14.6156 -0.7979 0.9389
-6.4347 14.6084 -0.8095 0.9381
-7.0652 14.5964 -0.8224 0.9371
-7.7195 14.5890 -0.8371 0.9360
-7.8162 12.5099 -0.7481 0.9426
-8.5098 12.5911 -0.7707 0.9409
-10.6191 14.5576 -0.9138 0.9304
-12.2866 14.5283 -0.9649 0.9266
-12.1737 12.4604 -0.8834 0.9326
-33.9640 17.4267 -1.9360 0.8582
-37.8066 16.0868 -2.0837 0.8483
-39.1609 15.0276 -2.1272 0.8454
-41.4604 12.5822 -2.1973 0.8407
-41.4420 10.9693 -2.1741 0.8422
-40.3186 9.1377 -2.0966 0.8474
-44.9761 8.5093 -2.3214 0.8325
-45.7284 6.9627 -2.3458 0.8309
-48.9081 3.8880 -2.4882 0.8216
-49.0169 2.1309 -2.4882 0.8216
-49.0460 -1.3896 -2.4883 0.8216
-48.9662 -3.1485 -2.4884 0.8216
-48.6188 -6.6523 -2.4886 0.8216
-48.3515 -8.3928 -2.4888 0.8216
-47.6313 -11.8400 -2.4891 0.8215
-47.1793 -13.5423 -2.4893 0.8215
-46.6672 -15.2275 -2.4895 0.8215
-42.6935 -17.4087 -2.3382 0.8314
-41.7777 -18.8105 -2.3236 0.8323
-41.3437 -20.4296 -2.3387 0.8314
-37.0795 -27.5137 -2.3416 0.8312
-29.8495 -23.8559 -1.9379 0.8581
-25.7886 -23.8340 -1.7809 0.8688
-23.9904 -23.8237 -1.7146 0.8734
-20.8342 -23.8932 -1.6077 0.8808
-17.3466 -23.0405 -1.4626 0.8909
-11.5533 -22.9762 -1.3042 0.9021
-9.5479 -22.9567 -1.2609 0.9052
-8.5919 -22.9474 -1.2427 0.9065
-6.7475 -22.9042 -1.2109 0.9088
1.1810 22.8688 -1.6790 0.9122
-1.8837 14.6554 -1.0834 0.9425
-3.5119 14.6368 -1.1037 0.9414
-3.8084 13.6876 -1.0417 0.9446
-4.4536 12.4654 -0.9706 0.9483
-5.4856 12.4537 -0.9978 0.9469
-6.0251 12.4475 -1.0140 0.9460
-7.1620 12.4346 -1.0521 0.9441
-8.3945 12.4206 -1.0992 0.9416
-9.0548 12.4130 -1.1266 0.9402
-10.4839 12.3968 -1.1904 0.9370
-11.2397 12.3621 -1.2251 0.9352
-11.7985 12.0763 -1.2379 0.9345
-25.0371 16.4653 -2.1972 0.8868
-26.4649 16.0746 -2.2704 0.8832
-34.0419 10.3308 -2.6084 0.8670
-33.9297 8.9809 -2.5735 0.8687
-33.5061 7.5937 -2.5190 0.8713
-33.9548 2.6993 -2.4975 0.8723
-33.9756 1.4770 -2.4935 0.8725
-33.9905 0.2570 -2.4923 0.8726
-33.9229 -2.1812 -2.4924 0.8725
-33.4956 -5.8141 -2.4927 0.8725
-32.9953 -8.2018 -2.4929 0.8725
-32.3258 -10.5479 -2.4932 0.8725
-29.3385 -17.2181 -2.4942 0.8725
-28.7041 -18.2612 -2.4945 0.8725
-27.3256 -20.2761 -2.4949 0.8724
-26.5831 -21.2454 -2.4951 0.8724
-25.8063 -22.1877 -2.4954 0.8724
-23.2801 -24.8399 -2.4962 0.8724
-20.6617 -23.6954 -2.3051 0.8815
-20.1409 -24.8442 -2.3450 0.8796
-17.3466 -23.0404 -2.1146 0.8908
-13.7135 -22.9981 -1.9633 0.8982
-12.6116 -22.9869 -1.9224 0.9002
-10.5338 -22.9666 -1.8526 0.9036
-9.5481 -22.9571 -1.8230 0.9051
-8.5921 -22.9478 -1.7967 0.9064
1.1810 22.8688 -2.1984 0.9121
0.2307 14.6794 -1.4095 0.9427
-3.8085 13.6880 -1.3640 0.9445
-4.3449 12.1612 -1.2398 0.9494
-5.3517 12.1497 -1.2746 0.9480
-5.8780 12.1437 -1.2953 0.9472
-6.4223 12.1375 -1.3183 0.9463
-6.9872 12.1311 -1.3440 0.9453
-7.5753 12.1244 -1.3725 0.9442
-8.3466 12.3497 -1.4310 0.9419
-9.5117 12.1024 -1.4778 0.9400
-10.0669 11.9037 -1.4967 0.9393
-11.5383 11.8100 -1.5851 0.9358
-12.3870 11.8004 -1.6425 0.9336
-14.4676 10.2764 -1.7037 0.9312
-21.7929 14.3317 -2.5041 0.9005
-22.6166 13.7372 -2.5405 0.8991
-23.4437 13.1120 -2.5788 0.8977
-24.6737 11.5611 -2.6159 0.8963
-25.2211 9.6783 -2.5935 0.8971
-25.3522 6.7104 -2.5178 0.9000
-25.8401 2.9904 -2.4973 0.9007
-25.9307 2.0614 -2.4973 0.9007
-26.0116 0.1966 -2.4973 0.9007
-25.4527 -5.3653 -2.4973 0.9008
-25.0022 -7.1766 -2.4973 0.9008
-24.7285 -8.0689 -2.4973 0.9008
-24.4230 -8.9509 -2.4972 0.9008
-22.8783 -12.3454 -2.4958 0.9008
-20.3146 -16.2357 -2.4966 0.9008
-19.7205 -16.9553 -2.4968 0.9008
-17.3582 -17.2377 -2.3486 0.9064
-16.7428 -17.8646 -2.3506 0.9063
-15.3865 -18.9795 -2.3457 0.9065
-14.6970 -19.5211 -2.3459 0.9065
-12.5190 -20.9949 -2.3467 0.9064
-11.7592 -21.4332 -2.3470 0.9064
-10.1946 -22.2271 -2.3476 0.9064
-8.5768 -22.9071 -2.3483 0.9064
-7.6623 -22.9390 -2.3219 0.9074
-6.7478 -22.9053 -2.2925 0.9085
0.9891 19.1520 -2.2780 0.9257
0.2307 14.6794 -1.7439 0.9426
-0.2961 14.6734 -1.7434 0.9426
-0.8186 14.5875 -1.7355 0.9428
-1.3583 14.7321 -1.7574 0.9421
-2.4200 14.6493 -1.7637 0.9419
-3.8085 13.6883 -1.6877 0.9444
-3.8150 12.0233 -1.4984 0.9505
-4.2490 11.8929 -1.5002 0.9504
-4.7346 11.8874 -1.5199 0.9498
-5.2337 11.8817 -1.5422 0.9490
-5.7484 11.8759 -1.5673 0.9482
-6.2807 11.8698 -1.5952 0.9473
-8.0090 11.8502 -1.6990 0.9440
-10.4710 11.5167 -1.8489 0.9392
-11.9711 11.4042 -1.9640 0.9356
-12.6559 11.2185 -2.0090 0.9341
-14.7722 12.1766 -2.2740 0.9258
-15.1989 11.6383 -2.2739 0.9258
-14.4066 10.2331 -2.0991 0.9313
-15.9931 10.5176 -2.2738 0.9258
-16.6598 10.1190 -2.3154 0.9245
-17.5921 9.0264 -2.3487 0.9234
-17.8997 8.3871 -2.3481 0.9235
-19.6255 8.3507 -2.5335 0.9177
-19.8364 7.6120 -2.5238 0.9180
-20.0693 6.8860 -2.5204 0.9181
-20.4549 5.4142 -2.5134 0.9183
-20.6072 4.6703 -2.5099 0.9184
-20.8307 3.1717 -2.5029 0.9186
-20.8835 2.4168 -2.4972 0.9188
-21.0222 0.1591 -2.4972 0.9188
-21.0144 -0.5954 -2.4972 0.9188
-20.9795 -1.3489 -2.4972 0.9188
-20.8286 -2.8499 -2.4972 0.9188
-20.5705 -4.3361 -2.4972 0.9188
-19.9853 -6.5212 -2.4972 0.9188
-19.7384 -7.2340 -2.4972 0.9188
-18.8467 -9.3129 -2.4971 0.9188
-18.5004 -9.9830 -2.4971 0.9188
-18.1302 -10.6403 -2.4971 0.9188
-17.7371 -11.2842 -2.4972 0.9188
-16.8842 -12.5284 -2.4974 0.9188
-15.9442 -13.7085 -2.4977 0.9188
-14.3612 -15.3234 -2.4946 0.9189
-11.8815 -15.7815 -2.3465 0.9235
-11.3085 -16.1987 -2.3467 0.9235
-10.1192 -16.9705 -2.3470 0.9235
-9.5046 -17.3239 -2.3472 0.9235
-8.8788 -17.6573 -2.3477 0.9235
-6.9338 -18.5189 -2.3489 0.9234
-5.5892 -18.9727 -2.3494 0.9234
0.8292 16.0567 -2.2781 0.9371
-0.2961 14.6735 -2.0795 0.9424
-0.8231 14.6675 -2.0815 0.9424
-1.3518 14.6614 -2.0862 0.9423
-2.4200 14.6493 -2.1038 0.9418
-4.1403 11.5887 -1.7436 0.9515
-4.6134 11.5833 -1.7666 0.9509
-6.1200 11.5662 -1.8541 0.9485
-7.2187 11.5537 -1.9303 0.9464
-8.8511 11.2618 -2.0295 0.9438
-10.9546 11.2125 -2.2211 0.9386
-11.4698 10.9266 -2.2445 0.9380
-12.0144 10.6498 -2.2748 0.9372
-13.4935 9.5845 -2.3451 0.9353
-14.1453 8.5917 -2.3450 0.9353
-15.6512 8.0305 -2.4925 0.9314
-16.2153 6.8997 -2.4969 0.9313
-16.4522 6.3134 -2.4968 0.9313
-17.0536 4.5139 -2.4995 0.9312
-17.4550 2.6577 -2.5017 0.9312
-17.5185 2.0274 -2.4987 0.9312
-17.5687 1.3967 -2.4972 0.9313
-17.6075 0.7654 -2.4972 0.9313
-17.6170 -0.4992 -2.4971 0.9313
-17.5877 -1.1309 -2.4971 0.9313
-17.5358 -1.7612 -2.4971 0.9313
-17.3643 -3.0141 -2.4971 0.9313
-17.1034 -4.2515 -2.4971 0.9313
-16.9399 -4.8624 -2.4971 0.9313
-16.5487 -6.0650 -2.4973 0.9313
-16.3209 -6.6552 -2.4974 0.9313
-15.5132 -8.3711 -2.4976 0.9313
-14.8742 -9.4628 -2.4979 0.9313
-14.1587 -10.5060 -2.4981 0.9312
-13.7733 -11.0078 -2.4982 0.9312
-12.9498 -11.9684 -2.4985 0.9312
-12.5128 -12.4260 -2.4986 0.9312
-12.0596 -12.8676 -2.4987 0.9312
-11.5908 -13.2927 -2.4989 0.9312
-11.1071 -13.7008 -2.4990 0.9312
-10.0973 -14.4638 -2.4993 0.9312
-9.5724 -14.8177 -2.4995 0.9312
-9.0209 -15.1285 -2.4957 0.9313
-6.3637 -15.3008 -2.3480 0.9352
-5.8110 -15.5203 -2.3481 0.9352
-5.2508 -15.7198 -2.3483 0.9352
-0.7747 13.8046 -2.2777 0.9455
-1.7624 13.7120 -2.2775 0.9455
-2.7408 13.5487 -2.2772 0.9455
-3.7049 13.3158 -2.2770 0.9455
-3.7888 11.9405 -2.0637 0.9505
-4.0431 11.3165 -1.9797 0.9525
-4.5051 11.3113 -2.0058 0.9518
-4.9800 11.3059 -2.0352 0.9512
-5.4698 11.3003 -2.0682 0.9504
-5.9763 11.2945 -2.1051 0.9495
-6.5019 11.2886 -2.1461 0.9486
-8.5363 10.8612 -2.2758 0.9455
-8.9201 10.5476 -2.2757 0.9455
-9.4429 10.3859 -2.3124 0.9447
-9.9520 10.1863 -2.3460 0.9439
-11.3053 8.6568 -2.3457 0.9439
-13.4890 6.9211 -2.4976 0.9404
-13.7284 6.4326 -2.4976 0.9404
-13.9502 5.9358 -2.4975 0.9404
-14.3395 4.9200 -2.4975 0.9404
-14.7848 3.3508 -2.4974 0.9404
-14.8954 2.8181 -2.4974 0.9404
-15.1120 1.2013 -2.4974 0.9404
-15.1454 0.6584 -2.4974 0.9404
-15.1594 0.1146 -2.4974 0.9404
-15.0845 -1.5150 -2.4975 0.9404
-15.0206 -2.0552 -2.4975 0.9404
-14.2366 -5.2176 -2.4979 0.9404
-13.3455 -7.2014 -2.4982 0.9404
-13.0790 -7.6759 -2.4983 0.9404
-12.4959 -8.5946 -2.4985 0.9404
-12.1800 -9.0378 -2.4986 0.9404
-11.8484 -9.4694 -2.4987 0.9404
-11.5015 -9.8888 -2.4988 0.9404
-10.7638 -10.6891 -2.4990 0.9404
-9.9705 -11.4345 -2.4993 0.9404
-9.5543 -11.7855 -2.4994 0.9403
-9.1258 -12.1213 -2.4995 0.9403
-8.6855 -12.4415 -2.4996 0.9403
-8.2340 -12.7458 -2.4998 0.9403
-7.2996 -13.3049 -2.5001 0.9403
-5.8288 -14.0146 -2.5005 0.9403
0.6251 12.1044 -2.2782 0.9519
-1.5447 12.0186 -2.2776 0.9519
-2.4024 11.8757 -2.2774 0.9519
-3.6639 11.5471 -2.2770 0.9519
-3.9790 11.1372 -2.2230 0.9530
-4.8461 11.0019 -2.2597 0.9522
-5.2771 10.9023 -2.2766 0.9519
-5.6646 10.7055 -2.2765 0.9519
-6.0542 10.5112 -2.2800 0.9518
-7.3579 10.0869 -2.3468 0.9505
-7.7147 9.8160 -2.3467 0.9505
-8.0617 9.5326 -2.3466 0.9505
-8.3982 9.2369 -2.3465 0.9505
-9.0384 8.6103 -2.3464 0.9505
-9.3575 8.2958 -2.3507 0.9504
-10.5531 8.0810 -2.4984 0.9473
-10.8362 7.6970 -2.4983 0.9473
-11.5997 6.4877 -2.4981 0.9473
-12.0347 5.6390 -2.4981 0.9473
-12.2291 5.2035 -2.4980 0.9473
-12.5704 4.3131 -2.4980 0.9473
-13.0578 2.4705 -2.4979 0.9473
-13.2013 1.5278 -2.4979 0.9473
-13.2770 0.5771 -2.4979 0.9473
-13.2624 -0.8528 -2.4980 0.9473
-13.2235 -1.3281 -2.4980 0.9473
-13.0946 -2.2730 -2.4981 0.9473
-13.0048 -2.7413 -2.4981 0.9473
-12.7752 -3.6670 -2.4982 0.9473
-12.4800 -4.5738 -2.4983 0.9473
-12.1205 -5.4573 -2.4985 0.9473
-11.6986 -6.3128 -2.4986 0.9473
-11.4650 -6.7287 -2.4987 0.9473
-11.2165 -7.1359 -2.4988 0.9473
-10.9537 -7.5340 -2.4988 0.9473
-10.3860 -8.3006 -2.4990 0.9473
-9.7648 -9.0247 -2.4992 0.9473
-9.0933 -9.7026 -2.4994 0.9473
-7.6132 -10.9055 -2.4999 0.9473
-6.3983 -11.6620 -2.5002 0.9473
-3.7601 -12.7636 -2.5010 0.9473
0.1693 10.7760 -2.2781 0.9569
-0.2174 10.7746 -2.2780 0.9569
-0.9894 10.7303 -2.2778 0.9569
-3.7368 10.4591 -2.3477 0.9556
-4.4768 10.1634 -2.3475 0.9556
-5.1937 9.8155 -2.3473 0.9556
-6.2176 9.1996 -2.3471 0.9556
-6.5434 8.9703 -2.3470 0.9556
-6.8608 8.7295 -2.3469 0.9556
-7.1694 8.4775 -2.3469 0.9556
-7.5877 8.3454 -2.3842 0.9549
-8.1213 8.3125 -2.4565 0.9536
-8.8463 7.8416 -2.4988 0.9528
-9.1218 7.5190 -2.4988 0.9528
-9.8762 6.4949 -2.4986 0.9528
-10.3161 5.7697 -2.4985 0.9528
-10.8759 4.6277 -2.4984 0.9528
-11.5267 2.6123 -2.4983 0.9528
-11.7406 1.3587 -2.4983 0.9528
-11.7818 0.9366 -2.4983 0.9528
-11.8079 0.5133 -2.4983 0.9528
-11.8144 -0.3348 -2.4983 0.9528
-11.7104 -1.6023 -2.4984 0.9528
-11.4710 -2.8514 -2.4985 0.9528
-11.3615 -3.2612 -2.4986 0.9528
-11.2374 -3.6668 -2.4986 0.9528
-10.1960 -5.9839 -2.4990 0.9528
-9.7413 -6.7000 -2.4991 0.9528
-8.9659 -7.7087 -2.4994 0.9528
-8.6838 -8.0257 -2.4995 0.9528
-8.3906 -8.3324 -2.4996 0.9528
-7.7721 -8.9133 -2.4998 0.9528
-7.4476 -9.1868 -2.4999 0.9528
-7.1135 -9.4484 -2.5000 0.9528
-6.4182 -9.9350 -2.5002 0.9528
-5.6897 -10.3705 -2.5004 0.9528
-5.3143 -10.5685 -2.5005 0.9528
-4.9318 -10.7528 -2.5006 0.9528
-4.5430 -10.9233 -2.5007 0.9528
-3.3435 -11.3497 -2.5010 0.9528
-0.2016 9.9914 -2.3487 0.9598
-0.5599 9.9773 -2.3486 0.9598
-0.9175 9.9504 -2.3485 0.9598
-1.2738 9.9107 -2.3484 0.9598
-1.9810 9.7930 -2.3482 0.9598
-2.3310 9.7153 -2.3481 0.9598
-2.6780 9.6250 -2.3480 0.9598
-3.0215 9.5224 -2.3479 0.9598
-3.3610 9.4075 -2.3479 0.9598
-6.1192 8.3887 -2.4403 0.9582
-6.5714 8.3612 -2.4994 0.9572
-7.1538 7.8682 -2.4993 0.9572
-7.6993 7.3346 -2.4992 0.9572
-7.9573 7.0535 -2.4991 0.9572
-8.2050 6.7633 -2.4990 0.9572
-8.6685 6.1573 -2.4989 0.9573
-9.0874 5.5196 -2.4989 0.9573
-9.4596 4.8536 -2.4988 0.9573
-9.6275 4.5111 -2.4988 0.9573
-9.9260 3.8090 -2.4987 0.9573
-10.0561 3.4504 -2.4987 0.9573
-10.1734 3.0874 -2.4987 0.9573
-10.2775 2.7204 -2.4986 0.9573
-10.3685 2.3498 -2.4986 0.9573
-10.5609 1.2222 -2.4986 0.9573
-10.6097 -0.6822 -2.4987 0.9573
-10.5785 -1.0624 -2.4987 0.9573
-10.3183 -2.5649 -2.4988 0.9573
-10.1081 -3.2983 -2.4989 0.9573
-9.9835 -3.6589 -2.4990 0.9573
-9.8460 -4.0148 -2.4990 0.9572
-9.6958 -4.3656 -2.4991 0.9572
-9.3582 -5.0498 -2.4992 0.9572
-9.1712 -5.3825 -2.4992 0.9572
-8.7622 -6.0266 -2.4994 0.9572
-8.5405 -6.3373 -2.4995 0.9572
-8.0646 -6.9338 -2.4996 0.9572
-7.5471 -7.4947 -2.4998 0.9572
-7.2736 -7.7610 -2.4998 0.9572
-6.9907 -8.0172 -2.4999 0.9572
-6.6988 -8.2631 -2.5000 0.9572
-6.3983 -8.4985 -2.5001 0.9572
-6.0895 -8.7229 -2.5002 0.9572
-5.7728 -8.9361 -2.5003 0.9572
-5.1175 -9.3278 -2.5005 0.9572
-4.7798 -9.5057 -2.5006 0.9572
-4.4359 -9.6715 -2.5007 0.9572
-3.7312 -9.9654 -2.5009 0.9572
-3.3714 -10.0933 -2.5010 0.9572
0.1425 9.0705 -2.3488 0.9632
-0.1829 9.0694 -2.3487 0.9632
-0.8328 9.0323 -2.3486 0.9632
-1.1563 8.9963 -2.3485 0.9632
-1.4782 8.9487 -2.3484 0.9632
-2.1160 8.8190 -2.3482 0.9632
-2.7428 8.6440 -2.3481 0.9632
-3.0510 8.5397 -2.3480 0.9632
-4.4675 8.4430 -2.4732 0.9613
-4.8189 8.3666 -2.4999 0.9609
-5.6895 7.7997 -2.4997 0.9609
-6.2339 7.3713 -2.4996 0.9609
-7.6638 5.8684 -2.4992 0.9609
-7.8693 5.5896 -2.4992 0.9609
-8.4239 4.7114 -2.4991 0.9609
-8.5874 4.4061 -2.4990 0.9609
-8.7399 4.0951 -2.4990 0.9609
-8.8811 3.7789 -2.4990 0.9609
-9.0109 3.4578 -2.4990 0.9609
-9.1290 3.1323 -2.4989 0.9609
-9.5413 1.4528 -2.4989 0.9609
-9.6209 0.7648 -2.4989 0.9609
-9.6422 0.4192 -2.4989 0.9609
-9.6511 0.0729 -2.4989 0.9609
-9.6475 -0.2734 -2.4989 0.9609
-9.6316 -0.6193 -2.4989 0.9609
-9.6032 -0.9645 -2.4990 0.9609
-9.5096 -1.6507 -2.4990 0.9609
-9.4443 -1.9908 -2.4990 0.9609
-9.1762 -2.9942 -2.4992 0.9609
-8.9381 -3.6446 -2.4992 0.9609
-8.4953 -4.5842 -2.4994 0.9609
-8.3256 -4.8862 -2.4995 0.9609
-8.1451 -5.1819 -2.4995 0.9609
-7.9541 -5.4709 -2.4996 0.9609
-7.7529 -5.7529 -2.4996 0.9609
-7.5418 -6.0275 -2.4997 0.9609
-7.0905 -6.5531 -2.4999 0.9609
-6.3459 -7.2777 -2.5001 0.9609
-5.8081 -7.7145 -2.5002 0.9609
-5.5278 -7.9183 -2.5003 0.9609
-5.2403 -8.1117 -2.5004 0.9609
-4.0266 -8.7792 -2.5008 0.9609
-3.7092 -8.9183 -2.5009 0.9609
-3.3869 -9.0460 -2.5009 0.9609
-3.0603 -9.1620 -2.5010 0.9609
0.1354 8.6175 -2.4399 0.9648
-0.7914 8.5836 -2.4403 0.9648
-1.1016 8.5711 -2.4464 0.9647
-1.7284 8.5442 -2.4678 0.9644
-2.3677 8.5097 -2.5006 0.9639
-2.6713 8.4190 -2.5005 0.9639
-3.2681 8.2053 -2.5003 0.9639
-4.6793 7.4893 -2.5000 0.9640
-5.2040 7.1341 -2.4998 0.9640
-5.9400 6.5332 -2.4997 0.9640
-6.1704 6.3157 -2.4996 0.9640
-7.0099 5.3677 -2.4994 0.9640
-7.1978 5.1126 -2.4994 0.9640
-7.3765 4.8511 -2.4993 0.9640
-7.9942 3.7457 -2.4992 0.9640
-8.1234 3.4565 -2.4992 0.9640
-8.2421 3.1628 -2.4992 0.9640
-8.3502 2.8651 -2.4992 0.9640
-8.4475 2.5636 -2.4991 0.9640
-8.6096 1.9512 -2.4991 0.9640
-8.7694 1.0148 -2.4991 0.9640
-8.8001 0.6996 -2.4991 0.9640
-8.8196 0.3834 -2.4991 0.9640
-8.8277 0.0667 -2.4991 0.9640
-8.6386 -1.8210 -2.4993 0.9640
-8.5678 -2.1298 -2.4993 0.9640
-8.4859 -2.4358 -2.4993 0.9640
-8.2897 -3.0382 -2.4994 0.9640
-8.1755 -3.3337 -2.4994 0.9640
-8.0508 -3.6249 -2.4995 0.9640
-7.9157 -3.9115 -2.4995 0.9640
-7.7704 -4.1930 -2.4996 0.9640
-7.6151 -4.4692 -2.4996 0.9640
-7.4500 -4.7396 -2.4997 0.9640
-7.2754 -5.0040 -2.4997 0.9640
-6.8982 -5.5131 -2.4999 0.9640
-6.4854 -5.9939 -2.5000 0.9640
-6.2663 -6.2229 -2.5001 0.9640
-6.0392 -6.4438 -2.5001 0.9640
-5.5619 -6.8607 -2.5003 0.9639
-5.3123 -7.0561 -2.5004 0.9639
-5.0559 -7.2424 -2.5004 0.9639
-4.7930 -7.4193 -2.5005 0.9639
-4.2489 -7.7444 -2.5007 0.9639
-3.9684 -7.8921 -2.5007 0.9639
-3.6828 -8.0297 -2.5008 0.9639
-3.3925 -8.1569 -2.5009 0.9639
-3.0978 -8.2737 -2.5010 0.9639
-2.4968 -8.4751 -2.5012 0.9639
0.4194 8.1215 -2.5013 0.9665
0.1278 8.1310 -2.5012 0.9665
-0.7466 8.0970 -2.5010 0.9665
-1.0365 8.0647 -2.5009 0.9665
-2.4588 7.7491 -2.5006 0.9665
-2.7352 7.6556 -2.5005 0.9666
-3.5416 7.3169 -2.5003 0.9666
-3.8018 7.1848 -2.5002 0.9666
-4.0570 7.0437 -2.5002 0.9666
-4.3070 6.8934 -2.5001 0.9666
-4.7900 6.5665 -2.5000 0.9666
-5.0224 6.3903 -2.4999 0.9666
-5.4675 6.0134 -2.4998 0.9666
-5.6796 5.8133 -2.4998 0.9666
-6.0816 5.3909 -2.4997 0.9666
-6.2710 5.1691 -2.4996 0.9666
-6.4523 4.9407 -2.4996 0.9666
-6.9455 4.2186 -2.4995 0.9666
-7.2300 3.7096 -2.4994 0.9666
-7.3583 3.4478 -2.4994 0.9666
-7.6860 2.6372 -2.4993 0.9666
-7.7756 2.3597 -2.4993 0.9666
-7.8553 2.0792 -2.4993 0.9666
-7.9841 1.5106 -2.4993 0.9666
-8.0719 0.9341 -2.4993 0.9666
-8.1181 0.3529 -2.4993 0.9666
-8.1226 -0.2302 -2.4993 0.9666
-8.0853 -0.8121 -2.4994 0.9666
-8.0510 -1.1016 -2.4994 0.9666
-7.8863 -1.9604 -2.4995 0.9666
-7.8109 -2.2421 -2.4995 0.9666
-7.6303 -2.7965 -2.4996 0.9666
-7.2860 -3.6003 -2.4997 0.9666
-7.0093 -4.1137 -2.4998 0.9666
-6.8574 -4.3626 -2.4998 0.9666
-6.6966 -4.6059 -2.4999 0.9666
-6.5272 -4.8433 -2.4999 0.9666
-6.3492 -5.0745 -2.5000 0.9666
-5.7678 -5.7278 -2.5002 0.9666
-5.5587 -5.9312 -2.5002 0.9666
-5.3425 -6.1269 -2.5003 0.9666
-4.8896 -6.4946 -2.5004 0.9666
-4.6536 -6.6661 -2.5005 0.9665
-4.1638 -6.9830 -2.5007 0.9665
-3.6526 -7.2640 -2.5008 0.9665
-2.8512 -7.6151 -2.5010 0.9665
0.1182 7.5238 -2.5013 0.9688
-0.4216 7.5125 -2.5011 0.9688
-0.9591 7.4625 -2.5010 0.9688
-1.4917 7.3741 -2.5008 0.9688
-1.7553 7.3156 -2.5008 0.9688
-2.0165 7.2477 -2.5007 0.9688
-2.2752 7.1705 -2.5006 0.9688
-2.5309 7.0841 -2.5006 0.9688
-3.2772 6.7706 -2.5004 0.9688
-3.5179 6.6485 -2.5003 0.9688
-3.9855 6.3788 -2.5002 0.9688
-4.4324 6.0763 -2.5001 0.9688
-4.6475 5.9133 -2.5000 0.9688
-5.0594 5.5646 -2.4999 0.9688
-5.2556 5.3794 -2.4999 0.9688
-5.6277 4.9885 -2.4998 0.9688
-5.8029 4.7833 -2.4998 0.9688
-5.9707 4.5719 -2.4997 0.9688
-6.1308 4.3547 -2.4997 0.9688
-6.8092 3.1905 -2.4996 0.9688
-6.9192 2.9441 -2.4995 0.9688
-7.0203 2.6940 -2.4995 0.9688
-7.1124 2.4403 -2.4995 0.9688
-7.1954 2.1836 -2.4995 0.9688
-7.2690 1.9240 -2.4995 0.9688
-7.3334 1.6620 -2.4995 0.9688
-7.3883 1.3978 -2.4995 0.9688
-7.4337 1.1319 -2.4995 0.9688
-7.4695 0.8644 -2.4995 0.9688
-7.5123 0.3265 -2.4995 0.9688
-7.5192 0.0568 -2.4995 0.9688
-7.4088 -1.2861 -2.4996 0.9688
-7.2977 -1.8141 -2.4996 0.9688
-7.2280 -2.0747 -2.4996 0.9688
-6.9635 -2.8395 -2.4997 0.9688
-6.8573 -3.0875 -2.4998 0.9688
-6.7422 -3.3316 -2.4998 0.9688
-6.4861 -3.8066 -2.4999 0.9688
-6.3455 -4.0370 -2.5000 0.9688
-6.1967 -4.2621 -2.5000 0.9688
-5.8754 -4.6957 -2.5001 0.9688
-5.7033 -4.9036 -2.5002 0.9688
-5.5241 -5.1052 -2.5002 0.9688
-5.1437 -5.4884 -2.5003 0.9688
-4.3062 -6.1683 -2.5006 0.9688
-4.0822 -6.3190 -2.5007 0.9688
-3.8529 -6.4616 -2.5007 0.9688
-3.6187 -6.5959 -2.5008 0.9688
-3.1366 -6.8387 -2.5009 0.9688
-2.8893 -6.9471 -2.5010 0.9688
-2.6383 -7.0465 -2.5011 0.9688
0.3608 6.9854 -2.5014 0.9707
0.1099 6.9936 -2.5013 0.9707
-0.3919 6.9831 -2.5012 0.9707
-0.6421 6.9644 -2.5011 0.9707
-0.8916 6.9367 -2.5010 0.9707
-1.3866 6.8545 -2.5009 0.9707
-1.6316 6.8002 -2.5008 0.9707
-1.8745 6.7371 -2.5008 0.9707
-2.1149 6.6653 -2.5007 0.9707
-2.5873 6.4962 -2.5006 0.9707
-2.8187 6.3991 -2.5005 0.9707
-3.2701 6.1802 -2.5004 0.9707
-3.9150 5.7927 -2.5002 0.9707
-4.1202 5.6483 -2.5002 0.9707
-4.7030 5.1727 -2.5001 0.9707
-5.0617 4.8219 -2.5000 0.9707
-5.2313 4.6371 -2.4999 0.9707
-5.5502 4.2499 -2.4999 0.9707
-5.6991 4.0480 -2.4998 0.9707
-5.9745 3.6288 -2.4998 0.9707
-6.1008 3.4121 -2.4997 0.9707
-6.4320 2.7368 -2.4997 0.9707
-6.5259 2.5043 -2.4997 0.9707
-6.6116 2.2685 -2.4996 0.9707
-6.6887 2.0298 -2.4996 0.9707
-6.7572 1.7886 -2.4996 0.9707
-6.9678 0.5539 -2.4996 0.9707
-6.9871 -0.1980 -2.4996 0.9707
-6.9755 -0.4485 -2.4997 0.9707
-6.9550 -0.6985 -2.4997 0.9707
-6.9255 -0.9476 -2.4997 0.9707
-6.8871 -1.1955 -2.4997 0.9707
-6.7838 -1.6863 -2.4998 0.9707
-6.7190 -1.9286 -2.4998 0.9707
-6.4731 -2.6395 -2.4999 0.9707
-6.3743 -2.8701 -2.4999 0.9707
-6.2673 -3.0970 -2.4999 0.9707
-5.7603 -3.9619 -2.5001 0.9707
-5.4616 -4.3649 -2.5002 0.9707
-5.3015 -4.5582 -2.5003 0.9707
-4.9612 -4.9268 -2.5004 0.9707
-4.5954 -5.2701 -2.5005 0.9707
-4.4034 -5.4317 -2.5005 0.9707
-4.2058 -5.5864 -2.5006 0.9707
-3.7946 -5.8738 -2.5007 0.9707
-3.5815 -6.0064 -2.5008 0.9707
-3.1417 -6.2480 -2.5009 0.9707
-2.2159 -6.6339 -2.5012 0.9707
0.3366 6.5186 -2.5014 0.9724
0.1026 6.5263 -2.5013 0.9724
-0.1317 6.5256 -2.5012 0.9724
-0.3657 6.5165 -2.5012 0.9724
-0.8320 6.4732 -2.5011 0.9724
-1.0637 6.4390 -2.5010 0.9724
-1.2940 6.3965 -2.5009 0.9724
-1.7492 6.2870 -2.5008 0.9724
-2.4145 6.0622 -2.5006 0.9724
-2.6304 5.9715 -2.5006 0.9724
-2.8429 5.8732 -2.5005 0.9724
-3.4571 5.5334 -2.5004 0.9724
-3.6535 5.4057 -2.5003 0.9724
-3.8450 5.2711 -2.5003 0.9724
-4.3889 4.8271 -2.5002 0.9724
-4.5592 4.6665 -2.5001 0.9724
-4.7236 4.4998 -2.5001 0.9724
-4.8819 4.3274 -2.5000 0.9724
-5.0340 4.1494 -2.5000 0.9724
-5.1795 3.9661 -2.5000 0.9724
-5.3184 3.7777 -2.4999 0.9724
-5.4505 3.5844 -2.4999 0.9724
-5.5755 3.3865 -2.4999 0.9724
-5.8039 2.9779 -2.4998 0.9724
-5.9069 2.7678 -2.4998 0.9724
-6.0024 2.5540 -2.4998 0.9724
-6.0901 2.3370 -2.4998 0.9724
-6.1700 2.1170 -2.4998 0.9724
-6.3059 1.6691 -2.4998 0.9724
-6.3617 1.4418 -2.4997 0.9724
-6.4487 0.9818 -2.4997 0.9724
-6.4798 0.7499 -2.4997 0.9724
-6.5229 0.0493 -2.4998 0.9724
-6.5205 -0.1848 -2.4998 0.9724
-6.5097 -0.4186 -2.4998 0.9724
-6.4905 -0.6519 -2.4998 0.9724
-6.4630 -0.8843 -2.4998 0.9724
-6.4271 -1.1156 -2.4998 0.9724
-6.3830 -1.3455 -2.4998 0.9724
-6.2702 -1.7998 -2.4999 0.9724
-6.2017 -2.0236 -2.4999 0.9724
-6.1252 -2.2448 -2.5000 0.9724
-6.0407 -2.4632 -2.5000 0.9724
-5.5046 -3.5020 -2.5002 0.9724
-5.3755 -3.6973 -2.5002 0.9724
-4.9474 -4.2537 -2.5003 0.9724
-4.7917 -4.4285 -2.5004 0.9724
-4.6298 -4.5977 -2.5004 0.9724
-4.1092 -5.0689 -2.5006 0.9724
-3.5411 -5.4814 -2.5008 0.9724
-3.1391 -5.7215 -2.5009 0.9724
-2.9318 -5.8306 -2.5009 0.9724
-2.2885 -6.1123 -2.5011 0.9724
-2.0678 -6.1906 -2.5012 0.9724
-1.8444 -6.2610 -2.5013 0.9724
0.3152 6.1036 -2.5014 0.9739
-0.7790 6.0611 -2.5011 0.9739
-1.4257 5.9420 -2.5009 0.9739
-1.6379 5.8868 -2.5009 0.9739
-1.8480 5.8241 -2.5008 0.9739
-2.2608 5.6764 -2.5007 0.9739
-2.8575 5.4002 -2.5005 0.9739
-3.0493 5.2942 -2.5005 0.9739
-3.2372 5.1813 -2.5005 0.9739
-3.4210 5.0617 -2.5004 0.9739
-3.7750 4.8032 -2.5003 0.9739
-4.1096 4.5200 -2.5002 0.9739
-4.2690 4.3695 -2.5002 0.9739
-4.4230 4.2135 -2.5002 0.9739
-4.7136 3.8854 -2.5001 0.9739
-4.8500 3.7137 -2.5001 0.9739
-4.9800 3.5373 -2.5000 0.9739
-5.1037 3.3563 -2.5000 0.9739
-5.2208 3.1711 -2.5000 0.9739
-5.3311 2.9816 -2.5000 0.9739
-5.4346 2.7884 -2.4999 0.9739
-5.5311 2.5916 -2.4999 0.9739
-5.6205 2.3915 -2.4999 0.9739
-5.7775 1.9823 -2.4999 0.9739
-5.8448 1.7737 -2.4999 0.9739
-5.9047 1.5629 -2.4999 0.9739
-6.0015 1.1354 -2.4999 0.9739
-6.0384 0.9194 -2.4999 0.9739
-6.1022 0.2652 -2.4999 0.9739
-6.0955 -0.3920 -2.4999 0.9739
-6.0775 -0.6104 -2.4999 0.9739
-6.0518 -0.8280 -2.4999 0.9739
-6.0182 -1.0447 -2.4999 0.9739
-5.9769 -1.2599 -2.5000 0.9739
-5.9279 -1.4736 -2.5000 0.9739
-5.8071 -1.8949 -2.5000 0.9739
-5.5701 -2.5080 -2.5001 0.9739
-5.3760 -2.9010 -2.5002 0.9739
-5.2685 -3.0921 -2.5002 0.9739
-5.0334 -3.4620 -2.5003 0.9739
-4.9061 -3.6404 -2.5003 0.9739
-4.7724 -3.8142 -2.5004 0.9739
-4.3352 -4.3051 -2.5005 0.9739
-3.4976 -5.0102 -2.5008 0.9739
-3.1295 -5.2483 -2.5009 0.9739
-2.3467 -5.6425 -2.5011 0.9739
-1.7270 -5.8624 -2.5013 0.9739
0.0902 5.7386 -2.5013 0.9753
-0.5269 5.7148 -2.5012 0.9753
-0.7316 5.6920 -2.5011 0.9753
-0.9353 5.6620 -2.5011 0.9753
-1.3389 5.5801 -2.5009 0.9753
-1.5382 5.5284 -2.5009 0.9753
-1.7355 5.4695 -2.5008 0.9753
-2.1232 5.3308 -2.5007 0.9753
-2.3130 5.2511 -2.5007 0.9753
-2.4999 5.1646 -2.5007 0.9753
-3.0402 4.8658 -2.5005 0.9753
-3.2127 4.7536 -2.5005 0.9753
-3.7047 4.3806 -2.5004 0.9753
-3.8594 4.2448 -2.5003 0.9753
-4.0092 4.1036 -2.5003 0.9753
-4.1538 3.9571 -2.5002 0.9753
-4.7930 3.1521 -2.5001 0.9753
-5.1038 2.6187 -2.5000 0.9753
-5.2784 2.2460 -2.5000 0.9753
-5.3555 2.0551 -2.5000 0.9753
-5.4258 1.8617 -2.5000 0.9753
-5.5453 1.4678 -2.5000 0.9753
-5.6363 1.0663 -2.5000 0.9753
-5.6709 0.8634 -2.5000 0.9753
-5.6982 0.6594 -2.5000 0.9753
-5.7076 -0.5733 -2.5000 0.9753
-5.6834 -0.7777 -2.5000 0.9753
-5.6519 -0.9811 -2.5000 0.9753
-5.6131 -1.1832 -2.5000 0.9753
-5.5139 -1.5827 -2.5001 0.9753
-5.4536 -1.7796 -2.5001 0.9753
-5.2310 -2.3553 -2.5002 0.9753
-5.1432 -2.5415 -2.5002 0.9753
-5.0488 -2.7244 -2.5003 0.9753
-4.8405 -3.0796 -2.5003 0.9753
-4.6074 -3.4188 -2.5004 0.9753
-4.2136 -3.8943 -2.5005 0.9753
-4.0712 -4.0430 -2.5006 0.9753
-3.9237 -4.1866 -2.5006 0.9753
-3.1138 -4.8200 -2.5009 0.9753
-2.7603 -5.0311 -2.5010 0.9753
-2.5780 -5.1271 -2.5010 0.9753
-2.3925 -5.2163 -2.5011 0.9753
-2.2038 -5.2989 -2.5011 0.9753
-1.8183 -5.4436 -2.5012 0.9753
-1.6219 -5.5054 -2.5013 0.9753
0.2787 5.3967 -2.5014 0.9765
-0.1090 5.4025 -2.5013 0.9765
-0.3027 5.3951 -2.5012 0.9765
-0.4961 5.3806 -2.5012 0.9765
-0.6888 5.3592 -2.5011 0.9765
-0.8806 5.3310 -2.5011 0.9765
-1.0713 5.2958 -2.5010 0.9765
-1.4483 5.2052 -2.5009 0.9765
-1.6340 5.1497 -2.5009 0.9765
-2.3537 4.8627 -2.5007 0.9765
-3.1835 4.3642 -2.5005 0.9765
-3.3380 4.2471 -2.5005 0.9765
-3.4882 4.1246 -2.5004 0.9765
-3.6338 3.9967 -2.5004 0.9765
-4.1680 3.4356 -2.5003 0.9765
-4.2885 3.2838 -2.5002 0.9765
-4.4035 3.1278 -2.5002 0.9765
-4.5129 2.9678 -2.5002 0.9765
-4.7140 2.6365 -2.5001 0.9765
-4.8055 2.4657 -2.5001 0.9765
-4.8909 2.2917 -2.5001 0.9765
-4.9699 2.1147 -2.5001 0.9765
-5.1683 1.5684 -2.5001 0.9765
-5.2212 1.3820 -2.5001 0.9765
-5.2674 1.1938 -2.5001 0.9765
-5.3395 0.8130 -2.5000 0.9765
-5.3652 0.6209 -2.5000 0.9765
-5.4009 0.0408 -2.5001 0.9765
-5.3899 -0.3466 -2.5001 0.9765
-5.3741 -0.5398 -2.5001 0.9765
-5.3513 -0.7322 -2.5001 0.9765
-5.2417 -1.3030 -2.5002 0.9765
-5.1916 -1.4902 -2.5002 0.9765
-5.0016 -2.0395 -2.5002 0.9765
-4.9253 -2.2176 -2.5003 0.9765
-4.8426 -2.3929 -2.5003 0.9765
-4.5576 -2.8995 -2.5004 0.9765
-4.3381 -3.2190 -2.5005 0.9765
-3.9673 -3.6666 -2.5006 0.9765
-3.8333 -3.8067 -2.5006 0.9765
-3.6943 -3.9418 -2.5007 0.9765
-3.4022 -4.1968 -2.5008 0.9765
-3.2495 -4.3162 -2.5008 0.9765
-3.0927 -4.4301 -2.5009 0.9765
-2.5989 -4.7370 -2.5010 0.9765
-2.2525 -4.9114 -2.5011 0.9765
-1.8947 -5.0604 -2.5012 0.9765
0.2630 5.0927 -2.5014 0.9775
0.0801 5.0987 -2.5014 0.9775
-0.1029 5.0982 -2.5013 0.9775
-0.8310 5.0306 -2.5011 0.9775
-1.0109 4.9975 -2.5011 0.9775
-1.1896 4.9579 -2.5010 0.9775
-1.5420 4.8597 -2.5009 0.9775
-1.8864 4.7364 -2.5008 0.9775
-2.5444 4.4176 -2.5007 0.9775
-2.7012 4.3234 -2.5006 0.9775
-3.1500 4.0079 -2.5005 0.9775
-3.6907 3.5159 -2.5004 0.9775
-3.8145 3.3812 -2.5004 0.9775
-3.9333 3.2421 -2.5003 0.9775
-4.0470 3.0989 -2.5003 0.9775
-4.1556 2.9517 -2.5003 0.9775
-4.2587 2.8007 -2.5003 0.9775
-4.4485 2.4880 -2.5002 0.9775
-4.5349 2.3268 -2.5002 0.9775
-4.6900 1.9956 -2.5002 0.9775
-4.8772 1.4801 -2.5001 0.9775
-5.0080 0.9475 -2.5001 0.9775
-5.0388 0.7672 -2.5001 0.9775
-5.0631 0.5859 -2.5001 0.9775
-5.0808 0.4039 -2.5001 0.9775
-5.0921 0.2213 -2.5001 0.9775
-5.0714 -0.5094 -2.5002 0.9775
-5.0499 -0.6910 -2.5002 0.9775
-4.8457 -1.5812 -2.5003 0.9775
-4.7199 -1.9246 -2.5003 0.9775
-4.6479 -2.0927 -2.5003 0.9775
-4.5699 -2.2582 -2.5004 0.9775
-4.4860 -2.4207 -2.5004 0.9775
-4.3963 -2.5801 -2.5004 0.9775
-4.2000 -2.8888 -2.5005 0.9775
-4.0938 -3.0377 -2.5005 0.9775
-3.9822 -3.1826 -2.5006 0.9775
-3.7438 -3.4601 -2.5006 0.9775
-3.3506 -3.8425 -2.5008 0.9775
-3.2106 -3.9604 -2.5008 0.9775
-2.9184 -4.1805 -2.5009 0.9775
-2.7666 -4.2826 -2.5009 0.9775
-2.6112 -4.3792 -2.5010 0.9775
-2.4525 -4.4701 -2.5010 0.9775
-1.9581 -4.7080 -2.5012 0.9775
-1.4412 -4.8915 -2.5013 0.9775
0.2487 4.8153 -2.5014 0.9785
0.0758 4.8210 -2.5014 0.9785
-0.2701 4.8138 -2.5013 0.9785
-0.4427 4.8010 -2.5012 0.9785
-0.9559 4.7253 -2.5011 0.9785
-1.1248 4.6880 -2.5010 0.9785
-1.2923 4.6445 -2.5010 0.9785
-1.7837 4.4785 -2.5009 0.9785
-1.9432 4.4116 -2.5008 0.9785
-2.4059 4.1770 -2.5007 0.9785
-2.5541 4.0879 -2.5007 0.9785
-2.6991 3.9936 -2.5006 0.9785
-2.8406 3.8942 -2.5006 0.9785
-2.9785 3.7897 -2.5006 0.9785
-3.1125 3.6804 -2.5005 0.9785
-3.6068 3.1971 -2.5004 0.9785
-3.7191 3.0656 -2.5004 0.9785
-3.8267 2.9302 -2.5004 0.9785
-3.9293 2.7910 -2.5004 0.9785
-4.1193 2.5020 -2.5003 0.9785
-4.2064 2.3525 -2.5003 0.9785
-4.4995 1.7266 -2.5002 0.9785
-4.6117 1.3995 -2.5002 0.9785
-4.7645 0.7254 -2.5002 0.9785
-4.7874 0.5540 -2.5002 0.9785
-4.8042 0.3819 -2.5002 0.9785
-4.8149 0.2093 -2.5002 0.9785
-4.8193 0.0364 -2.5002 0.9785
-4.8175 -0.1365 -2.5002 0.9785
-4.7953 -0.4816 -2.5002 0.9785
-4.7159 -0.9941 -2.5003 0.9785
-4.6772 -1.1627 -2.5003 0.9785
-4.6325 -1.3297 -2.5003 0.9785
-4.4630 -1.8198 -2.5004 0.9785
-4.3211 -2.1352 -2.5004 0.9785
-4.2417 -2.2889 -2.5005 0.9785
-4.1569 -2.4397 -2.5005 0.9785
-3.9714 -2.7315 -2.5006 0.9785
-3.8709 -2.8723 -2.5006 0.9785
-3.6550 -3.1426 -2.5007 0.9785
-3.5400 -3.2717 -2.5007 0.9785
-3.2964 -3.5172 -2.5008 0.9785
-3.1681 -3.6333 -2.5008 0.9785
-3.0358 -3.7447 -2.5008 0.9785
-2.3189 -4.2267 -2.5011 0.9785
-2.0099 -4.3823 -2.5011 0.9785
-1.8515 -4.4517 -2.5012 0.9785
0.2356 4.5610 -2.5014 0.9794
0.0718 4.5664 -2.5014 0.9794
-0.4193 4.5474 -2.5012 0.9794
-0.9054 4.4759 -2.5011 0.9794
-1.2240 4.3992 -2.5010 0.9794
-1.5363 4.3000 -2.5009 0.9794
-1.6895 4.2421 -2.5009 0.9794
-1.9893 4.1098 -2.5008 0.9794
-2.1355 4.0358 -2.5008 0.9794
-2.4193 3.8721 -2.5007 0.9794
-2.5566 3.7828 -2.5007 0.9794
-2.6907 3.6886 -2.5007 0.9794
-2.8212 3.5896 -2.5006 0.9794
-3.3056 3.1490 -2.5005 0.9794
-3.4164 3.0284 -2.5005 0.9794
-3.5228 2.9038 -2.5005 0.9794
-3.6247 2.7755 -2.5004 0.9794
-3.7219 2.6437 -2.5004 0.9794
-3.8143 2.5084 -2.5004 0.9794
-3.9018 2.3699 -2.5004 0.9794
-4.0617 2.0840 -2.5003 0.9794
-4.3179 1.4815 -2.5003 0.9794
-4.4130 1.1680 -2.5003 0.9794
-4.4521 1.0090 -2.5003 0.9794
-4.4854 0.8486 -2.5003 0.9794
-4.5130 0.6871 -2.5003 0.9794
-4.5347 0.5248 -2.5003 0.9794
-4.5649 0.0345 -2.5003 0.9794
-4.5422 -0.4562 -2.5003 0.9794
-4.4670 -0.9416 -2.5003 0.9794
-4.4304 -1.1013 -2.5004 0.9794
-4.3400 -1.4162 -2.5004 0.9794
-4.0930 -2.0225 -2.5005 0.9794
-4.0178 -2.1681 -2.5005 0.9794
-3.7617 -2.5873 -2.5006 0.9794
-3.6665 -2.7207 -2.5006 0.9794
-3.5666 -2.8505 -2.5007 0.9794
-3.4621 -2.9767 -2.5007 0.9794
-3.2398 -3.2173 -2.5008 0.9794
-2.6138 -3.7442 -2.5010 0.9794
-2.4778 -3.8356 -2.5010 0.9794
-2.3387 -3.9221 -2.5010 0.9794
-1.7537 -4.2166 -2.5012 0.9794
-1.6013 -4.2769 -2.5013 0.9794
0.2235 4.3268 -2.5014 0.9802
0.0681 4.3319 -2.5014 0.9802
-0.8590 4.2460 -2.5011 0.9802
-1.0107 4.2124 -2.5011 0.9802
-1.1612 4.1734 -2.5011 0.9802
-1.3102 4.1290 -2.5010 0.9802
-1.8872 3.8989 -2.5009 0.9802
-2.0258 3.8286 -2.5008 0.9802
-2.1619 3.7534 -2.5008 0.9802
-2.4254 3.5886 -2.5007 0.9802
-2.9137 3.2046 -2.5006 0.9802
-3.0267 3.0980 -2.5006 0.9802
-3.2410 2.8729 -2.5005 0.9802
-3.4386 2.6330 -2.5005 0.9802
-3.5309 2.5080 -2.5005 0.9802
-3.6185 2.3796 -2.5005 0.9802
-3.7016 2.2483 -2.5004 0.9802
-3.8532 1.9770 -2.5004 0.9802
-3.9216 1.8375 -2.5004 0.9802
-3.9850 1.6956 -2.5004 0.9802
-4.0433 1.5515 -2.5004 0.9802
-4.0963 1.4055 -2.5004 0.9802
-4.1441 1.2576 -2.5004 0.9802
-4.1866 1.1081 -2.5003 0.9802
-4.2236 0.9572 -2.5003 0.9802
-4.2552 0.8051 -2.5003 0.9802
-4.3020 0.4978 -2.5003 0.9802
-4.3266 0.1881 -2.5003 0.9802
-4.3290 -0.1227 -2.5004 0.9802
-4.3218 -0.2779 -2.5004 0.9802
-4.2908 -0.5871 -2.5004 0.9802
-4.2670 -0.7407 -2.5004 0.9802
-4.1628 -1.1949 -2.5004 0.9802
-4.0665 -1.4904 -2.5005 0.9802
-4.0104 -1.6353 -2.5005 0.9802
-3.9492 -1.7781 -2.5005 0.9802
-3.6544 -2.3249 -2.5006 0.9802
-3.1810 -2.9399 -2.5008 0.9802
-3.0735 -3.0522 -2.5008 0.9802
-2.9620 -3.1605 -2.5008 0.9802
-2.7279 -3.3649 -2.5009 0.9802
-2.6054 -3.4606 -2.5009 0.9802
-2.0837 -3.7980 -2.5011 0.9802
-1.9462 -3.8704 -2.5011 0.9802
-1.8061 -3.9378 -2.5012 0.9802
-1.6636 -4.0001 -2.5012 0.9802
-1.5191 -4.0573 -2.5013 0.9802
-1.3726 -4.1093 -2.5013 0.9802
