ply
format ascii 1.0
element vertex 1239
property float32 x
property float32 y
property float32 z
property float32 I
end_header
3.3000 3.9712 0.9104 0.9792
3.2970 4.2723 0.9516 0.9783
3.1741 4.4349 0.9616 0.9781
2.9698 4.4829 0.9482 0.9784
2.7645 4.5190 0.9341 0.9787
3.4047 6.5905 1.3080 0.9703
3.0794 6.5281 1.2727 0.9711
2.9508 8.5445 1.5939 0.9639
11.7625 44.1536 8.0570 0.8306
9.8343 43.1130 7.7973 0.8356
8.0867 42.4637 7.6221 0.8390
6.4833 42.2963 7.5451 0.8405
1.7727 40.3996 7.1304 0.8485
0.3085 39.7134 7.0028 0.8510
-0.8004 12.4109 2.1929 0.9507
-1.5108 10.9936 1.9567 0.9559
-1.9163 10.9889 1.9669 0.9557
-2.7429 10.9793 1.9954 0.9551
-3.5618 10.8574 2.0148 0.9546
-3.7499 9.1446 1.7428 0.9607
-4.5411 9.1353 1.7988 0.9594
-4.9571 9.1302 1.8319 0.9587
-5.3893 9.1250 1.8687 0.9579
-9.4778 10.9400 2.5523 0.9429
-10.1471 10.8924 2.6249 0.9413
-10.8973 10.8826 2.7156 0.9394
-11.2706 9.0485 2.5485 0.9430
-13.0696 9.0242 2.8005 0.9375
-15.4608 9.1032 3.1636 0.9297
-16.5873 8.9769 3.3256 0.9263
-18.0785 8.9563 3.5575 0.9213
-24.6630 11.1290 4.7710 0.8959
-27.0654 11.0560 5.1552 0.8880
-30.1183 11.0528 5.6570 0.8778
-30.1832 9.8565 5.5987 0.8790
3.2966 4.2717 0.8266 0.9784
3.2892 4.5958 0.8658 0.9774
2.7216 4.8323 0.8496 0.9778
3.2029 6.1997 1.0690 0.9722
2.7070 6.3199 1.0532 0.9726
3.2558 8.4292 1.3843 0.9641
3.0495 8.8306 1.4312 0.9629
2.7131 8.8829 1.4229 0.9631
11.7495 44.1048 6.9923 0.8314
4.8358 41.4942 6.3997 0.8445
-1.5116 10.9995 1.7009 0.9561
-2.7445 10.9853 1.7346 0.9552
-3.4721 9.4220 1.5383 0.9602
-3.7521 9.1499 1.5150 0.9608
-4.1417 9.1454 1.5380 0.9602
-4.5438 9.1407 1.5638 0.9595
-4.9601 9.1358 1.5925 0.9588
-5.3927 9.1306 1.6245 0.9580
-6.8100 9.1134 1.7429 0.9550
-9.5763 11.0536 2.2405 0.9425
-10.9055 10.8908 2.3611 0.9395
-11.1677 10.3755 2.3352 0.9402
-11.2801 9.0562 2.2161 0.9431
-13.2403 9.1421 2.4649 0.9370
-15.0952 8.8880 2.6836 0.9316
-16.6056 8.9868 2.8925 0.9264
-24.6943 11.1432 4.1504 0.8962
-27.4921 11.2303 4.5495 0.8868
-8.1679 2.3448 1.3018 0.9662
-33.5180 8.3258 5.2908 0.8696
3.2991 3.9702 0.6722 0.9794
3.2962 4.2711 0.7026 0.9785
3.1914 4.8173 0.7525 0.9770
2.7440 5.8171 0.8376 0.9744
3.2551 8.4273 1.1764 0.9642
3.2833 40.9882 5.3546 0.8472
-0.9262 9.1860 1.2023 0.9634
-1.2619 9.1825 1.2070 0.9633
-2.7460 10.9913 1.4753 0.9553
-3.4729 9.4242 1.3079 0.9603
-3.7542 9.1551 1.2885 0.9609
-4.5465 9.1461 1.3301 0.9596
-4.9631 9.1413 1.3545 0.9589
-5.3960 9.1362 1.3817 0.9581
-9.5829 11.0614 1.9058 0.9427
-10.2964 11.0527 1.9671 0.9409
-10.9136 10.8989 2.0085 0.9397
-11.0323 9.5317 1.8986 0.9429
-11.2896 9.0638 1.8853 0.9433
-12.2964 9.1626 1.9969 0.9400
-16.6237 8.9966 2.4614 0.9266
-24.7255 11.1573 3.5324 0.8964
-30.2007 11.0831 4.1892 0.8783
-30.1883 9.8581 4.1354 0.8798
3.0845 5.0421 0.6347 0.9765
2.8663 5.5483 0.6706 0.9752
3.2544 8.4255 0.9699 0.9643
3.0987 11.6318 1.2926 0.9527
2.6944 14.1484 1.5466 0.9437
1.0514 23.9613 2.5755 0.9080
-0.8039 12.4658 1.3414 0.9510
-3.3773 9.1646 1.0488 0.9615
-4.5492 9.1515 1.0974 0.9597
-5.3993 9.1418 1.1401 0.9582
-6.3231 9.1312 1.1927 0.9563
-6.8190 9.1254 1.2233 0.9552
-9.5896 11.0691 1.5726 0.9428
-10.3038 11.0606 1.6232 0.9410
-10.9217 10.9070 1.6575 0.9398
-11.1702 10.3778 1.6373 0.9405
-11.0334 9.5327 1.5658 0.9430
-13.2647 9.1590 1.7309 0.9372
-14.1545 9.0371 1.8033 0.9347
-16.6419 9.0064 2.0320 0.9267
-27.0767 11.0606 3.1408 0.8890
-28.7075 10.5351 3.2837 0.8842
-8.1756 2.3470 0.9134 0.9664
-31.5113 -16.3331 3.8113 0.8669
3.2681 4.2347 0.4528 0.9788
3.2686 6.9292 0.6486 0.9697
3.2618 7.6152 0.7013 0.9673
2.6684 10.0166 0.8775 0.9592
2.9289 19.1075 1.6364 0.9253
1.0451 23.8176 2.0182 0.9087
0.3096 39.8655 3.3748 0.8521
-0.8051 12.4840 1.0590 0.9510
-0.9271 9.1957 0.7824 0.9636
-1.9456 9.1851 0.7948 0.9630
-2.2938 9.1814 0.8011 0.9627
-3.0094 9.1737 0.8173 0.9620
-3.3792 9.1697 0.8273 0.9615
-4.1489 9.1613 0.8514 0.9604
-5.4026 9.1474 0.8993 0.9582
-6.3271 9.1370 0.9408 0.9564
-8.8070 10.9395 1.1889 0.9452
-10.9298 10.9151 1.3076 0.9399
-11.0419 10.2586 1.2759 0.9413
-11.3085 9.0789 1.2276 0.9434
-13.2768 9.1673 1.3658 0.9373
-24.0385 11.9090 2.2710 0.8979
-24.7876 11.1852 2.3021 0.8966
-26.9232 10.9979 2.4619 0.8898
-32.4579 -16.8238 3.0948 0.8635
3.2676 4.2341 0.3317 0.9788
3.1048 5.0752 0.3689 0.9764
2.8491 5.0586 0.3600 0.9770
2.8445 5.5061 0.3843 0.9755
3.2410 6.8706 0.4711 0.9700
3.2342 7.5506 0.5094 0.9676
3.2164 9.3136 0.6110 0.9613
3.0375 19.8162 1.2432 0.9228
1.9096 23.8388 1.4830 0.9086
1.0456 23.8301 1.4791 0.9088
-0.8063 12.5021 0.7769 0.9510
-0.9276 9.2006 0.5734 0.9636
-1.9467 9.1900 0.5825 0.9631
-2.6495 9.1826 0.5926 0.9624
-3.3810 9.1748 0.6063 0.9616
-3.7606 9.1708 0.6146 0.9611
-4.5545 9.1622 0.6345 0.9598
-4.9720 9.1577 0.6462 0.9591
-9.4773 10.9394 0.8975 0.9436
-10.9379 10.9231 0.9586 0.9399
-11.0431 10.2597 0.9347 0.9414
-11.0358 9.5347 0.9044 0.9432
-12.7171 8.7808 0.9583 0.9399
-13.5366 8.6426 0.9959 0.9377
-14.6568 8.6298 1.0547 0.9341
-18.1843 9.0087 1.2584 0.9219
-24.8185 11.1992 1.6884 0.8966
-27.6421 11.2916 1.8516 0.8872
-30.2084 11.0859 1.9954 0.8790
-30.1959 9.8606 1.9698 0.8805
-8.1833 2.3492 0.5279 0.9665
2.8198 5.0066 0.2266 0.9773
3.2254 8.3504 0.3530 0.9648
3.1203 10.2161 0.4212 0.9581
3.1691 13.8933 0.5619 0.9446
2.9136 15.2996 0.6141 0.9396
1.0462 23.8427 0.9410 0.9089
0.3055 39.3274 1.5508 0.8543
-0.8075 12.5203 0.4947 0.9510
-1.2646 9.2020 0.3663 0.9635
-1.9477 9.1949 0.3706 0.9631
-2.6509 9.1876 0.3771 0.9624
-3.0127 9.1838 0.3811 0.9620
-3.3829 9.1799 0.3858 0.9616
-4.5571 9.1675 0.4037 0.9598
-5.8617 9.1537 0.4286 0.9574
-6.8323 9.1433 0.4501 0.9553
-10.1908 10.9393 0.5895 0.9419
-10.9459 10.9312 0.6100 0.9400
-11.3272 9.0939 0.5728 0.9435
-12.3392 9.1946 0.6068 0.9403
-13.5496 8.6509 0.6339 0.9377
-14.6717 8.6386 0.6714 0.9341
-16.6960 9.0358 0.7486 0.9268
-18.2054 9.0191 0.8011 0.9219
-27.6796 11.3068 1.1790 0.8872
-30.2110 11.0868 1.2689 0.8791
-32.6148 -16.9051 1.4485 0.8632
3.2334 3.8911 0.0855 0.9800
3.2304 4.1859 0.0893 0.9791
3.2870 4.9616 0.1005 0.9765
3.2828 5.3662 0.1063 0.9751
3.2729 6.3353 0.1205 0.9719
3.2516 8.4183 0.1524 0.9645
3.2417 9.3870 0.1678 0.9610
3.1676 16.6335 0.2860 0.9345
1.9116 23.8640 0.4044 0.9087
-0.8086 12.5386 0.2122 0.9510
-1.2653 9.2068 0.1570 0.9635
-1.6050 9.2034 0.1578 0.9633
-1.9487 9.1998 0.1589 0.9631
-2.6524 9.1926 0.1616 0.9624
-3.0144 9.1889 0.1634 0.9621
-3.3848 9.1850 0.1654 0.9616
-3.7649 9.1811 0.1676 0.9611
-4.1560 9.1771 0.1702 0.9605
-4.5598 9.1729 0.1730 0.9598
-4.9779 9.1686 0.1762 0.9591
-5.4124 9.1641 0.1798 0.9583
-6.8368 9.1492 0.1929 0.9553
-9.4903 10.9545 0.2448 0.9437
-10.9540 10.9392 0.2615 0.9399
-11.0381 9.5368 0.2464 0.9433
-11.3366 9.1015 0.2456 0.9435
-13.1547 9.0830 0.2700 0.9380
-14.2090 9.0719 0.2848 0.9348
-16.7141 9.0455 0.3210 0.9268
-24.8382 11.2081 0.4603 0.8967
-27.0860 11.0644 0.4942 0.8895
-32.3443 -16.7649 0.6154 0.8644
3.2967 3.9673 -0.0290 0.9796
3.2936 4.2679 -0.0304 0.9787
3.2903 4.5973 -0.0318 0.9776
3.2865 4.9609 -0.0335 0.9765
3.2823 5.3654 -0.0354 0.9752
3.2776 5.8195 -0.0376 0.9736
3.2723 6.3342 -0.0401 0.9719
3.2662 6.9242 -0.0431 0.9698
3.2409 9.3848 -0.0559 0.9611
3.1934 13.9998 -0.0808 0.9442
3.1275 20.4033 -0.1162 0.9207
1.0473 23.8677 -0.1345 0.9089
-0.8098 12.5568 -0.0708 0.9509
-1.2659 9.2117 -0.0523 0.9635
-1.6058 9.2082 -0.0526 0.9633
-1.9498 9.2047 -0.0530 0.9631
-2.2988 9.2012 -0.0534 0.9628
-2.6538 9.1976 -0.0539 0.9624
-3.0161 9.1939 -0.0545 0.9620
-3.3867 9.1902 -0.0551 0.9616
-3.7670 9.1863 -0.0559 0.9611
-5.4157 9.1696 -0.0600 0.9583
-5.8689 9.1650 -0.0613 0.9574
-6.8412 9.1552 -0.0643 0.9553
-8.8306 10.9688 -0.0793 0.9452
-10.2053 10.9549 -0.0843 0.9419
-11.0393 9.5378 -0.0821 0.9433
-11.9992 8.9412 -0.0842 0.9419
-13.1658 9.0907 -0.0901 0.9380
-24.9108 11.2409 -0.1539 0.8964
-30.2160 11.0887 -0.1812 0.8792
-32.3186 -15.2986 -0.2013 0.8667
3.2932 4.2673 -0.1518 0.9787
3.2861 4.9602 -0.1675 0.9765
3.2818 5.3646 -0.1771 0.9751
3.2771 5.8186 -0.1880 0.9736
3.2718 6.3331 -0.2007 0.9719
3.2586 7.6077 -0.2330 0.9674
3.2402 9.3826 -0.2795 0.9611
3.2279 10.5682 -0.3111 0.9567
3.2124 12.0588 -0.3514 0.9513
3.1923 13.9951 -0.4042 0.9442
3.1260 20.3934 -0.5809 0.9208
-0.8110 12.5751 -0.3548 0.9508
-0.9296 9.2200 -0.2609 0.9636
-1.2666 9.2166 -0.2620 0.9635
-2.6553 9.2026 -0.2697 0.9624
-3.7691 9.1915 -0.2797 0.9610
-4.5651 9.1836 -0.2888 0.9598
-4.9839 9.1794 -0.2941 0.9591
-5.4190 9.1751 -0.3000 0.9583
-5.8726 9.1707 -0.3066 0.9574
-8.8365 10.9761 -0.3968 0.9452
-10.3478 11.1079 -0.4275 0.9411
-10.9701 10.9553 -0.4365 0.9398
-11.0404 9.5387 -0.4108 0.9433
-11.3553 9.1166 -0.4100 0.9434
-13.3374 9.2091 -0.4564 0.9372
-16.7503 9.0651 -0.5363 0.9266
-24.0365 11.9080 -0.7553 0.8982
-24.9426 11.2552 -0.7705 0.8963
-27.7921 11.3528 -0.8453 0.8868
-32.2781 -15.2795 -1.0056 0.8668
3.2928 4.2668 -0.2733 0.9786
3.2894 4.5961 -0.2866 0.9776
3.2813 5.3638 -0.3189 0.9751
3.2651 6.9217 -0.3881 0.9698
3.2495 8.4129 -0.4574 0.9645
3.2270 10.5654 -0.5603 0.9567
3.2115 12.0552 -0.6327 0.9513
2.1903 18.7945 -0.9596 0.9270
0.3061 39.4151 -1.9990 0.8540
-1.1470 40.5026 -2.0548 0.8502
-1.1148 11.0566 -0.5636 0.9565
-1.5189 11.0522 -0.5658 0.9563
-1.9266 11.0479 -0.5687 0.9561
-3.5816 10.9177 -0.5827 0.9550
-3.4795 9.4420 -0.5103 0.9605
-3.7713 9.1967 -0.5041 0.9610
-4.1632 9.1929 -0.5118 0.9604
-4.9868 9.1849 -0.5300 0.9590
-5.4223 9.1807 -0.5407 0.9582
-5.8762 9.1764 -0.5526 0.9573
-6.3512 9.1718 -0.5658 0.9563
-6.8501 9.1671 -0.5804 0.9552
-9.6360 11.1226 -0.7463 0.9428
-10.3552 11.1158 -0.7704 0.9410
-11.1787 10.3857 -0.7738 0.9407
-10.0430 8.6770 -0.6731 0.9482
-10.5084 8.4366 -0.6834 0.9475
-13.8241 8.1395 -0.8136 0.9378
-16.3723 8.1110 -0.9266 0.9294
-17.9431 8.0967 -0.9983 0.9242
-24.6059 8.0351 -1.3127 0.9015
-8.2796 2.3768 -0.4368 0.9661
-37.6271 7.9172 -1.9500 0.8573
3.2924 4.2663 -0.3951 0.9786
3.2889 4.5955 -0.4144 0.9776
3.2808 5.3630 -0.4610 0.9751
3.2761 5.8167 -0.4895 0.9736
3.2707 6.3310 -0.5225 0.9718
2.8210 9.2361 -0.7081 0.9620
2.5418 9.5414 -0.7240 0.9612
2.4209 12.7125 -0.9489 0.9494
1.9156 23.9144 -1.7591 0.9083
0.2329 29.9886 -2.1989 0.8867
-0.8486 29.9655 -2.1980 0.8867
-0.8134 12.6119 -0.9266 0.9506
-1.1154 11.0624 -0.8152 0.9564
-1.9276 11.0538 -0.8227 0.9560
-3.2715 8.8774 -0.6937 0.9628
-3.9188 8.6531 -0.6965 0.9626
-4.2807 8.6114 -0.7051 0.9622
-5.0816 8.6039 -0.7327 0.9607
-5.5071 8.5999 -0.7488 0.9599
-6.4200 8.5915 -0.7864 0.9579
-6.9131 8.5870 -0.8083 0.9567
-7.4352 8.5822 -0.8326 0.9555
-9.2126 8.5590 -0.9220 0.9508
-9.8994 8.5529 -0.9592 0.9489
-10.5095 8.4374 -0.9882 0.9474
-10.9683 8.1730 -1.0029 0.9466
-11.8258 8.1654 -1.0537 0.9440
-13.8382 8.1478 -1.1775 0.9376
-15.0361 8.1374 -1.2536 0.9337
-16.3914 8.1205 -1.3413 0.9293
-17.9657 8.1069 -1.4452 0.9240
-8.3021 2.3833 -0.6333 0.9660
-32.1738 7.9919 -2.4307 0.8755
-39.2283 8.2542 -2.9393 0.8515
-39.4522 6.8252 -2.9357 0.8516
-42.4214 5.7715 -3.1391 0.8422
-43.0880 4.2857 -3.1749 0.8406
-43.7177 2.7602 -3.2119 0.8389
-44.8590 -0.4089 -3.2893 0.8353
-45.8287 -3.7333 -3.3714 0.8316
-46.2436 -5.4525 -3.4142 0.8296
-46.6088 -7.2087 -3.4581 0.8277
-46.9083 -8.9987 -3.5021 0.8257
-47.3325 -12.6777 -3.5929 0.8216
-47.4522 -14.5635 -3.6395 0.8195
-29.3574 -15.2167 -2.4245 0.8758
3.2951 3.9654 -0.4950 0.9795
3.2847 4.9581 -0.5710 0.9764
3.2803 5.3622 -0.6035 0.9751
3.2755 5.8158 -0.6408 0.9735
3.2701 6.3299 -0.6840 0.9718
3.2567 7.6033 -0.7941 0.9673
1.9793 8.6775 -0.8545 0.9649
1.6518 8.6741 -0.8477 0.9651
1.3290 8.6706 -0.8421 0.9654
0.3800 8.6607 -0.8323 0.9658
-0.8720 8.6480 -0.8345 0.9657
-2.1574 8.6354 -0.8545 0.9649
-2.4907 8.6322 -0.8625 0.9645
-2.8311 8.6301 -0.8720 0.9642
-3.1791 8.6267 -0.8827 0.9637
-3.5362 8.6234 -0.8948 0.9632
-4.2832 8.6165 -0.9238 0.9621
-5.0847 8.6091 -0.9599 0.9606
-6.4242 8.5971 -1.0303 0.9578
-6.9178 8.5927 -1.0591 0.9566
-7.4403 8.5882 -1.0909 0.9554
-8.5827 8.5711 -1.1645 0.9524
-9.2197 8.5656 -1.2082 0.9507
-9.9073 8.5598 -1.2570 0.9487
-11.8367 8.1729 -1.3810 0.9438
-12.7886 8.1650 -1.4567 0.9409
-13.8524 8.1562 -1.5433 0.9374
-17.9883 8.1171 -1.8947 0.9238
-24.6875 8.0618 -2.4933 0.9009
-26.8710 7.7139 -2.6839 0.8937
-27.3700 6.7987 -2.7075 0.8929
-27.8525 5.8605 -2.7325 0.8919
-30.5412 4.1552 -2.9591 0.8835
-30.9929 3.0827 -2.9902 0.8824
-31.3982 1.9824 -3.0204 0.8812
-32.0825 -0.2924 -3.0802 0.8790
-32.3600 -1.4636 -3.1099 0.8779
-32.8469 -3.8729 -3.1753 0.8755
-33.1412 -6.3576 -3.2397 0.8732
-33.2548 -8.9070 -3.3052 0.8708
-33.2103 -10.1925 -3.3351 0.8697
-31.3193 -10.8631 -3.1825 0.8753
-30.8514 -13.2637 -3.2240 0.8738
-31.0029 -14.6758 -3.2931 0.8712
3.2881 4.5942 -0.6711 0.9775
3.2842 4.9574 -0.7064 0.9763
3.2750 5.8149 -0.7927 0.9735
3.2633 6.9179 -0.9086 0.9697
3.2371 9.3738 -1.1780 0.9608
2.6540 8.6897 -1.0793 0.9641
1.3297 8.6753 -1.0425 0.9653
1.0106 8.6719 -1.0371 0.9654
0.6943 8.6686 -1.0330 0.9656
0.0672 8.6621 -1.0290 0.9657
-0.2453 8.6589 -1.0290 0.9657
-0.5583 8.6558 -1.0303 0.9657
-0.8725 8.6526 -1.0330 0.9656
-1.8309 8.6432 -1.0495 0.9650
-2.1586 8.6401 -1.0579 0.9648
-2.4921 8.6369 -1.0678 0.9644
-2.8327 8.6349 -1.0795 0.9641
-3.1809 8.6316 -1.0927 0.9636
-3.9060 8.6250 -1.1247 0.9626
-5.9600 8.6068 -1.2436 0.9587
-6.9225 8.5986 -1.3112 0.9565
-7.4455 8.5942 -1.3507 0.9552
-8.5891 8.5775 -1.4419 0.9523
-9.2268 8.5723 -1.4960 0.9505
-9.9153 8.5667 -1.5565 0.9486
-10.5116 8.4391 -1.6012 0.9471
-10.9876 8.1873 -1.6277 0.9463
-11.8476 8.1805 -1.7102 0.9437
-18.0112 8.1274 -2.3472 0.9235
-19.8616 8.1132 -2.5485 0.9172
-21.2850 6.1104 -2.6305 0.9147
-21.6371 5.3746 -2.6483 0.9141
-21.9633 4.6214 -2.6661 0.9136
-24.0071 3.2662 -2.8780 0.9070
-24.2953 2.4165 -2.9002 0.9063
-24.9648 -0.2275 -2.9656 0.9043
-25.2371 -2.0558 -3.0077 0.9030
-25.3180 -2.9852 -3.0283 0.9024
-25.3606 -3.9224 -3.0483 0.9018
-25.3616 -4.8652 -3.0675 0.9012
-25.2127 -6.7530 -3.1005 0.9002
-25.0819 -7.6979 -3.1165 0.8997
-24.8896 -8.6329 -3.1293 0.8993
-24.6602 -9.5633 -3.1418 0.8989
-24.3745 -10.4792 -3.1516 0.8986
-24.0438 -11.3816 -3.1599 0.8984
-22.8515 -11.8445 -3.0574 0.9015
3.2943 3.9644 -0.7303 0.9794
3.2911 4.2646 -0.7633 0.9785
3.2876 4.5936 -0.8004 0.9774
3.2793 5.3606 -0.8904 0.9749
3.2745 5.8140 -0.9454 0.9734
3.2554 7.6002 -1.1715 0.9671
3.2467 8.4057 -1.2768 0.9643
2.6555 8.6945 -1.2881 0.9639
1.9815 8.6871 -1.2625 0.9646
1.6536 8.6835 -1.2525 0.9649
1.3304 8.6800 -1.2442 0.9651
-0.2455 8.6636 -1.2280 0.9656
-1.1893 8.6542 -1.2377 0.9653
-2.1598 8.6449 -1.2625 0.9646
-2.4935 8.6417 -1.2744 0.9643
-3.1827 8.6365 -1.3041 0.9635
-4.2883 8.6267 -1.3650 0.9618
-8.0010 8.5887 -1.6631 0.9537
-9.2340 8.5789 -1.7859 0.9504
-15.0858 8.1643 -2.4304 0.9330
-16.0727 7.9627 -2.5415 0.9301
-17.0441 6.2549 -2.5724 0.9293
-17.6035 5.0535 -2.5950 0.9287
-17.8668 4.4381 -2.6085 0.9283
-19.4944 3.3725 -2.8032 0.9232
-20.0851 1.2681 -2.8515 0.9219
-20.3431 -0.1854 -2.8825 0.9211
-20.4860 -1.6688 -2.9123 0.9203
-20.5128 -2.4186 -2.9266 0.9199
-20.4541 -3.9238 -2.9510 0.9193
-20.3865 -4.6792 -2.9637 0.9190
-20.1544 -6.1856 -2.9871 0.9184
-19.7444 -7.6570 -3.0006 0.9180
-19.5054 -8.3858 -3.0083 0.9178
-18.9152 -9.8042 -3.0187 0.9175
3.2907 4.2640 -0.8873 0.9784
3.2872 4.5930 -0.9305 0.9774
3.2833 4.9560 -0.9794 0.9762
3.2788 5.3598 -1.0351 0.9749
3.2740 5.8130 -1.0991 0.9733
3.2684 6.3267 -1.1731 0.9715
3.2547 7.5988 -1.3618 0.9670
3.2460 8.4039 -1.4841 0.9641
2.6570 8.6995 -1.4985 0.9638
1.9826 8.6919 -1.4687 0.9645
1.0117 8.6813 -1.4398 0.9652
0.6951 8.6779 -1.4342 0.9653
-0.2456 8.6682 -1.4286 0.9655
-0.5589 8.6651 -1.4304 0.9654
-1.1900 8.6589 -1.4399 0.9652
-1.5095 8.6558 -1.4475 0.9650
-2.1610 8.6496 -1.4687 0.9645
-2.4948 8.6466 -1.4825 0.9642
-2.8359 8.6446 -1.4988 0.9638
-3.1845 8.6415 -1.5172 0.9634
-3.5423 8.6383 -1.5381 0.9629
-4.2909 8.6318 -1.5880 0.9617
-4.6848 8.6285 -1.6174 0.9610
-5.5210 8.6216 -1.6866 0.9593
-5.9678 8.6180 -1.7269 0.9584
-6.4370 8.6142 -1.7715 0.9573
-6.9319 8.6104 -1.8210 0.9562
-8.0069 8.5949 -1.9351 0.9535
-8.6021 8.5904 -2.0027 0.9519
-9.2413 8.5857 -2.0780 0.9501
-11.8698 8.1958 -2.3763 0.9432
-12.8255 8.1886 -2.5068 0.9402
-13.7621 6.8180 -2.5301 0.9396
-14.2979 5.8406 -2.5444 0.9393
-8.1434 2.6593 -1.4113 0.9659
-14.9958 4.3049 -2.5702 0.9387
-15.5654 2.6928 -2.6023 0.9380
-16.7194 2.2747 -2.7797 0.9339
-16.8675 1.6777 -2.7924 0.9336
-17.2299 -2.6648 -2.8722 0.9318
-17.1827 -3.2962 -2.8823 0.9315
-17.0070 -4.5552 -2.9005 0.9311
-16.7005 -5.7926 -2.9120 0.9308
-16.5197 -6.4064 -2.9189 0.9307
-16.0702 -7.6072 -2.9290 0.9305
-15.8031 -8.1911 -2.9323 0.9304
3.2902 4.2635 -1.0123 0.9783
3.2867 4.5924 -1.0615 0.9773
3.2784 5.3589 -1.1808 0.9748
3.2734 5.8121 -1.2538 0.9732
3.2615 6.9141 -1.4369 0.9694
3.2541 7.5972 -1.5535 0.9669
3.2453 8.4021 -1.6930 0.9640
3.2348 9.3671 -1.8627 0.9605
2.3177 8.7005 -1.6924 0.9640
1.6554 8.6931 -1.6633 0.9646
1.0122 8.6860 -1.6437 0.9650
0.3808 8.6794 -1.6329 0.9653
0.0673 8.6761 -1.6308 0.9653
-1.5104 8.6605 -1.6524 0.9649
-1.8339 8.6575 -1.6634 0.9646
-2.8375 8.6495 -1.7110 0.9636
-3.1864 8.6465 -1.7320 0.9632
-3.5444 8.6434 -1.7559 0.9627
-3.9129 8.6402 -1.7828 0.9621
-4.2935 8.6371 -1.8129 0.9615
-5.0973 8.6305 -1.8840 0.9600
-5.5246 8.6271 -1.9255 0.9592
-9.2486 8.5925 -2.3728 0.9499
-9.9396 8.5877 -2.4690 0.9479
-10.2905 8.2616 -2.4804 0.9477
-10.9169 7.5379 -2.4936 0.9474
-11.2109 7.1578 -2.5001 0.9473
-12.4690 5.0935 -2.5317 0.9467
-8.1383 2.6576 -1.6092 0.9658
-13.2220 3.2844 -2.5607 0.9461
-13.3776 2.8148 -2.5695 0.9459
-13.5156 2.3382 -2.5781 0.9457
-14.6184 1.4540 -2.7612 0.9420
-14.8830 -0.6731 -2.8003 0.9412
-14.8974 -1.2135 -2.8094 0.9410
-14.8896 -1.7555 -2.8180 0.9408
-14.7772 -2.2855 -2.8106 0.9410
-14.7307 -3.3810 -2.8408 0.9403
-14.5209 -4.4565 -2.8550 0.9401
-14.1976 -5.5059 -2.8622 0.9399
3.2898 4.2629 -1.1382 0.9782
3.2823 4.9546 -1.2563 0.9760
3.2778 5.3581 -1.3277 0.9746
3.2729 5.8111 -1.4098 0.9731
3.2534 7.5957 -1.7467 0.9668
2.6600 8.7094 -1.9249 0.9635
1.6563 8.6979 -1.8716 0.9644
1.3326 8.6943 -1.8593 0.9647
-0.2459 8.6777 -1.8350 0.9651
-0.8743 8.6714 -1.8423 0.9650
-1.5112 8.6654 -1.8593 0.9647
-1.8349 8.6623 -1.8717 0.9644
-2.1634 8.6593 -1.8867 0.9642
-2.4977 8.6563 -1.9044 0.9638
-2.8392 8.6545 -1.9253 0.9634
-3.1882 8.6515 -1.9490 0.9630
-3.5465 8.6485 -1.9758 0.9625
-4.6906 8.6392 -2.0779 0.9606
-5.1005 8.6360 -2.1201 0.9598
-5.9756 8.6293 -2.2187 0.9580
-6.9416 8.6223 -2.3398 0.9558
-7.4667 8.6186 -2.4104 0.9544
-8.5660 7.9584 -2.4715 0.9533
-9.1529 7.3484 -2.4811 0.9531
-9.4244 7.0225 -2.4844 0.9531
-9.9499 6.3527 -2.4953 0.9529
-10.4267 5.6429 -2.5061 0.9527
-10.6458 5.2741 -2.5113 0.9526
-11.0436 4.5112 -2.5216 0.9524
-11.6875 2.9032 -2.5456 0.9520
-11.8194 2.4870 -2.5531 0.9518
-11.9351 2.0648 -2.5603 0.9517
-12.0351 1.6374 -2.5674 0.9516
-12.9681 0.8188 -2.7467 0.9483
-13.0292 0.3515 -2.7551 0.9481
-13.0974 -0.5924 -2.7714 0.9478
-13.0924 -1.5437 -2.7866 0.9475
-13.0529 -2.0188 -2.7919 0.9474
-13.0001 -2.4939 -2.7981 0.9473
-12.9307 -2.9679 -2.8044 0.9472
-12.8427 -3.4398 -2.8104 0.9471
-12.7366 -3.9090 -2.8162 0.9470
-12.4670 -4.8348 -2.8265 0.9468
-12.2922 -5.2847 -2.8283 0.9468
-11.9067 -6.1716 -2.8348 0.9466
3.2926 3.9624 -1.2108 0.9791
3.2894 4.2623 -1.2654 0.9781
3.2818 4.9539 -1.3966 0.9759
3.2667 6.3234 -1.6727 0.9712
3.2603 6.9115 -1.7960 0.9691
3.2527 7.5941 -1.9416 0.9666
2.6616 8.7145 -2.1415 0.9633
1.9860 8.7066 -2.0988 0.9640
1.6573 8.7029 -2.0821 0.9643
1.3334 8.6992 -2.0684 0.9645
0.6962 8.6923 -2.0494 0.9648
0.3812 8.6890 -2.0441 0.9649
0.0674 8.6857 -2.0414 0.9649
-0.2460 8.6825 -2.0414 0.9649
-0.5598 8.6794 -2.0441 0.9649
-0.8748 8.6762 -2.0494 0.9648
-1.5120 8.6702 -2.0684 0.9645
-2.1646 8.6643 -2.0989 0.9640
-2.8408 8.6595 -2.1419 0.9632
-3.5486 8.6536 -2.1981 0.9623
-3.9176 8.6506 -2.2319 0.9617
-5.9360 8.5722 -2.4505 0.9581
-6.2520 8.3667 -2.4547 0.9580
-6.8624 7.9211 -2.4631 0.9579
-7.4408 7.4308 -2.4715 0.9577
-7.9822 6.8964 -2.4792 0.9576
-8.9366 5.7057 -2.4919 0.9574
-9.1533 5.3894 -2.4964 0.9573
-9.3586 5.0648 -2.5009 0.9572
-9.7335 4.3922 -2.5097 0.9571
-9.9025 4.0451 -2.5140 0.9570
-10.0588 3.6914 -2.5182 0.9569
-7.9388 2.5925 -1.9628 0.9663
-10.5762 2.2254 -2.5401 0.9566
-10.6760 1.8470 -2.5464 0.9565
-10.7617 1.4642 -2.5525 0.9564
-10.8331 1.0775 -2.5586 0.9563
-11.6644 -0.1063 -2.7415 0.9532
-11.6683 -1.3757 -2.7613 0.9529
-11.6371 -1.7998 -2.7675 0.9528
-11.5896 -2.2233 -2.7735 0.9527
-11.4401 -3.0642 -2.7835 0.9525
-11.0909 -4.3011 -2.7958 0.9523
-10.9453 -4.7057 -2.8001 0.9522
-10.6003 -5.4944 -2.8061 0.9521
3.2813 4.9531 -1.5383 0.9757
3.2431 8.3965 -2.3305 0.9635
2.6632 8.7196 -2.3606 0.9630
2.3217 8.7155 -2.3353 0.9634
1.9871 8.7116 -2.3135 0.9638
0.0674 8.6905 -2.2502 0.9647
-0.2461 8.6874 -2.2502 0.9647
-1.1926 8.6781 -2.2680 0.9645
-1.8370 8.6722 -2.2952 0.9640
-2.8425 8.6646 -2.3610 0.9630
-3.1920 8.6617 -2.3901 0.9626
-3.5507 8.6589 -2.4231 0.9621
-3.8904 8.5906 -2.4417 0.9618
-4.5067 8.3007 -2.4455 0.9617
-4.8098 8.1438 -2.4489 0.9617
-5.3993 7.7972 -2.4556 0.9616
-5.6849 7.6079 -2.4590 0.9615
-6.9983 6.5019 -2.4733 0.9613
-7.4715 5.9985 -2.4808 0.9612
-7.6946 5.7336 -2.4845 0.9611
-7.9081 5.4604 -2.4882 0.9611
-8.1118 5.1791 -2.4918 0.9610
-8.3053 4.8901 -2.4954 0.9610
-8.4883 4.5938 -2.4990 0.9609
-8.8218 3.9808 -2.5059 0.9608
-8.9717 3.6649 -2.5093 0.9607
-7.9134 2.5842 -2.1554 0.9662
-8.0638 2.3149 -2.1722 0.9659
-9.5633 2.0123 -2.5303 0.9604
-9.6508 1.6696 -2.5359 0.9603
-9.7255 1.3232 -2.5413 0.9603
-9.7873 0.9735 -2.5466 0.9602
-9.8363 0.6210 -2.5518 0.9601
-10.4963 0.2832 -2.7187 0.9575
-10.5376 -0.4766 -2.7312 0.9574
-10.5175 -1.2401 -2.7420 0.9572
-10.4850 -1.6216 -2.7470 0.9571
-10.4395 -2.0026 -2.7523 0.9570
-10.3046 -2.7600 -2.7621 0.9569
-10.2153 -3.1351 -2.7667 0.9568
-10.1075 -3.5058 -2.7700 0.9568
-9.8572 -4.2378 -2.7781 0.9566
3.2918 3.9614 -1.4581 0.9788
3.2713 5.8082 -1.8871 0.9727
2.8114 8.1411 -2.4382 0.9648
1.9142 8.3919 -2.4367 0.9648
1.6104 8.4563 -2.4369 0.9648
1.3028 8.4995 -2.4343 0.9649
0.3767 8.5846 -2.4326 0.9649
-0.5531 8.5762 -2.4329 0.9649
-1.1705 8.5179 -2.4340 0.9649
-1.4782 8.4764 -2.4358 0.9649
-1.7844 8.4240 -2.4377 0.9648
-2.3888 8.2792 -2.4394 0.9648
-3.5652 7.8726 -2.4465 0.9647
-3.8510 7.7471 -2.4492 0.9647
-4.1324 7.6113 -2.4518 0.9646
-4.4090 7.4652 -2.4544 0.9646
-4.6757 7.3016 -2.4545 0.9646
-4.9395 7.1332 -2.4562 0.9646
-5.4548 6.7756 -2.4625 0.9645
-5.7029 6.5827 -2.4656 0.9644
-6.1784 6.1701 -2.4719 0.9644
-6.4050 5.9507 -2.4750 0.9643
-6.8346 5.4871 -2.4812 0.9642
-7.4149 4.7342 -2.4905 0.9641
-7.5901 4.4690 -2.4935 0.9640
-7.7556 4.1973 -2.4965 0.9640
-7.9114 3.9194 -2.4994 0.9640
-7.8914 2.5770 -2.3501 0.9661
-8.0413 2.3084 -2.3684 0.9658
-8.7199 1.8348 -2.5226 0.9636
-8.7983 1.5221 -2.5277 0.9636
-8.8652 1.2061 -2.5328 0.9635
-8.9198 0.8872 -2.5376 0.9634
-8.9624 0.5658 -2.5422 0.9634
-8.9932 0.2426 -2.5468 0.9633
-9.5792 -0.0873 -2.7119 0.9610
-9.5856 -0.7808 -2.7226 0.9608
-9.5691 -1.1282 -2.7277 0.9607
-9.5393 -1.4754 -2.7326 0.9607
-9.4963 -1.8217 -2.7373 0.9606
-9.2868 -2.8502 -2.7501 0.9604
-9.1915 -3.1881 -2.7541 0.9604
-9.0833 -3.5225 -2.7580 0.9603
-8.9628 -3.8533 -2.7618 0.9603
3.2758 5.3547 -1.9308 0.9741
3.2650 6.3199 -2.1880 0.9707
3.2584 6.9075 -2.3491 0.9685
3.1310 7.3099 -2.4459 0.9673
2.0431 7.6694 -2.4412 0.9673
1.2029 7.8473 -2.4419 0.9673
0.9182 7.8787 -2.4397 0.9674
0.3473 7.9158 -2.4371 0.9674
-0.2245 7.9267 -2.4391 0.9674
-0.7961 7.8955 -2.4408 0.9673
-1.0794 7.8549 -2.4387 0.9674
-1.3626 7.8134 -2.4395 0.9674
-1.9252 7.7058 -2.4430 0.9673
-2.2036 7.6370 -2.4448 0.9673
-3.0191 7.3623 -2.4475 0.9672
-3.5473 7.1360 -2.4511 0.9672
-3.8062 7.0103 -2.4535 0.9672
-4.7944 6.4161 -2.4636 0.9670
-5.0280 6.2454 -2.4661 0.9670
-5.2548 6.0655 -2.4684 0.9670
-5.8929 5.4749 -2.4740 0.9669
-6.0936 5.2648 -2.4769 0.9669
-6.2869 5.0474 -2.4798 0.9668
-6.6496 4.5914 -2.4854 0.9667
-6.8186 4.3534 -2.4883 0.9667
-7.1305 3.8590 -2.4938 0.9666
-7.5298 3.0759 -2.5018 0.9665
-7.6438 2.8052 -2.5044 0.9665
-7.7478 2.5301 -2.5069 0.9665
-7.8419 2.2512 -2.5094 0.9664
-8.1366 1.1070 -2.5257 0.9662
-8.1855 0.8142 -2.5301 0.9662
-8.2513 0.2226 -2.5388 0.9660
-8.2672 -0.0754 -2.5429 0.9660
-8.7904 -0.3976 -2.7065 0.9638
-8.7862 -0.7157 -2.7114 0.9638
-8.7699 -1.0340 -2.7161 0.9637
-8.7415 -1.3520 -2.7206 0.9637
-8.7010 -1.6691 -2.7250 0.9636
-8.5078 -2.6111 -2.7373 0.9634
-8.4201 -2.9205 -2.7412 0.9634
3.2909 3.9603 -1.7116 0.9785
3.2798 4.9509 -1.9741 0.9753
3.2752 5.3539 -2.0863 0.9739
3.2701 5.8062 -2.2151 0.9723
3.2644 6.3188 -2.3641 0.9705
3.1450 6.6672 -2.4504 0.9694
2.9018 6.7748 -2.4499 0.9694
2.6550 6.8738 -2.4494 0.9694
2.1510 7.0426 -2.4478 0.9694
1.3763 7.2274 -2.4456 0.9695
0.8519 7.3096 -2.4462 0.9695
0.5872 7.3308 -2.4446 0.9695
0.3220 7.3390 -2.4419 0.9695
-0.2081 7.3459 -2.4428 0.9695
-0.7378 7.3181 -2.4449 0.9695
-1.7835 7.1388 -2.4459 0.9695
-2.2968 7.0014 -2.4493 0.9694
-2.5498 6.9191 -2.4511 0.9694
-3.5254 6.4933 -2.4560 0.9693
-3.9903 6.2314 -2.4596 0.9693
-5.0680 5.4402 -2.4715 0.9691
-5.2661 5.2590 -2.4739 0.9691
-5.6425 4.8750 -2.4787 0.9691
-5.8203 4.6728 -2.4811 0.9690
-6.3093 4.0283 -2.4883 0.9689
-6.5958 3.5696 -2.4930 0.9689
-6.9622 2.8440 -2.4999 0.9688
-7.2479 2.0807 -2.5065 0.9687
-7.5135 1.0222 -2.5205 0.9685
-7.5920 0.4794 -2.5286 0.9684
-7.6295 -0.0695 -2.5362 0.9684
-7.6330 -0.3452 -2.5398 0.9683
-8.0872 -0.9535 -2.7068 0.9663
-8.0217 -1.5388 -2.7151 0.9662
-7.9131 -2.1194 -2.7230 0.9661
-7.7607 -2.6918 -2.7305 0.9660
3.2905 3.9597 -1.8411 0.9784
3.2834 4.5878 -2.0175 0.9763
3.2747 5.3530 -2.2441 0.9737
2.9275 6.2060 -2.4538 0.9713
2.7012 6.3063 -2.4533 0.9713
2.4714 6.3985 -2.4529 0.9713
2.0031 6.5582 -2.4522 0.9713
1.7636 6.6204 -2.4500 0.9713
1.0378 6.7702 -2.4493 0.9713
0.5470 6.8293 -2.4500 0.9713
0.3002 6.8419 -2.4490 0.9713
-0.4404 6.8287 -2.4470 0.9713
-0.6867 6.8111 -2.4480 0.9713
-0.9324 6.7848 -2.4491 0.9713
-1.1771 6.7498 -2.4502 0.9713
-1.4205 6.7062 -2.4514 0.9713
-1.6614 6.6502 -2.4512 0.9713
-2.1370 6.5142 -2.4517 0.9713
-2.6047 6.3519 -2.4550 0.9713
-3.0603 6.1563 -2.4586 0.9712
-3.2828 6.0464 -2.4604 0.9712
-3.5014 5.9285 -2.4622 0.9712
-3.7158 5.8027 -2.4641 0.9712
-3.9241 5.6667 -2.4649 0.9711
-4.3265 5.3741 -2.4672 0.9711
-4.5216 5.2191 -2.4694 0.9711
-5.0727 4.7128 -2.4761 0.9710
-5.2441 4.5309 -2.4783 0.9710
-5.7184 3.9484 -2.4850 0.9709
-5.8623 3.7429 -2.4872 0.9709
-6.2487 3.0957 -2.4938 0.9708
-6.3618 2.8708 -2.4959 0.9708
-6.4667 2.6416 -2.4980 0.9708
-6.5632 2.4086 -2.5001 0.9707
-6.6514 2.1721 -2.5022 0.9707
-6.7308 1.9322 -2.5042 0.9707
-6.8634 1.4442 -2.5081 0.9706
-7.0116 0.6974 -2.5198 0.9705
-7.0423 0.4447 -2.5234 0.9705
-7.0763 -0.0645 -2.5306 0.9704
-7.0793 -0.3202 -2.5342 0.9703
-7.0569 -0.8320 -2.5411 0.9703
-7.4697 -1.1553 -2.7030 0.9684
-7.2655 -2.2298 -2.7178 0.9682
-7.1892 -2.4935 -2.7212 0.9682
-7.1007 -2.7537 -2.7235 0.9682
-6.8991 -3.2658 -2.7296 0.9681
3.2788 4.9493 -2.2751 0.9749
3.2741 5.3521 -2.4044 0.9735
3.1551 5.6019 -2.4638 0.9728
2.9465 5.7035 -2.4601 0.9729
2.7352 5.7984 -2.4569 0.9729
2.5238 5.8922 -2.4564 0.9729
2.0917 6.0570 -2.4556 0.9729
1.8716 6.1278 -2.4554 0.9729
1.1971 6.2860 -2.4522 0.9730
0.7409 6.3573 -2.4527 0.9730
0.5111 6.3808 -2.4531 0.9730
-0.1811 6.3932 -2.4510 0.9730
-0.4114 6.3797 -2.4499 0.9730
-0.6416 6.3631 -2.4508 0.9730
-0.8711 6.3384 -2.4518 0.9730
-1.0996 6.3055 -2.4528 0.9730
-1.5528 6.2155 -2.4551 0.9729
-1.7769 6.1584 -2.4563 0.9729
-1.9980 6.0907 -2.4564 0.9729
-2.2156 6.0124 -2.4555 0.9729
-3.4693 5.4176 -2.4653 0.9728
-3.6651 5.2927 -2.4671 0.9728
-3.8564 5.1609 -2.4689 0.9728
-4.5711 4.5649 -2.4756 0.9727
-4.8931 4.2275 -2.4780 0.9727
-5.3346 3.6834 -2.4843 0.9726
-5.5955 3.2946 -2.4884 0.9726
-5.7154 3.0931 -2.4904 0.9725
-5.8280 2.8873 -2.4924 0.9725
-5.9331 2.6773 -2.4944 0.9725
-6.2758 1.8016 -2.5021 0.9724
-6.3993 1.3465 -2.5060 0.9724
-6.5614 0.4143 -2.5194 0.9722
-6.5920 -0.0601 -2.5262 0.9722
-6.5937 -0.2982 -2.5294 0.9721
-6.5867 -0.5365 -2.5325 0.9721
-6.5708 -0.7747 -2.5355 0.9721
-6.8225 -1.8273 -2.7066 0.9702
-6.7596 -2.0746 -2.7096 0.9702
-6.6881 -2.3198 -2.7128 0.9701
-6.3111 -3.2713 -2.7241 0.9700
3.2896 3.9587 -2.1066 0.9780
3.1462 5.1429 -2.4675 0.9743
2.5643 5.4362 -2.4600 0.9744
1.7544 5.7442 -2.4582 0.9744
1.5459 5.8032 -2.4579 0.9744
1.1221 5.8925 -2.4550 0.9744
0.9089 5.9296 -2.4552 0.9744
0.6945 5.9592 -2.4554 0.9744
0.4791 5.9811 -2.4558 0.9744
0.2631 5.9955 -2.4561 0.9744
-0.3861 5.9860 -2.4550 0.9744
-0.6013 5.9640 -2.4533 0.9744
-0.8164 5.9407 -2.4542 0.9744
-1.2437 5.8712 -2.4562 0.9744
-1.4553 5.8250 -2.4573 0.9744
-1.6652 5.7713 -2.4584 0.9744
-1.8732 5.7101 -2.4595 0.9744
-2.2820 5.5649 -2.4616 0.9743
-2.6773 5.3859 -2.4616 0.9743
-2.8717 5.2891 -2.4632 0.9743
-3.0626 5.1855 -2.4648 0.9743
-3.6122 4.8340 -2.4698 0.9743
-3.7869 4.7038 -2.4715 0.9742
-3.9569 4.5673 -2.4732 0.9742
-4.1219 4.4247 -2.4749 0.9742
-4.2819 4.2761 -2.4767 0.9742
-4.5856 3.9619 -2.4802 0.9741
-4.9975 3.4507 -2.4855 0.9741
-5.2408 3.0857 -2.4891 0.9741
-5.3525 2.8967 -2.4909 0.9740
-5.8055 1.8958 -2.4995 0.9739
-5.8741 1.6863 -2.5012 0.9739
-5.9350 1.4742 -2.5029 0.9739
-5.9883 1.2600 -2.5045 0.9739
-6.0337 1.0438 -2.5061 0.9739
-6.0754 0.8266 -2.5094 0.9738
-6.1094 0.6077 -2.5128 0.9738
-6.1354 0.3874 -2.5160 0.9738
-6.1531 0.1660 -2.5192 0.9737
-6.1625 -0.0562 -2.5222 0.9737
-6.1566 -0.5015 -2.5281 0.9737
-6.1413 -0.7241 -2.5309 0.9736
-6.1183 -0.9462 -2.5338 0.9736
-6.0867 -1.1676 -2.5365 0.9736
-6.0478 -1.3881 -2.5396 0.9735
-6.3729 -1.7069 -2.7002 0.9719
-6.3143 -1.9379 -2.7033 0.9719
-6.2471 -2.1668 -2.7062 0.9718
-6.1713 -2.3933 -2.7090 0.9718
2.9571 4.8338 -2.4696 0.9756
2.5975 5.0279 -2.4664 0.9756
2.4113 5.1117 -2.4632 0.9756
2.2238 5.1920 -2.4616 0.9757
1.2554 5.5039 -2.4603 0.9757
0.8544 5.5741 -2.4576 0.9757
0.4504 5.6225 -2.4582 0.9757
0.2473 5.6359 -2.4586 0.9757
-0.1598 5.6410 -2.4594 0.9757
-0.5660 5.6133 -2.4588 0.9757
-0.9687 5.5546 -2.4573 0.9757
-1.1689 5.5182 -2.4583 0.9757
-1.3678 5.4747 -2.4593 0.9757
-1.7604 5.3664 -2.4614 0.9757
-1.9538 5.3018 -2.4625 0.9756
-2.1448 5.2304 -2.4637 0.9756
-2.3332 5.1521 -2.4649 0.9756
-2.7004 4.9737 -2.4665 0.9756
-3.2252 4.6576 -2.4690 0.9756
-3.3933 4.5411 -2.4706 0.9756
-4.0217 4.0163 -2.4771 0.9755
-4.3066 3.7208 -2.4804 0.9755
-4.4410 3.5655 -2.4820 0.9755
-4.5698 3.4052 -2.4837 0.9754
-4.9208 2.8974 -2.4887 0.9754
-5.1237 2.5384 -2.4920 0.9754
-5.2154 2.3534 -2.4937 0.9753
-5.3004 2.1652 -2.4953 0.9753
-5.3785 1.9738 -2.4969 0.9753
-5.4497 1.7796 -2.4985 0.9753
-5.5138 1.5829 -2.5001 0.9753
-5.6206 1.1827 -2.5032 0.9752
-5.6630 0.9797 -2.5047 0.9752
-5.7309 0.5700 -2.5099 0.9752
-5.7734 -0.4703 -2.5245 0.9750
-5.7591 -0.6790 -2.5273 0.9750
-5.7369 -0.8873 -2.5300 0.9750
-5.7069 -1.0948 -2.5325 0.9750
-5.6241 -1.5063 -2.5375 0.9749
-5.9171 -1.8160 -2.6975 0.9734
-5.8539 -2.0304 -2.7003 0.9733
-5.7825 -2.2425 -2.7030 0.9733
-5.7032 -2.4519 -2.7055 0.9733
-5.6160 -2.6584 -2.7079 0.9733
3.2886 3.9575 -2.3818 0.9776
3.2655 4.2314 -2.4741 0.9767
2.7864 4.5547 -2.4715 0.9767
2.4482 4.7391 -2.4691 0.9768
2.0957 4.8928 -2.4638 0.9768
1.9176 4.9645 -2.4635 0.9768
1.5543 5.0888 -2.4629 0.9768
1.3696 5.1411 -2.4627 0.9768
0.9952 5.2259 -2.4625 0.9768
0.8054 5.2542 -2.4605 0.9768
0.4244 5.2984 -2.4604 0.9768
0.2330 5.3110 -2.4607 0.9768
-0.1506 5.3157 -2.4615 0.9768
-0.5337 5.2931 -2.4625 0.9768
-0.9134 5.2375 -2.4609 0.9768
-1.1014 5.1994 -2.4601 0.9768
-1.2887 5.1583 -2.4611 0.9768
-1.4746 5.1105 -2.4620 0.9768
-1.6587 5.0560 -2.4631 0.9768
-1.8407 4.9951 -2.4641 0.9768
-2.0206 4.9276 -2.4652 0.9768
-2.8790 4.4958 -2.4711 0.9767
-3.0403 4.3905 -2.4720 0.9767
-3.1970 4.2783 -2.4722 0.9767
-3.3501 4.1612 -2.4728 0.9767
-3.6459 3.9137 -2.4758 0.9767
-3.7871 3.7820 -2.4774 0.9767
-4.0550 3.5035 -2.4805 0.9767
-4.4181 3.0506 -2.4852 0.9766
-4.5282 2.8911 -2.4868 0.9766
-4.6324 2.7276 -2.4884 0.9766
-4.8231 2.3894 -2.4915 0.9766
-5.0623 1.8578 -2.4961 0.9765
-5.1291 1.6750 -2.4976 0.9765
-5.1893 1.4897 -2.4991 0.9765
-5.2427 1.3023 -2.5005 0.9765
-5.3291 0.9219 -2.5034 0.9764
-5.3619 0.7295 -2.5048 0.9764
-5.3903 0.5361 -2.5074 0.9764
-5.4124 0.3418 -2.5103 0.9764
-5.4274 0.1465 -2.5132 0.9764
-5.4358 -0.2458 -2.5187 0.9763
-5.3940 -0.8343 -2.5265 0.9762
-5.3654 -1.0293 -2.5289 0.9762
-5.2367 -1.6072 -2.5356 0.9761
-5.1802 -1.7968 -2.5380 0.9761
2.9363 4.1028 -2.4748 0.9778
2.7855 4.2047 -2.4740 0.9778
2.4736 4.3919 -2.4725 0.9778
2.3126 4.4765 -2.4715 0.9778
2.1471 4.5517 -2.4686 0.9778
1.8110 4.6887 -2.4655 0.9779
1.6405 4.7504 -2.4652 0.9779
1.4679 4.8061 -2.4650 0.9779
1.2935 4.8555 -2.4648 0.9779
0.2201 5.0158 -2.4627 0.9779
0.0390 5.0212 -2.4631 0.9779
-0.3233 5.0126 -2.4639 0.9779
-0.6841 4.9783 -2.4649 0.9779
-0.8635 4.9515 -2.4655 0.9779
-1.0411 4.9152 -2.4645 0.9779
-1.5662 4.7741 -2.4646 0.9779
-2.0754 4.5827 -2.4677 0.9778
-2.4025 4.4251 -2.4699 0.9778
-2.8707 4.1455 -2.4734 0.9778
-3.1652 3.9317 -2.4759 0.9778
-3.8269 3.3064 -2.4808 0.9777
-3.9459 3.1679 -2.4821 0.9777
-4.0600 3.0253 -2.4836 0.9777
-4.1690 2.8786 -2.4851 0.9777
-4.3709 2.5736 -2.4880 0.9777
-4.5504 2.2544 -2.4910 0.9776
-4.6315 2.0900 -2.4924 0.9776
-4.7066 1.9227 -2.4939 0.9776
-4.7756 1.7526 -2.4953 0.9776
-4.8391 1.5802 -2.4970 0.9776
-4.8962 1.4056 -2.4987 0.9776
-4.9464 1.2287 -2.5001 0.9775
-4.9902 1.0500 -2.5014 0.9775
-5.0274 0.8698 -2.5027 0.9775
-5.0582 0.6882 -2.5040 0.9775
-5.1031 0.3222 -2.5082 0.9775
-5.1239 -0.0467 -2.5135 0.9774
-5.1242 -0.2317 -2.5161 0.9774
-5.1177 -0.4169 -2.5186 0.9774
-5.1041 -0.6018 -2.5210 0.9774
-5.0837 -0.7863 -2.5233 0.9773
-5.0566 -0.9700 -2.5256 0.9773
-4.9820 -1.3344 -2.5299 0.9773
-4.7541 -2.0439 -2.5384 0.9772
-4.8864 -2.5328 -2.6998 0.9758
2.9172 3.7801 -2.4771 0.9787
2.6354 3.9781 -2.4756 0.9787
2.3404 4.1554 -2.4741 0.9787
2.1884 4.2360 -2.4735 0.9787
1.8734 4.3737 -2.4684 0.9788
1.3890 4.5478 -2.4669 0.9788
1.0574 4.6355 -2.4666 0.9788
0.8894 4.6705 -2.4665 0.9788
0.7203 4.6994 -2.4664 0.9788
0.5502 4.7211 -2.4658 0.9788
0.3793 4.7349 -2.4642 0.9788
0.2082 4.7461 -2.4645 0.9788
0.0369 4.7511 -2.4649 0.9788
-0.3059 4.7429 -2.4657 0.9788
-0.9857 4.6536 -2.4677 0.9788
-1.6443 4.4619 -2.4669 0.9788
-2.1193 4.2634 -2.4699 0.9788
-2.2727 4.1860 -2.4710 0.9788
-2.4233 4.1030 -2.4721 0.9788
-2.7153 3.9212 -2.4743 0.9787
-2.9938 3.7187 -2.4767 0.9787
-3.3830 3.3784 -2.4803 0.9787
-3.5044 3.2558 -2.4815 0.9787
-3.8415 2.8626 -2.4853 0.9786
-3.9444 2.7235 -2.4866 0.9786
-4.1347 2.4345 -2.4892 0.9786
-4.2221 2.2850 -2.4905 0.9786
-4.3040 2.1323 -2.4918 0.9786
-4.4512 1.8183 -2.4944 0.9786
-4.5162 1.6574 -2.4957 0.9786
-4.6760 1.1615 -2.4995 0.9785
-4.7523 0.8222 -2.5020 0.9785
-4.7812 0.6505 -2.5033 0.9785
-4.8204 0.3043 -2.5057 0.9785
-4.8406 -0.0441 -2.5113 0.9784
-4.8405 -0.2189 -2.5137 0.9784
-4.8014 -0.7426 -2.5205 0.9783
-4.7755 -0.9161 -2.5226 0.9783
-4.7436 -1.0888 -2.5249 0.9783
-4.7053 -1.2602 -2.5270 0.9783
-4.5523 -1.7654 -2.5330 0.9782
-4.4193 -2.0919 -2.5365 0.9782
-4.3440 -2.2516 -2.5383 0.9782
2.8930 3.4815 -2.4792 0.9796
2.7647 3.5824 -2.4785 0.9796
2.4977 3.7702 -2.4770 0.9796
2.3594 3.8568 -2.4763 0.9796
1.9265 4.0840 -2.4732 0.9796
1.7761 4.1466 -2.4707 0.9796
1.4714 4.2607 -2.4688 0.9797
1.3166 4.3106 -2.4686 0.9797
1.0022 4.3938 -2.4683 0.9797
0.8431 4.4270 -2.4682 0.9797
0.3597 4.4903 -2.4672 0.9797
0.0350 4.5032 -2.4665 0.9797
-0.4520 4.4828 -2.4677 0.9797
-0.6135 4.4645 -2.4682 0.9797
-1.0930 4.3749 -2.4698 0.9796
-1.4059 4.2855 -2.4703 0.9796
-1.5591 4.2308 -2.4696 0.9796
-1.7104 4.1710 -2.4691 0.9797
-1.8604 4.1082 -2.4700 0.9796
-2.1536 3.9665 -2.4720 0.9796
-2.2962 3.8879 -2.4730 0.9796
-2.4360 3.8041 -2.4741 0.9796
-2.5728 3.7154 -2.4752 0.9796
-2.7063 3.6218 -2.4763 0.9796
-2.8365 3.5233 -2.4774 0.9796
-2.9631 3.4203 -2.4785 0.9796
-3.0860 3.3127 -2.4797 0.9796
-3.6390 2.7116 -2.4856 0.9795
-3.7363 2.5798 -2.4868 0.9795
-4.3332 1.4150 -2.4966 0.9794
-4.3835 1.2584 -2.4978 0.9794
-4.4282 1.1000 -2.4990 0.9794
-4.4671 0.9400 -2.5002 0.9794
-4.5003 0.7785 -2.5014 0.9794
-4.5275 0.6160 -2.5026 0.9794
-4.5489 0.4525 -2.5037 0.9794
-4.5643 0.2882 -2.5048 0.9794
-4.5812 -0.0417 -2.5092 0.9793
-4.5808 -0.2072 -2.5115 0.9793
-4.5744 -0.3726 -2.5137 0.9793
-4.5434 -0.7027 -2.5180 0.9793
-4.5190 -0.8669 -2.5202 0.9792
-4.4886 -1.0302 -2.5223 0.9792
-4.4096 -1.3534 -2.5264 0.9792
-4.3068 -1.6702 -2.5300 0.9792
2.7458 3.3043 -2.4804 0.9804
2.6240 3.4002 -2.4797 0.9804
2.2394 3.6607 -2.4776 0.9804
1.9687 3.8108 -2.4764 0.9804
1.8291 3.8775 -2.4752 0.9804
1.5418 3.9918 -2.4706 0.9804
1.2498 4.0919 -2.4702 0.9804
1.1013 4.1341 -2.4700 0.9804
0.9514 4.1709 -2.4699 0.9804
0.8002 4.2024 -2.4698 0.9804
0.1874 4.2718 -2.4687 0.9804
0.0332 4.2746 -2.4680 0.9804
-0.1211 4.2736 -2.4684 0.9804
-0.4290 4.2551 -2.4692 0.9804
-1.1869 4.1134 -2.4717 0.9804
-1.4811 4.0192 -2.4730 0.9804
-1.6251 3.9629 -2.4729 0.9804
-1.7667 3.9010 -2.4724 0.9804
-2.1791 3.6895 -2.4739 0.9804
-2.4414 3.5256 -2.4759 0.9804
-2.6916 3.3433 -2.4780 0.9804
-2.8117 3.2454 -2.4791 0.9804
-3.0410 3.0370 -2.4813 0.9803
-3.1500 2.9266 -2.4824 0.9803
-3.3559 2.6943 -2.4847 0.9803
-3.4525 2.5726 -2.4858 0.9803
-3.7154 2.1876 -2.4893 0.9803
-3.8671 1.9159 -2.4916 0.9803
-3.9356 1.7759 -2.4928 0.9803
-3.9989 1.6336 -2.4940 0.9802
-4.0571 1.4889 -2.4951 0.9802
-4.1101 1.3422 -2.4963 0.9802
-4.2000 1.0433 -2.4986 0.9802
-4.2369 0.8915 -2.4997 0.9802
-4.2682 0.7384 -2.5008 0.9802
-4.3286 0.2733 -2.5041 0.9802
-4.3427 -0.0396 -2.5073 0.9801
-4.3422 -0.1963 -2.5095 0.9801
-4.2195 -1.1301 -2.5220 0.9800
-4.1790 -1.2825 -2.5238 0.9800
-4.1329 -1.4334 -2.5255 0.9800
-4.0812 -1.5827 -2.5272 0.9800
-4.0240 -1.7300 -2.5288 0.9800
-3.9614 -1.8752 -2.5304 0.9800
