ply
format ascii 1.0
element vertex 1215
property float32 x
property float32 y
property float32 z
property float32 I
end_header
-23.5978 -14.4674 4.8807 0.8937
4.9597 -40.6330 7.2179 0.8468
6.9819 -44.0603 7.8660 0.8343
9.2325 -39.6905 7.1853 0.8475
11.3575 -41.9762 7.6677 0.8381
11.1549 -36.0683 6.6570 0.8578
1.0350 -2.6579 0.5029 0.9885
1.0320 -2.3938 0.4597 0.9895
1.0273 -1.9809 0.3935 0.9910
1.0513 -1.5855 0.3354 0.9923
1.1343 -1.5849 0.3437 0.9921
1.4114 -1.5826 0.3739 0.9914
1.6267 -1.5809 0.4000 0.9908
2.1702 -1.5768 0.4730 0.9892
3.4112 -1.9587 0.6936 0.9842
3.4094 -1.7991 0.6797 0.9845
3.4077 -1.6455 0.6673 0.9847
3.4045 -1.3537 0.6460 0.9852
3.3959 -0.5630 0.6070 0.9861
3.2940 -0.1886 0.5818 0.9867
2.9751 -0.0639 0.5247 0.9880
2.8196 0.0400 0.4972 0.9886
2.8186 0.1407 0.4976 0.9886
-23.5877 -14.4612 4.2386 0.8941
-17.4206 -19.2618 3.9786 0.9002
-16.3986 -19.4869 3.9017 0.9021
-15.9724 -20.4173 3.9712 0.9004
-14.5125 -23.3150 4.2071 0.8948
-13.3743 -23.3008 4.1158 0.8970
-9.6883 -24.3776 4.0186 0.8993
-8.7901 -24.6462 4.0086 0.8995
-6.8687 -24.7032 3.9280 0.9014
7.1827 -45.3272 7.0305 0.8305
8.8479 -45.3088 7.0721 0.8296
9.0659 -38.9744 6.1301 0.8505
1.0383 -2.9766 0.4829 0.9873
1.0347 -2.6572 0.4368 0.9885
1.0292 -2.1708 0.3680 0.9903
1.0252 -1.8153 0.3194 0.9916
1.0236 -1.6702 0.3001 0.9921
1.3128 -1.5823 0.3150 0.9917
1.4105 -1.5815 0.3246 0.9915
1.6255 -1.5797 0.3472 0.9909
1.8742 -1.5777 0.3753 0.9901
3.4108 -1.9585 0.6025 0.9842
3.4057 -1.4971 0.5699 0.9851
3.4042 -1.3536 0.5612 0.9853
3.4026 -1.2142 0.5535 0.9855
3.4011 -1.0785 0.5466 0.9857
3.3983 -0.8160 0.5354 0.9860
3.3955 -0.5629 0.5273 0.9862
3.3942 -0.4389 0.5243 0.9862
3.3929 -0.3161 0.5220 0.9863
3.3916 -0.1942 0.5204 0.9863
3.3540 -0.0721 0.5139 0.9865
-23.5835 -14.4586 3.6023 0.8944
-25.4049 -16.8514 3.9699 0.8843
-25.0789 -19.3464 4.1246 0.8801
-21.6044 -20.7056 3.8968 0.8863
-18.7612 -20.7441 3.6422 0.8933
-17.4426 -20.7275 3.5277 0.8965
-16.2029 -20.7120 3.4244 0.8994
-16.0856 -22.1474 3.5645 0.8955
-14.2213 -24.7765 3.7201 0.8912
-10.8685 -24.7363 3.5184 0.8967
-9.8260 -24.7241 3.4645 0.8982
-7.8278 -24.7008 3.3742 0.9008
-6.8649 -24.6897 3.3371 0.9018
-6.6934 -27.8946 3.7356 0.8907
-5.7217 -28.2543 3.7540 0.8902
-4.6770 -28.2426 3.7279 0.8909
-3.8121 -29.5225 3.8764 0.8869
-2.8201 -30.3286 3.9664 0.8844
5.5724 -45.6527 5.9890 0.8307
7.1113 -44.8767 5.9168 0.8325
10.6071 -45.5999 6.0966 0.8279
12.3327 -45.5803 6.1489 0.8266
14.0905 -45.5605 6.2102 0.8250
1.0380 -2.9757 0.4104 0.9874
1.0345 -2.6565 0.3712 0.9886
1.0315 -2.3927 0.3393 0.9895
1.0290 -2.1704 0.3128 0.9904
1.0269 -1.9800 0.2905 0.9910
1.0250 -1.8149 0.2714 0.9916
1.1329 -1.5828 0.2535 0.9922
1.4095 -1.5804 0.2758 0.9915
2.1664 -1.5740 0.3487 0.9893
3.4122 -2.1248 0.5234 0.9839
3.4104 -1.9583 0.5121 0.9843
3.4070 -1.6451 0.4927 0.9849
3.4038 -1.3534 0.4770 0.9853
3.3319 -0.6753 0.4427 0.9864
3.3926 -0.3160 0.4437 0.9863
3.3887 0.0481 0.4413 0.9864
-29.7706 -16.8204 3.6718 0.8715
-23.5831 -14.4584 2.9704 0.8947
-25.5840 -16.9702 3.2967 0.8838
-25.5693 -18.3072 3.3769 0.8812
-25.0697 -20.8077 3.4985 0.8772
-18.7478 -20.7294 3.0013 0.8936
-16.1921 -20.6982 2.8219 0.8997
-16.0691 -23.8722 3.0901 0.8907
-14.2810 -24.8806 3.0806 0.8910
-11.9700 -24.8003 2.9571 0.8951
-9.8341 -24.7446 2.8593 0.8984
-8.8512 -24.8173 2.8293 0.8994
-7.8612 -24.8060 2.7943 0.9006
-4.2678 -33.0521 3.5787 0.8745
-3.2367 -34.8095 3.7540 0.8688
5.5720 -45.6494 4.9383 0.8311
7.2300 -45.6263 4.9606 0.8304
12.3239 -45.5476 5.0668 0.8271
1.0288 -2.1699 0.2579 0.9904
1.0267 -1.9796 0.2395 0.9911
1.0232 -1.6696 0.2103 0.9922
1.1321 -1.5818 0.2089 0.9922
1.6231 -1.5774 0.2430 0.9909
1.8712 -1.5752 0.2626 0.9902
2.0113 -1.5739 0.2742 0.9898
3.4138 -2.2987 0.4419 0.9836
3.4119 -2.1245 0.4316 0.9840
3.3451 -1.9208 0.4142 0.9846
3.3434 -1.7642 0.4059 0.9849
3.3418 -1.6136 0.3985 0.9852
3.3757 -1.3422 0.3901 0.9855
3.3685 -0.6827 0.3691 0.9863
3.3658 -0.4352 0.3644 0.9864
3.3909 -0.1941 0.3647 0.9864
3.3883 0.0481 0.3639 0.9865
2.8243 0.1410 0.3037 0.9887
2.8167 0.2417 0.3036 0.9887
-23.5827 -14.4581 2.3417 0.8949
-25.5820 -16.9688 2.5987 0.8841
-25.5722 -18.3093 2.6624 0.8814
-25.5569 -19.7151 2.7324 0.8785
-25.1936 -20.9106 2.7716 0.8768
-23.4142 -20.8891 2.6562 0.8816
-21.7191 -20.8156 2.5466 0.8862
-20.1665 -20.7581 2.4499 0.8903
-17.5192 -20.8185 2.3033 0.8965
-16.1814 -20.6845 2.2231 0.8999
-16.0907 -22.1544 2.3179 0.8959
-16.0717 -23.8762 2.4364 0.8909
-15.4865 -24.8798 2.4808 0.8890
-14.2725 -24.8657 2.4271 0.8913
-13.0459 -24.7333 2.3671 0.8938
-11.9632 -24.7860 2.3298 0.8954
-8.8463 -24.8036 2.2292 0.8997
-6.8575 -24.6631 2.1670 0.9023
-6.6986 -27.9161 2.4303 0.8911
-4.2948 -33.2615 2.8390 0.8740
7.2246 -45.5915 3.9076 0.8309
12.3178 -45.5252 3.9924 0.8275
14.0715 -45.4990 4.0316 0.8260
1.0339 -2.6551 0.2412 0.9886
1.0285 -2.1694 0.2032 0.9904
1.0230 -1.6693 0.1657 0.9922
1.0487 -1.5816 0.1606 0.9924
1.1314 -1.5808 0.1646 0.9922
1.5111 -1.5772 0.1849 0.9913
1.6219 -1.5762 0.1915 0.9910
1.7410 -1.5751 0.1987 0.9906
1.8697 -1.5739 0.2069 0.9902
3.3836 -2.1070 0.3374 0.9841
3.3784 -1.6313 0.3176 0.9851
3.3769 -1.4844 0.3123 0.9853
3.3753 -1.3421 0.3075 0.9855
3.3738 -1.2039 0.3032 0.9857
3.3724 -1.0694 0.2995 0.9859
3.3696 -0.8091 0.2934 0.9862
3.3655 -0.4352 0.2873 0.9865
3.3919 -0.3160 0.2884 0.9864
3.3906 -0.1941 0.2875 0.9865
2.8525 0.0405 0.2415 0.9886
3.3840 0.2903 0.2875 0.9865
-23.5823 -14.4579 1.7153 0.8951
-25.5752 -18.3114 1.9505 0.8816
-25.5599 -19.7174 2.0018 0.8786
-25.1730 -20.8935 2.0286 0.8771
-23.3959 -20.8727 1.9442 0.8819
-18.8295 -20.8196 1.7407 0.8936
-17.5073 -20.8044 1.6861 0.8968
-16.1707 -20.6708 1.6275 0.9002
-15.4771 -24.8646 1.8162 0.8892
-14.2640 -24.8508 1.7768 0.8915
-13.0382 -24.7188 1.7330 0.8940
-11.9563 -24.7718 1.7057 0.8956
-10.8616 -24.7206 1.6744 0.8974
-6.8538 -24.6499 1.5865 0.9025
-6.7012 -27.9268 1.7809 0.8913
-5.7137 -28.2147 1.7851 0.8910
1.0283 -2.1689 0.1488 0.9904
1.0244 -1.8138 0.1292 0.9917
1.0228 -1.6690 0.1214 0.9922
1.5101 -1.5761 0.1354 0.9913
1.6207 -1.5750 0.1401 0.9910
1.7397 -1.5739 0.1455 0.9906
2.0080 -1.5713 0.1581 0.9898
3.3815 -1.9417 0.2418 0.9845
3.3735 -1.2038 0.2221 0.9857
3.3720 -1.0692 0.2194 0.9859
3.3706 -0.9378 0.2170 0.9861
3.3692 -0.8091 0.2149 0.9862
3.3665 -0.5581 0.2116 0.9864
3.3652 -0.4351 0.2104 0.9865
3.3916 -0.3159 0.2112 0.9864
3.3903 -0.1941 0.2106 0.9865
2.8527 0.0405 0.1769 0.9886
-23.5819 -14.4576 1.0907 0.8952
-25.5882 -16.9730 1.2108 0.8843
-25.5781 -18.3135 1.2404 0.8817
-25.0311 -19.3095 1.2466 0.8811
-23.2401 -19.2892 1.1909 0.8861
-18.7212 -19.2704 1.0594 0.8980
-16.1652 -19.2096 0.9900 0.9044
-15.3936 -24.7305 1.1486 0.8899
-13.0306 -24.7044 1.1013 0.8942
-7.8108 -24.6471 1.0195 0.9017
-5.7096 -28.1947 1.1343 0.8912
1.0260 -1.9784 0.0879 0.9911
1.3085 -1.5770 0.0808 0.9918
1.4056 -1.5761 0.0833 0.9916
1.7384 -1.5727 0.0924 0.9907
2.0063 -1.5701 0.1005 0.9899
2.1589 -1.5686 0.1052 0.9894
3.3847 -2.2792 0.1609 0.9838
3.3811 -1.9414 0.1537 0.9845
3.3794 -1.7832 0.1507 0.9848
3.3777 -1.6310 0.1479 0.9851
3.3762 -1.4841 0.1454 0.9853
3.3732 -1.2037 0.1412 0.9858
3.3717 -1.0692 0.1395 0.9859
3.3900 -0.1941 0.1339 0.9865
2.9930 -0.0643 0.1180 0.9881
3.3874 0.0481 0.1336 0.9865
-29.6912 -16.7754 0.5761 0.8725
-23.5815 -14.4574 0.4672 0.8952
-20.1227 -20.7131 0.4878 0.8909
-18.6954 -20.6713 0.4708 0.8945
-16.1543 -19.1966 0.4238 0.9045
-16.1299 -20.6185 0.4422 0.9006
-14.4772 -23.2582 0.4628 0.8962
-11.2087 -23.2229 0.4356 0.9020
-8.2712 -23.1913 0.4159 0.9062
-7.3463 -23.1814 0.4108 0.9073
-5.7066 -28.1799 0.4857 0.8913
-4.3035 -33.3286 0.5677 0.8742
1.0278 -2.1679 0.0405 0.9904
1.0258 -1.9780 0.0376 0.9911
1.0225 -1.6684 0.0331 0.9922
1.1293 -1.5778 0.0328 0.9923
1.4047 -1.5750 0.0357 0.9916
1.6183 -1.5728 0.0381 0.9910
1.7371 -1.5715 0.0396 0.9907
1.8653 -1.5702 0.0412 0.9903
3.3844 -2.2790 0.0689 0.9838
3.3825 -2.1063 0.0673 0.9842
3.3743 -1.3417 0.0613 0.9856
3.3728 -1.2036 0.0605 0.9858
3.3700 -0.9376 0.0591 0.9861
3.3686 -0.8089 0.0585 0.9862
3.3672 -0.6825 0.0580 0.9863
3.3910 -0.3159 0.0575 0.9865
3.3884 -0.0729 0.0573 0.9865
3.3871 0.0481 0.0572 0.9865
3.3858 0.1691 0.0573 0.9865
3.3845 0.2904 0.0574 0.9865
-23.5811 -14.4571 -0.1557 0.8953
-25.5981 -16.9796 -0.1729 0.8844
-25.5839 -18.3177 -0.1772 0.8817
-24.9882 -19.2764 -0.1777 0.8814
-23.2021 -19.2576 -0.1698 0.8864
-18.6624 -19.2099 -0.1508 0.8984
-16.1432 -19.1833 -0.1412 0.9046
-16.1007 -22.1682 -0.1543 0.8962
-15.6547 -23.2566 -0.1578 0.8939
-10.1930 -23.1990 -0.1427 0.9036
-6.7483 -24.2701 -0.1418 0.9041
-2.8610 -30.7699 -0.1740 0.8837
1.0362 -2.9704 -0.0177 0.9875
1.0328 -2.6523 -0.0160 0.9887
1.0276 -2.1674 -0.0135 0.9905
1.0256 -1.9776 -0.0125 0.9911
1.0223 -1.6681 -0.0110 0.9922
1.0462 -1.5777 -0.0107 0.9925
1.1286 -1.5769 -0.0109 0.9923
1.4037 -1.5739 -0.0119 0.9916
1.6172 -1.5716 -0.0127 0.9910
2.1552 -1.5659 -0.0150 0.9894
3.3385 -1.4675 -0.0205 0.9855
3.3370 -1.3269 -0.0202 0.9857
3.3314 -0.8000 -0.0193 0.9864
3.3907 -0.3158 -0.0192 0.9865
3.3893 -0.1941 -0.0191 0.9865
3.3854 0.1691 -0.0191 0.9865
-23.5808 -14.4569 -0.7788 0.8952
-24.9670 -19.2600 -0.8879 0.8815
-23.2758 -19.3188 -0.8517 0.8860
-17.3492 -19.1828 -0.7283 0.9017
-16.1032 -22.1716 -0.7716 0.8961
-15.6450 -23.2422 -0.7889 0.8939
-14.5071 -23.3064 -0.7730 0.8960
-11.1959 -23.1964 -0.7253 0.9021
-10.1873 -23.1860 -0.7131 0.9036
-7.3384 -23.1564 -0.6840 0.9074
-5.7022 -28.1582 -0.8090 0.8914
-4.6805 -28.2641 -0.8067 0.8917
-3.6321 -28.1288 -0.7986 0.8927
-2.8753 -30.9225 -0.8745 0.8831
1.0359 -2.9696 -0.0886 0.9875
1.0298 -2.3886 -0.0732 0.9896
1.0274 -2.1670 -0.0675 0.9904
1.0254 -1.9772 -0.0627 0.9911
1.0236 -1.8125 -0.0586 0.9917
1.0455 -1.5768 -0.0533 0.9925
1.1279 -1.5759 -0.0546 0.9923
1.2145 -1.5749 -0.0560 0.9921
1.4028 -1.5728 -0.0593 0.9916
1.7344 -1.5692 -0.0659 0.9907
3.4114 -2.2972 -0.1158 0.9837
3.4096 -2.1231 -0.1131 0.9841
3.4029 -1.4958 -0.1047 0.9852
3.3999 -1.2132 -0.1016 0.9857
3.3929 -0.5625 -0.0968 0.9863
3.3864 0.0481 -0.0954 0.9865
3.3851 0.1691 -0.0954 0.9865
-26.9459 -15.2244 -1.5696 0.8834
-25.6736 -17.0296 -1.5624 0.8839
-25.5897 -18.3218 -1.5961 0.8816
-24.9458 -19.2437 -1.5978 0.8815
-23.2569 -19.3031 -1.5328 0.8860
-21.5328 -19.2105 -1.4634 0.8909
-20.0291 -19.1958 -1.4069 0.8948
-18.6410 -19.1879 -1.3567 0.8984
-17.3371 -19.1695 -1.3108 0.9017
-16.1373 -19.1764 -1.2710 0.9045
-16.1222 -20.6088 -1.3270 0.9005
-16.1057 -22.1751 -1.3899 0.8960
-15.6352 -23.2278 -1.4200 0.8939
-14.4983 -23.2922 -1.3914 0.8959
-12.2365 -23.1989 -1.3301 0.9003
-11.1895 -23.1832 -1.3055 0.9020
-10.1816 -23.1730 -1.2836 0.9036
-7.3344 -23.1440 -1.2313 0.9073
-6.7528 -24.2863 -1.2784 0.9040
-6.7140 -27.9802 -1.4593 0.8911
-5.6993 -28.1440 -1.4563 0.8914
1.0295 -2.3880 -0.1319 0.9896
1.0272 -2.1665 -0.1216 0.9904
1.0252 -1.9768 -0.1129 0.9911
1.0234 -1.8121 -0.1055 0.9917
1.0449 -1.5758 -0.0959 0.9925
1.3050 -1.5729 -0.1036 0.9918
1.6148 -1.5693 -0.1142 0.9910
1.7331 -1.5680 -0.1185 0.9907
1.9998 -1.5649 -0.1288 0.9899
3.4111 -2.2969 -0.2086 0.9837
3.4075 -1.9566 -0.1993 0.9844
3.4058 -1.7971 -0.1953 0.9847
3.4042 -1.6437 -0.1917 0.9850
3.4026 -1.4957 -0.1885 0.9852
3.3981 -1.0775 -0.1808 0.9858
3.3967 -0.9451 -0.1788 0.9860
3.3953 -0.8153 -0.1771 0.9861
3.3940 -0.6879 -0.1756 0.9862
3.3887 -0.1940 -0.1721 0.9865
3.3874 -0.0728 -0.1718 0.9865
3.3835 0.2903 -0.1722 0.9865
-25.6764 -17.0315 -2.2592 0.8838
-20.0141 -19.1815 -2.0326 0.8948
-16.1397 -19.1791 -1.8379 0.9044
-16.1083 -22.1786 -2.0098 0.8959
-15.6255 -23.2133 -2.0517 0.8938
-13.3112 -23.1908 -1.9606 0.8983
-12.2296 -23.1858 -1.9220 0.9002
-10.1759 -23.1600 -1.8548 0.9035
-9.2085 -23.1703 -1.8282 0.9048
-7.3305 -23.1315 -1.7792 0.9073
-4.6756 -28.2347 -2.0984 0.8916
1.0353 -2.9678 -0.2305 0.9875
1.0320 -2.6502 -0.2085 0.9887
1.0293 -2.3875 -0.1906 0.9896
1.0269 -2.1660 -0.1758 0.9904
1.0250 -1.9764 -0.1632 0.9911
1.0443 -1.5748 -0.1385 0.9924
1.1265 -1.5739 -0.1419 0.9923
1.3042 -1.5718 -0.1498 0.9918
1.5037 -1.5695 -0.1594 0.9913
1.6137 -1.5682 -0.1650 0.9910
1.9981 -1.5636 -0.1860 0.9899
2.1497 -1.5618 -0.1948 0.9894
3.4107 -2.2966 -0.3015 0.9836
3.4089 -2.1227 -0.2944 0.9840
3.4038 -1.6436 -0.2771 0.9850
3.4022 -1.4955 -0.2725 0.9852
3.3978 -1.0774 -0.2614 0.9858
3.3964 -0.9450 -0.2585 0.9860
3.3950 -0.8153 -0.2560 0.9861
3.3923 -0.5624 -0.2521 0.9863
3.3897 -0.3158 -0.2496 0.9864
3.3858 0.0481 -0.2483 0.9865
3.3845 0.1690 -0.2485 0.9865
3.3832 0.2903 -0.2490 0.9865
-24.9034 -19.2109 -3.0196 0.8813
-21.4992 -19.1806 -2.7661 0.8907
-19.9991 -19.1671 -2.6594 0.8947
-18.6299 -19.1765 -2.5668 0.8981
-17.3129 -19.1427 -2.4779 0.9015
-16.1420 -19.1819 -2.4069 0.9042
-16.1271 -20.6150 -2.5128 0.9002
-16.1108 -22.1821 -2.6320 0.8957
-14.4333 -23.1877 -2.6222 0.8961
-12.2195 -23.1667 -2.5145 0.9001
-11.1767 -23.1567 -2.4686 0.9018
-8.2309 -23.0783 -2.3523 0.9062
-7.3265 -23.1190 -2.3283 0.9071
-6.7573 -24.3026 -2.4217 0.9036
-6.7191 -28.0016 -2.7646 0.8907
-4.6526 -28.0956 -2.7341 0.8919
-2.8714 -30.8815 -2.9776 0.8828
-2.0141 -35.2837 -3.3929 0.8676
0.4902 -34.1328 -3.2773 0.8718
1.7127 -34.1784 -3.2854 0.8715
2.9407 -34.2040 -3.2959 0.8711
7.1142 -36.4313 -3.5636 0.8614
10.9575 -35.4302 -3.5604 0.8615
1.0267 -2.1655 -0.2301 0.9904
1.0248 -1.9759 -0.2137 0.9911
1.0230 -1.8114 -0.1997 0.9917
1.0215 -1.6669 -0.1877 0.9922
1.0436 -1.5739 -0.1813 0.9924
1.2121 -1.5719 -0.1906 0.9921
1.3033 -1.5708 -0.1959 0.9918
1.3999 -1.5696 -0.2019 0.9916
1.5027 -1.5684 -0.2085 0.9913
1.7305 -1.5656 -0.2240 0.9907
1.8580 -1.5641 -0.2332 0.9903
1.9965 -1.5624 -0.2434 0.9899
3.4103 -2.2964 -0.3947 0.9836
3.4067 -1.9562 -0.3771 0.9843
3.4034 -1.6434 -0.3628 0.9849
3.4003 -1.3521 -0.3513 0.9854
3.3989 -1.2129 -0.3465 0.9856
3.3947 -0.8152 -0.3352 0.9861
3.3920 -0.5623 -0.3301 0.9863
3.3907 -0.4384 -0.3282 0.9864
3.3855 0.0481 -0.3251 0.9865
3.3829 0.2903 -0.3260 0.9864
-21.5814 -12.1934 -2.9444 0.9050
-20.1514 -14.4281 -2.9440 0.9050
-19.0813 -15.8374 -2.9456 0.9049
-18.5400 -16.5404 -2.9513 0.9048
-16.7619 -18.5334 -2.9683 0.9042
-16.1155 -19.1504 -2.9731 0.9041
-14.7454 -20.3020 -2.9806 0.9039
-14.0207 -20.8293 -2.9826 0.9038
-12.4807 -21.7439 -2.9781 0.9039
-10.8600 -22.5005 -2.9678 0.9043
-10.0213 -22.8082 -2.9593 0.9045
-9.1669 -23.0651 -2.9483 0.9049
-8.2266 -23.0660 -2.9090 0.9061
-5.7118 -23.8037 -2.9078 0.9061
-2.3322 -25.0817 -2.9922 0.9035
-0.5667 -26.5721 -3.1571 0.8985
1.3393 -26.7268 -3.1788 0.8978
7.9996 -25.8659 -3.2161 0.8967
1.0315 -2.6488 -0.3376 0.9886
1.0229 -1.8110 -0.2471 0.9917
1.0214 -1.6666 -0.2322 0.9922
1.1251 -1.5719 -0.2296 0.9922
1.2114 -1.5708 -0.2356 0.9920
1.3025 -1.5697 -0.2423 0.9918
1.3990 -1.5686 -0.2497 0.9916
1.7292 -1.5644 -0.2770 0.9907
1.8565 -1.5628 -0.2883 0.9903
3.4099 -2.2961 -0.4883 0.9836
3.4081 -2.1222 -0.4769 0.9840
3.4031 -1.6432 -0.4489 0.9849
3.4000 -1.3519 -0.4346 0.9854
3.3971 -1.0772 -0.4233 0.9857
3.3904 -0.4384 -0.4061 0.9863
3.3852 0.0481 -0.4021 0.9865
3.3839 0.1690 -0.4025 0.9864
-18.4284 -10.4120 -2.9991 0.9180
-18.0537 -11.0684 -3.0005 0.9180
-17.2104 -12.3224 -2.9991 0.9180
-16.7441 -12.9168 -2.9963 0.9181
-15.7445 -14.0464 -2.9896 0.9183
-15.1992 -14.5669 -2.9829 0.9185
-13.8249 -15.2860 -2.9203 0.9201
-13.1719 -15.6525 -2.8986 0.9207
-11.9175 -16.4086 -2.8734 0.9213
-11.3079 -16.7990 -2.8693 0.9214
-10.7060 -17.1997 -2.8706 0.9214
-10.1093 -17.6125 -2.8774 0.9212
-9.5153 -18.0398 -2.8898 0.9209
-8.9226 -18.4865 -2.9085 0.9204
-7.7268 -19.4422 -2.9643 0.9190
-6.3588 -20.0653 -2.9824 0.9185
-5.6463 -20.3071 -2.9864 0.9184
-1.2135 -21.2591 -3.0171 0.9176
-0.4548 -21.3252 -3.0222 0.9174
2.5987 -21.2899 -3.0389 0.9170
4.1172 -21.0835 -3.0437 0.9169
4.8692 -20.9323 -3.0451 0.9168
1.0312 -2.6481 -0.4026 0.9886
1.0263 -2.1646 -0.3394 0.9904
1.0243 -1.9751 -0.3152 0.9911
1.0227 -1.8107 -0.2946 0.9916
1.0212 -1.6663 -0.2769 0.9921
1.0423 -1.5720 -0.2672 0.9924
1.1244 -1.5709 -0.2737 0.9922
1.3016 -1.5687 -0.2888 0.9918
1.3980 -1.5675 -0.2976 0.9916
1.6101 -1.5647 -0.3181 0.9910
1.9932 -1.5598 -0.3586 0.9898
3.4095 -2.2959 -0.5824 0.9835
3.4060 -1.9557 -0.5565 0.9843
3.4043 -1.7964 -0.5454 0.9846
3.4027 -1.6430 -0.5354 0.9849
3.3954 -0.9447 -0.4994 0.9859
3.3927 -0.6876 -0.4905 0.9861
3.3900 -0.4383 -0.4843 0.9863
3.3887 -0.3157 -0.4822 0.9863
3.3874 -0.1939 -0.4807 0.9864
3.3849 0.0481 -0.4796 0.9864
3.3836 0.1690 -0.4800 0.9864
-15.4103 -8.7068 -2.9159 0.9308
-15.1054 -9.2608 -2.9189 0.9307
-14.7734 -9.7994 -2.9205 0.9307
-14.4073 -10.3154 -2.9191 0.9307
-13.6325 -11.3150 -2.9186 0.9307
-13.2189 -11.7933 -2.9184 0.9307
-12.7928 -12.2605 -2.9191 0.9307
-12.3399 -12.7019 -2.9174 0.9307
-11.8744 -13.1294 -2.9163 0.9307
-11.3972 -13.5436 -2.9161 0.9308
-9.8863 -14.6871 -2.9166 0.9307
-8.8129 -15.3539 -2.9164 0.9307
-8.2643 -15.6681 -2.9182 0.9307
-5.3649 -16.9291 -2.9256 0.9305
-4.7627 -17.1291 -2.9289 0.9305
-2.9117 -17.5832 -2.9361 0.9303
-2.2843 -17.6910 -2.9386 0.9302
0.8964 -17.8883 -2.9506 0.9300
2.8067 -17.7121 -2.9543 0.9299
5.2959 -17.1239 -2.9528 0.9299
1.0341 -2.9643 -0.5172 0.9874
1.0260 -2.1640 -0.3945 0.9903
1.0241 -1.9747 -0.3665 0.9910
1.0210 -1.6660 -0.3219 0.9921
1.2098 -1.5688 -0.3264 0.9920
1.3007 -1.5676 -0.3356 0.9918
1.3970 -1.5664 -0.3458 0.9915
1.4994 -1.5651 -0.3571 0.9913
1.6089 -1.5636 -0.3696 0.9909
1.7266 -1.5620 -0.3836 0.9906
1.9915 -1.5585 -0.4166 0.9898
2.1422 -1.5564 -0.4362 0.9893
2.3080 -1.5542 -0.4584 0.9888
3.4073 -2.1217 -0.6612 0.9839
3.3993 -1.3517 -0.6026 0.9853
3.3979 -1.2125 -0.5943 0.9855
3.3964 -1.0770 -0.5870 0.9857
3.3910 -0.5621 -0.5663 0.9862
3.3897 -0.4383 -0.5631 0.9862
3.3884 -0.3156 -0.5606 0.9863
3.3871 -0.1939 -0.5589 0.9863
3.3858 -0.0728 -0.5579 0.9864
3.3832 0.1690 -0.5580 0.9864
-13.2618 -7.4929 -2.8631 0.9399
-12.7101 -8.4308 -2.8668 0.9398
-12.4039 -8.8810 -2.8674 0.9398
-12.0868 -9.3240 -2.8693 0.9398
-11.7593 -9.7601 -2.8724 0.9397
-11.4039 -10.1740 -2.8725 0.9397
-11.0307 -10.5718 -2.8718 0.9397
-9.8456 -11.6998 -2.8741 0.9397
-8.9906 -12.3787 -2.8756 0.9396
-8.5482 -12.6992 -2.8774 0.9396
-8.0883 -12.9942 -2.8769 0.9396
-7.1473 -13.5504 -2.8795 0.9396
-6.1651 -14.0317 -2.8808 0.9395
-5.1531 -14.4486 -2.8833 0.9395
-2.5133 -15.1770 -2.8915 0.9393
-1.4257 -15.3336 -2.8945 0.9392
-0.3285 -15.4047 -2.8961 0.9392
0.7716 -15.3985 -2.8979 0.9392
1.3209 -15.3639 -2.8985 0.9392
1.8686 -15.3083 -2.8987 0.9392
3.4923 -15.0133 -2.8973 0.9392
1.0338 -2.9635 -0.5899 0.9873
1.0280 -2.3846 -0.4881 0.9895
1.0258 -2.1636 -0.4501 0.9903
1.0239 -1.9743 -0.4180 0.9910
1.0222 -1.8100 -0.3907 0.9916
1.0208 -1.6657 -0.3672 0.9921
1.1229 -1.5689 -0.3626 0.9922
1.2998 -1.5666 -0.3826 0.9917
1.4984 -1.5639 -0.4071 0.9912
1.8521 -1.5591 -0.4550 0.9902
2.3059 -1.5527 -0.5225 0.9887
3.4069 -2.1214 -0.7544 0.9838
3.4036 -1.7960 -0.7233 0.9845
3.3975 -1.2124 -0.6780 0.9854
3.3961 -1.0769 -0.6697 0.9856
3.3934 -0.8149 -0.6559 0.9859
3.3894 -0.4382 -0.6424 0.9862
3.3881 -0.3156 -0.6396 0.9862
3.3868 -0.1939 -0.6376 0.9863
3.3829 0.1690 -0.6366 0.9863
-11.4025 -6.9906 -2.8272 0.9468
-11.1591 -7.4020 -2.8306 0.9467
-10.6267 -8.1977 -2.8370 0.9466
-9.6967 -9.2933 -2.8391 0.9466
-7.5215 -11.1740 -2.8472 0.9464
-5.8625 -12.1464 -2.8509 0.9464
-5.4258 -12.3489 -2.8512 0.9463
-4.9818 -12.5352 -2.8513 0.9463
-3.6176 -13.0105 -2.8545 0.9463
-3.1524 -13.1375 -2.8558 0.9463
-2.2086 -13.3373 -2.8576 0.9462
-1.2527 -13.4720 -2.8600 0.9462
-0.2886 -13.5299 -2.8606 0.9462
0.1946 -13.5339 -2.8611 0.9462
1.1591 -13.4815 -2.8602 0.9462
1.6393 -13.4304 -2.8600 0.9462
3.5287 -13.0415 -2.8558 0.9463
3.9893 -12.8990 -2.8540 0.9463
1.0303 -2.6459 -0.6002 0.9885
1.0277 -2.3839 -0.5487 0.9894
1.0256 -2.1631 -0.5060 0.9903
1.0237 -1.9739 -0.4700 0.9910
1.0220 -1.8096 -0.4393 0.9915
1.0206 -1.6653 -0.4129 0.9920
1.2082 -1.5667 -0.4182 0.9919
1.2989 -1.5655 -0.4300 0.9917
1.3951 -1.5642 -0.4430 0.9915
2.3038 -1.5513 -0.5871 0.9887
3.4032 -1.7958 -0.8134 0.9844
3.4001 -1.4946 -0.7851 0.9849
3.3986 -1.3514 -0.7731 0.9852
3.3972 -1.2122 -0.7624 0.9854
3.3958 -1.0768 -0.7530 0.9855
3.3930 -0.8148 -0.7376 0.9858
3.3904 -0.5620 -0.7264 0.9860
3.3878 -0.3156 -0.7192 0.9862
3.3865 -0.1939 -0.7170 0.9862
3.3852 -0.0728 -0.7157 0.9863
3.3839 0.0481 -0.7154 0.9863
-10.1654 -6.2322 -2.8024 0.9522
-9.9486 -6.5990 -2.8058 0.9521
-9.7142 -6.9552 -2.8079 0.9521
-9.4607 -7.2981 -2.8082 0.9521
-9.1988 -7.6350 -2.8096 0.9521
-8.9287 -7.9657 -2.8122 0.9520
-8.6418 -8.2822 -2.8132 0.9520
-7.0543 -9.7127 -2.8212 0.9519
-6.7081 -9.9655 -2.8233 0.9518
-6.3472 -10.1969 -2.8229 0.9518
-5.6070 -10.6301 -2.8246 0.9518
-5.2272 -10.8300 -2.8263 0.9518
-4.4435 -11.1809 -2.8277 0.9518
-2.8097 -11.7095 -2.8301 0.9517
-1.9683 -11.8857 -2.8315 0.9517
-1.5430 -11.9499 -2.8318 0.9517
0.1733 -12.0537 -2.8332 0.9517
1.0253 -11.9248 -2.8129 0.9520
1.8850 -11.8956 -2.8306 0.9517
2.7257 -11.7180 -2.8275 0.9518
3.1406 -11.6071 -2.8260 0.9518
3.5505 -11.4803 -2.8242 0.9518
1.0275 -2.3833 -0.6100 0.9894
1.0253 -2.1625 -0.5625 0.9902
1.0204 -1.6650 -0.4590 0.9920
1.1215 -1.5669 -0.4529 0.9921
1.2981 -1.5644 -0.4778 0.9917
1.3941 -1.5631 -0.4922 0.9914
1.4962 -1.5617 -0.5083 0.9912
1.8491 -1.5566 -0.5680 0.9901
1.9865 -1.5545 -0.5928 0.9897
3.4062 -2.1210 -0.9430 0.9836
3.3982 -1.3512 -0.8595 0.9851
3.3954 -1.0767 -0.8372 0.9855
3.3940 -0.9443 -0.8280 0.9856
3.3887 -0.4381 -0.8031 0.9861
3.3874 -0.3155 -0.7996 0.9861
3.3861 -0.1938 -0.7971 0.9862
3.3848 -0.0728 -0.7957 0.9862
3.3836 0.0481 -0.7953 0.9862
3.3822 0.1689 -0.7959 0.9862
-9.1629 -5.6175 -2.7828 0.9566
-8.9607 -5.9438 -2.7841 0.9565
-8.0445 -7.1769 -2.7913 0.9564
-7.7885 -7.4645 -2.7932 0.9564
-7.5231 -7.7439 -2.7954 0.9564
-7.2478 -8.0138 -2.7977 0.9563
-6.9626 -8.2737 -2.7998 0.9563
-6.3589 -8.7552 -2.8017 0.9563
-6.0464 -8.9825 -2.8036 0.9562
-5.7219 -9.1925 -2.8035 0.9562
-5.3899 -9.3904 -2.8034 0.9562
-5.0541 -9.5820 -2.8049 0.9562
-4.7112 -9.7609 -2.8062 0.9562
-4.3621 -9.9281 -2.8077 0.9562
-3.6437 -10.2165 -2.8084 0.9562
-3.2769 -10.3403 -2.8085 0.9562
-2.9068 -10.4543 -2.8095 0.9562
-2.5324 -10.5539 -2.8102 0.9561
-1.7735 -10.7095 -2.8107 0.9561
-0.2299 -10.7812 -2.7921 0.9564
0.9295 -10.8119 -2.8097 0.9562
1.6972 -10.7101 -2.8076 0.9562
2.0773 -10.6374 -2.8062 0.9562
2.4544 -10.5515 -2.8049 0.9562
3.1968 -10.3364 -2.8014 0.9563
1.0328 -2.9608 -0.8119 0.9871
1.0298 -2.6445 -0.7348 0.9883
1.0251 -2.1620 -0.6195 0.9902
1.0216 -1.8089 -0.5379 0.9915
1.1207 -1.5658 -0.4986 0.9921
1.3931 -1.5620 -0.5419 0.9914
1.6041 -1.5589 -0.5791 0.9908
1.8475 -1.5553 -0.6253 0.9901
2.2994 -1.5484 -0.7178 0.9886
3.4058 -2.1207 -1.0388 0.9836
3.4041 -1.9546 -1.0163 0.9839
3.3994 -1.4943 -0.9614 0.9848
3.3979 -1.3511 -0.9468 0.9850
3.3965 -1.2120 -0.9337 0.9852
3.3950 -1.0765 -0.9222 0.9854
3.3937 -0.9442 -0.9121 0.9856
3.3923 -0.8146 -0.9033 0.9857
3.3871 -0.3155 -0.8808 0.9860
3.3858 -0.1938 -0.8781 0.9861
3.3845 -0.0728 -0.8765 0.9861
3.3819 0.1689 -0.8767 0.9861
3.3806 0.2901 -0.8785 0.9861
-8.4986 -4.8017 -2.7633 0.9602
-7.7523 -5.9803 -2.7718 0.9601
-6.5908 -7.2874 -2.7816 0.9600
-6.0586 -7.7447 -2.7836 0.9599
-5.4977 -8.1674 -2.7872 0.9599
-4.9014 -8.5392 -2.7873 0.9599
-4.5956 -8.7128 -2.7886 0.9599
-3.9658 -9.0261 -2.7910 0.9598
-3.6426 -9.1656 -2.7921 0.9598
-3.3141 -9.2924 -2.7929 0.9598
-2.6424 -9.5036 -2.7925 0.9598
-1.6000 -9.6618 -2.7724 0.9601
-1.2636 -9.7864 -2.7935 0.9598
-0.9136 -9.8256 -2.7936 0.9598
0.1418 -9.8631 -2.7925 0.9598
0.8446 -9.8233 -2.7912 0.9598
1.1942 -9.7838 -2.7903 0.9599
1.8876 -9.6660 -2.7881 0.9599
2.5693 -9.4957 -2.7848 0.9599
2.9045 -9.3913 -2.7829 0.9600
1.0325 -2.9598 -0.8874 0.9871
1.0248 -2.1615 -0.6772 0.9901
1.0214 -1.8085 -0.5880 0.9914
1.0384 -1.5660 -0.5319 0.9922
1.1200 -1.5648 -0.5448 0.9920
1.2058 -1.5636 -0.5590 0.9918
1.3921 -1.5608 -0.5921 0.9913
1.7198 -1.5559 -0.6565 0.9904
2.1327 -1.5495 -0.7463 0.9891
3.3990 -1.4941 -1.0511 0.9847
3.3961 -1.2119 -1.0208 0.9851
3.3947 -1.0764 -1.0082 0.9853
3.3907 -0.6872 -0.9794 0.9857
3.3893 -0.5619 -0.9726 0.9858
3.3867 -0.3155 -0.9629 0.9860
3.3854 -0.1938 -0.9600 0.9860
3.3829 0.0481 -0.9578 0.9860
-7.7787 -4.3950 -2.7481 0.9633
-7.6249 -4.6746 -2.7509 0.9633
-7.4605 -4.9486 -2.7536 0.9632
-6.9041 -5.7304 -2.7597 0.9631
-6.7006 -5.9779 -2.7619 0.9631
-5.9973 -6.6312 -2.7500 0.9633
-5.7983 -6.8902 -2.7698 0.9630
-5.5492 -7.0935 -2.7701 0.9630
-4.7658 -7.6565 -2.7739 0.9630
-4.2089 -7.9796 -2.7749 0.9629
-3.0348 -8.5092 -2.7787 0.9629
-2.4199 -8.7032 -2.7785 0.9629
-2.1079 -8.7847 -2.7787 0.9629
-1.4762 -8.9144 -2.7792 0.9629
-1.1570 -8.9604 -2.7789 0.9629
-0.8364 -8.9955 -2.7788 0.9629
-0.5148 -9.0192 -2.7786 0.9629
-0.1926 -9.0307 -2.7783 0.9629
0.4518 -9.0166 -2.7768 0.9629
0.7731 -8.9925 -2.7761 0.9629
1.0932 -8.9562 -2.7752 0.9629
1.4116 -8.9078 -2.7740 0.9630
1.7278 -8.8475 -2.7727 0.9630
2.6589 -8.5971 -2.7679 0.9630
1.0246 -2.1610 -0.7356 0.9900
1.0212 -1.8081 -0.6387 0.9913
1.0198 -1.6640 -0.6003 0.9919
1.1192 -1.5638 -0.5915 0.9920
1.2953 -1.5612 -0.6239 0.9915
1.3911 -1.5597 -0.6428 0.9913
1.4928 -1.5582 -0.6637 0.9910
1.8444 -1.5527 -0.7416 0.9900
3.4017 -1.7950 -1.1830 0.9840
3.3986 -1.4939 -1.1419 0.9846
3.3971 -1.3508 -1.1245 0.9848
3.3916 -0.8145 -1.0728 0.9855
3.3890 -0.5618 -1.0566 0.9857
3.3851 -0.1938 -1.0429 0.9859
-5.5623 -6.1502 -2.7565 0.9656
-5.1133 -6.5363 -2.7586 0.9656
-4.3914 -7.0550 -2.7623 0.9656
-3.6145 -7.4888 -2.7641 0.9656
-2.5147 -7.9354 -2.7671 0.9655
-2.2301 -8.0206 -2.7672 0.9655
-1.9419 -8.0929 -2.7665 0.9655
-1.3599 -8.2119 -2.7669 0.9655
-1.0659 -8.2550 -2.7668 0.9655
-0.4742 -8.3076 -2.7660 0.9655
0.1196 -8.3177 -2.7651 0.9655
0.4162 -8.3060 -2.7644 0.9656
0.7122 -8.2831 -2.7635 0.9656
1.3001 -8.2047 -2.7613 0.9656
2.1663 -8.0062 -2.7570 0.9656
1.0289 -2.6422 -0.9425 0.9881
1.0264 -2.3809 -0.8618 0.9891
1.0243 -2.1605 -0.7948 0.9900
1.0225 -1.9717 -0.7383 0.9907
1.0210 -1.8078 -0.6901 0.9913
1.0370 -1.5639 -0.6237 0.9921
1.1185 -1.5627 -0.6388 0.9919
1.2041 -1.5614 -0.6554 0.9917
1.8429 -1.5513 -0.8007 0.9899
3.4045 -2.1200 -1.3331 0.9832
3.3968 -1.3506 -1.2151 0.9847
3.3913 -0.8144 -1.1593 0.9854
3.3900 -0.6871 -1.1497 0.9855
3.3886 -0.5618 -1.1418 0.9856
3.3861 -0.3154 -1.1304 0.9858
3.3822 0.0480 -1.1244 0.9858
3.3796 0.2900 -1.1275 0.9858
-6.6424 -3.7529 -2.7283 0.9681
-6.5100 -3.9911 -2.7307 0.9681
-6.2180 -4.4520 -2.7348 0.9680
-5.8936 -4.8917 -2.7390 0.9680
-5.7193 -5.1025 -2.7409 0.9680
-5.5376 -5.3073 -2.7429 0.9679
-5.3482 -5.5051 -2.7448 0.9679
-4.2962 -6.3824 -2.7513 0.9678
-4.0671 -6.5340 -2.7523 0.9678
-3.0985 -7.0521 -2.7546 0.9678
-2.0651 -7.4271 -2.7568 0.9678
-1.7987 -7.4961 -2.7568 0.9678
-0.4391 -7.6928 -2.7555 0.9678
-0.1643 -7.7015 -2.7547 0.9678
0.1107 -7.7011 -2.7543 0.9678
0.6594 -7.6694 -2.7527 0.9678
0.9323 -7.6381 -2.7517 0.9678
1.2038 -7.5967 -2.7505 0.9679
2.1354 -6.9045 -2.5845 0.9698
1.0286 -2.6414 -1.0137 0.9880
1.0261 -2.3802 -0.9269 0.9890
1.0223 -1.9712 -0.7941 0.9906
1.0194 -1.6634 -0.6977 0.9917
1.1177 -1.5616 -0.6867 0.9919
1.4905 -1.5558 -0.7705 0.9909
1.7155 -1.5521 -0.8273 0.9902
1.9777 -1.5477 -0.8981 0.9894
3.4025 -1.9537 -1.4031 0.9835
3.4009 -1.7945 -1.3751 0.9838
3.3978 -1.4936 -1.3273 0.9844
3.3950 -1.2115 -1.2891 0.9848
3.3936 -1.0761 -1.2731 0.9850
3.3909 -0.8143 -1.2471 0.9853
3.3870 -0.4379 -1.2213 0.9856
3.3818 0.0480 -1.2095 0.9857
3.3792 0.2899 -1.2129 0.9857
-6.1798 -3.4916 -2.7201 0.9701
-5.9246 -3.9299 -2.7245 0.9700
-5.7852 -4.1421 -2.7267 0.9700
-5.4828 -4.5507 -2.7306 0.9699
-4.9750 -5.1210 -2.7361 0.9699
-4.7918 -5.2983 -2.7376 0.9699
-4.6007 -5.4672 -2.7383 0.9699
-4.4051 -5.6310 -2.7398 0.9698
-4.2035 -5.7875 -2.7411 0.9698
-3.7830 -6.0776 -2.7434 0.9698
-3.3406 -6.3334 -2.7440 0.9698
-3.1134 -6.4506 -2.7449 0.9698
-2.8819 -6.5592 -2.7455 0.9698
-2.6465 -6.6592 -2.7461 0.9698
-2.1656 -6.8336 -2.7471 0.9698
-1.9205 -6.9073 -2.7474 0.9698
-1.6729 -6.9719 -2.7476 0.9698
-1.4230 -7.0268 -2.7475 0.9698
-1.1710 -7.0713 -2.7468 0.9698
-0.6636 -7.1362 -2.7465 0.9698
-0.4084 -7.1544 -2.7462 0.9698
0.1029 -7.1621 -2.7449 0.9698
0.6132 -7.1324 -2.7433 0.9698
0.8671 -7.1035 -2.7424 0.9698
1.3704 -7.0174 -2.7400 0.9698
1.6191 -6.9604 -2.7386 0.9699
1.7568 -6.4927 -2.5776 0.9716
1.0312 -2.9560 -1.1997 0.9867
1.0238 -2.1594 -0.9158 0.9898
1.0221 -1.9708 -0.8508 0.9905
1.0205 -1.8070 -0.7953 0.9911
1.0192 -1.6630 -0.7475 0.9917
1.0356 -1.5618 -0.7181 0.9920
1.2925 -1.5577 -0.7757 0.9914
1.4894 -1.5545 -0.8250 0.9908
1.7141 -1.5508 -0.8858 0.9901
1.9759 -1.5463 -0.9615 0.9893
2.2882 -1.5408 -1.0571 0.9883
3.4037 -2.1194 -1.5366 0.9830
3.4020 -1.9535 -1.5034 0.9833
3.4005 -1.7943 -1.4734 0.9837
3.3989 -1.6412 -1.4464 0.9840
3.3974 -1.4934 -1.4222 0.9842
3.3960 -1.3503 -1.4005 0.9845
3.3946 -1.2113 -1.3812 0.9847
3.3879 -0.5617 -1.3160 0.9854
3.3866 -0.4379 -1.3086 0.9855
3.3841 -0.1937 -1.2990 0.9856
3.3828 -0.0727 -1.2966 0.9856
3.3815 0.0480 -1.2960 0.9856
-5.7714 -3.2608 -2.7130 0.9718
-5.6561 -3.4676 -2.7153 0.9717
-5.5331 -3.6702 -2.7175 0.9717
-5.4026 -3.8682 -2.7195 0.9717
-5.1200 -4.2496 -2.7233 0.9717
-4.8102 -4.6101 -2.7268 0.9716
-4.6453 -4.7816 -2.7284 0.9716
-4.4740 -4.9469 -2.7299 0.9716
-4.1130 -5.2576 -2.7320 0.9716
-3.9246 -5.4036 -2.7333 0.9715
-3.7308 -5.5424 -2.7344 0.9715
-3.3272 -5.7966 -2.7354 0.9715
-3.1190 -5.9131 -2.7361 0.9715
-2.9067 -6.0224 -2.7369 0.9715
-2.6906 -6.1238 -2.7376 0.9715
-1.7929 -6.4482 -2.7392 0.9715
-1.3284 -6.5599 -2.7393 0.9715
-0.6194 -6.6618 -2.7383 0.9715
0.0961 -6.6862 -2.7368 0.9715
0.3346 -6.6765 -2.7360 0.9715
0.8094 -6.6312 -2.7341 0.9715
1.4236 -6.1200 -2.5716 0.9732
1.6405 -6.0632 -2.5708 0.9732
1.0256 -2.3789 -1.0603 0.9889
1.0236 -2.1589 -0.9778 0.9897
1.0203 -1.8066 -0.8492 0.9911
1.0349 -1.5607 -0.7664 0.9919
1.1161 -1.5594 -0.7848 0.9917
1.2015 -1.5580 -0.8052 0.9915
1.2915 -1.5566 -0.8278 0.9913
1.3868 -1.5550 -0.8527 0.9910
1.4882 -1.5533 -0.8804 0.9907
1.5964 -1.5514 -0.9111 0.9904
1.9740 -1.5448 -1.0259 0.9892
3.4033 -2.1192 -1.6408 0.9828
3.3985 -1.6410 -1.5446 0.9838
3.3956 -1.3502 -1.4956 0.9843
3.3942 -1.2112 -1.4750 0.9845
3.3888 -0.6869 -1.4152 0.9852
3.3863 -0.4378 -1.3974 0.9854
3.3850 -0.3153 -1.3914 0.9854
3.3837 -0.1937 -1.3871 0.9855
3.3824 -0.0727 -1.3847 0.9855
3.3785 0.2899 -1.3878 0.9855
-5.2996 -3.2491 -2.7092 0.9732
-5.0617 -3.6241 -2.7131 0.9732
-4.5061 -4.3186 -2.7201 0.9731
-4.3515 -4.4791 -2.7216 0.9731
-3.6761 -5.0615 -2.7263 0.9731
-3.3081 -5.3146 -2.7283 0.9731
-3.1166 -5.4298 -2.7285 0.9731
-2.9215 -5.5387 -2.7291 0.9730
-2.7227 -5.6411 -2.7298 0.9730
-2.3142 -5.8231 -2.7309 0.9730
-1.2442 -6.1439 -2.7320 0.9730
-1.0241 -6.1840 -2.7318 0.9730
-0.8026 -6.2160 -2.7315 0.9730
-0.1336 -6.2629 -2.7301 0.9730
0.5362 -6.2362 -2.7279 0.9731
0.7581 -6.2107 -2.7268 0.9731
0.9219 -5.8180 -2.5672 0.9746
1.7382 -5.6201 -2.5638 0.9747
1.0305 -2.9540 -1.3635 0.9864
1.0253 -2.3783 -1.1287 0.9888
1.0233 -2.1583 -1.0410 0.9896
1.0216 -1.9698 -0.9671 0.9904
1.0201 -1.8062 -0.9040 0.9910
1.0341 -1.5596 -0.8155 0.9919
1.1153 -1.5583 -0.8351 0.9917
1.2006 -1.5569 -0.8568 0.9915
1.5951 -1.5501 -0.9694 0.9903
1.9722 -1.5433 -1.0914 0.9891
2.1205 -1.5406 -1.1423 0.9886
2.2834 -1.5376 -1.1997 0.9881
3.3996 -1.7939 -1.6752 0.9834
3.3981 -1.6408 -1.6446 0.9837
3.3938 -1.2111 -1.5704 0.9844
3.3911 -0.9435 -1.5340 0.9848
3.3898 -0.8140 -1.5193 0.9849
3.3859 -0.4378 -1.4879 0.9852
3.3821 -0.0727 -1.4743 0.9853
3.3807 0.0480 -1.4735 0.9854
3.3795 0.1688 -1.4747 0.9853
3.3781 0.2899 -1.4777 0.9853
-4.9796 -3.0529 -2.7037 0.9746
-4.6342 -3.5749 -2.7092 0.9745
-4.3728 -3.9012 -2.7126 0.9745
-4.0878 -4.2077 -2.7155 0.9745
-3.4532 -4.7546 -2.7201 0.9744
-3.1074 -4.9921 -2.7219 0.9744
-1.7785 -5.6119 -2.7250 0.9744
-1.3738 -5.7253 -2.7254 0.9744
-0.7539 -5.8384 -2.7249 0.9744
0.4743 -5.5171 -2.5632 0.9759
0.8662 -5.4663 -2.5619 0.9759
1.0605 -5.4304 -2.5611 0.9759
1.2532 -5.3873 -2.5603 0.9759
1.4441 -5.3372 -2.5593 0.9759
1.0199 -1.8058 -0.9599 0.9909
1.2895 -1.5542 -0.9348 0.9911
1.4857 -1.5507 -0.9941 0.9906
1.5937 -1.5488 -1.0287 0.9903
1.8346 -1.5444 -1.1101 0.9895
2.1183 -1.5391 -1.2120 0.9885
2.2810 -1.5360 -1.2729 0.9880
3.3977 -1.6406 -1.7465 0.9835
3.3962 -1.4929 -1.7172 0.9838
3.3948 -1.3499 -1.6911 0.9840
3.3934 -1.2109 -1.6678 0.9842
3.3894 -0.8139 -1.6135 0.9848
3.3855 -0.4377 -1.5801 0.9851
3.3842 -0.3152 -1.5733 0.9851
3.3778 0.2898 -1.5693 0.9852
-4.4792 -3.2071 -2.7023 0.9758
-4.3648 -3.3671 -2.7040 0.9757
-4.2444 -3.5228 -2.7057 0.9757
-4.1183 -3.6741 -2.7072 0.9757
-3.9867 -3.8208 -2.7086 0.9757
-3.8496 -3.9625 -2.7099 0.9757
-3.2519 -4.4773 -2.7144 0.9756
-3.0911 -4.5921 -2.7153 0.9756
-2.4083 -4.9897 -2.7178 0.9756
-2.2292 -5.0735 -2.7183 0.9756
-2.0470 -5.1506 -2.7187 0.9756
-1.4850 -5.3410 -2.7193 0.9756
-0.9057 -5.4691 -2.7193 0.9756
-0.7098 -5.4974 -2.7190 0.9756
-0.5131 -5.5185 -2.7186 0.9756
-0.3158 -5.5322 -2.7181 0.9756
0.0750 -5.2164 -2.5591 0.9770
0.4468 -5.1960 -2.5582 0.9770
0.6318 -5.1758 -2.5577 0.9770
1.5383 -4.9737 -2.5538 0.9771
1.0247 -2.3769 -1.2696 0.9885
1.0227 -2.1571 -1.1710 0.9894
1.0196 -1.8053 -1.0170 0.9908
1.0326 -1.5573 -0.9166 0.9917
1.1987 -1.5545 -0.9629 0.9913
1.2885 -1.5529 -0.9898 0.9911
1.3835 -1.5512 -1.0196 0.9908
1.5923 -1.5474 -1.0891 0.9902
1.9683 -1.5403 -1.2260 0.9889
3.4003 -1.9525 -1.9233 0.9827
3.3987 -1.7934 -1.8850 0.9830
3.3973 -1.6404 -1.8505 0.9833
3.3944 -1.3497 -1.7918 0.9839
3.3916 -1.0755 -1.7453 0.9843
3.3877 -0.6866 -1.6955 0.9847
3.3864 -0.5614 -1.6838 0.9848
3.3851 -0.4377 -1.6743 0.9849
3.3838 -0.3152 -1.6670 0.9850
3.3813 -0.0727 -1.6590 0.9850
3.3800 0.0480 -1.6581 0.9851
-4.4275 -2.7144 -2.6942 0.9769
-4.3306 -2.8726 -2.6960 0.9769
-4.1199 -3.1781 -2.6994 0.9768
-4.0061 -3.3250 -2.7009 0.9768
-3.8869 -3.4678 -2.7023 0.9768
-3.7626 -3.6061 -2.7037 0.9768
-3.4988 -3.8686 -2.7060 0.9768
-3.2166 -4.1118 -2.7083 0.9767
-3.0689 -4.2255 -2.7093 0.9767
-2.9171 -4.3337 -2.7101 0.9767
-2.2728 -4.7089 -2.7126 0.9767
-1.9317 -4.8606 -2.7134 0.9767
-1.7572 -4.9270 -2.7137 0.9767
-0.8546 -5.1610 -2.7139 0.9767
-0.6698 -5.1877 -2.7136 0.9767
-0.4561 -4.9052 -2.5557 0.9780
-0.1050 -4.9237 -2.5549 0.9781
0.0708 -4.9236 -2.5545 0.9781
0.2464 -4.9171 -2.5541 0.9781
0.7702 -4.8601 -2.5528 0.9781
0.9429 -4.8283 -2.5521 0.9781
1.0294 -2.9509 -1.6213 0.9860
1.0267 -2.6365 -1.4678 0.9873
1.0244 -2.3762 -1.3424 0.9884
1.0225 -2.1565 -1.2381 0.9893
1.0194 -1.8049 -1.0753 0.9907
1.0318 -1.5561 -0.9686 0.9916
1.1128 -1.5547 -0.9919 0.9914
1.1978 -1.5532 -1.0176 0.9912
1.2874 -1.5516 -1.0460 0.9910
1.3823 -1.5499 -1.0774 0.9907
1.4832 -1.5481 -1.1122 0.9904
1.5909 -1.5460 -1.1508 0.9901
1.7065 -1.5439 -1.1938 0.9897
1.9663 -1.5388 -1.2953 0.9888
2.2760 -1.5326 -1.4235 0.9877
3.4014 -2.1180 -2.0787 0.9821
3.3983 -1.7932 -1.9934 0.9828
3.3968 -1.6402 -1.9569 0.9831
3.3940 -1.3495 -1.8948 0.9837
3.3912 -1.0753 -1.8456 0.9841
3.3899 -0.9432 -1.8254 0.9843
3.3809 -0.0727 -1.7543 0.9849
3.3783 0.1687 -1.7548 0.9849
3.3770 0.2897 -1.7583 0.9848
-3.9439 -2.4179 -2.5337 0.9791
-3.8575 -2.5588 -2.5353 0.9791
-3.7661 -2.6965 -2.5369 0.9791
-3.5579 -3.4099 -2.6992 0.9778
-3.4354 -3.5362 -2.7003 0.9778
-3.3085 -3.6582 -2.7015 0.9778
-3.0415 -3.8879 -2.7036 0.9777
-2.9018 -3.9954 -2.7046 0.9777
-2.6109 -4.1946 -2.7061 0.9777
-2.4601 -4.2860 -2.7067 0.9777
-2.1490 -4.4524 -2.7078 0.9777
-1.8265 -4.5958 -2.7086 0.9777
-1.1541 -4.8097 -2.7091 0.9777
-0.9247 -4.5662 -2.5517 0.9790
-0.7611 -4.5961 -2.5516 0.9790
-0.5966 -4.6200 -2.5514 0.9790
-0.0993 -4.6565 -2.5510 0.9790
0.0669 -4.6565 -2.5506 0.9790
0.2331 -4.6504 -2.5502 0.9790
0.3988 -4.6382 -2.5497 0.9790
0.5640 -4.6201 -2.5492 0.9790
0.7283 -4.5961 -2.5487 0.9790
0.8917 -4.5661 -2.5481 0.9790
1.2144 -4.4883 -2.5467 0.9790
1.3734 -4.4405 -2.5458 0.9790
1.0290 -2.9498 -1.7111 0.9859
1.0263 -2.6356 -1.5491 0.9872
1.0206 -1.9678 -1.2141 0.9899
1.0310 -1.5549 -1.0218 0.9915
1.1119 -1.5535 -1.0463 0.9913
1.2864 -1.5504 -1.1034 0.9909
1.4819 -1.5467 -1.1732 0.9903
1.5894 -1.5446 -1.2139 0.9899
1.8293 -1.5399 -1.3096 0.9892
1.9643 -1.5372 -1.3661 0.9887
2.1116 -1.5342 -1.4296 0.9882
3.4009 -2.1177 -2.1943 0.9819
3.3994 -1.9520 -2.1470 0.9823
3.3978 -1.7929 -2.1042 0.9826
3.3964 -1.6400 -2.0657 0.9829
3.3949 -1.4923 -2.0311 0.9832
3.3921 -1.2105 -1.9726 0.9837
3.3895 -0.9430 -1.9269 0.9841
3.3856 -0.5612 -1.8796 0.9845
3.3830 -0.3151 -1.8609 0.9846
3.3818 -0.1936 -1.8552 0.9847
3.3805 -0.0727 -1.8519 0.9847
-3.8144 -2.1552 -2.5295 0.9800
-3.7373 -2.2912 -2.5309 0.9800
-3.2793 -2.9256 -2.5373 0.9799
-3.1338 -3.4650 -2.6974 0.9787
-3.0094 -3.5761 -2.6984 0.9786
-2.8809 -3.6826 -2.6994 0.9786
-2.7485 -3.7842 -2.7003 0.9786
-2.6124 -3.8810 -2.7011 0.9786
-2.3300 -4.0593 -2.7023 0.9786
-1.8838 -4.2876 -2.7038 0.9786
-1.6294 -4.0999 -2.5472 0.9798
-1.1820 -4.2513 -2.5476 0.9798
-0.8758 -4.3249 -2.5476 0.9798
-0.7209 -4.3535 -2.5478 0.9798
-0.5651 -4.3766 -2.5478 0.9798
-0.2514 -4.4054 -2.5476 0.9798
-0.0941 -4.4112 -2.5474 0.9798
0.0634 -4.4112 -2.5471 0.9798
0.8447 -4.3254 -2.5444 0.9799
1.1504 -4.2518 -2.5430 0.9799
1.0219 -2.1553 -1.3771 0.9890
1.0203 -1.9673 -1.2795 0.9898
1.0176 -1.6605 -1.1244 0.9910
1.1958 -1.5507 -1.1306 0.9910
1.5879 -1.5432 -1.2784 0.9898
1.7032 -1.5409 -1.3260 0.9894
1.8274 -1.5384 -1.3791 0.9890
1.9622 -1.5356 -1.4386 0.9886
2.2708 -1.5291 -1.5806 0.9874
3.4004 -2.1174 -2.3128 0.9817
3.3989 -1.9517 -2.2628 0.9821
3.3945 -1.4921 -2.1408 0.9830
3.3931 -1.3492 -2.1082 0.9833
3.3917 -1.2103 -2.0791 0.9835
3.3852 -0.5612 -1.9811 0.9843
3.3839 -0.4375 -1.9700 0.9844
3.3826 -0.3151 -1.9614 0.9844
3.3775 0.1687 -1.9524 0.9845
3.3762 0.2897 -1.9564 0.9845
