ply
format ascii 1.0
element vertex 1099
property float32 x
property float32 y
property float32 z
property float32 I
end_header
-38.4490 -26.8909 8.2732 0.8265
-30.4971 -26.6748 7.1442 0.8483
-30.8309 -28.9969 7.4630 0.8421
-28.6242 -31.1087 7.4541 0.8422
-26.4839 -30.9547 7.1832 0.8475
-26.4009 -33.2137 7.4812 0.8417
-19.0250 -25.7939 5.6515 0.8779
-19.1190 -32.8431 6.7009 0.8570
-19.0882 -35.6947 7.1374 0.8484
-15.2586 -37.9006 7.2041 0.8471
-12.1512 -37.8652 7.0120 0.8508
-9.7393 -40.0919 7.2749 0.8457
-8.1913 -39.9573 7.1921 0.8473
-6.6955 -39.9403 7.1408 0.8483
-5.2188 -39.9235 7.0995 0.8491
-3.7573 -39.9068 7.0678 0.8498
-2.3069 -39.8903 7.0455 0.8502
0.5760 -39.8575 7.0287 0.8505
3.0139 -34.6880 6.1395 0.8681
7.8787 -39.8917 7.1698 0.8478
8.8912 -37.7866 6.8448 0.8541
14.8534 -37.6755 7.1408 0.8483
20.3146 -35.4826 7.2094 0.8470
21.8946 -32.5461 6.9165 0.8527
23.7952 -30.3826 6.8047 0.8549
25.8500 -26.5134 6.5293 0.8604
29.2905 -25.9946 6.9053 0.8529
31.6251 -26.0877 7.2288 0.8466
34.0281 -26.0640 7.5579 0.8402
36.6642 -26.0382 7.9293 0.8331
40.9998 -24.8733 8.4557 0.8230
-35.4226 -33.3154 7.4495 0.8214
-32.8082 -33.1685 7.1470 0.8280
-30.7449 -35.9349 7.2449 0.8258
-28.8634 -36.3116 7.1060 0.8289
-19.4383 -28.4498 5.2785 0.8699
-18.8169 -42.2665 7.0877 0.8293
-17.1507 -42.6001 7.0351 0.8304
3.4676 -39.9096 6.1370 0.8503
3.0919 -25.0566 3.8676 0.9029
18.2688 -41.8446 6.9946 0.8313
19.1708 -39.9156 6.7835 0.8359
20.8252 -39.6271 6.8579 0.8343
23.2826 -37.4621 6.7570 0.8365
26.2876 -28.9859 5.9946 0.8536
25.9727 -24.7828 5.4996 0.8648
34.0989 -28.1283 6.7717 0.8362
36.8502 -28.2256 7.1109 0.8287
36.4876 -25.9127 6.8559 0.8344
-19.4722 -43.7386 6.2346 0.8244
3.1008 -25.1288 3.2971 0.9029
25.9952 -41.8266 6.4129 0.8198
25.7128 -38.2217 5.9987 0.8304
25.7864 -30.5829 5.2092 0.8510
25.7411 -28.3832 4.9897 0.8568
26.0615 -24.8676 4.6908 0.8648
25.2648 -16.6039 3.9369 0.8852
-45.8584 10.2636 5.0462 0.8277
-20.4450 -19.2287 3.0139 0.8932
26.0058 -41.8437 5.2903 0.8202
25.8552 -38.4334 4.9740 0.8300
25.8839 -33.0495 4.5078 0.8446
25.9867 -24.7961 3.8570 0.8655
25.2646 -16.6037 3.2464 0.8855
25.3128 -15.3565 3.1792 0.8877
-45.8672 10.2656 3.9788 0.8281
-41.7983 -27.0402 4.2142 0.8189
-19.0866 -42.8723 3.9727 0.8283
-45.8675 10.2656 2.9146 0.8283
26.0615 -24.8675 2.2337 0.8656
25.2642 -16.6035 1.8747 0.8859
-46.1940 10.3387 1.8665 0.8274
-19.8130 -24.9258 1.2555 0.8803
-18.5105 -25.0964 1.2296 0.8826
-19.4537 -43.6968 1.8860 0.8257
3.7707 -43.3993 1.7177 0.8400
25.6856 -24.5088 1.3999 0.8675
25.2640 -16.6034 1.1921 0.8860
-42.1318 9.4296 0.7293 0.8414
-19.8129 -24.9257 0.5379 0.8804
-18.5148 -25.1022 0.5269 0.8827
3.7425 -43.0746 0.7304 0.8412
3.0437 -24.6657 0.4198 0.9054
25.5812 -24.4093 0.5973 0.8681
25.2638 -16.6032 0.5107 0.8861
-46.1942 10.3387 -0.2665 0.8275
-46.2003 8.6016 -0.2646 0.8286
-44.7322 -18.5792 -0.2727 0.8239
-43.8424 -20.0950 -0.2715 0.8246
-42.1887 -25.1803 -0.2766 0.8216
-19.7158 -23.0439 -0.1707 0.8858
-16.9732 -23.0121 -0.1610 0.8919
-15.7130 -22.9974 -0.1568 0.8946
-13.3733 -22.9730 -0.1497 0.8991
-12.2794 -22.9623 -0.1466 0.9011
-11.2279 -22.9521 -0.1439 0.9028
-10.2138 -22.9422 -0.1414 0.9044
-7.3438 -22.8843 -0.1353 0.9083
-6.4392 -22.8729 -0.1338 0.9093
0.3295 -22.8029 -0.1284 0.9128
1.9794 -22.7827 -0.1288 0.9126
7.1116 -22.7225 -0.1341 0.9092
8.9496 -22.7006 -0.1374 0.9070
9.9058 -22.6892 -0.1394 0.9057
10.8917 -22.6775 -0.1416 0.9043
14.0773 -22.6506 -0.1501 0.8988
16.4336 -22.6201 -0.1574 0.8942
19.0504 -22.5941 -0.1664 0.8885
20.4757 -22.5775 -0.1716 0.8852
25.3830 -22.5268 -0.1911 0.8731
25.2636 -16.6031 -0.1702 0.8861
-43.4607 9.7270 -1.2540 0.8368
-44.7334 -18.5797 -1.3639 0.8238
-43.8206 -22.0328 -1.3811 0.8218
-43.7965 -24.0395 -1.4068 0.8188
-42.1887 -25.1803 -1.3834 0.8215
-14.5156 -22.9844 -0.7654 0.8969
-13.3736 -22.9733 -0.7485 0.8991
-11.2281 -22.9525 -0.7195 0.9028
-8.2707 -22.8966 -0.6855 0.9072
-5.5538 -22.8622 -0.6625 0.9101
-2.9860 -22.8420 -0.6487 0.9119
-2.1498 -22.8320 -0.6457 0.9123
-1.3199 -22.8221 -0.6437 0.9126
0.3295 -22.8024 -0.6421 0.9128
1.1533 -22.7926 -0.6426 0.9127
1.9795 -22.7833 -0.6439 0.9125
3.6480 -22.7670 -0.6492 0.9119
7.1117 -22.7226 -0.6704 0.9091
8.9497 -22.7007 -0.6871 0.9070
9.9059 -22.6894 -0.6971 0.9057
10.8917 -22.6776 -0.7084 0.9042
12.9763 -22.6653 -0.7354 0.9008
16.4339 -22.6205 -0.7873 0.8941
19.0513 -22.5952 -0.8322 0.8885
20.4767 -22.5786 -0.8583 0.8852
25.3829 -22.5267 -0.9556 0.8730
25.2634 -16.6030 -0.8512 0.8861
-42.1464 9.4328 -2.1903 0.8412
-46.8441 6.9823 -2.4019 0.8272
-48.7200 5.4725 -2.4863 0.8217
-48.8852 3.7100 -2.4863 0.8217
-48.9870 1.9428 -2.4863 0.8217
-48.7594 -5.1286 -2.4864 0.8217
-48.5442 -6.8857 -2.4865 0.8217
-47.9252 -10.3714 -2.4868 0.8217
-46.5322 -15.4951 -2.4872 0.8217
-41.9745 -19.2388 -2.3416 0.8312
-40.4757 -22.2166 -2.3416 0.8312
-36.8937 -23.8672 -2.2284 0.8386
-34.1065 -23.8537 -2.1107 0.8465
-29.3155 -23.8293 -1.9159 0.8596
-34.5448 -34.9242 -2.4912 0.8214
-19.7157 -23.0438 -1.5380 0.8856
-10.2142 -22.9430 -1.2736 0.9043
-9.2232 -22.9092 -1.2524 0.9058
-6.4395 -22.8740 -1.2051 0.9092
-5.5540 -22.8628 -1.1932 0.9101
-4.6847 -22.8518 -1.1830 0.9108
-2.1497 -22.8315 -1.1630 0.9122
-1.3199 -22.8216 -1.1593 0.9125
-0.4942 -22.8118 -1.1572 0.9127
0.3294 -22.8020 -1.1565 0.9127
2.8104 -22.7758 -1.1638 0.9122
5.3534 -22.7510 -1.1853 0.9106
7.1117 -22.7228 -1.2075 0.9090
8.9497 -22.7009 -1.2375 0.9069
9.9060 -22.6895 -1.2556 0.9056
12.9765 -22.6656 -1.3245 0.9007
15.2281 -22.6365 -1.3836 0.8965
17.7092 -22.6119 -1.4566 0.8913
19.0523 -22.5963 -1.4989 0.8884
21.9974 -22.5621 -1.5981 0.8814
23.6303 -22.5478 -1.6564 0.8774
30.2407 -23.1630 -1.9318 0.8585
32.5586 -23.1224 -2.0252 0.8522
41.1408 -22.9693 -2.3896 0.8280
44.1587 -22.6030 -2.5158 0.8198
-33.5080 7.4994 -2.5177 0.8713
-33.6792 6.2704 -2.5119 0.8716
-33.6659 5.0181 -2.4957 0.8724
-33.9586 -1.1066 -2.4912 0.8726
-33.8943 -2.3318 -2.4911 0.8726
-33.7886 -3.5539 -2.4911 0.8726
-33.6391 -4.7715 -2.4912 0.8726
-33.4459 -5.9830 -2.4913 0.8726
-33.2093 -7.1868 -2.4913 0.8726
-32.9295 -8.3813 -2.4914 0.8726
-32.2420 -10.7365 -2.4917 0.8726
-30.8980 -14.1620 -2.4921 0.8726
-30.3687 -15.2693 -2.4923 0.8726
-29.8002 -16.3569 -2.4925 0.8725
-27.1449 -20.4830 -2.4934 0.8725
-18.3040 -23.0273 -2.1568 0.8887
-12.2800 -22.9634 -1.9094 0.9008
-10.2143 -22.9433 -1.8414 0.9042
-7.3444 -22.8860 -1.7623 0.9081
-6.4397 -22.8746 -1.7424 0.9091
-5.5541 -22.8634 -1.7251 0.9099
-4.6848 -22.8524 -1.7104 0.9107
-3.8308 -22.8511 -1.6989 0.9113
-2.9859 -22.8411 -1.6890 0.9118
-1.3198 -22.8212 -1.6761 0.9124
-0.4942 -22.8113 -1.6730 0.9126
0.3294 -22.8015 -1.6720 0.9126
1.9796 -22.7845 -1.6769 0.9124
2.8105 -22.7764 -1.6827 0.9121
3.6482 -22.7682 -1.6907 0.9117
4.4951 -22.7600 -1.7010 0.9112
5.3535 -22.7516 -1.7138 0.9105
7.1118 -22.7229 -1.7458 0.9089
8.9498 -22.7011 -1.7892 0.9068
9.9060 -22.6897 -1.8153 0.9055
15.2284 -22.6369 -2.0004 0.8964
19.0532 -22.5974 -2.1672 0.8882
21.9986 -22.5633 -2.3106 0.8813
23.3019 -22.2344 -2.3616 0.8788
24.8410 -20.4914 -2.3611 0.8788
25.5588 -19.5768 -2.3606 0.8789
26.2424 -18.6368 -2.3600 0.8789
25.2631 -16.6028 -2.2166 0.8858
31.0355 -14.4966 -2.5116 0.8716
-25.5381 5.7157 -2.5124 0.9002
-25.9221 1.9673 -2.4958 0.9008
-25.9959 0.0918 -2.4957 0.9008
-25.9819 -0.8468 -2.4957 0.9008
-25.9341 -1.7842 -2.4957 0.9008
-25.7372 -3.6507 -2.4956 0.9008
-25.4062 -5.4981 -2.4956 0.9008
-25.1909 -6.4116 -2.4956 0.9008
-24.9428 -7.3168 -2.4955 0.9008
-24.3494 -9.0973 -2.4955 0.9008
-23.6292 -10.8303 -2.4955 0.9008
-22.7858 -12.5069 -2.4954 0.9008
-21.8237 -14.1182 -2.4954 0.9008
-21.2997 -14.8968 -2.4954 0.9008
-19.1078 -15.5319 -2.3640 0.9058
-18.3853 -16.0810 -2.3450 0.9065
-17.7843 -16.7263 -2.3439 0.9066
-17.1704 -17.3589 -2.3441 0.9065
-16.5346 -17.9698 -2.3444 0.9065
-15.8770 -18.5571 -2.3447 0.9065
-15.1985 -19.1204 -2.3449 0.9065
-13.7827 -20.1723 -2.3455 0.9065
-10.7416 -21.9579 -2.3468 0.9064
-9.9433 -22.3346 -2.3471 0.9064
-6.4399 -22.8752 -2.2815 0.9089
-4.6849 -22.8529 -2.2396 0.9105
-2.9858 -22.8406 -2.2115 0.9116
-2.1496 -22.8306 -2.2015 0.9120
-0.9201 -15.9098 -1.5300 0.9380
-0.4942 -22.8109 -2.1905 0.9124
0.3294 -22.8010 -2.1892 0.9124
1.1532 -22.7912 -2.1909 0.9124
2.8105 -22.7770 -2.2033 0.9119
4.4952 -22.7606 -2.2273 0.9110
6.2262 -22.7438 -2.2639 0.9096
7.1118 -22.7231 -2.2859 0.9088
8.9499 -22.7012 -2.3427 0.9066
11.4182 -21.7271 -2.3564 0.9061
12.1969 -21.3038 -2.3568 0.9061
15.1363 -19.3267 -2.3568 0.9061
17.1311 -17.5708 -2.3559 0.9061
17.7517 -16.9385 -2.3556 0.9061
18.3488 -16.2841 -2.3553 0.9061
20.0058 -14.2077 -2.3557 0.9061
21.2407 -13.9593 -2.4402 0.9029
22.8185 -12.7397 -2.5090 0.9003
23.2648 -11.9083 -2.5091 0.9003
-20.6138 4.6136 -2.5092 0.9184
-20.7375 3.8609 -2.5057 0.9185
-20.8337 3.1053 -2.5021 0.9187
-20.9951 0.8326 -2.4959 0.9188
-20.8956 -2.1978 -2.4958 0.9188
-20.6821 -3.6997 -2.4958 0.9188
-20.1604 -5.9140 -2.4957 0.9189
-19.9337 -6.6379 -2.4957 0.9189
-19.6809 -7.3531 -2.4957 0.9189
-18.7724 -9.4387 -2.4959 0.9188
-18.0442 -10.7696 -2.4961 0.9188
-17.2219 -12.0448 -2.4964 0.9188
-16.7769 -12.6595 -2.4966 0.9188
-16.3099 -13.2577 -2.4967 0.9188
-15.8217 -13.8387 -2.4969 0.9188
-15.3128 -14.4019 -2.4970 0.9188
-14.7839 -14.9463 -2.4972 0.9188
-11.7220 -15.8926 -2.3458 0.9235
-10.5465 -16.6997 -2.3462 0.9235
-9.3161 -17.4211 -2.3467 0.9235
-8.6830 -17.7498 -2.3472 0.9235
-8.0382 -18.0555 -2.3477 0.9235
-7.3827 -18.3376 -2.3481 0.9235
-6.7171 -18.5957 -2.3486 0.9234
-5.3592 -19.0368 -2.3492 0.9234
-3.9727 -19.3787 -2.3498 0.9234
-2.5647 -19.6199 -2.3504 0.9234
0.2861 -19.7952 -2.3516 0.9234
4.5373 -19.2828 -2.3531 0.9233
5.2307 -19.1071 -2.3532 0.9233
9.2158 -17.5362 -2.3532 0.9233
9.8425 -17.1915 -2.3531 0.9233
11.6435 -16.0267 -2.3531 0.9233
12.2154 -15.5971 -2.3533 0.9233
12.7714 -15.1470 -2.3535 0.9233
13.3108 -14.6771 -2.3536 0.9233
13.8896 -14.2461 -2.3634 0.9230
14.8725 -14.1911 -2.4418 0.9205
17.6398 -11.5928 -2.5074 0.9185
18.0477 -10.9490 -2.5075 0.9185
19.1281 -8.9347 -2.5078 0.9185
-17.1925 3.8479 -2.4963 0.9313
-17.5071 1.9665 -2.4962 0.9313
-17.5666 1.3331 -2.4962 0.9313
-17.6170 0.0622 -2.4962 0.9313
-17.6079 -0.5738 -2.4962 0.9313
-17.5208 -1.8429 -2.4962 0.9313
-17.4431 -2.4742 -2.4962 0.9313
-17.3427 -3.1024 -2.4963 0.9313
-16.9067 -4.9595 -2.4964 0.9313
-16.0187 -7.3421 -2.4967 0.9313
-15.1329 -9.0320 -2.4970 0.9313
-14.7976 -9.5729 -2.4971 0.9313
-14.0697 -10.6167 -2.4974 0.9313
-13.6779 -11.1182 -2.4975 0.9313
-12.8414 -12.0775 -2.4978 0.9313
-12.3978 -12.5339 -2.4979 0.9313
-11.9379 -12.9741 -2.4981 0.9313
-9.9488 -14.5610 -2.4987 0.9312
-8.7600 -15.0481 -2.4671 0.9321
-7.3451 -15.0148 -2.3684 0.9347
-6.7381 -15.1347 -2.3473 0.9353
-6.1876 -15.3693 -2.3475 0.9353
-5.0633 -15.7780 -2.3479 0.9352
-3.3286 -16.2368 -2.3484 0.9352
-2.7405 -16.3476 -2.3486 0.9352
-2.1487 -16.4372 -2.3488 0.9352
-0.9040 -15.6318 -2.2186 0.9387
-0.3591 -16.5772 -2.3494 0.9352
0.8381 -16.5625 -2.3497 0.9352
2.0312 -16.4615 -2.3501 0.9352
3.2143 -16.2746 -2.3505 0.9352
4.3808 -16.0027 -2.3508 0.9352
4.9561 -15.8353 -2.3510 0.9352
5.5249 -15.6472 -2.3512 0.9352
6.6405 -15.2101 -2.3515 0.9351
7.7218 -14.6933 -2.3519 0.9351
8.2747 -14.4531 -2.3597 0.9349
8.9581 -14.4137 -2.4046 0.9337
9.6726 -14.3782 -2.4553 0.9324
10.3919 -14.3039 -2.5051 0.9311
10.9022 -13.9203 -2.5053 0.9311
11.3983 -13.5185 -2.5054 0.9311
12.7952 -12.2090 -2.5058 0.9310
13.2283 -11.7397 -2.5060 0.9310
14.0423 -10.7557 -2.5062 0.9310
14.7830 -9.7153 -2.5064 0.9310
15.1247 -9.1757 -2.5065 0.9310
15.7485 -8.0610 -2.5067 0.9310
16.0298 -7.4875 -2.5068 0.9310
-14.7914 3.3105 -2.4970 0.9404
-15.0623 1.6919 -2.4969 0.9404
-15.1134 1.1470 -2.4969 0.9404
-15.1489 -0.4937 -2.4969 0.9404
-15.1213 -1.0403 -2.4970 0.9404
-15.0740 -1.5855 -2.4970 0.9404
-15.0071 -2.1287 -2.4970 0.9404
-14.5454 -4.2668 -2.4972 0.9404
-13.9999 -5.8148 -2.4974 0.9404
-13.7813 -6.3166 -2.4974 0.9404
-13.0189 -7.7703 -2.4977 0.9404
-12.7304 -8.2355 -2.4978 0.9404
-12.4252 -8.6901 -2.4979 0.9404
-12.1040 -9.1334 -2.4980 0.9404
-11.4145 -9.9839 -2.4982 0.9404
-11.0471 -10.3899 -2.4983 0.9404
-10.6654 -10.7825 -2.4985 0.9404
-10.2697 -11.1611 -2.4986 0.9404
-9.8606 -11.5252 -2.4987 0.9404
-9.0043 -12.2079 -2.4990 0.9404
-7.6330 -13.1121 -2.4994 0.9403
-6.1718 -13.8631 -2.4999 0.9403
-5.6677 -14.0778 -2.5001 0.9403
-5.1561 -14.2742 -2.5002 0.9403
-4.1133 -14.6109 -2.5006 0.9403
-3.5834 -14.7509 -2.5007 0.9403
-0.3194 -14.7472 -2.4300 0.9420
0.7443 -14.7092 -2.4263 0.9420
2.3470 -14.6475 -2.4438 0.9416
2.8886 -14.6255 -2.4559 0.9414
3.4361 -14.6027 -2.4713 0.9410
3.9911 -14.5789 -2.4901 0.9406
4.5387 -14.5017 -2.5033 0.9403
5.5739 -14.1382 -2.5036 0.9403
6.0811 -13.9287 -2.5037 0.9402
7.0711 -13.4553 -2.5041 0.9402
8.0245 -12.9114 -2.5043 0.9402
8.9362 -12.3002 -2.5046 0.9402
9.8014 -11.6246 -2.5049 0.9402
10.2152 -11.2637 -2.5050 0.9402
11.0024 -10.4983 -2.5053 0.9402
12.0745 -9.2485 -2.5056 0.9402
12.4009 -8.8069 -2.5057 0.9402
12.7112 -8.3537 -2.5058 0.9402
13.5412 -6.9312 -2.5060 0.9402
-12.9670 2.9021 -2.4976 0.9474
-13.2493 1.0055 -2.4975 0.9474
-13.2874 0.0469 -2.4975 0.9474
-13.2804 -0.4328 -2.4975 0.9474
-13.1561 -1.8662 -2.4976 0.9474
-12.9875 -2.8106 -2.4976 0.9474
-12.7512 -3.7405 -2.4977 0.9474
-12.6081 -4.1985 -2.4978 0.9474
-12.4486 -4.6510 -2.4978 0.9473
-11.6508 -6.3950 -2.4981 0.9473
-11.4127 -6.8117 -2.4982 0.9473
-11.1598 -7.2195 -2.4983 0.9473
-10.6105 -8.0065 -2.4984 0.9473
-10.3150 -8.3846 -2.4985 0.9473
-9.6839 -9.1078 -2.4987 0.9473
-9.0023 -9.7837 -2.4990 0.9473
-8.2736 -10.4087 -2.4992 0.9473
-6.2718 -11.7282 -2.4998 0.9473
-4.9679 -12.3396 -2.5003 0.9473
-4.5194 -12.5116 -2.5004 0.9473
-3.1408 -12.9291 -2.5008 0.9473
-2.6722 -13.0348 -2.5010 0.9473
-2.2000 -13.1236 -2.5011 0.9473
-1.7249 -13.1953 -2.5013 0.9473
2.1065 -13.1462 -2.5025 0.9473
2.5798 -13.0624 -2.5026 0.9473
3.0499 -12.9614 -2.5028 0.9472
3.5161 -12.8437 -2.5029 0.9472
5.3293 -12.2066 -2.5035 0.9472
6.1968 -11.7915 -2.5038 0.9472
6.6188 -11.5607 -2.5039 0.9472
7.8310 -10.7790 -2.5043 0.9472
8.5891 -10.1868 -2.5045 0.9472
8.9517 -9.8705 -2.5046 0.9472
9.3026 -9.5413 -2.5047 0.9472
9.6413 -9.1997 -2.5048 0.9472
10.2809 -8.4807 -2.5050 0.9472
10.5809 -8.1043 -2.5051 0.9472
11.1386 -7.3202 -2.5053 0.9472
11.6384 -6.4978 -2.5054 0.9472
11.8657 -6.0736 -2.5055 0.9472
12.0776 -5.6414 -2.5055 0.9472
-11.5325 2.5811 -2.4980 0.9528
-11.6885 1.7422 -2.4980 0.9528
-11.7836 0.8943 -2.4980 0.9528
-11.8174 0.0417 -2.4980 0.9528
-11.7528 -1.2362 -2.4980 0.9528
-11.7006 -1.6596 -2.4980 0.9528
-11.6332 -2.0810 -2.4981 0.9528
-11.5506 -2.4997 -2.4981 0.9528
-11.4530 -2.9150 -2.4981 0.9528
-11.3405 -3.3267 -2.4982 0.9528
-11.0713 -4.1364 -2.4983 0.9528
-10.9150 -4.5335 -2.4983 0.9528
-10.5600 -5.3095 -2.4984 0.9528
-10.3617 -5.6874 -2.4985 0.9528
-10.1499 -6.0580 -2.4986 0.9528
-9.1735 -7.4567 -2.4989 0.9528
-8.3144 -8.4057 -2.4992 0.9528
-8.0059 -8.7008 -2.4993 0.9528
-6.3148 -9.9991 -2.4998 0.9528
-5.9499 -10.2210 -2.4999 0.9528
-4.4177 -10.9731 -2.5004 0.9528
-4.0190 -11.1260 -2.5005 0.9528
-3.6149 -11.2645 -2.5007 0.9528
-2.3762 -11.5910 -2.5011 0.9528
-1.5338 -11.7335 -2.5013 0.9528
1.0246 -11.7927 -2.5021 0.9528
1.8736 -11.6893 -2.5024 0.9528
2.7119 -11.5249 -2.5027 0.9527
3.9426 -11.1659 -2.5030 0.9527
4.3433 -11.0168 -2.5032 0.9527
5.5097 -10.4842 -2.5035 0.9527
5.8849 -10.2789 -2.5036 0.9527
6.2524 -10.0602 -2.5038 0.9527
6.6118 -9.8284 -2.5039 0.9527
7.3042 -9.3265 -2.5041 0.9527
8.2708 -8.4831 -2.5044 0.9527
8.5720 -8.1793 -2.5045 0.9527
8.8620 -7.8648 -2.5046 0.9527
9.1405 -7.5400 -2.5046 0.9527
9.4070 -7.2053 -2.5047 0.9527
9.9030 -6.5082 -2.5049 0.9527
10.1317 -6.1466 -2.5049 0.9527
-10.3738 2.3218 -2.4984 0.9573
-10.5142 1.5672 -2.4984 0.9573
-10.6219 0.4212 -2.4984 0.9573
-10.6302 0.0375 -2.4984 0.9573
-10.6246 -0.3463 -2.4984 0.9573
-10.6052 -0.7296 -2.4984 0.9573
-10.5721 -1.1120 -2.4984 0.9573
-9.9589 -3.7208 -2.4986 0.9573
-9.6649 -4.4299 -2.4987 0.9573
-9.4989 -4.7760 -2.4988 0.9573
-9.3205 -5.1159 -2.4988 0.9573
-9.1300 -5.4492 -2.4989 0.9573
-8.9275 -5.7754 -2.4990 0.9573
-8.7134 -6.0941 -2.4990 0.9572
-8.0042 -7.0011 -2.4993 0.9572
-7.7466 -7.2858 -2.4993 0.9572
-7.2012 -7.8262 -2.4995 0.9572
-6.9142 -8.0814 -2.4996 0.9572
-6.6182 -8.3261 -2.4997 0.9572
-6.0007 -8.7826 -2.4999 0.9572
-5.0166 -9.3811 -2.5002 0.9572
-4.3271 -9.7195 -2.5004 0.9572
-2.8743 -10.2099 -2.4928 0.9574
-1.3795 -10.5533 -2.5014 0.9572
-0.6145 -10.6263 -2.5016 0.9572
-0.2305 -10.6422 -2.5017 0.9572
1.6846 -10.5131 -2.5023 0.9572
2.8117 -10.2708 -2.5027 0.9572
3.1808 -10.1630 -2.5028 0.9572
3.5458 -10.0421 -2.5029 0.9572
3.9062 -9.9079 -2.5030 0.9572
4.9552 -9.4288 -2.5033 0.9572
5.2924 -9.2442 -2.5035 0.9572
7.1575 -7.8922 -2.5040 0.9572
7.7088 -7.3556 -2.5042 0.9572
7.9696 -7.0728 -2.5043 0.9572
8.4596 -6.4797 -2.5044 0.9572
8.6883 -6.1702 -2.5045 0.9572
9.4868 -4.8559 -2.5047 0.9572
9.6561 -4.5104 -2.5048 0.9572
-9.4875 1.7664 -2.4987 0.9609
-9.5901 1.0772 -2.4987 0.9609
-9.6428 0.3824 -2.4987 0.9609
-9.6503 0.0341 -2.4987 0.9609
-9.6453 -0.3144 -2.4987 0.9609
-9.5549 -1.3553 -2.4987 0.9609
-9.4998 -1.6994 -2.4987 0.9609
-9.4324 -2.0413 -2.4988 0.9609
-9.1568 -3.0492 -2.4989 0.9609
-8.9132 -3.7021 -2.4989 0.9609
-8.6232 -4.3357 -2.4990 0.9609
-8.4612 -4.6443 -2.4991 0.9609
-8.2882 -4.9468 -2.4991 0.9609
-8.1045 -5.2429 -2.4992 0.9609
-7.4907 -6.0889 -2.4994 0.9609
-7.0323 -6.6139 -2.4996 0.9609
-6.7891 -6.8637 -2.4996 0.9609
-6.2766 -7.3362 -2.4998 0.9609
-5.1561 -8.1644 -2.5002 0.9609
-4.8582 -8.3455 -2.5003 0.9609
-4.2437 -8.6750 -2.5005 0.9609
-3.9279 -8.8229 -2.5006 0.9609
-3.6070 -8.9593 -2.5007 0.9609
-3.2813 -9.0840 -2.5008 0.9609
-2.2803 -9.3867 -2.5011 0.9609
-1.9400 -9.4633 -2.5012 0.9609
-0.5578 -9.6457 -2.5016 0.9609
-0.2092 -9.6600 -2.5017 0.9609
0.1396 -9.6617 -2.5018 0.9609
0.4885 -9.6508 -2.5019 0.9609
1.8726 -9.4816 -2.5024 0.9609
3.2184 -9.1149 -2.5028 0.9608
4.1855 -8.7146 -2.5031 0.9608
4.4975 -8.5581 -2.5032 0.9608
5.1037 -8.2119 -2.5034 0.9608
5.3970 -8.0226 -2.5035 0.9608
5.9622 -7.6128 -2.5036 0.9608
6.4964 -7.1632 -2.5038 0.9608
6.7510 -6.9242 -2.5039 0.9608
7.8856 -5.6002 -2.5042 0.9608
8.0829 -5.3121 -2.5043 0.9608
8.2696 -5.0169 -2.5043 0.9608
8.6103 -4.4073 -2.5044 0.9608
-8.8019 0.6680 -2.4989 0.9640
-8.8225 -0.2875 -2.4989 0.9640
-8.6278 -1.8671 -2.4990 0.9640
-8.4708 -2.4849 -2.4991 0.9640
-8.2696 -3.0897 -2.4991 0.9640
-8.1528 -3.3862 -2.4992 0.9640
-7.7393 -4.2480 -2.4993 0.9640
-7.5811 -4.5248 -2.4994 0.9640
-6.6462 -5.8132 -2.4997 0.9640
-5.7410 -6.7101 -2.5000 0.9640
-4.4435 -7.6332 -2.5004 0.9639
-4.1652 -7.7889 -2.5005 0.9639
-3.2991 -8.1945 -2.5007 0.9639
-3.0012 -8.3086 -2.5008 0.9639
-2.6994 -8.4118 -2.5009 0.9639
-2.0856 -8.5853 -2.5011 0.9639
-1.1453 -8.7615 -2.5014 0.9639
-0.8283 -8.7975 -2.5015 0.9639
-0.5102 -8.8220 -2.5016 0.9639
-0.1914 -8.8351 -2.5017 0.9639
0.1277 -8.8366 -2.5018 0.9639
1.0825 -8.7720 -2.5021 0.9639
1.3985 -8.7276 -2.5022 0.9639
2.0248 -8.6046 -2.5024 0.9639
2.9434 -8.3362 -2.5027 0.9639
3.8279 -7.9700 -2.5030 0.9639
4.6676 -7.5102 -2.5032 0.9639
5.1977 -7.1543 -2.5034 0.9639
5.4527 -6.9622 -2.5035 0.9639
5.7007 -6.7610 -2.5036 0.9639
6.3987 -6.1056 -2.5038 0.9639
6.8230 -5.6283 -2.5039 0.9639
7.0219 -5.3784 -2.5040 0.9639
7.3920 -4.8579 -2.5041 0.9639
7.5627 -4.5880 -2.5041 0.9639
7.7235 -4.3121 -2.5042 0.9639
7.8743 -4.0305 -2.5042 0.9639
-8.1019 0.6148 -2.4991 0.9666
-8.1188 0.3220 -2.4991 0.9666
-8.1251 0.0287 -2.4991 0.9666
-8.1209 -0.2647 -2.4991 0.9666
-8.0807 -0.8499 -2.4992 0.9666
-7.9984 -1.4308 -2.4992 0.9666
-7.9416 -1.7187 -2.4992 0.9666
-7.8745 -2.0042 -2.4992 0.9666
-7.7971 -2.2873 -2.4993 0.9666
-7.6119 -2.8439 -2.4993 0.9666
-7.5044 -3.1169 -2.4994 0.9666
-6.9781 -4.1649 -2.4995 0.9666
-6.1175 -5.3508 -2.4998 0.9666
-5.7158 -5.7786 -2.5000 0.9666
-5.2842 -6.1763 -2.5001 0.9666
-4.5859 -6.7120 -2.5003 0.9666
-4.0899 -7.0258 -2.5005 0.9666
-3.8338 -7.1691 -2.5006 0.9665
-3.5726 -7.3031 -2.5006 0.9665
-3.3067 -7.4276 -2.5007 0.9665
-2.4846 -7.7423 -2.5010 0.9665
-1.9196 -7.9020 -2.5012 0.9665
-1.3445 -8.0205 -2.5014 0.9665
-0.7624 -8.0972 -2.5015 0.9665
-0.1761 -8.1317 -2.5017 0.9665
0.4111 -8.1238 -2.5019 0.9665
0.9962 -8.0736 -2.5021 0.9665
1.5763 -7.9812 -2.5023 0.9665
2.4302 -7.7648 -2.5025 0.9665
2.7091 -7.6723 -2.5026 0.9665
2.9844 -7.5698 -2.5027 0.9665
3.2558 -7.4574 -2.5028 0.9665
3.5230 -7.3352 -2.5029 0.9665
4.7836 -6.5844 -2.5033 0.9665
5.0183 -6.4076 -2.5033 0.9665
5.2465 -6.2224 -2.5034 0.9665
5.4679 -6.0291 -2.5035 0.9665
5.6822 -5.8280 -2.5035 0.9665
6.0881 -5.4030 -2.5037 0.9665
6.8029 -4.4709 -2.5039 0.9665
7.1081 -3.9685 -2.5040 0.9665
7.2469 -3.7094 -2.5040 0.9665
7.3762 -3.4454 -2.5040 0.9665
-7.3375 1.6422 -2.4994 0.9688
-7.3920 1.3763 -2.4994 0.9688
-7.4719 0.8393 -2.4993 0.9688
-7.5189 0.0265 -2.4993 0.9688
-7.5149 -0.2449 -2.4993 0.9688
-7.4777 -0.7865 -2.4994 0.9688
-7.4445 -1.0560 -2.4994 0.9688
-7.4016 -1.3240 -2.4994 0.9688
-7.2152 -2.1165 -2.4995 0.9688
-6.9444 -2.8843 -2.4995 0.9688
-6.5921 -3.6184 -2.4997 0.9688
-6.4573 -3.8541 -2.4997 0.9688
-6.3141 -4.0847 -2.4998 0.9688
-5.8358 -4.7437 -2.4999 0.9688
-5.6610 -4.9514 -2.5000 0.9688
-5.4786 -5.1527 -2.5000 0.9688
-5.0928 -5.5349 -2.5002 0.9688
-4.6804 -5.8882 -2.5003 0.9688
-4.4649 -6.0535 -2.5004 0.9688
-4.2436 -6.2109 -2.5004 0.9688
-4.0167 -6.3603 -2.5005 0.9688
-3.7846 -6.5013 -2.5006 0.9688
-3.2952 -6.7361 -2.4927 0.9689
-3.0500 -6.8509 -2.4928 0.9689
-2.5531 -7.0679 -2.4980 0.9688
-2.0390 -7.2428 -2.5011 0.9688
-1.5112 -7.3715 -2.5013 0.9688
-0.7054 -7.4925 -2.5016 0.9688
-0.4345 -7.5133 -2.5016 0.9688
0.3804 -7.5170 -2.5019 0.9688
0.6515 -7.4987 -2.5020 0.9688
1.4586 -7.3850 -2.5022 0.9688
1.7243 -7.3278 -2.5023 0.9688
2.2487 -7.1847 -2.5025 0.9688
2.7614 -7.0042 -2.5026 0.9688
3.0125 -6.9002 -2.5027 0.9688
3.5028 -6.6652 -2.5029 0.9688
3.9748 -6.3955 -2.5030 0.9688
4.6433 -5.9288 -2.5032 0.9688
5.4488 -5.1992 -2.5035 0.9688
5.6331 -4.9992 -2.5035 0.9688
6.4398 -3.9069 -2.5038 0.9687
-6.8208 1.5266 -2.4995 0.9707
-6.9458 0.7802 -2.4995 0.9707
-6.9512 -0.7311 -2.4995 0.9707
-6.8804 -1.2308 -2.4995 0.9707
-6.8315 -1.4784 -2.4996 0.9707
-6.6318 -2.2084 -2.4996 0.9707
-6.5479 -2.4464 -2.4997 0.9707
-6.1279 -3.3636 -2.4998 0.9707
-4.9166 -4.9706 -2.5002 0.9707
-4.7341 -5.1450 -2.5003 0.9707
-4.5454 -5.3127 -2.5003 0.9707
-4.1504 -5.6271 -2.5004 0.9707
-3.9447 -5.7735 -2.5005 0.9707
-3.0730 -6.2818 -2.5008 0.9707
-2.6034 -6.4666 -2.4929 0.9708
-1.8892 -6.7108 -2.4931 0.9708
-1.6458 -6.7748 -2.4932 0.9708
-1.4047 -6.8521 -2.5013 0.9707
-0.4039 -6.9838 -2.5016 0.9707
-0.1515 -6.9941 -2.5017 0.9707
0.6056 -6.9701 -2.5020 0.9707
0.8569 -6.9440 -2.5020 0.9707
1.1070 -6.9087 -2.5021 0.9707
1.3558 -6.8645 -2.5022 0.9707
1.6027 -6.8112 -2.5023 0.9707
1.8476 -6.7492 -2.5023 0.9707
2.5667 -6.5104 -2.5026 0.9707
3.4774 -6.0739 -2.5028 0.9707
3.9068 -5.8074 -2.5030 0.9707
4.1140 -5.6628 -2.5030 0.9707
4.3159 -5.5107 -2.5031 0.9707
4.5121 -5.3514 -2.5032 0.9707
5.2358 -4.6467 -2.5034 0.9707
5.4003 -4.4547 -2.5034 0.9707
5.9856 -3.6313 -2.5036 0.9707
6.1129 -3.4129 -2.5036 0.9707
6.2323 -3.1901 -2.5037 0.9707
-6.3654 1.4246 -2.4997 0.9724
-6.4515 0.9616 -2.4997 0.9724
-6.4820 0.7281 -2.4997 0.9724
-6.5041 0.4936 -2.4996 0.9724
-6.5227 0.0230 -2.4996 0.9724
-6.5074 -0.4477 -2.4997 0.9724
-6.4582 -0.9161 -2.4997 0.9724
-6.3753 -1.3796 -2.4997 0.9724
-6.3214 -1.6089 -2.4997 0.9724
-6.1890 -2.0609 -2.4998 0.9724
-5.6017 -3.3434 -2.5000 0.9724
-5.4775 -3.5435 -2.5000 0.9724
-5.3460 -3.7390 -2.5001 0.9724
-5.2077 -3.9296 -2.5001 0.9724
-5.0625 -4.1152 -2.5001 0.9724
-4.9108 -4.2953 -2.5002 0.9724
-4.5882 -4.6386 -2.5003 0.9724
-4.4179 -4.8014 -2.5004 0.9724
-4.2418 -4.9578 -2.5004 0.9724
-4.0601 -5.1079 -2.5005 0.9724
-3.8732 -5.2512 -2.5005 0.9724
-3.4844 -5.5172 -2.5007 0.9724
-2.2173 -6.1383 -2.5011 0.9724
-1.9943 -6.2145 -2.5011 0.9724
-1.7687 -6.2827 -2.5012 0.9724
-1.3108 -6.3942 -2.5013 0.9724
-0.3757 -6.4961 -2.4936 0.9725
0.0943 -6.5277 -2.5018 0.9724
0.3299 -6.5203 -2.5019 0.9724
0.7996 -6.4798 -2.5020 0.9724
1.0330 -6.4469 -2.5021 0.9724
1.4956 -6.3559 -2.5022 0.9724
1.7241 -6.2980 -2.5023 0.9724
1.9504 -6.2318 -2.5024 0.9724
2.3951 -6.0752 -2.5025 0.9724
2.6129 -5.9849 -2.5026 0.9724
2.8274 -5.8869 -2.5026 0.9724
3.2449 -5.6678 -2.5028 0.9724
3.4475 -5.5471 -2.5028 0.9724
3.6456 -5.4191 -2.5029 0.9724
3.8390 -5.2841 -2.5030 0.9724
4.3880 -4.8384 -2.5031 0.9724
5.1860 -3.9722 -2.5034 0.9724
5.3261 -3.7825 -2.5034 0.9724
5.4593 -3.5878 -2.5034 0.9724
5.7041 -3.1846 -2.5035 0.9724
5.8154 -2.9767 -2.5036 0.9724
-6.0047 1.1179 -2.4998 0.9739
-6.0411 0.9004 -2.4998 0.9739
-6.1030 0.2421 -2.4998 0.9739
-6.1046 -0.1990 -2.4998 0.9739
-6.0934 -0.4192 -2.4998 0.9739
-6.0743 -0.6389 -2.4998 0.9739
-6.0125 -1.0756 -2.4998 0.9739
-5.9193 -1.5066 -2.4999 0.9739
-5.8611 -1.7193 -2.4999 0.9739
-5.7952 -1.9298 -2.4999 0.9739
-5.7218 -2.1378 -2.4999 0.9739
-5.6410 -2.3430 -2.4999 0.9739
-5.5528 -2.5451 -2.5000 0.9739
-5.4574 -2.7439 -2.5000 0.9739
-5.3548 -2.9392 -2.5000 0.9739
-5.2453 -3.1307 -2.5001 0.9739
-5.0059 -3.5011 -2.5002 0.9739
-4.8763 -3.6796 -2.5002 0.9739
-4.7404 -3.8533 -2.5002 0.9739
-4.5983 -4.0220 -2.5003 0.9739
-4.4502 -4.1854 -2.5003 0.9739
-4.2963 -4.3435 -2.5004 0.9739
-4.1368 -4.4958 -2.5004 0.9739
-3.6267 -4.9171 -2.5006 0.9739
-3.2626 -5.1662 -2.5007 0.9739
-3.0740 -5.2807 -2.5008 0.9739
-2.8815 -5.3884 -2.5008 0.9739
-2.6851 -5.4890 -2.5009 0.9739
-2.2822 -5.6687 -2.5010 0.9739
-2.0761 -5.7476 -2.5011 0.9739
-1.6561 -5.8827 -2.5012 0.9739
-1.4427 -5.9388 -2.5013 0.9739
-1.2274 -5.9872 -2.5014 0.9739
-1.0105 -6.0278 -2.5014 0.9739
-0.3529 -6.1022 -2.5016 0.9739
-0.1324 -6.1111 -2.5017 0.9739
0.0883 -6.1121 -2.5018 0.9739
0.3089 -6.1051 -2.5019 0.9739
0.5292 -6.0901 -2.5019 0.9739
0.7487 -6.0672 -2.5020 0.9739
1.1846 -5.9977 -2.5021 0.9739
1.8262 -5.8350 -2.5023 0.9739
2.6473 -5.5119 -2.5026 0.9739
2.8446 -5.4129 -2.5026 0.9739
3.0383 -5.3068 -2.5027 0.9739
3.2279 -5.1937 -2.5028 0.9739
3.4134 -5.0740 -2.5028 0.9739
3.5944 -4.9476 -2.5029 0.9739
3.7708 -4.8146 -2.5029 0.9739
4.1085 -4.5302 -2.5030 0.9739
5.1115 -3.3592 -2.5033 0.9739
-5.7002 0.6403 -2.4999 0.9753
-5.7197 0.4341 -2.4999 0.9753
-5.7331 -0.1869 -2.4999 0.9753
-5.7226 -0.3937 -2.4999 0.9753
-5.6465 -1.0101 -2.4999 0.9753
-5.6064 -1.2133 -2.4999 0.9753
-5.5043 -1.6147 -2.5000 0.9753
-5.4425 -1.8124 -2.5000 0.9753
-5.3736 -2.0077 -2.5000 0.9753
-5.2149 -2.3902 -2.5001 0.9753
-5.0289 -2.7603 -2.5001 0.9753
-4.8168 -3.1161 -2.5002 0.9753
-4.7012 -3.2880 -2.5003 0.9753
-4.3184 -3.7772 -2.5004 0.9753
-4.0348 -4.0790 -2.5005 0.9753
-3.8850 -4.2222 -2.5005 0.9753
-3.7301 -4.3597 -2.5006 0.9753
-3.5703 -4.4917 -2.5006 0.9753
-3.4059 -4.6177 -2.5007 0.9753
-3.0642 -4.8517 -2.5008 0.9753
-2.8869 -4.9592 -2.5008 0.9753
-2.7061 -5.0603 -2.5009 0.9753
-2.5217 -5.1548 -2.5010 0.9753
-2.3340 -5.2426 -2.5010 0.9753
-1.9497 -5.3976 -2.5011 0.9753
-1.7536 -5.4646 -2.5012 0.9753
-1.5553 -5.5245 -2.5013 0.9753
-1.3548 -5.5772 -2.5013 0.9753
-0.5380 -5.7147 -2.5016 0.9753
-0.1243 -5.7389 -2.5017 0.9753
0.0830 -5.7398 -2.5018 0.9753
0.2901 -5.7332 -2.5018 0.9753
0.4969 -5.7192 -2.5019 0.9753
0.9083 -5.6687 -2.5020 0.9753
1.3151 -5.5887 -2.5022 0.9753
1.5160 -5.5377 -2.5022 0.9753
1.7150 -5.4795 -2.5023 0.9753
1.9117 -5.4142 -2.5024 0.9753
2.2975 -5.2624 -2.5025 0.9753
2.4860 -5.1761 -2.5025 0.9753
3.0313 -4.8773 -2.5027 0.9753
3.2054 -4.7648 -2.5027 0.9753
3.3754 -4.6461 -2.5028 0.9753
3.5410 -4.5213 -2.5029 0.9753
4.1552 -3.9648 -2.5030 0.9753
4.5598 -3.4925 -2.5032 0.9752
4.6829 -3.3257 -2.5032 0.9752
5.0152 -2.8001 -2.5033 0.9752
5.1131 -2.6172 -2.5033 0.9752
5.2043 -2.4309 -2.5034 0.9752
-5.3419 0.7962 -2.5000 0.9765
-5.3966 0.2140 -2.5000 0.9765
-5.4008 0.0191 -2.5000 0.9765
-5.3882 -0.3707 -2.5000 0.9765
-5.3713 -0.5650 -2.5000 0.9765
-5.3166 -0.9511 -2.5000 0.9765
-5.2788 -1.1424 -2.5000 0.9765
-5.0596 -1.8904 -2.5001 0.9765
-4.9881 -2.0718 -2.5001 0.9765
-4.9101 -2.2505 -2.5002 0.9765
-4.8257 -2.4263 -2.5002 0.9765
-4.6382 -2.7683 -2.5003 0.9765
-4.4264 -3.0958 -2.5003 0.9765
-4.3119 -3.2537 -2.5004 0.9765
-3.9350 -3.7009 -2.5005 0.9765
-3.7989 -3.8407 -2.5005 0.9765
-3.6579 -3.9754 -2.5006 0.9765
-3.3616 -4.2291 -2.5007 0.9765
-3.2068 -4.3478 -2.5007 0.9765
-2.7181 -4.6693 -2.5009 0.9765
-2.0180 -5.0124 -2.5011 0.9765
-1.8357 -5.0821 -2.5012 0.9765
-1.2756 -5.2511 -2.5013 0.9765
-1.0852 -5.2939 -2.5014 0.9765
-0.7005 -5.3586 -2.5015 0.9765
-0.5066 -5.3806 -2.5016 0.9765
-0.1170 -5.4034 -2.5017 0.9765
0.0781 -5.4042 -2.5018 0.9765
0.6620 -5.3645 -2.5020 0.9765
0.8552 -5.3372 -2.5020 0.9765
1.6147 -5.1590 -2.5023 0.9765
1.7999 -5.0975 -2.5023 0.9765
1.9828 -5.0293 -2.5024 0.9765
2.1631 -4.9546 -2.5024 0.9765
2.5151 -4.7858 -2.5025 0.9765
2.6863 -4.6919 -2.5026 0.9765
2.8539 -4.5920 -2.5026 0.9765
3.1780 -4.3743 -2.5027 0.9764
3.4854 -4.1338 -2.5028 0.9764
3.6325 -4.0053 -2.5029 0.9764
4.0444 -3.5893 -2.5030 0.9764
4.1714 -3.4410 -2.5030 0.9764
4.4089 -3.1311 -2.5031 0.9764
4.6235 -2.8049 -2.5032 0.9764
4.8998 -2.2887 -2.5033 0.9764
-5.0411 0.7514 -2.5001 0.9775
-5.0649 0.5689 -2.5001 0.9775
-5.0821 0.3857 -2.5001 0.9775
-5.0928 0.2020 -2.5001 0.9775
-5.0967 0.0180 -2.5001 0.9775
-5.0941 -0.1660 -2.5001 0.9775
-5.0848 -0.3498 -2.5001 0.9775
-4.9815 -1.0781 -2.5001 0.9775
-4.9394 -1.2572 -2.5002 0.9775
-4.8359 -1.6104 -2.5002 0.9775
-4.5539 -2.2897 -2.5003 0.9775
-4.2798 -2.7687 -2.5004 0.9775
-4.1772 -2.9215 -2.5004 0.9775
-3.9556 -3.2154 -2.5005 0.9775
-3.8370 -3.3561 -2.5005 0.9775
-3.5850 -3.6244 -2.5006 0.9775
-3.1723 -3.9909 -2.5007 0.9775
-2.5650 -4.4063 -2.5009 0.9775
-2.4043 -4.4961 -2.5010 0.9775
-2.0737 -4.6580 -2.5011 0.9775
-1.3818 -4.9085 -2.5013 0.9775
-1.2038 -4.9553 -2.5014 0.9775
-1.0241 -4.9956 -2.5014 0.9775
-0.6610 -5.0567 -2.5015 0.9775
-0.4780 -5.0774 -2.5016 0.9775
-0.2944 -5.0915 -2.5017 0.9775
-0.1104 -5.0989 -2.5017 0.9775
0.0737 -5.0997 -2.5018 0.9775
0.2578 -5.0938 -2.5018 0.9775
0.9883 -5.0041 -2.5021 0.9775
1.3469 -4.9200 -2.5022 0.9775
1.5237 -4.8683 -2.5022 0.9775
1.6985 -4.8102 -2.5023 0.9775
2.8478 -4.2332 -2.5026 0.9775
3.1460 -4.0169 -2.5027 0.9775
3.2890 -3.9007 -2.5028 0.9775
3.4277 -3.7795 -2.5028 0.9775
3.5620 -3.6534 -2.5029 0.9775
3.6916 -3.5225 -2.5029 0.9775
4.0510 -3.1028 -2.5030 0.9775
4.2644 -2.8025 -2.5031 0.9775
4.3628 -2.6468 -2.5031 0.9775
4.5425 -2.3252 -2.5031 0.9775
-4.7030 1.0526 -2.5002 0.9785
-4.7380 0.8821 -2.5002 0.9785
-4.7667 0.7105 -2.5002 0.9785
-4.7892 0.5380 -2.5002 0.9785
-4.8155 0.1910 -2.5002 0.9785
-4.8168 -0.1570 -2.5002 0.9785
-4.8080 -0.3308 -2.5002 0.9785
-4.7929 -0.5041 -2.5002 0.9785
-4.7104 -1.0194 -2.5002 0.9785
-4.6246 -1.3566 -2.5003 0.9785
-4.5147 -1.6868 -2.5003 0.9785
-4.4509 -1.8487 -2.5003 0.9785
-4.3813 -2.0082 -2.5003 0.9785
-4.3060 -2.1651 -2.5004 0.9785
-4.2251 -2.3191 -2.5004 0.9785
-4.1387 -2.4702 -2.5004 0.9785
-4.0469 -2.6180 -2.5005 0.9785
-3.7402 -3.0403 -2.5006 0.9785
-3.6281 -3.1734 -2.5006 0.9785
-3.3898 -3.4270 -2.5007 0.9785
-3.2639 -3.5472 -2.5007 0.9785
-3.1338 -3.6628 -2.5007 0.9785
-2.9996 -3.7736 -2.5008 0.9785
-2.2734 -4.2513 -2.5010 0.9785
-2.1185 -4.3306 -2.5011 0.9785
-1.8006 -4.4724 -2.5012 0.9785
-1.6380 -4.5346 -2.5012 0.9785
-1.4733 -4.5909 -2.5013 0.9785
-1.3066 -4.6412 -2.5013 0.9785
-1.1382 -4.6854 -2.5014 0.9785
-0.7973 -4.7555 -2.5015 0.9785
-0.2784 -4.8142 -2.5017 0.9785
-0.1043 -4.8212 -2.5017 0.9785
0.4171 -4.8046 -2.5019 0.9785
0.5906 -4.7865 -2.5019 0.9785
0.7631 -4.7621 -2.5020 0.9785
0.9344 -4.7315 -2.5020 0.9785
1.2735 -4.6520 -2.5021 0.9785
1.4407 -4.6031 -2.5022 0.9785
1.9300 -4.4206 -2.5023 0.9785
2.0884 -4.3481 -2.5024 0.9785
2.2440 -4.2700 -2.5024 0.9785
2.3967 -4.1863 -2.5025 0.9785
2.5463 -4.0971 -2.5025 0.9785
2.6926 -4.0026 -2.5026 0.9785
3.1098 -3.6882 -2.5027 0.9785
3.2409 -3.5736 -2.5027 0.9785
3.6084 -3.2024 -2.5029 0.9785
3.8302 -2.9337 -2.5029 0.9785
3.9337 -2.7936 -2.5030 0.9785
4.0320 -2.6498 -2.5030 0.9785
4.2950 -2.1984 -2.5031 0.9785
-4.4548 0.9970 -2.5003 0.9794
-4.5519 0.3454 -2.5003 0.9794
-4.5614 0.1809 -2.5003 0.9794
-4.5400 -0.4775 -2.5003 0.9794
-4.5198 -0.6411 -2.5003 0.9794
-4.4240 -1.1260 -2.5003 0.9794
-4.3313 -1.4423 -2.5003 0.9794
-4.2765 -1.5978 -2.5004 0.9794
-4.1501 -1.9022 -2.5004 0.9794
-3.9202 -2.3398 -2.5005 0.9794
-3.8332 -2.4798 -2.5005 0.9794
-3.6444 -2.7500 -2.5006 0.9794
-3.4366 -3.0059 -2.5006 0.9794
-3.3259 -3.1280 -2.5007 0.9794
-2.9683 -3.4695 -2.5008 0.9794
-2.8412 -3.5744 -2.5008 0.9794
-2.2973 -3.9464 -2.5010 0.9794
-1.3954 -4.3485 -2.5013 0.9794
-1.0781 -4.4380 -2.5014 0.9794
-0.5920 -4.5288 -2.5016 0.9794
-0.4281 -4.5473 -2.5016 0.9794
-0.0989 -4.5666 -2.5017 0.9794
0.2309 -4.5620 -2.5018 0.9794
0.3954 -4.5508 -2.5019 0.9794
0.5595 -4.5336 -2.5019 0.9794
1.0464 -4.4469 -2.5021 0.9794
2.4118 -3.8807 -2.5025 0.9794
2.5504 -3.7911 -2.5025 0.9794
2.8174 -3.5973 -2.5026 0.9794
3.0697 -3.3848 -2.5027 0.9794
3.6278 -2.7788 -2.5029 0.9794
3.8190 -2.5098 -2.5029 0.9794
3.9071 -2.3704 -2.5029 0.9794
3.9902 -2.2277 -2.5030 0.9794
4.0680 -2.0823 -2.5030 0.9794
4.1406 -1.9341 -2.5030 0.9794
-4.2834 0.6385 -2.5003 0.9802
-4.3037 0.4834 -2.5003 0.9802
-4.3273 0.1716 -2.5003 0.9802
-4.3284 -0.1411 -2.5003 0.9802
-4.3205 -0.2972 -2.5003 0.9802
-4.2878 -0.6082 -2.5004 0.9802
-4.2631 -0.7626 -2.5004 0.9802
-4.2328 -0.9160 -2.5004 0.9802
-4.1970 -1.0682 -2.5004 0.9802
-4.1557 -1.2191 -2.5004 0.9802
-4.1090 -1.3683 -2.5004 0.9802
-3.8694 -1.9455 -2.5005 0.9802
-3.7967 -2.0840 -2.5005 0.9802
-3.7190 -2.2197 -2.5005 0.9802
-3.1552 -2.9675 -2.5007 0.9802
-3.0460 -3.0795 -2.5008 0.9802
-2.9329 -3.1875 -2.5008 0.9802
-2.5712 -3.4861 -2.5009 0.9802
-2.4437 -3.5767 -2.5010 0.9802
-2.0428 -3.8201 -2.5011 0.9802
-1.7619 -3.9577 -2.5012 0.9802
-1.4718 -4.0746 -2.5013 0.9802
-1.1740 -4.1704 -2.5014 0.9802
-1.0227 -4.2102 -2.5014 0.9802
-0.8701 -4.2444 -2.5015 0.9802
-0.5616 -4.2963 -2.5016 0.9802
-0.0938 -4.3321 -2.5017 0.9802
0.0626 -4.3327 -2.5018 0.9802
0.3751 -4.3171 -2.5019 0.9802
0.9926 -4.2185 -2.5020 0.9802
1.2945 -4.1360 -2.5021 0.9802
1.4430 -4.0866 -2.5022 0.9802
1.5896 -4.0320 -2.5022 0.9802
1.7342 -3.9720 -2.5023 0.9802
1.8764 -3.9069 -2.5023 0.9802
2.0163 -3.8367 -2.5024 0.9802
2.5477 -3.5068 -2.5025 0.9802
2.6727 -3.4125 -2.5026 0.9802
3.2422 -2.8774 -2.5027 0.9802
3.3440 -2.7585 -2.5028 0.9802
3.5344 -2.5101 -2.5028 0.9802
3.7064 -2.2486 -2.5029 0.9802
3.7852 -2.1133 -2.5029 0.9802
3.8591 -1.9753 -2.5029 0.9802
3.9279 -1.8347 -2.5029 0.9802
