ply
format ascii 1.0
element vertex 1296
property float32 x
property float32 y
property float32 z
property float32 I
end_header
21.9466 14.5912 4.6470 0.8985
20.3004 14.5725 4.4063 0.9035
18.9073 14.6273 4.2151 0.9075
15.1610 14.5847 3.7094 0.9181
14.0308 14.5011 3.5579 0.9213
13.0473 14.4899 3.4381 0.9239
12.1268 14.4795 3.3303 0.9262
10.4436 14.4603 3.1452 0.9301
9.6684 14.4515 3.0659 0.9318
8.2251 14.4351 2.9295 0.9347
8.1151 15.5095 3.0865 0.9314
8.0990 16.9300 3.3092 0.9266
8.0804 18.5737 3.5715 0.9210
7.7771 28.4410 5.1990 0.8871
7.7252 39.0702 7.0225 0.8506
-3.6561 28.5196 5.0699 0.8898
-2.9943 18.1665 3.2465 0.9279
-2.9645 14.6836 2.6414 0.9410
-3.5152 14.6773 2.6612 0.9405
-4.0750 14.6710 2.6848 0.9400
-5.2286 14.6578 2.7441 0.9387
-5.8263 14.6511 2.7802 0.9380
-7.0742 14.6369 2.8665 0.9361
-8.4092 14.6217 2.9742 0.9338
-9.8561 14.6052 3.1068 0.9309
-9.5247 12.1378 2.7205 0.9393
-12.3084 14.5773 3.3641 0.9254
-13.1560 14.4934 3.4514 0.9236
-15.2404 14.5439 3.7146 0.9180
-16.3633 14.5312 3.8588 0.9149
-21.7404 4.1431 3.9024 0.9140
25.8590 14.6357 4.5519 0.8867
23.9028 14.6841 4.2976 0.8927
21.9466 14.5912 4.0373 0.8988
20.3004 14.5725 3.8282 0.9038
18.9073 14.6273 3.6621 0.9078
17.4633 14.5402 3.4812 0.9121
16.2262 14.5261 3.3363 0.9156
15.0866 14.5132 3.2070 0.9188
14.0308 14.5011 3.0911 0.9216
13.0473 14.4900 2.9871 0.9241
12.1268 14.4795 2.8934 0.9264
10.4436 14.4603 2.7326 0.9304
8.0989 16.9297 2.8750 0.9269
8.0803 18.5734 3.1029 0.9213
8.0584 20.5028 3.3748 0.9147
10.0510 28.5376 4.6350 0.8848
-2.9945 18.1674 2.8207 0.9282
-2.9645 14.6836 2.2948 0.9412
-3.5152 14.6773 2.3121 0.9408
-6.4407 14.6441 2.4508 0.9373
-7.0742 14.6369 2.4904 0.9363
-7.7294 14.6294 2.5347 0.9352
-9.1169 14.6136 2.6387 0.9327
-8.8461 12.1456 2.3018 0.9410
-9.5247 12.1379 2.3636 0.9395
-14.1970 14.5558 3.1149 0.9210
-15.2404 14.5439 3.2273 0.9183
-13.9983 12.4309 2.8680 0.9270
-18.9924 14.5719 3.6673 0.9077
-20.3513 14.4858 3.8268 0.9039
-21.8013 7.5099 3.5324 0.9109
25.8590 14.6357 3.8693 0.8870
20.3004 14.5725 3.2541 0.9041
18.8145 14.5556 3.0976 0.9085
14.4543 12.0348 2.4493 0.9269
14.2264 12.7357 2.4865 0.9259
13.0473 14.4899 2.5391 0.9244
12.1268 14.4795 2.4595 0.9266
11.2611 14.4696 2.3876 0.9287
10.4436 14.4603 2.3228 0.9306
9.6684 14.4515 2.2642 0.9323
6.4472 10.4271 1.5964 0.9518
8.2251 14.4351 2.1635 0.9352
8.1149 15.5091 2.2794 0.9318
8.0988 16.9295 2.4438 0.9271
8.0801 18.5731 2.6376 0.9215
10.0260 28.4666 3.9301 0.8854
7.7771 28.4410 3.8396 0.8879
7.6336 32.4465 4.3406 0.8742
-0.7339 36.8149 4.7950 0.8620
-2.0551 36.7999 4.7996 0.8619
-3.1288 34.0449 4.4520 0.8712
-3.6561 28.5196 3.7442 0.8905
-2.9645 14.6836 1.9507 0.9414
-3.5152 14.6773 1.9653 0.9409
-4.6455 14.6645 2.0031 0.9398
-7.7294 14.6294 2.1546 0.9354
-8.4092 14.6217 2.1965 0.9342
-8.2012 12.1529 1.9092 0.9426
-9.5247 12.1379 2.0092 0.9397
-10.2418 12.1297 2.0673 0.9380
-13.4558 13.7959 2.5095 0.9252
-13.2251 12.6207 2.3805 0.9289
-13.6158 12.0913 2.3713 0.9292
45.6243 19.6921 5.3361 0.8188
25.8590 14.6357 3.1907 0.8873
19.6872 12.0944 2.4811 0.9112
18.4742 12.2826 2.3822 0.9146
18.5742 13.3334 2.4552 0.9121
15.5727 12.0476 2.1142 0.9238
13.3704 11.9695 1.9270 0.9304
10.4436 14.4603 1.9154 0.9308
6.4437 10.4215 1.3157 0.9519
8.1147 15.5088 1.8796 0.9320
10.0260 28.4666 3.2408 0.8857
7.7771 28.4410 3.1662 0.8881
7.2973 36.9063 4.0398 0.8595
4.9283 39.7042 4.2962 0.8513
4.0910 46.5604 5.0190 0.8286
2.4121 46.5413 5.0044 0.8290
0.7409 46.5223 4.9963 0.8293
-0.7339 36.8149 3.9540 0.8623
-2.0551 36.7999 3.9578 0.8622
-3.1811 34.6146 3.7326 0.8695
-2.9948 18.1691 1.9774 0.9286
-2.9645 14.6836 1.6086 0.9415
-4.6202 14.5848 1.6428 0.9403
-5.2002 14.5782 1.6620 0.9396
-6.4407 14.6441 1.7179 0.9377
-7.7076 13.4017 1.6601 0.9397
-7.5533 12.1073 1.5324 0.9442
-11.0025 12.1210 1.7578 0.9363
-13.6158 12.0913 1.9554 0.9294
-14.6271 12.0798 2.0371 0.9265
-18.9017 14.5023 2.5583 0.9086
-20.3513 14.4858 2.6824 0.9044
-18.1315 10.1664 2.2322 0.9198
-44.8655 15.4549 5.0956 0.8262
-44.9483 13.7017 5.0459 0.8278
-45.0134 11.9759 5.0018 0.8291
-45.4556 10.3640 5.0064 0.8290
45.6772 17.8008 4.1500 0.8214
15.5727 12.0476 1.6667 0.9240
14.4543 12.0348 1.5922 0.9273
13.4304 12.0232 1.5259 0.9302
12.7505 13.1779 1.5522 0.9290
6.4402 10.4158 1.0367 0.9520
8.0798 18.5724 1.7145 0.9219
5.3056 22.5515 1.9612 0.9112
1.9506 37.6355 3.1902 0.8596
0.5992 37.6201 3.1850 0.8598
-2.9309 22.8625 1.9512 0.9116
-2.9949 18.1700 1.5589 0.9287
-2.9645 14.6836 1.2681 0.9416
-3.5152 14.6773 1.2776 0.9412
-5.8263 14.6511 1.3347 0.9387
-6.4407 14.6441 1.3543 0.9378
-7.0742 14.6369 1.3762 0.9368
-7.9832 13.8810 1.3555 0.9377
-7.8297 12.5504 1.2522 0.9423
-8.9585 13.2751 1.3557 0.9377
-9.4293 12.9463 1.3558 0.9377
-9.8880 12.6009 1.3559 0.9377
-10.9549 12.0686 1.3798 0.9367
-12.6815 12.1019 1.4839 0.9321
-13.6159 12.0913 1.5415 0.9295
-15.7280 12.0673 1.6782 0.9235
-20.3513 14.4858 2.1146 0.9046
-18.1291 10.1651 1.7595 0.9200
-45.1435 15.5506 4.0419 0.8256
45.6236 19.6918 3.0814 0.8194
21.3077 12.0598 1.5182 0.9065
18.0840 12.0231 1.3466 0.9166
17.3591 12.4611 1.3251 0.9179
16.6978 13.9028 1.3474 0.9166
16.2263 14.5261 1.3505 0.9164
12.9008 12.4104 1.1100 0.9308
14.0308 14.5011 1.2512 0.9223
13.0473 14.4900 1.2091 0.9248
11.2611 14.4696 1.1370 0.9292
10.4951 14.5316 1.1116 0.9307
9.7160 14.5227 1.0835 0.9324
6.4367 10.4102 0.7590 0.9521
8.2251 14.4351 1.0302 0.9356
8.0797 18.5721 1.2559 0.9220
7.9533 22.5816 1.4846 0.9085
5.2264 26.4326 1.6708 0.8976
3.9010 31.4273 1.9638 0.8808
1.6275 31.4014 1.9498 0.8816
0.4999 31.3886 1.9467 0.8818
-2.9645 14.6836 0.9289 0.9417
-4.0750 14.6710 0.9442 0.9408
-4.6678 14.7350 0.9585 0.9399
-5.8263 14.6511 0.9777 0.9388
-6.4407 14.6441 0.9920 0.9379
-7.7294 14.6294 1.0260 0.9358
-8.4092 14.6217 1.0459 0.9346
-10.6311 14.5964 1.1198 0.9302
-11.4467 14.5871 1.1498 0.9284
-12.3084 14.5773 1.1831 0.9264
-11.3558 12.5103 1.0477 0.9345
-15.2404 14.5440 1.3063 0.9190
-18.9925 14.5720 1.4844 0.9085
-20.3513 14.4858 1.5490 0.9047
-18.1267 10.1638 1.2887 0.9201
-45.1439 15.5507 2.9608 0.8258
21.9466 14.5912 1.0392 0.8999
17.3592 12.4611 0.8426 0.9180
17.4634 14.5402 0.8960 0.9130
16.2263 14.5261 0.8587 0.9165
12.9008 12.4104 0.7059 0.9308
14.0308 14.5012 0.7956 0.9224
11.2611 14.4696 0.7230 0.9292
9.7160 14.5228 0.6890 0.9324
6.4333 10.4046 0.4824 0.9522
8.2251 14.4351 0.6551 0.9357
8.1144 15.5081 0.6901 0.9323
8.1276 16.9898 0.7426 0.9274
5.2262 26.4317 1.0624 0.8978
3.3478 26.9707 1.0716 0.8969
2.3687 26.9596 1.0671 0.8973
1.3967 26.9485 1.0640 0.8976
0.4290 26.9375 1.0623 0.8978
-0.4563 22.8907 0.9028 0.9124
-2.1020 22.8720 0.9057 0.9122
-2.9952 18.1717 0.7262 0.9289
-3.5152 14.6774 0.5951 0.9414
-4.6678 14.7350 0.6095 0.9400
-5.2537 14.7283 0.6166 0.9393
-5.8263 14.6511 0.6217 0.9388
-6.4407 14.6441 0.6308 0.9380
-7.7294 14.6294 0.6524 0.9359
-11.3558 12.5103 0.6662 0.9346
-12.1926 12.5007 0.6886 0.9325
-15.2404 14.5440 0.8307 0.9191
-20.3513 14.4858 0.9850 0.9048
-45.0343 13.7279 1.8564 0.8282
45.7280 15.9572 0.8181 0.8239
45.6761 17.8004 0.8281 0.8219
25.8591 14.6357 0.5019 0.8879
17.3592 12.4611 0.3610 0.9181
16.5037 12.7678 0.3525 0.9199
17.4634 14.5402 0.3839 0.9131
16.2263 14.5261 0.3679 0.9166
12.9008 12.4104 0.3024 0.9309
14.0308 14.5012 0.3408 0.9224
10.4951 14.5316 0.3028 0.9308
9.7160 14.5228 0.2952 0.9325
6.4298 10.3990 0.2065 0.9523
8.2251 14.4351 0.2806 0.9357
8.1142 15.5079 0.2956 0.9324
8.1276 16.9898 0.3181 0.9274
8.0794 18.5714 0.3421 0.9222
8.1695 20.7854 0.3773 0.9145
7.9533 22.5816 0.4044 0.9087
5.3056 22.5515 0.3913 0.9115
4.8081 24.3171 0.4187 0.9056
3.9065 24.3069 0.4159 0.9062
3.0159 24.2967 0.4136 0.9067
2.1339 24.2867 0.4118 0.9071
1.2582 24.2767 0.4106 0.9073
-0.4563 22.8907 0.3867 0.9125
-1.2778 22.8813 0.3871 0.9124
-2.1020 22.8720 0.3880 0.9122
-2.9309 22.8625 0.3894 0.9119
-2.9645 14.6836 0.2530 0.9418
-3.5152 14.6774 0.2549 0.9414
-5.2537 14.7283 0.2641 0.9394
-7.7294 14.6294 0.2795 0.9360
-8.4092 14.6217 0.2849 0.9347
-7.8297 12.5504 0.2499 0.9425
-10.6311 14.5964 0.3050 0.9303
-12.1926 12.5007 0.2950 0.9325
-15.2404 14.5440 0.3559 0.9192
-16.3634 14.5312 0.3697 0.9162
-18.9925 14.5720 0.4044 0.9087
-20.3513 14.4858 0.4220 0.9049
-22.5354 14.8528 0.4559 0.8977
-18.1221 10.1611 0.3510 0.9202
-45.0760 17.3588 0.8159 0.8243
-45.1445 15.5510 0.8066 0.8261
-45.1041 12.0000 0.7884 0.8297
-43.6964 8.3273 0.7514 0.8370
45.6758 17.8003 -0.2760 0.8219
45.6226 19.6914 -0.2798 0.8197
20.9218 12.8528 -0.1383 0.9065
21.9466 14.5912 -0.1484 0.8999
16.5054 12.7691 -0.1175 0.9199
17.4634 14.5402 -0.1279 0.9131
14.0308 14.5012 -0.1136 0.9225
12.1268 14.4795 -0.1063 0.9272
11.2611 14.4696 -0.1032 0.9293
9.6684 14.4515 -0.0979 0.9328
6.4264 10.3935 -0.0688 0.9523
8.2251 14.4351 -0.0935 0.9357
8.0793 18.5711 -0.1140 0.9222
7.9533 22.5816 -0.1348 0.9087
7.0509 22.5714 -0.1331 0.9097
5.0936 21.6502 -0.1252 0.9149
4.2790 21.6409 -0.1242 0.9155
3.4765 21.6318 -0.1234 0.9161
2.6840 21.6228 -0.1227 0.9165
-1.2778 22.8813 -0.1290 0.9124
-2.1020 22.8720 -0.1293 0.9122
-2.9309 22.8625 -0.1298 0.9119
-2.9955 18.1734 -0.1037 0.9290
-4.6203 14.5848 -0.0861 0.9406
-5.8263 14.6511 -0.0888 0.9389
-6.4407 14.6441 -0.0901 0.9380
-7.7294 14.6294 -0.0932 0.9360
-10.6312 14.5964 -0.1017 0.9303
-11.4467 14.5871 -0.1044 0.9285
-12.3084 14.5773 -0.1074 0.9265
-11.3558 12.5103 -0.0951 0.9346
-12.1926 12.5007 -0.0983 0.9325
-16.3634 14.5312 -0.1232 0.9162
-18.9017 14.5023 -0.1341 0.9091
-36.4101 22.1672 -0.2400 0.8432
-42.7802 20.1040 -0.2661 0.8277
-42.7592 18.2526 -0.2618 0.8303
-42.7189 14.7154 -0.2544 0.8347
-45.0350 13.7281 -0.2651 0.8283
-45.0151 11.9763 -0.2623 0.8300
-44.9813 10.2559 -0.2599 0.8315
-45.0048 8.5766 -0.2579 0.8326
45.7273 15.9570 -1.3637 0.8238
45.6755 17.8001 -1.3803 0.8219
44.1731 20.9750 -1.3769 0.8223
21.9467 14.5912 -0.7421 0.8999
16.2263 14.5262 -0.6132 0.9165
12.9008 12.4104 -0.5041 0.9309
14.0308 14.5012 -0.5682 0.9224
12.1268 14.4795 -0.5318 0.9272
11.2612 14.4696 -0.5163 0.9293
10.4436 14.4603 -0.5023 0.9311
9.6684 14.4515 -0.4896 0.9328
6.4229 10.3879 -0.3439 0.9523
8.2251 14.4351 -0.4678 0.9357
8.1140 15.5074 -0.4928 0.9324
8.0978 16.9275 -0.5284 0.9277
8.0791 18.5708 -0.5703 0.9222
8.0572 20.4996 -0.6202 0.9156
5.1903 18.9812 -0.5541 0.9243
3.7498 18.9648 -0.5443 0.9256
2.3521 18.9488 -0.5377 0.9264
1.6642 18.9410 -0.5354 0.9267
0.9813 18.9333 -0.5338 0.9269
-0.4563 22.8907 -0.6447 0.9125
-1.2778 22.8813 -0.6453 0.9124
-2.9956 18.1742 -0.5187 0.9289
-2.9645 14.6836 -0.4218 0.9418
-5.8263 14.6511 -0.4440 0.9389
-8.4092 14.6217 -0.4750 0.9347
-7.8297 12.5504 -0.4165 0.9425
-11.4467 14.5871 -0.5221 0.9285
-12.3084 14.5773 -0.5372 0.9265
-12.1926 12.5008 -0.4917 0.9325
-15.2404 14.5440 -0.5932 0.9192
-16.3634 14.5312 -0.6162 0.9162
-20.3513 14.4858 -0.7034 0.9049
-22.5354 14.8528 -0.7600 0.8976
-32.9394 20.0542 -1.0859 0.8570
-42.7391 16.4589 -1.2896 0.8325
-42.7192 14.7155 -1.2722 0.8346
-45.0353 13.7282 -1.3257 0.8283
-44.7272 10.1979 -1.2917 0.8323
-44.8835 8.5535 -1.2866 0.8329
42.0772 14.6832 -2.2601 0.8365
39.8495 15.5297 -2.1690 0.8426
37.7629 16.2990 -2.0859 0.8481
33.9529 17.6405 -1.9404 0.8579
21.4123 12.1189 -1.2478 0.9062
18.6401 12.3929 -1.1352 0.9143
15.9799 12.3626 -1.0246 0.9223
14.3013 12.8029 -0.9734 0.9260
13.3430 13.7903 -0.9731 0.9260
12.8379 14.2574 -0.9730 0.9260
12.1268 14.4795 -0.9578 0.9271
11.2612 14.4696 -0.9299 0.9292
10.4436 14.4603 -0.9046 0.9311
9.6684 14.4515 -0.8818 0.9327
8.2251 14.4351 -0.8426 0.9356
8.0977 16.9273 -0.9516 0.9276
8.0570 20.4993 -1.1170 0.9156
7.9533 22.5816 -1.2142 0.9086
5.3740 17.2031 -0.9140 0.9304
4.0438 17.1880 -0.8955 0.9317
3.4100 17.2461 -0.8916 0.9320
2.7889 17.3535 -0.8914 0.9320
2.1646 17.4384 -0.8912 0.9320
1.5377 17.5010 -0.8910 0.9321
-0.3499 17.5531 -0.8904 0.9321
-1.2778 22.8813 -1.1622 0.9123
-2.9309 22.8625 -1.1689 0.9118
-2.9645 14.6836 -0.7597 0.9418
-4.6455 14.6645 -0.7801 0.9402
-5.8263 14.6511 -0.7996 0.9388
-7.0742 14.6369 -0.8245 0.9370
-7.7294 14.6295 -0.8391 0.9359
-8.4092 14.6217 -0.8554 0.9347
-9.8576 14.6075 -0.8937 0.9319
-10.6312 14.5964 -0.9158 0.9302
-11.4467 14.5871 -0.9404 0.9284
-12.2767 14.5398 -0.9651 0.9266
-11.3558 12.5103 -0.8568 0.9346
-13.7602 13.1314 -0.9646 0.9266
-14.2200 12.6278 -0.9645 0.9267
-14.9979 12.3860 -0.9865 0.9251
-16.1267 12.3732 -1.0308 0.9218
-20.3513 14.4858 -1.2669 0.9048
-22.5354 14.8528 -1.3688 0.8975
-29.7851 18.1337 -1.7685 0.8697
-18.1150 10.1572 -1.0532 0.9202
-33.9586 17.4711 -1.9367 0.8582
-36.2936 17.0557 -2.0337 0.8516
-38.8041 16.5642 -2.1397 0.8445
-40.5310 15.6085 -2.2026 0.8403
-42.7196 14.7156 -2.2914 0.8345
-44.7885 11.9160 -2.3504 0.8306
29.7812 12.8539 -2.3783 0.8780
20.6034 11.6611 -1.7359 0.9094
19.2488 11.8250 -1.6564 0.9134
12.5682 12.9895 -1.3253 0.9301
12.5573 13.9457 -1.3760 0.9275
12.1268 14.4795 -1.3848 0.9270
11.2612 14.4697 -1.3444 0.9291
10.4436 14.4603 -1.3079 0.9310
9.6684 14.4515 -1.2749 0.9326
6.4160 10.3767 -0.8945 0.9522
8.0976 16.9270 -1.3758 0.9275
8.0788 18.5701 -1.4849 0.9220
8.0568 20.4989 -1.6149 0.9155
3.8338 16.2955 -1.2274 0.9351
3.2207 16.2886 -1.2174 0.9356
1.4294 16.2682 -1.1974 0.9366
0.8428 16.2615 -1.1939 0.9368
0.2589 16.2549 -1.1920 0.9369
-0.3239 16.2482 -1.1916 0.9369
-2.9309 22.8626 -1.6900 0.9117
-2.9645 14.6837 -1.0984 0.9417
-3.5152 14.6774 -1.1066 0.9413
-4.6455 14.6645 -1.1279 0.9402
-5.8263 14.6511 -1.1561 0.9387
-7.3736 13.9560 -1.1573 0.9387
-7.3604 12.7980 -1.0825 0.9425
-7.7784 12.4681 -1.0775 0.9428
-8.4091 12.4610 -1.1022 0.9415
-9.0704 12.4535 -1.1296 0.9401
-9.7662 12.4455 -1.1600 0.9385
-10.5014 12.4372 -1.1935 0.9368
-11.2305 12.3722 -1.2252 0.9352
-11.9071 12.2080 -1.2504 0.9339
-12.6866 12.1069 -1.2858 0.9321
-13.6214 12.0962 -1.3357 0.9295
-14.6330 12.0847 -1.3915 0.9267
-15.7343 12.0721 -1.4541 0.9235
-20.3513 14.4858 -1.8316 0.9047
-22.5354 14.8528 -1.9790 0.8974
-26.4672 16.1137 -2.2720 0.8831
-31.8063 13.5771 -2.5357 0.8705
-33.8130 10.3072 -2.5919 0.8678
-33.4882 7.6354 -2.5184 0.8713
24.3925 9.5059 -2.5133 0.9001
19.8831 11.2535 -2.1934 0.9123
18.2888 11.2353 -2.0607 0.9174
13.8782 11.5551 -1.7337 0.9300
12.5680 12.9894 -1.7352 0.9299
12.5571 13.9456 -1.8016 0.9274
10.4951 14.5316 -1.7209 0.9305
6.4126 10.3712 -1.1706 0.9522
8.0974 16.9267 -1.8014 0.9274
5.1175 14.5300 -1.4789 0.9400
3.9696 14.5170 -1.4449 0.9413
3.4149 14.5152 -1.4316 0.9418
2.3656 14.7191 -1.4312 0.9419
1.8362 14.7928 -1.4311 0.9419
0.7713 14.8828 -1.4307 0.9419
0.2373 14.8991 -1.4306 0.9419
-0.2969 14.8963 -1.4304 0.9419
-2.1020 22.8720 -2.2051 0.9118
-2.9960 18.1768 -1.7686 0.9286
-2.9645 14.6837 -1.4381 0.9416
-3.5152 14.6774 -1.4490 0.9412
-4.0750 14.6710 -1.4618 0.9406
-5.2002 14.5782 -1.4860 0.9397
-7.3605 12.7982 -1.4174 0.9424
-8.2046 12.1578 -1.4081 0.9428
-8.8497 12.1505 -1.4431 0.9414
-10.0585 11.9127 -1.4968 0.9393
-10.7650 11.8594 -1.5377 0.9377
-11.5583 11.8504 -1.5892 0.9356
-12.4077 11.8407 -1.6466 0.9334
-13.3219 11.8303 -1.7105 0.9309
-16.1462 11.4927 -1.9027 0.9234
-19.7630 13.0255 -2.2724 0.9093
-21.4372 10.0741 -2.2740 0.9092
-23.6578 10.0988 -2.4695 0.9018
-25.2466 9.7225 -2.5973 0.8970
-25.1260 7.6592 -2.5218 0.8998
-25.3405 6.7418 -2.5174 0.9000
-25.5215 5.8190 -2.5131 0.9002
-25.6689 4.8917 -2.5087 0.9003
19.9344 6.9562 -2.5080 0.9185
19.6716 7.6662 -2.5079 0.9185
19.3834 8.3661 -2.5078 0.9185
18.1078 9.4080 -2.4239 0.9211
16.4074 10.9084 -2.3404 0.9237
14.4666 11.1918 -2.1726 0.9290
12.5679 12.9892 -2.1470 0.9298
12.3885 13.7583 -2.1992 0.9281
11.8864 14.1925 -2.1990 0.9281
11.2612 14.4697 -2.1780 0.9288
10.4436 14.4604 -2.1188 0.9307
9.6145 14.3709 -2.0539 0.9327
8.2251 14.4351 -1.9735 0.9353
8.1135 15.5065 -2.0789 0.9319
5.3621 13.6428 -1.7412 0.9427
4.2578 13.6302 -1.6962 0.9441
3.2039 13.6182 -1.6618 0.9452
2.6915 13.6124 -1.6483 0.9456
2.1868 13.6066 -1.6370 0.9460
1.6882 13.6010 -1.6280 0.9463
1.1945 13.5954 -1.6212 0.9465
-1.0694 19.1495 -2.2782 0.9257
-1.7551 19.0970 -2.2780 0.9257
-2.9645 14.6837 -1.7794 0.9414
-4.0750 14.6710 -1.8087 0.9405
-4.6678 14.7350 -1.8360 0.9396
-5.2537 14.7283 -1.8575 0.9390
-5.8263 14.6511 -1.8729 0.9385
-7.0742 14.6369 -1.9311 0.9366
-7.3606 12.7984 -1.7538 0.9423
-9.0815 11.5731 -1.7474 0.9425
-10.4905 11.5571 -1.8540 0.9391
-11.2636 11.5482 -1.9162 0.9371
-13.6200 11.2481 -2.0983 0.9313
-14.6451 11.2365 -2.1927 0.9283
-15.3459 10.9230 -2.2375 0.9269
-15.9812 10.5330 -2.2736 0.9258
-17.2108 9.6502 -2.3438 0.9236
-17.5449 9.0266 -2.3437 0.9236
-19.6049 7.5499 -2.4955 0.9189
-19.8624 6.8420 -2.4954 0.9189
-20.7255 3.9497 -2.5062 0.9185
16.7054 5.8295 -2.5070 0.9310
16.2438 7.0110 -2.5068 0.9310
15.3955 8.7135 -2.5065 0.9310
15.0726 9.2594 -2.5064 0.9310
13.9359 9.2652 -2.3711 0.9346
13.4938 9.6863 -2.3535 0.9351
13.1372 10.1633 -2.3534 0.9351
12.7638 10.6272 -2.3533 0.9351
11.6912 11.2468 -2.2986 0.9366
10.8729 11.2374 -2.2155 0.9388
9.9624 11.8952 -2.1984 0.9392
9.5289 12.2439 -2.1983 0.9392
6.6926 13.9901 -2.1974 0.9393
6.1863 14.2200 -2.1972 0.9393
3.9788 12.7370 -1.8907 0.9475
2.0435 12.7150 -1.8247 0.9493
1.5776 12.7097 -1.8146 0.9496
0.6582 12.6992 -1.8018 0.9499
-0.8966 16.0546 -2.2783 0.9371
-2.6144 15.8617 -2.2778 0.9371
-2.9645 14.6837 -2.1225 0.9413
-4.6455 14.6645 -2.1796 0.9397
-5.2286 14.6579 -2.2050 0.9391
-6.4407 14.6441 -2.2667 0.9374
-6.9912 14.4652 -2.2764 0.9372
-7.3739 13.9566 -2.2365 0.9382
-7.3607 12.7986 -2.0919 0.9421
-7.3491 11.7800 -1.9673 0.9455
-8.2371 11.3094 -1.9824 0.9450
-13.1314 10.0751 -2.3451 0.9353
-13.4836 9.5974 -2.3450 0.9353
-13.8183 9.1075 -2.3449 0.9353
-14.6560 8.2176 -2.3808 0.9344
-15.6690 8.0614 -2.4967 0.9313
-16.8531 5.1373 -2.4964 0.9313
-17.3063 3.2981 -2.4963 0.9313
14.3639 5.0123 -2.5062 0.9402
14.1746 5.5239 -2.5062 0.9402
13.9671 6.0284 -2.5061 0.9402
13.7416 6.5250 -2.5060 0.9402
13.4984 7.0132 -2.5059 0.9402
13.2379 7.4923 -2.5059 0.9402
12.9603 7.9618 -2.5058 0.9402
12.3555 8.8693 -2.5056 0.9402
11.8544 9.1710 -2.4691 0.9410
10.6402 9.5253 -2.3526 0.9438
10.2913 9.9001 -2.3525 0.9438
9.9293 10.2622 -2.3524 0.9438
9.5546 10.6110 -2.3523 0.9438
9.1676 10.9462 -2.3522 0.9438
6.7637 10.1099 -2.0039 0.9519
6.1835 11.8178 -2.1972 0.9474
5.1598 11.8604 -2.1308 0.9489
4.6593 11.8546 -2.0984 0.9497
3.6998 11.8437 -2.0441 0.9509
1.9002 11.8233 -1.9727 0.9526
1.4738 11.8731 -1.9710 0.9527
1.0471 11.9175 -1.9708 0.9527
0.1905 11.9603 -1.9706 0.9527
-0.2384 11.9586 -1.9704 0.9527
-1.2656 13.7711 -2.2782 0.9455
-1.7583 13.7159 -2.2780 0.9455
-2.2488 13.6432 -2.2779 0.9455
-2.7362 13.5529 -2.2777 0.9455
-4.1746 13.1782 -2.2773 0.9455
-4.6441 13.0192 -2.2771 0.9455
-6.8892 11.9787 -2.2764 0.9455
-8.0164 11.0064 -2.2431 0.9463
-9.5437 10.5139 -2.3392 0.9441
-10.3025 9.8316 -2.3460 0.9439
-10.6478 9.4555 -2.3459 0.9439
-11.2970 8.6675 -2.3457 0.9439
-12.5575 8.2765 -2.4776 0.9409
-12.9497 7.8840 -2.4976 0.9404
-13.2236 7.4145 -2.4975 0.9404
-13.4805 6.9355 -2.4974 0.9404
-14.1460 5.4476 -2.4972 0.9404
-14.3319 4.9369 -2.4972 0.9404
-14.4994 4.4199 -2.4971 0.9404
-14.6483 3.8971 -2.4971 0.9404
-14.8894 2.8375 -2.4970 0.9404
12.5865 4.3921 -2.5057 0.9472
12.4207 4.8404 -2.5056 0.9472
3.9869 3.3196 -0.9751 0.9791
3.8520 3.4484 -0.9718 0.9792
8.7818 9.0762 -2.3738 0.9499
8.0338 9.5924 -2.3518 0.9503
6.7077 10.0261 -2.2674 0.9521
6.2802 10.1571 -2.2446 0.9526
5.7990 11.0829 -2.3511 0.9504
5.2485 10.9713 -2.2860 0.9517
4.7706 10.9659 -2.2478 0.9525
3.4208 10.9505 -2.1564 0.9544
3.0191 11.0410 -2.1515 0.9545
2.6212 11.1415 -2.1513 0.9545
2.2200 11.2276 -2.1512 0.9545
1.4096 11.3565 -2.1510 0.9545
1.0016 11.3991 -2.1508 0.9545
0.5922 11.4270 -2.1507 0.9545
0.1822 11.4402 -2.1506 0.9545
-0.6759 12.1028 -2.2784 0.9519
-1.5412 12.0218 -2.2781 0.9519
-1.9710 11.9581 -2.2780 0.9519
-2.3983 11.8791 -2.2779 0.9519
-2.8224 11.7848 -2.2777 0.9519
-4.0707 11.4117 -2.2773 0.9519
-4.8773 11.0895 -2.2771 0.9519
-5.2715 10.9069 -2.2770 0.9519
-5.6588 10.7104 -2.2768 0.9519
-6.1196 10.6405 -2.3072 0.9513
-7.7079 9.8226 -2.3468 0.9505
-9.4677 8.4076 -2.3799 0.9498
-10.1310 8.3667 -2.4697 0.9479
-10.5456 8.0910 -2.4984 0.9473
-10.8285 7.7076 -2.4983 0.9473
-11.0974 7.3142 -2.4982 0.9473
-11.5923 6.4998 -2.4980 0.9473
-12.8415 3.4165 -2.4977 0.9474
-12.9555 2.9539 -2.4976 0.9474
10.8810 4.6964 -2.5051 0.9527
10.3132 5.8371 -2.5049 0.9527
3.6870 2.8524 -0.9854 0.9811
3.5654 2.9686 -0.9807 0.9812
3.4686 3.1051 -0.9841 0.9811
3.2860 3.3962 -0.9989 0.9809
3.2832 3.6463 -1.0372 0.9801
6.5128 9.0177 -2.3513 0.9555
5.8495 9.4603 -2.3511 0.9555
5.5063 9.6635 -2.3510 0.9555
4.7993 10.0323 -2.3508 0.9556
4.4363 10.1973 -2.3507 0.9556
4.0677 10.3493 -2.3505 0.9556
3.6939 10.4879 -2.3504 0.9556
3.3154 10.6131 -2.3503 0.9556
2.5461 10.8222 -2.3501 0.9556
2.1564 10.9060 -2.3499 0.9556
1.7640 10.9757 -2.3498 0.9556
1.3563 10.9270 -2.3275 0.9560
0.5659 10.9180 -2.3109 0.9563
0.1738 10.9136 -2.3072 0.9564
-0.2175 10.9091 -2.3064 0.9564
-0.9953 10.8300 -2.2989 0.9565
-2.5797 10.7714 -2.3413 0.9557
-3.3548 10.5902 -2.3482 0.9556
-3.7322 10.4626 -2.3481 0.9556
-4.1046 10.3216 -2.3480 0.9556
-4.4718 10.1673 -2.3479 0.9556
-5.5367 9.6271 -2.3475 0.9556
-5.8780 9.4220 -2.3474 0.9556
-6.2117 9.2048 -2.3473 0.9556
-7.1810 8.5041 -2.3527 0.9555
-8.2248 8.4326 -2.4900 0.9530
-9.1149 7.5276 -2.4988 0.9528
-10.5100 5.4072 -2.4984 0.9528
-11.1741 3.8491 -2.4982 0.9528
-11.5223 2.6271 -2.4981 0.9528
10.0629 3.5115 -2.5049 0.9572
9.7561 4.2109 -2.4974 0.9573
9.6272 4.5713 -2.5047 0.9572
4.7213 2.6722 -1.2750 0.9780
4.3640 2.6809 -1.2037 0.9792
4.0007 2.6598 -1.1291 0.9805
3.4744 2.6879 -1.0324 0.9821
3.2253 2.8874 -1.0174 0.9824
6.5429 8.4071 -2.5037 0.9572
6.2371 8.6359 -2.5036 0.9572
5.9233 8.8536 -2.5035 0.9572
4.6709 8.9270 -2.3679 0.9594
4.3162 9.0224 -2.3506 0.9597
3.3221 9.4324 -2.3503 0.9597
2.6375 9.6453 -2.3501 0.9597
2.2899 9.7332 -2.3500 0.9597
1.9394 9.8086 -2.3499 0.9597
1.5865 9.8713 -2.3498 0.9598
1.2315 9.9214 -2.3497 0.9598
0.8750 9.9587 -2.3495 0.9598
0.1592 9.9948 -2.3493 0.9598
-0.1992 9.9936 -2.3492 0.9598
-0.5573 9.9796 -2.3491 0.9598
-1.2708 9.9131 -2.3489 0.9598
-1.6253 9.8606 -2.3488 0.9598
-2.6742 9.6278 -2.3484 0.9598
-3.3569 9.4106 -2.3482 0.9598
-4.0222 9.1451 -2.3480 0.9598
-4.3472 8.9946 -2.3479 0.9598
-4.6667 8.8326 -2.3478 0.9598
-4.9801 8.6593 -2.3477 0.9598
-5.3404 8.5601 -2.3712 0.9594
-5.7602 8.5357 -2.4202 0.9586
-6.1979 8.5097 -2.4742 0.9577
-6.5656 8.3670 -2.4996 0.9572
-7.6932 7.3416 -2.4993 0.9572
-8.1989 6.7711 -2.4991 0.9572
-9.0816 5.5290 -2.4988 0.9573
-9.6221 4.5217 -2.4987 0.9573
-9.7778 4.1738 -2.4986 0.9573
-10.0514 3.4624 -2.4985 0.9573
9.1332 3.1871 -2.5046 0.9608
9.0129 3.5124 -2.5045 0.9608
8.8810 3.8332 -2.5045 0.9608
8.7119 4.1367 -2.4970 0.9609
4.2763 2.6270 -1.2994 0.9795
3.6520 2.6216 -1.1640 0.9816
3.3749 2.6110 -1.1048 0.9825
3.1830 2.6503 -1.0724 0.9830
3.0617 2.7410 -1.0640 0.9832
2.9078 3.0053 -1.0827 0.9829
2.6829 3.4473 -1.1310 0.9821
5.6611 7.8384 -2.5035 0.9608
5.0845 8.2232 -2.5033 0.9608
4.4819 8.5658 -2.5031 0.9608
4.1718 8.7206 -2.5030 0.9608
3.4844 8.8653 -2.4663 0.9614
3.1199 8.8584 -2.4317 0.9619
2.7650 8.8511 -2.4009 0.9624
2.4182 8.8434 -2.3738 0.9628
2.0807 8.8452 -2.3527 0.9632
1.7604 8.9032 -2.3498 0.9632
1.4400 8.9602 -2.3497 0.9632
0.7943 9.0395 -2.3495 0.9632
0.4696 9.0618 -2.3494 0.9632
-0.5059 9.0587 -2.3491 0.9632
-0.8303 9.0344 -2.3490 0.9632
-1.1536 8.9984 -2.3489 0.9632
-1.4754 8.9508 -2.3488 0.9632
-1.7952 8.8918 -2.3487 0.9632
-2.4275 8.7396 -2.3485 0.9632
-2.7458 8.6663 -2.3538 0.9631
-3.4296 8.6241 -2.4030 0.9624
-4.5111 8.5381 -2.5003 0.9609
-5.1109 8.1923 -2.5001 0.9609
-5.4011 8.0035 -2.5000 0.9609
-5.9602 7.5954 -2.4998 0.9609
-6.4887 7.1484 -2.4996 0.9609
-7.4430 6.1468 -2.4993 0.9609
-7.6583 5.8758 -2.4993 0.9609
-7.8639 5.5974 -2.4992 0.9609
-8.4188 4.7204 -2.4990 0.9609
-8.5824 4.4155 -2.4990 0.9609
-8.8764 3.7891 -2.4989 0.9609
-9.1249 3.1432 -2.4988 0.9609
-9.2315 2.8140 -2.4988 0.9609
-9.3264 2.4813 -2.4988 0.9609
-9.4800 1.8066 -2.4987 0.9609
8.1219 3.5055 -2.5043 0.9639
5.6579 2.6866 -1.7731 0.9743
5.0472 2.6223 -1.6102 0.9766
2.9486 2.6397 -1.1204 0.9837
2.5627 3.2929 -1.1812 0.9828
2.5011 3.4630 -1.2093 0.9824
4.6501 7.5206 -2.5031 0.9639
4.3773 7.6822 -2.5031 0.9639
3.8154 7.9755 -2.5029 0.9639
3.2339 8.2278 -2.5027 0.9639
2.9367 8.3382 -2.5026 0.9639
2.6358 8.4378 -2.5025 0.9639
2.3315 8.5265 -2.5024 0.9639
1.7145 8.6710 -2.5022 0.9639
1.0888 8.7708 -2.5020 0.9639
0.1392 8.7414 -2.4749 0.9643
-0.4869 8.7190 -2.4721 0.9643
-0.8002 8.7070 -2.4753 0.9643
-1.1146 8.6943 -2.4814 0.9642
-1.4308 8.6810 -2.4907 0.9641
-1.7484 8.6602 -2.5011 0.9639
-2.0577 8.5916 -2.5010 0.9639
-2.6677 8.4215 -2.5008 0.9639
-3.2641 8.2081 -2.5007 0.9639
-4.4032 7.6562 -2.5003 0.9639
-4.6747 7.4931 -2.5002 0.9640
-4.9401 7.3205 -2.5001 0.9640
-5.4516 6.9472 -2.5000 0.9640
-5.6970 6.7471 -2.4999 0.9640
-5.9350 6.5384 -2.4998 0.9640
-7.1930 5.1198 -2.4994 0.9640
-7.3717 4.8586 -2.4994 0.9640
-7.5410 4.5911 -2.4993 0.9640
-7.8503 4.0388 -2.4992 0.9640
-8.3464 2.8751 -2.4991 0.9640
-8.6066 1.9623 -2.4990 0.9640
-8.6714 1.6525 -2.4990 0.9640
7.5857 2.9562 -2.5041 0.9665
7.4747 3.2262 -2.5041 0.9665
5.0257 2.6112 -1.7420 0.9766
4.0926 2.5142 -1.4774 0.9801
3.5252 2.5305 -1.3347 0.9820
2.4771 3.1829 -1.2405 0.9833
2.4444 3.3846 -1.2841 0.9827
2.4157 3.6108 -1.3362 0.9820
3.7725 7.2100 -2.5029 0.9665
3.2460 7.4613 -2.5027 0.9665
2.9763 7.5726 -2.5026 0.9665
2.7029 7.6742 -2.5025 0.9665
2.4259 7.7658 -2.5024 0.9665
2.1459 7.8475 -2.5024 0.9665
1.8631 7.9192 -2.5023 0.9665
1.2908 8.0317 -2.5021 0.9665
0.7120 8.1030 -2.5019 0.9665
-0.1621 8.1317 -2.5016 0.9665
-1.3225 8.0238 -2.5013 0.9665
-1.6093 7.9709 -2.5012 0.9665
-2.1761 7.8346 -2.5010 0.9665
-2.4555 7.7513 -2.5009 0.9665
-2.7317 7.6580 -2.5008 0.9665
-3.0044 7.5549 -2.5007 0.9665
-3.5377 7.3197 -2.5006 0.9665
-4.0529 7.0470 -2.5004 0.9666
-4.3028 6.8970 -2.5003 0.9666
-4.5471 6.7380 -2.5003 0.9666
-4.7856 6.5705 -2.5002 0.9666
-5.0179 6.3946 -2.5001 0.9666
-5.2438 6.2104 -2.5000 0.9666
-5.6750 5.8184 -2.4999 0.9666
-5.8798 5.6111 -2.4998 0.9666
-6.0770 5.3965 -2.4998 0.9666
-6.4477 4.9470 -2.4997 0.9666
-7.0881 3.9743 -2.4995 0.9666
-7.3544 3.4561 -2.4994 0.9666
-7.4735 3.1902 -2.4994 0.9666
-7.5829 2.9202 -2.4993 0.9666
-7.7725 2.3693 -2.4993 0.9666
-7.8524 2.0891 -2.4992 0.9666
-7.9222 1.8062 -2.4992 0.9666
7.0186 2.7352 -2.5039 0.9687
6.9159 2.9850 -2.5039 0.9687
5.4343 2.5804 -1.9997 0.9750
5.0042 2.6000 -1.8745 0.9765
4.0732 2.5022 -1.5890 0.9801
2.6441 2.5436 -1.2196 0.9847
2.5624 2.6483 -1.2249 0.9846
2.5216 2.8004 -1.2526 0.9842
2.4853 2.9675 -1.2867 0.9838
2.3759 3.5513 -1.4203 0.9822
3.2491 6.7919 -2.5027 0.9688
3.0035 6.9038 -2.5026 0.9688
2.7540 7.0068 -2.5026 0.9688
2.2447 7.1857 -2.5024 0.9688
1.9856 7.2613 -2.5023 0.9688
1.7239 7.3276 -2.5022 0.9688
1.4601 7.3844 -2.5021 0.9688
1.1944 7.4317 -2.5021 0.9688
0.9272 7.4695 -2.5020 0.9688
0.6588 7.4977 -2.5019 0.9688
0.3896 7.5162 -2.5018 0.9688
0.1198 7.5252 -2.5017 0.9688
-0.1500 7.5243 -2.5016 0.9688
-0.6887 7.4937 -2.5015 0.9688
-0.9568 7.4640 -2.5014 0.9688
-1.2238 7.4246 -2.5013 0.9688
-2.0136 7.2496 -2.5010 0.9688
-2.2722 7.1726 -2.5010 0.9688
-3.0288 6.8865 -2.5007 0.9688
-3.2736 6.7733 -2.5007 0.9688
-3.7503 6.5209 -2.5005 0.9688
-4.4284 6.0800 -2.5003 0.9688
-4.6433 5.9172 -2.5002 0.9688
-4.8524 5.7469 -2.5002 0.9688
-5.2514 5.3841 -2.5000 0.9688
-5.4409 5.1923 -2.5000 0.9688
-5.7987 4.7889 -2.4999 0.9688
-6.4232 3.9105 -2.4997 0.9688
-6.8056 3.1982 -2.4996 0.9688
-7.1094 2.4489 -2.4995 0.9688
-7.2664 1.9332 -2.4994 0.9688
-7.3310 1.6715 -2.4994 0.9688
-7.3862 1.4076 -2.4994 0.9688
6.5236 2.5423 -2.5038 0.9707
6.4282 2.7745 -2.5037 0.9707
3.6961 2.4574 -1.5872 0.9813
3.3809 2.4270 -1.4883 0.9825
2.7514 2.4631 -1.3206 0.9844
2.5890 2.4905 -1.2847 0.9849
2.4618 2.9394 -1.3711 0.9838
2.4272 3.1188 -1.4133 0.9834
2.3908 3.3103 -1.4602 0.9828
2.3535 3.5178 -1.5135 0.9822
3.4649 6.0808 -2.5028 0.9707
3.0201 6.3131 -2.5026 0.9707
2.5598 6.5129 -2.5025 0.9707
2.3246 6.6003 -2.5024 0.9707
2.0865 6.6791 -2.5023 0.9707
1.8456 6.7495 -2.5023 0.9707
1.6024 6.8110 -2.5022 0.9707
0.8618 6.9431 -2.5020 0.9707
0.3621 6.9865 -2.5018 0.9707
0.1114 6.9948 -2.5017 0.9707
-0.1394 6.9941 -2.5016 0.9707
-0.3900 6.9844 -2.5016 0.9707
-0.6402 6.9657 -2.5015 0.9707
-1.1375 6.9015 -2.5013 0.9707
-1.3842 6.8561 -2.5013 0.9707
-1.8718 6.7388 -2.5011 0.9707
-2.1121 6.6672 -2.5010 0.9707
-2.5842 6.4984 -2.5009 0.9707
-3.0430 6.2961 -2.5007 0.9707
-3.2667 6.1828 -2.5007 0.9707
-3.4861 6.0615 -2.5006 0.9707
-3.9113 5.7959 -2.5005 0.9707
-4.3163 5.5004 -2.5003 0.9707
-4.5106 5.3421 -2.5003 0.9707
-4.6991 5.1768 -2.5002 0.9707
-5.2274 4.6421 -2.5001 0.9707
-5.3903 4.4516 -2.5000 0.9707
-5.6953 4.0538 -2.4999 0.9707
-5.8368 3.8470 -2.4999 0.9707
-5.9709 3.6351 -2.4998 0.9707
-6.2158 3.1979 -2.4997 0.9707
-6.3264 2.9729 -2.4997 0.9707
-6.5230 2.5120 -2.4997 0.9707
-6.6088 2.2765 -2.4996 0.9707
5.9982 2.5889 -2.5036 0.9724
5.4380 2.5821 -2.3069 0.9745
5.0109 2.6035 -2.1640 0.9761
4.0392 2.4814 -1.8166 0.9799
3.6800 2.4467 -1.6935 0.9812
2.7056 2.4221 -1.3916 0.9846
2.5682 2.4706 -1.3657 0.9849
2.5023 2.5862 -1.3791 0.9847
2.4371 2.9100 -1.4546 0.9839
2.4007 3.0847 -1.4979 0.9834
2.3312 3.4846 -1.6066 0.9822
3.4346 5.5548 -2.5028 0.9724
3.0276 5.7863 -2.5026 0.9724
2.8184 5.8911 -2.5026 0.9724
2.6051 5.9881 -2.5025 0.9724
2.3887 6.0775 -2.5024 0.9724
2.1692 6.1590 -2.5024 0.9724
1.7223 6.2983 -2.5022 0.9724
1.2665 6.4051 -2.5021 0.9724
1.0360 6.4462 -2.5020 0.9724
0.5714 6.5035 -2.5019 0.9724
0.3379 6.5196 -2.5018 0.9724
-0.1301 6.5267 -2.5016 0.9724
-1.2917 6.3979 -2.5013 0.9724
-1.7467 6.2886 -2.5011 0.9724
-1.9709 6.2217 -2.5011 0.9724
-2.6273 5.9737 -2.5009 0.9724
-2.8397 5.8755 -2.5008 0.9724
-3.0485 5.7697 -2.5007 0.9724
-3.4539 5.5362 -2.5006 0.9724
-4.2093 4.9853 -2.5004 0.9724
-4.7199 4.5042 -2.5002 0.9724
-4.8783 4.3321 -2.5002 0.9724
-5.4470 3.5900 -2.5000 0.9724
-5.5721 3.3924 -2.4999 0.9724
-5.6901 3.1904 -2.4999 0.9724
-5.9039 2.7744 -2.4998 0.9724
-6.0874 2.3443 -2.4998 0.9724
-6.3037 1.6771 -2.4997 0.9724
-6.4076 1.2211 -2.4997 0.9724
5.6994 2.2211 -2.5035 0.9739
4.0425 2.4835 -1.9418 0.9797
3.3456 2.4016 -1.6856 0.9824
3.0690 2.3743 -1.5881 0.9834
2.6624 2.3834 -1.4625 0.9847
2.4798 2.5630 -1.4596 0.9847
2.4495 2.7204 -1.4982 0.9843
2.4137 2.8820 -1.5385 0.9839
2.3742 3.0507 -1.5821 0.9834
2.3431 3.2443 -1.6379 0.9829
2.3086 3.4507 -1.6992 0.9822
3.0273 5.3129 -2.5026 0.9739
2.8348 5.4179 -2.5026 0.9739
2.4392 5.6068 -2.5025 0.9739
1.8230 5.8358 -2.5023 0.9739
1.6126 5.8972 -2.5022 0.9739
1.1858 5.9973 -2.5021 0.9739
0.7530 6.0665 -2.5019 0.9739
0.5350 6.0894 -2.5019 0.9739
0.3164 6.1045 -2.5018 0.9739
0.0973 6.1118 -2.5017 0.9739
-0.7772 6.0622 -2.5014 0.9739
-1.2095 5.9907 -2.5013 0.9739
-1.6355 5.8883 -2.5012 0.9739
-2.2581 5.6782 -2.5010 0.9739
-2.6590 5.5015 -2.5009 0.9739
-2.8544 5.4026 -2.5008 0.9739
-3.5970 4.9386 -2.5006 0.9739
-4.4196 4.2176 -2.5003 0.9739
-4.5679 4.0564 -2.5003 0.9739
-4.7103 3.8900 -2.5002 0.9739
-4.8466 3.7185 -2.5002 0.9739
-5.3280 2.9874 -2.5000 0.9739
-5.4316 2.7945 -2.5000 0.9739
-5.6178 2.3980 -2.4999 0.9739
-5.7001 2.1951 -2.4999 0.9739
-5.7751 1.9893 -2.4999 0.9739
-5.8426 1.7810 -2.4999 0.9739
5.4235 1.8925 -2.5034 0.9752
5.3521 2.0857 -2.5034 0.9752
5.2738 2.2762 -2.5034 0.9752
5.0971 2.6482 -2.5033 0.9752
4.4637 2.5263 -2.2353 0.9779
4.0439 2.4843 -2.0684 0.9795
3.6705 2.4404 -1.9210 0.9810
3.3335 2.3929 -1.7884 0.9823
2.8093 2.3391 -1.5932 0.9842
2.6342 2.3582 -1.5408 0.9847
2.4602 2.5427 -1.5420 0.9847
2.3538 3.0244 -1.6702 0.9834
2.2859 3.4168 -1.7916 0.9822
2.2698 3.6710 -1.8810 0.9813
2.6621 5.0878 -2.5025 0.9753
2.1003 5.3438 -2.5024 0.9753
1.9074 5.4155 -2.5023 0.9753
1.5144 5.5380 -2.5022 0.9753
1.3148 5.5886 -2.5021 0.9753
1.1136 5.6320 -2.5020 0.9753
0.9110 5.6681 -2.5020 0.9753
0.5025 5.7185 -2.5019 0.9753
0.0914 5.7396 -2.5017 0.9753
-0.5253 5.7158 -2.5015 0.9753
-0.7298 5.6931 -2.5015 0.9753
-0.9334 5.6631 -2.5014 0.9753
-1.1358 5.6259 -2.5013 0.9753
-1.3367 5.5814 -2.5013 0.9753
-1.5359 5.5298 -2.5012 0.9753
-1.7331 5.4710 -2.5011 0.9753
-2.3103 5.2529 -2.5010 0.9753
-3.3781 4.6380 -2.5006 0.9753
-3.7015 4.3839 -2.5005 0.9753
-3.8563 4.2483 -2.5005 0.9753
-4.0060 4.1072 -2.5004 0.9753
-4.1506 3.9609 -2.5004 0.9753
-4.2898 3.8095 -2.5004 0.9753
-4.4236 3.6532 -2.5003 0.9753
-4.5516 3.4922 -2.5003 0.9753
-4.7900 3.1570 -2.5002 0.9753
-5.0037 2.8056 -2.5001 0.9753
-5.1011 2.6244 -2.5001 0.9753
-5.1918 2.4398 -2.5001 0.9753
-5.3532 2.0615 -2.5000 0.9753
-5.4236 1.8682 -2.5000 0.9753
-5.4870 1.6726 -2.5000 0.9753
-5.5927 1.2751 -2.5000 0.9753
5.1061 1.7818 -2.5033 0.9764
5.0389 1.9637 -2.5033 0.9764
4.9653 2.1430 -2.5033 0.9764
4.0348 2.4787 -2.1919 0.9793
3.3348 2.3939 -1.9002 0.9821
2.7965 2.3284 -1.6844 0.9841
2.4405 2.5223 -1.6246 0.9846
2.4076 2.6739 -1.6655 0.9843
2.3721 2.8323 -1.7101 0.9838
2.2632 3.3829 -1.8840 0.9822
2.2711 3.6730 -1.9989 0.9811
2.6766 4.6973 -2.5025 0.9765
2.3330 4.8768 -2.5024 0.9765
2.1566 4.9572 -2.5024 0.9765
1.7958 5.0988 -2.5023 0.9765
1.4258 5.2141 -2.5021 0.9765
1.0485 5.3026 -2.5020 0.9765
0.8577 5.3367 -2.5020 0.9765
0.6658 5.3638 -2.5019 0.9765
-0.1077 5.4034 -2.5017 0.9765
-0.4946 5.3816 -2.5015 0.9765
-0.6872 5.3602 -2.5015 0.9765
-1.0694 5.2969 -2.5014 0.9765
-1.2586 5.2551 -2.5013 0.9765
-1.4461 5.2064 -2.5012 0.9765
-1.6318 5.1511 -2.5012 0.9765
-1.8154 5.0892 -2.5011 0.9765
-2.1753 4.9458 -2.5010 0.9765
-2.3511 4.8646 -2.5010 0.9765
-2.5239 4.7771 -2.5009 0.9765
-2.6935 4.6834 -2.5008 0.9765
-2.8596 4.5837 -2.5008 0.9765
-3.0221 4.4782 -2.5007 0.9765
-3.3350 4.2500 -2.5007 0.9765
-3.6308 4.0000 -2.5006 0.9765
-4.0391 3.5868 -2.5004 0.9765
-4.2856 3.2881 -2.5004 0.9765
-4.4007 3.1323 -2.5003 0.9765
-4.5100 2.9725 -2.5003 0.9765
-4.6136 2.8089 -2.5003 0.9765
-4.9676 2.1205 -2.5001 0.9765
-5.0404 1.9410 -2.5001 0.9765
-5.1067 1.7591 -2.5001 0.9765
-5.2195 1.3886 -2.5001 0.9765
-5.2659 1.2006 -2.5001 0.9765
-5.3055 1.0111 -2.5000 0.9765
3.6652 2.4368 -2.1589 0.9806
3.3282 2.3891 -2.0096 0.9819
2.7820 2.3163 -1.7757 0.9840
2.6010 2.3285 -1.7124 0.9846
2.5000 2.4050 -1.7016 0.9847
2.3872 2.6511 -1.7500 0.9842
2.3515 2.8077 -1.7965 0.9838
2.3130 2.9721 -1.8473 0.9834
2.2764 3.1519 -1.9072 0.9828
2.2747 3.6789 -2.1217 0.9809
2.5257 4.4326 -2.5025 0.9775
2.3651 4.5202 -2.5024 0.9775
2.0351 4.6778 -2.5023 0.9775
1.6946 4.8114 -2.5022 0.9775
0.9894 5.0038 -2.5020 0.9775
0.8093 5.0360 -2.5020 0.9775
0.6283 5.0616 -2.5019 0.9775
0.4464 5.0807 -2.5018 0.9775
-0.2843 5.0919 -2.5016 0.9775
-0.6484 5.0582 -2.5015 0.9775
-0.8294 5.0316 -2.5014 0.9775
-1.1877 4.9590 -2.5013 0.9775
-1.8841 4.7379 -2.5011 0.9775
-2.0527 4.6672 -2.5011 0.9775
-2.2187 4.5906 -2.5010 0.9775
-2.3818 4.5080 -2.5009 0.9775
-2.6986 4.3256 -2.5009 0.9775
-3.1472 4.0106 -2.5007 0.9775
-3.4264 3.7747 -2.5006 0.9775
-3.5594 3.6493 -2.5006 0.9775
-4.2561 2.8051 -2.5004 0.9775
-4.4460 2.4929 -2.5003 0.9775
-4.6131 2.1679 -2.5003 0.9775
-4.6878 2.0011 -2.5002 0.9775
-4.7565 1.8317 -2.5002 0.9775
-4.8191 1.6600 -2.5002 0.9775
-4.9256 1.3104 -2.5002 0.9775
-4.9694 1.1330 -2.5002 0.9775
4.5557 1.5897 -2.5032 0.9785
4.2815 2.2245 -2.5031 0.9785
3.2371 2.3237 -2.0672 0.9822
2.7702 2.3065 -1.8700 0.9839
2.5927 2.3211 -1.8053 0.9844
2.4125 2.4934 -1.7999 0.9845
2.3027 2.9588 -1.9450 0.9832
2.2931 3.1751 -2.0319 0.9825
2.2916 3.4252 -2.1379 0.9816
2.5369 4.1029 -2.5025 0.9785
2.3881 4.1911 -2.5025 0.9785
2.0816 4.3512 -2.5024 0.9785
1.9242 4.4230 -2.5023 0.9785
1.7644 4.4890 -2.5023 0.9785
1.6023 4.5493 -2.5022 0.9785
1.2722 4.6522 -2.5021 0.9785
0.5941 4.7859 -2.5019 0.9785
-1.1230 4.6890 -2.5013 0.9785
-1.6198 4.5410 -2.5012 0.9785
-1.7815 4.4799 -2.5011 0.9785
-1.9410 4.4131 -2.5011 0.9785
-2.0979 4.3406 -2.5010 0.9785
-2.4034 4.1790 -2.5009 0.9785
-2.8380 3.8966 -2.5008 0.9785
-2.9758 3.7923 -2.5008 0.9785
-3.1098 3.6831 -2.5007 0.9785
-3.3656 3.4506 -2.5006 0.9785
-3.6041 3.2006 -2.5006 0.9785
-3.7165 3.0693 -2.5005 0.9785
-3.8241 2.9340 -2.5005 0.9785
-3.9267 2.7950 -2.5005 0.9785
-4.1168 2.5064 -2.5004 0.9785
-4.2040 2.3572 -2.5004 0.9785
-4.2858 2.2049 -2.5004 0.9785
-4.3620 2.0498 -2.5003 0.9785
-4.4327 1.8921 -2.5003 0.9785
-4.4976 1.7320 -2.5003 0.9785
-4.5568 1.5696 -2.5003 0.9785
-4.6575 1.2391 -2.5003 0.9785
-4.6989 1.0713 -2.5002 0.9785
4.3150 1.5057 -2.5031 0.9794
4.2582 1.6594 -2.5031 0.9794
4.1959 1.8110 -2.5030 0.9794
4.0553 2.1069 -2.5030 0.9794
3.9771 2.2509 -2.5030 0.9794
3.8055 2.5301 -2.5029 0.9794
2.9686 2.2966 -2.0557 0.9830
2.5843 2.3136 -1.8998 0.9843
2.4777 2.3835 -1.8830 0.9844
2.3374 2.7909 -1.9938 0.9835
2.3234 2.9853 -2.0719 0.9829
2.3171 3.2083 -2.1676 0.9821
2.4029 3.8861 -2.5025 0.9794
2.1181 4.0481 -2.5024 0.9794
1.8226 4.1894 -2.5023 0.9794
1.6712 4.2519 -2.5022 0.9794
1.3622 4.3606 -2.5021 0.9794
1.2050 4.4065 -2.5021 0.9794
1.0462 4.4468 -2.5020 0.9794
0.7249 4.5102 -2.5019 0.9794
0.5627 4.5332 -2.5019 0.9794
0.3998 4.5503 -2.5018 0.9794
-0.0910 4.5666 -2.5017 0.9794
-0.5808 4.5302 -2.5015 0.9794
-0.7428 4.5064 -2.5015 0.9794
-1.0637 4.4414 -2.5014 0.9794
-1.3791 4.3536 -2.5013 0.9794
-1.5343 4.3012 -2.5012 0.9794
-1.6875 4.2434 -2.5012 0.9794
-1.9871 4.1114 -2.5011 0.9794
-2.2765 3.9583 -2.5010 0.9794
-2.5542 3.7849 -2.5009 0.9794
-2.6882 3.6908 -2.5009 0.9794
-2.8187 3.5921 -2.5008 0.9794
-2.9457 3.4886 -2.5008 0.9794
-3.5203 2.9073 -2.5006 0.9794
-3.6222 2.7791 -2.5006 0.9794
-3.7195 2.6475 -2.5005 0.9794
-3.9821 2.2327 -2.5005 0.9794
-4.0595 2.0885 -2.5004 0.9794
-4.1987 1.7923 -2.5004 0.9794
-4.2602 1.6406 -2.5004 0.9794
-4.3162 1.4868 -2.5004 0.9794
-4.3668 1.3311 -2.5003 0.9794
-4.4116 1.1737 -2.5003 0.9794
-4.4844 0.8546 -2.5003 0.9794
4.0394 1.5742 -2.5030 0.9802
3.9804 1.7179 -2.5030 0.9802
3.8469 1.9987 -2.5029 0.9802
3.7728 2.1353 -2.5029 0.9802
3.2372 2.3238 -2.3007 0.9818
2.9726 2.2997 -2.1699 0.9828
2.7192 2.2640 -2.0429 0.9838
2.4678 2.3740 -1.9770 0.9843
2.3763 2.6391 -2.0503 0.9837
2.3524 2.8087 -2.1152 0.9832
2.6622 3.4207 -2.5025 0.9802
2.5378 3.5138 -2.5025 0.9802
2.4102 3.6025 -2.5025 0.9802
2.2794 3.6865 -2.5024 0.9802
2.1458 3.7658 -2.5024 0.9802
2.0094 3.8403 -2.5023 0.9802
1.8704 3.9097 -2.5023 0.9802
1.7290 3.9742 -2.5022 0.9802
1.5854 4.0335 -2.5022 0.9802
1.4397 4.0877 -2.5022 0.9802
1.2922 4.1366 -2.5021 0.9802
1.1431 4.1802 -2.5021 0.9802
0.8406 4.2512 -2.5020 0.9802
0.6876 4.2785 -2.5019 0.9802
0.5338 4.3003 -2.5019 0.9802
0.3793 4.3166 -2.5018 0.9802
0.2243 4.3274 -2.5018 0.9802
0.0690 4.3326 -2.5017 0.9802
-0.0864 4.3321 -2.5017 0.9802
-0.2416 4.3262 -2.5016 0.9802
-0.3965 4.3146 -2.5016 0.9802
-0.7046 4.2750 -2.5015 0.9802
-0.8574 4.2469 -2.5014 0.9802
-1.0091 4.2133 -2.5014 0.9802
-1.1595 4.1744 -2.5013 0.9802
-1.3083 4.1301 -2.5013 0.9802
-1.4555 4.0804 -2.5012 0.9802
-1.6009 4.0256 -2.5012 0.9802
-1.7441 3.9655 -2.5012 0.9802
-1.8851 3.9004 -2.5011 0.9802
-2.0237 3.8302 -2.5011 0.9802
-2.2929 3.6753 -2.5010 0.9802
-2.4231 3.5906 -2.5009 0.9802
-2.7945 3.3096 -2.5008 0.9802
-2.9113 3.2072 -2.5008 0.9802
-3.1335 2.9903 -2.5007 0.9802
-3.5286 2.5116 -2.5006 0.9802
-3.6163 2.3834 -2.5006 0.9802
-3.6994 2.2523 -2.5005 0.9802
-3.8512 1.9814 -2.5005 0.9802
-3.9197 1.8420 -2.5005 0.9802
-3.9832 1.7003 -2.5005 0.9802
-4.0415 1.5564 -2.5004 0.9802
-4.1852 1.1134 -2.5004 0.9802
-4.2224 0.9627 -2.5004 0.9802
-4.2542 0.8107 -2.5004 0.9802
