ply
format ascii 1.0
element vertex 1090
property float32 x
property float32 y
property float32 z
property float32 I
end_header
-22.1448 3.4025 3.9505 0.9130
-22.1761 0.9877 3.9141 0.9138
-39.0185 -26.8764 8.3542 0.8249
-36.1110 -26.8391 7.9334 0.8330
-31.2882 -28.9795 7.5198 0.8410
-28.9572 -28.8238 7.2043 0.8471
-26.9021 -30.9375 7.2291 0.8466
-21.3753 -28.4841 6.2794 0.8653
-20.7444 -29.8206 6.4053 0.8628
-19.5426 -35.7855 7.1895 0.8474
-14.0763 -37.8652 7.1231 0.8487
-11.0748 -37.9489 6.9705 0.8517
-8.5959 -39.9399 7.2037 0.8471
-4.1651 -39.8895 7.0718 0.8497
4.4695 -39.7913 7.0604 0.8499
5.9234 -39.7747 7.0907 0.8493
7.4135 -39.8749 7.1515 0.8481
8.4526 -37.8329 6.8354 0.8543
12.7708 -37.5597 6.9951 0.8512
14.3357 -37.6592 7.1052 0.8490
14.9857 -35.4727 6.7900 0.8552
16.4687 -35.3758 6.8805 0.8534
18.0354 -35.3580 6.9988 0.8511
19.8202 -32.7931 6.7564 0.8559
23.1622 -30.3679 6.7344 0.8563
23.9626 -29.1777 6.6575 0.8578
23.9414 -27.1020 6.3764 0.8634
23.5939 -24.8467 6.0417 0.8701
28.4952 -25.9817 6.7995 0.8550
30.7495 -26.0745 7.1089 0.8490
33.0641 -26.0517 7.4223 0.8428
35.5958 -26.0268 7.7753 0.8360
38.3841 -25.9995 8.1746 0.8284
41.4579 -23.9246 8.4400 0.8233
-39.1121 -29.0696 7.4655 0.8210
-36.0324 -31.0414 7.2858 0.8249
-33.7243 -36.0756 7.5653 0.8189
-26.4384 -38.0059 7.0925 0.8292
-20.8456 -35.1069 6.2548 0.8477
-20.9410 -41.8593 7.1703 0.8275
-19.2684 -42.2498 7.1138 0.8287
-17.5153 -42.3815 7.0252 0.8306
1.2259 -30.7164 4.7093 0.8830
15.9308 -41.8493 6.8599 0.8343
18.6639 -40.0914 6.7747 0.8361
22.7456 -37.6337 6.7365 0.8370
24.0362 -36.7169 6.7229 0.8373
24.0056 -33.9396 6.3685 0.8452
23.7500 -31.1386 5.9994 0.8534
29.0422 -35.3628 7.0102 0.8310
23.8951 -27.0496 5.5291 0.8641
23.7322 -24.9924 5.2798 0.8698
31.1340 -30.5100 6.6779 0.8383
33.1807 -30.2539 6.8788 0.8338
33.2231 -28.1720 6.6731 0.8384
35.8120 -28.2167 6.9845 0.8315
38.3675 -25.9883 7.0991 0.8290
41.4599 -25.9575 7.4936 0.8204
-21.4114 -30.7794 4.8825 0.8596
24.0940 -43.3117 6.4540 0.8188
23.8309 -39.4292 5.9995 0.8304
23.9039 -33.7959 5.3905 0.8462
23.8369 -29.0246 4.8909 0.8594
23.7892 -25.0524 4.4988 0.8699
-20.9914 -32.6193 4.1653 0.8555
1.3879 -34.7745 3.7371 0.8694
24.0439 -43.2216 5.3110 0.8196
24.0202 -36.6924 4.7093 0.8383
23.8626 -27.0128 3.8704 0.8650
-45.5500 -14.8583 4.0559 0.8250
1.7346 -43.4619 3.6821 0.8398
24.0364 -43.2081 4.1856 0.8200
23.9561 -36.5944 3.7026 0.8390
23.7793 -25.0420 2.9234 0.8706
-45.3270 -18.4879 3.0356 0.8219
0.9884 -24.7648 1.5369 0.9054
24.0940 -43.3117 3.0734 0.8199
23.7744 -25.0368 2.1409 0.8708
-20.4222 -25.2667 1.2810 0.8780
1.8744 -24.6571 0.9751 0.9058
24.0940 -43.3117 1.9543 0.8200
-43.0908 -25.3178 0.8442 0.8188
-21.6739 -24.9250 0.5579 0.8762
-20.4266 -25.2723 0.5489 0.8781
-21.6828 -43.3420 0.8186 0.8238
-20.2656 -44.4363 0.8250 0.8225
1.8744 -24.6571 0.4177 0.9058
23.1862 -24.4175 0.5688 0.8740
24.8942 -24.3952 0.5888 0.8698
-45.8025 -18.6819 -0.2785 0.8205
-43.0977 -25.3219 -0.2814 0.8188
-21.5410 -23.0428 -0.1776 0.8815
-18.5970 -23.0086 -0.1666 0.8884
-15.9856 -22.9796 -0.1576 0.8941
-14.7806 -22.9679 -0.1538 0.8965
-8.5037 -22.8747 -0.1374 0.9070
-6.6690 -22.8515 -0.1340 0.9092
-4.9163 -22.8425 -0.1316 0.9108
-4.0607 -22.8323 -0.1306 0.9114
-1.5543 -22.8024 -0.1287 0.9126
5.9399 -22.7135 -0.1322 0.9104
7.7157 -22.6924 -0.1349 0.9086
8.6342 -22.6815 -0.1366 0.9075
9.5772 -22.6702 -0.1386 0.9062
10.5542 -22.6713 -0.1408 0.9048
13.6779 -22.6309 -0.1489 0.8996
14.8054 -22.6163 -0.1522 0.8975
17.2320 -22.5929 -0.1600 0.8926
21.4142 -22.5513 -0.1751 0.8830
-45.8020 -18.6817 -1.3928 0.8204
-18.5970 -23.0085 -0.8330 0.8884
-17.2546 -22.9929 -0.8095 0.8913
-15.9859 -22.9801 -0.7882 0.8940
-13.6314 -22.9571 -0.7518 0.8987
-12.5312 -22.9465 -0.7362 0.9007
-11.4743 -22.9362 -0.7221 0.9025
-10.4437 -22.8998 -0.7087 0.9042
-8.5039 -22.8753 -0.6872 0.9070
-4.9162 -22.8421 -0.6579 0.9107
-4.0606 -22.8319 -0.6530 0.9114
-1.5543 -22.8019 -0.6435 0.9126
-0.7314 -22.7921 -0.6421 0.9128
0.9089 -22.7750 -0.6418 0.9128
1.7306 -22.7670 -0.6429 0.9127
4.2282 -22.7426 -0.6514 0.9116
5.0768 -22.7240 -0.6556 0.9110
5.9400 -22.7137 -0.6611 0.9103
6.8187 -22.7032 -0.6675 0.9095
7.7158 -22.6925 -0.6749 0.9085
8.6342 -22.6816 -0.6834 0.9075
11.5577 -22.6587 -0.7162 0.9032
14.8057 -22.6167 -0.7612 0.8975
18.5430 -22.5787 -0.8227 0.8897
19.9312 -22.5625 -0.8477 0.8865
21.4141 -22.5513 -0.8757 0.8830
22.9932 -22.5323 -0.9065 0.8791
24.6897 -22.5120 -0.9408 0.8749
-48.6975 5.6978 -2.4865 0.8217
-48.8699 3.9422 -2.4865 0.8217
-48.9795 2.1815 -2.4864 0.8217
-49.0263 0.4181 -2.4864 0.8217
-49.0096 -1.3459 -2.4864 0.8217
-47.9846 -10.0956 -2.4868 0.8217
-47.5927 -11.8159 -2.4869 0.8217
-47.1397 -13.5212 -2.4871 0.8217
-42.6588 -17.3997 -2.3364 0.8315
-42.0406 -18.9389 -2.3384 0.8314
-41.3302 -20.4382 -2.3383 0.8314
-40.4109 -23.7432 -2.3770 0.8288
-37.4371 -23.8480 -2.2511 0.8371
-29.7379 -23.8098 -1.9320 0.8585
-27.6251 -23.7985 -1.8492 0.8641
-20.0217 -23.0250 -1.5474 0.8850
-18.5969 -23.0085 -1.5003 0.8883
-17.2546 -22.9928 -1.4579 0.8912
-15.9862 -22.9805 -1.4197 0.8939
-13.6317 -22.9575 -1.3540 0.8986
-12.5314 -22.9468 -1.3260 0.9006
-11.4745 -22.9365 -1.3006 0.9024
-10.4440 -22.9004 -1.2765 0.9041
-9.4591 -22.8879 -1.2560 0.9056
-8.5041 -22.8759 -1.2377 0.9069
-7.5753 -22.8641 -1.2215 0.9080
-6.6693 -22.8526 -1.2073 0.9091
-4.9161 -22.8416 -1.1849 0.9107
-3.2166 -22.8213 -1.1688 0.9118
-1.5543 -22.8015 -1.1590 0.9125
-0.7313 -22.7917 -1.1565 0.9127
0.0890 -22.7836 -1.1555 0.9128
2.5564 -22.7595 -1.1615 0.9124
3.3882 -22.7514 -1.1665 0.9120
4.2283 -22.7432 -1.1732 0.9115
5.0768 -22.7241 -1.1808 0.9110
5.9400 -22.7138 -1.1907 0.9103
6.8187 -22.7034 -1.2022 0.9094
8.6343 -22.6818 -1.2308 0.9074
10.5546 -22.6721 -1.2683 0.9047
13.6784 -22.6316 -1.3411 0.8995
14.8059 -22.6171 -1.3709 0.8974
15.9916 -22.6095 -1.4044 0.8950
17.2336 -22.5950 -1.4411 0.8924
18.5439 -22.5798 -1.4818 0.8896
19.9322 -22.5636 -1.5268 0.8864
37.8035 -32.0559 -2.5136 0.8199
29.5819 -23.3079 -1.9098 0.8600
37.2002 -23.2905 -2.2258 0.8388
39.8063 -22.9715 -2.3308 0.8319
-33.6876 5.1761 -2.4990 0.8722
-33.8008 3.9548 -2.4953 0.8724
-33.9963 1.5142 -2.4952 0.8724
-34.0281 0.2902 -2.4951 0.8724
-34.0158 -0.9341 -2.4951 0.8724
-33.9596 -2.1572 -2.4950 0.8724
-33.6655 -4.5865 -2.4912 0.8726
-33.2504 -6.9957 -2.4914 0.8726
-31.9087 -11.6946 -2.4918 0.8726
-31.4692 -12.8356 -2.4919 0.8726
-30.9890 -13.9603 -2.4921 0.8726
-30.4688 -15.0671 -2.4923 0.8726
-28.0014 -19.2877 -2.4931 0.8725
-22.6835 -22.5789 -2.3467 0.8795
-21.5408 -23.0426 -2.3128 0.8812
-17.2545 -22.9928 -2.1078 0.8911
-15.9865 -22.9809 -2.0526 0.8938
-13.6319 -22.9579 -1.9577 0.8984
-11.4747 -22.9369 -1.8805 0.9023
-8.5043 -22.8764 -1.7895 0.9068
-7.5755 -22.8647 -1.7661 0.9079
-5.7856 -22.8515 -1.7284 0.9098
-4.0604 -22.8310 -1.7003 0.9112
-3.2166 -22.8209 -1.6898 0.9117
-2.3819 -22.8109 -1.6816 0.9121
-0.7313 -22.7912 -1.6720 0.9126
0.0890 -22.7842 -1.6706 0.9127
1.7307 -22.7682 -1.6742 0.9125
3.3883 -22.7520 -1.6866 0.9119
4.2284 -22.7438 -1.6962 0.9114
5.0769 -22.7242 -1.7073 0.9108
7.7159 -22.6929 -1.7574 0.9083
8.6343 -22.6819 -1.7795 0.9072
9.5774 -22.6707 -1.8045 0.9060
11.5581 -22.6595 -1.8651 0.9030
13.6786 -22.6320 -1.9390 0.8994
15.9924 -22.6105 -2.0306 0.8949
18.5448 -22.5809 -2.1425 0.8894
19.9332 -22.5648 -2.2076 0.8863
22.9931 -22.5323 -2.3605 0.8789
25.2896 -19.9259 -2.3607 0.8789
26.0118 -19.0192 -2.3627 0.8788
27.2854 -17.0830 -2.3604 0.8789
-25.7838 3.9617 -2.5044 0.9005
-25.8162 3.0206 -2.4954 0.9008
-25.9658 1.1565 -2.4953 0.9008
-25.9381 -1.6477 -2.4952 0.9008
-25.8617 -2.5797 -2.4952 0.9008
-25.6086 -4.4324 -2.4951 0.9008
-25.2229 -6.2621 -2.4950 0.9008
-24.9810 -7.1653 -2.4950 0.9008
-24.7068 -8.0594 -2.4950 0.9008
-23.6939 -10.6739 -2.4949 0.9008
-22.4054 -13.1641 -2.4948 0.9008
-21.4031 -14.7427 -2.4951 0.9008
-19.2074 -15.3785 -2.3622 0.9059
-17.9110 -16.5893 -2.3438 0.9066
-17.3040 -17.2243 -2.3440 0.9065
-16.6768 -17.8395 -2.3445 0.9065
-13.9521 -20.0565 -2.3456 0.9065
-13.2233 -20.5480 -2.3459 0.9065
-12.4771 -21.0132 -2.3462 0.9065
-10.9369 -21.8619 -2.3468 0.9064
-10.1447 -22.2443 -2.3472 0.9064
-9.3393 -22.5981 -2.3475 0.9064
-8.5045 -22.8770 -2.3432 0.9066
-6.6696 -22.8538 -2.2856 0.9088
-2.8279 -15.9006 -1.5505 0.9372
-3.2165 -22.8204 -2.2125 0.9116
-1.5542 -22.8006 -2.1940 0.9123
0.0890 -22.7848 -2.1875 0.9125
0.9090 -22.7768 -2.1884 0.9125
1.7308 -22.7688 -2.1922 0.9123
2.5565 -22.7607 -2.1989 0.9121
5.0769 -22.7244 -2.2354 0.9107
8.6344 -22.6821 -2.3300 0.9071
9.5487 -22.6028 -2.3557 0.9061
11.9337 -21.4521 -2.3567 0.9061
12.6996 -21.0121 -2.3571 0.9061
13.4478 -20.5423 -2.3572 0.9060
16.2491 -18.3942 -2.3563 0.9061
16.8983 -17.7956 -2.3560 0.9061
19.2711 -15.1839 -2.3554 0.9061
20.5575 -13.9246 -2.3838 0.9050
22.1143 -13.8454 -2.5049 0.9005
-20.8972 2.4451 -2.4992 0.9187
-20.9869 0.9347 -2.4954 0.9189
-20.8142 -2.8357 -2.4953 0.9189
-20.5568 -4.3250 -2.4953 0.9189
-20.1936 -5.7922 -2.4954 0.9189
-19.4539 -7.9349 -2.4957 0.9189
-19.1566 -8.6299 -2.4958 0.9188
-17.3072 -11.9213 -2.4964 0.9188
-15.9249 -13.7190 -2.4968 0.9188
-15.4220 -14.2840 -2.4970 0.9188
-14.8991 -14.8305 -2.4971 0.9188
-13.1777 -15.1543 -2.3855 0.9223
-10.6880 -16.6084 -2.3460 0.9235
-10.0844 -16.9835 -2.3462 0.9235
-9.4682 -17.3376 -2.3466 0.9235
-8.2005 -17.9811 -2.3475 0.9235
-7.5498 -18.2681 -2.3480 0.9235
-6.8891 -18.5315 -2.3485 0.9235
-5.5407 -18.9853 -2.3493 0.9234
-4.8547 -19.1747 -2.3496 0.9234
-4.1623 -19.3394 -2.3499 0.9234
0.0773 -19.7974 -2.3517 0.9233
1.5010 -19.7457 -2.3523 0.9233
2.2107 -19.6814 -2.3526 0.9233
2.9175 -19.5905 -2.3527 0.9233
3.6206 -19.4740 -2.3529 0.9233
4.3190 -19.3321 -2.3530 0.9233
5.0119 -19.1650 -2.3531 0.9233
7.0480 -18.5146 -2.3532 0.9233
8.3609 -17.9598 -2.3532 0.9233
9.0014 -17.6470 -2.3532 0.9233
10.2463 -16.9529 -2.3530 0.9233
12.0138 -15.7512 -2.3531 0.9233
12.5736 -15.3100 -2.3533 0.9233
15.4553 -14.0920 -2.4844 0.9192
17.8910 -11.2013 -2.5074 0.9185
-17.5607 1.4165 -2.4962 0.9313
-17.6002 0.7839 -2.4962 0.9313
-17.6110 -0.4836 -2.4962 0.9313
-17.5823 -1.1169 -2.4962 0.9313
-17.2411 -3.6274 -2.4964 0.9313
-17.0997 -4.2454 -2.4964 0.9313
-16.9363 -4.8579 -2.4965 0.9313
-16.7510 -5.4642 -2.4965 0.9313
-16.3157 -6.6548 -2.4967 0.9313
-16.0662 -7.2377 -2.4967 0.9313
-15.5053 -8.3748 -2.4969 0.9313
-14.1462 -10.5140 -2.4973 0.9313
-13.7595 -11.0166 -2.4975 0.9313
-12.9331 -11.9787 -2.4977 0.9313
-12.4945 -12.4369 -2.4979 0.9313
-11.5693 -13.3047 -2.4982 0.9312
-11.0838 -13.7131 -2.4983 0.9312
-10.0704 -14.4764 -2.4986 0.9312
-9.5437 -14.8303 -2.4988 0.9312
-8.1731 -14.9662 -2.4161 0.9334
-6.8743 -15.0726 -2.3472 0.9353
-6.3278 -15.3112 -2.3474 0.9353
-1.7216 -16.4879 -2.3488 0.9352
-1.1275 -16.5404 -2.3490 0.9352
0.0648 -16.5813 -2.3494 0.9352
1.2571 -16.5363 -2.3498 0.9352
1.8513 -16.4817 -2.3500 0.9352
3.0321 -16.3085 -2.3503 0.9352
3.6171 -16.1901 -2.3505 0.9352
5.3415 -15.7097 -2.3511 0.9352
6.4582 -15.2873 -2.3514 0.9352
7.0045 -15.0462 -2.3516 0.9351
7.5418 -14.7855 -2.3517 0.9351
10.7223 -14.0580 -2.5051 0.9311
11.2218 -13.6640 -2.5053 0.9311
12.1767 -12.8233 -2.5056 0.9311
13.8931 -10.9465 -2.5061 0.9310
14.2785 -10.4401 -2.5062 0.9310
15.3222 -8.8421 -2.5065 0.9310
-14.9817 2.3020 -2.4970 0.9404
-15.0547 1.7615 -2.4970 0.9404
-15.1083 1.2187 -2.4970 0.9404
-15.1423 0.6744 -2.4970 0.9404
-15.1567 0.1292 -2.4970 0.9404
-15.0826 -1.5045 -2.4970 0.9404
-15.0188 -2.0461 -2.4970 0.9404
-14.9357 -2.5851 -2.4971 0.9404
-14.8332 -3.1208 -2.4971 0.9404
-14.7116 -3.6525 -2.4971 0.9404
-14.5709 -4.1794 -2.4972 0.9404
-14.2333 -5.2165 -2.4973 0.9404
-14.0368 -5.7253 -2.4974 0.9404
-13.5896 -6.7202 -2.4975 0.9404
-13.0721 -7.6804 -2.4977 0.9404
-12.4869 -8.6011 -2.4979 0.9404
-11.4890 -9.8976 -2.4982 0.9404
-11.1260 -10.3050 -2.4983 0.9404
-10.3571 -11.0794 -2.4985 0.9404
-9.9525 -11.4454 -2.4987 0.9404
-9.5348 -11.7967 -2.4988 0.9404
-9.1048 -12.1327 -2.4989 0.9404
-8.6629 -12.4530 -2.4991 0.9404
-8.2097 -12.7573 -2.4992 0.9404
-7.7459 -13.0452 -2.4994 0.9403
-4.2522 -14.5704 -2.5005 0.9403
-3.7255 -14.7150 -2.5006 0.9403
-2.6239 -14.7541 -2.4687 0.9411
-1.5370 -14.7202 -2.4382 0.9418
-1.0021 -14.7026 -2.4277 0.9420
0.0573 -14.6661 -2.4161 0.9423
0.5846 -14.6471 -2.4149 0.9423
1.6408 -14.6074 -2.4215 0.9422
3.7970 -14.5193 -2.4723 0.9410
4.3535 -14.4951 -2.4933 0.9405
4.8917 -14.3867 -2.5033 0.9403
5.4064 -14.2023 -2.5035 0.9403
6.4144 -13.7786 -2.5038 0.9402
6.9063 -13.5397 -2.5039 0.9402
7.3894 -13.2833 -2.5041 0.9402
8.3263 -12.7190 -2.5044 0.9402
8.7790 -12.4120 -2.5045 0.9402
9.6498 -11.7499 -2.5048 0.9402
10.0667 -11.3957 -2.5049 0.9402
10.4707 -11.0267 -2.5050 0.9402
11.5994 -9.8358 -2.5054 0.9402
-13.1338 2.0180 -2.4976 0.9474
-13.2746 0.5913 -2.4976 0.9474
-13.0934 -2.2662 -2.4976 0.9474
-12.8969 -3.2019 -2.4977 0.9474
-12.7736 -3.6639 -2.4978 0.9474
-12.6338 -4.1211 -2.4978 0.9474
-12.3052 -5.0191 -2.4979 0.9473
-11.9131 -5.8912 -2.4980 0.9473
-9.4222 -9.3788 -2.4988 0.9473
-8.7242 -10.0329 -2.4990 0.9473
-8.3581 -10.3407 -2.4992 0.9473
-7.9810 -10.6352 -2.4993 0.9473
-7.1963 -11.1827 -2.4995 0.9473
-6.7897 -11.4349 -2.4996 0.9473
-6.3743 -11.6723 -2.4998 0.9473
-5.0805 -12.2932 -2.5002 0.9473
-4.6352 -12.4687 -2.5003 0.9473
-3.7271 -12.7712 -2.5006 0.9473
-3.2654 -12.8977 -2.5008 0.9473
-2.7995 -13.0076 -2.5009 0.9473
-2.3299 -13.1007 -2.5010 0.9473
-1.3821 -13.2358 -2.5013 0.9473
-0.9051 -13.2778 -2.5015 0.9473
-0.4268 -13.3025 -2.5016 0.9473
2.4336 -13.0898 -2.5025 0.9473
2.9031 -12.9946 -2.5027 0.9473
4.2870 -12.6083 -2.5031 0.9472
4.7381 -12.4467 -2.5033 0.9472
5.6214 -12.0751 -2.5035 0.9472
7.6934 -10.8770 -2.5042 0.9472
8.0801 -10.5938 -2.5043 0.9472
8.8217 -9.9862 -2.5045 0.9472
10.1648 -8.6191 -2.5049 0.9472
10.4684 -8.2482 -2.5050 0.9472
10.7587 -7.8665 -2.5051 0.9472
11.0351 -7.4746 -2.5052 0.9472
11.5447 -6.6622 -2.5054 0.9472
-11.7378 1.3734 -2.4981 0.9528
-11.7795 0.9502 -2.4980 0.9528
-11.8133 -0.3244 -2.4980 0.9528
-11.7595 -1.1730 -2.4981 0.9528
-11.7098 -1.5953 -2.4981 0.9528
-11.6449 -2.0155 -2.4981 0.9528
-11.2360 -3.6652 -2.4982 0.9528
-10.9438 -4.4638 -2.4983 0.9528
-10.3999 -5.6172 -2.4985 0.9528
-10.1913 -5.9879 -2.4986 0.9528
-9.9696 -6.3508 -2.4986 0.9528
-9.7350 -6.7056 -2.4987 0.9528
-9.4878 -7.0517 -2.4988 0.9528
-8.9568 -7.7161 -2.4990 0.9528
-8.6737 -8.0337 -2.4990 0.9528
-8.0742 -8.6372 -2.4992 0.9528
-7.4329 -9.1961 -2.4994 0.9528
-7.0976 -9.4580 -2.4995 0.9528
-6.7530 -9.7076 -2.4997 0.9528
-6.3998 -9.9447 -2.4998 0.9528
-6.0380 -10.1689 -2.4999 0.9528
-5.6687 -10.3801 -2.5000 0.9528
-4.9080 -10.7618 -2.5002 0.9528
-3.7205 -11.2296 -2.5006 0.9528
-3.3143 -11.3568 -2.5007 0.9528
-2.9038 -11.4692 -2.5009 0.9528
-2.4894 -11.5669 -2.5010 0.9528
-1.6515 -11.7171 -2.5013 0.9528
-1.2289 -11.7696 -2.5014 0.9528
-0.8048 -11.8069 -2.5015 0.9528
0.0463 -11.8354 -2.5018 0.9528
0.8972 -11.8027 -2.5021 0.9528
1.7437 -11.7089 -2.5023 0.9528
2.1639 -11.6392 -2.5024 0.9528
3.4058 -11.3400 -2.5028 0.9527
4.2129 -11.0669 -2.5031 0.9527
5.3814 -10.5501 -2.5034 0.9527
5.7578 -10.3502 -2.5036 0.9527
7.1841 -9.4190 -2.5040 0.9527
7.8436 -8.8788 -2.5042 0.9527
8.1580 -8.5912 -2.5043 0.9527
8.4622 -8.2925 -2.5044 0.9527
8.7553 -7.9829 -2.5045 0.9527
9.3072 -7.3333 -2.5047 0.9527
9.5653 -6.9939 -2.5047 0.9527
9.8110 -6.6455 -2.5048 0.9527
10.0440 -6.2884 -2.5049 0.9527
10.2640 -5.9232 -2.5050 0.9527
-10.5961 0.8547 -2.4984 0.9573
-10.6200 0.4730 -2.4984 0.9573
-10.6301 0.0906 -2.4984 0.9573
-10.6265 -0.2919 -2.4984 0.9573
-10.5781 -1.0552 -2.4984 0.9573
-10.4750 -1.8130 -2.4985 0.9573
-10.2190 -2.9312 -2.4985 0.9573
-10.1071 -3.2969 -2.4986 0.9573
-9.9821 -3.6585 -2.4986 0.9573
-9.6936 -4.3669 -2.4987 0.9573
-9.3549 -5.0528 -2.4988 0.9573
-9.1673 -5.3862 -2.4989 0.9573
-8.7567 -6.0317 -2.4990 0.9572
-8.3008 -6.6461 -2.4992 0.9572
-8.0566 -6.9407 -2.4992 0.9572
-7.5372 -7.5025 -2.4994 0.9572
-7.2627 -7.7690 -2.4995 0.9572
-6.6858 -8.2718 -2.4997 0.9572
-6.3841 -8.5072 -2.4998 0.9572
-5.7564 -8.9450 -2.5000 0.9572
-5.4311 -9.1466 -2.5001 0.9572
-5.0987 -9.3365 -2.5002 0.9572
-2.6034 -10.2826 -2.4929 0.9574
-2.2319 -10.3701 -2.4930 0.9574
-1.8634 -10.4779 -2.5012 0.9572
-1.4854 -10.5387 -2.5013 0.9572
-1.1053 -10.5858 -2.5014 0.9572
-0.7238 -10.6192 -2.5015 0.9572
-0.3413 -10.6388 -2.5017 0.9572
1.1884 -10.5798 -2.5021 0.9572
2.3216 -10.3917 -2.5025 0.9572
2.6941 -10.3019 -2.5026 0.9572
3.0631 -10.1988 -2.5027 0.9572
4.1446 -9.8107 -2.5031 0.9572
4.4951 -9.6557 -2.5032 0.9572
4.8397 -9.4881 -2.5033 0.9572
5.1783 -9.3083 -2.5034 0.9572
7.3366 -7.7261 -2.5040 0.9572
7.6100 -7.4574 -2.5041 0.9572
8.1271 -6.8914 -2.5043 0.9572
8.8230 -5.9762 -2.5045 0.9572
9.2303 -5.3266 -2.5046 0.9572
-9.6410 0.4294 -2.4987 0.9609
-9.6503 0.0823 -2.4987 0.9609
-9.6312 -0.6118 -2.4987 0.9609
-9.5094 -1.6459 -2.4988 0.9609
-9.4441 -1.9870 -2.4988 0.9609
-9.3666 -2.3255 -2.4988 0.9609
-9.2770 -2.6610 -2.4988 0.9609
-9.0619 -3.3212 -2.4989 0.9609
-8.6518 -4.2784 -2.4990 0.9609
-8.3221 -4.8896 -2.4991 0.9609
-8.1410 -5.1859 -2.4992 0.9609
-7.3138 -6.3007 -2.4995 0.9609
-6.8422 -6.8107 -2.4996 0.9609
-6.5930 -7.0527 -2.4997 0.9609
-6.3352 -7.2855 -2.4998 0.9609
-6.0692 -7.5089 -2.4999 0.9609
-5.7954 -7.7227 -2.4999 0.9609
-5.5140 -7.9264 -2.5000 0.9609
-5.2254 -8.1200 -2.5001 0.9609
-4.9301 -8.3030 -2.5002 0.9609
-4.6285 -8.4754 -2.5003 0.9609
-4.3207 -8.6367 -2.5004 0.9609
-4.0074 -8.7869 -2.5005 0.9609
-3.3655 -9.0530 -2.5007 0.9609
-2.7061 -9.2723 -2.5009 0.9609
-2.3708 -9.3641 -2.5010 0.9609
-1.0032 -9.6089 -2.5014 0.9609
-0.3098 -9.6570 -2.5017 0.9609
0.0377 -9.6624 -2.5018 0.9609
0.7325 -9.6354 -2.5020 0.9609
1.0787 -9.6033 -2.5021 0.9609
1.4235 -9.5587 -2.5022 0.9609
2.1073 -9.4324 -2.5024 0.9609
2.4453 -9.3509 -2.5025 0.9609
3.4389 -9.0341 -2.5028 0.9608
3.7619 -8.9049 -2.5029 0.9608
4.3929 -8.6120 -2.5031 0.9608
4.7000 -8.4487 -2.5032 0.9608
5.0011 -8.2745 -2.5033 0.9608
5.2957 -8.0895 -2.5034 0.9608
5.5835 -7.8941 -2.5035 0.9608
5.8641 -7.6883 -2.5036 0.9608
6.1371 -7.4727 -2.5037 0.9608
6.4021 -7.2473 -2.5038 0.9608
6.6589 -7.0125 -2.5038 0.9608
6.9071 -6.7686 -2.5039 0.9608
7.1463 -6.5159 -2.5040 0.9608
7.3763 -6.2548 -2.5041 0.9608
7.8074 -5.7086 -2.5042 0.9608
8.1980 -5.1327 -2.5043 0.9608
8.3776 -4.8345 -2.5044 0.9608
-8.7676 1.0259 -2.4990 0.9640
-8.8187 0.3928 -2.4990 0.9640
-8.8271 0.0753 -2.4990 0.9640
-8.8241 -0.2423 -2.4990 0.9640
-8.8097 -0.5596 -2.4990 0.9640
-8.6385 -1.8175 -2.4990 0.9640
-8.5676 -2.1271 -2.4991 0.9640
-8.4856 -2.4340 -2.4991 0.9640
-8.2889 -3.0379 -2.4992 0.9640
-7.9137 -3.9134 -2.4993 0.9640
-7.7679 -4.1956 -2.4993 0.9640
-7.6121 -4.4725 -2.4994 0.9640
-7.2712 -5.0084 -2.4995 0.9640
-7.0864 -5.2669 -2.4995 0.9640
-6.8925 -5.5186 -2.4996 0.9640
-6.4782 -6.0002 -2.4997 0.9640
-6.0304 -6.4508 -2.4999 0.9640
-5.7946 -6.6638 -2.4999 0.9640
-5.3008 -7.0636 -2.5001 0.9640
-5.0434 -7.2500 -2.5002 0.9640
-4.7795 -7.4270 -2.5003 0.9639
-4.2334 -7.7519 -2.5004 0.9639
-2.7784 -8.3859 -2.5009 0.9639
-2.4750 -8.4807 -2.5010 0.9639
-2.1684 -8.5646 -2.5011 0.9639
-1.8590 -8.6374 -2.5012 0.9639
-1.5471 -8.6991 -2.5013 0.9639
-1.2332 -8.7494 -2.5014 0.9639
-0.9177 -8.7885 -2.5015 0.9639
-0.2834 -8.8324 -2.5017 0.9639
0.0345 -8.8372 -2.5018 0.9639
0.6699 -8.8125 -2.5020 0.9639
1.3019 -8.7422 -2.5022 0.9639
2.8458 -8.3698 -2.5026 0.9639
3.1452 -8.2623 -2.5027 0.9639
3.7314 -8.0154 -2.5029 0.9639
4.5738 -7.5675 -2.5032 0.9639
5.1064 -7.2195 -2.5033 0.9639
5.6126 -6.8341 -2.5035 0.9639
6.7459 -5.7203 -2.5039 0.9639
7.1401 -5.2206 -2.5040 0.9639
7.3234 -4.9605 -2.5040 0.9639
7.4973 -4.6940 -2.5041 0.9639
7.6615 -4.4212 -2.5041 0.9639
-8.1173 0.3615 -2.4992 0.9666
-8.0853 -0.8065 -2.4992 0.9666
-8.0065 -1.3858 -2.4992 0.9666
-7.8862 -1.9579 -2.4993 0.9666
-7.8108 -2.2404 -2.4993 0.9666
-7.6296 -2.7963 -2.4994 0.9666
-7.5242 -3.0689 -2.4994 0.9666
-7.4090 -3.3377 -2.4994 0.9666
-7.2843 -3.6021 -2.4995 0.9666
-7.0067 -4.1167 -2.4996 0.9666
-6.8542 -4.3662 -2.4996 0.9666
-6.6928 -4.6101 -2.4997 0.9666
-6.3443 -5.0796 -2.4998 0.9666
-6.1576 -5.3047 -2.4998 0.9666
-5.9629 -5.5229 -2.4999 0.9666
-5.7605 -5.7340 -2.4999 0.9666
-5.5506 -5.9377 -2.5000 0.9666
-5.3336 -6.1337 -2.5001 0.9666
-4.6272 -6.6517 -2.4923 0.9667
-4.3992 -6.8361 -2.5004 0.9666
-3.6374 -7.2709 -2.5006 0.9665
-3.3736 -7.3973 -2.5007 0.9665
-3.1054 -7.5142 -2.5008 0.9665
-2.8332 -7.6213 -2.5009 0.9665
-1.1350 -8.0530 -2.5014 0.9665
-0.2608 -8.1293 -2.5017 0.9665
0.6166 -8.1109 -2.5019 0.9665
1.1983 -8.0462 -2.5021 0.9665
1.7738 -7.9398 -2.5023 0.9665
2.0584 -7.8711 -2.5024 0.9665
2.3403 -7.7922 -2.5025 0.9665
2.6192 -7.7033 -2.5026 0.9665
2.8947 -7.6043 -2.5027 0.9665
3.1665 -7.4955 -2.5027 0.9665
3.9561 -7.1114 -2.5030 0.9665
4.9358 -6.4713 -2.5033 0.9665
5.1655 -6.2897 -2.5034 0.9665
5.3886 -6.0999 -2.5034 0.9665
5.6047 -5.9023 -2.5035 0.9665
5.8136 -5.6970 -2.5036 0.9665
6.0149 -5.4843 -2.5036 0.9665
6.5712 -4.8047 -2.5038 0.9665
6.7399 -4.5653 -2.5038 0.9665
6.8999 -4.3199 -2.5039 0.9665
7.0510 -4.0690 -2.5039 0.9665
-7.4681 0.8738 -2.4994 0.9688
-7.4947 0.6046 -2.4994 0.9688
-7.5116 0.3346 -2.4994 0.9688
-7.5188 0.0641 -2.4994 0.9688
-7.5162 -0.2064 -2.4994 0.9688
-7.5040 -0.4767 -2.4994 0.9688
-7.4820 -0.7463 -2.4994 0.9688
-7.4503 -1.0150 -2.4994 0.9688
-7.2977 -1.8119 -2.4995 0.9688
-7.0603 -2.5876 -2.4995 0.9688
-6.9627 -2.8399 -2.4996 0.9688
-6.8561 -3.0886 -2.4996 0.9688
-6.7407 -3.3333 -2.4996 0.9688
-6.6165 -3.5738 -2.4997 0.9688
-5.6980 -4.9087 -2.5000 0.9688
-5.1363 -5.4944 -2.5001 0.9688
-4.9355 -5.6758 -2.5002 0.9688
-4.7282 -5.8499 -2.5003 0.9688
-4.0708 -6.3257 -2.5005 0.9688
-3.5940 -6.5812 -2.4926 0.9689
-3.1217 -6.8450 -2.5008 0.9688
-1.0503 -7.4516 -2.5014 0.9688
-0.7815 -7.4848 -2.5015 0.9688
0.0294 -7.5262 -2.5018 0.9688
0.5705 -7.5051 -2.5019 0.9688
0.8402 -7.4800 -2.5020 0.9688
1.6413 -7.3466 -2.5023 0.9688
1.9046 -7.2831 -2.5023 0.9688
4.3484 -6.1479 -2.5031 0.9688
4.5669 -5.9876 -2.5032 0.9688
4.7795 -5.8196 -2.5032 0.9688
5.3790 -5.2712 -2.5034 0.9688
6.0803 -4.4455 -2.5036 0.9687
6.5239 -3.7648 -2.5038 0.9687
-6.9086 1.0615 -2.4996 0.9707
-6.9827 0.3110 -2.4995 0.9707
-6.9870 -0.1919 -2.4995 0.9707
-6.9756 -0.4431 -2.4996 0.9707
-6.9552 -0.6938 -2.4996 0.9707
-6.6453 -2.1677 -2.4997 0.9707
-6.3733 -2.8711 -2.4997 0.9707
-6.0272 -3.5412 -2.4999 0.9707
-5.6109 -4.1702 -2.5000 0.9707
-5.2967 -4.5630 -2.5001 0.9707
-4.9551 -4.9323 -2.5002 0.9707
-4.3952 -5.4378 -2.5004 0.9707
-3.7840 -5.8802 -2.5006 0.9707
-3.3516 -6.1374 -2.5007 0.9707
-2.6711 -6.4633 -2.5009 0.9707
-2.1996 -6.6390 -2.5011 0.9707
-1.7167 -6.7804 -2.5012 0.9707
-1.4717 -6.8380 -2.5013 0.9707
-1.2248 -6.8867 -2.5014 0.9707
-0.9762 -6.9265 -2.5014 0.9707
-0.7264 -6.9573 -2.5015 0.9707
-0.4757 -6.9792 -2.5016 0.9707
-0.2243 -6.9920 -2.5017 0.9707
0.5303 -6.9762 -2.5019 0.9707
1.0306 -6.9204 -2.5021 0.9707
1.5257 -6.8288 -2.5022 0.9707
2.0128 -6.7019 -2.5024 0.9707
2.2527 -6.6253 -2.5025 0.9707
2.4896 -6.5402 -2.5025 0.9707
3.1801 -6.2344 -2.5027 0.9707
3.8335 -5.8560 -2.5029 0.9707
4.2449 -5.5655 -2.5031 0.9707
4.6343 -5.2461 -2.5032 0.9707
5.3393 -4.5275 -2.5034 0.9707
5.7963 -3.9261 -2.5036 0.9707
6.0638 -3.4993 -2.5036 0.9707
-6.4473 0.9906 -2.4997 0.9724
-6.5227 0.0556 -2.4997 0.9724
-6.5204 -0.1791 -2.4997 0.9724
-6.5098 -0.4135 -2.4997 0.9724
-6.3309 -1.5718 -2.4998 0.9724
-6.2703 -1.7985 -2.4998 0.9724
-6.1248 -2.2448 -2.4998 0.9724
-5.9477 -2.6794 -2.4999 0.9724
-5.8476 -2.8917 -2.4999 0.9724
-5.7398 -3.1002 -2.4999 0.9724
-5.6247 -3.3048 -2.5000 0.9724
-5.5022 -3.5050 -2.5000 0.9724
-4.9429 -4.2583 -2.5002 0.9724
-4.7866 -4.4334 -2.5002 0.9724
-4.6242 -4.6028 -2.5003 0.9724
-4.4557 -4.7663 -2.5004 0.9724
-4.2814 -4.9236 -2.5004 0.9724
-4.1016 -5.0746 -2.5005 0.9724
-3.3317 -5.6110 -2.5007 0.9724
-3.1277 -5.7274 -2.5008 0.9724
-2.4927 -6.0315 -2.5010 0.9724
-2.2742 -6.1174 -2.5010 0.9724
-2.0526 -6.1954 -2.5011 0.9724
-1.6020 -6.3273 -2.5013 0.9724
-0.9110 -6.4637 -2.5015 0.9724
-0.6779 -6.4924 -2.5015 0.9724
-0.2094 -6.5247 -2.5017 0.9724
0.0255 -6.5283 -2.5018 0.9724
0.2604 -6.5233 -2.5018 0.9724
0.4949 -6.5099 -2.5019 0.9724
0.7288 -6.4881 -2.5020 0.9724
1.1935 -6.4192 -2.5021 0.9724
1.6520 -6.3171 -2.5023 0.9724
2.1021 -6.1824 -2.5024 0.9724
2.5413 -6.0156 -2.5025 0.9724
2.9674 -5.8176 -2.5027 0.9724
3.1749 -5.7072 -2.5027 0.9724
3.9611 -5.1933 -2.5030 0.9724
4.3244 -4.8953 -2.5031 0.9724
4.4978 -4.7367 -2.5032 0.9724
4.6652 -4.5719 -2.5032 0.9724
4.8269 -4.4012 -2.5033 0.9724
4.9822 -4.2248 -2.5033 0.9724
5.1311 -4.0429 -2.5033 0.9724
5.5371 -3.4667 -2.5035 0.9724
-6.0666 0.7098 -2.4998 0.9739
-6.0881 0.4911 -2.4998 0.9739
-6.1019 0.2718 -2.4998 0.9739
-6.1077 0.0521 -2.4998 0.9739
-6.1056 -0.1677 -2.4998 0.9739
-6.0956 -0.3872 -2.4998 0.9739
-6.0521 -0.8245 -2.4998 0.9739
-5.9772 -1.2576 -2.4999 0.9739
-5.9281 -1.4718 -2.4999 0.9739
-5.8070 -1.8942 -2.4999 0.9739
-5.6559 -2.3069 -2.5000 0.9739
-5.2668 -3.0945 -2.5001 0.9739
-4.9030 -3.6441 -2.5002 0.9739
-4.7688 -3.8182 -2.5003 0.9739
-4.3299 -4.3099 -2.5004 0.9739
-3.6666 -4.8868 -2.5006 0.9739
-3.4891 -5.0157 -2.5007 0.9739
-3.3065 -5.1381 -2.5007 0.9739
-2.7339 -5.4648 -2.5009 0.9739
-2.5356 -5.5598 -2.5010 0.9739
-2.3340 -5.6476 -2.5010 0.9739
-1.7121 -5.8666 -2.5012 0.9739
-1.5000 -5.9246 -2.5013 0.9739
-0.8530 -6.0522 -2.5015 0.9739
-0.6347 -6.0791 -2.5016 0.9739
-0.1960 -6.1093 -2.5017 0.9739
0.2438 -6.1080 -2.5018 0.9739
0.4634 -6.0954 -2.5019 0.9739
0.6824 -6.0750 -2.5020 0.9739
0.9005 -6.0466 -2.5020 0.9739
1.1175 -6.0105 -2.5021 0.9739
1.5468 -5.9149 -2.5022 0.9739
1.7587 -5.8556 -2.5023 0.9739
1.9683 -5.7887 -2.5024 0.9739
2.1753 -5.7143 -2.5024 0.9739
2.3795 -5.6325 -2.5025 0.9739
2.7785 -5.4471 -2.5026 0.9739
3.1631 -5.2335 -2.5027 0.9739
3.3494 -5.1164 -2.5028 0.9739
3.5314 -4.9927 -2.5028 0.9739
3.7088 -4.8625 -2.5029 0.9739
3.8814 -4.7261 -2.5030 0.9739
4.2113 -4.4349 -2.5031 0.9739
4.5195 -4.1208 -2.5032 0.9739
4.8042 -3.7853 -2.5032 0.9739
5.0641 -3.4302 -2.5033 0.9739
5.2978 -3.0573 -2.5034 0.9739
-5.6697 0.8711 -2.5000 0.9753
-5.7177 0.4612 -2.4999 0.9753
-5.7305 0.2552 -2.4999 0.9753
-5.7360 0.0489 -2.4999 0.9753
-5.7247 -0.3637 -2.4999 0.9753
-5.7079 -0.5694 -2.4999 0.9753
-5.6837 -0.7744 -2.5000 0.9753
-5.5673 -1.3822 -2.5000 0.9753
-5.5140 -1.5816 -2.5000 0.9753
-5.4536 -1.7790 -2.5000 0.9753
-5.3861 -1.9740 -2.5001 0.9753
-5.2304 -2.3563 -2.5001 0.9753
-4.9462 -2.9062 -2.5002 0.9753
-4.4785 -3.5857 -2.5003 0.9753
-4.3467 -3.7446 -2.5004 0.9753
-4.2092 -3.8987 -2.5004 0.9753
-3.9182 -4.1914 -2.5005 0.9753
-3.6068 -4.4624 -2.5006 0.9753
-3.2767 -4.7104 -2.5007 0.9753
-3.1052 -4.8254 -2.5008 0.9753
-2.7503 -5.0363 -2.5009 0.9753
-2.5674 -5.1321 -2.5009 0.9753
-2.3812 -5.2213 -2.5010 0.9753
-2.1919 -5.3037 -2.5011 0.9753
-1.9997 -5.3793 -2.5011 0.9753
-1.8049 -5.4479 -2.5012 0.9753
-1.6079 -5.5094 -2.5012 0.9753
-1.4086 -5.5638 -2.5013 0.9753
-0.8011 -5.6836 -2.5015 0.9753
0.0224 -5.7404 -2.5018 0.9753
1.0494 -5.6444 -2.5021 0.9753
1.4526 -5.5546 -2.5022 0.9753
1.6515 -5.4989 -2.5023 0.9753
2.0428 -5.3662 -2.5024 0.9753
2.2345 -5.2894 -2.5024 0.9753
2.4234 -5.2057 -2.5025 0.9753
2.6092 -5.1152 -2.5026 0.9753
2.9704 -4.9146 -2.5027 0.9753
3.3162 -4.6885 -2.5028 0.9753
3.4829 -4.5663 -2.5028 0.9753
3.6449 -4.4381 -2.5029 0.9753
3.8022 -4.3042 -2.5029 0.9753
3.9547 -4.1647 -2.5030 0.9753
4.1020 -4.0198 -2.5030 0.9753
4.2441 -3.8697 -2.5031 0.9753
4.6365 -3.3901 -2.5032 0.9752
4.8684 -3.0480 -2.5033 0.9752
4.9750 -2.8710 -2.5033 0.9752
-5.3644 0.6276 -2.5001 0.9765
-5.3835 0.4343 -2.5000 0.9765
-5.4008 0.0461 -2.5000 0.9765
-5.3901 -0.3424 -2.5000 0.9765
-5.1349 -1.6750 -2.5001 0.9765
-4.6572 -2.7363 -2.5003 0.9765
-4.4485 -3.0642 -2.5004 0.9765
-4.3354 -3.2223 -2.5004 0.9765
-3.8287 -3.8110 -2.5005 0.9765
-3.5449 -4.0766 -2.5006 0.9765
-3.0852 -4.4350 -2.5008 0.9765
-2.5897 -4.7420 -2.5009 0.9765
-2.4170 -4.8321 -2.5010 0.9765
-2.0638 -4.9937 -2.5011 0.9765
-1.8828 -5.0648 -2.5012 0.9765
-1.6994 -5.1293 -2.5012 0.9765
-1.5138 -5.1873 -2.5013 0.9765
-1.3263 -5.2385 -2.5013 0.9765
-0.3675 -5.3920 -2.5016 0.9765
-0.1733 -5.4018 -2.5017 0.9765
0.0211 -5.4047 -2.5018 0.9765
0.2155 -5.4005 -2.5018 0.9765
0.4097 -5.3894 -2.5019 0.9765
0.6033 -5.3713 -2.5019 0.9765
0.9880 -5.3143 -2.5021 0.9765
1.3677 -5.2297 -2.5022 0.9765
1.7402 -5.1181 -2.5023 0.9765
1.9233 -5.0523 -2.5023 0.9765
2.1038 -4.9800 -2.5024 0.9765
2.2817 -4.9011 -2.5025 0.9765
2.6283 -4.7246 -2.5026 0.9765
2.9613 -4.5236 -2.5027 0.9765
3.1222 -4.4142 -2.5027 0.9764
3.4316 -4.1784 -2.5028 0.9764
3.5798 -4.0524 -2.5029 0.9764
3.7233 -3.9211 -2.5029 0.9764
3.8620 -3.7846 -2.5029 0.9764
4.1243 -3.4973 -2.5030 0.9764
4.6839 -2.7030 -2.5032 0.9764
-5.0804 0.4098 -2.5001 0.9775
-5.0918 0.2268 -2.5001 0.9775
-5.0967 0.0435 -2.5001 0.9775
-5.0949 -0.1399 -2.5001 0.9775
-5.0866 -0.3231 -2.5001 0.9775
-5.0717 -0.5059 -2.5001 0.9775
-5.0503 -0.6880 -2.5002 0.9775
-5.0223 -0.8693 -2.5002 0.9775
-4.9878 -1.0494 -2.5002 0.9775
-4.9468 -1.2281 -2.5002 0.9775
-4.8458 -1.5807 -2.5002 0.9775
-4.7858 -1.7540 -2.5002 0.9775
-4.2992 -2.7387 -2.5004 0.9775
-4.1979 -2.8916 -2.5004 0.9775
-4.0913 -3.0408 -2.5005 0.9775
-3.7400 -3.4640 -2.5006 0.9775
-3.6130 -3.5964 -2.5006 0.9775
-3.4814 -3.7241 -2.5007 0.9775
-3.3452 -3.8470 -2.5007 0.9775
-3.0600 -4.0777 -2.5008 0.9775
-2.9114 -4.1853 -2.5008 0.9775
-2.7590 -4.2873 -2.5009 0.9775
-2.6031 -4.3839 -2.5009 0.9775
-2.2812 -4.5599 -2.5010 0.9775
-2.1157 -4.6391 -2.5011 0.9775
-1.9463 -4.7123 -2.5011 0.9775
-1.6037 -4.8404 -2.5012 0.9775
-0.8929 -5.0208 -2.5015 0.9775
-0.7117 -5.0498 -2.5015 0.9775
-0.5296 -5.0723 -2.5016 0.9775
-0.1636 -5.0974 -2.5017 0.9775
0.5693 -5.0687 -2.5019 0.9775
0.9323 -5.0148 -2.5020 0.9775
1.1122 -4.9782 -2.5021 0.9775
1.6421 -4.8296 -2.5023 0.9775
1.8149 -4.7676 -2.5023 0.9775
2.1532 -4.6249 -2.5024 0.9775
2.3181 -4.5446 -2.5025 0.9775
2.4801 -4.4584 -2.5025 0.9775
2.6390 -4.3663 -2.5026 0.9775
2.9462 -4.1654 -2.5027 0.9775
3.0942 -4.0568 -2.5027 0.9775
3.2382 -3.9429 -2.5028 0.9775
3.5135 -3.7000 -2.5028 0.9775
3.6443 -3.5713 -2.5029 0.9775
3.7705 -3.4379 -2.5029 0.9775
4.0081 -3.1580 -2.5030 0.9775
4.3251 -2.7079 -2.5031 0.9775
4.4198 -2.5506 -2.5031 0.9775
-4.7635 0.7319 -2.5002 0.9785
-4.8193 0.0411 -2.5002 0.9785
-4.8176 -0.1323 -2.5002 0.9785
-4.8097 -0.3055 -2.5002 0.9785
-4.7754 -0.6506 -2.5002 0.9785
-4.6775 -1.1613 -2.5003 0.9785
-4.6327 -1.3288 -2.5003 0.9785
-4.5820 -1.4947 -2.5003 0.9785
-4.4627 -1.8203 -2.5003 0.9785
-4.3204 -2.1365 -2.5004 0.9785
-4.1557 -2.4416 -2.5004 0.9785
-4.0652 -2.5896 -2.5005 0.9785
-3.8685 -2.8752 -2.5005 0.9785
-3.7626 -3.0126 -2.5006 0.9785
-3.4163 -3.4006 -2.5007 0.9785
-3.2918 -3.5214 -2.5007 0.9785
-3.1631 -3.6375 -2.5008 0.9785
-2.8934 -3.8557 -2.5008 0.9785
-2.7529 -3.9574 -2.5009 0.9785
-2.6088 -4.0539 -2.5009 0.9785
-2.3106 -4.2312 -2.5010 0.9785
-1.5164 -4.5768 -2.5013 0.9785
-1.3508 -4.6285 -2.5013 0.9785
-1.1834 -4.6742 -2.5014 0.9785
-1.0147 -4.7138 -2.5014 0.9785
-0.8443 -4.7474 -2.5015 0.9785
-0.6729 -4.7748 -2.5015 0.9785
-0.1546 -4.8198 -2.5017 0.9785
0.0188 -4.8224 -2.5018 0.9785
0.5383 -4.7926 -2.5019 0.9785
1.2203 -4.6662 -2.5021 0.9785
1.5527 -4.5666 -2.5022 0.9785
1.7160 -4.5078 -2.5023 0.9785
1.8771 -4.4433 -2.5023 0.9785
2.4952 -4.1284 -2.5025 0.9785
2.9256 -3.8358 -2.5027 0.9785
3.0618 -3.7281 -2.5027 0.9785
3.1939 -3.6156 -2.5027 0.9785
3.3220 -3.4984 -2.5028 0.9785
3.4458 -3.3767 -2.5028 0.9785
3.5651 -3.2506 -2.5029 0.9785
3.9946 -2.7058 -2.5030 0.9785
-4.5121 0.6933 -2.5003 0.9794
-4.5341 0.5305 -2.5003 0.9794
-4.5559 -0.2894 -2.5003 0.9794
-4.4673 -0.9399 -2.5003 0.9794
-4.4306 -1.1000 -2.5003 0.9794
-4.3882 -1.2587 -2.5004 0.9794
-4.3401 -1.4157 -2.5004 0.9794
-4.2272 -1.7242 -2.5004 0.9794
-4.1624 -1.8751 -2.5004 0.9794
-4.0923 -2.0237 -2.5005 0.9794
-4.0169 -2.1696 -2.5005 0.9794
-3.9363 -2.3128 -2.5005 0.9794
-3.8506 -2.4529 -2.5005 0.9794
-3.7599 -2.5898 -2.5006 0.9794
-3.4591 -2.9800 -2.5007 0.9794
-3.2360 -3.2211 -2.5007 0.9794
-3.1181 -3.3354 -2.5008 0.9794
-2.9961 -3.4455 -2.5008 0.9794
-2.8702 -3.5512 -2.5008 0.9794
-2.7407 -3.6521 -2.5009 0.9794
-2.6076 -3.7484 -2.5009 0.9794
-2.4711 -3.8399 -2.5010 0.9794
-2.3314 -3.9264 -2.5010 0.9794
-2.1887 -4.0078 -2.5011 0.9794
-1.8949 -4.1549 -2.5012 0.9794
-1.4363 -4.3352 -2.5013 0.9794
-1.2795 -4.3841 -2.5013 0.9794
-1.1209 -4.4274 -2.5014 0.9794
-0.1465 -4.5653 -2.5017 0.9794
0.1821 -4.5642 -2.5018 0.9794
0.3462 -4.5548 -2.5019 0.9794
0.5099 -4.5395 -2.5019 0.9794
0.6729 -4.5182 -2.5020 0.9794
0.9961 -4.4584 -2.5021 0.9794
1.3141 -4.3754 -2.5022 0.9794
1.4707 -4.3254 -2.5022 0.9794
1.6254 -4.2697 -2.5023 0.9794
1.9282 -4.1420 -2.5023 0.9794
2.0760 -4.0700 -2.5024 0.9794
2.5026 -3.8229 -2.5025 0.9794
3.0252 -3.4246 -2.5027 0.9794
3.6889 -2.6972 -2.5029 0.9794
3.7836 -2.5628 -2.5029 0.9794
3.9582 -2.2842 -2.5030 0.9794
-4.2806 0.6577 -2.5004 0.9802
-4.3265 0.1927 -2.5004 0.9802
-4.3306 0.0369 -2.5004 0.9802
-4.3221 -0.2746 -2.5004 0.9802
-4.2912 -0.5846 -2.5004 0.9802
-4.2381 -0.8917 -2.5004 0.9802
-4.2032 -1.0436 -2.5004 0.9802
-4.0664 -1.4904 -2.5005 0.9802
-4.0102 -1.6357 -2.5005 0.9802
-3.8107 -2.0583 -2.5005 0.9802
-3.3811 -2.7071 -2.5007 0.9802
-3.2816 -2.8270 -2.5007 0.9802
-3.0699 -3.0557 -2.5008 0.9802
-2.8423 -3.2687 -2.5009 0.9802
-2.7229 -3.3688 -2.5009 0.9802
-2.6000 -3.4647 -2.5009 0.9802
-2.4737 -3.5560 -2.5010 0.9802
-2.2117 -3.7248 -2.5011 0.9802
-2.0763 -3.8020 -2.5011 0.9802
-1.7976 -3.9416 -2.5012 0.9802
-1.6547 -4.0038 -2.5012 0.9802
-1.3625 -4.1126 -2.5013 0.9802
-1.2137 -4.1590 -2.5014 0.9802
-1.0634 -4.2001 -2.5014 0.9802
-0.6047 -4.2904 -2.5016 0.9802
0.0169 -4.3331 -2.5017 0.9802
0.1728 -4.3298 -2.5018 0.9802
0.3285 -4.3209 -2.5018 0.9802
0.4837 -4.3063 -2.5019 0.9802
0.6383 -4.2862 -2.5019 0.9802
0.7921 -4.2606 -2.5020 0.9802
0.9449 -4.2294 -2.5020 0.9802
1.3952 -4.1032 -2.5022 0.9802
1.8292 -3.9292 -2.5023 0.9802
1.9694 -3.8609 -2.5024 0.9802
2.3740 -3.6265 -2.5025 0.9802
2.5030 -3.5388 -2.5025 0.9802
2.6287 -3.4465 -2.5026 0.9802
2.7510 -3.3498 -2.5026 0.9802
2.8698 -3.2487 -2.5026 0.9802
2.9849 -3.1434 -2.5027 0.9802
3.0961 -3.0340 -2.5027 0.9802
3.2033 -2.9207 -2.5027 0.9802
3.3063 -2.8036 -2.5028 0.9802
3.6744 -2.3005 -2.5029 0.9802
3.7548 -2.1668 -2.5029 0.9802
