ply
format ascii 1.0
element vertex 1079
property float32 x
property float32 y
property float32 z
property float32 I
end_header
14.1295 -37.6470 7.0903 0.8493
19.6657 -32.8388 6.7492 0.8560
22.7283 -32.3961 6.9779 0.8515
22.3541 -27.4187 6.2378 0.8662
26.5784 -28.1775 6.8300 0.8544
28.6762 -28.2827 7.1019 0.8491
28.3055 -25.9694 6.7734 0.8555
30.5506 -26.0621 7.0807 0.8495
32.8557 -26.0393 7.3922 0.8434
35.3765 -26.0145 7.7428 0.8366
21.9895 -7.9080 4.1205 0.9095
21.9724 -7.0171 4.0671 0.9106
22.0141 -6.1641 4.0310 0.9113
23.4671 14.6279 4.8759 0.8938
18.5559 14.5721 4.1602 0.9086
17.3035 14.6285 3.9953 0.9121
15.9936 14.5429 3.8116 0.9159
14.8642 14.5300 3.6652 0.9190
11.9268 14.4966 3.3101 0.9266
11.0666 14.4868 3.2145 0.9286
8.7474 14.4604 2.9800 0.9337
8.0447 14.4524 2.9165 0.9350
6.4173 15.1949 2.9084 0.9352
6.3767 18.7760 3.4964 0.9226
19.9844 -39.6003 6.7953 0.8357
21.8010 -39.5796 6.9223 0.8329
22.5691 -37.6871 6.7295 0.8371
22.4941 -32.0622 6.0000 0.8534
22.6496 -27.7811 5.4911 0.8650
30.5717 -32.4110 6.8255 0.8350
31.0022 -30.5768 6.6707 0.8384
32.9624 -30.2420 6.8529 0.8344
35.5884 -28.2051 6.9565 0.8321
22.0647 -12.8024 3.9080 0.9019
23.4671 14.6279 4.2363 0.8941
21.5311 14.5259 3.9789 0.9002
20.0252 14.5888 3.7955 0.9046
17.1228 14.4757 3.4349 0.9133
12.9944 12.7023 2.7838 0.9291
11.9268 14.4966 2.8758 0.9268
11.0666 14.4868 2.7928 0.9289
10.2537 14.4776 2.7178 0.9307
9.4823 14.4688 2.6501 0.9324
8.7474 14.4604 2.5890 0.9339
7.3705 14.4448 2.4843 0.9365
4.7760 10.2588 1.7336 0.9552
6.3766 18.7756 3.0377 0.9229
6.3493 21.1771 3.3869 0.9144
22.4852 -40.8218 6.0689 0.8286
22.5827 -29.8367 4.8728 0.8599
23.4671 14.6279 3.6010 0.8945
17.4332 12.7005 2.8087 0.9167
12.2497 12.8713 2.3139 0.9308
12.4552 14.0711 2.4471 0.9270
10.2537 14.4776 2.3102 0.9309
9.4823 14.4688 2.2527 0.9326
8.0447 14.4524 2.1539 0.9355
7.3705 14.4448 2.1117 0.9367
6.4171 15.1944 2.1478 0.9356
6.3986 16.8204 2.3435 0.9300
6.3764 18.7752 2.5821 0.9231
22.6629 -37.8441 4.7367 0.8374
22.7887 -32.4821 4.2608 0.8525
22.6029 -27.7239 3.8411 0.8660
22.6851 -25.8595 3.6939 0.8708
22.1362 -16.2781 2.9505 0.8954
44.3386 10.4965 4.8927 0.8325
44.0694 12.1283 4.9082 0.8320
43.8820 21.1480 5.2308 0.8220
43.8269 23.1067 5.3202 0.8193
23.4671 14.6279 2.9694 0.8947
17.9260 12.0938 2.3220 0.9167
16.5054 12.0246 2.1928 0.9211
14.2558 12.0520 2.0046 0.9277
13.2415 12.0404 1.9218 0.9305
11.4122 11.9913 1.7776 0.9356
11.5475 13.0457 1.8708 0.9323
11.7043 14.2261 1.9782 0.9286
11.0666 14.4868 1.9576 0.9293
8.0447 14.4524 1.7762 0.9356
7.3705 14.4448 1.7414 0.9368
6.4169 15.1941 1.7711 0.9358
6.3985 16.8201 1.9324 0.9302
22.7028 -37.9106 3.7407 0.8375
44.0690 12.1282 3.8693 0.8324
44.0373 15.6158 3.9553 0.8290
43.9868 17.4098 4.0047 0.8270
43.9350 19.2514 4.0606 0.8248
43.8265 23.1065 4.1941 0.8196
23.4672 14.6279 2.3409 0.8949
11.3884 11.9663 1.3984 0.9358
11.0402 12.4725 1.4100 0.9353
11.0090 13.3811 1.4668 0.9328
11.0074 14.4093 1.5350 0.9298
10.2537 14.4776 1.5018 0.9313
9.4823 14.4688 1.4644 0.9329
6.4168 15.1938 1.3962 0.9359
6.3791 16.7693 1.5188 0.9305
45.0684 8.9647 2.8495 0.8318
44.3379 10.4964 2.8254 0.8331
44.0687 12.1281 2.8343 0.8326
44.0359 13.8474 2.8625 0.8311
44.0369 15.6157 2.8974 0.8292
19.3424 12.0568 1.4134 0.9127
15.8710 12.4636 1.2514 0.9223
13.7724 14.4712 1.2388 0.9231
11.9268 14.4966 1.1641 0.9275
11.0666 14.4868 1.1305 0.9295
9.4823 14.4688 1.0727 0.9330
8.0843 14.5236 1.0307 0.9356
6.4167 15.1936 1.0227 0.9360
6.4632 16.9903 1.1272 0.9297
6.3760 18.7740 1.2295 0.9236
21.9945 -25.0723 1.3151 0.8750
44.3377 10.4963 1.7966 0.8333
44.0684 12.1281 1.8023 0.8328
44.0356 13.8473 1.8202 0.8313
43.9343 19.2512 1.8914 0.8253
43.8259 23.1062 1.9536 0.8201
23.4672 14.6279 1.0904 0.8952
14.8037 12.5152 0.7644 0.9253
13.8248 14.5263 0.7907 0.9229
11.1872 12.6387 0.6655 0.9347
10.2537 14.4776 0.6995 0.9314
9.4823 14.4688 0.6821 0.9331
8.0843 14.5236 0.6554 0.9356
7.3705 14.4447 0.6394 0.9371
4.7739 10.2543 0.4460 0.9557
6.4166 15.1933 0.6503 0.9361
23.0174 -24.4021 0.5666 0.8744
45.0679 8.9646 0.7762 0.8321
44.0681 12.1280 0.7721 0.8329
43.9858 17.4094 0.7991 0.8276
43.8806 21.1473 0.8228 0.8229
43.8255 23.1060 0.8369 0.8202
21.5311 14.5259 0.4387 0.9013
20.0252 14.5888 0.4185 0.9056
18.5559 14.5721 0.3985 0.9099
11.1867 12.6381 0.2851 0.9347
11.9268 14.4966 0.3171 0.9277
11.0666 14.4868 0.3079 0.9297
10.2537 14.4776 0.2997 0.9315
9.4823 14.4688 0.2922 0.9331
8.7905 14.5316 0.2869 0.9343
8.0844 14.5236 0.2808 0.9357
7.3705 14.4448 0.2739 0.9372
7.5897 -22.6788 -0.1346 0.9088
8.5076 -22.6679 -0.1363 0.9077
9.4551 -22.6692 -0.1383 0.9064
10.4253 -22.6566 -0.1404 0.9051
11.4271 -22.6436 -0.1428 0.9035
13.5437 -22.6162 -0.1484 0.8999
15.8515 -22.5942 -0.1554 0.8955
17.0900 -22.5797 -0.1594 0.8929
18.3964 -22.5645 -0.1639 0.8901
45.0676 8.9646 -0.2587 0.8321
44.3371 10.4962 -0.2565 0.8334
44.0360 15.6154 -0.2631 0.8295
43.8803 21.1471 -0.2742 0.8230
18.5559 14.5721 -0.1328 0.9099
14.8069 12.5179 -0.1092 0.9254
11.9268 14.4966 -0.1057 0.9277
11.0666 14.4868 -0.1026 0.9297
7.9999 14.3719 -0.0926 0.9363
6.4164 15.1928 -0.0929 0.9362
6.3756 18.7729 -0.1116 0.9238
8.5077 -22.6680 -0.6818 0.9077
11.4273 -22.6440 -0.7142 0.9035
12.4652 -22.6305 -0.7275 0.9018
14.6734 -22.6089 -0.7589 0.8978
15.8522 -22.5952 -0.7772 0.8954
17.0908 -22.5808 -0.7974 0.8929
19.7867 -22.5556 -0.8449 0.8869
24.5226 -22.4987 -0.9371 0.8753
49.7404 -4.6137 -1.4066 0.8188
44.3368 10.4961 -1.2829 0.8333
44.0675 12.1278 -1.2870 0.8329
44.0346 13.8470 -1.2998 0.8313
44.0357 15.6153 -1.3156 0.8295
43.7656 21.0918 -1.3680 0.8233
41.9914 22.1389 -1.3367 0.8270
39.0831 22.4448 -1.2691 0.8350
21.6517 14.6073 -0.7354 0.9008
18.5559 14.5721 -0.6644 0.9099
11.9268 14.4966 -0.5286 0.9276
10.2537 14.4776 -0.4995 0.9315
9.4823 14.4688 -0.4871 0.9331
8.7474 14.4604 -0.4759 0.9346
8.0447 14.4524 -0.4657 0.9360
7.3705 14.4448 -0.4566 0.9372
4.7726 10.2516 -0.3184 0.9558
6.4163 15.1925 -0.4644 0.9361
6.3978 16.8182 -0.5067 0.9305
6.3755 18.7725 -0.5582 0.9237
6.3482 21.1731 -0.6224 0.9153
7.5898 -22.6791 -1.2128 0.9087
8.5078 -22.6682 -1.2279 0.9076
9.4554 -22.6699 -1.2457 0.9063
10.4256 -22.6573 -1.2649 0.9049
14.6740 -22.6100 -1.3670 0.8977
18.3982 -22.5666 -1.4766 0.8899
19.7867 -22.5556 -1.5217 0.8868
21.2589 -22.5379 -1.5712 0.8833
22.8324 -22.5190 -1.6264 0.8795
27.1721 -23.1798 -1.8113 0.8667
29.2036 -23.1448 -1.8898 0.8614
39.9367 -29.3679 -2.5140 0.8199
33.9134 -23.1000 -2.0810 0.8485
45.0395 -18.0589 -2.4609 0.8234
46.6854 -16.7894 -2.5161 0.8198
47.7814 -13.3792 -2.5164 0.8198
49.5506 -2.7969 -2.5169 0.8197
49.6195 -1.0065 -2.5169 0.8197
49.5625 2.5760 -2.5169 0.8197
49.4363 4.3634 -2.5169 0.8197
46.0055 7.4359 -2.3634 0.8297
42.3942 13.3311 -2.2538 0.8369
37.5014 16.4323 -2.0764 0.8488
35.5432 17.1292 -2.0009 0.8538
23.4672 14.6279 -1.4024 0.8952
17.0122 12.3938 -1.0674 0.9192
14.2002 12.9121 -0.9734 0.9260
11.1851 12.6363 -0.8558 0.9346
9.4823 14.4688 -0.8773 0.9331
8.7474 14.4604 -0.8571 0.9346
8.0447 14.4524 -0.8388 0.9359
4.7722 10.2507 -0.5734 0.9557
6.4162 15.1923 -0.8364 0.9361
8.5078 -22.6683 -1.7753 0.9075
11.4277 -22.6447 -1.8598 0.9033
12.4656 -22.6313 -1.8944 0.9016
13.5444 -22.6174 -1.9330 0.8997
14.6747 -22.6110 -1.9764 0.8975
15.8537 -22.5973 -2.0240 0.8952
17.0924 -22.5829 -2.0766 0.8926
18.3991 -22.5677 -2.1350 0.8898
15.5476 -15.3342 -1.6012 0.9161
24.4989 -20.8994 -2.3611 0.8788
25.2513 -20.0125 -2.3624 0.8788
25.9386 -19.0743 -2.3607 0.8789
28.9773 -18.2424 -2.5106 0.8717
29.6193 -17.1858 -2.5108 0.8717
30.2225 -16.1066 -2.5110 0.8717
31.3099 -13.8860 -2.5114 0.8716
31.7926 -12.7475 -2.5115 0.8716
32.2337 -11.5922 -2.5116 0.8716
32.6327 -10.4215 -2.5118 0.8716
32.9890 -9.2372 -2.5119 0.8716
33.5700 -6.8358 -2.5120 0.8716
34.2038 -1.9307 -2.5119 0.8716
34.2511 -0.6947 -2.5119 0.8716
34.2160 3.0200 -2.5185 0.8713
33.8841 6.7400 -2.5331 0.8706
33.6858 7.9746 -2.5382 0.8704
33.4437 9.2040 -2.5433 0.8701
32.8760 10.3380 -2.5269 0.8709
30.7433 12.1680 -2.4243 0.8758
29.5985 12.9694 -2.3694 0.8784
26.0094 13.7128 -2.1559 0.8888
24.8629 14.2783 -2.1022 0.8914
17.5274 11.8248 -1.5503 0.9187
16.5863 12.0835 -1.5047 0.9210
15.4301 12.1173 -1.4385 0.9243
12.3115 12.0348 -1.2624 0.9333
11.5865 12.1744 -1.2323 0.9348
10.9090 12.3243 -1.2068 0.9361
10.8644 13.2053 -1.2538 0.9337
9.4823 14.4688 -1.2684 0.9330
8.0447 14.4524 -1.2128 0.9358
7.3705 14.4448 -1.1890 0.9370
6.4161 15.1920 -1.2092 0.9360
6.3752 18.7717 -1.4536 0.9236
6.3479 21.1722 -1.6207 0.9152
6.6930 -22.6901 -2.2711 0.9093
12.6140 -21.0637 -2.3571 0.9061
13.3663 -20.5949 -2.3571 0.9061
15.5102 -19.0243 -2.3565 0.9061
16.8384 -17.8514 -2.3559 0.9061
15.4545 -15.2423 -2.0839 0.9165
18.0774 -16.5854 -2.3553 0.9061
18.6626 -15.9207 -2.3551 0.9061
20.3906 -13.8891 -2.3686 0.9056
21.9346 -13.8088 -2.4884 0.9011
23.4915 -11.4505 -2.5090 0.9003
24.5946 -8.8449 -2.5093 0.9003
24.8986 -7.9516 -2.5093 0.9003
25.1701 -7.0479 -2.5094 0.9003
25.4086 -6.1348 -2.5094 0.9003
25.8090 -4.2896 -2.5118 0.9002
25.9783 -3.3593 -2.5148 0.9001
26.1152 -2.4223 -2.5180 0.9000
26.2194 -1.4800 -2.5212 0.8998
26.2905 -0.5333 -2.5245 0.8997
26.3283 0.4166 -2.5280 0.8996
26.3327 1.3686 -2.5315 0.8995
26.0136 5.1744 -2.5464 0.8989
25.6514 7.0595 -2.5542 0.8986
22.5036 9.8606 -2.3588 0.9060
19.6243 11.2699 -2.1726 0.9131
18.0513 11.2520 -2.0421 0.9181
17.0369 11.4939 -1.9730 0.9207
14.6266 11.4864 -1.7855 0.9280
10.8748 12.2857 -1.5752 0.9362
10.8643 13.2052 -1.6417 0.9336
10.8529 14.2070 -1.7164 0.9307
8.7905 14.5316 -1.6305 0.9340
7.3705 14.4448 -1.5569 0.9369
6.4159 15.1917 -1.5832 0.9359
6.3751 18.7713 -1.9032 0.9234
6.3477 21.1717 -2.1220 0.9150
5.6047 -19.0006 -2.3531 0.9233
6.2870 -18.7862 -2.3532 0.9233
7.6261 -18.2838 -2.3532 0.9233
8.9250 -17.6854 -2.3531 0.9233
9.5573 -17.3512 -2.3531 0.9233
10.1770 -16.9943 -2.3530 0.9233
11.3760 -16.2149 -2.3529 0.9233
13.0651 -14.8934 -2.3534 0.9233
15.3177 -14.0535 -2.4693 0.9197
17.4439 -11.8818 -2.5071 0.9185
17.8622 -11.2450 -2.5072 0.9185
18.2574 -10.5934 -2.5073 0.9185
18.6287 -9.9279 -2.5075 0.9185
18.9758 -9.2494 -2.5076 0.9185
19.2980 -8.5587 -2.5077 0.9185
19.5951 -7.8568 -2.5078 0.9185
20.5241 -4.9555 -2.5080 0.9185
20.6900 -4.2115 -2.5081 0.9185
20.8289 -3.4619 -2.5081 0.9185
21.0249 -1.9502 -2.5082 0.9185
21.1110 -0.4282 -2.5082 0.9185
21.1127 0.3341 -2.5082 0.9185
21.0868 1.0960 -2.5082 0.9185
20.5459 4.8639 -2.5080 0.9185
20.1404 6.3332 -2.5079 0.9185
19.8981 7.0559 -2.5078 0.9185
19.6298 7.7693 -2.5077 0.9185
19.3358 8.4725 -2.5076 0.9185
19.0167 9.1646 -2.5075 0.9185
17.1892 9.8715 -2.3546 0.9233
16.8209 10.4850 -2.3545 0.9233
16.1943 10.9254 -2.3205 0.9243
12.3025 11.1866 -1.9752 0.9352
10.8912 11.4438 -1.8766 0.9383
10.8747 12.2856 -1.9489 0.9360
10.8642 13.2050 -2.0312 0.9334
10.8528 14.2069 -2.1236 0.9305
10.2537 14.4776 -2.1074 0.9310
9.4823 14.4688 -2.0549 0.9327
8.6987 14.3799 -1.9963 0.9345
7.9999 14.3719 -1.9538 0.9359
4.7710 10.2479 -1.3428 0.9555
6.4158 15.1915 -1.9589 0.9357
6.3973 16.8169 -2.1373 0.9301
5.9482 17.5144 -2.1972 0.9282
6.3882 -15.3161 -2.3513 0.9352
8.0082 -14.5388 -2.3518 0.9351
8.5758 -14.3204 -2.3651 0.9348
9.2708 -14.2845 -2.4128 0.9335
9.9962 -14.2482 -2.4661 0.9321
11.1725 -13.7037 -2.5052 0.9311
11.6605 -13.2922 -2.5053 0.9311
12.1334 -12.8634 -2.5055 0.9311
12.5906 -12.4177 -2.5056 0.9310
13.0313 -11.9558 -2.5058 0.9310
13.4550 -11.4782 -2.5059 0.9310
14.6191 -9.9578 -2.5062 0.9310
14.9696 -9.4240 -2.5063 0.9310
15.9025 -7.7513 -2.5066 0.9310
16.1724 -7.1725 -2.5067 0.9310
16.4213 -6.5842 -2.5068 0.9310
16.8544 -5.3826 -2.5069 0.9310
17.1995 -4.1528 -2.5070 0.9310
17.4548 -2.9012 -2.5071 0.9310
17.5484 -2.2692 -2.5071 0.9310
17.6190 -1.6343 -2.5071 0.9310
17.6666 -0.9972 -2.5072 0.9310
17.6708 0.9184 -2.5071 0.9310
17.6261 1.5557 -2.5071 0.9310
17.4675 2.8233 -2.5071 0.9310
16.2041 7.1003 -2.5067 0.9310
15.9367 7.6803 -2.5066 0.9310
15.6485 8.2503 -2.5065 0.9310
14.9864 9.3415 -2.5022 0.9311
13.8283 9.3292 -2.3635 0.9348
13.4250 9.7804 -2.3534 0.9351
13.0626 10.2581 -2.3533 0.9351
12.6832 10.7224 -2.3532 0.9351
11.9623 10.8773 -2.2909 0.9368
11.2450 10.9923 -2.2281 0.9384
10.2843 11.6186 -2.1985 0.9392
7.5437 13.5523 -2.1977 0.9393
4.7533 10.2099 -1.5957 0.9555
6.0332 14.2854 -2.1972 0.9393
5.5132 14.4929 -2.1970 0.9393
4.9861 14.6813 -2.1969 0.9393
5.8501 -14.0260 -2.5036 0.9403
6.3530 -13.8065 -2.5037 0.9402
6.8477 -13.5690 -2.5039 0.9402
7.8097 -13.0411 -2.5042 0.9402
8.2758 -12.7514 -2.5043 0.9402
9.6073 -11.7840 -2.5047 0.9402
10.4336 -11.0612 -2.5050 0.9402
11.9190 -9.4462 -2.5054 0.9402
12.2527 -9.0102 -2.5055 0.9402
12.5704 -8.5624 -2.5056 0.9402
12.8716 -8.1034 -2.5057 0.9402
13.1562 -7.6337 -2.5058 0.9402
13.4238 -7.1540 -2.5059 0.9402
13.9058 -6.1672 -2.5060 0.9402
14.1197 -5.6614 -2.5061 0.9402
14.3152 -5.1482 -2.5061 0.9402
14.6500 -4.1021 -2.5062 0.9402
14.7886 -3.5707 -2.5063 0.9402
15.0081 -2.4945 -2.5063 0.9402
15.1492 -1.4052 -2.5064 0.9402
15.2112 -0.3086 -2.5064 0.9402
15.2124 0.2407 -2.5064 0.9402
15.1938 0.7897 -2.5064 0.9402
15.1553 1.3376 -2.5064 0.9402
15.0970 1.8838 -2.5064 0.9402
15.0190 2.4275 -2.5063 0.9402
14.5124 4.5635 -2.5062 0.9402
13.7032 6.6039 -2.5059 0.9402
12.2926 8.9554 -2.5055 0.9402
11.7544 9.2308 -2.4621 0.9412
10.9188 9.2303 -2.3553 0.9437
10.5657 9.6073 -2.3526 0.9438
10.2115 9.9819 -2.3524 0.9438
6.9041 11.4133 -2.1975 0.9474
6.4873 11.6544 -2.1973 0.9474
4.7137 10.1249 -1.8399 0.9557
5.1884 12.2852 -2.1969 0.9474
4.7413 12.4637 -2.1968 0.9474
3.5563 11.8615 -2.0400 0.9510
6.0010 -11.8914 -2.5036 0.9472
6.8440 -11.4286 -2.5039 0.9472
7.2525 -11.1746 -2.5040 0.9472
8.0406 -10.6233 -2.5042 0.9472
8.4192 -10.3266 -2.5043 0.9472
8.7869 -10.0164 -2.5044 0.9472
9.1431 -9.6932 -2.5046 0.9472
9.4874 -9.3572 -2.5047 0.9472
9.8194 -9.0090 -2.5048 0.9472
10.1386 -8.6490 -2.5049 0.9472
10.4446 -8.2777 -2.5050 0.9472
10.7370 -7.8955 -2.5050 0.9472
11.2793 -7.1008 -2.5052 0.9472
11.5287 -6.6892 -2.5053 0.9472
12.1852 -5.4042 -2.5055 0.9472
12.3726 -4.9609 -2.5055 0.9472
12.6988 -4.0555 -2.5056 0.9472
12.9587 -3.1288 -2.5057 0.9472
13.0633 -2.6591 -2.5057 0.9472
13.2214 -1.7096 -2.5058 0.9472
13.2746 -1.2313 -2.5058 0.9472
13.3289 -0.2704 -2.5058 0.9472
13.3136 0.6920 -2.5058 0.9472
13.2288 1.6507 -2.5058 0.9472
13.1605 2.1271 -2.5058 0.9472
13.0750 2.6008 -2.5057 0.9472
12.8529 3.5372 -2.5057 0.9472
12.7167 3.9988 -2.5056 0.9472
12.2091 5.3497 -2.5055 0.9472
11.7907 6.2163 -2.5053 0.9472
10.7719 7.8475 -2.5050 0.9472
10.4813 8.2310 -2.5049 0.9472
3.8629 3.5125 -0.9814 0.9790
3.7192 3.6356 -0.9776 0.9791
8.2933 9.3693 -2.3519 0.9503
6.4748 10.7035 -2.3513 0.9504
6.0839 10.9297 -2.3512 0.9504
5.6851 11.1416 -2.3511 0.9504
4.6982 10.0916 -2.0923 0.9557
4.7246 11.1869 -2.2825 0.9518
4.2535 11.1815 -2.2486 0.9525
3.2886 10.9684 -2.1523 0.9545
3.7578 -11.2287 -2.5029 0.9527
4.1609 -11.0863 -2.5030 0.9527
4.9503 -10.7582 -2.5033 0.9527
6.4483 -9.9356 -2.5037 0.9527
6.8031 -9.6968 -2.5038 0.9527
7.1489 -9.4453 -2.5039 0.9527
7.8124 -8.9057 -2.5041 0.9527
8.4352 -8.3194 -2.5043 0.9527
8.7304 -8.0098 -2.5044 0.9527
9.0141 -7.6897 -2.5045 0.9527
9.2861 -7.3596 -2.5046 0.9527
9.5460 -7.0197 -2.5047 0.9527
10.2498 -5.9472 -2.5049 0.9527
10.6527 -5.1924 -2.5050 0.9527
10.8334 -4.8046 -2.5051 0.9527
11.1522 -4.0107 -2.5052 0.9527
11.2899 -3.6055 -2.5052 0.9527
11.4129 -3.1957 -2.5052 0.9527
11.6140 -2.3641 -2.5053 0.9527
11.6919 -1.9433 -2.5053 0.9527
11.7545 -1.5200 -2.5053 0.9527
11.8510 0.1875 -2.5054 0.9527
11.8065 1.0421 -2.5054 0.9527
11.7611 1.4675 -2.5053 0.9527
11.7004 1.8911 -2.5053 0.9527
11.1699 3.9609 -2.5052 0.9527
10.8547 4.7563 -2.5051 0.9527
10.6757 5.1449 -2.5050 0.9527
3.9823 2.9012 -1.0415 0.9801
3.7454 2.9413 -1.0066 0.9807
3.3058 3.2315 -0.9772 0.9813
3.2011 3.3635 -0.9815 0.9812
3.0973 3.4991 -0.9878 0.9811
3.0032 3.6503 -0.9992 0.9809
6.9237 9.0636 -2.4109 0.9544
6.4291 9.0774 -2.3513 0.9555
6.0970 9.3032 -2.3512 0.9555
5.7569 9.5168 -2.3511 0.9555
5.4094 9.7180 -2.3510 0.9555
3.9537 10.3933 -2.3505 0.9556
3.0127 -10.2136 -2.5027 0.9572
3.3796 -10.0987 -2.5028 0.9572
3.7421 -9.9705 -2.5029 0.9572
4.4521 -9.6754 -2.5031 0.9572
5.1389 -9.3298 -2.5033 0.9572
7.0258 -8.0090 -2.5039 0.9572
7.3106 -7.7504 -2.5040 0.9572
7.8512 -7.2032 -2.5042 0.9572
8.1064 -6.9154 -2.5042 0.9572
8.3509 -6.6184 -2.5043 0.9572
8.5846 -6.3129 -2.5044 0.9572
8.8072 -5.9990 -2.5044 0.9572
9.0182 -5.6773 -2.5045 0.9572
9.2175 -5.3482 -2.5046 0.9572
9.4047 -5.0121 -2.5046 0.9572
9.5798 -4.6695 -2.5047 0.9572
9.7421 -4.3207 -2.5047 0.9572
9.8921 -3.9663 -2.5048 0.9572
10.0289 -3.6067 -2.5048 0.9572
10.1528 -3.2424 -2.5049 0.9572
10.3605 -2.5015 -2.5049 0.9572
10.5141 -1.7475 -2.5050 0.9572
10.5704 -1.3669 -2.5050 0.9571
10.6416 -0.6007 -2.5050 0.9571
10.6572 0.1687 -2.5050 0.9571
10.6442 0.5532 -2.5050 0.9571
10.5218 1.7006 -2.5050 0.9572
10.4535 2.0793 -2.5049 0.9572
10.3715 2.4553 -2.5049 0.9572
10.2760 2.8280 -2.5049 0.9572
10.1671 3.1971 -2.5048 0.9572
9.9096 3.9221 -2.5048 0.9572
9.7614 4.2772 -2.5047 0.9572
9.4270 4.9701 -2.5046 0.9572
3.9111 2.8493 -1.1373 0.9803
3.0598 2.9910 -1.0056 0.9826
2.9658 3.1163 -1.0111 0.9825
2.8776 3.2510 -1.0204 0.9823
2.7055 3.5416 -1.0474 0.9819
5.8388 8.9094 -2.5035 0.9572
5.4432 8.9982 -2.4716 0.9577
5.0053 8.9919 -2.4187 0.9586
4.5849 8.9854 -2.3708 0.9594
4.2213 9.0672 -2.3506 0.9597
3.8911 9.2132 -2.3505 0.9597
3.5558 9.3473 -2.3504 0.9597
3.2159 9.4691 -2.3503 0.9597
3.0676 -9.1663 -2.5027 0.9608
3.3966 -9.0500 -2.5028 0.9608
3.7212 -8.9218 -2.5029 0.9608
4.3557 -8.6308 -2.5031 0.9608
4.6645 -8.4682 -2.5032 0.9608
4.9672 -8.2947 -2.5033 0.9608
5.2636 -8.1102 -2.5034 0.9608
6.1101 -7.4945 -2.5036 0.9608
7.1260 -6.5379 -2.5039 0.9608
7.7917 -5.7297 -2.5041 0.9608
8.1851 -5.1529 -2.5043 0.9608
8.3660 -4.8542 -2.5043 0.9608
8.6947 -4.2381 -2.5044 0.9608
8.8422 -3.9216 -2.5045 0.9608
9.1024 -3.2735 -2.5045 0.9608
9.2147 -2.9428 -2.5046 0.9608
9.4032 -2.2704 -2.5046 0.9608
9.4792 -1.9295 -2.5046 0.9608
9.5427 -1.5861 -2.5047 0.9608
9.5938 -1.2406 -2.5047 0.9608
9.6583 -0.5452 -2.5047 0.9608
9.6718 -0.1962 -2.5047 0.9608
9.6725 0.1530 -2.5047 0.9608
9.6362 0.8505 -2.5047 0.9608
9.2277 2.9017 -2.5046 0.9608
9.1168 3.2329 -2.5045 0.9608
8.9941 3.5597 -2.5045 0.9608
8.6877 4.1868 -2.4970 0.9609
4.9749 2.8571 -1.4854 0.9766
4.5242 2.8201 -1.3803 0.9782
3.8399 2.7975 -1.2301 0.9806
3.5495 2.7875 -1.1685 0.9815
3.3049 2.7940 -1.1205 0.9823
2.9195 2.8539 -1.0571 0.9833
2.7937 2.9354 -1.0492 0.9834
2.7142 3.0663 -1.0603 0.9832
2.4784 3.4994 -1.1103 0.9824
4.7021 8.4473 -2.5032 0.9608
4.3939 8.6112 -2.5031 0.9608
4.0800 8.7638 -2.5030 0.9608
3.7609 8.9050 -2.5029 0.9608
2.6710 8.9085 -2.4080 0.9623
2.8055 -8.3833 -2.5026 0.9639
3.1065 -8.2769 -2.5027 0.9639
3.4033 -8.1596 -2.5028 0.9639
3.6958 -8.0317 -2.5029 0.9639
4.2659 -7.7447 -2.5031 0.9639
4.8139 -7.4172 -2.5032 0.9639
5.3368 -7.0511 -2.5034 0.9639
5.5880 -6.8540 -2.5035 0.9639
5.8319 -6.6480 -2.5035 0.9639
6.9317 -5.4937 -2.5039 0.9639
7.6507 -4.4392 -2.5041 0.9639
7.9515 -3.8758 -2.5042 0.9639
8.0864 -3.5863 -2.5042 0.9639
8.2107 -3.2922 -2.5043 0.9639
8.3243 -2.9936 -2.5043 0.9639
8.4270 -2.6912 -2.5043 0.9639
8.5187 -2.3853 -2.5044 0.9639
8.5994 -2.0763 -2.5044 0.9639
8.6688 -1.7646 -2.5044 0.9639
8.7736 -1.1345 -2.5044 0.9639
8.8089 -0.8171 -2.5044 0.9639
8.8348 0.4592 -2.5044 0.9639
8.7786 1.0954 -2.5044 0.9639
8.7333 1.4115 -2.5044 0.9639
8.5293 2.3473 -2.5043 0.9639
8.4389 2.6536 -2.5043 0.9639
8.3375 2.9565 -2.5043 0.9639
7.9687 3.8403 -2.5042 0.9639
4.8570 2.7893 -1.5856 0.9770
3.7699 2.7465 -1.3204 0.9808
3.4936 2.7436 -1.2575 0.9817
3.2628 2.7584 -1.2095 0.9824
3.0247 2.7504 -1.1573 0.9831
2.6922 2.8288 -1.1055 0.9839
2.5810 2.9159 -1.1024 0.9839
2.4316 3.1831 -1.1339 0.9835
2.3516 3.3204 -1.1518 0.9832
2.2785 3.4768 -1.1768 0.9829
2.2101 3.6536 -1.2088 0.9824
3.1433 8.2628 -2.5027 0.9639
2.5387 8.4674 -2.5025 0.9639
2.5821 -7.7157 -2.5025 0.9665
3.1323 -7.5098 -2.5027 0.9665
3.4014 -7.3921 -2.5028 0.9665
3.9261 -7.1279 -2.5030 0.9665
5.3674 -6.1185 -2.5034 0.9665
5.5849 -5.9209 -2.5035 0.9665
5.7951 -5.7156 -2.5035 0.9665
5.9978 -5.5028 -2.5036 0.9665
6.1927 -5.2828 -2.5036 0.9665
6.7279 -4.5827 -2.5038 0.9665
7.1843 -3.8288 -2.5039 0.9665
7.4420 -3.3006 -2.5040 0.9665
7.5564 -3.0298 -2.5041 0.9665
7.6610 -2.7551 -2.5041 0.9665
7.7555 -2.4768 -2.5041 0.9665
7.9142 -1.9109 -2.5042 0.9665
7.9780 -1.6239 -2.5042 0.9665
8.0315 -1.3349 -2.5042 0.9665
8.0745 -1.0441 -2.5042 0.9665
8.1069 -0.7520 -2.5042 0.9665
8.1401 -0.1651 -2.5042 0.9665
8.1408 0.1288 -2.5042 0.9665
8.1308 0.4226 -2.5042 0.9665
8.0790 1.0081 -2.5042 0.9665
8.0374 1.2991 -2.5042 0.9665
7.9226 1.8755 -2.5042 0.9665
7.6732 2.7209 -2.5041 0.9665
7.3337 3.5343 -2.5040 0.9665
4.3961 2.7403 -1.5933 0.9786
2.9740 2.7042 -1.2364 0.9833
2.7609 2.6988 -1.1875 0.9840
2.4015 2.9190 -1.1626 0.9843
2.2631 3.1954 -1.2044 0.9837
3.6985 7.2482 -2.5029 0.9665
3.4343 7.3767 -2.5028 0.9665
2.6165 7.7040 -2.5025 0.9665
2.3366 7.7932 -2.5024 0.9665
2.1299 -7.2206 -2.5024 0.9688
2.3892 -7.1392 -2.5025 0.9688
2.6454 -7.0486 -2.5026 0.9688
2.8982 -6.9487 -2.5026 0.9688
3.1473 -6.8398 -2.5027 0.9688
3.6328 -6.5952 -2.5029 0.9688
3.8686 -6.4600 -2.5029 0.9688
4.0994 -6.3163 -2.5030 0.9688
4.3248 -6.1644 -2.5031 0.9688
4.5446 -6.0044 -2.5031 0.9688
4.7585 -5.8366 -2.5032 0.9688
5.1675 -5.4784 -2.5033 0.9688
5.3620 -5.2884 -2.5034 0.9688
6.0675 -4.4621 -2.5036 0.9688
6.2250 -4.2402 -2.5037 0.9688
6.9916 -2.8033 -2.5039 0.9687
7.0883 -2.5492 -2.5039 0.9687
7.1758 -2.2916 -2.5039 0.9687
7.2539 -2.0312 -2.5040 0.9687
7.3225 -1.7680 -2.5040 0.9687
7.4311 -1.2351 -2.5040 0.9687
7.4709 -0.9661 -2.5040 0.9687
7.5009 -0.6958 -2.5040 0.9687
7.5211 -0.4246 -2.5040 0.9687
7.5316 -0.1528 -2.5040 0.9687
7.5322 0.1192 -2.5040 0.9687
7.5229 0.3910 -2.5040 0.9687
7.5039 0.6623 -2.5040 0.9687
7.4365 1.2019 -2.5040 0.9687
7.3303 1.7353 -2.5040 0.9687
7.2628 1.9988 -2.5040 0.9687
7.1859 2.2596 -2.5039 0.9687
7.0995 2.5175 -2.5039 0.9687
6.8992 3.0231 -2.5038 0.9687
4.8348 2.7766 -1.8533 0.9768
4.3781 2.7290 -1.7149 0.9785
3.6467 2.6567 -1.4998 0.9812
2.7182 2.6571 -1.2635 0.9841
2.2443 2.9379 -1.2289 0.9845
2.1664 3.3056 -1.3138 0.9835
2.0827 3.7417 -1.4234 0.9821
3.1777 6.8256 -2.5027 0.9688
2.6768 7.0366 -2.5025 0.9688
2.1620 7.2110 -2.5024 0.9688
2.4589 -6.5517 -2.5025 0.9707
2.6939 -6.4588 -2.5026 0.9707
2.9254 -6.3576 -2.5026 0.9707
3.1530 -6.2480 -2.5027 0.9707
3.3766 -6.1303 -2.5028 0.9707
3.5958 -6.0046 -2.5029 0.9707
3.8103 -5.8710 -2.5029 0.9707
4.6161 -5.2620 -2.5032 0.9707
4.9839 -4.9155 -2.5033 0.9707
5.4864 -4.3482 -2.5034 0.9707
5.9246 -3.7298 -2.5036 0.9707
6.0555 -3.5135 -2.5036 0.9707
6.4985 -2.6056 -2.5037 0.9707
6.5883 -2.3694 -2.5038 0.9707
6.6696 -2.1301 -2.5038 0.9707
6.7422 -1.8879 -2.5038 0.9707
6.8061 -1.6433 -2.5038 0.9707
6.9439 -0.8979 -2.5039 0.9707
6.9718 -0.6467 -2.5039 0.9707
6.9906 -0.3946 -2.5039 0.9707
7.0003 -0.1420 -2.5039 0.9707
7.0009 0.1108 -2.5039 0.9707
6.9254 0.8642 -2.4958 0.9708
6.9120 1.1171 -2.5039 0.9707
6.8133 1.6129 -2.5038 0.9707
6.7506 1.8578 -2.5038 0.9707
6.5988 2.3399 -2.5038 0.9707
6.5100 2.5766 -2.5037 0.9707
6.4127 2.8099 -2.5037 0.9707
6.3070 3.0395 -2.5037 0.9707
3.3332 2.6176 -1.5156 0.9822
3.0833 2.6067 -1.4439 0.9830
2.2208 2.9072 -1.3083 0.9846
2.1816 3.0803 -1.3498 0.9841
2.1435 3.2707 -1.3984 0.9835
2.1031 3.4766 -1.4530 0.9829
3.1809 6.2338 -2.5027 0.9707
2.7227 6.4467 -2.5026 0.9707
2.2503 6.6259 -2.5024 0.9707
2.0723 -6.1924 -2.5024 0.9724
2.5138 -6.0271 -2.5025 0.9724
2.7298 -5.9325 -2.5026 0.9724
3.7511 -5.3467 -2.5029 0.9724
4.1273 -5.0623 -2.5030 0.9724
4.3074 -4.9102 -2.5031 0.9724
4.4819 -4.7516 -2.5031 0.9724
4.6506 -4.5868 -2.5032 0.9724
4.9696 -4.2395 -2.5033 0.9724
5.1195 -4.0574 -2.5033 0.9724
5.2627 -3.8700 -2.5034 0.9724
5.6505 -3.2786 -2.5035 0.9724
5.7652 -3.0725 -2.5035 0.9724
6.1477 -2.2109 -2.5036 0.9724
6.2236 -1.9876 -2.5036 0.9724
6.3508 -1.5334 -2.5037 0.9724
6.4021 -1.3032 -2.5037 0.9724
6.4450 -1.0712 -2.5037 0.9724
6.5321 -0.1325 -2.5037 0.9724
6.5326 0.1034 -2.5037 0.9724
6.5246 0.3391 -2.5037 0.9724
6.5082 0.5744 -2.5037 0.9724
6.3576 1.5051 -2.5037 0.9724
6.2991 1.7335 -2.5037 0.9724
6.2323 1.9598 -2.5036 0.9724
6.1575 2.1835 -2.5036 0.9724
6.0746 2.4043 -2.5036 0.9724
5.9838 2.6219 -2.5036 0.9724
5.8852 2.8362 -2.5035 0.9724
5.2252 2.7549 -2.2637 0.9750
4.8018 2.7576 -2.1220 0.9766
3.9560 2.6689 -1.8287 0.9798
3.6166 2.6347 -1.7147 0.9810
3.0522 2.5804 -1.5316 0.9830
2.6447 2.5853 -1.4173 0.9843
2.1961 2.8748 -1.3863 0.9846
2.1187 3.2329 -1.4813 0.9836
2.0797 3.4380 -1.5398 0.9829
2.9682 5.8171 -2.5026 0.9724
2.3218 6.1033 -2.5024 0.9724
1.8753 6.2546 -2.5023 0.9724
1.7298 -5.8642 -2.5023 0.9739
1.9404 -5.7980 -2.5023 0.9739
2.1484 -5.7244 -2.5024 0.9739
2.3537 -5.6432 -2.5025 0.9739
2.5560 -5.5547 -2.5025 0.9739
3.1417 -5.2462 -2.5027 0.9739
3.5122 -5.0061 -2.5028 0.9739
3.6907 -4.8762 -2.5029 0.9739
4.0330 -4.5974 -2.5030 0.9739
4.3544 -4.2946 -2.5031 0.9739
4.5067 -4.1347 -2.5031 0.9739
4.7934 -3.7989 -2.5032 0.9739
4.9275 -3.6235 -2.5033 0.9739
5.3980 -2.8768 -2.5034 0.9739
5.4984 -2.6801 -2.5034 0.9739
5.5916 -2.4799 -2.5035 0.9739
5.6775 -2.2764 -2.5035 0.9739
5.8271 -1.8610 -2.5035 0.9739
5.8905 -1.6494 -2.5035 0.9739
5.9462 -1.4357 -2.5036 0.9739
5.9942 -1.2201 -2.5036 0.9739
6.0910 -0.5650 -2.5036 0.9739
6.1075 -0.3448 -2.5036 0.9739
6.1164 0.0968 -2.5036 0.9739
6.1089 0.3175 -2.5036 0.9739
6.0701 0.7574 -2.5036 0.9739
5.9996 1.1934 -2.5036 0.9739
5.8353 1.8349 -2.5035 0.9739
5.6876 2.2511 -2.5035 0.9739
5.5102 2.6555 -2.5034 0.9739
5.2179 2.7510 -2.4142 0.9748
3.0366 2.5672 -1.6274 0.9830
2.6004 2.5419 -1.4883 0.9844
2.2911 2.5884 -1.4148 0.9852
2.1739 2.8457 -1.4656 0.9846
2.1364 3.0164 -1.5128 0.9842
2.0937 3.1947 -1.5633 0.9836
2.0571 3.4006 -1.6266 0.9830
2.7792 5.4466 -2.5026 0.9739
1.9662 5.7893 -2.5023 0.9739
2.0176 -5.3756 -2.5024 0.9753
2.7705 -5.0298 -2.5026 0.9753
3.2982 -4.7012 -2.5028 0.9753
3.7873 -4.3173 -2.5029 0.9753
4.3695 -3.7275 -2.5031 0.9753
4.5013 -3.5674 -2.5031 0.9753
4.7471 -3.2335 -2.5032 0.9752
5.1633 -2.5168 -2.5033 0.9752
5.2508 -2.3287 -2.5034 0.9752
5.3315 -2.1377 -2.5034 0.9752
5.4053 -1.9439 -2.5034 0.9752
5.4719 -1.7475 -2.5034 0.9752
5.6666 -0.9418 -2.5035 0.9752
5.7198 -0.5306 -2.5035 0.9752
5.7353 -0.3238 -2.5035 0.9752
5.7432 -0.1165 -2.5035 0.9752
5.7437 0.0909 -2.5035 0.9752
5.7221 0.5050 -2.5035 0.9752
5.6339 1.1206 -2.5035 0.9752
5.5898 1.3233 -2.5034 0.9752
5.5383 1.5242 -2.5034 0.9752
5.4138 1.9197 -2.5034 0.9752
5.3410 2.1139 -2.5034 0.9752
5.2611 2.3053 -2.5033 0.9752
5.0810 2.6788 -2.5033 0.9752
4.3533 2.7136 -2.2357 0.9779
3.6104 2.6303 -1.9468 0.9807
3.3028 2.5937 -1.8302 0.9818
3.0244 2.5569 -1.7260 0.9829
2.5706 2.5129 -1.5667 0.9844
2.4024 2.5243 -1.5187 0.9849
2.1935 2.6661 -1.5046 0.9850
2.1157 2.9872 -1.5953 0.9842
2.0736 3.1641 -1.6487 0.9836
1.9964 3.5866 -1.7889 0.9822
2.2339 5.2895 -2.5024 0.9753
1.8464 5.4366 -2.5023 0.9753
1.5294 -5.1849 -2.5022 0.9765
1.7156 -5.1264 -2.5023 0.9765
2.0811 -4.9895 -2.5024 0.9765
2.2599 -4.9112 -2.5024 0.9765
2.4357 -4.8265 -2.5025 0.9765
2.6084 -4.7356 -2.5025 0.9765
2.7777 -4.6384 -2.5026 0.9765
3.2630 -4.3112 -2.5027 0.9764
3.8498 -3.7970 -2.5029 0.9764
4.1139 -3.5095 -2.5030 0.9764
4.2379 -3.3587 -2.5030 0.9764
4.3565 -3.2036 -2.5031 0.9764
4.4693 -3.0443 -2.5031 0.9764
4.7724 -2.5434 -2.5032 0.9764
4.8612 -2.3695 -2.5032 0.9764
4.9436 -2.1925 -2.5033 0.9764
5.0890 -1.8301 -2.5033 0.9764
5.2571 -1.2693 -2.5034 0.9764
5.2995 -1.0787 -2.5034 0.9764
5.4071 -0.1097 -2.5034 0.9764
5.3389 0.8629 -2.5034 0.9764
5.0284 1.9902 -2.5033 0.9764
4.9533 2.1704 -2.5033 0.9764
4.8717 2.3478 -2.5032 0.9764
4.6895 2.6930 -2.5032 0.9764
4.5891 2.8606 -2.5031 0.9764
3.9513 2.6657 -2.2063 0.9792
3.6110 2.6307 -2.0680 0.9805
3.3048 2.5952 -1.9450 0.9816
2.7703 2.5190 -1.7332 0.9836
2.5548 2.4974 -1.6537 0.9844
2.2638 2.5575 -1.5810 0.9851
2.1750 2.6436 -1.5846 0.9850
2.0964 2.9601 -1.6790 0.9841
2.0544 3.1348 -1.7349 0.9836
1.9747 3.5477 -1.8794 0.9823
2.2817 4.9010 -2.5024 0.9765
2.1033 4.9801 -2.5024 0.9765
1.6189 -4.8375 -2.5022 0.9775
1.9638 -4.7083 -2.5023 0.9775
2.2984 -4.5545 -2.5024 0.9775
2.6212 -4.3770 -2.5025 0.9775
2.9302 -4.1766 -2.5026 0.9775
3.0791 -4.0682 -2.5027 0.9775
3.2240 -3.9545 -2.5027 0.9775
3.3647 -3.8356 -2.5028 0.9775
3.6328 -3.5829 -2.5029 0.9775
3.8820 -3.3116 -2.5029 0.9775
4.2174 -2.8727 -2.5030 0.9775
4.5034 -2.4000 -2.5031 0.9775
4.5871 -2.2359 -2.5031 0.9775
4.6649 -2.0689 -2.5032 0.9775
4.8021 -1.7270 -2.5032 0.9775
5.0007 -1.0179 -2.5033 0.9775
5.0342 -0.8367 -2.5033 0.9775
5.0815 -0.4714 -2.5033 0.9775
5.0952 -0.2876 -2.5033 0.9775
5.1023 -0.1035 -2.5033 0.9775
5.0965 0.2649 -2.5033 0.9775
5.0640 0.6319 -2.5033 0.9775
5.0052 0.9956 -2.5033 0.9775
4.9660 1.1756 -2.5033 0.9775
4.9203 1.3541 -2.5032 0.9775
4.8681 1.5308 -2.5032 0.9775
4.7450 1.8780 -2.5032 0.9775
4.6740 2.0481 -2.5032 0.9775
4.5970 2.2154 -2.5031 0.9775
4.5140 2.3799 -2.5031 0.9775
4.3304 2.6993 -2.5031 0.9775
4.2301 2.8538 -2.5030 0.9775
3.3042 2.5948 -2.0608 0.9815
2.3728 2.4932 -1.6883 0.9848
2.2500 2.5420 -1.6652 0.9850
2.1153 2.7691 -1.7093 0.9846
2.0770 2.9326 -1.7627 0.9841
2.0351 3.1054 -1.8212 0.9836
1.9934 3.2954 -1.8892 0.9830
2.3187 4.5442 -2.5024 0.9775
2.1531 4.6248 -2.5024 0.9775
1.8138 4.7679 -2.5023 0.9775
1.6404 4.8302 -2.5022 0.9775
1.4650 4.8862 -2.5022 0.9775
1.8568 -4.4518 -2.5023 0.9785
2.3273 -4.2252 -2.5025 0.9785
2.6262 -4.0464 -2.5025 0.9785
2.9114 -3.8465 -2.5026 0.9785
3.3103 -3.5095 -2.5028 0.9785
3.5550 -3.2616 -2.5028 0.9785
3.6704 -3.1312 -2.5029 0.9785
3.8869 -2.8583 -2.5029 0.9785
3.9876 -2.7162 -2.5030 0.9785
4.3371 -2.1140 -2.5031 0.9785
4.4784 -1.7957 -2.5031 0.9785
4.5404 -1.6329 -2.5031 0.9785
4.6464 -1.3011 -2.5032 0.9785
4.6904 -1.1325 -2.5032 0.9785
4.7282 -0.9625 -2.5032 0.9785
4.7599 -0.7911 -2.5032 0.9785
4.8046 -0.4457 -2.5032 0.9785
4.8175 -0.2720 -2.5032 0.9785
4.8187 0.2504 -2.5032 0.9785
4.7880 0.5974 -2.5032 0.9785
4.7633 0.7699 -2.5032 0.9785
4.7324 0.9413 -2.5032 0.9785
4.6521 1.2803 -2.5032 0.9785
4.6029 1.4474 -2.5031 0.9785
4.2680 2.2502 -2.5030 0.9785
4.1840 2.4028 -2.5030 0.9785
3.9996 2.6983 -2.5030 0.9785
3.0036 2.5392 -2.0404 0.9824
2.7042 2.4589 -1.8961 0.9837
2.5311 2.4742 -1.8362 0.9842
2.2404 2.5311 -1.7536 0.9849
2.1482 2.6110 -1.7541 0.9849
2.0997 2.7486 -1.7944 0.9845
2.0575 2.9050 -1.8468 0.9841
2.0158 3.0759 -1.9078 0.9836
2.0017 3.3091 -2.0063 0.9827
2.0018 3.5962 -2.1352 0.9816
1.7150 4.5081 -2.5023 0.9785
1.5511 4.5671 -2.5022 0.9785
1.6053 -4.2773 -2.5022 0.9794
1.7587 -4.2166 -2.5023 0.9794
2.0584 -4.0789 -2.5024 0.9794
2.3474 -3.9199 -2.5025 0.9794
2.7576 -3.6434 -2.5026 0.9794
2.8873 -3.5415 -2.5026 0.9794
3.1354 -3.3240 -2.5027 0.9794
3.3672 -3.0893 -2.5028 0.9794
3.6815 -2.7073 -2.5029 0.9794
3.7769 -2.5727 -2.5029 0.9794
3.8673 -2.4346 -2.5029 0.9794
3.9527 -2.2935 -2.5030 0.9794
4.0330 -2.1494 -2.5030 0.9794
4.1776 -1.8528 -2.5030 0.9794
4.3535 -1.3904 -2.5031 0.9794
4.4009 -1.2323 -2.5031 0.9794
4.4425 -1.0727 -2.5031 0.9794
4.5084 -0.7494 -2.5031 0.9794
4.5641 0.2372 -2.5031 0.9794
4.5351 0.5659 -2.5031 0.9794
4.4824 0.8916 -2.5031 0.9794
4.3597 1.3709 -2.5031 0.9794
4.1858 1.8341 -2.5030 0.9794
4.1169 1.9840 -2.5030 0.9794
4.0425 2.1313 -2.5030 0.9794
3.8781 2.4173 -2.5029 0.9794
3.6935 2.6908 -2.5029 0.9794
3.2935 2.5864 -2.2936 0.9811
2.7074 2.4619 -2.0042 0.9834
2.1347 2.5946 -1.8402 0.9848
2.0507 2.8955 -1.9434 0.9839
2.0307 3.0986 -2.0291 0.9832
2.0766 4.0696 -2.5024 0.9794
1.9283 4.1419 -2.5023 0.9794
1.6244 4.2701 -2.5022 0.9794
1.3120 4.3759 -2.5021 0.9794
1.5229 -4.0576 -2.5022 0.9802
1.8117 -3.9373 -2.5023 0.9802
1.9527 -3.8694 -2.5023 0.9802
2.4894 -3.5483 -2.5025 0.9802
2.6159 -3.4562 -2.5025 0.9802
2.9743 -3.1533 -2.5027 0.9802
3.0863 -3.0439 -2.5027 0.9802
3.3974 -2.6925 -2.5028 0.9802
3.4924 -2.5682 -2.5028 0.9802
3.6687 -2.3096 -2.5029 0.9802
3.9630 -1.7576 -2.5030 0.9802
4.0795 -1.4671 -2.5030 0.9802
4.1299 -1.3189 -2.5030 0.9802
4.1748 -1.1690 -2.5030 0.9802
4.2143 -1.0175 -2.5030 0.9802
4.2767 -0.7108 -2.5030 0.9802
4.3169 -0.4005 -2.5031 0.9802
4.3286 -0.2443 -2.5031 0.9802
4.3349 0.0686 -2.5031 0.9802
4.3186 0.3812 -2.5031 0.9802
4.3021 0.5368 -2.5031 0.9802
4.2188 0.9987 -2.5030 0.9802
4.0310 1.5954 -2.5030 0.9802
3.9708 1.7399 -2.5030 0.9802
3.9054 1.8821 -2.5029 0.9802
3.7593 2.1589 -2.5029 0.9802
3.5937 2.4244 -2.5028 0.9802
2.7106 2.4647 -2.1152 0.9832
2.1248 2.5826 -1.9308 0.9847
2.0637 2.9138 -2.0615 0.9836
2.0542 3.1345 -2.1637 0.9828
2.2434 3.7086 -2.5024 0.9802
2.1080 3.7871 -2.5024 0.9802
1.8293 3.9291 -2.5023 0.9802
1.6862 3.9925 -2.5022 0.9802
1.3937 4.1036 -2.5022 0.9802
1.2446 4.1512 -2.5021 0.9802
