ply
format ascii 1.0
element vertex 1074
property float32 x
property float32 y
property float32 z
property float32 I
end_header
-15.7852 -37.8370 7.2290 0.8466
-14.2062 -37.8190 7.1235 0.8487
-8.7668 -40.0112 7.2224 0.8467
-2.7158 -25.0531 4.4434 0.9027
-2.4582 -34.0482 6.0192 0.8705
-0.0102 -39.7946 7.0169 0.8508
1.4187 -39.7783 7.0184 0.8507
2.8501 -39.7621 7.0291 0.8505
4.2878 -39.7457 7.0489 0.8501
8.2464 -37.7280 6.8095 0.8548
9.6313 -37.5478 6.8350 0.8543
12.5531 -37.5145 6.9753 0.8516
14.1072 -37.6141 7.0835 0.8494
14.7526 -35.4132 6.7645 0.8557
17.7843 -35.3131 6.9717 0.8516
19.7989 -30.6013 6.4267 0.8624
19.5028 -27.8944 6.0015 0.8709
22.9035 -30.3750 6.7078 0.8568
20.1197 -24.7798 5.6282 0.8784
28.4958 -28.2516 7.0754 0.8496
28.1130 -25.9384 6.7447 0.8561
19.2326 -16.5069 4.4690 0.9022
32.6023 -26.0087 7.3538 0.8442
19.1497 -12.1571 3.9996 0.9120
42.0500 -24.6234 8.5922 0.8204
-23.9557 -40.0671 7.1515 0.8279
-2.7158 -25.0531 3.8605 0.9031
15.6788 -41.8045 6.8398 0.8347
17.4069 -41.7848 6.9344 0.8326
20.0756 -33.6167 5.9983 0.8535
24.1860 -37.3821 6.8208 0.8351
26.5518 -35.2134 6.7562 0.8366
30.3952 -32.3797 6.8035 0.8355
32.7440 -30.2112 6.8251 0.8350
19.2325 -16.5068 3.8827 0.9025
35.3178 -28.1751 6.9212 0.8329
34.9184 -25.8609 6.6566 0.8388
40.8228 -25.9164 7.4076 0.8223
19.5944 -42.6537 6.1124 0.8275
19.6824 -30.4213 4.7183 0.8640
19.6783 -28.1454 4.4721 0.8706
20.1306 -24.7932 4.1588 0.8791
19.2120 -15.3265 3.2004 0.9056
42.6531 -21.0225 6.1923 0.8255
43.4309 -19.5004 6.1995 0.8253
41.3278 11.0038 5.5692 0.8415
41.1148 12.5440 5.5977 0.8408
41.1351 14.1833 5.6661 0.8390
-7.2786 -15.8227 1.8702 0.9323
-2.7236 -25.1255 2.7138 0.9033
-2.5058 -34.7079 3.7367 0.8694
19.8967 -43.3118 5.1181 0.8255
19.7794 -39.2746 4.7220 0.8379
19.8344 -36.0967 4.4227 0.8473
19.7213 -30.4815 3.8985 0.8641
31.9462 -20.2810 4.0633 0.8588
42.2198 -24.7227 5.2537 0.8213
45.9978 -18.6989 5.3319 0.8189
41.7364 9.5222 4.5969 0.8418
41.3275 11.0037 4.5924 0.8419
41.1348 14.1832 4.6723 0.8394
41.0738 17.5524 4.7964 0.8355
41.0246 19.3013 4.8685 0.8333
40.9739 21.1061 4.9493 0.8308
-7.2776 -15.8206 1.4742 0.9325
-2.7236 -25.1255 2.1394 0.9035
19.2322 -16.5065 2.1454 0.9033
43.4305 -19.5002 4.0301 0.8260
45.9978 -18.6989 4.2033 0.8193
41.1143 12.5438 3.6388 0.8415
41.0735 17.5522 3.7812 0.8359
19.8967 -43.3117 2.9556 0.8261
19.2321 -16.5064 1.5716 0.9034
42.2675 -24.7507 3.0373 0.8218
42.4024 -22.8262 2.9862 0.8245
42.4260 -20.9105 2.9330 0.8273
43.4303 -19.5001 2.9521 0.8263
41.1140 12.5437 2.6655 0.8418
41.1211 15.8520 2.7328 0.8381
40.9733 21.1057 2.8580 0.8313
21.2563 11.9337 1.5116 0.9069
40.8662 24.9136 2.9679 0.8255
-7.2757 -15.8164 0.6865 0.9327
-3.5746 -24.6715 0.9830 0.9050
19.0310 -25.2392 1.2464 0.8811
19.8190 -24.4094 1.2398 0.8817
19.2320 -16.5064 0.9993 0.9035
42.4021 -22.8261 1.8988 0.8247
42.4259 -20.9105 1.8651 0.8275
45.9977 -18.6989 1.9579 0.8197
41.1339 14.1829 1.7157 0.8401
41.1208 15.8519 1.7377 0.8383
41.0730 17.5520 1.7612 0.8363
41.0238 19.3009 1.7877 0.8340
40.9730 21.1056 1.8174 0.8315
-7.2747 -15.8143 0.2940 0.9327
-3.5746 -24.6715 0.4211 0.9051
-3.1105 -43.0831 0.7296 0.8413
19.6725 -42.8238 0.7961 0.8282
19.0196 -25.2241 0.5336 0.8813
19.2319 -16.5063 0.4280 0.9036
43.4299 -19.4999 0.8042 0.8266
44.5118 8.4869 0.7654 0.8342
41.1205 15.8518 0.7444 0.8384
41.0727 17.5519 0.7545 0.8364
41.0235 19.3008 0.7658 0.8341
40.9727 21.1054 0.7785 0.8316
21.2524 11.9315 0.4117 0.9071
-12.5839 -22.8733 -0.1470 0.9008
-9.5319 -22.8477 -0.1394 0.9057
-7.6509 -22.8252 -0.1355 0.9082
-6.7465 -22.8144 -0.1339 0.9092
-5.8619 -22.8038 -0.1326 0.9101
-4.9944 -22.7935 -0.1314 0.9109
-4.1410 -22.7828 -0.1304 0.9115
-3.2998 -22.7746 -0.1296 0.9121
-1.6432 -22.7584 -0.1285 0.9128
-0.8232 -22.7504 -0.1282 0.9130
-0.0059 -22.7425 -0.1280 0.9130
2.4495 -22.7052 -0.1286 0.9127
3.2764 -22.6954 -0.1291 0.9124
4.1112 -22.6854 -0.1298 0.9119
4.9562 -22.6754 -0.1307 0.9113
5.8138 -22.6652 -0.1317 0.9106
6.6902 -22.6671 -0.1331 0.9098
9.4280 -22.6317 -0.1380 0.9066
10.3908 -22.6192 -0.1401 0.9052
11.3878 -22.6122 -0.1425 0.9037
13.4891 -22.5876 -0.1481 0.9001
15.7738 -22.5610 -0.1550 0.8957
17.0063 -22.5540 -0.1590 0.8932
19.6693 -22.5220 -0.1684 0.8873
42.4257 -20.9104 -0.2663 0.8276
43.4296 -19.4998 -0.2680 0.8266
45.9976 -18.6989 -0.2796 0.8199
41.7351 9.5219 -0.2410 0.8426
41.3262 11.0033 -0.2408 0.8428
41.0724 17.5517 -0.2515 0.8364
-13.6845 -22.8879 -0.7509 0.8988
-9.5317 -22.8472 -0.6971 0.9057
-7.6508 -22.8247 -0.6778 0.9082
-6.7464 -22.8139 -0.6699 0.9092
-4.1411 -22.7834 -0.6520 0.9115
-3.2999 -22.7752 -0.6480 0.9120
-0.0059 -22.7431 -0.6404 0.9130
0.8105 -22.7249 -0.6403 0.9130
1.6282 -22.7152 -0.6413 0.9129
2.4495 -22.7054 -0.6430 0.9127
4.1112 -22.6856 -0.6492 0.9119
4.9562 -22.6755 -0.6536 0.9113
6.6903 -22.6675 -0.6655 0.9098
7.5811 -22.6560 -0.6727 0.9088
8.4927 -22.6442 -0.6810 0.9078
11.3883 -22.6131 -0.7129 0.9036
12.4188 -22.6011 -0.7261 0.9020
14.6062 -22.5756 -0.7571 0.8980
17.0062 -22.5539 -0.7954 0.8931
18.2998 -22.5384 -0.8175 0.8903
21.1252 -22.5045 -0.8691 0.8838
19.2318 -16.5062 -0.7136 0.9036
42.4012 -22.8256 -1.3559 0.8247
43.4294 -19.4997 -1.3405 0.8265
45.9976 -18.6989 -1.3981 0.8198
41.7349 9.5219 -1.2054 0.8426
41.3259 11.0033 -1.2042 0.8427
41.1129 12.5434 -1.2103 0.8420
41.1199 15.8516 -1.2409 0.8383
41.0229 19.3005 -1.2766 0.8341
40.9721 21.1052 -1.2978 0.8316
21.2485 11.9293 -0.6862 0.9071
-13.6849 -22.8886 -1.3524 0.8987
-9.5315 -22.8467 -1.2554 0.9056
-6.7462 -22.8135 -1.2065 0.9091
-5.8617 -22.8029 -1.1940 0.9100
-4.1412 -22.7840 -1.1744 0.9114
-1.6432 -22.7596 -1.1572 0.9127
1.6282 -22.7153 -1.1549 0.9128
3.2764 -22.6957 -1.1629 0.9122
5.8139 -22.6655 -1.1867 0.9105
6.6904 -22.6679 -1.1986 0.9097
12.4193 -22.6021 -1.3079 0.9019
13.4903 -22.5896 -1.3344 0.9000
14.6069 -22.5766 -1.3637 0.8979
18.2998 -22.5384 -1.4723 0.8902
21.1251 -22.5045 -1.5654 0.8837
35.1746 -34.8731 -2.5120 0.8201
36.4090 -33.5926 -2.5123 0.8200
19.2317 -16.5061 -1.2853 0.9035
36.6160 -23.2456 -2.1996 0.8405
41.0125 -22.0780 -2.3621 0.8298
46.3066 -16.9140 -2.5002 0.8208
47.6933 -13.6314 -2.5156 0.8198
48.5532 -10.1752 -2.5158 0.8198
48.8890 -8.4259 -2.5159 0.8198
49.1615 -6.6655 -2.5160 0.8198
46.8313 -4.6446 -2.3867 0.8282
49.5150 -3.1210 -2.5161 0.8198
49.5956 -1.3414 -2.5161 0.8198
49.5638 2.2206 -2.5161 0.8198
49.2750 5.7711 -2.5160 0.8198
44.5117 8.4868 -2.2980 0.8340
41.7346 9.5218 -2.1709 0.8424
41.1126 12.5433 -2.1799 0.8418
40.3798 13.9229 -2.1661 0.8428
36.1160 16.9919 -2.0242 0.8523
30.5949 18.6518 -1.8172 0.8663
-11.5284 -22.8619 -1.8773 0.9024
-8.5777 -22.8348 -1.7885 0.9068
-6.7461 -22.8130 -1.7443 0.9090
-5.8616 -22.8024 -1.7263 0.9099
-4.1413 -22.7846 -1.6980 0.9113
-3.3001 -22.7764 -1.6875 0.9118
-2.4682 -22.7683 -1.6792 0.9122
-1.6433 -22.7602 -1.6732 0.9125
-0.0059 -22.7442 -1.6677 0.9128
1.6282 -22.7154 -1.6698 0.9127
2.4495 -22.7057 -1.6745 0.9125
3.2764 -22.6958 -1.6814 0.9121
4.9563 -22.6758 -1.7019 0.9111
5.8139 -22.6656 -1.7157 0.9104
10.3913 -22.6203 -1.8252 0.9050
13.4909 -22.5906 -1.9293 0.8998
15.7760 -22.5641 -2.0187 0.8955
21.1251 -22.5044 -2.2632 0.8836
23.6382 -21.8097 -2.3582 0.8790
19.2316 -16.5060 -1.8584 0.9033
27.5066 -20.3717 -2.5097 0.8717
28.2225 -19.3726 -2.5099 0.8717
28.9020 -18.3484 -2.5101 0.8717
29.5443 -17.3003 -2.5103 0.8717
31.2391 -14.0263 -2.5108 0.8717
31.7243 -12.8965 -2.5109 0.8717
32.1685 -11.7499 -2.5111 0.8717
32.5711 -10.5880 -2.5112 0.8717
32.9315 -9.4123 -2.5113 0.8716
33.7557 -5.8177 -2.5115 0.8716
33.9436 -4.6022 -2.5116 0.8716
34.0874 -3.3807 -2.5116 0.8716
34.1872 -2.1548 -2.5117 0.8716
34.2428 -0.9261 -2.5117 0.8716
34.2481 0.3037 -2.5112 0.8717
34.1373 2.7603 -2.5112 0.8717
34.0549 3.9885 -2.5140 0.8715
33.9546 5.2185 -2.5189 0.8713
33.8110 6.4466 -2.5238 0.8711
33.3597 8.8822 -2.5312 0.8707
29.7668 12.7204 -2.3735 0.8782
28.6511 13.4798 -2.3217 0.8807
27.5469 14.1896 -2.2720 0.8831
21.1275 11.8614 -1.7766 0.9074
-12.5447 -20.9815 -2.3469 0.9064
-11.7849 -21.4211 -2.3472 0.9064
-11.0097 -21.8331 -2.3475 0.9064
-7.2255 -15.7073 -1.6599 0.9329
-9.4172 -22.5729 -2.3481 0.9064
-6.7459 -22.8125 -2.2839 0.9088
-4.9940 -22.7916 -2.2400 0.9105
-3.3002 -22.7770 -2.2095 0.9117
-2.4682 -22.7689 -2.1987 0.9121
-1.6433 -22.7608 -2.1908 0.9124
-0.0059 -22.7448 -2.1836 0.9127
0.8105 -22.7253 -2.1831 0.9127
2.4495 -22.7058 -2.1925 0.9123
3.2764 -22.6960 -2.2015 0.9120
6.6906 -22.6685 -2.2691 0.9094
7.5815 -22.6570 -2.2937 0.9085
8.4931 -22.6452 -2.3219 0.9074
9.4286 -22.6331 -2.3539 0.9062
11.0407 -21.9228 -2.3565 0.9061
11.8223 -21.5154 -2.3569 0.9061
13.3362 -20.6125 -2.3570 0.9061
14.0665 -20.1189 -2.3568 0.9061
16.1430 -18.4842 -2.3561 0.9061
18.0293 -16.6346 -2.3551 0.9061
18.6122 -15.9744 -2.3547 0.9061
19.1750 -15.2970 -2.3549 0.9061
19.7131 -14.5997 -2.3551 0.9061
20.2258 -13.8834 -2.3552 0.9061
22.0560 -14.0022 -2.5081 0.9003
23.4368 -11.5513 -2.5085 0.9003
24.5455 -8.9655 -2.5088 0.9003
24.8522 -8.0788 -2.5088 0.9003
25.3691 -6.2751 -2.5090 0.9003
25.7548 -4.4387 -2.5090 0.9003
26.0094 -2.5796 -2.5093 0.9003
26.1184 -1.6463 -2.5125 0.9002
26.1950 -0.7085 -2.5158 0.9001
26.2388 0.2327 -2.5191 0.8999
26.2496 1.1761 -2.5226 0.8998
26.0833 4.0087 -2.5335 0.8994
25.1410 8.6686 -2.5531 0.8986
24.4407 10.4444 -2.5517 0.8987
23.7098 11.1550 -2.5156 0.9001
20.3009 11.3974 -2.2351 0.9107
-9.5232 -17.3101 -2.3468 0.9235
-8.8975 -17.6444 -2.3473 0.9235
-7.2020 -15.6562 -2.0471 0.9329
-7.6115 -18.2446 -2.3482 0.9235
-6.9529 -18.5095 -2.3487 0.9234
-4.2347 -19.3270 -2.3502 0.9234
-3.5387 -19.4694 -2.3506 0.9234
-1.4255 -19.7447 -2.3515 0.9234
-0.7158 -19.7854 -2.3518 0.9233
0.7058 -19.7896 -2.3522 0.9233
2.1243 -19.6911 -2.3526 0.9233
2.8300 -19.6034 -2.3527 0.9233
3.5321 -19.4902 -2.3529 0.9233
6.2862 -18.7862 -2.3532 0.9233
7.6180 -18.2868 -2.3532 0.9233
8.2695 -18.0012 -2.3531 0.9233
8.9101 -17.6923 -2.3531 0.9233
9.5392 -17.3604 -2.3530 0.9233
10.1559 -17.0060 -2.3529 0.9233
10.7592 -16.6296 -2.3528 0.9233
11.9250 -15.8151 -2.3528 0.9233
12.4588 -15.3445 -2.3479 0.9235
12.9523 -14.8308 -2.3390 0.9237
15.1288 -13.9585 -2.4451 0.9204
17.3989 -11.9430 -2.5068 0.9185
17.8172 -11.3112 -2.5069 0.9185
18.2127 -10.6648 -2.5070 0.9185
18.5846 -10.0046 -2.5071 0.9185
18.9325 -9.3313 -2.5072 0.9185
19.2560 -8.6459 -2.5073 0.9185
19.5547 -7.9493 -2.5074 0.9185
20.0877 -6.5300 -2.5090 0.9184
20.3261 -5.8095 -2.5111 0.9184
20.5394 -5.0804 -2.5133 0.9183
20.7273 -4.3437 -2.5156 0.9182
21.0257 -2.8508 -2.5204 0.9181
21.1357 -2.0962 -2.5229 0.9180
21.2192 -1.3375 -2.5255 0.9179
21.2860 1.7211 -2.5367 0.9176
21.1575 3.2517 -2.5427 0.9174
21.0642 4.0162 -2.5472 0.9172
20.5797 5.4795 -2.5297 0.9178
20.2953 6.1920 -2.5205 0.9181
20.0095 6.8992 -2.5142 0.9183
19.7175 7.6010 -2.5102 0.9184
19.4158 8.2970 -2.5081 0.9185
17.2827 9.7029 -2.3544 0.9233
16.9225 10.3166 -2.3542 0.9233
-8.1513 -14.8165 -2.3961 0.9340
-4.6992 -15.8912 -2.3480 0.9352
-4.1260 -16.0508 -2.3482 0.9352
-3.5474 -16.1897 -2.3483 0.9352
-2.3769 -16.4049 -2.3487 0.9352
-1.1938 -16.5355 -2.3490 0.9352
0.5910 -16.5717 -2.3495 0.9352
2.3698 -16.4157 -2.3500 0.9352
4.1218 -16.0693 -2.3506 0.9352
5.8269 -15.5362 -2.3510 0.9352
6.3813 -15.3181 -2.3512 0.9352
7.4650 -14.8227 -2.3515 0.9352
8.5104 -14.2507 -2.3518 0.9351
10.6403 -14.1112 -2.5041 0.9311
11.6301 -13.3168 -2.5051 0.9311
12.5570 -12.4494 -2.5054 0.9311
13.8247 -11.0288 -2.5058 0.9310
14.2124 -10.5258 -2.5059 0.9310
14.5817 -10.0092 -2.5060 0.9310
14.9322 -9.4797 -2.5061 0.9310
15.5751 -8.3845 -2.5063 0.9310
15.8666 -7.8202 -2.5063 0.9310
16.3878 -6.6619 -2.5065 0.9310
16.6168 -6.0695 -2.5066 0.9310
16.8244 -5.4692 -2.5066 0.9310
17.0103 -4.8618 -2.5067 0.9310
17.3159 -3.6288 -2.5068 0.9310
17.4352 -3.0049 -2.5068 0.9310
17.6062 -1.7462 -2.5069 0.9310
17.6577 -1.1130 -2.5069 0.9310
17.6921 0.1569 -2.5069 0.9310
17.6351 1.4259 -2.5069 0.9310
17.4870 2.6876 -2.5068 0.9310
17.3791 3.3136 -2.5068 0.9310
17.2486 3.9353 -2.5067 0.9310
17.0959 4.5519 -2.5067 0.9310
16.9212 5.1626 -2.5066 0.9310
16.5063 6.3631 -2.5065 0.9310
16.2668 6.9514 -2.5065 0.9310
15.4237 8.6591 -2.5062 0.9310
15.1023 9.2069 -2.5061 0.9310
-7.3138 -13.2942 -2.4996 0.9403
-6.3418 -13.7863 -2.4999 0.9403
-5.3369 -14.2075 -2.5002 0.9403
-4.8237 -14.3908 -2.5004 0.9403
-4.3042 -14.5555 -2.5005 0.9403
-3.7631 -14.6391 -2.4900 0.9406
-3.2041 -14.6231 -2.4661 0.9411
-2.1140 -14.5903 -2.4287 0.9420
-1.5798 -14.5734 -2.4149 0.9423
-1.0509 -14.5561 -2.4042 0.9426
1.5602 -14.4623 -2.3963 0.9427
5.3362 -14.2278 -2.5033 0.9403
5.8438 -14.0279 -2.5034 0.9403
6.3440 -13.8098 -2.5036 0.9403
6.8361 -13.5740 -2.5037 0.9402
8.7105 -12.4584 -2.5043 0.9402
9.1526 -12.1383 -2.5044 0.9402
9.5829 -11.8025 -2.5045 0.9402
10.0010 -11.4514 -2.5047 0.9402
10.4061 -11.0855 -2.5048 0.9402
10.7978 -10.7053 -2.5049 0.9402
11.1757 -10.3112 -2.5050 0.9402
11.8877 -9.4835 -2.5052 0.9402
13.1246 -7.6854 -2.5056 0.9402
13.8760 -6.2303 -2.5058 0.9402
14.2880 -5.2189 -2.5059 0.9402
14.6262 -4.1804 -2.5060 0.9402
15.0747 -2.0439 -2.5061 0.9402
15.1385 -1.5014 -2.5061 0.9402
15.1827 -0.9570 -2.5061 0.9402
15.2073 -0.4113 -2.5062 0.9402
15.2123 0.1349 -2.5062 0.9402
15.1976 0.6809 -2.5062 0.9402
15.1094 1.7696 -2.5061 0.9402
15.0360 2.3109 -2.5061 0.9402
14.8311 3.3837 -2.5060 0.9402
14.6998 3.9139 -2.5060 0.9402
14.5496 4.4390 -2.5060 0.9402
14.3806 4.9584 -2.5059 0.9402
13.7633 6.4753 -2.5057 0.9402
13.5214 6.9650 -2.5057 0.9402
13.2623 7.4457 -2.5056 0.9402
-6.8248 -11.4148 -2.4998 0.9473
-6.4109 -11.6530 -2.4999 0.9473
-4.6779 -12.4532 -2.5004 0.9473
-3.7727 -12.7580 -2.5007 0.9473
-3.3124 -12.8859 -2.5008 0.9473
-2.8478 -12.9972 -2.5009 0.9473
-2.3795 -13.0918 -2.5011 0.9473
-1.4342 -13.2303 -2.5013 0.9473
0.4744 -13.3023 -2.5019 0.9473
1.9022 -13.1763 -2.5023 0.9473
2.8430 -13.0073 -2.5026 0.9473
5.5597 -12.1026 -2.5034 0.9472
5.9909 -11.8958 -2.5035 0.9472
6.4145 -11.6736 -2.5036 0.9472
6.8297 -11.4364 -2.5037 0.9472
7.2362 -11.1843 -2.5039 0.9472
7.6334 -10.9179 -2.5040 0.9472
8.0208 -10.6373 -2.5041 0.9472
8.3979 -10.3429 -2.5042 0.9472
8.7641 -10.0352 -2.5043 0.9472
9.4624 -9.3812 -2.5045 0.9472
12.3477 -5.0196 -2.5053 0.9472
12.6764 -4.1208 -2.5054 0.9472
13.0467 -2.7342 -2.5055 0.9472
13.2653 -1.3156 -2.5056 0.9472
13.0942 2.4966 -2.5055 0.9472
12.6013 4.3449 -2.5054 0.9472
12.2566 5.2377 -2.5053 0.9472
12.0604 5.6742 -2.5052 0.9472
11.6216 6.5246 -2.5051 0.9472
-6.0691 -10.1510 -2.5000 0.9528
-5.7011 -10.3628 -2.5001 0.9528
-5.3256 -10.5612 -2.5002 0.9528
-4.9433 -10.7461 -2.5003 0.9528
-4.5545 -10.9171 -2.5004 0.9528
-4.1599 -11.0741 -2.5005 0.9528
-3.3548 -11.3451 -2.5008 0.9528
-2.9456 -11.4588 -2.5009 0.9528
-2.1159 -11.6417 -2.5011 0.9528
-1.6967 -11.7107 -2.5013 0.9528
-1.2753 -11.7647 -2.5014 0.9528
-0.8522 -11.8034 -2.5015 0.9528
-0.0030 -11.8354 -2.5018 0.9528
1.6914 -11.7162 -2.5022 0.9528
2.1110 -11.6485 -2.5024 0.9528
2.9417 -11.4681 -2.5026 0.9527
3.7573 -11.2285 -2.5028 0.9527
4.1582 -11.0869 -2.5030 0.9527
4.5537 -10.9310 -2.5031 0.9527
4.9434 -10.7609 -2.5032 0.9527
6.0725 -10.1685 -2.5035 0.9527
7.4667 -9.1960 -2.5039 0.9527
8.9904 -7.7162 -2.5044 0.9527
9.2619 -7.3887 -2.5044 0.9527
9.5215 -7.0517 -2.5045 0.9527
10.0035 -6.3507 -2.5046 0.9527
10.4339 -5.6168 -2.5048 0.9527
10.8105 -4.8539 -2.5049 0.9527
11.2703 -3.6637 -2.5050 0.9527
11.3947 -3.2567 -2.5051 0.9527
11.5993 -2.4308 -2.5051 0.9527
11.6792 -2.0128 -2.5051 0.9527
11.7440 -1.5923 -2.5052 0.9527
11.7937 -1.1697 -2.5052 0.9527
11.8281 -0.7455 -2.5052 0.9527
11.8473 -0.3204 -2.5052 0.9527
11.7710 1.3786 -2.5052 0.9527
11.7139 1.8003 -2.5051 0.9527
11.6416 2.2196 -2.5051 0.9527
11.3350 3.4583 -2.5050 0.9527
11.2034 3.8629 -2.5050 0.9527
11.0573 4.2625 -2.5049 0.9527
10.3325 5.8009 -2.5047 0.9527
-4.4462 -9.6656 -2.5005 0.9572
-3.7418 -9.9606 -2.5007 0.9572
-3.3817 -10.0889 -2.5008 0.9572
-3.0175 -10.2042 -2.5009 0.9572
-1.9031 -10.4708 -2.5012 0.9572
-1.1470 -10.5813 -2.5014 0.9572
-0.3849 -10.6373 -2.5016 0.9572
-0.0027 -10.6447 -2.5018 0.9572
0.7611 -10.6184 -2.5020 0.9572
1.1419 -10.5847 -2.5021 0.9572
1.8986 -10.4764 -2.5023 0.9572
2.2736 -10.4020 -2.5024 0.9572
4.0954 -9.8308 -2.5029 0.9572
4.4458 -9.6779 -2.5030 0.9572
4.7906 -9.5124 -2.5031 0.9572
6.4136 -8.5056 -2.5036 0.9572
8.3293 -6.6447 -2.5042 0.9572
8.7850 -6.0302 -2.5043 0.9572
8.9961 -5.7111 -2.5044 0.9572
9.5586 -4.7111 -2.5045 0.9572
9.7217 -4.3650 -2.5046 0.9572
9.8723 -4.0133 -2.5046 0.9572
10.0102 -3.6563 -2.5047 0.9572
10.2470 -2.9287 -2.5047 0.9572
10.5028 -1.8101 -2.5048 0.9572
10.6367 -0.6704 -2.5048 0.9572
10.6540 -0.2881 -2.5048 0.9572
10.5340 1.6190 -2.5048 0.9572
10.3905 2.3706 -2.5048 0.9572
10.2986 2.7421 -2.5047 0.9572
10.1934 3.1100 -2.5047 0.9572
9.7995 4.1877 -2.5046 0.9572
9.6427 4.5367 -2.5045 0.9572
9.4734 4.8798 -2.5045 0.9572
9.2919 5.2167 -2.5044 0.9572
-4.6549 -8.4612 -2.5004 0.9609
-4.3483 -8.6231 -2.5005 0.9609
-4.0360 -8.7740 -2.5006 0.9609
-3.7186 -8.9136 -2.5007 0.9609
-3.3964 -9.0417 -2.5008 0.9609
-3.0697 -9.1581 -2.5009 0.9609
-2.7390 -9.2628 -2.5010 0.9609
-1.3852 -9.5609 -2.5014 0.9609
-0.3494 -9.6556 -2.5017 0.9609
-0.0025 -9.6623 -2.5018 0.9609
0.3444 -9.6566 -2.5019 0.9609
1.0365 -9.6078 -2.5021 0.9609
1.3808 -9.5647 -2.5022 0.9609
1.7234 -9.5094 -2.5023 0.9609
2.0637 -9.4418 -2.5024 0.9609
2.4014 -9.3619 -2.5024 0.9609
3.3942 -9.0505 -2.5027 0.9608
4.6556 -8.4727 -2.5031 0.9608
4.9569 -8.3004 -2.5032 0.9608
5.2519 -8.1174 -2.5033 0.9608
5.5402 -7.9239 -2.5034 0.9608
6.3605 -7.2830 -2.5036 0.9608
6.6181 -7.0502 -2.5037 0.9608
7.3383 -6.2983 -2.5039 0.9608
7.5599 -6.0309 -2.5039 0.9608
7.7717 -5.7558 -2.5040 0.9608
7.9735 -5.4732 -2.5041 0.9608
8.1651 -5.1836 -2.5041 0.9608
8.5163 -4.5845 -2.5042 0.9608
8.6758 -4.2759 -2.5043 0.9608
9.0854 -3.3185 -2.5044 0.9608
9.1988 -2.9903 -2.5044 0.9608
9.3004 -2.6582 -2.5044 0.9608
9.3899 -2.3226 -2.5045 0.9608
9.4673 -1.9840 -2.5045 0.9608
9.5854 -1.2996 -2.5045 0.9608
9.6696 -0.2615 -2.5045 0.9608
9.3471 2.4887 -2.5045 0.9608
9.2517 2.8227 -2.5044 0.9608
9.1443 3.1529 -2.5044 0.9608
8.8942 3.8008 -2.5043 0.9608
8.4336 4.7348 -2.5042 0.9608
-4.5326 -7.5809 -2.5004 0.9639
-3.4012 -8.1527 -2.5008 0.9639
-3.1064 -8.2698 -2.5009 0.9639
-2.8076 -8.3763 -2.5009 0.9639
-2.1996 -8.5568 -2.5011 0.9639
-1.8910 -8.6305 -2.5012 0.9639
-0.9522 -8.7848 -2.5015 0.9639
0.3150 -8.8319 -2.5018 0.9639
0.6321 -8.8152 -2.5019 0.9639
1.2628 -8.7478 -2.5021 0.9639
1.8876 -8.6352 -2.5023 0.9639
2.1963 -8.5623 -2.5024 0.9639
2.5025 -8.4782 -2.5025 0.9639
2.8054 -8.3831 -2.5026 0.9639
3.1045 -8.2773 -2.5027 0.9639
4.2578 -7.7488 -2.5030 0.9639
4.5334 -7.5912 -2.5031 0.9639
6.2803 -6.2264 -2.5036 0.9639
6.7112 -5.7600 -2.5037 0.9639
6.9138 -5.5155 -2.5038 0.9639
7.2921 -5.0054 -2.5039 0.9639
7.4672 -4.7405 -2.5039 0.9639
7.6327 -4.4695 -2.5040 0.9639
7.7884 -4.1926 -2.5040 0.9639
8.3088 -3.0349 -2.5042 0.9639
8.5872 -2.1240 -2.5042 0.9639
8.7176 -1.5024 -2.5043 0.9639
8.8030 -0.8730 -2.5043 0.9639
8.8287 -0.5565 -2.5043 0.9639
8.8459 0.0784 -2.5043 0.9639
8.8374 0.3959 -2.5043 0.9639
8.8175 0.7130 -2.5043 0.9639
8.7435 1.3438 -2.5043 0.9639
8.6244 1.9677 -2.5042 0.9639
8.4608 2.5814 -2.5042 0.9639
8.3626 2.8834 -2.5042 0.9639
8.1340 3.4759 -2.5041 0.9639
8.0038 3.7656 -2.5041 0.9639
7.8633 4.0505 -2.5040 0.9639
7.5521 4.6041 -2.5039 0.9639
-4.1719 -6.9777 -2.5005 0.9665
-3.9188 -7.1232 -2.5006 0.9665
-3.6607 -7.2595 -2.5007 0.9665
-3.3978 -7.3865 -2.5008 0.9665
-3.1306 -7.5039 -2.5008 0.9665
-2.5842 -7.7097 -2.5010 0.9665
-1.7405 -7.9436 -2.5012 0.9665
-0.8764 -8.0855 -2.5015 0.9665
-0.2940 -8.1281 -2.5017 0.9665
-0.0021 -8.1337 -2.5018 0.9665
0.8725 -8.0876 -2.5020 0.9665
1.1623 -8.0513 -2.5021 0.9665
2.0214 -7.8805 -2.5023 0.9665
2.8572 -7.6182 -2.5026 0.9665
3.3967 -7.3940 -2.5027 0.9665
4.1724 -6.9866 -2.5030 0.9665
4.6632 -6.6696 -2.5031 0.9665
5.1300 -6.3182 -2.5032 0.9665
5.3537 -6.1301 -2.5033 0.9665
5.7800 -5.7304 -2.5034 0.9665
5.9821 -5.5194 -2.5035 0.9665
6.5413 -4.8445 -2.5036 0.9665
7.0246 -4.1134 -2.5038 0.9665
7.1679 -3.8586 -2.5038 0.9665
7.5415 -3.0658 -2.5039 0.9665
7.6468 -2.7931 -2.5040 0.9665
7.9030 -1.9548 -2.5040 0.9665
8.0675 -1.0938 -2.5041 0.9665
8.1016 -0.8035 -2.5041 0.9665
8.1384 -0.2201 -2.5041 0.9665
8.1410 0.0722 -2.5041 0.9665
8.1332 0.3644 -2.5041 0.9665
8.1149 0.6562 -2.5041 0.9665
8.0468 1.2367 -2.5041 0.9665
7.9972 1.5248 -2.5041 0.9665
7.9372 1.8109 -2.5040 0.9665
7.8670 2.0946 -2.5040 0.9665
7.5960 2.9282 -2.5039 0.9665
-3.8604 -6.4568 -2.5006 0.9688
-3.3874 -6.7175 -2.5008 0.9688
-3.1441 -6.8350 -2.5008 0.9688
-2.6457 -7.0434 -2.5010 0.9688
-2.3912 -7.1340 -2.5011 0.9688
-2.1337 -7.2155 -2.5011 0.9688
-1.8733 -7.2876 -2.5012 0.9688
-1.6105 -7.3504 -2.5013 0.9688
-1.3457 -7.4037 -2.5014 0.9688
-1.0791 -7.4475 -2.5014 0.9688
-0.0019 -7.5262 -2.5018 0.9688
0.2683 -7.5217 -2.5018 0.9688
0.8073 -7.4835 -2.5020 0.9688
1.6074 -7.3540 -2.5022 0.9688
2.1310 -7.2201 -2.5024 0.9688
2.3889 -7.1392 -2.5024 0.9688
3.1429 -6.8416 -2.5027 0.9688
3.3866 -6.7245 -2.5027 0.9688
3.8606 -6.4646 -2.5029 0.9688
4.3147 -6.1712 -2.5030 0.9688
4.5336 -6.0125 -2.5031 0.9688
4.7466 -5.8460 -2.5031 0.9688
4.9535 -5.6720 -2.5032 0.9688
5.1541 -5.4906 -2.5032 0.9688
5.3480 -5.3021 -2.5033 0.9688
5.5350 -5.1068 -2.5034 0.9688
5.7149 -4.9050 -2.5034 0.9688
6.0524 -4.4824 -2.5035 0.9688
6.3586 -4.0367 -2.5036 0.9688
6.6321 -3.5702 -2.5037 0.9687
6.7561 -3.3299 -2.5037 0.9687
6.9778 -2.8366 -2.5038 0.9687
7.0752 -2.5843 -2.5038 0.9687
7.1635 -2.3287 -2.5038 0.9687
7.2425 -2.0700 -2.5038 0.9687
7.4232 -1.2794 -2.5039 0.9687
7.4644 -1.0121 -2.5039 0.9687
7.4959 -0.7434 -2.5039 0.9687
7.5325 0.0668 -2.5039 0.9687
7.4816 0.8762 -2.5039 0.9687
7.4453 1.1443 -2.5039 0.9687
7.3994 1.4108 -2.5039 0.9687
7.3439 1.6755 -2.5039 0.9687
7.2046 2.1981 -2.5038 0.9687
7.1210 2.4553 -2.5038 0.9687
6.9263 2.9599 -2.5038 0.9687
6.5677 3.6872 -2.5036 0.9688
6.4310 3.9205 -2.5036 0.9688
-3.5885 -6.0019 -2.5007 0.9707
-3.1487 -6.2443 -2.5008 0.9707
-2.6927 -6.4544 -2.5010 0.9707
-2.4594 -6.5471 -2.5010 0.9707
-2.2228 -6.6314 -2.5011 0.9707
-1.4971 -6.8325 -2.5013 0.9707
-1.2508 -6.8820 -2.5014 0.9707
-1.0030 -6.9227 -2.5015 0.9707
-0.7539 -6.9544 -2.5015 0.9707
0.5002 -6.9783 -2.5019 0.9707
0.7504 -6.9560 -2.5020 0.9707
1.4941 -6.8356 -2.5022 0.9707
2.6911 -6.4599 -2.5025 0.9707
2.9214 -6.3592 -2.5026 0.9707
3.3703 -6.1336 -2.5027 0.9707
3.8019 -5.8762 -2.5029 0.9707
4.0105 -5.7361 -2.5029 0.9707
4.2139 -5.5886 -2.5030 0.9707
4.9709 -4.9283 -2.5032 0.9707
5.6256 -4.1663 -2.5034 0.9707
5.7716 -3.9618 -2.5034 0.9707
5.9102 -3.7521 -2.5035 0.9707
6.0412 -3.5375 -2.5035 0.9707
6.1644 -3.3184 -2.5035 0.9707
6.2796 -3.0950 -2.5036 0.9707
6.3868 -2.8676 -2.5036 0.9707
6.4856 -2.6365 -2.5036 0.9707
6.5762 -2.4020 -2.5037 0.9707
6.6582 -2.1644 -2.5037 0.9707
6.7965 -1.6811 -2.5037 0.9707
6.8525 -1.4361 -2.5037 0.9707
6.9380 -0.9407 -2.5038 0.9707
6.9673 -0.6910 -2.5038 0.9707
6.9876 -0.4404 -2.5038 0.9707
6.9989 -0.1893 -2.5038 0.9707
6.9945 0.3134 -2.5038 0.9707
6.9787 0.5643 -2.5038 0.9707
6.9202 1.0636 -2.5038 0.9707
6.8259 1.5573 -2.5037 0.9707
6.7656 1.8014 -2.5037 0.9707
6.6188 2.2821 -2.5037 0.9707
6.2237 3.2059 -2.5035 0.9707
-3.3488 -5.6010 -2.5008 0.9724
-3.1456 -5.7177 -2.5008 0.9724
-2.9384 -5.8271 -2.5009 0.9724
-2.5128 -6.0232 -2.5010 0.9724
-2.0743 -6.1883 -2.5011 0.9724
-1.6250 -6.3215 -2.5013 0.9724
-1.3970 -6.3759 -2.5013 0.9724
-0.7035 -6.4897 -2.5015 0.9724
-0.4701 -6.5110 -2.5016 0.9724
-0.2360 -6.5238 -2.5017 0.9724
-0.0017 -6.5283 -2.5018 0.9724
0.2327 -6.5243 -2.5018 0.9724
0.4668 -6.5119 -2.5019 0.9724
1.1643 -6.4245 -2.5021 0.9724
1.3942 -6.3787 -2.5022 0.9724
1.6224 -6.3247 -2.5022 0.9724
2.5112 -6.0280 -2.5025 0.9724
2.7261 -5.9341 -2.5025 0.9724
2.9374 -5.8326 -2.5026 0.9724
3.1450 -5.7235 -2.5027 0.9724
3.5477 -5.4834 -2.5028 0.9724
3.9322 -5.2149 -2.5029 0.9724
4.1169 -5.0705 -2.5029 0.9724
4.2964 -4.9195 -2.5030 0.9724
4.4704 -4.7622 -2.5030 0.9724
4.6385 -4.5988 -2.5031 0.9724
4.9567 -4.2542 -2.5032 0.9724
5.1063 -4.0736 -2.5032 0.9724
5.5150 -3.5011 -2.5033 0.9724
5.7521 -3.0965 -2.5034 0.9724
6.0519 -2.4602 -2.5035 0.9724
6.1364 -2.2414 -2.5035 0.9724
6.3942 -1.3400 -2.5036 0.9724
6.4382 -1.1096 -2.5036 0.9724
6.4739 -0.8778 -2.5036 0.9724
6.5330 0.0579 -2.5036 0.9724
6.5267 0.2924 -2.5036 0.9724
6.5119 0.5265 -2.5036 0.9724
6.4888 0.7600 -2.5036 0.9724
6.4574 0.9924 -2.5036 0.9724
6.4175 1.2236 -2.5036 0.9724
6.1761 2.1295 -2.5035 0.9724
6.0956 2.3498 -2.5035 0.9724
5.9112 2.7811 -2.5035 0.9724
5.8075 2.9915 -2.5034 0.9724
5.6962 3.1980 -2.5034 0.9724
5.5777 3.4004 -2.5034 0.9724
-3.1356 -5.2445 -2.5008 0.9739
-2.9454 -5.3538 -2.5009 0.9739
-2.1489 -5.7208 -2.5011 0.9739
-1.9422 -5.7944 -2.5012 0.9739
-1.7330 -5.8606 -2.5012 0.9739
-1.5215 -5.9191 -2.5013 0.9739
-1.0930 -6.0133 -2.5014 0.9739
-0.6587 -6.0766 -2.5016 0.9739
-0.4401 -6.0965 -2.5016 0.9739
-0.2210 -6.1085 -2.5017 0.9739
0.2179 -6.1089 -2.5018 0.9739
0.4371 -6.0973 -2.5019 0.9739
0.8735 -6.0505 -2.5020 0.9739
1.3054 -5.9726 -2.5021 0.9739
1.7307 -5.8638 -2.5023 0.9739
2.1471 -5.7248 -2.5024 0.9739
2.3513 -5.6441 -2.5024 0.9739
3.1352 -5.2500 -2.5027 0.9739
3.5040 -5.0116 -2.5028 0.9739
3.6817 -4.8827 -2.5028 0.9739
4.0228 -4.6062 -2.5029 0.9739
4.1850 -4.4589 -2.5030 0.9739
4.6410 -3.9832 -2.5031 0.9739
4.7811 -3.8141 -2.5031 0.9739
5.1636 -3.2781 -2.5032 0.9739
5.2781 -3.0907 -2.5033 0.9739
5.4864 -2.7041 -2.5033 0.9739
5.8171 -1.8910 -2.5034 0.9739
5.9868 -1.2546 -2.5035 0.9739
6.0281 -1.0389 -2.5035 0.9739
6.1108 0.2738 -2.5035 0.9739
6.0971 0.4929 -2.5035 0.9739
5.9636 1.3606 -2.5035 0.9739
5.9109 1.5738 -2.5035 0.9739
5.8505 1.7850 -2.5034 0.9739
5.7827 1.9938 -2.5034 0.9739
5.5346 2.6039 -2.5033 0.9739
5.3334 2.9943 -2.5033 0.9739
-2.3983 -5.2136 -2.5011 0.9753
-2.2096 -5.2965 -2.5011 0.9753
-2.0181 -5.3725 -2.5012 0.9753
-1.6275 -5.5037 -2.5013 0.9753
-1.4289 -5.5587 -2.5013 0.9753
-1.2284 -5.6066 -2.5014 0.9753
-0.8230 -5.6805 -2.5015 0.9753
-0.6186 -5.7065 -2.5016 0.9753
-0.4133 -5.7252 -2.5016 0.9753
0.2046 -5.7369 -2.5018 0.9753
0.8203 -5.6820 -2.5020 0.9753
1.2259 -5.6088 -2.5021 0.9753
1.4265 -5.5613 -2.5022 0.9753
1.8220 -5.4448 -2.5023 0.9753
2.0163 -5.3761 -2.5023 0.9753
2.2081 -5.3003 -2.5024 0.9753
2.5828 -5.1284 -2.5025 0.9753
2.7653 -5.0325 -2.5026 0.9753
2.9442 -4.9301 -2.5026 0.9753
3.1194 -4.8213 -2.5027 0.9753
3.7776 -4.3255 -2.5028 0.9753
3.9306 -4.1872 -2.5029 0.9753
4.0784 -4.0435 -2.5029 0.9753
4.2210 -3.8945 -2.5030 0.9753
4.4897 -3.5817 -2.5031 0.9753
4.6155 -3.4183 -2.5031 0.9753
4.8490 -3.0784 -2.5032 0.9752
5.0575 -2.7226 -2.5032 0.9752
5.3210 -2.1631 -2.5033 0.9752
5.5229 -1.5785 -2.5033 0.9752
5.6607 -0.9756 -2.5034 0.9752
5.7328 -0.3613 -2.5034 0.9752
5.6592 0.8698 -2.4953 0.9753
5.6425 1.0758 -2.5034 0.9752
5.6002 1.2777 -2.5034 0.9752
5.4303 1.8723 -2.5033 0.9752
5.3595 2.0661 -2.5033 0.9752
5.1973 2.4453 -2.5033 0.9752
5.1062 2.6302 -2.5032 0.9752
5.0084 2.8118 -2.5032 0.9752
4.9042 2.9898 -2.5032 0.9752
-2.6044 -4.7339 -2.5010 0.9765
-2.4328 -4.8245 -2.5010 0.9765
-2.0804 -4.9868 -2.5011 0.9765
-1.9001 -5.0584 -2.5012 0.9765
-1.7173 -5.1234 -2.5013 0.9765
-1.5323 -5.1819 -2.5013 0.9765
-0.9664 -5.3170 -2.5015 0.9765
-0.5824 -5.3729 -2.5016 0.9765
-0.0014 -5.4047 -2.5017 0.9765
0.1927 -5.4014 -2.5018 0.9765
0.5797 -5.3739 -2.5019 0.9765
0.7723 -5.3497 -2.5020 0.9765
0.9639 -5.3187 -2.5020 0.9765
1.3431 -5.2360 -2.5021 0.9765
1.5302 -5.1845 -2.5022 0.9765
1.7154 -5.1263 -2.5022 0.9765
1.8984 -5.0616 -2.5023 0.9765
2.4317 -4.8285 -2.5025 0.9765
2.6036 -4.7381 -2.5025 0.9765
2.7720 -4.6417 -2.5026 0.9765
2.9369 -4.5393 -2.5026 0.9765
3.0980 -4.4310 -2.5026 0.9765
3.4081 -4.1975 -2.5027 0.9764
3.5567 -4.0725 -2.5028 0.9764
3.7006 -3.9422 -2.5028 0.9764
4.1032 -3.5217 -2.5029 0.9764
4.2271 -3.3722 -2.5030 0.9764
4.3455 -3.2183 -2.5030 0.9764
4.4582 -3.0602 -2.5030 0.9764
4.5653 -2.8982 -2.5031 0.9764
4.7616 -2.5633 -2.5031 0.9764
4.9333 -2.2151 -2.5032 0.9764
5.0097 -2.0365 -2.5032 0.9764
5.2498 -1.2986 -2.5033 0.9764
5.2930 -1.1092 -2.5033 0.9764
5.3294 -0.9185 -2.5033 0.9764
5.3590 -0.7266 -2.5033 0.9764
5.3974 -0.3402 -2.5033 0.9764
5.4061 -0.1462 -2.5033 0.9764
5.3905 0.4358 -2.5033 0.9764
5.3280 0.8189 -2.4952 0.9765
5.2952 1.0096 -2.4952 0.9765
5.2555 1.1990 -2.4952 0.9765
5.2259 1.3914 -2.5033 0.9764
5.1125 1.7628 -2.5032 0.9764
4.8074 2.4763 -2.5031 0.9764
4.7153 2.6473 -2.5031 0.9764
4.6172 2.8149 -2.5031 0.9764
-2.6164 -4.3761 -2.5010 0.9775
-2.2958 -4.5527 -2.5011 0.9775
-1.6206 -4.8348 -2.5013 0.9775
-1.0914 -4.9814 -2.5014 0.9775
-0.7312 -5.0470 -2.5015 0.9775
-0.3672 -5.0867 -2.5016 0.9775
0.3647 -5.0873 -2.5019 0.9775
0.5471 -5.0711 -2.5019 0.9775
1.0892 -4.9832 -2.5021 0.9775
1.2674 -4.9409 -2.5021 0.9775
1.6187 -4.8375 -2.5022 0.9775
2.1296 -4.6357 -2.5024 0.9775
2.2947 -4.5563 -2.5024 0.9775
2.6158 -4.3801 -2.5025 0.9775
2.7714 -4.2835 -2.5026 0.9775
3.0717 -4.0737 -2.5026 0.9775
3.3562 -3.8429 -2.5027 0.9775
3.6234 -3.5923 -2.5028 0.9775
3.7501 -3.4600 -2.5028 0.9775
3.9888 -3.1821 -2.5029 0.9775
4.1005 -3.0369 -2.5029 0.9775
4.4034 -2.5785 -2.5030 0.9775
4.5771 -2.2559 -2.5031 0.9775
4.6552 -2.0902 -2.5031 0.9775
4.9066 -1.4024 -2.5032 0.9775
4.9538 -1.2253 -2.5032 0.9775
5.0783 -0.5037 -2.5032 0.9775
5.0931 -0.3210 -2.5032 0.9775
5.1013 -0.1380 -2.5032 0.9775
5.1030 0.0452 -2.5032 0.9775
5.0981 0.2284 -2.5032 0.9775
5.0685 0.5936 -2.5032 0.9775
5.0276 0.7727 -2.4952 0.9776
4.9967 0.9527 -2.4951 0.9776
4.8243 1.6634 -2.5031 0.9775
4.5364 2.3367 -2.5031 0.9775
4.4495 2.4980 -2.5030 0.9775
4.3569 2.6561 -2.5030 0.9775
-2.3238 -4.2241 -2.5011 0.9785
-2.0148 -4.3800 -2.5012 0.9785
-1.8563 -4.4496 -2.5012 0.9785
-1.6954 -4.5135 -2.5013 0.9785
-1.5325 -4.5715 -2.5013 0.9785
-1.3672 -4.6237 -2.5014 0.9785
-1.0320 -4.7101 -2.5015 0.9785
-0.8623 -4.7442 -2.5015 0.9785
-0.6914 -4.7721 -2.5015 0.9785
-0.1743 -4.8191 -2.5017 0.9785
0.3448 -4.8102 -2.5018 0.9785
0.6891 -4.7732 -2.5019 0.9785
1.0299 -4.7117 -2.5020 0.9785
1.3653 -4.6259 -2.5021 0.9785
1.6934 -4.5161 -2.5022 0.9785
1.8547 -4.4525 -2.5023 0.9785
2.0135 -4.3831 -2.5023 0.9785
2.3230 -4.2275 -2.5024 0.9785
2.4733 -4.1414 -2.5025 0.9785
2.6204 -4.0501 -2.5025 0.9785
2.9043 -3.8517 -2.5026 0.9785
3.0408 -3.7451 -2.5026 0.9785
3.1733 -3.6335 -2.5027 0.9785
3.3018 -3.5173 -2.5027 0.9785
3.6609 -3.1421 -2.5028 0.9785
3.7714 -3.0087 -2.5028 0.9785
3.9777 -2.7304 -2.5029 0.9785
4.0732 -2.5858 -2.5029 0.9785
4.4015 -1.9762 -2.5030 0.9785
4.5321 -1.6554 -2.5031 0.9785
4.6392 -1.3260 -2.5031 0.9785
4.7224 -0.9897 -2.5031 0.9785
4.7549 -0.8195 -2.5031 0.9785
4.7813 -0.6483 -2.5031 0.9785
4.8233 -0.1304 -2.5031 0.9785
4.8249 0.0428 -2.5031 0.9785
4.8094 0.3889 -2.5031 0.9785
4.7243 0.9008 -2.4951 0.9786
4.3658 2.0540 -2.5030 0.9785
4.2892 2.2094 -2.5030 0.9785
4.2070 2.3619 -2.5030 0.9785
-2.3433 -3.9193 -2.5011 0.9794
-2.0561 -4.0775 -2.5012 0.9794
-1.6059 -4.2752 -2.5013 0.9794
-1.2951 -4.3796 -2.5014 0.9794
-1.1370 -4.4233 -2.5014 0.9794
-0.8167 -4.4936 -2.5015 0.9794
-0.1651 -4.5646 -2.5017 0.9794
-0.0012 -4.5677 -2.5017 0.9794
0.8144 -4.4949 -2.5020 0.9794
1.1351 -4.4251 -2.5021 0.9794
1.2932 -4.3815 -2.5021 0.9794
1.7569 -4.2173 -2.5023 0.9794
1.9072 -4.1516 -2.5023 0.9794
2.0550 -4.0805 -2.5023 0.9794
2.7509 -3.6483 -2.5025 0.9794
2.8802 -3.5472 -2.5026 0.9794
3.0057 -3.4416 -2.5026 0.9794
3.3584 -3.0986 -2.5027 0.9794
3.6722 -2.7197 -2.5028 0.9794
3.7675 -2.5861 -2.5028 0.9794
3.9434 -2.3092 -2.5029 0.9794
4.0239 -2.1661 -2.5029 0.9794
4.2335 -1.7210 -2.5030 0.9794
4.3462 -1.4128 -2.5030 0.9794
4.4364 -1.0973 -2.5030 0.9794
4.4729 -0.9374 -2.5030 0.9794
4.5685 -0.1236 -2.5031 0.9794
4.5700 0.0405 -2.5031 0.9794
4.5656 0.2045 -2.5031 0.9794
4.5553 0.3683 -2.5031 0.9794
4.5391 0.5316 -2.5031 0.9794
4.5171 0.6942 -2.5031 0.9794
4.4162 1.1758 -2.5030 0.9794
4.3711 1.3336 -2.5030 0.9794
4.3204 1.4897 -2.5030 0.9794
4.2023 1.7958 -2.5030 0.9794
4.0626 2.0927 -2.5029 0.9794
-2.2230 -3.7182 -2.5011 0.9802
-1.9506 -3.8682 -2.5012 0.9802
-1.3769 -4.1079 -2.5014 0.9802
-1.2286 -4.1547 -2.5014 0.9802
-0.7748 -4.2629 -2.5015 0.9802
-0.4669 -4.3077 -2.5016 0.9802
-0.1567 -4.3302 -2.5017 0.9802
-0.0011 -4.3332 -2.5017 0.9802
0.4648 -4.3084 -2.5019 0.9802
0.7728 -4.2641 -2.5020 0.9802
1.0768 -4.1978 -2.5021 0.9802
1.2268 -4.1565 -2.5021 0.9802
1.5220 -4.0579 -2.5022 0.9802
1.6667 -4.0007 -2.5022 0.9802
1.8092 -3.9384 -2.5023 0.9802
2.0872 -3.7985 -2.5024 0.9802
2.2223 -3.7212 -2.5024 0.9802
2.7322 -3.3650 -2.5025 0.9802
3.1859 -2.9394 -2.5027 0.9802
3.3887 -2.7033 -2.5027 0.9802
3.4836 -2.5800 -2.5028 0.9802
3.6598 -2.3234 -2.5028 0.9802
3.7409 -2.1905 -2.5028 0.9802
3.8171 -2.0549 -2.5029 0.9802
3.8885 -1.9165 -2.5029 0.9802
3.9548 -1.7757 -2.5029 0.9802
4.0160 -1.6326 -2.5029 0.9802
4.1229 -1.3402 -2.5029 0.9802
4.2085 -1.0409 -2.5030 0.9802
4.2431 -0.8892 -2.5030 0.9802
4.3338 -0.1172 -2.5030 0.9802
4.3212 0.3494 -2.5030 0.9802
4.2448 0.8093 -2.4949 0.9802
4.2130 0.9612 -2.4949 0.9802
4.1893 1.1154 -2.5030 0.9802
4.0984 1.4131 -2.5029 0.9802
3.9864 1.7035 -2.5029 0.9802
3.9227 1.8455 -2.5029 0.9802
3.8539 1.9851 -2.5029 0.9802
3.7801 2.1222 -2.5028 0.9802
3.7014 2.2565 -2.5028 0.9802
