ply
format ascii 1.0
element vertex 1218
property float32 x
property float32 y
property float32 z
property float32 I
end_header
2.9954 -1.2479 0.5722 0.9869
2.9942 -1.1224 0.5638 0.9871
2.9930 -1.0004 0.5564 0.9873
2.9907 -0.7650 0.5443 0.9875
2.9896 -0.6508 0.5395 0.9876
2.9875 -0.4277 0.5321 0.9878
2.9864 -0.3182 0.5296 0.9879
2.9854 -0.2095 0.5277 0.9879
2.4102 0.3553 0.4296 0.9902
2.4094 0.4445 0.4320 0.9901
2.6503 0.5885 0.4787 0.9890
2.9761 0.7745 0.5423 0.9876
2.9751 0.8900 0.5476 0.9875
2.9717 1.2525 0.5686 0.9870
2.9694 1.5122 0.5876 0.9866
2.9681 1.6489 0.5987 0.9863
2.9655 1.9397 0.6248 0.9857
2.9626 2.2587 0.6569 0.9850
2.9611 2.4313 0.6756 0.9846
2.9595 2.6142 0.6963 0.9841
2.9539 3.2413 0.7733 0.9823
2.9518 3.4834 0.8051 0.9816
2.9495 3.7467 0.8408 0.9808
2.9441 4.3522 0.9265 0.9789
2.7936 4.4689 0.9293 0.9788
3.2413 6.7020 1.3127 0.9702
2.9213 6.6414 1.2793 0.9710
2.6184 6.5877 1.2500 0.9716
2.3549 6.6098 1.2372 0.9719
2.3669 8.5488 1.5641 0.9646
10.4534 43.8483 7.9483 0.8327
8.6618 43.1823 7.7659 0.8362
6.9486 42.5469 7.6016 0.8394
5.2610 41.5950 7.3927 0.8434
2.1945 40.8510 7.2135 0.8469
0.8662 49.2257 8.6812 0.8188
-1.4051 11.0312 1.9608 0.9558
-1.8108 11.0269 1.9704 0.9556
-2.6370 11.0181 1.9977 0.9550
-3.0598 11.0136 2.0156 0.9546
-3.4908 11.0089 2.0364 0.9542
-3.8914 10.8924 2.0395 0.9541
-4.4468 9.1740 1.7976 0.9594
2.9951 -1.2477 0.4970 0.9870
2.9938 -1.1223 0.4898 0.9871
2.9235 -0.5268 0.4551 0.9881
2.9225 -0.4184 0.4523 0.9881
2.9850 -0.2095 0.4584 0.9880
2.9840 -0.1015 0.4574 0.9880
2.5892 0.1925 0.3977 0.9895
2.4108 0.2670 0.3716 0.9902
2.9093 0.9859 0.4706 0.9876
2.9082 1.1040 0.4765 0.9875
2.9059 1.3502 0.4909 0.9871
2.9678 1.6487 0.5201 0.9864
2.9665 1.7910 0.5308 0.9861
2.9637 2.0949 0.5560 0.9854
2.9622 2.2584 0.5706 0.9850
2.9591 2.6138 0.6048 0.9841
2.9534 3.2407 0.6717 0.9824
2.9464 4.0340 0.7653 0.9800
2.4857 4.6994 0.8144 0.9787
3.0479 6.3021 1.0724 0.9721
2.7512 6.2546 1.0468 0.9727
2.4692 6.2124 1.0241 0.9733
2.7734 8.7734 1.4096 0.9634
2.4445 8.8290 1.4034 0.9636
5.2939 41.8555 6.4631 0.8431
3.7113 41.2449 6.3440 0.8457
-1.1474 12.6266 1.9423 0.9500
-2.2219 11.0266 1.7232 0.9555
-2.6379 11.0222 1.7362 0.9552
-3.0609 11.0177 1.7518 0.9548
-3.8929 10.8965 1.7726 0.9543
-3.8205 9.5875 1.5811 0.9591
-4.0484 9.1817 1.5373 0.9602
-4.4486 9.1776 1.5624 0.9596
-4.8625 9.1733 1.5905 0.9589
2.9663 -1.2357 0.4184 0.9871
2.9657 -1.1117 0.4124 0.9873
2.9645 -0.9909 0.4070 0.9875
2.9634 -0.8730 0.4023 0.9876
2.9623 -0.7578 0.3982 0.9877
2.9612 -0.6446 0.3946 0.9878
2.9601 -0.5334 0.3917 0.9879
2.9517 -0.3145 0.3866 0.9881
2.9847 -0.2095 0.3896 0.9880
2.9827 0.0062 0.3884 0.9880
2.9817 0.1138 0.3886 0.9880
2.4121 0.1794 0.3150 0.9903
2.4089 0.4444 0.3190 0.9902
2.9765 0.6610 0.3970 0.9878
2.9754 0.7743 0.4004 0.9877
2.9446 1.1178 0.4102 0.9874
2.9435 1.2406 0.4160 0.9872
2.9423 1.3671 0.4225 0.9870
2.9399 1.6332 0.4379 0.9865
2.9386 1.7742 0.4470 0.9862
2.8962 2.3780 0.4880 0.9850
2.8946 2.5569 0.5029 0.9845
2.9569 2.8081 0.5310 0.9837
2.9530 3.2402 0.5709 0.9825
2.9508 3.4822 0.5944 0.9818
2.9484 3.7453 0.6207 0.9810
2.9399 4.7029 0.7222 0.9779
2.7856 4.8358 0.7267 0.9777
2.3593 5.9359 0.8318 0.9746
2.9090 8.1652 1.1287 0.9656
2.8670 9.0695 1.2386 0.9624
2.5266 9.1257 1.2331 0.9625
2.4812 12.3699 1.6429 0.9504
6.9513 42.5636 5.6161 0.8403
0.7080 40.2298 5.2396 0.8502
-1.1489 12.6437 1.6533 0.9501
-1.8121 11.0349 1.4562 0.9559
-2.2227 11.0306 1.4653 0.9556
-2.6389 11.0262 1.4764 0.9553
-3.4934 11.0172 1.5051 0.9544
-3.8944 10.9006 1.5074 0.9544
-3.8217 9.5904 1.3444 0.9592
-4.4503 9.1812 1.3286 0.9597
-4.8645 9.1769 1.3525 0.9590
2.9642 -0.9908 0.3356 0.9875
2.9598 -0.5334 0.3230 0.9880
2.9844 -0.2094 0.3213 0.9880
2.9834 -0.1015 0.3205 0.9881
2.9823 0.0062 0.3203 0.9881
2.4361 0.0930 0.2618 0.9902
2.4268 0.5389 0.2669 0.9900
2.9741 0.8896 0.3333 0.9876
2.9420 1.3669 0.3483 0.9870
2.9408 1.4976 0.3544 0.9868
2.9382 1.7739 0.3686 0.9863
2.9354 2.0749 0.3860 0.9856
2.9340 2.2368 0.3962 0.9853
2.9324 2.4077 0.4074 0.9849
2.9308 2.5888 0.4199 0.9844
2.9290 2.7816 0.4338 0.9839
2.9251 3.2096 0.4663 0.9827
2.8841 3.6636 0.5007 0.9814
2.9424 4.3497 0.5639 0.9791
2.9392 4.7019 0.5954 0.9779
2.8874 5.0125 0.6212 0.9770
2.6691 5.0460 0.6130 0.9773
2.4667 5.6079 0.6579 0.9757
2.9155 7.3352 0.8476 0.9687
2.6139 9.4409 1.0519 0.9614
2.8172 11.8173 1.3045 0.9523
2.2915 14.0312 1.5267 0.9444
-1.1505 12.6606 1.3651 0.9501
-1.1741 9.2171 0.9977 0.9633
-1.5131 9.2138 1.0027 0.9631
-1.8559 9.2105 1.0089 0.9629
-2.9172 9.2001 1.0364 0.9619
-3.2855 9.1965 1.0487 0.9615
-3.6632 9.1927 1.0626 0.9610
-4.0515 9.1888 1.0784 0.9604
-4.8664 9.1806 1.1158 0.9591
2.9650 -1.1115 0.2681 0.9874
2.9616 -0.7576 0.2588 0.9878
2.9606 -0.6445 0.2565 0.9879
2.9595 -0.5333 0.2546 0.9880
2.9335 -0.3125 0.2497 0.9882
2.9830 -0.1015 0.2527 0.9881
2.4973 0.0052 0.2114 0.9900
2.4361 0.0930 0.2064 0.9903
2.8520 0.2121 0.2421 0.9886
2.9790 0.3299 0.2537 0.9880
2.6533 0.4895 0.2284 0.9892
2.4910 0.6483 0.2179 0.9897
2.9439 1.1175 0.2666 0.9874
2.9428 1.2403 0.2703 0.9873
2.9416 1.3668 0.2746 0.9871
2.9404 1.4974 0.2793 0.9868
2.9392 1.6328 0.2846 0.9866
2.9378 1.7737 0.2905 0.9863
2.9365 1.9207 0.2970 0.9860
2.9336 2.2365 0.3123 0.9853
2.9303 2.5885 0.3310 0.9844
2.9286 2.7812 0.3419 0.9839
2.9267 2.9874 0.3540 0.9834
2.9246 3.2091 0.3676 0.9827
2.9224 3.4488 0.3827 0.9820
2.9200 3.7093 0.3996 0.9812
2.9351 5.0953 0.4978 0.9767
2.3631 5.3722 0.4968 0.9767
2.9071 8.1600 0.7333 0.9658
2.8980 9.1675 0.8139 0.9621
2.8522 14.2193 1.2277 0.9434
2.3720 14.5240 1.2458 0.9426
2.3957 18.9409 1.6162 0.9262
1.2813 23.8524 2.0221 0.9086
-1.1520 12.6775 1.0776 0.9502
-2.2043 9.2105 0.8017 0.9627
-2.9183 9.2035 0.8173 0.9620
-3.2868 9.1999 0.8270 0.9615
-4.0531 9.1923 0.8504 0.9605
-4.4538 9.1884 0.8644 0.9598
2.9624 -0.8727 0.1915 0.9877
2.9613 -0.7575 0.1895 0.9878
2.9602 -0.6444 0.1879 0.9879
2.9592 -0.5332 0.1865 0.9880
2.9581 -0.4235 0.1853 0.9881
2.9245 -0.3116 0.1824 0.9883
2.9837 -0.2094 0.1855 0.9881
2.9827 -0.1014 0.1851 0.9881
2.4979 0.0052 0.1549 0.9900
2.8924 0.1104 0.1795 0.9885
2.9797 0.2216 0.1853 0.9881
2.9786 0.3298 0.1858 0.9881
2.9776 0.4390 0.1866 0.9880
2.9079 0.9854 0.1904 0.9878
2.9436 1.1174 0.1952 0.9875
2.9412 1.3666 0.2011 0.9871
2.9388 1.6326 0.2085 0.9866
2.9375 1.7735 0.2128 0.9863
2.9361 1.9204 0.2176 0.9860
2.9347 2.0744 0.2229 0.9857
2.9299 2.5881 0.2424 0.9845
2.9281 2.7808 0.2504 0.9839
2.9262 2.9870 0.2593 0.9834
2.9196 3.7087 0.2927 0.9813
2.9108 4.6564 0.3405 0.9782
2.9344 5.0942 0.3646 0.9767
2.7131 5.1293 0.3598 0.9770
2.4136 5.4871 0.3717 0.9763
2.8343 8.9660 0.5831 0.9630
2.8065 10.1365 0.6522 0.9587
2.4239 10.1673 0.6481 0.9590
2.8507 14.2118 0.8988 0.9436
2.4829 19.6307 1.2270 0.9238
0.4198 23.8528 1.4793 0.9088
-0.7514 40.6632 2.5220 0.8496
-1.1536 12.6944 0.7904 0.9502
-1.5141 9.2204 0.5794 0.9632
-1.8573 9.2171 0.5830 0.9630
-2.5588 9.2103 0.5928 0.9624
-2.9194 9.2069 0.5989 0.9620
-3.2880 9.2033 0.6060 0.9616
-3.6659 9.1996 0.6141 0.9611
-4.0546 9.1958 0.6232 0.9605
-4.4555 9.1919 0.6334 0.9599
2.9643 -1.1112 0.1248 0.9874
2.9632 -0.9904 0.1232 0.9876
2.9609 -0.7574 0.1205 0.9878
2.9824 -0.1014 0.1177 0.9881
2.7990 0.0058 0.1104 0.9889
2.9773 0.4389 0.1187 0.9880
2.9324 0.6512 0.1184 0.9880
2.6319 0.6849 0.1072 0.9892
2.9433 1.1173 0.1241 0.9875
2.9421 1.2400 0.1259 0.9873
2.9409 1.3664 0.1279 0.9871
2.9397 1.4970 0.1301 0.9869
2.9384 1.6324 0.1325 0.9866
2.9371 1.7733 0.1353 0.9864
2.9343 2.0741 0.1417 0.9857
2.9328 2.2359 0.1454 0.9853
2.9277 2.7804 0.1592 0.9840
2.9215 3.4476 0.1782 0.9821
2.9102 4.6555 0.2165 0.9783
2.8604 4.9657 0.2260 0.9773
2.6255 4.9636 0.2214 0.9778
2.5094 5.7050 0.2458 0.9754
2.8860 7.2609 0.3081 0.9692
2.4708 10.3640 0.4201 0.9582
2.5318 15.5024 0.6194 0.9391
0.4199 23.8611 0.9410 0.9089
-1.1551 12.7114 0.5033 0.9502
-3.2892 9.2067 0.3855 0.9616
-3.6673 9.2031 0.3906 0.9611
-4.0562 9.1993 0.3964 0.9606
-4.8722 9.1915 0.4102 0.9592
2.9640 -1.1111 0.0535 0.9874
2.9606 -0.7573 0.0516 0.9878
2.9196 -0.3110 0.0496 0.9883
2.9831 -0.2093 0.0505 0.9881
2.9811 0.0062 0.0504 0.9881
2.9759 0.5490 0.0511 0.9880
2.9749 0.6606 0.0515 0.9879
2.9738 0.7739 0.0519 0.9878
2.9727 0.8892 0.0524 0.9877
2.9073 0.9852 0.0519 0.9878
2.9429 1.1172 0.0532 0.9875
2.9014 1.6119 0.0561 0.9868
2.9001 1.7509 0.0572 0.9865
2.8925 2.5550 0.0652 0.9847
2.8907 2.7453 0.0673 0.9842
2.8888 2.9488 0.0697 0.9836
2.8845 3.4040 0.0754 0.9823
2.8733 4.5965 0.0916 0.9785
2.9332 5.0920 0.0993 0.9768
2.9290 5.5373 0.1058 0.9753
2.8555 6.4918 0.1198 0.9720
2.8491 7.1682 0.1303 0.9696
2.8416 7.9759 0.1430 0.9667
2.7579 16.8873 0.2890 0.9338
1.2827 23.8775 0.4039 0.9088
0.4200 23.8694 0.4033 0.9089
-1.5152 9.2269 0.1580 0.9633
-1.8586 9.2237 0.1589 0.9631
-2.2067 9.2204 0.1602 0.9628
-2.5607 9.2170 0.1616 0.9625
-3.2904 9.2101 0.1652 0.9616
-4.8741 9.1951 0.1758 0.9592
2.9880 -0.7643 -0.0174 0.9877
2.9869 -0.6502 -0.0172 0.9878
2.9859 -0.5381 -0.0171 0.9879
2.9848 -0.4273 -0.0170 0.9880
2.9838 -0.3179 -0.0169 0.9881
2.9807 0.0062 -0.0168 0.9881
2.9787 0.2215 -0.0168 0.9881
2.9777 0.3297 -0.0169 0.9881
2.9724 0.8891 -0.0175 0.9877
2.9713 1.0069 -0.0177 0.9875
2.9701 1.1275 -0.0179 0.9874
2.9665 1.5107 -0.0187 0.9868
2.9652 1.6473 -0.0191 0.9865
2.9638 1.7894 -0.0195 0.9862
2.9594 2.2563 -0.0209 0.9852
2.9578 2.4286 -0.0215 0.9848
2.9561 2.6112 -0.0222 0.9843
2.9542 2.8056 -0.0229 0.9838
2.9523 3.0136 -0.0238 0.9833
2.9478 3.4787 -0.0257 0.9819
2.9426 4.0289 -0.0281 0.9802
2.9283 5.5360 -0.0353 0.9753
2.9235 6.0448 -0.0378 0.9735
2.8821 10.4095 -0.0608 0.9577
2.8667 12.0249 -0.0696 0.9518
2.8172 17.2498 -0.0984 0.9325
-0.7494 40.5554 -0.2284 0.8502
-1.1582 12.7452 -0.0720 0.9501
-1.1761 9.2333 -0.0524 0.9635
-3.6700 9.2100 -0.0558 0.9611
-4.0592 9.2063 -0.0566 0.9606
-4.8760 9.1987 -0.0586 0.9592
2.9922 -1.2465 -0.0913 0.9871
2.9910 -1.1212 -0.0899 0.9873
2.9899 -0.9994 -0.0888 0.9875
2.9877 -0.7642 -0.0868 0.9877
2.9866 -0.6502 -0.0861 0.9878
2.9835 -0.3179 -0.0845 0.9881
2.9825 -0.2093 -0.0842 0.9881
2.9804 0.0062 -0.0839 0.9881
2.9794 0.1137 -0.0840 0.9881
2.9783 0.2215 -0.0841 0.9881
2.9774 0.3297 -0.0843 0.9881
2.9742 0.6605 -0.0858 0.9879
2.9731 0.7737 -0.0865 0.9878
2.9709 1.0068 -0.0883 0.9875
2.9686 1.2512 -0.0907 0.9872
2.9648 1.6471 -0.0955 0.9865
2.9635 1.7892 -0.0975 0.9862
2.9606 2.0927 -0.1021 0.9856
2.9590 2.2560 -0.1048 0.9852
2.9557 2.6108 -0.1110 0.9843
2.9518 3.0131 -0.1188 0.9833
2.9474 3.4782 -0.1284 0.9819
2.9421 4.0282 -0.1405 0.9802
2.9228 6.0433 -0.1890 0.9735
2.9171 6.6318 -0.2040 0.9714
2.9026 8.1472 -0.2435 0.9660
2.8930 9.1516 -0.2703 0.9623
2.8447 14.1820 -0.4073 0.9438
1.8799 20.8916 -0.5906 0.9195
-1.1597 12.7622 -0.3608 0.9500
-1.8599 9.2302 -0.2651 0.9630
-2.9236 9.2204 -0.2724 0.9620
-4.0608 9.2098 -0.2834 0.9605
2.9919 -1.2464 -0.1644 0.9871
2.9907 -1.1211 -0.1620 0.9873
2.9884 -0.8804 -0.1580 0.9876
2.9873 -0.7642 -0.1564 0.9877
2.9863 -0.6501 -0.1550 0.9878
2.9852 -0.5379 -0.1538 0.9879
2.9842 -0.4273 -0.1529 0.9880
2.9821 -0.2093 -0.1516 0.9881
2.9811 -0.1014 -0.1513 0.9881
2.9791 0.1137 -0.1512 0.9881
2.9760 0.4387 -0.1526 0.9880
2.9749 0.5488 -0.1534 0.9880
2.9728 0.7736 -0.1558 0.9878
2.9717 0.8889 -0.1573 0.9877
2.9694 1.1272 -0.1611 0.9874
2.9683 1.2510 -0.1634 0.9872
2.9670 1.3786 -0.1659 0.9870
2.9658 1.5103 -0.1688 0.9868
2.9645 1.6469 -0.1720 0.9865
2.9631 1.7889 -0.1755 0.9862
2.9570 2.4279 -0.1940 0.9848
2.9513 3.0126 -0.2139 0.9833
2.9443 3.7401 -0.2414 0.9811
2.9351 4.6953 -0.2808 0.9781
2.9313 5.0888 -0.2978 0.9768
2.9163 6.6301 -0.3673 0.9714
2.9096 7.3205 -0.3995 0.9689
2.9017 8.1446 -0.4385 0.9660
2.8920 9.1484 -0.4866 0.9623
1.8018 20.0247 -1.0196 0.9226
-2.4953 45.6990 -2.3210 0.8325
-1.1613 12.7793 -0.6508 0.9499
-1.4101 11.0703 -0.5660 0.9563
-1.8173 11.0662 -0.5687 0.9561
-3.9059 10.9330 -0.5888 0.9546
-3.8309 9.6135 -0.5248 0.9594
-4.0623 9.2133 -0.5106 0.9605
2.9892 -0.9992 -0.2311 0.9874
2.9881 -0.8803 -0.2284 0.9876
2.9870 -0.7641 -0.2261 0.9877
2.9859 -0.6500 -0.2241 0.9878
2.9828 -0.3178 -0.2199 0.9880
2.9808 -0.1014 -0.2187 0.9881
2.9777 0.2214 -0.2189 0.9881
2.9767 0.3296 -0.2196 0.9881
2.9757 0.4387 -0.2205 0.9880
2.9746 0.5488 -0.2218 0.9879
2.9735 0.6603 -0.2233 0.9879
2.9702 1.0065 -0.2299 0.9875
2.9679 1.2509 -0.2361 0.9872
2.9667 1.3784 -0.2399 0.9870
2.9654 1.5101 -0.2440 0.9867
2.9627 1.7887 -0.2538 0.9862
2.9582 2.2553 -0.2727 0.9852
2.9548 2.6101 -0.2891 0.9843
2.9529 2.8044 -0.2986 0.9838
2.9509 3.0122 -0.3092 0.9832
2.9438 3.7395 -0.3490 0.9811
2.9379 4.3431 -0.3845 0.9792
2.9345 4.6944 -0.4059 0.9780
2.9156 6.6283 -0.5309 0.9714
2.9088 7.3184 -0.5774 0.9689
2.9008 8.1421 -0.6337 0.9659
2.8787 10.3972 -0.7910 0.9577
2.4042 10.0847 -0.7602 0.9593
2.1484 10.7108 -0.8010 0.9571
2.0740 12.6995 -0.9435 0.9497
1.9672 15.5537 -1.1495 0.9391
-0.6060 32.7957 -2.4051 0.8767
-1.8179 11.0701 -0.8226 0.9560
-2.2298 11.0661 -0.8277 0.9557
-2.6475 11.0619 -0.8340 0.9554
-3.9074 10.9371 -0.8516 0.9545
-3.8320 9.6164 -0.7590 0.9593
-4.0639 9.2169 -0.7386 0.9604
-4.4658 9.2133 -0.7507 0.9598
-4.7424 8.9465 -0.7424 0.9602
2.9912 -1.2461 -0.3111 0.9871
2.9900 -1.1208 -0.3066 0.9873
2.9889 -0.9990 -0.3025 0.9874
2.9846 -0.5378 -0.2911 0.9879
2.9835 -0.4272 -0.2894 0.9880
2.9815 -0.2092 -0.2869 0.9881
2.9804 -0.1014 -0.2863 0.9881
2.9794 0.0062 -0.2860 0.9881
2.9784 0.1137 -0.2861 0.9881
2.9764 0.3296 -0.2875 0.9880
2.9753 0.4386 -0.2887 0.9880
2.9743 0.5487 -0.2904 0.9879
2.9732 0.6602 -0.2924 0.9878
2.9721 0.7734 -0.2948 0.9877
2.9710 0.8887 -0.2977 0.9876
2.9687 1.1270 -0.3049 0.9873
2.9637 1.6465 -0.3255 0.9865
2.9624 1.7885 -0.3322 0.9862
2.9609 1.9367 -0.3397 0.9859
2.9578 2.2550 -0.3571 0.9852
2.9562 2.4272 -0.3672 0.9847
2.9544 2.6097 -0.3784 0.9843
2.9504 3.0117 -0.4048 0.9832
2.9483 3.2350 -0.4202 0.9826
2.9433 3.7388 -0.4568 0.9811
2.9405 4.0260 -0.4786 0.9802
2.9301 5.0866 -0.5636 0.9767
2.9256 5.5310 -0.6007 0.9752
2.9148 6.6266 -0.6950 0.9713
2.9080 7.3163 -0.7558 0.9689
2.8999 8.1395 -0.8295 0.9659
2.8900 9.1420 -0.9205 0.9622
2.4070 8.6937 -0.8660 0.9644
2.0718 8.6905 -0.8577 0.9647
1.7425 8.6873 -0.8506 0.9650
1.4182 8.6841 -0.8448 0.9653
1.0979 8.6811 -0.8401 0.9654
-0.1602 8.6691 -0.8324 0.9658
-0.4733 8.6662 -0.8332 0.9657
-1.4218 8.6575 -0.8423 0.9654
-2.0706 8.6515 -0.8540 0.9649
-2.7414 8.6455 -0.8707 0.9642
-3.0881 8.6436 -0.8812 0.9638
2.9896 -1.1207 -0.3793 0.9872
2.9853 -0.6499 -0.3629 0.9878
2.9832 -0.4271 -0.3580 0.9879
2.9822 -0.3177 -0.3562 0.9880
2.9812 -0.2092 -0.3550 0.9880
2.9791 0.0062 -0.3539 0.9881
2.9771 0.2214 -0.3546 0.9880
2.9760 0.3296 -0.3557 0.9880
2.9750 0.4386 -0.3572 0.9880
2.9729 0.6602 -0.3617 0.9878
2.9718 0.7734 -0.3648 0.9877
2.9684 1.1268 -0.3772 0.9873
2.9672 1.2506 -0.3825 0.9871
2.9634 1.6463 -0.4027 0.9864
2.9620 1.7883 -0.4110 0.9862
2.9574 2.2547 -0.4417 0.9851
2.9540 2.6093 -0.4682 0.9842
2.9520 2.8035 -0.4836 0.9837
2.9500 3.0113 -0.5007 0.9832
2.9478 3.2345 -0.5198 0.9825
2.9454 3.4758 -0.5412 0.9818
2.9428 3.7382 -0.5651 0.9810
2.9294 5.0855 -0.6971 0.9766
2.9250 5.5297 -0.7431 0.9751
2.9071 7.3142 -0.9349 0.9688
2.8889 9.1388 -1.1385 0.9621
1.7431 8.6904 -1.0529 0.9649
1.0983 8.6841 -1.0398 0.9654
0.7811 8.6811 -1.0354 0.9655
0.4661 8.6781 -1.0323 0.9656
-0.1603 8.6722 -1.0303 0.9657
-1.4223 8.6605 -1.0425 0.9653
-2.0714 8.6547 -1.0571 0.9648
-2.7424 8.6487 -1.0777 0.9641
-3.0892 8.6468 -1.0907 0.9637
-3.4444 8.6437 -1.1053 0.9632
-3.8098 8.6405 -1.1217 0.9627
2.9871 -0.8800 -0.4412 0.9875
2.9849 -0.6498 -0.4328 0.9877
2.9818 -0.3177 -0.4249 0.9880
2.9808 -0.2092 -0.4234 0.9880
2.9757 0.3295 -0.4242 0.9880
2.9736 0.5486 -0.4284 0.9879
2.9692 1.0062 -0.4442 0.9874
2.9668 1.2504 -0.4562 0.9871
2.9656 1.3779 -0.4633 0.9869
2.9630 1.6461 -0.4803 0.9864
2.9616 1.7881 -0.4902 0.9861
2.9586 2.0913 -0.5134 0.9855
2.9553 2.4265 -0.5418 0.9847
2.9516 2.8031 -0.5768 0.9837
2.9495 3.0108 -0.5972 0.9831
2.9473 3.2340 -0.6200 0.9825
2.9449 3.4753 -0.6454 0.9818
2.9423 3.7375 -0.6740 0.9810
2.9363 4.3406 -0.7425 0.9791
2.9327 4.6915 -0.7839 0.9779
2.9243 5.5284 -0.8862 0.9750
2.9133 6.6231 -1.0252 0.9712
2.9063 7.3121 -1.1149 0.9687
2.4088 8.7002 -1.2791 0.9642
2.0733 8.6968 -1.2668 0.9645
1.4192 8.6904 -1.2476 0.9651
1.0987 8.6873 -1.2407 0.9652
0.4663 8.6812 -1.2318 0.9655
0.1527 8.6782 -1.2298 0.9655
-1.1039 8.6666 -1.2379 0.9653
-1.4228 8.6637 -1.2440 0.9652
-2.7434 8.6519 -1.2860 0.9640
2.9901 -1.2456 -0.5336 0.9870
2.9878 -0.9987 -0.5190 0.9873
2.9856 -0.7637 -0.5077 0.9876
2.9846 -0.6497 -0.5032 0.9877
2.9836 -0.5376 -0.4994 0.9878
2.9815 -0.3176 -0.4939 0.9879
2.9785 0.0062 -0.4907 0.9880
2.9774 0.1136 -0.4909 0.9880
2.9764 0.2213 -0.4917 0.9880
2.9754 0.3295 -0.4932 0.9879
2.9743 0.4385 -0.4953 0.9879
2.9733 0.5485 -0.4981 0.9878
2.9722 0.6600 -0.5016 0.9877
2.9700 0.8884 -0.5107 0.9875
2.9677 1.1266 -0.5229 0.9872
2.9665 1.2503 -0.5303 0.9870
2.9640 1.5094 -0.5479 0.9866
2.9626 1.6459 -0.5583 0.9864
2.9612 1.7878 -0.5698 0.9861
2.9598 1.9359 -0.5826 0.9858
2.9582 2.0910 -0.5968 0.9854
2.9566 2.2541 -0.6125 0.9850
2.9549 2.4262 -0.6298 0.9846
2.9531 2.6086 -0.6491 0.9842
2.9491 3.0103 -0.6942 0.9831
2.9468 3.2335 -0.7207 0.9824
2.9444 3.4747 -0.7503 0.9817
2.9321 4.6905 -0.9113 0.9778
2.9282 5.0833 -0.9664 0.9765
2.9236 5.5271 -1.0301 0.9750
2.9185 6.0345 -1.1043 0.9732
2.9125 6.6213 -1.1916 0.9711
2.9055 7.3099 -1.2959 0.9686
2.8869 9.1323 -1.5778 0.9619
2.4096 8.7034 -1.4877 0.9641
2.0741 8.7000 -1.4734 0.9644
1.7444 8.6967 -1.4612 0.9647
0.7816 8.6873 -1.4369 0.9653
-0.1604 8.6784 -1.4299 0.9654
-0.4738 8.6755 -1.4313 0.9654
-1.1044 8.6697 -1.4398 0.9652
-1.4233 8.6668 -1.4469 0.9650
-2.4054 8.6581 -1.4803 0.9642
-3.4471 8.6503 -1.5340 0.9630
-3.8127 8.6472 -1.5569 0.9624
-4.1900 8.6441 -1.5825 0.9618
2.9897 -1.2455 -0.6088 0.9869
2.9886 -1.1203 -0.5999 0.9871
2.9822 -0.4270 -0.5662 0.9878
2.9781 0.0062 -0.5598 0.9880
2.9751 0.3295 -0.5626 0.9879
2.9730 0.5485 -0.5682 0.9878
2.9708 0.7731 -0.5770 0.9876
2.9697 0.8883 -0.5826 0.9875
2.9685 1.0059 -0.5891 0.9873
2.9673 1.1264 -0.5966 0.9872
2.9661 1.2501 -0.6050 0.9870
2.9649 1.3776 -0.6145 0.9868
2.9636 1.5092 -0.6251 0.9866
2.9622 1.6457 -0.6369 0.9863
2.9608 1.7876 -0.6501 0.9860
2.9578 2.0907 -0.6808 0.9854
2.9562 2.2538 -0.6987 0.9850
2.9527 2.6082 -0.7405 0.9841
2.9507 2.8023 -0.7649 0.9836
2.9486 3.0098 -0.7920 0.9830
2.9463 3.2329 -0.8222 0.9824
2.9439 3.4741 -0.8559 0.9816
2.9412 3.7362 -0.8938 0.9808
2.9351 4.3388 -0.9846 0.9789
2.9315 4.6896 -1.0395 0.9777
2.9275 5.0822 -1.1024 0.9764
2.9229 5.5259 -1.1750 0.9749
2.9177 6.0329 -1.2596 0.9731
2.9046 7.3078 -1.4781 0.9685
2.8962 8.1291 -1.6220 0.9655
2.8858 9.1291 -1.7996 0.9618
2.4106 8.7067 -1.6981 0.9639
1.4203 8.6967 -1.6563 0.9648
0.1528 8.6845 -1.6326 0.9653
-0.7884 8.6757 -1.6374 0.9652
-1.1048 8.6728 -1.6433 0.9650
-1.4238 8.6700 -1.6514 0.9649
-1.7465 8.6671 -1.6618 0.9647
-3.0927 8.6566 -1.7278 0.9633
-3.4484 8.6536 -1.7509 0.9628
2.9839 -0.6496 -0.6455 0.9876
2.9829 -0.5375 -0.6407 0.9877
2.9818 -0.4269 -0.6367 0.9878
2.9808 -0.3176 -0.6337 0.9878
2.9788 -0.1013 -0.6300 0.9879
2.9768 0.1136 -0.6297 0.9879
2.9757 0.2213 -0.6307 0.9879
2.9747 0.3294 -0.6326 0.9878
2.9737 0.4384 -0.6354 0.9878
2.9726 0.5484 -0.6390 0.9877
2.9704 0.7730 -0.6488 0.9875
2.9693 0.8882 -0.6551 0.9874
2.9682 1.0058 -0.6625 0.9873
2.9670 1.1263 -0.6708 0.9871
2.9658 1.2500 -0.6803 0.9869
2.9645 1.3774 -0.6910 0.9867
2.9632 1.5090 -0.7029 0.9865
2.9619 1.6454 -0.7162 0.9862
2.9604 1.7874 -0.7310 0.9860
2.9574 2.0904 -0.7655 0.9853
2.9558 2.2535 -0.7857 0.9849
2.9502 2.8018 -0.8600 0.9835
2.9458 3.2324 -0.9244 0.9823
2.9434 3.4735 -0.9624 0.9816
2.9407 3.7355 -1.0049 0.9808
2.9378 4.0222 -1.0528 0.9798
2.9345 4.3380 -1.1071 0.9788
2.9222 5.5246 -1.3211 0.9748
2.9037 7.3056 -1.6618 0.9684
2.8848 9.1258 -2.0231 0.9616
2.4115 8.7100 -1.9104 0.9637
1.7457 8.7032 -1.8763 0.9644
1.4208 8.7000 -1.8633 0.9646
0.7822 8.6937 -1.8451 0.9649
0.4668 8.6906 -1.8397 0.9650
0.1528 8.6876 -1.8367 0.9651
-0.4741 8.6818 -1.8379 0.9651
-0.7887 8.6789 -1.8421 0.9650
-1.1052 8.6760 -1.8487 0.9649
-1.4244 8.6732 -1.8579 0.9647
-1.7471 8.6703 -1.8696 0.9645
-2.0745 8.6675 -1.8839 0.9642
-3.8157 8.6540 -1.9992 0.9621
-4.5841 8.6479 -2.0689 0.9608
2.9879 -1.1200 -0.7499 0.9870
2.9868 -0.9983 -0.7401 0.9871
2.9857 -0.8796 -0.7315 0.9873
2.9846 -0.7635 -0.7240 0.9874
2.9836 -0.6495 -0.7176 0.9875
2.9795 -0.2091 -0.7020 0.9878
2.9785 -0.1013 -0.7004 0.9878
2.9775 0.0062 -0.6998 0.9878
2.9764 0.1136 -0.7000 0.9878
2.9744 0.3294 -0.7033 0.9878
2.9690 0.8881 -0.7283 0.9873
2.9666 1.1262 -0.7458 0.9870
2.9654 1.2498 -0.7563 0.9869
2.9629 1.5088 -0.7814 0.9864
2.9601 1.7871 -0.8126 0.9859
2.9570 2.0902 -0.8511 0.9852
2.9518 2.6074 -0.9256 0.9839
2.9498 2.8014 -0.9561 0.9834
2.9454 3.2319 -1.0277 0.9822
2.9429 3.4729 -1.0698 0.9815
2.9262 5.0799 -1.3778 0.9762
2.9215 5.5232 -1.4685 0.9747
2.9101 6.6159 -1.6987 0.9707
2.8943 8.1238 -2.0268 0.9652
1.7463 8.7065 -2.0870 0.9642
0.7825 8.6969 -2.0522 0.9648
-0.7890 8.6821 -2.0489 0.9648
-1.7478 8.6735 -2.0794 0.9643
-3.8173 8.6575 -2.2237 0.9619
-4.5860 8.6515 -2.3013 0.9606
2.9886 -1.2450 -0.8383 0.9867
2.9875 -1.1199 -0.8261 0.9869
2.9864 -0.9982 -0.8153 0.9871
2.9843 -0.7634 -0.7976 0.9874
2.9832 -0.6495 -0.7905 0.9875
2.9812 -0.4268 -0.7797 0.9876
2.9801 -0.3175 -0.7760 0.9877
2.9791 -0.2091 -0.7732 0.9877
2.9781 -0.1013 -0.7715 0.9878
2.9740 0.3293 -0.7747 0.9877
2.9730 0.4383 -0.7781 0.9877
2.9719 0.5483 -0.7825 0.9876
2.9708 0.6597 -0.7879 0.9875
2.9697 0.7728 -0.7945 0.9874
2.9675 1.0056 -0.8112 0.9871
2.9663 1.1260 -0.8215 0.9870
2.9650 1.2497 -0.8331 0.9868
2.9638 1.3771 -0.8462 0.9866
2.9582 1.9349 -0.9152 0.9855
2.9566 2.0899 -0.9375 0.9852
2.9549 2.2528 -0.9621 0.9848
2.9532 2.4248 -0.9894 0.9843
2.9396 3.7342 -1.2305 0.9806
2.9256 5.0788 -1.5176 0.9761
2.9155 6.0283 -1.7338 0.9727
2.9093 6.6140 -1.8708 0.9706
2.8827 9.1191 -2.4763 0.9613
2.4133 8.7167 -2.3418 0.9633
1.4219 8.7065 -2.2841 0.9642
0.4672 8.6971 -2.2551 0.9647
0.1529 8.6941 -2.2514 0.9647
-0.1606 8.6911 -2.2506 0.9647
-1.1060 8.6825 -2.2662 0.9645
-1.4254 8.6796 -2.2774 0.9643
-1.7484 8.6768 -2.2917 0.9641
-2.0760 8.6740 -2.3093 0.9638
-2.7487 8.6684 -2.3545 0.9631
-3.0963 8.6667 -2.3829 0.9627
-3.4525 8.6639 -2.4148 0.9622
-3.8188 8.6610 -2.4508 0.9616
2.9882 -1.2449 -0.9164 0.9866
2.9871 -1.1198 -0.9031 0.9868
2.9829 -0.6494 -0.8642 0.9874
2.9768 0.0062 -0.8427 0.9877
2.9737 0.3293 -0.8470 0.9876
2.9716 0.5482 -0.8554 0.9875
2.9705 0.6596 -0.8614 0.9874
2.9683 0.8879 -0.8771 0.9872
2.9659 1.1259 -0.8981 0.9869
2.9634 1.3769 -0.9250 0.9865
2.9607 1.6448 -0.9588 0.9860
2.9562 2.0896 -1.0248 0.9851
2.9545 2.2525 -1.0518 0.9847
2.9509 2.6066 -1.1146 0.9838
2.9467 3.0079 -1.1920 0.9826
2.9444 3.2308 -1.2375 0.9820
2.9327 4.3354 -1.4818 0.9785
2.9249 5.0776 -1.6589 0.9759
2.9201 5.5206 -1.7680 0.9744
2.6569 8.4048 -2.4954 0.9640
2.3505 8.4893 -2.4937 0.9640
2.0431 8.5699 -2.4941 0.9640
0.7831 8.7034 -2.4738 0.9643
0.4673 8.7003 -2.4665 0.9644
-0.1607 8.6944 -2.4617 0.9645
-0.4746 8.6915 -2.4641 0.9645
-1.1064 8.6858 -2.4787 0.9643
-1.4246 8.6749 -2.4887 0.9641
-2.0480 8.5571 -2.4909 0.9641
-2.3562 8.4812 -2.4919 0.9641
-2.9581 8.2799 -2.4891 0.9641
-3.2566 8.1724 -2.4905 0.9641
2.9879 -1.2447 -0.9956 0.9865
2.9867 -1.1196 -0.9811 0.9867
2.9857 -0.9980 -0.9683 0.9869
2.9835 -0.7632 -0.9472 0.9872
2.9825 -0.6493 -0.9388 0.9873
2.9815 -0.5373 -0.9318 0.9874
2.9805 -0.4267 -0.9261 0.9875
2.9795 -0.3174 -0.9216 0.9875
2.9734 0.3293 -0.9201 0.9876
2.9712 0.5481 -0.9293 0.9874
2.9701 0.6596 -0.9358 0.9873
2.9655 1.1258 -0.9756 0.9868
2.9643 1.2494 -0.9894 0.9866
2.9630 1.3767 -1.0049 0.9864
2.9603 1.6446 -1.0416 0.9859
2.9589 1.7864 -1.0631 0.9856
2.9574 1.9343 -1.0869 0.9853
2.9504 2.6062 -1.2108 0.9837
2.9484 2.8001 -1.2507 0.9831
2.9462 3.0074 -1.2949 0.9825
2.9413 3.4710 -1.3994 0.9811
2.9386 3.7328 -1.4612 0.9803
2.9322 4.3345 -1.6096 0.9783
2.9139 6.0252 -2.0586 0.9724
2.7244 7.6468 -2.4968 0.9666
2.4468 7.7401 -2.4968 0.9666
2.1635 7.8142 -2.4939 0.9666
1.8800 7.8856 -2.4934 0.9666
1.5946 7.9494 -2.4938 0.9666
1.0176 8.0458 -2.4944 0.9666
0.7263 8.0710 -2.4925 0.9667
0.4341 8.0812 -2.4892 0.9667
-0.1495 8.0928 -2.4896 0.9667
-1.0235 8.0357 -2.4916 0.9667
-1.8837 7.8709 -2.4893 0.9667
-2.4481 7.7206 -2.4912 0.9667
-3.2684 7.4127 -2.4918 0.9667
2.9875 -1.2446 -1.0758 0.9865
2.9864 -1.1195 -1.0601 0.9866
2.9821 -0.6492 -1.0145 0.9872
2.9771 -0.1013 -0.9902 0.9875
2.9750 0.1136 -0.9896 0.9875
2.9740 0.2212 -0.9913 0.9875
2.9730 0.3292 -0.9943 0.9875
2.9719 0.4381 -0.9986 0.9874
2.9709 0.5481 -1.0042 0.9873
2.9698 0.6595 -1.0112 0.9873
2.9687 0.7725 -1.0197 0.9872
2.9664 1.0052 -1.0411 0.9869
2.9652 1.1256 -1.0543 0.9867
2.9626 1.3765 -1.0859 0.9863
2.9613 1.5080 -1.1046 0.9861
2.9584 1.7862 -1.1487 0.9855
2.9554 2.0890 -1.2030 0.9849
2.9479 2.7996 -1.3514 0.9830
2.9457 3.0069 -1.3992 0.9824
2.9408 3.4704 -1.5121 0.9810
2.9380 3.7321 -1.5789 0.9802
2.9315 4.3336 -1.7392 0.9782
2.9278 4.6835 -1.8360 0.9770
2.9187 5.5178 -2.0749 0.9740
2.9132 6.0236 -2.2241 0.9722
2.9068 6.6084 -2.3998 0.9700
2.5204 7.0743 -2.4963 0.9688
2.2636 7.1606 -2.4963 0.9688
2.0037 7.2370 -2.4961 0.9688
1.7391 7.2950 -2.4928 0.9689
1.2091 7.4032 -2.4935 0.9689
-0.1383 7.4861 -2.4888 0.9689
-0.4083 7.4781 -2.4895 0.9689
-0.6779 7.4604 -2.4901 0.9689
-0.9468 7.4329 -2.4907 0.9689
-1.7430 7.2829 -2.4893 0.9689
-2.2639 7.1397 -2.4897 0.9689
-2.7744 6.9625 -2.4914 0.9689
-3.5135 6.6283 -2.4937 0.9689
2.9860 -1.1193 -1.1404 0.9865
2.9838 -0.8790 -1.1124 0.9869
2.9808 -0.5371 -1.0831 0.9872
2.9797 -0.4266 -1.0764 0.9873
2.9787 -0.3174 -1.0712 0.9874
2.9767 -0.1012 -1.0651 0.9874
2.9757 0.0062 -1.0641 0.9874
2.9737 0.2211 -1.0663 0.9874
2.9726 0.3292 -1.0695 0.9874
2.9694 0.6594 -1.0877 0.9872
2.9683 0.7725 -1.0968 0.9871
2.9672 0.8876 -1.1075 0.9869
2.9660 1.0051 -1.1199 0.9868
2.9635 1.2490 -1.1501 0.9864
2.9580 1.7859 -1.2357 0.9854
2.9549 2.0887 -1.2940 0.9847
2.9495 2.6054 -1.4073 0.9834
2.9403 3.4698 -1.6264 0.9809
2.9344 4.0175 -1.7791 0.9791
2.9309 4.3327 -1.8706 0.9780
2.9271 4.6825 -1.9747 0.9768
2.9229 5.0741 -2.0940 0.9754
2.9179 5.5164 -2.2317 0.9738
2.9124 6.0219 -2.3921 0.9720
2.8101 6.3886 -2.4958 0.9708
2.5779 6.4858 -2.4959 0.9708
2.3423 6.5746 -2.4959 0.9708
1.8623 6.7262 -2.4958 0.9708
1.3709 6.8342 -2.4926 0.9708
1.1236 6.8800 -2.4929 0.9708
0.6249 6.9446 -2.4935 0.9708
0.3741 6.9634 -2.4937 0.9708
-0.1286 6.9642 -2.4909 0.9708
-0.6299 6.9325 -2.4893 0.9709
-0.8797 6.9068 -2.4899 0.9709
-1.6217 6.7758 -2.4915 0.9708
-2.1046 6.6374 -2.4900 0.9709
-2.3418 6.5549 -2.4892 0.9709
-2.5775 6.4682 -2.4899 0.9709
-2.8099 6.3729 -2.4907 0.9708
2.9835 -0.8789 -1.1919 0.9868
2.9814 -0.6491 -1.1693 0.9870
2.9794 -0.4266 -1.1534 0.9872
2.9774 -0.2089 -1.1438 0.9873
2.9753 0.0062 -1.1402 0.9873
2.9743 0.1135 -1.1406 0.9873
2.9712 0.4380 -1.1509 0.9872
2.9656 1.0050 -1.2000 0.9867
2.9619 1.3762 -1.2516 0.9861
2.9605 1.5076 -1.2732 0.9859
2.9591 1.6439 -1.2972 0.9856
2.9576 1.7857 -1.3240 0.9853
2.9561 1.9335 -1.3536 0.9850
2.9527 2.2512 -1.4229 0.9842
2.9509 2.4229 -1.4632 0.9838
2.9490 2.6049 -1.5079 0.9833
2.9469 2.7987 -1.5574 0.9827
2.9447 3.0058 -1.6125 0.9821
2.9423 3.2285 -1.6739 0.9815
2.9369 3.7306 -1.8195 0.9799
2.9303 4.3317 -2.0041 0.9778
2.9221 5.0728 -2.2435 0.9752
2.8401 5.8723 -2.4998 0.9724
2.1854 6.1342 -2.4955 0.9725
1.7376 6.2757 -2.4954 0.9725
1.5101 6.3342 -2.4954 0.9725
1.2798 6.3805 -2.4938 0.9725
1.0483 6.4190 -2.4925 0.9725
0.8162 6.4533 -2.4927 0.9725
0.3490 6.4967 -2.4932 0.9725
0.1145 6.5056 -2.4935 0.9725
-0.1202 6.5061 -2.4937 0.9725
-0.3545 6.4924 -2.4917 0.9725
-0.8207 6.4434 -2.4892 0.9726
-1.0528 6.4109 -2.4897 0.9726
-1.9652 6.1977 -2.4916 0.9725
-2.1878 6.1238 -2.4920 0.9725
2.9831 -0.8788 -1.2728 0.9866
2.9820 -0.7628 -1.2598 0.9868
2.9810 -0.6490 -1.2486 0.9869
2.9790 -0.4265 -1.2317 0.9871
2.9770 -0.2089 -1.2214 0.9872
2.9760 -0.1012 -1.2187 0.9872
2.9750 0.0062 -1.2176 0.9872
2.9719 0.3291 -1.2237 0.9872
2.9664 0.8874 -1.2672 0.9867
2.9652 1.0048 -1.2814 0.9866
2.9640 1.1252 -1.2976 0.9864
2.9627 1.2487 -1.3159 0.9862
2.9615 1.3760 -1.3365 0.9860
2.9601 1.5074 -1.3595 0.9857
2.9587 1.6437 -1.3852 0.9855
2.9572 1.7854 -1.4138 0.9852
2.9442 3.0053 -1.7219 0.9820
2.9392 3.4684 -1.8607 0.9805
2.9331 4.0159 -2.0353 0.9787
2.9258 4.6804 -2.2590 0.9764
2.9214 5.0716 -2.3954 0.9750
2.8579 5.4029 -2.5015 0.9739
2.4567 5.5852 -2.4972 0.9740
2.2518 5.6653 -2.4951 0.9740
0.5458 6.0656 -2.4925 0.9740
0.3268 6.0819 -2.4928 0.9740
-0.1125 6.0906 -2.4932 0.9740
-0.3321 6.0831 -2.4934 0.9740
-0.9855 6.0012 -2.4890 0.9741
-1.2015 5.9628 -2.4895 0.9741
-1.6288 5.8628 -2.4904 0.9740
-1.8395 5.8013 -2.4908 0.9740
-2.0478 5.7321 -2.4912 0.9740
-2.6562 5.4799 -2.4924 0.9740
2.9859 -1.2439 -1.4097 0.9860
2.9827 -0.8787 -1.3551 0.9865
2.9796 -0.5369 -1.3195 0.9869
2.9786 -0.4265 -1.3114 0.9870
2.9725 0.2210 -1.2991 0.9871
2.9705 0.4379 -1.3086 0.9870
2.9683 0.6592 -1.3251 0.9868
2.9660 0.8872 -1.3492 0.9866
2.9636 1.1250 -1.3815 0.9863
2.9623 1.2485 -1.4010 0.9861
2.9610 1.3758 -1.4230 0.9859
2.9597 1.5072 -1.4475 0.9856
2.9583 1.6434 -1.4748 0.9853
2.9567 1.7851 -1.5052 0.9850
2.9552 1.9329 -1.5390 0.9847
2.9500 2.4221 -1.6635 0.9835
2.9459 2.7977 -1.7706 0.9824
2.9437 3.0048 -1.8332 0.9818
2.9412 3.2273 -1.9030 0.9811
2.9357 3.7291 -2.0684 0.9795
2.9325 4.0150 -2.1668 0.9785
2.6833 5.0728 -2.5010 0.9753
2.3077 5.2463 -2.4978 0.9753
1.9212 5.3924 -2.4948 0.9753
1.7254 5.4582 -2.4948 0.9753
1.1258 5.6125 -2.4947 0.9753
0.9227 5.6494 -2.4947 0.9753
0.5125 5.6953 -2.4921 0.9754
0.3068 5.7105 -2.4923 0.9754
-0.1057 5.7187 -2.4927 0.9754
-0.3119 5.7116 -2.4929 0.9753
-1.5292 5.5042 -2.4897 0.9754
-1.9225 5.3814 -2.4905 0.9754
-2.1157 5.3094 -2.4909 0.9754
-2.3061 5.2304 -2.4912 0.9754
-2.4936 5.1445 -2.4916 0.9754
2.9833 -0.9972 -1.4560 0.9862
2.9812 -0.7626 -1.4244 0.9865
2.9782 -0.4264 -1.3926 0.9868
2.9772 -0.3172 -1.3859 0.9869
2.9752 -0.1012 -1.3780 0.9870
2.9742 0.0062 -1.3767 0.9870
2.9732 0.1135 -1.3772 0.9870
2.9722 0.2210 -1.3796 0.9869
2.9690 0.5477 -1.3975 0.9868
2.9679 0.6591 -1.4072 0.9867
2.9668 0.7721 -1.4190 0.9866
2.9656 0.8871 -1.4328 0.9864
2.9644 1.0046 -1.4488 0.9863
2.9619 1.2483 -1.4878 0.9859
2.9578 1.6432 -1.5662 0.9852
2.9563 1.7849 -1.5985 0.9849
2.9513 2.2501 -1.7179 0.9838
2.9495 2.4217 -1.7665 0.9833
2.9454 2.7972 -1.8802 0.9823
2.9431 3.0042 -1.9467 0.9816
2.9351 3.7284 -2.1964 0.9793
2.8641 4.5816 -2.5010 0.9765
2.6967 4.6815 -2.5008 0.9765
2.5259 4.7753 -2.5006 0.9765
2.3518 4.8628 -2.5003 0.9765
2.1732 4.9406 -2.4984 0.9765
1.9915 5.0104 -2.4957 0.9765
1.6244 5.1385 -2.4945 0.9765
1.4380 5.1936 -2.4945 0.9765
1.0599 5.2837 -2.4945 0.9765
0.8686 5.3184 -2.4944 0.9765
0.6761 5.3458 -2.4942 0.9765
0.4825 5.3617 -2.4919 0.9766
0.2888 5.3758 -2.4920 0.9766
-0.0994 5.3835 -2.4923 0.9765
-0.2936 5.3767 -2.4925 0.9765
-0.4874 5.3630 -2.4927 0.9765
-0.6805 5.3423 -2.4928 0.9765
-1.0636 5.2786 -2.4925 0.9765
-1.8096 5.0654 -2.4898 0.9766
-2.1707 4.9231 -2.4905 0.9766
-2.5205 4.7550 -2.4911 0.9766
2.9839 -1.1186 -1.5632 0.9859
2.9819 -0.8785 -1.5248 0.9862
2.9778 -0.4263 -1.4756 0.9867
2.9758 -0.2088 -1.4633 0.9868
2.9748 -0.1012 -1.4601 0.9868
2.9728 0.1134 -1.4593 0.9868
2.9718 0.2210 -1.4617 0.9868
2.9707 0.3290 -1.4661 0.9868
2.9697 0.4378 -1.4724 0.9867
2.9686 0.5477 -1.4807 0.9866
2.9675 0.6590 -1.4911 0.9865
2.9664 0.7719 -1.5035 0.9864
2.9652 0.8870 -1.5182 0.9863
2.9602 1.3754 -1.6011 0.9856
2.9588 1.5068 -1.6287 0.9853
2.9558 1.7846 -1.6937 0.9847
2.9526 2.0871 -1.7736 0.9840
2.9426 3.0037 -2.0626 0.9814
2.9401 3.2261 -2.1411 0.9807
2.9345 3.7276 -2.3271 0.9791
2.5444 4.4170 -2.5004 0.9775
2.3832 4.5055 -2.5002 0.9775
2.0512 4.6631 -2.4989 0.9776
1.8798 4.7293 -2.4964 0.9776
1.5327 4.8484 -2.4943 0.9776
0.2725 5.0722 -2.4916 0.9776
-0.2770 5.0730 -2.4921 0.9776
-0.4598 5.0600 -2.4923 0.9776
-0.6420 5.0405 -2.4924 0.9776
-1.0038 4.9816 -2.4927 0.9776
-1.1829 4.9424 -2.4928 0.9776
-1.5345 4.8395 -2.4904 0.9776
-1.7073 4.7788 -2.4892 0.9776
-1.8787 4.7148 -2.4896 0.9776
-2.0479 4.6446 -2.4899 0.9776
-2.2143 4.5682 -2.4902 0.9776
2.9835 -1.1184 -1.6530 0.9857
2.9825 -0.9969 -1.6314 0.9859
2.9814 -0.8783 -1.6124 0.9861
2.9804 -0.7624 -1.5960 0.9862
2.9774 -0.4263 -1.5604 0.9865
2.9764 -0.3171 -1.5528 0.9866
2.9744 -0.1012 -1.5440 0.9867
2.9734 0.0062 -1.5425 0.9867
2.9714 0.2209 -1.5457 0.9867
2.9682 0.5476 -1.5658 0.9865
2.9648 0.8869 -1.6054 0.9862
2.9611 1.2480 -1.6670 0.9856
2.9584 1.5066 -1.7223 0.9852
2.9569 1.6427 -1.7548 0.9849
2.9554 1.7843 -1.7910 0.9846
2.9521 2.0867 -1.8755 0.9838
2.9485 2.4209 -1.9791 0.9830
2.9465 2.6027 -2.0395 0.9824
2.9443 2.7962 -2.1065 0.9819
2.9395 3.2254 -2.2639 0.9805
2.9368 3.4657 -2.3566 0.9797
2.9338 3.7268 -2.4606 0.9789
2.8430 3.8924 -2.5006 0.9785
2.7005 3.9921 -2.5004 0.9785
2.5546 4.0866 -2.5002 0.9785
2.2530 4.2594 -2.4998 0.9785
2.0978 4.3375 -2.4996 0.9785
1.4491 4.5839 -2.4940 0.9786
1.2828 4.6332 -2.4940 0.9786
1.1149 4.6764 -2.4940 0.9786
0.9455 4.7135 -2.4940 0.9786
0.2578 4.7991 -2.4932 0.9786
-0.0887 4.8020 -2.4916 0.9786
-0.2619 4.7961 -2.4918 0.9786
-0.4347 4.7838 -2.4919 0.9786
-0.6070 4.7652 -2.4921 0.9786
-0.7784 4.7405 -2.4922 0.9786
-0.9490 4.7096 -2.4923 0.9786
-1.1183 4.6725 -2.4925 0.9786
-1.2861 4.6294 -2.4926 0.9786
-1.9358 4.3905 -2.4893 0.9786
-2.0932 4.3184 -2.4896 0.9786
2.9841 -1.2431 -1.7706 0.9854
2.9831 -1.1182 -1.7449 0.9856
2.9820 -0.9967 -1.7221 0.9858
2.9810 -0.8782 -1.7021 0.9859
2.9800 -0.7623 -1.6847 0.9861
2.9790 -0.6485 -1.6698 0.9862
2.9780 -0.5366 -1.6573 0.9863
2.9760 -0.3171 -1.6392 0.9864
2.9720 0.1134 -1.6289 0.9865
2.9678 0.5475 -1.6529 0.9863
2.9667 0.6588 -1.6644 0.9862
2.9655 0.7717 -1.6783 0.9861
2.9631 1.0041 -1.7136 0.9858
2.9619 1.1244 -1.7352 0.9857
2.9606 1.2478 -1.7597 0.9855
2.9593 1.3750 -1.7872 0.9852
2.9549 1.7840 -1.8905 0.9844
2.9459 2.6022 -2.1528 0.9822
2.9438 2.7957 -2.2235 0.9817
2.9414 3.0025 -2.3021 0.9810
2.9389 3.2248 -2.3897 0.9803
2.9362 3.4650 -2.4875 0.9795
2.8241 3.5875 -2.5006 0.9794
2.6924 3.6862 -2.5002 0.9794
2.4193 3.8702 -2.4998 0.9794
2.1338 4.0339 -2.4994 0.9794
1.8371 4.1765 -2.4990 0.9794
1.2150 4.3881 -2.4938 0.9794
1.0559 4.4291 -2.4938 0.9794
0.8955 4.4642 -2.4938 0.9794
0.7339 4.4936 -2.4937 0.9794
0.2442 4.5463 -2.4936 0.9794
-0.2480 4.5422 -2.4915 0.9795
-1.2180 4.3843 -2.4922 0.9795
-1.3754 4.3376 -2.4923 0.9795
-1.5310 4.2853 -2.4924 0.9795
-1.9835 4.0921 -2.4907 0.9795
-2.1289 4.0163 -2.4896 0.9795
2.9837 -1.2429 -1.8661 0.9852
2.9816 -0.9966 -1.8150 0.9856
2.9806 -0.8781 -1.7940 0.9858
2.9796 -0.7622 -1.7756 0.9859
2.9786 -0.6484 -1.7599 0.9860
2.9776 -0.5366 -1.7468 0.9861
2.9766 -0.4262 -1.7360 0.9862
2.9756 -0.3170 -1.7277 0.9863
2.9746 -0.2088 -1.7216 0.9863
2.9736 -0.1011 -1.7178 0.9864
2.9726 0.0062 -1.7162 0.9864
2.9716 0.1134 -1.7169 0.9864
2.9705 0.2209 -1.7198 0.9863
2.9673 0.5474 -1.7421 0.9862
2.9651 0.7716 -1.7689 0.9859
2.9639 0.8866 -1.7861 0.9858
2.9627 1.0040 -1.8061 0.9857
2.9602 1.2476 -1.8546 0.9853
2.9544 1.7837 -1.9925 0.9842
2.9528 1.9314 -2.0371 0.9838
2.9511 2.0860 -2.0865 0.9834
2.9493 2.2486 -2.1412 0.9830
2.9474 2.4201 -2.2018 0.9825
2.9454 2.6017 -2.2689 0.9820
2.9408 3.0019 -2.4262 0.9808
2.8020 3.3066 -2.5023 0.9802
2.6786 3.4026 -2.5001 0.9802
2.5538 3.4965 -2.4998 0.9802
2.2948 3.6710 -2.4995 0.9802
2.1608 3.7511 -2.4993 0.9802
1.8845 3.8965 -2.4989 0.9802
1.7426 3.9616 -2.4987 0.9802
1.3019 4.1185 -2.4938 0.9802
0.8494 4.2347 -2.4936 0.9802
0.5420 4.2848 -2.4935 0.9802
0.3871 4.3015 -2.4935 0.9802
0.0760 4.3180 -2.4934 0.9803
-0.0797 4.3169 -2.4928 0.9803
-0.3905 4.2974 -2.4913 0.9803
-0.5452 4.2807 -2.4915 0.9803
-1.1553 4.1586 -2.4919 0.9803
-1.3046 4.1143 -2.4920 0.9803
-1.4522 4.0647 -2.4921 0.9803
-1.7415 3.9498 -2.4922 0.9803
-1.8828 3.8844 -2.4923 0.9803
-2.0217 3.8140 -2.4923 0.9803
