ply
format ascii 1.0
element vertex 1010
property float32 x
property float32 y
property float32 z
property float32 I
end_header
-40.5785 -26.8393 8.5786 0.8207
-37.5302 -26.8001 8.1316 0.8292
-34.7806 -26.7648 7.7384 0.8367
-26.1936 -25.0545 6.3913 0.8631
-25.8131 -26.5218 6.5258 0.8604
-26.1079 -28.8181 6.8566 0.8539
-26.0190 -30.8700 7.1188 0.8488
-23.9923 -32.9888 7.1925 0.8473
-22.3648 -35.8888 7.4563 0.8422
-20.6104 -35.8704 7.2946 0.8453
-16.6875 -37.9549 7.3108 0.8450
-15.0380 -37.8186 7.1763 0.8476
-11.9758 -37.7838 6.9889 0.8513
-8.0688 -39.8764 7.1738 0.8477
-6.5916 -39.8596 7.1238 0.8487
-3.6055 -27.9864 4.9755 0.8917
-2.2556 -39.8103 7.0309 0.8505
0.5938 -39.7779 7.0147 0.8508
3.4447 -39.7454 7.0344 0.8504
10.1962 -37.5315 6.8577 0.8539
11.6472 -37.5150 6.9264 0.8525
16.8018 -35.3145 6.8957 0.8531
18.4362 -35.4260 7.0418 0.8503
18.9392 -30.7956 6.3748 0.8634
18.8523 -28.3317 6.0005 0.8709
25.3266 -28.2898 6.6952 0.8571
31.0388 -26.0143 7.1410 0.8483
33.3658 -25.9914 7.4577 0.8422
41.1986 -25.5152 8.5448 0.8213
-37.8803 -27.0503 7.1308 0.8283
-37.5931 -31.1312 7.4774 0.8208
-26.4501 -25.2998 5.6072 0.8623
-26.1510 -26.8689 5.7439 0.8592
-32.6202 -36.0064 7.4430 0.8215
-25.7513 -32.8690 6.3967 0.8445
-25.6752 -38.0953 7.0377 0.8304
-18.5469 -42.1840 7.0594 0.8299
-3.2241 -34.8082 5.3553 0.8681
16.3308 -41.7872 6.8730 0.8340
19.1517 -33.7924 5.9504 0.8545
18.7881 -28.2352 5.1956 0.8718
29.3983 -35.3005 7.0376 0.8304
31.2211 -30.2187 6.6563 0.8388
18.3485 -16.5304 3.7834 0.9049
33.4747 -28.0559 6.6911 0.8380
18.3108 -14.2638 3.5558 0.9103
41.2386 -25.5400 7.4310 0.8218
-26.0329 -35.7944 5.7636 0.8365
-3.2296 -34.8672 4.5599 0.8683
18.7399 -43.3157 6.1459 0.8266
18.9816 -36.4739 5.3543 0.8472
18.8241 -30.6085 4.6793 0.8651
18.8514 -26.2447 4.2079 0.8778
18.4211 -15.4391 3.1299 0.9076
41.5454 -23.7179 6.2296 0.8245
-31.6895 -19.3678 3.9881 0.8612
-26.0662 -28.7720 4.1690 0.8554
-26.0727 -33.2792 4.5397 0.8436
-26.0378 -35.8012 4.7536 0.8369
-3.2350 -34.9260 3.7665 0.8684
18.9317 -39.7910 4.7318 0.8376
18.9781 -36.4672 4.4144 0.8476
18.8618 -30.6698 3.8663 0.8652
19.0611 -28.6454 3.6947 0.8707
19.2451 -24.8656 3.3764 0.8812
41.6377 -21.8349 5.0486 0.8277
-26.2468 -38.9434 3.9755 0.8282
18.9513 -39.8323 3.7341 0.8377
19.2451 -24.8656 2.6617 0.8814
18.3482 -16.5302 2.0906 0.9056
41.6374 -21.8348 3.9800 0.8280
-26.5408 -25.3866 2.2775 0.8631
-3.1903 -24.7639 1.5483 0.9048
19.2451 -24.8657 1.9498 0.8816
18.3482 -16.5301 1.5314 0.9058
41.6371 -21.8346 2.9154 0.8283
-26.0502 -24.9174 1.4214 0.8656
-4.0793 -24.6673 0.9859 0.9048
18.1634 -25.2869 1.2277 0.8828
41.5441 -23.7172 1.8863 0.8257
41.6369 -21.8345 1.8538 0.8284
-25.4530 -26.1517 0.6164 0.8642
-4.0793 -24.6673 0.4223 0.9048
-3.1766 -24.6571 0.4199 0.9053
-3.9906 -43.0832 0.7309 0.8411
18.5285 -42.8270 0.7882 0.8297
18.8893 -24.4060 0.5213 0.8839
40.8274 -25.2853 0.8112 0.8252
-25.8738 -23.0345 -0.1950 0.8706
-24.0598 -23.0134 -0.1874 0.8753
-17.9802 -22.9499 -0.1641 0.8899
-15.4330 -22.8984 -0.1555 0.8954
-14.2604 -22.8836 -0.1518 0.8978
-13.1403 -22.8694 -0.1485 0.8999
-12.0667 -22.8559 -0.1455 0.9018
-8.1420 -22.8207 -0.1364 0.9076
-2.1077 -22.7545 -0.1287 0.9126
-1.2889 -22.7465 -0.1283 0.9129
1.9675 -22.7007 -0.1283 0.9129
2.7871 -22.6909 -0.1287 0.9126
4.4482 -22.6711 -0.1301 0.9117
6.1568 -22.6629 -0.1322 0.9103
7.0325 -22.6515 -0.1335 0.9095
8.8432 -22.6280 -0.1368 0.9074
12.8002 -22.5856 -0.1462 0.9014
13.8822 -22.5729 -0.1492 0.8994
15.0115 -22.5597 -0.1526 0.8973
16.1998 -22.5532 -0.1563 0.8949
18.7567 -22.5225 -0.1650 0.8894
40.8206 -25.2811 -0.2703 0.8253
41.5435 -23.7169 -0.2693 0.8258
-25.8737 -23.0344 -0.9754 0.8706
-20.8171 -22.9779 -0.8730 0.8833
-17.9806 -22.9504 -0.8209 0.8899
-12.0671 -22.8565 -0.7278 0.9017
-11.0344 -22.8434 -0.7143 0.9035
-10.0433 -22.8429 -0.7026 0.9050
-9.0786 -22.8314 -0.6918 0.9064
-8.1419 -22.8202 -0.6822 0.9076
-7.2296 -22.8094 -0.6738 0.9087
-6.3387 -22.7987 -0.6663 0.9097
-3.7658 -22.7713 -0.6499 0.9118
-2.9326 -22.7632 -0.6463 0.9122
-0.4739 -22.7392 -0.6404 0.9130
0.3392 -22.7202 -0.6398 0.9131
1.9675 -22.7008 -0.6416 0.9129
3.6133 -22.6812 -0.6467 0.9122
7.9271 -22.6403 -0.6754 0.9085
9.7845 -22.6162 -0.6939 0.9061
10.7575 -22.6104 -0.7050 0.9047
12.8008 -22.5865 -0.7310 0.9013
15.0122 -22.5608 -0.7630 0.8972
16.1998 -22.5532 -0.7819 0.8948
17.4437 -22.5383 -0.8025 0.8922
18.7567 -22.5225 -0.8253 0.8893
41.6360 -21.8340 -1.3238 0.8285
-48.8840 -4.1000 -2.4878 0.8216
-48.4682 -7.5834 -2.4879 0.8216
-48.1678 -9.3118 -2.4880 0.8216
-47.8060 -11.0286 -2.4881 0.8216
-47.3834 -12.7315 -2.4882 0.8216
-46.9005 -14.4184 -2.4884 0.8216
-45.7562 -17.7356 -2.4887 0.8216
-45.0962 -19.3617 -2.4889 0.8216
-43.6047 -22.5388 -2.4893 0.8215
-38.9383 -23.7981 -2.3143 0.8330
-36.4115 -24.0831 -2.2139 0.8396
-33.2881 -23.7708 -2.0744 0.8489
-38.9216 -29.9514 -2.4907 0.8214
-28.8857 -23.9205 -1.9021 0.8605
-22.3794 -22.9937 -1.6272 0.8794
-16.6827 -22.9381 -1.4384 0.8926
-15.4339 -22.8998 -1.4005 0.8953
-9.0784 -22.8309 -1.2460 0.9063
-7.2295 -22.8089 -1.2134 0.9086
-6.3385 -22.7982 -1.2000 0.9096
-2.9327 -22.7638 -1.1640 0.9122
-2.1078 -22.7557 -1.1590 0.9125
-1.2889 -22.7477 -1.1555 0.9128
-0.4739 -22.7397 -1.1535 0.9129
1.9675 -22.7010 -1.1556 0.9128
2.7871 -22.6912 -1.1594 0.9125
3.6133 -22.6814 -1.1648 0.9121
4.4482 -22.6714 -1.1717 0.9116
6.1570 -22.6635 -1.1910 0.9102
7.0327 -22.6522 -1.2029 0.9094
8.8435 -22.6288 -1.2321 0.9073
10.7579 -22.6113 -1.2699 0.9046
11.7611 -22.5996 -1.2920 0.9030
16.1998 -22.5532 -1.4082 0.8947
17.4437 -22.5383 -1.4454 0.8921
18.7567 -22.5225 -1.4864 0.8892
39.0899 -30.4504 -2.5129 0.8200
31.8856 -23.0550 -1.9955 0.8542
34.7037 -23.2495 -2.1184 0.8459
-33.9821 -1.6295 -2.4945 0.8724
-33.7774 -4.0536 -2.4944 0.8725
-33.6101 -5.2587 -2.4943 0.8725
-33.3999 -6.4569 -2.4943 0.8725
-32.8517 -8.8270 -2.4942 0.8725
-31.6988 -12.2868 -2.4927 0.8725
-30.2060 -15.6132 -2.4931 0.8725
-26.6835 -17.6489 -2.3457 0.8796
-25.3532 -19.5101 -2.3457 0.8796
-22.2881 -22.8999 -2.3431 0.8797
-20.8179 -22.9788 -2.2735 0.8831
-19.3559 -22.9646 -2.2021 0.8865
-14.2616 -22.8856 -1.9772 0.8975
-9.0782 -22.8304 -1.8015 0.9062
-8.1415 -22.8193 -1.7765 0.9074
-7.2293 -22.8084 -1.7544 0.9085
-6.3384 -22.7978 -1.7350 0.9095
-5.4663 -22.7891 -1.7183 0.9103
-2.1079 -22.7563 -1.6757 0.9124
-1.2890 -22.7483 -1.6706 0.9127
1.1522 -22.7108 -1.6673 0.9128
1.9675 -22.7011 -1.6707 0.9127
3.6133 -22.6815 -1.6840 0.9120
4.4483 -22.6716 -1.6940 0.9115
6.1571 -22.6639 -1.7220 0.9101
7.0328 -22.6525 -1.7391 0.9093
7.9273 -22.6410 -1.7589 0.9083
8.8436 -22.6291 -1.7814 0.9072
9.7848 -22.6169 -1.8069 0.9059
11.7616 -22.6006 -1.8681 0.9029
13.8840 -22.5759 -1.9433 0.8992
15.0136 -22.5628 -1.9871 0.8970
16.1998 -22.5532 -2.0360 0.8946
11.8439 -15.3030 -1.4189 0.9253
23.0997 -22.3580 -2.3571 0.8790
18.3477 -16.5296 -1.8109 0.9057
28.4386 -19.0522 -2.5099 0.8717
29.7318 -16.9737 -2.5102 0.8717
30.3218 -15.9008 -2.5104 0.8717
-25.7969 -3.0958 -2.4944 0.9009
-25.6700 -4.0163 -2.4944 0.9009
-25.5105 -4.9317 -2.4945 0.9009
-25.3184 -5.8407 -2.4945 0.9009
-24.8376 -7.6357 -2.4947 0.9008
-23.4989 -11.1004 -2.4951 0.9008
-23.0881 -11.9340 -2.4952 0.9008
-22.1785 -13.5550 -2.4954 0.9008
-19.7637 -15.2088 -2.3942 0.9046
-18.8046 -15.5723 -2.3440 0.9065
-18.2371 -16.2358 -2.3442 0.9065
-17.6461 -16.8787 -2.3443 0.9065
-16.4023 -18.1050 -2.3454 0.9065
-15.0711 -19.2368 -2.3461 0.9065
-13.6609 -20.2692 -2.3466 0.9064
-12.9290 -20.7472 -2.3469 0.9064
-12.1804 -21.1988 -2.3472 0.9064
-9.0384 -22.7305 -2.3484 0.9064
-6.3383 -22.7973 -2.2717 0.9093
-3.7661 -22.7731 -2.2160 0.9114
-1.2890 -22.7489 -2.1875 0.9125
1.1522 -22.7110 -2.1832 0.9127
3.6134 -22.6817 -2.2050 0.9118
4.4483 -22.6717 -2.2181 0.9113
5.2974 -22.6754 -2.2356 0.9107
6.1572 -22.6642 -2.2547 0.9099
7.9275 -22.6413 -2.3031 0.9081
8.8437 -22.6295 -2.3326 0.9070
9.7444 -22.5234 -2.3560 0.9061
11.7153 -15.1368 -1.8376 0.9260
15.7058 -18.8590 -2.3562 0.9061
16.3681 -18.2832 -2.3559 0.9061
17.0091 -17.6839 -2.3556 0.9061
17.6281 -17.0620 -2.3553 0.9061
18.2241 -16.4183 -2.3549 0.9061
22.2100 -13.7551 -2.5081 0.9003
22.6887 -12.9528 -2.5082 0.9003
-20.9865 -1.0063 -2.4958 0.9188
-20.9372 -1.7561 -2.4958 0.9188
-20.8612 -2.5036 -2.4958 0.9188
-20.6295 -3.9881 -2.4959 0.9188
-20.4741 -4.7233 -2.4959 0.9188
-19.8520 -6.8891 -2.4961 0.9188
-19.5936 -7.5947 -2.4962 0.9188
-19.3101 -8.2906 -2.4962 0.9188
-18.6696 -9.6502 -2.4964 0.9188
-17.9337 -10.9607 -2.4966 0.9188
-17.5312 -11.5954 -2.4968 0.9188
-17.1062 -12.2154 -2.4969 0.9188
-14.6026 -15.0034 -2.4870 0.9191
-12.1795 -15.5460 -2.3459 0.9235
-10.4470 -16.7643 -2.3464 0.9235
-9.8420 -17.1291 -2.3466 0.9235
-7.7577 -16.0599 -2.1186 0.9307
-7.9560 -18.0954 -2.3481 0.9235
-7.3052 -18.3718 -2.3485 0.9234
-4.6146 -19.2386 -2.3501 0.9234
-3.2289 -19.5249 -2.3508 0.9234
-2.5290 -19.6304 -2.3511 0.9234
-1.1199 -19.7657 -2.3516 0.9234
0.2956 -19.7992 -2.3521 0.9233
1.7100 -19.7307 -2.3525 0.9233
2.4146 -19.6583 -2.3527 0.9233
3.1161 -19.5605 -2.3528 0.9233
3.8137 -19.4375 -2.3529 0.9233
5.1934 -19.1166 -2.3531 0.9233
6.5465 -18.6971 -2.3532 0.9233
7.2109 -18.4512 -2.3532 0.9233
7.8659 -18.1813 -2.3531 0.9233
9.7667 -17.2330 -2.3529 0.9233
10.9721 -16.4892 -2.3527 0.9233
11.5546 -16.0861 -2.3527 0.9233
13.2133 -14.7593 -2.3531 0.9233
14.4270 -13.9637 -2.3850 0.9223
15.4412 -13.9112 -2.4688 0.9197
16.6464 -12.9673 -2.5065 0.9185
17.5323 -11.7457 -2.5068 0.9185
17.9419 -11.1118 -2.5069 0.9185
18.3285 -10.4637 -2.5070 0.9185
18.6917 -9.8020 -2.5071 0.9185
-17.4958 -2.0997 -2.4968 0.9313
-17.4097 -2.7240 -2.4968 0.9313
-17.3014 -3.3447 -2.4968 0.9313
-17.1711 -3.9613 -2.4969 0.9313
-16.8447 -5.1785 -2.4969 0.9313
-16.6491 -5.7776 -2.4970 0.9313
-16.1945 -6.9530 -2.4971 0.9313
-15.9360 -7.5278 -2.4972 0.9313
-15.3583 -8.6480 -2.4974 0.9313
-15.0398 -9.1920 -2.4975 0.9313
-14.7021 -9.7242 -2.4976 0.9313
-13.1679 -11.7229 -2.4980 0.9313
-12.7410 -12.1869 -2.4981 0.9312
-11.8387 -13.0676 -2.4984 0.9312
-11.3645 -13.4833 -2.4985 0.9312
-10.8757 -13.8818 -2.4987 0.9312
-10.3730 -14.2626 -2.4988 0.9312
-7.2057 -14.9174 -2.3473 0.9353
-6.1221 -15.3962 -2.3476 0.9353
-5.0068 -15.7965 -2.3479 0.9352
-4.4391 -15.9665 -2.3481 0.9352
-0.9379 -16.5526 -2.3491 0.9352
-0.3455 -16.5768 -2.3493 0.9352
1.4319 -16.5220 -2.3498 0.9352
3.1936 -16.2772 -2.3503 0.9352
3.7738 -16.1537 -2.3504 0.9352
4.3493 -16.0096 -2.3506 0.9352
4.9193 -15.8449 -2.3508 0.9352
7.1299 -14.9857 -2.3514 0.9352
7.6617 -14.7221 -2.3515 0.9351
8.7224 -14.1829 -2.3592 0.9349
9.4107 -14.1426 -2.4069 0.9337
10.1324 -14.1062 -2.4609 0.9322
10.8202 -13.9803 -2.5048 0.9311
12.7055 -12.2976 -2.5054 0.9311
13.1378 -11.8360 -2.5055 0.9311
15.0367 -9.3126 -2.5060 0.9310
15.3607 -8.7693 -2.5061 0.9310
-15.1425 -0.7261 -2.4974 0.9404
-15.1069 -1.2671 -2.4974 0.9404
-15.0521 -1.8064 -2.4975 0.9404
-14.9780 -2.3434 -2.4975 0.9404
-14.8847 -2.8775 -2.4975 0.9404
-14.4917 -4.4551 -2.4976 0.9404
-14.1368 -5.4796 -2.4977 0.9404
-13.7098 -6.4762 -2.4978 0.9404
-13.4698 -6.9624 -2.4979 0.9404
-13.2127 -7.4398 -2.4980 0.9404
-11.6807 -9.6729 -2.4984 0.9404
-10.5791 -10.8695 -2.4987 0.9404
-10.1841 -11.2413 -2.4989 0.9404
-9.7761 -11.5988 -2.4990 0.9404
-9.3556 -11.9415 -2.4991 0.9404
-8.4792 -12.5809 -2.4993 0.9403
-7.5592 -13.1561 -2.4996 0.9403
-7.0843 -13.4187 -2.4997 0.9403
-6.6004 -13.6641 -2.4999 0.9403
-5.6076 -14.1025 -2.5002 0.9403
-4.5860 -14.4689 -2.5004 0.9403
-4.0638 -14.6168 -2.4993 0.9404
-3.5022 -14.6011 -2.4736 0.9409
-2.9512 -14.5851 -2.4514 0.9415
-2.4093 -14.5688 -2.4327 0.9419
-1.8748 -14.5522 -2.4171 0.9423
-1.3463 -14.5352 -2.4048 0.9425
-0.3021 -14.5000 -2.3892 0.9429
0.2162 -14.4817 -2.3860 0.9430
0.7339 -14.4629 -2.3857 0.9430
1.2519 -14.4436 -2.3883 0.9429
2.2945 -14.4029 -2.4026 0.9426
2.8217 -14.3814 -2.4144 0.9423
3.3546 -14.3593 -2.4292 0.9420
3.8948 -14.3362 -2.4473 0.9416
4.4435 -14.3122 -2.4688 0.9411
6.0341 -13.9473 -2.5035 0.9403
7.0162 -13.4819 -2.5038 0.9402
7.4941 -13.2231 -2.5039 0.9402
7.9626 -12.9474 -2.5040 0.9402
8.4209 -12.6551 -2.5042 0.9402
10.5400 -10.9582 -2.5048 0.9402
10.9256 -10.5748 -2.5049 0.9402
11.2972 -10.1778 -2.5050 0.9402
12.9298 -8.0076 -2.5054 0.9402
13.4697 -7.0636 -2.5056 0.9402
-13.2433 -1.1108 -2.4980 0.9473
-13.1952 -1.5836 -2.4980 0.9473
-13.1303 -2.0544 -2.4980 0.9473
-13.0486 -2.5226 -2.4980 0.9473
-12.9502 -2.9876 -2.4981 0.9473
-12.8352 -3.4487 -2.4981 0.9473
-12.7039 -3.9055 -2.4981 0.9473
-11.5824 -6.5219 -2.4984 0.9473
-11.3421 -6.9321 -2.4985 0.9473
-10.8184 -7.7254 -2.4987 0.9473
-10.5356 -8.1075 -2.4987 0.9473
-8.9272 -9.8539 -2.4992 0.9473
-7.8217 -10.7546 -2.4995 0.9473
-7.4325 -11.0279 -2.4996 0.9473
-7.0338 -11.2871 -2.4997 0.9473
-5.7855 -11.9771 -2.5001 0.9473
-4.9152 -12.3611 -2.5004 0.9473
-4.4703 -12.5296 -2.5005 0.9473
-4.0197 -12.6821 -2.5006 0.9473
-3.5638 -12.8184 -2.5007 0.9473
-3.1034 -12.9383 -2.5009 0.9473
-2.6389 -13.0417 -2.5010 0.9473
-2.1711 -13.1284 -2.5011 0.9473
-1.7003 -13.1983 -2.5013 0.9473
-1.2274 -13.2514 -2.5014 0.9473
0.1987 -13.3088 -2.5018 0.9473
3.0290 -12.9654 -2.5026 0.9473
3.4909 -12.8496 -2.5028 0.9472
3.9482 -12.7172 -2.5029 0.9472
4.8475 -12.4038 -2.5031 0.9472
5.7221 -12.0268 -2.5034 0.9472
6.1488 -11.8151 -2.5035 0.9472
6.5676 -11.5883 -2.5036 0.9472
6.9781 -11.3466 -2.5037 0.9472
7.7718 -10.8198 -2.5040 0.9472
8.1541 -10.5355 -2.5041 0.9472
8.8869 -9.9267 -2.5043 0.9472
9.5743 -9.2669 -2.5045 0.9472
10.2128 -8.5596 -2.5047 0.9472
-11.8058 -0.5661 -2.4984 0.9528
-11.6775 -1.8271 -2.4984 0.9528
-11.6048 -2.2435 -2.4984 0.9528
-11.5173 -2.6570 -2.4985 0.9528
-11.4150 -3.0671 -2.4985 0.9528
-11.0215 -4.2721 -2.4986 0.9528
-10.8619 -4.6635 -2.4987 0.9528
-10.5012 -5.4280 -2.4988 0.9528
-9.8286 -6.5008 -2.4909 0.9530
-9.5902 -6.8482 -2.4910 0.9530
-9.3696 -7.2102 -2.4991 0.9528
-8.8309 -7.8619 -2.4992 0.9528
-8.2470 -8.4734 -2.4994 0.9528
-7.9391 -8.7632 -2.4995 0.9528
-7.2930 -9.3088 -2.4997 0.9528
-6.9558 -9.5640 -2.4998 0.9528
-5.8924 -10.2551 -2.5001 0.9528
-5.5221 -10.4597 -2.5002 0.9528
-5.1448 -10.6509 -2.5003 0.9528
-4.7610 -10.8285 -2.5004 0.9528
-3.9753 -11.1421 -2.5006 0.9528
-3.1691 -11.3987 -2.5009 0.9528
-2.3475 -11.5972 -2.5011 0.9528
0.1767 -11.8343 -2.5018 0.9528
0.5997 -11.8210 -2.5019 0.9528
1.0221 -11.7925 -2.5020 0.9528
1.4431 -11.7490 -2.5022 0.9528
2.6933 -11.5286 -2.5025 0.9528
3.1040 -11.4254 -2.5026 0.9527
3.9129 -11.1754 -2.5029 0.9527
4.7020 -10.8682 -2.5031 0.9527
5.0878 -10.6936 -2.5032 0.9527
6.9101 -9.6202 -2.5037 0.9527
7.2499 -9.3673 -2.5038 0.9527
7.9014 -8.8259 -2.5040 0.9527
8.8020 -7.9298 -2.5043 0.9527
9.3468 -7.2810 -2.5044 0.9527
9.6014 -6.9423 -2.5045 0.9527
10.0735 -6.2387 -2.5046 0.9527
-10.5041 -1.6435 -2.4988 0.9573
-10.4387 -2.0180 -2.4988 0.9573
-10.2680 -2.7589 -2.4988 0.9573
-10.1630 -3.1243 -2.4989 0.9573
-10.0449 -3.4858 -2.4989 0.9573
-9.9140 -3.8428 -2.4989 0.9573
-9.7704 -4.1949 -2.4990 0.9573
-9.2655 -5.2173 -2.4991 0.9572
-9.0733 -5.5454 -2.4992 0.9572
-8.6542 -6.1799 -2.4993 0.9572
-8.4279 -6.4856 -2.4993 0.9572
-8.1645 -6.7611 -2.4914 0.9574
-7.6856 -7.3514 -2.4996 0.9572
-7.1410 -7.8823 -2.4997 0.9572
-6.8549 -8.1329 -2.4998 0.9572
-6.5599 -8.3731 -2.4999 0.9572
-5.9451 -8.8211 -2.5001 0.9572
-5.3000 -9.2241 -2.5002 0.9572
-4.9669 -9.4081 -2.5003 0.9572
-4.6275 -9.5800 -2.5004 0.9572
-3.2150 -10.1435 -2.5008 0.9572
-2.4821 -10.3482 -2.5010 0.9572
-2.1106 -10.4308 -2.5012 0.9572
-0.9817 -10.5982 -2.5015 0.9572
-0.6021 -10.6270 -2.5016 0.9572
-0.2217 -10.6422 -2.5017 0.9572
0.1589 -10.6438 -2.5018 0.9572
0.5394 -10.6317 -2.5019 0.9572
0.9192 -10.6061 -2.5020 0.9572
1.6750 -10.5142 -2.5022 0.9572
2.0499 -10.4480 -2.5023 0.9572
2.4223 -10.3685 -2.5024 0.9572
2.7916 -10.2757 -2.5025 0.9572
4.9168 -9.4479 -2.5032 0.9572
5.2517 -9.2664 -2.5033 0.9572
5.9009 -8.8680 -2.5034 0.9572
6.2144 -8.6517 -2.5035 0.9572
6.8173 -8.1860 -2.5037 0.9572
7.1059 -7.9372 -2.5038 0.9572
7.3854 -7.6784 -2.5039 0.9572
7.9157 -7.1313 -2.5040 0.9572
8.1659 -6.8440 -2.5041 0.9572
8.4056 -6.5478 -2.5041 0.9572
8.6346 -6.2432 -2.5042 0.9572
9.2541 -5.2831 -2.5044 0.9572
9.4373 -4.9489 -2.5044 0.9572
-9.6180 -0.8067 -2.4990 0.9609
-9.5830 -1.1501 -2.4990 0.9609
-8.7279 -4.1229 -2.4993 0.9609
-8.4113 -4.7363 -2.4994 0.9609
-7.8562 -5.6101 -2.4995 0.9609
-7.4356 -6.1575 -2.4996 0.9609
-7.2108 -6.4196 -2.4997 0.9609
-6.7340 -6.9189 -2.4998 0.9609
-6.4825 -7.1554 -2.4999 0.9609
-5.6795 -7.8092 -2.5001 0.9609
-5.3968 -8.0075 -2.5002 0.9609
-5.1072 -8.1956 -2.5003 0.9609
-4.8111 -8.3733 -2.5004 0.9609
-3.8873 -8.8413 -2.5006 0.9609
-2.5874 -9.3065 -2.5010 0.9609
-2.2531 -9.3935 -2.5011 0.9609
-1.5761 -9.5312 -2.5013 0.9609
-1.2345 -9.5818 -2.5014 0.9609
-0.8910 -9.6202 -2.5015 0.9609
-0.5465 -9.6463 -2.5016 0.9609
0.1442 -9.6614 -2.5018 0.9609
0.4896 -9.6505 -2.5019 0.9609
1.8607 -9.4836 -2.5023 0.9609
2.5339 -9.3271 -2.5025 0.9609
2.8659 -9.2309 -2.5026 0.9608
3.1942 -9.1229 -2.5027 0.9608
3.8383 -8.8719 -2.5028 0.9608
4.1535 -8.7293 -2.5029 0.9608
4.4629 -8.5755 -2.5030 0.9608
7.1846 -6.4727 -2.5038 0.9608
7.8370 -5.6665 -2.5040 0.9608
8.0348 -5.3829 -2.5040 0.9608
8.5655 -4.4918 -2.5042 0.9608
-8.8182 -0.4228 -2.4992 0.9640
-8.7974 -0.7379 -2.4992 0.9640
-8.7223 -1.3647 -2.4993 0.9640
-8.6680 -1.6757 -2.4993 0.9640
-8.6026 -1.9846 -2.4993 0.9640
-8.5262 -2.2909 -2.4993 0.9640
-8.4389 -2.5944 -2.4993 0.9640
-7.1859 -5.1314 -2.4997 0.9640
-6.3815 -6.1040 -2.4999 0.9640
-6.1593 -6.3285 -2.5000 0.9640
-5.6916 -6.7528 -2.5001 0.9640
-5.4467 -6.9522 -2.5002 0.9640
-5.1948 -7.1427 -2.5003 0.9639
-4.9362 -7.3241 -2.5003 0.9639
-4.6713 -7.4961 -2.5004 0.9639
-4.4005 -7.6586 -2.5005 0.9639
-4.1239 -7.8113 -2.5006 0.9639
-3.2641 -8.2088 -2.5008 0.9639
-2.6693 -8.4216 -2.5010 0.9639
-2.3665 -8.5120 -2.5011 0.9639
-1.7524 -8.6599 -2.5013 0.9639
-1.4416 -8.7174 -2.5013 0.9639
-0.8150 -8.7988 -2.5015 0.9639
-0.4999 -8.8226 -2.5016 0.9639
0.1320 -8.8364 -2.5018 0.9639
0.4478 -8.8264 -2.5019 0.9639
0.7631 -8.8050 -2.5020 0.9639
1.3905 -8.7286 -2.5021 0.9639
2.0109 -8.6075 -2.5023 0.9639
2.6210 -8.4424 -2.5025 0.9639
3.5102 -8.1140 -2.5028 0.9639
3.7984 -7.9835 -2.5028 0.9639
4.3595 -7.6921 -2.5030 0.9639
4.6319 -7.5316 -2.5031 0.9639
5.6590 -6.7951 -2.5034 0.9639
5.8985 -6.5886 -2.5034 0.9639
6.1304 -6.3737 -2.5035 0.9639
6.3546 -6.1505 -2.5036 0.9639
6.7782 -5.6810 -2.5037 0.9639
6.9771 -5.4351 -2.5037 0.9639
7.5195 -4.6570 -2.5039 0.9639
7.6813 -4.3852 -2.5039 0.9639
7.8334 -4.1079 -2.5040 0.9639
-8.0977 -0.6792 -2.4994 0.9666
-7.9786 -1.5424 -2.4995 0.9666
-7.5774 -2.9371 -2.4996 0.9666
-7.4676 -3.2062 -2.4996 0.9666
-7.3483 -3.4712 -2.4997 0.9666
-7.2196 -3.7318 -2.4997 0.9666
-6.7788 -4.4836 -2.4998 0.9666
-6.4413 -4.9568 -2.4999 0.9666
-6.2601 -5.1840 -2.5000 0.9666
-5.8738 -5.6184 -2.5001 0.9666
-5.0133 -6.3991 -2.5003 0.9666
-4.2996 -6.8997 -2.5005 0.9665
-3.7958 -7.1897 -2.5007 0.9665
-3.5364 -7.3211 -2.5007 0.9665
-3.0043 -7.5555 -2.5009 0.9665
-2.7323 -7.6584 -2.5010 0.9665
-2.4568 -7.7514 -2.5011 0.9665
-1.0392 -8.0661 -2.5015 0.9665
-0.4601 -8.1203 -2.5016 0.9665
0.1214 -8.1329 -2.5018 0.9665
0.4121 -8.1237 -2.5019 0.9665
1.2799 -8.0336 -2.5021 0.9665
1.5663 -7.9830 -2.5022 0.9665
1.8508 -7.9221 -2.5023 0.9665
2.4124 -7.7701 -2.5024 0.9665
2.6887 -7.6791 -2.5025 0.9665
3.2308 -7.4678 -2.5027 0.9665
3.4959 -7.3477 -2.5027 0.9665
4.9811 -6.4359 -2.5032 0.9665
5.2082 -6.2538 -2.5032 0.9665
5.4286 -6.0638 -2.5033 0.9665
5.6421 -5.8660 -2.5034 0.9665
5.8484 -5.6606 -2.5034 0.9665
6.0472 -5.4480 -2.5035 0.9665
6.2382 -5.2284 -2.5035 0.9665
6.4213 -5.0021 -2.5036 0.9665
-7.5111 -0.3602 -2.4996 0.9688
-7.4934 -0.6285 -2.4996 0.9688
-7.4662 -0.8961 -2.4996 0.9688
-7.4294 -1.1624 -2.4996 0.9688
-7.3831 -1.4274 -2.4996 0.9688
-7.3274 -1.6904 -2.4997 0.9688
-7.2624 -1.9514 -2.4997 0.9688
-7.0119 -2.7179 -2.4998 0.9688
-6.9103 -2.9669 -2.4998 0.9688
-6.7999 -3.2121 -2.4998 0.9688
-6.5531 -3.6900 -2.4999 0.9688
-6.4171 -3.9220 -2.4999 0.9688
-5.9605 -4.5868 -2.5001 0.9688
-5.7928 -4.7971 -2.5001 0.9688
-5.4354 -5.1990 -2.5002 0.9688
-4.6391 -5.9214 -2.5004 0.9688
-4.4245 -6.0836 -2.5005 0.9688
-3.9787 -6.3846 -2.5006 0.9688
-3.7479 -6.5229 -2.5007 0.9688
-3.2724 -6.7745 -2.5008 0.9688
-3.0281 -6.8874 -2.5009 0.9688
-2.5283 -7.0865 -2.5010 0.9688
-2.2734 -7.1726 -2.5011 0.9688
-2.0155 -7.2495 -2.5012 0.9688
-1.4924 -7.3754 -2.5013 0.9688
-0.6941 -7.4935 -2.5016 0.9688
0.3814 -7.5169 -2.5019 0.9688
1.1842 -7.4335 -2.5021 0.9688
1.4493 -7.3866 -2.5022 0.9688
1.7125 -7.3303 -2.5022 0.9688
2.4879 -7.1054 -2.5025 0.9688
2.7404 -7.0121 -2.5025 0.9688
3.2347 -6.7987 -2.5027 0.9688
3.9444 -6.4138 -2.5029 0.9688
4.3929 -6.1158 -2.5030 0.9688
4.8190 -5.7865 -2.5031 0.9688
5.0229 -5.6106 -2.5032 0.9688
5.5952 -5.0408 -2.5033 0.9688
6.1032 -4.4129 -2.5035 0.9688
6.2572 -4.1920 -2.5035 0.9688
6.4032 -3.9656 -2.5036 0.9688
6.5410 -3.7342 -2.5036 0.9688
-6.9822 -0.3348 -2.4998 0.9707
-6.9658 -0.5842 -2.4998 0.9707
-6.9405 -0.8329 -2.4998 0.9707
-6.9062 -1.0806 -2.4998 0.9707
-6.8633 -1.3268 -2.4998 0.9707
-6.8114 -1.5714 -2.4998 0.9707
-6.7510 -1.8139 -2.4998 0.9707
-6.6818 -2.0542 -2.4998 0.9707
-6.4236 -2.7580 -2.4999 0.9707
-6.3210 -2.9859 -2.4999 0.9707
-6.2103 -3.2101 -2.5000 0.9707
-5.9651 -3.6458 -2.5000 0.9707
-5.8311 -3.8568 -2.5001 0.9707
-5.5407 -4.2638 -2.5002 0.9707
-5.3848 -4.4593 -2.5002 0.9707
-5.2219 -4.6490 -2.5003 0.9707
-4.8767 -5.0105 -2.5004 0.9707
-4.5063 -5.3465 -2.5005 0.9707
-4.3123 -5.5043 -2.5005 0.9707
-4.1129 -5.6551 -2.5006 0.9707
-3.6984 -5.9349 -2.5007 0.9707
-3.4839 -6.0634 -2.5008 0.9707
-3.2649 -6.1843 -2.5008 0.9707
-2.5842 -6.4989 -2.5010 0.9707
-2.3502 -6.5872 -2.5011 0.9707
-1.8735 -6.7387 -2.5012 0.9707
-1.6314 -6.8016 -2.5013 0.9707
-1.3872 -6.8558 -2.5014 0.9707
-0.1458 -6.9942 -2.5017 0.9707
0.1044 -6.9952 -2.5018 0.9707
0.3545 -6.9871 -2.5019 0.9707
0.6041 -6.9702 -2.5019 0.9707
1.5918 -6.8137 -2.5022 0.9707
1.8345 -6.7525 -2.5023 0.9707
2.0748 -6.6828 -2.5023 0.9707
2.5472 -6.5178 -2.5025 0.9707
2.7787 -6.4227 -2.5025 0.9707
3.0067 -6.3194 -2.5026 0.9707
3.6664 -5.9616 -2.5028 0.9707
3.8772 -5.8268 -2.5029 0.9707
4.0832 -5.6846 -2.5029 0.9707
4.8524 -5.0449 -2.5031 0.9707
5.0297 -4.8682 -2.5032 0.9707
5.3650 -4.4965 -2.5033 0.9707
6.0797 -3.4708 -2.5035 0.9707
6.2000 -3.2513 -2.5035 0.9707
-6.5159 -0.3124 -2.4999 0.9724
-6.4770 -0.7773 -2.4999 0.9724
-6.4450 -1.0084 -2.4999 0.9724
-6.3566 -1.4664 -2.4999 0.9724
-6.3001 -1.6928 -2.5000 0.9724
-6.1631 -2.1388 -2.5000 0.9724
-5.9946 -2.5738 -2.5000 0.9724
-5.7955 -2.9956 -2.5001 0.9724
-5.6848 -3.2010 -2.5001 0.9724
-5.3095 -3.7915 -2.5002 0.9724
-5.0252 -4.1614 -2.5003 0.9724
-4.8733 -4.3385 -2.5004 0.9724
-4.5509 -4.6758 -2.5005 0.9724
-4.2053 -4.9893 -2.5006 0.9724
-4.0243 -5.1366 -2.5006 0.9724
-3.6471 -5.4113 -2.5007 0.9724
-2.4115 -6.0646 -2.5011 0.9724
-2.1932 -6.1471 -2.5011 0.9724
-1.9720 -6.2218 -2.5012 0.9724
-1.5224 -6.3471 -2.5013 0.9724
-0.1360 -6.5268 -2.5017 0.9724
0.0975 -6.5276 -2.5018 0.9724
1.0272 -6.4478 -2.5020 0.9724
1.7119 -6.3012 -2.5022 0.9724
2.5929 -5.9934 -2.5025 0.9724
2.8057 -5.8970 -2.5026 0.9724
3.2201 -5.6817 -2.5027 0.9724
3.6180 -5.4372 -2.5028 0.9724
4.3566 -4.8663 -2.5030 0.9724
4.5279 -4.7075 -2.5030 0.9724
4.6934 -4.5427 -2.5031 0.9724
5.0062 -4.1958 -2.5032 0.9724
5.5536 -3.4395 -2.5033 0.9724
5.6731 -3.2387 -2.5034 0.9724
-6.1014 -0.2926 -2.5000 0.9739
-6.0649 -0.7279 -2.5000 0.9739
-6.0350 -0.9442 -2.5000 0.9739
-5.9974 -1.1594 -2.5000 0.9739
-5.8993 -1.5851 -2.5001 0.9739
-5.8389 -1.7950 -2.5001 0.9739
-5.7710 -2.0027 -2.5001 0.9739
-5.2125 -3.1858 -2.5003 0.9739
-4.9717 -3.5503 -2.5003 0.9739
-4.8416 -3.7258 -2.5004 0.9739
-4.7054 -3.8966 -2.5004 0.9739
-4.2613 -4.3783 -2.5005 0.9739
-3.9377 -4.6718 -2.5006 0.9739
-3.7682 -4.8097 -2.5007 0.9739
-3.2317 -5.1859 -2.5008 0.9739
-2.6579 -5.5025 -2.5010 0.9739
-2.2580 -5.6786 -2.5011 0.9739
-1.6371 -5.8882 -2.5013 0.9739
-1.2121 -5.9904 -2.5014 0.9739
-0.9972 -6.0301 -2.5015 0.9739
-0.7810 -6.0620 -2.5015 0.9739
-0.5637 -6.0862 -2.5016 0.9739
-0.1273 -6.1112 -2.5017 0.9739
0.0912 -6.1120 -2.5018 0.9739
0.5278 -6.0902 -2.5019 0.9739
0.9618 -6.0372 -2.5020 0.9739
1.6029 -5.8999 -2.5022 0.9739
2.2256 -5.6948 -2.5024 0.9739
2.4278 -5.6117 -2.5024 0.9739
2.6270 -5.5214 -2.5025 0.9739
3.0150 -5.3198 -2.5026 0.9739
3.3876 -5.0910 -2.5027 0.9739
4.0791 -4.5564 -2.5029 0.9739
4.2396 -4.4077 -2.5030 0.9739
4.3944 -4.2533 -2.5030 0.9739
4.5438 -4.0936 -2.5030 0.9739
4.9562 -3.5837 -2.5032 0.9739
5.0813 -3.4042 -2.5032 0.9739
5.1998 -3.2204 -2.5032 0.9739
5.3117 -3.0324 -2.5033 0.9739
5.4168 -2.8406 -2.5033 0.9739
-5.7300 -0.2748 -2.5001 0.9753
-5.7165 -0.4795 -2.5001 0.9753
-5.6677 -0.8868 -2.5001 0.9753
-5.4835 -1.6858 -2.5002 0.9753
-5.4198 -1.8808 -2.5002 0.9753
-5.3491 -2.0734 -2.5002 0.9753
-5.1873 -2.4504 -2.5003 0.9753
-5.0964 -2.6343 -2.5003 0.9753
-4.9991 -2.8149 -2.5003 0.9753
-4.5469 -3.4990 -2.5005 0.9753
-4.4190 -3.6594 -2.5005 0.9753
-4.2854 -3.8152 -2.5005 0.9753
-4.0019 -4.1118 -2.5006 0.9753
-3.6979 -4.3874 -2.5007 0.9753
-3.5388 -4.5169 -2.5007 0.9753
-3.3750 -4.6406 -2.5008 0.9753
-3.2071 -4.7584 -2.5008 0.9753
-3.0349 -4.8702 -2.5009 0.9753
-2.6792 -5.0748 -2.5010 0.9753
-2.4961 -5.1675 -2.5010 0.9753
-1.5374 -5.5296 -2.5013 0.9753
-1.1383 -5.6256 -2.5014 0.9753
-0.9365 -5.6629 -2.5015 0.9753
-0.3247 -5.7310 -2.5017 0.9753
-0.1196 -5.7391 -2.5017 0.9753
0.6999 -5.6980 -2.5020 0.9753
1.1054 -5.6337 -2.5021 0.9753
1.8974 -5.4191 -2.5023 0.9753
2.2799 -5.2699 -2.5024 0.9753
2.4669 -5.1851 -2.5025 0.9753
2.8313 -4.9957 -2.5026 0.9753
3.1812 -4.7808 -2.5027 0.9753
3.5149 -4.5414 -2.5028 0.9753
3.8306 -4.2788 -2.5028 0.9753
3.9812 -4.1391 -2.5029 0.9753
4.1267 -3.9942 -2.5029 0.9753
4.2669 -3.8442 -2.5030 0.9753
4.4017 -3.6892 -2.5030 0.9753
4.5309 -3.5295 -2.5030 0.9753
4.8830 -3.0241 -2.5031 0.9753
-5.3951 -0.2587 -2.5002 0.9765
-5.3032 -1.0252 -2.5002 0.9765
-5.2632 -1.2142 -2.5002 0.9765
-5.2165 -1.4016 -2.5003 0.9765
-5.1630 -1.5873 -2.5003 0.9765
-5.1030 -1.7709 -2.5003 0.9765
-4.9635 -2.1311 -2.5003 0.9765
-4.7069 -2.6504 -2.5004 0.9765
-4.3962 -3.1393 -2.5005 0.9765
-4.2812 -3.2945 -2.5005 0.9765
-4.1607 -3.4455 -2.5006 0.9765
-4.0349 -3.5922 -2.5006 0.9765
-3.6272 -4.0038 -2.5007 0.9765
-3.4818 -4.1310 -2.5008 0.9765
-3.3319 -4.2529 -2.5008 0.9765
-3.1778 -4.3694 -2.5008 0.9765
-3.0196 -4.4803 -2.5009 0.9765
-2.6918 -4.6848 -2.5010 0.9765
-2.5226 -4.7781 -2.5010 0.9765
-2.3502 -4.8654 -2.5011 0.9765
-1.9965 -5.0211 -2.5012 0.9765
-1.8158 -5.0894 -2.5012 0.9765
-0.8817 -5.3317 -2.5015 0.9765
-0.4985 -5.3814 -2.5016 0.9765
-0.3057 -5.3959 -2.5017 0.9765
-0.1126 -5.4035 -2.5017 0.9765
0.4667 -5.3848 -2.5019 0.9765
0.8504 -5.3379 -2.5020 0.9765
1.4172 -5.2165 -2.5022 0.9765
2.1466 -4.9616 -2.5024 0.9765
2.3227 -4.8818 -2.5024 0.9765
2.6657 -4.7035 -2.5025 0.9765
3.4601 -4.1547 -2.5027 0.9764
3.6065 -4.0285 -2.5028 0.9764
3.7483 -3.8970 -2.5028 0.9764
3.8853 -3.7605 -2.5029 0.9764
4.0173 -3.6193 -2.5029 0.9764
4.1442 -3.4733 -2.5029 0.9764
4.3820 -3.1684 -2.5030 0.9764
4.4925 -3.0097 -2.5030 0.9764
-5.0913 -0.2442 -2.5003 0.9775
-5.0609 -0.6074 -2.5003 0.9775
-5.0359 -0.7879 -2.5003 0.9775
-4.8723 -1.4979 -2.5004 0.9775
-4.6091 -2.1773 -2.5004 0.9775
-3.4229 -3.7783 -2.5008 0.9775
-3.1443 -4.0133 -2.5009 0.9775
-2.8495 -4.2279 -2.5009 0.9775
-2.6965 -4.3272 -2.5010 0.9775
-2.5401 -4.4209 -2.5010 0.9775
-2.2177 -4.5913 -2.5011 0.9775
-2.0522 -4.6678 -2.5012 0.9775
-1.8841 -4.7382 -2.5012 0.9775
-1.3659 -4.9130 -2.5014 0.9775
-0.6516 -5.0580 -2.5016 0.9775
-0.4704 -5.0782 -2.5016 0.9775
-0.2885 -5.0919 -2.5017 0.9775
0.0761 -5.0997 -2.5018 0.9775
0.2584 -5.0938 -2.5018 0.9775
0.4404 -5.0814 -2.5019 0.9775
0.9821 -5.0053 -2.5020 0.9775
1.1604 -4.9671 -2.5021 0.9775
1.5125 -4.8717 -2.5022 0.9775
1.6858 -4.8146 -2.5022 0.9775
1.8569 -4.7513 -2.5023 0.9775
2.0256 -4.6820 -2.5023 0.9775
2.1917 -4.6067 -2.5024 0.9775
2.5154 -4.4384 -2.5025 0.9775
2.9764 -4.1437 -2.5026 0.9775
3.4032 -3.8014 -2.5027 0.9775
3.6663 -3.5485 -2.5028 0.9775
3.7909 -3.4152 -2.5028 0.9775
4.0253 -3.1357 -2.5029 0.9775
4.3381 -2.6867 -2.5030 0.9775
4.5191 -2.3698 -2.5030 0.9775
-4.8142 -0.2308 -2.5004 0.9785
-4.8029 -0.4028 -2.5004 0.9785
-4.7854 -0.5743 -2.5004 0.9785
-4.7618 -0.7450 -2.5004 0.9785
-4.6964 -1.0835 -2.5004 0.9785
-4.6547 -1.2507 -2.5004 0.9785
-4.4941 -1.7420 -2.5005 0.9785
-4.2000 -2.3650 -2.5006 0.9785
-4.1128 -2.5137 -2.5006 0.9785
-3.8201 -2.9397 -2.5007 0.9785
-3.3622 -3.4545 -2.5008 0.9785
-2.9730 -3.7948 -2.5009 0.9785
-2.6943 -3.9977 -2.5010 0.9785
-2.5497 -4.0916 -2.5010 0.9785
-1.7815 -4.4802 -2.5012 0.9785
-1.6201 -4.5412 -2.5013 0.9785
-1.2916 -4.6455 -2.5014 0.9785
-1.1246 -4.6888 -2.5014 0.9785
-0.9563 -4.7261 -2.5015 0.9785
-0.2728 -4.8146 -2.5017 0.9785
0.0720 -4.8219 -2.5018 0.9785
0.5880 -4.7867 -2.5019 0.9785
0.9286 -4.7327 -2.5020 0.9785
1.0972 -4.6965 -2.5021 0.9785
1.2645 -4.6544 -2.5021 0.9785
1.4301 -4.6063 -2.5022 0.9785
1.5939 -4.5523 -2.5022 0.9785
1.9153 -4.4269 -2.5023 0.9785
2.0723 -4.3557 -2.5023 0.9785
2.2268 -4.2789 -2.5024 0.9785
2.3784 -4.1966 -2.5024 0.9785
2.5270 -4.1089 -2.5025 0.9785
2.6723 -4.0160 -2.5025 0.9785
2.9526 -3.8149 -2.5026 0.9785
3.0872 -3.7070 -2.5026 0.9785
3.2178 -3.5942 -2.5027 0.9785
3.4665 -3.3552 -2.5027 0.9785
3.8060 -2.9648 -2.5028 0.9785
4.0082 -2.6853 -2.5029 0.9785
4.1017 -2.5403 -2.5029 0.9785
4.1900 -2.3920 -2.5029 0.9785
-4.5601 -0.2187 -2.5004 0.9794
-4.4090 -1.1846 -2.5005 0.9794
-4.3638 -1.3416 -2.5005 0.9794
-4.3131 -1.4968 -2.5005 0.9794
-4.0558 -2.0964 -2.5006 0.9794
-3.8081 -2.5188 -2.5007 0.9794
-3.6185 -2.7846 -2.5007 0.9794
-3.5166 -2.9122 -2.5007 0.9794
-3.4103 -3.0361 -2.5008 0.9794
-3.2996 -3.1561 -2.5008 0.9794
-3.1847 -3.2721 -2.5008 0.9794
-2.9428 -3.4914 -2.5009 0.9794
-2.4151 -3.8755 -2.5011 0.9794
-2.2750 -3.9595 -2.5011 0.9794
-1.9863 -4.1121 -2.5012 0.9794
-1.8380 -4.1806 -2.5012 0.9794
-1.6874 -4.2437 -2.5013 0.9794
-1.3799 -4.3536 -2.5014 0.9794
-1.2233 -4.4002 -2.5014 0.9794
-0.9058 -4.4765 -2.5015 0.9794
-0.7452 -4.5062 -2.5015 0.9794
-0.5834 -4.5300 -2.5016 0.9794
-0.4213 -4.5481 -2.5016 0.9794
-0.2581 -4.5603 -2.5017 0.9794
-0.0946 -4.5667 -2.5017 0.9794
0.2316 -4.5620 -2.5018 0.9794
0.5570 -4.5340 -2.5019 0.9794
0.7187 -4.5112 -2.5020 0.9794
0.8795 -4.4827 -2.5020 0.9794
1.5097 -4.3119 -2.5022 0.9794
1.6630 -4.2552 -2.5022 0.9794
1.8141 -4.1931 -2.5023 0.9794
1.9629 -4.1256 -2.5023 0.9794
2.3935 -3.8919 -2.5024 0.9794
2.5312 -3.8039 -2.5025 0.9794
2.7966 -3.6134 -2.5025 0.9794
2.9241 -3.5111 -2.5026 0.9794
3.3949 -3.0586 -2.5027 0.9794
3.5022 -2.9353 -2.5027 0.9794
3.6049 -2.8082 -2.5028 0.9794
4.0471 -2.1223 -2.5029 0.9794
-4.2790 -0.6695 -2.5005 0.9802
-4.2523 -0.8221 -2.5005 0.9802
-4.1827 -1.1239 -2.5006 0.9802
-4.0917 -1.4199 -2.5006 0.9802
-3.7741 -2.1252 -2.5007 0.9802
-3.6957 -2.2588 -2.5007 0.9802
-3.6126 -2.3895 -2.5007 0.9802
-3.5249 -2.5172 -2.5007 0.9802
-3.4327 -2.6416 -2.5008 0.9802
-3.1302 -2.9941 -2.5009 0.9802
-3.0212 -3.1042 -2.5009 0.9802
-2.9083 -3.2103 -2.5009 0.9802
-2.7917 -3.3122 -2.5010 0.9802
-2.4211 -3.5922 -2.5011 0.9802
-2.2911 -3.6766 -2.5011 0.9802
-2.1582 -3.7562 -2.5011 0.9802
-1.7437 -3.9659 -2.5013 0.9802
-1.1606 -4.1743 -2.5014 0.9802
-1.0106 -4.2132 -2.5015 0.9802
-0.8593 -4.2467 -2.5015 0.9802
-0.5536 -4.2974 -2.5016 0.9802
-0.3996 -4.3145 -2.5016 0.9802
-0.0903 -4.3322 -2.5017 0.9802
0.0647 -4.3327 -2.5018 0.9802
0.6818 -4.2796 -2.5019 0.9802
0.8344 -4.2525 -2.5020 0.9802
1.1362 -4.1821 -2.5021 0.9802
1.4322 -4.0904 -2.5022 0.9802
1.7209 -3.9777 -2.5022 0.9802
1.8621 -3.9137 -2.5023 0.9802
2.5287 -3.5204 -2.5025 0.9802
2.6529 -3.4278 -2.5025 0.9802
2.8912 -3.2295 -2.5026 0.9802
3.5128 -2.5400 -2.5028 0.9802
3.6014 -2.4128 -2.5028 0.9802
3.7647 -2.1493 -2.5028 0.9802
