ply
format ascii 1.0
element vertex 1084
property float32 x
property float32 y
property float32 z
property float32 I
end_header
-32.4025 4.8047 5.7759 0.8754
-38.8215 -26.7226 8.3102 0.8258
-30.8405 -26.5090 7.1708 0.8477
-26.8912 -30.7898 7.2082 0.8470
-25.1687 -30.9846 7.0387 0.8503
-24.8345 -32.9082 7.2695 0.8458
-23.0235 -32.8883 7.0788 0.8495
-21.4203 -35.7892 7.3545 0.8442
-18.0000 -35.6215 7.0374 0.8504
-17.4695 -37.8739 7.3544 0.8442
-14.2299 -37.7205 7.1087 0.8490
-12.7050 -37.7036 7.0155 0.8508
-8.6296 -38.9803 7.0397 0.8503
-7.3271 -39.7795 7.1322 0.8485
-5.8646 -39.7632 7.0872 0.8494
1.2764 -39.6827 7.0007 0.8511
2.6964 -39.6666 7.0104 0.8509
5.5573 -39.6341 7.0569 0.8500
8.4714 -39.6009 7.1407 0.8483
10.8647 -37.4751 6.8799 0.8534
12.3135 -37.4210 6.9463 0.8521
13.7187 -37.1654 6.9855 0.8514
13.3490 -32.5372 6.2013 0.8669
16.0154 -35.3818 6.8481 0.8541
13.5800 -27.3570 5.3854 0.8833
20.7940 -35.3115 7.2257 0.8467
20.7920 -32.5875 6.8160 0.8547
24.1443 -32.4724 7.1350 0.8484
25.9925 -30.1925 7.0248 0.8506
26.1352 -28.2517 6.7862 0.8553
28.0215 -26.2546 6.7708 0.8556
29.6164 -25.8263 6.9288 0.8525
-32.6068 9.7331 5.2130 0.8714
-38.9558 -28.9183 7.4324 0.8217
-31.6178 -25.2711 6.2007 0.8489
-31.2413 -35.7705 7.2756 0.8252
-26.5035 -37.8594 7.0798 0.8294
-25.9173 -39.9892 7.3002 0.8246
-23.9209 -39.9671 7.1356 0.8282
-19.4210 -42.1048 7.1033 0.8289
-17.7618 -42.4293 7.0465 0.8302
-8.6018 -25.5268 4.1266 0.8967
-8.8605 -34.1886 5.4105 0.8668
-8.8026 -39.7617 6.2387 0.8481
13.7610 -41.8201 6.7445 0.8368
13.8550 -33.7704 5.5919 0.8627
13.5317 -29.8951 5.0271 0.8756
13.5850 -27.3671 4.6806 0.8837
23.2220 -39.4346 7.0108 0.8309
23.9293 -37.5046 6.8153 0.8352
30.3078 -35.2050 7.1164 0.8286
32.0614 -32.2659 6.9683 0.8319
32.1643 -30.1362 6.7523 0.8366
-31.7301 -25.3609 5.2896 0.8489
-31.3087 -28.9184 5.5501 0.8420
-31.3447 -33.4022 5.9649 0.8313
-30.9845 -38.1441 6.3994 0.8202
-8.5350 -38.5532 5.1420 0.8528
13.7749 -41.8621 5.7389 0.8371
13.5490 -27.2945 3.9681 0.8843
13.1762 -16.4592 2.7455 0.9185
36.0038 -31.3962 6.2207 0.8247
-32.5205 7.2259 3.5773 0.8746
-31.4261 -27.0123 4.4499 0.8464
-31.7089 -31.4593 4.7964 0.8355
-8.9291 -34.4534 3.8219 0.8666
13.6058 -33.1631 3.8492 0.8657
13.4659 -24.8567 3.0357 0.8925
13.1773 -16.4606 2.2642 0.9187
-43.1315 -19.4827 4.0064 0.8270
-31.2782 -35.8126 4.0251 0.8262
-8.3436 -24.7605 1.6202 0.9006
13.1794 -16.4632 1.3077 0.9190
-31.1952 -24.9334 1.5747 0.8523
-9.3015 -24.6563 1.0391 0.8999
-8.3047 -24.6451 1.0255 0.9011
13.2193 -24.4015 1.0943 0.8949
14.3618 -24.3885 1.1160 0.8929
36.4515 -34.1532 1.9696 0.8188
-9.3021 -24.6580 0.4452 0.8999
-8.3053 -24.6468 0.4393 0.9012
13.1815 -16.4659 0.3563 0.9191
36.4324 -31.7699 0.8165 0.8242
-31.0165 -23.0246 -0.2175 0.8568
-28.7747 -22.9986 -0.2074 0.8630
-26.7299 -22.9756 -0.1984 0.8685
-24.8552 -22.9575 -0.1905 0.8734
-19.9845 -22.8816 -0.1710 0.8856
-18.5724 -22.8639 -0.1658 0.8888
-15.9920 -22.8440 -0.1570 0.8945
-13.6559 -22.8162 -0.1497 0.8991
-12.5646 -22.8033 -0.1466 0.9011
-9.5315 -22.7685 -0.1390 0.9060
-8.5859 -22.7594 -0.1370 0.9073
-7.6663 -22.7504 -0.1352 0.9084
-4.1820 -22.7045 -0.1300 0.9118
-3.3472 -22.6946 -0.1292 0.9123
-2.5219 -22.6848 -0.1285 0.9127
-1.7038 -22.6751 -0.1280 0.9131
-0.8908 -22.6655 -0.1277 0.9133
0.7288 -22.6586 -0.1276 0.9133
1.5395 -22.6482 -0.1278 0.9132
3.1726 -22.6271 -0.1286 0.9127
3.9993 -22.6165 -0.1293 0.9122
4.8357 -22.6057 -0.1302 0.9117
5.6858 -22.6012 -0.1312 0.9110
7.4303 -22.5810 -0.1338 0.9093
10.2064 -22.5488 -0.1393 0.9057
11.1911 -22.5446 -0.1417 0.9042
14.3600 -22.5068 -0.1503 0.8987
-31.0199 -23.0271 -1.0878 0.8568
-23.1255 -22.9435 -0.9173 0.8778
-18.5746 -22.8666 -0.8295 0.8888
-15.9930 -22.8453 -0.7852 0.8944
-12.5653 -22.8045 -0.7331 0.9011
-9.5324 -22.7708 -0.6951 0.9059
-8.5868 -22.7616 -0.6850 0.9072
-7.6671 -22.7527 -0.6761 0.9084
-6.7699 -22.7440 -0.6682 0.9094
-5.8923 -22.7355 -0.6613 0.9103
-5.0290 -22.7162 -0.6551 0.9111
-4.1823 -22.7061 -0.6501 0.9118
-3.3475 -22.6963 -0.6460 0.9123
-1.7039 -22.6768 -0.6403 0.9130
0.7288 -22.6605 -0.6384 0.9133
2.3536 -22.6396 -0.6409 0.9129
3.9996 -22.6183 -0.6468 0.9122
5.6864 -22.6037 -0.6563 0.9109
9.2566 -22.5624 -0.6867 0.9070
13.2623 -22.5216 -0.7359 0.9007
13.1837 -16.4685 -0.5940 0.9190
-46.0786 -18.8630 -2.5251 0.8192
-45.2676 -20.4476 -2.5190 0.8196
-43.4844 -23.5138 -2.5070 0.8204
-41.4973 -26.4314 -2.4951 0.8211
-31.0233 -23.0296 -1.9594 0.8566
-28.7807 -23.0035 -1.8685 0.8628
-24.8612 -22.9631 -1.7163 0.8732
-21.4954 -22.9064 -1.5931 0.8818
-19.9894 -22.8872 -1.5411 0.8854
-18.5768 -22.8693 -1.4942 0.8887
-17.2459 -22.8524 -1.4519 0.8917
-15.9939 -22.8467 -1.4143 0.8943
-14.7979 -22.8324 -1.3798 0.8968
-13.6574 -22.8188 -1.3487 0.8990
-10.5087 -22.7827 -1.2724 0.9044
-8.5877 -22.7639 -1.2339 0.9072
-7.6678 -22.7549 -1.2178 0.9083
-6.7706 -22.7462 -1.2036 0.9093
-5.8929 -22.7376 -1.1912 0.9102
-5.0293 -22.7179 -1.1800 0.9110
-4.1826 -22.7079 -1.1710 0.9117
-1.7040 -22.6785 -1.1534 0.9129
-0.8909 -22.6688 -1.1505 0.9131
-0.0808 -22.6727 -1.1498 0.9132
0.7289 -22.6623 -1.1499 0.9132
1.5397 -22.6519 -1.1514 0.9131
3.1731 -22.6308 -1.1589 0.9125
4.0000 -22.6202 -1.1650 0.9121
4.8365 -22.6095 -1.1726 0.9116
6.5508 -22.5962 -1.1931 0.9101
10.2087 -22.5540 -1.2555 0.9056
13.2633 -22.5233 -1.3256 0.9006
14.3623 -22.5103 -1.3542 0.8986
15.5110 -22.4967 -1.3858 0.8963
30.2411 -35.1274 -2.3507 0.8306
21.4260 -23.1611 -1.6001 0.8813
22.9847 -23.1313 -1.6537 0.8776
24.8204 -23.2554 -1.7249 0.8726
-30.1704 11.4084 -2.3650 0.8787
-32.1087 8.3480 -2.4326 0.8754
-34.7851 -2.3375 -2.5563 0.8695
-34.1716 -6.0154 -2.5441 0.8701
-33.8792 -7.2199 -2.5399 0.8703
-33.5440 -8.4112 -2.5357 0.8705
-32.7474 -10.7477 -2.5271 0.8709
-31.7902 -13.0138 -2.5187 0.8713
-31.2537 -14.1175 -2.5145 0.8715
-28.3678 -15.3397 -2.3646 0.8787
-26.9865 -17.1889 -2.3460 0.8796
-26.3165 -18.1148 -2.3425 0.8797
-24.8766 -19.8831 -2.3350 0.8801
-24.1125 -20.7259 -2.3313 0.8803
-19.9919 -22.8901 -2.2284 0.8852
-18.5790 -22.8721 -2.1606 0.8885
-17.2479 -22.8551 -2.0994 0.8915
-14.7987 -22.8337 -1.9951 0.8966
-13.6582 -22.8201 -1.9500 0.8988
-10.5097 -22.7850 -1.8398 0.9043
-9.5344 -22.7755 -1.8104 0.9057
-8.5885 -22.7662 -1.7841 0.9070
-6.7712 -22.7484 -1.7403 0.9092
-4.1829 -22.7096 -1.6931 0.9115
-3.3479 -22.6996 -1.6824 0.9121
-0.8910 -22.6705 -1.6635 0.9130
1.5399 -22.6537 -1.6649 0.9130
2.3540 -22.6433 -1.6692 0.9127
4.0003 -22.6221 -1.6844 0.9120
5.6877 -22.6086 -1.7094 0.9107
6.5516 -22.5987 -1.7252 0.9099
10.2099 -22.5566 -1.8154 0.9055
12.2095 -22.5375 -1.8794 0.9023
13.2644 -22.5251 -1.9167 0.9005
19.8696 -23.0802 -2.2330 0.8850
23.0504 -23.1973 -2.3978 0.8771
24.6708 -21.5135 -2.4001 0.8770
-25.8795 6.7285 -2.5672 0.8981
-26.0786 5.7946 -2.5647 0.8982
-26.5298 2.0141 -2.5543 0.8986
-26.5478 0.1152 -2.5487 0.8988
-26.5052 -0.8320 -2.5459 0.8989
-26.4283 -1.7759 -2.5430 0.8990
-26.3174 -2.7154 -2.5400 0.8991
-25.7834 -5.4946 -2.5309 0.8995
-25.2634 -7.3030 -2.5247 0.8997
-24.2467 -9.9258 -2.5153 0.9001
-22.9592 -12.4150 -2.5058 0.9004
-22.4729 -13.2103 -2.5027 0.9005
-21.9592 -13.9868 -2.4995 0.9007
-20.2437 -15.0276 -2.4205 0.9037
-19.0286 -15.2090 -2.3387 0.9068
-18.4506 -15.8593 -2.3358 0.9069
-17.8507 -16.4879 -2.3329 0.9070
-17.2297 -17.0941 -2.3301 0.9071
-16.5921 -17.6812 -2.3278 0.9072
-15.9347 -18.2448 -2.3256 0.9072
-14.5627 -19.2969 -2.3209 0.9074
-13.8491 -19.7829 -2.3184 0.9075
-13.1197 -20.2430 -2.3159 0.9076
-12.3754 -20.6768 -2.3135 0.9077
-10.8459 -21.4637 -2.3088 0.9079
-10.0627 -21.8159 -2.3065 0.9080
-9.2684 -22.1403 -2.3043 0.9081
-6.7719 -22.7507 -2.2789 0.9090
-5.8940 -22.7421 -2.2555 0.9099
-0.8910 -22.6722 -2.1783 0.9129
2.3542 -22.6451 -2.1858 0.9126
4.0006 -22.6240 -2.2057 0.9118
4.8373 -22.6133 -2.2201 0.9113
5.6883 -22.6111 -2.2384 0.9106
7.4150 -22.5342 -2.2775 0.9091
9.0018 -21.9411 -2.2768 0.9091
12.0275 -20.4245 -2.2756 0.9091
12.7479 -19.9799 -2.2753 0.9092
14.1399 -19.0171 -2.2751 0.9092
13.1869 -16.4725 -2.0258 0.9187
16.1192 -17.4246 -2.2789 0.9090
19.0293 -16.5939 -2.4239 0.9035
-20.8163 5.4121 -2.5549 0.9170
-21.1168 3.9065 -2.5509 0.9171
-21.3068 2.3854 -2.5468 0.9173
-21.3603 1.6217 -2.5446 0.9173
-21.3859 0.8571 -2.5424 0.9174
-21.2970 -1.4311 -2.5355 0.9176
-21.2124 -2.1887 -2.5331 0.9177
-21.1006 -2.9419 -2.5307 0.9178
-20.6046 -5.1666 -2.5233 0.9180
-19.5804 -8.0155 -2.5132 0.9183
-17.7546 -11.3087 -2.5005 0.9187
-16.8680 -12.5217 -2.4954 0.9189
-16.3937 -13.1029 -2.4929 0.9189
-15.8994 -13.6664 -2.4904 0.9190
-15.3860 -14.2113 -2.4880 0.9191
-14.8542 -14.7373 -2.4855 0.9192
-13.8845 -14.7958 -2.4102 0.9215
-12.9127 -14.7852 -2.3318 0.9240
-12.3546 -15.2094 -2.3276 0.9241
-11.7926 -15.6264 -2.3254 0.9242
-11.2169 -16.0229 -2.3233 0.9242
-10.6280 -16.3985 -2.3212 0.9243
-10.0269 -16.7528 -2.3192 0.9244
-9.4150 -17.0872 -2.3174 0.9244
-8.1597 -17.6903 -2.3141 0.9245
-7.5176 -17.9579 -2.3125 0.9246
-6.2083 -18.4239 -2.3094 0.9247
-4.1944 -18.9463 -2.3050 0.9248
-3.5130 -19.0726 -2.3037 0.9249
-2.8281 -19.1749 -2.3023 0.9249
-2.1404 -19.2529 -2.3011 0.9249
-1.4507 -19.3067 -2.2998 0.9250
-0.7600 -19.3363 -2.2986 0.9250
-0.0689 -19.3415 -2.2975 0.9250
0.6215 -19.3225 -2.2964 0.9251
1.3105 -19.2793 -2.2954 0.9251
1.9973 -19.2121 -2.2944 0.9251
2.6810 -19.1209 -2.2935 0.9252
3.3608 -19.0058 -2.2926 0.9252
4.0360 -18.8670 -2.2918 0.9252
5.3689 -18.5192 -2.2904 0.9253
6.0252 -18.3106 -2.2898 0.9253
6.6736 -18.0793 -2.2892 0.9253
7.3133 -17.8255 -2.2887 0.9253
6.7575 -14.9292 -1.9466 0.9361
8.5638 -17.2519 -2.2879 0.9253
9.1731 -16.9327 -2.2875 0.9254
9.7708 -16.5925 -2.2873 0.9254
10.3563 -16.2315 -2.2871 0.9254
10.9296 -15.8518 -2.2872 0.9254
11.4899 -15.4530 -2.2874 0.9254
12.5676 -14.5983 -2.2881 0.9253
13.0837 -14.1432 -2.2886 0.9253
14.8512 -13.9148 -2.4175 0.9213
-16.8413 6.3682 -2.5511 0.9298
-17.0483 5.7595 -2.5497 0.9299
-17.3948 4.5225 -2.5466 0.9300
-17.5341 3.8960 -2.5450 0.9300
-17.8141 1.9944 -2.5398 0.9301
-17.8187 -1.1974 -2.5304 0.9304
-17.7507 -1.8315 -2.5284 0.9304
-17.6599 -2.4622 -2.5264 0.9305
-17.4108 -3.7104 -2.5223 0.9306
-16.6495 -6.1312 -2.5139 0.9308
-16.4060 -6.7161 -2.5118 0.9309
-16.1420 -7.2914 -2.5097 0.9309
-15.5538 -8.4106 -2.5054 0.9311
-14.5279 -10.0003 -2.4990 0.9312
-14.1495 -10.5037 -2.4969 0.9313
-13.3414 -11.4676 -2.4927 0.9314
-12.9127 -11.9269 -2.4906 0.9314
-12.4683 -12.3702 -2.4886 0.9315
-11.5350 -13.2072 -2.4846 0.9316
-11.0472 -13.6000 -2.4826 0.9317
-10.0328 -14.3315 -2.4788 0.9318
-9.4774 -14.6232 -2.4691 0.9320
-8.7423 -14.6066 -2.4120 0.9335
-8.0393 -14.5902 -2.3603 0.9349
-6.8567 -14.8654 -2.3195 0.9360
-4.6583 -15.6499 -2.3136 0.9362
-4.0940 -15.7969 -2.3122 0.9362
-3.5253 -15.9239 -2.3109 0.9362
-2.9528 -16.0309 -2.3096 0.9363
-1.7993 -16.1842 -2.3072 0.9363
0.5225 -16.2471 -2.3032 0.9364
2.2548 -16.0813 -2.3008 0.9365
3.3950 -15.8706 -2.2996 0.9365
3.9587 -15.7356 -2.2990 0.9366
4.5171 -15.5811 -2.2986 0.9366
5.0697 -15.4071 -2.2982 0.9366
5.6159 -15.2141 -2.2978 0.9366
6.6861 -14.7715 -2.2974 0.9366
7.2089 -14.5224 -2.2972 0.9366
9.6080 -13.9351 -2.3983 0.9339
10.7921 -13.4810 -2.4468 0.9326
11.2682 -13.0890 -2.4471 0.9326
11.7306 -12.6805 -2.4476 0.9326
12.1785 -12.2561 -2.4481 0.9326
12.6114 -11.8162 -2.4487 0.9326
13.0288 -11.3614 -2.4493 0.9325
-14.6259 4.9411 -2.5433 0.9393
-14.7855 4.4134 -2.5420 0.9394
-14.9258 3.8806 -2.5406 0.9394
-15.1479 2.8023 -2.5378 0.9395
-15.3333 1.1641 -2.5333 0.9396
-15.3579 0.0666 -2.5301 0.9396
-15.3405 -0.4815 -2.5284 0.9397
-14.9598 -3.1881 -2.5198 0.9399
-14.8259 -3.7176 -2.5180 0.9399
-14.3123 -5.2705 -2.5126 0.9400
-14.1047 -5.7740 -2.5108 0.9401
-13.8794 -6.2694 -2.5089 0.9401
-12.8077 -8.1578 -2.5016 0.9403
-12.1750 -9.0379 -2.4979 0.9404
-11.8359 -9.4601 -2.4961 0.9404
-11.4823 -9.8696 -2.4943 0.9405
-11.1146 -10.2661 -2.4925 0.9405
-9.0828 -12.0355 -2.4840 0.9407
-8.6415 -12.3440 -2.4823 0.9407
-6.2916 -13.6403 -2.4746 0.9409
-4.7887 -14.2109 -2.4704 0.9410
-4.2759 -14.3652 -2.4691 0.9410
-3.7359 -14.4152 -2.4532 0.9414
-2.1190 -14.3669 -2.3924 0.9428
-0.5627 -14.3156 -2.3602 0.9436
-0.0509 -14.2977 -2.3554 0.9437
0.4592 -14.2793 -2.3536 0.9437
0.9693 -14.2603 -2.3547 0.9437
2.5110 -14.1999 -2.3756 0.9432
3.0330 -14.1783 -2.3886 0.9429
3.5613 -14.1560 -2.4047 0.9425
4.0973 -14.1328 -2.4241 0.9421
5.1598 -13.9783 -2.4546 0.9414
6.1432 -13.5720 -2.4542 0.9414
6.6236 -13.3433 -2.4541 0.9414
7.5590 -12.8362 -2.4540 0.9414
9.3121 -11.6323 -2.4547 0.9414
9.7228 -11.2938 -2.4550 0.9414
11.2404 -9.8019 -2.4569 0.9413
-12.9349 3.8611 -2.5373 0.9465
-13.2547 2.4520 -2.5336 0.9466
-13.3270 1.9762 -2.5323 0.9466
-13.4294 -0.4215 -2.5254 0.9468
-13.3980 -0.9003 -2.5240 0.9468
-13.3494 -1.3774 -2.5225 0.9468
-12.8529 -3.7154 -2.5148 0.9470
-10.9574 -7.5425 -2.5003 0.9473
-10.3779 -8.2947 -2.4971 0.9474
-10.0687 -8.6546 -2.4956 0.9474
-9.7472 -9.0030 -2.4940 0.9474
-9.4136 -9.3395 -2.4925 0.9475
-8.7124 -9.9754 -2.4894 0.9475
-8.3456 -10.2740 -2.4879 0.9476
-7.9687 -10.5593 -2.4865 0.9476
-7.1864 -11.0884 -2.4836 0.9476
-6.3691 -11.5602 -2.4809 0.9477
-5.5224 -11.9727 -2.4782 0.9478
-5.0888 -12.1561 -2.4770 0.9478
-3.7542 -12.6124 -2.4734 0.9479
-3.2999 -12.7328 -2.4723 0.9479
-2.8419 -12.8370 -2.4713 0.9479
-1.9168 -12.9965 -2.4693 0.9479
-1.4510 -13.0517 -2.4683 0.9480
-0.9836 -13.0905 -2.4674 0.9480
-0.0467 -13.1186 -2.4658 0.9480
0.4216 -13.1080 -2.4651 0.9480
0.8892 -13.0808 -2.4644 0.9480
1.8197 -12.9775 -2.4631 0.9481
2.2814 -12.9014 -2.4626 0.9481
3.1952 -12.7010 -2.4617 0.9481
4.0924 -12.4370 -2.4610 0.9481
4.9687 -12.1107 -2.4605 0.9481
5.3976 -11.9248 -2.4603 0.9481
5.8197 -11.7239 -2.4602 0.9481
6.6416 -11.2785 -2.4602 0.9481
7.0403 -11.0344 -2.4602 0.9481
8.1817 -10.2203 -2.4607 0.9481
8.5424 -9.9227 -2.4610 0.9481
9.5591 -8.9564 -2.4622 0.9481
-11.2198 4.2426 -2.5355 0.9521
-11.4852 3.4283 -2.5336 0.9522
-11.5955 3.0147 -2.5325 0.9522
-11.6908 2.5976 -2.5315 0.9522
-11.8855 1.3306 -2.5281 0.9523
-11.9198 0.9049 -2.5269 0.9523
-11.9304 -0.3745 -2.5231 0.9524
-11.8609 -1.2238 -2.5205 0.9524
-11.8034 -1.6457 -2.5191 0.9524
-11.7308 -2.0650 -2.5178 0.9525
-11.4237 -3.3023 -2.5136 0.9525
-11.2922 -3.7061 -2.5122 0.9526
-11.1463 -4.1046 -2.5108 0.9526
-10.4245 -5.6370 -2.5051 0.9527
-10.2108 -6.0022 -2.5036 0.9527
-9.9842 -6.3594 -2.5022 0.9528
-9.2311 -7.3781 -2.4980 0.9528
-8.6712 -8.0093 -2.4952 0.9529
-8.0687 -8.5983 -2.4924 0.9529
-7.7522 -8.8762 -2.4911 0.9530
-7.4264 -9.1424 -2.4898 0.9530
-7.0915 -9.3969 -2.4884 0.9530
-6.7479 -9.6391 -2.4872 0.9530
-6.3961 -9.8689 -2.4859 0.9531
-5.6699 -10.2902 -2.4835 0.9531
-5.2962 -10.4811 -2.4823 0.9531
-4.5305 -10.8224 -2.4800 0.9532
-3.7433 -11.1086 -2.4779 0.9532
-2.9385 -11.3382 -2.4758 0.9532
-1.7071 -11.5746 -2.4731 0.9533
-1.2923 -11.6243 -2.4723 0.9533
2.0324 -11.4934 -2.4672 0.9534
2.4411 -11.4114 -2.4667 0.9534
2.8466 -11.3152 -2.4663 0.9534
3.2475 -11.2049 -2.4660 0.9534
4.0390 -10.9420 -2.4655 0.9534
4.4268 -10.7899 -2.4653 0.9534
4.8090 -10.6244 -2.4651 0.9534
5.5547 -10.2535 -2.4650 0.9534
6.2725 -9.8311 -2.4650 0.9534
6.6199 -9.6012 -2.4651 0.9534
6.9589 -9.3593 -2.4653 0.9534
7.2893 -9.1055 -2.4655 0.9534
7.6106 -8.8404 -2.4657 0.9534
7.9224 -8.5639 -2.4660 0.9534
-10.2047 3.4475 -2.5315 0.9567
-10.3177 3.0798 -2.5306 0.9567
-10.6346 1.5769 -2.5267 0.9568
-10.7110 0.8132 -2.5246 0.9568
-10.7323 0.0466 -2.5224 0.9569
-10.7222 -0.3366 -2.5212 0.9569
-10.6097 -1.4793 -2.5176 0.9569
-10.5450 -1.8563 -2.5164 0.9570
-10.3754 -2.6017 -2.5139 0.9570
-10.2707 -2.9690 -2.5127 0.9570
-9.5556 -4.7342 -2.5063 0.9571
-9.3756 -5.0698 -2.5050 0.9571
-8.7661 -6.0342 -2.5011 0.9572
-8.5407 -6.3401 -2.4999 0.9572
-8.3046 -6.6376 -2.4986 0.9573
-7.2604 -7.7370 -2.4936 0.9573
-6.9761 -7.9875 -2.4924 0.9574
-6.3821 -8.4570 -2.4900 0.9574
-6.0733 -8.6755 -2.4889 0.9574
-5.7569 -8.8828 -2.4878 0.9574
-5.4337 -9.0786 -2.4866 0.9575
-5.1037 -9.2628 -2.4856 0.9575
-3.0099 -10.1120 -2.4796 0.9576
-2.2789 -10.2937 -2.4778 0.9576
-1.9092 -10.3651 -2.4770 0.9576
-1.1638 -10.4684 -2.4755 0.9576
-0.4134 -10.5189 -2.4741 0.9577
-0.0375 -10.5242 -2.4734 0.9577
0.3383 -10.5162 -2.4728 0.9577
1.0875 -10.4608 -2.4718 0.9577
1.4601 -10.4132 -2.4713 0.9577
2.9262 -10.0932 -2.4698 0.9577
3.2844 -9.9812 -2.4695 0.9577
3.6383 -9.8567 -2.4693 0.9577
3.9877 -9.7198 -2.4691 0.9577
4.3321 -9.5707 -2.4690 0.9578
4.6709 -9.4096 -2.4689 0.9578
5.0039 -9.2366 -2.4689 0.9578
5.6505 -8.8561 -2.4689 0.9578
6.2687 -8.4310 -2.4692 0.9577
6.5663 -8.2024 -2.4694 0.9577
7.4083 -7.4555 -2.4702 0.9577
7.6709 -7.1873 -2.4705 0.9577
7.9240 -6.9099 -2.4709 0.9577
-9.3565 2.7929 -2.5282 0.9605
-9.4471 2.4562 -2.5273 0.9605
-9.5255 2.1165 -2.5265 0.9605
-9.5916 1.7744 -2.5256 0.9605
-9.6453 1.4302 -2.5246 0.9605
-9.6865 1.0844 -2.5237 0.9605
-9.7153 0.7375 -2.5227 0.9605
-9.7316 0.3900 -2.5217 0.9606
-9.7055 -0.6522 -2.5186 0.9606
-9.6259 -1.3421 -2.5164 0.9606
-9.4971 -2.0239 -2.5142 0.9607
-9.4146 -2.3607 -2.5131 0.9607
-9.3200 -2.6942 -2.5119 0.9607
-9.0956 -3.3495 -2.5096 0.9607
-8.9660 -3.6704 -2.5085 0.9608
-8.8252 -3.9864 -2.5073 0.9608
-8.6731 -4.2970 -2.5061 0.9608
-8.3365 -4.9005 -2.5038 0.9608
-7.9581 -5.4779 -2.5015 0.9609
-7.3165 -6.2889 -2.4980 0.9609
-7.0840 -6.5432 -2.4969 0.9609
-6.8428 -6.7889 -2.4957 0.9610
-6.5930 -7.0258 -2.4946 0.9610
-6.3351 -7.2536 -2.4935 0.9610
-6.0694 -7.4719 -2.4924 0.9610
-5.5160 -7.8794 -2.4903 0.9610
-5.2289 -8.0680 -2.4893 0.9611
-4.0206 -8.7166 -2.4854 0.9611
-2.0706 -9.3529 -2.4803 0.9612
-1.7347 -9.4180 -2.4795 0.9612
-1.0575 -9.5125 -2.4781 0.9612
-0.0341 -9.5639 -2.4763 0.9613
0.3074 -9.5569 -2.4757 0.9613
0.6483 -9.5379 -2.4752 0.9613
1.6638 -9.4089 -2.4739 0.9613
2.9851 -9.0717 -2.4727 0.9613
3.3069 -8.9586 -2.4725 0.9613
3.6244 -8.8343 -2.4724 0.9613
4.2454 -8.5524 -2.4722 0.9613
4.8449 -8.2275 -2.4721 0.9613
5.1356 -8.0493 -2.4722 0.9613
5.6976 -7.6629 -2.4724 0.9613
5.9680 -7.4551 -2.4726 0.9613
6.2309 -7.2378 -2.4728 0.9613
6.4861 -7.0113 -2.4730 0.9613
6.9717 -6.5321 -2.4736 0.9613
7.2016 -6.2800 -2.4740 0.9613
-8.3514 3.1579 -2.5276 0.9636
-8.4564 2.8569 -2.5269 0.9636
-8.8155 1.3072 -2.5229 0.9636
-8.8535 0.9912 -2.5220 0.9636
-8.8953 0.3564 -2.5202 0.9637
-8.8420 -0.9123 -2.5164 0.9637
-8.8003 -1.2270 -2.5154 0.9637
-8.7473 -1.5398 -2.5144 0.9637
-8.6832 -1.8505 -2.5134 0.9638
-8.4250 -2.7651 -2.5102 0.9638
-8.3174 -3.0629 -2.5092 0.9638
-7.7833 -4.2088 -2.5049 0.9639
-7.6248 -4.4821 -2.5038 0.9639
-7.0926 -5.2652 -2.5006 0.9639
-6.6932 -5.7531 -2.4985 0.9640
-6.2602 -6.2110 -2.4965 0.9640
-6.0320 -6.4280 -2.4955 0.9640
-5.5534 -6.8366 -2.4935 0.9640
-5.3036 -7.0278 -2.4925 0.9641
-5.0473 -7.2100 -2.4915 0.9641
-3.9635 -7.8436 -2.4879 0.9641
-3.3913 -8.1010 -2.4861 0.9641
-2.5030 -8.4091 -2.4838 0.9642
-2.2005 -8.4906 -2.4830 0.9642
-1.8954 -8.5613 -2.4823 0.9642
-1.2788 -8.6700 -2.4810 0.9642
-0.0313 -8.7556 -2.4787 0.9643
0.2815 -8.7494 -2.4782 0.9643
0.5936 -8.7321 -2.4777 0.9643
0.9050 -8.7038 -2.4773 0.9643
1.2149 -8.6645 -2.4769 0.9643
2.1337 -8.4816 -2.4759 0.9643
2.4350 -8.3991 -2.4756 0.9643
3.3183 -8.0887 -2.4751 0.9643
3.8871 -7.8306 -2.4749 0.9643
4.7023 -7.3700 -2.4749 0.9643
5.2168 -7.0162 -2.4751 0.9643
5.4643 -6.8258 -2.4752 0.9643
5.7050 -6.6268 -2.4754 0.9643
5.9386 -6.4195 -2.4757 0.9643
6.1647 -6.2040 -2.4759 0.9643
6.3830 -5.9806 -2.4762 0.9643
-7.6809 2.9044 -2.5257 0.9662
-7.7777 2.6275 -2.5251 0.9662
-7.8644 2.3475 -2.5244 0.9662
-8.0073 1.7792 -2.5230 0.9663
-8.0634 1.4916 -2.5222 0.9663
-8.1090 1.2024 -2.5214 0.9663
-8.1442 0.9118 -2.5206 0.9663
-8.1831 0.3279 -2.5190 0.9663
-8.1868 0.0355 -2.5181 0.9663
-8.1627 -0.5485 -2.5163 0.9663
-8.1350 -0.8394 -2.5154 0.9664
-8.0484 -1.4168 -2.5136 0.9664
-7.9897 -1.7027 -2.5126 0.9664
-7.9208 -1.9862 -2.5117 0.9664
-7.8419 -2.2669 -2.5107 0.9664
-7.6541 -2.8186 -2.5088 0.9664
-7.1636 -3.8737 -2.5049 0.9665
-7.0179 -4.1254 -2.5039 0.9665
-6.7012 -4.6122 -2.5019 0.9665
-6.5288 -4.8466 -2.5009 0.9665
-6.3491 -5.0747 -2.5000 0.9666
-5.9661 -5.5106 -2.4981 0.9666
-5.5534 -5.9180 -2.4962 0.9666
-5.3365 -6.1102 -2.4952 0.9666
-5.1131 -6.2946 -2.4943 0.9666
-4.6474 -6.6387 -2.4925 0.9667
-4.4059 -6.7981 -2.4917 0.9667
-4.1589 -6.9487 -2.4908 0.9667
-3.9068 -7.0904 -2.4900 0.9667
-3.3885 -7.3464 -2.4884 0.9667
-3.1231 -7.4604 -2.4876 0.9667
-2.5811 -7.6597 -2.4861 0.9667
-1.7457 -7.8853 -2.4841 0.9668
-1.4627 -7.9406 -2.4834 0.9668
-1.1778 -7.9858 -2.4828 0.9668
-0.6047 -8.0459 -2.4817 0.9668
-0.3168 -8.0606 -2.4812 0.9668
-0.0287 -8.0652 -2.4807 0.9668
0.5467 -8.0438 -2.4798 0.9668
1.1192 -7.9818 -2.4790 0.9668
1.4032 -7.9357 -2.4787 0.9668
1.9656 -7.8135 -2.4781 0.9668
2.2432 -7.7376 -2.4779 0.9668
2.5179 -7.6519 -2.4777 0.9669
2.7893 -7.5566 -2.4775 0.9669
4.3321 -6.7897 -2.4772 0.9669
4.8059 -6.4637 -2.4774 0.9669
5.2557 -6.1050 -2.4777 0.9668
5.6791 -5.7153 -2.4782 0.9668
5.8802 -5.5095 -2.4784 0.9668
-7.1923 2.4298 -2.5235 0.9685
-7.4052 1.6454 -2.5216 0.9685
-7.4995 1.1120 -2.5201 0.9685
-7.5322 0.8432 -2.5194 0.9686
-7.5686 0.3033 -2.5179 0.9686
-7.5662 -0.2375 -2.5163 0.9686
-7.3276 -1.8374 -2.5112 0.9687
-7.1727 -2.3541 -2.5094 0.9687
-6.9814 -2.8580 -2.5076 0.9687
-6.8724 -3.1043 -2.5067 0.9687
-6.6285 -3.5843 -2.5048 0.9687
-6.4939 -3.8174 -2.5039 0.9687
-6.3511 -4.0454 -2.5030 0.9688
-5.3341 -5.2921 -2.4977 0.9688
-4.7326 -5.8262 -2.4951 0.9689
-4.5200 -5.9895 -2.4942 0.9689
-4.3018 -6.1451 -2.4934 0.9689
-3.8498 -6.4323 -2.4918 0.9689
-3.6165 -6.5637 -2.4911 0.9689
-3.1369 -6.8010 -2.4896 0.9689
-2.6420 -7.0035 -2.4881 0.9689
-1.8764 -7.2402 -2.4862 0.9690
-1.6162 -7.3008 -2.4856 0.9690
-1.0905 -7.3941 -2.4844 0.9690
-0.5598 -7.4500 -2.4834 0.9690
-0.2933 -7.4637 -2.4829 0.9690
1.0364 -7.3912 -2.4809 0.9690
1.5609 -7.2967 -2.4803 0.9690
1.8203 -7.2356 -2.4801 0.9690
2.0773 -7.1653 -2.4799 0.9690
2.3317 -7.0860 -2.4797 0.9690
2.8312 -6.9008 -2.4794 0.9690
3.0757 -6.7950 -2.4793 0.9690
3.3163 -6.6807 -2.4792 0.9691
4.0117 -6.2877 -2.4792 0.9690
4.4506 -5.9858 -2.4794 0.9690
5.0662 -5.4765 -2.4799 0.9690
-6.5985 2.4951 -2.5227 0.9705
-6.6819 2.2574 -2.5222 0.9705
-6.8227 1.7738 -2.5210 0.9705
-6.8800 1.5287 -2.5204 0.9705
-7.0200 0.5329 -2.5176 0.9705
-7.0326 0.2819 -2.5169 0.9705
-7.0306 -0.2207 -2.5154 0.9706
-6.9189 -1.2180 -2.5123 0.9706
-6.8099 -1.7076 -2.5107 0.9706
-6.7424 -1.9491 -2.5099 0.9706
-6.6663 -2.1879 -2.5090 0.9706
-6.5817 -2.4237 -2.5082 0.9706
-6.4888 -2.6563 -2.5073 0.9707
-6.3877 -2.8854 -2.5065 0.9707
-6.2784 -3.1105 -2.5057 0.9707
-6.0363 -3.5484 -2.5040 0.9707
-5.7638 -3.9675 -2.5023 0.9707
-5.6165 -4.1694 -2.5014 0.9707
-5.3017 -4.5566 -2.4998 0.9707
-4.7787 -5.0924 -2.4973 0.9708
-4.5923 -5.2581 -2.4965 0.9708
-3.9999 -5.7138 -2.4942 0.9708
-3.7922 -5.8512 -2.4935 0.9708
-3.3629 -6.1034 -2.4920 0.9708
-3.1420 -6.2178 -2.4913 0.9708
-2.9171 -6.3244 -2.4906 0.9708
-2.6887 -6.4227 -2.4899 0.9709
-2.4570 -6.5129 -2.4893 0.9709
-1.9849 -6.6684 -2.4880 0.9709
-1.7451 -6.7334 -2.4875 0.9709
-1.5032 -6.7899 -2.4869 0.9709
-1.2595 -6.8377 -2.4863 0.9709
-0.7679 -6.9073 -2.4853 0.9709
-0.2728 -6.9420 -2.4844 0.9709
-0.0247 -6.9461 -2.4840 0.9709
0.2233 -6.9415 -2.4836 0.9709
0.7179 -6.9058 -2.4829 0.9709
0.9639 -6.8749 -2.4826 0.9709
1.2087 -6.8353 -2.4823 0.9709
1.4519 -6.7871 -2.4820 0.9709
1.9322 -6.6650 -2.4816 0.9710
2.1689 -6.5912 -2.4814 0.9710
2.8610 -6.3206 -2.4810 0.9710
3.0848 -6.2143 -2.4810 0.9710
3.3047 -6.1001 -2.4810 0.9710
3.5204 -5.9782 -2.4810 0.9710
3.7317 -5.8487 -2.4810 0.9710
3.9383 -5.7119 -2.4811 0.9710
4.1399 -5.5678 -2.4812 0.9710
4.8917 -4.9229 -2.4818 0.9709
5.0649 -4.7456 -2.4820 0.9709
5.2317 -4.5622 -2.4823 0.9709
-6.1545 2.3272 -2.5215 0.9722
-6.3022 1.8812 -2.5204 0.9722
-6.3640 1.6546 -2.5199 0.9722
-6.4628 1.1955 -2.5187 0.9722
-6.4997 0.9638 -2.5181 0.9722
-6.5283 0.7309 -2.5174 0.9723
-6.5486 0.4971 -2.5168 0.9723
-6.5588 -0.2059 -2.5147 0.9723
-6.5454 -0.4399 -2.5140 0.9723
-6.4936 -0.9054 -2.5125 0.9723
-6.4552 -1.1364 -2.5118 0.9723
-6.4085 -1.3657 -2.5110 0.9723
-6.3538 -1.5933 -2.5103 0.9723
-6.2909 -1.8186 -2.5095 0.9723
-5.7494 -3.1090 -2.5048 0.9724
-5.3789 -3.7025 -2.5024 0.9724
-5.2416 -3.8911 -2.5016 0.9724
-4.2863 -4.9078 -2.4971 0.9725
-4.1071 -5.0562 -2.4963 0.9725
-3.9228 -5.1981 -2.4956 0.9725
-3.5398 -5.4618 -2.4942 0.9725
-3.3416 -5.5831 -2.4935 0.9725
-3.1392 -5.6974 -2.4928 0.9725
-2.7232 -5.9038 -2.4915 0.9725
-2.5100 -5.9958 -2.4909 0.9725
-2.2937 -6.0801 -2.4903 0.9725
-1.8530 -6.2254 -2.4891 0.9726
-0.9469 -6.4205 -2.4871 0.9726
-0.7169 -6.4490 -2.4866 0.9726
-0.2547 -6.4815 -2.4857 0.9726
-0.0231 -6.4854 -2.4853 0.9726
0.2085 -6.4812 -2.4850 0.9726
0.6704 -6.4480 -2.4843 0.9726
1.3557 -6.3373 -2.4835 0.9726
1.5810 -6.2843 -2.4833 0.9726
1.8042 -6.2233 -2.4831 0.9726
2.0252 -6.1545 -2.4829 0.9726
2.2435 -6.0780 -2.4828 0.9726
2.4590 -5.9937 -2.4827 0.9726
2.6714 -5.9019 -2.4826 0.9726
3.0857 -5.6960 -2.4825 0.9726
3.8656 -5.1989 -2.4827 0.9726
4.7292 -4.4311 -2.4835 0.9726
-5.8331 1.9706 -2.5199 0.9737
-5.8986 1.7607 -2.5194 0.9737
-6.0066 1.3346 -2.5183 0.9738
-6.0838 0.9021 -2.5172 0.9738
-6.1107 0.6841 -2.5166 0.9738
-6.1409 0.2461 -2.5153 0.9738
-6.1442 0.0267 -2.5147 0.9738
-6.1396 -0.1928 -2.5140 0.9738
-6.1272 -0.4118 -2.5134 0.9738
-6.0789 -0.8475 -2.5120 0.9738
-6.0431 -1.0638 -2.5113 0.9738
-5.9995 -1.2786 -2.5106 0.9738
-5.9484 -1.4916 -2.5099 0.9738
-5.5807 -2.5209 -2.5062 0.9739
-5.4855 -2.7178 -2.5055 0.9739
-5.3834 -2.9110 -2.5048 0.9739
-5.1588 -3.2859 -2.5033 0.9739
-5.0367 -3.4670 -2.5026 0.9739
-4.1770 -4.4511 -2.4982 0.9740
-3.4968 -4.9950 -2.4955 0.9740
-2.7471 -5.4365 -2.4929 0.9740
-2.1484 -5.6951 -2.4912 0.9740
-1.9433 -5.7669 -2.4906 0.9740
-1.7357 -5.8313 -2.4901 0.9740
-1.1015 -5.9800 -2.4886 0.9741
-0.8871 -6.0144 -2.4882 0.9741
-0.6716 -6.0412 -2.4877 0.9741
-0.4554 -6.0603 -2.4873 0.9741
-0.2386 -6.0717 -2.4869 0.9741
-0.0216 -6.0755 -2.4865 0.9741
0.1953 -6.0715 -2.4862 0.9741
0.4119 -6.0599 -2.4859 0.9741
0.6280 -6.0406 -2.4856 0.9741
0.8432 -6.0136 -2.4853 0.9741
2.1019 -5.6942 -2.4842 0.9741
2.3038 -5.6152 -2.4841 0.9741
2.5027 -5.5292 -2.4840 0.9741
2.6985 -5.4362 -2.4839 0.9741
2.8909 -5.3363 -2.4839 0.9741
3.0796 -5.2297 -2.4839 0.9741
3.4451 -4.9967 -2.4840 0.9741
3.6215 -4.8707 -2.4841 0.9741
3.7933 -4.7384 -2.4842 0.9741
4.1223 -4.4561 -2.4845 0.9741
-5.4073 2.0447 -2.5194 0.9751
-5.4758 1.8499 -2.5190 0.9751
-5.5374 1.6529 -2.5185 0.9751
-5.5917 1.4538 -2.5180 0.9751
-5.6789 1.0505 -2.5169 0.9751
-5.7115 0.8469 -2.5164 0.9751
-5.7369 0.6422 -2.5158 0.9751
-5.7686 0.0250 -2.5141 0.9751
-5.7644 -0.1810 -2.5135 0.9751
-5.7528 -0.3866 -2.5128 0.9752
-5.7339 -0.5916 -2.5122 0.9752
-5.6741 -0.9989 -2.5109 0.9752
-5.5303 -1.5987 -2.5089 0.9752
-5.3992 -1.9883 -2.5075 0.9752
-5.3232 -2.1792 -2.5068 0.9752
-5.1513 -2.5521 -2.5054 0.9752
-5.0555 -2.7337 -2.5047 0.9752
-4.8448 -3.0859 -2.5034 0.9752
-4.7302 -3.2560 -2.5027 0.9753
-4.3512 -3.7401 -2.5006 0.9753
-4.2138 -3.8921 -2.4999 0.9753
-3.7704 -4.3170 -2.4979 0.9753
-3.6128 -4.4477 -2.4973 0.9753
-2.9398 -4.9119 -2.4948 0.9753
-2.7619 -5.0126 -2.4942 0.9753
-2.3960 -5.1946 -2.4931 0.9753
-2.2085 -5.2756 -2.4925 0.9754
-1.4336 -5.5318 -2.4905 0.9754
-1.0348 -5.6180 -2.4896 0.9754
-0.2242 -5.7044 -2.4880 0.9754
-0.0203 -5.7080 -2.4876 0.9754
0.1835 -5.7043 -2.4873 0.9754
0.3870 -5.6934 -2.4870 0.9754
0.5900 -5.6753 -2.4867 0.9754
0.7922 -5.6500 -2.4865 0.9754
1.1933 -5.5781 -2.4860 0.9754
1.3916 -5.5315 -2.4858 0.9754
2.3515 -5.1951 -2.4852 0.9754
2.5354 -5.1077 -2.4852 0.9754
2.7162 -5.0138 -2.4851 0.9754
4.1627 -3.9002 -2.4860 0.9754
4.2997 -3.7494 -2.4863 0.9754
-5.0893 1.9244 -2.5186 0.9763
-5.1539 1.7412 -2.5181 0.9763
-5.2631 1.3683 -2.5172 0.9763
-5.4262 -0.1704 -2.5129 0.9764
-5.3730 -0.7492 -2.5111 0.9764
-5.3032 -1.1302 -2.5099 0.9764
-4.9339 -2.2287 -2.5060 0.9764
-4.8499 -2.4029 -2.5054 0.9764
-4.7598 -2.5738 -2.5047 0.9764
-4.2214 -3.3740 -2.5015 0.9765
-3.8334 -3.8033 -2.4996 0.9765
-3.5504 -4.0652 -2.4983 0.9765
-3.4022 -4.1883 -2.4977 0.9765
-3.0932 -4.4184 -2.4965 0.9765
-2.6010 -4.7206 -2.4948 0.9765
-2.2565 -4.8921 -2.4937 0.9765
-1.7193 -5.1023 -2.4922 0.9765
-1.1631 -5.2540 -2.4909 0.9766
-0.9746 -5.2912 -2.4904 0.9766
-0.7849 -5.3219 -2.4900 0.9766
-0.4029 -5.3627 -2.4893 0.9766
-0.2112 -5.3729 -2.4889 0.9766
-0.0191 -5.3763 -2.4886 0.9766
0.1728 -5.3729 -2.4883 0.9766
0.3645 -5.3627 -2.4880 0.9766
0.5557 -5.3456 -2.4877 0.9766
0.7462 -5.3219 -2.4875 0.9766
1.1239 -5.2541 -2.4871 0.9766
1.8602 -5.0394 -2.4865 0.9766
2.0389 -4.9696 -2.4864 0.9766
2.3882 -4.8112 -2.4863 0.9766
2.5585 -4.7227 -2.4863 0.9766
2.8891 -4.5282 -2.4863 0.9766
3.0490 -4.4222 -2.4863 0.9766
3.3570 -4.1936 -2.4865 0.9766
3.5049 -4.0712 -2.4866 0.9766
3.6482 -3.9437 -2.4868 0.9766
3.7870 -3.8111 -2.4869 0.9766
3.9209 -3.6737 -2.4871 0.9766
4.0499 -3.5317 -2.4873 0.9766
-4.8010 1.8154 -2.5178 0.9774
-4.8620 1.6425 -2.5173 0.9774
-4.9167 1.4676 -2.5169 0.9774
-4.9651 1.2909 -2.5165 0.9774
-5.0071 1.1125 -2.5160 0.9774
-5.0427 0.9328 -2.5155 0.9774
-5.0719 0.7520 -2.5151 0.9774
-5.0945 0.5703 -2.5146 0.9774
-5.1105 0.3879 -2.5141 0.9774
-5.0926 -0.5255 -2.5113 0.9774
-5.0695 -0.7068 -2.5108 0.9775
-5.0398 -0.8872 -2.5102 0.9775
-5.0038 -1.0664 -2.5096 0.9775
-4.9613 -1.2441 -2.5090 0.9775
-4.9125 -1.4201 -2.5084 0.9775
-4.8575 -1.5943 -2.5078 0.9775
-4.7291 -1.9359 -2.5066 0.9775
-4.4916 -2.4288 -2.5047 0.9775
-3.9838 -3.1842 -2.5016 0.9775
-3.8666 -3.3236 -2.5010 0.9775
-3.6178 -3.5894 -2.4998 0.9776
-3.4865 -3.7154 -2.4993 0.9776
-3.3508 -3.8366 -2.4987 0.9776
-2.6131 -4.3660 -2.4959 0.9776
-1.9632 -4.6898 -2.4939 0.9776
-1.6229 -4.8161 -2.4929 0.9776
-1.0979 -4.9595 -2.4916 0.9776
-0.9200 -4.9947 -2.4912 0.9776
-0.7409 -5.0236 -2.4908 0.9776
-0.5610 -5.0461 -2.4905 0.9776
-0.3803 -5.0622 -2.4901 0.9776
-0.0181 -5.0752 -2.4895 0.9776
0.5246 -5.0464 -2.4887 0.9776
0.7044 -5.0240 -2.4884 0.9777
0.8833 -4.9952 -2.4882 0.9777
1.0610 -4.9601 -2.4880 0.9777
1.2374 -4.9187 -2.4879 0.9777
1.4122 -4.8710 -2.4877 0.9777
1.5851 -4.8172 -2.4876 0.9777
2.2546 -4.5419 -2.4873 0.9777
2.4154 -4.4585 -2.4873 0.9777
3.0257 -4.0694 -2.4874 0.9777
3.3087 -3.8433 -2.4876 0.9777
3.4440 -3.7229 -2.4878 0.9777
3.7015 -3.4681 -2.4881 0.9777
3.8232 -3.3339 -2.4883 0.9777
-4.6935 1.2202 -2.5158 0.9784
-4.7332 1.0517 -2.5154 0.9784
-4.7669 0.8818 -2.5149 0.9784
-4.7945 0.7109 -2.5145 0.9784
-4.8159 0.5392 -2.5140 0.9784
-4.8312 0.3667 -2.5135 0.9784
-4.8402 0.1939 -2.5130 0.9784
-4.8302 -0.3246 -2.5115 0.9784
-4.7927 -0.6682 -2.5104 0.9784
-4.5926 -1.5073 -2.5076 0.9785
-4.5348 -1.6700 -2.5070 0.9785
-4.4713 -1.8304 -2.5064 0.9785
-4.3272 -2.1439 -2.5053 0.9785
-4.2469 -2.2965 -2.5047 0.9785
-4.0703 -2.5926 -2.5035 0.9785
-3.8731 -2.8751 -2.5024 0.9785
-3.7670 -3.0109 -2.5018 0.9785
-3.6563 -3.1428 -2.5012 0.9785
-3.5409 -3.2706 -2.5007 0.9785
-3.4211 -3.3942 -2.5001 0.9785
-3.0365 -3.7381 -2.4984 0.9785
-2.7607 -3.9436 -2.4974 0.9785
-2.1693 -4.2931 -2.4954 0.9786
-2.0145 -4.3670 -2.4949 0.9786
-1.5349 -4.5549 -2.4935 0.9786
-1.0384 -4.6906 -2.4923 0.9786
-0.8701 -4.7240 -2.4919 0.9786
-0.7008 -4.7514 -2.4916 0.9786
-0.3598 -4.7880 -2.4909 0.9786
-0.1885 -4.7972 -2.4906 0.9786
-0.0171 -4.8003 -2.4903 0.9786
0.1543 -4.7973 -2.4900 0.9786
0.4962 -4.7731 -2.4895 0.9786
1.0036 -4.6916 -2.4889 0.9786
1.3357 -4.6074 -2.4886 0.9786
1.4993 -4.5566 -2.4885 0.9786
1.9779 -4.3696 -2.4883 0.9786
2.1322 -4.2962 -2.4882 0.9786
2.2847 -4.2172 -2.4882 0.9786
2.4338 -4.1330 -2.4882 0.9786
2.5799 -4.0435 -2.4882 0.9786
3.3815 -3.4031 -2.4888 0.9786
3.5011 -3.2804 -2.4890 0.9786
3.6163 -3.1535 -2.4891 0.9786
-4.2974 1.6250 -2.5164 0.9793
-4.4011 1.3137 -2.5156 0.9793
-4.4445 1.1555 -2.5152 0.9793
-4.5142 0.8351 -2.5144 0.9793
-4.5403 0.6732 -2.5140 0.9793
-4.5752 0.3473 -2.5130 0.9793
-4.5745 -0.3074 -2.5111 0.9793
-4.5126 -0.7944 -2.5096 0.9793
-4.4425 -1.1140 -2.5085 0.9793
-4.3990 -1.2716 -2.5080 0.9793
-4.2951 -1.5817 -2.5069 0.9793
-4.2350 -1.7337 -2.5063 0.9793
-4.1695 -1.8833 -2.5058 0.9794
-4.0226 -2.1752 -2.5047 0.9794
-3.7644 -2.5912 -2.5030 0.9794
-3.6687 -2.7234 -2.5025 0.9794
-3.4634 -2.9770 -2.5014 0.9794
-3.1232 -3.3282 -2.4998 0.9794
-2.8765 -3.5412 -2.4988 0.9794
-2.7476 -3.6409 -2.4982 0.9794
-1.6076 -4.2614 -2.4945 0.9794
-1.4541 -4.3154 -2.4941 0.9794
-0.8244 -4.4757 -2.4926 0.9795
-0.5027 -4.5220 -2.4919 0.9795
-0.3409 -4.5364 -2.4916 0.9795
-0.0162 -4.5482 -2.4910 0.9795
0.3084 -4.5368 -2.4905 0.9795
0.6313 -4.5024 -2.4901 0.9795
0.7916 -4.4767 -2.4899 0.9795
0.9509 -4.4453 -2.4897 0.9795
1.2656 -4.3655 -2.4895 0.9795
1.7250 -4.2046 -2.4892 0.9795
1.8741 -4.1403 -2.4891 0.9795
2.0207 -4.0707 -2.4891 0.9795
2.1647 -3.9959 -2.4891 0.9795
2.3061 -3.9160 -2.4891 0.9795
2.5797 -3.7416 -2.4891 0.9795
2.7118 -3.6471 -2.4892 0.9795
3.0866 -3.3366 -2.4895 0.9795
-4.0758 1.5412 -2.5157 0.9801
-4.2154 1.0959 -2.5147 0.9801
-4.2512 0.9446 -2.5143 0.9801
-4.3063 0.6385 -2.5135 0.9801
-4.3477 0.1742 -2.5122 0.9801
-4.3474 -0.1365 -2.5112 0.9801
-4.3390 -0.2916 -2.5108 0.9801
-4.3250 -0.4463 -2.5103 0.9801
-4.3054 -0.6003 -2.5098 0.9801
-4.2140 -1.0567 -2.5083 0.9801
-4.0744 -1.5004 -2.5068 0.9801
-3.8881 -1.9263 -2.5052 0.9802
-3.8160 -2.0635 -2.5047 0.9802
-3.7392 -2.1980 -2.5041 0.9802
-3.5712 -2.4582 -2.5031 0.9802
-3.4804 -2.5837 -2.5026 0.9802
-3.2858 -2.8243 -2.5015 0.9802
-3.0746 -3.0504 -2.5005 0.9802
-2.9631 -3.1576 -2.5000 0.9802
-2.8479 -3.2608 -2.4995 0.9802
-2.6069 -3.4544 -2.4986 0.9802
-2.3528 -3.6303 -2.4976 0.9802
-2.0869 -3.7876 -2.4967 0.9802
-1.5253 -4.0434 -2.4950 0.9802
-1.2325 -4.1407 -2.4943 0.9802
-1.0837 -4.1814 -2.4939 0.9802
-0.6300 -4.2716 -2.4929 0.9803
-0.0153 -4.3158 -2.4917 0.9803
0.1387 -4.3132 -2.4915 0.9803
0.5990 -4.2725 -2.4908 0.9803
1.0523 -4.1831 -2.4904 0.9803
1.2010 -4.1427 -2.4902 0.9803
1.4935 -4.0460 -2.4900 0.9803
1.7784 -3.9289 -2.4899 0.9803
1.9175 -3.8629 -2.4899 0.9803
2.1883 -3.7161 -2.4899 0.9803
2.3196 -3.6356 -2.4899 0.9803
2.5733 -3.4610 -2.4900 0.9803
2.6954 -3.3669 -2.4900 0.9803
2.8140 -3.2687 -2.4901 0.9803
2.9290 -3.1662 -2.4902 0.9803
3.0404 -3.0598 -2.4904 0.9803
