ply
format ascii 1.0
element vertex 1228
property float32 x
property float32 y
property float32 z
property float32 I
end_header
34.3708 -25.8869 7.5871 0.8396
42.0352 -25.0729 8.6303 0.8197
42.8625 -23.5231 8.6211 0.8199
13.4866 14.6398 3.5098 0.9223
11.6439 14.6183 3.2954 0.9269
7.6692 12.0998 2.5260 0.9435
7.8494 13.4270 2.7424 0.9388
7.1665 14.5663 2.8625 0.9362
3.4356 12.0509 2.2096 0.9504
2.4915 14.5126 2.5964 0.9419
1.4288 14.5004 2.5692 0.9425
0.9045 14.4945 2.5607 0.9427
0.3829 14.4886 2.5556 0.9428
-0.1373 14.4827 2.5538 0.9429
-1.1788 14.4709 2.5601 0.9427
-1.7028 14.4650 2.5682 0.9426
-2.7643 14.4530 2.5947 0.9420
-14.4912 41.9538 7.8264 0.8350
-14.8257 38.3973 7.2576 0.8460
-14.3944 33.6347 6.4510 0.8619
-14.2862 30.3240 5.9106 0.8727
35.6727 -24.9123 6.6656 0.8386
37.6949 -18.9595 6.4639 0.8430
47.6136 8.6729 7.4141 0.8221
34.8549 10.3206 5.5687 0.8632
34.6162 11.6167 5.5936 0.8626
34.5231 14.4164 5.7314 0.8595
14.5022 14.6502 3.1580 0.9200
13.4853 14.6384 3.0490 0.9226
12.5350 14.6273 2.9511 0.9250
8.2968 12.1061 2.2483 0.9423
7.6685 12.0988 2.1944 0.9437
6.5242 14.5577 2.4439 0.9375
4.8930 12.0602 1.9938 0.9487
4.3961 12.0611 1.9666 0.9494
3.9099 12.0555 1.9415 0.9500
3.4353 12.0500 1.9196 0.9506
2.9708 12.0447 1.9005 0.9510
2.4913 14.5115 2.2556 0.9422
-0.6573 14.4757 2.2199 0.9430
-14.4895 41.9488 6.7989 0.8356
-14.8246 38.3944 6.3050 0.8466
-14.4746 30.7239 5.2029 0.8716
35.8982 -27.0372 5.8523 0.8342
35.9447 -21.4402 5.4502 0.8447
37.6989 -18.9615 5.4952 0.8435
40.5927 -18.6227 5.8157 0.8351
44.6069 -18.5564 6.2913 0.8229
47.6022 8.6709 6.3008 0.8227
35.4340 9.1224 4.7647 0.8628
34.8557 10.3208 4.7337 0.8636
34.6172 11.6170 4.7549 0.8630
34.5246 14.4171 4.8721 0.8599
34.5084 15.8879 4.9471 0.8579
34.4221 18.9515 5.1169 0.8534
34.3291 22.2505 5.3272 0.8479
34.2795 24.0084 5.4499 0.8447
14.5008 14.6487 2.6841 0.9202
8.9568 12.1127 1.9617 0.9410
7.0683 12.0909 1.8238 0.9451
5.3862 12.0185 1.7150 0.9483
3.4351 12.0492 1.6316 0.9507
2.9706 12.0438 1.6154 0.9512
1.9571 14.5044 1.9059 0.9427
1.4287 14.4984 1.8971 0.9429
0.9044 14.4924 1.8909 0.9431
0.3828 14.4865 1.8871 0.9432
-2.2305 14.4570 1.9049 0.9427
-11.8951 38.9109 5.2985 0.8486
-12.7213 36.8298 5.0740 0.8546
-14.3916 33.6280 4.7632 0.8628
-14.4733 30.7212 4.4223 0.8720
35.6642 -24.9064 4.6711 0.8395
32.0621 -20.7196 4.0992 0.8576
35.9467 -21.4413 4.4945 0.8450
36.4129 -19.9835 4.4602 0.8461
46.4672 -11.8959 5.1506 0.8245
46.0283 -1.6220 4.9457 0.8309
45.7462 4.9773 4.9413 0.8310
45.6753 6.6360 4.9562 0.8305
45.6038 8.3068 4.9776 0.8299
35.4335 9.1223 3.9290 0.8631
34.4998 12.9731 3.9579 0.8622
34.5097 15.8886 4.0796 0.8583
34.4673 17.3946 4.1458 0.8561
34.4235 18.9523 4.2197 0.8538
34.3305 22.2515 4.3931 0.8482
34.2810 24.0095 4.4942 0.8450
34.0552 32.0181 5.0194 0.8286
14.4993 14.6473 2.2131 0.9204
13.4827 14.6355 2.1368 0.9231
12.5327 14.6246 2.0682 0.9254
8.9560 12.1116 1.6175 0.9412
8.2954 12.1040 1.5757 0.9427
7.6672 12.0968 1.5379 0.9440
7.0678 12.0899 1.5038 0.9452
5.9166 12.0259 1.4392 0.9475
5.4096 12.0709 1.4204 0.9482
4.8733 12.0117 1.3919 0.9492
4.3760 12.0060 1.3722 0.9499
2.9572 11.9898 1.3261 0.9515
2.0747 12.0849 1.3167 0.9519
1.4285 14.4974 1.5643 0.9431
0.9043 14.4914 1.5591 0.9433
-0.1373 14.4796 1.5549 0.9434
-0.6536 14.3937 1.5472 0.9437
-1.1720 14.3879 1.5501 0.9436
-1.6930 14.3820 1.5550 0.9434
-2.2304 14.4560 1.5707 0.9429
-11.9615 44.8239 4.9817 0.8297
-11.8935 38.9057 4.3686 0.8490
-14.3901 33.6247 3.9274 0.8632
-14.3539 30.4676 3.6166 0.8733
35.7588 -29.0010 3.8975 0.8313
35.5982 -24.8603 3.6756 0.8400
35.9485 -21.4424 3.5434 0.8453
36.4153 -19.9848 3.5164 0.8464
46.6261 -15.5769 4.1615 0.8209
46.5465 -13.7140 4.1078 0.8230
46.3929 -10.1176 4.0196 0.8265
45.8184 3.3266 3.8889 0.8316
38.6684 8.4879 3.3513 0.8531
35.4329 9.1222 3.0973 0.8634
34.8574 10.3213 3.0774 0.8642
34.5012 12.9736 3.1203 0.8625
34.4687 17.3953 3.2684 0.8564
34.3794 20.5695 3.3915 0.8514
34.3320 22.2524 3.4634 0.8485
34.2825 24.0105 3.5431 0.8453
34.2305 25.8539 3.6314 0.8418
14.4979 14.6458 1.7445 0.9206
13.4814 14.6342 1.6844 0.9232
9.7828 12.2818 1.3292 0.9389
5.9020 14.5473 1.3290 0.9389
5.2998 14.5404 1.3101 0.9398
4.7137 14.5337 1.2934 0.9405
4.1415 14.5272 1.2788 0.9412
3.5815 14.5208 1.2661 0.9417
3.0318 14.5146 1.2552 0.9422
1.4285 14.4964 1.2331 0.9432
-0.1372 14.4786 1.2257 0.9435
-0.6604 14.5434 1.2324 0.9432
-1.1842 14.5375 1.2347 0.9431
-1.6929 14.3810 1.2258 0.9435
-5.1637 22.5736 1.9603 0.9112
-11.8919 38.9005 3.4435 0.8493
-12.7195 36.8244 3.2980 0.8552
35.9269 -29.1373 2.8684 0.8308
35.9033 -27.0411 2.7872 0.8352
35.7834 -23.1245 2.6420 0.8430
37.7110 -18.9676 2.6176 0.8444
47.0384 8.5681 2.9649 0.8256
38.6572 8.4854 2.4542 0.8533
35.4324 9.1220 2.2688 0.8636
34.5026 12.9741 2.2858 0.8627
34.5290 14.4189 2.3203 0.8607
34.5124 15.8898 2.3561 0.8588
34.4701 17.3960 2.3943 0.8566
34.2839 24.0115 2.5955 0.8456
34.2321 25.8550 2.6602 0.8420
14.6586 11.9213 1.1716 0.9271
34.1197 29.8455 2.8110 0.8339
14.4964 14.6444 1.2778 0.9207
13.4801 14.6328 1.2337 0.9234
12.5916 14.6933 1.1999 0.9254
10.7976 14.6021 1.1261 0.9298
9.2439 14.5843 1.0707 0.9331
8.5212 14.5761 1.0470 0.9346
5.9016 14.5462 0.9734 0.9390
5.2994 14.5394 0.9596 0.9399
4.7133 14.5327 0.9474 0.9406
4.1425 14.5306 0.9370 0.9412
3.5824 14.5244 0.9277 0.9418
3.0316 14.5136 0.9194 0.9423
1.4283 14.4954 0.9032 0.9433
0.9042 14.4894 0.9002 0.9435
0.3828 14.4835 0.8984 0.9436
-0.1372 14.4776 0.8978 0.9436
-0.6604 14.5424 0.9027 0.9433
-1.1841 14.5365 0.9044 0.9432
-2.2300 14.4539 0.9069 0.9431
-5.1633 22.5720 1.4359 0.9114
-10.1461 33.1897 2.1521 0.8701
-11.5744 27.0452 1.8242 0.8888
35.9286 -29.1387 1.8241 0.8310
35.9049 -27.0423 1.7724 0.8353
35.6515 -24.8975 1.7147 0.8402
40.6177 -18.6342 1.7621 0.8362
38.6459 8.4829 1.5601 0.8535
35.4318 9.1219 1.4427 0.8638
34.8591 10.3218 1.4335 0.8646
34.6209 11.6183 1.4400 0.8640
34.5040 12.9746 1.4535 0.8628
34.4714 17.3967 1.5225 0.8568
34.3822 20.5712 1.5798 0.8518
34.3349 22.2543 1.6134 0.8489
34.2854 24.0126 1.6505 0.8457
34.2336 25.8562 1.6916 0.8422
14.4950 14.6430 0.8124 0.9208
12.5904 14.6920 0.7629 0.9255
10.7967 14.6008 0.7160 0.9299
8.5205 14.5749 0.6657 0.9346
6.5217 14.5522 0.6288 0.9382
5.2990 14.5383 0.6102 0.9399
4.7130 14.5316 0.6024 0.9407
3.5839 14.5304 0.5901 0.9418
2.4904 14.5064 0.5804 0.9428
1.6761 12.4218 0.4942 0.9511
0.9041 14.4884 0.5724 0.9435
0.3827 14.4825 0.5713 0.9437
-5.1629 22.5704 0.9130 0.9115
-8.5183 27.8647 1.1489 0.8899
-11.5444 24.5041 1.0681 0.8972
35.9066 -27.0436 0.7593 0.8354
35.7865 -23.1265 0.7197 0.8433
35.9542 -21.4458 0.7072 0.8458
36.4223 -19.9886 0.7018 0.8469
44.6460 -18.5727 0.8168 0.8241
48.1783 -5.1760 0.8185 0.8238
34.8599 10.3221 0.6141 0.8646
34.6218 11.6186 0.6169 0.8641
34.5054 12.9752 0.6227 0.8629
34.3836 20.5720 0.6768 0.8519
34.3363 22.2552 0.6912 0.8490
33.2694 31.2792 0.7714 0.8330
13.4776 14.6300 0.3360 0.9235
12.5893 14.6906 0.3268 0.9255
9.9663 12.5121 0.2702 0.9380
9.2424 14.5819 0.2916 0.9333
8.5198 14.5737 0.2852 0.9347
7.8375 14.5840 0.2797 0.9359
6.1345 12.4687 0.2347 0.9459
5.2986 14.5372 0.2614 0.9400
4.7126 14.5306 0.2580 0.9407
3.5853 14.5363 0.2529 0.9419
1.4281 14.4933 0.2460 0.9434
0.9040 14.4874 0.2452 0.9436
-0.1372 14.4756 0.2445 0.9437
-5.1626 22.5688 0.3911 0.9115
-6.4913 24.3252 0.4253 0.9042
-7.4330 24.3146 0.4295 0.9033
-10.3914 24.2811 0.4461 0.8997
-11.4338 24.2694 0.4532 0.8982
35.9321 -29.1415 -0.2605 0.8311
35.0672 -24.4895 -0.2408 0.8427
35.7881 -23.1275 -0.2399 0.8433
35.9560 -21.4469 -0.2357 0.8458
36.4246 -19.9899 -0.2339 0.8469
37.7230 -18.9736 -0.2377 0.8446
43.2711 -18.0008 -0.2639 0.8291
38.6236 8.4780 -0.2226 0.8537
34.8607 10.3223 -0.2047 0.8647
34.5067 12.9757 -0.2076 0.8629
34.4304 18.9561 -0.2213 0.8545
34.3850 20.5729 -0.2256 0.8519
34.3378 22.2561 -0.2304 0.8490
34.2884 24.0146 -0.2357 0.8458
34.2366 25.8584 -0.2416 0.8423
14.6551 11.9184 -0.1064 0.9272
12.4577 14.5371 -0.1078 0.9263
9.9654 12.5110 -0.0901 0.9380
9.9987 14.5893 -0.0996 0.9317
6.1340 12.4677 -0.0782 0.9459
6.5207 14.5500 -0.0898 0.9382
5.9002 14.5429 -0.0884 0.9392
5.2982 14.5361 -0.0871 0.9400
4.7123 14.5295 -0.0860 0.9407
4.1476 14.5485 -0.0852 0.9413
3.5868 14.5422 -0.0843 0.9418
1.6764 12.4238 -0.0706 0.9511
0.9040 14.4864 -0.0817 0.9436
0.3827 14.4805 -0.0816 0.9437
-0.6534 14.3888 -0.0811 0.9440
-2.7627 14.4449 -0.0828 0.9429
-5.8594 21.9571 -0.1279 0.9131
-6.6190 21.6519 -0.1275 0.9134
-7.4754 21.6422 -0.1289 0.9125
-8.3525 21.6323 -0.1306 0.9114
-9.2534 21.6221 -0.1324 0.9102
-10.1816 21.6115 -0.1345 0.9089
35.0631 -24.4866 -1.2042 0.8427
35.9579 -21.4480 -1.1789 0.8457
36.4270 -19.9912 -1.1700 0.8468
37.7270 -18.9756 -1.1891 0.8445
44.3939 8.0864 -1.2706 0.8348
34.8615 10.3225 -1.0238 0.8646
34.5081 12.9762 -1.0381 0.8628
34.5348 14.4213 -1.0538 0.8609
34.5178 15.8923 -1.0700 0.8589
34.4755 17.3987 -1.0874 0.8568
34.4318 18.9569 -1.1068 0.8545
32.6109 22.8398 -1.1211 0.8527
31.1158 23.5013 -1.0980 0.8555
14.6539 11.9174 -0.5319 0.9272
27.2530 23.8389 -1.0195 0.8651
12.5258 14.6165 -0.5420 0.9259
10.7939 14.5971 -0.5112 0.9299
8.4912 14.5247 -0.4737 0.9349
7.8353 14.5799 -0.4661 0.9359
6.1335 12.4668 -0.3912 0.9459
5.2978 14.5351 -0.4356 0.9400
3.5846 14.5334 -0.4215 0.9419
3.0308 14.5095 -0.4174 0.9424
0.3827 14.4795 -0.4079 0.9437
-0.6570 14.4677 -0.4078 0.9437
-1.7017 14.4559 -0.4099 0.9434
-2.7625 14.4439 -0.4141 0.9429
-6.0763 19.8765 -0.5852 0.9202
-7.6676 19.8585 -0.5994 0.9183
-8.4925 19.8439 -0.6078 0.9173
-9.2031 19.5345 -0.6080 0.9172
28.3994 -23.0324 -1.8544 0.8638
30.7912 -23.1907 -1.9542 0.8569
35.0590 -24.4838 -2.1686 0.8426
35.7912 -23.1295 -2.1612 0.8431
35.9598 -21.4491 -2.1235 0.8456
36.4293 -19.9925 -2.1074 0.8467
37.7309 -18.9777 -2.1419 0.8444
45.1756 -13.3101 -2.3884 0.8281
47.8066 0.0323 -2.4245 0.8257
47.8751 1.7519 -2.4296 0.8254
44.3762 8.0832 -2.2875 0.8347
34.8624 10.3228 -1.8439 0.8645
34.6245 11.6195 -1.8522 0.8639
34.5095 12.9767 -1.8698 0.8627
32.7370 18.0238 -1.8952 0.8610
29.4746 19.1041 -1.7813 0.8688
27.8675 19.5176 -1.7254 0.8726
23.3960 20.4651 -1.5764 0.8829
13.4738 14.6259 -1.0085 0.9234
12.5246 14.6152 -0.9761 0.9258
8.4905 14.5236 -0.8532 0.9348
6.1331 12.4658 -0.7046 0.9459
6.5197 14.5478 -0.8085 0.9381
5.2974 14.5340 -0.7845 0.9399
4.7116 14.5274 -0.7745 0.9407
4.1419 14.5283 -0.7662 0.9413
1.6766 12.4259 -0.6359 0.9510
-0.1372 14.4726 -0.7340 0.9437
-0.6569 14.4667 -0.7344 0.9436
-1.7016 14.4549 -0.7381 0.9434
-2.2293 14.4489 -0.7414 0.9431
-2.7624 14.4429 -0.7457 0.9428
-5.1615 22.5641 -1.1739 0.9115
-5.8251 19.0549 -1.0105 0.9233
-6.1663 17.8521 -0.9578 0.9271
-6.8058 17.6264 -0.9582 0.9271
-7.4364 17.3762 -0.9585 0.9271
25.4159 -20.6127 -2.3994 0.8770
26.8648 -18.7612 -2.4026 0.8768
28.7944 -15.8024 -2.4083 0.8766
29.3694 -14.7720 -2.4105 0.8765
30.4124 -12.6516 -2.4152 0.8762
30.8791 -11.5639 -2.4177 0.8761
31.3082 -10.4595 -2.4203 0.8760
31.6993 -9.3396 -2.4230 0.8759
32.8718 -4.7305 -2.4351 0.8753
33.0645 -3.5523 -2.4383 0.8751
33.2162 -2.3664 -2.4417 0.8750
33.3265 -1.1744 -2.4451 0.8748
33.3951 0.0226 -2.4486 0.8746
33.3486 3.6284 -2.4596 0.8741
32.9146 7.2249 -2.4708 0.8736
32.2388 9.5459 -2.4653 0.8738
31.6972 10.6371 -2.4515 0.8745
28.7658 13.2440 -2.3220 0.8807
26.7084 14.7047 -2.2355 0.8849
25.5146 15.2656 -2.1801 0.8876
24.3586 15.7881 -2.1284 0.8901
23.2376 16.2749 -2.0801 0.8925
20.0584 17.5456 -1.9540 0.8986
14.4879 14.6358 -1.5100 0.9207
13.4725 14.6245 -1.4580 0.9233
12.5235 14.6139 -1.4111 0.9257
9.8962 12.4241 -1.1646 0.9383
9.1812 12.4162 -1.1322 0.9399
7.8603 12.4014 -1.0766 0.9428
5.5788 12.4483 -1.0002 0.9468
5.1354 12.6579 -1.0016 0.9467
4.6841 12.8513 -1.0029 0.9466
3.7597 13.1879 -1.0055 0.9465
2.8107 13.4557 -1.0079 0.9464
1.3524 13.7241 -1.0112 0.9462
0.3826 14.4775 -1.0619 0.9436
-0.1372 14.4716 -1.0611 0.9436
-2.7622 14.4419 -1.0781 0.9427
-5.8243 19.0524 -1.4608 0.9232
-5.7989 16.7887 -1.3023 0.9312
-6.9775 16.3039 -1.3003 0.9313
19.6054 -15.9003 -2.4234 0.9035
21.7270 -12.9596 -2.4288 0.9033
22.1926 -12.1794 -2.4304 0.9033
22.6311 -11.3829 -2.4320 0.9032
24.1026 -8.0522 -2.4397 0.9029
24.3973 -7.1882 -2.4418 0.9028
24.8960 -5.4295 -2.4463 0.9027
25.5160 -1.8179 -2.4559 0.9023
25.6363 0.0173 -2.4612 0.9021
25.6263 1.8606 -2.4667 0.9019
25.6085 2.7863 -2.4731 0.9017
25.5587 3.7133 -2.4795 0.9014
25.4767 4.6406 -2.4861 0.9012
25.2156 6.4917 -2.4998 0.9007
25.0363 7.4133 -2.5068 0.9004
24.8244 8.3307 -2.5139 0.9001
24.5459 9.2301 -2.5176 0.9000
23.5620 10.8481 -2.4903 0.9010
22.0453 12.1373 -2.4160 0.9038
21.2647 12.7229 -2.3790 0.9052
19.6692 13.7758 -2.3054 0.9080
16.4757 14.4117 -2.1015 0.9158
15.7184 14.7782 -2.0713 0.9170
14.4865 14.6344 -1.9769 0.9206
13.4712 14.6231 -1.9088 0.9232
12.5835 14.6839 -1.8566 0.9252
9.6499 12.1149 -1.4870 0.9397
7.6647 12.0928 -1.3745 0.9441
7.0656 12.0861 -1.3441 0.9453
5.4082 12.0676 -1.2696 0.9482
4.4995 12.3449 -1.2614 0.9486
3.5213 12.3518 -1.2331 0.9497
3.0452 12.3464 -1.2208 0.9502
2.1178 12.3360 -1.2016 0.9509
1.3491 13.6909 -1.3208 0.9462
0.9037 14.4824 -1.3931 0.9434
-0.1372 14.4706 -1.3893 0.9435
-2.2290 14.4469 -1.4034 0.9430
-5.1608 22.5609 -2.2219 0.9112
-5.8559 21.9440 -2.1805 0.9128
-5.8235 19.0498 -1.9124 0.9231
-5.7779 14.9642 -1.5400 0.9376
-6.8428 14.5246 -1.5414 0.9375
15.9444 -12.9312 -2.4386 0.9206
16.4047 -12.3554 -2.4395 0.9206
16.8448 -11.7637 -2.4405 0.9206
17.2640 -11.1566 -2.4417 0.9205
18.3922 -9.2508 -2.4455 0.9204
19.0313 -7.9170 -2.4485 0.9203
20.0234 -5.1261 -2.4552 0.9201
20.3709 -3.6821 -2.4590 0.9200
20.6161 -2.2149 -2.4630 0.9199
20.8663 0.7635 -2.4803 0.9193
20.8680 1.5151 -2.4853 0.9192
20.7158 3.7734 -2.5012 0.9187
20.6124 4.5245 -2.5068 0.9185
20.4826 5.2732 -2.5124 0.9183
20.3262 6.0186 -2.5181 0.9182
19.4367 8.9488 -2.5418 0.9174
19.1488 9.6637 -2.5478 0.9172
18.7654 10.3315 -2.5446 0.9173
18.2518 10.9202 -2.5265 0.9179
17.6242 11.4232 -2.4948 0.9189
16.9497 11.8711 -2.4581 0.9200
15.1105 11.4128 -2.2494 0.9266
14.4313 11.7364 -2.2096 0.9278
14.0152 12.2595 -2.2118 0.9277
8.1058 11.8275 -1.7032 0.9439
6.9066 11.8141 -1.6256 0.9464
5.9216 12.0360 -1.5934 0.9474
4.8453 11.9428 -1.5309 0.9494
3.9081 12.0499 -1.5048 0.9503
3.4338 12.0446 -1.4877 0.9508
2.0652 12.0292 -1.4498 0.9520
0.3825 14.4755 -1.7201 0.9433
-1.1835 14.5284 -1.7315 0.9430
-1.6918 14.3720 -1.7190 0.9434
-5.5689 18.2167 -2.2627 0.9261
-5.7976 16.7847 -2.1094 0.9310
-6.4253 13.6385 -1.7908 0.9411
13.4242 -10.8873 -2.4490 0.9326
13.8110 -10.4020 -2.4498 0.9325
14.8664 -8.8675 -2.4527 0.9325
15.1818 -8.3319 -2.4537 0.9324
15.4783 -7.7852 -2.4549 0.9324
16.0132 -6.6615 -2.4574 0.9323
16.2508 -6.0857 -2.4587 0.9323
16.6648 -4.9100 -2.4616 0.9322
17.2836 -2.4872 -2.4741 0.9319
17.3879 -1.8680 -2.4778 0.9318
17.5894 0.6436 -2.4939 0.9314
17.5588 1.9104 -2.5026 0.9311
17.3463 3.8076 -2.5163 0.9308
17.2309 4.4361 -2.5210 0.9306
16.9333 5.6826 -2.5308 0.9304
16.5469 6.9098 -2.5407 0.9301
16.3208 7.5142 -2.5458 0.9300
16.0728 8.1114 -2.5509 0.9298
15.8032 8.7006 -2.5561 0.9297
13.3433 10.0780 -2.3693 0.9347
12.9632 10.5425 -2.3675 0.9347
12.5781 11.0024 -2.3678 0.9347
11.2542 11.3691 -2.2666 0.9374
9.6536 11.2650 -2.1020 0.9418
8.9668 11.2574 -2.0392 0.9435
7.8943 11.5188 -1.9786 0.9451
6.7263 11.5058 -1.8884 0.9476
6.1800 11.4997 -1.8498 0.9486
4.6680 11.5057 -1.7593 0.9511
3.3565 11.7736 -1.7347 0.9517
2.9027 11.7685 -1.7174 0.9522
1.5859 11.7537 -1.6805 0.9532
-0.1372 14.4686 -2.0501 0.9432
-0.6531 14.3828 -2.0400 0.9435
-3.5427 15.4873 -2.2511 0.9378
-5.1901 15.0259 -2.2524 0.9378
-5.7268 14.8320 -2.2527 0.9378
-4.4902 10.4920 -1.6170 0.9549
-4.8095 10.2086 -1.5989 0.9554
11.9151 -8.9740 -2.4573 0.9413
12.2333 -8.5432 -2.4581 0.9413
12.8236 -7.6490 -2.4598 0.9413
13.8283 -5.7526 -2.4673 0.9411
14.0396 -5.2577 -2.4697 0.9410
14.4108 -4.2459 -2.4749 0.9409
14.7119 -3.2085 -2.4806 0.9408
14.8355 -2.6816 -2.4836 0.9407
14.9410 -2.1501 -2.4867 0.9406
15.1816 1.1022 -2.5076 0.9402
15.1096 2.1952 -2.5153 0.9400
15.0447 2.7404 -2.5192 0.9399
14.7346 4.3629 -2.5315 0.9396
14.1522 5.9098 -2.5265 0.9397
13.3473 7.3486 -2.5101 0.9401
13.0667 7.8179 -2.5085 0.9401
12.7788 8.2826 -2.5087 0.9401
11.7701 9.5722 -2.4993 0.9404
10.9314 9.5620 -2.3926 0.9428
10.1044 10.2076 -2.3661 0.9434
9.7386 10.5713 -2.3679 0.9434
9.3596 10.9219 -2.3696 0.9434
8.7206 10.9483 -2.3058 0.9448
8.1100 10.9676 -2.2471 0.9462
7.7049 11.2425 -2.2453 0.9462
6.5650 11.2299 -2.1429 0.9486
6.0318 11.2240 -2.0991 0.9497
5.5193 11.2183 -2.0597 0.9506
5.0251 11.2128 -2.0242 0.9514
4.1538 11.3963 -1.9982 0.9520
3.7205 11.4715 -1.9867 0.9523
3.2689 11.4664 -1.9642 0.9528
1.5446 11.4471 -1.9029 0.9543
0.8461 13.5579 -2.2379 0.9464
0.3590 13.5850 -2.2388 0.9464
-0.1289 13.5942 -2.2396 0.9464
-0.6169 13.5856 -2.2404 0.9464
-3.0368 13.2757 -2.2435 0.9463
-3.9828 13.0285 -2.2443 0.9463
-4.9085 12.7125 -2.2449 0.9463
-4.4055 10.2940 -1.8446 0.9556
-4.7732 10.1317 -1.8450 0.9556
10.4674 -7.8836 -2.4631 0.9481
11.2642 -6.7188 -2.4652 0.9480
11.5019 -6.3123 -2.4661 0.9480
11.7253 -5.8975 -2.4670 0.9480
12.3059 -4.6084 -2.4699 0.9479
12.6160 -3.7171 -2.4721 0.9479
12.8638 -2.8054 -2.4747 0.9478
12.9645 -2.3434 -2.4763 0.9478
13.0522 -1.8783 -2.4786 0.9477
13.1237 -1.4099 -2.4809 0.9477
13.2135 -0.4656 -2.4852 0.9476
13.2285 0.4841 -2.4881 0.9475
13.1699 1.4329 -2.4900 0.9475
13.1136 1.9052 -2.4907 0.9475
12.8491 3.3080 -2.4939 0.9474
12.5910 4.2253 -2.4963 0.9474
12.4389 4.6774 -2.4978 0.9473
12.2710 5.1242 -2.4995 0.9473
12.0871 5.5650 -2.5011 0.9473
11.8875 5.9992 -2.5028 0.9472
11.6722 6.4262 -2.5044 0.9472
11.1959 7.2566 -2.5078 0.9471
10.9354 7.6588 -2.5094 0.9471
10.3715 8.4347 -2.5127 0.9470
9.7523 9.1689 -2.5160 0.9470
9.3885 9.4844 -2.5084 0.9471
8.7303 9.4768 -2.4219 0.9489
6.7592 10.6640 -2.3731 0.9499
5.9341 11.0422 -2.3562 0.9503
4.9008 10.9354 -2.2524 0.9524
2.7592 11.1867 -2.1657 0.9542
2.3357 11.1820 -2.1471 0.9546
1.9189 11.1773 -2.1316 0.9549
0.7399 11.8564 -2.2329 0.9528
0.3140 11.8795 -2.2337 0.9528
-0.9657 11.8554 -2.2357 0.9527
-1.3910 11.8162 -2.2363 0.9527
-1.8146 11.7616 -2.2369 0.9527
-2.2361 11.6914 -2.2374 0.9527
-2.6548 11.6059 -2.2378 0.9527
-3.0702 11.5052 -2.2382 0.9527
-3.4817 11.3893 -2.2385 0.9527
-3.8887 11.2584 -2.2388 0.9527
-4.3217 11.1928 -2.2552 0.9523
9.3248 -7.0231 -2.4676 0.9534
9.8096 -6.3393 -2.4688 0.9534
10.0336 -5.9848 -2.4695 0.9534
10.4436 -5.2528 -2.4711 0.9533
10.6290 -4.8762 -2.4719 0.9533
10.8010 -4.4932 -2.4728 0.9533
10.9593 -4.1042 -2.4737 0.9533
11.1038 -3.7096 -2.4746 0.9533
11.2343 -3.3100 -2.4756 0.9532
11.3506 -2.9058 -2.4767 0.9532
11.6707 -1.2538 -2.4811 0.9531
11.7553 0.0079 -2.4848 0.9531
11.7535 0.4301 -2.4861 0.9531
11.7367 0.8521 -2.4874 0.9530
11.3209 3.3521 -2.4957 0.9529
11.0640 4.1604 -2.4986 0.9528
10.9139 4.5575 -2.5000 0.9528
10.7496 4.9492 -2.5015 0.9528
10.3790 5.7143 -2.5044 0.9527
10.1732 6.0867 -2.5059 0.9527
9.4767 7.1576 -2.5103 0.9526
9.2190 7.4975 -2.5118 0.9526
8.9492 7.8280 -2.5133 0.9526
6.4399 9.3966 -2.4080 0.9545
1.8265 4.5019 -1.0269 0.9803
1.6059 4.4059 -0.9913 0.9810
1.4391 4.4373 -0.9860 0.9811
2.2716 10.8752 -2.3484 0.9556
1.4662 10.8662 -2.3177 0.9562
0.7020 11.2493 -2.3825 0.9550
-0.1066 11.2402 -2.3760 0.9551
-1.3209 11.2214 -2.3884 0.9549
-1.7232 11.1692 -2.3889 0.9548
-2.1234 11.1023 -2.3893 0.9548
-2.5210 11.0209 -2.3898 0.9548
-2.9154 10.9250 -2.3901 0.9548
-3.3061 10.8148 -2.3905 0.9548
-3.6925 10.6903 -2.3907 0.9548
-4.0742 10.5519 -2.3909 0.9548
-4.7148 10.0077 -2.3384 0.9558
8.3992 -6.3259 -2.4712 0.9577
9.0369 -5.3903 -2.4730 0.9577
9.7268 -4.0464 -2.4759 0.9576
9.8690 -3.6958 -2.4768 0.9576
10.2202 -2.6164 -2.4794 0.9576
10.3115 -2.2488 -2.4804 0.9576
10.5065 -1.1287 -2.4835 0.9575
10.5811 0.0071 -2.4868 0.9575
10.5789 0.3871 -2.4880 0.9574
10.4912 1.5242 -2.4915 0.9574
10.4349 1.9007 -2.4928 0.9574
10.0760 3.3814 -2.4979 0.9573
9.6693 4.4518 -2.5018 0.9572
9.3349 5.1395 -2.5045 0.9572
8.9517 5.8021 -2.5071 0.9571
7.2541 7.8743 -2.5162 0.9570
6.6771 8.3828 -2.5187 0.9569
6.0644 8.8487 -2.5212 0.9569
5.4191 9.2696 -2.5235 0.9568
5.0138 9.3297 -2.4893 0.9574
1.9544 3.9725 -1.0405 0.9820
1.4336 3.9332 -0.9839 0.9829
1.1532 4.0452 -0.9886 0.9829
1.0149 4.1147 -0.9960 0.9827
0.6312 10.1144 -2.3817 0.9592
0.2678 10.1333 -2.3824 0.9592
-0.0961 10.1391 -2.3830 0.9592
-1.1862 10.0769 -2.3847 0.9592
-1.5475 10.0298 -2.3851 0.9592
-2.6178 9.8100 -2.3863 0.9591
-3.3155 9.5990 -2.3868 0.9591
7.8364 -5.4726 -2.4748 0.9613
8.2125 -4.8985 -2.4759 0.9613
8.3851 -4.6018 -2.4765 0.9612
8.8384 -3.6768 -2.4785 0.9612
9.0850 -3.0352 -2.4801 0.9612
9.3682 -2.0431 -2.4826 0.9612
9.4390 -1.7061 -2.4835 0.9611
9.4977 -1.3667 -2.4844 0.9611
9.6009 -0.3383 -2.4874 0.9611
9.6085 0.3516 -2.4895 0.9611
9.5668 1.0409 -2.4916 0.9610
9.5275 1.3842 -2.4927 0.9610
9.4122 2.0660 -2.4950 0.9610
9.0366 3.3980 -2.4997 0.9609
8.9130 3.7220 -2.5009 0.9609
8.7779 4.0414 -2.5021 0.9609
8.4734 4.6652 -2.5045 0.9608
8.3046 4.9687 -2.5057 0.9608
7.7334 5.8409 -2.5093 0.9607
7.5224 6.1176 -2.5105 0.9607
7.0708 6.6478 -2.5128 0.9607
6.8308 6.9005 -2.5140 0.9607
6.3239 7.3795 -2.5163 0.9606
5.7834 7.8212 -2.5185 0.9606
5.5014 8.0272 -2.5196 0.9606
2.2188 3.7954 -1.1383 0.9820
2.0175 3.7542 -1.1035 0.9825
1.8426 3.7453 -1.0807 0.9829
1.6727 3.7323 -1.0590 0.9832
1.5100 3.7219 -1.0399 0.9835
1.0805 3.7900 -1.0204 0.9838
0.8082 3.8693 -1.0235 0.9838
0.6799 3.9601 -1.0403 0.9835
0.5498 4.0746 -1.0645 0.9832
0.4157 4.2189 -1.0976 0.9826
0.2434 9.1896 -2.3802 0.9627
-1.4074 9.1223 -2.3899 0.9626
-2.0787 9.0874 -2.4137 0.9622
-2.4208 9.0717 -2.4310 0.9619
-2.7682 9.0553 -2.4517 0.9616
-4.1784 8.8690 -2.5384 0.9603
6.7941 -5.5102 -2.4764 0.9643
6.9887 -5.2637 -2.4768 0.9643
7.1745 -5.0104 -2.4773 0.9643
7.3512 -4.7506 -2.4778 0.9643
7.5185 -4.4846 -2.4783 0.9643
7.6764 -4.2128 -2.4789 0.9643
7.8245 -3.9355 -2.4795 0.9642
8.2087 -3.0741 -2.4814 0.9642
8.3162 -2.7783 -2.4821 0.9642
8.6391 -1.5616 -2.4853 0.9642
8.6926 -1.2509 -2.4861 0.9641
8.7349 -0.9385 -2.4870 0.9641
8.7661 -0.6246 -2.4879 0.9641
8.7787 0.6374 -2.4917 0.9641
8.6699 1.5792 -2.4948 0.9640
8.5414 2.1990 -2.4969 0.9640
8.2662 3.1084 -2.5001 0.9640
8.1529 3.4045 -2.5012 0.9639
7.8946 3.9841 -2.5034 0.9639
7.5951 4.5442 -2.5056 0.9639
7.0719 5.3413 -2.5089 0.9638
6.6763 5.8399 -2.5110 0.9638
6.4651 6.0784 -2.5121 0.9638
6.2455 6.3092 -2.5132 0.9638
6.0175 6.5320 -2.5142 0.9638
5.7816 6.7466 -2.5153 0.9637
5.2870 7.1498 -2.5173 0.9637
1.9949 3.7121 -1.1930 0.9826
1.8235 3.7063 -1.1693 0.9830
1.6533 3.6892 -1.1445 0.9833
1.4921 3.6778 -1.1236 0.9836
1.3387 3.6729 -1.1067 0.9839
0.9016 3.6554 -1.0658 0.9845
0.6413 3.7355 -1.0729 0.9844
0.5124 3.7972 -1.0847 0.9842
0.3862 3.9191 -1.1148 0.9838
0.2527 4.0488 -1.1484 0.9833
0.1115 4.2195 -1.1949 0.9826
-1.0461 8.8870 -2.5332 0.9635
-1.6815 8.7918 -2.5340 0.9635
-1.9962 8.7269 -2.5343 0.9635
-2.6177 8.5630 -2.5349 0.9635
-2.9236 8.4643 -2.5351 0.9635
-3.2258 8.3545 -2.5353 0.9635
6.7717 -4.3761 -2.4799 0.9668
7.0710 -3.8806 -2.4809 0.9668
7.2073 -3.6251 -2.4814 0.9668
7.3345 -3.3648 -2.4820 0.9668
7.5608 -2.8314 -2.4832 0.9668
7.6596 -2.5589 -2.4839 0.9668
7.8278 -2.0040 -2.4853 0.9667
7.8971 -1.7222 -2.4861 0.9667
7.9562 -1.4381 -2.4868 0.9667
8.0052 -1.1520 -2.4876 0.9667
8.0440 -0.8642 -2.4884 0.9667
8.0986 0.0055 -2.4910 0.9667
8.0961 0.2962 -2.4918 0.9667
8.0598 0.8770 -2.4937 0.9666
8.0262 1.1661 -2.4946 0.9666
7.9279 1.7402 -2.4965 0.9666
7.6092 2.8613 -2.5004 0.9666
7.5047 3.1339 -2.5014 0.9665
7.3903 3.4025 -2.5024 0.9665
7.1329 3.9271 -2.5045 0.9665
6.9902 4.1823 -2.5055 0.9665
6.8384 4.4323 -2.5065 0.9665
6.5080 4.9154 -2.5085 0.9664
6.1435 5.3739 -2.5105 0.9664
5.9490 5.5931 -2.5115 0.9664
5.7467 5.8053 -2.5125 0.9664
5.3195 6.2074 -2.5144 0.9664
2.7824 3.7627 -1.4394 0.9806
2.3407 3.6929 -1.3448 0.9819
1.8032 3.6651 -1.2563 0.9831
1.6353 3.6490 -1.2299 0.9834
1.4745 3.6343 -1.2063 0.9837
0.8916 3.6148 -1.1452 0.9845
0.7530 3.6050 -1.1328 0.9847
0.6171 3.5945 -1.1218 0.9849
0.4923 3.6489 -1.1325 0.9847
0.2364 3.7889 -1.1676 0.9842
-0.3731 8.2173 -2.5301 0.9662
-0.6679 8.2000 -2.5305 0.9662
-0.9620 8.1721 -2.5309 0.9662
-1.5462 8.0843 -2.5316 0.9661
-2.1226 7.9543 -2.5322 0.9661
-2.4070 7.8737 -2.5324 0.9661
-2.9661 7.6819 -2.5328 0.9661
6.2705 -4.0522 -2.4817 0.9690
6.5475 -3.5933 -2.4826 0.9690
6.9003 -2.8705 -2.4842 0.9690
7.0918 -2.3693 -2.4854 0.9690
7.2473 -1.8554 -2.4867 0.9690
7.3659 -1.3314 -2.4881 0.9689
7.4468 -0.8000 -2.4896 0.9689
7.4730 -0.5324 -2.4904 0.9689
7.4897 -0.2639 -2.4912 0.9689
7.4968 0.0051 -2.4920 0.9689
7.4942 0.2742 -2.4928 0.9689
7.4289 1.0793 -2.4953 0.9689
7.3880 1.3457 -2.4962 0.9688
7.3375 1.6106 -2.4971 0.9688
7.2083 2.1344 -2.4989 0.9688
7.1296 2.3926 -2.4998 0.9688
7.0418 2.6479 -2.5007 0.9688
6.8387 3.1486 -2.5026 0.9688
6.4679 3.8698 -2.5054 0.9687
6.3272 4.1010 -2.5063 0.9687
5.3162 5.3705 -2.5119 0.9686
5.1219 5.5598 -2.5128 0.9686
2.7067 3.6604 -1.5133 0.9810
2.5015 3.6501 -1.4709 0.9815
2.3030 3.6335 -1.4299 0.9820
2.1186 3.6240 -1.3954 0.9825
1.6173 3.6088 -1.3145 0.9835
1.3097 3.5933 -1.2713 0.9840
1.1667 3.5974 -1.2571 0.9842
1.0249 3.5951 -1.2426 0.9844
0.8838 3.5831 -1.2268 0.9846
0.0981 3.7125 -1.2345 0.9845
-0.0401 4.2248 -1.4044 0.9823
-0.6176 7.5817 -2.5285 0.9684
-1.1602 7.5200 -2.5293 0.9684
-1.4296 7.4745 -2.5296 0.9684
-1.6971 7.4191 -2.5299 0.9684
-2.2254 7.2796 -2.5303 0.9684
-2.4854 7.1955 -2.5305 0.9684
-3.2449 6.8876 -2.5308 0.9684
5.8324 -3.7691 -2.4833 0.9709
6.0899 -3.3421 -2.4842 0.9709
6.3164 -2.8977 -2.4851 0.9709
6.5108 -2.4382 -2.4862 0.9709
6.5956 -2.2035 -2.4868 0.9709
6.6720 -1.9658 -2.4874 0.9709
6.7399 -1.7255 -2.4880 0.9709
6.7993 -1.4828 -2.4886 0.9709
6.8918 -0.9918 -2.4900 0.9709
6.9492 -0.4951 -2.4914 0.9708
6.9645 -0.2454 -2.4921 0.9708
6.9709 0.0047 -2.4928 0.9708
6.9072 1.0035 -2.4960 0.9708
6.8689 1.2512 -2.4968 0.9708
6.8219 1.4974 -2.4976 0.9708
6.7660 1.7419 -2.4985 0.9708
6.6281 2.2243 -2.5001 0.9707
6.3571 2.9269 -2.5027 0.9707
6.1351 3.3777 -2.5045 0.9707
5.1148 4.8088 -2.5105 0.9706
4.9406 4.9910 -2.5114 0.9706
2.4852 3.6262 -1.5721 0.9815
2.2849 3.6050 -1.5263 0.9820
1.9242 3.5806 -1.4536 0.9829
1.5993 3.5687 -1.3985 0.9835
1.4425 3.5554 -1.3721 0.9838
1.1522 3.5527 -1.3356 0.9843
0.6031 3.5130 -1.2747 0.9850
-0.3205 7.0576 -2.5265 0.9704
-0.5737 7.0426 -2.5268 0.9704
-0.8262 7.0185 -2.5272 0.9704
-1.8229 6.8310 -2.5283 0.9704
-2.0670 6.7617 -2.5285 0.9704
-2.3086 6.6836 -2.5287 0.9704
-2.5471 6.5968 -2.5288 0.9704
-3.0140 6.3975 -2.5290 0.9704
5.1777 -3.8997 -2.4840 0.9726
5.3151 -3.7118 -2.4843 0.9726
5.4457 -3.5192 -2.4847 0.9726
5.7953 -2.9149 -2.4860 0.9726
5.9918 -2.4926 -2.4869 0.9726
6.0786 -2.2764 -2.4874 0.9726
6.1577 -2.0572 -2.4879 0.9726
6.3947 -1.1559 -2.4903 0.9725
6.4645 -0.6945 -2.4916 0.9725
6.4870 -0.4622 -2.4922 0.9725
6.5071 0.0044 -2.4936 0.9725
6.5046 0.2380 -2.4943 0.9725
6.4937 0.4715 -2.4951 0.9725
6.4745 0.7045 -2.4958 0.9725
6.4470 0.9366 -2.4965 0.9725
6.4112 1.1678 -2.4973 0.9725
6.3671 1.3976 -2.4981 0.9725
6.3148 1.6257 -2.4989 0.9725
6.2544 1.8520 -2.4996 0.9724
5.9326 2.7314 -2.5029 0.9724
5.8326 2.9435 -2.5037 0.9724
5.7251 3.1520 -2.5045 0.9724
5.6100 3.3565 -2.5053 0.9724
5.3583 3.7528 -2.5069 0.9724
5.2218 3.9439 -2.5077 0.9724
5.0785 4.1302 -2.5085 0.9723
4.9286 4.3112 -2.5093 0.9723
4.7722 4.4867 -2.5101 0.9723
4.6095 4.6566 -2.5109 0.9723
4.4408 4.8205 -2.5117 0.9723
3.1524 3.6786 -1.8565 0.9795
2.8971 3.6372 -1.7819 0.9803
2.4790 3.6172 -1.6805 0.9814
2.2793 3.5961 -1.6316 0.9819
1.7417 3.5401 -1.5119 0.9832
1.5800 3.5254 -1.4805 0.9836
1.2795 3.5105 -1.4319 0.9841
1.1374 3.5071 -1.4129 0.9843
0.7271 3.4808 -1.3627 0.9849
0.5971 3.4780 -1.3523 0.9850
0.3426 3.4765 -1.3387 0.9851
0.2168 3.4742 -1.3339 0.9852
-0.5350 6.5680 -2.5253 0.9722
-1.2383 6.4747 -2.5262 0.9722
-1.4701 6.4268 -2.5265 0.9722
-1.7000 6.3704 -2.5267 0.9722
-1.9277 6.3057 -2.5269 0.9721
-2.1529 6.2329 -2.5270 0.9721
-2.5948 6.0629 -2.5273 0.9721
4.7158 -3.8246 -2.4850 0.9741
4.8506 -3.6533 -2.4853 0.9741
4.9792 -3.4773 -2.4856 0.9741
5.2173 -3.1120 -2.4863 0.9741
5.4289 -2.7306 -2.4871 0.9741
5.5244 -2.5344 -2.4876 0.9741
5.7681 -1.9270 -2.4890 0.9741
5.8348 -1.7191 -2.4895 0.9741
5.9898 -1.0827 -2.4912 0.9740
6.0262 -0.8672 -2.4918 0.9740
6.0945 0.0041 -2.4943 0.9740
6.0920 0.2229 -2.4950 0.9740
6.0817 0.4416 -2.4957 0.9740
6.0637 0.6597 -2.4963 0.9740
5.9627 1.3088 -2.4985 0.9740
5.8569 1.7342 -2.5000 0.9739
5.4614 2.7562 -2.5037 0.9739
5.1381 3.3303 -2.5060 0.9739
5.0168 3.5136 -2.5068 0.9739
4.7547 3.8668 -2.5083 0.9739
3.0895 3.6052 -1.9432 0.9797
2.6824 3.6276 -1.8465 0.9807
2.4734 3.6090 -1.7906 0.9813
2.0853 3.5671 -1.6911 0.9823
1.9071 3.5487 -1.6488 0.9827
1.7371 3.5307 -1.6104 0.9831
1.5749 3.5143 -1.5761 0.9835
1.2694 3.4828 -1.5172 0.9841
1.1246 3.4675 -1.4919 0.9844
0.9862 3.4592 -1.4722 0.9846
0.8511 3.4507 -1.4546 0.9848
0.7189 3.4417 -1.4390 0.9849
0.5906 3.4403 -1.4286 0.9850
0.3389 3.4389 -1.4143 0.9852
0.2142 3.4321 -1.4074 0.9852
0.0918 3.4746 -1.4226 0.9851
-0.0360 3.7971 -1.5541 0.9837
-0.2804 6.1598 -2.5237 0.9737
-0.7211 6.1254 -2.5243 0.9737
-0.9406 6.0963 -2.5246 0.9737
-1.1589 6.0592 -2.5248 0.9737
-1.5908 5.9615 -2.5253 0.9737
-1.8039 5.9009 -2.5254 0.9737
-2.0146 5.8327 -2.5256 0.9737
-2.4281 5.6736 -2.5258 0.9737
-2.6302 5.5830 -2.5259 0.9737
4.5573 -3.4324 -2.4865 0.9754
4.7930 -3.0974 -2.4871 0.9754
4.9017 -2.9237 -2.4874 0.9754
5.1004 -2.5654 -2.4882 0.9754
5.1901 -2.3810 -2.4886 0.9754
5.2731 -2.1936 -2.4890 0.9754
5.3494 -2.0033 -2.4895 0.9754
5.4189 -1.8103 -2.4899 0.9754
5.4814 -1.6150 -2.4904 0.9754
5.6268 -1.0171 -2.4920 0.9754
5.6609 -0.8146 -2.4926 0.9754
5.7247 0.0039 -2.4949 0.9753
5.7126 0.4147 -2.4962 0.9753
5.6955 0.6197 -2.4968 0.9753
5.6394 1.0272 -2.4982 0.9753
5.5542 1.4299 -2.4995 0.9753
5.3728 2.0204 -2.5016 0.9753
5.2983 2.2125 -2.5023 0.9753
5.2170 2.4020 -2.5031 0.9753
5.1289 2.5884 -2.5038 0.9752
4.9328 2.9513 -2.5052 0.9752
4.8251 3.1273 -2.5059 0.9752
4.4647 3.6310 -2.5080 0.9752
4.3328 3.7900 -2.5087 0.9752
4.1951 3.9441 -2.5094 0.9752
3.9035 4.2372 -2.5108 0.9752
3.0916 3.6076 -2.0706 0.9795
2.6730 3.6148 -1.9593 0.9806
2.2679 3.5782 -1.8463 0.9817
2.0801 3.5581 -1.7962 0.9822
1.7327 3.5218 -1.7106 0.9830
1.5708 3.5050 -1.6739 0.9834
1.4157 3.4895 -1.6412 0.9837
1.1219 3.4592 -1.5849 0.9843
0.9813 3.4420 -1.5598 0.9845
0.8455 3.4280 -1.5387 0.9847
0.7132 3.4142 -1.5201 0.9849
0.5836 3.3993 -1.5032 0.9851
0.4585 3.3979 -1.4943 0.9852
0.3346 3.3961 -1.4873 0.9852
-0.1979 4.3591 -1.9017 0.9811
-0.4700 5.7696 -2.5228 0.9751
-0.6768 5.7496 -2.5231 0.9751
-1.2913 5.6452 -2.5238 0.9750
-1.6932 5.5388 -2.5242 0.9750
-1.8910 5.4747 -2.5243 0.9750
-2.0802 5.3876 -2.5169 0.9751
-2.2723 5.3096 -2.5170 0.9751
-2.4688 5.2403 -2.5245 0.9750
4.1734 -3.3847 -2.4872 0.9766
4.2926 -3.2330 -2.4875 0.9766
4.4064 -3.0773 -2.4878 0.9766
4.5146 -2.9175 -2.4881 0.9766
4.8884 -2.2427 -2.4895 0.9766
5.0383 -1.8868 -2.4903 0.9766
5.1626 -1.5210 -2.4912 0.9766
5.2149 -1.3350 -2.4917 0.9766
5.2605 -1.1472 -2.4922 0.9765
5.3314 -0.7672 -2.4932 0.9765
5.3567 -0.5755 -2.4938 0.9765
5.3751 -0.3829 -2.4943 0.9765
5.3912 0.0037 -2.4955 0.9765
5.2736 1.1576 -2.4992 0.9765
5.1226 1.7191 -2.5011 0.9765
5.0590 1.9023 -2.5018 0.9765
4.9887 2.0832 -2.5025 0.9765
4.9121 2.2616 -2.5031 0.9764
4.7397 2.6095 -2.5045 0.9764
4.4353 3.1064 -2.5065 0.9764
4.2033 3.4184 -2.5078 0.9764
4.0790 3.5680 -2.5085 0.9764
3.8145 3.8535 -2.5098 0.9764
3.6747 3.9889 -2.5105 0.9764
2.4703 3.6045 -2.0227 0.9809
2.2671 3.5768 -1.9602 0.9815
1.8985 3.5327 -1.8564 0.9825
1.1192 3.4509 -1.6793 0.9841
0.9789 3.4336 -1.6527 0.9844
0.8427 3.4167 -1.6289 0.9846
0.5813 3.3858 -1.5902 0.9850
0.4550 3.3718 -1.5749 0.9851
0.3309 3.3584 -1.5621 0.9852
-0.2471 5.4416 -2.5214 0.9763
-0.8308 5.3852 -2.5222 0.9763
-1.0237 5.3524 -2.5225 0.9763
-1.4053 5.2660 -2.5228 0.9763
-1.5934 5.2125 -2.5230 0.9763
-1.7796 5.1522 -2.5231 0.9763
-1.9577 5.0702 -2.5158 0.9763
-2.3165 4.9169 -2.5159 0.9763
4.0523 -3.0520 -2.4885 0.9777
4.1597 -2.9050 -2.4887 0.9776
4.6145 -2.1170 -2.4904 0.9776
4.6883 -1.9503 -2.4907 0.9776
4.8732 -1.4358 -2.4920 0.9776
4.9225 -1.2602 -2.4924 0.9776
4.9654 -1.0829 -2.4929 0.9776
5.0323 -0.7242 -2.4939 0.9776
5.0842 -0.1792 -2.4954 0.9776
5.0774 0.3686 -2.4971 0.9776
5.0620 0.5507 -2.4977 0.9776
5.0402 0.7323 -2.4983 0.9776
4.8343 1.6223 -2.5013 0.9775
4.7079 1.9659 -2.5026 0.9775
4.6355 2.1342 -2.5032 0.9775
4.4727 2.4625 -2.5045 0.9775
4.3825 2.6221 -2.5051 0.9775
4.2867 2.7784 -2.5058 0.9775
4.1852 2.9312 -2.5064 0.9775
3.9662 3.2255 -2.5076 0.9775
3.7264 3.5035 -2.5089 0.9775
3.5992 3.6359 -2.5095 0.9775
3.4672 3.7636 -2.5101 0.9775
3.0904 3.6062 -2.3296 0.9791
2.8510 3.5793 -2.2446 0.9798
2.2675 3.5774 -2.0776 0.9813
1.7286 3.5136 -1.9208 0.9827
1.4102 3.4758 -1.8399 0.9834
1.2606 3.4585 -1.8057 0.9837
0.8404 3.4072 -1.7214 0.9845
0.7085 3.3919 -1.6997 0.9847
0.4531 3.3577 -1.6620 0.9850
0.2091 3.3513 -1.6471 0.9852
0.0894 3.3845 -1.6608 0.9850
-0.0332 3.5035 -1.7186 0.9845
-0.2331 5.1330 -2.5205 0.9774
-0.4172 5.1219 -2.5207 0.9774
-0.6008 5.1041 -2.5210 0.9774
-0.9656 5.0488 -2.5214 0.9774
-1.1463 5.0113 -2.5216 0.9774
-1.5030 4.9167 -2.5219 0.9774
-1.6786 4.8598 -2.5221 0.9774
-1.8520 4.7967 -2.5222 0.9774
-2.0231 4.7272 -2.5222 0.9774
3.8329 -2.8868 -2.4893 0.9786
3.9345 -2.7477 -2.4896 0.9786
4.2892 -2.1573 -2.4908 0.9786
4.4983 -1.6846 -2.4919 0.9786
4.6962 -1.0242 -2.4935 0.9786
4.7308 -0.8551 -2.4940 0.9786
4.7980 -0.3418 -2.4954 0.9786
4.8082 -0.1694 -2.4959 0.9786
4.8122 0.0032 -2.4965 0.9785
4.8100 0.1760 -2.4970 0.9785
4.7663 0.6925 -2.4986 0.9785
4.7395 0.8633 -2.4992 0.9785
4.6224 1.3687 -2.5009 0.9785
4.5714 1.5341 -2.5015 0.9785
4.5144 1.6976 -2.5021 0.9785
4.4517 1.8590 -2.5027 0.9785
4.3089 2.1746 -2.5039 0.9785
4.2291 2.3284 -2.5045 0.9785
4.1438 2.4793 -2.5051 0.9785
4.0531 2.6270 -2.5057 0.9785
3.9571 2.7714 -2.5063 0.9785
3.7499 3.0496 -2.5075 0.9785
3.5231 3.3123 -2.5087 0.9784
2.8490 3.5768 -2.3723 0.9796
2.4737 3.6094 -2.2700 0.9805
2.2655 3.5743 -2.1954 0.9811
1.8993 3.5343 -2.0815 0.9821
1.7291 3.5144 -2.0319 0.9825
1.5665 3.4953 -1.9871 0.9829
1.4106 3.4769 -1.9465 0.9832
1.1166 3.4427 -1.8776 0.9838
0.9756 3.4222 -1.8461 0.9841
0.7065 3.3823 -1.7925 0.9846
0.5774 3.3633 -1.7704 0.9847
0.3288 3.3367 -1.7394 0.9850
0.0890 3.3692 -1.7485 0.9849
-0.2203 4.8518 -2.5196 0.9784
-0.5679 4.8244 -2.5201 0.9783
-0.9127 4.7720 -2.5205 0.9783
-1.0835 4.7366 -2.5207 0.9783
-1.2528 4.6949 -2.5209 0.9783
-1.5866 4.5934 -2.5211 0.9783
-1.7505 4.5337 -2.5212 0.9783
3.5308 -2.8636 -2.4899 0.9795
3.8193 -2.4681 -2.4906 0.9795
4.0639 -2.0440 -2.4915 0.9795
4.2012 -1.7477 -2.4922 0.9795
4.2618 -1.5960 -2.4925 0.9795
4.3170 -1.4423 -2.4929 0.9795
4.3667 -1.2865 -2.4933 0.9795
4.5090 -0.6489 -2.4950 0.9794
4.5301 -0.4867 -2.4954 0.9794
4.5455 -0.3238 -2.4959 0.9794
4.5588 0.0031 -2.4969 0.9794
4.5567 0.1667 -2.4974 0.9794
4.5487 0.3303 -2.4979 0.9794
4.5152 0.6560 -2.4989 0.9794
4.4584 0.9786 -2.5000 0.9794
4.3786 1.2965 -2.5011 0.9794
4.2762 1.6080 -2.5022 0.9794
3.9249 2.3483 -2.5051 0.9794
3.8389 2.4882 -2.5056 0.9794
3.7480 2.6250 -2.5062 0.9793
3.6522 2.7585 -2.5068 0.9793
3.5516 2.8884 -2.5073 0.9793
3.2227 3.2556 -2.5090 0.9793
2.9822 3.4799 -2.5101 0.9793
2.8560 3.5854 -2.5106 0.9793
2.7260 3.6864 -2.5111 0.9793
2.4555 3.8740 -2.5121 0.9793
1.8966 3.5292 -2.1944 0.9819
1.4109 3.4777 -2.0555 0.9830
1.1168 3.4433 -1.9826 0.9836
0.7047 3.3737 -1.8877 0.9844
0.3277 3.3253 -1.8301 0.9849
0.2075 3.3255 -1.8249 0.9849
0.0887 3.3569 -1.8392 0.9848
-0.0325 3.4290 -1.8782 0.9845
-0.3734 4.5841 -2.5190 0.9792
-0.5377 4.5682 -2.5193 0.9792
-1.0259 4.4849 -2.5198 0.9792
-1.1863 4.4454 -2.5200 0.9792
-1.3412 4.3872 -2.5127 0.9793
-1.5023 4.3493 -2.5202 0.9792
-1.6526 4.2800 -2.5129 0.9793
-1.8052 4.2181 -2.5129 0.9793
-1.9555 4.1506 -2.5130 0.9793
3.3505 -2.7173 -2.4907 0.9803
3.5375 -2.4704 -2.4911 0.9803
3.6242 -2.3421 -2.4913 0.9803
3.9865 -1.6584 -2.4928 0.9803
4.0963 -1.3685 -2.4935 0.9802
4.1434 -1.2208 -2.4939 0.9802
4.1852 -1.0714 -2.4942 0.9802
4.2216 -0.9207 -2.4946 0.9802
4.2983 -0.4618 -2.4959 0.9802
4.3129 -0.3073 -2.4963 0.9802
4.3219 -0.1523 -2.4968 0.9802
4.3254 0.0029 -2.4973 0.9802
4.2596 0.7759 -2.4997 0.9802
4.2298 0.9284 -2.5002 0.9802
4.1541 1.2300 -2.5013 0.9802
3.9387 1.8134 -2.5034 0.9802
3.8000 2.0921 -2.5045 0.9802
3.6417 2.3604 -2.5056 0.9802
3.5554 2.4901 -2.5061 0.9802
3.4645 2.6167 -2.5066 0.9801
3.2692 2.8597 -2.5077 0.9801
2.7090 3.4009 -2.5103 0.9801
2.4590 3.5879 -2.5113 0.9801
2.3290 3.6746 -2.5118 0.9801
2.1961 3.7565 -2.5122 0.9801
1.7252 3.5065 -2.2562 0.9821
1.5640 3.4897 -2.2079 0.9825
1.4092 3.4735 -2.1642 0.9828
1.2602 3.4575 -2.1247 0.9831
0.9757 3.4225 -2.0547 0.9837
0.8371 3.3938 -2.0181 0.9840
0.6950 3.3274 -1.9625 0.9844
0.5689 3.3138 -1.9412 0.9846
0.4452 3.2992 -1.9220 0.9847
0.3261 3.3092 -1.9198 0.9848
0.0884 3.3441 -1.9314 0.9847
-0.0324 3.4146 -1.9715 0.9844
-0.1978 4.3569 -2.5181 0.9801
-0.5100 4.3323 -2.5185 0.9801
-1.2719 4.1606 -2.5119 0.9801
-1.4205 4.1124 -2.5120 0.9801
-1.8599 3.9479 -2.5196 0.9800
