ply
format ascii 1.0
element vertex 1107
property float32 x
property float32 y
property float32 z
property float32 I
end_header
16.6886 -35.2172 6.8717 0.8536
9.3896 -16.5988 3.3626 0.9255
25.3024 -30.3173 6.9629 0.8518
25.1856 -28.0517 6.6473 0.8580
27.0580 -28.0305 6.8696 0.8536
27.0239 -26.0430 6.6176 0.8586
28.8091 -25.8222 6.8217 0.8546
31.1052 -25.9159 7.1389 0.8484
26.8446 -20.7700 5.9848 0.8712
36.0525 -25.8675 7.8240 0.8351
41.0944 -25.2008 8.5000 0.8222
41.9844 8.8935 7.5672 0.8400
9.3040 14.6093 3.0541 0.9321
8.5735 14.6010 2.9856 0.9335
7.8741 14.5931 2.9238 0.9349
4.7295 14.5574 2.6989 0.9397
4.1526 14.5509 2.6682 0.9404
9.7641 -25.1545 4.1336 0.8966
9.3895 -16.5986 2.9215 0.9257
24.7945 -37.2669 6.8572 0.8343
25.2429 -35.1199 6.6257 0.8394
27.2025 -35.0977 6.8026 0.8355
29.3789 -35.2018 7.0241 0.8307
28.9885 -32.2874 6.6473 0.8390
31.2558 -32.3790 6.8943 0.8335
32.6666 -29.2796 6.7203 0.8373
32.6256 -25.2429 6.3194 0.8463
32.7290 -21.7359 6.0189 0.8530
33.0964 -20.2962 5.9476 0.8546
36.1220 -18.7060 6.2317 0.8482
31.4433 11.5948 5.1340 0.8732
31.3423 15.5945 5.3630 0.8679
31.2611 18.4831 5.5635 0.8633
10.8758 14.6273 2.7923 0.9289
10.0699 14.6181 2.7193 0.9307
9.3041 14.6094 2.6534 0.9323
8.5736 14.6011 2.5939 0.9338
7.8742 14.5932 2.5403 0.9351
3.9238 12.0773 1.9454 0.9499
3.4451 12.0719 1.9232 0.9505
10.2544 -26.4177 3.6902 0.8920
32.3833 -33.5469 6.0718 0.8285
32.3827 -31.2070 5.8563 0.8341
32.7542 -29.3582 5.7278 0.8374
32.7304 -27.2699 5.5477 0.8421
33.0962 -20.2960 5.0557 0.8550
36.1216 -18.7057 5.2971 0.8487
39.2891 -18.5779 5.6594 0.8392
43.0004 -5.0313 5.6378 0.8398
42.7999 -0.3454 5.5736 0.8414
42.4683 7.4040 5.6137 0.8404
40.1743 8.5100 5.3476 0.8473
32.1202 9.2715 4.3535 0.8738
31.6628 10.3926 4.3396 0.8742
31.4431 11.5947 4.3641 0.8736
31.2608 18.4829 4.7291 0.8637
31.1729 21.6129 4.9396 0.8581
31.0238 26.9169 5.3486 0.8473
30.9089 31.0024 5.7008 0.8381
10.0700 14.6182 2.3115 0.9309
9.3041 14.6095 2.2555 0.9325
8.5736 14.6012 2.2049 0.9340
4.9183 12.0887 1.6995 0.9487
3.9238 12.0774 1.6536 0.9501
32.6157 -33.7878 5.0428 0.8278
32.7793 -31.5892 4.8884 0.8327
32.5428 -29.1687 4.6928 0.8388
32.7301 -27.2697 4.5746 0.8425
32.6906 -25.2932 4.4384 0.8468
32.7284 -21.7355 4.2189 0.8538
33.0959 -20.2958 4.1689 0.8554
33.9817 -19.1852 4.1904 0.8547
43.2324 -18.5623 5.0522 0.8276
43.4283 -15.0350 4.9350 0.8312
43.3530 -13.2756 4.8687 0.8333
43.2796 -11.5605 4.8104 0.8351
43.2078 -9.8839 4.7596 0.8367
43.1375 -8.2402 4.7159 0.8380
43.0683 -6.6242 4.6791 0.8392
43.0001 -5.0313 4.6489 0.8402
42.9327 -3.4567 4.6251 0.8409
42.7996 -0.3454 4.5960 0.8418
42.7335 1.1996 4.5906 0.8420
42.6674 2.7430 4.5912 0.8420
42.6013 4.2888 4.5977 0.8418
42.5349 5.8411 4.6103 0.8414
42.4680 7.4039 4.6291 0.8408
35.9580 7.6169 3.9469 0.8625
31.6626 10.3925 3.5784 0.8745
31.3418 15.5942 3.7591 0.8686
31.3020 17.0120 3.8256 0.8665
31.2606 18.4828 3.8997 0.8641
31.1726 21.6127 4.0732 0.8585
31.0759 25.0529 4.2864 0.8516
31.0235 26.9166 4.4105 0.8477
30.9679 28.8942 4.5481 0.8433
30.9086 31.0020 4.7009 0.8385
30.7769 35.6897 5.0606 0.8273
30.7030 38.3203 5.2728 0.8207
10.8760 14.6275 1.9573 0.9293
10.0700 14.6183 1.9061 0.9311
9.3042 14.6096 1.8599 0.9327
8.5737 14.6013 1.8182 0.9341
6.5327 12.1071 1.4773 0.9462
5.4140 12.0413 1.4177 0.9483
3.4589 12.1201 1.3534 0.9506
32.8484 -36.5865 4.1623 0.8209
32.5653 -27.1324 3.5882 0.8435
32.6122 -23.3990 3.3978 0.8512
33.0956 -20.2956 3.2865 0.8557
33.9813 -19.1851 3.3034 0.8550
36.1208 -18.7053 3.4434 0.8493
39.2882 -18.5775 3.6789 0.8399
43.3526 -13.2754 3.8381 0.8336
43.5253 -11.6261 3.8137 0.8346
43.9196 -10.0467 3.8140 0.8346
44.5367 -6.8501 3.8145 0.8345
44.7587 -5.2371 3.8148 0.8345
45.0279 -1.9918 3.8155 0.8345
45.0747 -0.3638 3.8158 0.8345
44.6762 6.1352 3.8175 0.8344
40.1765 8.5105 3.4765 0.8480
34.0124 8.4994 2.9678 0.8687
31.6624 10.3925 2.8210 0.8748
31.4427 11.5946 2.8369 0.8741
31.3246 12.8548 2.8663 0.8729
31.2603 18.4826 3.0742 0.8643
31.2173 20.0135 3.1391 0.8617
31.1723 21.6125 3.2110 0.8588
31.0756 25.0527 3.3791 0.8519
31.0232 26.9164 3.4769 0.8480
30.9676 28.8939 3.5854 0.8436
30.9083 31.0017 3.7059 0.8388
30.8449 33.2592 3.8399 0.8335
30.7765 35.6893 3.9894 0.8276
10.8761 14.6276 1.5430 0.9294
8.5737 14.6014 1.4334 0.9343
6.7462 12.5028 1.2026 0.9446
7.2024 14.5859 1.3771 0.9368
5.9284 14.5714 1.3317 0.9388
5.3208 14.5645 1.3126 0.9397
4.1394 14.5047 1.2769 0.9412
32.8480 -36.5861 3.0489 0.8211
32.8011 -33.9798 2.9287 0.8276
32.7786 -31.5885 2.8228 0.8332
32.6900 -25.2927 2.5630 0.8473
32.7278 -21.7351 2.4362 0.8543
36.1204 -18.7051 2.5224 0.8496
39.2877 -18.5773 2.6949 0.8402
43.2313 -18.5618 2.9174 0.8282
32.1199 9.2714 2.0731 0.8746
31.6622 10.3924 2.0664 0.8750
31.4425 11.5945 2.0781 0.8743
31.3413 15.5940 2.1708 0.8691
31.2601 18.4825 2.2519 0.8646
31.2170 20.0133 2.2994 0.8619
31.0229 26.9161 2.5469 0.8482
30.9673 28.8937 2.6264 0.8439
30.8445 33.2588 2.8128 0.8338
30.7023 38.3195 3.0448 0.8214
10.8761 14.6277 1.1303 0.9296
10.0433 14.5796 1.0978 0.9315
8.5738 14.6015 1.0500 0.9344
6.7463 12.5029 0.8810 0.9447
9.3889 -16.5976 0.7519 0.9265
32.8477 -36.5857 1.9387 0.8213
32.8007 -33.9795 1.8623 0.8277
32.7529 -29.3570 1.7343 0.8386
33.9807 -19.1847 1.5387 0.8554
36.1200 -18.7049 1.6039 0.8497
39.2872 -18.5770 1.7136 0.8403
43.2307 -18.5616 1.8551 0.8283
34.0132 8.4996 1.3824 0.8691
32.1199 9.2714 1.3182 0.8747
31.6620 10.3923 1.3140 0.8751
31.4423 11.5944 1.3214 0.8745
31.3411 15.5939 1.3803 0.8692
31.0751 25.0522 1.5739 0.8523
30.9670 28.8934 1.6700 0.8440
30.9077 31.0011 1.7262 0.8393
30.6786 35.5756 1.8523 0.8286
28.8374 35.9921 1.8186 0.8314
10.8762 14.6278 0.7188 0.9296
10.0432 14.5794 0.6981 0.9316
9.3497 14.6811 0.6863 0.9327
8.5738 14.6016 0.6677 0.9345
6.7463 12.5029 0.5602 0.9447
7.2025 14.5860 0.6414 0.9370
6.5548 14.5787 0.6303 0.9380
5.9285 14.5715 0.6203 0.9390
4.7336 14.5701 0.6041 0.9405
4.1562 14.5636 0.5972 0.9412
10.5012 -24.4014 0.4487 0.8992
9.3888 -16.5974 0.3221 0.9266
32.8473 -36.5853 0.8305 0.8214
32.8004 -33.9791 0.7978 0.8278
32.7288 -27.2687 0.7196 0.8433
32.7272 -21.7347 0.6636 0.8546
33.0947 -20.2951 0.6558 0.8561
33.9803 -19.1845 0.6591 0.8555
39.2867 -18.5768 0.7341 0.8404
46.2314 -17.9008 0.8374 0.8201
45.2739 -5.2973 0.7700 0.8333
46.5742 8.1198 0.7986 0.8277
31.4421 11.5944 0.5661 0.8745
31.3239 12.8546 0.5719 0.8733
31.3408 15.5938 0.5913 0.8693
31.3010 17.0115 0.6018 0.8672
31.1244 23.2881 0.6566 0.8560
31.0748 25.0520 0.6742 0.8524
31.0223 26.9156 0.6938 0.8485
30.9667 28.8931 0.7154 0.8441
8.5739 14.6017 0.2860 0.9345
6.5549 14.5787 0.2700 0.9381
4.7360 14.5773 0.2589 0.9405
4.1583 14.5707 0.2560 0.9412
9.6939 -22.5255 -0.1381 0.9066
10.6687 -22.5138 -0.1403 0.9051
11.6765 -22.5017 -0.1427 0.9036
9.3887 -16.5972 -0.1074 0.9266
32.8001 -33.9787 -0.2659 0.8279
32.7776 -31.5876 -0.2563 0.8335
32.7523 -29.3564 -0.2476 0.8387
31.8879 -24.6721 -0.2270 0.8511
32.7270 -21.7346 -0.2212 0.8546
33.9800 -19.1843 -0.2197 0.8555
36.1192 -18.7045 -0.2290 0.8498
46.2307 -17.9005 -0.2791 0.8201
40.7137 -4.7638 -0.2308 0.8488
34.0140 8.4998 -0.1974 0.8691
31.4419 11.5943 -0.1887 0.8745
31.3237 12.8545 -0.1906 0.8733
31.3406 15.5936 -0.1971 0.8693
31.3007 17.0113 -0.2006 0.8672
31.2593 18.4820 -0.2045 0.8648
31.1713 21.6118 -0.2136 0.8592
31.1241 23.2879 -0.2189 0.8560
31.0745 25.0518 -0.2247 0.8524
29.2879 27.3267 -0.2255 0.8519
27.4681 27.5511 -0.2190 0.8559
25.5275 27.5256 -0.2114 0.8606
10.8763 14.6279 -0.1026 0.9297
10.6687 -22.5137 -0.7015 0.9051
9.3886 -16.5970 -0.5369 0.9265
32.7997 -33.9784 -1.3298 0.8278
32.7519 -29.3562 -1.2385 0.8386
31.8822 -24.6677 -1.1351 0.8510
32.7267 -21.7343 -1.1062 0.8545
33.0941 -20.2947 -1.0931 0.8561
36.1188 -18.7043 -1.1453 0.8498
37.9727 -17.9554 -1.1827 0.8453
46.2301 -17.9003 -1.3959 0.8201
37.0425 -4.3342 -1.0502 0.8614
49.2107 -3.9622 -1.3902 0.8207
46.5773 8.1204 -1.3313 0.8276
38.0662 8.0635 -1.0957 0.8558
34.0145 8.4999 -0.9872 0.8691
32.1196 9.2713 -0.9413 0.8748
31.6614 10.3921 -0.9383 0.8752
31.4417 11.5942 -0.9436 0.8745
31.3234 12.8543 -0.9534 0.8733
31.2591 18.4819 -1.0225 0.8648
29.3217 23.6387 -1.0605 0.8601
27.4107 23.7821 -1.0218 0.8648
25.6258 23.9099 -0.9869 0.8691
22.3743 24.1255 -0.9265 0.8766
20.8827 24.2161 -0.9004 0.8799
19.4670 24.2967 -0.8767 0.8829
10.8764 14.6280 -0.5133 0.9297
10.0704 14.6189 -0.4999 0.9314
8.5740 14.6019 -0.4768 0.9345
6.7464 12.5032 -0.4000 0.9447
7.2026 14.5863 -0.4581 0.9370
6.5549 14.5789 -0.4501 0.9380
5.9286 14.5718 -0.4430 0.9390
5.3040 14.5183 -0.4352 0.9400
4.7350 14.5743 -0.4315 0.9405
4.1575 14.5680 -0.4266 0.9412
9.6938 -22.5252 -1.2436 0.9065
10.6686 -22.5135 -1.2635 0.9050
11.6763 -22.5014 -1.2856 0.9035
9.3884 -16.5968 -0.9670 0.9265
26.0084 -42.3316 -2.5196 0.8196
27.5235 -41.3686 -2.5199 0.8195
30.4444 -39.2805 -2.5204 0.8195
19.3670 -23.2055 -1.5329 0.8860
31.1830 -34.7316 -2.3671 0.8295
24.0018 -23.1304 -1.6905 0.8750
25.7303 -23.0625 -1.7523 0.8708
27.6412 -23.0298 -1.8246 0.8658
32.6104 -23.3978 -2.0355 0.8515
32.7264 -21.7342 -1.9924 0.8544
36.1184 -18.7041 -2.0628 0.8497
37.9722 -17.9552 -2.1302 0.8452
41.7595 -17.9299 -2.3048 0.8336
46.9624 -16.2586 -2.5204 0.8195
47.5151 -14.5501 -2.5201 0.8195
48.7950 -9.3209 -2.5193 0.8196
37.0513 -5.6988 -1.9011 0.8606
37.0422 -4.3341 -1.8914 0.8612
49.6013 -2.1942 -2.5180 0.8197
49.6141 1.3927 -2.5171 0.8197
49.5226 3.1837 -2.5167 0.8198
38.0672 8.0637 -1.9734 0.8557
34.0149 8.5001 -1.7781 0.8690
32.1195 9.2713 -1.6954 0.8747
31.4415 11.5941 -1.6995 0.8744
31.3463 14.2077 -1.7454 0.8712
31.3002 17.0111 -1.8067 0.8670
24.9592 20.1217 -1.6259 0.8795
22.1217 20.6404 -1.5344 0.8859
19.5414 21.0709 -1.4574 0.8913
18.3230 21.2478 -1.4229 0.8937
17.1460 21.3998 -1.3907 0.8960
9.3046 14.6103 -0.8784 0.9330
6.7465 12.5033 -0.7205 0.9447
6.5550 14.5790 -0.8107 0.9380
4.7317 14.5640 -0.7766 0.9405
4.1546 14.5578 -0.7678 0.9412
8.7478 -22.5364 -1.7725 0.9076
10.6685 -22.5134 -1.8267 0.9049
11.6762 -22.5013 -1.8587 0.9033
14.2268 -23.1559 -1.9927 0.8967
18.9939 -28.5483 -2.5142 0.8715
19.2511 -23.0666 -2.2029 0.8865
27.1293 -20.9903 -2.5151 0.8715
29.8689 -16.8633 -2.5150 0.8715
30.4579 -15.7728 -2.5149 0.8715
31.5151 -13.5313 -2.5147 0.8715
31.9820 -12.3834 -2.5146 0.8715
32.4067 -11.2193 -2.5145 0.8715
32.7889 -10.0407 -2.5144 0.8715
33.1281 -8.8490 -2.5142 0.8715
34.0460 -3.9837 -2.5134 0.8716
34.2665 -0.2766 -2.5126 0.8716
34.2500 0.9614 -2.5123 0.8716
33.9320 4.6597 -2.5113 0.8716
33.7369 5.8817 -2.5110 0.8717
32.4690 6.8778 -2.4335 0.8754
31.2210 7.8018 -2.3596 0.8789
30.8276 8.8983 -2.3526 0.8792
29.2426 13.2542 -2.3541 0.8792
26.9834 14.6649 -2.2518 0.8841
23.3828 16.2118 -2.0862 0.8922
21.1710 17.0677 -1.9939 0.8967
17.0150 18.3467 -1.8347 0.9045
16.0275 18.5859 -1.7995 0.9063
15.0676 18.8059 -1.7669 0.9079
10.0706 14.6191 -1.3016 0.9313
8.5741 14.6021 -1.2416 0.9343
6.7016 12.4200 -1.0348 0.9450
5.5785 12.4072 -0.9974 0.9469
5.0454 12.4012 -0.9817 0.9477
4.5284 12.3953 -0.9676 0.9484
16.0250 -20.6761 -2.5114 0.9002
17.4775 -19.4664 -2.5116 0.9002
19.4824 -17.4625 -2.5118 0.9002
20.6930 -16.0105 -2.5118 0.9002
22.3035 -13.6775 -2.5118 0.9002
23.2322 -12.0309 -2.5117 0.9002
23.6511 -11.1835 -2.5117 0.9002
24.0390 -10.3214 -2.5116 0.9002
24.3953 -9.4459 -2.5115 0.9002
24.7197 -8.5581 -2.5114 0.9002
25.8479 -3.9756 -2.5107 0.9002
25.9729 -3.0390 -2.5105 0.9003
26.1205 -1.1555 -2.5101 0.9003
26.0848 1.6769 -2.5094 0.9003
26.0000 2.6175 -2.5087 0.9003
25.8858 3.5547 -2.5085 0.9003
25.7456 4.4885 -2.5090 0.9003
25.6032 5.4235 -2.5126 0.9002
24.9765 8.1979 -2.5237 0.8998
24.6302 9.0824 -2.5203 0.8999
24.1839 9.9245 -2.5097 0.9003
23.6274 10.7091 -2.4905 0.9010
22.8947 11.3913 -2.4550 0.9023
22.0823 12.0013 -2.4129 0.9039
20.4784 13.1287 -2.3354 0.9069
19.6863 13.6490 -2.2998 0.9082
18.9007 14.1420 -2.2663 0.9095
18.0938 14.5869 -2.2313 0.9108
11.6249 11.6600 -1.5807 0.9360
14.6991 15.8496 -2.0753 0.9168
13.4500 15.5970 -1.9773 0.9206
12.7167 15.8717 -1.9525 0.9215
10.8766 14.6283 -1.7501 0.9294
8.5742 14.6021 -1.6257 0.9342
6.5358 12.1127 -1.3214 0.9462
5.9781 12.1064 -1.2962 0.9472
5.4405 12.1003 -1.2737 0.9481
4.9206 12.0943 -1.2535 0.9489
4.4163 12.0886 -1.2356 0.9496
3.9489 12.1548 -1.2270 0.9499
3.5067 12.2878 -1.2268 0.9499
7.1823 -18.5035 -2.3577 0.9232
9.3881 -16.5962 -2.2649 0.9261
10.3878 -16.9073 -2.3571 0.9232
11.0024 -16.5369 -2.3594 0.9231
11.6005 -16.1396 -2.3610 0.9231
12.7162 -15.2365 -2.3574 0.9232
14.1146 -15.7209 -2.5096 0.9184
14.6737 -15.2011 -2.5097 0.9184
15.2136 -14.6613 -2.5098 0.9184
15.7336 -14.1024 -2.5098 0.9184
17.1674 -12.3175 -2.5098 0.9184
18.3989 -10.3876 -2.5098 0.9184
19.4136 -8.3355 -2.5096 0.9184
19.7015 -7.6285 -2.5096 0.9184
19.9636 -6.9115 -2.5095 0.9184
20.4090 -5.4515 -2.5093 0.9184
20.5893 -4.7100 -2.5089 0.9184
20.7450 -3.9628 -2.5088 0.9184
20.9745 -2.4542 -2.5085 0.9185
21.0481 -1.6947 -2.5083 0.9185
21.0810 1.3552 -2.5093 0.9184
21.0413 2.1183 -2.5120 0.9183
20.9745 2.8803 -2.5149 0.9183
20.8805 3.6403 -2.5177 0.9182
20.4362 5.8989 -2.5266 0.9179
20.2343 6.6414 -2.5297 0.9178
20.0057 7.3771 -2.5328 0.9177
19.7506 8.1051 -2.5360 0.9176
18.7090 10.1679 -2.5294 0.9178
17.6119 11.2910 -2.4851 0.9192
16.9669 11.7635 -2.4525 0.9202
16.3227 12.2130 -2.4216 0.9212
15.6792 12.6403 -2.3923 0.9221
12.5130 13.4923 -2.1859 0.9286
11.9006 13.8002 -2.1646 0.9292
10.0707 14.6193 -2.1087 0.9310
9.2535 14.5300 -2.0462 0.9330
4.8106 11.8238 -1.5163 0.9499
4.3287 11.8488 -1.4985 0.9505
3.4468 12.0776 -1.4919 0.9507
7.6553 -14.7525 -2.3549 0.9351
8.1836 -14.4670 -2.3550 0.9351
9.2121 -13.8461 -2.3564 0.9350
11.3430 -13.5911 -2.5083 0.9310
12.2953 -12.7372 -2.5084 0.9310
12.7475 -12.2847 -2.5084 0.9310
13.6014 -11.3323 -2.5084 0.9310
14.0020 -10.8335 -2.5084 0.9310
14.7475 -9.7941 -2.5084 0.9310
15.0915 -9.2548 -2.5084 0.9310
15.4158 -8.7034 -2.5083 0.9310
15.7199 -8.1406 -2.5083 0.9310
16.2659 -6.9840 -2.5082 0.9310
16.7267 -5.7909 -2.5080 0.9310
16.9244 -5.1826 -2.5079 0.9310
17.1000 -4.5677 -2.5078 0.9310
17.2531 -3.9467 -2.5077 0.9310
17.3836 -3.3207 -2.5076 0.9310
17.4914 -2.6903 -2.5075 0.9310
17.5763 -2.0566 -2.5074 0.9310
17.6429 -1.4205 -2.5079 0.9310
17.6974 -0.7829 -2.5100 0.9309
17.7293 -0.1431 -2.5121 0.9309
17.7248 1.1395 -2.5166 0.9308
17.6884 1.7807 -2.5189 0.9307
17.4419 3.6946 -2.5262 0.9305
17.1638 4.9543 -2.5312 0.9304
16.5782 6.8032 -2.5391 0.9302
16.3388 7.4055 -2.5417 0.9301
16.0776 7.9994 -2.5444 0.9300
15.4911 9.1590 -2.5499 0.9299
13.8075 11.1313 -2.5130 0.9309
13.2614 11.5058 -2.4876 0.9315
12.3058 11.4818 -2.3847 0.9343
11.3720 11.4063 -2.2821 0.9370
8.3207 13.0654 -2.1948 0.9393
6.7766 11.5408 -1.8963 0.9474
4.2055 11.5115 -1.7365 0.9517
3.7677 11.5969 -1.7277 0.9519
3.3460 11.7244 -1.7275 0.9519
5.4159 -13.9527 -2.4656 0.9411
5.9930 -13.9258 -2.4975 0.9404
6.5161 -13.7506 -2.5067 0.9402
7.0089 -13.5068 -2.5068 0.9402
7.9665 -12.9664 -2.5070 0.9402
8.4300 -12.6705 -2.5071 0.9402
8.8825 -12.3581 -2.5072 0.9402
9.3234 -12.0295 -2.5072 0.9402
11.3342 -10.1591 -2.5075 0.9402
11.6939 -9.7430 -2.5075 0.9402
12.0383 -9.3141 -2.5075 0.9402
12.6792 -8.4205 -2.5074 0.9402
13.5154 -6.9990 -2.5073 0.9402
14.3812 -4.9788 -2.5071 0.9402
14.7023 -3.9272 -2.5070 0.9402
14.8393 -3.3946 -2.5078 0.9402
14.9617 -2.8580 -2.5093 0.9401
15.2137 -1.2249 -2.5144 0.9400
15.2847 -0.1234 -2.5181 0.9399
15.2438 1.5346 -2.5239 0.9398
15.0254 3.1828 -2.5302 0.9396
14.9133 3.7267 -2.5324 0.9396
13.8362 6.8842 -2.5459 0.9393
13.5909 7.3864 -2.5483 0.9392
13.3275 7.8798 -2.5506 0.9392
13.0462 8.3639 -2.5530 0.9391
12.7473 8.8380 -2.5553 0.9391
11.7332 10.1799 -2.5590 0.9390
10.5469 9.8406 -2.3763 0.9432
10.1080 10.1386 -2.3585 0.9436
9.7162 10.4767 -2.3539 0.9437
8.9171 11.1294 -2.3494 0.9438
7.8296 11.3660 -2.2737 0.9456
6.6150 11.2657 -2.1522 0.9484
6.0754 11.2596 -2.1077 0.9495
5.5570 11.2537 -2.0676 0.9504
5.0573 11.2479 -2.0317 0.9512
3.6877 11.3508 -1.9661 0.9528
3.2750 11.4757 -1.9660 0.9528
4.8243 -12.4285 -2.5059 0.9472
5.2703 -12.2466 -2.5060 0.9472
6.5652 -11.6058 -2.5063 0.9472
6.9804 -11.3613 -2.5063 0.9472
7.7829 -10.8283 -2.5065 0.9472
8.1692 -10.5403 -2.5065 0.9472
8.9093 -9.9232 -2.5066 0.9472
9.2621 -9.5950 -2.5067 0.9472
9.9310 -8.9014 -2.5067 0.9472
10.2462 -8.5368 -2.5067 0.9472
10.5479 -8.1611 -2.5067 0.9472
10.8358 -7.7747 -2.5067 0.9472
12.6176 -4.3683 -2.5097 0.9471
12.7733 -3.9115 -2.5109 0.9471
13.1424 -2.5105 -2.5149 0.9470
13.3048 -1.5568 -2.5178 0.9469
13.3605 -1.0757 -2.5194 0.9469
13.3807 1.3471 -2.5278 0.9467
13.3328 1.8309 -2.5296 0.9467
13.0853 3.2699 -2.5352 0.9466
12.9685 3.7433 -2.5371 0.9465
12.8347 4.2126 -2.5390 0.9465
12.5166 5.1364 -2.5430 0.9464
12.3326 5.5897 -2.5450 0.9464
12.1323 6.0364 -2.5471 0.9463
11.6928 6.9133 -2.5532 0.9462
11.0733 7.6773 -2.5327 0.9466
10.4076 8.3904 -2.5128 0.9470
9.3996 9.4280 -2.5024 0.9473
8.8934 9.5894 -2.4583 0.9482
7.8153 9.7543 -2.3493 0.9504
6.7126 10.5402 -2.3488 0.9504
6.3269 10.7749 -2.3486 0.9504
5.4053 10.9465 -2.2947 0.9515
4.9192 10.9410 -2.2548 0.9523
4.0586 11.1095 -2.2231 0.9530
3.6491 11.2320 -2.2198 0.9531
4.2890 -11.0494 -2.5054 0.9527
5.4598 -10.5216 -2.5057 0.9527
6.2056 -10.1005 -2.5058 0.9527
6.9191 -9.6264 -2.5059 0.9527
7.5964 -9.1021 -2.5060 0.9527
8.2341 -8.5300 -2.5061 0.9527
9.6331 -6.9118 -2.5062 0.9527
10.3405 -5.8381 -2.5101 0.9526
10.9227 -4.6898 -2.5127 0.9526
11.0894 -4.2938 -2.5136 0.9525
11.5037 -3.0728 -2.5169 0.9525
11.6127 -2.6564 -2.5181 0.9525
11.9323 -0.5279 -2.5247 0.9523
11.9124 1.1993 -2.5308 0.9522
11.8688 1.6298 -2.5324 0.9522
11.5408 3.3312 -2.5391 0.9521
11.4217 3.7489 -2.5411 0.9520
11.2918 4.1638 -2.5440 0.9520
10.2216 6.0435 -2.5100 0.9526
9.9821 6.3996 -2.5064 0.9527
9.2175 7.4310 -2.5027 0.9527
7.7296 8.9634 -2.5019 0.9528
7.4002 9.2362 -2.5017 0.9528
7.0613 9.4969 -2.5015 0.9528
6.5491 9.5070 -2.4403 0.9539
4.1862 10.2891 -2.3480 0.9556
3.8115 10.4329 -2.3479 0.9556
3.8569 -9.9363 -2.5050 0.9571
4.2134 -9.7908 -2.5051 0.9571
4.9097 -9.4615 -2.5052 0.9571
5.5804 -9.0828 -2.5054 0.9571
6.5307 -8.4262 -2.5055 0.9571
7.1223 -7.9329 -2.5056 0.9571
7.6767 -7.3981 -2.5056 0.9571
7.9391 -7.1159 -2.5057 0.9571
8.8813 -5.8983 -2.5057 0.9571
9.0886 -5.5735 -2.5057 0.9571
9.2839 -5.2415 -2.5057 0.9571
9.6380 -4.5574 -2.5056 0.9571
10.1090 -3.4998 -2.5142 0.9570
10.3647 -2.7686 -2.5213 0.9569
10.7476 -0.4754 -2.5284 0.9568
10.7662 -0.0869 -2.5304 0.9567
10.7661 0.3022 -2.5313 0.9567
10.7490 0.6910 -2.5315 0.9567
10.6519 1.4627 -2.5269 0.9568
10.4872 2.2215 -2.5194 0.9569
10.1462 3.3302 -2.5097 0.9571
10.0098 3.6911 -2.5074 0.9571
9.8626 4.0473 -2.5055 0.9571
8.9658 5.7480 -2.5030 0.9572
8.5263 6.3796 -2.5027 0.9572
8.0425 6.9778 -2.5024 0.9572
7.5167 7.5394 -2.5021 0.9572
7.2390 7.8056 -2.5020 0.9572
6.0378 8.7647 -2.5014 0.9572
5.7168 8.9766 -2.5012 0.9572
5.3884 9.1767 -2.5011 0.9572
5.0531 9.3648 -2.5009 0.9572
4.6575 9.4320 -2.4723 0.9577
4.2375 9.4247 -2.4286 0.9584
3.4396 9.4150 -2.3558 0.9596
3.0868 9.5010 -2.3479 0.9598
1.4051 4.9237 -1.2034 0.9792
3.8241 -8.8860 -2.5047 0.9608
4.1427 -8.7423 -2.5048 0.9608
4.7634 -8.4208 -2.5049 0.9608
5.0646 -8.2434 -2.5050 0.9608
6.4641 -7.1996 -2.5052 0.9608
6.7200 -6.9615 -2.5052 0.9608
6.9672 -6.7143 -2.5053 0.9608
7.2052 -6.4582 -2.5053 0.9608
7.6528 -5.9212 -2.5053 0.9608
8.2485 -5.0584 -2.5053 0.9608
9.0228 -3.4937 -2.5052 0.9608
9.1430 -3.1654 -2.5051 0.9608
9.3474 -2.4968 -2.5051 0.9608
9.4313 -2.1575 -2.5050 0.9608
9.5624 -1.4708 -2.5050 0.9608
9.6443 -0.7766 -2.5052 0.9608
9.6715 0.2715 -2.5051 0.9608
9.6550 0.6207 -2.5050 0.9608
9.5838 1.3161 -2.5047 0.9608
9.3823 2.3445 -2.5039 0.9608
9.2911 2.6818 -2.5038 0.9608
8.6559 4.3068 -2.5033 0.9608
8.4942 4.6164 -2.5031 0.9608
8.3215 4.9200 -2.5030 0.9608
7.5245 6.0661 -2.5025 0.9609
6.0414 7.5402 -2.5017 0.9609
5.7647 7.7532 -2.5015 0.9609
5.4806 7.9559 -2.5014 0.9609
5.1893 8.1482 -2.5012 0.9609
4.2765 8.6604 -2.5008 0.9609
1.3805 4.2491 -1.1568 0.9817
3.7886 -7.9948 -2.5045 0.9639
4.0750 -7.8529 -2.5046 0.9639
4.6316 -7.5385 -2.5047 0.9639
4.9010 -7.3664 -2.5047 0.9639
5.1640 -7.1846 -2.5048 0.9639
5.9113 -6.5840 -2.5049 0.9639
6.1454 -6.3662 -2.5049 0.9639
6.5891 -5.9060 -2.5049 0.9639
6.7982 -5.6641 -2.5050 0.9639
8.1305 -3.4910 -2.5049 0.9639
8.4602 -2.5907 -2.5048 0.9639
8.5481 -2.2833 -2.5047 0.9639
8.6248 -1.9730 -2.5047 0.9639
8.7444 -1.3450 -2.5046 0.9639
8.7871 -1.0282 -2.5045 0.9639
8.8183 -0.7100 -2.5045 0.9639
8.8460 -0.0715 -2.5043 0.9639
8.8275 0.5675 -2.5042 0.9639
8.7629 1.2033 -2.5040 0.9639
8.6526 1.8328 -2.5038 0.9639
8.4024 2.7579 -2.5035 0.9639
8.2970 3.0595 -2.5034 0.9639
7.9162 3.9387 -2.5031 0.9639
7.6105 4.4996 -2.5029 0.9639
7.2650 5.0370 -2.5026 0.9639
6.2401 6.2589 -2.5020 0.9639
6.0096 6.4799 -2.5019 0.9639
5.2724 7.0910 -2.5015 0.9639
4.7461 7.4525 -2.5013 0.9639
4.4736 7.6187 -2.5011 0.9639
4.1952 7.7749 -2.5010 0.9639
3.9114 7.9211 -2.5009 0.9639
1.9600 4.8176 -1.4724 0.9786
1.4679 4.0180 -1.2110 0.9824
1.1357 3.9794 -1.1715 0.9829
3.7502 -7.2271 -2.5043 0.9665
4.0090 -7.0870 -2.5044 0.9665
4.5104 -6.7793 -2.5045 0.9665
4.7524 -6.6120 -2.5045 0.9665
6.2563 -5.2126 -2.5047 0.9665
6.6164 -4.7472 -2.5047 0.9665
6.7836 -4.5051 -2.5047 0.9665
7.0911 -4.0035 -2.5047 0.9665
7.3616 -3.4810 -2.5046 0.9665
7.5936 -2.9403 -2.5046 0.9665
7.6947 -2.6640 -2.5046 0.9665
7.7858 -2.3842 -2.5045 0.9665
7.9374 -1.8157 -2.5044 0.9665
7.9977 -1.5278 -2.5044 0.9665
8.1336 -0.3598 -2.5042 0.9665
8.1411 -0.0657 -2.5041 0.9665
8.1379 0.2284 -2.5040 0.9665
8.1241 0.5222 -2.5040 0.9665
7.9631 1.6868 -2.5036 0.9665
7.8967 1.9733 -2.5035 0.9665
7.6360 2.8158 -2.5033 0.9665
7.5290 3.0897 -2.5032 0.9665
7.1497 3.8856 -2.5029 0.9665
6.8498 4.3914 -2.5027 0.9665
6.3337 5.1061 -2.5023 0.9665
6.1448 5.3313 -2.5022 0.9665
5.7432 5.7606 -2.5020 0.9665
4.1175 7.0123 -2.5012 0.9665
1.9206 4.2717 -1.4406 0.9806
1.6153 3.9704 -1.3184 0.9822
1.4474 3.9618 -1.2973 0.9825
1.1236 3.9371 -1.2593 0.9830
2.7258 -7.0224 -2.5040 0.9687
2.9778 -6.9195 -2.5040 0.9687
3.2259 -6.8076 -2.5041 0.9687
3.4698 -6.6867 -2.5041 0.9687
3.7092 -6.5571 -2.5042 0.9687
3.9438 -6.4189 -2.5042 0.9687
4.1731 -6.2723 -2.5043 0.9687
4.6153 -5.9548 -2.5043 0.9687
4.8275 -5.7843 -2.5044 0.9687
5.4251 -5.2282 -2.5044 0.9687
5.6105 -5.0287 -2.5044 0.9687
5.9589 -4.6105 -2.5044 0.9687
6.4227 -3.9388 -2.5044 0.9687
6.5609 -3.7041 -2.5044 0.9687
6.8111 -3.2206 -2.5044 0.9687
6.9230 -2.9725 -2.5044 0.9687
7.0258 -2.7204 -2.5044 0.9687
7.1193 -2.4648 -2.5043 0.9687
7.2037 -2.2059 -2.5043 0.9687
7.4458 -1.1453 -2.5041 0.9687
7.5087 -0.6046 -2.5040 0.9687
7.5295 0.2113 -2.5038 0.9687
7.4942 0.7544 -2.5037 0.9687
7.3679 1.5607 -2.5035 0.9688
7.3065 1.8258 -2.5034 0.9688
7.1551 2.3484 -2.5032 0.9688
6.9663 2.8588 -2.5030 0.9688
6.7412 3.3541 -2.5029 0.9688
6.3380 4.0632 -2.5026 0.9688
6.1868 4.2894 -2.5025 0.9688
6.0276 4.5100 -2.5024 0.9688
5.6857 4.9330 -2.5022 0.9688
5.5035 5.1350 -2.5020 0.9688
5.1179 5.5185 -2.5018 0.9688
4.9150 5.6996 -2.5017 0.9688
4.2690 6.1971 -2.5014 0.9688
4.0421 6.3470 -2.5013 0.9688
3.8093 6.4885 -2.5012 0.9688
1.7718 3.9406 -1.4362 0.9820
1.6013 3.9358 -1.4124 0.9822
1.3977 3.8259 -1.3539 0.9830
1.2668 3.8992 -1.3628 0.9829
1.1113 3.8940 -1.3461 0.9831
2.5336 -6.5271 -2.5038 0.9707
2.7678 -6.4314 -2.5038 0.9707
2.9984 -6.3274 -2.5039 0.9707
3.2251 -6.2150 -2.5039 0.9707
3.8787 -5.8299 -2.5041 0.9707
4.2897 -5.5347 -2.5041 0.9707
4.8635 -5.0383 -2.5042 0.9707
5.3801 -4.4826 -2.5042 0.9707
5.8335 -3.8741 -2.5042 0.9707
5.9696 -3.6609 -2.5042 0.9707
6.2183 -3.2202 -2.5042 0.9707
6.3306 -2.9935 -2.5042 0.9707
6.4346 -2.7628 -2.5042 0.9707
6.5301 -2.5285 -2.5041 0.9707
6.6955 -2.0503 -2.5041 0.9707
6.9543 -0.8137 -2.5039 0.9707
6.9791 -0.5619 -2.5038 0.9707
7.0011 -0.0565 -2.5037 0.9707
6.9984 0.1964 -2.5037 0.9707
6.9866 0.4491 -2.5036 0.9707
6.9656 0.7012 -2.5035 0.9707
6.7912 1.6970 -2.5033 0.9707
6.6505 2.1828 -2.5031 0.9707
6.3746 2.8893 -2.5028 0.9707
6.2659 3.1176 -2.5028 0.9707
6.1489 3.3418 -2.5027 0.9707
6.0240 3.5616 -2.5026 0.9707
5.8911 3.7768 -2.5025 0.9707
5.6026 4.1920 -2.5023 0.9707
5.4473 4.3915 -2.5022 0.9707
4.9396 4.9545 -2.5019 0.9707
4.7572 5.1295 -2.5018 0.9707
4.5686 5.2978 -2.5017 0.9707
4.3740 5.4592 -2.5016 0.9707
4.1738 5.6135 -2.5015 0.9707
2.1380 3.9624 -1.6101 0.9811
1.9407 3.9302 -1.5675 0.9816
1.7569 3.9076 -1.5321 0.9820
1.4153 3.8741 -1.4750 0.9826
1.2549 3.8627 -1.4524 0.9829
2.3641 -6.0905 -2.5036 0.9724
2.5826 -6.0012 -2.5037 0.9724
2.7978 -5.9041 -2.5037 0.9724
3.4203 -5.5670 -2.5038 0.9724
3.6193 -5.4399 -2.5039 0.9724
4.0027 -5.1645 -2.5039 0.9724
4.1867 -5.0166 -2.5040 0.9724
4.8658 -4.3613 -2.5040 0.9724
5.1679 -3.9986 -2.5041 0.9724
5.3091 -3.8093 -2.5041 0.9724
5.5703 -3.4160 -2.5040 0.9724
5.6900 -3.2125 -2.5040 0.9724
5.9071 -2.7932 -2.5040 0.9724
6.0041 -2.5779 -2.5040 0.9724
6.3125 -1.6862 -2.5039 0.9724
6.3692 -1.4570 -2.5039 0.9724
6.4176 -1.2260 -2.5038 0.9724
6.4891 -0.7593 -2.5037 0.9724
6.5268 -0.2887 -2.5036 0.9724
6.5303 0.1833 -2.5035 0.9724
6.4997 0.6543 -2.5034 0.9724
6.4717 0.8887 -2.5033 0.9724
6.4352 1.1219 -2.5033 0.9724
6.2755 1.8114 -2.5031 0.9724
6.2058 2.0369 -2.5030 0.9724
6.1279 2.2597 -2.5029 0.9724
6.0421 2.4795 -2.5028 0.9724
5.9484 2.6961 -2.5028 0.9724
5.7378 3.1184 -2.5026 0.9724
5.4973 3.5243 -2.5024 0.9724
5.2281 3.9118 -2.5022 0.9724
4.6094 4.6234 -2.5019 0.9724
4.0817 5.0944 -2.5016 0.9724
3.8949 5.2383 -2.5015 0.9724
3.7029 5.3754 -2.5014 0.9724
2.3408 3.9865 -1.7716 0.9804
2.1190 3.9271 -1.7101 0.9811
1.5801 3.8837 -1.6068 0.9822
2.6195 -5.5279 -2.5036 0.9739
3.2024 -5.2123 -2.5037 0.9739
3.3886 -5.0932 -2.5037 0.9739
3.5705 -4.9676 -2.5038 0.9739
3.9199 -4.6969 -2.5038 0.9739
4.0871 -4.5522 -2.5038 0.9739
4.2489 -4.4016 -2.5038 0.9739
4.8387 -3.7438 -2.5039 0.9739
5.0963 -3.3846 -2.5039 0.9739
5.2153 -3.1983 -2.5039 0.9739
5.3274 -3.0078 -2.5039 0.9739
5.5306 -2.6152 -2.5038 0.9739
5.6215 -2.4137 -2.5038 0.9739
5.7050 -2.2090 -2.5038 0.9739
5.9103 -1.5787 -2.5037 0.9739
6.0087 -1.1478 -2.5037 0.9739
6.0973 -0.4909 -2.5035 0.9739
6.1166 -0.0494 -2.5034 0.9739
6.1142 0.1716 -2.5034 0.9739
6.0856 0.6126 -2.5033 0.9739
6.0594 0.8321 -2.5032 0.9739
6.0252 1.0504 -2.5032 0.9739
5.9832 1.2674 -2.5031 0.9739
5.9333 1.4826 -2.5030 0.9739
5.8757 1.6960 -2.5030 0.9739
5.8104 1.9071 -2.5029 0.9739
5.7376 2.1157 -2.5028 0.9739
5.6572 2.3215 -2.5027 0.9739
5.4745 2.7238 -2.5026 0.9739
5.3723 2.9197 -2.5025 0.9739
5.1472 3.2998 -2.5024 0.9739
5.0244 3.4835 -2.5023 0.9739
4.8951 3.6626 -2.5022 0.9739
4.7595 3.8370 -2.5021 0.9739
4.1566 4.4819 -2.5018 0.9739
3.9918 4.6289 -2.5017 0.9739
3.6469 4.9048 -2.5015 0.9739
2.3169 3.9458 -1.8727 0.9804
2.1128 3.9157 -1.8210 0.9810
1.7508 3.8940 -1.7474 0.9817
1.4091 3.8571 -1.6806 0.9824
1.2471 3.8386 -1.6519 0.9827
1.0906 3.8215 -1.6265 0.9830
2.4599 -5.1910 -2.5035 0.9752
2.6458 -5.0988 -2.5035 0.9752
2.8284 -5.0000 -2.5035 0.9752
3.0072 -4.8946 -2.5036 0.9752
3.1821 -4.7828 -2.5036 0.9752
3.3528 -4.6648 -2.5036 0.9752
3.5192 -4.5406 -2.5036 0.9752
3.6810 -4.4106 -2.5037 0.9752
4.2780 -3.8345 -2.5037 0.9752
4.4137 -3.6774 -2.5037 0.9752
4.7857 -3.1783 -2.5037 0.9752
4.8974 -3.0033 -2.5037 0.9752
5.0027 -2.8245 -2.5037 0.9752
5.1935 -2.4558 -2.5037 0.9752
5.2788 -2.2666 -2.5037 0.9752
5.4286 -1.8794 -2.5036 0.9752
5.5500 -1.4825 -2.5036 0.9752
5.5999 -1.2810 -2.5036 0.9752
5.6424 -1.0779 -2.5035 0.9752
5.6776 -0.8733 -2.5035 0.9752
5.7053 -0.6676 -2.5035 0.9752
5.7385 -0.2539 -2.5034 0.9752
5.7438 -0.0464 -2.5033 0.9752
5.7319 0.3685 -2.5032 0.9752
5.6580 0.9864 -2.5031 0.9753
5.6186 1.1901 -2.5030 0.9753
5.4564 1.7909 -2.5028 0.9753
5.3880 1.9868 -2.5027 0.9753
5.2302 2.3705 -2.5026 0.9753
5.1409 2.5579 -2.5025 0.9753
4.9425 2.9222 -2.5024 0.9753
4.5969 3.4395 -2.5021 0.9753
4.4695 3.6032 -2.5021 0.9753
4.3363 3.7622 -2.5020 0.9753
4.1974 3.9163 -2.5019 0.9753
4.0530 4.0653 -2.5018 0.9753
3.9034 4.2089 -2.5017 0.9753
3.7487 4.3470 -2.5017 0.9753
2.2768 3.8775 -1.9597 0.9806
2.0801 3.8551 -1.9091 0.9811
1.9283 3.9051 -1.8981 0.9812
1.4061 3.8490 -1.7859 0.9823
1.2445 3.8306 -1.7553 0.9826
1.0882 3.8131 -1.7282 0.9828
1.9569 -5.0415 -2.5033 0.9764
3.1566 -4.3918 -2.5035 0.9764
3.6133 -4.0246 -2.5036 0.9764
3.7564 -3.8914 -2.5036 0.9764
4.0276 -3.6101 -2.5036 0.9764
4.1554 -3.4622 -2.5036 0.9764
4.7099 -2.6591 -2.5036 0.9764
4.8029 -2.4872 -2.5036 0.9764
4.8895 -2.3121 -2.5036 0.9764
4.9699 -2.1339 -2.5036 0.9764
5.0437 -1.9529 -2.5035 0.9764
5.1109 -1.7695 -2.5035 0.9764
5.1714 -1.5836 -2.5035 0.9764
5.2722 -1.2061 -2.5034 0.9764
5.3122 -1.0148 -2.5034 0.9764
5.3453 -0.8222 -2.5034 0.9764
5.4027 -0.2390 -2.5033 0.9764
5.3965 0.3469 -2.5031 0.9764
5.3804 0.5416 -2.5031 0.9764
5.2898 1.1205 -2.5029 0.9764
5.2458 1.3109 -2.5028 0.9764
5.1948 1.4995 -2.5028 0.9764
5.0017 2.0525 -2.5026 0.9765
4.9242 2.2318 -2.5025 0.9765
4.6534 2.7513 -2.5023 0.9765
4.5508 2.9175 -2.5023 0.9765
4.4423 3.0800 -2.5022 0.9765
4.3281 3.2383 -2.5021 0.9765
4.2081 3.3925 -2.5020 0.9765
4.0827 3.5422 -2.5020 0.9765
3.8160 3.8275 -2.5018 0.9765
3.6751 3.9628 -2.5017 0.9765
3.2245 4.3367 -2.5015 0.9765
3.0656 4.4502 -2.5014 0.9765
2.9028 4.5580 -2.5013 0.9765
2.0818 3.8582 -2.0293 0.9809
1.8928 3.8331 -1.9788 0.9813
1.7434 3.8777 -1.9680 0.9814
1.4041 3.8434 -1.8941 0.9821
2.0173 -4.6875 -2.5032 0.9775
2.5127 -4.4419 -2.5033 0.9775
2.8269 -4.2489 -2.5034 0.9775
2.9789 -4.1441 -2.5034 0.9775
3.1264 -4.0338 -2.5034 0.9775
3.4096 -3.7976 -2.5034 0.9775
3.6749 -3.5415 -2.5035 0.9775
3.9211 -3.2669 -2.5035 0.9775
4.0366 -3.1232 -2.5035 0.9775
4.1467 -2.9753 -2.5035 0.9775
4.2515 -2.8236 -2.5035 0.9775
4.4443 -2.5092 -2.5035 0.9775
4.6138 -2.1817 -2.5035 0.9775
4.6896 -2.0136 -2.5034 0.9775
4.7593 -1.8428 -2.5034 0.9775
4.8798 -1.4944 -2.5034 0.9775
4.9306 -1.3170 -2.5034 0.9775
4.9749 -1.1380 -2.5033 0.9775
5.0127 -0.9576 -2.5033 0.9775
5.0686 -0.5931 -2.5032 0.9775
5.0867 -0.4096 -2.5032 0.9775
5.1028 -0.0412 -2.5031 0.9775
5.0922 0.3273 -2.5030 0.9775
5.0770 0.5111 -2.5030 0.9775
5.0551 0.6942 -2.5029 0.9775
4.9500 1.2370 -2.5028 0.9775
4.6466 2.1061 -2.5025 0.9775
4.5674 2.2725 -2.5024 0.9775
4.3911 2.5962 -2.5023 0.9775
4.2943 2.7531 -2.5022 0.9775
3.8526 3.3426 -2.5019 0.9775
3.6010 3.6118 -2.5018 0.9775
3.3306 3.8622 -2.5016 0.9775
3.1888 3.9799 -2.5016 0.9775
3.0428 4.0923 -2.5015 0.9775
1.8936 3.8348 -2.0979 0.9811
1.7395 3.8690 -2.0808 0.9813
1.5737 3.8680 -2.0483 0.9816
1.4045 3.8445 -2.0077 0.9819
1.0862 3.8062 -1.9416 0.9825
1.7459 -4.4979 -2.5031 0.9785
2.0662 -4.3603 -2.5031 0.9785
2.2224 -4.2829 -2.5032 0.9785
2.3757 -4.1998 -2.5032 0.9785
2.5259 -4.1113 -2.5032 0.9785
2.6728 -4.0174 -2.5033 0.9785
2.9560 -3.8140 -2.5033 0.9785
3.2237 -3.5906 -2.5033 0.9785
3.5933 -3.2208 -2.5034 0.9785
3.8165 -2.9529 -2.5034 0.9785
4.0198 -2.6697 -2.5034 0.9785
4.1136 -2.5227 -2.5034 0.9785
4.4340 -1.9038 -2.5033 0.9785
4.4999 -1.7424 -2.5033 0.9785
4.5598 -1.5787 -2.5033 0.9785
4.6618 -1.2453 -2.5033 0.9785
4.8229 0.1354 -2.5030 0.9785
4.8003 0.4832 -2.5029 0.9785
4.7527 0.8286 -2.5028 0.9785
4.6803 1.1696 -2.5027 0.9785
4.5834 1.5044 -2.5026 0.9785
4.5260 1.6689 -2.5025 0.9785
4.4626 1.8313 -2.5025 0.9785
4.3934 1.9913 -2.5024 0.9785
4.3185 2.1487 -2.5024 0.9785
4.0604 2.6031 -2.5022 0.9785
3.8616 2.8893 -2.5020 0.9785
3.6427 3.1604 -2.5019 0.9785
3.5261 3.2899 -2.5018 0.9785
3.1492 3.6518 -2.5016 0.9785
3.0151 3.7631 -2.5016 0.9785
2.8771 3.8695 -2.5015 0.9785
2.5900 4.0669 -2.5014 0.9785
2.2777 3.8789 -2.3336 0.9799
2.0825 3.8595 -2.2751 0.9804
1.7745 3.9468 -2.2449 0.9807
1.5748 3.8707 -2.1679 0.9813
1.8065 -4.1978 -2.5030 0.9794
2.2502 -3.9779 -2.5031 0.9794
2.3925 -3.8940 -2.5031 0.9794
2.5316 -3.8051 -2.5032 0.9794
2.6674 -3.7112 -2.5032 0.9794
3.2910 -3.1715 -2.5033 0.9794
3.4034 -3.0506 -2.5033 0.9794
3.6148 -2.7969 -2.5033 0.9794
3.8073 -2.5286 -2.5033 0.9794
3.8962 -2.3894 -2.5033 0.9794
3.9800 -2.2471 -2.5033 0.9794
4.1997 -1.8032 -2.5032 0.9794
4.3189 -1.4953 -2.5032 0.9794
4.3700 -1.3382 -2.5032 0.9794
4.4552 -1.0192 -2.5031 0.9794
4.4890 -0.8575 -2.5031 0.9794
4.5391 -0.5311 -2.5030 0.9794
4.5655 -0.2020 -2.5030 0.9794
4.5697 -0.0369 -2.5029 0.9794
4.5680 0.1282 -2.5029 0.9794
4.5603 0.2931 -2.5029 0.9794
4.5271 0.6217 -2.5028 0.9794
4.4702 0.9469 -2.5027 0.9794
4.4330 1.1078 -2.5026 0.9794
4.3900 1.2671 -2.5026 0.9794
4.3412 1.4249 -2.5025 0.9794
4.2869 1.5808 -2.5025 0.9794
4.2269 1.7346 -2.5024 0.9794
4.1613 1.8861 -2.5024 0.9794
4.0904 2.0351 -2.5023 0.9794
3.9326 2.3251 -2.5022 0.9794
3.7542 2.6028 -2.5021 0.9794
3.5563 2.8670 -2.5019 0.9794
3.4503 2.9935 -2.5019 0.9794
3.3398 3.1161 -2.5018 0.9794
2.9829 3.4589 -2.5016 0.9794
2.7251 3.6651 -2.5015 0.9794
2.5909 3.7611 -2.5014 0.9794
2.4533 3.8521 -2.5014 0.9794
2.0810 3.8567 -2.4002 0.9802
1.8726 4.1649 -2.5011 0.9794
1.5763 3.8743 -2.2909 0.9811
1.4047 3.8451 -2.2421 0.9815
1.9968 -3.8481 -2.5030 0.9802
2.2695 -3.6939 -2.5030 0.9802
2.4015 -3.6096 -2.5031 0.9802
2.6559 -3.4268 -2.5031 0.9802
3.0111 -3.1194 -2.5032 0.9802
3.2285 -2.8938 -2.5032 0.9802
3.5227 -2.5275 -2.5032 0.9802
3.7754 -2.1316 -2.5032 0.9802
4.1455 -1.2695 -2.5031 0.9802
4.2584 -0.8135 -2.5030 0.9802
4.3059 -0.5039 -2.5030 0.9802
4.3212 -0.3480 -2.5029 0.9802
4.3350 -0.0350 -2.5029 0.9802
4.3131 0.4342 -2.5028 0.9802
4.2053 1.0508 -2.5026 0.9802
4.1183 1.3517 -2.5025 0.9802
3.9476 1.7892 -2.5023 0.9802
3.6484 2.3389 -2.5021 0.9802
3.3737 2.7198 -2.5019 0.9802
3.2731 2.8398 -2.5019 0.9802
2.7092 3.3813 -2.5016 0.9802
2.5852 3.4769 -2.5015 0.9802
2.0572 3.8126 -2.5012 0.9802
1.7765 3.9510 -2.5011 0.9802
1.4864 4.0688 -2.5010 0.9802
1.3385 4.1197 -2.5009 0.9802
1.1887 4.1653 -2.5009 0.9802
