ply
format ascii 1.0
element vertex 1012
property float32 x
property float32 y
property float32 z
property float32 I
end_header
-8.3504 -37.8930 6.8419 0.8542
-7.2969 -39.8608 7.1453 0.8482
-4.3602 -39.7103 7.0441 0.8502
-0.0722 -39.6616 6.9934 0.8512
2.7736 -39.6292 7.0048 0.8510
4.2160 -39.7297 7.0447 0.8502
6.7444 -37.6140 6.7381 0.8562
7.9611 -36.7625 6.6325 0.8583
12.4215 -37.3824 6.9459 0.8521
13.2534 -35.5716 6.6934 0.8571
14.5786 -35.2160 6.7206 0.8566
7.2946 -15.9754 3.0967 0.9312
19.2815 -35.2913 7.0910 0.8493
19.2632 -32.4379 6.6522 0.8579
20.8178 -32.3552 6.7840 0.8553
22.5652 -32.4529 6.9696 0.8517
22.6409 -30.1926 6.6543 0.8579
24.3635 -30.1730 6.8382 0.8543
24.6369 -28.3681 6.6251 0.8585
27.8072 -25.8083 6.6895 0.8572
29.9956 -25.9017 6.9880 0.8513
30.6584 -24.6122 6.9324 0.8524
34.6838 -25.8556 7.6280 0.8389
31.1657 -19.9279 6.5227 0.8605
32.2682 -19.0390 6.6063 0.8588
42.5459 -23.0888 8.5355 0.8215
29.2505 14.8829 5.7869 0.8752
8.2871 -38.2676 5.9983 0.8535
7.8194 -26.6939 4.2612 0.8935
17.2434 -41.6531 6.9062 0.8332
19.7449 -39.4362 6.7563 0.8365
21.5350 -39.4159 6.8807 0.8338
24.6514 -35.4532 6.6151 0.8397
26.3079 -35.0826 6.7177 0.8374
28.4133 -35.1885 6.9286 0.8328
30.3948 -30.3088 6.5757 0.8405
30.1978 -26.0762 6.1122 0.8509
30.2552 -24.2885 5.9437 0.8547
30.7052 -21.2212 5.7180 0.8598
31.1655 -19.9277 5.6670 0.8610
32.2680 -19.0389 5.7396 0.8593
47.3128 8.7999 7.3723 0.8230
32.4806 8.4872 5.1429 0.8730
30.1860 9.0550 4.8279 0.8803
29.2503 14.8828 5.0277 0.8756
8.0888 -37.3522 4.9768 0.8571
8.1788 -32.1502 4.3200 0.8748
7.9786 -27.2373 3.6959 0.8918
23.7644 -20.5209 4.0887 0.8810
31.1653 -19.9276 4.8171 0.8614
34.4327 -18.6858 5.1015 0.8538
45.0895 -18.5165 6.3474 0.8215
41.1840 -11.9373 5.5838 0.8412
40.9824 -7.2283 5.4191 0.8455
40.9176 -5.7133 5.3800 0.8465
40.8536 -4.2181 5.3483 0.8473
40.6650 0.1893 5.2955 0.8487
40.6027 1.6454 5.2917 0.8488
40.4779 4.5607 5.3044 0.8485
38.1095 8.5116 5.0849 0.8543
32.4809 8.4873 4.3717 0.8733
30.1859 9.0550 4.1039 0.8806
29.4004 11.1715 4.0956 0.8809
29.2195 13.5715 4.1954 0.8781
29.2501 14.8827 4.2737 0.8760
29.2128 16.2071 4.3504 0.8739
30.7900 -38.1318 5.2629 0.8211
30.4377 -28.2496 4.4592 0.8461
30.4802 -26.3201 4.3244 0.8504
30.5416 -24.5185 4.2057 0.8542
30.5103 -22.7443 4.0864 0.8580
41.3261 -15.2642 4.7307 0.8376
41.2540 -13.5782 4.6637 0.8397
41.0480 -8.7674 4.5072 0.8446
40.9822 -7.2283 4.4687 0.8458
40.9173 -5.7133 4.4364 0.8469
40.8534 -4.2181 4.4102 0.8477
40.7272 -1.2707 4.3755 0.8488
40.6647 0.1893 4.3667 0.8491
40.6024 1.6454 4.3635 0.8492
40.5401 3.1013 4.3660 0.8491
40.4149 6.0273 4.3878 0.8484
32.4812 8.4873 3.6050 0.8737
30.1858 9.0550 3.3841 0.8809
29.2389 12.3266 3.4073 0.8802
29.2499 14.8826 3.5241 0.8763
29.2126 16.2070 3.5873 0.8742
1.0625 -15.1814 1.2883 0.9407
7.5472 -16.5284 1.5381 0.9297
30.7896 -38.1314 4.1488 0.8214
30.6816 -32.8705 3.8064 0.8349
30.4860 -30.3997 3.6445 0.8413
30.5414 -24.5183 3.3154 0.8545
30.5100 -22.7442 3.2214 0.8583
30.4372 -21.0359 3.1321 0.8620
32.2676 -19.0386 3.1716 0.8604
34.4323 -18.6856 3.3163 0.8545
41.7176 -17.1318 3.8177 0.8344
42.3046 -15.6255 3.8177 0.8344
42.8374 -14.0993 3.8177 0.8344
43.7378 -10.9947 3.8177 0.8344
44.1043 -9.4202 3.8178 0.8344
45.0019 -3.0214 3.8181 0.8344
45.0827 -1.4067 3.8182 0.8344
45.1058 0.2100 3.8184 0.8344
45.0710 1.8265 3.8185 0.8344
44.9787 3.4408 3.8187 0.8344
44.3564 8.2500 3.8193 0.8343
38.1103 8.5118 3.3056 0.8549
32.4813 8.4874 2.8420 0.8739
30.1856 9.0549 2.6678 0.8812
29.6388 10.0621 2.6497 0.8819
29.4001 11.1713 2.6624 0.8814
29.2124 16.2069 2.8280 0.8745
7.5472 -16.5285 1.1267 0.9298
30.7893 -38.1311 3.0391 0.8217
30.7049 -35.3551 2.9038 0.8289
30.6552 -30.5684 2.6845 0.8407
30.6080 -26.4305 2.5077 0.8504
30.5412 -24.5181 2.4286 0.8547
30.4370 -21.0358 2.2943 0.8622
32.2674 -19.0385 2.3232 0.8606
34.4322 -18.6856 2.4293 0.8547
37.3645 -18.5753 2.5875 0.8460
45.0887 -18.5162 3.0225 0.8226
46.2624 8.6045 2.9179 0.8281
38.1107 8.5118 2.4215 0.8551
32.4816 8.4875 2.0818 0.8741
30.1855 9.0549 1.9542 0.8814
29.3999 11.1713 1.9503 0.8816
29.2495 14.8824 2.0351 0.8768
29.2122 16.2068 2.0716 0.8747
8.1091 -24.4043 1.0140 0.9022
7.5473 -16.5286 0.7165 0.9298
30.6811 -32.8700 1.7730 0.8353
30.6305 -28.4287 1.6478 0.8460
30.5096 -22.7438 1.5005 0.8587
30.4368 -21.0356 1.4589 0.8623
32.2672 -19.0384 1.4773 0.8607
37.3643 -18.5752 1.6453 0.8462
40.9598 -18.5629 1.7732 0.8353
38.1111 8.5119 1.5398 0.8553
30.1854 9.0548 1.2426 0.8815
29.3997 11.1712 1.2401 0.8817
29.2384 12.3264 1.2512 0.8807
29.2120 16.2067 1.3173 0.8748
1.0617 -15.1702 0.2569 0.9410
7.6787 -42.8261 0.7350 0.8402
7.1519 -24.4151 0.4297 0.9032
8.1091 -24.4043 0.4344 0.9022
7.5473 -16.5288 0.3069 0.9299
30.7887 -38.1303 0.8278 0.8220
30.7044 -35.3545 0.7910 0.8292
30.6546 -30.5679 0.7313 0.8410
30.6076 -26.4301 0.6831 0.8506
30.0881 -24.1544 0.6518 0.8570
30.5094 -22.7437 0.6428 0.8588
32.2670 -19.0383 0.6329 0.8608
43.5979 -17.9039 0.7961 0.8282
42.9544 -4.4350 0.7294 0.8413
43.6287 8.1146 0.7496 0.8373
29.6384 10.0619 0.5287 0.8823
29.2382 12.3263 0.5360 0.8808
29.2185 13.5711 0.5442 0.8791
29.2491 14.8822 0.5543 0.8770
-4.9948 -22.6654 -0.1307 0.9113
-4.1472 -22.6544 -0.1297 0.9120
-3.3114 -22.6436 -0.1288 0.9125
-1.6661 -22.6222 -0.1277 0.9133
-0.8522 -22.6117 -0.1274 0.9135
1.0615 -15.1664 -0.0856 0.9410
2.3960 -22.5792 -0.1278 0.9132
3.2166 -22.5697 -0.1284 0.9128
4.8849 -22.5577 -0.1299 0.9118
6.6017 -22.5371 -0.1322 0.9103
7.4851 -22.5265 -0.1336 0.9094
8.3889 -22.5156 -0.1353 0.9084
9.3163 -22.5045 -0.1371 0.9072
30.7041 -35.3541 -0.2636 0.8292
30.6805 -32.8694 -0.2531 0.8354
30.6544 -30.5676 -0.2437 0.8410
30.6301 -28.4283 -0.2353 0.8461
30.6073 -26.4298 -0.2277 0.8506
30.0880 -24.1543 -0.2172 0.8570
34.4317 -18.6853 -0.2206 0.8550
37.3639 -18.5751 -0.2349 0.8463
38.9049 -4.0170 -0.2202 0.8552
38.1118 8.5121 -0.2199 0.8554
32.4823 8.4877 -0.1890 0.8743
30.1852 9.0548 -0.1774 0.8816
29.6382 10.0618 -0.1762 0.8823
29.2380 12.3263 -0.1786 0.8808
29.2183 13.5710 -0.1814 0.8791
29.2489 14.8821 -0.1848 0.8770
-4.9949 -22.6657 -0.6535 0.9113
-4.1472 -22.6547 -0.6485 0.9120
-3.3114 -22.6438 -0.6444 0.9125
-0.0412 -22.6085 -0.6366 0.9135
0.7692 -22.5990 -0.6367 0.9135
1.0612 -15.1627 -0.4280 0.9410
2.3961 -22.5801 -0.6394 0.9131
4.0451 -22.5608 -0.6454 0.9124
5.7359 -22.5474 -0.6551 0.9111
8.3889 -22.5156 -0.6766 0.9083
30.6298 -28.4280 -1.1767 0.8460
30.0879 -24.1542 -1.0864 0.8569
32.2667 -19.0381 -1.0549 0.8608
36.1141 -17.9537 -1.1356 0.8510
35.0964 -4.9005 -0.9978 0.8678
43.6297 8.1148 -1.2496 0.8373
36.1081 8.0646 -1.0418 0.8624
30.1851 9.0548 -0.8874 0.8815
29.2378 12.3262 -0.8934 0.8808
29.2181 13.5709 -0.9071 0.8790
29.2115 16.2063 -0.9406 0.8749
-3.3115 -22.6441 -1.1606 0.9124
-1.6662 -22.6229 -1.1504 0.9132
-0.0412 -22.6093 -1.1466 0.9134
1.0609 -15.1590 -0.7707 0.9410
2.3961 -22.5809 -1.1516 0.9131
4.8849 -22.5576 -1.1705 0.9117
5.7359 -22.5473 -1.1799 0.9110
7.4850 -22.5263 -1.2038 0.9093
8.3889 -22.5155 -1.2185 0.9083
23.7473 -43.4651 -2.5118 0.8201
26.8066 -41.6629 -2.5125 0.8200
20.1235 -23.1712 -1.5564 0.8843
30.6538 -30.5671 -2.1954 0.8408
28.6353 -22.9880 -1.8623 0.8632
30.5087 -22.7432 -1.9298 0.8586
34.4314 -18.6852 -1.9867 0.8548
36.1139 -17.9536 -2.0453 0.8508
48.8438 -8.6148 -2.5153 0.8198
34.9343 -4.8779 -1.7889 0.8683
49.5648 -1.5465 -2.5149 0.8199
49.5853 0.2309 -2.5147 0.8199
46.0413 6.8664 -2.3608 0.8299
43.6303 8.1149 -2.2506 0.8372
36.1085 8.0647 -1.8763 0.8623
32.4828 8.4878 -1.7026 0.8742
29.6379 10.0617 -1.5873 0.8822
29.2113 16.2062 -1.6941 0.8748
-4.9950 -22.6663 -1.7018 0.9111
-4.1473 -22.6553 -1.6887 0.9118
-2.4852 -22.6337 -1.6695 0.9127
-1.6662 -22.6231 -1.6633 0.9130
-0.0412 -22.6101 -1.6578 0.9133
1.0607 -15.1553 -1.1139 0.9409
3.2169 -22.5721 -1.6718 0.9126
4.0454 -22.5625 -1.6807 0.9122
5.7359 -22.5473 -1.7059 0.9109
6.6017 -22.5369 -1.7219 0.9101
7.4850 -22.5263 -1.7405 0.9092
8.3888 -22.5154 -1.7617 0.9081
9.3162 -22.5043 -1.7859 0.9069
7.5476 -16.5293 -1.3323 0.9297
11.6918 -23.3520 -1.9148 0.9006
12.6524 -23.1580 -1.9349 0.8996
13.7416 -23.1398 -1.9733 0.8977
17.3064 -23.0787 -2.1151 0.8907
21.5035 -26.6309 -2.5097 0.8717
21.4693 -23.0010 -2.3070 0.8814
23.0364 -22.9712 -2.3853 0.8777
25.0947 -23.2909 -2.5104 0.8717
25.9147 -22.3777 -2.5105 0.8717
28.8513 -18.4480 -2.5109 0.8717
30.1004 -16.3348 -2.5111 0.8717
30.6671 -15.2458 -2.5111 0.8717
31.1942 -14.1372 -2.5112 0.8717
31.6812 -13.0102 -2.5112 0.8717
32.8946 -9.5346 -2.5112 0.8717
33.4924 -7.1537 -2.5111 0.8717
33.9173 -4.7359 -2.5110 0.8717
34.2263 -1.0679 -2.5108 0.8717
34.1384 2.6115 -2.5104 0.8717
33.6548 6.2596 -2.5100 0.8717
31.3713 7.0066 -2.3569 0.8790
30.1849 9.0547 -2.3107 0.8813
27.6171 12.8272 -2.2327 0.8850
26.7389 14.8345 -2.2421 0.8846
-4.9951 -22.6665 -2.2283 0.9109
-4.1474 -22.6556 -2.2112 0.9116
-0.0412 -22.6110 -2.1708 0.9131
1.0604 -15.1515 -1.4582 0.9408
2.3963 -22.5825 -2.1802 0.9128
4.0456 -22.5633 -2.2007 0.9120
4.8849 -22.5574 -2.2158 0.9114
5.7358 -22.5472 -2.2336 0.9107
6.6016 -22.5368 -2.2546 0.9099
8.3888 -22.5154 -2.3067 0.9080
9.3162 -22.5042 -2.3383 0.9068
7.5476 -16.5294 -1.7445 0.9296
10.9967 -21.9635 -2.3581 0.9060
14.1317 -21.9635 -2.5074 0.9004
15.6706 -20.8973 -2.5077 0.9004
16.4104 -20.3234 -2.5078 0.9004
17.1291 -19.7233 -2.5079 0.9003
17.8259 -19.0977 -2.5081 0.9003
18.4998 -18.4474 -2.5082 0.9003
19.7754 -17.0763 -2.5084 0.9003
20.3755 -16.3572 -2.5085 0.9003
20.9493 -15.6170 -2.5086 0.9003
22.5063 -13.2792 -2.5088 0.9003
22.9682 -12.4643 -2.5088 0.9003
24.1743 -9.9274 -2.5089 0.9003
24.5146 -9.0547 -2.5089 0.9003
25.5564 -5.4586 -2.5089 0.9003
25.7353 -4.5391 -2.5088 0.9003
25.9933 -2.6838 -2.5087 0.9003
26.0721 -1.7504 -2.5087 0.9003
26.1289 0.1217 -2.5085 0.9003
26.1068 1.0580 -2.5084 0.9003
26.0511 1.9929 -2.5083 0.9003
25.9618 2.9252 -2.5082 0.9003
25.3084 6.6131 -2.5113 0.9002
25.0934 7.5274 -2.5151 0.9001
24.8212 8.4265 -2.5165 0.9000
24.4216 9.2796 -2.5081 0.9003
23.9799 10.1095 -2.4984 0.9007
23.4165 10.8763 -2.4788 0.9014
-3.5665 -19.4825 -2.3527 0.9233
-2.8663 -19.6004 -2.3530 0.9233
-2.1623 -19.6930 -2.3533 0.9233
-1.4553 -19.7601 -2.3536 0.9233
-0.7462 -19.8017 -2.3538 0.9233
-0.0361 -19.8176 -2.3541 0.9233
0.6743 -19.8079 -2.3543 0.9233
1.0469 -14.9588 -1.7812 0.9414
2.0917 -19.7114 -2.3546 0.9233
2.7970 -19.6248 -2.3547 0.9233
4.1959 -19.3755 -2.3549 0.9232
6.2515 -18.8138 -2.3550 0.9232
6.9217 -18.5775 -2.3549 0.9232
8.8748 -17.7256 -2.3547 0.9233
10.1378 -17.0713 -2.3584 0.9231
12.6594 -16.8818 -2.5065 0.9185
13.8374 -15.9330 -2.5067 0.9185
14.4001 -15.4275 -2.5068 0.9185
14.9444 -14.9021 -2.5069 0.9185
15.9746 -13.7942 -2.5071 0.9185
16.4592 -13.2132 -2.5072 0.9185
17.3643 -12.0009 -2.5073 0.9185
17.7836 -11.3711 -2.5074 0.9185
19.5272 -8.0190 -2.5075 0.9185
20.2754 -5.8764 -2.5075 0.9185
20.4726 -5.1464 -2.5075 0.9185
20.6424 -4.4110 -2.5075 0.9185
20.7882 -3.6665 -2.5075 0.9185
20.9060 -2.9191 -2.5074 0.9185
20.9968 -2.1679 -2.5074 0.9185
21.0573 -1.4139 -2.5069 0.9185
21.0407 1.6096 -2.5066 0.9185
20.9692 2.3626 -2.5066 0.9185
20.6676 4.6160 -2.5155 0.9182
20.5139 5.3603 -2.5186 0.9181
20.3337 6.0996 -2.5217 0.9180
20.1272 6.8329 -2.5249 0.9179
19.8946 7.5595 -2.5281 0.9178
19.3517 8.9882 -2.5346 0.9176
-3.5690 -16.1953 -2.3498 0.9352
-2.9864 -16.3140 -2.3499 0.9352
-2.4001 -16.4121 -2.3501 0.9352
-1.8105 -16.4893 -2.3504 0.9352
-1.2185 -16.5452 -2.3506 0.9352
-0.6248 -16.5797 -2.3508 0.9352
0.5645 -16.5844 -2.3512 0.9352
2.3417 -16.4306 -2.3516 0.9351
2.9292 -16.3367 -2.3516 0.9351
3.5129 -16.2217 -2.3517 0.9351
4.0921 -16.0857 -2.3518 0.9351
4.6663 -15.9297 -2.3519 0.9351
6.8962 -15.1028 -2.3524 0.9351
8.9853 -13.9650 -2.3529 0.9351
10.6097 -14.1485 -2.5057 0.9310
11.1104 -13.7596 -2.5058 0.9310
11.5967 -13.3530 -2.5059 0.9310
12.0684 -12.9294 -2.5060 0.9310
12.5244 -12.4890 -2.5061 0.9310
12.9644 -12.0324 -2.5062 0.9310
14.1820 -10.5722 -2.5063 0.9310
14.5521 -10.0573 -2.5064 0.9310
15.2355 -8.9893 -2.5065 0.9310
15.5472 -8.4371 -2.5063 0.9310
15.8397 -7.8746 -2.5063 0.9310
16.1117 -7.3018 -2.5064 0.9310
16.3631 -6.7196 -2.5064 0.9310
16.5934 -6.1289 -2.5064 0.9310
16.9896 -4.9245 -2.5063 0.9310
17.5181 -2.4461 -2.5062 0.9310
17.5942 -1.8166 -2.5062 0.9310
17.6784 -0.5516 -2.5060 0.9310
17.6912 0.7170 -2.5087 0.9310
17.6278 1.9861 -2.5135 0.9308
17.5624 2.6192 -2.5159 0.9308
17.4745 3.2501 -2.5184 0.9307
17.2319 4.5027 -2.5235 0.9306
17.0772 5.1227 -2.5262 0.9305
16.9004 5.7374 -2.5288 0.9304
16.7016 6.3462 -2.5315 0.9304
16.2391 7.5426 -2.5370 0.9302
15.9758 8.1286 -2.5398 0.9301
-3.1291 -14.2000 -2.3954 0.9428
-2.5966 -14.1842 -2.3755 0.9432
-1.0479 -14.2280 -2.3503 0.9438
-0.0260 -14.2682 -2.3505 0.9438
0.4854 -14.2607 -2.3507 0.9438
1.5071 -14.2022 -2.3528 0.9437
4.0827 -13.9376 -2.3925 0.9428
4.6232 -13.9136 -2.4153 0.9423
5.7387 -13.8625 -2.4716 0.9410
6.3149 -13.8296 -2.5046 0.9402
6.8068 -13.5950 -2.5047 0.9402
7.2899 -13.3429 -2.5048 0.9402
7.7638 -13.0736 -2.5049 0.9402
10.3772 -11.1176 -2.5054 0.9402
10.7692 -10.7387 -2.5054 0.9402
11.1474 -10.3461 -2.5055 0.9402
11.5112 -9.9401 -2.5055 0.9402
11.8603 -9.5213 -2.5056 0.9402
12.5122 -8.6475 -2.5056 0.9402
13.6199 -6.7710 -2.5057 0.9402
14.2680 -5.2700 -2.5057 0.9402
14.4477 -4.7552 -2.5057 0.9402
14.9784 -2.6418 -2.5056 0.9402
15.0632 -2.1033 -2.5056 0.9402
15.1933 -1.0201 -2.5086 0.9401
15.2505 0.0710 -2.5124 0.9400
15.1915 1.7116 -2.5185 0.9399
15.0554 2.8002 -2.5227 0.9398
14.9583 3.3409 -2.5249 0.9398
14.8421 3.8782 -2.5272 0.9397
14.7067 4.4116 -2.5294 0.9397
14.1871 5.9811 -2.5364 0.9395
13.9767 6.4917 -2.5388 0.9394
13.5012 7.4904 -2.5435 0.9393
-2.8647 -12.9997 -2.5021 0.9473
-2.3971 -13.0947 -2.5022 0.9473
-0.0242 -13.3158 -2.5028 0.9472
1.4053 -13.2434 -2.5032 0.9472
1.8792 -13.1851 -2.5033 0.9472
2.3507 -13.1099 -2.5034 0.9472
3.2840 -12.9091 -2.5037 0.9472
4.2006 -12.6418 -2.5039 0.9472
4.6512 -12.4836 -2.5040 0.9472
5.0958 -12.3094 -2.5041 0.9472
5.5339 -12.1193 -2.5042 0.9472
5.9649 -11.9137 -2.5043 0.9472
6.3883 -11.6927 -2.5044 0.9472
6.8035 -11.4566 -2.5045 0.9472
7.6072 -10.9405 -2.5046 0.9472
8.3719 -10.3681 -2.5048 0.9472
8.7383 -10.0617 -2.5049 0.9472
9.4370 -9.4103 -2.5050 0.9472
11.2289 -7.1799 -2.5052 0.9472
11.7146 -6.3572 -2.5052 0.9472
11.9349 -5.9333 -2.5052 0.9472
12.1399 -5.5018 -2.5052 0.9472
12.3293 -5.0631 -2.5052 0.9472
12.5028 -4.6180 -2.5052 0.9472
12.9307 -3.2505 -2.5061 0.9472
13.2937 -1.3726 -2.5120 0.9471
13.3429 -0.8958 -2.5136 0.9470
13.3752 -0.4173 -2.5152 0.9470
13.3906 0.0623 -2.5169 0.9470
13.3890 0.5426 -2.5187 0.9469
13.3704 1.0228 -2.5205 0.9469
13.3348 1.5024 -2.5223 0.9468
13.2822 1.9808 -2.5241 0.9468
12.9024 3.8704 -2.5319 0.9467
12.7656 4.3338 -2.5339 0.9466
12.6122 4.7923 -2.5360 0.9466
12.4424 5.2455 -2.5380 0.9465
12.2564 5.6927 -2.5401 0.9465
-2.5473 -11.5593 -2.5020 0.9528
-0.8695 -11.8068 -2.5025 0.9528
-0.0215 -11.8398 -2.5027 0.9527
1.2496 -11.7753 -2.5030 0.9527
2.0900 -11.6565 -2.5032 0.9527
2.5066 -11.5746 -2.5034 0.9527
3.7349 -11.2400 -2.5036 0.9527
4.5308 -10.9444 -2.5038 0.9527
4.9203 -10.7754 -2.5039 0.9527
5.3035 -10.5925 -2.5040 0.9527
5.6799 -10.3960 -2.5041 0.9527
6.0490 -10.1860 -2.5042 0.9527
7.7691 -8.9457 -2.5045 0.9527
8.3903 -8.3665 -2.5046 0.9527
9.7481 -6.7371 -2.5048 0.9527
10.2058 -6.0216 -2.5048 0.9527
10.6110 -5.2751 -2.5048 0.9527
10.7956 -4.8925 -2.5054 0.9527
10.9683 -4.5043 -2.5064 0.9527
11.6220 -2.4824 -2.5121 0.9526
11.7096 -2.0653 -2.5134 0.9526
11.7823 -1.6452 -2.5147 0.9525
11.8403 -1.2225 -2.5161 0.9525
11.9240 0.0555 -2.5205 0.9524
11.9042 0.9106 -2.5237 0.9524
11.8715 1.3376 -2.5253 0.9523
11.7608 2.1874 -2.5286 0.9523
11.6828 2.6093 -2.5303 0.9522
11.5898 3.0284 -2.5321 0.9522
10.9031 5.0641 -2.5411 0.9520
10.7224 5.4556 -2.5430 0.9520
10.5277 5.8407 -2.5449 0.9520
-2.2910 -10.3962 -2.5020 0.9572
-1.9170 -10.4721 -2.5021 0.9572
-1.5405 -10.5346 -2.5022 0.9572
-0.7820 -10.6187 -2.5024 0.9572
-0.4010 -10.6404 -2.5025 0.9572
0.3623 -10.6426 -2.5027 0.9572
1.5027 -10.5435 -2.5030 0.9572
1.8797 -10.4832 -2.5031 0.9572
2.2543 -10.4095 -2.5032 0.9572
2.6259 -10.3224 -2.5033 0.9572
4.0746 -9.8426 -2.5036 0.9572
4.4249 -9.6905 -2.5037 0.9572
4.7695 -9.5260 -2.5038 0.9572
5.1080 -9.3492 -2.5038 0.9572
6.3922 -8.5242 -2.5041 0.9572
6.6938 -8.2899 -2.5042 0.9572
6.9867 -8.0448 -2.5042 0.9572
7.2707 -7.7894 -2.5043 0.9572
7.5453 -7.5240 -2.5043 0.9572
7.8103 -7.2488 -2.5044 0.9572
8.9861 -5.7458 -2.5067 0.9571
9.1887 -5.4215 -2.5074 0.9571
9.3798 -5.0902 -2.5082 0.9571
9.5592 -4.7523 -2.5089 0.9571
9.7266 -4.4081 -2.5098 0.9571
9.8818 -4.0581 -2.5107 0.9571
10.1549 -3.3423 -2.5126 0.9570
10.6632 -1.1010 -2.5194 0.9569
10.7013 -0.7185 -2.5207 0.9569
10.7259 -0.3346 -2.5220 0.9569
10.7368 0.0500 -2.5234 0.9568
10.7340 0.4350 -2.5248 0.9568
10.7176 0.8199 -2.5262 0.9568
10.6438 1.5874 -2.5292 0.9567
10.5155 2.3486 -2.5323 0.9567
10.4311 2.7256 -2.5338 0.9567
10.3332 3.0997 -2.5354 0.9566
10.0975 3.8368 -2.5387 0.9566
-1.7401 -9.5055 -2.5020 0.9609
-1.3983 -9.5621 -2.5021 0.9609
-1.0548 -9.6065 -2.5022 0.9609
-0.7098 -9.6385 -2.5023 0.9609
-0.3640 -9.6581 -2.5024 0.9609
-0.0176 -9.6653 -2.5025 0.9609
0.3288 -9.6601 -2.5026 0.9608
0.6749 -9.6424 -2.5027 0.9608
2.7178 -9.2781 -2.5032 0.9608
3.3757 -9.0601 -2.5034 0.9608
3.6983 -8.9336 -2.5034 0.9608
4.6362 -8.4857 -2.5036 0.9608
5.5207 -7.9396 -2.5038 0.9608
6.0756 -7.5241 -2.5039 0.9608
6.3413 -7.3017 -2.5040 0.9608
6.5991 -7.0699 -2.5040 0.9608
7.3202 -6.3210 -2.5041 0.9608
7.9752 -5.5119 -2.5101 0.9607
8.3534 -4.9287 -2.5113 0.9607
8.5270 -4.6274 -2.5119 0.9607
8.6898 -4.3201 -2.5126 0.9607
8.8417 -4.0070 -2.5134 0.9607
8.9825 -3.6888 -2.5142 0.9607
9.2301 -3.0379 -2.5159 0.9606
9.3365 -2.7062 -2.5169 0.9606
9.4312 -2.3708 -2.5179 0.9606
9.5140 -2.0321 -2.5189 0.9606
9.7239 -0.6529 -2.5234 0.9605
9.7552 0.0454 -2.5258 0.9605
9.7368 0.7448 -2.5284 0.9605
9.7090 1.0939 -2.5297 0.9604
9.3844 2.8150 -2.5367 0.9603
9.2828 3.1514 -2.5382 0.9603
9.1756 3.4865 -2.5414 0.9603
8.8810 4.1249 -2.5354 0.9603
8.7010 4.4271 -2.5277 0.9605
8.5127 4.7228 -2.5206 0.9606
-1.5914 -8.6937 -2.5020 0.9639
-0.9647 -8.7859 -2.5022 0.9639
-0.0161 -8.8396 -2.5024 0.9639
0.3008 -8.8348 -2.5025 0.9639
0.9329 -8.7912 -2.5027 0.9639
1.2474 -8.7523 -2.5028 0.9639
1.5603 -8.7023 -2.5028 0.9639
2.1798 -8.5687 -2.5030 0.9639
2.4856 -8.4853 -2.5031 0.9639
3.3823 -8.1702 -2.5033 0.9639
4.5155 -7.6037 -2.5035 0.9639
5.0488 -7.2611 -2.5036 0.9639
5.3059 -7.0756 -2.5037 0.9639
5.5562 -6.8811 -2.5037 0.9639
6.4829 -6.0169 -2.5039 0.9639
6.6945 -5.7808 -2.5039 0.9639
6.8974 -5.5371 -2.5040 0.9639
7.2765 -5.0290 -2.5040 0.9639
7.4521 -4.7650 -2.5040 0.9639
7.6190 -4.4953 -2.5043 0.9639
7.7819 -4.2231 -2.5065 0.9639
7.9436 -3.9491 -2.5113 0.9638
8.0969 -3.6695 -2.5166 0.9637
8.4514 -2.7817 -2.5188 0.9637
8.5486 -2.4778 -2.5197 0.9637
8.6350 -2.1707 -2.5205 0.9637
8.7105 -1.8605 -2.5215 0.9636
8.8283 -1.2327 -2.5235 0.9636
8.9261 0.3617 -2.5290 0.9635
8.9117 0.6817 -2.5302 0.9635
8.8541 1.3204 -2.5342 0.9635
8.8024 1.6372 -2.5346 0.9635
8.6431 2.2584 -2.5289 0.9635
8.5412 2.5621 -2.5244 0.9636
8.0387 3.7337 -2.5092 0.9638
7.7376 4.2928 -2.5050 0.9639
-1.7506 -7.9436 -2.5019 0.9665
-1.4648 -8.0015 -2.5020 0.9665
0.5680 -8.1164 -2.5025 0.9665
2.5661 -7.7227 -2.5030 0.9665
2.8412 -7.6259 -2.5031 0.9665
3.1129 -7.5194 -2.5031 0.9665
3.3804 -7.4032 -2.5032 0.9665
3.9022 -7.1423 -2.5033 0.9665
4.4040 -6.8447 -2.5034 0.9665
4.6466 -6.6826 -2.5035 0.9665
4.8832 -6.5119 -2.5035 0.9665
5.5543 -5.9505 -2.5036 0.9665
5.7640 -5.7477 -2.5037 0.9665
5.9664 -5.5375 -2.5037 0.9665
6.1611 -5.3202 -2.5038 0.9665
6.3479 -5.0960 -2.5038 0.9665
6.6968 -4.6283 -2.5038 0.9665
6.8584 -4.3854 -2.5039 0.9665
7.0112 -4.1368 -2.5039 0.9665
7.2896 -3.6239 -2.5039 0.9665
7.4148 -3.3604 -2.5039 0.9665
7.6380 -2.8212 -2.5044 0.9665
7.7371 -2.5466 -2.5053 0.9665
7.8280 -2.2690 -2.5068 0.9665
7.9095 -1.9883 -2.5085 0.9664
7.9809 -1.7046 -2.5101 0.9664
8.0419 -1.4184 -2.5117 0.9664
8.1301 -0.8395 -2.5139 0.9664
8.1568 -0.5476 -2.5145 0.9664
8.1717 -0.2550 -2.5147 0.9664
8.1667 0.3309 -2.5139 0.9664
8.1468 0.6232 -2.5131 0.9664
7.7113 2.6179 -2.5048 0.9665
7.6114 2.8921 -2.5044 0.9665
-1.6198 -7.3503 -2.5019 0.9688
-1.3553 -7.4038 -2.5020 0.9688
-0.5529 -7.5071 -2.5022 0.9688
-0.2835 -7.5224 -2.5022 0.9688
0.5256 -7.5100 -2.5025 0.9688
0.7944 -7.4865 -2.5025 0.9688
1.0623 -7.4535 -2.5026 0.9688
1.3288 -7.4108 -2.5027 0.9688
1.8563 -7.2969 -2.5028 0.9688
2.1167 -7.2259 -2.5029 0.9688
2.3743 -7.1456 -2.5029 0.9688
3.8452 -6.4750 -2.5032 0.9688
4.0749 -6.3332 -2.5033 0.9688
5.3332 -5.3181 -2.5035 0.9688
5.7006 -4.9225 -2.5036 0.9688
6.0387 -4.5016 -2.5036 0.9688
6.4871 -3.8275 -2.5037 0.9687
6.6201 -3.5926 -2.5037 0.9687
6.7447 -3.3530 -2.5037 0.9687
6.8605 -3.1092 -2.5037 0.9687
6.9676 -2.8613 -2.5037 0.9687
7.0657 -2.6098 -2.5037 0.9687
7.3049 -1.8363 -2.5037 0.9687
7.4177 -1.3083 -2.5037 0.9687
7.4603 -1.0416 -2.5039 0.9687
7.5296 -0.2350 -2.5041 0.9687
7.4856 0.8434 -2.5040 0.9687
7.3506 1.6417 -2.5036 0.9688
7.2865 1.9039 -2.5034 0.9688
7.2135 2.1638 -2.5034 0.9688
7.1312 2.4209 -2.5033 0.9688
6.9392 2.9254 -2.5032 0.9688
6.8297 3.1722 -2.5032 0.9688
-1.5056 -6.8322 -2.5019 0.9707
-1.2598 -6.8820 -2.5019 0.9707
-0.5139 -6.9780 -2.5021 0.9707
-0.2635 -6.9921 -2.5022 0.9707
0.2381 -6.9934 -2.5023 0.9707
1.9675 -6.7165 -2.5028 0.9707
2.9073 -6.3669 -2.5030 0.9707
3.1336 -6.2588 -2.5030 0.9707
3.9961 -5.7471 -2.5032 0.9707
4.1996 -5.6003 -2.5033 0.9707
4.7767 -5.1175 -2.5034 0.9707
5.1311 -4.7622 -2.5034 0.9707
5.2985 -4.5754 -2.5035 0.9707
5.6128 -4.1841 -2.5035 0.9707
5.7592 -3.9803 -2.5035 0.9707
6.1532 -3.3392 -2.5036 0.9707
6.3767 -2.8899 -2.5036 0.9707
6.4762 -2.6595 -2.5036 0.9707
6.6500 -2.1888 -2.5036 0.9707
6.7242 -1.9490 -2.5036 0.9707
6.8465 -1.4624 -2.5036 0.9707
6.8945 -1.2160 -2.5036 0.9707
7.0006 0.0326 -2.5035 0.9707
6.9949 0.2835 -2.5035 0.9707
6.9801 0.5340 -2.5034 0.9707
6.9238 1.0326 -2.5034 0.9707
6.8823 1.2800 -2.5033 0.9707
6.7727 1.7697 -2.5033 0.9707
6.5433 2.4863 -2.5031 0.9707
6.4499 2.7192 -2.5031 0.9707
6.2383 3.1741 -2.5030 0.9707
6.1204 3.3955 -2.5030 0.9707
-0.2459 -6.5248 -2.5022 0.9724
-0.0119 -6.5295 -2.5022 0.9724
0.2222 -6.5259 -2.5023 0.9724
1.1525 -6.4278 -2.5025 0.9724
1.6101 -6.3290 -2.5026 0.9724
1.8359 -6.2674 -2.5027 0.9724
2.0594 -6.1977 -2.5027 0.9724
2.2802 -6.1200 -2.5028 0.9724
2.4982 -6.0345 -2.5028 0.9724
2.7129 -5.9412 -2.5029 0.9724
2.9241 -5.8403 -2.5029 0.9724
3.1316 -5.7318 -2.5030 0.9724
3.5343 -5.4930 -2.5031 0.9724
4.1036 -5.0821 -2.5032 0.9724
4.4572 -4.7753 -2.5033 0.9724
5.3740 -3.7141 -2.5034 0.9724
5.5037 -3.5191 -2.5034 0.9724
5.8497 -2.9081 -2.5035 0.9724
5.9502 -2.6966 -2.5035 0.9724
6.0430 -2.4816 -2.5035 0.9724
6.1281 -2.2635 -2.5035 0.9724
6.2053 -2.0424 -2.5035 0.9724
6.2745 -1.8187 -2.5035 0.9724
6.3356 -1.5927 -2.5035 0.9724
6.3886 -1.3646 -2.5035 0.9724
6.5294 -0.2037 -2.5034 0.9724
6.5324 0.0304 -2.5034 0.9724
6.5271 0.2645 -2.5033 0.9724
6.5133 0.4983 -2.5033 0.9724
6.3750 1.4238 -2.5032 0.9724
6.2564 1.8768 -2.5031 0.9724
6.1057 2.3200 -2.5030 0.9724
5.9237 2.7513 -2.5030 0.9724
5.7112 3.1685 -2.5029 0.9724
-1.3155 -5.9696 -2.5018 0.9739
-0.6672 -6.0768 -2.5020 0.9739
-0.4490 -6.0969 -2.5021 0.9739
-0.2302 -6.1093 -2.5021 0.9739
-0.0111 -6.1137 -2.5022 0.9739
0.2080 -6.1103 -2.5023 0.9739
0.4269 -6.0991 -2.5023 0.9739
1.2941 -5.9760 -2.5025 0.9739
1.9282 -5.8029 -2.5027 0.9739
2.3391 -5.6501 -2.5028 0.9739
2.9321 -5.3667 -2.5029 0.9739
3.1226 -5.2583 -2.5029 0.9739
3.3091 -5.1430 -2.5030 0.9739
3.4914 -5.0212 -2.5030 0.9739
4.0103 -4.6177 -2.5031 0.9739
4.1733 -4.4711 -2.5032 0.9739
4.3309 -4.3186 -2.5032 0.9739
4.7696 -3.8290 -2.5032 0.9739
4.9038 -3.6556 -2.5033 0.9739
5.0316 -3.4775 -2.5033 0.9739
5.1531 -3.2950 -2.5033 0.9739
5.9816 -1.2776 -2.5033 0.9739
6.0235 -1.0624 -2.5033 0.9739
6.0577 -0.8459 -2.5033 0.9739
6.1027 -0.4097 -2.5033 0.9739
6.1163 0.0285 -2.5033 0.9739
6.0984 0.4665 -2.5032 0.9739
6.0777 0.6848 -2.5032 0.9739
5.8579 1.7572 -2.5030 0.9739
5.5463 2.5761 -2.5029 0.9739
5.4504 2.7732 -2.5028 0.9739
5.3474 2.9667 -2.5028 0.9739
-0.4217 -5.7255 -2.5021 0.9753
-0.2162 -5.7371 -2.5021 0.9753
-0.0105 -5.7413 -2.5022 0.9753
0.1953 -5.7381 -2.5022 0.9753
0.4009 -5.7276 -2.5023 0.9753
0.8102 -5.6844 -2.5024 0.9753
1.0134 -5.6518 -2.5024 0.9753
1.2153 -5.6120 -2.5025 0.9753
1.4157 -5.5649 -2.5025 0.9753
1.6142 -5.5107 -2.5026 0.9753
1.8107 -5.4494 -2.5026 0.9753
2.3853 -5.2238 -2.5027 0.9753
2.5711 -5.1351 -2.5028 0.9753
2.7535 -5.0397 -2.5028 0.9753
2.9324 -4.9379 -2.5029 0.9753
3.1075 -4.8297 -2.5029 0.9753
3.4456 -4.5948 -2.5030 0.9753
3.6081 -4.4684 -2.5030 0.9753
3.7660 -4.3363 -2.5030 0.9753
4.0670 -4.0555 -2.5031 0.9753
4.3471 -3.7538 -2.5031 0.9753
4.7250 -3.2656 -2.5032 0.9752
4.8391 -3.0942 -2.5032 0.9752
5.1433 -2.5569 -2.5032 0.9752
5.2316 -2.3709 -2.5032 0.9752
5.3880 -1.9901 -2.5032 0.9752
5.4559 -1.7957 -2.5032 0.9752
5.5167 -1.5990 -2.5032 0.9752
5.5705 -1.4003 -2.5032 0.9752
5.6565 -0.9977 -2.5032 0.9752
5.7133 -0.5899 -2.5032 0.9752
5.7308 -0.3848 -2.5032 0.9752
5.7409 -0.1791 -2.5032 0.9752
5.7389 0.2326 -2.5031 0.9753
5.7074 0.6430 -2.5031 0.9753
5.4382 1.8462 -2.5029 0.9753
5.2918 2.2309 -2.5028 0.9753
5.2084 2.4191 -2.5028 0.9753
5.1183 2.6042 -2.5028 0.9753
5.0216 2.7859 -2.5027 0.9753
-0.9732 -5.3166 -2.5019 0.9765
-0.7821 -5.3482 -2.5019 0.9765
-0.5899 -5.3729 -2.5020 0.9765
-0.3970 -5.3907 -2.5020 0.9765
-0.2036 -5.4016 -2.5021 0.9765
-0.0098 -5.4055 -2.5021 0.9765
0.1839 -5.4025 -2.5022 0.9765
0.3774 -5.3925 -2.5022 0.9765
0.5704 -5.3757 -2.5023 0.9765
0.7628 -5.3519 -2.5023 0.9765
0.9541 -5.3212 -2.5024 0.9765
1.1442 -5.2837 -2.5024 0.9765
1.5198 -5.1883 -2.5025 0.9765
1.8877 -5.0663 -2.5026 0.9765
2.0680 -4.9955 -2.5026 0.9765
2.4206 -4.8346 -2.5027 0.9765
2.5924 -4.7449 -2.5028 0.9764
2.7608 -4.6490 -2.5028 0.9764
2.9257 -4.5471 -2.5028 0.9764
3.2440 -4.3260 -2.5029 0.9764
3.3970 -4.2070 -2.5029 0.9764
3.5456 -4.0826 -2.5029 0.9764
3.8291 -3.8182 -2.5030 0.9764
3.9635 -3.6785 -2.5030 0.9764
4.0928 -3.5342 -2.5030 0.9764
4.2169 -3.3852 -2.5031 0.9764
4.4486 -3.0745 -2.5031 0.9764
4.6574 -2.7480 -2.5031 0.9764
4.7529 -2.5793 -2.5031 0.9764
5.0728 -1.8737 -2.5032 0.9764
5.1367 -1.6907 -2.5032 0.9764
5.1939 -1.5055 -2.5032 0.9764
5.2446 -1.3183 -2.5031 0.9764
5.3255 -0.9393 -2.5031 0.9764
5.4050 -0.1687 -2.5031 0.9764
5.4031 0.2189 -2.5031 0.9764
5.2772 1.1786 -2.5029 0.9764
5.2315 1.3670 -2.5029 0.9764
5.1791 1.5536 -2.5029 0.9764
5.1200 1.7382 -2.5028 0.9764
5.0544 1.9205 -2.5028 0.9764
4.7278 2.6229 -2.5027 0.9765
-1.0976 -4.9808 -2.5018 0.9775
-0.5567 -5.0701 -2.5020 0.9775
-0.1921 -5.0972 -2.5021 0.9775
0.1736 -5.0980 -2.5022 0.9775
0.3562 -5.0887 -2.5022 0.9775
0.9003 -5.0213 -2.5023 0.9775
1.0797 -4.9859 -2.5024 0.9775
1.6087 -4.8414 -2.5025 0.9775
1.7812 -4.7808 -2.5025 0.9775
2.2842 -4.5621 -2.5027 0.9775
2.6052 -4.3869 -2.5027 0.9775
3.0611 -4.0821 -2.5028 0.9775
3.2055 -3.9698 -2.5028 0.9775
3.4817 -3.7301 -2.5029 0.9775
3.6132 -3.6030 -2.5029 0.9775
3.7400 -3.4712 -2.5029 0.9775
3.8620 -3.3349 -2.5030 0.9775
4.0911 -3.0497 -2.5030 0.9775
4.1978 -2.9012 -2.5030 0.9775
4.2991 -2.7489 -2.5030 0.9775
4.5694 -2.2716 -2.5031 0.9775
4.6478 -2.1064 -2.5031 0.9775
4.8471 -1.5954 -2.5031 0.9775
4.9012 -1.4206 -2.5031 0.9775
4.9489 -1.2440 -2.5031 0.9775
4.9903 -1.0659 -2.5031 0.9775
5.0253 -0.8863 -2.5031 0.9775
5.0913 -0.3418 -2.5030 0.9775
5.0985 0.2066 -2.5030 0.9775
5.0878 0.3892 -2.5030 0.9775
5.0467 0.7526 -2.5029 0.9775
5.0165 0.9330 -2.5029 0.9775
4.9366 1.2899 -2.5028 0.9775
4.8872 1.4660 -2.5028 0.9775
4.8314 1.6402 -2.5028 0.9775
4.7695 1.8123 -2.5027 0.9775
4.6273 2.1492 -2.5027 0.9775
4.5472 2.3137 -2.5026 0.9775
4.4613 2.4751 -2.5026 0.9775
-1.0378 -4.7095 -2.5018 0.9785
-0.8684 -4.7437 -2.5018 0.9785
-0.5263 -4.7939 -2.5019 0.9785
-0.3542 -4.8098 -2.5020 0.9785
0.5090 -4.7964 -2.5022 0.9785
0.8513 -4.7477 -2.5023 0.9785
1.0209 -4.7142 -2.5023 0.9785
1.3560 -4.6292 -2.5024 0.9785
1.8451 -4.4571 -2.5025 0.9785
2.7542 -3.9609 -2.5027 0.9785
3.0308 -3.7535 -2.5028 0.9785
3.1634 -3.6425 -2.5028 0.9785
3.4163 -3.4066 -2.5029 0.9785
3.5362 -3.2820 -2.5029 0.9785
3.7623 -3.0203 -2.5029 0.9785
3.9690 -2.7431 -2.5029 0.9785
4.1554 -2.4517 -2.5030 0.9785
4.2406 -2.3013 -2.5030 0.9785
4.5259 -1.6717 -2.5030 0.9785
4.6340 -1.3432 -2.5030 0.9785
4.6792 -1.1762 -2.5030 0.9785
4.7514 -0.8380 -2.5030 0.9785
4.7784 -0.6672 -2.5030 0.9785
4.7992 -0.4955 -2.5030 0.9785
4.8246 0.0224 -2.5029 0.9785
4.8207 0.1954 -2.5029 0.9785
4.8105 0.3680 -2.5029 0.9785
4.7431 0.8822 -2.5028 0.9785
4.7084 1.0516 -2.5028 0.9785
4.6676 1.2197 -2.5028 0.9785
4.5096 1.7136 -2.5027 0.9785
4.4452 1.8740 -2.5026 0.9785
4.3752 2.0321 -2.5026 0.9785
4.2995 2.1876 -2.5026 0.9785
4.2182 2.3402 -2.5025 0.9785
-0.9830 -4.4608 -2.5018 0.9794
-0.6609 -4.5199 -2.5019 0.9794
-0.3355 -4.5558 -2.5020 0.9794
-0.1720 -4.5650 -2.5020 0.9794
-0.0083 -4.5683 -2.5021 0.9794
0.3190 -4.5573 -2.5021 0.9794
0.6446 -4.5229 -2.5022 0.9794
0.8063 -4.4969 -2.5023 0.9794
0.9670 -4.4652 -2.5023 0.9794
1.1264 -4.4278 -2.5023 0.9794
1.2844 -4.3846 -2.5024 0.9794
1.7477 -4.2216 -2.5025 0.9794
2.1907 -4.0098 -2.5026 0.9794
2.3331 -3.9287 -2.5026 0.9794
2.6086 -3.7516 -2.5027 0.9794
2.8707 -3.5552 -2.5027 0.9794
2.9963 -3.4501 -2.5027 0.9794
3.6638 -2.7312 -2.5029 0.9794
3.7593 -2.5982 -2.5029 0.9794
4.0165 -2.1796 -2.5029 0.9794
4.0921 -2.0343 -2.5029 0.9794
4.2868 -1.5834 -2.5029 0.9794
4.3408 -1.4287 -2.5029 0.9794
4.3892 -1.2722 -2.5029 0.9794
4.5004 -0.7938 -2.5029 0.9794
4.5259 -0.6320 -2.5029 0.9794
4.5457 -0.4694 -2.5029 0.9794
4.5595 -0.3061 -2.5029 0.9794
4.5675 -0.1425 -2.5029 0.9794
4.5697 0.0213 -2.5028 0.9794
4.5660 0.1850 -2.5028 0.9794
4.4211 1.1552 -2.5027 0.9794
4.3767 1.3129 -2.5027 0.9794
4.2104 1.7750 -2.5026 0.9794
4.1440 1.9247 -2.5026 0.9794
4.0723 2.0720 -2.5025 0.9794
-0.9325 -4.2317 -2.5018 0.9802
-0.7803 -4.2625 -2.5018 0.9802
-0.1632 -4.3305 -2.5020 0.9802
0.4574 -4.3097 -2.5022 0.9802
0.9173 -4.2359 -2.5023 0.9802
1.0685 -4.2004 -2.5023 0.9802
1.2184 -4.1594 -2.5023 0.9802
1.6579 -4.0048 -2.5024 0.9802
1.9406 -3.8758 -2.5025 0.9802
2.0782 -3.8038 -2.5025 0.9802
2.2133 -3.7270 -2.5026 0.9802
2.4746 -3.5589 -2.5026 0.9802
2.7232 -3.3726 -2.5027 0.9802
2.9579 -3.1689 -2.5027 0.9802
3.0696 -3.0609 -2.5027 0.9802
3.1773 -2.9489 -2.5027 0.9802
3.3804 -2.7138 -2.5028 0.9802
3.4755 -2.5909 -2.5028 0.9802
3.5662 -2.4647 -2.5028 0.9802
3.6522 -2.3353 -2.5028 0.9802
3.7336 -2.2029 -2.5028 0.9802
3.8102 -2.0677 -2.5028 0.9802
3.8818 -1.9298 -2.5028 0.9802
4.0101 -1.6468 -2.5029 0.9802
4.0666 -1.5020 -2.5029 0.9802
4.1178 -1.3553 -2.5029 0.9802
4.1637 -1.2069 -2.5029 0.9802
4.2043 -1.0569 -2.5029 0.9802
4.2692 -0.7530 -2.5028 0.9802
4.2934 -0.5995 -2.5028 0.9802
4.3121 -0.4452 -2.5028 0.9802
4.3253 -0.2904 -2.5028 0.9802
4.3329 -0.1352 -2.5028 0.9802
4.3223 0.3306 -2.5028 0.9802
4.2874 0.6394 -2.5027 0.9802
4.2617 0.7926 -2.5027 0.9802
4.1046 1.3934 -2.5026 0.9802
3.9312 1.8259 -2.5025 0.9802
3.8632 1.9656 -2.5025 0.9802
