ply
format ascii 1.0
element vertex 809
property float32 x
property float32 y
property float32 z
property float32 I
end_header
-40.6017 -26.7065 8.5691 0.8209
-34.7330 -26.6311 7.7174 0.8371
-32.2092 -26.5988 7.3656 0.8439
-27.9712 -30.8878 7.3477 0.8443
-25.8732 -30.7345 7.0839 0.8494
-24.2649 -31.0352 6.9464 0.8521
-22.0435 -32.8328 6.9731 0.8516
-15.0356 -31.3950 6.1379 0.8682
-14.8495 -37.7997 7.1610 0.8479
-13.2458 -37.6645 7.0400 0.8503
-11.7288 -37.6473 6.9529 0.8520
-7.4519 -38.0182 6.8312 0.8544
-6.3226 -39.8399 7.1127 0.8489
-3.3848 -39.6895 7.0237 0.8506
2.3623 -39.6242 6.9992 0.8511
5.0299 -37.9239 6.7456 0.8561
6.3885 -37.6652 6.7362 0.8563
12.9690 -35.6620 6.6911 0.8572
6.4789 -15.9907 3.0422 0.9323
-40.5831 -26.6942 7.4415 0.8215
-37.4919 -26.6512 7.0468 0.8302
-37.4695 -28.7292 7.2332 0.8261
-34.6380 -33.0934 7.3389 0.8238
-32.4834 -35.8704 7.4135 0.8222
-28.0330 -35.8548 6.9723 0.8318
-25.3801 -37.8025 6.9753 0.8317
-15.5382 -25.0553 4.5165 0.8875
-22.7955 -39.9102 7.0410 0.8303
-15.2270 -29.0498 5.0246 0.8757
-15.2141 -31.7679 5.3960 0.8672
-15.0896 -34.6724 5.7928 0.8581
-14.9056 -37.9423 6.2450 0.8479
6.9980 -33.7971 5.2873 0.8696
6.9518 -28.3673 4.4743 0.8885
7.0367 -24.7986 3.9490 0.9009
13.4747 -41.6862 6.7114 0.8375
6.6844 -16.4980 2.7268 0.9305
-38.4674 -25.3026 5.9958 0.8305
-38.2755 -29.3472 6.2807 0.8232
-37.6386 -31.0824 6.3566 0.8213
-15.5381 -25.0553 3.8392 0.8879
-15.1867 -31.7105 4.5785 0.8678
-15.1294 -38.5120 5.3882 0.8463
-15.1347 -43.0354 5.9406 0.8319
6.9979 -33.7971 4.4944 0.8700
6.9702 -28.4421 3.8133 0.8886
-37.8966 -29.0568 5.1279 0.8252
-15.5832 -25.1280 3.1750 0.8879
-15.3223 -43.5688 4.9594 0.8304
6.9979 -33.7970 3.7062 0.8704
7.0571 -24.8706 2.7761 0.9012
6.6845 -16.4983 1.9114 0.9309
-37.9332 -29.0847 4.0464 0.8254
-37.9106 -31.3070 4.1621 0.8209
-15.5832 -25.1280 2.5030 0.8881
-15.1309 -43.0246 3.8608 0.8327
7.3015 -43.0475 3.6961 0.8392
7.0571 -24.8706 2.1885 0.9014
-15.5832 -25.1279 1.8335 0.8883
-15.3222 -43.5687 2.8639 0.8310
7.3462 -43.3110 2.7241 0.8386
7.0219 -24.7466 1.5951 0.9020
6.2978 -25.6984 1.0433 0.8995
6.9259 -24.4083 1.0004 0.9034
-15.2935 -24.6609 0.4902 0.8904
-14.6618 -25.6699 0.4994 0.8885
6.9259 -24.4082 0.4286 0.9035
7.8863 -24.3973 0.4331 0.9025
6.6847 -16.4987 0.3007 0.9313
-37.9439 -23.0375 -0.2499 0.8373
-29.9341 -22.9516 -0.2124 0.8599
-23.9235 -22.8566 -0.1863 0.8760
-20.6739 -22.8295 -0.1734 0.8841
-15.2864 -22.7682 -0.1544 0.8961
-12.9918 -22.7459 -0.1475 0.9005
-11.9120 -22.7256 -0.1445 0.9025
-8.9137 -22.6899 -0.1373 0.9071
-7.0620 -22.6679 -0.1337 0.9094
-6.1731 -22.6698 -0.1323 0.9103
-1.9287 -22.6149 -0.1278 0.9132
-1.1071 -22.6104 -0.1275 0.9134
0.5285 -22.5913 -0.1272 0.9136
2.1668 -22.5722 -0.1277 0.9133
4.6692 -22.5503 -0.1297 0.9120
5.5237 -22.5400 -0.1307 0.9113
6.3928 -22.5296 -0.1319 0.9106
7.2790 -22.5190 -0.1332 0.9097
8.1854 -22.5081 -0.1348 0.9086
-37.9436 -23.0373 -1.2499 0.8373
-34.9712 -23.0028 -1.1786 0.8458
-32.3209 -22.9753 -1.1166 0.8533
-29.9348 -22.9521 -1.0621 0.8599
-27.7371 -22.9056 -1.0129 0.8659
-23.9243 -22.8574 -0.9317 0.8760
-22.2454 -22.8476 -0.8979 0.8802
-20.6733 -22.8288 -0.8672 0.8840
-19.2033 -22.8113 -0.8396 0.8875
-17.8222 -22.7948 -0.8147 0.8907
-16.5201 -22.7810 -0.7924 0.8935
-15.2868 -22.7689 -0.7722 0.8961
-12.9922 -22.7465 -0.7376 0.9005
-10.8778 -22.7134 -0.7091 0.9041
-9.8798 -22.7015 -0.6971 0.9057
-7.0621 -22.6680 -0.6685 0.9094
-6.1732 -22.6702 -0.6616 0.9103
-4.4390 -22.6477 -0.6498 0.9118
-2.7566 -22.6259 -0.6418 0.9128
-1.9287 -22.6152 -0.6391 0.9132
-1.1071 -22.6112 -0.6374 0.9134
-0.2886 -22.6017 -0.6365 0.9135
1.3463 -22.5826 -0.6370 0.9134
2.1669 -22.5730 -0.6385 0.9133
2.9925 -22.5634 -0.6409 0.9129
3.8254 -22.5537 -0.6441 0.9125
5.5237 -22.5400 -0.6535 0.9113
6.3928 -22.5296 -0.6594 0.9105
8.1853 -22.5080 -0.6744 0.9086
-49.1276 1.6140 -2.4928 0.8213
-49.1545 -0.1629 -2.4928 0.8213
-49.0154 -3.7140 -2.4929 0.8213
-48.2716 -8.9884 -2.4901 0.8215
-47.9188 -10.7283 -2.4903 0.8215
-47.0266 -14.1648 -2.4908 0.8214
-45.8894 -17.5288 -2.4912 0.8214
-45.2305 -19.1782 -2.4915 0.8214
-41.0805 -21.0407 -2.3407 0.8312
-40.3313 -22.5333 -2.3430 0.8311
-22.2447 -22.8469 -1.6171 0.8801
-20.6727 -22.8282 -1.5619 0.8840
-14.1136 -22.7581 -1.3581 0.8983
-8.9138 -22.6901 -1.2363 0.9070
-7.9757 -22.6790 -1.2192 0.9082
-4.4390 -22.6480 -1.1704 0.9117
-3.5926 -22.6371 -1.1624 0.9123
-2.7566 -22.6262 -1.1560 0.9128
-1.1072 -22.6121 -1.1481 0.9133
-0.2886 -22.6025 -1.1464 0.9134
0.5285 -22.5930 -1.1461 0.9135
1.3463 -22.5834 -1.1473 0.9134
2.1670 -22.5739 -1.1501 0.9132
3.8255 -22.5545 -1.1602 0.9124
4.6691 -22.5502 -1.1679 0.9119
5.5237 -22.5399 -1.1769 0.9112
8.1853 -22.5080 -1.2146 0.9085
6.6849 -16.4991 -0.9029 0.9312
-33.9203 2.3441 -2.4930 0.8725
-33.9837 1.1165 -2.4931 0.8725
-34.0028 -0.1127 -2.4932 0.8725
-33.9776 -1.3418 -2.4933 0.8725
-33.6368 -5.0129 -2.4936 0.8725
-33.1901 -7.4308 -2.4938 0.8725
-32.5705 -9.8105 -2.4941 0.8725
-31.3236 -13.2816 -2.4946 0.8724
-30.8254 -14.4063 -2.4948 0.8724
-29.5313 -15.1254 -2.4328 0.8754
-27.8991 -15.5873 -2.3432 0.8797
-27.3198 -16.5871 -2.3434 0.8797
-26.0675 -18.5301 -2.3450 0.8796
-25.3840 -19.4628 -2.3453 0.8796
-23.9174 -21.2512 -2.3459 0.8796
-17.8212 -22.7936 -2.1215 0.8904
-15.2878 -22.7703 -2.0110 0.8958
-14.1140 -22.7588 -1.9636 0.8982
-12.9929 -22.7478 -1.9208 0.9003
-10.8779 -22.7137 -1.8466 0.9039
-9.8799 -22.7018 -1.8153 0.9055
-5.2985 -22.6595 -1.7063 0.9109
-4.4391 -22.6483 -1.6922 0.9116
-3.5927 -22.6373 -1.6806 0.9122
-1.9288 -22.6158 -1.6643 0.9130
-1.1072 -22.6129 -1.6600 0.9132
-0.2886 -22.6033 -1.6575 0.9133
0.5285 -22.5938 -1.6571 0.9133
2.9927 -22.5651 -1.6690 0.9127
4.6691 -22.5502 -1.6885 0.9118
5.5237 -22.5399 -1.7016 0.9111
6.3927 -22.5295 -1.7171 0.9103
7.2790 -22.5188 -1.7352 0.9094
8.1853 -22.5079 -1.7561 0.9084
-25.9273 1.7918 -2.4951 0.9008
-25.9900 -0.0861 -2.4952 0.9008
-25.9705 -1.0256 -2.4952 0.9008
-25.9172 -1.9638 -2.4953 0.9008
-25.7093 -3.8314 -2.4955 0.9008
-25.5549 -4.7585 -2.4956 0.9008
-25.3673 -5.6794 -2.4957 0.9008
-25.1465 -6.5929 -2.4958 0.9008
-24.8930 -7.4980 -2.4959 0.9008
-24.6069 -8.3933 -2.4960 0.9008
-24.2887 -9.2778 -2.4962 0.9008
-23.9388 -10.1503 -2.4963 0.9008
-22.2316 -13.4979 -2.4969 0.9008
-21.7307 -14.2937 -2.4971 0.9008
-20.8261 -14.8042 -2.4531 0.9024
-17.0514 -17.5130 -2.3466 0.9064
-15.7514 -18.7108 -2.3481 0.9064
-15.0692 -19.2738 -2.3488 0.9064
-14.3665 -19.8112 -2.3494 0.9063
-13.6426 -20.3200 -2.3497 0.9063
-12.9007 -20.8024 -2.3500 0.9063
-12.1418 -21.2577 -2.3503 0.9063
-8.9139 -22.6904 -2.3405 0.9067
-7.0622 -22.6683 -2.2794 0.9090
-5.2986 -22.6598 -2.2341 0.9107
-2.7567 -22.6268 -2.1883 0.9125
-1.9288 -22.6161 -2.1791 0.9128
-1.1072 -22.6137 -2.1736 0.9130
-0.2886 -22.6042 -2.1703 0.9132
2.1671 -22.5755 -2.1773 0.9129
2.9928 -22.5659 -2.1854 0.9126
8.1853 -22.5079 -2.2993 0.9082
6.6850 -16.4993 -1.7091 0.9310
-21.0045 0.6901 -2.4964 0.9188
-21.0160 -0.0697 -2.4964 0.9188
-20.9570 -1.5880 -2.4965 0.9188
-20.7886 -3.0981 -2.4967 0.9188
-20.6637 -3.8477 -2.4967 0.9188
-20.5118 -4.5923 -2.4968 0.9188
-19.8323 -6.7647 -2.4891 0.9191
-18.3563 -10.2558 -2.4977 0.9188
-17.9745 -10.9132 -2.4978 0.9188
-17.1411 -12.1847 -2.4981 0.9188
-16.2179 -13.3929 -2.4984 0.9188
-15.7241 -13.9713 -2.4986 0.9188
-15.2099 -14.5315 -2.4988 0.9188
-12.7246 -15.1154 -2.3470 0.9235
-11.0159 -16.4077 -2.3475 0.9235
-10.4171 -16.7975 -2.3479 0.9235
-9.8052 -17.1668 -2.3484 0.9235
-9.1801 -17.5137 -2.3489 0.9234
-8.5428 -17.8378 -2.3493 0.9234
-7.8939 -18.1384 -2.3498 0.9234
-7.2344 -18.4154 -2.3502 0.9234
-4.5079 -19.2785 -2.3518 0.9233
-1.6832 -19.7371 -2.3530 0.9233
-0.9688 -19.7871 -2.3532 0.9233
-0.2529 -19.8110 -2.3535 0.9233
0.4634 -19.8090 -2.3537 0.9233
1.1793 -19.7807 -2.3538 0.9233
1.8937 -19.7264 -2.3540 0.9233
2.6057 -19.6462 -2.3541 0.9233
5.4105 -19.0677 -2.3544 0.9233
6.0962 -18.8597 -2.3544 0.9233
6.7739 -18.6268 -2.3544 0.9233
6.6850 -16.4995 -2.1147 0.9308
-17.5826 1.2151 -2.4972 0.9313
-17.6249 -0.0584 -2.4973 0.9313
-17.6116 -0.6955 -2.4973 0.9313
-17.5753 -1.3317 -2.4974 0.9313
-17.2016 -3.8512 -2.4976 0.9313
-16.4691 -6.2909 -2.4979 0.9313
-15.0728 -9.1514 -2.4985 0.9312
-13.5992 -11.2304 -2.4990 0.9312
-12.3055 -12.6387 -2.4994 0.9312
-11.8413 -13.0760 -2.4995 0.9312
-11.3616 -13.4963 -2.4997 0.9312
-10.3580 -14.2836 -2.5000 0.9312
-9.6657 -14.3965 -2.4569 0.9323
-7.6942 -14.6789 -2.3482 0.9352
-7.1591 -14.9484 -2.3484 0.9352
-6.6144 -15.1985 -2.3486 0.9352
-6.0611 -15.4286 -2.3487 0.9352
-5.4998 -15.6387 -2.3489 0.9352
-4.3561 -15.9972 -2.3492 0.9352
-3.7753 -16.1453 -2.3493 0.9352
-2.5993 -16.3784 -2.3497 0.9352
-2.0057 -16.4633 -2.3499 0.9352
-1.4095 -16.5266 -2.3501 0.9352
-0.1914 -14.9887 -2.1239 0.9412
0.3501 -14.9634 -2.1207 0.9413
2.1817 -16.4492 -2.3511 0.9352
2.7749 -16.3602 -2.3512 0.9352
3.3646 -16.2496 -2.3512 0.9352
3.9499 -16.1177 -2.3513 0.9352
5.6724 -15.5979 -2.3517 0.9351
6.2329 -15.3835 -2.3518 0.9351
-15.1543 0.4979 -2.4979 0.9404
-15.1626 -0.0503 -2.4979 0.9404
-15.0688 -1.6915 -2.4980 0.9404
-14.6691 -3.8459 -2.4982 0.9404
-14.3537 -4.8960 -2.4984 0.9404
-13.7407 -6.4218 -2.4986 0.9404
-12.9662 -7.8724 -2.4989 0.9404
-12.6737 -8.3363 -2.4990 0.9404
-11.6983 -9.6606 -2.4993 0.9403
-11.3419 -10.0776 -2.4995 0.9403
-10.1858 -11.2478 -2.4998 0.9403
-9.7730 -11.6092 -2.4999 0.9403
-9.3474 -11.9555 -2.5001 0.9403
-7.5284 -13.1807 -2.5006 0.9403
-6.5571 -13.6917 -2.5009 0.9403
-5.0014 -14.2216 -2.4835 0.9407
-4.4260 -14.2065 -2.4513 0.9415
-3.8644 -14.1913 -2.4230 0.9421
1.3634 -14.2027 -2.3505 0.9438
2.3863 -14.0685 -2.3507 0.9438
3.9481 -13.9139 -2.3827 0.9431
5.6071 -13.8391 -2.4599 0.9413
-13.2600 0.9164 -2.4983 0.9473
-13.2846 0.4364 -2.4983 0.9473
-13.2543 -1.0043 -2.4984 0.9473
-12.9721 -2.9043 -2.4986 0.9473
-12.8590 -3.3714 -2.4987 0.9473
-12.7290 -3.8341 -2.4987 0.9473
-12.5824 -4.2918 -2.4988 0.9473
-12.4194 -4.7440 -2.4989 0.9473
-12.2401 -5.1900 -2.4989 0.9473
-11.8339 -6.0611 -2.4991 0.9473
-11.6075 -6.4852 -2.4992 0.9473
-11.3658 -6.9007 -2.4993 0.9473
-10.8383 -7.7045 -2.4994 0.9473
-10.5532 -8.0915 -2.4995 0.9473
-9.2783 -9.5295 -2.4999 0.9473
-7.0116 -11.3063 -2.5006 0.9473
-6.1770 -11.7845 -2.5009 0.9473
-5.7473 -12.0006 -2.5010 0.9473
-5.3100 -12.2011 -2.5011 0.9473
-4.8657 -12.3857 -2.5012 0.9473
-4.4150 -12.5541 -2.5013 0.9473
-3.0305 -12.9602 -2.5017 0.9473
-1.1312 -13.2643 -2.5022 0.9473
-0.6510 -13.2971 -2.5023 0.9473
0.3114 -13.3107 -2.5026 0.9473
0.7925 -13.2914 -2.5027 0.9472
1.2724 -13.2547 -2.5028 0.9472
1.7508 -13.2006 -2.5029 0.9472
2.2270 -13.1293 -2.5030 0.9472
2.7002 -13.0408 -2.5032 0.9472
3.1700 -12.9353 -2.5033 0.9472
3.6357 -12.8128 -2.5034 0.9472
5.0020 -12.3455 -2.5037 0.9472
-11.8120 -0.4665 -2.4988 0.9528
-11.6925 -1.7425 -2.4989 0.9528
-11.3202 -3.4097 -2.4991 0.9528
-11.1898 -3.8168 -2.4991 0.9528
-10.7117 -5.0062 -2.4993 0.9528
-10.5240 -5.3902 -2.4994 0.9528
-10.3226 -5.7673 -2.4995 0.9528
-9.8796 -6.4984 -2.4996 0.9528
-9.1189 -7.5305 -2.4999 0.9528
-8.5516 -8.1703 -2.5000 0.9528
-7.6178 -9.0491 -2.5003 0.9528
-6.5942 -9.8218 -2.5006 0.9528
-6.2351 -10.0541 -2.5007 0.9528
-5.4929 -10.4792 -2.5009 0.9528
-5.1107 -10.6714 -2.5011 0.9528
-4.3267 -11.0137 -2.5013 0.9528
-3.5200 -11.2985 -2.5015 0.9528
-2.2765 -11.6147 -2.5018 0.9528
-1.8552 -11.6899 -2.5019 0.9528
-1.4315 -11.7498 -2.5020 0.9528
-0.5789 -11.8236 -2.5023 0.9528
-0.1511 -11.8373 -2.5024 0.9528
0.7046 -11.8183 -2.5026 0.9527
1.5568 -11.7375 -2.5028 0.9527
1.9801 -11.6740 -2.5029 0.9527
2.4009 -11.5953 -2.5030 0.9527
2.8186 -11.5014 -2.5031 0.9527
3.6425 -11.2685 -2.5033 0.9527
4.0476 -11.1299 -2.5034 0.9527
4.4474 -10.9767 -2.5035 0.9527
-10.6076 0.7331 -2.4990 0.9573
-10.6273 0.3491 -2.4990 0.9572
-10.6249 -0.4196 -2.4991 0.9572
-10.6029 -0.8034 -2.4991 0.9572
-10.5175 -1.5674 -2.4991 0.9572
-9.6350 -4.5029 -2.4995 0.9572
-9.4662 -4.8484 -2.4996 0.9572
-8.8864 -5.8452 -2.4998 0.9572
-8.4414 -6.4724 -2.5000 0.9572
-7.9522 -7.0658 -2.5001 0.9572
-7.6918 -7.3488 -2.5002 0.9572
-7.1413 -7.8859 -2.5004 0.9572
-6.5533 -8.3818 -2.5006 0.9572
-6.2462 -8.6135 -2.5006 0.9572
-5.9310 -8.8340 -2.5007 0.9572
-5.6081 -9.0430 -2.5008 0.9572
-5.2777 -9.2402 -2.5009 0.9572
-4.2469 -9.7584 -2.5012 0.9572
-2.7966 -10.2702 -2.5016 0.9572
-2.4236 -10.3650 -2.5017 0.9572
-2.0475 -10.4462 -2.5018 0.9572
-1.6686 -10.5138 -2.5019 0.9572
-1.2875 -10.5677 -2.5020 0.9572
-0.9047 -10.6077 -2.5021 0.9572
-0.5206 -10.6339 -2.5022 0.9572
-0.1359 -10.6462 -2.5023 0.9572
0.6337 -10.6290 -2.5025 0.9572
3.9997 -9.8718 -2.5033 0.9572
-9.6296 0.6655 -2.4992 0.9609
-9.6527 -0.0320 -2.4993 0.9609
-9.6254 -0.7294 -2.4993 0.9609
-9.4902 -1.7671 -2.4994 0.9609
-9.4203 -2.1090 -2.4995 0.9609
-9.2436 -2.7842 -2.4995 0.9609
-8.8884 -3.7688 -2.4997 0.9609
-8.7465 -4.0877 -2.4997 0.9609
-8.5932 -4.4013 -2.4998 0.9609
-8.0669 -5.3061 -2.5000 0.9609
-7.8700 -5.5944 -2.5001 0.9609
-7.6628 -5.8754 -2.5001 0.9609
-7.2188 -6.4140 -2.5003 0.9609
-6.9824 -6.6710 -2.5003 0.9609
-6.7369 -6.9193 -2.5004 0.9609
-6.4826 -7.1585 -2.5005 0.9609
-5.9488 -7.6086 -2.5007 0.9609
-4.7907 -8.3877 -2.5010 0.9609
-4.1725 -8.7125 -2.5012 0.9609
-3.2052 -9.1140 -2.5014 0.9609
-2.5385 -9.3224 -2.5016 0.9609
-1.8585 -9.4821 -2.5018 0.9609
-1.5146 -9.5434 -2.5019 0.9609
-1.1686 -9.5923 -2.5020 0.9609
-0.1234 -9.6635 -2.5022 0.9609
0.5752 -9.6478 -2.5024 0.9609
0.9236 -9.6211 -2.5025 0.9609
1.6164 -9.5298 -2.5027 0.9608
1.9599 -9.4654 -2.5028 0.9608
3.6304 -8.9602 -2.5031 0.9608
-8.7743 -0.9850 -2.4996 0.9640
-8.7331 -1.3015 -2.4996 0.9640
-8.4548 -2.5467 -2.4997 0.9640
-8.2490 -3.1510 -2.4998 0.9640
-8.0001 -3.7389 -2.4999 0.9640
-7.3784 -4.8533 -2.5001 0.9640
-7.1983 -5.1169 -2.5002 0.9640
-6.8102 -5.6239 -2.5003 0.9639
-6.6026 -5.8666 -2.5004 0.9639
-6.1618 -6.3287 -2.5005 0.9639
-5.1860 -7.1515 -2.5008 0.9639
-4.6561 -7.5079 -2.5010 0.9639
-4.3818 -7.6716 -2.5011 0.9639
-4.1017 -7.8252 -2.5011 0.9639
-3.8163 -7.9686 -2.5012 0.9639
-3.5260 -8.1016 -2.5013 0.9639
-3.2307 -8.2240 -2.5014 0.9639
-2.9314 -8.3357 -2.5015 0.9639
-2.6284 -8.4365 -2.5015 0.9639
-2.3217 -8.5263 -2.5016 0.9639
-2.0121 -8.6050 -2.5017 0.9639
-1.6998 -8.6724 -2.5018 0.9639
-0.7510 -8.8063 -2.5020 0.9639
0.2068 -8.8367 -2.5023 0.9639
0.8447 -8.7992 -2.5024 0.9639
1.4783 -8.7157 -2.5026 0.9639
2.1043 -8.5866 -2.5027 0.9639
2.7193 -8.4126 -2.5029 0.9639
3.0217 -8.3091 -2.5030 0.9639
3.3202 -8.1946 -2.5030 0.9639
-8.1075 0.5603 -2.4996 0.9666
-8.1206 -0.3207 -2.4997 0.9666
-8.1038 -0.6141 -2.4997 0.9666
-8.0764 -0.9066 -2.4997 0.9666
-8.0384 -1.1979 -2.4997 0.9666
-7.9899 -1.4878 -2.4998 0.9666
-7.9310 -1.7757 -2.4998 0.9666
-7.4831 -3.1729 -2.5000 0.9666
-7.3637 -3.4414 -2.5001 0.9666
-7.2346 -3.7054 -2.5001 0.9666
-7.0961 -3.9646 -2.5002 0.9666
-6.9483 -4.2187 -2.5002 0.9666
-6.7914 -4.4672 -2.5003 0.9666
-6.6256 -4.7098 -2.5003 0.9666
-6.4512 -4.9464 -2.5004 0.9666
-5.8782 -5.6161 -2.5006 0.9665
-5.6715 -5.8251 -2.5006 0.9665
-5.4574 -6.0264 -2.5007 0.9665
-4.7733 -6.5824 -2.5009 0.9665
-4.5324 -6.7508 -2.5010 0.9665
-4.2855 -6.9104 -2.5010 0.9665
-4.0330 -7.0610 -2.5011 0.9665
-3.7753 -7.2024 -2.5012 0.9665
-3.5126 -7.3344 -2.5013 0.9665
-3.2452 -7.4568 -2.5013 0.9665
-2.6982 -7.6722 -2.5015 0.9665
-2.1370 -7.8476 -2.5016 0.9665
-1.8519 -7.9200 -2.5017 0.9665
-1.5644 -7.9819 -2.5018 0.9665
-1.2749 -8.0335 -2.5019 0.9665
-0.6912 -8.1052 -2.5020 0.9665
-0.1038 -8.1344 -2.5022 0.9665
0.1903 -8.1330 -2.5022 0.9665
0.4842 -8.1211 -2.5023 0.9665
0.7774 -8.0985 -2.5024 0.9665
1.0697 -8.0654 -2.5024 0.9665
1.3606 -8.0216 -2.5025 0.9665
1.9366 -7.9028 -2.5027 0.9665
2.2213 -7.8278 -2.5027 0.9665
2.7811 -7.6473 -2.5029 0.9665
3.0558 -7.5420 -2.5029 0.9665
-7.5145 -0.2968 -2.4998 0.9688
-7.4385 -1.1086 -2.4999 0.9688
-7.3936 -1.3767 -2.4999 0.9688
-7.3391 -1.6431 -2.5000 0.9688
-7.1184 -2.4280 -2.5001 0.9688
-6.9246 -2.9361 -2.5001 0.9688
-6.8140 -3.1846 -2.5002 0.9688
-6.6946 -3.4289 -2.5002 0.9688
-6.4296 -3.9037 -2.5003 0.9688
-6.2844 -4.1337 -2.5004 0.9688
-5.8004 -4.7900 -2.5005 0.9688
-5.6235 -4.9967 -2.5006 0.9688
-5.0499 -5.5765 -2.5008 0.9688
-4.8452 -5.7555 -2.5008 0.9688
-4.1939 -6.2467 -2.5010 0.9688
-3.7319 -6.5337 -2.5012 0.9688
-3.0029 -6.8999 -2.5014 0.9688
-1.9773 -7.2615 -2.5016 0.9688
-1.7136 -7.3284 -2.5017 0.9688
-1.4476 -7.3857 -2.5018 0.9688
-1.1797 -7.4335 -2.5018 0.9688
-0.9103 -7.4715 -2.5019 0.9688
-0.6396 -7.4997 -2.5020 0.9688
-0.0961 -7.5267 -2.5021 0.9688
0.1761 -7.5255 -2.5022 0.9688
0.7194 -7.4935 -2.5023 0.9688
0.9898 -7.4628 -2.5024 0.9688
1.5265 -7.3722 -2.5025 0.9688
1.7920 -7.3123 -2.5026 0.9688
2.0552 -7.2430 -2.5026 0.9688
-6.9740 0.4820 -2.4999 0.9707
-6.9869 0.2295 -2.4999 0.9707
-6.9853 -0.2759 -2.5000 0.9707
-6.9708 -0.5282 -2.5000 0.9707
-6.9146 -1.0305 -2.5000 0.9707
-6.8729 -1.2798 -2.5000 0.9707
-6.8222 -1.5274 -2.5001 0.9707
-6.6170 -2.2571 -2.5002 0.9707
-6.4369 -2.7293 -2.5002 0.9707
-6.3341 -2.9603 -2.5003 0.9707
-6.1039 -3.4103 -2.5004 0.9707
-5.9767 -3.6287 -2.5004 0.9707
-5.8417 -3.8425 -2.5005 0.9707
-5.5490 -4.2547 -2.5006 0.9707
-5.0562 -4.8307 -2.5007 0.9707
-4.8784 -5.0104 -2.5008 0.9707
-4.6942 -5.1836 -2.5008 0.9707
-4.5038 -5.3500 -2.5009 0.9707
-4.1057 -5.6617 -2.5010 0.9707
-2.7913 -6.4137 -2.5014 0.9707
-2.5577 -6.5106 -2.5014 0.9707
-2.0807 -6.6787 -2.5016 0.9707
-1.0966 -6.9096 -2.5018 0.9707
0.1637 -6.9950 -2.5022 0.9707
1.1702 -6.8991 -2.5024 0.9707
1.6657 -6.7968 -2.5025 0.9707
1.9103 -6.7323 -2.5026 0.9707
2.1525 -6.6590 -2.5026 0.9707
2.3919 -6.5771 -2.5027 0.9707
2.6281 -6.4864 -2.5027 0.9707
-6.5083 0.4498 -2.5000 0.9724
-6.5188 -0.2575 -2.5001 0.9724
-6.5053 -0.4929 -2.5001 0.9724
-6.4833 -0.7278 -2.5001 0.9724
-6.3666 -1.4254 -2.5002 0.9724
-6.1751 -2.1063 -2.5003 0.9724
-5.9110 -2.7625 -2.5004 0.9724
-5.8074 -2.9745 -2.5004 0.9724
-5.6961 -3.1825 -2.5005 0.9724
-5.5775 -3.3864 -2.5005 0.9724
-5.3184 -3.7806 -2.5006 0.9724
-5.1784 -3.9705 -2.5006 0.9724
-5.0316 -4.1551 -2.5007 0.9724
-4.7184 -4.5080 -2.5008 0.9724
-4.2029 -4.9926 -2.5009 0.9724
-4.0198 -5.1414 -2.5010 0.9724
-3.8314 -5.2834 -2.5011 0.9724
-3.6380 -5.4187 -2.5011 0.9724
-3.4398 -5.5467 -2.5012 0.9724
-2.8193 -5.8869 -2.5013 0.9724
-1.9417 -6.2324 -2.5016 0.9724
-1.7151 -6.2987 -2.5016 0.9724
-1.4864 -6.3567 -2.5017 0.9724
-0.7895 -6.4807 -2.5019 0.9724
-0.5548 -6.5052 -2.5019 0.9724
-0.3193 -6.5212 -2.5020 0.9724
-0.0833 -6.5286 -2.5021 0.9724
0.1527 -6.5275 -2.5021 0.9724
0.3886 -6.5178 -2.5022 0.9724
0.6240 -6.4997 -2.5022 0.9724
1.0920 -6.4379 -2.5024 0.9724
1.7826 -6.2823 -2.5025 0.9724
2.0086 -6.2139 -2.5026 0.9724
2.2319 -6.1373 -2.5026 0.9724
2.4524 -6.0527 -2.5027 0.9724
-6.0942 0.4211 -2.5001 0.9739
-6.0914 -0.4616 -2.5002 0.9739
-6.0422 -0.9005 -2.5002 0.9739
-6.0058 -1.1183 -2.5003 0.9739
-5.9614 -1.3347 -2.5003 0.9739
-5.9094 -1.5494 -2.5003 0.9739
-5.8496 -1.7619 -2.5003 0.9739
-5.7821 -1.9723 -2.5004 0.9739
-5.7071 -2.1800 -2.5004 0.9739
-5.6247 -2.3849 -2.5004 0.9739
-5.4378 -2.7852 -2.5005 0.9739
-5.3337 -2.9800 -2.5005 0.9739
-4.8488 -3.7178 -2.5007 0.9739
-4.7114 -3.8907 -2.5007 0.9739
-4.2627 -4.3781 -2.5009 0.9739
-4.1017 -4.5294 -2.5009 0.9739
-3.9354 -4.6748 -2.5010 0.9739
-3.5875 -4.9472 -2.5011 0.9739
-3.4064 -5.0737 -2.5011 0.9739
-3.0311 -5.3068 -2.5013 0.9739
-2.8373 -5.4130 -2.5013 0.9739
-2.4389 -5.6041 -2.5014 0.9739
-2.0278 -5.7660 -2.5015 0.9739
-1.8181 -5.8356 -2.5016 0.9739
-1.6059 -5.8977 -2.5016 0.9739
-1.1757 -5.9986 -2.5018 0.9739
-0.0780 -6.1129 -2.5020 0.9739
0.1430 -6.1118 -2.5021 0.9739
0.3638 -6.1028 -2.5022 0.9739
0.5842 -6.0858 -2.5022 0.9739
0.8039 -6.0608 -2.5023 0.9739
1.0224 -6.0279 -2.5023 0.9739
1.2397 -5.9872 -2.5024 0.9739
1.6691 -5.8822 -2.5025 0.9739
-5.7232 0.3955 -2.5002 0.9753
-5.7369 -0.0190 -2.5003 0.9753
-5.7206 -0.4335 -2.5003 0.9753
-5.6744 -0.8456 -2.5003 0.9753
-5.6402 -1.0503 -2.5003 0.9753
-5.4302 -1.8522 -2.5004 0.9753
-5.3597 -2.0473 -2.5005 0.9753
-5.1979 -2.4293 -2.5005 0.9753
-5.1068 -2.6156 -2.5006 0.9753
-5.0090 -2.7986 -2.5006 0.9753
-4.9046 -2.9779 -2.5006 0.9753
-4.7938 -3.1532 -2.5007 0.9753
-4.6768 -3.3245 -2.5007 0.9753
-4.2896 -3.8115 -2.5008 0.9753
-4.1491 -3.9641 -2.5009 0.9753
-4.0032 -4.1116 -2.5009 0.9753
-3.8519 -4.2537 -2.5010 0.9753
-3.6958 -4.3902 -2.5010 0.9753
-3.5348 -4.5211 -2.5011 0.9753
-3.3691 -4.6459 -2.5011 0.9753
-3.1990 -4.7648 -2.5012 0.9753
-3.0247 -4.8774 -2.5012 0.9753
-2.8465 -4.9837 -2.5013 0.9753
-2.6646 -5.0834 -2.5013 0.9753
-2.4791 -5.1765 -2.5014 0.9753
-1.9043 -5.4148 -2.5015 0.9753
-1.1041 -5.6332 -2.5018 0.9753
-0.8998 -5.6696 -2.5018 0.9753
-0.2807 -5.7340 -2.5020 0.9753
-0.0733 -5.7405 -2.5020 0.9753
0.1343 -5.7396 -2.5021 0.9753
0.9602 -5.6608 -2.5023 0.9753
1.3667 -5.5768 -2.5024 0.9753
1.5674 -5.5238 -2.5024 0.9753
1.7661 -5.4637 -2.5025 0.9753
1.9625 -5.3964 -2.5025 0.9753
-5.3887 0.3724 -2.5003 0.9765
-5.4016 -0.0179 -2.5003 0.9765
-5.3680 -0.6026 -2.5004 0.9765
-5.3427 -0.7962 -2.5004 0.9765
-5.2253 -1.3700 -2.5005 0.9765
-5.1128 -1.7439 -2.5005 0.9765
-4.8941 -2.2873 -2.5006 0.9765
-4.8083 -2.4627 -2.5006 0.9765
-4.6179 -2.8038 -2.5007 0.9765
-4.5136 -2.9689 -2.5007 0.9765
-4.2874 -3.2873 -2.5008 0.9765
-4.0389 -3.5886 -2.5009 0.9765
-3.6268 -4.0050 -2.5010 0.9765
-3.1721 -4.3743 -2.5012 0.9765
-3.0120 -4.4862 -2.5012 0.9765
-2.8479 -4.5922 -2.5013 0.9765
-2.5087 -4.7862 -2.5014 0.9765
-2.1565 -4.9551 -2.5015 0.9765
-1.9760 -5.0300 -2.5015 0.9765
-0.8471 -5.3380 -2.5018 0.9765
-0.6537 -5.3653 -2.5019 0.9765
-0.4593 -5.3855 -2.5019 0.9765
-0.0690 -5.4048 -2.5020 0.9765
1.4757 -5.2007 -2.5024 0.9765
1.6628 -5.1441 -2.5024 0.9765
2.0301 -5.0107 -2.5025 0.9765
-5.0853 0.3514 -2.5004 0.9775
-5.0947 0.1674 -2.5004 0.9775
-5.0974 -0.0169 -2.5004 0.9775
-5.0829 -0.3852 -2.5004 0.9775
-5.0657 -0.5687 -2.5005 0.9775
-5.0115 -0.9332 -2.5005 0.9775
-4.9745 -1.1137 -2.5005 0.9775
-4.9310 -1.2929 -2.5005 0.9775
-4.8811 -1.4703 -2.5006 0.9775
-4.8248 -1.6457 -2.5006 0.9775
-4.6934 -1.9901 -2.5006 0.9775
-4.5375 -2.3240 -2.5007 0.9775
-4.3578 -2.6458 -2.5008 0.9775
-4.2594 -2.8017 -2.5008 0.9775
-4.1554 -2.9539 -2.5008 0.9775
-3.9312 -3.2465 -2.5009 0.9775
-3.4225 -3.7794 -2.5011 0.9775
-3.1406 -4.0169 -2.5011 0.9775
-2.0350 -4.6759 -2.5015 0.9775
-1.6919 -4.8110 -2.5016 0.9775
-1.5169 -4.8691 -2.5016 0.9775
-1.1612 -4.9661 -2.5017 0.9775
-0.6168 -5.0629 -2.5018 0.9775
0.1193 -5.0993 -2.5020 0.9775
0.4874 -5.0776 -2.5021 0.9775
0.6707 -5.0568 -2.5022 0.9775
0.8530 -5.0293 -2.5022 0.9775
1.3926 -4.9076 -2.5023 0.9775
-4.8084 0.3323 -2.5005 0.9785
-4.8173 0.1582 -2.5005 0.9785
-4.8199 -0.0160 -2.5005 0.9785
-4.7674 -0.7105 -2.5005 0.9785
-4.7386 -0.8824 -2.5006 0.9785
-4.7037 -1.0531 -2.5006 0.9785
-4.6626 -1.2224 -2.5006 0.9785
-4.6154 -1.3902 -2.5006 0.9785
-4.5030 -1.7200 -2.5007 0.9785
-4.3670 -2.0409 -2.5007 0.9785
-4.2904 -2.1975 -2.5007 0.9785
-4.0275 -2.6491 -2.5008 0.9785
-3.7172 -3.0697 -2.5009 0.9785
-3.6038 -3.2021 -2.5010 0.9785
-3.4858 -3.3304 -2.5010 0.9785
-3.1049 -3.6883 -2.5011 0.9785
-2.9696 -3.7982 -2.5012 0.9785
-2.6875 -4.0029 -2.5013 0.9785
-2.5411 -4.0976 -2.5013 0.9785
-2.3914 -4.1868 -2.5013 0.9785
-2.2385 -4.2706 -2.5014 0.9785
-1.9242 -4.4213 -2.5015 0.9785
-1.7631 -4.4881 -2.5015 0.9785
-1.5998 -4.5489 -2.5016 0.9785
-1.4343 -4.6039 -2.5016 0.9785
-1.2670 -4.6528 -2.5017 0.9785
-0.9275 -4.7323 -2.5017 0.9785
-0.7559 -4.7629 -2.5018 0.9785
-0.5832 -4.7872 -2.5018 0.9785
-0.4098 -4.8052 -2.5019 0.9785
0.1128 -4.8216 -2.5020 0.9785
0.6341 -4.7813 -2.5021 0.9785
0.8066 -4.7553 -2.5022 0.9785
1.1481 -4.6848 -2.5023 0.9785
1.3167 -4.6403 -2.5023 0.9785
1.4836 -4.5897 -2.5023 0.9785
1.6486 -4.5331 -2.5024 0.9785
-4.5655 -0.0151 -2.5005 0.9794
-4.5525 -0.3450 -2.5006 0.9794
-4.5371 -0.5093 -2.5006 0.9794
-4.5157 -0.6730 -2.5006 0.9794
-4.4885 -0.8358 -2.5006 0.9794
-4.4554 -0.9975 -2.5006 0.9794
-4.3717 -1.3168 -2.5007 0.9794
-4.2652 -1.6292 -2.5007 0.9794
-4.0639 -2.0815 -2.5008 0.9794
-3.9861 -2.2271 -2.5008 0.9794
-3.9030 -2.3697 -2.5009 0.9794
-3.4136 -3.0331 -2.5010 0.9794
-3.1856 -3.2718 -2.5011 0.9794
-2.5456 -3.7916 -2.5013 0.9794
-2.4069 -3.8812 -2.5013 0.9794
-2.2651 -3.9657 -2.5014 0.9794
-2.1203 -4.0451 -2.5014 0.9794
-1.8228 -4.1879 -2.5015 0.9794
-1.6700 -4.2511 -2.5015 0.9794
-1.5153 -4.3087 -2.5016 0.9794
-1.3586 -4.3607 -2.5016 0.9794
-0.8785 -4.4824 -2.5017 0.9794
-0.7159 -4.5113 -2.5018 0.9794
-0.5524 -4.5343 -2.5018 0.9794
-0.2234 -4.5626 -2.5019 0.9794
0.1069 -4.5670 -2.5020 0.9794
0.2719 -4.5602 -2.5020 0.9794
0.4365 -4.5474 -2.5021 0.9794
0.6007 -4.5287 -2.5021 0.9794
1.2472 -4.3952 -2.5023 0.9794
1.7157 -4.2345 -2.5024 0.9794
-4.3042 -0.4832 -2.5006 0.9802
-4.2267 -0.9463 -2.5007 0.9802
-4.1898 -1.0985 -2.5007 0.9802
-4.1473 -1.2493 -2.5007 0.9802
-4.0995 -1.3984 -2.5007 0.9802
-3.9878 -1.6909 -2.5008 0.9802
-3.9241 -1.8340 -2.5008 0.9802
-3.8553 -1.9746 -2.5008 0.9802
-3.7815 -2.1128 -2.5009 0.9802
-3.7027 -2.2481 -2.5009 0.9802
-3.6190 -2.3805 -2.5009 0.9802
-3.4376 -2.6358 -2.5010 0.9802
-3.1322 -2.9926 -2.5011 0.9802
-3.0221 -3.1038 -2.5011 0.9802
-2.9079 -3.2111 -2.5012 0.9802
-2.7900 -3.3142 -2.5012 0.9802
-2.6684 -3.4129 -2.5012 0.9802
-2.4149 -3.5969 -2.5013 0.9802
-2.2833 -3.6819 -2.5013 0.9802
-2.1488 -3.7621 -2.5014 0.9802
-1.8714 -3.9077 -2.5015 0.9802
-1.5842 -4.0328 -2.5015 0.9802
-1.4375 -4.0875 -2.5016 0.9802
-1.1388 -4.1808 -2.5017 0.9802
-0.9866 -4.2193 -2.5017 0.9802
-0.6792 -4.2797 -2.5018 0.9802
-0.5240 -4.3015 -2.5018 0.9802
-0.3682 -4.3177 -2.5019 0.9802
-0.0553 -4.3331 -2.5019 0.9802
0.1014 -4.3324 -2.5020 0.9802
0.4141 -4.3138 -2.5021 0.9802
0.5698 -4.2961 -2.5021 0.9802
