ply
format ascii 1.0
element vertex 868
property float32 x
property float32 y
property float32 z
property float32 I
end_header
-8.2943 14.4678 2.9406 0.9345
-27.7498 28.4662 7.0097 0.8509
-22.4885 21.4654 5.4817 0.8814
-22.4846 17.2381 4.9957 0.8913
-22.4123 14.7497 4.7309 0.8968
-24.2451 14.7330 5.0025 0.8912
-28.4864 14.6140 5.6453 0.8781
-37.8561 14.5075 7.1484 0.8482
-38.4269 -26.6540 8.2461 0.8270
-32.9776 -26.5842 7.4689 0.8419
-28.5396 -28.6032 7.1247 0.8486
-26.8575 -28.9298 6.9605 0.8519
-24.5472 -32.9540 7.2456 0.8463
-17.3053 -25.0679 5.3711 0.8836
-8.9966 14.4598 2.6089 0.9334
-9.7302 14.4515 2.6689 0.9319
-11.3090 14.4336 2.8090 0.9285
-23.9760 28.4291 5.6972 0.8603
-25.8372 28.4880 5.8918 0.8559
-27.1106 27.8104 5.9498 0.8546
-22.4887 21.4656 4.7626 0.8818
-22.4555 18.5370 4.4607 0.8888
-22.4846 17.2381 4.3403 0.8917
-22.4125 14.7498 4.1103 0.8971
-24.2452 14.7330 4.3462 0.8915
-26.1721 14.6404 4.5941 0.8857
-28.4865 14.6141 4.9047 0.8785
-34.2224 14.5488 5.6968 0.8603
-37.8562 14.5075 6.2106 0.8487
-40.0144 -25.6719 7.2831 0.8250
-38.2410 -26.5252 7.1296 0.8283
-35.6797 -28.7625 7.0208 0.8307
-33.3966 -31.1432 6.9955 0.8313
-32.8580 -32.9313 7.1266 0.8284
-30.8237 -35.6980 7.2253 0.8263
-28.6262 -35.6731 7.0069 0.8310
-17.3696 -25.1611 4.6838 0.8836
-8.2944 14.4679 2.1717 0.9349
-9.7302 14.4515 2.2687 0.9321
-10.4994 14.4428 2.3252 0.9305
-23.9760 28.4291 4.8428 0.8607
-25.8372 28.4880 5.0082 0.8563
-27.7499 28.4662 5.1768 0.8518
-22.4889 21.4657 4.0484 0.8821
-22.4556 18.5371 3.7918 0.8892
-22.4262 15.9449 3.5833 0.8949
-24.2452 14.7330 3.6944 0.8919
-28.4865 14.6141 4.1692 0.8788
-31.1402 14.5839 4.4778 0.8705
-39.9603 -25.6372 6.1825 0.8257
-17.3137 -25.0801 3.9686 0.8843
-8.9966 14.4599 1.8287 0.9338
-24.0428 28.5084 4.0046 0.8607
-25.8372 28.4880 4.1298 0.8567
-27.7499 28.4663 4.2689 0.8522
-22.4890 21.4659 3.3384 0.8824
-22.4558 18.5372 3.1268 0.8895
-22.4263 15.9450 2.9548 0.8952
-24.1310 14.6636 3.0321 0.8926
-38.0355 14.5762 4.3740 0.8489
-40.0276 -25.6804 5.1069 0.8259
-17.3780 -25.1733 3.2847 0.8842
-8.2944 14.4679 1.4117 0.9352
-10.4995 14.4428 1.5115 0.9308
-24.0428 28.5084 3.1570 0.8610
-25.8372 28.4880 3.2557 0.8569
-22.4892 21.4661 2.6318 0.8827
-22.4559 18.5373 2.4650 0.8897
-22.4408 17.2045 2.3937 0.8927
-22.4129 14.7501 2.2713 0.8979
-28.7871 13.4819 2.6909 0.8802
-28.7013 12.2017 2.6401 0.8823
-37.8113 14.4903 3.4278 0.8500
-39.9735 -25.6456 4.0204 0.8264
-40.0621 -27.7883 4.1273 0.8222
-17.3822 -25.1794 2.5901 0.8844
-8.2944 14.4679 1.0341 0.9353
-9.0403 14.5301 1.0612 0.9337
-9.7775 14.5217 1.0856 0.9322
-10.4994 14.4428 1.1072 0.9309
-19.7739 23.4466 1.9020 0.8843
-22.2877 22.8631 1.9799 0.8799
-22.4722 19.9539 1.8636 0.8865
-22.4409 17.2047 1.7535 0.8929
-22.4266 15.9452 1.7064 0.8956
-27.5013 12.8797 1.8831 0.8854
-28.5613 12.1421 1.9245 0.8830
-37.6927 9.9431 2.4173 0.8554
-8.2944 14.4679 0.6576 0.9354
-11.3090 14.4336 0.7230 0.9292
-22.4562 18.5376 1.1482 0.8900
-22.4268 15.9453 1.0850 0.8957
-22.4132 14.7502 1.0580 0.8982
-24.2453 14.7331 1.1187 0.8926
-35.2334 12.0663 1.4685 0.8615
-39.8510 -25.5670 1.8670 0.8273
-18.3778 -24.6717 1.2131 0.8841
-17.0211 -24.6563 1.1814 0.8870
-9.0403 14.5301 0.2891 0.9338
-9.7775 14.5217 0.2957 0.9324
-10.4995 14.4428 0.3016 0.9311
-11.3090 14.4336 0.3097 0.9293
-19.7742 23.4470 0.5181 0.8845
-20.7516 22.8806 0.5218 0.8838
-22.4897 21.4665 0.5252 0.8830
-22.4564 18.5377 0.4919 0.8900
-22.4847 17.2382 0.4786 0.8928
-22.4269 15.9454 0.4648 0.8958
-24.2453 14.7331 0.4792 0.8927
-26.1723 14.6405 0.5066 0.8869
-28.4867 14.6142 0.5408 0.8798
-34.2226 14.5489 0.6281 0.8618
-39.4473 -25.3080 0.7917 0.8290
-18.3778 -24.6717 0.5197 0.8842
-17.0211 -24.6563 0.5061 0.8870
-8.2944 14.4679 -0.0939 0.9355
-9.7303 14.4516 -0.0981 0.9327
-10.4995 14.4428 -0.1005 0.9311
-18.2214 21.6058 -0.1591 0.8931
-19.5813 21.5903 -0.1641 0.8899
-22.4898 21.4667 -0.1750 0.8831
-22.4414 17.2050 -0.1592 0.8931
-22.4271 15.9455 -0.1549 0.8958
-22.4135 14.7504 -0.1511 0.8982
-24.1311 14.6637 -0.1590 0.8932
-34.2227 14.5489 -0.2094 0.8618
-37.8566 14.5076 -0.2283 0.8503
-37.6774 9.9391 -0.2194 0.8557
-35.8315 -22.9882 -0.2397 0.8434
-30.6508 -22.9378 -0.2155 0.8580
-28.3903 -22.8861 -0.2053 0.8643
-26.3567 -22.8604 -0.1964 0.8697
-19.6785 -22.7903 -0.1695 0.8865
-15.7063 -22.7515 -0.1557 0.8953
-8.2944 14.4679 -0.4696 0.9354
-9.7303 14.4516 -0.4906 0.9327
-11.3090 14.4336 -0.5163 0.9293
-16.8519 18.5809 -0.7063 0.9045
-17.5983 18.0526 -0.7099 0.9040
-18.8976 18.0379 -0.7356 0.9007
-22.4567 18.5379 -0.8199 0.8900
-22.4415 17.2051 -0.7962 0.8930
-24.1311 14.6637 -0.7951 0.8932
-28.4867 14.6142 -0.9015 0.8797
-27.1302 12.7059 -0.8436 0.8870
-37.6723 9.9378 -1.0971 0.8556
-38.9013 -23.0238 -1.2729 0.8345
-33.1045 -22.9622 -1.1344 0.8511
-30.6515 -22.9384 -1.0780 0.8580
-28.3914 -22.8870 -1.0268 0.8642
-26.3577 -22.8613 -0.9825 0.8697
-24.5024 -22.8491 -0.9434 0.8745
-22.7778 -22.8285 -0.9080 0.8789
-21.1756 -22.8094 -0.8764 0.8829
-16.9572 -22.7645 -0.7993 0.8926
-15.7068 -22.7523 -0.7785 0.8953
-11.3090 14.4336 -0.9299 0.9292
-15.8820 16.2921 -1.1539 0.9129
-17.0546 16.2787 -1.1957 0.9099
-18.3170 16.2644 -1.2423 0.9066
-18.9459 15.6398 -1.2459 0.9063
-22.4417 17.2052 -1.4341 0.8929
-22.4274 15.9457 -1.3956 0.8956
-22.4137 14.7506 -1.3608 0.8981
-26.1724 14.6405 -1.5209 0.8868
-27.9557 11.8847 -1.5406 0.8854
-33.6231 11.5148 -1.8024 0.8673
-47.1139 14.2615 -2.4964 0.8211
-37.4463 9.8781 -1.9640 0.8563
-49.1430 5.6197 -2.5085 0.8203
-49.1405 -1.4845 -2.4933 0.8213
-48.9043 -5.0170 -2.4932 0.8213
-48.6910 -6.7745 -2.4931 0.8213
-47.1773 -13.6838 -2.4912 0.8214
-46.0762 -17.0458 -2.4915 0.8214
-38.9010 -23.0236 -2.2925 0.8344
-35.8312 -22.9880 -2.1590 0.8432
-30.6522 -22.9389 -1.9416 0.8578
-28.3925 -22.8879 -1.8495 0.8641
-22.7771 -22.8279 -1.6354 0.8788
-19.6791 -22.7910 -1.5271 0.8864
-15.7073 -22.7530 -1.4021 0.8952
-9.7303 14.4516 -1.2774 0.9325
-14.0298 15.4692 -1.5312 0.9197
-15.2116 14.5196 -1.5419 0.9191
-16.8959 13.9475 -1.6064 0.9159
-17.7402 13.6008 -1.6390 0.9142
-22.4139 14.7507 -1.9674 0.8980
-26.1724 14.6405 -2.1989 0.8867
-26.8148 12.5582 -2.1711 0.8880
-28.6833 10.9922 -2.2523 0.8841
-33.4272 6.2863 -2.4939 0.8725
-33.7924 3.8643 -2.4939 0.8725
-33.9830 1.4223 -2.4939 0.8725
-33.9394 -2.2506 -2.4940 0.8725
-33.8371 -3.4712 -2.4940 0.8725
-33.6910 -4.6875 -2.4941 0.8725
-33.2682 -7.1004 -2.4942 0.8725
-32.9921 -8.2940 -2.4943 0.8725
-31.9095 -11.8049 -2.4946 0.8724
-30.9805 -14.0721 -2.4949 0.8724
-30.2267 -15.0654 -2.4763 0.8733
-26.9027 -17.2598 -2.3436 0.8797
-26.2751 -18.2251 -2.3446 0.8796
-25.6094 -19.1651 -2.3453 0.8796
-24.9052 -20.0768 -2.3456 0.8796
-24.1686 -20.9627 -2.3458 0.8796
-23.4007 -21.8217 -2.3461 0.8796
-21.1745 -22.8082 -2.2819 0.8827
-18.2793 -22.7789 -2.1415 0.8895
-15.7078 -22.7537 -2.0273 0.8950
-8.2944 14.4679 -1.6011 0.9352
-9.0404 14.5302 -1.6429 0.9335
-9.7775 14.5218 -1.6807 0.9321
-10.4995 14.4429 -1.7143 0.9308
-14.0434 16.6517 -2.0913 0.9162
-14.0299 15.4694 -2.0050 0.9195
-14.3582 12.7492 -1.8434 0.9257
-12.7207 10.5009 -1.5836 0.9359
-17.9579 11.8182 -2.0639 0.9172
-19.1023 11.6078 -2.1460 0.9141
-22.1110 10.3553 -2.3440 0.9065
-22.4690 9.5521 -2.3440 0.9065
-22.7978 8.7367 -2.3439 0.9066
-24.5954 8.4231 -2.4959 0.9008
-24.8822 7.5319 -2.4959 0.9008
-25.1369 6.6310 -2.4958 0.9008
-25.5483 4.8046 -2.4958 0.9008
-25.9172 2.0216 -2.4957 0.9008
-25.9732 1.0871 -2.4957 0.9008
-25.9845 -0.7850 -2.4958 0.9008
-25.9397 -1.7201 -2.4958 0.9008
-25.7495 -3.5826 -2.4959 0.9008
-25.6044 -4.5075 -2.4959 0.9008
-24.6949 -8.1376 -2.4962 0.9008
-24.3867 -9.0218 -2.4963 0.9008
-24.0471 -9.8944 -2.4964 0.9008
-23.2746 -11.6004 -2.4966 0.9008
-19.6500 -14.7053 -2.3563 0.9061
-19.0188 -15.3315 -2.3453 0.9065
-18.4555 -16.0074 -2.3454 0.9065
-17.8683 -16.6626 -2.3456 0.9065
-17.2611 -17.2996 -2.3462 0.9065
-16.6320 -17.9153 -2.3469 0.9064
-15.3084 -19.0768 -2.3482 0.9064
-14.6157 -19.6212 -2.3489 0.9064
-8.9472 14.3805 -2.0118 0.9341
-10.4995 14.4429 -2.1210 0.9306
-11.3091 14.4337 -2.1781 0.9288
-12.8820 13.2146 -2.1921 0.9284
-13.3489 12.7416 -2.1920 0.9284
-13.7984 12.2521 -2.1920 0.9284
-12.6344 10.4297 -1.9461 0.9361
-14.3445 10.9974 -2.1471 0.9298
-16.4929 10.8541 -2.3453 0.9235
-16.8725 10.2529 -2.3452 0.9236
-17.2303 9.6384 -2.3452 0.9236
-17.5656 9.0115 -2.3451 0.9236
-20.3253 5.3617 -2.4970 0.9188
-20.5050 4.6263 -2.4969 0.9188
-20.6581 3.8850 -2.4969 0.9188
-21.0017 0.8790 -2.4969 0.9188
-21.0108 -0.6347 -2.4969 0.9188
-20.8205 -2.8968 -2.4970 0.9188
-20.5588 -4.3879 -2.4971 0.9188
-20.3879 -5.1254 -2.4972 0.9188
-20.1907 -5.8563 -2.4972 0.9188
-19.9673 -6.5797 -2.4973 0.9188
-18.8183 -9.3793 -2.4976 0.9188
-18.0959 -10.7101 -2.4978 0.9188
-16.3738 -13.1994 -2.4983 0.9188
-15.3830 -14.3450 -2.4985 0.9188
-14.4665 -14.4987 -2.4329 0.9208
-13.4508 -14.4883 -2.3483 0.9235
-12.9112 -14.9529 -2.3467 0.9235
-6.5623 11.4466 -1.8695 0.9481
-8.1772 13.1429 -2.1932 0.9394
-8.6448 12.8394 -2.1931 0.9394
-10.3967 11.4634 -2.1928 0.9394
-10.9281 11.2102 -2.2182 0.9387
-13.0499 10.0049 -2.3299 0.9357
-14.6749 8.9174 -2.4331 0.9330
-16.2239 6.8972 -2.4979 0.9313
-16.4615 6.3085 -2.4978 0.9313
-16.8724 5.1073 -2.4978 0.9313
-17.0451 4.4964 -2.4977 0.9313
-17.1958 3.8797 -2.4977 0.9313
-17.3242 3.2580 -2.4977 0.9313
-17.4302 2.6321 -2.4977 0.9313
-17.6124 0.7371 -2.4977 0.9313
-17.6276 0.1025 -2.4977 0.9313
-17.6200 -0.5323 -2.4977 0.9313
-17.5363 -1.7990 -2.4977 0.9313
-17.4604 -2.4293 -2.4978 0.9313
-17.3618 -3.0564 -2.4978 0.9313
-17.2408 -3.6797 -2.4979 0.9313
-16.9319 -4.9111 -2.4980 0.9313
-16.5353 -6.1172 -2.4981 0.9313
-16.3048 -6.7088 -2.4981 0.9312
-16.0531 -7.2918 -2.4982 0.9312
-15.1746 -8.9812 -2.4984 0.9312
-14.8421 -9.5221 -2.4985 0.9312
-14.4900 -10.0507 -2.4986 0.9312
-14.1193 -10.5663 -2.4987 0.9312
-13.7302 -11.0683 -2.4988 0.9312
-12.8991 -12.0287 -2.4990 0.9312
-11.5284 -13.3514 -2.4994 0.9312
-10.5387 -14.1479 -2.4996 0.9312
-9.8895 -14.3255 -2.4665 0.9321
-8.7871 11.2148 -2.3471 0.9439
-9.1848 10.8907 -2.3470 0.9439
-9.5707 10.5526 -2.3469 0.9439
-9.9441 10.2008 -2.3468 0.9439
-10.3047 9.8359 -2.3468 0.9439
-10.6518 9.4581 -2.3467 0.9439
-10.9969 9.0779 -2.3491 0.9438
-11.7678 9.0219 -2.4428 0.9417
-12.3617 8.7891 -2.4987 0.9404
-12.6698 8.3380 -2.4987 0.9404
-13.2364 7.4043 -2.4985 0.9404
-13.4942 6.9227 -2.4985 0.9404
-13.7345 6.4323 -2.4984 0.9404
-13.9569 5.9334 -2.4984 0.9404
-14.1613 5.4270 -2.4984 0.9404
-14.3474 4.9135 -2.4983 0.9404
-14.5148 4.3937 -2.4983 0.9404
-14.6635 3.8681 -2.4983 0.9404
-14.7931 3.3376 -2.4983 0.9404
-15.1318 -1.0035 -2.4983 0.9404
-15.0207 -2.0899 -2.4983 0.9404
-14.9359 -2.6294 -2.4984 0.9404
-14.8317 -3.1655 -2.4984 0.9404
-14.0263 -5.7713 -2.4986 0.9404
-13.5753 -6.7661 -2.4988 0.9404
-13.0539 -7.7260 -2.4989 0.9404
-12.7676 -8.1912 -2.4990 0.9404
-12.1460 -9.0895 -2.4991 0.9404
-11.4609 -9.9407 -2.4993 0.9403
-10.7166 -10.7405 -2.4995 0.9403
-10.3233 -11.1199 -2.4996 0.9403
-9.9167 -11.4848 -2.4997 0.9403
-9.0652 -12.1698 -2.4999 0.9403
-8.6215 -12.4888 -2.5000 0.9403
-6.2121 10.8359 -2.3477 0.9504
-6.5981 10.6048 -2.3476 0.9504
-7.3436 10.1017 -2.3474 0.9504
-8.3894 9.2501 -2.3472 0.9504
-8.9050 9.1349 -2.3979 0.9494
-10.5519 8.0897 -2.4991 0.9473
-11.1062 7.3091 -2.4990 0.9473
-11.3620 6.9043 -2.4990 0.9473
-11.6030 6.4906 -2.4989 0.9473
-12.2346 5.2013 -2.4988 0.9473
-12.5769 4.3072 -2.4988 0.9473
-12.7238 3.8515 -2.4987 0.9473
-12.8541 3.3908 -2.4987 0.9473
-12.9677 2.9258 -2.4987 0.9473
-13.0647 2.4569 -2.4987 0.9473
-13.1446 1.9849 -2.4987 0.9473
-13.2533 1.0338 -2.4987 0.9473
-13.2820 0.5559 -2.4987 0.9473
-13.2876 -0.4014 -2.4987 0.9473
-13.0015 -2.7749 -2.4988 0.9473
-12.8933 -3.2413 -2.4988 0.9473
-12.7685 -3.7035 -2.4989 0.9473
-12.6270 -4.1609 -2.4989 0.9473
-12.2953 -5.0590 -2.4990 0.9473
-12.1054 -5.4986 -2.4991 0.9473
-11.8999 -5.9311 -2.4991 0.9473
-11.6789 -6.3558 -2.4992 0.9473
-11.4427 -6.7724 -2.4993 0.9473
-11.1918 -7.1802 -2.4993 0.9473
-10.6466 -7.9675 -2.4995 0.9473
-10.3532 -8.3460 -2.4995 0.9473
-9.3937 -9.4146 -2.4998 0.9473
-8.6924 -10.0670 -2.5000 0.9473
-7.9459 -10.6672 -2.5001 0.9473
-7.5570 -10.9469 -2.5002 0.9473
-5.8675 9.4307 -2.3478 0.9556
-6.2254 9.2461 -2.3562 0.9555
-7.1963 9.1846 -2.4664 0.9534
-7.6243 9.0403 -2.4998 0.9528
-8.2546 8.4677 -2.4997 0.9528
-8.5540 8.1648 -2.4996 0.9528
-9.1189 7.5277 -2.4995 0.9528
-9.6367 6.8516 -2.4994 0.9528
-10.1041 6.1401 -2.4993 0.9528
-10.3187 5.7722 -2.4993 0.9528
-10.4886 5.3808 -2.4918 0.9529
-10.6754 4.9996 -2.4918 0.9529
-10.8806 4.6256 -2.4991 0.9528
-11.0073 4.2183 -2.4917 0.9529
-11.1850 3.8305 -2.4991 0.9528
-11.6898 1.7652 -2.4990 0.9528
-11.7458 1.3432 -2.4990 0.9528
-11.7866 0.9193 -2.4990 0.9528
-11.8120 0.4944 -2.4990 0.9528
-11.8171 -0.3570 -2.4990 0.9528
-11.7966 -0.7822 -2.4990 0.9528
-11.7099 -1.6292 -2.4991 0.9528
-11.4663 -2.8826 -2.4992 0.9528
-11.3553 -3.2936 -2.4992 0.9528
-11.2295 -3.7004 -2.4992 0.9528
-10.9344 -4.4991 -2.4993 0.9528
-10.3861 -5.6523 -2.4995 0.9528
-10.1761 -6.0228 -2.4995 0.9528
-9.9529 -6.3854 -2.4996 0.9528
-9.7167 -6.7398 -2.4997 0.9528
-9.2070 -7.4220 -2.4998 0.9528
-8.9340 -7.7490 -2.4999 0.9528
-8.6495 -8.0659 -2.4999 0.9528
-8.3538 -8.3723 -2.5000 0.9528
-8.0471 -8.6679 -2.5001 0.9528
-7.4028 -9.2252 -2.5002 0.9528
-5.2912 9.2295 -2.5003 0.9572
-5.6200 9.0327 -2.5003 0.9572
-6.5607 8.3734 -2.5001 0.9572
-6.8578 8.1315 -2.5000 0.9572
-8.6680 6.1629 -2.4996 0.9572
-8.8842 5.8467 -2.4996 0.9572
-9.2816 5.1920 -2.4995 0.9572
-9.4624 4.8544 -2.4995 0.9572
-9.6025 4.4971 -2.4920 0.9574
-9.9304 3.8056 -2.4994 0.9572
-10.0609 3.4455 -2.4994 0.9572
-10.1783 3.0810 -2.4993 0.9572
-10.2826 2.7125 -2.4993 0.9572
-10.6249 0.4447 -2.4993 0.9572
-10.6341 0.0618 -2.4993 0.9572
-10.6110 -0.7037 -2.4993 0.9572
-10.5330 -1.4655 -2.4994 0.9572
-10.4735 -1.8438 -2.4994 0.9572
-10.4004 -2.2198 -2.4994 0.9572
-10.1008 -3.3285 -2.4995 0.9572
-9.6832 -4.3985 -2.4996 0.9572
-9.3421 -5.0842 -2.4997 0.9572
-8.7400 -6.0623 -2.4999 0.9572
-8.2814 -6.6759 -2.5000 0.9572
-6.9528 -8.0522 -2.5003 0.9572
-6.6588 -8.2977 -2.5004 0.9572
-6.3558 -8.5323 -2.5005 0.9572
-6.0445 -8.7558 -2.5005 0.9572
-5.1016 8.1996 -2.5004 0.9609
-5.6782 7.8108 -2.5003 0.9609
-5.9556 7.6011 -2.5002 0.9609
-6.2253 7.3815 -2.5002 0.9609
-6.4869 7.1524 -2.5001 0.9609
-6.7401 6.9141 -2.5001 0.9609
-6.9845 6.6668 -2.5000 0.9609
-7.2199 6.4109 -2.5000 0.9609
-7.4459 6.1466 -2.4999 0.9609
-7.6623 5.8744 -2.4999 0.9609
-7.8687 5.5946 -2.4998 0.9609
-8.2507 5.0137 -2.4997 0.9609
-8.5899 4.4068 -2.4997 0.9609
-8.7429 4.0946 -2.4996 0.9609
-8.8846 3.7771 -2.4996 0.9609
-9.0147 3.4547 -2.4996 0.9609
-9.1332 3.1278 -2.4996 0.9609
-9.2398 2.7969 -2.4996 0.9609
-9.4171 2.1246 -2.4995 0.9609
-9.5935 0.7483 -2.4915 0.9610
-9.6536 0.0561 -2.4995 0.9609
-9.6326 -0.6387 -2.4995 0.9609
-9.5618 -1.3304 -2.4996 0.9609
-9.4414 -2.0151 -2.4996 0.9609
-9.3628 -2.3538 -2.4996 0.9609
-9.1694 -3.0215 -2.4997 0.9609
-8.7905 -3.9929 -2.4998 0.9609
-8.4806 -4.6153 -2.4999 0.9609
-8.3091 -4.9178 -2.4999 0.9609
-8.1268 -5.2139 -2.5000 0.9609
-7.9339 -5.5032 -2.5000 0.9609
-7.7308 -5.7854 -2.5001 0.9609
-7.5176 -6.0602 -2.5001 0.9609
-7.2947 -6.3271 -2.5002 0.9609
-6.8208 -6.8360 -2.5003 0.9609
-5.7694 -7.7452 -2.5006 0.9609
-4.9331 7.3267 -2.5005 0.9639
-5.6940 6.7516 -2.5003 0.9639
-5.9333 6.5420 -2.5002 0.9640
-6.1649 6.3240 -2.5002 0.9640
-6.6038 5.8637 -2.5001 0.9640
-7.0084 5.3730 -2.5000 0.9640
-7.5466 4.5858 -2.4999 0.9640
-7.7068 4.3111 -2.4999 0.9640
-8.1264 3.4548 -2.4998 0.9640
-8.2455 3.1599 -2.4998 0.9640
-8.4514 2.5582 -2.4997 0.9640
-8.5380 2.2523 -2.4997 0.9640
-8.6135 1.9434 -2.4997 0.9640
-8.7310 1.3184 -2.4997 0.9640
-8.7728 1.0032 -2.4997 0.9640
-8.8298 0.0513 -2.4997 0.9640
-8.8107 -0.5843 -2.4997 0.9640
-8.7840 -0.9012 -2.4997 0.9640
-8.6965 -1.5310 -2.4998 0.9640
-8.5639 -2.1529 -2.4998 0.9640
-8.4809 -2.4599 -2.4998 0.9640
-8.1665 -3.3602 -2.4999 0.9640
-8.0404 -3.6521 -2.5000 0.9640
-7.9037 -3.9394 -2.5000 0.9640
-7.7569 -4.2214 -2.5001 0.9640
-7.2568 -5.0336 -2.5002 0.9640
-6.8760 -5.5429 -2.5003 0.9639
-6.6721 -5.7871 -2.5003 0.9639
-6.4596 -6.0237 -2.5004 0.9639
-6.2386 -6.2526 -2.5004 0.9639
-5.7727 -6.6856 -2.5006 0.9639
-5.5284 -6.8893 -2.5006 0.9639
-2.3588 4.1145 -1.4588 0.9803
-4.2949 6.9029 -2.5006 0.9665
-4.7803 6.5757 -2.5005 0.9666
-5.0139 6.3992 -2.5005 0.9666
-5.4612 6.0215 -2.5004 0.9666
-5.6744 5.8209 -2.5003 0.9666
-6.2687 5.1748 -2.5002 0.9666
-6.6246 4.7101 -2.5001 0.9666
-7.0937 3.9681 -2.5000 0.9666
-7.2319 3.7101 -2.5000 0.9666
-7.5896 2.9085 -2.4999 0.9666
-7.7791 2.3547 -2.4999 0.9666
-7.8588 2.0731 -2.4999 0.9666
-7.9283 1.7888 -2.4999 0.9666
-7.9876 1.5021 -2.4999 0.9666
-8.0750 0.9234 -2.4999 0.9666
-8.1030 0.6321 -2.4999 0.9666
-8.1205 0.3398 -2.4999 0.9666
-8.1274 0.0472 -2.4999 0.9666
-8.1239 -0.2454 -2.4999 0.9666
-8.1098 -0.5378 -2.4999 0.9666
-8.0853 -0.8295 -2.4999 0.9666
-8.0502 -1.1200 -2.4999 0.9666
-7.7197 -2.5438 -2.5000 0.9666
-7.6232 -2.8202 -2.5001 0.9666
-6.5084 -4.8707 -2.5004 0.9666
-6.3290 -5.1020 -2.5004 0.9666
-6.1412 -5.3266 -2.5004 0.9666
-5.9456 -5.5444 -2.5005 0.9666
-5.7422 -5.7551 -2.5005 0.9665
-5.5314 -5.9582 -2.5006 0.9665
-5.3134 -6.1536 -2.5007 0.9665
-5.0885 -6.3411 -2.5007 0.9665
-4.6191 -6.6912 -2.5008 0.9665
-2.3179 4.0430 -1.5491 0.9805
-3.9741 6.3876 -2.5007 0.9688
-4.4234 6.0847 -2.5006 0.9688
-4.6396 5.9215 -2.5006 0.9688
-4.8497 5.7504 -2.5005 0.9688
-5.2508 5.3863 -2.5004 0.9688
-5.6246 4.9943 -2.5003 0.9688
-6.2830 4.1349 -2.5002 0.9688
-6.4278 3.9059 -2.5002 0.9688
-6.8113 3.1899 -2.5001 0.9688
-7.0231 2.6914 -2.5001 0.9688
-7.1154 2.4368 -2.5001 0.9688
-7.2722 1.9184 -2.5000 0.9688
-7.3914 1.3900 -2.5000 0.9688
-7.4367 1.1229 -2.5000 0.9688
-7.4723 0.8545 -2.5000 0.9688
-7.4982 0.5849 -2.5000 0.9688
-7.5045 -0.4977 -2.5000 0.9688
-7.4818 -0.7675 -2.5000 0.9688
-7.4493 -1.0364 -2.5001 0.9688
-7.3555 -1.5699 -2.5001 0.9688
-6.9558 -2.8620 -2.5002 0.9688
-6.7319 -3.3553 -2.5003 0.9688
-6.6068 -3.5956 -2.5003 0.9688
-6.4732 -3.8312 -2.5003 0.9688
-6.0226 -4.5071 -2.5005 0.9688
-5.6828 -4.9290 -2.5005 0.9688
-5.3135 -5.3254 -2.5006 0.9688
-5.1184 -5.5134 -2.5007 0.9688
-4.7086 -5.8677 -2.5008 0.9688
-4.4943 -6.0336 -2.5008 0.9688
-2.3025 4.0162 -1.6555 0.9805
-3.6942 5.9376 -2.5008 0.9707
-4.3128 5.5043 -2.5006 0.9707
-4.6976 5.1795 -2.5006 0.9707
-4.8809 5.0070 -2.5005 0.9707
-5.0580 4.8279 -2.5005 0.9707
-5.2285 4.6425 -2.5004 0.9707
-5.3922 4.4512 -2.5004 0.9707
-5.6984 4.0515 -2.5004 0.9707
-5.8405 3.8437 -2.5003 0.9707
-5.9750 3.6308 -2.5003 0.9707
-6.3316 2.9653 -2.5002 0.9707
-6.5284 2.5018 -2.5002 0.9707
-6.6143 2.2652 -2.5002 0.9707
-6.9460 0.7943 -2.5001 0.9707
-6.9701 0.5437 -2.5001 0.9707
-6.9852 0.2923 -2.5001 0.9707
-6.9912 0.0406 -2.5001 0.9707
-6.9881 -0.2111 -2.5001 0.9707
-6.9760 -0.4626 -2.5002 0.9707
-6.9247 -0.9635 -2.5002 0.9707
-6.8856 -1.2122 -2.5002 0.9707
-6.8375 -1.4594 -2.5002 0.9707
-6.7805 -1.7046 -2.5002 0.9707
-6.7148 -1.9476 -2.5002 0.9707
-6.6404 -2.1882 -2.5003 0.9707
-6.5574 -2.4259 -2.5003 0.9707
-6.2577 -3.1189 -2.5004 0.9707
-6.1415 -3.3423 -2.5004 0.9707
-5.8852 -3.7757 -2.5005 0.9707
-5.7455 -3.9853 -2.5005 0.9707
-5.5982 -4.1896 -2.5005 0.9707
-5.2825 -4.5818 -2.5006 0.9707
-5.1142 -4.7691 -2.5007 0.9707
-4.9392 -4.9503 -2.5007 0.9707
-4.7579 -5.1250 -2.5008 0.9707
-4.3769 -5.4543 -2.5009 0.9707
-4.1777 -5.6085 -2.5009 0.9707
-3.9731 -5.7554 -2.5010 0.9707
-2.2934 4.0003 -1.7670 0.9804
-3.6447 5.4131 -2.5008 0.9724
-4.8792 4.3324 -2.5005 0.9724
-5.0320 4.1539 -2.5005 0.9724
-5.3178 3.7809 -2.5004 0.9724
-5.4504 3.5869 -2.5004 0.9724
-5.5759 3.3883 -2.5004 0.9724
-5.8052 2.9782 -2.5003 0.9724
-5.9087 2.7672 -2.5003 0.9724
-6.0924 2.3347 -2.5003 0.9724
-6.3086 1.6642 -2.5003 0.9724
-6.3644 1.4359 -2.5003 0.9724
-6.4821 0.7412 -2.5002 0.9724
-6.5186 0.2728 -2.5002 0.9724
-6.4903 -0.6658 -2.5003 0.9724
-6.3808 -1.3619 -2.5003 0.9724
-6.3276 -1.5907 -2.5003 0.9724
-6.2663 -1.8176 -2.5003 0.9724
-6.1194 -2.2639 -2.5004 0.9724
-5.4920 -3.5235 -2.5006 0.9724
-5.0803 -4.0954 -2.5007 0.9724
-4.9296 -4.2757 -2.5007 0.9724
-4.7725 -4.4505 -2.5007 0.9724
-4.6093 -4.6196 -2.5008 0.9724
-4.4400 -4.7826 -2.5008 0.9724
-4.2650 -4.9395 -2.5009 0.9724
-4.0844 -5.0899 -2.5009 0.9724
-3.7077 -5.3709 -2.5010 0.9724
-2.2841 3.9842 -1.8796 0.9803
-3.2280 5.1883 -2.5009 0.9739
-3.4127 5.0686 -2.5009 0.9739
-3.5929 4.9424 -2.5008 0.9739
-3.7685 4.8097 -2.5008 0.9739
-3.9392 4.6709 -2.5007 0.9739
-4.1048 4.5259 -2.5007 0.9739
-4.2650 4.3751 -2.5007 0.9739
-4.4197 4.2186 -2.5006 0.9739
-4.5687 4.0567 -2.5006 0.9739
-4.7118 3.8895 -2.5006 0.9739
-4.8487 3.7173 -2.5006 0.9739
-5.3319 2.9826 -2.5005 0.9739
-5.4358 2.7887 -2.5004 0.9739
-5.6224 2.3902 -2.5004 0.9739
-5.7047 2.1862 -2.5004 0.9739
-5.7797 1.9794 -2.5004 0.9739
-5.9071 1.5583 -2.5004 0.9739
-6.0039 1.1291 -2.5003 0.9739
-6.0407 0.9122 -2.5003 0.9739
-6.1038 0.2554 -2.5003 0.9739
-6.1064 -0.1845 -2.5003 0.9739
-6.0958 -0.4042 -2.5004 0.9739
-6.0773 -0.6235 -2.5004 0.9739
-5.9748 -1.2752 -2.5004 0.9739
-5.9250 -1.4895 -2.5004 0.9739
-5.8025 -1.9121 -2.5005 0.9739
-5.6500 -2.3247 -2.5005 0.9739
-5.5627 -2.5267 -2.5005 0.9739
-5.1425 -3.2993 -2.5006 0.9739
-5.0205 -3.4824 -2.5007 0.9739
-4.7570 -3.8347 -2.5007 0.9739
-4.4685 -4.1673 -2.5008 0.9739
-3.6505 -4.9006 -2.5010 0.9739
-3.0315 4.8724 -2.5009 0.9753
-3.2049 4.7600 -2.5009 0.9753
-3.3742 4.6415 -2.5009 0.9753
-3.5391 4.5169 -2.5008 0.9753
-3.8549 4.2504 -2.5008 0.9753
-4.1507 3.9618 -2.5007 0.9753
-4.2906 3.8098 -2.5007 0.9753
-4.4249 3.6528 -2.5007 0.9753
-4.5536 3.4910 -2.5006 0.9753
-4.6762 3.3248 -2.5006 0.9753
-5.1050 2.6189 -2.5005 0.9753
-5.1959 2.4334 -2.5005 0.9753
-5.2801 2.2447 -2.5005 0.9753
-5.3575 2.0531 -2.5005 0.9753
-5.4279 1.8589 -2.5005 0.9753
-5.5967 1.2627 -2.5004 0.9753
-5.6730 0.8566 -2.5004 0.9753
-5.7002 0.6518 -2.5004 0.9753
-5.7199 0.4461 -2.5004 0.9753
-5.7323 0.2399 -2.5004 0.9753
-5.7248 -0.3797 -2.5004 0.9753
-5.6505 -0.9948 -2.5005 0.9753
-5.6111 -1.1976 -2.5005 0.9753
-5.5104 -1.5983 -2.5005 0.9753
-5.4493 -1.7957 -2.5005 0.9753
-5.3812 -1.9908 -2.5006 0.9753
-5.3061 -2.1832 -2.5006 0.9753
-5.2240 -2.3729 -2.5006 0.9753
-5.1353 -2.5595 -2.5006 0.9753
-5.0398 -2.7428 -2.5006 0.9753
-4.8295 -3.0984 -2.5007 0.9753
-4.7148 -3.2704 -2.5007 0.9753
-4.5941 -3.4380 -2.5008 0.9753
-4.3349 -3.7599 -2.5008 0.9753
-4.1967 -3.9136 -2.5009 0.9753
-3.9043 -4.2055 -2.5009 0.9753
-3.7504 -4.3435 -2.5010 0.9753
-3.5916 -4.4758 -2.5010 0.9753
-3.4282 -4.6023 -2.5011 0.9753
-3.2603 -4.7228 -2.5011 0.9753
-2.2574 3.9375 -2.1009 0.9802
-2.8543 4.5876 -2.5010 0.9765
-3.0176 4.4818 -2.5010 0.9765
-3.1769 4.3702 -2.5009 0.9765
-3.6295 4.0019 -2.5008 0.9765
-4.0398 3.5871 -2.5007 0.9765
-4.7147 2.6373 -2.5006 0.9765
-4.8922 2.2912 -2.5006 0.9765
-4.9715 2.1135 -2.5006 0.9765
-5.1107 1.7502 -2.5005 0.9765
-5.2233 1.3779 -2.5005 0.9765
-5.3856 0.4201 -2.5005 0.9765
-5.3995 -0.1631 -2.5005 0.9765
-5.3505 -0.7444 -2.5005 0.9765
-5.2391 -1.3171 -2.5006 0.9765
-5.1883 -1.5049 -2.5006 0.9765
-5.1308 -1.6908 -2.5006 0.9765
-5.0666 -1.8744 -2.5006 0.9765
-4.9187 -2.2342 -2.5007 0.9765
-4.5472 -2.9173 -2.5008 0.9765
-4.3255 -3.2371 -2.5008 0.9765
-4.0814 -3.5401 -2.5009 0.9765
-3.8162 -3.8248 -2.5010 0.9765
-3.5312 -4.0896 -2.5010 0.9765
-3.2278 -4.3332 -2.5011 0.9765
-3.0697 -4.4467 -2.5011 0.9765
-2.2575 3.9377 -2.2265 0.9800
-3.2869 3.8974 -2.5009 0.9775
-3.4251 3.7765 -2.5009 0.9775
-3.6879 3.5201 -2.5008 0.9775
-3.9316 3.2455 -2.5008 0.9775
-4.0459 3.1019 -2.5008 0.9775
-4.1549 2.9541 -2.5007 0.9775
-4.2586 2.8026 -2.5007 0.9775
-4.4492 2.4888 -2.5007 0.9775
-4.5359 2.3270 -2.5007 0.9775
-4.8792 1.4769 -2.5006 0.9775
-4.9292 1.3003 -2.5006 0.9775
-5.0099 0.9422 -2.5006 0.9775
-5.0647 0.5792 -2.5006 0.9775
-5.0866 -0.3373 -2.5006 0.9775
-5.0492 -0.7025 -2.5006 0.9775
-5.0206 -0.8839 -2.5006 0.9775
-4.9440 -1.2429 -2.5006 0.9775
-4.8961 -1.4201 -2.5007 0.9775
-4.8418 -1.5955 -2.5007 0.9775
-4.7813 -1.7689 -2.5007 0.9775
-4.7145 -1.9399 -2.5007 0.9775
-4.5628 -2.2742 -2.5007 0.9775
-4.0819 -3.0548 -2.5009 0.9775
-3.8516 -3.3407 -2.5009 0.9775
-3.6013 -3.6093 -2.5010 0.9775
-3.3322 -3.8592 -2.5011 0.9775
-3.1912 -3.9768 -2.5011 0.9775
-3.0459 -4.0891 -2.5011 0.9775
-2.3978 4.1826 -2.5011 0.9785
-2.5468 4.0934 -2.5011 0.9785
-2.6926 3.9990 -2.5010 0.9785
-2.8347 3.8994 -2.5010 0.9785
-2.9733 3.7948 -2.5010 0.9785
-3.1080 3.6852 -2.5010 0.9785
-3.2386 3.5709 -2.5009 0.9785
-3.3650 3.4519 -2.5009 0.9785
-3.6047 3.2007 -2.5009 0.9785
-3.7176 3.0688 -2.5008 0.9785
-3.8256 2.9330 -2.5008 0.9785
-3.9287 2.7933 -2.5008 0.9785
-4.0267 2.6500 -2.5008 0.9785
-4.1195 2.5033 -2.5007 0.9785
-4.2069 2.3533 -2.5007 0.9785
-4.2889 2.2003 -2.5007 0.9785
-4.5011 1.7249 -2.5007 0.9785
-4.6135 1.3965 -2.5007 0.9785
-4.6608 1.2295 -2.5006 0.9785
-4.7662 0.7197 -2.5006 0.9785
-4.8056 0.3748 -2.5006 0.9785
-4.8160 0.2015 -2.5006 0.9785
-4.8180 -0.1455 -2.5006 0.9785
-4.7743 -0.6643 -2.5007 0.9785
-4.7473 -0.8357 -2.5007 0.9785
-4.6749 -1.1752 -2.5007 0.9785
-4.6296 -1.3428 -2.5007 0.9785
-4.5210 -1.6725 -2.5007 0.9785
-4.3890 -1.9936 -2.5008 0.9785
-4.1485 -2.4553 -2.5008 0.9785
-4.0574 -2.6031 -2.5009 0.9785
-3.9611 -2.7476 -2.5009 0.9785
-3.5258 -3.2879 -2.5010 0.9785
-3.4052 -3.4128 -2.5010 0.9785
-3.2801 -3.5332 -2.5011 0.9785
-3.1508 -3.6491 -2.5011 0.9785
-2.2712 3.9617 -2.5011 0.9794
-2.6851 3.6936 -2.5011 0.9794
-2.8163 3.5944 -2.5010 0.9794
-2.9439 3.4907 -2.5010 0.9794
-3.0676 3.3823 -2.5010 0.9794
-3.1874 3.2697 -2.5009 0.9794
-3.4144 3.0318 -2.5009 0.9794
-3.7213 2.6458 -2.5008 0.9794
-3.8141 2.5101 -2.5008 0.9794
-3.9020 2.3711 -2.5008 0.9794
-4.0625 2.0841 -2.5008 0.9794
-4.2019 1.7863 -2.5007 0.9794
-4.3195 1.4793 -2.5007 0.9794
-4.4148 1.1646 -2.5007 0.9794
-4.4538 1.0048 -2.5007 0.9794
-4.4871 0.8438 -2.5007 0.9794
-4.5146 0.6817 -2.5007 0.9794
-4.5618 0.1909 -2.5007 0.9794
-4.5657 0.0266 -2.5007 0.9794
-4.5637 -0.1379 -2.5007 0.9794
-4.5222 -0.6292 -2.5007 0.9794
-4.4967 -0.7917 -2.5007 0.9794
-4.4653 -0.9530 -2.5007 0.9794
-4.4281 -1.1132 -2.5008 0.9794
-4.3852 -1.2720 -2.5008 0.9794
-4.1572 -1.8883 -2.5008 0.9794
-4.0866 -2.0368 -2.5009 0.9794
-4.0106 -2.1827 -2.5009 0.9794
-3.7520 -2.6025 -2.5009 0.9794
-3.6559 -2.7360 -2.5010 0.9794
-3.4496 -2.9920 -2.5010 0.9794
-3.2254 -3.2326 -2.5011 0.9794
-2.9844 -3.4564 -2.5011 0.9794
-2.7280 -3.6623 -2.5012 0.9794
-2.5944 -3.7582 -2.5012 0.9794
-2.6717 3.4099 -2.5011 0.9802
-2.9102 3.2087 -2.5010 0.9802
-3.0238 3.1018 -2.5010 0.9802
-3.6183 2.3812 -2.5009 0.9802
-3.7017 2.2494 -2.5008 0.9802
-3.7803 2.1146 -2.5008 0.9802
-3.9227 1.8371 -2.5008 0.9802
-4.1457 1.2549 -2.5008 0.9802
-4.3033 0.4921 -2.5007 0.9802
-4.3183 0.3368 -2.5007 0.9802
-4.3276 0.1811 -2.5007 0.9802
-4.3313 0.0252 -2.5008 0.9802
-4.3219 -0.2866 -2.5008 0.9802
-4.3088 -0.4420 -2.5008 0.9802
-4.2901 -0.5969 -2.5008 0.9802
-4.2659 -0.7510 -2.5008 0.9802
-4.2008 -1.0561 -2.5008 0.9802
-4.0058 -1.6482 -2.5009 0.9802
-3.9438 -1.7914 -2.5009 0.9802
-3.8768 -1.9323 -2.5009 0.9802
-3.8048 -2.0706 -2.5009 0.9802
-3.7278 -2.2063 -2.5009 0.9802
-3.4682 -2.5955 -2.5010 0.9802
-3.2725 -2.8384 -2.5011 0.9802
-2.8312 -3.2790 -2.5012 0.9802
-2.5880 -3.4743 -2.5012 0.9802
