ply
format ascii 1.0
element vertex 1055
property float32 x
property float32 y
property float32 z
property float32 I
end_header
27.5291 8.5648 5.0836 0.8895
25.3816 13.2425 5.0480 0.8902
25.3998 15.6634 5.2618 0.8859
25.3643 16.9257 5.3768 0.8835
5.6319 11.8221 2.3090 0.9482
4.5424 14.6239 2.7001 0.9397
3.9719 14.6174 2.6709 0.9403
2.8636 14.6048 2.6242 0.9413
2.3224 14.5986 2.6065 0.9417
1.2584 14.5865 2.5816 0.9423
0.2092 14.5746 2.5702 0.9425
-0.6943 12.0932 2.1359 0.9520
-1.5681 12.0833 2.1485 0.9517
-2.0100 12.0782 2.1590 0.9515
-2.9586 14.5386 2.6161 0.9415
-3.5041 14.5324 2.6359 0.9411
-4.6241 14.5196 2.6869 0.9400
-5.2019 14.5131 2.7185 0.9393
-4.8117 12.0464 2.2873 0.9487
-5.3175 12.0406 2.3209 0.9479
-5.8390 12.0347 2.3586 0.9471
-9.0569 14.4692 3.0099 0.9330
-9.7901 14.4609 3.0792 0.9315
-24.1508 28.5172 6.5893 0.8592
-27.8548 28.4751 7.0237 0.8506
-23.2991 15.3081 4.9157 0.8929
27.5291 8.5649 4.4167 0.8899
26.2346 9.2058 4.2592 0.8936
25.7955 10.1041 4.2441 0.8939
25.5845 11.0949 4.2721 0.8933
25.4325 12.1299 4.3166 0.8922
25.3815 13.2425 4.3857 0.8906
25.3996 15.6633 4.5715 0.8862
25.3642 16.9256 4.6713 0.8839
25.3271 18.2459 4.7820 0.8813
25.2881 19.6321 4.9044 0.8785
25.2470 21.0931 5.0399 0.8754
25.1080 26.0367 5.5412 0.8638
25.0551 27.9188 5.7468 0.8592
5.6314 11.8211 2.0059 0.9484
5.1264 14.6305 2.3749 0.9392
4.5424 14.6239 2.3459 0.9399
3.4129 14.6110 2.2986 0.9411
2.3224 14.5987 2.2646 0.9419
0.7326 14.5806 2.2365 0.9426
-1.1299 12.0883 1.8599 0.9521
-1.5681 12.0833 1.8666 0.9519
-4.6241 14.5197 2.3344 0.9402
-4.3198 12.0520 1.9613 0.9495
-4.8117 12.0464 1.9872 0.9489
-5.3175 12.0406 2.0164 0.9481
-5.8390 12.0347 2.0492 0.9473
-6.3784 12.0286 2.0858 0.9464
-8.3550 14.4772 2.5607 0.9346
-9.0569 14.4693 2.6150 0.9333
-9.7901 14.4609 2.6753 0.9318
-11.3682 14.4429 2.8158 0.9283
-23.3780 22.2445 4.9436 0.8776
-23.4767 20.7870 4.8037 0.8808
-13.6611 10.4501 2.6349 0.9328
-23.4295 16.6259 4.4011 0.8902
-23.2993 15.3082 4.2708 0.8933
-24.1788 14.6731 4.3328 0.8919
27.5290 8.5648 3.7543 0.8902
26.2345 9.2057 3.6205 0.8939
25.5844 11.0949 3.6314 0.8936
25.4104 14.4392 3.8059 0.8888
25.3269 18.2458 4.0648 0.8817
25.2034 22.6390 4.4117 0.8723
25.1572 24.2822 4.5531 0.8685
25.1079 26.0365 4.7102 0.8642
25.0549 27.9186 4.8849 0.8596
24.9360 32.1504 5.2983 0.8486
3.9719 14.6174 1.9725 0.9407
3.4129 14.6110 1.9539 0.9413
2.3224 14.5987 1.9250 0.9421
1.2584 14.5866 1.9065 0.9427
0.6084 12.1080 1.5787 0.9523
0.1737 12.1031 1.5762 0.9523
-0.2601 12.0982 1.5758 0.9524
-0.6943 12.0932 1.5774 0.9523
-5.3175 12.0406 1.7140 0.9483
-9.0569 14.4693 2.2229 0.9335
-11.3682 14.4429 2.3935 0.9285
-24.1508 28.5173 4.8663 0.8601
-23.3781 22.2446 4.2022 0.8779
-24.1788 14.6731 3.6830 0.8922
27.5290 8.5648 3.0959 0.8905
25.7952 10.1040 2.9748 0.8945
25.5842 11.0948 2.9945 0.8939
25.3994 15.6631 3.2043 0.8869
25.3638 16.9254 3.2743 0.8846
25.3267 18.2457 3.3519 0.8820
25.2878 19.6318 3.4377 0.8792
25.2467 21.0928 3.5327 0.8760
25.1570 24.2820 3.7545 0.8688
25.1077 26.0363 3.8840 0.8646
25.0547 27.9184 4.0281 0.8599
24.9977 29.9484 4.1890 0.8548
24.9358 32.1502 4.3690 0.8490
24.8682 34.5529 4.5714 0.8426
5.1264 14.6305 1.6647 0.9395
4.5424 14.6239 1.6443 0.9403
3.3941 14.5308 1.6023 0.9417
2.3224 14.5987 1.5873 0.9423
1.2584 14.5866 1.5721 0.9428
0.6282 12.5015 1.3441 0.9509
-0.7223 12.5801 1.3531 0.9506
-2.0686 12.4302 1.3531 0.9506
-2.5123 12.3456 1.3529 0.9506
-2.9535 12.2488 1.3530 0.9506
-3.4018 12.1749 1.3574 0.9504
-3.8231 12.0046 1.3529 0.9506
-4.3009 11.9992 1.3688 0.9500
-5.2942 11.9879 1.4072 0.9486
-5.8134 11.9820 1.4301 0.9478
-6.3784 12.0286 1.4620 0.9467
-10.5590 14.4522 1.9220 0.9305
-11.3682 14.4430 1.9737 0.9287
-27.8548 28.4752 4.2774 0.8519
-23.3783 22.2448 3.4652 0.8783
-23.3606 20.6842 3.3505 0.8820
-23.3440 19.2217 3.2471 0.8855
-13.6565 10.4466 1.8463 0.9332
-23.3136 16.5437 3.0697 0.8914
-24.1788 14.6731 3.0371 0.8925
26.2343 9.2057 2.3536 0.8944
25.7951 10.1039 2.3452 0.8948
25.5841 11.0948 2.3606 0.8941
25.3810 13.2422 2.4234 0.8914
25.3266 18.2455 2.6424 0.8822
25.2465 21.0927 2.7849 0.8763
25.2030 22.6387 2.8679 0.8728
25.1075 26.0362 3.0619 0.8649
25.0546 27.9182 3.1755 0.8602
24.9356 32.1499 3.4442 0.8493
24.7117 40.1135 3.9884 0.8277
17.9174 45.8044 4.1636 0.8208
5.1264 14.6305 1.3123 0.9397
3.9912 14.6883 1.2885 0.9407
3.4294 14.6819 1.2763 0.9413
2.3224 14.5987 1.2514 0.9424
1.7878 14.5926 1.2445 0.9427
1.2584 14.5865 1.2394 0.9429
-1.8823 14.5045 1.2381 0.9430
-2.4205 14.5447 1.2482 0.9425
-2.9586 14.5386 1.2560 0.9422
-3.5572 12.7311 1.1190 0.9483
-4.6241 14.5197 1.2900 0.9407
-5.2019 14.5131 1.3051 0.9400
-5.7943 14.5063 1.3223 0.9392
-7.0313 14.4923 1.3636 0.9374
-7.4980 14.1399 1.3549 0.9378
-9.0569 14.4693 1.4450 0.9338
-9.8376 14.5311 1.4855 0.9320
-10.6102 14.5223 1.5225 0.9303
-11.3682 14.4430 1.5559 0.9289
-13.6543 10.4449 1.4553 0.9333
-23.3137 16.5438 2.4200 0.8916
-23.2997 15.3085 2.3600 0.8941
25.5840 11.0947 1.7292 0.8943
25.3809 13.2422 1.7752 0.8916
25.4100 14.4389 1.8123 0.8895
25.1073 26.0360 2.2429 0.8651
25.0544 27.9180 2.3261 0.8604
24.9354 32.1497 2.5230 0.8495
24.8678 34.5523 2.6398 0.8432
24.7936 37.1918 2.7718 0.8360
24.6000 39.9322 2.9084 0.8286
22.9160 40.3711 2.8786 0.8302
20.8268 39.9628 2.7944 0.8348
5.6294 11.8169 0.8117 0.9489
17.0221 39.3016 2.6559 0.8423
5.1264 14.6305 0.9613 0.9398
4.5424 14.6239 0.9496 0.9405
3.4294 14.6819 0.9349 0.9414
2.8523 14.5476 0.9193 0.9423
2.3224 14.5987 0.9166 0.9425
0.6282 12.5015 0.7762 0.9511
0.2092 14.5746 0.9039 0.9433
-0.3132 14.5687 0.9036 0.9433
-1.3612 14.5627 0.9070 0.9431
-5.2037 14.5179 0.9563 0.9401
-5.7962 14.5110 0.9690 0.9393
-7.6810 14.4849 1.0167 0.9364
-9.0569 14.4693 1.0585 0.9339
-9.8377 14.5311 1.0882 0.9321
-11.3682 14.4429 1.1398 0.9290
-23.3786 22.2451 2.0011 0.8787
-23.3609 20.6844 1.9349 0.8825
-23.3443 19.2220 1.8752 0.8859
-13.6520 10.4431 1.0658 0.9334
-24.1789 14.6731 1.7538 0.8928
25.5838 11.0947 1.0996 0.8944
25.3808 13.2421 1.1288 0.8917
25.3989 15.6629 1.1766 0.8874
25.2873 19.6315 1.2623 0.8797
25.0542 27.9178 1.4791 0.8606
23.1527 34.7299 1.6458 0.8461
21.6835 35.1979 1.6301 0.8475
13.3792 34.2028 1.4482 0.8633
5.1264 14.6305 0.6113 0.9398
4.5425 14.6239 0.6038 0.9405
3.9912 14.6883 0.6002 0.9409
1.7878 14.5926 0.5797 0.9428
1.2584 14.5866 0.5773 0.9431
0.6282 12.5015 0.4936 0.9511
-0.3132 14.5687 0.5746 0.9433
-1.3618 14.5694 0.5770 0.9431
-3.0045 12.4602 0.5054 0.9500
-3.5548 12.7225 0.5209 0.9485
-4.6241 14.5197 0.6009 0.9408
-5.2062 14.5251 0.6084 0.9401
-7.6810 14.4849 0.6465 0.9365
-7.1834 12.4471 0.5667 0.9441
-9.0569 14.4693 0.6731 0.9339
-9.8377 14.5311 0.6919 0.9322
-20.8389 22.8896 1.2206 0.8835
-23.3788 22.2453 1.2725 0.8788
-23.3445 19.2221 1.1924 0.8860
-23.4302 16.6265 1.1329 0.8914
-23.3000 15.3087 1.0993 0.8944
27.5290 8.5648 0.4870 0.8911
25.7947 10.1038 0.4680 0.8951
25.5837 11.0946 0.4710 0.8944
25.4097 14.4388 0.4937 0.8897
25.3988 15.6628 0.5041 0.8875
25.3632 16.9250 0.5151 0.8852
25.2871 19.6313 0.5408 0.8798
25.2025 22.6383 0.5723 0.8733
25.1563 24.2813 0.5906 0.8695
24.9969 29.9475 0.6589 0.8555
20.7033 31.0561 0.6305 0.8613
19.0596 30.9388 0.6138 0.8647
5.1264 14.6305 0.2619 0.9399
4.5425 14.6239 0.2587 0.9406
2.8522 14.5469 0.2504 0.9424
2.3224 14.5987 0.2497 0.9426
1.7878 14.5926 0.2483 0.9429
1.2584 14.5866 0.2473 0.9431
0.6282 12.5015 0.2114 0.9512
0.2092 14.5746 0.2462 0.9434
-1.8887 14.5535 0.2479 0.9430
-3.0045 12.4602 0.2165 0.9500
-3.5536 12.7183 0.2231 0.9485
-4.6241 14.5197 0.2574 0.9409
-5.8019 14.5254 0.2642 0.9393
-9.0569 14.4693 0.2883 0.9340
-10.6102 14.5223 0.3038 0.9306
-11.3682 14.4430 0.3105 0.9291
-22.3740 22.8722 0.5405 0.8799
-23.4304 16.6266 0.4853 0.8914
-23.3001 15.3088 0.4709 0.8945
27.5289 8.5648 -0.1623 0.8911
26.2338 9.2055 -0.1565 0.8948
25.4315 12.1294 -0.1586 0.8934
25.3805 13.2420 -0.1612 0.8918
25.4095 14.4387 -0.1645 0.8897
25.2024 22.6381 -0.1907 0.8733
25.1068 26.0354 -0.2036 0.8653
24.2833 27.0587 -0.2047 0.8646
23.1019 27.6771 -0.2030 0.8657
21.4481 27.6534 -0.1970 0.8694
16.9928 27.5838 -0.1824 0.8785
15.6444 27.5608 -0.1784 0.8809
14.3515 27.5378 -0.1748 0.8832
11.8483 27.3561 -0.1678 0.8876
5.1264 14.6305 -0.0873 0.9399
4.5425 14.6239 -0.0862 0.9406
3.3941 14.5308 -0.0840 0.9421
2.3224 14.5987 -0.0832 0.9426
1.7879 14.5926 -0.0828 0.9429
0.2092 14.5746 -0.0821 0.9434
-0.3132 14.5687 -0.0820 0.9434
-2.9586 14.5386 -0.0835 0.9424
-4.6241 14.5197 -0.0858 0.9409
-7.6810 14.4849 -0.0923 0.9365
-9.7902 14.4609 -0.0983 0.9325
-10.5590 14.4522 -0.1008 0.9309
-11.3682 14.4430 -0.1035 0.9291
-18.3053 21.6149 -0.1595 0.8929
-19.6643 21.5994 -0.1645 0.8897
-23.3791 22.2456 -0.1817 0.8789
-23.3448 19.2224 -0.1703 0.8861
-23.3003 15.3089 -0.1570 0.8945
26.2337 9.2055 -0.7828 0.8947
25.5834 11.0945 -0.7852 0.8944
25.4314 12.1294 -0.7934 0.8934
25.3803 13.2419 -0.8061 0.8918
25.3985 15.6626 -0.8402 0.8874
25.3629 16.9248 -0.8586 0.8851
25.3258 18.2450 -0.8789 0.8826
25.2022 22.6380 -0.9539 0.8732
24.3034 23.4580 -0.9511 0.8736
21.8339 24.3294 -0.9205 0.8774
20.3799 24.4160 -0.8955 0.8805
15.1966 24.6681 -0.8158 0.8905
12.8943 24.7418 -0.7856 0.8944
10.7388 24.7942 -0.7608 0.8975
3.9719 14.6174 -0.4265 0.9412
3.4129 14.6111 -0.4225 0.9417
0.6282 12.5015 -0.3525 0.9511
-0.8370 14.5795 -0.4112 0.9432
-1.3622 14.5735 -0.4121 0.9431
-2.9586 14.5386 -0.4178 0.9424
-3.0045 12.4602 -0.3609 0.9500
-3.5512 12.7098 -0.3716 0.9486
-9.0569 14.4693 -0.4807 0.9340
-9.7902 14.4609 -0.4917 0.9325
-20.3644 18.0312 -0.7659 0.8969
-13.6430 10.4362 -0.4837 0.9336
-24.1789 14.6732 -0.7964 0.8930
25.7944 10.1036 -1.4049 0.8950
25.5833 11.0944 -1.4142 0.8943
25.3802 13.2418 -1.4518 0.8917
25.4093 14.4385 -1.4821 0.8895
25.3628 16.9246 -1.5463 0.8850
22.9798 20.6416 -1.5665 0.8836
21.6310 20.8786 -1.5247 0.8866
20.3424 21.0948 -1.4862 0.8893
17.9098 21.4567 -1.4174 0.8941
16.7552 21.6027 -1.3865 0.8963
14.5693 21.8548 -1.3321 0.9001
11.5417 22.1464 -1.2665 0.9048
5.6269 11.8118 -0.6635 0.9489
9.6548 22.2914 -1.2320 0.9073
8.7429 22.3507 -1.2171 0.9084
5.1264 14.6305 -0.7862 0.9398
3.9719 14.6174 -0.7682 0.9411
3.4129 14.6111 -0.7609 0.9417
2.8636 14.6048 -0.7548 0.9421
1.7878 14.5926 -0.7456 0.9428
0.2092 14.5746 -0.7392 0.9433
-1.3613 14.5637 -0.7418 0.9431
-2.4205 14.5447 -0.7478 0.9427
-5.2040 14.5187 -0.7822 0.9401
-5.7964 14.5116 -0.7925 0.9393
-6.4033 14.4995 -0.8038 0.9385
-7.1852 12.4501 -0.7290 0.9441
-9.7902 14.4609 -0.8856 0.9324
-10.5590 14.4522 -0.9077 0.9308
-11.3682 14.4430 -0.9321 0.9290
-14.9348 17.6350 -1.1720 0.9116
-14.9206 16.3890 -1.1240 0.9151
-17.1180 16.2880 -1.1983 0.9097
-18.3794 16.2737 -1.2450 0.9064
-18.9688 15.6191 -1.2461 0.9063
-23.3146 16.5444 -1.4498 0.8918
-23.3005 15.3091 -1.4139 0.8943
-24.1789 14.6732 -1.4343 0.8929
24.2063 14.9274 -2.0852 0.8922
23.6811 15.8024 -2.0874 0.8921
22.9344 16.5222 -2.0725 0.8928
21.8330 16.9497 -2.0266 0.8951
19.7232 17.7164 -1.9439 0.8991
17.6646 18.3180 -1.8659 0.9030
16.6637 18.5683 -1.8293 0.9048
15.6913 18.7989 -1.7954 0.9065
13.8229 19.2060 -1.7350 0.9095
12.0372 19.5396 -1.6827 0.9121
5.6264 11.8107 -0.9592 0.9489
7.5950 19.4161 -1.5287 0.9198
4.5425 14.6239 -1.1228 0.9404
3.9719 14.6174 -1.1106 0.9411
3.4129 14.6111 -1.1002 0.9416
2.8636 14.6048 -1.0912 0.9421
2.3224 14.5987 -1.0839 0.9424
1.7879 14.5926 -1.0780 0.9427
0.6282 12.5015 -0.9178 0.9510
0.1897 13.2131 -0.9689 0.9484
-0.2840 13.2099 -0.9688 0.9484
-1.2294 13.1528 -0.9686 0.9484
-3.0045 12.4602 -0.9398 0.9499
-4.9351 12.3554 -0.9755 0.9480
-5.4539 12.3495 -0.9899 0.9473
-5.9888 12.3435 -1.0059 0.9465
-10.5590 14.4522 -1.3124 0.9307
-11.3682 14.4430 -1.3477 0.9289
-14.9349 17.6352 -1.6944 0.9115
-14.9207 16.3891 -1.6251 0.9149
-15.2693 14.5290 -1.5454 0.9189
-16.3945 14.5162 -1.6056 0.9159
-13.6385 10.4328 -1.2590 0.9334
-20.3557 13.3743 -1.7859 0.9069
22.4147 11.6946 -2.4272 0.9034
21.6476 12.3010 -2.3904 0.9048
19.3552 13.9437 -2.2902 0.9086
16.9296 15.2070 -2.1847 0.9126
15.2923 15.8579 -2.1150 0.9153
14.4943 16.1509 -2.0834 0.9165
13.7088 16.4238 -2.0539 0.9176
10.6769 17.3314 -1.9543 0.9215
9.2168 17.6852 -1.9146 0.9230
7.4703 17.2478 -1.8045 0.9273
5.1264 14.6306 -1.4883 0.9396
4.5425 14.6239 -1.4701 0.9403
2.8636 14.6048 -1.4288 0.9419
2.3224 14.5987 -1.4192 0.9423
0.1782 12.4136 -1.1919 0.9513
-0.7121 12.4035 -1.1928 0.9513
-1.6083 12.3933 -1.1998 0.9510
-2.5199 12.3829 -1.2132 0.9505
-4.8137 12.0513 -1.2459 0.9492
-5.3196 12.0456 -1.2642 0.9485
-5.8414 12.0397 -1.2847 0.9476
-6.3811 12.0335 -1.3077 0.9467
-6.9411 12.0271 -1.3332 0.9457
-7.5241 12.0205 -1.3615 0.9446
-9.8377 14.5311 -1.6847 0.9319
-14.9209 16.3892 -2.1278 0.9148
-14.8956 14.1734 -1.9740 0.9207
-15.4800 12.7465 -1.9251 0.9226
-19.1109 11.5976 -2.1462 0.9141
20.1932 6.2825 -2.5121 0.9183
19.7421 7.7330 -2.5186 0.9181
19.4776 8.4466 -2.5219 0.9180
18.7233 9.7687 -2.5086 0.9184
18.3047 10.4014 -2.5009 0.9187
17.7814 10.9653 -2.4815 0.9193
16.5179 11.8997 -2.4182 0.9213
15.2523 12.7428 -2.3609 0.9231
13.9899 13.5032 -2.3096 0.9247
13.3600 13.8541 -2.2862 0.9254
12.0940 14.4887 -2.2418 0.9268
11.4378 14.7471 -2.2169 0.9276
10.1423 15.2140 -2.1720 0.9290
9.5007 15.4220 -2.1516 0.9296
8.7896 15.4846 -2.1150 0.9308
8.2296 15.7910 -2.1152 0.9308
6.6744 15.4104 -1.9949 0.9346
5.1264 14.6306 -1.8415 0.9395
4.5425 14.6239 -1.8190 0.9402
3.9912 14.6884 -1.8080 0.9405
1.7879 14.5926 -1.7464 0.9425
0.1738 12.1081 -1.4384 0.9524
-0.6946 12.0982 -1.4395 0.9524
-1.5688 12.0882 -1.4480 0.9521
-2.4579 12.0781 -1.4641 0.9516
-2.9111 12.0730 -1.4752 0.9512
-3.3824 12.1054 -1.4930 0.9506
-3.8295 12.0249 -1.4991 0.9504
-4.2578 11.8791 -1.4990 0.9504
-5.7114 11.7718 -1.5542 0.9487
-6.2391 11.7658 -1.5820 0.9478
-7.3568 11.7531 -1.6470 0.9457
-9.7902 14.4610 -2.0744 0.9321
-12.4253 13.6480 -2.1924 0.9283
-12.9059 13.1933 -2.1923 0.9284
-13.3699 12.7216 -2.1922 0.9284
-13.8167 12.2337 -2.1921 0.9284
-14.2458 11.7301 -2.1920 0.9284
-15.4543 10.9666 -2.2510 0.9265
16.5728 6.4916 -2.5219 0.9306
16.3474 7.0892 -2.5247 0.9305
16.1006 7.6791 -2.5275 0.9305
15.5437 8.8326 -2.5331 0.9303
13.4410 11.2295 -2.4816 0.9317
12.9015 11.5888 -2.4572 0.9323
11.2739 12.5625 -2.3916 0.9341
10.7289 12.8537 -2.3723 0.9346
10.1787 13.1235 -2.3532 0.9351
9.6012 13.3403 -2.3288 0.9358
9.0394 13.5597 -2.3090 0.9363
8.4809 13.7667 -2.2910 0.9368
7.0732 13.5721 -2.1685 0.9400
5.5671 11.6862 -1.8341 0.9490
6.0205 13.9004 -2.1463 0.9406
5.6473 14.4368 -2.1965 0.9393
1.7879 14.5926 -2.0831 0.9423
1.0222 11.8484 -1.6850 0.9531
0.5951 11.8435 -1.6802 0.9532
0.1700 11.8387 -1.6776 0.9533
-0.2544 11.8339 -1.6771 0.9533
-0.6791 11.8290 -1.6788 0.9533
-1.1052 11.8242 -1.6827 0.9532
-1.5338 11.8193 -1.6887 0.9530
-2.8463 11.8044 -1.7205 0.9521
-4.1164 11.4845 -1.7286 0.9519
-9.5732 12.1625 -2.1931 0.9394
-10.0026 11.8110 -2.1930 0.9394
-12.3986 10.9781 -2.3464 0.9353
-12.7837 10.5263 -2.3463 0.9353
-13.8386 9.0923 -2.3461 0.9353
14.6041 4.5436 -2.5196 0.9399
14.2677 5.5886 -2.5243 0.9398
14.0715 6.1022 -2.5267 0.9397
13.8569 6.6089 -2.5291 0.9397
13.3735 7.5993 -2.5340 0.9395
13.1052 8.0816 -2.5364 0.9395
10.5777 10.9689 -2.5103 0.9401
7.6620 12.4374 -2.4065 0.9425
5.5275 11.6031 -2.1173 0.9492
5.2989 12.2345 -2.1964 0.9474
3.4954 12.8638 -2.1960 0.9474
2.0940 13.1628 -2.1957 0.9474
0.5798 11.5379 -1.9031 0.9542
-0.6616 11.5238 -1.9015 0.9543
-1.0767 11.5191 -1.9059 0.9542
-2.3412 11.5047 -1.9341 0.9535
-2.7729 11.4998 -1.9488 0.9532
-3.3825 12.1059 -2.0707 0.9503
-3.6231 11.3765 -1.9669 0.9528
-4.4765 11.2071 -1.9881 0.9523
-7.5635 11.1720 -2.2226 0.9468
-8.2202 11.2510 -2.2955 0.9451
-9.9624 10.1842 -2.3470 0.9439
-10.3206 9.8203 -2.3469 0.9439
-11.8306 9.0498 -2.4538 0.9414
12.6713 4.4464 -2.5241 0.9468
12.5141 4.9017 -2.5262 0.9468
11.9455 6.2324 -2.5325 0.9466
11.4877 7.0842 -2.5368 0.9466
10.9693 7.9024 -2.5411 0.9465
10.3926 8.6827 -2.5454 0.9464
10.0833 9.0573 -2.5476 0.9463
9.7604 9.4209 -2.5497 0.9463
7.8636 10.9260 -2.5302 0.9467
7.4230 11.1349 -2.5154 0.9470
7.0071 11.3744 -2.5111 0.9471
4.9378 11.4006 -2.3352 0.9507
4.4575 11.3952 -2.2999 0.9514
3.9909 11.3899 -2.2685 0.9521
3.0921 11.3797 -2.2165 0.9531
2.6569 11.3747 -2.1955 0.9536
2.2477 11.4637 -2.1957 0.9536
0.1616 11.2598 -2.1166 0.9552
-0.2420 11.2552 -2.1160 0.9552
-0.6459 11.2506 -2.1182 0.9552
-1.0512 11.2460 -2.1230 0.9551
-0.8912 5.3552 -1.0204 0.9781
-1.3836 4.9520 -0.9664 0.9793
-2.2972 5.2018 -1.0688 0.9771
-5.2848 10.8924 -2.2756 0.9519
-5.7730 10.8869 -2.3162 0.9511
-6.2436 10.8186 -2.3478 0.9504
-6.6271 10.5874 -2.3477 0.9504
-7.0021 10.3428 -2.3476 0.9504
-8.0711 9.5304 -2.3474 0.9504
-8.4073 9.2347 -2.3473 0.9504
-8.9633 9.1629 -2.4093 0.9492
-9.9557 8.8151 -2.4994 0.9473
-10.5612 8.0787 -2.4993 0.9473
-10.8437 7.6948 -2.4992 0.9473
-11.3666 6.8979 -2.4991 0.9473
11.1340 4.3612 -2.5276 0.9523
10.9787 4.7610 -2.5295 0.9523
9.9913 6.6672 -2.5390 0.9521
9.5023 7.3770 -2.5428 0.9520
8.3756 8.6854 -2.5505 0.9519
8.0649 8.9867 -2.5524 0.9518
7.4112 9.5553 -2.5561 0.9518
7.0690 9.8219 -2.5580 0.9517
5.2717 10.1154 -2.4111 0.9544
4.8350 10.1494 -2.3764 0.9551
4.0649 10.3916 -2.3587 0.9554
3.2978 10.6168 -2.3500 0.9556
2.1388 10.9082 -2.3497 0.9556
1.7463 10.9775 -2.3496 0.9556
1.3517 11.0326 -2.3495 0.9556
0.5506 10.9588 -2.3194 0.9561
-0.6284 10.9454 -2.3174 0.9562
-1.1060 4.5867 -0.9973 0.9809
-1.6142 4.5036 -1.0113 0.9806
-1.7930 4.4889 -1.0218 0.9804
-2.1965 4.5272 -1.0637 0.9796
-2.5512 4.8112 -1.1511 0.9780
-5.5522 9.6207 -2.3480 0.9556
-7.6432 9.0250 -2.4999 0.9528
-8.5672 8.1518 -2.4997 0.9528
-8.8536 7.8393 -2.4997 0.9528
-9.1287 7.5167 -2.4996 0.9528
-9.3921 7.1845 -2.4995 0.9528
-9.8823 6.4929 -2.4994 0.9528
10.0186 3.9243 -2.5288 0.9568
9.5586 4.9871 -2.5339 0.9567
8.9863 5.9966 -2.5390 0.9566
8.7715 6.3191 -2.5408 0.9566
8.5452 6.6340 -2.5425 0.9565
8.3076 6.9407 -2.5442 0.9565
7.7995 7.5282 -2.5477 0.9564
7.5297 7.8081 -2.5494 0.9564
6.9602 8.3386 -2.5527 0.9564
6.6612 8.5883 -2.5544 0.9563
6.3532 8.8273 -2.5561 0.9563
6.0419 9.0633 -2.5600 0.9562
5.3294 9.3888 -2.5373 0.9566
4.9657 9.5282 -2.5252 0.9568
4.2025 9.7029 -2.4851 0.9575
3.7705 9.6391 -2.4326 0.9584
3.3695 9.6163 -2.3948 0.9590
0.5017 9.9836 -2.3493 0.9598
-0.3108 5.4142 -1.2746 0.9780
-0.4627 4.9500 -1.1684 0.9798
-0.9109 4.4762 -1.0736 0.9814
-1.2374 4.4287 -1.0807 0.9813
-1.7450 4.3686 -1.1056 0.9809
-1.9198 4.3471 -1.1169 0.9807
-2.0959 4.3199 -1.1285 0.9805
-2.5260 4.3770 -1.1877 0.9794
-5.6446 9.0179 -2.5004 0.9572
-5.9641 8.8095 -2.5003 0.9572
-6.2759 8.5898 -2.5002 0.9572
-6.8748 8.1177 -2.5001 0.9572
-7.1612 7.8659 -2.5000 0.9572
-7.4383 7.6040 -2.5000 0.9572
-7.7059 7.3323 -2.4999 0.9572
-8.2111 6.7611 -2.4998 0.9572
-8.4480 6.4623 -2.4998 0.9572
-8.6737 6.1553 -2.4997 0.9572
-9.0924 5.5178 -2.4996 0.9572
9.0975 3.5635 -2.5298 0.9604
8.9693 3.8896 -2.5313 0.9604
8.6782 4.5277 -2.5344 0.9604
8.5155 4.8389 -2.5359 0.9603
8.1571 5.4432 -2.5391 0.9603
7.9616 5.7356 -2.5406 0.9603
6.8323 7.0850 -2.5484 0.9601
6.5779 7.3298 -2.5500 0.9601
6.3147 7.5654 -2.5515 0.9601
6.0458 7.7949 -2.5542 0.9601
5.4500 8.1754 -2.5440 0.9602
5.1275 8.3233 -2.5312 0.9604
4.4853 8.6065 -2.5128 0.9607
3.5211 9.0014 -2.5026 0.9608
1.8593 9.4829 -2.5020 0.9609
0.8204 9.5090 -2.4712 0.9613
-0.2779 4.8409 -1.2554 0.9802
-1.0632 4.4092 -1.1743 0.9814
-1.2244 4.3820 -1.1780 0.9814
-1.3900 4.3647 -1.1860 0.9813
-1.9018 4.3063 -1.2189 0.9807
-2.0717 4.2699 -1.2288 0.9806
-2.2525 4.2478 -1.2449 0.9803
-2.4426 4.2324 -1.2652 0.9800
-5.1240 8.1860 -2.5005 0.9609
-5.6970 7.7975 -2.5004 0.9609
-6.2407 7.3690 -2.5003 0.9609
-6.5007 7.1405 -2.5002 0.9609
-7.2292 6.4009 -2.5000 0.9609
-7.4538 6.1376 -2.5000 0.9609
-7.6689 5.8664 -2.5000 0.9609
-7.8741 5.5876 -2.4999 0.9609
-8.0692 5.3017 -2.4999 0.9609
-8.2540 5.0090 -2.4998 0.9609
8.4302 2.9583 -2.5292 0.9635
8.2056 3.5584 -2.5320 0.9635
7.6299 4.7052 -2.5376 0.9634
7.4605 4.9784 -2.5391 0.9634
7.0927 5.5063 -2.5420 0.9634
6.6875 6.0071 -2.5448 0.9633
6.2470 6.4780 -2.5477 0.9633
5.7783 6.9227 -2.5528 0.9632
5.5159 7.1117 -2.5479 0.9633
5.2346 7.2732 -2.5368 0.9634
4.9492 7.4240 -2.5259 0.9636
4.0918 7.8513 -2.5064 0.9639
3.8041 7.9854 -2.5040 0.9639
3.2201 8.2320 -2.5024 0.9639
2.9229 8.3419 -2.5023 0.9639
2.3176 8.5294 -2.5022 0.9639
2.0104 8.6067 -2.5021 0.9639
1.7005 8.6730 -2.5020 0.9639
0.2687 5.3480 -1.5159 0.9780
-0.1029 4.7860 -1.3552 0.9803
-0.5734 4.4186 -1.2614 0.9816
-0.7336 4.4080 -1.2650 0.9816
-1.0534 4.3685 -1.2721 0.9815
-1.5432 4.3056 -1.2948 0.9812
-1.7142 4.2915 -1.3082 0.9810
-2.0483 4.2218 -1.3284 0.9807
-2.2309 4.2072 -1.3481 0.9804
-2.4189 4.1914 -1.3700 0.9801
-5.2108 7.1320 -2.5005 0.9639
-5.9459 6.5310 -2.5003 0.9639
-6.6122 5.8547 -2.5002 0.9640
-6.8177 5.6138 -2.5001 0.9640
-7.2022 5.1108 -2.5001 0.9640
7.8503 2.4424 -2.5287 0.9662
7.4357 3.5464 -2.5339 0.9661
7.3075 3.8126 -2.5352 0.9661
7.0228 4.3308 -2.5378 0.9661
6.8667 4.5821 -2.5391 0.9660
6.7015 4.8279 -2.5404 0.9660
6.3450 5.3010 -2.5431 0.9660
6.1541 5.5279 -2.5444 0.9660
5.7512 5.9639 -2.5484 0.9659
5.5351 6.1677 -2.5490 0.9659
5.0420 6.5008 -2.5304 0.9662
4.5345 6.8021 -2.5144 0.9664
4.2788 6.9457 -2.5092 0.9664
3.2335 7.4656 -2.5024 0.9665
2.4132 7.7690 -2.5022 0.9665
2.1331 7.8503 -2.5021 0.9665
1.5651 7.9825 -2.5020 0.9665
1.2780 8.0333 -2.5019 0.9665
0.4333 5.0230 -1.5507 0.9791
0.2433 4.8430 -1.4915 0.9799
-0.0961 4.4671 -1.3743 0.9815
-0.5680 4.3766 -1.3574 0.9817
-0.7259 4.3618 -1.3601 0.9817
-1.0432 4.3265 -1.3689 0.9815
-1.6926 4.2374 -1.4035 0.9811
-1.8567 4.2043 -1.4136 0.9809
-2.0259 4.1757 -1.4275 0.9808
-4.5579 6.7323 -2.5006 0.9665
-4.7961 6.5645 -2.5006 0.9665
-5.0280 6.3882 -2.5005 0.9666
-5.2539 6.2038 -2.5005 0.9666
-5.4728 6.0114 -2.5004 0.9666
-6.7934 4.4635 -2.5002 0.9666
7.2662 2.2606 -2.5295 0.9684
6.7625 3.5282 -2.5355 0.9684
6.6349 3.7702 -2.5367 0.9683
6.0396 4.6887 -2.5416 0.9683
5.6940 5.1146 -2.5442 0.9683
5.0908 5.6726 -2.5336 0.9684
4.8674 5.8314 -2.5249 0.9685
4.6417 5.9846 -2.5176 0.9686
3.9523 6.4157 -2.5048 0.9687
3.7182 6.5503 -2.5037 0.9687
3.4795 6.6766 -2.5027 0.9688
3.2377 6.7963 -2.5024 0.9688
2.9919 6.9079 -2.5023 0.9688
2.7423 7.0105 -2.5023 0.9688
2.2329 7.1886 -2.5022 0.9688
1.7121 7.3298 -2.5020 0.9688
1.4482 7.3863 -2.5020 0.9688
0.5846 4.7718 -1.5980 0.9799
-0.2517 4.3842 -1.4597 0.9817
-0.7188 4.3193 -1.4555 0.9817
-1.1895 4.2572 -1.4693 0.9815
-1.5107 4.2148 -1.4883 0.9813
-1.6751 4.1937 -1.5011 0.9811
-2.0127 4.1484 -1.5327 0.9808
-2.1856 4.1217 -1.5508 0.9805
-4.2176 6.2297 -2.5007 0.9688
-4.4381 6.0744 -2.5007 0.9688
-5.0642 5.5626 -2.5005 0.9688
-5.2603 5.3774 -2.5005 0.9688
-5.4496 5.1854 -2.5005 0.9688
-5.6318 4.9866 -2.5004 0.9688
-5.9744 4.5701 -2.5004 0.9688
-6.1343 4.3530 -2.5003 0.9688
-6.2863 4.1303 -2.5003 0.9688
6.5937 2.5828 -2.5324 0.9704
6.2867 3.2800 -2.5357 0.9703
6.0409 3.7253 -2.5380 0.9703
4.7068 5.2448 -2.5201 0.9705
4.3014 5.5458 -2.5098 0.9706
4.0942 5.6887 -2.5064 0.9707
3.6719 5.9604 -2.5035 0.9707
3.4546 6.0860 -2.5026 0.9707
3.2340 6.2055 -2.5024 0.9707
3.0094 6.3173 -2.5023 0.9707
1.8347 6.7519 -2.5021 0.9707
0.2224 4.4266 -1.5850 0.9813
0.0631 4.3966 -1.5724 0.9815
-0.0941 4.3764 -1.5654 0.9816
-0.5612 4.3242 -1.5593 0.9816
-0.7164 4.3051 -1.5607 0.9816
-0.8721 4.2856 -1.5640 0.9816
-1.0287 4.2660 -1.5693 0.9815
-1.3460 4.2265 -1.5862 0.9813
-2.0067 4.1360 -1.6440 0.9807
-2.3544 4.0796 -1.6844 0.9802
-2.5511 4.0756 -1.7194 0.9798
-3.9204 5.7908 -2.5008 0.9707
-4.5192 5.3363 -2.5007 0.9707
-4.7075 5.1708 -2.5006 0.9707
-5.7022 4.0464 -2.5004 0.9707
-5.9774 3.6274 -2.5004 0.9707
6.3060 1.9619 -2.5308 0.9721
6.2341 2.1875 -2.5318 0.9721
5.7560 3.2708 -2.5370 0.9720
5.3827 3.8778 -2.5423 0.9720
4.9083 4.4089 -2.5284 0.9721
4.1938 5.0243 -2.5080 0.9724
4.0068 5.1660 -2.5054 0.9724
3.8168 5.3031 -2.5039 0.9724
3.6234 5.4353 -2.5033 0.9724
3.2235 5.6789 -2.5024 0.9724
3.0178 5.7906 -2.5024 0.9724
2.3786 6.0808 -2.5022 0.9724
1.9368 6.2353 -2.5021 0.9724
1.7120 6.3006 -2.5021 0.9724
1.4851 6.3578 -2.5020 0.9724
1.2562 6.4068 -2.5020 0.9724
1.0257 6.4476 -2.5019 0.9724
0.3817 4.4244 -1.7018 0.9812
0.2212 4.4021 -1.6891 0.9813
0.0628 4.3750 -1.6767 0.9814
-0.0940 4.3714 -1.6756 0.9814
-0.2500 4.3546 -1.6715 0.9815
-0.4053 4.3356 -1.6687 0.9815
-0.7150 4.2967 -1.6692 0.9815
-1.0265 4.2572 -1.6782 0.9814
-1.1839 4.2372 -1.6860 0.9813
-1.3431 4.2175 -1.6962 0.9812
-1.5045 4.1974 -1.7087 0.9811
-1.6681 4.1762 -1.7233 0.9809
-1.8330 4.1506 -1.7388 0.9808
-2.3462 4.0653 -1.7987 0.9801
-3.6585 5.4040 -2.5009 0.9724
-4.3930 4.8253 -2.5007 0.9724
-4.5631 4.6647 -2.5007 0.9724
-5.0373 4.1478 -2.5006 0.9724
-5.3214 3.7761 -2.5005 0.9724
5.9058 1.8374 -2.5314 0.9736
5.8383 2.0487 -2.5323 0.9736
5.4940 2.8664 -2.5362 0.9736
5.2825 3.2575 -2.5400 0.9735
4.7294 3.9512 -2.5223 0.9737
4.5752 4.1097 -2.5170 0.9738
4.4174 4.2637 -2.5127 0.9738
4.0903 4.5578 -2.5064 0.9739
3.9211 4.6977 -2.5044 0.9739
3.3915 5.0875 -2.5025 0.9739
3.2069 5.2057 -2.5024 0.9739
2.4299 5.6102 -2.5022 0.9739
0.3806 4.4116 -1.8123 0.9810
0.2201 4.3806 -1.7951 0.9812
-0.2496 4.3477 -1.7824 0.9814
-0.4045 4.3276 -1.7789 0.9814
-0.8687 4.2686 -1.7828 0.9813
-1.0245 4.2487 -1.7887 0.9813
-1.9982 4.1186 -1.8736 0.9804
-2.1486 4.0519 -1.8771 0.9804
-2.3269 4.0320 -1.9053 0.9801
-4.1134 4.5182 -2.5008 0.9739
-4.2727 4.3679 -2.5007 0.9739
-4.7167 3.8838 -2.5006 0.9739
-4.8528 3.7122 -2.5006 0.9739
-4.9827 3.5358 -2.5006 0.9739
-5.2231 3.1697 -2.5005 0.9739
5.4836 1.9242 -2.5327 0.9750
5.4131 2.1203 -2.5336 0.9750
5.0594 2.8749 -2.5361 0.9749
4.9451 3.0495 -2.5320 0.9750
4.6947 3.3822 -2.5217 0.9751
4.4254 3.6972 -2.5132 0.9752
4.2844 3.8485 -2.5099 0.9752
4.1393 3.9953 -2.5072 0.9752
3.6808 4.4098 -2.5034 0.9752
3.5197 4.5380 -2.5029 0.9753
3.1850 4.7776 -2.5024 0.9753
3.0116 4.8886 -2.5024 0.9753
2.6535 5.0916 -2.5023 0.9753
2.4693 5.1834 -2.5022 0.9753
2.0915 5.3468 -2.5022 0.9753
1.8985 5.4182 -2.5021 0.9753
1.7030 5.4827 -2.5021 0.9753
1.3058 5.5904 -2.5020 0.9753
1.1046 5.6335 -2.5019 0.9753
0.3748 4.3441 -1.9003 0.9812
0.0630 4.3900 -1.9134 0.9810
-0.2493 4.3426 -1.8957 0.9812
-0.4039 4.3214 -1.8916 0.9812
-0.5584 4.3031 -1.8911 0.9812
-0.7131 4.2848 -1.8931 0.9812
-0.8683 4.2668 -1.8977 0.9812
-1.0245 4.2488 -1.9048 0.9811
-1.1821 4.2305 -1.9144 0.9810
-1.5032 4.1939 -1.9416 0.9807
-1.6671 4.1737 -1.9587 0.9806
-3.2171 4.7520 -2.5010 0.9753
-4.1570 3.9554 -2.5008 0.9753
-4.4296 3.6474 -2.5007 0.9753
-4.6794 3.3206 -2.5007 0.9753
-4.7954 3.1507 -2.5006 0.9753
5.2237 1.6252 -2.5323 0.9762
5.0251 2.1792 -2.5354 0.9761
4.8434 2.5270 -2.5287 0.9762
4.7416 2.6944 -2.5244 0.9762
4.5218 3.0174 -2.5163 0.9763
4.4048 3.1733 -2.5129 0.9764
4.2833 3.3253 -2.5100 0.9764
4.1572 3.4732 -2.5075 0.9764
3.8923 3.7569 -2.5041 0.9764
3.7544 3.8933 -2.5036 0.9764
3.4645 4.1506 -2.5026 0.9765
3.3133 4.2719 -2.5024 0.9765
2.9987 4.4982 -2.5024 0.9765
2.8354 4.6027 -2.5023 0.9765
2.6686 4.7013 -2.5023 0.9765
2.1484 4.9603 -2.5022 0.9765
0.8492 5.3379 -2.5019 0.9765
0.2175 4.3289 -2.0063 0.9811
0.0618 4.3088 -1.9947 0.9812
-0.5586 4.3042 -2.0091 0.9811
-0.7133 4.2859 -2.0112 0.9810
-1.0248 4.2501 -2.0237 0.9809
-1.1825 4.2321 -2.0340 0.9808
-1.3418 4.2134 -2.0468 0.9807
-1.8325 4.1496 -2.0997 0.9802
-1.9761 4.0729 -2.0955 0.9802
-2.3294 4.0363 -2.1571 0.9797
-3.0290 4.4742 -2.5010 0.9765
-3.3417 4.2455 -2.5009 0.9765
-3.6372 3.9952 -2.5009 0.9765
-3.7780 3.8622 -2.5009 0.9765
-4.0449 3.5815 -2.5008 0.9765
-4.2910 3.2824 -2.5007 0.9765
-4.4059 3.1265 -2.5007 0.9765
-4.6185 2.8028 -2.5007 0.9765
4.7220 2.0477 -2.5246 0.9773
4.6391 2.2126 -2.5211 0.9774
4.3589 2.6880 -2.5120 0.9774
4.0350 3.1324 -2.5057 0.9775
3.5419 3.6729 -2.5029 0.9775
3.2691 3.9165 -2.5024 0.9775
3.1266 4.0311 -2.5024 0.9775
2.8297 4.2446 -2.5023 0.9775
2.6756 4.3433 -2.5023 0.9775
2.5182 4.4363 -2.5023 0.9775
2.3575 4.5237 -2.5022 0.9775
2.0273 4.6808 -2.5022 0.9775
1.1602 4.9669 -2.5020 0.9775
0.5346 4.3632 -2.1563 0.9806
0.3751 4.3483 -2.1409 0.9807
0.2177 4.3317 -2.1275 0.9809
0.0619 4.3103 -2.1145 0.9810
-0.0934 4.3429 -2.1308 0.9808
-0.2496 4.3467 -2.1357 0.9808
-0.5584 4.3029 -2.1284 0.9809
-1.0242 4.2476 -2.1432 0.9807
-1.1815 4.2284 -2.1536 0.9806
-1.5019 4.1902 -2.1834 0.9804
-1.6660 4.1710 -2.2031 0.9802
-2.1511 4.0565 -2.2523 0.9798
-2.5103 4.0105 -2.3208 0.9791
-3.0079 4.1170 -2.5010 0.9775
-3.1535 4.0064 -2.5010 0.9775
-3.4324 3.7701 -2.5009 0.9775
-3.6935 3.5144 -2.5009 0.9775
-3.8171 3.3797 -2.5009 0.9775
-3.9358 3.2408 -2.5008 0.9775
-4.0493 3.0975 -2.5008 0.9775
-4.2608 2.7995 -2.5008 0.9775
4.5833 1.6083 -2.5199 0.9783
4.3715 2.0849 -2.5126 0.9784
4.2904 2.2384 -2.5105 0.9784
4.1131 2.5364 -2.5069 0.9785
4.0172 2.6807 -2.5054 0.9785
3.9168 2.8217 -2.5043 0.9785
3.8121 2.9595 -2.5037 0.9785
3.7031 3.0938 -2.5033 0.9785
3.3484 3.4723 -2.5025 0.9785
3.2218 3.5900 -2.5024 0.9785
2.6755 4.0134 -2.5023 0.9785
2.5299 4.1067 -2.5023 0.9785
2.3810 4.1946 -2.5022 0.9785
1.9169 4.4258 -2.5021 0.9785
1.5948 4.5516 -2.5021 0.9785
1.4307 4.6058 -2.5020 0.9785
1.0970 4.6963 -2.5019 0.9785
0.5345 4.3629 -2.2803 0.9804
0.3751 4.3479 -2.2640 0.9805
0.2176 4.3312 -2.2498 0.9806
0.0619 4.3104 -2.2364 0.9808
-0.1037 4.8211 -2.5017 0.9785
-0.4042 4.3244 -2.2532 0.9806
-0.7121 4.2787 -2.2502 0.9806
-0.8671 4.2607 -2.2557 0.9806
-1.3392 4.2052 -2.2895 0.9803
-1.6268 4.5388 -2.5013 0.9785
-1.7884 4.4775 -2.5013 0.9785
-1.9478 4.4105 -2.5013 0.9785
-2.5580 4.0866 -2.5011 0.9785
-2.7028 3.9922 -2.5011 0.9785
-3.1156 3.6789 -2.5010 0.9785
-3.2454 3.5648 -2.5010 0.9785
-3.4924 3.3231 -2.5009 0.9785
-3.6093 3.1957 -2.5009 0.9785
-3.7215 3.0643 -2.5009 0.9785
-3.8289 2.9289 -2.5009 0.9785
-4.0288 2.6471 -2.5008 0.9785
-4.1211 2.5009 -2.5008 0.9785
4.3818 1.3632 -2.5134 0.9793
4.3273 1.5184 -2.5118 0.9793
4.2674 1.6715 -2.5102 0.9793
4.1319 1.9707 -2.5073 0.9793
4.0567 2.1165 -2.5061 0.9793
3.8023 2.5372 -2.5036 0.9794
3.6099 2.8025 -2.5030 0.9794
3.5067 2.9297 -2.5027 0.9794
3.3991 3.0532 -2.5025 0.9794
3.0516 3.4004 -2.5024 0.9794
2.8001 3.6102 -2.5023 0.9794
2.3963 3.8897 -2.5022 0.9794
2.2553 3.9731 -2.5022 0.9794
2.1114 4.0513 -2.5022 0.9794
1.8156 4.1921 -2.5021 0.9794
1.6642 4.2544 -2.5021 0.9794
1.3551 4.3625 -2.5020 0.9794
1.0390 4.4483 -2.5019 0.9794
0.8789 4.4826 -2.5019 0.9794
0.7177 4.5112 -2.5019 0.9794
0.5555 4.5339 -2.5018 0.9794
0.2175 4.3286 -2.3738 0.9804
0.0618 4.3091 -2.3604 0.9805
-0.0982 4.5665 -2.5017 0.9794
-0.4251 4.5476 -2.5016 0.9794
-0.7498 4.5054 -2.5015 0.9794
-0.9108 4.4755 -2.5015 0.9794
-1.3859 4.3517 -2.5014 0.9794
-1.5409 4.2992 -2.5014 0.9794
-1.6940 4.2411 -2.5013 0.9794
-2.2826 3.9552 -2.5012 0.9794
-2.4229 3.8709 -2.5012 0.9794
-2.5601 3.7815 -2.5011 0.9794
-2.6939 3.6872 -2.5011 0.9794
-2.8244 3.5882 -2.5011 0.9794
-2.9511 3.4847 -2.5010 0.9794
-3.0741 3.3766 -2.5010 0.9794
-3.4187 3.0270 -2.5009 0.9794
-3.5250 2.9025 -2.5009 0.9794
-3.7238 2.6425 -2.5009 0.9794
-3.8161 2.5073 -2.5009 0.9794
4.0413 1.5830 -2.5059 0.9802
3.9806 1.7262 -2.5050 0.9802
3.9150 1.8672 -2.5043 0.9802
3.7700 2.1423 -2.5035 0.9802
3.6904 2.2758 -2.5032 0.9802
3.6062 2.4064 -2.5030 0.9802
3.5172 2.5338 -2.5027 0.9802
3.2245 2.8964 -2.5024 0.9802
3.1186 3.0101 -2.5024 0.9802
2.7773 3.3274 -2.5023 0.9802
2.2732 3.6900 -2.5022 0.9802
1.8639 3.9125 -2.5021 0.9802
1.7224 3.9768 -2.5021 0.9802
1.4330 4.0898 -2.5020 0.9802
1.2855 4.1385 -2.5020 0.9802
0.9857 4.2198 -2.5019 0.9802
0.6808 4.2795 -2.5019 0.9802
0.3725 4.3172 -2.5018 0.9802
0.2175 4.3277 -2.5017 0.9802
0.0622 4.3326 -2.5017 0.9802
-0.4033 4.3141 -2.5016 0.9802
-0.5576 4.2968 -2.5016 0.9802
-0.8640 4.2457 -2.5015 0.9802
-1.1659 4.1728 -2.5014 0.9802
-1.6070 4.0234 -2.5013 0.9802
-1.7502 3.9631 -2.5013 0.9802
-1.8911 3.8978 -2.5013 0.9802
-2.0296 3.8274 -2.5013 0.9802
-2.2985 3.6721 -2.5012 0.9802
-2.4286 3.5873 -2.5012 0.9802
-2.6794 3.4040 -2.5011 0.9802
-2.7996 3.3058 -2.5011 0.9802
-3.0292 3.0966 -2.5010 0.9802
-3.1382 2.9861 -2.5010 0.9802
-3.3440 2.7535 -2.5010 0.9802
-3.6202 2.3786 -2.5009 0.9802
-3.7031 2.2473 -2.5009 0.9802
