ply
format ascii 1.0
element vertex 903
property float32 x
property float32 y
property float32 z
property float32 I
end_header
-26.0840 14.5764 5.2687 0.8857
-34.2055 14.5641 6.5553 0.8598
-37.7210 14.4939 7.1253 0.8486
-23.2812 -15.8156 4.9627 0.8920
-33.6793 -26.5782 7.5650 0.8401
-31.1383 -26.4293 7.2016 0.8471
-29.1952 -26.6293 6.9677 0.8517
-27.1682 -28.5872 6.9539 0.8520
-27.2833 -30.8410 7.2606 0.8460
-19.1527 -25.0435 5.5592 0.8798
-19.1388 -29.1155 6.1437 0.8680
-18.4142 -30.3173 6.2546 0.8658
-18.2527 -35.5400 7.0448 0.8502
-16.6696 -35.5220 6.9189 0.8527
-15.2680 -35.8045 6.8633 0.8538
-14.4860 -37.6390 7.1113 0.8489
-10.0125 -37.5882 6.8589 0.8539
-3.4522 -15.1078 2.7326 0.9390
-7.2533 -37.9270 6.8087 0.8548
-3.2542 -39.6485 7.0146 0.8508
-1.8325 -39.6323 6.9957 0.8512
-0.4167 -39.6162 6.9858 0.8514
0.9969 -39.6001 6.9848 0.8514
7.7191 -37.3866 6.7313 0.8564
-26.3260 14.7117 4.6200 0.8851
-30.9869 14.5207 5.2424 0.8707
-34.2055 14.5641 5.6953 0.8603
-37.7974 14.5232 6.2031 0.8489
-39.3554 -28.8398 7.4746 0.8208
-31.3568 -32.9943 6.9730 0.8318
-29.3515 -35.6662 7.0762 0.8295
-26.8118 -37.7792 7.0969 0.8291
-18.6703 -28.4028 5.2070 0.8715
-18.3613 -35.7513 6.1570 0.8499
-18.6408 -39.7225 6.7220 0.8373
-17.9115 -42.0035 6.9953 0.8313
3.7779 -39.0097 6.0040 0.8533
-28.5221 14.6287 4.1742 0.8787
-31.1858 14.6139 4.4848 0.8703
-37.7975 14.5232 5.2729 0.8493
-23.2764 -15.8123 3.6643 0.8927
-19.1631 -25.0571 4.1078 0.8805
-18.7895 -26.4753 4.2276 0.8773
-3.4485 -15.0918 2.0159 0.9395
-26.2243 14.6548 3.2259 0.8862
-31.1860 14.6140 3.6983 0.8706
-34.0225 14.4862 3.9708 0.8618
-37.7975 14.5233 4.3481 0.8497
-23.2740 -15.8107 3.0213 0.8930
-18.6851 -30.7634 3.8650 0.8652
-19.0547 -34.0538 4.1903 0.8547
-18.5779 -43.5664 5.0858 0.8265
-3.4481 -15.0902 1.6622 0.9396
-28.5221 14.6287 2.7135 0.8793
-41.3964 -26.0129 4.1388 0.8218
-23.2717 -15.8090 2.3816 0.8932
-19.2188 -25.1300 2.6781 0.8807
-18.5333 -43.4616 3.9997 0.8272
-26.2244 14.6549 1.8629 0.8866
-28.5221 14.6287 1.9877 0.8794
-23.2693 -15.8074 1.7444 0.8934
3.2817 -24.6728 1.5434 0.9051
4.1841 -24.6826 1.5524 0.9045
-28.5222 14.6288 1.2640 0.8796
-31.7286 13.5095 1.3598 0.8711
-32.1776 12.3639 1.3592 0.8711
-35.1417 12.0824 1.4653 0.8618
-23.2669 -15.8058 1.1091 0.8935
-26.3269 14.7122 0.5094 0.8863
-28.5222 14.6288 0.5415 0.8796
-31.1716 14.6073 0.5815 0.8713
-36.4817 12.5431 0.6516 0.8570
-40.7605 -25.6133 0.8132 0.8248
-23.2646 -15.8043 0.4751 0.8936
-18.8611 -24.6621 0.5245 0.8832
-18.0970 -25.4996 0.5282 0.8824
-18.3677 -43.0735 0.7910 0.8292
4.1466 -42.8175 0.7267 0.8419
3.2468 -24.4108 0.4160 0.9062
-28.5222 14.6288 -0.1805 0.8797
-36.4828 12.5435 -0.2172 0.8570
-39.7083 -23.0179 -0.2584 0.8323
-36.5741 -22.9825 -0.2432 0.8413
-28.9895 -22.8770 -0.2079 0.8627
-26.9225 -22.8509 -0.1988 0.8683
-25.0413 -22.8404 -0.1908 0.8732
-21.6686 -22.8002 -0.1771 0.8818
-20.1541 -22.7821 -0.1713 0.8854
-17.4028 -22.7552 -0.1613 0.8917
-11.6488 -22.6814 -0.1436 0.9030
-10.6382 -22.6694 -0.1410 0.9047
-9.6674 -22.6704 -0.1388 0.9061
-7.8001 -22.6462 -0.1349 0.9086
-3.4462 -15.0820 -0.0871 0.9400
-0.2374 -22.5600 -0.1270 0.9137
2.9965 -22.5289 -0.1280 0.9131
4.6473 -22.5091 -0.1294 0.9122
5.4890 -22.4990 -0.1304 0.9115
-28.5222 14.6288 -0.9026 0.8796
-30.9365 14.4971 -0.9620 0.8722
-31.4308 13.3827 -0.9619 0.8722
-36.0156 12.3829 -1.0724 0.8586
-36.5751 -22.9831 -1.2163 0.8413
-23.2599 -15.8011 -0.7918 0.8936
-21.6680 -22.7995 -0.8857 0.8817
-18.7378 -22.7690 -0.8303 0.8887
-17.4033 -22.7560 -0.8067 0.8917
-16.1412 -22.7436 -0.7853 0.8944
-14.9352 -22.7207 -0.7656 0.8969
-12.6983 -22.6940 -0.7322 0.9012
-11.6488 -22.6815 -0.7180 0.9030
-9.6675 -22.6708 -0.6940 0.9061
-8.7206 -22.6585 -0.6836 0.9074
-4.3237 -22.6085 -0.6481 0.9120
-3.4911 -22.5988 -0.6439 0.9126
-1.0437 -22.5703 -0.6362 0.9136
0.5678 -22.5581 -0.6354 0.9137
1.3738 -22.5484 -0.6361 0.9136
2.1827 -22.5387 -0.6376 0.9134
2.9965 -22.5289 -0.6400 0.9131
3.8173 -22.5191 -0.6431 0.9127
4.6473 -22.5091 -0.6472 0.9121
5.4890 -22.4990 -0.6521 0.9115
-28.1386 13.1860 -1.5759 0.8830
-28.1248 11.9751 -1.5502 0.8848
-30.8830 11.8664 -1.6778 0.8759
-33.5374 11.5308 -1.7985 0.8676
-36.9642 11.2512 -1.9595 0.8566
-49.0741 7.5534 -2.5181 0.8197
-49.1527 4.0071 -2.5010 0.8208
-49.1616 0.4902 -2.4933 0.8213
-49.1467 -1.2642 -2.4933 0.8213
-49.0691 -3.0169 -2.4932 0.8213
-48.9290 -4.7656 -2.4931 0.8213
-48.1080 -9.9599 -2.4915 0.8214
-47.2732 -13.3651 -2.4914 0.8214
-42.2618 -18.7857 -2.3455 0.8309
-39.7079 -23.0177 -2.3276 0.8321
-31.2603 -22.9076 -1.9654 0.8562
-25.0398 -22.8390 -1.7188 0.8731
-23.2907 -22.8182 -1.6536 0.8776
-21.6673 -22.7989 -1.5951 0.8816
-20.1556 -22.7836 -1.5427 0.8853
-18.7385 -22.7698 -1.4955 0.8886
-17.4039 -22.7567 -1.4529 0.8916
-14.9353 -22.7208 -1.3789 0.8968
-13.7920 -22.7072 -1.3473 0.8991
-10.6383 -22.6697 -1.2700 0.9046
-4.3238 -22.6094 -1.1674 0.9119
-3.4913 -22.5997 -1.1597 0.9125
0.5678 -22.5580 -1.1444 0.9136
1.3738 -22.5484 -1.1456 0.9135
3.8173 -22.5190 -1.1583 0.9126
-26.2245 14.6549 -2.2027 0.8865
-28.1250 11.9751 -2.2413 0.8846
-30.2125 10.3876 -2.3425 0.8797
-30.5630 9.3028 -2.3425 0.8797
-31.4566 8.3608 -2.3865 0.8776
-33.1677 7.5597 -2.4943 0.8725
-33.9813 1.5526 -2.4942 0.8725
-33.8577 -3.2977 -2.4943 0.8725
-33.7191 -4.5037 -2.4943 0.8725
-33.3136 -6.8972 -2.4944 0.8725
-27.6504 -16.0283 -2.3434 0.8797
-23.0912 -15.6865 -2.0468 0.8941
-25.8017 -18.9076 -2.3454 0.8796
-22.8585 -22.3949 -2.3464 0.8795
-21.6668 -22.7983 -2.3061 0.8815
-20.1562 -22.7844 -2.2305 0.8851
-18.7391 -22.7705 -2.1623 0.8885
-17.4045 -22.7575 -2.1007 0.8914
-14.9354 -22.7210 -1.9936 0.8967
-11.6490 -22.6819 -1.8696 0.9028
-10.6384 -22.6698 -1.8361 0.9044
-9.6678 -22.6715 -1.8072 0.9059
-8.7208 -22.6592 -1.7802 0.9072
-6.9035 -22.6357 -1.7352 0.9095
-6.0266 -22.6243 -1.7167 0.9104
-4.3240 -22.6103 -1.6879 0.9118
-3.4914 -22.6006 -1.6768 0.9124
-1.8535 -22.5814 -1.6613 0.9131
3.8173 -22.5190 -1.6747 0.9125
-19.5499 10.9250 -2.1501 0.9139
-21.1587 10.8521 -2.2829 0.9089
-22.1114 10.3616 -2.3443 0.9065
-22.4664 9.5657 -2.3443 0.9065
-22.7928 8.7579 -2.3442 0.9065
-24.5881 8.4538 -2.4962 0.9008
-24.8734 7.5709 -2.4961 0.9008
-25.1272 6.6785 -2.4961 0.9008
-25.3491 5.7777 -2.4961 0.9008
-25.5388 4.8695 -2.4960 0.9008
-25.6960 3.9551 -2.4960 0.9008
-25.8206 3.0357 -2.4960 0.9008
-25.9497 -1.5954 -2.4960 0.9008
-25.8765 -2.5204 -2.4960 0.9008
-25.6317 -4.3594 -2.4961 0.9008
-25.2566 -6.1765 -2.4962 0.9008
-25.0208 -7.0739 -2.4963 0.9008
-24.7531 -7.9624 -2.4963 0.9008
-24.4540 -8.8408 -2.4964 0.9008
-23.7629 -10.5629 -2.4966 0.9008
-23.3718 -11.4045 -2.4967 0.9008
-22.5009 -13.0433 -2.4969 0.9008
-22.0222 -13.8385 -2.4970 0.9008
-20.0083 -14.6622 -2.3815 0.9051
-19.1766 -15.1332 -2.3453 0.9065
-18.0506 -16.4642 -2.3455 0.9065
-17.4549 -17.1009 -2.3460 0.9065
-16.8386 -17.7181 -2.3467 0.9064
-15.5410 -18.8845 -2.3480 0.9064
-14.8614 -19.4323 -2.3486 0.9064
-14.1624 -19.9555 -2.3493 0.9063
-12.7065 -20.9201 -2.3499 0.9063
-11.1846 -21.7776 -2.3504 0.9063
-8.7210 -22.6596 -2.3310 0.9070
-6.9036 -22.6360 -2.2720 0.9093
-3.4448 -15.0754 -1.4846 0.9398
-4.3242 -22.6112 -2.2101 0.9116
-1.0438 -22.5728 -2.1694 0.9132
-0.2374 -22.5634 -2.1663 0.9133
1.3738 -22.5483 -2.1688 0.9132
2.1827 -22.5386 -2.1739 0.9130
4.6473 -22.5090 -2.2066 0.9118
5.4890 -22.4989 -2.2234 0.9111
-17.2361 9.6320 -2.3454 0.9235
-17.5683 9.0106 -2.3454 0.9235
-19.3437 8.2361 -2.4974 0.9188
-19.8809 6.8354 -2.4973 0.9188
-20.4966 4.6716 -2.4971 0.9188
-20.6500 3.9373 -2.4971 0.9188
-20.9521 1.7081 -2.4971 0.9188
-20.9997 0.9595 -2.4971 0.9188
-21.0148 -0.5406 -2.4971 0.9188
-20.5863 -4.2622 -2.4972 0.9188
-20.4215 -4.9941 -2.4973 0.9188
-20.2307 -5.7197 -2.4973 0.9188
-20.0142 -6.4380 -2.4974 0.9188
-19.7722 -7.1482 -2.4974 0.9188
-19.2132 -8.5405 -2.4976 0.9188
-18.5564 -9.8896 -2.4977 0.9188
-18.1924 -10.5457 -2.4978 0.9188
-16.5098 -13.0287 -2.4982 0.9188
-15.5400 -14.1742 -2.4985 0.9188
-14.7566 -14.4573 -2.4539 0.9202
-13.7192 -14.4358 -2.3656 0.9229
-13.0894 -14.7962 -2.3466 0.9235
-12.5538 -15.2546 -2.3467 0.9235
-11.4353 -16.1128 -2.3470 0.9235
-10.2598 -16.8918 -2.3476 0.9235
-9.6524 -17.2504 -2.3481 0.9235
-8.4008 -17.9016 -2.3490 0.9234
-7.1052 -18.4615 -2.3498 0.9234
-5.7724 -18.9271 -2.3505 0.9234
-5.0941 -19.1238 -2.3509 0.9234
-3.4173 -14.9553 -1.8223 0.9401
-3.0226 -19.5663 -2.3518 0.9233
-1.6199 -19.7362 -2.3523 0.9233
-0.2083 -19.8050 -2.3527 0.9233
0.4985 -19.8013 -2.3529 0.9233
4.0061 -19.4029 -2.3534 0.9233
-15.3916 8.6012 -2.4982 0.9312
-15.9650 7.4813 -2.4981 0.9312
-16.2215 6.9068 -2.4981 0.9313
-16.6721 5.7321 -2.4980 0.9313
-16.8658 5.1336 -2.4980 0.9313
-17.4239 2.6819 -2.4979 0.9313
-17.5084 2.0585 -2.4978 0.9313
-17.6106 0.8046 -2.4978 0.9313
-17.6281 0.1757 -2.4978 0.9313
-17.3800 -2.9560 -2.4979 0.9313
-17.1254 -4.1880 -2.4980 0.9313
-16.7838 -5.3988 -2.4981 0.9313
-16.3567 -6.5823 -2.4982 0.9312
-16.1119 -7.1619 -2.4983 0.9312
-15.2556 -8.8433 -2.4985 0.9312
-14.5870 -9.9094 -2.4986 0.9312
-14.2246 -10.4239 -2.4987 0.9312
-13.8442 -10.9252 -2.4988 0.9312
-13.4461 -11.4126 -2.4989 0.9312
-13.0308 -11.8856 -2.4990 0.9312
-12.1510 -12.7856 -2.4992 0.9312
-10.1371 -14.2837 -2.4817 0.9317
-9.3786 -14.2676 -2.4192 0.9333
-8.6562 -14.2517 -2.3626 0.9349
-8.0909 -14.4598 -2.3477 0.9353
-7.5702 -14.7400 -2.3478 0.9352
-5.9527 -15.4670 -2.3482 0.9352
-5.3974 -15.6704 -2.3483 0.9352
-3.1139 -16.2828 -2.3489 0.9352
-2.5312 -16.3852 -2.3491 0.9352
-1.9451 -16.4666 -2.3494 0.9352
-0.7660 -16.5661 -2.3497 0.9352
-0.1745 -16.5841 -2.3499 0.9352
1.0088 -16.5562 -2.3502 0.9352
1.5990 -16.5104 -2.3503 0.9352
2.1871 -16.4435 -2.3504 0.9352
3.3544 -16.2466 -2.3505 0.9352
-13.2406 7.3992 -2.4987 0.9404
-13.9546 5.9416 -2.4986 0.9404
-14.3424 4.9312 -2.4985 0.9404
-14.6572 3.8957 -2.4985 0.9404
-14.7868 3.3703 -2.4984 0.9404
-14.9893 2.3071 -2.4984 0.9404
-15.0620 1.7708 -2.4984 0.9404
-15.1499 0.6921 -2.4984 0.9404
-15.1607 -0.3900 -2.4984 0.9404
-15.1372 -0.9307 -2.4984 0.9404
-15.0325 -2.0078 -2.4984 0.9404
-14.9514 -2.5430 -2.4985 0.9404
-14.8514 -3.0748 -2.4985 0.9404
-13.8603 -6.1611 -2.4987 0.9404
-13.6319 -6.6518 -2.4988 0.9404
-13.3862 -7.1341 -2.4989 0.9404
-12.8440 -8.0710 -2.4990 0.9404
-12.5482 -8.5244 -2.4991 0.9404
-12.2364 -8.9670 -2.4991 0.9404
-11.2093 -10.2242 -2.4994 0.9403
-9.6421 -11.7166 -2.4997 0.9403
-7.4110 -13.2447 -2.5003 0.9403
-6.9340 -13.5013 -2.5004 0.9403
-5.9541 -13.9627 -2.5006 0.9403
-5.4306 -14.1104 -2.4907 0.9405
-4.8550 -14.0958 -2.4560 0.9414
-4.2944 -14.0810 -2.4252 0.9421
-3.2106 -14.0509 -2.3744 0.9432
-1.6728 -14.1614 -2.3491 0.9438
-0.1500 -14.2611 -2.3495 0.9438
0.3589 -14.2580 -2.3496 0.9438
0.8675 -14.2369 -2.3497 0.9438
1.3750 -14.1975 -2.3498 0.9438
1.8807 -14.1401 -2.3499 0.9438
3.3814 -13.8601 -2.3503 0.9438
-11.6066 6.4860 -2.4991 0.9473
-12.4104 4.7685 -2.4989 0.9473
-12.7186 3.8712 -2.4989 0.9473
-13.0591 2.4900 -2.4988 0.9473
-13.1396 2.0224 -2.4988 0.9473
-13.2033 1.5523 -2.4988 0.9473
-13.2503 1.0802 -2.4988 0.9473
-13.2936 0.1325 -2.4988 0.9473
-13.2693 -0.8159 -2.4988 0.9473
-13.1775 -1.7601 -2.4988 0.9473
-13.1064 -2.2292 -2.4989 0.9473
-12.9143 -3.1583 -2.4989 0.9473
-12.6566 -4.0713 -2.4990 0.9473
-12.5034 -4.5204 -2.4990 0.9473
-12.1497 -5.4007 -2.4991 0.9473
-11.9495 -5.8309 -2.4992 0.9473
-11.5037 -6.6685 -2.4993 0.9473
-11.2588 -7.0749 -2.4993 0.9473
-10.9994 -7.4723 -2.4994 0.9473
-9.8256 -8.9621 -2.4997 0.9473
-9.4999 -9.3072 -2.4997 0.9473
-9.1620 -9.6405 -2.4998 0.9473
-8.8125 -9.9616 -2.4999 0.9473
-8.4518 -10.2701 -2.5000 0.9473
-6.9057 -11.3696 -2.5003 0.9473
-6.4959 -11.6092 -2.5004 0.9473
-4.3331 -12.5803 -2.5009 0.9473
-3.4252 -12.8584 -2.5011 0.9473
-1.5613 -13.2171 -2.5016 0.9473
-0.1400 -13.3099 -2.5019 0.9473
0.3350 -13.3071 -2.5020 0.9473
1.7552 -13.1967 -2.5023 0.9473
2.2251 -13.1262 -2.5024 0.9473
2.6921 -13.0390 -2.5025 0.9473
3.1558 -12.9352 -2.5026 0.9473
-10.5209 5.3961 -2.4994 0.9528
-11.0042 4.2282 -2.4919 0.9529
-11.1810 3.8442 -2.4992 0.9528
-11.4265 3.0370 -2.4992 0.9528
-11.5275 2.6274 -2.4992 0.9528
-11.6138 2.2144 -2.4992 0.9528
-11.6854 1.7986 -2.4991 0.9528
-11.7421 1.3805 -2.4991 0.9528
-11.7460 0.9576 -2.4911 0.9530
-11.8190 -0.3041 -2.4991 0.9528
-11.7674 -1.1462 -2.4992 0.9528
-11.7190 -1.5653 -2.4992 0.9528
-11.4850 -2.8087 -2.4992 0.9528
-11.2557 -3.6207 -2.4993 0.9528
-11.1195 -4.0200 -2.4993 0.9528
-10.9690 -4.4142 -2.4994 0.9528
-10.8049 -4.8029 -2.4994 0.9528
-10.4352 -5.5615 -2.4995 0.9528
-10.0124 -6.2917 -2.4996 0.9528
-9.7818 -6.6451 -2.4997 0.9528
-9.5387 -6.9900 -2.4997 0.9528
-9.2835 -7.3261 -2.4998 0.9528
-7.8368 -8.8587 -2.5001 0.9528
-7.5160 -9.1330 -2.5002 0.9528
-6.8459 -9.6463 -2.5003 0.9528
-6.1410 -10.1106 -2.5005 0.9528
-5.7765 -10.3237 -2.5006 0.9528
-5.0259 -10.7100 -2.5008 0.9528
-4.6408 -10.8829 -2.5008 0.9528
-3.8531 -11.1870 -2.5010 0.9528
-3.4517 -11.3177 -2.5011 0.9528
-3.0458 -11.4341 -2.5012 0.9528
-2.6360 -11.5359 -2.5013 0.9528
-1.8067 -11.6954 -2.5015 0.9528
-0.5467 -11.8228 -2.5018 0.9528
-0.1245 -11.8353 -2.5019 0.9528
0.7199 -11.8149 -2.5021 0.9528
-9.2844 5.1883 -2.4996 0.9572
-9.6305 4.5129 -2.4996 0.9572
-9.7852 4.1663 -2.4995 0.9572
-9.9275 3.8145 -2.4995 0.9572
-10.1741 3.0968 -2.4995 0.9572
-10.2780 2.7318 -2.4994 0.9572
-10.6341 0.1060 -2.4994 0.9572
-10.6312 -0.2735 -2.4994 0.9572
-10.6147 -0.6527 -2.4994 0.9572
-10.4843 -1.7832 -2.4994 0.9572
-10.3306 -2.5264 -2.4995 0.9572
-10.0019 -3.6159 -2.4996 0.9572
-9.5587 -4.6642 -2.4997 0.9572
-9.3863 -5.0024 -2.4997 0.9572
-9.0060 -5.6593 -2.4998 0.9572
-8.7985 -5.9771 -2.4999 0.9572
-8.3502 -6.5896 -2.5000 0.9572
-8.1100 -6.8835 -2.5000 0.9572
-7.3285 -7.7113 -2.5002 0.9572
-6.7599 -8.2147 -2.5003 0.9572
-6.4630 -8.4509 -2.5004 0.9572
-6.1576 -8.6764 -2.5005 0.9572
-5.8443 -8.8908 -2.5006 0.9572
-5.1957 -9.2855 -2.5007 0.9572
-4.8612 -9.4653 -2.5008 0.9572
-4.5205 -9.6330 -2.5009 0.9572
-4.1741 -9.7885 -2.5009 0.9572
-3.4656 -10.0619 -2.5011 0.9572
-3.1045 -10.1794 -2.5012 0.9572
-1.9992 -10.4539 -2.5014 0.9572
-1.6250 -10.5190 -2.5015 0.9572
-1.2486 -10.5706 -2.5016 0.9572
-0.4917 -10.6334 -2.5018 0.9572
0.2679 -10.6422 -2.5019 0.9572
0.6475 -10.6262 -2.5020 0.9572
1.4037 -10.5537 -2.5022 0.9572
2.1529 -10.4274 -2.5024 0.9572
-8.4282 4.7099 -2.4998 0.9609
-8.8829 3.7821 -2.4997 0.9609
-9.0121 3.4628 -2.4997 0.9609
-9.2359 2.8112 -2.4997 0.9609
-9.3303 2.4799 -2.4997 0.9609
-9.4128 2.1454 -2.4996 0.9609
-9.5417 1.4686 -2.4996 0.9609
-9.5880 1.1272 -2.4996 0.9609
-9.6221 0.7844 -2.4996 0.9609
-9.6509 -0.2483 -2.4996 0.9609
-9.5692 -1.2781 -2.4996 0.9609
-9.5176 -1.6188 -2.4997 0.9609
-9.4538 -1.9573 -2.4997 0.9609
-9.2903 -2.6266 -2.4997 0.9609
-9.0796 -3.2825 -2.4998 0.9609
-8.9568 -3.6044 -2.4998 0.9609
-8.6773 -4.2341 -2.4999 0.9609
-8.5207 -4.5411 -2.4999 0.9609
-8.3534 -4.8423 -2.5000 0.9609
-8.1754 -5.1374 -2.5000 0.9609
-7.9871 -5.4259 -2.5000 0.9609
-7.5801 -5.9819 -2.5001 0.9609
-7.1345 -6.5075 -2.5002 0.9609
-6.3987 -7.2331 -2.5004 0.9609
-6.1367 -7.4570 -2.5005 0.9609
-5.8669 -7.6714 -2.5005 0.9609
-4.7164 -8.4290 -2.5008 0.9609
-4.4127 -8.5921 -2.5009 0.9609
-3.7890 -8.8854 -2.5010 0.9609
-3.4696 -9.0152 -2.5011 0.9609
-3.1459 -9.1335 -2.5012 0.9609
-2.8180 -9.2402 -2.5012 0.9609
-2.4866 -9.3352 -2.5013 0.9609
-1.8147 -9.4893 -2.5015 0.9609
-1.4750 -9.5483 -2.5015 0.9609
-0.4463 -9.6521 -2.5018 0.9609
-0.1016 -9.6622 -2.5018 0.9609
1.9542 -9.4649 -2.5023 0.9609
2.2907 -9.3894 -2.5024 0.9609
-8.1249 3.4594 -2.4999 0.9640
-8.2431 3.1673 -2.4999 0.9640
-8.3508 2.8712 -2.4999 0.9640
-8.4478 2.5713 -2.4999 0.9640
-8.5341 2.2682 -2.4998 0.9640
-8.7275 1.3433 -2.4998 0.9640
-8.8011 0.7175 -2.4998 0.9640
-8.8211 0.4030 -2.4998 0.9640
-8.8299 0.0880 -2.4998 0.9640
-8.8274 -0.2271 -2.4998 0.9640
-8.8137 -0.5419 -2.4998 0.9640
-8.7888 -0.8561 -2.4998 0.9640
-8.7527 -1.1691 -2.4998 0.9640
-8.7054 -1.4807 -2.4998 0.9640
-8.6471 -1.7903 -2.4999 0.9640
-8.5778 -2.0977 -2.4999 0.9640
-8.4065 -2.7042 -2.4999 0.9640
-8.3048 -3.0024 -2.4999 0.9640
-7.9367 -3.8728 -2.5000 0.9640
-7.7936 -4.1536 -2.5001 0.9640
-7.6405 -4.4291 -2.5001 0.9640
-7.4777 -4.6989 -2.5001 0.9640
-7.3054 -4.9628 -2.5002 0.9640
-7.1238 -5.2204 -2.5002 0.9640
-6.7337 -5.7154 -2.5003 0.9639
-6.3092 -6.1813 -2.5004 0.9639
-5.6129 -6.8205 -2.5006 0.9639
-4.5859 -7.5504 -2.5008 0.9639
-4.0358 -7.8586 -2.5010 0.9639
-3.7531 -7.9978 -2.5010 0.9639
-3.4654 -8.1268 -2.5011 0.9639
-3.1734 -8.2455 -2.5011 0.9639
-2.5774 -8.4513 -2.5013 0.9639
-2.2743 -8.5381 -2.5013 0.9639
-1.9683 -8.6140 -2.5014 0.9639
-1.6597 -8.6790 -2.5015 0.9639
-1.0367 -8.7758 -2.5016 0.9639
-0.4082 -8.8279 -2.5018 0.9639
-0.0929 -8.8371 -2.5018 0.9639
0.2224 -8.8350 -2.5019 0.9639
0.8520 -8.7971 -2.5020 0.9639
1.4773 -8.7145 -2.5022 0.9639
1.7873 -8.6564 -2.5023 0.9639
2.0950 -8.5874 -2.5023 0.9639
-7.5873 2.9153 -2.5000 0.9666
-7.7758 2.3667 -2.5000 0.9666
-7.9841 1.5223 -2.5000 0.9666
-8.0332 1.2365 -2.5000 0.9666
-8.0722 0.9490 -2.5000 0.9666
-8.1194 0.3709 -2.5000 0.9666
-8.1252 -0.2090 -2.5000 0.9666
-8.1125 -0.4988 -2.5000 0.9666
-8.0896 -0.7880 -2.5000 0.9666
-8.0129 -1.3629 -2.5000 0.9666
-7.9592 -1.6479 -2.5000 0.9666
-7.8954 -1.9309 -2.5000 0.9666
-7.8216 -2.2113 -2.5000 0.9666
-7.7378 -2.4890 -2.5001 0.9666
-7.4277 -3.3018 -2.5001 0.9666
-7.1735 -3.8231 -2.5002 0.9666
-7.0326 -4.0767 -2.5002 0.9666
-6.0064 -5.4785 -2.5005 0.9666
-5.8072 -5.6894 -2.5005 0.9665
-5.6006 -5.8932 -2.5006 0.9665
-5.1663 -6.2778 -2.5007 0.9665
-4.7056 -6.6305 -2.5008 0.9665
-4.4662 -6.7943 -2.5008 0.9665
-3.7148 -7.2332 -2.5010 0.9665
-2.6480 -7.6888 -2.5013 0.9665
-2.3724 -7.7787 -2.5013 0.9665
-2.0932 -7.8585 -2.5014 0.9665
-1.2417 -8.0378 -2.5016 0.9665
-0.9541 -8.0772 -2.5016 0.9665
-0.6654 -8.1063 -2.5017 0.9665
-0.0856 -8.1336 -2.5018 0.9665
0.2047 -8.1317 -2.5019 0.9665
0.4947 -8.1194 -2.5020 0.9665
0.7841 -8.0968 -2.5020 0.9665
1.0725 -8.0638 -2.5021 0.9665
1.9283 -7.9036 -2.5023 0.9665
-6.5660 3.6692 -2.5003 0.9688
-6.8108 3.1916 -2.5002 0.9688
-7.0210 2.6977 -2.5002 0.9688
-7.1954 2.1901 -2.5001 0.9688
-7.2689 1.9320 -2.5001 0.9688
-7.3332 1.6714 -2.5001 0.9688
-7.3881 1.4087 -2.5001 0.9688
-7.4337 1.1442 -2.5001 0.9688
-7.4697 0.8782 -2.5001 0.9688
-7.4963 0.6111 -2.5001 0.9688
-7.5187 -0.1934 -2.5001 0.9688
-7.5070 -0.4616 -2.5001 0.9688
-7.4858 -0.7291 -2.5001 0.9688
-7.4551 -0.9958 -2.5001 0.9688
-7.4148 -1.2611 -2.5001 0.9688
-7.3651 -1.5249 -2.5001 0.9688
-7.1602 -2.3033 -2.5002 0.9688
-6.7600 -3.2986 -2.5003 0.9688
-6.5077 -3.7724 -2.5004 0.9688
-5.9052 -4.6601 -2.5005 0.9688
-5.5580 -5.0695 -2.5006 0.9688
-5.3736 -5.2647 -2.5006 0.9688
-4.9847 -5.6347 -2.5007 0.9688
-4.5704 -5.9761 -2.5008 0.9688
-3.9058 -6.4306 -2.5010 0.9688
-2.7027 -7.0225 -2.5012 0.9688
-2.4505 -7.1147 -2.5013 0.9688
-1.9370 -7.2717 -2.5014 0.9688
-1.4136 -7.3916 -2.5015 0.9688
-0.8829 -7.4740 -2.5016 0.9688
-0.6156 -7.5009 -2.5017 0.9688
-0.0791 -7.5261 -2.5018 0.9688
0.7256 -7.4920 -2.5020 0.9688
0.9924 -7.4615 -2.5021 0.9688
1.7842 -7.3132 -2.5022 0.9688
-6.1035 3.4108 -2.5004 0.9707
-6.4329 2.7390 -2.5003 0.9707
-6.5265 2.5077 -2.5003 0.9707
-6.7570 1.7959 -2.5002 0.9707
-6.8167 1.5537 -2.5002 0.9707
-6.8678 1.3095 -2.5002 0.9707
-6.9101 1.0635 -2.5002 0.9707
-6.9436 0.8163 -2.5002 0.9707
-6.9842 0.3190 -2.5002 0.9707
-6.9892 -0.1798 -2.5002 0.9707
-6.9586 -0.6778 -2.5002 0.9707
-6.7915 -1.6609 -2.5003 0.9707
-6.7280 -1.9022 -2.5003 0.9707
-6.5753 -2.3772 -2.5003 0.9707
-6.3892 -2.8401 -2.5004 0.9707
-6.2838 -3.0663 -2.5004 0.9707
-6.0493 -3.5067 -2.5005 0.9707
-5.9204 -3.7203 -2.5005 0.9707
-5.4892 -4.3318 -2.5006 0.9707
-4.9951 -4.8938 -2.5007 0.9707
-4.6336 -5.2378 -2.5008 0.9707
-4.2484 -5.5551 -2.5009 0.9707
-3.8415 -5.8441 -2.5010 0.9707
-3.6306 -5.9776 -2.5010 0.9707
-3.4151 -6.1034 -2.5011 0.9707
-3.1952 -6.2216 -2.5011 0.9707
-2.7435 -6.4338 -2.5012 0.9707
-2.2779 -6.6134 -2.5013 0.9707
-1.0680 -6.9134 -2.5016 0.9707
-0.8206 -6.9473 -2.5017 0.9707
-0.0736 -6.9957 -2.5018 0.9707
0.4255 -6.9834 -2.5019 0.9707
0.6744 -6.9639 -2.5020 0.9707
0.9225 -6.9356 -2.5020 0.9707
1.6584 -6.7977 -2.5022 0.9707
-5.9082 2.7686 -2.5004 0.9724
-6.0906 2.3402 -2.5004 0.9724
-6.1702 2.1213 -2.5004 0.9724
-6.2419 1.8999 -2.5004 0.9724
-6.4091 1.2220 -2.5003 0.9724
-6.4486 0.9925 -2.5003 0.9724
-6.4799 0.7618 -2.5003 0.9724
-6.5177 0.2978 -2.5003 0.9724
-6.5223 -0.1678 -2.5003 0.9724
-6.5122 -0.4004 -2.5003 0.9724
-6.4938 -0.6325 -2.5003 0.9724
-6.4671 -0.8638 -2.5003 0.9724
-6.2786 -1.7751 -2.5004 0.9724
-5.6452 -3.2724 -2.5005 0.9724
-4.9751 -4.2227 -2.5007 0.9724
-4.8213 -4.3976 -2.5007 0.9724
-4.6614 -4.5669 -2.5008 0.9724
-4.3240 -4.8879 -2.5009 0.9724
-4.1469 -5.0391 -2.5009 0.9724
-3.9645 -5.1840 -2.5009 0.9724
-3.5849 -5.4537 -2.5010 0.9724
-3.1869 -5.6957 -2.5011 0.9724
-2.3444 -6.0916 -2.5013 0.9724
-2.1256 -6.1715 -2.5014 0.9724
-1.6802 -6.3076 -2.5015 0.9724
-1.4541 -6.3637 -2.5015 0.9724
-0.5340 -6.5063 -2.5017 0.9724
0.3971 -6.5167 -2.5019 0.9724
0.6294 -6.4985 -2.5020 0.9724
0.8608 -6.4720 -2.5020 0.9724
1.0912 -6.4373 -2.5021 0.9724
-5.4363 2.7882 -2.5005 0.9739
-5.5323 2.5924 -2.5005 0.9739
-5.6212 2.3934 -2.5005 0.9739
-6.0012 1.1442 -2.5004 0.9739
-6.0891 0.4964 -2.5004 0.9739
-6.1073 -0.1572 -2.5004 0.9739
-6.0978 -0.3750 -2.5004 0.9739
-6.0556 -0.8089 -2.5004 0.9739
-6.0229 -1.0244 -2.5004 0.9739
-5.9826 -1.2387 -2.5004 0.9739
-5.7456 -2.0772 -2.5005 0.9739
-5.6679 -2.2809 -2.5005 0.9739
-5.4909 -2.6794 -2.5006 0.9739
-5.3919 -2.8736 -2.5006 0.9739
-4.7965 -3.7852 -2.5007 0.9739
-4.5145 -4.1178 -2.5008 0.9739
-4.3648 -4.2762 -2.5008 0.9739
-4.0488 -4.5768 -2.5009 0.9739
-3.8830 -4.7184 -2.5009 0.9739
-3.5367 -4.9834 -2.5010 0.9739
-3.3567 -5.1066 -2.5011 0.9739
-3.1724 -5.2231 -2.5011 0.9739
-2.9841 -5.3331 -2.5012 0.9739
-2.5963 -5.5325 -2.5012 0.9739
-2.1952 -5.7038 -2.5013 0.9739
-1.1481 -6.0034 -2.5016 0.9739
-0.9332 -6.0407 -2.5016 0.9739
-0.2823 -6.1062 -2.5018 0.9739
0.1538 -6.1110 -2.5019 0.9739
0.3718 -6.1018 -2.5019 0.9739
0.8060 -6.0599 -2.5020 0.9739
1.0218 -6.0274 -2.5021 0.9739
1.2362 -5.9872 -2.5021 0.9739
1.4490 -5.9394 -2.5021 0.9739
-5.3558 2.0579 -2.5005 0.9753
-5.4889 1.6707 -2.5005 0.9753
-5.5450 1.4737 -2.5005 0.9753
-5.6360 1.0746 -2.5005 0.9753
-5.6982 0.6699 -2.5005 0.9753
-5.7185 0.4662 -2.5005 0.9753
-5.7315 0.2618 -2.5005 0.9753
-5.7372 0.0572 -2.5005 0.9753
-5.7356 -0.1476 -2.5005 0.9753
-5.7104 -0.5562 -2.5005 0.9753
-5.6563 -0.9621 -2.5005 0.9753
-5.6184 -1.1633 -2.5005 0.9753
-5.5733 -1.3630 -2.5005 0.9753
-5.5212 -1.5610 -2.5006 0.9753
-5.1567 -2.5163 -2.5006 0.9753
-5.0636 -2.6987 -2.5007 0.9753
-4.8584 -3.0530 -2.5007 0.9753
-4.7464 -3.2244 -2.5007 0.9753
-4.2396 -3.8670 -2.5009 0.9753
-3.9533 -4.1597 -2.5009 0.9753
-3.8023 -4.2981 -2.5010 0.9753
-3.4862 -4.5585 -2.5010 0.9753
-2.9793 -4.9051 -2.5012 0.9753
-2.0615 -5.3565 -2.5014 0.9753
-1.4774 -5.5464 -2.5015 0.9753
-1.2786 -5.5957 -2.5015 0.9753
-1.0782 -5.6379 -2.5016 0.9753
-0.8763 -5.6729 -2.5016 0.9753
-0.4696 -5.7211 -2.5017 0.9753
-0.2652 -5.7343 -2.5018 0.9753
0.3491 -5.7302 -2.5019 0.9753
0.5534 -5.7141 -2.5019 0.9753
0.9595 -5.6604 -2.5020 0.9753
1.1609 -5.6226 -2.5021 0.9753
1.3608 -5.5777 -2.5021 0.9753
-4.7160 2.6354 -2.5007 0.9765
-4.8918 2.2923 -2.5006 0.9765
-4.9705 2.1163 -2.5006 0.9765
-5.1087 1.7564 -2.5006 0.9765
-5.1681 1.5730 -2.5006 0.9765
-5.2209 1.3876 -2.5006 0.9765
-5.2671 1.2004 -2.5006 0.9765
-5.3065 1.0117 -2.5006 0.9765
-5.3392 0.8218 -2.5006 0.9765
-5.3652 0.6308 -2.5006 0.9765
-5.3842 0.4389 -2.5006 0.9765
-5.3965 0.2465 -2.5006 0.9765
-5.3920 -0.3315 -2.5006 0.9765
-5.3546 -0.7152 -2.5006 0.9765
-5.1985 -1.4698 -2.5006 0.9765
-5.0117 -2.0169 -2.5007 0.9765
-4.8553 -2.3692 -2.5007 0.9765
-4.7677 -2.5409 -2.5007 0.9765
-4.6740 -2.7095 -2.5008 0.9765
-4.4690 -3.0360 -2.5008 0.9765
-4.3579 -3.1935 -2.5008 0.9765
-4.2412 -3.3470 -2.5009 0.9765
-3.8594 -3.7812 -2.5009 0.9765
-3.7221 -3.9165 -2.5010 0.9765
-3.5800 -4.0469 -2.5010 0.9765
-3.4334 -4.1721 -2.5010 0.9765
-3.1272 -4.4064 -2.5011 0.9765
-2.9680 -4.5153 -2.5012 0.9765
-2.8051 -4.6184 -2.5012 0.9765
-2.6386 -4.7156 -2.5012 0.9765
-1.9410 -5.0433 -2.5014 0.9765
-1.5764 -5.1691 -2.5015 0.9765
-1.3910 -5.2221 -2.5015 0.9765
-1.2039 -5.2685 -2.5016 0.9765
-0.0568 -5.4046 -2.5018 0.9765
0.9034 -5.3293 -2.5020 0.9765
1.0930 -5.2938 -2.5021 0.9765
-4.4503 2.4870 -2.5007 0.9775
-4.5362 2.3266 -2.5007 0.9775
-4.6163 2.1632 -2.5007 0.9775
-4.6905 1.9971 -2.5007 0.9775
-4.8209 1.6575 -2.5007 0.9775
-4.8770 1.4844 -2.5007 0.9775
-4.9704 1.1329 -2.5006 0.9775
-5.0630 0.5952 -2.5006 0.9775
-5.0883 -0.3129 -2.5006 0.9775
-5.0530 -0.6749 -2.5006 0.9775
-5.0257 -0.8548 -2.5007 0.9775
-4.9921 -1.0336 -2.5007 0.9775
-4.9520 -1.2111 -2.5007 0.9775
-4.9057 -1.3870 -2.5007 0.9775
-4.8531 -1.5612 -2.5007 0.9775
-4.7944 -1.7333 -2.5007 0.9775
-4.7295 -1.9033 -2.5007 0.9775
-4.5818 -2.2357 -2.5008 0.9775
-4.4991 -2.3978 -2.5008 0.9775
-4.4108 -2.5569 -2.5008 0.9775
-4.3167 -2.7126 -2.5008 0.9775
-4.1124 -3.0136 -2.5009 0.9775
-4.0023 -3.1585 -2.5009 0.9775
-3.3784 -3.8189 -2.5011 0.9775
-3.2400 -3.9371 -2.5011 0.9775
-3.0973 -4.0502 -2.5011 0.9775
-2.8008 -4.2610 -2.5012 0.9775
-2.4899 -4.4500 -2.5013 0.9775
-2.1663 -4.6163 -2.5013 0.9775
-2.0002 -4.6907 -2.5014 0.9775
-1.1360 -4.9717 -2.5016 0.9775
-0.9579 -5.0091 -2.5016 0.9775
-0.5983 -5.0649 -2.5017 0.9775
-0.2356 -5.0948 -2.5018 0.9775
-0.0536 -5.1000 -2.5018 0.9775
0.1284 -5.0988 -2.5018 0.9775
0.6725 -5.0561 -2.5020 0.9775
0.8525 -5.0290 -2.5020 0.9775
-4.2892 2.1999 -2.5008 0.9785
-4.4351 1.8884 -2.5008 0.9785
-4.4997 1.7289 -2.5007 0.9785
-4.5585 1.5672 -2.5007 0.9785
-4.6586 1.2382 -2.5007 0.9785
-4.6998 1.0712 -2.5007 0.9785
-4.7350 0.9028 -2.5007 0.9785
-4.7642 0.7333 -2.5007 0.9785
-4.7873 0.5628 -2.5007 0.9785
-4.8044 0.3917 -2.5007 0.9785
-4.8153 0.2200 -2.5007 0.9785
-4.7779 -0.6382 -2.5007 0.9785
-4.7521 -0.8083 -2.5007 0.9785
-4.2542 -2.2673 -2.5008 0.9785
-3.8885 -2.8496 -2.5009 0.9785
-3.7844 -2.9865 -2.5010 0.9785
-3.5618 -3.2488 -2.5010 0.9785
-3.3212 -3.4946 -2.5011 0.9785
-3.0636 -3.7227 -2.5011 0.9785
-2.7904 -3.9318 -2.5012 0.9785
-2.5029 -4.1209 -2.5013 0.9785
-1.8913 -4.4353 -2.5014 0.9785
-1.5702 -4.5590 -2.5015 0.9785
-1.2412 -4.6596 -2.5015 0.9785
-0.9057 -4.7363 -2.5016 0.9785
-0.5657 -4.7890 -2.5017 0.9785
-0.3945 -4.8063 -2.5017 0.9785
-0.2227 -4.8173 -2.5018 0.9785
0.1214 -4.8211 -2.5018 0.9785
0.2933 -4.8138 -2.5019 0.9785
0.4649 -4.8003 -2.5019 0.9785
0.8061 -4.7551 -2.5020 0.9785
0.9752 -4.7233 -2.5020 0.9785
-3.9859 2.2274 -2.5009 0.9794
-4.2010 1.7887 -2.5008 0.9794
-4.2621 1.6376 -2.5008 0.9794
-4.3179 1.4845 -2.5008 0.9794
-4.4517 1.0146 -2.5008 0.9794
-4.4851 0.8551 -2.5008 0.9794
-4.5346 0.5331 -2.5007 0.9794
-4.5508 0.3710 -2.5007 0.9794
-4.5656 0.0455 -2.5007 0.9794
-4.5257 -0.6046 -2.5008 0.9794
-4.5013 -0.7656 -2.5008 0.9794
-4.4711 -0.9257 -2.5008 0.9794
-4.2940 -1.5524 -2.5008 0.9794
-4.2359 -1.7046 -2.5008 0.9794
-4.1724 -1.8547 -2.5009 0.9794
-4.1036 -2.0024 -2.5009 0.9794
-3.9504 -2.2900 -2.5009 0.9794
-3.8662 -2.4295 -2.5009 0.9794
-3.7771 -2.5660 -2.5009 0.9794
-3.6832 -2.6991 -2.5010 0.9794
-3.5846 -2.8288 -2.5010 0.9794
-3.4814 -2.9550 -2.5010 0.9794
-3.1458 -3.3102 -2.5011 0.9794
-3.0258 -3.4203 -2.5011 0.9794
-2.9018 -3.5262 -2.5012 0.9794
-2.7742 -3.6275 -2.5012 0.9794
-2.0864 -4.0625 -2.5013 0.9794
-1.9402 -4.1345 -2.5014 0.9794
-1.7915 -4.2011 -2.5014 0.9794
-1.0174 -4.4527 -2.5016 0.9794
-0.5358 -4.5361 -2.5017 0.9794
-0.3736 -4.5524 -2.5017 0.9794
-0.2110 -4.5629 -2.5018 0.9794
0.1150 -4.5665 -2.5018 0.9794
0.4403 -4.5468 -2.5019 0.9794
0.6023 -4.5282 -2.5019 0.9794
0.9237 -4.4739 -2.5020 0.9794
-4.0434 1.5536 -2.5008 0.9802
-4.3019 0.5057 -2.5008 0.9802
-4.3301 -0.1114 -2.5008 0.9802
-4.3233 -0.2659 -2.5008 0.9802
-4.2702 -0.7263 -2.5008 0.9802
-4.2416 -0.8782 -2.5008 0.9802
-4.2076 -1.0290 -2.5008 0.9802
-4.1235 -1.3264 -2.5009 0.9802
-4.0185 -1.6171 -2.5009 0.9802
-3.8227 -2.0373 -2.5009 0.9802
-3.7476 -2.1724 -2.5010 0.9802
-3.6678 -2.3048 -2.5010 0.9802
-3.4941 -2.5605 -2.5010 0.9802
-3.4006 -2.6836 -2.5010 0.9802
-2.8704 -3.2447 -2.5012 0.9802
-2.7528 -3.3451 -2.5012 0.9802
-2.6318 -3.4412 -2.5012 0.9802
-1.6995 -3.9854 -2.5014 0.9802
-1.5565 -4.0436 -2.5015 0.9802
-1.4110 -4.0966 -2.5015 0.9802
-0.8138 -4.2558 -2.5016 0.9802
-0.6615 -4.2823 -2.5017 0.9802
-0.3544 -4.3186 -2.5017 0.9802
-0.0456 -4.3330 -2.5018 0.9802
0.1091 -4.3320 -2.5018 0.9802
0.5714 -4.2957 -2.5019 0.9802
0.8763 -4.2441 -2.5020 0.9802
