ply
format ascii 1.0
element vertex 1132
property float32 x
property float32 y
property float32 z
property float32 I
end_header
11.9892 -37.3327 6.9139 0.8528
14.1383 -35.1664 6.6831 0.8573
18.7776 -35.2426 7.0412 0.8503
18.8480 -32.5168 6.6271 0.8584
22.0186 -32.4040 6.9079 0.8529
25.5312 -27.9680 6.6773 0.8574
25.7942 -26.3024 6.4958 0.8610
25.8113 -24.5025 6.2753 0.8654
25.9540 -21.3279 5.9233 0.8725
27.1140 -19.2076 5.8590 0.8737
41.9846 8.7811 7.5632 0.8401
35.1487 8.6738 6.3836 0.8633
29.6301 8.4465 5.4327 0.8824
26.4777 8.5827 4.9079 0.8931
24.8995 10.0894 4.7372 0.8966
24.5398 12.0517 4.8207 0.8949
24.4811 13.1294 4.8983 0.8933
24.5075 14.2946 5.0027 0.8912
24.4322 18.0137 5.3524 0.8840
24.3941 19.3693 5.4924 0.8812
13.3733 -41.6424 6.7003 0.8378
15.0291 -41.6236 6.7794 0.8360
19.2108 -39.3877 6.7134 0.8375
20.9755 -39.3676 6.8335 0.8348
23.3802 -37.2031 6.7313 0.8371
25.6842 -35.0351 6.6549 0.8388
25.8111 -24.5023 5.4520 0.8659
25.7781 -22.7752 5.2696 0.8701
30.7560 -18.6382 5.5093 0.8646
33.2894 -18.5796 5.8403 0.8570
36.3549 -9.6216 5.7611 0.8588
36.2369 -6.8640 5.6500 0.8614
36.1794 -5.5213 5.6067 0.8623
36.0667 -2.8885 5.5429 0.8638
36.0112 -1.5911 5.5221 0.8643
35.8461 2.2660 5.5024 0.8647
28.8740 2.8647 4.4451 0.8892
35.6804 6.1400 5.5464 0.8637
35.6243 7.4508 5.5755 0.8631
26.4776 8.5827 4.2640 0.8935
24.6907 11.0483 4.1439 0.8963
24.4809 13.1293 4.2556 0.8937
24.5074 14.2946 4.3464 0.8915
24.4321 18.0136 4.6502 0.8844
24.3112 22.3146 5.0554 0.8750
24.2659 23.9269 5.2206 0.8712
24.1654 27.5020 5.6085 0.8623
25.5807 -37.6462 5.9270 0.8323
25.9774 -35.4350 5.7215 0.8376
25.7359 -30.3005 5.1769 0.8518
25.6853 -28.1367 4.9611 0.8575
25.7382 -21.1505 4.3381 0.8743
30.7560 -18.6381 4.6831 0.8650
33.2893 -18.5796 4.9644 0.8575
36.2459 -18.5622 5.3029 0.8485
36.6773 -17.1566 5.2728 0.8493
36.6087 -15.5545 5.1797 0.8518
36.4782 -12.5049 5.0216 0.8559
36.2951 -8.2294 4.8463 0.8606
36.1792 -5.5213 4.7658 0.8628
36.1226 -4.1974 4.7356 0.8636
36.0666 -2.8885 4.7117 0.8642
35.9009 0.9828 4.6768 0.8651
35.7358 4.8412 4.6961 0.8646
35.6802 6.1400 4.7146 0.8641
35.6241 7.4507 4.7394 0.8635
34.5485 8.5256 4.6339 0.8663
29.6301 8.4465 4.0122 0.8831
26.4776 8.5827 3.6246 0.8938
24.6905 11.0482 3.5224 0.8966
24.5072 14.2945 3.6945 0.8919
24.5029 15.4919 3.7750 0.8896
24.4319 18.0135 3.9528 0.8848
24.3938 19.3690 4.0562 0.8819
24.3110 22.3145 4.2972 0.8754
24.2657 23.9268 4.4377 0.8716
24.2172 25.6503 4.5937 0.8674
24.1652 27.5018 4.7674 0.8627
24.1090 29.5016 4.9614 0.8575
23.9811 34.0484 5.4232 0.8454
25.7970 -37.9645 4.9288 0.8314
25.9518 -32.8676 4.4969 0.8450
25.9251 -30.5233 4.3003 0.8512
25.8107 -24.5019 3.8215 0.8666
23.6453 -20.8909 3.3881 0.8808
26.3429 -20.1137 3.5590 0.8752
27.1137 -19.2074 3.5681 0.8749
30.7560 -18.6381 3.8617 0.8653
36.2459 -18.5622 4.3729 0.8489
36.6771 -17.1565 4.3480 0.8497
36.5422 -14.0059 4.2023 0.8543
36.4155 -11.0451 4.0863 0.8581
36.3545 -9.6215 4.0382 0.8596
36.2949 -8.2293 3.9963 0.8609
36.2365 -6.8639 3.9603 0.8621
36.0664 -2.8885 3.8853 0.8645
36.0109 -1.5911 3.8707 0.8650
35.9557 -0.3018 3.8611 0.8653
35.8458 2.2660 3.8569 0.8655
35.6800 6.1400 3.8877 0.8645
34.5485 8.5256 3.8212 0.8666
24.8992 10.0893 2.8849 0.8976
24.6904 11.0482 2.9046 0.8969
24.5394 12.0515 2.9357 0.8958
24.4807 13.1292 2.9830 0.8943
24.5071 14.2944 3.0465 0.8921
24.5027 15.4918 3.1129 0.8899
24.4318 18.0134 3.2595 0.8850
24.3937 19.3689 3.3447 0.8822
24.3534 20.7991 3.4391 0.8791
24.2655 23.9266 3.6593 0.8719
24.2171 25.6501 3.7880 0.8677
24.1650 27.5016 3.9312 0.8631
23.9809 34.0481 4.4720 0.8457
23.7349 42.7995 5.2553 0.8213
25.9288 -41.2586 4.1251 0.8223
25.8036 -35.1979 3.6945 0.8393
25.9249 -30.5230 3.3901 0.8515
25.9004 -28.3724 3.2521 0.8571
25.7776 -22.7747 2.9118 0.8710
25.7370 -21.1495 2.8200 0.8748
27.1136 -19.2074 2.8128 0.8751
30.7559 -18.6381 3.0443 0.8656
33.2893 -18.5795 3.2272 0.8581
39.6008 -18.5242 3.7010 0.8390
42.1443 -16.1531 3.8207 0.8343
42.6937 -14.6356 3.8206 0.8343
43.1887 -13.0994 3.8205 0.8343
44.6119 -6.8082 3.8202 0.8343
44.8265 -5.2087 3.8202 0.8343
44.9838 -3.6027 3.8202 0.8343
45.0838 -1.9920 3.8202 0.8343
45.1111 1.2349 3.8202 0.8343
28.9897 3.9273 2.4765 0.8892
41.1208 8.6004 3.5563 0.8448
34.5486 8.5256 3.0124 0.8669
26.4776 8.5827 2.3562 0.8943
25.3207 9.2205 2.2812 0.8975
24.4805 13.1291 2.3516 0.8945
24.5026 15.4917 2.4540 0.8901
24.4679 16.7235 2.5089 0.8878
24.3533 20.7990 2.7111 0.8794
24.2169 25.6499 2.9862 0.8680
24.1648 27.5013 3.0991 0.8633
24.1086 29.5011 3.2252 0.8582
23.7347 42.7991 4.1429 0.8216
26.4028 -42.0129 3.0770 0.8197
25.9514 -32.8671 2.5968 0.8455
25.8776 -26.3875 2.2918 0.8623
25.8104 -24.5015 2.2068 0.8671
26.3427 -20.1135 2.0552 0.8756
27.1135 -19.2073 2.0604 0.8753
33.2893 -18.5795 2.3640 0.8583
39.6008 -18.5242 2.7110 0.8393
43.4942 -18.4800 2.9304 0.8275
48.9237 -3.9182 3.0435 0.8214
48.6750 8.3762 3.0627 0.8204
29.0842 7.1772 1.8576 0.8869
29.6301 8.4466 1.9106 0.8838
26.4775 8.5827 1.7260 0.8944
24.8990 10.0891 1.6659 0.8979
24.5392 12.0514 1.6953 0.8962
24.4804 13.1290 1.7226 0.8946
24.5068 14.2942 1.7593 0.8925
24.5024 15.4916 1.7976 0.8903
24.4678 16.7234 1.8378 0.8880
24.3934 19.3687 1.9315 0.8826
24.3532 20.7988 1.9859 0.8795
24.3105 22.3140 2.0463 0.8761
24.2652 23.9262 2.1131 0.8723
24.2167 25.6497 2.1874 0.8682
24.1646 27.5012 2.2702 0.8635
24.1084 29.5009 2.3626 0.8584
24.0473 31.6732 2.4660 0.8527
23.9805 34.0476 2.5824 0.8463
23.8256 39.5585 2.8636 0.8310
22.0906 39.8346 2.8246 0.8331
18.3660 39.5425 2.7036 0.8397
16.5406 39.2259 2.6398 0.8432
26.0692 -38.3651 1.8290 0.8305
25.9512 -32.8668 1.6513 0.8457
25.9000 -28.3720 1.5148 0.8575
25.7079 -24.4043 1.3977 0.8677
25.7773 -22.7745 1.3563 0.8714
25.7359 -21.1486 1.3133 0.8752
26.3426 -20.1134 1.3069 0.8757
33.2893 -18.5795 1.5032 0.8585
39.6008 -18.5242 1.7239 0.8394
42.5871 -4.9485 1.6905 0.8423
48.9234 -3.9182 1.9353 0.8216
41.1208 8.6004 1.6565 0.8452
24.8988 10.0891 1.0593 0.8980
24.4676 16.7233 1.1686 0.8881
24.4313 18.0130 1.1969 0.8856
24.3932 19.3685 1.2282 0.8828
24.3530 20.7987 1.2628 0.8797
24.3104 22.3139 1.3012 0.8763
24.2650 23.9261 1.3437 0.8725
24.0471 31.6729 1.5681 0.8528
22.5795 34.6249 1.6300 0.8475
19.3699 34.9283 1.5749 0.8522
17.6603 34.7172 1.5359 0.8556
14.4855 34.3521 1.4700 0.8614
25.9763 -35.4335 0.7421 0.8388
25.9510 -32.8666 0.7074 0.8458
25.8999 -28.3718 0.6489 0.8575
26.3425 -20.1133 0.5598 0.8758
28.6194 -18.7743 0.5782 0.8720
38.2968 -17.9142 0.7142 0.8444
42.0868 -17.8820 0.7724 0.8328
37.8425 -5.7751 0.6466 0.8580
37.8171 -4.3943 0.6431 0.8587
38.7969 8.1143 0.6695 0.8534
29.6302 8.4466 0.5204 0.8840
25.3204 9.2204 0.4552 0.8978
24.8987 10.0891 0.4538 0.8981
24.5389 12.0512 0.4618 0.8964
24.4801 13.1289 0.4692 0.8948
24.5021 15.4914 0.4897 0.8905
24.4312 18.0129 0.5127 0.8857
24.3102 22.3137 0.5574 0.8763
24.2649 23.9259 0.5756 0.8726
24.2164 25.6494 0.5959 0.8684
24.1643 27.5008 0.6184 0.8638
24.1080 29.5005 0.6435 0.8586
23.2449 30.6162 0.6493 0.8575
21.9579 31.1758 0.6441 0.8585
20.2491 31.0513 0.6262 0.8622
18.6329 30.9369 0.6100 0.8655
17.0980 30.8316 0.5955 0.8685
15.6344 30.7345 0.5825 0.8711
14.2333 30.6447 0.5708 0.8736
26.4019 -42.0114 -0.2794 0.8200
25.9761 -35.4332 -0.2474 0.8388
25.9241 -30.5220 -0.2255 0.8520
25.4433 -24.1531 -0.1975 0.8691
27.1132 -19.2071 -0.1871 0.8755
28.6194 -18.7743 -0.1927 0.8720
33.2893 -18.5795 -0.2146 0.8586
35.0099 -17.9293 -0.2215 0.8544
34.5458 -4.0142 -0.1958 0.8701
48.9232 -3.9182 -0.2763 0.8217
47.4907 8.1724 -0.2713 0.8247
29.6302 8.4466 -0.1735 0.8840
26.4775 8.5826 -0.1567 0.8946
25.3203 9.2204 -0.1517 0.8978
24.6898 11.0479 -0.1523 0.8975
24.5388 12.0512 -0.1539 0.8964
24.4800 13.1288 -0.1564 0.8948
24.5020 15.4913 -0.1632 0.8905
24.3527 20.7985 -0.1803 0.8798
24.2162 25.6492 -0.1986 0.8684
21.0101 27.6727 -0.1956 0.8702
16.6252 27.6033 -0.1814 0.8791
15.2950 27.5804 -0.1776 0.8815
14.0182 27.5574 -0.1741 0.8837
12.7887 27.5344 -0.1709 0.8856
11.6009 27.5113 -0.1681 0.8874
26.0684 -38.3640 -1.3060 0.8306
25.9758 -35.4328 -1.2371 0.8388
25.9506 -32.8661 -1.1791 0.8457
25.8769 -26.3867 -1.0406 0.8625
25.4433 -24.1530 -0.9878 0.8690
26.3422 -20.1131 -0.9332 0.8758
30.4838 -18.4732 -1.0037 0.8671
32.1583 -17.9483 -1.0370 0.8630
35.0099 -17.9293 -1.1076 0.8544
38.2823 -17.9074 -1.1900 0.8444
42.0868 -17.8820 -1.2876 0.8328
30.8743 -5.8482 -0.8848 0.8818
34.5458 -4.0142 -0.9793 0.8701
48.9230 -3.9182 -1.3820 0.8217
38.7969 8.1144 -1.1161 0.8533
24.5386 12.0511 -0.7698 0.8964
24.4798 13.1287 -0.7822 0.8948
24.4672 16.7230 -0.8345 0.8882
24.4309 18.0127 -0.8547 0.8856
23.8514 23.5182 -0.9432 0.8746
22.5511 23.8854 -0.9250 0.8768
21.4205 24.3781 -0.9138 0.8782
17.3280 24.6022 -0.8473 0.8866
16.0805 24.6589 -0.8289 0.8889
14.8783 24.7029 -0.8120 0.8910
11.5190 24.8007 -0.7700 0.8964
10.4674 24.8231 -0.7586 0.8978
15.1061 -47.0382 -2.5055 0.8205
16.7807 -46.4748 -2.5059 0.8205
18.4343 -45.8517 -2.5062 0.8204
21.6699 -44.4295 -2.5069 0.8204
23.2477 -43.6323 -2.5073 0.8204
26.0682 -38.3637 -2.3522 0.8305
25.9756 -35.4326 -2.2281 0.8386
25.9503 -32.8657 -2.1237 0.8456
25.9237 -30.5216 -2.0309 0.8518
24.3867 -23.1500 -1.7053 0.8740
26.3421 -20.1130 -1.6808 0.8757
27.1130 -19.2069 -1.6851 0.8754
32.1583 -17.9483 -1.8677 0.8629
35.0099 -17.9293 -1.9948 0.8542
38.2823 -17.9074 -2.1434 0.8443
46.8600 -16.0638 -2.5122 0.8200
47.4064 -14.3788 -2.5123 0.8200
47.8919 -12.6751 -2.5124 0.8200
30.2102 -5.7224 -1.5593 0.8841
30.2028 -4.6092 -1.5494 0.8848
34.5457 -4.0141 -1.7637 0.8700
48.9230 -3.9182 -2.4890 0.8215
49.5441 -0.4159 -2.5127 0.8200
49.5269 1.3558 -2.5127 0.8200
49.4460 3.1256 -2.5126 0.8200
49.3018 4.8914 -2.5126 0.8200
45.8493 7.8899 -2.3594 0.8300
38.7971 8.1144 -2.0101 0.8532
29.6302 8.4466 -1.5626 0.8839
25.3201 9.2203 -1.3666 0.8977
24.8984 10.0889 -1.3624 0.8980
24.6895 11.0478 -1.3717 0.8973
24.5385 12.0511 -1.3864 0.8963
24.5061 14.2938 -1.4388 0.8926
24.4671 16.7229 -1.5030 0.8881
24.4308 18.0126 -1.5393 0.8855
24.3926 19.3680 -1.5796 0.8827
23.1865 19.8024 -1.5464 0.8850
22.5879 20.7328 -1.5549 0.8844
21.2601 20.9630 -1.5142 0.8873
19.9902 21.1730 -1.4767 0.8899
18.7718 21.3637 -1.4423 0.8923
15.3473 21.7900 -1.3516 0.8988
13.2568 22.0108 -1.3031 0.9022
12.2584 22.1047 -1.2819 0.9037
10.3403 22.2630 -1.2449 0.9064
9.2732 -32.8690 -2.5041 0.8720
9.3103 -23.1577 -1.8301 0.9047
13.8698 -31.2237 -2.5051 0.8719
11.2797 -23.1267 -1.8866 0.9019
12.4109 -23.2933 -1.9352 0.8996
14.5002 -23.0731 -1.9981 0.8965
17.0595 -23.2703 -2.1156 0.8907
18.1670 -23.0083 -2.1495 0.8891
22.4849 -22.9279 -2.3546 0.8792
24.0691 -21.2653 -2.3549 0.8791
25.5544 -19.5116 -2.3574 0.8790
26.2325 -18.5832 -2.3571 0.8790
29.8739 -16.6734 -2.5085 0.8718
30.4524 -15.5953 -2.5086 0.8718
30.9919 -14.4972 -2.5087 0.8718
31.9511 -12.2463 -2.5089 0.8718
32.3696 -11.0964 -2.5090 0.8718
33.0816 -8.7553 -2.5091 0.8718
30.2101 -5.7224 -2.2545 0.8840
30.2027 -4.6092 -2.2402 0.8847
34.1137 -2.7321 -2.5093 0.8717
34.1897 -1.5107 -2.5093 0.8717
34.2218 -0.2873 -2.5093 0.8717
34.2100 0.9364 -2.5093 0.8717
34.0548 3.3787 -2.5092 0.8717
33.9117 4.5941 -2.5092 0.8717
31.4547 6.5787 -2.3562 0.8791
29.6302 8.4466 -2.2591 0.8838
25.3200 9.2203 -1.9758 0.8976
24.5384 12.0510 -2.0045 0.8962
23.8900 15.1044 -2.0724 0.8928
22.6953 16.7330 -2.0675 0.8931
21.5187 17.0861 -2.0147 0.8957
20.4603 17.4741 -1.9729 0.8977
19.4304 17.8346 -1.9338 0.8996
18.2564 18.0013 -1.8799 0.9023
17.3805 18.4089 -1.8563 0.9034
14.4895 19.0844 -1.7569 0.9084
13.5754 19.2742 -1.7286 0.9098
12.6825 19.4481 -1.7024 0.9111
11.8020 19.5952 -1.6772 0.9123
10.9386 19.7248 -1.6538 0.9135
10.0934 19.8419 -1.6323 0.9146
9.2647 19.9472 -1.6126 0.9156
7.4193 -23.1025 -2.3295 0.9071
8.8575 -24.5312 -2.5039 0.9005
13.0841 -22.5729 -2.5048 0.9005
13.8837 -22.0922 -2.5050 0.9005
14.6658 -21.5831 -2.5052 0.9005
15.4291 -21.0463 -2.5053 0.9004
16.1727 -20.4825 -2.5055 0.9004
18.9319 -17.9719 -2.5061 0.9004
19.5634 -17.2845 -2.5062 0.9004
20.1699 -16.5748 -2.5064 0.9004
20.7507 -15.8438 -2.5065 0.9004
21.8318 -14.3217 -2.5067 0.9004
22.3308 -13.5325 -2.5068 0.9004
22.8013 -12.7259 -2.5069 0.9004
23.6540 -11.0647 -2.5071 0.9004
24.3857 -9.3466 -2.5072 0.9004
24.7049 -8.4689 -2.5073 0.9004
24.9924 -7.5804 -2.5073 0.9004
25.8194 -3.9403 -2.5075 0.9004
26.0932 -1.1530 -2.5075 0.9004
26.1088 0.7147 -2.5075 0.9004
26.0663 1.6477 -2.5075 0.9004
25.8814 3.5062 -2.5074 0.9004
25.7390 4.4292 -2.5074 0.9004
25.5637 5.3466 -2.5073 0.9004
25.3557 6.2571 -2.5073 0.9004
24.2714 7.8675 -2.4495 0.9026
22.8984 11.2455 -2.4492 0.9026
22.2087 11.9107 -2.4194 0.9037
19.9059 13.6053 -2.3148 0.9077
17.5271 14.9689 -2.2128 0.9115
16.6922 15.3213 -2.1752 0.9130
15.8722 15.6505 -2.1400 0.9143
13.4930 16.5110 -2.0471 0.9179
12.7239 16.7589 -2.0201 0.9189
11.2172 17.2012 -1.9715 0.9208
9.0230 17.7376 -1.9106 0.9231
8.2976 17.8651 -1.8911 0.9239
5.3856 -19.0893 -2.3561 0.9232
7.3857 -18.3704 -2.3519 0.9233
11.2183 -17.8509 -2.5044 0.9186
12.4666 -17.0054 -2.5047 0.9186
14.2180 -15.5750 -2.5050 0.9186
15.2961 -14.5204 -2.5053 0.9186
16.7650 -12.8006 -2.5056 0.9185
17.2126 -12.1935 -2.5057 0.9185
17.6381 -11.5706 -2.5057 0.9185
19.1098 -8.9391 -2.5061 0.9185
19.9585 -6.8419 -2.5062 0.9185
20.3971 -5.3983 -2.5063 0.9185
20.9591 -2.4354 -2.5064 0.9185
21.0329 -1.6845 -2.5064 0.9185
21.0995 -0.1771 -2.5064 0.9185
21.0603 1.3343 -2.5064 0.9185
20.9968 2.0832 -2.5064 0.9185
20.7934 3.5782 -2.5063 0.9185
20.6478 4.3184 -2.5057 0.9185
20.4797 5.0538 -2.5057 0.9185
20.3004 5.7869 -2.5075 0.9185
20.1060 6.5173 -2.5106 0.9184
19.8857 7.2413 -2.5139 0.9183
19.3361 8.6523 -2.5163 0.9182
18.5651 9.9566 -2.5024 0.9186
18.1262 10.5725 -2.4926 0.9189
17.5663 11.1062 -2.4687 0.9197
12.5520 14.2850 -2.2589 0.9263
11.2457 14.8119 -2.2091 0.9278
10.5908 15.0368 -2.1847 0.9286
9.9497 15.2575 -2.1637 0.9293
8.0547 15.8342 -2.1103 0.9309
7.4309 15.9989 -2.0954 0.9314
5.0797 -15.8175 -2.3539 0.9351
5.6390 -15.6173 -2.3526 0.9351
7.0122 -15.7859 -2.4474 0.9326
7.7460 -15.8815 -2.5036 0.9311
8.8619 -15.2888 -2.5038 0.9311
10.9529 -13.8717 -2.5043 0.9311
12.3768 -12.6207 -2.5046 0.9311
13.2480 -11.7048 -2.5048 0.9311
13.6586 -11.2240 -2.5049 0.9311
14.0516 -10.7288 -2.5050 0.9311
14.4266 -10.2199 -2.5050 0.9311
15.4393 -8.6171 -2.5052 0.9311
15.7379 -8.0597 -2.5053 0.9311
16.0164 -7.4920 -2.5054 0.9311
16.2744 -6.9147 -2.5054 0.9311
16.5115 -6.3286 -2.5055 0.9311
16.7275 -5.7343 -2.5055 0.9311
16.9221 -5.1326 -2.5055 0.9311
17.0950 -4.5244 -2.5056 0.9311
17.2460 -3.9103 -2.5056 0.9311
17.3749 -3.2912 -2.5056 0.9311
17.6278 -1.4118 -2.5057 0.9310
17.6831 -0.1485 -2.5056 0.9311
17.6745 0.4838 -2.5052 0.9311
17.6457 1.1154 -2.5052 0.9311
17.4243 2.9984 -2.5051 0.9311
17.3183 3.6221 -2.5069 0.9310
17.1956 4.2434 -2.5095 0.9309
17.0509 4.8606 -2.5122 0.9309
16.8842 5.4730 -2.5149 0.9308
16.6957 6.0797 -2.5176 0.9307
16.4856 6.6800 -2.5203 0.9307
16.2542 7.2732 -2.5231 0.9306
16.0015 7.8584 -2.5259 0.9305
15.0653 9.5250 -2.5255 0.9305
11.6433 12.3322 -2.4031 0.9338
10.5578 12.9193 -2.3640 0.9348
8.3302 13.8309 -2.2877 0.9369
6.3834 13.7436 -2.1471 0.9406
4.9721 11.7912 -1.8132 0.9496
3.9065 -13.8467 -2.3701 0.9433
6.1686 -13.8867 -2.5032 0.9403
6.6614 -13.6579 -2.5033 0.9403
7.1458 -13.4116 -2.5035 0.9403
8.9862 -12.2579 -2.5039 0.9402
9.4191 -11.9291 -2.5039 0.9402
10.6434 -10.8531 -2.5042 0.9402
11.0250 -10.4659 -2.5043 0.9402
11.3925 -10.0654 -2.5044 0.9402
12.7124 -8.3394 -2.5046 0.9402
13.0028 -7.8797 -2.5047 0.9402
13.2765 -7.4099 -2.5048 0.9402
13.7726 -6.4425 -2.5049 0.9402
13.9944 -5.9461 -2.5049 0.9402
14.5513 -4.4135 -2.5050 0.9402
14.6999 -3.8904 -2.5050 0.9402
14.9387 -2.8297 -2.5047 0.9402
15.0304 -2.2938 -2.5048 0.9402
15.1028 -1.7549 -2.5048 0.9402
15.1985 0.4160 -2.5047 0.9402
15.0783 2.0427 -2.5067 0.9402
15.0087 2.5827 -2.5089 0.9401
14.6852 4.1862 -2.5156 0.9400
14.5395 4.7129 -2.5179 0.9399
14.1920 5.7506 -2.5226 0.9398
13.2779 7.7447 -2.5323 0.9396
13.0051 8.2224 -2.5347 0.9395
12.0692 9.5831 -2.5388 0.9394
11.3055 10.3769 -2.5280 0.9397
10.8969 10.7446 -2.5210 0.9398
10.4213 11.0380 -2.5008 0.9403
9.4775 11.5974 -2.4674 0.9411
8.0248 12.3058 -2.4202 0.9422
7.0150 12.6496 -2.3829 0.9430
5.8281 12.5481 -2.2793 0.9455
4.9311 11.6939 -2.0907 0.9499
4.9674 -12.3553 -2.5030 0.9472
5.8380 -11.9696 -2.5031 0.9472
7.0868 -11.2767 -2.5034 0.9472
7.8749 -10.7420 -2.5035 0.9472
8.9806 -9.8378 -2.5037 0.9472
9.3269 -9.5106 -2.5038 0.9472
9.6612 -9.1713 -2.5038 0.9472
9.9831 -8.8202 -2.5039 0.9472
10.5884 -8.0846 -2.5040 0.9472
10.8708 -7.7010 -2.5040 0.9472
11.3938 -6.9046 -2.5041 0.9472
11.6336 -6.4930 -2.5042 0.9472
12.0681 -5.6452 -2.5042 0.9472
12.2624 -5.2101 -2.5043 0.9472
12.9941 -2.9462 -2.5044 0.9472
13.0911 -2.4797 -2.5044 0.9472
13.2349 -1.5379 -2.5044 0.9472
13.2815 -1.0637 -2.5044 0.9472
13.3110 -0.5882 -2.5044 0.9472
13.3235 -0.1119 -2.5044 0.9472
13.3216 0.3647 -2.5049 0.9472
13.3096 0.8413 -2.5067 0.9472
13.2807 1.3177 -2.5085 0.9471
13.2350 1.7929 -2.5104 0.9471
13.1724 2.2667 -2.5123 0.9471
13.0930 2.7384 -2.5142 0.9470
12.9970 3.2072 -2.5162 0.9470
12.7550 4.1345 -2.5202 0.9469
12.6093 4.5916 -2.5223 0.9468
12.4473 5.0437 -2.5244 0.9468
11.1441 7.6168 -2.5372 0.9465
10.8738 8.0171 -2.5393 0.9465
8.9360 10.1698 -2.5446 0.9464
8.5482 10.4603 -2.5391 0.9465
5.3019 11.4151 -2.3657 0.9501
3.2147 -11.3945 -2.5026 0.9527
3.6201 -11.2726 -2.5027 0.9527
4.0210 -11.1364 -2.5027 0.9527
4.4168 -10.9858 -2.5028 0.9527
5.9385 -10.2452 -2.5031 0.9527
6.3012 -10.0266 -2.5032 0.9527
6.6558 -9.7951 -2.5033 0.9527
7.0019 -9.5512 -2.5033 0.9527
7.6670 -9.0268 -2.5034 0.9527
7.9850 -8.7471 -2.5035 0.9527
8.2928 -8.4562 -2.5036 0.9527
8.8763 -7.8423 -2.5037 0.9527
9.1511 -7.5200 -2.5037 0.9527
9.4143 -7.1881 -2.5037 0.9527
9.6655 -6.8471 -2.5038 0.9527
9.9043 -6.4972 -2.5038 0.9527
10.1304 -6.1390 -2.5039 0.9527
10.3436 -5.7730 -2.5039 0.9527
10.7299 -5.0192 -2.5040 0.9527
10.9026 -4.6324 -2.5040 0.9527
11.2060 -3.8415 -2.5040 0.9527
11.3362 -3.4384 -2.5041 0.9527
11.4520 -3.0309 -2.5041 0.9527
11.5531 -2.6195 -2.5041 0.9527
11.6394 -2.2048 -2.5041 0.9527
11.7108 -1.7872 -2.5041 0.9527
11.8086 -0.9457 -2.5041 0.9527
11.8406 -0.5232 -2.5053 0.9527
11.8589 -0.0996 -2.5068 0.9527
11.8239 1.1731 -2.5116 0.9526
11.7256 2.0178 -2.5150 0.9525
11.6540 2.4374 -2.5167 0.9525
11.4661 3.2686 -2.5203 0.9524
10.1374 6.4094 -2.5352 0.9521
9.4142 7.4749 -2.5410 0.9520
8.5789 8.4590 -2.5467 0.9519
8.2771 8.7669 -2.5486 0.9519
6.9631 9.8861 -2.5560 0.9518
6.2453 10.3692 -2.5587 0.9517
5.8626 10.5717 -2.5553 0.9518
4.8291 10.3972 -2.4233 0.9542
4.4091 10.4560 -2.3987 0.9547
3.9723 -9.8803 -2.5027 0.9572
4.6684 -9.5717 -2.5029 0.9572
5.0078 -9.3989 -2.5029 0.9572
6.2971 -8.5898 -2.5032 0.9572
6.6004 -8.3593 -2.5032 0.9572
7.1812 -7.8666 -2.5033 0.9572
7.4580 -7.6050 -2.5034 0.9572
8.2299 -6.7630 -2.5035 0.9572
8.4666 -6.4645 -2.5035 0.9572
8.6924 -6.1578 -2.5036 0.9572
8.9071 -5.8431 -2.5036 0.9572
9.1105 -5.5210 -2.5037 0.9572
9.3022 -5.1918 -2.5037 0.9572
9.6496 -4.5139 -2.5037 0.9572
9.8050 -4.1660 -2.5038 0.9572
9.9477 -3.8128 -2.5038 0.9572
10.1949 -3.0922 -2.5038 0.9572
10.4675 -1.9828 -2.5039 0.9572
10.5347 -1.6077 -2.5046 0.9572
10.5907 -1.2307 -2.5058 0.9571
10.6334 -0.8516 -2.5071 0.9571
10.6628 -0.4712 -2.5084 0.9571
10.6698 0.6745 -2.5127 0.9570
10.6069 1.4369 -2.5156 0.9570
10.4900 2.1940 -2.5187 0.9569
10.4114 2.5692 -2.5203 0.9569
10.3195 2.9417 -2.5219 0.9569
10.2143 3.3109 -2.5236 0.9568
10.0960 3.6764 -2.5252 0.9568
9.9646 4.0377 -2.5269 0.9568
9.8204 4.3943 -2.5286 0.9568
9.4940 5.0917 -2.5319 0.9567
9.3122 5.4316 -2.5337 0.9567
9.1182 5.7650 -2.5354 0.9566
8.6948 6.4105 -2.5388 0.9566
7.7129 7.6051 -2.5457 0.9565
7.1592 8.1477 -2.5491 0.9564
6.5673 8.6498 -2.5524 0.9564
6.2578 8.8848 -2.5541 0.9563
4.9311 9.6936 -2.5561 0.9563
4.5596 9.8169 -2.5439 0.9565
2.6243 -9.3019 -2.5024 0.9609
2.9553 -9.2023 -2.5025 0.9609
4.5454 -8.5311 -2.5028 0.9608
4.8477 -8.3633 -2.5029 0.9608
5.1437 -8.1848 -2.5029 0.9608
5.7157 -7.7966 -2.5030 0.9608
6.2585 -7.3686 -2.5031 0.9608
6.7693 -6.9027 -2.5032 0.9608
7.0119 -6.6563 -2.5033 0.9608
7.4699 -6.1385 -2.5033 0.9608
8.2691 -5.0111 -2.5035 0.9608
8.4431 -4.7123 -2.5035 0.9608
8.8994 -3.7812 -2.5036 0.9608
9.3503 -2.4747 -2.5043 0.9608
9.5737 -1.4611 -2.5075 0.9608
9.6242 -1.1183 -2.5086 0.9608
9.6626 -0.7739 -2.5098 0.9607
9.6888 -0.4281 -2.5110 0.9607
9.7027 -0.0814 -2.5123 0.9607
9.6937 0.6127 -2.5149 0.9607
9.6707 0.9595 -2.5162 0.9606
9.5282 1.9928 -2.5204 0.9606
9.2761 3.0068 -2.5248 0.9605
8.9168 3.9900 -2.5293 0.9604
8.7738 4.3088 -2.5309 0.9604
8.6194 4.6226 -2.5324 0.9604
8.4538 4.9309 -2.5340 0.9604
8.2772 5.2332 -2.5355 0.9603
8.0898 5.5292 -2.5371 0.9603
7.4650 6.3755 -2.5418 0.9602
7.2367 6.6423 -2.5433 0.9602
6.4956 7.3925 -2.5480 0.9602
5.0973 8.4632 -2.5580 0.9600
4.4458 8.7397 -2.5388 0.9603
4.1101 8.8491 -2.5263 0.9605
2.4001 -8.5073 -2.5024 0.9639
3.2976 -8.2021 -2.5026 0.9639
3.5888 -8.0791 -2.5026 0.9639
4.1571 -7.8023 -2.5027 0.9639
4.4335 -7.6488 -2.5028 0.9639
5.4791 -6.9392 -2.5030 0.9639
5.7238 -6.7390 -2.5030 0.9639
5.9612 -6.5301 -2.5031 0.9639
6.4128 -6.0876 -2.5031 0.9639
7.0281 -5.3662 -2.5032 0.9639
7.5625 -4.5829 -2.5033 0.9639
7.7216 -4.3096 -2.5034 0.9639
7.8709 -4.0309 -2.5034 0.9639
8.0100 -3.7469 -2.5034 0.9639
8.2609 -3.1663 -2.5045 0.9639
8.3715 -2.8698 -2.5053 0.9639
8.5612 -2.2658 -2.5071 0.9639
8.6400 -1.9590 -2.5080 0.9638
8.8107 -1.0238 -2.5110 0.9638
8.8455 -0.7085 -2.5121 0.9638
8.8691 -0.3919 -2.5132 0.9638
8.8826 0.2431 -2.5155 0.9637
8.8725 0.5608 -2.5167 0.9637
8.8184 1.1946 -2.5192 0.9637
8.7745 1.5099 -2.5205 0.9637
8.6531 2.1353 -2.5231 0.9636
8.1574 3.6502 -2.5300 0.9635
8.0262 3.9417 -2.5314 0.9635
7.7326 4.5102 -2.5342 0.9635
7.5707 4.7865 -2.5356 0.9634
7.2174 5.3213 -2.5385 0.9634
7.0265 5.5791 -2.5399 0.9634
6.8264 5.8300 -2.5414 0.9634
6.3994 6.3100 -2.5442 0.9633
6.1732 6.5384 -2.5456 0.9633
5.1892 7.3676 -2.5512 0.9632
4.9290 7.5584 -2.5545 0.9632
4.3449 7.8348 -2.5362 0.9634
4.0440 7.9498 -2.5250 0.9636
3.7445 8.0620 -2.5165 0.9637
3.4449 8.1696 -2.5100 0.9638
2.2090 -7.8299 -2.5023 0.9665
2.7631 -7.6524 -2.5024 0.9665
3.0350 -7.5489 -2.5025 0.9665
3.3030 -7.4357 -2.5025 0.9665
3.5668 -7.3130 -2.5026 0.9665
4.3296 -6.8894 -2.5027 0.9665
4.5733 -6.7303 -2.5028 0.9665
4.8110 -6.5627 -2.5028 0.9665
6.0987 -5.3882 -2.5031 0.9665
6.2875 -5.1668 -2.5031 0.9665
6.4683 -4.9387 -2.5031 0.9665
6.8048 -4.4640 -2.5032 0.9665
7.1099 -3.9682 -2.5044 0.9665
7.2490 -3.7124 -2.5050 0.9665
7.3789 -3.4517 -2.5056 0.9665
7.7127 -2.6440 -2.5078 0.9665
7.8871 -2.0874 -2.5094 0.9664
7.9594 -1.8047 -2.5103 0.9664
8.1476 -0.6525 -2.5141 0.9664
8.1810 0.2239 -2.5172 0.9663
8.1713 0.5165 -2.5183 0.9663
8.1513 0.8087 -2.5195 0.9663
8.0801 1.3904 -2.5218 0.9663
7.9677 1.9662 -2.5242 0.9662
7.7228 2.8122 -2.5280 0.9662
7.6211 3.0881 -2.5292 0.9662
7.5097 3.3603 -2.5305 0.9662
7.1177 4.1515 -2.5344 0.9661
6.8098 4.6544 -2.5371 0.9661
6.2821 5.3652 -2.5410 0.9660
5.0115 6.6007 -2.5491 0.9659
4.7767 6.7819 -2.5514 0.9659
4.2500 7.0565 -2.5337 0.9661
3.4375 7.4011 -2.5100 0.9664
3.1656 7.5071 -2.5059 0.9665
2.3018 -7.1674 -2.5023 0.9688
2.8082 -6.9849 -2.5024 0.9688
3.5414 -6.6467 -2.5034 0.9688
3.7766 -6.5155 -2.5033 0.9688
4.2325 -6.2288 -2.5032 0.9688
4.4525 -6.0735 -2.5033 0.9688
4.8755 -5.7402 -2.5034 0.9688
5.6459 -4.9882 -2.5043 0.9687
5.8214 -4.7838 -2.5046 0.9687
5.9896 -4.5732 -2.5050 0.9687
6.1502 -4.3569 -2.5054 0.9687
6.4482 -3.9076 -2.5063 0.9687
6.5852 -3.6754 -2.5068 0.9687
6.7138 -3.4383 -2.5073 0.9687
6.8341 -3.1968 -2.5079 0.9687
6.9458 -2.9512 -2.5086 0.9687
7.0487 -2.7017 -2.5092 0.9687
7.2279 -2.1923 -2.5107 0.9687
7.3039 -1.9331 -2.5114 0.9687
7.3707 -1.6712 -2.5122 0.9686
7.4282 -1.4071 -2.5131 0.9686
7.4763 -1.1410 -2.5139 0.9686
7.5442 -0.6042 -2.5158 0.9686
7.5638 -0.3342 -2.5167 0.9686
7.5739 -0.0636 -2.5177 0.9686
7.5179 1.0185 -2.5218 0.9685
7.4324 1.5545 -2.5240 0.9685
7.3754 1.8200 -2.5251 0.9685
7.2330 2.3446 -2.5274 0.9685
7.1478 2.6028 -2.5286 0.9684
7.0535 2.8580 -2.5298 0.9684
6.9501 3.1099 -2.5310 0.9684
6.4480 4.0767 -2.5358 0.9684
6.1461 4.5315 -2.5383 0.9683
5.8121 4.9638 -2.5407 0.9683
5.6336 5.1710 -2.5419 0.9683
5.4477 5.3716 -2.5431 0.9683
5.2547 5.5656 -2.5443 0.9683
4.8505 5.9354 -2.5480 0.9682
3.9148 6.4999 -2.5222 0.9685
3.6698 6.6174 -2.5153 0.9686
3.4234 6.7298 -2.5099 0.9687
2.9268 6.9408 -2.5039 0.9687
1.8999 -6.7343 -2.5022 0.9707
2.3764 -6.5816 -2.5023 0.9707
2.6103 -6.4925 -2.5024 0.9707
2.8408 -6.3952 -2.5024 0.9707
3.5137 -6.0620 -2.5057 0.9707
4.1426 -5.6508 -2.5056 0.9707
4.3421 -5.4992 -2.5057 0.9707
4.7244 -5.1754 -2.5059 0.9707
4.9068 -5.0035 -2.5061 0.9707
5.4160 -4.4507 -2.5069 0.9707
5.7218 -4.0534 -2.5076 0.9707
6.1262 -3.4192 -2.5089 0.9706
6.2458 -3.1987 -2.5094 0.9706
6.3576 -2.9739 -2.5100 0.9706
6.4614 -2.7453 -2.5105 0.9706
6.7234 -2.0393 -2.5125 0.9706
6.7940 -1.7981 -2.5132 0.9706
6.9093 -1.3088 -2.5147 0.9706
7.0347 -0.3108 -2.5181 0.9705
7.0441 0.1928 -2.5200 0.9705
6.9910 0.9471 -2.5229 0.9705
6.9555 1.1969 -2.5239 0.9705
6.8578 1.6923 -2.5260 0.9704
6.7958 1.9372 -2.5270 0.9704
6.7250 2.1799 -2.5281 0.9704
6.3566 3.1218 -2.5325 0.9704
5.8571 4.0032 -2.5370 0.9703
5.7128 4.2119 -2.5382 0.9703
5.2359 4.8059 -2.5416 0.9703
5.0629 4.9922 -2.5427 0.9702
4.7015 5.3506 -2.5471 0.9702
4.2908 5.6515 -2.5375 0.9703
3.8504 5.9045 -2.5208 0.9705
3.4034 6.1372 -2.5096 0.9706
3.1773 6.2460 -2.5060 0.9707
1.7729 -6.2842 -2.5022 0.9724
1.9965 -6.2169 -2.5023 0.9724
2.2176 -6.1417 -2.5023 0.9724
3.0764 -5.7739 -2.5072 0.9724
3.4819 -5.5405 -2.5077 0.9724
4.0552 -5.1359 -2.5077 0.9724
4.2364 -4.9878 -2.5078 0.9724
4.4123 -4.8334 -2.5080 0.9724
4.7471 -4.5064 -2.5083 0.9724
5.0580 -4.1565 -2.5088 0.9723
5.2041 -3.9735 -2.5091 0.9723
5.4763 -3.5925 -2.5099 0.9723
5.6022 -3.3949 -2.5103 0.9723
5.7210 -3.1931 -2.5107 0.9723
5.8326 -2.9870 -2.5112 0.9723
5.9369 -2.7771 -2.5117 0.9723
6.0337 -2.5637 -2.5123 0.9723
6.1229 -2.3468 -2.5129 0.9723
6.2044 -2.1269 -2.5135 0.9723
6.2781 -1.9042 -2.5141 0.9723
6.4513 -1.2221 -2.5162 0.9723
6.5679 0.4152 -2.5220 0.9722
6.5512 0.6500 -2.5229 0.9722
6.4013 1.5797 -2.5267 0.9722
6.3433 1.8082 -2.5277 0.9721
6.2771 2.0347 -2.5287 0.9721
6.2028 2.2587 -2.5297 0.9721
6.0304 2.6984 -2.5318 0.9721
5.9325 2.9135 -2.5328 0.9721
5.7138 3.3327 -2.5349 0.9721
5.5934 3.5364 -2.5360 0.9721
5.3308 3.9303 -2.5381 0.9720
5.0405 4.3048 -2.5402 0.9720
4.1844 5.1203 -2.5341 0.9721
3.9861 5.2501 -2.5261 0.9722
2.7517 5.9244 -2.5033 0.9724
1.6600 -5.8840 -2.5022 0.9739
1.8694 -5.8210 -2.5022 0.9739
2.2807 -5.6728 -2.5023 0.9739
2.6803 -5.4954 -2.5024 0.9739
2.8753 -5.3965 -2.5026 0.9739
3.7998 -4.8124 -2.5096 0.9738
4.2939 -4.3785 -2.5099 0.9738
4.8762 -3.7231 -2.5109 0.9738
5.1311 -3.3660 -2.5116 0.9738
5.2490 -3.1809 -2.5120 0.9738
5.4648 -2.7987 -2.5128 0.9738
5.6531 -2.4019 -2.5138 0.9738
5.7366 -2.1988 -2.5144 0.9738
5.8818 -1.7840 -2.5156 0.9738
5.9433 -1.5729 -2.5162 0.9738
6.1135 -0.7104 -2.5189 0.9737
6.1368 -0.4915 -2.5197 0.9737
6.1524 -0.2719 -2.5205 0.9737
6.1601 -0.0517 -2.5213 0.9737
6.1600 0.1686 -2.5221 0.9737
6.1363 0.6088 -2.5238 0.9737
6.1127 0.8281 -2.5246 0.9737
6.0422 1.2637 -2.5264 0.9737
5.9953 1.4795 -2.5273 0.9737
5.9408 1.6935 -2.5283 0.9737
5.8786 1.9055 -2.5292 0.9736
5.7317 2.3225 -2.5311 0.9736
5.6472 2.5269 -2.5321 0.9736
5.5554 2.7283 -2.5331 0.9736
5.4564 2.9263 -2.5340 0.9736
5.3504 3.1207 -2.5350 0.9736
5.2374 3.3113 -2.5360 0.9736
4.9913 3.6800 -2.5380 0.9736
4.7192 4.0304 -2.5400 0.9735
4.5764 4.2005 -2.5424 0.9735
4.4240 4.3622 -2.5428 0.9735
3.9020 4.7747 -2.5237 0.9737
3.5352 5.0192 -2.5126 0.9738
3.3482 5.1343 -2.5087 0.9739
3.1588 5.2446 -2.5058 0.9739
2.9670 5.3501 -2.5039 0.9739
1.9499 -5.4003 -2.5022 0.9753
2.1417 -5.3272 -2.5023 0.9753
2.5170 -5.1607 -2.5024 0.9753
3.0589 -4.8674 -2.5054 0.9752
3.2387 -4.7663 -2.5114 0.9752
3.7303 -4.3920 -2.5113 0.9752
3.8851 -4.2559 -2.5114 0.9752
4.4535 -3.6597 -2.5122 0.9752
4.9323 -2.9890 -2.5135 0.9751
5.2266 -2.4449 -2.5147 0.9751
5.3901 -2.0659 -2.5157 0.9751
5.5841 -1.4779 -2.5174 0.9751
5.6783 -1.0756 -2.5187 0.9751
5.7655 -0.4618 -2.5207 0.9751
5.7800 -0.2554 -2.5215 0.9751
5.7871 -0.0486 -2.5222 0.9751
5.7793 0.3653 -2.5238 0.9750
5.7644 0.5719 -2.5246 0.9750
5.6315 1.3897 -2.5279 0.9750
5.5801 1.5907 -2.5288 0.9750
5.5216 1.7898 -2.5297 0.9750
5.3834 2.1813 -2.5315 0.9750
5.3039 2.3733 -2.5324 0.9750
5.2175 2.5623 -2.5333 0.9750
5.1244 2.7482 -2.5342 0.9749
5.0247 2.9308 -2.5351 0.9749
4.9185 3.1097 -2.5361 0.9749
4.8060 3.2848 -2.5370 0.9749
4.6871 3.4558 -2.5379 0.9749
4.2928 3.9402 -2.5395 0.9749
4.1402 4.0823 -2.5340 0.9749
3.9813 4.2168 -2.5275 0.9750
3.8186 4.3458 -2.5213 0.9751
3.3140 4.7051 -2.5082 0.9752
3.1404 4.8156 -2.5056 0.9752
2.7857 5.0232 -2.5033 0.9752
2.2308 5.2903 -2.5022 0.9753
1.4677 -5.2025 -2.5021 0.9765
1.6529 -5.1467 -2.5022 0.9765
2.5421 -4.7711 -2.5024 0.9765
2.8769 -4.5778 -2.5027 0.9765
3.2062 -4.3734 -2.5101 0.9764
3.3639 -4.2604 -2.5127 0.9764
3.6601 -4.0094 -2.5129 0.9764
3.8013 -3.8762 -2.5130 0.9764
3.9377 -3.7381 -2.5132 0.9764
4.1955 -3.4477 -2.5136 0.9763
4.3165 -3.2958 -2.5139 0.9763
4.4321 -3.1398 -2.5142 0.9763
4.5421 -2.9796 -2.5145 0.9763
5.0036 -2.1260 -2.5165 0.9763
5.2056 -1.5789 -2.5180 0.9763
5.2599 -1.3921 -2.5186 0.9763
5.3076 -1.2034 -2.5191 0.9763
5.4304 -0.4349 -2.5217 0.9763
5.4503 0.1492 -2.5238 0.9763
5.4289 0.5386 -2.5253 0.9762
5.4078 0.7326 -2.5261 0.9762
5.3798 0.9258 -2.5268 0.9762
5.3033 1.3087 -2.5284 0.9762
5.1377 1.8709 -2.5309 0.9762
4.9128 2.4127 -2.5335 0.9762
4.7311 2.7595 -2.5352 0.9761
4.2966 3.4115 -2.5395 0.9761
4.1657 3.5577 -2.5357 0.9761
3.8830 3.8287 -2.5242 0.9763
3.7357 3.9567 -2.5188 0.9763
3.4321 4.1998 -2.5106 0.9764
3.1166 4.4249 -2.5053 0.9764
2.9546 4.5307 -2.5037 0.9764
2.2771 4.9027 -2.5022 0.9765
2.0709 -4.6620 -2.5023 0.9775
2.8675 -4.2200 -2.5027 0.9775
3.1687 -4.0131 -2.5081 0.9775
3.5890 -3.6597 -2.5144 0.9774
3.8419 -3.3944 -2.5147 0.9774
4.0754 -3.1117 -2.5152 0.9774
4.2883 -2.8132 -2.5157 0.9774
4.3867 -2.6584 -2.5161 0.9774
4.6483 -2.1743 -2.5172 0.9774
4.7238 -2.0071 -2.5176 0.9774
4.7934 -1.8373 -2.5181 0.9774
4.9656 -1.3142 -2.5196 0.9774
5.0812 -0.7754 -2.5213 0.9774
5.1069 -0.5934 -2.5219 0.9774
5.1261 -0.4106 -2.5225 0.9773
5.1389 -0.2271 -2.5232 0.9773
5.1450 -0.0432 -2.5238 0.9773
5.1447 0.1408 -2.5245 0.9773
5.1243 0.5084 -2.5259 0.9773
5.0449 1.0551 -2.5282 0.9773
4.8489 1.7657 -2.5313 0.9773
4.7842 1.9385 -2.5321 0.9773
4.7133 2.1090 -2.5329 0.9773
4.5535 2.4420 -2.5345 0.9772
4.3721 2.7643 -2.5373 0.9772
4.1610 3.0679 -2.5359 0.9772
4.0416 3.2091 -2.5315 0.9773
3.5167 3.7248 -2.5128 0.9774
2.9391 4.1729 -2.5037 0.9775
2.6324 4.3707 -2.5028 0.9775
2.3129 4.5467 -2.5022 0.9775
1.9820 4.7002 -2.5022 0.9775
1.4747 -4.5922 -2.5021 0.9785
1.7992 -4.4752 -2.5022 0.9785
2.1144 -4.3353 -2.5023 0.9785
2.4189 -4.1732 -2.5023 0.9785
2.5666 -4.0841 -2.5024 0.9785
2.7110 -3.9897 -2.5024 0.9785
2.9907 -3.7878 -2.5037 0.9785
3.1278 -3.6826 -2.5065 0.9785
3.2634 -3.5749 -2.5111 0.9784
3.5170 -3.3387 -2.5157 0.9784
3.6344 -3.2111 -2.5159 0.9784
3.8552 -2.9436 -2.5163 0.9784
3.9584 -2.8042 -2.5166 0.9784
4.0566 -2.6612 -2.5169 0.9784
4.2375 -2.3650 -2.5175 0.9784
4.3199 -2.2124 -2.5179 0.9784
4.3970 -2.0568 -2.5183 0.9784
4.4684 -1.8986 -2.5187 0.9784
4.5342 -1.7379 -2.5191 0.9784
4.6485 -1.4099 -2.5200 0.9783
4.6969 -1.2431 -2.5205 0.9783
4.7393 -1.0746 -2.5210 0.9783
4.8060 -0.7335 -2.5221 0.9783
4.8303 -0.5613 -2.5227 0.9783
4.8484 -0.3883 -2.5233 0.9783
4.8662 -0.0409 -2.5245 0.9783
4.8658 0.1331 -2.5252 0.9783
4.8274 0.6539 -2.5272 0.9783
4.7336 1.1681 -2.5294 0.9783
4.6407 1.5043 -2.5308 0.9783
4.5853 1.6697 -2.5316 0.9783
4.5241 1.8331 -2.5323 0.9782
4.4570 1.9943 -2.5331 0.9782
4.3841 2.1530 -2.5339 0.9782
4.2237 2.4636 -2.5366 0.9782
4.0289 2.7537 -2.5317 0.9782
3.8079 3.0235 -2.5225 0.9783
3.5707 3.2774 -2.5144 0.9784
3.4468 3.3986 -2.5112 0.9784
3.3195 3.5159 -2.5085 0.9784
3.1889 3.6292 -2.5063 0.9785
3.0550 3.7383 -2.5046 0.9785
2.9182 3.8436 -2.5036 0.9785
2.7785 3.9448 -2.5032 0.9785
2.0317 4.3744 -2.5022 0.9785
1.8740 4.4441 -2.5021 0.9785
1.3969 -4.3496 -2.5021 0.9794
1.5515 -4.2969 -2.5021 0.9794
1.8546 -4.1752 -2.5022 0.9794
2.0028 -4.1062 -2.5022 0.9794
2.4308 -3.8684 -2.5023 0.9794
2.8316 -3.5862 -2.5026 0.9794
2.9588 -3.4836 -2.5033 0.9794
3.0840 -3.3783 -2.5053 0.9794
3.5513 -2.9184 -2.5176 0.9793
3.6532 -2.7893 -2.5174 0.9793
3.9321 -2.3829 -2.5182 0.9792
4.0153 -2.2410 -2.5185 0.9792
4.0934 -2.0964 -2.5189 0.9792
4.2340 -1.7990 -2.5196 0.9792
4.3532 -1.4923 -2.5205 0.9792
4.4905 -1.0182 -2.5219 0.9792
4.5249 -0.8571 -2.5224 0.9792
4.5536 -0.6950 -2.5229 0.9792
4.5766 -0.5318 -2.5235 0.9792
4.5937 -0.3679 -2.5240 0.9792
4.6104 -0.0387 -2.5252 0.9792
4.6036 0.2910 -2.5264 0.9792
4.5914 0.4555 -2.5271 0.9792
4.5495 0.7829 -2.5284 0.9792
4.3962 1.4250 -2.5311 0.9791
4.3437 1.5817 -2.5319 0.9791
4.2242 1.8902 -2.5347 0.9791
4.1546 2.0403 -2.5351 0.9791
4.0768 2.1864 -2.5337 0.9791
3.9915 2.3281 -2.5309 0.9791
3.8996 2.4655 -2.5269 0.9792
3.7019 2.7293 -2.5190 0.9792
3.3758 3.0986 -2.5097 0.9793
3.2599 3.2143 -2.5074 0.9793
2.8924 3.5393 -2.5035 0.9794
2.7636 3.6399 -2.5031 0.9794
2.6312 3.7358 -2.5027 0.9794
2.0713 4.0719 -2.5022 0.9794
1.9244 4.1433 -2.5022 0.9794
1.1767 -4.1709 -2.5021 0.9802
1.3251 -4.1262 -2.5021 0.9802
1.4718 -4.0763 -2.5021 0.9802
1.7594 -3.9608 -2.5022 0.9802
1.9001 -3.8954 -2.5022 0.9802
2.1735 -3.7497 -2.5023 0.9802
2.3062 -3.6696 -2.5023 0.9802
2.5626 -3.4955 -2.5024 0.9802
2.6859 -3.4017 -2.5024 0.9802
3.2580 -2.8785 -2.5100 0.9801
3.3640 -2.7644 -2.5138 0.9801
3.5607 -2.5225 -2.5194 0.9800
3.6480 -2.3931 -2.5189 0.9801
3.8105 -2.1268 -2.5195 0.9800
3.8846 -1.9895 -2.5198 0.9800
4.0180 -1.7072 -2.5205 0.9800
4.0771 -1.5627 -2.5209 0.9800
4.1310 -1.4162 -2.5213 0.9800
4.2612 -0.9662 -2.5226 0.9800
4.3589 -0.3491 -2.5247 0.9800
4.3696 -0.1931 -2.5252 0.9800
4.3681 0.2761 -2.5270 0.9800
4.3565 0.4322 -2.5276 0.9800
4.2547 1.0499 -2.5301 0.9800
4.2155 1.2017 -2.5308 0.9800
4.0025 1.7910 -2.5317 0.9800
3.9320 1.9310 -2.5291 0.9800
3.6878 2.3316 -2.5190 0.9800
3.5976 2.4589 -2.5159 0.9801
3.3037 2.8215 -2.5083 0.9801
3.0894 3.0462 -2.5049 0.9802
2.9771 3.1532 -2.5037 0.9802
2.8620 3.2572 -2.5034 0.9802
2.7433 3.3570 -2.5030 0.9802
2.6212 3.4524 -2.5026 0.9802
2.3674 3.6303 -2.5023 0.9802
2.2361 3.7126 -2.5022 0.9802
1.6839 3.9932 -2.5021 0.9802
