ply
format ascii 1.0
element vertex 1035
property float32 x
property float32 y
property float32 z
property float32 I
end_header
-26.1595 17.0343 5.5044 0.8809
-26.5246 14.6806 5.3456 0.8841
-31.5677 14.6235 6.1345 0.8682
-34.7006 14.5880 6.6373 0.8582
-42.5692 14.4038 7.9241 0.8332
-41.3778 -26.5157 8.6655 0.8190
-35.5727 -26.5733 7.8293 0.8350
-26.6997 -30.8048 7.1880 0.8474
-21.1367 -30.4626 6.5377 0.8602
-21.0275 -32.7521 6.8629 0.8538
-21.0840 -35.5838 7.2931 0.8454
-19.4339 -35.6539 7.1600 0.8480
-17.7326 -35.5046 6.9978 0.8511
-12.4481 -37.5863 6.9815 0.8514
-6.7564 -37.8952 6.7873 0.8553
-5.6273 -39.7629 7.0811 0.8495
-4.1660 -39.6293 7.0262 0.8506
-2.7334 -39.6130 7.0014 0.8511
-1.3090 -39.5969 6.9858 0.8514
2.9515 -39.5484 6.9928 0.8512
8.2692 -37.3509 6.7454 0.8561
9.6814 -37.3349 6.8009 0.8550
14.7355 -35.1356 6.7181 0.8566
-26.2744 17.1091 4.8032 0.8808
-31.5673 14.6233 5.3296 0.8687
-38.3976 14.5459 6.2902 0.8469
-41.5693 -26.6384 7.5635 0.8189
-38.2333 -26.4803 7.1248 0.8284
-35.6015 -28.6388 6.9996 0.8312
-33.0626 -30.7471 6.9167 0.8330
-32.9152 -32.8872 7.1280 0.8284
-30.7205 -32.9775 6.9044 0.8333
-31.0163 -35.7852 7.2547 0.8256
-28.7111 -35.6293 7.0098 0.8310
-21.5602 -33.5819 6.1136 0.8509
-20.7734 -35.0596 6.2430 0.8480
-21.0577 -38.6329 6.7404 0.8369
-20.0180 -40.0806 6.8633 0.8342
-19.1223 -41.9877 7.0679 0.8297
-5.6235 -15.1387 2.4740 0.9367
0.6394 -16.5378 2.5354 0.9352
15.7152 -41.5918 6.8113 0.8353
17.4350 -41.5722 6.9060 0.8332
18.2772 -39.5444 6.6738 0.8384
-26.2732 17.1083 4.0827 0.8812
-26.5240 14.6802 3.9477 0.8849
-31.5669 14.6231 4.5303 0.8691
-34.6996 14.5875 4.9017 0.8591
-42.8394 14.4952 5.8893 0.8332
-44.9047 5.0137 5.8839 0.8334
-21.1947 -26.3018 4.3987 0.8726
-21.0444 -30.3296 4.8072 0.8616
-21.3712 -36.0684 5.4594 0.8444
-5.6225 -15.1361 2.1026 0.9369
0.6394 -16.5385 2.1553 0.9354
-26.1559 17.0319 3.3516 0.8820
-26.5237 14.6801 3.2553 0.8852
-28.7177 14.5752 3.4582 0.8785
-31.5665 14.6229 3.7357 0.8694
-34.6992 14.5873 4.0419 0.8595
-38.3965 14.5454 4.4090 0.8477
-21.2371 -28.3789 3.8062 0.8671
-21.0897 -30.3948 3.9726 0.8617
-21.0811 -35.5789 4.4408 0.8467
-5.6215 -15.1334 1.7335 0.9371
0.6395 -16.5392 1.7773 0.9356
-31.5661 14.6227 2.9450 0.8697
-34.6987 14.5871 3.1863 0.8598
-44.9212 3.3910 3.8135 0.8346
-5.6205 -15.1308 1.3664 0.9373
-26.1385 15.7162 1.8913 0.8849
-28.8712 14.6531 2.0077 0.8783
-31.5657 14.6225 2.1572 0.8699
-32.0618 12.1457 2.1260 0.8716
-36.5230 12.3580 2.3909 0.8568
-44.9812 9.9988 2.8574 0.8314
-5.6196 -15.1282 1.0007 0.9374
-26.2685 17.1052 1.2360 0.8821
-28.7217 14.5772 1.2700 0.8790
-30.7130 14.2275 1.3347 0.8733
-20.4897 -25.4270 1.2876 0.8775
-26.2673 17.1045 0.5295 0.8821
-26.1362 15.7148 0.5151 0.8851
-34.6973 14.5865 0.6358 0.8602
-38.3942 14.5445 0.6935 0.8485
-42.8358 14.4940 0.7639 0.8345
-21.3762 -24.6628 0.5513 0.8776
-20.4928 -25.4307 0.5517 0.8775
0.6396 -16.5420 0.2796 0.9359
1.8209 -24.3992 0.4133 0.9068
-26.1500 17.0281 -0.1757 0.8827
-26.1351 15.7141 -0.1717 0.8852
-26.5222 14.6793 -0.1707 0.8858
-28.8701 14.6526 -0.1823 0.8785
-38.3936 14.5443 -0.2311 0.8485
-38.8608 -22.9809 -0.2542 0.8348
-35.8157 -22.9513 -0.2395 0.8435
-33.0607 -22.8977 -0.2264 0.8514
-26.3825 -22.8273 -0.1964 0.8697
-24.5226 -22.8052 -0.1885 0.8746
-22.8034 -22.7840 -0.1815 0.8790
-15.7514 -22.7012 -0.1556 0.8954
-13.4345 -22.6736 -0.1484 0.8999
-10.3143 -22.6473 -0.1401 0.9053
-9.3442 -22.6348 -0.1379 0.9067
-7.4885 -22.6107 -0.1341 0.9091
-5.7246 -22.5956 -0.1312 0.9110
-4.8679 -22.5856 -0.1301 0.9117
-4.0250 -22.5758 -0.1291 0.9124
-1.5564 -22.5544 -0.1273 0.9135
-0.7454 -22.5447 -0.1270 0.9137
2.4933 -22.5058 -0.1275 0.9134
-26.1488 17.0273 -0.8786 0.8826
-26.1339 15.7135 -0.8586 0.8851
-33.5953 14.1233 -1.0262 0.8643
-42.3189 -23.0200 -1.3565 0.8247
-30.6125 -22.8679 -1.0759 0.8582
-24.5221 -22.8047 -0.9429 0.8746
-21.2110 -22.7694 -0.8762 0.8829
-18.3256 -22.7412 -0.8224 0.8897
-13.4347 -22.6740 -0.7421 0.8999
-12.3592 -22.6743 -0.7271 0.9018
-11.3179 -22.6608 -0.7132 0.9036
-7.4886 -22.6112 -0.6707 0.9091
-6.5981 -22.6068 -0.6631 0.9101
-4.8681 -22.5866 -0.6506 0.9117
-4.0252 -22.5768 -0.6457 0.9123
-3.1938 -22.5671 -0.6418 0.9128
-2.3714 -22.5575 -0.6387 0.9132
-1.5564 -22.5545 -0.6366 0.9135
-0.7454 -22.5447 -0.6352 0.9137
0.0630 -22.5351 -0.6345 0.9138
2.4933 -22.5059 -0.6376 0.9134
3.3122 -22.4961 -0.6403 0.9130
-26.1328 15.7128 -1.5464 0.8850
-26.5217 14.6790 -1.5373 0.8857
-30.5405 14.1476 -1.7069 0.8739
-31.3819 11.8882 -1.7019 0.8742
-38.3969 11.4759 -2.0324 0.8517
-44.9232 11.6901 -2.3541 0.8303
-44.7332 -16.5734 -2.4193 0.8261
-43.4512 -19.7442 -2.4204 0.8260
-42.6257 -21.2439 -2.4153 0.8263
-41.7784 -22.7261 -2.4119 0.8266
-33.0642 -22.9001 -2.0397 0.8512
-26.3814 -22.8263 -1.7692 0.8696
-24.5216 -22.8042 -1.6982 0.8745
-22.8055 -22.7860 -1.6349 0.8789
-21.2120 -22.7704 -1.5782 0.8828
-19.7234 -22.7559 -1.5272 0.8864
-18.3263 -22.7422 -1.4812 0.8896
-15.7519 -22.7019 -1.4013 0.8952
-14.5660 -22.6877 -1.3673 0.8976
-13.4349 -22.6743 -1.3366 0.8998
-11.3182 -22.6613 -1.2846 0.9035
-5.6148 -15.1152 -0.8177 0.9375
-6.5984 -22.6078 -1.1944 0.9100
-5.7251 -22.5976 -1.1822 0.9109
-4.0254 -22.5778 -1.1631 0.9122
-2.3715 -22.5584 -1.1503 0.9132
-1.5564 -22.5546 -1.1466 0.9134
-0.7454 -22.5449 -1.1440 0.9136
0.0630 -22.5352 -1.1429 0.9137
0.6396 -16.5441 -0.8396 0.9358
1.6803 -22.5158 -1.1450 0.9135
10.5360 -47.5899 -2.4719 0.8227
12.2214 -47.1302 -2.4692 0.8228
13.8878 -46.6118 -2.4666 0.8230
17.1549 -45.4020 -2.4614 0.8233
-20.8746 13.5929 -1.8265 0.9049
-22.9352 12.6939 -1.9220 0.9002
-28.3013 14.3639 -2.3271 0.8805
-28.8055 13.3438 -2.3277 0.8804
-29.2721 12.3058 -2.3282 0.8804
-29.7004 11.2512 -2.3287 0.8804
-31.3844 9.3800 -2.4018 0.8769
-34.0585 7.5708 -2.5582 0.8694
-34.6773 3.8718 -2.5584 0.8694
-34.7926 2.6264 -2.5583 0.8694
-34.8622 1.3777 -2.5582 0.8694
-34.3187 -6.0884 -2.5556 0.8695
-33.0556 -10.9164 -2.5525 0.8697
-32.6308 -12.0895 -2.5515 0.8697
-32.1636 -13.2458 -2.5505 0.8698
-31.6546 -14.3838 -2.5494 0.8698
-29.9649 -14.9340 -2.4548 0.8743
-28.6542 -15.5870 -2.3917 0.8774
-28.0631 -16.5955 -2.3905 0.8774
-26.0970 -19.4948 -2.3884 0.8775
-24.6051 -21.2895 -2.3857 0.8777
-23.8119 -22.1442 -2.3842 0.8777
-19.7242 -22.7568 -2.2081 0.8862
-18.3271 -22.7431 -2.1416 0.8895
-15.7521 -22.7022 -2.0260 0.8951
-10.3150 -22.6488 -1.8248 0.9050
-5.6138 -15.1127 -1.1821 0.9374
-7.4890 -22.6122 -1.7465 0.9089
-6.5987 -22.6089 -1.7269 0.9099
-4.8686 -22.5886 -1.6943 0.9115
-4.0256 -22.5788 -1.6816 0.9121
-3.1941 -22.5691 -1.6713 0.9126
-2.3716 -22.5595 -1.6632 0.9130
-1.5564 -22.5547 -1.6577 0.9133
-0.7454 -22.5450 -1.6540 0.9135
0.6397 -16.5448 -1.2140 0.9358
3.3122 -22.4963 -1.6673 0.9128
5.7576 -31.2796 -2.3320 0.8802
6.0113 -23.1817 -1.7559 0.9084
6.9030 -23.1688 -1.7726 0.9076
8.7437 -23.1411 -1.8138 0.9055
9.6989 -23.1262 -1.8387 0.9043
10.6817 -23.1105 -1.8668 0.9029
15.2082 -30.0285 -2.4680 0.8737
-18.2097 11.8576 -2.0862 0.9164
-22.9275 9.6386 -2.3878 0.9049
-25.0960 8.4915 -2.5435 0.8990
-25.3868 7.5875 -2.5438 0.8990
-25.6447 6.6734 -2.5440 0.8990
-26.3386 2.9408 -2.5443 0.8990
-26.4265 1.9949 -2.5443 0.8990
-26.4797 1.0464 -2.5442 0.8990
-26.4983 0.0968 -2.5440 0.8990
-26.4823 -0.8529 -2.5437 0.8990
-25.8854 -5.5560 -2.5417 0.8991
-24.8004 -9.1884 -2.5391 0.8992
-24.4476 -10.0682 -2.5383 0.8992
-24.0633 -10.9343 -2.5375 0.8992
-23.2017 -12.6210 -2.5357 0.8993
-22.7257 -13.4392 -2.5347 0.8993
-22.2206 -14.2394 -2.5337 0.8994
-21.0884 -14.6057 -2.4628 0.9021
-18.7080 -16.1871 -2.3750 0.9054
-17.4886 -17.4737 -2.3734 0.9054
-16.8464 -18.0842 -2.3728 0.9055
-14.0707 -20.2790 -2.3696 0.9056
-12.5687 -21.2124 -2.3671 0.9057
-11.0047 -22.0338 -2.3645 0.9058
-9.3450 -22.6368 -2.3511 0.9063
-7.4891 -22.6127 -2.2869 0.9087
-6.5990 -22.6099 -2.2612 0.9097
-4.0258 -22.5798 -2.2020 0.9120
-3.1942 -22.5701 -2.1884 0.9125
0.0630 -22.5354 -2.1635 0.9134
1.6803 -22.5160 -2.1677 0.9133
2.4934 -22.5062 -2.1739 0.9130
4.4103 -23.9598 -2.3389 0.9067
5.1170 -23.1130 -2.2727 0.9093
10.8239 -23.4181 -2.4768 0.9015
-16.2472 10.5797 -2.3030 0.9249
-17.5212 9.6974 -2.3788 0.9225
-17.8607 9.0649 -2.3792 0.9225
-19.6688 8.2686 -2.5344 0.9176
-20.2153 6.8401 -2.5350 0.9176
-20.4493 6.1118 -2.5353 0.9176
-20.8372 4.6318 -2.5356 0.9176
-20.9905 3.8822 -2.5357 0.9176
-21.1166 3.1275 -2.5357 0.9176
-21.2150 2.3687 -2.5357 0.9176
-21.2859 1.6068 -2.5357 0.9176
-21.3290 0.8429 -2.5356 0.9176
-21.3443 0.0779 -2.5354 0.9176
-21.3317 -0.6870 -2.5352 0.9176
-21.2915 -1.4509 -2.5350 0.9176
-20.8541 -4.4761 -2.5336 0.9177
-20.2412 -6.6846 -2.5321 0.9177
-19.7010 -8.1134 -2.5309 0.9178
-19.3924 -8.8119 -2.5302 0.9178
-19.0587 -9.4986 -2.5295 0.9178
-18.7007 -10.1725 -2.5288 0.9178
-18.3184 -10.8329 -2.5280 0.9178
-17.9126 -11.4787 -2.5272 0.9179
-17.4838 -12.1093 -2.5263 0.9179
-16.0657 -13.9007 -2.5236 0.9180
-14.3799 -14.3676 -2.4146 0.9214
-13.5818 -14.5797 -2.3669 0.9229
-13.0450 -15.0507 -2.3659 0.9229
-12.4918 -15.5019 -2.3649 0.9229
-11.9230 -15.9326 -2.3638 0.9230
-9.5102 -17.4476 -2.3604 0.9231
-8.8757 -17.7709 -2.3596 0.9231
-4.8668 -19.2099 -2.3539 0.9233
-4.1734 -19.3634 -2.3529 0.9233
-3.4752 -19.4918 -2.3519 0.9233
-2.7731 -19.5948 -2.3508 0.9234
-2.0681 -19.6724 -2.3497 0.9234
-1.3611 -19.7244 -2.3486 0.9234
-0.6530 -19.7510 -2.3474 0.9235
0.0553 -19.7520 -2.3463 0.9235
2.8714 -19.5019 -2.3415 0.9237
4.9391 -19.0467 -2.3373 0.9238
7.3893 -19.5565 -2.4833 0.9192
8.0819 -19.2707 -2.4822 0.9193
9.4336 -18.6265 -2.4801 0.9193
-15.6090 8.6391 -2.5278 0.9305
-15.9109 8.0753 -2.5281 0.9305
-17.5569 3.2472 -2.5298 0.9304
-17.8040 1.3440 -2.5298 0.9304
-17.8401 0.7050 -2.5297 0.9304
-17.8429 -0.5746 -2.5295 0.9304
-17.8094 -1.2137 -2.5293 0.9304
-17.5706 -3.1172 -2.5284 0.9304
-17.4452 -3.7444 -2.5281 0.9305
-17.2972 -4.3665 -2.5277 0.9305
-17.1267 -4.9828 -2.5273 0.9305
-16.7195 -6.1945 -2.5263 0.9305
-16.2260 -7.3731 -2.5253 0.9305
-15.9476 -7.9480 -2.5247 0.9305
-15.6486 -8.5124 -2.5241 0.9306
-15.3293 -9.0654 -2.5234 0.9306
-14.6327 -10.1346 -2.5220 0.9306
-13.0183 -12.1065 -2.5189 0.9307
-12.5719 -12.5611 -2.5180 0.9307
-12.1094 -12.9991 -2.5172 0.9307
-11.6317 -13.4200 -2.5163 0.9308
-10.6327 -14.2084 -2.5145 0.9308
-8.4850 -14.3204 -2.3585 0.9350
-7.4316 -14.8795 -2.3566 0.9350
-5.5308 -14.8891 -2.2505 0.9378
-2.9098 -16.3207 -2.3489 0.9352
-1.7319 -16.4745 -2.3471 0.9353
-0.5469 -16.5429 -2.3452 0.9353
0.0463 -16.5450 -2.3443 0.9353
2.4098 -16.3670 -2.3440 0.9353
3.5717 -16.1328 -2.3412 0.9354
4.1435 -15.9788 -2.3389 0.9355
6.7833 -16.1742 -2.4851 0.9316
7.3559 -15.9150 -2.4842 0.9316
-12.8345 8.3574 -2.5231 0.9398
-13.1278 7.8933 -2.5235 0.9398
-13.4041 7.4187 -2.5238 0.9398
-13.6632 6.9345 -2.5242 0.9398
-13.9045 6.4411 -2.5245 0.9398
-14.1279 5.9393 -2.5247 0.9398
-14.2905 5.4135 -2.5175 0.9399
-14.4765 4.8983 -2.5177 0.9399
-14.6871 4.3896 -2.5253 0.9397
-14.8358 3.8606 -2.5254 0.9397
-14.9652 3.3265 -2.5255 0.9397
-15.1656 2.2461 -2.5256 0.9397
-15.3297 0.0560 -2.5254 0.9397
-15.3210 -0.4934 -2.5253 0.9397
-15.2925 -1.0421 -2.5251 0.9398
-15.2441 -1.5894 -2.5249 0.9398
-15.1759 -2.1346 -2.5247 0.9398
-15.0881 -2.6768 -2.5244 0.9398
-14.9807 -3.2154 -2.5241 0.9398
-14.8539 -3.7497 -2.5238 0.9398
-14.7079 -4.2791 -2.5234 0.9398
-14.5428 -4.8027 -2.5230 0.9398
-14.3590 -5.3200 -2.5226 0.9398
-13.9359 -6.3325 -2.5217 0.9398
-13.6973 -6.8265 -2.5212 0.9398
-13.4410 -7.3115 -2.5207 0.9399
-12.5696 -8.7058 -2.5189 0.9399
-12.2467 -9.1484 -2.5183 0.9399
-11.1849 -10.4015 -2.5162 0.9400
-10.8019 -10.7927 -2.5155 0.9400
-9.9950 -11.5318 -2.5140 0.9400
-9.1376 -12.2105 -2.5124 0.9400
-7.7666 -13.1078 -2.5099 0.9401
-6.8030 -13.6211 -2.5082 0.9401
-4.6387 -14.0061 -2.4306 0.9419
-4.0834 -13.9911 -2.4010 0.9426
-3.5408 -13.9759 -2.3751 0.9432
-0.4704 -14.2279 -2.3452 0.9439
0.0398 -14.2304 -2.3443 0.9439
2.5751 -13.9898 -2.3434 0.9440
3.7629 -14.5112 -2.4696 0.9410
4.3151 -14.4830 -2.4896 0.9406
4.8298 -14.3144 -2.4887 0.9406
5.3380 -14.1275 -2.4879 0.9406
5.8391 -13.9227 -2.4872 0.9406
6.3323 -13.7003 -2.4864 0.9406
6.8172 -13.4604 -2.4856 0.9407
-11.2360 7.3165 -2.5202 0.9469
-11.4925 6.9101 -2.5205 0.9469
-11.7342 6.4945 -2.5209 0.9469
-11.9608 6.0705 -2.5211 0.9469
-12.5467 4.7529 -2.5218 0.9469
-12.7098 4.3005 -2.5220 0.9469
-12.9865 3.3794 -2.5223 0.9468
-13.2751 1.9661 -2.5224 0.9468
-13.3658 0.5282 -2.5142 0.9470
-13.4114 -0.4319 -2.5221 0.9469
-13.3865 -0.9122 -2.5220 0.9469
-13.2848 -1.8685 -2.5216 0.9469
-13.1142 -2.8148 -2.5211 0.9469
-12.7316 -4.2045 -2.5202 0.9469
-12.2011 -5.5442 -2.5190 0.9469
-11.7683 -6.4016 -2.5181 0.9469
-11.2750 -7.2253 -2.5171 0.9470
-11.0065 -7.6231 -2.5165 0.9470
-10.7239 -8.0109 -2.5160 0.9470
-10.4277 -8.3882 -2.5154 0.9470
-9.7952 -9.1092 -2.5142 0.9470
-9.1129 -9.7824 -2.5129 0.9470
-8.0037 -10.6953 -2.5109 0.9471
-7.6132 -10.9722 -2.5102 0.9471
-7.2129 -11.2348 -2.5094 0.9471
-5.9601 -11.9334 -2.5072 0.9472
-4.6405 -12.4926 -2.5049 0.9472
-4.1885 -12.6469 -2.5041 0.9472
-3.7314 -12.7848 -2.5033 0.9472
-3.2698 -12.9063 -2.5025 0.9473
-2.3354 -13.0990 -2.5009 0.9473
-1.8639 -13.1701 -2.5001 0.9473
-1.3902 -13.2242 -2.4993 0.9473
-0.9151 -13.2612 -2.4985 0.9473
1.4614 -13.1912 -2.4946 0.9474
1.9326 -13.1263 -2.4938 0.9474
2.4011 -13.0446 -2.4931 0.9474
2.8662 -12.9463 -2.4923 0.9475
3.3273 -12.8314 -2.4916 0.9475
4.2354 -12.5527 -2.4901 0.9475
4.6812 -12.3893 -2.4894 0.9475
5.9790 -11.8055 -2.4873 0.9476
-9.9822 6.5001 -2.5179 0.9525
-11.1458 4.2222 -2.5194 0.9524
-11.2906 3.8203 -2.5195 0.9524
-11.4209 3.4134 -2.5197 0.9524
-11.6369 2.5867 -2.5198 0.9524
-11.7926 1.7466 -2.5199 0.9524
-11.8476 1.3228 -2.5199 0.9524
-11.8873 0.8973 -2.5199 0.9524
-11.9138 -0.3837 -2.5196 0.9524
-11.8543 -1.2360 -2.5194 0.9524
-11.8016 -1.6599 -2.5192 0.9524
-11.7336 -2.0817 -2.5190 0.9524
-11.6503 -2.5006 -2.5187 0.9525
-11.5521 -2.9162 -2.5185 0.9525
-11.4389 -3.3280 -2.5182 0.9525
-11.3109 -3.7354 -2.5179 0.9525
-11.1683 -4.1378 -2.5176 0.9525
-11.0113 -4.5348 -2.5172 0.9525
-10.8401 -4.9258 -2.5169 0.9525
-10.6550 -5.3103 -2.5165 0.9525
-10.4561 -5.6878 -2.5160 0.9525
-10.2437 -6.0578 -2.5156 0.9525
-9.5290 -7.1183 -2.5142 0.9525
-9.2659 -7.4537 -2.5137 0.9525
-8.4067 -8.3997 -2.5120 0.9526
-7.1135 -9.5058 -2.5097 0.9526
-6.7666 -9.7521 -2.5090 0.9526
-5.2981 -10.6079 -2.5064 0.9527
-4.5221 -10.9541 -2.5050 0.9527
-2.9072 -11.4751 -2.5022 0.9528
-2.0766 -11.6472 -2.5008 0.9528
-1.6574 -11.7109 -2.5001 0.9528
-1.2362 -11.7594 -2.4994 0.9528
-0.8137 -11.7928 -2.4987 0.9528
-0.3904 -11.8110 -2.4980 0.9528
0.0330 -11.8141 -2.4973 0.9528
0.4563 -11.8020 -2.4966 0.9529
1.7190 -11.6751 -2.4945 0.9529
2.1357 -11.6029 -2.4938 0.9529
2.9598 -11.4140 -2.4925 0.9529
4.1645 -11.0218 -2.4905 0.9530
4.9409 -10.6899 -2.4893 0.9530
5.3195 -10.5034 -2.4887 0.9530
-8.9715 5.8419 -2.5161 0.9570
-9.3688 5.1854 -2.5166 0.9570
-9.7178 4.5017 -2.5171 0.9569
-9.8736 4.1508 -2.5173 0.9569
-10.0167 3.7946 -2.5174 0.9569
-10.1468 3.4333 -2.5175 0.9569
-10.3675 2.6979 -2.5178 0.9569
-10.4578 2.3246 -2.5178 0.9569
-10.5977 1.5696 -2.5179 0.9569
-10.6828 0.8064 -2.5179 0.9569
-10.6870 -0.7283 -2.5175 0.9569
-10.3822 -2.6209 -2.5166 0.9570
-10.2806 -2.9910 -2.5164 0.9570
-10.1657 -3.3572 -2.5161 0.9570
-10.0377 -3.7189 -2.5158 0.9570
-9.2074 -5.4450 -2.5140 0.9570
-8.7908 -6.0885 -2.5132 0.9570
-8.5655 -6.3985 -2.5128 0.9570
-8.3291 -6.7002 -2.5123 0.9570
-8.0821 -6.9930 -2.5118 0.9570
-7.8248 -7.2768 -2.5113 0.9570
-7.5575 -7.5511 -2.5108 0.9571
-7.2804 -7.8154 -2.5103 0.9571
-6.9940 -8.0696 -2.5098 0.9571
-6.6991 -8.3133 -2.5092 0.9571
-6.3954 -8.5461 -2.5087 0.9571
-6.0837 -8.7679 -2.5081 0.9571
-5.1038 -9.3636 -2.5063 0.9571
-3.7098 -9.9871 -2.5039 0.9572
-3.3487 -10.1110 -2.5033 0.9572
-2.9834 -10.2220 -2.5026 0.9572
-1.4906 -10.5327 -2.5001 0.9572
0.4104 -10.6162 -2.4969 0.9573
1.5464 -10.5029 -2.4950 0.9573
2.2937 -10.3602 -2.4938 0.9573
3.0284 -10.1644 -2.4926 0.9574
3.3900 -10.0470 -2.4921 0.9574
3.7470 -9.9167 -2.4915 0.9574
4.0991 -9.7738 -2.4909 0.9574
-8.1386 5.2996 -2.5146 0.9607
-8.3242 5.0050 -2.5149 0.9607
-8.4989 4.7039 -2.5151 0.9607
-8.6628 4.3967 -2.5153 0.9607
-8.9567 3.7653 -2.5156 0.9606
-9.0864 3.4421 -2.5158 0.9606
-9.4864 2.1087 -2.5162 0.9606
-9.5561 1.7674 -2.5162 0.9606
-9.6905 0.7315 -2.5162 0.9606
-9.6944 -0.6607 -2.5159 0.9606
-9.6212 -1.3533 -2.5156 0.9606
-9.4982 -2.0387 -2.5153 0.9607
-9.3261 -2.7133 -2.5148 0.9607
-8.8389 -4.0164 -2.5137 0.9607
-8.6881 -4.3300 -2.5134 0.9607
-8.5262 -4.6380 -2.5131 0.9607
-7.9756 -5.5239 -2.5120 0.9607
-7.5570 -6.0790 -2.5111 0.9607
-7.3330 -6.3449 -2.5107 0.9607
-7.0997 -6.6025 -2.5103 0.9607
-6.8572 -6.8514 -2.5098 0.9607
-5.2308 -8.1473 -2.5068 0.9608
-4.9344 -8.3278 -2.5063 0.9608
-4.6317 -8.4975 -2.5058 0.9608
-4.3233 -8.6561 -2.5052 0.9608
-3.3670 -9.0641 -2.5035 0.9608
-2.7078 -9.2777 -2.5024 0.9609
-1.6952 -9.5082 -2.5006 0.9609
-1.0093 -9.6007 -2.4995 0.9609
0.0270 -9.6469 -2.4978 0.9609
0.3726 -9.6375 -2.4972 0.9609
1.0615 -9.5817 -2.4961 0.9609
1.4039 -9.5354 -2.4955 0.9610
4.3464 -8.5820 -2.4907 0.9610
-7.4399 4.8446 -2.5134 0.9638
-7.9188 4.0190 -2.5140 0.9638
-8.0583 3.7329 -2.5141 0.9638
-8.3060 3.1465 -2.5144 0.9637
-8.4138 2.8469 -2.5145 0.9637
-8.5107 2.5436 -2.5146 0.9637
-8.5967 2.2371 -2.5147 0.9637
-8.6715 1.9275 -2.5148 0.9637
-8.7875 1.3015 -2.5148 0.9637
-8.8581 0.6687 -2.5148 0.9637
-8.8762 0.3508 -2.5148 0.9637
-8.8780 -0.2860 -2.5146 0.9637
-8.8340 -0.9211 -2.5144 0.9637
-8.7949 -1.2370 -2.5143 0.9638
-8.7443 -1.5513 -2.5141 0.9638
-8.6095 -2.1734 -2.5138 0.9638
-8.4303 -2.7841 -2.5133 0.9638
-8.3243 -3.0841 -2.5131 0.9638
-8.2076 -3.3801 -2.5128 0.9638
-8.0803 -3.6717 -2.5125 0.9638
-7.9426 -3.9584 -2.5123 0.9638
-7.1048 -5.3074 -2.5106 0.9638
-6.9090 -5.5578 -2.5102 0.9638
-6.7043 -5.8009 -2.5098 0.9638
-6.4911 -6.0365 -2.5094 0.9638
-6.2696 -6.2642 -2.5090 0.9638
-6.0400 -6.4837 -2.5085 0.9638
-5.8027 -6.6949 -2.5081 0.9638
-5.5580 -6.8973 -2.5076 0.9638
-5.3063 -7.0908 -2.5072 0.9639
-5.0478 -7.2750 -2.5067 0.9639
-4.5122 -7.6150 -2.5057 0.9639
-3.9533 -7.9155 -2.5048 0.9639
-2.7794 -8.3923 -2.5027 0.9639
-2.1702 -8.5662 -2.5016 0.9639
-1.8614 -8.6367 -2.5011 0.9639
-1.2375 -8.7441 -2.5001 0.9640
-0.6077 -8.8066 -2.4990 0.9640
0.0247 -8.8237 -2.4979 0.9640
0.6564 -8.7956 -2.4969 0.9640
1.9050 -8.6045 -2.4949 0.9640
3.1125 -8.2375 -2.4929 0.9641
3.4051 -8.1192 -2.4924 0.9641
3.6932 -7.9905 -2.4920 0.9641
-7.0006 4.2092 -2.5125 0.9664
-7.2852 3.6974 -2.5128 0.9664
-7.4135 3.4342 -2.5130 0.9664
-7.5322 3.1665 -2.5131 0.9664
-7.7404 2.6190 -2.5134 0.9664
-8.0360 1.4863 -2.5136 0.9664
-8.0841 1.1973 -2.5136 0.9664
-8.1490 0.6151 -2.5136 0.9664
-8.1658 0.3227 -2.5136 0.9664
-8.1719 0.0298 -2.5135 0.9664
-8.1525 -0.5556 -2.5134 0.9664
-8.0910 -1.1380 -2.5131 0.9664
-8.0446 -1.4272 -2.5130 0.9664
-7.9878 -1.7145 -2.5128 0.9664
-7.9207 -1.9995 -2.5126 0.9664
-7.8433 -2.2819 -2.5125 0.9664
-7.6584 -2.8374 -2.5120 0.9664
-7.4340 -3.3780 -2.5115 0.9664
-7.3074 -3.6419 -2.5113 0.9664
-6.5370 -4.8833 -2.5097 0.9664
-6.1687 -5.3375 -2.5090 0.9664
-5.9726 -5.5543 -2.5086 0.9664
-5.5576 -5.9660 -2.5078 0.9665
-5.3394 -6.1603 -2.5074 0.9665
-5.1143 -6.3467 -2.5070 0.9665
-4.8828 -6.5248 -2.5066 0.9665
-4.4013 -6.8554 -2.5057 0.9665
-3.8975 -7.1505 -2.5048 0.9665
-3.3741 -7.4086 -2.5039 0.9665
-2.8335 -7.6283 -2.5030 0.9665
-2.5578 -7.7235 -2.5025 0.9665
-2.2791 -7.8087 -2.5020 0.9665
-1.9974 -7.8839 -2.5015 0.9665
-1.7132 -7.9488 -2.5010 0.9665
-1.4269 -8.0036 -2.5005 0.9665
-0.5593 -8.1057 -2.4991 0.9666
-0.2684 -8.1190 -2.4986 0.9666
0.0227 -8.1218 -2.4981 0.9666
0.3137 -8.1142 -2.4976 0.9666
0.8938 -8.0678 -2.4967 0.9666
1.1822 -8.0291 -2.4962 0.9666
2.3156 -7.7720 -2.4943 0.9666
2.5922 -7.6826 -2.4939 0.9666
3.1348 -7.4746 -2.4930 0.9666
-6.4753 3.8934 -2.5115 0.9687
-6.6111 3.6591 -2.5117 0.9687
-6.8571 3.1765 -2.5120 0.9686
-7.0677 2.6774 -2.5123 0.9686
-7.2418 2.1644 -2.5124 0.9686
-7.3149 1.9035 -2.5125 0.9686
-7.3786 1.6402 -2.5126 0.9686
-7.4772 1.1074 -2.5126 0.9686
-7.5121 0.8387 -2.5126 0.9686
-7.5373 0.5689 -2.5126 0.9686
-7.5585 0.0276 -2.5125 0.9686
-7.5544 -0.2433 -2.5124 0.9686
-7.5406 -0.5139 -2.5123 0.9686
-7.5170 -0.7838 -2.5122 0.9686
-7.2548 -2.1107 -2.5115 0.9687
-6.8764 -3.1246 -2.5107 0.9687
-6.7593 -3.3687 -2.5104 0.9687
-6.0470 -4.5172 -2.5090 0.9687
-5.7064 -4.9375 -2.5083 0.9687
-5.3366 -5.3321 -2.5076 0.9687
-4.7313 -5.8714 -2.5065 0.9687
-4.5171 -6.0363 -2.5061 0.9687
-4.0719 -6.3423 -2.5053 0.9687
-3.8413 -6.4831 -2.5049 0.9687
-3.6059 -6.6154 -2.5045 0.9687
-3.3659 -6.7393 -2.5040 0.9687
-2.8735 -6.9607 -2.5032 0.9688
-2.6217 -7.0580 -2.5027 0.9688
-2.3667 -7.1461 -2.5023 0.9688
-1.3203 -7.4057 -2.5005 0.9688
-0.7860 -7.4785 -2.4996 0.9688
-0.2484 -7.5129 -2.4987 0.9688
0.0210 -7.5156 -2.4982 0.9688
0.2903 -7.5087 -2.4978 0.9688
0.5591 -7.4921 -2.4973 0.9688
0.8271 -7.4660 -2.4969 0.9688
1.0940 -7.4303 -2.4965 0.9688
2.1430 -7.1927 -2.4948 0.9689
2.3990 -7.1101 -2.4943 0.9689
2.9012 -6.9178 -2.4935 0.9689
3.1468 -6.8083 -2.4931 0.9689
3.3883 -6.6901 -2.4928 0.9689
-5.8831 3.8309 -2.5105 0.9706
-6.2615 3.1779 -2.5110 0.9706
-6.5673 2.4878 -2.5114 0.9706
-6.7291 2.0111 -2.5116 0.9706
-6.7970 1.7687 -2.5116 0.9706
-6.8562 1.5240 -2.5117 0.9706
-6.9478 1.0290 -2.5117 0.9706
-6.9803 0.7793 -2.5117 0.9706
-7.0036 0.5287 -2.5117 0.9706
-7.0233 0.0256 -2.5116 0.9706
-7.0195 -0.2261 -2.5115 0.9706
-7.0067 -0.4775 -2.5115 0.9706
-6.9540 -0.9781 -2.5113 0.9706
-6.9141 -1.2266 -2.5111 0.9706
-6.8653 -1.4736 -2.5110 0.9706
-6.8077 -1.7186 -2.5109 0.9706
-6.7413 -1.9613 -2.5107 0.9706
-6.6662 -2.2015 -2.5105 0.9706
-6.3898 -2.9036 -2.5099 0.9706
-6.2811 -3.1304 -2.5097 0.9706
-6.0396 -3.5716 -2.5092 0.9706
-5.7669 -3.9942 -2.5086 0.9706
-5.4647 -4.3960 -2.5080 0.9706
-5.3030 -4.5884 -2.5077 0.9706
-4.5905 -5.2963 -2.5064 0.9707
-4.3971 -5.4566 -2.5060 0.9707
-4.1981 -5.6099 -2.5057 0.9707
-3.7843 -5.8944 -2.5049 0.9707
-1.4734 -6.8364 -2.5009 0.9707
-1.2273 -6.8837 -2.5004 0.9707
-0.9796 -6.9221 -2.5000 0.9707
-0.4811 -6.9721 -2.4992 0.9707
-0.2309 -6.9837 -2.4988 0.9708
0.0196 -6.9863 -2.4984 0.9708
1.5090 -6.8158 -2.4964 0.9708
1.9923 -6.6868 -2.4951 0.9708
2.2303 -6.6100 -2.4947 0.9708
2.6973 -6.4314 -2.4940 0.9708
2.9256 -6.3297 -2.4936 0.9708
3.1501 -6.2199 -2.4933 0.9708
-5.4883 3.5738 -2.5098 0.9723
-5.6133 3.3750 -2.5100 0.9723
-5.9441 2.7535 -2.5104 0.9723
-6.0392 2.5388 -2.5105 0.9723
-6.1265 2.3208 -2.5106 0.9723
-6.3959 1.4217 -2.5109 0.9723
-6.4429 1.1916 -2.5109 0.9723
-6.5469 0.2587 -2.5109 0.9723
-6.5484 -0.2109 -2.5108 0.9723
-6.5160 -0.6794 -2.5106 0.9723
-6.4873 -0.9125 -2.5105 0.9723
-6.4501 -1.1443 -2.5104 0.9723
-6.3509 -1.6032 -2.5101 0.9723
-6.2890 -1.8297 -2.5100 0.9723
-6.2189 -2.0538 -2.5098 0.9723
-6.1409 -2.2752 -2.5096 0.9723
-6.0550 -2.4936 -2.5094 0.9723
-5.6345 -3.3321 -2.5086 0.9723
-5.3803 -3.7264 -2.5080 0.9724
-5.2427 -3.9164 -2.5078 0.9724
-4.7904 -4.4549 -2.5069 0.9724
-4.6271 -4.6232 -2.5066 0.9724
-4.2829 -4.9415 -2.5060 0.9724
-3.7263 -5.3705 -2.5049 0.9724
-3.5309 -5.4997 -2.5046 0.9724
-3.3311 -5.6220 -2.5042 0.9724
-3.1270 -5.7369 -2.5039 0.9724
-2.9190 -5.8445 -2.5035 0.9724
-2.7072 -5.9444 -2.5031 0.9724
-2.4921 -6.0367 -2.5027 0.9724
-2.2738 -6.1212 -2.5024 0.9724
-2.0526 -6.1978 -2.5020 0.9724
-1.8289 -6.2664 -2.5016 0.9724
-1.3749 -6.3793 -2.5008 0.9724
-1.1452 -6.4235 -2.5004 0.9724
0.0183 -6.5197 -2.4985 0.9725
0.4851 -6.4996 -2.4977 0.9725
0.9491 -6.4462 -2.4969 0.9725
1.8606 -6.2449 -2.4971 0.9725
2.0827 -6.1725 -2.4964 0.9725
2.3019 -6.0923 -2.4958 0.9725
2.5182 -6.0044 -2.4952 0.9725
2.7312 -5.9090 -2.4946 0.9725
-5.1376 3.3454 -2.5092 0.9739
-5.5642 2.5775 -2.5097 0.9738
-5.7349 2.1725 -2.5099 0.9738
-5.8093 1.9656 -2.5100 0.9738
-6.0310 1.1154 -2.5102 0.9738
-6.0954 0.6805 -2.5102 0.9738
-6.1284 0.2421 -2.5102 0.9738
-6.1330 0.0224 -2.5101 0.9738
-6.1186 -0.4170 -2.5100 0.9738
-6.0995 -0.6360 -2.5099 0.9738
-6.0378 -1.0712 -2.5097 0.9738
-5.9953 -1.2868 -2.5096 0.9738
-5.9450 -1.5008 -2.5095 0.9738
-5.8871 -1.7128 -2.5093 0.9738
-5.8216 -1.9225 -2.5092 0.9739
-5.6681 -2.3343 -2.5088 0.9739
-5.5804 -2.5357 -2.5086 0.9739
-5.4855 -2.7339 -2.5084 0.9739
-5.1590 -3.3060 -2.5078 0.9739
-5.0367 -3.4884 -2.5075 0.9739
-4.9079 -3.6663 -2.5073 0.9739
-4.7729 -3.8394 -2.5070 0.9739
-4.6317 -4.0076 -2.5067 0.9739
-4.4846 -4.1706 -2.5065 0.9739
-4.3318 -4.3281 -2.5062 0.9739
-4.1734 -4.4801 -2.5059 0.9739
-4.0096 -4.6262 -2.5056 0.9739
-3.6671 -4.9003 -2.5049 0.9739
-3.1187 -5.2635 -2.5039 0.9739
-2.9276 -5.3712 -2.5036 0.9739
-1.9218 -5.8029 -2.5018 0.9739
-1.7124 -5.8672 -2.5015 0.9739
-1.5008 -5.9240 -2.5011 0.9739
-1.2873 -5.9731 -2.5007 0.9739
-0.8559 -6.0482 -2.5000 0.9739
-0.4204 -6.0921 -2.4993 0.9740
-0.2017 -6.1024 -2.4989 0.9740
0.0171 -6.1048 -2.4986 0.9740
0.6719 -6.0651 -2.4975 0.9740
1.3207 -5.9653 -2.5006 0.9739
2.1572 -5.7093 -2.4979 0.9740
2.3599 -5.6271 -2.4973 0.9740
2.5595 -5.5377 -2.4968 0.9740
2.7558 -5.4413 -2.4963 0.9740
-5.1337 2.6055 -2.5090 0.9752
-5.2240 2.4200 -2.5091 0.9752
-5.3076 2.2313 -2.5092 0.9752
-5.3844 2.0397 -2.5093 0.9752
-5.4542 1.8454 -2.5094 0.9752
-5.6211 1.2495 -2.5095 0.9752
-5.7420 0.4334 -2.5096 0.9752
-5.7581 0.0210 -2.5095 0.9752
-5.7550 -0.1854 -2.5095 0.9752
-5.7446 -0.3915 -2.5094 0.9752
-5.6688 -1.0057 -2.5091 0.9752
-5.4658 -1.8051 -2.5086 0.9752
-5.3972 -1.9997 -2.5085 0.9752
-5.2394 -2.3808 -2.5081 0.9752
-5.0546 -2.7496 -2.5077 0.9752
-4.9524 -2.9287 -2.5075 0.9752
-4.8438 -3.1041 -2.5073 0.9752
-4.6082 -3.4424 -2.5068 0.9752
-4.4814 -3.6050 -2.5066 0.9752
-4.3489 -3.7629 -2.5063 0.9752
-4.2108 -3.9159 -2.5061 0.9752
-3.9186 -4.2066 -2.5055 0.9752
-2.9284 -4.9424 -2.5037 0.9752
-1.9991 -5.3818 -2.5021 0.9753
-1.8047 -5.4492 -2.5017 0.9753
-1.6080 -5.5097 -2.5014 0.9753
-1.2089 -5.6092 -2.5007 0.9753
-1.0070 -5.6482 -2.5004 0.9753
-0.8038 -5.6798 -2.5000 0.9753
-0.5996 -5.7042 -2.4997 0.9753
-0.1895 -5.7309 -2.4990 0.9753
0.6311 -5.6961 -2.4976 0.9753
0.8347 -5.6690 -2.4973 0.9753
1.2411 -5.6060 -2.5023 0.9753
1.4408 -5.5564 -2.5017 0.9753
2.4056 -5.2046 -2.4988 0.9753
-4.5406 2.9567 -2.5081 0.9764
-4.6439 2.7922 -2.5083 0.9764
-4.8325 2.4526 -2.5085 0.9764
-4.9175 2.2780 -2.5086 0.9764
-5.0684 1.9200 -2.5088 0.9764
-5.1341 1.7372 -2.5088 0.9764
-5.3300 0.9858 -2.5090 0.9764
-5.3619 0.7941 -2.5090 0.9764
-5.3869 0.6015 -2.5090 0.9764
-5.4161 0.2140 -2.5090 0.9764
-5.4074 -0.3685 -2.5088 0.9764
-5.3906 -0.5621 -2.5088 0.9764
-5.3668 -0.7549 -2.5087 0.9764
-5.1451 -1.6992 -2.5081 0.9764
-5.0096 -2.0631 -2.5078 0.9764
-4.5598 -2.9220 -2.5069 0.9764
-4.4518 -3.0833 -2.5066 0.9764
-4.3380 -3.2406 -2.5064 0.9764
-4.2187 -3.3937 -2.5062 0.9764
-3.9640 -3.6864 -2.5057 0.9764
-3.6889 -3.9601 -2.5052 0.9764
-2.5881 -4.7483 -2.5032 0.9764
-2.0628 -4.9968 -2.5023 0.9765
-1.8821 -5.0668 -2.5019 0.9765
-1.6991 -5.1304 -2.5016 0.9765
-1.3269 -5.2376 -2.5010 0.9765
-1.1382 -5.2811 -2.5007 0.9765
-0.9481 -5.3178 -2.5003 0.9765
-0.7568 -5.3477 -2.5000 0.9765
-0.5646 -5.3706 -2.4997 0.9765
-0.3717 -5.3867 -2.4994 0.9765
-0.1784 -5.3959 -2.4990 0.9765
0.0151 -5.3981 -2.4987 0.9765
0.2085 -5.3934 -2.4984 0.9765
0.7859 -5.3379 -2.4974 0.9765
1.1681 -5.2761 -2.5013 0.9765
1.3575 -5.2349 -2.5033 0.9764
1.9102 -5.0555 -2.5016 0.9765
2.2665 -4.9037 -2.5006 0.9765
2.4404 -4.8185 -2.5002 0.9765
-4.2840 2.7896 -2.5077 0.9775
-4.7818 1.8115 -2.5083 0.9775
-4.8438 1.6389 -2.5083 0.9775
-5.0286 0.9301 -2.5085 0.9775
-5.0994 0.3849 -2.5085 0.9775
-5.1110 -0.1646 -2.5084 0.9775
-5.1017 -0.3477 -2.5083 0.9775
-5.0859 -0.5303 -2.5083 0.9775
-5.0345 -0.8932 -2.5081 0.9775
-4.9990 -1.0730 -2.5080 0.9775
-4.8543 -1.6031 -2.5076 0.9775
-4.5743 -2.2798 -2.5070 0.9775
-4.3022 -2.7569 -2.5065 0.9775
-4.2003 -2.9091 -2.5063 0.9775
-3.9805 -3.2020 -2.5058 0.9775
-3.8628 -3.3423 -2.5056 0.9775
-3.7402 -3.4783 -2.5054 0.9775
-3.6128 -3.6097 -2.5051 0.9775
-3.4808 -3.7365 -2.5049 0.9775
-3.2034 -3.9754 -2.5044 0.9775
-3.0586 -4.0873 -2.5041 0.9775
-2.9099 -4.1938 -2.5038 0.9775
-2.7574 -4.2949 -2.5036 0.9775
-2.6014 -4.3905 -2.5033 0.9775
-2.4421 -4.4804 -2.5030 0.9775
-2.1144 -4.6427 -2.5024 0.9775
-1.9464 -4.7150 -2.5021 0.9775
-1.4286 -4.8949 -2.5012 0.9775
-1.2521 -4.9424 -2.5009 0.9775
-1.0741 -4.9834 -2.5006 0.9775
-0.7141 -5.0463 -2.5000 0.9775
-0.3507 -5.0833 -2.4994 0.9776
-0.1683 -5.0920 -2.4991 0.9776
0.0143 -5.0941 -2.4988 0.9776
0.3790 -5.0788 -2.4982 0.9776
0.5607 -5.0613 -2.4979 0.9776
0.7417 -5.0374 -2.4976 0.9776
1.2818 -4.9431 -2.5049 0.9775
1.4577 -4.8926 -2.5042 0.9775
1.6318 -4.8362 -2.5036 0.9775
2.1402 -4.6305 -2.5022 0.9775
-4.0500 2.6372 -2.5072 0.9785
-4.2289 2.3405 -2.5075 0.9785
-4.3102 2.1876 -2.5076 0.9785
-4.4562 1.8733 -2.5077 0.9785
-4.5206 1.7125 -2.5078 0.9785
-4.5792 1.5494 -2.5079 0.9785
-4.7192 1.0490 -2.5080 0.9785
-4.7538 0.8792 -2.5080 0.9785
-4.7823 0.7082 -2.5080 0.9785
-4.8046 0.5364 -2.5080 0.9785
-4.8207 0.3639 -2.5080 0.9785
-4.8306 0.1909 -2.5080 0.9785
-4.8343 0.0177 -2.5080 0.9785
-4.8318 -0.1556 -2.5079 0.9785
-4.8080 -0.5013 -2.5078 0.9785
-4.7868 -0.6733 -2.5077 0.9785
-4.6864 -1.1830 -2.5075 0.9785
-4.6407 -1.3502 -2.5073 0.9785
-4.5892 -1.5156 -2.5072 0.9785
-4.4683 -1.8402 -2.5069 0.9785
-4.3992 -1.9990 -2.5068 0.9785
-4.3245 -2.1553 -2.5066 0.9785
-4.2442 -2.3087 -2.5065 0.9785
-4.1584 -2.4592 -2.5063 0.9785
-3.9710 -2.7503 -2.5059 0.9785
-3.8696 -2.8906 -2.5057 0.9785
-3.5361 -3.2884 -2.5051 0.9785
-3.4156 -3.4127 -2.5049 0.9785
-3.2908 -3.5326 -2.5046 0.9785
-3.1618 -3.6479 -2.5044 0.9785
-2.8918 -3.8643 -2.5039 0.9785
-2.3089 -4.2361 -2.5028 0.9785
-1.9992 -4.3896 -2.5023 0.9785
-1.8403 -4.4579 -2.5020 0.9785
-1.6792 -4.5205 -2.5017 0.9785
-1.5159 -4.5773 -2.5014 0.9785
-1.3508 -4.6282 -2.5012 0.9785
-1.1839 -4.6730 -2.5009 0.9785
-0.6753 -4.7715 -2.5000 0.9785
-0.1592 -4.8147 -2.4991 0.9785
0.0135 -4.8168 -2.4988 0.9785
0.1861 -4.8127 -2.4986 0.9785
0.7013 -4.7633 -2.4977 0.9785
0.8715 -4.7345 -2.4974 0.9785
1.2107 -4.6687 -2.5021 0.9785
1.3791 -4.6287 -2.5056 0.9785
1.5438 -4.5754 -2.5051 0.9785
1.7064 -4.5162 -2.5046 0.9785
2.0249 -4.3809 -2.5037 0.9785
2.1802 -4.3048 -2.5033 0.9785
-4.1537 1.9241 -2.5073 0.9793
-4.2201 1.7741 -2.5073 0.9793
-4.4692 0.9934 -2.5076 0.9793
-4.5020 0.8327 -2.5076 0.9793
-4.5501 0.5080 -2.5076 0.9793
-4.5654 0.3446 -2.5076 0.9793
-4.5748 0.1808 -2.5076 0.9793
-4.5675 -0.3113 -2.5074 0.9793
-4.5073 -0.7997 -2.5072 0.9793
-4.4756 -0.9606 -2.5072 0.9793
-4.3461 -1.4353 -2.5068 0.9793
-4.2917 -1.5901 -2.5067 0.9793
-4.2317 -1.7428 -2.5066 0.9793
-4.1663 -1.8932 -2.5064 0.9793
-4.0195 -2.1865 -2.5061 0.9793
-3.9383 -2.3290 -2.5060 0.9793
-3.8520 -2.4685 -2.5058 0.9794
-3.4587 -2.9927 -2.5050 0.9794
-2.9945 -3.4549 -2.5041 0.9794
-2.8685 -3.5597 -2.5039 0.9794
-2.6057 -3.7553 -2.5034 0.9794
-2.4692 -3.8460 -2.5032 0.9794
-2.3295 -3.9316 -2.5029 0.9794
-2.1869 -4.0121 -2.5027 0.9794
-2.0415 -4.0875 -2.5024 0.9794
-1.8935 -4.1576 -2.5022 0.9794
-1.5905 -4.2816 -2.5016 0.9794
-1.4358 -4.3354 -2.5014 0.9794
-0.9619 -4.4630 -2.5005 0.9794
-0.6396 -4.5195 -2.5000 0.9794
-0.4772 -4.5390 -2.4997 0.9794
0.0128 -4.5625 -2.4989 0.9794
0.1763 -4.5587 -2.4986 0.9794
0.6643 -4.5119 -2.4978 0.9794
0.9857 -4.4524 -2.4976 0.9794
1.3062 -4.3839 -2.5054 0.9794
1.4630 -4.3360 -2.5064 0.9793
1.6172 -4.2800 -2.5059 0.9793
1.7692 -4.2186 -2.5055 0.9794
-3.9398 1.8251 -2.5069 0.9801
-4.0607 1.5383 -2.5070 0.9801
-4.1606 1.2435 -2.5071 0.9801
-4.2391 0.9423 -2.5072 0.9801
-4.2702 0.7898 -2.5072 0.9801
-4.2957 0.6362 -2.5072 0.9801
-4.3392 0.1715 -2.5072 0.9801
-4.3425 0.0158 -2.5071 0.9801
-4.3402 -0.1398 -2.5071 0.9801
-4.3188 -0.4503 -2.5070 0.9801
-4.2998 -0.6048 -2.5069 0.9801
-4.2753 -0.7585 -2.5069 0.9801
-4.1224 -1.3614 -2.5065 0.9801
-4.0139 -1.6530 -2.5062 0.9801
-3.8847 -1.9361 -2.5060 0.9802
-3.8126 -2.0739 -2.5058 0.9802
-3.7356 -2.2091 -2.5056 0.9802
-3.6538 -2.3414 -2.5055 0.9802
-3.5673 -2.4707 -2.5053 0.9802
-3.4762 -2.5968 -2.5051 0.9802
-3.0685 -3.0659 -2.5044 0.9802
-2.9564 -3.1737 -2.5041 0.9802
-2.4717 -3.5622 -2.5032 0.9802
-2.3422 -3.6482 -2.5030 0.9802
-2.2098 -3.7295 -2.5028 0.9802
-1.6535 -4.0054 -2.5018 0.9802
-1.5087 -4.0616 -2.5015 0.9802
-1.2137 -4.1584 -2.5010 0.9802
-0.9125 -4.2338 -2.5005 0.9802
-0.7601 -4.2633 -2.5003 0.9802
-0.4526 -4.3060 -2.4997 0.9802
-0.1430 -4.3264 -2.4992 0.9802
0.0121 -4.3283 -2.4990 0.9802
0.1672 -4.3246 -2.4987 0.9802
0.3221 -4.3154 -2.4984 0.9802
0.4765 -4.3007 -2.4982 0.9802
0.9350 -4.2235 -2.4974 0.9802
1.2377 -4.1540 -2.5025 0.9802
1.5349 -4.0622 -2.5071 0.9801
1.8213 -3.9405 -2.5063 0.9801
