ply
format ascii 1.0
element vertex 1171
property float32 x
property float32 y
property float32 z
property float32 I
end_header
19.4476 -35.2085 7.0923 0.8493
20.9744 -32.2717 6.7866 0.8553
22.6462 -32.2527 6.9489 0.8521
23.0273 -30.4168 6.7269 0.8565
23.3740 -28.6784 6.5236 0.8605
23.0281 -26.2726 6.1602 0.8677
23.1526 -24.5791 5.9539 0.8718
23.3251 -23.0487 5.7821 0.8753
22.8059 -20.9747 5.4634 0.8817
24.4354 -19.4355 5.5053 0.8809
31.7656 -10.2993 5.8882 0.8732
33.6982 -4.5544 5.9959 0.8710
33.3883 2.7001 5.9065 0.8728
32.0581 8.5244 5.8491 0.8739
22.3683 10.5055 4.3575 0.9045
22.2003 11.4148 4.4017 0.9036
22.0737 12.3692 4.4616 0.9023
21.9941 18.1508 5.0282 0.8906
21.8714 22.4061 5.5210 0.8806
2.3955 11.8230 2.1271 0.9522
22.5953 -37.6523 6.7270 0.8372
23.4454 -36.0736 6.5909 0.8402
23.0933 -32.8894 6.1565 0.8499
23.4914 -31.0298 5.9622 0.8543
16.7915 -20.6021 4.0716 0.8980
18.0693 -20.6151 4.1995 0.8950
23.3297 -23.0531 5.0245 0.8757
23.4769 -21.5920 4.8863 0.8789
25.5570 -18.8731 4.8670 0.8794
29.3621 -18.5892 5.3238 0.8688
34.2242 -16.8238 5.8422 0.8570
34.1595 -15.2977 5.7338 0.8595
34.0971 -13.8252 5.6365 0.8617
33.9206 -9.6693 5.4034 0.8670
33.8646 -8.3538 5.3434 0.8684
33.8098 -7.0656 5.2914 0.8696
33.7559 -5.8006 5.2470 0.8706
33.7028 -4.5550 5.2100 0.8714
33.6504 -3.3253 5.1802 0.8721
33.5984 -2.1080 5.1572 0.8726
33.5468 -0.9000 5.1410 0.8730
33.3928 2.7005 5.1323 0.8732
33.3413 3.9031 5.1426 0.8730
33.2894 5.1121 5.1595 0.8726
33.2371 6.3305 5.1833 0.8720
27.7126 8.4430 4.4381 0.8894
23.1483 8.9094 3.7998 0.9045
22.6317 9.6552 3.7694 0.9052
22.0568 13.4202 3.9553 0.9008
22.0821 14.5446 4.0507 0.8985
22.0683 15.6974 4.1488 0.8962
22.0340 16.8939 4.2535 0.8937
21.9979 18.1539 4.3693 0.8910
21.9596 19.4863 4.4976 0.8880
21.9190 20.9012 4.6398 0.8847
21.8756 22.4103 4.7976 0.8810
21.6651 29.7161 5.6338 0.8617
23.6933 -39.4827 5.9962 0.8305
23.4506 -26.7546 4.6329 0.8663
23.3342 -23.0576 4.2718 0.8761
23.4807 -21.5954 4.1542 0.8793
25.5584 -18.8741 4.1374 0.8797
27.2969 -18.6845 4.3076 0.8751
29.3623 -18.5893 4.5255 0.8692
31.8222 -18.5839 4.7988 0.8619
34.2294 -16.8264 4.9668 0.8574
34.1647 -15.2999 4.8747 0.8598
34.0416 -12.4019 4.7179 0.8640
33.8694 -8.3550 4.5427 0.8687
33.7075 -4.5556 4.4293 0.8718
33.5000 0.3021 4.3626 0.8736
33.4487 1.5014 4.3601 0.8737
33.3973 2.7009 4.3632 0.8736
33.3458 3.9036 4.3720 0.8733
33.1888 7.5630 4.4327 0.8717
32.0583 8.5244 4.3197 0.8748
27.7126 8.4430 3.7725 0.8897
24.7045 8.5052 3.4023 0.9000
23.1509 8.9104 3.2303 0.9048
22.6346 9.6564 3.2045 0.9055
22.0802 12.3728 3.2960 0.9029
22.0604 13.4224 3.3627 0.9011
22.0857 14.5470 3.4438 0.8988
22.0016 18.1571 3.7147 0.8913
21.9635 19.4898 3.8238 0.8883
21.8797 22.4145 4.0789 0.8813
21.8333 24.0325 4.2282 0.8772
21.6049 31.9811 5.0259 0.8558
21.5332 34.4767 5.2933 0.8488
21.4532 37.2564 5.5984 0.8408
23.7304 -42.9622 5.2703 0.8208
23.4406 -36.0662 4.6189 0.8411
23.4777 -28.8057 3.9905 0.8611
23.2917 -26.5734 3.7945 0.8675
23.3387 -23.0621 3.5233 0.8763
22.7248 -20.9002 3.3154 0.8832
23.7969 -20.3616 3.3631 0.8816
27.2970 -18.6846 3.5521 0.8754
31.8220 -18.5838 3.9571 0.8622
34.2347 -16.8290 4.0963 0.8577
34.8734 -14.1400 4.0409 0.8595
35.3852 -12.8914 4.0440 0.8594
36.9532 -7.7225 4.0538 0.8591
37.4404 -5.0601 4.0570 0.8590
37.6082 -3.7164 4.0581 0.8590
37.7249 -2.3670 4.0589 0.8589
37.7904 -1.0138 4.0595 0.8589
37.8045 0.3409 4.0597 0.8589
37.7673 1.6953 4.0596 0.8589
37.6788 3.0471 4.0592 0.8589
37.5391 4.3945 4.0585 0.8589
37.3485 5.7354 4.0576 0.8590
37.1072 7.0677 4.0563 0.8590
36.8158 8.3895 4.0547 0.8591
32.0585 8.5245 3.5621 0.8751
23.1535 8.9113 2.6641 0.9050
22.2097 11.4196 2.6817 0.9044
22.0834 12.3746 2.7183 0.9032
22.0893 14.5493 2.8403 0.8991
22.0054 18.1602 3.0637 0.8916
21.9674 19.4932 3.1537 0.8886
21.9269 20.9088 3.2535 0.8852
21.8375 24.0372 3.4873 0.8775
21.6746 29.7292 3.9507 0.8624
21.5384 34.4850 4.3660 0.8491
21.3690 40.3916 4.9069 0.8321
21.2672 43.9395 5.2419 0.8217
2.3943 11.8171 1.2947 0.9527
23.5719 -36.2683 3.6617 0.8406
23.5073 -31.0508 3.2968 0.8553
23.2145 -24.6448 2.8661 0.8729
23.3432 -23.0665 2.7781 0.8766
23.4881 -21.6022 2.7014 0.8798
24.4443 -19.4426 2.6440 0.8822
37.6725 -18.5190 3.5536 0.8449
44.8778 -18.1964 4.0994 0.8233
45.5466 -16.5933 4.1036 0.8232
46.1541 -14.9644 4.1073 0.8230
46.6992 -13.3120 4.1107 0.8229
47.1807 -11.6387 4.1137 0.8228
47.5979 -9.9470 4.1163 0.8227
48.2362 -6.5192 4.1205 0.8225
48.6096 -3.0499 4.1230 0.8224
48.6958 -1.3064 4.1237 0.8224
48.7147 0.4393 4.1240 0.8224
48.5511 3.9264 4.1234 0.8224
48.1199 7.3894 4.1212 0.8225
45.5620 8.6780 3.9263 0.8301
26.6504 6.0730 2.3139 0.8961
32.0586 8.5245 2.8081 0.8753
27.7126 8.4430 2.4524 0.8902
22.6403 9.6589 2.0837 0.9059
22.3805 10.5113 2.0931 0.9055
22.2128 11.4212 2.1144 0.9046
22.0675 13.4267 2.1867 0.9015
22.0450 16.9023 2.3516 0.8945
21.9309 20.9125 2.5653 0.8855
21.8879 22.4229 2.6526 0.8818
21.8417 24.0418 2.7497 0.8778
21.7382 27.6759 2.9791 0.8683
21.6149 31.9958 3.2687 0.8564
21.5436 34.4934 3.4427 0.8494
21.4641 37.2756 3.6412 0.8414
21.2734 43.9522 4.1336 0.8220
17.8595 44.8318 4.0852 0.8239
14.1181 44.4684 3.9495 0.8292
12.3487 44.3462 3.8969 0.8313
2.3939 11.8151 1.0205 0.9528
23.7801 -43.0522 3.0499 0.8211
23.5779 -36.2775 2.6830 0.8408
23.4651 -26.7712 2.2075 0.8670
23.3476 -23.0709 2.0354 0.8767
29.3630 -18.5897 2.1550 0.8700
31.8217 -18.5836 2.2851 0.8627
34.5585 -18.5543 2.4323 0.8545
37.6725 -18.5189 2.6031 0.8452
41.2617 -18.4782 2.8035 0.8343
45.0730 -18.2756 3.0160 0.8229
43.6704 -5.9021 2.7326 0.8381
37.6894 8.5886 2.3970 0.8565
22.6432 9.6601 1.5266 0.9061
22.0898 12.3782 1.5702 0.9035
22.0710 13.4288 1.6021 0.9016
22.0825 15.7076 1.6804 0.8971
22.0486 16.9051 1.7229 0.8946
21.9348 20.9163 1.8795 0.8856
21.8460 24.0465 2.0146 0.8779
21.6198 32.0031 2.3949 0.8566
21.5488 34.5017 2.5225 0.8496
21.4696 37.2851 2.6680 0.8416
17.0887 38.7928 2.6286 0.8438
15.3609 38.5597 2.5739 0.8468
9.1793 38.2139 2.4371 0.8543
2.3935 11.8132 0.7474 0.9528
23.7801 -43.0522 1.9393 0.8213
23.7208 -39.5285 1.8178 0.8315
23.5839 -36.2868 1.7065 0.8409
23.5433 -33.5303 1.6155 0.8487
23.5179 -31.0647 1.5363 0.8556
23.4699 -26.7767 1.4040 0.8672
22.7899 -24.1940 1.3106 0.8754
23.4955 -21.6090 1.2587 0.8800
24.4487 -19.4462 1.2318 0.8824
25.5637 -18.8780 1.2531 0.8805
29.3632 -18.5899 1.3704 0.8701
34.5584 -18.5542 1.5467 0.8547
39.9271 -17.8806 1.7250 0.8393
44.0313 -17.8532 1.8735 0.8268
42.8271 8.1571 1.7191 0.8399
37.6896 8.5886 1.5242 0.8566
32.0588 8.5246 1.3080 0.8756
27.7127 8.4430 1.1423 0.8905
23.1611 8.9143 0.9786 0.9054
22.2190 11.4244 0.9852 0.9048
22.0745 13.4309 1.0189 0.9017
22.0861 15.7101 1.0687 0.8972
22.0522 16.9079 1.0957 0.8947
22.0166 18.1694 1.1256 0.8920
21.9388 20.9200 1.1953 0.8857
21.8501 24.0511 1.2813 0.8780
21.7472 27.6874 1.3883 0.8685
21.6248 32.0104 1.5232 0.8567
18.1331 34.2751 1.5290 0.8562
16.5185 34.1282 1.4950 0.8592
14.9761 33.9970 1.4648 0.8618
9.3575 33.6040 1.3755 0.8697
23.5899 -36.2960 0.7312 0.8410
23.5231 -31.0717 0.6583 0.8556
22.7545 -24.1564 0.5606 0.8757
23.8085 -20.3715 0.5293 0.8822
24.4510 -19.4479 0.5278 0.8825
25.5650 -18.8790 0.5368 0.8806
27.2977 -18.6851 0.5588 0.8760
29.3634 -18.5900 0.5870 0.8702
31.8214 -18.5834 0.6225 0.8629
36.4214 -17.9039 0.6855 0.8501
39.9270 -17.8805 0.7390 0.8394
44.0311 -17.8531 0.8026 0.8269
34.1786 -5.8732 0.5858 0.8705
34.1538 -4.6159 0.5822 0.8712
42.8274 8.1572 0.7364 0.8399
35.5842 8.1088 0.6165 0.8642
27.7127 8.4430 0.4894 0.8906
23.1637 8.9153 0.4193 0.9055
22.6489 9.6625 0.4159 0.9062
22.3896 10.5155 0.4178 0.9058
22.0780 13.4331 0.4365 0.9018
22.1035 14.5587 0.4471 0.8995
22.0558 16.9107 0.4695 0.8948
22.0203 18.1724 0.4823 0.8921
21.9826 19.5067 0.4964 0.8891
21.9427 20.9237 0.5122 0.8858
21.9000 22.4354 0.5296 0.8821
17.5183 30.4230 0.5930 0.8690
16.0640 30.3640 0.5803 0.8716
14.6707 30.3106 0.5688 0.8740
12.0383 30.2191 0.5495 0.8780
10.7867 30.1802 0.5414 0.8797
7.2273 30.0873 0.5227 0.8836
2.3927 11.8093 0.2035 0.9529
23.7345 -39.5513 -0.2597 0.8315
23.5543 -33.5461 -0.2308 0.8488
23.5284 -31.0787 -0.2195 0.8556
23.3610 -23.0841 -0.1849 0.8769
24.4532 -19.4496 -0.1759 0.8825
27.2978 -18.6852 -0.1862 0.8761
33.3848 -17.9241 -0.2133 0.8594
30.8066 -5.2938 -0.1760 0.8825
30.6375 8.1466 -0.1785 0.8809
27.7127 8.4430 -0.1631 0.8906
24.7106 8.5073 -0.1471 0.9007
23.1662 8.9163 -0.1398 0.9055
22.6517 9.6637 -0.1387 0.9062
22.2251 11.4275 -0.1407 0.9049
22.0993 12.3835 -0.1426 0.9036
22.0815 13.4352 -0.1455 0.9018
22.0932 15.7151 -0.1526 0.8972
22.0595 16.9134 -0.1565 0.8948
22.0240 18.1755 -0.1608 0.8921
21.9865 19.5102 -0.1655 0.8891
21.9466 20.9275 -0.1707 0.8858
21.8585 24.0603 -0.1830 0.8781
19.8112 27.1732 -0.1893 0.8741
16.9891 27.2012 -0.1806 0.8796
15.5896 27.0737 -0.1759 0.8825
10.8540 27.2463 -0.1651 0.8893
8.6099 27.1190 -0.1602 0.8924
6.5487 27.2626 -0.1579 0.8939
23.5108 -42.5647 -1.3692 0.8232
23.7413 -39.5627 -1.2992 0.8314
23.6019 -36.3145 -1.2196 0.8409
23.5078 -28.8427 -1.0477 0.8617
23.4843 -26.7931 -1.0032 0.8671
23.3655 -23.0885 -0.9249 0.8768
23.8143 -20.3765 -0.8825 0.8821
25.5677 -18.8810 -0.8950 0.8806
27.2980 -18.6853 -0.9315 0.8760
33.3847 -17.9241 -1.0670 0.8593
36.4211 -17.9038 -1.1428 0.8501
39.9267 -17.8804 -1.2318 0.8394
44.0308 -17.8530 -1.3378 0.8269
29.8163 -4.0297 -0.8472 0.8866
42.8282 8.1573 -1.2276 0.8399
35.5847 8.1089 -1.0277 0.8641
30.3646 8.0740 -0.8847 0.8819
22.6546 9.6650 -0.6935 0.9061
22.3956 10.5183 -0.6967 0.9057
22.0850 13.4373 -0.7279 0.9017
22.1106 14.5634 -0.7455 0.8995
22.0631 16.9162 -0.7828 0.8947
22.0277 18.1786 -0.8042 0.8920
17.5773 24.1093 -0.8401 0.8875
16.3510 24.2038 -0.8225 0.8897
15.1709 24.2899 -0.8064 0.8917
14.0319 24.3683 -0.7918 0.8936
10.8200 24.5621 -0.7557 0.8982
7.8368 24.6840 -0.7292 0.9016
2.3919 11.8054 -0.3392 0.9529
22.0333 -39.8898 -2.3111 0.8332
22.4762 -37.4544 -2.2152 0.8395
23.6080 -36.3238 -2.1970 0.8407
23.5653 -33.5617 -2.0797 0.8485
23.5129 -28.8488 -1.8874 0.8615
20.2670 -23.1225 -1.5595 0.8841
21.6691 -23.0042 -1.6027 0.8811
23.5101 -21.6225 -1.6199 0.8799
23.8172 -20.3790 -1.5897 0.8820
25.5690 -18.8820 -1.6120 0.8805
41.1908 -16.7015 -2.2541 0.8369
42.1673 -13.6718 -2.2481 0.8373
42.4434 -12.0988 -2.2382 0.8380
42.9442 -10.5937 -2.2432 0.8377
27.8164 -5.8131 -1.4412 0.8924
40.0842 -3.9611 -2.0427 0.8510
44.0055 -2.7611 -2.2361 0.8381
43.9429 3.5537 -2.2358 0.8381
43.3612 6.6587 -2.2248 0.8389
35.5849 8.1090 -1.8509 0.8640
27.6552 8.4255 -1.4662 0.8907
22.6574 9.6662 -1.2493 0.9061
22.3986 10.5197 -1.2550 0.9056
22.1057 12.3871 -1.2851 0.9035
22.1141 14.5657 -1.3429 0.8994
22.1002 15.7202 -1.3754 0.8971
21.7582 19.3075 -1.4753 0.8900
20.5348 19.5812 -1.4390 0.8926
16.6164 21.1552 -1.3642 0.8979
15.5537 21.3337 -1.3389 0.8997
13.5010 21.6162 -1.2925 0.9030
10.6271 21.9561 -1.2371 0.9069
9.7132 22.0497 -1.2219 0.9080
7.0729 22.2779 -1.1854 0.9106
5.3783 22.3901 -1.1678 0.9119
12.7391 -23.0634 -1.9319 0.8997
16.1505 -23.0017 -2.0608 0.8934
20.4823 -25.1305 -2.3771 0.8781
20.0952 -22.9264 -2.2354 0.8849
22.2356 -20.4503 -2.2151 0.8859
22.9188 -19.6102 -2.2116 0.8861
23.5629 -18.7415 -2.2075 0.8863
24.1685 -17.8477 -2.2029 0.8865
26.7291 -16.9222 -2.3196 0.8808
27.4975 -16.0583 -2.3348 0.8801
28.5019 -14.0109 -2.3287 0.8804
30.0843 -9.7542 -2.3189 0.8809
30.3895 -8.6628 -2.3170 0.8810
27.8201 -5.8139 -2.0839 0.8923
29.8158 -4.0296 -2.2060 0.8863
31.3612 -3.0991 -2.3107 0.8813
31.4891 -0.8448 -2.3097 0.8813
31.4673 1.4124 -2.3096 0.8813
31.2959 3.6636 -2.3103 0.8813
31.1543 4.7841 -2.3111 0.8812
28.8807 6.5812 -2.1719 0.8880
28.6433 7.6163 -2.1732 0.8879
23.1739 8.9192 -1.8207 0.9052
22.6603 9.6674 -1.8064 0.9059
22.4016 10.5212 -1.8147 0.9055
22.2343 11.4323 -1.8331 0.9046
22.1088 12.3889 -1.8582 0.9033
21.3769 15.2056 -1.9235 0.9001
20.4177 15.6547 -1.8865 0.9020
20.3140 16.7643 -1.9312 0.8998
17.3727 17.7973 -1.8236 0.9051
16.4434 18.0996 -1.7930 0.9066
15.5108 18.3536 -1.7619 0.9081
13.7121 18.8077 -1.7066 0.9109
11.9901 19.1973 -1.6596 0.9132
11.1537 19.3699 -1.6389 0.9143
10.3303 19.5262 -1.6197 0.9152
9.5143 19.6571 -1.6012 0.9161
8.7118 19.7764 -1.5845 0.9170
7.9214 19.8846 -1.5694 0.9177
4.8558 20.2150 -1.5244 0.9200
2.3911 11.8015 -0.8829 0.9529
12.9757 -21.6229 -2.4210 0.9036
14.4387 -20.5636 -2.4123 0.9040
15.1398 -19.9982 -2.4081 0.9041
15.8199 -19.4101 -2.4040 0.9043
17.1140 -18.1684 -2.3962 0.9046
19.9358 -14.7220 -2.3792 0.9052
20.8881 -13.2243 -2.3735 0.9054
21.3247 -12.4534 -2.3708 0.9055
22.1166 -10.8721 -2.3660 0.9057
23.3666 -7.5761 -2.3583 0.9060
23.6079 -6.7297 -2.3568 0.9061
24.0036 -5.0163 -2.3542 0.9062
24.1577 -4.1512 -2.3532 0.9062
24.2824 -3.2819 -2.3524 0.9062
24.4433 -1.5337 -2.3513 0.9063
24.3276 2.8479 -2.3515 0.9063
24.2158 3.7186 -2.3521 0.9062
23.9041 5.4472 -2.3537 0.9062
22.1507 7.6259 -2.2491 0.9102
21.5298 8.2864 -2.2148 0.9115
20.7631 9.7516 -2.2023 0.9119
20.5629 10.5729 -2.2198 0.9113
20.5106 11.4932 -2.2572 0.9098
20.2133 12.2985 -2.2715 0.9093
19.5162 12.8545 -2.2436 0.9104
18.0839 13.8653 -2.1877 0.9125
15.8178 15.0833 -2.0983 0.9159
14.2840 15.7227 -2.0394 0.9182
13.5327 16.0129 -2.0128 0.9192
12.7908 16.2846 -1.9880 0.9202
12.0577 16.5385 -1.9650 0.9210
11.3327 16.7754 -1.9436 0.9219
9.2005 17.3906 -1.8888 0.9240
7.1124 17.8539 -1.8451 0.9257
6.4216 17.9672 -1.8318 0.9262
5.7366 18.0688 -1.8200 0.9267
5.0567 18.1593 -1.8097 0.9271
4.2201 17.5685 -1.7346 0.9300
10.5474 -17.5763 -2.4349 0.9207
11.1538 -17.1615 -2.4313 0.9209
11.7445 -16.7266 -2.4277 0.9210
12.8762 -15.7983 -2.4210 0.9212
13.4161 -15.3063 -2.4177 0.9213
13.9378 -14.7966 -2.4146 0.9214
14.9250 -13.7267 -2.4087 0.9216
16.2574 -12.0056 -2.4006 0.9218
16.6602 -11.4038 -2.3982 0.9219
17.0417 -10.7891 -2.3959 0.9220
17.7391 -9.5241 -2.3916 0.9221
18.3470 -8.2163 -2.3879 0.9222
18.6167 -7.5484 -2.3863 0.9223
18.8632 -6.8722 -2.3847 0.9223
19.0862 -6.1883 -2.3834 0.9224
19.4611 -4.8007 -2.3810 0.9224
19.7401 -3.3921 -2.3792 0.9225
19.9221 -1.9687 -2.3780 0.9225
19.9765 -1.2534 -2.3776 0.9225
20.0065 -0.5368 -2.3773 0.9225
20.0120 0.1804 -2.3772 0.9225
19.9930 0.8974 -2.3773 0.9225
19.7894 3.0389 -2.3782 0.9225
19.6728 3.7470 -2.3789 0.9225
19.5321 4.4509 -2.3796 0.9225
19.1744 5.8417 -2.3810 0.9224
18.5269 7.9040 -2.3926 0.9221
17.8806 9.1937 -2.3883 0.9222
17.1051 10.4074 -2.3784 0.9225
16.0301 11.4023 -2.3367 0.9238
15.4366 11.8355 -2.3106 0.9246
14.2479 12.6432 -2.2627 0.9261
13.0945 13.4146 -2.2268 0.9273
11.9114 14.0945 -2.1920 0.9284
11.3166 14.4077 -2.1762 0.9289
10.6909 14.6638 -2.1556 0.9295
10.0605 14.8922 -2.1348 0.9302
9.4344 15.1053 -2.1155 0.9308
8.8122 15.3036 -2.0977 0.9313
8.1936 15.4874 -2.0813 0.9319
7.5783 15.6571 -2.0662 0.9323
6.9695 15.8213 -2.0536 0.9327
6.3655 15.9789 -2.0431 0.9331
5.7630 16.1243 -2.0340 0.9334
5.1616 16.2576 -2.0262 0.9336
4.3692 15.6906 -1.9347 0.9365
3.7931 15.7906 -1.9291 0.9367
2.3733 11.7135 -1.4197 0.9530
8.3521 -15.1209 -2.4476 0.9326
8.8772 -14.7930 -2.4444 0.9327
11.3042 -12.8969 -2.4299 0.9331
12.5830 -11.5727 -2.4223 0.9333
13.7135 -10.1271 -2.4154 0.9334
14.0555 -9.6209 -2.4134 0.9335
14.6851 -8.5760 -2.4096 0.9336
15.2402 -7.4917 -2.4062 0.9337
15.4890 -6.9365 -2.4046 0.9337
15.9280 -5.8029 -2.4019 0.9338
16.1178 -5.2258 -2.4008 0.9338
16.2875 -4.6429 -2.3997 0.9339
16.8296 -1.6631 -2.3962 0.9340
16.8760 -1.0589 -2.3959 0.9340
16.9016 -0.4535 -2.3956 0.9340
16.9064 0.1524 -2.3955 0.9340
16.8903 0.7581 -2.3956 0.9340
16.8534 1.3629 -2.3957 0.9340
16.6148 3.1645 -2.3965 0.9340
16.4952 3.7588 -2.3971 0.9339
16.2158 4.9403 -2.4019 0.9338
15.8679 6.1072 -2.4091 0.9336
15.4397 7.2514 -2.4169 0.9334
15.1958 7.8133 -2.4210 0.9333
14.9324 8.3674 -2.4253 0.9332
14.6273 8.8998 -2.4260 0.9332
14.2894 9.4118 -2.4244 0.9332
13.5369 10.3789 -2.4169 0.9334
11.5801 11.8631 -2.3489 0.9352
8.9705 13.2787 -2.2705 0.9373
8.4429 13.5178 -2.2582 0.9376
7.9132 13.7423 -2.2469 0.9379
5.7389 14.4061 -2.1972 0.9393
5.1956 14.5369 -2.1873 0.9395
4.4499 14.0159 -2.0836 0.9423
3.9330 14.1239 -2.0774 0.9425
2.3582 11.6393 -1.6827 0.9532
7.2028 -13.0401 -2.4541 0.9414
8.5328 -12.1524 -2.4462 0.9416
8.9535 -11.8267 -2.4437 0.9416
9.3622 -11.4868 -2.4412 0.9417
10.1414 -10.7662 -2.4366 0.9418
10.5110 -10.3865 -2.4343 0.9419
10.8669 -9.9944 -2.4322 0.9419
11.2085 -9.5905 -2.4302 0.9420
11.5356 -9.1752 -2.4282 0.9420
11.8478 -8.7492 -2.4263 0.9420
12.1446 -8.3129 -2.4245 0.9421
12.4260 -7.8669 -2.4228 0.9421
12.6914 -7.4117 -2.4212 0.9422
13.9365 -4.5186 -2.4135 0.9423
14.0841 -4.0148 -2.4126 0.9424
14.2141 -3.5064 -2.4118 0.9424
14.4207 -2.4781 -2.4105 0.9424
14.5557 -1.4384 -2.4096 0.9424
14.6062 0.6556 -2.4086 0.9425
14.5741 1.1786 -2.4088 0.9424
14.1690 3.7675 -2.4153 0.9423
14.0419 4.2780 -2.4182 0.9422
13.5554 5.7830 -2.4278 0.9420
13.3586 6.2740 -2.4313 0.9419
13.1446 6.7586 -2.4349 0.9418
12.9136 7.2362 -2.4386 0.9418
12.4017 8.1685 -2.4464 0.9416
11.8244 9.0659 -2.4546 0.9414
11.1214 9.8687 -2.4494 0.9415
10.7541 10.2547 -2.4480 0.9415
10.3718 10.6253 -2.4461 0.9416
9.9184 10.9174 -2.4299 0.9420
9.4791 11.2163 -2.4193 0.9422
9.0159 11.4785 -2.4045 0.9425
8.0812 11.9622 -2.3782 0.9432
7.1363 12.3931 -2.3559 0.9437
6.1741 12.7560 -2.3346 0.9442
4.7065 13.1684 -2.3038 0.9449
3.5963 12.9146 -2.2085 0.9471
2.3511 11.6038 -1.9504 0.9531
6.7255 -11.2075 -2.4568 0.9482
7.8675 -10.3921 -2.4499 0.9483
8.2275 -10.0946 -2.4478 0.9484
8.9143 -9.4636 -2.4437 0.9485
9.2403 -9.1308 -2.4417 0.9485
9.8555 -8.4328 -2.4380 0.9486
10.1441 -8.0685 -2.4363 0.9486
10.4196 -7.6946 -2.4346 0.9486
10.6816 -7.3115 -2.4330 0.9487
11.1644 -6.5199 -2.4301 0.9487
11.3846 -6.1123 -2.4288 0.9488
11.9568 -4.8491 -2.4252 0.9488
12.1185 -4.4150 -2.4242 0.9489
12.2643 -3.9764 -2.4233 0.9489
12.3935 -3.5329 -2.4223 0.9489
12.6072 -2.6347 -2.4208 0.9489
12.7582 -1.7243 -2.4198 0.9490
12.8457 -0.8060 -2.4192 0.9490
12.8691 0.1160 -2.4190 0.9490
12.7841 1.4965 -2.4193 0.9490
12.7319 1.9551 -2.4211 0.9489
12.6653 2.4123 -2.4234 0.9489
12.4848 3.3197 -2.4282 0.9488
12.2418 4.2145 -2.4335 0.9487
11.7615 5.5239 -2.4424 0.9485
11.3656 6.3688 -2.4488 0.9484
10.9109 7.1865 -2.4557 0.9482
10.6619 7.5839 -2.4593 0.9481
10.3988 7.9729 -2.4629 0.9481
10.1219 8.3531 -2.4667 0.9480
9.8313 8.7240 -2.4705 0.9479
8.8631 9.7558 -2.4775 0.9478
8.5076 10.0669 -2.4774 0.9478
7.7536 10.6348 -2.4738 0.9478
6.9147 11.0710 -2.4534 0.9483
6.4937 11.2772 -2.4460 0.9484
6.0628 11.4598 -2.4369 0.9486
5.6293 11.6304 -2.4287 0.9488
4.3038 12.0417 -2.4036 0.9493
3.7173 11.7086 -2.3090 0.9512
5.6337 -10.1995 -2.4630 0.9535
6.3388 -9.7531 -2.4588 0.9536
6.6787 -9.5118 -2.4567 0.9536
7.0096 -9.2589 -2.4547 0.9536
7.3310 -8.9947 -2.4528 0.9537
7.6428 -8.7196 -2.4509 0.9537
7.9444 -8.4339 -2.4491 0.9537
8.5160 -7.8322 -2.4457 0.9538
8.7853 -7.5171 -2.4440 0.9538
9.5237 -6.5189 -2.4395 0.9539
9.7457 -6.1701 -2.4382 0.9539
10.3362 -5.0811 -2.4346 0.9540
10.6646 -4.3242 -2.4325 0.9540
11.2475 -2.3505 -2.4289 0.9541
11.3223 -1.9456 -2.4284 0.9541
11.3828 -1.5384 -2.4280 0.9541
11.4788 -0.3080 -2.4273 0.9541
11.4711 0.5149 -2.4272 0.9541
11.4190 1.3367 -2.4302 0.9541
11.3726 1.7464 -2.4321 0.9540
11.3119 2.1546 -2.4341 0.9540
10.9288 3.7625 -2.4432 0.9538
10.7982 4.1560 -2.4457 0.9538
10.6539 4.5452 -2.4484 0.9537
10.4959 4.9295 -2.4511 0.9537
10.3245 5.3086 -2.4540 0.9536
9.9419 6.0490 -2.4599 0.9535
9.5076 6.7628 -2.4663 0.9534
9.2715 7.1086 -2.4695 0.9534
8.4904 8.0961 -2.4798 0.9532
7.9116 8.7085 -2.4870 0.9530
7.6058 8.9997 -2.4907 0.9530
6.9627 9.5501 -2.4982 0.9528
5.9072 10.2587 -2.5023 0.9528
5.5360 10.4641 -2.5024 0.9528
4.7667 10.8207 -2.4994 0.9528
3.9616 11.0842 -2.4881 0.9530
3.0358 10.9020 -2.3921 0.9548
2.2460 11.0854 -2.3908 0.9548
5.0736 -9.1854 -2.4662 0.9578
5.3952 -8.9906 -2.4643 0.9578
6.0161 -8.5682 -2.4605 0.9579
6.3147 -8.3411 -2.4587 0.9579
6.6048 -8.1037 -2.4570 0.9580
7.9178 -6.7748 -2.4491 0.9581
8.1508 -6.4830 -2.4477 0.9581
8.7855 -5.5621 -2.4438 0.9582
8.9749 -5.2413 -2.4426 0.9582
9.1528 -4.9141 -2.4416 0.9582
9.3191 -4.5811 -2.4405 0.9582
9.7463 -3.5508 -2.4379 0.9583
10.0628 -2.4823 -2.4359 0.9583
10.1432 -2.1197 -2.4354 0.9583
10.2108 -1.7546 -2.4349 0.9583
10.3074 -1.0186 -2.4343 0.9583
10.3364 -0.6485 -2.4341 0.9583
10.3524 -0.2778 -2.4339 0.9583
10.3088 1.2068 -2.4393 0.9582
10.2660 1.5764 -2.4410 0.9582
10.1422 2.3111 -2.4447 0.9582
10.0611 2.6753 -2.4468 0.9581
9.9674 3.0367 -2.4489 0.9581
9.8611 3.3949 -2.4511 0.9581
9.1442 5.1240 -2.4635 0.9578
8.9646 5.4544 -2.4662 0.9578
8.7735 5.7787 -2.4690 0.9578
8.3569 6.4073 -2.4749 0.9577
8.1319 6.7109 -2.4779 0.9576
7.1262 7.8440 -2.4907 0.9574
6.8497 8.1051 -2.4940 0.9573
6.2687 8.5981 -2.5008 0.9572
5.9648 8.8294 -2.5043 0.9572
5.6524 9.0500 -2.5077 0.9571
5.3320 9.2597 -2.5113 0.9570
5.0038 9.4581 -2.5148 0.9570
3.9769 9.9829 -2.5255 0.9568
3.2610 10.2714 -2.5328 0.9567
2.8973 10.4047 -2.5384 0.9566
2.0559 10.1471 -2.4333 0.9584
4.6103 -8.3466 -2.4688 0.9614
4.9029 -8.1703 -2.4671 0.9614
5.4679 -7.7874 -2.4637 0.9614
6.7472 -6.6673 -2.4560 0.9616
7.1994 -6.1601 -2.4533 0.9616
7.4116 -5.8951 -2.4520 0.9616
7.6142 -5.6229 -2.4507 0.9616
7.8071 -5.3439 -2.4496 0.9617
7.9899 -5.0584 -2.4485 0.9617
8.1625 -4.7668 -2.4474 0.9617
8.3247 -4.4695 -2.4464 0.9617
8.4762 -4.1667 -2.4455 0.9617
8.6170 -3.8590 -2.4446 0.9617
8.8657 -3.2299 -2.4431 0.9618
9.0694 -2.5854 -2.4418 0.9618
9.1542 -2.2582 -2.4412 0.9618
9.2275 -1.9284 -2.4408 0.9618
9.3391 -1.2622 -2.4400 0.9618
9.3770 -0.9266 -2.4397 0.9618
9.4344 0.0851 -2.4428 0.9618
9.4301 0.4233 -2.4441 0.9617
9.4141 0.7613 -2.4454 0.9617
9.3469 1.4353 -2.4484 0.9617
9.2329 2.1039 -2.4518 0.9616
9.0724 2.7640 -2.4556 0.9616
8.9749 3.0898 -2.4576 0.9615
8.8660 3.4123 -2.4597 0.9615
8.7458 3.7311 -2.4619 0.9615
8.6144 4.0458 -2.4642 0.9614
8.4720 4.3560 -2.4665 0.9614
8.1545 4.9614 -2.4714 0.9613
7.7946 5.5444 -2.4766 0.9612
7.1786 6.3701 -2.4849 0.9611
5.9637 7.5927 -2.4998 0.9609
5.6949 7.8112 -2.5029 0.9608
5.4182 8.0203 -2.5060 0.9608
5.1338 8.2196 -2.5092 0.9607
4.5435 8.5881 -2.5156 0.9606
3.9269 8.9144 -2.5221 0.9606
3.2869 9.1965 -2.5287 0.9605
2.6262 9.4310 -2.5348 0.9604
2.2773 9.4805 -2.5245 0.9605
1.9274 9.5125 -2.5130 0.9607
4.2204 -7.6407 -2.4711 0.9644
4.7506 -7.3094 -2.4679 0.9644
5.2555 -6.9419 -2.4649 0.9645
5.9598 -6.3270 -2.4606 0.9645
6.3908 -5.8777 -2.4580 0.9645
7.1515 -4.8952 -2.4534 0.9646
7.3193 -4.6338 -2.4524 0.9646
7.7656 -3.8174 -2.4496 0.9647
7.8948 -3.5355 -2.4488 0.9647
8.0140 -3.2494 -2.4481 0.9647
8.2218 -2.6658 -2.4468 0.9647
8.3101 -2.3689 -2.4462 0.9647
8.6287 -0.5414 -2.4475 0.9647
8.6482 0.3882 -2.4507 0.9647
8.6331 0.6981 -2.4519 0.9646
8.4651 1.9290 -2.4578 0.9646
8.1265 3.1277 -2.4651 0.9644
7.8948 3.7078 -2.4692 0.9644
7.7636 3.9918 -2.4713 0.9644
7.6224 4.2713 -2.4735 0.9643
7.4714 4.5458 -2.4758 0.9643
7.3107 4.8152 -2.4782 0.9643
6.9608 5.3369 -2.4831 0.9642
6.5742 5.8337 -2.4882 0.9641
6.1527 6.3030 -2.4935 0.9640
5.9294 6.5266 -2.4963 0.9640
5.6980 6.7423 -2.4990 0.9640
5.2123 7.1492 -2.5047 0.9639
4.9585 7.3398 -2.5076 0.9638
4.6977 7.5215 -2.5105 0.9638
4.1567 7.8569 -2.5163 0.9637
3.8771 8.0102 -2.5193 0.9637
3.3012 8.2869 -2.5253 0.9636
2.7084 8.5306 -2.5337 0.9635
2.3970 8.6081 -2.5296 0.9635
1.7600 8.6868 -2.5091 0.9638
4.3763 -6.7334 -2.4700 0.9670
5.2817 -6.0259 -2.4646 0.9670
5.4914 -5.8297 -2.4633 0.9670
5.6939 -5.6264 -2.4621 0.9671
5.8891 -5.4162 -2.4609 0.9671
6.7458 -4.2708 -2.4557 0.9671
6.8920 -4.0249 -2.4548 0.9672
7.0294 -3.7740 -2.4540 0.9672
7.1578 -3.5186 -2.4532 0.9672
7.3871 -2.9953 -2.4518 0.9672
7.5790 -2.4573 -2.4506 0.9672
7.6601 -2.1836 -2.4499 0.9672
7.7994 -1.6299 -2.4507 0.9672
7.8545 -1.3497 -2.4513 0.9672
7.9353 -0.7842 -2.4526 0.9672
7.9609 -0.4995 -2.4534 0.9672
7.9781 0.3581 -2.4564 0.9671
7.9397 0.9294 -2.4588 0.9671
7.8614 1.4973 -2.4615 0.9671
7.8075 1.7791 -2.4630 0.9670
7.5865 2.6118 -2.4679 0.9670
7.4935 2.8841 -2.4696 0.9670
7.1574 3.6801 -2.4754 0.9669
6.5809 4.6811 -2.4840 0.9668
6.2404 5.1499 -2.4886 0.9667
5.8669 5.5944 -2.4934 0.9666
5.6683 5.8068 -2.4959 0.9666
4.5661 6.7590 -2.5088 0.9664
4.3256 6.9256 -2.5115 0.9664
3.5689 7.3736 -2.5197 0.9663
3.3060 7.5049 -2.5224 0.9663
3.0383 7.6268 -2.5251 0.9662
3.5995 -6.5165 -2.4746 0.9691
4.0525 -6.2352 -2.4719 0.9691
4.2710 -6.0828 -2.4706 0.9692
4.4839 -5.9228 -2.4693 0.9692
4.8917 -5.5809 -2.4669 0.9692
5.2739 -5.2114 -2.4645 0.9692
5.6287 -4.8161 -2.4624 0.9693
5.7952 -4.6094 -2.4614 0.9693
5.9543 -4.3971 -2.4604 0.9693
6.1058 -4.1794 -2.4595 0.9693
6.2494 -3.9565 -2.4586 0.9693
6.3850 -3.7287 -2.4578 0.9693
6.7422 -3.0194 -2.4556 0.9693
6.8439 -2.7750 -2.4548 0.9693
6.9392 -2.5281 -2.4549 0.9693
7.0257 -2.2779 -2.4551 0.9693
7.1725 -1.7693 -2.4556 0.9693
7.2325 -1.5115 -2.4561 0.9693
7.2835 -1.2516 -2.4565 0.9693
7.3961 -0.1985 -2.4594 0.9693
7.4012 0.0667 -2.4603 0.9693
7.3289 1.1254 -2.4647 0.9692
7.2877 1.3880 -2.4660 0.9692
7.0315 2.4208 -2.4720 0.9691
6.6323 3.4101 -2.4790 0.9691
6.3810 3.8824 -2.4828 0.9690
6.2429 4.1119 -2.4849 0.9690
5.9424 4.5561 -2.4890 0.9689
5.7803 4.7703 -2.4912 0.9689
5.2493 5.3776 -2.4980 0.9688
4.6551 5.9266 -2.5051 0.9687
4.4440 6.0955 -2.5075 0.9687
4.2269 6.2569 -2.5100 0.9687
3.0592 6.9447 -2.5225 0.9685
2.8113 7.0569 -2.5250 0.9685
2.5619 7.1680 -2.5303 0.9684
2.3014 7.2489 -2.5281 0.9684
2.0336 7.3029 -2.5199 0.9686
3.3478 -6.0608 -2.4760 0.9710
3.5609 -5.9339 -2.4748 0.9710
3.7694 -5.7996 -2.4735 0.9710
4.1709 -5.5094 -2.4711 0.9711
4.5506 -5.1917 -2.4688 0.9711
4.7316 -5.0232 -2.4677 0.9711
4.9065 -4.8483 -2.4667 0.9711
5.6812 -3.8887 -2.4620 0.9712
5.8150 -3.6815 -2.4612 0.9712
6.3739 -2.5844 -2.4596 0.9712
6.5432 -2.1215 -2.4598 0.9712
6.6156 -1.8858 -2.4600 0.9712
6.8219 -0.9220 -2.4617 0.9712
6.8741 -0.4313 -2.4630 0.9712
6.8873 -0.1848 -2.4638 0.9712
6.8918 0.0621 -2.4647 0.9711
6.8878 0.3092 -2.4656 0.9711
6.8537 0.8023 -2.4677 0.9711
6.6823 1.7768 -2.4726 0.9711
6.6181 2.0162 -2.4741 0.9710
6.5455 2.2534 -2.4755 0.9710
6.4646 2.4881 -2.4771 0.9710
6.3754 2.7199 -2.4787 0.9710
6.1727 3.1738 -2.4821 0.9709
6.0593 3.3954 -2.4839 0.9709
5.9381 3.6129 -2.4857 0.9709
5.5290 4.2391 -2.4915 0.9708
5.2197 4.6318 -2.4955 0.9708
5.0546 4.8199 -2.4976 0.9708
4.8829 5.0022 -2.4998 0.9707
4.7046 5.1784 -2.5020 0.9707
4.5200 5.3484 -2.5042 0.9707
4.3293 5.5118 -2.5064 0.9707
4.1328 5.6685 -2.5087 0.9706
3.7230 5.9608 -2.5132 0.9706
3.2926 6.2236 -2.5179 0.9705
1.8873 6.7774 -2.5159 0.9706
1.3892 6.8562 -2.5016 0.9707
3.3248 -5.5404 -2.4761 0.9727
3.5195 -5.4152 -2.4750 0.9727
4.5821 -4.5278 -2.4686 0.9728
4.7395 -4.3590 -2.4676 0.9728
5.0362 -4.0057 -2.4660 0.9728
5.3080 -3.6333 -2.4650 0.9728
5.5530 -3.2429 -2.4643 0.9728
5.7700 -2.8364 -2.4639 0.9728
6.1839 -1.7628 -2.4642 0.9728
6.2438 -1.5403 -2.4645 0.9728
6.2959 -1.3157 -2.4648 0.9728
6.3401 -1.0895 -2.4653 0.9728
6.3764 -0.8618 -2.4658 0.9728
6.4047 -0.6329 -2.4664 0.9728
6.4250 -0.4031 -2.4670 0.9728
6.4374 0.2889 -2.4694 0.9728
6.4052 0.7498 -2.4713 0.9728
6.3770 0.9792 -2.4724 0.9727
6.3407 1.2077 -2.4735 0.9727
6.2441 1.6603 -2.4760 0.9727
6.1840 1.8840 -2.4773 0.9727
6.1159 2.1055 -2.4787 0.9727
6.0400 2.3247 -2.4802 0.9727
5.9564 2.5411 -2.4817 0.9726
5.7665 2.9650 -2.4848 0.9726
5.6604 3.1718 -2.4865 0.9726
5.2985 3.7689 -2.4918 0.9725
4.5595 4.6708 -2.5014 0.9724
4.3927 4.8352 -2.5034 0.9724
4.2201 4.9935 -2.5055 0.9724
3.8581 5.2918 -2.5097 0.9723
3.4751 5.5640 -2.5139 0.9723
3.2764 5.6899 -2.5161 0.9723
3.0731 5.8086 -2.5183 0.9722
2.6538 6.0243 -2.5227 0.9722
2.4404 6.1259 -2.5270 0.9721
2.2191 6.2088 -2.5267 0.9722
1.9901 6.2681 -2.5202 0.9722
2.9292 -5.3030 -2.4795 0.9742
3.2983 -5.0748 -2.4771 0.9742
3.4765 -4.9512 -2.4760 0.9742
3.6501 -4.8215 -2.4750 0.9742
3.8191 -4.6858 -2.4740 0.9742
3.9830 -4.5442 -2.4731 0.9742
4.1419 -4.3971 -2.4723 0.9742
4.5859 -3.9239 -2.4702 0.9743
4.7225 -3.7562 -2.4696 0.9743
4.9774 -3.4070 -2.4687 0.9743
5.2073 -3.0410 -2.4680 0.9743
5.3124 -2.8522 -2.4678 0.9743
5.5872 -2.2654 -2.4675 0.9743
5.6649 -2.0638 -2.4676 0.9743
5.7355 -1.8596 -2.4677 0.9743
5.9039 -1.2338 -2.4685 0.9743
5.9453 -1.0216 -2.4689 0.9743
5.9792 -0.8081 -2.4694 0.9743
6.0359 -0.1620 -2.4712 0.9742
6.0358 0.2709 -2.4728 0.9742
6.0244 0.4872 -2.4737 0.9742
5.9029 1.3451 -2.4778 0.9742
5.8537 1.5565 -2.4790 0.9742
5.7970 1.7661 -2.4802 0.9741
5.7330 1.9737 -2.4815 0.9741
5.6617 2.1791 -2.4829 0.9741
5.5832 2.3819 -2.4843 0.9741
5.4975 2.5819 -2.4858 0.9741
5.4047 2.7789 -2.4873 0.9741
4.8388 3.7100 -2.4955 0.9740
4.7061 3.8837 -2.4973 0.9740
4.4223 4.2170 -2.5009 0.9739
4.2716 4.3760 -2.5028 0.9739
3.9533 4.6778 -2.5066 0.9739
3.7861 4.8202 -2.5086 0.9739
3.6138 4.9567 -2.5106 0.9738
3.2547 5.2110 -2.5146 0.9738
2.4851 5.6413 -2.5229 0.9737
2.0751 5.8059 -2.5234 0.9737
1.8606 5.8604 -2.5165 0.9738
1.4286 5.9474 -2.5034 0.9739
1.2124 5.9838 -2.4988 0.9740
2.7537 -4.9854 -2.4821 0.9755
2.9292 -4.8813 -2.4810 0.9755
3.1009 -4.7711 -2.4799 0.9755
3.2685 -4.6550 -2.4789 0.9755
3.4319 -4.5332 -2.4779 0.9755
3.7450 -4.2727 -2.4762 0.9755
4.4407 -3.5321 -2.4728 0.9755
4.5635 -3.3700 -2.4724 0.9756
4.6805 -3.2038 -2.4719 0.9756
4.8967 -2.8597 -2.4713 0.9756
4.9956 -2.6821 -2.4711 0.9756
5.0882 -2.5013 -2.4710 0.9756
5.1744 -2.3173 -2.4709 0.9756
5.3271 -1.9408 -2.4709 0.9756
5.3935 -1.7487 -2.4710 0.9756
5.5906 -0.9607 -2.4722 0.9756
5.6225 -0.7599 -2.4726 0.9755
5.6473 -0.5581 -2.4732 0.9755
5.6650 -0.3554 -2.4737 0.9755
5.6755 -0.1523 -2.4744 0.9755
5.6643 0.4581 -2.4767 0.9755
5.6463 0.6610 -2.4776 0.9755
5.6212 0.8632 -2.4785 0.9755
5.5495 1.2646 -2.4806 0.9755
5.5031 1.4633 -2.4817 0.9755
5.3894 1.8554 -2.4841 0.9754
5.2482 2.2390 -2.4867 0.9754
5.0800 2.6120 -2.4895 0.9754
4.9861 2.7939 -2.4909 0.9754
4.8858 2.9727 -2.4924 0.9754
4.7791 3.1478 -2.4940 0.9753
4.6662 3.3191 -2.4956 0.9753
4.5472 3.4864 -2.4972 0.9753
4.4224 3.6496 -2.4989 0.9753
4.1553 3.9623 -2.5023 0.9753
3.5568 4.5283 -2.5095 0.9752
3.3948 4.6563 -2.5114 0.9752
3.0572 4.8948 -2.5151 0.9751
2.8820 5.0050 -2.5170 0.9751
2.7029 5.1089 -2.5190 0.9751
2.1445 5.3832 -2.5254 0.9750
1.9462 5.4453 -2.5202 0.9751
1.5430 5.5412 -2.5068 0.9752
2.5952 -4.6984 -2.4845 0.9766
2.7607 -4.6004 -2.4835 0.9766
2.9225 -4.4967 -2.4824 0.9766
3.0806 -4.3874 -2.4815 0.9766
3.2346 -4.2726 -2.4806 0.9767
3.5300 -4.0273 -2.4789 0.9767
3.6709 -3.8971 -2.4782 0.9767
3.8071 -3.7620 -2.4775 0.9767
3.9385 -3.6223 -2.4768 0.9767
4.0648 -3.4780 -2.4763 0.9767
4.3018 -3.1768 -2.4753 0.9767
4.5169 -2.8597 -2.4746 0.9767
4.6160 -2.6957 -2.4743 0.9767
5.0844 -1.6485 -2.4741 0.9767
5.1405 -1.4654 -2.4742 0.9767
5.1902 -1.2804 -2.4745 0.9767
5.2334 -1.0937 -2.4748 0.9767
5.2700 -0.9056 -2.4752 0.9767
5.3000 -0.7163 -2.4756 0.9767
5.3233 -0.5261 -2.4761 0.9767
5.3399 -0.3350 -2.4766 0.9767
5.3498 -0.1435 -2.4772 0.9767
5.3493 0.2401 -2.4786 0.9767
5.3218 0.6230 -2.4802 0.9767
5.1864 1.3791 -2.4841 0.9766
5.0789 1.7485 -2.4864 0.9766
5.0154 1.9303 -2.4876 0.9766
4.8693 2.2869 -2.4901 0.9766
4.6981 2.6326 -2.4928 0.9765
4.2840 3.2846 -2.4988 0.9765
4.1661 3.4381 -2.5003 0.9765
3.3499 4.2649 -2.5103 0.9764
3.1972 4.3853 -2.5121 0.9764
3.0401 4.5002 -2.5139 0.9763
2.8790 4.6095 -2.5156 0.9763
2.7139 4.7130 -2.5174 0.9763
1.8299 5.1198 -2.5167 0.9763
1.4515 5.2124 -2.5046 0.9764
1.2616 5.2518 -2.5001 0.9765
2.6075 -4.3452 -2.4857 0.9777
2.7604 -4.2473 -2.4847 0.9777
3.0554 -4.0358 -2.4830 0.9777
3.5963 -3.5537 -2.4800 0.9777
3.7204 -3.4218 -2.4794 0.9777
4.5313 -2.2275 -2.4768 0.9778
4.6081 -2.0637 -2.4767 0.9778
4.7441 -1.7284 -2.4767 0.9778
4.9032 -1.2095 -2.4772 0.9778
4.9439 -1.0332 -2.4775 0.9777
4.9785 -0.8555 -2.4778 0.9777
5.0443 -0.3165 -2.4792 0.9777
5.0565 0.0456 -2.4804 0.9777
5.0431 0.4078 -2.4818 0.9777
5.0269 0.5884 -2.4826 0.9777
5.0043 0.7685 -2.4835 0.9777
4.9400 1.1257 -2.4853 0.9777
4.7367 1.8230 -2.4896 0.9776
4.6705 1.9925 -2.4908 0.9776
4.5984 2.1596 -2.4920 0.9776
4.1510 2.9526 -2.4987 0.9776
3.8169 3.3870 -2.5031 0.9775
3.6954 3.5238 -2.5047 0.9775
3.5690 3.6562 -2.5063 0.9775
3.4379 3.7841 -2.5078 0.9775
3.3022 3.9074 -2.5095 0.9775
3.1621 4.0258 -2.5111 0.9775
1.9011 4.7721 -2.5198 0.9774
1.7247 4.8254 -2.5136 0.9774
1.5471 4.8728 -2.5078 0.9775
1.3687 4.9153 -2.5028 0.9775
2.4675 -4.1119 -2.4878 0.9786
2.6123 -4.0194 -2.4868 0.9786
2.8915 -3.8193 -2.4852 0.9786
3.2818 -3.4840 -2.4830 0.9787
3.4037 -3.3633 -2.4824 0.9787
3.5212 -3.2385 -2.4818 0.9787
3.6342 -3.1096 -2.4813 0.9787
3.9450 -2.7004 -2.4801 0.9787
4.0388 -2.5570 -2.4798 0.9787
4.1274 -2.4104 -2.4796 0.9787
4.2108 -2.2607 -2.4794 0.9787
4.2889 -2.1084 -2.4793 0.9787
4.4903 -1.6359 -2.4792 0.9787
4.5964 -1.3103 -2.4795 0.9787
4.6408 -1.1448 -2.4797 0.9787
4.7387 -0.6404 -2.4807 0.9787
4.7742 -0.2996 -2.4816 0.9787
4.7829 -0.1283 -2.4822 0.9787
4.7728 0.3860 -2.4841 0.9787
4.7358 0.7272 -2.4856 0.9786
4.7083 0.8968 -2.4865 0.9786
4.5390 1.5626 -2.4903 0.9786
4.3509 2.0434 -2.4937 0.9786
4.1126 2.5022 -2.4974 0.9785
4.0224 2.6494 -2.4987 0.9785
3.8265 2.9338 -2.5014 0.9785
3.6106 3.2040 -2.5043 0.9785
3.4956 3.3332 -2.5057 0.9785
3.3759 3.4584 -2.5072 0.9785
3.2518 3.5793 -2.5087 0.9784
2.7137 4.0170 -2.5149 0.9784
2.5697 4.1143 -2.5165 0.9784
1.6289 4.5576 -2.5109 0.9784
1.4615 4.6034 -2.5056 0.9785
1.2934 4.6447 -2.5013 0.9785
1.1246 4.6817 -2.4979 0.9785
0.9552 4.7142 -2.4954 0.9786
2.3390 -3.8977 -2.4896 0.9795
2.6103 -3.7176 -2.4879 0.9795
2.8681 -3.5190 -2.4864 0.9795
2.9916 -3.4130 -2.4858 0.9795
3.1111 -3.3028 -2.4851 0.9795
3.3382 -3.0702 -2.4840 0.9795
3.5482 -2.8221 -2.4831 0.9795
3.8290 -2.4241 -2.4821 0.9795
4.1351 -1.8518 -2.4815 0.9795
4.1988 -1.7025 -2.4815 0.9795
4.2572 -1.5510 -2.4816 0.9795
4.3102 -1.3975 -2.4817 0.9795
4.3577 -1.2422 -2.4818 0.9795
4.4363 -0.9271 -2.4823 0.9795
4.4672 -0.7676 -2.4826 0.9795
4.4925 -0.6071 -2.4829 0.9795
4.5121 -0.4459 -2.4833 0.9795
4.5261 -0.2840 -2.4838 0.9795
4.5367 0.0409 -2.4849 0.9795
4.5335 0.2035 -2.4855 0.9795
4.5245 0.3659 -2.4862 0.9795
4.5098 0.5279 -2.4869 0.9795
4.4893 0.6894 -2.4876 0.9795
4.4314 1.0098 -2.4893 0.9795
4.3023 1.4812 -2.4921 0.9795
4.2482 1.6350 -2.4931 0.9795
4.1237 1.9368 -2.4953 0.9794
3.9781 2.2292 -2.4976 0.9794
3.6261 2.7802 -2.5026 0.9794
3.4214 3.0360 -2.5053 0.9794
3.3122 3.1584 -2.5067 0.9793
3.1987 3.2769 -2.5081 0.9793
2.9592 3.5016 -2.5110 0.9793
2.8335 3.6074 -2.5124 0.9793
2.5709 3.8056 -2.5154 0.9793
2.4344 3.8976 -2.5169 0.9793
2.0064 4.1452 -2.5223 0.9792
1.6985 4.2636 -2.5137 0.9793
1.2244 4.3971 -2.4999 0.9794
1.0649 4.4329 -2.4970 0.9794
2.0871 -3.7786 -2.4922 0.9803
2.3508 -3.6170 -2.4905 0.9803
2.4781 -3.5293 -2.4898 0.9803
2.9537 -3.1357 -2.4871 0.9803
3.0635 -3.0272 -2.4865 0.9803
3.3688 -2.6795 -2.4851 0.9803
3.4621 -2.5567 -2.4848 0.9803
3.6355 -2.3016 -2.4842 0.9803
3.7153 -2.1697 -2.4840 0.9803
3.9866 -1.6164 -2.4837 0.9803
4.0420 -1.4726 -2.4837 0.9803
4.0923 -1.3269 -2.4838 0.9803
4.1774 -1.0305 -2.4841 0.9803
4.2121 -0.8803 -2.4844 0.9803
4.2414 -0.7289 -2.4847 0.9803
4.2971 -0.2697 -2.4858 0.9803
4.3041 0.1932 -2.4874 0.9803
4.2954 0.3473 -2.4881 0.9803
4.2619 0.6545 -2.4895 0.9803
4.2068 0.9586 -2.4910 0.9803
4.0840 1.4060 -2.4937 0.9802
3.9760 1.6962 -2.4957 0.9802
3.9143 1.8384 -2.4967 0.9802
3.6993 2.2508 -2.5001 0.9802
3.5320 2.5123 -2.5025 0.9802
3.4414 2.6386 -2.5037 0.9802
3.3463 2.7616 -2.5050 0.9802
3.1432 2.9973 -2.5076 0.9801
3.0354 3.1096 -2.5089 0.9801
2.6886 3.4230 -2.5130 0.9801
2.5657 3.5191 -2.5144 0.9801
2.4393 3.6108 -2.5158 0.9801
2.1774 3.7814 -2.5193 0.9800
2.0425 3.8608 -2.5217 0.9800
1.3114 4.1307 -2.5021 0.9802
1.0099 4.2041 -2.4963 0.9802
0.8580 4.2344 -2.4944 0.9802
