ply
format ascii 1.0
element vertex 929
property float32 x
property float32 y
property float32 z
property float32 I
end_header
1.3523 14.6222 2.5893 0.9421
0.8237 14.6163 2.5813 0.9423
0.2977 14.6103 2.5767 0.9424
-1.2786 14.5923 2.5829 0.9422
-1.8079 14.5863 2.5916 0.9420
-2.3416 14.5803 2.6038 0.9418
-4.5492 14.5550 2.6889 0.9399
-4.2604 12.0878 2.2599 0.9493
-6.9572 14.5274 2.8402 0.9367
-8.2798 14.5122 2.9461 0.9344
-8.9806 14.5041 3.0080 0.9331
-9.7124 14.4957 3.0767 0.9316
-9.3776 12.0290 2.6894 0.9399
-13.0429 14.4572 3.4333 0.9240
-15.0373 14.4342 3.6753 0.9188
-31.8611 28.4565 7.5325 0.8407
-27.1550 22.5535 6.2243 0.8664
-27.1166 19.4098 5.8801 0.8733
-27.0664 15.2636 5.4791 0.8814
-28.3205 14.6559 5.6227 0.8785
-30.9358 14.6255 6.0337 0.8702
-37.5345 14.5488 7.0981 0.8492
-41.8034 14.4992 7.8018 0.8355
0.8237 14.6168 2.2428 0.9425
-0.2271 14.6048 2.2377 0.9426
-0.7521 14.5989 2.2394 0.9426
-1.2786 14.5929 2.2441 0.9424
-2.3417 14.5808 2.2623 0.9420
-2.8812 14.5746 2.2760 0.9417
-3.4607 12.6501 2.0093 0.9483
-4.7530 12.0827 1.9891 0.9488
-5.2591 12.0769 2.0179 0.9481
-8.2801 14.5128 2.5597 0.9346
-8.7075 12.0373 2.2759 0.9417
-9.3780 12.0296 2.3367 0.9401
-12.1394 14.4684 2.8933 0.9264
-31.8628 28.4580 6.5446 0.8412
-27.1486 22.5481 5.4064 0.8669
-27.1290 20.9321 5.2493 0.8705
-27.0608 15.2604 4.7593 0.8819
-28.3227 14.6571 4.8855 0.8789
-33.9708 14.5916 5.6639 0.8610
-41.8080 14.5008 6.7790 0.8360
1.9543 11.8045 1.5581 0.9529
1.3524 14.6233 1.9124 0.9425
0.8238 14.6173 1.9065 0.9427
-0.7521 14.5994 1.9037 0.9427
-1.2787 14.5934 1.9077 0.9426
-2.3418 14.5813 1.9231 0.9422
-2.8358 12.0520 1.6123 0.9513
-3.7801 12.0943 1.6501 0.9502
-4.2607 12.0888 1.6691 0.9496
-5.2593 12.0774 1.7154 0.9483
-8.0705 12.0451 1.8881 0.9432
-10.0868 12.0220 2.0436 0.9387
-13.0442 14.4587 2.5358 0.9245
-14.0076 14.4476 2.6205 0.9220
-31.8645 28.4596 5.5635 0.8417
-27.1421 22.5428 4.5945 0.8673
-28.3250 14.6582 4.1531 0.8793
-34.1342 14.6618 4.8377 0.8608
-37.5419 14.5517 5.2431 0.8501
1.3524 14.6239 1.5770 0.9426
0.2992 14.6826 1.5770 0.9426
-0.2282 14.6766 1.5762 0.9427
-0.7551 14.6567 1.5759 0.9427
-1.2787 14.5940 1.5731 0.9428
-1.8082 14.5879 1.5785 0.9426
-2.3419 14.5819 1.5859 0.9423
-2.7206 13.7625 1.5064 0.9451
-3.7638 12.0419 1.3548 0.9505
-4.7326 12.0308 1.3883 0.9493
-5.2365 12.0251 1.4084 0.9486
-5.7812 12.0719 1.4373 0.9476
-6.3207 12.0657 1.4626 0.9467
-7.1829 12.5896 1.5565 0.9434
-7.4627 12.0526 1.5222 0.9446
-8.0708 12.0456 1.5570 0.9433
-8.7083 12.0383 1.5955 0.9420
-9.3789 12.0306 1.6381 0.9405
-10.0872 12.0225 1.6852 0.9388
-14.0083 14.4483 2.1610 0.9222
-15.0397 14.4364 2.2386 0.9196
-31.8663 28.4611 4.5880 0.8421
-27.2330 21.0123 3.6936 0.8708
-28.3272 14.6594 3.4250 0.8796
-34.1373 14.6631 3.9896 0.8612
1.9537 11.8011 1.0126 0.9531
5.5621 43.1681 3.6845 0.8397
0.2992 14.6831 1.2432 0.9427
-0.7558 14.6711 1.2436 0.9427
-1.2788 14.5945 1.2402 0.9429
-1.8082 14.5885 1.2444 0.9427
-2.3420 14.5824 1.2503 0.9424
-2.9407 12.4979 1.0869 0.9498
-5.1284 14.5506 1.3060 0.9399
-6.8024 14.2041 1.3332 0.9387
-6.5257 12.4570 1.1905 0.9451
-7.2916 12.7802 1.2456 0.9426
-8.6575 12.9212 1.3166 0.9395
-9.0888 12.5643 1.3127 0.9396
-10.0437 11.9705 1.3228 0.9392
-27.0925 19.3925 2.8204 0.8748
-27.0755 17.9457 2.7498 0.8777
-27.0593 16.5678 2.6859 0.8804
-30.9462 14.6304 2.8977 0.8716
-33.9800 14.5956 3.1306 0.8620
-37.3488 14.4769 3.3908 0.8515
-41.8215 14.5055 3.7472 0.8372
1.9534 11.7994 0.7416 0.9532
0.2992 14.6837 0.9107 0.9428
-0.7559 14.6717 0.9110 0.9428
-1.2788 14.5950 0.9085 0.9430
-2.3421 14.5829 0.9159 0.9425
-2.8816 14.5768 0.9214 0.9422
-4.5517 14.5629 0.9461 0.9407
-5.7032 14.4982 0.9661 0.9395
-6.3306 14.5375 0.9832 0.9384
-6.9586 14.5303 0.9990 0.9375
-6.5260 12.4575 0.8721 0.9452
-7.2876 12.7731 0.9119 0.9428
-9.6837 14.4528 1.0788 0.9327
-11.2890 14.4809 1.1386 0.9291
-12.1417 14.4711 1.1714 0.9271
-13.0461 14.4608 1.2077 0.9249
-14.0775 14.5197 1.2541 0.9221
-15.0412 14.4379 1.2929 0.9198
-31.6172 28.2387 2.6287 0.8438
-27.1231 22.5270 2.1864 0.8682
-28.3315 14.6616 1.9782 0.8800
-30.9487 14.6317 2.1228 0.8718
-33.0629 14.2017 2.2314 0.8657
-32.9803 12.7836 2.1934 0.8678
-37.9139 13.1501 2.4885 0.8514
-45.8813 10.5537 2.9194 0.8281
1.9532 11.7977 0.4715 0.9533
4.2715 33.1515 1.3180 0.8748
1.3526 14.6254 0.5792 0.9429
0.8239 14.6195 0.5774 0.9431
0.2992 14.6842 0.5791 0.9429
-0.2283 14.6782 0.5788 0.9429
-0.7559 14.6722 0.5793 0.9429
-3.9841 14.5648 0.5954 0.9413
-4.5541 14.5704 0.6019 0.9407
-5.7035 14.4988 0.6143 0.9395
-6.3309 14.5380 0.6252 0.9385
-6.9589 14.5309 0.6353 0.9375
-8.9890 14.5177 0.6733 0.9339
-9.6841 14.4534 0.6860 0.9327
-13.0467 14.4615 0.7680 0.9250
-14.0782 14.5204 0.7975 0.9222
-27.1168 22.5217 1.3899 0.8684
-27.1770 20.9691 1.3535 0.8716
-27.0329 15.2446 1.2237 0.8832
-30.9513 14.6329 1.3500 0.8719
-31.6507 13.5951 1.3583 0.8712
-45.8718 10.5515 1.8560 0.8283
1.9529 11.7960 0.2020 0.9533
3.8368 29.7782 0.5072 0.8868
1.3526 14.6260 0.2481 0.9429
0.8239 14.6200 0.2473 0.9431
0.2992 14.6847 0.2481 0.9429
-0.7537 14.6299 0.2475 0.9431
-1.8084 14.5901 0.2483 0.9429
-2.8818 14.5779 0.2510 0.9423
-2.9410 12.4993 0.2169 0.9499
-3.9843 14.5653 0.2551 0.9414
-5.1357 14.5712 0.2610 0.9401
-6.9592 14.5315 0.2722 0.9376
-6.5265 12.4585 0.2376 0.9453
-7.2795 12.7590 0.2481 0.9429
-9.6845 14.4541 0.2939 0.9328
-10.4827 14.4914 0.3021 0.9309
-12.1428 14.4725 0.3191 0.9272
-13.0474 14.4621 0.3290 0.9250
-15.0428 14.4394 0.3522 0.9200
-27.1105 22.5165 0.5953 0.8685
-27.0581 17.9341 0.5483 0.8782
-27.1585 16.6285 0.5379 0.8804
-28.3359 14.6639 0.5389 0.8802
1.9526 11.7944 -0.0673 0.9533
1.3527 14.6265 -0.0827 0.9429
0.2978 14.6145 -0.0823 0.9432
-1.2790 14.5966 -0.0825 0.9431
-2.3423 14.5845 -0.0832 0.9426
-2.8819 14.5784 -0.0837 0.9423
-2.9411 12.4998 -0.0723 0.9499
-3.9844 14.5659 -0.0850 0.9414
-5.7039 14.4999 -0.0877 0.9396
-6.3314 14.5392 -0.0893 0.9385
-6.5268 12.4590 -0.0792 0.9453
-7.2755 12.7519 -0.0827 0.9430
-9.6850 14.4547 -0.0980 0.9328
-11.2906 14.4828 -0.1034 0.9292
-12.1434 14.4731 -0.1064 0.9272
-13.0480 14.4629 -0.1097 0.9250
-15.0435 14.4402 -0.1174 0.9200
-24.1700 21.5873 -0.1825 0.8784
-27.1042 22.5113 -0.1984 0.8685
-27.0687 19.3755 -0.1874 0.8753
-28.3380 14.6650 -0.1796 0.8802
-30.9564 14.6353 -0.1928 0.8720
-37.6235 14.5833 -0.2272 0.8509
-45.8529 10.5472 -0.2649 0.8284
1.3527 14.6271 -0.4136 0.9429
0.8240 14.6210 -0.4124 0.9431
-0.2272 14.6091 -0.4114 0.9432
-0.7523 14.6031 -0.4117 0.9432
-1.2790 14.5971 -0.4126 0.9431
-2.3424 14.5851 -0.4159 0.9426
-2.8820 14.5789 -0.4185 0.9423
-2.9412 12.5003 -0.3616 0.9499
-3.9846 14.5664 -0.4252 0.9414
-4.5558 14.5761 -0.4300 0.9407
-5.7041 14.5005 -0.4388 0.9396
-6.9597 14.5326 -0.4537 0.9376
-6.5270 12.4596 -0.3961 0.9453
-8.9937 14.5254 -0.4811 0.9339
-10.4837 14.4927 -0.5037 0.9309
-12.1440 14.4738 -0.5320 0.9272
-24.1243 18.6137 -0.8580 0.8852
-27.0466 17.9265 -0.9137 0.8782
-27.0311 16.5506 -0.8925 0.8809
-27.0163 15.2353 -0.8733 0.8833
-30.9590 14.6365 -0.9643 0.8719
-37.5747 14.5645 -1.1347 0.8511
-45.8435 10.5450 -1.3246 0.8284
1.3528 14.6276 -0.7450 0.9429
0.8240 14.6216 -0.7427 0.9430
-0.7524 14.6037 -0.7416 0.9431
-1.2790 14.5977 -0.7431 0.9430
-1.8086 14.5917 -0.7457 0.9428
-2.3425 14.5856 -0.7492 0.9426
-2.8821 14.5795 -0.7537 0.9422
-2.9413 12.5007 -0.6513 0.9499
-3.9847 14.5670 -0.7659 0.9413
-5.1317 14.5598 -0.7829 0.9400
-6.3319 14.5403 -0.8043 0.9385
-6.5273 12.4600 -0.7134 0.9452
-7.2674 12.7379 -0.7437 0.9430
-8.9870 14.5145 -0.8658 0.9339
-9.6858 14.4559 -0.8825 0.9327
-10.4841 14.4933 -0.9072 0.9309
-15.0451 14.4417 -1.0576 0.9199
-18.6369 16.6454 -1.2672 0.9048
-19.6261 16.3004 -1.2938 0.9029
-21.1044 16.2837 -1.3519 0.8987
-22.2540 15.9292 -1.3879 0.8962
-27.0255 16.5471 -1.6071 0.8808
-28.3424 14.6673 -1.6184 0.8800
-30.9615 14.6377 -1.7368 0.8718
-31.4157 13.4942 -1.7340 0.8720
-45.8341 10.5429 -2.3851 0.8283
-0.2272 14.6101 -1.0714 0.9431
-0.7524 14.6042 -1.0722 0.9430
-4.4095 12.5107 -0.9726 0.9482
-5.3957 12.3905 -0.9909 0.9472
-5.9309 12.3845 -1.0068 0.9464
-6.4844 12.3782 -1.0246 0.9455
-7.1009 12.4460 -1.0506 0.9441
-7.6561 12.3650 -1.0663 0.9433
-8.9341 12.3505 -1.1177 0.9407
-9.6222 12.3428 -1.1475 0.9392
-10.3490 12.3345 -1.1806 0.9375
-11.1200 12.3258 -1.2172 0.9356
-18.6324 16.6414 -1.8317 0.9047
-18.6073 14.3570 -1.7232 0.9100
-22.2150 13.6018 -1.9099 0.9008
-23.0347 12.9900 -1.9390 0.8994
-30.6269 14.4795 -2.4840 0.8730
-31.2068 13.4044 -2.4903 0.8727
-31.7441 11.0102 -2.4636 0.8739
-33.7113 10.3519 -2.5857 0.8681
-34.1311 9.1532 -2.5910 0.8679
-37.6320 4.4735 -2.7787 0.8590
-38.0312 0.4012 -2.7887 0.8585
-38.0551 -0.9658 -2.7912 0.8584
-38.0241 -2.3337 -2.7933 0.8583
-37.9379 -3.7000 -2.7949 0.8582
-37.7968 -5.0623 -2.7961 0.8582
-37.0457 -9.1015 -2.7970 0.8581
-36.2763 -11.7307 -2.7955 0.8582
-35.8131 -13.0193 -2.7940 0.8583
-35.2987 -14.2876 -2.7922 0.8584
1.9523 11.7922 -1.1475 0.9531
1.3529 14.6287 -1.4104 0.9427
0.2978 14.6166 -1.4036 0.9429
-0.2272 14.6107 -1.4029 0.9430
-1.8088 14.5927 -1.4117 0.9426
-4.7570 12.0927 -1.2476 0.9491
-5.2635 12.0870 -1.2657 0.9484
-7.4685 12.0621 -1.3620 0.9446
-8.0773 12.0552 -1.3931 0.9434
-8.7153 12.0480 -1.4276 0.9420
-10.0956 12.0325 -1.5079 0.9388
-10.8477 12.0240 -1.5547 0.9370
-15.0467 14.4432 -2.0024 0.9196
-17.8549 15.9469 -2.2983 0.9083
-20.7142 11.6814 -2.2831 0.9089
-21.1644 10.9526 -2.2878 0.9087
-25.1248 8.7144 -2.5531 0.8986
-26.7587 8.2169 -2.6874 0.8936
-27.0778 7.2617 -2.6915 0.8935
-27.3602 6.2934 -2.6953 0.8933
-27.6051 5.3137 -2.6989 0.8932
-27.8120 4.3241 -2.7022 0.8931
-28.2625 -0.7172 -2.7142 0.8926
-28.0579 -3.7579 -2.7178 0.8925
-27.9104 -4.7642 -2.7183 0.8925
-27.4091 -6.7340 -2.7097 0.8928
-27.2334 -7.7379 -2.7180 0.8925
-26.9307 -8.7086 -2.7173 0.8925
-26.5903 -9.6665 -2.7163 0.8925
-25.7991 -11.5375 -2.7132 0.8926
0.8241 14.6231 -1.7398 0.9427
0.2993 14.6879 -1.7451 0.9425
-0.2283 14.6819 -1.7442 0.9426
-0.7483 14.5253 -1.7277 0.9431
-1.8088 14.5933 -1.7467 0.9425
-3.7657 12.0482 -1.4994 0.9504
-4.2062 11.9341 -1.5031 0.9503
-4.6517 11.8250 -1.5094 0.9501
-6.1856 11.8077 -1.5834 0.9477
-7.3032 11.7951 -1.6479 0.9457
-9.6182 11.4635 -1.7775 0.9415
-14.2894 12.7625 -2.2758 0.9257
-14.7682 12.2657 -2.2804 0.9256
-15.2290 11.7504 -2.2849 0.9254
-15.6711 11.2172 -2.2892 0.9253
-18.4505 9.5482 -2.4678 0.9197
-18.9212 8.9454 -2.4861 0.9192
-20.3951 8.7604 -2.6367 0.9145
-21.5540 5.7803 -2.6508 0.9140
-21.9613 4.2274 -2.6566 0.9139
-22.1204 3.4393 -2.6592 0.9138
-22.4155 1.0425 -2.6655 0.9136
-22.4524 0.2369 -2.6672 0.9135
-22.4583 -0.5700 -2.6686 0.9135
-22.3769 -2.1823 -2.6707 0.9134
-22.2897 -2.9854 -2.6714 0.9134
-21.8437 -5.3666 -2.6719 0.9134
-21.6343 -6.1470 -2.6716 0.9134
-21.1263 -7.6801 -2.6702 0.9134
-20.8286 -8.4306 -2.6691 0.9135
1.9279 11.6451 -1.6724 0.9534
0.2978 14.6177 -2.0716 0.9426
-0.7525 14.6058 -2.0722 0.9426
-1.8089 14.5938 -2.0836 0.9423
-2.3428 14.5877 -2.0934 0.9421
-2.7828 11.8269 -1.7215 0.9521
-3.2123 11.7431 -1.7250 0.9520
-3.6393 11.6438 -1.7285 0.9519
-4.0634 11.5290 -1.7320 0.9518
-6.5603 11.4984 -1.8757 0.9479
-7.6956 11.4857 -1.9589 0.9457
-8.7319 11.2007 -2.0123 0.9442
-10.0912 11.1854 -2.1345 0.9410
-11.7238 11.2536 -2.3026 0.9365
-12.5892 11.2439 -2.3916 0.9341
-13.5672 10.4681 -2.4280 0.9331
-13.9565 9.9899 -2.4319 0.9330
-14.3282 9.4968 -2.4356 0.9329
-14.8470 9.0905 -2.4667 0.9321
-16.6461 7.8698 -2.6089 0.9283
-17.6841 5.4304 -2.6211 0.9280
-18.2170 3.5066 -2.6285 0.9278
-18.3459 2.8524 -2.6307 0.9277
-18.4501 2.1933 -2.6326 0.9277
-18.5831 0.8642 -2.6359 0.9276
-18.5926 -1.1411 -2.6393 0.9275
-18.2501 -3.7944 -2.6411 0.9275
-17.5090 -6.3652 -2.6397 0.9275
-17.2634 -6.9876 -2.6388 0.9275
1.9209 11.6027 -1.9374 0.9534
1.6684 12.9485 -2.1508 0.9485
1.2042 13.0213 -2.1543 0.9484
-0.6773 13.1474 -2.1688 0.9480
-1.1511 13.1371 -2.1725 0.9479
-2.0984 13.0656 -2.1800 0.9478
-2.7158 11.5422 -1.9534 0.9531
-3.5615 11.3949 -1.9667 0.9528
-3.9754 11.2793 -1.9702 0.9527
-2.2292 5.6668 -1.0032 0.9756
-2.5483 5.3212 -0.9720 0.9764
-2.9641 5.1953 -0.9854 0.9760
-3.2569 5.2601 -1.0192 0.9752
-8.0371 11.1105 -2.2590 0.9459
-8.4961 10.8983 -2.2765 0.9455
-9.7490 10.8062 -2.3976 0.9427
-10.1464 10.4651 -2.4013 0.9426
-10.5315 10.1091 -2.4049 0.9425
-11.2626 9.3541 -2.4119 0.9424
-12.7156 9.1016 -2.5761 0.9386
-13.0513 8.6505 -2.5795 0.9385
-14.2238 6.7246 -2.5919 0.9382
-14.4717 6.2161 -2.5947 0.9381
-14.8661 5.1562 -2.5922 0.9382
-15.0555 4.6232 -2.5945 0.9381
-15.6572 2.4343 -2.6103 0.9378
-15.8103 1.3057 -2.6134 0.9377
-15.8798 -0.4030 -2.6169 0.9376
-15.7559 -2.1103 -2.6188 0.9376
-15.5663 -3.2364 -2.6192 0.9376
-15.4397 -3.7933 -2.6192 0.9376
-14.4981 -6.4836 -2.6164 0.9376
1.8887 11.4082 -2.1735 0.9540
1.0573 11.4329 -2.1581 0.9543
0.6470 11.4801 -2.1612 0.9543
-0.1793 11.5308 -2.1676 0.9541
-1.0096 11.5226 -2.1741 0.9540
-1.8397 11.4551 -2.1807 0.9539
-2.0135 5.1186 -1.0338 0.9779
-2.3138 4.8315 -1.0069 0.9784
-2.9084 4.6973 -1.0385 0.9778
-3.1424 4.6900 -1.0611 0.9773
-7.7971 10.0018 -2.3837 0.9497
-8.1627 9.7288 -2.3870 0.9496
-9.0174 9.3006 -2.4349 0.9486
-9.6509 9.2638 -2.5144 0.9470
-10.1424 9.0586 -2.5560 0.9462
-10.4743 8.6993 -2.5592 0.9461
-10.7931 8.3277 -2.5624 0.9460
-11.0984 7.9441 -2.5654 0.9460
-11.3896 7.5490 -2.5683 0.9459
-11.6663 7.1430 -2.5712 0.9458
-11.9280 6.7266 -2.5739 0.9458
-13.3095 3.5694 -2.5901 0.9455
-13.4385 3.0912 -2.5919 0.9454
-13.6428 2.1212 -2.5951 0.9454
-13.7177 1.6307 -2.5965 0.9453
-13.7741 1.1375 -2.5978 0.9453
-13.8316 0.1459 -2.5999 0.9453
-13.8324 -0.3510 -2.6008 0.9452
-13.5577 -2.8188 -2.6028 0.9452
-13.4475 -3.3038 -2.6028 0.9452
-13.3192 -3.7844 -2.6026 0.9452
-13.1729 -4.2598 -2.6022 0.9452
1.4305 11.1024 -2.3662 0.9553
1.0250 11.0831 -2.3527 0.9555
0.6225 11.0467 -2.3388 0.9558
-0.5660 10.9870 -2.3255 0.9560
-2.1450 10.8510 -2.3381 0.9558
-2.5368 10.7816 -2.3413 0.9557
-1.5780 5.7687 -1.2642 0.9758
-1.6765 5.3639 -1.1879 0.9773
-1.8847 4.7912 -1.0883 0.9792
-2.0722 4.7586 -1.0971 0.9790
-2.6654 4.6717 -1.1369 0.9783
-2.8795 4.6506 -1.1562 0.9779
-3.3112 4.5775 -1.1942 0.9772
-8.0488 8.9216 -2.5399 0.9521
-8.3740 8.6371 -2.5429 0.9520
-9.2861 7.7125 -2.5516 0.9518
-9.8367 7.0410 -2.5571 0.9517
-10.3372 6.3294 -2.5622 0.9517
-10.7851 5.5813 -2.5669 0.9516
-11.1770 4.8009 -2.5713 0.9515
-11.3512 4.3999 -2.5734 0.9514
-11.5105 3.9923 -2.5753 0.9514
-11.6547 3.5789 -2.5771 0.9514
-12.1415 1.4433 -2.5845 0.9512
-12.1908 1.0068 -2.5857 0.9512
-12.2238 0.5685 -2.5867 0.9512
-12.2407 -0.3106 -2.5883 0.9512
-11.8990 -2.9234 -2.5900 0.9511
-11.5116 -4.1849 -2.5891 0.9512
-11.3514 -4.5946 -2.5886 0.9512
-11.1761 -4.9980 -2.5879 0.9512
1.2859 9.9798 -2.3649 0.9595
0.9139 9.8821 -2.3324 0.9600
0.5571 9.8857 -2.3270 0.9601
-1.2208 9.8494 -2.3325 0.9600
-1.4642 5.3527 -1.3042 0.9775
-1.6809 4.7691 -1.1884 0.9794
-1.8606 4.7299 -1.1945 0.9793
-2.4349 4.6480 -1.2332 0.9787
-3.0624 4.5706 -1.2930 0.9776
-3.2711 4.5220 -1.3117 0.9773
-3.5071 4.4987 -1.3406 0.9768
-3.7527 4.4727 -1.3722 0.9763
-7.2252 8.0086 -2.5350 0.9566
-7.5162 7.7523 -2.5377 0.9566
-7.7979 7.4852 -2.5404 0.9566
-8.8240 6.3161 -2.5504 0.9564
-9.0533 6.0006 -2.5527 0.9564
-9.4772 5.3445 -2.5571 0.9563
-9.6709 5.0047 -2.5592 0.9562
-9.8521 4.6578 -2.5612 0.9562
-10.0205 4.3042 -2.5631 0.9562
-10.4464 3.2079 -2.5683 0.9561
-10.6620 2.4525 -2.5713 0.9560
-10.8213 1.6825 -2.5738 0.9560
-10.8794 1.2933 -2.5749 0.9560
-10.9231 0.9021 -2.5759 0.9560
-10.9522 0.5094 -2.5768 0.9559
-10.9667 -0.2783 -2.5783 0.9559
-10.7472 -2.2344 -2.5798 0.9559
-10.5583 -2.9999 -2.5797 0.9559
-10.4427 -3.3769 -2.5794 0.9559
-10.3131 -3.7492 -2.5790 0.9559
-10.1698 -4.1163 -2.5785 0.9559
-10.0130 -4.4779 -2.5779 0.9559
1.2279 9.5302 -2.4879 0.9611
0.5386 9.5573 -2.4785 0.9612
0.1949 9.5635 -2.4767 0.9612
-0.1488 9.5669 -2.4773 0.9612
-0.8369 9.5512 -2.4825 0.9612
-1.1807 9.5255 -2.4852 0.9611
-0.9317 5.8015 -1.5214 0.9760
-1.1022 5.5755 -1.4715 0.9768
-1.2592 5.3515 -1.4234 0.9775
-1.3634 4.9841 -1.3379 0.9789
-1.6622 4.7162 -1.2947 0.9796
-1.8408 4.6796 -1.3020 0.9794
-2.2211 4.6379 -1.3314 0.9790
-2.4113 4.6029 -1.3454 0.9788
-2.6062 4.5679 -1.3617 0.9785
-2.8111 4.5402 -1.3826 0.9782
-3.0215 4.5095 -1.4055 0.9778
-3.2326 4.4688 -1.4280 0.9775
-6.5479 7.2580 -2.5310 0.9604
-6.8110 7.0250 -2.5334 0.9604
-7.5480 6.2690 -2.5405 0.9603
-8.1994 5.4346 -2.5470 0.9602
-8.5819 4.8396 -2.5510 0.9601
-8.9200 4.2171 -2.5547 0.9601
-9.0719 3.8967 -2.5564 0.9600
-9.2119 3.5706 -2.5580 0.9600
-9.4556 2.9036 -2.5611 0.9600
-9.5590 2.5635 -2.5625 0.9599
-9.8843 0.8163 -2.5679 0.9598
-9.9104 0.4609 -2.5688 0.9598
-9.9232 0.1047 -2.5695 0.9598
-9.9229 -0.2519 -2.5701 0.9598
-9.9094 -0.6082 -2.5705 0.9598
-9.8827 -0.9638 -2.5709 0.9598
-9.7237 -2.0217 -2.5715 0.9598
-9.6447 -2.3696 -2.5715 0.9598
-9.5529 -2.7143 -2.5713 0.9598
-9.3313 -3.3922 -2.5707 0.9598
-9.2018 -3.7246 -2.5703 0.9598
-9.0601 -4.0517 -2.5697 0.9598
1.4392 8.6935 -2.4946 0.9640
1.1226 8.7122 -2.4868 0.9641
0.8073 8.7289 -2.4816 0.9642
0.4926 8.7416 -2.4786 0.9643
0.1783 8.7506 -2.4777 0.9643
-0.1361 8.7545 -2.4786 0.9643
-0.7657 8.7384 -2.4833 0.9642
-0.6896 5.5634 -1.5870 0.9770
-1.6066 4.5583 -1.3682 0.9801
-1.8242 4.6373 -1.4107 0.9795
-2.5805 4.5229 -1.4741 0.9786
-2.9928 4.4667 -1.5221 0.9779
-3.6681 4.3719 -1.6156 0.9766
-5.9808 6.6294 -2.5276 0.9636
-6.6765 5.9630 -2.5342 0.9635
-6.8920 5.7241 -2.5363 0.9634
-7.0988 5.4773 -2.5383 0.9634
-7.4852 4.9612 -2.5422 0.9634
-7.6641 4.6926 -2.5440 0.9633
-7.8332 4.4174 -2.5458 0.9633
-7.9922 4.1360 -2.5475 0.9633
-8.4062 3.2583 -2.5523 0.9632
-8.7216 2.3389 -2.5563 0.9632
-8.8749 1.7084 -2.5585 0.9631
-8.9340 1.3890 -2.5595 0.9631
-9.0168 0.7446 -2.5613 0.9631
-9.0403 0.4204 -2.5620 0.9631
-9.0513 -0.2297 -2.5632 0.9631
-9.0388 -0.5548 -2.5637 0.9631
-9.0143 -0.8791 -2.5640 0.9630
-8.9779 -1.2025 -2.5643 0.9630
-8.9295 -1.5242 -2.5644 0.9630
-8.7972 -2.1613 -2.5645 0.9630
-8.5115 -3.0942 -2.5638 0.9631
-8.3935 -3.3974 -2.5634 0.9631
-8.2645 -3.6959 -2.5629 0.9631
0.4536 8.0487 -2.4795 0.9668
-0.1254 8.0612 -2.4798 0.9668
-0.7049 8.0450 -2.4840 0.9668
-0.9502 4.8067 -1.5071 0.9797
-2.5743 4.5121 -1.5978 0.9785
-2.9860 4.4566 -1.6500 0.9778
-3.1998 4.4235 -1.6792 0.9774
-5.4984 6.0947 -2.5247 0.9662
-5.9313 5.6934 -2.5288 0.9662
-7.1972 4.0587 -2.5415 0.9660
-7.3429 3.8000 -2.5430 0.9660
-7.4791 3.5359 -2.5445 0.9660
-7.8287 2.7153 -2.5487 0.9659
-7.9250 2.4336 -2.5499 0.9659
-8.1511 1.5690 -2.5531 0.9659
-8.2051 1.2757 -2.5540 0.9658
-8.2807 0.6838 -2.5556 0.9658
-8.3021 0.3861 -2.5563 0.9658
-8.3125 0.0877 -2.5569 0.9658
-8.3003 -0.5094 -2.5578 0.9658
-8.2777 -0.8073 -2.5581 0.9658
-8.1443 -1.6933 -2.5586 0.9658
-8.0782 -1.9846 -2.5586 0.9658
-8.0013 -2.2734 -2.5584 0.9658
-7.9139 -2.5591 -2.5582 0.9658
-7.8160 -2.8414 -2.5580 0.9658
-7.7077 -3.1198 -2.5576 0.9658
-7.5894 -3.3940 -2.5571 0.9658
0.9560 7.4193 -2.4866 0.9690
0.1520 7.4590 -2.4799 0.9690
-0.3842 7.4583 -2.4825 0.9690
-0.7694 4.7908 -1.6129 0.9798
-0.9339 4.7243 -1.6008 0.9799
-1.4527 4.6479 -1.6187 0.9797
-1.8100 4.6011 -1.6435 0.9794
-1.9934 4.5776 -1.6596 0.9792
-2.3718 4.5275 -1.6990 0.9787
-2.9797 4.4472 -1.7794 0.9777
-3.1942 4.4157 -1.8116 0.9773
-3.4104 4.3747 -1.8438 0.9769
-5.4823 5.2624 -2.5260 0.9685
-5.8542 4.8622 -2.5296 0.9684
-6.0291 4.6519 -2.5313 0.9684
-6.5070 3.9841 -2.5362 0.9684
-6.9096 3.2667 -2.5406 0.9683
-7.0262 3.0180 -2.5419 0.9683
-7.3204 2.2479 -2.5455 0.9682
-7.5285 1.4492 -2.5485 0.9682
-7.6476 0.6316 -2.5508 0.9682
-7.6672 0.3566 -2.5514 0.9682
-7.6767 0.0810 -2.5519 0.9682
-7.6653 -0.4704 -2.5528 0.9681
-7.6443 -0.7455 -2.5531 0.9681
-7.4599 -1.8328 -2.5535 0.9681
-7.3890 -2.0994 -2.5534 0.9681
-7.2180 -2.6240 -2.5529 0.9681
-7.1181 -2.8812 -2.5526 0.9681
-7.0088 -3.1344 -2.5521 0.9682
1.1380 6.8740 -2.4917 0.9708
0.8886 6.8964 -2.4866 0.9709
0.6394 6.9141 -2.4831 0.9709
0.1413 6.9358 -2.4808 0.9710
-0.1079 6.9385 -2.4816 0.9710
-0.3573 6.9347 -2.4832 0.9709
-0.6066 6.9227 -2.4851 0.9709
-0.6063 4.8915 -1.7626 0.9793
-0.9267 4.6878 -1.7088 0.9799
-1.6271 4.6166 -1.7505 0.9794
-1.8067 4.5927 -1.7649 0.9793
-1.9894 4.5684 -1.7819 0.9791
-2.7708 4.4751 -1.8822 0.9779
-2.9803 4.4480 -1.9147 0.9775
-3.1909 4.4112 -1.9469 0.9771
-3.3829 4.3394 -1.9676 0.9769
-3.9325 4.3589 -2.0994 0.9754
-5.2667 4.7040 -2.5253 0.9704
-5.4358 4.5147 -2.5269 0.9704
-5.5980 4.3193 -2.5285 0.9704
-5.7531 4.1180 -2.5301 0.9704
-6.0409 3.6987 -2.5330 0.9704
-6.1732 3.4813 -2.5344 0.9703
-6.5218 2.8013 -2.5383 0.9703
-6.7942 2.0864 -2.5416 0.9703
-6.8674 1.8417 -2.5426 0.9702
-6.9868 1.3449 -2.5444 0.9702
-7.0695 0.8404 -2.5459 0.9702
-7.1150 0.3309 -2.5471 0.9702
-7.1237 0.0752 -2.5476 0.9702
-7.1129 -0.4365 -2.5484 0.9702
-7.0934 -0.6918 -2.5487 0.9702
-6.9222 -1.7007 -2.5490 0.9702
-6.8564 -1.9481 -2.5489 0.9702
-6.7815 -2.1930 -2.5488 0.9702
1.0618 6.4132 -2.4911 0.9725
0.5968 6.4529 -2.4834 0.9726
0.3644 6.4658 -2.4818 0.9726
0.1319 6.4743 -2.4816 0.9726
-0.1007 6.4771 -2.4824 0.9726
-1.1121 4.7263 -1.8607 0.9794
-1.6243 4.6087 -1.8726 0.9793
-1.8046 4.5875 -1.8891 0.9791
-1.9883 4.5659 -1.9084 0.9789
-2.3691 4.5224 -1.9565 0.9784
-3.1865 4.4051 -2.0835 0.9770
-3.3850 4.3421 -2.1098 0.9767
-4.4018 4.8791 -2.5182 0.9722
-4.7468 4.5564 -2.5215 0.9722
-4.9104 4.3857 -2.5230 0.9722
-5.0678 4.2090 -2.5246 0.9722
-5.6310 3.4477 -2.5302 0.9721
-5.7541 3.2449 -2.5316 0.9721
-6.0784 2.6109 -2.5352 0.9721
-6.1709 2.3919 -2.5363 0.9720
-6.2554 2.1697 -2.5373 0.9720
-6.3998 1.7163 -2.5392 0.9720
-6.5107 1.2532 -2.5408 0.9720
-6.5875 0.7831 -2.5422 0.9720
-6.6129 0.5461 -2.5428 0.9720
-6.6297 0.3083 -2.5434 0.9720
-6.5467 -1.1175 -2.5451 0.9720
-6.5025 -1.3519 -2.5452 0.9720
-6.4497 -1.5846 -2.5452 0.9720
-6.3884 -1.8151 -2.5451 0.9720
0.9939 6.0037 -2.4906 0.9740
0.3413 6.0557 -2.4824 0.9741
0.1235 6.0638 -2.4823 0.9741
-0.0943 6.0665 -2.4832 0.9741
-0.3123 6.0621 -2.4843 0.9741
-0.5981 4.8252 -1.9900 0.9792
-0.9142 4.6247 -1.9294 0.9798
-1.3213 4.8302 -2.0495 0.9786
-1.6247 4.6098 -2.0004 0.9791
-1.9888 4.5671 -2.0387 0.9787
-2.1769 4.5457 -2.0628 0.9785
-2.5664 4.4981 -2.1195 0.9779
-2.7697 4.4732 -2.1533 0.9775
-2.9805 4.4484 -2.1915 0.9771
-3.3852 4.3424 -2.2535 0.9765
-4.2827 4.4172 -2.5181 0.9738
-4.4412 4.2631 -2.5196 0.9737
-4.8823 3.7671 -2.5239 0.9737
-5.0171 3.5912 -2.5252 0.9737
-5.1455 3.4105 -2.5265 0.9737
-5.3824 3.0353 -2.5290 0.9736
-5.6852 2.4420 -2.5324 0.9736
-5.7715 2.2371 -2.5334 0.9736
-5.8504 2.0292 -2.5344 0.9736
-6.0408 1.3895 -2.5369 0.9736
-6.0886 1.1720 -2.5377 0.9736
-6.1284 0.9528 -2.5384 0.9736
-6.1602 0.7323 -2.5390 0.9735
-6.1995 0.2883 -2.5400 0.9735
-6.2069 0.0655 -2.5405 0.9735
-6.1217 -1.0449 -2.5417 0.9735
-6.0309 -1.4817 -2.5417 0.9735
-5.9736 -1.6973 -2.5416 0.9735
-5.9084 -1.9106 -2.5415 0.9735
0.5249 5.6759 -2.4842 0.9754
0.1161 5.6960 -2.4829 0.9754
-0.9148 4.6275 -2.0558 0.9796
-1.0842 4.6078 -2.0630 0.9796
-1.2542 4.5849 -2.0716 0.9795
-1.8041 4.5863 -2.1479 0.9787
-2.1748 4.5413 -2.1944 0.9783
-2.7671 4.4691 -2.2908 0.9773
-3.2045 4.7827 -2.5090 0.9752
-3.3835 4.3402 -2.3984 0.9763
-4.0193 4.1455 -2.5165 0.9751
-4.1679 4.0008 -2.5179 0.9751
-4.4492 3.6952 -2.5206 0.9751
-4.5814 3.5349 -2.5219 0.9751
-4.7078 3.3698 -2.5232 0.9751
-5.1513 2.6658 -2.5278 0.9750
-5.3337 2.2910 -2.5299 0.9750
-5.4146 2.0987 -2.5308 0.9750
-5.4884 1.9036 -2.5317 0.9750
-5.5551 1.7059 -2.5326 0.9750
-5.7114 1.0994 -2.5348 0.9749
-5.7487 0.8938 -2.5355 0.9749
-5.8220 0.0614 -2.5375 0.9749
-5.8212 -0.1477 -2.5378 0.9749
-5.8128 -0.3568 -2.5381 0.9749
-5.7731 -0.7732 -2.5385 0.9749
0.8786 5.3067 -2.4898 0.9766
0.6865 5.3281 -2.4867 0.9766
0.4943 5.3447 -2.4846 0.9766
0.1093 5.3641 -2.4835 0.9766
-0.0834 5.3666 -2.4844 0.9766
-1.0844 4.6090 -2.1917 0.9793
-1.2543 4.5854 -2.2005 0.9793
-1.6259 4.6130 -2.2640 0.9787
-2.8507 4.6040 -2.5066 0.9764
-3.1775 4.3926 -2.5095 0.9764
-3.3351 4.2781 -2.5109 0.9764
-4.0566 3.6231 -2.5176 0.9763
-4.1862 3.4768 -2.5189 0.9763
-4.4292 3.1704 -2.5213 0.9763
-4.5423 3.0107 -2.5225 0.9763
-4.6496 2.8468 -2.5236 0.9763
-4.7508 2.6791 -2.5247 0.9762
-5.0933 1.9742 -2.5285 0.9762
-5.2812 1.4163 -2.5309 0.9762
-5.3301 1.2260 -2.5317 0.9762
-5.4070 0.8407 -2.5329 0.9762
-5.4693 0.2543 -2.5344 0.9762
-5.4670 -0.3355 -2.5354 0.9761
-5.4519 -0.5317 -2.5356 0.9761
-5.3637 -1.1152 -2.5359 0.9761
-5.3201 -1.3071 -2.5359 0.9761
-5.2696 -1.4973 -2.5358 0.9761
-5.2122 -1.6855 -2.5356 0.9761
-5.0769 -2.0549 -2.5352 0.9761
0.8290 5.0073 -2.4896 0.9776
-0.0788 5.0652 -2.4849 0.9777
-0.2607 5.0606 -2.4856 0.9777
-0.6240 5.0345 -2.4884 0.9777
-0.7458 4.6439 -2.3071 0.9793
-1.0840 4.6072 -2.3217 0.9791
-1.8647 4.7402 -2.4986 0.9776
-2.3678 4.5199 -2.5029 0.9775
-2.5300 4.4345 -2.5043 0.9775
-2.8450 4.2461 -2.5071 0.9775
-2.9973 4.1434 -2.5085 0.9775
-3.2905 3.9218 -2.5111 0.9775
-3.4310 3.8030 -2.5124 0.9774
-3.5672 3.6792 -2.5137 0.9774
-3.6988 3.5505 -2.5150 0.9774
-3.8258 3.4170 -2.5162 0.9774
-3.9479 3.2789 -2.5174 0.9774
-4.0650 3.1365 -2.5185 0.9774
-4.1769 2.9898 -2.5197 0.9774
-4.3844 2.6845 -2.5218 0.9774
-4.7308 2.0321 -2.5256 0.9773
-4.9792 1.3353 -2.5287 0.9773
-5.0253 1.1559 -2.5294 0.9773
-5.0648 0.9749 -2.5300 0.9773
-5.0976 0.7926 -2.5306 0.9773
-5.1239 0.6091 -2.5311 0.9773
-5.1434 0.4248 -2.5315 0.9773
-5.1622 0.0545 -2.5323 0.9773
-5.1539 -0.3163 -2.5329 0.9773
-4.9678 -1.4115 -2.5333 0.9773
-4.8531 -1.7643 -2.5330 0.9773
-4.7861 -1.9373 -2.5327 0.9773
-4.7129 -2.1077 -2.5325 0.9773
0.7838 4.7342 -2.4894 0.9786
0.6126 4.7544 -2.4869 0.9786
0.4412 4.7700 -2.4852 0.9786
0.0976 4.7880 -2.4844 0.9787
-0.2465 4.7857 -2.4860 0.9786
-0.5901 4.7606 -2.4886 0.9786
-0.9142 4.6246 -2.4456 0.9790
-1.0835 4.6047 -2.4541 0.9789
-1.9237 4.4176 -2.4996 0.9785
-2.6891 4.0135 -2.5063 0.9785
-2.8330 3.9163 -2.5076 0.9785
-2.9733 3.8140 -2.5089 0.9784
-3.2426 3.5943 -2.5113 0.9784
-3.3713 3.4772 -2.5125 0.9784
-3.6155 3.2292 -2.5149 0.9784
-3.8414 2.9639 -2.5171 0.9784
-4.0476 2.6827 -2.5192 0.9784
-4.2330 2.3871 -2.5211 0.9783
-4.3176 2.2343 -2.5220 0.9783
-4.4699 1.9200 -2.5238 0.9783
-4.5374 1.7587 -2.5246 0.9783
-4.5990 1.5951 -2.5253 0.9783
-4.6547 1.4293 -2.5260 0.9783
-4.7042 1.2616 -2.5267 0.9783
-4.7477 1.0921 -2.5273 0.9783
-4.7849 0.9211 -2.5279 0.9783
-4.8159 0.7488 -2.5284 0.9783
-4.8711 0.2265 -2.5298 0.9783
-4.8767 0.0514 -2.5301 0.9783
-4.8688 -0.2988 -2.5306 0.9783
-4.8355 -0.6477 -2.5310 0.9783
-4.8092 -0.8209 -2.5310 0.9783
-4.6930 -1.3334 -2.5310 0.9783
-4.6418 -1.5011 -2.5309 0.9783
-4.5846 -1.6667 -2.5307 0.9783
-4.4523 -1.9911 -2.5302 0.9783
0.7423 4.4839 -2.4893 0.9795
0.4179 4.5186 -2.4854 0.9795
-0.2335 4.5335 -2.4863 0.9795
-0.5589 4.5096 -2.4888 0.9795
-0.8821 4.4625 -2.4914 0.9795
-1.3591 4.3485 -2.4953 0.9794
-1.6695 4.2442 -2.4979 0.9794
-2.1196 4.0462 -2.5018 0.9794
-2.5463 3.8004 -2.5055 0.9794
-2.6825 3.7083 -2.5068 0.9793
-3.1918 3.2921 -2.5114 0.9793
-3.4229 3.0572 -2.5136 0.9793
-3.5320 2.9335 -2.5147 0.9793
-3.6366 2.8059 -2.5157 0.9793
-3.8316 2.5396 -2.5177 0.9793
-3.9218 2.4012 -2.5187 0.9792
-4.0070 2.2596 -2.5196 0.9792
-4.0870 2.1150 -2.5204 0.9792
-4.1617 1.9675 -2.5213 0.9792
-4.2948 1.6647 -2.5228 0.9792
-4.4057 1.3529 -2.5242 0.9792
-4.4525 1.1941 -2.5248 0.9792
-4.4936 1.0337 -2.5254 0.9792
-4.5288 0.8717 -2.5260 0.9792
-4.5814 0.5446 -2.5269 0.9792
-4.5988 0.3798 -2.5274 0.9792
-4.6101 0.2144 -2.5277 0.9792
-4.6147 -0.1171 -2.5283 0.9792
-4.5763 -0.6129 -2.5289 0.9792
-4.5515 -0.7769 -2.5289 0.9792
-4.5208 -0.9399 -2.5290 0.9792
-4.4415 -1.2620 -2.5289 0.9792
-4.3931 -1.4206 -2.5288 0.9792
-4.2138 -1.8845 -2.5282 0.9792
0.5505 4.2723 -2.4870 0.9803
0.3965 4.2870 -2.4857 0.9803
-0.0670 4.3054 -2.4860 0.9803
-0.2216 4.3014 -2.4867 0.9803
-0.3761 4.2924 -2.4877 0.9803
-0.6839 4.2586 -2.4902 0.9803
-1.1397 4.1665 -2.4939 0.9802
-1.4373 4.0780 -2.4964 0.9802
-1.8704 3.9055 -2.5001 0.9802
-2.0104 3.8377 -2.5013 0.9802
-2.1479 3.7648 -2.5025 0.9802
-2.2829 3.6870 -2.5037 0.9802
-2.4149 3.6043 -2.5048 0.9802
-2.6699 3.4247 -2.5071 0.9801
-3.2457 2.8989 -2.5125 0.9801
-3.3491 2.7815 -2.5135 0.9801
-3.8748 2.0052 -2.5190 0.9801
-3.9456 1.8654 -2.5197 0.9800
-4.0112 1.7230 -2.5205 0.9800
-4.0717 1.5782 -2.5212 0.9800
-4.1269 1.4314 -2.5219 0.9800
-4.1767 1.2826 -2.5225 0.9800
-4.2210 1.1320 -2.5231 0.9800
-4.2599 0.9799 -2.5237 0.9800
-4.2933 0.8264 -2.5242 0.9800
-4.3595 0.3600 -2.5255 0.9800
-4.3752 0.0462 -2.5262 0.9800
-4.3745 -0.1110 -2.5264 0.9800
-4.3380 -0.5810 -2.5269 0.9800
-4.3145 -0.7365 -2.5270 0.9800
-4.2506 -1.0443 -2.5270 0.9800
-4.2102 -1.1962 -2.5270 0.9800
-4.1644 -1.3467 -2.5269 0.9800
-4.1131 -1.4952 -2.5267 0.9800
-4.0564 -1.6419 -2.5265 0.9800
-3.9944 -1.7863 -2.5263 0.9800
