ply
format ascii 1.0
element vertex 1148
property float32 x
property float32 y
property float32 z
property float32 I
end_header
19.5050 11.5348 3.9957 0.9121
19.3946 15.6324 4.3924 0.9038
19.3269 18.0256 4.6600 0.8982
19.1605 23.8950 5.4006 0.8830
19.1099 25.6779 5.6440 0.8781
-1.2004 14.6166 2.5860 0.9422
-1.7325 14.6106 2.5943 0.9420
-3.3596 14.5923 2.6403 0.9410
-3.9173 14.5860 2.6630 0.9405
-4.4854 14.5796 2.6897 0.9399
-6.2712 14.5594 2.7952 0.9376
-6.9008 14.5523 2.8399 0.9367
-6.3752 12.2789 2.4395 0.9454
-6.8377 12.0826 2.4480 0.9452
-7.4215 12.0760 2.4993 0.9441
-10.4314 14.5121 3.1514 0.9300
-11.2401 14.5029 3.2354 0.9282
-13.9652 14.4719 3.5461 0.9216
-14.9983 14.4600 3.6735 0.9189
-17.3126 14.4335 3.9744 0.9125
-29.3951 22.7604 6.5553 0.8598
-29.3240 16.5771 5.9396 0.8721
-30.9360 14.6529 6.0358 0.8702
-33.9797 14.6179 6.5224 0.8605
-37.5625 14.5767 7.1045 0.8490
-41.8532 14.5272 7.8118 0.8353
19.5067 11.5357 3.4718 0.9124
19.3964 15.6339 3.8165 0.9041
19.1627 23.8977 4.6926 0.8834
18.9957 29.7918 5.4128 0.8668
-1.7325 14.6113 2.2540 0.9422
-3.9174 14.5867 2.3138 0.9407
-4.4856 14.5803 2.3369 0.9401
-5.0660 14.5737 2.3637 0.9395
-5.6606 14.5670 2.3942 0.9387
-5.7803 12.1893 2.0667 0.9469
-6.2769 12.0896 2.0868 0.9464
-6.8380 12.0832 2.1269 0.9454
-7.4219 12.0766 2.1715 0.9443
-8.0316 12.0697 2.2210 0.9430
-10.4320 14.5130 2.7381 0.9302
-11.2407 14.5038 2.8111 0.9284
-11.6079 12.0290 2.5609 0.9346
-14.9993 14.4610 3.1918 0.9191
-16.1110 14.4483 3.3152 0.9162
-29.3924 22.7583 5.6947 0.8603
-19.7340 10.2345 3.4055 0.9140
-30.7742 14.5763 5.2165 0.8713
-33.9835 14.6195 5.6674 0.8610
-37.5670 14.5784 6.1732 0.8495
19.3953 12.4356 3.0002 0.9113
19.3855 13.4403 3.0718 0.9092
19.4101 14.5215 3.1567 0.9068
19.3654 16.7968 3.3382 0.9018
19.3307 18.0291 3.4422 0.8989
19.2936 19.3423 3.5576 0.8957
19.2539 20.7486 3.6860 0.8921
19.2111 22.2622 3.8292 0.8882
19.1144 25.6839 4.1692 0.8788
18.9981 29.7957 4.6016 0.8672
18.8540 34.8888 5.1642 0.8522
18.7676 37.9412 5.5121 0.8430
-1.2005 14.6179 1.9100 0.9426
-1.7326 14.6119 1.9161 0.9424
-2.2689 14.6059 1.9248 0.9421
-2.8108 14.5998 1.9361 0.9418
-3.3599 14.5936 1.9501 0.9414
-3.9176 14.5874 1.9669 0.9409
-4.4858 14.5810 1.9866 0.9403
-5.6608 14.5677 2.0352 0.9389
-5.7362 12.0963 1.7433 0.9474
-6.8384 12.0839 1.8081 0.9455
-7.4223 12.0772 1.8460 0.9444
-10.4326 14.5138 2.3276 0.9304
-10.4682 13.5069 2.2253 0.9334
-10.8063 12.0389 2.1066 0.9368
-12.4131 11.9676 2.2453 0.9328
-16.1121 14.4492 2.8182 0.9164
-29.4033 21.1150 4.7139 0.8641
-29.3355 18.0103 4.4826 0.8704
-29.4352 16.6400 4.4032 0.8725
-19.7322 10.2336 2.8945 0.9142
-41.8642 14.5311 5.7707 0.8363
19.5099 11.5377 2.4339 0.9128
19.3970 12.4367 2.4742 0.9115
19.4118 14.5228 2.6033 0.9071
19.3672 16.7984 2.7530 0.9020
19.2559 20.7507 3.0398 0.8924
19.2132 22.2646 3.1579 0.8884
19.1670 23.9030 3.2900 0.8840
19.1166 25.6869 3.4383 0.8791
19.0006 29.7996 3.7951 0.8675
18.8567 34.8939 4.2591 0.8525
18.6716 41.4462 4.8813 0.8329
-0.6710 14.6245 1.5721 0.9428
-1.2005 14.6185 1.5750 0.9427
-1.7327 14.6126 1.5801 0.9425
-2.2566 14.5267 1.5786 0.9426
-2.7956 14.5207 1.5879 0.9422
-4.9884 12.8372 1.4789 0.9461
-5.1904 12.0500 1.4089 0.9486
-5.7115 12.0442 1.4314 0.9478
-6.2776 12.0908 1.4629 0.9467
-6.8387 12.0845 1.4910 0.9457
-7.4227 12.0779 1.5223 0.9446
-8.6715 12.0638 1.5954 0.9420
-17.3162 14.4365 2.4209 0.9133
-29.3870 22.7541 3.9910 0.8611
-29.4327 16.6387 3.6306 0.8728
-31.0912 14.7264 3.6942 0.8707
-33.9910 14.6227 3.9734 0.8617
-37.5760 14.5819 4.3281 0.8503
19.3889 13.4426 1.9972 0.9096
19.4017 15.6381 2.1095 0.9048
19.3691 16.7999 2.1705 0.9022
19.2578 20.7529 2.3967 0.8926
19.0030 29.8033 2.9922 0.8677
18.7734 37.9528 3.5844 0.8437
18.6747 41.4531 3.8488 0.8332
14.3349 43.9904 3.9166 0.8305
12.5526 43.8298 3.8595 0.8328
9.1494 43.6202 3.7729 0.8362
7.5086 43.5676 3.7425 0.8374
5.8964 43.5483 3.7201 0.8383
4.3036 43.5530 3.7048 0.8389
-0.6711 14.6251 1.2394 0.9429
-1.7328 14.6132 1.2457 0.9426
-3.9180 14.5887 1.2787 0.9412
-4.4862 14.5823 1.2915 0.9406
-5.0667 14.5758 1.3063 0.9399
-5.6614 14.5691 1.3232 0.9392
-7.9678 14.0795 1.3695 0.9371
-8.9334 13.4249 1.3651 0.9373
-12.4691 12.0215 1.4662 0.9328
-13.3933 12.0110 1.5229 0.9303
-17.3174 14.4375 1.9086 0.9135
-29.3305 18.0073 2.9135 0.8710
-19.7285 10.2316 1.8813 0.9147
-30.9486 14.6588 2.8989 0.8716
-33.9947 14.6243 3.1327 0.8620
-37.5805 14.5837 3.4124 0.8506
19.4002 12.4387 1.4291 0.9118
19.4152 14.5254 1.5036 0.9074
19.3362 18.0343 1.6396 0.8995
19.2173 22.2693 1.8240 0.8888
19.1712 23.9083 1.9003 0.8844
19.1211 25.6928 1.9860 0.8795
19.0661 27.6485 2.0826 0.8741
19.0054 29.8071 2.1921 0.8679
18.8621 34.9038 2.4602 0.8530
17.0761 37.9045 2.5780 0.8465
15.6973 38.4954 2.5780 0.8465
10.8449 37.8670 2.4425 0.8540
7.9176 37.7475 2.3917 0.8568
5.1122 37.7564 2.3626 0.8584
3.7339 37.7877 2.3547 0.8588
-0.3545 36.3043 2.2513 0.8646
-2.8248 14.6723 0.9265 0.9419
-3.3603 14.5956 0.9288 0.9417
-3.9182 14.5894 0.9368 0.9413
-5.0669 14.5765 0.9569 0.9400
-6.9046 14.5603 0.9993 0.9375
-9.6653 14.5248 1.0819 0.9325
-8.9528 12.4551 0.9512 0.9404
-13.1809 12.7078 1.1353 0.9293
-16.1931 14.5219 1.3488 0.9165
-17.3186 14.4385 1.3982 0.9136
-29.3629 21.0860 2.2417 0.8651
-29.3450 19.5080 2.1851 0.8683
-29.3281 18.0058 2.1340 0.8712
-29.3119 16.5703 2.0880 0.8738
-30.9517 14.6603 2.1237 0.8717
-35.2369 13.6742 2.3438 0.8594
19.3922 13.4449 0.9305 0.9099
19.3381 18.0360 1.0427 0.8996
19.3012 19.3500 1.0777 0.8964
19.2618 20.7571 1.1166 0.8928
19.2193 22.2717 1.1600 0.8889
19.1233 25.6958 1.2630 0.8797
16.8780 34.1210 1.5010 0.8587
13.7929 33.8252 1.4404 0.8640
12.3433 33.6995 1.4151 0.8662
10.9448 33.5869 1.3929 0.8681
9.5903 33.4864 1.3735 0.8698
8.2735 33.3973 1.3567 0.8713
6.9887 33.3188 1.3424 0.8726
5.7298 33.2466 1.3303 0.8737
4.5136 33.3352 1.3264 0.8740
0.8511 32.3296 1.2752 0.8786
-0.3156 32.3210 1.2745 0.8786
-1.7329 14.6145 0.5803 0.9428
-2.2803 14.6791 0.5858 0.9423
-2.8249 14.6730 0.5892 0.9419
-3.3605 14.5963 0.5906 0.9418
-3.9183 14.5901 0.5957 0.9413
-4.4866 14.5837 0.6016 0.9407
-5.0672 14.5772 0.6085 0.9401
-5.6619 14.5705 0.6164 0.9393
-5.3824 12.4959 0.5365 0.9470
-6.9085 14.5684 0.6358 0.9375
-7.5600 14.5607 0.6469 0.9364
-8.2293 14.5417 0.6588 0.9353
-9.6658 14.5255 0.6880 0.9325
-8.9533 12.4558 0.6049 0.9404
-9.6474 12.4479 0.6210 0.9389
-12.0983 14.4982 0.7446 0.9272
-13.1800 12.7070 0.7219 0.9293
-16.1942 14.5228 0.8577 0.9166
-17.3198 14.4395 0.8891 0.9137
-29.3790 22.7479 1.4651 0.8618
-29.3256 18.0043 1.3569 0.8713
-29.4255 16.6345 1.3328 0.8734
-19.7248 10.2297 0.8761 0.9149
-33.8382 14.5570 1.4525 0.8629
-33.8341 13.1298 1.4311 0.8648
19.5163 11.5415 0.3830 0.9133
19.3938 13.4461 0.3986 0.9099
19.4186 14.5279 0.4097 0.9075
19.4069 15.6423 0.4210 0.9051
19.3744 16.8046 0.4332 0.9025
19.3399 18.0377 0.4467 0.8996
19.3031 19.3519 0.4617 0.8964
19.2637 20.7592 0.4784 0.8929
19.1754 23.9136 0.5178 0.8846
19.1255 25.6988 0.5411 0.8797
19.0707 27.6552 0.5675 0.8742
19.0103 29.8147 0.5973 0.8681
16.3502 30.2559 0.5810 0.8715
14.9867 30.2974 0.5710 0.8735
11.0309 30.1163 0.5418 0.8796
9.7974 30.0659 0.5342 0.8812
8.5975 30.0198 0.5275 0.8826
7.4264 29.9779 0.5217 0.8838
6.2799 29.9397 0.5167 0.8848
5.1540 29.9052 0.5126 0.8857
-0.2845 29.1305 0.4921 0.8900
-0.6712 14.6271 0.2473 0.9431
-3.3606 14.5969 0.2530 0.9418
-3.9185 14.5907 0.2552 0.9414
-5.6622 14.5712 0.2641 0.9394
-6.9123 14.5765 0.2725 0.9375
-7.5642 14.5690 0.2773 0.9364
-8.2297 14.5424 0.2823 0.9353
-9.6663 14.5263 0.2947 0.9326
-8.9538 12.4564 0.2591 0.9405
-9.6480 12.4487 0.2660 0.9389
-16.1952 14.5237 0.3675 0.9167
-29.3764 22.7459 0.6276 0.8619
-29.4142 21.1228 0.6117 0.8651
-29.3232 18.0028 0.5812 0.8714
-34.0058 14.6291 0.6253 0.8623
-37.5938 14.5888 0.6812 0.8510
19.5179 11.5424 -0.1277 0.9133
19.3955 13.4472 -0.1329 0.9099
19.4203 14.5292 -0.1366 0.9075
19.4087 15.6437 -0.1404 0.9051
19.3762 16.8061 -0.1444 0.9025
19.3417 18.0394 -0.1489 0.8996
19.3050 19.3538 -0.1539 0.8964
19.1277 25.7017 -0.1804 0.8797
18.3417 26.5980 -0.1819 0.8788
17.3525 27.2146 -0.1817 0.8789
16.0051 27.2205 -0.1778 0.8813
14.7078 27.2162 -0.1742 0.8836
11.0909 27.1990 -0.1654 0.8891
9.9597 27.1918 -0.1630 0.8906
7.7829 27.1755 -0.1592 0.8931
6.7299 27.1663 -0.1576 0.8941
5.6961 27.1565 -0.1562 0.8949
3.6740 27.1346 -0.1542 0.8963
2.6801 27.1226 -0.1534 0.8967
1.6941 27.1100 -0.1529 0.8970
0.6969 26.4689 -0.1491 0.8995
-0.2584 26.4656 -0.1490 0.8995
-1.2008 14.6218 -0.0826 0.9430
-1.7331 14.6158 -0.0829 0.9428
-2.2695 14.6098 -0.0832 0.9426
-2.8116 14.6037 -0.0837 0.9422
-3.9187 14.5914 -0.0851 0.9414
-4.4871 14.5850 -0.0859 0.9408
-5.0676 14.5785 -0.0869 0.9401
-6.9157 14.5836 -0.0909 0.9375
-8.2301 14.5431 -0.0941 0.9353
-8.9329 14.5353 -0.0961 0.9340
-9.6668 14.5271 -0.0982 0.9326
-9.6485 12.4493 -0.0887 0.9389
-13.1783 12.7054 -0.1031 0.9294
-29.3375 19.5030 -0.1983 0.8686
-19.7211 10.2278 -0.1251 0.9150
-30.9610 14.6647 -0.1929 0.8719
-34.0095 14.6307 -0.2085 0.8623
-41.8970 14.5425 -0.2497 0.8374
-44.5670 10.2392 -0.2575 0.8328
19.4067 12.4429 -0.6491 0.9119
19.3972 13.4484 -0.6646 0.9099
19.4220 14.5305 -0.6830 0.9075
19.4104 15.6452 -0.7020 0.9051
19.3436 18.0411 -0.7448 0.8996
19.2677 20.7634 -0.7976 0.8928
18.7511 23.3842 -0.8440 0.8870
17.4911 23.5025 -0.8249 0.8894
16.6966 24.2124 -0.8282 0.8890
14.3184 24.3520 -0.7954 0.8931
10.0113 24.5513 -0.7466 0.8993
5.1730 24.6626 -0.7096 0.9041
0.6324 24.0207 -0.6766 0.9083
-0.6712 14.6283 -0.4123 0.9431
-1.2008 14.6224 -0.4131 0.9430
-1.7332 14.6164 -0.4145 0.9428
-2.2696 14.6104 -0.4163 0.9426
-2.8117 14.6044 -0.4188 0.9422
-3.3609 14.5982 -0.4218 0.9418
-3.9189 14.5920 -0.4254 0.9413
-4.4872 14.5857 -0.4297 0.9408
-7.5627 14.5660 -0.4621 0.9364
-8.2305 14.5438 -0.4705 0.9353
-9.6673 14.5278 -0.4914 0.9326
-8.9547 12.4578 -0.4320 0.9405
-9.6490 12.4500 -0.4435 0.9389
-13.1775 12.7045 -0.5154 0.9294
-17.3233 14.4424 -0.6351 0.9137
-29.3350 19.5013 -0.9919 0.8685
-29.3183 17.9997 -0.9687 0.8714
-19.7193 10.2269 -0.6255 0.9149
-30.9641 14.6662 -0.9647 0.8719
-33.7047 14.4996 -1.0331 0.8634
-44.5231 10.2291 -1.2863 0.8329
19.5211 11.5443 -1.1502 0.9132
19.4083 12.4439 -1.1692 0.9118
19.3988 13.4495 -1.1971 0.9098
19.4121 15.6465 -1.2644 0.9050
19.3798 16.8092 -1.3010 0.9024
19.3454 18.0428 -1.3416 0.8995
19.3088 19.3576 -1.3866 0.8963
18.6411 20.0881 -1.3898 0.8960
10.8366 21.9075 -1.2395 0.9067
9.9074 21.9918 -1.2232 0.9079
7.2317 22.1923 -1.1837 0.9108
4.6821 22.3220 -1.1567 0.9127
2.2122 22.3876 -1.1409 0.9138
-0.6712 14.6290 -0.7427 0.9430
-1.7332 14.6171 -0.7465 0.9428
-3.3611 14.5989 -0.7597 0.9418
-5.0681 14.5799 -0.7828 0.9401
-5.6630 14.5732 -0.7929 0.9393
-5.3834 12.4982 -0.6901 0.9470
-6.9061 14.5633 -0.8174 0.9375
-7.5573 14.5557 -0.8317 0.9364
-8.2309 14.5446 -0.8475 0.9353
-8.9338 14.5368 -0.8653 0.9339
-9.6496 12.4507 -0.7989 0.9389
-12.7342 14.1867 -0.9668 0.9265
-13.2725 13.7540 -0.9693 0.9263
-17.3245 14.4434 -1.1439 0.9136
-20.9047 16.1863 -1.3408 0.8995
-21.4697 15.4177 -1.3405 0.8995
-23.1639 15.3989 -1.4106 0.8946
-24.5911 15.0975 -1.4634 0.8909
-25.6169 14.4815 -1.4924 0.8888
-19.7174 10.2259 -1.1264 0.9149
-31.1131 14.7368 -1.7459 0.8712
-33.7021 14.4985 -1.8606 0.8633
-33.6708 11.6872 -1.8075 0.8670
-41.8987 11.2320 -2.1999 0.8405
19.5228 11.5453 -1.6630 0.9130
19.4099 12.4450 -1.6906 0.9117
19.4005 13.4507 -1.7309 0.9097
19.4254 14.5330 -1.7788 0.9073
17.6343 17.6787 -1.8309 0.9047
16.6499 17.9425 -1.7947 0.9065
15.8220 18.3346 -1.7757 0.9074
12.2116 19.1520 -1.6654 0.9129
10.5208 19.4683 -1.6226 0.9151
9.6960 19.6016 -1.6035 0.9160
4.9830 20.1146 -1.5194 0.9202
-0.1917 19.6295 -1.4393 0.9243
-0.6713 14.6296 -1.0738 0.9430
-2.2698 14.6118 -1.0842 0.9424
-2.8120 14.6057 -1.0906 0.9421
-3.9192 14.5934 -1.1079 0.9412
-4.8371 13.9153 -1.0802 0.9426
-4.8271 12.4222 -0.9772 0.9480
-5.3482 12.4164 -0.9913 0.9472
-5.8851 12.4104 -1.0071 0.9464
-6.4403 12.4043 -1.0248 0.9455
-8.2409 12.3842 -1.0907 0.9421
-8.8966 12.3769 -1.1176 0.9407
-10.3151 12.3612 -1.1805 0.9375
-11.0879 12.3526 -1.2171 0.9356
-13.4049 12.0214 -1.3202 0.9303
-17.3256 14.4444 -1.6539 0.9135
-21.1167 12.9645 -1.8168 0.9054
-19.6656 10.1990 -1.6243 0.9150
-24.9546 11.8198 -2.0246 0.8952
-29.6813 11.5183 -2.3344 0.8801
-31.4764 9.6679 -2.4143 0.8763
-34.5877 6.6427 -2.5824 0.8683
19.5244 11.5462 -2.1777 0.9129
18.9487 12.1492 -2.1610 0.9135
18.2709 12.6675 -2.1344 0.9145
16.9400 14.6930 -2.1528 0.9138
16.1327 15.0464 -2.1179 0.9152
13.7803 15.9688 -2.0250 0.9187
13.0196 16.2366 -1.9980 0.9198
11.5286 16.7179 -1.9496 0.9216
10.7968 16.9331 -1.9280 0.9225
10.0733 17.1321 -1.9080 0.9232
8.6486 17.4842 -1.8727 0.9246
7.2494 17.7783 -1.8432 0.9257
6.5522 17.8886 -1.8290 0.9263
3.8182 18.2035 -1.7857 0.9280
3.1462 18.2551 -1.7784 0.9283
1.8110 18.3272 -1.7681 0.9287
1.1052 17.6854 -1.7012 0.9313
-0.1729 17.7111 -1.7004 0.9313
-0.6713 14.6303 -1.4061 0.9428
-1.2010 14.6244 -1.4087 0.9427
-1.7334 14.6184 -1.4133 0.9426
-2.8121 14.6063 -1.4280 0.9420
-3.9194 14.5940 -1.4507 0.9411
-4.4879 14.5877 -1.4653 0.9405
-4.8360 13.9122 -1.4140 0.9425
-6.2829 12.1011 -1.3090 0.9467
-7.4291 12.0884 -1.3622 0.9446
-8.0395 12.0816 -1.3932 0.9434
-8.6792 12.0745 -1.4276 0.9420
-9.3688 12.0884 -1.4683 0.9404
-11.3631 11.7754 -1.5710 0.9364
-13.1090 11.7561 -1.6905 0.9317
-17.3268 14.4453 -2.1657 0.9133
-18.2041 14.0953 -2.2103 0.9116
-18.7254 13.4470 -2.2132 0.9115
-20.1457 11.3886 -2.2217 0.9112
-23.2077 9.0061 -2.3899 0.9048
-25.0803 8.7054 -2.5488 0.8988
-25.9570 5.9636 -2.5569 0.8985
-26.1814 5.0282 -2.5595 0.8984
17.3070 10.2349 -2.3884 0.9222
16.8438 10.7996 -2.3768 0.9226
15.1179 12.1852 -2.3065 0.9248
14.5178 12.5921 -2.2828 0.9255
13.3121 13.3456 -2.2391 0.9269
12.7069 13.6932 -2.2190 0.9275
11.4926 14.3322 -2.1822 0.9287
10.8737 14.6109 -2.1635 0.9293
9.5937 15.0461 -2.1197 0.9306
8.3332 15.4202 -2.0821 0.9318
7.7095 15.5856 -2.0655 0.9324
6.4733 15.8749 -2.0365 0.9333
4.6425 16.2102 -2.0029 0.9343
4.0372 16.2967 -1.9943 0.9346
3.4366 16.3841 -1.9886 0.9348
2.2388 16.5346 -1.9820 0.9350
1.5719 15.9077 -1.8988 0.9376
-0.1161 11.8908 -1.4125 0.9532
-0.5456 11.8901 -1.4139 0.9532
-1.2010 14.6250 -1.7431 0.9426
-1.7335 14.6190 -1.7487 0.9424
-2.2810 14.6837 -1.7651 0.9419
-3.3615 14.6009 -1.7798 0.9414
-4.4881 14.5884 -1.8130 0.9404
-4.8349 13.9090 -1.7492 0.9424
-4.8186 12.4002 -1.5803 0.9478
-5.1022 11.8454 -1.5320 0.9494
-6.1442 11.8338 -1.5839 0.9477
-6.6935 11.8278 -1.6143 0.9467
-7.8620 11.8148 -1.6858 0.9444
-9.5883 11.4902 -1.7777 0.9415
-10.3067 11.4823 -1.8328 0.9397
-11.0721 11.4738 -1.8940 0.9378
-12.4722 11.1850 -1.9900 0.9347
-13.4039 11.1748 -2.0729 0.9321
-16.5828 11.0239 -2.3654 0.9229
-19.8922 7.7194 -2.5346 0.9176
-20.1761 7.0031 -2.5369 0.9176
-20.8682 4.7944 -2.5434 0.9174
14.7751 8.7376 -2.4321 0.9330
14.4199 9.2455 -2.4270 0.9331
13.2165 10.6526 -2.4052 0.9337
10.6502 12.3415 -2.3098 0.9363
10.1212 12.6220 -2.2924 0.9367
9.0593 13.1372 -2.2611 0.9376
7.9928 13.5936 -2.2343 0.9383
7.4578 13.8004 -2.2226 0.9386
6.3847 14.1722 -2.2024 0.9391
5.8419 14.3265 -2.1922 0.9394
5.2950 14.4563 -2.1814 0.9397
4.2018 14.6715 -2.1624 0.9402
2.5681 14.9007 -2.1424 0.9407
1.4173 14.3425 -2.0421 0.9434
0.3790 14.3964 -2.0405 0.9435
-2.2701 14.6137 -2.0954 0.9420
-3.3617 14.6016 -2.1230 0.9413
-4.8176 12.3977 -1.8846 0.9477
-5.4706 11.5364 -1.8091 0.9497
-7.6445 11.4880 -1.9552 0.9458
-8.7014 11.2273 -2.0126 0.9442
-10.0643 11.2123 -2.1348 0.9409
-12.1365 10.8839 -2.3098 0.9363
-12.7621 10.6397 -2.3542 0.9351
-13.1495 10.1815 -2.3564 0.9350
-14.9140 9.1563 -2.4796 0.9317
-15.4755 8.7484 -2.5188 0.9307
-15.7942 8.1912 -2.5209 0.9306
-16.3701 7.0423 -2.5250 0.9305
-17.0740 5.2443 -2.5307 0.9304
-17.2167 4.6154 -2.5256 0.9305
-17.6990 2.7411 -2.5377 0.9302
12.2351 8.4828 -2.4527 0.9414
11.9144 8.9137 -2.4513 0.9415
11.2084 9.7217 -2.4443 0.9416
10.8358 10.1061 -2.4410 0.9417
10.4492 10.4754 -2.4375 0.9418
10.0070 10.7838 -2.4236 0.9421
8.6329 11.5999 -2.3821 0.9431
8.1598 11.8329 -2.3679 0.9434
7.6847 12.0523 -2.3547 0.9437
6.7287 12.4512 -2.3316 0.9442
4.3062 13.2146 -2.2896 0.9452
3.8091 13.3000 -2.2791 0.9455
2.8231 13.4589 -2.2655 0.9458
1.8409 13.5958 -2.2602 0.9459
1.2928 13.0826 -2.1657 0.9481
0.3488 13.2484 -2.1833 0.9477
-0.5404 11.7780 -1.9423 0.9533
-2.4832 12.8982 -2.1639 0.9481
-2.9492 12.8098 -2.1655 0.9481
-3.4120 12.7047 -2.1671 0.9481
-3.8711 12.5830 -2.1688 0.9480
-4.3260 12.4449 -2.1705 0.9480
-4.7759 12.2903 -2.1722 0.9480
-2.8450 5.4796 -1.0171 0.9753
-3.1162 5.0705 -0.9805 0.9762
-3.5423 4.9280 -0.9998 0.9757
-3.7926 4.8936 -1.0199 0.9752
-4.0847 4.8949 -1.0503 0.9745
-10.2605 9.8922 -2.3480 0.9439
-10.6191 9.5231 -2.3498 0.9438
-11.1624 9.3061 -2.3941 0.9428
-11.9590 9.2597 -2.4917 0.9405
-12.3704 8.8833 -2.5089 0.9401
-12.9981 7.9801 -2.5127 0.9400
-13.8138 6.5429 -2.5180 0.9399
-14.0505 6.0444 -2.5198 0.9399
-14.6499 4.4997 -2.5247 0.9398
-14.9543 3.4357 -2.5278 0.9397
-15.0772 2.8956 -2.5292 0.9397
-15.1803 2.3510 -2.5306 0.9396
10.7536 7.4556 -2.4595 0.9481
10.2067 8.2267 -2.4640 0.9480
9.9127 8.5978 -2.4664 0.9480
9.2677 9.2910 -2.4666 0.9480
7.8073 10.4905 -2.4579 0.9482
6.9751 10.9393 -2.4386 0.9486
6.1254 11.3349 -2.4217 0.9489
5.6900 11.5030 -2.4122 0.9491
4.3718 11.9357 -2.3892 0.9496
3.9287 12.0562 -2.3834 0.9497
3.4840 12.1650 -2.3785 0.9498
3.0377 12.2621 -2.3745 0.9499
2.5838 12.3184 -2.3658 0.9501
0.7557 12.0935 -2.2775 0.9519
-0.1122 11.4874 -2.1593 0.9543
-0.5269 11.4828 -2.1606 0.9543
-1.7696 11.3917 -2.1669 0.9542
-2.1923 11.3870 -2.1796 0.9539
-2.5690 5.4174 -1.1270 0.9759
-3.4802 4.8416 -1.1207 0.9760
-3.7296 4.8122 -1.1444 0.9755
-4.2426 4.7266 -1.1938 0.9745
-4.5332 4.6976 -1.2270 0.9738
-9.5734 9.2298 -2.4995 0.9473
-9.9070 8.8845 -2.5013 0.9473
-11.3784 6.9856 -2.5096 0.9471
-11.8675 6.1547 -2.5128 0.9470
-12.2953 5.2894 -2.5158 0.9470
-12.8167 3.9366 -2.5201 0.9469
-13.0810 3.0053 -2.5228 0.9468
-13.2768 2.0562 -2.5253 0.9468
10.0220 5.9267 -2.4612 0.9535
9.8091 6.2892 -2.4630 0.9535
9.5833 6.6442 -2.4650 0.9534
9.3448 6.9912 -2.4669 0.9534
9.0941 7.3299 -2.4690 0.9534
7.9731 8.5921 -2.4777 0.9532
7.6651 8.8823 -2.4800 0.9532
7.3465 9.1617 -2.4823 0.9531
6.6671 9.6682 -2.4825 0.9531
5.5734 10.3134 -2.4780 0.9532
5.1973 10.5068 -2.4778 0.9532
4.8142 10.6863 -2.4775 0.9532
4.4157 10.8289 -2.4720 0.9533
2.7903 11.2635 -2.4529 0.9537
2.3793 11.3433 -2.4499 0.9537
1.9668 11.4120 -2.4478 0.9538
1.5520 11.4622 -2.4450 0.9538
1.1411 11.5477 -2.4528 0.9537
0.7047 11.2775 -2.3885 0.9549
-0.1095 11.2141 -2.3706 0.9552
-0.9187 11.1874 -2.3728 0.9551
-1.3121 11.0652 -2.3553 0.9555
-1.6989 10.9362 -2.3394 0.9558
-2.0833 10.8208 -2.3293 0.9559
-2.8510 10.6158 -2.3235 0.9561
-2.2547 5.8022 -1.3158 0.9749
-2.3304 5.4103 -1.2452 0.9762
-2.4064 5.0746 -1.1872 0.9773
-2.7682 4.8916 -1.1881 0.9773
-3.2072 4.8197 -1.2237 0.9766
-3.4385 4.7836 -1.2453 0.9762
-3.6913 4.7628 -1.2737 0.9757
-4.1906 4.6686 -1.3261 0.9747
-8.5084 8.2031 -2.4983 0.9528
-9.0889 7.5774 -2.5013 0.9528
-9.3620 7.2489 -2.5028 0.9527
-10.1081 6.2058 -2.5072 0.9527
-10.3312 5.8403 -2.5086 0.9526
-10.7373 5.0857 -2.5114 0.9526
-11.3805 3.4955 -2.5165 0.9525
9.0312 5.3408 -2.4659 0.9578
8.8387 5.6670 -2.4676 0.9578
8.6346 5.9865 -2.4693 0.9577
7.9550 6.8998 -2.4749 0.9577
7.1802 7.7375 -2.4808 0.9576
6.9021 7.9982 -2.4829 0.9575
6.6146 8.2490 -2.4850 0.9575
6.3182 8.4896 -2.4872 0.9574
6.0130 8.7197 -2.4893 0.9574
5.3782 9.1468 -2.4938 0.9573
5.0492 9.3434 -2.4960 0.9573
4.7131 9.5281 -2.4983 0.9573
4.3703 9.7009 -2.5006 0.9572
3.6647 10.0051 -2.5042 0.9572
3.3011 10.1301 -2.5040 0.9572
2.9337 10.2436 -2.5043 0.9572
2.5629 10.3455 -2.5049 0.9572
1.4330 10.5835 -2.5101 0.9571
1.0510 10.6362 -2.5119 0.9570
0.6677 10.6841 -2.5159 0.9570
0.2826 10.7351 -2.5239 0.9568
-0.1024 10.4906 -2.4656 0.9578
-0.4702 10.2470 -2.4108 0.9587
-0.8260 10.0580 -2.3718 0.9594
-1.1759 9.9169 -2.3470 0.9598
-2.0044 5.7663 -1.4348 0.9752
-2.1183 5.4512 -1.3745 0.9763
-2.1964 5.0993 -1.3049 0.9774
-2.3242 4.9011 -1.2748 0.9780
-3.1751 4.7714 -1.3470 0.9767
-3.8810 4.6508 -1.4236 0.9754
-4.1350 4.6067 -1.4549 0.9749
-7.9148 7.0979 -2.4986 0.9573
-8.1702 6.8115 -2.5000 0.9572
-8.4152 6.5158 -2.5013 0.9572
-9.0842 5.5771 -2.5053 0.9571
-9.2842 5.2484 -2.5065 0.9571
-9.4723 4.9125 -2.5078 0.9571
-9.6480 4.5698 -2.5090 0.9571
-9.8113 4.2207 -2.5102 0.9571
-9.9619 3.8658 -2.5114 0.9570
-10.0994 3.5055 -2.5125 0.9570
-10.4325 2.3968 -2.5158 0.9570
-10.5164 2.0197 -2.5168 0.9570
-10.5865 1.6396 -2.5177 0.9569
8.2109 4.8556 -2.4699 0.9614
8.0353 5.1519 -2.4714 0.9613
7.6529 5.7254 -2.4746 0.9613
7.2300 6.2710 -2.4780 0.9612
7.0041 6.5324 -2.4798 0.9612
6.5244 7.0308 -2.4835 0.9611
6.2712 7.2671 -2.4853 0.9611
6.0096 7.4945 -2.4873 0.9611
5.7398 7.7124 -2.4892 0.9611
5.1770 8.1192 -2.4932 0.9610
4.8846 8.3075 -2.4952 0.9610
4.5855 8.4853 -2.4973 0.9609
4.2799 8.6523 -2.4993 0.9609
3.9683 8.8085 -2.5014 0.9609
3.0009 9.2089 -2.5078 0.9608
2.6689 9.3191 -2.5099 0.9607
2.3329 9.4173 -2.5120 0.9607
0.6077 9.7239 -2.5226 0.9605
-0.0952 9.7479 -2.5240 0.9605
-0.4447 9.6934 -2.5124 0.9607
-1.1335 9.5594 -2.4924 0.9610
-1.5608 5.8117 -1.5581 0.9754
-1.7138 5.5706 -1.5091 0.9762
-1.8546 5.3353 -1.4625 0.9769
-1.9820 5.1004 -1.4168 0.9776
-2.1143 4.9087 -1.3838 0.9782
-2.3082 4.8675 -1.3948 0.9780
-2.7089 4.7869 -1.4241 0.9775
-2.9221 4.7547 -1.4450 0.9772
-3.1404 4.7194 -1.4677 0.9768
-3.6102 4.6582 -1.5259 0.9759
-4.1167 4.5863 -1.5957 0.9749
-4.3834 4.5424 -1.6344 0.9743
-7.1816 6.4404 -2.4976 0.9609
-7.6348 5.9115 -2.5001 0.9609
-7.8469 5.6350 -2.5013 0.9609
-8.2406 5.0592 -2.5037 0.9608
-8.5918 4.4559 -2.5060 0.9608
-8.7509 4.1448 -2.5071 0.9608
-9.0347 3.5060 -2.5092 0.9607
-9.1591 3.1791 -2.5103 0.9607
-9.5357 1.8313 -2.5141 0.9607
-9.5990 1.4866 -2.5150 0.9607
7.5198 4.4470 -2.4732 0.9643
7.3587 4.7181 -2.4746 0.9643
7.1879 4.9834 -2.4761 0.9643
7.0076 5.2427 -2.4776 0.9643
6.6197 5.7416 -2.4807 0.9642
6.4124 5.9806 -2.4823 0.9642
5.7404 6.6520 -2.4874 0.9641
5.2532 7.0587 -2.4909 0.9641
3.9158 7.9162 -2.5002 0.9640
2.7448 8.4229 -2.5079 0.9638
2.4410 8.5231 -2.5098 0.9638
2.1335 8.6123 -2.5118 0.9638
1.1933 8.8128 -2.5176 0.9637
0.5555 8.8895 -2.5215 0.9636
0.2347 8.9144 -2.5245 0.9636
-0.0871 8.9231 -2.5262 0.9636
-1.9657 8.5381 -2.4803 0.9642
-2.2857 4.8201 -1.5102 0.9781
-3.8484 4.6118 -1.7004 0.9753
-6.5661 5.8885 -2.4968 0.9640
-6.7774 5.6503 -2.4979 0.9640
-7.1736 5.1514 -2.5002 0.9640
-7.5328 4.6247 -2.5023 0.9639
-7.8533 4.0729 -2.5044 0.9639
-8.1331 3.4988 -2.5064 0.9639
-8.2572 3.2043 -2.5074 0.9638
-8.5645 2.2959 -2.5102 0.9638
-8.7711 1.3584 -2.5127 0.9638
6.7803 4.3473 -2.4773 0.9669
6.4563 4.8302 -2.4801 0.9668
6.2814 5.0629 -2.4815 0.9668
6.0982 5.2893 -2.4829 0.9668
5.2871 6.1267 -2.4891 0.9667
4.3624 6.8417 -2.4957 0.9666
4.1155 6.9994 -2.4974 0.9666
3.8630 7.1483 -2.4992 0.9666
3.6051 7.2881 -2.5009 0.9665
2.8025 7.6512 -2.5062 0.9665
2.2466 7.8445 -2.5098 0.9664
1.0980 8.1091 -2.5170 0.9663
0.5111 8.1787 -2.5205 0.9663
0.2158 8.1975 -2.5223 0.9663
-0.6679 8.1327 -2.5099 0.9664
-0.9571 8.0719 -2.5002 0.9666
-1.2438 8.0071 -2.4924 0.9667
-1.5285 7.9393 -2.4868 0.9667
-1.8112 7.8669 -2.4830 0.9668
-2.0796 4.8280 -1.6169 0.9782
-2.2817 4.8116 -1.6379 0.9780
-2.6921 4.7571 -1.6812 0.9774
-2.9062 4.7288 -1.7072 0.9770
-3.1269 4.6990 -1.7361 0.9767
-3.3558 4.6685 -1.7684 0.9762
-6.0417 5.4182 -2.4961 0.9666
-6.2359 5.1988 -2.4972 0.9666
-6.4220 4.9725 -2.4982 0.9666
-6.9300 4.2546 -2.5012 0.9665
-7.3576 3.4849 -2.5040 0.9665
-7.4812 3.2183 -2.5050 0.9665
-7.5952 2.9474 -2.5059 0.9665
-7.7933 2.3937 -2.5076 0.9665
-7.8771 2.1116 -2.5084 0.9664
-8.0139 1.5391 -2.5099 0.9664
-8.0666 1.2493 -2.5107 0.9664
6.1336 4.2525 -2.4809 0.9690
5.8171 4.6887 -2.4835 0.9690
5.6472 4.8981 -2.4849 0.9690
5.4699 5.1015 -2.4863 0.9690
5.2853 5.2985 -2.4877 0.9689
4.6901 5.8490 -2.4921 0.9689
4.4788 6.0181 -2.4936 0.9689
3.8095 6.4789 -2.4983 0.9688
3.3367 6.7454 -2.5015 0.9688
2.5934 7.0804 -2.5065 0.9687
2.3378 7.1740 -2.5081 0.9687
2.0788 7.2585 -2.5098 0.9687
1.8168 7.3336 -2.5114 0.9687
0.4728 7.5653 -2.5197 0.9686
0.1996 7.5823 -2.5213 0.9685
-0.0742 7.5978 -2.5257 0.9685
-0.3478 7.5807 -2.5225 0.9685
-0.6189 7.5370 -2.5138 0.9686
-0.8871 7.4815 -2.5043 0.9687
-1.1528 7.4209 -2.4963 0.9688
-1.4163 7.3564 -2.4902 0.9689
-1.6778 7.2876 -2.4858 0.9690
-1.5207 4.9430 -1.7191 0.9784
-1.8780 4.8330 -1.7235 0.9784
-2.2783 4.8045 -1.7675 0.9778
-2.4799 4.7763 -1.7889 0.9776
-2.6871 4.7482 -1.8135 0.9773
-3.1253 4.6967 -1.8753 0.9765
-3.5986 4.6433 -1.9527 0.9755
-3.8463 4.6093 -1.9956 0.9750
-4.0604 4.5235 -2.0206 0.9747
-4.6765 4.5086 -2.1593 0.9730
-5.9406 4.5997 -2.4974 0.9688
-6.6817 3.4653 -2.5020 0.9688
-6.8048 3.2230 -2.5028 0.9688
-6.9190 2.9765 -2.5037 0.9687
-7.0241 2.7258 -2.5045 0.9687
-7.2844 1.9527 -2.5069 0.9687
-7.3522 1.6891 -2.5076 0.9687
5.9709 3.5310 -2.4806 0.9710
5.7059 3.9560 -2.4829 0.9709
5.5622 4.1613 -2.4841 0.9709
5.4111 4.3614 -2.4853 0.9709
5.2529 4.5561 -2.4866 0.9709
4.9158 4.9281 -2.4892 0.9709
4.7374 5.1051 -2.4906 0.9708
4.1650 5.5964 -2.4947 0.9708
3.9626 5.7464 -2.4962 0.9708
3.3245 6.1517 -2.5006 0.9707
2.4108 6.5819 -2.5067 0.9707
2.1731 6.6687 -2.5082 0.9706
1.4425 6.8771 -2.5128 0.9706
0.6922 7.0055 -2.5174 0.9705
0.4393 7.0301 -2.5189 0.9705
0.1855 7.0456 -2.5204 0.9705
-0.3235 7.0514 -2.5243 0.9705
-0.8259 6.9653 -2.5083 0.9706
-1.0731 6.9083 -2.5001 0.9707
-1.5069 4.8983 -1.8327 0.9785
-1.7016 4.8950 -1.8532 0.9782
-2.0725 4.8115 -1.8735 0.9780
-2.4782 4.7730 -1.9232 0.9774
-2.6873 4.7486 -1.9512 0.9771
-3.1266 4.6985 -2.0182 0.9763
-3.3577 4.6712 -2.0572 0.9759
-4.0617 4.5249 -2.1744 0.9745
-5.1941 4.6581 -2.4950 0.9708
-5.3608 4.4692 -2.4959 0.9708
-5.8184 3.8679 -2.4985 0.9708
-6.0862 3.4406 -2.5002 0.9707
-6.2084 3.2198 -2.5010 0.9707
-6.3226 2.9947 -2.5018 0.9707
-6.5261 2.5325 -2.5034 0.9707
-6.6152 2.2961 -2.5041 0.9707
-6.6957 2.0565 -2.5048 0.9707
-6.8303 1.5693 -2.5062 0.9707
-6.8843 1.3221 -2.5069 0.9707
-6.9293 1.0731 -2.5075 0.9707
5.4558 3.4980 -2.4836 0.9726
4.9048 4.2541 -2.4881 0.9726
4.4230 4.7663 -2.4918 0.9725
3.6991 5.3642 -2.4971 0.9725
3.5051 5.4972 -2.4984 0.9725
3.3063 5.6231 -2.4998 0.9724
2.8954 5.8534 -2.5026 0.9724
2.6839 5.9575 -2.5040 0.9724
2.2499 6.1425 -2.5068 0.9724
2.0279 6.2232 -2.5083 0.9724
1.8031 6.2959 -2.5097 0.9723
0.8808 6.5046 -2.5155 0.9723
-0.0642 6.5788 -2.5213 0.9722
-0.3019 6.5799 -2.5242 0.9722
-1.0029 6.4562 -2.5038 0.9724
-1.2319 6.3985 -2.4971 0.9725
-1.3660 5.0863 -2.0182 0.9777
-1.5014 4.8802 -1.9567 0.9784
-1.6686 4.8001 -1.9474 0.9785
-1.8572 4.7793 -1.9649 0.9783
-2.2776 4.8030 -2.0371 0.9775
-2.6876 4.7491 -2.0912 0.9769
-3.3545 4.6667 -2.2024 0.9757
-4.1649 4.9910 -2.4911 0.9725
-4.0610 4.5242 -2.3298 0.9743
-4.3363 4.4936 -2.3931 0.9736
-4.6846 4.5165 -2.4937 0.9725
-5.0014 4.1697 -2.4954 0.9725
-5.1503 3.9878 -2.4962 0.9725
-5.2926 3.8006 -2.4970 0.9725
-5.4280 3.6084 -2.4978 0.9725
-5.8979 2.7935 -2.5009 0.9724
-6.0875 2.3623 -2.5023 0.9724
-6.3122 1.6921 -2.5044 0.9724
5.2246 3.0897 -2.4842 0.9741
4.8662 3.6405 -2.4873 0.9741
4.5950 3.9854 -2.4895 0.9741
4.4502 4.1505 -2.4906 0.9740
4.2996 4.3104 -2.4917 0.9740
4.1432 4.4648 -2.4929 0.9740
3.9813 4.6136 -2.4941 0.9740
3.4647 5.0243 -2.4978 0.9740
3.0966 5.2664 -2.5004 0.9739
2.9060 5.3775 -2.5017 0.9739
2.5134 5.5789 -2.5043 0.9739
1.8989 5.8272 -2.5083 0.9739
1.6883 5.8950 -2.5097 0.9738
1.4753 5.9553 -2.5110 0.9738
1.2602 6.0078 -2.5124 0.9738
1.0432 6.0527 -2.5137 0.9738
0.8245 6.0896 -2.5151 0.9738
0.6046 6.1186 -2.5164 0.9738
0.3837 6.1396 -2.5177 0.9738
0.1620 6.1527 -2.5190 0.9737
-0.0601 6.1578 -2.5203 0.9737
-0.5043 6.1411 -2.5219 0.9737
-0.9404 6.0537 -2.5074 0.9739
-1.1550 5.9990 -2.5004 0.9739
-1.3676 5.9401 -2.4948 0.9740
-1.3787 5.1337 -2.1755 0.9773
-1.4892 4.8405 -2.0728 0.9783
-1.6695 4.8027 -2.0810 0.9783
-1.8583 4.7823 -2.0999 0.9781
-2.0487 4.7563 -2.1195 0.9779
-2.4787 4.7742 -2.2016 0.9770
-2.6845 4.7437 -2.2308 0.9767
-2.8986 4.7165 -2.2658 0.9764
-3.3684 5.0620 -2.4885 0.9741
-3.8994 4.6729 -2.4909 0.9740
-4.0668 4.5306 -2.4917 0.9740
-4.2290 4.3824 -2.4925 0.9740
-4.5368 4.0686 -2.4941 0.9740
-4.6822 3.9035 -2.4949 0.9740
-4.9545 3.5579 -2.4964 0.9740
-5.2013 3.1932 -2.4979 0.9740
-5.3146 3.0044 -2.4987 0.9740
-5.4211 2.8115 -2.4994 0.9740
-5.5206 2.6148 -2.5001 0.9739
-5.6978 2.2111 -2.5014 0.9739
-5.9626 1.3698 -2.5039 0.9739
4.3172 3.7445 -2.4907 0.9754
4.1811 3.8996 -2.4917 0.9754
3.4212 4.5969 -2.4974 0.9753
3.0837 4.8362 -2.4997 0.9753
2.9086 4.9468 -2.5009 0.9753
2.5468 5.1487 -2.5034 0.9752
2.3606 5.2398 -2.5046 0.9752
2.1711 5.3242 -2.5059 0.9752
0.9795 5.6834 -2.5135 0.9751
0.7742 5.7179 -2.5147 0.9751
-0.0564 5.7812 -2.5197 0.9751
-0.2653 5.7815 -2.5223 0.9751
-0.4738 5.7698 -2.5231 0.9751
-0.6803 5.7375 -2.5180 0.9751
-0.8843 5.6925 -2.5106 0.9752
-1.0861 5.6413 -2.5037 0.9752
-1.4831 4.8207 -2.1981 0.9782
-1.6697 4.8033 -2.2162 0.9781
-1.8584 4.7824 -2.2361 0.9779
-2.0488 4.7565 -2.2571 0.9777
-2.9888 4.8632 -2.4877 0.9754
-3.6617 4.3880 -2.4908 0.9754
-4.1181 3.9703 -2.4930 0.9753
-4.6518 3.3405 -2.4959 0.9753
-4.7706 3.1714 -2.4966 0.9753
-4.9897 2.8207 -2.4980 0.9753
-5.1828 2.4548 -2.4993 0.9753
-5.2694 2.2668 -2.5000 0.9753
-5.3491 2.0758 -2.5006 0.9753
-5.5460 1.4867 -2.5024 0.9753
-5.5973 1.2860 -2.5029 0.9753
-5.6412 1.0834 -2.5035 0.9752
-5.6778 0.8793 -2.5040 0.9752
4.6249 2.7350 -2.4871 0.9766
4.3070 3.2222 -2.4898 0.9766
4.1895 3.3768 -2.4908 0.9766
4.0666 3.5271 -2.4917 0.9766
3.8047 3.8143 -2.4938 0.9765
3.6662 3.9507 -2.4948 0.9765
3.3746 4.2084 -2.4970 0.9765
3.2220 4.3293 -2.4981 0.9765
2.9040 4.5545 -2.5003 0.9765
2.5704 4.7563 -2.5026 0.9765
2.3982 4.8483 -2.5037 0.9764
2.2228 4.9339 -2.5049 0.9764
2.0443 5.0133 -2.5061 0.9764
1.4928 5.2122 -2.5097 0.9764
1.3043 5.2652 -2.5108 0.9764
0.9222 5.3505 -2.5132 0.9764
0.7288 5.3829 -2.5144 0.9763
0.1432 5.4377 -2.5179 0.9763
-0.0531 5.4418 -2.5191 0.9763
-0.2496 5.4395 -2.5205 0.9763
-0.6410 5.4061 -2.5199 0.9763
-0.8336 5.3661 -2.5137 0.9763
-1.2121 5.2650 -2.5009 0.9765
-1.5831 5.1457 -2.4921 0.9765
-2.1249 4.9332 -2.4863 0.9766
-2.3017 4.8537 -2.4865 0.9766
-2.4754 4.7676 -2.4866 0.9766
-2.9782 4.4756 -2.4885 0.9766
-3.1387 4.3665 -2.4892 0.9766
-3.2951 4.2516 -2.4899 0.9766
-3.5952 4.0053 -2.4913 0.9766
-3.8768 3.7377 -2.4927 0.9765
-4.0103 3.5964 -2.4934 0.9765
-4.1386 3.4503 -2.4941 0.9765
-4.2615 3.2996 -2.4948 0.9765
-4.4908 2.9853 -2.4961 0.9765
-4.5967 2.8221 -2.4968 0.9765
-4.7907 2.4846 -2.4981 0.9765
-4.8785 2.3107 -2.4987 0.9765
-4.9598 2.1337 -2.4993 0.9765
-5.0348 1.9538 -2.4999 0.9765
-5.2199 1.3993 -2.5015 0.9765
-5.3438 0.8276 -2.5031 0.9764
4.2719 2.7390 -2.4892 0.9776
4.0661 3.0420 -2.4909 0.9776
3.8389 3.3297 -2.4927 0.9776
3.7177 3.4673 -2.4937 0.9776
3.4607 3.7293 -2.4956 0.9776
3.0412 4.0864 -2.4987 0.9776
2.8930 4.1952 -2.4997 0.9776
2.7410 4.2987 -2.5008 0.9775
2.5852 4.3967 -2.5019 0.9775
2.2634 4.5757 -2.5041 0.9775
2.0978 4.6564 -2.5052 0.9775
1.9292 4.7311 -2.5063 0.9775
1.5845 4.8623 -2.5085 0.9775
1.0512 5.0117 -2.5119 0.9774
0.6877 5.0790 -2.5141 0.9774
0.5042 5.1028 -2.5152 0.9774
-0.2354 5.1311 -2.5196 0.9774
-1.1453 4.9745 -2.5039 0.9775
-1.8379 4.7298 -2.4891 0.9776
-2.4974 4.4130 -2.4873 0.9777
-3.1093 4.0119 -2.4898 0.9776
-3.2529 3.8982 -2.4905 0.9776
-3.3924 3.7793 -2.4911 0.9776
-3.6580 3.5267 -2.4925 0.9776
-3.7839 3.3933 -2.4931 0.9776
-3.9048 3.2554 -2.4938 0.9776
-4.0208 3.1133 -2.4944 0.9776
-4.1315 2.9669 -2.4951 0.9776
-4.4312 2.5050 -2.4969 0.9776
-4.6025 2.1799 -2.4981 0.9776
-4.9243 1.3200 -2.5008 0.9775
-4.9697 1.1418 -2.5013 0.9775
4.1306 2.4427 -2.4895 0.9786
4.0410 2.5909 -2.4903 0.9786
3.8461 2.8775 -2.4919 0.9786
3.7411 3.0154 -2.4928 0.9786
3.5164 3.2796 -2.4945 0.9786
3.3971 3.4056 -2.4954 0.9786
3.2732 3.5273 -2.4964 0.9785
2.8763 3.8647 -2.4993 0.9785
2.7360 3.9676 -2.5003 0.9785
2.5921 4.0653 -2.5013 0.9785
2.2941 4.2452 -2.5033 0.9785
2.1404 4.3270 -2.5044 0.9785
1.9837 4.4032 -2.5054 0.9785
1.4982 4.5975 -2.5086 0.9784
1.1638 4.6976 -2.5107 0.9784
0.6502 4.8019 -2.5139 0.9784
0.3025 4.8403 -2.5160 0.9784
-0.0474 4.8535 -2.5180 0.9784
-0.2225 4.8506 -2.5190 0.9784
-1.0842 4.7091 -2.5069 0.9785
-1.5782 4.5402 -2.4936 0.9786
-1.8980 4.4064 -2.4890 0.9786
-2.2096 4.2557 -2.4876 0.9786
-2.5111 4.0859 -2.4880 0.9786
-2.8004 3.8959 -2.4891 0.9786
-3.0756 3.6857 -2.4903 0.9786
-3.2074 3.5732 -2.4910 0.9786
-3.3351 3.4560 -2.4916 0.9786
-3.5774 3.2082 -2.4928 0.9786
-4.1891 2.3681 -2.4964 0.9785
-4.2727 2.2159 -2.4970 0.9785
-4.3508 2.0608 -2.4975 0.9785
-4.4233 1.9029 -2.4981 0.9785
-4.4900 1.7424 -2.4986 0.9785
-4.6059 1.4146 -2.4996 0.9785
-4.6548 1.2478 -2.5001 0.9785
-4.7344 0.9092 -2.5010 0.9785
-4.7650 0.7379 -2.5014 0.9785
3.8291 2.4551 -2.4913 0.9795
3.7392 2.5924 -2.4920 0.9795
3.5448 2.8571 -2.4936 0.9794
3.2186 3.2267 -2.4962 0.9794
3.1012 3.3419 -2.4971 0.9794
2.9797 3.4528 -2.4980 0.9794
2.8542 3.5594 -2.4989 0.9794
2.7249 3.6614 -2.4998 0.9794
2.4557 3.8513 -2.5017 0.9794
2.1732 4.0215 -2.5036 0.9794
2.0275 4.0989 -2.5046 0.9794
1.4191 4.3548 -2.5086 0.9793
1.2616 4.4049 -2.5096 0.9793
0.7792 4.5209 -2.5126 0.9793
0.6158 4.5479 -2.5136 0.9793
0.4515 4.5689 -2.5146 0.9793
0.2865 4.5841 -2.5156 0.9793
-0.0449 4.5963 -2.5176 0.9793
-0.2108 4.5935 -2.5185 0.9792
-0.5422 4.5730 -2.5222 0.9792
-0.7063 4.5470 -2.5203 0.9792
-0.8683 4.5100 -2.5155 0.9793
-1.0281 4.4655 -2.5098 0.9793
-1.6486 4.2426 -2.4930 0.9795
-1.7990 4.1765 -2.4907 0.9795
-2.3789 3.8708 -2.4884 0.9795
-2.9131 3.4908 -2.4902 0.9795
-3.0378 3.3843 -2.4908 0.9795
-3.1587 3.2733 -2.4914 0.9795
-3.2755 3.1580 -2.4920 0.9795
-3.3881 3.0384 -2.4926 0.9795
-3.4963 2.9149 -2.4932 0.9795
-3.6001 2.7875 -2.4938 0.9794
-3.7934 2.5217 -2.4949 0.9794
-3.8828 2.3838 -2.4954 0.9794
-4.0463 2.0985 -2.4965 0.9794
-4.1203 1.9516 -2.4970 0.9794
-4.2520 1.6500 -2.4980 0.9794
-4.3616 1.3396 -2.4990 0.9794
-4.4484 1.0220 -2.4999 0.9794
-4.5121 0.6988 -2.5007 0.9794
3.5485 2.4602 -2.4929 0.9803
3.4584 2.5874 -2.4937 0.9802
3.3638 2.7113 -2.4944 0.9802
3.0541 3.0618 -2.4968 0.9802
2.3300 3.6541 -2.5021 0.9802
2.1974 3.7372 -2.5030 0.9802
1.9236 3.8888 -2.5049 0.9802
1.6394 4.0204 -2.5067 0.9801
1.3463 4.1312 -2.5086 0.9801
1.1968 4.1788 -2.5096 0.9801
1.0456 4.2208 -2.5106 0.9801
0.7391 4.2885 -2.5125 0.9801
0.5841 4.3139 -2.5134 0.9801
0.4283 4.3338 -2.5143 0.9801
0.2717 4.3481 -2.5153 0.9801
0.1147 4.3567 -2.5162 0.9801
-0.0426 4.3596 -2.5171 0.9801
-0.5143 4.3373 -2.5217 0.9800
-0.6704 4.3156 -2.5215 0.9800
-0.8244 4.2821 -2.5177 0.9801
-0.9763 4.2407 -2.5125 0.9801
-1.9867 3.8265 -2.4893 0.9803
-2.5164 3.5007 -2.4892 0.9803
-2.6415 3.4082 -2.4895 0.9803
-2.8817 3.2103 -2.4907 0.9803
-3.7628 2.1271 -2.4956 0.9802
-3.8379 1.9904 -2.4961 0.9802
-4.0328 1.5650 -2.4975 0.9802
-4.0874 1.4187 -2.4980 0.9802
-4.1367 1.2706 -2.4984 0.9802
-4.1805 1.1207 -2.4989 0.9802
-4.2792 0.6627 -2.5001 0.9802
