ply
format ascii 1.0
element vertex 801
property float32 x
property float32 y
property float32 z
property float32 I
end_header
-29.2295 -15.8056 5.8592 0.8737
-38.5499 -26.5967 8.2582 0.8268
-35.6710 -26.5592 7.8417 0.8347
-33.0655 -26.5254 7.4745 0.8418
-23.1920 -31.0078 6.8276 0.8545
-22.7046 -32.7559 7.0276 0.8505
-20.9845 -32.7362 6.8564 0.8539
-19.6103 -33.1676 6.7941 0.8551
-17.6632 -35.4894 6.9899 0.8513
-16.0852 -35.4714 6.8676 0.8537
-14.5594 -35.4541 6.7581 0.8558
-12.3471 -37.5718 6.9735 0.8516
-9.3998 -37.5385 6.8234 0.8546
-7.9695 -37.5224 6.7638 0.8557
-5.1737 -37.4909 6.6733 0.8575
-2.1837 -33.5573 5.9296 0.8723
0.2695 -37.5932 6.6289 0.8584
4.3331 -37.3846 6.6360 0.8582
12.1141 -35.1556 6.5566 0.8598
13.5454 -35.1398 6.6405 0.8582
15.0157 -35.1237 6.7355 0.8563
-38.3572 -26.4637 7.1389 0.8281
-38.6606 -28.7851 7.3839 0.8228
-35.6789 -28.6218 7.0072 0.8310
-35.7825 -30.8908 7.2418 0.8259
-33.1032 -30.7299 6.9195 0.8330
-24.3493 -32.5549 6.2279 0.8483
-24.6378 -35.5449 6.6255 0.8394
-24.1687 -37.7036 6.8608 0.8342
-23.6218 -39.9524 7.1102 0.8288
-21.6405 -39.8127 6.9419 0.8325
-19.0924 -42.1031 7.0821 0.8294
-17.2277 -41.9518 6.9476 0.8323
-12.1861 -42.1509 6.7217 0.8373
-2.8911 -16.5243 2.5699 0.9344
-2.5166 -24.8178 3.8214 0.9040
7.9920 -42.1133 6.5666 0.8408
11.0621 -41.6348 6.5995 0.8400
12.6809 -41.6169 6.6649 0.8386
15.3012 -39.6950 6.5172 0.8419
-29.2551 -15.8194 4.3309 0.8745
-25.1721 -39.2689 6.0740 0.8285
-24.2673 -41.0440 6.2091 0.8250
-2.8908 -16.5224 2.1843 0.9346
-2.1051 -32.3491 4.2214 0.8774
-29.2498 -15.8166 3.5707 0.8748
-25.1250 -25.0703 3.8113 0.8669
-24.6718 -32.9861 4.4233 0.8473
-24.5209 -38.2531 4.8792 0.8329
-48.4374 2.2016 4.1046 0.8231
-29.2394 -15.8110 2.0613 0.8753
-2.5097 -24.7499 1.5426 0.9051
-29.2342 -15.8082 1.3105 0.8754
-24.0917 -25.8393 1.3930 0.8681
-2.8895 -16.5150 0.6611 0.9351
-2.4760 -24.4178 0.9678 0.9064
-1.5883 -24.4079 0.9645 0.9067
-29.2290 -15.8054 0.5613 0.8755
-24.7189 -24.6651 0.5899 0.8696
-2.8892 -16.5131 0.2832 0.9351
-2.4759 -24.4162 0.4146 0.9065
-1.5882 -24.4063 0.4131 0.9068
-1.2499 -43.2243 0.7304 0.8411
-35.8778 -22.8883 -0.2396 0.8435
-28.4353 -22.8109 -0.2052 0.8643
-26.3948 -22.7863 -0.1963 0.8698
-22.8017 -22.7520 -0.1814 0.8791
-21.1895 -22.7266 -0.1749 0.8831
-16.9613 -22.6772 -0.1594 0.8929
-15.7174 -22.6754 -0.1553 0.8955
-13.3893 -22.6457 -0.1481 0.9001
-10.2540 -22.6122 -0.1398 0.9055
-9.2813 -22.6010 -0.1376 0.9069
-5.6490 -22.5594 -0.1309 0.9112
-3.1101 -22.5371 -0.1281 0.9130
-2.2844 -22.5273 -0.1275 0.9134
-33.1230 -22.8524 -1.1331 0.8513
-30.6677 -22.8338 -1.0766 0.8581
-28.4314 -22.8078 -1.0263 0.8643
-26.3932 -22.7849 -0.9818 0.8698
-24.5256 -22.7672 -0.9423 0.8747
-22.8004 -22.7508 -0.9070 0.8791
-19.6895 -22.7073 -0.8463 0.8867
-18.2841 -22.6910 -0.8205 0.8899
-16.9601 -22.6755 -0.7973 0.8929
-14.5248 -22.6588 -0.7579 0.8979
-13.3885 -22.6444 -0.7407 0.9001
-9.2811 -22.6004 -0.6879 0.9069
-7.4202 -22.5791 -0.6692 0.9093
-4.7907 -22.5554 -0.6493 0.9119
-2.8885 -16.5095 -0.4719 0.9351
-1.4653 -22.5162 -0.6353 0.9137
-0.6508 -22.5066 -0.6340 0.9138
-47.3160 5.5887 -2.4163 0.8263
-47.8302 2.1740 -2.4282 0.8255
-47.9280 0.4479 -2.4307 0.8253
-48.0079 -1.2836 -2.4356 0.8250
-47.9832 -4.7602 -2.4454 0.8244
-47.8778 -6.5009 -2.4504 0.8241
-47.4829 -9.9771 -2.4606 0.8234
-47.1931 -11.7082 -2.4659 0.8230
-46.4263 -15.1451 -2.4766 0.8224
-42.6241 -17.3955 -2.3347 0.8316
-29.0917 -15.7311 -1.6773 0.8759
-35.8723 -22.8848 -2.1579 0.8433
-30.6633 -22.8305 -1.9388 0.8580
-26.3916 -22.7836 -1.7682 0.8697
-24.5242 -22.7659 -1.6970 0.8746
-22.7992 -22.7495 -1.6334 0.8790
-21.1861 -22.7229 -1.5756 0.8830
-16.9588 -22.6739 -1.4359 0.8928
-15.7154 -22.6726 -1.3990 0.8954
-14.5239 -22.6575 -1.3649 0.8978
-12.3004 -22.6292 -1.3062 0.9020
-9.2808 -22.5997 -1.2390 0.9068
-8.3375 -22.5889 -1.2211 0.9081
-5.6487 -22.5582 -1.1793 0.9111
-4.7904 -22.5539 -1.1693 0.9118
-2.8882 -16.5076 -0.8498 0.9351
-2.2841 -22.5244 -1.1482 0.9133
-1.4652 -22.5147 -1.1442 0.9136
3.8660 -48.6390 -2.4745 0.8225
19.5535 -45.7382 -2.5227 0.8194
-33.0020 3.8980 -2.4366 0.8752
-33.1650 2.7088 -2.4398 0.8751
-33.3939 -2.1001 -2.4533 0.8744
-33.3440 -3.3079 -2.4569 0.8742
-33.1149 -5.7196 -2.4640 0.8739
-32.9355 -6.9204 -2.4676 0.8737
-32.1389 -10.4842 -2.4787 0.8732
-30.9578 -13.9572 -2.4899 0.8727
-29.8729 -14.7868 -2.4440 0.8749
-27.0375 -17.2486 -2.3515 0.8793
-25.1488 -20.1745 -2.3640 0.8787
-23.6979 -21.9989 -2.3709 0.8784
-22.7979 -22.7483 -2.3614 0.8788
-21.1844 -22.7211 -2.2777 0.8829
-15.7145 -22.6712 -2.0226 0.8953
-12.2997 -22.6279 -1.8884 0.9019
-2.8879 -16.5058 -1.2286 0.9350
-3.1095 -22.5326 -1.6678 0.9128
-2.2840 -22.5229 -1.6599 0.9132
-1.4651 -22.5133 -1.6542 0.9135
-0.6508 -22.5037 -1.6507 0.9137
6.5857 -34.7032 -2.5899 0.8679
7.8350 -34.4514 -2.5906 0.8679
6.1527 -23.1571 -1.7568 0.9084
7.0513 -23.1414 -1.7738 0.9075
7.9697 -23.1282 -1.7937 0.9065
-25.3176 2.9904 -2.4475 0.9026
-25.4348 2.0774 -2.4500 0.9025
-25.4508 -3.4558 -2.4658 0.9019
-25.1919 -5.2933 -2.4714 0.9017
-25.0130 -6.2055 -2.4742 0.9016
-24.8012 -7.1118 -2.4770 0.9015
-24.5566 -8.0108 -2.4798 0.9014
-23.6290 -10.6531 -2.4884 0.9011
-22.4170 -13.1883 -2.4970 0.9008
-21.9517 -14.0042 -2.4998 0.9007
-20.9656 -14.4647 -2.4454 0.9027
-19.6475 -14.6287 -2.3517 0.9063
-18.0129 -16.7214 -2.3596 0.9060
-16.1641 -18.6416 -2.3688 0.9056
-14.1072 -20.3525 -2.3774 0.9053
-13.3789 -20.8713 -2.3801 0.9052
-8.3371 -22.5876 -2.3115 0.9078
-7.4195 -22.5771 -2.2816 0.9089
-6.5243 -22.5669 -2.2553 0.9099
-2.8876 -16.5039 -1.6086 0.9349
-1.4650 -22.5118 -2.1658 0.9133
1.0839 -25.0519 -2.4074 0.9041
1.8383 -23.1279 -2.2274 0.9110
3.0734 -26.5158 -2.5627 0.8983
3.5269 -23.1067 -2.2441 0.9103
5.2496 -23.0833 -2.2727 0.9093
6.1297 -23.0706 -2.2917 0.9085
7.9403 -23.0432 -2.3399 0.9067
8.8767 -23.0283 -2.3694 0.9056
9.8380 -23.0125 -2.4027 0.9043
-20.5192 2.4236 -2.4543 0.9201
-20.6748 0.9397 -2.4584 0.9200
-20.7243 -0.5541 -2.4626 0.9199
-20.7089 -1.3024 -2.4648 0.9198
-20.6668 -2.0503 -2.4670 0.9197
-20.5021 -3.5411 -2.4714 0.9196
-20.3796 -4.2822 -2.4737 0.9195
-20.2305 -5.0190 -2.4759 0.9195
-19.3701 -7.9053 -2.4851 0.9192
-19.0902 -8.6067 -2.4874 0.9191
-18.7847 -9.2983 -2.4898 0.9190
-18.4542 -9.9790 -2.4921 0.9190
-18.0990 -10.6479 -2.4944 0.9189
-17.7194 -11.3041 -2.4967 0.9188
-17.3159 -11.9468 -2.4989 0.9188
-16.8890 -12.5748 -2.5012 0.9187
-16.4392 -13.1876 -2.5034 0.9186
-15.9670 -13.7842 -2.5056 0.9185
-14.2633 -14.2323 -2.3935 0.9220
-13.5369 -14.5189 -2.3580 0.9232
-12.4757 -15.4827 -2.3619 0.9230
-11.9187 -15.9353 -2.3638 0.9230
-11.3455 -16.3681 -2.3657 0.9229
-8.9052 -17.8926 -2.3741 0.9226
-8.2608 -18.2169 -2.3760 0.9226
-7.6043 -18.5174 -2.3778 0.9225
-5.5715 -19.2713 -2.3829 0.9224
-4.8759 -19.4722 -2.3844 0.9223
-4.1729 -19.6471 -2.3859 0.9223
-2.7487 -19.9185 -2.3885 0.9222
-1.3069 -20.0835 -2.3907 0.9221
-0.5820 -20.1256 -2.3916 0.9221
0.1445 -20.1555 -2.3943 0.9220
0.8709 -20.1286 -2.3932 0.9220
2.3173 -19.9931 -2.3908 0.9221
3.2362 -21.2019 -2.5477 0.9172
4.7577 -20.9204 -2.5485 0.9172
5.5098 -20.7375 -2.5488 0.9172
7.7186 -20.0238 -2.5491 0.9172
-17.3092 1.4137 -2.4607 0.9322
-17.3049 0.7865 -2.4544 0.9324
-17.2015 -2.9711 -2.4734 0.9319
-17.0963 -3.5923 -2.4753 0.9319
-16.9686 -4.2098 -2.4772 0.9318
-16.6468 -5.4305 -2.4810 0.9317
-16.4529 -6.0320 -2.4829 0.9317
-14.8424 -9.4688 -2.4945 0.9313
-14.1427 -10.5301 -2.4983 0.9312
-13.3667 -11.5394 -2.5020 0.9311
-12.9513 -12.0228 -2.5039 0.9311
-9.7480 -14.0634 -2.4245 0.9332
-9.0107 -14.0568 -2.3658 0.9348
-7.9693 -14.6614 -2.3644 0.9348
-7.4397 -14.9481 -2.3658 0.9348
-6.3499 -15.4628 -2.3685 0.9347
-2.8869 -16.5002 -2.3734 0.9346
-1.6937 -16.7023 -2.3787 0.9344
0.1206 -16.8216 -2.3835 0.9343
0.7270 -16.8007 -2.3827 0.9343
1.9347 -16.6922 -2.3809 0.9344
2.7018 -17.7008 -2.5371 0.9302
3.3390 -17.5945 -2.5374 0.9302
3.9719 -17.4648 -2.5378 0.9302
4.5996 -17.3119 -2.5380 0.9302
5.2214 -17.1358 -2.5382 0.9302
7.0419 -16.4720 -2.5382 0.9302
-14.8440 1.7533 -2.4624 0.9412
-14.9497 0.6795 -2.4653 0.9411
-14.9737 0.1399 -2.4669 0.9411
-14.9784 -0.4005 -2.4684 0.9411
-14.9637 -0.9411 -2.4700 0.9410
-14.8032 -2.5568 -2.4748 0.9409
-14.7110 -3.0911 -2.4764 0.9409
-14.5996 -3.6221 -2.4780 0.9408
-14.4691 -4.1490 -2.4797 0.9408
-13.9643 -5.6991 -2.4847 0.9407
-13.7589 -6.2032 -2.4863 0.9407
-13.5352 -6.6998 -2.4880 0.9406
-13.0344 -7.6684 -2.4913 0.9405
-12.7576 -8.1388 -2.4930 0.9405
-12.4641 -8.5993 -2.4946 0.9405
-12.1537 -9.0492 -2.4962 0.9404
-11.4845 -9.9145 -2.4994 0.9403
-11.1264 -10.3287 -2.5010 0.9403
-9.9639 -11.4911 -2.5056 0.9402
-8.6794 -12.5218 -2.5099 0.9401
-8.2266 -12.8338 -2.5113 0.9401
-7.7626 -13.1291 -2.5127 0.9400
-7.2878 -13.4076 -2.5140 0.9400
-6.8029 -13.6687 -2.5152 0.9400
-4.0093 -13.8677 -2.3781 0.9432
-2.4783 -14.1647 -2.3689 0.9434
-1.9671 -14.2542 -2.3705 0.9433
-0.9349 -14.3661 -2.3717 0.9433
-0.4161 -14.3915 -2.3718 0.9433
0.1038 -14.4828 -2.3859 0.9430
0.6436 -14.8744 -2.4527 0.9414
1.2162 -15.3008 -2.5286 0.9397
1.7675 -15.2496 -2.5290 0.9397
2.3167 -15.1783 -2.5294 0.9397
3.4057 -14.9754 -2.5300 0.9396
3.9439 -14.8440 -2.5302 0.9396
4.4770 -14.6929 -2.5304 0.9396
-13.0238 1.5383 -2.4650 0.9480
-13.1346 0.1227 -2.4689 0.9479
-13.0449 -1.7713 -2.4744 0.9478
-12.9799 -2.2419 -2.4758 0.9478
-12.5518 -4.0946 -2.4816 0.9477
-12.2383 -4.9947 -2.4845 0.9476
-12.0573 -5.4360 -2.4860 0.9476
-11.8604 -5.8708 -2.4874 0.9476
-11.6477 -6.2984 -2.4889 0.9475
-11.4196 -6.7184 -2.4903 0.9475
-11.1763 -7.1300 -2.4918 0.9475
-10.9182 -7.5327 -2.4932 0.9474
-9.7433 -9.0448 -2.4988 0.9473
-8.3591 -10.3738 -2.5041 0.9472
-6.3778 -11.7333 -2.5102 0.9471
-5.9530 -11.9610 -2.5113 0.9471
-5.5201 -12.1732 -2.5123 0.9471
-5.0796 -12.3695 -2.5134 0.9470
-4.1779 -12.7134 -2.5153 0.9470
-3.7180 -12.8605 -2.5163 0.9470
-3.2529 -12.9907 -2.5171 0.9470
-1.3527 -13.3396 -2.5202 0.9469
-0.8709 -13.3832 -2.5208 0.9469
0.0962 -13.4173 -2.5220 0.9469
2.5036 -13.1925 -2.5239 0.9468
4.3757 -12.6985 -2.5246 0.9468
4.8309 -12.5325 -2.5246 0.9468
5.2797 -12.3500 -2.5245 0.9468
-11.6376 0.9505 -2.4682 0.9534
-11.6699 0.5304 -2.4693 0.9534
-11.6891 -0.3125 -2.4717 0.9533
-11.6477 -1.1555 -2.4742 0.9533
-11.6043 -1.5757 -2.4754 0.9532
-11.4723 -2.4106 -2.4780 0.9532
-11.2803 -3.2347 -2.4805 0.9532
-11.1621 -3.6413 -2.4818 0.9531
-11.0292 -4.0436 -2.4831 0.9531
-10.7203 -4.8332 -2.4857 0.9531
-10.5445 -5.2195 -2.4870 0.9530
-10.3547 -5.5992 -2.4883 0.9530
-9.4613 -7.0445 -2.4934 0.9529
-8.6579 -8.0372 -2.4971 0.9529
-7.7502 -8.9381 -2.5007 0.9528
-7.4262 -9.2160 -2.5018 0.9528
-7.0921 -9.4821 -2.5029 0.9527
-6.0342 -10.2058 -2.5062 0.9527
-5.6645 -10.4210 -2.5072 0.9527
-4.1132 -11.1439 -2.5109 0.9526
-3.3013 -11.4190 -2.5126 0.9526
-2.8882 -11.5341 -2.5134 0.9526
-2.0504 -11.7191 -2.5148 0.9525
-1.6268 -11.7884 -2.5155 0.9525
-1.2009 -11.8423 -2.5161 0.9525
-0.7731 -11.8806 -2.5166 0.9525
-0.3442 -11.9033 -2.5172 0.9525
0.5150 -11.9014 -2.5181 0.9525
1.3720 -11.8367 -2.5188 0.9525
3.8838 -11.2710 -2.5199 0.9524
4.6862 -10.9616 -2.5199 0.9524
-10.4314 1.2321 -2.4687 0.9578
-10.4734 0.8554 -2.4697 0.9577
-10.5168 0.0983 -2.4718 0.9577
-10.5182 -0.2812 -2.4729 0.9577
-10.5058 -0.6607 -2.4740 0.9577
-10.4799 -1.0397 -2.4751 0.9576
-10.3871 -1.7941 -2.4774 0.9576
-10.2403 -2.5406 -2.4797 0.9576
-10.0399 -3.2752 -2.4820 0.9575
-9.9199 -3.6369 -2.4831 0.9575
-9.6409 -4.3466 -2.4855 0.9575
-9.4823 -4.6937 -2.4866 0.9575
-9.3112 -5.0350 -2.4878 0.9574
-8.9323 -5.6984 -2.4901 0.9574
-8.7250 -6.0196 -2.4913 0.9574
-8.5061 -6.3333 -2.4924 0.9574
-8.2759 -6.6389 -2.4935 0.9573
-8.0346 -6.9362 -2.4946 0.9573
-7.7826 -7.2247 -2.4957 0.9573
-7.5203 -7.5039 -2.4968 0.9573
-7.2478 -7.7736 -2.4979 0.9573
-6.3736 -8.5215 -2.5010 0.9572
-5.7472 -8.9657 -2.5029 0.9572
-5.4222 -9.1706 -2.5039 0.9572
-5.0897 -9.3637 -2.5048 0.9572
-4.0527 -9.8687 -2.5073 0.9571
-3.3328 -10.1415 -2.5089 0.9571
-2.9657 -10.2581 -2.5096 0.9571
-2.2197 -10.4509 -2.5110 0.9570
0.0767 -10.6972 -2.5141 0.9570
0.4625 -10.6891 -2.5145 0.9570
0.8478 -10.6669 -2.5149 0.9570
1.9957 -10.5162 -2.5157 0.9570
2.3739 -10.4381 -2.5158 0.9570
3.1204 -10.2407 -2.5161 0.9570
3.8506 -9.9894 -2.5161 0.9570
4.2083 -9.8438 -2.5161 0.9570
-9.4739 1.1190 -2.4700 0.9613
-9.5512 -0.2554 -2.4739 0.9613
-9.5396 -0.6000 -2.4749 0.9613
-9.5157 -0.9440 -2.4759 0.9613
-9.2965 -2.3064 -2.4800 0.9612
-9.2112 -2.6413 -2.4811 0.9612
-9.1138 -2.9731 -2.4821 0.9612
-9.0045 -3.3013 -2.4832 0.9611
-8.7506 -3.9452 -2.4853 0.9611
-8.1060 -5.1713 -2.4895 0.9611
-7.9175 -5.4625 -2.4905 0.9610
-7.7185 -5.7469 -2.4916 0.9610
-7.5093 -6.0240 -2.4926 0.9610
-7.0612 -6.5549 -2.4946 0.9610
-6.0544 -7.5137 -2.4984 0.9609
-5.7817 -7.7300 -2.4993 0.9609
-5.2131 -8.1324 -2.5011 0.9609
-4.6164 -8.4928 -2.5028 0.9608
-4.3084 -8.6565 -2.5036 0.9608
-3.9946 -8.8091 -2.5044 0.9608
-3.6754 -8.9501 -2.5051 0.9608
-3.3512 -9.0794 -2.5058 0.9608
-3.0224 -9.1969 -2.5065 0.9608
-2.6894 -9.3024 -2.5072 0.9608
-2.3527 -9.3957 -2.5078 0.9608
-2.0128 -9.4767 -2.5084 0.9608
-1.3250 -9.6013 -2.5095 0.9607
-0.9780 -9.6448 -2.5100 0.9607
0.0695 -9.6989 -2.5113 0.9607
0.4193 -9.6914 -2.5116 0.9607
1.1171 -9.6382 -2.5122 0.9607
1.8093 -9.5343 -2.5126 0.9607
2.4922 -9.3801 -2.5129 0.9607
2.8290 -9.2843 -2.5130 0.9607
3.1621 -9.1765 -2.5130 0.9607
3.4910 -9.0564 -2.5130 0.9607
3.8153 -8.9245 -2.5130 0.9607
-8.6689 1.0239 -2.4712 0.9644
-8.7032 0.7108 -2.4720 0.9643
-8.7263 0.3966 -2.4729 0.9643
-8.7276 -0.5489 -2.4756 0.9643
-8.6270 -1.4900 -2.4784 0.9643
-8.3359 -2.7194 -2.4822 0.9642
-8.0028 -3.6080 -2.4851 0.9642
-7.7279 -4.1788 -2.4871 0.9641
-7.4122 -4.7287 -2.4890 0.9641
-7.0574 -5.2547 -2.4909 0.9641
-6.8659 -5.5078 -2.4918 0.9641
-6.2376 -6.2241 -2.4945 0.9640
-6.0112 -6.4473 -2.4954 0.9640
-5.7767 -6.6622 -2.4963 0.9640
-5.0284 -7.2545 -2.4988 0.9640
-4.4952 -7.6029 -2.5004 0.9639
-4.2193 -7.7624 -2.5011 0.9639
-3.0626 -8.2977 -2.5039 0.9639
-2.7621 -8.4048 -2.5045 0.9639
-2.4577 -8.5011 -2.5051 0.9639
-2.1500 -8.5861 -2.5057 0.9639
-1.5261 -8.7225 -2.5068 0.9639
-0.2561 -8.8574 -2.5085 0.9638
0.3832 -8.8552 -2.5092 0.9638
0.7024 -8.8366 -2.5095 0.9638
1.6531 -8.7113 -2.5101 0.9638
2.5848 -8.4829 -2.5104 0.9638
2.8891 -8.3842 -2.5105 0.9638
3.1896 -8.2746 -2.5105 0.9638
3.4859 -8.1540 -2.5104 0.9638
-7.9819 0.9428 -2.4721 0.9669
-8.0133 0.6545 -2.4729 0.9669
-8.0449 0.0752 -2.4746 0.9669
-8.0451 -0.2151 -2.4754 0.9669
-8.0141 -0.7951 -2.4771 0.9669
-7.9830 -1.0840 -2.4779 0.9668
-7.9415 -1.3717 -2.4788 0.9668
-7.8897 -1.6578 -2.4797 0.9668
-7.7551 -2.2238 -2.4814 0.9668
-7.6726 -2.5029 -2.4823 0.9668
-7.5801 -2.7791 -2.4832 0.9668
-7.2433 -3.5854 -2.4859 0.9667
-6.9710 -4.1012 -2.4877 0.9667
-6.4941 -4.8352 -2.4903 0.9667
-6.1328 -5.2944 -2.4920 0.9667
-5.5305 -5.9317 -2.4945 0.9666
-5.3147 -6.1293 -2.4953 0.9666
-5.0918 -6.3190 -2.4960 0.9666
-4.6258 -6.6737 -2.4976 0.9666
-3.6221 -7.2777 -2.5004 0.9666
-3.3582 -7.4056 -2.5010 0.9665
-3.0897 -7.5237 -2.5017 0.9665
-2.2605 -7.8189 -2.5034 0.9665
-1.1135 -8.0689 -2.5053 0.9665
-0.8219 -8.1051 -2.5057 0.9665
-0.5291 -8.1308 -2.5061 0.9665
0.0584 -8.1499 -2.5068 0.9665
0.6459 -8.1263 -2.5074 0.9665
0.9387 -8.0985 -2.5076 0.9665
1.2302 -8.0600 -2.5078 0.9665
2.0940 -7.8812 -2.5082 0.9664
2.3769 -7.8008 -2.5083 0.9664
2.6568 -7.7101 -2.5083 0.9664
3.2056 -7.4984 -2.5083 0.9664
-7.3883 0.8726 -2.4730 0.9691
-7.4171 0.6058 -2.4737 0.9691
-7.4460 0.0696 -2.4752 0.9691
-7.3012 -1.5341 -2.4800 0.9690
-7.2435 -1.7971 -2.4808 0.9690
-7.1764 -2.0579 -2.4816 0.9690
-6.9190 -2.8238 -2.4841 0.9690
-6.5800 -3.5581 -2.4865 0.9690
-6.1632 -4.2522 -2.4890 0.9689
-6.0078 -4.4732 -2.4898 0.9689
-5.4946 -5.1007 -2.4921 0.9689
-5.1158 -5.4869 -2.4936 0.9689
-4.9160 -5.6695 -2.4944 0.9689
-4.4971 -6.0126 -2.4958 0.9688
-4.2785 -6.1726 -2.4965 0.9688
-4.0542 -6.3246 -2.4972 0.9688
-3.8245 -6.4684 -2.4978 0.9688
-3.5896 -6.6039 -2.4985 0.9688
-3.3499 -6.7307 -2.4991 0.9688
-3.1057 -6.8488 -2.4997 0.9688
-2.8573 -6.9580 -2.5003 0.9688
-2.6051 -7.0581 -2.5009 0.9688
-1.8286 -7.3027 -2.5024 0.9688
-1.2979 -7.4181 -2.5033 0.9688
-0.7600 -7.4947 -2.5041 0.9687
-0.4893 -7.5183 -2.5044 0.9687
-0.2178 -7.5321 -2.5047 0.9687
0.0540 -7.5359 -2.5050 0.9687
0.3258 -7.5299 -2.5053 0.9687
0.5972 -7.5139 -2.5056 0.9687
0.8679 -7.4881 -2.5058 0.9687
1.1375 -7.4525 -2.5059 0.9687
1.6720 -7.3520 -2.5062 0.9687
1.9361 -7.2871 -2.5063 0.9687
2.1978 -7.2128 -2.5064 0.9687
2.4565 -7.1289 -2.5064 0.9687
2.9640 -6.9332 -2.5064 0.9687
-6.8963 0.5632 -2.4744 0.9710
-6.9229 0.0647 -2.4758 0.9710
-6.9227 -0.1851 -2.4765 0.9710
-6.9136 -0.4348 -2.4772 0.9710
-6.8323 -1.1801 -2.4795 0.9710
-6.7874 -1.4262 -2.4802 0.9710
-6.6709 -1.9129 -2.4817 0.9709
-6.5997 -2.1529 -2.4825 0.9709
-6.5197 -2.3903 -2.4833 0.9709
-5.9944 -3.5266 -2.4871 0.9709
-5.8650 -3.7416 -2.4878 0.9709
-5.7279 -3.9519 -2.4886 0.9709
-5.1062 -4.7401 -2.4915 0.9708
-4.9333 -4.9226 -2.4922 0.9708
-4.7539 -5.0988 -2.4929 0.9708
-4.5681 -5.2683 -2.4936 0.9708
-4.3763 -5.4311 -2.4943 0.9708
-3.9755 -5.7355 -2.4956 0.9708
-3.7670 -5.8767 -2.4962 0.9708
-3.5535 -6.0101 -2.4968 0.9708
-3.3352 -6.1359 -2.4974 0.9708
-3.1125 -6.2536 -2.4980 0.9708
-2.8855 -6.3632 -2.4986 0.9708
-2.6547 -6.4646 -2.4991 0.9707
-1.9425 -6.7189 -2.5011 0.9707
-1.6988 -6.7843 -2.5010 0.9707
-0.9565 -6.9315 -2.5022 0.9707
-0.7060 -6.9624 -2.5026 0.9707
-0.2023 -6.9970 -2.5032 0.9707
0.0502 -7.0005 -2.5035 0.9707
1.3058 -6.8807 -2.5045 0.9707
-6.4122 0.7574 -2.4744 0.9727
-6.4370 0.5257 -2.4750 0.9727
-6.4535 0.2933 -2.4756 0.9727
-6.4616 0.0604 -2.4763 0.9727
-6.4613 -0.1728 -2.4770 0.9727
-6.3343 -1.3310 -2.4804 0.9727
-6.2840 -1.5590 -2.4811 0.9726
-6.1588 -2.0091 -2.4826 0.9726
-6.0840 -2.2306 -2.4833 0.9726
-6.0014 -2.4493 -2.4840 0.9726
-5.8125 -2.8772 -2.4854 0.9726
-5.5932 -3.2906 -2.4868 0.9726
-5.4724 -3.4912 -2.4875 0.9726
-5.3445 -3.6873 -2.4882 0.9726
-5.0676 -4.0652 -2.4896 0.9726
-4.9190 -4.2465 -2.4903 0.9725
-4.7639 -4.4224 -2.4910 0.9725
-3.7086 -5.3505 -2.4948 0.9725
-3.5141 -5.4820 -2.4954 0.9725
-2.6916 -5.9355 -2.4975 0.9725
-2.4789 -6.0364 -2.5007 0.9724
-2.2609 -6.1254 -2.5021 0.9724
-1.3556 -6.3825 -2.5004 0.9724
-0.6585 -6.4938 -2.5013 0.9724
0.0468 -6.5292 -2.5021 0.9724
0.2823 -6.5238 -2.5024 0.9724
0.7519 -6.4875 -2.5028 0.9724
1.4485 -6.3693 -2.5032 0.9724
1.6774 -6.3131 -2.5032 0.9724
1.9040 -6.2487 -2.5033 0.9724
2.3495 -6.0953 -2.5033 0.9724
2.5678 -6.0065 -2.5033 0.9724
-6.0054 0.7093 -2.4749 0.9742
-6.0285 0.4924 -2.4755 0.9742
-6.0438 0.2747 -2.4761 0.9742
-6.0509 -0.1618 -2.4774 0.9742
-5.9710 -1.0313 -2.4800 0.9742
-5.9315 -1.2463 -2.4806 0.9741
-5.8842 -1.4599 -2.4813 0.9741
-5.7668 -1.8813 -2.4826 0.9741
-5.6192 -2.2933 -2.4840 0.9741
-5.5343 -2.4951 -2.4846 0.9741
-5.2367 -3.0808 -2.4866 0.9741
-5.0036 -3.4521 -2.4879 0.9741
-4.8771 -3.6313 -2.4886 0.9741
-4.7442 -3.8058 -2.4892 0.9741
-4.3086 -4.2992 -2.4911 0.9740
-3.8218 -4.7429 -2.4929 0.9740
-3.6490 -4.8788 -2.4935 0.9740
-3.2893 -5.1314 -2.4946 0.9740
-2.9121 -5.3575 -2.4957 0.9740
-2.3229 -5.6565 -2.5026 0.9739
-2.1170 -5.7357 -2.5022 0.9739
-1.9084 -5.8073 -2.5018 0.9739
-1.0529 -6.0176 -2.5003 0.9739
-0.3967 -6.0965 -2.5004 0.9739
-0.1766 -6.1075 -2.5007 0.9739
0.2642 -6.1055 -2.5012 0.9739
0.9223 -6.0425 -2.5017 0.9739
1.1397 -6.0056 -2.5018 0.9739
1.3556 -5.9608 -2.5019 0.9739
1.5698 -5.9082 -2.5020 0.9739
2.1988 -5.7043 -2.5020 0.9739
-5.6408 0.6662 -2.4755 0.9755
-5.6625 0.4625 -2.4760 0.9755
-5.6768 0.2580 -2.4766 0.9755
-5.6833 -0.1520 -2.4778 0.9755
-5.6754 -0.3570 -2.4784 0.9755
-5.5706 -1.1705 -2.4808 0.9755
-5.4157 -1.7667 -2.4827 0.9755
-5.2769 -2.1536 -2.4839 0.9754
-5.1105 -2.5297 -2.4852 0.9754
-4.9174 -2.8930 -2.4864 0.9754
-4.8110 -3.0692 -2.4870 0.9754
-4.5795 -3.4097 -2.4883 0.9754
-4.4546 -3.5735 -2.4889 0.9754
-4.0454 -4.0366 -2.4906 0.9754
-3.7456 -4.3197 -2.4918 0.9754
-3.4260 -4.5805 -2.4929 0.9754
-2.7339 -5.0297 -2.4949 0.9753
-2.5518 -5.1272 -2.4960 0.9753
-2.3705 -5.2276 -2.5015 0.9753
-2.1814 -5.3121 -2.5027 0.9753
-1.5942 -5.5142 -2.5016 0.9753
-1.1922 -5.6130 -2.5008 0.9753
-0.7842 -5.6827 -2.5001 0.9753
-0.5787 -5.7065 -2.4997 0.9753
-0.1658 -5.7331 -2.4996 0.9753
0.0411 -5.7359 -2.4999 0.9753
0.2480 -5.7312 -2.5001 0.9753
0.6606 -5.6992 -2.5004 0.9753
0.8658 -5.6719 -2.5005 0.9753
1.0698 -5.6373 -2.5007 0.9753
1.2725 -5.5952 -2.5008 0.9753
1.4735 -5.5458 -2.5008 0.9753
1.6726 -5.4892 -2.5009 0.9753
1.8695 -5.4254 -2.5009 0.9753
2.0640 -5.3544 -2.5009 0.9753
2.2557 -5.2764 -2.5009 0.9753
-5.3120 0.6274 -2.4759 0.9767
-5.3457 0.2429 -2.4770 0.9767
-5.3522 0.0500 -2.4775 0.9767
-5.3085 -0.7208 -2.4798 0.9767
-5.2803 -0.9120 -2.4804 0.9767
-5.1546 -1.4781 -2.4821 0.9766
-5.0991 -1.6634 -2.4827 0.9766
-5.0370 -1.8467 -2.4833 0.9766
-4.9683 -2.0276 -2.4839 0.9766
-4.8931 -2.2060 -2.4845 0.9766
-4.8115 -2.3817 -2.4851 0.9766
-4.6295 -2.7236 -2.4863 0.9766
-4.3112 -3.2100 -2.4880 0.9766
-4.1936 -3.3641 -2.4886 0.9766
-4.0704 -3.5140 -2.4891 0.9766
-3.9419 -3.6593 -2.4897 0.9766
-3.2249 -4.3117 -2.4923 0.9765
-2.9069 -4.5348 -2.4933 0.9765
-2.7419 -4.6375 -2.4938 0.9765
-2.5737 -4.7350 -2.4946 0.9765
-2.2333 -4.9250 -2.5031 0.9764
-1.8719 -5.0717 -2.5024 0.9765
-1.6875 -5.1352 -2.5020 0.9765
-0.7384 -5.3509 -2.5003 0.9765
-0.5449 -5.3733 -2.5000 0.9765
0.0387 -5.3984 -2.4989 0.9765
0.4278 -5.3823 -2.4992 0.9765
0.8148 -5.3381 -2.4995 0.9765
1.7595 -5.1060 -2.4999 0.9765
1.9425 -5.0392 -2.4999 0.9765
2.1229 -4.9659 -2.4998 0.9765
-5.0135 0.5921 -2.4764 0.9778
-5.0513 0.0472 -2.4779 0.9777
-5.0300 -0.4990 -2.4795 0.9777
-5.0099 -0.6803 -2.4800 0.9777
-4.9832 -0.8607 -2.4805 0.9777
-4.9103 -1.2182 -2.4816 0.9777
-4.8643 -1.3949 -2.4822 0.9777
-4.8119 -1.5698 -2.4828 0.9777
-4.5402 -2.2474 -2.4850 0.9777
-4.4572 -2.4103 -2.4855 0.9777
-4.3683 -2.5700 -2.4861 0.9777
-4.2738 -2.7265 -2.4867 0.9777
-4.1736 -2.8795 -2.4872 0.9777
-4.0679 -3.0288 -2.4877 0.9777
-3.7193 -3.4527 -2.4893 0.9776
-3.1867 -3.9548 -2.4913 0.9776
-3.0426 -4.0679 -2.4918 0.9776
-2.8945 -4.1759 -2.4923 0.9776
-2.7425 -4.2783 -2.4927 0.9776
-2.1075 -4.6475 -2.5031 0.9775
-1.7665 -4.7860 -2.5025 0.9775
-1.5925 -4.8460 -2.5021 0.9775
-1.2387 -4.9469 -2.5015 0.9775
-0.8787 -5.0220 -2.5008 0.9775
-0.6969 -5.0497 -2.5005 0.9775
-0.5142 -5.0710 -2.5002 0.9775
0.4036 -5.0779 -2.4987 0.9776
0.9497 -5.0047 -2.4987 0.9776
1.6597 -4.8165 -2.4989 0.9776
2.0026 -4.6843 -2.4989 0.9776
-4.7412 0.5600 -2.4767 0.9787
-4.7711 0.2168 -2.4777 0.9787
-4.7694 -0.3000 -2.4792 0.9787
-4.7374 -0.6433 -2.4802 0.9787
-4.7120 -0.8139 -2.4807 0.9787
-4.6430 -1.1520 -2.4817 0.9787
-4.5995 -1.3189 -2.4823 0.9787
-4.4943 -1.6477 -2.4833 0.9787
-4.4329 -1.8092 -2.4839 0.9787
-4.3657 -1.9683 -2.4844 0.9787
-4.1302 -2.4299 -2.4860 0.9786
-3.8460 -2.8636 -2.4875 0.9786
-3.6310 -3.1346 -2.4885 0.9786
-3.5163 -3.2642 -2.4890 0.9786
-3.2731 -3.5105 -2.4900 0.9786
-2.5929 -4.0450 -2.4926 0.9786
-1.9927 -4.3944 -2.5032 0.9785
-1.8327 -4.4629 -2.5029 0.9785
-1.3394 -4.6329 -2.5019 0.9785
-1.0017 -4.7163 -2.5013 0.9785
-0.6589 -4.7750 -2.5007 0.9785
-0.1393 -4.8166 -2.4998 0.9785
0.0345 -4.8179 -2.4995 0.9785
0.3817 -4.8018 -2.4989 0.9785
0.5546 -4.7844 -2.4987 0.9785
0.7267 -4.7608 -2.4984 0.9785
1.4035 -4.6062 -2.4980 0.9785
1.5688 -4.5526 -2.4981 0.9785
1.7319 -4.4931 -2.4981 0.9785
1.8929 -4.4277 -2.4981 0.9785
-4.4915 0.5305 -2.4771 0.9796
-4.5250 0.0423 -2.4785 0.9796
-4.5056 -0.4470 -2.4799 0.9796
-4.4875 -0.6093 -2.4804 0.9796
-4.3980 -1.0911 -2.4818 0.9795
-4.3567 -1.2493 -2.4823 0.9795
-4.3096 -1.4059 -2.4828 0.9795
-4.2570 -1.5607 -2.4833 0.9795
-4.1988 -1.7136 -2.4838 0.9795
-3.9915 -2.1584 -2.4853 0.9795
-3.8271 -2.4415 -2.4863 0.9795
-3.6425 -2.7121 -2.4873 0.9795
-3.4389 -2.9688 -2.4882 0.9795
-2.8531 -3.5408 -2.4905 0.9795
-2.5917 -3.7391 -2.4918 0.9795
-2.0367 -4.0921 -2.5035 0.9794
-1.7359 -4.2272 -2.5029 0.9794
-1.5822 -4.2866 -2.5026 0.9794
-1.4263 -4.3403 -2.5023 0.9794
-0.7870 -4.4982 -2.5011 0.9794
-0.6242 -4.5232 -2.5008 0.9794
-0.4606 -4.5422 -2.5005 0.9794
-0.1319 -4.5626 -2.5000 0.9794
0.5253 -4.5322 -2.4989 0.9794
0.6884 -4.5099 -2.4987 0.9794
1.1712 -4.4079 -2.4980 0.9794
1.3293 -4.3624 -2.4977 0.9794
1.4856 -4.3112 -2.4975 0.9794
1.6400 -4.2545 -2.4973 0.9794
1.7922 -4.1923 -2.4971 0.9794
-4.2614 0.5033 -2.4774 0.9804
-4.2930 0.0401 -2.4787 0.9804
-4.2925 -0.1148 -2.4792 0.9804
-4.2062 -0.8838 -2.4814 0.9803
-4.1331 -1.1852 -2.4824 0.9803
-4.0884 -1.3337 -2.4829 0.9803
-4.0384 -1.4806 -2.4833 0.9803
-3.9227 -1.7686 -2.4843 0.9803
-3.7108 -2.1831 -2.4857 0.9803
-3.6303 -2.3160 -2.4862 0.9803
-3.5451 -2.4459 -2.4866 0.9803
-3.4552 -2.5726 -2.4871 0.9803
-3.1588 -2.9324 -2.4884 0.9803
-3.0516 -3.0450 -2.4889 0.9803
-2.9403 -3.1536 -2.4893 0.9803
-2.8251 -3.2581 -2.4897 0.9803
-2.7063 -3.3586 -2.4903 0.9803
-2.4597 -3.5487 -2.4929 0.9803
-2.3334 -3.6402 -2.4964 0.9802
-2.0713 -3.8106 -2.5040 0.9802
-1.5010 -4.0666 -2.5026 0.9802
-1.3531 -4.1176 -2.5024 0.9802
-1.0526 -4.2035 -2.5018 0.9802
-0.9002 -4.2383 -2.5015 0.9802
-0.5922 -4.2911 -2.5010 0.9802
-0.4370 -4.3092 -2.5007 0.9802
-0.1252 -4.3286 -2.5002 0.9802
0.3430 -4.3155 -2.4994 0.9802
0.4984 -4.2999 -2.4992 0.9802
0.6531 -4.2788 -2.4989 0.9802
0.9597 -4.2198 -2.4985 0.9802
1.1111 -4.1821 -2.4983 0.9802
1.4095 -4.0904 -2.4978 0.9802
1.5560 -4.0366 -2.4977 0.9802
