ply
format ascii 1.0
element vertex 995
property float32 x
property float32 y
property float32 z
property float32 I
end_header
-38.5704 -26.5936 8.2609 0.8267
-30.5495 -26.3725 7.1162 0.8488
-28.8115 -26.7502 6.9323 0.8524
-26.0590 -26.0117 6.4923 0.8611
-26.0205 -30.0314 7.0065 0.8510
-24.6587 -30.6315 6.9338 0.8524
-10.5125 -15.1878 3.2570 0.9277
-21.0383 -35.6525 7.2994 0.8452
-19.3253 -35.6342 7.1478 0.8482
-17.6145 -35.4849 6.9854 0.8514
-16.0340 -35.4667 6.8631 0.8538
-14.5060 -35.4493 6.7537 0.8559
-12.3243 -37.6847 6.9911 0.8513
-4.0374 -16.2356 2.9500 0.9343
-7.9008 -37.5174 6.7604 0.8558
-3.3868 -24.8948 4.4300 0.9030
-3.3105 -33.3159 5.9034 0.8729
-2.3579 -37.4550 6.6174 0.8586
1.7087 -37.4095 6.6032 0.8589
3.0663 -37.3944 6.6158 0.8586
4.4309 -37.3793 6.6371 0.8582
7.1958 -37.3487 6.7067 0.8569
8.6307 -37.4500 6.7765 0.8555
10.8335 -35.1654 6.4882 0.8612
13.6755 -35.1343 6.6479 0.8580
15.2092 -35.2475 6.7690 0.8556
16.8243 -32.3397 6.4278 0.8624
19.0157 -30.8732 6.3935 0.8631
18.6620 -27.9797 5.9303 0.8723
18.9511 -26.3006 5.7160 0.8766
18.9801 -24.4272 5.4545 0.8819
18.9641 -22.6648 5.2108 0.8869
18.9052 -21.0018 4.9826 0.8916
21.1574 -18.9104 5.0036 0.8911
26.0253 -18.6134 5.6418 0.8781
-38.3765 -26.4599 7.1410 0.8281
-38.6733 -28.7822 7.3852 0.8228
-35.6817 -28.6177 7.0071 0.8310
-35.6262 -30.7550 7.2101 0.8266
-26.0885 -26.0412 5.6469 0.8614
-25.6875 -31.9094 6.2755 0.8472
-10.5119 -15.1870 2.8295 0.9280
-23.5729 -39.9478 7.1058 0.8289
-21.5889 -39.8080 6.9374 0.8326
-17.1649 -41.9470 6.9433 0.8324
-12.0812 -42.0293 6.6994 0.8378
-3.3766 -24.8200 3.8373 0.9036
6.5219 -41.9707 6.5068 0.8421
9.5978 -41.6468 6.5473 0.8412
11.1936 -41.6292 6.6039 0.8399
12.8193 -41.6113 6.6703 0.8385
15.3335 -39.3941 6.4760 0.8428
16.9907 -39.3760 6.5698 0.8407
19.0708 -36.6580 6.3303 0.8460
19.1048 -31.0179 5.5808 0.8629
14.9386 -20.7320 3.9146 0.9018
18.9774 -24.4236 4.7383 0.8824
18.9616 -22.6618 4.5266 0.8873
19.5094 -20.1568 4.2974 0.8927
21.1547 -18.9079 4.3466 0.8915
22.5500 -18.7331 4.4911 0.8881
24.1924 -18.6610 4.6806 0.8837
26.0211 -18.6104 4.9009 0.8786
28.1230 -18.6143 5.1665 0.8724
29.8354 -16.7806 5.2439 0.8706
29.7743 -15.3562 5.1322 0.8732
29.6594 -12.6738 4.9411 0.8776
-25.8145 -34.5546 5.6167 0.8403
-10.5114 -15.1862 2.4051 0.9282
-25.6098 -40.0186 6.1870 0.8256
-4.1027 -16.4980 2.2138 0.9337
-3.3861 -24.8901 3.2711 0.9036
-3.3828 -34.0435 4.4550 0.8711
18.7714 -39.5101 5.6962 0.8382
18.8959 -30.6788 4.6920 0.8647
18.8699 -28.2914 4.4284 0.8718
18.9196 -26.2567 4.2143 0.8776
16.2024 -20.8523 3.4388 0.8990
18.9004 -20.9966 3.6787 0.8923
19.5070 -20.1543 3.6525 0.8930
22.5468 -18.7304 3.8170 0.8885
24.1889 -18.6583 3.9781 0.8841
26.0170 -18.6075 4.1653 0.8790
29.7715 -15.3548 4.3621 0.8736
29.7130 -13.9883 4.2766 0.8759
-26.0280 -25.9807 3.9490 0.8625
-10.5108 -15.1854 1.9831 0.9284
-25.8214 -40.3493 5.1440 0.8247
19.0707 -28.5925 3.6906 0.8709
18.8818 -26.2044 3.4683 0.8782
18.9720 -24.4167 3.3204 0.8830
18.8981 -20.9939 3.0331 0.8926
19.5046 -20.1518 3.0115 0.8933
26.0129 -18.6046 3.4342 0.8793
28.1138 -18.6082 3.6203 0.8732
29.8934 -18.2668 3.7619 0.8685
29.8297 -16.7773 3.6750 0.8714
-3.3855 -24.8855 2.1260 0.9041
19.4305 -40.8973 3.8329 0.8338
19.0954 -31.0026 3.0823 0.8640
19.0677 -28.5881 2.9090 0.8711
18.9541 -22.6528 2.5003 0.8882
18.8957 -20.9913 2.3908 0.8928
19.5022 -20.1493 2.3738 0.8935
21.1464 -18.9005 2.4009 0.8924
22.5405 -18.7252 2.4806 0.8890
24.1818 -18.6528 2.5853 0.8846
26.0089 -18.6017 2.7069 0.8795
35.9097 -18.5205 3.4203 0.8503
38.8125 -18.2721 3.6315 0.8418
39.4811 -16.8707 3.6345 0.8417
-3.3723 -24.7881 1.5513 0.9046
19.4260 -40.8879 2.8071 0.8341
19.1203 -33.7159 2.4035 0.8561
19.0403 -26.4242 2.0196 0.8776
18.9516 -22.6498 1.8313 0.8884
18.8934 -20.9888 1.7511 0.8930
22.5374 -18.7225 1.8169 0.8892
24.1783 -18.6501 1.8935 0.8848
28.1046 -18.6021 2.0900 0.8737
39.2550 -18.4804 2.6905 0.8404
42.0072 -17.9502 2.8327 0.8327
-26.6029 -24.6997 1.4314 0.8647
-25.4259 -25.3798 1.4166 0.8661
-10.5093 -15.1831 0.7281 0.9287
-4.1015 -16.4937 0.6702 0.9342
-4.2279 -24.4266 0.9775 0.9055
19.4215 -40.8786 1.7846 0.8343
19.1724 -36.8533 1.6380 0.8468
19.0619 -28.5793 1.3546 0.8715
19.0375 -26.4204 1.2841 0.8778
21.1409 -18.8956 1.1181 0.8927
22.5342 -18.7199 1.1552 0.8893
24.1748 -18.6474 1.2039 0.8850
28.1001 -18.5991 1.3287 0.8738
37.9990 -17.8891 1.6561 0.8452
-4.2572 -42.8429 0.7273 0.8418
18.3777 -42.5905 0.7836 0.8306
19.1688 -36.8463 0.7016 0.8469
19.0861 -30.9875 0.6148 0.8645
18.7787 -24.1680 0.5170 0.8848
18.9466 -22.6438 0.4988 0.8886
22.5311 -18.7173 0.4948 0.8894
24.1713 -18.6447 0.5157 0.8850
37.9910 -17.8854 0.7093 0.8454
41.7986 -17.8610 0.7678 0.8337
-42.5398 -22.9704 -0.2722 0.8242
-38.9910 -22.9129 -0.2546 0.8345
-33.1451 -22.8528 -0.2267 0.8513
-28.4252 -22.7976 -0.2051 0.8644
-26.3837 -22.7762 -0.1962 0.8699
-16.9409 -22.6767 -0.1594 0.8929
-10.5082 -15.1816 -0.1040 0.9288
-14.4920 -22.6455 -0.1514 0.8980
-12.2659 -22.6171 -0.1449 0.9022
-11.2240 -22.6108 -0.1421 0.9040
-10.2169 -22.5993 -0.1396 0.9056
-8.2989 -22.5773 -0.1354 0.9083
-4.1010 -16.4914 -0.0957 0.9343
-4.7475 -22.5435 -0.1297 0.9120
-3.9003 -22.5335 -0.1288 0.9126
19.4126 -40.8598 -0.2547 0.8345
19.1651 -36.8394 -0.2338 0.8470
19.0830 -30.9825 -0.2049 0.8645
19.0560 -28.5705 -0.1934 0.8716
18.9442 -22.6409 -0.1662 0.8886
18.8864 -20.9810 -0.1589 0.8932
21.1355 -18.8907 -0.1596 0.8928
22.5280 -18.7148 -0.1649 0.8895
31.8636 -17.9213 -0.2058 0.8640
34.7121 -17.9029 -0.2199 0.8554
37.9831 -17.8816 -0.2364 0.8454
-35.8832 -22.8714 -1.1982 0.8434
-28.4201 -22.7935 -1.0258 0.8643
-26.3811 -22.7739 -0.9813 0.8698
-24.5096 -22.7561 -0.9417 0.8747
-22.7708 -22.7294 -0.9059 0.8792
-19.6625 -22.6933 -0.8455 0.8868
-10.5077 -15.1808 -0.5199 0.9288
-12.2648 -22.6152 -0.7244 0.9022
-11.2233 -22.6095 -0.7108 0.9039
-9.2427 -22.5869 -0.6872 0.9070
-6.4854 -22.5619 -0.6610 0.9103
-4.1007 -16.4903 -0.4785 0.9343
-4.7471 -22.5414 -0.6486 0.9119
-1.4378 -22.8373 -0.6443 0.9125
-1.1738 -43.9522 -1.2380 0.8387
19.4082 -40.8505 -1.2735 0.8345
19.1615 -36.8324 -1.1691 0.8469
19.1071 -33.6927 -1.0906 0.8564
18.7745 -24.1625 -0.8616 0.8848
18.8841 -20.9784 -0.7949 0.8932
19.4902 -20.1369 -0.7891 0.8939
25.1149 -17.9623 -0.8694 0.8838
29.3497 -17.9346 -0.9685 0.8714
-39.9366 -19.7339 -2.2591 0.8366
-38.6886 -22.7352 -2.2758 0.8355
-33.1320 -22.8438 -2.0409 0.8511
-28.4150 -22.7895 -1.8473 0.8643
-24.5073 -22.7540 -1.6960 0.8746
-22.7680 -22.7267 -1.6315 0.8791
-21.1605 -22.7081 -1.5741 0.8831
-19.6603 -22.6908 -1.5226 0.8867
-18.2533 -22.6745 -1.4762 0.8900
-16.9377 -22.6723 -1.4352 0.8928
-10.5071 -15.1801 -0.9363 0.9287
-14.4893 -22.6414 -1.3632 0.8979
-12.2638 -22.6132 -1.3046 0.9021
-10.2157 -22.5967 -1.2576 0.9055
-8.2980 -22.5748 -1.2198 0.9082
-7.3794 -22.5643 -1.2040 0.9093
-6.4848 -22.5597 -1.1904 0.9103
-4.1005 -16.4892 -0.8617 0.9342
-4.7466 -22.5393 -1.1681 0.9119
-3.0637 -22.5195 -1.1526 0.9130
18.3723 -42.5780 -2.3518 0.8305
19.1579 -36.8255 -2.1052 0.8468
19.1038 -33.6869 -1.9640 0.8563
19.0502 -28.5618 -1.7411 0.8715
18.9392 -22.6350 -1.4967 0.8885
18.8817 -20.9758 -1.4313 0.8931
19.4878 -20.1344 -1.4211 0.8938
21.1301 -18.8859 -1.4372 0.8927
22.5217 -18.7096 -1.4849 0.8893
29.3447 -17.9315 -1.7440 0.8713
31.8521 -17.9148 -1.8533 0.8638
37.9673 -17.8742 -2.1282 0.8453
-29.7007 -14.6761 -2.4291 0.8756
-25.8757 -17.8407 -2.3045 0.8816
-25.2896 -18.8214 -2.3115 0.8812
-24.6668 -19.7834 -2.3185 0.8809
-23.9999 -20.7183 -2.3247 0.8806
-22.5618 -22.5209 -2.3374 0.8800
-21.1581 -22.7055 -2.2756 0.8830
-16.9361 -22.6701 -2.0749 0.8927
-10.5066 -15.1793 -1.3536 0.9286
-14.4880 -22.6393 -1.9708 0.8978
-13.3509 -22.6250 -1.9262 0.9000
-11.2220 -22.6068 -1.8506 0.9037
-9.2417 -22.5843 -1.7892 0.9068
-7.3790 -22.5630 -1.7406 0.9092
-4.7462 -22.5372 -1.6887 0.9118
-3.8992 -22.5273 -1.6763 0.9124
-3.0634 -22.5174 -1.6662 0.9129
-2.2366 -22.5077 -1.6584 0.9133
-1.4415 -22.8964 -1.6821 0.9121
2.9376 -35.8254 -2.6356 0.8657
5.5384 -35.6411 -2.6446 0.8653
8.1251 -35.2562 -2.6528 0.8649
7.6063 -24.6902 -1.8943 0.9016
9.9643 -23.0924 -1.8441 0.9040
11.9972 -23.0611 -1.9060 0.9010
17.9881 -29.2049 -2.5150 0.8715
15.3449 -23.0065 -2.0277 0.8950
16.7004 -23.1769 -2.0946 0.8917
18.9367 -22.6320 -2.1637 0.8884
18.8794 -20.9732 -2.0692 0.8930
25.1072 -17.9568 -2.2633 0.8836
29.9864 -16.8655 -2.5226 0.8711
32.3641 -16.6919 -2.6700 0.8641
32.9134 -15.4950 -2.6673 0.8642
33.4152 -14.2787 -2.6644 0.8644
-22.7988 -11.2656 -2.4414 0.9029
-22.0110 -12.9347 -2.4510 0.9025
-20.8958 -14.4073 -2.4367 0.9030
-19.3394 -14.3931 -2.3144 0.9077
-18.8446 -15.1138 -2.3192 0.9075
-17.7758 -16.5041 -2.3287 0.9071
-16.6129 -17.8280 -2.3395 0.9067
-15.9941 -18.4595 -2.3449 0.9065
-15.3512 -19.0695 -2.3503 0.9063
-10.4313 -15.0706 -1.7596 0.9290
-13.2854 -20.7601 -2.3662 0.9057
-11.7988 -21.7559 -2.3761 0.9053
-10.2145 -22.5941 -2.3805 0.9052
-9.2411 -22.5830 -2.3426 0.9066
-8.2971 -22.5722 -2.3088 0.9079
-7.3786 -22.5618 -2.2789 0.9090
-6.4835 -22.5554 -2.2531 0.9100
-4.7457 -22.5351 -2.2109 0.9116
-2.2364 -22.5057 -2.1713 0.9131
-1.4434 -22.9262 -2.2054 0.9118
0.2192 -23.1362 -2.2213 0.9112
4.1654 -26.8059 -2.6044 0.8967
6.1063 -26.4962 -2.6104 0.8965
8.0219 -26.0389 -2.6158 0.8963
9.9263 -23.0044 -2.4054 0.9042
11.9500 -22.9703 -2.4858 0.9012
15.1997 -22.7888 -2.6298 0.8958
16.0191 -22.2314 -2.6307 0.8957
17.1268 -20.4688 -2.5623 0.8983
18.0751 -18.6748 -2.4951 0.9008
18.7360 -18.0064 -2.4948 0.9008
20.5410 -17.0641 -2.5637 0.8982
21.6924 -16.7325 -2.6301 0.8958
22.8259 -15.1082 -2.6279 0.8958
23.3449 -14.2653 -2.6265 0.8959
23.8310 -13.4035 -2.6249 0.8960
24.7018 -11.6291 -2.6212 0.8961
25.0854 -10.7193 -2.6190 0.8962
-17.4702 -11.1353 -2.4609 0.9199
-16.2410 -13.0257 -2.4730 0.9196
-15.7855 -13.6271 -2.4771 0.9194
-15.2938 -14.1997 -2.4790 0.9194
-14.2046 -14.1789 -2.3841 0.9223
-13.4107 -14.3915 -2.3367 0.9238
-12.9030 -14.8919 -2.3406 0.9237
-10.6933 -16.7096 -2.3565 0.9232
-10.1000 -17.1158 -2.3607 0.9231
-9.4911 -17.5007 -2.3649 0.9229
-8.2296 -18.2036 -2.3730 0.9227
-6.9153 -18.8134 -2.3810 0.9224
-6.2405 -19.0820 -2.3848 0.9223
-3.4449 -19.9030 -2.3993 0.9219
-2.0028 -20.1559 -2.4060 0.9216
-1.2752 -20.2558 -2.4109 0.9215
1.7714 -21.6028 -2.5747 0.9164
3.3351 -21.4625 -2.5800 0.9162
5.6552 -21.0319 -2.5870 0.9160
6.4172 -20.8302 -2.5891 0.9159
7.1716 -20.5997 -2.5910 0.9159
7.9173 -20.3408 -2.5928 0.9158
8.6531 -20.0537 -2.5944 0.9158
9.3780 -19.7388 -2.5959 0.9157
11.4759 -18.6320 -2.5993 0.9156
12.8001 -17.7641 -2.6009 0.9156
13.4368 -17.2931 -2.6014 0.9156
15.2341 -15.7396 -2.6020 0.9155
16.3291 -14.5948 -2.6015 0.9156
17.8008 -12.7313 -2.5996 0.9156
18.2430 -12.0748 -2.5987 0.9156
19.0506 -10.7148 -2.5963 0.9157
19.7525 -9.2991 -2.5933 0.9158
-15.5301 -7.6740 -2.4544 0.9324
-14.9748 -8.7999 -2.4610 0.9322
-14.6666 -9.3483 -2.4643 0.9321
-14.3385 -9.8861 -2.4677 0.9321
-13.9908 -10.4125 -2.4711 0.9320
-13.6239 -10.9267 -2.4745 0.9319
-13.2383 -11.4282 -2.4780 0.9318
-12.4122 -12.3896 -2.4849 0.9316
-11.9727 -12.8483 -2.4884 0.9315
-11.5163 -13.2914 -2.4918 0.9314
-11.0434 -13.7183 -2.4953 0.9313
-8.9633 -14.0063 -2.3561 0.9350
-7.9344 -14.6304 -2.3582 0.9350
-7.4100 -14.9276 -2.3613 0.9349
-6.3282 -15.4646 -2.3675 0.9347
-5.7722 -15.7035 -2.3706 0.9346
-4.6338 -16.1205 -2.3766 0.9345
-2.8735 -16.6021 -2.3873 0.9342
-1.6717 -16.8236 -2.3955 0.9340
-1.0628 -16.8824 -2.3968 0.9339
0.7781 -17.0346 -2.4161 0.9334
1.4762 -18.0024 -2.5593 0.9296
2.1276 -17.9531 -2.5616 0.9296
4.7090 -17.5127 -2.5695 0.9294
8.9784 -15.8321 -2.5788 0.9291
9.5481 -15.5020 -2.5797 0.9291
10.1052 -15.1506 -2.5804 0.9291
11.1781 -14.3861 -2.5814 0.9290
11.6924 -13.9740 -2.5816 0.9290
12.1909 -13.5429 -2.5818 0.9290
12.6727 -13.0932 -2.5818 0.9290
14.4211 -11.1238 -2.5806 0.9291
15.1790 -10.0468 -2.5791 0.9291
15.8534 -8.9166 -2.5772 0.9292
16.4407 -7.7399 -2.5747 0.9292
16.7006 -7.1363 -2.5733 0.9293
-13.1454 -7.0982 -2.4611 0.9412
-12.3424 -8.5099 -2.4697 0.9410
-12.0408 -8.9612 -2.4727 0.9410
-11.3887 -9.8315 -2.4786 0.9408
-11.0390 -10.2493 -2.4815 0.9408
-9.8996 -11.4256 -2.4905 0.9406
-9.4913 -11.7902 -2.4935 0.9405
-9.0695 -12.1402 -2.4964 0.9404
-7.2583 -13.3836 -2.5082 0.9401
-6.7773 -13.6530 -2.5110 0.9401
-3.9751 -13.8289 -2.3704 0.9433
-1.4298 -14.3891 -2.3821 0.9431
-0.9257 -14.7046 -2.4272 0.9420
-0.4046 -15.1510 -2.4968 0.9404
0.1463 -15.4428 -2.5441 0.9393
1.8222 -15.3724 -2.5502 0.9392
2.3787 -15.3074 -2.5520 0.9391
2.9327 -15.2217 -2.5537 0.9391
3.4835 -15.1154 -2.5554 0.9391
4.0303 -14.9887 -2.5569 0.9390
5.1087 -14.6742 -2.5597 0.9390
6.1617 -14.2798 -2.5621 0.9389
6.6768 -14.0534 -2.5631 0.9389
7.1832 -13.8076 -2.5641 0.9389
8.6435 -12.9591 -2.5662 0.9388
12.6683 -9.0604 -2.5658 0.9388
12.9843 -8.5941 -2.5651 0.9388
13.2825 -8.1165 -2.5643 0.9388
13.5627 -7.6282 -2.5635 0.9389
14.0670 -6.6225 -2.5613 0.9389
14.2905 -6.1065 -2.5601 0.9389
-11.5334 -6.2278 -2.4637 0.9481
-11.0757 -7.0595 -2.4687 0.9479
-10.8243 -7.4632 -2.4713 0.9479
-10.5584 -7.8579 -2.4738 0.9478
-10.2779 -8.2431 -2.4764 0.9478
-9.9836 -8.6185 -2.4790 0.9477
-9.6755 -8.9833 -2.4816 0.9477
-9.3542 -9.3371 -2.4842 0.9476
-8.6730 -10.0099 -2.4895 0.9475
-8.3140 -10.3278 -2.4921 0.9475
-7.9434 -10.6328 -2.4947 0.9474
-7.1689 -11.2023 -2.4998 0.9473
-6.7660 -11.4660 -2.5024 0.9473
-5.9315 -11.9491 -2.5075 0.9472
-5.5009 -12.1678 -2.5099 0.9471
-5.0622 -12.3709 -2.5124 0.9471
-4.6160 -12.5579 -2.5148 0.9470
-3.7031 -12.8829 -2.5195 0.9469
-3.2378 -13.0202 -2.5218 0.9469
-2.7673 -13.1405 -2.5241 0.9468
-2.2922 -13.2434 -2.5263 0.9468
-1.8133 -13.3289 -2.5284 0.9467
-1.3312 -13.3968 -2.5305 0.9467
-0.8465 -13.4469 -2.5325 0.9466
0.1278 -13.4934 -2.5363 0.9466
1.5917 -13.4278 -2.5416 0.9465
2.5612 -13.2938 -2.5447 0.9464
3.0421 -13.1999 -2.5461 0.9464
3.5193 -13.0882 -2.5475 0.9463
4.4603 -12.8119 -2.5499 0.9463
4.9228 -12.6475 -2.5510 0.9463
5.3791 -12.4661 -2.5520 0.9462
5.8284 -12.2677 -2.5529 0.9462
7.1287 -11.5739 -2.5550 0.9462
7.5441 -11.3108 -2.5555 0.9462
7.9495 -11.0324 -2.5559 0.9462
8.7280 -10.4312 -2.5564 0.9461
9.0999 -10.1091 -2.5566 0.9461
9.8065 -9.4247 -2.5565 0.9461
10.1402 -9.0632 -2.5563 0.9462
10.4602 -8.6896 -2.5560 0.9462
10.7660 -8.3044 -2.5556 0.9462
11.0572 -7.9082 -2.5552 0.9462
12.0682 -6.2242 -2.5523 0.9462
12.2808 -5.7815 -2.5513 0.9463
12.4767 -5.3314 -2.5502 0.9463
-10.2641 -5.5424 -2.4657 0.9534
-10.0661 -5.9153 -2.4680 0.9534
-9.6298 -6.6396 -2.4725 0.9533
-9.3920 -6.9899 -2.4748 0.9533
-9.1416 -7.3318 -2.4771 0.9532
-8.8786 -7.6647 -2.4794 0.9532
-8.6038 -7.9883 -2.4817 0.9531
-8.3170 -8.3020 -2.4840 0.9531
-8.0188 -8.6053 -2.4863 0.9530
-7.7096 -8.8980 -2.4887 0.9530
-5.2684 -10.6133 -2.5046 0.9527
-4.8854 -10.8064 -2.5068 0.9527
-3.6958 -11.3009 -2.5133 0.9526
-3.2874 -11.4365 -2.5153 0.9525
-2.8740 -11.5573 -2.5174 0.9525
-2.4561 -11.6629 -2.5194 0.9524
-1.6091 -11.8278 -2.5232 0.9524
-0.7510 -11.9302 -2.5268 0.9523
0.5465 -11.9649 -2.5318 0.9522
0.9794 -11.9446 -2.5333 0.9522
1.8424 -11.8563 -2.5363 0.9521
2.2712 -11.7882 -2.5376 0.9521
3.1203 -11.6044 -2.5401 0.9521
3.5395 -11.4890 -2.5412 0.9520
4.7683 -11.0506 -2.5440 0.9520
5.1664 -10.8743 -2.5448 0.9520
5.5578 -10.6833 -2.5455 0.9520
5.9420 -10.4779 -2.5462 0.9519
6.6864 -10.0249 -2.5472 0.9519
8.6912 -8.3528 -2.5480 0.9519
9.5419 -7.3602 -2.5473 0.9519
10.8866 -5.1252 -2.5435 0.9520
11.0608 -4.7264 -2.5425 0.9520
-9.4045 -4.6471 -2.4654 0.9578
-9.0587 -5.3233 -2.4694 0.9577
-8.6644 -5.9740 -2.4735 0.9577
-8.4498 -6.2886 -2.4755 0.9576
-7.7384 -7.1848 -2.4817 0.9575
-7.4798 -7.4662 -2.4838 0.9575
-6.6439 -8.2532 -2.4901 0.9574
-6.0400 -8.7263 -2.4942 0.9573
-5.7252 -8.9464 -2.4963 0.9573
-5.4024 -9.1551 -2.4983 0.9573
-4.7341 -9.5370 -2.5024 0.9572
-4.0387 -9.8697 -2.5063 0.9571
-3.6820 -10.0170 -2.5082 0.9571
-1.8267 -10.5540 -2.5173 0.9569
-1.0605 -10.6725 -2.5206 0.9569
-0.2867 -10.7346 -2.5238 0.9568
0.1018 -10.7442 -2.5253 0.9568
0.4906 -10.7396 -2.5267 0.9568
0.8791 -10.7207 -2.5281 0.9568
1.2669 -10.6874 -2.5294 0.9567
1.6534 -10.6399 -2.5306 0.9567
2.4204 -10.5026 -2.5330 0.9567
3.1758 -10.3086 -2.5351 0.9566
3.5478 -10.1907 -2.5360 0.9566
4.9859 -9.5840 -2.5390 0.9566
5.3304 -9.3995 -2.5396 0.9566
5.6680 -9.2023 -2.5401 0.9566
5.9980 -8.9927 -2.5405 0.9566
6.3201 -8.7711 -2.5408 0.9566
6.6338 -8.5377 -2.5411 0.9565
8.7913 -6.2876 -2.5402 0.9566
9.0113 -5.9645 -2.5398 0.9566
9.4146 -5.2952 -2.5386 0.9566
9.5974 -4.9499 -2.5379 0.9566
-8.5420 -4.2209 -2.4669 0.9614
-8.3899 -4.5303 -2.4687 0.9614
-8.2266 -4.8343 -2.4706 0.9613
-8.0524 -5.1325 -2.4724 0.9613
-7.8674 -5.4244 -2.4743 0.9613
-7.6719 -5.7097 -2.4761 0.9613
-7.4660 -5.9880 -2.4780 0.9612
-6.7891 -6.7768 -2.4837 0.9611
-6.5446 -7.0233 -2.4856 0.9611
-6.0291 -7.4894 -2.4894 0.9611
-5.7586 -7.7083 -2.4913 0.9610
-5.1941 -8.1165 -2.4950 0.9610
-4.9008 -8.3052 -2.4968 0.9609
-4.6007 -8.4832 -2.4987 0.9609
-3.6627 -8.9508 -2.5041 0.9608
-3.0103 -9.2048 -2.5075 0.9608
-2.3402 -9.4108 -2.5108 0.9607
-1.9996 -9.4954 -2.5124 0.9607
-1.6560 -9.5674 -2.5140 0.9607
-1.3097 -9.6269 -2.5155 0.9607
-0.9613 -9.6737 -2.5170 0.9606
-0.6111 -9.7077 -2.5185 0.9606
-0.2598 -9.7288 -2.5199 0.9606
0.4445 -9.7324 -2.5225 0.9605
0.7966 -9.7147 -2.5237 0.9605
1.4981 -9.6406 -2.5261 0.9605
1.8465 -9.5842 -2.5271 0.9605
2.5364 -9.4329 -2.5291 0.9604
3.2138 -9.2312 -2.5308 0.9604
3.8751 -8.9806 -2.5325 0.9604
4.1984 -8.8368 -2.5331 0.9604
4.5163 -8.6812 -2.5337 0.9604
4.8282 -8.5139 -2.5342 0.9604
5.1339 -8.3351 -2.5346 0.9604
6.2846 -7.5109 -2.5357 0.9603
6.5523 -7.2790 -2.5358 0.9603
6.8113 -7.0373 -2.5358 0.9603
7.0611 -6.7862 -2.5357 0.9603
7.3016 -6.5261 -2.5356 0.9603
7.5322 -6.2572 -2.5354 0.9603
7.7527 -5.9801 -2.5351 0.9604
8.1622 -5.4025 -2.5343 0.9604
8.8477 -4.1653 -2.5320 0.9604
8.9899 -3.8415 -2.5312 0.9604
-7.8166 -3.8625 -2.4682 0.9644
-7.5271 -4.4233 -2.4716 0.9644
-7.3672 -4.6958 -2.4732 0.9643
-7.0182 -5.2232 -2.4767 0.9643
-6.2090 -6.1978 -2.4836 0.9642
-5.7528 -6.6396 -2.4870 0.9641
-5.5128 -6.8481 -2.4888 0.9641
-4.7485 -7.4202 -2.4939 0.9640
-4.2054 -7.7544 -2.4973 0.9640
-3.9248 -7.9067 -2.4989 0.9640
-3.6387 -8.0487 -2.5006 0.9639
-3.3474 -8.1803 -2.5022 0.9639
-3.0513 -8.3013 -2.5038 0.9639
-2.4463 -8.5106 -2.5068 0.9639
-0.8781 -8.8370 -2.5140 0.9638
-0.5582 -8.8676 -2.5153 0.9637
-0.2373 -8.8864 -2.5166 0.9637
0.0842 -8.8936 -2.5178 0.9637
0.4060 -8.8889 -2.5190 0.9637
1.0484 -8.8441 -2.5212 0.9637
1.6862 -8.7521 -2.5232 0.9636
2.0024 -8.6886 -2.5242 0.9636
3.2382 -8.3195 -2.5273 0.9636
3.8329 -8.0675 -2.5285 0.9636
4.1230 -7.9253 -2.5290 0.9635
4.4077 -7.7724 -2.5295 0.9635
4.9597 -7.4361 -2.5304 0.9635
5.2260 -7.2527 -2.5307 0.9635
5.4853 -7.0595 -2.5309 0.9635
5.9817 -6.6452 -2.5311 0.9635
6.2182 -6.4245 -2.5311 0.9635
6.6658 -5.9579 -2.5309 0.9635
7.0778 -5.4595 -2.5305 0.9635
7.2697 -5.1993 -2.5302 0.9635
7.4519 -4.9323 -2.5298 0.9635
7.6240 -4.6588 -2.5294 0.9635
7.9375 -4.0938 -2.5283 0.9636
8.2083 -3.5076 -2.5270 0.9636
-7.0686 -3.8169 -2.4709 0.9669
-6.9303 -4.0726 -2.4724 0.9669
-6.4607 -4.8083 -2.4771 0.9669
-6.1040 -5.2694 -2.4803 0.9668
-5.7145 -5.7042 -2.4835 0.9668
-5.5080 -5.9109 -2.4851 0.9668
-5.0729 -6.3016 -2.4882 0.9667
-4.6100 -6.6603 -2.4914 0.9667
-4.3688 -6.8269 -2.4930 0.9666
-4.1217 -6.9848 -2.4945 0.9666
-3.8696 -7.1352 -2.4966 0.9666
-3.6104 -7.2734 -2.4976 0.9666
-3.3471 -7.4036 -2.4991 0.9666
-2.8065 -7.6351 -2.5020 0.9665
-2.5300 -7.7361 -2.5035 0.9665
-2.2498 -7.8269 -2.5049 0.9665
-1.9664 -7.9075 -2.5062 0.9665
-1.3911 -8.0375 -2.5089 0.9664
-1.1001 -8.0866 -2.5102 0.9664
-0.8074 -8.1252 -2.5114 0.9664
-0.2182 -8.1700 -2.5138 0.9664
0.0774 -8.1762 -2.5149 0.9664
0.6688 -8.1561 -2.5171 0.9663
0.9637 -8.1298 -2.5181 0.9663
1.2575 -8.0927 -2.5190 0.9663
1.8405 -7.9862 -2.5207 0.9663
2.6970 -7.7467 -2.5230 0.9663
2.9761 -7.6461 -2.5236 0.9662
3.5225 -7.4143 -2.5247 0.9662
3.7891 -7.2833 -2.5252 0.9662
4.0506 -7.1428 -2.5256 0.9662
4.5575 -6.8330 -2.5263 0.9662
5.0403 -6.4869 -2.5267 0.9662
5.4964 -6.1060 -2.5269 0.9662
5.9233 -5.6926 -2.5268 0.9662
6.1250 -5.4744 -2.5267 0.9662
6.3185 -5.2490 -2.5265 0.9662
6.5036 -5.0166 -2.5263 0.9662
6.8474 -4.5322 -2.5257 0.9662
7.1546 -4.0240 -2.5248 0.9662
7.2939 -3.7619 -2.5243 0.9662
7.4235 -3.4948 -2.5237 0.9662
7.5431 -3.2233 -2.5230 0.9663
-6.6626 -3.2922 -2.4703 0.9692
-6.4145 -3.7695 -2.4731 0.9691
-6.2777 -4.0013 -2.4746 0.9691
-5.9790 -4.4498 -2.4775 0.9691
-5.8176 -4.6659 -2.4789 0.9691
-5.2875 -5.2779 -2.4834 0.9690
-5.0962 -5.4689 -2.4848 0.9690
-4.8980 -5.6530 -2.4863 0.9690
-4.0412 -6.3150 -2.4922 0.9689
-3.8168 -6.4682 -2.4965 0.9688
-3.5808 -6.6027 -2.4968 0.9688
-3.3401 -6.7287 -2.4970 0.9688
-3.0955 -6.8471 -2.4978 0.9688
-2.5953 -7.0606 -2.5005 0.9688
-2.3395 -7.1536 -2.5018 0.9688
-1.8182 -7.3115 -2.5044 0.9687
-1.2862 -7.4312 -2.5069 0.9687
-1.0171 -7.4763 -2.5081 0.9687
-0.4745 -7.5371 -2.5103 0.9687
-0.2017 -7.5526 -2.5114 0.9687
0.0716 -7.5581 -2.5124 0.9686
0.6182 -7.5390 -2.5144 0.9686
0.8908 -7.5145 -2.5153 0.9686
1.4325 -7.4354 -2.5170 0.9686
1.7010 -7.3811 -2.5178 0.9686
2.2314 -7.2429 -2.5192 0.9686
2.4925 -7.1593 -2.5199 0.9686
3.2552 -6.8517 -2.5215 0.9685
3.5015 -6.7306 -2.5219 0.9685
3.7432 -6.6006 -2.5223 0.9685
3.9800 -6.4618 -2.5227 0.9685
4.2115 -6.3143 -2.5229 0.9685
4.4375 -6.1584 -2.5232 0.9685
5.2798 -5.4550 -2.5235 0.9685
5.4735 -5.2604 -2.5234 0.9685
5.6599 -5.0588 -2.5233 0.9685
5.8387 -4.8505 -2.5232 0.9685
6.0098 -4.6358 -2.5230 0.9685
6.1729 -4.4149 -2.5227 0.9685
6.4740 -3.9561 -2.5220 0.9685
6.6117 -3.7187 -2.5215 0.9685
6.7406 -3.4765 -2.5211 0.9685
6.9711 -2.9789 -2.5199 0.9686
-6.1952 -3.0613 -2.4711 0.9711
-5.8365 -3.7202 -2.4751 0.9710
-5.4081 -4.3375 -2.4792 0.9710
-5.2507 -4.5328 -2.4805 0.9710
-4.9147 -4.9058 -2.4833 0.9709
-4.5523 -5.2540 -2.4860 0.9709
-3.7629 -5.8801 -2.4965 0.9708
-3.5481 -6.0127 -2.4966 0.9708
-3.3286 -6.1377 -2.4969 0.9708
-2.8769 -6.3636 -2.4974 0.9708
-2.6454 -6.4649 -2.4980 0.9708
-2.4111 -6.5596 -2.4992 0.9707
-2.1734 -6.6458 -2.5004 0.9707
-1.9326 -6.7233 -2.5016 0.9707
-1.4429 -6.8518 -2.5040 0.9707
-1.1947 -6.9026 -2.5051 0.9707
-0.6933 -6.9769 -2.5073 0.9707
-0.4407 -7.0003 -2.5083 0.9706
-0.1873 -7.0145 -2.5093 0.9706
0.0665 -7.0194 -2.5103 0.9706
0.3204 -7.0150 -2.5112 0.9706
0.5741 -7.0013 -2.5121 0.9706
0.8272 -6.9783 -2.5130 0.9706
1.0794 -6.9461 -2.5138 0.9706
1.3303 -6.9046 -2.5145 0.9706
1.5796 -6.8540 -2.5153 0.9706
1.8269 -6.7942 -2.5159 0.9706
2.7899 -6.4657 -2.5182 0.9705
3.4754 -6.1284 -2.5194 0.9705
3.6952 -5.9995 -2.5198 0.9705
3.9102 -5.8625 -2.5200 0.9705
4.1200 -5.7178 -2.5202 0.9705
4.3243 -5.5654 -2.5204 0.9705
4.5229 -5.4055 -2.5205 0.9705
5.2549 -4.6968 -2.5204 0.9705
5.5798 -4.3041 -2.5200 0.9705
5.8750 -3.8886 -2.5195 0.9705
6.1389 -3.4528 -2.5187 0.9705
6.4729 -2.7660 -2.5172 0.9705
-5.7829 -2.8575 -2.4719 0.9727
-5.1876 -3.8608 -2.4781 0.9727
-4.7462 -4.4067 -2.4819 0.9726
-4.2476 -4.9024 -2.4858 0.9726
-3.5116 -5.4872 -2.4965 0.9725
-3.1063 -5.7278 -2.4970 0.9725
-2.6847 -5.9385 -2.4975 0.9725
-2.4684 -6.0323 -2.4978 0.9725
-2.2489 -6.1183 -2.4980 0.9725
-1.8025 -6.2706 -2.5003 0.9724
-1.5752 -6.3346 -2.5014 0.9724
-1.3457 -6.3901 -2.5025 0.9724
-0.8810 -6.4760 -2.5046 0.9724
-0.6465 -6.5062 -2.5056 0.9724
-0.4109 -6.5279 -2.5065 0.9724
0.5353 -6.5281 -2.5101 0.9723
0.7713 -6.5065 -2.5109 0.9723
1.0064 -6.4763 -2.5116 0.9723
1.7032 -6.3344 -2.5137 0.9723
1.9317 -6.2701 -2.5143 0.9723
2.3808 -6.1167 -2.5153 0.9723
2.8177 -5.9306 -2.5162 0.9723
3.0308 -5.8258 -2.5166 0.9723
3.2399 -5.7131 -2.5169 0.9723
4.0312 -5.1880 -2.5178 0.9722
4.7373 -4.5528 -2.5179 0.9722
4.8986 -4.3784 -2.5178 0.9722
5.0535 -4.1981 -2.5176 0.9722
5.8347 -3.0093 -2.5158 0.9723
5.9386 -2.7958 -2.5154 0.9723
-5.4161 -2.6763 -2.4725 0.9742
-5.3182 -2.8718 -2.4737 0.9742
-4.9830 -3.4357 -2.4772 0.9742
-4.8578 -3.6154 -2.4784 0.9742
-4.7262 -3.7905 -2.4796 0.9742
-4.5882 -3.9609 -2.4808 0.9741
-4.4441 -4.1262 -2.4820 0.9741
-4.2940 -4.2863 -2.4832 0.9741
-3.6498 -4.8856 -2.4959 0.9740
-3.1005 -5.2542 -2.4969 0.9740
-2.7131 -5.4656 -2.4974 0.9740
-1.8974 -5.8018 -2.4983 0.9740
-1.6869 -5.8687 -2.4992 0.9740
-1.0427 -6.0241 -2.5022 0.9739
-0.8245 -6.0602 -2.5031 0.9739
-0.3845 -6.1084 -2.5050 0.9739
0.5009 -6.1081 -2.5083 0.9739
0.9416 -6.0594 -2.5097 0.9738
1.3778 -5.9786 -2.5110 0.9738
1.5935 -5.9263 -2.5116 0.9738
2.0186 -5.7981 -2.5127 0.9738
2.2273 -5.7224 -2.5132 0.9738
2.4333 -5.6391 -2.5136 0.9738
2.6360 -5.5483 -2.5140 0.9738
2.8353 -5.4500 -2.5144 0.9738
3.7711 -4.8533 -2.5155 0.9738
4.1122 -4.5683 -2.5156 0.9738
4.2747 -4.4166 -2.5156 0.9738
4.4316 -4.2590 -2.5156 0.9738
4.7274 -3.9272 -2.5153 0.9738
5.1236 -3.3913 -2.5147 0.9738
5.2423 -3.2034 -2.5144 0.9738
5.4585 -2.8153 -2.5136 0.9738
5.5558 -2.6156 -2.5132 0.9738
5.6457 -2.4125 -2.5127 0.9738
-5.0875 -2.5139 -2.4731 0.9755
-4.9954 -2.6974 -2.4742 0.9755
-4.8967 -2.8776 -2.4753 0.9755
-4.6801 -3.2269 -2.4775 0.9755
-4.4386 -3.5599 -2.4797 0.9755
-4.3089 -3.7197 -2.4808 0.9755
-4.0326 -4.0253 -2.4832 0.9754
-3.8873 -4.1717 -2.4851 0.9754
-3.7403 -4.3169 -2.4893 0.9754
-3.4282 -4.5889 -2.4964 0.9753
-3.2603 -4.7103 -2.4966 0.9753
-2.9118 -4.9344 -2.4970 0.9753
-2.7317 -5.0370 -2.4972 0.9753
-2.5479 -5.1329 -2.4974 0.9753
-2.1706 -5.3046 -2.4979 0.9753
-1.9775 -5.3800 -2.4981 0.9753
-1.7819 -5.4485 -2.4983 0.9753
-1.5838 -5.5099 -2.4985 0.9753
-0.9787 -5.6545 -2.5009 0.9753
-0.7738 -5.6882 -2.5018 0.9753
-0.5678 -5.7145 -2.5027 0.9753
-0.3609 -5.7332 -2.5036 0.9752
-0.1534 -5.7444 -2.5044 0.9752
0.0545 -5.7480 -2.5052 0.9752
0.4701 -5.7324 -2.5067 0.9752
0.6773 -5.7133 -2.5074 0.9752
0.8837 -5.6865 -2.5080 0.9752
1.0890 -5.6523 -2.5086 0.9752
1.2930 -5.6105 -2.5092 0.9752
1.4954 -5.5613 -2.5098 0.9752
1.6959 -5.5047 -2.5103 0.9752
1.8942 -5.4409 -2.5108 0.9752
2.0901 -5.3698 -2.5113 0.9752
2.2833 -5.2915 -2.5117 0.9752
3.5385 -4.5540 -2.5134 0.9751
4.3000 -3.8433 -2.5134 0.9751
4.5660 -3.5220 -2.5131 0.9752
4.8077 -3.1822 -2.5127 0.9752
4.9191 -3.0059 -2.5124 0.9752
5.0239 -2.8257 -2.5121 0.9752
5.1221 -2.6417 -2.5117 0.9752
5.2134 -2.4544 -2.5113 0.9752
-4.7910 -2.3674 -2.4737 0.9767
-4.7042 -2.5402 -2.4747 0.9767
-4.6112 -2.7097 -2.4757 0.9767
-4.5120 -2.8759 -2.4767 0.9767
-4.0572 -3.5025 -2.4810 0.9767
-3.9301 -3.6490 -2.4824 0.9766
-3.8000 -3.7931 -2.4853 0.9766
-3.5315 -4.0759 -2.4963 0.9765
-3.3818 -4.2009 -2.4963 0.9765
-3.2279 -4.3208 -2.4965 0.9765
-3.0698 -4.4350 -2.4967 0.9765
-2.7416 -4.6461 -2.4971 0.9765
-2.5720 -4.7426 -2.4973 0.9765
-2.2228 -4.9169 -2.4977 0.9765
-2.0438 -4.9945 -2.4979 0.9765
-1.6777 -5.1300 -2.4983 0.9765
-1.3027 -5.2387 -2.4987 0.9765
-1.1125 -5.2828 -2.4990 0.9765
-0.7282 -5.3531 -2.5007 0.9765
-0.5344 -5.3777 -2.5015 0.9765
-0.1444 -5.4056 -2.5031 0.9764
0.2469 -5.4051 -2.5045 0.9764
0.6373 -5.3759 -2.5059 0.9764
0.8315 -5.3507 -2.5065 0.9764
1.4070 -5.2327 -2.5082 0.9764
1.5956 -5.1794 -2.5087 0.9764
2.5032 -4.8116 -2.5106 0.9764
2.8450 -4.6190 -2.5111 0.9764
3.1719 -4.4019 -2.5114 0.9764
3.3291 -4.2846 -2.5116 0.9764
3.4820 -4.1614 -2.5116 0.9764
3.6303 -4.0329 -2.5117 0.9764
3.9122 -3.7599 -2.5116 0.9764
4.2958 -3.3136 -2.5113 0.9764
4.6281 -2.8281 -2.5106 0.9764
4.7268 -2.6585 -2.5103 0.9764
4.8192 -2.4855 -2.5099 0.9764
4.9846 -2.1300 -2.5091 0.9764
-4.3520 -2.5574 -2.4761 0.9778
-3.9447 -3.1638 -2.4804 0.9777
-3.7142 -3.4485 -2.4861 0.9777
-3.5945 -3.5880 -2.4913 0.9776
-2.5872 -4.3845 -2.4972 0.9776
-2.2639 -4.5607 -2.4976 0.9776
-1.4072 -4.8954 -2.4985 0.9776
-1.0498 -4.9851 -2.4989 0.9776
-0.5040 -5.0724 -2.5004 0.9775
-0.3204 -5.0889 -2.5011 0.9775
-0.1362 -5.0986 -2.5019 0.9775
0.0483 -5.1016 -2.5026 0.9775
0.2329 -5.0979 -2.5032 0.9775
0.4172 -5.0875 -2.5039 0.9775
1.1474 -4.9787 -2.5062 0.9775
1.5048 -4.8846 -2.5071 0.9775
1.6808 -4.8279 -2.5076 0.9775
1.8546 -4.7647 -2.5080 0.9775
2.3606 -4.5376 -2.5089 0.9775
2.5234 -4.4497 -2.5092 0.9775
2.6829 -4.3559 -2.5094 0.9775
3.6893 -3.5457 -2.5100 0.9775
3.8150 -3.4098 -2.5099 0.9775
4.3645 -2.6670 -2.5090 0.9775
4.4576 -2.5072 -2.5087 0.9775
4.5448 -2.3440 -2.5084 0.9775
4.7009 -2.0088 -2.5076 0.9775
-4.2764 -2.1131 -2.4746 0.9787
-3.9337 -2.7122 -2.4788 0.9787
-3.7345 -2.9952 -2.4835 0.9787
-3.5212 -3.2693 -2.4927 0.9786
-3.0177 -3.7487 -2.4966 0.9785
-2.5945 -4.0543 -2.4971 0.9785
-2.4464 -4.1458 -2.4973 0.9785
-2.2950 -4.2319 -2.4975 0.9785
-2.1406 -4.3124 -2.4976 0.9785
-1.9834 -4.3873 -2.4978 0.9785
-1.3305 -4.6288 -2.4986 0.9785
-0.9926 -4.7136 -2.4989 0.9785
-0.8216 -4.7467 -2.4991 0.9785
-0.6494 -4.7737 -2.4993 0.9785
-0.3028 -4.8097 -2.5001 0.9785
0.9133 -4.7402 -2.5044 0.9785
1.0843 -4.7051 -2.5049 0.9785
1.5883 -4.5623 -2.5062 0.9785
1.9145 -4.4368 -2.5069 0.9785
2.2307 -4.2879 -2.5075 0.9785
2.3845 -4.2048 -2.5077 0.9785
2.5353 -4.1162 -2.5079 0.9785
2.8265 -3.9226 -2.5082 0.9784
3.2350 -3.5938 -2.5084 0.9784
3.3628 -3.4744 -2.5085 0.9784
3.6050 -3.2221 -2.5083 0.9784
3.7190 -3.0895 -2.5082 0.9784
3.9321 -2.8123 -2.5079 0.9785
4.2124 -2.3692 -2.5072 0.9785
4.2948 -2.2151 -2.5069 0.9785
4.3715 -2.0580 -2.5066 0.9785
4.4424 -1.8983 -2.5062 0.9785
-3.9783 -2.1482 -2.4763 0.9796
-3.8173 -2.4332 -2.4794 0.9796
-3.6398 -2.7089 -2.4851 0.9795
-3.4472 -2.9759 -2.4943 0.9794
-2.8585 -3.5509 -2.4967 0.9794
-2.7284 -3.6522 -2.4969 0.9794
-2.5947 -3.7487 -2.4970 0.9794
-2.4576 -3.8403 -2.4972 0.9794
-2.3173 -3.9270 -2.4974 0.9794
-2.0276 -4.0847 -2.4977 0.9794
-1.7273 -4.2212 -2.4980 0.9794
-0.9402 -4.4646 -2.4989 0.9794
-0.6151 -4.5215 -2.4993 0.9794
-0.4512 -4.5412 -2.4994 0.9794
0.2084 -4.5616 -2.5010 0.9794
0.3733 -4.5522 -2.5016 0.9794
0.5378 -4.5367 -2.5021 0.9794
0.8646 -4.4878 -2.5032 0.9794
1.0266 -4.4544 -2.5036 0.9794
1.3463 -4.3701 -2.5045 0.9794
1.5037 -4.3192 -2.5049 0.9794
1.6591 -4.2626 -2.5052 0.9794
2.5396 -3.8076 -2.5067 0.9793
2.6758 -3.7134 -2.5068 0.9793
2.8084 -3.6144 -2.5069 0.9793
2.9374 -3.5105 -2.5070 0.9793
3.0624 -3.4021 -2.5070 0.9793
3.4127 -3.0503 -2.5069 0.9793
3.6240 -2.7954 -2.5067 0.9793
3.7224 -2.6623 -2.5066 0.9793
3.9045 -2.3859 -2.5061 0.9793
4.0658 -2.0970 -2.5056 0.9794
4.1385 -1.9483 -2.5053 0.9794
4.2056 -1.7971 -2.5049 0.9794
-3.7045 -2.1770 -2.4808 0.9803
-3.6275 -2.3121 -2.4836 0.9803
-3.5466 -2.4454 -2.4872 0.9803
-3.3720 -2.7045 -2.4956 0.9802
-3.2728 -2.8254 -2.4963 0.9802
-2.9479 -3.1635 -2.4965 0.9802
-2.8317 -3.2682 -2.4966 0.9802
-2.7118 -3.3687 -2.4968 0.9802
-2.5884 -3.4648 -2.4970 0.9802
-2.3315 -3.6432 -2.4973 0.9802
-2.1983 -3.7254 -2.4974 0.9802
-2.0623 -3.8028 -2.4976 0.9802
-1.9236 -3.8751 -2.4977 0.9802
-1.7823 -3.9424 -2.4979 0.9802
-1.4929 -4.0614 -2.4982 0.9802
-1.3451 -4.1130 -2.4984 0.9802
-1.1956 -4.1593 -2.4986 0.9802
-0.7382 -4.2651 -2.4991 0.9802
-0.5835 -4.2893 -2.4992 0.9802
-0.2720 -4.3208 -2.4996 0.9802
-0.1156 -4.3281 -2.4997 0.9802
0.0410 -4.3297 -2.4999 0.9802
0.1976 -4.3257 -2.5000 0.9802
0.6653 -4.2815 -2.5016 0.9802
0.9734 -4.2238 -2.5025 0.9802
1.1257 -4.1865 -2.5029 0.9802
1.8617 -3.9184 -2.5046 0.9802
2.0023 -3.8489 -2.5049 0.9802
2.2757 -3.6947 -2.5053 0.9802
2.4079 -3.6102 -2.5054 0.9802
2.7851 -3.3286 -2.5057 0.9802
2.9037 -3.2257 -2.5057 0.9802
3.5295 -2.5243 -2.5053 0.9802
3.6182 -2.3949 -2.5051 0.9802
3.7812 -2.1267 -2.5046 0.9802
3.9241 -1.8474 -2.5041 0.9802
3.9878 -1.7041 -2.5037 0.9802
