ply
format ascii 1.0
element vertex 819
property float32 x
property float32 y
property float32 z
property float32 I
end_header
-24.0259 -30.5825 6.8576 0.8539
-23.9434 -32.8425 7.1666 0.8478
-22.0864 -32.7031 6.9583 0.8519
-20.4021 -32.6837 6.7937 0.8551
-20.4847 -35.6045 7.2429 0.8463
-7.7089 -15.9510 3.1238 0.9306
-12.7202 -35.6954 6.6817 0.8573
-8.9542 -37.4877 6.7960 0.8551
-4.7656 -37.4404 6.6550 0.8579
-3.4020 -37.4251 6.6263 0.8584
0.6433 -37.3798 6.5920 0.8591
3.3372 -37.3498 6.6120 0.8587
6.0617 -37.3196 6.6667 0.8576
7.4446 -37.3044 6.7075 0.8568
8.8739 -37.4060 6.7787 0.8554
9.7403 -35.3480 6.4651 0.8616
8.1306 -20.5505 3.8969 0.9141
15.3394 -31.8650 6.2358 0.8662
15.1230 -28.7253 5.7241 0.8765
15.3741 -26.8170 5.4505 0.8820
17.2201 -19.0009 4.5216 0.9011
18.2961 -18.7846 4.6237 0.8990
19.5748 -18.7026 4.7737 0.8959
20.9690 -18.6399 4.9471 0.8923
22.5198 -18.6133 5.1516 0.8881
26.1733 -17.2547 5.5277 0.8804
26.0598 -14.6091 5.2678 0.8857
26.0069 -13.3743 5.1566 0.8880
25.9562 -12.1891 5.0563 0.8901
25.9073 -11.0477 4.9662 0.8919
25.8143 -8.8760 4.8133 0.8951
-25.4425 -37.6724 6.9641 0.8320
-16.6516 -41.8996 6.9071 0.8332
-14.9241 -41.8799 6.8110 0.8353
-13.2419 -41.8608 6.7260 0.8372
-6.9765 -29.2077 4.6003 0.8856
-6.8333 -33.9694 5.3082 0.8692
-6.9237 -42.2159 6.5536 0.8410
5.2871 -42.0536 6.4931 0.8424
6.7814 -41.7502 6.4797 0.8427
9.8695 -41.6022 6.5501 0.8411
11.4588 -41.5847 6.6080 0.8398
13.1195 -41.6969 6.6965 0.8379
14.0026 -39.4858 6.4181 0.8441
15.4101 -38.9500 6.4169 0.8441
15.1851 -28.8432 4.9936 0.8764
15.3032 -24.5995 4.4382 0.8894
15.2753 -22.6931 4.1907 0.8952
15.2434 -20.9766 3.9724 0.9004
18.2940 -18.7823 4.0166 0.8993
22.5167 -18.6107 4.4752 0.8885
26.1120 -18.5945 4.9108 0.8783
26.1711 -17.2533 4.8021 0.8809
26.1131 -15.8988 4.6835 0.8836
26.0578 -14.6079 4.5764 0.8861
26.0049 -13.3733 4.4797 0.8884
25.9053 -11.0469 4.3143 0.8923
25.8581 -9.9441 4.2441 0.8939
25.8124 -8.8754 4.1815 0.8954
-29.3196 -37.3209 6.1803 0.8258
-7.4454 -26.8584 3.6294 0.8937
15.1198 -42.6363 5.8909 0.8332
15.4623 -35.3152 5.0202 0.8560
15.2734 -22.6903 3.5618 0.8955
15.8079 -20.1857 3.3387 0.9017
16.3840 -19.4392 3.3106 0.9025
17.2161 -18.9965 3.3385 0.9018
18.2917 -18.7801 3.4139 0.8997
22.5135 -18.6081 3.8035 0.8889
24.2423 -18.6117 3.9799 0.8840
26.1081 -18.5917 4.1737 0.8787
26.1109 -15.8975 3.9808 0.8840
26.0029 -13.3722 3.8076 0.8887
25.9522 -12.1873 3.7336 0.8908
26.2319 -11.1861 3.7136 0.8913
26.6339 -10.2425 3.7159 0.8913
-29.5520 -37.6166 5.1368 0.8249
-6.8483 -34.0436 3.7289 0.8696
-7.1080 -43.3400 4.7161 0.8380
15.3427 -35.0419 4.1077 0.8574
15.4275 -32.0482 3.8194 0.8667
15.2715 -22.6874 2.9367 0.8958
15.8061 -20.1834 2.7528 0.9020
16.3822 -19.4370 2.7296 0.9028
18.2896 -18.7778 2.8148 0.8999
19.5674 -18.6956 2.9061 0.8968
26.1042 -18.5889 3.4412 0.8790
30.5031 -15.6865 3.6832 0.8711
31.5945 -13.4729 3.6883 0.8709
32.0828 -12.3379 3.6911 0.8709
32.5319 -11.1858 3.6941 0.8708
-6.8914 -42.0190 3.6045 0.8429
15.2555 -43.0189 3.8639 0.8326
15.3215 -38.7261 3.5255 0.8460
15.4567 -35.3024 3.2623 0.8567
15.2969 -24.5894 2.4515 0.8903
15.2696 -22.6847 2.3148 0.8960
16.3804 -19.4348 2.1516 0.9030
20.9581 -18.6303 2.3738 0.8935
22.5074 -18.6030 2.4719 0.8894
24.2354 -18.6064 2.5865 0.8846
39.6639 -16.9140 3.6502 0.8411
40.2847 -15.4921 3.6537 0.8409
-7.1068 -43.3323 2.7229 0.8386
15.6100 -39.4554 2.6312 0.8436
15.2948 -24.5861 1.7955 0.8904
15.2677 -22.6818 1.6955 0.8962
15.2366 -20.9672 1.6072 0.9013
15.8025 -20.1788 1.5893 0.9024
20.9555 -18.6279 1.7386 0.8937
24.2320 -18.6038 1.8944 0.8848
28.1546 -18.5609 2.0911 0.8736
33.0143 -18.5078 2.3470 0.8593
38.0512 -17.8690 2.6068 0.8450
41.8478 -17.8453 2.8211 0.8333
46.3310 -17.8172 3.0781 0.8196
15.6068 -39.4472 1.6728 0.8438
15.4512 -35.2899 1.5190 0.8571
15.3609 -26.7940 1.2178 0.8837
15.2349 -20.9648 1.0219 0.9015
17.2083 -18.9879 1.0104 0.9025
18.2831 -18.7712 1.0332 0.9004
22.5013 -18.5980 1.1511 0.8897
26.0927 -18.5807 1.2631 0.8797
28.1502 -18.5580 1.3295 0.8737
30.4394 -18.5328 1.4052 0.8670
31.9375 -17.9041 1.4437 0.8637
34.7803 -17.8861 1.5421 0.8551
38.0436 -17.8654 1.6573 0.8451
46.3200 -17.8130 1.9568 0.8198
-7.0249 -42.8333 0.7332 0.8406
15.6035 -39.4390 0.7164 0.8439
15.4175 -32.0273 0.6004 0.8674
15.3860 -29.2249 0.5579 0.8762
14.5364 -25.3558 0.4937 0.8897
15.2640 -22.6763 0.4617 0.8964
15.7990 -20.1744 0.4328 0.9026
16.3749 -19.4284 0.4292 0.9033
18.2809 -18.7690 0.4426 0.9005
20.9501 -18.6231 0.4735 0.8939
24.2252 -18.5986 0.5159 0.8850
26.0888 -18.5779 0.5410 0.8797
29.4280 -17.9170 0.5820 0.8712
31.9319 -17.9010 0.6184 0.8638
38.0360 -17.8619 0.7098 0.8453
46.3090 -17.8088 0.8381 0.8200
-17.7872 -22.6412 -0.1621 0.8912
-12.9969 -22.5896 -0.1467 0.9010
-11.9308 -22.5774 -0.1438 0.9029
-9.9198 -22.5618 -0.1388 0.9061
-8.0321 -22.5395 -0.1347 0.9087
-7.1267 -22.5288 -0.1330 0.9098
-5.3763 -22.5082 -0.1303 0.9116
-5.0264 -30.6468 -0.1748 0.8832
-4.9353 -38.7731 -0.2201 0.8553
14.5304 -25.3454 -0.1645 0.8897
15.7973 -20.1721 -0.1443 0.9026
16.3731 -19.4262 -0.1430 0.9034
17.2044 -18.9836 -0.1442 0.9026
18.2788 -18.7668 -0.1475 0.9005
19.5554 -18.6841 -0.1523 0.8975
20.9475 -18.6208 -0.1578 0.8939
24.2218 -18.5960 -0.1719 0.8850
25.1950 -17.9415 -0.1741 0.8836
27.1954 -17.9285 -0.1834 0.8778
29.4231 -17.9141 -0.1939 0.8713
31.9263 -17.8979 -0.2061 0.8638
38.0284 -17.8583 -0.2365 0.8453
41.8207 -17.8337 -0.2560 0.8337
46.2981 -17.8046 -0.2793 0.8200
-17.7856 -22.6391 -0.8107 0.8912
-15.2730 -22.6144 -0.7684 0.8966
-12.9961 -22.5884 -0.7338 0.9010
-8.9612 -22.5484 -0.6832 0.9075
-8.0314 -22.5374 -0.6737 0.9087
-7.1260 -22.5268 -0.6653 0.9098
15.0993 -42.5787 -1.2721 0.8346
15.5971 -39.4226 -1.1938 0.8440
15.4429 -35.2710 -1.0842 0.8572
15.3814 -29.2161 -0.9297 0.8762
14.5244 -25.3349 -0.8223 0.8897
15.2298 -20.9579 -0.7295 0.9015
16.3713 -19.4241 -0.7153 0.9033
18.2766 -18.7646 -0.7376 0.9005
20.9448 -18.6184 -0.7891 0.8939
21.7313 -17.9615 -0.7939 0.8933
25.1914 -17.9389 -0.8708 0.8836
27.1911 -17.9258 -0.9170 0.8778
29.4183 -17.9112 -0.9698 0.8713
31.9208 -17.8947 -1.0304 0.8638
34.7608 -17.8761 -1.1006 0.8552
-16.4915 -22.6207 -1.4197 0.8939
-15.2721 -22.6131 -1.3838 0.8965
-14.1075 -22.5998 -1.3511 0.8988
-12.9954 -22.5871 -1.3215 0.9009
-11.9295 -22.5749 -1.2949 0.9028
-9.9179 -22.5575 -1.2497 0.9060
-8.0306 -22.5354 -1.2133 0.9086
-7.1253 -22.5247 -1.1981 0.9097
-5.3754 -22.5042 -1.1734 0.9115
-5.0900 -25.3024 -1.3089 0.9018
-2.7246 -49.7602 -2.5273 0.8191
15.0980 -42.5748 -2.2909 0.8345
14.5184 -25.3244 -1.4804 0.8897
15.0309 -24.1618 -1.4431 0.8923
16.3695 -19.4220 -1.2882 0.9033
17.2005 -18.9793 -1.2990 0.9025
18.2745 -18.7624 -1.3283 0.9004
25.1876 -17.9362 -1.5681 0.8835
31.9152 -17.8916 -1.8555 0.8637
34.7544 -17.8728 -1.9819 0.8551
38.0132 -17.8511 -2.1298 0.8452
41.8025 -17.8260 -2.3047 0.8336
46.2762 -17.7962 -2.5144 0.8199
-15.2712 -22.6117 -2.0006 0.8963
-14.1067 -22.5985 -1.9533 0.8987
-12.9946 -22.5858 -1.9106 0.9008
-9.9170 -22.5553 -1.8066 0.9059
-7.1247 -22.5227 -1.7321 0.9096
-6.2407 -22.5123 -1.7129 0.9106
-5.3749 -22.5021 -1.6963 0.9114
-5.0332 -30.6882 -2.2802 0.8827
-4.2374 -33.2901 -2.4606 0.8741
-1.9570 -35.7419 -2.6246 0.8663
3.2057 -35.8774 -2.6411 0.8655
3.2357 -25.7367 -1.9019 0.9012
8.3568 -35.2263 -2.6546 0.8648
9.6280 -34.9406 -2.6574 0.8647
10.8885 -34.6061 -2.6600 0.8646
9.1748 -23.1900 -1.8286 0.9048
11.0891 -23.0358 -1.8745 0.9025
15.2264 -20.9532 -1.8991 0.9013
16.3677 -19.4198 -1.8622 0.9032
17.1986 -18.9771 -1.8779 0.9024
19.5482 -18.6772 -1.9824 0.8972
20.2118 -17.9668 -1.9828 0.8972
21.7254 -17.9567 -2.0666 0.8931
23.3747 -17.9457 -2.1607 0.8885
30.0068 -16.8218 -2.5223 0.8711
33.2652 -14.1854 -2.6516 0.8650
33.7121 -12.9645 -2.6483 0.8651
34.1116 -11.7290 -2.6449 0.8653
-14.5823 -20.0020 -2.3764 0.9053
-13.8816 -20.5543 -2.3812 0.9051
-13.1598 -21.0817 -2.3859 0.9050
-12.4167 -21.5814 -2.3904 0.9048
-10.8722 -22.4966 -2.3988 0.9045
-9.9160 -22.5531 -2.3652 0.9057
-8.9586 -22.5420 -2.3288 0.9071
-7.1240 -22.5206 -2.2677 0.9094
-5.3744 -22.5001 -2.2209 0.9112
-4.0937 -24.9604 -2.4283 0.9034
-2.9440 -23.1286 -2.2384 0.9106
-1.2655 -23.1131 -2.2223 0.9112
0.3974 -23.0961 -2.2177 0.9114
1.4402 -27.0655 -2.6021 0.8968
2.0619 -23.0772 -2.2244 0.9111
4.5989 -23.0451 -2.2561 0.9099
6.2872 -26.5022 -2.6150 0.8963
8.1877 -26.0223 -2.6190 0.8962
8.1540 -22.9936 -2.3422 0.9066
10.0541 -22.9631 -2.4066 0.9042
11.1821 -23.2289 -2.4750 0.9016
12.0714 -22.9288 -2.4877 0.9011
17.1966 -18.9750 -2.4585 0.9022
17.9354 -18.4142 -2.4678 0.9019
18.5818 -17.7539 -2.4673 0.9019
21.6890 -16.6515 -2.6251 0.8959
23.3172 -14.1966 -2.6208 0.8961
23.7964 -13.3402 -2.6191 0.8962
24.2425 -12.4670 -2.6171 0.8962
24.6551 -11.5782 -2.6150 0.8963
25.3777 -9.7594 -2.6103 0.8965
25.6868 -8.8322 -2.6078 0.8966
-12.2931 -15.6479 -2.3637 0.9230
-11.7396 -16.1029 -2.3672 0.9229
-9.9855 -17.3557 -2.3785 0.9225
-6.0925 -19.2597 -2.3995 0.9219
-3.9989 -19.8790 -2.4087 0.9216
-3.2829 -20.0170 -2.4095 0.9215
-2.6243 -20.6173 -2.4688 0.9197
-1.9591 -21.5517 -2.5706 0.9165
-0.4065 -21.6813 -2.5759 0.9164
0.3735 -21.7029 -2.5784 0.9163
1.9353 -21.6592 -2.5831 0.9161
6.5547 -20.8325 -2.5942 0.9158
8.7722 -20.0354 -2.5980 0.9157
9.4904 -19.7147 -2.5990 0.9156
10.1963 -19.3672 -2.5999 0.9156
10.8889 -18.9935 -2.6006 0.9156
12.2301 -18.1692 -2.6016 0.9156
12.8767 -17.7198 -2.6019 0.9155
13.5061 -17.2465 -2.6021 0.9155
14.1174 -16.7499 -2.6021 0.9155
14.7095 -16.2307 -2.6019 0.9155
15.2817 -15.6897 -2.6016 0.9156
16.3631 -14.5456 -2.6006 0.9156
16.8708 -13.9443 -2.5999 0.9156
17.3554 -13.3244 -2.5991 0.9156
18.2527 -12.0332 -2.5969 0.9157
18.6643 -11.3637 -2.5957 0.9157
19.4105 -9.9820 -2.5927 0.9158
20.0506 -8.5503 -2.5892 0.9159
-9.3775 -13.8851 -2.3740 0.9346
-8.8528 -14.1821 -2.3688 0.9347
-8.3472 -14.5083 -2.3716 0.9346
-7.8295 -14.8162 -2.3744 0.9345
-5.6596 -15.8819 -2.3889 0.9342
-3.9254 -16.4339 -2.3940 0.9340
-3.3337 -16.5723 -2.3952 0.9340
-2.8281 -17.2441 -2.4759 0.9318
-2.2775 -17.8929 -2.5557 0.9297
-0.9879 -18.0424 -2.5602 0.9296
2.9101 -17.9164 -2.5718 0.9293
3.5546 -17.8113 -2.5734 0.9293
4.1948 -17.6822 -2.5749 0.9292
4.8303 -17.5295 -2.5763 0.9292
6.0830 -17.1534 -2.5787 0.9291
6.6984 -16.9306 -2.5798 0.9291
7.3053 -16.6849 -2.5807 0.9291
8.4902 -16.1267 -2.5823 0.9290
11.2447 -14.3587 -2.5841 0.9290
12.2466 -13.5131 -2.5840 0.9290
13.1828 -12.5955 -2.5834 0.9290
17.1539 -5.8982 -2.5702 0.9293
-8.0967 -12.9708 -2.5189 0.9399
-7.1584 -13.5463 -2.5240 0.9398
-5.6064 -14.1071 -2.5008 0.9403
-5.1121 -14.3455 -2.5088 0.9401
-3.5829 -15.0002 -2.5406 0.9394
-3.0440 -15.1322 -2.5428 0.9393
-2.5002 -15.2445 -2.5449 0.9393
-1.9522 -15.3369 -2.5470 0.9392
-1.4007 -15.4091 -2.5489 0.9392
-0.2904 -15.4927 -2.5527 0.9391
0.2668 -15.5038 -2.5545 0.9391
1.9379 -15.4141 -2.5593 0.9390
5.7338 -14.4925 -2.5675 0.9388
7.2666 -13.8024 -2.5697 0.9387
7.7596 -13.5350 -2.5702 0.9387
8.2424 -13.2494 -2.5706 0.9387
8.7143 -12.9461 -2.5709 0.9387
9.6231 -12.2880 -2.5712 0.9387
10.8887 -11.1794 -2.5709 0.9387
11.2822 -10.7795 -2.5706 0.9387
11.6605 -10.3654 -2.5702 0.9387
12.3697 -9.4967 -2.5691 0.9387
12.6996 -9.0435 -2.5684 0.9388
13.8442 -7.1195 -2.5646 0.9388
14.3063 -6.1007 -2.5621 0.9389
14.5086 -5.5795 -2.5608 0.9389
14.6915 -5.0516 -2.5593 0.9390
-7.8711 -10.7965 -2.5114 0.9471
-7.0879 -11.3547 -2.5159 0.9470
-6.2649 -11.8555 -2.5204 0.9469
-5.8397 -12.0835 -2.5226 0.9468
-4.5163 -12.6737 -2.5289 0.9467
-4.0611 -12.8381 -2.5309 0.9467
-3.5998 -12.9859 -2.5329 0.9466
-3.1331 -13.1171 -2.5349 0.9466
-2.1859 -13.3280 -2.5386 0.9465
-1.7066 -13.4073 -2.5404 0.9465
-0.2538 -13.5397 -2.5454 0.9464
0.2332 -13.5483 -2.5469 0.9463
0.7204 -13.5390 -2.5484 0.9463
1.2073 -13.5118 -2.5498 0.9463
2.6588 -13.3230 -2.5536 0.9462
5.4605 -12.4716 -2.5590 0.9461
5.9067 -12.2702 -2.5596 0.9461
6.3453 -12.0524 -2.5601 0.9461
6.7755 -11.8186 -2.5606 0.9461
7.1970 -11.5690 -2.5609 0.9461
7.6090 -11.3040 -2.5612 0.9461
9.1511 -10.0975 -2.5614 0.9460
9.5076 -9.7613 -2.5612 0.9460
10.4988 -8.6776 -2.5602 0.9461
11.3638 -7.4916 -2.5583 0.9461
11.6222 -7.0761 -2.5575 0.9461
12.0920 -6.2185 -2.5557 0.9462
12.6747 -4.8743 -2.5524 0.9462
12.8353 -4.4133 -2.5512 0.9463
-7.3282 -9.3281 -2.5075 0.9527
-6.2967 -10.0871 -2.5135 0.9525
-5.9347 -10.3151 -2.5155 0.9525
-5.5644 -10.5300 -2.5175 0.9525
-5.1863 -10.7314 -2.5194 0.9524
-4.8008 -10.9191 -2.5213 0.9524
-4.4085 -11.0928 -2.5232 0.9524
-3.6053 -11.3973 -2.5268 0.9523
-3.1955 -11.5275 -2.5286 0.9523
-2.7810 -11.6428 -2.5303 0.9522
-2.3622 -11.7430 -2.5319 0.9522
-1.9399 -11.8283 -2.5337 0.9522
-1.0864 -11.9517 -2.5368 0.9521
0.2069 -12.0194 -2.5410 0.9520
0.6391 -12.0103 -2.5423 0.9520
1.0709 -11.9854 -2.5436 0.9520
1.9310 -11.8882 -2.5459 0.9520
2.3580 -11.8160 -2.5469 0.9519
4.0326 -11.3716 -2.5504 0.9519
4.8417 -11.0582 -2.5517 0.9518
5.2372 -10.8794 -2.5523 0.9518
6.3808 -10.2571 -2.5534 0.9518
6.7460 -10.0220 -2.5537 0.9518
7.4493 -9.5123 -2.5539 0.9518
7.7864 -9.2384 -2.5539 0.9518
8.1132 -8.9523 -2.5538 0.9518
8.7341 -8.3450 -2.5534 0.9518
9.0273 -8.0247 -2.5531 0.9518
9.5773 -7.3529 -2.5523 0.9518
10.5215 -5.8983 -2.5497 0.9519
10.9106 -5.1237 -2.5479 0.9519
11.0834 -4.7263 -2.5469 0.9519
11.2416 -4.3231 -2.5459 0.9520
11.3847 -3.9145 -2.5448 0.9520
-6.5875 -8.3853 -2.5062 0.9571
-6.2865 -8.6229 -2.5080 0.9571
-5.6589 -9.0654 -2.5116 0.9570
-5.3331 -9.2694 -2.5134 0.9570
-5.0000 -9.4618 -2.5151 0.9570
-4.3132 -9.8100 -2.5186 0.9569
-2.8701 -10.3535 -2.5251 0.9568
-1.3598 -10.6834 -2.5311 0.9567
-0.9755 -10.7311 -2.5325 0.9567
-0.2022 -10.7846 -2.5351 0.9566
0.1857 -10.7900 -2.5363 0.9566
0.9613 -10.7585 -2.5386 0.9566
1.3479 -10.7214 -2.5396 0.9566
2.4971 -10.5257 -2.5424 0.9565
3.2488 -10.3254 -2.5440 0.9565
4.3446 -9.9229 -2.5459 0.9565
4.6994 -9.7622 -2.5463 0.9565
5.0481 -9.5886 -2.5468 0.9565
5.7254 -9.2034 -2.5474 0.9564
6.0530 -8.9924 -2.5476 0.9564
6.9864 -8.2892 -2.5478 0.9564
7.5633 -7.7652 -2.5476 0.9564
9.2482 -5.6307 -2.5447 0.9565
9.4421 -5.2932 -2.5440 0.9565
10.0898 -3.8802 -2.5406 0.9566
-5.9770 -7.6081 -2.5051 0.9608
-4.8375 -8.4081 -2.5116 0.9607
-2.2644 -9.4801 -2.5236 0.9605
-1.9232 -9.5605 -2.5250 0.9605
-1.2326 -9.6839 -2.5276 0.9605
1.5705 -9.6691 -2.5363 0.9603
1.9177 -9.6096 -2.5371 0.9603
2.2626 -9.5375 -2.5379 0.9603
4.5734 -8.6869 -2.5419 0.9602
4.8833 -8.5180 -2.5422 0.9602
5.1869 -8.3378 -2.5424 0.9602
5.7732 -7.9446 -2.5427 0.9602
6.0552 -7.7321 -2.5428 0.9602
6.3292 -7.5095 -2.5428 0.9602
6.5949 -7.2770 -2.5428 0.9602
7.5671 -6.2545 -2.5419 0.9602
7.9943 -5.6928 -2.5411 0.9603
8.5551 -4.7960 -2.5394 0.9603
8.7196 -4.4841 -2.5387 0.9603
9.2603 -3.1841 -2.5354 0.9603
-5.4646 -6.9559 -2.5041 0.9639
-5.2142 -7.1522 -2.5057 0.9639
-4.6925 -7.5173 -2.5087 0.9638
-4.4218 -7.6855 -2.5101 0.9638
-4.1451 -7.8441 -2.5116 0.9638
-3.8627 -7.9926 -2.5130 0.9638
-3.5749 -8.1309 -2.5144 0.9637
-2.9847 -8.3758 -2.5172 0.9637
-2.0689 -8.6619 -2.5211 0.9637
-1.4427 -8.7966 -2.5235 0.9636
-1.1261 -8.8469 -2.5247 0.9636
-0.8077 -8.8856 -2.5258 0.9636
-0.4880 -8.9127 -2.5269 0.9636
-0.1674 -8.9282 -2.5279 0.9636
0.1537 -8.9326 -2.5291 0.9635
0.7957 -8.9051 -2.5310 0.9635
1.4344 -8.8308 -2.5327 0.9635
1.7514 -8.7762 -2.5335 0.9635
2.0663 -8.7101 -2.5342 0.9635
2.6881 -8.5435 -2.5355 0.9635
3.2964 -8.3318 -2.5366 0.9634
3.5944 -8.2094 -2.5370 0.9634
3.8878 -8.0762 -2.5374 0.9634
4.1761 -7.9323 -2.5378 0.9634
4.7362 -7.6133 -2.5383 0.9634
5.5290 -7.0602 -2.5386 0.9634
5.7792 -6.8569 -2.5386 0.9634
6.0218 -6.6446 -2.5386 0.9634
7.4809 -4.9318 -2.5366 0.9634
7.6518 -4.6588 -2.5361 0.9634
7.9630 -4.0950 -2.5349 0.9635
8.1029 -3.8052 -2.5342 0.9635
8.2321 -3.5105 -2.5335 0.9635
8.4577 -2.9081 -2.5319 0.9635
-4.7974 -6.5804 -2.5048 0.9665
-4.5603 -6.7523 -2.5061 0.9665
-4.3170 -6.9157 -2.5075 0.9665
-3.5530 -7.3520 -2.5115 0.9664
-3.2882 -7.4788 -2.5128 0.9664
-2.7452 -7.7035 -2.5154 0.9664
-2.4677 -7.8009 -2.5166 0.9663
-2.1867 -7.8883 -2.5178 0.9663
-1.9026 -7.9656 -2.5189 0.9663
-1.3266 -8.0888 -2.5212 0.9663
-0.1539 -8.2087 -2.5252 0.9662
0.1413 -8.2119 -2.5262 0.9662
1.3186 -8.1179 -2.5296 0.9662
1.6100 -8.0676 -2.5303 0.9662
1.8994 -8.0066 -2.5310 0.9661
2.1866 -7.9351 -2.5316 0.9661
2.7521 -7.7608 -2.5327 0.9661
3.0299 -7.6583 -2.5332 0.9661
3.3038 -7.5457 -2.5336 0.9661
3.5734 -7.4231 -2.5340 0.9661
3.8384 -7.2908 -2.5343 0.9661
4.3531 -6.9975 -2.5347 0.9661
4.8451 -6.6673 -2.5350 0.9661
5.3117 -6.3022 -2.5351 0.9661
5.5347 -6.1071 -2.5350 0.9661
5.7504 -5.9039 -2.5349 0.9661
5.9585 -5.6930 -2.5348 0.9661
6.3509 -5.2492 -2.5343 0.9661
6.8761 -4.5331 -2.5332 0.9661
7.1813 -4.0258 -2.5322 0.9661
7.4484 -3.4978 -2.5310 0.9661
7.5674 -3.2270 -2.5303 0.9662
7.6763 -2.9521 -2.5296 0.9662
7.7752 -2.6734 -2.5289 0.9662
-4.2182 -6.2458 -2.5053 0.9687
-3.9929 -6.3966 -2.5065 0.9687
-3.7623 -6.5393 -2.5078 0.9687
-3.5266 -6.6736 -2.5090 0.9687
-2.2818 -7.2135 -2.5149 0.9686
-2.0220 -7.2940 -2.5160 0.9686
-1.7592 -7.3652 -2.5171 0.9686
-1.4940 -7.4268 -2.5181 0.9686
-1.2265 -7.4787 -2.5192 0.9686
-0.4148 -7.5759 -2.5220 0.9685
0.1307 -7.5913 -2.5238 0.9685
0.4036 -7.5842 -2.5246 0.9685
0.6761 -7.5671 -2.5253 0.9685
0.9480 -7.5401 -2.5261 0.9685
1.2188 -7.5037 -2.5270 0.9685
1.4882 -7.4571 -2.5276 0.9685
1.7556 -7.4005 -2.5282 0.9684
2.0210 -7.3343 -2.5288 0.9684
2.2838 -7.2584 -2.5293 0.9684
4.6965 -5.9971 -2.5320 0.9684
5.1151 -5.6441 -2.5320 0.9684
5.3145 -5.4564 -2.5319 0.9684
5.5069 -5.2615 -2.5317 0.9684
5.6920 -5.0598 -2.5315 0.9684
5.8696 -4.8515 -2.5313 0.9684
6.0395 -4.6368 -2.5310 0.9684
6.3552 -4.1897 -2.5303 0.9684
6.6374 -3.7209 -2.5294 0.9684
6.7655 -3.4792 -2.5288 0.9684
6.8846 -3.2331 -2.5283 0.9684
7.0956 -2.7287 -2.5270 0.9685
7.1871 -2.4712 -2.5263 0.9685
-3.7103 -5.9438 -2.5057 0.9707
-3.4958 -6.0762 -2.5068 0.9707
-3.2767 -6.2007 -2.5080 0.9706
-1.6342 -6.8418 -2.5155 0.9706
-1.3878 -6.8987 -2.5165 0.9705
-1.1393 -6.9468 -2.5174 0.9705
-0.6377 -7.0157 -2.5192 0.9705
-0.1321 -7.0481 -2.5209 0.9705
0.1213 -7.0505 -2.5217 0.9705
0.3748 -7.0437 -2.5224 0.9705
0.8804 -7.0024 -2.5238 0.9705
1.3819 -6.9245 -2.5251 0.9704
1.6303 -6.8722 -2.5257 0.9704
2.1208 -6.7403 -2.5269 0.9704
2.6004 -6.5727 -2.5277 0.9704
2.8354 -6.4759 -2.5281 0.9704
3.5172 -6.1350 -2.5289 0.9704
4.1579 -5.7217 -2.5293 0.9704
4.3609 -5.5686 -2.5293 0.9704
4.5583 -5.4082 -2.5293 0.9704
4.7497 -5.2407 -2.5293 0.9704
5.1134 -4.8856 -2.5291 0.9704
5.6082 -4.3056 -2.5284 0.9704
5.7586 -4.1007 -2.5281 0.9704
6.0365 -3.6753 -2.5273 0.9704
6.1636 -3.4554 -2.5269 0.9704
6.2826 -3.2309 -2.5264 0.9704
6.6746 -2.2950 -2.5240 0.9705
-3.8473 -5.2772 -2.5027 0.9724
-3.0566 -5.7842 -2.5071 0.9724
-2.6353 -5.9939 -2.5092 0.9723
-1.9771 -6.2502 -2.5122 0.9723
-1.2942 -6.4339 -2.5150 0.9723
-1.0625 -6.4785 -2.5158 0.9723
-0.8292 -6.5147 -2.5167 0.9723
-0.5947 -6.5425 -2.5175 0.9723
-0.3593 -6.5617 -2.5183 0.9722
0.3495 -6.5680 -2.5205 0.9722
1.0553 -6.4971 -2.5224 0.9722
1.5200 -6.4073 -2.5235 0.9722
2.2023 -6.2101 -2.5250 0.9722
2.6435 -6.0377 -2.5258 0.9722
3.0711 -5.8335 -2.5264 0.9722
3.4828 -5.5986 -2.5267 0.9722
3.6820 -5.4700 -2.5269 0.9721
4.0657 -5.1916 -2.5270 0.9721
4.2497 -5.0421 -2.5270 0.9721
4.4281 -4.8860 -2.5269 0.9721
4.6007 -4.7236 -2.5269 0.9721
5.2286 -4.0142 -2.5261 0.9722
5.3689 -3.8232 -2.5258 0.9722
5.7467 -3.2217 -2.5247 0.9722
5.9611 -2.7994 -2.5238 0.9722
6.1442 -2.3629 -2.5227 0.9722
-3.4231 -5.0686 -2.5032 0.9739
-2.4666 -5.6101 -2.5082 0.9739
-2.0587 -5.7772 -2.5101 0.9738
-1.2112 -6.0211 -2.5136 0.9738
-0.5565 -6.1223 -2.5160 0.9738
-0.3362 -6.1402 -2.5168 0.9738
0.3270 -6.1457 -2.5188 0.9738
0.5479 -6.1315 -2.5195 0.9737
1.8499 -5.8792 -2.5225 0.9737
2.0603 -5.8098 -2.5229 0.9737
2.4730 -5.6483 -2.5235 0.9737
2.6748 -5.5565 -2.5239 0.9737
2.8733 -5.4576 -2.5243 0.9737
3.0679 -5.3512 -2.5245 0.9737
3.6266 -4.9906 -2.5249 0.9737
4.1428 -4.5712 -2.5249 0.9737
4.4601 -4.2614 -2.5247 0.9737
4.7541 -3.9294 -2.5243 0.9737
4.8918 -3.7556 -2.5241 0.9737
5.0231 -3.5770 -2.5238 0.9737
5.1478 -3.3937 -2.5235 0.9737
5.2657 -3.2060 -2.5231 0.9737
5.3767 -3.0142 -2.5228 0.9737
5.4807 -2.8185 -2.5223 0.9737
5.6669 -2.4166 -2.5214 0.9737
5.7489 -2.2108 -2.5209 0.9737
-3.3816 -4.6385 -2.5017 0.9753
-2.8659 -4.9813 -2.5046 0.9752
-2.6860 -5.0830 -2.5055 0.9752
-2.3156 -5.2667 -2.5074 0.9752
-2.1256 -5.3485 -2.5083 0.9752
-1.9326 -5.4233 -2.5091 0.9752
-1.7370 -5.4911 -2.5100 0.9752
-1.3389 -5.6055 -2.5117 0.9752
-1.1369 -5.6518 -2.5125 0.9752
-0.7284 -5.7223 -2.5140 0.9751
-0.3155 -5.7631 -2.5154 0.9751
0.0994 -5.7739 -2.5167 0.9751
0.7209 -5.7337 -2.5185 0.9751
0.9267 -5.7053 -2.5190 0.9751
1.1314 -5.6694 -2.5195 0.9751
1.5363 -5.5753 -2.5204 0.9751
2.6961 -5.1210 -2.5222 0.9751
2.8786 -5.0212 -2.5224 0.9751
3.0574 -4.9148 -2.5225 0.9751
3.5693 -4.5578 -2.5230 0.9751
3.7309 -4.4266 -2.5230 0.9751
4.1854 -3.9990 -2.5228 0.9751
4.3262 -3.8457 -2.5227 0.9751
4.5906 -3.5244 -2.5223 0.9751
4.9416 -3.0087 -2.5214 0.9751
5.0458 -2.8287 -2.5210 0.9751
5.1433 -2.6451 -2.5206 0.9751
5.3946 -2.0746 -2.5189 0.9751
-3.3369 -4.2475 -2.5003 0.9765
-3.1833 -4.3665 -2.5013 0.9765
-3.0254 -4.4797 -2.5022 0.9765
-2.8635 -4.5873 -2.5031 0.9764
-2.5283 -4.7845 -2.5049 0.9764
-2.1795 -4.9572 -2.5066 0.9764
-2.0006 -5.0341 -2.5075 0.9764
-1.8190 -5.1044 -2.5083 0.9764
-1.6348 -5.1681 -2.5091 0.9764
-1.4485 -5.2252 -2.5099 0.9764
-1.2601 -5.2755 -2.5107 0.9764
-1.0700 -5.3190 -2.5114 0.9764
-0.8783 -5.3556 -2.5121 0.9764
-0.6854 -5.3852 -2.5128 0.9764
-0.4916 -5.4079 -2.5135 0.9763
-0.2969 -5.4234 -2.5142 0.9763
-0.1018 -5.4320 -2.5148 0.9763
0.2888 -5.4278 -2.5160 0.9763
0.4839 -5.4151 -2.5165 0.9763
0.6783 -5.3953 -2.5171 0.9763
0.8720 -5.3685 -2.5176 0.9763
1.0646 -5.3347 -2.5180 0.9763
2.0027 -5.0621 -2.5199 0.9763
2.1837 -4.9873 -2.5201 0.9763
2.3617 -4.9061 -2.5204 0.9763
2.5367 -4.8184 -2.5206 0.9763
2.8767 -4.6243 -2.5209 0.9763
3.0412 -4.5180 -2.5210 0.9763
3.5100 -4.1645 -2.5211 0.9763
4.0701 -3.6180 -2.5207 0.9763
4.1972 -3.4691 -2.5205 0.9763
4.5449 -2.9963 -2.5198 0.9763
4.7471 -2.6613 -2.5191 0.9763
4.9246 -2.3126 -2.5183 0.9763
5.1420 -1.7680 -2.5169 0.9763
-2.7016 -4.3279 -2.5026 0.9775
-2.5452 -4.4237 -2.5035 0.9775
-2.2222 -4.5982 -2.5051 0.9775
-1.1887 -4.9765 -2.5097 0.9775
-0.4637 -5.1009 -2.5124 0.9774
-0.0960 -5.1236 -2.5136 0.9774
0.2724 -5.1195 -2.5148 0.9774
0.8224 -5.0634 -2.5162 0.9774
1.0041 -5.0314 -2.5167 0.9774
1.3634 -4.9478 -2.5175 0.9774
1.8888 -4.7741 -2.5184 0.9774
2.2273 -4.6270 -2.5189 0.9774
2.8681 -4.2609 -2.5195 0.9774
3.0195 -4.1552 -2.5195 0.9774
3.8385 -3.4121 -2.5192 0.9774
3.9584 -3.2717 -2.5190 0.9774
4.1825 -2.9783 -2.5186 0.9774
4.2864 -2.8258 -2.5183 0.9774
4.3847 -2.6696 -2.5180 0.9774
4.5639 -2.3470 -2.5174 0.9774
4.7192 -2.0124 -2.5166 0.9774
4.7877 -1.8412 -2.5161 0.9774
4.8498 -1.6676 -2.5157 0.9774
-2.8394 -3.8947 -2.5004 0.9785
-2.6986 -3.9957 -2.5013 0.9785
-2.5540 -4.0915 -2.5022 0.9785
-2.4060 -4.1820 -2.5030 0.9785
-2.2549 -4.2671 -2.5037 0.9785
-1.9437 -4.4208 -2.5053 0.9785
-1.6220 -4.5517 -2.5068 0.9785
-0.7831 -4.7749 -2.5102 0.9784
-0.6111 -4.8012 -2.5108 0.9784
-0.2647 -4.8350 -2.5120 0.9784
-0.0908 -4.8425 -2.5126 0.9784
0.0834 -4.8436 -2.5131 0.9784
0.2575 -4.8385 -2.5136 0.9784
0.6047 -4.8093 -2.5146 0.9784
0.7773 -4.7853 -2.5150 0.9784
1.6215 -4.5725 -2.5168 0.9784
1.7850 -4.5117 -2.5171 0.9784
2.1049 -4.3726 -2.5175 0.9784
2.8535 -3.9267 -2.5181 0.9784
3.1283 -3.7116 -2.5182 0.9784
3.3867 -3.4771 -2.5181 0.9784
3.5093 -3.3530 -2.5180 0.9784
3.6274 -3.2245 -2.5178 0.9784
3.7407 -3.0919 -2.5177 0.9784
3.8492 -2.9552 -2.5175 0.9784
4.0508 -2.6705 -2.5170 0.9784
4.2312 -2.3720 -2.5164 0.9784
4.4600 -1.9019 -2.5153 0.9784
4.5248 -1.7401 -2.5149 0.9784
4.5836 -1.5760 -2.5145 0.9784
-2.4187 -3.8748 -2.5017 0.9794
-2.2786 -3.9604 -2.5025 0.9794
-2.1354 -4.0410 -2.5033 0.9794
-1.8406 -4.1864 -2.5047 0.9794
-1.3804 -4.3638 -2.5068 0.9793
-0.7415 -4.5212 -2.5094 0.9793
-0.5786 -4.5461 -2.5100 0.9793
-0.0859 -4.5850 -2.5116 0.9793
0.0789 -4.5860 -2.5121 0.9793
0.2438 -4.5811 -2.5126 0.9793
0.5725 -4.5534 -2.5135 0.9793
0.7359 -4.5306 -2.5139 0.9793
0.8984 -4.5019 -2.5143 0.9793
1.0598 -4.4674 -2.5147 0.9793
1.2199 -4.4270 -2.5150 0.9793
1.3784 -4.3808 -2.5153 0.9793
1.8425 -4.2083 -2.5161 0.9793
1.9928 -4.1396 -2.5163 0.9793
2.5660 -3.8121 -2.5168 0.9793
2.7014 -3.7175 -2.5169 0.9793
2.8333 -3.6180 -2.5169 0.9793
3.0859 -3.4050 -2.5169 0.9793
3.6441 -2.7977 -2.5163 0.9793
4.0059 -2.2457 -2.5153 0.9793
4.0835 -2.1000 -2.5149 0.9793
4.1558 -1.9516 -2.5146 0.9793
4.2839 -1.6475 -2.5138 0.9793
4.3397 -1.4922 -2.5134 0.9793
-2.6755 -3.4056 -2.5004 0.9802
-2.5514 -3.4997 -2.5005 0.9802
-2.4240 -3.5892 -2.5005 0.9802
-2.2942 -3.6752 -2.5014 0.9802
-2.1612 -3.7564 -2.5021 0.9802
-2.0254 -3.8328 -2.5028 0.9802
-1.6023 -4.0318 -2.5049 0.9802
-1.4567 -4.0879 -2.5055 0.9802
-1.3092 -4.1387 -2.5062 0.9802
-1.1599 -4.1841 -2.5068 0.9801
-0.8567 -4.2587 -2.5080 0.9801
-0.2377 -4.3414 -2.5102 0.9801
-0.0815 -4.3480 -2.5107 0.9801
0.0749 -4.3489 -2.5112 0.9801
0.2312 -4.3443 -2.5117 0.9801
0.3873 -4.3339 -2.5121 0.9801
0.5429 -4.3179 -2.5125 0.9801
0.6978 -4.2962 -2.5129 0.9801
1.6024 -4.0502 -2.5148 0.9801
1.7471 -3.9904 -2.5150 0.9801
1.8896 -3.9253 -2.5152 0.9801
2.1670 -3.7799 -2.5155 0.9801
2.3016 -3.6997 -2.5156 0.9801
2.4331 -3.6146 -2.5157 0.9801
2.5615 -3.5249 -2.5157 0.9801
2.6866 -3.4306 -2.5157 0.9801
2.8082 -3.3318 -2.5157 0.9801
3.0402 -3.1213 -2.5156 0.9801
3.1503 -3.0100 -2.5156 0.9801
3.3581 -2.7755 -2.5153 0.9801
3.4554 -2.6529 -2.5151 0.9801
3.5483 -2.5268 -2.5149 0.9801
3.6365 -2.3974 -2.5147 0.9801
3.7200 -2.2649 -2.5145 0.9801
4.1152 -1.4150 -2.5124 0.9801
